<?xml version="1.0" encoding="utf-8" standalone="no"?>
<!DOCTYPE svg PUBLIC "-//W3C//DTD SVG 1.1//EN"
  "http://www.w3.org/Graphics/SVG/1.1/DTD/svg11.dtd">
<svg xmlns:xlink="http://www.w3.org/1999/xlink" width="72.63pt" height="99.9pt" viewBox="0 0 72.63 99.9" xmlns="http://www.w3.org/2000/svg" version="1.1">
 <metadata>
  <rdf:RDF xmlns:dc="http://purl.org/dc/elements/1.1/" xmlns:cc="http://creativecommons.org/ns#" xmlns:rdf="http://www.w3.org/1999/02/22-rdf-syntax-ns#">
   <cc:Work>
    <dc:type rdf:resource="http://purl.org/dc/dcmitype/StillImage"/>
    <dc:format>image/svg+xml</dc:format>
    <dc:creator>
     <cc:Agent>
      <dc:title>Matplotlib v3.10.8, https://matplotlib.org/</dc:title>
     </cc:Agent>
    </dc:creator>
   </cc:Work>
  </rdf:RDF>
 </metadata>
 <defs>
  <style type="text/css">*{stroke-linejoin: round; stroke-linecap: butt}</style>
 </defs>
 <g id="figure_1">
  <g id="patch_1">
   <path d="M 0 99.9
L 72.63 99.9
L 72.63 0
L 0 0
z
" style="fill: #ffffff"/>
  </g>
  <g id="axes_1">
   <g id="patch_2">
    <path d="M 1.44 98.46
L 71.19 98.46
L 71.19 1.44
L 1.44 1.44
z
" style="fill: #ffffff"/>
   </g>
   <g id="patch_3">
    <path d="M 1.44 31.5162
L 66.151826 31.5162
L 66.151826 10.1718
L 1.44 10.1718
z
" clip-path="url(#p879ee31a35)" style="fill: #5e6b73; opacity: 0.92"/>
   </g>
   <g id="patch_4">
    <path d="M 1.44 63.8562
L 22.260008 63.8562
L 22.260008 42.5118
L 1.44 42.5118
z
" clip-path="url(#p879ee31a35)" style="fill: #5e6b73; opacity: 0.92"/>
   </g>
   <g id="patch_5">
    <path d="M 1.44 96.1962
L 9.445452 96.1962
L 9.445452 74.8518
L 1.44 74.8518
z
" clip-path="url(#p879ee31a35)" style="fill: #5e6b73; opacity: 0.92"/>
   </g>
   <g id="matplotlib.axis_1"/>
   <g id="matplotlib.axis_2"/>
   <g id="patch_6">
    <path d="M 1.44 98.46
L 71.19 98.46
" style="fill: none; stroke: #cccccc; stroke-width: 0.55; stroke-linejoin: miter; stroke-linecap: square"/>
   </g>
   <g id="text_1">
    <!-- 1 GPU 50000h -->
    <g style="fill: #ffffff" transform="translate(31.219118 22.167156) scale(0.052 -0.052)">
     <defs>
      <path id="Helvetica-31" d="M 613 3169
L 613 3600
Q 1222 3659 1462 3798
Q 1703 3938 1822 4456
L 2266 4456
L 2266 0
L 1666 0
L 1666 3169
L 613 3169
z
" transform="scale(0.015625)"/>
      <path id="Helvetica-20" transform="scale(0.015625)"/>
      <path id="Helvetica-47" d="M 2472 4709
Q 3119 4709 3591 4459
Q 4275 4100 4428 3200
L 3813 3200
Q 3700 3703 3347 3933
Q 2994 4163 2456 4163
Q 1819 4163 1383 3684
Q 947 3206 947 2259
Q 947 1441 1306 927
Q 1666 413 2478 413
Q 3100 413 3508 773
Q 3916 1134 3925 1941
L 2488 1941
L 2488 2456
L 4503 2456
L 4503 0
L 4103 0
L 3953 591
Q 3638 244 3394 109
Q 2984 -122 2353 -122
Q 1538 -122 950 406
Q 309 1069 309 2225
Q 309 3378 934 4059
Q 1528 4709 2472 4709
z
M 2369 4716
L 2369 4716
z
" transform="scale(0.015625)"/>
      <path id="Helvetica-50" d="M 547 4591
L 2613 4591
Q 3225 4591 3600 4245
Q 3975 3900 3975 3275
Q 3975 2738 3640 2339
Q 3306 1941 2613 1941
L 1169 1941
L 1169 0
L 547 0
L 547 4591
z
M 3347 3272
Q 3347 3778 2972 3959
Q 2766 4056 2406 4056
L 1169 4056
L 1169 2466
L 2406 2466
Q 2825 2466 3086 2644
Q 3347 2822 3347 3272
z
" transform="scale(0.015625)"/>
      <path id="Helvetica-55" d="M 1163 4591
L 1163 1753
Q 1163 1253 1350 922
Q 1628 422 2288 422
Q 3078 422 3363 963
Q 3516 1256 3516 1753
L 3516 4591
L 4147 4591
L 4147 2013
Q 4147 1166 3919 709
Q 3500 -122 2338 -122
Q 1175 -122 759 709
Q 531 1166 531 2013
L 531 4591
L 1163 4591
z
M 2341 4591
L 2341 4591
z
" transform="scale(0.015625)"/>
      <path id="Helvetica-35" d="M 791 1141
Q 847 659 1238 475
Q 1438 381 1700 381
Q 2200 381 2440 700
Q 2681 1019 2681 1406
Q 2681 1875 2395 2131
Q 2109 2388 1709 2388
Q 1419 2388 1211 2275
Q 1003 2163 856 1963
L 369 1991
L 709 4400
L 3034 4400
L 3034 3856
L 1131 3856
L 941 2613
Q 1097 2731 1238 2791
Q 1488 2894 1816 2894
Q 2431 2894 2859 2497
Q 3288 2100 3288 1491
Q 3288 856 2895 371
Q 2503 -113 1644 -113
Q 1097 -113 676 195
Q 256 503 206 1141
L 791 1141
z
" transform="scale(0.015625)"/>
      <path id="Helvetica-30" d="M 1731 4475
Q 2600 4475 2988 3759
Q 3288 3206 3288 2244
Q 3288 1331 3016 734
Q 2622 -122 1728 -122
Q 922 -122 528 578
Q 200 1163 200 2147
Q 200 2909 397 3456
Q 766 4475 1731 4475
z
M 1725 391
Q 2163 391 2422 778
Q 2681 1166 2681 2222
Q 2681 2984 2493 3476
Q 2306 3969 1766 3969
Q 1269 3969 1039 3501
Q 809 3034 809 2125
Q 809 1441 956 1025
Q 1181 391 1725 391
z
" transform="scale(0.015625)"/>
      <path id="Helvetica-68" d="M 413 4606
L 975 4606
L 975 2894
Q 1175 3147 1334 3250
Q 1606 3428 2013 3428
Q 2741 3428 3000 2919
Q 3141 2641 3141 2147
L 3141 0
L 2563 0
L 2563 2109
Q 2563 2478 2469 2650
Q 2316 2925 1894 2925
Q 1544 2925 1259 2684
Q 975 2444 975 1775
L 975 0
L 413 0
L 413 4606
z
" transform="scale(0.015625)"/>
     </defs>
     <use xlink:href="#Helvetica-31"/>
     <use xlink:href="#Helvetica-20" transform="translate(55.615234 0)"/>
     <use xlink:href="#Helvetica-47" transform="translate(83.398438 0)"/>
     <use xlink:href="#Helvetica-50" transform="translate(161.181641 0)"/>
     <use xlink:href="#Helvetica-55" transform="translate(227.880859 0)"/>
     <use xlink:href="#Helvetica-20" transform="translate(300.097656 0)"/>
     <use xlink:href="#Helvetica-35" transform="translate(327.880859 0)"/>
     <use xlink:href="#Helvetica-30" transform="translate(383.496094 0)"/>
     <use xlink:href="#Helvetica-30" transform="translate(439.111328 0)"/>
     <use xlink:href="#Helvetica-30" transform="translate(494.726562 0)"/>
     <use xlink:href="#Helvetica-30" transform="translate(550.341797 0)"/>
     <use xlink:href="#Helvetica-68" transform="translate(605.957031 0)"/>
    </g>
   </g>
   <g id="text_2">
    <!-- 1K GPUs 50h -->
    <g style="fill: #333333" transform="translate(24.809932 54.507156) scale(0.052 -0.052)">
     <defs>
      <path id="Helvetica-4b" d="M 488 4591
L 1094 4591
L 1094 2353
L 3331 4591
L 4191 4591
L 2281 2741
L 4244 0
L 3434 0
L 1828 2303
L 1094 1600
L 1094 0
L 488 0
L 488 4591
z
" transform="scale(0.015625)"/>
      <path id="Helvetica-73" d="M 747 1050
Q 772 769 888 619
Q 1100 347 1625 347
Q 1938 347 2175 483
Q 2413 619 2413 903
Q 2413 1119 2222 1231
Q 2100 1300 1741 1391
L 1294 1503
Q 866 1609 663 1741
Q 300 1969 300 2372
Q 300 2847 642 3140
Q 984 3434 1563 3434
Q 2319 3434 2653 2991
Q 2863 2709 2856 2384
L 2325 2384
Q 2309 2575 2191 2731
Q 1997 2953 1519 2953
Q 1200 2953 1036 2831
Q 872 2709 872 2509
Q 872 2291 1088 2159
Q 1213 2081 1456 2022
L 1828 1931
Q 2434 1784 2641 1647
Q 2969 1431 2969 969
Q 2969 522 2630 197
Q 2291 -128 1597 -128
Q 850 -128 539 211
Q 228 550 206 1050
L 747 1050
z
M 1578 3428
L 1578 3428
z
" transform="scale(0.015625)"/>
     </defs>
     <use xlink:href="#Helvetica-31"/>
     <use xlink:href="#Helvetica-4b" transform="translate(55.615234 0)"/>
     <use xlink:href="#Helvetica-20" transform="translate(122.314453 0)"/>
     <use xlink:href="#Helvetica-47" transform="translate(150.097656 0)"/>
     <use xlink:href="#Helvetica-50" transform="translate(227.880859 0)"/>
     <use xlink:href="#Helvetica-55" transform="translate(294.580078 0)"/>
     <use xlink:href="#Helvetica-73" transform="translate(366.796875 0)"/>
     <use xlink:href="#Helvetica-20" transform="translate(416.796875 0)"/>
     <use xlink:href="#Helvetica-35" transform="translate(444.580078 0)"/>
     <use xlink:href="#Helvetica-30" transform="translate(500.195312 0)"/>
     <use xlink:href="#Helvetica-68" transform="translate(555.810547 0)"/>
    </g>
   </g>
   <g id="text_3">
    <!-- 10K GPUs 5h -->
    <g style="fill: #333333" transform="translate(10.095868 86.847156) scale(0.052 -0.052)">
     <use xlink:href="#Helvetica-31"/>
     <use xlink:href="#Helvetica-30" transform="translate(55.615234 0)"/>
     <use xlink:href="#Helvetica-4b" transform="translate(111.230469 0)"/>
     <use xlink:href="#Helvetica-20" transform="translate(177.929688 0)"/>
     <use xlink:href="#Helvetica-47" transform="translate(205.712891 0)"/>
     <use xlink:href="#Helvetica-50" transform="translate(283.496094 0)"/>
     <use xlink:href="#Helvetica-55" transform="translate(350.195312 0)"/>
     <use xlink:href="#Helvetica-73" transform="translate(422.412109 0)"/>
     <use xlink:href="#Helvetica-20" transform="translate(472.412109 0)"/>
     <use xlink:href="#Helvetica-35" transform="translate(500.195312 0)"/>
     <use xlink:href="#Helvetica-68" transform="translate(555.810547 0)"/>
    </g>
   </g>
  </g>
 </g>
 <defs>
  <clipPath id="p879ee31a35">
   <rect x="1.44" y="1.44" width="69.75" height="97.02"/>
  </clipPath>
 </defs>
</svg>
