<?xml version="1.0" encoding="utf-8" standalone="no"?>
<!DOCTYPE svg PUBLIC "-//W3C//DTD SVG 1.1//EN"
  "http://www.w3.org/Graphics/SVG/1.1/DTD/svg11.dtd">
<svg xmlns:xlink="http://www.w3.org/1999/xlink" width="75.42pt" height="61.092pt" viewBox="0 0 75.42 61.092" xmlns="http://www.w3.org/2000/svg" version="1.1">
 <metadata>
  <rdf:RDF xmlns:dc="http://purl.org/dc/elements/1.1/" xmlns:cc="http://creativecommons.org/ns#" xmlns:rdf="http://www.w3.org/1999/02/22-rdf-syntax-ns#">
   <cc:Work>
    <dc:type rdf:resource="http://purl.org/dc/dcmitype/StillImage"/>
    <dc:format>image/svg+xml</dc:format>
    <dc:creator>
     <cc:Agent>
      <dc:title>Matplotlib v3.10.8, https://matplotlib.org/</dc:title>
     </cc:Agent>
    </dc:creator>
   </cc:Work>
  </rdf:RDF>
 </metadata>
 <defs>
  <style type="text/css">*{stroke-linejoin: round; stroke-linecap: butt}</style>
 </defs>
 <g id="figure_1">
  <g id="patch_1">
   <path d="M 0 61.092
L 75.42 61.092
L 75.42 0
L 0 0
z
" style="fill: #ffffff"/>
  </g>
  <g id="axes_1">
   <g id="patch_2">
    <path d="M 1.44 59.652
L 73.98 59.652
L 73.98 1.44
L 1.44 1.44
z
" style="fill: #ffffff"/>
   </g>
   <g id="patch_3">
    <path d="M 52.218 59.652
L 73.98 59.652
L 73.98 1.44
L 52.218 1.44
z
" clip-path="url(#p69016035c6)" style="fill: #f2d7d5; opacity: 0.6; stroke: #f2d7d5; stroke-linejoin: miter"/>
   </g>
   <g id="matplotlib.axis_1"/>
   <g id="matplotlib.axis_2"/>
   <g id="line2d_1">
    <path d="M 1.44 58.035
L 18.058586 57.554464
L 29.373368 57.022409
L 37.505867 56.4361
L 43.516845 55.801539
L 48.113475 55.11729
L 52.002932 54.314747
L 54.831627 53.5263
L 57.306736 52.616954
L 59.428257 51.591304
L 61.196192 50.476551
L 62.61054 49.335136
L 64.024887 47.869393
L 65.085648 46.464172
L 66.146409 44.678384
L 67.20717 42.333216
L 67.914344 40.314079
L 68.621518 37.762
L 69.328691 34.433897
L 70.035865 29.912351
L 70.743039 23.415176
L 71.450213 13.285573
L 71.8038 5.752
L 71.8038 5.752
" clip-path="url(#p69016035c6)" style="fill: none; stroke: #333333; stroke-width: 1.35; stroke-linecap: square"/>
   </g>
   <g id="line2d_2">
    <defs>
     <path id="m8b595126ea" d="M 0 1.65
C 0.437585 1.65 0.857307 1.476146 1.166726 1.166726
C 1.476146 0.857307 1.65 0.437585 1.65 0
C 1.65 -0.437585 1.476146 -0.857307 1.166726 -1.166726
C 0.857307 -1.476146 0.437585 -1.65 0 -1.65
C -0.437585 -1.65 -0.857307 -1.476146 -1.166726 -1.166726
C -1.476146 -0.857307 -1.65 -0.437585 -1.65 0
C -1.65 0.437585 -1.476146 0.857307 -1.166726 1.166726
C -0.857307 1.476146 -0.437585 1.65 0 1.65
z
" style="stroke: #cb202d"/>
    </defs>
    <g clip-path="url(#p69016035c6)">
     <use xlink:href="#m8b595126ea" x="52.218" y="54.262" style="fill: #cb202d; stroke: #cb202d"/>
    </g>
   </g>
   <g id="patch_4">
    <path d="M 1.44 59.652
L 1.44 1.44
" style="fill: none; stroke: #cccccc; stroke-width: 0.55; stroke-linejoin: miter; stroke-linecap: square"/>
   </g>
   <g id="patch_5">
    <path d="M 1.44 59.652
L 73.98 59.652
" style="fill: none; stroke: #cccccc; stroke-width: 0.55; stroke-linejoin: miter; stroke-linecap: square"/>
   </g>
   <g id="text_1">
    <!-- threshold -->
    <g style="fill: #cb202d" transform="translate(51.884334 22.950211) scale(0.051 -0.051)">
     <defs>
      <path id="Helvetica-74" d="M 525 4281
L 1094 4281
L 1094 3347
L 1628 3347
L 1628 2888
L 1094 2888
L 1094 703
Q 1094 528 1213 469
Q 1278 434 1431 434
Q 1472 434 1519 436
Q 1566 438 1628 444
L 1628 0
Q 1531 -28 1426 -40
Q 1322 -53 1200 -53
Q 806 -53 665 148
Q 525 350 525 672
L 525 2888
L 72 2888
L 72 3347
L 525 3347
L 525 4281
z
" transform="scale(0.015625)"/>
      <path id="Helvetica-68" d="M 413 4606
L 975 4606
L 975 2894
Q 1175 3147 1334 3250
Q 1606 3428 2013 3428
Q 2741 3428 3000 2919
Q 3141 2641 3141 2147
L 3141 0
L 2563 0
L 2563 2109
Q 2563 2478 2469 2650
Q 2316 2925 1894 2925
Q 1544 2925 1259 2684
Q 975 2444 975 1775
L 975 0
L 413 0
L 413 4606
z
" transform="scale(0.015625)"/>
      <path id="Helvetica-72" d="M 428 3347
L 963 3347
L 963 2769
Q 1028 2938 1284 3180
Q 1541 3422 1875 3422
Q 1891 3422 1928 3419
Q 1966 3416 2056 3406
L 2056 2813
Q 2006 2822 1964 2825
Q 1922 2828 1872 2828
Q 1447 2828 1219 2554
Q 991 2281 991 1925
L 991 0
L 428 0
L 428 3347
z
" transform="scale(0.015625)"/>
      <path id="Helvetica-65" d="M 1806 3422
Q 2163 3422 2497 3255
Q 2831 3088 3006 2822
Q 3175 2569 3231 2231
Q 3281 2000 3281 1494
L 828 1494
Q 844 984 1069 676
Q 1294 369 1766 369
Q 2206 369 2469 659
Q 2619 828 2681 1050
L 3234 1050
Q 3213 866 3089 639
Q 2966 413 2813 269
Q 2556 19 2178 -69
Q 1975 -119 1719 -119
Q 1094 -119 659 336
Q 225 791 225 1609
Q 225 2416 662 2919
Q 1100 3422 1806 3422
z
M 2703 1941
Q 2669 2306 2544 2525
Q 2313 2931 1772 2931
Q 1384 2931 1121 2651
Q 859 2372 844 1941
L 2703 1941
z
M 1753 3428
L 1753 3428
z
" transform="scale(0.015625)"/>
      <path id="Helvetica-73" d="M 747 1050
Q 772 769 888 619
Q 1100 347 1625 347
Q 1938 347 2175 483
Q 2413 619 2413 903
Q 2413 1119 2222 1231
Q 2100 1300 1741 1391
L 1294 1503
Q 866 1609 663 1741
Q 300 1969 300 2372
Q 300 2847 642 3140
Q 984 3434 1563 3434
Q 2319 3434 2653 2991
Q 2863 2709 2856 2384
L 2325 2384
Q 2309 2575 2191 2731
Q 1997 2953 1519 2953
Q 1200 2953 1036 2831
Q 872 2709 872 2509
Q 872 2291 1088 2159
Q 1213 2081 1456 2022
L 1828 1931
Q 2434 1784 2641 1647
Q 2969 1431 2969 969
Q 2969 522 2630 197
Q 2291 -128 1597 -128
Q 850 -128 539 211
Q 228 550 206 1050
L 747 1050
z
M 1578 3428
L 1578 3428
z
" transform="scale(0.015625)"/>
      <path id="Helvetica-6f" d="M 1741 363
Q 2300 363 2508 786
Q 2716 1209 2716 1728
Q 2716 2197 2566 2491
Q 2328 2953 1747 2953
Q 1231 2953 997 2559
Q 763 2166 763 1609
Q 763 1075 997 719
Q 1231 363 1741 363
z
M 1763 3444
Q 2409 3444 2856 3012
Q 3303 2581 3303 1744
Q 3303 934 2909 406
Q 2516 -122 1688 -122
Q 997 -122 590 345
Q 184 813 184 1600
Q 184 2444 612 2944
Q 1041 3444 1763 3444
z
M 1744 3428
L 1744 3428
z
" transform="scale(0.015625)"/>
      <path id="Helvetica-6c" d="M 428 4591
L 991 4591
L 991 0
L 428 0
L 428 4591
z
" transform="scale(0.015625)"/>
      <path id="Helvetica-64" d="M 769 1634
Q 769 1097 997 734
Q 1225 372 1728 372
Q 2119 372 2370 708
Q 2622 1044 2622 1672
Q 2622 2306 2362 2611
Q 2103 2916 1722 2916
Q 1297 2916 1033 2591
Q 769 2266 769 1634
z
M 1616 3406
Q 2000 3406 2259 3244
Q 2409 3150 2600 2916
L 2600 4606
L 3141 4606
L 3141 0
L 2634 0
L 2634 466
Q 2438 156 2169 18
Q 1900 -119 1553 -119
Q 994 -119 584 351
Q 175 822 175 1603
Q 175 2334 548 2870
Q 922 3406 1616 3406
z
" transform="scale(0.015625)"/>
     </defs>
     <use xlink:href="#Helvetica-74"/>
     <use xlink:href="#Helvetica-68" transform="translate(27.783203 0)"/>
     <use xlink:href="#Helvetica-72" transform="translate(83.398438 0)"/>
     <use xlink:href="#Helvetica-65" transform="translate(116.699219 0)"/>
     <use xlink:href="#Helvetica-73" transform="translate(172.314453 0)"/>
     <use xlink:href="#Helvetica-68" transform="translate(222.314453 0)"/>
     <use xlink:href="#Helvetica-6f" transform="translate(277.929688 0)"/>
     <use xlink:href="#Helvetica-6c" transform="translate(333.544922 0)"/>
     <use xlink:href="#Helvetica-64" transform="translate(355.761719 0)"/>
    </g>
   </g>
  </g>
 </g>
 <defs>
  <clipPath id="p69016035c6">
   <rect x="1.44" y="1.44" width="72.54" height="58.212"/>
  </clipPath>
 </defs>
</svg>
