<?xml version="1.0" encoding="UTF-8" standalone="no"?>
<!-- Created with Inkscape (http://www.inkscape.org/) -->

<svg
   version="1.1"
   id="svg2"
   width="564.4613"
   height="190.49733"
   viewBox="0 0 564.4613 190.49733"
   xmlns="http://www.w3.org/2000/svg"
   xmlns:svg="http://www.w3.org/2000/svg">
  <defs
     id="defs6" />
  <g
     id="g8"
     transform="matrix(1.3333333,0,0,-1.3333333,0,190.49733)">
    <g
       id="g10"
       transform="translate(61.425,90.944)">
      <g
         id="g12">
        <g
           id="g14" />
        <g
           id="g16">
          <g
             id="g18">
            <g
               id="g20">
              <path
                 d="M 57.06721,12.7812 H 4.3587 c -2.20094,0 -3.9851,-1.78416 -3.9851,-3.9851 V -8.7961 c 0,-2.20094 1.78416,-3.9851 3.9851,-3.9851 h 52.70851 c 2.20095,0 3.98511,1.78416 3.98511,3.9851 V 8.7961 c 0,2.20094 -1.78416,3.9851 -3.98511,3.9851 z"
                 style="fill:#dbfda6;fill-opacity:1;fill-rule:nonzero;stroke:#495938;stroke-width:0.74721;stroke-linecap:butt;stroke-linejoin:miter;stroke-miterlimit:10;stroke-dasharray:none;stroke-opacity:1"
                 id="path22" />
            </g>
            <g
               id="g24"
               transform="translate(2.366,3.238)">
              <g
                 id="g26">
                <g
                   id="g28"
                   transform="translate(-63.791,-94.182)">
                  <text
                     xml:space="preserve"
                     transform="matrix(1,0,0,-1,82.714,94.182)"
                     style="font-variant:normal;font-weight:normal;font-size:8.96638px;font-family:LMSans9;-inkscape-font-specification:LMSans9-Regular;writing-mode:lr-tb;fill:#000000;fill-opacity:1;fill-rule:nonzero;stroke:none"
                     id="text32"><tspan
                       x="0 6.6620202 11.091412 14.417939"
                       y="0"
                       id="tspan30">Data</tspan></text>
                  <text
                     xml:space="preserve"
                     transform="matrix(1,0,0,-1,69.87,83.223)"
                     style="font-variant:normal;font-weight:normal;font-size:8.96638px;font-family:LMSans9;-inkscape-font-specification:LMSans9-Regular;writing-mode:lr-tb;fill:#000000;fill-opacity:1;fill-rule:nonzero;stroke:none"
                     id="text36"><tspan
                       x="0 5.8909116 9.0381107 13.135747 17.896894 22.066261 25.213461 29.642853 32.969379 35.166142 39.77486"
                       y="0"
                       id="tspan34">Preparation</tspan></text>
                  <g
                     id="g38"
                     transform="translate(63.791,94.182)" />
                </g>
              </g>
              <g
                 id="g40"
                 transform="translate(-2.366,-3.238)" />
            </g>
          </g>
          <g
             id="g42">
            <g
               id="g44">
              <path
                 d="m 161.01337,11.96077 h -52.70851 c -2.20095,0 -3.98511,-1.78417 -3.98511,-3.98511 V -7.97566 c 0,-2.20094 1.78416,-3.98511 3.98511,-3.98511 h 52.70851 c 2.20094,0 3.9851,1.78417 3.9851,3.98511 V 7.97566 c 0,2.20094 -1.78416,3.98511 -3.9851,3.98511 z"
                 style="fill:#fabfe2;fill-opacity:1;fill-rule:nonzero;stroke:#495938;stroke-width:0.74721;stroke-linecap:butt;stroke-linejoin:miter;stroke-miterlimit:10;stroke-dasharray:none;stroke-opacity:1"
                 id="path46" />
            </g>
            <g
               id="g48"
               transform="translate(106.311,2.418)">
              <g
                 id="g50">
                <g
                   id="g52"
                   transform="translate(-167.736,-93.362)">
                  <text
                     xml:space="preserve"
                     transform="matrix(1,0,0,-1,184.094,93.362)"
                     style="font-variant:normal;font-weight:normal;font-size:8.96638px;font-family:LMSans9;-inkscape-font-specification:LMSans9-Regular;writing-mode:lr-tb;fill:#000000;fill-opacity:1;fill-rule:nonzero;stroke:none"
                     id="text56"><tspan
                       x="0 8.0518093 12.920553 17.681702 21.779337"
                       y="0"
                       id="tspan54">Model</tspan></text>
                  <text
                     xml:space="preserve"
                     transform="matrix(1,0,0,-1,175.836,82.403)"
                     style="font-variant:normal;font-weight:normal;font-size:8.96638px;font-family:LMSans9;-inkscape-font-specification:LMSans9-Regular;writing-mode:lr-tb;fill:#000000;fill-opacity:1;fill-rule:nonzero;stroke:none"
                     id="text60"><tspan
                       x="0 5.5322566 9.782321 14.211712 16.408476 21.169622 25.599014 28.925543 31.122305 35.731026"
                       y="0"
                       id="tspan58">Evaluation</tspan></text>
                  <g
                     id="g62"
                     transform="translate(167.736,93.362)" />
                </g>
              </g>
              <g
                 id="g64"
                 transform="translate(-106.311,-2.418)" />
            </g>
          </g>
          <g
             id="g66">
            <g
               id="g68">
              <path
                 d="m 296.14104,12.83052 h -52.70851 c -2.20095,0 -3.98511,-1.78416 -3.98511,-3.98511 V -8.84541 c 0,-2.20095 1.78416,-3.98511 3.98511,-3.98511 h 52.70851 c 2.20094,0 3.9851,1.78416 3.9851,3.98511 V 8.84541 c 0,2.20095 -1.78416,3.98511 -3.9851,3.98511 z"
                 style="fill:#d9b3d9;fill-opacity:1;fill-rule:nonzero;stroke:#495938;stroke-width:0.74721;stroke-linecap:butt;stroke-linejoin:miter;stroke-miterlimit:10;stroke-dasharray:none;stroke-opacity:1"
                 id="path70" />
            </g>
            <g
               id="g72"
               transform="translate(241.437,3.287)">
              <g
                 id="g74">
                <g
                   id="g76"
                   transform="translate(-302.862,-94.231)">
                  <text
                     xml:space="preserve"
                     transform="matrix(1,0,0,-1,319.22,94.231)"
                     style="font-variant:normal;font-weight:normal;font-size:8.96638px;font-family:LMSans9;-inkscape-font-specification:LMSans9-Regular;writing-mode:lr-tb;fill:#000000;fill-opacity:1;fill-rule:nonzero;stroke:none"
                     id="text80"><tspan
                       x="0 8.0518093 12.920553 17.681702 21.779337"
                       y="0"
                       id="tspan78">Model</tspan></text>
                  <text
                     xml:space="preserve"
                     transform="matrix(1,0,0,-1,308.299,83.272)"
                     style="font-variant:normal;font-weight:normal;font-size:8.96638px;font-family:LMSans9;-inkscape-font-specification:LMSans9-Regular;writing-mode:lr-tb;fill:#000000;fill-opacity:1;fill-rule:nonzero;stroke:none"
                     id="text84"><tspan
                       x="0 6.6620202 10.759656 15.520803 17.717567 22.066261 26.316326 33.632893 37.730526 42.491676"
                       y="0"
                       id="tspan82">Deployment</tspan></text>
                  <g
                     id="g86"
                     transform="translate(302.862,94.231)" />
                </g>
              </g>
              <g
                 id="g88"
                 transform="translate(-241.437,-3.287)" />
            </g>
          </g>
          <g
             id="g90">
            <g
               id="g92">
              <path
                 d="M 109.04028,51.55576 H 56.33177 c -2.20094,0 -3.98511,-1.78417 -3.98511,-3.98511 V 29.87083 c 0,-2.20094 1.78417,-3.9851 3.98511,-3.9851 h 52.70851 c 2.20095,0 3.98511,1.78416 3.98511,3.9851 v 17.69982 c 0,2.20094 -1.78416,3.98511 -3.98511,3.98511 z"
                 style="fill:#fff280;fill-opacity:1;fill-rule:nonzero;stroke:#495938;stroke-width:0.74721;stroke-linecap:butt;stroke-linejoin:miter;stroke-miterlimit:10;stroke-dasharray:none;stroke-opacity:1"
                 id="path94" />
            </g>
            <g
               id="g96"
               transform="translate(54.339,42.012)">
              <g
                 id="g98">
                <g
                   id="g100"
                   transform="translate(-115.764,-132.956)">
                  <text
                     xml:space="preserve"
                     transform="matrix(1,0,0,-1,132.122,132.956)"
                     style="font-variant:normal;font-weight:normal;font-size:8.96638px;font-family:LMSans9;-inkscape-font-specification:LMSans9-Regular;writing-mode:lr-tb;fill:#000000;fill-opacity:1;fill-rule:nonzero;stroke:none"
                     id="text104"><tspan
                       x="0 8.0518093 12.920553 17.681702 21.779337"
                       y="0"
                       id="tspan102">Model</tspan></text>
                  <text
                     xml:space="preserve"
                     transform="matrix(1,0,0,-1,128.298,121.997)"
                     style="font-variant:normal;font-weight:normal;font-size:8.96638px;font-family:LMSans9;-inkscape-font-specification:LMSans9-Regular;writing-mode:lr-tb;fill:#000000;fill-opacity:1;fill-rule:nonzero;stroke:none"
                     id="text108"><tspan
                       x="0 5.5232902 8.6704893 13.099881 15.296644 20.057793 22.254555 27.015703"
                       y="0"
                       id="tspan106">Training</tspan></text>
                  <g
                     id="g110"
                     transform="translate(115.764,132.956)" />
                </g>
              </g>
              <g
                 id="g112"
                 transform="translate(-54.339,-42.012)" />
            </g>
          </g>
          <g
             id="g114">
            <g
               id="g116">
              <path
                 d="m -4.3587,-34.78851 h -52.70851 c -2.20095,0 -3.98511,-1.78417 -3.98511,-3.98511 v -15.95136 c 0,-2.20094 1.78416,-3.9851 3.98511,-3.9851 H -4.3587 c 2.20094,0 3.9851,1.78416 3.9851,3.9851 v 15.95136 c 0,2.20094 -1.78416,3.98511 -3.9851,3.98511 z"
                 style="fill:#d9f3fd;fill-opacity:1;fill-rule:nonzero;stroke:#495938;stroke-width:0.74721;stroke-linecap:butt;stroke-linejoin:miter;stroke-miterlimit:10;stroke-dasharray:none;stroke-opacity:1"
                 id="path118" />
            </g>
            <g
               id="g120"
               transform="translate(-59.059,-44.331)">
              <g
                 id="g122">
                <g
                   id="g124"
                   transform="translate(-2.366,-46.613)">
                  <text
                     xml:space="preserve"
                     transform="matrix(1,0,0,-1,21.289,46.613)"
                     style="font-variant:normal;font-weight:normal;font-size:8.96638px;font-family:LMSans9;-inkscape-font-specification:LMSans9-Regular;writing-mode:lr-tb;fill:#000000;fill-opacity:1;fill-rule:nonzero;stroke:none"
                     id="text128"><tspan
                       x="0 6.6620202 11.091412 14.417939"
                       y="0"
                       id="tspan126">Data</tspan></text>
                  <text
                     xml:space="preserve"
                     transform="matrix(1,0,0,-1,11.722,35.654)"
                     style="font-variant:normal;font-weight:normal;font-size:8.96638px;font-family:LMSans9;-inkscape-font-specification:LMSans9-Regular;writing-mode:lr-tb;fill:#000000;fill-opacity:1;fill-rule:nonzero;stroke:none"
                     id="text132"><tspan
                       x="0 5.8909116 10.499631 12.696394 14.893157 18.990793 23.088428 26.414955 28.611719 33.220436"
                       y="0"
                       id="tspan130">Collection</tspan></text>
                  <g
                     id="g134"
                     transform="translate(2.366,46.613)" />
                </g>
              </g>
              <g
                 id="g136"
                 transform="translate(59.059,44.331)" />
            </g>
          </g>
          <g
             id="g138">
            <g
               id="g140">
              <path
                 d="m 357.56697,-34.83783 h -52.70851 c -2.20094,0 -3.98511,-1.78417 -3.98511,-3.98511 v -17.69981 c 0,-2.20095 1.78417,-3.98511 3.98511,-3.98511 h 52.70851 c 2.20094,0 3.98511,1.78416 3.98511,3.98511 v 17.69981 c 0,2.20094 -1.78417,3.98511 -3.98511,3.98511 z"
                 style="fill:#ffcccc;fill-opacity:1;fill-rule:nonzero;stroke:#495938;stroke-width:0.74721;stroke-linecap:butt;stroke-linejoin:miter;stroke-miterlimit:10;stroke-dasharray:none;stroke-opacity:1"
                 id="path142" />
            </g>
            <g
               id="g144"
               transform="translate(302.862,-44.38)">
              <g
                 id="g146">
                <g
                   id="g148"
                   transform="translate(-364.287,-46.564)">
                  <text
                     xml:space="preserve"
                     transform="matrix(1,0,0,-1,380.646,46.564)"
                     style="font-variant:normal;font-weight:normal;font-size:8.96638px;font-family:LMSans9;-inkscape-font-specification:LMSans9-Regular;writing-mode:lr-tb;fill:#000000;fill-opacity:1;fill-rule:nonzero;stroke:none"
                     id="text152"><tspan
                       x="0 8.0518093 12.911587 17.672735 21.77037"
                       y="0"
                       id="tspan150">Model</tspan></text>
                  <text
                     xml:space="preserve"
                     transform="matrix(1,0,0,-1,371.63,35.605)"
                     style="font-variant:normal;font-weight:normal;font-size:8.96638px;font-family:LMSans9;-inkscape-font-specification:LMSans9-Regular;writing-mode:lr-tb;fill:#000000;fill-opacity:1;fill-rule:nonzero;stroke:none"
                     id="text156"><tspan
                       x="0 8.0518093 12.660528 17.421677 19.618439 22.944967 27.293661 30.440861 32.637623 37.398769"
                       y="0"
                       id="tspan154">Monitoring</tspan></text>
                  <g
                     id="g158"
                     transform="translate(364.287,46.564)" />
                </g>
              </g>
              <g
                 id="g160"
                 transform="translate(-302.862,44.38)" />
            </g>
          </g>
          <g
             id="g162">
            <path
               d="m 165.37209,0 h 69.8462"
               style="fill:none;stroke:#000000;stroke-width:0.49814;stroke-linecap:butt;stroke-linejoin:miter;stroke-miterlimit:10;stroke-dasharray:none;stroke-opacity:1"
               id="path164" />
            <g
               id="g166"
               transform="translate(235.21829)">
              <g
                 id="g168">
                <path
                   d="M 3.85551,0 C 2.71312,0.21419 0.85678,0.85678 -0.42839,1.60646 V -1.60646 C 0.85678,-0.85678 2.71312,-0.21419 3.85551,0"
                   style="fill:#000000;fill-opacity:1;fill-rule:nonzero;stroke:none"
                   id="path170" />
              </g>
            </g>
            <g
               id="g172">
              <g
                 id="g174">
                <path
                   d="m 174.31923,-12.00713 h 55.80743 v 24.01425 h -55.80743 z"
                   style="fill:#e0e0e0;fill-opacity:1;fill-rule:nonzero;stroke:none"
                   id="path176" />
              </g>
              <g
                 id="g178"
                 transform="translate(178.302,-6.476)">
                <g
                   id="g180">
                  <g
                     id="g182"
                     transform="translate(-239.727,-84.468)">
                    <text
                       xml:space="preserve"
                       transform="matrix(1,0,0,-1,253.037,93.435)"
                       style="font-variant:normal;font-weight:normal;font-size:7.97011px;font-family:LMSans8;-inkscape-font-specification:LMSans8-Regular;writing-mode:lr-tb;fill:#000000;fill-opacity:1;fill-rule:nonzero;stroke:none"
                       id="text186"><tspan
                         x="0 7.3882918 11.150184 14.912076 17.972597"
                         y="0"
                         id="tspan184">Meets</tspan></text>
                    <text
                       xml:space="preserve"
                       transform="matrix(1,0,0,-1,239.727,84.468)"
                       style="font-variant:normal;font-weight:normal;font-size:7.97011px;font-family:LMSans8;-inkscape-font-specification:LMSans8-Regular;writing-mode:lr-tb;fill:#000000;fill-opacity:1;fill-rule:nonzero;stroke:none"
                       id="text190"><tspan
                         x="0 5.4834356 9.2453279 13.620918 17.996508 20.012947 22.906096 26.667988 33.39476 37.156654 41.532242 44.592766"
                         y="0"
                         id="tspan188">Requirements</tspan></text>
                    <g
                       id="g192"
                       transform="translate(239.727,84.468)" />
                  </g>
                </g>
                <g
                   id="g194"
                   transform="translate(-178.302,6.476)" />
              </g>
            </g>
          </g>
          <g
             id="g196">
            <path
               d="m 134.65912,-12.33438 v -21.6817 H 30.71297 v 17.00575"
               style="fill:none;stroke:#000000;stroke-width:0.49814;stroke-linecap:butt;stroke-linejoin:miter;stroke-miterlimit:10;stroke-dasharray:none;stroke-opacity:1"
               id="path198" />
            <g
               id="g200"
               transform="rotate(90,23.86165,6.85132)">
              <g
                 id="g202">
                <path
                   d="M 3.85551,0 C 2.71312,0.21419 0.85678,0.85678 -0.42839,1.60646 V -1.60646 C 0.85678,-0.85678 2.71312,-0.21419 3.85551,0"
                   style="fill:#000000;fill-opacity:1;fill-rule:nonzero;stroke:none"
                   id="path204" />
              </g>
            </g>
            <g
               id="g206">
              <g
                 id="g208">
                <path
                   d="m 55.73476,-46.02321 h 53.90256 v 24.01425 H 55.73476 Z"
                   style="fill:#e0e0e0;fill-opacity:1;fill-rule:nonzero;stroke:none"
                   id="path210" />
              </g>
              <g
                 id="g212"
                 transform="translate(59.719,-40.491)">
                <g
                   id="g214">
                  <g
                     id="g216"
                     transform="translate(-121.144,-50.453)">
                    <text
                       xml:space="preserve"
                       transform="matrix(1,0,0,-1,133.55,59.419)"
                       style="font-variant:normal;font-weight:normal;font-size:7.97011px;font-family:LMSans8;-inkscape-font-specification:LMSans8-Regular;writing-mode:lr-tb;fill:#000000;fill-opacity:1;fill-rule:nonzero;stroke:none"
                       id="text220"><tspan
                         x="0 5.9775825 9.7394743 13.501367 17.876957"
                         y="0"
                         id="tspan218">Needs</tspan></text>
                    <text
                       xml:space="preserve"
                       transform="matrix(1,0,0,-1,121.144,50.453)"
                       style="font-variant:normal;font-weight:normal;font-size:7.97011px;font-family:LMSans8;-inkscape-font-specification:LMSans8-Regular;writing-mode:lr-tb;fill:#000000;fill-opacity:1;fill-rule:nonzero;stroke:none"
                       id="text224"><tspan
                         x="0 2.3511825 9.0779552 13.214442 16.107592 20.33972 24.245075 28.006966 34.733738 38.495632 42.871223"
                         y="0"
                         id="tspan222">Improvement</tspan></text>
                    <g
                       id="g226"
                       transform="translate(121.144,50.453)" />
                  </g>
                </g>
                <g
                   id="g228"
                   transform="translate(-59.719,40.491)" />
              </g>
            </g>
          </g>
          <g
             id="g230">
            <path
               d="M 331.21272,-60.88147 V -78.8545 H -30.71297 v 15.91529"
               style="fill:none;stroke:#000000;stroke-width:0.49814;stroke-linecap:butt;stroke-linejoin:miter;stroke-miterlimit:10;stroke-dasharray:none;stroke-opacity:1"
               id="path232" />
            <g
               id="g234"
               transform="rotate(90,16.11312,-46.82609)">
              <g
                 id="g236">
                <path
                   d="M 3.85551,0 C 2.71312,0.21419 0.85678,0.85678 -0.42839,1.60646 V -1.60646 C 0.85678,-0.85678 2.71312,-0.21419 3.85551,0"
                   style="fill:#000000;fill-opacity:1;fill-rule:nonzero;stroke:none"
                   id="path238" />
              </g>
            </g>
            <g
               id="g240">
              <g
                 id="g242">
                <path
                   d="m 124.26697,-90.94533 h 51.96579 v 24.18163 h -51.96579 z"
                   style="fill:#e0e0e0;fill-opacity:1;fill-rule:nonzero;stroke:none"
                   id="path244" />
              </g>
              <g
                 id="g246"
                 transform="translate(128.251,-85.325)">
                <g
                   id="g248">
                  <g
                     id="g250"
                     transform="translate(-189.676,-5.619)">
                    <text
                       xml:space="preserve"
                       transform="matrix(1,0,0,-1,189.676,14.585)"
                       style="font-variant:normal;font-weight:normal;font-size:7.97011px;font-family:LMSans8;-inkscape-font-specification:LMSans8-Regular;writing-mode:lr-tb;fill:#000000;fill-opacity:1;fill-rule:nonzero;stroke:none"
                       id="text254"><tspan
                         x="0 5.1726012 8.9344931 11.827643 14.417929 18.410954 21.304104 28.030876 32.095634 36.471222 40.233116"
                         y="0"
                         id="tspan252">Performance</tspan></text>
                    <text
                       xml:space="preserve"
                       transform="matrix(1,0,0,-1,195.45,5.619)"
                       style="font-variant:normal;font-weight:normal;font-size:7.97011px;font-family:LMSans8;-inkscape-font-specification:LMSans8-Regular;writing-mode:lr-tb;fill:#000000;fill-opacity:1;fill-rule:nonzero;stroke:none"
                       id="text258"><tspan
                         x="0 6.1130743 9.8749666 14.107095 17.000244 21.065001 25.440592 29.202482"
                         y="0"
                         id="tspan256">Degrades</tspan></text>
                    <g
                       id="g260"
                       transform="translate(189.676,5.619)" />
                  </g>
                </g>
                <g
                   id="g262"
                   transform="translate(-128.251,85.325)" />
              </g>
            </g>
          </g>
          <g
             id="g264">
            <path
               d="M -30.71297,-34.41492 V 0 h 26.85746"
               style="fill:none;stroke:#000000;stroke-width:0.49814;stroke-linecap:butt;stroke-linejoin:miter;stroke-miterlimit:10;stroke-dasharray:none;stroke-opacity:1"
               id="path266" />
            <g
               id="g268"
               transform="translate(-3.85551)">
              <g
                 id="g270">
                <path
                   d="M 3.85551,0 C 2.71312,0.21419 0.85678,0.85678 -0.42839,1.60646 V -1.60646 C 0.85678,-0.85678 2.71312,-0.21419 3.85551,0"
                   style="fill:#000000;fill-opacity:1;fill-rule:nonzero;stroke:none"
                   id="path272" />
              </g>
            </g>
          </g>
          <g
             id="g274">
            <path
               d="M 30.71297,13.15482 V 38.72073 H 48.11754"
               style="fill:none;stroke:#000000;stroke-width:0.49814;stroke-linecap:butt;stroke-linejoin:miter;stroke-miterlimit:10;stroke-dasharray:none;stroke-opacity:1"
               id="path276" />
            <g
               id="g278"
               transform="translate(48.11754,38.72073)">
              <g
                 id="g280">
                <path
                   d="M 3.85551,0 C 2.71312,0.21419 0.85678,0.85678 -0.42839,1.60646 V -1.60646 C 0.85678,-0.85678 2.71312,-0.21419 3.85551,0"
                   style="fill:#000000;fill-opacity:1;fill-rule:nonzero;stroke:none"
                   id="path282" />
              </g>
            </g>
          </g>
          <g
             id="g284">
            <path
               d="m 113.399,38.72073 h 21.26012 V 16.1899"
               style="fill:none;stroke:#000000;stroke-width:0.49814;stroke-linecap:butt;stroke-linejoin:miter;stroke-miterlimit:10;stroke-dasharray:none;stroke-opacity:1"
               id="path286" />
            <g
               id="g288"
               transform="rotate(-90,75.42451,-59.23461)">
              <g
                 id="g290">
                <path
                   d="M 3.85551,0 C 2.71312,0.21419 0.85678,0.85678 -0.42839,1.60646 V -1.60646 C 0.85678,-0.85678 2.71312,-0.21419 3.85551,0"
                   style="fill:#000000;fill-opacity:1;fill-rule:nonzero;stroke:none"
                   id="path292" />
              </g>
            </g>
          </g>
          <g
             id="g294">
            <path
               d="m 300.49976,0 h 30.71296 v -30.6087"
               style="fill:none;stroke:#000000;stroke-width:0.49814;stroke-linecap:butt;stroke-linejoin:miter;stroke-miterlimit:10;stroke-dasharray:none;stroke-opacity:1"
               id="path296" />
            <g
               id="g298"
               transform="rotate(-90,150.30201,-180.91071)">
              <g
                 id="g300">
                <path
                   d="M 3.85551,0 C 2.71312,0.21419 0.85678,0.85678 -0.42839,1.60646 V -1.60646 C 0.85678,-0.85678 2.71312,-0.21419 3.85551,0"
                   style="fill:#000000;fill-opacity:1;fill-rule:nonzero;stroke:none"
                   id="path302" />
              </g>
            </g>
          </g>
        </g>
      </g>
    </g>
  </g>
</svg>
