<?xml version="1.0" encoding="UTF-8" standalone="no"?>
<!-- Created with Inkscape (http://www.inkscape.org/) -->

<svg
   version="1.1"
   id="svg1"
   width="564.4613"
   height="190.13068"
   viewBox="0 0 564.4613 190.13068"
   xmlns="http://www.w3.org/2000/svg"
   xmlns:svg="http://www.w3.org/2000/svg">
  <defs
     id="defs1" />
  <g
     id="g1">
    <path
       id="path1"
       d="M 57.06721,12.78519 H 4.3587 c -2.20094,0 -3.9851,-1.78417 -3.9851,-3.98511 V -8.80008 c 0,-2.20094 1.78416,-3.98511 3.9851,-3.98511 h 52.70851 c 2.20095,0 3.98511,1.78417 3.98511,3.98511 V 8.80008 c 0,2.20094 -1.78416,3.98511 -3.98511,3.98511 z"
       style="fill:#dbfda6;fill-opacity:1;fill-rule:nonzero;stroke:#495938;stroke-width:0.74721;stroke-linecap:butt;stroke-linejoin:miter;stroke-miterlimit:10;stroke-dasharray:none;stroke-opacity:1"
       transform="matrix(1.3333333,0,0,-1.3333333,81.9,69.105333)" />
    <path
       id="path2"
       d="M 0.86605469,-6.2218594 V 7.96875e-4 H 3.3152734 c 1.5585938,0 2.8242188,-1.359374975 2.8242188,-3.058593775 0,-1.7578125 -1.265625,-3.1640625 -2.8242188,-3.1640625 z M 1.6980859,-0.52654688 V -5.6945156 h 1.3828125 c 1.2421875,0 2.2265625,1.0195312 2.2265625,2.6367187 0,1.5703125 -0.9960937,2.53125002 -2.2148437,2.53125002 z M 10.352383,-2.5890469 c 0,-0.890625 -0.6562502,-1.546875 -1.5351564,-1.546875 -0.5859375,0 -1.0195313,0.1523438 -1.453125,0.3984375 l 0.058594,0.6328125 c 0.4453125,-0.328125 0.890625,-0.4570312 1.3828125,-0.4570312 0.5039063,0 0.8085938,0.3984375 0.8085938,0.984375 v 0.375 c -1.546875,0.035156 -2.5546875,0.4335937 -2.5546875,1.1601562 0,0.42187502 0.2695312,1.13671877 1.0546875,1.13671877 0.1757812,0 0.9609375,-0.01171875 1.5234375,-0.43359375 V 7.96875e-4 h 0.7148436 z m -0.7382814,1.3359375 c 0,0.1875 0,0.41015627 -0.328125,0.59765627 -0.2226563,0.140625 -0.515625,0.17578125 -0.703125,0.17578125 -0.4570313,0 -0.8320313,-0.22265625 -0.8320313,-0.57421872 0,-0.6445313 1.7460938,-0.6679688 1.8632813,-0.6679688 z m 3.0937504,-2.1679687 h 1.300781 v -0.5625 h -1.300781 v -1.1367188 h -0.65625 v 1.1367188 h -0.785157 v 0.5625 h 0.761719 v 2.296875 c 0,0.52734372 0.117188,1.21874997 0.761719,1.21874997 0.398437,0 0.867187,-0.0703125 1.371094,-0.328125 l -0.152344,-0.5625 c -0.234375,0.17578125 -0.550781,0.28125 -0.832031,0.28125 -0.351563,0 -0.46875,-0.3046875 -0.46875,-0.77343747 z m 5.399414,0.8320312 c 0,-0.890625 -0.65625,-1.546875 -1.535157,-1.546875 -0.585937,0 -1.019531,0.1523438 -1.453125,0.3984375 l 0.05859,0.6328125 c 0.445313,-0.328125 0.890625,-0.4570312 1.382813,-0.4570312 0.503906,0 0.808593,0.3984375 0.808593,0.984375 v 0.375 c -1.546875,0.035156 -2.554687,0.4335937 -2.554687,1.1601562 0,0.42187502 0.269531,1.13671877 1.054687,1.13671877 0.175782,0 0.960938,-0.01171875 1.523438,-0.43359375 V 7.96875e-4 h 0.714844 z m -0.738282,1.3359375 c 0,0.1875 0,0.41015627 -0.328125,0.59765627 -0.222656,0.140625 -0.515625,0.17578125 -0.703125,0.17578125 -0.457031,0 -0.832031,-0.22265625 -0.832031,-0.57421872 0,-0.6445313 1.746094,-0.6679688 1.863281,-0.6679688 z m -27.0292965,9.65625 c 1.265625,0 2.1796875,-0.8671875 2.1796875,-1.8515625 0,-0.9492187 -0.9023438,-1.8164062 -2.1796875,-1.8164062 h -2.3203125 v 6.2226561 h 0.867187 V 8.4031406 Z M -9.87125,5.2625156 c 1.03125,0 1.6171875,0.5742188 1.6171875,1.2890625 0,0.7265625 -0.5742188,1.3007813 -1.6171875,1.3007813 h -1.277344 V 5.2625156 Z m 4.3828125,3.7851563 c 0,-0.9375 0.7265625,-1.5117188 1.546875,-1.5234375 V 6.8797031 C -4.5860938,6.8914219 -5.18375,7.2078281 -5.5470313,7.7351719 V 6.9265781 H -6.215 v 4.0312499 h 0.7265625 z m 5.51367187,-0.058594 c 0,-0.2695312 -0.01171875,-0.9492187 -0.36328125,-1.4882812 -0.375,-0.5625 -0.94921872,-0.6796875 -1.28906252,-0.6796875 -1.0429687,0 -1.8632812,0.9609375 -1.8632812,2.109375 0,1.1835938 0.8789062,2.1210938 1.9921875,2.1210938 0.4335937,0 0.94921872,-0.105469 1.47656247,-0.433594 L -0.08023438,9.9968906 c -0.5625,0.4101564 -1.08984372,0.4804684 -1.40625002,0.4804684 -0.7382812,0 -1.3125,-0.6562496 -1.3476562,-1.4882809 z M -2.7755469,8.4617344 c 0.140625,-0.5742188 0.5859375,-1.0546875 1.1484375,-1.0546875 0.328125,0 0.93750002,0.1523437 1.11328127,1.0546875 z m 4.5556641,2.0859376 c 0.328125,0.316406 0.7851562,0.503906 1.2421875,0.503906 0.9140625,0 1.6992187,-0.878906 1.6992187,-2.0976561 0,-1.0664063 -0.5625,-2.0742188 -1.4296875,-2.0742188 -0.2578125,0 -0.9257812,0.046875 -1.5351562,0.5273438 V 6.9734531 H 1.0301172 v 5.7187499 h 0.75 z m 0,-2.5664064 C 1.8973047,7.8172031 2.2254297,7.4890781 2.7410547,7.4890781 c 0.6679687,0 1.2304687,0.6328125 1.2304687,1.4765625 0,0.8671875 -0.6210937,1.5117184 -1.3242187,1.5117184 -0.28125,0 -0.609375,-0.117187 -0.8671875,-0.5624996 z m 6.9609375,0.3867188 c 0,-0.890625 -0.65625,-1.546875 -1.5351563,-1.546875 -0.5859375,0 -1.0195312,0.1523437 -1.453125,0.3984375 l 0.058594,0.6328125 c 0.4453125,-0.328125 0.890625,-0.4570313 1.3828125,-0.4570313 0.5039062,0 0.8085937,0.3984375 0.8085937,0.984375 v 0.375 c -1.546875,0.035156 -2.5546875,0.4335938 -2.5546875,1.1601563 0,0.4218746 0.2695313,1.1367186 1.0546875,1.1367186 0.1757813,0 0.9609375,-0.01172 1.5234375,-0.433594 v 0.339844 H 8.7410547 Z M 8.0027734,9.7039219 c 0,0.1875 0,0.4101561 -0.328125,0.5976561 -0.2226562,0.140625 -0.515625,0.175781 -0.703125,0.175781 -0.4570312,0 -0.8320312,-0.222656 -0.8320312,-0.5742184 0,-0.6445312 1.7460937,-0.6679687 1.8632812,-0.6679687 z m 2.6806636,-0.65625 c 0,-0.9375 0.726563,-1.5117188 1.546875,-1.5234375 V 6.8797031 c -0.644531,0.011719 -1.242187,0.328125 -1.605468,0.8554688 V 6.9265781 H 9.956875 v 4.0312499 h 0.726562 z m 5.373047,-0.6796875 c 0,-0.890625 -0.65625,-1.546875 -1.535156,-1.546875 -0.585937,0 -1.019531,0.1523437 -1.453125,0.3984375 l 0.05859,0.6328125 c 0.445312,-0.328125 0.890625,-0.4570313 1.382812,-0.4570313 0.503907,0 0.808594,0.3984375 0.808594,0.984375 v 0.375 c -1.546875,0.035156 -2.554687,0.4335938 -2.554687,1.1601563 0,0.4218746 0.269531,1.1367186 1.054687,1.1367186 0.175781,0 0.960938,-0.01172 1.523438,-0.433594 v 0.339844 h 0.714843 z m -0.738281,1.3359375 c 0,0.1875 0,0.4101561 -0.328125,0.5976561 -0.222656,0.140625 -0.515625,0.175781 -0.703125,0.175781 -0.457031,0 -0.832031,-0.222656 -0.832031,-0.5742184 0,-0.6445312 1.746094,-0.6679687 1.863281,-0.6679687 z m 3.09375,-2.1679688 h 1.300781 v -0.5625 H 18.411953 V 5.8367344 h -0.65625 v 1.1367187 h -0.785156 v 0.5625 h 0.761719 v 2.296875 c 0,0.5273439 0.117187,1.2187499 0.761718,1.2187499 0.398438,0 0.867188,-0.07031 1.371094,-0.328125 l -0.152344,-0.5625 c -0.234375,0.175781 -0.550781,0.28125 -0.832031,0.28125 -0.351562,0 -0.46875,-0.304687 -0.46875,-0.7734374 z m 3.234375,-2.7070312 h -0.855469 v 0.8554687 h 0.855469 z m -0.07031,2.1445312 h -0.714844 v 3.9843749 h 0.714844 z m 5.071289,2.015625 c 0,-1.1835937 -0.890625,-2.1679687 -2.027344,-2.1679687 -1.113281,0 -2.027344,0.9726562 -2.027344,2.1679687 0,1.1835939 0.9375,2.0624999 2.027344,2.0624999 1.113281,0 2.027344,-0.902344 2.027344,-2.0624999 z M 24.63168,10.442203 c -0.691407,0 -1.300782,-0.5390624 -1.300782,-1.5468749 0,-1.0429687 0.679688,-1.4882812 1.289063,-1.4882812 0.644531,0 1.289062,0.4570312 1.289062,1.4882812 0,1.0429688 -0.632812,1.5468749 -1.277343,1.5468749 z m 6.316406,-2.1445311 c 0,-0.6679688 -0.175781,-1.4179688 -1.253906,-1.4179688 -0.714844,0 -1.148438,0.4101563 -1.347657,0.6796875 V 6.9265781 h -0.691406 v 4.0312499 h 0.738281 V 8.7664219 c 0,-0.5859375 0.234375,-1.3007813 0.914063,-1.3007813 0.902344,0 0.902344,0.6328125 0.902344,0.890625 v 2.6015624 h 0.738281 z m 0,0"
       style="fill:#000000;fill-opacity:1;fill-rule:nonzero;stroke:none"
       aria-label="Data&#10;Preparation"
       transform="matrix(1.3333333,0,0,1.3333333,110.28667,64.788)" />
    <path
       id="path3"
       d="m 161.01337,11.91345 h -52.70851 c -2.20095,0 -3.98511,-1.78416 -3.98511,-3.98511 V -7.92834 c 0,-2.20095 1.78416,-3.98511 3.98511,-3.98511 h 52.70851 c 2.20094,0 3.9851,1.78416 3.9851,3.98511 V 7.92834 c 0,2.20095 -1.78416,3.98511 -3.9851,3.98511 z"
       style="fill:#fabfe2;fill-opacity:1;fill-rule:nonzero;stroke:#495938;stroke-width:0.74721;stroke-linecap:butt;stroke-linejoin:miter;stroke-miterlimit:10;stroke-dasharray:none;stroke-opacity:1"
       transform="matrix(1.3333333,0,0,-1.3333333,81.9,69.105333)" />
    <path
       id="path4"
       d="M 4.8512656,-3.1534297 C 4.6168906,-2.5557734 4.1364219,-1.3135859 4.0192344,-0.87999219 3.9254844,-1.2432734 3.5153281,-2.3331172 3.3395469,-2.7667109 L 2.1559531,-5.8135859 1.9918906,-6.2237422 H 0.91376562 v 6.22265626 H 1.6520469 V -5.5206172 h 0.011719 c 0.1054688,0.4570313 0.6210938,1.7929688 0.7148438,2.0390625 l 0.9960937,2.53125001 c 0.070312,0.17578125 0.234375,0.62109375 0.2929688,0.75 H 4.3473594 L 5.5895469,-3.3526484 c 0.1289062,-0.328125 0.6796875,-1.7460938 0.796875,-2.1679688 v 5.51953126 H 7.1247031 V -6.2237422 h -1.078125 z m 7.5263674,1.1835938 c 0,-1.1835938 -0.890625,-2.1679688 -2.027344,-2.1679688 -1.1132812,0 -2.0273437,0.9726563 -2.0273437,2.1679688 0,1.18359371 0.9375,2.06249996 2.0273437,2.06249996 1.113281,0 2.027344,-0.90234375 2.027344,-2.06249996 z m -2.015625,1.45312496 c -0.6914064,0 -1.3007814,-0.53906246 -1.3007814,-1.54687496 0,-1.0429688 0.6796875,-1.4882813 1.2890624,-1.4882813 0.644531,0 1.289063,0.4570313 1.289063,1.4882813 0,1.0429687 -0.632813,1.54687496 -1.277344,1.54687496 z m 6.565429,-5.70703126 h -0.714843 v 2.6367188 c -0.503907,-0.421875 -1.078125,-0.4921875 -1.371094,-0.4921875 -0.902344,0 -1.59375,0.9375 -1.59375,2.0859375 0,1.16015621 0.679687,2.08593746 1.558594,2.08593746 0.269531,0 0.84375,-0.05859375 1.371093,-0.5625 v 0.46875 h 0.75 z m -0.75,4.9570313 c 0,0.1757812 0,0.1875 -0.09375,0.31640621 -0.246093,0.31640625 -0.550781,0.46875 -0.867187,0.46875 -0.585938,0 -1.230469,-0.421875 -1.230469,-1.50000001 0,-1.1484375 0.761719,-1.5117187 1.324219,-1.5117187 0.410156,0 0.703125,0.234375 0.867187,0.4570312 z m 5.334961,-0.703125 c 0,-0.2695313 -0.01172,-0.9492188 -0.363281,-1.4882813 -0.375,-0.5625 -0.949219,-0.6796875 -1.289062,-0.6796875 -1.042969,0 -1.863282,0.9609375 -1.863282,2.109375 0,1.18359376 0.878907,2.12109376 1.992188,2.12109376 0.433594,0 0.949219,-0.10546875 1.476562,-0.43359375 l -0.05859,-0.62109375 c -0.5625,0.41015625 -1.089844,0.48046875 -1.40625,0.48046875 -0.738282,0 -1.3125,-0.65625001 -1.347657,-1.48828121 z m -2.800781,-0.5273438 c 0.140625,-0.5742187 0.585938,-1.0546875 1.148438,-1.0546875 0.328125,0 0.9375,0.1523438 1.113281,1.0546875 z m 4.517578,-3.7265625 h -0.714843 v 6.22265626 h 0.714843 z M -3.5129922,8.0291875 V 7.44325 H -6.5481484 V 5.3690312 h 0.3398437 c 0.7265625,0 1.4648438,0.023437 2.1914063,0.023437 h 0.7734375 v -0.632812 h -4.1601563 v 6.1992188 h 4.2773438 v -0.679688 h -0.890625 c -0.84375,0 -1.6875,0.01172 -2.53125,0.01172 V 8.0291875 Z M 1.388375,6.9745 H 0.68525 L -0.02959375,8.802625 C -0.205375,9.2596562 -0.5335,10.138562 -0.580375,10.466687 H -0.6038125 C -0.61553125,10.314344 -0.6506875,10.138562 -1.142875,8.8495 -1.4124063,8.1229375 -1.846,7.0330937 -1.8694375,6.9745 H -2.596 l 1.5703125,3.984375 h 0.83203125 z m 3.8261719,1.3945312 c 0,-0.890625 -0.65625,-1.546875 -1.5351563,-1.546875 -0.5859375,0 -1.0195312,0.1523438 -1.453125,0.3984375 l 0.058594,0.6328125 C 2.7301719,7.5252812 3.1754844,7.396375 3.6676719,7.396375 c 0.5039062,0 0.8085937,0.3984375 0.8085937,0.984375 v 0.375 c -1.546875,0.035156 -2.5546875,0.4335937 -2.5546875,1.1601562 0,0.4218748 0.2695313,1.1367188 1.0546875,1.1367188 0.1757813,0 0.9609375,-0.01172 1.5234375,-0.433594 v 0.339844 H 5.2145469 Z M 4.4762656,9.7049687 c 0,0.1875 0,0.4101563 -0.328125,0.5976563 -0.2226562,0.140625 -0.515625,0.175781 -0.703125,0.175781 -0.4570312,0 -0.8320312,-0.222656 -0.8320312,-0.5742185 0,-0.6445313 1.7460937,-0.6679688 1.8632812,-0.6679688 z m 2.9267578,-4.96875 H 6.6881797 V 10.958875 H 7.4030234 Z M 12.169625,6.9745 h -0.738281 v 2.5898437 c 0,0.7265623 -0.5625,0.9609373 -1.101563,0.9609373 -0.644531,0 -0.7148435,-0.199219 -0.7148435,-0.5859373 V 6.9745 H 8.8766562 v 3.0117187 c 0,0.7617183 0.3046875,1.0664063 0.9375,1.0664063 0.5273438,0 1.2187498,-0.152344 1.6406248,-0.527344 v 0.433594 h 0.714844 z m 4.432617,1.3945312 c 0,-0.890625 -0.65625,-1.546875 -1.535156,-1.546875 -0.585938,0 -1.019531,0.1523438 -1.453125,0.3984375 l 0.05859,0.6328125 c 0.445312,-0.328125 0.890625,-0.4570312 1.382812,-0.4570312 0.503906,0 0.808594,0.3984375 0.808594,0.984375 v 0.375 c -1.546875,0.035156 -2.554688,0.4335937 -2.554688,1.1601562 0,0.4218748 0.269532,1.1367188 1.054688,1.1367188 0.175781,0 0.960937,-0.01172 1.523437,-0.433594 v 0.339844 h 0.714844 z m -0.738281,1.3359375 c 0,0.1875 0,0.4101563 -0.328125,0.5976563 -0.222656,0.140625 -0.515625,0.175781 -0.703125,0.175781 -0.457031,0 -0.832031,-0.222656 -0.832031,-0.5742185 0,-0.6445313 1.746093,-0.6679688 1.863281,-0.6679688 z M 18.957711,7.537 h 1.300781 V 6.9745 H 18.957711 V 5.8377812 h -0.65625 V 6.9745 H 17.516305 V 7.537 h 0.761718 v 2.296875 c 0,0.527344 0.117188,1.21875 0.761719,1.21875 0.398438,0 0.867188,-0.07031 1.371094,-0.328125 L 20.258492,10.162 c -0.234375,0.175781 -0.550781,0.28125 -0.832031,0.28125 -0.351563,0 -0.46875,-0.304688 -0.46875,-0.7734375 z m 3.231445,-2.7070313 h -0.855469 v 0.8554688 h 0.855469 z M 22.118844,6.9745 H 21.404 v 3.984375 h 0.714844 z m 5.071289,2.015625 c 0,-1.1835938 -0.890625,-2.1679688 -2.027344,-2.1679688 -1.113281,0 -2.027344,0.9726563 -2.027344,2.1679688 0,1.183594 0.9375,2.0625 2.027344,2.0625 1.113281,0 2.027344,-0.902344 2.027344,-2.0625 z m -2.015625,1.453125 c -0.691406,0 -1.300781,-0.5390625 -1.300781,-1.546875 0,-1.0429688 0.679687,-1.4882813 1.289062,-1.4882813 0.644531,0 1.289063,0.4570313 1.289063,1.4882813 0,1.0429687 -0.632813,1.546875 -1.277344,1.546875 z m 6.319336,-2.1445313 c 0,-0.6679687 -0.175782,-1.4179687 -1.253907,-1.4179687 -0.714843,0 -1.148437,0.4101562 -1.347656,0.6796875 V 6.927625 h -0.691406 v 4.03125 h 0.738281 V 8.7674687 c 0,-0.5859375 0.234375,-1.3007812 0.914063,-1.3007812 0.902343,0 0.902343,0.6328125 0.902343,0.890625 v 2.6015625 h 0.738282 z m 0,0"
       style="fill:#000000;fill-opacity:1;fill-rule:nonzero;stroke:none"
       aria-label="Model&#10;Evaluation"
       transform="matrix(1.3333333,0,0,1.3333333,245.46133,65.950667)" />
    <path
       id="path5"
       d="m 296.14104,12.78519 h -52.70851 c -2.20095,0 -3.98511,-1.78417 -3.98511,-3.98511 V -8.80008 c 0,-2.20094 1.78416,-3.98511 3.98511,-3.98511 h 52.70851 c 2.20094,0 3.9851,1.78417 3.9851,3.98511 V 8.80008 c 0,2.20094 -1.78416,3.98511 -3.9851,3.98511 z"
       style="fill:#d9b3d9;fill-opacity:1;fill-rule:nonzero;stroke:#495938;stroke-width:0.74721;stroke-linecap:butt;stroke-linejoin:miter;stroke-miterlimit:10;stroke-dasharray:none;stroke-opacity:1"
       transform="matrix(1.3333333,0,0,-1.3333333,81.9,69.105333)" />
    <path
       id="path6"
       d="M 4.8512422,-3.1515469 C 4.6168672,-2.5538906 4.1363984,-1.3117031 4.0192109,-0.87810938 3.9254609,-1.2413906 3.5153047,-2.3312344 3.3395234,-2.7648281 L 2.1559297,-5.8117031 1.9918672,-6.2218594 H 0.91374219 V 7.96875e-4 H 1.6520234 V -5.5187344 h 0.011719 c 0.1054687,0.4570313 0.6210937,1.7929688 0.7148437,2.0390625 l 0.9960938,2.53125002 c 0.070312,0.17578125 0.234375,0.62109375 0.2929687,0.75 H 4.3473359 L 5.5895234,-3.3507656 c 0.1289063,-0.328125 0.6796875,-1.7460938 0.796875,-2.1679688 V 7.96875e-4 H 7.1246797 V -6.2218594 h -1.078125 z m 7.5263668,1.1835938 c 0,-1.1835938 -0.890625,-2.1679688 -2.027343,-2.1679688 -1.1132816,0 -2.0273441,0.9726563 -2.0273441,2.1679688 0,1.18359372 0.9375,2.06249997 2.0273441,2.06249997 1.113281,0 2.027343,-0.90234375 2.027343,-2.06249997 z m -2.015625,1.45312497 c -0.6914059,0 -1.3007809,-0.53906247 -1.3007809,-1.54687497 0,-1.0429688 0.6796875,-1.4882813 1.2890629,-1.4882813 0.644531,0 1.289062,0.4570313 1.289062,1.4882813 0,1.0429687 -0.632812,1.54687497 -1.277344,1.54687497 z m 6.56543,-5.70703127 H 16.21257 v 2.6367188 c -0.503906,-0.421875 -1.078125,-0.4921875 -1.371093,-0.4921875 -0.902344,0 -1.59375,0.9375 -1.59375,2.0859375 0,1.16015622 0.679687,2.08593747 1.558593,2.08593747 0.269532,0 0.84375,-0.05859375 1.371094,-0.5625 V 7.96875e-4 h 0.75 z m -0.75,4.9570313 c 0,0.1757812 0,0.1875 -0.09375,0.31640622 -0.246094,0.31640625 -0.550781,0.46875 -0.867187,0.46875 -0.585938,0 -1.230469,-0.421875 -1.230469,-1.50000002 0,-1.1484375 0.761719,-1.5117187 1.324219,-1.5117187 0.410156,0 0.703125,0.234375 0.867187,0.4570312 z m 5.334961,-0.703125 c 0,-0.2695313 -0.01172,-0.9492188 -0.363281,-1.4882813 -0.375,-0.5625 -0.949219,-0.6796875 -1.289063,-0.6796875 -1.042968,0 -1.863281,0.9609375 -1.863281,2.109375 0,1.18359377 0.878906,2.12109377 1.992188,2.12109377 0.433593,0 0.949218,-0.10546875 1.476562,-0.43359375 l -0.05859,-0.62109375 c -0.5625,0.41015625 -1.089843,0.48046875 -1.40625,0.48046875 -0.738281,0 -1.3125,-0.65625002 -1.347656,-1.48828122 z m -2.800781,-0.5273438 c 0.140625,-0.5742187 0.585937,-1.0546875 1.148437,-1.0546875 0.328125,0 0.9375,0.1523438 1.113282,1.0546875 z m 4.517578,-3.7265625 H 22.514328 V 7.96875e-4 h 0.714844 z M -10.057937,4.7351719 v 6.2226561 h 2.4492183 c 1.5585937,0 2.8242187,-1.3593749 2.8242187,-3.0585936 0,-1.7578125 -1.265625,-3.1640625 -2.8242187,-3.1640625 z m 0.8320308,5.6953121 V 5.2625156 h 1.3828125 c 1.2421875,0 2.2265625,1.0195313 2.2265625,2.6367188 0,1.5703125 -0.9960938,2.5312496 -2.2148438,2.5312496 z m 8.79492183,-1.4414059 c 0,-0.2695312 -0.0117188,-0.9492187 -0.36328125,-1.4882812 -0.37499998,-0.5625 -0.94921878,-0.6796875 -1.28906248,-0.6796875 -1.0429688,0 -1.8632813,0.9609375 -1.8632813,2.109375 0,1.1835936 0.8789063,2.1210936 1.9921875,2.1210936 0.4335938,0 0.9492188,-0.105469 1.47656253,-0.433594 L -0.53645312,9.9968906 C -1.0989531,10.407047 -1.6262969,10.477359 -1.9427031,10.477359 c -0.7382813,0 -1.3125,-0.6562496 -1.3476563,-1.4882809 z M -3.2317656,8.4617344 c 0.140625,-0.5742188 0.5859375,-1.0546875 1.1484375,-1.0546875 0.328125,0 0.9375,0.1523437 1.11328123,1.0546875 z m 4.5527344,2.0859376 c 0.328125,0.316406 0.7851562,0.503906 1.2421875,0.503906 0.9140625,0 1.6992187,-0.878906 1.6992187,-2.0976561 0,-1.0664063 -0.5625,-2.0742188 -1.4296875,-2.0742188 -0.2578125,0 -0.9257812,0.046875 -1.5351562,0.5273438 V 6.9734531 H 0.57096875 V 12.692203 H 1.3209688 Z m 0,-2.5664064 C 1.4381563,7.8172031 1.7662813,7.4890781 2.2819063,7.4890781 c 0.6679687,0 1.2304687,0.6328125 1.2304687,1.4765625 0,0.8671875 -0.6210937,1.5117184 -1.3242187,1.5117184 -0.28125,0 -0.609375,-0.117187 -0.8671875,-0.5624996 z M 6.0465547,4.7351719 H 5.3317109 v 6.2226561 h 0.7148438 z m 5.0712893,4.2539062 c 0,-1.1835937 -0.890625,-2.1679687 -2.027344,-2.1679687 -1.1132812,0 -2.0273437,0.9726562 -2.0273437,2.1679687 0,1.1835939 0.9375,2.0624999 2.0273437,2.0624999 1.113281,0 2.027344,-0.902344 2.027344,-2.0624999 z M 9.1022188,10.442203 c -0.6914063,0 -1.3007813,-0.5390624 -1.3007813,-1.5468749 0,-1.0429687 0.6796875,-1.4882812 1.2890625,-1.4882812 0.6445313,0 1.289063,0.4570312 1.289063,1.4882812 0,1.0429688 -0.632813,1.5468749 -1.2773442,1.5468749 z M 15.254563,6.9734531 H 14.551438 C 13.87175,8.6140781 13.367844,9.7976719 13.332688,10.430484 13.297531,10.020328 12.922531,9.0945469 12.817063,8.8367344 12.453781,7.9226719 12.301438,7.6179844 12.020188,6.9734531 h -0.75 l 1.792968,3.9843749 -0.339843,0.796875 c -0.222657,0.503906 -0.398438,0.503906 -0.527344,0.503906 -0.140625,0 -0.457031,-0.03516 -0.726563,-0.152343 l 0.05859,0.621093 c 0.02344,0 0.351563,0.07031 0.667969,0.07031 0.234375,0 0.621094,0 1.066406,-1.066406 z m 6.720703,1.3242188 c 0,-0.6679688 -0.1875,-1.4179688 -1.265625,-1.4179688 -0.761719,0 -1.183594,0.4570313 -1.394532,0.7382813 -0.05859,-0.1875 -0.246093,-0.7382813 -1.160156,-0.7382813 -0.714844,0 -1.148437,0.4101563 -1.347656,0.6796875 V 6.9265781 h -0.691406 v 4.0312499 h 0.738281 V 8.7664219 c 0,-0.5859375 0.234375,-1.3007813 0.914062,-1.3007813 0.902344,0 0.902344,0.6328125 0.902344,0.890625 v 2.6015624 h 0.738281 V 8.7664219 c 0,-0.5859375 0.234375,-1.3007813 0.925782,-1.3007813 0.890625,0 0.890625,0.6328125 0.890625,0.890625 v 2.6015624 h 0.75 z m 4.567382,0.6914062 c 0,-0.2695312 -0.01172,-0.9492187 -0.363281,-1.4882812 -0.375,-0.5625 -0.949219,-0.6796875 -1.289062,-0.6796875 -1.042969,0 -1.863282,0.9609375 -1.863282,2.109375 0,1.1835936 0.878907,2.1210936 1.992188,2.1210936 0.433594,0 0.949219,-0.105469 1.476562,-0.433594 L 26.43718,9.9968906 c -0.5625,0.4101564 -1.089844,0.4804684 -1.40625,0.4804684 -0.738282,0 -1.3125,-0.6562496 -1.347657,-1.4882809 z M 23.741867,8.4617344 c 0.140625,-0.5742188 0.585938,-1.0546875 1.148438,-1.0546875 0.328125,0 0.9375,0.1523437 1.113281,1.0546875 z m 7.083985,-0.1640625 c 0,-0.6679688 -0.175782,-1.4179688 -1.253907,-1.4179688 -0.714843,0 -1.148437,0.4101563 -1.347656,0.6796875 V 6.9265781 h -0.691406 v 4.0312499 h 0.738281 V 8.7664219 c 0,-0.5859375 0.234375,-1.3007813 0.914063,-1.3007813 0.902343,0 0.902343,0.6328125 0.902343,0.890625 v 2.6015624 h 0.738282 z M 33.18425,7.5359531 h 1.300781 v -0.5625 H 33.18425 V 5.8367344 H 32.528 v 1.1367187 h -0.785156 v 0.5625 h 0.761719 v 2.296875 c 0,0.5273439 0.117187,1.2187499 0.761718,1.2187499 0.398438,0 0.867188,-0.07031 1.371094,-0.328125 l -0.152344,-0.5625 c -0.234375,0.175781 -0.550781,0.28125 -0.832031,0.28125 -0.351562,0 -0.46875,-0.304687 -0.46875,-0.7734374 z m 0,0"
       style="fill:#000000;fill-opacity:1;fill-rule:nonzero;stroke:none"
       aria-label="Model&#10;Deployment"
       transform="matrix(1.3333333,0,0,1.3333333,425.62933,64.788)" />
    <path
       id="path7"
       d="M 109.04028,51.45612 H 56.33177 c -2.20094,0 -3.98511,-1.78417 -3.98511,-3.98511 V 29.87083 c 0,-2.20094 1.78417,-3.9851 3.98511,-3.9851 h 52.70851 c 2.20095,0 3.98511,1.78416 3.98511,3.9851 v 17.60018 c 0,2.20094 -1.78416,3.98511 -3.98511,3.98511 z"
       style="fill:#fff280;fill-opacity:1;fill-rule:nonzero;stroke:#495938;stroke-width:0.74721;stroke-linecap:butt;stroke-linejoin:miter;stroke-miterlimit:10;stroke-dasharray:none;stroke-opacity:1"
       transform="matrix(1.3333333,0,0,-1.3333333,81.9,69.105333)" />
    <path
       id="path8"
       d="M 4.8506094,-3.1534219 C 4.6162344,-2.5557656 4.1357656,-1.3135781 4.0185781,-0.87998438 3.9248281,-1.2432656 3.5146719,-2.3331094 3.3388906,-2.7667031 L 2.1552969,-5.8135781 1.9912344,-6.2237344 H 0.91310938 v 6.22265627 H 1.6513906 V -5.5206094 h 0.011719 c 0.1054687,0.4570313 0.6210937,1.7929688 0.7148437,2.0390625 l 0.9960938,2.53125002 c 0.070312,0.17578125 0.234375,0.62109375 0.2929687,0.75 H 4.3467031 L 5.5888906,-3.3526406 c 0.1289063,-0.328125 0.6796875,-1.7460938 0.796875,-2.1679688 v 5.51953127 H 7.1240469 V -6.2237344 h -1.078125 z m 7.5263676,1.1835938 c 0,-1.1835938 -0.890625,-2.1679688 -2.027344,-2.1679688 -1.1132814,0 -2.0273439,0.9726563 -2.0273439,2.1679688 0,1.18359372 0.9375,2.06249997 2.0273439,2.06249997 1.113281,0 2.027344,-0.90234375 2.027344,-2.06249997 z m -2.015625,1.45312497 c -0.6914067,0 -1.3007817,-0.53906247 -1.3007817,-1.54687497 0,-1.0429688 0.6796875,-1.4882813 1.2890627,-1.4882813 0.644531,0 1.289062,0.4570313 1.289062,1.4882813 0,1.0429687 -0.632812,1.54687497 -1.277343,1.54687497 z m 6.568359,-5.70703127 h -0.714844 v 2.6367188 c -0.503906,-0.421875 -1.078125,-0.4921875 -1.371094,-0.4921875 -0.902343,0 -1.59375,0.9375 -1.59375,2.0859375 0,1.16015622 0.679688,2.08593747 1.558594,2.08593747 0.269531,0 0.84375,-0.05859375 1.371094,-0.5625 v 0.46875 h 0.75 z m -0.75,4.9570313 c 0,0.1757812 0,0.1875 -0.09375,0.31640622 -0.246094,0.31640625 -0.550781,0.46875 -0.867188,0.46875 -0.585937,0 -1.230468,-0.421875 -1.230468,-1.50000002 0,-1.1484375 0.761718,-1.5117187 1.324218,-1.5117187 0.410157,0 0.703125,0.234375 0.867188,0.4570312 z m 5.332031,-0.703125 c 0,-0.2695313 -0.01172,-0.9492188 -0.363281,-1.4882813 -0.375,-0.5625 -0.949219,-0.6796875 -1.289063,-0.6796875 -1.042968,0 -1.863281,0.9609375 -1.863281,2.109375 0,1.18359377 0.878906,2.12109377 1.992188,2.12109377 0.433593,0 0.949218,-0.10546875 1.476562,-0.43359375 l -0.05859,-0.62109375 c -0.5625,0.41015625 -1.089843,0.48046875 -1.40625,0.48046875 -0.738281,0 -1.3125,-0.65625002 -1.347656,-1.48828122 z m -2.800781,-0.5273438 c 0.140625,-0.5742187 0.585937,-1.0546875 1.148437,-1.0546875 0.328125,0 0.9375,0.1523438 1.113282,1.0546875 z m 4.517578,-3.7265625 h -0.714844 v 6.22265627 h 0.714844 z M -0.25583594,5.4041953 c 0.609375,0 1.23046875,0.011719 1.83984374,0.011719 h 0.5390625 v -0.621094 h -5.625 v 0.6210938 h 0.5507813 c 0.609375,0 1.2304687,-0.011719 1.8398437,-0.011719 v 5.5546879 h 0.85546876 z M 3.1601797,9.0487266 c 0,-0.9375 0.7265625,-1.5117188 1.546875,-1.5234375 V 6.8807578 C 4.0625234,6.8924766 3.4648672,7.2088828 3.1015859,7.7362266 V 6.9276328 H 2.4336172 V 10.958883 H 3.1601797 Z M 8.5361563,8.3690391 c 0,-0.890625 -0.65625,-1.546875 -1.5351563,-1.546875 -0.5859375,0 -1.0195312,0.1523437 -1.453125,0.3984375 l 0.058594,0.6328125 c 0.4453125,-0.328125 0.890625,-0.4570313 1.3828125,-0.4570313 0.5039062,0 0.8085937,0.3984375 0.8085937,0.984375 v 0.375 C 6.251,8.7909141 5.2431875,9.1893516 5.2431875,9.9159141 c 0,0.4218749 0.2695313,1.1367189 1.0546875,1.1367189 0.1757813,0 0.9609375,-0.01172 1.5234375,-0.433594 v 0.339844 H 8.5361563 Z M 7.797875,9.7049766 c 0,0.1875 0,0.4101564 -0.328125,0.5976564 -0.2226562,0.140625 -0.515625,0.175781 -0.703125,0.175781 -0.4570312,0 -0.8320312,-0.222656 -0.8320312,-0.5742187 0,-0.6445312 1.7460937,-0.6679687 1.8632812,-0.6679687 z m 2.99707,-4.875 H 9.9394766 v 0.8554687 h 0.8554684 z m -0.07031,2.1445312 h -0.714844 v 3.9843752 h 0.714844 z m 4.766601,1.3242188 c 0,-0.6679688 -0.175781,-1.4179688 -1.253906,-1.4179688 -0.714844,0 -1.148437,0.4101563 -1.347656,0.6796875 V 6.9276328 h -0.691406 v 4.0312502 h 0.738281 V 8.7674766 c 0,-0.5859375 0.234375,-1.3007813 0.914062,-1.3007813 0.902344,0 0.902344,0.6328125 0.902344,0.890625 v 2.6015627 h 0.738281 z m 2.264649,-3.46875 h -0.855469 v 0.8554687 h 0.855469 z m -0.07031,2.1445312 h -0.714843 v 3.9843752 h 0.714843 z m 4.766602,1.3242188 c 0,-0.6679688 -0.175781,-1.4179688 -1.253906,-1.4179688 -0.714844,0 -1.148438,0.4101563 -1.347657,0.6796875 V 6.9276328 h -0.691406 v 4.0312502 h 0.738281 V 8.7674766 c 0,-0.5859375 0.234375,-1.3007813 0.914063,-1.3007813 0.902344,0 0.902344,0.6328125 0.902344,0.890625 v 2.6015627 h 0.738281 z m 5.112305,-1.4179688 c -0.175782,0 -0.773438,0 -1.441407,0.28125 -0.128906,-0.09375 -0.46875,-0.28125 -0.890625,-0.28125 -0.820312,0 -1.476562,0.6679688 -1.476562,1.4648438 0,0.2226562 0.05859,0.5507812 0.304687,0.9023437 -0.164062,0.2226563 -0.257812,0.4921875 -0.257812,0.7382813 0,0.2578124 0.09375,0.5039064 0.222656,0.6796874 -0.46875,0.292969 -0.574219,0.679688 -0.574219,0.925781 0,0.65625 0.878907,1.21875 2.039063,1.21875 1.160156,0 2.039062,-0.550781 2.039062,-1.21875 0,-1.253906 -1.488281,-1.265625 -1.875,-1.265625 h -0.832031 c -0.117187,0 -0.515625,0 -0.515625,-0.4687497 0,-0.1757812 0.03516,-0.234375 0.08203,-0.3046875 0.234375,0.1640625 0.539063,0.2578125 0.84375,0.2578125 0.832032,0 1.488282,-0.6679687 1.488282,-1.4648437 0,-0.3046875 -0.09375,-0.5507813 -0.234375,-0.796875 -0.03516,-0.046875 -0.03516,-0.046875 -0.03516,-0.058594 0,-0.046875 0.433594,-0.046875 0.550782,-0.046875 0.07031,0 0.410156,0 0.667968,0.035156 z m -2.332032,2.390625 c -0.410156,0 -0.808593,-0.2578125 -0.808593,-0.9257812 0,-0.7265625 0.457031,-0.9257813 0.808593,-0.9257813 0.421875,0 0.820313,0.2578125 0.820313,0.9257813 0,0.7265625 -0.457031,0.9257812 -0.820313,0.9257812 z m 0.421875,1.7343752 c 0.1875,0 1.21875,0 1.21875,0.585937 0,0.398438 -0.65625,0.679688 -1.371093,0.679688 -0.703125,0 -1.382813,-0.257813 -1.382813,-0.679688 0,-0.02344 0,-0.585937 0.691406,-0.585937 z m 0,0"
       style="fill:#000000;fill-opacity:1;fill-rule:nonzero;stroke:none"
       aria-label="Model&#10;Training"
       transform="matrix(1.3333333,0,0,1.3333333,176.16533,13.228)" />
    <path
       id="path9"
       d="m -4.3587,-34.7925 h -52.70851 c -2.20095,0 -3.98511,-1.78416 -3.98511,-3.9851 v -15.85671 c 0,-2.20094 1.78416,-3.98511 3.98511,-3.98511 H -4.3587 c 2.20094,0 3.9851,1.78417 3.9851,3.98511 v 15.85671 c 0,2.20094 -1.78416,3.9851 -3.9851,3.9851 z"
       style="fill:#d9f3fd;fill-opacity:1;fill-rule:nonzero;stroke:#495938;stroke-width:0.74721;stroke-linecap:butt;stroke-linejoin:miter;stroke-miterlimit:10;stroke-dasharray:none;stroke-opacity:1"
       transform="matrix(1.3333333,0,0,-1.3333333,81.9,69.105333)" />
    <path
       id="path10"
       d="m 0.86722656,-6.2236641 v 6.22265629 H 3.3164453 c 1.5585938,0 2.8242188,-1.35937499 2.8242188,-3.05859379 0,-1.7578125 -1.265625,-3.1640625 -2.8242188,-3.1640625 z M 1.6992578,-0.52835156 V -5.6963203 h 1.3828125 c 1.2421875,0 2.2265625,1.0195312 2.2265625,2.6367187 0,1.5703125 -0.9960937,2.53125004 -2.2148437,2.53125004 z M 10.353555,-2.5908516 c 0,-0.890625 -0.6562503,-1.546875 -1.5351566,-1.546875 -0.5859375,0 -1.0195312,0.1523438 -1.453125,0.3984375 l 0.058594,0.6328125 c 0.4453125,-0.328125 0.890625,-0.4570312 1.3828125,-0.4570312 0.5039062,0 0.8085937,0.3984375 0.8085937,0.984375 v 0.375 c -1.546875,0.035156 -2.5546875,0.4335937 -2.5546875,1.1601562 0,0.42187504 0.2695313,1.13671879 1.0546875,1.13671879 0.1757813,0 0.9609375,-0.01171875 1.5234375,-0.43359375 v 0.33984375 h 0.7148439 z m -0.7382816,1.3359375 c 0,0.1875 0,0.41015629 -0.328125,0.59765629 -0.2226562,0.140625 -0.515625,0.17578125 -0.703125,0.17578125 -0.4570312,0 -0.8320312,-0.22265625 -0.8320312,-0.57421874 0,-0.6445313 1.7460937,-0.6679688 1.8632812,-0.6679688 z m 3.0908206,-2.1679687 h 1.300781 v -0.5625 h -1.300781 v -1.1367188 h -0.65625 v 1.1367188 h -0.785157 v 0.5625 h 0.761719 v 2.296875 c 0,0.52734374 0.117188,1.21874999 0.761719,1.21874999 0.398437,0 0.867187,-0.0703125 1.371094,-0.328125 l -0.152344,-0.5625 c -0.234375,0.17578125 -0.550781,0.28125 -0.832031,0.28125 -0.351563,0 -0.46875,-0.3046875 -0.46875,-0.77343749 z m 5.402343,0.8320312 c 0,-0.890625 -0.65625,-1.546875 -1.535156,-1.546875 -0.585937,0 -1.019531,0.1523438 -1.453125,0.3984375 l 0.05859,0.6328125 c 0.445312,-0.328125 0.890625,-0.4570312 1.382812,-0.4570312 0.503907,0 0.808594,0.3984375 0.808594,0.984375 v 0.375 c -1.546875,0.035156 -2.554687,0.4335937 -2.554687,1.1601562 0,0.42187504 0.269531,1.13671879 1.054687,1.13671879 0.175781,0 0.960938,-0.01171875 1.523438,-0.43359375 v 0.33984375 h 0.714843 z m -0.738281,1.3359375 c 0,0.1875 0,0.41015629 -0.328125,0.59765629 -0.222656,0.140625 -0.515625,0.17578125 -0.703125,0.17578125 -0.457031,0 -0.832031,-0.22265625 -0.832031,-0.57421874 0,-0.6445313 1.746094,-0.6679688 1.863281,-0.6679688 z M -4.2128516,9.8925469 c -0.5273437,0.4101561 -1.03125,0.5507811 -1.7695312,0.5507811 -1.3359375,0 -2.1328125,-1.3710936 -2.1328125,-2.5781249 0,-1.3242187 0.8320312,-2.6132812 2.1328125,-2.6132812 0.6210937,0 1.1601562,0.1523437 1.59375,0.4804687 l 0.140625,-0.7851562 C -4.7050391,4.7480156 -5.2909766,4.6425469 -5.9120703,4.6425469 c -1.7695313,0 -3.0703125,1.4414062 -3.0703125,3.2109375 0,1.7109375 1.265625,3.1992186 3.0585937,3.1992186 0.8320313,0 1.171875,-0.128906 1.78125,-0.492187 z M 0.64164062,8.9902031 c 0,-1.1835937 -0.890625,-2.1679687 -2.02734372,-2.1679687 -1.1132813,0 -2.0273438,0.9726562 -2.0273438,2.1679687 0,1.1835939 0.9375,2.0624999 2.0273438,2.0624999 1.11328122,0 2.02734372,-0.902344 2.02734372,-2.0624999 z M -1.3739844,10.443328 c -0.6914062,0 -1.3007812,-0.5390624 -1.3007812,-1.5468749 0,-1.0429687 0.6796875,-1.4882812 1.2890625,-1.4882812 0.64453122,0 1.28906247,0.4570312 1.28906247,1.4882812 0,1.0429688 -0.6328125,1.5468749 -1.27734377,1.5468749 z M 2.3789453,4.7362969 H 1.6641016 v 6.2226561 h 0.7148437 z m 2.2001953,0 H 3.8642969 v 6.2226561 h 0.7148437 z m 4.5791016,4.2539062 c 0,-0.2695312 -0.011719,-0.9492187 -0.3632813,-1.4882812 -0.375,-0.5625 -0.9492187,-0.6796875 -1.2890625,-0.6796875 -1.0429687,0 -1.8632812,0.9609375 -1.8632812,2.109375 0,1.1835936 0.8789062,2.1210936 1.9921875,2.1210936 0.4335937,0 0.9492187,-0.105469 1.4765625,-0.433594 L 9.0527734,9.9980156 c -0.5625,0.4101564 -1.0898437,0.4804684 -1.40625,0.4804684 -0.7382812,0 -1.3125,-0.6562496 -1.3476562,-1.4882809 z M 6.3574609,8.4628594 c 0.140625,-0.5742188 0.5859375,-1.0546875 1.1484375,-1.0546875 0.328125,0 0.9375,0.1523437 1.1132813,1.0546875 z m 6.8378911,1.5234375 c -0.433594,0.3046871 -0.902344,0.4570311 -1.441407,0.4570311 -0.761718,0 -1.265625,-0.6328124 -1.265625,-1.4882811 0,-0.6796875 0.339844,-1.5234375 1.300782,-1.5234375 0.5625,0 0.855468,0.1171875 1.300781,0.421875 L 13.20707,7.2206719 c -0.503906,-0.28125 -0.785156,-0.3984375 -1.429687,-0.3984375 -1.265625,0 -2.0273439,1.078125 -2.0273439,2.1445312 0,1.1132814 0.8320309,2.0859374 1.9921879,2.0859374 0.632812,0 1.101562,-0.1875 1.511718,-0.421875 z m 1.939453,-2.4492188 h 1.300781 v -0.5625 H 15.134805 V 5.8378594 h -0.65625 v 1.1367187 h -0.785157 v 0.5625 h 0.761719 v 2.296875 c 0,0.5273439 0.117188,1.2187499 0.761719,1.2187499 0.398437,0 0.867187,-0.07031 1.371094,-0.328125 l -0.152344,-0.5625 c -0.234375,0.175781 -0.550781,0.28125 -0.832031,0.28125 -0.351563,0 -0.46875,-0.304687 -0.46875,-0.7734374 z M 18.36918,4.8300469 h -0.855469 v 0.8554687 h 0.855469 z m -0.07031,2.1445312 h -0.714844 v 3.9843749 h 0.714844 z m 5.071289,2.015625 c 0,-1.1835937 -0.890625,-2.1679687 -2.027344,-2.1679687 -1.113281,0 -2.027343,0.9726562 -2.027343,2.1679687 0,1.1835939 0.9375,2.0624999 2.027343,2.0624999 1.113282,0 2.027344,-0.902344 2.027344,-2.0624999 z m -2.015625,1.4531249 c -0.691406,0 -1.300781,-0.5390624 -1.300781,-1.5468749 0,-1.0429687 0.679687,-1.4882812 1.289062,-1.4882812 0.644532,0 1.289063,0.4570312 1.289063,1.4882812 0,1.0429688 -0.632813,1.5468749 -1.277344,1.5468749 z M 27.67387,8.2987969 c 0,-0.6679688 -0.175781,-1.4179688 -1.253906,-1.4179688 -0.714844,0 -1.148438,0.4101563 -1.347656,0.6796875 V 6.9277031 h -0.69141 V 10.958953 H 25.11918 V 8.7675469 c 0,-0.5859375 0.234375,-1.3007813 0.914062,-1.3007813 0.902344,0 0.902344,0.6328125 0.902344,0.890625 v 2.6015624 h 0.738281 z m 0,0"
       style="fill:#000000;fill-opacity:1;fill-rule:nonzero;stroke:none"
       aria-label="Data&#10;Collection"
       transform="matrix(1.3333333,0,0,1.3333333,28.386667,128.224)" />
    <path
       id="path11"
       d="m 357.56697,-34.7925 h -52.70851 c -2.20094,0 -3.98511,-1.78416 -3.98511,-3.9851 v -17.60019 c 0,-2.20095 1.78417,-3.98511 3.98511,-3.98511 h 52.70851 c 2.20094,0 3.98511,1.78416 3.98511,3.98511 v 17.60019 c 0,2.20094 -1.78417,3.9851 -3.98511,3.9851 z"
       style="fill:#ffcccc;fill-opacity:1;fill-rule:nonzero;stroke:#495938;stroke-width:0.74721;stroke-linecap:butt;stroke-linejoin:miter;stroke-miterlimit:10;stroke-dasharray:none;stroke-opacity:1"
       transform="matrix(1.3333333,0,0,-1.3333333,81.9,69.105333)" />
    <path
       id="path12"
       d="M 4.853,-3.1533516 C 4.618625,-2.5556953 4.1381562,-1.3135078 4.0209687,-0.87991406 3.9272187,-1.2431953 3.5170625,-2.3330391 3.3412812,-2.7666328 L 2.1576875,-5.8135078 1.993625,-6.2236641 H 0.9155 v 6.22265629 H 1.6537812 V -5.5205391 H 1.6655 c 0.1054687,0.4570313 0.6210937,1.7929688 0.7148437,2.0390625 l 0.9960938,2.53125004 c 0.070312,0.17578125 0.234375,0.62109375 0.2929687,0.75 H 4.3490937 L 5.5912812,-3.3525703 c 0.1289063,-0.328125 0.6796875,-1.7460938 0.796875,-2.1679688 v 5.51953129 H 7.1264375 V -6.2236641 h -1.078125 z m 7.523437,1.1835938 c 0,-1.1835938 -0.890625,-2.1679688 -2.027343,-2.1679688 -1.1132815,0 -2.027344,0.9726563 -2.027344,2.1679688 0,1.18359374 0.9375,2.06249999 2.027344,2.06249999 1.113281,0 2.027343,-0.90234375 2.027343,-2.06249999 z m -2.015625,1.45312499 c -0.6914058,0 -1.3007808,-0.53906249 -1.3007808,-1.54687499 0,-1.0429688 0.6796875,-1.4882813 1.2890628,-1.4882813 0.644531,0 1.289062,0.4570313 1.289062,1.4882813 0,1.0429687 -0.632812,1.54687499 -1.277344,1.54687499 z m 6.56836,-5.70703129 h -0.714844 v 2.6367188 c -0.503906,-0.421875 -1.078125,-0.4921875 -1.371094,-0.4921875 -0.902343,0 -1.59375,0.9375 -1.59375,2.0859375 0,1.16015624 0.679688,2.08593749 1.558594,2.08593749 0.269531,0 0.84375,-0.05859375 1.371094,-0.5625 v 0.46875 h 0.75 z m -0.75,4.9570313 c 0,0.1757812 0,0.1875 -0.09375,0.31640624 -0.246094,0.31640625 -0.550781,0.46875 -0.867188,0.46875 -0.585937,0 -1.230468,-0.421875 -1.230468,-1.50000004 0,-1.1484375 0.761718,-1.5117187 1.324218,-1.5117187 0.410157,0 0.703125,0.234375 0.867188,0.4570312 z m 5.334961,-0.703125 c 0,-0.2695313 -0.01172,-0.9492188 -0.363281,-1.4882813 -0.375,-0.5625 -0.949219,-0.6796875 -1.289063,-0.6796875 -1.042969,0 -1.863281,0.9609375 -1.863281,2.109375 0,1.18359379 0.878906,2.12109379 1.992187,2.12109379 0.433594,0 0.949219,-0.10546875 1.476563,-0.43359375 l -0.05859,-0.62109375 c -0.5625,0.41015625 -1.089844,0.48046875 -1.40625,0.48046875 -0.738281,0 -1.3125,-0.65625004 -1.347656,-1.48828124 z m -2.800781,-0.5273438 c 0.140625,-0.5742187 0.585937,-1.0546875 1.148437,-1.0546875 0.328125,0 0.9375,0.1523438 1.113281,1.0546875 z m 4.517578,-3.7265625 h -0.714844 v 6.22265629 H 23.23093 Z M -4.1704375,7.8066094 C -4.4048125,8.4042656 -4.8852813,9.6464531 -5.0024688,10.080047 -5.0962188,9.7167656 -5.506375,8.6269219 -5.6821563,8.1933281 L -6.86575,5.1464531 -7.0298125,4.7362969 h -1.078125 v 6.2226561 h 0.7382812 V 5.4394219 h 0.011719 c 0.1054687,0.4570312 0.6210937,1.7929687 0.7148437,2.0390625 L -5.647,10.009734 c 0.070312,0.175782 0.234375,0.621094 0.2929687,0.75 h 0.6796875 L -3.4321563,7.6073906 C -3.30325,7.2792656 -2.7524688,5.8612969 -2.6352813,5.4394219 V 10.958953 H -1.897 V 4.7362969 h -1.078125 z m 7.5263672,1.1835937 c 0,-1.1835937 -0.890625,-2.1679687 -2.0273438,-2.1679687 -1.11328121,0 -2.02734371,0.9726562 -2.02734371,2.1679687 0,1.1835939 0.9375,2.0624999 2.02734371,2.0624999 1.1132813,0 2.0273438,-0.902344 2.0273438,-2.0624999 z m -2.015625,1.4531249 c -0.69140626,0 -1.30078126,-0.5390624 -1.30078126,-1.5468749 0,-1.0429687 0.6796875,-1.4882812 1.28906246,-1.4882812 0.6445313,0 1.2890625,0.4570312 1.2890625,1.4882812 0,1.0429688 -0.6328125,1.5468749 -1.2773437,1.5468749 z M 7.6596406,8.2987969 c 0,-0.6679688 -0.1757812,-1.4179688 -1.2539062,-1.4179688 -0.7148438,0 -1.1484375,0.4101563 -1.3476563,0.6796875 V 6.9277031 H 4.3666719 V 10.958953 H 5.1049531 V 8.7675469 c 0,-0.5859375 0.234375,-1.3007813 0.9140625,-1.3007813 0.9023438,0 0.9023438,0.6328125 0.9023438,0.890625 v 2.6015624 h 0.7382812 z m 2.2646485,-3.46875 H 9.0688203 V 5.6855156 H 9.9242891 Z M 9.8539766,6.9745781 H 9.1391328 v 3.9843749 h 0.7148438 z m 2.3642574,0.5625 h 1.300782 v -0.5625 H 12.218234 V 5.8378594 h -0.65625 v 1.1367187 h -0.785156 v 0.5625 h 0.761719 v 2.296875 c 0,0.5273439 0.117187,1.2187499 0.761719,1.2187499 0.398437,0 0.867187,-0.07031 1.371093,-0.328125 l -0.152343,-0.5625 c -0.234375,0.175781 -0.550782,0.28125 -0.832032,0.28125 -0.351562,0 -0.46875,-0.304687 -0.46875,-0.7734374 z m 6.032227,1.453125 c 0,-1.1835937 -0.890625,-2.1679687 -2.027344,-2.1679687 -1.113281,0 -2.027344,0.9726562 -2.027344,2.1679687 0,1.1835939 0.9375,2.0624999 2.027344,2.0624999 1.113281,0 2.027344,-0.902344 2.027344,-2.0624999 z m -2.015625,1.4531249 c -0.691406,0 -1.300781,-0.5390624 -1.300781,-1.5468749 0,-1.0429687 0.679687,-1.4882812 1.289062,-1.4882812 0.644531,0 1.289063,0.4570312 1.289063,1.4882812 0,1.0429688 -0.632813,1.5468749 -1.277344,1.5468749 z m 3.506836,-1.3945311 c 0,-0.9375 0.726562,-1.5117188 1.546875,-1.5234375 V 6.8808281 c -0.644531,0.011719 -1.242188,0.328125 -1.605469,0.8554688 V 6.9277031 h -0.667969 v 4.0312499 h 0.726563 z m 3.205078,-4.21875 h -0.855469 v 0.8554687 h 0.855469 z m -0.07031,2.1445312 h -0.714843 v 3.9843749 h 0.714843 z m 4.766602,1.3242188 c 0,-0.6679688 -0.175781,-1.4179688 -1.253906,-1.4179688 -0.714844,0 -1.148438,0.4101563 -1.347656,0.6796875 V 6.9277031 h -0.69141 v 4.0312499 h 0.738282 V 8.7675469 c 0,-0.5859375 0.234375,-1.3007813 0.914062,-1.3007813 0.902344,0 0.902344,0.6328125 0.902344,0.890625 v 2.6015624 h 0.738281 z m 5.112305,-1.4179688 c -0.175782,0 -0.773438,0 -1.441407,0.28125 -0.128906,-0.09375 -0.46875,-0.28125 -0.890625,-0.28125 -0.820312,0 -1.476562,0.6679688 -1.476562,1.4648438 0,0.2226562 0.05859,0.5507812 0.304687,0.9023437 -0.164062,0.2226563 -0.257812,0.4921875 -0.257812,0.7382813 0,0.2578121 0.09375,0.5039061 0.222656,0.6796871 -0.46875,0.292969 -0.574219,0.679688 -0.574219,0.925782 0,0.65625 0.878907,1.21875 2.039063,1.21875 1.160156,0 2.039062,-0.550782 2.039062,-1.21875 0,-1.253907 -1.488281,-1.265625 -1.875,-1.265625 h -0.832031 c -0.117187,0 -0.515625,0 -0.515625,-0.4687504 0,-0.1757812 0.03516,-0.234375 0.08203,-0.3046875 0.234375,0.1640625 0.539063,0.2578125 0.84375,0.2578125 0.832032,0 1.488282,-0.6679687 1.488282,-1.4648437 0,-0.3046875 -0.09375,-0.5507813 -0.234375,-0.796875 -0.03516,-0.046875 -0.03516,-0.046875 -0.03516,-0.058594 0,-0.046875 0.433594,-0.046875 0.550782,-0.046875 0.07031,0 0.410156,0 0.667968,0.035156 z m -2.332032,2.390625 c -0.410156,0 -0.808593,-0.2578125 -0.808593,-0.9257812 0,-0.7265625 0.457031,-0.9257813 0.808593,-0.9257813 0.421875,0 0.820313,0.2578125 0.820313,0.9257813 0,0.7265625 -0.457031,0.9257812 -0.820313,0.9257812 z m 0.421875,1.7343749 c 0.1875,0 1.21875,0 1.21875,0.585938 0,0.398437 -0.65625,0.679687 -1.371093,0.679687 -0.703125,0 -1.382813,-0.257812 -1.382813,-0.679687 0,-0.02344 0,-0.585938 0.691406,-0.585938 z m 0,0"
       style="fill:#000000;fill-opacity:1;fill-rule:nonzero;stroke:none"
       aria-label="Model&#10;Monitoring"
       transform="matrix(1.3333333,0,0,1.3333333,507.52933,128.224)" />
    <path
       id="path13"
       d="m 165.37209,0 h 69.8462"
       style="fill:none;stroke:#000000;stroke-width:0.49814;stroke-linecap:butt;stroke-linejoin:miter;stroke-miterlimit:10;stroke-dasharray:none;stroke-opacity:1"
       transform="matrix(1.3333333,0,0,-1.3333333,81.9,69.105333)" />
    <path
       id="path14"
       d="M 3.85551,0 C 2.71312,0.21419 0.85678,0.85678 -0.42839,1.60646 V -1.60646 C 0.85678,-0.85678 2.71312,-0.21419 3.85551,0"
       style="fill:#000000;fill-opacity:1;fill-rule:nonzero;stroke:none"
       transform="matrix(1.3333333,0,0,-1.3333333,395.52439,69.105333)" />
    <path
       id="path15"
       d="m 174.32272,-12.01067 h 55.80043 v 24.02133 h -55.80043 z"
       style="fill:#e0e0e0;fill-opacity:1;fill-rule:nonzero;stroke:none"
       transform="matrix(1.3333333,0,0,-1.3333333,81.9,69.105333)" />
    <path
       id="path16"
       d="m 4.4405859,-2.7647578 c -0.09375,0.234375 -0.6679687,1.640625 -0.75,1.98046874 H 3.6788672 C 3.6202734,-1.0186641 3.2569922,-1.9327266 3.1749609,-2.1436641 L 1.8038672,-5.5303828 H 0.83121094 V 8.671875e-4 H 1.5108984 V -4.8975703 c 0.070312,0.28125 0.4804688,1.3359375 0.515625,1.4296875 l 1.3359375,3.30468749 H 3.9952734 L 5.1788672,-3.1046016 c 0,0 0.5507812,-1.359375 0.6796875,-1.7929687 h 0.011719 V 8.671875e-4 H 6.5382422 V -5.5303828 H 5.5655859 Z m 6.3691411,1.89843749 c -0.445313,0.31640625 -0.9492192,0.421875 -1.2890629,0.421875 -0.6914063,0 -1.21875,-0.56249999 -1.2421875,-1.30078129 h 2.6132814 c 0,-0.3632812 -0.03516,-0.9023437 -0.351563,-1.359375 -0.28125,-0.3984375 -0.7617184,-0.5507812 -1.1484372,-0.5507812 -0.9726562,0 -1.7226562,0.8554687 -1.7226562,1.8632812 0,1.01953129 0.796875,1.87500004 1.8515625,1.87500004 0.4570312,0 0.9374999,-0.140625 1.3359379,-0.38671875 z M 8.3370703,-2.2256953 c 0.1875,-0.6328125 0.65625,-0.9023438 1.0546875,-0.9023438 0.3515625,0 0.8671872,0.1640625 1.0195312,0.9023438 z m 6.2373047,1.35937499 c -0.445313,0.31640625 -0.949219,0.421875 -1.289063,0.421875 -0.691406,0 -1.21875,-0.56249999 -1.242187,-1.30078129 h 2.613281 c 0,-0.3632812 -0.03516,-0.9023437 -0.351562,-1.359375 -0.28125,-0.3984375 -0.761719,-0.5507812 -1.148438,-0.5507812 -0.972656,0 -1.722656,0.8554687 -1.722656,1.8632812 0,1.01953129 0.796875,1.87500004 1.851562,1.87500004 0.457032,0 0.9375,-0.140625 1.335938,-0.38671875 z M 12.101719,-2.2256953 c 0.1875,-0.6328125 0.65625,-0.9023438 1.054687,-0.9023438 0.351563,0 0.867188,0.1640625 1.019531,0.9023438 z m 4.315429,-0.8085938 h 1.171875 v -0.5039062 h -1.171875 v -1.0078125 h -0.621093 v 1.0078125 h -0.714844 v 0.5039062 h 0.691406 v 2.015625 c 0,0.53906254 0.140625,1.10156254 0.714844,1.10156254 0.574219,0 1.007812,-0.1875 1.253906,-0.29296875 l -0.140625,-0.515625 c -0.257812,0.1875 -0.539062,0.2578125 -0.761719,0.2578125 -0.339843,0 -0.421875,-0.328125 -0.421875,-0.69140629 z m 4.461914,-0.375 c -0.539062,-0.2226562 -0.9375,-0.2460937 -1.230468,-0.2460937 -0.199219,0 -1.394532,0 -1.394532,1.0546875 0,0.375 0.199219,0.5859375 0.304688,0.6796875 0.28125,0.28125 0.621094,0.3398437 1.042969,0.421875 0.375,0.070312 0.796875,0.1523437 0.796875,0.53906249 0,0.50390625 -0.65625,0.50390625 -0.773438,0.50390625 -0.503906,0 -0.984375,-0.1875 -1.300781,-0.41015625 l -0.117188,0.59765625 c 0.28125,0.12890625 0.761719,0.3515625 1.417969,0.3515625 0.363281,0 0.714844,-0.05859375 1.007813,-0.26953125 0.292968,-0.22265625 0.386718,-0.57421875 0.386718,-0.84374999 0,-0.1523438 -0.01172,-0.4570313 -0.339843,-0.7617188 -0.304688,-0.2578125 -0.585938,-0.3164062 -0.972657,-0.3867187 -0.46875,-0.09375 -0.832031,-0.1640625 -0.832031,-0.515625 0,-0.4570313 0.574219,-0.4570313 0.703125,-0.4570313 0.445313,0 0.796875,0.1054688 1.195313,0.3046875 z m -30.6093745,9.796875 c 1.1484375,-0.3398437 1.4296875,-1.03125 1.4296875,-1.4648437 0,-0.8203125 -0.9726563,-1.4882813 -2.132813,-1.4882813 h -2.085937 v 5.53125 h 0.773437 V 6.4578984 h 1.3125 l 1.5585942,2.5078125 H -8.06625 Z M -11.745938,5.9422734 V 3.9032109 h 1.21875 c 0.914063,0 1.5000005,0.4335938 1.5000005,1.0195313 0,0.5625 -0.5507813,1.0195312 -1.5000005,1.0195312 z m 7.3417974,2.15625 c -0.4453125,0.3164063 -0.9492188,0.421875 -1.2890625,0.421875 -0.6914063,0 -1.21875,-0.5625 -1.2421875,-1.3007812 h 2.6132812 c 0,-0.3632813 -0.035156,-0.9023438 -0.3515625,-1.359375 -0.28125,-0.3984375 -0.7617187,-0.5507813 -1.1484375,-0.5507813 -0.9726562,0 -1.7226562,0.8554688 -1.7226562,1.8632813 0,1.0195312 0.796875,1.875 1.8515625,1.875 0.4570312,0 0.9375,-0.140625 1.3359375,-0.3867188 z m -2.4726563,-1.359375 c 0.1875,-0.6328125 0.65625,-0.9023437 1.0546875,-0.9023437 0.3515625,0 0.8671875,0.1640625 1.0195313,0.9023437 z M -0.36996094,5.3446172 H -1.0379297 v 0.5390625 c -0.2929687,-0.3164063 -0.7148437,-0.5390625 -1.171875,-0.5390625 -0.84375,0 -1.5703125,0.796875 -1.5703125,1.8632812 0,0.9960938 0.609375,1.8398438 1.40625,1.8398438 0.2695313,0 0.8085938,-0.070312 1.3125,-0.46875 v 1.9335938 h 0.69140626 z M -1.0379297,7.9813359 c -0.2929687,0.4453125 -0.6679687,0.5390625 -0.9023437,0.5390625 -0.6445313,0 -1.1367188,-0.609375 -1.1367188,-1.3125 0,-0.7851562 0.5976563,-1.3125 1.21875,-1.3125 0.5273438,0 0.8203125,0.515625 0.8203125,0.8554688 z M 4.0157812,5.4266484 H 3.324375 v 2.3085938 c 0,0.6445312 -0.5390625,0.84375 -1.0078125,0.84375 -0.5859375,0 -0.6445313,-0.1640625 -0.6445313,-0.5273438 v -2.625 H 0.96890625 v 2.671875 c 0,0.703125 0.31640625,0.9492188 0.87890625,0.9492188 0.3164062,0 1.0195312,-0.070312 1.5,-0.4453125 V 8.9657109 H 4.0157812 Z M 6.09,3.5047734 H 5.2814062 v 0.796875 H 6.09 Z M 6.019688,5.4266484 H 5.3517187 v 3.5390625 h 0.6679688 z m 2.0332031,1.8398438 c 0,-0.8554688 0.7148438,-1.3242188 1.4179688,-1.3242188 V 5.3446172 C 8.8028906,5.3563359 8.3107031,5.6844609 7.9942969,6.1063359 V 5.3680547 h -0.609375 v 3.5976562 h 0.6679687 z m 4.9658209,0.8320312 c -0.445313,0.3164063 -0.949219,0.421875 -1.289063,0.421875 -0.691407,0 -1.21875,-0.5625 -1.242187,-1.3007812 h 2.613281 c 0,-0.3632813 -0.03516,-0.9023438 -0.351562,-1.359375 -0.28125,-0.3984375 -0.761719,-0.5507813 -1.148438,-0.5507813 -0.972656,0 -1.7226566,0.8554688 -1.7226566,1.8632813 0,1.0195312 0.7968756,1.875 1.8515626,1.875 0.457032,0 0.9375,-0.140625 1.335938,-0.3867188 z m -2.472656,-1.359375 c 0.1875,-0.6328125 0.65625,-0.9023437 1.054686,-0.9023437 0.351564,0 0.867189,0.1640625 1.019532,0.9023437 z m 8.871092,-0.1289062 c 0,-0.6210938 -0.1875,-1.265625 -1.160156,-1.265625 -0.679687,0 -1.089844,0.3984375 -1.277344,0.6445312 -0.08203,-0.2109375 -0.28125,-0.6445312 -1.078124,-0.6445312 -0.457032,0 -0.890625,0.1875 -1.242187,0.609375 V 5.3680547 H 14.014805 V 8.9657109 H 14.71793 V 7.0321172 c 0,-0.5273438 0.222656,-1.1601563 0.832031,-1.1601563 0.820312,0 0.820312,0.5625 0.820312,0.7851563 V 8.9657109 H 17.06168 V 7.0321172 c 0,-0.5273438 0.222656,-1.1601563 0.84375,-1.1601563 0.820312,0 0.820312,0.5625 0.820312,0.7851563 v 2.3085937 h 0.691406 z m 4.089844,1.4882812 c -0.445312,0.3164063 -0.949219,0.421875 -1.289062,0.421875 -0.691407,0 -1.21875,-0.5625 -1.242188,-1.3007812 h 2.613281 c 0,-0.3632813 -0.03516,-0.9023438 -0.351562,-1.359375 -0.28125,-0.3984375 -0.761719,-0.5507813 -1.148438,-0.5507813 -0.972656,0 -1.722656,0.8554688 -1.722656,1.8632813 0,1.0195312 0.796875,1.875 1.851563,1.875 0.457031,0 0.9375,-0.140625 1.335937,-0.3867188 z m -2.472656,-1.359375 c 0.1875,-0.6328125 0.65625,-0.9023437 1.054687,-0.9023437 0.351563,0 0.867188,0.1640625 1.019533,0.9023437 z m 6.518555,-0.1289062 c 0,-0.6210938 -0.175782,-1.265625 -1.160157,-1.265625 -0.457031,0 -0.890625,0.1875 -1.242187,0.609375 V 5.3680547 h -0.644531 v 3.5976562 h 0.703125 V 7.0321172 c 0,-0.5273438 0.222656,-1.1601563 0.832031,-1.1601563 0.820312,0 0.820312,0.5625 0.820312,0.7851563 v 2.3085937 h 0.691407 z m 2.167968,-0.6796875 h 1.171875 V 5.4266484 H 29.720859 V 4.4188359 h -0.621093 v 1.0078125 h -0.714844 v 0.5039063 h 0.691406 v 2.015625 c 0,0.5390625 0.140625,1.1015625 0.714844,1.1015625 0.574219,0 1.007812,-0.1875 1.253906,-0.2929688 l -0.140625,-0.515625 c -0.257812,0.1875 -0.539062,0.2578125 -0.761719,0.2578125 -0.339843,0 -0.421875,-0.328125 -0.421875,-0.6914062 z m 4.464844,-0.375 c -0.539062,-0.2226563 -0.9375,-0.2460938 -1.230469,-0.2460938 -0.199218,0 -1.394531,0 -1.394531,1.0546875 0,0.375 0.199219,0.5859375 0.304688,0.6796875 0.28125,0.28125 0.621093,0.3398438 1.042968,0.421875 0.375,0.070312 0.796875,0.1523438 0.796875,0.5390625 0,0.5039063 -0.65625,0.5039063 -0.773437,0.5039063 -0.503906,0 -0.984375,-0.1875 -1.300781,-0.4101563 l -0.117188,0.5976563 c 0.28125,0.1289062 0.761719,0.3515625 1.417969,0.3515625 0.363281,0 0.714844,-0.058594 1.007812,-0.2695313 0.292969,-0.2226562 0.386719,-0.5742187 0.386719,-0.84375 0,-0.1523437 -0.01172,-0.4570312 -0.339844,-0.7617187 -0.304687,-0.2578125 -0.585937,-0.3164063 -0.972656,-0.3867188 -0.46875,-0.09375 -0.832031,-0.1640625 -0.832031,-0.515625 0,-0.4570312 0.574219,-0.4570312 0.703125,-0.4570312 0.445312,0 0.796875,0.1054687 1.195312,0.3046875 z m 0,0"
       style="fill:#000000;fill-opacity:1;fill-rule:nonzero;stroke:none"
       aria-label="Meets&#10;Requirements"
       transform="matrix(1.3333333,0,0,1.3333333,337.38,65.784)" />
    <path
       id="path17"
       d="M 134.65912,-12.28705 V -34.01608 H 30.71297 v 17.00177"
       style="fill:none;stroke:#000000;stroke-width:0.49814;stroke-linecap:butt;stroke-linejoin:miter;stroke-miterlimit:10;stroke-dasharray:none;stroke-opacity:1"
       transform="matrix(1.3333333,0,0,-1.3333333,81.9,69.105333)" />
    <path
       id="path18"
       d="M 3.85551,0 C 2.71312,0.21419 0.85678,0.85678 -0.42839,1.60646 V -1.60646 C 0.85678,-0.85678 2.71312,-0.21419 3.85551,0"
       style="fill:#000000;fill-opacity:1;fill-rule:nonzero;stroke:none"
       transform="matrix(0,-1.3333333,-1.3333333,0,122.85063,91.79108)" />
    <path
       id="path19"
       d="m 55.73784,-46.02675 h 53.89642 v 24.02133 H 55.73784 Z"
       style="fill:#e0e0e0;fill-opacity:1;fill-rule:nonzero;stroke:none"
       transform="matrix(1.3333333,0,0,-1.3333333,81.9,69.105333)" />
    <path
       id="path20"
       d="M 1.873875,-5.5327109 H 0.79575 v 5.53124996 H 1.4637187 V -4.8998984 h 0.011719 l 2.6132812,4.89843746 h 1.078125 V -5.5327109 H 4.498875 v 4.89843746 z m 7.5263672,4.66406246 c -0.4453125,0.31640625 -0.9492188,0.421875 -1.2890625,0.421875 -0.6914063,0 -1.21875,-0.56249996 -1.2421875,-1.30078126 h 2.6132812 c 0,-0.3632812 -0.035156,-0.9023437 -0.3515625,-1.359375 -0.28125,-0.3984375 -0.7617187,-0.5507812 -1.1484375,-0.5507812 -0.9726562,0 -1.7226562,0.8554687 -1.7226562,1.8632812 0,1.01953126 0.796875,1.87500001 1.8515625,1.87500001 0.4570312,0 0.9375,-0.140625 1.3359375,-0.38671875 z M 6.9275859,-2.2280234 c 0.1875,-0.6328125 0.65625,-0.9023438 1.0546875,-0.9023438 0.3515625,0 0.8671875,0.1640625 1.0195313,0.9023438 z m 6.2343751,1.35937496 c -0.445313,0.31640625 -0.949219,0.421875 -1.289063,0.421875 -0.691406,0 -1.21875,-0.56249996 -1.242187,-1.30078126 h 2.613281 c 0,-0.3632812 -0.03516,-0.9023437 -0.351562,-1.359375 -0.28125,-0.3984375 -0.761719,-0.5507812 -1.148438,-0.5507812 -0.972656,0 -1.722656,0.8554687 -1.722656,1.8632812 0,1.01953126 0.796875,1.87500001 1.851562,1.87500001 0.457032,0 0.9375,-0.140625 1.335938,-0.38671875 z M 10.689305,-2.2280234 c 0.1875,-0.6328125 0.65625,-0.9023438 1.054687,-0.9023438 0.351563,0 0.867188,0.1640625 1.019531,0.9023438 z m 6.506836,-3.3046875 h -0.667969 v 2.3320312 c -0.515625,-0.375 -1.03125,-0.421875 -1.265625,-0.421875 -0.832031,0 -1.476563,0.84375 -1.476563,1.8515625 0,1.00781251 0.632813,1.85156251 1.453125,1.85156251 0.492188,0 0.960938,-0.22265625 1.265625,-0.4921875 v 0.41015625 h 0.691407 z m -0.691407,4.54687496 c -0.199218,0.328125 -0.503906,0.5390625 -0.890625,0.5390625 -0.550781,0 -1.125,-0.38671875 -1.125,-1.31249996 0,-0.9960938 0.667969,-1.3359375 1.21875,-1.3359375 0.316407,0 0.585938,0.140625 0.796875,0.4101562 z m 4.277344,-2.42578126 c -0.539062,-0.2226562 -0.9375,-0.2460937 -1.230469,-0.2460937 -0.199218,0 -1.394531,0 -1.394531,1.0546875 0,0.375 0.199219,0.5859375 0.304688,0.6796875 0.28125,0.28125 0.621093,0.3398437 1.042968,0.421875 0.375,0.070312 0.796875,0.1523437 0.796875,0.53906246 0,0.50390625 -0.65625,0.50390625 -0.773437,0.50390625 -0.503906,0 -0.984375,-0.1875 -1.300781,-0.41015625 l -0.117188,0.59765625 c 0.28125,0.12890625 0.761719,0.3515625 1.417969,0.3515625 0.363281,0 0.714844,-0.05859375 1.007812,-0.26953125 0.292969,-0.22265625 0.386719,-0.57421875 0.386719,-0.84374996 0,-0.1523438 -0.01172,-0.4570313 -0.339844,-0.7617188 -0.304687,-0.2578125 -0.585937,-0.3164062 -0.972656,-0.3867187 -0.46875,-0.09375 -0.832031,-0.1640625 -0.832031,-0.515625 0,-0.4570313 0.574219,-0.4570313 0.703125,-0.4570313 0.445312,0 0.796875,0.1054688 1.195312,0.3046875 z m -31.599609,6.8466797 h -0.808594 v 5.53125 h 0.808594 z m 6.8261716,3.1757812 c 0,-0.6210937 -0.1875,-1.265625 -1.1601562,-1.265625 -0.6796875,0 -1.0898438,0.3984375 -1.2773438,0.6445313 -0.082031,-0.2109375 -0.28125,-0.6445313 -1.078125,-0.6445313 -0.4570312,0 -0.890625,0.1875 -1.2421875,0.609375 V 5.3686562 h -0.6445312 v 3.5976563 h 0.703125 V 7.0327187 c 0,-0.5273437 0.2226562,-1.1601562 0.8320312,-1.1601562 0.8203125,0 0.8203125,0.5625 0.8203125,0.7851562 v 2.3085938 h 0.6914063 V 7.0327187 c 0,-0.5273437 0.2226562,-1.1601562 0.84375,-1.1601562 0.8203125,0 0.8203125,0.5625 0.8203125,0.7851562 v 2.3085938 h 0.6914062 z m 2.0390625,1.9804688 c 0.421875,0.3867187 0.8789063,0.4570312 1.14843752,0.4570312 0.84375,0 1.55859375,-0.8085937 1.55859375,-1.8632812 0,-0.9492188 -0.52734375,-1.8398438 -1.3125,-1.8398438 -0.36328125,0 -0.96093747,0.1054688 -1.41796877,0.46875 V 5.42725 h -0.6679687 v 5.085937 h 0.6914062 z m 0,-2.2734375 C -1.7647969,6.0952187 -1.4601094,5.896 -1.0733906,5.896 c 0.63281247,0 1.13671872,0.5976562 1.13671872,1.2890625 0,0.796875 -0.59765625,1.3359375 -1.21875002,1.3359375 -0.1171875,0 -0.3164062,-0.011719 -0.5273437,-0.1875 -0.234375,-0.1757813 -0.2695313,-0.3046875 -0.2695313,-0.4453125 z m 4.116211,0.9492187 c 0,-0.8554687 0.7148437,-1.3242187 1.4179687,-1.3242187 V 5.3452187 C 2.9139141,5.3569375 2.4217266,5.6850625 2.1053203,6.1069375 V 5.3686562 H 1.4959453 V 8.9663125 H 2.1639141 Z M 7.686375,7.2202187 c 0,-1.0546875 -0.8320313,-1.9101562 -1.875,-1.9101562 -1.03125,0 -1.875,0.8671875 -1.875,1.9101562 0,1.0078125 0.84375,1.828125 1.875,1.828125 1.0429687,0 1.875,-0.8203125 1.875,-1.828125 z m -1.875,1.2773438 c -0.6328125,0 -1.171875,-0.46875 -1.171875,-1.359375 0,-0.9023438 0.5859375,-1.3007813 1.171875,-1.3007813 0.5976562,0 1.1835937,0.4101563 1.1835937,1.3007813 0,0.9023437 -0.5625,1.359375 -1.1835937,1.359375 z M 11.708836,5.42725 H 11.076023 C 9.9861797,8.099125 9.9393047,8.3100625 9.9041484,8.4975625 H 9.8924297 C 9.8338359,8.1811562 9.6111797,7.630375 9.3650859,7.0092812 L 8.7205547,5.42725 H 8.0525859 l 1.4648438,3.5390625 h 0.7382813 z m 3.550781,2.671875 C 14.814305,8.4155312 14.310398,8.521 13.970555,8.521 c -0.691407,0 -1.21875,-0.5625 -1.242188,-1.3007813 h 2.613281 c 0,-0.3632812 -0.03516,-0.9023437 -0.351562,-1.359375 -0.28125,-0.3984375 -0.761719,-0.5507812 -1.148438,-0.5507812 -0.972656,0 -1.722656,0.8554687 -1.722656,1.8632812 0,1.0195313 0.796875,1.875 1.851563,1.875 0.457031,0 0.9375,-0.140625 1.335937,-0.3867187 z M 12.786961,6.73975 c 0.1875,-0.6328125 0.65625,-0.9023438 1.054687,-0.9023438 0.351563,0 0.867188,0.1640625 1.019532,0.9023438 z m 8.874023,-0.1289063 c 0,-0.6210937 -0.1875,-1.265625 -1.160156,-1.265625 -0.679687,0 -1.089844,0.3984375 -1.277344,0.6445313 -0.08203,-0.2109375 -0.28125,-0.6445313 -1.078125,-0.6445313 -0.457031,0 -0.890625,0.1875 -1.242187,0.609375 V 5.3686562 h -0.644531 v 3.5976563 h 0.703125 V 7.0327187 c 0,-0.5273437 0.222656,-1.1601562 0.832031,-1.1601562 0.820312,0 0.820312,0.5625 0.820312,0.7851562 v 2.3085938 h 0.691407 V 7.0327187 c 0,-0.5273437 0.222656,-1.1601562 0.84375,-1.1601562 0.820312,0 0.820312,0.5625 0.820312,0.7851562 v 2.3085938 h 0.691406 z M 25.747898,8.099125 C 25.302586,8.4155312 24.79868,8.521 24.458836,8.521 c -0.691406,0 -1.21875,-0.5625 -1.242188,-1.3007813 h 2.613282 c 0,-0.3632812 -0.03516,-0.9023437 -0.351563,-1.359375 -0.28125,-0.3984375 -0.761719,-0.5507812 -1.148437,-0.5507812 -0.972657,0 -1.722657,0.8554687 -1.722657,1.8632812 0,1.0195313 0.796875,1.875 1.851563,1.875 0.457031,0 0.9375,-0.140625 1.335937,-0.3867187 z M 23.275242,6.73975 c 0.1875,-0.6328125 0.65625,-0.9023438 1.054688,-0.9023438 0.351562,0 0.867187,0.1640625 1.019531,0.9023438 z m 6.518555,-0.1289063 c 0,-0.6210937 -0.175781,-1.265625 -1.160156,-1.265625 -0.457032,0 -0.890625,0.1875 -1.242188,0.609375 V 5.3686562 h -0.644531 v 3.5976563 h 0.703125 V 7.0327187 c 0,-0.5273437 0.222656,-1.1601562 0.832031,-1.1601562 0.820313,0 0.820313,0.5625 0.820313,0.7851562 v 2.3085938 h 0.691406 z m 2.167969,-0.6796875 h 1.171875 V 5.42725 H 31.961766 V 4.4194375 H 31.340672 V 5.42725 h -0.714844 v 0.5039062 h 0.691406 v 2.015625 c 0,0.5390625 0.140625,1.1015625 0.714844,1.1015625 0.574219,0 1.007813,-0.1875 1.253906,-0.2929687 L 33.145359,8.23975 c -0.257812,0.1875 -0.539062,0.2578125 -0.761718,0.2578125 -0.339844,0 -0.421875,-0.328125 -0.421875,-0.6914063 z m 0,0"
       style="fill:#000000;fill-opacity:1;fill-rule:nonzero;stroke:none"
       aria-label="Needs&#10;Improvement"
       transform="matrix(1.3333333,0,0,1.3333333,178.064,111.13867)" />
    <path
       id="path21"
       d="M 331.21272,-60.7365 V -78.75935 H -30.71297 v 15.91081"
       style="fill:none;stroke:#000000;stroke-width:0.49814;stroke-linecap:butt;stroke-linejoin:miter;stroke-miterlimit:10;stroke-dasharray:none;stroke-opacity:1"
       transform="matrix(1.3333333,0,0,-1.3333333,81.9,69.105333)" />
    <path
       id="path22"
       d="M 3.85551,0 C 2.71312,0.21419 0.85678,0.85678 -0.42839,1.60646 V -1.60646 C 0.85678,-0.85678 2.71312,-0.21419 3.85551,0"
       style="fill:#000000;fill-opacity:1;fill-rule:nonzero;stroke:none"
       transform="matrix(0,-1.3333333,-1.3333333,0,40.949373,152.90339)" />
    <path
       id="path23"
       d="m 124.26335,-90.77003 h 51.97304 v 24.02133 h -51.97304 z"
       style="fill:#e0e0e0;fill-opacity:1;fill-rule:nonzero;stroke:none"
       transform="matrix(1.3333333,0,0,-1.3333333,81.9,69.105333)" />
    <path
       id="path24"
       d="m 2.9871797,-2.2727813 c 1.03125,0 1.9453125,-0.7265625 1.9453125,-1.640625 0,-0.8554687 -0.84375,-1.6171875 -2.0039063,-1.6171875 H 0.78405469 V 6.5625e-4 H 1.5809297 V -2.2727813 Z M 2.7293672,-5.0618438 c 0.9023437,0 1.4765625,0.4804688 1.4765625,1.1484375 0,0.65625 -0.5390625,1.1484375 -1.4765625,1.1484375 h -1.171875 v -2.296875 z m 5.8710937,4.19531255 c -0.4453125,0.31640625 -0.9492187,0.421875 -1.2890625,0.421875 -0.6914062,0 -1.21875,-0.56250005 -1.2421875,-1.30078125 h 2.6132813 c 0,-0.3632813 -0.035156,-0.9023438 -0.3515625,-1.359375 -0.28125,-0.3984375 -0.7617188,-0.5507813 -1.1484375,-0.5507813 -0.9726563,0 -1.7226563,0.8554688 -1.7226563,1.8632813 0,1.01953125 0.796875,1.875 1.8515625,1.875 0.4570313,0 0.9375,-0.140625 1.3359375,-0.38671875 z M 6.1278047,-2.2259063 c 0.1875,-0.6328125 0.65625,-0.9023437 1.0546875,-0.9023437 0.3515625,0 0.8671875,0.1640625 1.0195312,0.9023437 z m 4.1630863,0.5273438 c 0,-0.8554688 0.714843,-1.3242188 1.417968,-1.3242188 v -0.5976562 c -0.667968,0.011719 -1.160156,0.3398437 -1.476562,0.7617187 V -3.597 H 9.6229219 V 6.5625e-4 H 10.290891 Z M 13.337766,-3.0345 h 0.914062 v -0.5039063 h -0.9375 v -0.9140625 c 0,-0.5507812 0.503906,-0.6328125 0.761719,-0.6328125 0.175781,0 0.386719,0.023437 0.679687,0.140625 v -0.5859375 c -0.199218,-0.046875 -0.457031,-0.082031 -0.667968,-0.082031 -0.820313,0 -1.417969,0.5976562 -1.417969,1.3828125 v 0.6914062 H 12.060422 V -3.0345 h 0.609375 V 6.5625e-4 h 0.667969 z m 5.0625,1.2890625 c 0,-1.0546875 -0.832032,-1.9101563 -1.875,-1.9101563 -1.03125,0 -1.875,0.8671875 -1.875,1.9101563 0,1.0078125 0.84375,1.828125 1.875,1.828125 1.042968,0 1.875,-0.8203125 1.875,-1.828125 z m -1.875,1.27734375 c -0.632813,0 -1.171875,-0.46875 -1.171875,-1.35937505 0,-0.9023437 0.585937,-1.3007812 1.171875,-1.3007812 0.597656,0 1.183593,0.4101562 1.183593,1.3007812 0,0.9023438 -0.5625,1.35937505 -1.183593,1.35937505 z M 19.7655,-1.6985625 c 0,-0.8554688 0.714844,-1.3242188 1.417969,-1.3242188 v -0.5976562 c -0.667969,0.011719 -1.160156,0.3398437 -1.476563,0.7617187 V -3.597 H 19.097531 V 6.5625e-4 H 19.7655 Z m 7.602539,-0.65625 c 0,-0.6210938 -0.1875,-1.265625 -1.160156,-1.265625 -0.679688,0 -1.089844,0.3984375 -1.277344,0.6445312 -0.08203,-0.2109375 -0.28125,-0.6445312 -1.078125,-0.6445312 -0.457031,0 -0.890625,0.1875 -1.242187,0.609375 V -3.597 H 21.965695 V 6.5625e-4 H 22.66882 V -1.9329375 c 0,-0.5273438 0.222657,-1.1601563 0.832032,-1.1601563 0.820312,0 0.820312,0.5625 0.820312,0.7851563 V 6.5625e-4 H 25.01257 V -1.9329375 c 0,-0.5273438 0.222657,-1.1601563 0.84375,-1.1601563 0.820313,0 0.820313,0.5625 0.820313,0.7851563 V 6.5625e-4 h 0.691406 z m 4.066406,0.058594 c 0,-0.8085937 -0.621093,-1.359375 -1.417968,-1.359375 -0.503907,0 -0.878907,0.1054688 -1.324219,0.3398438 l 0.04687,0.5859375 c 0.257812,-0.1757813 0.65625,-0.421875 1.277344,-0.421875 0.351562,0 0.726562,0.2695312 0.726562,0.8671875 v 0.3164062 c -1.183594,0.035156 -2.34375,0.2929688 -2.34375,1.03125005 0,0.3984375 0.269531,1.01953125 0.972656,1.01953125 0.339844,0 0.972657,-0.0703125 1.394532,-0.38671875 v 0.3046875 h 0.667968 z m -0.691406,1.1601563 c 0,0.1640625 0,0.375 -0.28125,0.5390625 -0.257812,0.140625 -0.574219,0.15234375 -0.65625,0.15234375 -0.433594,0 -0.773437,-0.19921875 -0.773437,-0.50390625 0,-0.5039063 1.347656,-0.5625 1.710937,-0.5742188 z m 5.0625,-1.21875 c 0,-0.6210938 -0.175781,-1.265625 -1.160156,-1.265625 -0.457031,0 -0.890625,0.1875 -1.242188,0.609375 V -3.597 H 32.758664 V 6.5625e-4 h 0.703125 V -1.9329375 c 0,-0.5273438 0.222656,-1.1601563 0.832031,-1.1601563 0.820313,0 0.820313,0.5625 0.820313,0.7851563 V 6.5625e-4 h 0.691406 z m 4.139649,1.48828125 c -0.398438,0.2578125 -0.832032,0.3984375 -1.324219,0.3984375 -0.738281,0 -1.160156,-0.58593755 -1.160156,-1.31250005 0,-0.609375 0.316406,-1.3242187 1.183593,-1.3242187 0.539063,0 0.796875,0.1054687 1.207032,0.3632812 l 0.09375,-0.5742187 c -0.46875,-0.234375 -0.679688,-0.3398438 -1.300782,-0.3398438 -1.195312,0 -1.886718,0.9609375 -1.886718,1.8867188 0,0.97265625 0.773437,1.8515625 1.851562,1.8515625 0.5625,0 1.042969,-0.1640625 1.382813,-0.36328125 z m 3.714843,0 c -0.445312,0.31640625 -0.949218,0.421875 -1.289062,0.421875 -0.691406,0 -1.21875,-0.56250005 -1.242188,-1.30078125 h 2.613282 c 0,-0.3632813 -0.03516,-0.9023438 -0.351563,-1.359375 -0.28125,-0.3984375 -0.761719,-0.5507813 -1.148437,-0.5507813 -0.972657,0 -1.722657,0.8554688 -1.722657,1.8632813 0,1.01953125 0.796875,1.875 1.851563,1.875 0.457031,0 0.9375,-0.140625 1.335937,-0.38671875 z M 41.187375,-2.2259063 c 0.1875,-0.6328125 0.65625,-0.9023437 1.054688,-0.9023437 0.351562,0 0.867187,0.1640625 1.019531,0.9023437 z M 6.5584688,3.43425 V 8.9655 h 2.2617187 c 1.4296875,0 2.5898435,-1.2070313 2.5898435,-2.71875 0,-1.5585938 -1.171875,-2.8125 -2.5898435,-2.8125 z m 0.7734375,5.0625 V 3.903 h 1.265625 c 1.1015625,0 2.0273437,0.8671875 2.0273437,2.3320312 0,1.4882813 -0.9726562,2.2617188 -2.0273437,2.2617188 z M 15.312375,8.0983125 c -0.445312,0.3164062 -0.949219,0.421875 -1.289062,0.421875 -0.691407,0 -1.21875,-0.5625 -1.242188,-1.3007813 h 2.613281 c 0,-0.3632812 -0.03516,-0.9023437 -0.351562,-1.359375 C 14.761594,5.4615937 14.281125,5.30925 13.894406,5.30925 c -0.972656,0 -1.722656,0.8554687 -1.722656,1.8632812 0,1.0195313 0.796875,1.875 1.851563,1.875 0.457031,0 0.9375,-0.140625 1.335937,-0.3867187 z m -2.472656,-1.359375 c 0.1875,-0.6328125 0.65625,-0.9023438 1.054687,-0.9023438 0.351563,0 0.867188,0.1640625 1.019532,0.9023438 z m 6.820312,-1.3945313 c -0.175781,0 -0.703125,0.011719 -1.3125,0.2460938 h -0.02344 c -0.28125,-0.1875 -0.5625,-0.2460938 -0.796875,-0.2460938 -0.773438,0 -1.359375,0.6210938 -1.359375,1.3007813 0,0.28125 0.09375,0.5625 0.28125,0.7851562 -0.117188,0.140625 -0.234375,0.3632813 -0.234375,0.6679688 0,0.3046875 0.128906,0.5039062 0.199219,0.609375 -0.433594,0.2460937 -0.527344,0.6210937 -0.527344,0.8085937 0,0.6093748 0.84375,1.0781248 1.875,1.0781248 1.042969,0 1.875,-0.46875 1.875,-1.0781248 0,-1.125 -1.394531,-1.125 -1.734375,-1.125 h -0.738281 c -0.128907,0 -0.480469,0 -0.480469,-0.4101562 0,-0.1640625 0.05859,-0.2460938 0.07031,-0.2578125 0.28125,0.1757812 0.550782,0.234375 0.773438,0.234375 0.773437,0 1.359375,-0.6210938 1.359375,-1.3007813 0,-0.2578125 -0.07031,-0.4921875 -0.210938,-0.703125 -0.03516,-0.046875 -0.03516,-0.058594 -0.03516,-0.058594 0,-0.035156 0.480469,-0.035156 0.515625,-0.035156 0.01172,0 0.316406,0 0.597656,0.035156 z m -2.132812,2.109375 c -0.421875,0 -0.738281,-0.2695312 -0.738281,-0.796875 0,-0.6210937 0.398437,-0.8203125 0.738281,-0.8203125 0.433594,0 0.75,0.28125 0.75,0.8085938 0,0.6210937 -0.398438,0.8085937 -0.75,0.8085937 z m 0.375,1.5585938 c 0.1875,0 1.125,0 1.125,0.515625 0,0.3398437 -0.597656,0.574219 -1.265625,0.574219 -0.667969,0 -1.265625,-0.2343753 -1.265625,-0.574219 0,-0.046875 0,-0.515625 0.644531,-0.515625 z m 3.333984,-1.7460938 c 0,-0.8554687 0.714844,-1.3242187 1.417969,-1.3242187 V 5.3444062 C 21.986203,5.356125 21.494016,5.68425 21.177609,6.106125 V 5.3678437 H 20.568234 V 8.9655 h 0.667969 z M 26.178586,6.668625 c 0,-0.8085938 -0.621094,-1.359375 -1.417969,-1.359375 -0.503906,0 -0.878906,0.1054687 -1.324219,0.3398437 l 0.04687,0.5859375 c 0.257813,-0.1757812 0.65625,-0.421875 1.277344,-0.421875 0.351563,0 0.726563,0.2695313 0.726563,0.8671875 V 6.99675 c -1.183594,0.035156 -2.34375,0.2929687 -2.34375,1.03125 0,0.3984375 0.269531,1.0195312 0.972656,1.0195312 0.339844,0 0.972656,-0.070312 1.394531,-0.3867187 V 8.9655 h 0.667969 z M 25.48718,7.8287812 c 0,0.1640625 0,0.375 -0.28125,0.5390625 -0.257813,0.140625 -0.574219,0.1523438 -0.65625,0.1523438 -0.433594,0 -0.773438,-0.1992188 -0.773438,-0.5039063 0,-0.5039062 1.347656,-0.5625 1.710938,-0.5742187 z M 30.537961,3.43425 h -0.667969 v 2.3320312 c -0.515625,-0.375 -1.03125,-0.421875 -1.265625,-0.421875 -0.832031,0 -1.476562,0.84375 -1.476562,1.8515625 0,1.0078125 0.632812,1.8515625 1.453125,1.8515625 0.492187,0 0.960937,-0.2226562 1.265625,-0.4921875 V 8.9655 h 0.691406 z m -0.691406,4.546875 c -0.199219,0.328125 -0.503907,0.5390625 -0.890625,0.5390625 -0.550782,0 -1.125,-0.3867188 -1.125,-1.3125 0,-0.9960938 0.667968,-1.3359375 1.21875,-1.3359375 0.316406,0 0.585937,0.140625 0.796875,0.4101562 z m 4.795898,0.1171875 c -0.445312,0.3164062 -0.949219,0.421875 -1.289062,0.421875 -0.691407,0 -1.21875,-0.5625 -1.242188,-1.3007813 h 2.613281 c 0,-0.3632812 -0.03516,-0.9023437 -0.351562,-1.359375 C 34.091672,5.4615937 33.611203,5.30925 33.224484,5.30925 c -0.972656,0 -1.722656,0.8554687 -1.722656,1.8632812 0,1.0195313 0.796875,1.875 1.851563,1.875 0.457031,0 0.9375,-0.140625 1.335937,-0.3867187 z m -2.472656,-1.359375 c 0.1875,-0.6328125 0.65625,-0.9023438 1.054687,-0.9023438 0.351563,0 0.867188,0.1640625 1.019532,0.9023438 z m 5.71875,-1.1835938 C 37.349484,5.3326875 36.951047,5.30925 36.658078,5.30925 c -0.199219,0 -1.394531,0 -1.394531,1.0546875 0,0.375 0.199219,0.5859375 0.304687,0.6796875 0.28125,0.28125 0.621094,0.3398437 1.042969,0.421875 0.375,0.070312 0.796875,0.1523437 0.796875,0.5390625 0,0.5039062 -0.65625,0.5039062 -0.773437,0.5039062 -0.503907,0 -0.984375,-0.1875 -1.300782,-0.4101562 l -0.117187,0.5976562 c 0.28125,0.1289063 0.761719,0.3515625 1.417969,0.3515625 0.363281,0 0.714843,-0.058594 1.007812,-0.2695312 0.292969,-0.2226563 0.386719,-0.5742188 0.386719,-0.84375 0,-0.1523438 -0.01172,-0.4570313 -0.339844,-0.7617188 C 37.384641,6.9147187 37.103391,6.856125 36.716672,6.7858125 36.247922,6.6920625 35.884641,6.62175 35.884641,6.2701875 c 0,-0.4570313 0.574218,-0.4570313 0.703125,-0.4570313 0.445312,0 0.796875,0.1054688 1.195312,0.3046875 z m 0,0"
       style="fill:#000000;fill-opacity:1;fill-rule:nonzero;stroke:none"
       aria-label="Performance&#10;Degrades"
       transform="matrix(1.3333333,0,0,1.3333333,252.896,170.796)" />
    <path
       id="path25"
       d="M -30.71297,-34.4189 V 0 h 26.85746"
       style="fill:none;stroke:#000000;stroke-width:0.49814;stroke-linecap:butt;stroke-linejoin:miter;stroke-miterlimit:10;stroke-dasharray:none;stroke-opacity:1"
       transform="matrix(1.3333333,0,0,-1.3333333,81.9,69.105333)" />
    <path
       id="path26"
       d="M 3.85551,0 C 2.71312,0.21419 0.85678,0.85678 -0.42839,1.60646 V -1.60646 C 0.85678,-0.85678 2.71312,-0.21419 3.85551,0"
       style="fill:#000000;fill-opacity:1;fill-rule:nonzero;stroke:none"
       transform="matrix(1.3333333,0,0,-1.3333333,76.75932,69.105333)" />
    <path
       id="path27"
       d="M 30.71297,13.1588 V 38.67093 H 48.11754"
       style="fill:none;stroke:#000000;stroke-width:0.49814;stroke-linecap:butt;stroke-linejoin:miter;stroke-miterlimit:10;stroke-dasharray:none;stroke-opacity:1"
       transform="matrix(1.3333333,0,0,-1.3333333,81.9,69.105333)" />
    <path
       id="path28"
       d="M 3.85551,0 C 2.71312,0.21419 0.85678,0.85678 -0.42839,1.60646 V -1.60646 C 0.85678,-0.85678 2.71312,-0.21419 3.85551,0"
       style="fill:#000000;fill-opacity:1;fill-rule:nonzero;stroke:none"
       transform="matrix(1.3333333,0,0,-1.3333333,146.05672,17.544093)" />
    <path
       id="path29"
       d="m 113.399,38.67093 h 21.26012 V 16.14258"
       style="fill:none;stroke:#000000;stroke-width:0.49814;stroke-linecap:butt;stroke-linejoin:miter;stroke-miterlimit:10;stroke-dasharray:none;stroke-opacity:1"
       transform="matrix(1.3333333,0,0,-1.3333333,81.9,69.105333)" />
    <path
       id="path30"
       d="M 3.85551,0 C 2.71312,0.21419 0.85678,0.85678 -0.42839,1.60646 V -1.60646 C 0.85678,-0.85678 2.71312,-0.21419 3.85551,0"
       style="fill:#000000;fill-opacity:1;fill-rule:nonzero;stroke:none"
       transform="matrix(0,1.3333333,1.3333333,0,261.44549,47.581893)" />
    <path
       id="path31"
       d="m 300.49976,0 h 30.71296 v -30.56337"
       style="fill:none;stroke:#000000;stroke-width:0.49814;stroke-linecap:butt;stroke-linejoin:miter;stroke-miterlimit:10;stroke-dasharray:none;stroke-opacity:1"
       transform="matrix(1.3333333,0,0,-1.3333333,81.9,69.105333)" />
    <path
       id="path32"
       d="M 3.85551,0 C 2.71312,0.21419 0.85678,0.85678 -0.42839,1.60646 V -1.60646 C 0.85678,-0.85678 2.71312,-0.21419 3.85551,0"
       style="fill:#000000;fill-opacity:1;fill-rule:nonzero;stroke:none"
       transform="matrix(0,1.3333333,1.3333333,0,523.51696,109.85649)" />
  </g>
</svg>
