<?xml version="1.0" encoding="utf-8" standalone="no"?>
<!DOCTYPE svg PUBLIC "-//W3C//DTD SVG 1.1//EN"
  "http://www.w3.org/Graphics/SVG/1.1/DTD/svg11.dtd">
<svg xmlns:xlink="http://www.w3.org/1999/xlink" width="81pt" height="30.6pt" viewBox="0 0 81 30.6" xmlns="http://www.w3.org/2000/svg" version="1.1">
 <metadata>
  <rdf:RDF xmlns:dc="http://purl.org/dc/elements/1.1/" xmlns:cc="http://creativecommons.org/ns#" xmlns:rdf="http://www.w3.org/1999/02/22-rdf-syntax-ns#">
   <cc:Work>
    <dc:type rdf:resource="http://purl.org/dc/dcmitype/StillImage"/>
    <dc:format>image/svg+xml</dc:format>
    <dc:creator>
     <cc:Agent>
      <dc:title>Matplotlib v3.10.8, https://matplotlib.org/</dc:title>
     </cc:Agent>
    </dc:creator>
   </cc:Work>
  </rdf:RDF>
 </metadata>
 <defs>
  <style type="text/css">*{stroke-linejoin: round; stroke-linecap: butt}</style>
 </defs>
 <g id="figure_1">
  <g id="patch_1">
   <path d="M 0 30.6
L 81 30.6
L 81 0
L 0 0
z
" style="fill: #ffffff"/>
  </g>
  <g id="axes_1">
   <g id="patch_2">
    <path d="M 1.44 29.16
L 79.56 29.16
L 79.56 1.44
L 1.44 1.44
z
" style="fill: #ffffff"/>
   </g>
   <g id="patch_3">
    <path d="M 1.44 14.697391
L 33.325714 14.697391
L 33.325714 7.466087
L 1.44 7.466087
z
" clip-path="url(#p58e27c1c37)" style="fill: #cccccc; opacity: 0.35"/>
   </g>
   <g id="patch_4">
    <path d="M 1.44 26.749565
L 75.84 26.749565
L 75.84 19.518261
L 1.44 19.518261
z
" clip-path="url(#p58e27c1c37)" style="fill: #7e317b; opacity: 0.95"/>
   </g>
   <g id="matplotlib.axis_1"/>
   <g id="matplotlib.axis_2"/>
   <g id="text_1">
    <!-- compute -->
    <g style="fill: #333333" transform="translate(1.44 5.778783) scale(0.052 -0.052)">
     <defs>
      <path id="Helvetica-63" d="M 1703 3444
Q 2269 3444 2623 3169
Q 2978 2894 3050 2222
L 2503 2222
Q 2453 2531 2275 2736
Q 2097 2941 1703 2941
Q 1166 2941 934 2416
Q 784 2075 784 1575
Q 784 1072 996 728
Q 1209 384 1666 384
Q 2016 384 2220 598
Q 2425 813 2503 1184
L 3050 1184
Q 2956 519 2581 211
Q 2206 -97 1622 -97
Q 966 -97 575 383
Q 184 863 184 1581
Q 184 2463 612 2953
Q 1041 3444 1703 3444
z
M 1616 3428
L 1616 3428
z
" transform="scale(0.015625)"/>
      <path id="Helvetica-6f" d="M 1741 363
Q 2300 363 2508 786
Q 2716 1209 2716 1728
Q 2716 2197 2566 2491
Q 2328 2953 1747 2953
Q 1231 2953 997 2559
Q 763 2166 763 1609
Q 763 1075 997 719
Q 1231 363 1741 363
z
M 1763 3444
Q 2409 3444 2856 3012
Q 3303 2581 3303 1744
Q 3303 934 2909 406
Q 2516 -122 1688 -122
Q 997 -122 590 345
Q 184 813 184 1600
Q 184 2444 612 2944
Q 1041 3444 1763 3444
z
M 1744 3428
L 1744 3428
z
" transform="scale(0.015625)"/>
      <path id="Helvetica-6d" d="M 413 3347
L 969 3347
L 969 2872
Q 1169 3119 1331 3231
Q 1609 3422 1963 3422
Q 2363 3422 2606 3225
Q 2744 3113 2856 2894
Q 3044 3163 3297 3292
Q 3550 3422 3866 3422
Q 4541 3422 4784 2934
Q 4916 2672 4916 2228
L 4916 0
L 4331 0
L 4331 2325
Q 4331 2659 4164 2784
Q 3997 2909 3756 2909
Q 3425 2909 3186 2687
Q 2947 2466 2947 1947
L 2947 0
L 2375 0
L 2375 2184
Q 2375 2525 2294 2681
Q 2166 2916 1816 2916
Q 1497 2916 1236 2669
Q 975 2422 975 1775
L 975 0
L 413 0
L 413 3347
z
" transform="scale(0.015625)"/>
      <path id="Helvetica-70" d="M 1825 378
Q 2219 378 2480 708
Q 2741 1038 2741 1694
Q 2741 2094 2625 2381
Q 2406 2934 1825 2934
Q 1241 2934 1025 2350
Q 909 2038 909 1556
Q 909 1169 1025 897
Q 1244 378 1825 378
z
M 369 3331
L 916 3331
L 916 2888
Q 1084 3116 1284 3241
Q 1569 3428 1953 3428
Q 2522 3428 2919 2992
Q 3316 2556 3316 1747
Q 3316 653 2744 184
Q 2381 -113 1900 -113
Q 1522 -113 1266 53
Q 1116 147 931 375
L 931 -1334
L 369 -1334
L 369 3331
z
" transform="scale(0.015625)"/>
      <path id="Helvetica-75" d="M 975 3347
L 975 1125
Q 975 869 1056 706
Q 1206 406 1616 406
Q 2203 406 2416 931
Q 2531 1213 2531 1703
L 2531 3347
L 3094 3347
L 3094 0
L 2563 0
L 2569 494
Q 2459 303 2297 172
Q 1975 -91 1516 -91
Q 800 -91 541 388
Q 400 644 400 1072
L 400 3347
L 975 3347
z
M 1747 3428
L 1747 3428
z
" transform="scale(0.015625)"/>
      <path id="Helvetica-74" d="M 525 4281
L 1094 4281
L 1094 3347
L 1628 3347
L 1628 2888
L 1094 2888
L 1094 703
Q 1094 528 1213 469
Q 1278 434 1431 434
Q 1472 434 1519 436
Q 1566 438 1628 444
L 1628 0
Q 1531 -28 1426 -40
Q 1322 -53 1200 -53
Q 806 -53 665 148
Q 525 350 525 672
L 525 2888
L 72 2888
L 72 3347
L 525 3347
L 525 4281
z
" transform="scale(0.015625)"/>
      <path id="Helvetica-65" d="M 1806 3422
Q 2163 3422 2497 3255
Q 2831 3088 3006 2822
Q 3175 2569 3231 2231
Q 3281 2000 3281 1494
L 828 1494
Q 844 984 1069 676
Q 1294 369 1766 369
Q 2206 369 2469 659
Q 2619 828 2681 1050
L 3234 1050
Q 3213 866 3089 639
Q 2966 413 2813 269
Q 2556 19 2178 -69
Q 1975 -119 1719 -119
Q 1094 -119 659 336
Q 225 791 225 1609
Q 225 2416 662 2919
Q 1100 3422 1806 3422
z
M 2703 1941
Q 2669 2306 2544 2525
Q 2313 2931 1772 2931
Q 1384 2931 1121 2651
Q 859 2372 844 1941
L 2703 1941
z
M 1753 3428
L 1753 3428
z
" transform="scale(0.015625)"/>
     </defs>
     <use xlink:href="#Helvetica-63"/>
     <use xlink:href="#Helvetica-6f" transform="translate(50 0)"/>
     <use xlink:href="#Helvetica-6d" transform="translate(105.615234 0)"/>
     <use xlink:href="#Helvetica-70" transform="translate(188.916016 0)"/>
     <use xlink:href="#Helvetica-75" transform="translate(244.53125 0)"/>
     <use xlink:href="#Helvetica-74" transform="translate(300.146484 0)"/>
     <use xlink:href="#Helvetica-65" transform="translate(327.929688 0)"/>
    </g>
   </g>
   <g id="text_2">
    <!-- comm -->
    <g style="fill: #333333" transform="translate(1.44 17.830957) scale(0.052 -0.052)">
     <use xlink:href="#Helvetica-63"/>
     <use xlink:href="#Helvetica-6f" transform="translate(50 0)"/>
     <use xlink:href="#Helvetica-6d" transform="translate(105.615234 0)"/>
     <use xlink:href="#Helvetica-6d" transform="translate(188.916016 0)"/>
    </g>
   </g>
  </g>
 </g>
 <defs>
  <clipPath id="p58e27c1c37">
   <rect x="1.44" y="1.44" width="78.12" height="27.72"/>
  </clipPath>
 </defs>
</svg>
