<?xml version="1.0" encoding="UTF-8" standalone="no"?>
<!-- Created with Inkscape (http://www.inkscape.org/) -->

<svg
   version="1.1"
   id="svg1"
   width="290.33466"
   height="232.616"
   viewBox="0 0 290.33466 232.616"
   xmlns="http://www.w3.org/2000/svg"
   xmlns:svg="http://www.w3.org/2000/svg">
  <defs
     id="defs1" />
  <g
     id="g1">
    <path
       id="path1"
       d="M 0,0 V 140.73776"
       style="fill:none;stroke:#000000;stroke-width:0.99628;stroke-linecap:butt;stroke-linejoin:miter;stroke-miterlimit:10;stroke-dasharray:none;stroke-opacity:1"
       transform="matrix(1.3333333,0,0,-1.3333333,62.898667,209.948)" />
    <path
       id="path2"
       d="M -2.78957,3.47087 C -2.27992,1.38832 -1.14423,0.40492 0,0 -1.14423,-0.40492 -2.27992,-1.38832 -2.78957,-3.47087"
       style="fill:none;stroke:#000000;stroke-width:0.99628;stroke-linecap:round;stroke-linejoin:round;stroke-miterlimit:10;stroke-dasharray:none;stroke-opacity:1"
       transform="matrix(0,-1.3333333,-1.3333333,0,62.898667,21.633467)" />
    <path
       id="path3"
       d="M 1.5481406,-6.54 H 0.71610937 V -9.375e-4 H 4.7825156 v -0.73828125 h -3.234375 z m 5.8740235,1.7109375 c -1.3125,0 -2.109375,0.9375 -2.109375,2.5195312 0,1.57031255 0.7851562,2.5195313 2.1210937,2.5195313 1.3125,0 2.1210938,-0.94921875 2.1210938,-2.484375 0,-1.6289063 -0.7734375,-2.5546875 -2.1328125,-2.5546875 z m 0.011719,0.6914062 c 0.84375,0 1.3476563,0.6796875 1.3476563,1.8515625 0,1.1015625 -0.5273438,1.80468755 -1.3476563,1.80468755 -0.8320312,0 -1.3476562,-0.69140625 -1.3476562,-1.82812505 0,-1.1367187 0.515625,-1.828125 1.3476562,-1.828125 z m 6.2285149,-0.5625 v 0.6796875 c -0.375,-0.5507812 -0.832031,-0.8085937 -1.429687,-0.8085937 -1.195313,0 -2.003906,1.03125 -2.003906,2.5546875 0,0.7734375 0.210937,1.40625 0.597656,1.8515625 C 11.178023,-0.024375 11.670211,0.21 12.162398,0.21 c 0.597657,0 1.007813,-0.2578125 1.429688,-0.84375 v 0.234375 c 0,0.64453125 -0.08203,1.03125 -0.269531,1.2890625 -0.199219,0.2695312 -0.585938,0.4335937 -1.042969,0.4335937 -0.339844,0 -0.644531,-0.082031 -0.84375,-0.2460937 C 11.260055,0.9365625 11.189742,0.819375 11.142867,0.538125 h -0.761719 c 0.08203,0.890625 0.773438,1.4179687 1.875,1.4179687 0.703125,0 1.300782,-0.2226562 1.605469,-0.5976562 0.363281,-0.43359375 0.492188,-1.03125 0.492188,-2.1328125 v -3.9257813 z m -1.347656,0.5625 c 0.808594,0 1.277344,0.6796875 1.277344,1.8515625 0,1.125 -0.480469,1.80468755 -1.277344,1.80468755 -0.808594,0 -1.300781,-0.69140625 -1.300781,-1.82812505 0,-1.1367187 0.503906,-1.828125 1.300781,-1.828125 z m 5.827149,4.1367188 h 2.953125 c 0.621093,0 1.078125,-0.17578125 1.429687,-0.55078125 0.316406,-0.33984375 0.503906,-0.80859375 0.503906,-1.31250005 0,-0.7851562 -0.363281,-1.265625 -1.195312,-1.59375 0.585937,-0.2695312 0.902344,-0.7617187 0.902344,-1.4179687 0,-0.4804688 -0.175782,-0.9023438 -0.515625,-1.2070313 C 21.880172,-6.3876563 21.423141,-6.54 20.802047,-6.54 h -2.660156 z m 0.84375,-3.7148438 v -2.0859375 h 1.605468 c 0.46875,0 0.726563,0.058594 0.949219,0.234375 0.234375,0.1757813 0.363281,0.4453125 0.363281,0.8085938 0,0.3515625 -0.128906,0.6210937 -0.363281,0.8085937 -0.222656,0.1640625 -0.480469,0.234375 -0.949219,0.234375 z m 0,2.97656255 V -2.9892188 h 2.027343 c 0.410157,0 0.679688,0.1054688 0.867188,0.3164063 0.199219,0.2109375 0.304687,0.4921875 0.304687,0.8203125 0,0.3046875 -0.105468,0.5976562 -0.304687,0.796875 -0.1875,0.22265625 -0.457031,0.31640625 -0.867188,0.31640625 z m 9.228515,0.3046875 c -0.08203,0.0117188 -0.117187,0.0117188 -0.152344,0.0117188 -0.269531,0 -0.410156,-0.12890625 -0.410156,-0.36328125 v -2.7656251 c 0,-0.8320312 -0.609375,-1.2773437 -1.769531,-1.2773437 -0.679688,0 -1.242188,0.1875 -1.558594,0.5390625 -0.210937,0.2460937 -0.304687,0.515625 -0.316406,0.984375 h 0.75 c 0.05859,-0.5742188 0.398437,-0.8320313 1.101562,-0.8320313 0.667969,0 1.054688,0.2460938 1.054688,0.6914063 v 0.1992187 c 0,0.3164063 -0.1875,0.4453125 -0.785156,0.515625 -1.054688,0.140625 -1.21875,0.1757813 -1.5,0.2929688 -0.550782,0.2226562 -0.832032,0.6445312 -0.832032,1.2539062 0,0.8554688 0.597657,1.3945313 1.546875,1.3945313 0.585938,0 1.066407,-0.2109375 1.59375,-0.69140625 0.04687,0.46875 0.28125,0.69140625 0.773438,0.69140625 0.152344,0 0.269531,-0.0234375 0.503906,-0.0820313 z M 26.913375,-1.4775 c 0,0.2460937 -0.08203,0.3984375 -0.304688,0.609375 -0.304687,0.28125 -0.667968,0.421875 -1.113281,0.421875 -0.574219,0 -0.914062,-0.28125 -0.914062,-0.7617188 0,-0.4921875 0.328125,-0.7382812 1.125,-0.8554687 0.785156,-0.1054688 0.949218,-0.140625 1.207031,-0.2578125 z m 2.124023,-3.2226563 v 4.6992188 h 0.75 v -2.5898438 c 0,-0.9609375 0.503907,-1.5820312 1.265625,-1.5820312 0.597657,0 0.972657,0.3515625 0.972657,0.9140625 v 3.2578125 h 0.75 v -3.5507813 c 0,-0.7734375 -0.585938,-1.2773437 -1.488282,-1.2773437 -0.703125,0 -1.148437,0.2695312 -1.570312,0.9140625 V -4.7001563 Z M 37.83232,-6.54 h -0.75 v 2.4375 c -0.316406,-0.4804688 -0.808593,-0.7265625 -1.441406,-0.7265625 -1.21875,0 -2.015625,0.9726562 -2.015625,2.4726562 0,1.5820313 0.773438,2.5664063 2.039063,2.5664063 0.644531,0 1.101562,-0.24609375 1.5,-0.83203125 V -9.375e-4 h 0.667968 z m -2.0625,2.4023437 c 0.808594,0 1.3125,0.7265625 1.3125,1.8398438 0,1.0898437 -0.515625,1.8046875 -1.3125,1.8046875 -0.820312,0 -1.371093,-0.7265625 -1.371093,-1.8164063 0,-1.1015625 0.550781,-1.828125 1.371093,-1.828125 z m 7.576172,4.1367188 1.382813,-4.6992188 h -0.84375 l -0.9375,3.65625 -0.925782,-3.65625 h -0.914062 l -0.890625,3.65625 -0.960938,-3.65625 h -0.820312 l 1.359375,4.6992188 h 0.84375 l 0.902344,-3.6796875 0.949218,3.6796875 z m 2.850586,-4.6992188 h -0.75 v 4.6992188 h 0.75 z m 0,-1.8398437 h -0.761719 v 0.9492187 h 0.761719 z m 5.085938,0 h -0.75 v 2.4375 c -0.316407,-0.4804688 -0.808594,-0.7265625 -1.441407,-0.7265625 -1.21875,0 -2.015625,0.9726562 -2.015625,2.4726562 0,1.5820313 0.773438,2.5664063 2.039063,2.5664063 0.644531,0 1.101562,-0.24609375 1.5,-0.83203125 V -9.375e-4 h 0.667969 z m -2.0625,2.4023437 c 0.808593,0 1.3125,0.7265625 1.3125,1.8398438 0,1.0898437 -0.515625,1.8046875 -1.3125,1.8046875 -0.820313,0 -1.371094,-0.7265625 -1.371094,-1.8164063 0,-1.1015625 0.550781,-1.828125 1.371094,-1.828125 z m 4.877929,-0.5625 h -0.761718 v -1.2890625 h -0.75 v 1.2890625 h -0.632813 v 0.609375 h 0.632813 V -0.54 c 0,0.48046875 0.328125,0.75 0.902343,0.75 0.1875,0 0.363282,-0.0234375 0.609375,-0.0703125 v -0.62109375 c -0.09375,0.0234375 -0.210937,0.0351563 -0.351562,0.0351563 -0.328125,0 -0.410156,-0.09375 -0.410156,-0.421875 V -4.0907812 h 0.761718 z M 54.950484,-6.54 v 6.5390625 h 0.738282 v -2.5898438 c 0,-0.9609375 0.503906,-1.5820312 1.277343,-1.5820312 0.234375,0 0.480469,0.070312 0.65625,0.2109375 0.222657,0.1523437 0.304688,0.375 0.304688,0.703125 v 3.2578125 h 0.75 v -3.5507813 c 0,-0.7851562 -0.5625,-1.2773437 -1.476563,-1.2773437 -0.667968,0 -1.066406,0.1992187 -1.511718,0.7734375 V -6.54 Z m 8.967774,0 c -0.902344,1.1835937 -1.464844,2.8125 -1.464844,4.21875 0,1.41796875 0.5625,3.046875 1.464844,4.21875 h 0.492187 c -0.796875,-1.27734375 -1.230468,-2.7890625 -1.230468,-4.21875 0,-1.4296875 0.433593,-2.9414063 1.230468,-4.21875 z m 7.21582,3.0820312 h -2.71875 v 0.7382813 h 1.992188 v 0.1875 c 0,1.1601562 -0.867188,2.00390625 -2.0625,2.00390625 -0.65625,0 -1.253907,-0.24609375 -1.640625,-0.66796875 -0.433594,-0.46875 -0.691407,-1.2421875 -0.691407,-2.0507813 0,-1.6054687 0.914063,-2.6601562 2.296875,-2.6601562 0.996094,0 1.710938,0.5039062 1.886719,1.3476562 h 0.855469 c -0.234375,-1.3242187 -1.242188,-2.0859375 -2.742188,-2.0859375 -0.796875,0 -1.441406,0.2109375 -1.945312,0.6328125 -0.761719,0.6210938 -1.183594,1.640625 -1.183594,2.8125 0,2.0039063 1.21875,3.4101563 2.988281,3.4101563 0.890625,0 1.59375,-0.33984375 2.238282,-1.04296875 l 0.199218,0.8671875 h 0.527344 z m 1.327149,3.4570313 h 2.953125 c 0.621093,0 1.078125,-0.17578125 1.429687,-0.55078125 0.316406,-0.33984375 0.503906,-0.80859375 0.503906,-1.31250005 0,-0.7851562 -0.363281,-1.265625 -1.195312,-1.59375 0.585937,-0.2695312 0.902344,-0.7617187 0.902344,-1.4179687 0,-0.4804688 -0.175782,-0.9023438 -0.515625,-1.2070313 C 76.199508,-6.3876563 75.742477,-6.54 75.121383,-6.54 h -2.660156 z m 0.84375,-3.7148438 v -2.0859375 h 1.605468 c 0.46875,0 0.726563,0.058594 0.949219,0.234375 0.234375,0.1757813 0.363281,0.4453125 0.363281,0.8085938 0,0.3515625 -0.128906,0.6210937 -0.363281,0.8085937 -0.222656,0.1640625 -0.480469,0.234375 -0.949219,0.234375 z m 0,2.97656255 V -2.9892188 h 2.027343 c 0.410157,0 0.679688,0.1054688 0.867188,0.3164063 0.199219,0.2109375 0.304687,0.4921875 0.304687,0.8203125 0,0.3046875 -0.105468,0.5976562 -0.304687,0.796875 -0.1875,0.22265625 -0.457031,0.31640625 -0.867188,0.31640625 z M 79.788375,-6.54 77.667281,0.17484375 h 0.492188 L 80.280563,-6.54 Z m 4.368164,3.1523437 c -0.01172,-0.9257812 -0.621094,-1.4414062 -1.699219,-1.4414062 -1.101562,0 -1.804687,0.5625 -1.804687,1.4296875 0,0.7382812 0.375,1.0898437 1.488281,1.359375 l 0.703125,0.1640625 c 0.515625,0.1289062 0.726563,0.3164062 0.726563,0.65625 0,0.43359375 -0.445313,0.73828125 -1.101563,0.73828125 -0.398437,0 -0.738281,-0.1171875 -0.925781,-0.31640625 -0.117188,-0.140625 -0.175781,-0.2695313 -0.222656,-0.5976563 h -0.785157 c 0.03516,1.07812505 0.644532,1.6054688 1.875,1.6054688 1.183594,0 1.933594,-0.5859375 1.933594,-1.4882813 0,-0.703125 -0.398437,-1.0898437 -1.324219,-1.3125 l -0.714843,-0.1757812 c -0.609375,-0.140625 -0.867188,-0.3398438 -0.867188,-0.6679688 0,-0.4335937 0.375,-0.703125 0.984375,-0.703125 0.609375,0 0.925781,0.2578125 0.949219,0.75 z M 85.545211,1.8975 c 0.902344,-1.171875 1.464844,-2.80078125 1.464844,-4.2070313 0,-1.4179687 -0.5625,-3.046875 -1.464844,-4.2304687 h -0.492188 c 0.785157,1.2890625 1.230469,2.7890625 1.230469,4.2304687 0,1.4179688 -0.445312,2.9414063 -1.230469,4.2070313 z m 0,0"
       style="fill:#000000;fill-opacity:1;fill-rule:nonzero;stroke:none"
       aria-label="LogBandwidth(GB/s)"
       transform="matrix(1.3333333,0,0,1.3333333,4.428,13.22)" />
    <path
       id="path4"
       d="M 0,0 H 170.08086"
       style="fill:none;stroke:#000000;stroke-width:0.99628;stroke-linecap:butt;stroke-linejoin:miter;stroke-miterlimit:10;stroke-dasharray:none;stroke-opacity:1"
       transform="matrix(1.3333333,0,0,-1.3333333,62.898667,209.948)" />
    <path
       id="path5"
       d="M 14.1734,0.3736 H 42.52019 V 127.93427 H 14.1734 Z"
       style="fill:#d1f3ff;fill-opacity:1;fill-rule:nonzero;stroke:#006395;stroke-width:0.74721;stroke-linecap:butt;stroke-linejoin:miter;stroke-miterlimit:10;stroke-dasharray:none;stroke-opacity:1"
       transform="matrix(1.3333333,0,0,-1.3333333,62.898667,209.948)" />
    <path
       id="path6"
       d="M 8.5653828,5.78125e-4 V -0.46817187 H 7.4872578 V -6.3627031 h 1.078125 v -0.46875 c -0.375,0.023437 -1.359375,0.023437 -1.78125,0.023437 -0.4335937,0 -1.40625,0 -1.78125,-0.023437 v 0.46875 h 1.078125 v 2.578125 H 2.8817891 v -2.578125 h 1.0664062 v -0.46875 c -0.375,0.023437 -1.3476562,0.023437 -1.78125,0.023437 -0.421875,0 -1.40624999,0 -1.78124999,-0.023437 v 0.46875 H 1.4638203 v 5.89453123 H 0.38569531 V 5.78125e-4 c 0.375,-0.035156245 1.35937499,-0.035156245 1.78124999,-0.035156245 0.4335938,0 1.40625,0 1.78125,0.035156245 V -0.46817187 H 2.8817891 V -3.3158281 h 3.1992187 v 2.84765623 H 5.0028828 V 5.78125e-4 c 0.375,-0.035156245 1.3476563,-0.035156245 1.78125,-0.035156245 0.421875,0 1.40625,0 1.78125,0.035156245 z M 16.46675,-1.8509844 c 0,-0.9609375 -0.855469,-1.6289062 -2.039063,-1.7109375 1.078125,-0.1875 1.722657,-0.7851562 1.722657,-1.5585937 0,-0.9140625 -0.867188,-1.7109375 -2.472657,-1.7109375 H 9.3534687 v 0.46875 h 1.0781253 v 5.89453123 H 9.3534687 V 5.78125e-4 h 4.6289063 c 1.652344,0 2.484375,-0.878906245 2.484375,-1.851562525 z m -1.734375,-3.2695312 c 0,0.7734375 -0.480469,1.3828125 -1.441406,1.3828125 h -1.558594 v -2.625 h 1.816406 c 1.007813,0 1.183594,0.7851562 1.183594,1.2421875 z m 0.269531,3.2578125 c 0,0.1171875 0,1.39453123 -1.429687,1.39453123 H 11.732375 V -3.3744219 h 1.933594 c 0.199218,0 0.667968,0 1.007812,0.421875 0.328125,0.421875 0.328125,0.984375 0.328125,1.0898438 z M 27.581984,5.78125e-4 V -0.46817187 H 26.515578 V -6.3627031 h 1.066406 v -0.46875 h -2.191406 c -0.222656,0 -0.339844,0 -0.445312,0.2460937 l -2.390625,5.2734375 -2.390625,-5.2734375 c -0.105469,-0.2460937 -0.222657,-0.2460937 -0.433594,-0.2460937 h -2.214844 v 0.46875 h 1.078125 v 5.60156248 c 0,0.22265625 -0.01172,0.234375 -0.292969,0.2578125 -0.234375,0.0351563 -0.257812,0.0351563 -0.539062,0.0351563 H 17.515578 V 5.78125e-4 c 0.375,-0.035156245 0.949219,-0.035156245 1.335938,-0.035156245 0.421875,0 0.9375,0 1.347656,0.035156245 V -0.46817187 h -0.257813 c -0.175781,0 -0.339843,-0.0117188 -0.527343,-0.0351563 -0.28125,-0.0234375 -0.292969,-0.0351563 -0.292969,-0.2578125 V -6.2337969 h 0.01172 l 2.707031,5.98828128 c 0.09375,0.19921875 0.210937,0.246093745 0.316406,0.246093745 0.199219,0 0.28125,-0.152343745 0.316406,-0.234374995 l 2.777344,-6.12890623 h 0.01172 v 5.89453123 H 24.195266 V 5.78125e-4 c 0.351562,-0.035156245 1.277343,-0.035156245 1.6875,-0.035156245 0.410156,0 1.347656,0 1.699218,0.035156245 z M 35.618117,2.3443281 c 0,-0.046875 -0.03516,-0.1054687 -0.03516,-0.1054687 -0.28125,-0.2695313 -0.9375,-0.8789063 -1.347656,-2.14453127 -0.269532,-0.796875 -0.386719,-1.71093753 -0.386719,-2.58984373 0,-1.9570313 0.515625,-3.515625 1.605469,-4.6289063 0.152343,-0.1523437 0.164062,-0.1523437 0.164062,-0.2109375 0,-0.1054687 -0.105469,-0.140625 -0.1875,-0.140625 -0.164062,0 -0.585937,0.375 -0.761719,0.5390625 -1.558593,1.546875 -1.78125,3.3867188 -1.78125,4.4414063 0,1.2421875 0.328125,2.33203123 0.796875,3.16406248 0.65625,1.14843752 1.558594,1.81640622 1.746094,1.81640622 0.08203,0 0.1875,-0.035156 0.1875,-0.140625 z m 5.882813,-4.1367187 c 0,-0.5507813 -0.292969,-1.40625 -1.734375,-1.7109375 0.691406,-0.2109375 1.417968,-0.7851563 1.417968,-1.640625 0,-0.7617188 -0.761718,-1.3828125 -2.167968,-1.3828125 -1.183594,0 -1.957032,0.6445312 -1.957032,1.4414062 0,0.421875 0.304688,0.6914063 0.691407,0.6914063 0.445312,0 0.691406,-0.3164063 0.691406,-0.6914063 0,-0.5742187 -0.539063,-0.6796875 -0.574219,-0.6914062 0.351563,-0.28125 0.785156,-0.3632813 1.089844,-0.3632813 0.832031,0 0.855469,0.6445313 0.855469,0.9726563 0,0.1289062 0,1.4296875 -1.042969,1.4882812 -0.410156,0.023437 -0.421875,0.035156 -0.480469,0.046875 -0.09375,0.011719 -0.117187,0.1054688 -0.117187,0.1640625 0,0.1757813 0.105468,0.1757813 0.28125,0.1757813 h 0.433593 c 1.089844,0 1.089844,0.984375 1.089844,1.4882812 0,0.46875 0,1.48828128 -1.03125,1.48828128 -0.257812,0 -0.785156,-0.046875 -1.253906,-0.33984375 0.328125,-0.09375 0.574219,-0.33984375 0.574219,-0.75000003 0,-0.4453125 -0.316407,-0.75 -0.761719,-0.75 -0.410156,0 -0.761719,0.2578125 -0.761719,0.7734375 0,0.89062503 0.960938,1.48828128 2.25,1.48828128 1.78125,0 2.507813,-0.99609375 2.507813,-1.89843748 z m 5.730468,0 c 0,-0.5507813 -0.292968,-1.40625 -1.734375,-1.7109375 0.691407,-0.2109375 1.417969,-0.7851563 1.417969,-1.640625 0,-0.7617188 -0.761719,-1.3828125 -2.167969,-1.3828125 -1.183593,0 -1.957031,0.6445312 -1.957031,1.4414062 0,0.421875 0.304688,0.6914063 0.691406,0.6914063 0.445313,0 0.691407,-0.3164063 0.691407,-0.6914063 0,-0.5742187 -0.539063,-0.6796875 -0.574219,-0.6914062 0.351562,-0.28125 0.785156,-0.3632813 1.089844,-0.3632813 0.832031,0 0.855468,0.6445313 0.855468,0.9726563 0,0.1289062 0,1.4296875 -1.042968,1.4882812 -0.410157,0.023437 -0.421875,0.035156 -0.480469,0.046875 -0.09375,0.011719 -0.117188,0.1054688 -0.117188,0.1640625 0,0.1757813 0.105469,0.1757813 0.28125,0.1757813 h 0.433594 c 1.089844,0 1.089844,0.984375 1.089844,1.4882812 0,0.46875 0,1.48828128 -1.03125,1.48828128 -0.257813,0 -0.785156,-0.046875 -1.253906,-0.33984375 0.328125,-0.09375 0.574218,-0.33984375 0.574218,-0.75000003 0,-0.4453125 -0.316406,-0.75 -0.761718,-0.75 -0.410157,0 -0.761719,0.2578125 -0.761719,0.7734375 0,0.89062503 0.960937,1.48828128 2.25,1.48828128 1.78125,0 2.507812,-0.99609375 2.507812,-1.89843748 z m 5.633789,-0.2109375 c 0,-1.1484375 -0.785156,-2.0742188 -2.25,-2.0742188 -0.292968,0 -0.820312,0.035156 -1.289062,0.3515625 v -1.3125 c 0.28125,0.046875 0.386719,0.070312 0.726562,0.070312 1.453125,0 2.367188,-1.125 2.367188,-1.3710937 0,-0.070312 -0.01172,-0.1875 -0.140625,-0.1875 -0.02344,0 -0.03516,0 -0.140625,0.046875 -0.574219,0.2109375 -1.101563,0.2695312 -1.523438,0.2695312 -0.761718,0 -1.289062,-0.1875 -1.546875,-0.2695312 -0.09375,-0.035156 -0.105468,-0.046875 -0.128906,-0.046875 -0.140625,0 -0.140625,0.1171875 -0.140625,0.2695312 v 2.90625 c 0,0.1875 0,0.3164063 0.222656,0.3164063 0.128907,0 0.140625,-0.046875 0.210938,-0.1171875 0.386719,-0.46875 0.925781,-0.5625 1.335937,-0.5625 0.890625,0 0.890625,0.8789062 0.890625,1.6757812 0,0.7265625 0,1.72265628 -1.195312,1.72265628 -0.246094,0 -0.867188,-0.046875 -1.289063,-0.62109375 0.363282,-0.0234375 0.644532,-0.25781253 0.644532,-0.66796873 0,-0.5273438 -0.421875,-0.6796875 -0.667969,-0.6796875 -0.140625,0 -0.667969,0.09375 -0.667969,0.703125 0,0.84374998 0.785156,1.68749998 2.015625,1.68749998 1.59375,0 2.566406,-0.890625 2.566406,-2.10937448 z m 5.856446,-1.171875 c 0,-0.9726563 -0.01172,-3.3515625 -2.414063,-3.3515625 -2.402343,0 -2.414062,2.3789062 -2.414062,3.3515625 0,0.984375 0.01172,3.28124998 2.414062,3.28124998 2.390625,0 2.414063,-2.28515628 2.414063,-3.28124998 z m -1.277344,-0.1171875 c 0,0.5507812 0,1.4648437 -0.07031,1.9804687 -0.140625,0.92578128 -0.773438,1.06640628 -1.066407,1.06640628 -0.363281,0 -0.914062,-0.22265625 -1.042968,-0.94921878 -0.09375,-0.515625 -0.09375,-1.5585937 -0.09375,-2.0976562 0,-0.7265625 0,-1.3710938 0.08203,-1.8867188 0.117187,-0.890625 0.820312,-0.984375 1.054687,-0.984375 0.363282,0 0.773438,0.1875 0.960938,0.6210938 0.175781,0.375 0.175781,1.4296875 0.175781,2.25 z m 5.097656,0.796875 c 0,-1.2421875 -0.328125,-2.3320313 -0.796875,-3.1640625 -0.65625,-1.1484375 -1.558593,-1.8164063 -1.746093,-1.8164063 -0.08203,0 -0.1875,0.035156 -0.1875,0.140625 0,0.058594 0,0.070312 0.175781,0.234375 1.253906,1.2773438 1.59375,3.0351563 1.59375,4.6054688 0,1.95703123 -0.503906,3.5273437 -1.605469,4.6289062 -0.152344,0.1523438 -0.164062,0.1640625 -0.164062,0.2109375 0,0.1054688 0.105468,0.140625 0.1875,0.140625 0.164062,0 0.585937,-0.375 0.761718,-0.5390625 1.558594,-1.54687497 1.78125,-3.375 1.78125,-4.4414062 z m 0,0"
       style="fill:#000000;fill-opacity:1;fill-rule:nonzero;stroke:none"
       aria-label="HBM(3350)"
       transform="matrix(0,-1.3333333,1.3333333,0,104.02267,166.83067)" />
    <path
       id="path7"
       d="m 6.644875,-3.0342344 c 0,-1.828125 -1.3945312,-3.28125 -3.0703125,-3.28125 -1.6757812,0 -3.05859375,1.453125 -3.05859375,3.28125 0,1.8164063 1.39453125,3.23437502 3.05859375,3.23437502 1.6757813,0 3.0703125,-1.41796872 3.0703125,-3.23437502 z m -0.9140625,-0.140625 c 0,2.32031252 -1.2539062,3.10546877 -2.15625,3.10546877 -0.9023437,0 -2.1445312,-0.78515625 -2.1445312,-3.10546877 0,-2.1796875 1.2773437,-2.8945312 2.1445312,-2.8945312 0.8671875,0 2.15625,0.7148437 2.15625,2.8945312 z M 12.061867,9.21875e-4 V -0.28032813 c -0.457031,0 -0.679687,0 -0.679687,-0.26953125 V -2.2725156 c 0,-0.75 0,-1.0078125 -0.257813,-1.3242188 -0.199219,-0.2460937 -0.550781,-0.3632812 -0.996094,-0.3632812 -0.8320308,0 -1.2187496,0.6210937 -1.3476558,0.8671875 v -0.8671875 l -1.3007813,0.09375 v 0.28125 c 0.609375,0 0.6914063,0.058594 0.6914063,0.5039062 v 2.39062502 c 0,0.41015625 -0.1054688,0.41015625 -0.6914063,0.41015625 V 9.21875e-4 c 0.421875,-0.023437505 0.5859375,-0.023437505 1.0195313,-0.023437505 0.4335937,0 0.5507812,0 1.0195312,0.023437505 V -0.28032813 c -0.5859375,0 -0.6914062,0 -0.6914062,-0.41015625 V -2.3193906 c 0,-0.9492188 0.6796875,-1.4179688 1.2421878,-1.4179688 0.527343,0 0.644531,0.4335938 0.644531,0.9726563 v 2.07421872 c 0,0.41015625 -0.09375,0.41015625 -0.691406,0.41015625 V 9.21875e-4 c 0.421875,-0.023437505 0.597656,-0.023437505 1.019531,-0.023437505 0.433594,0 0.550781,0 1.019531,0.023437505 z M 14.839211,-1.6631406 v -0.5507813 h -2.460938 v 0.5507813 z m 6.263672,-2.7890625 c 0,-0.890625 -0.914063,-1.6640625 -2.167969,-1.6640625 h -3.210937 v 0.2695312 h 0.199218 c 0.691407,0 0.714844,0.1054688 0.714844,0.4335938 v 4.71093747 c 0,0.328125 -0.02344,0.421875 -0.714844,0.421875 H 15.723977 V 9.21875e-4 c 0.398437,-0.023437505 0.902343,-0.023437505 1.3125,-0.023437505 0.410156,0 0.914062,0 1.324218,0.023437505 V -0.28032813 h -0.210937 c -0.691406,0 -0.714844,-0.09375 -0.714844,-0.421875 V -2.8115781 h 1.5 c 1.253906,0 2.167969,-0.7851563 2.167969,-1.640625 z m -0.914063,0 c 0,0.3984375 0,1.3828125 -1.488281,1.3828125 h -1.289062 v -2.4023438 c 0,-0.3046875 0.02344,-0.375 0.445312,-0.375 h 0.855469 c 1.476562,0 1.476562,0.984375 1.476562,1.3945313 z m 5.63086,3.65624997 V -1.2998594 h -0.246094 v 0.49218752 c 0,0.10546875 0,0.55078125 -0.328125,0.55078125 -0.316406,0 -0.316406,-0.43359375 -0.316406,-0.57421875 V -2.4014219 c 0,-0.515625 0,-0.8203125 -0.410157,-1.1835937 -0.328125,-0.2929688 -0.761718,-0.4335938 -1.207031,-0.4335938 -0.75,0 -1.382812,0.375 -1.382812,0.9492188 0,0.28125 0.1875,0.4335937 0.421875,0.4335937 0.246093,0 0.410156,-0.1757812 0.410156,-0.4101562 0,-0.3867188 -0.398438,-0.4335938 -0.398438,-0.4335938 0.246094,-0.234375 0.667969,-0.3164062 0.925782,-0.3164062 0.457031,0 0.972656,0.3398437 0.972656,1.1367187 v 0.2929688 c -0.480469,0.023437 -1.160156,0.058594 -1.757813,0.3515625 -0.644531,0.3164062 -0.84375,0.7734375 -0.84375,1.13671872 0,0.73828125 0.867188,0.97265625 1.476563,0.97265625 0.738281,0 1.078125,-0.4921875 1.207031,-0.73828125 0.04687,0.375 0.304688,0.703125 0.691406,0.703125 0.222657,0 0.785157,-0.140625 0.785157,-0.85546875 z M 24.261086,-1.2647031 c 0,0.86718747 -0.667969,1.13671872 -1.066406,1.13671872 -0.421875,0 -0.820313,-0.3046875 -0.820313,-0.75 0,-0.58593752 0.515625,-1.21875002 1.886719,-1.27734372 z m 5.545898,0.1992187 c 0,-0.1054687 -0.105468,-0.1054687 -0.128906,-0.1054687 -0.09375,0 -0.09375,0.011719 -0.152344,0.1640625 -0.210937,0.62109372 -0.703125,0.85546872 -1.171875,0.85546872 -0.5625,0 -1.300781,-0.46875 -1.300781,-1.79296872 0,-1.3945313 0.714844,-1.8164063 1.253906,-1.8164063 0.117188,0 0.597657,0.011719 0.925782,0.234375 -0.1875,0.035156 -0.363282,0.1640625 -0.363282,0.421875 0,0.234375 0.175782,0.421875 0.410157,0.421875 0.234375,0 0.421875,-0.1640625 0.421875,-0.4335937 0,-0.5625 -0.621094,-0.9023438 -1.417969,-0.9023438 -1.148438,0 -2.003906,0.9609375 -2.003906,2.0859375 0,1.14843752 0.9375,2.02734377 1.992187,2.02734377 1.242188,0 1.535156,-1.078125 1.535156,-1.16015627 z M 34.512063,9.21875e-4 V -0.28032813 c -0.292969,0 -0.515625,0 -0.832032,-0.43359375 L 32.402688,-2.4482969 c 0.878906,-0.7617187 1.289062,-1.1132812 1.898437,-1.1367187 v -0.28125 c -0.316406,0.035156 -0.328125,0.035156 -0.65625,0.035156 L 32.6605,-3.8662656 v 0.28125 c 0.128906,0.011719 0.234375,0.070312 0.234375,0.2109375 0,0.1757812 -0.140625,0.2929687 -0.222656,0.3632812 l -1.265625,1.0664063 v -4.2773438 l -1.324219,0.1054688 v 0.2695312 c 0.609375,0 0.691406,0.070312 0.691406,0.5039063 v 4.65234372 c 0,0.41015625 -0.105468,0.41015625 -0.691406,0.41015625 V 9.21875e-4 L 31.078469,-0.02251563 32.074563,9.21875e-4 V -0.28032813 c -0.597657,0 -0.691407,0 -0.691407,-0.41015625 V -1.5928281 l 0.574219,-0.4804688 0.867188,1.17187502 c 0.140625,0.19921875 0.210937,0.3046875 0.210937,0.421875 0,0.09375 -0.02344,0.19921875 -0.304687,0.19921875 V 9.21875e-4 l 0.972656,-0.023437505 c 0.257812,0 0.550781,0 0.808594,0.023437505 z M 39.12632,-0.79595313 V -1.2998594 h -0.246093 v 0.49218752 c 0,0.10546875 0,0.55078125 -0.328125,0.55078125 -0.316407,0 -0.316407,-0.43359375 -0.316407,-0.57421875 V -2.4014219 c 0,-0.515625 0,-0.8203125 -0.410156,-1.1835937 -0.328125,-0.2929688 -0.761719,-0.4335938 -1.207031,-0.4335938 -0.75,0 -1.382813,0.375 -1.382813,0.9492188 0,0.28125 0.1875,0.4335937 0.421875,0.4335937 0.246094,0 0.410157,-0.1757812 0.410157,-0.4101562 0,-0.3867188 -0.398438,-0.4335938 -0.398438,-0.4335938 0.246094,-0.234375 0.667969,-0.3164062 0.925781,-0.3164062 0.457032,0 0.972657,0.3398437 0.972657,1.1367187 v 0.2929688 c -0.480469,0.023437 -1.160157,0.058594 -1.757813,0.3515625 -0.644531,0.3164062 -0.84375,0.7734375 -0.84375,1.13671872 0,0.73828125 0.867188,0.97265625 1.476563,0.97265625 0.738281,0 1.078125,-0.4921875 1.207031,-0.73828125 0.04687,0.375 0.304687,0.703125 0.691406,0.703125 0.222656,0 0.785156,-0.140625 0.785156,-0.85546875 z M 37.567727,-1.2647031 c 0,0.86718747 -0.667969,1.13671872 -1.066407,1.13671872 -0.421875,0 -0.820312,-0.3046875 -0.820312,-0.75 0,-0.58593752 0.515625,-1.21875002 1.886719,-1.27734372 z m 6.190429,-2.34375 c 0,-0.1757813 -0.128906,-0.4570313 -0.492187,-0.4570313 -0.257813,0 -0.65625,0.1054688 -0.972656,0.421875 -0.246094,-0.1875 -0.585938,-0.3164062 -0.972657,-0.3164062 -0.84375,0 -1.488281,0.609375 -1.488281,1.3125 0,0.4570312 0.269531,0.7851562 0.410156,0.9140625 -0.02344,0.023437 -0.269531,0.3398437 -0.269531,0.74999997 0,0.3046875 0.140625,0.62109375 0.386719,0.78515625 -0.457031,0.140625 -0.820313,0.48046875 -0.820313,0.90234375 0,0.63281253 0.890625,1.14843753 2.039063,1.14843753 1.101562,0 2.039062,-0.4804688 2.039062,-1.17187503 0,-0.36328125 -0.164062,-0.76171875 -0.503906,-0.97265625 -0.492187,-0.31640625 -1.019531,-0.31640625 -1.863281,-0.31640625 -0.1875,0 -0.46875,0 -0.539063,-0.0234375 -0.269531,-0.046875 -0.433593,-0.29296875 -0.433593,-0.57421877 0,-0.1523437 0.04687,-0.28125 0.128906,-0.3984375 0.222656,0.140625 0.492187,0.28125 0.914062,0.28125 0.84375,0 1.488282,-0.609375 1.488282,-1.3242187 0,-0.4335938 -0.246094,-0.7382813 -0.363282,-0.8671875 0.363282,-0.3164063 0.785157,-0.3164063 0.890625,-0.3164063 -0.04687,0.023437 -0.117187,0.070312 -0.117187,0.2226563 0,0.1054687 0.05859,0.2695312 0.269531,0.2695312 0.117188,0 0.269531,-0.082031 0.269531,-0.2695312 z m -1.628906,0.9609375 c 0,0.2109375 0,1.078125 -0.808594,1.078125 -0.796875,0 -0.796875,-0.8789063 -0.796875,-1.078125 0,-0.234375 0.01172,-0.5390625 0.164063,-0.7617188 0.140625,-0.1757812 0.375,-0.3046875 0.632812,-0.3046875 0.808594,0 0.808594,0.8671875 0.808594,1.0664063 z m 0.984375,3.33984372 c 0,0.51562498 -0.679687,0.91406248 -1.523437,0.91406248 -0.878907,0 -1.546875,-0.421875 -1.546875,-0.91406248 0,-0.140625 0.09375,-0.73828125 0.855468,-0.73828125 h 0.832032 c 0.28125,0 1.382812,0.01171875 1.382812,0.73828125 z m 4.608398,-1.75781252 c 0,-0.058594 -0.04687,-0.1171875 -0.128906,-0.1171875 -0.09375,0 -0.117187,0.058594 -0.128906,0.09375 -0.304688,0.91406252 -1.101563,0.93750002 -1.230469,0.93750002 -0.433594,0 -0.796875,-0.24609375 -1.007812,-0.55078125 C 44.932961,-1.1357969 44.921242,-1.6748594 44.921242,-2.0498594 h 2.554688 c 0.199218,0 0.246093,0 0.246093,-0.1875 0,-0.9257812 -0.503906,-1.78125 -1.652343,-1.78125 -1.078125,0 -1.921875,0.9375 -1.921875,2.0507813 0,1.17187497 0.949218,2.06249997 2.039062,2.06249997 1.089844,0 1.535156,-0.94921875 1.535156,-1.16015627 z m -0.609375,-1.2070312 h -2.179687 c 0.08203,-1.3710938 0.878906,-1.5234375 1.136719,-1.5234375 0.492187,0 1.03125,0.3867187 1.042968,1.5234375 z m 0,0"
       style="fill:#000000;fill-opacity:1;fill-rule:nonzero;stroke:none"
       aria-label="On-Package"
       transform="matrix(1.3333333,0,0,1.3333333,68.702667,225.72533)" />
    <path
       id="path8"
       d="M 71.61421,14.54701 H 99.961 v 99.21385 H 71.61421 Z"
       style="fill:#99c1d5;fill-opacity:1;fill-rule:nonzero;stroke:#006395;stroke-width:0.74721;stroke-linecap:butt;stroke-linejoin:miter;stroke-miterlimit:10;stroke-dasharray:none;stroke-opacity:1"
       transform="matrix(1.3333333,0,0,-1.3333333,62.898667,209.948)" />
    <path
       id="path9"
       d="M 8.5650234,-6.36325 V -6.832 c -0.375,0.023437 -0.9492187,0.023437 -1.3359375,0.023437 -0.421875,0 -0.9375,0 -1.3476562,-0.023437 v 0.46875 h 0.2578125 c 0.1757812,0 0.3398437,0.011719 0.5273437,0.023437 0.28125,0.035156 0.2929688,0.046875 0.2929688,0.2578125 v 4.0429688 L 2.9986172,-6.7030937 C 2.8931484,-6.8202812 2.8814297,-6.832 2.6704922,-6.832 H 0.38533594 v 0.46875 H 1.4634609 v 5.6015625 c 0,0.22265625 -0.011719,0.234375 -0.2929687,0.2578125 -0.23437501,0.0351562 -0.25781251,0.0351562 -0.53906251,0.0351562 H 0.38533594 v 0.46875 c 0.375,-0.0351562 0.94921876,-0.0351562 1.33593746,-0.0351562 0.421875,0 0.9375,0 1.3476563,0.03515625 v -0.46875 H 2.8228359 c -0.1875,0 -0.3515625,-0.0117188 -0.5273437,-0.0351562 -0.2929688,-0.0234375 -0.3046875,-0.0351563 -0.3046875,-0.2578125 V -5.9648124 L 6.9478359,-0.128875 C 7.0533047,-0.0116875 7.0650234,3.125e-5 7.2173672,3.125e-5 c 0.2695312,0 0.2695312,-0.09375 0.2695312,-0.31640625 V -6.082 c 0,-0.2109375 0.011719,-0.2226562 0.2929688,-0.2578125 0.234375,-0.023437 0.2578125,-0.023437 0.5390625,-0.023437 z m 8.7919926,0 V -6.832 l -1.125,0.023437 c -0.398438,0 -0.925782,0 -1.3125,-0.023437 v 0.46875 c 0.09375,0 0.878906,0 0.878906,0.1171875 0,0.035156 -0.02344,0.09375 -0.03516,0.1171875 L 13.747641,-1.5937187 11.626547,-6.36325 h 0.9375 V -6.832 c -0.375,0.023437 -1.335938,0.023437 -1.769531,0.023437 -0.386719,0 -1.2187504,0 -1.5703129,-0.023437 v 0.46875 h 0.9140629 l 2.753906,6.1875 c 0.08203,0.17578125 0.117187,0.2578125 0.398437,0.2578125 0.164063,0 0.292969,0 0.398438,-0.24609375 l 2.648437,-5.97656245 c 0.05859,-0.140625 0.105469,-0.2226563 0.832032,-0.2226563 z m 6.676757,3.6328125 h -0.46875 c -0.08203,0.6914063 -0.257812,2.26171875 -2.039062,2.26171875 H 20.50643 V -6.36325 h 1.335937 V -6.832 c -0.433594,0.023437 -1.523437,0.023437 -2.003906,0.023437 -0.445313,0 -1.453125,0 -1.828125,-0.023437 v 0.46875 h 1.078125 v 5.89453125 h -1.078125 v 0.46875 h 5.707031 z M 27.364828,3.125e-5 v -0.46875 H 26.743734 V -4.48825 l -1.722656,0.082031 v 0.46875 c 0.585938,0 0.65625,0 0.65625,0.3867187 v 3.08203125 h -0.691406 v 0.46875 L 26.204672,-0.035125 Z M 26.884359,-6.0468437 c 0,-0.4335938 -0.339843,-0.7734375 -0.773437,-0.7734375 -0.433594,0 -0.773438,0.3398437 -0.773438,0.7734375 0,0.4335937 0.339844,0.7734375 0.773438,0.7734375 0.433594,0 0.773437,-0.3398438 0.773437,-0.7734375 z m 6.94043,6.04687495 v -0.46875 H 33.133383 V -3.0468437 c 0,-1.0429688 -0.539063,-1.4414063 -1.535156,-1.4414063 -0.949219,0 -1.476563,0.5742188 -1.746094,1.078125 V -4.48825 l -1.710938,0.082031 v 0.46875 c 0.621094,0 0.691407,0 0.691407,0.3867187 v 3.08203125 h -0.691407 v 0.46875 L 29.395102,-0.035125 30.649008,3.125e-5 v -0.46875 H 29.96932 V -2.5546562 c 0,-1.078125 0.855469,-1.5703125 1.476563,-1.5703125 0.339844,0 0.550781,0.2109375 0.550781,0.9726562 v 2.68359375 h -0.679687 v 0.46875 L 32.570883,-0.035125 Z m 6.084961,0 v -0.46875 h -0.164062 c -0.433594,0 -0.46875,-0.0351562 -0.597657,-0.19921875 l -1.675781,-2.0976562 1.289063,-1.0078125 c 0.140625,-0.1171875 0.234375,-0.1757813 0.902343,-0.1757813 v -0.46875 C 39.394125,-4.3945 39.148031,-4.3945 38.8785,-4.3945 l -1.136719,-0.023437 v 0.46875 c 0.222657,0 0.257813,0.023437 0.339844,0.1054688 L 36.194906,-2.355437 V -6.9140312 L 34.425375,-6.832 v 0.46875 c 0.621094,0 0.691406,0 0.691406,0.3867188 v 5.50781245 h -0.691406 v 0.46875 L 35.620688,-0.035125 36.827719,3.125e-5 v -0.46875 H 36.148031 V -1.7343437 c 0.28125,-0.2226563 0.363282,-0.2929688 0.5625,-0.421875 l 1.007813,1.2539062 c 0.09375,0.1171875 0.246094,0.31640625 0.246094,0.33984375 0,0.09375 -0.175782,0.09375 -0.304688,0.09375 v 0.46875 c 0.292969,-0.0234375 1.160156,-0.03515625 1.21875,-0.03515625 0.351563,0 0.691406,0.01171875 1.03125,0.03515625 z m 7.825195,2.34375005 c 0,-0.046875 -0.03516,-0.1054688 -0.03516,-0.1054688 -0.28125,-0.2695312 -0.9375,-0.8789062 -1.347656,-2.14453125 -0.269531,-0.796875 -0.386719,-1.71093745 -0.386719,-2.58984375 0,-1.9570312 0.515625,-3.515625 1.605469,-4.6289062 0.152344,-0.1523438 0.164062,-0.1523438 0.164062,-0.2109375 0,-0.1054688 -0.105468,-0.140625 -0.1875,-0.140625 -0.164062,0 -0.585937,0.375 -0.761718,0.5390625 -1.558594,1.546875 -1.78125,3.3867187 -1.78125,4.4414062 0,1.2421875 0.328125,2.33203125 0.796875,3.1640625 0.65625,1.1484375 1.558593,1.8164063 1.746093,1.8164063 0.08203,0 0.1875,-0.035156 0.1875,-0.140625 z m 5.882813,-5.625 c 0,-0.6679688 0,-3.2460938 -2.355469,-3.2460938 -1.417969,0 -2.402344,0.8085938 -2.402344,2.1445313 0,1.3710937 0.984375,2.1210937 2.214844,2.1210937 0.339844,0 0.808594,-0.070312 1.195313,-0.7617187 v 0.2109375 c 0,0.7265625 -0.09375,1.3125 -0.246094,1.6523437 -0.164063,0.3984375 -0.597656,0.84375 -1.289063,0.84375 -0.175781,0 -0.527343,-0.0234375 -0.832031,-0.22265625 0.117188,-0.0234375 0.492188,-0.1640625 0.492188,-0.62109375 0,-0.3398437 -0.234375,-0.609375 -0.621094,-0.609375 -0.386719,0 -0.632813,0.2578125 -0.632813,0.6328125 0,0.6796875 0.515625,1.2421875 1.617188,1.2421875 1.300781,0 2.859375,-0.83203125 2.859375,-3.3867187 z m -1.359375,-0.984375 c 0,0.6328125 -0.257813,1.640625 -1.101563,1.640625 -0.949218,0 -0.949218,-0.7382813 -0.949218,-1.734375 0,-0.984375 0,-1.78125 1.066406,-1.78125 0.597656,0 0.820312,0.5273437 0.855469,0.6328125 0.128906,0.328125 0.128906,0.9023437 0.128906,1.2421875 z m 7.12207,1.0898437 c 0,-0.9726562 -0.01172,-3.3515625 -2.414062,-3.3515625 -2.402344,0 -2.414063,2.3789063 -2.414063,3.3515625 0,0.984375 0.01172,3.28125 2.414063,3.28125 2.390625,0 2.414062,-2.2851562 2.414062,-3.28125 z m -1.277344,-0.1171875 c 0,0.5507813 0,1.4648438 -0.07031,1.9804688 -0.140625,0.9257812 -0.773438,1.0664062 -1.066406,1.0664062 -0.363282,0 -0.914063,-0.22265625 -1.042969,-0.9492187 -0.09375,-0.515625 -0.09375,-1.5585938 -0.09375,-2.0976563 0,-0.7265625 0,-1.3710937 0.08203,-1.8867187 0.117188,-0.890625 0.820313,-0.984375 1.054688,-0.984375 0.363281,0 0.773437,0.1875 0.960937,0.6210937 0.175781,0.375 0.175781,1.4296875 0.175781,2.25 z m 7.004883,0.1171875 c 0,-0.9726562 -0.01172,-3.3515625 -2.414062,-3.3515625 -2.402344,0 -2.414063,2.3789063 -2.414063,3.3515625 0,0.984375 0.01172,3.28125 2.414063,3.28125 2.390625,0 2.414062,-2.2851562 2.414062,-3.28125 z m -1.277344,-0.1171875 c 0,0.5507813 0,1.4648438 -0.07031,1.9804688 -0.140625,0.9257812 -0.773438,1.0664062 -1.066406,1.0664062 -0.363282,0 -0.914063,-0.22265625 -1.042969,-0.9492187 -0.09375,-0.515625 -0.09375,-1.5585938 -0.09375,-2.0976563 0,-0.7265625 0,-1.3710937 0.08203,-1.8867187 0.117188,-0.890625 0.820313,-0.984375 1.054688,-0.984375 0.363281,0 0.773437,0.1875 0.960937,0.6210937 0.175781,0.375 0.175781,1.4296875 0.175781,2.25 z m 5.097657,0.796875 c 0,-1.2421875 -0.328125,-2.3320312 -0.796875,-3.1640625 -0.65625,-1.1484375 -1.558594,-1.8164062 -1.746094,-1.8164062 -0.08203,0 -0.1875,0.035156 -0.1875,0.140625 0,0.058594 0,0.070312 0.175781,0.234375 1.253906,1.2773437 1.59375,3.0351562 1.59375,4.6054687 0,1.95703125 -0.503906,3.5273438 -1.605469,4.6289063 -0.152343,0.1523437 -0.164062,0.1640625 -0.164062,0.2109375 0,0.1054687 0.105469,0.140625 0.1875,0.140625 0.164062,0 0.585937,-0.375 0.761719,-0.5390625 1.558593,-1.54687505 1.78125,-3.375 1.78125,-4.4414063 z m 0,0"
       style="fill:#000000;fill-opacity:1;fill-rule:nonzero;stroke:none"
       aria-label="NVLink(900)"
       transform="matrix(0,-1.3333333,1.3333333,0,180.60933,171.088)" />
    <path
       id="path10"
       d="m 3.022125,0.00141406 v -0.28125 H 2.7994688 c -0.7265625,0 -0.7382813,-0.10546875 -0.7382813,-0.421875 V -5.4126484 c 0,-0.328125 0.011719,-0.4335938 0.7382813,-0.4335938 H 3.022125 v -0.2695312 c -0.375,0.023437 -0.984375,0.023437 -1.359375,0.023437 -0.3867187,0 -0.99609375,0 -1.37109375,-0.023437 v 0.2695312 H 0.5143125 c 0.7265625,0 0.7382813,0.1054688 0.7382813,0.4335938 v 4.71093746 c 0,0.31640625 -0.011719,0.421875 -0.7382813,0.421875 H 0.29165625 v 0.28125 c 0.375,-0.0234375 0.98437505,-0.0234375 1.37109375,-0.0234375 0.375,0 0.984375,0 1.359375,0.0234375 z m 5.203125,0 v -0.28125 c -0.4570312,0 -0.6796875,0 -0.6796875,-0.26953125 V -2.2720234 c 0,-0.75 0,-1.0078125 -0.2578125,-1.3242188 -0.1992187,-0.2460937 -0.5507812,-0.3632812 -0.9960937,-0.3632812 -0.8320313,0 -1.21875,0.6210937 -1.3476563,0.8671875 v -0.8671875 l -1.3007812,0.09375 v 0.28125 c 0.609375,0 0.6914062,0.058594 0.6914062,0.5039062 v 2.39062501 c 0,0.41015625 -0.1054687,0.41015625 -0.6914062,0.41015625 v 0.28125 c 0.421875,-0.0234375 0.5859375,-0.0234375 1.0195312,-0.0234375 0.4335938,0 0.5507813,0 1.0195313,0.0234375 v -0.28125 c -0.5859375,0 -0.6914063,0 -0.6914063,-0.41015625 V -2.3188984 c 0,-0.9492188 0.6796875,-1.4179688 1.2421875,-1.4179688 0.5273438,0 0.6445313,0.4335938 0.6445313,0.9726563 v 2.07421871 c 0,0.41015625 -0.09375,0.41015625 -0.6914063,0.41015625 v 0.28125 c 0.421875,-0.0234375 0.5976563,-0.0234375 1.0195313,-0.0234375 0.4335937,0 0.5507812,0 1.0195312,0.0234375 z m 3.032227,-1.11328126 v -0.5039062 h -0.257813 v 0.4804687 c 0,0.65625001 -0.28125,0.98437501 -0.597656,0.98437501 -0.5976564,0 -0.5976564,-0.78515625 -0.5976564,-0.94921871 v -2.484375 h 1.3007814 v -0.28125 H 9.8043516 v -1.640625 H 9.5465391 c 0,0.75 -0.3164063,1.6757812 -1.1835938,1.6992187 v 0.2226563 h 0.7734375 v 2.4726562 c 0,1.00781251 0.7265625,1.20703126 1.2070312,1.20703126 0.597656,0 0.914063,-0.57421875 0.914063,-1.20703126 z m 3.855468,-2.296875 c 0,-0.28125 -0.269531,-0.5507812 -0.667968,-0.5507812 -0.539063,0 -0.914063,0.375 -1.125,0.9257812 v -0.9257812 l -1.277344,0.09375 v 0.28125 c 0.609375,0 0.691406,0.058594 0.691406,0.5039062 v 2.39062501 c 0,0.41015625 -0.105469,0.41015625 -0.691406,0.41015625 v 0.28125 c 0.46875,-0.0234375 0.585937,-0.0234375 1.042969,-0.0234375 l 1.148437,0.0234375 v -0.28125 h -0.1875 c -0.65625,0 -0.679687,-0.09375 -0.679687,-0.421875 V -2.0493672 c 0,-0.375 0.105468,-1.6875 1.125,-1.6875 v 0.011719 c -0.02344,0.011719 -0.164063,0.1171875 -0.164063,0.328125 0,0.2460937 0.1875,0.3984375 0.398438,0.3984375 0.1875,0 0.386718,-0.140625 0.386718,-0.4101565 z m 4.716797,2.61328126 V -1.2993672 h -0.246094 v 0.49218751 c 0,0.10546875 0,0.55078125 -0.328125,0.55078125 -0.316406,0 -0.316406,-0.43359375 -0.316406,-0.57421875 V -2.4009297 c 0,-0.515625 0,-0.8203125 -0.410156,-1.1835937 -0.328125,-0.2929688 -0.761719,-0.4335938 -1.207031,-0.4335938 -0.75,0 -1.382813,0.375 -1.382813,0.9492188 0,0.28125 0.1875,0.4335937 0.421875,0.4335937 0.246094,0 0.410156,-0.1757812 0.410156,-0.4101562 0,-0.3867188 -0.398437,-0.4335938 -0.398437,-0.4335938 0.246094,-0.234375 0.667969,-0.3164062 0.925781,-0.3164062 0.457031,0 0.972656,0.3398437 0.972656,1.1367187 v 0.2929688 c -0.480468,0.023437 -1.160156,0.058594 -1.757812,0.3515625 -0.644531,0.3164062 -0.84375,0.7734375 -0.84375,1.13671871 0,0.73828125 0.867187,0.97265625 1.476562,0.97265625 0.738282,0 1.078125,-0.4921875 1.207032,-0.73828125 0.04687,0.375 0.304687,0.703125 0.691406,0.703125 0.222656,0 0.785156,-0.140625 0.785156,-0.85546875 z M 18.271148,-1.2642109 c 0,0.86718746 -0.667968,1.13671871 -1.066406,1.13671871 -0.421875,0 -0.820312,-0.3046875 -0.820312,-0.75 0,-0.58593751 0.515625,-1.21875001 1.886718,-1.27734371 z m 4.268555,-0.3984375 v -0.5507813 h -2.460937 v 0.5507813 z m 7.083985,-4.1835938 v -0.2695312 c -0.480469,0.011719 -0.621094,0.023437 -1.054688,0.023437 -0.433594,0 -0.550781,-0.011719 -1.054687,-0.023437 v 0.2695312 c 0.914062,0 0.914062,0.4335938 0.914062,0.6796875 v 3.8203125 L 25.182281,-6.0103047 C 25.10025,-6.1157734 25.076813,-6.1157734 24.91275,-6.1157734 h -1.511719 v 0.2695312 h 0.246094 c 0.433594,0 0.667969,0.070312 0.667969,0.070312 v 4.82812501 c 0,0.24609375 0,0.66796875 -0.914063,0.66796875 v 0.28125 c 0.492188,-0.0234375 0.621094,-0.0234375 1.054688,-0.0234375 0.433594,0 0.574219,0 1.054687,0.0234375 v -0.28125 c -0.914062,0 -0.914062,-0.421875 -0.914062,-0.66796875 V -5.5767109 l 3.808594,5.47265621 c 0.07031,0.10546875 0.117187,0.10546875 0.164062,0.10546875 0.140625,0 0.140625,-0.0703125 0.140625,-0.24609375 V -5.1665547 c 0,-0.2460937 0,-0.6796875 0.914063,-0.6796875 z m 4.6875,3.9375 c 0,-1.171875 -0.925782,-2.109375 -2.027344,-2.109375 -1.148438,0 -2.050781,0.9609375 -2.050781,2.109375 0,1.12500001 0.9375,2.00390626 2.039062,2.00390626 1.136719,0 2.039063,-0.90234375 2.039063,-2.00390626 z m -0.773438,-0.082031 c 0,0.328125 0,0.8554687 -0.222656,1.25390621 -0.246094,0.41015625 -0.65625,0.5859375 -1.03125,0.5859375 -0.457031,0 -0.832031,-0.22265625 -1.03125,-0.57421875 C 31.018219,-1.1001484 31.0065,-1.5806172 31.0065,-1.9907734 c 0,-0.328125 0,-0.84375 0.222656,-1.2070313 0.269532,-0.4570312 0.714844,-0.5976562 1.042969,-0.5976562 0.503906,0 0.878906,0.2929687 1.054688,0.5976562 0.210937,0.375 0.210937,0.8320313 0.210937,1.2070315 z m 6.146484,1.99218746 v -0.28125 c -0.609375,0 -0.691406,-0.0585938 -0.691406,-0.50390625 V -6.2212422 l -1.324219,0.1054688 v 0.2695312 c 0.609375,0 0.691407,0.070312 0.691407,0.5039063 v 1.9101562 c -0.04687,-0.058594 -0.445313,-0.5273437 -1.148438,-0.5273437 -1.101562,0 -2.0625,0.8789062 -2.0625,2.0390625 0,1.11328121 0.902344,2.01562496 1.96875,2.01562496 0.644531,0 1.054688,-0.375 1.21875,-0.57421875 V 0.09516406 Z M 38.336578,-1.0767109 c 0,0.16406246 0,0.18749996 -0.140625,0.37499996 -0.28125,0.41015625 -0.691406,0.57421875 -1.042969,0.57421875 -0.386718,0 -0.75,-0.2109375 -0.984375,-0.5859375 -0.234375,-0.38671871 -0.246093,-0.91406251 -0.246093,-1.20703121 0,-0.421875 0.04687,-0.890625 0.28125,-1.2539063 0.199218,-0.28125 0.5625,-0.5625 1.042968,-0.5625 0.375,0 0.738282,0.1875 0.972657,0.5273438 0.117187,0.140625 0.117187,0.1523437 0.117187,0.328125 z m 5.458008,0.011719 c 0,-0.058594 -0.04687,-0.1171875 -0.128906,-0.1171875 -0.09375,0 -0.117188,0.058594 -0.128907,0.09375 -0.304687,0.91406251 -1.101562,0.93750001 -1.230468,0.93750001 -0.433594,0 -0.796875,-0.24609375 -1.007813,-0.55078125 C 41.005523,-1.1353047 40.993805,-1.6743672 40.993805,-2.0493672 h 2.554687 c 0.199219,0 0.246094,0 0.246094,-0.1875 0,-0.9257812 -0.503906,-1.78125 -1.652344,-1.78125 -1.078125,0 -1.921875,0.9375 -1.921875,2.0507813 0,1.17187496 0.949219,2.06249996 2.039063,2.06249996 1.089843,0 1.535156,-0.94921875 1.535156,-1.16015596 z m -0.609375,-1.2070312 h -2.179688 c 0.08203,-1.3710938 0.878907,-1.5234375 1.136719,-1.5234375 0.492188,0 1.03125,0.3867187 1.042969,1.5234375 z m 0,0"
       style="fill:#000000;fill-opacity:1;fill-rule:nonzero;stroke:none"
       aria-label="Intra-Node"
       transform="matrix(1.3333333,0,0,1.3333333,147.908,206.69733)" />
    <path
       id="path11"
       d="m 129.05502,19.14417 h 28.34679 v 90.01955 h -28.34679 z"
       style="fill:#66a1bf;fill-opacity:1;fill-rule:nonzero;stroke:#006395;stroke-width:0.74721;stroke-linecap:butt;stroke-linejoin:miter;stroke-miterlimit:10;stroke-dasharray:none;stroke-opacity:1"
       transform="matrix(1.3333333,0,0,-1.3333333,62.898667,209.948)" />
    <path
       id="path12"
       d="m 4.0184609,-0.001375 v -0.46875 H 2.8817422 v -5.8945312 h 1.1367187 v -0.46875 c -0.4101562,0.023437 -1.3945312,0.023437 -1.8515625,0.023437 -0.4570312,0 -1.42968746,0 -1.83984371,-0.023437 v 0.46875 H 1.4637734 V -0.470125 H 0.32705469 v 0.46875 c 0.41015625,-0.03515625 1.38281251,-0.03515625 1.83984371,-0.03515625 0.4570313,0 1.4414063,0 1.8515625,0.03515625 z m 7.8251951,-1.8515625 c 0,-0.9609375 -0.855468,-1.6289062 -2.0390622,-1.7109375 1.0781252,-0.1875 1.7226562,-0.7851562 1.7226562,-1.5585937 0,-0.9140625 -0.867187,-1.7109375 -2.4726562,-1.7109375 H 4.730375 v 0.46875 H 5.8085 V -0.470125 H 4.730375 v 0.46875 h 4.6289063 c 1.6523437,0 2.4843747,-0.87890625 2.4843747,-1.8515625 z m -1.734375,-3.2695312 c 0,0.7734375 -0.4804685,1.3828125 -1.441406,1.3828125 H 7.1092813 v -2.625 h 1.8164062 c 1.0078125,0 1.1835935,0.7851562 1.1835935,1.2421875 z m 0.269532,3.2578125 c 0,0.1171875 0,1.3945312 -1.429688,1.3945312 H 7.1092813 v -2.90625 H 9.042875 c 0.1992188,0 0.6679688,0 1.007813,0.421875 0.328125,0.421875 0.328125,0.984375 0.328125,1.0898438 z m 7.201171,-5.296875 c 0,-0.1992188 -0.164062,-0.3164063 -0.304687,-0.3164063 -0.210938,0 -0.257813,0.140625 -0.316406,0.28125 l -3.773438,9.1875 c -0.05859,0.1171875 -0.05859,0.1875 -0.05859,0.1875 0,0.1992188 0.164063,0.3164063 0.304688,0.3164063 0.210937,0 0.257812,-0.140625 0.316406,-0.28125 l 3.773438,-9.1875 c 0.05859,-0.1171875 0.05859,-0.1875 0.05859,-0.1875 z m 7.825196,2.2734375 c 0,-1.1015625 -0.984375,-1.9453125 -2.636719,-1.9453125 h -4.160156 v 0.46875 h 1.078125 v 5.8945312 h -1.078125 v 0.46875 c 0.375,-0.03515625 1.359375,-0.03515625 1.78125,-0.03515625 0.433593,0 1.40625,0 1.78125,0.03515625 v -0.46875 h -1.066407 v -2.5429687 h 1.757813 c 1.382812,0 2.542969,-0.7148438 2.542969,-1.875 z m -1.523438,0 c 0,0.703125 0,1.4648437 -1.511719,1.4648437 h -1.324218 v -2.9414062 h 1.335937 c 1.5,0 1.5,0.75 1.5,1.4765625 z m 9.799805,2.625 c 0,-0.1992188 -0.07031,-0.2109375 -0.234375,-0.2109375 -0.128906,0 -0.222656,0 -0.234375,0.1757812 -0.07031,1.3359375 -1.277344,1.93359375 -2.273438,1.93359375 -0.785156,0 -1.617187,-0.234375 -2.132812,-0.84374995 -0.46875,-0.5625 -0.597656,-1.3125 -0.597656,-2.2148438 0,-0.5507812 0.03516,-1.6289062 0.667968,-2.2851562 0.644532,-0.65625 1.511719,-0.7734375 2.027344,-0.7734375 1.078125,0 2.027344,0.7617187 2.238281,2.0273437 0.03516,0.1875 0.04687,0.2109375 0.269532,0.2109375 0.257812,0 0.269531,-0.023437 0.269531,-0.28125 v -2.1445312 c 0,-0.1875 0,-0.2695313 -0.175781,-0.2695313 -0.09375,0 -0.117188,0.011719 -0.1875,0.082031 l -0.65625,0.5859375 c -0.621094,-0.4921875 -1.289063,-0.6679688 -1.96875,-0.6679688 -2.484375,0 -4.007813,1.4765625 -4.007813,3.515625 0,2.0507813 1.523438,3.52734375 4.007813,3.52734375 1.863281,0 2.988281,-1.21874995 2.988281,-2.36718715 z m 4.669922,2.2617187 v -0.46875 H 37.21475 v -5.8945312 h 1.136719 v -0.46875 c -0.410156,0.023437 -1.394531,0.023437 -1.851563,0.023437 -0.457031,0 -1.429687,0 -1.839843,-0.023437 v 0.46875 h 1.136718 v 5.8945312 h -1.136718 v 0.46875 c 0.410156,-0.03515625 1.382812,-0.03515625 1.839843,-0.03515625 0.457032,0 1.441407,0 1.851563,0.03515625 z m 5.24414,-1.1601562 c 0,-0.1875 -0.1875,-0.1875 -0.234375,-0.1875 -0.175781,0 -0.199218,0.046875 -0.257812,0.2109375 -0.210938,0.4804687 -0.773438,0.79687495 -1.417969,0.79687495 -1.40625,0 -1.417969,-1.32421875 -1.417969,-1.82812495 h 3.011719 c 0.210938,0 0.316406,0 0.316406,-0.2695313 0,-0.3164062 -0.05859,-1.0429687 -0.5625,-1.5351562 -0.363281,-0.3632813 -0.890625,-0.5390625 -1.582031,-0.5390625 -1.59375,0 -2.460937,1.0195312 -2.460937,2.2734375 0,1.33593745 0.996093,2.29687495 2.601562,2.29687495 1.570313,0 2.003906,-1.0546875 2.003906,-1.21874995 z m -0.949218,-1.3359375 h -2.378907 c 0.02344,-0.3984375 0.03516,-0.8085938 0.234375,-1.1367188 0.269532,-0.3984375 0.667969,-0.515625 0.949219,-0.515625 1.171875,0 1.183594,1.3007813 1.195313,1.6523438 z m 8.90332,4.8398437 c 0,-0.046875 -0.03516,-0.1054687 -0.03516,-0.1054687 C 51.233305,1.967375 50.577055,1.358 50.166898,0.092375 49.897367,-0.7045 49.78018,-1.6185625 49.78018,-2.4974687 c 0,-1.9570313 0.515625,-3.515625 1.605468,-4.6289063 0.152344,-0.1523437 0.164063,-0.1523437 0.164063,-0.2109375 0,-0.1054687 -0.105469,-0.140625 -0.1875,-0.140625 -0.164063,0 -0.585938,0.375 -0.761719,0.5390625 -1.558594,1.546875 -1.78125,3.3867188 -1.78125,4.4414063 0,1.2421875 0.328125,2.3320312 0.796875,3.16406245 C 50.272367,1.8150313 51.174711,2.483 51.362211,2.483 c 0.08203,0 0.1875,-0.035156 0.1875,-0.140625 z m 5.789062,-4.3476562 c 0,-1.1484375 -0.785156,-2.0742188 -2.25,-2.0742188 -0.292968,0 -0.820312,0.035156 -1.289062,0.3515625 v -1.3125 c 0.28125,0.046875 0.386719,0.070312 0.726562,0.070312 1.453125,0 2.367188,-1.125 2.367188,-1.3710937 0,-0.070312 -0.01172,-0.1875 -0.140625,-0.1875 -0.02344,0 -0.03516,0 -0.140625,0.046875 -0.574219,0.2109375 -1.101563,0.2695312 -1.523438,0.2695312 -0.761718,0 -1.289062,-0.1875 -1.546875,-0.2695312 -0.09375,-0.035156 -0.105468,-0.046875 -0.128906,-0.046875 -0.140625,0 -0.140625,0.1171875 -0.140625,0.2695312 v 2.90625 c 0,0.1875 0,0.3164063 0.222656,0.3164063 0.128907,0 0.140625,-0.046875 0.210938,-0.1171875 0.386719,-0.46875 0.925781,-0.5625 1.335937,-0.5625 0.890625,0 0.890625,0.8789062 0.890625,1.6757812 0,0.7265625 0,1.72265625 -1.195312,1.72265625 -0.246094,0 -0.867188,-0.046875 -1.289063,-0.62109375 0.363282,-0.0234375 0.644532,-0.2578125 0.644532,-0.6679687 0,-0.5273438 -0.421875,-0.6796875 -0.667969,-0.6796875 -0.140625,0 -0.667969,0.09375 -0.667969,0.703125 0,0.84374995 0.785156,1.68749995 2.015625,1.68749995 1.59375,0 2.566406,-0.890625 2.566406,-2.10937445 z m 5.856446,-1.171875 c 0,-0.9726563 -0.01172,-3.3515625 -2.414063,-3.3515625 -2.402343,0 -2.414062,2.3789062 -2.414062,3.3515625 0,0.984375 0.01172,3.28124995 2.414062,3.28124995 2.390625,0 2.414063,-2.28515625 2.414063,-3.28124995 z m -1.277344,-0.1171875 c 0,0.5507812 0,1.4648437 -0.07031,1.9804687 -0.140625,0.92578125 -0.773438,1.06640625 -1.066407,1.06640625 -0.363281,0 -0.914062,-0.22265625 -1.042968,-0.94921875 -0.09375,-0.515625 -0.09375,-1.5585937 -0.09375,-2.0976562 0,-0.7265625 0,-1.3710938 0.08203,-1.8867188 0.117187,-0.890625 0.820312,-0.984375 1.054687,-0.984375 0.363282,0 0.773438,0.1875 0.960938,0.6210938 0.175781,0.375 0.175781,1.4296875 0.175781,2.25 z M 66.816313,-1.73575 V -2.6966875 H 63.781156 V -1.73575 Z m 5.888671,-0.3046875 c 0,-1.3945312 -1.007812,-2.1210937 -2.214843,-2.1210937 -0.210938,0 -0.773438,0 -1.195313,0.75 v -0.1875 c 0,-1.1367188 0.210938,-1.5585938 0.28125,-1.7109375 0.246094,-0.46875 0.785156,-0.8320313 1.382813,-0.8320313 0.1875,0 0.527343,0.035156 0.75,0.2578125 -0.351563,0.058594 -0.539063,0.328125 -0.539063,0.6210938 0,0.3398437 0.234375,0.6210937 0.621094,0.6210937 0.386719,0 0.621094,-0.2578125 0.621094,-0.6445312 0,-0.609375 -0.410157,-1.2421875 -1.464844,-1.2421875 -1.359375,0 -3,0.8554687 -3,3.375 0,0.7851562 0.08203,1.5820312 0.492187,2.2617187 0.46875,0.76171875 1.230469,0.99609375 1.921875,0.99609375 1.394532,0 2.34375,-0.80859375 2.34375,-2.14453125 z m -1.347656,-0.023437 c 0,1.0078125 0,1.74609375 -1.007812,1.74609375 -0.527344,0 -0.785157,-0.38671875 -0.867188,-0.55078125 -0.164062,-0.3164062 -0.164062,-1.0429687 -0.164062,-1.2304687 0,-1.2421875 0.539062,-1.7109375 1.089843,-1.7109375 0.949219,0 0.949219,0.75 0.949219,1.7460937 z m 7.239258,2.0625 v -0.46875 H 77.62393 v -1.0898437 h 0.972656 v -0.46875 H 77.62393 V -6.212312 c 0,-0.2695312 -0.01172,-0.328125 -0.292969,-0.328125 -0.210938,0 -0.222656,0.011719 -0.339844,0.1640625 l -3.480469,4.3476563 v 0.46875 h 2.871094 v 1.0898437 h -1.113281 v 0.46875 c 0.375,-0.03515625 1.277344,-0.03515625 1.710937,-0.03515625 0.398438,0 1.265625,0 1.617188,0.03515625 z M 76.487211,-2.0287187 H 74.026273 L 76.487211,-5.11075 Z m 5.800781,-0.46875 c 0,-1.2421875 -0.328125,-2.3320313 -0.796875,-3.1640625 -0.65625,-1.1484375 -1.558594,-1.8164063 -1.746094,-1.8164063 -0.08203,0 -0.1875,0.035156 -0.1875,0.140625 0,0.058594 0,0.070312 0.175782,0.234375 1.253906,1.2773438 1.59375,3.0351563 1.59375,4.6054688 0,1.9570312 -0.503907,3.5273437 -1.605469,4.6289062 -0.152344,0.1523438 -0.164063,0.1640625 -0.164063,0.2109375 0,0.1054688 0.105469,0.140625 0.1875,0.140625 0.164063,0 0.585938,-0.375 0.761719,-0.5390625 1.558594,-1.546875 1.78125,-3.375 1.78125,-4.4414062 z m 0,0"
       style="fill:#000000;fill-opacity:1;fill-rule:nonzero;stroke:none"
       aria-label="IB/PCIe(50-64)"
       transform="matrix(0,-1.3333333,1.3333333,0,257.18933,179.99467)" />
    <path
       id="path13"
       d="M 3.0243906,-1.953125e-4 V -0.28144531 H 2.8017344 c -0.7265625,0 -0.7382813,-0.10546875 -0.7382813,-0.421875 V -5.4142578 c 0,-0.328125 0.011719,-0.4335938 0.7382813,-0.4335938 h 0.2226562 v -0.2695312 c -0.375,0.023437 -0.984375,0.023437 -1.359375,0.023437 -0.3867187,0 -0.99609372,0 -1.37109372,-0.023437 v 0.2695312 h 0.22265625 c 0.72656247,0 0.73828127,0.1054688 0.73828127,0.4335938 v 4.71093749 c 0,0.31640625 -0.011719,0.421875 -0.73828127,0.421875 H 0.29392188 V -1.953125e-4 C 0.66892188,-0.02363281 1.2782969,-0.02363281 1.6650156,-0.02363281 c 0.375,0 0.984375,0 1.359375,0.0234374975 z m 5.2001953,0 V -0.28144531 c -0.4570312,0 -0.6796875,0 -0.6796875,-0.26953125 V -2.2736328 c 0,-0.75 0,-1.0078125 -0.2578125,-1.3242188 -0.1992187,-0.2460937 -0.5507812,-0.3632812 -0.9960937,-0.3632812 -0.8320313,0 -1.21875,0.6210937 -1.3476563,0.8671875 v -0.8671875 l -1.3007812,0.09375 v 0.28125 c 0.609375,0 0.6914062,0.058594 0.6914062,0.5039062 v 2.39062504 c 0,0.41015625 -0.1054687,0.41015625 -0.6914062,0.41015625 V -1.953125e-4 C 4.0644297,-0.02363281 4.2284922,-0.02363281 4.6620859,-0.02363281 c 0.4335938,0 0.5507813,0 1.0195313,0.0234374975 V -0.28144531 c -0.5859375,0 -0.6914063,0 -0.6914063,-0.41015625 V -2.3205078 c 0,-0.9492188 0.6796875,-1.4179688 1.2421875,-1.4179688 0.5273438,0 0.6445313,0.4335938 0.6445313,0.9726563 v 2.07421874 c 0,0.41015625 -0.09375,0.41015625 -0.6914063,0.41015625 V -1.953125e-4 C 6.6073984,-0.02363281 6.7831797,-0.02363281 7.2050547,-0.02363281 c 0.4335937,0 0.5507812,0 1.0195312,0.0234374975 z M 11.256813,-1.1134766 V -1.6173828 H 10.999 v 0.4804687 c 0,0.65625004 -0.28125,0.98437504 -0.597656,0.98437504 -0.5976565,0 -0.5976565,-0.78515625 -0.5976565,-0.94921874 v -2.484375 h 1.3007815 v -0.28125 H 9.8036875 v -1.640625 H 9.545875 c 0,0.75 -0.3164062,1.6757812 -1.1835937,1.6992187 v 0.2226563 h 0.7734375 v 2.4726562 c 0,1.00781254 0.7265625,1.20703129 1.2070312,1.20703129 0.597656,0 0.914063,-0.57421875 0.914063,-1.20703129 z m 4.347656,0.046875 c 0,-0.058594 -0.04687,-0.1171875 -0.128906,-0.1171875 -0.09375,0 -0.117188,0.058594 -0.128907,0.09375 -0.304687,0.91406254 -1.101562,0.93750004 -1.230468,0.93750004 -0.433594,0 -0.796875,-0.24609375 -1.007813,-0.55078125 C 12.815406,-1.1369141 12.803688,-1.6759766 12.803688,-2.0509766 h 2.554687 c 0.199219,0 0.246094,0 0.246094,-0.1875 0,-0.9257812 -0.503906,-1.78125 -1.652344,-1.78125 -1.078125,0 -1.921875,0.9375 -1.921875,2.0507813 0,1.17187499 0.949219,2.06249999 2.039063,2.06249999 1.089843,0 1.535156,-0.94921875 1.535156,-1.16015629 z m -0.609375,-1.2070312 h -2.179688 c 0.08203,-1.3710938 0.878907,-1.5234375 1.136719,-1.5234375 0.492188,0 1.03125,0.3867187 1.042969,1.5234375 z m 4.21582,-1.1367188 c 0,-0.28125 -0.269531,-0.5507812 -0.667969,-0.5507812 -0.539062,0 -0.914062,0.375 -1.125,0.9257812 v -0.9257812 l -1.277343,0.09375 v 0.28125 c 0.609375,0 0.691406,0.058594 0.691406,0.5039062 v 2.39062504 c 0,0.41015625 -0.105469,0.41015625 -0.691406,0.41015625 V -1.953125e-4 C 16.609352,-0.02363281 16.726539,-0.02363281 17.18357,-0.02363281 l 1.148438,0.0234374975 V -0.28144531 h -0.1875 c -0.65625,0 -0.679688,-0.09375 -0.679688,-0.421875 V -2.0509766 c 0,-0.375 0.105469,-1.6875 1.125,-1.6875 v 0.011719 c -0.02344,0.011719 -0.164062,0.1171875 -0.164062,0.328125 0,0.2460937 0.1875,0.3984375 0.398437,0.3984375 0.1875,0 0.386719,-0.140625 0.386719,-0.4101565 z m 2.818359,1.7460938 v -0.5507813 h -2.460937 v 0.5507813 z m 7.083985,-4.1835938 v -0.2695312 c -0.480469,0.011719 -0.621094,0.023437 -1.054688,0.023437 -0.433593,0 -0.550781,-0.011719 -1.054687,-0.023437 v 0.2695312 c 0.914062,0 0.914062,0.4335938 0.914062,0.6796875 v 3.8203125 L 24.671852,-6.0119141 C 24.58982,-6.1173828 24.566383,-6.1173828 24.40232,-6.1173828 h -1.511718 v 0.2695312 h 0.246093 c 0.433594,0 0.667969,0.070312 0.667969,0.070312 v 4.82812504 c 0,0.24609375 0,0.66796875 -0.914062,0.66796875 V -1.953125e-4 C 23.382789,-0.02363281 23.511695,-0.02363281 23.945289,-0.02363281 c 0.433594,0 0.574219,0 1.054688,0.0234374975 V -0.28144531 c -0.914063,0 -0.914063,-0.421875 -0.914063,-0.66796875 V -5.5783203 l 3.808594,5.47265624 c 0.07031,0.1054687475 0.117187,0.1054687475 0.164062,0.1054687475 0.140625,0 0.140625,-0.0703124975 0.140625,-0.2460937475 V -5.1681641 c 0,-0.2460937 0,-0.6796875 0.914063,-0.6796875 z m 4.6875,3.9375 c 0,-1.171875 -0.925781,-2.109375 -2.027344,-2.109375 -1.148437,0 -2.050781,0.9609375 -2.050781,2.109375 0,1.12500004 0.9375,2.00390629 2.039062,2.00390629 1.136719,0 2.039063,-0.90234375 2.039063,-2.00390629 z m -0.773438,-0.082031 c 0,0.328125 0,0.8554687 -0.222656,1.25390624 -0.246094,0.41015625 -0.65625,0.5859375 -1.03125,0.5859375 -0.457031,0 -0.832031,-0.22265625 -1.03125,-0.57421875 C 30.507789,-1.1017578 30.49607,-1.5822266 30.49607,-1.9923828 c 0,-0.328125 0,-0.84375 0.222657,-1.2070313 0.269531,-0.4570312 0.714843,-0.5976562 1.042968,-0.5976562 0.503907,0 0.878907,0.2929687 1.054688,0.5976562 0.210937,0.375 0.210937,0.8320313 0.210937,1.2070315 z m 6.143555,1.9921874875 V -0.28144531 c -0.609375,0 -0.691406,-0.0585938 -0.691406,-0.50390625 V -6.2228516 l -1.324219,0.1054688 v 0.2695312 c 0.609375,0 0.691406,0.070312 0.691406,0.5039063 v 1.9101562 c -0.04687,-0.058594 -0.445312,-0.5273437 -1.148437,-0.5273437 -1.101563,0 -2.0625,0.8789062 -2.0625,2.0390625 0,1.11328124 0.902344,2.01562499 1.96875,2.01562499 0.644531,0 1.054687,-0.375 1.21875,-0.57421875 V 0.09355469 Z M 37.823219,-1.0783203 c 0,0.16406249 0,0.18749999 -0.140625,0.37499999 -0.28125,0.41015625 -0.691406,0.57421875 -1.042969,0.57421875 -0.386719,0 -0.75,-0.2109375 -0.984375,-0.5859375 -0.234375,-0.38671874 -0.246094,-0.91406254 -0.246094,-1.20703124 0,-0.421875 0.04687,-0.890625 0.28125,-1.2539063 0.199219,-0.28125 0.5625,-0.5625 1.042969,-0.5625 0.375,0 0.738281,0.1875 0.972656,0.5273438 0.117188,0.140625 0.117188,0.1523437 0.117188,0.328125 z m 5.460937,0.011719 c 0,-0.058594 -0.04687,-0.1171875 -0.128906,-0.1171875 -0.09375,0 -0.117187,0.058594 -0.128906,0.09375 -0.304688,0.91406254 -1.101563,0.93750004 -1.230469,0.93750004 -0.433594,0 -0.796875,-0.24609375 -1.007812,-0.55078125 C 40.495094,-1.1369141 40.483375,-1.6759766 40.483375,-2.0509766 h 2.554688 c 0.199218,0 0.246093,0 0.246093,-0.1875 0,-0.9257812 -0.503906,-1.78125 -1.652343,-1.78125 -1.078125,0 -1.921875,0.9375 -1.921875,2.0507813 0,1.17187499 0.949218,2.06249999 2.039062,2.06249999 1.089844,0 1.535156,-0.94921875 1.535156,-1.16015599 z M 42.674781,-2.2736325 H 40.495094 C 40.577124,-3.6447263 41.374,-3.79707 41.631813,-3.79707 c 0.492187,0 1.03125,0.3867187 1.042968,1.5234375 z m 0,0"
       style="fill:#000000;fill-opacity:1;fill-rule:nonzero;stroke:none"
       aria-label="Inter-Node"
       transform="matrix(1.3333333,0,0,1.3333333,224.83467,200.56667)" />
    <path
       id="path14"
       d="M 44.67587,112.49622 68.38933,100.63943"
       style="fill:none;stroke:#d9534f;stroke-width:1.19553;stroke-linecap:butt;stroke-linejoin:miter;stroke-miterlimit:10;stroke-dasharray:none;stroke-opacity:1"
       transform="matrix(1.3333333,0,0,-1.3333333,62.898667,209.948)" />
    <path
       id="path15"
       d="M -3.02867,3.83081 C -2.47534,1.53229 -1.24231,0.44691 0,0 -1.24231,-0.44691 -2.47534,-1.53229 -3.02867,-3.83081"
       style="fill:none;stroke:#d9534f;stroke-width:1.19553;stroke-linecap:round;stroke-linejoin:round;stroke-miterlimit:10;stroke-dasharray:none;stroke-opacity:1"
       transform="matrix(1.19248,0.59622667,0.59622667,-1.19248,154.79724,76.118493)" />
    <path
       id="path16"
       d="m 4.3299079,-1.4851016 0.00524,-0.2777836 -0.9119691,0.010474 -0.0052,-4.0724136 c 1.7e-6,-0.183442 0.010485,-0.2410951 -0.1519926,-0.251579 -0.104824,-9e-7 -0.1205478,0.020964 -0.2148905,0.1467517 l -2.78835656,4.1719715 -0.005244,0.2777836 2.44764116,-0.00522 0.00523,0.77045666 c -0.00524,0.33019565 -0.020969,0.42977833 -0.7023248,0.42977224 l -0.1834421,-1.64e-6 -0.00524,0.27778363 c 0.56605,-0.02095974 1.1792706,-0.02619546 1.2474062,-0.02095365 0.041929,0.0052416 0.6970797,0.0052474 1.2578881,0.02621726 l 0.00524,-0.27778363 -0.1991656,-0.005243 C 3.4650988,-0.27963297 3.4179289,-0.37397502 3.423173,-0.70417066 L 3.4179387,-1.4746273 Z M 2.7680322,-1.7524168 0.55100402,-1.7576779 2.7733031,-5.0700973 Z m 0,0"
       style="fill:#000000;fill-opacity:1;fill-rule:nonzero;stroke:none"
       aria-label="4"
       transform="matrix(1.19248,0.59622667,-0.59622667,1.19248,123.1934,51.88466)" />
    <path
       id="path17"
       d="m 5.6723153,-4.0676504 c 0.1048249,-0.1048231 0.1310314,-0.1572348 0.1310319,-0.2096469 0.00524,-0.1205475 -0.089099,-0.2044076 -0.1939227,-0.2044086 -0.062894,0.00524 -0.078618,0.026205 -0.1886843,0.120546 l -1.8449194,1.8396452 -1.928745,-1.918297 c -0.036688,-0.047171 -0.0891,-0.047172 -0.099582,-0.041931 -0.104824,-9e-7 -0.1886841,0.09434 -0.1834439,0.2096464 0.00524,0.062894 0.026205,0.1048243 0.1310281,0.2096493 l 1.8081984,1.8082307 -1.8029896,1.81868074 c -0.1310312,0.13102887 -0.1362728,0.17295843 -0.1362733,0.22537045 -9e-7,0.10482403 0.078616,0.18344275 0.1834404,0.18344369 0.010482,-0.0052411 0.062894,-0.0052406 0.1048243,-0.02620507 L 3.5758163,-1.971189 5.4521497,-0.10530452 c 0.052412,0.05241249 0.078617,0.07861873 0.1572354,0.07861943 0.104824,9.4e-7 0.1991663,-0.07337504 0.1939261,-0.18868152 -0.00524,-0.0366884 -0.020964,-0.0943418 -0.041929,-0.1100656 C 5.7404178,-0.36736151 4.1523478,-1.9449774 3.8378783,-2.2332463 Z m 0,0"
       style="fill:#000000;fill-opacity:1;fill-rule:nonzero;stroke:none"
       aria-label="×"
       transform="matrix(1.19248,0.59622667,-0.59622667,1.19248,128.68954,54.632669)" />
    <path
       id="path18"
       d="M 6.5131366,-3.0088285 C 6.5131519,-4.712219 5.2605173,-6.1168722 3.6881568,-6.1168863 l -3.32816291,-2.98e-5 0.005239,0.2725426 0.1939245,-0.00524 c 0.69707971,0.00525 0.71280231,0.1153128 0.71804061,0.4402674 l -0.00528,4.70659885 c -0.00524,0.33019564 -0.010486,0.42453722 -0.7075659,0.41928979 l -0.1939245,0.005239 -0.005244,0.27778363523 3.3281629,2.977037e-5 C 5.2499802,-0.00563137 6.5183627,-1.3211616 6.5131366,-3.0088285 Z m -0.8910042,-8e-6 c -3.3e-6,0.3668841 -1.17e-5,1.3103004 -0.4874491,1.933999 -0.461231,0.59749284 -1.1111418,0.79141148 -1.6719504,0.79664766 l -0.9591398,-0.00525 c -0.4297786,0.005237 -0.4507427,-0.0628984 -0.4454988,-0.36688809 l -0.0052,-4.83238777 c -0.00524,-0.2987486 0.015727,-0.3616428 0.4455054,-0.3668801 l 0.9591398,0.00525 c 0.8647983,7.8e-6 1.4098791,0.4612384 1.640489,0.7914361 0.3983268,0.5084001 0.5241099,1.153069 0.5241019,2.0440733 z m 4.7550836,-0.4022197 c 3e-6,-0.2882661 -0.272538,-0.5450874 -0.6656277,-0.5450909 -0.5398437,-0.00525 -0.9172135,0.3668759 -1.1268665,0.9172002 l 8.2e-6,-0.9172103 -1.2683715,0.083848 -0.00524,0.2777836 c 0.6079793,0.010488 0.6918379,0.073383 0.691834,0.5188852 l -0.010504,2.38998777 c 0.010479,0.41405501 -0.094345,0.41405407 -0.6761186,0.40356646 l -0.00524,0.27778364 C 7.7723158,-0.02526322 7.8928634,-0.02002094 8.348848,-0.02525806 l 1.1530641,0.0262163235 0.00524,-0.2777836335 -0.183442,-1.64e-6 c -0.6656326,0.005235 -0.6918377,-0.099589 -0.6865936,-0.42978466 L 8.6318865,-2.0536005 C 8.6423725,-2.4257257 8.747208,-3.7360251 9.7692423,-3.736016 l -0.00524,0.015724 c -0.026206,-2e-7 -0.1677194,0.1100638 -0.1677213,0.3197118 -0.010484,0.2410952 0.1781972,0.4088154 0.3878453,0.4088172 0.1939247,-0.00524 0.3930917,-0.1572325 0.3930937,-0.4192926 z m 4.601762,1.4924733 c 0.0053,-1.1687879 -0.932915,-2.1017301 -2.033568,-2.10174 -1.142582,-0.00525 -2.033595,0.9643629 -2.038846,2.1069448 -10e-6,1.1268583 0.927675,2.01262965 2.028327,2.0126395 1.137341,-0.005231 2.044077,-0.91719198 2.044087,-2.0178443 z m -0.770456,-0.073384 c 0.0052,0.3249545 -0.0052,0.8543158 -0.225383,1.25264514 -0.241099,0.40881156 -0.655156,0.5765263 -1.032522,0.58176413 -0.455985,0.005237 -0.833349,-0.22537912 -1.027271,-0.56081775 -0.230609,-0.38260982 -0.25157,-0.87004172 -0.246325,-1.27885532 0.0052,-0.3301957 8e-6,-0.8385923 0.225383,-1.2002332 0.267305,-0.4612233 0.707567,-0.6027318 1.037763,-0.5974877 0.508397,-0.00524 0.880519,0.2935152 1.058717,0.5975065 0.209645,0.366886 0.2044,0.8281116 0.209638,1.2054782 z m 5.84787,0.047223 c 10e-6,-1.1268583 -0.875263,-2.0126292 -1.933986,-2.0073975 -0.487431,-0.00525 -0.927694,0.188675 -1.268375,0.5555561 l -0.0052,-0.5608086 -1.320783,0.083847 -0.0052,0.2777836 c 0.628944,5.6e-6 0.691838,0.073383 0.681352,0.4455082 l 0.0052,4.2034437 c -4e-6,0.4192961 -0.104828,0.4192951 -0.686601,0.4088075 l -2e-6,0.2620601 c 0.414055,-0.010479 0.587014,-0.00524 1.016793,-0.010473 0.43502,0.00525 0.539844,0.00525 1.016793,0.015733 l 2e-6,-0.2620601 c -0.587014,0.00524 -0.691839,0.00523 -0.691835,-0.4140611 l 0.0053,-1.48325995 c 0.235852,0.23585617 0.534598,0.51888373 1.126853,0.52413022 1.074447,9.62e-6 2.0598,-0.85953861 2.059811,-2.03880897 z m -0.770457,0.00523 c -9e-6,1.02203432 -0.613237,1.81345026 -1.336522,1.80820259 -0.403573,0.005238 -0.744249,-0.23061952 -0.974859,-0.53461127 -0.104823,-0.18344299 -0.110064,-0.19392544 -0.110062,-0.37736752 l 1.8e-5,-1.9654505 c 0.314476,-0.5241174 0.812392,-0.707555 1.189759,-0.7127928 0.691838,-0.00523 1.231675,0.8123973 1.231666,1.7820195 z m 0,0"
       style="fill:#000000;fill-opacity:1;fill-rule:nonzero;stroke:none"
       aria-label="Drop"
       transform="matrix(1.19248,0.59622667,-0.59622667,1.19248,140.90411,60.739818)" />
    <path
       id="path19"
       d="M 101.43983,83.38258 126.9131,45.17271"
       style="fill:none;stroke:#d9534f;stroke-width:1.19553;stroke-linecap:butt;stroke-linejoin:miter;stroke-miterlimit:10;stroke-dasharray:none;stroke-opacity:1"
       transform="matrix(1.3333333,0,0,-1.3333333,62.898667,209.948)" />
    <path
       id="path20"
       d="M -3.02867,3.83081 C -2.47534,1.53229 -1.24231,0.44691 0,0 -1.24231,-0.44691 -2.47534,-1.53229 -3.02867,-3.83081"
       style="fill:none;stroke:#d9534f;stroke-width:1.19553;stroke-linecap:round;stroke-linejoin:round;stroke-miterlimit:10;stroke-dasharray:none;stroke-opacity:1"
       transform="matrix(0.73956,1.10936,1.10936,-0.73956,232.55821,150.38083)" />
    <path
       id="path21"
       d="m 3.8708616,0.00453167 0.00325,-0.27952865 -0.2795286,-0.003248 c -0.8353355,0.006508 -0.8645894,-0.0975028 -0.8645922,-0.43553741 l 0.00321,-5.01201321 c -0.00325,-0.2275233 -0.0065,-0.243775 -0.234026,-0.2405227 -0.5655533,0.5525613 -1.3846372,0.5558184 -1.67066641,0.5623215 l 0.006503,0.2860292 c 0.18526901,-0.00325 0.71832351,-6e-6 1.21237221,-0.2340341 l -0.00321,4.63172435 c 2.9e-6,0.33803462 -0.039,0.43879526 -0.8743358,0.44530288 l -0.27952868,-0.003248 -0.003248,0.27952865 c 0.32503318,-0.02275503 1.11811428,-0.0292623 1.49840328,-0.02926546 0.3640373,0.0032473 1.1668695,0.0032406 1.4854023,0.03249096 z M 8.7471585,-1.7905052 c 0.00974,-1.0921119 -0.7573439,-1.9696954 -1.7454451,-1.9664368 -0.4225432,3.5e-6 -0.8678377,0.1397715 -1.1766167,0.4550563 l -0.013016,-1.7551796 c 0.2762789,0.071505 0.5558079,0.1170074 0.8418371,0.1105043 1.0986125,-9.1e-6 1.7421718,-0.796346 1.7454212,-0.9068574 -0.0065,-0.074758 -0.055257,-0.1072605 -0.1072619,-0.1137607 0,0 -0.026003,-0.00325 -0.1202621,0.032504 -0.4030397,0.182022 -0.8288328,0.2502825 -1.2091217,0.2502857 -0.3802889,3.2e-6 -0.7833308,-0.071501 -1.1993749,-0.2502656 -0.081258,-0.026002 -0.1072612,-0.029252 -0.1072612,-0.029252 -0.1007603,0.00325 -0.1007596,0.08776 -0.1040087,0.2405254 l 0.00327,2.6360199 c -0.00975,0.1625168 -0.0065,0.2632771 0.1105134,0.2567754 0.068257,0.00325 0.10076,-0.045505 0.1527647,-0.1235139 0.2632738,-0.3737905 0.6955664,-0.578565 1.1668646,-0.5883199 0.9555978,0.00324 0.96211,1.3878841 0.9653629,1.699916 -0.00325,0.2795286 -0.00324,0.8288349 -0.2567658,1.25138027 -0.2405217,0.36078895 -0.6273098,0.53956047 -0.9653444,0.53956328 -0.5428057,-0.0097465 -1.1311186,-0.33152453 -1.3423958,-1.00759205 0,0 0.048755,0.032503 0.1072612,0.029252 0.19502,0.00325 0.4582959,-0.1170157 0.455043,-0.4290477 -0.0065,-0.2860292 -0.1917734,-0.4517946 -0.4452993,-0.4517925 -0.185269,0.00325 -0.4355438,0.1040142 -0.4387911,0.4680515 6.7e-6,0.80283226 0.6825835,1.63816212 1.6706847,1.63490356 1.0986125,-9.14e-6 2.0151991,-0.86785563 2.0119395,-1.98271976 z m 0,0"
       style="fill:#000000;fill-opacity:1;fill-rule:nonzero;stroke:none"
       aria-label="15"
       transform="matrix(0.73956,1.10936,-1.10936,0.73956,208.25948,100.33528)" />
    <path
       id="path22"
       d="m 5.676519,-4.0592887 c 0.097509,-0.1040114 0.1267616,-0.1690183 0.1332618,-0.2210237 -0.0065,-0.1170119 -0.1072626,-0.1982694 -0.1917712,-0.1982687 -0.074758,0.0065 -0.087759,0.026003 -0.1885184,0.1137632 L 3.5768169,-2.5153631 1.6461032,-4.4362937 c -0.042255,-0.042254 -0.084509,-0.042254 -0.1007607,-0.039003 -0.1105113,-0.00325 -0.1820177,0.1040122 -0.1787666,0.2047725 -0.00325,0.068257 0.029254,0.1040104 0.1267648,0.2112705 l 1.8072001,1.8104204 -1.8169209,1.81695116 c -0.1170109,0.13326462 -0.1235111,0.18527 -0.1235108,0.22752433 -0.00325,0.11051134 0.078009,0.17876765 0.1885208,0.18201707 0.016252,-0.0032505 0.058506,-0.0032508 0.09751,-0.01950281 l 1.9306816,-1.92421315 1.8689569,1.86567554 c 0.058506,0.03900351 0.09101,0.0747569 0.1755186,0.0747562 0.084509,-7.1e-7 0.1885188,-0.07150889 0.1820171,-0.18852082 -0.0065,-0.0325033 -0.026003,-0.0877588 -0.055257,-0.10726053 -4e-7,-0.0422543 -1.5991772,-1.61540209 -1.904711,-1.91768049 z m 0,0"
       style="fill:#000000;fill-opacity:1;fill-rule:nonzero;stroke:none"
       aria-label="×"
       transform="matrix(0.73956,1.10936,-1.10936,0.73956,215.076,110.56025)" />
    <path
       id="path23"
       d="M 6.5130998,-3.0111485 C 6.5130857,-4.7013216 5.2649461,-6.124957 3.6852844,-6.1216935 l -3.32834081,0.00653 0.003253,0.2697776 0.20152058,-0.0065 c 0.68582023,0.0065 0.71507413,0.1105054 0.71507693,0.44854 l 0.00329,4.7064819 c -0.00325,0.32178298 -0.025999,0.41929315 -0.71181944,0.41279819 l -0.20152058,0.006502 -0.003248,0.27952866 3.32834072,-0.00652836 c 1.5634101,-1.301e-5 2.821278,-1.31640819 2.8212639,-3.00658129 z m -0.8970919,-0.00649 c 0.0065,0.3705379 0.00976,1.3163847 -0.4842835,1.9307017 -0.4582918,0.62406773 -1.1148575,0.80609183 -1.6739148,0.79959582 l -0.9620985,0.006509 c -0.4225432,3.51e-6 -0.4420457,-0.055252 -0.4452986,-0.36728391 l 0.00646,-4.82674431 c -2.5e-6,-0.2957803 0.00975,-0.3737884 0.4322911,-0.3737919 l 0.9620985,-0.00651 c 0.8710892,0.00324 1.4106483,0.4615356 1.6381744,0.7963179 0.4062958,0.5102989 0.5265635,1.1538638 0.5265709,2.0412047 z m 4.7625471,-0.3884544 c -0.0065,-0.2860293 -0.269782,-0.5460537 -0.6663229,-0.5428001 -0.5428057,-0.00975 -0.9165909,0.3607946 -1.1278579,0.9101026 l 0.00324,-0.9133435 -1.2773801,0.078019 -0.00325,0.2795286 c 0.6078123,-0.00326 0.6825706,0.074752 0.6858245,0.5135469 l -0.00323,2.392245 c 0.0065,0.41279222 -0.094256,0.41604339 -0.6793162,0.40629726 l -0.00325,0.27952865 C 7.7750663,-0.02897865 7.8953287,-0.01922865 8.3503753,-0.0257331 l 1.1473677,0.03249378 0.00325,-0.27952865 -0.1885194,-0.0129998 c -0.6500665,0.003256 -0.6858209,-0.0910036 -0.6825733,-0.41278659 l -1.12e-5,-1.35213844 c -0.0065,-0.3705379 0.1039967,-1.6771726 1.1246011,-1.6869321 l 0.00975,0.0065 c -0.032503,0.0065 -0.1787673,0.1202638 -0.1787655,0.3315354 0.0065,0.2437749 0.1982736,0.3997893 0.4095452,0.3997876 0.1852691,-0.00325 0.3770371,-0.1430178 0.3835361,-0.4062948 z m 4.607359,1.4975525 c -0.0065,-1.1733701 -0.936113,-2.1029576 -2.034726,-2.1029484 -1.150618,-0.00649 -2.057453,0.9523646 -2.047692,2.099732 -0.0032,1.12461522 0.932862,2.00219729 2.031475,2.00218815 1.140867,-9.49e-6 2.044452,-0.89060821 2.050943,-1.99897175 z m -0.77683,-0.081252 c -0.0032,0.321783 7e-6,0.8450866 -0.230763,1.25463043 -0.247022,0.41279432 -0.643561,0.58506526 -1.02385,0.58506843 -0.458297,-0.009747 -0.832087,-0.23076671 -1.02711,-0.57205003 -0.243778,-0.37378623 -0.256784,-0.86133603 -0.253537,-1.26762773 -3e-6,-0.3380346 -7e-6,-0.8450865 0.224263,-1.202625 0.269774,-0.4680502 0.715068,-0.6078182 1.043352,-0.6143216 0.507052,-4.2e-6 0.871092,0.2990234 1.059614,0.6078035 0.208024,0.3640355 0.208028,0.8288331 0.208031,1.209122 z m 5.836786,0.060083 c 0.0097,-1.1343662 -0.861355,-2.0249502 -1.917714,-2.0249414 -0.4908,-0.00325 -0.942595,0.1885272 -1.290377,0.5623183 l 0.0065,-0.5590573 -1.319635,0.078019 -0.0032,0.2795287 c 0.633815,-5.3e-6 0.682571,0.074752 0.689075,0.4452898 l -0.0032,4.2091811 c -0.0032,0.4062916 -0.104007,0.4095428 -0.689067,0.3997966 l 0.0033,0.2697776 c 0.429044,-0.00975 0.58831,-0.016256 1.027105,-0.01951 0.429044,-0.00975 0.552556,0.016247 1.010853,0.025994 l -0.0033,-0.2697776 c -0.58506,-0.00975 -0.68582,-0.0065 -0.682573,-0.4127866 l -0.0033,-1.49515311 c 0.234026,0.24052268 0.529808,0.53630051 1.13112,0.54279617 1.062859,-0.0097599 2.050953,-0.85810494 2.044443,-2.03147506 z m -0.770329,-0.00649 c 0.0098,1.0206044 -0.601297,1.81044036 -1.329371,1.80394575 -0.396541,0.003254 -0.731327,-0.23401788 -0.968604,-0.53304652 -0.09751,-0.19176883 -0.100762,-0.20802047 -0.100764,-0.37703773 l -0.0065,-1.9762024 c 0.295776,-0.5070543 0.806077,-0.7020786 1.186366,-0.7020817 0.68582,0.00649 1.218882,0.8125731 1.21889,1.7844226 z m 0,0"
       style="fill:#000000;fill-opacity:1;fill-rule:nonzero;stroke:none"
       aria-label="Drop"
       transform="matrix(0.73956,1.10936,-1.10936,0.73956,222.65132,121.92343)" />
  </g>
</svg>
