<?xml version="1.0" encoding="UTF-8" standalone="no"?>
<!-- Created with Inkscape (http://www.inkscape.org/) -->

<svg
   version="1.1"
   id="svg2"
   width="623.68402"
   height="100.91467"
   viewBox="0 0 623.68402 100.91467"
   xmlns="http://www.w3.org/2000/svg"
   xmlns:svg="http://www.w3.org/2000/svg">
  <defs
     id="defs6" />
  <g
     id="g8"
     transform="matrix(1.3333333,0,0,-1.3333333,0,100.91467)">
    <g
       id="g10"
       transform="translate(30.713,55.47)">
      <g
         id="g12">
        <g
           id="g14" />
        <g
           id="g16">
          <g
             id="g18">
            <g
               id="g20">
              <path
                 d="m 26.35425,19.84276 h -52.7085 c -2.20094,0 -3.98511,-1.78416 -3.98511,-3.98511 v -31.7153 c 0,-2.20095 1.78417,-3.98511 3.98511,-3.98511 h 52.7085 c 2.20094,0 3.98511,1.78416 3.98511,3.98511 v 31.7153 c 0,2.20095 -1.78417,3.98511 -3.98511,3.98511 z"
                 style="fill:#b4def0;fill-opacity:1;fill-rule:nonzero;stroke:#495938;stroke-width:0.74721;stroke-linecap:butt;stroke-linejoin:miter;stroke-miterlimit:10;stroke-dasharray:none;stroke-opacity:1"
                 id="path22" />
            </g>
            <g
               id="g24"
               transform="translate(-28.347,2.337)">
              <g
                 id="g26">
                <g
                   id="g28"
                   transform="translate(-2.366,-57.807)">
                  <text
                     xml:space="preserve"
                     transform="matrix(1,0,0,-1,14.111,57.807)"
                     style="font-variant:normal;font-size:8.96638px;font-family:'Nimbus Sans';-inkscape-font-specification:NimbusSanL-Regu;writing-mode:lr-tb;fill:#000000;fill-opacity:1;fill-rule:nonzero;stroke:none"
                     id="text32"><tspan
                       x="0 5.9805756 8.9663801 13.951687 18.757668 20.748203 25.733511"
                       y="0"
                       id="tspan30">Problem</tspan></text>
                  <text
                     xml:space="preserve"
                     transform="matrix(1,0,0,-1,12.027,46.848)"
                     style="font-variant:normal;font-size:8.96638px;font-family:'Nimbus Sans';-inkscape-font-specification:NimbusSanL-Regu;writing-mode:lr-tb;fill:#000000;fill-opacity:1;fill-rule:nonzero;stroke:none"
                     id="text36"><tspan
                       x="0 6.4737263 11.459034 15.942224 20.92753 22.918068 25.410721 27.401257 32.386566"
                       y="0"
                       id="tspan34">Defnition</tspan></text>
                  <g
                     id="g38"
                     transform="translate(2.366,57.807)" />
                </g>
              </g>
              <g
                 id="g40"
                 transform="translate(28.347,-2.337)" />
            </g>
          </g>
          <g
             id="g42">
            <g
               id="g44">
              <path
                 d="M 107.62285,19.84276 H 54.91434 c -2.20094,0 -3.98511,-1.78416 -3.98511,-3.98511 v -31.7153 c 0,-2.20095 1.78417,-3.98511 3.98511,-3.98511 h 52.70851 c 2.20094,0 3.98511,1.78416 3.98511,3.98511 v 31.7153 c 0,2.20095 -1.78417,3.98511 -3.98511,3.98511 z"
                 style="fill:#dbfda6;fill-opacity:1;fill-rule:nonzero;stroke:#495938;stroke-width:0.74721;stroke-linecap:butt;stroke-linejoin:miter;stroke-miterlimit:10;stroke-dasharray:none;stroke-opacity:1"
                 id="path46" />
            </g>
            <g
               id="g48"
               transform="translate(52.921,8.708)">
              <g
                 id="g50">
                <g
                   id="g52"
                   transform="translate(-83.634,-64.178)">
                  <text
                     xml:space="preserve"
                     transform="matrix(1,0,0,-1,102.512,64.178)"
                     style="font-variant:normal;font-size:8.96638px;font-family:'Nimbus Sans';-inkscape-font-specification:NimbusSanL-Regu;writing-mode:lr-tb;fill:#000000;fill-opacity:1;fill-rule:nonzero;stroke:none"
                     id="text56"><tspan
                       x="0 6.4737263 11.459034 13.951687"
                       y="0"
                       id="tspan54">Data</tspan></text>
                  <text
                     xml:space="preserve"
                     transform="matrix(1,0,0,-1,88.063,53.219)"
                     style="font-variant:normal;font-size:8.96638px;font-family:'Nimbus Sans';-inkscape-font-specification:NimbusSanL-Regu;writing-mode:lr-tb;fill:#000000;fill-opacity:1;fill-rule:nonzero;stroke:none"
                     id="text60"><tspan
                       x="0 6.4737263 11.459034 13.44957 15.440106 20.425413 24.908604 27.401257 29.391794 34.377102 41.846096"
                       y="0"
                       id="tspan58">Collection&amp;</tspan></text>
                  <text
                     xml:space="preserve"
                     transform="matrix(1,0,0,-1,88.852,42.26)"
                     style="font-variant:normal;font-size:8.96638px;font-family:'Nimbus Sans';-inkscape-font-specification:NimbusSanL-Regu;writing-mode:lr-tb;fill:#000000;fill-opacity:1;fill-rule:nonzero;stroke:none"
                     id="text64"><tspan
                       x="0 5.9805756 8.9663801 13.951687 18.936995 23.922302 26.818443 31.803749 34.296402 36.286942 41.272247"
                       y="0"
                       id="tspan62">Preparation</tspan></text>
                  <g
                     id="g66"
                     transform="translate(83.634,64.178)" />
                </g>
              </g>
              <g
                 id="g68"
                 transform="translate(-52.921,-8.708)" />
            </g>
          </g>
          <g
             id="g70">
            <g
               id="g72">
              <path
                 d="m 188.89146,19.84276 h -52.70851 c -2.20094,0 -3.9851,-1.78416 -3.9851,-3.98511 v -31.7153 c 0,-2.20095 1.78416,-3.98511 3.9851,-3.98511 h 52.70851 c 2.20094,0 3.98511,1.78416 3.98511,3.98511 v 31.7153 c 0,2.20095 -1.78417,3.98511 -3.98511,3.98511 z"
                 style="fill:#dbfda6;fill-opacity:1;fill-rule:nonzero;stroke:#495938;stroke-width:0.74721;stroke-linecap:butt;stroke-linejoin:miter;stroke-miterlimit:10;stroke-dasharray:none;stroke-opacity:1"
                 id="path74" />
            </g>
            <g
               id="g76"
               transform="translate(134.188,8.762)">
              <g
                 id="g78">
                <g
                   id="g80"
                   transform="translate(-164.901,-64.232)">
                  <text
                     xml:space="preserve"
                     transform="matrix(1,0,0,-1,181.04,64.232)"
                     style="font-variant:normal;font-size:8.96638px;font-family:'Nimbus Sans';-inkscape-font-specification:NimbusSanL-Regu;writing-mode:lr-tb;fill:#000000;fill-opacity:1;fill-rule:nonzero;stroke:none"
                     id="text84"><tspan
                       x="0 7.4689946 12.454302 17.43961 22.424917"
                       y="0"
                       id="tspan82">Model</tspan></text>
                  <text
                     xml:space="preserve"
                     transform="matrix(1,0,0,-1,167.084,53.273)"
                     style="font-variant:normal;font-size:8.96638px;font-family:'Nimbus Sans';-inkscape-font-specification:NimbusSanL-Regu;writing-mode:lr-tb;fill:#000000;fill-opacity:1;fill-rule:nonzero;stroke:none"
                     id="text88"><tspan
                       x="0 6.4737263 11.190042 15.449073 20.43438 22.424917 27.410223 32.395531 39.864525 44.849834 49.83514"
                       y="0"
                       id="tspan86">Development</tspan></text>
                  <text
                     xml:space="preserve"
                     transform="matrix(1,0,0,-1,173.401,42.314)"
                     style="font-variant:normal;font-size:8.96638px;font-family:'Nimbus Sans';-inkscape-font-specification:NimbusSanL-Regu;writing-mode:lr-tb;fill:#000000;fill-opacity:1;fill-rule:nonzero;stroke:none"
                     id="text92"><tspan
                       x="0 8.4732294 12.875722 15.771862 20.75717 22.747705 27.733013 29.723549 34.708858"
                       y="0"
                       id="tspan90">&amp;Training</tspan></text>
                  <g
                     id="g94"
                     transform="translate(164.901,64.232)" />
                </g>
              </g>
              <g
                 id="g96"
                 transform="translate(-134.188,-8.762)" />
            </g>
          </g>
          <g
             id="g98">
            <g
               id="g100">
              <path
                 d="m 270.16006,19.84276 h -52.70851 c -2.20094,0 -3.9851,-1.78416 -3.9851,-3.98511 v -31.7153 c 0,-2.20095 1.78416,-3.98511 3.9851,-3.98511 h 52.70851 c 2.20095,0 3.98511,1.78416 3.98511,3.98511 v 31.7153 c 0,2.20095 -1.78416,3.98511 -3.98511,3.98511 z"
                 style="fill:#dbfda6;fill-opacity:1;fill-rule:nonzero;stroke:#495938;stroke-width:0.74721;stroke-linecap:butt;stroke-linejoin:miter;stroke-miterlimit:10;stroke-dasharray:none;stroke-opacity:1"
                 id="path102" />
            </g>
            <g
               id="g104"
               transform="translate(215.456,2.337)">
              <g
                 id="g106">
                <g
                   id="g108"
                   transform="translate(-246.169,-57.807)">
                  <text
                     xml:space="preserve"
                     transform="matrix(1,0,0,-1,253.696,57.807)"
                     style="font-variant:normal;font-size:8.96638px;font-family:'Nimbus Sans';-inkscape-font-specification:NimbusSanL-Regu;writing-mode:lr-tb;fill:#000000;fill-opacity:1;fill-rule:nonzero;stroke:none"
                     id="text112"><tspan
                       x="0 5.9805756 10.239606 15.224914 17.21545 22.200756 27.186064 29.678719 31.669254 36.65456"
                       y="0"
                       id="tspan110">Evaluation</tspan></text>
                  <text
                     xml:space="preserve"
                     transform="matrix(1,0,0,-1,250.907,46.848)"
                     style="font-variant:normal;font-size:8.96638px;font-family:'Nimbus Sans';-inkscape-font-specification:NimbusSanL-Regu;writing-mode:lr-tb;fill:#000000;fill-opacity:1;fill-rule:nonzero;stroke:none"
                     id="text116"><tspan
                       x="0 8.4732294 13.826158 18.811464 20.802002 22.792538 27.777845 32.763153 35.255806 37.246342 42.231651"
                       y="0"
                       id="tspan114">&amp;Validation</tspan></text>
                  <g
                     id="g118"
                     transform="translate(246.169,57.807)" />
                </g>
              </g>
              <g
                 id="g120"
                 transform="translate(-215.456,-2.337)" />
            </g>
          </g>
          <g
             id="g122">
            <g
               id="g124">
              <path
                 d="m 351.42867,19.84276 h -52.70852 c -2.20094,0 -3.9851,-1.78416 -3.9851,-3.98511 v -31.7153 c 0,-2.20095 1.78416,-3.98511 3.9851,-3.98511 h 52.70852 c 2.20094,0 3.9851,1.78416 3.9851,3.98511 v 31.7153 c 0,2.20095 -1.78416,3.98511 -3.9851,3.98511 z"
                 style="fill:#dbfda6;fill-opacity:1;fill-rule:nonzero;stroke:#495938;stroke-width:0.74721;stroke-linecap:butt;stroke-linejoin:miter;stroke-miterlimit:10;stroke-dasharray:none;stroke-opacity:1"
                 id="path126" />
            </g>
            <g
               id="g128"
               transform="translate(296.723,3.283)">
              <g
                 id="g130">
                <g
                   id="g132"
                   transform="translate(-327.436,-58.753)">
                  <text
                     xml:space="preserve"
                     transform="matrix(1,0,0,-1,327.763,58.753)"
                     style="font-variant:normal;font-size:8.96638px;font-family:'Nimbus Sans';-inkscape-font-specification:NimbusSanL-Regu;writing-mode:lr-tb;fill:#000000;fill-opacity:1;fill-rule:nonzero;stroke:none"
                     id="text136"><tspan
                       x="0 6.4737263 11.459034 16.444342 18.434877 23.151194 27.634382 35.103378 40.088684 45.073994 50.059299"
                       y="0"
                       id="tspan134">Deployment&amp;</tspan></text>
                  <text
                     xml:space="preserve"
                     transform="matrix(1,0,0,-1,334.69,47.794)"
                     style="font-variant:normal;font-size:8.96638px;font-family:'Nimbus Sans';-inkscape-font-specification:NimbusSanL-Regu;writing-mode:lr-tb;fill:#000000;fill-opacity:1;fill-rule:nonzero;stroke:none"
                     id="text140"><tspan
                       x="0 2.4926536 7.4779611 9.9706144 14.955922 19.851564 22.747705 27.733013 30.225666 32.216202 37.201511"
                       y="0"
                       id="tspan138">Integration</tspan></text>
                  <g
                     id="g142"
                     transform="translate(327.436,58.753)" />
                </g>
              </g>
              <g
                 id="g144"
                 transform="translate(-296.723,-3.283)" />
            </g>
          </g>
          <g
             id="g146">
            <g
               id="g148">
              <path
                 d="m 432.69728,19.84276 h -52.70851 c -2.20094,0 -3.98511,-1.78416 -3.98511,-3.98511 v -31.7153 c 0,-2.20095 1.78417,-3.98511 3.98511,-3.98511 h 52.70851 c 2.20094,0 3.98511,1.78416 3.98511,3.98511 v 31.7153 c 0,2.20095 -1.78417,3.98511 -3.98511,3.98511 z"
                 style="fill:#dbfda6;fill-opacity:1;fill-rule:nonzero;stroke:#495938;stroke-width:0.74721;stroke-linecap:butt;stroke-linejoin:miter;stroke-miterlimit:10;stroke-dasharray:none;stroke-opacity:1"
                 id="path150" />
            </g>
            <g
               id="g152"
               transform="translate(377.991,2.337)">
              <g
                 id="g154">
                <g
                   id="g156"
                   transform="translate(-408.704,-57.807)">
                  <text
                     xml:space="preserve"
                     transform="matrix(1,0,0,-1,411.819,57.807)"
                     style="font-variant:normal;font-size:8.96638px;font-family:'Nimbus Sans';-inkscape-font-specification:NimbusSanL-Regu;writing-mode:lr-tb;fill:#000000;fill-opacity:1;fill-rule:nonzero;stroke:none"
                     id="text160"><tspan
                       x="0 7.4689946 12.454302 17.43961 19.430145 21.922798 26.908106 30.028406 32.018944 37.00425 44.482212"
                       y="0"
                       id="tspan158">Monitoring&amp;</tspan></text>
                  <text
                     xml:space="preserve"
                     transform="matrix(1,0,0,-1,411.384,46.848)"
                     style="font-variant:normal;font-size:8.96638px;font-family:'Nimbus Sans';-inkscape-font-specification:NimbusSanL-Regu;writing-mode:lr-tb;fill:#000000;fill-opacity:1;fill-rule:nonzero;stroke:none"
                     id="text164"><tspan
                       x="0 7.4689946 12.454302 14.444839 19.430145 21.922798 26.908106 31.893414 36.878719 41.864029 46.347218"
                       y="0"
                       id="tspan162">Maintenance</tspan></text>
                  <g
                     id="g166"
                     transform="translate(408.704,57.807)" />
                </g>
              </g>
              <g
                 id="g168"
                 transform="translate(-377.991,-2.337)" />
            </g>
          </g>
          <g
             id="g170">
            <path
               d="M 30.71297,0 H 44.01013"
               style="fill:none;stroke:#808080;stroke-width:1.49442;stroke-linecap:butt;stroke-linejoin:miter;stroke-miterlimit:10;stroke-dasharray:none;stroke-opacity:1"
               id="path172" />
            <g
               id="g174"
               transform="translate(44.01013)">
              <g
                 id="g176">
                <path
                   d="M 6.54549,0 C 4.60605,0.36362 1.45454,1.45454 -0.72726,2.72728 V -2.72728 C 1.45454,-1.45454 4.60605,-0.36362 6.54549,0"
                   style="fill:#808080;fill-opacity:1;fill-rule:nonzero;stroke:none"
                   id="path178" />
              </g>
            </g>
          </g>
          <g
             id="g180">
            <path
               d="m 111.98157,0 h 13.29716"
               style="fill:none;stroke:#808080;stroke-width:1.49442;stroke-linecap:butt;stroke-linejoin:miter;stroke-miterlimit:10;stroke-dasharray:none;stroke-opacity:1"
               id="path182" />
            <g
               id="g184"
               transform="translate(125.27873)">
              <g
                 id="g186">
                <path
                   d="M 6.54549,0 C 4.60605,0.36362 1.45454,1.45454 -0.72726,2.72728 V -2.72728 C 1.45454,-1.45454 4.60605,-0.36362 6.54549,0"
                   style="fill:#808080;fill-opacity:1;fill-rule:nonzero;stroke:none"
                   id="path188" />
              </g>
            </g>
          </g>
          <g
             id="g190">
            <path
               d="m 193.25017,0 h 13.29718"
               style="fill:none;stroke:#808080;stroke-width:1.49442;stroke-linecap:butt;stroke-linejoin:miter;stroke-miterlimit:10;stroke-dasharray:none;stroke-opacity:1"
               id="path192" />
            <g
               id="g194"
               transform="translate(206.54735)">
              <g
                 id="g196">
                <path
                   d="M 6.54549,0 C 4.60605,0.36362 1.45454,1.45454 -0.72726,2.72728 V -2.72728 C 1.45454,-1.45454 4.60605,-0.36362 6.54549,0"
                   style="fill:#808080;fill-opacity:1;fill-rule:nonzero;stroke:none"
                   id="path198" />
              </g>
            </g>
          </g>
          <g
             id="g200">
            <path
               d="m 274.51878,0 h 13.29717"
               style="fill:none;stroke:#808080;stroke-width:1.49442;stroke-linecap:butt;stroke-linejoin:miter;stroke-miterlimit:10;stroke-dasharray:none;stroke-opacity:1"
               id="path202" />
            <g
               id="g204"
               transform="translate(287.81595)">
              <g
                 id="g206">
                <path
                   d="M 6.54549,0 C 4.60605,0.36362 1.45454,1.45454 -0.72726,2.72728 V -2.72728 C 1.45454,-1.45454 4.60605,-0.36362 6.54549,0"
                   style="fill:#808080;fill-opacity:1;fill-rule:nonzero;stroke:none"
                   id="path208" />
              </g>
            </g>
          </g>
          <g
             id="g210">
            <path
               d="m 355.78738,0 h 13.29717"
               style="fill:none;stroke:#808080;stroke-width:1.49442;stroke-linecap:butt;stroke-linejoin:miter;stroke-miterlimit:10;stroke-dasharray:none;stroke-opacity:1"
               id="path212" />
            <g
               id="g214"
               transform="translate(369.08455)">
              <g
                 id="g216">
                <path
                   d="M 6.54549,0 C 4.60605,0.36362 1.45454,1.45454 -0.72726,2.72728 V -2.72728 C 1.45454,-1.45454 4.60605,-0.36362 6.54549,0"
                   style="fill:#808080;fill-opacity:1;fill-rule:nonzero;stroke:none"
                   id="path218" />
              </g>
            </g>
          </g>
          <g
             id="g220">
            <path
               d="M 406.34302,-20.21635 V -45.35506 H 81.2686 v 18.5932"
               style="fill:none;stroke:#808080;stroke-width:1.49442;stroke-linecap:butt;stroke-linejoin:miter;stroke-miterlimit:10;stroke-dasharray:none;stroke-opacity:1"
               id="path222" />
            <g
               id="g224"
               transform="rotate(90,54.01523,27.25337)">
              <g
                 id="g226">
                <path
                   d="M 6.54549,0 C 4.60605,0.36362 1.45454,1.45454 -0.72726,2.72728 V -2.72728 C 1.45454,-1.45454 4.60605,-0.36362 6.54549,0"
                   style="fill:#808080;fill-opacity:1;fill-rule:nonzero;stroke:none"
                   id="path228" />
              </g>
            </g>
            <g
               id="g230">
              <g
                 id="g232">
                <path
                   d="m 207.1496,-55.47067 h 73.31241 v 20.23125 H 207.1496 Z"
                   style="fill:#e0e0e0;fill-opacity:1;fill-rule:nonzero;stroke:none"
                   id="path234" />
              </g>
              <g
                 id="g236"
                 transform="translate(213.124,-47.605)">
                <g
                   id="g238">
                  <g
                     id="g240"
                     transform="translate(-243.837,-7.865)">
                    <text
                       xml:space="preserve"
                       transform="matrix(1,0,0,-1,243.837,7.865)"
                       style="font-variant:normal;font-size:8.96638px;font-family:'Nimbus Sans';-inkscape-font-specification:NimbusSanL-Regu;writing-mode:lr-tb;fill:#000000;fill-opacity:1;fill-rule:nonzero;stroke:none"
                       id="text244"><tspan
                         x="0 5.2094669 10.194774 15.180081 20.165388 25.150696 30.136003 34.439865 41.41571 46.401016 51.386322 56.371632"
                         y="0"
                         id="tspan242">FeedbackLoop</tspan></text>
                    <g
                       id="g246"
                       transform="translate(243.837,7.865)" />
                  </g>
                </g>
                <g
                   id="g248"
                   transform="translate(-213.124,47.605)" />
              </g>
            </g>
          </g>
        </g>
      </g>
    </g>
  </g>
</svg>
