<?xml version="1.0" encoding="UTF-8" standalone="no"?>
<!-- Created with Inkscape (http://www.inkscape.org/) -->

<svg
   version="1.1"
   id="svg2"
   width="620.51331"
   height="298.056"
   viewBox="0 0 620.51331 298.056"
   xmlns="http://www.w3.org/2000/svg"
   xmlns:svg="http://www.w3.org/2000/svg">
  <defs
     id="defs6" />
  <g
     id="g8"
     transform="matrix(1.3333333,0,0,-1.3333333,0,298.056)">
    <g
       id="g10"
       transform="translate(99.224,83.973)">
      <g
         id="g12">
        <g
           id="g14" />
        <g
           id="g16">
          <g
             id="g18">
            <g
               id="g20">
              <path
                 d="m 26.35425,15.59073 h -52.7085 c -2.20094,0 -3.98511,-1.78417 -3.98511,-3.98511 v -23.21124 c 0,-2.20094 1.78417,-3.98511 3.98511,-3.98511 h 52.7085 c 2.20094,0 3.98511,1.78417 3.98511,3.98511 v 23.21124 c 0,2.20094 -1.78417,3.98511 -3.98511,3.98511 z"
                 style="fill:#dbfda6;fill-opacity:1;fill-rule:nonzero;stroke:#495938;stroke-width:0.74721;stroke-linecap:butt;stroke-linejoin:miter;stroke-miterlimit:10;stroke-dasharray:none;stroke-opacity:1"
                 id="path22" />
            </g>
            <g
               id="g24"
               transform="translate(-28.346,3.229)">
              <g
                 id="g26">
                <g
                   id="g28"
                   transform="translate(-70.878,-87.202)">
                  <text
                     xml:space="preserve"
                     transform="matrix(1,0,0,-1,89.756,87.202)"
                     style="font-variant:normal;font-size:8.96638px;font-family:'Nimbus Sans';-inkscape-font-specification:NimbusSanL-Regu;writing-mode:lr-tb;fill:#000000;fill-opacity:1;fill-rule:nonzero;stroke:none"
                     id="text32"><tspan
                       x="0 6.4737263 11.459034 13.951687"
                       y="0"
                       id="tspan30">Data</tspan></text>
                  <text
                     xml:space="preserve"
                     transform="matrix(1,0,0,-1,76.096,76.243)"
                     style="font-variant:normal;font-size:8.96638px;font-family:'Nimbus Sans';-inkscape-font-specification:NimbusSanL-Regu;writing-mode:lr-tb;fill:#000000;fill-opacity:1;fill-rule:nonzero;stroke:none"
                     id="text36"><tspan
                       x="0 5.9805756 8.9663801 13.951687 18.936995 23.922302 26.818443 31.803749 34.296402 36.286942 41.272247"
                       y="0"
                       id="tspan34">Preparation</tspan></text>
                  <g
                     id="g38"
                     transform="translate(70.878,87.202)" />
                </g>
              </g>
              <g
                 id="g40"
                 transform="translate(28.346,-3.229)" />
            </g>
          </g>
          <g
             id="g42">
            <g
               id="g44">
              <path
                 d="m 229.51424,15.59073 h -52.70851 c -2.20095,0 -3.98511,-1.78417 -3.98511,-3.98511 v -23.21124 c 0,-2.20094 1.78416,-3.98511 3.98511,-3.98511 h 52.70851 c 2.20094,0 3.9851,1.78417 3.9851,3.98511 v 23.21124 c 0,2.20094 -1.78416,3.98511 -3.9851,3.98511 z"
                 style="fill:#dbfda6;fill-opacity:1;fill-rule:nonzero;stroke:#495938;stroke-width:0.74721;stroke-linecap:butt;stroke-linejoin:miter;stroke-miterlimit:10;stroke-dasharray:none;stroke-opacity:1"
                 id="path46" />
            </g>
            <g
               id="g48"
               transform="translate(174.811,2.337)">
              <g
                 id="g50">
                <g
                   id="g52"
                   transform="translate(-274.035,-86.31)">
                  <text
                     xml:space="preserve"
                     transform="matrix(1,0,0,-1,290.174,86.31)"
                     style="font-variant:normal;font-size:8.96638px;font-family:'Nimbus Sans';-inkscape-font-specification:NimbusSanL-Regu;writing-mode:lr-tb;fill:#000000;fill-opacity:1;fill-rule:nonzero;stroke:none"
                     id="text56"><tspan
                       x="0 7.4689946 12.454302 17.43961 22.424917"
                       y="0"
                       id="tspan54">Model</tspan></text>
                  <text
                     xml:space="preserve"
                     transform="matrix(1,0,0,-1,281.562,75.351)"
                     style="font-variant:normal;font-size:8.96638px;font-family:'Nimbus Sans';-inkscape-font-specification:NimbusSanL-Regu;writing-mode:lr-tb;fill:#000000;fill-opacity:1;fill-rule:nonzero;stroke:none"
                     id="text60"><tspan
                       x="0 5.9805756 10.239606 15.224914 17.21545 22.200756 27.186064 29.678719 31.669254 36.65456"
                       y="0"
                       id="tspan58">Evaluation</tspan></text>
                  <g
                     id="g62"
                     transform="translate(274.035,86.31)" />
                </g>
              </g>
              <g
                 id="g64"
                 transform="translate(-174.811,-2.337)" />
            </g>
          </g>
          <g
             id="g66">
            <g
               id="g68">
              <path
                 d="m 361.80719,15.59073 h -52.70851 c -2.20094,0 -3.98511,-1.78417 -3.98511,-3.98511 v -23.21124 c 0,-2.20094 1.78417,-3.98511 3.98511,-3.98511 h 52.70851 c 2.20094,0 3.98511,1.78417 3.98511,3.98511 v 23.21124 c 0,2.20094 -1.78417,3.98511 -3.98511,3.98511 z"
                 style="fill:#dbfda6;fill-opacity:1;fill-rule:nonzero;stroke:#495938;stroke-width:0.74721;stroke-linecap:butt;stroke-linejoin:miter;stroke-miterlimit:10;stroke-dasharray:none;stroke-opacity:1"
                 id="path70" />
            </g>
            <g
               id="g72"
               transform="translate(307.102,2.337)">
              <g
                 id="g74">
                <g
                   id="g76"
                   transform="translate(-406.326,-86.31)">
                  <text
                     xml:space="preserve"
                     transform="matrix(1,0,0,-1,409.442,86.31)"
                     style="font-variant:normal;font-size:8.96638px;font-family:'Nimbus Sans';-inkscape-font-specification:NimbusSanL-Regu;writing-mode:lr-tb;fill:#000000;fill-opacity:1;fill-rule:nonzero;stroke:none"
                     id="text80"><tspan
                       x="0 7.4689946 12.454302 17.43961 19.430145 21.922798 26.908106 30.01944 32.009975 36.995285 44.473244"
                       y="0"
                       id="tspan78">Monitoring&amp;</tspan></text>
                  <text
                     xml:space="preserve"
                     transform="matrix(1,0,0,-1,409.007,75.351)"
                     style="font-variant:normal;font-size:8.96638px;font-family:'Nimbus Sans';-inkscape-font-specification:NimbusSanL-Regu;writing-mode:lr-tb;fill:#000000;fill-opacity:1;fill-rule:nonzero;stroke:none"
                     id="text84"><tspan
                       x="0 7.4689946 12.454302 14.444839 19.430145 21.922798 26.908106 31.893414 36.878719 41.864029 46.347218"
                       y="0"
                       id="tspan82">Maintenance</tspan></text>
                  <g
                     id="g86"
                     transform="translate(406.326,86.31)" />
                </g>
              </g>
              <g
                 id="g88"
                 transform="translate(-307.102,-2.337)" />
            </g>
          </g>
          <g
             id="g90">
            <g
               id="g92">
              <path
                 d="m -42.15836,-24.84206 h -52.70851 c -2.20094,0 -3.9851,-1.78416 -3.9851,-3.9851 v -23.21128 c 0,-2.20094 1.78416,-3.9851 3.9851,-3.9851 h 52.70851 c 2.20095,0 3.98511,1.78416 3.98511,3.9851 v 23.21128 c 0,2.20094 -1.78416,3.9851 -3.98511,3.9851 z"
                 style="fill:#dbfda6;fill-opacity:1;fill-rule:nonzero;stroke:#495938;stroke-width:0.74721;stroke-linecap:butt;stroke-linejoin:miter;stroke-miterlimit:10;stroke-dasharray:none;stroke-opacity:1"
                 id="path94" />
            </g>
            <g
               id="g96"
               transform="translate(-96.858,-38.055)">
              <g
                 id="g98">
                <g
                   id="g100"
                   transform="translate(-2.366,-45.918)">
                  <text
                     xml:space="preserve"
                     transform="matrix(1,0,0,-1,21.244,45.918)"
                     style="font-variant:normal;font-size:8.96638px;font-family:'Nimbus Sans';-inkscape-font-specification:NimbusSanL-Regu;writing-mode:lr-tb;fill:#000000;fill-opacity:1;fill-rule:nonzero;stroke:none"
                     id="text104"><tspan
                       x="0 6.4737263 11.459034 13.951687"
                       y="0"
                       id="tspan102">Data</tspan></text>
                  <text
                     xml:space="preserve"
                     transform="matrix(1,0,0,-1,11.032,34.959)"
                     style="font-variant:normal;font-size:8.96638px;font-family:'Nimbus Sans';-inkscape-font-specification:NimbusSanL-Regu;writing-mode:lr-tb;fill:#000000;fill-opacity:1;fill-rule:nonzero;stroke:none"
                     id="text108"><tspan
                       x="0 6.4737263 11.459034 13.44957 15.440106 20.425413 24.908604 27.401257 29.391794 34.377102"
                       y="0"
                       id="tspan106">Collection</tspan></text>
                  <g
                     id="g110"
                     transform="translate(2.366,45.918)" />
                </g>
              </g>
              <g
                 id="g112"
                 transform="translate(96.858,38.055)" />
            </g>
          </g>
          <g
             id="g114">
            <g
               id="g116">
              <path
                 d="M 94.86687,67.36209 H 42.15836 c -2.20095,0 -3.98511,-1.78416 -3.98511,-3.98511 V 40.16571 c 0,-2.20094 1.78416,-3.98511 3.98511,-3.98511 h 52.70851 c 2.20094,0 3.9851,1.78417 3.9851,3.98511 v 23.21127 c 0,2.20095 -1.78416,3.98511 -3.9851,3.98511 z"
                 style="fill:#dbfda6;fill-opacity:1;fill-rule:nonzero;stroke:#495938;stroke-width:0.74721;stroke-linecap:butt;stroke-linejoin:miter;stroke-miterlimit:10;stroke-dasharray:none;stroke-opacity:1"
                 id="path118" />
            </g>
            <g
               id="g120"
               transform="translate(40.166,55.054)">
              <g
                 id="g122">
                <g
                   id="g124"
                   transform="translate(-139.39,-139.027)">
                  <text
                     xml:space="preserve"
                     transform="matrix(1,0,0,-1,155.528,139.027)"
                     style="font-variant:normal;font-size:8.96638px;font-family:'Nimbus Sans';-inkscape-font-specification:NimbusSanL-Regu;writing-mode:lr-tb;fill:#000000;fill-opacity:1;fill-rule:nonzero;stroke:none"
                     id="text128"><tspan
                       x="0 7.4689946 12.454302 17.43961 22.424917"
                       y="0"
                       id="tspan126">Model</tspan></text>
                  <text
                     xml:space="preserve"
                     transform="matrix(1,0,0,-1,152.126,128.068)"
                     style="font-variant:normal;font-size:8.96638px;font-family:'Nimbus Sans';-inkscape-font-specification:NimbusSanL-Regu;writing-mode:lr-tb;fill:#000000;fill-opacity:1;fill-rule:nonzero;stroke:none"
                     id="text132"><tspan
                       x="0 4.4024925 7.2986331 12.28394 14.274477 19.259785 21.25032 26.235628"
                       y="0"
                       id="tspan130">Training</tspan></text>
                  <g
                     id="g134"
                     transform="translate(139.39,139.027)" />
                </g>
              </g>
              <g
                 id="g136"
                 transform="translate(-40.166,-55.054)" />
            </g>
          </g>
          <g
             id="g138">
            <g
               id="g140">
              <path
                 d="m 298.02686,67.36209 h -52.70852 c -2.20094,0 -3.9851,-1.78416 -3.9851,-3.98511 V 40.16571 c 0,-2.20094 1.78416,-3.98511 3.9851,-3.98511 h 52.70852 c 2.20094,0 3.9851,1.78417 3.9851,3.98511 v 23.21127 c 0,2.20095 -1.78416,3.98511 -3.9851,3.98511 z"
                 style="fill:#dbfda6;fill-opacity:1;fill-rule:nonzero;stroke:#495938;stroke-width:0.74721;stroke-linecap:butt;stroke-linejoin:miter;stroke-miterlimit:10;stroke-dasharray:none;stroke-opacity:1"
                 id="path142" />
            </g>
            <g
               id="g144"
               transform="translate(243.323,55)">
              <g
                 id="g146">
                <g
                   id="g148"
                   transform="translate(-342.547,-138.973)">
                  <text
                     xml:space="preserve"
                     transform="matrix(1,0,0,-1,358.686,138.973)"
                     style="font-variant:normal;font-size:8.96638px;font-family:'Nimbus Sans';-inkscape-font-specification:NimbusSanL-Regu;writing-mode:lr-tb;fill:#000000;fill-opacity:1;fill-rule:nonzero;stroke:none"
                     id="text152"><tspan
                       x="0 7.4689946 12.454302 17.43961 22.424917"
                       y="0"
                       id="tspan150">Model</tspan></text>
                  <text
                     xml:space="preserve"
                     transform="matrix(1,0,0,-1,347.11,128.014)"
                     style="font-variant:normal;font-size:8.96638px;font-family:'Nimbus Sans';-inkscape-font-specification:NimbusSanL-Regu;writing-mode:lr-tb;fill:#000000;fill-opacity:1;fill-rule:nonzero;stroke:none"
                     id="text156"><tspan
                       x="0 6.4737263 11.459034 16.444342 18.434877 23.151194 27.634382 35.103378 40.088684 45.073994"
                       y="0"
                       id="tspan154">Deployment</tspan></text>
                  <g
                     id="g158"
                     transform="translate(342.547,138.973)" />
                </g>
              </g>
              <g
                 id="g160"
                 transform="translate(-243.323,-55)" />
            </g>
          </g>
          <g
             id="g162">
            <path
               d="M -68.51262,-24.46846 V 0 h 31.25417"
               style="fill:none;stroke:#808080;stroke-width:1.49442;stroke-linecap:butt;stroke-linejoin:miter;stroke-miterlimit:10;stroke-dasharray:none;stroke-opacity:1"
               id="path164" />
            <g
               id="g166"
               transform="translate(-37.25845)">
              <g
                 id="g168">
                <path
                   d="M 6.54549,0 C 4.60605,0.36362 1.45454,1.45454 -0.72726,2.72728 V -2.72728 C 1.45454,-1.45454 4.60605,-0.36362 6.54549,0"
                   style="fill:#808080;fill-opacity:1;fill-rule:nonzero;stroke:none"
                   id="path170" />
              </g>
            </g>
          </g>
          <g
             id="g172">
            <path
               d="M 9.21744,15.96434 V 51.77135 H 31.25415"
               style="fill:none;stroke:#808080;stroke-width:1.49442;stroke-linecap:butt;stroke-linejoin:miter;stroke-miterlimit:10;stroke-dasharray:none;stroke-opacity:1"
               id="path174" />
            <g
               id="g176"
               transform="translate(31.25415,51.77135)">
              <g
                 id="g178">
                <path
                   d="M 6.54549,0 C 4.60605,0.36362 1.45454,1.45454 -0.72726,2.72728 V -2.72728 C 1.45454,-1.45454 4.60605,-0.36362 6.54549,0"
                   style="fill:#808080;fill-opacity:1;fill-rule:nonzero;stroke:none"
                   id="path180" />
              </g>
            </g>
          </g>
          <g
             id="g182">
            <path
               d="M 203.15997,-15.96434 V -40.4328 H -31.25415"
               style="fill:none;stroke:#808080;stroke-width:1.49442;stroke-linecap:butt;stroke-linejoin:miter;stroke-miterlimit:10;stroke-dasharray:none;stroke-opacity:1"
               id="path184" />
            <g
               id="g186"
               transform="rotate(180,-15.627075,-20.2164)">
              <g
                 id="g188">
                <path
                   d="M 6.54549,0 C 4.60605,0.36362 1.45454,1.45454 -0.72726,2.72728 V -2.72728 C 1.45454,-1.45454 4.60605,-0.36362 6.54549,0"
                   style="fill:#808080;fill-opacity:1;fill-rule:nonzero;stroke:none"
                   id="path190" />
              </g>
            </g>
            <g
               id="g192">
              <g
                 id="g194">
                <path
                   d="m 80.36557,-50.60225 h 52.82404 v 20.3389 H 80.36557 Z"
                   style="fill:#e0e0e0;fill-opacity:1;fill-rule:nonzero;stroke:none"
                   id="path196" />
              </g>
              <g
                 id="g198"
                 transform="translate(86.342,-42.629)">
                <g
                   id="g200">
                  <g
                     id="g202"
                     transform="translate(-185.566,-41.344)">
                    <text
                       xml:space="preserve"
                       transform="matrix(1,0,0,-1,185.566,41.344)"
                       style="font-variant:normal;font-size:8.96638px;font-family:'Nimbus Sans';-inkscape-font-specification:NimbusSanL-Regu;writing-mode:lr-tb;fill:#000000;fill-opacity:1;fill-rule:nonzero;stroke:none"
                       id="text206"><tspan
                         x="0 6.4737263 11.459034 13.951687 21.429647 26.414955 31.400263 36.385571"
                         y="0"
                         id="tspan204">Datagaps</tspan></text>
                    <g
                       id="g208"
                       transform="translate(185.566,41.344)" />
                  </g>
                </g>
                <g
                   id="g210"
                   transform="translate(-86.342,42.629)" />
              </g>
            </g>
          </g>
          <g
             id="g212">
            <path
               d="M 172.447,0 H 68.51262 v 29.2615"
               style="fill:none;stroke:#808080;stroke-width:1.49442;stroke-linecap:butt;stroke-linejoin:miter;stroke-miterlimit:10;stroke-dasharray:none;stroke-opacity:1"
               id="path214" />
            <g
               id="g216"
               transform="rotate(90,19.62556,48.88706)">
              <g
                 id="g218">
                <path
                   d="M 6.54549,0 C 4.60605,0.36362 1.45454,1.45454 -0.72726,2.72728 V -2.72728 C 1.45454,-1.45454 4.60605,-0.36362 6.54549,0"
                   style="fill:#808080;fill-opacity:1;fill-rule:nonzero;stroke:none"
                   id="path220" />
              </g>
            </g>
            <g
               id="g222">
              <g
                 id="g224">
                <path
                   d="m 80.92755,-9.22346 h 79.10452 V 9.22347 H 80.92755 Z"
                   style="fill:#e0e0e0;fill-opacity:1;fill-rule:nonzero;stroke:none"
                   id="path226" />
              </g>
              <g
                 id="g228"
                 transform="translate(86.904,-3.142)">
                <g
                   id="g230">
                  <g
                     id="g232"
                     transform="translate(-186.128,-80.831)">
                    <text
                       xml:space="preserve"
                       transform="matrix(1,0,0,-1,186.128,80.831)"
                       style="font-variant:normal;font-size:8.96638px;font-family:'Nimbus Sans';-inkscape-font-specification:NimbusSanL-Regu;writing-mode:lr-tb;fill:#000000;fill-opacity:1;fill-rule:nonzero;stroke:none"
                       id="text236"><tspan
                         x="0 5.3529286 10.338236 12.328773 14.319309 19.304617 24.289923 26.782578 28.773113 33.758419 41.236382 43.729034 48.212227 52.695415 57.680721 62.666031"
                         y="0"
                         id="tspan234">ValidationIssues</tspan></text>
                    <g
                       id="g238"
                       transform="translate(186.128,80.831)" />
                  </g>
                </g>
                <g
                   id="g240"
                   transform="translate(-86.904,3.142)" />
              </g>
            </g>
          </g>
          <g
             id="g242">
            <path
               d="M 335.45293,-15.96434 V -73.70186 H -68.51262 v 10.75922"
               style="fill:none;stroke:#808080;stroke-width:1.49442;stroke-linecap:butt;stroke-linejoin:miter;stroke-miterlimit:10;stroke-dasharray:none;stroke-opacity:1"
               id="path244" />
            <g
               id="g246"
               transform="rotate(90,-2.78499,-65.72763)">
              <g
                 id="g248">
                <path
                   d="M 6.54549,0 C 4.60605,0.36362 1.45454,1.45454 -0.72726,2.72728 V -2.72728 C 1.45454,-1.45454 4.60605,-0.36362 6.54549,0"
                   style="fill:#808080;fill-opacity:1;fill-rule:nonzero;stroke:none"
                   id="path250" />
              </g>
            </g>
            <g
               id="g252">
              <g
                 id="g254">
                <path
                   d="m 85.38188,-83.97444 h 96.17653 v 20.54517 H 85.38188 Z"
                   style="fill:#e0e0e0;fill-opacity:1;fill-rule:nonzero;stroke:none"
                   id="path256" />
              </g>
              <g
                 id="g258"
                 transform="translate(91.359,-76)">
                <g
                   id="g260">
                  <g
                     id="g262"
                     transform="translate(-190.583,-7.973)">
                    <text
                       xml:space="preserve"
                       transform="matrix(1,0,0,-1,190.583,7.973)"
                       style="font-variant:normal;font-size:8.96638px;font-family:'Nimbus Sans';-inkscape-font-specification:NimbusSanL-Regu;writing-mode:lr-tb;fill:#000000;fill-opacity:1;fill-rule:nonzero;stroke:none"
                       id="text266"><tspan
                         x="0 5.5322566 10.517564 13.503368 15.727031 20.712337 23.913336 31.38233 36.367638 41.352943 45.836136 53.314095 55.806747 60.792057 65.275246 67.265785 72.251091 77.236397 79.72905"
                         y="0"
                         id="tspan264">PerformanceInsights</tspan></text>
                    <g
                       id="g268"
                       transform="translate(190.583,7.973)" />
                  </g>
                </g>
                <g
                   id="g270"
                   transform="translate(-91.359,76)" />
              </g>
            </g>
          </g>
          <g
             id="g272">
            <path
               d="M 233.87294,0 H 271.6726 V 29.2615"
               style="fill:none;stroke:#808080;stroke-width:1.49442;stroke-linecap:butt;stroke-linejoin:miter;stroke-miterlimit:10;stroke-dasharray:none;stroke-opacity:1"
               id="path274" />
            <g
               id="g276"
               transform="rotate(90,121.20555,150.46705)">
              <g
                 id="g278">
                <path
                   d="M 6.54549,0 C 4.60605,0.36362 1.45454,1.45454 -0.72726,2.72728 V -2.72728 C 1.45454,-1.45454 4.60605,-0.36362 6.54549,0"
                   style="fill:#808080;fill-opacity:1;fill-rule:nonzero;stroke:none"
                   id="path280" />
              </g>
            </g>
          </g>
          <g
             id="g282">
            <path
               d="m 302.38557,51.77135 h 19.67078 V 22.50984"
               style="fill:none;stroke:#808080;stroke-width:1.49442;stroke-linecap:butt;stroke-linejoin:miter;stroke-miterlimit:10;stroke-dasharray:none;stroke-opacity:1"
               id="path284" />
            <g
               id="g286"
               transform="rotate(-90,172.28309,-149.77325)">
              <g
                 id="g288">
                <path
                   d="M 6.54549,0 C 4.60605,0.36362 1.45454,1.45454 -0.72726,2.72728 V -2.72728 C 1.45454,-1.45454 4.60605,-0.36362 6.54549,0"
                   style="fill:#808080;fill-opacity:1;fill-rule:nonzero;stroke:none"
                   id="path290" />
              </g>
            </g>
          </g>
          <g
             id="g292">
            <path
               d="M 335.45293,15.96434 V 96.37897 H 68.51262 V 74.28119"
               style="fill:none;stroke:#808080;stroke-width:1.49442;stroke-linecap:butt;stroke-linejoin:miter;stroke-miterlimit:10;stroke-dasharray:none;stroke-opacity:1"
               id="path294" />
            <g
               id="g296"
               transform="rotate(-90,71.396905,2.884285)">
              <g
                 id="g298">
                <path
                   d="M 6.54549,0 C 4.60605,0.36362 1.45454,1.45454 -0.72726,2.72728 V -2.72728 C 1.45454,-1.45454 4.60605,-0.36362 6.54549,0"
                   style="fill:#808080;fill-opacity:1;fill-rule:nonzero;stroke:none"
                   id="path300" />
              </g>
            </g>
            <g
               id="g302">
              <g
                 id="g304">
                <path
                   d="m 165.85565,86.26335 h 72.25424 v 20.23125 h -72.25424 z"
                   style="fill:#e0e0e0;fill-opacity:1;fill-rule:nonzero;stroke:none"
                   id="path306" />
              </g>
              <g
                 id="g308"
                 transform="translate(171.831,94.128)">
                <g
                   id="g310">
                  <g
                     id="g312"
                     transform="translate(-271.055,-178.101)">
                    <text
                       xml:space="preserve"
                       transform="matrix(1,0,0,-1,271.055,178.101)"
                       style="font-variant:normal;font-size:8.96638px;font-family:'Nimbus Sans';-inkscape-font-specification:NimbusSanL-Regu;writing-mode:lr-tb;fill:#000000;fill-opacity:1;fill-rule:nonzero;stroke:none"
                       id="text316"><tspan
                         x="0 7.4689946 12.454302 17.43961 22.424917 26.908106 33.381832 38.367142 43.352448 48.337753 50.83041 55.815716"
                         y="0"
                         id="tspan314">ModelUpdates</tspan></text>
                    <g
                       id="g318"
                       transform="translate(271.055,178.101)" />
                  </g>
                </g>
                <g
                   id="g320"
                   transform="translate(-171.831,-94.128)" />
              </g>
            </g>
          </g>
          <g
             id="g322">
            <path
               d="M 348.8495,15.96434 V 129.35158 H -9.21744 V 22.50984"
               style="fill:none;stroke:#808080;stroke-width:1.49442;stroke-linecap:butt;stroke-linejoin:miter;stroke-miterlimit:10;stroke-dasharray:none;stroke-opacity:1"
               id="path324" />
            <g
               id="g326"
               transform="rotate(-90,6.6462,15.86364)">
              <g
                 id="g328">
                <path
                   d="M 6.54549,0 C 4.60605,0.36362 1.45454,1.45454 -0.72726,2.72728 V -2.72728 C 1.45454,-1.45454 4.60605,-0.36362 6.54549,0"
                   style="fill:#808080;fill-opacity:1;fill-rule:nonzero;stroke:none"
                   id="path330" />
              </g>
            </g>
            <g
               id="g332">
              <g
                 id="g334">
                <path
                   d="m 124.96915,119.13281 h 89.69376 v 20.4375 h -89.69376 z"
                   style="fill:#e0e0e0;fill-opacity:1;fill-rule:nonzero;stroke:none"
                   id="path336" />
              </g>
              <g
                 id="g338"
                 transform="translate(130.945,126.997)">
                <g
                   id="g340">
                  <g
                     id="g342"
                     transform="translate(-230.169,-210.97)">
                    <text
                       xml:space="preserve"
                       transform="matrix(1,0,0,-1,230.169,210.97)"
                       style="font-variant:normal;font-size:8.96638px;font-family:'Nimbus Sans';-inkscape-font-specification:NimbusSanL-Regu;writing-mode:lr-tb;fill:#000000;fill-opacity:1;fill-rule:nonzero;stroke:none"
                       id="text346"><tspan
                         x="0 6.4737263 11.459034 13.951687 21.429647 28.405493 33.3908 38.376106 40.366642 42.357178 44.849834 51.825676 54.318329 58.801521 63.28471 68.27002 73.255325"
                         y="0"
                         id="tspan344">DataQualityIssues</tspan></text>
                    <g
                       id="g348"
                       transform="translate(230.169,210.97)" />
                  </g>
                </g>
                <g
                   id="g350"
                   transform="translate(-130.945,-126.997)" />
              </g>
            </g>
          </g>
          <g
             id="g352">
            <path
               d="M 99.22559,40.59282 H 203.15997 V 22.50984"
               style="fill:none;stroke:#808080;stroke-width:1.49442;stroke-linecap:butt;stroke-linejoin:miter;stroke-miterlimit:10;stroke-dasharray:none;stroke-opacity:1"
               id="path354" />
            <g
               id="g356"
               transform="rotate(-90,112.8349,-90.325065)">
              <g
                 id="g358">
                <path
                   d="M 6.54549,0 C 4.60605,0.36362 1.45454,1.45454 -0.72726,2.72728 V -2.72728 C 1.45454,-1.45454 4.60605,-0.36362 6.54549,0"
                   style="fill:#808080;fill-opacity:1;fill-rule:nonzero;stroke:none"
                   id="path360" />
              </g>
            </g>
          </g>
          <g
             id="g362">
            <path
               d="M 240.95964,62.94987 H 105.77109"
               style="fill:none;stroke:#808080;stroke-width:1.49442;stroke-linecap:butt;stroke-linejoin:miter;stroke-miterlimit:10;stroke-dasharray:none;stroke-opacity:1"
               id="path364" />
            <g
               id="g366"
               transform="rotate(180,52.885545,31.474935)">
              <g
                 id="g368">
                <path
                   d="M 6.54549,0 C 4.60605,0.36362 1.45454,1.45454 -0.72726,2.72728 V -2.72728 C 1.45454,-1.45454 4.60605,-0.36362 6.54549,0"
                   style="fill:#808080;fill-opacity:1;fill-rule:nonzero;stroke:none"
                   id="path370" />
              </g>
            </g>
            <g
               id="g372">
              <g
                 id="g374">
                <path
                   d="m 116.45859,52.73112 h 107.26804 v 20.4375 H 116.45859 Z"
                   style="fill:#e0e0e0;fill-opacity:1;fill-rule:nonzero;stroke:none"
                   id="path376" />
              </g>
              <g
                 id="g378"
                 transform="translate(122.435,60.596)">
                <g
                   id="g380">
                  <g
                     id="g382"
                     transform="translate(-221.659,-144.569)">
                    <text
                       xml:space="preserve"
                       transform="matrix(1,0,0,-1,221.659,144.569)"
                       style="font-variant:normal;font-size:8.96638px;font-family:'Nimbus Sans';-inkscape-font-specification:NimbusSanL-Regu;writing-mode:lr-tb;fill:#000000;fill-opacity:1;fill-rule:nonzero;stroke:none"
                       id="text386"><tspan
                         x="0 6.4737263 11.459034 16.444342 18.434877 23.151194 27.634382 35.103378 40.088684 45.073994 50.050335 56.524059 61.509365 66.494675 70.977867 73.47052 76.375626 81.360931 83.351471 88.336777 90.82943"
                         y="0"
                         id="tspan384">DeploymentConstraints</tspan></text>
                    <g
                       id="g388"
                       transform="translate(221.659,144.569)" />
                  </g>
                </g>
                <g
                   id="g390"
                   transform="translate(-122.435,-60.596)" />
              </g>
            </g>
          </g>
        </g>
      </g>
    </g>
  </g>
</svg>
