<?xml version="1.0" encoding="utf-8" standalone="no"?>
<!DOCTYPE svg PUBLIC "-//W3C//DTD SVG 1.1//EN"
  "http://www.w3.org/Graphics/SVG/1.1/DTD/svg11.dtd">
<svg xmlns:xlink="http://www.w3.org/1999/xlink" width="69.84pt" height="35.0352pt" viewBox="0 0 69.84 35.0352" xmlns="http://www.w3.org/2000/svg" version="1.1">
 <metadata>
  <rdf:RDF xmlns:dc="http://purl.org/dc/elements/1.1/" xmlns:cc="http://creativecommons.org/ns#" xmlns:rdf="http://www.w3.org/1999/02/22-rdf-syntax-ns#">
   <cc:Work>
    <dc:type rdf:resource="http://purl.org/dc/dcmitype/StillImage"/>
    <dc:format>image/svg+xml</dc:format>
    <dc:creator>
     <cc:Agent>
      <dc:title>Matplotlib v3.10.8, https://matplotlib.org/</dc:title>
     </cc:Agent>
    </dc:creator>
   </cc:Work>
  </rdf:RDF>
 </metadata>
 <defs>
  <style type="text/css">*{stroke-linejoin: round; stroke-linecap: butt}</style>
 </defs>
 <g id="figure_1">
  <g id="patch_1">
   <path d="M 0 35.0352
L 69.84 35.0352
L 69.84 0
L 0 0
z
" style="fill: #ffffff"/>
  </g>
  <g id="axes_1">
   <g id="patch_2">
    <path d="M 1.44 33.5952
L 68.4 33.5952
L 68.4 1.44
L 1.44 1.44
z
" style="fill: #ffffff"/>
   </g>
   <g id="patch_3">
    <path d="M 16.1712 33.5952
L 60.3648 33.5952
L 60.3648 1.44
L 16.1712 1.44
z
" clip-path="url(#pac4a6bb8c1)" style="fill: #f2d7d5; opacity: 0.36; stroke: #f2d7d5; stroke-linejoin: miter"/>
   </g>
   <g id="matplotlib.axis_1"/>
   <g id="matplotlib.axis_2"/>
   <g id="line2d_1">
    <path d="M 8.136 18.160704
L 60.3648 18.160704
" clip-path="url(#pac4a6bb8c1)" style="fill: none; stroke: #cccccc; stroke-width: 0.75; stroke-linecap: square"/>
   </g>
   <g id="line2d_2">
    <path d="M 16.1712 33.5952
L 16.1712 1.44
" clip-path="url(#pac4a6bb8c1)" style="fill: none; stroke-dasharray: 2.59,1.12; stroke-dashoffset: 0; stroke: #cb202d; stroke-width: 0.7"/>
   </g>
   <g id="line2d_3">
    <defs>
     <path id="m9999877e65" d="M 0 1.9
C 0.503886 1.9 0.987202 1.699804 1.343503 1.343503
C 1.699804 0.987202 1.9 0.503886 1.9 0
C 1.9 -0.503886 1.699804 -0.987202 1.343503 -1.343503
C 0.987202 -1.699804 0.503886 -1.9 0 -1.9
C -0.503886 -1.9 -0.987202 -1.699804 -1.343503 -1.343503
C -1.699804 -0.987202 -1.9 -0.503886 -1.9 0
C -1.9 0.503886 -1.699804 0.987202 -1.343503 1.343503
C -0.987202 1.699804 -0.503886 1.9 0 1.9
z
" style="stroke: #cb202d"/>
    </defs>
    <g clip-path="url(#pac4a6bb8c1)">
     <use xlink:href="#m9999877e65" x="58.356" y="18.160704" style="fill: #cb202d; stroke: #cb202d"/>
    </g>
   </g>
   <g id="text_1">
    <!-- 50ms -->
    <g style="fill: #cb202d" transform="translate(2.579881 10.119321) scale(0.046 -0.046)">
     <defs>
      <path id="Helvetica-35" d="M 791 1141
Q 847 659 1238 475
Q 1438 381 1700 381
Q 2200 381 2440 700
Q 2681 1019 2681 1406
Q 2681 1875 2395 2131
Q 2109 2388 1709 2388
Q 1419 2388 1211 2275
Q 1003 2163 856 1963
L 369 1991
L 709 4400
L 3034 4400
L 3034 3856
L 1131 3856
L 941 2613
Q 1097 2731 1238 2791
Q 1488 2894 1816 2894
Q 2431 2894 2859 2497
Q 3288 2100 3288 1491
Q 3288 856 2895 371
Q 2503 -113 1644 -113
Q 1097 -113 676 195
Q 256 503 206 1141
L 791 1141
z
" transform="scale(0.015625)"/>
      <path id="Helvetica-30" d="M 1731 4475
Q 2600 4475 2988 3759
Q 3288 3206 3288 2244
Q 3288 1331 3016 734
Q 2622 -122 1728 -122
Q 922 -122 528 578
Q 200 1163 200 2147
Q 200 2909 397 3456
Q 766 4475 1731 4475
z
M 1725 391
Q 2163 391 2422 778
Q 2681 1166 2681 2222
Q 2681 2984 2493 3476
Q 2306 3969 1766 3969
Q 1269 3969 1039 3501
Q 809 3034 809 2125
Q 809 1441 956 1025
Q 1181 391 1725 391
z
" transform="scale(0.015625)"/>
      <path id="Helvetica-6d" d="M 413 3347
L 969 3347
L 969 2872
Q 1169 3119 1331 3231
Q 1609 3422 1963 3422
Q 2363 3422 2606 3225
Q 2744 3113 2856 2894
Q 3044 3163 3297 3292
Q 3550 3422 3866 3422
Q 4541 3422 4784 2934
Q 4916 2672 4916 2228
L 4916 0
L 4331 0
L 4331 2325
Q 4331 2659 4164 2784
Q 3997 2909 3756 2909
Q 3425 2909 3186 2687
Q 2947 2466 2947 1947
L 2947 0
L 2375 0
L 2375 2184
Q 2375 2525 2294 2681
Q 2166 2916 1816 2916
Q 1497 2916 1236 2669
Q 975 2422 975 1775
L 975 0
L 413 0
L 413 3347
z
" transform="scale(0.015625)"/>
      <path id="Helvetica-73" d="M 747 1050
Q 772 769 888 619
Q 1100 347 1625 347
Q 1938 347 2175 483
Q 2413 619 2413 903
Q 2413 1119 2222 1231
Q 2100 1300 1741 1391
L 1294 1503
Q 866 1609 663 1741
Q 300 1969 300 2372
Q 300 2847 642 3140
Q 984 3434 1563 3434
Q 2319 3434 2653 2991
Q 2863 2709 2856 2384
L 2325 2384
Q 2309 2575 2191 2731
Q 1997 2953 1519 2953
Q 1200 2953 1036 2831
Q 872 2709 872 2509
Q 872 2291 1088 2159
Q 1213 2081 1456 2022
L 1828 1931
Q 2434 1784 2641 1647
Q 2969 1431 2969 969
Q 2969 522 2630 197
Q 2291 -128 1597 -128
Q 850 -128 539 211
Q 228 550 206 1050
L 747 1050
z
M 1578 3428
L 1578 3428
z
" transform="scale(0.015625)"/>
     </defs>
     <use xlink:href="#Helvetica-35"/>
     <use xlink:href="#Helvetica-30" transform="translate(55.615234 0)"/>
     <use xlink:href="#Helvetica-6d" transform="translate(111.230469 0)"/>
     <use xlink:href="#Helvetica-73" transform="translate(194.53125 0)"/>
    </g>
    <!-- SLO -->
    <g style="fill: #cb202d" transform="translate(4.623287 15.037871) scale(0.046 -0.046)">
     <defs>
      <path id="Helvetica-53" d="M 894 1481
Q 916 1091 1078 847
Q 1388 391 2169 391
Q 2519 391 2806 491
Q 3363 684 3363 1184
Q 3363 1559 3128 1719
Q 2891 1875 2384 1991
L 1763 2131
Q 1153 2269 900 2434
Q 463 2722 463 3294
Q 463 3913 891 4309
Q 1319 4706 2103 4706
Q 2825 4706 3329 4357
Q 3834 4009 3834 3244
L 3250 3244
Q 3203 3613 3050 3809
Q 2766 4169 2084 4169
Q 1534 4169 1293 3937
Q 1053 3706 1053 3400
Q 1053 3063 1334 2906
Q 1519 2806 2169 2656
L 2813 2509
Q 3278 2403 3531 2219
Q 3969 1897 3969 1284
Q 3969 522 3414 194
Q 2859 -134 2125 -134
Q 1269 -134 784 303
Q 300 738 309 1481
L 894 1481
z
M 2150 4716
L 2150 4716
z
" transform="scale(0.015625)"/>
      <path id="Helvetica-4c" d="M 488 4591
L 1109 4591
L 1109 547
L 3434 547
L 3434 0
L 488 0
L 488 4591
z
" transform="scale(0.015625)"/>
      <path id="Helvetica-4f" d="M 2469 4716
Q 3684 4716 4269 3934
Q 4725 3325 4725 2375
Q 4725 1347 4203 666
Q 3591 -134 2456 -134
Q 1397 -134 791 566
Q 250 1241 250 2272
Q 250 3203 713 3866
Q 1306 4716 2469 4716
z
M 2531 422
Q 3353 422 3720 1011
Q 4088 1600 4088 2366
Q 4088 3175 3664 3669
Q 3241 4163 2506 4163
Q 1794 4163 1344 3673
Q 894 3184 894 2231
Q 894 1469 1280 945
Q 1666 422 2531 422
z
M 2488 4716
L 2488 4716
z
" transform="scale(0.015625)"/>
     </defs>
     <use xlink:href="#Helvetica-53"/>
     <use xlink:href="#Helvetica-4c" transform="translate(66.699219 0)"/>
     <use xlink:href="#Helvetica-4f" transform="translate(122.314453 0)"/>
    </g>
   </g>
   <g id="text_2">
    <!-- load -->
    <g style="fill: #cb202d" transform="translate(48.320644 23.302953) scale(0.046 -0.046)">
     <defs>
      <path id="Helvetica-6c" d="M 428 4591
L 991 4591
L 991 0
L 428 0
L 428 4591
z
" transform="scale(0.015625)"/>
      <path id="Helvetica-6f" d="M 1741 363
Q 2300 363 2508 786
Q 2716 1209 2716 1728
Q 2716 2197 2566 2491
Q 2328 2953 1747 2953
Q 1231 2953 997 2559
Q 763 2166 763 1609
Q 763 1075 997 719
Q 1231 363 1741 363
z
M 1763 3444
Q 2409 3444 2856 3012
Q 3303 2581 3303 1744
Q 3303 934 2909 406
Q 2516 -122 1688 -122
Q 997 -122 590 345
Q 184 813 184 1600
Q 184 2444 612 2944
Q 1041 3444 1763 3444
z
M 1744 3428
L 1744 3428
z
" transform="scale(0.015625)"/>
      <path id="Helvetica-61" d="M 844 891
Q 844 647 1022 506
Q 1200 366 1444 366
Q 1741 366 2019 503
Q 2488 731 2488 1250
L 2488 1703
Q 2384 1638 2221 1594
Q 2059 1550 1903 1531
L 1563 1488
Q 1256 1447 1103 1359
Q 844 1213 844 891
z
M 2206 2028
Q 2400 2053 2466 2191
Q 2503 2266 2503 2406
Q 2503 2694 2298 2823
Q 2094 2953 1713 2953
Q 1272 2953 1088 2716
Q 984 2584 953 2325
L 428 2325
Q 444 2944 830 3186
Q 1216 3428 1725 3428
Q 2316 3428 2684 3203
Q 3050 2978 3050 2503
L 3050 575
Q 3050 488 3086 434
Q 3122 381 3238 381
Q 3275 381 3322 386
Q 3369 391 3422 400
L 3422 -16
Q 3291 -53 3222 -62
Q 3153 -72 3034 -72
Q 2744 -72 2613 134
Q 2544 244 2516 444
Q 2344 219 2022 53
Q 1700 -113 1313 -113
Q 847 -113 551 170
Q 256 453 256 878
Q 256 1344 547 1600
Q 838 1856 1309 1916
L 2206 2028
z
M 1741 3428
L 1741 3428
z
" transform="scale(0.015625)"/>
      <path id="Helvetica-64" d="M 769 1634
Q 769 1097 997 734
Q 1225 372 1728 372
Q 2119 372 2370 708
Q 2622 1044 2622 1672
Q 2622 2306 2362 2611
Q 2103 2916 1722 2916
Q 1297 2916 1033 2591
Q 769 2266 769 1634
z
M 1616 3406
Q 2000 3406 2259 3244
Q 2409 3150 2600 2916
L 2600 4606
L 3141 4606
L 3141 0
L 2634 0
L 2634 466
Q 2438 156 2169 18
Q 1900 -119 1553 -119
Q 994 -119 584 351
Q 175 822 175 1603
Q 175 2334 548 2870
Q 922 3406 1616 3406
z
" transform="scale(0.015625)"/>
     </defs>
     <use xlink:href="#Helvetica-6c"/>
     <use xlink:href="#Helvetica-6f" transform="translate(22.216797 0)"/>
     <use xlink:href="#Helvetica-61" transform="translate(77.832031 0)"/>
     <use xlink:href="#Helvetica-64" transform="translate(133.447266 0)"/>
    </g>
    <!-- 312ms -->
    <g style="fill: #cb202d" transform="translate(43.21105 28.221503) scale(0.046 -0.046)">
     <defs>
      <path id="Helvetica-33" d="M 1663 -122
Q 869 -122 511 314
Q 153 750 153 1375
L 741 1375
Q 778 941 903 744
Q 1122 391 1694 391
Q 2138 391 2406 628
Q 2675 866 2675 1241
Q 2675 1703 2392 1887
Q 2109 2072 1606 2072
Q 1550 2072 1492 2070
Q 1434 2069 1375 2066
L 1375 2563
Q 1463 2553 1522 2550
Q 1581 2547 1650 2547
Q 1966 2547 2169 2647
Q 2525 2822 2525 3272
Q 2525 3606 2287 3787
Q 2050 3969 1734 3969
Q 1172 3969 956 3594
Q 838 3388 822 3006
L 266 3006
Q 266 3506 466 3856
Q 809 4481 1675 4481
Q 2359 4481 2734 4176
Q 3109 3872 3109 3294
Q 3109 2881 2888 2625
Q 2750 2466 2531 2375
Q 2884 2278 3082 2001
Q 3281 1725 3281 1325
Q 3281 684 2859 281
Q 2438 -122 1663 -122
z
" transform="scale(0.015625)"/>
      <path id="Helvetica-31" d="M 613 3169
L 613 3600
Q 1222 3659 1462 3798
Q 1703 3938 1822 4456
L 2266 4456
L 2266 0
L 1666 0
L 1666 3169
L 613 3169
z
" transform="scale(0.015625)"/>
      <path id="Helvetica-32" d="M 200 0
Q 231 578 439 1006
Q 647 1434 1250 1784
L 1850 2131
Q 2253 2366 2416 2531
Q 2672 2791 2672 3125
Q 2672 3516 2437 3745
Q 2203 3975 1813 3975
Q 1234 3975 1013 3538
Q 894 3303 881 2888
L 309 2888
Q 319 3472 525 3841
Q 891 4491 1816 4491
Q 2584 4491 2939 4075
Q 3294 3659 3294 3150
Q 3294 2613 2916 2231
Q 2697 2009 2131 1694
L 1703 1456
Q 1397 1288 1222 1134
Q 909 863 828 531
L 3272 531
L 3272 0
L 200 0
z
" transform="scale(0.015625)"/>
     </defs>
     <use xlink:href="#Helvetica-33"/>
     <use xlink:href="#Helvetica-31" transform="translate(55.615234 0)"/>
     <use xlink:href="#Helvetica-32" transform="translate(111.230469 0)"/>
     <use xlink:href="#Helvetica-6d" transform="translate(166.845703 0)"/>
     <use xlink:href="#Helvetica-73" transform="translate(250.146484 0)"/>
    </g>
   </g>
   <g id="text_3">
    <!-- model swap -->
    <g style="fill: #333333" transform="translate(21.580938 6.576749) scale(0.05 -0.05)">
     <defs>
      <path id="Helvetica-65" d="M 1806 3422
Q 2163 3422 2497 3255
Q 2831 3088 3006 2822
Q 3175 2569 3231 2231
Q 3281 2000 3281 1494
L 828 1494
Q 844 984 1069 676
Q 1294 369 1766 369
Q 2206 369 2469 659
Q 2619 828 2681 1050
L 3234 1050
Q 3213 866 3089 639
Q 2966 413 2813 269
Q 2556 19 2178 -69
Q 1975 -119 1719 -119
Q 1094 -119 659 336
Q 225 791 225 1609
Q 225 2416 662 2919
Q 1100 3422 1806 3422
z
M 2703 1941
Q 2669 2306 2544 2525
Q 2313 2931 1772 2931
Q 1384 2931 1121 2651
Q 859 2372 844 1941
L 2703 1941
z
M 1753 3428
L 1753 3428
z
" transform="scale(0.015625)"/>
      <path id="Helvetica-20" transform="scale(0.015625)"/>
      <path id="Helvetica-77" d="M 672 3347
L 1316 709
L 1969 3347
L 2600 3347
L 3256 725
L 3941 3347
L 4503 3347
L 3531 0
L 2947 0
L 2266 2591
L 1606 0
L 1022 0
L 56 3347
L 672 3347
z
" transform="scale(0.015625)"/>
      <path id="Helvetica-70" d="M 1825 378
Q 2219 378 2480 708
Q 2741 1038 2741 1694
Q 2741 2094 2625 2381
Q 2406 2934 1825 2934
Q 1241 2934 1025 2350
Q 909 2038 909 1556
Q 909 1169 1025 897
Q 1244 378 1825 378
z
M 369 3331
L 916 3331
L 916 2888
Q 1084 3116 1284 3241
Q 1569 3428 1953 3428
Q 2522 3428 2919 2992
Q 3316 2556 3316 1747
Q 3316 653 2744 184
Q 2381 -113 1900 -113
Q 1522 -113 1266 53
Q 1116 147 931 375
L 931 -1334
L 369 -1334
L 369 3331
z
" transform="scale(0.015625)"/>
     </defs>
     <use xlink:href="#Helvetica-6d"/>
     <use xlink:href="#Helvetica-6f" transform="translate(83.300781 0)"/>
     <use xlink:href="#Helvetica-64" transform="translate(138.916016 0)"/>
     <use xlink:href="#Helvetica-65" transform="translate(194.53125 0)"/>
     <use xlink:href="#Helvetica-6c" transform="translate(250.146484 0)"/>
     <use xlink:href="#Helvetica-20" transform="translate(272.363281 0)"/>
     <use xlink:href="#Helvetica-73" transform="translate(300.146484 0)"/>
     <use xlink:href="#Helvetica-77" transform="translate(350.146484 0)"/>
     <use xlink:href="#Helvetica-61" transform="translate(422.363281 0)"/>
     <use xlink:href="#Helvetica-70" transform="translate(477.978516 0)"/>
    </g>
   </g>
  </g>
 </g>
 <defs>
  <clipPath id="pac4a6bb8c1">
   <rect x="1.44" y="1.44" width="66.96" height="32.1552"/>
  </clipPath>
 </defs>
</svg>
