<?xml version="1.0" encoding="utf-8" standalone="no"?>
<!DOCTYPE svg PUBLIC "-//W3C//DTD SVG 1.1//EN"
  "http://www.w3.org/Graphics/SVG/1.1/DTD/svg11.dtd">
<svg xmlns:xlink="http://www.w3.org/1999/xlink" width="75.42pt" height="66.636pt" viewBox="0 0 75.42 66.636" xmlns="http://www.w3.org/2000/svg" version="1.1">
 <metadata>
  <rdf:RDF xmlns:dc="http://purl.org/dc/elements/1.1/" xmlns:cc="http://creativecommons.org/ns#" xmlns:rdf="http://www.w3.org/1999/02/22-rdf-syntax-ns#">
   <cc:Work>
    <dc:type rdf:resource="http://purl.org/dc/dcmitype/StillImage"/>
    <dc:format>image/svg+xml</dc:format>
    <dc:creator>
     <cc:Agent>
      <dc:title>Matplotlib v3.10.8, https://matplotlib.org/</dc:title>
     </cc:Agent>
    </dc:creator>
   </cc:Work>
  </rdf:RDF>
 </metadata>
 <defs>
  <style type="text/css">*{stroke-linejoin: round; stroke-linecap: butt}</style>
 </defs>
 <g id="figure_1">
  <g id="patch_1">
   <path d="M 0 66.636
L 75.42 66.636
L 75.42 0
L 0 0
z
" style="fill: #ffffff"/>
  </g>
  <g id="axes_1">
   <g id="patch_2">
    <path d="M 1.44 65.196
L 73.98 65.196
L 73.98 1.44
L 1.44 1.44
z
" style="fill: #ffffff"/>
   </g>
   <g id="matplotlib.axis_1">
    <g id="xtick_1">
     <g id="line2d_1"/>
    </g>
    <g id="xtick_2">
     <g id="line2d_2"/>
    </g>
    <g id="xtick_3">
     <g id="line2d_3"/>
    </g>
    <g id="xtick_4">
     <g id="line2d_4"/>
    </g>
    <g id="xtick_5">
     <g id="line2d_5"/>
    </g>
    <g id="xtick_6">
     <g id="line2d_6"/>
    </g>
    <g id="xtick_7">
     <g id="line2d_7"/>
    </g>
    <g id="xtick_8">
     <g id="line2d_8"/>
    </g>
    <g id="xtick_9">
     <g id="line2d_9"/>
    </g>
    <g id="xtick_10">
     <g id="line2d_10"/>
    </g>
    <g id="xtick_11">
     <g id="line2d_11"/>
    </g>
    <g id="xtick_12">
     <g id="line2d_12"/>
    </g>
    <g id="xtick_13">
     <g id="line2d_13"/>
    </g>
    <g id="xtick_14">
     <g id="line2d_14"/>
    </g>
    <g id="xtick_15">
     <g id="line2d_15"/>
    </g>
    <g id="xtick_16">
     <g id="line2d_16"/>
    </g>
    <g id="xtick_17">
     <g id="line2d_17"/>
    </g>
    <g id="xtick_18">
     <g id="line2d_18"/>
    </g>
    <g id="xtick_19">
     <g id="line2d_19"/>
    </g>
    <g id="xtick_20">
     <g id="line2d_20"/>
    </g>
    <g id="xtick_21">
     <g id="line2d_21"/>
    </g>
    <g id="xtick_22">
     <g id="line2d_22"/>
    </g>
    <g id="xtick_23">
     <g id="line2d_23"/>
    </g>
    <g id="xtick_24">
     <g id="line2d_24"/>
    </g>
   </g>
   <g id="matplotlib.axis_2">
    <g id="ytick_1">
     <g id="line2d_25"/>
    </g>
    <g id="ytick_2">
     <g id="line2d_26"/>
    </g>
    <g id="ytick_3">
     <g id="line2d_27"/>
    </g>
    <g id="ytick_4">
     <g id="line2d_28"/>
    </g>
    <g id="ytick_5">
     <g id="line2d_29"/>
    </g>
    <g id="ytick_6">
     <g id="line2d_30"/>
    </g>
    <g id="ytick_7">
     <g id="line2d_31"/>
    </g>
    <g id="ytick_8">
     <g id="line2d_32"/>
    </g>
    <g id="ytick_9">
     <g id="line2d_33"/>
    </g>
    <g id="ytick_10">
     <g id="line2d_34"/>
    </g>
    <g id="ytick_11">
     <g id="line2d_35"/>
    </g>
    <g id="ytick_12">
     <g id="line2d_36"/>
    </g>
    <g id="ytick_13">
     <g id="line2d_37"/>
    </g>
    <g id="ytick_14">
     <g id="line2d_38"/>
    </g>
    <g id="ytick_15">
     <g id="line2d_39"/>
    </g>
    <g id="ytick_16">
     <g id="line2d_40"/>
    </g>
    <g id="ytick_17">
     <g id="line2d_41"/>
    </g>
    <g id="ytick_18">
     <g id="line2d_42"/>
    </g>
    <g id="ytick_19">
     <g id="line2d_43"/>
    </g>
    <g id="ytick_20">
     <g id="line2d_44"/>
    </g>
    <g id="ytick_21">
     <g id="line2d_45"/>
    </g>
    <g id="ytick_22">
     <g id="line2d_46"/>
    </g>
    <g id="ytick_23">
     <g id="line2d_47"/>
    </g>
   </g>
   <g id="line2d_48">
    <path d="M 1.44 54.246509
L 50.305858 8.452443
L 50.305858 8.452443
" clip-path="url(#pb95f9e5162)" style="fill: none; stroke: #006395; stroke-width: 1.45; stroke-linecap: square"/>
   </g>
   <g id="line2d_49">
    <path d="M 50.609372 8.34836
L 50.912887 8.34836
L 51.216402 8.34836
L 51.519916 8.34836
L 51.823431 8.34836
L 52.126946 8.34836
L 52.43046 8.34836
L 52.733975 8.34836
L 53.03749 8.34836
L 53.341004 8.34836
L 53.644519 8.34836
L 53.948033 8.34836
L 54.251548 8.34836
L 54.555063 8.34836
L 54.858577 8.34836
L 55.162092 8.34836
L 55.465607 8.34836
L 55.769121 8.34836
L 56.072636 8.34836
L 56.376151 8.34836
L 56.679665 8.34836
L 56.98318 8.34836
L 57.286695 8.34836
L 57.590209 8.34836
L 57.893724 8.34836
L 58.197238 8.34836
L 58.500753 8.34836
L 58.804268 8.34836
L 59.107782 8.34836
L 59.411297 8.34836
L 59.714812 8.34836
L 60.018326 8.34836
L 60.321841 8.34836
L 60.625356 8.34836
L 60.92887 8.34836
L 61.232385 8.34836
L 61.5359 8.34836
L 61.839414 8.34836
L 62.142929 8.34836
L 62.446444 8.34836
L 62.749958 8.34836
L 63.053473 8.34836
L 63.356987 8.34836
L 63.660502 8.34836
L 63.964017 8.34836
L 64.267531 8.34836
L 64.571046 8.34836
L 64.874561 8.34836
L 65.178075 8.34836
L 65.48159 8.34836
L 65.785105 8.34836
L 66.088619 8.34836
L 66.392134 8.34836
L 66.695649 8.34836
L 66.999163 8.34836
L 67.302678 8.34836
L 67.606192 8.34836
L 67.909707 8.34836
L 68.213222 8.34836
L 68.516736 8.34836
L 68.820251 8.34836
L 69.123766 8.34836
L 69.42728 8.34836
L 69.730795 8.34836
L 70.03431 8.34836
L 70.337824 8.34836
L 70.641339 8.34836
L 70.944854 8.34836
L 71.248368 8.34836
L 71.551883 8.34836
L 71.855397 8.34836
L 72.158912 8.34836
L 72.462427 8.34836
L 72.765941 8.34836
L 73.069456 8.34836
L 73.372971 8.34836
L 73.676485 8.34836
L 73.98 8.34836
" clip-path="url(#pb95f9e5162)" style="fill: none; stroke: #e67817; stroke-width: 1.45; stroke-linecap: square"/>
   </g>
   <g id="line2d_50">
    <path d="M 50.416922 65.196
L 50.416922 1.44
" clip-path="url(#pb95f9e5162)" style="fill: none; stroke-dasharray: 2.035,0.88; stroke-dashoffset: 0; stroke: #cccccc; stroke-width: 0.55"/>
   </g>
   <g id="patch_3">
    <path d="M 1.44 65.196
L 1.44 1.44
" style="fill: none; stroke: #cccccc; stroke-width: 0.55; stroke-linejoin: miter; stroke-linecap: square"/>
   </g>
   <g id="patch_4">
    <path d="M 1.44 65.196
L 73.98 65.196
" style="fill: none; stroke: #cccccc; stroke-width: 0.55; stroke-linejoin: miter; stroke-linecap: square"/>
   </g>
   <g id="text_1">
    <!-- TPOT -->
    <g style="fill: #006395" transform="translate(11.890684 36.267964) scale(0.05 -0.05)">
     <defs>
      <path id="Helvetica-54" d="M 3828 4591
L 3828 4044
L 2281 4044
L 2281 0
L 1650 0
L 1650 4044
L 103 4044
L 103 4591
L 3828 4591
z
" transform="scale(0.015625)"/>
      <path id="Helvetica-50" d="M 547 4591
L 2613 4591
Q 3225 4591 3600 4245
Q 3975 3900 3975 3275
Q 3975 2738 3640 2339
Q 3306 1941 2613 1941
L 1169 1941
L 1169 0
L 547 0
L 547 4591
z
M 3347 3272
Q 3347 3778 2972 3959
Q 2766 4056 2406 4056
L 1169 4056
L 1169 2466
L 2406 2466
Q 2825 2466 3086 2644
Q 3347 2822 3347 3272
z
" transform="scale(0.015625)"/>
      <path id="Helvetica-4f" d="M 2469 4716
Q 3684 4716 4269 3934
Q 4725 3325 4725 2375
Q 4725 1347 4203 666
Q 3591 -134 2456 -134
Q 1397 -134 791 566
Q 250 1241 250 2272
Q 250 3203 713 3866
Q 1306 4716 2469 4716
z
M 2531 422
Q 3353 422 3720 1011
Q 4088 1600 4088 2366
Q 4088 3175 3664 3669
Q 3241 4163 2506 4163
Q 1794 4163 1344 3673
Q 894 3184 894 2231
Q 894 1469 1280 945
Q 1666 422 2531 422
z
M 2488 4716
L 2488 4716
z
" transform="scale(0.015625)"/>
     </defs>
     <use xlink:href="#Helvetica-54"/>
     <use xlink:href="#Helvetica-50" transform="translate(61.083984 0)"/>
     <use xlink:href="#Helvetica-4f" transform="translate(127.783203 0)"/>
     <use xlink:href="#Helvetica-54" transform="translate(205.566406 0)"/>
    </g>
   </g>
   <g id="text_2">
    <!-- TTFT -->
    <g style="fill: #e67817" transform="translate(50.755488 15.761941) scale(0.05 -0.05)">
     <defs>
      <path id="Helvetica-46" d="M 547 4591
L 3731 4591
L 3731 4028
L 1169 4028
L 1169 2634
L 3422 2634
L 3422 2088
L 1169 2088
L 1169 0
L 547 0
L 547 4591
z
" transform="scale(0.015625)"/>
     </defs>
     <use xlink:href="#Helvetica-54"/>
     <use xlink:href="#Helvetica-54" transform="translate(61.083984 0)"/>
     <use xlink:href="#Helvetica-46" transform="translate(122.167969 0)"/>
     <use xlink:href="#Helvetica-54" transform="translate(183.251953 0)"/>
    </g>
   </g>
   <g id="line2d_51">
    <defs>
     <path id="m3a64f1ad0f" d="M 0 1.7
C 0.450845 1.7 0.883286 1.520877 1.202082 1.202082
C 1.520877 0.883286 1.7 0.450845 1.7 0
C 1.7 -0.450845 1.520877 -0.883286 1.202082 -1.202082
C 0.883286 -1.520877 0.450845 -1.7 0 -1.7
C -0.450845 -1.7 -0.883286 -1.520877 -1.202082 -1.202082
C -1.520877 -0.883286 -1.7 -0.450845 -1.7 0
C -1.7 0.450845 -1.520877 0.883286 -1.202082 1.202082
C -0.883286 1.520877 -0.450845 1.7 0 1.7
z
" style="stroke: #006395"/>
    </defs>
    <g clip-path="url(#pb95f9e5162)">
     <use xlink:href="#m3a64f1ad0f" x="18.5567" y="38.205794" style="fill: #006395; stroke: #006395"/>
    </g>
   </g>
   <g id="line2d_52">
    <defs>
     <path id="m589f3f28cf" d="M 0 1.7
C 0.450845 1.7 0.883286 1.520877 1.202082 1.202082
C 1.520877 0.883286 1.7 0.450845 1.7 0
C 1.7 -0.450845 1.520877 -0.883286 1.202082 -1.202082
C 0.883286 -1.520877 0.450845 -1.7 0 -1.7
C -0.450845 -1.7 -0.883286 -1.520877 -1.202082 -1.202082
C -1.520877 -0.883286 -1.7 -0.450845 -1.7 0
C -1.7 0.450845 -1.520877 0.883286 -1.202082 1.202082
C -0.883286 1.520877 -0.450845 1.7 0 1.7
z
" style="stroke: #e67817"/>
    </defs>
    <g clip-path="url(#pb95f9e5162)">
     <use xlink:href="#m589f3f28cf" x="56.8633" y="8.34836" style="fill: #e67817; stroke: #e67817"/>
    </g>
   </g>
  </g>
 </g>
 <defs>
  <clipPath id="pb95f9e5162">
   <rect x="1.44" y="1.44" width="72.54" height="63.756"/>
  </clipPath>
 </defs>
</svg>
