<?xml version="1.0" encoding="utf-8" standalone="no"?>
<!DOCTYPE svg PUBLIC "-//W3C//DTD SVG 1.1//EN"
  "http://www.w3.org/Graphics/SVG/1.1/DTD/svg11.dtd">
<svg xmlns:xlink="http://www.w3.org/1999/xlink" width="75.42pt" height="61.092pt" viewBox="0 0 75.42 61.092" xmlns="http://www.w3.org/2000/svg" version="1.1">
 <metadata>
  <rdf:RDF xmlns:dc="http://purl.org/dc/elements/1.1/" xmlns:cc="http://creativecommons.org/ns#" xmlns:rdf="http://www.w3.org/1999/02/22-rdf-syntax-ns#">
   <cc:Work>
    <dc:type rdf:resource="http://purl.org/dc/dcmitype/StillImage"/>
    <dc:format>image/svg+xml</dc:format>
    <dc:creator>
     <cc:Agent>
      <dc:title>Matplotlib v3.10.8, https://matplotlib.org/</dc:title>
     </cc:Agent>
    </dc:creator>
   </cc:Work>
  </rdf:RDF>
 </metadata>
 <defs>
  <style type="text/css">*{stroke-linejoin: round; stroke-linecap: butt}</style>
 </defs>
 <g id="figure_1">
  <g id="patch_1">
   <path d="M 0 61.092
L 75.42 61.092
L 75.42 0
L 0 0
z
" style="fill: #ffffff"/>
  </g>
  <g id="axes_1">
   <g id="patch_2">
    <path d="M 1.44 59.652
L 73.98 59.652
L 73.98 1.44
L 1.44 1.44
z
" style="fill: #ffffff"/>
   </g>
   <g id="matplotlib.axis_1"/>
   <g id="matplotlib.axis_2"/>
   <g id="line2d_1">
    <path d="M 1.44 58.035
L 18.058586 57.554464
L 29.373368 57.022409
L 37.505867 56.4361
L 43.516845 55.801539
L 48.113475 55.11729
L 52.002932 54.314747
L 54.831627 53.5263
L 57.306736 52.616954
L 59.428257 51.591304
L 61.196192 50.476551
L 62.61054 49.335136
L 64.024887 47.869393
L 65.085648 46.464172
L 66.146409 44.678384
L 67.20717 42.333216
L 67.914344 40.314079
L 68.621518 37.762
L 69.328691 34.433897
L 70.035865 29.912351
L 70.743039 23.415176
L 71.450213 13.285573
L 71.8038 5.752
L 71.8038 5.752
" clip-path="url(#p69016035c6)" style="fill: none; stroke: #333333; stroke-width: 1.35; stroke-linecap: square"/>
   </g>
   <g id="line2d_2">
    <path d="M 52.218 59.652
L 52.218 1.44
" clip-path="url(#p69016035c6)" style="fill: none; stroke-dasharray: 2.405,1.04; stroke-dashoffset: 0; stroke: #cb202d; stroke-width: 0.65"/>
   </g>
   <g id="line2d_3">
    <defs>
     <path id="m8b595126ea" d="M 0 1.65
C 0.437585 1.65 0.857307 1.476146 1.166726 1.166726
C 1.476146 0.857307 1.65 0.437585 1.65 0
C 1.65 -0.437585 1.476146 -0.857307 1.166726 -1.166726
C 0.857307 -1.476146 0.437585 -1.65 0 -1.65
C -0.437585 -1.65 -0.857307 -1.476146 -1.166726 -1.166726
C -1.476146 -0.857307 -1.65 -0.437585 -1.65 0
C -1.65 0.437585 -1.476146 0.857307 -1.166726 1.166726
C -0.857307 1.476146 -0.437585 1.65 0 1.65
z
" style="stroke: #cb202d"/>
    </defs>
    <g clip-path="url(#p69016035c6)">
     <use xlink:href="#m8b595126ea" x="52.218" y="54.262" style="fill: #cb202d; stroke: #cb202d"/>
    </g>
   </g>
   <g id="patch_3">
    <path d="M 1.44 59.652
L 1.44 1.44
" style="fill: none; stroke: #cccccc; stroke-width: 0.55; stroke-linejoin: miter; stroke-linecap: square"/>
   </g>
   <g id="patch_4">
    <path d="M 1.44 59.652
L 73.98 59.652
" style="fill: none; stroke: #cccccc; stroke-width: 0.55; stroke-linejoin: miter; stroke-linecap: square"/>
   </g>
   <g id="text_1">
    <!-- CI -->
    <g style="fill: #cb202d" transform="translate(43.191 46.177) scale(0.054 -0.054)">
     <defs>
      <path id="Helvetica-43" d="M 2422 4716
Q 3294 4716 3775 4256
Q 4256 3797 4309 3213
L 3703 3213
Q 3600 3656 3292 3915
Q 2984 4175 2428 4175
Q 1750 4175 1333 3698
Q 916 3222 916 2238
Q 916 1431 1292 929
Q 1669 428 2416 428
Q 3103 428 3463 956
Q 3653 1234 3747 1688
L 4353 1688
Q 4272 963 3816 472
Q 3269 -119 2341 -119
Q 1541 -119 997 366
Q 281 1006 281 2344
Q 281 3359 819 4009
Q 1400 4716 2422 4716
z
M 2297 4716
L 2297 4716
z
" transform="scale(0.015625)"/>
      <path id="Helvetica-49" d="M 628 4591
L 1256 4591
L 1256 0
L 628 0
L 628 4591
z
" transform="scale(0.015625)"/>
     </defs>
     <use xlink:href="#Helvetica-43"/>
     <use xlink:href="#Helvetica-49" transform="translate(72.216797 0)"/>
    </g>
   </g>
  </g>
 </g>
 <defs>
  <clipPath id="p69016035c6">
   <rect x="1.44" y="1.44" width="72.54" height="58.212"/>
  </clipPath>
 </defs>
</svg>
