<?xml version="1.0" encoding="UTF-8" standalone="no"?>
<!-- Created with Inkscape (http://www.inkscape.org/) -->

<svg
   version="1.1"
   id="svg1"
   width="640.83466"
   height="265.56268"
   viewBox="0 0 640.83466 265.56268"
   xmlns="http://www.w3.org/2000/svg"
   xmlns:svg="http://www.w3.org/2000/svg">
  <defs
     id="defs1" />
  <g
     id="g1">
    <path
       id="path1"
       d="M -38.8434,-14.17339 H 38.84341 V 14.1734 H -38.8434 Z"
       style="fill:#e6fec1;fill-opacity:1;fill-rule:nonzero;stroke:#008f45;stroke-width:0.74721;stroke-linecap:butt;stroke-linejoin:miter;stroke-miterlimit:10;stroke-dasharray:none;stroke-opacity:1"
       transform="matrix(1.3333333,0,0,-1.3333333,52.288,19.396)" />
    <path
       id="path2"
       d="M 4.1959297,-0.00110156 6.0357734,-5.4737578 v 5.47265624 H 6.8209297 V -6.5401641 H 5.6607734 L 3.7623359,-0.84485156 1.8287422,-6.5401641 H 0.66858594 v 6.53906254 H 1.4654609 V -5.4737578 l 1.8515625,5.47265624 z m 8.0654293,-0.43359375 c -0.08203,0.0117188 -0.117187,0.0117188 -0.152343,0.0117188 -0.269532,0 -0.410157,-0.12890625 -0.410157,-0.36328125 V -3.5518828 c 0,-0.8320313 -0.609375,-1.2773438 -1.7695309,-1.2773438 -0.6796875,0 -1.2421875,0.1875 -1.5585937,0.5390625 -0.2109375,0.2460938 -0.3046875,0.515625 -0.3164063,0.984375 h 0.75 c 0.058594,-0.5742187 0.3984375,-0.8320312 1.1015625,-0.8320312 0.6679684,0 1.0546874,0.2460937 1.0546874,0.6914062 v 0.1992188 c 0,0.3164062 -0.1875,0.4453125 -0.785156,0.515625 -1.0546876,0.140625 -1.2187501,0.1757812 -1.5000001,0.2929687 -0.5507813,0.2226563 -0.8320313,0.6445313 -0.8320313,1.2539063 0,0.85546874 0.5976563,1.39453124 1.546875,1.39453124 0.5859375,0 1.0664064,-0.2109375 1.5937504,-0.69140625 0.04687,0.46875 0.28125,0.69140625 0.773437,0.69140625 0.152344,0 0.269531,-0.0234375 0.503906,-0.0820313 z M 10.960578,-1.4776641 c 0,0.2460938 -0.08203,0.3984375 -0.304687,0.60937504 -0.304688,0.28125 -0.6679691,0.421875 -1.1132816,0.421875 -0.5742188,0 -0.9140625,-0.28125 -0.9140625,-0.76171874 0,-0.4921875 0.328125,-0.7382813 1.125,-0.8554688 0.7851561,-0.1054687 0.9492191,-0.140625 1.2070311,-0.2578125 z m 2.841797,-3.2226562 h -0.75 v 4.69921874 h 0.75 z m 0,-1.8398438 h -0.761719 v 0.9492188 h 0.761719 z m 1.274414,1.8398438 v 4.69921874 h 0.75 V -2.5909453 c 0,-0.9609375 0.503906,-1.5820313 1.265625,-1.5820313 0.597656,0 0.972656,0.3515625 0.972656,0.9140625 v 3.25781254 h 0.75 V -3.5518828 c 0,-0.7734375 -0.585937,-1.2773438 -1.488281,-1.2773438 -0.703125,0 -1.148437,0.2695313 -1.570312,0.9140625 v -0.7851562 z m 11.041992,4.69921874 1.839844,-5.47265624 v 5.47265624 h 0.785156 V -6.5401641 h -1.160156 l -1.898438,5.69531254 -1.933593,-5.69531254 h -1.160157 v 6.53906254 h 0.796875 V -5.4737578 l 1.851563,5.47265624 z m 7.866211,-2.09765624 c 0,-0.7148438 -0.04687,-1.1484375 -0.1875,-1.5 -0.304687,-0.7734375 -1.019531,-1.2304688 -1.898437,-1.2304688 -1.300782,0 -2.144532,0.9960938 -2.144532,2.5429688 0,1.54687499 0.808594,2.49609374 2.132813,2.49609374 1.066406,0 1.816406,-0.609375 2.003906,-1.64062504 h -0.75 c -0.210937,0.62109379 -0.632812,0.94921879 -1.230469,0.94921879 -0.480468,0 -0.878906,-0.22265625 -1.125,-0.60937499 -0.1875,-0.2695313 -0.246093,-0.5390625 -0.257812,-1.0078125 z m -3.433594,-0.609375 c 0.05859,-0.8671875 0.585938,-1.4296875 1.335938,-1.4296875 0.738281,0 1.300781,0.609375 1.300781,1.3710937 0,0.023437 0,0.035156 0,0.058594 z m 4.458985,-1.9921875 v 4.69921874 h 0.75 V -2.9542266 c 0,-0.6796875 0.492187,-1.21875 1.101562,-1.21875 0.550782,0 0.867188,0.3398438 0.867188,0.9375 v 3.23437504 h 0.75 V -2.9542266 c 0,-0.6796875 0.492187,-1.21875 1.101562,-1.21875 0.550782,0 0.878907,0.3398438 0.878907,0.9375 v 3.23437504 h 0.75 V -3.5284453 c 0,-0.84375 -0.480469,-1.3007813 -1.359375,-1.3007813 -0.632813,0 -1.007813,0.1875 -1.453125,0.7148438 -0.269532,-0.5039063 -0.644532,-0.7148438 -1.253907,-0.7148438 -0.632812,0 -1.042968,0.234375 -1.453125,0.796875 v -0.6679687 z m 9.272461,-0.1289063 c -1.3125,0 -2.109375,0.9375 -2.109375,2.5195313 0,1.57031249 0.785156,2.51953124 2.121093,2.51953124 1.3125,0 2.121094,-0.94921875 2.121094,-2.48437504 0,-1.6289062 -0.773437,-2.5546875 -2.132812,-2.5546875 z m 0.01172,0.6914063 c 0.84375,0 1.347657,0.6796875 1.347657,1.8515625 0,1.1015625 -0.527344,1.80468749 -1.347657,1.80468749 -0.832031,0 -1.347656,-0.69140629 -1.347656,-1.82812499 0,-1.1367188 0.515625,-1.828125 1.347656,-1.828125 z m 3.158204,-0.5625 v 4.69921874 h 0.75 V -2.4386016 c 0,-0.6679687 0.175781,-1.1132812 0.527343,-1.3710937 0.234375,-0.1757813 0.457032,-0.2226563 0.984375,-0.234375 v -0.7617188 c -0.128906,-0.023437 -0.199218,-0.023437 -0.292968,-0.023437 -0.480469,0 -0.855469,0.28125 -1.277344,0.984375 v -0.8554687 z m 6.105468,0 -1.300781,3.65625 -1.207031,-3.65625 h -0.796875 l 1.59375,4.72265624 -0.292969,0.73828125 C 51.437143,1.0887422 51.27308,1.2176484 50.956674,1.2176484 c -0.105469,0 -0.234375,-0.011719 -0.398438,-0.058594 v 0.6796875 c 0.152344,0.082031 0.304688,0.1171875 0.503907,0.1171875 0.246093,0 0.503906,-0.082031 0.703125,-0.2226563 0.234375,-0.1757812 0.363281,-0.375 0.503906,-0.74999996 L 54.36683,-4.7003206 Z m 0,0"
       style="fill:#000000;fill-opacity:1;fill-rule:nonzero;stroke:none"
       aria-label="MainMemory"
       transform="matrix(1.3333333,0,0,1.3333333,15.909333,22.396)" />
    <path
       id="path3"
       d="m 82.11082,-14.17339 h 77.68681 V 14.1734 H 82.11082 Z"
       style="fill:#e6fec1;fill-opacity:1;fill-rule:nonzero;stroke:#008f45;stroke-width:0.74721;stroke-linecap:butt;stroke-linejoin:miter;stroke-miterlimit:10;stroke-dasharray:none;stroke-opacity:1"
       transform="matrix(1.3333333,0,0,-1.3333333,52.288,19.396)" />
    <path
       id="path4"
       d="m 5.9307422,-4.5127422 c -0.2578125,-1.4296875 -1.078125,-2.1328125 -2.5195313,-2.1328125 -0.8789062,0 -1.5820312,0.28125 -2.0625,0.8203125 -0.59765621,0.6445313 -0.91406246,1.5703125 -0.91406246,2.6367188 0,1.0664062 0.328125,1.9921875 0.94921876,2.63671871 0.5039062,0.515625 1.1484375,0.76171875 1.9921875,0.76171875 1.6054687,0 2.4960937,-0.8671875 2.6953125,-2.58984376 H 5.2041797 c -0.070312,0.4453125 -0.1523438,0.75 -0.2929688,1.0078125 -0.2695312,0.53906251 -0.8203125,0.84375001 -1.5234375,0.84375001 -1.3007812,0 -2.1210937,-1.04296871 -2.1210937,-2.67187501 0,-1.6757812 0.7851562,-2.7070312 2.0507812,-2.7070312 0.5273438,0 1.0195313,0.1640625 1.2890625,0.4101562 0.2460938,0.2226563 0.375,0.5039063 0.4804688,0.984375 z m 2.1943359,1.7460938 h 2.0507809 c 0.515625,0 0.914063,-0.1523438 1.265625,-0.46875 0.386719,-0.3632813 0.5625,-0.7851563 0.5625,-1.3828125 0,-1.2304688 -0.726562,-1.921875 -2.0156246,-1.921875 H 7.2930469 v 6.53906246 h 0.8320312 z m 0,-0.7382813 v -2.296875 h 1.734375 c 0.7968749,0 1.2773439,0.4335938 1.2773439,1.1484375 0,0.7148438 -0.480469,1.1484375 -1.2773439,1.1484375 z m 9.2753909,-3.0351562 v 4.59375 c 0,0.8789062 -0.632813,1.41796871 -1.6875,1.41796871 -0.480469,0 -0.878906,-0.1171875 -1.183594,-0.33984375 C 14.20125,-1.1260234 14.048906,-1.4541484 14.048906,-1.9463359 v -4.59375 h -0.832031 v 4.59375 c 0,1.32421871 0.949219,2.15624996 2.496094,2.15624996 1.535156,0 2.519531,-0.84375 2.519531,-2.15624996 v -4.59375 z m 0,0"
       style="fill:#000000;fill-opacity:1;fill-rule:nonzero;stroke:none"
       aria-label="CPU"
       transform="matrix(1.3333333,0,0,1.3333333,200.94,23.669333)" />
    <path
       id="path5"
       d="m 203.06505,-14.17339 h 77.68681 V 14.1734 h -77.68681 z"
       style="fill:#e6fec1;fill-opacity:1;fill-rule:nonzero;stroke:#008f45;stroke-width:0.74721;stroke-linecap:butt;stroke-linejoin:miter;stroke-miterlimit:10;stroke-dasharray:none;stroke-opacity:1"
       transform="matrix(1.3333333,0,0,-1.3333333,52.288,19.396)" />
    <path
       id="path6"
       d="M 4.1954531,0.00136719 6.0352969,-5.4712891 V 0.00136719 H 6.8204531 V -6.5376953 H 5.6602969 L 3.7618594,-0.84238281 1.8282656,-6.5376953 H 0.66810938 V 0.00136719 H 1.4649844 V -5.4712891 L 3.3165469,0.00136719 Z M 12.061664,-2.0962891 c 0,-0.7148437 -0.04687,-1.1484375 -0.1875,-1.5 -0.304687,-0.7734375 -1.019531,-1.2304687 -1.8984374,-1.2304687 -1.3007813,0 -2.1445313,0.9960937 -2.1445313,2.5429687 0,1.54687504 0.8085938,2.49609379 2.1328125,2.49609379 1.0664062,0 1.8164062,-0.609375 2.0039062,-1.64062499 h -0.75 c -0.210937,0.62109374 -0.632812,0.94921874 -1.2304687,0.94921874 -0.4804687,0 -0.8789062,-0.22265625 -1.125,-0.60937504 -0.1875,-0.2695312 -0.2460937,-0.5390625 -0.2578125,-1.0078125 z m -3.4335937,-0.609375 c 0.058594,-0.8671875 0.5859375,-1.4296875 1.3359375,-1.4296875 0.7382812,0 1.3007812,0.609375 1.3007812,1.3710938 0,0.023437 0,0.035156 0,0.058594 z m 4.4589847,-1.9921875 v 4.69921879 h 0.75 V -2.9517578 c 0,-0.6796875 0.492187,-1.21875 1.101562,-1.21875 0.550781,0 0.867188,0.3398437 0.867188,0.9375 v 3.23437499 h 0.75 V -2.9517578 c 0,-0.6796875 0.492187,-1.21875 1.101562,-1.21875 0.550781,0 0.878906,0.3398437 0.878906,0.9375 v 3.23437499 h 0.75 V -3.5259766 c 0,-0.84375 -0.480468,-1.3007812 -1.359375,-1.3007812 -0.632812,0 -1.007812,0.1875 -1.453125,0.7148437 -0.269531,-0.5039062 -0.644531,-0.7148437 -1.253906,-0.7148437 -0.632812,0 -1.042969,0.234375 -1.453125,0.796875 v -0.6679688 z m 9.272461,-0.1289062 c -1.3125,0 -2.109375,0.9375 -2.109375,2.5195312 0,1.57031254 0.785156,2.51953129 2.121093,2.51953129 1.3125,0 2.121094,-0.94921875 2.121094,-2.48437499 0,-1.6289063 -0.773437,-2.5546875 -2.132812,-2.5546875 z m 0.01172,0.6914062 c 0.84375,0 1.347657,0.6796875 1.347657,1.8515625 0,1.1015625 -0.527344,1.80468754 -1.347657,1.80468754 -0.832031,0 -1.347656,-0.69140624 -1.347656,-1.82812504 0,-1.1367187 0.515625,-1.828125 1.347656,-1.828125 z m 3.158204,-0.5625 v 4.69921879 h 0.75 V -2.4361328 c 0,-0.6679688 0.175781,-1.1132813 0.527343,-1.3710938 0.234375,-0.1757812 0.457032,-0.2226562 0.984375,-0.234375 v -0.7617187 c -0.128906,-0.023437 -0.199218,-0.023437 -0.292968,-0.023437 -0.480469,0 -0.855469,0.28125 -1.277344,0.984375 v -0.8554688 z m 6.114257,0 -1.300781,3.65625 -1.207031,-3.65625 H 28.33901 l 1.59375,4.72265629 -0.292969,0.73828125 c -0.117187,0.32812496 -0.28125,0.45703126 -0.597656,0.45703126 -0.105469,0 -0.234375,-0.011719 -0.398438,-0.058594 v 0.6796875 c 0.152344,0.082031 0.304688,0.1171875 0.503907,0.1171875 0.246093,0 0.503906,-0.082031 0.703125,-0.2226562 0.234375,-0.1757813 0.363281,-0.375 0.503906,-0.75000001 l 2.097656,-5.68359379 z m 5.794922,0 H 36.66518 v -0.7382812 c 0,-0.3046875 0.175781,-0.46875 0.515625,-0.46875 0.07031,0 0.09375,0 0.257812,0.011719 v -0.6210937 c -0.164062,-0.035156 -0.269531,-0.046875 -0.421875,-0.046875 -0.679687,0 -1.101562,0.3984375 -1.101562,1.0664062 v 0.796875 h -0.621094 v 0.609375 h 0.621094 v 4.08984379 h 0.75 V -4.0884766 h 0.773437 z m 2.361328,-0.1289062 c -1.3125,0 -2.109375,0.9375 -2.109375,2.5195312 0,1.57031254 0.785157,2.51953129 2.121094,2.51953129 1.3125,0 2.121094,-0.94921875 2.121094,-2.48437499 0,-1.6289063 -0.773438,-2.5546875 -2.132813,-2.5546875 z m 0.01172,0.6914062 c 0.84375,0 1.347656,0.6796875 1.347656,1.8515625 0,1.1015625 -0.527343,1.80468754 -1.347656,1.80468754 -0.832031,0 -1.347656,-0.69140624 -1.347656,-1.82812504 0,-1.1367187 0.515625,-1.828125 1.347656,-1.828125 z m 3.158203,-0.5625 v 4.69921879 h 0.75 V -2.4361328 c 0,-0.6679688 0.175781,-1.1132813 0.527344,-1.3710938 0.234375,-0.1757812 0.457031,-0.2226562 0.984375,-0.234375 v -0.7617187 c -0.128906,-0.023437 -0.199219,-0.023437 -0.292969,-0.023437 -0.480469,0 -0.855469,0.28125 -1.277344,0.984375 v -0.8554688 z m 11.200196,1.2421875 h -2.71875 v 0.7382813 H 53.4435 v 0.1875 c 0,1.1601562 -0.867187,2.00390624 -2.0625,2.00390624 -0.65625,0 -1.253906,-0.24609375 -1.640625,-0.66796874 -0.433594,-0.46875 -0.691406,-1.2421875 -0.691406,-2.0507813 0,-1.6054687 0.914062,-2.6601562 2.296875,-2.6601562 0.996094,0 1.710937,0.5039062 1.886719,1.3476562 h 0.855468 c -0.234375,-1.3242187 -1.242187,-2.0859375 -2.742187,-2.0859375 -0.796875,0 -1.441406,0.2109375 -1.945313,0.6328125 -0.761718,0.6210938 -1.183593,1.640625 -1.183593,2.8125 0,2.0039063 1.21875,3.41015629 2.988281,3.41015629 0.890625,0 1.59375,-0.33984375 2.238281,-1.04296875 l 0.199219,0.8671875 h 0.527344 z m 2.276367,0.6914063 h 2.050781 c 0.515625,0 0.914062,-0.1523438 1.265625,-0.46875 0.386719,-0.3632813 0.5625,-0.7851563 0.5625,-1.3828125 0,-1.2304688 -0.726563,-1.921875 -2.015625,-1.921875 h -2.695313 v 6.53906249 h 0.832032 z m 0,-0.7382813 v -2.296875 h 1.734375 c 0.796875,0 1.277343,0.4335938 1.277343,1.1484375 0,0.7148438 -0.480468,1.1484375 -1.277343,1.1484375 z m 9.272461,-3.0351562 v 4.59375 c 0,0.8789062 -0.632813,1.41796874 -1.6875,1.41796874 -0.480469,0 -0.878907,-0.1171875 -1.183594,-0.33984375 C 62.519672,-1.1236328 62.367328,-1.4517578 62.367328,-1.9439453 v -4.59375 h -0.832031 v 4.59375 c 0,1.32421874 0.949219,2.15624999 2.496094,2.15624999 1.535156,0 2.519531,-0.84375 2.519531,-2.15624999 v -4.59375 z m 0,0"
       style="fill:#000000;fill-opacity:1;fill-rule:nonzero;stroke:none"
       aria-label="MemoryforGPU"
       transform="matrix(1.3333333,0,0,1.3333333,329.992,22.533333)" />
    <path
       id="path7"
       d="M 324.01929,-14.17339 H 401.7061 V 14.1734 h -77.68681 z"
       style="fill:#e6fec1;fill-opacity:1;fill-rule:nonzero;stroke:#008f45;stroke-width:0.74721;stroke-linecap:butt;stroke-linejoin:miter;stroke-miterlimit:10;stroke-dasharray:none;stroke-opacity:1"
       transform="matrix(1.3333333,0,0,-1.3333333,52.288,19.396)" />
    <path
       id="path8"
       d="m 6.3528906,-3.4580547 h -2.71875 v 0.7382813 h 1.9921875 v 0.1875 c 0,1.1601562 -0.8671875,2.00390621 -2.0625,2.00390621 -0.65625,0 -1.2539062,-0.24609375 -1.640625,-0.66796871 -0.4335937,-0.46875 -0.6914062,-1.2421875 -0.6914062,-2.0507813 0,-1.6054687 0.9140625,-2.6601562 2.296875,-2.6601562 0.9960937,0 1.7109375,0.5039062 1.8867187,1.3476562 h 0.8554688 c -0.234375,-1.3242187 -1.2421875,-2.0859375 -2.7421875,-2.0859375 -0.796875,0 -1.4414063,0.2109375 -1.9453125,0.6328125 -0.76171878,0.6210938 -1.18359378,1.640625 -1.18359378,2.8125 0,2.0039063 1.21874998,3.41015626 2.98828128,3.41015626 0.890625,0 1.59375,-0.33984375 2.2382812,-1.04296875 l 0.1992188,0.8671875 h 0.5273437 z m 2.2763672,0.6914063 h 2.0507812 c 0.515625,0 0.914063,-0.1523438 1.265625,-0.46875 0.386719,-0.3632813 0.5625,-0.7851563 0.5625,-1.3828125 0,-1.2304688 -0.726562,-1.921875 -2.015625,-1.921875 H 7.7972266 v 6.53906246 h 0.8320312 z m 0,-0.7382813 v -2.296875 h 1.7343752 c 0.796875,0 1.277344,0.4335938 1.277344,1.1484375 0,0.7148438 -0.480469,1.1484375 -1.277344,1.1484375 z m 9.2724612,-3.0351562 v 4.59375 c 0,0.8789062 -0.632813,1.41796871 -1.6875,1.41796871 -0.480469,0 -0.878907,-0.1171875 -1.183594,-0.33984375 C 14.7025,-1.1260234 14.550156,-1.4541484 14.550156,-1.9463359 v -4.59375 h -0.832031 v 4.59375 c 0,1.32421871 0.949219,2.15624996 2.496094,2.15624996 1.535156,0 2.519531,-0.84375 2.519531,-2.15624996 v -4.59375 z m 0,0"
       style="fill:#000000;fill-opacity:1;fill-rule:nonzero;stroke:none"
       aria-label="GPU"
       transform="matrix(1.3333333,0,0,1.3333333,523.14667,23.669333)" />
    <path
       id="path9"
       d="m -38.8434,-184.25424 h 77.68681 v 28.34679 H -38.8434 Z"
       style="fill:#fce1c7;fill-opacity:1;fill-rule:nonzero;stroke:#e67817;stroke-width:0.74721;stroke-linecap:butt;stroke-linejoin:miter;stroke-miterlimit:10;stroke-dasharray:none;stroke-opacity:1"
       transform="matrix(1.3333333,0,0,-1.3333333,52.288,19.396)" />
    <path
       id="path10"
       d="M 4.1959297,-2.34375e-5 6.0357734,-5.4726797 V -2.34375e-5 H 6.8209297 V -6.5390859 H 5.6607734 L 3.7623359,-0.84377344 1.8287422,-6.5390859 H 0.66858594 V -2.34375e-5 H 1.4654609 V -5.4726797 L 3.3170234,-2.34375e-5 Z M 12.261359,-0.43361719 c -0.08203,0.0117188 -0.117187,0.0117188 -0.152343,0.0117188 -0.269532,0 -0.410157,-0.12890625 -0.410157,-0.36328125 V -3.5508047 c 0,-0.8320312 -0.609375,-1.2773437 -1.7695309,-1.2773437 -0.6796875,0 -1.2421875,0.1875 -1.5585937,0.5390625 -0.2109375,0.2460937 -0.3046875,0.515625 -0.3164063,0.984375 h 0.75 c 0.058594,-0.5742188 0.3984375,-0.8320313 1.1015625,-0.8320313 0.6679684,0 1.0546874,0.2460938 1.0546874,0.6914063 v 0.1992187 c 0,0.3164063 -0.1875,0.4453125 -0.785156,0.515625 -1.0546876,0.140625 -1.2187501,0.1757813 -1.5000001,0.2929688 -0.5507813,0.2226562 -0.8320313,0.6445312 -0.8320313,1.2539062 0,0.85546876 0.5976563,1.39453126 1.546875,1.39453126 0.5859375,0 1.0664064,-0.2109374975 1.5937504,-0.69140625 0.04687,0.46875 0.28125,0.69140625 0.773437,0.69140625 0.152344,0 0.269531,-0.0234375 0.503906,-0.0820313 z M 10.960578,-1.4765859 c 0,0.2460937 -0.08203,0.3984375 -0.304687,0.60937496 -0.304688,0.28125 -0.6679691,0.421875 -1.1132816,0.421875 -0.5742188,0 -0.9140625,-0.28125 -0.9140625,-0.76171876 0,-0.4921875 0.328125,-0.7382812 1.125,-0.8554687 0.7851561,-0.1054688 0.9492191,-0.140625 1.2070311,-0.2578125 z m 2.841797,-3.2226563 h -0.75 V -2.34375e-5 h 0.75 z m 0,-1.8398437 h -0.761719 v 0.9492187 h 0.761719 z m 1.274414,1.8398437 V -2.34375e-5 h 0.75 V -2.5898672 c 0,-0.9609375 0.503906,-1.5820312 1.265625,-1.5820312 0.597656,0 0.972656,0.3515625 0.972656,0.9140625 V -2.34375e-5 h 0.75 V -3.5508047 c 0,-0.7734375 -0.585937,-1.2773437 -1.488281,-1.2773437 -0.703125,0 -1.148437,0.2695312 -1.570312,0.9140625 V -4.6992422 Z M 26.118781,-2.34375e-5 27.958625,-5.4726797 V -2.34375e-5 h 0.785156 V -6.5390859 H 27.583625 L 25.685187,-0.84377344 23.751594,-6.5390859 H 22.591437 V -2.34375e-5 h 0.796875 V -5.4726797 L 25.239875,-2.34375e-5 Z M 33.984992,-2.0976797 c 0,-0.7148437 -0.04687,-1.1484375 -0.1875,-1.5 -0.304687,-0.7734375 -1.019531,-1.2304687 -1.898437,-1.2304687 -1.300782,0 -2.144532,0.9960937 -2.144532,2.5429687 0,1.54687501 0.808594,2.49609376 2.132813,2.49609376 1.066406,0 1.816406,-0.609375 2.003906,-1.64062496 h -0.75 c -0.210937,0.62109371 -0.632812,0.94921871 -1.230469,0.94921871 -0.480468,0 -0.878906,-0.22265625 -1.125,-0.60937501 -0.1875,-0.2695312 -0.246093,-0.5390625 -0.257812,-1.0078125 z m -3.433594,-0.609375 c 0.05859,-0.8671875 0.585938,-1.4296875 1.335938,-1.4296875 0.738281,0 1.300781,0.609375 1.300781,1.3710938 0,0.023437 0,0.035156 0,0.058594 z m 4.458985,-1.9921875 V -2.34375e-5 h 0.75 V -2.9531484 c 0,-0.6796875 0.492187,-1.21875 1.101562,-1.21875 0.550782,0 0.867188,0.3398437 0.867188,0.9375 V -2.34375e-5 h 0.75 V -2.9531484 c 0,-0.6796875 0.492187,-1.21875 1.101562,-1.21875 0.550782,0 0.878907,0.3398437 0.878907,0.9375 V -2.34375e-5 h 0.75 V -3.5273672 c 0,-0.84375 -0.480469,-1.3007812 -1.359375,-1.3007812 -0.632813,0 -1.007813,0.1875 -1.453125,0.7148437 -0.269532,-0.5039062 -0.644532,-0.7148437 -1.253907,-0.7148437 -0.632812,0 -1.042968,0.234375 -1.453125,0.796875 v -0.6679688 z m 9.272461,-0.1289062 c -1.3125,0 -2.109375,0.9375 -2.109375,2.5195312 0,1.57031251 0.785156,2.51953126 2.121093,2.51953126 1.3125,0 2.121094,-0.94921875 2.121094,-2.48437496 0,-1.6289063 -0.773437,-2.5546875 -2.132812,-2.5546875 z m 0.01172,0.6914062 c 0.84375,0 1.347657,0.6796875 1.347657,1.8515625 0,1.1015625 -0.527344,1.80468751 -1.347657,1.80468751 -0.832031,0 -1.347656,-0.69140621 -1.347656,-1.82812501 0,-1.1367187 0.515625,-1.828125 1.347656,-1.828125 z m 3.158204,-0.5625 V -2.34375e-5 h 0.75 V -2.4375234 c 0,-0.6679688 0.175781,-1.1132813 0.527343,-1.3710938 0.234375,-0.1757812 0.457032,-0.2226562 0.984375,-0.234375 v -0.7617187 c -0.128906,-0.023437 -0.199218,-0.023437 -0.292968,-0.023437 -0.480469,0 -0.855469,0.28125 -1.277344,0.984375 v -0.8554688 z m 6.105468,0 -1.300781,3.65625 -1.207031,-3.65625 h -0.796875 l 1.59375,4.72265626 -0.292969,0.73828125 C 51.437143,1.0898203 51.27308,1.2187266 50.956674,1.2187266 c -0.105469,0 -0.234375,-0.011719 -0.398438,-0.058594 v 0.6796875 c 0.152344,0.082031 0.304688,0.1171875 0.503907,0.1171875 0.246093,0 0.503906,-0.082031 0.703125,-0.2226562 0.234375,-0.1757813 0.363281,-0.375 0.503906,-0.75000004 L 54.36683,-4.6992424 Z m 0,0"
       style="fill:#000000;fill-opacity:1;fill-rule:nonzero;stroke:none"
       aria-label="MainMemory"
       transform="matrix(1.3333333,0,0,1.3333333,15.909333,249.168)" />
    <path
       id="path11"
       d="m 82.11082,-184.25424 h 77.68681 v 28.34679 H 82.11082 Z"
       style="fill:#fce1c7;fill-opacity:1;fill-rule:nonzero;stroke:#e67817;stroke-width:0.74721;stroke-linecap:butt;stroke-linejoin:miter;stroke-miterlimit:10;stroke-dasharray:none;stroke-opacity:1"
       transform="matrix(1.3333333,0,0,-1.3333333,52.288,19.396)" />
    <path
       id="path12"
       d="m 5.9307422,-4.5116641 c -0.2578125,-1.4296875 -1.078125,-2.1328125 -2.5195313,-2.1328125 -0.8789062,0 -1.5820312,0.28125 -2.0625,0.8203125 -0.59765621,0.6445313 -0.91406246,1.5703125 -0.91406246,2.6367188 0,1.0664062 0.328125,1.9921875 0.94921876,2.63671874 0.5039062,0.515625 1.1484375,0.76171875 1.9921875,0.76171875 1.6054687,0 2.4960937,-0.8671875 2.6953125,-2.58984379 H 5.2041797 c -0.070312,0.4453125 -0.1523438,0.75 -0.2929688,1.0078125 -0.2695312,0.53906254 -0.8203125,0.84375004 -1.5234375,0.84375004 -1.3007812,0 -2.1210937,-1.04296874 -2.1210937,-2.67187504 0,-1.6757812 0.7851562,-2.7070312 2.0507812,-2.7070312 0.5273438,0 1.0195313,0.1640625 1.2890625,0.4101562 0.2460938,0.2226563 0.375,0.5039063 0.4804688,0.984375 z m 2.1943359,1.7460938 h 2.0507809 c 0.515625,0 0.914063,-0.1523438 1.265625,-0.46875 0.386719,-0.3632813 0.5625,-0.7851563 0.5625,-1.3828125 0,-1.2304688 -0.726562,-1.921875 -2.0156246,-1.921875 H 7.2930469 V 5.46875e-5 h 0.8320312 z m 0,-0.7382813 v -2.296875 h 1.734375 c 0.7968749,0 1.2773439,0.4335938 1.2773439,1.1484375 0,0.7148438 -0.480469,1.1484375 -1.2773439,1.1484375 z m 9.2753909,-3.0351562 v 4.59375 c 0,0.8789062 -0.632813,1.41796874 -1.6875,1.41796874 -0.480469,0 -0.878906,-0.1171875 -1.183594,-0.33984375 C 14.20125,-1.1249453 14.048906,-1.4530703 14.048906,-1.9452578 v -4.59375 h -0.832031 v 4.59375 c 0,1.32421874 0.949219,2.15624999 2.496094,2.15624999 1.535156,0 2.519531,-0.84375 2.519531,-2.15624999 v -4.59375 z m 0,0"
       style="fill:#000000;fill-opacity:1;fill-rule:nonzero;stroke:none"
       aria-label="CPU"
       transform="matrix(1.3333333,0,0,1.3333333,200.94,250.44133)" />
    <path
       id="path13"
       d="m 203.06505,-184.25424 h 77.68681 v 28.34679 h -77.68681 z"
       style="fill:#fce1c7;fill-opacity:1;fill-rule:nonzero;stroke:#e67817;stroke-width:0.74721;stroke-linecap:butt;stroke-linejoin:miter;stroke-miterlimit:10;stroke-dasharray:none;stroke-opacity:1"
       transform="matrix(1.3333333,0,0,-1.3333333,52.288,19.396)" />
    <path
       id="path14"
       d="M 4.1954531,-4.84375e-4 6.0352969,-5.4731406 V -4.84375e-4 H 6.8204531 V -6.5395469 H 5.6602969 L 3.7618594,-0.84423437 1.8282656,-6.5395469 H 0.66810938 V -4.84375e-4 H 1.4649844 V -5.4731406 L 3.3165469,-4.84375e-4 Z M 12.061664,-2.0981406 c 0,-0.7148438 -0.04687,-1.1484375 -0.1875,-1.5 -0.304687,-0.7734375 -1.019531,-1.2304688 -1.8984374,-1.2304688 -1.3007813,0 -2.1445313,0.9960938 -2.1445313,2.5429688 0,1.54687498 0.8085938,2.49609373 2.1328125,2.49609373 1.0664062,0 1.8164062,-0.609375 2.0039062,-1.64062503 h -0.75 c -0.210937,0.62109378 -0.632812,0.94921878 -1.2304687,0.94921878 -0.4804687,0 -0.8789062,-0.22265625 -1.125,-0.60937498 -0.1875,-0.2695313 -0.2460937,-0.5390625 -0.2578125,-1.0078125 z m -3.4335937,-0.609375 c 0.058594,-0.8671875 0.5859375,-1.4296875 1.3359375,-1.4296875 0.7382812,0 1.3007812,0.609375 1.3007812,1.3710937 0,0.023437 0,0.035156 0,0.058594 z m 4.4589847,-1.9921875 v 4.699218725 h 0.75 V -2.9536094 c 0,-0.6796875 0.492187,-1.21875 1.101562,-1.21875 0.550781,0 0.867188,0.3398438 0.867188,0.9375 v 3.234375025 h 0.75 V -2.9536094 c 0,-0.6796875 0.492187,-1.21875 1.101562,-1.21875 0.550781,0 0.878906,0.3398438 0.878906,0.9375 v 3.234375025 h 0.75 V -3.5278281 c 0,-0.84375 -0.480468,-1.3007813 -1.359375,-1.3007813 -0.632812,0 -1.007812,0.1875 -1.453125,0.7148438 -0.269531,-0.5039063 -0.644531,-0.7148438 -1.253906,-0.7148438 -0.632812,0 -1.042969,0.234375 -1.453125,0.796875 v -0.6679687 z m 9.272461,-0.1289063 c -1.3125,0 -2.109375,0.9375 -2.109375,2.5195313 0,1.57031248 0.785156,2.51953123 2.121093,2.51953123 1.3125,0 2.121094,-0.94921875 2.121094,-2.48437503 0,-1.6289062 -0.773437,-2.5546875 -2.132812,-2.5546875 z m 0.01172,0.6914063 c 0.84375,0 1.347657,0.6796875 1.347657,1.8515625 0,1.1015625 -0.527344,1.80468748 -1.347657,1.80468748 -0.832031,0 -1.347656,-0.69140628 -1.347656,-1.82812498 0,-1.1367188 0.515625,-1.828125 1.347656,-1.828125 z m 3.158204,-0.5625 v 4.699218725 h 0.75 V -2.4379844 c 0,-0.6679687 0.175781,-1.1132812 0.527343,-1.3710937 0.234375,-0.1757813 0.457032,-0.2226563 0.984375,-0.234375 v -0.7617188 c -0.128906,-0.023437 -0.199218,-0.023437 -0.292968,-0.023437 -0.480469,0 -0.855469,0.28125 -1.277344,0.984375 v -0.8554687 z m 6.114257,0 -1.300781,3.65625 -1.207031,-3.65625 H 28.33901 l 1.59375,4.72265623 -0.292969,0.73828125 c -0.117187,0.32812502 -0.28125,0.45703122 -0.597656,0.45703122 -0.105469,0 -0.234375,-0.011719 -0.398438,-0.058594 v 0.6796875 c 0.152344,0.082031 0.304688,0.1171875 0.503907,0.1171875 0.246093,0 0.503906,-0.082031 0.703125,-0.2226563 0.234375,-0.1757812 0.363281,-0.375 0.503906,-0.74999997 l 2.097656,-5.68359373 z m 5.794922,0 H 36.66518 v -0.7382813 c 0,-0.3046875 0.175781,-0.46875 0.515625,-0.46875 0.07031,0 0.09375,0 0.257812,0.011719 v -0.6210938 c -0.164062,-0.035156 -0.269531,-0.046875 -0.421875,-0.046875 -0.679687,0 -1.101562,0.3984375 -1.101562,1.0664063 v 0.796875 h -0.621094 v 0.609375 h 0.621094 v 4.089843725 h 0.75 V -4.0903281 h 0.773437 z m 2.361328,-0.1289063 c -1.3125,0 -2.109375,0.9375 -2.109375,2.5195313 0,1.57031248 0.785157,2.51953123 2.121094,2.51953123 1.3125,0 2.121094,-0.94921875 2.121094,-2.48437503 0,-1.6289062 -0.773438,-2.5546875 -2.132813,-2.5546875 z m 0.01172,0.6914063 c 0.84375,0 1.347656,0.6796875 1.347656,1.8515625 0,1.1015625 -0.527343,1.80468748 -1.347656,1.80468748 -0.832031,0 -1.347656,-0.69140628 -1.347656,-1.82812498 0,-1.1367188 0.515625,-1.828125 1.347656,-1.828125 z m 3.158203,-0.5625 v 4.699218725 h 0.75 V -2.4379844 c 0,-0.6679687 0.175781,-1.1132812 0.527344,-1.3710937 0.234375,-0.1757813 0.457031,-0.2226563 0.984375,-0.234375 v -0.7617188 c -0.128906,-0.023437 -0.199219,-0.023437 -0.292969,-0.023437 -0.480469,0 -0.855469,0.28125 -1.277344,0.984375 v -0.8554687 z m 11.200196,1.2421875 h -2.71875 v 0.7382812 H 53.4435 v 0.1875 c 0,1.1601563 -0.867187,2.00390628 -2.0625,2.00390628 -0.65625,0 -1.253906,-0.24609375 -1.640625,-0.66796878 -0.433594,-0.46875 -0.691406,-1.2421875 -0.691406,-2.0507812 0,-1.6054688 0.914062,-2.6601563 2.296875,-2.6601563 0.996094,0 1.710937,0.5039063 1.886719,1.3476563 h 0.855468 c -0.234375,-1.3242188 -1.242187,-2.0859375 -2.742187,-2.0859375 -0.796875,0 -1.441406,0.2109375 -1.945313,0.6328125 -0.761718,0.6210937 -1.183593,1.640625 -1.183593,2.8125 0,2.0039062 1.21875,3.41015623 2.988281,3.41015623 0.890625,0 1.59375,-0.33984375 2.238281,-1.04296875 l 0.199219,0.8671875 h 0.527344 z m 2.276367,0.6914062 h 2.050781 c 0.515625,0 0.914062,-0.1523437 1.265625,-0.46875 0.386719,-0.3632812 0.5625,-0.7851562 0.5625,-1.3828125 0,-1.2304687 -0.726563,-1.921875 -2.015625,-1.921875 h -2.695313 v 6.539062525 h 0.832032 z m 0,-0.7382812 v -2.296875 h 1.734375 c 0.796875,0 1.277343,0.4335937 1.277343,1.1484375 0,0.7148437 -0.480468,1.1484375 -1.277343,1.1484375 z m 9.272461,-3.0351563 v 4.59375 c 0,0.8789063 -0.632813,1.41796878 -1.6875,1.41796878 -0.480469,0 -0.878907,-0.1171875 -1.183594,-0.33984375 C 62.519672,-1.1254844 62.367328,-1.4536094 62.367328,-1.9457969 v -4.59375 h -0.832031 v 4.59375 c 0,1.32421878 0.949219,2.15625003 2.496094,2.15625003 1.535156,0 2.519531,-0.84375 2.519531,-2.15625003 v -4.59375 z m 0,0"
       style="fill:#000000;fill-opacity:1;fill-rule:nonzero;stroke:none"
       aria-label="MemoryforGPU"
       transform="matrix(1.3333333,0,0,1.3333333,329.992,249.30533)" />
    <path
       id="path15"
       d="m 324.01929,-184.25424 h 77.68681 v 28.34679 h -77.68681 z"
       style="fill:#fce1c7;fill-opacity:1;fill-rule:nonzero;stroke:#e67817;stroke-width:0.74721;stroke-linecap:butt;stroke-linejoin:miter;stroke-miterlimit:10;stroke-dasharray:none;stroke-opacity:1"
       transform="matrix(1.3333333,0,0,-1.3333333,52.288,19.396)" />
    <path
       id="path16"
       d="m 6.3528906,-3.4569766 h -2.71875 v 0.7382813 h 1.9921875 v 0.1875 c 0,1.1601562 -0.8671875,2.00390624 -2.0625,2.00390624 -0.65625,0 -1.2539062,-0.24609375 -1.640625,-0.66796874 -0.4335937,-0.46875 -0.6914062,-1.2421875 -0.6914062,-2.0507813 0,-1.6054687 0.9140625,-2.6601562 2.296875,-2.6601562 0.9960937,0 1.7109375,0.5039062 1.8867187,1.3476562 h 0.8554688 c -0.234375,-1.3242187 -1.2421875,-2.0859375 -2.7421875,-2.0859375 -0.796875,0 -1.4414063,0.2109375 -1.9453125,0.6328125 -0.76171878,0.6210938 -1.18359378,1.640625 -1.18359378,2.8125 0,2.0039063 1.21874998,3.41015629 2.98828128,3.41015629 0.890625,0 1.59375,-0.33984375 2.2382812,-1.04296875 l 0.1992188,0.8671875 h 0.5273437 z m 2.2763672,0.6914063 h 2.0507812 c 0.515625,0 0.914063,-0.1523438 1.265625,-0.46875 0.386719,-0.3632813 0.5625,-0.7851563 0.5625,-1.3828125 0,-1.2304688 -0.726562,-1.921875 -2.015625,-1.921875 H 7.7972266 V 5.46875e-5 h 0.8320312 z m 0,-0.7382813 v -2.296875 h 1.7343752 c 0.796875,0 1.277344,0.4335938 1.277344,1.1484375 0,0.7148438 -0.480469,1.1484375 -1.277344,1.1484375 z m 9.2724612,-3.0351562 v 4.59375 c 0,0.8789062 -0.632813,1.41796874 -1.6875,1.41796874 -0.480469,0 -0.878907,-0.1171875 -1.183594,-0.33984375 C 14.7025,-1.1249453 14.550156,-1.4530703 14.550156,-1.9452578 v -4.59375 h -0.832031 v 4.59375 c 0,1.32421874 0.949219,2.15624999 2.496094,2.15624999 1.535156,0 2.519531,-0.84375 2.519531,-2.15624999 v -4.59375 z m 0,0"
       style="fill:#000000;fill-opacity:1;fill-rule:nonzero;stroke:none"
       aria-label="GPU"
       transform="matrix(1.3333333,0,0,1.3333333,523.14667,250.44133)" />
    <path
       id="path17"
       d="M 0,-14.547 V -155.53384"
       style="fill:none;stroke:#808080;stroke-width:0.99628;stroke-linecap:butt;stroke-linejoin:miter;stroke-miterlimit:10;stroke-dasharray:none;stroke-opacity:1"
       transform="matrix(1.3333333,0,0,-1.3333333,52.288,19.396)" />
    <path
       id="path18"
       d="M 120.95422,-14.547 V -155.53384"
       style="fill:none;stroke:#808080;stroke-width:0.99628;stroke-linecap:butt;stroke-linejoin:miter;stroke-miterlimit:10;stroke-dasharray:none;stroke-opacity:1"
       transform="matrix(1.3333333,0,0,-1.3333333,52.288,19.396)" />
    <path
       id="path19"
       d="M 241.90846,-14.547 V -155.53384"
       style="fill:none;stroke:#808080;stroke-width:0.99628;stroke-linecap:butt;stroke-linejoin:miter;stroke-miterlimit:10;stroke-dasharray:none;stroke-opacity:1"
       transform="matrix(1.3333333,0,0,-1.3333333,52.288,19.396)" />
    <path
       id="path20"
       d="M 362.8627,-14.547 V -155.53384"
       style="fill:none;stroke:#808080;stroke-width:0.99628;stroke-linecap:butt;stroke-linejoin:miter;stroke-miterlimit:10;stroke-dasharray:none;stroke-opacity:1"
       transform="matrix(1.3333333,0,0,-1.3333333,52.288,19.396)" />
    <path
       id="path21"
       d="M 0,-34.01564 H 236.70787"
       style="fill:none;stroke:#808080;stroke-width:0.99628;stroke-linecap:butt;stroke-linejoin:miter;stroke-miterlimit:10;stroke-dasharray:none;stroke-opacity:1"
       transform="matrix(1.3333333,0,0,-1.3333333,52.288,19.396)" />
    <path
       id="path22"
       d="M 5.20058,0 C 3.65962,0.28891 1.15567,1.15567 -0.57784,2.1669 V -2.1669 C 1.15567,-1.15567 3.65962,-0.28891 5.20058,0"
       style="fill:#808080;fill-opacity:1;fill-rule:nonzero;stroke:none"
       transform="matrix(1.3333333,0,0,-1.3333333,367.89849,64.750187)" />
    <path
       id="path23"
       d="m 5.9287734,-4.5126484 c -0.2578125,-1.4296875 -1.078125,-2.1328125 -2.5195312,-2.1328125 -0.8789063,0 -1.5820313,0.28125 -2.0625,0.8203125 -0.59765626,0.6445312 -0.91406251,1.5703125 -0.91406251,2.6367187 0,1.0664063 0.328125,1.9921875 0.94921871,2.63671876 0.5039063,0.515625 1.1484375,0.76171875 1.9921875,0.76171875 1.6054688,0 2.4960938,-0.8671875 2.6953125,-2.58984371 H 5.2022109 c -0.070312,0.4453125 -0.1523437,0.75 -0.2929687,1.0078125 -0.2695313,0.53906246 -0.8203125,0.84374996 -1.5234375,0.84374996 -1.3007813,0 -2.1210938,-1.04296876 -2.1210938,-2.67187496 0,-1.6757813 0.7851563,-2.7070313 2.0507813,-2.7070313 0.5273437,0 1.0195312,0.1640625 1.2890625,0.4101563 0.2460937,0.2226562 0.375,0.5039062 0.4804687,0.984375 z m 2.9824219,-0.3164063 c -1.3125,0 -2.109375,0.9375 -2.109375,2.5195313 0,1.57031246 0.7851563,2.51953121 2.1210938,2.51953121 1.3124999,0 2.1210939,-0.94921875 2.1210939,-2.48437501 0,-1.6289062 -0.773438,-2.5546875 -2.1328127,-2.5546875 z m 0.011719,0.6914063 c 0.84375,0 1.3476557,0.6796875 1.3476557,1.8515625 0,1.1015625 -0.5273432,1.80468746 -1.3476557,1.80468746 -0.8320313,0 -1.3476563,-0.69140626 -1.3476563,-1.82812496 0,-1.1367188 0.515625,-1.828125 1.3476563,-1.828125 z m 3.0175777,6.09375 h 0.761719 v -2.44921879 c 0.386719,0.48046875 0.832031,0.703125 1.441406,0.703125 1.207031,0 2.003906,-0.984375 2.003906,-2.48437501 0,-1.5703125 -0.773437,-2.5546875 -2.015625,-2.5546875 -0.632812,0 -1.148437,0.28125 -1.5,0.84375 v -0.7148437 h -0.691406 z m 2.0625,-6.09375 c 0.832031,0 1.371094,0.7265625 1.371094,1.8515625 0,1.0664062 -0.550781,1.79296871 -1.371094,1.79296871 -0.785156,0 -1.300781,-0.71484371 -1.300781,-1.81640621 0,-1.1015625 0.515625,-1.828125 1.300781,-1.828125 z m 5.651367,-0.5625 -1.300781,3.65625 -1.207031,-3.65625 h -0.796875 l 1.59375,4.72265621 -0.292969,0.73828125 c -0.117187,0.32812504 -0.28125,0.45703124 -0.597656,0.45703124 -0.105469,0 -0.234375,-0.011719 -0.398438,-0.058594 v 0.6796875 c 0.152344,0.082031 0.304688,0.1171875 0.503907,0.1171875 0.246093,0 0.503906,-0.082031 0.703125,-0.2226563 0.234375,-0.1757812 0.363281,-0.375 0.503906,-0.74999999 l 2.097656,-5.68359371 z m 3.978516,6.65625 h 0.761719 v -2.44921879 c 0.386719,0.48046875 0.832031,0.703125 1.441406,0.703125 1.207031,0 2.003906,-0.984375 2.003906,-2.48437501 0,-1.5703125 -0.773437,-2.5546875 -2.015625,-2.5546875 -0.632812,0 -1.148437,0.28125 -1.5,0.84375 v -0.7148437 h -0.691406 z m 2.0625,-6.09375 c 0.832031,0 1.371094,0.7265625 1.371094,1.8515625 0,1.0664062 -0.550781,1.79296871 -1.371094,1.79296871 -0.785156,0 -1.300781,-0.71484371 -1.300781,-1.81640621 0,-1.1015625 0.515625,-1.828125 1.300781,-1.828125 z m 3.061523,-0.5625 v 4.6992187125 h 0.75 V -2.4384297 c 0,-0.6679687 0.175782,-1.1132812 0.527344,-1.3710937 0.234375,-0.1757813 0.457031,-0.2226563 0.984375,-0.234375 v -0.7617188 c -0.128906,-0.023437 -0.199219,-0.023437 -0.292969,-0.023437 -0.480468,0 -0.855468,0.28125 -1.277343,0.984375 v -0.8554687 z m 4.801758,-0.1289063 c -1.3125,0 -2.109375,0.9375 -2.109375,2.5195313 0,1.57031246 0.785157,2.51953121 2.121094,2.51953121 1.3125,0 2.121094,-0.94921875 2.121094,-2.48437501 0,-1.6289062 -0.773438,-2.5546875 -2.132813,-2.5546875 z m 0.01172,0.6914063 c 0.84375,0 1.347656,0.6796875 1.347656,1.8515625 0,1.1015625 -0.527343,1.80468746 -1.347656,1.80468746 -0.832031,0 -1.347656,-0.69140626 -1.347656,-1.82812496 0,-1.1367188 0.515625,-1.828125 1.347656,-1.828125 z m 6.755859,1.0195312 c -0.03516,-0.4570312 -0.128906,-0.75 -0.304687,-1.0195312 -0.328125,-0.4335938 -0.890625,-0.6914063 -1.546875,-0.6914063 -1.265625,0 -2.085938,0.9960938 -2.085938,2.5546875 0,1.52343751 0.808594,2.48437501 2.074219,2.48437501 1.125,0 1.828125,-0.6796875 1.921875,-1.82812501 h -0.75 c -0.128906,0.76171876 -0.515625,1.13671876 -1.148437,1.13671876 -0.832032,0 -1.324219,-0.67968746 -1.324219,-1.79296876 0,-1.171875 0.492187,-1.8632812 1.300781,-1.8632812 0.632813,0 1.019531,0.3632812 1.113281,1.0195312 z m 4.857422,1.0195313 c 0,-0.7148438 -0.04687,-1.1484375 -0.1875,-1.5 -0.304687,-0.7734375 -1.019531,-1.2304688 -1.898437,-1.2304688 -1.300781,0 -2.144531,0.9960938 -2.144531,2.5429688 0,1.54687496 0.808593,2.49609371 2.132812,2.49609371 1.066406,0 1.816406,-0.609375 2.003906,-1.64062501 h -0.75 c -0.210937,0.62109376 -0.632812,0.94921876 -1.230468,0.94921876 -0.480469,0 -0.878907,-0.22265625 -1.125,-0.60937496 -0.1875,-0.2695313 -0.246094,-0.5390625 -0.257813,-1.0078125 z m -3.433593,-0.609375 c 0.05859,-0.8671875 0.585937,-1.4296875 1.335937,-1.4296875 0.738281,0 1.300781,0.609375 1.300781,1.3710937 0,0.023437 0,0.035156 0,0.058594 z m 7.751953,-0.6796875 c -0.01172,-0.9257813 -0.621094,-1.4414063 -1.699219,-1.4414063 -1.101563,0 -1.804688,0.5625 -1.804688,1.4296875 0,0.7382813 0.375,1.0898438 1.488282,1.359375 l 0.703125,0.1640625 c 0.515625,0.1289063 0.726562,0.3164063 0.726562,0.65625 0,0.43359376 -0.445312,0.73828126 -1.101562,0.73828126 -0.398438,0 -0.738282,-0.1171875 -0.925782,-0.31640625 -0.117187,-0.140625 -0.175781,-0.26953121 -0.222656,-0.59765621 h -0.785156 c 0.03516,1.07812496 0.644531,1.60546871 1.875,1.60546871 1.183594,0 1.933594,-0.5859375 1.933594,-1.48828121 0,-0.703125 -0.398438,-1.0898438 -1.324219,-1.3125 l -0.714844,-0.1757813 c -0.609375,-0.140625 -0.867187,-0.3398437 -0.867187,-0.6679687 0,-0.4335938 0.375,-0.703125 0.984375,-0.703125 0.609375,0 0.925781,0.2578125 0.949218,0.75 z m 4.482422,0 c -0.01172,-0.9257813 -0.621094,-1.4414063 -1.699219,-1.4414063 -1.101563,0 -1.804688,0.5625 -1.804688,1.4296875 0,0.7382813 0.375,1.0898438 1.488282,1.359375 l 0.703125,0.1640625 c 0.515625,0.1289063 0.726562,0.3164063 0.726562,0.65625 0,0.43359376 -0.445312,0.73828126 -1.101562,0.73828126 -0.398438,0 -0.738282,-0.1171875 -0.925782,-0.31640625 -0.117187,-0.140625 -0.175781,-0.26953121 -0.222656,-0.59765621 h -0.785156 c 0.03516,1.07812496 0.644531,1.60546871 1.875,1.60546871 1.183594,0 1.933594,-0.5859375 1.933594,-1.48828121 0,-0.703125 -0.398438,-1.0898438 -1.324219,-1.3125 l -0.714844,-0.1757813 c -0.609375,-0.140625 -0.867187,-0.3398437 -0.867187,-0.6679687 0,-0.4335938 0.375,-0.703125 0.984375,-0.703125 0.609375,0 0.925781,0.2578125 0.949218,0.75 z m 1.904296,-1.3125 h -0.75 v 4.6992187125 h 0.75 z m 0,-1.8398438 h -0.761718 v 0.9492188 h 0.761718 z m 1.277344,1.8398438 v 4.6992187125 h 0.75 V -2.5907734 c 0,-0.9609375 0.503906,-1.5820313 1.265625,-1.5820313 0.597656,0 0.972656,0.3515625 0.972656,0.9140625 v 3.2578125125 h 0.75 V -3.5517109 c 0,-0.7734375 -0.585937,-1.2773438 -1.488281,-1.2773438 -0.703125,0 -1.148437,0.2695313 -1.570312,0.9140625 v -0.7851562 z m 8.044922,0 v 0.6796875 c -0.375,-0.5507813 -0.832031,-0.8085938 -1.429687,-0.8085938 -1.195313,0 -2.003907,1.03125 -2.003907,2.5546875 0,0.7734375 0.210938,1.40625001 0.597657,1.85156251 0.351562,0.3984375 0.84375,0.6328125 1.335937,0.6328125 0.597656,0 1.007813,-0.2578125 1.429688,-0.84375 v 0.234375 c 0,0.64453125 -0.08203,1.03125 -0.269532,1.2890625 -0.199218,0.26953129 -0.585937,0.43359379 -1.042968,0.43359379 -0.339844,0 -0.644532,-0.082031 -0.84375,-0.2460938 C 62.808656,0.93657031 62.738344,0.81938281 62.691469,0.53813281 H 61.92975 c 0.08203,0.89062499 0.773438,1.41796879 1.875,1.41796879 0.703125,0 1.300781,-0.2226563 1.605469,-0.5976563 0.363281,-0.43359374 0.492187,-1.03124999 0.492187,-2.13281249 V -4.7001484 Z m -1.347656,0.5625 c 0.808594,0 1.277344,0.6796875 1.277344,1.8515625 0,1.125 -0.480469,1.80468746 -1.277344,1.80468746 -0.808594,0 -1.300781,-0.69140626 -1.300781,-1.82812496 0,-1.1367188 0.503906,-1.828125 1.300781,-1.828125 z m 9.565429,-2.4023438 h -0.75 v 2.4375 c -0.316406,-0.4804687 -0.808593,-0.7265625 -1.441406,-0.7265625 -1.21875,0 -2.015625,0.9726563 -2.015625,2.4726563 0,1.58203121 0.773438,2.56640621 2.039063,2.56640621 0.644531,0 1.101562,-0.24609375 1.5,-0.83203125 v 0.6210937525 h 0.667968 z m -2.0625,2.4023438 c 0.808594,0 1.3125,0.7265625 1.3125,1.8398437 0,1.0898438 -0.515625,1.80468751 -1.3125,1.80468751 -0.820312,0 -1.371093,-0.72656251 -1.371093,-1.81640621 0,-1.1015625 0.550781,-1.828125 1.371093,-1.828125 z m 7.400391,3.70312496 c -0.08203,0.0117188 -0.117187,0.0117188 -0.152344,0.0117188 -0.269531,0 -0.410156,-0.12890625 -0.410156,-0.36328125 V -3.5517109 c 0,-0.8320313 -0.609375,-1.2773438 -1.769531,-1.2773438 -0.679688,0 -1.242188,0.1875 -1.558594,0.5390625 -0.210937,0.2460938 -0.304687,0.515625 -0.316406,0.984375 h 0.75 c 0.05859,-0.5742187 0.398437,-0.8320312 1.101562,-0.8320312 0.667969,0 1.054688,0.2460937 1.054688,0.6914062 v 0.1992188 c 0,0.3164062 -0.1875,0.4453125 -0.785156,0.515625 -1.054688,0.140625 -1.21875,0.1757812 -1.5,0.2929687 -0.550782,0.2226563 -0.832032,0.6445313 -0.832032,1.2539063 0,0.85546871 0.597657,1.39453121 1.546875,1.39453121 0.585938,0 1.066407,-0.2109374975 1.59375,-0.69140625 0.04687,0.46875 0.28125,0.69140625 0.773438,0.69140625 0.152344,0 0.269531,-0.0234375 0.503906,-0.0820313 z M 77.465883,-1.4774922 c 0,0.2460938 -0.08203,0.3984375 -0.304688,0.60937501 -0.304687,0.28125 -0.667968,0.421875 -1.113281,0.421875 -0.574219,0 -0.914062,-0.28125 -0.914062,-0.76171871 0,-0.4921875 0.328125,-0.7382813 1.125,-0.8554688 0.785156,-0.1054687 0.949218,-0.140625 1.207031,-0.2578125 z m 3.764648,-3.2226562 h -0.761718 v -1.2890625 h -0.75 v 1.2890625 H 79.086 v 0.609375 h 0.632813 v 3.55078121 c 0,0.48046875 0.328125,0.75 0.902343,0.75 0.1875,0 0.363282,-0.0234375 0.609375,-0.0703125 v -0.62109375 c -0.09375,0.0234375 -0.210937,0.0351563 -0.351562,0.0351563 -0.328125,0 -0.410156,-0.09375 -0.410156,-0.421875 V -4.0907734 h 0.761718 z m 5.012696,4.26562496 c -0.08203,0.0117188 -0.117188,0.0117188 -0.152344,0.0117188 -0.269531,0 -0.410156,-0.12890625 -0.410156,-0.36328125 V -3.5517109 c 0,-0.8320313 -0.609375,-1.2773438 -1.769532,-1.2773438 -0.679687,0 -1.242187,0.1875 -1.558593,0.5390625 -0.210938,0.2460938 -0.304688,0.515625 -0.316407,0.984375 h 0.75 c 0.05859,-0.5742187 0.398438,-0.8320312 1.101563,-0.8320312 0.667969,0 1.054687,0.2460937 1.054687,0.6914062 v 0.1992188 c 0,0.3164062 -0.1875,0.4453125 -0.785156,0.515625 -1.054687,0.140625 -1.21875,0.1757812 -1.5,0.2929687 -0.550781,0.2226563 -0.832031,0.6445313 -0.832031,1.2539063 0,0.85546871 0.597656,1.39453121 1.546875,1.39453121 0.585937,0 1.066406,-0.2109374975 1.59375,-0.69140625 0.04687,0.46875 0.28125,0.69140625 0.773437,0.69140625 0.152344,0 0.269532,-0.0234375 0.503907,-0.0820313 z M 84.942445,-1.4774922 c 0,0.2460938 -0.08203,0.3984375 -0.304687,0.60937501 -0.304688,0.28125 -0.667969,0.421875 -1.113281,0.421875 -0.574219,0 -0.914063,-0.28125 -0.914063,-0.76171871 0,-0.4921875 0.328125,-0.7382813 1.125,-0.8554688 0.785156,-0.1054687 0.949219,-0.140625 1.207031,-0.2578125 z m 6.108399,-5.0625 c -0.902344,1.1835938 -1.464844,2.8125 -1.464844,4.21875 0,1.41796876 0.5625,3.04687501 1.464844,4.21875 h 0.492187 c -0.796875,-1.27734374 -1.230468,-2.78906249 -1.230468,-4.21875 0,-1.4296875 0.433593,-2.9414062 1.230468,-4.21875 z m 3.18457,2.015625 V -9.296875e-4 H 95.02057 V -6.3524922 h -0.515625 c -0.28125,0.9726563 -0.457031,1.1015625 -1.675781,1.2539063 v 0.5742187 z m 3.495117,6.421875 c 0.902344,-1.17187499 1.464844,-2.80078124 1.464844,-4.2070312 0,-1.4179688 -0.5625,-3.046875 -1.464844,-4.2304688 h -0.492187 c 0.785156,1.2890625 1.230469,2.7890625 1.230469,4.2304688 0,1.41796871 -0.445313,2.94140621 -1.230469,4.2070312 z m 0,0"
       style="fill:#000000;fill-opacity:1;fill-rule:nonzero;stroke:none"
       aria-label="Copyprocessingdata(1)"
       transform="matrix(1.3333333,0,0,1.3333333,69.552,56.997333)" />
    <path
       id="path24"
       d="m 120.95421,-62.92906 h 236.7079"
       style="fill:none;stroke:#808080;stroke-width:0.99628;stroke-linecap:butt;stroke-linejoin:miter;stroke-miterlimit:10;stroke-dasharray:none;stroke-opacity:1"
       transform="matrix(1.3333333,0,0,-1.3333333,52.288,19.396)" />
    <path
       id="path25"
       d="M 5.20058,0 C 3.65962,0.28891 1.15567,1.15567 -0.57784,2.1669 V -2.1669 C 1.15567,-1.15567 3.65962,-0.28891 5.20058,0"
       style="fill:#808080;fill-opacity:1;fill-rule:nonzero;stroke:none"
       transform="matrix(1.3333333,0,0,-1.3333333,529.17081,103.30141)" />
    <path
       id="path26"
       d="M 1.7332969,-6.5399062 H 0.88954688 V -8.4375e-4 H 1.7332969 Z m 1.3916015,1.8398437 v 4.69921875 h 0.75 V -2.5906875 c 0,-0.9609375 0.5039063,-1.5820312 1.265625,-1.5820312 0.5976563,0 0.9726563,0.3515625 0.9726563,0.9140625 v 3.25781245 h 0.75 V -3.551625 c 0,-0.7734375 -0.5859375,-1.2773437 -1.4882813,-1.2773437 -0.703125,0 -1.1484375,0.2695312 -1.5703125,0.9140625 v -0.7851563 z m 8.2792966,1.3125 c -0.01172,-0.9257812 -0.621093,-1.4414062 -1.6992184,-1.4414062 -1.1015625,0 -1.8046875,0.5625 -1.8046875,1.4296875 0,0.7382812 0.375,1.0898437 1.4882812,1.359375 l 0.7031247,0.1640625 c 0.515625,0.1289062 0.726563,0.3164062 0.726563,0.65625 0,0.4335937 -0.445313,0.7382812 -1.1015627,0.7382812 -0.3984375,0 -0.7382812,-0.1171875 -0.9257812,-0.31640625 C 8.6737266,-0.93834375 8.6151328,-1.06725 8.5682578,-1.395375 H 7.7831016 c 0.035156,1.078125 0.6445312,1.60546875 1.875,1.60546875 1.1835934,0 1.9335934,-0.5859375 1.9335934,-1.48828125 0,-0.703125 -0.398437,-1.0898437 -1.324218,-1.3125 L 9.5526328,-2.7664687 c -0.609375,-0.140625 -0.8671875,-0.3398438 -0.8671875,-0.6679688 0,-0.4335937 0.375,-0.703125 0.984375,-0.703125 0.6093747,0 0.9257817,0.2578125 0.9492187,0.75 z m 2.830078,-1.3125 H 13.472555 V -5.989125 h -0.75 v 1.2890625 h -0.632813 v 0.609375 h 0.632813 v 3.55078125 c 0,0.48046875 0.328125,0.75 0.902343,0.75 0.1875,0 0.363282,-0.0234375 0.609375,-0.0703125 V -0.4813125 c -0.09375,0.0234375 -0.210937,0.0351563 -0.351562,0.0351563 -0.328125,0 -0.410156,-0.09375 -0.410156,-0.421875 v -3.2226563 h 0.761718 z m 0.840821,0 v 4.69921875 h 0.75 V -2.4383437 c 0,-0.6679688 0.175781,-1.1132813 0.527344,-1.3710938 0.234375,-0.1757812 0.457031,-0.2226562 0.984375,-0.234375 v -0.7617187 c -0.128907,-0.023437 -0.199219,-0.023437 -0.292969,-0.023437 -0.480469,0 -0.855469,0.28125 -1.277344,0.984375 V -4.700062 Z m 6.823242,4.69921875 V -4.7000625 h -0.75 v 2.6601563 c 0,0.9609375 -0.503906,1.59374995 -1.277344,1.59374995 -0.597656,0 -0.972656,-0.36328125 -0.972656,-0.92578125 v -3.328125 h -0.738281 v 3.6210938 c 0,0.7851562 0.574218,1.28906245 1.488281,1.28906245 0.691406,0 1.136719,-0.24609375 1.570312,-0.8671875 v 0.65625 z m 4.880859,-3.11718745 c -0.03516,-0.4570313 -0.128906,-0.75 -0.304687,-1.0195313 -0.328125,-0.4335937 -0.890625,-0.6914062 -1.546875,-0.6914062 -1.265625,0 -2.085938,0.9960937 -2.085938,2.5546875 0,1.52343745 0.808594,2.48437495 2.074219,2.48437495 1.125,0 1.828125,-0.6796875 1.921875,-1.82812495 h -0.75 c -0.128906,0.7617187 -0.515625,1.1367187 -1.148437,1.1367187 -0.832032,0 -1.324219,-0.6796875 -1.324219,-1.7929687 0,-1.171875 0.492187,-1.8632813 1.300781,-1.8632813 0.632813,0 1.019531,0.3632813 1.113281,1.0195313 z m 2.53711,-1.5820313 H 28.554586 V -5.989125 h -0.75 v 1.2890625 h -0.632813 v 0.609375 h 0.632813 v 3.55078125 c 0,0.48046875 0.328125,0.75 0.902344,0.75 0.1875,0 0.363281,-0.0234375 0.609375,-0.0703125 V -0.4813125 c -0.09375,0.0234375 -0.210938,0.0351563 -0.351563,0.0351563 -0.328125,0 -0.410156,-0.09375 -0.410156,-0.421875 v -3.2226563 h 0.761719 z m 4.977539,0 H 33.532125 V -5.989125 h -0.75 v 1.2890625 h -0.632812 v 0.609375 h 0.632812 v 3.55078125 c 0,0.48046875 0.328125,0.75 0.902344,0.75 0.1875,0 0.363281,-0.0234375 0.609375,-0.0703125 V -0.4813125 c -0.09375,0.0234375 -0.210938,0.0351563 -0.351563,0.0351563 -0.328125,0 -0.410156,-0.09375 -0.410156,-0.421875 v -3.2226563 h 0.761719 z m 0.849609,-1.8398437 v 6.53906245 h 0.738281 V -2.5906875 c 0,-0.9609375 0.503907,-1.5820312 1.277344,-1.5820312 0.234375,0 0.480469,0.070312 0.65625,0.2109375 0.222656,0.1523437 0.304688,0.375 0.304688,0.703125 v 3.25781245 h 0.75 V -3.551625 c 0,-0.7851562 -0.5625,-1.2773437 -1.476563,-1.2773437 -0.667969,0 -1.066406,0.1992187 -1.511719,0.7734375 v -2.484375 z M 44.090719,-2.0985 c 0,-0.7148437 -0.04687,-1.1484375 -0.1875,-1.5 -0.304688,-0.7734375 -1.019531,-1.2304687 -1.898438,-1.2304687 -1.300781,0 -2.144531,0.9960937 -2.144531,2.5429687 0,1.546875 0.808594,2.49609375 2.132813,2.49609375 1.066406,0 1.816406,-0.609375 2.003906,-1.64062495 h -0.75 c -0.210938,0.6210937 -0.632813,0.9492187 -1.230469,0.9492187 -0.480469,0 -0.878906,-0.22265625 -1.125,-0.609375 C 40.704,-1.3602187 40.645406,-1.62975 40.633688,-2.0985 Z m -3.433594,-0.609375 c 0.05859,-0.8671875 0.585938,-1.4296875 1.335938,-1.4296875 0.738281,0 1.300781,0.609375 1.300781,1.3710938 0,0.023437 0,0.035156 0,0.058594 z M 47.454,1.9561875 h 0.761719 v -2.44921875 c 0.386719,0.48046875 0.832031,0.703125 1.441406,0.703125 1.207031,0 2.003906,-0.984375 2.003906,-2.48437495 0,-1.5703125 -0.773437,-2.5546875 -2.015625,-2.5546875 -0.632812,0 -1.148437,0.28125 -1.5,0.84375 V -4.7000625 H 47.454 Z m 2.0625,-6.09375 c 0.832031,0 1.371094,0.7265625 1.371094,1.8515625 0,1.0664063 -0.550781,1.79296875 -1.371094,1.79296875 -0.785156,0 -1.300781,-0.71484375 -1.300781,-1.81640625 0,-1.1015625 0.515625,-1.828125 1.300781,-1.828125 z m 3.064453,-0.5625 v 4.69921875 h 0.75 V -2.4383437 c 0,-0.6679688 0.175781,-1.1132813 0.527344,-1.3710938 0.234375,-0.1757812 0.457031,-0.2226562 0.984375,-0.234375 v -0.7617187 c -0.128906,-0.023437 -0.199219,-0.023437 -0.292969,-0.023437 -0.480469,0 -0.855469,0.28125 -1.277344,0.984375 V -4.700062 Z m 4.801758,-0.1289062 c -1.3125,0 -2.109375,0.9375 -2.109375,2.5195312 0,1.5703125 0.785156,2.51953125 2.121094,2.51953125 1.3125,0 2.121093,-0.94921875 2.121093,-2.48437495 0,-1.6289063 -0.773437,-2.5546875 -2.132812,-2.5546875 z m 0.01172,0.6914062 c 0.84375,0 1.347656,0.6796875 1.347656,1.8515625 0,1.1015625 -0.527344,1.8046875 -1.347656,1.8046875 -0.832032,0 -1.347657,-0.6914062 -1.347657,-1.828125 0,-1.1367187 0.515625,-1.828125 1.347657,-1.828125 z m 6.755859,1.0195313 c -0.03516,-0.4570313 -0.128906,-0.75 -0.304687,-1.0195313 -0.328125,-0.4335937 -0.890625,-0.6914062 -1.546875,-0.6914062 -1.265625,0 -2.085938,0.9960937 -2.085938,2.5546875 0,1.52343745 0.808594,2.48437495 2.074219,2.48437495 1.125,0 1.828125,-0.6796875 1.921875,-1.82812495 h -0.75 c -0.128906,0.7617187 -0.515625,1.1367187 -1.148438,1.1367187 -0.832031,0 -1.324218,-0.6796875 -1.324218,-1.7929687 0,-1.171875 0.492187,-1.8632813 1.300781,-1.8632813 0.632812,0 1.019531,0.3632813 1.113281,1.0195313 z M 69.007711,-2.0985 c 0,-0.7148437 -0.04687,-1.1484375 -0.1875,-1.5 -0.304688,-0.7734375 -1.019531,-1.2304687 -1.898438,-1.2304687 -1.300781,0 -2.144531,0.9960937 -2.144531,2.5429687 0,1.546875 0.808594,2.49609375 2.132813,2.49609375 1.066406,0 1.816406,-0.609375 2.003906,-1.64062495 h -0.75 c -0.210938,0.6210937 -0.632813,0.9492187 -1.230469,0.9492187 -0.480469,0 -0.878906,-0.22265625 -1.125,-0.609375 C 65.620992,-1.3602187 65.562398,-1.62975 65.55068,-2.0985 Z m -3.433594,-0.609375 c 0.05859,-0.8671875 0.585938,-1.4296875 1.335938,-1.4296875 0.738281,0 1.300781,0.609375 1.300781,1.3710938 0,0.023437 0,0.035156 0,0.058594 z m 7.751953,-0.6796875 c -0.01172,-0.9257812 -0.621093,-1.4414062 -1.699218,-1.4414062 -1.101563,0 -1.804688,0.5625 -1.804688,1.4296875 0,0.7382812 0.375,1.0898437 1.488281,1.359375 l 0.703125,0.1640625 c 0.515625,0.1289062 0.726563,0.3164062 0.726563,0.65625 0,0.4335937 -0.445313,0.7382812 -1.101563,0.7382812 -0.398437,0 -0.738281,-0.1171875 -0.925781,-0.31640625 C 70.595602,-0.93834375 70.537008,-1.06725 70.490133,-1.395375 h -0.785156 c 0.03516,1.078125 0.644531,1.60546875 1.875,1.60546875 1.183593,0 1.933593,-0.5859375 1.933593,-1.48828125 0,-0.703125 -0.398437,-1.0898437 -1.324218,-1.3125 l -0.714844,-0.1757812 c -0.609375,-0.140625 -0.867188,-0.3398438 -0.867188,-0.6679688 0,-0.4335937 0.375,-0.703125 0.984375,-0.703125 0.609375,0 0.925782,0.2578125 0.949219,0.75 z m 4.482422,0 c -0.01172,-0.9257812 -0.621094,-1.4414062 -1.699219,-1.4414062 -1.101562,0 -1.804687,0.5625 -1.804687,1.4296875 0,0.7382812 0.375,1.0898437 1.488281,1.359375 l 0.703125,0.1640625 c 0.515625,0.1289062 0.726563,0.3164062 0.726563,0.65625 0,0.4335937 -0.445313,0.7382812 -1.101563,0.7382812 -0.398437,0 -0.738281,-0.1171875 -0.925781,-0.31640625 C 75.078023,-0.93834375 75.01943,-1.06725 74.972555,-1.395375 h -0.785157 c 0.03516,1.078125 0.644532,1.60546875 1.875,1.60546875 1.183594,0 1.933594,-0.5859375 1.933594,-1.48828125 0,-0.703125 -0.398437,-1.0898437 -1.324219,-1.3125 L 75.95693,-2.7664687 c -0.609375,-0.140625 -0.867188,-0.3398438 -0.867188,-0.6679688 0,-0.4335937 0.375,-0.703125 0.984375,-0.703125 0.609375,0 0.925781,0.2578125 0.949219,0.75 z m 1.904297,-1.3125 h -0.75 v 4.69921875 h 0.75 z m 0,-1.8398437 H 78.95107 v 0.9492187 h 0.761719 z m 1.277344,1.8398437 v 4.69921875 h 0.75 V -2.5906875 c 0,-0.9609375 0.503906,-1.5820312 1.265625,-1.5820312 0.597656,0 0.972656,0.3515625 0.972656,0.9140625 v 3.25781245 h 0.75 V -3.551625 c 0,-0.7734375 -0.585937,-1.2773437 -1.488281,-1.2773437 -0.703125,0 -1.148438,0.2695312 -1.570313,0.9140625 v -0.7851563 z m 8.041992,0 v 0.6796875 c -0.375,-0.5507812 -0.832031,-0.8085937 -1.429687,-0.8085937 -1.195313,0 -2.003907,1.03125 -2.003907,2.5546875 0,0.7734375 0.210938,1.40624995 0.597657,1.85156245 0.351562,0.3984375 0.84375,0.6328125 1.335937,0.6328125 0.597656,0 1.007813,-0.2578125 1.429688,-0.84375 v 0.234375 c 0,0.64453125 -0.08203,1.03125 -0.269532,1.2890625 C 88.493063,1.1593125 88.106344,1.323375 87.649313,1.323375 c -0.339844,0 -0.644532,-0.082031 -0.84375,-0.2460937 C 86.629781,0.93665625 86.559469,0.81946875 86.512594,0.53821875 h -0.761719 c 0.08203,0.89062505 0.773438,1.41796875 1.875,1.41796875 0.703125,0 1.300781,-0.2226562 1.605469,-0.5976562 0.363281,-0.4335938 0.492187,-1.03125005 0.492187,-2.13281255 V -4.7000625 Z m -1.347656,0.5625 c 0.808594,0 1.277344,0.6796875 1.277344,1.8515625 0,1.125 -0.480469,1.8046875 -1.277344,1.8046875 -0.808594,0 -1.300781,-0.6914062 -1.300781,-1.828125 0,-1.1367187 0.503906,-1.828125 1.300781,-1.828125 z m 7.256836,-2.4023437 c -0.902344,1.1835937 -1.464844,2.8125 -1.464844,4.21875 0,1.4179687 0.5625,3.04687495 1.464844,4.21875 h 0.492187 c -0.796875,-1.2773438 -1.230469,-2.78906255 -1.230469,-4.21875 0,-1.4296875 0.433594,-2.9414063 1.230469,-4.21875 z M 100.34072,-0.786 h -3.339845 c 0.08203,-0.515625 0.363281,-0.84375 1.148438,-1.3007812 l 0.890625,-0.4921875 c 0.890625,-0.4804688 1.347652,-1.1367188 1.347652,-1.9101563 0,-0.5273437 -0.21093,-1.0195312 -0.597652,-1.3710937 -0.375,-0.3398438 -0.832032,-0.4921875 -1.441407,-0.4921875 -0.808593,0 -1.40625,0.28125 -1.757812,0.8203125 -0.222656,0.3398437 -0.316406,0.7382812 -0.339844,1.3828125 h 0.796875 c 0.02344,-0.4335938 0.07031,-0.6914063 0.1875,-0.9023438 0.199219,-0.3867187 0.609375,-0.609375 1.089844,-0.609375 0.714844,0 1.253906,0.5039063 1.253906,1.1835938 0,0.5039062 -0.292969,0.9375 -0.855469,1.2539062 L 97.8915,-2.75475 c -1.324219,0.75 -1.710937,1.359375 -1.78125,2.75390625 h 4.23047 z m 1.2832,2.6835938 c 0.90235,-1.17187505 1.46485,-2.8007813 1.46485,-4.2070313 0,-1.4179687 -0.5625,-3.046875 -1.46485,-4.2304687 h -0.49219 c 0.78516,1.2890625 1.23047,2.7890625 1.23047,4.2304687 0,1.41796875 -0.44531,2.94140625 -1.23047,4.2070313 z m 0,0"
       style="fill:#000000;fill-opacity:1;fill-rule:nonzero;stroke:none"
       aria-label="Instructtheprocessing(2)"
       transform="matrix(1.3333333,0,0,1.3333333,228.228,95.548)" />
    <path
       id="path27"
       d="M 362.8627,-127.56062 H 247.10905"
       style="fill:none;stroke:#808080;stroke-width:0.99628;stroke-linecap:butt;stroke-linejoin:miter;stroke-miterlimit:10;stroke-dasharray:none;stroke-opacity:1"
       transform="matrix(1.3333333,0,0,-1.3333333,52.288,19.396)" />
    <path
       id="path28"
       d="M 5.20058,0 C 3.65962,0.28891 1.15567,1.15567 -0.57784,2.1669 V -2.1669 C 1.15567,-1.15567 3.65962,-0.28891 5.20058,0"
       style="fill:#808080;fill-opacity:1;fill-rule:nonzero;stroke:none"
       transform="matrix(-1.3333333,0,0,1.3333333,381.76673,189.47683)" />
    <path
       id="path29"
       d="m 5.3423672,-4.6176484 c -0.011719,-1.2773438 -0.890625,-2.0273438 -2.390625,-2.0273438 -1.4414063,0 -2.32031251,0.7382813 -2.32031251,1.921875 0,0.796875 0.42187501,1.3007813 1.27734371,1.5234375 l 1.6171875,0.4335938 c 0.8320313,0.2109375 1.2070313,0.5390625 1.2070313,1.0546875 0,0.3515625 -0.1875,0.703125 -0.46875,0.90234371 -0.2578125,0.17578125 -0.6679688,0.28125 -1.1953125,0.28125 -0.7148438,0 -1.1953125,-0.17578125 -1.5117188,-0.55078121 -0.2460937,-0.28125 -0.3515625,-0.5976563 -0.3398437,-0.9960938 H 0.43221094 c 0,0.5976563 0.1171875,0.984375 0.38671875,1.34765626 0.44531251,0.609375 1.19531251,0.9375 2.19140621,0.9375 0.7851563,0 1.4179688,-0.1875 1.8398438,-0.50390625 0.4335937,-0.3515625 0.7148437,-0.93750001 0.7148437,-1.50000001 0,-0.8085937 -0.5039062,-1.3945312 -1.3945312,-1.640625 l -1.640625,-0.4335937 c -0.7851563,-0.2226563 -1.0664063,-0.46875 -1.0664063,-0.9726563 0,-0.6679687 0.5742188,-1.1015625 1.453125,-1.1015625 1.0429688,0 1.6289063,0.46875 1.640625,1.3242188 z m 2.9121094,-0.082031 H 7.4927578 v -1.2890625 h -0.75 v 1.2890625 H 6.1099453 v 0.609375 h 0.6328125 v 3.55078126 c 0,0.48046875 0.328125,0.75 0.9023438,0.75 0.1875,0 0.3632812,-0.0234375 0.609375,-0.0703125 v -0.62109375 c -0.09375,0.0234375 -0.2109375,0.0351563 -0.3515625,0.0351563 -0.328125,0 -0.4101563,-0.09375 -0.4101563,-0.421875 V -4.0903047 h 0.7617188 z m 2.6572264,-0.1289062 c -1.3124999,0 -2.1093749,0.9375 -2.1093749,2.5195312 0,1.57031251 0.7851563,2.51953126 2.1210939,2.51953126 1.3125,0 2.121094,-0.94921875 2.121094,-2.48437496 0,-1.6289063 -0.773438,-2.5546875 -2.132813,-2.5546875 z m 0.01172,0.6914062 c 0.84375,0 1.347656,0.6796875 1.347656,1.8515625 0,1.1015625 -0.527344,1.80468751 -1.347656,1.80468751 -0.832031,0 -1.3476564,-0.69140621 -1.3476564,-1.82812501 0,-1.1367187 0.5156254,-1.828125 1.3476564,-1.828125 z m 3.155273,-0.5625 v 4.6992187625 h 0.75 V -2.4379609 c 0,-0.6679688 0.175782,-1.1132813 0.527344,-1.3710938 0.234375,-0.1757812 0.457031,-0.2226562 0.984375,-0.234375 v -0.7617187 c -0.128906,-0.023437 -0.199219,-0.023437 -0.292969,-0.023437 -0.480468,0 -0.855468,0.28125 -1.277343,0.984375 v -0.8554688 z m 6.958008,2.6015625 c 0,-0.7148437 -0.04687,-1.1484375 -0.1875,-1.5 -0.304687,-0.7734375 -1.019531,-1.2304687 -1.898437,-1.2304687 -1.300782,0 -2.144532,0.9960937 -2.144532,2.5429687 0,1.54687501 0.808594,2.49609376 2.132813,2.49609376 1.066406,0 1.816406,-0.609375 2.003906,-1.64062496 h -0.75 c -0.210937,0.62109371 -0.632812,0.94921871 -1.230469,0.94921871 -0.480468,0 -0.878906,-0.22265625 -1.125,-0.60937501 -0.1875,-0.2695312 -0.246093,-0.5390625 -0.257812,-1.0078125 z m -3.433594,-0.609375 c 0.05859,-0.8671875 0.585938,-1.4296875 1.335938,-1.4296875 0.738281,0 1.300781,0.609375 1.300781,1.3710938 0,0.023437 0,0.035156 0,0.058594 z m 6.94043,-1.9921875 v 4.6992187625 h 0.75 V -2.4379609 c 0,-0.6679688 0.175781,-1.1132813 0.527344,-1.3710938 0.234375,-0.1757812 0.457031,-0.2226562 0.984375,-0.234375 v -0.7617187 c -0.128906,-0.023437 -0.199219,-0.023437 -0.292969,-0.023437 -0.480469,0 -0.855469,0.28125 -1.277344,0.984375 v -0.8554688 z m 6.958008,2.6015625 c 0,-0.7148437 -0.04687,-1.1484375 -0.1875,-1.5 -0.304688,-0.7734375 -1.019531,-1.2304687 -1.898438,-1.2304687 -1.300781,0 -2.144531,0.9960937 -2.144531,2.5429687 0,1.54687501 0.808594,2.49609376 2.132813,2.49609376 1.066406,0 1.816406,-0.609375 2.003906,-1.64062496 h -0.75 c -0.210938,0.62109371 -0.632813,0.94921871 -1.230469,0.94921871 -0.480469,0 -0.878906,-0.22265625 -1.125,-0.60937501 -0.1875,-0.2695312 -0.246094,-0.5390625 -0.257812,-1.0078125 z m -3.433594,-0.609375 c 0.05859,-0.8671875 0.585938,-1.4296875 1.335938,-1.4296875 0.738281,0 1.300781,0.609375 1.300781,1.3710938 0,0.023437 0,0.035156 0,0.058594 z m 7.751953,-0.6796875 c -0.01172,-0.9257812 -0.621093,-1.4414062 -1.699218,-1.4414062 -1.101563,0 -1.804688,0.5625 -1.804688,1.4296875 0,0.7382812 0.375,1.0898437 1.488281,1.359375 l 0.703125,0.1640625 c 0.515625,0.1289062 0.726563,0.3164062 0.726563,0.65625 0,0.43359371 -0.445313,0.73828121 -1.101563,0.73828121 -0.398437,0 -0.738281,-0.1171875 -0.925781,-0.31640625 -0.117187,-0.140625 -0.175781,-0.26953126 -0.222656,-0.59765626 h -0.785156 c 0.03516,1.07812501 0.644531,1.60546876 1.875,1.60546876 1.183593,0 1.933593,-0.5859375 1.933593,-1.48828126 0,-0.703125 -0.398437,-1.0898437 -1.324218,-1.3125 l -0.714844,-0.1757812 c -0.609375,-0.140625 -0.867188,-0.3398438 -0.867188,-0.6679688 0,-0.4335937 0.375,-0.703125 0.984375,-0.703125 0.609375,0 0.925782,0.2578125 0.949219,0.75 z m 4.88086,3.3867187625 V -4.6996797 h -0.75 v 2.6601563 c 0,0.9609375 -0.503907,1.59374996 -1.277344,1.59374996 -0.597656,0 -0.972656,-0.36328125 -0.972656,-0.92578126 v -3.328125 h -0.738282 v 3.6210938 c 0,0.78515621 0.574219,1.28906246 1.488282,1.28906246 0.691406,0 1.136718,-0.24609375 1.570312,-0.8671875 V -4.609375e-4 Z M 42.72225,-6.5395234 h -0.75 v 6.5390624625 h 0.75 z m 2.90332,1.8398437 h -0.761718 v -1.2890625 h -0.75 v 1.2890625 h -0.632813 v 0.609375 h 0.632813 v 3.55078126 c 0,0.48046875 0.328125,0.75 0.902343,0.75 0.1875,0 0.363282,-0.0234375 0.609375,-0.0703125 v -0.62109375 c -0.09375,0.0234375 -0.210937,0.0351563 -0.351562,0.0351563 -0.328125,0 -0.410156,-0.09375 -0.410156,-0.421875 V -4.0903047 h 0.761718 z m 4.145508,1.3125 c -0.01172,-0.9257812 -0.621094,-1.4414062 -1.699219,-1.4414062 -1.101562,0 -1.804687,0.5625 -1.804687,1.4296875 0,0.7382812 0.375,1.0898437 1.488281,1.359375 l 0.703125,0.1640625 c 0.515625,0.1289062 0.726563,0.3164062 0.726563,0.65625 0,0.43359371 -0.445313,0.73828121 -1.101563,0.73828121 -0.398437,0 -0.738281,-0.1171875 -0.925781,-0.31640625 -0.117188,-0.140625 -0.175781,-0.26953126 -0.222656,-0.59765626 h -0.785157 c 0.03516,1.07812501 0.644532,1.60546876 1.875,1.60546876 1.183594,0 1.933594,-0.5859375 1.933594,-1.48828126 0,-0.703125 -0.398437,-1.0898437 -1.324219,-1.3125 l -0.714843,-0.1757812 c -0.609375,-0.140625 -0.867188,-0.3398438 -0.867188,-0.6679688 0,-0.4335937 0.375,-0.703125 0.984375,-0.703125 0.609375,0 0.925781,0.2578125 0.949219,0.75 z m 0,0"
       style="fill:#000000;fill-opacity:1;fill-rule:nonzero;stroke:none"
       aria-label="Storeresults"
       transform="matrix(1.3333333,0,0,1.3333333,421.912,184.13733)" />
    <path
       id="path30"
       d="M 241.90845,-144.56976 H 5.20058"
       style="fill:none;stroke:#808080;stroke-width:0.99628;stroke-linecap:butt;stroke-linejoin:miter;stroke-miterlimit:10;stroke-dasharray:none;stroke-opacity:1"
       transform="matrix(1.3333333,0,0,-1.3333333,52.288,19.396)" />
    <path
       id="path31"
       d="M 5.20058,0 C 3.65962,0.28891 1.15567,1.15567 -0.57784,2.1669 V -2.1669 C 1.15567,-1.15567 3.65962,-0.28891 5.20058,0"
       style="fill:#808080;fill-opacity:1;fill-rule:nonzero;stroke:none"
       transform="matrix(-1.3333333,0,0,1.3333333,59.222107,212.15568)" />
    <path
       id="path32"
       d="m 5.9289609,-4.5124922 c -0.2578125,-1.4296875 -1.078125,-2.1328125 -2.5195312,-2.1328125 -0.8789063,0 -1.5820313,0.28125 -2.0625,0.8203125 -0.59765626,0.6445313 -0.91406251,1.5703125 -0.91406251,2.6367188 0,1.0664062 0.328125,1.9921875 0.94921871,2.63671871 0.5039063,0.515625 1.1484375,0.76171875 1.9921875,0.76171875 1.6054688,0 2.4960938,-0.8671875 2.6953125,-2.58984376 H 5.2023984 c -0.070312,0.4453125 -0.1523437,0.75 -0.2929687,1.0078125 -0.2695313,0.53906251 -0.8203125,0.84375001 -1.5234375,0.84375001 -1.3007813,0 -2.1210938,-1.04296871 -2.1210938,-2.67187501 0,-1.6757812 0.7851563,-2.7070312 2.0507813,-2.7070312 0.5273437,0 1.0195312,0.1640625 1.2890625,0.4101562 0.2460937,0.2226563 0.375,0.5039063 0.4804687,0.984375 z m 2.9824219,-0.3164062 c -1.3125,0 -2.109375,0.9375 -2.109375,2.5195312 0,1.57031251 0.7851563,2.51953126 2.1210938,2.51953126 1.3125004,0 2.1210934,-0.94921875 2.1210934,-2.48437496 0,-1.6289063 -0.773437,-2.5546875 -2.1328122,-2.5546875 z m 0.011719,0.6914062 c 0.84375,0 1.3476562,0.6796875 1.3476562,1.8515625 0,1.1015625 -0.5273437,1.80468751 -1.3476562,1.80468751 -0.8320313,0 -1.3476563,-0.69140621 -1.3476563,-1.82812501 0,-1.1367187 0.515625,-1.828125 1.3476563,-1.828125 z m 3.0175782,6.09375 h 0.761718 v -2.44921874 c 0.386719,0.48046875 0.832032,0.703125 1.441407,0.703125 1.207031,0 2.003906,-0.984375 2.003906,-2.48437496 0,-1.5703125 -0.773438,-2.5546875 -2.015625,-2.5546875 -0.632813,0 -1.148438,0.28125 -1.5,0.84375 V -4.6999922 H 11.94068 Z m 2.0625,-6.09375 c 0.832031,0 1.371093,0.7265625 1.371093,1.8515625 0,1.0664063 -0.550781,1.79296876 -1.371093,1.79296876 -0.785157,0 -1.300782,-0.71484376 -1.300782,-1.81640626 0,-1.1015625 0.515625,-1.828125 1.300782,-1.828125 z m 5.651367,-0.5625 -1.300781,3.65625 -1.207032,-3.65625 h -0.796875 l 1.59375,4.72265626 -0.292968,0.73828125 c -0.117188,0.32812499 -0.28125,0.45703129 -0.597657,0.45703129 -0.105468,0 -0.234375,-0.011719 -0.398437,-0.058594 v 0.6796875 c 0.152344,0.082031 0.304687,0.1171875 0.503906,0.1171875 0.246094,0 0.503906,-0.082031 0.703125,-0.2226562 0.234375,-0.1757813 0.363281,-0.375 0.503906,-0.75000004 l 2.097657,-5.68359376 z m 5.771484,0 h -0.761718 v -1.2890625 h -0.75 v 1.2890625 H 23.2815 v 0.609375 h 0.632813 v 3.55078126 c 0,0.48046875 0.328125,0.75 0.902343,0.75 0.1875,0 0.363282,-0.0234375 0.609375,-0.0703125 v -0.62109375 c -0.09375,0.0234375 -0.210937,0.0351563 -0.351562,0.0351563 -0.328125,0 -0.410156,-0.09375 -0.410156,-0.421875 V -4.0906172 h 0.761718 z m 0.84961,-1.8398437 v 6.5390624625 h 0.738281 V -2.5906172 c 0,-0.9609375 0.503906,-1.5820312 1.277344,-1.5820312 0.234375,0 0.480468,0.070312 0.65625,0.2109375 0.222656,0.1523437 0.304687,0.375 0.304687,0.703125 v 3.2578124625 h 0.75 V -3.5515547 c 0,-0.7851562 -0.5625,-1.2773437 -1.476562,-1.2773437 -0.667969,0 -1.066407,0.1992187 -1.511719,0.7734375 v -2.484375 z m 8.947265,4.4414062 c 0,-0.7148437 -0.04687,-1.1484375 -0.1875,-1.5 -0.304687,-0.7734375 -1.019531,-1.2304687 -1.898437,-1.2304687 -1.300781,0 -2.144531,0.9960937 -2.144531,2.5429687 0,1.54687501 0.808593,2.49609376 2.132812,2.49609376 1.066406,0 1.816406,-0.609375 2.003906,-1.64062496 h -0.75 c -0.210937,0.62109371 -0.632812,0.94921871 -1.230468,0.94921871 -0.480469,0 -0.878907,-0.22265625 -1.125,-0.60937501 -0.1875,-0.2695312 -0.246094,-0.5390625 -0.257813,-1.0078125 z m -3.433593,-0.609375 c 0.05859,-0.8671875 0.585937,-1.4296875 1.335937,-1.4296875 0.738281,0 1.300781,0.609375 1.300781,1.3710938 0,0.023437 0,0.035156 0,0.058594 z m 6.9375,-1.9921875 v 4.6992187625 h 0.75 V -2.4382734 c 0,-0.6679688 0.175781,-1.1132813 0.527343,-1.3710938 0.234375,-0.1757812 0.457032,-0.2226562 0.984375,-0.234375 v -0.7617187 c -0.128906,-0.023437 -0.199218,-0.023437 -0.292968,-0.023437 -0.480469,0 -0.855469,0.28125 -1.277344,0.984375 v -0.8554688 z m 6.960937,2.6015625 c 0,-0.7148437 -0.04687,-1.1484375 -0.1875,-1.5 -0.304687,-0.7734375 -1.019531,-1.2304687 -1.898437,-1.2304687 -1.300782,0 -2.144532,0.9960937 -2.144532,2.5429687 0,1.54687501 0.808594,2.49609376 2.132813,2.49609376 1.066406,0 1.816406,-0.609375 2.003906,-1.64062496 h -0.75 c -0.210937,0.62109371 -0.632812,0.94921871 -1.230469,0.94921871 -0.480468,0 -0.878906,-0.22265625 -1.125,-0.60937501 -0.1875,-0.2695312 -0.246093,-0.5390625 -0.257812,-1.0078125 z m -3.433594,-0.609375 c 0.05859,-0.8671875 0.585938,-1.4296875 1.335938,-1.4296875 0.738281,0 1.300781,0.609375 1.300781,1.3710938 0,0.023437 0,0.035156 0,0.058594 z m 7.749024,-0.6796875 c -0.01172,-0.9257812 -0.621094,-1.4414062 -1.699219,-1.4414062 -1.101563,0 -1.804688,0.5625 -1.804688,1.4296875 0,0.7382812 0.375,1.0898437 1.488282,1.359375 l 0.703125,0.1640625 c 0.515625,0.1289062 0.726562,0.3164062 0.726562,0.65625 0,0.43359371 -0.445312,0.73828121 -1.101562,0.73828121 -0.398438,0 -0.738282,-0.1171875 -0.925782,-0.31640625 -0.117187,-0.140625 -0.175781,-0.26953126 -0.222656,-0.59765626 h -0.785156 c 0.03516,1.07812501 0.644531,1.60546876 1.875,1.60546876 1.183594,0 1.933594,-0.5859375 1.933594,-1.48828126 0,-0.703125 -0.398438,-1.0898437 -1.324219,-1.3125 l -0.714844,-0.1757812 c -0.609375,-0.140625 -0.867187,-0.3398438 -0.867187,-0.6679688 0,-0.4335937 0.375,-0.703125 0.984375,-0.703125 0.609375,0 0.925781,0.2578125 0.949218,0.75 z m 4.883789,3.3867187625 V -4.6999922 h -0.75 v 2.6601563 c 0,0.9609375 -0.503906,1.59374996 -1.277344,1.59374996 -0.597656,0 -0.972656,-0.36328125 -0.972656,-0.92578126 v -3.328125 h -0.738281 v 3.6210938 c 0,0.78515621 0.574218,1.28906246 1.488281,1.28906246 0.691406,0 1.136719,-0.24609375 1.570312,-0.8671875 V -7.734375e-4 Z M 56.905523,-6.5398359 h -0.75 v 6.5390624625 h 0.75 z m 2.90625,1.8398437 h -0.761718 v -1.2890625 h -0.75 v 1.2890625 h -0.632813 v 0.609375 h 0.632813 v 3.55078126 c 0,0.48046875 0.328125,0.75 0.902343,0.75 0.1875,0 0.363282,-0.0234375 0.609375,-0.0703125 v -0.62109375 c -0.09375,0.0234375 -0.210937,0.0351563 -0.351562,0.0351563 -0.328125,0 -0.410156,-0.09375 -0.410156,-0.421875 V -4.0906172 h 0.761718 z m 4.822266,-1.8398437 c -0.902344,1.1835937 -1.464844,2.8125 -1.464844,4.21875 0,1.41796871 0.5625,3.04687496 1.464844,4.21875 h 0.492188 c -0.796875,-1.27734379 -1.230469,-2.78906254 -1.230469,-4.21875 0,-1.4296875 0.433594,-2.9414063 1.230469,-4.21875 z m 3.793945,5.015625 v 1.5234374625 h 0.785157 V -1.5242109 h 0.949218 v -0.703125 h -0.949218 v -4.125 h -0.574219 l -2.894531,3.9960937 v 0.8320313 z m 0,-0.703125 h -1.992187 l 1.992187,-2.7890625 z m 2.888672,4.125 C 72.219,0.72578906 72.7815,-0.90311719 72.7815,-2.3093672 c 0,-1.4179687 -0.5625,-3.046875 -1.464844,-4.2304687 h -0.492187 c 0.785156,1.2890625 1.230469,2.7890625 1.230469,4.2304687 0,1.41796876 -0.445313,2.94140626 -1.230469,4.2070313 z m 0,0"
       style="fill:#000000;fill-opacity:1;fill-rule:nonzero;stroke:none"
       aria-label="Copytheresult(4)"
       transform="matrix(1.3333333,0,0,1.3333333,245.208,204.544)" />
    <path
       id="path33"
       d="m 362.86269,-96.94733 c 39.41061,6.94898 41.12988,-13.81582 5.15782,-9.28489"
       style="fill:none;stroke:#808080;stroke-width:0.99628;stroke-linecap:butt;stroke-linejoin:miter;stroke-miterlimit:10;stroke-dasharray:none;stroke-opacity:1"
       transform="matrix(1.3333333,0,0,-1.3333333,52.288,19.396)" />
    <path
       id="path34"
       d="M 5.20058,0 C 3.65962,0.28891 1.15567,1.15567 -0.57784,2.1669 V -2.1669 C 1.15567,-1.15567 3.65962,-0.28891 5.20058,0"
       style="fill:#808080;fill-opacity:1;fill-rule:nonzero;stroke:none"
       transform="matrix(-1.31872,-0.19630667,-0.19630667,1.31872,542.96305,161.01596)" />
    <path
       id="path35"
       d="M 306.56384,-95.11772 H 441.41511 V -79.9944 H 306.56384 Z"
       style="fill:#ffffff;fill-opacity:1;fill-rule:nonzero;stroke:none"
       transform="matrix(1.3333333,0,0,-1.3333333,52.288,19.396)" />
    <path
       id="path36"
       d="m 1.6393281,-2.9764844 h 3.5625 v -0.7382812 h -3.5625 V -5.8007031 H 5.3307344 V -6.5389844 H 0.80729688 V 7.8125e-5 H 5.4947969 V -0.73820312 H 1.6393281 Z m 6.9550782,0.5507813 1.5820317,-2.2734375 H 9.3326875 l -1.125,1.6992187 -1.1367187,-1.6992187 h -0.84375 L 7.7975313,-2.3905469 6.1334688,7.8125e-5 H 6.9889375 L 8.1725313,-1.8046094 9.356125,7.8125e-5 h 0.867188 z m 6.1933597,0.328125 c 0,-0.7148438 -0.04687,-1.1484375 -0.1875,-1.5 -0.304688,-0.7734375 -1.019532,-1.2304688 -1.898438,-1.2304688 -1.300781,0 -2.144531,0.9960938 -2.144531,2.5429688 0,1.54687498 0.808594,2.49609373 2.132812,2.49609373 1.066407,0 1.816407,-0.609375 2.003907,-1.64062503 h -0.75 c -0.210938,0.62109378 -0.632813,0.94921878 -1.230469,0.94921878 -0.480469,0 -0.878906,-0.22265625 -1.125,-0.60937498 -0.1875,-0.2695313 -0.246094,-0.5390625 -0.257813,-1.0078125 z m -3.433594,-0.609375 c 0.05859,-0.8671875 0.585937,-1.4296875 1.335937,-1.4296875 0.738282,0 1.300782,0.609375 1.300782,1.3710937 0,0.023437 0,0.035156 0,0.058594 z m 8.044922,-0.4101563 c -0.03516,-0.4570312 -0.128906,-0.75 -0.304688,-1.0195312 -0.328125,-0.4335938 -0.890625,-0.6914063 -1.546875,-0.6914063 -1.265625,0 -2.085937,0.9960938 -2.085937,2.5546875 0,1.52343753 0.808594,2.48437503 2.074219,2.48437503 1.125,0 1.828125,-0.6796875 1.921875,-1.82812503 h -0.75 c -0.128907,0.76171878 -0.515625,1.13671878 -1.148438,1.13671878 -0.832031,0 -1.324219,-0.67968748 -1.324219,-1.79296878 0,-1.171875 0.492188,-1.8632812 1.300782,-1.8632812 0.632812,0 1.019531,0.3632812 1.113281,1.0195312 z M 23.986984,7.8125e-5 V -4.6991406 h -0.75 v 2.6601562 c 0,0.9609375 -0.503906,1.59375003 -1.277343,1.59375003 -0.597657,0 -0.972657,-0.36328125 -0.972657,-0.92578123 v -3.328125 h -0.738281 v 3.6210937 c 0,0.78515628 0.574219,1.28906253 1.488281,1.28906253 0.691407,0 1.136719,-0.24609375 1.570313,-0.8671875 V 7.8125e-5 Z M 26.922531,-4.6991406 h -0.761718 v -1.2890625 h -0.75 v 1.2890625 H 24.778 v 0.609375 h 0.632813 v 3.55078123 c 0,0.48046875 0.328125,0.75 0.902343,0.75 0.1875,0 0.363282,-0.0234375 0.609375,-0.0703125 v -0.62109375 c -0.09375,0.0234375 -0.210937,0.0351563 -0.351562,0.0351563 -0.328125,0 -0.410156,-0.09375 -0.410156,-0.421875 V -4.0897656 h 0.761718 z m 4.813477,2.6015625 c 0,-0.7148438 -0.04687,-1.1484375 -0.1875,-1.5 -0.304688,-0.7734375 -1.019531,-1.2304688 -1.898438,-1.2304688 -1.300781,0 -2.144531,0.9960938 -2.144531,2.5429688 0,1.54687498 0.808594,2.49609373 2.132813,2.49609373 1.066406,0 1.816406,-0.609375 2.003906,-1.64062503 h -0.75 c -0.210938,0.62109378 -0.632813,0.94921878 -1.230469,0.94921878 -0.480469,0 -0.878906,-0.22265625 -1.125,-0.60937498 -0.1875,-0.2695313 -0.246094,-0.5390625 -0.257812,-1.0078125 z m -3.433594,-0.609375 c 0.05859,-0.8671875 0.585938,-1.4296875 1.335938,-1.4296875 0.738281,0 1.300781,0.609375 1.300781,1.3710937 0,0.023437 0,0.035156 0,0.058594 z M 35.0905,1.9571094 h 0.761719 v -2.44921877 c 0.386719,0.48046875 0.832031,0.703125 1.441406,0.703125 1.207031,0 2.003906,-0.984375 2.003906,-2.48437503 0,-1.5703125 -0.773437,-2.5546875 -2.015625,-2.5546875 -0.632812,0 -1.148437,0.28125 -1.5,0.84375 V -4.6991406 H 35.0905 Z m 2.0625,-6.09375 c 0.832031,0 1.371094,0.7265625 1.371094,1.8515625 0,1.0664062 -0.550781,1.79296873 -1.371094,1.79296873 -0.785156,0 -1.300781,-0.71484373 -1.300781,-1.81640623 0,-1.1015625 0.515625,-1.828125 1.300781,-1.828125 z m 7.236328,3.70312498 c -0.08203,0.0117188 -0.117187,0.0117188 -0.152344,0.0117188 -0.269531,0 -0.410156,-0.12890625 -0.410156,-0.36328125 V -3.5507031 c 0,-0.8320313 -0.609375,-1.2773438 -1.769531,-1.2773438 -0.679688,0 -1.242188,0.1875 -1.558594,0.5390625 -0.210937,0.2460938 -0.304687,0.515625 -0.316406,0.984375 h 0.75 c 0.05859,-0.5742187 0.398437,-0.8320312 1.101562,-0.8320312 0.667969,0 1.054688,0.2460937 1.054688,0.6914062 v 0.1992188 c 0,0.3164062 -0.1875,0.4453125 -0.785156,0.515625 -1.054688,0.140625 -1.21875,0.1757812 -1.5,0.2929687 -0.550782,0.2226563 -0.832032,0.6445313 -0.832032,1.2539063 0,0.85546873 0.597657,1.39453123 1.546875,1.39453123 0.585938,0 1.066407,-0.210937505 1.59375,-0.69140625 0.04687,0.46875 0.28125,0.69140625 0.773438,0.69140625 0.152344,0 0.269531,-0.0234375 0.503906,-0.0820313 z M 43.088547,-1.4764844 c 0,0.2460938 -0.08203,0.3984375 -0.304688,0.60937503 -0.304687,0.28125 -0.667968,0.421875 -1.113281,0.421875 -0.574219,0 -0.914062,-0.28125 -0.914062,-0.76171873 0,-0.4921875 0.328125,-0.7382813 1.125,-0.8554688 0.785156,-0.1054687 0.949218,-0.140625 1.207031,-0.2578125 z m 2.112305,-3.2226562 V 7.8125e-5 h 0.75 V -2.4374219 c 0,-0.6679687 0.175781,-1.1132812 0.527343,-1.3710937 0.234375,-0.1757813 0.457032,-0.2226563 0.984375,-0.234375 v -0.7617188 c -0.128906,-0.023437 -0.199218,-0.023437 -0.292968,-0.023437 -0.480469,0 -0.855469,0.28125 -1.277344,0.984375 v -0.8554687 z m 7.078125,4.26562498 c -0.08203,0.0117188 -0.117188,0.0117188 -0.152344,0.0117188 -0.269531,0 -0.410156,-0.12890625 -0.410156,-0.36328125 V -3.5507031 c 0,-0.8320313 -0.609375,-1.2773438 -1.769532,-1.2773438 -0.679687,0 -1.242187,0.1875 -1.558593,0.5390625 -0.210938,0.2460938 -0.304688,0.515625 -0.316407,0.984375 h 0.75 c 0.05859,-0.5742187 0.398438,-0.8320312 1.101563,-0.8320312 0.667969,0 1.054687,0.2460937 1.054687,0.6914062 v 0.1992188 c 0,0.3164062 -0.1875,0.4453125 -0.785156,0.515625 -1.054687,0.140625 -1.21875,0.1757812 -1.5,0.2929687 -0.550781,0.2226563 -0.832031,0.6445313 -0.832031,1.2539063 0,0.85546873 0.597656,1.39453123 1.546875,1.39453123 0.585937,0 1.066406,-0.210937505 1.59375,-0.69140625 0.04687,0.46875 0.28125,0.69140625 0.773437,0.69140625 0.152344,0 0.269532,-0.0234375 0.503907,-0.0820313 z M 50.978195,-1.4764844 c 0,0.2460938 -0.08203,0.3984375 -0.304687,0.60937503 -0.304688,0.28125 -0.667969,0.421875 -1.113281,0.421875 -0.574219,0 -0.914063,-0.28125 -0.914063,-0.76171873 0,-0.4921875 0.328125,-0.7382813 1.125,-0.8554688 0.785156,-0.1054687 0.949219,-0.140625 1.207031,-0.2578125 z m 2.853516,-5.0625 h -0.75 V 7.8125e-5 h 0.75 z m 1.989258,0 h -0.75 V 7.8125e-5 h 0.75 z m 5.226562,4.4414063 c 0,-0.7148438 -0.04687,-1.1484375 -0.1875,-1.5 -0.304687,-0.7734375 -1.019531,-1.2304688 -1.898437,-1.2304688 -1.300781,0 -2.144531,0.9960938 -2.144531,2.5429688 0,1.54687498 0.808593,2.49609373 2.132812,2.49609373 1.066406,0 1.816406,-0.609375 2.003906,-1.64062503 h -0.75 c -0.210937,0.62109378 -0.632812,0.94921878 -1.230468,0.94921878 -0.480469,0 -0.878907,-0.22265625 -1.125,-0.60937498 -0.1875,-0.2695313 -0.246094,-0.5390625 -0.257813,-1.0078125 z m -3.433593,-0.609375 c 0.05859,-0.8671875 0.585937,-1.4296875 1.335937,-1.4296875 0.738281,0 1.300781,0.609375 1.300781,1.3710937 0,0.023437 0,0.035156 0,0.058594 z m 5.182617,-3.8320313 h -0.75 V 7.8125e-5 h 0.75 z m 4.461914,1.8398438 h -0.75 V 7.8125e-5 h 0.75 z m 0,-1.8398438 H 66.49675 v 0.9492188 h 0.761719 z m 1.277344,1.8398438 V 7.8125e-5 h 0.75 V -2.5897656 c 0,-0.9609375 0.503906,-1.5820313 1.265625,-1.5820313 0.597656,0 0.972656,0.3515625 0.972656,0.9140625 V 7.8125e-5 h 0.75 V -3.5507031 c 0,-0.7734375 -0.585938,-1.2773438 -1.488281,-1.2773438 -0.703125,0 -1.148438,0.2695313 -1.570313,0.9140625 v -0.7851562 z m 11.4375,2.6015625 c 0,-0.7148438 -0.04687,-1.1484375 -0.1875,-1.5 -0.304688,-0.7734375 -1.019532,-1.2304688 -1.898438,-1.2304688 -1.300781,0 -2.144531,0.9960938 -2.144531,2.5429688 0,1.54687498 0.808594,2.49609373 2.132812,2.49609373 1.066407,0 1.816407,-0.609375 2.003907,-1.64062503 h -0.75 c -0.210938,0.62109378 -0.632813,0.94921878 -1.230469,0.94921878 -0.480469,0 -0.878906,-0.22265625 -1.125,-0.60937498 -0.1875,-0.2695313 -0.246094,-0.5390625 -0.257813,-1.0078125 z m -3.433594,-0.609375 c 0.05859,-0.8671875 0.585937,-1.4296875 1.335937,-1.4296875 0.738282,0 1.300782,0.609375 1.300782,1.3710937 0,0.023437 0,0.035156 0,0.058594 z m 8.61914,2.27343748 c -0.08203,0.0117188 -0.117187,0.0117188 -0.152343,0.0117188 -0.269532,0 -0.410157,-0.12890625 -0.410157,-0.36328125 V -3.5507031 c 0,-0.8320313 -0.609375,-1.2773438 -1.769531,-1.2773438 -0.679687,0 -1.242187,0.1875 -1.558594,0.5390625 -0.210937,0.2460938 -0.304687,0.515625 -0.316406,0.984375 h 0.75 c 0.05859,-0.5742187 0.398438,-0.8320312 1.101563,-0.8320312 0.667968,0 1.054687,0.2460937 1.054687,0.6914062 v 0.1992188 c 0,0.3164062 -0.1875,0.4453125 -0.785156,0.515625 -1.054688,0.140625 -1.21875,0.1757812 -1.5,0.2929687 -0.550781,0.2226563 -0.832031,0.6445313 -0.832031,1.2539063 0,0.85546873 0.597656,1.39453123 1.546875,1.39453123 0.585937,0 1.066406,-0.210937505 1.59375,-0.69140625 0.04687,0.46875 0.28125,0.69140625 0.773437,0.69140625 0.152344,0 0.269531,-0.0234375 0.503906,-0.0820313 z M 83.858078,-1.4764844 c 0,0.2460938 -0.08203,0.3984375 -0.304687,0.60937503 -0.304688,0.28125 -0.667969,0.421875 -1.113282,0.421875 -0.574218,0 -0.914062,-0.28125 -0.914062,-0.76171873 0,-0.4921875 0.328125,-0.7382813 1.125,-0.8554688 0.785156,-0.1054687 0.949219,-0.140625 1.207031,-0.2578125 z m 5.712891,-1.640625 c -0.03516,-0.4570312 -0.128906,-0.75 -0.304688,-1.0195312 -0.328125,-0.4335938 -0.890625,-0.6914063 -1.546875,-0.6914063 -1.265625,0 -2.085937,0.9960938 -2.085937,2.5546875 0,1.52343753 0.808594,2.48437503 2.074219,2.48437503 1.125,0 1.828125,-0.6796875 1.921875,-1.82812503 h -0.75 c -0.128907,0.76171878 -0.515625,1.13671878 -1.148438,1.13671878 -0.832031,0 -1.324219,-0.67968748 -1.324219,-1.79296878 0,-1.171875 0.492188,-1.8632812 1.300782,-1.8632812 0.632812,0 1.019531,0.3632812 1.113281,1.0195312 z m 0.896484,-3.421875 V 7.8125e-5 h 0.738281 V -2.5897656 c 0,-0.9609375 0.503907,-1.5820313 1.277344,-1.5820313 0.234375,0 0.480469,0.070312 0.65625,0.2109375 0.222656,0.1523438 0.304688,0.375 0.304688,0.703125 V 7.8125e-5 h 0.75 V -3.5507031 c 0,-0.7851563 -0.5625,-1.2773438 -1.476563,-1.2773438 -0.667969,0 -1.066406,0.1992188 -1.511719,0.7734375 v -2.484375 z m 11.062497,3.421875 c -0.0352,-0.4570312 -0.1289,-0.75 -0.30468,-1.0195312 -0.32813,-0.4335938 -0.89063,-0.6914063 -1.546879,-0.6914063 -1.265625,0 -2.085938,0.9960938 -2.085938,2.5546875 0,1.52343753 0.808594,2.48437503 2.074219,2.48437503 1.124998,0 1.828128,-0.6796875 1.921878,-1.82812503 h -0.75 c -0.12891,0.76171878 -0.51563,1.13671878 -1.148441,1.13671878 -0.832031,0 -1.324218,-0.67968748 -1.324218,-1.79296878 0,-1.171875 0.492187,-1.8632812 1.300781,-1.8632812 0.632808,0 1.019528,0.3632812 1.113278,1.0195312 z m 2.7041,-1.7109375 c -1.3125,0 -2.10937,0.9375 -2.10937,2.5195313 0,1.57031248 0.78516,2.51953123 2.12109,2.51953123 1.3125,0 2.1211,-0.94921875 2.1211,-2.48437503 0,-1.6289062 -0.77344,-2.5546875 -2.13282,-2.5546875 z m 0.0117,0.6914063 c 0.84375,0 1.34766,0.6796875 1.34766,1.8515625 0,1.1015625 -0.52734,1.80468748 -1.34766,1.80468748 -0.83203,0 -1.34765,-0.69140628 -1.34765,-1.82812498 0,-1.1367188 0.51562,-1.828125 1.34765,-1.828125 z m 3.15528,-0.5625 V 7.8125e-5 h 0.75 V -2.4374219 c 0,-0.6679687 0.17578,-1.1132812 0.52734,-1.3710937 0.23438,-0.1757813 0.45703,-0.2226563 0.98438,-0.234375 v -0.7617188 c -0.12891,-0.023437 -0.19922,-0.023437 -0.29297,-0.023437 -0.48047,0 -0.85547,0.28125 -1.27735,0.984375 v -0.8554687 z m 6.958,2.6015625 c 0,-0.7148438 -0.0469,-1.1484375 -0.1875,-1.5 -0.30468,-0.7734375 -1.01953,-1.2304688 -1.89843,-1.2304688 -1.30078,0 -2.14453,0.9960938 -2.14453,2.5429688 0,1.54687498 0.80859,2.49609373 2.13281,2.49609373 1.0664,0 1.8164,-0.609375 2.0039,-1.64062503 h -0.75 c -0.21093,0.62109378 -0.63281,0.94921878 -1.23046,0.94921878 -0.48047,0 -0.87891,-0.22265625 -1.125,-0.60937498 -0.1875,-0.2695313 -0.2461,-0.5390625 -0.25782,-1.0078125 z m -3.43359,-0.609375 c 0.0586,-0.8671875 0.58594,-1.4296875 1.33594,-1.4296875 0.73828,0 1.30078,0.609375 1.30078,1.3710937 0,0.023437 0,0.035156 0,0.058594 z m 8.44043,-3.8320313 c -0.90234,1.1835938 -1.46484,2.8125 -1.46484,4.21875 0,1.41796878 0.5625,3.04687503 1.46484,4.21875 h 0.49219 c -0.79688,-1.27734372 -1.23047,-2.78906247 -1.23047,-4.21875 0,-1.4296875 0.43359,-2.9414062 1.23047,-4.21875 z m 2.84473,3.6210938 h 0.43359 c 0.86719,0 1.3125,0.3867187 1.3125,1.1484375 0,0.79687498 -0.49219,1.27734373 -1.3125,1.27734373 -0.86719,0 -1.28906,-0.43359375 -1.33594,-1.35937503 h -0.79687 c 0.0469,0.515625 0.1289,0.84375 0.28125,1.13671878 0.32812,0.609375 0.94922,0.92578125 1.8164,0.92578125 1.3125,0 2.15625,-0.78515625 2.15625,-1.98046873 0,-0.8085938 -0.3164,-1.265625 -1.07812,-1.5234375 0.59766,-0.234375 0.89062,-0.6796875 0.89062,-1.3125 0,-1.1015625 -0.72656,-1.7460938 -1.93359,-1.7460938 -1.28906,0 -1.96875,0.6914063 -1.99219,2.0507813 h 0.78516 c 0.0117,-0.3867188 0.0469,-0.5976563 0.15234,-0.796875 0.17578,-0.3515625 0.5625,-0.5625 1.06641,-0.5625 0.69141,0 1.11328,0.4101562 1.11328,1.078125 0,0.4453125 -0.16406,0.7148437 -0.50391,0.8671875 -0.22265,0.082031 -0.5039,0.1171875 -1.05468,0.1289062 z m 3.83789,4.8164062 c 0.90234,-1.17187497 1.46484,-2.80078122 1.46484,-4.2070312 0,-1.4179688 -0.5625,-3.046875 -1.46484,-4.2304688 h -0.49219 c 0.78516,1.2890625 1.23047,2.7890625 1.23047,4.2304688 0,1.41796873 -0.44531,2.94140623 -1.23047,4.2070312 z m 0,0"
       style="fill:#000000;fill-opacity:1;fill-rule:nonzero;stroke:none"
       aria-label="Executeparallelineachcore(3)"
       transform="matrix(1.3333333,0,0,1.3333333,465.46267,139.27333)" />
  </g>
</svg>
