<?xml version="1.0" encoding="utf-8" standalone="no"?>
<!DOCTYPE svg PUBLIC "-//W3C//DTD SVG 1.1//EN"
  "http://www.w3.org/Graphics/SVG/1.1/DTD/svg11.dtd">
<svg xmlns:xlink="http://www.w3.org/1999/xlink" width="65.376pt" height="62.7552pt" viewBox="0 0 65.376 62.7552" xmlns="http://www.w3.org/2000/svg" version="1.1">
 <metadata>
  <rdf:RDF xmlns:dc="http://purl.org/dc/elements/1.1/" xmlns:cc="http://creativecommons.org/ns#" xmlns:rdf="http://www.w3.org/1999/02/22-rdf-syntax-ns#">
   <cc:Work>
    <dc:type rdf:resource="http://purl.org/dc/dcmitype/StillImage"/>
    <dc:format>image/svg+xml</dc:format>
    <dc:creator>
     <cc:Agent>
      <dc:title>Matplotlib v3.10.8, https://matplotlib.org/</dc:title>
     </cc:Agent>
    </dc:creator>
   </cc:Work>
  </rdf:RDF>
 </metadata>
 <defs>
  <style type="text/css">*{stroke-linejoin: round; stroke-linecap: butt}</style>
 </defs>
 <g id="figure_1">
  <g id="patch_1">
   <path d="M 0 62.7552
L 65.376 62.7552
L 65.376 0
L 0 0
z
" style="fill: #ffffff"/>
  </g>
  <g id="axes_1">
   <g id="patch_2">
    <path d="M 1.44 61.3152
L 63.936 61.3152
L 63.936 1.44
L 1.44 1.44
z
" style="fill: #ffffff"/>
   </g>
   <g id="matplotlib.axis_1"/>
   <g id="matplotlib.axis_2"/>
   <g id="line2d_1">
    <path d="M 13.9392 52.932672
L 13.9392 9.822528
" clip-path="url(#pe14b720eca)" style="fill: none; stroke: #cccccc; stroke-width: 0.7; stroke-linecap: square"/>
   </g>
   <g id="line2d_2">
    <defs>
     <path id="md7f2d56d26" d="M 0 2.85
C 0.755829 2.85 1.480803 2.549706 2.015254 2.015254
C 2.549706 1.480803 2.85 0.755829 2.85 0
C 2.85 -0.755829 2.549706 -1.480803 2.015254 -2.015254
C 1.480803 -2.549706 0.755829 -2.85 0 -2.85
C -0.755829 -2.85 -1.480803 -2.549706 -2.015254 -2.015254
C -2.549706 -1.480803 -2.85 -0.755829 -2.85 0
C -2.85 0.755829 -2.549706 1.480803 -2.015254 2.015254
C -1.480803 2.549706 -0.755829 2.85 0 2.85
z
" style="stroke: #a51c30"/>
    </defs>
    <g clip-path="url(#pe14b720eca)">
     <use xlink:href="#md7f2d56d26" x="13.9392" y="13.41504" style="fill: #a51c30; stroke: #a51c30"/>
    </g>
   </g>
   <g id="line2d_3">
    <defs>
     <path id="m349b0a74c4" d="M 0 2.85
C 0.755829 2.85 1.480803 2.549706 2.015254 2.015254
C 2.549706 1.480803 2.85 0.755829 2.85 0
C 2.85 -0.755829 2.549706 -1.480803 2.015254 -2.015254
C 1.480803 -2.549706 0.755829 -2.85 0 -2.85
C -0.755829 -2.85 -1.480803 -2.549706 -2.015254 -2.015254
C -2.549706 -1.480803 -2.85 -0.755829 -2.85 0
C -2.85 0.755829 -2.549706 1.480803 -2.015254 2.015254
C -1.480803 2.549706 -0.755829 2.85 0 2.85
z
" style="stroke: #bbbbbb"/>
    </defs>
    <g clip-path="url(#pe14b720eca)">
     <use xlink:href="#m349b0a74c4" x="13.9392" y="25.39008" style="fill: #bbbbbb; stroke: #bbbbbb"/>
    </g>
   </g>
   <g id="line2d_4">
    <g clip-path="url(#pe14b720eca)">
     <use xlink:href="#m349b0a74c4" x="13.9392" y="37.36512" style="fill: #bbbbbb; stroke: #bbbbbb"/>
    </g>
   </g>
   <g id="line2d_5">
    <g clip-path="url(#pe14b720eca)">
     <use xlink:href="#m349b0a74c4" x="13.9392" y="49.34016" style="fill: #bbbbbb; stroke: #bbbbbb"/>
    </g>
   </g>
   <g id="text_1">
    <!-- provenance -->
    <g style="fill: #333333" transform="translate(22.06368 14.66186) scale(0.049 -0.049)">
     <defs>
      <path id="Helvetica-70" d="M 1825 378
Q 2219 378 2480 708
Q 2741 1038 2741 1694
Q 2741 2094 2625 2381
Q 2406 2934 1825 2934
Q 1241 2934 1025 2350
Q 909 2038 909 1556
Q 909 1169 1025 897
Q 1244 378 1825 378
z
M 369 3331
L 916 3331
L 916 2888
Q 1084 3116 1284 3241
Q 1569 3428 1953 3428
Q 2522 3428 2919 2992
Q 3316 2556 3316 1747
Q 3316 653 2744 184
Q 2381 -113 1900 -113
Q 1522 -113 1266 53
Q 1116 147 931 375
L 931 -1334
L 369 -1334
L 369 3331
z
" transform="scale(0.015625)"/>
      <path id="Helvetica-72" d="M 428 3347
L 963 3347
L 963 2769
Q 1028 2938 1284 3180
Q 1541 3422 1875 3422
Q 1891 3422 1928 3419
Q 1966 3416 2056 3406
L 2056 2813
Q 2006 2822 1964 2825
Q 1922 2828 1872 2828
Q 1447 2828 1219 2554
Q 991 2281 991 1925
L 991 0
L 428 0
L 428 3347
z
" transform="scale(0.015625)"/>
      <path id="Helvetica-6f" d="M 1741 363
Q 2300 363 2508 786
Q 2716 1209 2716 1728
Q 2716 2197 2566 2491
Q 2328 2953 1747 2953
Q 1231 2953 997 2559
Q 763 2166 763 1609
Q 763 1075 997 719
Q 1231 363 1741 363
z
M 1763 3444
Q 2409 3444 2856 3012
Q 3303 2581 3303 1744
Q 3303 934 2909 406
Q 2516 -122 1688 -122
Q 997 -122 590 345
Q 184 813 184 1600
Q 184 2444 612 2944
Q 1041 3444 1763 3444
z
M 1744 3428
L 1744 3428
z
" transform="scale(0.015625)"/>
      <path id="Helvetica-76" d="M 688 3347
L 1581 622
L 2516 3347
L 3131 3347
L 1869 0
L 1269 0
L 34 3347
L 688 3347
z
" transform="scale(0.015625)"/>
      <path id="Helvetica-65" d="M 1806 3422
Q 2163 3422 2497 3255
Q 2831 3088 3006 2822
Q 3175 2569 3231 2231
Q 3281 2000 3281 1494
L 828 1494
Q 844 984 1069 676
Q 1294 369 1766 369
Q 2206 369 2469 659
Q 2619 828 2681 1050
L 3234 1050
Q 3213 866 3089 639
Q 2966 413 2813 269
Q 2556 19 2178 -69
Q 1975 -119 1719 -119
Q 1094 -119 659 336
Q 225 791 225 1609
Q 225 2416 662 2919
Q 1100 3422 1806 3422
z
M 2703 1941
Q 2669 2306 2544 2525
Q 2313 2931 1772 2931
Q 1384 2931 1121 2651
Q 859 2372 844 1941
L 2703 1941
z
M 1753 3428
L 1753 3428
z
" transform="scale(0.015625)"/>
      <path id="Helvetica-6e" d="M 413 3347
L 947 3347
L 947 2872
Q 1184 3166 1450 3294
Q 1716 3422 2041 3422
Q 2753 3422 3003 2925
Q 3141 2653 3141 2147
L 3141 0
L 2569 0
L 2569 2109
Q 2569 2416 2478 2603
Q 2328 2916 1934 2916
Q 1734 2916 1606 2875
Q 1375 2806 1200 2600
Q 1059 2434 1017 2257
Q 975 2081 975 1753
L 975 0
L 413 0
L 413 3347
z
M 1734 3428
L 1734 3428
z
" transform="scale(0.015625)"/>
      <path id="Helvetica-61" d="M 844 891
Q 844 647 1022 506
Q 1200 366 1444 366
Q 1741 366 2019 503
Q 2488 731 2488 1250
L 2488 1703
Q 2384 1638 2221 1594
Q 2059 1550 1903 1531
L 1563 1488
Q 1256 1447 1103 1359
Q 844 1213 844 891
z
M 2206 2028
Q 2400 2053 2466 2191
Q 2503 2266 2503 2406
Q 2503 2694 2298 2823
Q 2094 2953 1713 2953
Q 1272 2953 1088 2716
Q 984 2584 953 2325
L 428 2325
Q 444 2944 830 3186
Q 1216 3428 1725 3428
Q 2316 3428 2684 3203
Q 3050 2978 3050 2503
L 3050 575
Q 3050 488 3086 434
Q 3122 381 3238 381
Q 3275 381 3322 386
Q 3369 391 3422 400
L 3422 -16
Q 3291 -53 3222 -62
Q 3153 -72 3034 -72
Q 2744 -72 2613 134
Q 2544 244 2516 444
Q 2344 219 2022 53
Q 1700 -113 1313 -113
Q 847 -113 551 170
Q 256 453 256 878
Q 256 1344 547 1600
Q 838 1856 1309 1916
L 2206 2028
z
M 1741 3428
L 1741 3428
z
" transform="scale(0.015625)"/>
      <path id="Helvetica-63" d="M 1703 3444
Q 2269 3444 2623 3169
Q 2978 2894 3050 2222
L 2503 2222
Q 2453 2531 2275 2736
Q 2097 2941 1703 2941
Q 1166 2941 934 2416
Q 784 2075 784 1575
Q 784 1072 996 728
Q 1209 384 1666 384
Q 2016 384 2220 598
Q 2425 813 2503 1184
L 3050 1184
Q 2956 519 2581 211
Q 2206 -97 1622 -97
Q 966 -97 575 383
Q 184 863 184 1581
Q 184 2463 612 2953
Q 1041 3444 1703 3444
z
M 1616 3428
L 1616 3428
z
" transform="scale(0.015625)"/>
     </defs>
     <use xlink:href="#Helvetica-70"/>
     <use xlink:href="#Helvetica-72" transform="translate(55.615234 0)"/>
     <use xlink:href="#Helvetica-6f" transform="translate(88.916016 0)"/>
     <use xlink:href="#Helvetica-76" transform="translate(144.53125 0)"/>
     <use xlink:href="#Helvetica-65" transform="translate(194.53125 0)"/>
     <use xlink:href="#Helvetica-6e" transform="translate(250.146484 0)"/>
     <use xlink:href="#Helvetica-61" transform="translate(305.761719 0)"/>
     <use xlink:href="#Helvetica-6e" transform="translate(361.376953 0)"/>
     <use xlink:href="#Helvetica-63" transform="translate(416.992188 0)"/>
     <use xlink:href="#Helvetica-65" transform="translate(466.992188 0)"/>
    </g>
   </g>
   <g id="text_2">
    <!-- explain -->
    <g style="fill: #333333" transform="translate(22.06368 26.6369) scale(0.049 -0.049)">
     <defs>
      <path id="Helvetica-78" d="M 94 3347
L 822 3347
L 1591 2169
L 2369 3347
L 3053 3331
L 1925 1716
L 3103 0
L 2384 0
L 1553 1256
L 747 0
L 34 0
L 1213 1716
L 94 3347
z
" transform="scale(0.015625)"/>
      <path id="Helvetica-6c" d="M 428 4591
L 991 4591
L 991 0
L 428 0
L 428 4591
z
" transform="scale(0.015625)"/>
      <path id="Helvetica-69" d="M 413 3331
L 984 3331
L 984 0
L 413 0
L 413 3331
z
M 413 4591
L 984 4591
L 984 3953
L 413 3953
L 413 4591
z
" transform="scale(0.015625)"/>
     </defs>
     <use xlink:href="#Helvetica-65"/>
     <use xlink:href="#Helvetica-78" transform="translate(55.615234 0)"/>
     <use xlink:href="#Helvetica-70" transform="translate(105.615234 0)"/>
     <use xlink:href="#Helvetica-6c" transform="translate(161.230469 0)"/>
     <use xlink:href="#Helvetica-61" transform="translate(183.447266 0)"/>
     <use xlink:href="#Helvetica-69" transform="translate(239.0625 0)"/>
     <use xlink:href="#Helvetica-6e" transform="translate(261.279297 0)"/>
    </g>
   </g>
   <g id="text_3">
    <!-- appeal -->
    <g style="fill: #333333" transform="translate(22.06368 38.61194) scale(0.049 -0.049)">
     <use xlink:href="#Helvetica-61"/>
     <use xlink:href="#Helvetica-70" transform="translate(55.615234 0)"/>
     <use xlink:href="#Helvetica-70" transform="translate(111.230469 0)"/>
     <use xlink:href="#Helvetica-65" transform="translate(166.845703 0)"/>
     <use xlink:href="#Helvetica-61" transform="translate(222.460938 0)"/>
     <use xlink:href="#Helvetica-6c" transform="translate(278.076172 0)"/>
    </g>
   </g>
   <g id="text_4">
    <!-- outcome -->
    <g style="fill: #333333" transform="translate(22.06368 50.58698) scale(0.049 -0.049)">
     <defs>
      <path id="Helvetica-75" d="M 975 3347
L 975 1125
Q 975 869 1056 706
Q 1206 406 1616 406
Q 2203 406 2416 931
Q 2531 1213 2531 1703
L 2531 3347
L 3094 3347
L 3094 0
L 2563 0
L 2569 494
Q 2459 303 2297 172
Q 1975 -91 1516 -91
Q 800 -91 541 388
Q 400 644 400 1072
L 400 3347
L 975 3347
z
M 1747 3428
L 1747 3428
z
" transform="scale(0.015625)"/>
      <path id="Helvetica-74" d="M 525 4281
L 1094 4281
L 1094 3347
L 1628 3347
L 1628 2888
L 1094 2888
L 1094 703
Q 1094 528 1213 469
Q 1278 434 1431 434
Q 1472 434 1519 436
Q 1566 438 1628 444
L 1628 0
Q 1531 -28 1426 -40
Q 1322 -53 1200 -53
Q 806 -53 665 148
Q 525 350 525 672
L 525 2888
L 72 2888
L 72 3347
L 525 3347
L 525 4281
z
" transform="scale(0.015625)"/>
      <path id="Helvetica-6d" d="M 413 3347
L 969 3347
L 969 2872
Q 1169 3119 1331 3231
Q 1609 3422 1963 3422
Q 2363 3422 2606 3225
Q 2744 3113 2856 2894
Q 3044 3163 3297 3292
Q 3550 3422 3866 3422
Q 4541 3422 4784 2934
Q 4916 2672 4916 2228
L 4916 0
L 4331 0
L 4331 2325
Q 4331 2659 4164 2784
Q 3997 2909 3756 2909
Q 3425 2909 3186 2687
Q 2947 2466 2947 1947
L 2947 0
L 2375 0
L 2375 2184
Q 2375 2525 2294 2681
Q 2166 2916 1816 2916
Q 1497 2916 1236 2669
Q 975 2422 975 1775
L 975 0
L 413 0
L 413 3347
z
" transform="scale(0.015625)"/>
     </defs>
     <use xlink:href="#Helvetica-6f"/>
     <use xlink:href="#Helvetica-75" transform="translate(55.615234 0)"/>
     <use xlink:href="#Helvetica-74" transform="translate(111.230469 0)"/>
     <use xlink:href="#Helvetica-63" transform="translate(139.013672 0)"/>
     <use xlink:href="#Helvetica-6f" transform="translate(189.013672 0)"/>
     <use xlink:href="#Helvetica-6d" transform="translate(244.628906 0)"/>
     <use xlink:href="#Helvetica-65" transform="translate(327.929688 0)"/>
    </g>
   </g>
  </g>
 </g>
 <defs>
  <clipPath id="pe14b720eca">
   <rect x="1.44" y="1.44" width="62.496" height="59.8752"/>
  </clipPath>
 </defs>
</svg>
