<?xml version="1.0" encoding="utf-8" standalone="no"?>
<!DOCTYPE svg PUBLIC "-//W3C//DTD SVG 1.1//EN"
  "http://www.w3.org/Graphics/SVG/1.1/DTD/svg11.dtd">
<svg xmlns:xlink="http://www.w3.org/1999/xlink" width="68.724pt" height="42.7968pt" viewBox="0 0 68.724 42.7968" xmlns="http://www.w3.org/2000/svg" version="1.1">
 <metadata>
  <rdf:RDF xmlns:dc="http://purl.org/dc/elements/1.1/" xmlns:cc="http://creativecommons.org/ns#" xmlns:rdf="http://www.w3.org/1999/02/22-rdf-syntax-ns#">
   <cc:Work>
    <dc:type rdf:resource="http://purl.org/dc/dcmitype/StillImage"/>
    <dc:format>image/svg+xml</dc:format>
    <dc:creator>
     <cc:Agent>
      <dc:title>Matplotlib v3.10.8, https://matplotlib.org/</dc:title>
     </cc:Agent>
    </dc:creator>
   </cc:Work>
  </rdf:RDF>
 </metadata>
 <defs>
  <style type="text/css">*{stroke-linejoin: round; stroke-linecap: butt}</style>
 </defs>
 <g id="figure_1">
  <g id="patch_1">
   <path d="M 0 42.7968
L 68.724 42.7968
L 68.724 0
L 0 0
z
" style="fill: #ffffff"/>
  </g>
  <g id="axes_1">
   <g id="patch_2">
    <path d="M 1.44 41.3568
L 67.284 41.3568
L 67.284 1.44
L 1.44 1.44
z
" style="fill: #ffffff"/>
   </g>
   <g id="matplotlib.axis_1"/>
   <g id="matplotlib.axis_2"/>
   <g id="line2d_1">
    <path d="M 1.44 32.575104
L 2.273468 31.918169
L 3.106937 31.280891
L 3.940405 30.662683
L 4.773873 30.062973
L 5.607342 29.481209
L 6.44081 28.916852
L 7.274278 28.369383
L 8.107747 27.838295
L 8.941215 27.323099
L 9.774684 26.82332
L 10.608152 26.338495
L 11.44162 25.868178
L 12.275089 25.411933
L 13.108557 24.969341
L 13.942025 24.539993
L 14.775494 24.123492
L 15.608962 23.719454
L 16.44243 23.327506
L 17.275899 22.947286
L 18.109367 22.578444
L 18.942835 22.220638
L 19.776304 21.873539
L 20.609772 21.536826
L 21.443241 21.210188
L 22.276709 20.893325
L 23.110177 20.585943
L 23.943646 20.287759
L 24.777114 19.998497
L 25.610582 19.717891
L 26.444051 19.445681
L 27.277519 19.181617
L 28.110987 18.925454
L 28.944456 18.676957
L 29.777924 18.435895
L 30.611392 18.202046
L 31.444861 17.975195
L 32.278329 17.755132
L 33.111797 17.541654
L 33.945266 17.334564
L 34.778734 17.13367
L 35.612203 16.938788
L 36.445671 16.749737
L 37.279139 16.566343
L 38.112608 16.388437
L 38.946076 16.215855
L 39.779544 16.048436
L 40.613013 15.886027
L 41.446481 15.728478
L 42.279949 15.575644
L 43.113418 15.427382
L 43.946886 15.283557
L 44.780354 15.144036
L 45.613823 15.008689
L 46.447291 14.877393
L 47.280759 14.750025
L 48.114228 14.626468
L 48.947696 14.506609
L 49.781165 14.390336
L 50.614633 14.277543
L 51.448101 14.168124
L 52.28157 14.06198
L 53.115038 13.959011
L 53.948506 13.859124
L 54.781975 13.762226
L 55.615443 13.668227
L 56.448911 13.577041
L 57.28238 13.488584
L 58.115848 13.402773
L 58.949316 13.31953
L 59.782785 13.238779
L 60.616253 13.160443
L 61.449722 13.084451
L 62.28319 13.010734
L 63.116658 12.939222
L 63.950127 12.86985
L 64.783595 12.802553
L 65.617063 12.737271
L 66.450532 12.673942
L 67.284 12.612508
" clip-path="url(#p9173796fe7)" style="fill: none; stroke: #008f45; stroke-width: 1.45; stroke-linecap: square"/>
   </g>
   <g id="line2d_2">
    <path d="M 1.44 10.221696
L 2.273468 10.94476
L 3.106937 11.43774
L 3.940405 11.869925
L 4.773873 12.266829
L 5.607342 12.639406
L 6.44081 12.993676
L 7.274278 13.333414
L 8.107747 13.661187
L 8.941215 13.978846
L 9.774684 14.287783
L 10.608152 14.589078
L 11.44162 14.883592
L 12.275089 15.172026
L 13.108557 15.45496
L 13.942025 15.732882
L 14.775494 16.006207
L 15.608962 16.275291
L 16.44243 16.540444
L 17.275899 16.801938
L 18.109367 17.060011
L 18.942835 17.314878
L 19.776304 17.566727
L 20.609772 17.81573
L 21.443241 18.062039
L 22.276709 18.305795
L 23.110177 18.547126
L 23.943646 18.786146
L 24.777114 19.022962
L 25.610582 19.257673
L 26.444051 19.490369
L 27.277519 19.721134
L 28.110987 19.950045
L 28.944456 20.177173
L 29.777924 20.402588
L 30.611392 20.626351
L 31.444861 20.848521
L 32.278329 21.069153
L 33.111797 21.288299
L 33.945266 21.506008
L 34.778734 21.722326
L 35.612203 21.937296
L 36.445671 22.150959
L 37.279139 22.363354
L 38.112608 22.574517
L 38.946076 22.784484
L 39.779544 22.993287
L 40.613013 23.200959
L 41.446481 23.407529
L 42.279949 23.613026
L 43.113418 23.817476
L 43.946886 24.020907
L 44.780354 24.223344
L 45.613823 24.424809
L 46.447291 24.625326
L 47.280759 24.824917
L 48.114228 25.023603
L 48.947696 25.221403
L 49.781165 25.418338
L 50.614633 25.614426
L 51.448101 25.809684
L 52.28157 26.004131
L 53.115038 26.197783
L 53.948506 26.390655
L 54.781975 26.582763
L 55.615443 26.774122
L 56.448911 26.964747
L 57.28238 27.15465
L 58.115848 27.343847
L 58.949316 27.532349
L 59.782785 27.72017
L 60.616253 27.90732
L 61.449722 28.093813
L 62.28319 28.27966
L 63.116658 28.464871
L 63.950127 28.649458
L 64.783595 28.83343
L 65.617063 29.016798
L 66.450532 29.199571
L 67.284 29.38176
" clip-path="url(#p9173796fe7)" style="fill: none; stroke: #cb202d; stroke-width: 1.45; stroke-linecap: square"/>
   </g>
   <g id="line2d_3">
    <defs>
     <path id="m523c973593" d="M 0 1.6
C 0.424325 1.6 0.831328 1.431414 1.131371 1.131371
C 1.431414 0.831328 1.6 0.424325 1.6 0
C 1.6 -0.424325 1.431414 -0.831328 1.131371 -1.131371
C 0.831328 -1.431414 0.424325 -1.6 0 -1.6
C -0.424325 -1.6 -0.831328 -1.431414 -1.131371 -1.131371
C -1.431414 -0.831328 -1.6 -0.424325 -1.6 0
C -1.6 0.424325 -1.431414 0.831328 -1.131371 1.131371
C -0.831328 1.431414 -0.424325 1.6 0 1.6
z
" style="stroke: #008f45"/>
    </defs>
    <g clip-path="url(#p9173796fe7)">
     <use xlink:href="#m523c973593" x="67.284" y="12.612508" style="fill: #008f45; stroke: #008f45"/>
    </g>
   </g>
   <g id="line2d_4">
    <defs>
     <path id="m529bcefb9b" d="M 0 1.6
C 0.424325 1.6 0.831328 1.431414 1.131371 1.131371
C 1.431414 0.831328 1.6 0.424325 1.6 0
C 1.6 -0.424325 1.431414 -0.831328 1.131371 -1.131371
C 0.831328 -1.431414 0.424325 -1.6 0 -1.6
C -0.424325 -1.6 -0.831328 -1.431414 -1.131371 -1.131371
C -1.431414 -0.831328 -1.6 -0.424325 -1.6 0
C -1.6 0.424325 -1.431414 0.831328 -1.131371 1.131371
C -0.831328 1.431414 -0.424325 1.6 0 1.6
z
" style="stroke: #cb202d"/>
    </defs>
    <g clip-path="url(#p9173796fe7)">
     <use xlink:href="#m529bcefb9b" x="67.284" y="29.38176" style="fill: #cb202d; stroke: #cb202d"/>
    </g>
   </g>
   <g id="text_1">
    <!-- accuracy -->
    <g style="fill: #008f45" transform="translate(40.56156 13.809579) scale(0.048 -0.048)">
     <defs>
      <path id="Helvetica-61" d="M 844 891
Q 844 647 1022 506
Q 1200 366 1444 366
Q 1741 366 2019 503
Q 2488 731 2488 1250
L 2488 1703
Q 2384 1638 2221 1594
Q 2059 1550 1903 1531
L 1563 1488
Q 1256 1447 1103 1359
Q 844 1213 844 891
z
M 2206 2028
Q 2400 2053 2466 2191
Q 2503 2266 2503 2406
Q 2503 2694 2298 2823
Q 2094 2953 1713 2953
Q 1272 2953 1088 2716
Q 984 2584 953 2325
L 428 2325
Q 444 2944 830 3186
Q 1216 3428 1725 3428
Q 2316 3428 2684 3203
Q 3050 2978 3050 2503
L 3050 575
Q 3050 488 3086 434
Q 3122 381 3238 381
Q 3275 381 3322 386
Q 3369 391 3422 400
L 3422 -16
Q 3291 -53 3222 -62
Q 3153 -72 3034 -72
Q 2744 -72 2613 134
Q 2544 244 2516 444
Q 2344 219 2022 53
Q 1700 -113 1313 -113
Q 847 -113 551 170
Q 256 453 256 878
Q 256 1344 547 1600
Q 838 1856 1309 1916
L 2206 2028
z
M 1741 3428
L 1741 3428
z
" transform="scale(0.015625)"/>
      <path id="Helvetica-63" d="M 1703 3444
Q 2269 3444 2623 3169
Q 2978 2894 3050 2222
L 2503 2222
Q 2453 2531 2275 2736
Q 2097 2941 1703 2941
Q 1166 2941 934 2416
Q 784 2075 784 1575
Q 784 1072 996 728
Q 1209 384 1666 384
Q 2016 384 2220 598
Q 2425 813 2503 1184
L 3050 1184
Q 2956 519 2581 211
Q 2206 -97 1622 -97
Q 966 -97 575 383
Q 184 863 184 1581
Q 184 2463 612 2953
Q 1041 3444 1703 3444
z
M 1616 3428
L 1616 3428
z
" transform="scale(0.015625)"/>
      <path id="Helvetica-75" d="M 975 3347
L 975 1125
Q 975 869 1056 706
Q 1206 406 1616 406
Q 2203 406 2416 931
Q 2531 1213 2531 1703
L 2531 3347
L 3094 3347
L 3094 0
L 2563 0
L 2569 494
Q 2459 303 2297 172
Q 1975 -91 1516 -91
Q 800 -91 541 388
Q 400 644 400 1072
L 400 3347
L 975 3347
z
M 1747 3428
L 1747 3428
z
" transform="scale(0.015625)"/>
      <path id="Helvetica-72" d="M 428 3347
L 963 3347
L 963 2769
Q 1028 2938 1284 3180
Q 1541 3422 1875 3422
Q 1891 3422 1928 3419
Q 1966 3416 2056 3406
L 2056 2813
Q 2006 2822 1964 2825
Q 1922 2828 1872 2828
Q 1447 2828 1219 2554
Q 991 2281 991 1925
L 991 0
L 428 0
L 428 3347
z
" transform="scale(0.015625)"/>
      <path id="Helvetica-79" d="M 2503 3347
L 3125 3347
Q 3006 3025 2597 1878
Q 2291 1016 2084 472
Q 1597 -809 1397 -1090
Q 1197 -1372 709 -1372
Q 591 -1372 527 -1362
Q 463 -1353 369 -1328
L 369 -816
Q 516 -856 581 -865
Q 647 -875 697 -875
Q 853 -875 926 -823
Q 1000 -772 1050 -697
Q 1066 -672 1162 -440
Q 1259 -209 1303 -97
L 66 3347
L 703 3347
L 1600 622
L 2503 3347
z
M 1597 3428
L 1597 3428
z
" transform="scale(0.015625)"/>
     </defs>
     <use xlink:href="#Helvetica-61"/>
     <use xlink:href="#Helvetica-63" transform="translate(55.615234 0)"/>
     <use xlink:href="#Helvetica-63" transform="translate(105.615234 0)"/>
     <use xlink:href="#Helvetica-75" transform="translate(155.615234 0)"/>
     <use xlink:href="#Helvetica-72" transform="translate(211.230469 0)"/>
     <use xlink:href="#Helvetica-61" transform="translate(244.53125 0)"/>
     <use xlink:href="#Helvetica-63" transform="translate(300.146484 0)"/>
     <use xlink:href="#Helvetica-79" transform="translate(350.146484 0)"/>
    </g>
   </g>
   <g id="text_2">
    <!-- overrides -->
    <g style="fill: #cb202d" transform="translate(11.3232 13.838079) scale(0.048 -0.048)">
     <defs>
      <path id="Helvetica-6f" d="M 1741 363
Q 2300 363 2508 786
Q 2716 1209 2716 1728
Q 2716 2197 2566 2491
Q 2328 2953 1747 2953
Q 1231 2953 997 2559
Q 763 2166 763 1609
Q 763 1075 997 719
Q 1231 363 1741 363
z
M 1763 3444
Q 2409 3444 2856 3012
Q 3303 2581 3303 1744
Q 3303 934 2909 406
Q 2516 -122 1688 -122
Q 997 -122 590 345
Q 184 813 184 1600
Q 184 2444 612 2944
Q 1041 3444 1763 3444
z
M 1744 3428
L 1744 3428
z
" transform="scale(0.015625)"/>
      <path id="Helvetica-76" d="M 688 3347
L 1581 622
L 2516 3347
L 3131 3347
L 1869 0
L 1269 0
L 34 3347
L 688 3347
z
" transform="scale(0.015625)"/>
      <path id="Helvetica-65" d="M 1806 3422
Q 2163 3422 2497 3255
Q 2831 3088 3006 2822
Q 3175 2569 3231 2231
Q 3281 2000 3281 1494
L 828 1494
Q 844 984 1069 676
Q 1294 369 1766 369
Q 2206 369 2469 659
Q 2619 828 2681 1050
L 3234 1050
Q 3213 866 3089 639
Q 2966 413 2813 269
Q 2556 19 2178 -69
Q 1975 -119 1719 -119
Q 1094 -119 659 336
Q 225 791 225 1609
Q 225 2416 662 2919
Q 1100 3422 1806 3422
z
M 2703 1941
Q 2669 2306 2544 2525
Q 2313 2931 1772 2931
Q 1384 2931 1121 2651
Q 859 2372 844 1941
L 2703 1941
z
M 1753 3428
L 1753 3428
z
" transform="scale(0.015625)"/>
      <path id="Helvetica-69" d="M 413 3331
L 984 3331
L 984 0
L 413 0
L 413 3331
z
M 413 4591
L 984 4591
L 984 3953
L 413 3953
L 413 4591
z
" transform="scale(0.015625)"/>
      <path id="Helvetica-64" d="M 769 1634
Q 769 1097 997 734
Q 1225 372 1728 372
Q 2119 372 2370 708
Q 2622 1044 2622 1672
Q 2622 2306 2362 2611
Q 2103 2916 1722 2916
Q 1297 2916 1033 2591
Q 769 2266 769 1634
z
M 1616 3406
Q 2000 3406 2259 3244
Q 2409 3150 2600 2916
L 2600 4606
L 3141 4606
L 3141 0
L 2634 0
L 2634 466
Q 2438 156 2169 18
Q 1900 -119 1553 -119
Q 994 -119 584 351
Q 175 822 175 1603
Q 175 2334 548 2870
Q 922 3406 1616 3406
z
" transform="scale(0.015625)"/>
      <path id="Helvetica-73" d="M 747 1050
Q 772 769 888 619
Q 1100 347 1625 347
Q 1938 347 2175 483
Q 2413 619 2413 903
Q 2413 1119 2222 1231
Q 2100 1300 1741 1391
L 1294 1503
Q 866 1609 663 1741
Q 300 1969 300 2372
Q 300 2847 642 3140
Q 984 3434 1563 3434
Q 2319 3434 2653 2991
Q 2863 2709 2856 2384
L 2325 2384
Q 2309 2575 2191 2731
Q 1997 2953 1519 2953
Q 1200 2953 1036 2831
Q 872 2709 872 2509
Q 872 2291 1088 2159
Q 1213 2081 1456 2022
L 1828 1931
Q 2434 1784 2641 1647
Q 2969 1431 2969 969
Q 2969 522 2630 197
Q 2291 -128 1597 -128
Q 850 -128 539 211
Q 228 550 206 1050
L 747 1050
z
M 1578 3428
L 1578 3428
z
" transform="scale(0.015625)"/>
     </defs>
     <use xlink:href="#Helvetica-6f"/>
     <use xlink:href="#Helvetica-76" transform="translate(55.615234 0)"/>
     <use xlink:href="#Helvetica-65" transform="translate(105.615234 0)"/>
     <use xlink:href="#Helvetica-72" transform="translate(161.230469 0)"/>
     <use xlink:href="#Helvetica-72" transform="translate(194.53125 0)"/>
     <use xlink:href="#Helvetica-69" transform="translate(227.832031 0)"/>
     <use xlink:href="#Helvetica-64" transform="translate(250.048828 0)"/>
     <use xlink:href="#Helvetica-65" transform="translate(305.664062 0)"/>
     <use xlink:href="#Helvetica-73" transform="translate(361.279297 0)"/>
    </g>
   </g>
   <g id="text_3">
    <!-- vigilance falls -->
    <g style="fill: #cb202d" transform="translate(23.976028 34.138647) scale(0.046 -0.046)">
     <defs>
      <path id="Helvetica-67" d="M 1594 3406
Q 1988 3406 2281 3213
Q 2441 3103 2606 2894
L 2606 3316
L 3125 3316
L 3125 272
Q 3125 -366 2938 -734
Q 2588 -1416 1616 -1416
Q 1075 -1416 706 -1173
Q 338 -931 294 -416
L 866 -416
Q 906 -641 1028 -763
Q 1219 -950 1628 -950
Q 2275 -950 2475 -494
Q 2594 -225 2584 466
Q 2416 209 2178 84
Q 1941 -41 1550 -41
Q 1006 -41 598 345
Q 191 731 191 1622
Q 191 2463 602 2934
Q 1013 3406 1594 3406
z
M 2606 1688
Q 2606 2309 2350 2609
Q 2094 2909 1697 2909
Q 1103 2909 884 2353
Q 769 2056 769 1575
Q 769 1009 998 714
Q 1228 419 1616 419
Q 2222 419 2469 966
Q 2606 1275 2606 1688
z
M 1659 3428
L 1659 3428
z
" transform="scale(0.015625)"/>
      <path id="Helvetica-6c" d="M 428 4591
L 991 4591
L 991 0
L 428 0
L 428 4591
z
" transform="scale(0.015625)"/>
      <path id="Helvetica-6e" d="M 413 3347
L 947 3347
L 947 2872
Q 1184 3166 1450 3294
Q 1716 3422 2041 3422
Q 2753 3422 3003 2925
Q 3141 2653 3141 2147
L 3141 0
L 2569 0
L 2569 2109
Q 2569 2416 2478 2603
Q 2328 2916 1934 2916
Q 1734 2916 1606 2875
Q 1375 2806 1200 2600
Q 1059 2434 1017 2257
Q 975 2081 975 1753
L 975 0
L 413 0
L 413 3347
z
M 1734 3428
L 1734 3428
z
" transform="scale(0.015625)"/>
      <path id="Helvetica-20" transform="scale(0.015625)"/>
      <path id="Helvetica-66" d="M 553 3856
Q 566 4206 675 4369
Q 872 4656 1434 4656
Q 1488 4656 1544 4653
Q 1600 4650 1672 4644
L 1672 4131
Q 1584 4138 1545 4139
Q 1506 4141 1472 4141
Q 1216 4141 1166 4008
Q 1116 3875 1116 3331
L 1672 3331
L 1672 2888
L 1109 2888
L 1109 0
L 553 0
L 553 2888
L 88 2888
L 88 3331
L 553 3331
L 553 3856
z
" transform="scale(0.015625)"/>
     </defs>
     <use xlink:href="#Helvetica-76"/>
     <use xlink:href="#Helvetica-69" transform="translate(50 0)"/>
     <use xlink:href="#Helvetica-67" transform="translate(72.216797 0)"/>
     <use xlink:href="#Helvetica-69" transform="translate(127.832031 0)"/>
     <use xlink:href="#Helvetica-6c" transform="translate(150.048828 0)"/>
     <use xlink:href="#Helvetica-61" transform="translate(172.265625 0)"/>
     <use xlink:href="#Helvetica-6e" transform="translate(227.880859 0)"/>
     <use xlink:href="#Helvetica-63" transform="translate(283.496094 0)"/>
     <use xlink:href="#Helvetica-65" transform="translate(333.496094 0)"/>
     <use xlink:href="#Helvetica-20" transform="translate(389.111328 0)"/>
     <use xlink:href="#Helvetica-66" transform="translate(416.894531 0)"/>
     <use xlink:href="#Helvetica-61" transform="translate(444.677734 0)"/>
     <use xlink:href="#Helvetica-6c" transform="translate(500.292969 0)"/>
     <use xlink:href="#Helvetica-6c" transform="translate(522.509766 0)"/>
     <use xlink:href="#Helvetica-73" transform="translate(544.726562 0)"/>
    </g>
   </g>
  </g>
 </g>
 <defs>
  <clipPath id="p9173796fe7">
   <rect x="1.44" y="1.44" width="65.844" height="39.9168"/>
  </clipPath>
 </defs>
</svg>
