<?xml version="1.0" encoding="utf-8" standalone="no"?>
<!DOCTYPE svg PUBLIC "-//W3C//DTD SVG 1.1//EN"
  "http://www.w3.org/Graphics/SVG/1.1/DTD/svg11.dtd">
<svg xmlns:xlink="http://www.w3.org/1999/xlink" width="73.149384pt" height="99.9pt" viewBox="0 0 73.149384 99.9" xmlns="http://www.w3.org/2000/svg" version="1.1">
 <metadata>
  <rdf:RDF xmlns:dc="http://purl.org/dc/elements/1.1/" xmlns:cc="http://creativecommons.org/ns#" xmlns:rdf="http://www.w3.org/1999/02/22-rdf-syntax-ns#">
   <cc:Work>
    <dc:type rdf:resource="http://purl.org/dc/dcmitype/StillImage"/>
    <dc:format>image/svg+xml</dc:format>
    <dc:creator>
     <cc:Agent>
      <dc:title>Matplotlib v3.10.8, https://matplotlib.org/</dc:title>
     </cc:Agent>
    </dc:creator>
   </cc:Work>
  </rdf:RDF>
 </metadata>
 <defs>
  <style type="text/css">*{stroke-linejoin: round; stroke-linecap: butt}</style>
 </defs>
 <g id="figure_1">
  <g id="patch_1">
   <path d="M 0 99.9
L 73.149384 99.9
L 73.149384 0
L 0 0
z
" style="fill: #ffffff"/>
  </g>
  <g id="axes_1">
   <g id="patch_2">
    <path d="M 1.959384 98.46
L 71.709384 98.46
L 71.709384 1.44
L 1.959384 1.44
z
" style="fill: #ffffff"/>
   </g>
   <g id="patch_3">
    <path d="M 1.959384 46.5543
L 64.23617 46.5543
L 64.23617 14.5377
L 1.959384 14.5377
z
" clip-path="url(#p4e604dc74f)" style="fill: #5e6b73; opacity: 0.92"/>
   </g>
   <g id="patch_4">
    <path d="M 1.959384 95.0643
L 22.718313 95.0643
L 22.718313 63.0477
L 1.959384 63.0477
z
" clip-path="url(#p4e604dc74f)" style="fill: #5e6b73; opacity: 0.92"/>
   </g>
   <g id="matplotlib.axis_1"/>
   <g id="matplotlib.axis_2"/>
   <g id="patch_5">
    <path d="M 1.959384 98.46
L 71.709384 98.46
" style="fill: none; stroke: #cccccc; stroke-width: 0.55; stroke-linejoin: miter; stroke-linecap: square"/>
   </g>
   <g id="text_1">
    <!-- Unfused: 6 -->
    <g style="fill: #ffffff" transform="translate(38.042232 31.869156) scale(0.052 -0.052)">
     <defs>
      <path id="Helvetica-55" d="M 1163 4591
L 1163 1753
Q 1163 1253 1350 922
Q 1628 422 2288 422
Q 3078 422 3363 963
Q 3516 1256 3516 1753
L 3516 4591
L 4147 4591
L 4147 2013
Q 4147 1166 3919 709
Q 3500 -122 2338 -122
Q 1175 -122 759 709
Q 531 1166 531 2013
L 531 4591
L 1163 4591
z
M 2341 4591
L 2341 4591
z
" transform="scale(0.015625)"/>
      <path id="Helvetica-6e" d="M 413 3347
L 947 3347
L 947 2872
Q 1184 3166 1450 3294
Q 1716 3422 2041 3422
Q 2753 3422 3003 2925
Q 3141 2653 3141 2147
L 3141 0
L 2569 0
L 2569 2109
Q 2569 2416 2478 2603
Q 2328 2916 1934 2916
Q 1734 2916 1606 2875
Q 1375 2806 1200 2600
Q 1059 2434 1017 2257
Q 975 2081 975 1753
L 975 0
L 413 0
L 413 3347
z
M 1734 3428
L 1734 3428
z
" transform="scale(0.015625)"/>
      <path id="Helvetica-66" d="M 553 3856
Q 566 4206 675 4369
Q 872 4656 1434 4656
Q 1488 4656 1544 4653
Q 1600 4650 1672 4644
L 1672 4131
Q 1584 4138 1545 4139
Q 1506 4141 1472 4141
Q 1216 4141 1166 4008
Q 1116 3875 1116 3331
L 1672 3331
L 1672 2888
L 1109 2888
L 1109 0
L 553 0
L 553 2888
L 88 2888
L 88 3331
L 553 3331
L 553 3856
z
" transform="scale(0.015625)"/>
      <path id="Helvetica-75" d="M 975 3347
L 975 1125
Q 975 869 1056 706
Q 1206 406 1616 406
Q 2203 406 2416 931
Q 2531 1213 2531 1703
L 2531 3347
L 3094 3347
L 3094 0
L 2563 0
L 2569 494
Q 2459 303 2297 172
Q 1975 -91 1516 -91
Q 800 -91 541 388
Q 400 644 400 1072
L 400 3347
L 975 3347
z
M 1747 3428
L 1747 3428
z
" transform="scale(0.015625)"/>
      <path id="Helvetica-73" d="M 747 1050
Q 772 769 888 619
Q 1100 347 1625 347
Q 1938 347 2175 483
Q 2413 619 2413 903
Q 2413 1119 2222 1231
Q 2100 1300 1741 1391
L 1294 1503
Q 866 1609 663 1741
Q 300 1969 300 2372
Q 300 2847 642 3140
Q 984 3434 1563 3434
Q 2319 3434 2653 2991
Q 2863 2709 2856 2384
L 2325 2384
Q 2309 2575 2191 2731
Q 1997 2953 1519 2953
Q 1200 2953 1036 2831
Q 872 2709 872 2509
Q 872 2291 1088 2159
Q 1213 2081 1456 2022
L 1828 1931
Q 2434 1784 2641 1647
Q 2969 1431 2969 969
Q 2969 522 2630 197
Q 2291 -128 1597 -128
Q 850 -128 539 211
Q 228 550 206 1050
L 747 1050
z
M 1578 3428
L 1578 3428
z
" transform="scale(0.015625)"/>
      <path id="Helvetica-65" d="M 1806 3422
Q 2163 3422 2497 3255
Q 2831 3088 3006 2822
Q 3175 2569 3231 2231
Q 3281 2000 3281 1494
L 828 1494
Q 844 984 1069 676
Q 1294 369 1766 369
Q 2206 369 2469 659
Q 2619 828 2681 1050
L 3234 1050
Q 3213 866 3089 639
Q 2966 413 2813 269
Q 2556 19 2178 -69
Q 1975 -119 1719 -119
Q 1094 -119 659 336
Q 225 791 225 1609
Q 225 2416 662 2919
Q 1100 3422 1806 3422
z
M 2703 1941
Q 2669 2306 2544 2525
Q 2313 2931 1772 2931
Q 1384 2931 1121 2651
Q 859 2372 844 1941
L 2703 1941
z
M 1753 3428
L 1753 3428
z
" transform="scale(0.015625)"/>
      <path id="Helvetica-64" d="M 769 1634
Q 769 1097 997 734
Q 1225 372 1728 372
Q 2119 372 2370 708
Q 2622 1044 2622 1672
Q 2622 2306 2362 2611
Q 2103 2916 1722 2916
Q 1297 2916 1033 2591
Q 769 2266 769 1634
z
M 1616 3406
Q 2000 3406 2259 3244
Q 2409 3150 2600 2916
L 2600 4606
L 3141 4606
L 3141 0
L 2634 0
L 2634 466
Q 2438 156 2169 18
Q 1900 -119 1553 -119
Q 994 -119 584 351
Q 175 822 175 1603
Q 175 2334 548 2870
Q 922 3406 1616 3406
z
" transform="scale(0.015625)"/>
      <path id="Helvetica-3a" d="M 709 3303
L 1363 3303
L 1363 2622
L 709 2622
L 709 3303
z
M 709 681
L 1363 681
L 1363 0
L 709 0
L 709 681
z
" transform="scale(0.015625)"/>
      <path id="Helvetica-20" transform="scale(0.015625)"/>
      <path id="Helvetica-36" d="M 1872 4494
Q 2622 4494 2917 4105
Q 3213 3716 3213 3303
L 2656 3303
Q 2606 3569 2497 3719
Q 2294 4000 1881 4000
Q 1409 4000 1131 3564
Q 853 3128 822 2316
Q 1016 2600 1309 2741
Q 1578 2866 1909 2866
Q 2472 2866 2890 2506
Q 3309 2147 3309 1434
Q 3309 825 2912 354
Q 2516 -116 1781 -116
Q 1153 -116 697 361
Q 241 838 241 1966
Q 241 2800 444 3381
Q 834 4494 1872 4494
z
M 1831 384
Q 2275 384 2495 682
Q 2716 981 2716 1388
Q 2716 1731 2519 2042
Q 2322 2353 1803 2353
Q 1441 2353 1167 2112
Q 894 1872 894 1388
Q 894 963 1142 673
Q 1391 384 1831 384
z
" transform="scale(0.015625)"/>
     </defs>
     <use xlink:href="#Helvetica-55"/>
     <use xlink:href="#Helvetica-6e" transform="translate(72.216797 0)"/>
     <use xlink:href="#Helvetica-66" transform="translate(127.832031 0)"/>
     <use xlink:href="#Helvetica-75" transform="translate(155.615234 0)"/>
     <use xlink:href="#Helvetica-73" transform="translate(211.230469 0)"/>
     <use xlink:href="#Helvetica-65" transform="translate(261.230469 0)"/>
     <use xlink:href="#Helvetica-64" transform="translate(316.845703 0)"/>
     <use xlink:href="#Helvetica-3a" transform="translate(372.460938 0)"/>
     <use xlink:href="#Helvetica-20" transform="translate(400.244141 0)"/>
     <use xlink:href="#Helvetica-36" transform="translate(428.027344 0)"/>
    </g>
   </g>
   <g id="text_2">
    <!-- Fused: 2 -->
    <g style="fill: #ffffff" transform="translate(1.44 80.379156) scale(0.052 -0.052)">
     <defs>
      <path id="Helvetica-46" d="M 547 4591
L 3731 4591
L 3731 4028
L 1169 4028
L 1169 2634
L 3422 2634
L 3422 2088
L 1169 2088
L 1169 0
L 547 0
L 547 4591
z
" transform="scale(0.015625)"/>
      <path id="Helvetica-32" d="M 200 0
Q 231 578 439 1006
Q 647 1434 1250 1784
L 1850 2131
Q 2253 2366 2416 2531
Q 2672 2791 2672 3125
Q 2672 3516 2437 3745
Q 2203 3975 1813 3975
Q 1234 3975 1013 3538
Q 894 3303 881 2888
L 309 2888
Q 319 3472 525 3841
Q 891 4491 1816 4491
Q 2584 4491 2939 4075
Q 3294 3659 3294 3150
Q 3294 2613 2916 2231
Q 2697 2009 2131 1694
L 1703 1456
Q 1397 1288 1222 1134
Q 909 863 828 531
L 3272 531
L 3272 0
L 200 0
z
" transform="scale(0.015625)"/>
     </defs>
     <use xlink:href="#Helvetica-46"/>
     <use xlink:href="#Helvetica-75" transform="translate(61.083984 0)"/>
     <use xlink:href="#Helvetica-73" transform="translate(116.699219 0)"/>
     <use xlink:href="#Helvetica-65" transform="translate(166.699219 0)"/>
     <use xlink:href="#Helvetica-64" transform="translate(222.314453 0)"/>
     <use xlink:href="#Helvetica-3a" transform="translate(277.929688 0)"/>
     <use xlink:href="#Helvetica-20" transform="translate(305.712891 0)"/>
     <use xlink:href="#Helvetica-32" transform="translate(333.496094 0)"/>
    </g>
   </g>
  </g>
 </g>
 <defs>
  <clipPath id="p4e604dc74f">
   <rect x="1.959384" y="1.44" width="69.75" height="97.02"/>
  </clipPath>
 </defs>
</svg>
