<?xml version="1.0" encoding="utf-8" standalone="no"?>
<!DOCTYPE svg PUBLIC "-//W3C//DTD SVG 1.1//EN"
  "http://www.w3.org/Graphics/SVG/1.1/DTD/svg11.dtd">
<svg xmlns:xlink="http://www.w3.org/1999/xlink" width="72.63pt" height="99.9pt" viewBox="0 0 72.63 99.9" xmlns="http://www.w3.org/2000/svg" version="1.1">
 <metadata>
  <rdf:RDF xmlns:dc="http://purl.org/dc/elements/1.1/" xmlns:cc="http://creativecommons.org/ns#" xmlns:rdf="http://www.w3.org/1999/02/22-rdf-syntax-ns#">
   <cc:Work>
    <dc:type rdf:resource="http://purl.org/dc/dcmitype/StillImage"/>
    <dc:format>image/svg+xml</dc:format>
    <dc:creator>
     <cc:Agent>
      <dc:title>Matplotlib v3.10.8, https://matplotlib.org/</dc:title>
     </cc:Agent>
    </dc:creator>
   </cc:Work>
  </rdf:RDF>
 </metadata>
 <defs>
  <style type="text/css">*{stroke-linejoin: round; stroke-linecap: butt}</style>
 </defs>
 <g id="figure_1">
  <g id="patch_1">
   <path d="M 0 99.9
L 72.63 99.9
L 72.63 0
L 0 0
z
" style="fill: #ffffff"/>
  </g>
  <g id="axes_1">
   <g id="patch_2">
    <path d="M 1.44 98.46
L 71.19 98.46
L 71.19 1.44
L 1.44 1.44
z
" style="fill: #ffffff"/>
   </g>
   <g id="patch_3">
    <path d="M 1.44 31.5162
L 69.196911 31.5162
L 69.196911 10.1718
L 1.44 10.1718
z
" clip-path="url(#p879ee31a35)" style="fill: #006395; opacity: 0.92"/>
   </g>
   <g id="patch_4">
    <path d="M 1.44 63.8562
L 9.675925 63.8562
L 9.675925 42.5118
L 1.44 42.5118
z
" clip-path="url(#p879ee31a35)" style="fill: #006395; opacity: 0.92"/>
   </g>
   <g id="patch_5">
    <path d="M 1.44 96.1962
L 4.606776 96.1962
L 4.606776 74.8518
L 1.44 74.8518
z
" clip-path="url(#p879ee31a35)" style="fill: #006395; opacity: 0.92"/>
   </g>
   <g id="matplotlib.axis_1"/>
   <g id="matplotlib.axis_2"/>
   <g id="patch_6">
    <path d="M 1.44 98.46
L 71.19 98.46
" style="fill: none; stroke: #cccccc; stroke-width: 0.55; stroke-linejoin: miter; stroke-linecap: square"/>
   </g>
   <g id="text_1">
    <!-- 175B FP16 -->
    <g style="fill: #ffffff" transform="translate(42.969886 22.167156) scale(0.052 -0.052)">
     <defs>
      <path id="Helvetica-31" d="M 613 3169
L 613 3600
Q 1222 3659 1462 3798
Q 1703 3938 1822 4456
L 2266 4456
L 2266 0
L 1666 0
L 1666 3169
L 613 3169
z
" transform="scale(0.015625)"/>
      <path id="Helvetica-37" d="M 3347 4400
L 3347 3909
Q 3131 3700 2773 3181
Q 2416 2663 2141 2063
Q 1869 1478 1728 997
Q 1638 688 1494 0
L 872 0
Q 1084 1281 1809 2550
Q 2238 3294 2709 3834
L 234 3834
L 234 4400
L 3347 4400
z
" transform="scale(0.015625)"/>
      <path id="Helvetica-35" d="M 791 1141
Q 847 659 1238 475
Q 1438 381 1700 381
Q 2200 381 2440 700
Q 2681 1019 2681 1406
Q 2681 1875 2395 2131
Q 2109 2388 1709 2388
Q 1419 2388 1211 2275
Q 1003 2163 856 1963
L 369 1991
L 709 4400
L 3034 4400
L 3034 3856
L 1131 3856
L 941 2613
Q 1097 2731 1238 2791
Q 1488 2894 1816 2894
Q 2431 2894 2859 2497
Q 3288 2100 3288 1491
Q 3288 856 2895 371
Q 2503 -113 1644 -113
Q 1097 -113 676 195
Q 256 503 206 1141
L 791 1141
z
" transform="scale(0.015625)"/>
      <path id="Helvetica-42" d="M 2213 2650
Q 2606 2650 2825 2759
Q 3169 2931 3169 3378
Q 3169 3828 2803 3984
Q 2597 4072 2191 4072
L 1081 4072
L 1081 2650
L 2213 2650
z
M 2422 531
Q 2994 531 3238 863
Q 3391 1072 3391 1369
Q 3391 1869 2944 2050
Q 2706 2147 2316 2147
L 1081 2147
L 1081 531
L 2422 531
z
M 472 4591
L 2444 4591
Q 3250 4591 3591 4109
Q 3791 3825 3791 3453
Q 3791 3019 3544 2741
Q 3416 2594 3175 2472
Q 3528 2338 3703 2169
Q 4013 1869 4013 1341
Q 4013 897 3734 538
Q 3319 0 2413 0
L 472 0
L 472 4591
z
" transform="scale(0.015625)"/>
      <path id="Helvetica-20" transform="scale(0.015625)"/>
      <path id="Helvetica-46" d="M 547 4591
L 3731 4591
L 3731 4028
L 1169 4028
L 1169 2634
L 3422 2634
L 3422 2088
L 1169 2088
L 1169 0
L 547 0
L 547 4591
z
" transform="scale(0.015625)"/>
      <path id="Helvetica-50" d="M 547 4591
L 2613 4591
Q 3225 4591 3600 4245
Q 3975 3900 3975 3275
Q 3975 2738 3640 2339
Q 3306 1941 2613 1941
L 1169 1941
L 1169 0
L 547 0
L 547 4591
z
M 3347 3272
Q 3347 3778 2972 3959
Q 2766 4056 2406 4056
L 1169 4056
L 1169 2466
L 2406 2466
Q 2825 2466 3086 2644
Q 3347 2822 3347 3272
z
" transform="scale(0.015625)"/>
      <path id="Helvetica-36" d="M 1872 4494
Q 2622 4494 2917 4105
Q 3213 3716 3213 3303
L 2656 3303
Q 2606 3569 2497 3719
Q 2294 4000 1881 4000
Q 1409 4000 1131 3564
Q 853 3128 822 2316
Q 1016 2600 1309 2741
Q 1578 2866 1909 2866
Q 2472 2866 2890 2506
Q 3309 2147 3309 1434
Q 3309 825 2912 354
Q 2516 -116 1781 -116
Q 1153 -116 697 361
Q 241 838 241 1966
Q 241 2800 444 3381
Q 834 4494 1872 4494
z
M 1831 384
Q 2275 384 2495 682
Q 2716 981 2716 1388
Q 2716 1731 2519 2042
Q 2322 2353 1803 2353
Q 1441 2353 1167 2112
Q 894 1872 894 1388
Q 894 963 1142 673
Q 1391 384 1831 384
z
" transform="scale(0.015625)"/>
     </defs>
     <use xlink:href="#Helvetica-31"/>
     <use xlink:href="#Helvetica-37" transform="translate(55.615234 0)"/>
     <use xlink:href="#Helvetica-35" transform="translate(111.230469 0)"/>
     <use xlink:href="#Helvetica-42" transform="translate(166.845703 0)"/>
     <use xlink:href="#Helvetica-20" transform="translate(233.544922 0)"/>
     <use xlink:href="#Helvetica-46" transform="translate(261.328125 0)"/>
     <use xlink:href="#Helvetica-50" transform="translate(322.412109 0)"/>
     <use xlink:href="#Helvetica-31" transform="translate(389.111328 0)"/>
     <use xlink:href="#Helvetica-36" transform="translate(444.726562 0)"/>
    </g>
   </g>
   <g id="text_2">
    <!-- Phone RAM -->
    <g style="fill: #333333" transform="translate(10.684617 54.507156) scale(0.052 -0.052)">
     <defs>
      <path id="Helvetica-68" d="M 413 4606
L 975 4606
L 975 2894
Q 1175 3147 1334 3250
Q 1606 3428 2013 3428
Q 2741 3428 3000 2919
Q 3141 2641 3141 2147
L 3141 0
L 2563 0
L 2563 2109
Q 2563 2478 2469 2650
Q 2316 2925 1894 2925
Q 1544 2925 1259 2684
Q 975 2444 975 1775
L 975 0
L 413 0
L 413 4606
z
" transform="scale(0.015625)"/>
      <path id="Helvetica-6f" d="M 1741 363
Q 2300 363 2508 786
Q 2716 1209 2716 1728
Q 2716 2197 2566 2491
Q 2328 2953 1747 2953
Q 1231 2953 997 2559
Q 763 2166 763 1609
Q 763 1075 997 719
Q 1231 363 1741 363
z
M 1763 3444
Q 2409 3444 2856 3012
Q 3303 2581 3303 1744
Q 3303 934 2909 406
Q 2516 -122 1688 -122
Q 997 -122 590 345
Q 184 813 184 1600
Q 184 2444 612 2944
Q 1041 3444 1763 3444
z
M 1744 3428
L 1744 3428
z
" transform="scale(0.015625)"/>
      <path id="Helvetica-6e" d="M 413 3347
L 947 3347
L 947 2872
Q 1184 3166 1450 3294
Q 1716 3422 2041 3422
Q 2753 3422 3003 2925
Q 3141 2653 3141 2147
L 3141 0
L 2569 0
L 2569 2109
Q 2569 2416 2478 2603
Q 2328 2916 1934 2916
Q 1734 2916 1606 2875
Q 1375 2806 1200 2600
Q 1059 2434 1017 2257
Q 975 2081 975 1753
L 975 0
L 413 0
L 413 3347
z
M 1734 3428
L 1734 3428
z
" transform="scale(0.015625)"/>
      <path id="Helvetica-65" d="M 1806 3422
Q 2163 3422 2497 3255
Q 2831 3088 3006 2822
Q 3175 2569 3231 2231
Q 3281 2000 3281 1494
L 828 1494
Q 844 984 1069 676
Q 1294 369 1766 369
Q 2206 369 2469 659
Q 2619 828 2681 1050
L 3234 1050
Q 3213 866 3089 639
Q 2966 413 2813 269
Q 2556 19 2178 -69
Q 1975 -119 1719 -119
Q 1094 -119 659 336
Q 225 791 225 1609
Q 225 2416 662 2919
Q 1100 3422 1806 3422
z
M 2703 1941
Q 2669 2306 2544 2525
Q 2313 2931 1772 2931
Q 1384 2931 1121 2651
Q 859 2372 844 1941
L 2703 1941
z
M 1753 3428
L 1753 3428
z
" transform="scale(0.015625)"/>
      <path id="Helvetica-52" d="M 2622 2488
Q 3059 2488 3314 2663
Q 3569 2838 3569 3294
Q 3569 3784 3213 3963
Q 3022 4056 2703 4056
L 1184 4056
L 1184 2488
L 2622 2488
z
M 563 4591
L 2688 4591
Q 3213 4591 3553 4438
Q 4200 4144 4200 3353
Q 4200 2941 4029 2678
Q 3859 2416 3553 2256
Q 3822 2147 3958 1969
Q 4094 1791 4109 1391
L 4131 775
Q 4141 513 4175 384
Q 4231 166 4375 103
L 4375 0
L 3613 0
Q 3581 59 3562 153
Q 3544 247 3531 516
L 3494 1281
Q 3472 1731 3159 1884
Q 2981 1969 2600 1969
L 1184 1969
L 1184 0
L 563 0
L 563 4591
z
" transform="scale(0.015625)"/>
      <path id="Helvetica-41" d="M 2844 1881
L 2147 3909
L 1406 1881
L 2844 1881
z
M 1822 4591
L 2525 4591
L 4191 0
L 3509 0
L 3044 1375
L 1228 1375
L 731 0
L 94 0
L 1822 4591
z
" transform="scale(0.015625)"/>
      <path id="Helvetica-4d" d="M 472 4591
L 1363 4591
L 2681 709
L 3991 4591
L 4872 4591
L 4872 0
L 4281 0
L 4281 2709
Q 4281 2850 4287 3175
Q 4294 3500 4294 3872
L 2984 0
L 2369 0
L 1050 3872
L 1050 3731
Q 1050 3563 1058 3217
Q 1066 2872 1066 2709
L 1066 0
L 472 0
L 472 4591
z
" transform="scale(0.015625)"/>
     </defs>
     <use xlink:href="#Helvetica-50"/>
     <use xlink:href="#Helvetica-68" transform="translate(66.699219 0)"/>
     <use xlink:href="#Helvetica-6f" transform="translate(122.314453 0)"/>
     <use xlink:href="#Helvetica-6e" transform="translate(177.929688 0)"/>
     <use xlink:href="#Helvetica-65" transform="translate(233.544922 0)"/>
     <use xlink:href="#Helvetica-20" transform="translate(289.160156 0)"/>
     <use xlink:href="#Helvetica-52" transform="translate(316.943359 0)"/>
     <use xlink:href="#Helvetica-41" transform="translate(389.160156 0)"/>
     <use xlink:href="#Helvetica-4d" transform="translate(455.859375 0)"/>
    </g>
   </g>
   <g id="text_3">
    <!-- MCU RAM -->
    <g style="fill: #333333" transform="translate(4.864066 86.847156) scale(0.052 -0.052)">
     <defs>
      <path id="Helvetica-43" d="M 2422 4716
Q 3294 4716 3775 4256
Q 4256 3797 4309 3213
L 3703 3213
Q 3600 3656 3292 3915
Q 2984 4175 2428 4175
Q 1750 4175 1333 3698
Q 916 3222 916 2238
Q 916 1431 1292 929
Q 1669 428 2416 428
Q 3103 428 3463 956
Q 3653 1234 3747 1688
L 4353 1688
Q 4272 963 3816 472
Q 3269 -119 2341 -119
Q 1541 -119 997 366
Q 281 1006 281 2344
Q 281 3359 819 4009
Q 1400 4716 2422 4716
z
M 2297 4716
L 2297 4716
z
" transform="scale(0.015625)"/>
      <path id="Helvetica-55" d="M 1163 4591
L 1163 1753
Q 1163 1253 1350 922
Q 1628 422 2288 422
Q 3078 422 3363 963
Q 3516 1256 3516 1753
L 3516 4591
L 4147 4591
L 4147 2013
Q 4147 1166 3919 709
Q 3500 -122 2338 -122
Q 1175 -122 759 709
Q 531 1166 531 2013
L 531 4591
L 1163 4591
z
M 2341 4591
L 2341 4591
z
" transform="scale(0.015625)"/>
     </defs>
     <use xlink:href="#Helvetica-4d"/>
     <use xlink:href="#Helvetica-43" transform="translate(83.300781 0)"/>
     <use xlink:href="#Helvetica-55" transform="translate(155.517578 0)"/>
     <use xlink:href="#Helvetica-20" transform="translate(227.734375 0)"/>
     <use xlink:href="#Helvetica-52" transform="translate(255.517578 0)"/>
     <use xlink:href="#Helvetica-41" transform="translate(327.734375 0)"/>
     <use xlink:href="#Helvetica-4d" transform="translate(394.433594 0)"/>
    </g>
   </g>
  </g>
 </g>
 <defs>
  <clipPath id="p879ee31a35">
   <rect x="1.44" y="1.44" width="69.75" height="97.02"/>
  </clipPath>
 </defs>
</svg>
