<?xml version="1.0" encoding="UTF-8" standalone="no"?>
<!-- Created with Inkscape (http://www.inkscape.org/) -->

<svg
   version="1.1"
   id="svg1"
   width="484.31332"
   height="305.86932"
   viewBox="0 0 484.31332 305.86932"
   xmlns="http://www.w3.org/2000/svg"
   xmlns:svg="http://www.w3.org/2000/svg">
  <defs
     id="defs1" />
  <g
     id="g1">
    <path
       id="path1"
       d="m 49.89069,0 c 0,7.51476 -6.09176,13.6065 -13.60653,13.6065 -7.51475,0 -13.60652,-6.09174 -13.60652,-13.6065 0,-7.51476 6.09177,-13.6065 13.60652,-13.6065 7.51477,0 13.60653,6.09174 13.60653,13.6065 z"
       style="fill:#e6e6e6;fill-opacity:1;fill-rule:nonzero;stroke:#000000;stroke-width:0.3985;stroke-linecap:butt;stroke-linejoin:round;stroke-miterlimit:10;stroke-dasharray:none;stroke-opacity:1"
       transform="matrix(1.3333333,0,0,-1.3333333,-29.970667,18.408)" />
    <path
       id="path2"
       d="M 38.55386,5.66936 H 34.01839 V -5.66936 h 4.53547 z"
       style="fill:#ff0000;fill-opacity:1;fill-rule:nonzero;stroke:none"
       transform="matrix(1.3333333,0,0,-1.3333333,-29.970667,18.408)" />
    <path
       id="path3"
       d="m 86.17488,0 c 0,7.51476 -6.09175,13.6065 -13.60651,13.6065 C 65.0536,13.6065 58.96185,7.51476 58.96185,0 c 0,-7.51476 6.09175,-13.6065 13.60652,-13.6065 7.51476,0 13.60651,6.09174 13.60651,13.6065 z"
       style="fill:#e6e6e6;fill-opacity:1;fill-rule:nonzero;stroke:#000000;stroke-width:0.3985;stroke-linecap:butt;stroke-linejoin:round;stroke-miterlimit:10;stroke-dasharray:none;stroke-opacity:1"
       transform="matrix(1.3333333,0,0,-1.3333333,-29.970667,18.408)" />
    <path
       id="path4"
       d="M 74.83997,5.66936 H 70.30449 V -5.66936 h 4.53548 z"
       style="fill:#ff0000;fill-opacity:1;fill-rule:nonzero;stroke:none"
       transform="matrix(1.3333333,0,0,-1.3333333,-29.970667,18.408)" />
    <path
       id="path5"
       d="m 122.45908,0 c 0,7.51476 -6.09176,13.6065 -13.60653,13.6065 -7.51475,0 -13.6065,-6.09174 -13.6065,-13.6065 0,-7.51476 6.09175,-13.6065 13.6065,-13.6065 7.51477,0 13.60653,6.09174 13.60653,13.6065 z"
       style="fill:#e6e6e6;fill-opacity:1;fill-rule:nonzero;stroke:#000000;stroke-width:0.3985;stroke-linecap:butt;stroke-linejoin:round;stroke-miterlimit:10;stroke-dasharray:none;stroke-opacity:1"
       transform="matrix(1.3333333,0,0,-1.3333333,-29.970667,18.408)" />
    <path
       id="path6"
       d="m 111.12607,5.66936 h -4.53548 V -5.66936 h 4.53548 z"
       style="fill:#ff0000;fill-opacity:1;fill-rule:nonzero;stroke:none"
       transform="matrix(1.3333333,0,0,-1.3333333,-29.970667,18.408)" />
    <path
       id="path7"
       d="m 158.74327,0 c 0,7.51476 -6.09175,13.6065 -13.60651,13.6065 -7.51476,0 -13.60652,-6.09174 -13.60652,-13.6065 0,-7.51476 6.09176,-13.6065 13.60652,-13.6065 7.51476,0 13.60651,6.09174 13.60651,13.6065 z"
       style="fill:#e6e6e6;fill-opacity:1;fill-rule:nonzero;stroke:#000000;stroke-width:0.3985;stroke-linecap:butt;stroke-linejoin:round;stroke-miterlimit:10;stroke-dasharray:none;stroke-opacity:1"
       transform="matrix(1.3333333,0,0,-1.3333333,-29.970667,18.408)" />
    <path
       id="path8"
       d="M 147.41219,5.66936 H 142.8767 V -5.66936 h 4.53549 z"
       style="fill:#ff0000;fill-opacity:1;fill-rule:nonzero;stroke:none"
       transform="matrix(1.3333333,0,0,-1.3333333,-29.970667,18.408)" />
    <path
       id="path9"
       d="m 104.32173,-63.50046 c 0,7.51476 -6.09175,13.60651 -13.60652,13.60651 -7.51476,0 -13.60651,-6.09175 -13.60651,-13.60651 0,-7.51477 6.09175,-13.60652 13.60651,-13.60652 7.51477,0 13.60652,6.09175 13.60652,13.60652 z"
       style="fill:#e6e6e6;fill-opacity:1;fill-rule:nonzero;stroke:#000000;stroke-width:0.3985;stroke-linecap:butt;stroke-linejoin:round;stroke-miterlimit:10;stroke-dasharray:none;stroke-opacity:1"
       transform="matrix(1.3333333,0,0,-1.3333333,-29.970667,18.408)" />
    <path
       id="path10"
       d="m 92.98302,-57.8311 h -4.53548 v -11.33873 h 4.53548 z"
       style="fill:#ff0000;fill-opacity:1;fill-rule:nonzero;stroke:none"
       transform="matrix(1.3333333,0,0,-1.3333333,-29.970667,18.408)" />
    <path
       id="path11"
       d="M 81.86499,-53.17296 48.08957,-13.76851"
       style="fill:none;stroke:#000000;stroke-width:0.74721;stroke-linecap:butt;stroke-linejoin:round;stroke-miterlimit:10;stroke-dasharray:none;stroke-opacity:1"
       transform="matrix(1.3333333,0,0,-1.3333333,-29.970667,18.408)" />
    <path
       id="path12"
       d="M 4.52798,0 C 3.18633,0.25154 1.00621,1.00621 -0.5031,1.88664 V -1.88664 C 1.00621,-1.00621 3.18633,-0.25154 4.52798,0"
       style="fill:#000000;fill-opacity:1;fill-rule:nonzero;stroke:none"
       transform="matrix(-0.86768,-1.0122933,-1.0122933,0.86768,34.14876,36.766013)" />
    <path
       id="path13"
       d="m 86.98203,-50.42062 -9.42426,32.9839"
       style="fill:none;stroke:#000000;stroke-width:0.74721;stroke-linecap:butt;stroke-linejoin:round;stroke-miterlimit:10;stroke-dasharray:none;stroke-opacity:1"
       transform="matrix(1.3333333,0,0,-1.3333333,-29.970667,18.408)" />
    <path
       id="path14"
       d="M 4.52798,0 C 3.18633,0.25154 1.00621,1.00621 -0.5031,1.88664 V -1.88664 C 1.00621,-1.00621 3.18633,-0.25154 4.52798,0"
       style="fill:#000000;fill-opacity:1;fill-rule:nonzero;stroke:none"
       transform="matrix(-0.36626667,-1.2819867,-1.2819867,0.36626667,73.43972,41.656987)" />
    <path
       id="path15"
       d="m 94.45793,-50.42062 9.42427,32.9839"
       style="fill:none;stroke:#000000;stroke-width:0.74721;stroke-linecap:butt;stroke-linejoin:round;stroke-miterlimit:10;stroke-dasharray:none;stroke-opacity:1"
       transform="matrix(1.3333333,0,0,-1.3333333,-29.970667,18.408)" />
    <path
       id="path16"
       d="M 4.52798,0 C 3.18633,0.25154 1.00621,1.00621 -0.5031,1.88664 V -1.88664 C 1.00621,-1.00621 3.18633,-0.25154 4.52798,0"
       style="fill:#000000;fill-opacity:1;fill-rule:nonzero;stroke:none"
       transform="matrix(0.36626667,-1.2819867,-1.2819867,-0.36626667,108.53892,41.656987)" />
    <path
       id="path17"
       d="m 99.57497,-53.17296 33.77542,39.40445"
       style="fill:none;stroke:#000000;stroke-width:0.74721;stroke-linecap:butt;stroke-linejoin:round;stroke-miterlimit:10;stroke-dasharray:none;stroke-opacity:1"
       transform="matrix(1.3333333,0,0,-1.3333333,-29.970667,18.408)" />
    <path
       id="path18"
       d="M 4.52798,0 C 3.18633,0.25154 1.00621,1.00621 -0.5031,1.88664 V -1.88664 C 1.00621,-1.00621 3.18633,-0.25154 4.52798,0"
       style="fill:#000000;fill-opacity:1;fill-rule:nonzero;stroke:none"
       transform="matrix(0.86768,-1.0122933,-1.0122933,-0.86768,147.82985,36.766013)" />
    <path
       id="path19"
       d="M 0.78969727,0.00100586 H 4.0562988 c 0.6884766,0 1.2011719,-0.19042969 1.5966797,-0.60058594 0.3515625,-0.38085937 0.5566406,-0.90820312 0.5566406,-1.46484372 0,-0.8789063 -0.4101562,-1.40625 -1.3330078,-1.772461 0.6591797,-0.3076172 1.0107422,-0.8496093 1.0107422,-1.5820312 0,-0.5273438 -0.2050781,-0.9960938 -0.5859375,-1.3330078 C 4.9352051,-7.1034863 4.4371582,-7.2646191 3.7340332,-7.2646191 H 0.78969727 Z M 1.7125488,-4.1298535 v -2.3144531 h 1.7871094 c 0.5273438,0 0.8056641,0.073242 1.0546875,0.2636718 0.2636719,0.1904297 0.4101563,0.4980469 0.4101563,0.8935547 0,0.3808594 -0.1464844,0.703125 -0.4101563,0.8935547 -0.2490234,0.1904297 -0.5273437,0.2636719 -1.0546875,0.2636719 z m 0,3.31054686 V -3.309541 h 2.2558594 c 0.4541016,0 0.7470703,0.102539 0.9667969,0.336914 0.2197265,0.234375 0.336914,0.5566407 0.336914,0.9082032 0,0.3515625 -0.1171875,0.6738281 -0.336914,0.8935547 -0.2197266,0.2490234 -0.5126953,0.35156246 -0.9667969,0.35156246 z M 7.3338867,-5.2138379 v 5.21484376 h 0.834961 V -2.7089551 c 0,-0.7470703 0.1904296,-1.2304687 0.5859375,-1.5234375 0.2636718,-0.1904297 0.5126953,-0.2490234 1.0839843,-0.2636719 v -0.8349609 c -0.1318359,-0.029297 -0.2050781,-0.043945 -0.3076172,-0.043945 -0.5419921,0 -0.9521484,0.3222656 -1.4355468,1.0986328 v -0.9375 z m 5.3393553,-0.1611328 c -1.464844,0 -2.358398,1.0546875 -2.358398,2.8125 0,1.74316406 0.878906,2.79785156 2.373047,2.79785156 1.464843,0 2.358398,-1.0546875 2.358398,-2.76855466 0,-1.8017578 -0.864258,-2.8417969 -2.373047,-2.8417969 z m 0.01465,0.7763672 c 0.9375,0 1.49414,0.7617187 1.49414,2.0654297 0,1.2158203 -0.585937,1.99218747 -1.49414,1.99218747 -0.9375,0 -1.494141,-0.76171877 -1.494141,-2.02148437 0,-1.2597656 0.556641,-2.0361328 1.494141,-2.0361328 z m 8.144531,4.11621092 c -0.08789,0.0146484 -0.131836,0.0146484 -0.175781,0.0146484 -0.292969,0 -0.454102,-0.14648438 -0.454102,-0.41015625 V -3.9394238 c 0,-0.9375 -0.673828,-1.4355469 -1.962891,-1.4355469 -0.761718,0 -1.391601,0.2197266 -1.728515,0.6152344 -0.249024,0.2636718 -0.336914,0.571289 -0.366211,1.0839843 h 0.834961 c 0.07324,-0.6298828 0.454101,-0.9228515 1.230469,-0.9228515 0.74707,0 1.171875,0.2783203 1.171875,0.7763672 v 0.2197265 c 0,0.3515625 -0.219727,0.4980469 -0.878907,0.5712891 -1.171875,0.1464844 -1.347656,0.1904297 -1.669922,0.3222656 -0.600586,0.2490235 -0.908203,0.7177735 -0.908203,1.3916016 0,0.95214842 0.644532,1.55273436 1.713867,1.55273436 0.644532,0 1.171875,-0.234375 1.772461,-0.77636719 0.05859,0.52734375 0.307618,0.77636719 0.84961,0.77636719 0.175781,0 0.292969,-0.0292969 0.571289,-0.0878906 z M 19.382227,-1.6396191 c 0,0.2783203 -0.08789,0.4394531 -0.336915,0.67382808 -0.336914,0.30761719 -0.74707,0.46875 -1.230468,0.46875 -0.644532,0 -1.025391,-0.30761718 -1.025391,-0.83496098 0,-0.5566406 0.366211,-0.8349609 1.245117,-0.9521484 0.878907,-0.1318359 1.054688,-0.1611328 1.347657,-0.2929687 z m 6.595459,-5.625 h -0.834961 v 2.7099609 c -0.351563,-0.5273438 -0.908204,-0.8203125 -1.59668,-0.8203125 -1.362305,0 -2.241211,1.0986328 -2.241211,2.7539062 0,1.77246098 0.864258,2.85644536 2.270508,2.85644536 0.717773,0 1.21582,-0.27832031 1.655273,-0.92285156 v 0.68847656 h 0.747071 z m -2.299805,2.680664 c 0.893555,0 1.464844,0.7910156 1.464844,2.0361328 0,1.2011719 -0.571289,2.00683597 -1.450196,2.00683597 -0.922851,0 -1.523437,-0.80566407 -1.523437,-2.02148437 0,-1.2158203 0.600586,-2.0214844 1.508789,-2.0214844 z m 7.591553,1.1132813 c -0.0293,-0.4980469 -0.146485,-0.834961 -0.351563,-1.1132813 -0.351562,-0.4980469 -0.981445,-0.7910156 -1.699219,-0.7910156 -1.40625,0 -2.329101,1.1279297 -2.329101,2.8564453 0,1.68457032 0.893554,2.75390626 2.314453,2.75390626 1.245117,0 2.036133,-0.74707031 2.124023,-2.02148436 h -0.834961 c -0.131836,0.83496092 -0.571289,1.24511717 -1.274414,1.24511717 -0.908203,0 -1.464843,-0.74707027 -1.464843,-1.97753907 0,-1.3037109 0.541992,-2.0800781 1.450195,-2.0800781 0.688476,0 1.12793,0.4101562 1.230469,1.1279297 z m 5.625,2.98828122 c -0.08789,0.0146484 -0.131836,0.0146484 -0.175782,0.0146484 -0.292968,0 -0.454101,-0.14648438 -0.454101,-0.41015625 V -3.9394238 c 0,-0.9375 -0.673828,-1.4355469 -1.962891,-1.4355469 -0.761719,0 -1.391601,0.2197266 -1.728515,0.6152344 -0.249024,0.2636718 -0.336915,0.571289 -0.366211,1.0839843 h 0.834961 c 0.07324,-0.6298828 0.454101,-0.9228515 1.230468,-0.9228515 0.747071,0 1.171875,0.2783203 1.171875,0.7763672 v 0.2197265 c 0,0.3515625 -0.219726,0.4980469 -0.878906,0.5712891 -1.171875,0.1464844 -1.347656,0.1904297 -1.669922,0.3222656 -0.600586,0.2490235 -0.908203,0.7177735 -0.908203,1.3916016 0,0.95214842 0.644531,1.55273436 1.713867,1.55273436 0.644531,0 1.171875,-0.234375 1.772461,-0.77636719 0.05859,0.52734375 0.307617,0.77636719 0.84961,0.77636719 0.175781,0 0.292968,-0.0292969 0.571289,-0.0878906 z M 35.444238,-1.6396191 c 0,0.2783203 -0.08789,0.4394531 -0.336914,0.67382808 -0.336914,0.30761719 -0.74707,0.46875 -1.230469,0.46875 -0.644531,0 -1.02539,-0.30761718 -1.02539,-0.83496098 0,-0.5566406 0.366211,-0.8349609 1.245117,-0.9521484 0.878906,-0.1318359 1.054688,-0.1611328 1.347656,-0.2929687 z m 6.020508,-2.1240235 c -0.01465,-1.0253906 -0.688476,-1.6113281 -1.889648,-1.6113281 -1.215821,0 -2.006836,0.6298828 -2.006836,1.5966797 0,0.8203125 0.424804,1.2158203 1.655273,1.508789 l 0.776367,0.1904297 c 0.571289,0.131836 0.805664,0.3515625 0.805664,0.7324219 0,0.48339845 -0.483398,0.80566407 -1.21582,0.80566407 -0.454101,0 -0.820312,-0.13183594 -1.040039,-0.3515625 -0.131836,-0.14648437 -0.19043,-0.29296877 -0.234375,-0.65917967 h -0.878906 c 0.04395,1.20117186 0.717773,1.78710936 2.080078,1.78710936 1.318359,0 2.15332,-0.65917969 2.15332,-1.65527346 0,-0.7763672 -0.439453,-1.2158203 -1.479492,-1.4648437 L 39.399316,-3.0605176 C 38.725488,-3.2216504 38.43252,-3.441377 38.43252,-3.8075879 c 0,-0.4833984 0.424804,-0.7910156 1.113281,-0.7910156 0.659179,0 1.02539,0.2929687 1.040039,0.8349609 z m 3.153076,-1.4501953 h -0.864258 v -1.4355469 h -0.820312 v 1.4355469 h -0.703125 v 0.6738281 h 0.703125 v 3.94042972 c 0,0.52734375 0.351562,0.83496094 0.996094,0.83496094 0.205078,0 0.410156,-0.0292969 0.688476,-0.0732422 v -0.703125 c -0.117187,0.0292969 -0.249023,0.0439453 -0.395508,0.0439453 -0.36621,0 -0.46875,-0.10253906 -0.46875,-0.46875 V -4.5400098 h 0.864258 z m 0,0"
       style="fill:#000000;fill-opacity:1;fill-rule:nonzero;stroke:none"
       aria-label="Broadcast"
       transform="matrix(1.0666667,0,0,1.0666667,67.06,135.56533)" />
    <path
       id="path20"
       d="m 276.66602,0 c 0,7.51476 -6.09176,13.6065 -13.60652,13.6065 -7.51476,0 -13.60651,-6.09174 -13.60651,-13.6065 0,-7.51476 6.09175,-13.6065 13.60651,-13.6065 7.51476,0 13.60652,6.09174 13.60652,13.6065 z"
       style="fill:#e6e6e6;fill-opacity:1;fill-rule:nonzero;stroke:#000000;stroke-width:0.3985;stroke-linecap:butt;stroke-linejoin:round;stroke-miterlimit:10;stroke-dasharray:none;stroke-opacity:1"
       transform="matrix(1.3333333,0,0,-1.3333333,-29.970667,18.408)" />
    <path
       id="path21"
       d="m 265.3292,5.66936 h -4.53548 V -5.66936 h 4.53548 z"
       style="fill:#ff0000;fill-opacity:1;fill-rule:nonzero;stroke:none"
       transform="matrix(1.3333333,0,0,-1.3333333,-29.970667,18.408)" />
    <path
       id="path22"
       d="m 312.95021,0 c 0,7.51476 -6.09175,13.6065 -13.60651,13.6065 -7.51477,0 -13.60652,-6.09174 -13.60652,-13.6065 0,-7.51476 6.09175,-13.6065 13.60652,-13.6065 7.51476,0 13.60651,6.09174 13.60651,13.6065 z"
       style="fill:#e6e6e6;fill-opacity:1;fill-rule:nonzero;stroke:#000000;stroke-width:0.3985;stroke-linecap:butt;stroke-linejoin:round;stroke-miterlimit:10;stroke-dasharray:none;stroke-opacity:1"
       transform="matrix(1.3333333,0,0,-1.3333333,-29.970667,18.408)" />
    <path
       id="path23"
       d="m 301.61531,5.66936 h -4.53548 V -5.66936 h 4.53548 z"
       style="fill:#fff200;fill-opacity:1;fill-rule:nonzero;stroke:none"
       transform="matrix(1.3333333,0,0,-1.3333333,-29.970667,18.408)" />
    <path
       id="path24"
       d="m 349.2344,0 c 0,7.51476 -6.09175,13.6065 -13.60652,13.6065 -7.51475,0 -13.6065,-6.09174 -13.6065,-13.6065 0,-7.51476 6.09175,-13.6065 13.6065,-13.6065 7.51477,0 13.60652,6.09174 13.60652,13.6065 z"
       style="fill:#e6e6e6;fill-opacity:1;fill-rule:nonzero;stroke:#000000;stroke-width:0.3985;stroke-linecap:butt;stroke-linejoin:round;stroke-miterlimit:10;stroke-dasharray:none;stroke-opacity:1"
       transform="matrix(1.3333333,0,0,-1.3333333,-29.970667,18.408)" />
    <path
       id="path25"
       d="m 337.9014,5.66936 h -4.53548 V -5.66936 h 4.53548 z"
       style="fill:#00ff00;fill-opacity:1;fill-rule:nonzero;stroke:none"
       transform="matrix(1.3333333,0,0,-1.3333333,-29.970667,18.408)" />
    <path
       id="path26"
       d="m 385.5186,0 c 0,7.51476 -6.09175,13.6065 -13.6065,13.6065 -7.51478,0 -13.60653,-6.09174 -13.60653,-13.6065 0,-7.51476 6.09175,-13.6065 13.60653,-13.6065 7.51475,0 13.6065,6.09174 13.6065,13.6065 z"
       style="fill:#e6e6e6;fill-opacity:1;fill-rule:nonzero;stroke:#000000;stroke-width:0.3985;stroke-linecap:butt;stroke-linejoin:round;stroke-miterlimit:10;stroke-dasharray:none;stroke-opacity:1"
       transform="matrix(1.3333333,0,0,-1.3333333,-29.970667,18.408)" />
    <path
       id="path27"
       d="m 374.18753,5.66936 h -4.53549 V -5.66936 h 4.53549 z"
       style="fill:#1f77b4;fill-opacity:1;fill-rule:nonzero;stroke:none"
       transform="matrix(1.3333333,0,0,-1.3333333,-29.970667,18.408)" />
    <path
       id="path28"
       d="m 331.09706,-63.50046 c 0,7.51476 -6.09175,13.60651 -13.60652,13.60651 -7.51476,0 -13.60651,-6.09175 -13.60651,-13.60651 0,-7.51477 6.09175,-13.60652 13.60651,-13.60652 7.51477,0 13.60652,6.09175 13.60652,13.60652 z"
       style="fill:#e6e6e6;fill-opacity:1;fill-rule:nonzero;stroke:#000000;stroke-width:0.3985;stroke-linecap:butt;stroke-linejoin:round;stroke-miterlimit:10;stroke-dasharray:none;stroke-opacity:1"
       transform="matrix(1.3333333,0,0,-1.3333333,-29.970667,18.408)" />
    <path
       id="path29"
       d="m 312.95502,-57.8311 h -4.53548 v -11.33873 h 4.53548 z"
       style="fill:#ff0000;fill-opacity:1;fill-rule:nonzero;stroke:none"
       transform="matrix(1.3333333,0,0,-1.3333333,-29.970667,18.408)" />
    <path
       id="path30"
       d="m 317.49046,-57.8311 h -4.53547 v -11.33873 h 4.53547 z"
       style="fill:#fff200;fill-opacity:1;fill-rule:nonzero;stroke:none"
       transform="matrix(1.3333333,0,0,-1.3333333,-29.970667,18.408)" />
    <path
       id="path31"
       d="m 322.02591,-57.8311 h -4.53549 v -11.33873 h 4.53549 z"
       style="fill:#00ff00;fill-opacity:1;fill-rule:nonzero;stroke:none"
       transform="matrix(1.3333333,0,0,-1.3333333,-29.970667,18.408)" />
    <path
       id="path32"
       d="m 326.56134,-57.8311 h -4.53548 v -11.33873 h 4.53548 z"
       style="fill:#1f77b4;fill-opacity:1;fill-rule:nonzero;stroke:none"
       transform="matrix(1.3333333,0,0,-1.3333333,-29.970667,18.408)" />
    <path
       id="path33"
       d="m 308.64032,-53.17296 -33.77541,39.40445"
       style="fill:none;stroke:#000000;stroke-width:0.74721;stroke-linecap:butt;stroke-linejoin:round;stroke-miterlimit:10;stroke-dasharray:none;stroke-opacity:1"
       transform="matrix(1.3333333,0,0,-1.3333333,-29.970667,18.408)" />
    <path
       id="path34"
       d="M 4.52798,0 C 3.18633,0.25154 1.00621,1.00621 -0.5031,1.88664 V -1.88664 C 1.00621,-1.00621 3.18633,-0.25154 4.52798,0"
       style="fill:#000000;fill-opacity:1;fill-rule:nonzero;stroke:none"
       transform="matrix(-0.86768,-1.0122933,-1.0122933,0.86768,336.51588,36.766013)" />
    <path
       id="path35"
       d="m 313.75735,-50.42062 -9.42422,32.9839"
       style="fill:none;stroke:#000000;stroke-width:0.74721;stroke-linecap:butt;stroke-linejoin:round;stroke-miterlimit:10;stroke-dasharray:none;stroke-opacity:1"
       transform="matrix(1.3333333,0,0,-1.3333333,-29.970667,18.408)" />
    <path
       id="path36"
       d="M 4.52798,0 C 3.18633,0.25154 1.00621,1.00621 -0.5031,1.88664 V -1.88664 C 1.00621,-1.00621 3.18633,-0.25154 4.52798,0"
       style="fill:#000000;fill-opacity:1;fill-rule:nonzero;stroke:none"
       transform="matrix(-0.36626667,-1.2819867,-1.2819867,0.36626667,375.80687,41.656987)" />
    <path
       id="path37"
       d="m 321.23328,-50.42062 9.42425,32.9839"
       style="fill:none;stroke:#000000;stroke-width:0.74721;stroke-linecap:butt;stroke-linejoin:round;stroke-miterlimit:10;stroke-dasharray:none;stroke-opacity:1"
       transform="matrix(1.3333333,0,0,-1.3333333,-29.970667,18.408)" />
    <path
       id="path38"
       d="M 4.52798,0 C 3.18633,0.25154 1.00621,1.00621 -0.5031,1.88664 V -1.88664 C 1.00621,-1.00621 3.18633,-0.25154 4.52798,0"
       style="fill:#000000;fill-opacity:1;fill-rule:nonzero;stroke:none"
       transform="matrix(0.36626667,-1.2819867,-1.2819867,-0.36626667,410.90603,41.656987)" />
    <path
       id="path39"
       d="m 326.3503,-53.17296 33.77543,39.40445"
       style="fill:none;stroke:#000000;stroke-width:0.74721;stroke-linecap:butt;stroke-linejoin:round;stroke-miterlimit:10;stroke-dasharray:none;stroke-opacity:1"
       transform="matrix(1.3333333,0,0,-1.3333333,-29.970667,18.408)" />
    <path
       id="path40"
       d="M 4.52798,0 C 3.18633,0.25154 1.00621,1.00621 -0.5031,1.88664 V -1.88664 C 1.00621,-1.00621 3.18633,-0.25154 4.52798,0"
       style="fill:#000000;fill-opacity:1;fill-rule:nonzero;stroke:none"
       transform="matrix(0.86768,-1.0122933,-1.0122933,-0.86768,450.19697,36.766013)" />
    <path
       id="path41"
       d="m 5.9323535,-5.1276465 c 0,-1.4208984 -0.9814453,-2.2558594 -2.6513672,-2.2558594 -1.5966797,0 -2.57812497,0.8203125 -2.57812497,2.1386719 0,0.8789063 0.46874997,1.4355469 1.42089847,1.6845703 l 1.8017578,0.4833985 c 0.9082031,0.234375 1.3330078,0.6005859 1.3330078,1.171875 0,0.3955078 -0.2050781,0.7910156 -0.5126953,1.01074215 -0.2929688,0.19042969 -0.7470703,0.30761719 -1.3330078,0.30761719 -0.7910157,0 -1.3330078,-0.19042969 -1.6845703,-0.61523434 C 1.4645801,-1.5094824 1.3473926,-1.8610449 1.3473926,-2.3151465 H 0.48313477 c 0,0.6738281 0.13183593,1.1132813 0.42480468,1.50878908 0.49804685,0.67382812 1.33300785,1.04003906 2.43164065,1.04003906 0.8789062,0 1.5820312,-0.20507812 2.0507812,-0.55664062 C 5.8737598,-0.7184668 6.181377,-1.362998 6.181377,-1.9928809 c 0,-0.8935546 -0.5566407,-1.5527343 -1.538086,-1.8164062 L 2.8122363,-4.307334 C 1.9479785,-4.541709 1.6257129,-4.8200293 1.6257129,-5.3766699 c 0,-0.7470703 0.6445312,-1.2304688 1.6259766,-1.2304688 1.1572265,0 1.8017578,0.5273438 1.8017578,1.4794922 z m 5.4016115,1.6552735 c -0.0293,-0.4980469 -0.146485,-0.834961 -0.351563,-1.1132813 -0.351562,-0.4980469 -0.981445,-0.7910156 -1.6992184,-0.7910156 -1.40625,0 -2.3291016,1.1279297 -2.3291016,2.8564453 0,1.6845703 0.8935547,2.75390624 2.3144532,2.75390624 1.2451168,0 2.0361328,-0.74707031 2.1240238,-2.02148434 h -0.834961 c -0.131836,0.8349609 -0.5712894,1.24511715 -1.2744144,1.24511715 -0.9082031,0 -1.4648438,-0.74707035 -1.4648438,-1.97753905 0,-1.3037109 0.5419922,-2.0800781 1.4501954,-2.0800781 0.6884765,0 1.1279298,0.4101562 1.2304688,1.1279297 z m 5.625,2.9882812 c -0.08789,0.0146484 -0.131836,0.0146484 -0.175781,0.0146484 -0.292969,0 -0.454102,-0.14648437 -0.454102,-0.41015625 V -3.941123 c 0,-0.9375 -0.673828,-1.4355469 -1.962891,-1.4355469 -0.761718,0 -1.391601,0.2197265 -1.728515,0.6152344 -0.249024,0.2636718 -0.336914,0.571289 -0.366211,1.0839843 h 0.834961 c 0.07324,-0.6298828 0.454101,-0.9228515 1.230469,-0.9228515 0.74707,0 1.171875,0.2783203 1.171875,0.7763672 v 0.2197265 c 0,0.3515625 -0.219727,0.4980469 -0.878907,0.5712891 -1.171875,0.1464844 -1.347656,0.1904297 -1.669922,0.3222656 -0.600586,0.2490234 -0.908203,0.7177734 -0.908203,1.3916016 0,0.9521484 0.644532,1.55273434 1.713867,1.55273434 0.644532,0 1.171875,-0.23437499938 1.772461,-0.77636719 0.05859,0.52734375 0.307618,0.77636719 0.84961,0.77636719 0.175781,0 0.292969,-0.0292969 0.571289,-0.0878906 z M 15.50877,-1.6413184 c 0,0.2783204 -0.08789,0.4394532 -0.336915,0.67382817 -0.336914,0.30761718 -0.74707,0.46875 -1.230468,0.46875 -0.644532,0 -1.025391,-0.30761719 -1.025391,-0.83496097 0,-0.5566406 0.366211,-0.8349609 1.245117,-0.9521484 0.878907,-0.1318359 1.054688,-0.1611328 1.347657,-0.2929688 z m 4.189453,-3.5742187 H 18.833965 V -6.651084 h -0.820313 v 1.4355469 h -0.703125 v 0.6738281 h 0.703125 v 3.9404297 c 0,0.52734375 0.351563,0.83496094 0.996094,0.83496094 0.205078,0 0.410156,-0.0292969 0.688477,-0.0732422 v -0.703125 c -0.117188,0.0292969 -0.249024,0.0439453 -0.395508,0.0439453 -0.366211,0 -0.46875,-0.10253907 -0.46875,-0.46875 V -4.541709 h 0.864258 z m 2.772216,0 H 21.606182 V -6.651084 h -0.820313 v 1.4355469 h -0.703125 v 0.6738281 h 0.703125 v 3.9404297 c 0,0.52734375 0.351563,0.83496094 0.996094,0.83496094 0.205078,0 0.410156,-0.0292969 0.688476,-0.0732422 v -0.703125 c -0.117187,0.0292969 -0.249023,0.0439453 -0.395507,0.0439453 -0.366211,0 -0.46875,-0.10253907 -0.46875,-0.46875 V -4.541709 h 0.864257 z m 5.34668,2.8857422 c 0,-0.8056641 -0.05859,-1.2744141 -0.205078,-1.6699219 -0.351562,-0.8496094 -1.142578,-1.3769531 -2.124023,-1.3769531 -1.450196,0 -2.387696,1.1279297 -2.387696,2.8417969 0,1.71386714 0.908203,2.76855464 2.373047,2.76855464 1.201172,0 2.021485,-0.68847656 2.226563,-1.81640624 h -0.834961 c -0.219727,0.68847655 -0.688477,1.04003905 -1.362305,1.04003905 -0.527344,0 -0.981445,-0.234375 -1.259766,-0.67382815 -0.190429,-0.2929687 -0.263671,-0.6005859 -0.27832,-1.1132812 z M 23.993877,-3.003623 c 0.05859,-0.9667969 0.65918,-1.5966797 1.494141,-1.5966797 0.805664,0 1.435546,0.6738281 1.435546,1.5380859 0,0.014648 0,0.029297 0,0.058594 z m 4.940185,-2.2119141 v 5.21484374062 h 0.834961 V -2.7106543 c 0,-0.7470703 0.19043,-1.2304687 0.585938,-1.5234375 0.263672,-0.1904297 0.512695,-0.2490234 1.083984,-0.2636719 v -0.8349609 c -0.131836,-0.029297 -0.205078,-0.043945 -0.307617,-0.043945 -0.541992,0 -0.952148,0.3222656 -1.435547,1.0986328 v -0.9375 z m 0,0"
       style="fill:#000000;fill-opacity:1;fill-rule:nonzero;stroke:none"
       aria-label="Scatter"
       transform="matrix(1.0666667,0,0,1.0666667,376.512,135.80933)" />
    <path
       id="path42"
       d="m 49.89069,-124.72643 c 0,7.51478 -6.09176,13.60653 -13.60653,13.60653 -7.51475,0 -13.60652,-6.09175 -13.60652,-13.60653 0,-7.51475 6.09177,-13.6065 13.60652,-13.6065 7.51477,0 13.60653,6.09175 13.60653,13.6065 z"
       style="fill:#e6e6e6;fill-opacity:1;fill-rule:nonzero;stroke:#000000;stroke-width:0.3985;stroke-linecap:butt;stroke-linejoin:round;stroke-miterlimit:10;stroke-dasharray:none;stroke-opacity:1"
       transform="matrix(1.3333333,0,0,-1.3333333,-29.970667,18.408)" />
    <path
       id="path43"
       d="m 38.55386,-119.05705 h -4.53547 v -11.33873 h 4.53547 z"
       style="fill:#ff0000;fill-opacity:1;fill-rule:nonzero;stroke:none"
       transform="matrix(1.3333333,0,0,-1.3333333,-29.970667,18.408)" />
    <path
       id="path44"
       d="m 86.17488,-124.72643 c 0,7.51478 -6.09175,13.60653 -13.60651,13.60653 -7.51477,0 -13.60652,-6.09175 -13.60652,-13.60653 0,-7.51475 6.09175,-13.6065 13.60652,-13.6065 7.51476,0 13.60651,6.09175 13.60651,13.6065 z"
       style="fill:#e6e6e6;fill-opacity:1;fill-rule:nonzero;stroke:#000000;stroke-width:0.3985;stroke-linecap:butt;stroke-linejoin:round;stroke-miterlimit:10;stroke-dasharray:none;stroke-opacity:1"
       transform="matrix(1.3333333,0,0,-1.3333333,-29.970667,18.408)" />
    <path
       id="path45"
       d="m 74.83997,-119.05705 h -4.53548 v -11.33873 h 4.53548 z"
       style="fill:#fff200;fill-opacity:1;fill-rule:nonzero;stroke:none"
       transform="matrix(1.3333333,0,0,-1.3333333,-29.970667,18.408)" />
    <path
       id="path46"
       d="m 122.45908,-124.72643 c 0,7.51478 -6.09176,13.60653 -13.60653,13.60653 -7.51475,0 -13.6065,-6.09175 -13.6065,-13.60653 0,-7.51475 6.09175,-13.6065 13.6065,-13.6065 7.51477,0 13.60653,6.09175 13.60653,13.6065 z"
       style="fill:#e6e6e6;fill-opacity:1;fill-rule:nonzero;stroke:#000000;stroke-width:0.3985;stroke-linecap:butt;stroke-linejoin:round;stroke-miterlimit:10;stroke-dasharray:none;stroke-opacity:1"
       transform="matrix(1.3333333,0,0,-1.3333333,-29.970667,18.408)" />
    <path
       id="path47"
       d="m 111.12607,-119.05705 h -4.53548 v -11.33873 h 4.53548 z"
       style="fill:#00ff00;fill-opacity:1;fill-rule:nonzero;stroke:none"
       transform="matrix(1.3333333,0,0,-1.3333333,-29.970667,18.408)" />
    <path
       id="path48"
       d="m 158.74327,-124.72643 c 0,7.51478 -6.09175,13.60653 -13.60651,13.60653 -7.51476,0 -13.60652,-6.09175 -13.60652,-13.60653 0,-7.51475 6.09176,-13.6065 13.60652,-13.6065 7.51476,0 13.60651,6.09175 13.60651,13.6065 z"
       style="fill:#e6e6e6;fill-opacity:1;fill-rule:nonzero;stroke:#000000;stroke-width:0.3985;stroke-linecap:butt;stroke-linejoin:round;stroke-miterlimit:10;stroke-dasharray:none;stroke-opacity:1"
       transform="matrix(1.3333333,0,0,-1.3333333,-29.970667,18.408)" />
    <path
       id="path49"
       d="m 147.41219,-119.05705 h -4.53549 v -11.33873 h 4.53549 z"
       style="fill:#1f77b4;fill-opacity:1;fill-rule:nonzero;stroke:none"
       transform="matrix(1.3333333,0,0,-1.3333333,-29.970667,18.408)" />
    <path
       id="path50"
       d="m 104.32173,-188.2269 c 0,7.51477 -6.09175,13.60652 -13.60652,13.60652 -7.51476,0 -13.60651,-6.09175 -13.60651,-13.60652 0,-7.51475 6.09175,-13.6065 13.60651,-13.6065 7.51477,0 13.60652,6.09175 13.60652,13.6065 z"
       style="fill:#e6e6e6;fill-opacity:1;fill-rule:nonzero;stroke:#000000;stroke-width:0.3985;stroke-linecap:butt;stroke-linejoin:round;stroke-miterlimit:10;stroke-dasharray:none;stroke-opacity:1"
       transform="matrix(1.3333333,0,0,-1.3333333,-29.970667,18.408)" />
    <path
       id="path51"
       d="m 86.17969,-182.55753 h -4.53548 v -11.33873 h 4.53548 z"
       style="fill:#d62728;fill-opacity:1;fill-rule:nonzero;stroke:none"
       transform="matrix(1.3333333,0,0,-1.3333333,-29.970667,18.408)" />
    <path
       id="path52"
       d="m 90.71513,-182.55753 h -4.53547 v -11.33873 h 4.53547 z"
       style="fill:#fff200;fill-opacity:1;fill-rule:nonzero;stroke:none"
       transform="matrix(1.3333333,0,0,-1.3333333,-29.970667,18.408)" />
    <path
       id="path53"
       d="m 95.25058,-182.55753 h -4.53549 v -11.33873 h 4.53549 z"
       style="fill:#00ff00;fill-opacity:1;fill-rule:nonzero;stroke:none"
       transform="matrix(1.3333333,0,0,-1.3333333,-29.970667,18.408)" />
    <path
       id="path54"
       d="m 99.78601,-182.55753 h -4.53548 v -11.33873 h 4.53548 z"
       style="fill:#1f77b4;fill-opacity:1;fill-rule:nonzero;stroke:none"
       transform="matrix(1.3333333,0,0,-1.3333333,-29.970667,18.408)" />
    <path
       id="path55"
       d="m 78.91837,-174.46169 -33.77543,39.40447"
       style="fill:none;stroke:#000000;stroke-width:0.74721;stroke-linecap:butt;stroke-linejoin:round;stroke-miterlimit:10;stroke-dasharray:none;stroke-opacity:1"
       transform="matrix(1.3333333,0,0,-1.3333333,-29.970667,18.408)" />
    <path
       id="path56"
       d="M 4.52798,0 C 3.18633,0.25154 1.00621,1.00621 -0.5031,1.88664 V -1.88664 C 1.00621,-1.00621 3.18633,-0.25154 4.52798,0"
       style="fill:#000000;fill-opacity:1;fill-rule:nonzero;stroke:none"
       transform="matrix(0.86768,1.0122933,1.0122933,-0.86768,75.253827,251.02359)" />
    <path
       id="path57"
       d="m 85.73817,-170.79347 -9.42425,32.9839"
       style="fill:none;stroke:#000000;stroke-width:0.74721;stroke-linecap:butt;stroke-linejoin:round;stroke-miterlimit:10;stroke-dasharray:none;stroke-opacity:1"
       transform="matrix(1.3333333,0,0,-1.3333333,-29.970667,18.408)" />
    <path
       id="path58"
       d="M 4.52798,0 C 3.18633,0.25154 1.00621,1.00621 -0.5031,1.88664 V -1.88664 C 1.00621,-1.00621 3.18633,-0.25154 4.52798,0"
       style="fill:#000000;fill-opacity:1;fill-rule:nonzero;stroke:none"
       transform="matrix(0.36626667,1.2819867,1.2819867,-0.36626667,84.34688,246.13261)" />
    <path
       id="path59"
       d="m 95.70177,-170.79347 9.42427,32.9839"
       style="fill:none;stroke:#000000;stroke-width:0.74721;stroke-linecap:butt;stroke-linejoin:round;stroke-miterlimit:10;stroke-dasharray:none;stroke-opacity:1"
       transform="matrix(1.3333333,0,0,-1.3333333,-29.970667,18.408)" />
    <path
       id="path60"
       d="M 4.52798,0 C 3.18633,0.25154 1.00621,1.00621 -0.5031,1.88664 V -1.88664 C 1.00621,-1.00621 3.18633,-0.25154 4.52798,0"
       style="fill:#000000;fill-opacity:1;fill-rule:nonzero;stroke:none"
       transform="matrix(-0.36626667,1.2819867,1.2819867,0.36626667,97.631707,246.13261)" />
    <path
       id="path61"
       d="m 102.52159,-174.46169 33.77542,39.40447"
       style="fill:none;stroke:#000000;stroke-width:0.74721;stroke-linecap:butt;stroke-linejoin:round;stroke-miterlimit:10;stroke-dasharray:none;stroke-opacity:1"
       transform="matrix(1.3333333,0,0,-1.3333333,-29.970667,18.408)" />
    <path
       id="path62"
       d="M 4.52798,0 C 3.18633,0.25154 1.00621,1.00621 -0.5031,1.88664 V -1.88664 C 1.00621,-1.00621 3.18633,-0.25154 4.52798,0"
       style="fill:#000000;fill-opacity:1;fill-rule:nonzero;stroke:none"
       transform="matrix(-0.86768,1.0122933,1.0122933,0.86768,106.72479,251.02359)" />
    <path
       id="path63"
       d="M 7.0601855,-3.8378516 H 4.027959 v 0.8203125 h 2.211914 v 0.2050782 c 0,1.2890625 -0.9521484,2.22656246 -2.2705078,2.22656246 -0.7470703,0 -1.40625,-0.26367187 -1.8310547,-0.73242186 -0.4833984,-0.5273438 -0.7763671,-1.3916016 -0.7763671,-2.2851563 0,-1.7871093 1.0253906,-2.9589843 2.5488281,-2.9589843 1.1132812,0 1.9042969,0.571289 2.109375,1.508789 h 0.9375 C 6.708623,-6.5331641 5.5806934,-7.3827734 3.9254199,-7.3827734 c -0.8935547,0 -1.6113281,0.234375 -2.1679687,0.703125 -0.83496097,0.6884765 -1.3183594,1.8164062 -1.3183594,3.1201172 0,2.2412109 1.3623047,3.79394526 3.3251953,3.79394526 0.9814453,0 1.7724609,-0.38085937 2.4755859,-1.15722656 l 0.234375,0.96679688 h 0.5859375 z m 6.0241695,3.35449223 c -0.08789,0.0146484 -0.131835,0.0146484 -0.175781,0.0146484 -0.292969,0 -0.454101,-0.14648437 -0.454101,-0.41015625 V -3.9403906 c 0,-0.9375 -0.673828,-1.4355469 -1.962891,-1.4355469 -0.7617187,0 -1.3916015,0.2197266 -1.7285156,0.6152344 -0.2490234,0.2636719 -0.3369141,0.571289 -0.3662109,1.0839844 h 0.8349609 c 0.073242,-0.6298829 0.4541016,-0.9228516 1.2304686,-0.9228516 0.74707,0 1.171875,0.2783203 1.171875,0.7763672 v 0.2197265 c 0,0.3515625 -0.219726,0.4980469 -0.878906,0.5712891 -1.1718751,0.1464844 -1.3476563,0.1904297 -1.669922,0.3222656 -0.6005859,0.2490235 -0.9082031,0.7177735 -0.9082031,1.3916016 0,0.95214843 0.6445313,1.55273436 1.7138672,1.55273436 0.6445309,0 1.1718749,-0.2343749975 1.7724609,-0.77636718 0.05859,0.52734375 0.307617,0.77636718 0.849609,0.77636718 0.175782,0 0.292969,-0.0292969 0.571289,-0.0878906 z M 11.63416,-1.6405859 c 0,0.2783203 -0.08789,0.4394531 -0.336914,0.67382809 -0.336914,0.30761719 -0.74707,0.46875 -1.230469,0.46875 -0.6445309,0 -1.0253903,-0.30761719 -1.0253903,-0.83496089 0,-0.5566407 0.366211,-0.834961 1.2451173,-0.9521485 0.878906,-0.1318359 1.054687,-0.1611328 1.347656,-0.2929687 z m 4.189453,-3.5742188 h -0.864258 v -1.4355469 h -0.820312 v 1.4355469 h -0.703125 v 0.6738281 h 0.703125 v 3.94042973 c 0,0.52734375 0.351562,0.83496093 0.996094,0.83496093 0.205078,0 0.410156,-0.0292969 0.688476,-0.0732422 v -0.703125 c -0.117187,0.0292969 -0.249023,0.0439453 -0.395508,0.0439453 -0.36621,0 -0.46875,-0.10253906 -0.46875,-0.46875 V -4.5409766 h 0.864258 z m 0.9375,-2.0507812 V 3.90625e-5 h 0.820313 V -2.8857031 c 0,-1.0546875 0.55664,-1.7578125 1.420898,-1.7578125 0.263672,0 0.527344,0.087891 0.732422,0.234375 0.234375,0.1757812 0.336914,0.4248047 0.336914,0.7910156 V 3.90625e-5 h 0.820313 V -3.9403906 c 0,-0.8789063 -0.615235,-1.4355469 -1.640625,-1.4355469 -0.732422,0 -1.186524,0.234375 -1.669922,0.8789063 v -2.7685547 z m 9.949951,4.9365234 c 0,-0.8056641 -0.05859,-1.2744141 -0.205078,-1.6699219 -0.351562,-0.8496093 -1.142578,-1.3769531 -2.124023,-1.3769531 -1.450195,0 -2.387695,1.1279297 -2.387695,2.8417969 0,1.71386716 0.908203,2.76855466 2.373046,2.76855466 1.201172,0 2.021485,-0.68847656 2.226563,-1.81640626 h -0.834961 c -0.219727,0.68847658 -0.688477,1.04003908 -1.362305,1.04003908 -0.527343,0 -0.981445,-0.234375 -1.259765,-0.67382808 -0.19043,-0.2929688 -0.263672,-0.600586 -0.278321,-1.1132813 z m -3.823242,-0.6738281 c 0.05859,-0.9667969 0.65918,-1.5966797 1.494141,-1.5966797 0.805664,0 1.435547,0.6738281 1.435547,1.5380859 0,0.014648 0,0.029297 0,0.058594 z m 4.940186,-2.2119141 V 3.90625e-5 h 0.834961 V -2.7099219 c 0,-0.7470703 0.190429,-1.2304687 0.585937,-1.5234375 0.263672,-0.1904297 0.512696,-0.2490234 1.083985,-0.2636718 v -0.834961 c -0.131836,-0.029297 -0.205078,-0.043945 -0.307618,-0.043945 -0.541992,0 -0.952148,0.3222656 -1.435546,1.0986328 v -0.9375 z m 0,0"
       style="fill:#000000;fill-opacity:1;fill-rule:nonzero;stroke:none"
       aria-label="Gather"
       transform="matrix(1.0666667,0,0,1.0666667,74.738667,302.10933)" />
    <path
       id="path64"
       d="m 276.66602,-124.72643 c 0,7.51478 -6.09176,13.60653 -13.60652,13.60653 -7.51476,0 -13.60651,-6.09175 -13.60651,-13.60653 0,-7.51475 6.09175,-13.6065 13.60651,-13.6065 7.51476,0 13.60652,6.09175 13.60652,13.6065 z"
       style="fill:#e6e6e6;fill-opacity:1;fill-rule:nonzero;stroke:#000000;stroke-width:0.3985;stroke-linecap:butt;stroke-linejoin:round;stroke-miterlimit:10;stroke-dasharray:none;stroke-opacity:1"
       transform="matrix(1.3333333,0,0,-1.3333333,-29.970667,18.408)" />
    <path
       id="path65"
       d="M 3.0894727,-6.0357813 V -6.25e-4 H 4.1441602 V -8.4820703 H 3.4556836 c -0.3662109,1.3037109 -0.6152344,1.4941406 -2.2412109,1.6992187 v 0.7470703 z m 0,0"
       style="fill:#000000;fill-opacity:1;fill-rule:nonzero;stroke:none"
       aria-label="1"
       transform="matrix(1.0666667,0,0,1.0666667,317.228,189.25067)" />
    <path
       id="path66"
       d="m 312.95021,-124.72643 c 0,7.51478 -6.09175,13.60653 -13.60651,13.60653 -7.51477,0 -13.60652,-6.09175 -13.60652,-13.60653 0,-7.51475 6.09175,-13.6065 13.60652,-13.6065 7.51476,0 13.60651,6.09175 13.60651,13.6065 z"
       style="fill:#e6e6e6;fill-opacity:1;fill-rule:nonzero;stroke:#000000;stroke-width:0.3985;stroke-linecap:butt;stroke-linejoin:round;stroke-miterlimit:10;stroke-dasharray:none;stroke-opacity:1"
       transform="matrix(1.3333333,0,0,-1.3333333,-29.970667,18.408)" />
    <path
       id="path67"
       d="m 2.6367578,-3.8808105 h 0.131836 l 0.4541015,-0.014648 c 1.1572266,0 1.7431641,0.5273438 1.7431641,1.538086 0,1.0693359 -0.6445313,1.6992187 -1.7431641,1.6992187 -1.1572265,0 -1.7138672,-0.5712891 -1.7871094,-1.8017578 H 0.38089844 c 0.0439453,0.6738281 0.17578125,1.1279297 0.36621094,1.50878905 C 1.1865625,-0.14545898 2.0215234,0.2793457 3.17875,0.2793457 c 1.7431641,0 2.8710938,-1.04003906 2.8710938,-2.6513672 0,-1.0693359 -0.4248047,-1.6699219 -1.4355469,-2.0068359 0.7910156,-0.3222656 1.1865234,-0.9082031 1.1865234,-1.7578125 0,-1.4648438 -0.9667969,-2.34375 -2.578125,-2.34375 -1.7138672,0 -2.6220703,0.9375 -2.66601561,2.7392578 H 1.6113672 c 0.014648,-0.5126953 0.058594,-0.7910156 0.1904297,-1.0546875 0.2490234,-0.46875 0.7617187,-0.7617188 1.4208984,-0.7617188 0.9375,0 1.4941406,0.5566407 1.4941406,1.4501954 0,0.6005859 -0.2050781,0.9521484 -0.6738281,1.1425781 -0.2929687,0.1318359 -0.6591797,0.1757812 -1.40625,0.1904297 z m 0,0"
       style="fill:#000000;fill-opacity:1;fill-rule:nonzero;stroke:none"
       aria-label="3"
       transform="matrix(1.0666667,0,0,1.0666667,365.60933,189.12)" />
    <path
       id="path68"
       d="m 349.2344,-124.72643 c 0,7.51478 -6.09175,13.60653 -13.60652,13.60653 -7.51475,0 -13.6065,-6.09175 -13.6065,-13.60653 0,-7.51475 6.09175,-13.6065 13.6065,-13.6065 7.51477,0 13.60652,6.09175 13.60652,13.6065 z"
       style="fill:#e6e6e6;fill-opacity:1;fill-rule:nonzero;stroke:#000000;stroke-width:0.3985;stroke-linecap:butt;stroke-linejoin:round;stroke-miterlimit:10;stroke-dasharray:none;stroke-opacity:1"
       transform="matrix(1.3333333,0,0,-1.3333333,-29.970667,18.408)" />
    <path
       id="path69"
       d="M 5.6826074,-8.481748 H 1.317373 L 0.68749023,-3.8674902 H 1.6542871 c 0.4833984,-0.5859375 0.8935547,-0.7763672 1.5527344,-0.7763672 1.1279297,0 1.8457031,0.7763672 1.8457031,2.0214844 0,1.2304687 -0.703125,1.96289058 -1.8457031,1.96289058 -0.9228516,0 -1.4794922,-0.46874998 -1.7431641,-1.42089848 H 0.42381836 c 0.13183594,0.6884766 0.26367187,1.0253907 0.51269531,1.33300785 0.46875003,0.64453125 1.33300783,1.02539063 2.28515623,1.02539063 1.7138672,0 2.9150391,-1.24511719 2.9150391,-3.03222658 0,-1.6845703 -1.1132813,-2.8271484 -2.7392578,-2.8271484 -0.600586,0 -1.0839844,0.1611328 -1.5673828,0.5126953 l 0.336914,-2.3730469 h 3.515625 z m 0,0"
       style="fill:#000000;fill-opacity:1;fill-rule:nonzero;stroke:none"
       aria-label="5"
       transform="matrix(1.0666667,0,0,1.0666667,413.98933,188.90267)" />
    <path
       id="path70"
       d="m 385.5186,-124.72643 c 0,7.51478 -6.09175,13.60653 -13.6065,13.60653 -7.51478,0 -13.60653,-6.09175 -13.60653,-13.60653 0,-7.51475 6.09175,-13.6065 13.60653,-13.6065 7.51475,0 13.6065,6.09175 13.6065,13.6065 z"
       style="fill:#e6e6e6;fill-opacity:1;fill-rule:nonzero;stroke:#000000;stroke-width:0.3985;stroke-linecap:butt;stroke-linejoin:round;stroke-miterlimit:10;stroke-dasharray:none;stroke-opacity:1"
       transform="matrix(1.3333333,0,0,-1.3333333,-29.970667,18.408)" />
    <path
       id="path71"
       d="M 6.2113379,-8.4797363 H 0.55704102 v 1.040039 H 5.1273535 C 3.1058691,-4.5539551 2.2855566,-2.7814941 1.6556738,0.00170898 H 2.7689551 C 3.2377051,-2.708252 4.307041,-5.0373535 6.2113379,-7.5861816 Z m 0,0"
       style="fill:#000000;fill-opacity:1;fill-rule:nonzero;stroke:none"
       aria-label="7"
       transform="matrix(1.0666667,0,0,1.0666667,462.37067,189.03333)" />
    <path
       id="path72"
       d="m 331.09706,-188.2269 c 0,7.51477 -6.09175,13.60652 -13.60652,13.60652 -7.51476,0 -13.60651,-6.09175 -13.60651,-13.60652 0,-7.51475 6.09175,-13.6065 13.60651,-13.6065 7.51477,0 13.60652,6.09175 13.60652,13.6065 z"
       style="fill:#e6e6e6;fill-opacity:1;fill-rule:nonzero;stroke:#000000;stroke-width:0.3985;stroke-linecap:butt;stroke-linejoin:round;stroke-miterlimit:10;stroke-dasharray:none;stroke-opacity:1"
       transform="matrix(1.3333333,0,0,-1.3333333,-29.970667,18.408)" />
    <path
       id="path73"
       d="m 3.0901074,-6.0365723 v 6.03515628 H 4.1447949 V -8.4828613 H 3.4563184 c -0.366211,1.3037109 -0.6152344,1.4941406 -2.241211,1.6992187 v 0.7470703 z m 9.5031736,-0.234375 c -0.205078,-1.3769531 -1.113281,-2.211914 -2.402344,-2.211914 -0.9228511,0 -1.757812,0.4541015 -2.2705073,1.2158203 -0.5273438,0.8203125 -0.7617188,1.8603515 -0.7617188,3.3984375 0,1.4355469 0.2197266,2.34375 0.7177735,3.0908203 0.4541015,0.67382812 1.2011718,1.0546875 2.1240236,1.0546875 1.611328,0 2.783203,-1.20117188 2.783203,-2.8564453 0,-1.5820313 -1.083984,-2.6953125 -2.592774,-2.6953125 -0.8496089,0 -1.4941401,0.3222656 -1.9482417,0.9521484 0,-2.0800781 0.6738281,-3.2226562 1.8749997,-3.2226562 0.747071,0 1.259766,0.46875 1.435547,1.274414 z m -2.534179,1.9335938 c 1.010742,0 1.640625,0.703125 1.640625,1.8310547 0,1.0693359 -0.717774,1.8457031 -1.684571,1.8457031 -0.9814451,0 -1.7138669,-0.8056641 -1.7138669,-1.9042969 0,-1.040039 0.7177734,-1.7724609 1.7578129,-1.7724609 z m 0,0"
       style="fill:#000000;fill-opacity:1;fill-rule:nonzero;stroke:none"
       aria-label="16"
       transform="matrix(1.0666667,0,0,1.0666667,386.25467,273.78667)" />
    <path
       id="path74"
       d="m 305.6937,-174.46169 -33.77541,39.40447"
       style="fill:none;stroke:#000000;stroke-width:0.74721;stroke-linecap:butt;stroke-linejoin:round;stroke-miterlimit:10;stroke-dasharray:none;stroke-opacity:1"
       transform="matrix(1.3333333,0,0,-1.3333333,-29.970667,18.408)" />
    <path
       id="path75"
       d="M 4.52798,0 C 3.18633,0.25154 1.00621,1.00621 -0.5031,1.88664 V -1.88664 C 1.00621,-1.00621 3.18633,-0.25154 4.52798,0"
       style="fill:#000000;fill-opacity:1;fill-rule:nonzero;stroke:none"
       transform="matrix(0.86768,1.0122933,1.0122933,-0.86768,377.62093,251.02359)" />
    <path
       id="path76"
       d="m 312.5135,-170.79347 -9.42422,32.9839"
       style="fill:none;stroke:#000000;stroke-width:0.74721;stroke-linecap:butt;stroke-linejoin:round;stroke-miterlimit:10;stroke-dasharray:none;stroke-opacity:1"
       transform="matrix(1.3333333,0,0,-1.3333333,-29.970667,18.408)" />
    <path
       id="path77"
       d="M 4.52798,0 C 3.18633,0.25154 1.00621,1.00621 -0.5031,1.88664 V -1.88664 C 1.00621,-1.00621 3.18633,-0.25154 4.52798,0"
       style="fill:#000000;fill-opacity:1;fill-rule:nonzero;stroke:none"
       transform="matrix(0.36626667,1.2819867,1.2819867,-0.36626667,386.71399,246.13261)" />
    <path
       id="path78"
       d="m 322.47711,-170.79347 9.42426,32.9839"
       style="fill:none;stroke:#000000;stroke-width:0.74721;stroke-linecap:butt;stroke-linejoin:round;stroke-miterlimit:10;stroke-dasharray:none;stroke-opacity:1"
       transform="matrix(1.3333333,0,0,-1.3333333,-29.970667,18.408)" />
    <path
       id="path79"
       d="M 4.52798,0 C 3.18633,0.25154 1.00621,1.00621 -0.5031,1.88664 V -1.88664 C 1.00621,-1.00621 3.18633,-0.25154 4.52798,0"
       style="fill:#000000;fill-opacity:1;fill-rule:nonzero;stroke:none"
       transform="matrix(-0.36626667,1.2819867,1.2819867,0.36626667,399.99884,246.13261)" />
    <path
       id="path80"
       d="m 329.29692,-174.46169 33.77544,39.40447"
       style="fill:none;stroke:#000000;stroke-width:0.74721;stroke-linecap:butt;stroke-linejoin:round;stroke-miterlimit:10;stroke-dasharray:none;stroke-opacity:1"
       transform="matrix(1.3333333,0,0,-1.3333333,-29.970667,18.408)" />
    <path
       id="path81"
       d="M 4.52798,0 C 3.18633,0.25154 1.00621,1.00621 -0.5031,1.88664 V -1.88664 C 1.00621,-1.00621 3.18633,-0.25154 4.52798,0"
       style="fill:#000000;fill-opacity:1;fill-rule:nonzero;stroke:none"
       transform="matrix(-0.86768,1.0122933,1.0122933,0.86768,409.09189,251.02359)" />
    <path
       id="path82"
       d="m 1.847373,-3.1330273 h 2.4023438 c 0.8203125,0 1.1865234,0.4101562 1.1865234,1.3037109 v 0.6445312 c 0,0.45410161 0.073242,0.89355473 0.2050782,1.18652348 H 6.769248 v -0.234375 C 6.4176855,-0.46701172 6.3444434,-0.73068359 6.3297949,-1.6974805 6.3151465,-2.8840039 6.1247168,-3.2502148 5.3337012,-3.5871289 6.1540137,-3.9826367 6.4909277,-4.495332 6.4909277,-5.3156445 c 0,-1.2597657 -0.7910156,-1.9482422 -2.211914,-1.9482422 H 0.92452148 V 0.00173828 H 1.847373 Z m 0,-0.8056641 v -2.5048828 h 2.241211 c 0.5273437,0 0.8203125,0.073242 1.0546875,0.2783203 0.2490234,0.2050781 0.3808594,0.5419922 0.3808594,0.9814453 0,0.8496094 -0.4394532,1.2451172 -1.4355469,1.2451172 z m 10.458984,1.6113281 c 0,-0.805664 -0.05859,-1.274414 -0.205078,-1.6699219 -0.351562,-0.8496093 -1.142578,-1.3769531 -2.1240231,-1.3769531 -1.4501954,0 -2.3876954,1.1279297 -2.3876954,2.8417969 0,1.71386718 0.9082032,2.76855468 2.3730469,2.76855468 1.2011716,0 2.0214846,-0.68847656 2.2265626,-1.81640628 h -0.834961 c -0.219727,0.68847659 -0.688477,1.04003909 -1.3623047,1.04003909 -0.5273438,0 -0.9814453,-0.234375 -1.2597656,-0.67382809 C 8.541709,-1.5070508 8.4684668,-1.814668 8.4538184,-2.3273633 Z M 8.4831152,-3.0011914 c 0.058594,-0.9667969 0.6591797,-1.5966797 1.4941407,-1.5966797 0.8056641,0 1.4355471,0.6738281 1.4355471,1.5380859 0,0.014648 0,0.029297 0,0.058594 z m 9.1845708,-4.2626953 h -0.834961 v 2.7099609 c -0.351563,-0.5273437 -0.908204,-0.8203125 -1.59668,-0.8203125 -1.362305,0 -2.241211,1.0986328 -2.241211,2.7539063 0,1.77246091 0.864258,2.85644528 2.270508,2.85644528 0.717773,0 1.21582,-0.27832031 1.655273,-0.92285156 v 0.68847656 h 0.747071 z m -2.299805,2.680664 c 0.893555,0 1.464844,0.7910157 1.464844,2.0361329 0,1.2011718 -0.571289,2.00683589 -1.450196,2.00683589 -0.922851,0 -1.523437,-0.80566409 -1.523437,-2.02148439 0,-1.2158203 0.600586,-2.0214844 1.508789,-2.0214844 z m 7.70874,4.58496098 V -5.2131055 H 22.24166 v 2.9589844 c 0,1.0546875 -0.55664,1.75781251 -1.420898,1.75781251 -0.65918,0 -1.069336,-0.39550782 -1.069336,-1.02539061 v -3.6914063 h -0.834961 v 4.0136719 c 0,0.87890626 0.644531,1.43554688 1.669922,1.43554688 0.761718,0 1.245117,-0.27832031 1.743164,-0.96679687 v 0.73242187 z m 5.419922,-3.47167968 c -0.0293,-0.4980469 -0.146484,-0.8349609 -0.351563,-1.1132813 -0.351562,-0.4980468 -0.981445,-0.7910156 -1.699218,-0.7910156 -1.40625,0 -2.329102,1.1279297 -2.329102,2.8564453 0,1.68457034 0.893555,2.75390628 2.314453,2.75390628 1.245117,0 2.036133,-0.74707031 2.124024,-2.02148438 h -0.834961 c -0.131836,0.83496094 -0.571289,1.24511719 -1.274414,1.24511719 -0.908203,0 -1.464844,-0.74707029 -1.464844,-1.97753909 0,-1.3037109 0.541992,-2.0800781 1.450195,-2.0800781 0.688477,0 1.12793,0.4101563 1.230469,1.1279297 z m 2.830811,-1.7431641 h -0.864258 v -1.4355468 h -0.820313 v 1.4355468 h -0.703125 v 0.6738282 h 0.703125 v 3.94042964 c 0,0.52734375 0.351563,0.83496094 0.996094,0.83496094 0.205078,0 0.410156,-0.0292969 0.688477,-0.0732422 v -0.703125 c -0.117188,0.0292969 -0.249024,0.0439453 -0.395508,0.0439453 -0.366211,0 -0.46875,-0.10253907 -0.46875,-0.46875 V -4.5392773 h 0.864258 z m 1.728515,0 h -0.820312 v 5.21484378 h 0.820312 z m 0,-2.0507812 h -0.834961 v 1.0546875 h 0.834961 z m 3.427735,1.8896484 c -1.464844,0 -2.358399,1.0546875 -2.358399,2.8125 0,1.74316408 0.878906,2.79785158 2.373047,2.79785158 1.464844,0 2.358398,-1.0546875 2.358398,-2.76855468 0,-1.8017578 -0.864257,-2.8417969 -2.373046,-2.8417969 z m 0.01465,0.7763672 c 0.9375,0 1.494141,0.7617188 1.494141,2.0654297 0,1.2158203 -0.585938,1.99218749 -1.494141,1.99218749 -0.9375,0 -1.494141,-0.76171879 -1.494141,-2.02148439 0,-1.2597656 0.556641,-2.0361328 1.494141,-2.0361328 z m 3.515625,-0.6152344 V 0.00173828 H 40.84884 V -2.8840039 c 0,-1.0546875 0.556641,-1.7578125 1.40625,-1.7578125 0.65918,0 1.083984,0.3955078 1.083984,1.0253906 v 3.61816408 h 0.820313 V -3.9386914 c 0,-0.8642578 -0.644531,-1.4355469 -1.655274,-1.4355469 -0.776367,0 -1.274414,0.3076172 -1.728515,1.0400391 v -0.8789063 z m 0,0"
       style="fill:#000000;fill-opacity:1;fill-rule:nonzero;stroke:none"
       aria-label="Reduction"
       transform="matrix(1.0666667,0,0,1.0666667,369.424,301.86533)" />
  </g>
</svg>
