<?xml version="1.0" encoding="UTF-8" standalone="no"?>
<!-- Created with Inkscape (http://www.inkscape.org/) -->

<svg
   version="1.1"
   id="svg1"
   width="333.76932"
   height="178.34132"
   viewBox="0 0 333.76932 178.34132"
   xmlns="http://www.w3.org/2000/svg"
   xmlns:svg="http://www.w3.org/2000/svg">
  <defs
     id="defs1" />
  <g
     id="g1">
    <path
       id="path1"
       d="M 0,-2.83472 V 0 M 56.81891,-2.83472 V 0 m 56.81891,-2.83472 V 0 m 56.81892,-2.83472 V 0"
       style="fill:none;stroke:#000000;stroke-width:0.3985;stroke-linecap:butt;stroke-linejoin:miter;stroke-miterlimit:10;stroke-dasharray:none;stroke-opacity:1"
       transform="matrix(1.2,0,0,-1.2,87.84,157.56933)" />
    <path
       id="path2"
       d="m -36.92572,0 h 2.83492 m -2.83492,17.45491 h 2.83492 m -2.83492,17.45491 h 2.83492 m -2.83492,17.45491 h 2.83492 m -2.83492,17.45491 h 2.83492 m -2.83492,17.45491 h 2.83492 m -2.83492,17.45491 h 2.83492 m -2.83492,17.45491 h 2.83492"
       style="fill:none;stroke:#000000;stroke-width:0.3985;stroke-linecap:butt;stroke-linejoin:miter;stroke-miterlimit:10;stroke-dasharray:none;stroke-opacity:1"
       transform="matrix(1.2,0,0,-1.2,87.84,157.56933)" />
    <path
       id="path3"
       d="M -34.0908,0 H 199.88507"
       style="fill:none;stroke:#000000;stroke-width:0.79701;stroke-linecap:butt;stroke-linejoin:miter;stroke-miterlimit:10;stroke-dasharray:none;stroke-opacity:1"
       transform="matrix(1.2,0,0,-1.2,87.84,157.56933)" />
    <path
       id="path4"
       d="M 4.66248,0 C 3.28098,0.25902 1.0361,1.0361 -0.51805,1.94269 V -1.94269 C 1.0361,-1.0361 3.28098,-0.25902 4.66248,0"
       style="fill:#000000;fill-opacity:1;fill-rule:nonzero;stroke:none"
       transform="matrix(1.2,0,0,-1.2,327.70208,157.56933)" />
    <path
       id="path5"
       d="M -34.0908,0 V 126.24936"
       style="fill:none;stroke:#000000;stroke-width:0.79701;stroke-linecap:butt;stroke-linejoin:miter;stroke-miterlimit:10;stroke-dasharray:none;stroke-opacity:1"
       transform="matrix(1.2,0,0,-1.2,87.84,157.56933)" />
    <path
       id="path6"
       d="M 4.66248,0 C 3.28098,0.25902 1.0361,1.0361 -0.51805,1.94269 V -1.94269 C 1.0361,-1.0361 3.28098,-0.25902 4.66248,0"
       style="fill:#000000;fill-opacity:1;fill-rule:nonzero;stroke:none"
       transform="matrix(0,-1.2,-1.2,0,46.93104,6.0701013)" />
    <path
       id="path7"
       d="m 4.7519427,-4.0999497 c -0.013021,-1.1458333 -0.7942708,-1.796875 -2.1354167,-1.796875 -1.2760416,0 -2.05729163,0.6510417 -2.05729163,1.6927084 0,0.7161458 0.37760417,1.1588541 1.13281253,1.3671875 l 1.4453125,0.3776041 c 0.7291666,0.1953125 1.0677083,0.4817709 1.0677083,0.9375 0,0.3125 -0.1692708,0.62500005 -0.4166667,0.80729171 -0.2213541,0.15625 -0.5989583,0.24739584 -1.0677083,0.24739584 -0.625,0 -1.0546875,-0.15625 -1.3411458,-0.48177084 C 1.1712135,-1.2093247 1.0800677,-1.4827622 1.0800677,-1.8473455 H 0.37694271 c 0.0130208,0.5338542 0.1171875,0.88541668 0.3515625,1.19791668 0.39062499,0.546875 1.06770829,0.83333333 1.95312499,0.83333333 0.6901042,0 1.25,-0.15625 1.6276042,-0.44270833 0.390625,-0.3125 0.6380208,-0.83333338 0.6380208,-1.32812498 0,-0.7161459 -0.4427083,-1.25 -1.2369792,-1.4583334 l -1.4583333,-0.390625 c -0.703125,-0.1953125 -0.9505208,-0.4166666 -0.9505208,-0.859375 0,-0.5989583 0.5208333,-0.9895833 1.3020833,-0.9895833 0.9244792,0 1.4322917,0.4296875 1.4453125,1.1848958 z m 1.7610677,-0.078125 H 5.8489479 v 4.17968755 h 0.6640625 z m 0,-1.6276041 H 5.8359271 v 0.8333333 h 0.6770833 z m 3.8541666,1.6276041 v 0.6119792 c -0.338542,-0.4947917 -0.7421874,-0.7291667 -1.2760416,-0.7291667 -1.0546875,0 -1.7708333,0.9244792 -1.7708333,2.2786459 0,0.6901041 0.1822916,1.24999998 0.5208333,1.64062498 0.3125,0.3515625 0.7552083,0.55989583 1.1979167,0.55989583 0.5208333,0 0.8854166,-0.22135416 1.2630209,-0.7421875 v 0.20833334 c 0,0.57291666 -0.0651,0.91145833 -0.234375,1.14583333 C 9.8854062,1.0432795 9.5468646,1.1865087 9.1432187,1.1865087 c -0.2994791,0 -0.5729166,-0.091146 -0.7552083,-0.23437502 -0.15625,-0.1171875 -0.2213542,-0.22135417 -0.2604167,-0.46875 H 7.4505104 c 0.078125,0.78125002 0.6901042,1.25000002 1.6666667,1.25000002 0.625,0 1.1588539,-0.1953125 1.4322919,-0.5338542 0.3125,-0.37760415 0.429687,-0.89843749 0.429687,-1.88802082 V -4.1780747 Z M 9.1692604,-3.683283 c 0.7161458,0 1.1328126,0.6119792 1.1328126,1.6536458 0,0.9895834 -0.4296876,1.60156255 -1.1328126,1.60156255 -0.7161458,0 -1.1588542,-0.61197915 -1.1588542,-1.62760415 0,-1.0026042 0.4427084,-1.6276042 1.1588542,-1.6276042 z m 2.9069006,-0.4947917 v 4.17968755 h 0.664063 V -2.6155747 c 0,-0.6119791 0.442708,-1.09375 0.989583,-1.09375 0.481771,0 0.768229,0.2994792 0.768229,0.8333334 v 2.87760415 h 0.664063 V -2.6155747 c 0,-0.6119791 0.442708,-1.09375 0.989583,-1.09375 0.481771,0 0.768229,0.3125 0.768229,0.8333334 v 2.87760415 h 0.664063 V -3.136408 c 0,-0.7421875 -0.429688,-1.1588542 -1.210938,-1.1588542 -0.559895,0 -0.885416,0.1692709 -1.276041,0.6380209 -0.247396,-0.4427084 -0.585938,-0.6380209 -1.132813,-0.6380209 -0.546875,0 -0.911458,0.2083334 -1.276041,0.7161459 v -0.5989584 z m 8.242188,-0.1171875 c -1.171875,0 -1.875,0.8333334 -1.875,2.2395834 0,1.40624998 0.703125,2.23958331 1.888021,2.23958331 1.171875,0 1.888021,-0.83333333 1.888021,-2.20052081 0,-1.4453125 -0.690105,-2.2786459 -1.901042,-2.2786459 z m 0.01302,0.6119792 c 0.755208,0 1.197916,0.6119792 1.197916,1.6536458 0,0.9765625 -0.46875,1.60156255 -1.197916,1.60156255 -0.742188,0 -1.197917,-0.61197915 -1.197917,-1.62760415 0,-1.0026042 0.455729,-1.6276042 1.197917,-1.6276042 z m 3.453776,-0.4947917 h -0.664063 v 4.17968755 h 0.664063 z m 0,-1.6276041 h -0.677084 v 0.8333333 h 0.677084 z m 4.518229,0 h -0.664063 v 2.1614583 c -0.273437,-0.4296875 -0.729166,-0.6510417 -1.276041,-0.6510417 -1.09375,0 -1.796875,0.8723959 -1.796875,2.2005209 0,1.40624998 0.690104,2.27864581 1.809896,2.27864581 0.585937,0 0.976562,-0.20833333 1.341145,-0.72916666 v 0.546875 h 0.585938 z m -1.835938,2.1354166 c 0.716146,0 1.171875,0.6380209 1.171875,1.6276042 0,0.9635417 -0.455729,1.60156251 -1.158854,1.60156251 -0.742187,0 -1.223958,-0.63802081 -1.223958,-1.61458331 0,-0.9765625 0.481771,-1.6145834 1.210937,-1.6145834 z m 0,0"
       style="fill:#000000;fill-opacity:1;fill-rule:nonzero;stroke:none"
       aria-label="Sigmoid"
       transform="matrix(1.2,0,0,1.2,70.5672,172.22853)" />
    <path
       id="path8"
       d="M 2.8265365,-5.157184 H 4.7275781 V -5.8082257 H 0.17028646 V -5.157184 H 2.084349 v 5.15624997222 h 0.7421875 z m 5.345052,4.76562497 c -0.065104,0.0130208 -0.1041666,0.0130208 -0.1432291,0.0130208 -0.2213542,0 -0.3515625,-0.1171875 -0.3515625,-0.32552084 V -3.1519757 c 0,-0.7421875 -0.546875,-1.1458333 -1.5755209,-1.1458333 -0.5989583,0 -1.1067708,0.1822916 -1.3802083,0.4817708 -0.1953125,0.2213542 -0.2734375,0.4557292 -0.2864583,0.8723958 h 0.6640625 c 0.052083,-0.5078125 0.3645833,-0.7421875 0.9765625,-0.7421875 0.5989583,0 0.9375,0.2213542 0.9375,0.625 v 0.1692709 c 0,0.2864583 -0.1692709,0.4036458 -0.6901042,0.46875 -0.9375,0.1171875 -1.0807292,0.15625 -1.3411458,0.2604166 -0.4817709,0.1953125 -0.7291667,0.5729167 -0.7291667,1.1067709 0,0.75520831 0.5208333,1.23697914 1.3671875,1.23697914 0.5208333,0 0.9505208,-0.18229166778 1.4192708,-0.61197917 0.052083,0.41666667 0.2473959,0.61197917 0.6901042,0.61197917 0.1302083,0 0.234375,-0.0130208 0.4427083,-0.0651042 z M 7.0127344,-1.3160382 c 0,0.2213542 -0.065104,0.36458334 -0.2604167,0.54687501 -0.2734375,0.24739583 -0.5989583,0.36458333 -0.9895833,0.36458333 -0.5208334,0 -0.8203125,-0.24739583 -0.8203125,-0.66406254 0,-0.4427083 0.2994791,-0.6640625 1.0026041,-0.7682291 0.703125,-0.091146 0.8463542,-0.1302084 1.0677084,-0.234375 z m 1.891276,-2.8645833 V -9.3402778e-4 H 9.5680729 V -2.3056215 c 0,-0.8463542 0.4557291,-1.40625 1.1328121,-1.40625 0.533855,0 0.859375,0.3125 0.859375,0.8203125 v 2.89062497222 h 0.664063 V -3.1519757 c 0,-0.703125 -0.520833,-1.1458333 -1.328125,-1.1458333 -0.611979,0 -1.0156251,0.234375 -1.3802084,0.8203125 v -0.703125 z m 4.4335936,-1.6276042 v 5.80729167222 h 0.664063 V -2.3056215 c 0,-0.8463542 0.442708,-1.40625 1.132812,-1.40625 0.208333,0 0.429688,0.065104 0.585938,0.1822916 0.195312,0.1432292 0.273437,0.3385417 0.273437,0.6380209 v 2.89062497222 h 0.651042 V -3.1519757 c 0,-0.703125 -0.494792,-1.1458333 -1.315104,-1.1458333 -0.585938,0 -0.9375,0.1822916 -1.328125,0.6901041 v -2.2005208 z m 0,0"
       style="fill:#000000;fill-opacity:1;fill-rule:nonzero;stroke:none"
       aria-label="Tanh"
       transform="matrix(1.2,0,0,1.2,145.698,172.00893)" />
    <path
       id="path9"
       d="m 1.4837656,-2.500934 h 1.9140625 c 0.6640625,0 0.9505209,0.3125 0.9505209,1.0286458 v 0.52083334 c 0,0.36458333 0.052083,0.71614583 0.15625,0.95052083222 H 5.4160573 V -0.18322569 C 5.129599,-0.37853819 5.0775156,-0.58687153 5.0644948,-1.3551007 5.051474,-2.3056215 4.895224,-2.6051007 4.270224,-2.8655174 4.9212656,-3.1910382 5.1816823,-3.594684 5.1816823,-4.2587465 c 0,-1.0026042 -0.625,-1.5494792 -1.7578125,-1.5494792 H 0.74157812 V -9.3402778e-4 H 1.4837656 Z m 0,-0.6510417 V -5.157184 h 1.796875 c 0.4036459,0 0.6510417,0.065104 0.8333334,0.2213541 0.1953125,0.1692709 0.2994791,0.4296875 0.2994791,0.78125 0,0.6901042 -0.3515625,1.0026042 -1.1328125,1.0026042 z m 8.359375,1.2890625 c 0,-0.6380208 -0.052083,-1.0286458 -0.1692708,-1.328125 C 9.4004323,-3.8811424 8.7624115,-4.297809 7.9811615,-4.297809 c -1.1588542,0 -1.9140625,0.8984375 -1.9140625,2.265625 0,1.36718747 0.7291666,2.21354164 1.9010416,2.21354164 0.9635417,0 1.6145834,-0.546875 1.7838542,-1.44531254 H 9.0879323 c -0.1822917,0.54687504 -0.5598958,0.83333337 -1.09375,0.83333337 -0.4166667,0 -0.78125,-0.1953125 -1.0026042,-0.546875 C 6.8353281,-1.2118715 6.770224,-1.4462465 6.770224,-1.8629132 Z m -3.0598958,-0.546875 c 0.052083,-0.7682292 0.5208333,-1.2760417 1.1979167,-1.2760417 0.6510416,0 1.1458333,0.546875 1.1458333,1.2369792 0,0.013021 0,0.026042 0,0.039063 z m 4.7819012,-3.3984375 h -0.742188 v 5.80729167222 h 3.606771 V -0.65197569 h -2.864583 z m 7.454427,0 v 4.0755208 c 0,0.78125004 -0.572917,1.26302087 -1.497396,1.26302087 -0.429687,0 -0.78125,-0.10416666 -1.067708,-0.29947916 C 16.16801,-0.99051736 16.037802,-1.2899965 16.037802,-1.7327049 v -4.0755208 h -0.742187 v 4.0755208 c 0,1.18489587 0.846354,1.91406254 2.226562,1.91406254 1.354167,0 2.239583,-0.7421875 2.239583,-1.91406254 v -4.0755208 z m 0,0"
       style="fill:#000000;fill-opacity:1;fill-rule:nonzero;stroke:none"
       aria-label="ReLU"
       transform="matrix(1.2,0,0,1.2,211.9812,172.00893)" />
    <path
       id="path10"
       d="m 4.7510625,-4.0999497 c -0.013021,-1.1458333 -0.7942708,-1.796875 -2.1354167,-1.796875 -1.2760416,0 -2.05729163,0.6510417 -2.05729163,1.6927084 0,0.7161458 0.37760416,1.1588541 1.13281253,1.3671875 l 1.4453125,0.3776041 c 0.7291666,0.1953125 1.0677083,0.4817709 1.0677083,0.9375 0,0.3125 -0.1692708,0.62500005 -0.4166667,0.80729171 -0.2213541,0.15625 -0.5989583,0.24739584 -1.0677083,0.24739584 -0.625,0 -1.0546875,-0.15625 -1.3411458,-0.48177084 C 1.1703333,-1.2093247 1.0791875,-1.4827622 1.0791875,-1.8473455 h -0.703125 c 0.0130208,0.5338542 0.1171875,0.88541668 0.3515625,1.19791668 0.390625,0.546875 1.0677083,0.83333333 1.953125,0.83333333 0.6901042,0 1.25,-0.15625 1.6276042,-0.44270833 0.390625,-0.3125 0.6380208,-0.83333338 0.6380208,-1.32812498 0,-0.7161459 -0.4427083,-1.25 -1.2369792,-1.4583334 l -1.4583333,-0.390625 c -0.703125,-0.1953125 -0.9505208,-0.4166666 -0.9505208,-0.859375 0,-0.5989583 0.5208333,-0.9895833 1.3020833,-0.9895833 0.9244792,0 1.4322917,0.4296875 1.4453125,1.1848958 z m 2.7278646,-0.1953125 c -1.171875,0 -1.875,0.8333334 -1.875,2.2395834 0,1.40624998 0.703125,2.23958331 1.8880208,2.23958331 1.171875,0 1.8880208,-0.83333333 1.8880208,-2.20052081 0,-1.4453125 -0.6901041,-2.2786459 -1.9010416,-2.2786459 z m 0.013021,0.6119792 c 0.7552083,0 1.1979167,0.6119792 1.1979167,1.6536458 0,0.9765625 -0.46875,1.60156255 -1.1979167,1.60156255 -0.7421875,0 -1.1979167,-0.61197915 -1.1979167,-1.62760415 0,-1.0026042 0.4557292,-1.6276042 1.1979167,-1.6276042 z m 4.3131509,-0.4947917 h -0.690104 v -0.6510416 c 0,-0.2734375 0.15625,-0.4166667 0.455729,-0.4166667 0.05208,0 0.07813,0 0.234375,0 v -0.546875 c -0.15625,-0.026042 -0.234375,-0.039063 -0.377604,-0.039063 -0.611979,0 -0.976563,0.3515625 -0.976563,0.9505208 v 0.703125 H 9.8910365 v 0.546875 h 0.5598955 v 3.63281255 h 0.664063 V -3.6311997 h 0.690104 z m 2.177734,0 H 13.30575 V -5.323908 h -0.664063 v 1.1458333 h -0.559895 v 0.546875 h 0.559895 v 3.15104171 c 0,0.4296875 0.286459,0.6640625 0.807292,0.6640625 0.15625,0 0.3125,-0.0130208 0.533854,-0.0520833 v -0.55989583 c -0.07813,0.0260417 -0.182291,0.0260417 -0.3125,0.0260417 -0.286458,0 -0.364583,-0.078125 -0.364583,-0.36458333 V -3.6311997 h 0.677083 z m 0.755209,0 v 4.17968755 h 0.664062 V -2.6155747 c 0,-0.6119791 0.442708,-1.09375 0.989583,-1.09375 0.481771,0 0.76823,0.2994792 0.76823,0.8333334 v 2.87760415 h 0.664062 V -2.6155747 c 0,-0.6119791 0.442708,-1.09375 0.989583,-1.09375 0.481771,0 0.76823,0.3125 0.76823,0.8333334 v 2.87760415 h 0.664062 V -3.136408 c 0,-0.7421875 -0.429687,-1.1588542 -1.210937,-1.1588542 -0.559896,0 -0.885417,0.1692709 -1.276042,0.6380209 -0.247396,-0.4427084 -0.585938,-0.6380209 -1.132813,-0.6380209 -0.546875,0 -0.911458,0.2083334 -1.276041,0.7161459 v -0.5989584 z m 10.338541,3.78906255 c -0.0651,0.0130208 -0.104166,0.0130208 -0.143229,0.0130208 -0.221354,0 -0.351562,-0.1171875 -0.351562,-0.32552083 V -3.1494288 c 0,-0.7421875 -0.546875,-1.1458334 -1.575521,-1.1458334 -0.598959,0 -1.106771,0.1822917 -1.380209,0.4817709 -0.195312,0.2213541 -0.273437,0.4557291 -0.286458,0.8723958 h 0.664063 c 0.05208,-0.5078125 0.364583,-0.7421875 0.976562,-0.7421875 0.598958,0 0.9375,0.2213542 0.9375,0.625 v 0.1692708 c 0,0.2864584 -0.169271,0.4036459 -0.690104,0.46875 -0.9375,0.1171875 -1.080729,0.15625 -1.341146,0.2604167 -0.481771,0.1953125 -0.729167,0.5729167 -0.729167,1.1067708 0,0.75520838 0.520834,1.23697921 1.367188,1.23697921 0.520833,0 0.950521,-0.18229166 1.419271,-0.61197916 0.05208,0.41666666 0.247396,0.61197916 0.690104,0.61197916 0.130208,0 0.234375,-0.0130208 0.442708,-0.0651042 z M 23.917729,-1.3134913 c 0,0.2213541 -0.0651,0.36458331 -0.260417,0.54687498 -0.273437,0.24739583 -0.598958,0.36458333 -0.989583,0.36458333 -0.520833,0 -0.820312,-0.24739583 -0.820312,-0.66406251 0,-0.4427083 0.299479,-0.6640625 1.002604,-0.7682292 0.703125,-0.091146 0.846354,-0.1302083 1.067708,-0.234375 z m 3.66211,-0.8463542 1.393229,-2.0182292 H 28.23088 l -1.002604,1.5234375 -1.002604,-1.5234375 h -0.755208 l 1.393229,2.0572917 -1.484375,2.12239585 h 0.768229 l 1.054687,-1.60156255 1.041667,1.60156255 h 0.768229 z m 0,0"
       style="fill:#000000;fill-opacity:1;fill-rule:nonzero;stroke:none"
       aria-label="Softmax"
       transform="matrix(1.2,0,0,1.2,274.8456,172.22853)" />
    <path
       id="path11"
       d="m 3.8917969,-2.5378872 c 0,-0.859375 -0.078125,-1.3671875 -0.3515625,-1.8880208 -0.3515625,-0.703125 -0.9895834,-0.8723958 -1.4322917,-0.8723958 -1.0026042,0 -1.36718749,0.7552083 -1.48437499,0.9765625 -0.28645834,0.5729166 -0.29947917,1.3671875 -0.29947917,1.7838541 0,0.5208334 0.0260417,1.328125 0.40364583,1.96614588 0.36458333,0.5859375 0.96354163,0.7421875 1.38020833,0.7421875 0.390625,0 1.0677083,-0.1171875 1.4713542,-0.91145833 0.2864583,-0.57291665 0.3125,-1.27604165 0.3125,-1.79687505 z m -1.7838542,2.48697921 c -0.2734375,0 -0.8203125,-0.13020833 -0.9895833,-0.96354171 -0.078125,-0.4557291 -0.078125,-1.2109375 -0.078125,-1.6276041 0,-0.546875 0,-1.1067709 0.078125,-1.5364584 0.1692708,-0.8203125 0.7942708,-0.8984375 0.9895833,-0.8984375 0.2734375,0 0.8203125,0.1432292 0.9765625,0.859375 0.1041667,0.4427084 0.1041667,1.0416667 0.1041667,1.5755209 0,0.4817708 0,1.1979166 -0.1041667,1.640625 -0.15625,0.83333331 -0.7161458,0.95052081 -0.9765625,0.95052081 z m 0,0"
       style="fill:#000000;fill-opacity:1;fill-rule:nonzero;stroke:none"
       aria-label="0"
       transform="matrix(1.2,0,0,1.2,21.24,160.65093)" />
    <path
       id="path12"
       d="m 1.6141771,-0.44153299 c 0,-0.26041666 -0.2213542,-0.44270833 -0.4296875,-0.44270833 -0.26041668,0 -0.45572918,0.20833333 -0.45572918,0.44270833 0,0.2734375 0.22135416,0.44270834 0.44270828,0.44270834 0.2604167,0 0.4427084,-0.20833334 0.4427084,-0.44270834 z m 0,0"
       style="fill:#000000;fill-opacity:1;fill-rule:nonzero;stroke:none"
       aria-label="."
       transform="matrix(1.2,0,0,1.2,26.3208,160.65093)" />
    <path
       id="path13"
       d="m 3.1381302,-5.1550747 c 0,-0.15625 0,-0.2213541 -0.1692708,-0.2213541 -0.1041667,0 -0.1041667,0.013021 -0.1822917,0.1171875 L 0.23448437,-1.5743455 V -1.300908 H 2.4870885 v 0.65104168 c 0,0.29947917 -0.026042,0.390625 -0.6380208,0.390625 H 1.666776 v 0.26041667 c 0.6770834,-0.02604167 0.6901042,-0.02604167 1.1458334,-0.02604167 0.4557291,0 0.46875,0 1.1458333,0.02604167 V -0.25924132 H 3.776151 c -0.6119791,0 -0.6380208,-0.0911458 -0.6380208,-0.390625 V -1.300908 H 3.9844844 V -1.5743455 H 3.1381302 Z M 2.5391719,-4.504033 v 2.9296875 H 0.52094271 Z m 5.5891927,1.9661458 c 0,-0.859375 -0.078125,-1.3671875 -0.3515625,-1.8880208 -0.3515625,-0.703125 -0.9895834,-0.8723958 -1.4322917,-0.8723958 -1.0026042,0 -1.3671875,0.7552083 -1.484375,0.9765625 -0.2864583,0.5729166 -0.2994792,1.3671875 -0.2994792,1.7838541 0,0.5208334 0.026042,1.328125 0.4036459,1.96614588 0.3645833,0.5859375 0.9635416,0.7421875 1.3802083,0.7421875 0.390625,0 1.0677083,-0.1171875 1.4713542,-0.91145833 0.2864583,-0.57291665 0.3125,-1.27604165 0.3125,-1.79687505 z m -1.7838542,2.48697921 c -0.2734375,0 -0.8203125,-0.13020833 -0.9895833,-0.96354171 -0.078125,-0.4557291 -0.078125,-1.2109375 -0.078125,-1.6276041 0,-0.546875 0,-1.1067709 0.078125,-1.5364584 0.1692708,-0.8203125 0.7942708,-0.8984375 0.9895833,-0.8984375 0.2734375,0 0.8203125,0.1432292 0.9765625,0.859375 0.1041667,0.4427084 0.1041667,1.0416667 0.1041667,1.5755209 0,0.4817708 0,1.1979166 -0.1041667,1.640625 -0.15625,0.83333331 -0.7161458,0.95052081 -0.9765625,0.95052081 z m 0,0"
       style="fill:#000000;fill-opacity:1;fill-rule:nonzero;stroke:none"
       aria-label="40"
       transform="matrix(1.2,0,0,1.2,29.1444,160.65093)" />
    <path
       id="path14"
       d="m 3.8917969,-2.5405694 c 0,-0.859375 -0.078125,-1.3671875 -0.3515625,-1.8880209 -0.3515625,-0.703125 -0.9895834,-0.8723958 -1.4322917,-0.8723958 -1.0026042,0 -1.36718749,0.7552083 -1.48437499,0.9765625 -0.28645834,0.5729167 -0.29947917,1.3671875 -0.29947917,1.7838542 0,0.5208333 0.0260417,1.328125 0.40364583,1.96614579 0.36458333,0.5859375 0.96354163,0.7421875 1.38020833,0.7421875 0.390625,0 1.0677083,-0.1171875 1.4713542,-0.91145833 0.2864583,-0.57291666 0.3125,-1.27604166 0.3125,-1.79687496 z m -1.7838542,2.48697912 c -0.2734375,0 -0.8203125,-0.13020833 -0.9895833,-0.96354162 -0.078125,-0.4557292 -0.078125,-1.2109375 -0.078125,-1.6276042 0,-0.546875 0,-1.1067708 0.078125,-1.5364583 0.1692708,-0.8203125 0.7942708,-0.8984375 0.9895833,-0.8984375 0.2734375,0 0.8203125,0.1432291 0.9765625,0.859375 0.1041667,0.4427083 0.1041667,1.0416666 0.1041667,1.5755208 0,0.4817708 0,1.1979167 -0.1041667,1.640625 -0.15625,0.83333332 -0.7161458,0.95052082 -0.9765625,0.95052082 z m 0,0"
       style="fill:#000000;fill-opacity:1;fill-rule:nonzero;stroke:none"
       aria-label="0"
       transform="matrix(1.2,0,0,1.2,21.24,139.70493)" />
    <path
       id="path15"
       d="m 1.6141771,-0.44421528 c 0,-0.26041666 -0.2213542,-0.44270833 -0.4296875,-0.44270833 -0.26041668,0 -0.45572918,0.20833333 -0.45572918,0.44270833 0,0.2734375 0.22135416,0.44270834 0.44270828,0.44270834 0.2604167,0 0.4427084,-0.20833334 0.4427084,-0.44270834 z m 0,0"
       style="fill:#000000;fill-opacity:1;fill-rule:nonzero;stroke:none"
       aria-label="."
       transform="matrix(1.2,0,0,1.2,26.3208,139.70493)" />
    <path
       id="path16"
       d="m 1.119901,-4.4806736 c 0.1041667,0.039063 0.4166667,0.1171875 0.7552084,0.1171875 0.9895833,0 1.6015625,-0.703125 1.6015625,-0.8203125 0,-0.091146 -0.052083,-0.1171875 -0.1041667,-0.1171875 -0.013021,0 -0.026042,0 -0.091146,0.039063 -0.3125,0.1171875 -0.6770834,0.2213542 -1.1197917,0.2213542 -0.46875,0 -0.859375,-0.1302084 -1.1067708,-0.2213542 -0.078125,-0.039063 -0.0911459,-0.039063 -0.10416669,-0.039063 -0.10416667,0 -0.10416667,0.091146 -0.10416667,0.234375 v 2.3307292 c 0,0.1432291 0,0.234375 0.13020833,0.234375 0.0651041,0 0.0911458,-0.026042 0.13020833,-0.091146 0.091146,-0.1171875 0.4036458,-0.5208333 1.0807292,-0.5208333 0.4427083,0 0.6510416,0.3645833 0.7291666,0.5078125 0.1302084,0.2994792 0.15625,0.6640625 0.15625,0.9765625 0,0.2864583 -0.013021,0.71614582 -0.234375,1.06770832 -0.15625,0.24739584 -0.46875,0.48177084 -0.8984375,0.48177084 -0.5078125,0 -1.02864579,-0.32552084 -1.21093746,-0.83333334 0.0260417,0 0.078125,0 0.078125,0 0.23437496,0 0.40364586,-0.14322912 0.40364586,-0.39062502 0,-0.2864583 -0.23437503,-0.390625 -0.39062503,-0.390625 -0.14322916,0 -0.40364583,0.078125 -0.40364583,0.4166667 0,0.71614582 0.62499996,1.44531249 1.54947916,1.44531249 0.9895833,0 1.8359375,-0.78125 1.8359375,-1.75781249 0,-0.9244792 -0.6640625,-1.7447917 -1.6145833,-1.7447917 -0.390625,0 -0.7682292,0.1171875 -1.0677084,0.390625 z m 7.0084636,1.9401042 c 0,-0.859375 -0.078125,-1.3671875 -0.3515625,-1.8880209 -0.3515625,-0.703125 -0.9895834,-0.8723958 -1.4322917,-0.8723958 -1.0026042,0 -1.3671875,0.7552083 -1.484375,0.9765625 -0.2864583,0.5729167 -0.2994792,1.3671875 -0.2994792,1.7838542 0,0.5208333 0.026042,1.328125 0.4036459,1.96614579 0.3645833,0.5859375 0.9635416,0.7421875 1.3802083,0.7421875 0.390625,0 1.0677083,-0.1171875 1.4713542,-0.91145833 0.2864583,-0.57291666 0.3125,-1.27604166 0.3125,-1.79687496 z m -1.7838542,2.48697912 c -0.2734375,0 -0.8203125,-0.13020833 -0.9895833,-0.96354162 -0.078125,-0.4557292 -0.078125,-1.2109375 -0.078125,-1.6276042 0,-0.546875 0,-1.1067708 0.078125,-1.5364583 0.1692708,-0.8203125 0.7942708,-0.8984375 0.9895833,-0.8984375 0.2734375,0 0.8203125,0.1432291 0.9765625,0.859375 0.1041667,0.4427083 0.1041667,1.0416666 0.1041667,1.5755208 0,0.4817708 0,1.1979167 -0.1041667,1.640625 -0.15625,0.83333332 -0.7161458,0.95052082 -0.9765625,0.95052082 z m 0,0"
       style="fill:#000000;fill-opacity:1;fill-rule:nonzero;stroke:none"
       aria-label="50"
       transform="matrix(1.2,0,0,1.2,29.1444,139.70493)" />
    <path
       id="path17"
       d="m 3.8917969,-2.5399965 c 0,-0.859375 -0.078125,-1.3671875 -0.3515625,-1.8880209 -0.3515625,-0.703125 -0.9895834,-0.8723958 -1.4322917,-0.8723958 -1.0026042,0 -1.36718749,0.7552083 -1.48437499,0.9765625 -0.28645834,0.5729167 -0.29947917,1.3671875 -0.29947917,1.7838542 0,0.5208333 0.0260417,1.328125 0.40364583,1.96614581 0.36458333,0.5859375 0.96354163,0.7421875 1.38020833,0.7421875 0.390625,0 1.0677083,-0.1171875 1.4713542,-0.91145834 0.2864583,-0.57291667 0.3125,-1.27604167 0.3125,-1.79687497 z m -1.7838542,2.48697914 c -0.2734375,0 -0.8203125,-0.13020833 -0.9895833,-0.96354164 -0.078125,-0.4557292 -0.078125,-1.2109375 -0.078125,-1.6276042 0,-0.546875 0,-1.1067708 0.078125,-1.5364583 0.1692708,-0.8203125 0.7942708,-0.8984375 0.9895833,-0.8984375 0.2734375,0 0.8203125,0.1432291 0.9765625,0.859375 0.1041667,0.4427083 0.1041667,1.0416666 0.1041667,1.5755208 0,0.4817708 0,1.1979167 -0.1041667,1.640625 -0.15625,0.83333334 -0.7161458,0.95052084 -0.9765625,0.95052084 z m 0,0"
       style="fill:#000000;fill-opacity:1;fill-rule:nonzero;stroke:none"
       aria-label="0"
       transform="matrix(1.2,0,0,1.2,21.24,118.75893)" />
    <path
       id="path18"
       d="m 1.6141771,-0.44364236 c 0,-0.26041667 -0.2213542,-0.44270833 -0.4296875,-0.44270833 -0.26041668,0 -0.45572918,0.20833333 -0.45572918,0.44270833 0,0.2734375 0.22135416,0.44270833222 0.44270828,0.44270833222 0.2604167,0 0.4427084,-0.20833333222 0.4427084,-0.44270833222 z m 0,0"
       style="fill:#000000;fill-opacity:1;fill-rule:nonzero;stroke:none"
       aria-label="."
       transform="matrix(1.2,0,0,1.2,26.3208,118.75893)" />
    <path
       id="path19"
       d="m 1.0938594,-2.6441632 c 0,-0.6510417 0.065104,-1.2369792 0.3515625,-1.71875 0.234375,-0.4036458 0.6380208,-0.7291667 1.1458333,-0.7291667 0.15625,0 0.5208333,0.026042 0.703125,0.2994792 -0.3515625,0.013021 -0.390625,0.2864583 -0.390625,0.3776042 0,0.234375 0.1822917,0.3776041 0.3776042,0.3776041 0.1432291,0 0.3776041,-0.091146 0.3776041,-0.390625 0,-0.4817708 -0.3645833,-0.8723958 -1.0807291,-0.8723958 -1.1067709,0 -2.22656253,1.0546875 -2.22656253,2.7734375 0,2.16145834 1.00260413,2.69531251 1.77083333,2.69531251 0.390625,0 0.8072917,-0.10416667 1.1588542,-0.44270834 0.3255208,-0.3125 0.5859375,-0.65104166 0.5859375,-1.34114587 0,-1.0416666 -0.78125,-1.7838541 -1.6666667,-1.7838541 -0.5729167,0 -0.9114583,0.3645833 -1.1067708,0.7552083 z m 1.0286458,2.56510417 c -0.4166667,0 -0.6770833,-0.28645833 -0.7942708,-0.5078125 C 1.1459427,-0.95145486 1.119901,-1.485309 1.119901,-1.797809 c 0,-0.78125 0.4296875,-1.3802084 1.0416667,-1.3802084 0.4036458,0 0.6380208,0.2083334 0.7942708,0.4947917 0.1692709,0.2864583 0.1692709,0.6510417 0.1692709,1.0546875 0,0.4036458 0,0.75520834 -0.15625,1.04166667 -0.2083334,0.36458334 -0.4947917,0.5078125 -0.8463542,0.5078125 z M 8.1283646,-2.5399965 c 0,-0.859375 -0.078125,-1.3671875 -0.3515625,-1.8880209 -0.3515625,-0.703125 -0.9895834,-0.8723958 -1.4322917,-0.8723958 -1.0026042,0 -1.3671875,0.7552083 -1.484375,0.9765625 -0.2864583,0.5729167 -0.2994792,1.3671875 -0.2994792,1.7838542 0,0.5208333 0.026042,1.328125 0.4036459,1.96614581 0.3645833,0.5859375 0.9635416,0.7421875 1.3802083,0.7421875 0.390625,0 1.0677083,-0.1171875 1.4713542,-0.91145834 0.2864583,-0.57291667 0.3125,-1.27604167 0.3125,-1.79687497 z m -1.7838542,2.48697914 c -0.2734375,0 -0.8203125,-0.13020833 -0.9895833,-0.96354164 -0.078125,-0.4557292 -0.078125,-1.2109375 -0.078125,-1.6276042 0,-0.546875 0,-1.1067708 0.078125,-1.5364583 0.1692708,-0.8203125 0.7942708,-0.8984375 0.9895833,-0.8984375 0.2734375,0 0.8203125,0.1432291 0.9765625,0.859375 0.1041667,0.4427083 0.1041667,1.0416666 0.1041667,1.5755208 0,0.4817708 0,1.1979167 -0.1041667,1.640625 -0.15625,0.83333334 -0.7161458,0.95052084 -0.9765625,0.95052084 z m 0,0"
       style="fill:#000000;fill-opacity:1;fill-rule:nonzero;stroke:none"
       aria-label="60"
       transform="matrix(1.2,0,0,1.2,29.1444,118.75893)" />
    <path
       id="path20"
       d="m 3.8917969,-2.5404236 c 0,-0.859375 -0.078125,-1.3671875 -0.3515625,-1.8880208 -0.3515625,-0.703125 -0.9895834,-0.8723959 -1.4322917,-0.8723959 -1.0026042,0 -1.36718749,0.7552084 -1.48437499,0.9765625 -0.28645834,0.5729167 -0.29947917,1.3671875 -0.29947917,1.7838542 0,0.5208333 0.0260417,1.328125 0.40364583,1.96614582 0.36458333,0.5859375 0.96354163,0.7421875 1.38020833,0.7421875 0.390625,0 1.0677083,-0.1171875 1.4713542,-0.91145833 0.2864583,-0.57291669 0.3125,-1.27604169 0.3125,-1.79687499 z m -1.7838542,2.48697916 c -0.2734375,0 -0.8203125,-0.13020834 -0.9895833,-0.96354166 -0.078125,-0.4557292 -0.078125,-1.2109375 -0.078125,-1.6276042 0,-0.546875 0,-1.1067708 0.078125,-1.5364583 0.1692708,-0.8203125 0.7942708,-0.8984375 0.9895833,-0.8984375 0.2734375,0 0.8203125,0.1432292 0.9765625,0.859375 0.1041667,0.4427083 0.1041667,1.0416667 0.1041667,1.5755208 0,0.4817709 0,1.1979167 -0.1041667,1.640625 -0.15625,0.83333336 -0.7161458,0.95052086 -0.9765625,0.95052086 z m 0,0"
       style="fill:#000000;fill-opacity:1;fill-rule:nonzero;stroke:none"
       aria-label="0"
       transform="matrix(1.2,0,0,1.2,21.24,97.814133)" />
    <path
       id="path21"
       d="m 1.6141771,-0.44406944 c 0,-0.26041667 -0.2213542,-0.44270834 -0.4296875,-0.44270834 -0.26041668,0 -0.45572918,0.20833334 -0.45572918,0.44270834 0,0.2734375 0.22135416,0.44270833 0.44270828,0.44270833 0.2604167,0 0.4427084,-0.20833333 0.4427084,-0.44270833 z m 0,0"
       style="fill:#000000;fill-opacity:1;fill-rule:nonzero;stroke:none"
       aria-label="."
       transform="matrix(1.2,0,0,1.2,26.3208,97.814133)" />
    <path
       id="path22"
       d="m 4.0365677,-4.8581319 c 0.065104,-0.078125 0.065104,-0.1041667 0.065104,-0.2734375 h -2.018229 c -0.2083333,0 -0.4557292,-0.013021 -0.6510417,-0.026042 -0.4166666,-0.026042 -0.4166666,-0.1041667 -0.44270829,-0.234375 H 0.74229687 l -0.2734375,1.6796875 h 0.24739584 c 0.0130208,-0.1171875 0.10416666,-0.6640625 0.22135416,-0.7291667 0.078125,-0.039063 0.67708333,-0.039063 0.79427083,-0.039063 H 3.4245885 L 2.604276,-3.3737569 c -0.9114583,1.2109375 -1.09375,2.46093746 -1.09375,3.09895829 0,0.078125 0,0.44270833 0.3645834,0.44270833 0.3776041,0 0.3776041,-0.36458333 0.3776041,-0.45572916 v -0.37760417 c 0,-1.15885419 0.1953125,-2.09635419 0.5859375,-2.61718749 z m 4.0917969,2.3177083 c 0,-0.859375 -0.078125,-1.3671875 -0.3515625,-1.8880208 -0.3515625,-0.703125 -0.9895834,-0.8723959 -1.4322917,-0.8723959 -1.0026042,0 -1.3671875,0.7552084 -1.484375,0.9765625 -0.2864583,0.5729167 -0.2994792,1.3671875 -0.2994792,1.7838542 0,0.5208333 0.026042,1.328125 0.4036459,1.96614582 0.3645833,0.5859375 0.9635416,0.7421875 1.3802083,0.7421875 0.390625,0 1.0677083,-0.1171875 1.4713542,-0.91145833 0.2864583,-0.57291669 0.3125,-1.27604169 0.3125,-1.79687499 z m -1.7838542,2.48697916 c -0.2734375,0 -0.8203125,-0.13020834 -0.9895833,-0.96354166 -0.078125,-0.4557292 -0.078125,-1.2109375 -0.078125,-1.6276042 0,-0.546875 0,-1.1067708 0.078125,-1.5364583 0.1692708,-0.8203125 0.7942708,-0.8984375 0.9895833,-0.8984375 0.2734375,0 0.8203125,0.1432292 0.9765625,0.859375 0.1041667,0.4427083 0.1041667,1.0416667 0.1041667,1.5755208 0,0.4817709 0,1.1979167 -0.1041667,1.640625 -0.15625,0.83333336 -0.7161458,0.95052086 -0.9765625,0.95052086 z m 0,0"
       style="fill:#000000;fill-opacity:1;fill-rule:nonzero;stroke:none"
       aria-label="70"
       transform="matrix(1.2,0,0,1.2,29.1444,97.814133)" />
    <path
       id="path23"
       d="m 3.8917969,-2.5398507 c 0,-0.859375 -0.078125,-1.3671875 -0.3515625,-1.8880208 -0.3515625,-0.703125 -0.9895834,-0.8723959 -1.4322917,-0.8723959 -1.0026042,0 -1.36718749,0.7552084 -1.48437499,0.9765625 -0.28645834,0.5729167 -0.29947917,1.3671875 -0.29947917,1.7838542 0,0.5208333 0.0260417,1.328125 0.40364583,1.96614584 0.36458333,0.5859375 0.96354163,0.7421875 1.38020833,0.7421875 0.390625,0 1.0677083,-0.1171875 1.4713542,-0.91145833 0.2864583,-0.57291671 0.3125,-1.27604171 0.3125,-1.79687501 z m -1.7838542,2.48697917 c -0.2734375,0 -0.8203125,-0.13020833 -0.9895833,-0.96354167 -0.078125,-0.4557292 -0.078125,-1.2109375 -0.078125,-1.6276042 0,-0.546875 0,-1.1067708 0.078125,-1.5364583 0.1692708,-0.8203125 0.7942708,-0.8984375 0.9895833,-0.8984375 0.2734375,0 0.8203125,0.1432292 0.9765625,0.859375 0.1041667,0.4427083 0.1041667,1.0416667 0.1041667,1.5755208 0,0.4817709 0,1.1979167 -0.1041667,1.640625 -0.15625,0.83333337 -0.7161458,0.95052087 -0.9765625,0.95052087 z m 0,0"
       style="fill:#000000;fill-opacity:1;fill-rule:nonzero;stroke:none"
       aria-label="0"
       transform="matrix(1.2,0,0,1.2,21.24,76.868133)" />
    <path
       id="path24"
       d="m 1.6141771,-0.44349653 c 0,-0.26041666 -0.2213542,-0.44270833 -0.4296875,-0.44270833 -0.26041668,0 -0.45572918,0.20833333 -0.45572918,0.44270833 0,0.2734375 0.22135416,0.44270833556 0.44270828,0.44270833556 0.2604167,0 0.4427084,-0.20833333556 0.4427084,-0.44270833556 z m 0,0"
       style="fill:#000000;fill-opacity:1;fill-rule:nonzero;stroke:none"
       aria-label="."
       transform="matrix(1.2,0,0,1.2,26.3208,76.868133)" />
    <path
       id="path25"
       d="m 2.6433385,-2.8783924 c 0.4427084,-0.2083333 0.9895834,-0.6119791 0.9895834,-1.2369791 0,-0.7552084 -0.7682292,-1.1848959 -1.5104167,-1.1848959 -0.8463542,0 -1.53645833,0.5859375 -1.53645833,1.328125 0,0.2994792 0.10416667,0.5729167 0.3125,0.7942709 0.13020833,0.1692708 0.15625003,0.1953125 0.65104163,0.4947916 -0.98958329,0.4427084 -1.19791663,1.0286459 -1.19791663,1.4713542 0,0.87239584 0.88541663,1.38020834 1.75781253,1.38020834 0.9765625,0 1.7578125,-0.6640625 1.7578125,-1.51041664 0,-0.4947917 -0.2604167,-0.8333334 -0.390625,-0.9635417 C 3.3334427,-2.435684 3.3334427,-2.4487049 2.6433385,-2.8783924 Z M 1.4063594,-3.6205799 C 1.1850052,-3.763809 0.98969271,-3.998184 0.98969271,-4.2716215 c 0,-0.5078125 0.54687499,-0.8203125 1.11979169,-0.8203125 0.6119791,0 1.1197916,0.4166666 1.1197916,0.9765625 0,0.46875 -0.3515625,0.859375 -0.8203125,1.0807291 z m 0.390625,1.0807292 c 0.039063,0.026042 0.9505208,0.5729167 1.0807291,0.6640625 0.1302084,0.078125 0.546875,0.3255208 0.546875,0.8072917 0,0.61197914 -0.6510416,0.98958331 -1.3020833,0.98958331 -0.7161458,0 -1.31510416,-0.48177084 -1.31510416,-1.13281251 0,-0.5989583 0.44270836,-1.0677083 0.98958336,-1.328125 z m 6.3313802,0 c 0,-0.859375 -0.078125,-1.3671875 -0.3515625,-1.8880208 -0.3515625,-0.703125 -0.9895834,-0.8723959 -1.4322917,-0.8723959 -1.0026042,0 -1.3671875,0.7552084 -1.484375,0.9765625 -0.2864583,0.5729167 -0.2994792,1.3671875 -0.2994792,1.7838542 0,0.5208333 0.026042,1.328125 0.4036459,1.96614584 0.3645833,0.5859375 0.9635416,0.7421875 1.3802083,0.7421875 0.390625,0 1.0677083,-0.1171875 1.4713542,-0.91145833 0.2864583,-0.57291671 0.3125,-1.27604171 0.3125,-1.79687501 z m -1.7838542,2.48697917 c -0.2734375,0 -0.8203125,-0.13020833 -0.9895833,-0.96354167 -0.078125,-0.4557292 -0.078125,-1.2109375 -0.078125,-1.6276042 0,-0.546875 0,-1.1067708 0.078125,-1.5364583 0.1692708,-0.8203125 0.7942708,-0.8984375 0.9895833,-0.8984375 0.2734375,0 0.8203125,0.1432292 0.9765625,0.859375 0.1041667,0.4427083 0.1041667,1.0416667 0.1041667,1.5755208 0,0.4817709 0,1.1979167 -0.1041667,1.640625 -0.15625,0.83333337 -0.7161458,0.95052087 -0.9765625,0.95052087 z m 0,0"
       style="fill:#000000;fill-opacity:1;fill-rule:nonzero;stroke:none"
       aria-label="80"
       transform="matrix(1.2,0,0,1.2,29.1444,76.868133)" />
    <path
       id="path26"
       d="m 3.8917969,-2.5392778 c 0,-0.859375 -0.078125,-1.3671875 -0.3515625,-1.8880208 -0.3515625,-0.703125 -0.9895834,-0.8723958 -1.4322917,-0.8723958 -1.0026042,0 -1.36718749,0.7552083 -1.48437499,0.9765625 -0.28645834,0.5729166 -0.29947917,1.3671875 -0.29947917,1.7838541 0,0.5208334 0.0260417,1.328125 0.40364583,1.96614586 0.36458333,0.5859375 0.96354163,0.7421875 1.38020833,0.7421875 0.390625,0 1.0677083,-0.1171875 1.4713542,-0.91145834 0.2864583,-0.57291662 0.3125,-1.27604162 0.3125,-1.79687502 z m -1.7838542,2.48697919 c -0.2734375,0 -0.8203125,-0.13020833 -0.9895833,-0.96354169 -0.078125,-0.4557291 -0.078125,-1.2109375 -0.078125,-1.6276041 0,-0.546875 0,-1.1067709 0.078125,-1.5364584 0.1692708,-0.8203125 0.7942708,-0.8984375 0.9895833,-0.8984375 0.2734375,0 0.8203125,0.1432292 0.9765625,0.859375 0.1041667,0.4427084 0.1041667,1.0416667 0.1041667,1.5755209 0,0.4817708 0,1.1979166 -0.1041667,1.640625 -0.15625,0.83333329 -0.7161458,0.95052079 -0.9765625,0.95052079 z m 0,0"
       style="fill:#000000;fill-opacity:1;fill-rule:nonzero;stroke:none"
       aria-label="0"
       transform="matrix(1.2,0,0,1.2,21.24,55.922133)" />
    <path
       id="path27"
       d="m 1.6141771,-0.44292361 c 0,-0.26041667 -0.2213542,-0.44270833 -0.4296875,-0.44270833 -0.26041668,0 -0.45572918,0.20833333 -0.45572918,0.44270833 0,0.2734375 0.22135416,0.44270833222 0.44270828,0.44270833222 0.2604167,0 0.4427084,-0.20833333222 0.4427084,-0.44270833222 z m 0,0"
       style="fill:#000000;fill-opacity:1;fill-rule:nonzero;stroke:none"
       aria-label="."
       transform="matrix(1.2,0,0,1.2,26.3208,55.922133)" />
    <path
       id="path28"
       d="m 3.1251094,-2.3569861 c 0,1.95312499 -0.9244792,2.27864582 -1.3932292,2.27864582 -0.15625,0 -0.5729167,-0.01302083 -0.79427083,-0.26041666 0.35156253,-0.0390625 0.37760413,-0.29947917 0.37760413,-0.37760417 0,-0.234375 -0.1822916,-0.37760419 -0.37760413,-0.37760419 -0.14322916,0 -0.37760416,0.091146 -0.37760416,0.39062502 0,0.546875 0.45572919,0.87239584 1.18489579,0.87239584 1.09375,0 2.1223959,-1.08072917 2.1223959,-2.78645836 0,-2.0703125 -0.9114584,-2.6822916 -1.7317709,-2.6822916 -0.9375,0 -1.78385413,0.7291666 -1.78385413,1.7708333 0,1.0286458 0.76822913,1.7838542 1.66666663,1.7838542 0.5729167,0 0.9114584,-0.3645834 1.1067709,-0.7682292 z m -1.0677084,0.390625 c -0.3645833,0 -0.5989583,-0.1692708 -0.7682291,-0.46875 -0.1953125,-0.2864583 -0.1953125,-0.6770833 -0.1953125,-1.0807292 0,-0.46875 0,-0.8072916 0.2213541,-1.1328125 0.1953125,-0.2864583 0.4557292,-0.4427083 0.8333334,-0.4427083 0.5338541,0 0.7552083,0.5208333 0.78125,0.5598958 0.1692708,0.390625 0.1822916,1.015625 0.1822916,1.171875 0,0.6380209 -0.3515625,1.3932292 -1.0546875,1.3932292 z m 6.0709636,-0.5729167 c 0,-0.859375 -0.078125,-1.3671875 -0.3515625,-1.8880208 -0.3515625,-0.703125 -0.9895834,-0.8723958 -1.4322917,-0.8723958 -1.0026042,0 -1.3671875,0.7552083 -1.484375,0.9765625 -0.2864583,0.5729166 -0.2994792,1.3671875 -0.2994792,1.7838541 0,0.5208334 0.026042,1.328125 0.4036459,1.96614586 0.3645833,0.5859375 0.9635416,0.7421875 1.3802083,0.7421875 0.390625,0 1.0677083,-0.1171875 1.4713542,-0.91145834 0.2864583,-0.57291662 0.3125,-1.27604162 0.3125,-1.79687502 z m -1.7838542,2.48697919 c -0.2734375,0 -0.8203125,-0.13020833 -0.9895833,-0.96354169 -0.078125,-0.4557291 -0.078125,-1.2109375 -0.078125,-1.6276041 0,-0.546875 0,-1.1067709 0.078125,-1.5364584 0.1692708,-0.8203125 0.7942708,-0.8984375 0.9895833,-0.8984375 0.2734375,0 0.8203125,0.1432292 0.9765625,0.859375 0.1041667,0.4427084 0.1041667,1.0416667 0.1041667,1.5755209 0,0.4817708 0,1.1979166 -0.1041667,1.640625 -0.15625,0.83333329 -0.7161458,0.95052079 -0.9765625,0.95052079 z m 0,0"
       style="fill:#000000;fill-opacity:1;fill-rule:nonzero;stroke:none"
       aria-label="90"
       transform="matrix(1.2,0,0,1.2,29.1444,55.922133)" />
    <path
       id="path29"
       d="m 2.4985677,-5.0787674 c 0,-0.2083333 -0.013021,-0.2213541 -0.234375,-0.2213541 -0.3255208,0.3255208 -0.7421875,0.5078125 -1.49739583,0.5078125 v 0.2604166 c 0.20833334,0 0.63802083,0 1.10677083,-0.2083333 v 4.08854167 c 0,0.28645834 -0.026042,0.390625 -0.78125,0.390625 H 0.80585937 V -6.4236111e-4 C 1.144401,-0.02668403 1.8214844,-0.02668403 2.1860677,-0.02668403 c 0.3515625,0 1.0416667,0 1.3802083,0.0260416689 V -0.26105903 H 3.2798177 c -0.7552083,0 -0.78125,-0.10416666 -0.78125,-0.390625 z m 0,0"
       style="fill:#000000;fill-opacity:1;fill-rule:nonzero;stroke:none"
       aria-label="1"
       transform="matrix(1.2,0,0,1.2,21.24,34.977333)" />
    <path
       id="path30"
       d="m 1.6141771,-0.44335069 c 0,-0.26041667 -0.2213542,-0.44270834 -0.4296875,-0.44270834 -0.26041668,0 -0.45572918,0.20833334 -0.45572918,0.44270834 0,0.2734375 0.22135416,0.44270832889 0.44270828,0.44270832889 0.2604167,0 0.4427084,-0.20833332889 0.4427084,-0.44270832889 z m 0,0"
       style="fill:#000000;fill-opacity:1;fill-rule:nonzero;stroke:none"
       aria-label="."
       transform="matrix(1.2,0,0,1.2,26.3208,34.977333)" />
    <path
       id="path31"
       d="m 3.8933385,-2.5397049 c 0,-0.859375 -0.078125,-1.3671875 -0.3515625,-1.8880208 -0.3515625,-0.703125 -0.9895833,-0.8723958 -1.4322916,-0.8723958 -1.0026042,0 -1.36718753,0.7552083 -1.48437503,0.9765625 -0.28645833,0.5729166 -0.29947916,1.3671875 -0.29947916,1.7838541 0,0.5208334 0.0260417,1.328125 0.40364583,1.96614587 0.36458336,0.5859375 0.96354166,0.7421875 1.38020836,0.7421875 0.390625,0 1.0677083,-0.1171875 1.4713541,-0.91145833 0.2864584,-0.57291664 0.3125,-1.27604164 0.3125,-1.79687504 z m -1.7838541,2.48697921 c -0.2734375,0 -0.8203125,-0.13020834 -0.9895834,-0.96354171 -0.078125,-0.4557291 -0.078125,-1.2109375 -0.078125,-1.6276041 0,-0.546875 0,-1.1067709 0.078125,-1.5364584 0.1692709,-0.8203125 0.7942709,-0.8984375 0.9895834,-0.8984375 0.2734375,0 0.8203125,0.1432292 0.9765625,0.859375 0.1041666,0.4427084 0.1041666,1.0416667 0.1041666,1.5755209 0,0.4817708 0,1.1979166 -0.1041666,1.640625 -0.15625,0.83333331 -0.7161459,0.95052081 -0.9765625,0.95052081 z M 8.1283646,-2.5397049 c 0,-0.859375 -0.078125,-1.3671875 -0.3515625,-1.8880208 -0.3515625,-0.703125 -0.9895834,-0.8723958 -1.4322917,-0.8723958 -1.0026042,0 -1.3671875,0.7552083 -1.484375,0.9765625 -0.2864583,0.5729166 -0.2994792,1.3671875 -0.2994792,1.7838541 0,0.5208334 0.026042,1.328125 0.4036459,1.96614587 0.3645833,0.5859375 0.9635416,0.7421875 1.3802083,0.7421875 0.390625,0 1.0677083,-0.1171875 1.4713542,-0.91145833 0.2864583,-0.57291664 0.3125,-1.27604164 0.3125,-1.79687504 z m -1.7838542,2.48697921 c -0.2734375,0 -0.8203125,-0.13020834 -0.9895833,-0.96354171 -0.078125,-0.4557291 -0.078125,-1.2109375 -0.078125,-1.6276041 0,-0.546875 0,-1.1067709 0.078125,-1.5364584 0.1692708,-0.8203125 0.7942708,-0.8984375 0.9895833,-0.8984375 0.2734375,0 0.8203125,0.1432292 0.9765625,0.859375 0.1041667,0.4427084 0.1041667,1.0416667 0.1041667,1.5755209 0,0.4817708 0,1.1979166 -0.1041667,1.640625 -0.15625,0.83333331 -0.7161458,0.95052081 -0.9765625,0.95052081 z m 0,0"
       style="fill:#000000;fill-opacity:1;fill-rule:nonzero;stroke:none"
       aria-label="00"
       transform="matrix(1.2,0,0,1.2,29.1444,34.977333)" />
    <path
       id="path32"
       d="m 2.4985677,-5.0781944 c 0,-0.2083334 -0.013021,-0.2213542 -0.234375,-0.2213542 -0.3255208,0.3255208 -0.7421875,0.5078125 -1.49739583,0.5078125 v 0.2604167 c 0.20833334,0 0.63802083,0 1.10677083,-0.2083334 v 4.08854169 c 0,0.28645833 -0.026042,0.390625 -0.78125,0.390625 H 0.80585937 V -6.9444444e-5 C 1.144401,-0.02611111 1.8214844,-0.02611111 2.1860677,-0.02611111 c 0.3515625,0 1.0416667,0 1.3802083,0.02604166556 V -0.26048611 H 3.2798177 c -0.7552083,0 -0.78125,-0.10416667 -0.78125,-0.390625 z m 0,0"
       style="fill:#000000;fill-opacity:1;fill-rule:nonzero;stroke:none"
       aria-label="1"
       transform="matrix(1.2,0,0,1.2,21.24,14.031333)" />
    <path
       id="path33"
       d="m 1.6141771,-0.44277778 c 0,-0.26041666 -0.2213542,-0.44270833 -0.4296875,-0.44270833 -0.26041668,0 -0.45572918,0.20833333 -0.45572918,0.44270833 0,0.2734375 0.22135416,0.442708335556 0.44270828,0.442708335556 0.2604167,0 0.4427084,-0.208333335556 0.4427084,-0.442708335556 z m 0,0"
       style="fill:#000000;fill-opacity:1;fill-rule:nonzero;stroke:none"
       aria-label="."
       transform="matrix(1.2,0,0,1.2,26.3208,14.031333)" />
    <path
       id="path34"
       d="m 2.5001094,-5.0781944 c 0,-0.2083334 -0.013021,-0.2213542 -0.234375,-0.2213542 -0.3255209,0.3255208 -0.7421875,0.5078125 -1.49739586,0.5078125 v 0.2604167 c 0.20833333,0 0.63802086,0 1.10677086,-0.2083334 v 4.08854169 c 0,0.28645833 -0.026042,0.390625 -0.78125,0.390625 H 0.80740104 V -6.9444444e-5 C 1.1459427,-0.02611111 1.823026,-0.02611111 2.1876094,-0.02611111 c 0.3515625,0 1.0416666,0 1.3802083,0.02604166556 V -0.26048611 H 3.2813594 c -0.7552084,0 -0.78125,-0.10416667 -0.78125,-0.390625 z m 5.6282552,2.5390625 c 0,-0.859375 -0.078125,-1.3671875 -0.3515625,-1.8880209 -0.3515625,-0.703125 -0.9895834,-0.8723958 -1.4322917,-0.8723958 -1.0026042,0 -1.3671875,0.7552083 -1.484375,0.9765625 -0.2864583,0.5729167 -0.2994792,1.3671875 -0.2994792,1.7838542 0,0.5208333 0.026042,1.328125 0.4036459,1.96614579 0.3645833,0.5859375 0.9635416,0.7421875 1.3802083,0.7421875 0.390625,0 1.0677083,-0.1171875 1.4713542,-0.91145833 0.2864583,-0.57291666 0.3125,-1.27604166 0.3125,-1.79687496 z m -1.7838542,2.48697912 c -0.2734375,0 -0.8203125,-0.13020833 -0.9895833,-0.96354162 -0.078125,-0.4557292 -0.078125,-1.2109375 -0.078125,-1.6276042 0,-0.546875 0,-1.1067708 0.078125,-1.5364583 0.1692708,-0.8203125 0.7942708,-0.8984375 0.9895833,-0.8984375 0.2734375,0 0.8203125,0.1432291 0.9765625,0.859375 0.1041667,0.4427083 0.1041667,1.0416666 0.1041667,1.5755208 0,0.4817708 0,1.1979167 -0.1041667,1.640625 -0.15625,0.83333332 -0.7161458,0.95052082 -0.9765625,0.95052082 z m 0,0"
       style="fill:#000000;fill-opacity:1;fill-rule:nonzero;stroke:none"
       aria-label="10"
       transform="matrix(1.2,0,0,1.2,29.1444,14.031333)" />
    <path
       id="path35"
       d="M -15.6252,0 H 15.6252 V 122.18338 H -15.6252 Z"
       style="fill:#cb202d;fill-opacity:1;fill-rule:nonzero;stroke:#cb202d;stroke-width:0.3985;stroke-linecap:butt;stroke-linejoin:miter;stroke-miterlimit:10;stroke-dasharray:none;stroke-opacity:1"
       transform="matrix(1.2,0,0,-1.2,87.84,157.56933)" />
    <path
       id="path36"
       d="m 41.19347,0 h 31.2504 v 36.65501 h -31.2504 z"
       style="fill:#006395;fill-opacity:1;fill-rule:nonzero;stroke:#006395;stroke-width:0.3985;stroke-linecap:butt;stroke-linejoin:miter;stroke-miterlimit:10;stroke-dasharray:none;stroke-opacity:1"
       transform="matrix(1.2,0,0,-1.2,87.84,157.56933)" />
    <path
       id="path37"
       d="m 98.01212,0 h 31.2504 v 8.72737 h -31.2504 z"
       style="fill:#008f45;fill-opacity:1;fill-rule:nonzero;stroke:#008f45;stroke-width:0.3985;stroke-linecap:butt;stroke-linejoin:miter;stroke-miterlimit:10;stroke-dasharray:none;stroke-opacity:1"
       transform="matrix(1.2,0,0,-1.2,87.84,157.56933)" />
    <path
       id="path38"
       d="m 154.8308,0 h 31.2504 v 89.01933 h -31.2504 z"
       style="fill:#cc5500;fill-opacity:1;fill-rule:nonzero;stroke:#cc5500;stroke-width:0.3985;stroke-linecap:butt;stroke-linejoin:miter;stroke-miterlimit:10;stroke-dasharray:none;stroke-opacity:1"
       transform="matrix(1.2,0,0,-1.2,87.84,157.56933)" />
    <path
       id="path39"
       d="M 1.4572361,-2.6422865 H 4.6212986 V -3.2933281 H 1.4572361 v -1.8619792 h 3.28125 V -5.806349 H 0.71504861 V 9.4270833e-4 H 4.8817153 V -0.65009896 H 1.4572361 Z m 6.1881511,0.4817709 1.3932291,-2.0182292 H 8.2964288 L 7.2938247,-2.6553073 6.2912205,-4.1787448 H 5.5360122 L 6.9292413,-2.1214531 5.4448663,9.4270833e-4 H 6.2130955 L 7.267783,-1.6006198 8.3094497,9.4270833e-4 h 0.7682291 z m 5.5143228,0.2994791 c 0,-0.6380208 -0.05208,-1.0286458 -0.169271,-1.328125 -0.273437,-0.6901041 -0.911458,-1.1067708 -1.692708,-1.1067708 -1.158854,0 -1.9140626,0.8984375 -1.9140626,2.265625 0,1.36718751 0.7291666,2.21354167 1.9010416,2.21354167 0.963542,0 1.614583,-0.546875 1.783854,-1.44531247 h -0.664062 c -0.182292,0.54687497 -0.559896,0.83333331 -1.09375,0.83333331 -0.416667,0 -0.78125,-0.1953125 -1.002604,-0.546875 -0.15625,-0.23437501 -0.221355,-0.46875001 -0.221355,-0.88541671 z m -3.059896,-0.546875 c 0.05208,-0.7682291 0.520834,-1.2760416 1.197917,-1.2760416 0.651042,0 1.145833,0.546875 1.145833,1.2369791 0,0.013021 0,0.026042 0,0.039063 z m 7.151693,-0.3645833 c -0.02604,-0.4036458 -0.117188,-0.6640625 -0.273438,-0.8984375 -0.286458,-0.390625 -0.79427,-0.625 -1.367187,-0.625 -1.132813,0 -1.861979,0.8984375 -1.861979,2.2786458 0,1.35416671 0.716146,2.20052087 1.848958,2.20052087 0.989583,0 1.627604,-0.59895833 1.705729,-1.61458337 h -0.664062 c -0.117188,0.66406254 -0.455729,1.00260421 -1.028646,1.00260421 -0.729167,0 -1.171875,-0.59895831 -1.171875,-1.58854171 0,-1.0416666 0.429687,-1.6666666 1.158854,-1.6666666 0.559896,0 0.911458,0.3255208 0.989583,0.9114583 z M 21.327028,9.4270833e-4 V -4.1787448 h -0.664063 v 2.3697917 c 0,0.85937497 -0.442708,1.40624997 -1.132812,1.40624997 -0.533854,0 -0.859375,-0.3125 -0.859375,-0.82031247 v -2.9557292 h -0.664063 v 3.22916667 c 0,0.69010417 0.520834,1.1328125 1.328125,1.1328125 0.611979,0 1.002604,-0.20833333 1.393229,-0.76822916 V 9.4270833e-4 Z M 23.93445,-4.1787448 h -0.677084 v -1.1458333 h -0.664062 v 1.1458333 h -0.559896 v 0.546875 h 0.559896 v 3.15104167 c 0,0.4296875 0.286458,0.6640625 0.807291,0.6640625 0.15625,0 0.3125,-0.0130208 0.533855,-0.0520833 v -0.55989583 c -0.07813,0.0260417 -0.182292,0.0260417 -0.3125,0.0260417 -0.286459,0 -0.364584,-0.078125 -0.364584,-0.36458333 V -3.6318698 h 0.677084 z m 1.389974,0 H 24.660361 V 9.4270833e-4 h 0.664063 z m 0,-1.6276042 H 24.64734 v 0.8333334 h 0.677084 z m 2.731119,1.5104167 c -1.171875,0 -1.875,0.8333333 -1.875,2.2395833 0,1.40625004 0.703125,2.23958337 1.888021,2.23958337 1.171875,0 1.888021,-0.83333333 1.888021,-2.20052087 0,-1.4453125 -0.690104,-2.2786458 -1.901042,-2.2786458 z m 0.01302,0.6119792 c 0.755209,0 1.197917,0.6119791 1.197917,1.6536458 0,0.9765625 -0.46875,1.60156251 -1.197917,1.60156251 -0.742187,0 -1.197916,-0.61197921 -1.197916,-1.62760421 0,-1.0026041 0.455729,-1.6276041 1.197916,-1.6276041 z m 2.819011,-0.4947917 V 9.4270833e-4 h 0.664062 V -2.3037448 c 0,-0.8463542 0.455729,-1.40625 1.132813,-1.40625 0.533854,0 0.859375,0.3125 0.859375,0.8203125 V 9.4270833e-4 h 0.664062 V -3.150099 c 0,-0.703125 -0.520833,-1.1458333 -1.328125,-1.1458333 -0.611979,0 -1.015625,0.234375 -1.380208,0.8203125 v -0.703125 z m 8.91276,-0.9765625 h 1.901042 V -5.806349 h -4.557292 v 0.6510417 h 1.914063 V 9.4270833e-4 h 0.742187 z m 3.242188,0.9765625 H 42.37846 V 9.4270833e-4 h 0.664063 z m 0,-1.6276042 h -0.677084 v 0.8333334 h 0.677084 z m 1.129557,1.6276042 V 9.4270833e-4 h 0.664062 V -2.6162448 c 0,-0.6119792 0.442709,-1.09375 0.989584,-1.09375 0.481771,0 0.768229,0.2994792 0.768229,0.8333333 V 9.4270833e-4 h 0.664062 V -2.6162448 c 0,-0.6119792 0.442709,-1.09375 0.989584,-1.09375 0.481771,0 0.768229,0.3125 0.768229,0.8333333 V 9.4270833e-4 h 0.664062 V -3.1370781 c 0,-0.7421875 -0.429687,-1.1588542 -1.210937,-1.1588542 -0.559896,0 -0.885417,0.1692708 -1.276042,0.6380208 -0.247396,-0.4427083 -0.585937,-0.6380208 -1.132812,-0.6380208 -0.546875,0 -0.911459,0.2083333 -1.276042,0.7161458 v -0.5989583 z m 10.169271,2.3177083 c 0,-0.6380208 -0.05208,-1.0286458 -0.169271,-1.328125 -0.273438,-0.6901041 -0.911458,-1.1067708 -1.692708,-1.1067708 -1.158855,0 -1.914063,0.8984375 -1.914063,2.265625 0,1.36718751 0.729167,2.21354167 1.901042,2.21354167 0.963541,0 1.614583,-0.546875 1.783854,-1.44531247 h -0.664063 c -0.182291,0.54687497 -0.559895,0.83333331 -1.09375,0.83333331 -0.416666,0 -0.78125,-0.1953125 -1.002604,-0.546875 -0.15625,-0.23437501 -0.221354,-0.46875001 -0.221354,-0.88541671 z m -3.059896,-0.546875 c 0.05208,-0.7682291 0.520833,-1.2760416 1.197917,-1.2760416 0.651041,0 1.145833,0.546875 1.145833,1.2369791 0,0.013021 0,0.026042 0,0.039063 z m 7.493489,-3.3984375 c -0.79427,1.0416667 -1.289062,2.4869792 -1.289062,3.7369792 0,1.26302084 0.494792,2.72135417 1.289062,3.7630208 h 0.442709 c -0.703125,-1.14583329 -1.09375,-2.48697913 -1.09375,-3.7630208 0,-1.2630208 0.390625,-2.6041667 1.09375,-3.7369792 z m 4.267579,2.7994792 c -0.01302,-0.8203125 -0.546875,-1.2890625 -1.510417,-1.2890625 -0.976563,0 -1.601563,0.5078125 -1.601563,1.2760417 0,0.6510416 0.325521,0.9635416 1.315105,1.1979166 l 0.625,0.15625 c 0.46875,0.1171875 0.651041,0.2864584 0.651041,0.5859375 0,0.39062504 -0.390625,0.65104171 -0.976562,0.65104171 -0.364584,0 -0.664063,-0.10416667 -0.833334,-0.2734375 -0.104166,-0.13020834 -0.143229,-0.24739584 -0.182291,-0.53385421 h -0.703125 c 0.02604,0.96354171 0.572916,1.41927087 1.666666,1.41927087 1.041667,0 1.71875,-0.52083333 1.71875,-1.32812497 0,-0.6119792 -0.351562,-0.9635417 -1.184895,-1.1588542 l -0.63802,-0.1432292 c -0.533854,-0.1302083 -0.768229,-0.3125 -0.768229,-0.5989583 0,-0.390625 0.338541,-0.6380208 0.885416,-0.6380208 0.533854,0 0.820313,0.234375 0.833334,0.6770833 z m 4.583333,1.1458333 c 0,-0.6380208 -0.05208,-1.0286458 -0.169271,-1.328125 -0.273437,-0.6901041 -0.911458,-1.1067708 -1.692708,-1.1067708 -1.158854,0 -1.914063,0.8984375 -1.914063,2.265625 0,1.36718751 0.729167,2.21354167 1.901042,2.21354167 0.963542,0 1.614583,-0.546875 1.783854,-1.44531247 h -0.664062 c -0.182292,0.54687497 -0.559896,0.83333331 -1.09375,0.83333331 -0.416667,0 -0.78125,-0.1953125 -1.002605,-0.546875 -0.15625,-0.23437501 -0.221354,-0.46875001 -0.221354,-0.88541671 z m -3.059896,-0.546875 c 0.05208,-0.7682291 0.520833,-1.2760416 1.197917,-1.2760416 0.651041,0 1.145833,0.546875 1.145833,1.2369791 0,0.013021 0,0.026042 0,0.039063 z m 7.151693,-0.3645833 c -0.02604,-0.4036458 -0.117188,-0.6640625 -0.273438,-0.8984375 -0.286458,-0.390625 -0.794271,-0.625 -1.367187,-0.625 -1.132813,0 -1.861979,0.8984375 -1.861979,2.2786458 0,1.35416671 0.716145,2.20052087 1.848958,2.20052087 0.989583,0 1.627604,-0.59895833 1.705729,-1.61458337 h -0.664062 c -0.117188,0.66406254 -0.45573,1.00260421 -1.028646,1.00260421 -0.729167,0 -1.171875,-0.59895831 -1.171875,-1.58854171 0,-1.0416666 0.429687,-1.6666666 1.158854,-1.6666666 0.559896,0 0.911458,0.3255208 0.989583,0.9114583 z m 2.399088,-1.5234375 c -1.171875,0 -1.875,0.8333333 -1.875,2.2395833 0,1.40625004 0.703125,2.23958337 1.888021,2.23958337 1.171875,0 1.888021,-0.83333333 1.888021,-2.20052087 0,-1.4453125 -0.690104,-2.2786458 -1.901042,-2.2786458 z m 0.01302,0.6119792 c 0.755208,0 1.197917,0.6119791 1.197917,1.6536458 0,0.9765625 -0.46875,1.60156251 -1.197917,1.60156251 -0.742187,0 -1.197917,-0.61197921 -1.197917,-1.62760421 0,-1.0026041 0.45573,-1.6276041 1.197917,-1.6276041 z m 2.815755,-0.4947917 V 9.4270833e-4 H 77.60958 V -2.3037448 c 0,-0.8463542 0.455729,-1.40625 1.132812,-1.40625 0.533855,0 0.859375,0.3125 0.859375,0.8203125 V 9.4270833e-4 H 80.26583 V -3.150099 c 0,-0.703125 -0.520833,-1.1458333 -1.328125,-1.1458333 -0.611979,0 -1.015625,0.234375 -1.380208,0.8203125 v -0.703125 z M 84.761273,-5.806349 H 84.09721 v 2.1614584 c -0.273437,-0.4296875 -0.729167,-0.6510417 -1.276042,-0.6510417 -1.09375,0 -1.796875,0.8723958 -1.796875,2.2005208 0,1.40625004 0.690105,2.27864587 1.809896,2.27864587 0.585938,0 0.976563,-0.20833333 1.341146,-0.72916666 V 9.4270833e-4 h 0.585938 z m -1.835938,2.1354167 c 0.716146,0 1.171875,0.6380208 1.171875,1.6276042 0,0.9635416 -0.455729,1.60156247 -1.158854,1.60156247 -0.742188,0 -1.223958,-0.63802087 -1.223958,-1.61458337 0,-0.9765625 0.48177,-1.6145833 1.210937,-1.6145833 z m 5.813802,0.6640625 c -0.01302,-0.8203125 -0.546875,-1.2890625 -1.510417,-1.2890625 -0.976562,0 -1.601562,0.5078125 -1.601562,1.2760417 0,0.6510416 0.325521,0.9635416 1.315104,1.1979166 l 0.625,0.15625 c 0.46875,0.1171875 0.651042,0.2864584 0.651042,0.5859375 0,0.39062504 -0.390625,0.65104171 -0.976563,0.65104171 -0.364583,0 -0.664062,-0.10416667 -0.833333,-0.2734375 -0.104167,-0.13020834 -0.143229,-0.24739584 -0.182292,-0.53385421 h -0.703125 c 0.02604,0.96354171 0.572917,1.41927087 1.666667,1.41927087 1.041667,0 1.71875,-0.52083333 1.71875,-1.32812497 0,-0.6119792 -0.351563,-0.9635417 -1.184896,-1.1588542 L 87.085491,-2.446974 c -0.533854,-0.1302083 -0.768229,-0.3125 -0.768229,-0.5989583 0,-0.390625 0.338542,-0.6380208 0.885417,-0.6380208 0.533854,0 0.820312,0.234375 0.833333,0.6770833 z m 1.236979,4.7005208 c 0.794271,-1.04166663 1.302084,-2.49999996 1.302084,-3.75 0,-1.2630208 -0.507813,-2.7083333 -1.302084,-3.75 h -0.442708 c 0.703125,1.1328125 1.09375,2.4739584 1.09375,3.75 0,1.26302087 -0.390625,2.61718754 -1.09375,3.75 z m 0,0"
       style="fill:#000000;fill-opacity:1;fill-rule:nonzero;stroke:none"
       aria-label="ExecutionTime(seconds)"
       transform="matrix(0,-1.2,1.2,0,11.0184,134.15493)" />
  </g>
</svg>
