<?xml version="1.0" encoding="UTF-8" standalone="no"?>
<!-- Created with Inkscape (http://www.inkscape.org/) -->

<svg
   version="1.1"
   id="svg1"
   width="303.16666"
   height="180.62666"
   viewBox="0 0 303.16666 180.62666"
   xmlns="http://www.w3.org/2000/svg"
   xmlns:svg="http://www.w3.org/2000/svg">
  <defs
     id="defs1" />
  <g
     id="g1">
    <path
       id="path1"
       d="M -38.75407,-14.17339 H 38.75409 V 14.1734 h -77.50816 z"
       style="fill:#e6f7fd;fill-opacity:1;fill-rule:nonzero;stroke:#006395;stroke-width:0.74721;stroke-linecap:butt;stroke-linejoin:miter;stroke-miterlimit:10;stroke-dasharray:none;stroke-opacity:1"
       transform="matrix(1.3333333,0,0,-1.3333333,52.169333,19.396)" />
    <path
       id="path2"
       d="m 1.4516875,-2.6491484 h 2.7773437 v -0.65625 H 1.4516875 V -5.1569609 H 4.61575 v -0.65625 H 0.71340625 V -7.109375e-4 H 1.4516875 Z m 4.8837891,0.1875 h 1.828125 c 0.4570312,0 0.8085937,-0.140625 1.125,-0.4101563 0.3515625,-0.328125 0.5039062,-0.703125 0.5039062,-1.2304687 0,-1.0898438 -0.65625,-1.7109375 -1.7929687,-1.7109375 H 5.5971953 v 5.8124999625 h 0.7382813 z m 0,-0.65625 v -2.0390625 h 1.546875 c 0.7148437,0 1.1367187,0.3867187 1.1367187,1.0195312 0,0.6328125 -0.421875,1.0195313 -1.1367187,1.0195313 z m 5.6074214,0.5273437 h 0.09375 l 0.292969,-0.011719 c 0.773438,0 1.171875,0.3515625 1.171875,1.03125 0,0.71484371 -0.445312,1.13671871 -1.171875,1.13671871 -0.761719,0 -1.136719,-0.38671875 -1.183594,-1.20703121 h -0.703125 c 0.02344,0.4570312 0.105469,0.74999996 0.246094,1.00781246 0.28125,0.5390625 0.84375,0.8203125 1.617188,0.8203125 1.160156,0 1.910156,-0.703125 1.910156,-1.76953126 0,-0.7148437 -0.28125,-1.1132812 -0.960938,-1.3476562 0.527344,-0.1992188 0.796875,-0.5976563 0.796875,-1.171875 0,-0.9609375 -0.644531,-1.546875 -1.722656,-1.546875 -1.136719,0 -1.746094,0.6210937 -1.769531,1.828125 h 0.703125 c 0,-0.3515625 0.03516,-0.5390625 0.128906,-0.7148438 0.152344,-0.3046875 0.503906,-0.5039062 0.949219,-0.5039062 0.621094,0 0.996094,0.375 0.996094,0.9726562 0,0.3984375 -0.152344,0.6328125 -0.457032,0.7617188 -0.1875,0.082031 -0.445312,0.1054687 -0.9375,0.1171875 z m 6.706055,1.89843751 h -2.976562 c 0.08203,-0.46875001 0.328125,-0.76171871 1.019531,-1.16015621 l 0.796875,-0.4335938 c 0.796875,-0.4335937 1.195312,-1.0195312 1.195312,-1.7109375 0,-0.46875 -0.1875,-0.9023437 -0.515625,-1.2070312 -0.339843,-0.3046875 -0.75,-0.4453125 -1.289062,-0.4453125 -0.714844,0 -1.253906,0.2578125 -1.558594,0.7265625 -0.199219,0.3046875 -0.292969,0.65625 -0.304687,1.2304687 h 0.703125 c 0.02344,-0.375 0.07031,-0.609375 0.164062,-0.796875 0.1875,-0.3398437 0.550781,-0.5507812 0.972656,-0.5507812 0.632813,0 1.113282,0.4570312 1.113282,1.0664062 0,0.4453125 -0.257813,0.8203125 -0.761719,1.1132813 l -0.738281,0.4101562 c -1.171875,0.6679688 -1.511719,1.2070313 -1.582032,2.4492187625 h 3.761719 z m 0,0"
       style="fill:#000000;fill-opacity:1;fill-rule:nonzero;stroke:none"
       aria-label="FP32"
       transform="matrix(1.3333333,0,0,1.3333333,39.470667,16.762667)" />
    <path
       id="path3"
       d="M 5.6470625,-3.0702031 H 3.2212813 v 0.65625 h 1.7695312 v 0.1640625 c 0,1.03125 -0.7617187,1.78124998 -1.8164062,1.78124998 -0.5976563,0 -1.125,-0.2109375 -1.4648438,-0.58593748 -0.3867187,-0.421875 -0.6210937,-1.1132813 -0.6210937,-1.828125 0,-1.4296875 0.8203125,-2.3671875 2.0390625,-2.3671875 0.890625,0 1.5234375,0.4570312 1.6875,1.2070312 h 0.75 C 5.3658125,-5.2264531 4.4634688,-5.9061406 3.13925,-5.9061406 c -0.7148437,0 -1.2890625,0.1875 -1.734375,0.5625 -0.66796875,0.5507812 -1.0546875,1.453125 -1.0546875,2.4960937 0,1.7929688 1.0898438,3.03515628 2.6601563,3.03515628 0.7851562,0 1.4179687,-0.3046875 1.9804687,-0.92578125 l 0.1875,0.7734375 h 0.46875 z M 6.7515547,-4.1717656 V 1.09375e-4 H 7.4195234 V -2.1678594 c 0,-0.5976562 0.1523438,-0.984375 0.46875,-1.21875 0.2109375,-0.1523437 0.4101563,-0.1992187 0.8671875,-0.2109375 v -0.6679687 c -0.1054687,-0.023437 -0.1640625,-0.035156 -0.2460937,-0.035156 -0.4335938,0 -0.7617188,0.2578125 -1.1484375,0.8789063 v -0.75 z m 6.2900393,3.78515623 c -0.07031,0.0117188 -0.105469,0.0117188 -0.140625,0.0117188 -0.234375,0 -0.363281,-0.1171875 -0.363281,-0.328125 V -3.1522344 c 0,-0.75 -0.539063,-1.1484375 -1.570313,-1.1484375 -0.609375,0 -1.1132812,0.1757813 -1.3828125,0.4921875 -0.1992187,0.2109375 -0.2695312,0.4570313 -0.2929687,0.8671875 h 0.6679687 c 0.058592,-0.5039062 0.3632815,-0.7382812 0.9843755,-0.7382812 0.597656,0 0.9375,0.2226562 0.9375,0.6210937 v 0.1757813 c 0,0.28125 -0.175782,0.3984375 -0.703125,0.4570312 -0.9375,0.1171875 -1.078125,0.1523438 -1.335938,0.2578125 -0.4804687,0.1992188 -0.7265625,0.5742188 -0.7265625,1.1132813 0,0.76171873 0.515625,1.24218748 1.3710935,1.24218748 0.515625,0 0.9375,-0.187500005 1.417969,-0.62109375 0.04687,0.421875 0.246094,0.62109375 0.679688,0.62109375 0.140625,0 0.234375,-0.0234375 0.457031,-0.0703125 z M 11.881438,-1.3123906 c 0,0.2226562 -0.07031,0.35156248 -0.269532,0.53906248 -0.269531,0.24609375 -0.597656,0.375 -0.984375,0.375 -0.515625,0 -0.8203122,-0.24609375 -0.8203122,-0.66796878 0,-0.4453125 0.2929692,-0.6679687 0.9960942,-0.7617187 0.703125,-0.1054688 0.84375,-0.1289063 1.078125,-0.234375 z m 5.273437,-4.5 h -0.667969 v 2.1679687 c -0.28125,-0.421875 -0.726562,-0.65625 -1.277343,-0.65625 -1.089844,0 -1.792969,0.8789063 -1.792969,2.203125 0,1.41796878 0.691406,2.28515628 1.816406,2.28515628 0.574219,0 0.972656,-0.22265625 1.324219,-0.73828125 V 1.09375e-4 h 0.597656 z m -1.839844,2.1445312 c 0.714844,0 1.171875,0.6328125 1.171875,1.6289063 0,0.9609375 -0.457031,1.60546873 -1.160156,1.60546873 -0.738281,0 -1.21875,-0.64453123 -1.21875,-1.61718753 0,-0.9726562 0.480469,-1.6171875 1.207031,-1.6171875 z m 3.518555,-0.5039062 h -0.65625 V 1.09375e-4 h 0.65625 z m 0,-1.640625 h -0.667969 v 0.84375 h 0.667969 z m 4.664062,3.9492187 c 0,-0.6445312 -0.04687,-1.0195312 -0.164062,-1.3359375 -0.28125,-0.6796875 -0.914063,-1.1015625 -1.699219,-1.1015625 -1.160156,0 -1.910156,0.9023438 -1.910156,2.2734375 0,1.37109378 0.726562,2.21484378 1.898437,2.21484378 0.960938,0 1.617188,-0.55078125 1.78125,-1.45312498 H 22.73593 c -0.175782,0.55078123 -0.550782,0.83203123 -1.089844,0.83203123 -0.421875,0 -0.785156,-0.1875 -1.007813,-0.5390625 C 20.48593,-1.2069219 20.427336,-1.4530156 20.415617,-1.8631719 Z m -3.058593,-0.5390625 c 0.04687,-0.7734375 0.527343,-1.2773437 1.195312,-1.2773437 0.644531,0 1.148438,0.5390625 1.148438,1.2304687 0,0.011719 0,0.023437 0,0.046875 z m 3.960937,-1.7695312 V 1.09375e-4 h 0.667969 V -2.3084844 c 0,-0.84375 0.445312,-1.40625 1.125,-1.40625 0.527344,0 0.867187,0.3164063 0.867187,0.8203125 V 1.09375e-4 h 0.65625 V -3.1522344 c 0,-0.6914062 -0.515625,-1.1484375 -1.324218,-1.1484375 -0.621094,0 -1.019532,0.2460938 -1.382813,0.8320313 v -0.703125 z m 5.897461,0 h -0.691406 v -1.1484375 h -0.65625 v 1.1484375 h -0.5625 v 0.5390625 h 0.5625 v 3.15234373 c 0,0.421875 0.28125,0.66796875 0.796875,0.66796875 0.164062,0 0.328125,-0.0234375 0.550781,-0.0585938 v -0.5625 c -0.09375,0.0234375 -0.199219,0.0351563 -0.316406,0.0351563 -0.292969,0 -0.375,-0.0820313 -0.375,-0.375 V -3.6327031 h 0.691406 z m 3.679688,1.1601562 c -0.01172,-0.8203125 -0.550782,-1.2890625 -1.511719,-1.2890625 -0.972656,0 -1.605469,0.5039063 -1.605469,1.2773438 0,0.65625 0.339844,0.9726562 1.324219,1.2070312 l 0.621094,0.1523438 c 0.457031,0.1054687 0.644531,0.28125 0.644531,0.5859375 0,0.38671873 -0.386719,0.64453123 -0.972656,0.64453123 -0.363282,0 -0.65625,-0.10546875 -0.832032,-0.28125 -0.105468,-0.1171875 -0.152343,-0.234375 -0.1875,-0.52734373 h -0.703125 c 0.03516,0.96093748 0.574219,1.42968748 1.664063,1.42968748 1.054687,0 1.722656,-0.52734375 1.722656,-1.32421878 0,-0.6210937 -0.351562,-0.9726562 -1.183594,-1.171875 l -0.632812,-0.140625 c -0.539063,-0.1289062 -0.773438,-0.3046875 -0.773438,-0.5976562 0,-0.3867188 0.339844,-0.6328125 0.890625,-0.6328125 0.527344,0 0.820313,0.234375 0.832032,0.6679687 z m 0,0"
       style="fill:#000000;fill-opacity:1;fill-rule:nonzero;stroke:none"
       aria-label="Gradients"
       transform="matrix(1.3333333,0,0,1.3333333,29.189333,29.382667)" />
    <path
       id="path4"
       d="m 110.3683,-14.17339 h 77.50816 V 14.1734 H 110.3683 Z"
       style="fill:#e6f7fd;fill-opacity:1;fill-rule:nonzero;stroke:#006395;stroke-width:0.74721;stroke-linecap:butt;stroke-linejoin:miter;stroke-miterlimit:10;stroke-dasharray:none;stroke-opacity:1"
       transform="matrix(1.3333333,0,0,-1.3333333,52.169333,19.396)" />
    <path
       id="path5"
       d="m 1.4529219,-2.6498125 h 2.7773437 v -0.65625 H 1.4529219 V -5.157625 h 3.1640625 v -0.65625 H 0.71464063 v 5.8125 H 1.4529219 Z m 4.8808594,0.1875 h 1.828125 c 0.4570312,0 0.8085937,-0.140625 1.125,-0.4101563 0.3515625,-0.328125 0.5039062,-0.703125 0.5039062,-1.2304687 0,-1.0898438 -0.65625,-1.7109375 -1.7929687,-1.7109375 H 5.5955 v 5.8125 h 0.7382813 z m 0,-0.65625 V -5.157625 h 1.546875 c 0.7148437,0 1.1367187,0.3867187 1.1367187,1.0195312 0,0.6328125 -0.421875,1.0195313 -1.1367187,1.0195313 z m 5.6103517,0.5273437 h 0.09375 l 0.292969,-0.011719 c 0.773437,0 1.171875,0.3515625 1.171875,1.03125 0,0.71484375 -0.445313,1.13671875 -1.171875,1.13671875 -0.761719,0 -1.136719,-0.38671875 -1.183594,-1.20703125 h -0.703125 c 0.02344,0.4570312 0.105469,0.75 0.246094,1.0078125 0.28125,0.5390625 0.84375,0.8203125 1.617187,0.8203125 1.160156,0 1.910156,-0.703125 1.910156,-1.7695313 0,-0.7148437 -0.28125,-1.1132812 -0.960937,-1.3476562 0.527344,-0.1992188 0.796875,-0.5976563 0.796875,-1.171875 0,-0.9609375 -0.644531,-1.546875 -1.722656,-1.546875 -1.136719,0 -1.746094,0.6210937 -1.769532,1.828125 h 0.703125 c 0,-0.3515625 0.03516,-0.5390625 0.128907,-0.7148438 0.152343,-0.3046875 0.503906,-0.5039062 0.949218,-0.5039062 0.621094,0 0.996094,0.375 0.996094,0.9726562 0,0.3984375 -0.152344,0.6328125 -0.457031,0.7617188 -0.1875,0.082031 -0.445313,0.1054687 -0.9375,0.1171875 z m 6.703125,1.89843755 H 15.670695 C 15.752727,-1.1615313 15.99882,-1.4545 16.690227,-1.8529375 l 0.796875,-0.4335938 c 0.796875,-0.4335937 1.195312,-1.0195312 1.195312,-1.7109375 0,-0.46875 -0.1875,-0.9023437 -0.515625,-1.2070312 -0.339844,-0.3046875 -0.75,-0.4453125 -1.289062,-0.4453125 -0.714844,0 -1.253907,0.2578125 -1.558594,0.7265625 -0.199219,0.3046875 -0.292969,0.65625 -0.304688,1.2304687 h 0.703125 c 0.02344,-0.375 0.07031,-0.609375 0.164063,-0.796875 0.1875,-0.3398437 0.550781,-0.5507812 0.972656,-0.5507812 0.632813,0 1.113281,0.4570312 1.113281,1.0664062 0,0.4453125 -0.257812,0.8203125 -0.761718,1.1132813 l -0.738282,0.4101562 c -1.171875,0.6679688 -1.511718,1.2070313 -1.582031,2.4492188 h 3.761719 z m 6.782226,0.69140625 1.640625,-4.8632813 v 4.8632813 h 0.691407 v -5.8125 h -1.019532 l -1.6875,5.0625 -1.722656,-5.0625 h -1.03125 v 5.8125 h 0.703125 v -4.8632813 l 1.652344,4.8632813 z m 7.177735,-0.38671875 c -0.07031,0.0117188 -0.105469,0.0117188 -0.140625,0.0117188 -0.234375,0 -0.363281,-0.1171875 -0.363281,-0.328125 V -3.1537188 c 0,-0.75 -0.539063,-1.1484375 -1.570313,-1.1484375 -0.609375,0 -1.113281,0.1757813 -1.382812,0.4921875 -0.199219,0.2109375 -0.269532,0.4570313 -0.292969,0.8671875 h 0.667969 c 0.05859,-0.5039062 0.363281,-0.7382812 0.984375,-0.7382812 0.597656,0 0.9375,0.2226562 0.9375,0.6210937 v 0.1757813 c 0,0.28125 -0.175782,0.3984375 -0.703125,0.4570312 -0.9375,0.1171875 -1.078125,0.1523438 -1.335938,0.2578125 -0.480469,0.1992188 -0.726562,0.5742188 -0.726562,1.1132813 0,0.7617188 0.515625,1.24218755 1.371093,1.24218755 0.515625,0 0.9375,-0.1875 1.417969,-0.62109375 0.04687,0.421875 0.246094,0.62109375 0.679688,0.62109375 0.140625,0 0.234375,-0.0234375 0.457031,-0.0703125 z M 31.447063,-1.313875 c 0,0.2226562 -0.07031,0.3515625 -0.269532,0.5390625 -0.269531,0.24609375 -0.597656,0.375 -0.984375,0.375 -0.515625,0 -0.820312,-0.24609375 -0.820312,-0.6679688 0,-0.4453125 0.292969,-0.6679687 0.996094,-0.7617187 0.703125,-0.1054688 0.84375,-0.1289063 1.078125,-0.234375 z m 4.819335,-1.6992188 c -0.01172,-0.8203125 -0.550781,-1.2890625 -1.511718,-1.2890625 -0.972657,0 -1.605469,0.5039063 -1.605469,1.2773438 0,0.65625 0.339844,0.9726562 1.324219,1.2070312 l 0.621093,0.1523438 c 0.457032,0.1054687 0.644532,0.28125 0.644532,0.5859375 0,0.38671875 -0.386719,0.64453125 -0.972657,0.64453125 -0.363281,0 -0.65625,-0.10546875 -0.832031,-0.28125 -0.105469,-0.1171875 -0.152344,-0.234375 -0.1875,-0.52734375 h -0.703125 c 0.03516,0.9609375 0.574219,1.4296875 1.664063,1.4296875 1.054687,0 1.722656,-0.52734375 1.722656,-1.3242188 0,-0.6210937 -0.351563,-0.9726562 -1.183594,-1.171875 l -0.632812,-0.140625 C 34.074992,-2.5795 33.840617,-2.7552813 33.840617,-3.04825 c 0,-0.3867188 0.339844,-0.6328125 0.890625,-0.6328125 0.527344,0 0.820313,0.234375 0.832031,0.6679687 z M 38.78593,-4.17325 h -0.691407 v -1.1484375 h -0.65625 V -4.17325 h -0.5625 v 0.5390625 h 0.5625 v 3.15234375 c 0,0.421875 0.28125,0.66796875 0.796875,0.66796875 0.164063,0 0.328125,-0.0234375 0.550782,-0.0585938 v -0.5625 c -0.09375,0.0234375 -0.199219,0.0351563 -0.316407,0.0351563 -0.292968,0 -0.375,-0.0820313 -0.375,-0.375 v -2.859375 h 0.691407 z m 4.277343,2.3085937 c 0,-0.6445312 -0.04687,-1.0195312 -0.164062,-1.3359375 -0.28125,-0.6796875 -0.914063,-1.1015625 -1.699219,-1.1015625 -1.160156,0 -1.910156,0.9023438 -1.910156,2.2734375 0,1.3710938 0.726562,2.2148438 1.898437,2.2148438 0.960938,0 1.617188,-0.55078125 1.78125,-1.453125 h -0.667968 c -0.175782,0.55078125 -0.550782,0.83203125 -1.089844,0.83203125 -0.421875,0 -0.785156,-0.1875 -1.007813,-0.5390625 C 40.051555,-1.2084063 39.992961,-1.4545 39.981242,-1.8646563 Z M 40.00468,-2.4037188 c 0.04687,-0.7734375 0.527343,-1.2773437 1.195312,-1.2773437 0.644531,0 1.148438,0.5390625 1.148438,1.2304687 0,0.011719 0,0.023437 0,0.046875 z M 43.956828,-4.17325 v 4.171875 h 0.667969 v -2.1679688 c 0,-0.5976562 0.152344,-0.984375 0.46875,-1.21875 0.210937,-0.1523437 0.410156,-0.1992187 0.867187,-0.2109375 V -4.267 c -0.105468,-0.023437 -0.164062,-0.035156 -0.246093,-0.035156 -0.433594,0 -0.761719,0.2578125 -1.148438,0.8789063 v -0.75 z m 0,0"
       style="fill:#000000;fill-opacity:1;fill-rule:nonzero;stroke:none"
       aria-label="FP32Master"
       transform="matrix(1.3333333,0,0,1.3333333,220.28933,15.689333)" />
    <path
       id="path6"
       d="M 5.9303203,-5.546875e-4 7.4068828,-5.8130547 H 6.5748516 L 5.5084453,-1.0903984 4.1842266,-5.8130547 H 3.3873516 L 2.0982891,-1.0903984 1.0084453,-5.8130547 H 0.17641406 L 1.6646953,-5.546875e-4 H 2.4732891 L 3.7740703,-4.7700859 5.1217266,-5.546875e-4 Z M 11.37368,-1.8638359 c 0,-0.6445313 -0.04687,-1.0195313 -0.164063,-1.3359375 -0.28125,-0.6796875 -0.914062,-1.1015625 -1.6992186,-1.1015625 -1.1601562,0 -1.9101562,0.9023437 -1.9101562,2.2734375 0,1.37109371 0.7265625,2.21484371 1.8984375,2.21484371 0.9609373,0 1.6171873,-0.55078125 1.7812503,-1.45312501 h -0.667969 c -0.175781,0.55078126 -0.550781,0.83203126 -1.0898438,0.83203126 -0.421875,0 -0.7851563,-0.1875 -1.0078125,-0.5390625 C 8.3619609,-1.2075859 8.3033672,-1.4536797 8.2916484,-1.8638359 Z M 8.3150859,-2.4028984 c 0.046875,-0.7734375 0.5273438,-1.2773438 1.1953125,-1.2773438 0.6445316,0 1.1484376,0.5390625 1.1484376,1.2304688 0,0.011719 0,0.023437 0,0.046875 z m 4.5966801,-1.7695313 h -0.65625 v 4.1718750125 h 0.65625 z m 0,-1.640625 h -0.667969 v 0.84375 h 0.667969 z m 3.855468,1.640625 v 0.5976563 c -0.328125,-0.4921875 -0.738281,-0.7265625 -1.277343,-0.7265625 -1.054688,0 -1.769532,0.9257812 -1.769532,2.2851562 0,0.6796875 0.175782,1.24218751 0.527344,1.64062501 0.304688,0.3515625 0.75,0.5625 1.195313,0.5625 0.515625,0 0.890625,-0.22265625 1.265625,-0.75 v 0.2109375 c 0,0.5625 -0.07031,0.9140625 -0.246094,1.13671875 -0.175781,0.24609374 -0.515625,0.39843754 -0.925781,0.39843754 -0.292969,0 -0.574219,-0.082031 -0.75,-0.22265629 -0.152344,-0.12890625 -0.222657,-0.234375 -0.257813,-0.48046875 h -0.679687 c 0.07031,0.78515624 0.691406,1.25390624 1.664062,1.25390624 0.621094,0 1.160156,-0.1992187 1.429688,-0.5273437 0.316406,-0.38671879 0.445312,-0.91406254 0.445312,-1.88671879 V -4.1724297 Z m -1.207031,0.4921875 c 0.726563,0 1.148438,0.609375 1.148438,1.6523438 0,0.9960937 -0.433594,1.59374996 -1.136719,1.59374996 -0.726563,0 -1.160156,-0.60937496 -1.160156,-1.61718746 0,-1.0078125 0.445312,-1.6289063 1.148437,-1.6289063 z m 2.917969,-2.1328125 v 5.8125000125 h 0.65625 V -2.3091484 c 0,-0.84375 0.445312,-1.40625 1.136719,-1.40625 0.210937,0 0.421875,0.070312 0.585937,0.1875 0.1875,0.140625 0.269531,0.3398437 0.269531,0.6328125 v 2.8945312125 h 0.65625 V -3.1528984 c 0,-0.703125 -0.492187,-1.1484375 -1.3125,-1.1484375 -0.585937,0 -0.949218,0.1875 -1.335937,0.703125 v -2.2148438 z m 5.897461,1.640625 h -0.691406 v -1.1484375 h -0.65625 v 1.1484375 h -0.5625 v 0.5390625 h 0.5625 v 3.15234376 c 0,0.421875 0.28125,0.66796875 0.796875,0.66796875 0.164062,0 0.328125,-0.0234375 0.550781,-0.0585938 v -0.5625 c -0.09375,0.0234375 -0.199219,0.0351563 -0.316406,0.0351563 -0.292969,0 -0.375,-0.0820313 -0.375,-0.375 V -3.6333672 h 0.691406 z m 3.679687,1.1601563 c -0.01172,-0.8203125 -0.550781,-1.2890625 -1.511718,-1.2890625 -0.972657,0 -1.605469,0.5039062 -1.605469,1.2773437 0,0.65625 0.339844,0.9726563 1.324219,1.2070313 l 0.621093,0.1523437 c 0.457032,0.1054688 0.644532,0.28125 0.644532,0.5859375 0,0.38671876 -0.386719,0.64453126 -0.972657,0.64453126 -0.363281,0 -0.65625,-0.10546875 -0.832031,-0.28125 -0.105469,-0.1171875 -0.152344,-0.234375 -0.1875,-0.52734376 h -0.703125 c 0.03516,0.96093751 0.574219,1.42968751 1.664063,1.42968751 1.054687,0 1.722656,-0.52734375 1.722656,-1.32421871 0,-0.6210938 -0.351563,-0.9726563 -1.183594,-1.171875 l -0.632812,-0.140625 c -0.539063,-0.1289063 -0.773438,-0.3046875 -0.773438,-0.5976563 0,-0.3867187 0.339844,-0.6328125 0.890625,-0.6328125 0.527344,0 0.820313,0.234375 0.832031,0.6679688 z m 0,0"
       style="fill:#000000;fill-opacity:1;fill-rule:nonzero;stroke:none"
       aria-label="Weights"
       transform="matrix(1.3333333,0,0,1.3333333,231.964,28.309333)" />
    <path
       id="path7"
       d="m 110.3683,-67.36235 h 77.50816 v 28.34679 H 110.3683 Z"
       style="fill:#e5f5ec;fill-opacity:1;fill-rule:nonzero;stroke:#008f45;stroke-width:0.74721;stroke-linecap:butt;stroke-linejoin:miter;stroke-miterlimit:10;stroke-dasharray:none;stroke-opacity:1"
       transform="matrix(1.3333333,0,0,-1.3333333,52.169333,19.396)" />
    <path
       id="path8"
       d="M 1.4527813,-2.6493359 H 4.230125 v -0.65625 H 1.4527813 v -1.8515625 h 3.1640625 v -0.65625 H 0.7145 v 5.8124999625 h 0.7382813 z m 4.8808593,0.1875 h 1.828125 c 0.4570313,0 0.8085938,-0.140625 1.125,-0.4101563 0.3515625,-0.328125 0.5039063,-0.703125 0.5039063,-1.2304687 0,-1.0898438 -0.65625,-1.7109375 -1.7929688,-1.7109375 H 5.5953594 v 5.8124999625 h 0.7382812 z m 0,-0.65625 v -2.0390625 h 1.546875 c 0.7148438,0 1.1367188,0.3867187 1.1367188,1.0195312 0,0.6328125 -0.421875,1.0195313 -1.1367188,1.0195313 z M 12.24868,-4.0204297 v 4.0195312625 h 0.703125 V -5.6493359 h -0.457032 c -0.257812,0.8671875 -0.410156,0.984375 -1.5,1.125 v 0.5039062 z m 6.339843,-0.1523437 c -0.140625,-0.9257813 -0.75,-1.4765625 -1.605468,-1.4765625 -0.621094,0 -1.183594,0.3046875 -1.511719,0.8085937 -0.351563,0.5390625 -0.515625,1.2421875 -0.515625,2.2617188 0,0.9492187 0.140625,1.5585937 0.480469,2.06249996 0.304687,0.45703125 0.796875,0.703125 1.417968,0.703125 1.078125,0 1.851563,-0.796875 1.851563,-1.91015626 0,-1.0546875 -0.714844,-1.7929687 -1.734375,-1.7929687 -0.550781,0 -0.996094,0.2109375 -1.300781,0.6328125 0.01172,-1.3828125 0.457031,-2.1445313 1.265625,-2.1445313 0.492187,0 0.832031,0.3046875 0.949218,0.8554688 z m -1.699218,1.2773437 c 0.679687,0 1.101562,0.46875 1.101562,1.2304688 0,0.70312496 -0.480469,1.23046871 -1.125,1.23046871 -0.65625,0 -1.148437,-0.55078125 -1.148437,-1.27734371 0,-0.6914063 0.480468,-1.1835938 1.171875,-1.1835938 z m 0,0"
       style="fill:#000000;fill-opacity:1;fill-rule:nonzero;stroke:none"
       aria-label="FP16"
       transform="matrix(1.3333333,0,0,1.3333333,238.29733,86.606667)" />
    <path
       id="path9"
       d="M 5.9303203,-7.8125e-5 7.4068828,-5.8125781 H 6.5748516 L 5.5084453,-1.0899219 4.1842266,-5.8125781 H 3.3873516 L 2.0982891,-1.0899219 1.0084453,-5.8125781 H 0.17641406 L 1.6646953,-7.8125e-5 H 2.4732891 L 3.7740703,-4.7696094 5.1217266,-7.8125e-5 Z M 11.37368,-1.8633594 c 0,-0.6445312 -0.04687,-1.0195312 -0.164063,-1.3359375 -0.28125,-0.6796875 -0.914062,-1.1015625 -1.6992186,-1.1015625 -1.1601562,0 -1.9101562,0.9023438 -1.9101562,2.2734375 0,1.37109377 0.7265625,2.21484377 1.8984375,2.21484377 0.9609373,0 1.6171873,-0.55078125 1.7812503,-1.45312497 h -0.667969 c -0.175781,0.55078122 -0.550781,0.83203122 -1.0898438,0.83203122 -0.421875,0 -0.7851563,-0.1875 -1.0078125,-0.5390625 C 8.3619609,-1.2071094 8.3033672,-1.4532031 8.2916484,-1.8633594 Z M 8.3150859,-2.4024219 c 0.046875,-0.7734375 0.5273438,-1.2773437 1.1953125,-1.2773437 0.6445316,0 1.1484376,0.5390625 1.1484376,1.2304687 0,0.011719 0,0.023437 0,0.046875 z m 4.5966801,-1.7695312 h -0.65625 V -7.8125e-5 h 0.65625 z m 0,-1.640625 h -0.667969 v 0.84375 h 0.667969 z m 3.855468,1.640625 v 0.5976562 c -0.328125,-0.4921875 -0.738281,-0.7265625 -1.277343,-0.7265625 -1.054688,0 -1.769532,0.9257813 -1.769532,2.2851563 0,0.6796875 0.175782,1.24218747 0.527344,1.64062497 0.304688,0.3515625 0.75,0.5625 1.195313,0.5625 0.515625,0 0.890625,-0.22265625 1.265625,-0.75 v 0.2109375 c 0,0.5625 -0.07031,0.9140625 -0.246094,1.13671875 -0.175781,0.24609378 -0.515625,0.39843748 -0.925781,0.39843748 -0.292969,0 -0.574219,-0.082031 -0.75,-0.22265623 -0.152344,-0.12890625 -0.222657,-0.234375 -0.257813,-0.48046875 h -0.679687 c 0.07031,0.78515628 0.691406,1.25390628 1.664062,1.25390628 0.621094,0 1.160156,-0.1992188 1.429688,-0.5273438 0.316406,-0.38671873 0.445312,-0.91406248 0.445312,-1.88671873 V -4.1719531 Z m -1.207031,0.4921875 c 0.726563,0 1.148438,0.609375 1.148438,1.6523437 0,0.9960938 -0.433594,1.59375002 -1.136719,1.59375002 -0.726563,0 -1.160156,-0.60937502 -1.160156,-1.61718752 0,-1.0078125 0.445312,-1.6289062 1.148437,-1.6289062 z m 2.917969,-2.1328125 V -7.8125e-5 h 0.65625 V -2.3086719 c 0,-0.84375 0.445312,-1.40625 1.136719,-1.40625 0.210937,0 0.421875,0.070312 0.585937,0.1875 0.1875,0.140625 0.269531,0.3398438 0.269531,0.6328125 V -7.8125e-5 h 0.65625 V -3.1524219 c 0,-0.703125 -0.492187,-1.1484375 -1.3125,-1.1484375 -0.585937,0 -0.949218,0.1875 -1.335937,0.703125 v -2.2148437 z m 5.897461,1.640625 h -0.691406 v -1.1484375 h -0.65625 v 1.1484375 h -0.5625 v 0.5390625 h 0.5625 v 3.15234372 c 0,0.421875 0.28125,0.66796875 0.796875,0.66796875 0.164062,0 0.328125,-0.0234375 0.550781,-0.0585938 v -0.5625 c -0.09375,0.0234375 -0.199219,0.0351563 -0.316406,0.0351563 -0.292969,0 -0.375,-0.0820313 -0.375,-0.375 V -3.6328906 h 0.691406 z m 3.679687,1.1601562 c -0.01172,-0.8203125 -0.550781,-1.2890625 -1.511718,-1.2890625 -0.972657,0 -1.605469,0.5039063 -1.605469,1.2773438 0,0.65625 0.339844,0.9726562 1.324219,1.2070312 l 0.621093,0.1523438 c 0.457032,0.1054687 0.644532,0.28125 0.644532,0.5859375 0,0.38671872 -0.386719,0.64453122 -0.972657,0.64453122 -0.363281,0 -0.65625,-0.10546875 -0.832031,-0.28125 -0.105469,-0.1171875 -0.152344,-0.234375 -0.1875,-0.52734372 h -0.703125 c 0.03516,0.96093747 0.574219,1.42968747 1.664063,1.42968747 1.054687,0 1.722656,-0.52734375 1.722656,-1.32421877 0,-0.6210937 -0.351563,-0.9726562 -1.183594,-1.171875 l -0.632812,-0.140625 c -0.539063,-0.1289062 -0.773438,-0.3046875 -0.773438,-0.5976562 0,-0.3867188 0.339844,-0.6328125 0.890625,-0.6328125 0.527344,0 0.820313,0.234375 0.832031,0.6679687 z m 0,0"
       style="fill:#000000;fill-opacity:1;fill-rule:nonzero;stroke:none"
       aria-label="Weights"
       transform="matrix(1.3333333,0,0,1.3333333,231.964,99.226667)" />
    <path
       id="path10"
       d="m 110.3683,-120.5513 h 77.50816 v 28.34679 H 110.3683 Z"
       style="fill:#e5f5ec;fill-opacity:1;fill-rule:nonzero;stroke:#008f45;stroke-width:0.74721;stroke-linecap:butt;stroke-linejoin:miter;stroke-miterlimit:10;stroke-dasharray:none;stroke-opacity:1"
       transform="matrix(1.3333333,0,0,-1.3333333,52.169333,19.396)" />
    <path
       id="path11"
       d="m 1.4542344,-2.6470547 h 2.7773437 v -0.65625 H 1.4542344 v -1.8515625 h 3.1640625 v -0.65625 H 0.71595313 V 0.00138281 H 1.4542344 Z m 5.34375,-1.6523437 c -1.171875,0 -1.8867188,0.84375 -1.8867188,2.25 0,1.39453121 0.703125,2.23828121 1.8984375,2.23828121 1.171875,0 1.8867188,-0.84375 1.8867188,-2.21484371 0,-1.4414063 -0.6914063,-2.2734375 -1.8984375,-2.2734375 z m 0.011719,0.6210937 c 0.75,0 1.1953125,0.609375 1.1953125,1.6523438 0,0.9726562 -0.46875,1.59374996 -1.1953125,1.59374996 -0.75,0 -1.1953125,-0.60937496 -1.1953125,-1.61718746 0,-1.0078125 0.4453125,-1.6289063 1.1953125,-1.6289063 z m 2.803711,-0.4921875 V 0.00138281 H 10.281383 V -2.1665859 c 0,-0.5976563 0.152344,-0.984375 0.46875,-1.21875 0.210937,-0.1523438 0.410156,-0.1992188 0.867187,-0.2109375 v -0.6679688 c -0.105468,-0.023437 -0.164062,-0.035156 -0.246093,-0.035156 -0.433594,0 -0.761719,0.2578125 -1.148438,0.8789062 v -0.75 z m 6.5214836,4.17187501 1.21875,-4.17187501 h -0.738281 l -0.832031,3.24609376 -0.820313,-3.24609376 h -0.820312 l -0.796875,3.24609376 -0.84375,-3.24609376 h -0.738281 l 1.207031,4.17187501 h 0.75 l 0.808594,-3.26953121 0.84375,3.26953121 z m 5.481446,-0.38671875 c -0.07031,0.0117188 -0.105469,0.0117188 -0.140625,0.0117188 -0.234375,0 -0.363281,-0.1171875 -0.363281,-0.328125 V -3.1509609 c 0,-0.75 -0.539063,-1.1484375 -1.570313,-1.1484375 -0.609375,0 -1.113281,0.1757812 -1.382812,0.4921875 -0.199219,0.2109375 -0.269532,0.4570312 -0.292969,0.8671875 h 0.667969 c 0.05859,-0.5039063 0.363281,-0.7382813 0.984375,-0.7382813 0.597656,0 0.9375,0.2226563 0.9375,0.6210938 v 0.1757812 c 0,0.28125 -0.175782,0.3984375 -0.703125,0.4570313 -0.9375,0.1171875 -1.078125,0.1523437 -1.335938,0.2578125 -0.480469,0.1992187 -0.726562,0.5742187 -0.726562,1.1132812 0,0.76171876 0.515625,1.24218751 1.371093,1.24218751 0.515625,0 0.9375,-0.1875 1.417969,-0.62109375 0.04687,0.421875 0.246094,0.62109375 0.679688,0.62109375 0.140625,0 0.234375,-0.0234375 0.457031,-0.0703125 z M 20.456188,-1.3111172 c 0,0.2226563 -0.07031,0.35156251 -0.269532,0.53906251 -0.269531,0.24609375 -0.597656,0.375 -0.984375,0.375 -0.515625,0 -0.820312,-0.24609375 -0.820312,-0.66796871 0,-0.4453125 0.292969,-0.6679688 0.996094,-0.7617188 0.703125,-0.1054687 0.84375,-0.1289062 1.078125,-0.234375 z m 1.877929,-2.859375 v 4.17187501 h 0.667969 V -2.1665859 c 0,-0.5976563 0.152344,-0.984375 0.46875,-1.21875 0.210937,-0.1523438 0.410156,-0.1992188 0.867187,-0.2109375 v -0.6679688 c -0.105468,-0.023437 -0.164062,-0.035156 -0.246093,-0.035156 -0.433594,0 -0.761719,0.2578125 -1.148438,0.8789062 v -0.75 z m 6.052735,-1.640625 h -0.667969 v 2.1679688 c -0.28125,-0.421875 -0.726563,-0.65625 -1.277344,-0.65625 -1.089844,0 -1.792969,0.8789062 -1.792969,2.203125 0,1.41796871 0.691407,2.28515621 1.816407,2.28515621 0.574218,0 0.972656,-0.22265625 1.324218,-0.73828125 v 0.55078125 h 0.597657 z m -1.839844,2.1445313 c 0.714844,0 1.171875,0.6328125 1.171875,1.6289062 0,0.9609375 -0.457031,1.60546876 -1.160156,1.60546876 -0.738282,0 -1.21875,-0.64453126 -1.21875,-1.61718746 0,-0.9726563 0.480468,-1.6171875 1.207031,-1.6171875 z m 6.439453,1.2070312 h 1.828125 c 0.457031,0 0.808594,-0.140625 1.125,-0.4101562 0.351562,-0.328125 0.503906,-0.703125 0.503906,-1.2304688 0,-1.0898437 -0.65625,-1.7109375 -1.792969,-1.7109375 H 32.24818 v 5.81250001 h 0.738281 z m 0,-0.65625 v -2.0390625 h 1.546875 c 0.714844,0 1.136719,0.3867188 1.136719,1.0195313 0,0.6328125 -0.421875,1.0195312 -1.136719,1.0195312 z m 7.807617,2.73046876 c -0.07031,0.0117188 -0.105469,0.0117188 -0.140625,0.0117188 -0.234375,0 -0.363281,-0.1171875 -0.363281,-0.328125 V -3.1509609 c 0,-0.75 -0.539063,-1.1484375 -1.570313,-1.1484375 -0.609375,0 -1.113281,0.1757812 -1.382812,0.4921875 -0.199219,0.2109375 -0.269531,0.4570312 -0.292969,0.8671875 h 0.667969 c 0.05859,-0.5039063 0.363281,-0.7382813 0.984375,-0.7382813 0.597656,0 0.9375,0.2226563 0.9375,0.6210938 v 0.1757812 c 0,0.28125 -0.175781,0.3984375 -0.703125,0.4570313 -0.9375,0.1171875 -1.078125,0.1523437 -1.335938,0.2578125 -0.480468,0.1992187 -0.726562,0.5742187 -0.726562,1.1132812 0,0.76171876 0.515625,1.24218751 1.371094,1.24218751 0.515625,0 0.9375,-0.1875 1.417968,-0.62109375 0.04687,0.421875 0.246094,0.62109375 0.679688,0.62109375 0.140625,0 0.234375,-0.0234375 0.457031,-0.0703125 z M 39.633922,-1.3111172 c 0,0.2226563 -0.07031,0.35156251 -0.269531,0.53906251 -0.269532,0.24609375 -0.597657,0.375 -0.984375,0.375 -0.515625,0 -0.820313,-0.24609375 -0.820313,-0.66796871 0,-0.4453125 0.292969,-0.6679688 0.996094,-0.7617188 0.703125,-0.1054687 0.84375,-0.1289062 1.078125,-0.234375 z m 4.816406,-1.6992187 c -0.01172,-0.8203125 -0.550781,-1.2890625 -1.511719,-1.2890625 -0.972656,0 -1.605468,0.5039062 -1.605468,1.2773437 0,0.65625 0.339843,0.9726563 1.324218,1.2070313 l 0.621094,0.1523437 c 0.457031,0.1054688 0.644531,0.28125 0.644531,0.5859375 0,0.38671876 -0.386718,0.64453126 -0.972656,0.64453126 -0.363281,0 -0.65625,-0.10546875 -0.832031,-0.28125 -0.105469,-0.1171875 -0.152344,-0.234375 -0.1875,-0.52734376 h -0.703125 c 0.03516,0.96093751 0.574219,1.42968751 1.664062,1.42968751 1.054688,0 1.722657,-0.52734375 1.722657,-1.32421871 0,-0.6210938 -0.351563,-0.9726563 -1.183594,-1.171875 l -0.632813,-0.140625 c -0.539062,-0.1289063 -0.773437,-0.3046875 -0.773437,-0.5976563 0,-0.3867187 0.339844,-0.6328125 0.890625,-0.6328125 0.527344,0 0.820312,0.234375 0.832031,0.6679688 z m 3.984375,0 c -0.01172,-0.8203125 -0.550781,-1.2890625 -1.511719,-1.2890625 -0.972656,0 -1.605468,0.5039062 -1.605468,1.2773437 0,0.65625 0.339843,0.9726563 1.324218,1.2070313 l 0.621094,0.1523437 c 0.457031,0.1054688 0.644531,0.28125 0.644531,0.5859375 0,0.38671876 -0.386718,0.64453126 -0.972656,0.64453126 -0.363281,0 -0.65625,-0.10546875 -0.832031,-0.28125 -0.105469,-0.1171875 -0.152344,-0.234375 -0.1875,-0.52734376 h -0.703125 c 0.03516,0.96093751 0.574219,1.42968751 1.664062,1.42968751 1.054688,0 1.722657,-0.52734375 1.722657,-1.32421871 0,-0.6210938 -0.351563,-0.9726563 -1.183594,-1.171875 l -0.632813,-0.140625 c -0.539062,-0.1289063 -0.773437,-0.3046875 -0.773437,-0.5976563 0,-0.3867187 0.339844,-0.6328125 0.890625,-0.6328125 0.527344,0 0.820312,0.234375 0.832031,0.6679688 z m 0,0"
       style="fill:#000000;fill-opacity:1;fill-rule:nonzero;stroke:none"
       aria-label="ForwardPass"
       transform="matrix(1.3333333,0,0,1.3333333,218.38133,157.588)" />
    <path
       id="path12"
       d="m 1.8742188,-5.8132266 c -0.796875,1.0429688 -1.28906255,2.4960938 -1.28906255,3.75 0,1.25390629 0.49218755,2.70703129 1.28906255,3.75 h 0.4453125 c -0.703125,-1.13671871 -1.0898438,-2.47265621 -1.0898438,-3.75 0,-1.265625 0.3867188,-2.6132812 1.0898438,-3.75 z m 2.2324218,3.1640625 h 2.7773438 v -0.65625 H 4.1066406 v -1.8515625 h 3.1640625 v -0.65625 H 3.3683594 v 5.8125000375 h 0.7382812 z m 4.8808594,0.1875 h 1.828125 c 0.457031,0 0.808594,-0.140625 1.125,-0.4101562 0.351563,-0.328125 0.503906,-0.703125 0.503906,-1.2304688 0,-1.0898437 -0.65625,-1.7109375 -1.792968,-1.7109375 H 8.2492188 V -7.265625e-4 H 8.9875 Z m 0,-0.65625 v -2.0390625 h 1.546875 c 0.714844,0 1.136719,0.3867188 1.136719,1.0195313 0,0.6328125 -0.421875,1.0195312 -1.136719,1.0195312 z m 5.915039,-0.9023437 v 4.0195312375 h 0.703125 V -5.6491641 h -0.457031 c -0.257813,0.8671875 -0.410156,0.984375 -1.5,1.125 v 0.5039063 z m 6.342774,-0.1523438 c -0.140625,-0.9257812 -0.75,-1.4765625 -1.605469,-1.4765625 -0.621094,0 -1.183594,0.3046875 -1.511719,0.8085938 -0.351562,0.5390625 -0.515625,1.2421875 -0.515625,2.2617187 0,0.9492188 0.140625,1.5585938 0.480469,2.06250004 0.304687,0.45703125 0.796875,0.703125 1.417969,0.703125 1.078125,0 1.851562,-0.796875 1.851562,-1.91015624 0,-1.0546875 -0.714844,-1.7929688 -1.734375,-1.7929688 -0.550781,0 -0.996094,0.2109375 -1.300781,0.6328125 0.01172,-1.3828125 0.457031,-2.1445312 1.265625,-2.1445312 0.492187,0 0.832031,0.3046875 0.949219,0.8554687 z m -1.699219,1.2773438 c 0.679687,0 1.101562,0.46875 1.101562,1.2304687 0,0.70312504 -0.480468,1.23046879 -1.125,1.23046879 -0.65625,0 -1.148437,-0.55078125 -1.148437,-1.27734379 0,-0.6914062 0.480469,-1.1835937 1.171875,-1.1835937 z m 6.193359,-2.9179688 h -0.75 v 5.8125000375 h 3.609375 V -0.65697656 h -2.859375 z m 5.217774,1.5117188 c -1.171875,0 -1.886719,0.84375 -1.886719,2.25 0,1.39453124 0.703125,2.23828124 1.898437,2.23828124 1.171875,0 1.886719,-0.84375 1.886719,-2.21484374 0,-1.4414063 -0.691406,-2.2734375 -1.898437,-2.2734375 z m 0.01172,0.6210937 c 0.75,0 1.195313,0.609375 1.195313,1.6523438 0,0.9726562 -0.46875,1.59374999 -1.195313,1.59374999 -0.75,0 -1.195312,-0.60937499 -1.195312,-1.61718749 0,-1.0078125 0.445312,-1.6289063 1.195312,-1.6289063 z m 5.742188,0.6679688 c -0.01172,-0.8203125 -0.550781,-1.2890625 -1.511719,-1.2890625 -0.972656,0 -1.605469,0.5039062 -1.605469,1.2773437 0,0.65625 0.339844,0.9726563 1.324219,1.2070313 l 0.621094,0.1523437 c 0.457031,0.1054688 0.644531,0.28125 0.644531,0.5859375 0,0.38671879 -0.386719,0.64453129 -0.972656,0.64453129 -0.363281,0 -0.65625,-0.10546875 -0.832031,-0.28125 -0.105469,-0.1171875 -0.152344,-0.234375 -0.1875,-0.52734379 h -0.703125 c 0.03516,0.96093754 0.574218,1.42968754 1.664062,1.42968754 1.054688,0 1.722656,-0.52734375 1.722656,-1.32421874 0,-0.6210938 -0.351562,-0.9726563 -1.183593,-1.171875 l -0.632813,-0.140625 c -0.539062,-0.1289063 -0.773437,-0.3046875 -0.773437,-0.5976563 0,-0.3867187 0.339843,-0.6328125 0.890625,-0.6328125 0.527343,0 0.820312,0.234375 0.832031,0.6679688 z m 3.984375,0 c -0.01172,-0.8203125 -0.550781,-1.2890625 -1.511719,-1.2890625 -0.972656,0 -1.605469,0.5039062 -1.605469,1.2773437 0,0.65625 0.339844,0.9726563 1.324219,1.2070313 l 0.621094,0.1523437 c 0.457031,0.1054688 0.644531,0.28125 0.644531,0.5859375 0,0.38671879 -0.386719,0.64453129 -0.972656,0.64453129 -0.363281,0 -0.65625,-0.10546875 -0.832031,-0.28125 -0.105469,-0.1171875 -0.152344,-0.234375 -0.1875,-0.52734379 h -0.703125 c 0.03516,0.96093754 0.574218,1.42968754 1.664062,1.42968754 1.054688,0 1.722656,-0.52734375 1.722656,-1.32421874 0,-0.6210938 -0.351562,-0.9726563 -1.183593,-1.171875 l -0.632813,-0.140625 c -0.539062,-0.1289063 -0.773437,-0.3046875 -0.773437,-0.5976563 0,-0.3867187 0.339843,-0.6328125 0.890625,-0.6328125 0.527343,0 0.820312,0.234375 0.832031,0.6679688 z m 1.233398,4.6992187 c 0.796875,-1.04296871 1.300782,-2.49609371 1.300782,-3.7382812 0,-1.265625 -0.503907,-2.71875 -1.300782,-3.7617188 h -0.433593 c 0.703125,1.1484375 1.089843,2.484375 1.089843,3.7617188 0,1.26562499 -0.386718,2.61328124 -1.089843,3.7382812 z m 0,0"
       style="fill:#000000;fill-opacity:1;fill-rule:nonzero;stroke:none"
       aria-label="(FP16Loss)"
       transform="matrix(1.3333333,0,0,1.3333333,221.76667,170.208)" />
    <path
       id="path13"
       d="m -38.75407,-120.5513 h 77.50816 v 28.34679 h -77.50816 z"
       style="fill:#fde6f4;fill-opacity:1;fill-rule:nonzero;stroke:#cb202d;stroke-width:0.74721;stroke-linecap:butt;stroke-linejoin:miter;stroke-miterlimit:10;stroke-dasharray:none;stroke-opacity:1"
       transform="matrix(1.3333333,0,0,-1.3333333,52.169333,19.396)" />
    <path
       id="path14"
       d="m 4.7462891,-4.1013594 c 0,-1.1367187 -0.7851563,-1.8046875 -2.1210938,-1.8046875 -1.2773437,0 -2.06249999,0.65625 -2.06249999,1.7109375 0,0.703125 0.375,1.1484375 1.13671879,1.3476563 l 1.4414062,0.3867187 c 0.7265625,0.1875 1.0664063,0.4804688 1.0664063,0.9375 0,0.3164063 -0.1640625,0.63281252 -0.4101563,0.80859377 -0.234375,0.15234375 -0.5976562,0.24609375 -1.0664062,0.24609375 -0.6328125,0 -1.0664063,-0.15234375 -1.3476563,-0.4921875 C 1.1720703,-1.2068281 1.0783203,-1.4880781 1.0783203,-1.8513594 H 0.38691406 c 0,0.5390625 0.10546875,0.89062502 0.33984375,1.20703127 0.39843749,0.5390625 1.06640629,0.83203125 1.94531249,0.83203125 0.703125,0 1.265625,-0.1640625 1.640625,-0.4453125 0.3867188,-0.31640625 0.6328125,-0.83203122 0.6328125,-1.33593752 0,-0.7148437 -0.4453125,-1.2421875 -1.2304687,-1.453125 L 2.2501953,-3.4451094 c -0.6914062,-0.1875 -0.9492187,-0.4101562 -0.9492187,-0.8554687 0,-0.5976563 0.515625,-0.984375 1.3007812,-0.984375 0.9257813,0 1.4414063,0.421875 1.4414063,1.1835937 z m 4.3183593,1.3242188 c -0.023437,-0.3984375 -0.1171875,-0.6679688 -0.28125,-0.890625 -0.28125,-0.3984375 -0.7851562,-0.6328125 -1.359375,-0.6328125 -1.125,0 -1.8632812,0.9023437 -1.8632812,2.2851562 0,1.34765627 0.7148437,2.20312502 1.8515625,2.20312502 0.9960937,0 1.6289062,-0.59765625 1.6992187,-1.61718752 H 8.4435547 c -0.1054688,0.66796877 -0.4570313,0.99609377 -1.0195313,0.99609377 -0.7265625,0 -1.171875,-0.59765627 -1.171875,-1.58203127 0,-1.0429687 0.4335938,-1.6640625 1.1601563,-1.6640625 0.5507812,0 0.9023437,0.328125 0.984375,0.9023438 z m 4.5029296,2.39062497 c -0.07031,0.0117188 -0.105469,0.0117188 -0.140625,0.0117188 -0.234375,0 -0.363281,-0.1171875 -0.363281,-0.328125 V -3.1521406 c 0,-0.75 -0.539063,-1.1484375 -1.570313,-1.1484375 -0.609375,0 -1.113281,0.1757812 -1.382812,0.4921875 -0.1992189,0.2109375 -0.2695314,0.4570312 -0.2929689,0.8671875 h 0.6679689 c 0.05859,-0.5039063 0.363281,-0.7382813 0.984375,-0.7382813 0.597656,0 0.9375,0.2226563 0.9375,0.6210938 v 0.1757812 c 0,0.28125 -0.175781,0.3984375 -0.703125,0.4570313 -0.9375,0.1171875 -1.078125,0.1523437 -1.335938,0.2578125 -0.4804684,0.1992187 -0.7265621,0.5742187 -0.7265621,1.1132812 0,0.76171877 0.5156251,1.24218752 1.3710941,1.24218752 0.515625,0 0.9375,-0.187499995 1.417968,-0.62109375 0.04687,0.421875 0.246094,0.62109375 0.679688,0.62109375 0.140625,0 0.234375,-0.0234375 0.457031,-0.0703125 z M 12.407422,-1.3122969 c 0,0.2226563 -0.07031,0.35156252 -0.269531,0.53906252 -0.269532,0.24609375 -0.597657,0.375 -0.984375,0.375 -0.515625,0 -0.820313,-0.24609375 -0.820313,-0.66796872 0,-0.4453125 0.292969,-0.6679688 0.996094,-0.7617188 0.703125,-0.1054687 0.84375,-0.1289062 1.078125,-0.234375 z m 2.53125,-4.5 H 14.270703 V 2.03125e-4 h 0.667969 z m 4.652344,3.9492188 c 0,-0.6445313 -0.04687,-1.0195313 -0.164063,-1.3359375 -0.28125,-0.6796875 -0.914062,-1.1015625 -1.699219,-1.1015625 -1.160156,0 -1.910156,0.9023437 -1.910156,2.2734375 0,1.37109372 0.726563,2.21484372 1.898438,2.21484372 0.960937,0 1.617187,-0.55078125 1.78125,-1.45312502 h -0.667969 c -0.175781,0.55078127 -0.550781,0.83203127 -1.089844,0.83203127 -0.421875,0 -0.785156,-0.1875 -1.007812,-0.5390625 C 16.579297,-1.2068281 16.520703,-1.4529219 16.508984,-1.8630781 Z m -3.058594,-0.5390625 c 0.04687,-0.7734375 0.527344,-1.2773438 1.195312,-1.2773438 0.644532,0 1.148438,0.5390625 1.148438,1.2304688 0,0.011719 0,0.023437 0,0.046875 z m 7.350586,-3.4101563 h -0.667969 v 2.1679688 c -0.28125,-0.421875 -0.726562,-0.65625 -1.277344,-0.65625 -1.089843,0 -1.792968,0.8789062 -1.792968,2.203125 0,1.41796872 0.691406,2.28515622 1.816406,2.28515622 0.574219,0 0.972656,-0.22265625 1.324219,-0.73828125 V 2.03125e-4 h 0.597656 z m -1.839844,2.1445313 c 0.714844,0 1.171875,0.6328125 1.171875,1.6289062 0,0.9609375 -0.457031,1.60546877 -1.160156,1.60546877 -0.738281,0 -1.21875,-0.64453127 -1.21875,-1.61718747 0,-0.9726563 0.480469,-1.6171875 1.207031,-1.6171875 z m 6.357422,-2.1445313 h -0.75 V 2.03125e-4 h 3.609375 V -0.65604688 h -2.859375 z m 5.217773,1.5117188 c -1.171875,0 -1.886718,0.84375 -1.886718,2.25 0,1.39453122 0.703125,2.23828122 1.898437,2.23828122 1.171875,0 1.886719,-0.84375 1.886719,-2.21484372 0,-1.4414063 -0.691406,-2.2734375 -1.898438,-2.2734375 z m 0.01172,0.6210937 c 0.75,0 1.195313,0.609375 1.195313,1.6523438 0,0.9726562 -0.46875,1.59374997 -1.195313,1.59374997 -0.75,0 -1.195312,-0.60937497 -1.195312,-1.61718747 0,-1.0078125 0.445312,-1.6289063 1.195312,-1.6289063 z m 5.742188,0.6679688 c -0.01172,-0.8203125 -0.550782,-1.2890625 -1.511719,-1.2890625 -0.972656,0 -1.605469,0.5039062 -1.605469,1.2773437 0,0.65625 0.339844,0.9726563 1.324219,1.2070313 l 0.621094,0.1523437 c 0.457031,0.1054688 0.644531,0.28125 0.644531,0.5859375 0,0.38671877 -0.386719,0.64453127 -0.972656,0.64453127 -0.363282,0 -0.65625,-0.10546875 -0.832032,-0.28125 -0.105468,-0.1171875 -0.152343,-0.234375 -0.1875,-0.52734377 H 36.14961 c 0.03516,0.96093752 0.574219,1.42968752 1.664063,1.42968752 1.054687,0 1.722656,-0.52734375 1.722656,-1.32421872 0,-0.6210938 -0.351562,-0.9726563 -1.183594,-1.171875 l -0.632812,-0.140625 c -0.539063,-0.1289063 -0.773438,-0.3046875 -0.773438,-0.5976563 0,-0.3867187 0.339844,-0.6328125 0.890625,-0.6328125 0.527344,0 0.820313,0.234375 0.832032,0.6679688 z m 3.987304,0 c -0.01172,-0.8203125 -0.550781,-1.2890625 -1.511718,-1.2890625 -0.972657,0 -1.605469,0.5039062 -1.605469,1.2773437 0,0.65625 0.339844,0.9726563 1.324219,1.2070313 l 0.621093,0.1523437 c 0.457032,0.1054688 0.644532,0.28125 0.644532,0.5859375 0,0.38671877 -0.386719,0.64453127 -0.972657,0.64453127 -0.363281,0 -0.65625,-0.10546875 -0.832031,-0.28125 -0.105469,-0.1171875 -0.152344,-0.234375 -0.1875,-0.52734377 h -0.703125 c 0.03516,0.96093752 0.574219,1.42968752 1.664063,1.42968752 1.054687,0 1.722656,-0.52734375 1.722656,-1.32421872 0,-0.6210938 -0.351563,-0.9726563 -1.183594,-1.171875 l -0.632812,-0.140625 c -0.539063,-0.1289063 -0.773438,-0.3046875 -0.773438,-0.5976563 0,-0.3867187 0.339844,-0.6328125 0.890625,-0.6328125 0.527344,0 0.820313,0.234375 0.832031,0.6679688 z m 0,0"
       style="fill:#000000;fill-opacity:1;fill-rule:nonzero;stroke:none"
       aria-label="ScaledLoss"
       transform="matrix(1.3333333,0,0,1.3333333,22.933333,157.71067)" />
    <path
       id="path15"
       d="m 1.8761953,-5.8114766 c -0.796875,1.0429688 -1.28906249,2.4960938 -1.28906249,3.75 0,1.25390629 0.49218749,2.70703129 1.28906249,3.75 h 0.4453125 c -0.703125,-1.13671871 -1.0898437,-2.47265621 -1.0898437,-3.75 0,-1.265625 0.3867187,-2.6132812 1.0898437,-3.75 z m 2.2324219,3.1640625 h 2.7773437 v -0.65625 H 4.1086172 v -1.8515625 h 3.1640625 v -0.65625 H 3.3703359 v 5.81250004 h 0.7382813 z m 4.8808594,0.1875 h 1.8281254 c 0.457031,0 0.808593,-0.140625 1.125,-0.4101562 0.351562,-0.328125 0.503906,-0.703125 0.503906,-1.2304688 0,-1.0898437 -0.65625,-1.7109375 -1.792969,-1.7109375 H 8.2511953 v 5.81250004 h 0.7382813 z m 0,-0.65625 v -2.0390625 h 1.5468754 c 0.714843,0 1.136718,0.3867188 1.136718,1.0195313 0,0.6328125 -0.421875,1.0195312 -1.136718,1.0195312 z m 5.6074214,0.5273438 h 0.09375 l 0.292969,-0.011719 c 0.773438,0 1.171875,0.3515625 1.171875,1.03125 0,0.71484379 -0.445312,1.13671879 -1.171875,1.13671879 -0.761719,0 -1.136719,-0.38671875 -1.183594,-1.20703129 h -0.703125 c 0.02344,0.4570313 0.105469,0.75000004 0.246094,1.00781254 0.28125,0.5390625 0.84375,0.8203125 1.617188,0.8203125 1.160156,0 1.910156,-0.703125 1.910156,-1.76953124 0,-0.7148438 -0.28125,-1.1132813 -0.960938,-1.3476563 0.527344,-0.1992187 0.796875,-0.5976562 0.796875,-1.171875 0,-0.9609375 -0.644531,-1.546875 -1.722656,-1.546875 -1.136719,0 -1.746094,0.6210938 -1.769531,1.828125 h 0.703125 c 0,-0.3515625 0.03516,-0.5390625 0.128906,-0.7148437 0.152344,-0.3046875 0.503906,-0.5039063 0.949219,-0.5039063 0.621094,0 0.996094,0.375 0.996094,0.9726563 0,0.3984375 -0.152344,0.6328125 -0.457032,0.7617187 -0.1875,0.082031 -0.445312,0.1054688 -0.9375,0.1171875 z m 6.706055,1.89843749 h -2.976562 c 0.08203,-0.46874999 0.328125,-0.76171879 1.019531,-1.16015629 l 0.796875,-0.4335937 c 0.796875,-0.4335938 1.195312,-1.0195313 1.195312,-1.7109375 0,-0.46875 -0.1875,-0.9023438 -0.515625,-1.2070313 -0.339843,-0.3046875 -0.75,-0.4453125 -1.289062,-0.4453125 -0.714844,0 -1.253906,0.2578125 -1.558594,0.7265625 -0.199219,0.3046875 -0.292969,0.65625 -0.304687,1.2304688 h 0.703125 c 0.02344,-0.375 0.07031,-0.609375 0.164062,-0.796875 0.1875,-0.3398438 0.550781,-0.5507813 0.972656,-0.5507813 0.632813,0 1.113282,0.4570313 1.113282,1.0664063 0,0.4453125 -0.257813,0.8203125 -0.761719,1.1132812 l -0.738281,0.4101563 c -1.171875,0.6679687 -1.511719,1.2070312 -1.582032,2.44921874 h 3.761719 z m 1.136719,2.37890621 c 0.796875,-1.04296871 1.300781,-2.49609371 1.300781,-3.7382812 0,-1.265625 -0.503906,-2.71875 -1.300781,-3.7617188 h -0.433594 c 0.703125,1.1484375 1.089844,2.484375 1.089844,3.7617188 0,1.26562499 -0.386719,2.61328124 -1.089844,3.7382812 z m 0,0"
       style="fill:#000000;fill-opacity:1;fill-rule:nonzero;stroke:none"
       aria-label="(FP32)"
       transform="matrix(1.3333333,0,0,1.3333333,35.932,170.33067)" />
    <path
       id="path16"
       d="m -38.75407,-67.36235 h 77.50816 v 28.34679 h -77.50816 z"
       style="fill:#fde6f4;fill-opacity:1;fill-rule:nonzero;stroke:#cb202d;stroke-width:0.74721;stroke-linecap:butt;stroke-linejoin:miter;stroke-miterlimit:10;stroke-dasharray:none;stroke-opacity:1"
       transform="matrix(1.3333333,0,0,-1.3333333,52.169333,19.396)" />
    <path
       id="path17"
       d="m 4.7458672,-4.1029766 c 0,-1.1367187 -0.7851563,-1.8046875 -2.1210938,-1.8046875 -1.2773437,0 -2.06249996,0.65625 -2.06249996,1.7109375 0,0.703125 0.375,1.1484375 1.13671876,1.3476563 l 1.4414062,0.3867187 c 0.7265625,0.1875 1.0664063,0.4804688 1.0664063,0.9375 0,0.3164063 -0.1640625,0.63281254 -0.4101563,0.80859379 -0.234375,0.15234375 -0.5976562,0.24609375 -1.0664062,0.24609375 -0.6328125,0 -1.0664063,-0.15234375 -1.3476563,-0.4921875 C 1.1716484,-1.2084453 1.0778984,-1.4896953 1.0778984,-1.8529766 H 0.38649219 c 0,0.5390625 0.10546875,0.89062504 0.33984375,1.20703129 0.39843746,0.5390625 1.06640626,0.83203125 1.94531246,0.83203125 0.703125,0 1.265625,-0.1640625 1.640625,-0.4453125 0.3867188,-0.31640625 0.6328125,-0.83203124 0.6328125,-1.33593754 0,-0.7148437 -0.4453125,-1.2421875 -1.2304687,-1.453125 L 2.2497734,-3.4467266 c -0.6914062,-0.1875 -0.9492187,-0.4101562 -0.9492187,-0.8554687 0,-0.5976563 0.515625,-0.984375 1.3007812,-0.984375 0.9257813,0 1.4414063,0.421875 1.4414063,1.1835937 z m 4.3212891,1.3242188 c -0.023437,-0.3984375 -0.1171875,-0.6679688 -0.28125,-0.890625 -0.28125,-0.3984375 -0.7851563,-0.6328125 -1.359375,-0.6328125 -1.125,0 -1.8632813,0.9023437 -1.8632813,2.2851562 0,1.34765629 0.7148438,2.20312504 1.8515625,2.20312504 0.9960938,0 1.6289063,-0.59765625 1.6992188,-1.61718754 H 8.4460625 c -0.1054687,0.66796879 -0.4570312,0.99609379 -1.0195312,0.99609379 -0.7265625,0 -1.171875,-0.59765629 -1.171875,-1.58203129 0,-1.0429687 0.4335937,-1.6640625 1.1601562,-1.6640625 0.5507813,0 0.9023438,0.328125 0.984375,0.9023438 z m 4.4999997,2.39062499 c -0.07031,0.0117188 -0.105468,0.0117188 -0.140625,0.0117188 -0.234375,0 -0.363281,-0.1171875 -0.363281,-0.328125 V -3.1537578 c 0,-0.75 -0.539062,-1.1484375 -1.570312,-1.1484375 -0.609375,0 -1.113282,0.1757812 -1.382813,0.4921875 -0.1992187,0.2109375 -0.2695312,0.4570312 -0.2929687,0.8671875 h 0.6679687 c 0.05859,-0.5039063 0.363281,-0.7382813 0.984375,-0.7382813 0.597656,0 0.9375,0.2226563 0.9375,0.6210938 v 0.1757812 c 0,0.28125 -0.175781,0.3984375 -0.703125,0.4570313 -0.9375,0.1171875 -1.078125,0.1523437 -1.335937,0.2578125 -0.4804692,0.1992187 -0.726563,0.5742187 -0.726563,1.1132812 0,0.76171879 0.515625,1.24218754 1.371094,1.24218754 0.515625,0 0.9375,-0.1875 1.417969,-0.62109375 0.04687,0.421875 0.246093,0.62109375 0.679687,0.62109375 0.140625,0 0.234375,-0.0234375 0.457031,-0.0703125 z M 12.407,-1.3139141 c 0,0.2226563 -0.07031,0.35156254 -0.269531,0.53906254 -0.269531,0.24609375 -0.597656,0.375 -0.984375,0.375 -0.515625,0 -0.820313,-0.24609375 -0.820313,-0.66796874 0,-0.4453125 0.292969,-0.6679688 0.996094,-0.7617188 0.703125,-0.1054687 0.84375,-0.1289062 1.078125,-0.234375 z m 2.53125,-4.5 h -0.667969 v 5.81250004 h 0.667969 z m 4.652344,3.9492188 c 0,-0.6445313 -0.04687,-1.0195313 -0.164063,-1.3359375 -0.28125,-0.6796875 -0.914062,-1.1015625 -1.699218,-1.1015625 -1.160157,0 -1.910157,0.9023437 -1.910157,2.2734375 0,1.37109374 0.726563,2.21484374 1.898438,2.21484374 0.960937,0 1.617187,-0.55078125 1.78125,-1.45312504 h -0.667969 c -0.175781,0.55078129 -0.550781,0.83203129 -1.089844,0.83203129 -0.421875,0 -0.785156,-0.1875 -1.007812,-0.5390625 C 16.578875,-1.2084453 16.520281,-1.4545391 16.508563,-1.8646953 Z M 16.532,-2.4037578 c 0.04687,-0.7734375 0.527344,-1.2773438 1.195313,-1.2773438 0.644531,0 1.148437,0.5390625 1.148437,1.2304688 0,0.011719 0,0.023437 0,0.046875 z m 7.350586,-3.4101563 h -0.667969 v 2.1679688 c -0.28125,-0.421875 -0.726562,-0.65625 -1.277344,-0.65625 -1.089843,0 -1.792968,0.8789062 -1.792968,2.203125 0,1.41796874 0.691406,2.28515624 1.816406,2.28515624 0.574219,0 0.972656,-0.22265625 1.324219,-0.73828125 v 0.55078125 h 0.597656 z m -1.839844,2.1445313 c 0.714844,0 1.171875,0.6328125 1.171875,1.6289062 0,0.9609375 -0.457031,1.60546879 -1.160156,1.60546879 -0.738281,0 -1.21875,-0.64453129 -1.21875,-1.61718749 0,-0.9726563 0.480469,-1.6171875 1.207031,-1.6171875 z m 6.427735,1.0195312 h 2.777343 v -0.65625 h -2.777343 v -1.8515625 h 3.164062 v -0.65625 h -3.902344 v 5.81250004 h 0.738282 z m 4.883789,0.1875 h 1.828125 c 0.457031,0 0.808593,-0.140625 1.125,-0.4101562 0.351562,-0.328125 0.503906,-0.703125 0.503906,-1.2304688 0,-1.0898437 -0.65625,-1.7109375 -1.792969,-1.7109375 h -2.402344 v 5.81250004 h 0.738282 z m 0,-0.65625 v -2.0390625 h 1.546875 c 0.714843,0 1.136718,0.3867188 1.136718,1.0195313 0,0.6328125 -0.421875,1.0195312 -1.136718,1.0195312 z m 5.912109,-0.9023437 v 4.01953124 H 39.9695 V -5.6498516 h -0.457031 c -0.257813,0.8671875 -0.410156,0.984375 -1.5,1.125 v 0.5039063 z m 6.342773,-0.1523438 c -0.140625,-0.9257812 -0.75,-1.4765625 -1.605468,-1.4765625 -0.621094,0 -1.183594,0.3046875 -1.511719,0.8085938 -0.351563,0.5390625 -0.515625,1.2421875 -0.515625,2.2617187 0,0.9492188 0.140625,1.5585938 0.480469,2.06250004 0.304687,0.45703125 0.796875,0.703125 1.417968,0.703125 1.078125,0 1.851563,-0.796875 1.851563,-1.91015624 0,-1.0546875 -0.714844,-1.7929688 -1.734375,-1.7929688 -0.550781,0 -0.996094,0.2109375 -1.300781,0.6328125 0.01172,-1.3828125 0.457031,-2.1445312 1.265625,-2.1445312 0.492187,0 0.832031,0.3046875 0.949218,0.8554687 z m -1.699218,1.2773438 c 0.679687,0 1.101562,0.46875 1.101562,1.2304687 0,0.70312504 -0.480469,1.23046879 -1.125,1.23046879 -0.65625,0 -1.148437,-0.55078125 -1.148437,-1.27734379 0,-0.6914062 0.480468,-1.1835937 1.171875,-1.1835937 z m 0,0"
       style="fill:#000000;fill-opacity:1;fill-rule:nonzero;stroke:none"
       aria-label="ScaledFP16"
       transform="matrix(1.3333333,0,0,1.3333333,21.457333,87.802667)" />
    <path
       id="path18"
       d="M 5.6470625,-3.0699063 H 3.2212813 v 0.65625 h 1.7695312 v 0.1640625 c 0,1.03125 -0.7617187,1.78125005 -1.8164062,1.78125005 -0.5976563,0 -1.125,-0.2109375 -1.4648438,-0.58593755 -0.3867187,-0.421875 -0.6210937,-1.1132812 -0.6210937,-1.828125 0,-1.4296875 0.8203125,-2.3671875 2.0390625,-2.3671875 0.890625,0 1.5234375,0.4570313 1.6875,1.2070313 h 0.75 C 5.3658125,-5.2261563 4.4634688,-5.9058438 3.13925,-5.9058438 c -0.7148437,0 -1.2890625,0.1875 -1.734375,0.5625 -0.66796875,0.5507813 -1.0546875,1.453125 -1.0546875,2.4960938 0,1.7929687 1.0898438,3.03515625 2.6601563,3.03515625 0.7851562,0 1.4179687,-0.3046875 1.9804687,-0.92578125 l 0.1875,0.7734375 h 0.46875 z M 6.7515547,-4.1714688 V 4.0625e-4 H 7.4195234 V -2.1675625 c 0,-0.5976563 0.1523438,-0.984375 0.46875,-1.21875 0.2109375,-0.1523438 0.4101563,-0.1992188 0.8671875,-0.2109375 v -0.6679688 c -0.1054687,-0.023437 -0.1640625,-0.035156 -0.2460937,-0.035156 -0.4335938,0 -0.7617188,0.2578125 -1.1484375,0.8789062 v -0.75 z m 6.2900393,3.7851563 c -0.07031,0.0117188 -0.105469,0.0117188 -0.140625,0.0117188 -0.234375,0 -0.363281,-0.1171875 -0.363281,-0.328125 v -2.4492188 c 0,-0.75 -0.539063,-1.1484375 -1.570313,-1.1484375 -0.609375,0 -1.1132812,0.1757812 -1.3828125,0.4921875 C 9.3853438,-3.59725 9.3150313,-3.3511563 9.2915938,-2.941 h 0.6679687 c 0.058592,-0.5039063 0.3632815,-0.7382813 0.9843755,-0.7382813 0.597656,0 0.9375,0.2226563 0.9375,0.6210938 v 0.1757812 c 0,0.28125 -0.175782,0.3984375 -0.703125,0.4570313 -0.9375,0.1171875 -1.078125,0.1523437 -1.335938,0.2578125 -0.4804687,0.1992187 -0.7265625,0.5742187 -0.7265625,1.1132812 0,0.7617188 0.515625,1.24218755 1.3710935,1.24218755 0.515625,0 0.9375,-0.1875 1.417969,-0.62109375 0.04687,0.421875 0.246094,0.62109375 0.679688,0.62109375 0.140625,0 0.234375,-0.0234375 0.457031,-0.0703125 z m -1.160156,-0.9257813 c 0,0.2226563 -0.07031,0.35156255 -0.269532,0.53906255 -0.269531,0.24609375 -0.597656,0.375 -0.984375,0.375 -0.515625,0 -0.8203122,-0.24609375 -0.8203122,-0.66796875 0,-0.4453125 0.2929692,-0.6679688 0.9960942,-0.7617188 0.703125,-0.1054687 0.84375,-0.1289062 1.078125,-0.234375 z m 5.273437,-4.5 h -0.667969 v 2.1679688 c -0.28125,-0.421875 -0.726562,-0.65625 -1.277343,-0.65625 -1.089844,0 -1.792969,0.8789062 -1.792969,2.203125 0,1.41796875 0.691406,2.28515625 1.816406,2.28515625 0.574219,0 0.972656,-0.22265625 1.324219,-0.73828125 V 4.0625e-4 h 0.597656 z m -1.839844,2.1445313 c 0.714844,0 1.171875,0.6328125 1.171875,1.6289062 0,0.9609375 -0.457031,1.6054688 -1.160156,1.6054688 -0.738281,0 -1.21875,-0.6445313 -1.21875,-1.6171875 0,-0.9726563 0.480469,-1.6171875 1.207031,-1.6171875 z m 3.518555,-0.5039063 h -0.65625 V 4.0625e-4 h 0.65625 z m 0,-1.640625 h -0.667969 v 0.84375 h 0.667969 z m 4.664062,3.9492188 c 0,-0.6445313 -0.04687,-1.0195313 -0.164062,-1.3359375 -0.28125,-0.6796875 -0.914063,-1.1015625 -1.699219,-1.1015625 -1.160156,0 -1.910156,0.9023437 -1.910156,2.2734375 0,1.37109375 0.726562,2.21484375 1.898437,2.21484375 0.960938,0 1.617188,-0.55078125 1.78125,-1.45312505 H 22.73593 c -0.175782,0.5507813 -0.550782,0.8320313 -1.089844,0.8320313 -0.421875,0 -0.785156,-0.1875 -1.007813,-0.5390625 -0.152343,-0.234375 -0.210937,-0.4804688 -0.222656,-0.890625 z m -3.058593,-0.5390625 c 0.04687,-0.7734375 0.527343,-1.2773438 1.195312,-1.2773438 0.644531,0 1.148438,0.5390625 1.148438,1.2304688 0,0.011719 0,0.023437 0,0.046875 z m 3.960937,-1.7695313 V 4.0625e-4 h 0.667969 V -2.3081875 c 0,-0.84375 0.445312,-1.40625 1.125,-1.40625 0.527344,0 0.867187,0.3164062 0.867187,0.8203125 V 4.0625e-4 h 0.65625 V -3.1519375 c 0,-0.6914063 -0.515625,-1.1484375 -1.324218,-1.1484375 -0.621094,0 -1.019532,0.2460937 -1.382813,0.8320312 v -0.703125 z m 5.897461,0 h -0.691406 v -1.1484375 h -0.65625 v 1.1484375 h -0.5625 v 0.5390625 h 0.5625 v 3.1523438 c 0,0.421875 0.28125,0.66796875 0.796875,0.66796875 0.164062,0 0.328125,-0.0234375 0.550781,-0.0585938 v -0.5625 c -0.09375,0.0234375 -0.199219,0.0351563 -0.316406,0.0351563 -0.292969,0 -0.375,-0.0820313 -0.375,-0.375 V -3.6324063 h 0.691406 z m 3.679688,1.1601563 c -0.01172,-0.8203125 -0.550782,-1.2890625 -1.511719,-1.2890625 -0.972656,0 -1.605469,0.5039062 -1.605469,1.2773437 0,0.65625 0.339844,0.9726563 1.324219,1.2070313 l 0.621094,0.1523437 c 0.457031,0.1054688 0.644531,0.28125 0.644531,0.5859375 0,0.3867188 -0.386719,0.6445313 -0.972656,0.6445313 -0.363282,0 -0.65625,-0.10546875 -0.832032,-0.28125 -0.105468,-0.1171875 -0.152343,-0.234375 -0.1875,-0.5273438 h -0.703125 c 0.03516,0.96093755 0.574219,1.42968755 1.664063,1.42968755 1.054687,0 1.722656,-0.52734375 1.722656,-1.32421875 0,-0.6210938 -0.351562,-0.9726563 -1.183594,-1.171875 l -0.632812,-0.140625 C 31.785734,-2.5777188 31.551359,-2.7535 31.551359,-3.0464688 c 0,-0.3867187 0.339844,-0.6328125 0.890625,-0.6328125 0.527344,0 0.820313,0.234375 0.832032,0.6679688 z m 0,0"
       style="fill:#000000;fill-opacity:1;fill-rule:nonzero;stroke:none"
       aria-label="Gradients"
       transform="matrix(1.3333333,0,0,1.3333333,29.189333,100.42133)" />
    <path
       id="path19"
       d="M 149.12239,-14.547 V -33.44136"
       style="fill:none;stroke:#999999;stroke-width:0.99628;stroke-linecap:butt;stroke-linejoin:miter;stroke-miterlimit:10;stroke-dasharray:none;stroke-opacity:1"
       transform="matrix(1.3333333,0,0,-1.3333333,52.169333,19.396)" />
    <path
       id="path20"
       d="M 5.20058,0 C 3.65962,0.28891 1.15567,1.15567 -0.57784,2.1669 V -2.1669 C 1.15567,-1.15567 3.65962,-0.28891 5.20058,0"
       style="fill:#999999;fill-opacity:1;fill-rule:nonzero;stroke:none"
       transform="matrix(0,1.3333333,1.3333333,0,250.99919,63.98448)" />
    <path
       id="path21"
       d="m 135.85318,-31.22314 h 26.53839 v 9.25732 h -26.53839 z"
       style="fill:#ffffff;fill-opacity:1;fill-rule:nonzero;stroke:none"
       transform="matrix(1.3333333,0,0,-1.3333333,52.169333,19.396)" />
    <path
       id="path22"
       d="M 1.8043906,-3.5148594 V 7.65625e-4 h 0.609375 V -4.9445469 H 2.0153281 c -0.2109375,0.7617188 -0.3515625,0.8671875 -1.30078122,0.984375 v 0.4453125 z m 3.4101563,2.78906252 H 4.4879844 V 7.65625e-4 H 5.2145469 Z M 12.831734,-3.5031406 c -0.199218,-1.1132813 -0.84375,-1.6640625 -1.957031,-1.6640625 -0.691406,0 -1.2421874,0.2226562 -1.6171874,0.6328125 -0.4570312,0.5039062 -0.703125,1.2304687 -0.703125,2.0507812 0,0.84375 0.2578125,1.55859377 0.7382813,2.05078127 0.3867187,0.41015625 0.8906251,0.59765625 1.5468751,0.59765625 1.242187,0 1.945312,-0.66796875 2.097656,-2.01562502 h -0.667969 c -0.05859,0.3398438 -0.128906,0.5859375 -0.234375,0.7851563 -0.210937,0.42187497 -0.644531,0.65624997 -1.183593,0.65624997 -1.0078129,0 -1.6523441,-0.80859377 -1.6523441,-2.07421877 0,-1.3125 0.609375,-2.109375 1.5937501,-2.109375 0.410156,0 0.796875,0.1289063 1.007812,0.3164063 0.1875,0.1757812 0.292969,0.3984375 0.363282,0.7734375 z m 4.145508,3.16406247 c -0.05859,0.0117188 -0.08203,0.0117188 -0.117187,0.0117188 -0.210938,0 -0.316407,-0.10546875 -0.316407,-0.28125 V -2.7648594 c 0,-0.6445312 -0.480468,-0.9960937 -1.371093,-0.9960937 -0.539063,0 -0.972657,0.1523437 -1.21875,0.4335937 -0.164063,0.1875 -0.234375,0.3984375 -0.246094,0.75 h 0.585937 c 0.04687,-0.4453125 0.304688,-0.6445312 0.855469,-0.6445312 0.515625,0 0.808594,0.1992187 0.808594,0.5507812 v 0.1523438 c 0,0.234375 -0.140625,0.3398437 -0.597656,0.3984375 -0.832032,0.1054687 -0.949219,0.1289062 -1.171875,0.2226562 -0.433594,0.1757813 -0.644532,0.5039063 -0.644532,0.97265627 0,0.66796875 0.457032,1.08984375 1.195313,1.08984375 0.46875,0 0.832031,-0.164062495 1.242187,-0.5390625 0.04688,0.36328125 0.222657,0.5390625 0.597657,0.5390625 0.128906,0 0.210937,-0.0234375 0.398437,-0.0703125 z M 15.957711,-1.1476719 c 0,0.18750002 -0.04687,0.31640627 -0.222656,0.46875002 -0.234375,0.22265625 -0.527344,0.328125 -0.867188,0.328125 -0.457031,0 -0.714844,-0.2109375 -0.714844,-0.5859375 0,-0.37500002 0.257813,-0.57421872 0.878907,-0.66796872 0.609375,-0.082031 0.738281,-0.1054688 0.925781,-0.1992188 z m 4.227539,-1.4882812 c -0.01172,-0.7148438 -0.480469,-1.125 -1.324219,-1.125 -0.855468,0 -1.40625,0.4453125 -1.40625,1.1132812 0,0.5742188 0.292969,0.84375 1.160157,1.0546875 l 0.539062,0.140625 c 0.410156,0.09375 0.5625,0.234375 0.5625,0.50390627 0,0.33984375 -0.339844,0.57421875 -0.84375,0.57421875 -0.316406,0 -0.585937,-0.09375 -0.726562,-0.24609375 -0.09375,-0.10546875 -0.128907,-0.2109375 -0.164063,-0.46874997 h -0.621094 c 0.03516,0.84374997 0.503907,1.25390622 1.464844,1.25390622 0.914063,0 1.5,-0.45703125 1.5,-1.16015625 0,-0.53906247 -0.304687,-0.84374997 -1.03125,-1.01953127 l -0.5625,-0.1289062 c -0.46875,-0.1171875 -0.667969,-0.2695313 -0.667969,-0.5273438 0,-0.328125 0.292969,-0.5507812 0.773438,-0.5507812 0.46875,0 0.714844,0.1992187 0.726562,0.5859375 z m 2.200195,-1.0195313 H 21.787789 V -4.6515781 H 21.21357 v 0.9960937 h -0.503906 v 0.4804688 h 0.503906 v 2.75390622 c 0,0.375 0.246094,0.5859375 0.703125,0.5859375 0.140625,0 0.269532,-0.0234375 0.46875,-0.046875 v -0.4921875 c -0.07031,0.0234375 -0.164062,0.0234375 -0.28125,0.0234375 -0.246093,0 -0.316406,-0.0703125 -0.316406,-0.328125 V -3.1750156 h 0.597656 z m 0,0"
       style="fill:#000000;fill-opacity:1;fill-rule:nonzero;stroke:none"
       aria-label="1.Cast"
       transform="matrix(1.3333333,0,0,1.3333333,235.96133,58.178667)" />
    <path
       id="path23"
       d="M 149.12239,-67.73595 V -86.63033"
       style="fill:none;stroke:#999999;stroke-width:0.99628;stroke-linecap:butt;stroke-linejoin:miter;stroke-miterlimit:10;stroke-dasharray:none;stroke-opacity:1"
       transform="matrix(1.3333333,0,0,-1.3333333,52.169333,19.396)" />
    <path
       id="path24"
       d="M 5.20058,0 C 3.65962,0.28891 1.15567,1.15567 -0.57784,2.1669 V -2.1669 C 1.15567,-1.15567 3.65962,-0.28891 5.20058,0"
       style="fill:#999999;fill-opacity:1;fill-rule:nonzero;stroke:none"
       transform="matrix(0,1.3333333,1.3333333,0,250.99919,134.90311)" />
    <path
       id="path25"
       d="m 130.3926,-84.30049 h 37.45958 v 9.03413 H 130.3926 Z"
       style="fill:#ffffff;fill-opacity:1;fill-rule:nonzero;stroke:none"
       transform="matrix(1.3333333,0,0,-1.3333333,52.169333,19.396)" />
    <path
       id="path26"
       d="M 3.5261094,-0.6089375 H 0.92454688 c 0.0585938,-0.3984375 0.29296872,-0.65625 0.89062502,-1.0195312 l 0.703125,-0.375 c 0.6914062,-0.375 1.0429687,-0.8789063 1.0429687,-1.4882813 0,-0.4101562 -0.1640625,-0.796875 -0.4570312,-1.0664062 -0.2929688,-0.2578125 -0.65625,-0.3867188 -1.125,-0.3867188 -0.6328125,0 -1.08984377,0.2226563 -1.37109377,0.6445313 -0.17578125,0.2578125 -0.24609375,0.5742187 -0.2578125,1.078125 h 0.609375 c 0.0234375,-0.3398438 0.0585938,-0.5390625 0.15234377,-0.703125 0.1523437,-0.3046875 0.4804687,-0.4804688 0.84375,-0.4804688 0.5625,0 0.9726562,0.3984375 0.9726562,0.9257813 0,0.3867187 -0.2226562,0.7265625 -0.6679687,0.9726562 L 1.6276719,-2.1440937 C 0.59642188,-1.5581562 0.29173438,-1.0894062 0.23314063,4.375e-4 H 3.5261094 Z m 1.6875,-0.1171875 H 4.4870469 V 4.375e-4 h 0.7265625 z m 4.2714844,-1.59375 h 2.4257812 v -0.5625 H 9.4850938 V -4.5112812 H 12.250719 V -5.0855 H 8.8405625 V 4.375e-4 h 0.6445313 z m 4.6816402,-1.4414062 c -1.03125,0 -1.652343,0.7382812 -1.652343,1.9570312 0,1.23046875 0.621093,1.96875 1.652343,1.96875 1.03125,0 1.652344,-0.73828125 1.652344,-1.9335937 0,-1.265625 -0.597656,-1.9921875 -1.652344,-1.9921875 z m 0,0.5390625 c 0.65625,0 1.054688,0.5390625 1.054688,1.4414062 0,0.85546875 -0.410156,1.40625 -1.054688,1.40625 -0.644531,0 -1.042968,-0.5390625 -1.042968,-1.4296875 0,-0.8671875 0.398437,-1.4179687 1.042968,-1.4179687 z m 2.458008,-0.4335938 v 3.65625 H 17.21068 V -1.898 c 0,-0.515625 0.128906,-0.8671875 0.410156,-1.0664062 0.1875,-0.1289063 0.351562,-0.1757813 0.761719,-0.1757813 v -0.5976562 c -0.09375,-0.011719 -0.140625,-0.023437 -0.222657,-0.023437 -0.375,0 -0.667968,0.2226562 -0.996093,0.7734375 V -3.655812 Z m 5.709961,3.65625 1.066406,-3.65625 h -0.65625 l -0.726562,2.84765625 -0.714844,-2.84765625 h -0.714844 l -0.691406,2.84765625 -0.75,-2.84765625 h -0.632812 l 1.054687,3.65625 h 0.65625 l 0.703125,-2.8710937 0.738281,2.8710937 z m 4.790039,-0.33984375 c -0.05859,0.0117188 -0.08203,0.0117188 -0.117187,0.0117188 -0.210938,0 -0.316407,-0.10546875 -0.316407,-0.28125 V -2.7651875 c 0,-0.6445311 -0.480468,-0.9960936 -1.371093,-0.9960936 -0.539063,0 -0.972657,0.1523436 -1.21875,0.4335936 -0.164063,0.1875 -0.234375,0.3984375 -0.246094,0.75 h 0.585937 c 0.04687,-0.4453125 0.304688,-0.6445311 0.855469,-0.6445311 0.515625,0 0.808594,0.1992186 0.808594,0.5507811 v 0.1523439 c 0,0.234375 -0.140625,0.3398436 -0.597656,0.3984375 -0.832032,0.1054686 -0.949219,0.1289062 -1.171875,0.2226562 -0.433594,0.1757813 -0.644532,0.5039063 -0.644532,0.9726562 0,0.66796875 0.457032,1.08984375 1.195313,1.08984375 0.46875,0 0.832031,-0.1640625 1.242187,-0.5390625 0.04687,0.36328125 0.222657,0.5390625 0.597657,0.5390625 0.128906,0 0.210937,-0.0234375 0.398437,-0.0703125 z M 26.105211,-1.148 c 0,0.1875 -0.04687,0.31640625 -0.222656,0.46875 -0.234375,0.22265625 -0.527344,0.328125 -0.867188,0.328125 -0.457031,0 -0.714844,-0.2109375 -0.714844,-0.5859375 0,-0.375 0.257813,-0.5742187 0.878907,-0.6679687 0.609375,-0.082031 0.738281,-0.1054688 0.925781,-0.1992188 z m 1.649414,-2.5078125 v 3.65625 h 0.585938 V -1.898 c 0,-0.515625 0.128906,-0.8671875 0.410156,-1.0664062 0.1875,-0.1289063 0.351562,-0.1757813 0.761719,-0.1757813 v -0.5976562 c -0.09375,-0.011719 -0.140625,-0.023437 -0.222657,-0.023437 -0.375,0 -0.667968,0.2226562 -0.996093,0.7734375 V -3.6558125 Z M 33.05443,-5.0855 h -0.585938 v 1.8867188 c -0.246094,-0.3632813 -0.632812,-0.5625 -1.125,-0.5625 -0.949219,0 -1.570312,0.7617187 -1.570312,1.9335937 0,1.23046875 0.609375,1.9921875 1.59375,1.9921875 0.503906,0 0.855468,-0.1875 1.160156,-0.64453125 V 4.375e-4 h 0.527344 z m -1.605469,1.875 c 0.621094,0 1.019531,0.5507813 1.019531,1.4296875 0,0.84375 -0.398437,1.39453125 -1.019531,1.39453125 -0.632813,0 -1.066406,-0.5625 -1.066406,-1.41796875 0,-0.84375 0.433593,-1.40625 1.066406,-1.40625 z m 0,0"
       style="fill:#000000;fill-opacity:1;fill-rule:nonzero;stroke:none"
       aria-label="2.Forward"
       transform="matrix(1.3333333,0,0,1.3333333,228.68133,129.03067)" />
    <path
       id="path27"
       d="M 109.99469,-106.3779 H 44.32826"
       style="fill:none;stroke:#999999;stroke-width:0.99628;stroke-linecap:butt;stroke-linejoin:miter;stroke-miterlimit:10;stroke-dasharray:none;stroke-opacity:1"
       transform="matrix(1.3333333,0,0,-1.3333333,52.169333,19.396)" />
    <path
       id="path28"
       d="M 5.20058,0 C 3.65962,0.28891 1.15567,1.15567 -0.57784,2.1669 V -2.1669 C 1.15567,-1.15567 3.65962,-0.28891 5.20058,0"
       style="fill:#999999;fill-opacity:1;fill-rule:nonzero;stroke:none"
       transform="matrix(-1.3333333,0,0,1.3333333,111.27368,161.2332)" />
    <path
       id="path29"
       d="m 59.74031,-111.00658 h 29.64175 v 9.25732 H 59.74031 Z"
       style="fill:#ffffff;fill-opacity:1;fill-rule:nonzero;stroke:none"
       transform="matrix(1.3333333,0,0,-1.3333333,52.169333,19.396)" />
    <path
       id="path30"
       d="m 1.5365078,-2.2617031 h 0.082031 l 0.2578125,-0.011719 c 0.6796875,0 1.03125,0.3046875 1.03125,0.9023438 0,0.62109373 -0.3867188,0.98437498 -1.03125,0.98437498 -0.6679688,0 -0.99609379,-0.328125 -1.04296879,-1.05468748 h -0.609375 c 0.0234375,0.3984375 0.09375,0.65624998 0.2109375,0.87890623 0.2578125,0.48046875 0.74999999,0.7265625 1.41796879,0.7265625 1.0195312,0 1.6757812,-0.609375 1.6757812,-1.54687503 0,-0.6210937 -0.2460937,-0.9726562 -0.8320312,-1.171875 0.4570312,-0.1875 0.6914062,-0.5390625 0.6914062,-1.03125 0,-0.84375 -0.5742187,-1.359375 -1.5117187,-1.359375 -0.99609379,0 -1.52343754,0.5507813 -1.54687504,1.59375 h 0.609375 c 0.0117188,-0.2929687 0.0351563,-0.4570312 0.11718754,-0.6210937 0.140625,-0.2695313 0.4453125,-0.4335938 0.8320312,-0.4335938 0.5390625,0 0.8671875,0.3164063 0.8671875,0.84375 0,0.3515625 -0.1289062,0.5625 -0.3984375,0.6679688 -0.1640625,0.070312 -0.3867187,0.09375 -0.8203125,0.1054687 z m 3.6767578,1.53515623 H 4.4867031 V 1.5625e-5 H 5.2132656 Z M 12.376352,-3.5859219 c -0.01172,-1.0078125 -0.691407,-1.5820312 -1.863282,-1.5820312 -1.1132809,0 -1.8046872,0.5742187 -1.8046872,1.4882812 0,0.6210938 0.328125,1.0195313 0.9960938,1.1953125 l 1.2539064,0.328125 c 0.644531,0.1640625 0.9375,0.421875 0.9375,0.8203125 0,0.28125 -0.140625,0.55078128 -0.363281,0.70312503 -0.199219,0.140625 -0.515625,0.22265625 -0.9375,0.22265625 -0.550782,0 -0.9257817,-0.12890625 -1.1601567,-0.421875 C 9.2357266,-1.0546719 9.1536953,-1.3007656 9.1654141,-1.6171719 h -0.609375 c 0,0.46875 0.09375,0.77343753 0.2929687,1.05468753 0.3515625,0.46875 0.9375,0.7265625 1.7109372,0.7265625 0.609375,0 1.101563,-0.140625 1.429688,-0.3984375 0.339844,-0.26953125 0.550781,-0.7265625 0.550781,-1.16015623 0,-0.6328125 -0.386719,-1.0898438 -1.078125,-1.2773438 l -1.277344,-0.3398437 c -0.6093747,-0.1640625 -0.8320309,-0.3632813 -0.8320309,-0.75 0,-0.515625 0.4570312,-0.8554688 1.1367189,-0.8554688 0.808594,0 1.265625,0.3632813 1.265625,1.03125 z m 3.770507,1.1601563 c -0.02344,-0.3515625 -0.105468,-0.5859375 -0.246093,-0.7851563 -0.246094,-0.3398437 -0.679688,-0.5507812 -1.195313,-0.5507812 -0.984375,0 -1.628906,0.7851562 -1.628906,1.9921875 0,1.18359373 0.632812,1.93359373 1.617187,1.93359373 0.878907,0 1.429688,-0.52734375 1.5,-1.41796873 h -0.585937 c -0.09375,0.58593748 -0.398438,0.87890623 -0.890625,0.87890623 -0.644531,0 -1.03125,-0.52734375 -1.03125,-1.39453123 0,-0.9023438 0.375,-1.453125 1.007812,-1.453125 0.492188,0 0.796875,0.2929687 0.867188,0.796875 z m 3.934571,2.08593748 c -0.05859,0.0117188 -0.08203,0.0117188 -0.117188,0.0117188 -0.210937,0 -0.316406,-0.10546875 -0.316406,-0.28125 V -2.7656094 c 0,-0.6445312 -0.480469,-0.9960937 -1.371094,-0.9960937 -0.539062,0 -0.972656,0.1523437 -1.21875,0.4335937 -0.164062,0.1875 -0.234375,0.3984375 -0.246094,0.75 h 0.585938 c 0.04687,-0.4453125 0.304687,-0.6445312 0.855469,-0.6445312 0.515625,0 0.808593,0.1992187 0.808593,0.5507812 v 0.1523438 c 0,0.234375 -0.140625,0.3398437 -0.597656,0.3984375 -0.832031,0.1054687 -0.949219,0.1289062 -1.171875,0.2226562 -0.433594,0.1757813 -0.644531,0.5039063 -0.644531,0.97265628 0,0.66796875 0.457031,1.08984375 1.195312,1.08984375 0.46875,0 0.832032,-0.164062505 1.242188,-0.5390625 0.04687,0.36328125 0.222656,0.5390625 0.597656,0.5390625 0.128906,0 0.210938,-0.0234375 0.398438,-0.0703125 z M 19.061898,-1.1484219 c 0,0.18750003 -0.04687,0.31640628 -0.222656,0.46875003 -0.234375,0.22265625 -0.527344,0.328125 -0.867187,0.328125 -0.457032,0 -0.714844,-0.2109375 -0.714844,-0.5859375 0,-0.37500003 0.257812,-0.57421873 0.878906,-0.66796873 0.609375,-0.082031 0.738281,-0.1054688 0.925781,-0.1992188 z m 2.223633,-3.9375 H 20.699594 V 1.5625e-5 h 0.585937 z m 4.069336,3.4570313 c 0,-0.5625 -0.03516,-0.890625 -0.140625,-1.171875 -0.234375,-0.5976563 -0.796875,-0.9609375 -1.476562,-0.9609375 -1.019532,0 -1.675782,0.7851562 -1.675782,1.9804687 0,1.20703128 0.632813,1.94531253 1.652344,1.94531253 0.84375,0 1.417969,-0.48046875 1.570313,-1.27734373 h -0.585938 c -0.164062,0.48046873 -0.492187,0.73828123 -0.960937,0.73828123 -0.363282,0 -0.679688,-0.1640625 -0.878907,-0.48046875 -0.140625,-0.19921878 -0.1875,-0.41015628 -0.1875,-0.77343748 z m -2.671875,-0.4804688 c 0.04687,-0.6679687 0.457031,-1.1132812 1.042969,-1.1132812 0.574219,0 1.007812,0.4804687 1.007812,1.078125 0,0.011719 0,0.023437 0,0.035156 z m 0,0"
       style="fill:#000000;fill-opacity:1;fill-rule:nonzero;stroke:none"
       aria-label="3.Scale"
       transform="matrix(1.3333333,0,0,1.3333333,134.47867,164.55467)" />
    <path
       id="path31"
       d="m 0,-91.8309 v 18.89438"
       style="fill:none;stroke:#999999;stroke-width:0.99628;stroke-linecap:butt;stroke-linejoin:miter;stroke-miterlimit:10;stroke-dasharray:none;stroke-opacity:1"
       transform="matrix(1.3333333,0,0,-1.3333333,52.169333,19.396)" />
    <path
       id="path32"
       d="M 5.20058,0 C 3.65962,0.28891 1.15567,1.15567 -0.57784,2.1669 V -2.1669 C 1.15567,-1.15567 3.65962,-0.28891 5.20058,0"
       style="fill:#999999;fill-opacity:1;fill-rule:nonzero;stroke:none"
       transform="matrix(0,-1.3333333,-1.3333333,0,52.169333,116.64469)" />
    <path
       id="path33"
       d="m -20.75914,-84.99438 h 41.5183 v 10.42192 h -41.5183 z"
       style="fill:#ffffff;fill-opacity:1;fill-rule:nonzero;stroke:none"
       transform="matrix(1.3333333,0,0,-1.3333333,52.169333,19.396)" />
    <path
       id="path34"
       d="M 2.2854844,-1.1834922 V 1.015625e-4 h 0.609375 V -1.1834922 H 3.6214219 V -1.7342734 H 2.8948594 V -4.9452109 H 2.4378281 l -2.23828123,3.1171875 v 0.6445312 z m 0,-0.5507812 H 0.72689062 L 2.2854844,-3.9022422 Z m 2.9267578,1.00781246 H 4.4856797 V 1.015625e-4 H 5.2122422 Z M 8.7600937,1.015625e-4 h 2.2968753 c 0.480468,0 0.832031,-0.1289062525 1.101562,-0.4218750025 0.257813,-0.26953125 0.398438,-0.63281246 0.398438,-1.03124996 0,-0.609375 -0.28125,-0.984375 -0.925782,-1.2304688 0.457032,-0.2226562 0.703125,-0.5976562 0.703125,-1.1132812 0,-0.3632813 -0.140625,-0.6914063 -0.410156,-0.9257813 -0.257812,-0.2460937 -0.609375,-0.3632812 -1.101562,-0.3632812 H 8.7600937 Z M 9.404625,-2.8944297 v -1.6171875 h 1.253906 c 0.363281,0 0.574219,0.046875 0.75,0.1875 0.175781,0.1289063 0.269531,0.3398438 0.269531,0.6210938 0,0.2695312 -0.09375,0.4921875 -0.269531,0.6328125 -0.175781,0.1289062 -0.386719,0.1757812 -0.75,0.1757812 z m 0,2.32031251 V -2.3202109 h 1.582031 c 0.316406,0 0.527344,0.070312 0.679688,0.2460937 0.152343,0.1523438 0.234375,0.375 0.234375,0.6328125 0,0.2460938 -0.08203,0.46875001 -0.234375,0.62109376 -0.152344,0.17578125 -0.363282,0.24609375 -0.679688,0.24609375 z m 7.180664,0.234375 c -0.05859,0.0117188 -0.08203,0.0117188 -0.117187,0.0117188 -0.210938,0 -0.316407,-0.10546875 -0.316407,-0.28125 V -2.7655234 c 0,-0.6445313 -0.480468,-0.9960938 -1.371093,-0.9960938 -0.539063,0 -0.972657,0.1523438 -1.21875,0.4335938 -0.164063,0.1875 -0.234375,0.3984375 -0.246094,0.75 h 0.585937 c 0.04687,-0.4453125 0.304688,-0.6445313 0.855469,-0.6445313 0.515625,0 0.808594,0.1992188 0.808594,0.5507813 v 0.1523437 c 0,0.234375 -0.140625,0.3398438 -0.597656,0.3984375 -0.832032,0.1054688 -0.949219,0.1289063 -1.171875,0.2226563 -0.433594,0.1757812 -0.644532,0.5039062 -0.644532,0.97265621 0,0.66796875 0.457032,1.08984375 1.195313,1.08984375 0.46875,0 0.832031,-0.1640624975 1.242187,-0.5390625 0.04687,0.36328125 0.222657,0.5390625 0.597657,0.5390625 0.128906,0 0.210937,-0.0234375 0.398437,-0.0703125 z M 15.565758,-1.1483359 c 0,0.18749996 -0.04687,0.31640621 -0.222656,0.46874996 -0.234375,0.22265625 -0.527344,0.328125 -0.867188,0.328125 -0.457031,0 -0.714844,-0.2109375 -0.714844,-0.5859375 0,-0.37499996 0.257813,-0.57421876 0.878907,-0.66796876 0.609375,-0.082031 0.738281,-0.1054687 0.925781,-0.1992187 z m 4.453125,-1.2773438 c -0.02344,-0.3515625 -0.105469,-0.5859375 -0.246094,-0.7851562 -0.246094,-0.3398438 -0.679687,-0.5507813 -1.195312,-0.5507813 -0.984375,0 -1.628907,0.7851563 -1.628907,1.9921875 0,1.18359376 0.632813,1.93359376 1.617188,1.93359376 0.878906,0 1.429687,-0.52734375 1.5,-1.41796876 H 19.47982 c -0.09375,0.58593751 -0.398437,0.87890626 -0.890625,0.87890626 -0.644531,0 -1.03125,-0.52734375 -1.03125,-1.39453126 0,-0.9023437 0.375,-1.453125 1.007813,-1.453125 0.492187,0 0.796875,0.2929688 0.867187,0.796875 z M 21.0765,-5.0858359 H 20.502281 V 1.015625e-4 H 21.0765 V -1.4178672 l 0.5625,-0.5625 1.230469,1.9804687625 h 0.726562 l -1.5,-2.3906249625 1.277344,-1.265625 h -0.75 l -1.546875,1.546875 z m 2.876953,6.609375 h 0.585938 v -1.91015629 c 0.304687,0.375 0.644531,0.55078125 1.125,0.55078125 0.9375,0 1.558593,-0.76171875 1.558593,-1.93359376 0,-1.21875 -0.597656,-1.9921875 -1.570312,-1.9921875 -0.492188,0 -0.890625,0.2226563 -1.160156,0.65625 v -0.5507812 h -0.539063 z m 1.605469,-4.734375 c 0.644531,0 1.054687,0.5625 1.054687,1.4296875 0,0.83203121 -0.421875,1.39453121 -1.054687,1.39453121 -0.609375,0 -1.019531,-0.55078125 -1.019531,-1.41796871 0,-0.8554688 0.410156,-1.40625 1.019531,-1.40625 z m 2.378906,-0.4453125 V 1.015625e-4 h 0.585938 V -1.8983359 c 0,-0.515625 0.128906,-0.8671875 0.410156,-1.0664063 0.1875,-0.1289062 0.351562,-0.1757812 0.761719,-0.1757812 v -0.5976563 c -0.09375,-0.011719 -0.140625,-0.023437 -0.222657,-0.023437 -0.375,0 -0.667968,0.2226563 -0.996093,0.7734375 v -0.6679687 z m 3.738281,-0.1054688 c -1.03125,0 -1.652343,0.7382813 -1.652343,1.9570313 0,1.23046871 0.621093,1.96874996 1.652343,1.96874996 1.03125,0 1.652344,-0.73828125 1.652344,-1.93359376 0,-1.265625 -0.597656,-1.9921875 -1.652344,-1.9921875 z m 0,0.5390625 c 0.65625,0 1.054688,0.5390625 1.054688,1.4414063 0,0.85546871 -0.410156,1.40624996 -1.054688,1.40624996 -0.644531,0 -1.042968,-0.5390625 -1.042968,-1.42968746 0,-0.8671875 0.398437,-1.4179688 1.042968,-1.4179688 z m 2.355469,4.7460938 h 0.585938 v -1.91015629 c 0.304687,0.375 0.644531,0.55078125 1.125,0.55078125 0.9375,0 1.558593,-0.76171875 1.558593,-1.93359376 0,-1.21875 -0.597656,-1.9921875 -1.570312,-1.9921875 -0.492188,0 -0.890625,0.2226563 -1.160156,0.65625 v -0.5507812 h -0.539063 z m 1.605469,-4.734375 c 0.644531,0 1.054687,0.5625 1.054687,1.4296875 0,0.83203121 -0.421875,1.39453121 -1.054687,1.39453121 -0.609375,0 -1.019531,-0.55078125 -1.019531,-1.41796871 0,-0.8554688 0.410156,-1.40625 1.019531,-1.40625 z m 0,0"
       style="fill:#000000;fill-opacity:1;fill-rule:nonzero;stroke:none"
       aria-label="4.Backprop"
       transform="matrix(1.3333333,0,0,1.3333333,27.148,128.10533)" />
    <path
       id="path35"
       d="m 0,-38.64195 v 18.89438"
       style="fill:none;stroke:#999999;stroke-width:0.99628;stroke-linecap:butt;stroke-linejoin:miter;stroke-miterlimit:10;stroke-dasharray:none;stroke-opacity:1"
       transform="matrix(1.3333333,0,0,-1.3333333,52.169333,19.396)" />
    <path
       id="path36"
       d="M 5.20058,0 C 3.65962,0.28891 1.15567,1.15567 -0.57784,2.1669 V -2.1669 C 1.15567,-1.15567 3.65962,-0.28891 5.20058,0"
       style="fill:#999999;fill-opacity:1;fill-rule:nonzero;stroke:none"
       transform="matrix(0,-1.3333333,-1.3333333,0,52.169333,45.726093)" />
    <path
       id="path37"
       d="m -30.99329,-31.88565 h 61.98657 v 10.58237 h -61.98657 z"
       style="fill:#ffffff;fill-opacity:1;fill-rule:nonzero;stroke:none"
       transform="matrix(1.3333333,0,0,-1.3333333,52.169333,19.396)" />
    <path
       id="path38"
       d="M 3.3173359,-4.9465859 H 0.76264844 l -0.36328125,2.6953125 h 0.5625 C 1.2548359,-2.5911172 1.4892109,-2.7083047 1.8642109,-2.7083047 c 0.6679688,0 1.0898438,0.4453125 1.0898438,1.1835938 0,0.70312496 -0.4101563,1.13671871 -1.0898438,1.13671871 -0.5273437,0 -0.8554687,-0.26953125 -1.00781246,-0.83203121 h -0.609375 c 0.0820312,0.41015621 0.15234375,0.60937496 0.29296875,0.78515621 0.28125,0.375 0.78515621,0.59765625 1.34765621,0.59765625 0.9960938,0 1.6875,-0.7265625 1.6875,-1.76953126 0,-0.984375 -0.6445312,-1.6523437 -1.59375,-1.6523437 -0.3515625,0 -0.6328125,0.09375 -0.9140625,0.3046875 l 0.1992188,-1.3828125 h 2.0507812 z m 1.8955078,4.21874996 H 4.4862812 v 0.7265625 H 5.2128437 Z M 12.824172,-3.5051797 c -0.199219,-1.1132812 -0.84375,-1.6640625 -1.957031,-1.6640625 -0.691407,0 -1.2421879,0.2226563 -1.6171879,0.6328125 -0.4570312,0.5039063 -0.703125,1.2304688 -0.703125,2.0507813 0,0.84375 0.2578125,1.55859371 0.7382813,2.05078121 0.3867187,0.41015625 0.8906246,0.59765625 1.5468746,0.59765625 1.242188,0 1.945313,-0.66796875 2.097657,-2.01562496 h -0.667969 c -0.05859,0.3398437 -0.128906,0.5859375 -0.234375,0.7851562 -0.210938,0.42187501 -0.644531,0.65625001 -1.183594,0.65625001 -1.0078124,0 -1.6523436,-0.80859371 -1.6523436,-2.07421871 0,-1.3125 0.609375,-2.109375 1.5937496,-2.109375 0.410157,0 0.796875,0.1289062 1.007813,0.3164062 0.1875,0.1757813 0.292969,0.3984375 0.363281,0.7734375 z m 2.317383,-0.2578125 c -1.03125,0 -1.652344,0.7382813 -1.652344,1.9570313 0,1.23046871 0.621094,1.96874996 1.652344,1.96874996 1.03125,0 1.652343,-0.73828125 1.652343,-1.93359376 0,-1.265625 -0.597656,-1.9921875 -1.652343,-1.9921875 z m 0,0.5390625 c 0.65625,0 1.054687,0.5390625 1.054687,1.4414063 0,0.85546871 -0.410156,1.40624996 -1.054687,1.40624996 -0.644532,0 -1.042969,-0.5390625 -1.042969,-1.42968746 0,-0.8671875 0.398437,-1.4179688 1.042969,-1.4179688 z m 2.355468,4.7460938 h 0.585938 v -1.91015629 c 0.304687,0.375 0.644531,0.55078125 1.125,0.55078125 0.9375,0 1.558594,-0.76171875 1.558594,-1.93359376 0,-1.21875 -0.597657,-1.9921875 -1.570313,-1.9921875 -0.492187,0 -0.890625,0.2226563 -1.160156,0.65625 v -0.5507812 h -0.539063 z m 1.605469,-4.734375 c 0.644531,0 1.054688,0.5625 1.054688,1.4296875 0,0.83203121 -0.421875,1.39453121 -1.054688,1.39453121 -0.609375,0 -1.019531,-0.55078125 -1.019531,-1.41796871 0,-0.8554688 0.410156,-1.40625 1.019531,-1.40625 z m 4.400391,-0.4453125 -1.007813,2.84765621 -0.9375,-2.84765621 h -0.621093 l 1.230468,3.66796871 -0.222656,0.5859375 c -0.09375,0.2578125 -0.222656,0.3515625 -0.46875,0.3515625 -0.08203,0 -0.175781,-0.0117188 -0.304687,-0.046875 V 1.4284141 c 0.117187,0.058594 0.234375,0.09375 0.386718,0.09375 0.199219,0 0.398438,-0.070312 0.550782,-0.1757813 0.175781,-0.1289062 0.28125,-0.2929687 0.398437,-0.58593749 l 1.617188,-4.41796871 z m 6.146484,1.3242187 c 0.01172,0.2578125 -0.07031,0.5859375 -0.210937,0.8320313 l -0.925782,-1.1367188 c 0.726563,-0.4101562 0.960938,-0.7148437 0.960938,-1.2070312 0,-0.6445313 -0.480469,-1.1015625 -1.136719,-1.1015625 -0.667969,0 -1.195312,0.4804687 -1.195312,1.1015625 0,0.328125 0.128906,0.5859375 0.5625,1.1367187 -0.855469,0.4921875 -1.125,0.84375 -1.125,1.4765625 0,0.84375001 0.574218,1.39453126 1.429687,1.39453126 0.339844,0 0.667969,-0.09375 0.914063,-0.2578125 0.152343,-0.08203125 0.28125,-0.1875 0.539062,-0.4453125 l 0.433594,0.5390625 H 30.65718 L 29.801711,-1.0559609 c 0.257812,-0.3984375 0.410156,-0.8554688 0.410156,-1.2773438 z m -1.441406,-0.6679687 c -0.433594,-0.4921875 -0.492188,-0.609375 -0.492188,-0.8554688 0,-0.3632812 0.234375,-0.5976562 0.597657,-0.5976562 0.351562,0 0.609375,0.2460937 0.609375,0.5859375 0,0.3164062 -0.175782,0.515625 -0.714844,0.8671875 z m 0.925781,2.03906246 c -0.398437,0.421875 -0.691406,0.57421875 -1.054687,0.57421875 -0.503907,0 -0.914063,-0.3984375 -0.914063,-0.89062501 0,-0.3867187 0.210938,-0.6679687 0.855469,-1.078125 z m 7.514649,-4.12499996 v 3.5742187 c 0,0.67968751 -0.492188,1.10156251 -1.300782,1.10156251 -0.386718,0 -0.691406,-0.09375 -0.9375,-0.26953125 -0.246093,-0.1875 -0.363281,-0.44531246 -0.363281,-0.83203126 v -3.5742187 h -0.644531 v 3.5742187 c 0,1.03125001 0.738281,1.67578126 1.945312,1.67578126 1.183594,0 1.957032,-0.65625 1.957032,-1.67578126 v -3.5742187 z m 1.68457,1.4296875 v 3.65624996 h 0.585937 V -2.0168984 c 0,-0.75 0.386719,-1.2304688 0.984375,-1.2304688 0.457032,0 0.75,0.28125 0.75,0.7148438 v 2.53124996 h 0.585938 V -2.7668984 c 0,-0.5976563 -0.457031,-0.9960938 -1.160156,-0.9960938 -0.539063,0 -0.890625,0.2109375 -1.21875,0.7265625 v -0.6210937 z m 6.442383,1.0195312 c -0.01172,-0.7148437 -0.480469,-1.125 -1.324219,-1.125 -0.855469,0 -1.40625,0.4453125 -1.40625,1.1132813 0,0.5742187 0.292969,0.84375 1.160156,1.0546875 l 0.539063,0.140625 c 0.410156,0.09375 0.5625,0.234375 0.5625,0.50390621 0,0.33984375 -0.339844,0.57421875 -0.84375,0.57421875 -0.316407,0 -0.585938,-0.09375 -0.726563,-0.24609375 -0.09375,-0.10546875 -0.128906,-0.2109375 -0.164062,-0.46875001 h -0.621094 c 0.03516,0.84375001 0.503906,1.25390626 1.464844,1.25390626 0.914062,0 1.5,-0.45703125 1.5,-1.16015625 0,-0.53906251 -0.304688,-0.84375001 -1.03125,-1.01953121 l -0.5625,-0.1289063 c -0.46875,-0.1171875 -0.667969,-0.2695312 -0.667969,-0.5273437 0,-0.328125 0.292969,-0.5507813 0.773437,-0.5507813 0.46875,0 0.714844,0.1992188 0.726563,0.5859375 z m 3.708984,0.2109375 c -0.02344,-0.3515625 -0.105469,-0.5859375 -0.246094,-0.7851562 -0.246093,-0.3398438 -0.679687,-0.5507813 -1.195312,-0.5507813 -0.984375,0 -1.628906,0.7851563 -1.628906,1.9921875 0,1.18359376 0.632812,1.93359376 1.617187,1.93359376 0.878906,0 1.429688,-0.52734375 1.5,-1.41796876 h -0.585937 c -0.09375,0.58593751 -0.398438,0.87890626 -0.890625,0.87890626 -0.644532,0 -1.03125,-0.52734375 -1.03125,-1.39453126 0,-0.9023437 0.375,-1.453125 1.007812,-1.453125 0.492188,0 0.796875,0.2929688 0.867188,0.796875 z m 3.93457,2.08593751 c -0.05859,0.0117188 -0.08203,0.0117188 -0.117187,0.0117188 -0.210938,0 -0.316406,-0.10546875 -0.316406,-0.28125 V -2.7668984 c 0,-0.6445313 -0.480469,-0.9960938 -1.371094,-0.9960938 -0.539063,0 -0.972656,0.1523438 -1.21875,0.4335938 -0.164063,0.1875 -0.234375,0.3984375 -0.246094,0.75 h 0.585938 c 0.04687,-0.4453125 0.304687,-0.6445313 0.855468,-0.6445313 0.515625,0 0.808594,0.1992188 0.808594,0.5507813 v 0.1523437 c 0,0.234375 -0.140625,0.3398438 -0.597656,0.3984375 -0.832031,0.1054688 -0.949219,0.1289063 -1.171875,0.2226563 -0.433594,0.1757812 -0.644531,0.5039062 -0.644531,0.97265621 0,0.66796875 0.457031,1.08984375 1.195312,1.08984375 0.46875,0 0.832031,-0.1640625 1.242188,-0.5390625 0.04687,0.36328125 0.222656,0.5390625 0.597656,0.5390625 0.128906,0 0.210937,-0.0234375 0.398437,-0.0703125 z M 51.399367,-1.1497109 c 0,0.18749996 -0.04687,0.31640621 -0.222656,0.46874996 -0.234375,0.22265625 -0.527344,0.328125 -0.867188,0.328125 -0.457031,0 -0.714843,-0.2109375 -0.714843,-0.5859375 0,-0.37499996 0.257812,-0.57421876 0.878906,-0.66796876 0.609375,-0.082031 0.738281,-0.1054687 0.925781,-0.1992187 z m 2.223633,-3.9375 h -0.585938 v 5.08593746 H 53.623 Z m 4.069336,3.4570312 c 0,-0.5625 -0.03516,-0.890625 -0.140625,-1.171875 -0.234375,-0.5976562 -0.796875,-0.9609375 -1.476563,-0.9609375 -1.019531,0 -1.675781,0.7851563 -1.675781,1.9804688 0,1.20703121 0.632813,1.94531246 1.652344,1.94531246 0.84375,0 1.417969,-0.48046875 1.570312,-1.27734376 h -0.585937 c -0.164063,0.48046876 -0.492188,0.73828126 -0.960938,0.73828126 -0.363281,0 -0.679687,-0.1640625 -0.878906,-0.48046875 -0.140625,-0.19921871 -0.1875,-0.41015621 -0.1875,-0.77343751 z m -2.671875,-0.4804687 c 0.04687,-0.6679688 0.457031,-1.1132813 1.042969,-1.1132813 0.574218,0 1.007812,0.4804688 1.007812,1.078125 0,0.011719 0,0.023437 0,0.035156 z m 0,0"
       style="fill:#000000;fill-opacity:1;fill-rule:nonzero;stroke:none"
       aria-label="5.Copy&amp;Unscale"
       transform="matrix(1.3333333,0,0,1.3333333,13.502667,57.294667)" />
    <path
       id="path39"
       d="m 39.12769,0 h 65.66642"
       style="fill:none;stroke:#999999;stroke-width:0.99628;stroke-linecap:butt;stroke-linejoin:miter;stroke-miterlimit:10;stroke-dasharray:2.98883, 2.98883;stroke-dashoffset:0;stroke-opacity:1"
       transform="matrix(1.3333333,0,0,-1.3333333,52.169333,19.396)" />
    <path
       id="path40"
       d="M 5.20058,0 C 3.65962,0.28891 1.15567,1.15567 -0.57784,2.1669 V -2.1669 C 1.15567,-1.15567 3.65962,-0.28891 5.20058,0"
       style="fill:#999999;fill-opacity:1;fill-rule:nonzero;stroke:none"
       transform="matrix(1.3333333,0,0,-1.3333333,191.89481,19.396)" />
    <path
       id="path41"
       d="M 57.21928,-5.21095 H 91.90307 V 5.21097 H 57.21928 Z"
       style="fill:#ffffff;fill-opacity:1;fill-rule:nonzero;stroke:none"
       transform="matrix(1.3333333,0,0,-1.3333333,52.169333,19.396)" />
    <path
       id="path42"
       d="M 3.4686406,-3.6553984 C 3.3514531,-4.4639922 2.8241094,-4.9444609 2.0741094,-4.9444609 c -0.5507813,0 -1.03125,0.2695312 -1.32421877,0.703125 -0.31640625,0.4804687 -0.4453125,1.0898437 -0.4453125,1.9921875 0,0.8320312 0.1171875,1.35937496 0.41015625,1.79296871 0.26953125,0.3984375 0.70312502,0.62109375 1.24218752,0.62109375 0.9492187,0 1.6171875,-0.703125 1.6171875,-1.67578126 0,-0.9140625 -0.6210938,-1.5585937 -1.5117188,-1.5585937 -0.4921875,0 -0.8671875,0.1875 -1.13671872,0.5507812 0.0117188,-1.2070312 0.39843752,-1.875 1.10156252,-1.875 0.4335937,0 0.7382812,0.2695313 0.8320312,0.7382813 z m -1.4765625,1.125 c 0.5859375,0 0.9609375,0.4101562 0.9609375,1.078125 0,0.62109371 -0.421875,1.06640621 -0.984375,1.06640621 -0.5742187,0 -1.00781247,-0.46875 -1.00781247,-1.10156251 0,-0.6210937 0.42187497,-1.0429687 1.03124997,-1.0429687 z m 3.2226563,1.80468746 H 4.4881719 V 8.515625e-4 H 5.2147344 Z M 12.058484,-5.0850859 v 3.5742187 c 0,0.67968751 -0.492187,1.10156251 -1.300781,1.10156251 -0.386719,0 -0.691406,-0.09375 -0.9374999,-0.26953125 -0.2460937,-0.1875 -0.3632812,-0.44531246 -0.3632812,-0.83203126 V -5.0850859 H 8.8123906 v 3.5742187 c 0,1.03125001 0.7382813,1.67578126 1.9453124,1.67578126 1.183594,0 1.957031,-0.65625 1.957031,-1.67578126 v -3.5742187 z m 1.567383,6.609375 h 0.585938 v -1.91015629 c 0.304687,0.375 0.644531,0.55078125 1.125,0.55078125 0.9375,0 1.558593,-0.76171875 1.558593,-1.93359376 0,-1.21875 -0.597656,-1.9921875 -1.570312,-1.9921875 -0.492188,0 -0.890625,0.2226563 -1.160156,0.65625 v -0.5507812 h -0.539063 z m 1.605469,-4.734375 c 0.644531,0 1.054687,0.5625 1.054687,1.4296875 0,0.83203121 -0.421875,1.39453121 -1.054687,1.39453121 -0.609375,0 -1.019531,-0.55078125 -1.019531,-1.41796871 0,-0.8554688 0.410156,-1.40625 1.019531,-1.40625 z m 5.352539,-1.875 h -0.585937 v 1.8867187 c -0.246094,-0.3632812 -0.632813,-0.5625 -1.125,-0.5625 -0.949219,0 -1.570313,0.7617188 -1.570313,1.9335938 0,1.23046871 0.609375,1.99218746 1.59375,1.99218746 0.503906,0 0.855469,-0.1875 1.160156,-0.64453125 V 8.515625e-4 h 0.527344 z m -1.605469,1.875 c 0.621094,0 1.019532,0.5507812 1.019532,1.4296875 0,0.84374996 -0.398438,1.39453121 -1.019532,1.39453121 -0.632812,0 -1.066406,-0.5625 -1.066406,-1.41796871 0,-0.84375 0.433594,-1.40625 1.066406,-1.40625 z m 5.753907,2.87109371 c -0.05859,0.0117188 -0.08203,0.0117188 -0.117188,0.0117188 -0.210937,0 -0.316406,-0.10546875 -0.316406,-0.28125 V -2.7647734 c 0,-0.6445313 -0.480469,-0.9960938 -1.371094,-0.9960938 -0.539062,0 -0.972656,0.1523438 -1.21875,0.4335938 -0.164062,0.1875 -0.234375,0.3984375 -0.246094,0.75 h 0.585938 c 0.04687,-0.4453125 0.304687,-0.6445313 0.855469,-0.6445313 0.515625,0 0.808593,0.1992188 0.808593,0.5507813 v 0.1523437 c 0,0.234375 -0.140625,0.3398438 -0.597656,0.3984375 -0.832031,0.1054688 -0.949219,0.1289063 -1.171875,0.2226563 -0.433594,0.1757812 -0.644531,0.5039062 -0.644531,0.97265621 0,0.66796875 0.457031,1.08984375 1.195312,1.08984375 0.46875,0 0.832032,-0.1640624975 1.242188,-0.5390625 0.04687,0.36328125 0.222656,0.5390625 0.597656,0.5390625 0.128906,0 0.210938,-0.0234375 0.398438,-0.0703125 z M 23.712781,-1.1475859 c 0,0.18749996 -0.04687,0.31640621 -0.222656,0.46874996 -0.234375,0.22265625 -0.527344,0.328125 -0.867187,0.328125 -0.457032,0 -0.714844,-0.2109375 -0.714844,-0.5859375 0,-0.37499996 0.257812,-0.57421876 0.878906,-0.66796876 0.609375,-0.082031 0.738281,-0.1054687 0.925781,-0.1992187 z m 2.938477,-2.5078125 h -0.597656 v -0.9960938 h -0.574219 v 0.9960938 h -0.503906 v 0.4804687 h 0.503906 v 2.75390626 c 0,0.375 0.246094,0.5859375 0.703125,0.5859375 0.140625,0 0.269531,-0.0234375 0.46875,-0.046875 v -0.4921875 c -0.07031,0.0234375 -0.164063,0.0234375 -0.28125,0.0234375 -0.246094,0 -0.316406,-0.0703125 -0.316406,-0.328125 V -3.1749297 h 0.597656 z m 3.74414,2.0273437 c 0,-0.5625 -0.03516,-0.890625 -0.140625,-1.171875 -0.234375,-0.5976562 -0.796875,-0.9609375 -1.476562,-0.9609375 -1.019531,0 -1.675781,0.7851563 -1.675781,1.9804688 0,1.20703121 0.632812,1.94531246 1.652343,1.94531246 0.84375,0 1.417969,-0.48046875 1.570313,-1.27734376 h -0.585938 c -0.164062,0.48046876 -0.492187,0.73828126 -0.960937,0.73828126 -0.363281,0 -0.679688,-0.1640625 -0.878906,-0.48046875 -0.140625,-0.19921871 -0.1875,-0.41015621 -0.1875,-0.77343751 z m -2.671875,-0.4804687 c 0.04687,-0.6679688 0.457032,-1.1132813 1.042969,-1.1132813 0.574219,0 1.007813,0.4804688 1.007813,1.078125 0,0.011719 0,0.023437 0,0.035156 z m 0,0"
       style="fill:#000000;fill-opacity:1;fill-rule:nonzero;stroke:none"
       aria-label="6.Update"
       transform="matrix(1.3333333,0,0,1.3333333,131.11733,21.729333)" />
  </g>
</svg>
