<?xml version="1.0" encoding="UTF-8" standalone="no"?>
<!-- Created with Inkscape (http://www.inkscape.org/) -->

<svg
   version="1.1"
   id="svg1"
   width="453.5"
   height="186.59067"
   viewBox="0 0 453.5 186.59067"
   xmlns="http://www.w3.org/2000/svg"
   xmlns:svg="http://www.w3.org/2000/svg">
  <defs
     id="defs1">
    <clipPath
       clipPathUnits="userSpaceOnUse"
       id="clipPath16">
      <path
         d="M 0,-14.173548 H 266.97486 V 99.214955 H 0 Z"
         id="path16" />
    </clipPath>
    <clipPath
       clipPathUnits="userSpaceOnUse"
       id="clipPath19">
      <path
         d="M -79.578002,119.26355 H 187.39685 V 5.8750501 H -79.578002 Z"
         id="path19" />
    </clipPath>
  </defs>
  <g
     id="g1">
    <path
       id="path1"
       d="m 0,-14.17355 v 113.3885 m 62.81761,-113.3885 v 113.3885 m 62.81761,-113.3885 v 113.3885 m 62.81762,-113.3885 v 113.3885 m 62.81761,-113.3885 v 113.3885"
       style="fill:none;stroke:#bfbfbf;stroke-width:0.3985;stroke-linecap:butt;stroke-linejoin:miter;stroke-miterlimit:10;stroke-dasharray:2.98883, 2.98883;stroke-dashoffset:0;stroke-opacity:1"
       transform="matrix(1.3333333,0,0,-1.3333333,68.184,132.55067)" />
    <path
       id="path2"
       d="m 0,-14.17355 v 4.2519 m 62.81761,-4.2519 v 4.2519 m 62.81761,-4.2519 v 4.2519 m 62.81762,-4.2519 v 4.2519 m 62.81761,-4.2519 v 4.2519"
       style="fill:none;stroke:#808080;stroke-width:0.19925;stroke-linecap:butt;stroke-linejoin:miter;stroke-miterlimit:10;stroke-dasharray:none;stroke-opacity:1"
       transform="matrix(1.3333333,0,0,-1.3333333,68.184,132.55067)" />
    <path
       id="path3"
       d="M 0,0 H 4.25179 M 0,28.34712 H 4.25179 M 0,56.69424 H 4.25179 M 0,85.04138 h 4.25179"
       style="fill:none;stroke:#808080;stroke-width:0.19925;stroke-linecap:butt;stroke-linejoin:miter;stroke-miterlimit:10;stroke-dasharray:none;stroke-opacity:1"
       transform="matrix(1.3333333,0,0,-1.3333333,68.184,132.55067)" />
    <path
       id="path4"
       d="M 0,-14.17355 H 266.97485"
       style="fill:none;stroke:#000000;stroke-width:0.3985;stroke-linecap:butt;stroke-linejoin:miter;stroke-miterlimit:10;stroke-dasharray:none;stroke-opacity:1"
       transform="matrix(1.3333333,0,0,-1.3333333,68.184,132.55067)" />
    <path
       id="path5"
       d="M 0,-14.17355 V 99.21495"
       style="fill:none;stroke:#000000;stroke-width:0.3985;stroke-linecap:butt;stroke-linejoin:miter;stroke-miterlimit:10;stroke-dasharray:none;stroke-opacity:1"
       transform="matrix(1.3333333,0,0,-1.3333333,68.184,132.55067)" />
    <path
       id="path6"
       d="m 3.901875,-2.5418281 c 0,-0.8554688 -0.09375,-1.3710938 -0.3515625,-1.875 -0.3515625,-0.703125 -0.9960937,-0.8789063 -1.4414062,-0.8789063 -0.9960938,0 -1.3710938,0.75 -1.47656255,0.9726563 -0.29296875,0.5742187 -0.3046875,1.3710937 -0.3046875,1.78125 0,0.5273437 0.0234375,1.3359375 0.41015625,1.96874998 0.3632813,0.5859375 0.9492188,0.73828125 1.3710938,0.73828125 0.3867187,0 1.0664062,-0.1171875 1.4648437,-0.90234375 C 3.8667188,-1.3113594 3.901875,-2.0262031 3.901875,-2.5418281 Z m -1.7929687,2.48437498 c -0.2695313,0 -0.8203125,-0.12890625 -0.984375,-0.96093748 -0.09375,-0.4570313 -0.09375,-1.2070313 -0.09375,-1.6171875 0,-0.5507813 0,-1.1132813 0.09375,-1.546875 0.1640625,-0.8085938 0.7851562,-0.890625 0.984375,-0.890625 0.2695312,0 0.8203125,0.1289062 0.984375,0.8554687 0.09375,0.4453125 0.09375,1.0429688 0.09375,1.5820313 0,0.46875 0,1.1835937 -0.09375,1.6289062 -0.1640625,0.84375003 -0.7148438,0.94921878 -0.984375,0.94921878 z m 0,0"
       style="fill:#000000;fill-opacity:1;fill-rule:nonzero;stroke:none"
       aria-label="0"
       transform="matrix(1.3333333,0,0,1.3333333,65.36,162.99067)" />
    <path
       id="path7"
       d="m 2.2497266,-1.6277656 c 0.1289062,-0.1171875 0.4570312,-0.375 0.5859375,-0.4921875 0.4921875,-0.4570313 0.9609375,-0.890625 0.9609375,-1.6171875 0,-0.9492188 -0.796875,-1.5585938 -1.7929688,-1.5585938 -0.9492187,0 -1.58203124,0.7265625 -1.58203124,1.4296875 0,0.3984375 0.31640625,0.4453125 0.421875,0.4453125 0.16406254,0 0.41015624,-0.1171875 0.41015624,-0.421875 0,-0.4101562 -0.39843749,-0.4101562 -0.49218749,-0.4101562 0.234375,-0.5859375 0.77343749,-0.7851563 1.16015629,-0.7851563 0.7382812,0 1.125,0.6328125 1.125,1.3007813 0,0.8320312 -0.5859375,1.4296875 -1.5234375,2.4023437 l -1.00781254,1.03125003 c -0.09375,0.09375 -0.09375,0.10546875 -0.09375,0.3046875 H 3.5739453 L 3.7966016,-1.4285469 H 3.5505078 c -0.023437,0.1640625 -0.082031,0.56250003 -0.1757812,0.71484378 -0.046875,0.0585938 -0.65625,0.0585938 -0.7851563,0.0585938 H 1.1716016 Z m 5.8857422,-0.9140625 c 0,-0.8554688 -0.09375,-1.3710938 -0.3515625,-1.875 C 7.4323438,-5.1199531 6.7878125,-5.2957344 6.3425,-5.2957344 c -0.9960937,0 -1.3710937,0.75 -1.4765625,0.9726563 -0.2929687,0.5742187 -0.3046875,1.3710937 -0.3046875,1.78125 0,0.5273437 0.023437,1.3359375 0.4101563,1.96874998 0.3632812,0.5859375 0.9492187,0.73828125 1.3710937,0.73828125 0.3867188,0 1.0664063,-0.1171875 1.4648438,-0.90234375 0.2929687,-0.57421878 0.328125,-1.28906248 0.328125,-1.80468748 z M 6.3425,-0.05745312 c -0.2695312,0 -0.8203125,-0.12890625 -0.984375,-0.96093748 -0.09375,-0.4570313 -0.09375,-1.2070313 -0.09375,-1.6171875 0,-0.5507813 0,-1.1132813 0.09375,-1.546875 0.1640625,-0.8085938 0.7851563,-0.890625 0.984375,-0.890625 0.2695313,0 0.8203125,0.1289062 0.984375,0.8554687 0.09375,0.4453125 0.09375,1.0429688 0.09375,1.5820313 0,0.46875 0,1.1835937 -0.09375,1.6289062 -0.1640625,0.84375003 -0.7148437,0.94921878 -0.984375,0.94921878 z m 0,0"
       style="fill:#000000;fill-opacity:1;fill-rule:nonzero;stroke:none"
       aria-label="20"
       transform="matrix(1.3333333,0,0,1.3333333,146.29333,162.99067)" />
    <path
       id="path8"
       d="m 3.1417109,-5.1551094 c 0,-0.1640625 0,-0.2226562 -0.1640625,-0.2226562 -0.1054687,0 -0.1171875,0.011719 -0.1992187,0.1171875 l -2.54296876,3.6914062 v 0.2578125 H 2.4854609 v 0.66796878 c 0,0.29296875 -0.023437,0.38671875 -0.6328125,0.38671875 h -0.1875 v 0.2578125 c 0.6796875,-0.0234375 0.6914063,-0.0234375 1.1484375,-0.0234375 0.4570313,0 0.46875,0 1.1484375,0.0234375 v -0.2578125 h -0.1875 c -0.609375,0 -0.6328125,-0.09375 -0.6328125,-0.38671875 V -1.3113594 h 0.84375 v -0.2578125 h -0.84375 z m -0.5976562,0.6445313 v 2.9414062 H 0.51671094 Z m 5.5927734,1.96875 c 0,-0.8554688 -0.09375,-1.3710938 -0.3515625,-1.875 -0.3515625,-0.703125 -0.9960937,-0.8789063 -1.4414062,-0.8789063 -0.9960938,0 -1.3710938,0.75 -1.4765625,0.9726563 -0.2929688,0.5742187 -0.3046875,1.3710937 -0.3046875,1.78125 0,0.5273437 0.023437,1.3359375 0.4101562,1.96874998 0.3632813,0.5859375 0.9492188,0.73828125 1.3710938,0.73828125 0.3867187,0 1.0664062,-0.1171875 1.4648437,-0.90234375 0.2929688,-0.57421878 0.328125,-1.28906248 0.328125,-1.80468748 z m -1.7929687,2.48437498 c -0.2695313,0 -0.8203125,-0.12890625 -0.984375,-0.96093748 -0.09375,-0.4570313 -0.09375,-1.2070313 -0.09375,-1.6171875 0,-0.5507813 0,-1.1132813 0.09375,-1.546875 0.1640625,-0.8085938 0.7851562,-0.890625 0.984375,-0.890625 0.2695312,0 0.8203125,0.1289062 0.984375,0.8554687 0.09375,0.4453125 0.09375,1.0429688 0.09375,1.5820313 0,0.46875 0,1.1835937 -0.09375,1.6289062 -0.1640625,0.84375003 -0.7148438,0.94921878 -0.984375,0.94921878 z m 0,0"
       style="fill:#000000;fill-opacity:1;fill-rule:nonzero;stroke:none"
       aria-label="40"
       transform="matrix(1.3333333,0,0,1.3333333,230.04933,162.99067)" />
    <path
       id="path9"
       d="m 1.1010781,-2.6355781 c 0,-0.6679688 0.058594,-1.2421875 0.3398438,-1.734375 0.234375,-0.3984375 0.6445312,-0.7265625 1.1484375,-0.7265625 0.1640625,0 0.5273437,0.035156 0.7148437,0.3046875 -0.3632812,0.023437 -0.3984375,0.2929687 -0.3984375,0.375 0,0.2460937 0.1875,0.375 0.375,0.375 0.140625,0 0.375,-0.082031 0.375,-0.3867188 0,-0.4804687 -0.3515625,-0.8671875 -1.078125,-0.8671875 -1.1015625,0 -2.22656247,1.0546875 -2.22656247,2.765625 0,2.16796878 1.00781247,2.69531253 1.78124997,2.69531253 0.375,0 0.796875,-0.10546875 1.1484375,-0.4453125 0.3164063,-0.3046875 0.5859375,-0.64453125 0.5859375,-1.33593753 0,-1.0429687 -0.7851562,-1.78125 -1.6640625,-1.78125 -0.5742187,0 -0.9257812,0.375 -1.1015625,0.7617188 z m 1.03125,2.56640623 c -0.421875,0 -0.6914062,-0.29296875 -0.8085937,-0.515625 -0.1875,-0.36328125 -0.1992188,-0.90234373 -0.1992188,-1.20703123 0,-0.7851563 0.4335938,-1.3828125 1.0429688,-1.3828125 0.3984375,0 0.6328125,0.2109375 0.7851562,0.4921875 0.1757813,0.2929687 0.1757813,0.65625 0.1757813,1.0546875 0,0.4101562 0,0.76171873 -0.1640625,1.04296873 -0.2109375,0.375 -0.4921875,0.515625 -0.8320313,0.515625 z M 8.1381875,-2.5418281 c 0,-0.8554688 -0.09375,-1.3710938 -0.3515625,-1.875 -0.3515625,-0.703125 -0.9960937,-0.8789063 -1.4414062,-0.8789063 -0.9960938,0 -1.3710938,0.75 -1.4765625,0.9726563 -0.2929688,0.5742187 -0.3046875,1.3710937 -0.3046875,1.78125 0,0.5273437 0.023437,1.3359375 0.4101562,1.96874998 0.3632813,0.5859375 0.9492188,0.73828125 1.3710938,0.73828125 0.3867187,0 1.0664062,-0.1171875 1.4648437,-0.90234375 0.2929688,-0.57421878 0.328125,-1.28906248 0.328125,-1.80468748 z m -1.7929687,2.48437498 c -0.2695313,0 -0.8203125,-0.12890625 -0.984375,-0.96093748 -0.09375,-0.4570313 -0.09375,-1.2070313 -0.09375,-1.6171875 0,-0.5507813 0,-1.1132813 0.09375,-1.546875 0.1640625,-0.8085938 0.7851562,-0.890625 0.984375,-0.890625 0.2695312,0 0.8203125,0.1289062 0.984375,0.8554687 0.09375,0.4453125 0.09375,1.0429688 0.09375,1.5820313 0,0.46875 0,1.1835937 -0.09375,1.6289062 -0.1640625,0.84375003 -0.7148438,0.94921878 -0.984375,0.94921878 z m 0,0"
       style="fill:#000000;fill-opacity:1;fill-rule:nonzero;stroke:none"
       aria-label="60"
       transform="matrix(1.3333333,0,0,1.3333333,313.80533,162.99067)" />
    <path
       id="path10"
       d="m 2.6493125,-2.8699531 c 0.4453125,-0.2226563 0.984375,-0.6210938 0.984375,-1.2421875 0,-0.75 -0.7734375,-1.1835938 -1.5117187,-1.1835938 -0.84375,0 -1.5351563,0.5742188 -1.5351563,1.3242188 0,0.3046875 0.10546875,0.5742187 0.3046875,0.796875 0.140625,0.1757812 0.1640625,0.1875 0.6679688,0.5039062 -0.9960938,0.4335938 -1.2070313,1.0195313 -1.2070313,1.4648438 0,0.86718748 0.8789063,1.37109373 1.7578125,1.37109373 0.9726563,0 1.7578125,-0.65625 1.7578125,-1.50000003 0,-0.5039062 -0.2695312,-0.84375 -0.3984375,-0.9726562 -0.1289062,-0.1289063 -0.140625,-0.140625 -0.8203125,-0.5625 z m -1.2421875,-0.75 c -0.2226562,-0.140625 -0.421875,-0.375 -0.421875,-0.6445313 0,-0.5039062 0.5507813,-0.8320312 1.125,-0.8320312 0.6210938,0 1.125,0.4335937 1.125,0.984375 0,0.46875 -0.3632812,0.8554687 -0.8320312,1.0898437 z m 0.3984375,1.0898437 c 0.023437,0.011719 0.9375,0.5742188 1.0664063,0.65625 0.1289062,0.070312 0.5507812,0.328125 0.5507812,0.8085938 0,0.60937498 -0.6445312,0.99609373 -1.3007812,0.99609373 -0.7148438,0 -1.31250005,-0.4921875 -1.31250005,-1.13671873 0,-0.5976563 0.44531255,-1.0664063 0.99609375,-1.3242188 z m 6.3310547,-0.011719 c 0,-0.8554688 -0.09375,-1.3710938 -0.3515625,-1.875 -0.3515625,-0.703125 -0.9960938,-0.8789063 -1.4414063,-0.8789063 -0.9960937,0 -1.3710937,0.75 -1.4765625,0.9726563 -0.2929687,0.5742187 -0.3046875,1.3710937 -0.3046875,1.78125 0,0.5273437 0.023437,1.3359375 0.4101563,1.96874998 0.3632812,0.5859375 0.9492187,0.73828125 1.3710937,0.73828125 0.3867188,0 1.0664063,-0.1171875 1.4648438,-0.90234375 0.2929687,-0.57421878 0.328125,-1.28906248 0.328125,-1.80468748 z m -1.7929688,2.48437498 c -0.2695312,0 -0.8203125,-0.12890625 -0.984375,-0.96093748 -0.09375,-0.4570313 -0.09375,-1.2070313 -0.09375,-1.6171875 0,-0.5507813 0,-1.1132813 0.09375,-1.546875 0.1640625,-0.8085938 0.7851563,-0.890625 0.984375,-0.890625 0.2695313,0 0.8203125,0.1289062 0.984375,0.8554687 0.09375,0.4453125 0.09375,1.0429688 0.09375,1.5820313 0,0.46875 0,1.1835937 -0.09375,1.6289062 -0.1640625,0.84375003 -0.7148437,0.94921878 -0.984375,0.94921878 z m 0,0"
       style="fill:#000000;fill-opacity:1;fill-rule:nonzero;stroke:none"
       aria-label="80"
       transform="matrix(1.3333333,0,0,1.3333333,397.56133,162.99067)" />
    <path
       id="path11"
       d="m 3.1184531,-2.9778203 c 0.5859375,-0.3515625 0.7734375,-0.6328125 0.7734375,-1.171875 0,-0.8789063 -0.6914062,-1.5 -1.6992187,-1.5 -0.9960938,0 -1.69921878,0.6210937 -1.69921878,1.5 0,0.5273437 0.1875,0.8203125 0.76171878,1.171875 -0.64453128,0.3164062 -0.96093753,0.7851562 -0.96093753,1.40625 0,1.03124999 0.78515623,1.75781249 1.89843753,1.75781249 1.1132812,0 1.8984375,-0.7265625 1.8984375,-1.74609379 0,-0.6328125 -0.3164063,-1.1015625 -0.9726563,-1.4179687 z M 2.1926719,-5.0286016 c 0.5976562,0 0.984375,0.3515625 0.984375,0.9023438 0,0.5273437 -0.3984375,0.8789062 -0.984375,0.8789062 -0.5859375,0 -0.984375,-0.3515625 -0.984375,-0.890625 0,-0.5390625 0.3984375,-0.890625 0.984375,-0.890625 z m 0,2.3671875 c 0.703125,0 1.1835937,0.4453125 1.1835937,1.1015625 0,0.67968754 -0.4804687,1.12500004 -1.1953125,1.12500004 -0.6914062,0 -1.171875,-0.45703125 -1.171875,-1.12500004 0,-0.65625 0.4804688,-1.1015625 1.1835938,-1.1015625 z m 4.5,0.1757813 H 4.7942344 v 0.5742187 h 1.8984375 z m 0.8261718,-3.328125 v 5.81249999 H 8.1165 v -0.5390625 c 0.3164062,0.4921875 0.7382812,0.7265625 1.3242187,0.7265625 1.0898433,0 1.8164063,-0.90234375 1.8164063,-2.29687499 0,-1.3476563 -0.691406,-2.1914063 -1.7929688,-2.1914063 -0.5742187,0 -0.9726562,0.2226563 -1.2890625,0.6914063 v -2.203125 z M 9.33525,-3.6692266 c 0.75,0 1.21875,0.6445313 1.21875,1.640625 0,0.9492188 -0.492188,1.59375004 -1.21875,1.59375004 -0.6914063,0 -1.1601563,-0.64453124 -1.1601563,-1.61718754 0,-0.984375 0.46875,-1.6171875 1.1601563,-1.6171875 z m 3.37793,-0.5039062 h -0.65625 v 4.17187499 h 0.65625 z m 0,-1.640625 h -0.667969 v 0.84375 h 0.667969 z m 2.601562,1.640625 h -0.691406 v -1.1484375 h -0.65625 v 1.1484375 h -0.5625 v 0.5390625 h 0.5625 v 3.15234374 c 0,0.421875 0.28125,0.66796875 0.796875,0.66796875 0.164062,0 0.328125,-0.0234375 0.550781,-0.0585938 v -0.5625 c -0.09375,0.0234375 -0.199219,0.0351563 -0.316406,0.0351563 -0.292969,0 -0.375,-0.0820313 -0.375,-0.375 V -3.6340703 h 0.691406 z m 8.041992,1.1015625 h -2.425781 v 0.65625 h 1.769531 v 0.1640625 c 0,1.03125 -0.761718,1.78124999 -1.816406,1.78124999 -0.597656,0 -1.125,-0.2109375 -1.464844,-0.58593749 -0.386718,-0.421875 -0.621093,-1.1132813 -0.621093,-1.828125 0,-1.4296875 0.820312,-2.3671875 2.039062,-2.3671875 0.890625,0 1.523438,0.4570312 1.6875,1.2070312 h 0.75 c -0.199219,-1.1835937 -1.101562,-1.8632812 -2.425781,-1.8632812 -0.714844,0 -1.289063,0.1875 -1.734375,0.5625 -0.667969,0.5507812 -1.054688,1.453125 -1.054688,2.4960937 0,1.7929688 1.089844,3.03515629 2.660157,3.03515629 0.785156,0 1.417968,-0.3046875 1.980468,-0.92578125 l 0.1875,0.7734375 h 0.46875 z m 4.819336,2.68359374 c -0.07031,0.0117188 -0.105468,0.0117188 -0.140625,0.0117188 -0.234375,0 -0.363281,-0.1171875 -0.363281,-0.328125 V -3.1536016 c 0,-0.75 -0.539062,-1.1484375 -1.570312,-1.1484375 -0.609375,0 -1.113282,0.1757813 -1.382813,0.4921875 -0.199219,0.2109375 -0.269531,0.4570313 -0.292969,0.8671875 h 0.667969 c 0.05859,-0.5039062 0.363281,-0.7382812 0.984375,-0.7382812 0.597656,0 0.9375,0.2226562 0.9375,0.6210937 v 0.1757813 c 0,0.28125 -0.175781,0.3984375 -0.703125,0.4570312 -0.9375,0.1171875 -1.078125,0.1523438 -1.335937,0.2578125 -0.480469,0.1992188 -0.726563,0.5742188 -0.726563,1.1132813 0,0.76171874 0.515625,1.24218749 1.371094,1.24218749 0.515625,0 0.9375,-0.1875 1.417969,-0.62109375 0.04687,0.421875 0.246093,0.62109375 0.679687,0.62109375 0.140625,0 0.234375,-0.0234375 0.457031,-0.0703125 z M 27.015914,-1.3137578 c 0,0.2226562 -0.07031,0.35156249 -0.269531,0.53906249 -0.269531,0.24609375 -0.597656,0.375 -0.984375,0.375 -0.515625,0 -0.820313,-0.24609375 -0.820313,-0.66796879 0,-0.4453125 0.292969,-0.6679687 0.996094,-0.7617187 0.703125,-0.1054688 0.84375,-0.1289063 1.078125,-0.234375 z m 2.709961,-4.5 h -0.75 v 5.81249999 h 3.609375 v -0.65625 h -2.859375 z m 5.214844,1.5117187 c -1.171875,0 -1.886719,0.84375 -1.886719,2.25 0,1.39453129 0.703125,2.23828129 1.898437,2.23828129 1.171875,0 1.886719,-0.84375 1.886719,-2.21484379 0,-1.4414062 -0.691406,-2.2734375 -1.898437,-2.2734375 z m 0.01172,0.6210938 c 0.75,0 1.195313,0.609375 1.195313,1.6523437 0,0.9726563 -0.46875,1.59375004 -1.195313,1.59375004 -0.75,0 -1.195312,-0.60937504 -1.195312,-1.61718754 0,-1.0078125 0.445312,-1.6289062 1.195312,-1.6289062 z m 2.803711,-0.4921875 v 4.17187499 h 0.667969 V -2.1692266 c 0,-0.5976562 0.152344,-0.984375 0.46875,-1.21875 0.210938,-0.1523437 0.410156,-0.1992187 0.867188,-0.2109375 v -0.6679687 c -0.105469,-0.023437 -0.164063,-0.035156 -0.246094,-0.035156 -0.433594,0 -0.761719,0.2578125 -1.148438,0.8789063 v -0.75 z m 6.19336,2.3085937 c 0,-0.6445312 -0.04687,-1.0195312 -0.164063,-1.3359375 -0.28125,-0.6796875 -0.914062,-1.1015625 -1.699218,-1.1015625 -1.160157,0 -1.910157,0.9023438 -1.910157,2.2734375 0,1.37109379 0.726563,2.21484379 1.898438,2.21484379 0.960937,0 1.617187,-0.55078125 1.78125,-1.45312499 h -0.667969 c -0.175781,0.55078124 -0.550781,0.83203124 -1.089844,0.83203124 -0.421875,0 -0.785156,-0.1875 -1.007812,-0.5390625 -0.152346,-0.23437504 -0.21094,-0.48046874 -0.222658,-0.89062504 z m -3.058594,-0.5390625 c 0.04687,-0.7734375 0.527344,-1.2773437 1.195313,-1.2773437 0.644531,0 1.148437,0.5390625 1.148437,1.2304687 0,0.011719 0,0.023437 0,0.046875 z m 0,0"
       style="fill:#000000;fill-opacity:1;fill-rule:nonzero;stroke:none"
       aria-label="8-bitGaLore"
       transform="matrix(1.3333333,0,0,1.3333333,4.428,136.34933)" />
    <path
       id="path12"
       d="m 3.1162187,-2.9753672 c 0.5859375,-0.3515625 0.7734376,-0.6328125 0.7734376,-1.171875 0,-0.8789062 -0.6914063,-1.5 -1.6992188,-1.5 -0.9960938,0 -1.69921875,0.6210938 -1.69921875,1.5 0,0.5273438 0.1875,0.8203125 0.76171875,1.171875 C 0.60840625,-2.6589609 0.292,-2.1902109 0.292,-1.5691172 c 0,1.03125001 0.7851562,1.75781251 1.8984375,1.75781251 1.1132812,0 1.8984375,-0.7265625 1.8984375,-1.74609371 0,-0.6328125 -0.3164063,-1.1015625 -0.9726563,-1.4179688 z M 2.1904375,-5.0261484 c 0.5976562,0 0.984375,0.3515625 0.984375,0.9023437 0,0.5273438 -0.3984375,0.8789063 -0.984375,0.8789063 -0.5859375,0 -0.984375,-0.3515625 -0.984375,-0.890625 0,-0.5390625 0.3984375,-0.890625 0.984375,-0.890625 z m 0,2.3671875 c 0.703125,0 1.1835937,0.4453125 1.1835937,1.1015625 0,0.67968746 -0.4804687,1.12499996 -1.1953125,1.12499996 -0.6914062,0 -1.171875,-0.45703125 -1.171875,-1.12499996 0,-0.65625 0.4804688,-1.1015625 1.1835938,-1.1015625 z m 4.5029297,0.1757812 H 4.7949297 v 0.5742188 h 1.8984375 z m 0.8261719,-3.328125 v 5.81250001 h 0.5976562 v -0.5390625 c 0.3164063,0.4921875 0.7382813,0.7265625 1.3242188,0.7265625 1.0898439,0 1.8164059,-0.90234375 1.8164059,-2.29687501 0,-1.3476562 -0.691406,-2.1914062 -1.7929684,-2.1914062 -0.5742188,0 -0.9726563,0.2226562 -1.2890625,0.6914062 v -2.203125 z m 1.8164062,2.1445313 c 0.7499997,0 1.2187497,0.6445312 1.2187497,1.640625 0,0.9492187 -0.492187,1.59374996 -1.2187497,1.59374996 -0.6914062,0 -1.1601562,-0.64453126 -1.1601562,-1.61718746 0,-0.984375 0.46875,-1.6171875 1.1601562,-1.6171875 z m 3.3749997,-0.5039063 h -0.65625 v 4.17187501 h 0.65625 z m 0,-1.640625 h -0.667968 v 0.84375 h 0.667968 z m 2.601563,1.640625 h -0.691406 v -1.1484375 h -0.65625 v 1.1484375 h -0.5625 v 0.5390625 h 0.5625 v 3.15234376 c 0,0.421875 0.28125,0.66796875 0.796875,0.66796875 0.164062,0 0.328125,-0.0234375 0.550781,-0.0585938 v -0.5625 c -0.09375,0.0234375 -0.199219,0.0351563 -0.316406,0.0351563 -0.292969,0 -0.375,-0.0820313 -0.375,-0.375 V -3.6316172 h 0.691406 z m 6.169922,2.4257813 0.597656,1.74609371 h 0.832031 L 20.873055,-5.8113047 h -0.960938 l -2.0625,5.81250001 h 0.785156 l 0.609375,-1.74609371 z m -0.199219,-0.6210938 h -1.851563 l 0.949219,-2.6484375 z m 5.692383,-3.4453125 h -0.667969 v 2.1679688 c -0.28125,-0.421875 -0.726562,-0.65625 -1.277344,-0.65625 -1.089843,0 -1.792968,0.8789062 -1.792968,2.203125 0,1.41796871 0.691406,2.28515621 1.816406,2.28515621 0.574219,0 0.972656,-0.22265625 1.324219,-0.73828125 v 0.55078125 h 0.597656 z m -1.839844,2.1445313 c 0.714844,0 1.171875,0.6328125 1.171875,1.6289062 0,0.9609375 -0.457031,1.60546876 -1.160156,1.60546876 -0.738281,0 -1.21875,-0.64453126 -1.21875,-1.61718746 0,-0.9726563 0.480469,-1.6171875 1.207031,-1.6171875 z m 6.585938,3.28124996 c -0.07031,0.0117188 -0.105469,0.0117188 -0.140625,0.0117188 -0.234375,0 -0.363282,-0.1171875 -0.363282,-0.328125 V -3.1511484 c 0,-0.75 -0.539062,-1.1484375 -1.570312,-1.1484375 -0.609375,0 -1.113281,0.1757812 -1.382813,0.4921875 -0.199218,0.2109375 -0.269531,0.4570312 -0.292968,0.8671875 h 0.667968 c 0.05859,-0.5039063 0.363282,-0.7382813 0.984375,-0.7382813 0.597657,0 0.9375,0.2226563 0.9375,0.6210938 v 0.1757812 c 0,0.28125 -0.175781,0.3984375 -0.703125,0.4570313 -0.9375,0.1171875 -1.078125,0.1523437 -1.335937,0.2578125 -0.480469,0.1992187 -0.726563,0.5742187 -0.726563,1.1132812 0,0.76171876 0.515625,1.24218751 1.371094,1.24218751 0.515625,0 0.9375,-0.1875 1.417969,-0.62109375 0.04687,0.421875 0.246094,0.62109375 0.679687,0.62109375 0.140625,0 0.234375,-0.0234375 0.457032,-0.0703125 z M 30.561531,-1.3113047 c 0,0.2226563 -0.07031,0.35156251 -0.269531,0.53906251 -0.269531,0.24609375 -0.597656,0.375 -0.984375,0.375 -0.515625,0 -0.820312,-0.24609375 -0.820312,-0.66796871 0,-0.4453125 0.292968,-0.6679688 0.996093,-0.7617188 0.703125,-0.1054687 0.84375,-0.1289062 1.078125,-0.234375 z m 1.889649,-2.859375 v 4.17187501 h 0.667968 V -2.6238047 c 0,-0.5976562 0.433594,-1.0898437 0.972657,-1.0898437 0.503906,0 0.773437,0.3046875 0.773437,0.84375 v 2.87109371 h 0.667969 V -2.6238047 c 0,-0.5976562 0.445312,-1.0898437 0.984375,-1.0898437 0.492187,0 0.773437,0.3164062 0.773437,0.84375 v 2.87109371 h 0.667969 V -3.1277109 c 0,-0.75 -0.433594,-1.171875 -1.207031,-1.171875 -0.5625,0 -0.890625,0.1757812 -1.289063,0.6445312 -0.246093,-0.4453125 -0.574218,-0.6445312 -1.125,-0.6445312 -0.550781,0 -0.914062,0.2109375 -1.277343,0.7148437 v -0.5859375 z m 0,0"
       style="fill:#000000;fill-opacity:1;fill-rule:nonzero;stroke:none"
       aria-label="8-bitAdam"
       transform="matrix(1.3333333,0,0,1.3333333,12.110667,98.432)" />
    <path
       id="path13"
       d="M 3.7745312,-1.7446484 4.3721875,0.00144531 H 5.2042187 L 3.1651562,-5.8110547 H 2.2042187 L 0.14171875,0.00144531 H 0.926875 L 1.53625,-1.7446484 Z M 3.5753125,-2.3657422 H 1.72375 L 2.6729687,-5.0141797 Z M 9.2647656,-5.8110547 H 8.5967969 v 2.1679688 c -0.28125,-0.421875 -0.7265625,-0.65625 -1.2773438,-0.65625 -1.0898437,0 -1.7929687,0.8789062 -1.7929687,2.203125 0,1.41796871 0.6914062,2.28515621 1.8164062,2.28515621 0.5742188,0 0.9726563,-0.22265625 1.3242188,-0.73828125 v 0.55078125 h 0.5976562 z m -1.8398437,2.1445313 c 0.7148437,0 1.171875,0.6328125 1.171875,1.6289062 0,0.9609375 -0.4570313,1.60546876 -1.1601563,1.60546876 -0.7382812,0 -1.21875,-0.64453126 -1.21875,-1.61718746 0,-0.9726563 0.4804688,-1.6171875 1.2070313,-1.6171875 z m 6.5888671,3.28124996 c -0.07031,0.0117188 -0.105469,0.0117188 -0.140625,0.0117188 -0.234375,0 -0.363281,-0.1171875 -0.363281,-0.328125 V -3.1508984 c 0,-0.75 -0.539063,-1.1484375 -1.570313,-1.1484375 -0.609375,0 -1.113281,0.1757812 -1.382812,0.4921875 -0.199219,0.2109375 -0.269531,0.4570312 -0.292969,0.8671875 h 0.667969 c 0.05859,-0.5039063 0.363281,-0.7382813 0.984375,-0.7382813 0.597656,0 0.9375,0.2226563 0.9375,0.6210938 v 0.1757812 c 0,0.28125 -0.175781,0.3984375 -0.703125,0.4570313 -0.9375,0.1171875 -1.078125,0.1523437 -1.335938,0.2578125 -0.480468,0.1992187 -0.726562,0.5742187 -0.726562,1.1132812 0,0.76171876 0.515625,1.24218751 1.371094,1.24218751 0.515625,0 0.9375,-0.1875 1.417968,-0.62109375 0.04687,0.421875 0.246094,0.62109375 0.679688,0.62109375 0.140625,0 0.234375,-0.0234375 0.457031,-0.0703125 z M 12.853633,-1.3110547 c 0,0.2226563 -0.07031,0.35156251 -0.269531,0.53906251 -0.269532,0.24609375 -0.597657,0.375 -0.984375,0.375 -0.515625,0 -0.820313,-0.24609375 -0.820313,-0.66796871 0,-0.4453125 0.292969,-0.6679688 0.996094,-0.7617188 0.703125,-0.1054687 0.84375,-0.1289062 1.078125,-0.234375 z m 3.375,-2.859375 h -0.691406 v -0.65625 c 0,-0.28125 0.164062,-0.421875 0.46875,-0.421875 0.04687,0 0.08203,0 0.222656,0.011719 V -5.787617 c -0.140625,-0.035156 -0.234375,-0.046875 -0.375,-0.046875 -0.609375,0 -0.972656,0.3515625 -0.972656,0.9492188 v 0.7148437 h -0.5625 v 0.5390625 h 0.5625 v 3.63281251 h 0.65625 V -3.6313672 h 0.691406 z m 4.192383,3.78515626 c -0.07031,0.0117188 -0.105469,0.0117188 -0.140625,0.0117188 -0.234375,0 -0.363282,-0.1171875 -0.363282,-0.328125 V -3.1508984 c 0,-0.75 -0.539062,-1.1484375 -1.570312,-1.1484375 -0.609375,0 -1.113281,0.1757812 -1.382813,0.4921875 -0.199218,0.2109375 -0.269531,0.4570312 -0.292968,0.8671875 h 0.667968 c 0.05859,-0.5039063 0.363282,-0.7382813 0.984375,-0.7382813 0.597657,0 0.9375,0.2226563 0.9375,0.6210938 v 0.1757812 c 0,0.28125 -0.175781,0.3984375 -0.703125,0.4570313 -0.9375,0.1171875 -1.078125,0.1523437 -1.335937,0.2578125 -0.480469,0.1992187 -0.726563,0.5742187 -0.726563,1.1132812 0,0.76171876 0.515625,1.24218751 1.371094,1.24218751 0.515625,0 0.9375,-0.1875 1.417969,-0.62109375 0.04687,0.421875 0.246094,0.62109375 0.679687,0.62109375 0.140625,0 0.234375,-0.0234375 0.457032,-0.0703125 z M 19.260859,-1.3110547 c 0,0.2226563 -0.07031,0.35156251 -0.269531,0.53906251 -0.269531,0.24609375 -0.597656,0.375 -0.984375,0.375 -0.515625,0 -0.820312,-0.24609375 -0.820312,-0.66796871 0,-0.4453125 0.292968,-0.6679688 0.996093,-0.7617188 0.703125,-0.1054687 0.84375,-0.1289062 1.078125,-0.234375 z m 5.077149,-1.4648437 c -0.02344,-0.3984375 -0.117188,-0.6679688 -0.28125,-0.890625 -0.28125,-0.3984375 -0.785156,-0.6328125 -1.359375,-0.6328125 -1.125,0 -1.863281,0.9023437 -1.863281,2.2851562 0,1.34765626 0.714843,2.20312501 1.851562,2.20312501 0.996094,0 1.628906,-0.59765625 1.699219,-1.61718751 h -0.667969 c -0.105469,0.66796876 -0.457031,0.99609376 -1.019531,0.99609376 -0.726563,0 -1.171875,-0.59765626 -1.171875,-1.58203126 0,-1.0429687 0.433594,-1.6640625 1.160156,-1.6640625 0.550781,0 0.902344,0.328125 0.984375,0.9023438 z m 2.261719,-1.3945313 H 25.90832 v -1.1484375 h -0.65625 v 1.1484375 h -0.5625 v 0.5390625 h 0.5625 v 3.15234376 c 0,0.421875 0.28125,0.66796875 0.796875,0.66796875 0.164063,0 0.328125,-0.0234375 0.550782,-0.0585938 v -0.5625 c -0.09375,0.0234375 -0.199219,0.0351563 -0.316407,0.0351563 -0.292968,0 -0.375,-0.0820313 -0.375,-0.375 V -3.6313672 h 0.691407 z m 2.355468,-0.1289062 c -1.171875,0 -1.886718,0.84375 -1.886718,2.25 0,1.39453121 0.703125,2.23828121 1.898437,2.23828121 1.171875,0 1.886719,-0.84375 1.886719,-2.21484371 0,-1.4414063 -0.691406,-2.2734375 -1.898438,-2.2734375 z m 0.01172,0.6210937 c 0.75,0 1.195313,0.609375 1.195313,1.6523438 0,0.9726562 -0.46875,1.59374996 -1.195313,1.59374996 -0.75,0 -1.195312,-0.60937496 -1.195312,-1.61718746 0,-1.0078125 0.445312,-1.6289063 1.195312,-1.6289063 z m 2.803711,-0.4921875 v 4.17187501 h 0.667969 V -2.1665234 c 0,-0.5976563 0.152343,-0.984375 0.46875,-1.21875 0.210937,-0.1523438 0.410156,-0.1992188 0.867187,-0.2109375 v -0.6679688 c -0.105469,-0.023437 -0.164062,-0.035156 -0.246094,-0.035156 -0.433593,0 -0.761718,0.2578125 -1.148437,0.8789062 v -0.75 z m 0,0"
       style="fill:#000000;fill-opacity:1;fill-rule:nonzero;stroke:none"
       aria-label="Adafactor"
       transform="matrix(1.3333333,0,0,1.3333333,18.326667,60.806667)" />
    <path
       id="path14"
       d="m 0.634125,-1.171875e-4 h 2.6132813 c 0.5507812,0 0.9609375,-0.1523437525 1.2773437,-0.4804687525 0.28125,-0.3046875 0.4453125,-0.72656246 0.4453125,-1.17187496 0,-0.703125 -0.328125,-1.125 -1.0664062,-1.4179688 C 4.431,-3.3165234 4.71225,-3.7501172 4.71225,-4.3360547 c 0,-0.421875 -0.1640625,-0.796875 -0.46875,-1.0664062 -0.2929687,-0.28125 -0.6914062,-0.4101563 -1.2539062,-0.4101563 H 0.634125 Z M 1.3724063,-3.3048047 v -1.8515625 h 1.4296875 c 0.421875,0 0.6445312,0.058594 0.84375,0.2109375 0.2109375,0.1523438 0.328125,0.3984375 0.328125,0.7148438 0,0.3046875 -0.1171875,0.5625 -0.328125,0.7148437 -0.1992188,0.1523438 -0.421875,0.2109375 -0.84375,0.2109375 z m 0,2.64843751 V -2.6485547 h 1.8046875 c 0.3632812,0 0.5976562,0.082031 0.7734375,0.2695313 0.1757812,0.1875 0.2695312,0.4453125 0.2695312,0.7265625 0,0.28125 -0.09375,0.5390625 -0.2695312,0.71484371 -0.1757813,0.19921875 -0.4101563,0.28125 -0.7734375,0.28125 z M 6.7688906,-2.6485547 h 2.7773438 v -0.65625 H 6.7688906 v -1.8515625 h 3.1640625 v -0.65625 H 6.0306094 v 5.8125000125 h 0.7382812 z m 5.4785154,-1.3710937 v 4.0195312125 h 0.703125 V -5.6485547 H 12.4935 c -0.257812,0.8671875 -0.410156,0.984375 -1.5,1.125 v 0.5039063 z m 6.342774,-0.1523438 c -0.140625,-0.9257812 -0.75,-1.4765625 -1.605469,-1.4765625 -0.621094,0 -1.183594,0.3046875 -1.511719,0.8085938 -0.351562,0.5390625 -0.515625,1.2421875 -0.515625,2.2617187 0,0.9492188 0.140625,1.5585938 0.480469,2.06250001 0.304687,0.45703125 0.796875,0.703125 1.417969,0.703125 1.078125,0 1.851562,-0.796875 1.851562,-1.91015621 0,-1.0546875 -0.714844,-1.7929688 -1.734375,-1.7929688 -0.550781,0 -0.996094,0.2109375 -1.300781,0.6328125 0.01172,-1.3828125 0.457031,-2.1445312 1.265625,-2.1445312 0.492187,0 0.832031,0.3046875 0.949219,0.8554687 z m -1.699219,1.2773438 c 0.679687,0 1.101562,0.46875 1.101562,1.2304687 0,0.70312501 -0.480468,1.23046876 -1.125,1.23046876 -0.65625,0 -1.148437,-0.55078125 -1.148437,-1.27734376 0,-0.6914062 0.480469,-1.1835937 1.171875,-1.1835937 z m 0,0"
       style="fill:#000000;fill-opacity:1;fill-rule:nonzero;stroke:none"
       aria-label="BF16"
       transform="matrix(1.3333333,0,0,1.3333333,38.092,22.84)" />
    <path
       id="path15"
       d="M 75.38113,-14.17355 V 99.21495"
       style="fill:none;stroke:#cb202d;stroke-width:1.59404;stroke-linecap:butt;stroke-linejoin:miter;stroke-miterlimit:10;stroke-dasharray:2.98883, 2.98883;stroke-dashoffset:0;stroke-opacity:1"
       transform="matrix(1.3333333,0,0,-1.3333333,68.184,132.55067)"
       clip-path="url(#clipPath16)" />
    <path
       id="path17"
       d="m 77.5871,101.42091 h 88.78711 v 11.52483 H 77.5871 Z"
       style="fill:#ffffff;fill-opacity:0.85;fill-rule:nonzero;stroke:none"
       transform="matrix(1.3333333,0,0,-1.3333333,68.184,132.55067)"
       clip-path="url(#clipPath16)" />
    <path
       id="path18"
       d="M 4.0320469,-0.69214063 H 1.0554844 C 1.1375156,-1.1608906 1.3836094,-1.4538594 2.0750156,-1.8522969 l 0.796875,-0.4335937 c 0.796875,-0.4335938 1.1953125,-1.0195313 1.1953125,-1.7109375 0,-0.46875 -0.1875,-0.9023438 -0.515625,-1.2070313 -0.3398437,-0.3046875 -0.75,-0.4453125 -1.2890625,-0.4453125 -0.7148437,0 -1.2539062,0.2578125 -1.55859372,0.7265625 -0.19921875,0.3046875 -0.29296875,0.65625 -0.3046875,1.2304688 H 1.1023594 c 0.023437,-0.375 0.070312,-0.609375 0.1640625,-0.796875 0.1875,-0.3398438 0.5507812,-0.5507813 0.9726562,-0.5507813 0.6328125,0 1.1132813,0.4570313 1.1132813,1.0664063 0,0.4453125 -0.2578125,0.8203125 -0.7617188,1.1132812 L 1.8523594,-2.4499531 C 0.68048438,-1.7819844 0.34064063,-1.2429219 0.27032813,-7.34375e-4 H 4.0320469 Z m 3,-0.66796877 v 1.359375025 h 0.703125 V -1.3601094 h 0.84375 v -0.6210937 h -0.84375 v -3.6679688 h -0.515625 l -2.5664063,3.5507813 v 0.7382812 z m 0,-0.6210937 H 5.2625156 l 1.7695313,-2.4726563 z m 9.6943361,-1.0898438 h -2.425781 v 0.65625 h 1.769531 v 0.1640625 c 0,1.03125 -0.761719,1.78125002 -1.816406,1.78125002 -0.597657,0 -1.125,-0.2109375 -1.464844,-0.58593752 -0.386719,-0.421875 -0.621094,-1.1132812 -0.621094,-1.828125 0,-1.4296875 0.820313,-2.3671875 2.039063,-2.3671875 0.890625,0 1.523437,0.4570313 1.6875,1.2070313 h 0.75 c -0.199219,-1.1835938 -1.101563,-1.8632813 -2.425782,-1.8632813 -0.714843,0 -1.289062,0.1875 -1.734375,0.5625 -0.667968,0.5507813 -1.054687,1.453125 -1.054687,2.4960938 0,1.7929687 1.089844,3.03515622 2.660156,3.03515622 0.785156,0 1.417969,-0.3046875 1.980469,-0.92578125 l 0.1875,0.7734375 h 0.46875 z m 1.186523,3.070312525 h 2.613282 c 0.550781,0 0.960937,-0.152343755 1.277343,-0.480468755 0.28125,-0.3046875 0.445313,-0.72656247 0.445313,-1.17187497 0,-0.703125 -0.328125,-1.125 -1.066406,-1.4179688 0.527343,-0.2460937 0.808593,-0.6796875 0.808593,-1.265625 0,-0.421875 -0.164062,-0.796875 -0.46875,-1.0664062 -0.292968,-0.28125 -0.691406,-0.4101563 -1.253906,-0.4101563 H 17.912906 Z M 18.651188,-3.3054219 v -1.8515625 h 1.429687 c 0.421875,0 0.644531,0.058594 0.84375,0.2109375 0.210938,0.1523438 0.328125,0.3984375 0.328125,0.7148438 0,0.3046875 -0.117187,0.5625 -0.328125,0.7148437 -0.199219,0.1523438 -0.421875,0.2109375 -0.84375,0.2109375 z m 0,2.64843752 V -2.6491719 h 1.804687 c 0.363281,0 0.597656,0.082031 0.773438,0.2695313 0.175781,0.1875 0.269531,0.4453125 0.269531,0.7265625 0,0.28125 -0.09375,0.5390625 -0.269531,0.71484372 -0.175782,0.19921875 -0.410157,0.28125 -0.773438,0.28125 z m 7.543945,-5.15625002 h -0.75 v 5.812500025 h 3.609375 V -0.65698438 h -2.859375 z m 4.242187,1.640625 h -0.65625 v 4.171875025 h 0.65625 z m 0,-1.640625 h -0.667968 v 0.84375 h 0.667968 z m 1.136719,1.640625 v 4.171875025 h 0.667969 V -2.6257344 c 0,-0.5976562 0.433594,-1.0898437 0.972656,-1.0898437 0.503906,0 0.773438,0.3046875 0.773438,0.84375 V -7.34375e-4 H 34.65607 V -2.6257344 c 0,-0.5976562 0.445313,-1.0898437 0.984375,-1.0898437 0.492188,0 0.773438,0.3164062 0.773438,0.84375 v 2.871093725 h 0.667969 V -3.1296406 c 0,-0.75 -0.433594,-1.171875 -1.207032,-1.171875 -0.5625,0 -0.890625,0.1757812 -1.289062,0.6445312 -0.246094,-0.4453125 -0.574219,-0.6445312 -1.125,-0.6445312 -0.550781,0 -0.914063,0.2109375 -1.277344,0.7148437 v -0.5859375 z m 7.271484,0 h -0.65625 v 4.171875025 h 0.65625 z m 0,-1.640625 h -0.667968 v 0.84375 h 0.667968 z m 2.601563,1.640625 H 40.75568 v -1.1484375 h -0.65625 v 1.1484375 h -0.5625 v 0.5390625 h 0.5625 v 3.15234377 c 0,0.421875 0.28125,0.66796875 0.796875,0.66796875 0.164062,0 0.328125,-0.0234375 0.550781,-0.0585938 v -0.5625 c -0.09375,0.0234375 -0.199219,0.0351563 -0.316406,0.0351563 -0.292969,0 -0.375,-0.0820313 -0.375,-0.375 V -3.6335469 h 0.691406 z m 4.271484,-1.640625 c -0.796875,1.0429688 -1.289062,2.4960938 -1.289062,3.75 0,1.25390627 0.492187,2.70703127 1.289062,3.75 h 0.445313 c -0.703125,-1.13671873 -1.089844,-2.47265623 -1.089844,-3.75 0,-1.265625 0.386719,-2.6132812 1.089844,-3.75 z m 2.25586,3.3046875 h 1.921875 c 0.65625,0 0.949218,0.328125 0.949218,1.0429688 v 0.51562497 c 0,0.36328125 0.05859,0.71484375 0.164063,0.949218755 H 51.91193 V -0.18823438 c -0.28125,-0.1875 -0.339844,-0.3984375 -0.351563,-1.17187502 -0.01172,-0.9492187 -0.164062,-1.2421875 -0.796875,-1.5117187 0.65625,-0.3164063 0.925781,-0.7265625 0.925781,-1.3828125 0,-1.0078125 -0.632812,-1.5585938 -1.769531,-1.5585938 h -2.683594 v 5.812500025 h 0.738282 z m 0,-0.6445312 v -2.0039063 h 1.792968 c 0.421875,0 0.65625,0.058594 0.84375,0.2226563 0.199219,0.1640625 0.304688,0.4335937 0.304688,0.7851562 0,0.6796875 -0.351563,0.9960938 -1.148438,0.9960938 z m 6.870117,-2.0039063 h 1.898437 v -0.65625 h -4.558593 v 0.65625 h 1.910156 v 5.156250025 h 0.75 z m 5.162109,2.1796875 1.957032,-2.8359375 h -0.878907 l -1.5,2.2851563 -1.488281,-2.2851563 h -0.902344 l 1.921875,2.8359375 -2.050781,2.976562525 h 0.902344 l 1.59375,-2.425781225 1.582031,2.425781225 h 0.914063 z m 7.010742,1.6171875 v 1.359375025 h 0.703125 V -1.3601094 h 0.84375 v -0.6210937 h -0.84375 v -3.6679688 h -0.515625 l -2.566406,3.5507813 v 0.7382812 z m 0,-0.6210937 h -1.769531 l 1.769531,-2.4726563 z m 4.019532,-3.6679688 c -0.527344,0 -1.007813,0.234375 -1.300782,0.6210938 -0.363281,0.4921875 -0.550781,1.2539062 -0.550781,2.296875 0,1.89843747 0.644531,2.91796872 1.851563,2.91796872 1.195312,0 1.851562,-1.01953125 1.851562,-2.87109372 0,-1.1015625 -0.175781,-1.8398438 -0.550781,-2.34375 -0.292969,-0.3984375 -0.761719,-0.6210938 -1.300781,-0.6210938 z m 0,0.6210938 c 0.761718,0 1.136718,0.7617187 1.136718,2.2734375 0,1.6054687 -0.375,2.35546872 -1.148437,2.35546872 -0.75,0 -1.125,-0.78515622 -1.125,-2.33203122 0,-1.5351563 0.375,-2.296875 1.136719,-2.296875 z m 2.663086,3.7382812 c 0.140625,0.92578127 0.738281,1.47656252 1.605468,1.47656252 0.621094,0 1.183594,-0.3046875 1.511719,-0.80859375 0.363281,-0.55078127 0.515625,-1.24218747 0.515625,-2.27343747 0,-0.9492188 -0.140625,-1.546875 -0.480469,-2.0507813 -0.304687,-0.4570312 -0.796875,-0.703125 -1.417968,-0.703125 -1.078125,0 -1.851563,0.796875 -1.851563,1.8984375 0,1.0546875 0.714844,1.7929688 1.734375,1.7929688 0.539063,0 0.925781,-0.1875 1.289063,-0.6210938 0,1.3710938 -0.457032,2.14453127 -1.253907,2.14453127 -0.492187,0 -0.84375,-0.31640625 -0.949218,-0.85546877 z m 1.722656,-3.75 c 0.65625,0 1.148437,0.5390625 1.148437,1.2773438 0,0.6914062 -0.492187,1.1835937 -1.171875,1.1835937 -0.679687,0 -1.101562,-0.46875 -1.101562,-1.21875 0,-0.7265625 0.480469,-1.2421875 1.125,-1.2421875 z m 4.476562,-0.609375 c -0.527343,0 -1.007812,0.234375 -1.300781,0.6210938 -0.363281,0.4921875 -0.550781,1.2539062 -0.550781,2.296875 0,1.89843747 0.644531,2.91796872 1.851562,2.91796872 1.195313,0 1.851563,-1.01953125 1.851563,-2.87109372 0,-1.1015625 -0.175781,-1.8398438 -0.550781,-2.34375 -0.292969,-0.3984375 -0.761719,-0.6210938 -1.300782,-0.6210938 z m 0,0.6210938 c 0.761719,0 1.136719,0.7617187 1.136719,2.2734375 0,1.6054687 -0.375,2.35546872 -1.148437,2.35546872 -0.75,0 -1.125,-0.78515622 -1.125,-2.33203122 0,-1.5351563 0.375,-2.296875 1.136718,-2.296875 z m 2.979493,6.7148437 c 0.796875,-1.04296873 1.300781,-2.49609373 1.300781,-3.7382812 0,-1.265625 -0.503906,-2.71875 -1.300781,-3.7617188 h -0.433594 c 0.703125,1.1484375 1.089844,2.484375 1.089844,3.7617188 0,1.26562497 -0.386719,2.61328122 -1.089844,3.7382812 z m 0,0"
       style="fill:#cb202d;fill-opacity:1;fill-rule:nonzero;stroke:none"
       aria-label="24GBLimit(RTX4090)"
       transform="matrix(1.3333333,0,0,1.3333333,174.288,-7.5693333)"
       clip-path="url(#clipPath19)" />
    <path
       id="path20"
       d="M 72.24025,-9.92137 H 97.36729 V 9.92139 H 72.24025 Z M 97.3673,18.42575 h 31.4088 V 38.26851 H 97.3673 Z m 31.40881,28.34712 h 47.1132 v 19.84276 h -47.1132 z m 43.97232,28.34714 h 62.81761 v 19.84276 h -62.81761 z"
       style="fill:#d9b3d9;fill-opacity:1;fill-rule:nonzero;stroke:#a64ca6;stroke-width:0.3985;stroke-linecap:butt;stroke-linejoin:miter;stroke-miterlimit:10;stroke-dasharray:none;stroke-opacity:1"
       transform="matrix(1.3333333,0,0,-1.3333333,68.184,132.55067)" />
    <path
       id="path21"
       d="M 34.54968,-9.92137 H 72.24025 V 9.92139 H 34.54968 Z m 15.70441,28.34712 h 47.1132 v 19.84276 h -47.1132 z m 15.70439,28.34712 h 62.81761 V 66.61563 H 65.95848 Z m 28.26793,28.34714 h 78.52202 V 94.96277 H 94.22641 Z"
       style="fill:#d1e6f3;fill-opacity:1;fill-rule:nonzero;stroke:#006395;stroke-width:0.3985;stroke-linecap:butt;stroke-linejoin:miter;stroke-miterlimit:10;stroke-dasharray:none;stroke-opacity:1"
       transform="matrix(1.3333333,0,0,-1.3333333,68.184,132.55067)" />
    <path
       id="path22"
       d="M 15.70439,-9.92137 H 34.54967 V 9.92139 H 15.70439 Z m 9.42265,28.34712 H 50.25408 V 38.26851 H 25.12704 Z m 9.42264,28.34712 h 31.4088 V 66.61563 H 34.54968 Z M 47.1132,75.12001 H 94.2264 V 94.96277 H 47.1132 Z"
       style="fill:#d4efdf;fill-opacity:1;fill-rule:nonzero;stroke:#008f45;stroke-width:0.3985;stroke-linecap:butt;stroke-linejoin:miter;stroke-miterlimit:10;stroke-dasharray:none;stroke-opacity:1"
       transform="matrix(1.3333333,0,0,-1.3333333,68.184,132.55067)" />
    <path
       id="path23"
       d="M 3.14087,-9.92137 H 15.70439 V 9.92139 H 3.14087 Z M 6.28175,18.42575 H 25.12703 V 38.26851 H 6.28175 Z M 9.42264,46.77287 H 34.54968 V 66.61563 H 9.42264 Z m 6.28175,28.34714 h 31.4088 v 19.84276 h -31.4088 z"
       style="fill:#ffe5cc;fill-opacity:1;fill-rule:nonzero;stroke:#cc5500;stroke-width:0.3985;stroke-linecap:butt;stroke-linejoin:miter;stroke-miterlimit:10;stroke-dasharray:none;stroke-opacity:1"
       transform="matrix(1.3333333,0,0,-1.3333333,68.184,132.55067)" />
    <path
       id="path24"
       d="M 0,-9.92137 H 3.14087 V 9.92139 H 0 Z M 0,18.42575 H 6.28175 V 38.26851 H 0 Z M 0,46.77287 H 9.42264 V 66.61563 H 0 Z M 0,75.12001 H 15.70439 V 94.96277 H 0 Z"
       style="fill:#e0e0e0;fill-opacity:1;fill-rule:nonzero;stroke:#666666;stroke-width:0.3985;stroke-linecap:butt;stroke-linejoin:miter;stroke-miterlimit:10;stroke-dasharray:none;stroke-opacity:1"
       transform="matrix(1.3333333,0,0,-1.3333333,68.184,132.55067)" />
    <path
       id="path25"
       d="M 3.7255547,-6.640625e-4 5.3661797,-4.8639453 V -6.640625e-4 H 6.0575859 V -5.8131641 H 5.0380547 l -1.6875,5.06250004 L 1.6278984,-5.8131641 H 0.59664844 V -6.640625e-4 H 1.2997734 V -4.8639453 L 2.9521172,-6.640625e-4 Z M 10.727508,-1.8639453 c 0,-0.6445313 -0.04687,-1.0195313 -0.164063,-1.3359375 -0.28125,-0.6796875 -0.9140622,-1.1015625 -1.6992184,-1.1015625 -1.1601563,0 -1.9101563,0.9023437 -1.9101563,2.2734375 0,1.37109374 0.7265625,2.21484374 1.8984375,2.21484374 0.9609375,0 1.6171872,-0.55078125 1.7812502,-1.45312504 H 9.9657891 c -0.1757813,0.55078129 -0.5507813,0.83203129 -1.0898438,0.83203129 -0.421875,0 -0.7851562,-0.1875 -1.0078125,-0.5390625 C 7.7157891,-1.2076953 7.6571953,-1.4537891 7.6454766,-1.8639453 Z M 7.6689141,-2.4030078 c 0.046875,-0.7734375 0.5273437,-1.2773438 1.1953125,-1.2773438 0.6445312,0 1.1484374,0.5390625 1.1484374,1.2304688 0,0.011719 0,0.023437 0,0.046875 z M 11.632781,-4.1725391 V -6.640625e-4 H 12.30075 V -2.6256641 c 0,-0.5976562 0.433594,-1.0898437 0.972656,-1.0898437 0.503907,0 0.773438,0.3046875 0.773438,0.84375 v 2.8710937375 h 0.667969 V -2.6256641 c 0,-0.5976562 0.445312,-1.0898437 0.984375,-1.0898437 0.492187,0 0.773437,0.3164062 0.773437,0.84375 v 2.8710937375 h 0.667969 V -3.1295703 c 0,-0.75 -0.433594,-1.171875 -1.207031,-1.171875 -0.5625,0 -0.890625,0.1757812 -1.289063,0.6445312 -0.246094,-0.4453125 -0.574219,-0.6445312 -1.125,-0.6445312 -0.550781,0 -0.914062,0.2109375 -1.277344,0.7148437 v -0.5859375 z m 8.244141,-0.1289062 c -1.171875,0 -1.886719,0.84375 -1.886719,2.25 0,1.39453124 0.703125,2.23828124 1.898438,2.23828124 1.171875,0 1.886718,-0.84375 1.886718,-2.21484374 0,-1.4414063 -0.691406,-2.2734375 -1.898437,-2.2734375 z m 0.01172,0.6210937 c 0.75,0 1.195312,0.609375 1.195312,1.6523438 0,0.9726562 -0.46875,1.59374999 -1.195312,1.59374999 -0.75,0 -1.195313,-0.60937499 -1.195313,-1.61718749 0,-1.0078125 0.445313,-1.6289063 1.195313,-1.6289063 z m 2.803711,-0.4921875 V -6.640625e-4 H 23.36032 V -2.1686328 c 0,-0.5976563 0.152344,-0.984375 0.46875,-1.21875 0.210938,-0.1523438 0.410157,-0.1992188 0.867188,-0.2109375 v -0.6679688 c -0.105469,-0.023437 -0.164063,-0.035156 -0.246094,-0.035156 -0.433594,0 -0.761719,0.2578125 -1.148437,0.8789062 v -0.75 z m 5.428711,0 -1.160157,3.24609379 L 25.8945,-4.1725391 h -0.703125 l 1.40625,4.18359379 -0.257812,0.66796875 C 26.234344,0.97199219 26.082,1.0774609 25.812469,1.0774609 c -0.105469,0 -0.210938,-0.011719 -0.351563,-0.046875 v 0.5976563 c 0.128907,0.082031 0.269532,0.1054687 0.445313,0.1054687 0.210937,0 0.445312,-0.070312 0.621094,-0.1992187 0.210937,-0.1523438 0.328125,-0.328125 0.457031,-0.65625001 l 1.851562,-5.05078129 z m 8.378906,0.1640625 c -0.234375,-1.2773437 -0.960938,-1.8984375 -2.238281,-1.8984375 -0.785157,0 -1.40625,0.2460938 -1.839844,0.7265625 -0.527344,0.5742188 -0.808594,1.40625 -0.808594,2.34375 0,0.9609375 0.292969,1.78125 0.84375,2.34375004 0.445313,0.45703125 1.019531,0.6796875 1.769531,0.6796875 1.417969,0 2.214844,-0.7734375 2.390625,-2.30859374 h -0.761718 c -0.05859,0.3984375 -0.140625,0.6679687 -0.257813,0.9023437 -0.246094,0.48046879 -0.738281,0.75000004 -1.359375,0.75000004 -1.160156,0 -1.886719,-0.92578124 -1.886719,-2.37890624 0,-1.4882813 0.703125,-2.4023438 1.828125,-2.4023438 0.46875,0 0.902344,0.140625 1.148438,0.3632813 0.210937,0.1992187 0.328125,0.4453125 0.421875,0.8789062 z m 2.648437,-0.2929687 c -1.171875,0 -1.886718,0.84375 -1.886718,2.25 0,1.39453124 0.703125,2.23828124 1.898437,2.23828124 1.171875,0 1.886719,-0.84375 1.886719,-2.21484374 0,-1.4414063 -0.691406,-2.2734375 -1.898438,-2.2734375 z m 0.01172,0.6210937 c 0.75,0 1.195313,0.609375 1.195313,1.6523438 0,0.9726562 -0.46875,1.59374999 -1.195313,1.59374999 -0.75,0 -1.195312,-0.60937499 -1.195312,-1.61718749 0,-1.0078125 0.445312,-1.6289063 1.195312,-1.6289063 z m 5.745117,0.6679688 c -0.01172,-0.8203125 -0.550781,-1.2890625 -1.511719,-1.2890625 -0.972656,0 -1.605468,0.5039062 -1.605468,1.2773437 0,0.65625 0.339843,0.9726563 1.324218,1.2070313 l 0.621094,0.1523437 c 0.457031,0.1054688 0.644531,0.28125 0.644531,0.5859375 0,0.38671879 -0.386718,0.64453129 -0.972656,0.64453129 -0.363281,0 -0.65625,-0.10546875 -0.832031,-0.28125 -0.105469,-0.1171875 -0.152344,-0.234375 -0.1875,-0.52734379 h -0.703125 c 0.03516,0.96093754 0.574219,1.42968754 1.664062,1.42968754 1.054688,0 1.722657,-0.52734375 1.722657,-1.32421874 0,-0.6210938 -0.351563,-0.9726563 -1.183594,-1.171875 L 43.2529,-2.4498828 c -0.539062,-0.1289063 -0.773437,-0.3046875 -0.773437,-0.5976563 0,-0.3867187 0.339844,-0.6328125 0.890625,-0.6328125 0.527344,0 0.820312,0.234375 0.832031,0.6679688 z m 2.519531,-1.1601563 h -0.691406 v -1.1484375 h -0.65625 v 1.1484375 h -0.5625 v 0.5390625 h 0.5625 v 3.15234379 c 0,0.421875 0.28125,0.66796875 0.796875,0.66796875 0.164063,0 0.328125,-0.0234375 0.550781,-0.0585938 v -0.5625 c -0.09375,0.0234375 -0.199218,0.0351563 -0.316406,0.0351563 -0.292969,0 -0.375,-0.0820313 -0.375,-0.375 V -3.6334766 h 0.691406 z m 4.280274,-1.640625 c -0.796875,1.0429688 -1.289063,2.4960938 -1.289063,3.75 0,1.25390629 0.492188,2.70703129 1.289063,3.75 h 0.445312 c -0.703125,-1.13671871 -1.089843,-2.47265621 -1.089843,-3.75 0,-1.265625 0.386718,-2.6132812 1.089843,-3.75 z m 6.427734,2.7421875 H 55.707 v 0.65625 h 1.769531 v 0.1640625 c 0,1.03125 -0.761718,1.78125004 -1.816406,1.78125004 -0.597656,0 -1.125,-0.2109375 -1.464844,-0.58593754 -0.386718,-0.421875 -0.621093,-1.1132812 -0.621093,-1.828125 0,-1.4296875 0.820312,-2.3671875 2.039062,-2.3671875 0.890625,0 1.523438,0.4570313 1.6875,1.2070313 h 0.75 c -0.199219,-1.1835938 -1.101562,-1.8632813 -2.425781,-1.8632813 -0.714844,0 -1.289063,0.1875 -1.734375,0.5625 -0.667969,0.5507813 -1.054688,1.453125 -1.054688,2.4960938 0,1.7929687 1.089844,3.03515624 2.660157,3.03515624 0.785156,0 1.417968,-0.3046875 1.980468,-0.92578125 l 0.1875,0.7734375 h 0.46875 z m 1.183594,3.0703125375 h 2.613281 c 0.550782,0 0.960938,-0.1523437475 1.277344,-0.4804687475 0.28125,-0.3046875 0.445313,-0.72656249 0.445313,-1.17187499 0,-0.703125 -0.328125,-1.125 -1.066407,-1.4179688 0.527344,-0.2460937 0.808594,-0.6796875 0.808594,-1.265625 0,-0.421875 -0.164062,-0.796875 -0.46875,-1.0664062 -0.292969,-0.28125 -0.691406,-0.4101563 -1.253906,-0.4101563 H 59.316375 Z M 60.054656,-3.3053516 v -1.8515625 h 1.429688 c 0.421875,0 0.644531,0.058594 0.84375,0.2109375 0.210937,0.1523438 0.328125,0.3984375 0.328125,0.7148438 0,0.3046875 -0.117188,0.5625 -0.328125,0.7148437 -0.199219,0.1523438 -0.421875,0.2109375 -0.84375,0.2109375 z m 0,2.64843754 V -2.6491016 h 1.804688 c 0.363281,0 0.597656,0.082031 0.773437,0.2695313 0.175782,0.1875 0.269532,0.4453125 0.269532,0.7265625 0,0.28125 -0.09375,0.5390625 -0.269532,0.71484374 -0.175781,0.19921875 -0.410156,0.28125 -0.773437,0.28125 z m 4.684571,2.34374996 c 0.796875,-1.04296871 1.300781,-2.49609371 1.300781,-3.7382812 0,-1.265625 -0.503906,-2.71875 -1.300781,-3.7617188 h -0.433594 c 0.703125,1.1484375 1.089844,2.484375 1.089844,3.7617188 0,1.26562499 -0.386719,2.61328124 -1.089844,3.7382812 z m 0,0"
       style="fill:#000000;fill-opacity:1;fill-rule:nonzero;stroke:none"
       aria-label="MemoryCost(GB)"
       transform="matrix(1.3333333,0,0,1.3333333,201.724,179.92667)" />
    <path
       id="path26"
       d="m 204.35649,1.83835 h 84.63478 v 60.32607 h -84.63478 z"
       style="fill:#ffffff;fill-opacity:1;fill-rule:nonzero;stroke:none"
       transform="matrix(1.3333333,0,0,-1.3333333,68.184,132.55067)" />
    <path
       id="path27"
       d="M 0,-2.83484 V 2.83484 H 17.00826 V -2.83484 Z"
       style="fill:#e0e0e0;fill-opacity:1;fill-rule:nonzero;stroke:#666666;stroke-width:0.3985;stroke-linecap:butt;stroke-linejoin:miter;stroke-miterlimit:10;stroke-dasharray:none;stroke-opacity:1"
       transform="matrix(1.3333333,0,0,-1.3333333,344.90533,59.884)" />
    <path
       id="path28"
       d="m 3.1043984,-5.9055937 c -1.6757812,0 -2.80078121,1.2304687 -2.80078121,3.046875 0,1.8164062 1.12500001,3.04687495 2.80078121,3.04687495 0.703125,0 1.3359375,-0.22265625 1.8046875,-0.62109375 0.6328125,-0.52734375 1.0078125,-1.4296875 1.0078125,-2.3789062 0,-1.875 -1.1132812,-3.09375 -2.8125,-3.09375 z m 0,0.65625 c 1.2539063,0 2.0625,0.9492187 2.0625,2.4257812 0,1.3945313 -0.8320312,2.35546875 -2.0625,2.35546875 -1.2304687,0 -2.0625,-0.96093745 -2.0625,-2.39062495 0,-1.4414063 0.8320313,-2.390625 2.0625,-2.390625 z m 5.1240235,1.078125 H 7.5370156 v -1.1484375 h -0.65625 v 1.1484375 h -0.5625 v 0.5390625 h 0.5625 v 3.1523437 c 0,0.421875 0.28125,0.66796875 0.796875,0.66796875 0.1640625,0 0.328125,-0.0234375 0.5507813,-0.0585938 v -0.5625 c -0.09375,0.0234375 -0.1992188,0.0351563 -0.3164063,0.0351563 -0.2929687,0 -0.375,-0.0820313 -0.375,-0.375 V -3.6321562 h 0.6914063 z m 0.75,-1.640625 V 6.5625e-4 h 0.65625 V -2.3079375 c 0,-0.84375 0.4453121,-1.40625 1.1367191,-1.40625 0.210937,0 0.421875,0.070312 0.585937,0.1875 0.1875,0.140625 0.269531,0.3398438 0.269531,0.6328125 V 6.5625e-4 h 0.65625 V -3.1516875 c 0,-0.703125 -0.492187,-1.1484375 -1.3125,-1.1484375 -0.585937,0 -0.949218,0.1875 -1.3359371,0.703125 v -2.2148437 z m 7.9599611,3.9492187 c 0,-0.6445312 -0.04687,-1.0195312 -0.164063,-1.3359375 -0.28125,-0.6796875 -0.914062,-1.1015625 -1.699218,-1.1015625 -1.160157,0 -1.910157,0.9023438 -1.910157,2.2734375 0,1.37109375 0.726563,2.21484375 1.898438,2.21484375 0.960937,0 1.617187,-0.55078125 1.78125,-1.45312495 h -0.667969 c -0.175781,0.5507812 -0.550781,0.8320312 -1.089844,0.8320312 -0.421875,0 -0.785156,-0.1875 -1.007812,-0.5390625 -0.152344,-0.234375 -0.210938,-0.4804687 -0.222656,-0.890625 z m -3.058594,-0.5390625 c 0.04687,-0.7734375 0.527344,-1.2773437 1.195313,-1.2773437 0.644531,0 1.148437,0.5390625 1.148437,1.2304687 0,0.011719 0,0.023437 0,0.046875 z m 3.949219,-1.7695312 V 6.5625e-4 h 0.667969 V -2.1673125 c 0,-0.5976562 0.152343,-0.984375 0.46875,-1.21875 0.210937,-0.1523437 0.410156,-0.1992187 0.867187,-0.2109375 v -0.6679687 c -0.105469,-0.023437 -0.164062,-0.035156 -0.246094,-0.035156 -0.433593,0 -0.761718,0.2578125 -1.148437,0.8789063 v -0.75 z m 5.595703,1.1601562 C 23.412992,-3.831375 22.87393,-4.300125 21.912992,-4.300125 c -0.972656,0 -1.605469,0.5039063 -1.605469,1.2773438 0,0.65625 0.339844,0.9726562 1.324219,1.2070312 l 0.621094,0.1523438 c 0.457031,0.1054687 0.644531,0.28125 0.644531,0.5859375 0,0.3867187 -0.386719,0.6445312 -0.972656,0.6445312 -0.363281,0 -0.65625,-0.10546875 -0.832031,-0.28125 -0.105469,-0.1171875 -0.152344,-0.234375 -0.1875,-0.5273437 h -0.703125 c 0.03516,0.96093745 0.574218,1.42968745 1.664062,1.42968745 1.054688,0 1.722656,-0.52734375 1.722656,-1.32421875 0,-0.6210937 -0.351562,-0.9726562 -1.183593,-1.171875 l -0.632813,-0.140625 C 21.233305,-2.5774687 20.99893,-2.75325 20.99893,-3.0462187 c 0,-0.3867188 0.339843,-0.6328125 0.890625,-0.6328125 0.527343,0 0.820312,0.234375 0.832031,0.6679687 z m 0,0"
       style="fill:#000000;fill-opacity:1;fill-rule:nonzero;stroke:none"
       aria-label="Others"
       transform="matrix(1.3333333,0,0,1.3333333,370.50533,62.796)" />
    <path
       id="path29"
       d="M 0,-2.83484 V 2.83484 H 17.00826 V -2.83484 Z"
       style="fill:#ffe5cc;fill-opacity:1;fill-rule:nonzero;stroke:#cc5500;stroke-width:0.3985;stroke-linecap:butt;stroke-linejoin:miter;stroke-miterlimit:10;stroke-dasharray:none;stroke-opacity:1"
       transform="matrix(1.3333333,0,0,-1.3333333,344.90533,75.005333)" />
    <path
       id="path30"
       d="M 5.9286172,4.765625e-4 7.4051797,-5.8120234 H 6.5731484 L 5.5067422,-1.0893672 4.1825234,-5.8120234 H 3.3856484 L 2.0965859,-1.0893672 1.0067422,-5.8120234 H 0.17471094 L 1.6629922,4.765625e-4 H 2.4715859 L 3.7723672,-4.7690547 5.1200234,4.765625e-4 Z M 11.374906,-1.8628047 c 0,-0.6445312 -0.04687,-1.0195312 -0.164062,-1.3359375 -0.28125,-0.6796875 -0.914063,-1.1015625 -1.699219,-1.1015625 -1.1601563,0 -1.9101563,0.9023438 -1.9101563,2.2734375 0,1.37109376 0.7265625,2.21484376 1.8984375,2.21484376 0.9609378,0 1.6171878,-0.55078125 1.7812498,-1.45312496 h -0.667969 c -0.175781,0.55078121 -0.550781,0.83203121 -1.0898433,0.83203121 -0.421875,0 -0.7851562,-0.1875 -1.0078125,-0.5390625 C 8.3631875,-1.2065547 8.3045937,-1.4526484 8.292875,-1.8628047 Z M 8.3163125,-2.4018672 c 0.046875,-0.7734375 0.5273437,-1.2773437 1.1953125,-1.2773437 0.644531,0 1.148437,0.5390625 1.148437,1.2304687 0,0.011719 0,0.023437 0,0.046875 z m 4.5937495,-1.7695312 h -0.65625 V 4.765625e-4 h 0.65625 z m 0,-1.640625 h -0.667968 v 0.84375 h 0.667968 z m 3.855469,1.640625 v 0.5976562 c -0.328125,-0.4921875 -0.738281,-0.7265625 -1.277344,-0.7265625 -1.054687,0 -1.769531,0.9257813 -1.769531,2.2851563 0,0.6796875 0.175781,1.24218746 0.527344,1.64062496 0.304687,0.3515625 0.75,0.5625 1.195312,0.5625 0.515625,0 0.890625,-0.22265625 1.265625,-0.75 v 0.2109375 c 0,0.5625 -0.07031,0.9140625 -0.246093,1.13671875 -0.175782,0.24609379 -0.515625,0.39843749 -0.925782,0.39843749 -0.292968,0 -0.574218,-0.082031 -0.75,-0.22265624 -0.152343,-0.12890625 -0.222656,-0.234375 -0.257812,-0.48046875 h -0.679688 c 0.07031,0.78515629 0.691407,1.25390629 1.664063,1.25390629 0.621094,0 1.160156,-0.1992188 1.429687,-0.5273438 0.316407,-0.38671874 0.445313,-0.91406249 0.445313,-1.88671874 V -4.1713984 Z M 15.5585,-3.6792109 c 0.726562,0 1.148437,0.609375 1.148437,1.6523437 0,0.9960938 -0.433593,1.59375001 -1.136718,1.59375001 -0.726563,0 -1.160157,-0.60937501 -1.160157,-1.61718751 0,-1.0078125 0.445313,-1.6289062 1.148438,-1.6289062 z m 2.920898,-2.1328125 V 4.765625e-4 h 0.65625 V -2.3081172 c 0,-0.84375 0.445313,-1.40625 1.136719,-1.40625 0.210938,0 0.421875,0.070312 0.585938,0.1875 0.1875,0.140625 0.269531,0.3398438 0.269531,0.6328125 V 4.765625e-4 h 0.65625 V -3.1518672 c 0,-0.703125 -0.492188,-1.1484375 -1.3125,-1.1484375 -0.585938,0 -0.949219,0.1875 -1.335938,0.703125 v -2.2148437 z m 5.897461,1.640625 h -0.691406 v -1.1484375 h -0.65625 v 1.1484375 h -0.5625 v 0.5390625 h 0.5625 v 3.15234371 c 0,0.421875 0.28125,0.66796875 0.796875,0.66796875 0.164063,0 0.328125,-0.0234375 0.550781,-0.0585938 v -0.5625 c -0.09375,0.0234375 -0.199218,0.0351563 -0.316406,0.0351563 -0.292969,0 -0.375,-0.0820313 -0.375,-0.375 V -3.6323359 h 0.691406 z m 8.050782,1.1015625 h -2.425782 v 0.65625 h 1.769532 v 0.1640625 c 0,1.03125 -0.761719,1.78124996 -1.816407,1.78124996 -0.597656,0 -1.125,-0.2109375 -1.464843,-0.58593746 -0.386719,-0.421875 -0.621094,-1.1132813 -0.621094,-1.828125 0,-1.4296875 0.820312,-2.3671875 2.039062,-2.3671875 0.890625,0 1.523438,0.4570312 1.6875,1.2070312 h 0.75 c -0.199218,-1.1835937 -1.101562,-1.8632812 -2.425781,-1.8632812 -0.714844,0 -1.289062,0.1875 -1.734375,0.5625 -0.667969,0.5507812 -1.054687,1.453125 -1.054687,2.4960937 0,1.7929688 1.089843,3.03515626 2.660156,3.03515626 0.785156,0 1.417969,-0.3046875 1.980469,-0.92578125 l 0.1875,0.7734375 h 0.46875 z m 1.104492,-1.1015625 V 4.765625e-4 h 0.667969 V -2.1674922 c 0,-0.5976562 0.152343,-0.984375 0.46875,-1.21875 0.210937,-0.1523437 0.410156,-0.1992187 0.867187,-0.2109375 v -0.6679687 c -0.105469,-0.023437 -0.164062,-0.035156 -0.246094,-0.035156 -0.433593,0 -0.761718,0.2578125 -1.148437,0.8789063 v -0.75 z m 6.287109,3.78515621 c -0.07031,0.0117188 -0.105469,0.0117188 -0.140625,0.0117188 -0.234375,0 -0.363281,-0.1171875 -0.363281,-0.328125 V -3.1518672 c 0,-0.75 -0.539063,-1.1484375 -1.570313,-1.1484375 -0.609375,0 -1.113281,0.1757813 -1.382812,0.4921875 -0.199219,0.2109375 -0.269531,0.4570313 -0.292969,0.8671875 h 0.667969 c 0.05859,-0.5039062 0.363281,-0.7382812 0.984375,-0.7382812 0.597656,0 0.9375,0.2226562 0.9375,0.6210937 v 0.1757813 c 0,0.28125 -0.175781,0.3984375 -0.703125,0.4570312 -0.9375,0.1171875 -1.078125,0.1523438 -1.335938,0.2578125 -0.480468,0.1992188 -0.726562,0.5742188 -0.726562,1.1132813 0,0.76171871 0.515625,1.24218746 1.371094,1.24218746 0.515625,0 0.9375,-0.1874999975 1.417968,-0.62109375 0.04687,0.421875 0.246094,0.62109375 0.679688,0.62109375 0.140625,0 0.234375,-0.0234375 0.457031,-0.0703125 z M 38.659086,-1.3120234 c 0,0.2226562 -0.07031,0.35156246 -0.269531,0.53906246 -0.269532,0.24609375 -0.597657,0.375 -0.984375,0.375 -0.515625,0 -0.820313,-0.24609375 -0.820313,-0.66796876 0,-0.4453125 0.292969,-0.6679687 0.996094,-0.7617187 0.703125,-0.1054688 0.84375,-0.1289063 1.078125,-0.234375 z m 5.276367,-4.5 h -0.667969 v 2.1679687 c -0.28125,-0.421875 -0.726562,-0.65625 -1.277343,-0.65625 -1.089844,0 -1.792969,0.8789063 -1.792969,2.203125 0,1.41796876 0.691406,2.28515626 1.816406,2.28515626 0.574219,0 0.972656,-0.22265625 1.324219,-0.73828125 V 4.765625e-4 h 0.597656 z m -1.839844,2.1445312 c 0.714844,0 1.171875,0.6328125 1.171875,1.6289063 0,0.9609375 -0.457031,1.60546871 -1.160156,1.60546871 -0.738281,0 -1.21875,-0.64453121 -1.21875,-1.61718751 0,-0.9726562 0.480469,-1.6171875 1.207031,-1.6171875 z m 3.518555,-0.5039062 h -0.65625 V 4.765625e-4 h 0.65625 z m 0,-1.640625 h -0.667969 v 0.84375 h 0.667969 z m 4.661133,3.9492187 c 0,-0.6445312 -0.04687,-1.0195312 -0.164063,-1.3359375 -0.28125,-0.6796875 -0.914062,-1.1015625 -1.699218,-1.1015625 -1.160157,0 -1.910157,0.9023438 -1.910157,2.2734375 0,1.37109376 0.726563,2.21484376 1.898438,2.21484376 0.960937,0 1.617187,-0.55078125 1.78125,-1.45312496 h -0.667969 c -0.175781,0.55078121 -0.550781,0.83203121 -1.089844,0.83203121 -0.421875,0 -0.785156,-0.1875 -1.007812,-0.5390625 C 47.263578,-1.2065547 47.204984,-1.4526484 47.193266,-1.8628047 Z m -3.058594,-0.5390625 c 0.04687,-0.7734375 0.527344,-1.2773437 1.195313,-1.2773437 0.644531,0 1.148437,0.5390625 1.148437,1.2304687 0,0.011719 0,0.023437 0,0.046875 z M 51.18057,-4.1713984 V 4.765625e-4 h 0.667969 V -2.3081172 c 0,-0.84375 0.445313,-1.40625 1.125,-1.40625 0.527344,0 0.867188,0.3164063 0.867188,0.8203125 V 4.765625e-4 h 0.65625 V -3.1518672 c 0,-0.6914062 -0.515625,-1.1484375 -1.324219,-1.1484375 -0.621094,0 -1.019531,0.2460938 -1.382813,0.8320313 v -0.703125 z m 5.897461,0 h -0.691406 v -1.1484375 h -0.65625 v 1.1484375 h -0.5625 v 0.5390625 h 0.5625 v 3.15234371 c 0,0.421875 0.28125,0.66796875 0.796875,0.66796875 0.164062,0 0.328125,-0.0234375 0.550781,-0.0585938 v -0.5625 c -0.09375,0.0234375 -0.199219,0.0351563 -0.316406,0.0351563 -0.292969,0 -0.375,-0.0820313 -0.375,-0.375 V -3.6323359 h 0.691406 z m 0,0"
       style="fill:#000000;fill-opacity:1;fill-rule:nonzero;stroke:none"
       aria-label="WeightGradient"
       transform="matrix(1.3333333,0,0,1.3333333,370.50533,77.917333)" />
    <path
       id="path31"
       d="M 0,-2.83484 V 2.83484 H 17.00826 V -2.83484 Z"
       style="fill:#d4efdf;fill-opacity:1;fill-rule:nonzero;stroke:#008f45;stroke-width:0.3985;stroke-linecap:butt;stroke-linejoin:miter;stroke-miterlimit:10;stroke-dasharray:none;stroke-opacity:1"
       transform="matrix(1.3333333,0,0,-1.3333333,344.90533,90.126667)" />
    <path
       id="path32"
       d="m 3.1043984,-5.9059531 c -1.6757812,0 -2.80078121,1.2304687 -2.80078121,3.046875 0,1.8164062 1.12500001,3.04687498 2.80078121,3.04687498 0.703125,0 1.3359375,-0.22265625 1.8046875,-0.62109375 0.6328125,-0.52734375 1.0078125,-1.42968753 1.0078125,-2.37890623 0,-1.875 -1.1132812,-3.09375 -2.8125,-3.09375 z m 0,0.65625 c 1.2539063,0 2.0625,0.9492187 2.0625,2.4257812 0,1.3945313 -0.8320312,2.35546878 -2.0625,2.35546878 -1.2304687,0 -2.0625,-0.96093748 -2.0625,-2.39062498 0,-1.4414063 0.8320313,-2.390625 2.0625,-2.390625 z m 3.5302735,6.984375 h 0.6679687 v -2.16796877 c 0.3515625,0.421875 0.7382813,0.62109375 1.2773438,0.62109375 1.078125,0 1.7929686,-0.8671875 1.7929686,-2.20312498 0,-1.40625 -0.6914061,-2.2851563 -1.7929686,-2.2851563 -0.5742188,0 -1.0195313,0.2578125 -1.3359375,0.75 v -0.6210937 h -0.609375 z m 1.828125,-5.4023438 c 0.7382812,0 1.2070312,0.6445313 1.2070312,1.640625 0,0.9492188 -0.4804687,1.59375003 -1.2070312,1.59375003 -0.703125,0 -1.1601563,-0.64453123 -1.1601563,-1.61718753 0,-0.984375 0.4570313,-1.6171875 1.1601563,-1.6171875 z m 4.1953121,-0.5039062 h -0.691406 v -1.1484375 h -0.65625 v 1.1484375 h -0.5625 v 0.5390625 h 0.5625 v 3.15234373 c 0,0.421875 0.28125,0.66796875 0.796875,0.66796875 0.164063,0 0.328125,-0.0234375 0.550781,-0.0585938 v -0.5625 c -0.09375,0.0234375 -0.199218,0.0351563 -0.316406,0.0351563 -0.292969,0 -0.375,-0.0820313 -0.375,-0.375 V -3.6325156 h 0.691406 z m 1.385743,0 h -0.65625 V 2.96875e-4 h 0.65625 z m 0,-1.640625 h -0.667969 v 0.84375 h 0.667969 z m 1.136718,1.640625 V 2.96875e-4 h 0.667969 V -2.6247031 c 0,-0.5976563 0.433594,-1.0898438 0.972656,-1.0898438 0.503907,0 0.773438,0.3046875 0.773438,0.84375 V 2.96875e-4 h 0.667969 V -2.6247031 c 0,-0.5976563 0.445312,-1.0898438 0.984375,-1.0898438 0.492187,0 0.773437,0.3164063 0.773437,0.84375 V 2.96875e-4 h 0.667969 V -3.1286094 c 0,-0.75 -0.433594,-1.171875 -1.207031,-1.171875 -0.5625,0 -0.890625,0.1757813 -1.289063,0.6445313 -0.246094,-0.4453125 -0.574219,-0.6445313 -1.125,-0.6445313 -0.550781,0 -0.914062,0.2109375 -1.277344,0.7148438 v -0.5859375 z m 7.271485,0 h -0.65625 V 2.96875e-4 h 0.65625 z m 0,-1.640625 h -0.667969 v 0.84375 h 0.667969 z m 4.101562,1.640625 H 23.43643 v 0.5742187 h 2.332031 l -2.496094,3.00000003 V 2.96875e-4 h 3.398438 V -0.58564062 h -2.589844 l 2.472656,-2.99999998 z m 4.426758,2.3085937 c 0,-0.6445312 -0.04687,-1.0195312 -0.164063,-1.3359375 -0.28125,-0.6796875 -0.914062,-1.1015625 -1.699218,-1.1015625 -1.160157,0 -1.910157,0.9023438 -1.910157,2.2734375 0,1.37109378 0.726563,2.21484378 1.898438,2.21484378 0.960937,0 1.617187,-0.55078125 1.78125,-1.45312498 h -0.667969 c -0.175781,0.55078123 -0.550781,0.83203123 -1.089844,0.83203123 -0.421875,0 -0.785156,-0.1875 -1.007812,-0.5390625 C 27.968656,-1.2067344 27.910062,-1.4528281 27.898344,-1.8629844 Z m -3.058594,-0.5390625 c 0.04687,-0.7734375 0.527344,-1.2773437 1.195313,-1.2773437 0.644531,0 1.148437,0.5390625 1.148437,1.2304687 0,0.011719 0,0.023437 0,0.046875 z M 31.87393,-4.1715781 V 2.96875e-4 h 0.667968 V -2.1676719 c 0,-0.5976562 0.152344,-0.984375 0.46875,-1.21875 0.210938,-0.1523437 0.410157,-0.1992187 0.867188,-0.2109375 v -0.6679687 c -0.105469,-0.023437 -0.164063,-0.035156 -0.246094,-0.035156 -0.433594,0 -0.761719,0.2578125 -1.148437,0.8789063 v -0.75 z m 9.064453,0.070312 c 0,-1.1367188 -0.785156,-1.8046875 -2.121094,-1.8046875 -1.277344,0 -2.0625,0.65625 -2.0625,1.7109375 0,0.703125 0.375,1.1484375 1.136719,1.3476562 l 1.441406,0.3867188 c 0.726563,0.1875 1.066406,0.4804687 1.066406,0.9375 0,0.3164062 -0.164062,0.63281248 -0.410156,0.80859373 -0.234375,0.15234375 -0.597656,0.24609375 -1.066406,0.24609375 -0.632813,0 -1.066406,-0.15234375 -1.347656,-0.4921875 C 37.364164,-1.2067344 37.270414,-1.4879844 37.270414,-1.8512656 h -0.691406 c 0,0.5390625 0.105469,0.89062498 0.339844,1.20703123 0.398437,0.5390625 1.066406,0.83203125 1.945312,0.83203125 0.703125,0 1.265625,-0.1640625 1.640625,-0.4453125 0.386719,-0.31640625 0.632813,-0.83203128 0.632813,-1.33593748 0,-0.7148438 -0.445313,-1.2421875 -1.230469,-1.453125 l -1.464844,-0.3984375 c -0.691406,-0.1875 -0.949219,-0.4101563 -0.949219,-0.8554688 0,-0.5976562 0.515625,-0.984375 1.300782,-0.984375 0.925781,0 1.441406,0.421875 1.441406,1.1835938 z m 2.598633,-0.070312 h -0.691407 v -1.1484375 h -0.65625 v 1.1484375 h -0.5625 v 0.5390625 h 0.5625 v 3.15234373 c 0,0.421875 0.28125,0.66796875 0.796875,0.66796875 0.164063,0 0.328125,-0.0234375 0.550782,-0.0585938 v -0.5625 c -0.09375,0.0234375 -0.199219,0.0351563 -0.316407,0.0351563 -0.292968,0 -0.375,-0.0820313 -0.375,-0.375 V -3.6325156 h 0.691407 z m 4.453125,3.78515623 c -0.07031,0.0117188 -0.105469,0.0117188 -0.140625,0.0117188 -0.234375,0 -0.363282,-0.1171875 -0.363282,-0.328125 V -3.1520469 c 0,-0.75 -0.539062,-1.1484375 -1.570312,-1.1484375 -0.609375,0 -1.113281,0.1757813 -1.382813,0.4921875 -0.199218,0.2109375 -0.269531,0.4570313 -0.292968,0.8671875 h 0.667968 c 0.05859,-0.5039062 0.363282,-0.7382812 0.984375,-0.7382812 0.597657,0 0.9375,0.2226562 0.9375,0.6210937 v 0.1757813 c 0,0.28125 -0.175781,0.3984375 -0.703125,0.4570312 -0.9375,0.1171875 -1.078125,0.1523438 -1.335937,0.2578125 -0.480469,0.1992188 -0.726563,0.5742188 -0.726563,1.1132813 0,0.76171873 0.515625,1.24218748 1.371094,1.24218748 0.515625,0 0.9375,-0.187500005 1.417969,-0.62109375 0.04687,0.421875 0.246094,0.62109375 0.679687,0.62109375 0.140625,0 0.234375,-0.0234375 0.457032,-0.0703125 z M 46.829984,-1.3122031 c 0,0.2226562 -0.07031,0.35156248 -0.269531,0.53906248 -0.269531,0.24609375 -0.597656,0.375 -0.984375,0.375 -0.515625,0 -0.820312,-0.24609375 -0.820312,-0.66796878 0,-0.4453125 0.292968,-0.6679687 0.996093,-0.7617187 0.703125,-0.1054688 0.84375,-0.1289063 1.078125,-0.234375 z m 3.351563,-2.859375 h -0.691406 v -1.1484375 h -0.65625 v 1.1484375 h -0.5625 v 0.5390625 h 0.5625 v 3.15234373 c 0,0.421875 0.28125,0.66796875 0.796875,0.66796875 0.164062,0 0.328125,-0.0234375 0.550781,-0.0585938 v -0.5625 c -0.09375,0.0234375 -0.199219,0.0351563 -0.316406,0.0351563 -0.292969,0 -0.375,-0.0820313 -0.375,-0.375 V -3.6325156 h 0.691406 z m 4.280273,2.3085937 c 0,-0.6445312 -0.04687,-1.0195312 -0.164062,-1.3359375 -0.28125,-0.6796875 -0.914063,-1.1015625 -1.699219,-1.1015625 -1.160156,0 -1.910156,0.9023438 -1.910156,2.2734375 0,1.37109378 0.726562,2.21484378 1.898437,2.21484378 0.960938,0 1.617188,-0.55078125 1.78125,-1.45312498 h -0.667968 c -0.175782,0.55078123 -0.550782,0.83203123 -1.089844,0.83203123 -0.421875,0 -0.785156,-0.1875 -1.007813,-0.5390625 C 51.450102,-1.2067344 51.391508,-1.4528281 51.379789,-1.8629844 Z m -3.058593,-0.5390625 c 0.04687,-0.7734375 0.527343,-1.2773437 1.195312,-1.2773437 0.644531,0 1.148438,0.5390625 1.148438,1.2304687 0,0.011719 0,0.023437 0,0.046875 z m 0,0"
       style="fill:#000000;fill-opacity:1;fill-rule:nonzero;stroke:none"
       aria-label="OptimizerState"
       transform="matrix(1.3333333,0,0,1.3333333,370.50533,93.038667)" />
    <path
       id="path33"
       d="M 0,-2.83484 V 2.83484 H 17.00826 V -2.83484 Z"
       style="fill:#d1e6f3;fill-opacity:1;fill-rule:nonzero;stroke:#006395;stroke-width:0.3985;stroke-linecap:butt;stroke-linejoin:miter;stroke-miterlimit:10;stroke-dasharray:none;stroke-opacity:1"
       transform="matrix(1.3333333,0,0,-1.3333333,344.90533,105.12667)" />
    <path
       id="path34"
       d="m 3.7723672,-1.7475469 0.5976562,1.74609378 H 5.2020547 L 3.1629922,-5.8139531 H 2.2020547 L 0.13955469,-0.00145312 H 0.92471094 L 1.5340859,-1.7475469 Z M 3.5731484,-2.3686406 H 1.7215859 l 0.9492188,-2.6484375 z m 5.4931641,-0.4101563 c -0.023437,-0.3984375 -0.1171875,-0.6679687 -0.28125,-0.890625 -0.28125,-0.3984375 -0.7851563,-0.6328125 -1.359375,-0.6328125 -1.125,0 -1.8632813,0.9023438 -1.8632813,2.2851563 0,1.34765623 0.7148438,2.20312498 1.8515625,2.20312498 0.9960938,0 1.6289063,-0.59765625 1.6992188,-1.61718748 H 8.4452187 c -0.1054687,0.66796873 -0.4570312,0.99609373 -1.0195312,0.99609373 -0.7265625,0 -1.171875,-0.59765623 -1.171875,-1.58203123 0,-1.0429688 0.4335937,-1.6640625 1.1601562,-1.6640625 0.5507813,0 0.9023438,0.328125 0.984375,0.9023437 z m 2.2617185,-1.3945312 h -0.691406 v -1.1484375 h -0.65625 v 1.1484375 h -0.5625 v 0.5390625 h 0.5625 v 3.15234373 c 0,0.421875 0.28125,0.66796875 0.796875,0.66796875 0.164062,0 0.328125,-0.0234375 0.550781,-0.0585938 v -0.5625 c -0.09375,0.0234375 -0.199219,0.0351563 -0.316406,0.0351563 -0.292969,0 -0.375,-0.0820313 -0.375,-0.375 V -3.6342656 h 0.691406 z m 1.382813,0 h -0.65625 v 4.17187498 h 0.65625 z m 0,-1.640625 h -0.667969 v 0.84375 h 0.667969 z m 2.847656,5.81249998 1.59375,-4.17187498 h -0.738281 l -1.183594,3.38671873 -1.113281,-3.38671873 h -0.75 l 1.464843,4.17187498 z m 5.780273,-0.38671875 c -0.07031,0.0117188 -0.105468,0.0117188 -0.140625,0.0117188 -0.234375,0 -0.363281,-0.1171875 -0.363281,-0.328125 V -3.1537969 c 0,-0.75 -0.539062,-1.1484375 -1.570312,-1.1484375 -0.609375,0 -1.113282,0.1757813 -1.382813,0.4921875 -0.199219,0.2109375 -0.269531,0.4570313 -0.292969,0.8671875 h 0.667969 c 0.05859,-0.5039062 0.363281,-0.7382812 0.984375,-0.7382812 0.597656,0 0.9375,0.2226562 0.9375,0.6210937 v 0.1757813 c 0,0.28125 -0.175781,0.3984375 -0.703125,0.4570312 -0.9375,0.1171875 -1.078125,0.1523438 -1.335937,0.2578125 -0.480469,0.1992188 -0.726563,0.5742188 -0.726563,1.1132813 0,0.76171873 0.515625,1.24218748 1.371094,1.24218748 0.515625,0 0.9375,-0.1875 1.417969,-0.62109375 0.04687,0.421875 0.246093,0.62109375 0.679687,0.62109375 0.140625,0 0.234375,-0.0234375 0.457031,-0.0703125 z M 20.178617,-1.3139531 c 0,0.2226562 -0.07031,0.35156248 -0.269531,0.53906248 -0.269531,0.24609375 -0.597656,0.375 -0.984375,0.375 -0.515625,0 -0.820313,-0.24609375 -0.820313,-0.66796878 0,-0.4453125 0.292969,-0.6679687 0.996094,-0.7617187 0.703125,-0.1054688 0.84375,-0.1289063 1.078125,-0.234375 z m 3.351563,-2.859375 h -0.691407 v -1.1484375 h -0.65625 v 1.1484375 h -0.5625 v 0.5390625 h 0.5625 v 3.15234373 c 0,0.421875 0.28125,0.66796875 0.796875,0.66796875 0.164063,0 0.328125,-0.0234375 0.550782,-0.0585938 v -0.5625 c -0.09375,0.0234375 -0.199219,0.0351563 -0.316407,0.0351563 -0.292968,0 -0.375,-0.0820313 -0.375,-0.375 V -3.6342656 h 0.691407 z m 1.382812,0 h -0.65625 v 4.17187498 h 0.65625 z m 0,-1.640625 h -0.667969 v 0.84375 h 0.667969 z m 2.742188,1.5117187 c -1.171875,0 -1.886719,0.84375 -1.886719,2.25 0,1.39453128 0.703125,2.23828128 1.898437,2.23828128 1.171875,0 1.886719,-0.84375 1.886719,-2.21484378 0,-1.4414062 -0.691406,-2.2734375 -1.898437,-2.2734375 z m 0.01172,0.6210938 c 0.75,0 1.195313,0.609375 1.195313,1.6523437 0,0.9726563 -0.46875,1.59375003 -1.195313,1.59375003 -0.75,0 -1.195312,-0.60937503 -1.195312,-1.61718753 0,-1.0078125 0.445312,-1.6289062 1.195312,-1.6289062 z m 2.81543,-0.4921875 v 4.17187498 h 0.667969 V -2.3100469 c 0,-0.84375 0.445312,-1.40625 1.125,-1.40625 0.527344,0 0.867187,0.3164063 0.867187,0.8203125 v 2.89453128 h 0.65625 V -3.1537969 c 0,-0.6914062 -0.515625,-1.1484375 -1.324218,-1.1484375 -0.621094,0 -1.019532,0.2460938 -1.382813,0.8320313 v -0.703125 z m 0,0"
       style="fill:#000000;fill-opacity:1;fill-rule:nonzero;stroke:none"
       aria-label="Activation"
       transform="matrix(1.3333333,0,0,1.3333333,370.50533,107.916)" />
    <path
       id="path35"
       d="M 0,-2.83484 V 2.83484 H 17.00826 V -2.83484 Z"
       style="fill:#d9b3d9;fill-opacity:1;fill-rule:nonzero;stroke:#a64ca6;stroke-width:0.3985;stroke-linecap:butt;stroke-linejoin:miter;stroke-miterlimit:10;stroke-dasharray:none;stroke-opacity:1"
       transform="matrix(1.3333333,0,0,-1.3333333,344.90533,120.004)" />
    <path
       id="path36"
       d="M 5.9286172,-2.734375e-4 7.4051797,-5.8127734 H 6.5731484 L 5.5067422,-1.0901172 4.1825234,-5.8127734 H 3.3856484 L 2.0965859,-1.0901172 1.0067422,-5.8127734 H 0.17471094 L 1.6629922,-2.734375e-4 H 2.4715859 L 3.7723672,-4.7698047 5.1200234,-2.734375e-4 Z M 11.374906,-1.8635547 c 0,-0.6445312 -0.04687,-1.0195312 -0.164062,-1.3359375 -0.28125,-0.6796875 -0.914063,-1.1015625 -1.699219,-1.1015625 -1.1601563,0 -1.9101563,0.9023438 -1.9101563,2.2734375 0,1.37109376 0.7265625,2.21484376 1.8984375,2.21484376 0.9609378,0 1.6171878,-0.55078125 1.7812498,-1.45312496 h -0.667969 c -0.175781,0.55078121 -0.550781,0.83203121 -1.0898433,0.83203121 -0.421875,0 -0.7851562,-0.1875 -1.0078125,-0.5390625 C 8.3631875,-1.2073047 8.3045937,-1.4533984 8.292875,-1.8635547 Z M 8.3163125,-2.4026172 c 0.046875,-0.7734375 0.5273437,-1.2773437 1.1953125,-1.2773437 0.644531,0 1.148437,0.5390625 1.148437,1.2304687 0,0.011719 0,0.023437 0,0.046875 z m 4.5937495,-1.7695312 h -0.65625 v 4.1718749625 h 0.65625 z m 0,-1.640625 h -0.667968 v 0.84375 h 0.667968 z m 3.855469,1.640625 v 0.5976562 c -0.328125,-0.4921875 -0.738281,-0.7265625 -1.277344,-0.7265625 -1.054687,0 -1.769531,0.9257813 -1.769531,2.2851563 0,0.6796875 0.175781,1.24218746 0.527344,1.64062496 0.304687,0.3515625 0.75,0.5625 1.195312,0.5625 0.515625,0 0.890625,-0.22265625 1.265625,-0.75 v 0.2109375 c 0,0.5625 -0.07031,0.9140625 -0.246093,1.13671875 -0.175782,0.24609379 -0.515625,0.39843749 -0.925782,0.39843749 -0.292968,0 -0.574218,-0.082031 -0.75,-0.22265624 -0.152343,-0.12890625 -0.222656,-0.234375 -0.257812,-0.48046875 h -0.679688 c 0.07031,0.78515629 0.691407,1.25390629 1.664063,1.25390629 0.621094,0 1.160156,-0.1992188 1.429687,-0.5273438 0.316407,-0.38671874 0.445313,-0.91406249 0.445313,-1.88671874 V -4.1721484 Z M 15.5585,-3.6799609 c 0.726562,0 1.148437,0.609375 1.148437,1.6523437 0,0.9960938 -0.433593,1.59375001 -1.136718,1.59375001 -0.726563,0 -1.160157,-0.60937501 -1.160157,-1.61718751 0,-1.0078125 0.445313,-1.6289062 1.148438,-1.6289062 z m 2.920898,-2.1328125 v 5.8124999625 h 0.65625 V -2.3088672 c 0,-0.84375 0.445313,-1.40625 1.136719,-1.40625 0.210938,0 0.421875,0.070312 0.585938,0.1875 0.1875,0.140625 0.269531,0.3398438 0.269531,0.6328125 v 2.8945312625 h 0.65625 V -3.1526172 c 0,-0.703125 -0.492188,-1.1484375 -1.3125,-1.1484375 -0.585938,0 -0.949219,0.1875 -1.335938,0.703125 v -2.2148437 z m 5.897461,1.640625 h -0.691406 v -1.1484375 h -0.65625 v 1.1484375 h -0.5625 v 0.5390625 h 0.5625 v 3.15234371 c 0,0.421875 0.28125,0.66796875 0.796875,0.66796875 0.164063,0 0.328125,-0.0234375 0.550781,-0.0585938 v -0.5625 c -0.09375,0.0234375 -0.199218,0.0351563 -0.316406,0.0351563 -0.292969,0 -0.375,-0.0820313 -0.375,-0.375 V -3.6330859 h 0.691406 z m 3.679688,1.1601562 c -0.01172,-0.8203125 -0.550781,-1.2890625 -1.511719,-1.2890625 -0.972656,0 -1.605469,0.5039063 -1.605469,1.2773438 0,0.65625 0.339844,0.9726562 1.324219,1.2070312 l 0.621094,0.1523438 c 0.457031,0.1054687 0.644531,0.28125 0.644531,0.5859375 0,0.38671871 -0.386719,0.64453121 -0.972656,0.64453121 -0.363281,0 -0.65625,-0.10546875 -0.832031,-0.28125 -0.105469,-0.1171875 -0.152344,-0.234375 -0.1875,-0.52734371 h -0.703125 c 0.03516,0.96093746 0.574218,1.42968746 1.664062,1.42968746 1.054688,0 1.722656,-0.52734375 1.722656,-1.32421876 0,-0.6210937 -0.351562,-0.9726562 -1.183593,-1.171875 l -0.632813,-0.140625 c -0.539062,-0.1289062 -0.773437,-0.3046875 -0.773437,-0.5976562 0,-0.3867188 0.339843,-0.6328125 0.890625,-0.6328125 0.527343,0 0.820312,0.234375 0.832031,0.6679687 z m 0,0"
       style="fill:#000000;fill-opacity:1;fill-rule:nonzero;stroke:none"
       aria-label="Weights"
       transform="matrix(1.3333333,0,0,1.3333333,370.50533,122.79333)" />
  </g>
</svg>
