<?xml version="1.0" encoding="UTF-8" standalone="no"?>
<!-- Created with Inkscape (http://www.inkscape.org/) -->

<svg
   version="1.1"
   id="svg1"
   width="588.58136"
   height="170.78133"
   viewBox="0 0 588.58136 170.78133"
   xmlns="http://www.w3.org/2000/svg"
   xmlns:svg="http://www.w3.org/2000/svg">
  <defs
     id="defs1" />
  <g
     id="g1">
    <path
       id="path1"
       d="M 0,-10.20457 V 107.14948"
       style="fill:none;stroke:#dfdfdf;stroke-width:0.19926;stroke-linecap:butt;stroke-linejoin:miter;stroke-miterlimit:10;stroke-dasharray:none;stroke-opacity:1"
       transform="matrix(1.3333333,0,0,-1.3333333,43.774667,143.032)" />
    <path
       id="path2"
       d="M 33.0708,-10.20457 V 107.14948"
       style="fill:none;stroke:#dfdfdf;stroke-width:0.19926;stroke-linecap:butt;stroke-linejoin:miter;stroke-miterlimit:10;stroke-dasharray:none;stroke-opacity:1"
       transform="matrix(1.3333333,0,0,-1.3333333,43.774667,143.032)" />
    <path
       id="path3"
       d="M 66.1416,-10.20457 V 107.14948"
       style="fill:none;stroke:#dfdfdf;stroke-width:0.19926;stroke-linecap:butt;stroke-linejoin:miter;stroke-miterlimit:10;stroke-dasharray:none;stroke-opacity:1"
       transform="matrix(1.3333333,0,0,-1.3333333,43.774667,143.032)" />
    <path
       id="path4"
       d="M 99.21239,-10.20457 V 107.14948"
       style="fill:none;stroke:#dfdfdf;stroke-width:0.19926;stroke-linecap:butt;stroke-linejoin:miter;stroke-miterlimit:10;stroke-dasharray:none;stroke-opacity:1"
       transform="matrix(1.3333333,0,0,-1.3333333,43.774667,143.032)" />
    <path
       id="path5"
       d="M 132.28319,-10.20457 V 107.14948"
       style="fill:none;stroke:#dfdfdf;stroke-width:0.19926;stroke-linecap:butt;stroke-linejoin:miter;stroke-miterlimit:10;stroke-dasharray:none;stroke-opacity:1"
       transform="matrix(1.3333333,0,0,-1.3333333,43.774667,143.032)" />
    <path
       id="path6"
       d="M 165.35397,-10.20457 V 107.14948"
       style="fill:none;stroke:#dfdfdf;stroke-width:0.19926;stroke-linecap:butt;stroke-linejoin:miter;stroke-miterlimit:10;stroke-dasharray:none;stroke-opacity:1"
       transform="matrix(1.3333333,0,0,-1.3333333,43.774667,143.032)" />
    <path
       id="path7"
       d="M 198.42477,-10.20457 V 107.14948"
       style="fill:none;stroke:#dfdfdf;stroke-width:0.19926;stroke-linecap:butt;stroke-linejoin:miter;stroke-miterlimit:10;stroke-dasharray:none;stroke-opacity:1"
       transform="matrix(1.3333333,0,0,-1.3333333,43.774667,143.032)" />
    <path
       id="path8"
       d="M 231.49556,-10.20457 V 107.14948"
       style="fill:none;stroke:#dfdfdf;stroke-width:0.19926;stroke-linecap:butt;stroke-linejoin:miter;stroke-miterlimit:10;stroke-dasharray:none;stroke-opacity:1"
       transform="matrix(1.3333333,0,0,-1.3333333,43.774667,143.032)" />
    <path
       id="path9"
       d="M 264.56636,-10.20457 V 107.14948"
       style="fill:none;stroke:#dfdfdf;stroke-width:0.19926;stroke-linecap:butt;stroke-linejoin:miter;stroke-miterlimit:10;stroke-dasharray:none;stroke-opacity:1"
       transform="matrix(1.3333333,0,0,-1.3333333,43.774667,143.032)" />
    <path
       id="path10"
       d="M 297.63715,-10.20457 V 107.14948"
       style="fill:none;stroke:#dfdfdf;stroke-width:0.19926;stroke-linecap:butt;stroke-linejoin:miter;stroke-miterlimit:10;stroke-dasharray:none;stroke-opacity:1"
       transform="matrix(1.3333333,0,0,-1.3333333,43.774667,143.032)" />
    <path
       id="path11"
       d="M 330.70795,-10.20457 V 107.14948"
       style="fill:none;stroke:#dfdfdf;stroke-width:0.19926;stroke-linecap:butt;stroke-linejoin:miter;stroke-miterlimit:10;stroke-dasharray:none;stroke-opacity:1"
       transform="matrix(1.3333333,0,0,-1.3333333,43.774667,143.032)" />
    <path
       id="path12"
       d="M 363.77873,-10.20457 V 107.14948"
       style="fill:none;stroke:#dfdfdf;stroke-width:0.19926;stroke-linecap:butt;stroke-linejoin:miter;stroke-miterlimit:10;stroke-dasharray:none;stroke-opacity:1"
       transform="matrix(1.3333333,0,0,-1.3333333,43.774667,143.032)" />
    <path
       id="path13"
       d="M 396.84953,-10.20457 V 107.14948"
       style="fill:none;stroke:#dfdfdf;stroke-width:0.19926;stroke-linecap:butt;stroke-linejoin:miter;stroke-miterlimit:10;stroke-dasharray:none;stroke-opacity:1"
       transform="matrix(1.3333333,0,0,-1.3333333,43.774667,143.032)" />
    <path
       id="path14"
       d="M 0,-10.20457 V 107.14948"
       style="fill:none;stroke:#bfbfbf;stroke-width:0.24907;stroke-linecap:butt;stroke-linejoin:miter;stroke-miterlimit:10;stroke-dasharray:none;stroke-opacity:1"
       transform="matrix(1.3333333,0,0,-1.3333333,43.774667,143.032)" />
    <path
       id="path15"
       d="M 99.21239,-10.20457 V 107.14948"
       style="fill:none;stroke:#bfbfbf;stroke-width:0.24907;stroke-linecap:butt;stroke-linejoin:miter;stroke-miterlimit:10;stroke-dasharray:none;stroke-opacity:1"
       transform="matrix(1.3333333,0,0,-1.3333333,43.774667,143.032)" />
    <path
       id="path16"
       d="M 198.42477,-10.20457 V 107.14948"
       style="fill:none;stroke:#bfbfbf;stroke-width:0.24907;stroke-linecap:butt;stroke-linejoin:miter;stroke-miterlimit:10;stroke-dasharray:none;stroke-opacity:1"
       transform="matrix(1.3333333,0,0,-1.3333333,43.774667,143.032)" />
    <path
       id="path17"
       d="M 297.63715,-10.20457 V 107.14948"
       style="fill:none;stroke:#bfbfbf;stroke-width:0.24907;stroke-linecap:butt;stroke-linejoin:miter;stroke-miterlimit:10;stroke-dasharray:none;stroke-opacity:1"
       transform="matrix(1.3333333,0,0,-1.3333333,43.774667,143.032)" />
    <path
       id="path18"
       d="M 396.84953,-10.20457 V 107.14948"
       style="fill:none;stroke:#bfbfbf;stroke-width:0.24907;stroke-linecap:butt;stroke-linejoin:miter;stroke-miterlimit:10;stroke-dasharray:none;stroke-opacity:1"
       transform="matrix(1.3333333,0,0,-1.3333333,43.774667,143.032)" />
    <path
       id="path19"
       d="m 6.2813984,-3.0817891 c 0,-1.8984375 -1.3359375,-3.3398437 -2.8828125,-3.3398437 -1.546875,0 -2.88281246,1.4414062 -2.88281246,3.3398437 0,1.8632813 1.33593746,3.28125004 2.88281246,3.28125004 1.546875,0 2.8828125,-1.41796874 2.8828125,-3.28125004 z m -0.8554687,-0.140625 c 0,1.6875 -0.9609375,2.78906254 -2.0273438,2.78906254 -1.0664062,0 -2.0273437,-1.10156254 -2.0273437,-2.78906254 0,-1.640625 1.0078125,-2.5898437 2.0273437,-2.5898437 1.0195313,0 2.0273438,0.9609375 2.0273438,2.5898437 z m 5.8095703,1.21875 c 0,-1.0664062 -0.5625,-2.0742187 -1.4296875,-2.0742187 -0.2578125,0 -0.9257813,0.046875 -1.5351563,0.5273437 V -3.9841328 H 7.5440937 v 5.71875 h 0.75 v -2.14453126 c 0.328125,0.31640625 0.7851563,0.50390625 1.2421875,0.50390625 0.9140628,0 1.6992188,-0.87890625 1.6992188,-2.09765629 z m -0.75,0.011719 c 0,0.8671875 -0.6210938,1.51171874 -1.3242188,1.51171874 -0.28125,0 -0.609375,-0.1171875 -0.8671875,-0.56250004 v -1.9335937 c 0.1171875,-0.1640625 0.4453125,-0.4921875 0.9609375,-0.4921875 0.6679688,0 1.2304688,0.6328125 1.2304688,1.4765625 z m 5.173828,0.023437 c 0,-0.2695313 -0.01172,-0.9492188 -0.363281,-1.4882813 -0.375,-0.5625 -0.949219,-0.6796875 -1.289063,-0.6796875 -1.042968,0 -1.863281,0.9609375 -1.863281,2.109375 0,1.18359379 0.878906,2.12109379 1.992188,2.12109379 0.433593,0 0.949218,-0.10546875 1.476562,-0.43359375 l -0.05859,-0.62109375 c -0.5625,0.41015625 -1.089843,0.48046875 -1.40625,0.48046875 -0.738281,0 -1.3125,-0.65625004 -1.347656,-1.48828124 z m -0.539062,-0.5273438 h -2.261719 c 0.140625,-0.5742187 0.585937,-1.0546875 1.148437,-1.0546875 0.328125,0 0.9375,0.1523438 1.113282,1.0546875 z M 19.942531,2.421875e-4 V -2.6599141 c 0,-0.6679687 -0.175781,-1.4179687 -1.253906,-1.4179687 -0.714844,0 -1.148438,0.4101562 -1.347656,0.6796875 V -4.0310078 H 16.649562 V 2.421875e-4 h 0.738282 V -2.1911641 c 0,-0.5859375 0.234375,-1.3007812 0.914062,-1.3007812 0.902344,0 0.902344,0.6328125 0.902344,0.890625 V 2.421875e-4 Z m 0,0"
       style="fill:#000000;fill-opacity:1;fill-rule:nonzero;stroke:none"
       aria-label="Open"
       transform="matrix(1.3333333,0,0,1.3333333,11.269333,27.097333)" />
    <path
       id="path20"
       d="M 5.7079375,-0.00133594 3.8915313,-2.9193047 c 0.9140624,-0.2460937 1.5585937,-0.890625 1.5585937,-1.6289062 0,-0.9257813 -1.0429688,-1.6757813 -2.3203125,-1.6757813 H 0.86809375 v 6.22265626 H 1.700125 V -2.8255547 H 3.1415313 L 4.84075,-0.00133594 Z m -1.03125,-4.54687496 c 0,0.5859375 -0.5507813,1.1367187 -1.6523437,1.1367187 H 1.700125 v -2.2851562 h 1.3242188 c 1.0429687,0 1.6523437,0.5039062 1.6523437,1.1484375 z m 5.1269531,2.578125 c 0,-0.2695313 -0.011719,-0.9492188 -0.3632812,-1.4882813 -0.375,-0.5625 -0.9492188,-0.6796875 -1.2890625,-0.6796875 -1.0429688,0 -1.8632813,0.9609375 -1.8632813,2.109375 0,1.18359376 0.8789063,2.12109376 1.9921875,2.12109376 0.4335938,0 0.9492188,-0.10546875 1.4765625,-0.43359375 l -0.058594,-0.62109375 c -0.5625,0.41015625 -1.0898438,0.48046875 -1.40625,0.48046875 -0.7382813,0 -1.3125,-0.65625001 -1.3476563,-1.48828121 z M 9.2645781,-2.4974297 H 7.0028594 c 0.140625,-0.5742187 0.5859375,-1.0546875 1.1484375,-1.0546875 0.328125,0 0.9375,0.1523438 1.1132812,1.0546875 z m 4.5908199,2.49609376 V -2.5911797 c 0,-0.890625 -0.65625,-1.546875 -1.546875,-1.546875 -0.574218,0 -1.007812,0.1523438 -1.441406,0.3984375 l 0.05859,0.6328125 c 0.445312,-0.328125 0.878906,-0.4570312 1.371094,-0.4570312 0.503906,0 0.808593,0.3984375 0.808593,0.984375 v 0.375 c -1.535156,0.035156 -2.554687,0.4335937 -2.554687,1.1601562 0,0.42187501 0.28125,1.13671876 1.066406,1.13671876 0.175781,0 0.949219,-0.01171875 1.523438,-0.43359375 v 0.33984375 z m -0.75,-1.25390626 c 0,0.1875 0,0.41015626 -0.316406,0.59765626 -0.222656,0.140625 -0.527344,0.17578125 -0.703125,0.17578125 -0.457031,0 -0.84375,-0.22265625 -0.84375,-0.57421871 0,-0.6445313 1.746094,-0.6679688 1.863281,-0.6679688 z m 5.402344,1.25390626 V -6.2239922 h -0.714844 v 2.6367188 c -0.503906,-0.421875 -1.078125,-0.4921875 -1.371093,-0.4921875 -0.902344,0 -1.59375,0.9375 -1.59375,2.0859375 0,1.16015621 0.679687,2.08593746 1.558593,2.08593746 0.269532,0 0.84375,-0.05859375 1.371094,-0.5625 v 0.46875 z m -0.75,-1.26562496 c 0,0.1757812 0,0.1875 -0.09375,0.31640621 -0.246094,0.31640625 -0.550781,0.46875 -0.867187,0.46875 -0.585938,0 -1.230469,-0.421875 -1.230469,-1.50000001 0,-1.1484375 0.761719,-1.5117187 1.324219,-1.5117187 0.410156,0 0.703125,0.234375 0.867187,0.4570312 z m 0,0"
       style="fill:#000000;fill-opacity:1;fill-rule:nonzero;stroke:none"
       aria-label="Read"
       transform="matrix(1.3333333,0,0,1.3333333,13.170667,62.076)" />
    <path
       id="path21"
       d="M 5.9522266,-5.5439531 V -6.1650469 H 0.32722656 v 0.6210938 H 0.87800781 L 2.7178516,-5.5556719 V -9.84375e-4 H 3.5733203 V -5.5556719 l 1.8398438,0.011719 z m 2.5839843,2.109375 v -0.6445313 c -0.6445312,0.011719 -1.2421875,0.328125 -1.6054687,0.8554688 V -4.0322344 H 6.2627734 V -9.84375e-4 H 6.9893359 V -1.9111406 c 0,-0.9375 0.7265625,-1.5117188 1.546875,-1.5234375 z M 12.456133,-9.84375e-4 V -2.5908281 c 0,-0.890625 -0.65625,-1.546875 -1.546875,-1.546875 -0.574219,0 -1.0078127,0.1523437 -1.4414064,0.3984375 l 0.058594,0.6328125 c 0.4453125,-0.328125 0.8789064,-0.4570313 1.3710934,-0.4570313 0.503906,0 0.808594,0.3984375 0.808594,0.984375 v 0.375 c -1.535156,0.035156 -2.5546874,0.4335938 -2.5546874,1.1601563 0,0.42187497 0.28125,1.13671872 1.0664064,1.13671872 0.175781,0 0.949218,-0.01171875 1.523437,-0.43359375 v 0.339843755 z m -0.75,-1.253906225 c 0,0.1875 0,0.41015622 -0.316406,0.59765622 -0.222657,0.140625 -0.527344,0.17578125 -0.703125,0.17578125 -0.457032,0 -0.8437504,-0.22265625 -0.8437504,-0.57421877 0,-0.6445312 1.7460934,-0.6679687 1.8632814,-0.6679687 z m 2.847656,1.253906225 V -3.9853594 H 13.838945 V -9.84375e-4 Z M 14.63582,-5.0517656 v -0.8554688 h -0.867187 v 0.8554688 z m 4.681641,5.050781225 V -2.6611406 c 0,-0.6679688 -0.175781,-1.4179688 -1.253906,-1.4179688 -0.714844,0 -1.148438,0.4101563 -1.347657,0.6796875 v -0.6328125 h -0.691406 v 4.031250025 h 0.738281 V -2.1923906 c 0,-0.5859375 0.234375,-1.3007813 0.914063,-1.3007813 0.902344,0 0.902344,0.6328125 0.902344,0.890625 v 2.601562525 z m 0,0"
       style="fill:#000000;fill-opacity:1;fill-rule:nonzero;stroke:none"
       aria-label="Train"
       transform="matrix(1.3333333,0,0,1.3333333,12.106667,96.056)" />
    <path
       id="path22"
       d="m 5.1342344,-0.00121094 v -0.6796875 h -0.890625 l -2.53125,0.0117188 V -2.9308984 H 4.7475156 V -3.5168359 H 1.7123594 v -2.0742188 h 0.3398437 l 2.1914063,0.023437 h 0.7734375 v -0.632812 H 0.85689063 v 6.19921876 z m 4.828125,-2.00390626 c 0,-1.0664062 -0.5625,-2.0742187 -1.4296875,-2.0742187 -0.2578125,0 -0.9257813,0.046875 -1.5351563,0.5273437 V -3.9855859 H 6.2709531 v 5.71875 h 0.75 v -2.14453129 c 0.328125,0.31640625 0.7851563,0.50390625 1.2421875,0.50390625 0.9140625,0 1.6992188,-0.87890625 1.6992188,-2.09765626 z m -0.75,0.011719 c 0,0.8671875 -0.6210938,1.51171871 -1.3242188,1.51171871 -0.28125,0 -0.609375,-0.1171875 -0.8671875,-0.56250001 v -1.9335937 c 0.1171875,-0.1640625 0.4453125,-0.4921875 0.9609375,-0.4921875 0.6679688,0 1.2304688,0.6328125 1.2304688,1.4765625 z m 5.6660156,0.023437 c 0,-1.1835938 -0.890625,-2.1679688 -2.027344,-2.1679688 -1.113281,0 -2.027343,0.9726563 -2.027343,2.1679688 0,1.18359371 0.9375,2.06249996 2.027343,2.06249996 1.113282,0 2.027344,-0.90234375 2.027344,-2.06249996 z m -0.738281,-0.09375 c 0,1.0429687 -0.632813,1.54687496 -1.277344,1.54687496 -0.691406,0 -1.300781,-0.53906246 -1.300781,-1.54687496 0,-1.0429688 0.679687,-1.4882813 1.289062,-1.4882813 0.644532,0 1.289063,0.4570313 1.289063,1.4882813 z m 5.115234,1.73437496 -0.05859,-0.64453125 c -0.433593,0.3046875 -0.902343,0.45703125 -1.441406,0.45703125 -0.761719,0 -1.265625,-0.63281246 -1.265625,-1.48828126 0,-0.6796875 0.339844,-1.5234375 1.300781,-1.5234375 0.5625,0 0.855469,0.1171875 1.300782,0.421875 l 0.117187,-0.6328125 C 18.704551,-4.0207425 18.423301,-4.13793 17.77877,-4.13793 c -1.265625,0 -2.027344,1.078125 -2.027344,2.1445313 0,1.11328121 0.832031,2.08593746 1.992187,2.08593746 0.632813,0 1.101563,-0.1875 1.511719,-0.421875 z m 4.283203,0.328125 V -2.6613672 c 0,-0.6679687 -0.175781,-1.4179687 -1.253906,-1.4179687 -0.515625,0 -0.996094,0.2460937 -1.324219,0.6445312 v -2.7890625 h -0.714843 v 6.22265626 h 0.738281 V -2.1926172 c 0,-0.5859375 0.234375,-1.3007812 0.914062,-1.3007812 0.902344,0 0.902344,0.6328125 0.902344,0.890625 v 2.60156246 z m 0,0"
       style="fill:#000000;fill-opacity:1;fill-rule:nonzero;stroke:none"
       aria-label="Epoch"
       transform="matrix(1.3333333,0,0,1.3333333,6.4746667,129.01333)" />
    <path
       id="path23"
       d="M 0,81.12733 V 97.45526 H 49.60619 V 81.12733 Z"
       style="fill:#e6e6e6;fill-opacity:1;fill-rule:nonzero;stroke:#999999;stroke-width:0.49814;stroke-linecap:butt;stroke-linejoin:miter;stroke-miterlimit:10;stroke-dasharray:none;stroke-opacity:1"
       transform="matrix(1.3333333,0,0,-1.3333333,43.774667,143.032)" />
    <path
       id="path24"
       d="m 5.0521797,-2.4035156 c 0,-1.4414063 -1.0546875,-2.578125 -2.3203125,-2.578125 -1.2539063,0 -2.32031251,1.1367187 -2.32031251,2.578125 0,1.44140622 1.07812501,2.54296872 2.32031251,2.54296872 1.2539062,0 2.3203125,-1.1015625 2.3203125,-2.54296872 z m -0.703125,-0.1054688 c 0,1.3242188 -0.7734375,2.15625002 -1.6171875,2.15625002 -0.84375,0 -1.6171875,-0.84375002 -1.6171875,-2.15625002 0,-1.2421875 0.7851562,-1.9921875 1.6171875,-1.9921875 0.84375,0 1.6171875,0.75 1.6171875,1.9921875 z m 4.6992187,0.9492188 c 0,-0.8320313 -0.46875,-1.6054688 -1.1601562,-1.6054688 -0.3046875,0 -0.8320313,0.09375 -1.2304688,0.3984375 v -0.328125 H 6.0717109 v 4.4414063 h 0.5976563 v -1.67578128 c 0.375,0.33984375 0.7734375,0.3984375 1.0078125,0.3984375 0.7382812,0 1.3710937,-0.703125 1.3710937,-1.62890622 z m -0.609375,0 c 0,0.69140622 -0.5273437,1.17187497 -1.0664062,1.17187497 -0.1054688,0 -0.28125,-0.0234375 -0.4570313,-0.1640625 -0.2109375,-0.1640625 -0.2460937,-0.26953125 -0.2460937,-0.3984375 V -2.3214844 c 0.1640625,-0.1875 0.4335937,-0.3632812 0.7734375,-0.3632812 0.5507812,0 0.9960937,0.515625 0.9960937,1.125 z m 4.1425786,0.035156 c 0,-0.328125 -0.03516,-0.796875 -0.304688,-1.1835937 -0.257812,-0.3632813 -0.667969,-0.4921875 -1.019531,-0.4921875 -0.84375,0 -1.5000002,0.75 -1.5000002,1.6289062 0,0.89062502 0.6914062,1.64062502 1.6171872,1.64062502 0.398438,0 0.820313,-0.1171875 1.171875,-0.33984375 l -0.03516,-0.4921875 c -0.386719,0.28125 -0.832031,0.375 -1.136719,0.375 -0.597656,0 -1.066406,-0.50390625 -1.078125,-1.13671877 z m -0.421875,-0.421875 h -1.816407 c 0.152344,-0.5625 0.574219,-0.796875 0.914063,-0.796875 0.316406,0 0.761719,0.1523438 0.902344,0.796875 z m 3.890625,1.94531252 V -2.0636719 c 0,-0.5507812 -0.164063,-1.1015625 -1.019532,-1.1015625 -0.398437,0 -0.785156,0.1640625 -1.089843,0.5273438 v -0.5039063 h -0.5625 v 3.14062502 h 0.609375 V -1.7003906 c 0,-0.4570313 0.199218,-1.0078125 0.738281,-1.0078125 0.714844,0 0.714844,0.4921875 0.714844,0.6914062 v 2.01562502 z m 6.213867,0 V -0.43476563 H 21.338313 V -4.7238281 h -0.152344 c -0.457031,0.421875 -1.03125,0.4453125 -1.441406,0.4570312 v 0.4453125 c 0.269531,-0.011719 0.621093,-0.023437 0.960937,-0.1640625 v 3.55078127 h -0.925781 v 0.43359375 z m 0,0"
       style="fill:#000000;fill-opacity:1;fill-rule:nonzero;stroke:none"
       aria-label="Open1"
       transform="matrix(1.3333333,0,0,1.3333333,61.642667,26.4)" />
    <path
       id="path25"
       d="m 49.60619,55.61552 v 16.32795 h 82.677 V 55.61552 Z"
       style="fill:#d9f3fd;fill-opacity:1;fill-rule:nonzero;stroke:#006395;stroke-width:0.49814;stroke-linecap:butt;stroke-linejoin:miter;stroke-miterlimit:10;stroke-dasharray:none;stroke-opacity:1"
       transform="matrix(1.3333333,0,0,-1.3333333,43.774667,143.032)" />
    <path
       id="path26"
       d="M 4.5831328,-0.00109375 3.1300078,-2.2628125 c 0.9960938,-0.2929688 1.2539063,-0.9023438 1.2539063,-1.2773438 0,-0.7265625 -0.8554688,-1.3007812 -1.8632813,-1.3007812 H 0.68078906 v 4.83984375 H 1.3721953 V -2.1925 h 1.1484375 l 1.359375,2.19140625 z M 3.7511016,-3.5401563 c 0,0.4921875 -0.4921875,0.890625 -1.3242188,0.890625 H 1.3721953 v -1.78125 h 1.0546875 c 0.796875,0 1.3242188,0.375 1.3242188,0.890625 z m 4.1162109,2.015625 c 0,-0.328125 -0.035156,-0.796875 -0.3046875,-1.1835937 -0.2578125,-0.3632813 -0.6679687,-0.4921875 -1.0195312,-0.4921875 -0.84375,0 -1.5,0.75 -1.5,1.6289062 0,0.89062505 0.6914062,1.64062505 1.6171875,1.64062505 0.3984375,0 0.8203125,-0.1171875 1.171875,-0.33984375 L 7.797,-0.7628125 c -0.3867187,0.28125 -0.8320312,0.375 -1.1367187,0.375 -0.5976563,0 -1.0664063,-0.50390625 -1.078125,-1.1367188 z m -0.421875,-0.421875 H 5.6290313 c 0.1523437,-0.5625 0.5742187,-0.796875 0.9140625,-0.796875 0.3164062,0 0.7617187,0.1523438 0.9023437,0.796875 z m 3.6796875,1.94531255 V -2.005 c 0,-0.7148438 -0.539062,-1.1953125 -1.2304687,-1.1953125 -0.4335938,0 -0.7734375,0.09375 -1.1601563,0.2929687 l 0.035156,0.515625 C 9.0040313,-2.5440625 9.343875,-2.755 9.8946563,-2.755 c 0.3046877,0 0.6328127,0.234375 0.6328127,0.75 v 0.28125 c -1.0312502,0.035156 -2.0507815,0.2460937 -2.0507815,0.90234375 0,0.3515625 0.234375,0.890625 0.84375,0.890625 0.3046875,0 0.8554685,-0.05859375 1.2187505,-0.33984375 v 0.26953125 z m -0.597656,-0.984375 c 0,0.12890625 0,0.31640625 -0.246094,0.45703125 -0.222656,0.12890625 -0.4921875,0.140625 -0.5742187,0.140625 -0.3867188,0 -0.6796875,-0.17578125 -0.6796875,-0.4453125 0,-0.4453125 1.1835942,-0.4804688 1.5000002,-0.5039063 z m 4.341797,0.984375 V -4.8409375 H 14.295047 V -2.801875 C 13.838016,-3.13 13.392703,-3.1651563 13.181766,-3.1651563 c -0.726563,0 -1.289063,0.7265625 -1.289063,1.6171875 0,0.8789063 0.550781,1.61718755 1.277344,1.61718755 0.433594,0 0.832031,-0.19921875 1.101562,-0.43359375 v 0.36328125 z m -0.597657,-0.8671875 c -0.175781,0.29296875 -0.445312,0.48046875 -0.773437,0.48046875 -0.492188,0 -0.996094,-0.33984375 -0.996094,-1.1484375 0,-0.8789063 0.597656,-1.171875 1.066406,-1.171875 0.28125,0 0.515625,0.1171875 0.703125,0.3515625 z m 6.834961,0.8671875 V -0.4346875 H 20.180789 V -4.72375 h -0.152344 c -0.457031,0.421875 -1.03125,0.4453125 -1.441406,0.4570312 v 0.4453125 c 0.269531,-0.011719 0.621094,-0.023437 0.960938,-0.1640625 v 3.5507813 h -0.925782 v 0.43359375 z m 0,0"
       style="fill:#000000;fill-opacity:1;fill-rule:nonzero;stroke:none"
       aria-label="Read1"
       transform="matrix(1.3333333,0,0,1.3333333,150.604,61.173333)" />
    <path
       id="path27"
       d="m 132.28319,55.61552 v 16.32795 h 82.67697 V 55.61552 Z"
       style="fill:#d9f3fd;fill-opacity:1;fill-rule:nonzero;stroke:#006395;stroke-width:0.49814;stroke-linecap:butt;stroke-linejoin:miter;stroke-miterlimit:10;stroke-dasharray:none;stroke-opacity:1"
       transform="matrix(1.3333333,0,0,-1.3333333,43.774667,143.032)" />
    <path
       id="path28"
       d="M 4.5819141,-0.00109375 3.1287891,-2.2628125 c 0.9960937,-0.2929688 1.2539062,-0.9023438 1.2539062,-1.2773438 0,-0.7265625 -0.8554687,-1.3007812 -1.8632812,-1.3007812 H 0.67957031 v 4.83984375 H 1.3709766 V -2.1925 h 1.1484375 l 1.359375,2.19140625 z M 3.7498828,-3.5401563 c 0,0.4921875 -0.4921875,0.890625 -1.3242187,0.890625 H 1.3709766 v -1.78125 h 1.0546875 c 0.796875,0 1.3242187,0.375 1.3242187,0.890625 z m 4.1191406,2.015625 c 0,-0.328125 -0.035156,-0.796875 -0.3046875,-1.1835937 -0.2578125,-0.3632813 -0.6679687,-0.4921875 -1.0195312,-0.4921875 -0.84375,0 -1.5,0.75 -1.5,1.6289062 0,0.89062505 0.6914062,1.64062505 1.6171875,1.64062505 0.3984375,0 0.8203125,-0.1171875 1.171875,-0.33984375 l -0.035156,-0.4921875 c -0.3867187,0.28125 -0.8320312,0.375 -1.1367187,0.375 -0.5976563,0 -1.0664063,-0.50390625 -1.078125,-1.1367188 z m -0.421875,-0.421875 H 5.6307422 c 0.1523437,-0.5625 0.5742187,-0.796875 0.9140625,-0.796875 0.3164062,0 0.7617187,0.1523438 0.9023437,0.796875 z m 3.6767576,1.94531255 V -2.005 c 0,-0.7148438 -0.539062,-1.1953125 -1.2304685,-1.1953125 -0.4335937,0 -0.7734375,0.09375 -1.1601562,0.2929687 l 0.035156,0.515625 C 9.0028125,-2.5440625 9.3426563,-2.755 9.8934375,-2.755 c 0.3046875,0 0.6328125,0.234375 0.6328125,0.75 v 0.28125 c -1.03125,0.035156 -2.0507812,0.2460937 -2.0507812,0.90234375 0,0.3515625 0.234375,0.890625 0.84375,0.890625 0.3046875,0 0.8554692,-0.05859375 1.2187502,-0.33984375 v 0.26953125 z m -0.597656,-0.984375 c 0,0.12890625 0,0.31640625 -0.246094,0.45703125 -0.222656,0.12890625 -0.4921872,0.140625 -0.5742185,0.140625 -0.3867187,0 -0.6796875,-0.17578125 -0.6796875,-0.4453125 0,-0.4453125 1.183594,-0.4804688 1.5,-0.5039063 z m 4.341797,0.984375 V -4.8409375 H 14.293828 V -2.801875 C 13.836797,-3.13 13.391484,-3.1651563 13.180547,-3.1651563 c -0.726563,0 -1.289063,0.7265625 -1.289063,1.6171875 0,0.8789063 0.550782,1.61718755 1.277344,1.61718755 0.433594,0 0.832031,-0.19921875 1.101563,-0.43359375 v 0.36328125 z m -0.597656,-0.8671875 c -0.175782,0.29296875 -0.445313,0.48046875 -0.773438,0.48046875 -0.492187,0 -0.996094,-0.33984375 -0.996094,-1.1484375 0,-0.8789063 0.597657,-1.171875 1.066407,-1.171875 0.28125,0 0.515625,0.1171875 0.703125,0.3515625 z m 7.001953,0.8671875 v -0.5390625 h -1.359375 c -0.08203,0 -0.164063,0.0117188 -0.246094,0.0117188 H 18.87 L 19.948125,-1.489375 c 0.128906,-0.1054688 0.46875,-0.3632812 0.609375,-0.4804687 0.304688,-0.2812501 0.714844,-0.6445313 0.714844,-1.2421876 0,-0.7968749 -0.585938,-1.5117186 -1.582031,-1.5117186 -0.738282,0 -1.207032,0.3984375 -1.441407,1.1132811 l 0.328125,0.4101564 c 0.164063,-0.5859375 0.410157,-1.0429688 1.007813,-1.0429688 0.585937,0 1.03125,0.4101563 1.03125,1.0429687 0,0.5742187 -0.339844,0.9023437 -0.75,1.3007813 -0.140625,0.1406249 -0.515625,0.4570312 -0.667969,0.5976562 -0.199219,0.1757812 -0.679687,0.6445313 -0.878906,0.82031255 v 0.48046875 z m 0,0"
       style="fill:#000000;fill-opacity:1;fill-rule:nonzero;stroke:none"
       aria-label="Read2"
       transform="matrix(1.3333333,0,0,1.3333333,260.84,61.173333)" />
    <path
       id="path29"
       d="M 214.96016,55.61552 V 71.94347 H 291.023 V 55.61552 Z"
       style="fill:#d9f3fd;fill-opacity:1;fill-rule:nonzero;stroke:#006395;stroke-width:0.49814;stroke-linecap:butt;stroke-linejoin:miter;stroke-miterlimit:10;stroke-dasharray:none;stroke-opacity:1"
       transform="matrix(1.3333333,0,0,-1.3333333,43.774667,143.032)" />
    <path
       id="path30"
       d="M 4.5830078,-0.00117969 3.1298828,-2.2628984 c 0.9960938,-0.2929688 1.2539063,-0.9023438 1.2539063,-1.2773438 0,-0.7265625 -0.8554688,-1.3007812 -1.8632813,-1.3007812 H 0.68066406 v 4.83984371 H 1.3720703 V -2.1925859 h 1.1484375 l 1.359375,2.19140621 z M 3.7509766,-3.5402422 c 0,0.4921875 -0.4921875,0.890625 -1.3242188,0.890625 H 1.3720703 v -1.78125 h 1.0546875 c 0.796875,0 1.3242188,0.375 1.3242188,0.890625 z m 4.1162109,2.015625 c 0,-0.328125 -0.035156,-0.796875 -0.3046875,-1.1835937 -0.2578125,-0.3632813 -0.6679688,-0.4921875 -1.0195313,-0.4921875 -0.84375,0 -1.5,0.75 -1.5,1.6289062 0,0.89062501 0.6914063,1.64062501 1.6171875,1.64062501 0.3984375,0 0.8203125,-0.1171875 1.171875,-0.33984375 l -0.035156,-0.4921875 c -0.3867188,0.28125 -0.8320313,0.375 -1.1367188,0.375 -0.5976562,0 -1.0664062,-0.50390625 -1.078125,-1.13671876 z m -0.421875,-0.421875 H 5.6289062 c 0.1523438,-0.5625 0.5742188,-0.796875 0.9140625,-0.796875 0.3164063,0 0.7617188,0.1523438 0.9023438,0.796875 z M 11.125,-0.00117969 V -2.0050859 c 0,-0.7148438 -0.539062,-1.1953125 -1.2304687,-1.1953125 -0.4335938,0 -0.7734375,0.09375 -1.1601563,0.2929687 l 0.035156,0.515625 c 0.234375,-0.1523437 0.5742187,-0.3632812 1.125,-0.3632812 0.304688,0 0.632813,0.234375 0.632813,0.75 v 0.28125 c -1.0312505,0.035156 -2.0507818,0.2460937 -2.0507818,0.90234371 0,0.3515625 0.234375,0.890625 0.84375,0.890625 0.3046875,0 0.8554688,-0.05859375 1.2187508,-0.33984375 v 0.26953125 z m -0.597656,-0.984375 c 0,0.12890625 0,0.31640625 -0.246094,0.45703125 -0.222656,0.12890625 -0.4921875,0.140625 -0.5742187,0.140625 -0.3867188,0 -0.6796875,-0.17578125 -0.6796875,-0.4453125 0,-0.44531246 1.1835942,-0.48046876 1.5000002,-0.50390626 z m 4.341797,0.984375 V -4.8410234 h -0.574219 v 2.0390625 c -0.457031,-0.328125 -0.902344,-0.3632813 -1.113281,-0.3632813 -0.726563,0 -1.289063,0.7265625 -1.289063,1.6171875 0,0.87890626 0.550781,1.61718751 1.277344,1.61718751 0.433594,0 0.832031,-0.19921875 1.101562,-0.43359375 v 0.36328125 z m -0.597657,-0.8671875 c -0.175781,0.29296875 -0.445312,0.48046875 -0.773437,0.48046875 -0.492188,0 -0.996094,-0.33984375 -0.996094,-1.14843746 0,-0.8789063 0.597656,-1.171875 1.066406,-1.171875 0.28125,0 0.515625,0.1171875 0.703125,0.3515625 z m 7.051758,-0.39843751 c 0,-0.5742187 -0.457031,-1.03125 -1.007812,-1.1953125 0.527343,-0.2695312 0.796875,-0.7382812 0.796875,-1.1953125 0,-0.5859375 -0.597657,-1.0664062 -1.347657,-1.0664062 -0.609375,0 -1.125,0.328125 -1.417968,0.7382812 l 0.292968,0.4101563 c 0.28125,-0.5625 0.785157,-0.7148438 1.113282,-0.7148438 0.410156,0 0.726562,0.234375 0.726562,0.6328125 0,0.375 -0.257812,0.8203125 -0.785156,0.9140625 -0.03516,0.011719 -0.05859,0.011719 -0.527344,0.046875 v 0.4570313 h 0.550781 c 0.65625,0 0.902344,0.5273437 0.902344,0.9609375 0,0.55078121 -0.328125,0.96093746 -0.878906,0.96093746 -0.492188,0 -1.054688,-0.234375 -1.40625,-0.6796875 l -0.09375,0.45703125 c 0.410156,0.4453125 0.972656,0.6796875 1.511719,0.6796875 0.914062,0 1.570312,-0.6796875 1.570312,-1.40625001 z m 0,0"
       style="fill:#000000;fill-opacity:1;fill-rule:nonzero;stroke:none"
       aria-label="Read3"
       transform="matrix(1.3333333,0,0,1.3333333,366.66667,61.122667)" />
    <path
       id="path31"
       d="m 132.28319,30.10373 v 16.32793 h 82.67697 V 30.10373 Z"
       style="fill:#ddf2e5;fill-opacity:1;fill-rule:nonzero;stroke:#008f45;stroke-width:0.49814;stroke-linecap:butt;stroke-linejoin:miter;stroke-miterlimit:10;stroke-dasharray:none;stroke-opacity:1"
       transform="matrix(1.3333333,0,0,-1.3333333,43.774667,143.032)" />
    <path
       id="path32"
       d="M 4.7926563,-4.3005938 V -4.7927813 H 0.26921875 v 0.4921875 H 1.2653125 c 0.082031,0 0.1757813,-0.011719 0.2578125,-0.011719 h 0.65625 v 4.3125 H 2.8825 v -4.3125 h 0.65625 c 0.082031,0 0.1640625,0.011719 0.2460938,0.011719 z m 2.071289,1.6523438 v -0.515625 c -0.5859375,0 -1.0078125,0.2929687 -1.2890625,0.65625 V -3.1404375 H 5.0475391 v 3.140625 h 0.5859375 v -1.4882813 c 0,-0.75 0.6210937,-1.1601562 1.2304687,-1.1601562 z M 10.016289,1.875e-4 v -2.0039063 c 0,-0.7148437 -0.5390624,-1.1953125 -1.2304687,-1.1953125 -0.4335937,0 -0.7734375,0.09375 -1.1601562,0.2929688 l 0.035156,0.515625 c 0.234375,-0.1523438 0.5742188,-0.3632813 1.125,-0.3632813 0.3046875,0 0.6328125,0.234375 0.6328125,0.75 v 0.28125 c -1.03125,0.035156 -2.0507812,0.2460938 -2.0507812,0.9023438 0,0.3515625 0.234375,0.890625 0.84375,0.890625 0.3046875,0 0.8554687,-0.05859375 1.21875,-0.33984375 V 1.875e-4 Z m -0.5976562,-0.984375 c 0,0.12890625 0,0.31640625 -0.2460937,0.45703125 -0.2226563,0.12890625 -0.4921875,0.140625 -0.5742188,0.140625 -0.3867187,0 -0.6796875,-0.17578125 -0.6796875,-0.4453125 0,-0.44531255 1.1835938,-0.48046875 1.5,-0.50390625 z m 2.2910152,0.984375 v -3.09375 h -0.585937 v 3.09375 z m 0.05859,-3.9023438 v -0.703125 h -0.703125 v 0.703125 z m 3.779297,3.9023438 v -2.0625 c 0,-0.5507813 -0.164062,-1.1015625 -1.019531,-1.1015625 -0.398438,0 -0.785156,0.1640625 -1.089844,0.5273437 v -0.5039062 h -0.5625 v 3.140625 h 0.609375 v -1.6992188 c 0,-0.4570312 0.199219,-1.0078125 0.738281,-1.0078125 0.714844,0 0.714844,0.4921875 0.714844,0.6914063 v 2.015625 z m 6.208008,0 V -0.43340625 H 20.829766 V -4.7224688 h -0.152344 c -0.457031,0.421875 -1.03125,0.4453125 -1.441406,0.4570313 v 0.4453125 c 0.269531,-0.011719 0.621093,-0.023437 0.960937,-0.1640625 v 3.55078125 H 19.271172 V 1.875e-4 Z m 0,0"
       style="fill:#000000;fill-opacity:1;fill-rule:nonzero;stroke:none"
       aria-label="Train1"
       transform="matrix(1.3333333,0,0,1.3333333,260.40667,95.156)" />
    <path
       id="path33"
       d="M 214.96016,30.10373 V 46.43166 H 291.023 V 30.10373 Z"
       style="fill:#ddf2e5;fill-opacity:1;fill-rule:nonzero;stroke:#008f45;stroke-width:0.49814;stroke-linecap:butt;stroke-linejoin:miter;stroke-miterlimit:10;stroke-dasharray:none;stroke-opacity:1"
       transform="matrix(1.3333333,0,0,-1.3333333,43.774667,143.032)" />
    <path
       id="path34"
       d="M 4.79375,-4.3005938 V -4.7927813 H 0.2703125 v 0.4921875 h 0.9960937 c 0.082031,0 0.1757813,-0.011719 0.2578125,-0.011719 h 0.65625 v 4.3125 h 0.703125 v -4.3125 h 0.65625 c 0.082031,0 0.1640625,0.011719 0.2460938,0.011719 z M 6.8621094,-2.64825 v -0.515625 c -0.5859375,0 -1.0078125,0.2929687 -1.2890625,0.65625 V -3.1404375 H 5.0457031 v 3.140625 h 0.5859375 v -1.4882813 c 0,-0.75 0.6210938,-1.1601562 1.2304688,-1.1601562 z M 10.017383,1.875e-4 v -2.0039063 c 0,-0.7148437 -0.5390627,-1.1953125 -1.2304689,-1.1953125 -0.4335938,0 -0.7734375,0.09375 -1.1601563,0.2929688 l 0.035156,0.515625 c 0.234375,-0.1523438 0.5742187,-0.3632813 1.125,-0.3632813 0.3046875,0 0.6328125,0.234375 0.6328125,0.75 v 0.28125 c -1.03125,0.035156 -2.0507813,0.2460938 -2.0507813,0.9023438 0,0.3515625 0.234375,0.890625 0.84375,0.890625 0.3046875,0 0.8554688,-0.05859375 1.21875,-0.33984375 V 1.875e-4 Z m -0.5976564,-0.984375 c 0,0.12890625 0,0.31640625 -0.2460938,0.45703125 -0.2226562,0.12890625 -0.4921875,0.140625 -0.5742187,0.140625 -0.3867188,0 -0.6796875,-0.17578125 -0.6796875,-0.4453125 0,-0.44531255 1.1835937,-0.48046875 1.5,-0.50390625 z m 2.2910154,0.984375 v -3.09375 h -0.585937 v 3.09375 z m 0.05859,-3.9023438 v -0.703125 h -0.703125 v 0.703125 z m 3.779297,3.9023438 v -2.0625 c 0,-0.5507813 -0.164063,-1.1015625 -1.019531,-1.1015625 -0.398438,0 -0.785157,0.1640625 -1.089844,0.5273437 v -0.5039062 h -0.5625 v 3.140625 h 0.609375 v -1.6992188 c 0,-0.4570312 0.199219,-1.0078125 0.738281,-1.0078125 0.714844,0 0.714844,0.4921875 0.714844,0.6914063 v 2.015625 z m 6.37207,0 V -0.538875 h -1.359375 c -0.08203,0 -0.164062,0.0117188 -0.246094,0.0117188 h -0.796875 l 1.078125,-0.9609375 c 0.128907,-0.1054687 0.46875,-0.3632812 0.609375,-0.4804687 0.304688,-0.2812501 0.714844,-0.6445314 0.714844,-1.2421876 0,-0.7968749 -0.585937,-1.5117187 -1.582031,-1.5117187 -0.738281,0 -1.207031,0.3984375 -1.441406,1.1132812 l 0.328125,0.4101562 C 19.389453,-3.7849688 19.635547,-4.242 20.233203,-4.242 c 0.585938,0 1.03125,0.4101562 1.03125,1.0429687 0,0.5742188 -0.339844,0.9023438 -0.75,1.3007813 -0.140625,0.140625 -0.515625,0.4570312 -0.667969,0.5976562 -0.199218,0.1757813 -0.679687,0.6445313 -0.878906,0.82031255 V 1.875e-4 Z m 0,0"
       style="fill:#000000;fill-opacity:1;fill-rule:nonzero;stroke:none"
       aria-label="Train2"
       transform="matrix(1.3333333,0,0,1.3333333,366.23333,95.156)" />
    <path
       id="path35"
       d="m 291.023,30.10373 v 16.32793 h 72.75573 V 30.10373 Z"
       style="fill:#ddf2e5;fill-opacity:1;fill-rule:nonzero;stroke:#008f45;stroke-width:0.49814;stroke-linecap:butt;stroke-linejoin:miter;stroke-miterlimit:10;stroke-dasharray:none;stroke-opacity:1"
       transform="matrix(1.3333333,0,0,-1.3333333,43.774667,143.032)" />
    <path
       id="path36"
       d="M 4.7919531,-4.3006797 V -4.7928672 H 0.26851562 v 0.4921875 H 1.2646094 c 0.082031,0 0.1757812,-0.011719 0.2578125,-0.011719 h 0.65625 V 1.015625e-4 h 0.703125 V -4.3123984 h 0.65625 c 0.082031,0 0.1640625,0.011719 0.2460937,0.011719 z m 2.0654297,1.6523438 v -0.515625 c -0.5859375,0 -1.0078125,0.2929687 -1.2890625,0.65625 V -3.1405234 H 5.0409766 V 1.015625e-4 H 5.6269141 V -1.4881797 c 0,-0.75 0.6210937,-1.1601562 1.2304687,-1.1601562 z M 10.009727,1.015625e-4 V -2.0038047 c 0,-0.7148437 -0.5390629,-1.1953125 -1.2304692,-1.1953125 -0.4335937,0 -0.7734375,0.09375 -1.1601562,0.2929688 l 0.035156,0.515625 c 0.234375,-0.1523438 0.5742188,-0.3632813 1.125,-0.3632813 0.3046875,0 0.6328125,0.234375 0.6328125,0.75 v 0.28125 c -1.03125,0.035156 -2.0507812,0.2460938 -2.0507812,0.90234376 0,0.3515625 0.234375,0.890625 0.84375,0.890625 0.3046875,0 0.8554687,-0.05859375 1.21875,-0.33984375 V 1.015625e-4 Z M 9.4120703,-0.98427344 c 0,0.12890625 0,0.31640625 -0.2460937,0.45703125 -0.2226563,0.12890625 -0.4921875,0.140625 -0.5742188,0.140625 -0.3867187,0 -0.6796875,-0.17578125 -0.6796875,-0.4453125 0,-0.44531251 1.1835938,-0.48046871 1.5,-0.50390621 z M 11.703086,1.015625e-4 V -3.0936484 H 11.117148 V 1.015625e-4 Z M 11.76168,-3.9022422 v -0.703125 h -0.703125 v 0.703125 z M 15.540977,1.015625e-4 V -2.0623984 c 0,-0.5507813 -0.164063,-1.1015625 -1.019532,-1.1015625 -0.398437,0 -0.785156,0.1640625 -1.089843,0.5273437 v -0.5039062 h -0.5625 V 1.015625e-4 h 0.609375 V -1.6991172 c 0,-0.4570312 0.199218,-1.0078125 0.738281,-1.0078125 0.714844,0 0.714844,0.4921875 0.714844,0.6914063 V 1.015625e-4 Z M 21.971641,-1.2655234 c 0,-0.5742188 -0.457032,-1.03125 -1.007813,-1.1953125 0.527344,-0.2695313 0.796875,-0.7382813 0.796875,-1.1953125 0,-0.5859375 -0.597656,-1.0664063 -1.347656,-1.0664063 -0.609375,0 -1.125,0.328125 -1.417969,0.7382813 l 0.292969,0.4101562 c 0.28125,-0.5625 0.785156,-0.7148437 1.113281,-0.7148437 0.410156,0 0.726563,0.234375 0.726563,0.6328125 0,0.375 -0.257813,0.8203125 -0.785157,0.9140625 -0.03516,0.011719 -0.05859,0.011719 -0.527343,0.046875 v 0.4570312 h 0.550781 c 0.65625,0 0.902344,0.5273438 0.902344,0.9609375 0,0.55078126 -0.328125,0.96093751 -0.878907,0.96093751 -0.492187,0 -1.054687,-0.234375 -1.40625,-0.6796875 l -0.09375,0.45703125 c 0.410157,0.4453125 0.972657,0.6796875 1.511719,0.6796875 0.914063,0 1.570313,-0.6796875 1.570313,-1.40624996 z m 0,0"
       style="fill:#000000;fill-opacity:1;fill-rule:nonzero;stroke:none"
       aria-label="Train3"
       transform="matrix(1.3333333,0,0,1.3333333,465.44667,95.105333)" />
    <path
       id="path37"
       d="M 0,4.59193 V 20.91986 H 363.77873 V 4.59193 Z"
       style="fill:#fff2e6;fill-opacity:1;fill-rule:nonzero;stroke:#cc5500;stroke-width:0.49814;stroke-linecap:butt;stroke-linejoin:miter;stroke-miterlimit:10;stroke-dasharray:none;stroke-opacity:1"
       transform="matrix(1.3333333,0,0,-1.3333333,43.774667,143.032)" />
    <path
       id="path38"
       d="m 4.1249453,-0.00125781 v -0.5390625 H 3.5038516 l -1.7578125,0.0117188 H 1.3827578 V -2.2746953 H 3.8085391 V -2.7317266 H 1.3827578 v -1.6054687 h 1.0195313 c 0.082031,0 0.1640625,0.011719 0.2460937,0.011719 H 4.0194766 V -4.8176641 H 0.67963281 v 4.81640629 z m 3.890625,-1.55859379 c 0,-0.8320312 -0.46875,-1.6054687 -1.1601562,-1.6054687 -0.3046875,0 -0.8320313,0.09375 -1.2304688,0.3984375 v -0.328125 H 5.0390078 v 4.4414062 h 0.5976563 v -1.67578121 c 0.375,0.33984375 0.7734375,0.3984375 1.0078125,0.3984375 0.7382812,0 1.3710937,-0.703125 1.3710937,-1.62890629 z m -0.609375,0 c 0,0.69140629 -0.5273437,1.17187504 -1.0664062,1.17187504 -0.1054688,0 -0.28125,-0.0234375 -0.4570313,-0.1640625 -0.2109375,-0.1640625 -0.2460937,-0.26953125 -0.2460937,-0.3984375 V -2.3215703 c 0.1640625,-0.1875 0.4335937,-0.3632813 0.7734375,-0.3632813 0.5507812,0 0.9960937,0.515625 0.9960937,1.125 z m 4.5673827,0.035156 c 0,-0.9257813 -0.738281,-1.6757813 -1.640625,-1.6757813 -0.9140624,0 -1.6406249,0.7617188 -1.6406249,1.6757813 0,0.87890624 0.7382813,1.59374999 1.6406249,1.59374999 0.902344,0 1.640625,-0.71484375 1.640625,-1.59374999 z m -0.609375,-0.082031 c 0,0.79687504 -0.503906,1.19531254 -1.03125,1.19531254 -0.5507811,0 -1.0312499,-0.41015625 -1.0312499,-1.19531254 0,-0.7851562 0.515625,-1.1367187 1.0312499,-1.1367187 0.515625,0 1.03125,0.3632812 1.03125,1.1367187 z m 4.098633,1.35937504 -0.03516,-0.515625 c -0.351563,0.22265625 -0.726563,0.3515625 -1.160157,0.3515625 -0.644531,0 -1.019531,-0.515625 -1.019531,-1.14843754 0,-0.5390625 0.28125,-1.1601562 1.042969,-1.1601562 0.46875,0 0.691406,0.09375 1.054687,0.3164062 l 0.08203,-0.5039062 c -0.410157,-0.1992188 -0.597657,-0.2929688 -1.136719,-0.2929688 -1.042969,0 -1.652344,0.84375 -1.652344,1.6523438 0,0.84374999 0.679688,1.61718749 1.617188,1.61718749 0.492187,0 0.914062,-0.15234375 1.207031,-0.31640625 z m 3.46875,0.24609375 V -2.0637578 c 0,-0.5507813 -0.164063,-1.1015625 -1.019531,-1.1015625 -0.597657,0 -0.925782,0.3515625 -1.066407,0.4921875 v -2.1679688 h -0.585937 v 4.83984379 h 0.609375 V -1.7004766 c 0,-0.4570312 0.199219,-1.0078125 0.738281,-1.0078125 0.714844,0 0.714844,0.4921875 0.714844,0.6914063 v 2.01562499 z m 3.251953,-0.90234375 c 0,-0.12890624 -0.01172,-0.39843754 -0.304687,-0.66796874 -0.257813,-0.234375 -0.515625,-0.28125 -0.84375,-0.3398438 -0.410157,-0.082031 -0.738282,-0.140625 -0.738282,-0.4453125 0,-0.3984375 0.515625,-0.3984375 0.621094,-0.3984375 0.398438,0 0.703125,0.082031 1.042969,0.2695313 l 0.09375,-0.5039063 c -0.46875,-0.1875 -0.820313,-0.2109375 -1.066406,-0.2109375 -0.175782,0 -1.230469,0 -1.230469,0.9257813 0,0.328125 0.175781,0.5039062 0.269531,0.5976562 0.246094,0.234375 0.539063,0.2929688 0.902344,0.3632813 0.328125,0.058594 0.703125,0.1289062 0.703125,0.46874999 0,0.43359375 -0.574219,0.43359375 -0.667969,0.43359375 -0.445312,0 -0.867187,-0.15234375 -1.148437,-0.3515625 l -0.09375,0.52734375 c 0.234375,0.1171875 0.65625,0.3046875 1.242187,0.3046875 0.316406,0 0.621094,-0.046875 0.878906,-0.234375 0.257813,-0.19921875 0.339844,-0.50390625 0.339844,-0.73828125 z M 27.281195,1.7448359 C 27.257758,1.7331172 26.589789,1.1471797 26.261664,0.05733594 26.097602,-0.48172656 26.01557,-1.0559453 26.01557,-1.7473516 c 0,-2.4140625 1.125,-3.3632812 1.265625,-3.4804687 h -0.339843 c -0.117188,0 -0.128907,0 -0.210938,0.070312 -0.878906,0.7734375 -1.324219,2.015625 -1.324219,3.4101562 0,1.32421879 0.398438,2.58984379 1.3125,3.3984375 0.09375,0.09375 0.105469,0.09375 0.222657,0.09375 z m 5.469727,-4.1484375 c 0,-1.4414062 -1.054688,-2.578125 -2.320313,-2.578125 -1.253906,0 -2.320312,1.1367188 -2.320312,2.578125 0,1.44140629 1.078125,2.54296879 2.320312,2.54296879 1.253907,0 2.320313,-1.1015625 2.320313,-2.54296879 z m -0.703125,-0.1054687 c 0,1.3242187 -0.773438,2.15624999 -1.617188,2.15624999 -0.84375,0 -1.617187,-0.84374999 -1.617187,-2.15624999 0,-1.2421875 0.785156,-1.9921875 1.617187,-1.9921875 0.84375,0 1.617188,0.75 1.617188,1.9921875 z m 4.432617,-0.5859375 h -0.5625 c -0.949219,2.33203124 -0.996094,2.51953124 -1.019531,2.68359374 h -0.01172 C 34.839789,-0.68094531 34.64057,-1.1731328 34.429633,-1.7121953 l -0.5625,-1.3828125 h -0.585938 l 1.277344,3.09374999 h 0.644531 z m 3.181641,1.5703125 c 0,-0.328125 -0.03516,-0.796875 -0.304688,-1.1835938 -0.257812,-0.3632812 -0.667969,-0.4921875 -1.019531,-0.4921875 -0.84375,0 -1.5,0.75 -1.5,1.6289063 0,0.89062499 0.691406,1.64062499 1.617187,1.64062499 0.398438,0 0.820313,-0.1171875 1.171875,-0.33984375 l -0.03516,-0.4921875 c -0.386719,0.28125 -0.832031,0.375 -1.136719,0.375 -0.597656,0 -1.066406,-0.50390625 -1.078125,-1.13671874 z m -0.421875,-0.421875 h -1.816407 c 0.152344,-0.5625 0.574219,-0.796875 0.914063,-0.796875 0.316406,0 0.761719,0.1523437 0.902344,0.796875 z m 3.058593,-0.703125 v -0.515625 c -0.585937,0 -1.007812,0.2929687 -1.289062,0.65625 v -0.6328125 h -0.527344 v 3.14062499 h 0.585938 V -1.4895391 c 0,-0.75 0.621093,-1.1601562 1.230468,-1.1601562 z m 1.289063,2.64843749 V -4.8411016 h -0.585938 v 4.83984379 z m 3.626953,0 V -2.0051641 c 0,-0.7148437 -0.539062,-1.1953125 -1.230469,-1.1953125 -0.433593,0 -0.773437,0.09375 -1.160156,0.2929688 l 0.03516,0.515625 c 0.234375,-0.1523438 0.574219,-0.3632813 1.125,-0.3632813 0.304688,0 0.632813,0.234375 0.632813,0.75 v 0.28125 c -1.03125,0.035156 -2.050781,0.2460938 -2.050781,0.90234379 0,0.3515625 0.234375,0.890625 0.84375,0.890625 0.304687,0 0.855468,-0.05859375 1.21875,-0.33984375 v 0.26953125 z m -0.597656,-0.984375 c 0,0.12890625 0,0.31640625 -0.246094,0.45703125 -0.222656,0.12890625 -0.492187,0.140625 -0.574219,0.140625 -0.386718,0 -0.679687,-0.17578125 -0.679687,-0.4453125 0,-0.44531254 1.183594,-0.48046874 1.5,-0.50390624 z m 4.693359,-0.57421879 c 0,-0.8320312 -0.46875,-1.6054687 -1.160156,-1.6054687 -0.304688,0 -0.832031,0.09375 -1.230469,0.3984375 v -0.328125 H 48.33393 v 4.4414062 h 0.597656 v -1.67578121 c 0.375,0.33984375 0.773437,0.3984375 1.007812,0.3984375 0.738282,0 1.371094,-0.703125 1.371094,-1.62890629 z m -0.609375,0 c 0,0.69140629 -0.527344,1.17187504 -1.066406,1.17187504 -0.105469,0 -0.28125,-0.0234375 -0.457031,-0.1640625 -0.210938,-0.1640625 -0.246094,-0.26953125 -0.246094,-0.3984375 V -2.3215703 c 0.164062,-0.1875 0.433594,-0.3632813 0.773437,-0.3632813 0.550782,0 0.996094,0.515625 0.996094,1.125 z m 4.438477,0 c 0,-0.8320312 -0.46875,-1.6054687 -1.160157,-1.6054687 -0.304687,0 -0.832031,0.09375 -1.230468,0.3984375 v -0.328125 h -0.585938 v 4.4414062 h 0.597656 v -1.67578121 c 0.375,0.33984375 0.773438,0.3984375 1.007813,0.3984375 0.738281,0 1.371094,-0.703125 1.371094,-1.62890629 z m -0.609375,0 c 0,0.69140629 -0.527344,1.17187504 -1.066407,1.17187504 -0.105468,0 -0.28125,-0.0234375 -0.457031,-0.1640625 -0.210937,-0.1640625 -0.246094,-0.26953125 -0.246094,-0.3984375 V -2.3215703 c 0.164063,-0.1875 0.433594,-0.3632813 0.773438,-0.3632813 0.550781,0 0.996094,0.515625 0.996094,1.125 z m 4.142578,0.035156 c 0,-0.328125 -0.03516,-0.796875 -0.304688,-1.1835938 -0.257812,-0.3632812 -0.667968,-0.4921875 -1.019531,-0.4921875 -0.84375,0 -1.5,0.75 -1.5,1.6289063 0,0.89062499 0.691406,1.64062499 1.617188,1.64062499 0.398437,0 0.820312,-0.1171875 1.171875,-0.33984375 l -0.03516,-0.4921875 c -0.386718,0.28125 -0.832031,0.375 -1.136718,0.375 -0.597657,0 -1.066407,-0.50390625 -1.078125,-1.13671874 z m -0.421875,-0.421875 h -1.816406 c 0.152343,-0.5625 0.574218,-0.796875 0.914062,-0.796875 0.316406,0 0.761719,0.1523437 0.902344,0.796875 z m 3.867187,1.94531249 V -4.8411016 h -0.574218 v 2.0390625 c -0.457032,-0.328125 -0.902344,-0.3632812 -1.113282,-0.3632812 -0.726562,0 -1.289062,0.7265625 -1.289062,1.6171875 0,0.87890624 0.550781,1.61718749 1.277344,1.61718749 0.433593,0 0.832031,-0.19921875 1.101562,-0.43359375 v 0.36328125 z m -0.597656,-0.8671875 c -0.175781,0.29296875 -0.445312,0.48046875 -0.773437,0.48046875 -0.492188,0 -0.996094,-0.33984375 -0.996094,-1.14843754 0,-0.8789062 0.597656,-1.171875 1.066406,-1.171875 0.28125,0 0.515625,0.1171875 0.703125,0.3515625 z m 3.486328,-0.87890629 c 0,-1.3125 -0.398437,-2.578125 -1.3125,-3.3984375 -0.09375,-0.082031 -0.105469,-0.082031 -0.222656,-0.082031 h -0.339844 c 0.02344,0.011719 0.703125,0.5859375 1.019531,1.6757812 0.164063,0.5507813 0.246094,1.1132813 0.246094,1.8046875 0,2.41406254 -1.125,3.375 -1.265625,3.4921875 h 0.339844 c 0.117187,0 0.128906,0 0.210937,-0.082031 0.878907,-0.76171876 1.324219,-2.00390626 1.324219,-3.4101567 z m 0,0"
       style="fill:#000000;fill-opacity:1;fill-rule:nonzero;stroke:none"
       aria-label="Epochs(Overlapped)"
       transform="matrix(1.3333333,0,0,1.3333333,242.55867,128.34933)" />
    <path
       id="path39"
       d="m 3.399875,-2.2606016 c 0,-0.3398437 0,-1.1601562 -0.328125,-1.7226562 C 2.7201875,-4.6160703 2.181125,-4.7215391 1.853,-4.7215391 c -0.3164062,0 -0.8671875,0.1054688 -1.20703125,0.703125 -0.33984375,0.5507813 -0.3515625,1.3125 -0.3515625,1.7578125 0,0.515625 0.0234375,1.1484375 0.31640625,1.67578129 0.31640625,0.5625 0.8320313,0.7265625 1.2421875,0.7265625 0.6914063,0 1.078125,-0.3984375 1.2890625,-0.84375 C 3.3881563,-1.1941953 3.399875,-1.8270078 3.399875,-2.2606016 Z m -0.5976562,-0.09375 c 0,0.4570313 0,0.984375 -0.1757813,1.42968754 -0.1875,0.50390625 -0.5507812,0.609375 -0.7734375,0.609375 -0.2929687,0 -0.6328125,-0.1640625 -0.8085937,-0.66796875 C 0.90378125,-1.4051328 0.90378125,-1.8504453 0.90378125,-2.3543516 c 0,-0.6445312 0,-1.9101562 0.94921875,-1.9101562 0.9492188,0 0.9492188,1.265625 0.9492188,1.9101562 z M 7.103,-2.2606016 c 0,-0.3398437 0,-1.1601562 -0.328125,-1.7226562 -0.3515625,-0.6328125 -0.890625,-0.7382813 -1.21875,-0.7382813 -0.3164062,0 -0.8671875,0.1054688 -1.2070312,0.703125 -0.3398438,0.5507813 -0.3515625,1.3125 -0.3515625,1.7578125 0,0.515625 0.023438,1.1484375 0.3164062,1.67578129 0.3164063,0.5625 0.8320313,0.7265625 1.2421875,0.7265625 0.6914063,0 1.078125,-0.3984375 1.2890625,-0.84375 C 7.0912813,-1.1941953 7.103,-1.8270078 7.103,-2.2606016 Z m -0.5976562,-0.09375 c 0,0.4570313 0,0.984375 -0.1757813,1.42968754 -0.1875,0.50390625 -0.5507812,0.609375 -0.7734375,0.609375 -0.2929687,0 -0.6328125,-0.1640625 -0.8085937,-0.66796875 -0.140625,-0.42187499 -0.140625,-0.86718749 -0.140625,-1.37109379 0,-0.6445312 0,-1.9101562 0.9492187,-1.9101562 0.9492188,0 0.9492188,1.265625 0.9492188,1.9101562 z M 8.743625,-2.4715391 V -3.0926328 H 8.1225313 v 0.6210937 z m 0,2.47265629 v -0.6328125 H 8.1225313 v 0.6328125 z m 4.119141,-2.26171879 c 0,-0.3398437 0,-1.1601562 -0.328125,-1.7226562 -0.351563,-0.6328125 -0.890625,-0.7382813 -1.21875,-0.7382813 -0.316407,0 -0.867188,0.1054688 -1.207032,0.703125 -0.3398434,0.5507813 -0.3515621,1.3125 -0.3515621,1.7578125 0,0.515625 0.023437,1.1484375 0.3164061,1.67578129 0.316406,0.5625 0.832031,0.7265625 1.242188,0.7265625 0.691406,0 1.078125,-0.3984375 1.289062,-0.84375 0.246094,-0.49218749 0.257813,-1.12499999 0.257813,-1.55859379 z m -0.597657,-0.09375 c 0,0.4570313 0,0.984375 -0.175781,1.42968754 -0.1875,0.50390625 -0.550781,0.609375 -0.773437,0.609375 -0.292969,0 -0.632813,-0.1640625 -0.808594,-0.66796875 -0.140625,-0.42187499 -0.140625,-0.86718749 -0.140625,-1.37109379 0,-0.6445312 0,-1.9101562 0.949219,-1.9101562 0.949218,0 0.949218,1.265625 0.949218,1.9101562 z m 4.300782,0.09375 c 0,-0.3398437 0,-1.1601562 -0.328125,-1.7226562 -0.351563,-0.6328125 -0.890625,-0.7382813 -1.21875,-0.7382813 -0.316407,0 -0.867188,0.1054688 -1.207032,0.703125 -0.339843,0.5507813 -0.351562,1.3125 -0.351562,1.7578125 0,0.515625 0.02344,1.1484375 0.316406,1.67578129 0.316406,0.5625 0.832031,0.7265625 1.242188,0.7265625 0.691406,0 1.078125,-0.3984375 1.289062,-0.84375 0.246094,-0.49218749 0.257813,-1.12499999 0.257813,-1.55859379 z m -0.597657,-0.09375 c 0,0.4570313 0,0.984375 -0.175781,1.42968754 -0.1875,0.50390625 -0.550781,0.609375 -0.773437,0.609375 -0.292969,0 -0.632813,-0.1640625 -0.808594,-0.66796875 -0.140625,-0.42187499 -0.140625,-0.86718749 -0.140625,-1.37109379 0,-0.6445312 0,-1.9101562 0.949219,-1.9101562 0.949218,0 0.949218,1.265625 0.949218,1.9101562 z m 0,0"
       style="fill:#000000;fill-opacity:1;fill-rule:nonzero;stroke:none"
       aria-label="00:00"
       transform="matrix(1.3333333,0,0,1.3333333,32.529333,166.15867)" />
    <path
       id="path40"
       d="m 3.3988125,-2.2606016 c 0,-0.3398437 0,-1.1601562 -0.328125,-1.7226562 -0.3515625,-0.6328125 -0.890625,-0.7382813 -1.21875,-0.7382813 -0.3164062,0 -0.8671875,0.1054688 -1.20703125,0.703125 -0.33984375,0.5507813 -0.3515625,1.3125 -0.3515625,1.7578125 0,0.515625 0.0234375,1.1484375 0.31640625,1.67578129 0.31640625,0.5625 0.8320313,0.7265625 1.2421875,0.7265625 0.6914063,0 1.078125,-0.3984375 1.2890625,-0.84375 C 3.3870938,-1.1941953 3.3988125,-1.8270078 3.3988125,-2.2606016 Z m -0.5976562,-0.09375 c 0,0.4570313 0,0.984375 -0.1757813,1.42968754 -0.1875,0.50390625 -0.5507812,0.609375 -0.7734375,0.609375 -0.2929687,0 -0.6328125,-0.1640625 -0.8085937,-0.66796875 C 0.90271875,-1.4051328 0.90271875,-1.8504453 0.90271875,-2.3543516 c 0,-0.6445312 0,-1.9101562 0.94921875,-1.9101562 0.9492188,0 0.9492188,1.265625 0.9492188,1.9101562 z m 4.3007812,0.09375 c 0,-0.3398437 0,-1.1601562 -0.328125,-1.7226562 -0.3515625,-0.6328125 -0.890625,-0.7382813 -1.21875,-0.7382813 -0.3164062,0 -0.8671875,0.1054688 -1.2070312,0.703125 -0.3398438,0.5507813 -0.3515625,1.3125 -0.3515625,1.7578125 0,0.515625 0.023437,1.1484375 0.3164062,1.67578129 0.3164063,0.5625 0.8320313,0.7265625 1.2421875,0.7265625 0.6914063,0 1.078125,-0.3984375 1.2890625,-0.84375 C 7.0902188,-1.1941953 7.1019375,-1.8270078 7.1019375,-2.2606016 Z m -0.5976562,-0.09375 c 0,0.4570313 0,0.984375 -0.1757813,1.42968754 -0.1875,0.50390625 -0.5507812,0.609375 -0.7734375,0.609375 -0.2929687,0 -0.6328125,-0.1640625 -0.8085937,-0.66796875 -0.140625,-0.42187499 -0.140625,-0.86718749 -0.140625,-1.37109379 0,-0.6445312 0,-1.9101562 0.9492187,-1.9101562 0.9492188,0 0.9492188,1.265625 0.9492188,1.9101562 z M 8.7425625,-2.4715391 V -3.0926328 H 8.1214688 v 0.6210937 z m 0,2.47265629 v -0.6328125 H 8.1214688 v 0.6328125 z m 3.8847655,0 V -0.43247656 H 11.701547 V -4.7215391 h -0.152344 c -0.457031,0.421875 -1.03125,0.4453125 -1.441406,0.4570313 v 0.4453125 c 0.269531,-0.011719 0.621094,-0.023437 0.960937,-0.1640625 v 3.55078124 h -0.925781 v 0.43359375 z m 3.867188,-1.41796879 c 0,-0.8671875 -0.644532,-1.546875 -1.40625,-1.546875 -0.304688,0 -0.574219,0.09375 -0.773438,0.2695313 v -1.3945313 h 1.921875 v -0.4804687 h -2.484375 v 2.6015625 h 0.503906 c 0.175782,-0.375 0.503907,-0.5390625 0.808594,-0.5390625 0.292969,0 0.726563,0.1875 0.726563,1.078125 0,0.91406249 -0.585938,1.11328124 -0.9375,1.11328124 -0.457032,0 -0.902344,-0.24609375 -1.148438,-0.64453125 l -0.257812,0.421875 c 0.339843,0.421875 0.855468,0.6796875 1.40625,0.6796875 0.925781,0 1.640625,-0.703125 1.640625,-1.55859379 z m 0,0"
       style="fill:#000000;fill-opacity:1;fill-rule:nonzero;stroke:none"
       aria-label="00:15"
       transform="matrix(1.3333333,0,0,1.3333333,164.812,166.15867)" />
    <path
       id="path41"
       d="m 3.39775,-2.2606016 c 0,-0.3398437 0,-1.1601562 -0.328125,-1.7226562 C 2.7180625,-4.6160703 2.179,-4.7215391 1.850875,-4.7215391 c -0.3164062,0 -0.8671875,0.1054688 -1.20703125,0.703125 -0.33984375,0.5507813 -0.3515625,1.3125 -0.3515625,1.7578125 0,0.515625 0.0234375,1.1484375 0.31640625,1.67578129 0.31640625,0.5625 0.8320313,0.7265625 1.2421875,0.7265625 0.6914063,0 1.078125,-0.3984375 1.2890625,-0.84375 C 3.3860313,-1.1941953 3.39775,-1.8270078 3.39775,-2.2606016 Z m -0.5976562,-0.09375 c 0,0.4570313 0,0.984375 -0.1757813,1.42968754 -0.1875,0.50390625 -0.5507812,0.609375 -0.7734375,0.609375 -0.2929687,0 -0.6328125,-0.1640625 -0.8085937,-0.66796875 C 0.90165625,-1.4051328 0.90165625,-1.8504453 0.90165625,-2.3543516 c 0,-0.6445312 0,-1.9101562 0.94921875,-1.9101562 0.9492188,0 0.9492188,1.265625 0.9492188,1.9101562 z m 4.3007812,0.09375 c 0,-0.3398437 0,-1.1601562 -0.328125,-1.7226562 C 6.4211875,-4.6160703 5.882125,-4.7215391 5.554,-4.7215391 c -0.3164062,0 -0.8671875,0.1054688 -1.2070312,0.703125 -0.3398438,0.5507813 -0.3515625,1.3125 -0.3515625,1.7578125 0,0.515625 0.023437,1.1484375 0.3164062,1.67578129 0.3164063,0.5625 0.8320313,0.7265625 1.2421875,0.7265625 0.6914063,0 1.078125,-0.3984375 1.2890625,-0.84375 C 7.0891563,-1.1941953 7.100875,-1.8270078 7.100875,-2.2606016 Z m -0.5976562,-0.09375 c 0,0.4570313 0,0.984375 -0.1757813,1.42968754 -0.1875,0.50390625 -0.5507812,0.609375 -0.7734375,0.609375 -0.2929687,0 -0.6328125,-0.1640625 -0.8085937,-0.66796875 -0.140625,-0.42187499 -0.140625,-0.86718749 -0.140625,-1.37109379 0,-0.6445312 0,-1.9101562 0.9492187,-1.9101562 0.9492188,0 0.9492188,1.265625 0.9492188,1.9101562 z M 8.7415,-2.4715391 V -3.0926328 H 8.1204063 v 0.6210937 z m 0,2.47265629 v -0.6328125 H 8.1204063 v 0.6328125 z m 4.107422,-1.26562499 c 0,-0.5742188 -0.457031,-1.03125 -1.007813,-1.1953125 0.527344,-0.2695313 0.796875,-0.7382813 0.796875,-1.1953125 0,-0.5859375 -0.597656,-1.0664063 -1.347656,-1.0664063 -0.609375,0 -1.125,0.328125 -1.4179686,0.7382813 l 0.2929686,0.4101562 c 0.28125,-0.5625 0.785156,-0.7148437 1.113281,-0.7148437 0.410157,0 0.726563,0.234375 0.726563,0.6328125 0,0.375 -0.257813,0.8203125 -0.785156,0.9140625 -0.03516,0.011719 -0.05859,0.011719 -0.527344,0.046875 v 0.4570312 h 0.550781 c 0.65625,0 0.902344,0.5273438 0.902344,0.9609375 0,0.55078129 -0.328125,0.96093754 -0.878906,0.96093754 -0.492188,0 -1.054688,-0.234375 -1.4062504,-0.6796875 l -0.09375,0.45703125 c 0.4101564,0.4453125 0.9726564,0.6796875 1.5117184,0.6796875 0.914063,0 1.570313,-0.6796875 1.570313,-1.40624999 z m 3.714844,-0.9960938 c 0,-0.3398437 0,-1.1601562 -0.328125,-1.7226562 -0.351563,-0.6328125 -0.890625,-0.7382813 -1.21875,-0.7382813 -0.316407,0 -0.867188,0.1054688 -1.207032,0.703125 -0.339843,0.5507813 -0.351562,1.3125 -0.351562,1.7578125 0,0.515625 0.02344,1.1484375 0.316406,1.67578129 0.316406,0.5625 0.832031,0.7265625 1.242188,0.7265625 0.691406,0 1.078125,-0.3984375 1.289062,-0.84375 0.246094,-0.49218749 0.257813,-1.12499999 0.257813,-1.55859379 z m -0.597657,-0.09375 c 0,0.4570313 0,0.984375 -0.175781,1.42968754 -0.1875,0.50390625 -0.550781,0.609375 -0.773437,0.609375 -0.292969,0 -0.632813,-0.1640625 -0.808594,-0.66796875 -0.140625,-0.42187499 -0.140625,-0.86718749 -0.140625,-1.37109379 0,-0.6445312 0,-1.9101562 0.949219,-1.9101562 0.949218,0 0.949218,1.265625 0.949218,1.9101562 z m 0,0"
       style="fill:#000000;fill-opacity:1;fill-rule:nonzero;stroke:none"
       aria-label="00:30"
       transform="matrix(1.3333333,0,0,1.3333333,297.09467,166.15867)" />
    <path
       id="path42"
       d="m 3.3986172,-2.2606016 c 0,-0.3398437 0,-1.1601562 -0.328125,-1.7226562 -0.3515625,-0.6328125 -0.890625,-0.7382813 -1.21875,-0.7382813 -0.3164063,0 -0.86718751,0.1054688 -1.20703126,0.703125 -0.33984375,0.5507813 -0.3515625,1.3125 -0.3515625,1.7578125 0,0.515625 0.0234375,1.1484375 0.31640625,1.67578129 0.31640625,0.5625 0.83203121,0.7265625 1.24218751,0.7265625 0.6914062,0 1.078125,-0.3984375 1.2890625,-0.84375 C 3.3868984,-1.1941953 3.3986172,-1.8270078 3.3986172,-2.2606016 Z m -0.5976563,-0.09375 c 0,0.4570313 0,0.984375 -0.1757812,1.42968754 -0.1875,0.50390625 -0.5507813,0.609375 -0.7734375,0.609375 -0.2929688,0 -0.6328125,-0.1640625 -0.8085938,-0.66796875 C 0.90252344,-1.4051328 0.90252344,-1.8504453 0.90252344,-2.3543516 c 0,-0.6445312 0,-1.9101562 0.94921876,-1.9101562 0.9492187,0 0.9492187,1.265625 0.9492187,1.9101562 z m 4.3007813,0.09375 c 0,-0.3398437 0,-1.1601562 -0.328125,-1.7226562 -0.3515625,-0.6328125 -0.890625,-0.7382813 -1.21875,-0.7382813 -0.3164063,0 -0.8671875,0.1054688 -1.2070313,0.703125 -0.3398437,0.5507813 -0.3515625,1.3125 -0.3515625,1.7578125 0,0.515625 0.023437,1.1484375 0.3164063,1.67578129 0.3164062,0.5625 0.8320312,0.7265625 1.2421875,0.7265625 0.6914062,0 1.078125,-0.3984375 1.2890625,-0.84375 C 7.0900234,-1.1941953 7.1017422,-1.8270078 7.1017422,-2.2606016 Z m -0.5976563,-0.09375 c 0,0.4570313 0,0.984375 -0.1757812,1.42968754 -0.1875,0.50390625 -0.5507813,0.609375 -0.7734375,0.609375 -0.2929688,0 -0.6328125,-0.1640625 -0.8085938,-0.66796875 -0.140625,-0.42187499 -0.140625,-0.86718749 -0.140625,-1.37109379 0,-0.6445312 0,-1.9101562 0.9492188,-1.9101562 0.9492187,0 0.9492187,1.265625 0.9492187,1.9101562 z M 8.7423672,-2.4715391 V -3.0926328 H 8.1212734 v 0.6210937 z m 0,2.47265629 v -0.6328125 H 8.1212734 v 0.6328125 z M 12.955258,-1.1590391 v -0.46875 h -0.726563 v -2.9414062 h -0.691406 l -1.8632812,2.9414062 v 0.46875 H 11.61932 v 1.16015629 h 0.609375 V -1.1590391 Z m -1.277344,-0.46875 h -1.417969 c 0.210938,-0.328125 1.40625,-2.1796875 1.417969,-2.6015625 z m 4.816406,0.2109375 c 0,-0.8671875 -0.644531,-1.546875 -1.40625,-1.546875 -0.304687,0 -0.574218,0.09375 -0.773437,0.2695313 v -1.3945313 h 1.921875 v -0.4804687 h -2.484375 v 2.6015625 h 0.503906 c 0.175781,-0.375 0.503906,-0.5390625 0.808594,-0.5390625 0.292969,0 0.726562,0.1875 0.726562,1.078125 0,0.91406249 -0.585937,1.11328124 -0.9375,1.11328124 -0.457031,0 -0.902343,-0.24609375 -1.148437,-0.64453125 l -0.257813,0.421875 c 0.339844,0.421875 0.855469,0.6796875 1.40625,0.6796875 0.925782,0 1.640625,-0.703125 1.640625,-1.55859379 z m 0,0"
       style="fill:#000000;fill-opacity:1;fill-rule:nonzero;stroke:none"
       aria-label="00:45"
       transform="matrix(1.3333333,0,0,1.3333333,429.37867,166.15867)" />
    <path
       id="path43"
       d="m 3.3975547,-2.2606016 c 0,-0.3398437 0,-1.1601562 -0.328125,-1.7226562 -0.3515625,-0.6328125 -0.890625,-0.7382813 -1.21875,-0.7382813 -0.3164063,0 -0.86718751,0.1054688 -1.20703126,0.703125 -0.33984375,0.5507813 -0.3515625,1.3125 -0.3515625,1.7578125 0,0.515625 0.0234375,1.1484375 0.31640625,1.67578129 0.31640625,0.5625 0.83203121,0.7265625 1.24218751,0.7265625 0.6914062,0 1.078125,-0.3984375 1.2890625,-0.84375 C 3.3858359,-1.1941953 3.3975547,-1.8270078 3.3975547,-2.2606016 Z m -0.5976563,-0.09375 c 0,0.4570313 0,0.984375 -0.1757812,1.42968754 -0.1875,0.50390625 -0.5507813,0.609375 -0.7734375,0.609375 -0.2929688,0 -0.6328125,-0.1640625 -0.8085938,-0.66796875 C 0.90146094,-1.4051328 0.90146094,-1.8504453 0.90146094,-2.3543516 c 0,-0.6445312 0,-1.9101562 0.94921876,-1.9101562 0.9492187,0 0.9492187,1.265625 0.9492187,1.9101562 z M 6.8663047,0.00111719 V -0.43247656 H 5.9405234 V -4.7215391 H 5.7881797 c -0.4570313,0.421875 -1.03125,0.4453125 -1.4414063,0.4570313 v 0.4453125 c 0.2695313,-0.011719 0.6210938,-0.023437 0.9609375,-0.1640625 v 3.55078124 H 4.3819297 v 0.43359375 z m 1.875,-2.47265629 V -3.0926328 H 8.1202109 v 0.6210937 z m 0,2.47265629 v -0.6328125 H 8.1202109 v 0.6328125 z M 12.863375,-2.2606016 c 0,-0.3398437 0,-1.1601562 -0.328125,-1.7226562 -0.351562,-0.6328125 -0.890625,-0.7382813 -1.21875,-0.7382813 -0.316406,0 -0.867187,0.1054688 -1.207031,0.703125 -0.339844,0.5507813 -0.3515627,1.3125 -0.3515627,1.7578125 0,0.515625 0.023437,1.1484375 0.3164067,1.67578129 0.316406,0.5625 0.832031,0.7265625 1.242187,0.7265625 0.691406,0 1.078125,-0.3984375 1.289063,-0.84375 0.246093,-0.49218749 0.257812,-1.12499999 0.257812,-1.55859379 z m -0.597656,-0.09375 c 0,0.4570313 0,0.984375 -0.175781,1.42968754 -0.1875,0.50390625 -0.550782,0.609375 -0.773438,0.609375 -0.292969,0 -0.632812,-0.1640625 -0.808594,-0.66796875 -0.140625,-0.42187499 -0.140625,-0.86718749 -0.140625,-1.37109379 0,-0.6445312 0,-1.9101562 0.949219,-1.9101562 0.949219,0 0.949219,1.265625 0.949219,1.9101562 z m 4.300781,0.09375 c 0,-0.3398437 0,-1.1601562 -0.328125,-1.7226562 -0.351562,-0.6328125 -0.890625,-0.7382813 -1.21875,-0.7382813 -0.316406,0 -0.867187,0.1054688 -1.207031,0.703125 -0.339844,0.5507813 -0.351563,1.3125 -0.351563,1.7578125 0,0.515625 0.02344,1.1484375 0.316407,1.67578129 0.316406,0.5625 0.832031,0.7265625 1.242187,0.7265625 0.691406,0 1.078125,-0.3984375 1.289063,-0.84375 C 16.554781,-1.1941953 16.5665,-1.8270078 16.5665,-2.2606016 Z m -0.597656,-0.09375 c 0,0.4570313 0,0.984375 -0.175781,1.42968754 -0.1875,0.50390625 -0.550782,0.609375 -0.773438,0.609375 -0.292969,0 -0.632812,-0.1640625 -0.808594,-0.66796875 -0.140625,-0.42187499 -0.140625,-0.86718749 -0.140625,-1.37109379 0,-0.6445312 0,-1.9101562 0.949219,-1.9101562 0.949219,0 0.949219,1.265625 0.949219,1.9101562 z m 0,0"
       style="fill:#000000;fill-opacity:1;fill-rule:nonzero;stroke:none"
       aria-label="01:00"
       transform="matrix(1.3333333,0,0,1.3333333,561.66133,166.15867)" />
  </g>
</svg>
