<?xml version="1.0" encoding="UTF-8" standalone="no"?>
<!-- Created with Inkscape (http://www.inkscape.org/) -->

<svg
   version="1.1"
   id="svg1"
   width="528.09869"
   height="178.54668"
   viewBox="0 0 528.09869 178.54668"
   xmlns="http://www.w3.org/2000/svg"
   xmlns:svg="http://www.w3.org/2000/svg">
  <defs
     id="defs1">
    <linearGradient
       x1="0"
       y1="0"
       x2="0"
       y2="100.00128"
       gradientUnits="userSpaceOnUse"
       id="linearGradient25">
      <stop
         style="stop-opacity:1;stop-color:#c8ffc8"
         offset="0"
         id="stop21" />
      <stop
         style="stop-opacity:1;stop-color:#c8ffc8"
         offset="0.25"
         id="stop22" />
      <stop
         style="stop-opacity:1;stop-color:#e4e4c8"
         offset="0.5"
         id="stop23" />
      <stop
         style="stop-opacity:1;stop-color:#ffc8c8"
         offset="0.75"
         id="stop24" />
      <stop
         style="stop-opacity:1;stop-color:#ffc8c8"
         offset="1"
         id="stop25" />
    </linearGradient>
    <clipPath
       clipPathUnits="userSpaceOnUse"
       id="clipPath26">
      <path
         d="M 73.655107,177.84293 H 451.61273 V 158.94511 H 73.655107 Z"
         id="path26" />
    </clipPath>
  </defs>
  <g
     id="g1">
    <path
       id="path1"
       d="m 33.44095,21.2601 h -66.8819 c -1.10048,0 -1.99255,-0.89209 -1.99255,-1.99255 v -38.5351 c 0,-1.10046 0.89207,-1.99255 1.99255,-1.99255 h 66.8819 c 1.10048,0 1.99255,0.89209 1.99255,1.99255 v 38.5351 c 0,1.10046 -0.89207,1.99255 -1.99255,1.99255 z"
       style="fill:#c8ffc8;fill-opacity:1;fill-rule:nonzero;stroke:#000000;stroke-width:0.74721;stroke-linecap:butt;stroke-linejoin:miter;stroke-miterlimit:10;stroke-dasharray:none;stroke-opacity:1"
       transform="matrix(1.3333333,0,0,-1.3333333,158.928,101.75333)" />
    <path
       id="path2"
       d="m 5.9657734,-0.925875 c 0.4335938,-0.5390625 0.7148438,-1.4296875 0.7148438,-2.3085937 0,-0.9609375 -0.3398438,-1.8867188 -0.9140625,-2.5078125 -0.5625,-0.609375 -1.3007813,-0.9023438 -2.2382813,-0.9023438 -0.9257812,0 -1.6640625,0.2929688 -2.2265625,0.9023438 -0.57421871,0.6210937 -0.91406246,1.546875 -0.91406246,2.5195312 0,0.984375 0.33984375,1.9101563 0.91406246,2.51953125 0.5625,0.609375 1.3125,0.9140625 2.2265625,0.9140625 0.6796875,0 1.1835938,-0.140625 1.6992188,-0.45703125 L 6.0009297,0.480375 6.6806172,-0.2461875 Z m -1.6640625,-1.5703125 -0.6796875,0.7265625 0.6914063,0.65625 c -0.2109375,0.1054688 -0.5039063,0.17578125 -0.7851563,0.17578125 -1.078125,0 -1.7929687,-0.91406245 -1.7929687,-2.28515625 0,-1.3710937 0.7148437,-2.2734375 1.7929687,-2.2734375 1.1015625,0 1.8046875,0.9023438 1.8046875,2.2851563 0,0.5390625 -0.09375,1.0195312 -0.2929687,1.4179687 z M 11.828078,-9.375e-5 V -4.8399375 H 10.574172 V -1.8165 c 0,0.5742188 -0.410156,0.9609375 -1.0195314,0.9609375 -0.5390625,0 -0.8085937,-0.2929687 -0.8085937,-0.8789062 V -4.8399375 H 7.4921406 v 3.375 c 0,1.06640625 0.5976563,1.67578125 1.6289063,1.67578125 0.65625,0 1.0898441,-0.24609375 1.4531251,-0.78515625 V -9.375e-5 Z M 17.15425,-2.0274375 c 0.01172,-0.1054687 0.01172,-0.1523437 0.01172,-0.2109375 0,-0.4921875 -0.07031,-0.9375 -0.1875,-1.2773437 -0.328125,-0.8789063 -1.113281,-1.40625 -2.085938,-1.40625 -1.382812,0 -2.238281,1.0078125 -2.238281,2.625 0,1.5585937 0.84375,2.50781245 2.214844,2.50781245 1.078125,0 1.957031,-0.62109375 2.238281,-1.57031245 h -1.242187 c -0.152344,0.3867187 -0.492188,0.60937495 -0.949219,0.60937495 -0.363281,0 -0.644531,-0.15234375 -0.832031,-0.42187495 -0.117188,-0.1875 -0.164063,-0.3984375 -0.175782,-0.8554688 z m -3.234375,-0.8320312 c 0.08203,-0.7382813 0.398438,-1.1015625 0.960938,-1.1015625 0.304687,0 0.597656,0.1523437 0.773437,0.3984375 0.117188,0.1875 0.175781,0.375 0.199219,0.703125 z m 4.045898,-3.6796875 V -9.375e-5 h 1.253907 v -0.4921875 c 0.304687,0.46875 0.726562,0.703125 1.335937,0.703125 1.160156,0 2.039063,-1.1015625 2.039063,-2.56640625 0,-0.65625 -0.199219,-1.3242187 -0.515625,-1.78125 -0.339844,-0.4804687 -0.925782,-0.7851562 -1.523438,-0.7851562 -0.597656,0 -1.03125,0.2226562 -1.335937,0.703125 v -2.3203125 z m 2.320313,2.671875 c 0.609375,0 1.054687,0.6210937 1.054687,1.5234375 0,0.8789062 -0.445312,1.49999995 -1.054687,1.49999995 -0.644531,0 -1.066406,-0.60937495 -1.066406,-1.53515625 0,-0.8789062 0.433593,-1.4882812 1.066406,-1.4882812 z m 7.330078,1.8398437 c 0.01172,-0.1054687 0.01172,-0.1523437 0.01172,-0.2109375 0,-0.4921875 -0.07031,-0.9375 -0.1875,-1.2773437 -0.328125,-0.8789063 -1.113281,-1.40625 -2.085938,-1.40625 -1.382812,0 -2.238281,1.0078125 -2.238281,2.625 0,1.5585937 0.84375,2.50781245 2.214844,2.50781245 1.078125,0 1.957031,-0.62109375 2.238281,-1.57031245 h -1.242187 c -0.152344,0.3867187 -0.492188,0.60937495 -0.949219,0.60937495 -0.363281,0 -0.644531,-0.15234375 -0.832031,-0.42187495 -0.117188,-0.1875 -0.164063,-0.3984375 -0.175782,-0.8554688 z m -3.234375,-0.8320312 c 0.08203,-0.7382813 0.398438,-1.1015625 0.960938,-1.1015625 0.304687,0 0.597656,0.1523437 0.773437,0.3984375 0.117188,0.1875 0.175781,0.375 0.199219,0.703125 z M 32.579055,-3.03525 c -0.08203,-1.1835937 -0.878907,-1.8867187 -2.085938,-1.8867187 -1.441406,0 -2.285156,0.9492187 -2.285156,2.6015625 0,1.59374995 0.832031,2.53124995 2.273437,2.53124995 1.171875,0 1.980469,-0.7265625 2.097657,-1.88671875 h -1.195313 c -0.164062,0.6210938 -0.410156,0.8671875 -0.902344,0.8671875 -0.632812,0 -1.019531,-0.5742187 -1.019531,-1.5117187 0,-0.4570313 0.09375,-0.890625 0.246094,-1.171875 0.140625,-0.2695313 0.421875,-0.421875 0.773437,-0.421875 0.515625,0 0.761719,0.2460937 0.902344,0.8789062 z m 0,0"
       style="fill:#000000;fill-opacity:1;fill-rule:nonzero;stroke:none"
       aria-label="Quebec"
       transform="matrix(1.3333333,0,0,1.3333333,137.00267,90.172)" />
    <path
       id="path3"
       d="M 4.9465234,-2.9756953 V 8.671875e-4 H 5.7785547 V -6.5381953 H 4.9465234 v 2.8242187 H 1.5832422 V -6.5381953 H 0.73949219 V 8.671875e-4 H 1.5832422 V -2.9756953 Z m 5.006836,-1.7226563 -1.3007813,3.65625 -1.2070312,-3.65625 h -0.796875 l 1.59375,4.72265629 -0.2929688,0.73828125 C 7.8322656,1.0907109 7.6682031,1.2196172 7.3517969,1.2196172 c -0.1054688,0 -0.234375,-0.011719 -0.3984375,-0.058594 v 0.6796875 c 0.1523437,0.082031 0.3046875,0.1171875 0.5039062,0.1171875 0.2460938,0 0.5039063,-0.082031 0.703125,-0.2226562 0.234375,-0.1757813 0.3632813,-0.375 0.5039063,-0.75000001 L 10.761953,-4.6983516 Z m 5.4462886,-1.8398437 h -0.75 v 2.4375 c -0.316406,-0.4804688 -0.808593,-0.7265625 -1.441406,-0.7265625 -1.21875,0 -2.015625,0.9726562 -2.015625,2.4726562 0,1.58203129 0.773438,2.56640629 2.039063,2.56640629 0.644531,0 1.101562,-0.24609375 1.5,-0.83203125 V 8.671875e-4 h 0.667968 z m -2.0625,2.4023437 c 0.808594,0 1.3125,0.7265625 1.3125,1.8398438 0,1.0898437 -0.515625,1.80468749 -1.3125,1.80468749 -0.820312,0 -1.371093,-0.72656249 -1.371093,-1.81640629 0,-1.1015625 0.550781,-1.828125 1.371093,-1.828125 z m 3.225586,-0.5625 V 8.671875e-4 h 0.75 V -2.4366328 c 0,-0.6679688 0.175782,-1.1132813 0.527344,-1.3710938 0.234375,-0.1757812 0.457031,-0.2226562 0.984375,-0.234375 v -0.7617187 c -0.128906,-0.023437 -0.199219,-0.023437 -0.292969,-0.023437 -0.480468,0 -0.855468,0.28125 -1.277343,0.984375 v -0.8554688 z m 4.801758,-0.1289062 c -1.3125,0 -2.109375,0.9375 -2.109375,2.5195312 0,1.57031254 0.785156,2.51953129 2.121094,2.51953129 1.3125,0 2.121094,-0.94921875 2.121094,-2.48437499 0,-1.6289063 -0.773438,-2.5546875 -2.132813,-2.5546875 z m 0.01172,0.6914062 c 0.84375,0 1.347656,0.6796875 1.347656,1.8515625 0,1.1015625 -0.527344,1.80468754 -1.347656,1.80468754 -0.832031,0 -1.347656,-0.69140624 -1.347656,-1.82812504 0,-1.1367187 0.515625,-1.828125 1.347656,-1.828125 z m 0,0"
       style="fill:#000000;fill-opacity:1;fill-rule:nonzero;stroke:none"
       aria-label="Hydro"
       transform="matrix(1.3333333,0,0,1.3333333,142.98667,104.784)" />
    <path
       id="path4"
       d="M 4.5344922,-0.78625781 H 1.1946484 C 1.2766797,-1.3018828 1.5579297,-1.6300078 2.3430859,-2.0870391 l 0.890625,-0.4921875 c 0.890625,-0.4804687 1.3476563,-1.1367187 1.3476563,-1.9101562 0,-0.5273438 -0.2109375,-1.0195313 -0.5976563,-1.3710938 -0.375,-0.3398437 -0.8320312,-0.4921875 -1.4414062,-0.4921875 -0.8085938,0 -1.40625,0.28125 -1.75781251,0.8203125 -0.22265625,0.3398438 -0.31640625,0.7382813 -0.33984375,1.3828125 H 1.2415234 c 0.023437,-0.4335937 0.070312,-0.6914062 0.1875,-0.9023437 0.1992188,-0.3867188 0.609375,-0.609375 1.0898438,-0.609375 0.7148437,0 1.2539062,0.5039062 1.2539062,1.1835937 0,0.5039063 -0.2929687,0.9375 -0.8554687,1.2539063 l -0.8320313,0.46875 c -1.32421871,0.75 -1.71093746,1.359375 -1.78124996,2.75390624 H 4.5344922 Z M 7.4466016,-6.3526641 c -0.5859375,0 -1.125,0.2578125 -1.453125,0.6914063 -0.421875,0.5625 -0.6210938,1.40625 -0.6210938,2.5898437 0,2.13281254 0.7148438,3.28125004 2.0742188,3.28125004 1.3476562,0 2.0859375,-1.1484375 2.0859375,-3.23437504 0,-1.2304687 -0.1992188,-2.0625 -0.6210938,-2.6367187 -0.328125,-0.4453125 -0.8554687,-0.6914063 -1.4648437,-0.6914063 z m 0,0.6914063 c 0.8554687,0 1.2773437,0.8671875 1.2773437,2.5664062 0,1.8046875 -0.4101562,2.64843754 -1.2890625,2.64843754 -0.8320312,0 -1.2539062,-0.87890624 -1.2539062,-2.62500004 0,-1.734375 0.421875,-2.5898437 1.265625,-2.5898437 z m 6.2167964,0.9609375 v 0.6796875 c -0.375,-0.5507813 -0.832031,-0.8085938 -1.429687,-0.8085938 -1.195313,0 -2.003906,1.03125 -2.003906,2.5546875 0,0.7734375 0.210937,1.40625004 0.597656,1.85156254 0.351562,0.3984375 0.84375,0.6328125 1.335937,0.6328125 0.597657,0 1.007813,-0.2578125 1.429688,-0.84375 v 0.234375 c 0,0.64453125 -0.08203,1.03125 -0.269531,1.2890625 -0.199219,0.26953126 -0.585938,0.43359376 -1.042969,0.43359376 -0.339844,0 -0.644531,-0.082031 -0.84375,-0.2460938 C 11.261055,0.93639844 11.190742,0.81921094 11.143867,0.53796094 h -0.761719 c 0.08203,0.89062496 0.773438,1.41796876 1.875,1.41796876 0.703125,0 1.300782,-0.2226563 1.605469,-0.5976563 0.363281,-0.43359371 0.492188,-1.03124996 0.492188,-2.13281246 V -4.7003203 Z m -1.347656,0.5625 c 0.808594,0 1.277344,0.6796875 1.277344,1.8515625 0,1.125 -0.480469,1.80468749 -1.277344,1.80468749 -0.808594,0 -1.300781,-0.69140629 -1.300781,-1.82812499 0,-1.1367188 0.503906,-1.828125 1.300781,-1.828125 z m 0,0"
       style="fill:#000000;fill-opacity:1;fill-rule:nonzero;stroke:none"
       aria-label="20g"
       transform="matrix(1.3333333,0,0,1.3333333,121.42667,119.396)" />
    <path
       id="path5"
       d="m 6.9380547,-6.0831328 c 0.023437,-0.1054688 0.023437,-0.1171875 0.023437,-0.140625 0,-0.011719 0,-0.09375 -0.1054688,-0.09375 -0.046875,0 -0.082031,0.023437 -0.140625,0.09375 l -0.5507812,0.5976562 c -0.035156,0.046875 -0.070312,0.082031 -0.082031,0.082031 0,0 -0.011719,-0.011719 -0.070312,-0.070312 -0.1289062,-0.1757813 -0.5390625,-0.703125 -1.4648437,-0.703125 -2.0507813,0 -4.08984376,1.9921875 -4.08984376,4.03125 0,1.46484374 1.06640626,2.48437499 2.50781246,2.48437499 0.9375,0 1.6757813,-0.48046875 2.015625,-0.796875 C 5.8013362,-1.3253201 5.95368,-2.1221951 5.95368,-2.1573514 c 0,-0.035156 -0.023437,-0.09375 -0.1289063,-0.09375 -0.09375,0 -0.1171875,0.058594 -0.1171875,0.09375 -0.4453125,1.44140629 -1.7226562,2.07421879 -2.625,2.07421879 -0.8671875,0 -1.7929687,-0.52734375 -1.7929687,-1.88671879 0,-0.3984375 0.140625,-1.8164062 1.0429687,-2.9179687 0.5390625,-0.6445313 1.4179688,-1.1601563 2.2734375,-1.1601563 0.9960938,0 1.5234375,0.7617188 1.5234375,1.7578125 0,0.3046875 -0.023437,0.3632813 -0.023437,0.4335938 0,0.09375 0.1054688,0.09375 0.1289063,0.09375 0.1171875,0 0.1171875,-0.011719 0.1640625,-0.1875 z m 7.0722653,2.203125 c 0,-1.4179688 -0.949218,-2.4375 -2.355468,-2.4375 -2.0156254,0 -3.9960942,2.0625 -3.9960942,4.1015625 0,1.47656249 1.0195313,2.41406249 2.3671872,2.41406249 2.003907,0 3.984375,-2.00390629 3.984375,-4.07812499 z m -3.914062,3.80859374 c -0.8671877,0 -1.5703127,-0.65625 -1.5703127,-1.92187504 0,-0.46875 0.1523438,-1.7929687 0.890625,-2.8125 0.6445317,-0.8789062 1.5117187,-1.265625 2.1679687,-1.265625 0.878906,0 1.605469,0.6328125 1.605469,1.8515625 0,0.5742188 -0.234375,1.8867188 -0.984375,2.90625 -0.667969,0.89062504 -1.5,1.24218754 -2.109375,1.24218754 z m 0,0"
       style="fill:#000000;fill-opacity:1;fill-rule:nonzero;stroke:none"
       aria-label="CO"
       transform="matrix(1.3333333,0,0,1.3333333,144.69067,119.396)" />
    <path
       id="path6"
       d="M 3.2100547,-1.1142891 H 2.9991172 c -0.023437,0.082031 -0.082031,0.46875004 -0.1640625,0.53906254 -0.046875,0.0351563 -0.5273438,0.0351563 -0.609375,0.0351563 h -1.125 L 1.8741172,-1.1611641 c 0.1992187,-0.1640625 0.7265625,-0.5390625 0.9140625,-0.7265625 0.1757812,-0.1757812 0.421875,-0.4804687 0.421875,-0.9023437 0,-0.75 -0.6679688,-1.1835938 -1.4765625,-1.1835938 -0.76171876,0 -1.30078126,0.5039063 -1.30078126,1.0664063 0,0.3046875 0.2578125,0.3398437 0.31640625,0.3398437 0.15234375,0 0.32812501,-0.1054687 0.32812501,-0.3164062 0,-0.140625 -0.0820313,-0.328125 -0.33984376,-0.328125 0.12890625,-0.3046875 0.50390626,-0.5273438 0.91406246,-0.5273438 0.6210938,0 0.9609375,0.46875 0.9609375,0.9492188 0,0.421875 -0.28125,0.8554687 -0.703125,1.2421875 l -1.41796871,1.30078124 c -0.0585938,0.0585938 -0.0585938,0.0585938 -0.0585938,0.24609375 H 3.0342734 Z m 0,0"
       style="fill:#000000;fill-opacity:1;fill-rule:nonzero;stroke:none"
       aria-label="2"
       transform="matrix(1.3333333,0,0,1.3333333,163.66133,120.724)" />
    <path
       id="path7"
       d="m 2.0502656,-6.5401641 -2.12109373,6.71484379 h 0.4921875 L 2.5424531,-6.5401641 Z m 1.7080078,0 h -0.75 v 6.53906254 h 0.75 V -1.8292266 l 0.7265625,-0.7148437 1.5820313,2.54296874 H 6.9926484 L 5.0707734,-3.0714141 6.7113984,-4.7003203 H 5.7504609 l -1.9921875,1.9921875 z m 9.8847656,6.53906254 1.664063,-6.53906254 h -0.9375 l -1.195313,5.3085938 -1.488281,-5.3085938 H 10.783664 L 9.3305391,-1.2315703 8.1000703,-6.5401641 H 7.1742891 l 1.6757812,6.53906254 h 0.9140625 l 1.4648442,-5.36718754 1.5,5.36718754 z M 16.07175,-6.5401641 v 6.53906254 h 0.738281 V -2.5909453 c 0,-0.9609375 0.503906,-1.5820313 1.277344,-1.5820313 0.234375,0 0.480469,0.070312 0.65625,0.2109375 0.222656,0.1523438 0.304687,0.375 0.304687,0.703125 v 3.25781254 h 0.75 V -3.5518828 c 0,-0.7851563 -0.5625,-1.2773438 -1.476562,-1.2773438 -0.667969,0 -1.066406,0.1992188 -1.511719,0.7734375 v -2.484375 z m 0,0"
       style="fill:#000000;fill-opacity:1;fill-rule:nonzero;stroke:none"
       aria-label="/kWh"
       transform="matrix(1.3333333,0,0,1.3333333,169.196,119.396)" />
    <path
       id="path8"
       d="M 147.57542,21.2601 H 80.6935 c -1.10048,0 -1.99256,-0.89209 -1.99256,-1.99255 v -38.5351 c 0,-1.10046 0.89208,-1.99255 1.99256,-1.99255 h 66.88192 c 1.10047,0 1.99256,0.89209 1.99256,1.99255 v 38.5351 c 0,1.10046 -0.89209,1.99255 -1.99256,1.99255 z"
       style="fill:#ffffc8;fill-opacity:1;fill-rule:nonzero;stroke:#000000;stroke-width:0.74721;stroke-linecap:butt;stroke-linejoin:miter;stroke-miterlimit:10;stroke-dasharray:none;stroke-opacity:1"
       transform="matrix(1.3333333,0,0,-1.3333333,158.928,101.75333)" />
    <path
       id="path9"
       d="M 3.4580625,-5.4138359 H 5.3565 v -1.125 H 0.1299375 v 1.125 H 2.1104062 V 2.265625e-4 h 1.3476563 z m 6.1816406,3.3867187 c 0.011719,-0.1054687 0.011719,-0.1523437 0.011719,-0.2109375 0,-0.4921875 -0.070312,-0.9375 -0.1875,-1.2773437 -0.328125,-0.8789063 -1.1132813,-1.40625 -2.0859375,-1.40625 -1.3828125,0 -2.2382813,1.0078125 -2.2382813,2.625 0,1.55859371 0.84375,2.50781246 2.2148438,2.50781246 1.078125,0 1.9570312,-0.62109375 2.2382812,-1.57031246 H 8.3506406 c -0.1523437,0.38671871 -0.4921875,0.60937496 -0.9492187,0.60937496 -0.3632813,0 -0.6445313,-0.15234375 -0.8320313,-0.42187496 -0.1171875,-0.1875 -0.1640625,-0.3984375 -0.1757812,-0.8554688 z m -3.234375,-0.8320312 c 0.082031,-0.7382813 0.3984375,-1.1015625 0.9609375,-1.1015625 0.3046875,0 0.5976563,0.1523437 0.7734375,0.3984375 0.1171875,0.1875 0.1757813,0.375 0.1992188,0.703125 z m 6.5742189,0.421875 1.570312,-2.4023438 h -1.5 l -0.785156,1.4648438 -0.785156,-1.4648438 H 9.9678281 L 11.549859,-2.4372734 9.9326719,2.265625e-4 H 11.444391 L 12.264703,-1.5114922 13.085016,2.265625e-4 h 1.5 z m 6.495117,2.28515621 c -0.222656,-0.2109375 -0.292969,-0.33984375 -0.292969,-0.5859375 V -3.4333672 c 0,-0.984375 -0.667968,-1.4882812 -1.980468,-1.4882812 -1.300782,0 -1.992188,0.5507812 -2.0625,1.6757812 h 1.207031 c 0.05859,-0.5039062 0.269531,-0.6679687 0.890625,-0.6679687 0.480469,0 0.726562,0.1640625 0.726562,0.4921875 0,0.1640625 -0.08203,0.3046875 -0.222656,0.375 -0.164062,0.09375 -0.164062,0.09375 -0.785156,0.1875 l -0.503906,0.09375 c -0.960938,0.1523437 -1.429688,0.6445312 -1.429688,1.5234375 0,0.41015621 0.117188,0.74999996 0.339844,0.99609371 0.28125,0.28125 0.703125,0.45703125 1.136719,0.45703125 0.539062,0 1.03125,-0.234375 1.464843,-0.69140625 0,0.24609375 0.03516,0.33984375 0.152344,0.4804687525 h 1.359375 z M 17.962945,-1.9450859 c 0,0.7265625 -0.363281,1.13671871 -0.996093,1.13671871 -0.421875,0 -0.679688,-0.22265621 -0.679688,-0.58593751 0,-0.375 0.1875,-0.5507812 0.714844,-0.65625 l 0.421875,-0.082031 c 0.339844,-0.058594 0.386719,-0.082031 0.539062,-0.1523438 z m 6.322266,-1.3359375 c -0.01172,-1.0195313 -0.808594,-1.640625 -2.097656,-1.640625 -1.230469,0 -1.992188,0.6210937 -1.992188,1.6171875 0,0.3164062 0.09375,0.5976562 0.269531,0.7851562 0.164063,0.1757813 0.316407,0.2460938 0.785157,0.3984375 l 1.5,0.46875 c 0.316406,0.1054688 0.421875,0.1992188 0.421875,0.3984375 0,0.29296876 -0.351563,0.46875001 -0.9375,0.46875001 -0.316407,0 -0.585938,-0.0585938 -0.738282,-0.1640625 -0.140625,-0.10546871 -0.1875,-0.19921871 -0.246093,-0.45703121 h -1.230469 c 0.03516,1.05468746 0.820312,1.61718746 2.285156,1.61718746 0.679688,0 1.183594,-0.15234375 1.546875,-0.43359375 0.351563,-0.29296875 0.574219,-0.73828125 0.574219,-1.20703121 0,-0.6328125 -0.316406,-1.03125 -0.949219,-1.21875 l -1.59375,-0.4570313 c -0.351562,-0.1171875 -0.433594,-0.1875 -0.433594,-0.3867187 0,-0.2695313 0.28125,-0.4453125 0.726563,-0.4453125 0.597656,0 0.890625,0.2226562 0.902344,0.65625 z m 0,0"
       style="fill:#000000;fill-opacity:1;fill-rule:nonzero;stroke:none"
       aria-label="Texas"
       transform="matrix(1.3333333,0,0,1.3333333,294.608,90.042667)" />
    <path
       id="path10"
       d="m 6.3507656,-3.4558437 h -2.71875 v 0.7382812 h 1.9921875 v 0.1875 c 0,1.1601563 -0.8671875,2.00390625 -2.0625,2.00390625 -0.65625,0 -1.2539062,-0.24609375 -1.640625,-0.66796875 -0.4335937,-0.46875 -0.6914062,-1.2421875 -0.6914062,-2.0507812 0,-1.6054688 0.9140625,-2.6601563 2.296875,-2.6601563 0.9960937,0 1.7109375,0.5039063 1.8867187,1.3476563 H 6.2687344 C 6.0343594,-5.881625 5.0265469,-6.6433437 3.5265469,-6.6433437 c -0.796875,0 -1.4414063,0.2109375 -1.9453125,0.6328125 -0.76171877,0.6210937 -1.18359377,1.640625 -1.18359377,2.8125 0,2.0039062 1.21874997,3.4101562 2.98828127,3.4101562 0.890625,0 1.59375,-0.33984375 2.2382812,-1.04296875 l 0.1992188,0.8671875 h 0.5273437 z m 5.4169924,3.02343745 c -0.08203,0.0117188 -0.117188,0.0117188 -0.152344,0.0117188 -0.269531,0 -0.410156,-0.12890625 -0.410156,-0.36328125 v -2.765625 c 0,-0.8320313 -0.609375,-1.2773438 -1.7695314,-1.2773438 -0.6796875,0 -1.2421875,0.1875 -1.5585938,0.5390625 C 7.6661953,-4.0417812 7.5724453,-3.77225 7.5607266,-3.3035 h 0.75 c 0.058594,-0.5742187 0.3984375,-0.8320312 1.1015625,-0.8320312 0.6679689,0 1.0546879,0.2460937 1.0546879,0.6914062 v 0.1992188 c 0,0.3164062 -0.1875,0.4453125 -0.7851567,0.515625 -1.0546875,0.140625 -1.21875,0.1757812 -1.5,0.2929687 -0.5507812,0.2226563 -0.8320312,0.6445313 -0.8320312,1.2539063 0,0.8554687 0.5976562,1.3945312 1.546875,1.3945312 0.5859375,0 1.0664062,-0.2109375 1.5937499,-0.69140625 0.04687,0.46875 0.28125,0.69140625 0.773438,0.69140625 0.152343,0 0.269531,-0.0234375 0.503906,-0.0820313 z M 10.466977,-1.475375 c 0,0.2460938 -0.08203,0.3984375 -0.304688,0.609375 -0.3046874,0.28125 -0.6679687,0.421875 -1.1132812,0.421875 -0.5742187,0 -0.9140625,-0.28125 -0.9140625,-0.7617187 0,-0.4921875 0.328125,-0.7382813 1.125,-0.8554688 0.7851567,-0.1054687 0.9492187,-0.140625 1.2070317,-0.2578125 z m 5.419921,-1.9101562 c -0.01172,-0.9257813 -0.621093,-1.4414063 -1.699218,-1.4414063 -1.101563,0 -1.804688,0.5625 -1.804688,1.4296875 0,0.7382813 0.375,1.0898438 1.488281,1.359375 l 0.703125,0.1640625 c 0.515625,0.1289063 0.726563,0.3164063 0.726563,0.65625 0,0.43359375 -0.445313,0.73828125 -1.101563,0.73828125 -0.398437,0 -0.738281,-0.1171875 -0.925781,-0.31640625 -0.117187,-0.140625 -0.175781,-0.2695312 -0.222656,-0.5976562 h -0.785156 c 0.03516,1.07812495 0.644531,1.6054687 1.875,1.6054687 1.183593,0 1.933593,-0.5859375 1.933593,-1.4882812 0,-0.703125 -0.398437,-1.0898438 -1.324218,-1.3125 l -0.714844,-0.1757813 c -0.609375,-0.140625 -0.867188,-0.3398437 -0.867188,-0.6679687 0,-0.4335938 0.375,-0.703125 0.984375,-0.703125 0.609375,0 0.925782,0.2578125 0.949219,0.75 z m 7.833985,0.9960937 h -1.863281 v -1.8632812 h -0.621094 v 1.8632812 h -1.863281 v 0.6210938 h 1.863281 v 1.8632812 h 0.621094 v -1.8632812 h 1.863281 z m 9.603515,2.390625 1.664063,-6.5390625 h -0.9375 L 32.855648,-1.2292812 31.367367,-6.537875 H 30.465023 L 29.011898,-1.2292812 27.78143,-6.537875 h -0.925782 l 1.675782,6.5390625 h 0.914062 L 30.910336,-5.366 l 1.5,5.3671875 z m 3.143555,-4.6992187 h -0.75 v 4.6992187 h 0.75 z m 0,-1.8398438 h -0.761719 v 0.9492188 h 0.761719 z m 1.277344,1.8398438 v 4.6992187 h 0.75 v -2.5898437 c 0,-0.9609375 0.503906,-1.5820313 1.265625,-1.5820313 0.597656,0 0.972656,0.3515625 0.972656,0.9140625 v 3.2578125 h 0.75 v -3.5507812 c 0,-0.7734375 -0.585937,-1.2773438 -1.488281,-1.2773438 -0.703125,0 -1.148438,0.2695313 -1.570313,0.9140625 v -0.7851562 z m 8.791992,-1.8398438 h -0.75 v 2.4375 c -0.316406,-0.4804687 -0.808594,-0.7265625 -1.441406,-0.7265625 -1.21875,0 -2.015625,0.9726563 -2.015625,2.4726563 0,1.5820312 0.773437,2.5664062 2.039062,2.5664062 0.644532,0 1.101563,-0.24609375 1.5,-0.83203125 V 0.0011875 h 0.667969 z m -2.0625,2.4023438 c 0.808594,0 1.3125,0.7265625 1.3125,1.8398437 0,1.0898438 -0.515625,1.8046875 -1.3125,1.8046875 -0.820312,0 -1.371094,-0.7265625 -1.371094,-1.8164062 0,-1.1015625 0.550782,-1.828125 1.371094,-1.828125 z m 0,0"
       style="fill:#000000;fill-opacity:1;fill-rule:nonzero;stroke:none"
       aria-label="Gas+Wind"
       transform="matrix(1.3333333,0,0,1.3333333,279.712,104.65467)" />
    <path
       id="path11"
       d="M 1.9814063,-2.91875 H 2.415 c 0.8671875,0 1.3125,0.3867188 1.3125,1.1484375 0,0.796875 -0.4921875,1.27734375 -1.3125,1.27734375 -0.8671875,0 -1.2890625,-0.43359375 -1.3359375,-1.35937495 h -0.796875 c 0.046875,0.515625 0.12890625,0.84375 0.28125,1.1367187 0.328125,0.609375 0.9492188,0.92578125 1.8164063,0.92578125 1.3125,0 2.15625,-0.78515625 2.15625,-1.98046875 0,-0.8085937 -0.3164063,-1.265625 -1.078125,-1.5234375 0.5976562,-0.234375 0.890625,-0.6796875 0.890625,-1.3125 0,-1.1015625 -0.7265625,-1.7460937 -1.9335938,-1.7460937 -1.2890625,0 -1.96875,0.6914062 -1.9921875,2.0507812 h 0.7851563 c 0.011719,-0.3867187 0.046875,-0.5976562 0.1523437,-0.796875 0.1757813,-0.3515625 0.5625,-0.5625 1.0664063,-0.5625 0.6914062,0 1.1132812,0.4101563 1.1132812,1.078125 0,0.4453125 -0.1640625,0.7148438 -0.5039062,0.8671875 -0.2226563,0.082031 -0.5039063,0.1171875 -1.0546875,0.1289063 z m 7.2685546,-3.4335937 h -3.28125 l -0.46875,3.4570312 h 0.7265625 c 0.3632813,-0.4453125 0.6679688,-0.5976562 1.1601563,-0.5976562 0.8554687,0 1.3945312,0.5859375 1.3945312,1.5234375 0,0.9140625 -0.5390625,1.47656245 -1.3945312,1.47656245 -0.6914063,0 -1.1132813,-0.3515625 -1.3007813,-1.06640625 H 5.3007422 c 0.1054687,0.515625 0.1992187,0.7734375 0.3867187,1.0078125 0.3515625,0.48046875 0.9960938,0.76171875 1.7226563,0.76171875 1.2773437,0 2.1679687,-0.9375 2.1679687,-2.28515625 0,-1.2539062 -0.8320312,-2.109375 -2.0507812,-2.109375 -0.4453125,0 -0.8085938,0.1171875 -1.171875,0.3867188 l 0.2460937,-1.78125 h 2.6484375 z m 3.1816411,0 c -0.585938,0 -1.125,0.2578125 -1.453125,0.6914062 -0.421875,0.5625 -0.621094,1.40625 -0.621094,2.5898438 0,2.13281245 0.714844,3.28124995 2.074219,3.28124995 1.347656,0 2.085937,-1.1484375 2.085937,-3.23437495 0,-1.2304688 -0.199219,-2.0625 -0.621094,-2.6367188 C 13.56832,-6.10625 13.040977,-6.3523437 12.431602,-6.3523437 Z m 0,0.6914062 c 0.855468,0 1.277343,0.8671875 1.277343,2.5664063 0,1.8046875 -0.410156,2.64843745 -1.289062,2.64843745 -0.832031,0 -1.253906,-0.87890625 -1.253906,-2.62499995 0,-1.734375 0.421875,-2.5898438 1.265625,-2.5898438 z M 18.648398,-4.7 v 0.6796875 c -0.375,-0.5507812 -0.832031,-0.8085937 -1.429687,-0.8085937 -1.195313,0 -2.003906,1.03125 -2.003906,2.5546875 0,0.7734375 0.210937,1.40624995 0.597656,1.85156245 0.351562,0.3984375 0.84375,0.6328125 1.335937,0.6328125 0.597657,0 1.007813,-0.2578125 1.429688,-0.84375 v 0.234375 c 0,0.64453125 -0.08203,1.03125 -0.269531,1.2890625 -0.199219,0.26953125 -0.585938,0.43359375 -1.042969,0.43359375 -0.339844,0 -0.644531,-0.082031 -0.84375,-0.2460937 C 16.246055,0.93671875 16.175742,0.81953125 16.128867,0.53828125 h -0.761719 c 0.08203,0.89062505 0.773438,1.41796875 1.875,1.41796875 0.703125,0 1.300782,-0.2226562 1.605469,-0.5976562 C 19.210898,0.925 19.339805,0.32734375 19.339805,-0.77421875 V -4.7 Z m -1.347656,0.5625 c 0.808594,0 1.277344,0.6796875 1.277344,1.8515625 0,1.125 -0.480469,1.8046875 -1.277344,1.8046875 -0.808594,0 -1.300781,-0.6914062 -1.300781,-1.828125 0,-1.1367187 0.503906,-1.828125 1.300781,-1.828125 z m 0,0"
       style="fill:#000000;fill-opacity:1;fill-rule:nonzero;stroke:none"
       aria-label="350g"
       transform="matrix(1.3333333,0,0,1.3333333,270.28,119.26667)" />
    <path
       id="path12"
       d="m 6.9370547,-6.0828125 c 0.023437,-0.1054687 0.023437,-0.1171875 0.023437,-0.140625 0,-0.011719 0,-0.09375 -0.1054688,-0.09375 -0.046875,0 -0.082031,0.023437 -0.140625,0.09375 l -0.5507812,0.5976563 c -0.035156,0.046875 -0.070312,0.082031 -0.082031,0.082031 0,0 -0.011719,-0.011719 -0.070312,-0.070312 -0.1289062,-0.1757812 -0.5390625,-0.703125 -1.4648437,-0.703125 -2.0507813,0 -4.08984376,1.9921875 -4.08984376,4.03125 0,1.46484375 1.06640626,2.484375 2.50781246,2.484375 0.9375,0 1.6757813,-0.48046875 2.015625,-0.796875 0.8203122,-0.7265628 0.972656,-1.5234378 0.972656,-1.558594 0,-0.035156 -0.023437,-0.09375 -0.1289063,-0.09375 -0.09375,0 -0.1171875,0.058594 -0.1171875,0.09375 -0.4453125,1.4414062 -1.7226562,2.0742187 -2.625,2.0742187 -0.8671875,0 -1.7929687,-0.52734375 -1.7929687,-1.8867187 0,-0.3984375 0.140625,-1.8164063 1.0429687,-2.9179688 0.5390625,-0.6445312 1.4179688,-1.1601562 2.2734375,-1.1601562 0.9960938,0 1.5234375,0.7617187 1.5234375,1.7578125 0,0.3046875 -0.023437,0.3632812 -0.023437,0.4335937 0,0.09375 0.1054688,0.09375 0.1289063,0.09375 0.1171875,0 0.1171875,-0.011719 0.1640625,-0.1875 z m 7.0751953,2.203125 c 0,-1.4179687 -0.949219,-2.4375 -2.355469,-2.4375 -2.0156247,0 -3.9960935,2.0625 -3.9960935,4.1015625 0,1.4765625 1.0195313,2.4140625 2.3671875,2.4140625 2.003906,0 3.984375,-2.0039062 3.984375,-4.078125 z m -3.914062,3.80859375 c -0.867188,0 -1.570313,-0.65625 -1.570313,-1.92187495 0,-0.46875 0.1523438,-1.7929688 0.890625,-2.8125 0.644531,-0.8789063 1.511719,-1.265625 2.167969,-1.265625 0.878906,0 1.605469,0.6328125 1.605469,1.8515625 0,0.5742187 -0.234375,1.8867187 -0.984375,2.90625 -0.667969,0.89062495 -1.5,1.24218745 -2.109375,1.24218745 z m 0,0"
       style="fill:#000000;fill-opacity:1;fill-rule:nonzero;stroke:none"
       aria-label="CO"
       transform="matrix(1.3333333,0,0,1.3333333,300.192,119.26667)" />
    <path
       id="path13"
       d="M 3.2119844,-1.1139687 H 3.0010469 c -0.023437,0.082031 -0.082031,0.46874995 -0.1640625,0.53906245 C 2.7901094,-0.53975 2.3096406,-0.53975 2.2276094,-0.53975 h -1.125 l 0.7734375,-0.6210937 c 0.1992187,-0.1640625 0.7265625,-0.5390625 0.9140625,-0.7265625 0.1757812,-0.1757813 0.421875,-0.4804688 0.421875,-0.9023438 0,-0.75 -0.6679688,-1.1835937 -1.4765625,-1.1835937 -0.76171878,0 -1.30078128,0.5039062 -1.30078128,1.0664062 0,0.3046875 0.2578125,0.3398438 0.31640625,0.3398438 0.15234375,0 0.32812503,-0.1054688 0.32812503,-0.3164063 0,-0.140625 -0.0820313,-0.328125 -0.33984378,-0.328125 0.12890625,-0.3046875 0.50390628,-0.5273437 0.91406248,-0.5273437 0.6210938,0 0.9609375,0.46875 0.9609375,0.9492187 0,0.421875 -0.28125,0.8554688 -0.703125,1.2421875 l -1.41796873,1.30078125 c -0.0585938,0.0585938 -0.0585938,0.0585938 -0.0585938,0.24609375 H 3.0362031 Z m 0,0"
       style="fill:#000000;fill-opacity:1;fill-rule:nonzero;stroke:none"
       aria-label="2"
       transform="matrix(1.3333333,0,0,1.3333333,319.16267,120.59467)" />
    <path
       id="path14"
       d="M 2.0521953,-6.5398437 -0.06889844,0.175 h 0.4921875 L 2.5443828,-6.5398437 Z m 1.7050781,0 h -0.75 v 6.53906245 h 0.75 V -1.8289062 L 4.4838359,-2.54375 6.0658672,-7.8125e-4 H 6.9916484 L 5.0697734,-3.0710937 6.7103984,-4.7 H 5.7494609 l -1.9921875,1.9921875 z m 9.8876956,6.53906245 1.664062,-6.53906245 h -0.9375 L 13.176219,-1.23125 11.687938,-6.5398437 H 10.785594 L 9.3324688,-1.23125 8.102,-6.5398437 H 7.1762188 L 8.852,-7.8125e-4 h 0.9140625 l 1.4648435,-5.36718745 1.5,5.36718745 z M 16.07368,-6.5398437 v 6.53906245 h 0.738281 V -2.590625 c 0,-0.9609375 0.503906,-1.5820312 1.277344,-1.5820312 0.234375,0 0.480468,0.070312 0.65625,0.2109375 0.222656,0.1523437 0.304687,0.375 0.304687,0.703125 v 3.25781245 h 0.75 V -3.5515625 c 0,-0.7851562 -0.5625,-1.2773437 -1.476562,-1.2773437 -0.667969,0 -1.066407,0.1992187 -1.511719,0.7734375 v -2.484375 z m 0,0"
       style="fill:#000000;fill-opacity:1;fill-rule:nonzero;stroke:none"
       aria-label="/kWh"
       transform="matrix(1.3333333,0,0,1.3333333,324.69733,119.26667)" />
    <path
       id="path15"
       d="m 261.70988,21.2601 h -66.88192 c -1.10048,0 -1.99256,-0.89209 -1.99256,-1.99255 v -38.5351 c 0,-1.10046 0.89208,-1.99255 1.99256,-1.99255 h 66.88192 c 1.10047,0 1.99256,0.89209 1.99256,1.99255 v 38.5351 c 0,1.10046 -0.89209,1.99255 -1.99256,1.99255 z"
       style="fill:#ffc8c8;fill-opacity:1;fill-rule:nonzero;stroke:#000000;stroke-width:0.74721;stroke-linecap:butt;stroke-linejoin:miter;stroke-miterlimit:10;stroke-dasharray:none;stroke-opacity:1"
       transform="matrix(1.3333333,0,0,-1.3333333,158.928,101.75333)" />
    <path
       id="path16"
       d="m 2.0276563,-2.3318047 h 1.6757812 c 1.1953125,0 1.96875,-0.8554687 1.96875,-2.1796875 0,-1.3007812 -0.7382812,-2.0273437 -2.109375,-2.0273437 H 0.68 V 2.265625e-4 h 1.3476563 z m 0,-1.125 v -1.9570312 h 1.2539062 c 0.7148438,0 1.0429688,0.3164062 1.0429688,0.984375 0,0.6679687 -0.328125,0.9726562 -1.0429688,0.9726562 z m 6.290039,-1.4648437 c -1.4765625,0 -2.3789062,0.9726562 -2.3789062,2.5664062 0,1.59375001 0.9023437,2.56640626 2.390625,2.56640626 1.4648437,0 2.3906249,-0.984375 2.3906249,-2.53124996 0,-1.640625 -0.8789062,-2.6015625 -2.4023437,-2.6015625 z m 0.011719,1.0078125 c 0.6914062,0 1.1367187,0.6210937 1.1367187,1.5703125 0,0.9140625 -0.46875,1.53515621 -1.1367187,1.53515621 -0.6796875,0 -1.1367188,-0.62109371 -1.1367188,-1.54687501 0,-0.9257812 0.4570313,-1.5585937 1.1367188,-1.5585937 z m 4.6230467,-2.625 H 11.698555 V 2.265625e-4 h 1.253906 z m 5.34082,6.38671871 c -0.222656,-0.2109375 -0.292968,-0.33984375 -0.292968,-0.5859375 V -3.4333672 c 0,-0.984375 -0.667969,-1.4882812 -1.980469,-1.4882812 -1.300781,0 -1.992188,0.5507812 -2.0625,1.6757812 h 1.207031 c 0.05859,-0.5039062 0.269531,-0.6679687 0.890625,-0.6679687 0.480469,0 0.726563,0.1640625 0.726563,0.4921875 0,0.1640625 -0.08203,0.3046875 -0.222657,0.375 -0.164062,0.09375 -0.164062,0.09375 -0.785156,0.1875 l -0.503906,0.09375 c -0.960938,0.1523437 -1.429688,0.6445312 -1.429688,1.5234375 0,0.41015621 0.117188,0.74999996 0.339844,0.99609371 0.28125,0.28125 0.703125,0.45703125 1.136719,0.45703125 0.539062,0 1.03125,-0.234375 1.464844,-0.69140625 0,0.24609375 0.03516,0.33984375 0.152343,0.4804687525 h 1.359375 z M 16.781563,-1.9450859 c 0,0.7265625 -0.363282,1.13671871 -0.996094,1.13671871 -0.421875,0 -0.679688,-0.22265621 -0.679688,-0.58593751 0,-0.375 0.1875,-0.5507812 0.714844,-0.65625 l 0.421875,-0.082031 c 0.339844,-0.058594 0.386719,-0.082031 0.539063,-0.1523438 z m 2.358398,-2.8945313 V 2.265625e-4 h 1.253906 V -2.9060234 c 0,-0.5742188 0.410156,-0.9492188 1.019531,-0.9492188 0.539063,0 0.808594,0.2929688 0.808594,0.8671875 V 2.265625e-4 h 1.253906 V -3.2458672 c 0,-1.0664062 -0.597656,-1.6757812 -1.628906,-1.6757812 -0.65625,0 -1.089844,0.2460937 -1.453125,0.7851562 v -0.703125 z m 8.548828,4.8398437625 h 1.253906 V -6.5388359 h -1.253906 v 2.3203125 c -0.316406,-0.4804688 -0.738281,-0.703125 -1.335937,-0.703125 -1.160157,0 -2.039063,1.1132812 -2.039063,2.578125 0,0.6445312 0.199219,1.3125 0.527344,1.78124996 0.328125,0.46875 0.914062,0.7734375 1.511719,0.7734375 0.597656,0 1.019531,-0.234375 1.335937,-0.703125 z M 26.634102,-3.8669609 c 0.632812,0 1.054687,0.609375 1.054687,1.5351562 0,0.8789063 -0.433594,1.48828126 -1.054687,1.48828126 -0.632813,0 -1.066407,-0.62109376 -1.066407,-1.49999996 0,-0.9023438 0.433594,-1.5234375 1.066407,-1.5234375 z m 0,0"
       style="fill:#000000;fill-opacity:1;fill-rule:nonzero;stroke:none"
       aria-label="Poland"
       transform="matrix(1.3333333,0,0,1.3333333,443.59333,90.042667)" />
    <path
       id="path17"
       d="m 5.9288281,-4.5105312 c -0.2578125,-1.4296875 -1.078125,-2.1328125 -2.5195312,-2.1328125 -0.8789063,0 -1.5820313,0.28125 -2.0625,0.8203125 -0.59765627,0.6445312 -0.91406252,1.5703125 -0.91406252,2.6367187 0,1.0664063 0.328125,1.9921875 0.94921872,2.63671875 0.5039063,0.515625 1.1484375,0.76171875 1.9921875,0.76171875 1.6054688,0 2.4960938,-0.8671875 2.6953125,-2.5898437 H 5.2022656 c -0.070312,0.4453125 -0.1523437,0.75 -0.2929687,1.0078125 -0.2695313,0.53906245 -0.8203125,0.84374995 -1.5234375,0.84374995 -1.3007813,0 -2.1210938,-1.04296875 -2.1210938,-2.67187495 0,-1.6757813 0.7851563,-2.7070313 2.0507813,-2.7070313 0.5273437,0 1.0195312,0.1640625 1.2890625,0.4101563 0.2460937,0.2226562 0.375,0.5039062 0.4804687,0.984375 z M 8.91125,-4.8269375 c -1.3125,0 -2.109375,0.9375 -2.109375,2.5195313 0,1.57031245 0.7851563,2.5195312 2.1210938,2.5195312 1.3125002,0 2.1210942,-0.94921875 2.1210942,-2.484375 0,-1.6289062 -0.773438,-2.5546875 -2.132813,-2.5546875 z m 0.011719,0.6914063 c 0.84375,0 1.347656,0.6796875 1.347656,1.8515625 0,1.1015625 -0.5273435,1.80468745 -1.347656,1.80468745 -0.8320313,0 -1.3476563,-0.69140625 -1.3476563,-1.82812495 0,-1.1367188 0.515625,-1.828125 1.3476563,-1.828125 z m 7.330078,3.70312495 c -0.08203,0.0117188 -0.117188,0.0117188 -0.152344,0.0117188 -0.269531,0 -0.410156,-0.12890625 -0.410156,-0.36328125 v -2.765625 c 0,-0.8320313 -0.609375,-1.2773438 -1.769531,-1.2773438 -0.679688,0 -1.242188,0.1875 -1.558594,0.5390625 -0.210938,0.2460938 -0.304688,0.515625 -0.316406,0.984375 h 0.75 c 0.05859,-0.5742187 0.398437,-0.8320312 1.101562,-0.8320312 0.667969,0 1.054688,0.2460937 1.054688,0.6914062 v 0.1992188 c 0,0.3164062 -0.1875,0.4453125 -0.785157,0.515625 -1.054687,0.140625 -1.21875,0.1757812 -1.5,0.2929687 -0.550781,0.2226563 -0.832031,0.6445313 -0.832031,1.2539063 0,0.8554687 0.597656,1.3945312 1.546875,1.3945312 0.585938,0 1.066406,-0.2109375 1.59375,-0.69140625 0.04687,0.46875 0.28125,0.69140625 0.773438,0.69140625 0.152343,0 0.269531,-0.0234375 0.503906,-0.0820313 z M 14.952266,-1.475375 c 0,0.2460938 -0.08203,0.3984375 -0.304688,0.609375 -0.304687,0.28125 -0.667969,0.421875 -1.113281,0.421875 -0.574219,0 -0.914063,-0.28125 -0.914063,-0.7617187 0,-0.4921875 0.328125,-0.7382813 1.125,-0.8554688 0.785157,-0.1054687 0.949219,-0.140625 1.207032,-0.2578125 z m 2.850586,-5.0625 h -0.75 v 6.5390625 h 0.75 z m 0,0"
       style="fill:#000000;fill-opacity:1;fill-rule:nonzero;stroke:none"
       aria-label="Coal"
       transform="matrix(1.3333333,0,0,1.3333333,450.99333,104.65467)" />
    <path
       id="path18"
       d="m 3.5036797,-3.340625 c 0.65625,-0.3984375 0.8671875,-0.7265625 0.8671875,-1.3242187 0,-0.9960938 -0.7734375,-1.6875 -1.9101563,-1.6875 -1.1132812,0 -1.91015621,0.6914062 -1.91015621,1.6875 0,0.5976562 0.22265625,0.9140625 0.86718751,1.3242187 -0.72656251,0.3398438 -1.08984376,0.8789063 -1.08984376,1.5703125 0,1.171875 0.87890626,1.98046875 2.13281246,1.98046875 1.2539063,0 2.1328125,-0.80859375 2.1328125,-1.96874995 0,-0.703125 -0.3515625,-1.2421875 -1.0898437,-1.5820313 z M 2.4607109,-5.6609375 c 0.6796875,0 1.1015625,0.3984375 1.1015625,1.0195313 0,0.5859375 -0.4335937,0.984375 -1.1015625,0.984375 -0.65625,0 -1.1015625,-0.3984375 -1.1015625,-0.9960938 0,-0.609375 0.4453125,-1.0078125 1.1015625,-1.0078125 z m 0,2.6601563 c 0.796875,0 1.3359375,0.5039062 1.3359375,1.2539062 0,0.75 -0.5390625,1.25390625 -1.3476562,1.25390625 -0.7734375,0 -1.3125,-0.51562495 -1.3125,-1.25390625 0,-0.75 0.5390625,-1.2539062 1.3242187,-1.2539062 z m 4.9863282,-3.3515625 c -0.5859375,0 -1.125,0.2578125 -1.453125,0.6914062 -0.421875,0.5625 -0.6210938,1.40625 -0.6210938,2.5898438 0,2.13281245 0.7148438,3.28124995 2.0742188,3.28124995 1.3476562,0 2.0859375,-1.1484375 2.0859375,-3.23437495 0,-1.2304688 -0.1992188,-2.0625 -0.6210938,-2.6367188 C 8.5837578,-6.10625 8.0564141,-6.3523437 7.4470391,-6.3523437 Z m 0,0.6914062 c 0.8554687,0 1.2773437,0.8671875 1.2773437,2.5664063 0,1.8046875 -0.4101562,2.64843745 -1.2890625,2.64843745 -0.8320312,0 -1.2539062,-0.87890625 -1.2539062,-2.62499995 0,-1.734375 0.421875,-2.5898438 1.265625,-2.5898438 z m 4.9833989,-0.6914062 c -0.585938,0 -1.125,0.2578125 -1.453125,0.6914062 -0.421875,0.5625 -0.621094,1.40625 -0.621094,2.5898438 0,2.13281245 0.714844,3.28124995 2.074219,3.28124995 1.347656,0 2.085937,-1.1484375 2.085937,-3.23437495 0,-1.2304688 -0.199219,-2.0625 -0.621094,-2.6367188 -0.328125,-0.4453125 -0.855468,-0.6914062 -1.464843,-0.6914062 z m 0,0.6914062 c 0.855468,0 1.277343,0.8671875 1.277343,2.5664063 0,1.8046875 -0.410156,2.64843745 -1.289062,2.64843745 -0.832031,0 -1.253906,-0.87890625 -1.253906,-2.62499995 0,-1.734375 0.421875,-2.5898438 1.265625,-2.5898438 z M 18.647234,-4.7 v 0.6796875 c -0.375,-0.5507812 -0.832031,-0.8085937 -1.429687,-0.8085937 -1.195313,0 -2.003906,1.03125 -2.003906,2.5546875 0,0.7734375 0.210937,1.40624995 0.597656,1.85156245 0.351562,0.3984375 0.84375,0.6328125 1.335937,0.6328125 0.597657,0 1.007813,-0.2578125 1.429688,-0.84375 v 0.234375 c 0,0.64453125 -0.08203,1.03125 -0.269531,1.2890625 -0.199219,0.26953125 -0.585938,0.43359375 -1.042969,0.43359375 -0.339844,0 -0.644531,-0.082031 -0.84375,-0.2460937 C 16.244891,0.93671875 16.174578,0.81953125 16.127703,0.53828125 h -0.761719 c 0.08203,0.89062505 0.773438,1.41796875 1.875,1.41796875 0.703125,0 1.300782,-0.2226562 1.605469,-0.5976562 C 19.209734,0.925 19.338641,0.32734375 19.338641,-0.77421875 V -4.7 Z m -1.347656,0.5625 c 0.808594,0 1.277344,0.6796875 1.277344,1.8515625 0,1.125 -0.480469,1.8046875 -1.277344,1.8046875 -0.808594,0 -1.300781,-0.6914062 -1.300781,-1.828125 0,-1.1367187 0.503906,-1.828125 1.300781,-1.828125 z m 0,0"
       style="fill:#000000;fill-opacity:1;fill-rule:nonzero;stroke:none"
       aria-label="800g"
       transform="matrix(1.3333333,0,0,1.3333333,422.45733,119.26667)" />
    <path
       id="path19"
       d="m 6.9388203,-6.0828125 c 0.023437,-0.1054687 0.023437,-0.1171875 0.023437,-0.140625 0,-0.011719 0,-0.09375 -0.1054687,-0.09375 -0.046875,0 -0.082031,0.023437 -0.140625,0.09375 l -0.5507813,0.5976563 c -0.035156,0.046875 -0.070312,0.082031 -0.082031,0.082031 0,0 -0.011719,-0.011719 -0.070312,-0.070312 -0.1289063,-0.1757812 -0.5390625,-0.703125 -1.4648438,-0.703125 -2.0507812,0 -4.08984374,1.9921875 -4.08984374,4.03125 0,1.46484375 1.06640624,2.484375 2.50781254,2.484375 0.9375,0 1.6757812,-0.48046875 2.015625,-0.796875 0.8203123,-0.7265628 0.972656,-1.5234378 0.972656,-1.558594 0,-0.035156 -0.023437,-0.09375 -0.1289062,-0.09375 -0.09375,0 -0.1171875,0.058594 -0.1171875,0.09375 -0.4453125,1.4414062 -1.7226563,2.0742187 -2.625,2.0742187 -0.8671875,0 -1.7929688,-0.52734375 -1.7929688,-1.8867187 0,-0.3984375 0.140625,-1.8164063 1.0429688,-2.9179688 0.5390625,-0.6445312 1.4179687,-1.1601562 2.2734375,-1.1601562 0.9960937,0 1.5234375,0.7617187 1.5234375,1.7578125 0,0.3046875 -0.023437,0.3632812 -0.023437,0.4335937 0,0.09375 0.1054687,0.09375 0.1289062,0.09375 0.1171875,0 0.1171875,-0.011719 0.1640625,-0.1875 z m 7.0722657,2.203125 c 0,-1.4179687 -0.949219,-2.4375 -2.355469,-2.4375 -2.0156248,0 -3.9960936,2.0625 -3.9960936,4.1015625 0,1.4765625 1.0195313,2.4140625 2.3671876,2.4140625 2.003906,0 3.984375,-2.0039062 3.984375,-4.078125 z m -3.914063,3.80859375 c -0.8671871,0 -1.5703121,-0.65625 -1.5703121,-1.92187495 0,-0.46875 0.1523438,-1.7929688 0.890625,-2.8125 0.6445311,-0.8789063 1.5117191,-1.265625 2.1679691,-1.265625 0.878906,0 1.605468,0.6328125 1.605468,1.8515625 0,0.5742187 -0.234375,1.8867187 -0.984375,2.90625 -0.667968,0.89062495 -1.5,1.24218745 -2.109375,1.24218745 z m 0,0"
       style="fill:#000000;fill-opacity:1;fill-rule:nonzero;stroke:none"
       aria-label="CO"
       transform="matrix(1.3333333,0,0,1.3333333,452.36933,119.26667)" />
    <path
       id="path20"
       d="M 3.2108203,-1.1139687 H 2.9998828 c -0.023437,0.082031 -0.082031,0.46874995 -0.1640625,0.53906245 C 2.7889453,-0.53975 2.3084766,-0.53975 2.2264453,-0.53975 h -1.125 l 0.7734375,-0.6210937 c 0.1992188,-0.1640625 0.7265625,-0.5390625 0.9140625,-0.7265625 0.1757813,-0.1757813 0.421875,-0.4804688 0.421875,-0.9023438 0,-0.75 -0.6679687,-1.1835937 -1.4765625,-1.1835937 -0.76171874,0 -1.30078124,0.5039062 -1.30078124,1.0664062 0,0.3046875 0.2578125,0.3398438 0.31640625,0.3398438 0.15234375,0 0.32812499,-0.1054688 0.32812499,-0.3164063 0,-0.140625 -0.0820312,-0.328125 -0.33984374,-0.328125 0.12890625,-0.3046875 0.50390624,-0.5273437 0.91406254,-0.5273437 0.6210937,0 0.9609375,0.46875 0.9609375,0.9492187 0,0.421875 -0.28125,0.8554688 -0.703125,1.2421875 l -1.41796879,1.30078125 c -0.0585938,0.0585938 -0.0585938,0.0585938 -0.0585938,0.24609375 H 3.0350391 Z m 0,0"
       style="fill:#000000;fill-opacity:1;fill-rule:nonzero;stroke:none"
       aria-label="2"
       transform="matrix(1.3333333,0,0,1.3333333,471.34,120.59467)" />
    <path
       id="path21"
       d="M 2.0510313,-6.5398437 -0.0700625,0.175 H 0.422125 l 2.1210938,-6.7148437 z m 1.7080078,0 h -0.75 v 6.53906245 h 0.75 V -1.8289062 L 4.4856016,-2.54375 6.0676328,-7.8125e-4 H 6.9934141 L 5.0715391,-3.0710937 6.7121641,-4.7 H 5.7512266 l -1.9921875,1.9921875 z m 9.8847659,6.53906245 1.664062,-6.53906245 h -0.9375 L 13.175055,-1.23125 11.686773,-6.5398437 H 10.78443 L 9.3313047,-1.23125 8.1008359,-6.5398437 H 7.1750547 l 1.6757812,6.53906245 h 0.9140625 l 1.4648436,-5.36718745 1.5,5.36718745 z m 2.428711,-6.53906245 v 6.53906245 h 0.738281 V -2.590625 c 0,-0.9609375 0.503906,-1.5820312 1.277344,-1.5820312 0.234375,0 0.480468,0.070312 0.65625,0.2109375 0.222656,0.1523437 0.304687,0.375 0.304687,0.703125 v 3.25781245 h 0.75 V -3.5515625 c 0,-0.7851562 -0.5625,-1.2773437 -1.476562,-1.2773437 -0.667969,0 -1.066407,0.1992187 -1.511719,0.7734375 v -2.484375 z m 0,0"
       style="fill:#000000;fill-opacity:1;fill-rule:nonzero;stroke:none"
       aria-label="/kWh"
       transform="matrix(1.3333333,0,0,1.3333333,476.87467,119.26667)" />
    <g
       id="g25"
       clip-path="url(#clipPath26)">
      <path
         d="M 0,0 H 100 V 100 H 0 Z"
         transform="matrix(7.5600533,0,0,-0.378,-115.36877,187.294)"
         style="fill:url(#linearGradient25);stroke:none"
         id="path25" />
    </g>
    <path
       id="path27"
       d="M 1.5481406,-6.5380859 H 0.71610937 V 9.765625e-4 H 4.7825156 V -0.73730469 h -3.234375 z m 5.8740235,1.7109375 c -1.3125,0 -2.109375,0.9375 -2.109375,2.5195312 0,1.57031251 0.7851562,2.51953126 2.1210937,2.51953126 1.3125,0 2.1210938,-0.94921875 2.1210938,-2.48437496 0,-1.6289063 -0.7734375,-2.5546875 -2.1328125,-2.5546875 z m 0.011719,0.6914062 c 0.84375,0 1.3476563,0.6796875 1.3476563,1.8515625 0,1.1015625 -0.5273438,1.80468751 -1.3476563,1.80468751 -0.8320312,0 -1.3476562,-0.69140621 -1.3476562,-1.82812501 0,-1.1367187 0.515625,-1.828125 1.3476562,-1.828125 z M 14.804977,9.765625e-4 16.187789,-4.6982422 h -0.84375 l -0.9375,3.65625 -0.925781,-3.65625 h -0.914063 l -0.890625,3.65625 -0.960937,-3.65625 H 9.8948203 L 11.254195,9.765625e-4 h 0.84375 L 13.000289,-3.6787109 13.949508,9.765625e-4 Z M 24.721969,-4.5107422 c -0.257813,-1.4296875 -1.078125,-2.1328125 -2.519532,-2.1328125 -0.878906,0 -1.582031,0.28125 -2.0625,0.8203125 -0.597656,0.6445313 -0.914062,1.5703125 -0.914062,2.6367188 0,1.0664062 0.328125,1.9921875 0.949219,2.63671871 0.503906,0.515625 1.148437,0.76171875 1.992187,0.76171875 1.605469,0 2.496094,-0.8671875 2.695313,-2.58984376 h -0.867188 c -0.07031,0.4453125 -0.152344,0.75 -0.292969,1.0078125 -0.269531,0.53906251 -0.820312,0.84375001 -1.523437,0.84375001 -1.300781,0 -2.121094,-1.04296871 -2.121094,-2.67187501 0,-1.6757812 0.785156,-2.7070312 2.050781,-2.7070312 0.527344,0 1.019532,0.1640625 1.289063,0.4101562 0.246094,0.2226563 0.375,0.5039063 0.480469,0.984375 z m 5.33789,4.07812501 c -0.08203,0.0117188 -0.117187,0.0117188 -0.152343,0.0117188 -0.269532,0 -0.410157,-0.12890625 -0.410157,-0.36328125 V -3.5498047 c 0,-0.8320312 -0.609375,-1.2773437 -1.769531,-1.2773437 -0.679687,0 -1.242187,0.1875 -1.558594,0.5390625 -0.210937,0.2460937 -0.304687,0.515625 -0.316406,0.984375 h 0.75 c 0.05859,-0.5742188 0.398438,-0.8320313 1.101563,-0.8320313 0.667968,0 1.054687,0.2460938 1.054687,0.6914063 v 0.1992187 c 0,0.3164063 -0.1875,0.4453125 -0.785156,0.515625 -1.054688,0.140625 -1.21875,0.1757813 -1.5,0.2929688 -0.550781,0.2226562 -0.832031,0.6445312 -0.832031,1.2539062 0,0.85546876 0.597656,1.39453126 1.546875,1.39453126 0.585937,0 1.066406,-0.2109374975 1.59375,-0.69140625 0.04687,0.46875 0.28125,0.69140625 0.773437,0.69140625 0.152344,0 0.269531,-0.0234375 0.503906,-0.0820313 z M 28.759078,-1.4755859 c 0,0.2460937 -0.08203,0.3984375 -0.304687,0.60937496 -0.304688,0.28125 -0.667969,0.421875 -1.113282,0.421875 -0.574218,0 -0.914062,-0.28125 -0.914062,-0.76171876 0,-0.4921875 0.328125,-0.7382812 1.125,-0.8554687 0.785156,-0.1054688 0.949219,-0.140625 1.207031,-0.2578125 z m 2.115234,-3.2226563 V 9.765625e-4 h 0.75 V -2.4365234 c 0,-0.6679688 0.175782,-1.1132813 0.527344,-1.3710938 0.234375,-0.1757812 0.457031,-0.2226562 0.984375,-0.234375 v -0.7617187 c -0.128906,-0.023437 -0.199219,-0.023437 -0.292969,-0.023437 -0.480468,0 -0.855468,0.28125 -1.277343,0.984375 v -0.8554688 z m 2.844727,-1.8398437 V 9.765625e-4 h 0.679688 V -0.59667969 c 0.351562,0.5390625 0.832031,0.80859375 1.488281,0.80859375 1.230469,0 2.039062,-1.01953125 2.039062,-2.57812496 0,-1.5234375 -0.773437,-2.4609375 -2.003906,-2.4609375 -0.644531,0 -1.101562,0.234375 -1.453125,0.7617187 v -2.4726562 z m 2.050781,2.4023437 c 0.84375,0 1.382813,0.7265625 1.382813,1.8515625 0,1.0664063 -0.5625,1.79296876 -1.382813,1.79296876 -0.785156,0 -1.300781,-0.71484376 -1.300781,-1.81640626 0,-1.1015625 0.515625,-1.828125 1.300781,-1.828125 z m 4.892578,-0.6914062 c -1.3125,0 -2.109375,0.9375 -2.109375,2.5195312 0,1.57031251 0.785157,2.51953126 2.121094,2.51953126 1.3125,0 2.121094,-0.94921875 2.121094,-2.48437496 0,-1.6289063 -0.773438,-2.5546875 -2.132813,-2.5546875 z m 0.01172,0.6914062 c 0.84375,0 1.347656,0.6796875 1.347656,1.8515625 0,1.1015625 -0.527343,1.80468751 -1.347656,1.80468751 -0.832031,0 -1.347656,-0.69140621 -1.347656,-1.82812501 0,-1.1367187 0.515625,-1.828125 1.347656,-1.828125 z m 3.166992,-0.5625 V 9.765625e-4 h 0.75 V -2.5888672 c 0,-0.9609375 0.503907,-1.5820312 1.265625,-1.5820312 0.597657,0 0.972657,0.3515625 0.972657,0.9140625 V 9.765625e-4 h 0.75 V -3.5498047 c 0,-0.7734375 -0.585938,-1.2773437 -1.488282,-1.2773437 -0.703125,0 -1.148437,0.2695312 -1.570312,0.9140625 v -0.7851563 z m 0,0"
       style="fill:#000000;fill-opacity:1;fill-rule:nonzero;stroke:none"
       aria-label="LowCarbon"
       transform="matrix(1.3333333,0,0,1.3333333,4.428,172.66667)" />
    <path
       id="path28"
       d="m 4.9441172,-2.9777891 v 2.97656254 H 5.7761484 V -6.5402891 H 4.9441172 v 2.8242188 H 1.5808359 V -6.5402891 H 0.73708594 v 6.53906254 H 1.5808359 V -2.9777891 Z m 2.8769531,-1.7226562 h -0.75 v 4.69921874 h 0.75 z m 0,-1.8398438 H 7.0593516 v 0.9492188 h 0.7617187 z m 4.3359377,1.8398438 v 0.6796875 c -0.375,-0.5507813 -0.832031,-0.8085938 -1.429688,-0.8085938 -1.1953122,0 -2.0039059,1.03125 -2.0039059,2.5546875 0,0.7734375 0.2109375,1.40625004 0.5976562,1.85156254 0.3515625,0.3984375 0.8437497,0.6328125 1.3359377,0.6328125 0.597656,0 1.007812,-0.2578125 1.429687,-0.84375 v 0.234375 c 0,0.64453125 -0.08203,1.03125 -0.269531,1.2890625 -0.199219,0.26953126 -0.585937,0.43359376 -1.042969,0.43359376 -0.339843,0 -0.644531,-0.082031 -0.8437497,-0.2460938 C 9.7546641,0.93627344 9.6843516,0.81908594 9.6374766,0.53783594 H 8.8757578 c 0.082031,0.89062496 0.7734375,1.41796876 1.8750002,1.41796876 0.703125,0 1.300781,-0.2226563 1.605469,-0.5976563 0.363281,-0.43359371 0.492187,-1.03124996 0.492187,-2.13281246 V -4.7004453 Z m -1.347656,0.5625 c 0.808593,0 1.277343,0.6796875 1.277343,1.8515625 0,1.125 -0.480468,1.80468749 -1.277343,1.80468749 -0.808594,0 -1.3007817,-0.69140629 -1.3007817,-1.82812499 0,-1.1367188 0.5039067,-1.828125 1.3007817,-1.828125 z m 3.272461,-2.4023438 v 6.53906254 h 0.738281 V -2.5910703 c 0,-0.9609375 0.503906,-1.5820313 1.277344,-1.5820313 0.234375,0 0.480468,0.070312 0.65625,0.2109375 0.222656,0.1523438 0.304687,0.375 0.304687,0.703125 v 3.25781254 h 0.75 V -3.5520078 c 0,-0.7851563 -0.5625,-1.2773438 -1.476562,-1.2773438 -0.667969,0 -1.066407,0.1992188 -1.511719,0.7734375 v -2.484375 z m 12.776367,2.0273438 c -0.257813,-1.4296875 -1.078125,-2.1328125 -2.519532,-2.1328125 -0.878906,0 -1.582031,0.28125 -2.0625,0.8203125 -0.597656,0.6445312 -0.914062,1.5703125 -0.914062,2.6367187 0,1.0664063 0.328125,1.9921875 0.949219,2.63671879 0.503906,0.515625 1.148437,0.76171875 1.992187,0.76171875 1.605469,0 2.496094,-0.8671875 2.695313,-2.58984374 h -0.867188 c -0.07031,0.4453125 -0.152344,0.75 -0.292969,1.0078125 -0.269531,0.53906249 -0.820312,0.84374999 -1.523437,0.84374999 -1.300781,0 -2.121094,-1.04296879 -2.121094,-2.67187499 0,-1.6757813 0.785156,-2.7070313 2.050781,-2.7070313 0.527344,0 1.019532,0.1640625 1.289063,0.4101563 0.246094,0.2226562 0.375,0.5039062 0.480469,0.984375 z m 5.334961,4.07812499 c -0.08203,0.0117188 -0.117188,0.0117188 -0.152344,0.0117188 -0.269531,0 -0.410156,-0.12890625 -0.410156,-0.36328125 V -3.5520078 c 0,-0.8320313 -0.609375,-1.2773438 -1.769532,-1.2773438 -0.679687,0 -1.242187,0.1875 -1.558593,0.5390625 -0.210938,0.2460938 -0.304688,0.515625 -0.316407,0.984375 h 0.75 c 0.05859,-0.5742187 0.398438,-0.8320312 1.101563,-0.8320312 0.667969,0 1.054687,0.2460937 1.054687,0.6914062 v 0.1992188 c 0,0.3164062 -0.1875,0.4453125 -0.785156,0.515625 -1.054687,0.140625 -1.21875,0.1757812 -1.5,0.2929687 -0.550781,0.2226563 -0.832031,0.6445313 -0.832031,1.2539063 0,0.85546874 0.597656,1.39453124 1.546875,1.39453124 0.585937,0 1.066406,-0.2109375 1.59375,-0.69140625 0.04687,0.46875 0.28125,0.69140625 0.773437,0.69140625 0.152344,0 0.269532,-0.0234375 0.503907,-0.0820313 z M 30.892359,-1.4777891 c 0,0.2460938 -0.08203,0.3984375 -0.304687,0.60937504 -0.304688,0.28125 -0.667969,0.421875 -1.113281,0.421875 -0.574219,0 -0.914063,-0.28125 -0.914063,-0.76171874 0,-0.4921875 0.328125,-0.7382813 1.125,-0.8554688 0.785156,-0.1054687 0.949219,-0.140625 1.207031,-0.2578125 z m 2.115235,-3.2226562 v 4.69921874 h 0.75 V -2.4387266 c 0,-0.6679687 0.175781,-1.1132812 0.527344,-1.3710937 0.234375,-0.1757813 0.457031,-0.2226563 0.984375,-0.234375 v -0.7617188 c -0.128907,-0.023437 -0.199219,-0.023437 -0.292969,-0.023437 -0.480469,0 -0.855469,0.28125 -1.277344,0.984375 v -0.8554687 z m 2.844726,-1.8398438 v 6.53906254 h 0.679688 v -0.59765625 c 0.351562,0.5390625 0.832031,0.80859375 1.488281,0.80859375 1.230469,0 2.039063,-1.01953125 2.039063,-2.57812504 0,-1.5234375 -0.773438,-2.4609375 -2.003907,-2.4609375 -0.644531,0 -1.101562,0.234375 -1.453125,0.7617188 v -2.4726563 z m 2.050782,2.4023438 c 0.84375,0 1.382812,0.7265625 1.382812,1.8515625 0,1.0664062 -0.5625,1.79296874 -1.382812,1.79296874 -0.785157,0 -1.300782,-0.71484374 -1.300782,-1.81640624 0,-1.1015625 0.515625,-1.828125 1.300782,-1.828125 z m 4.892578,-0.6914063 c -1.3125,0 -2.109375,0.9375 -2.109375,2.5195313 0,1.57031249 0.785156,2.51953124 2.121093,2.51953124 1.3125,0 2.121094,-0.94921875 2.121094,-2.48437504 0,-1.6289062 -0.773437,-2.5546875 -2.132812,-2.5546875 z m 0.01172,0.6914063 c 0.84375,0 1.347657,0.6796875 1.347657,1.8515625 0,1.1015625 -0.527344,1.80468749 -1.347657,1.80468749 -0.832031,0 -1.347656,-0.69140629 -1.347656,-1.82812499 0,-1.1367188 0.515625,-1.828125 1.347656,-1.828125 z m 3.166993,-0.5625 v 4.69921874 h 0.75 V -2.5910703 c 0,-0.9609375 0.503906,-1.5820313 1.265625,-1.5820313 0.597656,0 0.972656,0.3515625 0.972656,0.9140625 v 3.25781254 h 0.75 V -3.5520078 c 0,-0.7734375 -0.585938,-1.2773438 -1.488281,-1.2773438 -0.703125,0 -1.148438,0.2695313 -1.570313,0.9140625 v -0.7851562 z m 0,0"
       style="fill:#000000;fill-opacity:1;fill-rule:nonzero;stroke:none"
       aria-label="HighCarbon"
       transform="matrix(1.3333333,0,0,1.3333333,456.568,171.45867)" />
    <path
       id="path29"
       d="M 6.3755078,-3.5152969 H 3.7622266 v 1.125 h 1.4882812 c -0.046875,0.3632813 -0.1289062,0.5859375 -0.328125,0.8203125 -0.328125,0.3984375 -0.8203125,0.63281253 -1.3359375,0.63281253 -1.0898437,0 -1.8632812,-0.94921873 -1.8632812,-2.29687503 0,-1.40625 0.6914062,-2.2617187 1.828125,-2.2617187 0.46875,0 0.8554687,0.140625 1.1601562,0.3984375 0.1875,0.1523437 0.28125,0.3046875 0.3984375,0.65625 h 1.265625 c -0.1640625,-1.3476563 -1.2539062,-2.203125 -2.8359375,-2.203125 -1.875,0 -3.16406249,1.3945312 -3.16406249,3.421875 0,1.9804687 1.28906249,3.43359373 3.05859379,3.43359373 0.8789062,0 1.4648437,-0.31640625 1.96875,-1.0546875 l 0.1640625,0.8671875 h 0.8085937 z m 5.2998042,1.4882813 c 0.01172,-0.1054688 0.01172,-0.1523438 0.01172,-0.2109375 0,-0.4921875 -0.07031,-0.9375 -0.1875,-1.2773438 -0.328125,-0.8789062 -1.113281,-1.40625 -2.0859373,-1.40625 -1.3828125,0 -2.2382812,1.0078125 -2.2382812,2.625 0,1.55859378 0.84375,2.50781253 2.2148437,2.50781253 1.0781248,0 1.9570308,-0.62109375 2.2382808,-1.57031253 H 10.38625 C 10.233906,-0.97232812 9.8940625,-0.74967187 9.4370312,-0.74967187 9.07375,-0.74967187 8.7925,-0.90201562 8.605,-1.1715469 8.4878125,-1.3590469 8.4409375,-1.5699844 8.4292187,-2.0270156 Z M 8.4409375,-2.8590469 c 0.082031,-0.7382812 0.3984375,-1.1015625 0.9609375,-1.1015625 0.3046875,0 0.5976562,0.1523438 0.773437,0.3984375 0.117188,0.1875 0.175782,0.375 0.199219,0.703125 z m 6.2167965,-2.0625 c -1.476562,0 -2.378906,0.9726563 -2.378906,2.5664063 0,1.59374998 0.902344,2.56640623 2.390625,2.56640623 1.464844,0 2.390625,-0.984375 2.390625,-2.53125003 0,-1.640625 -0.878906,-2.6015625 -2.402344,-2.6015625 z m 0.01172,1.0078125 c 0.691406,0 1.136719,0.6210938 1.136719,1.5703125 0,0.9140625 -0.46875,1.53515628 -1.136719,1.53515628 -0.679687,0 -1.136719,-0.62109378 -1.136719,-1.54687498 0,-0.9257813 0.457032,-1.5585938 1.136719,-1.5585938 z m 6.427734,-0.9257812 v 0.7382812 c -0.375,-0.5742187 -0.785156,-0.8203125 -1.347656,-0.8203125 -1.148437,0 -2.003906,1.125 -2.003906,2.6132813 0,1.51171873 0.785156,2.51953123 1.980469,2.51953123 0.5625,0 0.902343,-0.17578125 1.371093,-0.703125 v 0.65625 c 0,0.57421875 -0.433593,0.98437497 -1.066406,0.98437497 -0.46875,0 -0.785156,-0.19921872 -0.890625,-0.56249997 h -1.300781 c 0.01172,0.375 0.152344,0.63281247 0.480469,0.90234377 0.386718,0.3164062 0.925781,0.46875 1.664062,0.46875 1.464844,0 2.308594,-0.65625 2.308594,-1.79296877 V -4.8395156 Z m -1.078125,0.9726562 c 0.632813,0 1.101563,0.6445313 1.101563,1.546875 0,0.8789063 -0.457031,1.47656253 -1.113281,1.47656253 -0.597657,0 -1.007813,-0.59765623 -1.007813,-1.47656253 0,-0.9140625 0.410156,-1.546875 1.019531,-1.546875 z m 3.462891,-0.9726562 V 3.28125e-4 H 24.73586 V -2.5777969 c 0,-0.7265625 0.375,-1.1015625 1.101563,-1.1015625 0.140625,0 0.234375,0.011719 0.398437,0.035156 v -1.265625 c -0.07031,-0.011719 -0.117187,-0.011719 -0.152343,-0.011719 -0.574219,0 -1.078125,0.375 -1.347657,1.03125 V -4.8395156 Z M 31.105,-0.15201562 c -0.222656,-0.2109375 -0.292969,-0.33984375 -0.292969,-0.5859375 V -3.4332656 c 0,-0.984375 -0.667969,-1.4882813 -1.980469,-1.4882813 -1.300781,0 -1.992187,0.5507813 -2.0625,1.6757813 h 1.207032 c 0.05859,-0.5039063 0.269531,-0.6679688 0.890625,-0.6679688 0.480468,0 0.726562,0.1640625 0.726562,0.4921875 0,0.1640625 -0.08203,0.3046875 -0.222656,0.375 -0.164063,0.09375 -0.164063,0.09375 -0.785156,0.1875 l -0.503907,0.09375 c -0.960937,0.1523438 -1.429687,0.6445313 -1.429687,1.5234375 0,0.41015628 0.117187,0.75000003 0.339844,0.99609378 0.28125,0.28125 0.703125,0.45703125 1.136718,0.45703125 0.539063,0 1.03125,-0.234375 1.464844,-0.69140625 0,0.24609375 0.03516,0.33984375 0.152344,0.480468745 H 31.105 Z M 29.593281,-1.9449844 c 0,0.7265625 -0.363281,1.13671878 -0.996094,1.13671878 -0.421875,0 -0.679687,-0.22265628 -0.679687,-0.58593748 0,-0.375 0.1875,-0.5507813 0.714844,-0.65625 l 0.421875,-0.082031 c 0.339843,-0.058594 0.386718,-0.082031 0.539062,-0.1523437 z m 3.56836,-2.8945312 h -1.253907 v 6.796875 h 1.253907 v -2.53125002 c 0.304687,0.5390625 0.738281,0.78515625 1.347656,0.78515625 1.171875,0 2.027344,-1.08984375 2.027344,-2.55468753 0,-0.6914062 -0.199219,-1.3710937 -0.515625,-1.8164062 -0.328125,-0.4570313 -0.925782,-0.7617188 -1.511719,-0.7617188 -0.609375,0 -1.042969,0.2578125 -1.347656,0.796875 z m 1.066406,0.9726562 c 0.632812,0 1.054687,0.609375 1.054687,1.5351563 0,0.8789062 -0.433593,1.49999998 -1.054687,1.49999998 -0.632813,0 -1.066406,-0.60937498 -1.066406,-1.51171878 0,-0.9140625 0.433593,-1.5234375 1.066406,-1.5234375 z m 3.240234,-2.671875 V 3.28125e-4 h 1.253906 V -2.9059219 c 0,-0.5507812 0.410157,-0.9492187 0.972657,-0.9492187 0.269531,0 0.480468,0.09375 0.632812,0.2929687 0.105469,0.1640625 0.140625,0.2929688 0.140625,0.609375 V 3.28125e-4 h 1.253906 V -3.2457656 c 0,-0.5976563 -0.164062,-1.03125 -0.492187,-1.3125 -0.28125,-0.234375 -0.679688,-0.3632813 -1.089844,-0.3632813 -0.621094,0 -1.066406,0.2460938 -1.417969,0.7851563 v -2.4023438 z m 6.732422,1.6992188 H 42.946797 V 3.28125e-4 h 1.253906 z m 0,-1.6992188 h -1.253906 v 1.125 h 1.253906 z m 5.317383,3.5039063 c -0.08203,-1.1835938 -0.878906,-1.8867188 -2.085938,-1.8867188 -1.441406,0 -2.285156,0.9492188 -2.285156,2.6015625 0,1.59375003 0.832031,2.53125003 2.273438,2.53125003 1.171875,0 1.980468,-0.7265625 2.097656,-1.88671873 h -1.195313 c -0.164062,0.6210937 -0.410156,0.86718748 -0.902343,0.86718748 -0.632813,0 -1.019532,-0.57421878 -1.019532,-1.51171878 0,-0.4570312 0.09375,-0.890625 0.246094,-1.171875 0.140625,-0.2695312 0.421875,-0.421875 0.773438,-0.421875 0.515625,0 0.761718,0.2460938 0.902343,0.8789063 z m 6.28418,-3.609375 c -0.914063,0 -1.664063,0.3046875 -2.214844,0.9023437 -0.585938,0.6328125 -0.914063,1.546875 -0.914063,2.5195313 0,0.984375 0.328125,1.9101562 0.914063,2.51953123 0.5625,0.609375 1.300781,0.9140625 2.226562,0.9140625 0.9375,0 1.664063,-0.3046875 2.238282,-0.9140625 0.5625,-0.59765623 0.914062,-1.54687503 0.914062,-2.47265623 0,-1.0195313 -0.339844,-1.9335938 -0.914062,-2.5664063 -0.574219,-0.609375 -1.300782,-0.9023437 -2.25,-0.9023437 z m 0.01172,1.1484375 c 1.101563,0 1.804688,0.9023437 1.804688,2.3085937 0,1.3359375 -0.726563,2.25000003 -1.804688,2.25000003 -1.078125,0 -1.804687,-0.91406253 -1.804687,-2.28515623 0,-1.3710938 0.726562,-2.2734375 1.804687,-2.2734375 z m 5.241211,0.65625 h -1.253906 v 6.796875 h 1.253906 v -2.53125002 c 0.304688,0.5390625 0.738282,0.78515625 1.347657,0.78515625 1.171875,0 2.027343,-1.08984375 2.027343,-2.55468753 0,-0.6914062 -0.199218,-1.3710937 -0.515625,-1.8164062 -0.328125,-0.4570313 -0.925781,-0.7617188 -1.511718,-0.7617188 -0.609375,0 -1.042969,0.2578125 -1.347657,0.796875 z m 1.066407,0.9726562 c 0.632812,0 1.054687,0.609375 1.054687,1.5351563 0,0.8789062 -0.433594,1.49999998 -1.054687,1.49999998 -0.632813,0 -1.066407,-0.60937498 -1.066407,-1.51171878 0,-0.9140625 0.433594,-1.5234375 1.066407,-1.5234375 z m 5.33789,-0.8789062 h -0.691406 v -1.3007813 h -1.265625 v 1.3007813 h -0.609375 v 0.8320312 h 0.609375 v 2.97656253 c 0,0.76171875 0.410156,1.1484375 1.230469,1.1484375 0.28125,0 0.503906,-0.0351563 0.726562,-0.10546875 v -0.87890625 c -0.117187,0.0234375 -0.199219,0.0351563 -0.28125,0.0351563 -0.339844,0 -0.410156,-0.10546875 -0.410156,-0.53906253 v -2.6367188 h 0.691406 z m 2.141602,-0.09375 H 68.347187 V 3.28125e-4 h 1.253907 z m 0,-1.6992188 h -1.253907 v 1.125 h 1.253907 z m 1.180664,1.6992188 V 3.28125e-4 h 1.253906 V -2.9059219 c 0,-0.5859375 0.328125,-0.9492187 0.855469,-0.9492187 0.421875,0 0.691406,0.2460937 0.691406,0.6328125 V 3.28125e-4 h 1.253906 V -2.9059219 c 0,-0.5859375 0.316407,-0.9492187 0.855469,-0.9492187 0.421875,0 0.679688,0.2460937 0.679688,0.6328125 V 3.28125e-4 H 77.62551 V -3.4215469 c 0,-0.9492187 -0.574219,-1.5 -1.535156,-1.5 -0.609375,0 -1.042969,0.2109375 -1.417969,0.7148438 -0.234375,-0.4570313 -0.714844,-0.7148438 -1.324219,-0.7148438 -0.550781,0 -0.914062,0.1875 -1.324219,0.6796875 v -0.5976562 z m 9.284179,0 H 78.812031 V 3.28125e-4 h 1.253906 z m 0,-1.6992188 h -1.253906 v 1.125 h 1.253906 z m 4.754883,1.6992188 h -3.761718 v 1.0078125 h 2.226562 l -2.390625,2.8242187 V 3.28125e-4 h 4.007813 V -1.0074844 h -2.460938 l 2.378906,-2.8242187 z m 5.06836,4.68749998 c -0.222657,-0.2109375 -0.292969,-0.33984375 -0.292969,-0.5859375 V -3.4332656 c 0,-0.984375 -0.667969,-1.4882813 -1.980469,-1.4882813 -1.300781,0 -1.992187,0.5507813 -2.0625,1.6757813 h 1.207031 c 0.05859,-0.5039063 0.269532,-0.6679688 0.890625,-0.6679688 0.480469,0 0.726563,0.1640625 0.726563,0.4921875 0,0.1640625 -0.08203,0.3046875 -0.222656,0.375 -0.164063,0.09375 -0.164063,0.09375 -0.785157,0.1875 l -0.503906,0.09375 c -0.960937,0.1523438 -1.429687,0.6445313 -1.429687,1.5234375 0,0.41015628 0.117187,0.75000003 0.339843,0.99609378 0.28125,0.28125 0.703125,0.45703125 1.136719,0.45703125 0.539063,0 1.03125,-0.234375 1.464844,-0.69140625 0,0.24609375 0.03516,0.33984375 0.152344,0.480468745 H 89.88918 Z M 88.377461,-1.9449844 c 0,0.7265625 -0.363281,1.13671878 -0.996094,1.13671878 -0.421875,0 -0.679687,-0.22265628 -0.679687,-0.58593748 0,-0.375 0.1875,-0.5507813 0.714843,-0.65625 l 0.421875,-0.082031 c 0.339844,-0.058594 0.386719,-0.082031 0.539063,-0.1523437 z m 4.494141,-2.8007812 H 92.180195 V -6.0465469 H 90.91457 v 1.3007813 h -0.609375 v 0.8320312 h 0.609375 v 2.97656253 c 0,0.76171875 0.410157,1.1484375 1.230469,1.1484375 0.28125,0 0.503906,-0.0351563 0.726563,-0.10546875 v -0.87890625 c -0.117188,0.0234375 -0.199219,0.0351563 -0.28125,0.0351563 -0.339844,0 -0.410157,-0.10546875 -0.410157,-0.53906253 v -2.6367188 h 0.691407 z m 2.141601,-0.09375 H 93.759297 V 3.28125e-4 h 1.253906 z m 0,-1.6992188 h -1.253906 v 1.125 h 1.253906 z m 3.336914,1.6171875 c -1.476562,0 -2.378906,0.9726563 -2.378906,2.5664063 0,1.59374998 0.902344,2.56640623 2.390625,2.56640623 1.464844,0 2.390624,-0.984375 2.390624,-2.53125003 0,-1.640625 -0.878905,-2.6015625 -2.402343,-2.6015625 z m 0.01172,1.0078125 c 0.691406,0 1.136719,0.6210938 1.136719,1.5703125 0,0.9140625 -0.46875,1.53515628 -1.136719,1.53515628 -0.679688,0 -1.136719,-0.62109378 -1.136719,-1.54687498 0,-0.9257813 0.457031,-1.5585938 1.136719,-1.5585938 z m 3.331053,-0.9257812 V 3.28125e-4 h 1.25391 V -2.9059219 c 0,-0.5742187 0.41015,-0.9492187 1.01953,-0.9492187 0.53906,0 0.80859,0.2929687 0.80859,0.8671875 V 3.28125e-4 h 1.25391 V -3.2457656 c 0,-1.0664063 -0.59766,-1.6757813 -1.62891,-1.6757813 -0.65625,0 -1.08984,0.2460938 -1.45312,0.7851563 v -0.703125 z m 0,0"
       style="fill:#000000;fill-opacity:1;fill-rule:nonzero;stroke:none"
       aria-label="GeographicOptimization"
       transform="matrix(1.3333333,0,0,1.3333333,240.02667,13.148)" />
    <path
       id="path30"
       d="M 3.1755,-5.7994922 H 5.3200312 V -6.5377734 H 0.18721875 v 0.7382812 H 2.3434687 V 0.00128906 H 3.1755 Z m 1.8486328,1.1015625 v 4.69921876 h 0.75 V -2.4362109 c 0,-0.6679688 0.1757813,-1.1132813 0.5273438,-1.3710938 0.234375,-0.1757812 0.4570312,-0.2226562 0.984375,-0.234375 v -0.7617187 c -0.1289063,-0.023437 -0.1992188,-0.023437 -0.2929688,-0.023437 -0.4804687,0 -0.8554687,0.28125 -1.2773437,0.984375 v -0.8554688 z m 7.0664062,4.26562501 c -0.08203,0.0117188 -0.117187,0.0117188 -0.152344,0.0117188 -0.269531,0 -0.410156,-0.12890625 -0.410156,-0.36328125 V -3.5494922 c 0,-0.8320312 -0.609375,-1.2773437 -1.7695312,-1.2773437 -0.6796875,0 -1.2421875,0.1875 -1.5585937,0.5390625 -0.2109375,0.2460937 -0.3046875,0.515625 -0.3164063,0.984375 h 0.75 c 0.058594,-0.5742188 0.3984375,-0.8320313 1.1015625,-0.8320313 0.6679687,0 1.0546877,0.2460938 1.0546877,0.6914063 v 0.1992187 c 0,0.3164063 -0.1875,0.4453125 -0.785156,0.515625 -1.0546879,0.140625 -1.2187504,0.1757813 -1.5000004,0.2929688 -0.5507813,0.2226562 -0.8320313,0.6445312 -0.8320313,1.2539062 0,0.85546876 0.5976563,1.39453126 1.546875,1.39453126 0.5859375,0 1.0664067,-0.2109375 1.5937497,-0.69140625 0.04687,0.46875 0.28125,0.69140625 0.773438,0.69140625 0.152344,0 0.269531,-0.0234375 0.503906,-0.0820313 z M 10.789758,-1.4752734 c 0,0.2460937 -0.08203,0.3984375 -0.304688,0.60937496 -0.304687,0.28125 -0.6679684,0.421875 -1.1132809,0.421875 -0.5742188,0 -0.9140625,-0.28125 -0.9140625,-0.76171876 0,-0.4921875 0.328125,-0.7382812 1.125,-0.8554687 0.7851564,-0.1054688 0.9492184,-0.140625 1.2070314,-0.2578125 z m 2.841797,-3.2226563 h -0.75 v 4.69921876 h 0.75 z m 0,-1.8398437 h -0.761719 v 0.9492187 h 0.761719 z m 1.274414,1.8398437 v 4.69921876 h 0.75 V -2.5885547 c 0,-0.9609375 0.503906,-1.5820312 1.265625,-1.5820312 0.597656,0 0.972656,0.3515625 0.972656,0.9140625 v 3.25781246 h 0.75 V -3.5494922 c 0,-0.7734375 -0.585938,-1.2773437 -1.488281,-1.2773437 -0.703125,0 -1.148438,0.2695312 -1.570313,0.9140625 v -0.7851563 z m 5.701172,0 h -0.75 v 4.69921876 h 0.75 z m 0,-1.8398437 h -0.761719 v 0.9492187 h 0.761719 z m 1.277343,1.8398437 v 4.69921876 h 0.75 V -2.5885547 c 0,-0.9609375 0.503907,-1.5820312 1.265625,-1.5820312 0.597657,0 0.972657,0.3515625 0.972657,0.9140625 v 3.25781246 h 0.75 V -3.5494922 c 0,-0.7734375 -0.585938,-1.2773437 -1.488282,-1.2773437 -0.703125,0 -1.148437,0.2695312 -1.570312,0.9140625 v -0.7851563 z m 8.041993,0 v 0.6796875 c -0.375,-0.5507812 -0.832032,-0.8085937 -1.429688,-0.8085937 -1.195312,0 -2.003906,1.03125 -2.003906,2.5546875 0,0.7734375 0.210937,1.40624996 0.597656,1.85156246 0.351563,0.3984375 0.84375,0.6328125 1.335938,0.6328125 0.597656,0 1.007812,-0.2578125 1.429687,-0.84375 v 0.234375 c 0,0.64453125 -0.08203,1.03125 -0.269531,1.2890625 -0.199219,0.26953124 -0.585938,0.43359374 -1.042969,0.43359374 -0.339844,0 -0.644531,-0.082031 -0.84375,-0.2460937 C 27.524133,0.93878906 27.45382,0.82160156 27.406945,0.54035156 h -0.761718 c 0.08203,0.89062504 0.773437,1.41796874 1.875,1.41796874 0.703125,0 1.300781,-0.2226562 1.605468,-0.5976562 0.363282,-0.43359379 0.492188,-1.03125004 0.492188,-2.13281254 V -4.6979297 Z m -1.347657,0.5625 c 0.808594,0 1.277344,0.6796875 1.277344,1.8515625 0,1.125 -0.480469,1.80468751 -1.277344,1.80468751 -0.808593,0 -1.300781,-0.69140621 -1.300781,-1.82812501 0,-1.1367187 0.503906,-1.828125 1.300781,-1.828125 z m 6.47461,-0.5625 h -0.75 v 4.69921876 h 0.75 z m 0,-1.8398437 h -0.761719 v 0.9492187 h 0.761719 z m 1.274414,1.8398437 v 4.69921876 h 0.75 V -2.5885547 c 0,-0.9609375 0.503906,-1.5820312 1.265625,-1.5820312 0.597656,0 0.972656,0.3515625 0.972656,0.9140625 v 3.25781246 h 0.75 V -3.5494922 c 0,-0.7734375 -0.585938,-1.2773437 -1.488281,-1.2773437 -0.703125,0 -1.148438,0.2695312 -1.570313,0.9140625 v -0.7851563 z m 13.420898,4.71093751 -0.84375,-0.69140625 c 0.621094,-0.67968746 0.925781,-1.52343746 0.925781,-2.55468746 0,-2.0273438 -1.277343,-3.4101563 -3.164062,-3.4101563 -1.875,0 -3.152344,1.3828125 -3.152344,3.421875 0,2.0507813 1.277344,3.43359376 3.152344,3.43359376 0.644531,0 1.183594,-0.15234375 1.710937,-0.45703125 l 0.949219,0.7734375 z m -2.261719,-1.85156251 -0.410156,0.5039063 0.65625,0.55078121 c -0.386719,0.1875 -0.679687,0.2578125 -1.066406,0.2578125 -1.394531,0 -2.320313,-1.07812501 -2.320313,-2.69531251 0,-1.6054687 0.9375,-2.6835937 2.320313,-2.6835937 1.394531,0 2.320312,1.078125 2.320312,2.6835937 0,0.84375 -0.222656,1.4882813 -0.703125,2.0390625 z m 6.987305,1.83984376 V -4.6979297 h -0.75 v 2.6601563 c 0,0.9609375 -0.503906,1.59374996 -1.277344,1.59374996 -0.597656,0 -0.972656,-0.36328125 -0.972656,-0.92578126 v -3.328125 h -0.738281 v 3.6210938 c 0,0.78515621 0.574219,1.28906246 1.488281,1.28906246 0.691406,0 1.136719,-0.24609375 1.570313,-0.8671875 v 0.65625 z m 5.25293,-2.09765626 c 0,-0.7148437 -0.04687,-1.1484375 -0.1875,-1.5 -0.304688,-0.7734375 -1.019531,-1.2304687 -1.898438,-1.2304687 -1.300781,0 -2.144531,0.9960937 -2.144531,2.5429687 0,1.54687501 0.808594,2.49609376 2.132813,2.49609376 1.066406,0 1.816406,-0.609375 2.003906,-1.64062496 h -0.75 c -0.210938,0.62109371 -0.632813,0.94921871 -1.230469,0.94921871 -0.480469,0 -0.878906,-0.22265625 -1.125,-0.60937501 -0.1875,-0.2695312 -0.246094,-0.5390625 -0.257812,-1.0078125 z m -3.433594,-0.609375 c 0.05859,-0.8671875 0.585938,-1.4296875 1.335938,-1.4296875 0.738281,0 1.300781,0.609375 1.300781,1.3710938 0,0.023437 0,0.035156 0,0.058594 z m 4.306641,-3.8320312 v 6.53906246 h 0.679687 v -0.59765625 c 0.351563,0.5390625 0.832031,0.80859375 1.488281,0.80859375 1.230469,0 2.039063,-1.01953125 2.039063,-2.57812496 0,-1.5234375 -0.773438,-2.4609375 -2.003906,-2.4609375 -0.644532,0 -1.101563,0.234375 -1.453125,0.7617187 v -2.4726562 z m 2.050781,2.4023437 c 0.84375,0 1.382812,0.7265625 1.382812,1.8515625 0,1.0664063 -0.5625,1.79296876 -1.382812,1.79296876 -0.785156,0 -1.300781,-0.71484376 -1.300781,-1.81640626 0,-1.1015625 0.515625,-1.828125 1.300781,-1.828125 z m 7.048828,2.0390625 c 0,-0.7148437 -0.04687,-1.1484375 -0.1875,-1.5 -0.304687,-0.7734375 -1.019531,-1.2304687 -1.898437,-1.2304687 -1.300782,0 -2.144532,0.9960937 -2.144532,2.5429687 0,1.54687501 0.808594,2.49609376 2.132813,2.49609376 1.066406,0 1.816406,-0.609375 2.003906,-1.64062496 h -0.75 c -0.210937,0.62109371 -0.632812,0.94921871 -1.230469,0.94921871 -0.480468,0 -0.878906,-0.22265625 -1.125,-0.60937501 -0.1875,-0.2695312 -0.246093,-0.5390625 -0.257812,-1.0078125 z m -3.433594,-0.609375 c 0.05859,-0.8671875 0.585938,-1.4296875 1.335938,-1.4296875 0.738281,0 1.300781,0.609375 1.300781,1.3710938 0,0.023437 0,0.035156 0,0.058594 z m 8.041992,-0.4101562 c -0.03516,-0.4570313 -0.128906,-0.75 -0.304687,-1.0195313 C 73.6755,-4.5690234 73.113,-4.8268359 72.45675,-4.8268359 c -1.265625,0 -2.085938,0.9960937 -2.085938,2.5546875 0,1.52343746 0.808594,2.48437496 2.074219,2.48437496 1.125,0 1.828125,-0.6796875 1.921875,-1.82812496 h -0.75 c -0.128906,0.76171871 -0.515625,1.13671871 -1.148437,1.13671871 -0.832032,0 -1.324219,-0.67968751 -1.324219,-1.79296871 0,-1.171875 0.492187,-1.8632813 1.300781,-1.8632813 0.632813,0 1.019531,0.3632813 1.113281,1.0195313 z m 5.311524,3.11718746 1.804687,-4.69921876 h -0.84375 l -1.324218,3.80859376 -1.253907,-3.80859376 h -0.84375 l 1.640625,4.69921876 z m 5.856445,-3.38671876 c -0.01172,-0.9257812 -0.621094,-1.4414062 -1.699219,-1.4414062 -1.101562,0 -1.804687,0.5625 -1.804687,1.4296875 0,0.7382812 0.375,1.0898437 1.488281,1.359375 l 0.703125,0.1640625 c 0.515625,0.1289062 0.726563,0.3164062 0.726563,0.65625 0,0.43359371 -0.445313,0.73828121 -1.101563,0.73828121 -0.398437,0 -0.738281,-0.1171875 -0.925781,-0.31640625 -0.117188,-0.140625 -0.175781,-0.26953126 -0.222656,-0.59765626 h -0.785157 c 0.03516,1.07812501 0.644532,1.60546876 1.875,1.60546876 1.183594,0 1.933594,-0.5859375 1.933594,-1.48828126 0,-0.703125 -0.398437,-1.0898437 -1.324219,-1.3125 l -0.714843,-0.1757812 c -0.609375,-0.140625 -0.867188,-0.3398438 -0.867188,-0.6679688 0,-0.4335937 0.375,-0.703125 0.984375,-0.703125 0.609375,0 0.925781,0.2578125 0.949219,0.75 z m 4.702149,0.6210938 h 2.050781 c 0.515625,0 0.914062,-0.1523438 1.265625,-0.46875 0.386719,-0.3632813 0.5625,-0.7851563 0.5625,-1.3828125 0,-1.2304688 -0.726563,-1.921875 -2.015625,-1.921875 h -2.695313 v 6.53906246 h 0.832032 z m 0,-0.7382813 v -2.296875 h 1.734375 c 0.796875,0 1.277343,0.4335938 1.277343,1.1484375 0,0.7148438 -0.480468,1.1484375 -1.277343,1.1484375 z m 6.325195,-1.3242187 c -1.3125,0 -2.109375,0.9375 -2.109375,2.5195312 0,1.57031251 0.785156,2.51953126 2.121094,2.51953126 1.3125,0 2.121093,-0.94921875 2.121093,-2.48437496 0,-1.6289063 -0.773437,-2.5546875 -2.132812,-2.5546875 z m 0.01172,0.6914062 c 0.84375,0 1.347656,0.6796875 1.347656,1.8515625 0,1.1015625 -0.527344,1.80468751 -1.347656,1.80468751 -0.832032,0 -1.347657,-0.69140621 -1.347657,-1.82812501 0,-1.1367187 0.515625,-1.828125 1.347657,-1.828125 z m 3.896485,-2.4023437 h -0.750001 v 6.53906246 h 0.750001 z m 5.42285,6.10546871 c -0.082,0.0117188 -0.11719,0.0117188 -0.15234,0.0117188 -0.26954,0 -0.41016,-0.12890625 -0.41016,-0.36328125 V -3.5494922 c 0,-0.8320312 -0.60938,-1.2773437 -1.76953,-1.2773437 -0.67969,0 -1.24219,0.1875 -1.5586,0.5390625 -0.21093,0.2460937 -0.30468,0.515625 -0.3164,0.984375 h 0.75 c 0.0586,-0.5742188 0.39844,-0.8320313 1.10156,-0.8320313 0.66797,0 1.05469,0.2460938 1.05469,0.6914063 v 0.1992187 c 0,0.3164063 -0.1875,0.4453125 -0.78516,0.515625 -1.05469,0.140625 -1.21875,0.1757813 -1.5,0.2929688 -0.55078,0.2226562 -0.83203,0.6445312 -0.83203,1.2539062 0,0.85546876 0.59766,1.39453126 1.54688,1.39453126 0.58593,0 1.0664,-0.2109375 1.59375,-0.69140625 0.0469,0.46875 0.28125,0.69140625 0.77343,0.69140625 0.15235,0 0.26953,-0.0234375 0.50391,-0.0820313 z M 104.5339,-1.4752734 c 0,0.2460937 -0.082,0.3984375 -0.30469,0.60937496 -0.30469,0.28125 -0.66797,0.421875 -1.11328,0.421875 -0.57422,0 -0.91406,-0.28125 -0.91406,-0.76171876 0,-0.4921875 0.32812,-0.7382812 1.125,-0.8554687 0.78515,-0.1054688 0.94922,-0.140625 1.20703,-0.2578125 z m 2.12695,-3.2226563 v 4.69921876 h 0.75 V -2.5885547 c 0,-0.9609375 0.50391,-1.5820312 1.26563,-1.5820312 0.59765,0 0.97265,0.3515625 0.97265,0.9140625 v 3.25781246 h 0.75 V -3.5494922 c 0,-0.7734375 -0.58593,-1.2773437 -1.48828,-1.2773437 -0.70312,0 -1.14844,0.2695312 -1.57031,0.9140625 v -0.7851563 z m 8.79199,-1.8398437 h -0.75 v 2.4375 c -0.3164,-0.4804688 -0.80859,-0.7265625 -1.4414,-0.7265625 -1.21875,0 -2.01563,0.9726562 -2.01563,2.4726562 0,1.58203126 0.77344,2.56640626 2.03907,2.56640626 0.64453,0 1.10156,-0.24609375 1.5,-0.83203125 v 0.62109375 h 0.66796 z m -2.0625,2.4023437 c 0.8086,0 1.3125,0.7265625 1.3125,1.8398438 0,1.0898437 -0.51562,1.80468746 -1.3125,1.80468746 -0.82031,0 -1.37109,-0.72656246 -1.37109,-1.81640626 0,-1.1015625 0.55078,-1.828125 1.37109,-1.828125 z m 5.71289,-0.5625 v 4.69921876 h 0.75 V -2.4362109 c 0,-0.6679688 0.17579,-1.1132813 0.52735,-1.3710938 0.23437,-0.1757812 0.45703,-0.2226562 0.98437,-0.234375 v -0.7617187 c -0.1289,-0.023437 -0.19922,-0.023437 -0.29297,-0.023437 -0.48046,0 -0.85546,0.28125 -1.27734,0.984375 v -0.8554688 z m 6.95801,2.6015625 c 0,-0.7148437 -0.0469,-1.1484375 -0.1875,-1.5 -0.30469,-0.7734375 -1.01953,-1.2304687 -1.89844,-1.2304687 -1.30078,0 -2.14453,0.9960937 -2.14453,2.5429687 0,1.54687501 0.8086,2.49609376 2.13282,2.49609376 1.0664,0 1.8164,-0.609375 2.0039,-1.64062496 h -0.75 c -0.21094,0.62109371 -0.63281,0.94921871 -1.23047,0.94921871 -0.48047,0 -0.8789,-0.22265625 -1.125,-0.60937501 -0.1875,-0.2695312 -0.24609,-0.5390625 -0.25781,-1.0078125 z m -3.43359,-0.609375 c 0.0586,-0.8671875 0.58594,-1.4296875 1.33594,-1.4296875 0.73828,0 1.30078,0.609375 1.30078,1.3710938 0,0.023437 0,0.035156 0,0.058594 z m 8.26758,-3.8320312 h -0.75 v 2.4375 c -0.31641,-0.4804688 -0.8086,-0.7265625 -1.44141,-0.7265625 -1.21875,0 -2.01562,0.9726562 -2.01562,2.4726562 0,1.58203126 0.77343,2.56640626 2.03906,2.56640626 0.64453,0 1.10156,-0.24609375 1.5,-0.83203125 v 0.62109375 h 0.66797 z m -2.0625,2.4023437 c 0.80859,0 1.3125,0.7265625 1.3125,1.8398438 0,1.0898437 -0.51563,1.80468746 -1.3125,1.80468746 -0.82032,0 -1.3711,-0.72656246 -1.3711,-1.81640626 0,-1.1015625 0.55078,-1.828125 1.3711,-1.828125 z m 6.92871,4.13671876 V -4.6979297 h -0.75 v 2.6601563 c 0,0.9609375 -0.50391,1.59374996 -1.27735,1.59374996 -0.59765,0 -0.97265,-0.36328125 -0.97265,-0.92578126 v -3.328125 h -0.73828 v 3.6210938 c 0,0.78515621 0.57421,1.28906246 1.48828,1.28906246 0.6914,0 1.13672,-0.24609375 1.57031,-0.8671875 v 0.65625 z m 4.88086,-3.11718746 c -0.0352,-0.4570313 -0.12891,-0.75 -0.30469,-1.0195313 -0.32813,-0.4335937 -0.89063,-0.6914062 -1.54688,-0.6914062 -1.26562,0 -2.08593,0.9960937 -2.08593,2.5546875 0,1.52343746 0.80859,2.48437496 2.07422,2.48437496 1.125,0 1.82812,-0.6796875 1.92187,-1.82812496 h -0.75 c -0.12891,0.76171871 -0.51562,1.13671871 -1.14844,1.13671871 -0.83203,0 -1.32422,-0.67968751 -1.32422,-1.79296871 0,-1.171875 0.49219,-1.8632813 1.30079,-1.8632813 0.63281,0 1.01953,0.3632813 1.11328,1.0195313 z m 4.85742,1.0195312 c 0,-0.7148437 -0.0469,-1.1484375 -0.1875,-1.5 -0.30469,-0.7734375 -1.01953,-1.2304687 -1.89844,-1.2304687 -1.30078,0 -2.14453,0.9960937 -2.14453,2.5429687 0,1.54687501 0.80859,2.49609376 2.13281,2.49609376 1.06641,0 1.81641,-0.609375 2.00391,-1.64062496 h -0.75 c -0.21094,0.62109371 -0.63281,0.94921871 -1.23047,0.94921871 -0.48047,0 -0.87891,-0.22265625 -1.125,-0.60937501 -0.1875,-0.2695312 -0.24609,-0.5390625 -0.25781,-1.0078125 z m -3.4336,-0.609375 c 0.0586,-0.8671875 0.58594,-1.4296875 1.33594,-1.4296875 0.73828,0 1.30078,0.609375 1.30078,1.3710938 0,0.023437 0,0.035156 0,0.058594 z m 7.75196,-0.6796875 c -0.0117,-0.9257812 -0.6211,-1.4414062 -1.69922,-1.4414062 -1.10156,0 -1.80469,0.5625 -1.80469,1.4296875 0,0.7382812 0.375,1.0898437 1.48828,1.359375 l 0.70313,0.1640625 c 0.51562,0.1289062 0.72656,0.3164062 0.72656,0.65625 0,0.43359371 -0.44531,0.73828121 -1.10156,0.73828121 -0.39844,0 -0.73828,-0.1171875 -0.92578,-0.31640625 -0.11719,-0.140625 -0.17578,-0.26953126 -0.22266,-0.59765626 h -0.78516 c 0.0352,1.07812501 0.64454,1.60546876 1.875,1.60546876 1.1836,0 1.9336,-0.5859375 1.9336,-1.48828126 0,-0.703125 -0.39844,-1.0898437 -1.32422,-1.3125 l -0.71484,-0.1757812 c -0.60938,-0.140625 -0.86719,-0.3398438 -0.86719,-0.6679688 0,-0.4335937 0.375,-0.703125 0.98437,-0.703125 0.60938,0 0.92578,0.2578125 0.94922,0.75 z m 7.64355,1.2890625 c 0,-0.7148437 -0.0469,-1.1484375 -0.1875,-1.5 -0.30468,-0.7734375 -1.01953,-1.2304687 -1.89843,-1.2304687 -1.30079,0 -2.14454,0.9960937 -2.14454,2.5429687 0,1.54687501 0.8086,2.49609376 2.13282,2.49609376 1.0664,0 1.8164,-0.609375 2.0039,-1.64062496 h -0.75 c -0.21093,0.62109371 -0.63281,0.94921871 -1.23047,0.94921871 -0.48046,0 -0.8789,-0.22265625 -1.125,-0.60937501 -0.1875,-0.2695312 -0.24609,-0.5390625 -0.25781,-1.0078125 z m -3.43359,-0.609375 c 0.0586,-0.8671875 0.58594,-1.4296875 1.33594,-1.4296875 0.73828,0 1.30078,0.609375 1.30078,1.3710938 0,0.023437 0,0.035156 0,0.058594 z m 4.45898,-1.9921875 v 4.69921876 h 0.75 V -2.9518359 c 0,-0.6796875 0.49219,-1.21875 1.10157,-1.21875 0.55078,0 0.86718,0.3398437 0.86718,0.9375 v 3.23437496 h 0.75 V -2.9518359 c 0,-0.6796875 0.49219,-1.21875 1.10157,-1.21875 0.55078,0 0.8789,0.3398437 0.8789,0.9375 v 3.23437496 h 0.75 V -3.5260547 c 0,-0.84375 -0.48047,-1.3007812 -1.35937,-1.3007812 -0.63282,0 -1.00782,0.1875 -1.45313,0.7148437 -0.26953,-0.5039062 -0.64453,-0.7148437 -1.2539,-0.7148437 -0.63282,0 -1.04297,0.234375 -1.45313,0.796875 v -0.6679688 z m 8.18262,0 h -0.75 v 4.69921876 h 0.75 z m 0,-1.8398437 h -0.76172 v 0.9492187 h 0.76172 z m 4.56738,3.1523437 c -0.0117,-0.9257812 -0.62109,-1.4414062 -1.69922,-1.4414062 -1.10156,0 -1.80468,0.5625 -1.80468,1.4296875 0,0.7382812 0.375,1.0898437 1.48828,1.359375 l 0.70312,0.1640625 c 0.51563,0.1289062 0.72657,0.3164062 0.72657,0.65625 0,0.43359371 -0.44532,0.73828121 -1.10157,0.73828121 -0.39843,0 -0.73828,-0.1171875 -0.92578,-0.31640625 -0.11719,-0.140625 -0.17578,-0.26953126 -0.22265,-0.59765626 h -0.78516 c 0.0352,1.07812501 0.64453,1.60546876 1.875,1.60546876 1.18359,0 1.93359,-0.5859375 1.93359,-1.48828126 0,-0.703125 -0.39843,-1.0898437 -1.32422,-1.3125 l -0.71484,-0.1757812 c -0.60937,-0.140625 -0.86719,-0.3398438 -0.86719,-0.6679688 0,-0.4335937 0.375,-0.703125 0.98438,-0.703125 0.60937,0 0.92578,0.2578125 0.94922,0.75 z m 4.48535,0 c -0.0117,-0.9257812 -0.62109,-1.4414062 -1.69921,-1.4414062 -1.10157,0 -1.80469,0.5625 -1.80469,1.4296875 0,0.7382812 0.375,1.0898437 1.48828,1.359375 l 0.70312,0.1640625 c 0.51563,0.1289062 0.72657,0.3164062 0.72657,0.65625 0,0.43359371 -0.44532,0.73828121 -1.10157,0.73828121 -0.39843,0 -0.73828,-0.1171875 -0.92578,-0.31640625 -0.11718,-0.140625 -0.17578,-0.26953126 -0.22265,-0.59765626 h -0.78516 c 0.0352,1.07812501 0.64453,1.60546876 1.875,1.60546876 1.18359,0 1.93359,-0.5859375 1.93359,-1.48828126 0,-0.703125 -0.39843,-1.0898437 -1.32421,-1.3125 l -0.71485,-0.1757812 c -0.60937,-0.140625 -0.86719,-0.3398438 -0.86719,-0.6679688 0,-0.4335937 0.375,-0.703125 0.98438,-0.703125 0.60937,0 0.92578,0.2578125 0.94922,0.75 z m 1.9043,-1.3125 h -0.75 v 4.69921876 h 0.75 z m 0,-1.8398437 h -0.76172 v 0.9492187 h 0.76172 z m 3.0791,1.7109375 c -1.3125,0 -2.10937,0.9375 -2.10937,2.5195312 0,1.57031251 0.78515,2.51953126 2.12109,2.51953126 1.3125,0 2.1211,-0.94921875 2.1211,-2.48437496 0,-1.6289063 -0.77344,-2.5546875 -2.13282,-2.5546875 z m 0.0117,0.6914062 c 0.84375,0 1.34766,0.6796875 1.34766,1.8515625 0,1.1015625 -0.52735,1.80468751 -1.34766,1.80468751 -0.83203,0 -1.34765,-0.69140621 -1.34765,-1.82812501 0,-1.1367187 0.51562,-1.828125 1.34765,-1.828125 z m 3.16992,-0.5625 v 4.69921876 h 0.75 V -2.5885547 c 0,-0.9609375 0.50391,-1.5820312 1.26563,-1.5820312 0.59766,0 0.97266,0.3515625 0.97266,0.9140625 v 3.25781246 h 0.75 V -3.5494922 c 0,-0.7734375 -0.58594,-1.2773437 -1.48829,-1.2773437 -0.70312,0 -1.14843,0.2695312 -1.57031,0.9140625 v -0.7851563 z m 8.2793,1.3125 c -0.0117,-0.9257812 -0.62109,-1.4414062 -1.69922,-1.4414062 -1.10156,0 -1.80469,0.5625 -1.80469,1.4296875 0,0.7382812 0.375,1.0898437 1.48829,1.359375 l 0.70312,0.1640625 c 0.51563,0.1289062 0.72656,0.3164062 0.72656,0.65625 0,0.43359371 -0.44531,0.73828121 -1.10156,0.73828121 -0.39844,0 -0.73828,-0.1171875 -0.92578,-0.31640625 -0.11719,-0.140625 -0.17578,-0.26953126 -0.22266,-0.59765626 h -0.78515 c 0.0351,1.07812501 0.64453,1.60546876 1.875,1.60546876 1.18359,0 1.93359,-0.5859375 1.93359,-1.48828126 0,-0.703125 -0.39844,-1.0898437 -1.32422,-1.3125 l -0.71484,-0.1757812 c -0.60938,-0.140625 -0.86719,-0.3398438 -0.86719,-0.6679688 0,-0.4335937 0.375,-0.703125 0.98438,-0.703125 0.60937,0 0.92578,0.2578125 0.94921,0.75 z m 3.53027,-3.1523437 v 6.53906246 h 0.67969 v -0.59765625 c 0.35156,0.5390625 0.83203,0.80859375 1.48828,0.80859375 1.23047,0 2.03907,-1.01953125 2.03907,-2.57812496 0,-1.5234375 -0.77344,-2.4609375 -2.00391,-2.4609375 -0.64453,0 -1.10156,0.234375 -1.45313,0.7617187 v -2.4726562 z m 2.05079,2.4023437 c 0.84375,0 1.38281,0.7265625 1.38281,1.8515625 0,1.0664063 -0.5625,1.79296876 -1.38281,1.79296876 -0.78516,0 -1.30079,-0.71484376 -1.30079,-1.81640626 0,-1.1015625 0.51563,-1.828125 1.30079,-1.828125 z m 5.76269,-0.5625 -1.30078,3.65625 -1.20703,-3.65625 h -0.79688 l 1.59375,4.72265626 -0.29297,0.73828125 c -0.11718,0.32812499 -0.28125,0.45703129 -0.59765,0.45703129 -0.10547,0 -0.23438,-0.011719 -0.39844,-0.058594 v 0.6796875 c 0.15234,0.082031 0.30469,0.1171875 0.50391,0.1171875 0.24609,0 0.5039,-0.082031 0.70312,-0.2226562 0.23438,-0.1757813 0.36328,-0.375 0.50391,-0.75000004 l 2.09765,-5.68359376 z m 6.41602,3.1757813 v 1.52343746 h 0.78515 V -1.5221484 h 0.94922 v -0.703125 h -0.94922 v -4.125 h -0.57422 l -2.89453,3.9960937 v 0.8320313 z m 0,-0.703125 h -1.99219 l 1.99219,-2.7890625 z m 4.51757,-4.125 c -0.58593,0 -1.125,0.2578125 -1.45312,0.6914062 -0.42188,0.5625 -0.62109,1.40625 -0.62109,2.5898438 0,2.13281246 0.71484,3.28124996 2.07421,3.28124996 1.34766,0 2.08594,-1.1484375 2.08594,-3.23437496 0,-1.2304688 -0.19922,-2.0625 -0.62109,-2.6367188 -0.32813,-0.4453125 -0.85547,-0.6914062 -1.46485,-0.6914062 z m 0,0.6914062 c 0.85547,0 1.27735,0.8671875 1.27735,2.5664063 0,1.8046875 -0.41016,2.64843746 -1.28906,2.64843746 -0.83204,0 -1.25391,-0.87890626 -1.25391,-2.62499996 0,-1.734375 0.42187,-2.5898438 1.26562,-2.5898438 z m 0,0"
       style="fill:#000000;fill-opacity:1;fill-rule:nonzero;stroke:none"
       aria-label="TraininginQuebecvsPolandreducesemissionsby40"
       transform="matrix(1.3333333,0,0,1.3333333,160.016,27.76)" />
    <path
       id="path31"
       d="m 5.6731797,-4.0651172 c 0.1054687,-0.1054687 0.1289062,-0.1523437 0.1289062,-0.2109375 0,-0.1171875 -0.09375,-0.1992187 -0.1875,-0.1992187 -0.070312,0 -0.082031,0.023437 -0.1875,0.1171875 l -1.8515625,1.8398437 -1.921875,-1.921875 c -0.046875,-0.035156 -0.09375,-0.035156 -0.1054687,-0.035156 -0.1054688,0 -0.1875,0.09375 -0.1875,0.1992187 0,0.070312 0.035156,0.1054688 0.1289062,0.2109375 l 1.8164063,1.8164063 -1.8164063,1.81640621 c -0.1289062,0.12890625 -0.1289062,0.17578125 -0.1289062,0.22265625 0,0.10546875 0.082031,0.1875 0.1875,0.1875 0.011719,0 0.058594,0 0.1054687,-0.0234375 l 1.921875,-1.92187496 1.875,1.86328121 c 0.058594,0.046875 0.082031,0.08203125 0.1640625,0.08203125 0.09375,0 0.1875,-0.0703125 0.1875,-0.1875 0,-0.0351563 -0.023437,-0.09375 -0.046875,-0.1171875 C 5.7434922,-0.36199219 4.1497422,-1.9440234 3.8450547,-2.2369922 Z m 0,0"
       style="fill:#000000;fill-opacity:1;fill-rule:nonzero;stroke:none"
       aria-label="×"
       transform="matrix(1.3333333,0,0,1.3333333,449.31467,27.76)" />
    <path
       id="path32"
       d="M 1.7102578,-0.93621094 H 0.78447656 v 0.9375 H 1.7102578 Z m 0,0"
       style="fill:#000000;fill-opacity:1;fill-rule:nonzero;stroke:none"
       aria-label="."
       transform="matrix(1.3333333,0,0,1.3333333,458.872,27.76)" />
    <path
       id="path33"
       d="M 114.13446,49.98051 0.96689,21.87383"
       style="fill:none;stroke:#000000;stroke-width:0.99628;stroke-linecap:butt;stroke-linejoin:miter;stroke-miterlimit:10;stroke-dasharray:none;stroke-opacity:1"
       transform="matrix(1.3333333,0,0,-1.3333333,158.928,101.75333)" />
    <path
       id="path34"
       d="M -2.78957,3.47087 C -2.27992,1.38832 -1.14423,0.40492 0,0 -1.14423,-0.40492 -2.27992,-1.38832 -2.78957,-3.47087"
       style="fill:none;stroke:#000000;stroke-width:0.99628;stroke-linecap:round;stroke-linejoin:round;stroke-miterlimit:10;stroke-dasharray:none;stroke-opacity:1"
       transform="matrix(-1.294,0.32137333,0.32137333,1.294,159.57257,72.748307)" />
    <path
       id="path35"
       d="M 114.13446,49.98051 227.30203,21.87383"
       style="fill:none;stroke:#000000;stroke-width:0.99628;stroke-linecap:butt;stroke-linejoin:miter;stroke-miterlimit:10;stroke-dasharray:none;stroke-opacity:1"
       transform="matrix(1.3333333,0,0,-1.3333333,158.928,101.75333)" />
    <path
       id="path36"
       d="M -2.78957,3.47087 C -2.27992,1.38832 -1.14423,0.40492 0,0 -1.14423,-0.40492 -2.27992,-1.38832 -2.78957,-3.47087"
       style="fill:none;stroke:#000000;stroke-width:0.99628;stroke-linecap:round;stroke-linejoin:round;stroke-miterlimit:10;stroke-dasharray:none;stroke-opacity:1"
       transform="matrix(1.294,0.32137333,0.32137333,-1.294,462.64197,72.748307)" />
  </g>
</svg>
