<?xml version="1.0" encoding="UTF-8" standalone="no"?>
<!-- Created with Inkscape (http://www.inkscape.org/) -->

<svg
   version="1.1"
   id="svg1"
   width="540.37067"
   height="209.668"
   viewBox="0 0 540.37067 209.668"
   xmlns="http://www.w3.org/2000/svg"
   xmlns:svg="http://www.w3.org/2000/svg">
  <defs
     id="defs1" />
  <g
     id="g1">
    <path
       id="path1"
       d="M 0,0 H 203.09935"
       style="fill:none;stroke:#000000;stroke-width:0.99628;stroke-linecap:butt;stroke-linejoin:miter;stroke-miterlimit:10;stroke-dasharray:none;stroke-opacity:1"
       transform="matrix(1.3333333,0,0,-1.3333333,87.808,191.04933)" />
    <path
       id="path2"
       d="M -2.78957,3.47087 C -2.27992,1.38832 -1.14423,0.40492 0,0 -1.14423,-0.40492 -2.27992,-1.38832 -2.78957,-3.47087"
       style="fill:none;stroke:#000000;stroke-width:0.99628;stroke-linecap:round;stroke-linejoin:round;stroke-miterlimit:10;stroke-dasharray:none;stroke-opacity:1"
       transform="matrix(1.3333333,0,0,-1.3333333,359.27132,191.04933)" />
    <path
       id="path3"
       d="m 4.2544844,-1.969125 0.6679687,1.96875 h 0.9375 L 3.5630781,-6.5394375 H 2.4849531 L 0.15292188,-3.75e-4 H 1.0435469 l 0.6914062,-1.96875 z M 4.0201094,-2.6605313 H 1.9341719 l 1.078125,-2.9765625 z M 6.6011641,-4.6995938 V -3.75e-4 h 0.75 v -2.4375 c 0,-0.6679688 0.1757812,-1.1132813 0.5273437,-1.3710938 0.234375,-0.1757812 0.4570313,-0.2226562 0.984375,-0.234375 V -4.8050625 C 8.7339766,-4.8285 8.6636641,-4.8285 8.5699141,-4.8285 c -0.4804688,0 -0.8554688,0.28125 -1.2773438,0.984375 v -0.8554688 z m 3.8466799,0 H 9.6978438 V -3.75e-4 h 0.7500002 z m 0,-1.8398437 H 9.686125 v 0.9492187 h 0.761719 z m 2.917969,1.8398437 h -0.761719 v -1.2890625 h -0.75 v 1.2890625 h -0.632813 v 0.609375 h 0.632813 v 3.5507813 c 0,0.48046875 0.328125,0.75 0.902344,0.75 0.1875,0 0.363281,-0.0234375 0.609375,-0.0703125 v -0.62109375 c -0.09375,0.0234375 -0.210938,0.0351563 -0.351563,0.0351563 -0.328125,0 -0.410156,-0.09375 -0.410156,-0.421875 V -4.0902187 h 0.761719 z m 0.849609,-1.8398437 V -3.75e-4 h 0.738281 v -2.5898438 c 0,-0.9609375 0.503906,-1.5820312 1.277344,-1.5820312 0.234375,0 0.480469,0.070312 0.65625,0.2109375 0.222656,0.1523437 0.304687,0.375 0.304687,0.703125 V -3.75e-4 h 0.75 v -3.5507813 c 0,-0.7851562 -0.5625,-1.2773437 -1.476562,-1.2773437 -0.667969,0 -1.066406,0.1992187 -1.511719,0.7734375 v -2.484375 z m 4.986328,1.8398437 V -3.75e-4 h 0.75 V -2.9535 c 0,-0.6796875 0.492188,-1.21875 1.101563,-1.21875 0.550781,0 0.867187,0.3398437 0.867187,0.9375 v 3.234375 h 0.75 V -2.9535 c 0,-0.6796875 0.492188,-1.21875 1.101563,-1.21875 0.550781,0 0.878906,0.3398437 0.878906,0.9375 v 3.234375 h 0.75 v -3.5273438 c 0,-0.84375 -0.480469,-1.3007812 -1.359375,-1.3007812 -0.632813,0 -1.007813,0.1875 -1.453125,0.7148437 C 22.318938,-4.6175625 21.943938,-4.8285 21.334563,-4.8285 c -0.632813,0 -1.042969,0.234375 -1.453125,0.796875 v -0.6679688 z m 11.431641,2.6015625 c 0,-0.7148437 -0.04687,-1.1484375 -0.1875,-1.5 C 30.141203,-4.3714688 29.426359,-4.8285 28.547453,-4.8285 c -1.300781,0 -2.144531,0.9960937 -2.144531,2.5429687 0,1.54687505 0.808594,2.4960938 2.132812,2.4960938 1.066407,0 1.816407,-0.609375 2.003907,-1.640625 h -0.75 c -0.210938,0.62109375 -0.632813,0.94921875 -1.230469,0.94921875 -0.480469,0 -0.878906,-0.22265625 -1.125,-0.60937505 -0.1875,-0.2695312 -0.246094,-0.5390625 -0.257813,-1.0078125 z m -3.433594,-0.609375 c 0.05859,-0.8671875 0.585937,-1.4296875 1.335937,-1.4296875 0.738282,0 1.300782,0.609375 1.300782,1.3710938 0,0.023437 0,0.035156 0,0.058594 z m 6.09668,-1.9921875 h -0.761719 v -1.2890625 h -0.75 v 1.2890625 h -0.632813 v 0.609375 h 0.632813 v 3.5507813 c 0,0.48046875 0.328125,0.75 0.902344,0.75 0.1875,0 0.363281,-0.0234375 0.609375,-0.0703125 v -0.62109375 c -0.09375,0.0234375 -0.210938,0.0351563 -0.351563,0.0351563 -0.328125,0 -0.410156,-0.09375 -0.410156,-0.421875 V -4.0902187 h 0.761719 z m 1.567382,0 h -0.75 V -3.75e-4 h 0.75 z m 0,-1.8398437 h -0.761718 v 0.9492187 h 0.761718 z m 4.860352,3.421875 c -0.03516,-0.4570313 -0.128906,-0.75 -0.304688,-1.0195313 C 39.091398,-4.5706875 38.528898,-4.8285 37.872648,-4.8285 c -1.265625,0 -2.085937,0.9960937 -2.085937,2.5546875 0,1.5234375 0.808594,2.484375 2.074219,2.484375 1.125,0 1.828125,-0.6796875 1.921875,-1.828125 h -0.75 c -0.128907,0.76171875 -0.515625,1.13671875 -1.148438,1.13671875 -0.832031,0 -1.324219,-0.67968755 -1.324219,-1.79296875 0,-1.171875 0.492188,-1.8632813 1.300782,-1.8632813 0.632812,0 1.019531,0.3632813 1.113281,1.0195313 z m 4.494141,-3.421875 h -0.84375 V -3.75e-4 h 0.84375 z m 1.388671,1.8398437 V -3.75e-4 h 0.75 v -2.5898438 c 0,-0.9609375 0.503907,-1.5820312 1.265625,-1.5820312 0.597657,0 0.972657,0.3515625 0.972657,0.9140625 V -3.75e-4 h 0.75 v -3.5507813 c 0,-0.7734375 -0.585938,-1.2773437 -1.488282,-1.2773437 -0.703125,0 -1.148437,0.2695312 -1.570312,0.9140625 v -0.7851563 z m 6.626954,0 h -0.761719 v -1.2890625 h -0.75 v 1.2890625 h -0.632813 v 0.609375 h 0.632813 v 3.5507813 c 0,0.48046875 0.328125,0.75 0.902344,0.75 0.1875,0 0.363281,-0.0234375 0.609375,-0.0703125 v -0.62109375 c -0.09375,0.0234375 -0.210938,0.0351563 -0.351563,0.0351563 -0.328125,0 -0.410156,-0.09375 -0.410156,-0.421875 V -4.0902187 h 0.761719 z m 4.813476,2.6015625 c 0,-0.7148437 -0.04687,-1.1484375 -0.1875,-1.5 C 56.555266,-4.3714688 55.840422,-4.8285 54.961516,-4.8285 c -1.300782,0 -2.144532,0.9960937 -2.144532,2.5429687 0,1.54687505 0.808594,2.4960938 2.132813,2.4960938 1.066406,0 1.816406,-0.609375 2.003906,-1.640625 h -0.75 c -0.210937,0.62109375 -0.632812,0.94921875 -1.230469,0.94921875 -0.480468,0 -0.878906,-0.22265625 -1.125,-0.60937505 -0.1875,-0.2695312 -0.246093,-0.5390625 -0.257812,-1.0078125 z m -3.433594,-0.609375 c 0.05859,-0.8671875 0.585938,-1.4296875 1.335938,-1.4296875 0.738281,0 1.300781,0.609375 1.300781,1.3710938 0,0.023437 0,0.035156 0,0.058594 z m 4.458985,-1.9921875 V -3.75e-4 h 0.75 v -2.5898438 c 0,-0.9609375 0.503906,-1.5820312 1.265625,-1.5820312 0.597656,0 0.972656,0.3515625 0.972656,0.9140625 V -3.75e-4 h 0.75 v -3.5507813 c 0,-0.7734375 -0.585937,-1.2773437 -1.488281,-1.2773437 -0.703125,0 -1.148438,0.2695312 -1.570313,0.9140625 v -0.7851563 z m 8.276367,1.3125 C 66.337492,-4.312875 65.728117,-4.8285 64.649992,-4.8285 c -1.101562,0 -1.804687,0.5625 -1.804687,1.4296875 0,0.7382812 0.375,1.0898437 1.488281,1.359375 l 0.703125,0.1640625 c 0.515625,0.1289062 0.726562,0.3164062 0.726562,0.65625 0,0.43359375 -0.445312,0.73828125 -1.101562,0.73828125 -0.398438,0 -0.738281,-0.1171875 -0.925781,-0.31640625 -0.117188,-0.140625 -0.175782,-0.2695313 -0.222657,-0.5976563 h -0.785156 c 0.03516,1.07812505 0.644531,1.6054688 1.875,1.6054688 1.183594,0 1.933594,-0.5859375 1.933594,-1.4882813 0,-0.703125 -0.398438,-1.0898437 -1.324219,-1.3125 L 64.497648,-2.766 c -0.609375,-0.140625 -0.867187,-0.3398438 -0.867187,-0.6679688 0,-0.4335937 0.375,-0.703125 0.984375,-0.703125 0.609375,0 0.925781,0.2578125 0.949219,0.75 z m 1.904297,-1.3125 h -0.75 V -3.75e-4 h 0.75 z m 0,-1.8398437 h -0.761719 v 0.9492187 h 0.761719 z m 2.917969,1.8398437 h -0.761719 v -1.2890625 h -0.75 v 1.2890625 h -0.632813 v 0.609375 h 0.632813 v 3.5507813 c 0,0.48046875 0.328125,0.75 0.902344,0.75 0.1875,0 0.363281,-0.0234375 0.609375,-0.0703125 v -0.62109375 c -0.09375,0.0234375 -0.210938,0.0351563 -0.351563,0.0351563 -0.328125,0 -0.410156,-0.09375 -0.410156,-0.421875 V -4.0902187 h 0.761719 z m 3.700195,0 -1.300781,3.65625 -1.207032,-3.65625 h -0.796875 l 1.59375,4.7226563 -0.292968,0.73828125 C 72.750578,1.0894687 72.586516,1.218375 72.270109,1.218375 c -0.105468,0 -0.234375,-0.011719 -0.398437,-0.058594 v 0.6796875 c 0.152344,0.082031 0.304687,0.1171875 0.503906,0.1171875 0.246094,0 0.503906,-0.082031 0.703125,-0.2226562 0.234375,-0.1757813 0.363281,-0.375 0.503906,-0.75 l 2.097657,-5.6835938 z m 5.607422,-1.8398437 c -0.902344,1.1835937 -1.464844,2.8125 -1.464844,4.21875 0,1.41796875 0.5625,3.046875 1.464844,4.21875 h 0.492187 C 80.174406,0.62071875 79.740813,-0.891 79.740813,-2.3206875 c 0,-1.4296875 0.433593,-2.9414063 1.230468,-4.21875 z m 2.504883,3.5625 h 3.117187 v -0.7382813 h -3.117187 v -2.0859375 h 3.550781 V -6.5394375 H 82.151945 V -3.75e-4 h 0.832032 z m 5.384765,-3.5625 H 87.536711 V -3.75e-4 h 4.066406 v -0.73828125 h -3.234375 z m 6.931641,-0.1054688 c -1.875,0 -3.152344,1.3828125 -3.152344,3.421875 0,2.0507813 1.277344,3.4335938 3.152344,3.4335938 0.796875,0 1.5,-0.24609375 2.027344,-0.69140625 0.714843,-0.60937505 1.136718,-1.61718755 1.136718,-2.68359375 0,-2.109375 -1.253906,-3.4804688 -3.164062,-3.4804688 z m 0,0.7382813 c 1.40625,0 2.320312,1.078125 2.320312,2.71875 0,1.5820312 -0.9375,2.66015625 -2.320312,2.66015625 -1.382813,0 -2.320313,-1.07812505 -2.320313,-2.69531255 0,-1.6054687 0.9375,-2.6835937 2.320313,-2.6835937 z M 100.43613,-2.766 h 2.05078 c 0.51562,0 0.91406,-0.1523438 1.26562,-0.46875 0.38672,-0.3632813 0.5625,-0.7851563 0.5625,-1.3828125 0,-1.2304688 -0.72656,-1.921875 -2.01562,-1.921875 H 99.604094 V -3.75e-4 h 0.832036 z m 0,-0.7382813 v -2.296875 h 1.73437 c 0.79688,0 1.27734,0.4335938 1.27734,1.1484375 0,0.7148438 -0.48046,1.1484375 -1.27734,1.1484375 z m 6.37792,-3.0351562 -2.12109,6.71484375 h 0.49219 l 2.12109,-6.71484375 z m 1.14551,6.5390625 h 2.95313 c 0.62109,0 1.07812,-0.17578125 1.42969,-0.55078125 0.3164,-0.33984375 0.5039,-0.80859375 0.5039,-1.31250005 0,-0.7851562 -0.36328,-1.265625 -1.19531,-1.59375 0.58594,-0.2695312 0.90234,-0.7617187 0.90234,-1.4179687 0,-0.4804688 -0.17578,-0.9023438 -0.51562,-1.2070313 -0.33985,-0.3046875 -0.79688,-0.4570312 -1.41797,-0.4570312 h -2.66016 z m 0.84375,-3.7148438 v -2.0859375 h 1.60547 c 0.46875,0 0.72656,0.058594 0.94922,0.234375 0.23438,0.1757813 0.36328,0.4453125 0.36328,0.8085938 0,0.3515625 -0.1289,0.6210937 -0.36328,0.8085937 -0.22266,0.1640625 -0.48047,0.234375 -0.94922,0.234375 z m 0,2.97656255 V -2.9886563 h 2.02735 c 0.41015,0 0.67968,0.1054688 0.86718,0.3164063 0.19922,0.2109375 0.30469,0.4921875 0.30469,0.8203125 0,0.3046875 -0.10547,0.5976562 -0.30469,0.796875 -0.1875,0.22265625 -0.45703,0.31640625 -0.86718,0.31640625 z m 7.91309,-3.96093755 -1.30078,3.65625 -1.20703,-3.65625 h -0.79688 l 1.59375,4.7226563 -0.29297,0.73828125 C 114.5953,1.0894687 114.43124,1.218375 114.11484,1.218375 c -0.10547,0 -0.23438,-0.011719 -0.39844,-0.058594 v 0.6796875 c 0.15234,0.082031 0.30469,0.1171875 0.5039,0.1171875 0.2461,0 0.50391,-0.082031 0.70313,-0.2226562 0.23437,-0.1757813 0.36328,-0.375 0.50391,-0.75 l 2.09765,-5.6835938 z m 3.27539,0 h -0.76172 v -1.2890625 h -0.75 v 1.2890625 h -0.63281 v 0.609375 h 0.63281 v 3.5507813 c 0,0.48046875 0.32813,0.75 0.90234,0.75 0.1875,0 0.36329,-0.0234375 0.60938,-0.0703125 v -0.62109375 c -0.0937,0.0234375 -0.21094,0.0351563 -0.35156,0.0351563 -0.32813,0 -0.41016,-0.09375 -0.41016,-0.421875 V -4.0902188 h 0.76172 z m 4.81348,2.6015625 c 0,-0.7148437 -0.0469,-1.1484375 -0.1875,-1.5 -0.30469,-0.7734375 -1.01954,-1.2304687 -1.89844,-1.2304687 -1.30078,0 -2.14453,0.9960937 -2.14453,2.5429687 0,1.54687505 0.80859,2.4960938 2.13281,2.4960938 1.06641,0 1.81641,-0.609375 2.00391,-1.640625 h -0.75 c -0.21094,0.62109375 -0.63282,0.94921875 -1.23047,0.94921875 -0.48047,0 -0.87891,-0.22265625 -1.125,-0.60937505 -0.1875,-0.2695312 -0.2461,-0.5390625 -0.25782,-1.0078125 z m -3.4336,-0.609375 c 0.0586,-0.8671875 0.58594,-1.4296875 1.33594,-1.4296875 0.73828,0 1.30078,0.609375 1.30078,1.3710938 0,0.023437 0,0.035156 0,0.058594 z m 4.65821,4.6054688 c 0.90234,-1.171875 1.46484,-2.80078125 1.46484,-4.2070313 0,-1.4179687 -0.5625,-3.046875 -1.46484,-4.2304687 h -0.49219 c 0.78515,1.2890625 1.23047,2.7890625 1.23047,4.2304687 0,1.4179688 -0.44532,2.9414063 -1.23047,4.2070313 z m 0,0"
       style="fill:#000000;fill-opacity:1;fill-rule:nonzero;stroke:none"
       aria-label="ArithmeticIntensity(FLOP/Byte)"
       transform="matrix(1.3333333,0,0,1.3333333,365.02267,194.188)" />
    <path
       id="path4"
       d="M 0,0 V 126.56349"
       style="fill:none;stroke:#000000;stroke-width:0.99628;stroke-linecap:butt;stroke-linejoin:miter;stroke-miterlimit:10;stroke-dasharray:none;stroke-opacity:1"
       transform="matrix(1.3333333,0,0,-1.3333333,87.808,191.04933)" />
    <path
       id="path5"
       d="M -2.78957,3.47087 C -2.27992,1.38832 -1.14423,0.40492 0,0 -1.14423,-0.40492 -2.27992,-1.38832 -2.78957,-3.47087"
       style="fill:none;stroke:#000000;stroke-width:0.99628;stroke-linecap:round;stroke-linejoin:round;stroke-miterlimit:10;stroke-dasharray:none;stroke-opacity:1"
       transform="matrix(0,-1.3333333,-1.3333333,0,87.808,21.633827)" />
    <path
       id="path6"
       d="m 1.6418906,-2.9755703 h 3.5625 v -0.7382813 h -3.5625 V -5.7997891 H 5.3332969 V -6.5380703 H 0.80985938 V 9.921875e-4 H 5.4973594 V -0.73728906 H 1.6418906 Z M 6.6135703,-4.6982266 V 9.921875e-4 h 0.75 V -2.5888516 c 0,-0.9609375 0.5039063,-1.5820312 1.265625,-1.5820312 0.5976563,0 0.9726563,0.3515625 0.9726563,0.9140625 V 9.921875e-4 H 10.351852 V -3.5497891 c 0,-0.7734375 -0.5859379,-1.2773437 -1.4882817,-1.2773437 -0.703125,0 -1.1484375,0.2695312 -1.5703125,0.9140625 v -0.7851563 z m 8.9472657,2.6015625 c 0,-0.7148437 -0.04687,-1.1484375 -0.1875,-1.5 -0.304688,-0.7734375 -1.019531,-1.2304687 -1.898438,-1.2304687 -1.300781,0 -2.144531,0.9960937 -2.144531,2.5429687 0,1.54687504 0.808594,2.49609379 2.132813,2.49609379 1.066406,0 1.816406,-0.609375 2.003906,-1.64062499 h -0.75 c -0.210938,0.62109374 -0.632813,0.94921874 -1.230469,0.94921874 -0.480469,0 -0.878906,-0.22265625 -1.125,-0.60937504 -0.1875,-0.2695312 -0.246094,-0.5390625 -0.257812,-1.0078125 z m -3.433594,-0.609375 c 0.05859,-0.8671875 0.585938,-1.4296875 1.335938,-1.4296875 0.738281,0 1.300781,0.609375 1.300781,1.3710938 0,0.023437 0,0.035156 0,0.058594 z m 4.444336,-1.9921875 V 9.921875e-4 h 0.75 V -2.4365078 c 0,-0.6679688 0.175781,-1.1132813 0.527344,-1.3710938 0.234375,-0.1757812 0.457031,-0.2226562 0.984375,-0.234375 v -0.7617187 c -0.128906,-0.023437 -0.199219,-0.023437 -0.292969,-0.023437 -0.480469,0 -0.855469,0.28125 -1.277344,0.984375 v -0.8554688 z m 6.055664,0 v 0.6796875 c -0.375,-0.5507812 -0.832031,-0.8085937 -1.429687,-0.8085937 -1.195313,0 -2.003907,1.03125 -2.003907,2.5546875 0,0.7734375 0.210938,1.40624999 0.597657,1.85156249 0.351562,0.3984375 0.84375,0.6328125 1.335937,0.6328125 0.597656,0 1.007813,-0.2578125 1.429688,-0.84375 v 0.234375 c 0,0.64453125 -0.08203,1.03125 -0.269532,1.2890625 C 22.08818,1.1611484 21.701461,1.3252109 21.24443,1.3252109 c -0.339844,0 -0.644532,-0.082031 -0.84375,-0.2460937 C 20.224898,0.93849219 20.154586,0.82130469 20.107711,0.54005469 h -0.761719 c 0.08203,0.89062501 0.773438,1.41796871 1.875,1.41796871 0.703125,0 1.300781,-0.2226562 1.605469,-0.5976562 0.363281,-0.43359376 0.492187,-1.03125001 0.492187,-2.13281251 V -4.6982266 Z m -1.347656,0.5625 c 0.808594,0 1.277344,0.6796875 1.277344,1.8515625 0,1.125 -0.480469,1.80468754 -1.277344,1.80468754 -0.808594,0 -1.300781,-0.69140624 -1.300781,-1.82812504 0,-1.1367187 0.503906,-1.828125 1.300781,-1.828125 z m 6.123047,-0.5625 -1.300781,3.65625 -1.207032,-3.65625 h -0.796875 l 1.59375,4.72265629 -0.292968,0.73828125 C 25.281539,1.0908359 25.117477,1.2197422 24.80107,1.2197422 c -0.105468,0 -0.234375,-0.011719 -0.398437,-0.058594 v 0.6796875 c 0.152344,0.082031 0.304687,0.1171875 0.503906,0.1171875 0.246094,0 0.503906,-0.082031 0.703125,-0.2226562 0.234375,-0.1757813 0.363281,-0.375 0.503906,-0.75000001 l 2.097657,-5.68359379 z m 5.126953,1.7226563 h 3.5625 v -0.7382813 h -3.5625 v -2.0859375 h 3.691406 V -6.5380703 H 31.697555 V 9.921875e-4 h 4.6875 V -0.73728906 h -3.855469 z m 6.647461,-1.7226563 h -0.773438 v -0.7382812 c 0,-0.3046875 0.175782,-0.46875 0.515625,-0.46875 0.07031,0 0.09375,0 0.257813,0.011719 v -0.6210937 c -0.164063,-0.035156 -0.269531,-0.046875 -0.421875,-0.046875 -0.679688,0 -1.101563,0.3984375 -1.101563,1.0664062 v 0.796875 h -0.621093 v 0.609375 h 0.621093 V 9.921875e-4 h 0.75 V -4.0888516 h 0.773438 z m 2.446289,0 H 40.83818 v -0.7382812 c 0,-0.3046875 0.1875,-0.46875 0.527343,-0.46875 0.05859,0 0.08203,0 0.257813,0.011719 v -0.6210937 c -0.175781,-0.035156 -0.269531,-0.046875 -0.421875,-0.046875 -0.691406,0 -1.101563,0.3984375 -1.101563,1.0664062 v 0.796875 h -0.632812 v 0.609375 h 0.632812 V 9.921875e-4 H 40.83818 V -4.0888516 h 0.785156 z m 1.652344,0 h -0.75 V 9.921875e-4 h 0.75 z m 0,-1.8398437 h -0.75 v 0.9492187 h 0.75 z m 4.790039,3.421875 c -0.03516,-0.4570313 -0.128906,-0.75 -0.304688,-1.0195313 -0.328125,-0.4335937 -0.890625,-0.6914062 -1.546875,-0.6914062 -1.265625,0 -2.085937,0.9960937 -2.085937,2.5546875 0,1.52343749 0.808594,2.48437499 2.074219,2.48437499 1.125,0 1.828125,-0.6796875 1.921875,-1.82812499 h -0.75 c -0.128907,0.76171874 -0.515625,1.13671874 -1.148438,1.13671874 -0.832031,0 -1.324219,-0.67968754 -1.324219,-1.79296874 0,-1.171875 0.492188,-1.8632813 1.300782,-1.8632813 0.632812,0 1.019531,0.3632813 1.113281,1.0195313 z m 1.611328,-1.5820313 h -0.75 V 9.921875e-4 h 0.75 z m 0,-1.8398437 h -0.761719 v 0.9492187 h 0.761719 z m 5.235351,4.4414062 c 0,-0.7148437 -0.04687,-1.1484375 -0.1875,-1.5 -0.304687,-0.7734375 -1.019531,-1.2304687 -1.898437,-1.2304687 -1.300781,0 -2.144531,0.9960937 -2.144531,2.5429687 0,1.54687504 0.808593,2.49609379 2.132812,2.49609379 1.066406,0 1.816406,-0.609375 2.003906,-1.64062499 h -0.75 c -0.210937,0.62109374 -0.632812,0.94921874 -1.230468,0.94921874 -0.480469,0 -0.878907,-0.22265625 -1.125,-0.60937504 -0.1875,-0.2695312 -0.246094,-0.5390625 -0.257813,-1.0078125 z m -3.433593,-0.609375 c 0.05859,-0.8671875 0.585937,-1.4296875 1.335937,-1.4296875 0.738281,0 1.300781,0.609375 1.300781,1.3710938 0,0.023437 0,0.035156 0,0.058594 z m 4.458984,-1.9921875 V 9.921875e-4 h 0.75 V -2.5888516 c 0,-0.9609375 0.503906,-1.5820312 1.265625,-1.5820312 0.597656,0 0.972656,0.3515625 0.972656,0.9140625 V 9.921875e-4 h 0.75 V -3.5497891 c 0,-0.7734375 -0.585937,-1.2773437 -1.488281,-1.2773437 -0.703125,0 -1.148437,0.2695312 -1.570312,0.9140625 v -0.7851563 z m 8.572266,1.5820313 c -0.03516,-0.4570313 -0.128907,-0.75 -0.304688,-1.0195313 -0.328125,-0.4335937 -0.890625,-0.6914062 -1.546875,-0.6914062 -1.265625,0 -2.085937,0.9960937 -2.085937,2.5546875 0,1.52343749 0.808593,2.48437499 2.074218,2.48437499 1.125,0 1.828125,-0.6796875 1.921875,-1.82812499 h -0.75 c -0.128906,0.76171874 -0.515625,1.13671874 -1.148437,1.13671874 -0.832031,0 -1.324219,-0.67968754 -1.324219,-1.79296874 0,-1.171875 0.492188,-1.8632813 1.300781,-1.8632813 0.632813,0 1.019532,0.3632813 1.113282,1.0195313 z m 3.74414,-1.5820313 -1.300781,3.65625 -1.207031,-3.65625 h -0.796875 l 1.59375,4.72265629 -0.292969,0.73828125 c -0.117187,0.32812496 -0.28125,0.45703126 -0.597656,0.45703126 -0.105469,0 -0.234375,-0.011719 -0.398438,-0.058594 v 0.6796875 c 0.152344,0.082031 0.304688,0.1171875 0.503907,0.1171875 0.246093,0 0.503906,-0.082031 0.703125,-0.2226562 0.234375,-0.1757813 0.363281,-0.375 0.503906,-0.75000001 l 2.097656,-5.68359379 z m 5.616211,-1.8398437 c -0.902343,1.1835937 -1.464843,2.8125 -1.464843,4.21875 0,1.41796874 0.5625,3.04687499 1.464843,4.21875 h 0.492188 c -0.796875,-1.27734376 -1.230469,-2.78906251 -1.230469,-4.21875 0,-1.4296875 0.433594,-2.9414063 1.230469,-4.21875 z m 2.504883,3.5625 h 3.117188 V -3.7138516 H 76.375289 V -5.7997891 H 79.92607 V -6.5380703 H 75.543258 V 9.921875e-4 h 0.832031 z m 5.384766,-3.5625 H 80.928023 V 9.921875e-4 H 84.99443 V -0.73728906 h -3.234375 z m 6.93164,-0.1054688 c -1.875,0 -3.152343,1.3828125 -3.152343,3.421875 0,2.0507813 1.277343,3.43359379 3.152343,3.43359379 0.796875,0 1.5,-0.24609375 2.027344,-0.69140625 0.714844,-0.60937504 1.136719,-1.61718754 1.136719,-2.68359374 0,-2.109375 -1.253906,-3.4804688 -3.164063,-3.4804688 z m 0,0.7382813 c 1.40625,0 2.320313,1.078125 2.320313,2.71875 0,1.5820312 -0.9375,2.66015624 -2.320313,2.66015624 -1.382812,0 -2.320312,-1.07812504 -2.320312,-2.69531254 0,-1.6054687 0.9375,-2.6835937 2.320312,-2.6835937 z m 5.135743,3.140625 h 2.050781 c 0.515625,0 0.914062,-0.1523438 1.265625,-0.46875 0.386719,-0.3632813 0.5625,-0.7851563 0.5625,-1.3828125 0,-1.2304688 -0.726563,-1.921875 -2.015625,-1.921875 H 92.995406 V 9.921875e-4 h 0.832032 z m 0,-0.7382813 v -2.296875 h 1.734375 c 0.796875,0 1.277343,0.4335938 1.277343,1.1484375 0,0.7148438 -0.480468,1.1484375 -1.277343,1.1484375 z m 6.377932,-3.0351562 -2.121097,6.71484374 h 0.492188 l 2.121089,-6.71484374 z m 3.43066,0 v 4.6054687 c 0,0.515625 -0.0586,0.8085938 -0.21094,1.04296879 -0.16406,0.24609375 -0.46875,0.3984375 -0.79687,0.3984375 -0.62109,0 -0.97266,-0.421875 -0.97266,-1.18359379 v -0.421875 h -0.85547 v 0.5742188 c 0,1.05468749 0.70313,1.73437499 1.81641,1.73437499 1.13672,0 1.85156,-0.71484375 1.85156,-1.83984379 v -4.9101562 z m 3.93164,1.7109375 c -1.3125,0 -2.10937,0.9375 -2.10937,2.5195312 0,1.57031254 0.78515,2.51953129 2.12109,2.51953129 1.3125,0 2.12109,-0.94921875 2.12109,-2.48437499 0,-1.6289063 -0.77343,-2.5546875 -2.13281,-2.5546875 z m 0.0117,0.6914062 c 0.84375,0 1.34766,0.6796875 1.34766,1.8515625 0,1.1015625 -0.52735,1.80468754 -1.34766,1.80468754 -0.83203,0 -1.34766,-0.69140624 -1.34766,-1.82812504 0,-1.1367187 0.51563,-1.828125 1.34766,-1.828125 z M 114.4407,9.921875e-4 V -4.6982266 h -0.75 v 2.6601563 c 0,0.9609375 -0.50391,1.59374999 -1.27734,1.59374999 -0.59766,0 -0.97266,-0.36328125 -0.97266,-0.92578129 v -3.328125 h -0.73828 v 3.6210938 c 0,0.78515624 0.57422,1.28906249 1.48828,1.28906249 0.69141,0 1.13672,-0.24609375 1.57031,-0.8671875 V 9.921875e-4 Z M 116.4622,-6.5380703 h -0.75 V 9.921875e-4 h 0.75 z m 5.22364,4.4414062 c 0,-0.7148437 -0.0469,-1.1484375 -0.1875,-1.5 -0.30469,-0.7734375 -1.01954,-1.2304687 -1.89844,-1.2304687 -1.30078,0 -2.14453,0.9960937 -2.14453,2.5429687 0,1.54687504 0.80859,2.49609379 2.13281,2.49609379 1.06641,0 1.81641,-0.609375 2.00391,-1.64062499 h -0.75 c -0.21094,0.62109374 -0.63282,0.94921874 -1.23047,0.94921874 -0.48047,0 -0.87891,-0.22265625 -1.125,-0.60937504 -0.1875,-0.2695312 -0.2461,-0.5390625 -0.25782,-1.0078125 z m -3.4336,-0.609375 c 0.0586,-0.8671875 0.58594,-1.4296875 1.33594,-1.4296875 0.73828,0 1.30078,0.609375 1.30078,1.3710938 0,0.023437 0,0.035156 0,0.058594 z m 4.65821,4.6054688 c 0.90234,-1.17187501 1.46484,-2.80078126 1.46484,-4.2070313 0,-1.4179687 -0.5625,-3.046875 -1.46484,-4.2304687 h -0.49219 c 0.78515,1.2890625 1.23047,2.7890625 1.23047,4.2304687 0,1.41796879 -0.44532,2.94140629 -1.23047,4.2070313 z m 0,0"
       style="fill:#000000;fill-opacity:1;fill-rule:nonzero;stroke:none"
       aria-label="EnergyEffciency(FLOP/Joule)"
       transform="matrix(1.3333333,0,0,1.3333333,4.428,13.221333)" />
    <path
       id="path7"
       d="M 0,0 102.0478,102.0478"
       style="fill:none;stroke:#006395;stroke-width:0.99628;stroke-linecap:butt;stroke-linejoin:miter;stroke-miterlimit:10;stroke-dasharray:none;stroke-opacity:1"
       transform="matrix(1.3333333,0,0,-1.3333333,87.808,191.04933)" />
    <path
       id="path8"
       d="M 4.1926089,0.00153576 6.032209,-5.4675457 V 0.00153576 H 6.8277118 V -6.544789 H 5.6676036 L 3.7617116,-0.84368592 1.8226736,-6.544789 H 0.66256541 V 0.00153576 H 1.4580682 V -5.4675457 L 3.3142413,0.00153576 Z M 12.058557,-2.1053036 c 0,-0.7126379 -0.04972,-1.1435352 -0.182303,-1.4915676 -0.314886,-0.7789298 -1.027524,-1.2264001 -1.905892,-1.2264001 -1.292692,0 -2.1379137,0.9943784 -2.1379137,2.535665 0,1.54128661 0.8120758,2.5025191 2.1379137,2.5025191 1.06067,0 1.806454,-0.61320004 2.00533,-1.6407244 h -0.762357 c -0.198876,0.61320001 -0.629773,0.94465949 -1.2264,0.94465949 -0.4806163,0 -0.8783677,-0.21544866 -1.1269623,-0.61320009 C 8.67767,-1.3595197 8.6113781,-1.6246873 8.6113781,-2.1053036 Z m -3.4306059,-0.596627 c 0.066292,-0.8783677 0.5800541,-1.4418488 1.3424109,-1.4418488 0.729211,0 1.292692,0.6132001 1.292692,1.3755569 0,0.033146 0,0.033146 0,0.066292 z M 13.08401,-4.7051889 v 4.70672466 h 0.745783 V -2.9484536 c 0,-0.679492 0.49719,-1.2264001 1.11039,-1.2264001 0.546908,0 0.861794,0.3480324 0.861794,0.9446595 v 3.23172996 h 0.745784 V -2.9484536 c 0,-0.679492 0.497189,-1.2264001 1.110389,-1.2264001 0.546909,0 0.878368,0.3480324 0.878368,0.9446595 v 3.23172996 h 0.745784 V -3.5285077 c 0,-0.8452217 -0.480616,-1.292692 -1.358984,-1.292692 -0.629773,0 -1.010951,0.1823027 -1.441849,0.7126379 -0.28174,-0.5137622 -0.646346,-0.7126379 -1.259546,-0.7126379 -0.629773,0 -1.044097,0.2320216 -1.458422,0.7955028 v -0.679492 z m 9.27465,-0.1180824 c -1.309265,0 -2.104768,0.9280865 -2.104768,2.519092 0,1.55785961 0.77893,2.5190921 2.121341,2.5190921 1.309265,0 2.121341,-0.96123249 2.121341,-2.4859461 0,-1.6241515 -0.77893,-2.552238 -2.137914,-2.552238 z m 0.01657,0.6794919 c 0.845222,0 1.342411,0.6794919 1.342411,1.8561731 0,1.1103893 -0.530335,1.80645419 -1.342411,1.80645419 -0.828649,0 -1.358984,-0.69606489 -1.358984,-1.82302719 0,-1.1435352 0.530335,-1.8396001 1.358984,-1.8396001 z m 3.146794,-0.5614095 V 0.00153576 H 26.28438 V -2.4346914 c 0,-0.662919 0.16573,-1.1103893 0.530336,-1.3755569 0.232021,-0.1657297 0.44747,-0.2154486 0.977805,-0.2320216 v -0.7623568 c -0.132584,-0.016573 -0.198876,-0.016573 -0.298313,-0.016573 -0.480617,0 -0.845222,0.2817406 -1.276119,0.9778055 v -0.8617947 z m 6.121642,-0.00207 -1.292692,3.6626273 -1.209827,-3.6626273 H 28.345644 L 29.93665,0.01603871 29.638336,0.76182255 C 29.522328,1.0932804 29.356598,1.2258642 29.041712,1.2258642 c -0.09944,0 -0.232022,-0.016573 -0.397751,-0.066292 v 0.679492 c 0.149156,0.082865 0.298313,0.1160108 0.497189,0.1160108 0.248594,0 0.513762,-0.082865 0.712638,-0.2154487 0.232021,-0.1823027 0.364605,-0.3811784 0.497189,-0.76235679 l 2.104768,-5.68453011 z m 4.192962,4.7067246405 h 2.966563 c 0.6132,0 1.077243,-0.1823027105 1.425275,-0.5469081505 0.314887,-0.34803245 0.49719,-0.81207569 0.49719,-1.30926499 0,-0.7955027 -0.364606,-1.276119 -1.193254,-1.6075785 0.596627,-0.2651675 0.911513,-0.7623568 0.911513,-1.4087028 0,-0.4806162 -0.182303,-0.9115135 -0.530335,-1.2098271 C 39.582121,-6.3811293 39.118077,-6.546859 38.504877,-6.546859 H 35.836628 Z M 36.68185,-3.7128805 v -2.0881947 h 1.607579 c 0.464043,0 0.72921,0.066292 0.944659,0.2320216 0.248595,0.1823028 0.364605,0.4474703 0.364605,0.8120758 0,0.3480324 -0.11601,0.6132 -0.364605,0.8120757 -0.215449,0.1657297 -0.480616,0.2320216 -0.944659,0.2320216 z m 0,2.96656241 V -2.9836696 h 2.038476 c 0.397751,0 0.679492,0.099438 0.861795,0.3148865 0.198875,0.2154487 0.298313,0.4806163 0.298313,0.8120757 0,0.3148865 -0.09944,0.5966271 -0.298313,0.7955028 -0.182303,0.23202163 -0.464044,0.31488651 -0.861795,0.31488651 z m 6.873641,-4.07695161 c -1.309265,0 -2.104768,0.9280865 -2.104768,2.519092 0,1.55785961 0.77893,2.5190921 2.121341,2.5190921 1.309265,0 2.121341,-0.96123249 2.121341,-2.4859461 0,-1.6241515 -0.77893,-2.552238 -2.137914,-2.552238 z m 0.01657,0.6794919 c 0.845222,0 1.342411,0.6794919 1.342411,1.8561731 0,1.1103893 -0.530335,1.80645419 -1.342411,1.80645419 -0.828649,0 -1.358984,-0.69606489 -1.358984,-1.82302719 0,-1.1435352 0.530335,-1.8396001 1.358984,-1.8396001 z m 6.85914,4.14531516 V -4.7051873 h -0.745784 v 2.6682488 c 0,0.9612325 -0.513762,1.59100556 -1.276119,1.59100556 -0.596627,0 -0.977806,-0.36460543 -0.977806,-0.92808656 v -3.3311678 h -0.745783 v 3.6294813 c 0,0.77892983 0.580054,1.29269203 1.491567,1.29269203 0.696065,0 1.143535,-0.24859462 1.574433,-0.87836763 v 0.66291896 z m 1.288548,-4.70672466 v 4.70672466 h 0.745784 V -2.5838466 c 0,-0.9612325 0.513762,-1.5910055 1.276119,-1.5910055 0.596627,0 0.961233,0.3480324 0.961233,0.9115136 v 3.26487586 h 0.762357 V -3.5450791 c 0,-0.7789298 -0.596627,-1.276119 -1.491568,-1.276119 -0.696065,0 -1.143535,0.2651676 -1.574433,0.9115136 v -0.7955028 z m 8.798178,-1.8416717 h -0.745784 v 2.4528001 c -0.314886,-0.4806162 -0.812076,-0.7292108 -1.441849,-0.7292108 -1.2264,0 -2.021902,0.9612325 -2.021902,2.4693731 0,1.57443256 0.778929,2.568811 2.038475,2.568811 0.646346,0 1.11039,-0.24859461 1.508141,-0.8286487 v 0.6132000405 h 0.662919 z m -2.055049,2.4030812 c 0.795503,0 1.309265,0.7292109 1.309265,1.8396001 0,1.0938163 -0.513762,1.80645422 -1.309265,1.80645422 -0.828648,0 -1.375557,-0.72921082 -1.375557,-1.80645422 0,-1.1103892 0.546909,-1.8396001 1.375557,-1.8396001 z m 0,0"
       style="fill:#006395;fill-opacity:1;fill-rule:nonzero;stroke:none"
       aria-label="MemoryBound"
       transform="matrix(0.9428,-0.9428,0.9428,0.9428,121.67467,146.424)" />
    <path
       id="path9"
       d="M 102.0478,102.0478 H 204.09563"
       style="fill:none;stroke:#d9534f;stroke-width:0.99628;stroke-linecap:butt;stroke-linejoin:miter;stroke-miterlimit:10;stroke-dasharray:none;stroke-opacity:1"
       transform="matrix(1.3333333,0,0,-1.3333333,87.808,191.04933)" />
    <path
       id="path10"
       d="m 5.9299609,-4.5125391 c -0.2578125,-1.4296875 -1.078125,-2.1328125 -2.5195312,-2.1328125 -0.8789063,0 -1.5820313,0.28125 -2.0625,0.8203125 -0.59765626,0.6445313 -0.91406251,1.5703125 -0.91406251,2.6367188 0,1.0664062 0.328125,1.9921875 0.94921871,2.63671874 0.5039063,0.515625 1.1484375,0.76171875 1.9921875,0.76171875 1.6054688,0 2.4960938,-0.8671875 2.6953125,-2.58984379 H 5.2033984 c -0.070312,0.4453125 -0.1523437,0.75 -0.2929687,1.0078125 -0.2695313,0.53906254 -0.8203125,0.84375004 -1.5234375,0.84375004 -1.3007813,0 -2.1210938,-1.04296874 -2.1210938,-2.67187504 0,-1.6757812 0.7851563,-2.7070312 2.0507813,-2.7070312 0.5273437,0 1.0195312,0.1640625 1.2890625,0.4101562 0.2460937,0.2226563 0.375,0.5039063 0.4804687,0.984375 z m 2.9824219,-0.3164062 c -1.3125,0 -2.109375,0.9375 -2.109375,2.5195312 0,1.57031254 0.7851563,2.51953129 2.1210938,2.51953129 1.3125004,0 2.1210934,-0.94921875 2.1210934,-2.48437499 0,-1.6289063 -0.773437,-2.5546875 -2.1328122,-2.5546875 z m 0.011719,0.6914062 c 0.84375,0 1.3476562,0.6796875 1.3476562,1.8515625 0,1.1015625 -0.5273437,1.80468754 -1.3476562,1.80468754 -0.8320313,0 -1.3476563,-0.69140624 -1.3476563,-1.82812504 0,-1.1367187 0.515625,-1.828125 1.3476563,-1.828125 z m 3.1669922,-0.5625 v 4.6992187875 h 0.75 V -2.9539453 c 0,-0.6796875 0.492187,-1.21875 1.101562,-1.21875 0.550782,0 0.867188,0.3398437 0.867188,0.9375 v 3.2343749875 h 0.75 V -2.9539453 c 0,-0.6796875 0.492187,-1.21875 1.101562,-1.21875 0.550782,0 0.878907,0.3398437 0.878907,0.9375 v 3.2343749875 h 0.75 V -3.5281641 c 0,-0.84375 -0.480469,-1.3007812 -1.359375,-1.3007812 -0.632813,0 -1.007813,0.1875 -1.453125,0.7148437 -0.269532,-0.5039062 -0.644532,-0.7148437 -1.253907,-0.7148437 -0.632812,0 -1.042968,0.234375 -1.453125,0.796875 v -0.6679688 z m 7.318359,6.65625 h 0.761719 v -2.44921871 c 0.386719,0.48046875 0.832031,0.703125 1.441406,0.703125 1.207031,0 2.003906,-0.984375 2.003906,-2.48437499 0,-1.5703125 -0.773437,-2.5546875 -2.015625,-2.5546875 -0.632812,0 -1.148437,0.28125 -1.5,0.84375 v -0.7148438 h -0.691406 z m 2.0625,-6.09375 c 0.832031,0 1.371094,0.7265625 1.371094,1.8515625 0,1.0664063 -0.550781,1.79296879 -1.371094,1.79296879 -0.785156,0 -1.300781,-0.71484379 -1.300781,-1.81640629 0,-1.1015625 0.515625,-1.828125 1.300781,-1.828125 z m 6.764649,4.1367187875 V -4.7000391 h -0.75 v 2.6601563 c 0,0.9609375 -0.503907,1.59374999 -1.277344,1.59374999 -0.597656,0 -0.972656,-0.36328125 -0.972656,-0.92578129 v -3.328125 H 24.49832 v 3.6210938 c 0,0.78515624 0.574219,1.28906249 1.488282,1.28906249 0.691406,0 1.136718,-0.24609375 1.570312,-0.8671875 V -8.203125e-4 Z M 31.172148,-4.7000391 H 30.41043 v -1.2890625 h -0.75 v 1.2890625 h -0.632813 v 0.609375 h 0.632813 v 3.55078129 c 0,0.48046875 0.328125,0.75 0.902343,0.75 0.1875,0 0.363282,-0.0234375 0.609375,-0.0703125 v -0.62109375 c -0.09375,0.0234375 -0.210937,0.0351563 -0.351562,0.0351563 -0.328125,0 -0.410156,-0.09375 -0.410156,-0.421875 V -4.0906641 h 0.761718 z m 4.813477,2.6015625 c 0,-0.7148437 -0.04687,-1.1484375 -0.1875,-1.5 -0.304687,-0.7734375 -1.019531,-1.2304687 -1.898437,-1.2304687 -1.300782,0 -2.144532,0.9960937 -2.144532,2.5429687 0,1.54687504 0.808594,2.49609379 2.132813,2.49609379 1.066406,0 1.816406,-0.609375 2.003906,-1.64062499 h -0.75 c -0.210937,0.62109374 -0.632812,0.94921874 -1.230469,0.94921874 -0.480468,0 -0.878906,-0.22265625 -1.125,-0.60937504 -0.1875,-0.2695312 -0.246093,-0.5390625 -0.257812,-1.0078125 z m -3.433594,-0.609375 c 0.05859,-0.8671875 0.585938,-1.4296875 1.335938,-1.4296875 0.738281,0 1.300781,0.609375 1.300781,1.3710938 0,0.023437 0,0.035156 0,0.058594 z m 7.019532,2.7070312875 h 2.953125 c 0.621093,0 1.078125,-0.1757812475 1.429687,-0.5507812475 0.316406,-0.33984375 0.503906,-0.80859374 0.503906,-1.31250004 0,-0.7851562 -0.363281,-1.265625 -1.195312,-1.59375 0.585937,-0.2695312 0.902344,-0.7617187 0.902344,-1.4179687 0,-0.4804688 -0.175782,-0.9023438 -0.515625,-1.2070313 -0.339844,-0.3046875 -0.796875,-0.4570312 -1.417969,-0.4570312 H 39.571563 Z M 40.415313,-3.7156641 v -2.0859375 h 1.605468 c 0.46875,0 0.726563,0.058594 0.949219,0.234375 0.234375,0.1757813 0.363281,0.4453125 0.363281,0.8085938 0,0.3515625 -0.128906,0.6210937 -0.363281,0.8085937 -0.222656,0.1640625 -0.480469,0.234375 -0.949219,0.234375 z m 0,2.97656254 V -2.9891016 h 2.027343 c 0.410157,0 0.679688,0.1054688 0.867188,0.3164063 0.199219,0.2109375 0.304687,0.4921875 0.304687,0.8203125 0,0.3046875 -0.105468,0.5976562 -0.304687,0.796875 -0.1875,0.22265624 -0.457031,0.31640624 -0.867188,0.31640624 z m 6.873046,-4.08984374 c -1.3125,0 -2.109375,0.9375 -2.109375,2.5195312 0,1.57031254 0.785157,2.51953129 2.121094,2.51953129 1.3125,0 2.121094,-0.94921875 2.121094,-2.48437499 0,-1.6289063 -0.773438,-2.5546875 -2.132813,-2.5546875 z m 0.01172,0.6914062 c 0.84375,0 1.347656,0.6796875 1.347656,1.8515625 0,1.1015625 -0.527343,1.80468754 -1.347656,1.80468754 -0.832031,0 -1.347656,-0.69140624 -1.347656,-1.82812504 0,-1.1367187 0.515625,-1.828125 1.347656,-1.828125 z m 6.858399,4.1367187875 V -4.7000391 h -0.75 v 2.6601563 c 0,0.9609375 -0.503907,1.59374999 -1.277344,1.59374999 -0.597656,0 -0.972656,-0.36328125 -0.972656,-0.92578129 v -3.328125 h -0.738282 v 3.6210938 c 0,0.78515624 0.574219,1.28906249 1.488282,1.28906249 0.691406,0 1.136718,-0.24609375 1.570312,-0.8671875 V -8.203125e-4 Z M 55.453398,-4.7000391 v 4.6992187875 h 0.75 V -2.5906641 c 0,-0.9609375 0.503907,-1.5820312 1.265625,-1.5820312 0.597657,0 0.972657,0.3515625 0.972657,0.9140625 v 3.2578124875 h 0.75 V -3.5516016 c 0,-0.7734375 -0.585938,-1.2773437 -1.488282,-1.2773437 -0.703125,0 -1.148437,0.2695312 -1.570312,0.9140625 v -0.7851563 z m 8.794922,-1.8398437 h -0.75 v 2.4375 c -0.316406,-0.4804688 -0.808593,-0.7265625 -1.441406,-0.7265625 -1.21875,0 -2.015625,0.9726562 -2.015625,2.4726562 0,1.58203129 0.773438,2.56640629 2.039063,2.56640629 0.644531,0 1.101562,-0.24609375 1.5,-0.83203125 v 0.6210937475 h 0.667968 z m -2.0625,2.4023437 c 0.808594,0 1.3125,0.7265625 1.3125,1.8398438 0,1.0898437 -0.515625,1.80468749 -1.3125,1.80468749 -0.820312,0 -1.371093,-0.72656249 -1.371093,-1.81640629 0,-1.1015625 0.550781,-1.828125 1.371093,-1.828125 z m 0,0"
       style="fill:#d9534f;fill-opacity:1;fill-rule:nonzero;stroke:none"
       aria-label="ComputeBound"
       transform="matrix(1.3333333,0,0,1.3333333,248.70667,47.38)" />
    <path
       id="path11"
       d="m 103.8411,102.0478 c 0,0.99041 -0.80289,1.7933 -1.7933,1.7933 -0.99041,0 -1.79328,-0.80289 -1.79328,-1.7933 0,-0.99041 0.80287,-1.79328 1.79328,-1.79328 0.99041,0 1.7933,0.80287 1.7933,1.79328 z"
       style="fill:#000000;fill-opacity:1;fill-rule:nonzero;stroke:none"
       transform="matrix(1.3333333,0,0,-1.3333333,87.808,191.04933)" />
    <path
       id="path12"
       d="M 102.0478,0 V 102.0478"
       style="fill:none;stroke:#000000;stroke-width:0.3985;stroke-linecap:butt;stroke-linejoin:miter;stroke-miterlimit:10;stroke-dasharray:2.98883, 2.98883;stroke-dashoffset:0;stroke-opacity:1"
       transform="matrix(1.3333333,0,0,-1.3333333,87.808,191.04933)" />
    <path
       id="path13"
       d="m 1.6297969,-1.0560703 c -0.4335938,0.72656249 -0.83203127,0.74999999 -1.19531252,0.77343749 -0.0585938,0.0117188 -0.10546875,0.0820313 -0.10546875,0.1640625 0,0.05859375 0.0351563,0.1171875 0.12890625,0.1171875 0.17578125,0 0.59765622,-0.0234375 0.76171872,-0.0234375 0.1992188,0 0.6796875,0.0234375 0.8789063,0.0234375 0.058594,0 0.1757812,0 0.1757812,-0.1640625 0,-0.10546875 -0.1171875,-0.1171875 -0.140625,-0.1171875 -0.082031,0 -0.421875,-0.0234375 -0.421875,-0.29296875 0,-0.12890625 0.1054688,-0.29296875 0.1289063,-0.33984375 l 0.703125,-1.16015629 h 2.34375 c 0.023437,0.2109375 0.058594,0.515625 0.082031,0.7382813 0.035156,0.35156249 0.082031,0.74999999 0.082031,0.77343749 0,0.12890625 -0.1171875,0.28125 -0.6445313,0.28125 -0.082031,0 -0.1992187,0 -0.1992187,0.1640625 0,0.09375 0.070312,0.1171875 0.1289062,0.1171875 0.1757813,0 0.3867188,-0.0234375 0.5625,-0.0234375 0.1875,0 0.3984375,0 0.5390625,0 0.3046875,0 0.3164063,0 0.5273438,0 0.1523437,0.01171875 0.3515625,0.0234375 0.5039062,0.0234375 0.046875,0 0.1640625,0 0.1640625,-0.1640625 0,-0.1171875 -0.09375,-0.1171875 -0.1992187,-0.1171875 -0.5390625,0 -0.5507813,-0.0585938 -0.5742188,-0.31640625 L 5.2274531,-6.1771641 c -0.023437,-0.1992187 -0.023437,-0.2460937 -0.1757812,-0.2460937 -0.1289063,0 -0.1875,0.070312 -0.2578125,0.1875 z m 1.0898437,-1.2890625 1.8046875,-2.9648438 0.3398438,2.9648438 z M 10.31925,-5.4271641 c 0.09375,-0.3398437 0.117188,-0.421875 0.84375,-0.421875 0.164063,0 0.257813,0 0.257813,-0.1640625 0,-0.09375 -0.09375,-0.1054687 -0.140625,-0.1054687 -0.1875,0 -0.386719,0.011719 -0.574219,0.011719 -0.199219,0 -0.539063,0.011719 -0.609375,0.011719 -0.199219,0 -0.4101565,-0.011719 -0.6093752,-0.011719 -0.1992188,0 -0.4101563,-0.011719 -0.5859375,-0.011719 -0.058594,0 -0.1757813,0 -0.1757813,0.1523437 0,0.1171875 0.082031,0.1171875 0.2578125,0.1171875 0.1992188,0 0.4101563,0 0.5859375,0.070312 0.011719,0.035156 0.011719,0.070312 0.011719,0.082031 0,0.035156 -0.011719,0.140625 -0.023437,0.1757812 l -1.21875,4.83984379 c -0.070312,0.31640625 -0.09375,0.3984375 -0.7851563,0.3984375 -0.1992187,0 -0.2929687,0 -0.2929687,0.1640625 0,0.046875 0.011719,0.1171875 0.1289062,0.1171875 0.1875,0 0.375,-0.0234375 0.5742188,-0.0234375 0.1992187,0 0.4101562,0 0.609375,0 0.2109375,0 0.4101562,0 0.6210937,0 0.1875,0 0.3984375,0.0234375 0.5859375,0.0234375 0.058594,0 0.1757813,0 0.1757813,-0.1640625 0,-0.1171875 -0.09375,-0.1171875 -0.2695313,-0.1171875 -0.3398437,0 -0.5976562,0 -0.5976562,-0.15234375 0,-0.0703125 0,-0.0820312 0.035156,-0.2109375 z m 0,0"
       style="fill:#000000;fill-opacity:1;fill-rule:nonzero;stroke:none"
       aria-label="AI"
       transform="matrix(1.3333333,0,0,1.3333333,194.616,203.912)" />
    <path
       id="path14"
       d="m 2.7786875,-2.2981641 c -0.082031,0.023437 -0.28125,0.1171875 -0.28125,0.3398438 0,0.1523437 0.1054688,0.234375 0.234375,0.234375 0.140625,0 0.3515625,-0.1054688 0.3515625,-0.3984375 0,-0.3867188 -0.4570312,-0.515625 -0.84375,-0.515625 -0.9257812,0 -1.79296875,0.796875 -1.79296875,1.6289062 0,0.57421879 0.41015625,1.06640629 1.18359375,1.06640629 1.125,0 1.5585938,-0.59765625 1.5585938,-0.66796875 0,-0.046875 -0.070312,-0.1171875 -0.1171875,-0.1171875 -0.023437,0 -0.035156,0.0117188 -0.1289063,0.09375 -0.3164062,0.375 -0.8789062,0.4921875 -1.3007812,0.4921875 -0.4921875,0 -0.6679688,-0.31640625 -0.6679688,-0.66796875 0,-0.0117188 0.0117188,-0.71484379 0.421875,-1.21874999 0.082031,-0.1054688 0.3984375,-0.4101563 0.8554688,-0.4101563 0.023437,0 0.3398437,0 0.5273437,0.140625 z m 2.2617188,0.515625 c 0.011719,-0.035156 0.1523437,-0.3046875 0.3867187,-0.4921875 0.070312,-0.046875 0.2460938,-0.1640625 0.515625,-0.1640625 0.058594,0 0.2460938,0 0.4101563,0.09375 -0.1640625,0.046875 -0.2460938,0.1875 -0.2460938,0.3164063 0,0.1875 0.1523438,0.234375 0.234375,0.234375 0.1757813,0 0.3515625,-0.140625 0.3515625,-0.375 0,-0.3164063 -0.3515625,-0.46875 -0.7382812,-0.46875 -0.1523438,0 -0.515625,0.011719 -0.8789063,0.4335937 -0.09375,-0.3164062 -0.4101562,-0.4335937 -0.65625,-0.4335937 -0.2578125,0 -0.3984375,0.1757812 -0.4921875,0.3164062 -0.1289062,0.2226563 -0.2226562,0.5625 -0.2226562,0.5976563 0,0.070312 0.058594,0.09375 0.1054687,0.09375 0.09375,0 0.1054688,-0.046875 0.140625,-0.140625 0.1054688,-0.4570313 0.2460938,-0.6679688 0.4453125,-0.6679688 0.1875,0 0.2226563,0.1757813 0.2226563,0.2929688 0,0.1054687 -0.058594,0.3398437 -0.1054688,0.515625 -0.046875,0.1640625 -0.1054687,0.3984375 -0.1289062,0.5390625 -0.046875,0.14062499 -0.082031,0.30468749 -0.1171875,0.44531249 -0.046875,0.17578125 -0.1171875,0.46875 -0.1171875,0.50390625 0,0.12890625 0.1054687,0.19921875 0.2109375,0.19921875 0.1171875,0 0.234375,-0.08203125 0.2695312,-0.19921875 0.011719,-0.046875 0.234375,-0.94921874 0.2695313,-1.08984374 z m 5.3583987,0.2109375 c 0,-0.609375 -0.4687503,-1.0664062 -1.1601566,-1.0664062 -0.9023437,0 -1.78125,0.796875 -1.78125,1.6289062 0,0.64453129 0.5039063,1.06640629 1.1484375,1.06640629 0.9375,0 1.7929691,-0.80859375 1.7929691,-1.62890629 z m -1.7812503,1.42968754 c -0.3398438,0 -0.6445313,-0.2109375 -0.6445313,-0.66796875 0,-0.19921879 0.09375,-0.74999999 0.3398438,-1.10156249 0.2578125,-0.3632813 0.6210937,-0.5273438 0.9140625,-0.5273438 0.3046875,0 0.6445312,0.1757813 0.6445312,0.6679688 0,0.1523437 -0.058594,0.75 -0.3867187,1.18359374 -0.1875,0.234375 -0.5273438,0.4453125 -0.8671875,0.4453125 z M 13.392945,-2.2512891 c -0.175781,0.046875 -0.234375,0.1992188 -0.234375,0.28125 0,0.09375 0.07031,0.1992188 0.210938,0.1992188 0.117187,0 0.292969,-0.082031 0.292969,-0.3398438 0,-0.3984375 -0.457032,-0.5273437 -0.84375,-0.5273437 -0.914063,0 -1.136719,0.609375 -1.136719,0.8671875 0,0.4804687 0.550781,0.5742187 0.703125,0.5976562 0.445312,0.082031 0.796875,0.140625 0.796875,0.43359379 0,0.12890625 -0.105469,0.33984375 -0.316406,0.46875 -0.234375,0.1171875 -0.492188,0.12890625 -0.667969,0.12890625 -0.210938,0 -0.574219,-0.0234375 -0.75,-0.22265625 0.210937,-0.0351563 0.304687,-0.1875 0.304687,-0.33984375 0,-0.1171875 -0.08203,-0.22265625 -0.246093,-0.22265625 -0.152344,0 -0.339844,0.12890625 -0.339844,0.41015625 0,0.328125 0.328125,0.57421875 1.03125,0.57421875 1.113281,0 1.347656,-0.69140625 1.347656,-0.97265625 0,-0.18750004 -0.08203,-0.32812504 -0.222656,-0.44531254 -0.1875,-0.1757812 -0.410156,-0.2109375 -0.691406,-0.2578125 -0.292969,-0.046875 -0.585938,-0.09375 -0.585938,-0.328125 0,-0.011719 0,-0.4921875 0.761719,-0.4921875 0.152344,0 0.445312,0.023437 0.585937,0.1875 z m 3.492188,0 c -0.175781,0.046875 -0.234375,0.1992188 -0.234375,0.28125 0,0.09375 0.07031,0.1992188 0.210937,0.1992188 0.117188,0 0.292969,-0.082031 0.292969,-0.3398438 0,-0.3984375 -0.457031,-0.5273437 -0.84375,-0.5273437 -0.914062,0 -1.136719,0.609375 -1.136719,0.8671875 0,0.4804687 0.550782,0.5742187 0.703125,0.5976562 0.445313,0.082031 0.796875,0.140625 0.796875,0.43359379 0,0.12890625 -0.105468,0.33984375 -0.316406,0.46875 -0.234375,0.1171875 -0.492187,0.12890625 -0.667969,0.12890625 -0.210937,0 -0.574218,-0.0234375 -0.75,-0.22265625 0.210938,-0.0351563 0.304688,-0.1875 0.304688,-0.33984375 0,-0.1171875 -0.08203,-0.22265625 -0.246094,-0.22265625 -0.152344,0 -0.339844,0.12890625 -0.339844,0.41015625 0,0.328125 0.328125,0.57421875 1.03125,0.57421875 1.113282,0 1.347657,-0.69140625 1.347657,-0.97265625 0,-0.18750004 -0.08203,-0.32812504 -0.222657,-0.44531254 -0.1875,-0.1757812 -0.410156,-0.2109375 -0.691406,-0.2578125 -0.292969,-0.046875 -0.585937,-0.09375 -0.585937,-0.328125 0,-0.011719 0,-0.4921875 0.761718,-0.4921875 0.152344,0 0.445313,0.023437 0.585938,0.1875 z m 4.163086,0.6796875 c 0,-0.609375 -0.46875,-1.0664062 -1.160156,-1.0664062 -0.902344,0 -1.78125,0.796875 -1.78125,1.6289062 0,0.64453129 0.503906,1.06640629 1.148437,1.06640629 0.9375,0 1.792969,-0.80859375 1.792969,-1.62890629 z m -1.78125,1.42968754 c -0.339844,0 -0.644531,-0.2109375 -0.644531,-0.66796875 0,-0.19921879 0.09375,-0.74999999 0.339843,-1.10156249 0.257813,-0.3632813 0.621094,-0.5273438 0.914063,-0.5273438 0.304687,0 0.644531,0.1757813 0.644531,0.6679688 0,0.1523437 -0.05859,0.75 -0.386719,1.18359374 -0.1875,0.234375 -0.527343,0.4453125 -0.867187,0.4453125 z m 5.463867,-2.00390624 c 0,-0.4335938 -0.246094,-0.4921875 -0.316406,-0.4921875 -0.175782,0 -0.339844,0.1757812 -0.339844,0.328125 0,0.1054687 0.08203,0.1640625 0.117187,0.1992187 0.117188,0.09375 0.222657,0.234375 0.222657,0.4570313 0,0.3164062 -0.433594,1.51171874 -1.125,1.51171874 -0.527344,0 -0.527344,-0.41015625 -0.527344,-0.52734375 0,-0.2578125 0.09375,-0.52734379 0.351562,-1.17187499 0.04687,-0.1171875 0.05859,-0.1640625 0.05859,-0.28125 0,-0.328125 -0.304687,-0.515625 -0.597656,-0.515625 -0.609375,0 -0.902344,0.796875 -0.902344,0.9257812 0,0.023437 0.02344,0.082031 0.105469,0.082031 0.08203,0 0.105469,-0.035156 0.117187,-0.09375 0.175782,-0.5625 0.480469,-0.7148438 0.65625,-0.7148438 0.117188,0 0.164063,0.082031 0.164063,0.2109375 0,0.1289063 -0.08203,0.328125 -0.140625,0.4921875 -0.28125,0.6914063 -0.28125,0.86718754 -0.28125,0.99609379 0,0.6328125 0.550781,0.796875 0.972656,0.796875 0.996094,0 1.464844,-1.61718749 1.464844,-2.20312499 z m 1.854492,0.796875 c 0.386719,0 0.84375,-0.023437 1.160156,-0.1289063 0.515625,-0.1757812 0.539063,-0.5390625 0.539063,-0.6328125 0,-0.2929687 -0.28125,-0.5273437 -0.796875,-0.5273437 -0.738281,0 -1.746094,0.5273437 -1.746094,1.546875 0,0.63281249 0.410156,1.14843749 1.160156,1.14843749 1.113282,0 1.546875,-0.5859375 1.546875,-0.66796875 0,-0.046875 -0.07031,-0.1171875 -0.117187,-0.1171875 -0.02344,0 -0.03516,0.0117188 -0.128906,0.09375 -0.351563,0.41015625 -0.960938,0.4921875 -1.289063,0.4921875 -0.492187,0 -0.65625,-0.33984375 -0.65625,-0.7265625 0,-0.046875 0,-0.24609374 0.05859,-0.48046874 z m -0.210937,-0.1992188 c 0.199218,-0.703125 0.785156,-0.890625 1.113281,-0.890625 0.28125,0 0.527344,0.1289063 0.527344,0.3398438 0,0.5507812 -1.007813,0.5507812 -1.640625,0.5507812 z m 4.107422,-0.234375 c 0.01172,-0.035156 0.152343,-0.3046875 0.386718,-0.4921875 0.07031,-0.046875 0.246094,-0.1640625 0.515625,-0.1640625 0.05859,0 0.246094,0 0.410157,0.09375 -0.164063,0.046875 -0.246094,0.1875 -0.246094,0.3164063 0,0.1875 0.152344,0.234375 0.234375,0.234375 0.175781,0 0.351562,-0.140625 0.351562,-0.375 0,-0.3164063 -0.351562,-0.46875 -0.738281,-0.46875 -0.152344,0 -0.515625,0.011719 -0.878906,0.4335937 -0.09375,-0.3164062 -0.410156,-0.4335937 -0.65625,-0.4335937 -0.257813,0 -0.398438,0.1757812 -0.492188,0.3164062 -0.128906,0.2226563 -0.222656,0.5625 -0.222656,0.5976563 0,0.070312 0.05859,0.09375 0.105469,0.09375 0.09375,0 0.105469,-0.046875 0.140625,-0.140625 0.105469,-0.4570313 0.246094,-0.6679688 0.445312,-0.6679688 0.1875,0 0.222657,0.1757813 0.222657,0.2929688 0,0.1054687 -0.05859,0.3398437 -0.105469,0.515625 -0.04687,0.1640625 -0.105469,0.3984375 -0.128906,0.5390625 -0.04687,0.14062499 -0.08203,0.30468749 -0.117188,0.44531249 -0.04687,0.17578125 -0.117187,0.46875 -0.117187,0.50390625 0,0.12890625 0.105468,0.19921875 0.210937,0.19921875 0.117188,0 0.234375,-0.08203125 0.269531,-0.19921875 0.01172,-0.046875 0.234375,-0.94921874 0.269532,-1.08984374 z m 0,0"
       style="fill:#000000;fill-opacity:1;fill-rule:nonzero;stroke:none"
       aria-label="crossover"
       transform="matrix(1.3333333,0,0,1.3333333,209.20133,205.24)" />
    <path
       id="path15"
       d="M 0,0 102.0478,102.0478 V 0 Z"
       style="fill:#c8dcff;fill-opacity:0.3;fill-rule:nonzero;stroke:none"
       transform="matrix(1.3333333,0,0,-1.3333333,87.808,191.04933)" />
    <path
       id="path16"
       d="m 4.5105313,-1.6765625 c 0,-0.9257813 -0.8320313,-1.7226563 -1.8984375,-1.7226563 H 0.4206875 v 0.2109375 c 0.1171875,0 0.26953125,0 0.375,0.011719 0.17578125,0.023437 0.17578125,0.082031 0.17578125,0.2109375 v 2.53125 c 0,0.12890625 0,0.1875 -0.17578125,0.19921875 -0.10546875,0.0117188 -0.26953125,0.0117188 -0.375,0.0117188 V -7.81e-4 h 2.1914063 c 1.0546875,0 1.8984375,-0.75 1.8984375,-1.6757815 z m -0.5625,0 c 0,0.4453125 -0.09375,0.80859375 -0.3867188,1.078125 -0.1640625,0.1640625 -0.515625,0.375 -1.0898437,0.375 H 1.7331875 c -0.2460937,0 -0.2460937,-0.0234375 -0.2460937,-0.19921875 V -2.9890625 c 0,-0.1640625 0,-0.1992188 0.2460937,-0.1992188 h 0.7382813 c 0.5859375,0 0.9492187,0.2578125 1.078125,0.3867188 0.1875,0.1757812 0.3984375,0.4804687 0.3984375,1.125 z m 4.2158203,1.23046875 v -0.28125 H 7.9529141 v 0.26953125 c 0,0.046875 0,0.26953125 -0.1992188,0.26953125 -0.1992187,0 -0.1992187,-0.22265625 -0.1992187,-0.26953125 v -1.0195313 c 0,-0.4804687 -0.5039063,-0.75 -1.125,-0.75 -0.3046875,0 -0.8789063,0.011719 -0.8789063,0.4335938 0,0.1875 0.140625,0.2695312 0.2695313,0.2695312 0.1289062,0 0.2578125,-0.09375 0.2578125,-0.2695312 0,-0.1171875 -0.070312,-0.1875 -0.1171875,-0.2226563 0.1640625,-0.046875 0.4101562,-0.046875 0.46875,-0.046875 0.421875,0 0.6796875,0.234375 0.6796875,0.5859375 v 0.1289063 c -0.4804688,0.023437 -0.75,0.046875 -1.1367188,0.1757812 -0.328125,0.1171875 -0.609375,0.32812505 -0.609375,0.6445313 0,0.46875 0.5742188,0.5859375 0.9726563,0.5859375 0.3867187,0 0.6796875,-0.1640625 0.8320312,-0.41015625 0.023437,0.17578125 0.140625,0.38671875 0.3867188,0.38671875 0.035156,0 0.609375,0 0.609375,-0.48046875 z m -1.0546875,-0.2578125 c 0,0.5390625 -0.5976563,0.59765625 -0.7148438,0.59765625 -0.2929687,0 -0.5742187,-0.1640625 -0.5742187,-0.421875 0,-0.1640625 0.1054687,-0.6210938 1.2890625,-0.6679688 z m 3.4980469,0.0703125 V -0.903125 h -0.210938 v 0.2578125 c 0,0.375 -0.222656,0.515625 -0.3984371,0.515625 -0.375,0 -0.375,-0.3984375 -0.375,-0.50390625 V -1.9226563 H 10.501742 V -2.1453125 H 9.6228359 V -3.059375 H 9.4118984 c -0.011719,0.46875 -0.2578125,0.9492187 -0.7617187,0.9609375 v 0.1757812 h 0.5273437 v 1.28906255 c 0,0.57421875 0.46875,0.69140625 0.7734375,0.69140625 0.3750001,0 0.6562501,-0.28125 0.6562501,-0.69140625 z m 3.650391,0.1875 v -0.28125 h -0.210938 v 0.26953125 c 0,0.046875 0,0.26953125 -0.199219,0.26953125 -0.199218,0 -0.199218,-0.22265625 -0.199218,-0.26953125 v -1.0195313 c 0,-0.4804687 -0.503907,-0.75 -1.125,-0.75 -0.304688,0 -0.878907,0.011719 -0.878907,0.4335938 0,0.1875 0.140625,0.2695312 0.269532,0.2695312 0.128906,0 0.257812,-0.09375 0.257812,-0.2695312 0,-0.1171875 -0.07031,-0.1875 -0.117187,-0.2226563 0.164062,-0.046875 0.410156,-0.046875 0.46875,-0.046875 0.421875,0 0.679687,0.234375 0.679687,0.5859375 v 0.1289063 c -0.480469,0.023437 -0.75,0.046875 -1.136719,0.1757812 -0.328125,0.1171875 -0.609375,0.32812505 -0.609375,0.6445313 0,0.46875 0.574219,0.5859375 0.972657,0.5859375 0.386718,0 0.679687,-0.1640625 0.832031,-0.41015625 0.02344,0.17578125 0.140625,0.38671875 0.386719,0.38671875 0.03516,0 0.609375,0 0.609375,-0.48046875 z m -1.054688,-0.2578125 c 0,0.5390625 -0.597656,0.59765625 -0.714844,0.59765625 -0.292968,0 -0.574218,-0.1640625 -0.574218,-0.421875 0,-0.1640625 0.105468,-0.6210938 1.289062,-0.6679688 z m 9.105469,0.703125 V -0.2234375 h -0.152344 c -0.398437,0 -0.398437,-0.046875 -0.398437,-0.19921875 V -2.9773438 c 0,-0.1523437 0,-0.2109375 0.398437,-0.2109375 h 0.152344 v -0.2109375 h -0.960938 c -0.105468,0 -0.152343,0 -0.210937,0.1054688 l -1.347656,2.82421875 -1.335938,-2.81250005 c -0.05859,-0.1171875 -0.105469,-0.1171875 -0.210937,-0.1171875 h -0.960938 v 0.2109375 h 0.152344 c 0.398437,0 0.398437,0.058594 0.398437,0.2109375 v 2.4257813 c 0,0.12890625 0,0.328125 -0.550781,0.328125 v 0.22265625 c 0.222656,-0.01171875 0.445313,-0.0234375 0.667969,-0.0234375 0.140625,0 0.457031,0.01171875 0.667969,0.0234375 V -0.2234375 c -0.550782,0 -0.550782,-0.19921875 -0.550782,-0.328125 V -3.153125 l 1.441407,3.03515625 c 0.04687,0.08203125 0.08203,0.1171875 0.152343,0.1171875 0.09375,0 0.128907,-0.0703125 0.152344,-0.1171875 l 1.476563,-3.07031255 v 2.76562505 c 0,0.15234375 0,0.19921875 -0.398438,0.19921875 H 20.73807 v 0.22265625 l 0.785157,-0.0234375 z m 3.509765,-1.06640625 c 0,-0.6210938 -0.585937,-1.1601563 -1.359375,-1.1601563 -0.785156,0 -1.371093,0.5390625 -1.371093,1.1601563 0,0.59765625 0.585937,1.125 1.371093,1.125 0.773438,0 1.359375,-0.52734375 1.359375,-1.125 z m -0.492187,-0.046875 c 0,0.24609375 0,0.984375 -0.867188,0.984375 -0.878906,0 -0.878906,-0.73828125 -0.878906,-0.984375 0,-0.2226563 0,-0.9492188 0.878906,-0.9492188 0.867188,0 0.867188,0.7265625 0.867188,0.9492188 z m 3.931641,-0.8085938 v -0.2226562 c -0.128907,0.011719 -0.257813,0.023437 -0.433594,0.023437 0,0 -0.328125,-0.011719 -0.515625,-0.023437 v 0.2226562 c 0.140625,0 0.222656,0.058594 0.222656,0.1757813 0,0.046875 -0.02344,0.09375 -0.02344,0.09375 l -0.632813,1.2421875 -0.679687,-1.3359375 c -0.01172,-0.011719 -0.02344,-0.046875 -0.02344,-0.082031 0,-0.09375 0.164063,-0.09375 0.269531,-0.09375 v -0.2226562 c -0.234375,0.011719 -0.597656,0.023437 -0.632812,0.023437 -0.199219,0 -0.339844,0 -0.550781,-0.023437 v 0.2226562 c 0.292968,0 0.363281,0 0.445312,0.140625 l 0.878906,1.7226563 c 0.03516,0.0703125 0.05859,0.1171875 0.175782,0.1171875 0.117187,0 0.140625,-0.05859375 0.175781,-0.1171875 l 0.796875,-1.5703125 c 0.08203,-0.1640625 0.210937,-0.2929688 0.527344,-0.2929688 z m 2.827148,1.3242188 c 0,-0.0820313 -0.07031,-0.0820313 -0.09375,-0.0820313 -0.08203,0 -0.09375,0.0234375 -0.117187,0.09375 -0.140625,0.33984375 -0.515625,0.45703125 -0.785157,0.45703125 -0.410156,0 -0.632812,-0.22265625 -0.703125,-0.3046875 -0.199218,-0.234375 -0.199218,-0.55078125 -0.199218,-0.69140625 h 1.757812 c 0.105469,0 0.140625,0 0.140625,-0.1171875 0,-0.328125 -0.175781,-0.9843751 -1.101562,-0.9843751 -0.761719,0 -1.289063,0.5390626 -1.289063,1.1250001 0,0.6328125 0.597656,1.16015625 1.359375,1.16015625 0.796875,0 1.03125,-0.5625 1.03125,-0.65624995 z m -0.375,-0.6796875 h -1.511719 c 0.05859,-0.65625 0.539063,-0.7851563 0.773438,-0.7851563 0.691406,0 0.726562,0.6445313 0.738281,0.7851563 z m 5.830078,1.27734375 V -0.2234375 h -0.08203 c -0.328125,0 -0.328125,-0.046875 -0.328125,-0.19921875 V -1.5007813 c 0,-0.6210937 -0.46875,-0.703125 -0.84375,-0.703125 -0.492188,0 -0.773438,0.2460938 -0.914063,0.46875 -0.117187,-0.4570312 -0.632812,-0.46875 -0.808593,-0.46875 -0.515625,0 -0.808594,0.28125 -0.925782,0.4921875 v -0.4921875 l -0.820312,0.058594 v 0.2226562 c 0.363281,0 0.410156,0.023437 0.410156,0.2695313 v 1.23046875 c 0,0.15234375 0,0.19921875 -0.316406,0.19921875 h -0.09375 v 0.22265625 c 0.210937,-0.01171875 0.421875,-0.0234375 0.632812,-0.0234375 0.210938,0 0.421875,0.01171875 0.632813,0.0234375 V -0.2234375 h -0.08203 c -0.328125,0 -0.328125,-0.046875 -0.328125,-0.19921875 V -1.2898438 c 0,-0.5507812 0.503906,-0.75 0.832031,-0.75 0.363281,0 0.457031,0.2109375 0.457031,0.5273438 v 1.08984375 c 0,0.15234375 0,0.19921875 -0.328125,0.19921875 h -0.09375 v 0.22265625 c 0.222656,-0.01171875 0.421875,-0.0234375 0.644531,-0.0234375 0.210938,0 0.421875,0.01171875 0.632813,0.0234375 V -0.2234375 h -0.09375 c -0.328125,0 -0.328125,-0.046875 -0.328125,-0.19921875 V -1.2898438 c 0,-0.5507812 0.515625,-0.75 0.832031,-0.75 0.363281,0 0.457031,0.2109375 0.457031,0.5273438 v 1.08984375 c 0,0.15234375 0,0.19921875 -0.328125,0.19921875 h -0.08203 v 0.22265625 c 0.210938,-0.01171875 0.421875,-0.0234375 0.632813,-0.0234375 0.210937,0 0.421875,0.01171875 0.632812,0.0234375 z m 3.052735,-0.59765625 c 0,-0.0820313 -0.07031,-0.0820313 -0.09375,-0.0820313 -0.08203,0 -0.09375,0.0234375 -0.117188,0.09375 -0.140625,0.3398438 -0.515625,0.4570313 -0.785156,0.4570313 -0.410156,0 -0.632813,-0.22265625 -0.703125,-0.3046875 -0.199219,-0.234375 -0.199219,-0.55078125 -0.199219,-0.6914063 h 1.757813 c 0.105468,0 0.140625,0 0.140625,-0.1171875 0,-0.328125 -0.175782,-0.984375 -1.101563,-0.984375 -0.761719,0 -1.289062,0.5390625 -1.289062,1.125 0,0.63281255 0.597656,1.1601563 1.359375,1.1601563 0.796875,0 1.03125,-0.5625 1.03125,-0.65625 z m -0.375,-0.6796875 h -1.511719 c 0.05859,-0.65625 0.539062,-0.7851563 0.773437,-0.7851563 0.691407,0 0.726563,0.6445313 0.738282,0.7851563 z m 4.098632,1.27734375 V -0.2234375 h -0.08203 c -0.328125,0 -0.328125,-0.046875 -0.328125,-0.19921875 V -1.5007813 c 0,-0.5507812 -0.375,-0.703125 -0.832031,-0.703125 -0.539063,0 -0.820313,0.2929688 -0.925781,0.4921875 v -0.4921875 l -0.820313,0.058594 v 0.2226562 c 0.363281,0 0.410156,0.023437 0.410156,0.2695313 v 1.23046875 c 0,0.15234375 0,0.19921875 -0.316406,0.19921875 h -0.09375 v 0.22265625 c 0.210938,-0.01171875 0.421875,-0.0234375 0.632813,-0.0234375 0.210937,0 0.421875,0.01171875 0.632812,0.0234375 V -0.2234375 h -0.08203 c -0.328125,0 -0.328125,-0.046875 -0.328125,-0.19921875 V -1.2898438 c 0,-0.5625 0.515625,-0.75 0.832031,-0.75 0.363281,0 0.445313,0.2109375 0.445313,0.5273438 v 1.08984375 c 0,0.15234375 0,0.19921875 -0.316407,0.19921875 h -0.09375 v 0.22265625 c 0.210938,-0.01171875 0.421875,-0.0234375 0.632813,-0.0234375 0.210937,0 0.421875,0.01171875 0.632812,0.0234375 z m 2.375977,-0.6328125 V -0.903125 h -0.210938 v 0.2578125 c 0,0.375 -0.222656,0.515625 -0.398437,0.515625 -0.375,0 -0.375,-0.3984375 -0.375,-0.50390625 V -1.9226563 h 0.878906 V -2.1453125 H 45.707797 V -3.059375 h -0.210938 c -0.01172,0.46875 -0.257812,0.9492187 -0.761718,0.9609375 v 0.1757812 h 0.527343 v 1.28906255 c 0,0.57421875 0.46875,0.69140625 0.773438,0.69140625 0.375,0 0.65625,-0.28125 0.65625,-0.69140625 z m 7.347656,-1.04296875 c 0,-0.9257813 -0.832031,-1.7226563 -1.898437,-1.7226563 h -2.191407 v 0.2109375 c 0.117188,0 0.269532,0 0.375,0.011719 0.175782,0.023437 0.175782,0.082031 0.175782,0.2109375 v 2.53125 c 0,0.12890625 0,0.1875 -0.175782,0.19921875 -0.105468,0.0117188 -0.269531,0.0117188 -0.375,0.0117188 V -7.81e-4 h 2.191407 c 1.054687,0 1.898437,-0.75 1.898437,-1.6757815 z m -0.5625,0 c 0,0.4453125 -0.09375,0.80859375 -0.386719,1.078125 -0.164062,0.1640625 -0.515625,0.375 -1.089843,0.375 h -0.738282 c -0.246093,0 -0.246093,-0.0234375 -0.246093,-0.19921875 V -2.9890625 c 0,-0.1640625 0,-0.1992188 0.246093,-0.1992188 h 0.738282 c 0.585937,0 0.949218,0.2578125 1.078125,0.3867188 0.1875,0.1757812 0.398437,0.4804687 0.398437,1.125 z m 4.110352,0.609375 c 0,-0.6210938 -0.585938,-1.1601563 -1.359375,-1.1601563 -0.785157,0 -1.371094,0.5390625 -1.371094,1.1601563 0,0.59765625 0.585937,1.125 1.371094,1.125 0.773437,0 1.359375,-0.52734375 1.359375,-1.125 z m -0.492188,-0.046875 c 0,0.24609375 0,0.984375 -0.867187,0.984375 -0.878907,0 -0.878907,-0.73828125 -0.878907,-0.984375 0,-0.2226563 0,-0.9492188 0.878907,-0.9492188 0.867187,0 0.867187,0.7265625 0.867187,0.9492188 z m 5.958985,1.11328125 V -0.2234375 h -0.08203 c -0.328125,0 -0.328125,-0.046875 -0.328125,-0.19921875 V -1.5007813 c 0,-0.6210937 -0.46875,-0.703125 -0.84375,-0.703125 -0.492187,0 -0.773437,0.2460938 -0.914062,0.46875 -0.117188,-0.4570312 -0.632813,-0.46875 -0.808594,-0.46875 -0.515625,0 -0.808594,0.28125 -0.925781,0.4921875 v -0.4921875 l -0.820313,0.058594 v 0.2226562 c 0.363282,0 0.410157,0.023437 0.410157,0.2695313 v 1.23046875 c 0,0.15234375 0,0.19921875 -0.316407,0.19921875 h -0.09375 v 0.22265625 c 0.210938,-0.01171875 0.421875,-0.0234375 0.632813,-0.0234375 0.210937,0 0.421875,0.01171875 0.632812,0.0234375 V -0.2234375 h -0.08203 c -0.328125,0 -0.328125,-0.046875 -0.328125,-0.19921875 V -1.2898438 c 0,-0.5507812 0.503906,-0.75 0.832031,-0.75 0.363282,0 0.457032,0.2109375 0.457032,0.5273438 v 1.08984375 c 0,0.15234375 0,0.19921875 -0.328125,0.19921875 h -0.09375 v 0.22265625 c 0.222656,-0.01171875 0.421875,-0.0234375 0.644531,-0.0234375 0.210937,0 0.421875,0.01171875 0.632812,0.0234375 V -0.2234375 h -0.09375 c -0.328125,0 -0.328125,-0.046875 -0.328125,-0.19921875 V -1.2898438 c 0,-0.5507812 0.515625,-0.75 0.832032,-0.75 0.363281,0 0.457031,0.2109375 0.457031,0.5273438 v 1.08984375 c 0,0.15234375 0,0.19921875 -0.328125,0.19921875 h -0.08203 v 0.22265625 c 0.210937,-0.01171875 0.421875,-0.0234375 0.632812,-0.0234375 0.210938,0 0.421875,0.01171875 0.632813,0.0234375 z m 1.96289,0 V -0.2234375 c -0.339844,0 -0.375,0 -0.375,-0.19921875 V -2.2039063 l -0.820312,0.058594 v 0.2226562 c 0.351562,0 0.398437,0.023437 0.398437,0.2695313 v 1.23046875 c 0,0.15234375 0,0.19921875 -0.328125,0.19921875 h -0.09375 v 0.22265625 c 0.210938,-0.01171875 0.421875,-0.0234375 0.621094,-0.0234375 0.1875,0 0.410156,0.01171875 0.597656,0.0234373 z M 64.689242,-2.9890625 c 0,-0.1640625 -0.128906,-0.3046875 -0.304687,-0.3046875 -0.164063,0 -0.292969,0.140625 -0.292969,0.3046875 0,0.1640625 0.128906,0.3046875 0.292969,0.3046875 0.164062,0 0.304687,-0.140625 0.304687,-0.3046875 z m 4.104492,2.98828125 V -0.2234375 h -0.08203 c -0.328125,0 -0.328125,-0.046875 -0.328125,-0.19921875 V -1.5007813 c 0,-0.5507812 -0.375,-0.703125 -0.832031,-0.703125 -0.539063,0 -0.820313,0.2929688 -0.925781,0.4921875 v -0.4921875 l -0.820313,0.058594 v 0.2226562 c 0.363281,0 0.410156,0.023437 0.410156,0.2695313 v 1.23046875 c 0,0.15234375 0,0.19921875 -0.316406,0.19921875 h -0.09375 v 0.22265625 c 0.210938,-0.01171875 0.421875,-0.0234375 0.632813,-0.0234375 0.210937,0 0.421875,0.01171875 0.632812,0.0234375 V -0.2234375 h -0.08203 c -0.328125,0 -0.328125,-0.046875 -0.328125,-0.19921875 V -1.2898438 c 0,-0.5625 0.515625,-0.75 0.832031,-0.75 0.363281,0 0.445313,0.2109375 0.445313,0.5273438 v 1.08984375 c 0,0.15234375 0,0.19921875 -0.316407,0.19921875 h -0.09375 v 0.22265625 c 0.210938,-0.01171875 0.421875,-0.0234375 0.632813,-0.0234375 0.210937,0 0.421875,0.01171875 0.632812,0.0234375 z m 3.500977,-0.4453125 v -0.28125 h -0.210938 v 0.26953125 c 0,0.046875 0,0.26953125 -0.199218,0.26953125 -0.199219,0 -0.199219,-0.22265625 -0.199219,-0.26953125 v -1.0195313 c 0,-0.4804687 -0.503906,-0.75 -1.125,-0.75 -0.304688,0 -0.878906,0.011719 -0.878906,0.4335938 0,0.1875 0.140625,0.2695312 0.269531,0.2695312 0.128906,0 0.257812,-0.09375 0.257812,-0.2695312 0,-0.1171875 -0.07031,-0.1875 -0.117187,-0.2226563 0.164062,-0.046875 0.410156,-0.046875 0.46875,-0.046875 0.421875,0 0.679687,0.234375 0.679687,0.5859375 v 0.1289063 c -0.480468,0.023437 -0.75,0.046875 -1.136718,0.1757812 -0.328125,0.1171875 -0.609375,0.32812505 -0.609375,0.6445313 0,0.46875 0.574218,0.5859375 0.972656,0.5859375 0.386719,0 0.679687,-0.1640625 0.832031,-0.41015625 0.02344,0.17578125 0.140625,0.38671875 0.386719,0.38671875 0.03516,0 0.609375,0 0.609375,-0.48046875 z m -1.054688,-0.2578125 c 0,0.5390625 -0.597656,0.59765625 -0.714843,0.59765625 -0.292969,0 -0.574219,-0.1640625 -0.574219,-0.421875 0,-0.1640625 0.105469,-0.6210938 1.289062,-0.6679688 z m 3.498047,0.0703125 V -0.903125 h -0.210937 v 0.2578125 c 0,0.375 -0.222656,0.515625 -0.398438,0.515625 -0.375,0 -0.375,-0.3984375 -0.375,-0.50390625 V -1.9226563 h 0.878907 V -2.1453125 H 73.753695 V -3.059375 h -0.210937 c -0.01172,0.46875 -0.257813,0.9492187 -0.761719,0.9609375 v 0.1757812 h 0.527344 v 1.28906255 c 0,0.57421875 0.46875,0.69140625 0.773437,0.69140625 0.375,0 0.65625,-0.28125 0.65625,-0.69140625 z m 3.202149,0.0351563 c 0,-0.0820313 -0.07031,-0.0820313 -0.09375,-0.0820313 -0.08203,0 -0.09375,0.0234375 -0.117188,0.09375 -0.140625,0.33984375 -0.515625,0.45703125 -0.785156,0.45703125 -0.410156,0 -0.632812,-0.22265625 -0.703125,-0.3046875 -0.199219,-0.234375 -0.199219,-0.55078125 -0.199219,-0.6914063 h 1.757813 c 0.105469,0 0.140625,0 0.140625,-0.1171875 0,-0.328125 -0.175781,-0.984375 -1.101563,-0.984375 -0.761718,0 -1.289062,0.5390625 -1.289062,1.125 0,0.63281255 0.597656,1.1601563 1.359375,1.1601563 0.796875,0 1.03125,-0.5625 1.03125,-0.65624995 z m -0.375,-0.67968745 H 76.0535 c 0.05859,-0.6562501 0.539063,-0.7851564 0.773438,-0.7851564 0.691406,0 0.726562,0.6445313 0.738281,0.7851564 z m 3.079101,0.6445312 c 0,-0.22265625 -0.117187,-0.3867187 -0.316406,-0.5039062 -0.199219,-0.1289063 -0.339844,-0.140625 -0.761719,-0.2109375 -0.316406,-0.046875 -0.703125,-0.1054688 -0.703125,-0.3750001 0,-0.1757812 0.199219,-0.3632813 0.738282,-0.3632813 0.410156,0 0.65625,0.1640625 0.679687,0.515625 0.01172,0.070312 0.01172,0.1054688 0.105469,0.1054688 0.105469,0 0.105469,-0.035156 0.105469,-0.140625 v -0.4921875 c 0,-0.082031 0,-0.1289063 -0.08203,-0.1289063 -0.02344,0 -0.04687,0 -0.08203,0.035156 -0.02344,0.011719 -0.105469,0.09375 -0.128906,0.09375 0,0 -0.01172,0 -0.04687,-0.023437 -0.117188,-0.058594 -0.292969,-0.1054688 -0.550781,-0.1054688 -0.820313,0 -0.984375,0.375 -0.984375,0.5976563 0,0.46875 0.574218,0.5625 1.03125,0.63281255 0.292968,0.046875 0.75,0.1171875 0.75,0.45703125 0,0.17578125 -0.140625,0.43359375 -0.75,0.43359375 -0.339844,0 -0.667969,-0.12890625 -0.820313,-0.65625 -0.02344,-0.09375 -0.02344,-0.10546875 -0.105469,-0.10546875 -0.105468,0 -0.105468,0.0351563 -0.105468,0.140625 v 0.64453125 c 0,0.08203125 0,0.140625 0.08203,0.140625 0.03516,0 0.03516,-0.01171875 0.128906,-0.10546875 l 0.140625,-0.1171875 c 0.246094,0.2109375 0.5625,0.22265625 0.679688,0.22265625 0.832031,0 0.996093,-0.43359375 0.996093,-0.69140625 z m 0,0"
       style="fill:#006395;fill-opacity:1;fill-rule:nonzero;stroke:none"
       aria-label="DataMovementDominates"
       transform="matrix(1.3333333,0,0,1.3333333,118.84533,159.26667)" />
    <path
       id="path17"
       d="M 102.0478,0 V 102.0478 H 204.09563 V 0 Z"
       style="fill:#ffdcc8;fill-opacity:0.3;fill-rule:nonzero;stroke:none"
       transform="matrix(1.3333333,0,0,-1.3333333,87.808,191.04933)" />
    <path
       id="path18"
       d="M 4.5245312,-4.6875e-4 V -0.223125 H 4.395625 c -0.3046875,0 -0.375,-0.0234375 -0.4453125,-0.1640625 L 2.614375,-3.4340625 c -0.035156,-0.09375 -0.058594,-0.1289063 -0.1757813,-0.1289063 -0.082031,0 -0.1289062,0.011719 -0.1757812,0.1171875 L 0.98546875,-0.51609375 C 0.86828125,-0.27 0.59875,-0.223125 0.35265625,-0.223125 v 0.22265625 c 0.1875,-0.01171875 0.3984375,-0.0234375 0.57421875,-0.0234375 0.0703125,0 0.421875,0.01171875 0.65625,0.0234375 V -0.223125 c -0.28125,0 -0.3867188,-0.1171875 -0.3867188,-0.2109375 0,-0.0351563 0.011719,-0.046875 0.035156,-0.09375 L 1.489375,-1.11375 h 1.59375 l 0.3046875,0.703125 c 0.035156,0.0585938 0.035156,0.0703125 0.035156,0.0703125 0,0.1171875 -0.2929687,0.1171875 -0.4335937,0.1171875 v 0.22265625 l 0.8085937,-0.0234375 z M 2.989375,-1.3246875 H 1.583125 L 2.28625,-2.9301563 Z M 7.2784375,-1.86375 c 0,-0.1875 -0.1875,-0.3398438 -0.4453125,-0.3398438 -0.2460938,0 -0.5742188,0.1289063 -0.7617188,0.5507813 H 6.0596875 V -2.2035938 L 5.2628125,-2.145 v 0.2226562 c 0.375,0 0.421875,0.023437 0.421875,0.2695313 v 1.23046875 c 0,0.15234375 0,0.19921875 -0.328125,0.19921875 h -0.09375 V -4.6875e-4 C 5.47375,-0.0121875 5.6964062,-0.02390625 5.9073437,-0.02390625 l 0.7148438,0.0234375 V -0.223125 h -0.140625 c -0.375,0 -0.375,-0.046875 -0.375,-0.19921875 V -1.11375 c 0,-0.46875 0.2578125,-0.9140625 0.7382812,-0.9257813 0,0 -0.070312,0.070313 -0.070312,0.1757813 0,0.1875 0.140625,0.2578125 0.2460938,0.2578125 0.1289062,0 0.2578125,-0.082031 0.257812,-0.2578125 z M 9.2149609,-4.6875e-4 V -0.223125 c -0.3398437,0 -0.375,0 -0.375,-0.19921875 V -2.2035938 L 8.0196484,-2.145 v 0.2226562 c 0.3515625,0 0.3984375,0.023437 0.3984375,0.2695313 v 1.23046875 c 0,0.15234375 0,0.19921875 -0.328125,0.19921875 h -0.09375 v 0.22265625 c 0.2109375,-0.01171875 0.421875,-0.0234375 0.6210938,-0.0234375 0.1875,0 0.4101562,0.01171875 0.5976562,0.0234375 z M 8.8868359,-2.98875 c 0,-0.1640625 -0.1289062,-0.3046875 -0.3046875,-0.3046875 -0.1640625,0 -0.2929687,0.140625 -0.2929687,0.3046875 0,0.1640625 0.1289062,0.3046875 0.2929687,0.3046875 0.1640625,0 0.3046875,-0.140625 0.3046875,-0.3046875 z m 2.9208981,2.35546875 V -0.9028125 H 11.596797 V -0.645 c 0,0.375 -0.222656,0.515625 -0.398438,0.515625 -0.375,0 -0.375,-0.3984375 -0.375,-0.50390625 V -1.9223438 h 0.878907 V -2.145 h -0.878907 v -0.9140625 h -0.210937 c -0.01172,0.46875 -0.257813,0.9492187 -0.7617189,0.9609375 v 0.1757812 h 0.5273439 v 1.28906255 c 0,0.57421875 0.46875,0.69140625 0.773437,0.69140625 0.375,0 0.65625,-0.28125 0.65625,-0.69140625 z M 15.6925,-4.6875e-4 V -0.223125 h -0.08203 c -0.328125,0 -0.328125,-0.046875 -0.328125,-0.19921875 V -1.5004688 c 0,-0.5507812 -0.375,-0.703125 -0.832032,-0.703125 -0.574218,0 -0.832031,0.3398438 -0.914062,0.4570313 V -3.4575 l -0.832031,0.058594 v 0.2109375 c 0.363281,0 0.410156,0.035156 0.410156,0.28125 v 2.48437505 c 0,0.15234375 0,0.19921875 -0.316406,0.19921875 h -0.09375 v 0.22265625 c 0.210937,-0.01171875 0.421875,-0.0234375 0.632812,-0.0234375 0.210938,0 0.421875,0.01171875 0.632813,0.0234375 V -0.223125 h -0.08203 c -0.328125,0 -0.328125,-0.046875 -0.328125,-0.19921875 V -1.2895313 c 0,-0.5625 0.515625,-0.75 0.832032,-0.75 0.363281,0 0.445312,0.2109375 0.445312,0.5273438 v 1.08984375 c 0,0.15234375 0,0.19921875 -0.316406,0.19921875 h -0.09375 v 0.22265625 c 0.210937,-0.01171875 0.421875,-0.0234375 0.632812,-0.0234375 0.210938,0 0.421875,0.01171875 0.632813,0.0234375 z m 5.469727,0 V -0.223125 h -0.08203 c -0.328125,0 -0.328125,-0.046875 -0.328125,-0.19921875 V -1.5004688 c 0,-0.6210937 -0.46875,-0.703125 -0.84375,-0.703125 -0.492187,0 -0.773437,0.2460938 -0.914062,0.46875 -0.117188,-0.4570312 -0.632813,-0.46875 -0.808594,-0.46875 -0.515625,0 -0.808594,0.28125 -0.925781,0.4921875 V -2.2035938 L 16.43957,-2.145 v 0.2226562 c 0.363282,0 0.410157,0.023437 0.410157,0.2695313 v 1.23046875 c 0,0.15234375 0,0.19921875 -0.316407,0.19921875 h -0.09375 v 0.22265625 c 0.210938,-0.01171875 0.421875,-0.0234375 0.632813,-0.0234375 0.210937,0 0.421875,0.01171875 0.632812,0.0234375 V -0.223125 h -0.08203 c -0.328125,0 -0.328125,-0.046875 -0.328125,-0.19921875 V -1.2895313 c 0,-0.5507812 0.503906,-0.75 0.832031,-0.75 0.363282,0 0.457032,0.2109375 0.457032,0.5273438 v 1.08984375 c 0,0.15234375 0,0.19921875 -0.328125,0.19921875 h -0.09375 v 0.22265625 c 0.222656,-0.01171875 0.421875,-0.0234375 0.644531,-0.0234375 0.210937,0 0.421875,0.01171875 0.632812,0.0234375 V -0.223125 h -0.09375 c -0.328125,0 -0.328125,-0.046875 -0.328125,-0.19921875 V -1.2895313 c 0,-0.5507812 0.515625,-0.75 0.832032,-0.75 0.363281,0 0.457031,0.2109375 0.457031,0.5273438 v 1.08984375 c 0,0.15234375 0,0.19921875 -0.328125,0.19921875 h -0.08203 v 0.22265625 c 0.210937,-0.01171875 0.421875,-0.0234375 0.632812,-0.0234375 0.210938,0 0.421875,0.01171875 0.632813,0.0234375 z M 24.212031,-0.598125 c 0,-0.0820313 -0.07031,-0.0820313 -0.09375,-0.0820313 -0.08203,0 -0.09375,0.0234375 -0.117187,0.09375 -0.140625,0.33984375 -0.515625,0.45703125 -0.785157,0.45703125 -0.410156,0 -0.632812,-0.22265625 -0.703125,-0.3046875 -0.199218,-0.234375 -0.199218,-0.55078125 -0.199218,-0.69140625 h 1.757812 c 0.105469,0 0.140625,0 0.140625,-0.1171875 0,-0.328125 -0.175781,-0.984375 -1.101562,-0.984375 -0.761719,0 -1.289063,0.5390625 -1.289063,1.125 0,0.6328125 0.597656,1.16015625 1.359375,1.16015625 0.796875,0 1.03125,-0.5625 1.03125,-0.65624995 z m -0.375,-0.6796875 h -1.511719 c 0.05859,-0.65625 0.539063,-0.7851563 0.773438,-0.7851563 0.691406,0 0.726562,0.6445313 0.738281,0.7851563 z m 2.915039,0.64453125 V -0.9028125 H 26.541133 V -0.645 c 0,0.375 -0.222656,0.515625 -0.398438,0.515625 -0.375,0 -0.375,-0.3984375 -0.375,-0.50390625 V -1.9223438 h 0.878907 V -2.145 h -0.878907 v -0.9140625 h -0.210937 c -0.01172,0.46875 -0.257813,0.9492187 -0.761719,0.9609375 v 0.1757812 h 0.527344 v 1.28906255 c 0,0.57421875 0.46875,0.69140625 0.773437,0.69140625 0.375,0 0.65625,-0.28125 0.65625,-0.69140625 z m 2.115235,0.6328125 V -0.223125 c -0.339844,0 -0.375,0 -0.375,-0.19921875 V -2.2035938 L 27.671992,-2.145 v 0.2226562 c 0.351563,0 0.398438,0.023437 0.398438,0.2695313 v 1.23046875 c 0,0.15234375 0,0.19921875 -0.328125,0.19921875 h -0.09375 v 0.22265625 c 0.210937,-0.01171875 0.421875,-0.0234375 0.621093,-0.0234375 0.1875,0 0.410157,0.01171875 0.597657,0.0234375 z M 28.53918,-2.98875 c 0,-0.1640625 -0.128907,-0.3046875 -0.304688,-0.3046875 -0.164062,0 -0.292969,0.140625 -0.292969,0.3046875 0,0.1640625 0.128907,0.3046875 0.292969,0.3046875 0.164063,0 0.304688,-0.140625 0.304688,-0.3046875 z m 3.424804,2.390625 c 0,-0.0703125 -0.07031,-0.0703125 -0.09375,-0.0703125 -0.08203,0 -0.09375,0.0117188 -0.117187,0.0703125 -0.164063,0.421875 -0.527344,0.46875 -0.75,0.46875 -0.433594,0 -0.902344,-0.28125 -0.902344,-0.9492188 0,-0.2226562 0.04687,-0.4921875 0.234375,-0.703125 0.234375,-0.2695312 0.527344,-0.2695312 0.679688,-0.2695312 0.152343,0 0.292968,0 0.46875,0.046875 -0.07031,0.046875 -0.117188,0.1289062 -0.117188,0.2109375 0,0.1640625 0.128906,0.2695312 0.269531,0.2695312 0.117188,0 0.269532,-0.082031 0.269532,-0.2695312 0,-0.421875 -0.5625,-0.4335938 -0.902344,-0.4335938 -0.984375,0 -1.394531,0.65625 -1.394531,1.1484375 0,0.6210938 0.574218,1.1367188 1.335937,1.1367188 0.855469,0 1.019531,-0.609375 1.019531,-0.65625 z m 7.183594,-1.078125 c 0,-0.9257813 -0.832031,-1.7226563 -1.898437,-1.7226563 h -2.191407 v 0.2109375 c 0.117188,0 0.269532,0 0.375,0.011719 0.175782,0.023437 0.175782,0.082031 0.175782,0.2109375 v 2.53125 c 0,0.12890625 0,0.1875 -0.175782,0.19921875 -0.105468,0.0117188 -0.269531,0.0117188 -0.375,0.0117188 V -4.685e-4 h 2.191407 c 1.054687,0 1.898437,-0.75 1.898437,-1.6757815 z m -0.5625,0 c 0,0.4453125 -0.09375,0.80859375 -0.386719,1.078125 -0.164062,0.1640625 -0.515625,0.375 -1.089843,0.375 h -0.738282 c -0.246093,0 -0.246093,-0.0234375 -0.246093,-0.19921875 V -2.98875 c 0,-0.1640625 0,-0.1992188 0.246093,-0.1992188 h 0.738282 c 0.585937,0 0.949218,0.2578125 1.078125,0.3867188 0.1875,0.1757812 0.398437,0.4804687 0.398437,1.125 z m 4.110352,0.609375 c 0,-0.6210938 -0.585938,-1.1601563 -1.359375,-1.1601563 -0.785157,0 -1.371094,0.5390625 -1.371094,1.1601563 0,0.59765625 0.585937,1.125 1.371094,1.125 0.773437,0 1.359375,-0.52734375 1.359375,-1.125 z M 42.203242,-1.11375 c 0,0.24609375 0,0.984375 -0.867187,0.984375 -0.878907,0 -0.878907,-0.73828125 -0.878907,-0.984375 0,-0.2226563 0,-0.9492188 0.878907,-0.9492188 0.867187,0 0.867187,0.7265625 0.867187,0.9492188 z m 5.958985,1.11328125 V -0.223125 h -0.08203 c -0.328125,0 -0.328125,-0.046875 -0.328125,-0.19921875 V -1.5004688 c 0,-0.6210937 -0.46875,-0.703125 -0.84375,-0.703125 -0.492187,0 -0.773437,0.2460938 -0.914062,0.46875 -0.117188,-0.4570312 -0.632813,-0.46875 -0.808594,-0.46875 -0.515625,0 -0.808594,0.28125 -0.925781,0.4921875 V -2.2035938 L 43.43957,-2.145 v 0.2226562 c 0.363282,0 0.410157,0.023437 0.410157,0.2695313 v 1.23046875 c 0,0.15234375 0,0.19921875 -0.316407,0.19921875 h -0.09375 v 0.22265625 c 0.210938,-0.01171875 0.421875,-0.0234375 0.632813,-0.0234375 0.210937,0 0.421875,0.01171875 0.632812,0.0234375 V -0.223125 h -0.08203 c -0.328125,0 -0.328125,-0.046875 -0.328125,-0.19921875 V -1.2895313 c 0,-0.5507812 0.503906,-0.75 0.832031,-0.75 0.363282,0 0.457032,0.2109375 0.457032,0.5273438 v 1.08984375 c 0,0.15234375 0,0.19921875 -0.328125,0.19921875 h -0.09375 v 0.22265625 c 0.222656,-0.01171875 0.421875,-0.0234375 0.644531,-0.0234375 0.210937,0 0.421875,0.01171875 0.632812,0.0234375 V -0.223125 h -0.09375 c -0.328125,0 -0.328125,-0.046875 -0.328125,-0.19921875 V -1.2895313 c 0,-0.5507812 0.515625,-0.75 0.832032,-0.75 0.363281,0 0.457031,0.2109375 0.457031,0.5273438 v 1.08984375 c 0,0.15234375 0,0.19921875 -0.328125,0.19921875 h -0.08203 v 0.22265625 c 0.210937,-0.01171875 0.421875,-0.0234375 0.632812,-0.0234375 0.210938,0 0.421875,0.01171875 0.632813,0.0234375 z m 1.95996,0 V -0.223125 c -0.339843,0 -0.375,0 -0.375,-0.19921875 V -2.2035938 L 48.926875,-2.145 v 0.2226562 c 0.351562,0 0.398437,0.023437 0.398437,0.2695313 v 1.23046875 c 0,0.15234375 0,0.19921875 -0.328125,0.19921875 h -0.09375 v 0.22265625 c 0.210938,-0.01171875 0.421875,-0.0234375 0.621094,-0.0234375 0.1875,0 0.410156,0.01171875 0.597656,0.0234375 z M 49.794062,-2.98875 c 0,-0.1640625 -0.128906,-0.3046875 -0.304687,-0.3046875 -0.164063,0 -0.292969,0.140625 -0.292969,0.3046875 0,0.1640625 0.128906,0.3046875 0.292969,0.3046875 0.164062,0 0.304687,-0.140625 0.304687,-0.3046875 z m 4.104493,2.98828125 V -0.223125 h -0.08203 C 53.4884,-0.223125 53.4884,-0.27 53.4884,-0.42234375 V -1.5004688 c 0,-0.5507812 -0.375,-0.703125 -0.832031,-0.703125 -0.539062,0 -0.820312,0.2929688 -0.925781,0.4921875 V -2.2035938 L 50.910273,-2.145 v 0.2226562 c 0.363282,0 0.410157,0.023437 0.410157,0.2695313 v 1.23046875 c 0,0.15234375 0,0.19921875 -0.316407,0.19921875 h -0.09375 v 0.22265625 c 0.210938,-0.01171875 0.421875,-0.0234375 0.632813,-0.0234375 0.210937,0 0.421875,0.01171875 0.632812,0.0234375 V -0.223125 h -0.08203 c -0.328125,0 -0.328125,-0.046875 -0.328125,-0.19921875 V -1.2895313 c 0,-0.5625 0.515625,-0.75 0.832031,-0.75 0.363282,0 0.445313,0.2109375 0.445313,0.5273438 v 1.08984375 c 0,0.15234375 0,0.19921875 -0.316406,0.19921875 h -0.09375 v 0.22265625 c 0.210937,-0.01171875 0.421875,-0.0234375 0.632812,-0.0234375 0.210938,0 0.421875,0.01171875 0.632812,0.0234375 z m 3.500976,-0.4453125 v -0.28125 H 57.188594 V -0.4575 c 0,0.046875 0,0.26953125 -0.199219,0.26953125 -0.199219,0 -0.199219,-0.22265625 -0.199219,-0.26953125 v -1.0195313 c 0,-0.4804687 -0.503906,-0.75 -1.125,-0.75 -0.304687,0 -0.878906,0.011719 -0.878906,0.4335938 0,0.1875 0.140625,0.2695312 0.269531,0.2695312 0.128906,0 0.257813,-0.09375 0.257813,-0.2695312 0,-0.1171875 -0.07031,-0.1875 -0.117188,-0.2226563 0.164063,-0.046875 0.410156,-0.046875 0.46875,-0.046875 0.421875,0 0.679688,0.234375 0.679688,0.5859375 v 0.1289063 c -0.480469,0.023437 -0.75,0.046875 -1.136719,0.1757812 -0.328125,0.1171875 -0.609375,0.32812505 -0.609375,0.6445313 0,0.46875 0.574219,0.5859375 0.972656,0.5859375 0.386719,0 0.679688,-0.1640625 0.832031,-0.41015625 0.02344,0.17578125 0.140625,0.38671875 0.386719,0.38671875 0.03516,0 0.609375,0 0.609375,-0.48046875 z m -1.054687,-0.2578125 c 0,0.5390625 -0.597657,0.59765625 -0.714844,0.59765625 -0.292969,0 -0.574219,-0.1640625 -0.574219,-0.421875 0,-0.1640625 0.105469,-0.6210938 1.289063,-0.6679688 z m 3.498047,0.0703125 V -0.9028125 H 59.631953 V -0.645 c 0,0.375 -0.222656,0.515625 -0.398437,0.515625 -0.375,0 -0.375,-0.3984375 -0.375,-0.50390625 V -1.9223438 h 0.878906 V -2.145 h -0.878906 v -0.9140625 h -0.210938 c -0.01172,0.46875 -0.257812,0.9492187 -0.761719,0.9609375 v 0.1757812 h 0.527344 v 1.28906255 c 0,0.57421875 0.46875,0.69140625 0.773438,0.69140625 0.375,0 0.65625,-0.28125 0.65625,-0.69140625 z m 3.205078,0.0351563 c 0,-0.0820313 -0.07031,-0.0820313 -0.09375,-0.0820313 -0.08203,0 -0.09375,0.0234375 -0.117188,0.09375 -0.140625,0.33984375 -0.515625,0.45703125 -0.785156,0.45703125 -0.410156,0 -0.632813,-0.22265625 -0.703125,-0.3046875 -0.199219,-0.234375 -0.199219,-0.55078125 -0.199219,-0.6914063 h 1.757813 c 0.105468,0 0.140625,0 0.140625,-0.1171875 0,-0.328125 -0.175782,-0.984375 -1.101563,-0.984375 -0.761719,0 -1.289062,0.5390625 -1.289062,1.125 0,0.63281255 0.597656,1.1601563 1.359375,1.1601563 0.796875,0 1.03125,-0.5625 1.03125,-0.65624995 z m -0.375,-0.67968745 H 61.16125 c 0.05859,-0.65625 0.539062,-0.7851564 0.773437,-0.7851564 0.691407,0 0.726563,0.6445314 0.738282,0.7851564 z m 3.079101,0.6445312 c 0,-0.2226563 -0.117187,-0.3867188 -0.316406,-0.5039063 -0.199219,-0.1289063 -0.339844,-0.140625 -0.761719,-0.2109375 -0.316406,-0.046875 -0.703125,-0.1054688 -0.703125,-0.375 0,-0.1757813 0.199219,-0.3632813 0.738282,-0.3632813 0.410156,0 0.65625,0.1640625 0.679687,0.515625 0.01172,0.070312 0.01172,0.1054688 0.105469,0.1054688 0.105469,0 0.105469,-0.035156 0.105469,-0.140625 V -2.098125 c 0,-0.082031 0,-0.1289063 -0.08203,-0.1289063 -0.02344,0 -0.04687,0 -0.08203,0.035156 -0.02344,0.011719 -0.105469,0.09375 -0.128906,0.09375 0,0 -0.01172,0 -0.04687,-0.023437 -0.117188,-0.058594 -0.292969,-0.1054688 -0.550781,-0.1054688 -0.820313,0 -0.984375,0.375 -0.984375,0.5976563 0,0.46875 0.574218,0.5625 1.03125,0.6328125 0.292968,0.046875 0.75,0.1171875 0.75,0.45703125 0,0.17578125 -0.140625,0.43359375 -0.75,0.43359375 -0.339844,0 -0.667969,-0.12890625 -0.820313,-0.65625 -0.02344,-0.09375 -0.02344,-0.10546875 -0.105469,-0.10546875 -0.105468,0 -0.105468,0.0351563 -0.105468,0.140625 V -0.0825 c 0,0.08203125 0,0.140625 0.08203,0.140625 0.03516,0 0.03516,-0.01171875 0.128906,-0.10546875 l 0.140625,-0.1171875 c 0.246094,0.2109375 0.5625,0.22265625 0.679688,0.22265625 0.832031,0 0.996093,-0.43359375 0.996093,-0.69140625 z m 0,0"
       style="fill:#d9534f;fill-opacity:1;fill-rule:nonzero;stroke:none"
       aria-label="ArithmeticDominates"
       transform="matrix(1.3333333,0,0,1.3333333,247.82667,125.36)" />
    <path
       id="path19"
       d="m 28.33002,25.51193 c 0,1.5564 -1.26169,2.81809 -2.81809,2.81809 -1.55638,0 -2.81807,-1.26169 -2.81807,-2.81809 0,-1.55638 1.26169,-2.81807 2.81807,-2.81807 1.5564,0 2.81809,1.26169 2.81809,2.81807 z"
       style="fill:#d1f3ff;fill-opacity:1;fill-rule:nonzero;stroke:none"
       transform="matrix(1.3333333,0,0,-1.3333333,87.808,191.04933)" />
    <path
       id="path20"
       d="M 0.91435938,-1.6518828 H 2.8948281 V -2.0620391 H 0.91435938 V -3.2221953 H 2.9651406 V -3.6323516 H 0.44560938 V 4.609375e-4 H 3.0588906 V -0.40969531 H 0.91435938 Z M 4.0842813,-3.6323516 H 3.6624063 V 4.609375e-4 h 0.421875 z m 2.8974609,2.4726563 c 0,-0.3984375 -0.035156,-0.6445313 -0.1054688,-0.8320313 -0.1640625,-0.4335937 -0.5625,-0.6914062 -1.0546875,-0.6914062 -0.7265625,0 -1.1953125,0.5625 -1.1953125,1.4179687 0,0.85546879 0.4570313,1.38281254 1.1835938,1.38281254 0.5976562,0 1.0078125,-0.33984375 1.1132812,-0.9140625 H 6.5129922 c -0.1171875,0.3515625 -0.3515625,0.52734375 -0.6914063,0.52734375 -0.2578125,0 -0.4804687,-0.1171875 -0.6210937,-0.33984375 C 5.0950234,-0.76125781 5.0598672,-0.90188281 5.0598672,-1.1596953 Z M 5.0715859,-1.4995391 c 0.035156,-0.4921875 0.328125,-0.796875 0.75,-0.796875 0.3984375,0 0.7148438,0.3398438 0.7148438,0.7617188 0,0.011719 0,0.023437 0,0.035156 z M 7.5501016,-2.6128203 V 4.609375e-4 H 7.9602578 V -1.6401641 c 0,-0.375 0.28125,-0.6796875 0.6210938,-0.6796875 0.3046875,0 0.4804687,0.1875 0.4804687,0.5273438 V 4.609375e-4 h 0.421875 V -1.6401641 c 0,-0.375 0.2695313,-0.6796875 0.6093747,-0.6796875 0.304688,0 0.480469,0.1992188 0.480469,0.5273438 V 4.609375e-4 h 0.421875 V -1.9565703 c 0,-0.46875 -0.269531,-0.7265625 -0.761719,-0.7265625 -0.3398434,0 -0.5507809,0.1054687 -0.7968747,0.3984375 -0.1523437,-0.28125 -0.3632812,-0.3984375 -0.703125,-0.3984375 -0.3515625,0 -0.5742187,0.1289062 -0.8085937,0.4453125 v -0.375 z m 6.3515624,1.453125 c 0,-0.3984375 -0.03516,-0.6445313 -0.105469,-0.8320313 -0.164062,-0.4335937 -0.5625,-0.6914062 -1.054687,-0.6914062 -0.726563,0 -1.195313,0.5625 -1.195313,1.4179687 0,0.85546879 0.457032,1.38281254 1.183594,1.38281254 0.597656,0 1.007813,-0.33984375 1.113281,-0.9140625 h -0.410156 c -0.117187,0.3515625 -0.351562,0.52734375 -0.691406,0.52734375 -0.257813,0 -0.480469,-0.1171875 -0.621094,-0.33984375 -0.105469,-0.15234375 -0.140625,-0.29296875 -0.140625,-0.55078124 z m -1.910156,-0.3398438 c 0.03516,-0.4921875 0.328125,-0.796875 0.75,-0.796875 0.398437,0 0.714844,0.3398438 0.714844,0.7617188 0,0.011719 0,0.023437 0,0.035156 z m 2.478515,-1.1132812 V 4.609375e-4 H 14.88018 V -1.4409453 c 0,-0.5273438 0.28125,-0.8789063 0.714843,-0.8789063 0.328125,0 0.539063,0.1992188 0.539063,0.515625 V 4.609375e-4 h 0.410156 V -1.9682891 c 0,-0.4335937 -0.328125,-0.7148437 -0.832031,-0.7148437 -0.386719,0 -0.632813,0.1523437 -0.867188,0.515625 v -0.4453125 z m 3.682618,0 h -0.433594 v -0.7148438 h -0.410156 v 0.7148438 h -0.351563 v 0.3398437 h 0.351563 v 1.96875004 c 0,0.26953125 0.175781,0.421875 0.503906,0.421875 0.105469,0 0.199219,-0.0117188 0.339844,-0.03515625 v -0.3515625 c -0.05859,0.0117188 -0.117188,0.0234375 -0.199219,0.0234375 -0.175781,0 -0.234375,-0.0585937 -0.234375,-0.234375 V -2.2729766 h 0.433594 z m 1.538086,1.0546875 h -1.183594 v 0.3632812 h 1.183594 z M 22.684867,4.609375e-4 23.458305,-2.6128203 h -0.46875 L 22.47393,-0.57375781 21.958305,-2.6128203 h -0.503907 l -0.503906,2.03906249 -0.527344,-2.03906249 h -0.457031 l 0.75,2.6132812375 h 0.46875 L 21.688773,-2.0503203 22.216117,4.609375e-4 Z M 24.275688,-2.6128203 H 23.853813 V 4.609375e-4 h 0.421875 z m 0,-1.0195313 h -0.421875 v 0.5273438 h 0.421875 z m 2.537109,1.7460938 c 0,-0.5039063 -0.339844,-0.796875 -0.949219,-0.796875 -0.597656,0 -0.996094,0.3164062 -0.996094,0.796875 0,0.4101562 0.210938,0.5976562 0.832032,0.75 l 0.386718,0.09375 c 0.28125,0.0703125 0.398438,0.17578124 0.398438,0.36328124 0,0.24609375 -0.246094,0.41015625 -0.609375,0.41015625 -0.222656,0 -0.410156,-0.0585938 -0.515625,-0.17578125 -0.05859,-0.0703125 -0.09375,-0.15234375 -0.117188,-0.328125 h -0.445312 c 0.02344,0.59765625 0.363281,0.890625 1.042969,0.890625 0.65625,0 1.078125,-0.328125 1.078125,-0.83203125 0,-0.38671879 -0.222657,-0.59765629 -0.738282,-0.72656249 l -0.398437,-0.09375 c -0.339844,-0.082031 -0.480469,-0.1875 -0.480469,-0.375 0,-0.234375 0.210938,-0.3867188 0.550781,-0.3867188 0.339844,0 0.515625,0.140625 0.527344,0.4101563 z m 2.865234,0.7265625 c 0,-0.3984375 -0.03516,-0.6445313 -0.105468,-0.8320313 -0.164063,-0.4335937 -0.5625,-0.6914062 -1.054688,-0.6914062 -0.726562,0 -1.195312,0.5625 -1.195312,1.4179687 0,0.85546879 0.457031,1.38281254 1.183593,1.38281254 0.597657,0 1.007813,-0.33984375 1.113282,-0.9140625 h -0.410157 c -0.117187,0.3515625 -0.351562,0.52734375 -0.691406,0.52734375 -0.257812,0 -0.480469,-0.1171875 -0.621094,-0.33984375 -0.105468,-0.15234375 -0.140625,-0.29296875 -0.140625,-0.55078124 z m -1.910156,-0.3398438 c 0.03516,-0.4921875 0.328125,-0.796875 0.75,-0.796875 0.398438,0 0.714844,0.3398438 0.714844,0.7617188 0,0.011719 0,0.023437 0,0.035156 z m 0,0"
       style="fill:#000000;fill-opacity:1;fill-rule:nonzero;stroke:none"
       aria-label="Element-wise"
       transform="matrix(1.3333333,0,0,1.3333333,130.53867,159.36267)" />
    <path
       id="path21"
       d="m 155.8898,102.0478 c 0,1.5564 -1.26169,2.81809 -2.81808,2.81809 -1.55638,0 -2.81807,-1.26169 -2.81807,-2.81809 0,-1.55639 1.26169,-2.81808 2.81807,-2.81808 1.55639,0 2.81808,1.26169 2.81808,2.81808 z"
       style="fill:#fde2f0;fill-opacity:1;fill-rule:nonzero;stroke:none"
       transform="matrix(1.3333333,0,0,-1.3333333,87.808,191.04933)" />
    <path
       id="path22"
       d="M 2.33275,1.25e-4 3.3522813,-3.04675 V 1.25e-4 H 3.785875 V -3.6326875 H 3.1530625 L 2.098375,-0.468625 1.02025,-3.6326875 H 0.37571875 V 1.25e-4 H 0.8093125 V -3.04675 l 1.03125,3.046875 z M 6.8093125,-0.24596875 C 6.7741563,-0.23425 6.7507188,-0.23425 6.7272813,-0.23425 6.5749375,-0.23425 6.504625,-0.3045625 6.504625,-0.43346875 V -1.968625 c 0,-0.46875 -0.3398437,-0.7148438 -0.984375,-0.7148438 -0.375,0 -0.6914062,0.1054688 -0.8671875,0.3046875 -0.1171875,0.1289063 -0.1757812,0.28125 -0.1757812,0.5390625 H 4.8874375 C 4.9225938,-2.156125 5.1100938,-2.29675 5.5085313,-2.29675 c 0.3632812,0 0.5742187,0.140625 0.5742187,0.3867187 v 0.1054688 c 0,0.1757812 -0.1054687,0.2460937 -0.4335937,0.2929687 -0.5859375,0.070312 -0.6679688,0.09375 -0.8320313,0.1523438 -0.3046875,0.1289062 -0.4570312,0.36328125 -0.4570312,0.703125 0,0.46875 0.328125,0.7734375 0.8554687,0.7734375 0.328125,0 0.5976563,-0.1171875 0.890625,-0.38671875 0.023437,0.26953125 0.1523438,0.38671875 0.421875,0.38671875 0.082031,0 0.1523438,-0.0117188 0.28125,-0.046875 z M 6.08275,-0.8201875 c 0,0.140625 -0.035156,0.22265625 -0.1640625,0.33984375 -0.1640625,0.15234375 -0.375,0.234375 -0.609375,0.234375 -0.328125,0 -0.515625,-0.15234375 -0.515625,-0.421875 0,-0.26953125 0.1875,-0.41015625 0.6210938,-0.48046875 0.4453125,-0.058594 0.5273437,-0.082031 0.6679687,-0.140625 z M 8.1833359,-2.6131563 H 7.7497422 V -3.328 H 7.3395859 v 0.7148437 H 6.9880234 v 0.3398438 h 0.3515625 v 1.96875 c 0,0.26953125 0.1757813,0.421875 0.5039063,0.421875 0.1054687,0 0.1992187,-0.0117188 0.3398437,-0.03515625 v -0.3515625 c -0.058594,0.0117188 -0.1171875,0.0234375 -0.1992187,0.0234375 -0.1757813,0 -0.234375,-0.0585938 -0.234375,-0.234375 V -2.2733125 H 8.1833359 Z M 10.635484,1.25e-4 11.655016,-3.04675 V 1.25e-4 h 0.433593 V -3.6326875 H 11.455797 L 10.401109,-0.468625 9.3229844,-3.6326875 H 8.6784531 V 1.25e-4 H 9.1120469 V -3.04675 L 10.143297,1.25e-4 Z m 4.21875,0 v -2.6132813 h -0.410156 v 1.4882813 c 0,0.52734375 -0.28125,0.87890625 -0.714844,0.87890625 -0.328125,0 -0.539062,-0.19921875 -0.539062,-0.515625 V -2.6131563 h -0.410156 v 2.01562505 c 0,0.43359375 0.316406,0.71484375 0.832031,0.71484375 0.375,0 0.621094,-0.140625 0.867187,-0.48046875 V 1.25e-4 Z m 1.13086,-3.6328125 H 15.563219 V 1.25e-4 h 0.421875 z m 0,0"
       style="fill:#000000;fill-opacity:1;fill-rule:nonzero;stroke:none"
       aria-label="MatMul"
       transform="matrix(1.3333333,0,0,1.3333333,281.01467,68.437333)" />
  </g>
</svg>
