<?xml version="1.0" encoding="UTF-8" standalone="no"?>
<!-- Created with Inkscape (http://www.inkscape.org/) -->

<svg
   version="1.1"
   id="svg1"
   width="926.1427"
   height="250.05067"
   viewBox="0 0 926.1427 250.05067"
   xmlns="http://www.w3.org/2000/svg"
   xmlns:svg="http://www.w3.org/2000/svg">
  <defs
     id="defs1" />
  <g
     id="g1">
    <path
       id="path1"
       d="M 0.3736,0.3736 H 30.2619 V 34.38976 H 0.3736 Z"
       style="fill:#f7b4f7;fill-opacity:1;fill-rule:nonzero;stroke:#191919;stroke-width:0.74721;stroke-linecap:butt;stroke-linejoin:miter;stroke-miterlimit:10;stroke-dasharray:none;stroke-opacity:1"
       transform="matrix(1.3333333,0,0,-1.3333333,45.909333,102.15067)" />
    <path
       id="path2"
       d="M 2.1329453,-4.3833984 V -5.859375e-4 H 3.3868516 V -6.3521484 H 2.5548203 c -0.1992187,0.75 -0.8554687,1.1367187 -1.94531249,1.1367187 v 0.8320313 z m 5.5253906,1.3125 h -2.4375 v 1.21875 h 2.4375 z m 0.8408203,-3.46875 V -5.859375e-4 H 9.7530625 V -0.49277344 c 0.3046875,0.46875 0.7265625,0.703125 1.3359375,0.703125 1.160156,0 2.039062,-1.1015625 2.039062,-2.56640626 0,-0.65625 -0.199218,-1.3242187 -0.515625,-1.78125 -0.339843,-0.4804687 -0.925781,-0.7851562 -1.523437,-0.7851562 -0.597656,0 -1.03125,0.2226562 -1.3359375,0.703125 v -2.3203125 z m 2.3203128,2.671875 c 0.609375,0 1.054687,0.6210937 1.054687,1.5234375 0,0.8789062 -0.445312,1.49999996 -1.054687,1.49999996 -0.644532,0 -1.0664065,-0.60937496 -1.0664065,-1.53515626 0,-0.8789062 0.4335935,-1.4882812 1.0664065,-1.4882812 z m 4.482422,-0.9726563 h -1.253907 v 4.8398437625 h 1.253907 z m 0,-1.6992187 h -1.253907 v 1.125 h 1.253907 z m 3.336914,1.7929687 h -0.691407 v -1.3007812 h -1.265625 v 1.3007812 h -0.609375 v 0.8320313 h 0.609375 v 2.97656246 c 0,0.76171875 0.410157,1.1484375 1.230469,1.1484375 0.28125,0 0.503906,-0.0351563 0.726563,-0.10546875 v -0.87890625 c -0.117188,0.0234375 -0.199219,0.0351563 -0.28125,0.0351563 -0.339844,0 -0.410157,-0.10546875 -0.410157,-0.53906246 v -2.6367187 h 0.691407 z m 0,0"
       style="fill:#000000;fill-opacity:1;fill-rule:nonzero;stroke:none"
       aria-label="1-bit"
       transform="matrix(1.3333333,0,0,1.3333333,53.714667,74.7)" />
    <path
       id="path3"
       d="M 3.9261016,-3.3863438 C 3.9143828,-4.312125 3.3050078,-4.82775 2.2268828,-4.82775 c -1.1015625,0 -1.80468749,0.5625 -1.80468749,1.4296875 0,0.7382812 0.375,1.0898437 1.48828129,1.359375 l 0.703125,0.1640625 c 0.515625,0.1289062 0.7265625,0.3164062 0.7265625,0.65625 0,0.43359375 -0.4453125,0.73828125 -1.1015625,0.73828125 -0.3984375,0 -0.7382813,-0.1171875 -0.9257813,-0.31640625 C 1.1956328,-0.937125 1.1370391,-1.0660313 1.0901641,-1.3941563 H 0.30500781 c 0.0351563,1.07812505 0.64453125,1.6054688 1.87499999,1.6054688 1.1835938,0 1.9335938,-0.5859375 1.9335938,-1.4882813 0,-0.703125 -0.3984375,-1.0898437 -1.3242188,-1.3125 L 2.0745391,-2.76525 c -0.609375,-0.140625 -0.8671875,-0.3398438 -0.8671875,-0.6679688 0,-0.4335937 0.375,-0.703125 0.984375,-0.703125 0.609375,0 0.9257812,0.2578125 0.9492187,0.75 z m 1.9042968,-1.3125 h -0.75 V 3.75e-4 h 0.75 z m 0,-1.8398437 H 5.0686797 v 0.9492187 h 0.7617187 z m 4.3359376,1.8398437 v 0.6796875 C 9.7913359,-4.5699375 9.3343047,-4.82775 8.7366484,-4.82775 c -1.1953125,0 -2.0039062,1.03125 -2.0039062,2.5546875 0,0.7734375 0.2109375,1.40625 0.5976562,1.8515625 0.3515625,0.3984375 0.84375,0.6328125 1.3359375,0.6328125 0.5976563,0 1.0078125,-0.2578125 1.4296871,-0.84375 v 0.234375 c 0,0.64453125 -0.08203,1.03125 -0.2695308,1.2890625 C 9.6272734,1.1605312 9.2405547,1.3245937 8.7835234,1.3245937 8.4436797,1.3245937 8.1389922,1.2425625 7.9397734,1.0785 7.7639922,0.937875 7.6936797,0.8206875 7.6468047,0.5394375 H 6.8850859 c 0.082031,0.890625 0.7734375,1.4179687 1.875,1.4179687 0.703125,0 1.3007811,-0.2226562 1.6054691,-0.5976562 0.363281,-0.43359375 0.492187,-1.03125 0.492187,-2.1328125 v -3.9257813 z m -1.3476563,0.5625 c 0.8085937,0 1.2773433,0.6796875 1.2773433,1.8515625 0,1.125 -0.4804683,1.80468755 -1.2773433,1.80468755 -0.8085938,0 -1.3007813,-0.69140625 -1.3007813,-1.82812505 0,-1.1367187 0.5039063,-1.828125 1.3007813,-1.828125 z m 3.2724613,-0.5625 V 3.75e-4 h 0.75 v -2.5898438 c 0,-0.9609375 0.503906,-1.5820312 1.265625,-1.5820312 0.597656,0 0.972656,0.3515625 0.972656,0.9140625 V 3.75e-4 h 0.75 v -3.5507813 c 0,-0.7734375 -0.585938,-1.2773437 -1.488281,-1.2773437 -0.703125,0 -1.148438,0.2695312 -1.570313,0.9140625 v -0.7851563 z m 0,0"
       style="fill:#000000;fill-opacity:1;fill-rule:nonzero;stroke:none"
       aria-label="sign"
       transform="matrix(1.3333333,0,0,1.3333333,55.370667,89.312)" />
    <path
       id="path4"
       d="m 31.00911,0.3736 h 159.4043 V 34.38976 H 31.00911 Z"
       style="fill:#fde2f0;fill-opacity:1;fill-rule:nonzero;stroke:#191919;stroke-width:0.74721;stroke-linecap:butt;stroke-linejoin:miter;stroke-miterlimit:10;stroke-dasharray:none;stroke-opacity:1"
       transform="matrix(1.3333333,0,0,-1.3333333,45.909333,102.15067)" />
    <path
       id="path5"
       d="m 3.6689922,-3.4574375 c 0.2109375,-0.1171875 0.3164062,-0.1875 0.4101562,-0.2695313 0.2578125,-0.2460937 0.4101563,-0.6328125 0.4101563,-1.0429687 0,-0.9960938 -0.8554688,-1.7226563 -2.0273438,-1.7226563 -1.1835937,0 -2.05078121,0.7265625 -2.05078121,1.734375 0,0.609375 0.2578125,0.9960938 0.83203121,1.3007813 -0.73828121,0.3867187 -1.04296871,0.8789062 -1.04296871,1.6289062 0,1.19531255 0.92578121,2.03906255 2.26171871,2.03906255 1.3242188,0 2.25,-0.84375 2.25,-2.03906255 0,-0.75 -0.3046875,-1.2421875 -1.0429687,-1.6289062 z m -1.2070313,-2.015625 c 0.5625,0 0.9492188,0.3398437 0.9492188,0.8320312 0,0.4804688 -0.3984375,0.8320313 -0.9492188,0.8320313 -0.5507812,0 -0.9492187,-0.3515625 -0.9492187,-0.84375 0,-0.4804688 0.3867187,-0.8203125 0.9492187,-0.8203125 z m -0.011719,2.5195312 c 0.6210937,0 1.0078125,0.4101563 1.0078125,1.0664063 0,0.609375 -0.3984375,1.01953125 -1.0078125,1.01953125 -0.609375,0 -0.9960938,-0.41015625 -0.9960938,-1.03125005 0,-0.6445312 0.3984375,-1.0546875 0.9960938,-1.0546875 z m 5.2060547,-0.1171875 h -2.4375 v 1.21875 h 2.4375 z m 0.8408203,-3.46875 v 6.53906255 h 1.2539062 v -0.4921875 c 0.3046879,0.46875 0.7265629,0.703125 1.3359379,0.703125 1.160156,0 2.039062,-1.1015625 2.039062,-2.56640625 0,-0.65625 -0.199218,-1.3242188 -0.515625,-1.78125 -0.339843,-0.4804688 -0.925781,-0.7851563 -1.523437,-0.7851563 -0.597656,0 -1.03125,0.2226563 -1.3359379,0.703125 v -2.3203125 z m 2.3203131,2.671875 c 0.609375,0 1.054687,0.6210938 1.054687,1.5234375 0,0.8789063 -0.445312,1.50000005 -1.054687,1.50000005 -0.644532,0 -1.0664069,-0.60937505 -1.0664069,-1.53515625 0,-0.8789063 0.4335939,-1.4882813 1.0664069,-1.4882813 z M 15.299852,-4.84025 h -1.253907 v 4.83984375 h 1.253907 z m 0,-1.6992188 h -1.253907 v 1.125 h 1.253907 z M 18.636766,-4.7465 H 17.945359 V -6.0472813 H 16.679734 V -4.7465 h -0.609375 v 0.8320312 h 0.609375 v 2.97656255 c 0,0.76171875 0.410157,1.1484375 1.230469,1.1484375 0.28125,0 0.503906,-0.0351563 0.726563,-0.10546875 v -0.87890625 c -0.117188,0.0234375 -0.199219,0.0351563 -0.28125,0.0351563 -0.339844,0 -0.410157,-0.10546875 -0.410157,-0.53906245 v -2.6367189 h 0.691407 z m 0,0"
       style="fill:#000000;fill-opacity:1;fill-rule:nonzero;stroke:none"
       aria-label="8-bit"
       transform="matrix(1.3333333,0,0,1.3333333,154.83067,82.078667)" />
    <path
       id="path6"
       d="m 4.5937188,-2.0980625 c 0,-0.7148438 -0.046875,-1.1484375 -0.1875,-1.5 C 4.1015313,-4.3715 3.3866875,-4.8285313 2.5077813,-4.8285313 c -1.3007813,0 -2.1445313,0.9960938 -2.1445313,2.5429688 0,1.546875 0.8085938,2.49609375 2.1328125,2.49609375 1.0664063,0 1.8164063,-0.609375 2.0039063,-1.64062505 h -0.75 C 3.5390313,-0.809 3.1171563,-0.480875 2.5195,-0.480875 c -0.4804687,0 -0.8789062,-0.22265625 -1.125,-0.609375 C 1.207,-1.3597813 1.1484063,-1.6293125 1.1366875,-2.0980625 Z M 1.160125,-2.7074375 C 1.218719,-3.574625 1.7460625,-4.137125 2.4960625,-4.137125 c 0.7382813,0 1.3007813,0.609375 1.3007813,1.3710937 0,0.023437 0,0.035156 0,0.058594 z m 6.1699219,0.28125 1.5820312,-2.2734375 h -0.84375 l -1.125,1.6992187 -1.1367187,-1.6992187 h -0.84375 L 6.5331719,-2.3910313 4.8691094,-4.0625e-4 H 5.7245781 L 6.9081719,-1.8050938 8.0917656,-4.0625e-4 H 8.9589531 Z M 9.6796563,1.956625 h 0.7617187 v -2.44921875 c 0.386719,0.48046875 0.832031,0.703125 1.441406,0.703125 1.207032,0 2.003907,-0.984375 2.003907,-2.48437505 0,-1.5703125 -0.773438,-2.5546875 -2.015625,-2.5546875 -0.632813,0 -1.148438,0.28125 -1.5,0.84375 V -4.699625 H 9.6796563 Z m 2.0624997,-6.09375 c 0.832032,0 1.371094,0.7265625 1.371094,1.8515625 0,1.0664062 -0.550781,1.79296875 -1.371094,1.79296875 -0.785156,0 -1.300781,-0.71484375 -1.300781,-1.81640625 0,-1.1015625 0.515625,-1.828125 1.300781,-1.828125 z m 4.88086,-0.6914063 c -1.3125,0 -2.109375,0.9375 -2.109375,2.5195313 0,1.5703125 0.785156,2.51953125 2.121093,2.51953125 1.3125,0 2.121094,-0.94921875 2.121094,-2.48437505 0,-1.6289062 -0.773437,-2.5546875 -2.132812,-2.5546875 z m 0.01172,0.6914063 c 0.84375,0 1.347657,0.6796875 1.347657,1.8515625 0,1.1015625 -0.527344,1.8046875 -1.347657,1.8046875 -0.832031,0 -1.347656,-0.6914063 -1.347656,-1.828125 0,-1.1367188 0.515625,-1.828125 1.347656,-1.828125 z m 3.166993,-0.5625 v 4.69921875 h 0.75 V -2.59025 c 0,-0.9609375 0.503906,-1.5820313 1.265625,-1.5820313 0.597656,0 0.972656,0.3515625 0.972656,0.9140625 v 3.25781255 h 0.75 V -3.5511875 c 0,-0.7734375 -0.585938,-1.2773438 -1.488281,-1.2773438 -0.703125,0 -1.148438,0.2695313 -1.570313,0.9140625 V -4.699625 Z m 8.947265,2.6015625 c 0,-0.7148438 -0.04687,-1.1484375 -0.1875,-1.5 -0.304687,-0.7734375 -1.019531,-1.2304688 -1.898437,-1.2304688 -1.300782,0 -2.144532,0.9960938 -2.144532,2.5429688 0,1.546875 0.808594,2.49609375 2.132813,2.49609375 1.066406,0 1.816406,-0.609375 2.003906,-1.64062505 h -0.75 C 27.694305,-0.809 27.27243,-0.480875 26.674773,-0.480875 c -0.480468,0 -0.878906,-0.22265625 -1.125,-0.609375 -0.1875,-0.2695313 -0.246093,-0.5390625 -0.257812,-1.0078125 z M 25.3154,-2.7074375 c 0.05859,-0.8671875 0.585938,-1.4296875 1.335938,-1.4296875 0.738281,0 1.300781,0.609375 1.300781,1.3710937 0,0.023437 0,0.035156 0,0.058594 z m 4.458985,-1.9921875 v 4.69921875 h 0.75 V -2.59025 c 0,-0.9609375 0.503906,-1.5820313 1.265625,-1.5820313 0.597656,0 0.972656,0.3515625 0.972656,0.9140625 v 3.25781255 h 0.75 V -3.5511875 c 0,-0.7734375 -0.585937,-1.2773438 -1.488281,-1.2773438 -0.703125,0 -1.148438,0.2695313 -1.570313,0.9140625 V -4.699625 Z m 6.624023,0 H 35.63669 v -1.2890625 h -0.75 v 1.2890625 h -0.632813 v 0.609375 h 0.632813 v 3.55078125 c 0,0.48046875 0.328125,0.75 0.902343,0.75 0.1875,0 0.363282,-0.0234375 0.609375,-0.0703125 V -0.480875 c -0.09375,0.0234375 -0.210937,0.0351563 -0.351562,0.0351563 -0.328125,0 -0.410156,-0.09375 -0.410156,-0.421875 V -4.09025 h 0.761718 z m 0,0"
       style="fill:#000000;fill-opacity:1;fill-rule:nonzero;stroke:none"
       aria-label="exponent"
       transform="matrix(1.3333333,0,0,1.3333333,183.39067,82.078667)" />
    <path
       id="path7"
       d="M 191.16061,0.3736 H 659.41073 V 34.38976 H 191.16061 Z"
       style="fill:#eca9a7;fill-opacity:1;fill-rule:nonzero;stroke:#191919;stroke-width:0.74721;stroke-linecap:butt;stroke-linejoin:miter;stroke-miterlimit:10;stroke-dasharray:none;stroke-opacity:1"
       transform="matrix(1.3333333,0,0,-1.3333333,45.909333,102.15067)" />
    <path
       id="path8"
       d="M 4.5930156,-1.1247109 H 1.8977031 c 0.1640625,-0.3398438 0.3632813,-0.515625 1.2890625,-1.1953125 1.1015625,-0.8085938 1.4296875,-1.2890625 1.4296875,-2.15625 0,-1.2304688 -0.84375,-2.015625 -2.1796875,-2.015625 -1.3125,0 -2.08593747,0.7851562 -2.08593747,2.1210937 0,0.058594 0,0.1289063 0.0117188,0.234375 H 1.5578594 v -0.2109375 c 0,-0.703125 0.328125,-1.125 0.9023437,-1.125 0.5625,0 0.9023438,0.3867188 0.9023438,1.03125 0,0.6914063 -0.2226563,0.9726563 -1.6289063,1.96875 C 0.66723438,-1.7340859 0.32739063,-1.1715859 0.26879688,2.890625e-4 H 4.5930156 Z m 2.3378907,-1.7226563 c 0.4335937,0 0.515625,0.011719 0.7382812,0.070312 0.421875,0.1171875 0.6914063,0.4804688 0.6914063,0.9492188 0,0.5507812 -0.3984375,0.96093746 -0.9492188,0.96093746 -0.5859375,0 -0.9140625,-0.33984376 -0.9492187,-0.99609376 h -1.21875 c 0.011719,1.27734376 0.84375,2.07421876 2.1445312,2.07421876 1.359375,0 2.2265625,-0.796875 2.2265625,-2.03906246 0,-0.75 -0.328125,-1.2304688 -1.0429687,-1.5820313 0.5859375,-0.3632812 0.8320312,-0.7617187 0.8320312,-1.3476562 0,-1.0546875 -0.7851562,-1.734375 -2.015625,-1.734375 -0.7265625,0 -1.3359375,0.2578125 -1.6992187,0.7148437 -0.2460938,0.3164063 -0.3632813,0.75 -0.3632813,1.3125 v 0.1054688 h 1.171875 c 0,-0.3398438 0.035156,-0.5039063 0.09375,-0.6679688 C 6.70825,-5.3083047 6.9895,-5.4723672 7.3645,-5.4723672 c 0.5039063,0 0.7851563,0.3046875 0.7851563,0.8320313 0,0.6328125 -0.3632813,0.9609375 -1.1132813,0.9609375 H 6.9309063 Z m 5.7128907,-0.2226562 h -2.4375 v 1.21875 h 2.4375 z m 0.84082,-3.46875 V 2.890625e-4 h 1.253906 V -0.49189844 c 0.304688,0.46875 0.726563,0.703125 1.335938,0.703125 1.160156,0 2.039062,-1.1015625 2.039062,-2.56640626 0,-0.65625 -0.199218,-1.3242187 -0.515625,-1.78125 -0.339843,-0.4804687 -0.925781,-0.7851562 -1.523437,-0.7851562 -0.597656,0 -1.03125,0.2226562 -1.335938,0.703125 v -2.3203125 z m 2.320313,2.671875 c 0.609375,0 1.054687,0.6210937 1.054687,1.5234375 0,0.8789062 -0.445312,1.49999996 -1.054687,1.49999996 -0.644532,0 -1.066407,-0.60937496 -1.066407,-1.53515626 0,-0.8789062 0.433594,-1.4882812 1.066407,-1.4882812 z m 4.482422,-0.9726563 H 19.033445 V 2.890625e-4 h 1.253907 z m 0,-1.6992187 h -1.253907 v 1.125 h 1.253907 z m 3.336914,1.7929687 h -0.691407 v -1.3007812 h -1.265625 v 1.3007812 h -0.609375 v 0.8320313 h 0.609375 v 2.97656246 c 0,0.76171875 0.410157,1.1484375 1.230469,1.1484375 0.28125,0 0.503906,-0.0351563 0.726563,-0.10546875 v -0.87890625 c -0.117188,0.0234375 -0.199219,0.0351563 -0.28125,0.0351563 -0.339844,0 -0.410157,-0.10546875 -0.410157,-0.53906246 v -2.6367187 h 0.691407 z m 0,0"
       style="fill:#000000;fill-opacity:1;fill-rule:nonzero;stroke:none"
       aria-label="23-bit"
       transform="matrix(1.3333333,0,0,1.3333333,571.43067,83.261333)" />
    <path
       id="path9"
       d="M 0.63235156,-4.6989297 V 2.890625e-4 H 1.3823516 V -2.9528359 c 0,-0.6796875 0.4921875,-1.21875 1.1015625,-1.21875 0.5507812,0 0.8671875,0.3398437 0.8671875,0.9375 V 2.890625e-4 h 0.75 V -2.9528359 c 0,-0.6796875 0.4921875,-1.21875 1.1015625,-1.21875 0.5507812,0 0.8789062,0.3398437 0.8789062,0.9375 V 2.890625e-4 h 0.75 V -3.5270547 c 0,-0.84375 -0.4804687,-1.3007812 -1.359375,-1.3007812 -0.6328125,0 -1.0078125,0.1875 -1.453125,0.7148437 -0.2695312,-0.5039062 -0.6445312,-0.7148437 -1.2539062,-0.7148437 -0.6328125,0 -1.0429688,0.234375 -1.453125,0.796875 V -4.6989297 Z M 12.263211,-0.43330469 c -0.08203,0.0117188 -0.117188,0.0117188 -0.152344,0.0117188 -0.269531,0 -0.410156,-0.12890625 -0.410156,-0.36328125 V -3.5504922 c 0,-0.8320312 -0.609375,-1.2773437 -1.7695313,-1.2773437 -0.6796875,0 -1.2421875,0.1875 -1.5585938,0.5390625 -0.2109375,0.2460937 -0.3046875,0.515625 -0.3164062,0.984375 h 0.75 c 0.058594,-0.5742188 0.3984375,-0.8320313 1.1015625,-0.8320313 0.6679688,0 1.0546878,0.2460938 1.0546878,0.6914063 v 0.1992187 c 0,0.3164063 -0.1875,0.4453125 -0.785157,0.515625 -1.0546871,0.140625 -1.2187496,0.1757813 -1.4999996,0.2929688 -0.5507812,0.2226562 -0.8320312,0.6445312 -0.8320312,1.2539062 0,0.85546876 0.5976562,1.39453126 1.546875,1.39453126 0.5859375,0 1.0664058,-0.2109374975 1.5937498,-0.69140625 0.04687,0.46875 0.28125,0.69140625 0.773438,0.69140625 0.152343,0 0.269531,-0.0234375 0.503906,-0.0820313 z M 10.96243,-1.4762734 c 0,0.2460937 -0.08203,0.3984375 -0.304688,0.60937496 -0.304687,0.28125 -0.6679686,0.421875 -1.1132811,0.421875 -0.5742187,0 -0.9140625,-0.28125 -0.9140625,-0.76171876 0,-0.4921875 0.328125,-0.7382812 1.125,-0.8554687 0.7851566,-0.1054688 0.9492186,-0.140625 1.2070316,-0.2578125 z m 2.124023,-3.2226563 V 2.890625e-4 h 0.75 V -2.5895547 c 0,-0.9609375 0.503906,-1.5820312 1.265625,-1.5820312 0.597656,0 0.972656,0.3515625 0.972656,0.9140625 V 2.890625e-4 h 0.75 V -3.5504922 c 0,-0.7734375 -0.585937,-1.2773437 -1.488281,-1.2773437 -0.703125,0 -1.148437,0.2695312 -1.570312,0.9140625 v -0.7851563 z m 6.626953,0 h -0.761718 v -1.2890625 h -0.75 v 1.2890625 h -0.632813 v 0.609375 h 0.632813 v 3.55078126 c 0,0.48046875 0.328125,0.75 0.902343,0.75 0.1875,0 0.363282,-0.0234375 0.609375,-0.0703125 v -0.62109375 c -0.09375,0.0234375 -0.210937,0.0351563 -0.351562,0.0351563 -0.328125,0 -0.410156,-0.09375 -0.410156,-0.421875 V -4.0895547 h 0.761718 z m 1.567383,0 h -0.75 V 2.890625e-4 h 0.75 z m 0,-1.8398437 H 20.51907 v 0.9492187 h 0.761719 z m 4.567383,3.1523437 c -0.01172,-0.9257812 -0.621094,-1.4414062 -1.699219,-1.4414062 -1.101562,0 -1.804687,0.5625 -1.804687,1.4296875 0,0.7382812 0.375,1.0898437 1.488281,1.359375 l 0.703125,0.1640625 c 0.515625,0.1289062 0.726562,0.3164062 0.726562,0.65625 0,0.43359371 -0.445312,0.73828121 -1.101562,0.73828121 -0.398438,0 -0.738281,-0.1171875 -0.925781,-0.31640625 -0.117188,-0.140625 -0.175782,-0.26953126 -0.222657,-0.59765626 h -0.785156 c 0.03516,1.07812501 0.644531,1.60546876 1.875,1.60546876 1.183594,0 1.933594,-0.5859375 1.933594,-1.48828126 0,-0.703125 -0.398438,-1.0898437 -1.324219,-1.3125 l -0.714844,-0.1757812 c -0.609375,-0.140625 -0.867187,-0.3398438 -0.867187,-0.6679688 0,-0.4335937 0.375,-0.703125 0.984375,-0.703125 0.609375,0 0.925781,0.2578125 0.949219,0.75 z m 4.482422,0 c -0.01172,-0.9257812 -0.621094,-1.4414062 -1.699219,-1.4414062 -1.101562,0 -1.804687,0.5625 -1.804687,1.4296875 0,0.7382812 0.375,1.0898437 1.488281,1.359375 l 0.703125,0.1640625 c 0.515625,0.1289062 0.726562,0.3164062 0.726562,0.65625 0,0.43359371 -0.445312,0.73828121 -1.101562,0.73828121 -0.398438,0 -0.738281,-0.1171875 -0.925781,-0.31640625 -0.117188,-0.140625 -0.175782,-0.26953126 -0.222657,-0.59765626 H 26.7095 c 0.03516,1.07812501 0.644531,1.60546876 1.875,1.60546876 1.183594,0 1.933594,-0.5859375 1.933594,-1.48828126 0,-0.703125 -0.398438,-1.0898437 -1.324219,-1.3125 l -0.714844,-0.1757812 c -0.609375,-0.140625 -0.867187,-0.3398438 -0.867187,-0.6679688 0,-0.4335937 0.375,-0.703125 0.984375,-0.703125 0.609375,0 0.925781,0.2578125 0.949219,0.75 z m 5.352539,2.95312501 c -0.08203,0.0117188 -0.117188,0.0117188 -0.152344,0.0117188 -0.269531,0 -0.410156,-0.12890625 -0.410156,-0.36328125 V -3.5504922 c 0,-0.8320312 -0.609375,-1.2773437 -1.769531,-1.2773437 -0.679688,0 -1.242188,0.1875 -1.558594,0.5390625 -0.210938,0.2460937 -0.304688,0.515625 -0.316406,0.984375 h 0.75 c 0.05859,-0.5742188 0.398437,-0.8320313 1.101562,-0.8320313 0.667969,0 1.054688,0.2460938 1.054688,0.6914063 v 0.1992187 c 0,0.3164063 -0.1875,0.4453125 -0.785157,0.515625 -1.054687,0.140625 -1.21875,0.1757813 -1.5,0.2929688 -0.550781,0.2226562 -0.832031,0.6445312 -0.832031,1.2539062 0,0.85546876 0.597656,1.39453126 1.546875,1.39453126 0.585938,0 1.066406,-0.2109374975 1.59375,-0.69140625 0.04687,0.46875 0.28125,0.69140625 0.773438,0.69140625 0.152343,0 0.269531,-0.0234375 0.503906,-0.0820313 z M 34.382352,-1.4762734 c 0,0.2460937 -0.08203,0.3984375 -0.304688,0.60937496 -0.304687,0.28125 -0.667969,0.421875 -1.113281,0.421875 -0.574219,0 -0.914063,-0.28125 -0.914063,-0.76171876 0,-0.4921875 0.328125,-0.7382812 1.125,-0.8554687 0.785157,-0.1054688 0.949219,-0.140625 1.207032,-0.2578125 z m 0,0"
       style="fill:#000000;fill-opacity:1;fill-rule:nonzero;stroke:none"
       aria-label="mantissa"
       transform="matrix(1.3333333,0,0,1.3333333,606.63733,83.261333)" />
    <path
       id="path10"
       d="m 2.0043594,-2.8128906 h 2.859375 v -1.125 h -2.859375 v -1.4765625 h 3.2460937 v -1.125 H 0.66842187 V -3.90625e-4 H 2.0043594 Z m 5.5019531,0.4804687 h 1.6757812 c 1.1953123,0 1.9687503,-0.8554687 1.9687503,-2.1796875 0,-1.3007812 -0.738282,-2.0273437 -2.1093753,-2.0273437 H 6.1586562 v 6.539062475 h 1.3476563 z m 0,-1.125 v -1.9570312 h 1.2539062 c 0.7148438,0 1.0429688,0.3164062 1.0429688,0.984375 0,0.6679687 -0.328125,0.9726562 -1.0429688,0.9726562 z m 5.8974605,0.609375 c 0.433594,0 0.515625,0.011719 0.738282,0.070312 0.421875,0.1171875 0.691406,0.4804688 0.691406,0.9492188 0,0.5507812 -0.398438,0.96093747 -0.949219,0.96093747 -0.585937,0 -0.914062,-0.33984377 -0.949219,-0.99609377 h -1.21875 c 0.01172,1.27734377 0.84375,2.07421877 2.144532,2.07421877 1.359375,0 2.226562,-0.796875 2.226562,-2.03906247 0,-0.75 -0.328125,-1.2304688 -1.042969,-1.5820313 0.585938,-0.3632812 0.832032,-0.7617187 0.832032,-1.3476562 0,-1.0546875 -0.785157,-1.734375 -2.015625,-1.734375 -0.726563,0 -1.335938,0.2578125 -1.699219,0.7148437 -0.246094,0.3164063 -0.363281,0.75 -0.363281,1.3125 v 0.1054688 h 1.171875 c 0,-0.3398438 0.03516,-0.5039063 0.09375,-0.6679688 0.117187,-0.28125 0.398437,-0.4453125 0.773437,-0.4453125 0.503906,0 0.785156,0.3046875 0.785156,0.8320313 0,0.6328125 -0.363281,0.9609375 -1.113281,0.9609375 h -0.105469 z m 7.634766,1.7226563 h -2.695312 c 0.164062,-0.3398438 0.363281,-0.515625 1.289062,-1.1953125 1.101563,-0.8085938 1.429688,-1.2890625 1.429688,-2.15625 0,-1.2304688 -0.84375,-2.015625 -2.179688,-2.015625 -1.3125,0 -2.085937,0.7851562 -2.085937,2.1210937 0,0.058594 0,0.1289063 0.01172,0.234375 h 1.195313 v -0.2109375 c 0,-0.703125 0.328125,-1.125 0.902344,-1.125 0.5625,0 0.902343,0.3867188 0.902343,1.03125 0,0.6914063 -0.222656,0.9726563 -1.628906,1.96875 -1.066406,0.7382813 -1.40625,1.3007813 -1.464844,2.472656275 h 4.324219 z m 0,0"
       style="fill:#000000;fill-opacity:1;fill-rule:nonzero;stroke:none"
       aria-label="FP32"
       transform="matrix(1.3333333,0,0,1.3333333,5.0853333,83.133333)" />
    <path
       id="path11"
       d="m 0.3736,-47.81587 h 29.8883 v 34.01616 H 0.3736 Z"
       style="fill:#f7b4f7;fill-opacity:1;fill-rule:nonzero;stroke:#191919;stroke-width:0.74721;stroke-linecap:butt;stroke-linejoin:miter;stroke-miterlimit:10;stroke-dasharray:none;stroke-opacity:1"
       transform="matrix(1.3333333,0,0,-1.3333333,45.909333,102.15067)" />
    <path
       id="path12"
       d="M 2.1329453,-4.3819687 V 8.4375e-4 H 3.3868516 V -6.3507187 H 2.5548203 C 2.3556016,-5.6007187 1.6993516,-5.214 0.60950781,-5.214 v 0.8320313 z m 5.5253906,1.3125 h -2.4375 v 1.21875 h 2.4375 z m 0.8408203,-3.46875 V 8.4375e-4 h 1.2539063 v -0.4921875 c 0.3046875,0.46875 0.7265625,0.703125 1.3359375,0.703125 1.160156,0 2.039062,-1.1015625 2.039062,-2.56640625 0,-0.65625 -0.199218,-1.3242187 -0.515625,-1.78125 -0.339843,-0.4804687 -0.925781,-0.7851562 -1.523437,-0.7851562 -0.597656,0 -1.03125,0.2226562 -1.3359375,0.703125 v -2.3203125 z m 2.3203128,2.671875 c 0.609375,0 1.054687,0.6210937 1.054687,1.5234375 0,0.8789062 -0.445312,1.49999995 -1.054687,1.49999995 -0.644532,0 -1.0664065,-0.60937495 -1.0664065,-1.53515625 0,-0.8789062 0.4335935,-1.4882812 1.0664065,-1.4882812 z M 15.301891,-4.839 H 14.047984 V 8.4375e-4 h 1.253907 z m 0,-1.6992187 h -1.253907 v 1.125 h 1.253907 z M 18.638805,-4.74525 H 17.947398 V -6.0460312 H 16.681773 V -4.74525 h -0.609375 v 0.8320313 h 0.609375 v 2.97656245 c 0,0.76171875 0.410157,1.1484375 1.230469,1.1484375 0.28125,0 0.503906,-0.0351563 0.726563,-0.10546875 v -0.87890625 c -0.117188,0.0234375 -0.199219,0.0351563 -0.28125,0.0351563 -0.339844,0 -0.410157,-0.10546875 -0.410157,-0.53906255 v -2.6367187 h 0.691407 z m 0,0"
       style="fill:#000000;fill-opacity:1;fill-rule:nonzero;stroke:none"
       aria-label="1-bit"
       transform="matrix(1.3333333,0,0,1.3333333,53.714667,138.952)" />
    <path
       id="path13"
       d="M 3.9261016,-3.3878438 C 3.9143828,-4.313625 3.3050078,-4.82925 2.2268828,-4.82925 c -1.1015625,0 -1.80468749,0.5625 -1.80468749,1.4296875 0,0.7382812 0.375,1.0898437 1.48828129,1.359375 l 0.703125,0.1640625 c 0.515625,0.1289062 0.7265625,0.3164062 0.7265625,0.65625 0,0.43359375 -0.4453125,0.73828125 -1.1015625,0.73828125 -0.3984375,0 -0.7382813,-0.1171875 -0.9257813,-0.31640625 C 1.1956328,-0.938625 1.1370391,-1.0675313 1.0901641,-1.3956563 H 0.30500781 c 0.0351563,1.07812505 0.64453125,1.6054688 1.87499999,1.6054688 1.1835938,0 1.9335938,-0.5859375 1.9335938,-1.4882813 0,-0.703125 -0.3984375,-1.0898437 -1.3242188,-1.3125 L 2.0745391,-2.76675 c -0.609375,-0.140625 -0.8671875,-0.3398438 -0.8671875,-0.6679688 0,-0.4335937 0.375,-0.703125 0.984375,-0.703125 0.609375,0 0.9257812,0.2578125 0.9492187,0.75 z m 1.9042968,-1.3125 h -0.75 v 4.6992188 h 0.75 z m 0,-1.8398437 H 5.0686797 v 0.9492187 h 0.7617187 z m 4.3359376,1.8398437 v 0.6796875 C 9.7913359,-4.5714375 9.3343047,-4.82925 8.7366484,-4.82925 c -1.1953125,0 -2.0039062,1.03125 -2.0039062,2.5546875 0,0.7734375 0.2109375,1.40625 0.5976562,1.8515625 0.3515625,0.3984375 0.84375,0.6328125 1.3359375,0.6328125 0.5976563,0 1.0078125,-0.2578125 1.4296871,-0.84375 v 0.234375 c 0,0.64453125 -0.08203,1.03125 -0.2695308,1.2890625 C 9.6272734,1.1590312 9.2405547,1.3230937 8.7835234,1.3230937 8.4436797,1.3230937 8.1389922,1.2410625 7.9397734,1.077 7.7639922,0.936375 7.6936797,0.8191875 7.6468047,0.5379375 H 6.8850859 c 0.082031,0.890625 0.7734375,1.4179687 1.875,1.4179687 0.703125,0 1.3007811,-0.2226562 1.6054691,-0.5976562 0.363281,-0.43359375 0.492187,-1.03125 0.492187,-2.1328125 v -3.9257813 z m -1.3476563,0.5625 c 0.8085937,0 1.2773433,0.6796875 1.2773433,1.8515625 0,1.125 -0.4804683,1.80468755 -1.2773433,1.80468755 -0.8085938,0 -1.3007813,-0.69140625 -1.3007813,-1.82812505 0,-1.1367187 0.5039063,-1.828125 1.3007813,-1.828125 z m 3.2724613,-0.5625 v 4.6992188 h 0.75 v -2.5898438 c 0,-0.9609375 0.503906,-1.5820312 1.265625,-1.5820312 0.597656,0 0.972656,0.3515625 0.972656,0.9140625 v 3.2578125 h 0.75 v -3.5507813 c 0,-0.7734375 -0.585938,-1.2773437 -1.488281,-1.2773437 -0.703125,0 -1.148438,0.2695312 -1.570313,0.9140625 v -0.7851563 z m 0,0"
       style="fill:#000000;fill-opacity:1;fill-rule:nonzero;stroke:none"
       aria-label="sign"
       transform="matrix(1.3333333,0,0,1.3333333,55.370667,153.564)" />
    <path
       id="path14"
       d="m 31.00911,-47.81587 h 99.62769 v 34.01616 H 31.00911 Z"
       style="fill:#fde2f0;fill-opacity:1;fill-rule:nonzero;stroke:#191919;stroke-width:0.74721;stroke-linecap:butt;stroke-linejoin:miter;stroke-miterlimit:10;stroke-dasharray:none;stroke-opacity:1"
       transform="matrix(1.3333333,0,0,-1.3333333,45.909333,102.15067)" />
    <path
       id="path15"
       d="M 4.3831641,-6.3505391 H 0.98472656 l -0.5625,3.5390625 H 1.5472266 c 0.140625,-0.3164062 0.421875,-0.4921875 0.8085937,-0.4921875 0.6445313,0 1.0195313,0.4570313 1.0195313,1.2304688 0,0.75 -0.3867188,1.20703124 -1.0195313,1.20703124 -0.5390625,0 -0.84375,-0.28125004 -0.8789062,-0.79687504 H 0.24644531 c 0.0117187,1.11328129 0.85546879,1.87500004 2.09765629,1.87500004 1.359375,0 2.296875,-0.9375 2.296875,-2.30859374 0,-1.3007813 -0.8085938,-2.1914063 -1.9921875,-2.1914063 -0.421875,0 -0.7265625,0.1054688 -1.1015625,0.375 l 0.2109375,-1.3242187 h 2.625 z m 3.2753906,3.28125 h -2.4375 v 1.21875 h 2.4375 z m 0.8408203,-3.46875 v 6.53906254 h 1.2539063 v -0.4921875 c 0.3046877,0.46875 0.7265627,0.703125 1.3359377,0.703125 1.160156,0 2.039062,-1.1015625 2.039062,-2.56640624 0,-0.65625 -0.199218,-1.3242188 -0.515625,-1.78125 -0.339843,-0.4804688 -0.925781,-0.7851563 -1.523437,-0.7851563 -0.597656,0 -1.03125,0.2226563 -1.3359377,0.703125 v -2.3203125 z m 2.320313,2.671875 c 0.609375,0 1.054687,0.6210938 1.054687,1.5234375 0,0.8789063 -0.445312,1.50000004 -1.054687,1.50000004 -0.644532,0 -1.0664067,-0.60937504 -1.0664067,-1.53515624 0,-0.8789063 0.4335937,-1.4882813 1.0664067,-1.4882813 z m 4.482421,-0.9726562 h -1.253906 v 4.83984374 h 1.253906 z m 0,-1.6992188 h -1.253906 v 1.125 h 1.253906 z m 3.333985,1.7929688 h -0.691406 v -1.3007813 h -1.265625 v 1.3007813 h -0.609375 v 0.8320312 h 0.609375 v 2.97656254 c 0,0.76171875 0.410156,1.1484375 1.230468,1.1484375 0.28125,0 0.503907,-0.0351563 0.726563,-0.10546875 v -0.87890625 c -0.117188,0.0234375 -0.199219,0.0351563 -0.28125,0.0351563 -0.339844,0 -0.410156,-0.10546875 -0.410156,-0.53906244 v -2.6367189 h 0.691406 z m 0,0"
       style="fill:#000000;fill-opacity:1;fill-rule:nonzero;stroke:none"
       aria-label="5-bit"
       transform="matrix(1.3333333,0,0,1.3333333,114.98,146.33067)" />
    <path
       id="path16"
       d="m 4.5930469,-2.0966328 c 0,-0.7148438 -0.046875,-1.1484375 -0.1875,-1.5 -0.3046875,-0.7734375 -1.0195313,-1.2304688 -1.8984375,-1.2304688 -1.3007813,0 -2.14453127,0.9960938 -2.14453127,2.5429688 0,1.54687499 0.80859377,2.49609374 2.13281247,2.49609374 1.0664063,0 1.8164063,-0.609375 2.0039063,-1.64062504 h -0.75 c -0.2109375,0.62109379 -0.6328125,0.94921879 -1.2304688,0.94921879 -0.4804687,0 -0.8789062,-0.22265625 -1.125,-0.60937499 -0.1875,-0.2695313 -0.2460937,-0.5390625 -0.2578125,-1.0078125 z m -3.4335938,-0.609375 c 0.058594,-0.8671875 0.5859375,-1.4296875 1.3359375,-1.4296875 0.7382813,0 1.3007813,0.609375 1.3007813,1.3710937 0,0.023437 0,0.035156 0,0.058594 z m 6.1699219,0.28125 1.5820313,-2.2734375 h -0.84375 l -1.125,1.6992187 -1.1367188,-1.6992187 h -0.84375 L 6.5325,-2.3896016 4.8684375,0.00102344 H 5.7239063 L 6.9075,-1.8036641 8.0910938,0.00102344 h 0.8671875 z m 2.3496094,4.3828125 h 0.7617186 v -2.44921876 c 0.386719,0.48046875 0.832031,0.703125 1.441406,0.703125 1.207032,0 2.003907,-0.984375 2.003907,-2.48437504 0,-1.5703125 -0.773438,-2.5546875 -2.015625,-2.5546875 -0.632813,0 -1.148438,0.28125 -1.5,0.84375 V -4.6981953 H 9.6789844 Z m 2.0624996,-6.09375 c 0.832032,0 1.371094,0.7265625 1.371094,1.8515625 0,1.0664062 -0.550781,1.79296874 -1.371094,1.79296874 -0.785156,0 -1.300781,-0.71484374 -1.300781,-1.81640624 0,-1.1015625 0.515625,-1.828125 1.300781,-1.828125 z m 4.88086,-0.6914063 c -1.3125,0 -2.109375,0.9375 -2.109375,2.5195313 0,1.57031249 0.785156,2.51953124 2.121094,2.51953124 1.3125,0 2.121093,-0.94921875 2.121093,-2.48437504 0,-1.6289062 -0.773437,-2.5546875 -2.132812,-2.5546875 z m 0.01172,0.6914063 c 0.84375,0 1.347656,0.6796875 1.347656,1.8515625 0,1.1015625 -0.527344,1.80468749 -1.347656,1.80468749 -0.832032,0 -1.347657,-0.69140629 -1.347657,-1.82812499 0,-1.1367188 0.515625,-1.828125 1.347657,-1.828125 z m 3.169921,-0.5625 v 4.69921874 h 0.75 V -2.5888203 c 0,-0.9609375 0.503907,-1.5820313 1.265625,-1.5820313 0.597657,0 0.972657,0.3515625 0.972657,0.9140625 v 3.25781254 h 0.75 V -3.5497578 c 0,-0.7734375 -0.585938,-1.2773438 -1.488282,-1.2773438 -0.703125,0 -1.148437,0.2695313 -1.570312,0.9140625 v -0.7851562 z m 8.944336,2.6015625 c 0,-0.7148438 -0.04687,-1.1484375 -0.1875,-1.5 -0.304687,-0.7734375 -1.019531,-1.2304688 -1.898437,-1.2304688 -1.300781,0 -2.144531,0.9960938 -2.144531,2.5429688 0,1.54687499 0.808593,2.49609374 2.132812,2.49609374 1.066406,0 1.816406,-0.609375 2.003906,-1.64062504 h -0.75 c -0.210937,0.62109379 -0.632812,0.94921879 -1.230468,0.94921879 -0.480469,0 -0.878907,-0.22265625 -1.125,-0.60937499 -0.1875,-0.2695313 -0.246094,-0.5390625 -0.257813,-1.0078125 z m -3.433593,-0.609375 c 0.05859,-0.8671875 0.585937,-1.4296875 1.335937,-1.4296875 0.738281,0 1.300781,0.609375 1.300781,1.3710937 0,0.023437 0,0.035156 0,0.058594 z m 4.458984,-1.9921875 v 4.69921874 h 0.75 V -2.5888203 c 0,-0.9609375 0.503906,-1.5820313 1.265625,-1.5820313 0.597656,0 0.972656,0.3515625 0.972656,0.9140625 v 3.25781254 h 0.75 V -3.5497578 c 0,-0.7734375 -0.585937,-1.2773438 -1.488281,-1.2773438 -0.703125,0 -1.148438,0.2695313 -1.570313,0.9140625 v -0.7851562 z m 6.626953,0 h -0.761719 v -1.2890625 h -0.75 v 1.2890625 h -0.632812 v 0.609375 h 0.632812 v 3.55078124 c 0,0.48046875 0.328125,0.75 0.902344,0.75 0.1875,0 0.363281,-0.0234375 0.609375,-0.0703125 v -0.62109375 c -0.09375,0.0234375 -0.210937,0.0351563 -0.351562,0.0351563 -0.328125,0 -0.410157,-0.09375 -0.410157,-0.421875 V -4.0888203 h 0.761719 z m 0,0"
       style="fill:#000000;fill-opacity:1;fill-rule:nonzero;stroke:none"
       aria-label="exponent"
       transform="matrix(1.3333333,0,0,1.3333333,143.54,146.33067)" />
    <path
       id="path17"
       d="m 131.384,-47.81587 h 199.25537 v 34.01616 H 131.384 Z"
       style="fill:#eca9a7;fill-opacity:1;fill-rule:nonzero;stroke:#191919;stroke-width:0.74721;stroke-linecap:butt;stroke-linejoin:miter;stroke-miterlimit:10;stroke-dasharray:none;stroke-opacity:1"
       transform="matrix(1.3333333,0,0,-1.3333333,45.909333,102.15067)" />
    <path
       id="path18"
       d="m 2.1335703,-4.3840234 v 4.38281246 H 3.3874766 V -6.3527734 H 2.5554453 c -0.1992187,0.75 -0.8554687,1.1367187 -1.94531249,1.1367187 v 0.8320313 z m 5.2998047,-2.109375 c -0.6796875,0 -1.265625,0.2929687 -1.6523437,0.8203125 -0.3632813,0.4921875 -0.5390625,1.3007812 -0.5390625,2.53125 0,1.125 0.1523437,1.921875 0.4453125,2.40234371 0.3867187,0.609375 0.9960937,0.94921875 1.7460937,0.94921875 0.6914063,0 1.2539063,-0.28125 1.6523438,-0.8203125 0.3515625,-0.48046876 0.5390625,-1.31249996 0.5390625,-2.49609376 0,-1.1601562 -0.1523438,-1.9453125 -0.4570313,-2.4492187 -0.375,-0.609375 -0.9960937,-0.9375 -1.734375,-0.9375 z m 0,1.0195312 c 0.3164063,0 0.5859375,0.1757813 0.7382813,0.5039063 0.1171875,0.2695312 0.1875,0.9726562 0.1875,1.8398437 0,0.703125 -0.070312,1.4296875 -0.1523438,1.6757813 -0.1523437,0.375 -0.421875,0.58593746 -0.7734375,0.58593746 -0.328125,0 -0.5859375,-0.17578126 -0.7382812,-0.49218746 C 6.5661875,-1.6301172 6.495875,-2.3098047 6.495875,-3.1535547 c 0,-0.7382812 0.070312,-1.4648437 0.1640625,-1.7226562 0.140625,-0.3867188 0.4101563,-0.5976563 0.7734375,-0.5976563 z m 5.208984,2.4023438 h -2.4375 v 1.21875 h 2.4375 z m 0.840821,-3.46875 v 6.53906246 h 1.253906 v -0.4921875 c 0.304687,0.46875 0.726562,0.703125 1.335937,0.703125 1.160157,0 2.039063,-1.1015625 2.039063,-2.56640626 0,-0.65625 -0.199219,-1.3242187 -0.515625,-1.78125 -0.339844,-0.4804687 -0.925781,-0.7851562 -1.523438,-0.7851562 -0.597656,0 -1.03125,0.2226562 -1.335937,0.703125 v -2.3203125 z m 2.320312,2.671875 c 0.609375,0 1.054688,0.6210937 1.054688,1.5234375 0,0.8789062 -0.445313,1.49999996 -1.054688,1.49999996 -0.644531,0 -1.066406,-0.60937496 -1.066406,-1.53515626 0,-0.8789062 0.433594,-1.4882812 1.066406,-1.4882812 z m 4.482422,-0.9726563 h -1.253906 v 4.83984376 h 1.253906 z m 0,-1.6992187 h -1.253906 v 1.125 h 1.253906 z m 3.336914,1.7929687 h -0.691406 v -1.3007812 h -1.265625 v 1.3007812 h -0.609375 v 0.8320313 h 0.609375 v 2.97656246 c 0,0.76171875 0.410156,1.1484375 1.230469,1.1484375 0.28125,0 0.503906,-0.0351563 0.726562,-0.10546875 v -0.87890625 c -0.117187,0.0234375 -0.199219,0.0351563 -0.28125,0.0351563 -0.339844,0 -0.410156,-0.10546875 -0.410156,-0.53906246 v -2.6367187 h 0.691406 z m 0,0"
       style="fill:#000000;fill-opacity:1;fill-rule:nonzero;stroke:none"
       aria-label="10-bit"
       transform="matrix(1.3333333,0,0,1.3333333,312.40133,147.51333)" />
    <path
       id="path19"
       d="m 0.63284375,-4.7004297 v 4.69921876 H 1.3828438 V -2.9543359 c 0,-0.6796875 0.4921875,-1.21875 1.1015625,-1.21875 0.5507812,0 0.8671875,0.3398437 0.8671875,0.9375 v 3.23437496 h 0.75 V -2.9543359 c 0,-0.6796875 0.4921875,-1.21875 1.1015625,-1.21875 0.5507812,0 0.8789062,0.3398437 0.8789062,0.9375 v 3.23437496 h 0.75 V -3.5285547 c 0,-0.84375 -0.4804687,-1.3007812 -1.359375,-1.3007812 -0.6328125,0 -1.0078125,0.1875 -1.453125,0.7148437 -0.2695312,-0.5039062 -0.6445312,-0.7148437 -1.2539062,-0.7148437 -0.6328125,0 -1.0429688,0.234375 -1.453125,0.796875 V -4.7004297 Z M 12.260773,-0.43480469 c -0.08203,0.0117188 -0.117187,0.0117188 -0.152343,0.0117188 -0.269532,0 -0.410157,-0.12890625 -0.410157,-0.36328125 V -3.5519922 c 0,-0.8320312 -0.609375,-1.2773437 -1.7695308,-1.2773437 -0.6796875,0 -1.2421875,0.1875 -1.5585938,0.5390625 -0.2109375,0.2460937 -0.3046875,0.515625 -0.3164062,0.984375 h 0.75 c 0.058594,-0.5742188 0.3984375,-0.8320313 1.1015625,-0.8320313 0.6679683,0 1.0546873,0.2460938 1.0546873,0.6914063 v 0.1992187 c 0,0.3164063 -0.1875,0.4453125 -0.785156,0.515625 -1.0546876,0.140625 -1.2187501,0.1757813 -1.5000001,0.2929688 -0.5507812,0.2226562 -0.8320312,0.6445312 -0.8320312,1.2539062 0,0.85546876 0.5976562,1.39453126 1.546875,1.39453126 0.5859375,0 1.0664063,-0.2109375 1.5937503,-0.69140625 0.04687,0.46875 0.28125,0.69140625 0.773437,0.69140625 0.152344,0 0.269531,-0.0234375 0.503906,-0.0820313 z M 10.959992,-1.4777734 c 0,0.2460937 -0.08203,0.3984375 -0.304687,0.60937496 -0.304688,0.28125 -0.6679691,0.421875 -1.1132816,0.421875 -0.5742187,0 -0.9140625,-0.28125 -0.9140625,-0.76171876 0,-0.4921875 0.328125,-0.7382812 1.125,-0.8554687 0.7851561,-0.1054688 0.9492191,-0.140625 1.2070311,-0.2578125 z m 2.126953,-3.2226563 v 4.69921876 h 0.75 V -2.5910547 c 0,-0.9609375 0.503907,-1.5820312 1.265625,-1.5820312 0.597657,0 0.972657,0.3515625 0.972657,0.9140625 v 3.25781246 h 0.75 V -3.5519922 c 0,-0.7734375 -0.585938,-1.2773437 -1.488282,-1.2773437 -0.703125,0 -1.148437,0.2695312 -1.570312,0.9140625 v -0.7851563 z m 6.626953,0 H 18.95218 v -1.2890625 h -0.75 v 1.2890625 h -0.632813 v 0.609375 h 0.632813 v 3.55078126 c 0,0.48046875 0.328125,0.75 0.902343,0.75 0.1875,0 0.363282,-0.0234375 0.609375,-0.0703125 v -0.62109375 c -0.09375,0.0234375 -0.210937,0.0351563 -0.351562,0.0351563 -0.328125,0 -0.410156,-0.09375 -0.410156,-0.421875 V -4.0910547 h 0.761718 z m 1.567383,0 h -0.75 v 4.69921876 h 0.75 z m 0,-1.8398437 h -0.761718 v 0.9492187 h 0.761718 z m 4.567383,3.1523437 c -0.01172,-0.9257812 -0.621094,-1.4414062 -1.699219,-1.4414062 -1.101562,0 -1.804687,0.5625 -1.804687,1.4296875 0,0.7382812 0.375,1.0898437 1.488281,1.359375 l 0.703125,0.1640625 c 0.515625,0.1289062 0.726563,0.3164062 0.726563,0.65625 0,0.43359371 -0.445313,0.73828121 -1.101563,0.73828121 -0.398437,0 -0.738281,-0.1171875 -0.925781,-0.31640625 -0.117188,-0.140625 -0.175781,-0.26953126 -0.222656,-0.59765626 H 22.22757 c 0.03516,1.07812501 0.644532,1.60546876 1.875,1.60546876 1.183594,0 1.933594,-0.5859375 1.933594,-1.48828126 0,-0.703125 -0.398437,-1.0898437 -1.324219,-1.3125 l -0.714843,-0.1757812 c -0.609375,-0.140625 -0.867188,-0.3398438 -0.867188,-0.6679688 0,-0.4335937 0.375,-0.703125 0.984375,-0.703125 0.609375,0 0.925781,0.2578125 0.949219,0.75 z m 4.482422,0 c -0.01172,-0.9257812 -0.621094,-1.4414062 -1.699219,-1.4414062 -1.101562,0 -1.804687,0.5625 -1.804687,1.4296875 0,0.7382812 0.375,1.0898437 1.488281,1.359375 l 0.703125,0.1640625 c 0.515625,0.1289062 0.726562,0.3164062 0.726562,0.65625 0,0.43359371 -0.445312,0.73828121 -1.101562,0.73828121 -0.398438,0 -0.738281,-0.1171875 -0.925781,-0.31640625 -0.117188,-0.140625 -0.175782,-0.26953126 -0.222657,-0.59765626 h -0.785156 c 0.03516,1.07812501 0.644531,1.60546876 1.875,1.60546876 1.183594,0 1.933594,-0.5859375 1.933594,-1.48828126 0,-0.703125 -0.398438,-1.0898437 -1.324219,-1.3125 l -0.714844,-0.1757812 c -0.609375,-0.140625 -0.867187,-0.3398438 -0.867187,-0.6679688 0,-0.4335937 0.375,-0.703125 0.984375,-0.703125 0.609375,0 0.925781,0.2578125 0.949219,0.75 z m 5.349609,2.95312501 c -0.08203,0.0117188 -0.117187,0.0117188 -0.152343,0.0117188 -0.269532,0 -0.410157,-0.12890625 -0.410157,-0.36328125 V -3.5519922 c 0,-0.8320312 -0.609375,-1.2773437 -1.769531,-1.2773437 -0.679687,0 -1.242187,0.1875 -1.558594,0.5390625 -0.210937,0.2460937 -0.304687,0.515625 -0.316406,0.984375 h 0.75 c 0.05859,-0.5742188 0.398438,-0.8320313 1.101563,-0.8320313 0.667968,0 1.054687,0.2460938 1.054687,0.6914063 v 0.1992187 c 0,0.3164063 -0.1875,0.4453125 -0.785156,0.515625 -1.054688,0.140625 -1.21875,0.1757813 -1.5,0.2929688 -0.550781,0.2226562 -0.832031,0.6445312 -0.832031,1.2539062 0,0.85546876 0.597656,1.39453126 1.546875,1.39453126 0.585937,0 1.066406,-0.2109375 1.59375,-0.69140625 0.04687,0.46875 0.28125,0.69140625 0.773437,0.69140625 0.152344,0 0.269531,-0.0234375 0.503906,-0.0820313 z M 34.379914,-1.4777734 c 0,0.2460937 -0.08203,0.3984375 -0.304687,0.60937496 -0.304688,0.28125 -0.667969,0.421875 -1.113282,0.421875 -0.574218,0 -0.914062,-0.28125 -0.914062,-0.76171876 0,-0.4921875 0.328125,-0.7382812 1.125,-0.8554687 0.785156,-0.1054688 0.949219,-0.140625 1.207031,-0.2578125 z m 0,0"
       style="fill:#000000;fill-opacity:1;fill-rule:nonzero;stroke:none"
       aria-label="mantissa"
       transform="matrix(1.3333333,0,0,1.3333333,347.60933,147.51333)" />
    <path
       id="path20"
       d="m 2.0043594,-2.8114609 h 2.859375 v -1.125 h -2.859375 v -1.4765625 h 3.2460937 v -1.125 H 0.66842187 V 0.00103906 H 2.0043594 Z m 5.5019531,0.4804687 h 1.6757812 c 1.1953123,0 1.9687503,-0.8554687 1.9687503,-2.1796875 0,-1.3007812 -0.738282,-2.0273437 -2.1093753,-2.0273437 H 6.1586562 v 6.53906246 h 1.3476563 z m 0,-1.125 v -1.9570312 h 1.2539062 c 0.7148438,0 1.0429688,0.3164062 1.0429688,0.984375 0,0.6679687 -0.328125,0.9726562 -1.0429688,0.9726562 z M 13.591273,-4.3817734 V 0.00103906 H 14.84518 V -6.3505234 h -0.832032 c -0.199218,0.75 -0.855468,1.1367187 -1.945312,1.1367187 v 0.8320313 z m 7.400391,-0.5273438 c -0.07031,-0.4101562 -0.140625,-0.6210937 -0.304687,-0.8554687 -0.328125,-0.4570313 -0.914063,-0.7265625 -1.605469,-0.7265625 -0.785156,0 -1.429688,0.3515625 -1.816406,0.984375 -0.386719,0.6210937 -0.539063,1.3359375 -0.539063,2.484375 0,1.1015625 0.140625,1.78125 0.457031,2.28515621 0.375,0.59765625 1.03125,0.94921875 1.792969,0.94921875 1.265625,0 2.121094,-0.94921875 2.121094,-2.33203126 0,-1.21875 -0.75,-2.0625 -1.851563,-2.0625 -0.515625,0 -0.867187,0.1523438 -1.253906,0.5625 0.02344,-0.6679687 0.02344,-0.6679687 0.07031,-0.9375 0.117187,-0.5742187 0.480468,-0.9140625 0.984375,-0.9140625 0.398437,0 0.621093,0.1523438 0.773437,0.5625 z m -2.050781,1.7109375 c 0.585937,0 0.960937,0.4570313 0.960937,1.1601563 0,0.6796875 -0.410156,1.17187496 -0.960937,1.17187496 -0.574219,0 -0.972656,-0.48046876 -0.972656,-1.14843746 0,-0.703125 0.398437,-1.1835938 0.972656,-1.1835938 z m 0,0"
       style="fill:#000000;fill-opacity:1;fill-rule:nonzero;stroke:none"
       aria-label="FP16"
       transform="matrix(1.3333333,0,0,1.3333333,5.0853333,147.38533)" />
    <path
       id="path21"
       d="m 0.3736,-96.00537 h 29.8883 v 34.01616 H 0.3736 Z"
       style="fill:#f7b4f7;fill-opacity:1;fill-rule:nonzero;stroke:#191919;stroke-width:0.74721;stroke-linecap:butt;stroke-linejoin:miter;stroke-miterlimit:10;stroke-dasharray:none;stroke-opacity:1"
       transform="matrix(1.3333333,0,0,-1.3333333,45.909333,102.15067)" />
    <path
       id="path22"
       d="M 2.1329453,-4.3834688 V -6.5625e-4 H 3.3868516 V -6.3522188 H 2.5548203 C 2.3556016,-5.6022188 1.6993516,-5.2155 0.60950781,-5.2155 v 0.8320312 z m 5.5253906,1.3125 h -2.4375 v 1.21875 h 2.4375 z m 0.8408203,-3.46875 v 6.53906255 h 1.2539063 v -0.4921875 c 0.3046875,0.46875 0.7265625,0.703125 1.3359375,0.703125 1.160156,0 2.039062,-1.1015625 2.039062,-2.56640625 0,-0.65625 -0.199218,-1.3242188 -0.515625,-1.78125 -0.339843,-0.4804688 -0.925781,-0.7851563 -1.523437,-0.7851563 -0.597656,0 -1.03125,0.2226563 -1.3359375,0.703125 v -2.3203125 z m 2.3203128,2.671875 c 0.609375,0 1.054687,0.6210938 1.054687,1.5234375 0,0.8789063 -0.445312,1.50000005 -1.054687,1.50000005 -0.644532,0 -1.0664065,-0.60937505 -1.0664065,-1.53515625 0,-0.8789063 0.4335935,-1.4882813 1.0664065,-1.4882813 z M 15.301891,-4.8405 h -1.253907 v 4.83984375 h 1.253907 z m 0,-1.6992188 h -1.253907 v 1.125 h 1.253907 z M 18.638805,-4.74675 H 17.947398 V -6.0475313 H 16.681773 V -4.74675 h -0.609375 v 0.8320312 h 0.609375 v 2.97656255 c 0,0.76171875 0.410157,1.1484375 1.230469,1.1484375 0.28125,0 0.503906,-0.0351563 0.726563,-0.10546875 v -0.87890625 c -0.117188,0.0234375 -0.199219,0.0351563 -0.28125,0.0351563 -0.339844,0 -0.410157,-0.10546875 -0.410157,-0.53906245 v -2.6367188 h 0.691407 z m 0,0"
       style="fill:#000000;fill-opacity:1;fill-rule:nonzero;stroke:none"
       aria-label="1-bit"
       transform="matrix(1.3333333,0,0,1.3333333,53.714667,203.204)" />
    <path
       id="path23"
       d="m 3.9261016,-3.3864141 c -0.011719,-0.9257812 -0.6210938,-1.4414062 -1.6992188,-1.4414062 -1.1015625,0 -1.80468749,0.5625 -1.80468749,1.4296875 0,0.7382812 0.375,1.0898437 1.48828129,1.359375 l 0.703125,0.1640625 c 0.515625,0.1289062 0.7265625,0.3164062 0.7265625,0.65625 0,0.43359374 -0.4453125,0.73828124 -1.1015625,0.73828124 -0.3984375,0 -0.7382813,-0.1171875 -0.9257813,-0.31640625 C 1.1956328,-0.93719531 1.1370391,-1.0661016 1.0901641,-1.3942266 H 0.30500781 c 0.0351563,1.07812504 0.64453125,1.60546879 1.87499999,1.60546879 1.1835938,0 1.9335938,-0.5859375 1.9335938,-1.48828129 0,-0.703125 -0.3984375,-1.0898437 -1.3242188,-1.3125 L 2.0745391,-2.7653203 c -0.609375,-0.140625 -0.8671875,-0.3398438 -0.8671875,-0.6679688 0,-0.4335937 0.375,-0.703125 0.984375,-0.703125 0.609375,0 0.9257812,0.2578125 0.9492187,0.75 z m 1.9042968,-1.3125 h -0.75 V 3.046875e-4 h 0.75 z m 0,-1.8398437 H 5.0686797 v 0.9492187 h 0.7617187 z m 4.3359376,1.8398437 v 0.6796875 C 9.7913359,-4.5700078 9.3343047,-4.8278203 8.7366484,-4.8278203 c -1.1953125,0 -2.0039062,1.03125 -2.0039062,2.5546875 0,0.7734375 0.2109375,1.40624999 0.5976562,1.85156249 0.3515625,0.3984375 0.84375,0.6328125 1.3359375,0.6328125 0.5976563,0 1.0078125,-0.2578125 1.4296871,-0.84375 v 0.234375 c 0,0.64453125 -0.08203,1.03125 -0.2695308,1.2890625 C 9.6272734,1.1604609 9.2405547,1.3245234 8.7835234,1.3245234 c -0.3398437,0 -0.6445312,-0.082031 -0.84375,-0.2460937 C 7.7639922,0.93780469 7.6936797,0.82061719 7.6468047,0.53936719 H 6.8850859 c 0.082031,0.89062501 0.7734375,1.41796871 1.875,1.41796871 0.703125,0 1.3007811,-0.2226562 1.6054691,-0.5976562 0.363281,-0.43359376 0.492187,-1.03125001 0.492187,-2.13281251 V -4.6989141 Z m -1.3476563,0.5625 c 0.8085937,0 1.2773433,0.6796875 1.2773433,1.8515625 0,1.125 -0.4804683,1.80468754 -1.2773433,1.80468754 -0.8085938,0 -1.3007813,-0.69140624 -1.3007813,-1.82812504 0,-1.1367187 0.5039063,-1.828125 1.3007813,-1.828125 z m 3.2724613,-0.5625 V 3.046875e-4 h 0.75 V -2.5895391 c 0,-0.9609375 0.503906,-1.5820312 1.265625,-1.5820312 0.597656,0 0.972656,0.3515625 0.972656,0.9140625 V 3.046875e-4 h 0.75 V -3.5504766 c 0,-0.7734375 -0.585938,-1.2773437 -1.488281,-1.2773437 -0.703125,0 -1.148438,0.2695312 -1.570313,0.9140625 v -0.7851563 z m 0,0"
       style="fill:#000000;fill-opacity:1;fill-rule:nonzero;stroke:none"
       aria-label="sign"
       transform="matrix(1.3333333,0,0,1.3333333,55.370667,217.816)" />
    <path
       id="path24"
       d="m 31.00911,-96.00537 h 159.4043 v 34.01616 H 31.00911 Z"
       style="fill:#fde2f0;fill-opacity:1;fill-rule:nonzero;stroke:#191919;stroke-width:0.74721;stroke-linecap:butt;stroke-linejoin:miter;stroke-miterlimit:10;stroke-dasharray:none;stroke-opacity:1"
       transform="matrix(1.3333333,0,0,-1.3333333,45.909333,102.15067)" />
    <path
       id="path25"
       d="m 3.6689922,-3.4575078 c 0.2109375,-0.1171875 0.3164062,-0.1875 0.4101562,-0.2695313 0.2578125,-0.2460937 0.4101563,-0.6328125 0.4101563,-1.0429687 0,-0.9960938 -0.8554688,-1.7226563 -2.0273438,-1.7226563 -1.1835937,0 -2.05078121,0.7265625 -2.05078121,1.734375 0,0.609375 0.2578125,0.9960938 0.83203121,1.3007813 -0.73828121,0.3867187 -1.04296871,0.8789062 -1.04296871,1.6289062 0,1.19531254 0.92578121,2.03906254 2.26171871,2.03906254 1.3242188,0 2.25,-0.84375 2.25,-2.03906254 0,-0.75 -0.3046875,-1.2421875 -1.0429687,-1.6289062 z m -1.2070313,-2.015625 c 0.5625,0 0.9492188,0.3398437 0.9492188,0.8320312 0,0.4804688 -0.3984375,0.8320313 -0.9492188,0.8320313 -0.5507812,0 -0.9492187,-0.3515625 -0.9492187,-0.84375 0,-0.4804688 0.3867187,-0.8203125 0.9492187,-0.8203125 z m -0.011719,2.5195312 c 0.6210937,0 1.0078125,0.4101563 1.0078125,1.0664063 0,0.609375 -0.3984375,1.01953124 -1.0078125,1.01953124 -0.609375,0 -0.9960938,-0.41015624 -0.9960938,-1.03125004 0,-0.6445312 0.3984375,-1.0546875 0.9960938,-1.0546875 z m 5.2060547,-0.1171875 h -2.4375 v 1.21875 h 2.4375 z m 0.8408203,-3.46875 V -4.765625e-4 H 9.7510234 V -0.49266406 c 0.3046876,0.46875 0.7265626,0.703125 1.3359376,0.703125 1.160156,0 2.039062,-1.1015625 2.039062,-2.56640624 0,-0.65625 -0.199218,-1.3242188 -0.515625,-1.78125 -0.339843,-0.4804688 -0.925781,-0.7851563 -1.523437,-0.7851563 -0.597656,0 -1.03125,0.2226563 -1.3359376,0.703125 v -2.3203125 z m 2.3203131,2.671875 c 0.609375,0 1.054687,0.6210938 1.054687,1.5234375 0,0.8789063 -0.445312,1.50000004 -1.054687,1.50000004 -0.644532,0 -1.0664069,-0.60937504 -1.0664069,-1.53515624 0,-0.8789063 0.4335939,-1.4882813 1.0664069,-1.4882813 z m 4.482422,-0.9726562 h -1.253907 v 4.8398437375 h 1.253907 z m 0,-1.6992188 h -1.253907 v 1.125 h 1.253907 z m 3.336914,1.7929688 h -0.691407 v -1.3007813 h -1.265625 v 1.3007813 h -0.609375 v 0.8320312 h 0.609375 v 2.97656254 c 0,0.76171875 0.410157,1.1484375 1.230469,1.1484375 0.28125,0 0.503906,-0.0351563 0.726563,-0.10546875 v -0.87890625 c -0.117188,0.0234375 -0.199219,0.0351563 -0.28125,0.0351563 -0.339844,0 -0.410157,-0.10546875 -0.410157,-0.53906254 v -2.6367188 h 0.691407 z m 0,0"
       style="fill:#000000;fill-opacity:1;fill-rule:nonzero;stroke:none"
       aria-label="8-bit"
       transform="matrix(1.3333333,0,0,1.3333333,154.83067,210.58267)" />
    <path
       id="path26"
       d="m 4.5937188,-2.0981328 c 0,-0.7148438 -0.046875,-1.1484375 -0.1875,-1.5 -0.3046875,-0.7734375 -1.0195313,-1.2304688 -1.8984375,-1.2304688 -1.3007813,0 -2.1445313,0.9960938 -2.1445313,2.5429688 0,1.54687499 0.8085938,2.49609374 2.1328125,2.49609374 1.0664063,0 1.8164063,-0.609375 2.0039063,-1.64062504 h -0.75 C 3.5390313,-0.80907031 3.1171563,-0.48094531 2.5195,-0.48094531 c -0.4804687,0 -0.8789062,-0.22265625 -1.125,-0.60937499 C 1.207,-1.3598516 1.1484063,-1.6293828 1.1366875,-2.0981328 Z M 1.160125,-2.7075078 c 0.058594,-0.8671875 0.5859375,-1.4296875 1.3359375,-1.4296875 0.7382813,0 1.3007813,0.609375 1.3007813,1.3710937 0,0.023437 0,0.035156 0,0.058594 z m 6.1699219,0.28125 1.5820312,-2.2734375 h -0.84375 l -1.125,1.6992187 -1.1367187,-1.6992187 h -0.84375 L 6.5331719,-2.3911016 4.8691094,-4.765625e-4 H 5.7245781 L 6.9081719,-1.8051641 8.0917656,-4.765625e-4 h 0.8671875 z m 2.3496094,4.3828125 h 0.7617187 v -2.44921876 c 0.386719,0.48046875 0.832031,0.703125 1.441406,0.703125 1.207032,0 2.003907,-0.984375 2.003907,-2.48437504 0,-1.5703125 -0.773438,-2.5546875 -2.015625,-2.5546875 -0.632813,0 -1.148438,0.28125 -1.5,0.84375 V -4.6996953 H 9.6796563 Z m 2.0624997,-6.09375 c 0.832032,0 1.371094,0.7265625 1.371094,1.8515625 0,1.0664062 -0.550781,1.79296874 -1.371094,1.79296874 -0.785156,0 -1.300781,-0.71484374 -1.300781,-1.81640624 0,-1.1015625 0.515625,-1.828125 1.300781,-1.828125 z m 4.88086,-0.6914063 c -1.3125,0 -2.109375,0.9375 -2.109375,2.5195313 0,1.57031249 0.785156,2.51953124 2.121093,2.51953124 1.3125,0 2.121094,-0.94921875 2.121094,-2.48437504 0,-1.6289062 -0.773437,-2.5546875 -2.132812,-2.5546875 z m 0.01172,0.6914063 c 0.84375,0 1.347657,0.6796875 1.347657,1.8515625 0,1.1015625 -0.527344,1.80468749 -1.347657,1.80468749 -0.832031,0 -1.347656,-0.69140629 -1.347656,-1.82812499 0,-1.1367188 0.515625,-1.828125 1.347656,-1.828125 z m 3.166993,-0.5625 v 4.6992187375 h 0.75 V -2.5903203 c 0,-0.9609375 0.503906,-1.5820313 1.265625,-1.5820313 0.597656,0 0.972656,0.3515625 0.972656,0.9140625 v 3.2578125375 h 0.75 V -3.5512578 c 0,-0.7734375 -0.585938,-1.2773438 -1.488281,-1.2773438 -0.703125,0 -1.148438,0.2695313 -1.570313,0.9140625 v -0.7851562 z m 8.947265,2.6015625 c 0,-0.7148438 -0.04687,-1.1484375 -0.1875,-1.5 -0.304687,-0.7734375 -1.019531,-1.2304688 -1.898437,-1.2304688 -1.300782,0 -2.144532,0.9960938 -2.144532,2.5429688 0,1.54687499 0.808594,2.49609374 2.132813,2.49609374 1.066406,0 1.816406,-0.609375 2.003906,-1.64062504 h -0.75 c -0.210937,0.62109379 -0.632812,0.94921879 -1.230469,0.94921879 -0.480468,0 -0.878906,-0.22265625 -1.125,-0.60937499 -0.1875,-0.2695313 -0.246093,-0.5390625 -0.257812,-1.0078125 z M 25.3154,-2.7075078 c 0.05859,-0.8671875 0.585938,-1.4296875 1.335938,-1.4296875 0.738281,0 1.300781,0.609375 1.300781,1.3710937 0,0.023437 0,0.035156 0,0.058594 z m 4.458985,-1.9921875 v 4.6992187375 h 0.75 V -2.5903203 c 0,-0.9609375 0.503906,-1.5820313 1.265625,-1.5820313 0.597656,0 0.972656,0.3515625 0.972656,0.9140625 v 3.2578125375 h 0.75 V -3.5512578 c 0,-0.7734375 -0.585937,-1.2773438 -1.488281,-1.2773438 -0.703125,0 -1.148438,0.2695313 -1.570313,0.9140625 v -0.7851562 z m 6.624023,0 H 35.63669 v -1.2890625 h -0.75 v 1.2890625 h -0.632813 v 0.609375 h 0.632813 v 3.55078124 c 0,0.48046875 0.328125,0.75 0.902343,0.75 0.1875,0 0.363282,-0.0234375 0.609375,-0.0703125 v -0.62109375 c -0.09375,0.0234375 -0.210937,0.0351563 -0.351562,0.0351563 -0.328125,0 -0.410156,-0.09375 -0.410156,-0.421875 V -4.0903203 h 0.761718 z m 0,0"
       style="fill:#000000;fill-opacity:1;fill-rule:nonzero;stroke:none"
       aria-label="exponent"
       transform="matrix(1.3333333,0,0,1.3333333,183.39067,210.58267)" />
    <path
       id="path27"
       d="m 191.16061,-96.00537 h 139.47876 v 34.01616 H 191.16061 Z"
       style="fill:#eca9a7;fill-opacity:1;fill-rule:nonzero;stroke:#191919;stroke-width:0.74721;stroke-linecap:butt;stroke-linejoin:miter;stroke-miterlimit:10;stroke-dasharray:none;stroke-opacity:1"
       transform="matrix(1.3333333,0,0,-1.3333333,45.909333,102.15067)" />
    <path
       id="path28"
       d="M 4.7330391,-6.3513438 H 0.25647656 v 1.1132813 H 3.4205391 C 3.0338203,-4.8279063 2.2721016,-3.66775 2.0260078,-3.10525 1.5806953,-2.1911875 1.3580391,-1.3591563 1.1939766,2.1875e-4 h 1.265625 C 2.5767891,-2.0036875 3.2213203,-3.5505625 4.7330391,-5.3669688 Z m 2.9238281,3.28125 h -2.4375 v 1.21875 h 2.4375 z m 0.8408203,-3.46875 V 2.1875e-4 h 1.2539063 v -0.4921875 c 0.3046872,0.46875 0.7265622,0.703125 1.3359372,0.703125 1.160157,0 2.039063,-1.1015625 2.039063,-2.56640625 0,-0.65625 -0.199219,-1.3242188 -0.515625,-1.78125 -0.339844,-0.4804688 -0.925781,-0.7851563 -1.523438,-0.7851563 -0.597656,0 -1.03125,0.2226563 -1.3359372,0.703125 V -6.5388438 Z M 10.818,-3.8669688 c 0.609375,0 1.054688,0.6210938 1.054688,1.5234375 0,0.8789063 -0.445313,1.50000005 -1.054688,1.50000005 -0.644531,0 -1.0664062,-0.60937505 -1.0664062,-1.53515625 0,-0.8789063 0.4335942,-1.4882813 1.0664062,-1.4882813 z M 15.300422,-4.839625 H 14.046516 V 2.1875e-4 h 1.253906 z m 0,-1.6992188 h -1.253906 v 1.125 h 1.253906 z m 3.336914,1.7929688 H 17.94593 V -6.0466563 H 16.680305 V -4.745875 H 16.07093 v 0.8320312 h 0.609375 v 2.97656255 c 0,0.76171875 0.410156,1.1484375 1.230468,1.1484375 0.28125,0 0.503907,-0.0351563 0.726563,-0.10546875 v -0.87890625 c -0.117188,0.0234375 -0.199219,0.0351563 -0.28125,0.0351563 -0.339844,0 -0.410156,-0.10546875 -0.410156,-0.53906245 v -2.6367189 h 0.691406 z m 0,0"
       style="fill:#000000;fill-opacity:1;fill-rule:nonzero;stroke:none"
       aria-label="7-bit"
       transform="matrix(1.3333333,0,0,1.3333333,355.576,211.76533)" />
    <path
       id="path29"
       d="M 0.63335156,-4.699 V 2.1875e-4 H 1.3833516 V -2.9529063 c 0,-0.6796875 0.4921875,-1.21875 1.1015625,-1.21875 0.5507812,0 0.8671875,0.3398438 0.8671875,0.9375 V 2.1875e-4 h 0.75 V -2.9529063 c 0,-0.6796875 0.4921875,-1.21875 1.1015625,-1.21875 0.5507812,0 0.8789062,0.3398438 0.8789062,0.9375 V 2.1875e-4 h 0.75 V -3.527125 c 0,-0.84375 -0.4804687,-1.3007813 -1.359375,-1.3007813 -0.6328125,0 -1.0078125,0.1875 -1.453125,0.7148438 -0.2695312,-0.5039063 -0.6445312,-0.7148438 -1.2539062,-0.7148438 -0.6328125,0 -1.0429688,0.234375 -1.453125,0.796875 V -4.699 Z M 12.261281,-0.433375 c -0.08203,0.0117188 -0.117187,0.0117188 -0.152343,0.0117188 -0.269532,0 -0.410157,-0.12890625 -0.410157,-0.36328125 V -3.5505625 c 0,-0.8320312 -0.609375,-1.2773437 -1.769531,-1.2773437 -0.6796875,0 -1.2421875,0.1875 -1.5585937,0.5390625 -0.2109375,0.2460938 -0.3046875,0.515625 -0.3164063,0.984375 h 0.75 C 8.8628438,-3.8786875 9.2026875,-4.1365 9.9058125,-4.1365 c 0.6679685,0 1.0546875,0.2460937 1.0546875,0.6914062 v 0.1992188 c 0,0.3164062 -0.1875,0.4453125 -0.785156,0.515625 -1.0546877,0.140625 -1.2187502,0.1757812 -1.5000002,0.2929687 -0.5507813,0.2226563 -0.8320313,0.6445313 -0.8320313,1.2539063 0,0.85546875 0.5976563,1.39453125 1.546875,1.39453125 0.5859375,0 1.0664065,-0.2109375 1.5937505,-0.69140625 0.04687,0.46875 0.28125,0.69140625 0.773437,0.69140625 0.152344,0 0.269531,-0.0234375 0.503906,-0.0820313 z M 10.9605,-1.4763438 c 0,0.2460938 -0.08203,0.3984375 -0.304687,0.60937505 -0.304688,0.28125 -0.6679692,0.421875 -1.1132817,0.421875 -0.5742188,0 -0.9140625,-0.28125 -0.9140625,-0.76171875 0,-0.4921875 0.328125,-0.7382813 1.125,-0.8554688 C 10.538625,-2.16775 10.702688,-2.2029063 10.9605,-2.3200938 Z M 13.087453,-4.699 V 2.1875e-4 h 0.75 V -2.589625 c 0,-0.9609375 0.503906,-1.5820313 1.265625,-1.5820313 0.597656,0 0.972656,0.3515625 0.972656,0.9140625 V 2.1875e-4 h 0.75 V -3.5505625 c 0,-0.7734375 -0.585937,-1.2773438 -1.488281,-1.2773438 -0.703125,0 -1.148437,0.2695313 -1.570312,0.9140625 V -4.699 Z m 6.626953,0 h -0.761718 v -1.2890625 h -0.75 V -4.699 h -0.632813 v 0.609375 h 0.632813 v 3.55078125 c 0,0.48046875 0.328125,0.75 0.902343,0.75 0.1875,0 0.363282,-0.0234375 0.609375,-0.0703125 V -0.48025 c -0.09375,0.0234375 -0.210937,0.0351563 -0.351562,0.0351563 -0.328125,0 -0.410156,-0.09375 -0.410156,-0.421875 V -4.089625 h 0.761718 z m 1.564453,0 h -0.75 V 2.1875e-4 h 0.75 z m 0,-1.8398438 h -0.761718 v 0.9492188 h 0.761718 z M 25.849172,-3.3865 c -0.01172,-0.9257813 -0.621094,-1.4414063 -1.699219,-1.4414063 -1.101562,0 -1.804687,0.5625 -1.804687,1.4296875 0,0.7382813 0.375,1.0898438 1.488281,1.359375 l 0.703125,0.1640625 c 0.515625,0.1289063 0.726562,0.3164063 0.726562,0.65625 0,0.4335938 -0.445312,0.7382813 -1.101562,0.7382813 -0.398438,0 -0.738281,-0.1171875 -0.925781,-0.31640625 -0.117188,-0.140625 -0.175782,-0.26953125 -0.222657,-0.59765625 h -0.785156 c 0.03516,1.078125 0.644531,1.60546875 1.875,1.60546875 1.183594,0 1.933594,-0.5859375 1.933594,-1.48828125 0,-0.703125 -0.398438,-1.0898438 -1.324219,-1.3125 l -0.714844,-0.1757813 c -0.609375,-0.140625 -0.867187,-0.3398437 -0.867187,-0.6679687 0,-0.4335938 0.375,-0.703125 0.984375,-0.703125 0.609375,0 0.925781,0.2578125 0.949219,0.75 z m 4.482422,0 c -0.01172,-0.9257813 -0.621094,-1.4414063 -1.699219,-1.4414063 -1.101562,0 -1.804687,0.5625 -1.804687,1.4296875 0,0.7382813 0.375,1.0898438 1.488281,1.359375 l 0.703125,0.1640625 c 0.515625,0.1289063 0.726562,0.3164063 0.726562,0.65625 0,0.4335938 -0.445312,0.7382813 -1.101562,0.7382813 -0.398438,0 -0.738281,-0.1171875 -0.925781,-0.31640625 -0.117188,-0.140625 -0.175782,-0.26953125 -0.222657,-0.59765625 H 26.7105 c 0.03516,1.078125 0.644531,1.60546875 1.875,1.60546875 1.183594,0 1.933594,-0.5859375 1.933594,-1.48828125 0,-0.703125 -0.398438,-1.0898438 -1.324219,-1.3125 l -0.714844,-0.1757813 c -0.609375,-0.140625 -0.867187,-0.3398437 -0.867187,-0.6679687 0,-0.4335938 0.375,-0.703125 0.984375,-0.703125 0.609375,0 0.925781,0.2578125 0.949219,0.75 z m 5.349609,2.953125 c -0.08203,0.0117188 -0.117187,0.0117188 -0.152344,0.0117188 -0.269531,0 -0.410156,-0.12890625 -0.410156,-0.36328125 V -3.5505625 c 0,-0.8320312 -0.609375,-1.2773437 -1.769531,-1.2773437 -0.679688,0 -1.242188,0.1875 -1.558594,0.5390625 -0.210937,0.2460938 -0.304687,0.515625 -0.316406,0.984375 h 0.75 c 0.05859,-0.5742187 0.398437,-0.8320312 1.101562,-0.8320312 0.667969,0 1.054688,0.2460936 1.054688,0.6914061 v 0.1992188 c 0,0.3164062 -0.1875,0.4453125 -0.785156,0.515625 -1.054688,0.140625 -1.21875,0.1757812 -1.5,0.2929687 -0.550782,0.2226563 -0.832032,0.6445313 -0.832032,1.2539063 0,0.8554688 0.597657,1.3945313 1.546875,1.3945313 0.585938,0 1.066407,-0.2109375 1.59375,-0.69140625 0.04687,0.46875 0.28125,0.69140625 0.773438,0.69140625 0.152344,0 0.269531,-0.0234375 0.503906,-0.0820313 z m -1.300781,-1.0429688 c 0,0.2460938 -0.08203,0.3984375 -0.304688,0.60937505 -0.304687,0.28125 -0.667968,0.421875 -1.113281,0.421875 -0.574219,0 -0.914062,-0.28125 -0.914062,-0.76171875 0,-0.4921875 0.328125,-0.7382813 1.125,-0.8554688 0.785156,-0.1054687 0.949218,-0.140625 1.207031,-0.2578125 z m 0,0"
       style="fill:#000000;fill-opacity:1;fill-rule:nonzero;stroke:none"
       aria-label="mantissa"
       transform="matrix(1.3333333,0,0,1.3333333,384.136,211.76533)" />
    <path
       id="path30"
       d="M 0.73954688,-4.609375e-4 H 3.6809531 c 0.75,0 1.2539063,-0.1406250025 1.640625,-0.4804687525 0.3984375,-0.328125 0.6445313,-0.87890621 0.6445313,-1.40625001 0,-0.6445312 -0.3398438,-1.1484375 -1.078125,-1.5820312 0.6445312,-0.4101563 0.890625,-0.7851563 0.890625,-1.3476563 0,-0.4453125 -0.2226563,-0.9257812 -0.5859375,-1.2421875 -0.3867188,-0.328125 -0.84375,-0.4804687 -1.546875,-0.4804687 H 0.73954688 Z M 2.0754844,-5.4145234 h 1.4648437 c 0.6210938,0 0.9492188,0.2578125 0.9492188,0.7382812 0,0.4804688 -0.328125,0.7382813 -0.9492188,0.7382813 H 2.0754844 Z m 0,2.6015625 h 1.6054687 c 0.65625,0 0.9960938,0.2929687 0.9960938,0.84375 0,0.5507812 -0.3398438,0.84375 -0.9960938,0.84375 H 2.0754844 Z m 6.4013672,0 h 2.8593754 v -1.125 H 8.4768516 v -1.4765625 h 3.2460934 v -1.125 H 7.1409141 V -4.609375e-4 H 8.4768516 Z M 14.084273,-4.3832734 V -4.609375e-4 H 15.33818 V -6.3520234 h -0.832032 c -0.199218,0.75 -0.855468,1.1367187 -1.945312,1.1367187 v 0.8320313 z m 7.400391,-0.5273438 c -0.07031,-0.4101562 -0.140625,-0.6210937 -0.304687,-0.8554687 -0.328125,-0.4570313 -0.914063,-0.7265625 -1.605469,-0.7265625 -0.785156,0 -1.429688,0.3515625 -1.816406,0.984375 -0.386719,0.6210937 -0.539063,1.3359375 -0.539063,2.484375 0,1.1015625 0.140625,1.78125 0.457031,2.28515621 0.375,0.59765625 1.03125,0.94921875 1.792969,0.94921875 1.265625,0 2.121094,-0.94921875 2.121094,-2.33203126 0,-1.21875 -0.75,-2.0625 -1.851563,-2.0625 -0.515625,0 -0.867187,0.1523438 -1.253906,0.5625 0.02344,-0.6679687 0.02344,-0.6679687 0.07031,-0.9375 0.117187,-0.5742187 0.480468,-0.9140625 0.984375,-0.9140625 0.398437,0 0.621093,0.1523438 0.773437,0.5625 z m -2.050781,1.7109375 c 0.585937,0 0.960937,0.4570313 0.960937,1.1601563 0,0.6796875 -0.410156,1.17187496 -0.960937,1.17187496 -0.574219,0 -0.972656,-0.48046876 -0.972656,-1.14843746 0,-0.703125 0.398437,-1.1835938 0.972656,-1.1835938 z m 0,0"
       style="fill:#000000;fill-opacity:1;fill-rule:nonzero;stroke:none"
       aria-label="BF16"
       transform="matrix(1.3333333,0,0,1.3333333,4.428,211.63733)" />
    <path
       id="path31"
       d="m 331.01299,-96.37897 v -14.1734"
       style="fill:none;stroke:#000000;stroke-width:0.74721;stroke-linecap:butt;stroke-linejoin:miter;stroke-miterlimit:10;stroke-dasharray:2.98883, 2.98883;stroke-dashoffset:0;stroke-opacity:1"
       transform="matrix(1.3333333,0,0,-1.3333333,45.909333,102.15067)" />
    <path
       id="path32"
       d="M 331.01299,-96.37897 V 73.70187"
       style="fill:none;stroke:#000000;stroke-width:0.74721;stroke-linecap:butt;stroke-linejoin:miter;stroke-miterlimit:10;stroke-dasharray:2.98883, 2.98883;stroke-dashoffset:0;stroke-opacity:1"
       transform="matrix(1.3333333,0,0,-1.3333333,45.909333,102.15067)" />
    <path
       id="path33"
       d="m 0,48.93675 c 1.947,3.88327 6.483,6.46839 12.95871,6.46108 L 152.56186,55.2402 c 6.47571,-0.0073 11.01169,2.5778 12.95872,6.46108 1.93824,-3.88767 6.46837,-6.48302 12.94408,-6.49033 l 139.60318,-0.15764 c 6.47571,-0.0073 11.00583,-2.60266 12.94409,-6.49031"
       style="fill:none;stroke:#000000;stroke-width:0.79701;stroke-linecap:butt;stroke-linejoin:miter;stroke-miterlimit:10;stroke-dasharray:none;stroke-opacity:1"
       transform="matrix(1.3333333,0,0,-1.3333333,45.909333,102.15067)" />
    <path
       id="path34"
       d="M 2.1341172,-4.3824844 V 3.28125e-4 H 3.3880234 V -6.3512344 H 2.5559922 c -0.1992188,0.75 -0.8554688,1.1367188 -1.94531251,1.1367188 v 0.8320312 z M 9.5315781,-4.9098281 C 9.4612656,-5.3199844 9.3909531,-5.5309219 9.2268906,-5.7652969 8.8987656,-6.2223281 8.3128281,-6.4918594 7.6214219,-6.4918594 c -0.7851563,0 -1.4296875,0.3515625 -1.8164063,0.984375 -0.3867187,0.6210938 -0.5390625,1.3359375 -0.5390625,2.484375 0,1.1015625 0.140625,1.78125 0.4570313,2.28515627 0.375,0.59765625 1.03125,0.94921875 1.7929687,0.94921875 1.265625,0 2.1210938,-0.94921875 2.1210938,-2.33203122 0,-1.21875 -0.75,-2.0625 -1.8515625,-2.0625 -0.515625,0 -0.8671875,0.1523437 -1.2539063,0.5625 0.023437,-0.6679688 0.023437,-0.6679688 0.070312,-0.9375 0.1171875,-0.5742188 0.4804688,-0.9140625 0.984375,-0.9140625 0.3984375,0 0.6210938,0.1523437 0.7734375,0.5625 z m -2.0507812,1.7109375 c 0.5859375,0 0.9609375,0.4570312 0.9609375,1.1601562 0,0.6796875 -0.4101563,1.17187502 -0.9609375,1.17187502 -0.5742188,0 -0.9726563,-0.48046872 -0.9726563,-1.14843752 0,-0.703125 0.3984375,-1.1835937 0.9726563,-1.1835937 z M 13.483727,-6.5387344 V 3.28125e-4 h 1.253906 V -0.49185938 c 0.304687,0.46875 0.726562,0.703125 1.335937,0.703125 1.160157,0 2.039063,-1.1015625 2.039063,-2.56640622 0,-0.65625 -0.199219,-1.3242188 -0.515625,-1.78125 -0.339844,-0.4804688 -0.925781,-0.7851563 -1.523438,-0.7851563 -0.597656,0 -1.03125,0.2226563 -1.335937,0.703125 v -2.3203125 z m 2.320312,2.671875 c 0.609375,0 1.054688,0.6210938 1.054688,1.5234375 0,0.8789063 -0.445313,1.50000002 -1.054688,1.50000002 -0.644531,0 -1.066406,-0.60937502 -1.066406,-1.53515622 0,-0.8789063 0.433594,-1.4882813 1.066406,-1.4882813 z m 4.482422,-0.9726562 H 19.032555 V 3.28125e-4 h 1.253906 z m 0,-1.6992188 h -1.253906 v 1.125 h 1.253906 z m 3.336914,1.7929688 h -0.691406 v -1.3007813 h -1.265625 v 1.3007813 h -0.609375 v 0.8320312 h 0.609375 v 2.97656252 c 0,0.76171875 0.410156,1.1484375 1.230468,1.1484375 0.28125,0 0.503907,-0.0351563 0.726563,-0.10546875 v -0.87890625 c -0.117188,0.0234375 -0.199219,0.0351563 -0.28125,0.0351563 -0.339844,0 -0.410156,-0.10546875 -0.410156,-0.53906252 v -2.6367188 h 0.691406 z m 4.813477,1.4648437 c -0.01172,-1.0195312 -0.808594,-1.640625 -2.097657,-1.640625 -1.230468,0 -1.992187,0.6210938 -1.992187,1.6171875 0,0.3164063 0.09375,0.5976563 0.269531,0.7851563 0.164063,0.1757812 0.316406,0.2460937 0.785156,0.3984375 l 1.5,0.46875 c 0.316407,0.1054687 0.421875,0.1992187 0.421875,0.3984375 0,0.29296872 -0.351562,0.46874997 -0.9375,0.46874997 -0.316406,0 -0.585937,-0.0585938 -0.738281,-0.1640625 -0.140625,-0.10546877 -0.1875,-0.19921877 -0.246094,-0.45703127 h -1.230468 c 0.03516,1.05468752 0.820312,1.61718752 2.285156,1.61718752 0.679687,0 1.183594,-0.15234375 1.546875,-0.43359375 0.351562,-0.29296875 0.574219,-0.73828125 0.574219,-1.20703127 0,-0.6328125 -0.316407,-1.03125 -0.949219,-1.21875 l -1.59375,-0.4570312 c -0.351563,-0.1171875 -0.433594,-0.1875 -0.433594,-0.3867188 0,-0.2695312 0.28125,-0.4453125 0.726563,-0.4453125 0.597656,0 0.890625,0.2226563 0.902343,0.65625 z m 0,0"
       style="fill:#000000;fill-opacity:1;fill-rule:nonzero;stroke:none"
       aria-label="16bits"
       transform="matrix(1.3333333,0,0,1.3333333,247.31467,13.148)" />
    <path
       id="path35"
       d="m 331.01299,48.56017 c 1.93824,3.88763 6.46836,6.483 12.94407,6.49031 l 138.48241,0.15637 c 6.47571,0.0073 11.00586,2.60266 12.94409,6.49032 1.94702,-3.88328 6.483,-6.46839 12.95871,-6.46107 l 138.48242,0.15636 c 6.47571,0.0073 11.01172,-2.57779 12.95873,-6.46106"
       style="fill:none;stroke:#000000;stroke-width:0.79701;stroke-linecap:butt;stroke-linejoin:miter;stroke-miterlimit:10;stroke-dasharray:none;stroke-opacity:1"
       transform="matrix(1.3333333,0,0,-1.3333333,45.909333,102.15067)" />
    <path
       id="path36"
       d="M 2.1318594,-4.3824844 V 3.28125e-4 H 3.3857656 V -6.3512344 H 2.5537344 c -0.1992188,0.75 -0.8554688,1.1367188 -1.94531253,1.1367188 v 0.8320312 z M 9.53225,-4.9098281 C 9.4619375,-5.3199844 9.391625,-5.5309219 9.2275625,-5.7652969 8.8994375,-6.2223281 8.3135,-6.4918594 7.6220937,-6.4918594 c -0.7851562,0 -1.4296875,0.3515625 -1.8164062,0.984375 -0.3867188,0.6210938 -0.5390625,1.3359375 -0.5390625,2.484375 0,1.1015625 0.140625,1.78125 0.4570312,2.28515627 0.375,0.59765625 1.03125,0.94921875 1.7929688,0.94921875 1.265625,0 2.1210937,-0.94921875 2.1210937,-2.33203122 0,-1.21875 -0.75,-2.0625 -1.8515625,-2.0625 -0.515625,0 -0.8671875,0.1523437 -1.2539062,0.5625 0.023437,-0.6679688 0.023437,-0.6679688 0.070312,-0.9375 0.1171875,-0.5742188 0.4804687,-0.9140625 0.984375,-0.9140625 0.3984375,0 0.6210937,0.1523437 0.7734375,0.5625 z m -2.0507813,1.7109375 c 0.5859375,0 0.9609375,0.4570312 0.9609375,1.1601562 0,0.6796875 -0.4101562,1.17187502 -0.9609375,1.17187502 -0.5742187,0 -0.9726562,-0.48046872 -0.9726562,-1.14843752 0,-0.703125 0.3984375,-1.1835937 0.9726562,-1.1835937 z M 13.484398,-6.5387344 V 3.28125e-4 h 1.253907 V -0.49185938 c 0.304687,0.46875 0.726562,0.703125 1.335937,0.703125 1.160156,0 2.039063,-1.1015625 2.039063,-2.56640622 0,-0.65625 -0.199219,-1.3242188 -0.515625,-1.78125 -0.339844,-0.4804688 -0.925782,-0.7851563 -1.523438,-0.7851563 -0.597656,0 -1.03125,0.2226563 -1.335937,0.703125 v -2.3203125 z m 2.320313,2.671875 c 0.609375,0 1.054687,0.6210938 1.054687,1.5234375 0,0.8789063 -0.445312,1.50000002 -1.054687,1.50000002 -0.644531,0 -1.066406,-0.60937502 -1.066406,-1.53515622 0,-0.8789063 0.433593,-1.4882813 1.066406,-1.4882813 z m 4.482422,-0.9726562 H 19.033227 V 3.28125e-4 h 1.253906 z m 0,-1.6992188 h -1.253906 v 1.125 h 1.253906 z m 3.336914,1.7929688 h -0.691406 v -1.3007813 h -1.265625 v 1.3007813 h -0.609375 v 0.8320312 h 0.609375 v 2.97656252 c 0,0.76171875 0.410156,1.1484375 1.230468,1.1484375 0.28125,0 0.503907,-0.0351563 0.726563,-0.10546875 v -0.87890625 c -0.117188,0.0234375 -0.199219,0.0351563 -0.28125,0.0351563 -0.339844,0 -0.410156,-0.10546875 -0.410156,-0.53906252 v -2.6367188 h 0.691406 z m 4.813476,1.4648437 c -0.01172,-1.0195312 -0.808593,-1.640625 -2.097656,-1.640625 -1.230469,0 -1.992187,0.6210938 -1.992187,1.6171875 0,0.3164063 0.09375,0.5976563 0.269531,0.7851563 0.164062,0.1757812 0.316406,0.2460937 0.785156,0.3984375 l 1.5,0.46875 c 0.316406,0.1054687 0.421875,0.1992187 0.421875,0.3984375 0,0.29296872 -0.351562,0.46874997 -0.9375,0.46874997 -0.316406,0 -0.585937,-0.0585938 -0.738281,-0.1640625 -0.140625,-0.10546877 -0.1875,-0.19921877 -0.246094,-0.45703127 h -1.230469 c 0.03516,1.05468752 0.820313,1.61718752 2.285157,1.61718752 0.679687,0 1.183593,-0.15234375 1.546875,-0.43359375 0.351562,-0.29296875 0.574218,-0.73828125 0.574218,-1.20703127 0,-0.6328125 -0.316406,-1.03125 -0.949218,-1.21875 l -1.59375,-0.4570312 c -0.351563,-0.1171875 -0.433594,-0.1875 -0.433594,-0.3867188 0,-0.2695312 0.28125,-0.4453125 0.726562,-0.4453125 0.597657,0 0.890625,0.2226563 0.902344,0.65625 z m 0,0"
       style="fill:#000000;fill-opacity:1;fill-rule:nonzero;stroke:none"
       aria-label="16bits"
       transform="matrix(1.3333333,0,0,1.3333333,687.16533,13.148)" />
  </g>
</svg>
