<?xml version="1.0" encoding="UTF-8" standalone="no"?>
<!-- Created with Inkscape (http://www.inkscape.org/) -->

<svg
   version="1.1"
   id="svg1"
   width="675.34802"
   height="204.57733"
   viewBox="0 0 675.34802 204.57733"
   xmlns="http://www.w3.org/2000/svg"
   xmlns:svg="http://www.w3.org/2000/svg">
  <defs
     id="defs1" />
  <g
     id="g1">
    <path
       id="path1"
       d="m -28.92201,-12.93805 h 57.84404 v 25.8761 h -57.84404 z"
       style="fill:#d1f3ff;fill-opacity:1;fill-rule:nonzero;stroke:#006395;stroke-width:0.74721;stroke-linecap:butt;stroke-linejoin:miter;stroke-miterlimit:10;stroke-dasharray:none;stroke-opacity:1"
       transform="matrix(1.3333333,0,0,-1.3333333,214.19867,61.096)" />
    <path
       id="path2"
       d="M 4.1961953,-0.00120312 6.0360391,-5.4738594 v 5.47265628 H 6.8211953 V -6.5402656 H 5.6610391 L 3.7626016,-0.84495312 1.8290078,-6.5402656 H 0.66885156 v 6.53906248 H 1.4657266 V -5.4738594 l 1.8515625,5.47265628 z m 8.0654297,-0.43359375 c -0.08203,0.0117188 -0.117187,0.0117188 -0.152344,0.0117188 -0.269531,0 -0.410156,-0.12890625 -0.410156,-0.36328125 V -3.5519844 c 0,-0.8320312 -0.609375,-1.2773437 -1.7695312,-1.2773437 -0.6796875,0 -1.2421875,0.1875 -1.5585938,0.5390625 -0.2109375,0.2460937 -0.3046875,0.515625 -0.3164062,0.984375 h 0.75 c 0.058594,-0.5742188 0.3984375,-0.8320313 1.1015625,-0.8320313 0.6679687,0 1.0546877,0.2460938 1.0546877,0.6914063 v 0.1992187 c 0,0.3164063 -0.1875,0.4453125 -0.785156,0.515625 -1.054688,0.140625 -1.2187505,0.1757813 -1.5000005,0.2929688 -0.5507812,0.2226562 -0.8320312,0.6445312 -0.8320312,1.2539062 0,0.85546878 0.5976562,1.39453128 1.546875,1.39453128 0.5859375,0 1.0664067,-0.2109375 1.5937497,-0.69140625 0.04687,0.46875 0.28125,0.69140625 0.773438,0.69140625 0.152344,0 0.269531,-0.0234375 0.503906,-0.0820313 z M 10.960844,-1.4777656 c 0,0.2460937 -0.08203,0.3984375 -0.304688,0.60937498 -0.304687,0.28125 -0.6679685,0.421875 -1.113281,0.421875 -0.5742187,0 -0.9140625,-0.28125 -0.9140625,-0.76171878 0,-0.4921875 0.328125,-0.7382812 1.125,-0.8554687 0.7851565,-0.1054688 0.9492185,-0.140625 1.2070315,-0.2578125 z m 3.767578,-3.2226563 h -0.761719 v -1.2890625 h -0.75 v 1.2890625 h -0.632812 v 0.609375 h 0.632812 v 3.55078128 c 0,0.48046875 0.328125,0.75 0.902344,0.75 0.1875,0 0.363281,-0.0234375 0.609375,-0.0703125 v -0.62109375 c -0.09375,0.0234375 -0.210938,0.0351563 -0.351563,0.0351563 -0.328125,0 -0.410156,-0.09375 -0.410156,-0.421875 V -4.0910469 h 0.761719 z m 0.84082,0 v 4.69921878 h 0.75 V -2.4387031 c 0,-0.6679688 0.175781,-1.1132813 0.527344,-1.3710938 0.234375,-0.1757812 0.457031,-0.2226562 0.984375,-0.234375 v -0.7617187 c -0.128906,-0.023437 -0.199219,-0.023437 -0.292969,-0.023437 -0.480469,0 -0.855469,0.28125 -1.277344,0.984375 v -0.8554688 z m 3.84668,0 h -0.75 v 4.69921878 h 0.75 z m 0,-1.8398437 h -0.761719 v 0.9492187 h 0.761719 z m 3.254883,4.1132812 1.582031,-2.2734375 h -0.84375 l -1.125,1.6992188 -1.136719,-1.6992188 h -0.84375 l 1.570313,2.3085938 -1.664063,2.39062498 h 0.855469 l 1.183594,-1.80468748 1.183593,1.80468748 h 0.867188 z m 0,0"
       style="fill:#000000;fill-opacity:1;fill-rule:nonzero;stroke:none"
       aria-label="Matrix"
       transform="matrix(1.3333333,0,0,1.3333333,197.83867,56.790667)" />
    <path
       id="path3"
       d="M 4.1965,-2.421875e-4 6.0363438,-5.4728984 V -2.421875e-4 H 6.8215 V -6.5393047 H 5.6613438 L 3.7629063,-0.84399219 1.8293125,-6.5393047 H 0.66915625 V -2.421875e-4 H 1.4660313 V -5.4728984 l 1.8515625,5.4726562125 z m 7.59668,0 V -4.6994609 h -0.75 v 2.6601562 c 0,0.9609375 -0.503907,1.59375001 -1.2773441,1.59375001 -0.5976562,0 -0.9726562,-0.36328125 -0.9726562,-0.92578121 v -3.328125 H 8.0548984 v 3.6210937 c 0,0.78515626 0.5742188,1.28906251 1.4882813,1.28906251 0.6914063,0 1.1367183,-0.24609375 1.5703123,-0.8671875 V -2.421875e-4 Z M 13.814664,-6.5393047 h -0.75 v 6.5390625125 h 0.75 z m 2.90332,1.8398438 h -0.761718 v -1.2890625 h -0.75 v 1.2890625 h -0.632813 v 0.609375 h 0.632813 v 3.55078121 c 0,0.48046875 0.328125,0.75 0.902343,0.75 0.1875,0 0.363282,-0.0234375 0.609375,-0.0703125 v -0.62109375 c -0.09375,0.0234375 -0.210937,0.0351563 -0.351562,0.0351563 -0.328125,0 -0.410156,-0.09375 -0.410156,-0.421875 V -4.0900859 h 0.761718 z m 1.567383,0 h -0.75 v 4.6992187125 h 0.75 z m 0,-1.8398438 h -0.761719 v 0.9492188 h 0.761719 z m 1.122071,8.4960938 h 0.761718 v -2.44921879 c 0.386719,0.48046875 0.832032,0.703125 1.441407,0.703125 1.207031,0 2.003906,-0.984375 2.003906,-2.48437501 0,-1.5703125 -0.773438,-2.5546875 -2.015625,-2.5546875 -0.632813,0 -1.148438,0.28125 -1.5,0.84375 v -0.7148437 h -0.691406 z m 2.0625,-6.09375 c 0.832031,0 1.371093,0.7265625 1.371093,1.8515625 0,1.0664062 -0.550781,1.79296871 -1.371093,1.79296871 -0.785157,0 -1.300782,-0.71484371 -1.300782,-1.81640621 0,-1.1015625 0.515625,-1.828125 1.300782,-1.828125 z m 3.802734,-2.4023438 h -0.75 v 6.5390625125 h 0.75 z m 1.977539,1.8398438 h -0.75 v 4.6992187125 h 0.75 z m 0,-1.8398438 h -0.761719 v 0.9492188 h 0.761719 z m 4.863281,3.421875 c -0.03516,-0.4570312 -0.128906,-0.75 -0.304687,-1.0195312 -0.328125,-0.4335938 -0.890625,-0.6914063 -1.546875,-0.6914063 -1.265625,0 -2.085938,0.9960938 -2.085938,2.5546875 0,1.52343751 0.808594,2.48437501 2.074219,2.48437501 1.125,0 1.828125,-0.6796875 1.921875,-1.82812501 h -0.75 c -0.128906,0.76171876 -0.515625,1.13671876 -1.148438,1.13671876 -0.832031,0 -1.324218,-0.67968746 -1.324218,-1.79296876 0,-1.171875 0.492187,-1.8632812 1.300781,-1.8632812 0.632812,0 1.019531,0.3632812 1.113281,1.0195312 z m 5.056641,2.68359376 c -0.08203,0.0117188 -0.117188,0.0117188 -0.152344,0.0117188 -0.269531,0 -0.410156,-0.12890625 -0.410156,-0.36328125 V -3.5510234 c 0,-0.8320313 -0.609375,-1.2773438 -1.769531,-1.2773438 -0.679688,0 -1.242188,0.1875 -1.558594,0.5390625 -0.210938,0.2460938 -0.304688,0.515625 -0.316406,0.984375 h 0.75 c 0.05859,-0.5742187 0.398437,-0.8320312 1.101562,-0.8320312 0.667969,0 1.054688,0.2460937 1.054688,0.6914062 v 0.1992188 c 0,0.3164062 -0.1875,0.4453125 -0.785157,0.515625 -1.054687,0.140625 -1.21875,0.1757812 -1.5,0.2929687 -0.550781,0.2226563 -0.832031,0.6445313 -0.832031,1.2539063 0,0.85546871 0.597656,1.39453121 1.546875,1.39453121 0.585938,0 1.066406,-0.2109374975 1.59375,-0.69140625 0.04687,0.46875 0.28125,0.69140625 0.773438,0.69140625 0.152343,0 0.269531,-0.0234375 0.503906,-0.0820313 z M 35.869352,-1.4768047 c 0,0.2460938 -0.08203,0.3984375 -0.304688,0.60937501 -0.304687,0.28125 -0.667969,0.421875 -1.113281,0.421875 -0.574219,0 -0.914063,-0.28125 -0.914063,-0.76171871 0,-0.4921875 0.328125,-0.7382813 1.125,-0.8554688 0.785157,-0.1054687 0.949219,-0.140625 1.207032,-0.2578125 z m 3.767578,-3.2226562 h -0.761719 v -1.2890625 h -0.75 v 1.2890625 h -0.632813 v 0.609375 h 0.632813 v 3.55078121 c 0,0.48046875 0.328125,0.75 0.902344,0.75 0.1875,0 0.363281,-0.0234375 0.609375,-0.0703125 v -0.62109375 c -0.09375,0.0234375 -0.210938,0.0351563 -0.351563,0.0351563 -0.328125,0 -0.410156,-0.09375 -0.410156,-0.421875 V -4.0900859 h 0.761719 z m 1.567383,0 h -0.75 v 4.6992187125 h 0.75 z m 0,-1.8398438 h -0.761719 v 0.9492188 h 0.761719 z m 3.079101,1.7109375 c -1.3125,0 -2.109375,0.9375 -2.109375,2.5195313 0,1.57031246 0.785156,2.51953121 2.121094,2.51953121 1.3125,0 2.121094,-0.94921875 2.121094,-2.48437501 0,-1.6289062 -0.773438,-2.5546875 -2.132813,-2.5546875 z m 0.01172,0.6914063 c 0.84375,0 1.347656,0.6796875 1.347656,1.8515625 0,1.1015625 -0.527344,1.80468746 -1.347656,1.80468746 -0.832031,0 -1.347656,-0.69140626 -1.347656,-1.82812496 0,-1.1367188 0.515625,-1.828125 1.347656,-1.828125 z m 3.169922,-0.5625 v 4.6992187125 h 0.75 V -2.5900859 c 0,-0.9609375 0.503906,-1.5820313 1.265625,-1.5820313 0.597656,0 0.972656,0.3515625 0.972656,0.9140625 v 3.2578125125 h 0.75 V -3.5510234 c 0,-0.7734375 -0.585938,-1.2773438 -1.488281,-1.2773438 -0.703125,0 -1.148438,0.2695313 -1.570313,0.9140625 v -0.7851562 z m 0,0"
       style="fill:#000000;fill-opacity:1;fill-rule:nonzero;stroke:none"
       aria-label="Multiplication"
       transform="matrix(1.3333333,0,0,1.3333333,179.65467,71.402667)" />
    <path
       id="path4"
       d="m 43.84262,-12.93805 h 57.84404 v 25.8761 H 43.84262 Z"
       style="fill:#fde2f0;fill-opacity:1;fill-rule:nonzero;stroke:#d9534f;stroke-width:0.74721;stroke-linecap:butt;stroke-linejoin:miter;stroke-miterlimit:10;stroke-dasharray:none;stroke-opacity:1"
       transform="matrix(1.3333333,0,0,-1.3333333,214.19867,61.096)" />
    <path
       id="path5"
       d="M 1.7344297,-6.5402656 H 0.89067969 v 6.53906248 H 1.7344297 Z m 6.5478516,0 H 7.497125 v 5.34375 L 4.07525,-6.5402656 H 3.1729063 v 6.53906248 H 3.9580625 V -5.2980781 l 3.3867188,5.29687498 h 0.9375 z m 3.8613277,0.7382812 h 2.144532 V -6.5402656 H 9.1553281 v 0.7382812 h 2.1562499 v 5.80078128 h 0.832031 z m 4.280274,2.8828125 h 0.433594 c 0.867187,0 1.3125,0.3867188 1.3125,1.1484375 0,0.79687503 -0.492188,1.27734378 -1.3125,1.27734378 -0.867188,0 -1.289063,-0.43359375 -1.335938,-1.35937498 h -0.796875 c 0.04687,0.515625 0.128906,0.84375 0.28125,1.13671873 0.328125,0.609375 0.949219,0.92578125 1.816406,0.92578125 1.3125,0 2.15625,-0.78515625 2.15625,-1.98046878 0,-0.8085937 -0.316406,-1.265625 -1.078125,-1.5234375 0.597657,-0.234375 0.890625,-0.6796875 0.890625,-1.3125 0,-1.1015625 -0.726562,-1.7460937 -1.933593,-1.7460937 -1.289063,0 -1.96875,0.6914062 -1.992188,2.0507812 h 0.785156 c 0.01172,-0.3867187 0.04687,-0.5976562 0.152344,-0.796875 0.175781,-0.3515625 0.5625,-0.5625 1.066406,-0.5625 0.691407,0 1.113282,0.4101563 1.113282,1.078125 0,0.4453125 -0.164063,0.7148438 -0.503907,0.8671875 -0.222656,0.082031 -0.503906,0.1171875 -1.054687,0.1289063 z m 7.541015,2.13281253 h -3.339843 c 0.08203,-0.51562503 0.363281,-0.84375003 1.148437,-1.30078123 l 0.890625,-0.4921875 c 0.890625,-0.4804688 1.347656,-1.1367188 1.347656,-1.9101563 0,-0.5273437 -0.210937,-1.0195312 -0.597656,-1.3710937 -0.375,-0.3398438 -0.832031,-0.4921875 -1.441406,-0.4921875 -0.808594,0 -1.40625,0.28125 -1.757813,0.8203125 -0.222656,0.3398437 -0.316406,0.7382812 -0.339843,1.3828125 h 0.796875 c 0.02344,-0.4335938 0.07031,-0.6914063 0.1875,-0.9023438 0.199218,-0.3867187 0.609375,-0.609375 1.089843,-0.609375 0.714844,0 1.253907,0.5039063 1.253907,1.1835938 0,0.5039062 -0.292969,0.9375 -0.855469,1.2539062 l -0.832031,0.46875 c -1.324219,0.75 -1.710938,1.359375 -1.78125,2.75390628 h 4.230468 z m 0,0"
       style="fill:#000000;fill-opacity:1;fill-rule:nonzero;stroke:none"
       aria-label="INT32"
       transform="matrix(1.3333333,0,0,1.3333333,294.94133,56.790667)" />
    <path
       id="path6"
       d="m 3.4922656,-6.6447734 c -1.875,0 -3.15234372,1.3828125 -3.15234372,3.421875 0,2.0507812 1.27734372,3.43359371 3.15234372,3.43359371 0.796875,0 1.5,-0.24609375 2.0273438,-0.69140625 0.7148437,-0.60937496 1.1367187,-1.61718746 1.1367187,-2.68359376 0,-2.109375 -1.2539062,-3.4804687 -3.1640625,-3.4804687 z m 0,0.7382812 c 1.40625,0 2.3203125,1.078125 2.3203125,2.71875 0,1.5820313 -0.9375,2.66015626 -2.3203125,2.66015626 -1.3828125,0 -2.3203125,-1.07812496 -2.3203125,-2.69531246 0,-1.6054688 0.9375,-2.6835938 2.3203125,-2.6835938 z M 11.299883,-2.421875e-4 V -4.6994609 h -0.75 v 2.6601562 c 0,0.9609375 -0.503906,1.59375001 -1.2773439,1.59375001 -0.5976563,0 -0.9726563,-0.36328125 -0.9726563,-0.92578121 v -3.328125 H 7.5616016 v 3.6210937 c 0,0.78515626 0.5742187,1.28906251 1.4882812,1.28906251 0.6914063,0 1.1367192,-0.24609375 1.5703122,-0.8671875 V -2.421875e-4 Z M 14.23543,-4.6994609 h -0.761719 v -1.2890625 h -0.75 v 1.2890625 h -0.632813 v 0.609375 h 0.632813 v 3.55078121 c 0,0.48046875 0.328125,0.75 0.902344,0.75 0.1875,0 0.363281,-0.0234375 0.609375,-0.0703125 v -0.62109375 c -0.09375,0.0234375 -0.210938,0.0351563 -0.351563,0.0351563 -0.328125,0 -0.410156,-0.09375 -0.410156,-0.421875 V -4.0900859 h 0.761719 z m 0.700195,6.65625 h 0.761719 v -2.44921879 c 0.386719,0.48046875 0.832031,0.703125 1.441406,0.703125 1.207031,0 2.003906,-0.984375 2.003906,-2.48437501 0,-1.5703125 -0.773437,-2.5546875 -2.015625,-2.5546875 -0.632812,0 -1.148437,0.28125 -1.5,0.84375 v -0.7148437 h -0.691406 z m 2.0625,-6.09375 c 0.832031,0 1.371094,0.7265625 1.371094,1.8515625 0,1.0664062 -0.550781,1.79296871 -1.371094,1.79296871 -0.785156,0 -1.300781,-0.71484371 -1.300781,-1.81640621 0,-1.1015625 0.515625,-1.828125 1.300781,-1.828125 z m 6.764648,4.1367187125 V -4.6994609 h -0.75 v 2.6601562 c 0,0.9609375 -0.503906,1.59375001 -1.277343,1.59375001 -0.597657,0 -0.972657,-0.36328125 -0.972657,-0.92578121 v -3.328125 h -0.738281 v 3.6210937 c 0,0.78515626 0.574219,1.28906251 1.488281,1.28906251 0.691407,0 1.136719,-0.24609375 1.570313,-0.8671875 V -2.421875e-4 Z M 26.69832,-4.6994609 h -0.761718 v -1.2890625 h -0.75 v 1.2890625 h -0.632813 v 0.609375 h 0.632813 v 3.55078121 c 0,0.48046875 0.328125,0.75 0.902343,0.75 0.1875,0 0.363282,-0.0234375 0.609375,-0.0703125 v -0.62109375 c -0.09375,0.0234375 -0.210937,0.0351563 -0.351562,0.0351563 -0.328125,0 -0.410156,-0.09375 -0.410156,-0.421875 V -4.0900859 h 0.761718 z m 0,0"
       style="fill:#000000;fill-opacity:1;fill-rule:nonzero;stroke:none"
       aria-label="Output"
       transform="matrix(1.3333333,0,0,1.3333333,293.27333,71.402667)" />
    <path
       id="path7"
       d="m 116.60727,-12.75604 h 57.84404 v 25.5121 h -57.84404 z"
       style="fill:#dbfda6;fill-opacity:1;fill-rule:nonzero;stroke:#008f45;stroke-width:0.74721;stroke-linecap:butt;stroke-linejoin:miter;stroke-miterlimit:10;stroke-dasharray:none;stroke-opacity:1"
       transform="matrix(1.3333333,0,0,-1.3333333,214.19867,61.096)" />
    <path
       id="path8"
       d="M 6.5749844,0.01090625 5.7312344,-0.6805 c 0.6210937,-0.6796875 0.9257812,-1.5234375 0.9257812,-2.5546875 0,-2.0273437 -1.2773437,-3.4101562 -3.1640625,-3.4101562 -1.875,0 -3.15234373,1.3828125 -3.15234373,3.421875 0,2.0507812 1.27734373,3.4335937 3.15234373,3.4335937 0.6445313,0 1.1835938,-0.15234375 1.7109375,-0.45703125 l 0.9492188,0.7734375 z M 4.3132656,-1.8406562 3.9031094,-1.33675 l 0.65625,0.55078125 c -0.3867188,0.1875 -0.6796875,0.2578125 -1.0664063,0.2578125 -1.3945312,0 -2.3203125,-1.07812495 -2.3203125,-2.69531245 0,-1.6054688 0.9375,-2.6835938 2.3203125,-2.6835938 1.3945313,0 2.3203125,1.078125 2.3203125,2.6835938 0,0.84375 -0.2226562,1.4882812 -0.703125,2.0390625 z M 11.30057,-8.125e-4 v -4.6992187 h -0.75 v 2.6601562 c 0,0.9609375 -0.503906,1.59375 -1.2773434,1.59375 -0.5976563,0 -0.9726563,-0.36328125 -0.9726563,-0.9257812 v -3.328125 H 7.5622891 v 3.6210937 c 0,0.78515625 0.5742187,1.2890625 1.4882812,1.2890625 0.6914063,0 1.1367187,-0.24609375 1.5703127,-0.8671875 v 0.65625 z m 5.452149,-0.43359375 c -0.08203,0.0117188 -0.117188,0.0117188 -0.152344,0.0117188 -0.269531,0 -0.410156,-0.12890625 -0.410156,-0.36328125 v -2.765625 c 0,-0.8320313 -0.609375,-1.2773438 -1.769532,-1.2773438 -0.679687,0 -1.242187,0.1875 -1.558593,0.5390625 -0.210938,0.2460938 -0.304688,0.515625 -0.316407,0.984375 h 0.75 c 0.05859,-0.5742187 0.398438,-0.8320312 1.101563,-0.8320312 0.667969,0 1.054687,0.2460937 1.054687,0.6914062 v 0.1992188 c 0,0.3164062 -0.1875,0.4453125 -0.785156,0.515625 -1.054687,0.140625 -1.21875,0.1757812 -1.5,0.2929687 -0.550781,0.2226563 -0.832031,0.6445313 -0.832031,1.2539063 0,0.8554687 0.597656,1.3945312 1.546875,1.3945312 0.585937,0 1.066406,-0.2109375 1.59375,-0.69140625 0.04687,0.46875 0.28125,0.69140625 0.773437,0.69140625 0.152344,0 0.269532,-0.0234375 0.503907,-0.0820313 z M 15.451937,-1.477375 c 0,0.2460938 -0.08203,0.3984375 -0.304687,0.609375 -0.304688,0.28125 -0.667969,0.421875 -1.113281,0.421875 -0.574219,0 -0.914063,-0.28125 -0.914063,-0.7617187 0,-0.4921875 0.328125,-0.7382813 1.125,-0.8554688 0.785156,-0.1054687 0.949219,-0.140625 1.207031,-0.2578125 z m 2.126954,-3.2226562 v 4.6992187 h 0.75 v -2.5898437 c 0,-0.9609375 0.503906,-1.5820313 1.265625,-1.5820313 0.597656,0 0.972656,0.3515625 0.972656,0.9140625 v 3.2578125 h 0.75 v -3.5507812 c 0,-0.7734375 -0.585938,-1.2773438 -1.488281,-1.2773438 -0.703125,0 -1.148438,0.2695313 -1.570313,0.9140625 v -0.7851562 z m 6.626953,0 h -0.761719 v -1.2890625 h -0.75 v 1.2890625 h -0.632813 v 0.609375 h 0.632813 v 3.5507812 c 0,0.48046875 0.328125,0.75 0.902344,0.75 0.1875,0 0.363281,-0.0234375 0.609375,-0.0703125 v -0.62109375 c -0.09375,0.0234375 -0.210938,0.0351563 -0.351563,0.0351563 -0.328125,0 -0.410156,-0.09375 -0.410156,-0.421875 V -4.0906561 h 0.761719 z m 1.567383,0 h -0.75 v 4.6992187 h 0.75 z m 0,-1.8398438 h -0.761719 v 0.9492188 h 0.761719 z m 4.614257,1.8398438 h -3.503906 v 0.65625 h 2.613281 l -2.800781,3.37499995 V -8.125e-4 h 3.820313 v -0.65625 h -2.917969 l 2.789062,-3.375 z m 5.302735,4.26562495 c -0.08203,0.0117188 -0.117188,0.0117188 -0.152344,0.0117188 -0.269531,0 -0.410156,-0.12890625 -0.410156,-0.36328125 v -2.765625 c 0,-0.8320313 -0.609375,-1.2773438 -1.769532,-1.2773438 -0.679687,0 -1.242187,0.1875 -1.558593,0.5390625 -0.210938,0.2460938 -0.304688,0.515625 -0.316407,0.984375 h 0.75 c 0.05859,-0.5742187 0.398438,-0.8320312 1.101563,-0.8320312 0.667969,0 1.054687,0.2460937 1.054687,0.6914062 v 0.1992188 c 0,0.3164062 -0.1875,0.4453125 -0.785156,0.515625 -1.054687,0.140625 -1.21875,0.1757812 -1.5,0.2929687 -0.550781,0.2226563 -0.832031,0.6445313 -0.832031,1.2539063 0,0.8554687 0.597656,1.3945312 1.546875,1.3945312 0.585937,0 1.066406,-0.2109375 1.59375,-0.69140625 0.04687,0.46875 0.28125,0.69140625 0.773437,0.69140625 0.152344,0 0.269532,-0.0234375 0.503907,-0.0820313 z M 34.389437,-1.477375 c 0,0.2460938 -0.08203,0.3984375 -0.304687,0.609375 -0.304688,0.28125 -0.667969,0.421875 -1.113281,0.421875 -0.574219,0 -0.914063,-0.28125 -0.914063,-0.7617187 0,-0.4921875 0.328125,-0.7382813 1.125,-0.8554688 0.785156,-0.1054687 0.949219,-0.140625 1.207031,-0.2578125 z m 3.767579,-3.2226562 h -0.761719 v -1.2890625 h -0.75 v 1.2890625 h -0.632813 v 0.609375 h 0.632813 v 3.5507812 c 0,0.48046875 0.328125,0.75 0.902344,0.75 0.1875,0 0.363281,-0.0234375 0.609375,-0.0703125 v -0.62109375 c -0.09375,0.0234375 -0.210938,0.0351563 -0.351563,0.0351563 -0.328125,0 -0.410156,-0.09375 -0.410156,-0.421875 V -4.0906561 h 0.761719 z m 1.567382,0 h -0.75 v 4.6992187 h 0.75 z m 0,-1.8398438 H 38.96268 v 0.9492188 h 0.761718 z m 3.079102,1.7109375 c -1.3125,0 -2.109375,0.9375 -2.109375,2.5195313 0,1.57031245 0.785156,2.5195312 2.121094,2.5195312 1.3125,0 2.121093,-0.94921875 2.121093,-2.484375 0,-1.6289062 -0.773437,-2.5546875 -2.132812,-2.5546875 z m 0.01172,0.6914063 c 0.84375,0 1.347656,0.6796875 1.347656,1.8515625 0,1.1015625 -0.527344,1.80468745 -1.347656,1.80468745 -0.832032,0 -1.347657,-0.69140625 -1.347657,-1.82812495 0,-1.1367188 0.515625,-1.828125 1.347657,-1.828125 z m 3.169922,-0.5625 v 4.6992187 h 0.75 v -2.5898437 c 0,-0.9609375 0.503906,-1.5820313 1.265625,-1.5820313 0.597656,0 0.972656,0.3515625 0.972656,0.9140625 v 3.2578125 h 0.75 v -3.5507812 c 0,-0.7734375 -0.585938,-1.2773438 -1.488281,-1.2773438 -0.703125,0 -1.148438,0.2695313 -1.570313,0.9140625 v -0.7851562 z m 0,0"
       style="fill:#000000;fill-opacity:1;fill-rule:nonzero;stroke:none"
       aria-label="Quantization"
       transform="matrix(1.3333333,0,0,1.3333333,374.67867,65.157333)" />
    <path
       id="path9"
       d="m 214.88388,-12.75604 h 57.84404 v 25.5121 h -57.84404 z"
       style="fill:#e9dedc;fill-opacity:1;fill-rule:nonzero;stroke:#8f7874;stroke-width:0.74721;stroke-linecap:butt;stroke-linejoin:miter;stroke-miterlimit:10;stroke-dasharray:none;stroke-opacity:1"
       transform="matrix(1.3333333,0,0,-1.3333333,214.19867,61.096)" />
    <path
       id="path10"
       d="m 4.2547656,-1.9688828 0.6679688,1.9687499875 h 0.9375 L 3.5633594,-6.5391953 H 2.4852344 L 0.15320313,-1.328125e-4 H 1.0438281 L 1.7352344,-1.9688828 Z M 4.0203906,-2.6602891 H 1.9344531 l 1.078125,-2.9765625 z m 6.1787114,-0.4570312 c -0.03516,-0.4570313 -0.128907,-0.75 -0.3046879,-1.0195313 -0.328125,-0.4335937 -0.890625,-0.6914062 -1.546875,-0.6914062 -1.265625,0 -2.0859375,0.9960937 -2.0859375,2.5546875 0,1.52343749 0.8085937,2.48437499 2.0742187,2.48437499 1.125,0 1.8281247,-0.6796875 1.9218747,-1.82812499 H 9.5076953 c -0.1289062,0.76171874 -0.515625,1.13671874 -1.1484375,1.13671874 -0.8320312,0 -1.3242187,-0.67968754 -1.3242187,-1.79296874 0,-1.171875 0.4921875,-1.8632813 1.3007812,-1.8632813 0.6328125,0 1.0195313,0.3632813 1.1132813,1.0195313 z m 2.537109,-1.5820313 h -0.761719 v -1.2890625 h -0.75 v 1.2890625 H 10.59168 v 0.609375 h 0.632812 v 3.55078129 c 0,0.48046875 0.328125,0.75 0.902344,0.75 0.1875,0 0.363281,-0.0234375 0.609375,-0.0703125 v -0.62109375 c -0.09375,0.0234375 -0.210938,0.0351563 -0.351563,0.0351563 -0.328125,0 -0.410156,-0.09375 -0.410156,-0.421875 V -4.0899766 h 0.761719 z m 1.567383,0 h -0.75 v 4.6992187875 h 0.75 z m 0,-1.8398437 h -0.761719 v 0.9492187 h 0.761719 z M 17.502813,-1.328125e-4 19.3075,-4.6993516 h -0.84375 l -1.324219,3.80859379 -1.253906,-3.80859379 h -0.84375 L 16.6825,-1.328125e-4 Z M 23.99793,-0.43372656 c -0.08203,0.0117188 -0.117188,0.0117188 -0.152344,0.0117188 -0.269531,0 -0.410156,-0.12890625 -0.410156,-0.36328125 V -3.5509141 c 0,-0.8320312 -0.609375,-1.2773437 -1.769532,-1.2773437 -0.679687,0 -1.242187,0.1875 -1.558593,0.5390625 -0.210938,0.2460937 -0.304688,0.515625 -0.316407,0.984375 h 0.75 c 0.05859,-0.5742188 0.398438,-0.8320313 1.101563,-0.8320313 0.667969,0 1.054687,0.2460938 1.054687,0.6914063 v 0.1992187 c 0,0.3164063 -0.1875,0.4453125 -0.785156,0.515625 -1.054687,0.140625 -1.21875,0.1757813 -1.5,0.2929688 -0.550781,0.2226562 -0.832031,0.6445312 -0.832031,1.2539062 0,0.85546879 0.597656,1.39453129 1.546875,1.39453129 0.585937,0 1.066406,-0.2109375025 1.59375,-0.69140625 0.04687,0.46875 0.28125,0.69140625 0.773437,0.69140625 0.152344,0 0.269532,-0.0234375 0.503907,-0.0820313 z M 22.697148,-1.4766953 c 0,0.2460937 -0.08203,0.3984375 -0.304687,0.60937499 -0.304688,0.28125 -0.667969,0.421875 -1.113281,0.421875 -0.574219,0 -0.914063,-0.28125 -0.914063,-0.76171879 0,-0.4921875 0.328125,-0.7382812 1.125,-0.8554687 0.785156,-0.1054688 0.949219,-0.140625 1.207031,-0.2578125 z m 3.767579,-3.2226563 h -0.761719 v -1.2890625 h -0.75 v 1.2890625 h -0.632813 v 0.609375 h 0.632813 v 3.55078129 c 0,0.48046875 0.328125,0.75 0.902344,0.75 0.1875,0 0.363281,-0.0234375 0.609375,-0.0703125 v -0.62109375 c -0.09375,0.0234375 -0.210938,0.0351563 -0.351563,0.0351563 -0.328125,0 -0.410156,-0.09375 -0.410156,-0.421875 V -4.0899766 h 0.761719 z m 1.567382,0 h -0.75 v 4.6992187875 h 0.75 z m 0,-1.8398437 h -0.761718 v 0.9492187 h 0.761718 z m 3.079102,1.7109375 c -1.3125,0 -2.109375,0.9375 -2.109375,2.5195312 0,1.57031254 0.785156,2.51953129 2.121094,2.51953129 1.3125,0 2.121093,-0.94921875 2.121093,-2.48437499 0,-1.6289063 -0.773437,-2.5546875 -2.132812,-2.5546875 z m 0.01172,0.6914062 c 0.84375,0 1.347656,0.6796875 1.347656,1.8515625 0,1.1015625 -0.527344,1.80468754 -1.347656,1.80468754 -0.832032,0 -1.347657,-0.69140624 -1.347657,-1.82812504 0,-1.1367187 0.515625,-1.828125 1.347657,-1.828125 z m 3.169922,-0.5625 v 4.6992187875 h 0.75 V -2.5899766 c 0,-0.9609375 0.503906,-1.5820312 1.265625,-1.5820312 0.597656,0 0.972656,0.3515625 0.972656,0.9140625 v 3.2578124875 h 0.75 V -3.5509141 c 0,-0.7734375 -0.585938,-1.2773437 -1.488281,-1.2773437 -0.703125,0 -1.148438,0.2695312 -1.570313,0.9140625 v -0.7851563 z m 0,0"
       style="fill:#000000;fill-opacity:1;fill-rule:nonzero;stroke:none"
       aria-label="Activation"
       transform="matrix(1.3333333,0,0,1.3333333,513.50667,65.285333)" />
    <path
       id="path11"
       d="m 287.64853,-12.93805 h 57.84404 v 25.8761 h -57.84404 z"
       style="fill:#fde2f0;fill-opacity:1;fill-rule:nonzero;stroke:#d9534f;stroke-width:0.74721;stroke-linecap:butt;stroke-linejoin:miter;stroke-miterlimit:10;stroke-dasharray:none;stroke-opacity:1"
       transform="matrix(1.3333333,0,0,-1.3333333,214.19867,61.096)" />
    <path
       id="path12"
       d="M 1.639625,-2.9777656 H 4.7568125 V -3.7160469 H 1.639625 V -5.8019844 H 5.1904063 V -6.5402656 H 0.80759375 v 6.53906248 H 1.639625 Z m 5.4902344,0.2109375 h 2.0507812 c 0.515625,0 0.9140624,-0.1523438 1.2656254,-0.46875 0.386718,-0.3632813 0.5625,-0.7851563 0.5625,-1.3828125 0,-1.2304688 -0.726563,-1.921875 -2.0156254,-1.921875 H 6.2978281 v 6.53906248 h 0.8320313 z m 0,-0.7382813 v -2.296875 h 1.734375 c 0.796875,0 1.2773436,0.4335938 1.2773436,1.1484375 0,0.7148438 -0.4804686,1.1484375 -1.2773436,1.1484375 z M 13.78025,-4.5246406 v 4.52343748 h 0.785156 V -6.3527656 h -0.515625 c -0.28125,0.9726562 -0.457031,1.1015625 -1.675781,1.2539062 v 0.5742188 z m 7.12793,-0.1757813 c -0.152344,-1.0429687 -0.832032,-1.6523437 -1.804688,-1.6523437 -0.691406,0 -1.324219,0.3398437 -1.699219,0.9023437 -0.398437,0.6210938 -0.574218,1.3945313 -0.574218,2.5546875 0,1.0664063 0.164062,1.7460938 0.539062,2.30859378 0.339844,0.515625 0.890625,0.796875 1.59375,0.796875 1.207031,0 2.074219,-0.90234375 2.074219,-2.14453128 0,-1.1835937 -0.796875,-2.015625 -1.945313,-2.015625 -0.621093,0 -1.113281,0.234375 -1.453125,0.703125 0.01172,-1.546875 0.503907,-2.4140625 1.417969,-2.4140625 0.550781,0 0.9375,0.3515625 1.066406,0.9609375 z m -1.910157,1.4414063 c 0.761719,0 1.242188,0.5273437 1.242188,1.3828125 0,0.796875 -0.539063,1.38281248 -1.265625,1.38281248 -0.738281,0 -1.289063,-0.60937498 -1.289063,-1.42968748 0,-0.7851563 0.527344,-1.3359375 1.3125,-1.3359375 z m 0,0"
       style="fill:#000000;fill-opacity:1;fill-rule:nonzero;stroke:none"
       aria-label="FP16"
       transform="matrix(1.3333333,0,0,1.3333333,622.00133,56.790667)" />
    <path
       id="path13"
       d="m 3.492,-6.6447734 c -1.875,0 -3.15234375,1.3828125 -3.15234375,3.421875 0,2.0507812 1.27734375,3.43359371 3.15234375,3.43359371 0.796875,0 1.5,-0.24609375 2.0273438,-0.69140625 0.7148437,-0.60937496 1.1367187,-1.61718746 1.1367187,-2.68359376 0,-2.109375 -1.2539062,-3.4804687 -3.1640625,-3.4804687 z m 0,0.7382812 c 1.40625,0 2.3203125,1.078125 2.3203125,2.71875 0,1.5820313 -0.9375,2.66015626 -2.3203125,2.66015626 -1.3828125,0 -2.3203125,-1.07812496 -2.3203125,-2.69531246 0,-1.6054688 0.9375,-2.6835938 2.3203125,-2.6835938 z m 7.807617,5.9062500125 V -4.6994609 h -0.75 v 2.6601562 c 0,0.9609375 -0.503906,1.59375001 -1.2773436,1.59375001 -0.5976562,0 -0.9726562,-0.36328125 -0.9726562,-0.92578121 v -3.328125 H 7.5613359 v 3.6210937 c 0,0.78515626 0.5742188,1.28906251 1.4882813,1.28906251 0.6914062,0 1.1367188,-0.24609375 1.5703128,-0.8671875 V -2.421875e-4 Z M 14.235164,-4.6994609 h -0.761719 v -1.2890625 h -0.75 v 1.2890625 h -0.632812 v 0.609375 h 0.632812 v 3.55078121 c 0,0.48046875 0.328125,0.75 0.902344,0.75 0.1875,0 0.363281,-0.0234375 0.609375,-0.0703125 v -0.62109375 c -0.09375,0.0234375 -0.210937,0.0351563 -0.351562,0.0351563 -0.328125,0 -0.410157,-0.09375 -0.410157,-0.421875 V -4.0900859 h 0.761719 z m 0.700195,6.65625 h 0.761719 v -2.44921879 c 0.386719,0.48046875 0.832031,0.703125 1.441406,0.703125 1.207032,0 2.003907,-0.984375 2.003907,-2.48437501 0,-1.5703125 -0.773438,-2.5546875 -2.015625,-2.5546875 -0.632813,0 -1.148438,0.28125 -1.5,0.84375 v -0.7148437 h -0.691407 z m 2.0625,-6.09375 c 0.832032,0 1.371094,0.7265625 1.371094,1.8515625 0,1.0664062 -0.550781,1.79296871 -1.371094,1.79296871 -0.785156,0 -1.300781,-0.71484371 -1.300781,-1.81640621 0,-1.1015625 0.515625,-1.828125 1.300781,-1.828125 z m 6.764649,4.1367187125 V -4.6994609 h -0.75 v 2.6601562 c 0,0.9609375 -0.503906,1.59375001 -1.277344,1.59375001 -0.597656,0 -0.972656,-0.36328125 -0.972656,-0.92578121 v -3.328125 h -0.738281 v 3.6210937 c 0,0.78515626 0.574218,1.28906251 1.488281,1.28906251 0.691406,0 1.136719,-0.24609375 1.570312,-0.8671875 V -2.421875e-4 Z M 26.698055,-4.6994609 h -0.761719 v -1.2890625 h -0.75 v 1.2890625 h -0.632813 v 0.609375 h 0.632813 v 3.55078121 c 0,0.48046875 0.328125,0.75 0.902344,0.75 0.1875,0 0.363281,-0.0234375 0.609375,-0.0703125 v -0.62109375 c -0.09375,0.0234375 -0.210938,0.0351563 -0.351563,0.0351563 -0.328125,0 -0.410156,-0.09375 -0.410156,-0.421875 V -4.0900859 h 0.761719 z m 0,0"
       style="fill:#000000;fill-opacity:1;fill-rule:nonzero;stroke:none"
       aria-label="Output"
       transform="matrix(1.3333333,0,0,1.3333333,618.344,71.402667)" />
    <path
       id="path14"
       d="m -87.51326,19.35452 h 57.84404 v 25.5121 h -57.84404 z"
       style="fill:#f3f3ff;fill-opacity:1;fill-rule:nonzero;stroke:#a988e5;stroke-width:0.74721;stroke-linecap:butt;stroke-linejoin:miter;stroke-miterlimit:10;stroke-dasharray:none;stroke-opacity:1"
       transform="matrix(1.3333333,0,0,-1.3333333,214.19867,61.096)" />
    <path
       id="path15"
       d="M 6.5728672,0.01153125 5.7291172,-0.679875 c 0.6210937,-0.6796875 0.9257812,-1.5234375 0.9257812,-2.5546875 0,-2.0273437 -1.2773437,-3.4101562 -3.1640625,-3.4101562 -1.875,0 -3.15234371,1.3828125 -3.15234371,3.421875 0,2.0507812 1.27734371,3.4335937 3.15234371,3.4335937 0.6445313,0 1.1835938,-0.15234375 1.7109375,-0.45703125 l 0.9492188,0.7734375 z M 4.3111484,-1.8400312 3.9009922,-1.336125 l 0.65625,0.55078125 c -0.3867188,0.1875 -0.6796875,0.2578125 -1.0664063,0.2578125 -1.3945312,0 -2.3203125,-1.07812495 -2.3203125,-2.69531245 0,-1.6054688 0.9375,-2.6835938 2.3203125,-2.6835938 1.3945313,0 2.3203125,1.078125 2.3203125,2.6835938 0,0.84375 -0.2226562,1.4882812 -0.703125,2.0390625 z m 6.9902346,1.8398437 v -4.6992187 h -0.75 V -2.03925 c 0,0.9609375 -0.503906,1.59375 -1.2773439,1.59375 -0.5976563,0 -0.9726563,-0.36328125 -0.9726563,-0.9257812 v -3.328125 H 7.5631016 v 3.6210937 c 0,0.78515625 0.5742187,1.2890625 1.4882812,1.2890625 0.6914063,0 1.1367192,-0.24609375 1.5703122,-0.8671875 v 0.65625 z m 5.452148,-0.43359375 c -0.08203,0.0117188 -0.117187,0.0117188 -0.152343,0.0117188 -0.269532,0 -0.410157,-0.12890625 -0.410157,-0.36328125 v -2.765625 c 0,-0.8320313 -0.609375,-1.2773438 -1.769531,-1.2773438 -0.679687,0 -1.242187,0.1875 -1.558594,0.5390625 -0.210937,0.2460938 -0.304687,0.515625 -0.316406,0.984375 h 0.75 c 0.05859,-0.5742187 0.398438,-0.8320312 1.101563,-0.8320312 0.667968,0 1.054687,0.2460937 1.054687,0.6914062 v 0.1992188 c 0,0.3164062 -0.1875,0.4453125 -0.785156,0.515625 -1.054688,0.140625 -1.21875,0.1757812 -1.5,0.2929687 -0.550781,0.2226563 -0.832031,0.6445313 -0.832031,1.2539063 0,0.8554687 0.597656,1.3945312 1.546875,1.3945312 0.585937,0 1.066406,-0.2109375 1.59375,-0.69140625 0.04687,0.46875 0.28125,0.69140625 0.773437,0.69140625 0.152344,0 0.269531,-0.0234375 0.503906,-0.0820313 z M 15.45275,-1.47675 c 0,0.2460938 -0.08203,0.3984375 -0.304687,0.609375 -0.304688,0.28125 -0.667969,0.421875 -1.113282,0.421875 -0.574218,0 -0.914062,-0.28125 -0.914062,-0.7617187 0,-0.4921875 0.328125,-0.7382813 1.125,-0.8554688 0.785156,-0.1054687 0.949219,-0.140625 1.207031,-0.2578125 z m 2.126953,-3.2226562 v 4.6992187 h 0.75 v -2.5898437 c 0,-0.9609375 0.503906,-1.5820313 1.265625,-1.5820313 0.597656,0 0.972656,0.3515625 0.972656,0.9140625 v 3.2578125 h 0.75 v -3.5507812 c 0,-0.7734375 -0.585937,-1.2773438 -1.488281,-1.2773438 -0.703125,0 -1.148437,0.2695313 -1.570312,0.9140625 v -0.7851562 z m 6.626953,0 h -0.761718 v -1.2890625 h -0.75 v 1.2890625 h -0.632813 v 0.609375 h 0.632813 V -0.53925 c 0,0.48046875 0.328125,0.75 0.902343,0.75 0.1875,0 0.363282,-0.0234375 0.609375,-0.0703125 v -0.62109375 c -0.09375,0.0234375 -0.210937,0.0351563 -0.351562,0.0351563 -0.328125,0 -0.410156,-0.09375 -0.410156,-0.421875 V -4.0900311 h 0.761718 z m 1.564453,0 h -0.75 v 4.6992187 h 0.75 z m 0,-1.8398438 h -0.761718 v 0.9492188 h 0.761718 z m 4.617188,1.8398438 h -3.503906 v 0.65625 h 2.613281 l -2.800781,3.37499995 V -1.875e-4 h 3.820312 v -0.65625 h -2.917969 l 2.789063,-3.375 z m 5.302734,4.26562495 c -0.08203,0.0117188 -0.117187,0.0117188 -0.152343,0.0117188 -0.269532,0 -0.410157,-0.12890625 -0.410157,-0.36328125 v -2.765625 c 0,-0.8320313 -0.609375,-1.2773438 -1.769531,-1.2773438 -0.679687,0 -1.242187,0.1875 -1.558594,0.5390625 -0.210937,0.2460938 -0.304687,0.515625 -0.316406,0.984375 h 0.75 c 0.05859,-0.5742187 0.398438,-0.8320312 1.101563,-0.8320312 0.667968,0 1.054687,0.2460937 1.054687,0.6914062 v 0.1992188 c 0,0.3164062 -0.1875,0.4453125 -0.785156,0.515625 -1.054688,0.140625 -1.21875,0.1757812 -1.5,0.2929687 -0.550781,0.2226563 -0.832031,0.6445313 -0.832031,1.2539063 0,0.8554687 0.597656,1.3945312 1.546875,1.3945312 0.585937,0 1.066406,-0.2109375 1.59375,-0.69140625 0.04687,0.46875 0.28125,0.69140625 0.773437,0.69140625 0.152344,0 0.269531,-0.0234375 0.503906,-0.0820313 z M 34.39025,-1.47675 c 0,0.2460938 -0.08203,0.3984375 -0.304687,0.609375 -0.304688,0.28125 -0.667969,0.421875 -1.113282,0.421875 -0.574218,0 -0.914062,-0.28125 -0.914062,-0.7617187 0,-0.4921875 0.328125,-0.7382813 1.125,-0.8554688 0.785156,-0.1054687 0.949219,-0.140625 1.207031,-0.2578125 z m 3.767578,-3.2226562 h -0.761719 v -1.2890625 h -0.75 v 1.2890625 h -0.632812 v 0.609375 h 0.632812 V -0.53925 c 0,0.48046875 0.328125,0.75 0.902344,0.75 0.1875,0 0.363281,-0.0234375 0.609375,-0.0703125 v -0.62109375 c -0.09375,0.0234375 -0.210937,0.0351563 -0.351562,0.0351563 -0.328125,0 -0.410157,-0.09375 -0.410157,-0.421875 V -4.0900311 h 0.761719 z m 1.567383,0 h -0.75 v 4.6992187 h 0.75 z m 0,-1.8398438 h -0.761719 v 0.9492188 h 0.761719 z m 3.079102,1.7109375 c -1.3125,0 -2.109375,0.9375 -2.109375,2.5195313 0,1.57031245 0.785156,2.5195312 2.121093,2.5195312 1.3125,0 2.121094,-0.94921875 2.121094,-2.484375 0,-1.6289062 -0.773437,-2.5546875 -2.132812,-2.5546875 z m 0.01172,0.6914063 c 0.84375,0 1.347657,0.6796875 1.347657,1.8515625 0,1.1015625 -0.527344,1.80468745 -1.347657,1.80468745 -0.832031,0 -1.347656,-0.69140625 -1.347656,-1.82812495 0,-1.1367188 0.515625,-1.828125 1.347656,-1.828125 z m 3.169922,-0.5625 v 4.6992187 h 0.75 v -2.5898437 c 0,-0.9609375 0.503906,-1.5820313 1.265625,-1.5820313 0.597656,0 0.972656,0.3515625 0.972656,0.9140625 v 3.2578125 h 0.75 v -3.5507812 c 0,-0.7734375 -0.585937,-1.2773438 -1.488281,-1.2773438 -0.703125,0 -1.148437,0.2695313 -1.570312,0.9140625 v -0.7851562 z m 0,0"
       style="fill:#000000;fill-opacity:1;fill-rule:nonzero;stroke:none"
       aria-label="Quantization"
       transform="matrix(1.3333333,0,0,1.3333333,102.52133,22.344)" />
    <path
       id="path16"
       d="m -160.27792,19.35452 h 57.84404 v 25.5121 h -57.84404 z"
       style="fill:#f3f3ff;fill-opacity:1;fill-rule:nonzero;stroke:#a988e5;stroke-width:0.74721;stroke-linecap:butt;stroke-linejoin:miter;stroke-miterlimit:10;stroke-dasharray:none;stroke-opacity:1"
       transform="matrix(1.3333333,0,0,-1.3333333,214.19867,61.096)" />
    <path
       id="path17"
       d="M 1.6408828,-2.977625 H 4.7580703 V -3.7159062 H 1.6408828 V -5.8018437 H 5.1916641 V -6.540125 H 0.80885156 v 6.5390625 H 1.6408828 Z m 5.1972656,-3.5625 h -0.75 v 6.5390625 h 0.75 z m 3.0673829,1.7109375 c -1.3125,0 -2.109375,0.9375 -2.109375,2.5195313 0,1.57031245 0.7851562,2.5195312 2.1210937,2.5195312 1.3125,0 2.121094,-0.94921875 2.121094,-2.484375 0,-1.6289062 -0.773438,-2.5546875 -2.1328127,-2.5546875 z m 0.011719,0.6914063 c 0.8437497,0 1.3476557,0.6796875 1.3476557,1.8515625 0,1.1015625 -0.527343,1.80468745 -1.3476557,1.80468745 -0.8320312,0 -1.3476562,-0.69140625 -1.3476562,-1.82812495 0,-1.1367188 0.515625,-1.828125 1.3476562,-1.828125 z m 7.3300777,3.70312495 c -0.08203,0.0117188 -0.117187,0.0117188 -0.152344,0.0117188 -0.269531,0 -0.410156,-0.12890625 -0.410156,-0.36328125 v -2.765625 c 0,-0.8320313 -0.609375,-1.2773438 -1.769531,-1.2773438 -0.679688,0 -1.242188,0.1875 -1.558594,0.5390625 -0.210937,0.2460938 -0.304687,0.515625 -0.316406,0.984375 h 0.75 c 0.05859,-0.5742187 0.398437,-0.8320312 1.101562,-0.8320312 0.667969,0 1.054688,0.2460937 1.054688,0.6914062 v 0.1992188 c 0,0.3164062 -0.1875,0.4453125 -0.785156,0.515625 -1.054688,0.140625 -1.21875,0.1757812 -1.5,0.2929687 -0.550782,0.2226563 -0.832032,0.6445313 -0.832032,1.2539063 0,0.8554687 0.597657,1.3945312 1.546875,1.3945312 0.585938,0 1.066407,-0.2109375 1.59375,-0.69140625 0.04687,0.46875 0.28125,0.69140625 0.773438,0.69140625 0.152344,0 0.269531,-0.0234375 0.503906,-0.0820313 z M 15.946547,-1.477625 c 0,0.2460938 -0.08203,0.3984375 -0.304688,0.609375 -0.304687,0.28125 -0.667968,0.421875 -1.113281,0.421875 -0.574219,0 -0.914062,-0.28125 -0.914062,-0.7617187 0,-0.4921875 0.328125,-0.7382813 1.125,-0.8554688 0.785156,-0.1054687 0.949218,-0.140625 1.207031,-0.2578125 z m 3.767578,-3.2226562 h -0.761719 v -1.2890625 h -0.75 v 1.2890625 h -0.632812 v 0.609375 h 0.632812 v 3.5507812 c 0,0.48046875 0.328125,0.75 0.902344,0.75 0.1875,0 0.363281,-0.0234375 0.609375,-0.0703125 v -0.62109375 c -0.09375,0.0234375 -0.210937,0.0351563 -0.351562,0.0351563 -0.328125,0 -0.410157,-0.09375 -0.410157,-0.421875 V -4.0909062 h 0.761719 z m 4.048828,0 h -0.75 v 4.6992187 h 0.75 z m 0,-1.8398438 h -0.761719 v 0.9492188 h 0.761719 z m 1.277344,1.8398438 v 4.6992187 h 0.75 v -2.5898437 c 0,-0.9609375 0.503906,-1.5820313 1.265625,-1.5820313 0.597656,0 0.972656,0.3515625 0.972656,0.9140625 v 3.2578125 h 0.75 v -3.5507812 c 0,-0.7734375 -0.585937,-1.2773438 -1.488281,-1.2773438 -0.703125,0 -1.148438,0.2695313 -1.570313,0.9140625 v -0.7851562 z m 4.831055,6.65625 H 30.63307 V -0.49325 c 0.386719,0.48046875 0.832032,0.703125 1.441407,0.703125 1.207031,0 2.003906,-0.984375 2.003906,-2.484375 0,-1.5703125 -0.773438,-2.5546875 -2.015625,-2.5546875 -0.632813,0 -1.148438,0.28125 -1.5,0.84375 v -0.7148437 h -0.691406 z m 2.0625,-6.09375 c 0.832031,0 1.371093,0.7265625 1.371093,1.8515625 0,1.0664062 -0.550781,1.7929687 -1.371093,1.7929687 -0.785157,0 -1.300782,-0.7148437 -1.300782,-1.8164062 0,-1.1015625 0.515625,-1.828125 1.300782,-1.828125 z m 6.767578,4.1367187 v -4.6992187 h -0.75 v 2.6601562 c 0,0.9609375 -0.503907,1.59375 -1.277344,1.59375 -0.597656,0 -0.972656,-0.36328125 -0.972656,-0.9257812 v -3.328125 h -0.738282 v 3.6210937 c 0,0.78515625 0.574219,1.2890625 1.488282,1.2890625 0.691406,0 1.136718,-0.24609375 1.570312,-0.8671875 v 0.65625 z m 2.935547,-4.6992187 h -0.761719 v -1.2890625 h -0.75 v 1.2890625 h -0.632813 v 0.609375 h 0.632813 v 3.5507812 c 0,0.48046875 0.328125,0.75 0.902344,0.75 0.1875,0 0.363281,-0.0234375 0.609375,-0.0703125 v -0.62109375 c -0.09375,0.0234375 -0.210938,0.0351563 -0.351563,0.0351563 -0.328125,0 -0.410156,-0.09375 -0.410156,-0.421875 V -4.0909062 h 0.761719 z m 0,0"
       style="fill:#000000;fill-opacity:1;fill-rule:nonzero;stroke:none"
       aria-label="Floatinput"
       transform="matrix(1.3333333,0,0,1.3333333,11.152,21.282667)" />
    <path
       id="path18"
       d="m -87.51326,-44.86664 h 57.84404 v 25.5121 h -57.84404 z"
       style="fill:#f3f3ff;fill-opacity:1;fill-rule:nonzero;stroke:#a988e5;stroke-width:0.74721;stroke-linecap:butt;stroke-linejoin:miter;stroke-miterlimit:10;stroke-dasharray:none;stroke-opacity:1"
       transform="matrix(1.3333333,0,0,-1.3333333,214.19867,61.096)" />
    <path
       id="path19"
       d="M 6.5728672,0.01028125 5.7291172,-0.681125 c 0.6210937,-0.6796875 0.9257812,-1.5234375 0.9257812,-2.5546875 0,-2.0273437 -1.2773437,-3.4101562 -3.1640625,-3.4101562 -1.875,0 -3.15234371,1.3828125 -3.15234371,3.421875 0,2.0507812 1.27734371,3.4335937 3.15234371,3.4335937 0.6445313,0 1.1835938,-0.15234375 1.7109375,-0.45703125 l 0.9492188,0.7734375 z M 4.3111484,-1.8412812 3.9009922,-1.337375 l 0.65625,0.55078125 c -0.3867188,0.1875 -0.6796875,0.2578125 -1.0664063,0.2578125 -1.3945312,0 -2.3203125,-1.07812495 -2.3203125,-2.69531245 0,-1.6054688 0.9375,-2.6835938 2.3203125,-2.6835938 1.3945313,0 2.3203125,1.078125 2.3203125,2.6835938 0,0.84375 -0.2226562,1.4882812 -0.703125,2.0390625 z m 6.9902346,1.8398437 v -4.6992187 h -0.75 V -2.0405 c 0,0.9609375 -0.503906,1.59375 -1.2773439,1.59375 -0.5976563,0 -0.9726563,-0.36328125 -0.9726563,-0.9257812 v -3.328125 H 7.5631016 v 3.6210937 c 0,0.78515625 0.5742187,1.2890625 1.4882812,1.2890625 0.6914063,0 1.1367192,-0.24609375 1.5703122,-0.8671875 v 0.65625 z m 5.452148,-0.43359375 c -0.08203,0.0117188 -0.117187,0.0117188 -0.152343,0.0117188 -0.269532,0 -0.410157,-0.12890625 -0.410157,-0.36328125 v -2.765625 c 0,-0.8320313 -0.609375,-1.2773438 -1.769531,-1.2773438 -0.679687,0 -1.242187,0.1875 -1.558594,0.5390625 -0.210937,0.2460938 -0.304687,0.515625 -0.316406,0.984375 h 0.75 c 0.05859,-0.5742187 0.398438,-0.8320312 1.101563,-0.8320312 0.667968,0 1.054687,0.2460937 1.054687,0.6914062 v 0.1992188 c 0,0.3164062 -0.1875,0.4453125 -0.785156,0.515625 -1.054688,0.140625 -1.21875,0.1757812 -1.5,0.2929687 -0.550781,0.2226563 -0.832031,0.6445313 -0.832031,1.2539063 0,0.8554687 0.597656,1.3945312 1.546875,1.3945312 0.585937,0 1.066406,-0.2109375 1.59375,-0.69140625 0.04687,0.46875 0.28125,0.69140625 0.773437,0.69140625 0.152344,0 0.269531,-0.0234375 0.503906,-0.0820313 z M 15.45275,-1.478 c 0,0.2460938 -0.08203,0.3984375 -0.304687,0.609375 -0.304688,0.28125 -0.667969,0.421875 -1.113282,0.421875 -0.574218,0 -0.914062,-0.28125 -0.914062,-0.7617187 0,-0.4921875 0.328125,-0.7382813 1.125,-0.8554688 0.785156,-0.1054687 0.949219,-0.140625 1.207031,-0.2578125 z m 2.126953,-3.2226562 v 4.6992187 h 0.75 v -2.5898437 c 0,-0.9609375 0.503906,-1.5820313 1.265625,-1.5820313 0.597656,0 0.972656,0.3515625 0.972656,0.9140625 v 3.2578125 h 0.75 v -3.5507812 c 0,-0.7734375 -0.585937,-1.2773438 -1.488281,-1.2773438 -0.703125,0 -1.148437,0.2695313 -1.570312,0.9140625 v -0.7851562 z m 6.626953,0 h -0.761718 v -1.2890625 h -0.75 v 1.2890625 h -0.632813 v 0.609375 h 0.632813 V -0.5405 c 0,0.48046875 0.328125,0.75 0.902343,0.75 0.1875,0 0.363282,-0.0234375 0.609375,-0.0703125 v -0.62109375 c -0.09375,0.0234375 -0.210937,0.0351563 -0.351562,0.0351563 -0.328125,0 -0.410156,-0.09375 -0.410156,-0.421875 V -4.0912811 h 0.761718 z m 1.564453,0 h -0.75 v 4.6992187 h 0.75 z m 0,-1.8398438 h -0.761718 v 0.9492188 h 0.761718 z m 4.617188,1.8398438 h -3.503906 v 0.65625 h 2.613281 l -2.800781,3.37499995 v 0.66796875 h 3.820312 v -0.65625 h -2.917969 l 2.789063,-3.375 z m 5.302734,4.26562495 c -0.08203,0.0117188 -0.117187,0.0117188 -0.152343,0.0117188 -0.269532,0 -0.410157,-0.12890625 -0.410157,-0.36328125 v -2.765625 c 0,-0.8320313 -0.609375,-1.2773438 -1.769531,-1.2773438 -0.679687,0 -1.242187,0.1875 -1.558594,0.5390625 -0.210937,0.2460938 -0.304687,0.515625 -0.316406,0.984375 h 0.75 c 0.05859,-0.5742187 0.398438,-0.8320312 1.101563,-0.8320312 0.667968,0 1.054687,0.2460937 1.054687,0.6914062 v 0.1992188 c 0,0.3164062 -0.1875,0.4453125 -0.785156,0.515625 -1.054688,0.140625 -1.21875,0.1757812 -1.5,0.2929687 -0.550781,0.2226563 -0.832031,0.6445313 -0.832031,1.2539063 0,0.8554687 0.597656,1.3945312 1.546875,1.3945312 0.585937,0 1.066406,-0.2109375 1.59375,-0.69140625 0.04687,0.46875 0.28125,0.69140625 0.773437,0.69140625 0.152344,0 0.269531,-0.0234375 0.503906,-0.0820313 z M 34.39025,-1.478 c 0,0.2460938 -0.08203,0.3984375 -0.304687,0.609375 -0.304688,0.28125 -0.667969,0.421875 -1.113282,0.421875 -0.574218,0 -0.914062,-0.28125 -0.914062,-0.7617187 0,-0.4921875 0.328125,-0.7382813 1.125,-0.8554688 0.785156,-0.1054687 0.949219,-0.140625 1.207031,-0.2578125 z m 3.767578,-3.2226562 h -0.761719 v -1.2890625 h -0.75 v 1.2890625 h -0.632812 v 0.609375 h 0.632812 V -0.5405 c 0,0.48046875 0.328125,0.75 0.902344,0.75 0.1875,0 0.363281,-0.0234375 0.609375,-0.0703125 v -0.62109375 c -0.09375,0.0234375 -0.210937,0.0351563 -0.351562,0.0351563 -0.328125,0 -0.410157,-0.09375 -0.410157,-0.421875 V -4.0912811 h 0.761719 z m 1.567383,0 h -0.75 v 4.6992187 h 0.75 z m 0,-1.8398438 h -0.761719 v 0.9492188 h 0.761719 z m 3.079102,1.7109375 c -1.3125,0 -2.109375,0.9375 -2.109375,2.5195313 0,1.57031245 0.785156,2.5195312 2.121093,2.5195312 1.3125,0 2.121094,-0.94921875 2.121094,-2.484375 0,-1.6289062 -0.773437,-2.5546875 -2.132812,-2.5546875 z m 0.01172,0.6914063 c 0.84375,0 1.347657,0.6796875 1.347657,1.8515625 0,1.1015625 -0.527344,1.80468745 -1.347657,1.80468745 -0.832031,0 -1.347656,-0.69140625 -1.347656,-1.82812495 0,-1.1367188 0.515625,-1.828125 1.347656,-1.828125 z m 3.169922,-0.5625 v 4.6992187 h 0.75 v -2.5898437 c 0,-0.9609375 0.503906,-1.5820313 1.265625,-1.5820313 0.597656,0 0.972656,0.3515625 0.972656,0.9140625 v 3.2578125 h 0.75 v -3.5507812 c 0,-0.7734375 -0.585937,-1.2773438 -1.488281,-1.2773438 -0.703125,0 -1.148437,0.2695313 -1.570312,0.9140625 v -0.7851562 z m 0,0"
       style="fill:#000000;fill-opacity:1;fill-rule:nonzero;stroke:none"
       aria-label="Quantization"
       transform="matrix(1.3333333,0,0,1.3333333,102.52133,107.97067)" />
    <path
       id="path20"
       d="m -160.27792,-44.86664 h 57.84404 v 25.5121 h -57.84404 z"
       style="fill:#f3f3ff;fill-opacity:1;fill-rule:nonzero;stroke:#a988e5;stroke-width:0.74721;stroke-linecap:butt;stroke-linejoin:miter;stroke-miterlimit:10;stroke-dasharray:none;stroke-opacity:1"
       transform="matrix(1.3333333,0,0,-1.3333333,214.19867,61.096)" />
    <path
       id="path21"
       d="M 1.6408828,-2.9759453 H 4.7580703 V -3.7142266 H 1.6408828 V -5.8001641 H 5.1916641 V -6.5384453 H 0.80885156 V 6.171875e-4 H 1.6408828 Z m 5.1972656,-3.5625 h -0.75 V 6.171875e-4 h 0.75 z m 3.0673829,1.7109375 c -1.3125,0 -2.109375,0.9375 -2.109375,2.5195312 0,1.57031254 0.7851562,2.51953129 2.1210937,2.51953129 1.3125,0 2.121094,-0.94921875 2.121094,-2.48437499 0,-1.6289063 -0.773438,-2.5546875 -2.1328127,-2.5546875 z m 0.011719,0.6914062 c 0.8437497,0 1.3476557,0.6796875 1.3476557,1.8515625 0,1.1015625 -0.527343,1.80468754 -1.3476557,1.80468754 -0.8320312,0 -1.3476562,-0.69140624 -1.3476562,-1.82812504 0,-1.1367187 0.515625,-1.828125 1.3476562,-1.828125 z m 7.3300777,3.70312504 c -0.08203,0.0117188 -0.117187,0.0117188 -0.152344,0.0117188 -0.269531,0 -0.410156,-0.12890625 -0.410156,-0.36328125 V -3.5501641 c 0,-0.8320312 -0.609375,-1.2773437 -1.769531,-1.2773437 -0.679688,0 -1.242188,0.1875 -1.558594,0.5390625 -0.210937,0.2460937 -0.304687,0.515625 -0.316406,0.984375 h 0.75 c 0.05859,-0.5742188 0.398437,-0.8320313 1.101562,-0.8320313 0.667969,0 1.054688,0.2460938 1.054688,0.6914063 v 0.1992187 c 0,0.3164063 -0.1875,0.4453125 -0.785156,0.515625 -1.054688,0.140625 -1.21875,0.1757813 -1.5,0.2929688 -0.550782,0.2226562 -0.832032,0.6445312 -0.832032,1.2539062 0,0.85546879 0.597657,1.39453129 1.546875,1.39453129 0.585938,0 1.066407,-0.2109375025 1.59375,-0.69140625 0.04687,0.46875 0.28125,0.69140625 0.773438,0.69140625 0.152344,0 0.269531,-0.0234375 0.503906,-0.0820313 z M 15.946547,-1.4759453 c 0,0.2460937 -0.08203,0.3984375 -0.304688,0.60937499 -0.304687,0.28125 -0.667968,0.421875 -1.113281,0.421875 -0.574219,0 -0.914062,-0.28125 -0.914062,-0.76171879 0,-0.4921875 0.328125,-0.7382812 1.125,-0.8554687 0.785156,-0.1054688 0.949218,-0.140625 1.207031,-0.2578125 z m 3.767578,-3.2226563 h -0.761719 v -1.2890625 h -0.75 v 1.2890625 h -0.632812 v 0.609375 h 0.632812 v 3.55078129 c 0,0.48046875 0.328125,0.75 0.902344,0.75 0.1875,0 0.363281,-0.0234375 0.609375,-0.0703125 v -0.62109375 c -0.09375,0.0234375 -0.210937,0.0351563 -0.351562,0.0351563 -0.328125,0 -0.410157,-0.09375 -0.410157,-0.421875 V -4.0892266 h 0.761719 z m 4.048828,0 h -0.75 V 6.171875e-4 h 0.75 z m 0,-1.8398437 h -0.761719 v 0.9492187 h 0.761719 z m 1.277344,1.8398437 V 6.171875e-4 h 0.75 V -2.5892266 c 0,-0.9609375 0.503906,-1.5820312 1.265625,-1.5820312 0.597656,0 0.972656,0.3515625 0.972656,0.9140625 V 6.171875e-4 h 0.75 V -3.5501641 c 0,-0.7734375 -0.585937,-1.2773437 -1.488281,-1.2773437 -0.703125,0 -1.148438,0.2695312 -1.570313,0.9140625 v -0.7851563 z m 4.831055,6.65625 h 0.761718 v -2.44921871 c 0.386719,0.48046875 0.832032,0.703125 1.441407,0.703125 1.207031,0 2.003906,-0.984375 2.003906,-2.48437499 0,-1.5703125 -0.773438,-2.5546875 -2.015625,-2.5546875 -0.632813,0 -1.148438,0.28125 -1.5,0.84375 v -0.7148438 h -0.691406 z m 2.0625,-6.09375 c 0.832031,0 1.371093,0.7265625 1.371093,1.8515625 0,1.0664063 -0.550781,1.79296879 -1.371093,1.79296879 -0.785157,0 -1.300782,-0.71484379 -1.300782,-1.81640629 0,-1.1015625 0.515625,-1.828125 1.300782,-1.828125 z M 38.70143,6.171875e-4 V -4.6986016 h -0.75 v 2.6601563 c 0,0.9609375 -0.503907,1.59374999 -1.277344,1.59374999 -0.597656,0 -0.972656,-0.36328125 -0.972656,-0.92578129 v -3.328125 h -0.738282 v 3.6210938 c 0,0.78515624 0.574219,1.28906249 1.488282,1.28906249 0.691406,0 1.136718,-0.24609375 1.570312,-0.8671875 V 6.171875e-4 Z M 41.636977,-4.6986016 h -0.761719 v -1.2890625 h -0.75 v 1.2890625 h -0.632813 v 0.609375 h 0.632813 v 3.55078129 c 0,0.48046875 0.328125,0.75 0.902344,0.75 0.1875,0 0.363281,-0.0234375 0.609375,-0.0703125 v -0.62109375 c -0.09375,0.0234375 -0.210938,0.0351563 -0.351563,0.0351563 -0.328125,0 -0.410156,-0.09375 -0.410156,-0.421875 V -4.0892266 h 0.761719 z m 0,0"
       style="fill:#000000;fill-opacity:1;fill-rule:nonzero;stroke:none"
       aria-label="Floatinput"
       transform="matrix(1.3333333,0,0,1.3333333,11.152,106.90933)" />
    <path
       id="path22"
       d="M 180.03302,-69.09532 H 301.86505"
       style="fill:none;stroke:#000000;stroke-width:0.49814;stroke-linecap:butt;stroke-linejoin:miter;stroke-miterlimit:10;stroke-dasharray:none;stroke-opacity:1"
       transform="matrix(1.3333333,0,0,-1.3333333,214.19867,61.096)" />
    <path
       id="path23"
       d="M 4.58044,0 C 4.01793,0.12334 1.54536,0.82227 0,1.58289 V -1.58289 C 1.54536,-0.82227 4.01793,-0.12334 4.58044,0 Z"
       style="fill:#000000;fill-opacity:1;fill-rule:nonzero;stroke:#000000;stroke-width:0.49814;stroke-linecap:butt;stroke-linejoin:miter;stroke-miterlimit:10;stroke-dasharray:none;stroke-opacity:1"
       transform="matrix(1.3333333,0,0,-1.3333333,616.6854,153.22309)" />
    <path
       id="path24"
       d="m 1.7354531,-0.738 c -0.070312,0.234375 -0.2929687,0.609375 -0.65625,0.609375 -0.023437,0 -0.22265622,0 -0.37499997,-0.09375 0.28125,-0.09375 0.30468747,-0.33984375 0.30468747,-0.38671875 0,-0.15234375 -0.11718747,-0.2578125 -0.28124997,-0.2578125 -0.1875,0 -0.38671875,0.1640625 -0.38671875,0.43359375 0,0.33984375 0.38671875,0.50390625 0.72656252,0.50390625 0.3164062,0 0.609375,-0.19921875 0.7851562,-0.4921875 0.1640625,0.36328125 0.5507813,0.4921875 0.8203125,0.4921875 0.8085938,0 1.2304688,-0.8671875 1.2304688,-1.06640625 0,-0.09375 -0.09375,-0.09375 -0.1054688,-0.09375 -0.1054687,0 -0.1054687,0.035156 -0.140625,0.1171875 -0.140625,0.48046875 -0.5625,0.84375 -0.9492187,0.84375 -0.28125,0 -0.421875,-0.1875 -0.421875,-0.4453125 0,-0.1875 0.1640625,-0.8203125 0.3632812,-1.59375 0.1289063,-0.5390625 0.4453125,-0.7148437 0.6796875,-0.7148437 0.011719,0 0.2226563,0 0.375,0.1054687 -0.2226562,0.058594 -0.3046875,0.2578125 -0.3046875,0.375 0,0.1523438 0.1171875,0.2578125 0.28125,0.2578125 0.1523438,0 0.3867188,-0.1289062 0.3867188,-0.421875 0,-0.3867187 -0.4453125,-0.5039062 -0.7265625,-0.5039062 -0.3515625,0 -0.6328125,0.2226562 -0.7851563,0.4921875 -0.1171875,-0.2929688 -0.4453125,-0.4921875 -0.8320312,-0.4921875 -0.78515627,0 -1.23046877,0.8554687 -1.23046877,1.0664062 0,0.082031 0.10546875,0.082031 0.1171875,0.082031 0.09375,0 0.10546875,-0.023437 0.140625,-0.1171875 0.17578125,-0.5390625 0.60937497,-0.84375 0.94921877,-0.84375 0.234375,0 0.421875,0.1289062 0.421875,0.46875 0,0.1289062 -0.082031,0.4804687 -0.1523438,0.7148437 z m 0,0"
       style="fill:#000000;fill-opacity:1;fill-rule:nonzero;stroke:none"
       aria-label="x"
       transform="matrix(1.3333333,0,0,1.3333333,616.772,161.984)" />
    <path
       id="path25"
       d="m 243.81334,-107.36357 v 79.31183"
       style="fill:none;stroke:#000000;stroke-width:0.49814;stroke-linecap:butt;stroke-linejoin:miter;stroke-miterlimit:10;stroke-dasharray:none;stroke-opacity:1"
       transform="matrix(1.3333333,0,0,-1.3333333,214.19867,61.096)" />
    <path
       id="path26"
       d="M 4.58044,0 C 4.01793,0.12334 1.54536,0.82227 0,1.58289 V -1.58289 C 1.54536,-0.82227 4.01793,-0.12334 4.58044,0 Z"
       style="fill:#000000;fill-opacity:1;fill-rule:nonzero;stroke:#000000;stroke-width:0.49814;stroke-linecap:butt;stroke-linejoin:miter;stroke-miterlimit:10;stroke-dasharray:none;stroke-opacity:1"
       transform="matrix(0,-1.3333333,-1.3333333,0,539.28312,98.49832)" />
    <path
       id="path27"
       d="M 3.8775625,-2.62625 C 3.901,-2.7317187 3.901,-2.7434375 3.901,-2.7785937 3.901,-2.9192187 3.7955313,-3.00125 3.6783438,-3.00125 c -0.082031,0 -0.2109375,0.035156 -0.2929688,0.1640625 -0.023437,0.035156 -0.070312,0.2578125 -0.1054687,0.3984375 l -0.1523438,0.5859375 c -0.035156,0.1640625 -0.2578125,1.04296875 -0.28125,1.125 0,0 -0.3046875,0.59765625 -0.8554687,0.59765625 -0.46875,0 -0.46875,-0.4453125 -0.46875,-0.57421875 0,-0.375 0.1523437,-0.8203125 0.3632812,-1.359375 0.082031,-0.2226562 0.1171875,-0.3046875 0.1171875,-0.421875 0,-0.328125 -0.28125,-0.5859375 -0.65625,-0.5859375 -0.703125,0 -1.01953125,0.9492188 -1.01953125,1.0664063 0,0.082031 0.09375,0.082031 0.1171875,0.082031 0.09375,0 0.10546875,-0.035156 0.12890625,-0.1054687 0.17578125,-0.5859375 0.46875,-0.8554688 0.75,-0.8554688 0.1171875,0 0.1757813,0.082031 0.1757813,0.2460938 0,0.1640625 -0.058594,0.3164062 -0.09375,0.4101562 -0.3398438,0.84375 -0.4101563,1.1015625 -0.4101563,1.40625 0,0.1171875 0,0.4453125 0.2695313,0.6796875 0.2226562,0.17578125 0.515625,0.2109375 0.703125,0.2109375 0.28125,0 0.5273437,-0.10546875 0.7617187,-0.31640625 -0.09375,0.38671875 -0.1757812,0.6796875 -0.46875,1.03125 -0.1875,0.2109375 -0.4570312,0.44531255 -0.8320312,0.44531255 -0.046875,0 -0.375,0 -0.5273438,-0.23437505 0.375,-0.0351563 0.375,-0.375 0.375,-0.38671875 0,-0.22265625 -0.1992187,-0.2578125 -0.2695312,-0.2578125 -0.1757813,0 -0.39843755,0.140625 -0.39843755,0.45703125 0,0.35156255 0.328125,0.60937505 0.83203125,0.60937505 0.703125,0 1.5585938,-0.53906255 1.7695313,-1.40625005 z m 0,0"
       style="fill:#000000;fill-opacity:1;fill-rule:nonzero;stroke:none"
       aria-label="y"
       transform="matrix(1.3333333,0,0,1.3333333,528.79867,97.626667)" />
    <path
       id="path28"
       d="m 182.15918,-95.42975 c 0,0 3.7119,0.41149 5.13756,0.58913 1.42566,0.17766 3.71193,0.48138 5.13759,0.69132 1.42564,0.20991 3.71191,0.57076 5.13757,0.8217 1.42566,0.25091 3.71193,0.6831 5.13759,0.98684 1.42563,0.30371 3.7119,0.82933 5.13756,1.20223 1.42565,0.3729 3.71193,1.02099 5.13758,1.48545 1.42565,0.46445 3.71192,1.27662 5.13758,1.86206 1.42566,0.58544 3.71194,1.61406 5.13759,2.35746 1.42564,0.74337 3.71191,2.06184 5.13757,3.00039 1.42566,0.93854 3.71193,2.61328 5.13757,3.76406 1.42566,1.15078 3.71193,3.20204 5.13759,4.52997 1.42566,1.32794 3.71193,3.64212 5.13757,5.04089 1.42563,1.39879 3.7119,3.71255 5.13755,5.04057 1.42565,1.32804 3.71193,3.37985 5.13759,4.53095 1.42566,1.15109 3.71192,2.82653 5.13757,3.76535 1.42566,0.93882 3.71193,2.25749 5.13759,3.00105 1.42564,0.74358 3.71191,1.77243 5.13756,2.35811 1.42565,0.58566 3.71194,1.39845 5.1376,1.86304 1.42564,0.4646 3.71191,1.11253 5.13757,1.48544 1.42566,0.37291 3.71193,0.89851 5.13757,1.20224 1.42565,0.30372 3.71192,0.73596 5.13758,0.98683 1.42566,0.25089 3.71193,0.61148 5.13759,0.8214 1.42564,0.20993 3.71191,0.5137 5.13757,0.69163 1.42566,0.1779 5.13757,0.59073 5.13757,0.59073"
       style="fill:none;stroke:#006395;stroke-width:1.24535;stroke-linecap:butt;stroke-linejoin:miter;stroke-miterlimit:10;stroke-dasharray:none;stroke-opacity:1"
       transform="matrix(1.3333333,0,0,-1.3333333,214.19867,61.096)" />
    <path
       id="path29"
       d="m 243.81334,-39.33131 h 62.71724"
       style="fill:none;stroke:#000000;stroke-width:0.49814;stroke-linecap:butt;stroke-linejoin:miter;stroke-miterlimit:10;stroke-dasharray:none;stroke-opacity:1"
       transform="matrix(1.3333333,0,0,-1.3333333,214.19867,61.096)" />
    <path
       id="path30"
       d="M 243.81334,-98.85934 H 181.0961"
       style="fill:none;stroke:#000000;stroke-width:0.49814;stroke-linecap:butt;stroke-linejoin:miter;stroke-miterlimit:10;stroke-dasharray:none;stroke-opacity:1"
       transform="matrix(1.3333333,0,0,-1.3333333,214.19867,61.096)" />
    <path
       id="path31"
       d="m 241.6872,-39.33131 h 2.12614"
       style="fill:none;stroke:#000000;stroke-width:0.49814;stroke-linecap:butt;stroke-linejoin:miter;stroke-miterlimit:10;stroke-dasharray:none;stroke-opacity:1"
       transform="matrix(1.3333333,0,0,-1.3333333,214.19867,61.096)" />
    <path
       id="path32"
       d="m 1.8044063,-3.5168828 v 3.51562499 h 0.609375 V -4.9465703 H 2.0153438 c -0.2109375,0.7617187 -0.3515625,0.8671875 -1.3007813,0.984375 v 0.4453125 z m 0,0"
       style="fill:#000000;fill-opacity:1;fill-rule:nonzero;stroke:none"
       aria-label="1"
       transform="matrix(1.3333333,0,0,1.3333333,526.516,116.84933)" />
    <path
       id="path33"
       d="m 241.6872,-54.21333 h 4.25227"
       style="fill:none;stroke:#000000;stroke-width:0.49814;stroke-linecap:butt;stroke-linejoin:miter;stroke-miterlimit:10;stroke-dasharray:none;stroke-opacity:1"
       transform="matrix(1.3333333,0,0,-1.3333333,214.19867,61.096)" />
    <path
       id="path34"
       d="m 1.9231641,-4.9440703 c -0.46875,0 -0.8789063,0.1992187 -1.13671879,0.5507812 -0.328125,0.421875 -0.48046875,1.0898438 -0.48046875,2.0039063 0,1.66406249 0.55078125,2.55468749 1.61718754,2.55468749 1.0429687,0 1.6171875,-0.890625 1.6171875,-2.51953129 0,-0.9609375 -0.1523438,-1.59375 -0.4804688,-2.0390625 C 2.8020703,-4.7448516 2.3801953,-4.9440703 1.9231641,-4.9440703 Z m 0,0.5507812 c 0.65625,0 0.984375,0.6679688 0.984375,1.9921875 0,1.3945313 -0.3164063,2.05078129 -1.0078125,2.05078129 -0.6445313,0 -0.97265629,-0.67968749 -0.97265629,-2.02734379 0,-1.359375 0.32812499,-2.015625 0.99609379,-2.015625 z m 3.290039,3.66796879 H 4.4866406 v 0.7265625 H 5.2132031 Z M 9.133125,-4.9440703 H 6.5784375 l -0.3632812,2.6953125 h 0.5625 C 7.070625,-2.5886016 7.305,-2.7057891 7.68,-2.7057891 c 0.6679688,0 1.0898438,0.4453125 1.0898438,1.1835938 0,0.70312499 -0.4101563,1.13671874 -1.0898438,1.13671874 -0.5273437,0 -0.8554687,-0.26953125 -1.0078125,-0.83203124 h -0.609375 c 0.082031,0.41015624 0.1523438,0.60937499 0.2929688,0.78515624 0.28125,0.375 0.7851562,0.59765625 1.3476562,0.59765625 0.9960938,0 1.6875,-0.7265625 1.6875,-1.76953129 0,-0.984375 -0.6445312,-1.6523437 -1.59375,-1.6523437 -0.3515625,0 -0.6328125,0.09375 -0.9140625,0.3046875 L 7.0823438,-4.3346953 H 9.133125 Z m 0,0"
       style="fill:#000000;fill-opacity:1;fill-rule:nonzero;stroke:none"
       aria-label="0.5"
       transform="matrix(1.3333333,0,0,1.3333333,518.76,136.596)" />
    <path
       id="path35"
       d="m 241.6872,-83.97731 h 4.25227"
       style="fill:none;stroke:#000000;stroke-width:0.49814;stroke-linecap:butt;stroke-linejoin:miter;stroke-miterlimit:10;stroke-dasharray:none;stroke-opacity:1"
       transform="matrix(1.3333333,0,0,-1.3333333,214.19867,61.096)" />
    <path
       id="path36"
       d="m 1.923125,-4.945375 c -0.46875,0 -0.8789062,0.1992188 -1.13671875,0.5507813 -0.328125,0.421875 -0.48046875,1.0898437 -0.48046875,2.0039062 0,1.6640625 0.55078125,2.5546875 1.6171875,2.5546875 1.0429688,0 1.6171875,-0.890625 1.6171875,-2.5195312 0,-0.9609375 -0.1523437,-1.59375 -0.4804687,-2.0390625 C 2.8020313,-4.7461562 2.3801563,-4.945375 1.923125,-4.945375 Z m 0,0.5507813 c 0.65625,0 0.984375,0.6679687 0.984375,1.9921875 0,1.3945312 -0.3164062,2.0507812 -1.0078125,2.0507812 -0.6445312,0 -0.97265625,-0.6796875 -0.97265625,-2.0273437 0,-1.359375 0.32812505,-2.015625 0.99609375,-2.015625 z M 5.2131641,-0.726625 H 4.4866016 V -6.25e-5 h 0.7265625 z m 3.9199218,-4.21875 H 6.5783984 l -0.3632812,2.6953125 h 0.5625 c 0.2929687,-0.3398437 0.5273437,-0.4570312 0.9023437,-0.4570312 0.6679688,0 1.0898438,0.4453125 1.0898438,1.1835937 0,0.703125 -0.4101563,1.13671875 -1.0898438,1.13671875 -0.5273437,0 -0.8554687,-0.26953125 -1.0078125,-0.83203125 h -0.609375 c 0.082031,0.41015625 0.1523438,0.609375 0.2929688,0.78515625 0.28125,0.375 0.7851562,0.59765625 1.3476562,0.59765625 0.9960938,0 1.6875,-0.7265625 1.6875,-1.7695312 0,-0.984375 -0.6445312,-1.6523438 -1.59375,-1.6523438 -0.3515625,0 -0.6328125,0.09375 -0.9140625,0.3046875 L 7.0823047,-4.336 h 2.0507812 z m 0,0"
       style="fill:#000000;fill-opacity:1;fill-rule:nonzero;stroke:none"
       aria-label="0.5"
       transform="matrix(1.3333333,0,0,1.3333333,546.87333,176.28133)" />
    <path
       id="path37"
       d="m 241.6872,-98.85934 h 2.12614"
       style="fill:none;stroke:#000000;stroke-width:0.49814;stroke-linecap:butt;stroke-linejoin:miter;stroke-miterlimit:10;stroke-dasharray:none;stroke-opacity:1"
       transform="matrix(1.3333333,0,0,-1.3333333,214.19867,61.096)" />
    <path
       id="path38"
       d="M 1.8049844,-3.5155625 V 6.25e-5 h 0.609375 V -4.94525 H 2.0159219 c -0.2109375,0.7617188 -0.3515625,0.8671875 -1.30078127,0.984375 v 0.4453125 z m 0,0"
       style="fill:#000000;fill-opacity:1;fill-rule:nonzero;stroke:none"
       aria-label="1"
       transform="matrix(1.3333333,0,0,1.3333333,544.03867,196.21867)" />
    <path
       id="path39"
       d="m 182.15918,-66.9692 c 49.23616,0 74.07214,25.51208 123.30832,25.51208"
       style="fill:none;stroke:#ff0000;stroke-width:0.99628;stroke-linecap:butt;stroke-linejoin:miter;stroke-miterlimit:10;stroke-dasharray:none;stroke-opacity:1"
       transform="matrix(1.3333333,0,0,-1.3333333,214.19867,61.096)" />
    <path
       id="path40"
       d="M 243.81334,-69.09532 181.00137,-80.17046"
       style="fill:none;stroke:#30e819;stroke-width:0.99628;stroke-linecap:butt;stroke-linejoin:miter;stroke-miterlimit:10;stroke-dasharray:none;stroke-opacity:1"
       transform="matrix(1.3333333,0,0,-1.3333333,214.19867,61.096)" />
    <path
       id="path41"
       d="m 243.81334,-69.09532 45.09952,45.09952"
       style="fill:none;stroke:#7e317b;stroke-width:0.99628;stroke-linecap:butt;stroke-linejoin:miter;stroke-miterlimit:10;stroke-dasharray:none;stroke-opacity:1"
       transform="matrix(1.3333333,0,0,-1.3333333,214.19867,61.096)" />
    <path
       id="path42"
       d="m -102.06027,32.11058 h 8.97282"
       style="fill:none;stroke:#808080;stroke-width:0.99628;stroke-linecap:butt;stroke-linejoin:miter;stroke-miterlimit:10;stroke-dasharray:none;stroke-opacity:1"
       transform="matrix(1.3333333,0,0,-1.3333333,214.19867,61.096)" />
    <path
       id="path43"
       d="M 5.20058,0 C 3.65962,0.28891 1.15567,1.15567 -0.57784,2.1669 V -2.1669 C 1.15567,-1.15567 3.65962,-0.28891 5.20058,0"
       style="fill:#808080;fill-opacity:1;fill-rule:nonzero;stroke:none"
       transform="matrix(1.3333333,0,0,-1.3333333,90.082067,18.281893)" />
    <path
       id="path44"
       d="M -29.29562,32.11058 H 0 V 18.51224"
       style="fill:none;stroke:#808080;stroke-width:0.99628;stroke-linecap:butt;stroke-linejoin:miter;stroke-miterlimit:10;stroke-dasharray:none;stroke-opacity:1"
       transform="matrix(1.3333333,0,0,-1.3333333,214.19867,61.096)" />
    <path
       id="path45"
       d="M 5.20058,0 C 3.65962,0.28891 1.15567,1.15567 -0.57784,2.1669 V -2.1669 C 1.15567,-1.15567 3.65962,-0.28891 5.20058,0"
       style="fill:#808080;fill-opacity:1;fill-rule:nonzero;stroke:none"
       transform="matrix(0,1.3333333,1.3333333,0,214.19867,36.413013)" />
    <path
       id="path46"
       d="M 1.7331953,-6.5390781 H 0.88944531 V -1.5625e-5 H 1.7331953 Z m 6.5478516,0 H 7.4958906 v 5.34375 l -3.421875,-5.34375 H 3.1716719 V -1.5625e-5 H 3.9568281 V -5.2968906 L 7.3435469,-1.5625e-5 h 0.9375 z m 3.8613281,0.7382812 h 2.144531 V -6.5390781 H 9.1540938 v 0.7382812 H 11.310344 V -1.5625e-5 h 0.832031 z m 5.806641,2.4609375 c 0.65625,-0.3984375 0.867187,-0.7265625 0.867187,-1.3242187 0,-0.9960938 -0.773437,-1.6875 -1.910156,-1.6875 -1.113281,0 -1.910156,0.6914062 -1.910156,1.6875 0,0.5976562 0.222656,0.9140625 0.867187,1.3242187 -0.726562,0.3398438 -1.089844,0.8789063 -1.089844,1.5703125 0,1.17187503 0.878907,1.98046878 2.132813,1.98046878 1.253906,0 2.132812,-0.80859375 2.132812,-1.96874998 0,-0.703125 -0.351562,-1.2421875 -1.089843,-1.5820313 z m -1.042969,-2.3203125 c 0.679687,0 1.101562,0.3984375 1.101562,1.0195313 0,0.5859375 -0.433593,0.984375 -1.101562,0.984375 -0.65625,0 -1.101563,-0.3984375 -1.101563,-0.9960938 0,-0.609375 0.445313,-1.0078125 1.101563,-1.0078125 z m 0,2.6601563 c 0.796875,0 1.335937,0.5039062 1.335937,1.2539062 0,0.75000003 -0.539062,1.25390628 -1.347656,1.25390628 -0.773437,0 -1.3125,-0.51562498 -1.3125,-1.25390628 0,-0.75 0.539063,-1.2539062 1.324219,-1.2539062 z m 0,0"
       style="fill:#000000;fill-opacity:1;fill-rule:nonzero;stroke:none"
       aria-label="INT8"
       transform="matrix(1.3333333,0,0,1.3333333,185.62267,12.945333)" />
    <path
       id="path47"
       d="m -102.06027,-32.11058 h 8.97282"
       style="fill:none;stroke:#808080;stroke-width:0.99628;stroke-linecap:butt;stroke-linejoin:miter;stroke-miterlimit:10;stroke-dasharray:none;stroke-opacity:1"
       transform="matrix(1.3333333,0,0,-1.3333333,214.19867,61.096)" />
    <path
       id="path48"
       d="M 5.20058,0 C 3.65962,0.28891 1.15567,1.15567 -0.57784,2.1669 V -2.1669 C 1.15567,-1.15567 3.65962,-0.28891 5.20058,0"
       style="fill:#808080;fill-opacity:1;fill-rule:nonzero;stroke:none"
       transform="matrix(1.3333333,0,0,-1.3333333,90.082067,103.91011)" />
    <path
       id="path49"
       d="M -29.29562,-32.11058 H 0 v 13.59834"
       style="fill:none;stroke:#808080;stroke-width:0.99628;stroke-linecap:butt;stroke-linejoin:miter;stroke-miterlimit:10;stroke-dasharray:none;stroke-opacity:1"
       transform="matrix(1.3333333,0,0,-1.3333333,214.19867,61.096)" />
    <path
       id="path50"
       d="M 5.20058,0 C 3.65962,0.28891 1.15567,1.15567 -0.57784,2.1669 V -2.1669 C 1.15567,-1.15567 3.65962,-0.28891 5.20058,0"
       style="fill:#808080;fill-opacity:1;fill-rule:nonzero;stroke:none"
       transform="matrix(0,-1.3333333,-1.3333333,0,214.19867,85.778987)" />
    <path
       id="path51"
       d="M 1.7331953,-6.5384141 H 0.88944531 V 6.484375e-4 H 1.7331953 Z m 6.5478516,0 H 7.4958906 v 5.34375 l -3.421875,-5.34375 H 3.1716719 V 6.484375e-4 H 3.9568281 V -5.2962266 L 7.3435469,6.484375e-4 h 0.9375 z m 3.8613281,0.7382813 h 2.144531 V -6.5384141 H 9.1540938 v 0.7382813 H 11.310344 V 6.484375e-4 h 0.832031 z m 5.806641,2.4609375 c 0.65625,-0.3984375 0.867187,-0.7265625 0.867187,-1.3242188 0,-0.9960937 -0.773437,-1.6875 -1.910156,-1.6875 -1.113281,0 -1.910156,0.6914063 -1.910156,1.6875 0,0.5976563 0.222656,0.9140625 0.867187,1.3242188 -0.726562,0.3398437 -1.089844,0.8789062 -1.089844,1.5703125 0,1.17187499 0.878907,1.98046874 2.132813,1.98046874 1.253906,0 2.132812,-0.80859375 2.132812,-1.96875004 0,-0.703125 -0.351562,-1.2421875 -1.089843,-1.5820312 z m -1.042969,-2.3203125 c 0.679687,0 1.101562,0.3984375 1.101562,1.0195312 0,0.5859375 -0.433593,0.984375 -1.101562,0.984375 -0.65625,0 -1.101563,-0.3984375 -1.101563,-0.9960937 0,-0.609375 0.445313,-1.0078125 1.101563,-1.0078125 z m 0,2.6601562 c 0.796875,0 1.335937,0.5039063 1.335937,1.2539063 0,0.74999999 -0.539062,1.25390624 -1.347656,1.25390624 -0.773437,0 -1.3125,-0.51562504 -1.3125,-1.25390624 0,-0.75 0.539063,-1.2539063 1.324219,-1.2539063 z m 0,0"
       style="fill:#000000;fill-opacity:1;fill-rule:nonzero;stroke:none"
       aria-label="INT8"
       transform="matrix(1.3333333,0,0,1.3333333,185.62267,117.51867)" />
    <path
       id="path52"
       d="m 29.29562,0 h 8.97281"
       style="fill:none;stroke:#808080;stroke-width:0.99628;stroke-linecap:butt;stroke-linejoin:miter;stroke-miterlimit:10;stroke-dasharray:none;stroke-opacity:1"
       transform="matrix(1.3333333,0,0,-1.3333333,214.19867,61.096)" />
    <path
       id="path53"
       d="M 5.20058,0 C 3.65962,0.28891 1.15567,1.15567 -0.57784,2.1669 V -2.1669 C 1.15567,-1.15567 3.65962,-0.28891 5.20058,0"
       style="fill:#808080;fill-opacity:1;fill-rule:nonzero;stroke:none"
       transform="matrix(1.3333333,0,0,-1.3333333,265.22324,61.096)" />
    <path
       id="path54"
       d="m 102.06027,0 h 8.97281"
       style="fill:none;stroke:#808080;stroke-width:0.99628;stroke-linecap:butt;stroke-linejoin:miter;stroke-miterlimit:10;stroke-dasharray:none;stroke-opacity:1"
       transform="matrix(1.3333333,0,0,-1.3333333,214.19867,61.096)" />
    <path
       id="path55"
       d="M 5.20058,0 C 3.65962,0.28891 1.15567,1.15567 -0.57784,2.1669 V -2.1669 C 1.15567,-1.15567 3.65962,-0.28891 5.20058,0"
       style="fill:#808080;fill-opacity:1;fill-rule:nonzero;stroke:none"
       transform="matrix(1.3333333,0,0,-1.3333333,362.24277,61.096)" />
    <path
       id="path56"
       d="M 174.82492,0 H 209.3097"
       style="fill:none;stroke:#808080;stroke-width:0.99628;stroke-linecap:butt;stroke-linejoin:miter;stroke-miterlimit:10;stroke-dasharray:none;stroke-opacity:1"
       transform="matrix(1.3333333,0,0,-1.3333333,214.19867,61.096)" />
    <path
       id="path57"
       d="M 5.20058,0 C 3.65962,0.28891 1.15567,1.15567 -0.57784,2.1669 V -2.1669 C 1.15567,-1.15567 3.65962,-0.28891 5.20058,0"
       style="fill:#808080;fill-opacity:1;fill-rule:nonzero;stroke:none"
       transform="matrix(1.3333333,0,0,-1.3333333,493.27827,61.096)" />
    <path
       id="path58"
       d="M 1.6392578,-2.9772031 H 4.7564453 V -3.7154844 H 1.6392578 V -5.8014219 H 5.1900391 V -6.5397031 H 0.80722656 V -6.40625e-4 H 1.6392578 Z m 5.4902344,0.2109375 h 2.0507812 c 0.515625,0 0.9140626,-0.1523438 1.2656246,-0.46875 0.386719,-0.3632813 0.5625,-0.7851563 0.5625,-1.3828125 0,-1.2304688 -0.726562,-1.921875 -2.0156246,-1.921875 H 6.2974609 v 6.539062475 h 0.8320313 z m 0,-0.7382813 v -2.296875 h 1.734375 c 0.796875,0 1.2773438,0.4335938 1.2773438,1.1484375 0,0.7148438 -0.4804688,1.1484375 -1.2773438,1.1484375 z m 6.6503908,-1.0195312 v 4.523437475 h 0.785156 V -6.3522031 h -0.515625 c -0.28125,0.9726562 -0.457031,1.1015625 -1.675781,1.2539062 v 0.5742188 z m 7.12793,-0.1757813 c -0.152344,-1.0429687 -0.832032,-1.6523437 -1.804688,-1.6523437 -0.691406,0 -1.324219,0.3398437 -1.699219,0.9023437 -0.398437,0.6210938 -0.574218,1.3945313 -0.574218,2.5546875 0,1.0664063 0.164062,1.7460938 0.539062,2.30859378 0.339844,0.515625 0.890625,0.796875 1.59375,0.796875 1.207031,0 2.074219,-0.90234375 2.074219,-2.14453128 0,-1.1835937 -0.796875,-2.015625 -1.945313,-2.015625 -0.621093,0 -1.113281,0.234375 -1.453125,0.703125 0.01172,-1.546875 0.503907,-2.4140625 1.417969,-2.4140625 0.550781,0 0.9375,0.3515625 1.066406,0.9609375 z m -1.910157,1.4414063 c 0.761719,0 1.242188,0.5273437 1.242188,1.3828125 0,0.796875 -0.539063,1.38281248 -1.265625,1.38281248 -0.738281,0 -1.289063,-0.60937498 -1.289063,-1.42968748 0,-0.7851563 0.527344,-1.3359375 1.3125,-1.3359375 z m 0,0"
       style="fill:#000000;fill-opacity:1;fill-rule:nonzero;stroke:none"
       aria-label="FP16"
       transform="matrix(1.3333333,0,0,1.3333333,459.46667,55.758667)" />
    <path
       id="path59"
       d="m 273.10153,0 h 8.97281"
       style="fill:none;stroke:#808080;stroke-width:0.99628;stroke-linecap:butt;stroke-linejoin:miter;stroke-miterlimit:10;stroke-dasharray:none;stroke-opacity:1"
       transform="matrix(1.3333333,0,0,-1.3333333,214.19867,61.096)" />
    <path
       id="path60"
       d="M 5.20058,0 C 3.65962,0.28891 1.15567,1.15567 -0.57784,2.1669 V -2.1669 C 1.15567,-1.15567 3.65962,-0.28891 5.20058,0"
       style="fill:#808080;fill-opacity:1;fill-rule:nonzero;stroke:none"
       transform="matrix(1.3333333,0,0,-1.3333333,590.29779,61.096)" />
  </g>
</svg>
