<?xml version="1.0" encoding="utf-8" standalone="no"?>
<!DOCTYPE svg PUBLIC "-//W3C//DTD SVG 1.1//EN"
  "http://www.w3.org/Graphics/SVG/1.1/DTD/svg11.dtd">
<svg xmlns:xlink="http://www.w3.org/1999/xlink" width="68.724pt" height="42.7968pt" viewBox="0 0 68.724 42.7968" xmlns="http://www.w3.org/2000/svg" version="1.1">
 <metadata>
  <rdf:RDF xmlns:dc="http://purl.org/dc/elements/1.1/" xmlns:cc="http://creativecommons.org/ns#" xmlns:rdf="http://www.w3.org/1999/02/22-rdf-syntax-ns#">
   <cc:Work>
    <dc:type rdf:resource="http://purl.org/dc/dcmitype/StillImage"/>
    <dc:format>image/svg+xml</dc:format>
    <dc:creator>
     <cc:Agent>
      <dc:title>Matplotlib v3.10.8, https://matplotlib.org/</dc:title>
     </cc:Agent>
    </dc:creator>
   </cc:Work>
  </rdf:RDF>
 </metadata>
 <defs>
  <style type="text/css">*{stroke-linejoin: round; stroke-linecap: butt}</style>
 </defs>
 <g id="figure_1">
  <g id="patch_1">
   <path d="M 0 42.7968
L 68.724 42.7968
L 68.724 0
L 0 0
z
" style="fill: #ffffff"/>
  </g>
  <g id="axes_1">
   <g id="patch_2">
    <path d="M 1.44 41.3568
L 67.284 41.3568
L 67.284 1.44
L 1.44 1.44
z
" style="fill: #ffffff"/>
   </g>
   <g id="matplotlib.axis_1"/>
   <g id="matplotlib.axis_2"/>
   <g id="line2d_1">
    <path d="M 1.44 36.566784
L 2.105091 35.033353
L 2.770182 33.575445
L 3.435273 32.18934
L 4.100364 30.871502
L 4.765455 29.618568
L 5.430545 28.427343
L 6.095636 27.294786
L 6.760727 26.218009
L 7.425818 25.194264
L 8.090909 24.22094
L 8.756 23.295552
L 9.421091 22.415741
L 10.086182 21.579261
L 10.751273 20.783979
L 11.416364 20.027865
L 12.081455 19.30899
L 12.746545 18.62552
L 13.411636 17.975712
L 14.076727 17.357908
L 14.741818 16.77053
L 15.406909 16.212082
L 16.072 15.681138
L 16.737091 15.176343
L 17.402182 14.69641
L 18.067273 14.240114
L 18.732364 13.806291
L 19.397455 13.393834
L 20.062545 13.001691
L 20.727636 12.628861
L 21.392727 12.274394
L 22.057818 11.937384
L 22.722909 11.616973
L 23.388 11.312342
L 24.053091 11.022714
L 24.718182 10.747351
L 25.383273 10.485549
L 26.048364 10.236642
L 26.713455 9.999993
L 27.378545 9.775
L 28.043636 9.561087
L 28.708727 9.35771
L 29.373818 9.16435
L 30.038909 8.980513
L 30.704 8.80573
L 31.369091 8.639555
L 32.034182 8.481564
L 32.699273 8.331355
L 33.364364 8.188543
L 34.029455 8.052765
L 34.694545 7.923675
L 35.359636 7.800942
L 36.024727 7.684253
L 36.689818 7.573312
L 37.354909 7.467835
L 38.02 7.367553
L 38.685091 7.272209
L 39.350182 7.181561
L 40.015273 7.095378
L 40.680364 7.01344
L 41.345455 6.935537
L 42.010545 6.86147
L 42.675636 6.791052
L 43.340727 6.724102
L 44.005818 6.660449
L 44.670909 6.599931
L 45.336 6.542393
L 46.001091 6.48769
L 46.666182 6.43568
L 47.331273 6.386233
L 47.996364 6.33922
L 48.661455 6.294523
L 49.326545 6.252027
L 49.991636 6.211624
L 50.656727 6.173211
L 51.321818 6.13669
L 51.986909 6.101968
L 52.652 6.068956
L 53.317091 6.037569
L 53.982182 6.007729
L 54.647273 5.979358
L 55.312364 5.952384
L 55.977455 5.926739
L 56.642545 5.902357
L 57.307636 5.879176
L 57.972727 5.857136
L 58.637818 5.836182
L 59.302909 5.81626
L 59.968 5.797319
L 60.633091 5.779311
L 61.298182 5.76219
L 61.963273 5.745912
L 62.628364 5.730436
L 63.293455 5.715722
L 63.958545 5.701733
L 64.623636 5.688432
L 65.288727 5.675787
L 65.953818 5.663764
L 66.618909 5.652334
L 67.284 5.641467
" clip-path="url(#p9173796fe7)" style="fill: none; stroke: #cb202d; stroke-width: 1.45; stroke-linecap: square"/>
   </g>
   <g id="line2d_2">
    <path d="M 1.44 5.43168
L 67.284 5.43168
" clip-path="url(#p9173796fe7)" style="fill: none; stroke: #cccccc; stroke-width: 0.6; stroke-linecap: square"/>
   </g>
   <g id="text_1">
    <!-- rare -->
    <g style="fill: #333333" transform="translate(14.861474 11.468516) scale(0.049 -0.049)">
     <defs>
      <path id="Helvetica-72" d="M 428 3347
L 963 3347
L 963 2769
Q 1028 2938 1284 3180
Q 1541 3422 1875 3422
Q 1891 3422 1928 3419
Q 1966 3416 2056 3406
L 2056 2813
Q 2006 2822 1964 2825
Q 1922 2828 1872 2828
Q 1447 2828 1219 2554
Q 991 2281 991 1925
L 991 0
L 428 0
L 428 3347
z
" transform="scale(0.015625)"/>
      <path id="Helvetica-61" d="M 844 891
Q 844 647 1022 506
Q 1200 366 1444 366
Q 1741 366 2019 503
Q 2488 731 2488 1250
L 2488 1703
Q 2384 1638 2221 1594
Q 2059 1550 1903 1531
L 1563 1488
Q 1256 1447 1103 1359
Q 844 1213 844 891
z
M 2206 2028
Q 2400 2053 2466 2191
Q 2503 2266 2503 2406
Q 2503 2694 2298 2823
Q 2094 2953 1713 2953
Q 1272 2953 1088 2716
Q 984 2584 953 2325
L 428 2325
Q 444 2944 830 3186
Q 1216 3428 1725 3428
Q 2316 3428 2684 3203
Q 3050 2978 3050 2503
L 3050 575
Q 3050 488 3086 434
Q 3122 381 3238 381
Q 3275 381 3322 386
Q 3369 391 3422 400
L 3422 -16
Q 3291 -53 3222 -62
Q 3153 -72 3034 -72
Q 2744 -72 2613 134
Q 2544 244 2516 444
Q 2344 219 2022 53
Q 1700 -113 1313 -113
Q 847 -113 551 170
Q 256 453 256 878
Q 256 1344 547 1600
Q 838 1856 1309 1916
L 2206 2028
z
M 1741 3428
L 1741 3428
z
" transform="scale(0.015625)"/>
      <path id="Helvetica-65" d="M 1806 3422
Q 2163 3422 2497 3255
Q 2831 3088 3006 2822
Q 3175 2569 3231 2231
Q 3281 2000 3281 1494
L 828 1494
Q 844 984 1069 676
Q 1294 369 1766 369
Q 2206 369 2469 659
Q 2619 828 2681 1050
L 3234 1050
Q 3213 866 3089 639
Q 2966 413 2813 269
Q 2556 19 2178 -69
Q 1975 -119 1719 -119
Q 1094 -119 659 336
Q 225 791 225 1609
Q 225 2416 662 2919
Q 1100 3422 1806 3422
z
M 2703 1941
Q 2669 2306 2544 2525
Q 2313 2931 1772 2931
Q 1384 2931 1121 2651
Q 859 2372 844 1941
L 2703 1941
z
M 1753 3428
L 1753 3428
z
" transform="scale(0.015625)"/>
     </defs>
     <use xlink:href="#Helvetica-72"/>
     <use xlink:href="#Helvetica-61" transform="translate(33.300781 0)"/>
     <use xlink:href="#Helvetica-72" transform="translate(88.916016 0)"/>
     <use xlink:href="#Helvetica-65" transform="translate(122.216797 0)"/>
    </g>
   </g>
   <g id="text_2">
    <!-- certain -->
    <g style="fill: #cb202d" transform="translate(41.344555 14.687306) scale(0.05 -0.05)">
     <defs>
      <path id="Helvetica-63" d="M 1703 3444
Q 2269 3444 2623 3169
Q 2978 2894 3050 2222
L 2503 2222
Q 2453 2531 2275 2736
Q 2097 2941 1703 2941
Q 1166 2941 934 2416
Q 784 2075 784 1575
Q 784 1072 996 728
Q 1209 384 1666 384
Q 2016 384 2220 598
Q 2425 813 2503 1184
L 3050 1184
Q 2956 519 2581 211
Q 2206 -97 1622 -97
Q 966 -97 575 383
Q 184 863 184 1581
Q 184 2463 612 2953
Q 1041 3444 1703 3444
z
M 1616 3428
L 1616 3428
z
" transform="scale(0.015625)"/>
      <path id="Helvetica-74" d="M 525 4281
L 1094 4281
L 1094 3347
L 1628 3347
L 1628 2888
L 1094 2888
L 1094 703
Q 1094 528 1213 469
Q 1278 434 1431 434
Q 1472 434 1519 436
Q 1566 438 1628 444
L 1628 0
Q 1531 -28 1426 -40
Q 1322 -53 1200 -53
Q 806 -53 665 148
Q 525 350 525 672
L 525 2888
L 72 2888
L 72 3347
L 525 3347
L 525 4281
z
" transform="scale(0.015625)"/>
      <path id="Helvetica-69" d="M 413 3331
L 984 3331
L 984 0
L 413 0
L 413 3331
z
M 413 4591
L 984 4591
L 984 3953
L 413 3953
L 413 4591
z
" transform="scale(0.015625)"/>
      <path id="Helvetica-6e" d="M 413 3347
L 947 3347
L 947 2872
Q 1184 3166 1450 3294
Q 1716 3422 2041 3422
Q 2753 3422 3003 2925
Q 3141 2653 3141 2147
L 3141 0
L 2569 0
L 2569 2109
Q 2569 2416 2478 2603
Q 2328 2916 1934 2916
Q 1734 2916 1606 2875
Q 1375 2806 1200 2600
Q 1059 2434 1017 2257
Q 975 2081 975 1753
L 975 0
L 413 0
L 413 3347
z
M 1734 3428
L 1734 3428
z
" transform="scale(0.015625)"/>
     </defs>
     <use xlink:href="#Helvetica-63"/>
     <use xlink:href="#Helvetica-65" transform="translate(50 0)"/>
     <use xlink:href="#Helvetica-72" transform="translate(105.615234 0)"/>
     <use xlink:href="#Helvetica-74" transform="translate(138.916016 0)"/>
     <use xlink:href="#Helvetica-61" transform="translate(166.699219 0)"/>
     <use xlink:href="#Helvetica-69" transform="translate(222.314453 0)"/>
     <use xlink:href="#Helvetica-6e" transform="translate(244.53125 0)"/>
    </g>
   </g>
   <g id="text_3">
    <!-- fleet scale -->
    <g style="fill: #333333" transform="translate(28.82427 32.998143) scale(0.048 -0.048)">
     <defs>
      <path id="Helvetica-66" d="M 553 3856
Q 566 4206 675 4369
Q 872 4656 1434 4656
Q 1488 4656 1544 4653
Q 1600 4650 1672 4644
L 1672 4131
Q 1584 4138 1545 4139
Q 1506 4141 1472 4141
Q 1216 4141 1166 4008
Q 1116 3875 1116 3331
L 1672 3331
L 1672 2888
L 1109 2888
L 1109 0
L 553 0
L 553 2888
L 88 2888
L 88 3331
L 553 3331
L 553 3856
z
" transform="scale(0.015625)"/>
      <path id="Helvetica-6c" d="M 428 4591
L 991 4591
L 991 0
L 428 0
L 428 4591
z
" transform="scale(0.015625)"/>
      <path id="Helvetica-20" transform="scale(0.015625)"/>
      <path id="Helvetica-73" d="M 747 1050
Q 772 769 888 619
Q 1100 347 1625 347
Q 1938 347 2175 483
Q 2413 619 2413 903
Q 2413 1119 2222 1231
Q 2100 1300 1741 1391
L 1294 1503
Q 866 1609 663 1741
Q 300 1969 300 2372
Q 300 2847 642 3140
Q 984 3434 1563 3434
Q 2319 3434 2653 2991
Q 2863 2709 2856 2384
L 2325 2384
Q 2309 2575 2191 2731
Q 1997 2953 1519 2953
Q 1200 2953 1036 2831
Q 872 2709 872 2509
Q 872 2291 1088 2159
Q 1213 2081 1456 2022
L 1828 1931
Q 2434 1784 2641 1647
Q 2969 1431 2969 969
Q 2969 522 2630 197
Q 2291 -128 1597 -128
Q 850 -128 539 211
Q 228 550 206 1050
L 747 1050
z
M 1578 3428
L 1578 3428
z
" transform="scale(0.015625)"/>
     </defs>
     <use xlink:href="#Helvetica-66"/>
     <use xlink:href="#Helvetica-6c" transform="translate(27.783203 0)"/>
     <use xlink:href="#Helvetica-65" transform="translate(50 0)"/>
     <use xlink:href="#Helvetica-65" transform="translate(105.615234 0)"/>
     <use xlink:href="#Helvetica-74" transform="translate(161.230469 0)"/>
     <use xlink:href="#Helvetica-20" transform="translate(189.013672 0)"/>
     <use xlink:href="#Helvetica-73" transform="translate(216.796875 0)"/>
     <use xlink:href="#Helvetica-63" transform="translate(266.796875 0)"/>
     <use xlink:href="#Helvetica-61" transform="translate(316.796875 0)"/>
     <use xlink:href="#Helvetica-6c" transform="translate(372.412109 0)"/>
     <use xlink:href="#Helvetica-65" transform="translate(394.628906 0)"/>
    </g>
   </g>
  </g>
 </g>
 <defs>
  <clipPath id="p9173796fe7">
   <rect x="1.44" y="1.44" width="65.844" height="39.9168"/>
  </clipPath>
 </defs>
</svg>
