<?xml version="1.0" encoding="UTF-8"?>
<!DOCTYPE svg PUBLIC "-//W3C//DTD SVG 1.1//EN"
  "http://www.w3.org/Graphics/SVG/1.1/DTD/svg11.dtd">
<svg xmlns:xlink="http://www.w3.org/1999/xlink" width="78.432392pt" height="41.688pt" viewBox="0 0 78.432392 41.688" xmlns="http://www.w3.org/2000/svg" version="1.1">
 <metadata>
  <rdf:RDF xmlns:dc="http://purl.org/dc/elements/1.1/" xmlns:cc="http://creativecommons.org/ns#" xmlns:rdf="http://www.w3.org/1999/02/22-rdf-syntax-ns#">
   <cc:Work>
    <dc:type rdf:resource="http://purl.org/dc/dcmitype/StillImage"/>
    <dc:format>image/svg+xml</dc:format>
    <dc:creator>
     <cc:Agent>
      <dc:title>Matplotlib v3.10.8, https://matplotlib.org/</dc:title>
     </cc:Agent>
    </dc:creator>
   </cc:Work>
  </rdf:RDF>
 </metadata>
 <defs>
  <style type="text/css">*{stroke-linejoin: round; stroke-linecap: butt}</style>
 </defs>
 <g id="figure_1">
  <g id="patch_1">
   <path d="M 0 41.688
L 78.432392 41.688
L 78.432392 0
L 0 0
z
" style="fill: #ffffff"/>
  </g>
  <g id="axes_1">
   <g id="patch_2">
    <path d="M 1.44 40.248
L 69.516 40.248
L 69.516 1.44
L 1.44 1.44
z
" style="fill: #ffffff"/>
   </g>
   <g id="patch_3">
    <path d="M 24.58584 17.73936
L 51.397311 17.73936
L 51.397311 12.30624
L 24.58584 12.30624
z
" clip-path="url(#pd2f9856da1)" style="fill: #e67817; stroke: #ffffff; stroke-width: 0.35; stroke-linejoin: miter"/>
   </g>
   <g id="patch_4">
    <path d="M 51.397311 17.73936
L 57.26232 17.73936
L 57.26232 12.30624
L 51.397311 12.30624
z
" clip-path="url(#pd2f9856da1)" style="fill: #cb202d; stroke: #ffffff; stroke-width: 0.35; stroke-linejoin: miter"/>
   </g>
   <g id="patch_5">
    <path d="M 24.58584 29.38176
L 41.45112 29.38176
L 41.45112 23.94864
L 24.58584 23.94864
z
" clip-path="url(#pd2f9856da1)" style="fill: #e67817; stroke: #ffffff; stroke-width: 0.35; stroke-linejoin: miter"/>
   </g>
   <g id="patch_6">
    <path d="M 41.45112 29.38176
L 57.26232 29.38176
L 57.26232 23.94864
L 41.45112 23.94864
z
" clip-path="url(#pd2f9856da1)" style="fill: #cb202d; stroke: #ffffff; stroke-width: 0.35; stroke-linejoin: miter"/>
   </g>
   <g id="matplotlib.axis_1"/>
   <g id="matplotlib.axis_2"/>
   <g id="text_1">
    <!-- bubble tax -->
    <g style="fill: #333333" transform="translate(26.665103 6.204986) scale(0.05 -0.05)">
     <defs>
      <path id="Helvetica-62" d="M 369 4606
L 916 4606
L 916 2941
Q 1100 3181 1356 3307
Q 1613 3434 1913 3434
Q 2538 3434 2927 3004
Q 3316 2575 3316 1738
Q 3316 944 2931 419
Q 2547 -106 1866 -106
Q 1484 -106 1222 78
Q 1066 188 888 428
L 888 0
L 369 0
L 369 4606
z
M 1831 391
Q 2288 391 2514 753
Q 2741 1116 2741 1709
Q 2741 2238 2514 2584
Q 2288 2931 1847 2931
Q 1463 2931 1173 2647
Q 884 2363 884 1709
Q 884 1238 1003 944
Q 1225 391 1831 391
z
" transform="scale(0.015625)"/>
      <path id="Helvetica-75" d="M 975 3347
L 975 1125
Q 975 869 1056 706
Q 1206 406 1616 406
Q 2203 406 2416 931
Q 2531 1213 2531 1703
L 2531 3347
L 3094 3347
L 3094 0
L 2563 0
L 2569 494
Q 2459 303 2297 172
Q 1975 -91 1516 -91
Q 800 -91 541 388
Q 400 644 400 1072
L 400 3347
L 975 3347
z
M 1747 3428
L 1747 3428
z
" transform="scale(0.015625)"/>
      <path id="Helvetica-6c" d="M 428 4591
L 991 4591
L 991 0
L 428 0
L 428 4591
z
" transform="scale(0.015625)"/>
      <path id="Helvetica-65" d="M 1806 3422
Q 2163 3422 2497 3255
Q 2831 3088 3006 2822
Q 3175 2569 3231 2231
Q 3281 2000 3281 1494
L 828 1494
Q 844 984 1069 676
Q 1294 369 1766 369
Q 2206 369 2469 659
Q 2619 828 2681 1050
L 3234 1050
Q 3213 866 3089 639
Q 2966 413 2813 269
Q 2556 19 2178 -69
Q 1975 -119 1719 -119
Q 1094 -119 659 336
Q 225 791 225 1609
Q 225 2416 662 2919
Q 1100 3422 1806 3422
z
M 2703 1941
Q 2669 2306 2544 2525
Q 2313 2931 1772 2931
Q 1384 2931 1121 2651
Q 859 2372 844 1941
L 2703 1941
z
M 1753 3428
L 1753 3428
z
" transform="scale(0.015625)"/>
      <path id="Helvetica-20" transform="scale(0.015625)"/>
      <path id="Helvetica-74" d="M 525 4281
L 1094 4281
L 1094 3347
L 1628 3347
L 1628 2888
L 1094 2888
L 1094 703
Q 1094 528 1213 469
Q 1278 434 1431 434
Q 1472 434 1519 436
Q 1566 438 1628 444
L 1628 0
Q 1531 -28 1426 -40
Q 1322 -53 1200 -53
Q 806 -53 665 148
Q 525 350 525 672
L 525 2888
L 72 2888
L 72 3347
L 525 3347
L 525 4281
z
" transform="scale(0.015625)"/>
      <path id="Helvetica-61" d="M 844 891
Q 844 647 1022 506
Q 1200 366 1444 366
Q 1741 366 2019 503
Q 2488 731 2488 1250
L 2488 1703
Q 2384 1638 2221 1594
Q 2059 1550 1903 1531
L 1563 1488
Q 1256 1447 1103 1359
Q 844 1213 844 891
z
M 2206 2028
Q 2400 2053 2466 2191
Q 2503 2266 2503 2406
Q 2503 2694 2298 2823
Q 2094 2953 1713 2953
Q 1272 2953 1088 2716
Q 984 2584 953 2325
L 428 2325
Q 444 2944 830 3186
Q 1216 3428 1725 3428
Q 2316 3428 2684 3203
Q 3050 2978 3050 2503
L 3050 575
Q 3050 488 3086 434
Q 3122 381 3238 381
Q 3275 381 3322 386
Q 3369 391 3422 400
L 3422 -16
Q 3291 -53 3222 -62
Q 3153 -72 3034 -72
Q 2744 -72 2613 134
Q 2544 244 2516 444
Q 2344 219 2022 53
Q 1700 -113 1313 -113
Q 847 -113 551 170
Q 256 453 256 878
Q 256 1344 547 1600
Q 838 1856 1309 1916
L 2206 2028
z
M 1741 3428
L 1741 3428
z
" transform="scale(0.015625)"/>
      <path id="Helvetica-78" d="M 94 3347
L 822 3347
L 1591 2169
L 2369 3347
L 3053 3331
L 1925 1716
L 3103 0
L 2384 0
L 1553 1256
L 747 0
L 34 0
L 1213 1716
L 94 3347
z
" transform="scale(0.015625)"/>
     </defs>
     <use xlink:href="#Helvetica-62"/>
     <use xlink:href="#Helvetica-75" transform="translate(55.615234 0)"/>
     <use xlink:href="#Helvetica-62" transform="translate(111.230469 0)"/>
     <use xlink:href="#Helvetica-62" transform="translate(166.845703 0)"/>
     <use xlink:href="#Helvetica-6c" transform="translate(222.460938 0)"/>
     <use xlink:href="#Helvetica-65" transform="translate(244.677734 0)"/>
     <use xlink:href="#Helvetica-20" transform="translate(300.292969 0)"/>
     <use xlink:href="#Helvetica-74" transform="translate(328.076172 0)"/>
     <use xlink:href="#Helvetica-61" transform="translate(355.859375 0)"/>
     <use xlink:href="#Helvetica-78" transform="translate(411.474609 0)"/>
    </g>
   </g>
   <g id="text_2">
    <!-- p8 m32 -->
    <g style="fill: #333333" transform="translate(5.52456 16.244175) scale(0.048 -0.048)">
     <defs>
      <path id="Helvetica-70" d="M 1825 378
Q 2219 378 2480 708
Q 2741 1038 2741 1694
Q 2741 2094 2625 2381
Q 2406 2934 1825 2934
Q 1241 2934 1025 2350
Q 909 2038 909 1556
Q 909 1169 1025 897
Q 1244 378 1825 378
z
M 369 3331
L 916 3331
L 916 2888
Q 1084 3116 1284 3241
Q 1569 3428 1953 3428
Q 2522 3428 2919 2992
Q 3316 2556 3316 1747
Q 3316 653 2744 184
Q 2381 -113 1900 -113
Q 1522 -113 1266 53
Q 1116 147 931 375
L 931 -1334
L 369 -1334
L 369 3331
z
" transform="scale(0.015625)"/>
      <path id="Helvetica-38" d="M 1741 2600
Q 2113 2600 2322 2808
Q 2531 3016 2531 3303
Q 2531 3553 2331 3762
Q 2131 3972 1722 3972
Q 1316 3972 1134 3762
Q 953 3553 953 3272
Q 953 2956 1187 2778
Q 1422 2600 1741 2600
z
M 1775 384
Q 2166 384 2423 595
Q 2681 806 2681 1225
Q 2681 1659 2415 1884
Q 2150 2109 1734 2109
Q 1331 2109 1076 1879
Q 822 1650 822 1244
Q 822 894 1055 639
Q 1288 384 1775 384
z
M 975 2384
Q 741 2484 609 2619
Q 363 2869 363 3269
Q 363 3769 725 4128
Q 1088 4488 1753 4488
Q 2397 4488 2762 4148
Q 3128 3809 3128 3356
Q 3128 2938 2916 2678
Q 2797 2531 2547 2391
Q 2825 2263 2984 2097
Q 3281 1784 3281 1284
Q 3281 694 2884 283
Q 2488 -128 1763 -128
Q 1109 -128 657 226
Q 206 581 206 1256
Q 206 1653 400 1942
Q 594 2231 975 2384
z
" transform="scale(0.015625)"/>
      <path id="Helvetica-6d" d="M 413 3347
L 969 3347
L 969 2872
Q 1169 3119 1331 3231
Q 1609 3422 1963 3422
Q 2363 3422 2606 3225
Q 2744 3113 2856 2894
Q 3044 3163 3297 3292
Q 3550 3422 3866 3422
Q 4541 3422 4784 2934
Q 4916 2672 4916 2228
L 4916 0
L 4331 0
L 4331 2325
Q 4331 2659 4164 2784
Q 3997 2909 3756 2909
Q 3425 2909 3186 2687
Q 2947 2466 2947 1947
L 2947 0
L 2375 0
L 2375 2184
Q 2375 2525 2294 2681
Q 2166 2916 1816 2916
Q 1497 2916 1236 2669
Q 975 2422 975 1775
L 975 0
L 413 0
L 413 3347
z
" transform="scale(0.015625)"/>
      <path id="Helvetica-33" d="M 1663 -122
Q 869 -122 511 314
Q 153 750 153 1375
L 741 1375
Q 778 941 903 744
Q 1122 391 1694 391
Q 2138 391 2406 628
Q 2675 866 2675 1241
Q 2675 1703 2392 1887
Q 2109 2072 1606 2072
Q 1550 2072 1492 2070
Q 1434 2069 1375 2066
L 1375 2563
Q 1463 2553 1522 2550
Q 1581 2547 1650 2547
Q 1966 2547 2169 2647
Q 2525 2822 2525 3272
Q 2525 3606 2287 3787
Q 2050 3969 1734 3969
Q 1172 3969 956 3594
Q 838 3388 822 3006
L 266 3006
Q 266 3506 466 3856
Q 809 4481 1675 4481
Q 2359 4481 2734 4176
Q 3109 3872 3109 3294
Q 3109 2881 2888 2625
Q 2750 2466 2531 2375
Q 2884 2278 3082 2001
Q 3281 1725 3281 1325
Q 3281 684 2859 281
Q 2438 -122 1663 -122
z
" transform="scale(0.015625)"/>
      <path id="Helvetica-32" d="M 200 0
Q 231 578 439 1006
Q 647 1434 1250 1784
L 1850 2131
Q 2253 2366 2416 2531
Q 2672 2791 2672 3125
Q 2672 3516 2437 3745
Q 2203 3975 1813 3975
Q 1234 3975 1013 3538
Q 894 3303 881 2888
L 309 2888
Q 319 3472 525 3841
Q 891 4491 1816 4491
Q 2584 4491 2939 4075
Q 3294 3659 3294 3150
Q 3294 2613 2916 2231
Q 2697 2009 2131 1694
L 1703 1456
Q 1397 1288 1222 1134
Q 909 863 828 531
L 3272 531
L 3272 0
L 200 0
z
" transform="scale(0.015625)"/>
     </defs>
     <use xlink:href="#Helvetica-70"/>
     <use xlink:href="#Helvetica-38" transform="translate(55.615234 0)"/>
     <use xlink:href="#Helvetica-20" transform="translate(111.230469 0)"/>
     <use xlink:href="#Helvetica-6d" transform="translate(139.013672 0)"/>
     <use xlink:href="#Helvetica-33" transform="translate(222.314453 0)"/>
     <use xlink:href="#Helvetica-32" transform="translate(277.929688 0)"/>
    </g>
   </g>
   <g id="text_3">
    <!-- work -->
    <g style="fill: #ffffff" transform="translate(33.1357 16.193284) scale(0.046 -0.046)">
     <defs>
      <path id="Helvetica-77" d="M 672 3347
L 1316 709
L 1969 3347
L 2600 3347
L 3256 725
L 3941 3347
L 4503 3347
L 3531 0
L 2947 0
L 2266 2591
L 1606 0
L 1022 0
L 56 3347
L 672 3347
z
" transform="scale(0.015625)"/>
      <path id="Helvetica-6f" d="M 1741 363
Q 2300 363 2508 786
Q 2716 1209 2716 1728
Q 2716 2197 2566 2491
Q 2328 2953 1747 2953
Q 1231 2953 997 2559
Q 763 2166 763 1609
Q 763 1075 997 719
Q 1231 363 1741 363
z
M 1763 3444
Q 2409 3444 2856 3012
Q 3303 2581 3303 1744
Q 3303 934 2909 406
Q 2516 -122 1688 -122
Q 997 -122 590 345
Q 184 813 184 1600
Q 184 2444 612 2944
Q 1041 3444 1763 3444
z
M 1744 3428
L 1744 3428
z
" transform="scale(0.015625)"/>
      <path id="Helvetica-72" d="M 428 3347
L 963 3347
L 963 2769
Q 1028 2938 1284 3180
Q 1541 3422 1875 3422
Q 1891 3422 1928 3419
Q 1966 3416 2056 3406
L 2056 2813
Q 2006 2822 1964 2825
Q 1922 2828 1872 2828
Q 1447 2828 1219 2554
Q 991 2281 991 1925
L 991 0
L 428 0
L 428 3347
z
" transform="scale(0.015625)"/>
      <path id="Helvetica-6b" d="M 400 4591
L 941 4591
L 941 1925
L 2384 3347
L 3103 3347
L 1822 2094
L 3175 0
L 2456 0
L 1413 1688
L 941 1256
L 941 0
L 400 0
L 400 4591
z
" transform="scale(0.015625)"/>
     </defs>
     <use xlink:href="#Helvetica-77"/>
     <use xlink:href="#Helvetica-6f" transform="translate(72.216797 0)"/>
     <use xlink:href="#Helvetica-72" transform="translate(127.832031 0)"/>
     <use xlink:href="#Helvetica-6b" transform="translate(161.132812 0)"/>
    </g>
   </g>
   <g id="text_4">
    <!-- 18% idle -->
    <g style="fill: #cb202d" transform="translate(58.96422 16.21873) scale(0.047 -0.047)">
     <defs>
      <path id="Helvetica-31" d="M 613 3169
L 613 3600
Q 1222 3659 1462 3798
Q 1703 3938 1822 4456
L 2266 4456
L 2266 0
L 1666 0
L 1666 3169
L 613 3169
z
" transform="scale(0.015625)"/>
      <path id="Helvetica-25" d="M 4363 2175
Q 4813 2175 5131 1856
Q 5450 1538 5450 1088
Q 5450 638 5131 319
Q 4813 0 4363 0
Q 3909 0 3590 319
Q 3272 638 3272 1088
Q 3272 1538 3590 1856
Q 3909 2175 4363 2175
z
M 3909 4456
L 4256 4456
L 1753 -119
L 1406 -119
L 3909 4456
z
M 1294 2606
Q 1563 2606 1752 2795
Q 1941 2984 1941 3250
Q 1941 3516 1752 3705
Q 1563 3894 1294 3894
Q 1028 3894 839 3706
Q 650 3519 650 3250
Q 650 2984 839 2795
Q 1028 2606 1294 2606
z
M 1294 4341
Q 1747 4341 2065 4020
Q 2384 3700 2384 3250
Q 2384 2800 2065 2481
Q 1747 2163 1294 2163
Q 844 2163 525 2481
Q 206 2800 206 3250
Q 206 3700 525 4020
Q 844 4341 1294 4341
z
M 4363 444
Q 4628 444 4817 633
Q 5006 822 5006 1088
Q 5006 1353 4817 1542
Q 4628 1731 4363 1731
Q 4094 1731 3905 1542
Q 3716 1353 3716 1088
Q 3716 822 3905 633
Q 4094 444 4363 444
z
" transform="scale(0.015625)"/>
      <path id="Helvetica-69" d="M 413 3331
L 984 3331
L 984 0
L 413 0
L 413 3331
z
M 413 4591
L 984 4591
L 984 3953
L 413 3953
L 413 4591
z
" transform="scale(0.015625)"/>
      <path id="Helvetica-64" d="M 769 1634
Q 769 1097 997 734
Q 1225 372 1728 372
Q 2119 372 2370 708
Q 2622 1044 2622 1672
Q 2622 2306 2362 2611
Q 2103 2916 1722 2916
Q 1297 2916 1033 2591
Q 769 2266 769 1634
z
M 1616 3406
Q 2000 3406 2259 3244
Q 2409 3150 2600 2916
L 2600 4606
L 3141 4606
L 3141 0
L 2634 0
L 2634 466
Q 2438 156 2169 18
Q 1900 -119 1553 -119
Q 994 -119 584 351
Q 175 822 175 1603
Q 175 2334 548 2870
Q 922 3406 1616 3406
z
" transform="scale(0.015625)"/>
     </defs>
     <use xlink:href="#Helvetica-31"/>
     <use xlink:href="#Helvetica-38" transform="translate(55.615234 0)"/>
     <use xlink:href="#Helvetica-25" transform="translate(111.230469 0)"/>
     <use xlink:href="#Helvetica-20" transform="translate(200.146484 0)"/>
     <use xlink:href="#Helvetica-69" transform="translate(227.929688 0)"/>
     <use xlink:href="#Helvetica-64" transform="translate(250.146484 0)"/>
     <use xlink:href="#Helvetica-6c" transform="translate(305.761719 0)"/>
     <use xlink:href="#Helvetica-65" transform="translate(327.978516 0)"/>
    </g>
   </g>
   <g id="text_5">
    <!-- p16 m16 -->
    <g style="fill: #333333" transform="translate(5.52456 27.886575) scale(0.048 -0.048)">
     <defs>
      <path id="Helvetica-36" d="M 1872 4494
Q 2622 4494 2917 4105
Q 3213 3716 3213 3303
L 2656 3303
Q 2606 3569 2497 3719
Q 2294 4000 1881 4000
Q 1409 4000 1131 3564
Q 853 3128 822 2316
Q 1016 2600 1309 2741
Q 1578 2866 1909 2866
Q 2472 2866 2890 2506
Q 3309 2147 3309 1434
Q 3309 825 2912 354
Q 2516 -116 1781 -116
Q 1153 -116 697 361
Q 241 838 241 1966
Q 241 2800 444 3381
Q 834 4494 1872 4494
z
M 1831 384
Q 2275 384 2495 682
Q 2716 981 2716 1388
Q 2716 1731 2519 2042
Q 2322 2353 1803 2353
Q 1441 2353 1167 2112
Q 894 1872 894 1388
Q 894 963 1142 673
Q 1391 384 1831 384
z
" transform="scale(0.015625)"/>
     </defs>
     <use xlink:href="#Helvetica-70"/>
     <use xlink:href="#Helvetica-31" transform="translate(55.615234 0)"/>
     <use xlink:href="#Helvetica-36" transform="translate(111.230469 0)"/>
     <use xlink:href="#Helvetica-20" transform="translate(166.845703 0)"/>
     <use xlink:href="#Helvetica-6d" transform="translate(194.628906 0)"/>
     <use xlink:href="#Helvetica-31" transform="translate(277.929688 0)"/>
     <use xlink:href="#Helvetica-36" transform="translate(333.544922 0)"/>
    </g>
   </g>
   <g id="text_6">
    <!-- work -->
    <g style="fill: #ffffff" transform="translate(28.162605 27.835684) scale(0.046 -0.046)">
     <use xlink:href="#Helvetica-77"/>
     <use xlink:href="#Helvetica-6f" transform="translate(72.216797 0)"/>
     <use xlink:href="#Helvetica-72" transform="translate(127.832031 0)"/>
     <use xlink:href="#Helvetica-6b" transform="translate(161.132812 0)"/>
    </g>
   </g>
   <g id="text_7">
    <!-- 48% idle -->
    <g style="fill: #cb202d" transform="translate(58.96422 27.86113) scale(0.047 -0.047)">
     <defs>
      <path id="Helvetica-34" d="M 2116 1584
L 2116 3613
L 681 1584
L 2116 1584
z
M 2125 0
L 2125 1094
L 163 1094
L 163 1644
L 2213 4488
L 2688 4488
L 2688 1584
L 3347 1584
L 3347 1094
L 2688 1094
L 2688 0
L 2125 0
z
" transform="scale(0.015625)"/>
     </defs>
     <use xlink:href="#Helvetica-34"/>
     <use xlink:href="#Helvetica-38" transform="translate(55.615234 0)"/>
     <use xlink:href="#Helvetica-25" transform="translate(111.230469 0)"/>
     <use xlink:href="#Helvetica-20" transform="translate(200.146484 0)"/>
     <use xlink:href="#Helvetica-69" transform="translate(227.929688 0)"/>
     <use xlink:href="#Helvetica-64" transform="translate(250.146484 0)"/>
     <use xlink:href="#Helvetica-6c" transform="translate(305.761719 0)"/>
     <use xlink:href="#Helvetica-65" transform="translate(327.978516 0)"/>
    </g>
   </g>
  </g>
 </g>
 <defs>
  <clipPath id="pd2f9856da1">
   <rect x="1.44" y="1.44" width="68.076" height="38.808"/>
  </clipPath>
 </defs>
</svg>
