<?xml version="1.0" encoding="UTF-8" standalone="no"?>
<!-- Created with Inkscape (http://www.inkscape.org/) -->

<svg
   version="1.1"
   id="svg1"
   width="274.96933"
   height="168.46268"
   viewBox="0 0 274.96933 168.46268"
   xmlns="http://www.w3.org/2000/svg"
   xmlns:svg="http://www.w3.org/2000/svg">
  <defs
     id="defs1" />
  <g
     id="g1">
    <path
       id="path1"
       d="M 18.42567,-26.92937 V 12.75597 L 6.42091,0.75122 v -39.68535 z"
       style="fill:#4c92b5;fill-opacity:1;fill-rule:nonzero;stroke:#000000;stroke-width:0.69739;stroke-linecap:round;stroke-linejoin:round;stroke-miterlimit:10;stroke-dasharray:none;stroke-opacity:1"
       transform="matrix(0.75901333,0,0,-0.75901333,114.10931,57.280876)" />
    <path
       id="path2"
       d="M -38.93413,-38.93413 V 0.75122 H 6.42091 v -39.68535 h -45.35504"
       style="fill:#99c1d5;fill-opacity:1;fill-rule:nonzero;stroke:#000000;stroke-width:0.69739;stroke-linecap:round;stroke-linejoin:round;stroke-miterlimit:10;stroke-dasharray:none;stroke-opacity:1"
       transform="matrix(0.75901333,0,0,-0.75901333,114.10931,57.280876)" />
    <path
       id="path3"
       d="M -26.92937,12.75597 -38.93413,0.75122 H 6.42091 l 12.00476,12.00475 z"
       style="fill:#cce0ea;fill-opacity:1;fill-rule:nonzero;stroke:#000000;stroke-width:0.69739;stroke-linecap:round;stroke-linejoin:round;stroke-miterlimit:10;stroke-dasharray:none;stroke-opacity:1"
       transform="matrix(0.75901333,0,0,-0.75901333,114.10931,57.280876)" />
    <path
       id="path4"
       d="m -8.5037,-53.85875 v 39.68536 l -12.00475,-12.00476 v -39.68536 z"
       style="fill:#4c92b5;fill-opacity:1;fill-rule:nonzero;stroke:#000000;stroke-width:0.69739;stroke-linecap:round;stroke-linejoin:round;stroke-miterlimit:10;stroke-dasharray:none;stroke-opacity:1"
       transform="matrix(0.75901333,0,0,-0.75901333,114.10931,57.280876)" />
    <path
       id="path5"
       d="m -65.86351,-65.86351 v 39.68536 h 45.35506 v -39.68536 h -45.35506"
       style="fill:#99c1d5;fill-opacity:1;fill-rule:nonzero;stroke:#000000;stroke-width:0.69739;stroke-linecap:round;stroke-linejoin:round;stroke-miterlimit:10;stroke-dasharray:none;stroke-opacity:1"
       transform="matrix(0.75901333,0,0,-0.75901333,114.10931,57.280876)" />
    <path
       id="path6"
       d="m -53.85875,-14.17339 -12.00476,-12.00476 h 45.35506 l 12.00475,12.00476 z"
       style="fill:#cce0ea;fill-opacity:1;fill-rule:nonzero;stroke:#000000;stroke-width:0.69739;stroke-linecap:round;stroke-linejoin:round;stroke-miterlimit:10;stroke-dasharray:none;stroke-opacity:1"
       transform="matrix(0.75901333,0,0,-0.75901333,114.10931,57.280876)" />
    <path
       id="path7"
       d="m -35.43309,-80.78815 v 39.68537 L -47.43784,-53.10754 V -92.7929 Z"
       style="fill:#4c92b5;fill-opacity:1;fill-rule:nonzero;stroke:#000000;stroke-width:0.69739;stroke-linecap:round;stroke-linejoin:round;stroke-miterlimit:10;stroke-dasharray:none;stroke-opacity:1"
       transform="matrix(0.75901333,0,0,-0.75901333,114.10931,57.280876)" />
    <path
       id="path8"
       d="m -92.7929,-92.7929 v 39.68536 h 45.35506 V -92.7929 H -92.7929"
       style="fill:#99c1d5;fill-opacity:1;fill-rule:nonzero;stroke:#000000;stroke-width:0.69739;stroke-linecap:round;stroke-linejoin:round;stroke-miterlimit:10;stroke-dasharray:none;stroke-opacity:1"
       transform="matrix(0.75901333,0,0,-0.75901333,114.10931,57.280876)" />
    <path
       id="path9"
       d="M -80.78815,-41.10278 -92.7929,-53.10754 h 45.35506 l 12.00475,12.00476 z"
       style="fill:#cce0ea;fill-opacity:1;fill-rule:nonzero;stroke:#000000;stroke-width:0.69739;stroke-linecap:round;stroke-linejoin:round;stroke-miterlimit:10;stroke-dasharray:none;stroke-opacity:1"
       transform="matrix(0.75901333,0,0,-0.75901333,114.10931,57.280876)" />
    <path
       id="path10"
       d="m -62.36246,-107.71751 v 39.68534 l -12.00476,-12.00476 v -39.68534 z"
       style="fill:#4c92b5;fill-opacity:1;fill-rule:nonzero;stroke:#000000;stroke-width:0.69739;stroke-linecap:round;stroke-linejoin:round;stroke-miterlimit:10;stroke-dasharray:none;stroke-opacity:1"
       transform="matrix(0.75901333,0,0,-0.75901333,114.10931,57.280876)" />
    <path
       id="path11"
       d="m -119.72227,-119.72227 v 39.68534 h 45.35505 v -39.68534 h -45.35505"
       style="fill:#99c1d5;fill-opacity:1;fill-rule:nonzero;stroke:#000000;stroke-width:0.69739;stroke-linecap:round;stroke-linejoin:round;stroke-miterlimit:10;stroke-dasharray:none;stroke-opacity:1"
       transform="matrix(0.75901333,0,0,-0.75901333,114.10931,57.280876)" />
    <path
       id="path12"
       d="m -107.71751,-68.03217 -12.00476,-12.00476 h 45.35505 l 12.00476,12.00476 z"
       style="fill:#cce0ea;fill-opacity:1;fill-rule:nonzero;stroke:#000000;stroke-width:0.69739;stroke-linecap:round;stroke-linejoin:round;stroke-miterlimit:10;stroke-dasharray:none;stroke-opacity:1"
       transform="matrix(0.75901333,0,0,-0.75901333,114.10931,57.280876)" />
    <path
       id="path13"
       d="M 80.78856,-26.92937 V 12.75597 L 68.78381,0.75122 v -39.68535 z"
       style="fill:#e48784;fill-opacity:1;fill-rule:nonzero;stroke:#000000;stroke-width:0.69739;stroke-linecap:round;stroke-linejoin:round;stroke-miterlimit:10;stroke-dasharray:none;stroke-opacity:1"
       transform="matrix(0.75901333,0,0,-0.75901333,114.10931,57.280876)" />
    <path
       id="path14"
       d="M 23.42876,-38.93413 V 0.75122 H 68.78381 V -38.93413 H 23.42876"
       style="fill:#f0bab9;fill-opacity:1;fill-rule:nonzero;stroke:#000000;stroke-width:0.69739;stroke-linecap:round;stroke-linejoin:round;stroke-miterlimit:10;stroke-dasharray:none;stroke-opacity:1"
       transform="matrix(0.75901333,0,0,-0.75901333,114.10931,57.280876)" />
    <path
       id="path15"
       d="M 35.4335,12.75597 23.42876,0.75122 h 45.35505 l 12.00475,12.00475 z"
       style="fill:#f7dddc;fill-opacity:1;fill-rule:nonzero;stroke:#000000;stroke-width:0.69739;stroke-linecap:round;stroke-linejoin:round;stroke-miterlimit:10;stroke-dasharray:none;stroke-opacity:1"
       transform="matrix(0.75901333,0,0,-0.75901333,114.10931,57.280876)" />
    <path
       id="path16"
       d="m 53.85919,-53.85875 v 39.68536 L 41.85443,-26.17815 v -39.68536 z"
       style="fill:#e48784;fill-opacity:1;fill-rule:nonzero;stroke:#000000;stroke-width:0.69739;stroke-linecap:round;stroke-linejoin:round;stroke-miterlimit:10;stroke-dasharray:none;stroke-opacity:1"
       transform="matrix(0.75901333,0,0,-0.75901333,114.10931,57.280876)" />
    <path
       id="path17"
       d="m -3.50061,-65.86351 v 39.68536 H 41.85443 V -65.86351 H -3.50061"
       style="fill:#f0bab9;fill-opacity:1;fill-rule:nonzero;stroke:#000000;stroke-width:0.69739;stroke-linecap:round;stroke-linejoin:round;stroke-miterlimit:10;stroke-dasharray:none;stroke-opacity:1"
       transform="matrix(0.75901333,0,0,-0.75901333,114.10931,57.280876)" />
    <path
       id="path18"
       d="M 8.50414,-14.17339 -3.50061,-26.17815 h 45.35504 l 12.00476,12.00476 z"
       style="fill:#f7dddc;fill-opacity:1;fill-rule:nonzero;stroke:#000000;stroke-width:0.69739;stroke-linecap:round;stroke-linejoin:round;stroke-miterlimit:10;stroke-dasharray:none;stroke-opacity:1"
       transform="matrix(0.75901333,0,0,-0.75901333,114.10931,57.280876)" />
    <path
       id="path19"
       d="m 26.9298,-80.78815 v 39.68537 L 14.92503,-53.10754 V -92.7929 Z"
       style="fill:#e48784;fill-opacity:1;fill-rule:nonzero;stroke:#000000;stroke-width:0.69739;stroke-linecap:round;stroke-linejoin:round;stroke-miterlimit:10;stroke-dasharray:none;stroke-opacity:1"
       transform="matrix(0.75901333,0,0,-0.75901333,114.10931,57.280876)" />
    <path
       id="path20"
       d="m -30.43001,-92.7929 v 39.68536 H 14.92503 V -92.7929 h -45.35504"
       style="fill:#f0bab9;fill-opacity:1;fill-rule:nonzero;stroke:#000000;stroke-width:0.69739;stroke-linecap:round;stroke-linejoin:round;stroke-miterlimit:10;stroke-dasharray:none;stroke-opacity:1"
       transform="matrix(0.75901333,0,0,-0.75901333,114.10931,57.280876)" />
    <path
       id="path21"
       d="M -18.42525,-41.10278 -30.43001,-53.10754 H 14.92503 L 26.9298,-41.10278 Z"
       style="fill:#f7dddc;fill-opacity:1;fill-rule:nonzero;stroke:#000000;stroke-width:0.69739;stroke-linecap:round;stroke-linejoin:round;stroke-miterlimit:10;stroke-dasharray:none;stroke-opacity:1"
       transform="matrix(0.75901333,0,0,-0.75901333,114.10931,57.280876)" />
    <path
       id="path22"
       d="m 4.1e-4,-107.71751 v 39.68534 l -12.00473,-12.00476 v -39.68534 z"
       style="fill:#e48784;fill-opacity:1;fill-rule:nonzero;stroke:#000000;stroke-width:0.69739;stroke-linecap:round;stroke-linejoin:round;stroke-miterlimit:10;stroke-dasharray:none;stroke-opacity:1"
       transform="matrix(0.75901333,0,0,-0.75901333,114.10931,57.280876)" />
    <path
       id="path23"
       d="m -57.35939,-119.72227 v 39.68534 h 45.35507 v -39.68534 h -45.35507"
       style="fill:#f0bab9;fill-opacity:1;fill-rule:nonzero;stroke:#000000;stroke-width:0.69739;stroke-linecap:round;stroke-linejoin:round;stroke-miterlimit:10;stroke-dasharray:none;stroke-opacity:1"
       transform="matrix(0.75901333,0,0,-0.75901333,114.10931,57.280876)" />
    <path
       id="path24"
       d="m -45.35463,-68.03217 -12.00476,-12.00476 h 45.35507 L 4.1e-4,-68.03217 Z"
       style="fill:#f7dddc;fill-opacity:1;fill-rule:nonzero;stroke:#000000;stroke-width:0.69739;stroke-linecap:round;stroke-linejoin:round;stroke-miterlimit:10;stroke-dasharray:none;stroke-opacity:1"
       transform="matrix(0.75901333,0,0,-0.75901333,114.10931,57.280876)" />
    <path
       id="path25"
       d="M 143.15146,-26.92937 V 12.75597 L 131.1467,0.75122 v -39.68535 z"
       style="fill:#4cb17d;fill-opacity:1;fill-rule:nonzero;stroke:#000000;stroke-width:0.69739;stroke-linecap:round;stroke-linejoin:round;stroke-miterlimit:10;stroke-dasharray:none;stroke-opacity:1"
       transform="matrix(0.75901333,0,0,-0.75901333,114.10931,57.280876)" />
    <path
       id="path26"
       d="M 85.79164,-38.93413 V 0.75122 H 131.1467 V -38.93413 H 85.79164"
       style="fill:#99d2b5;fill-opacity:1;fill-rule:nonzero;stroke:#000000;stroke-width:0.69739;stroke-linecap:round;stroke-linejoin:round;stroke-miterlimit:10;stroke-dasharray:none;stroke-opacity:1"
       transform="matrix(0.75901333,0,0,-0.75901333,114.10931,57.280876)" />
    <path
       id="path27"
       d="M 97.7964,12.75597 85.79164,0.75122 h 45.35506 l 12.00476,12.00475 z"
       style="fill:#cce9da;fill-opacity:1;fill-rule:nonzero;stroke:#000000;stroke-width:0.69739;stroke-linecap:round;stroke-linejoin:round;stroke-miterlimit:10;stroke-dasharray:none;stroke-opacity:1"
       transform="matrix(0.75901333,0,0,-0.75901333,114.10931,57.280876)" />
    <path
       id="path28"
       d="m 116.22208,-53.85875 v 39.68536 l -12.00476,-12.00476 v -39.68536 z"
       style="fill:#4cb17d;fill-opacity:1;fill-rule:nonzero;stroke:#000000;stroke-width:0.69739;stroke-linecap:round;stroke-linejoin:round;stroke-miterlimit:10;stroke-dasharray:none;stroke-opacity:1"
       transform="matrix(0.75901333,0,0,-0.75901333,114.10931,57.280876)" />
    <path
       id="path29"
       d="m 58.86226,-65.86351 v 39.68536 h 45.35506 V -65.86351 H 58.86226"
       style="fill:#99d2b5;fill-opacity:1;fill-rule:nonzero;stroke:#000000;stroke-width:0.69739;stroke-linecap:round;stroke-linejoin:round;stroke-miterlimit:10;stroke-dasharray:none;stroke-opacity:1"
       transform="matrix(0.75901333,0,0,-0.75901333,114.10931,57.280876)" />
    <path
       id="path30"
       d="M 70.86702,-14.17339 58.86226,-26.17815 h 45.35506 l 12.00476,12.00476 z"
       style="fill:#cce9da;fill-opacity:1;fill-rule:nonzero;stroke:#000000;stroke-width:0.69739;stroke-linecap:round;stroke-linejoin:round;stroke-miterlimit:10;stroke-dasharray:none;stroke-opacity:1"
       transform="matrix(0.75901333,0,0,-0.75901333,114.10931,57.280876)" />
    <path
       id="path31"
       d="m 89.2927,-80.78815 v 39.68537 L 77.28793,-53.10754 V -92.7929 Z"
       style="fill:#4cb17d;fill-opacity:1;fill-rule:nonzero;stroke:#000000;stroke-width:0.69739;stroke-linecap:round;stroke-linejoin:round;stroke-miterlimit:10;stroke-dasharray:none;stroke-opacity:1"
       transform="matrix(0.75901333,0,0,-0.75901333,114.10931,57.280876)" />
    <path
       id="path32"
       d="m 31.93288,-92.7929 v 39.68536 H 77.28793 V -92.7929 H 31.93288"
       style="fill:#99d2b5;fill-opacity:1;fill-rule:nonzero;stroke:#000000;stroke-width:0.69739;stroke-linecap:round;stroke-linejoin:round;stroke-miterlimit:10;stroke-dasharray:none;stroke-opacity:1"
       transform="matrix(0.75901333,0,0,-0.75901333,114.10931,57.280876)" />
    <path
       id="path33"
       d="M 43.93764,-41.10278 31.93288,-53.10754 h 45.35505 l 12.00477,12.00476 z"
       style="fill:#cce9da;fill-opacity:1;fill-rule:nonzero;stroke:#000000;stroke-width:0.69739;stroke-linecap:round;stroke-linejoin:round;stroke-miterlimit:10;stroke-dasharray:none;stroke-opacity:1"
       transform="matrix(0.75901333,0,0,-0.75901333,114.10931,57.280876)" />
    <path
       id="path34"
       d="m 62.36331,-107.71751 v 39.68534 L 50.35855,-80.03693 v -39.68534 z"
       style="fill:#4cb17d;fill-opacity:1;fill-rule:nonzero;stroke:#000000;stroke-width:0.69739;stroke-linecap:round;stroke-linejoin:round;stroke-miterlimit:10;stroke-dasharray:none;stroke-opacity:1"
       transform="matrix(0.75901333,0,0,-0.75901333,114.10931,57.280876)" />
    <path
       id="path35"
       d="m 5.0035,-119.72227 v 39.68534 h 45.35505 v -39.68534 H 5.0035"
       style="fill:#99d2b5;fill-opacity:1;fill-rule:nonzero;stroke:#000000;stroke-width:0.69739;stroke-linecap:round;stroke-linejoin:round;stroke-miterlimit:10;stroke-dasharray:none;stroke-opacity:1"
       transform="matrix(0.75901333,0,0,-0.75901333,114.10931,57.280876)" />
    <path
       id="path36"
       d="M 17.00826,-68.03217 5.0035,-80.03693 h 45.35505 l 12.00476,12.00476 z"
       style="fill:#cce9da;fill-opacity:1;fill-rule:nonzero;stroke:#000000;stroke-width:0.69739;stroke-linecap:round;stroke-linejoin:round;stroke-miterlimit:10;stroke-dasharray:none;stroke-opacity:1"
       transform="matrix(0.75901333,0,0,-0.75901333,114.10931,57.280876)" />
    <path
       id="path37"
       d="M 205.51436,-26.92937 V 12.75597 L 193.5096,0.75122 v -39.68535 z"
       style="fill:#eea15d;fill-opacity:1;fill-rule:nonzero;stroke:#000000;stroke-width:0.69739;stroke-linecap:round;stroke-linejoin:round;stroke-miterlimit:10;stroke-dasharray:none;stroke-opacity:1"
       transform="matrix(0.75901333,0,0,-0.75901333,114.10931,57.280876)" />
    <path
       id="path38"
       d="M 148.15454,-38.93413 V 0.75122 h 45.35506 v -39.68535 h -45.35506"
       style="fill:#f5c9a2;fill-opacity:1;fill-rule:nonzero;stroke:#000000;stroke-width:0.69739;stroke-linecap:round;stroke-linejoin:round;stroke-miterlimit:10;stroke-dasharray:none;stroke-opacity:1"
       transform="matrix(0.75901333,0,0,-0.75901333,114.10931,57.280876)" />
    <path
       id="path39"
       d="M 160.1593,12.75597 148.15454,0.75122 h 45.35506 l 12.00476,12.00475 z"
       style="fill:#fae4d1;fill-opacity:1;fill-rule:nonzero;stroke:#000000;stroke-width:0.69739;stroke-linecap:round;stroke-linejoin:round;stroke-miterlimit:10;stroke-dasharray:none;stroke-opacity:1"
       transform="matrix(0.75901333,0,0,-0.75901333,114.10931,57.280876)" />
    <path
       id="path40"
       d="m 178.58498,-53.85875 v 39.68536 l -12.00476,-12.00476 v -39.68536 z"
       style="fill:#eea15d;fill-opacity:1;fill-rule:nonzero;stroke:#000000;stroke-width:0.69739;stroke-linecap:round;stroke-linejoin:round;stroke-miterlimit:10;stroke-dasharray:none;stroke-opacity:1"
       transform="matrix(0.75901333,0,0,-0.75901333,114.10931,57.280876)" />
    <path
       id="path41"
       d="m 121.22516,-65.86351 v 39.68536 h 45.35506 v -39.68536 h -45.35506"
       style="fill:#f5c9a2;fill-opacity:1;fill-rule:nonzero;stroke:#000000;stroke-width:0.69739;stroke-linecap:round;stroke-linejoin:round;stroke-miterlimit:10;stroke-dasharray:none;stroke-opacity:1"
       transform="matrix(0.75901333,0,0,-0.75901333,114.10931,57.280876)" />
    <path
       id="path42"
       d="m 133.22992,-14.17339 -12.00476,-12.00476 h 45.35506 l 12.00476,12.00476 z"
       style="fill:#fae4d1;fill-opacity:1;fill-rule:nonzero;stroke:#000000;stroke-width:0.69739;stroke-linecap:round;stroke-linejoin:round;stroke-miterlimit:10;stroke-dasharray:none;stroke-opacity:1"
       transform="matrix(0.75901333,0,0,-0.75901333,114.10931,57.280876)" />
    <path
       id="path43"
       d="m 151.65558,-80.78815 v 39.68537 L 139.65082,-53.10754 V -92.7929 Z"
       style="fill:#eea15d;fill-opacity:1;fill-rule:nonzero;stroke:#000000;stroke-width:0.69739;stroke-linecap:round;stroke-linejoin:round;stroke-miterlimit:10;stroke-dasharray:none;stroke-opacity:1"
       transform="matrix(0.75901333,0,0,-0.75901333,114.10931,57.280876)" />
    <path
       id="path44"
       d="m 94.29576,-92.7929 v 39.68536 h 45.35506 V -92.7929 H 94.29576"
       style="fill:#f5c9a2;fill-opacity:1;fill-rule:nonzero;stroke:#000000;stroke-width:0.69739;stroke-linecap:round;stroke-linejoin:round;stroke-miterlimit:10;stroke-dasharray:none;stroke-opacity:1"
       transform="matrix(0.75901333,0,0,-0.75901333,114.10931,57.280876)" />
    <path
       id="path45"
       d="M 106.30052,-41.10278 94.29576,-53.10754 h 45.35506 l 12.00476,12.00476 z"
       style="fill:#fae4d1;fill-opacity:1;fill-rule:nonzero;stroke:#000000;stroke-width:0.69739;stroke-linecap:round;stroke-linejoin:round;stroke-miterlimit:10;stroke-dasharray:none;stroke-opacity:1"
       transform="matrix(0.75901333,0,0,-0.75901333,114.10931,57.280876)" />
    <path
       id="path46"
       d="m 124.72621,-107.71751 v 39.68534 l -12.00476,-12.00476 v -39.68534 z"
       style="fill:#eea15d;fill-opacity:1;fill-rule:nonzero;stroke:#000000;stroke-width:0.69739;stroke-linecap:round;stroke-linejoin:round;stroke-miterlimit:10;stroke-dasharray:none;stroke-opacity:1"
       transform="matrix(0.75901333,0,0,-0.75901333,114.10931,57.280876)" />
    <path
       id="path47"
       d="m 67.3664,-119.72227 v 39.68534 h 45.35505 v -39.68534 H 67.3664"
       style="fill:#f5c9a2;fill-opacity:1;fill-rule:nonzero;stroke:#000000;stroke-width:0.69739;stroke-linecap:round;stroke-linejoin:round;stroke-miterlimit:10;stroke-dasharray:none;stroke-opacity:1"
       transform="matrix(0.75901333,0,0,-0.75901333,114.10931,57.280876)" />
    <path
       id="path48"
       d="M 79.37115,-68.03217 67.3664,-80.03693 h 45.35505 l 12.00476,12.00476 z"
       style="fill:#fae4d1;fill-opacity:1;fill-rule:nonzero;stroke:#000000;stroke-width:0.69739;stroke-linecap:round;stroke-linejoin:round;stroke-miterlimit:10;stroke-dasharray:none;stroke-opacity:1"
       transform="matrix(0.75901333,0,0,-0.75901333,114.10931,57.280876)" />
    <path
       id="path49"
       d="M 18.42567,35.4335 V 75.11887 L 6.42091,63.1141 V 23.42876 Z"
       style="fill:#c6c153;fill-opacity:1;fill-rule:nonzero;stroke:#000000;stroke-width:0.69739;stroke-linecap:round;stroke-linejoin:round;stroke-miterlimit:10;stroke-dasharray:none;stroke-opacity:1"
       transform="matrix(0.75901333,0,0,-0.75901333,114.10931,57.280876)" />
    <path
       id="path50"
       d="M -38.93413,23.42876 V 63.1141 H 6.42091 V 23.42876 h -45.35504"
       style="fill:#dedb9d;fill-opacity:1;fill-rule:nonzero;stroke:#000000;stroke-width:0.69739;stroke-linecap:round;stroke-linejoin:round;stroke-miterlimit:10;stroke-dasharray:none;stroke-opacity:1"
       transform="matrix(0.75901333,0,0,-0.75901333,114.10931,57.280876)" />
    <path
       id="path51"
       d="M -26.92937,75.11887 -38.93413,63.1141 H 6.42091 l 12.00476,12.00477 z"
       style="fill:#efedce;fill-opacity:1;fill-rule:nonzero;stroke:#000000;stroke-width:0.69739;stroke-linecap:round;stroke-linejoin:round;stroke-miterlimit:10;stroke-dasharray:none;stroke-opacity:1"
       transform="matrix(0.75901333,0,0,-0.75901333,114.10931,57.280876)" />
    <path
       id="path52"
       d="M -8.5037,8.50414 V 48.18948 L -20.50845,36.18472 V -3.50061 Z"
       style="fill:#c6c153;fill-opacity:1;fill-rule:nonzero;stroke:#000000;stroke-width:0.69739;stroke-linecap:round;stroke-linejoin:round;stroke-miterlimit:10;stroke-dasharray:none;stroke-opacity:1"
       transform="matrix(0.75901333,0,0,-0.75901333,114.10931,57.280876)" />
    <path
       id="path53"
       d="m -65.86351,-3.50061 v 39.68533 h 45.35506 V -3.50061 h -45.35506"
       style="fill:#dedb9d;fill-opacity:1;fill-rule:nonzero;stroke:#000000;stroke-width:0.69739;stroke-linecap:round;stroke-linejoin:round;stroke-miterlimit:10;stroke-dasharray:none;stroke-opacity:1"
       transform="matrix(0.75901333,0,0,-0.75901333,114.10931,57.280876)" />
    <path
       id="path54"
       d="M -53.85875,48.18948 -65.86351,36.18472 h 45.35506 L -8.5037,48.18948 Z"
       style="fill:#efedce;fill-opacity:1;fill-rule:nonzero;stroke:#000000;stroke-width:0.69739;stroke-linecap:round;stroke-linejoin:round;stroke-miterlimit:10;stroke-dasharray:none;stroke-opacity:1"
       transform="matrix(0.75901333,0,0,-0.75901333,114.10931,57.280876)" />
    <path
       id="path55"
       d="M -35.43309,-18.42525 V 21.2601 L -47.43784,9.25534 v -39.68535 z"
       style="fill:#c6c153;fill-opacity:1;fill-rule:nonzero;stroke:#000000;stroke-width:0.69739;stroke-linecap:round;stroke-linejoin:round;stroke-miterlimit:10;stroke-dasharray:none;stroke-opacity:1"
       transform="matrix(0.75901333,0,0,-0.75901333,114.10931,57.280876)" />
    <path
       id="path56"
       d="M -92.7929,-30.43001 V 9.25534 h 45.35506 V -30.43001 H -92.7929"
       style="fill:#dedb9d;fill-opacity:1;fill-rule:nonzero;stroke:#000000;stroke-width:0.69739;stroke-linecap:round;stroke-linejoin:round;stroke-miterlimit:10;stroke-dasharray:none;stroke-opacity:1"
       transform="matrix(0.75901333,0,0,-0.75901333,114.10931,57.280876)" />
    <path
       id="path57"
       d="M -80.78815,21.2601 -92.7929,9.25534 h 45.35506 l 12.00475,12.00476 z"
       style="fill:#efedce;fill-opacity:1;fill-rule:nonzero;stroke:#000000;stroke-width:0.69739;stroke-linecap:round;stroke-linejoin:round;stroke-miterlimit:10;stroke-dasharray:none;stroke-opacity:1"
       transform="matrix(0.75901333,0,0,-0.75901333,114.10931,57.280876)" />
    <path
       id="path58"
       d="M -62.36246,-45.35463 V -5.66927 L -74.36722,-17.67403 V -57.35939 Z"
       style="fill:#c6c153;fill-opacity:1;fill-rule:nonzero;stroke:#000000;stroke-width:0.69739;stroke-linecap:round;stroke-linejoin:round;stroke-miterlimit:10;stroke-dasharray:none;stroke-opacity:1"
       transform="matrix(0.75901333,0,0,-0.75901333,114.10931,57.280876)" />
    <path
       id="path59"
       d="m -119.72227,-57.35939 v 39.68536 h 45.35505 v -39.68536 h -45.35505"
       style="fill:#dedb9d;fill-opacity:1;fill-rule:nonzero;stroke:#000000;stroke-width:0.69739;stroke-linecap:round;stroke-linejoin:round;stroke-miterlimit:10;stroke-dasharray:none;stroke-opacity:1"
       transform="matrix(0.75901333,0,0,-0.75901333,114.10931,57.280876)" />
    <path
       id="path60"
       d="m -107.71751,-5.66927 -12.00476,-12.00476 h 45.35505 l 12.00476,12.00476 z"
       style="fill:#efedce;fill-opacity:1;fill-rule:nonzero;stroke:#000000;stroke-width:0.69739;stroke-linecap:round;stroke-linejoin:round;stroke-miterlimit:10;stroke-dasharray:none;stroke-opacity:1"
       transform="matrix(0.75901333,0,0,-0.75901333,114.10931,57.280876)" />
    <path
       id="path61"
       d="M 80.78856,35.4335 V 75.11887 L 68.78381,63.1141 V 23.42876 Z"
       style="fill:#ffd2d2;fill-opacity:1;fill-rule:nonzero;stroke:#000000;stroke-width:0.69739;stroke-linecap:round;stroke-linejoin:round;stroke-miterlimit:10;stroke-dasharray:none;stroke-opacity:1"
       transform="matrix(0.75901333,0,0,-0.75901333,114.10931,57.280876)" />
    <path
       id="path62"
       d="M 23.42876,23.42876 V 63.1141 H 68.78381 V 23.42876 H 23.42876"
       style="fill:#ffe6e6;fill-opacity:1;fill-rule:nonzero;stroke:#000000;stroke-width:0.69739;stroke-linecap:round;stroke-linejoin:round;stroke-miterlimit:10;stroke-dasharray:none;stroke-opacity:1"
       transform="matrix(0.75901333,0,0,-0.75901333,114.10931,57.280876)" />
    <path
       id="path63"
       d="M 35.4335,75.11887 23.42876,63.1141 h 45.35505 l 12.00475,12.00477 z"
       style="fill:#fff2f2;fill-opacity:1;fill-rule:nonzero;stroke:#000000;stroke-width:0.69739;stroke-linecap:round;stroke-linejoin:round;stroke-miterlimit:10;stroke-dasharray:none;stroke-opacity:1"
       transform="matrix(0.75901333,0,0,-0.75901333,114.10931,57.280876)" />
    <path
       id="path64"
       d="M 53.85919,8.50414 V 48.18948 L 41.85443,36.18472 V -3.50061 Z"
       style="fill:#ffd2d2;fill-opacity:1;fill-rule:nonzero;stroke:#000000;stroke-width:0.69739;stroke-linecap:round;stroke-linejoin:round;stroke-miterlimit:10;stroke-dasharray:none;stroke-opacity:1"
       transform="matrix(0.75901333,0,0,-0.75901333,114.10931,57.280876)" />
    <path
       id="path65"
       d="M -3.50061,-3.50061 V 36.18472 H 41.85443 V -3.50061 H -3.50061"
       style="fill:#ffe6e6;fill-opacity:1;fill-rule:nonzero;stroke:#000000;stroke-width:0.69739;stroke-linecap:round;stroke-linejoin:round;stroke-miterlimit:10;stroke-dasharray:none;stroke-opacity:1"
       transform="matrix(0.75901333,0,0,-0.75901333,114.10931,57.280876)" />
    <path
       id="path66"
       d="M 8.50414,48.18948 -3.50061,36.18472 h 45.35504 l 12.00476,12.00476 z"
       style="fill:#fff2f2;fill-opacity:1;fill-rule:nonzero;stroke:#000000;stroke-width:0.69739;stroke-linecap:round;stroke-linejoin:round;stroke-miterlimit:10;stroke-dasharray:none;stroke-opacity:1"
       transform="matrix(0.75901333,0,0,-0.75901333,114.10931,57.280876)" />
    <path
       id="path67"
       d="M 26.9298,-18.42525 V 21.2601 L 14.92503,9.25534 v -39.68535 z"
       style="fill:#ffd2d2;fill-opacity:1;fill-rule:nonzero;stroke:#000000;stroke-width:0.69739;stroke-linecap:round;stroke-linejoin:round;stroke-miterlimit:10;stroke-dasharray:none;stroke-opacity:1"
       transform="matrix(0.75901333,0,0,-0.75901333,114.10931,57.280876)" />
    <path
       id="path68"
       d="M -30.43001,-30.43001 V 9.25534 h 45.35504 v -39.68535 h -45.35504"
       style="fill:#ffe6e6;fill-opacity:1;fill-rule:nonzero;stroke:#000000;stroke-width:0.69739;stroke-linecap:round;stroke-linejoin:round;stroke-miterlimit:10;stroke-dasharray:none;stroke-opacity:1"
       transform="matrix(0.75901333,0,0,-0.75901333,114.10931,57.280876)" />
    <path
       id="path69"
       d="M -18.42525,21.2601 -30.43001,9.25534 H 14.92503 L 26.9298,21.2601 Z"
       style="fill:#fff2f2;fill-opacity:1;fill-rule:nonzero;stroke:#000000;stroke-width:0.69739;stroke-linecap:round;stroke-linejoin:round;stroke-miterlimit:10;stroke-dasharray:none;stroke-opacity:1"
       transform="matrix(0.75901333,0,0,-0.75901333,114.10931,57.280876)" />
    <path
       id="path70"
       d="M 4.1e-4,-45.35463 V -5.66927 L -12.00432,-17.67403 V -57.35939 Z"
       style="fill:#ffd2d2;fill-opacity:1;fill-rule:nonzero;stroke:#000000;stroke-width:0.69739;stroke-linecap:round;stroke-linejoin:round;stroke-miterlimit:10;stroke-dasharray:none;stroke-opacity:1"
       transform="matrix(0.75901333,0,0,-0.75901333,114.10931,57.280876)" />
    <path
       id="path71"
       d="m -57.35939,-57.35939 v 39.68536 h 45.35507 v -39.68536 h -45.35507"
       style="fill:#ffe6e6;fill-opacity:1;fill-rule:nonzero;stroke:#000000;stroke-width:0.69739;stroke-linecap:round;stroke-linejoin:round;stroke-miterlimit:10;stroke-dasharray:none;stroke-opacity:1"
       transform="matrix(0.75901333,0,0,-0.75901333,114.10931,57.280876)" />
    <path
       id="path72"
       d="m -45.35463,-5.66927 -12.00476,-12.00476 h 45.35507 L 4.1e-4,-5.66927 Z"
       style="fill:#fff2f2;fill-opacity:1;fill-rule:nonzero;stroke:#000000;stroke-width:0.69739;stroke-linecap:round;stroke-linejoin:round;stroke-miterlimit:10;stroke-dasharray:none;stroke-opacity:1"
       transform="matrix(0.75901333,0,0,-0.75901333,114.10931,57.280876)" />
    <path
       id="path73"
       d="M 143.15146,35.4335 V 75.11887 L 131.1467,63.1141 V 23.42876 Z"
       style="fill:#82ff82;fill-opacity:1;fill-rule:nonzero;stroke:#000000;stroke-width:0.69739;stroke-linecap:round;stroke-linejoin:round;stroke-miterlimit:10;stroke-dasharray:none;stroke-opacity:1"
       transform="matrix(0.75901333,0,0,-0.75901333,114.10931,57.280876)" />
    <path
       id="path74"
       d="M 85.79164,23.42876 V 63.1141 H 131.1467 V 23.42876 H 85.79164"
       style="fill:#b8ffb8;fill-opacity:1;fill-rule:nonzero;stroke:#000000;stroke-width:0.69739;stroke-linecap:round;stroke-linejoin:round;stroke-miterlimit:10;stroke-dasharray:none;stroke-opacity:1"
       transform="matrix(0.75901333,0,0,-0.75901333,114.10931,57.280876)" />
    <path
       id="path75"
       d="M 97.7964,75.11887 85.79164,63.1141 h 45.35506 l 12.00476,12.00477 z"
       style="fill:#dbffdb;fill-opacity:1;fill-rule:nonzero;stroke:#000000;stroke-width:0.69739;stroke-linecap:round;stroke-linejoin:round;stroke-miterlimit:10;stroke-dasharray:none;stroke-opacity:1"
       transform="matrix(0.75901333,0,0,-0.75901333,114.10931,57.280876)" />
    <path
       id="path76"
       d="M 116.22208,8.50414 V 48.18948 L 104.21732,36.18472 V -3.50061 Z"
       style="fill:#82ff82;fill-opacity:1;fill-rule:nonzero;stroke:#000000;stroke-width:0.69739;stroke-linecap:round;stroke-linejoin:round;stroke-miterlimit:10;stroke-dasharray:none;stroke-opacity:1"
       transform="matrix(0.75901333,0,0,-0.75901333,114.10931,57.280876)" />
    <path
       id="path77"
       d="m 58.86226,-3.50061 v 39.68533 h 45.35506 V -3.50061 H 58.86226"
       style="fill:#b8ffb8;fill-opacity:1;fill-rule:nonzero;stroke:#000000;stroke-width:0.69739;stroke-linecap:round;stroke-linejoin:round;stroke-miterlimit:10;stroke-dasharray:none;stroke-opacity:1"
       transform="matrix(0.75901333,0,0,-0.75901333,114.10931,57.280876)" />
    <path
       id="path78"
       d="M 70.86702,48.18948 58.86226,36.18472 h 45.35506 l 12.00476,12.00476 z"
       style="fill:#dbffdb;fill-opacity:1;fill-rule:nonzero;stroke:#000000;stroke-width:0.69739;stroke-linecap:round;stroke-linejoin:round;stroke-miterlimit:10;stroke-dasharray:none;stroke-opacity:1"
       transform="matrix(0.75901333,0,0,-0.75901333,114.10931,57.280876)" />
    <path
       id="path79"
       d="M 89.2927,-18.42525 V 21.2601 L 77.28793,9.25534 v -39.68535 z"
       style="fill:#82ff82;fill-opacity:1;fill-rule:nonzero;stroke:#000000;stroke-width:0.69739;stroke-linecap:round;stroke-linejoin:round;stroke-miterlimit:10;stroke-dasharray:none;stroke-opacity:1"
       transform="matrix(0.75901333,0,0,-0.75901333,114.10931,57.280876)" />
    <path
       id="path80"
       d="M 31.93288,-30.43001 V 9.25534 H 77.28793 V -30.43001 H 31.93288"
       style="fill:#b8ffb8;fill-opacity:1;fill-rule:nonzero;stroke:#000000;stroke-width:0.69739;stroke-linecap:round;stroke-linejoin:round;stroke-miterlimit:10;stroke-dasharray:none;stroke-opacity:1"
       transform="matrix(0.75901333,0,0,-0.75901333,114.10931,57.280876)" />
    <path
       id="path81"
       d="M 43.93764,21.2601 31.93288,9.25534 H 77.28793 L 89.2927,21.2601 Z"
       style="fill:#dbffdb;fill-opacity:1;fill-rule:nonzero;stroke:#000000;stroke-width:0.69739;stroke-linecap:round;stroke-linejoin:round;stroke-miterlimit:10;stroke-dasharray:none;stroke-opacity:1"
       transform="matrix(0.75901333,0,0,-0.75901333,114.10931,57.280876)" />
    <path
       id="path82"
       d="M 62.36331,-45.35463 V -5.66927 L 50.35855,-17.67403 v -39.68536 z"
       style="fill:#82ff82;fill-opacity:1;fill-rule:nonzero;stroke:#000000;stroke-width:0.69739;stroke-linecap:round;stroke-linejoin:round;stroke-miterlimit:10;stroke-dasharray:none;stroke-opacity:1"
       transform="matrix(0.75901333,0,0,-0.75901333,114.10931,57.280876)" />
    <path
       id="path83"
       d="m 5.0035,-57.35939 v 39.68536 H 50.35855 V -57.35939 H 5.0035"
       style="fill:#b8ffb8;fill-opacity:1;fill-rule:nonzero;stroke:#000000;stroke-width:0.69739;stroke-linecap:round;stroke-linejoin:round;stroke-miterlimit:10;stroke-dasharray:none;stroke-opacity:1"
       transform="matrix(0.75901333,0,0,-0.75901333,114.10931,57.280876)" />
    <path
       id="path84"
       d="M 17.00826,-5.66927 5.0035,-17.67403 h 45.35505 l 12.00476,12.00476 z"
       style="fill:#dbffdb;fill-opacity:1;fill-rule:nonzero;stroke:#000000;stroke-width:0.69739;stroke-linecap:round;stroke-linejoin:round;stroke-miterlimit:10;stroke-dasharray:none;stroke-opacity:1"
       transform="matrix(0.75901333,0,0,-0.75901333,114.10931,57.280876)" />
    <path
       id="path85"
       d="M 205.51436,35.4335 V 75.11887 L 193.5096,63.1141 V 23.42876 Z"
       style="fill:#ff4c4c;fill-opacity:1;fill-rule:nonzero;stroke:#000000;stroke-width:0.69739;stroke-linecap:round;stroke-linejoin:round;stroke-miterlimit:10;stroke-dasharray:none;stroke-opacity:1"
       transform="matrix(0.75901333,0,0,-0.75901333,114.10931,57.280876)" />
    <path
       id="path86"
       d="M 148.15454,23.42876 V 63.1141 H 193.5096 V 23.42876 h -45.35506"
       style="fill:#ff9999;fill-opacity:1;fill-rule:nonzero;stroke:#000000;stroke-width:0.69739;stroke-linecap:round;stroke-linejoin:round;stroke-miterlimit:10;stroke-dasharray:none;stroke-opacity:1"
       transform="matrix(0.75901333,0,0,-0.75901333,114.10931,57.280876)" />
    <path
       id="path87"
       d="M 160.1593,75.11887 148.15454,63.1141 h 45.35506 l 12.00476,12.00477 z"
       style="fill:#ffcccc;fill-opacity:1;fill-rule:nonzero;stroke:#000000;stroke-width:0.69739;stroke-linecap:round;stroke-linejoin:round;stroke-miterlimit:10;stroke-dasharray:none;stroke-opacity:1"
       transform="matrix(0.75901333,0,0,-0.75901333,114.10931,57.280876)" />
    <path
       id="path88"
       d="M 178.58498,8.50414 V 48.18948 L 166.58022,36.18472 V -3.50061 Z"
       style="fill:#ff4c4c;fill-opacity:1;fill-rule:nonzero;stroke:#000000;stroke-width:0.69739;stroke-linecap:round;stroke-linejoin:round;stroke-miterlimit:10;stroke-dasharray:none;stroke-opacity:1"
       transform="matrix(0.75901333,0,0,-0.75901333,114.10931,57.280876)" />
    <path
       id="path89"
       d="m 121.22516,-3.50061 v 39.68533 h 45.35506 V -3.50061 h -45.35506"
       style="fill:#ff9999;fill-opacity:1;fill-rule:nonzero;stroke:#000000;stroke-width:0.69739;stroke-linecap:round;stroke-linejoin:round;stroke-miterlimit:10;stroke-dasharray:none;stroke-opacity:1"
       transform="matrix(0.75901333,0,0,-0.75901333,114.10931,57.280876)" />
    <path
       id="path90"
       d="M 133.22992,48.18948 121.22516,36.18472 h 45.35506 l 12.00476,12.00476 z"
       style="fill:#ffcccc;fill-opacity:1;fill-rule:nonzero;stroke:#000000;stroke-width:0.69739;stroke-linecap:round;stroke-linejoin:round;stroke-miterlimit:10;stroke-dasharray:none;stroke-opacity:1"
       transform="matrix(0.75901333,0,0,-0.75901333,114.10931,57.280876)" />
    <path
       id="path91"
       d="M 151.65558,-18.42525 V 21.2601 L 139.65082,9.25534 v -39.68535 z"
       style="fill:#ff4c4c;fill-opacity:1;fill-rule:nonzero;stroke:#000000;stroke-width:0.69739;stroke-linecap:round;stroke-linejoin:round;stroke-miterlimit:10;stroke-dasharray:none;stroke-opacity:1"
       transform="matrix(0.75901333,0,0,-0.75901333,114.10931,57.280876)" />
    <path
       id="path92"
       d="M 94.29576,-30.43001 V 9.25534 h 45.35506 V -30.43001 H 94.29576"
       style="fill:#ff9999;fill-opacity:1;fill-rule:nonzero;stroke:#000000;stroke-width:0.69739;stroke-linecap:round;stroke-linejoin:round;stroke-miterlimit:10;stroke-dasharray:none;stroke-opacity:1"
       transform="matrix(0.75901333,0,0,-0.75901333,114.10931,57.280876)" />
    <path
       id="path93"
       d="M 106.30052,21.2601 94.29576,9.25534 h 45.35506 l 12.00476,12.00476 z"
       style="fill:#ffcccc;fill-opacity:1;fill-rule:nonzero;stroke:#000000;stroke-width:0.69739;stroke-linecap:round;stroke-linejoin:round;stroke-miterlimit:10;stroke-dasharray:none;stroke-opacity:1"
       transform="matrix(0.75901333,0,0,-0.75901333,114.10931,57.280876)" />
    <path
       id="path94"
       d="M 124.72621,-45.35463 V -5.66927 L 112.72145,-17.67403 V -57.35939 Z"
       style="fill:#ff4c4c;fill-opacity:1;fill-rule:nonzero;stroke:#000000;stroke-width:0.69739;stroke-linecap:round;stroke-linejoin:round;stroke-miterlimit:10;stroke-dasharray:none;stroke-opacity:1"
       transform="matrix(0.75901333,0,0,-0.75901333,114.10931,57.280876)" />
    <path
       id="path95"
       d="m 67.3664,-57.35939 v 39.68536 h 45.35505 V -57.35939 H 67.3664"
       style="fill:#ff9999;fill-opacity:1;fill-rule:nonzero;stroke:#000000;stroke-width:0.69739;stroke-linecap:round;stroke-linejoin:round;stroke-miterlimit:10;stroke-dasharray:none;stroke-opacity:1"
       transform="matrix(0.75901333,0,0,-0.75901333,114.10931,57.280876)" />
    <path
       id="path96"
       d="M 79.37115,-5.66927 67.3664,-17.67403 h 45.35505 l 12.00476,12.00476 z"
       style="fill:#ffcccc;fill-opacity:1;fill-rule:nonzero;stroke:#000000;stroke-width:0.69739;stroke-linecap:round;stroke-linejoin:round;stroke-miterlimit:10;stroke-dasharray:none;stroke-opacity:1"
       transform="matrix(0.75901333,0,0,-0.75901333,114.10931,57.280876)" />
    <path
       id="path97"
       d="M 6.3590764,-3.4568688 H 3.6417328 v 0.7410937 h 1.9762499 v 0.1852734 c 0,1.1528124 -0.8440234,1.99683583 -2.0380077,1.99683583 -0.6793359,0 -1.276328,-0.2264453 -1.6674608,-0.65874993 -0.4323047,-0.4734766 -0.6793359,-1.2557421 -0.6793359,-2.0585936 0,-1.6057031 0.9057812,-2.6555858 2.2850389,-2.6555858 1.0087109,0 1.7292187,0.5146484 1.8939061,1.3586718 H 6.2767327 C 6.0297014,-5.8860093 5.0415765,-6.6476889 3.5388032,-6.6476889 c -0.8028515,0 -1.4410156,0.2058594 -1.955664,0.6175781 -0.76167961,0.638164 -1.19398427,1.6468749 -1.19398427,2.8202732 0,2.0174218 1.23515617,3.41726543 3.00554667,3.41726543 0.8851953,0 1.5851171,-0.32937498 2.2232811,-1.04988275 l 0.2058594,0.88519526 h 0.5352343 z m 2.264453,0.6793359 h 2.0585936 c 0.514648,0 0.926367,-0.1441016 1.276328,-0.4528906 0.391133,-0.3705469 0.55582,-0.7822656 0.55582,-1.3998437 0,-1.2145702 -0.720507,-1.914492 -2.017421,-1.914492 H 7.8000919 v 6.54632767 h 0.8234375 z m 0,-0.7205078 v -2.3056248 h 1.7498046 c 0.802851,0 1.276328,0.4323046 1.276328,1.1528124 0,0.7205078 -0.473477,1.1528124 -1.276328,1.1528124 z M 17.91808,-6.5447592 v 4.5906637 c 0,0.8851953 -0.638164,1.42042963 -1.688047,1.42042963 -0.494063,0 -0.885195,-0.10292968 -1.193985,-0.32937498 C 14.706674,-1.130658 14.562572,-1.460033 14.562572,-1.9540955 v -4.5906637 h -0.844023 v 4.5906637 c 0,1.33808588 0.946953,2.16152333 2.511484,2.16152333 1.523359,0 2.511484,-0.84402338 2.511484,-2.16152333 v -4.5906637 z m 8.553456,5.76406209 h -3.355508 c 0.08234,-0.51464839 0.370547,-0.84402339 1.152813,-1.31749989 l 0.885195,-0.4734765 c 0.905781,-0.4940625 1.358672,-1.1528125 1.358672,-1.9144921 0,-0.5352343 -0.226445,-1.0292968 -0.596992,-1.3792577 -0.370547,-0.329375 -0.844024,-0.4940625 -1.441016,-0.4940625 -0.802851,0 -1.420429,0.2882031 -1.77039,0.8234374 -0.226446,0.349961 -0.308789,0.7410937 -0.329375,1.3792578 H 23.1572 c 0.02059,-0.4323047 0.08234,-0.6793359 0.185274,-0.8851953 0.205859,-0.3911328 0.617578,-0.638164 1.11164,-0.638164 0.699922,0 1.255742,0.5146484 1.255742,1.1939843 0,0.5146484 -0.308789,0.9469531 -0.864609,1.2557421 L 24.02181,-2.756947 c -1.338086,0.7616797 -1.729219,1.3586718 -1.790977,2.75851547 h 4.240703 z m 3.93706,-2.57324199 c 0.65875,-0.3911328 0.885196,-0.7205078 0.885196,-1.3174999 0,-0.988125 -0.782266,-1.6880468 -1.914493,-1.6880468 -1.132226,0 -1.914492,0.6999218 -1.914492,1.6880468 0,0.5969921 0.20586,0.9263671 0.86461,1.3174999 -0.720508,0.3499609 -1.091055,0.8851952 -1.091055,1.5851171 0,1.17339832 0.885195,1.97624983 2.140937,1.97624983 1.255743,0 2.140938,-0.80285151 2.140938,-1.95566393 0,-0.7205078 -0.370547,-1.2557421 -1.111641,-1.605703 z M 29.379299,-5.659564 c 0.679336,0 1.111641,0.3911328 1.111641,1.0087109 0,0.5969921 -0.452891,0.9881249 -1.111641,0.9881249 -0.658749,0 -1.11164,-0.3911328 -1.11164,-0.9881249 0,-0.6175781 0.452891,-1.0087109 1.11164,-1.0087109 z m 0,2.6555858 c 0.782266,0 1.3175,0.5146484 1.3175,1.2557421 0,0.76167963 -0.535234,1.2557421 -1.338085,1.2557421 -0.76168,0 -1.3175,-0.5146484 -1.3175,-1.2557421 0,-0.7410937 0.55582,-1.2557421 1.338085,-1.2557421 z m 0,0"
       style="fill:#000000;fill-opacity:1;fill-rule:nonzero;stroke:none"
       aria-label="GPU28"
       transform="matrix(0.75901333,0,0,0.75901333,170.34916,135.52225)" />
    <path
       id="path98"
       d="M 6.3631336,-3.4599623 H 3.6457901 v 0.7410937 h 1.9762498 v 0.1852734 c 0,1.1528124 -0.8440233,1.99683583 -2.0380076,1.99683583 -0.6793359,0 -1.2763281,-0.2264453 -1.6674609,-0.65874993 -0.4323046,-0.4734766 -0.6793359,-1.2557421 -0.6793359,-2.0585936 0,-1.6057031 0.9057812,-2.6555858 2.285039,-2.6555858 1.0087108,0 1.7292186,0.5146484 1.8939061,1.3586718 H 6.2807899 C 6.0337587,-5.8891028 5.0456337,-6.6507824 3.5428604,-6.6507824 c -0.8028515,0 -1.4410155,0.2058594 -1.9556639,0.6175781 -0.76167968,0.638164 -1.19398434,1.6468749 -1.19398434,2.8202732 0,2.0174218 1.23515614,3.41726543 3.00554664,3.41726543 0.8851953,0 1.5851171,-0.32937498 2.2232811,-1.04988274 l 0.2058594,0.88519525 h 0.5352343 z m 2.2593065,0.6793359 h 2.0585939 c 0.514648,0 0.926367,-0.1441016 1.276328,-0.4528906 0.391133,-0.3705469 0.55582,-0.7822656 0.55582,-1.3998437 0,-1.2145702 -0.720508,-1.914492 -2.017422,-1.914492 H 7.7990027 v 6.54632767 h 0.8234374 z m 0,-0.7205078 V -5.806759 h 1.7498049 c 0.802851,0 1.276328,0.4323046 1.276328,1.1528124 0,0.7205078 -0.473477,1.1528124 -1.276328,1.1528124 z M 17.91699,-6.5478527 v 4.5906637 c 0,0.8851953 -0.638164,1.42042963 -1.688046,1.42042963 -0.494063,0 -0.885196,-0.10292968 -1.193985,-0.32937498 C 14.705584,-1.1337515 14.561483,-1.4631265 14.561483,-1.957189 v -4.5906637 h -0.844024 v 4.5906637 c 0,1.33808588 0.946953,2.16152333 2.511485,2.16152333 1.523359,0 2.511484,-0.84402338 2.511484,-2.16152333 v -4.5906637 z m 6.474277,0.1852734 c -0.596992,0 -1.132226,0.2676172 -1.461601,0.6999218 -0.411719,0.5558203 -0.617578,1.3998437 -0.617578,2.573242 0,2.16152334 0.720507,3.29374983 2.079179,3.29374983 1.338086,0 2.07918,-1.13222649 2.07918,-3.23199193 0,-1.2351562 -0.20586,-2.0585937 -0.617578,-2.6349999 -0.329375,-0.4528906 -0.86461,-0.6999218 -1.461602,-0.6999218 z m 0,0.6999218 c 0.844024,0 1.276328,0.8646093 1.276328,2.573242 0,1.7909765 -0.411718,2.63499987 -1.296914,2.63499987 -0.844023,0 -1.255742,-0.88519527 -1.255742,-2.61441387 0,-1.7498046 0.411719,-2.593828 1.276328,-2.593828 z m 0,0"
       style="fill:#000000;fill-opacity:1;fill-rule:nonzero;stroke:none"
       aria-label="GPU0"
       transform="matrix(0.75901333,0,0,0.75901333,30.240609,88.188658)" />
    <path
       id="path99"
       d="M 6.3610807,-3.4599623 H 3.6437371 v 0.7410937 H 5.619987 v 0.1852734 c 0,1.1528124 -0.8440234,1.99683583 -2.0380077,1.99683583 -0.6793359,0 -1.2763281,-0.2264453 -1.6674609,-0.65874993 -0.4323046,-0.4734766 -0.6793358,-1.2557421 -0.6793358,-2.0585936 0,-1.6057031 0.9057811,-2.6555858 2.2850389,-2.6555858 1.0087108,0 1.7292186,0.5146484 1.8939061,1.3586718 H 6.2787369 C 6.0317057,-5.8891028 5.0435807,-6.6507824 3.5408074,-6.6507824 c -0.8028515,0 -1.4410155,0.2058594 -1.9556639,0.6175781 -0.76167967,0.638164 -1.19398432,1.6468749 -1.19398432,2.8202732 0,2.0174218 1.23515612,3.41726543 3.00554672,3.41726543 0.8851952,0 1.585117,-0.32937498 2.2232811,-1.04988274 l 0.2058593,0.88519525 h 0.5352344 z m 2.2593064,0.6793359 h 2.0585939 c 0.514648,0 0.926367,-0.1441016 1.276328,-0.4528906 0.391133,-0.3705469 0.55582,-0.7822656 0.55582,-1.3998437 0,-1.2145702 -0.720508,-1.914492 -2.017422,-1.914492 H 7.7969497 v 6.54632767 h 0.8234374 z m 0,-0.7205078 V -5.806759 h 1.7498049 c 0.802851,0 1.276328,0.4323046 1.276328,1.1528124 0,0.7205078 -0.473477,1.1528124 -1.276328,1.1528124 z m 9.2996969,-3.0467185 v 4.5906637 c 0,0.8851953 -0.638164,1.42042963 -1.688047,1.42042963 -0.494062,0 -0.885195,-0.10292968 -1.193984,-0.32937498 C 14.708678,-1.1337515 14.564576,-1.4631265 14.564576,-1.957189 v -4.5906637 h -0.844023 v 4.5906637 c 0,1.33808588 0.946953,2.16152333 2.511484,2.16152333 1.523359,0 2.511484,-0.84402338 2.511484,-2.16152333 v -4.5906637 z m 7.503574,3.1908201 c 0.658749,-0.3911328 0.885195,-0.7205078 0.885195,-1.3174999 0,-0.988125 -0.782266,-1.6880468 -1.914492,-1.6880468 -1.132227,0 -1.914492,0.6999218 -1.914492,1.6880468 0,0.5969921 0.205859,0.9263671 0.864609,1.3174999 -0.720508,0.3499609 -1.091055,0.8851952 -1.091055,1.5851171 0,1.17339832 0.885196,1.97624983 2.140938,1.97624983 1.255742,0 2.140937,-0.80285151 2.140937,-1.95566393 0,-0.7205078 -0.370547,-1.2557421 -1.11164,-1.605703 z m -1.029297,-2.3056249 c 0.679336,0 1.11164,0.3911328 1.11164,1.0087109 0,0.5969922 -0.45289,0.9881249 -1.11164,0.9881249 -0.65875,0 -1.111641,-0.3911327 -1.111641,-0.9881249 0,-0.6175781 0.452891,-1.0087109 1.111641,-1.0087109 z m 0,2.6555858 c 0.782265,0 1.3175,0.5146484 1.3175,1.2557421 0,0.76167963 -0.535235,1.2557421 -1.338086,1.2557421 -0.76168,0 -1.3175,-0.5146484 -1.3175,-1.2557421 0,-0.7410937 0.55582,-1.2557421 1.338086,-1.2557421 z m 0,0"
       style="fill:#000000;fill-opacity:1;fill-rule:nonzero;stroke:none"
       aria-label="GPU8"
       transform="matrix(0.75901333,0,0,0.75901333,77.574199,88.188658)" />
    <path
       id="path100"
       d="M 6.3611294,-3.4599623 H 3.6437858 v 0.7410937 h 1.9762499 v 0.1852734 c 0,1.1528124 -0.8440234,1.99683583 -2.0380077,1.99683583 -0.6793359,0 -1.276328,-0.2264453 -1.6674608,-0.65874993 -0.4323047,-0.4734766 -0.6793359,-1.2557421 -0.6793359,-2.0585936 0,-1.6057031 0.9057812,-2.6555858 2.2850389,-2.6555858 1.0087109,0 1.7292186,0.5146484 1.8939061,1.3586718 H 6.2787857 C 6.0317544,-5.8891028 5.0436295,-6.6507824 3.5408561,-6.6507824 c -0.8028515,0 -1.4410155,0.2058594 -1.9556639,0.6175781 -0.76167962,0.638164 -1.19398428,1.6468749 -1.19398428,2.8202732 0,2.0174218 1.23515618,3.41726543 3.00554668,3.41726543 0.8851952,0 1.5851171,-0.32937498 2.2232811,-1.04988274 l 0.2058594,0.88519525 h 0.5352343 z m 2.2593065,0.6793359 h 2.0585931 c 0.514649,0 0.926368,-0.1441016 1.276329,-0.4528906 0.391132,-0.3705469 0.55582,-0.7822656 0.55582,-1.3998437 0,-1.2145702 -0.720508,-1.914492 -2.017422,-1.914492 H 7.7969984 v 6.54632767 h 0.8234375 z m 0,-0.7205078 V -5.806759 H 10.37024 c 0.802852,0 1.276328,0.4323046 1.276328,1.1528124 0,0.7205078 -0.473476,1.1528124 -1.276328,1.1528124 z m 9.2996971,-3.0467185 v 4.5906637 c 0,0.8851953 -0.638164,1.42042963 -1.688047,1.42042963 -0.494063,0 -0.885195,-0.10292968 -1.193985,-0.32937498 C 14.708726,-1.1337515 14.564625,-1.4631265 14.564625,-1.957189 v -4.5906637 h -0.844023 v 4.5906637 c 0,1.33808588 0.946953,2.16152333 2.511484,2.16152333 1.523359,0 2.511484,-0.84402338 2.511484,-2.16152333 v -4.5906637 z m 6.330175,2.0174217 v 4.52890597 h 0.782265 V -6.3625793 h -0.514648 c -0.288203,0.967539 -0.452891,1.1116406 -1.688047,1.2557421 v 0.5764062 z m 7.122734,-0.1646875 c -0.144102,-1.0498827 -0.823438,-1.6674608 -1.811563,-1.6674608 -0.699921,0 -1.3175,0.329375 -1.688046,0.9057812 -0.411719,0.6175781 -0.576407,1.3998437 -0.576407,2.5526561 0,1.0704687 0.164688,1.7498045 0.535235,2.32621076 0.329375,0.5146484 0.905781,0.78226557 1.605703,0.78226557 1.193984,0 2.079179,-0.90578119 2.079179,-2.14093733 0,-1.1939843 -0.823437,-2.0174218 -1.955664,-2.0174218 -0.617578,0 -1.11164,0.2264453 -1.461601,0.6999219 0,-1.5439453 0.514648,-2.4085546 1.42043,-2.4085546 0.55582,0 0.946953,0.3499609 1.070468,0.967539 z m -1.914492,1.4410156 c 0.761679,0 1.235156,0.5146484 1.235156,1.3792577 0,0.8028515 -0.535234,1.3792577 -1.255742,1.3792577 -0.741094,0 -1.296914,-0.6175781 -1.296914,-1.4204296 0,-0.8028515 0.535234,-1.3380858 1.3175,-1.3380858 z m 0,0"
       style="fill:#000000;fill-opacity:1;fill-rule:nonzero;stroke:none"
       aria-label="GPU16"
       transform="matrix(0.75901333,0,0,0.75901333,123.01557,88.188658)" />
    <path
       id="path101"
       d="M 6.3590764,-3.4599623 H 3.6417328 v 0.7410937 h 1.9762499 v 0.1852734 c 0,1.1528124 -0.8440234,1.99683583 -2.0380077,1.99683583 -0.6793359,0 -1.276328,-0.2264453 -1.6674608,-0.65874993 -0.4323047,-0.4734766 -0.6793359,-1.2557421 -0.6793359,-2.0585936 0,-1.6057031 0.9057812,-2.6555858 2.2850389,-2.6555858 1.0087109,0 1.7292187,0.5146484 1.8939061,1.3586718 H 6.2767327 C 6.0297014,-5.8891028 5.0415765,-6.6507824 3.5388032,-6.6507824 c -0.8028515,0 -1.4410156,0.2058594 -1.955664,0.6175781 -0.76167961,0.638164 -1.19398427,1.6468749 -1.19398427,2.8202732 0,2.0174218 1.23515617,3.41726543 3.00554667,3.41726543 0.8851953,0 1.5851171,-0.32937498 2.2232811,-1.04988274 l 0.2058594,0.88519525 h 0.5352343 z m 2.264453,0.6793359 h 2.0585936 c 0.514648,0 0.926367,-0.1441016 1.276328,-0.4528906 0.391133,-0.3705469 0.55582,-0.7822656 0.55582,-1.3998437 0,-1.2145702 -0.720507,-1.914492 -2.017421,-1.914492 H 7.8000919 v 6.54632767 h 0.8234375 z m 0,-0.7205078 V -5.806759 h 1.7498046 c 0.802851,0 1.276328,0.4323046 1.276328,1.1528124 0,0.7205078 -0.473477,1.1528124 -1.276328,1.1528124 z M 17.91808,-6.5478527 v 4.5906637 c 0,0.8851953 -0.638164,1.42042963 -1.688047,1.42042963 -0.494063,0 -0.885195,-0.10292968 -1.193985,-0.32937498 C 14.706674,-1.1337515 14.562572,-1.4631265 14.562572,-1.957189 v -4.5906637 h -0.844023 v 4.5906637 c 0,1.33808588 0.946953,2.16152333 2.511484,2.16152333 1.523359,0 2.511484,-0.84402338 2.511484,-2.16152333 v -4.5906637 z m 8.553456,5.76406209 H 23.116028 C 23.198372,-1.298439 23.486575,-1.627814 24.268841,-2.1012905 l 0.885195,-0.4734765 c 0.905781,-0.4940625 1.358672,-1.1528125 1.358672,-1.9144921 0,-0.5352343 -0.226445,-1.0292968 -0.596992,-1.3792577 -0.370547,-0.329375 -0.844024,-0.4940625 -1.441016,-0.4940625 -0.802851,0 -1.420429,0.2882031 -1.77039,0.8234374 -0.226446,0.349961 -0.308789,0.7410937 -0.329375,1.3792578 H 23.1572 c 0.02059,-0.4323047 0.08234,-0.6793359 0.185274,-0.8851953 0.205859,-0.3911328 0.617578,-0.638164 1.11164,-0.638164 0.699922,0 1.255742,0.5146484 1.255742,1.1939843 0,0.5146484 -0.308789,0.9469531 -0.864609,1.2557421 l -0.823437,0.4734765 c -1.338086,0.7616797 -1.729219,1.3586718 -1.790977,2.75851547 h 4.240703 z m 3.38124,-0.74109369 v 1.52335927 h 0.782266 V -1.5248843 h 0.946953 v -0.7205078 h -0.946953 v -4.1171872 h -0.576407 l -2.902617,3.9936716 v 0.8440234 z m 0,-0.7205078 H 27.85594 l 1.996836,-2.7791013 z m 0,0"
       style="fill:#000000;fill-opacity:1;fill-rule:nonzero;stroke:none"
       aria-label="GPU24"
       transform="matrix(0.75901333,0,0,0.75901333,170.34916,88.188658)" />
    <path
       id="path102"
       d="M 6.3631336,-3.4568688 H 3.6457901 v 0.7410937 h 1.9762498 v 0.1852734 c 0,1.1528124 -0.8440233,1.99683583 -2.0380076,1.99683583 -0.6793359,0 -1.2763281,-0.2264453 -1.6674609,-0.65874993 -0.4323046,-0.4734766 -0.6793359,-1.2557421 -0.6793359,-2.0585936 0,-1.6057031 0.9057812,-2.6555858 2.285039,-2.6555858 1.0087108,0 1.7292186,0.5146484 1.8939061,1.3586718 H 6.2807899 C 6.0337587,-5.8860093 5.0456337,-6.6476889 3.5428604,-6.6476889 c -0.8028515,0 -1.4410155,0.2058594 -1.9556639,0.6175781 -0.76167968,0.638164 -1.19398434,1.6468749 -1.19398434,2.8202732 0,2.0174218 1.23515614,3.41726543 3.00554664,3.41726543 0.8851953,0 1.5851171,-0.32937498 2.2232811,-1.04988275 l 0.2058594,0.88519526 h 0.5352343 z m 2.2593065,0.6793359 h 2.0585939 c 0.514648,0 0.926367,-0.1441016 1.276328,-0.4528906 0.391133,-0.3705469 0.55582,-0.7822656 0.55582,-1.3998437 0,-1.2145702 -0.720508,-1.914492 -2.017422,-1.914492 H 7.7990027 v 6.54632767 h 0.8234374 z m 0,-0.7205078 v -2.3056248 h 1.7498049 c 0.802851,0 1.276328,0.4323046 1.276328,1.1528124 0,0.7205078 -0.473477,1.1528124 -1.276328,1.1528124 z M 17.91699,-6.5447592 v 4.5906637 c 0,0.8851953 -0.638164,1.42042963 -1.688046,1.42042963 -0.494063,0 -0.885196,-0.10292968 -1.193985,-0.32937498 C 14.705584,-1.130658 14.561483,-1.460033 14.561483,-1.9540955 v -4.5906637 h -0.844024 v 4.5906637 c 0,1.33808588 0.946953,2.16152333 2.511485,2.16152333 1.523359,0 2.511484,-0.84402338 2.511484,-2.16152333 v -4.5906637 z m 6.947754,5.0229684 v 1.52335927 h 0.782265 V -1.5217908 h 0.946953 v -0.7205078 h -0.946953 v -4.1171872 h -0.576406 l -2.902617,3.9936716 v 0.8440234 z m 0,-0.7205078 h -1.996836 l 1.996836,-2.7791013 z m 0,0"
       style="fill:#000000;fill-opacity:1;fill-rule:nonzero;stroke:none"
       aria-label="GPU4"
       transform="matrix(0.75901333,0,0,0.75901333,30.240609,135.52225)" />
    <path
       id="path103"
       d="M 6.3631824,-3.4568688 H 3.6458388 v 0.7410937 h 1.9762499 v 0.1852734 c 0,1.1528124 -0.8440234,1.99683583 -2.0380077,1.99683583 -0.6793359,0 -1.276328,-0.2264453 -1.6674608,-0.65874993 -0.4323047,-0.4734766 -0.6793359,-1.2557421 -0.6793359,-2.0585936 0,-1.6057031 0.9057812,-2.6555858 2.2850389,-2.6555858 1.0087109,0 1.7292186,0.5146484 1.8939061,1.3586718 H 6.2808386 C 6.0338074,-5.8860093 5.0456825,-6.6476889 3.5429091,-6.6476889 c -0.8028515,0 -1.4410155,0.2058594 -1.9556639,0.6175781 -0.76167964,0.638164 -1.1939843,1.6468749 -1.1939843,2.8202732 0,2.0174218 1.2351562,3.41726543 3.0055467,3.41726543 0.8851952,0 1.5851171,-0.32937498 2.2232811,-1.04988275 L 5.827948,0.04274034 h 0.5352344 z m 2.2593065,0.6793359 h 2.0585931 c 0.514649,0 0.926368,-0.1441016 1.276329,-0.4528906 0.391132,-0.3705469 0.55582,-0.7822656 0.55582,-1.3998437 0,-1.2145702 -0.720508,-1.914492 -2.017422,-1.914492 H 7.7990514 v 6.54632767 h 0.8234375 z m 0,-0.7205078 v -2.3056248 h 1.7498041 c 0.802852,0 1.276328,0.4323046 1.276328,1.1528124 0,0.7205078 -0.473476,1.1528124 -1.276328,1.1528124 z m 9.2945501,-3.0467185 v 4.5906637 c 0,0.8851953 -0.638164,1.42042963 -1.688047,1.42042963 -0.494062,0 -0.885195,-0.10292968 -1.193984,-0.32937498 C 14.705633,-1.130658 14.561531,-1.460033 14.561531,-1.9540955 v -4.5906637 h -0.844023 v 4.5906637 c 0,1.33808588 0.946953,2.16152333 2.511484,2.16152333 1.52336,0 2.511484,-0.84402338 2.511484,-2.16152333 v -4.5906637 z m 6.330175,2.0174217 V 0.00156847 H 25.02948 V -6.3594858 h -0.514648 c -0.288204,0.967539 -0.452891,1.1116406 -1.688047,1.2557421 v 0.5764062 z m 7.210225,3.74664039 h -3.355508 c 0.08234,-0.51464839 0.370547,-0.84402339 1.152812,-1.31749989 l 0.885196,-0.4734765 c 0.905781,-0.4940625 1.358671,-1.1528125 1.358671,-1.9144921 0,-0.5352343 -0.226445,-1.0292968 -0.596992,-1.3792577 -0.370547,-0.329375 -0.844023,-0.4940625 -1.441015,-0.4940625 -0.802852,0 -1.42043,0.2882031 -1.770391,0.8234374 -0.226445,0.349961 -0.308789,0.7410937 -0.329375,1.3792578 h 0.782266 c 0.02059,-0.4323047 0.08234,-0.6793359 0.185273,-0.8851953 0.20586,-0.3911328 0.617578,-0.638164 1.111641,-0.638164 0.699922,0 1.255742,0.5146484 1.255742,1.1939843 0,0.5146484 -0.308789,0.9469531 -0.864609,1.2557421 l -0.823438,0.4734765 c -1.338086,0.7616797 -1.729219,1.3586718 -1.790976,2.75851547 h 4.240703 z m 0,0"
       style="fill:#000000;fill-opacity:1;fill-rule:nonzero;stroke:none"
       aria-label="GPU12"
       transform="matrix(0.75901333,0,0,0.75901333,75.681978,135.52225)" />
    <path
       id="path104"
       d="M 6.3611294,-3.4568688 H 3.6437858 v 0.7410937 h 1.9762499 v 0.1852734 c 0,1.1528124 -0.8440234,1.99683583 -2.0380077,1.99683583 -0.6793359,0 -1.276328,-0.2264453 -1.6674608,-0.65874993 -0.4323047,-0.4734766 -0.6793359,-1.2557421 -0.6793359,-2.0585936 0,-1.6057031 0.9057812,-2.6555858 2.2850389,-2.6555858 1.0087109,0 1.7292186,0.5146484 1.8939061,1.3586718 H 6.2787857 C 6.0317544,-5.8860093 5.0436295,-6.6476889 3.5408561,-6.6476889 c -0.8028515,0 -1.4410155,0.2058594 -1.9556639,0.6175781 -0.76167962,0.638164 -1.19398428,1.6468749 -1.19398428,2.8202732 0,2.0174218 1.23515618,3.41726543 3.00554668,3.41726543 0.8851952,0 1.5851171,-0.32937498 2.2232811,-1.04988275 l 0.2058594,0.88519526 h 0.5352343 z m 2.2593065,0.6793359 h 2.0585931 c 0.514649,0 0.926368,-0.1441016 1.276329,-0.4528906 0.391132,-0.3705469 0.55582,-0.7822656 0.55582,-1.3998437 0,-1.2145702 -0.720508,-1.914492 -2.017422,-1.914492 H 7.7969984 v 6.54632767 h 0.8234375 z m 0,-0.7205078 V -5.8036655 H 10.37024 c 0.802852,0 1.276328,0.4323046 1.276328,1.1528124 0,0.7205078 -0.473476,1.1528124 -1.276328,1.1528124 z m 9.2996971,-3.0467185 v 4.5906637 c 0,0.8851953 -0.638164,1.42042963 -1.688047,1.42042963 -0.494063,0 -0.885195,-0.10292968 -1.193985,-0.32937498 C 14.708726,-1.130658 14.564625,-1.460033 14.564625,-1.9540955 v -4.5906637 h -0.844023 v 4.5906637 c 0,1.33808588 0.946953,2.16152333 2.511484,2.16152333 1.523359,0 2.511484,-0.84402338 2.511484,-2.16152333 v -4.5906637 z m 8.553456,5.76406209 h -3.355508 c 0.08234,-0.51464839 0.370547,-0.84402339 1.152813,-1.31749989 l 0.885195,-0.4734765 c 0.905781,-0.4940625 1.358672,-1.1528125 1.358672,-1.9144921 0,-0.5352343 -0.226445,-1.0292968 -0.596992,-1.3792577 -0.370547,-0.329375 -0.844024,-0.4940625 -1.441016,-0.4940625 -0.802851,0 -1.420429,0.2882031 -1.77039,0.8234374 -0.226446,0.349961 -0.308789,0.7410937 -0.329375,1.3792578 h 0.782265 c 0.02059,-0.4323047 0.08234,-0.6793359 0.185274,-0.8851953 0.205859,-0.3911328 0.617578,-0.638164 1.11164,-0.638164 0.699922,0 1.255742,0.5146484 1.255742,1.1939843 0,0.5146484 -0.308789,0.9469531 -0.864609,1.2557421 l -0.823437,0.4734765 c -1.338086,0.7616797 -1.729219,1.3586718 -1.790977,2.75851547 h 4.240703 z m 2.902617,-5.57878869 c -0.596992,0 -1.132227,0.2676172 -1.461601,0.6999218 -0.411719,0.5558203 -0.617579,1.3998437 -0.617579,2.573242 0,2.16152334 0.720508,3.29374983 2.07918,3.29374983 1.338086,0 2.07918,-1.13222649 2.07918,-3.23199193 0,-1.2351562 -0.20586,-2.0585937 -0.617579,-2.6349999 -0.329375,-0.4528906 -0.864609,-0.6999218 -1.461601,-0.6999218 z m 0,0.6999218 c 0.844023,0 1.276328,0.8646093 1.276328,2.573242 0,1.7909765 -0.411719,2.63499987 -1.296914,2.63499987 -0.844023,0 -1.255742,-0.88519527 -1.255742,-2.61441387 0,-1.7498046 0.411719,-2.593828 1.276328,-2.593828 z m 0,0"
       style="fill:#000000;fill-opacity:1;fill-rule:nonzero;stroke:none"
       aria-label="GPU20"
       transform="matrix(0.75901333,0,0,0.75901333,123.01557,135.52225)" />
    <path
       id="path105"
       d="m -119.72227,-125.39163 c 0.74717,-1.49443 2.49069,-2.49069 4.98138,-2.49069 H -8.4818 c 2.4907,0 4.23421,-0.99627 4.98139,-2.4907 0.74718,1.49443 2.49069,2.4907 4.98137,2.4907 h 106.25911 c 2.49069,0 4.2342,0.99626 4.98138,2.49069"
       style="fill:none;stroke:#000000;stroke-width:0.79701;stroke-linecap:round;stroke-linejoin:round;stroke-miterlimit:10;stroke-dasharray:none;stroke-opacity:1"
       transform="matrix(0.75901333,0,0,-0.75901333,114.10931,57.280876)" />
    <path
       id="path106"
       d="M 4.2609008,-1.9531136 4.9196507,0.0025503 H 5.8666038 L 3.5609789,-6.5437774 H 2.4905102 L 0.14371353,0.0025503 H 1.0494947 L 1.7288306,-1.9531136 Z M 4.0138695,-2.6530355 H 1.93469 L 3.0051586,-5.6379962 Z M 10.199943,-3.126512 C 10.179357,-3.5794026 10.076428,-3.8676057 9.8911543,-4.1352229 9.5617793,-4.5675275 9.005959,-4.8351447 8.3472091,-4.8351447 c -1.2557421,0 -2.0791796,1.0087109 -2.0791796,2.573242 0,1.50277337 0.8028515,2.47031236 2.0791796,2.47031236 1.1116405,0 1.8321479,-0.67933589 1.9144919,-1.81156236 H 9.5000215 c -0.1235156,0.74109368 -0.5146484,1.11164054 -1.1322265,1.11164054 -0.8440234,0 -1.3380858,-0.65874994 -1.3380858,-1.77039054 0,-1.1733983 0.4940624,-1.8733202 1.3174999,-1.8733202 0.6175781,0 1.0087108,0.349961 1.1116405,1.0087109 z m 0.880049,-1.5645311 v 4.6935934 h 0.76168 v -2.4497264 c 0,-0.65875 0.164687,-1.1116405 0.514648,-1.3586718 0.247031,-0.1852734 0.473477,-0.2264453 0.988125,-0.2470312 v -0.7616797 c -0.123516,-0.020586 -0.185273,-0.020586 -0.288203,-0.020586 -0.494063,0 -0.844023,0.2882031 -1.276328,0.9881249 v -0.8440233 z m 4.817109,-0.1441016 c -1.3175,0 -2.120351,0.9469531 -2.120351,2.5320702 0,1.5645311 0.782265,2.51148416 2.120351,2.51148416 1.3175,0 2.120352,-0.94695306 2.120352,-2.49089826 0,-1.626289 -0.782266,-2.5526561 -2.120352,-2.5526561 z m 0,0.6999218 c 0.844024,0 1.338086,0.6793359 1.338086,1.8527343 0,1.0910546 -0.514648,1.79097644 -1.338086,1.79097644 -0.844023,0 -1.338086,-0.67933594 -1.338086,-1.81156234 0,-1.1322265 0.494063,-1.8321484 1.338086,-1.8321484 z m 6.469131,0.7410937 c 0,-0.9263671 -0.617579,-1.4410155 -1.708633,-1.4410155 -1.091055,0 -1.811563,0.5558203 -1.811563,1.4410155 0,0.7410937 0.391133,1.0910547 1.502774,1.3586718 l 0.699922,0.1646875 c 0.514648,0.1235156 0.720507,0.3087891 0.720507,0.65875 0,0.43230463 -0.432304,0.72050774 -1.091054,0.72050774 -0.411719,0 -0.741094,-0.10292969 -0.926367,-0.30878905 -0.123516,-0.12351561 -0.185274,-0.26761719 -0.226446,-0.59699219 h -0.782265 c 0.04117,1.09105466 0.638164,1.60570306 1.87332,1.60570306 1.193984,0 1.935078,-0.57640621 1.935078,-1.48218736 0,-0.6999219 -0.391133,-1.0910547 -1.3175,-1.3174999 l -0.720508,-0.1646875 c -0.617578,-0.1441016 -0.885195,-0.349961 -0.885195,-0.6793359 0,-0.4323047 0.391133,-0.6999219 1.008711,-0.6999219 0.596992,0 0.926367,0.2470313 0.946953,0.7410937 z m 4.482587,0 c 0,-0.9263671 -0.617578,-1.4410155 -1.708633,-1.4410155 -1.091054,0 -1.811562,0.5558203 -1.811562,1.4410155 0,0.7410937 0.391133,1.0910547 1.502773,1.3586718 l 0.699922,0.1646875 c 0.514649,0.1235156 0.720508,0.3087891 0.720508,0.65875 0,0.43230463 -0.432305,0.72050774 -1.091055,0.72050774 -0.411718,0 -0.741093,-0.10292969 -0.926367,-0.30878905 C 24.11089,-0.92381682 24.049132,-1.0679184 24.00796,-1.3972934 h -0.782266 c 0.04117,1.09105466 0.638164,1.60570306 1.873321,1.60570306 1.193984,0 1.935078,-0.57640621 1.935078,-1.48218736 0,-0.6999219 -0.391133,-1.0910547 -1.3175,-1.3174999 l -0.720508,-0.1646875 c -0.617578,-0.1441016 -0.885195,-0.349961 -0.885195,-0.6793359 0,-0.4323047 0.391132,-0.6999219 1.008711,-0.6999219 0.596992,0 0.926367,0.2470313 0.946953,0.7410937 z m 4.395098,-3.1496482 h -0.741094 v 6.5463277 h 0.741094 z m 5.42954,6.11402304 c -0.08234,0.0205859 -0.102929,0.0205859 -0.164687,0.0205859 -0.247032,0 -0.391133,-0.14410155 -0.391133,-0.37054685 V -3.5588166 c 0,-0.8234375 -0.617578,-1.2763281 -1.770391,-1.2763281 -0.679335,0 -1.255742,0.2058594 -1.564531,0.5558203 -0.205859,0.2264453 -0.308789,0.4940625 -0.329375,0.967539 h 0.76168 c 0.06176,-0.5764062 0.411719,-0.8234375 1.11164,-0.8234375 0.65875,0 1.049883,0.2470313 1.049883,0.6999219 v 0.1852734 c 0,0.308789 -0.205859,0.4528906 -0.782265,0.5146484 -1.070469,0.1441016 -1.235157,0.1852734 -1.52336,0.2882031 -0.535234,0.2264453 -0.823437,0.65875 -0.823437,1.2557421 0,0.86460932 0.596992,1.39984366 1.543945,1.39984366 0.596992,0 1.070469,-0.20585936 1.605703,-0.69992182 0.06176,0.49406246 0.288203,0.69992182 0.76168,0.69992182 0.164687,0 0.267617,-0.0205859 0.514648,-0.0823437 z M 35.376543,-1.4796371 c 0,0.2470312 -0.08234,0.4117187 -0.308789,0.61757808 -0.308789,0.26761717 -0.65875,0.41171873 -1.11164,0.41171873 -0.576407,0 -0.926368,-0.26761717 -0.926368,-0.74109371 0,-0.4940625 0.329375,-0.7616796 1.132227,-0.8646093 0.802851,-0.1235156 0.946953,-0.1441016 1.21457,-0.2676172 z m 4.703887,-3.211406 -1.296914,3.6437107 -1.193985,-3.6437107 H 36.78668 l 1.585117,4.71417934 -0.288203,0.7410937 C 37.960078,1.0936049 37.795391,1.2171205 37.486602,1.2171205 c -0.123516,0 -0.247032,-0.020586 -0.391133,-0.041172 v 0.6587499 c 0.144101,0.082344 0.288203,0.1235156 0.494062,0.1235156 0.247032,0 0.494063,-0.082344 0.699922,-0.2264453 C 38.515898,1.5670814 38.66,1.3612221 38.804102,0.99067524 l 2.079179,-5.68171834 z m 5.434687,2.5938279 c 0,-0.7205077 -0.06176,-1.1528124 -0.185274,-1.5027733 -0.308789,-0.7616797 -1.029296,-1.2351562 -1.914492,-1.2351562 -1.3175,0 -2.161523,1.0087109 -2.161523,2.5526561 0,1.5439452 0.823437,2.49089826 2.140937,2.49089826 1.091055,0 1.832149,-0.61757808 2.017422,-1.62628896 h -0.76168 c -0.205859,0.61757809 -0.617578,0.92636714 -1.21457,0.92636714 -0.494062,0 -0.885195,-0.20585937 -1.132226,-0.59699214 -0.185274,-0.2676172 -0.247032,-0.5352344 -0.267617,-1.0087109 z m -3.458438,-0.6175781 c 0.06176,-0.8646093 0.596993,-1.4204296 1.358672,-1.4204296 0.720508,0 1.296914,0.5969922 1.296914,1.3792578 0,0.020586 0,0.020586 -0.02059,0.041172 z m 4.451709,-1.9762498 v 4.6935934 h 0.76168 v -2.4497264 c 0,-0.65875 0.164687,-1.1116405 0.514648,-1.3586718 0.247031,-0.1852734 0.473477,-0.2264453 0.988125,-0.2470312 v -0.7616797 c -0.123515,-0.020586 -0.185273,-0.020586 -0.288203,-0.020586 -0.494062,0 -0.844023,0.2882031 -1.276328,0.9881249 v -0.8440233 z m 8.558603,0 v 0.6793359 c -0.391133,-0.5558203 -0.844023,-0.8234375 -1.441015,-0.8234375 -1.193985,0 -1.996836,1.0498828 -1.996836,2.573242 0,0.7616797 0.205859,1.39984368 0.576406,1.85273428 0.349961,0.39113279 0.864609,0.61757808 1.358672,0.61757808 0.596992,0 1.008711,-0.24703123 1.420429,-0.84402338 v 0.24703124 c 0,0.63816402 -0.08234,1.0292968 -0.267617,1.27632804 -0.205859,0.28820314 -0.576406,0.45289064 -1.049883,0.45289064 -0.329375,0 -0.638164,-0.1029297 -0.844023,-0.2676172 C 52.658437,0.94950336 52.576093,0.82598775 52.534921,0.53778464 h -0.76168 c 0.08234,0.88519526 0.782266,1.42042956 1.873321,1.42042956 0.699921,0 1.296913,-0.2264453 1.605703,-0.5969921 0.370546,-0.43230467 0.494062,-1.02929682 0.494062,-2.12035143 V -4.6910431 Z m -1.358672,0.5558202 c 0.802852,0 1.276328,0.6793359 1.276328,1.8527343 0,1.1116405 -0.473476,1.79097644 -1.276328,1.79097644 -0.802851,0 -1.296914,-0.67933594 -1.296914,-1.81156234 0,-1.1322265 0.494063,-1.8321484 1.296914,-1.8321484 z M 56.8837,-4.6910431 v 4.6935934 h 0.76168 v -2.4497264 c 0,-0.65875 0.164687,-1.1116405 0.514648,-1.3586718 0.247031,-0.1852734 0.473477,-0.2264453 0.988125,-0.2470312 v -0.7616797 c -0.123516,-0.020586 -0.185273,-0.020586 -0.288203,-0.020586 -0.494063,0 -0.844024,0.2882031 -1.276328,0.9881249 v -0.8440233 z m 4.817109,-0.1441016 c -1.3175,0 -2.120351,0.9469531 -2.120351,2.5320702 0,1.5645311 0.782265,2.51148416 2.120351,2.51148416 1.3175,0 2.120351,-0.94695306 2.120351,-2.49089826 0,-1.626289 -0.782265,-2.5526561 -2.120351,-2.5526561 z m 0,0.6999218 c 0.844023,0 1.338086,0.6793359 1.338086,1.8527343 0,1.0910546 -0.514649,1.79097644 -1.338086,1.79097644 -0.844023,0 -1.338086,-0.67933594 -1.338086,-1.81156234 0,-1.1322265 0.494063,-1.8321484 1.338086,-1.8321484 z m 6.855117,4.1377732 v -4.6935934 h -0.741094 v 2.6555857 c 0,0.967539 -0.494062,1.58511711 -1.276328,1.58511711 -0.596992,0 -0.967539,-0.34996092 -0.967539,-0.92636711 v -3.3143357 h -0.76168 v 3.6231247 c 0,0.7822656 0.596993,1.27632806 1.502774,1.27632806 0.699922,0 1.132226,-0.24703123 1.564531,-0.86460931 V 0.0025503 Z m 1.157959,1.9556639 h 0.741093 v -2.44972636 c 0.391133,0.49406246 0.844024,0.69992182 1.441016,0.69992182 1.21457,0 2.017422,-0.96753899 2.017422,-2.47031236 0,-1.5851171 -0.76168,-2.573242 -2.017422,-2.573242 -0.638164,0 -1.152813,0.2882031 -1.502773,0.8440234 v -0.6999218 h -0.679336 z m 2.058593,-6.0934371 c 0.823438,0 1.358672,0.7205078 1.358672,1.8527343 0,1.0704687 -0.535234,1.79097644 -1.358672,1.79097644 -0.802851,0 -1.3175,-0.72050774 -1.3175,-1.81156234 0,-1.1116406 0.514649,-1.8321484 1.3175,-1.8321484 z m 6.366201,0.7410937 c 0,-0.9263671 -0.617578,-1.4410155 -1.708633,-1.4410155 -1.091054,0 -1.811562,0.5558203 -1.811562,1.4410155 0,0.7410937 0.391133,1.0910547 1.502773,1.3586718 l 0.699922,0.1646875 c 0.514649,0.1235156 0.720508,0.3087891 0.720508,0.65875 0,0.43230463 -0.432305,0.72050774 -1.091055,0.72050774 -0.411718,0 -0.741093,-0.10292969 -0.926367,-0.30878905 C 75.40075,-0.92381682 75.338992,-1.0679184 75.29782,-1.3972934 h -0.782266 c 0.04117,1.09105466 0.638164,1.60570306 1.87332,1.60570306 1.193985,0 1.935078,-0.57640621 1.935078,-1.48218736 0,-0.6999219 -0.391132,-1.0910547 -1.317499,-1.3174999 l -0.720508,-0.1646875 c -0.617578,-0.1441016 -0.885195,-0.349961 -0.885195,-0.6793359 0,-0.4323047 0.391132,-0.6999219 1.00871,-0.6999219 0.596993,0 0.926368,0.2470313 0.946953,0.7410937 z m 0,0"
       style="fill:#000000;fill-opacity:1;fill-rule:nonzero;stroke:none"
       aria-label="Acrosslayergroups"
       transform="matrix(0.75901333,0,0,0.75901333,81.590138,164.42775)" />
    <path
       id="path107"
       d="m -125.39163,-119.72227 c -1.49443,0.74717 -2.49069,2.49069 -2.49069,4.98138 v 41.06134 c 0,2.49069 -0.99627,4.23421 -2.4907,4.98138 1.49443,0.7472 2.4907,2.4907 2.4907,4.98139 v 41.06137 c 0,2.49069 0.99626,4.23421 2.49069,4.98138"
       style="fill:none;stroke:#000000;stroke-width:0.79701;stroke-linecap:round;stroke-linejoin:round;stroke-miterlimit:10;stroke-dasharray:none;stroke-opacity:1"
       transform="matrix(0.75901333,0,0,-0.75901333,114.10931,57.280876)" />
    <path
       id="path108"
       d="m 4.2614071,-1.9569128 0.65875,1.95566388 h 0.946953 L 3.5614853,-6.5475766 H 2.4910166 L 0.14421987,-0.00124892 H 1.0500011 L 1.729337,-1.9569128 Z M 4.0143759,-2.6568347 H 1.9351963 L 3.005665,-5.6417954 Z M 10.20045,-3.1303112 C 10.179864,-3.5832018 10.076934,-3.8714049 9.8916606,-4.1390221 9.5622857,-4.5713267 9.0064654,-4.8389439 8.3477154,-4.8389439 c -1.2557421,0 -2.0791795,1.0087109 -2.0791795,2.573242 0,1.50277335 0.8028515,2.47031235 2.0791795,2.47031235 1.1116406,0 1.8321486,-0.6793359 1.9144916,-1.81156235 H 9.5005278 c -0.1235156,0.74109367 -0.5146484,1.11164052 -1.1322264,1.11164052 -0.8440234,0 -1.3380859,-0.65874992 -1.3380859,-1.77039052 0,-1.1733983 0.4940625,-1.8733202 1.3174999,-1.8733202 0.6175781,0 1.0087109,0.3499609 1.1116406,1.0087109 z m 0.880048,-1.5645312 v 4.69359348 h 0.76168 V -2.4509753 c 0,-0.65875 0.164688,-1.1116406 0.514648,-1.3586718 0.247032,-0.1852734 0.473477,-0.2264453 0.988125,-0.2470312 V -4.818358 c -0.123515,-0.020586 -0.185273,-0.020586 -0.288203,-0.020586 -0.494062,0 -0.844023,0.2882031 -1.276328,0.9881249 v -0.8440234 z m 4.817109,-0.1441015 c -1.317499,0 -2.120351,0.9469531 -2.120351,2.5320701 0,1.56453118 0.782266,2.51148425 2.120351,2.51148425 1.3175,0 2.120352,-0.94695307 2.120352,-2.49089825 0,-1.626289 -0.782266,-2.5526561 -2.120352,-2.5526561 z m 0,0.6999218 c 0.844024,0 1.338086,0.6793359 1.338086,1.8527343 0,1.0910546 -0.514648,1.79097642 -1.338086,1.79097642 -0.844023,0 -1.338085,-0.67933592 -1.338085,-1.81156242 0,-1.1322264 0.494062,-1.8321483 1.338085,-1.8321483 z m 6.469131,0.7410937 c 0,-0.9263671 -0.617578,-1.4410155 -1.708633,-1.4410155 -1.091054,0 -1.811562,0.5558203 -1.811562,1.4410155 0,0.7410937 0.391133,1.0910546 1.502773,1.3586718 l 0.699922,0.1646875 c 0.514648,0.1235156 0.720508,0.308789 0.720508,0.65875 0,0.43230461 -0.432305,0.72050772 -1.091055,0.72050772 -0.411719,0 -0.741094,-0.10292968 -0.926367,-0.30878904 -0.123516,-0.12351562 -0.185273,-0.26761718 -0.226445,-0.59699218 h -0.782266 c 0.04117,1.09105464 0.638164,1.60570305 1.87332,1.60570305 1.193985,0 1.935078,-0.57640622 1.935078,-1.48218745 0,-0.6999218 -0.391132,-1.0910546 -1.3175,-1.3174999 l -0.720507,-0.1646875 c -0.617578,-0.1441015 -0.885196,-0.3499609 -0.885196,-0.6793358 0,-0.4323047 0.391133,-0.6999219 1.008711,-0.6999219 0.596992,0 0.926367,0.2470313 0.946953,0.7410937 z m 4.482588,0 c 0,-0.9263671 -0.617579,-1.4410155 -1.708633,-1.4410155 -1.091055,0 -1.811563,0.5558203 -1.811563,1.4410155 0,0.7410937 0.391133,1.0910546 1.502774,1.3586718 l 0.699922,0.1646875 c 0.514648,0.1235156 0.720507,0.308789 0.720507,0.65875 0,0.43230461 -0.432304,0.72050772 -1.091054,0.72050772 -0.411719,0 -0.741094,-0.10292968 -0.926367,-0.30878904 -0.123516,-0.12351562 -0.185274,-0.26761718 -0.226446,-0.59699218 h -0.782265 c 0.04117,1.09105464 0.638164,1.60570305 1.87332,1.60570305 1.193984,0 1.935078,-0.57640622 1.935078,-1.48218745 0,-0.6999218 -0.391133,-1.0910546 -1.3175,-1.3174999 l -0.720508,-0.1646875 c -0.617578,-0.1441015 -0.885195,-0.3499609 -0.885195,-0.6793358 0,-0.4323047 0.391133,-0.6999219 1.008711,-0.6999219 0.596992,0 0.926367,0.2470313 0.946953,0.7410937 z m 3.654003,-1.296914 v 4.69359348 h 0.76168 V -2.4509753 c 0,-0.65875 0.164687,-1.1116406 0.514648,-1.3586718 0.247031,-0.1852734 0.473477,-0.2264453 0.988125,-0.2470312 V -4.818358 c -0.123515,-0.020586 -0.185273,-0.020586 -0.288203,-0.020586 -0.494062,0 -0.844023,0.2882031 -1.276328,0.9881249 v -0.8440234 z m 6.978633,2.593828 c 0,-0.7205078 -0.06176,-1.1528124 -0.185274,-1.5027733 -0.308789,-0.7616797 -1.029297,-1.2351562 -1.914492,-1.2351562 -1.3175,0 -2.161523,1.0087109 -2.161523,2.5526561 0,1.54394518 0.823437,2.49089825 2.140937,2.49089825 1.091055,0 1.832148,-0.61757809 2.017422,-1.62628895 h -0.76168 c -0.205859,0.61757808 -0.617578,0.92636712 -1.21457,0.92636712 -0.494062,0 -0.885195,-0.20585936 -1.132227,-0.59699212 -0.185273,-0.2676172 -0.247031,-0.5352344 -0.267617,-1.0087109 z m -3.458438,-0.6175781 c 0.06176,-0.8646093 0.596992,-1.4204296 1.358672,-1.4204296 0.720508,0 1.296914,0.5969922 1.296914,1.3792577 0,0.020586 0,0.020586 -0.02059,0.041172 z m 4.328193,4.6730075 h 0.741094 v -2.44972638 c 0.391133,0.49406246 0.844023,0.69992183 1.441016,0.69992183 1.21457,0 2.017421,-0.967539 2.017421,-2.47031235 0,-1.5851171 -0.761679,-2.573242 -2.017421,-2.573242 -0.638164,0 -1.152813,0.2882031 -1.502774,0.8440234 v -0.6999219 h -0.679336 z m 2.058594,-6.0934371 c 0.823437,0 1.358672,0.7205078 1.358672,1.8527343 0,1.0704687 -0.535235,1.79097642 -1.358672,1.79097642 -0.802852,0 -1.3175,-0.72050772 -1.3175,-1.81156242 0,-1.1116405 0.514648,-1.8321483 1.3175,-1.8321483 z m 3.787812,-2.4085545 h -0.741094 v 6.54632768 h 0.741094 z m 1.971104,1.8527342 h -0.741094 v 4.69359348 h 0.741094 z m 0,-1.8527342 h -0.741094 v 0.9469531 h 0.741094 z m 4.87372,3.4172654 c -0.02059,-0.4528906 -0.123516,-0.7410937 -0.308789,-1.0087109 -0.329375,-0.4323046 -0.885195,-0.6999218 -1.543945,-0.6999218 -1.255742,0 -2.07918,1.0087109 -2.07918,2.573242 0,1.50277335 0.802852,2.47031235 2.07918,2.47031235 1.11164,0 1.832148,-0.6793359 1.914492,-1.81156235 h -0.76168 c -0.123515,0.74109367 -0.514648,1.11164052 -1.132226,1.11164052 -0.844024,0 -1.338086,-0.65874992 -1.338086,-1.77039052 0,-1.1733983 0.494062,-1.8733202 1.3175,-1.8733202 0.617578,0 1.008711,0.3499609 1.11164,1.0087109 z m 5.058994,2.69675763 c -0.08234,0.0205859 -0.10293,0.0205859 -0.164688,0.0205859 -0.247031,0 -0.391133,-0.14410155 -0.391133,-0.37054685 V -3.5626159 c 0,-0.8234374 -0.617578,-1.276328 -1.77039,-1.276328 -0.679336,0 -1.255742,0.2058594 -1.564531,0.5558203 -0.20586,0.2264453 -0.308789,0.4940624 -0.329375,0.967539 h 0.761679 c 0.06176,-0.5764062 0.411719,-0.8234375 1.111641,-0.8234375 0.65875,0 1.049883,0.2470313 1.049883,0.6999219 v 0.1852734 c 0,0.308789 -0.20586,0.4528906 -0.782266,0.5146484 -1.070468,0.1441015 -1.235156,0.1852734 -1.523359,0.2882031 -0.535234,0.2264453 -0.823438,0.6587499 -0.823438,1.2557421 0,0.86460931 0.596993,1.39984365 1.543946,1.39984365 0.596992,0 1.070468,-0.20585937 1.605703,-0.69992183 0.06176,0.49406246 0.288203,0.69992183 0.761679,0.69992183 0.164688,0 0.267618,-0.0205859 0.514649,-0.0823437 z M 54.805027,-1.4834363 c 0,0.2470312 -0.08234,0.4117187 -0.308789,0.61757807 -0.308789,0.26761717 -0.65875,0.41171872 -1.111641,0.41171872 -0.576406,0 -0.926367,-0.26761717 -0.926367,-0.74109369 0,-0.4940625 0.329375,-0.7616796 1.132227,-0.8646093 0.802851,-0.1235156 0.946953,-0.1441016 1.21457,-0.2676172 z m 5.419247,-1.9144921 c 0,-0.9263671 -0.617578,-1.4410155 -1.708632,-1.4410155 -1.091055,0 -1.811563,0.5558203 -1.811563,1.4410155 0,0.7410937 0.391133,1.0910546 1.502774,1.3586718 l 0.699922,0.1646875 c 0.514648,0.1235156 0.720507,0.308789 0.720507,0.65875 0,0.43230461 -0.432304,0.72050772 -1.091054,0.72050772 -0.411719,0 -0.741094,-0.10292968 -0.926367,-0.30878904 C 57.486345,-0.92761604 57.424587,-1.0717176 57.383415,-1.4010926 H 56.60115 c 0.04117,1.09105464 0.638164,1.60570305 1.87332,1.60570305 1.193984,0 1.935078,-0.57640622 1.935078,-1.48218745 0,-0.6999218 -0.391133,-1.0910546 -1.3175,-1.3174999 L 58.37154,-2.7597644 c -0.617578,-0.1441015 -0.885195,-0.3499609 -0.885195,-0.6793358 0,-0.4323047 0.391133,-0.6999219 1.008711,-0.6999219 0.596992,0 0.926367,0.2470313 0.946953,0.7410937 z m 0,0"
       style="fill:#000000;fill-opacity:1;fill-rule:nonzero;stroke:none"
       aria-label="Acrossreplicas"
       transform="matrix(0,-0.75901333,0.75901333,0,9.8876667,127.39853)" />
    <path
       id="path109"
       d="m 118.3908,-119.72227 c 1.58505,-0.5284 3.52236,0 5.28355,1.7612 l 39.26419,39.26417 c 1.7612,1.7612 3.6985,2.2896 5.28356,1.76119 -0.5284,1.58506 -1e-5,3.52236 1.76119,5.28356 l 39.26419,39.26421 c 1.7612,1.76119 2.2896,3.6985 1.7612,5.28355"
       style="fill:none;stroke:#000000;stroke-width:0.79701;stroke-linecap:round;stroke-linejoin:round;stroke-miterlimit:10;stroke-dasharray:none;stroke-opacity:1"
       transform="matrix(0.75901333,0,0,-0.75901333,114.10931,57.280876)" />
    <path
       id="path110"
       d="M 6.6654489,5.8090362e-4 8.3249007,-6.5498867 H 7.4223918 L 6.1996379,-1.222173 4.7148652,-6.5498867 H 3.8123564 L 2.3566969,-1.222173 1.1339429,-6.5498867 H 0.20232089 L 1.8617727,5.8090362e-4 h 0.931622 L 4.2490542,-5.3853591 5.76294,5.8090362e-4 Z M 9.802395,-4.6866426 H 9.0745653 V 5.8090362e-4 H 9.802395 Z m 0,-1.8632441 H 9.0745653 v 0.9607353 H 9.802395 Z m 2.925876,1.8632441 h -0.756943 v -1.3100935 h -0.756943 v 1.3100935 h -0.64049 v 0.5822638 h 0.64049 v 3.5809223 c 0,0.46581103 0.320245,0.72782973 0.902509,0.72782973 0.203792,0 0.378471,-0.0291132 0.611377,-0.0582264 v -0.64049016 c -0.08734,0.0291132 -0.203793,0.0291132 -0.349359,0.0291132 -0.320245,0 -0.407584,-0.0582264 -0.407584,-0.40758465 V -4.1043788 h 0.756943 z M 13.58711,-6.5498867 V 5.8090362e-4 h 0.727829 V -2.5904929 c 0,-0.9607353 0.494925,-1.6012255 1.280981,-1.6012255 0.232905,0 0.465811,0.08734 0.669603,0.2329056 0.203792,0.1455659 0.291132,0.3784714 0.291132,0.6987165 V 5.8090362e-4 h 0.756943 V -3.5512282 c 0,-0.7860561 -0.582264,-1.2809803 -1.484773,-1.2809803 -0.669603,0 -1.077188,0.2037923 -1.513886,0.7860561 v -2.5037343 z m 5.68435,1.8632441 H 18.54363 V 5.8090362e-4 h 0.72783 z m 0,-1.8632441 h -0.72783 v 0.9607353 h 0.72783 z m 1.291898,1.859605 v 4.68722345 h 0.727829 V -2.5941321 c 0,-0.9607352 0.524038,-1.6012254 1.280981,-1.6012254 0.611377,0 0.960735,0.3493583 0.960735,0.9316221 v 3.26067715 h 0.756943 V -3.5548673 c 0,-0.7860561 -0.582264,-1.2809804 -1.484773,-1.2809804 -0.698716,0 -1.164527,0.2620187 -1.572112,0.9316221 v -0.7860561 z m 9.10151,0.00364 h -0.756942 v -1.3100935 h -0.756943 v 1.3100935 h -0.640491 v 0.5822638 h 0.640491 v 3.5809223 c 0,0.46581103 0.320245,0.72782973 0.902508,0.72782973 0.203793,0 0.378472,-0.0291132 0.611377,-0.0582264 v -0.64049016 c -0.08734,0.0291132 -0.203792,0.0291132 -0.349358,0.0291132 -0.320245,0 -0.407584,-0.0582264 -0.407584,-0.40758465 V -4.1043779 h 0.756942 z m 4.818233,2.5910739 c 0,-0.7278298 -0.05823,-1.1645276 -0.174679,-1.5138859 -0.320245,-0.7569429 -1.018962,-1.2227539 -1.92147,-1.2227539 -1.310094,0 -2.154376,0.9898484 -2.154376,2.5619606 0,1.54299907 0.815169,2.47462113 2.154376,2.47462113 1.077188,0 1.805017,-0.61137698 2.00881,-1.63033863 h -0.756943 c -0.203793,0.611377 -0.64049,0.93162209 -1.222754,0.93162209 -0.494924,0 -0.873396,-0.20379233 -1.135415,-0.58226379 -0.174679,-0.2911319 -0.232905,-0.5531506 -0.262018,-1.0189616 z m -3.435356,-0.611377 c 0.05823,-0.8733957 0.582264,-1.4265463 1.339207,-1.4265463 0.727829,0 1.310093,0.5822638 1.310093,1.3683199 0,0.029113 0,0.029113 -0.02911,0.058226 z m 4.461596,-1.9796969 V 5.8090362e-4 h 0.72783 V -2.5904929 c 0,-0.9607353 0.524037,-1.6012255 1.28098,-1.6012255 0.611377,0 0.960735,0.3493583 0.960735,0.9316221 V 5.8090362e-4 h 0.756943 V -3.5512282 c 0,-0.7860561 -0.582263,-1.2809803 -1.484772,-1.2809803 -0.698717,0 -1.164528,0.2620187 -1.572112,0.931622 v -0.7860561 z m 8.275424,1.2809804 c 0,-0.9025089 -0.611377,-1.4265463 -1.717678,-1.4265463 -1.077188,0 -1.805018,0.5531506 -1.805018,1.4265463 0,0.7569429 0.407585,1.1063012 1.513886,1.3683199 l 0.698717,0.1746791 c 0.494924,0.1164527 0.727829,0.2911319 0.727829,0.6404902 0,0.43669779 -0.436697,0.72782969 -1.106301,0.72782969 -0.407584,0 -0.727829,-0.11645276 -0.931622,-0.32024509 -0.116453,-0.11645275 -0.174679,-0.2620187 -0.232905,-0.5822638 H 40.17473 c 0.02911,1.07718802 0.64049,1.60122543 1.863244,1.60122543 1.193641,0 1.92147,-0.58226379 1.92147,-1.48477263 0,-0.6987166 -0.378471,-1.077188 -1.310093,-1.3100935 l -0.72783,-0.1746792 c -0.611377,-0.1455659 -0.873396,-0.3493582 -0.873396,-0.6696033 0,-0.4366979 0.378472,-0.6987166 1.018962,-0.6987166 0.582264,0 0.902509,0.2329055 0.931622,0.7278298 z m 2.998659,-1.4265463 c -1.310094,0 -2.125263,0.931622 -2.125263,2.5328475 0,1.57211217 0.786056,2.50373423 2.125263,2.50373423 1.310093,0 2.125263,-0.93162206 2.125263,-2.47462113 0,-1.6303386 -0.786057,-2.5619606 -2.125263,-2.5619606 z m 0,0.6987165 c 0.844282,0 1.339206,0.6696034 1.339206,1.8632441 0,1.077188 -0.524037,1.77590459 -1.339206,1.77590459 -0.844283,0 -1.339207,-0.66960339 -1.339207,-1.80501769 0,-1.1354144 0.494924,-1.834131 1.339207,-1.834131 z m 3.151502,-0.5531506 V 5.8090362e-4 h 0.756943 V -2.444927 c 0,-0.6696033 0.17468,-1.1063012 0.524038,-1.3683199 0.262018,-0.1746791 0.465811,-0.2329055 0.989848,-0.2329055 v -0.7569429 c -0.116453,-0.029113 -0.174679,-0.029113 -0.291132,-0.029113 -0.494924,0 -0.844282,0.2911319 -1.28098,0.9898484 v -0.8442825 z m 6.303006,1.2809804 c 0,-0.9025089 -0.611377,-1.4265463 -1.717678,-1.4265463 -1.077188,0 -1.805018,0.5531506 -1.805018,1.4265463 0,0.7569429 0.407585,1.1063012 1.513886,1.3683199 l 0.698716,0.1746791 c 0.494925,0.1164527 0.72783,0.2911319 0.72783,0.6404902 0,0.43669779 -0.436698,0.72782969 -1.106301,0.72782969 -0.407585,0 -0.72783,-0.11645276 -0.931622,-0.32024509 -0.116453,-0.11645275 -0.174679,-0.2620187 -0.232906,-0.5822638 h -0.756943 c 0.02911,1.07718802 0.640491,1.60122543 1.863245,1.60122543 1.19364,0 1.92147,-0.58226379 1.92147,-1.48477263 0,-0.6987166 -0.378471,-1.077188 -1.310093,-1.3100935 l -0.72783,-0.1746792 c -0.611377,-0.1455659 -0.873396,-0.3493582 -0.873396,-0.6696033 0,-0.4366979 0.378472,-0.6987166 1.018962,-0.6987166 0.582264,0 0.902509,0.2329055 0.931622,0.7278298 z m 0,0"
       style="fill:#000000;fill-opacity:1;fill-rule:nonzero;stroke:none"
       aria-label="Withintensors"
       transform="matrix(0.53669833,-0.53669833,0.53669833,0.53669833,231.34423,136.31921)" />
  </g>
</svg>
