<?xml version="1.0" encoding="UTF-8" standalone="no"?>
<!-- Created with Inkscape (http://www.inkscape.org/) -->

<svg
   version="1.1"
   id="svg1"
   width="196.17599"
   height="152.12132"
   viewBox="0 0 196.17599 152.12132"
   xmlns="http://www.w3.org/2000/svg"
   xmlns:svg="http://www.w3.org/2000/svg">
  <defs
     id="defs1" />
  <g
     id="g1">
    <path
       id="path1"
       d="M -14.17339,-14.17339 H 14.1734 V 14.1734 h -28.34679 z"
       style="fill:#ff3333;fill-opacity:1;fill-rule:nonzero;stroke:#ffffff;stroke-width:0.74721;stroke-linecap:butt;stroke-linejoin:miter;stroke-miterlimit:10;stroke-dasharray:none;stroke-opacity:1"
       transform="matrix(0.89333333,0,0,-0.89333333,79.219907,65.41976)" />
    <path
       id="path2"
       d="M 7.2749515,-7.8551026 C 7.1700075,-8.5197481 7.0475728,-8.8520709 6.7852127,-9.219375 6.2604925,-9.9539832 5.3159963,-10.39125 4.214084,-10.39125 c -1.2593284,0 -2.291278,0.5597015 -2.9034515,1.5916511 -0.61217354,0.9794776 -0.85704295,2.1163713 -0.85704295,3.9703825 0,1.7490671 0.22737873,2.8334888 0.73460825,3.6555504 0.5946828,0.94449622 1.6441231,1.50419772 2.8509794,1.50419772 2.0289179,0 3.410681,-1.52168842 3.410681,-3.72551302 0,-1.9589553 -1.2068563,-3.305737 -2.9559235,-3.305737 -0.8395522,0 -1.3992537,0.2448694 -2.0289179,0.9095149 0.052472,-1.0844216 0.052472,-1.0844216 0.1224347,-1.5041977 0.1923974,-0.9270056 0.7695895,-1.4692164 1.5741604,-1.4692164 0.6471549,0 0.9794777,0.26236 1.2418377,0.9095149 z m -3.2707556,2.7285448 c 0.9270056,0 1.5391791,0.7346082 1.5391791,1.8540112 0,1.0844216 -0.6646455,1.8715018 -1.5566698,1.8715018 -0.9270056,0 -1.5566698,-0.7520989 -1.5566698,-1.8365205 0,-1.1019123 0.6296642,-1.8889925 1.5741605,-1.8889925 z m 0,0"
       style="fill:#000000;fill-opacity:1;fill-rule:nonzero;stroke:none"
       aria-label="6"
       transform="matrix(0.89333333,0,0,0.89333333,75.657293,69.8766)" />
    <path
       id="path3"
       d="M 14.9206,-14.17339 H 43.26739 V 14.1734 H 14.9206 Z"
       style="fill:#ff3333;fill-opacity:1;fill-rule:nonzero;stroke:#ffffff;stroke-width:0.74721;stroke-linecap:butt;stroke-linejoin:miter;stroke-miterlimit:10;stroke-dasharray:none;stroke-opacity:1"
       transform="matrix(0.89333333,0,0,-0.89333333,79.219907,65.41976)" />
    <path
       id="path4"
       d="M 7.3466465,-1.8015042 H 3.0439412 c 0.2623601,-0.5422108 0.5771922,-0.8220616 2.0638993,-1.9064832 1.7665578,-1.2943097 2.2737873,-2.0638993 2.2737873,-3.4456623 0,-1.9764459 -1.3467817,-3.2357743 -3.4806437,-3.2357743 -2.0988806,0 -3.34071824,1.2593284 -3.34071824,3.410681 0,0.087453 0,0.1923974 0.0174907,0.3498134 H 2.5017304 v -0.3323227 c 0,-1.119403 0.5247202,-1.7840485 1.4517258,-1.7840485 0.8745335,0 1.434235,0.6121735 1.434235,1.6266324 0,1.119403 -0.3673041,1.5741605 -2.60611,3.1658116 C 1.0674953,-2.7809818 0.52528451,-1.8714669 0.43783116,3.4981343e-5 H 7.3466465 Z m 0,0"
       style="fill:#000000;fill-opacity:1;fill-rule:nonzero;stroke:none"
       aria-label="2"
       transform="matrix(0.89333333,0,0,0.89333333,101.64793,69.957)" />
    <path
       id="path5"
       d="M 44.0146,-14.17339 H 72.36139 V 14.1734 H 44.0146 Z"
       style="fill:#ff3333;fill-opacity:1;fill-rule:nonzero;stroke:#ffffff;stroke-width:0.74721;stroke-linecap:butt;stroke-linejoin:miter;stroke-miterlimit:10;stroke-dasharray:none;stroke-opacity:1"
       transform="matrix(0.89333333,0,0,-0.89333333,79.219907,65.41976)" />
    <path
       id="path6"
       d="M 7.0126833,-10.163871 H 1.5730844 L 0.68106017,-4.4968937 H 2.4825993 c 0.2098881,-0.5072294 0.6646456,-0.7870802 1.2943097,-0.7870802 1.014459,0 1.6266325,0.7346082 1.6266325,1.9764459 0,1.1893657 -0.6296642,1.9064832 -1.6266325,1.9064832 -0.8745335,0 -1.3642723,-0.4372668 -1.4167444,-1.2593283 H 0.38371875 c 0.0349813,1.78404847 1.38176305,2.99090482 3.35820895,2.99090482 2.186334,0 3.673041,-1.48670712 3.673041,-3.69053172 0,-2.0813899 -1.2943097,-3.515625 -3.1658115,-3.515625 -0.6821362,0 -1.1893657,0.1749067 -1.7665579,0.6121735 l 0.3323228,-2.1163713 h 4.1977612 z m 0,0"
       style="fill:#000000;fill-opacity:1;fill-rule:nonzero;stroke:none"
       aria-label="5"
       transform="matrix(0.89333333,0,0,0.89333333,127.63768,69.8766)" />
    <path
       id="path7"
       d="M -14.17339,-43.2674 H 14.1734 v 28.34679 h -28.34679 z"
       style="fill:#ff3333;fill-opacity:1;fill-rule:nonzero;stroke:#ffffff;stroke-width:0.74721;stroke-linecap:butt;stroke-linejoin:miter;stroke-miterlimit:10;stroke-dasharray:none;stroke-opacity:1"
       transform="matrix(0.89333333,0,0,-0.89333333,79.219907,65.41976)" />
    <path
       id="path8"
       d="m 3.1122985,-4.5476334 c 0.6996269,0 0.8395522,0.017491 1.171875,0.104944 0.6821362,0.1749068 1.1019123,0.7695896 1.1019123,1.5216885 0,0.8920242 -0.6296642,1.5216884 -1.5041977,1.5216884 -0.9444963,0 -1.4517258,-0.5422108 -1.5216885,-1.5916511 H 0.41873507 c 0.0174907,2.04640856 1.34678173,3.32322759 3.42817163,3.32322759 2.1688433,0 3.5506064,-1.27681903 3.5506064,-3.25326489 0,-1.1893657 -0.5072295,-1.9764459 -1.6616138,-2.5361474 0.9444962,-0.5771922 1.329291,-1.224347 1.329291,-2.1513526 0,-1.6965952 -1.2593284,-2.7810171 -3.2182836,-2.7810171 -1.171875,0 -2.1338619,0.4022857 -2.7110541,1.1543846 -0.40228544,0.5072295 -0.59468282,1.1893657 -0.59468282,2.0988806 v 0.157416 H 2.4126716 c 0.017491,-0.5422108 0.052472,-0.8045708 0.1574161,-1.0669309 0.1749067,-0.4372668 0.6471548,-0.7171176 1.224347,-0.7171176 0.8045709,0 1.2593284,0.4897388 1.2593284,1.3292911 0,1.0144589 -0.5771922,1.5391791 -1.7665579,1.5391791 H 3.1122985 Z m 12.2084885,2.7460355 h -4.302705 c 0.26236,-0.5422109 0.577192,-0.8220616 2.063899,-1.9064833 1.766558,-1.2943097 2.273788,-2.0638992 2.273788,-3.4456623 0,-1.9764459 -1.346782,-3.2357745 -3.480644,-3.2357745 -2.0988806,0 -3.3407183,1.2593286 -3.3407183,3.4106812 0,0.087453 0,0.1923974 0.017491,0.3498135 h 1.9239733 v -0.3323228 c 0,-1.119403 0.52472,-1.7840485 1.451726,-1.7840485 0.874534,0 1.434235,0.6121735 1.434235,1.6266325 0,1.119403 -0.367304,1.5741604 -2.60611,3.1658115 -1.7140855,1.171875 -2.2562963,2.08139 -2.3437497,3.952891831343 h 6.9088147 z m 0,0"
       style="fill:#000000;fill-opacity:1;fill-rule:nonzero;stroke:none"
       aria-label="32"
       transform="matrix(0.89333333,0,0,0.89333333,72.09468,95.86724)" />
    <path
       id="path9"
       d="m 14.9206,-43.2674 h 28.34679 v 28.34679 H 14.9206 Z"
       style="fill:#ff3333;fill-opacity:1;fill-rule:nonzero;stroke:#ffffff;stroke-width:0.74721;stroke-linecap:butt;stroke-linejoin:miter;stroke-miterlimit:10;stroke-dasharray:none;stroke-opacity:1"
       transform="matrix(0.89333333,0,0,-0.89333333,79.219907,65.41976)" />
    <path
       id="path10"
       d="M 3.4123722,-7.0138181 V -5.8768657e-5 H 5.4237994 V -10.162139 H 4.0945084 C 3.7796763,-8.9727733 2.730236,-8.3431091 0.98116884,-8.3431091 v 1.329291 z M 14.991197,-10.162139 H 9.5515979 l -0.8920242,5.6669776 h 1.8015393 c 0.209888,-0.5072295 0.664645,-0.7870802 1.29431,-0.7870802 1.014459,0 1.626632,0.7346082 1.626632,1.9764459 0,1.1893657 -0.629664,1.9064832 -1.626632,1.9064832 -0.874534,0 -1.364273,-0.4372668 -1.416745,-1.2593284 H 8.3622323 c 0.034981,1.78404855 1.381763,2.99090489 3.3582087,2.99090489 2.186334,0 3.673041,-1.48670709 3.673041,-3.69053169 0,-2.0813899 -1.294309,-3.515625 -3.165811,-3.515625 -0.682136,0 -1.189366,0.1749067 -1.766558,0.6121735 l 0.332323,-2.1163713 h 4.197761 z m 0,0"
       style="fill:#000000;fill-opacity:1;fill-rule:nonzero;stroke:none"
       aria-label="15"
       transform="matrix(0.89333333,0,0,0.89333333,98.084427,95.86724)" />
    <path
       id="path11"
       d="m 44.0146,-43.2674 h 28.34679 v 28.34679 H 44.0146 Z"
       style="fill:#ff3333;fill-opacity:1;fill-rule:nonzero;stroke:#ffffff;stroke-width:0.74721;stroke-linecap:butt;stroke-linejoin:miter;stroke-miterlimit:10;stroke-dasharray:none;stroke-opacity:1"
       transform="matrix(0.89333333,0,0,-0.89333333,79.219907,65.41976)" />
    <path
       id="path12"
       d="M 7.4849314,-3.9195159 H 6.4180005 V -10.163686 H 4.0567598 l -3.70802239,6.2091888 v 1.6965951 H 4.4240639 v 2.25629669 H 6.4180005 V -2.2579021 h 1.0669309 z m -3.0608675,0 H 1.7654818 l 2.6585821,-4.3376865 z m 0,0"
       style="fill:#000000;fill-opacity:1;fill-rule:nonzero;stroke:none"
       aria-label="4"
       transform="matrix(0.89333333,0,0,0.89333333,127.63768,95.946747)" />
    <path
       id="path13"
       d="M -14.17339,-72.36139 H 14.1734 v 28.34679 h -28.34679 z"
       style="fill:#ff3333;fill-opacity:1;fill-rule:nonzero;stroke:#ffffff;stroke-width:0.74721;stroke-linecap:butt;stroke-linejoin:miter;stroke-miterlimit:10;stroke-dasharray:none;stroke-opacity:1"
       transform="matrix(0.89333333,0,0,-0.89333333,79.219907,65.41976)" />
    <path
       id="path14"
       d="M 3.4095131,-7.0136325 V 1.2686567e-4 H 5.4209403 V -10.161953 h -1.329291 c -0.3148321,1.1893653 -1.3642724,1.8190295 -3.1133396,1.8190295 v 1.329291 z m 0,0"
       style="fill:#000000;fill-opacity:1;fill-rule:nonzero;stroke:none"
       aria-label="1"
       transform="matrix(0.89333333,0,0,0.89333333,75.657293,121.93739)" />
    <path
       id="path15"
       d="M 14.9206,-72.36139 H 43.26739 V -44.0146 H 14.9206 Z"
       style="fill:#ff3333;fill-opacity:1;fill-rule:nonzero;stroke:#ffffff;stroke-width:0.74721;stroke-linecap:butt;stroke-linejoin:miter;stroke-miterlimit:10;stroke-dasharray:none;stroke-opacity:1"
       transform="matrix(0.89333333,0,0,-0.89333333,79.219907,65.41976)" />
    <path
       id="path16"
       d="M 5.8599394,-5.5462421 C 6.2097528,-5.7211488 6.3671688,-5.8260928 6.5245849,-5.9660182 6.944361,-6.350813 7.1892304,-6.9804771 7.1892304,-7.627632 c 0,-1.5916511 -1.381763,-2.763526 -3.2532649,-2.763526 -1.9064832,0 -3.27075561,1.1718749 -3.27075561,2.7810167 0,0.9619869 0.40228541,1.5916511 1.31180041,2.0638992 -1.17187504,0.6471549 -1.66161384,1.4167444 -1.66161384,2.6236008 0,1.92397386 1.48670704,3.2532649 3.62056904,3.2532649 2.1163713,0 3.6030783,-1.32929104 3.6030783,-3.2532649 0,-1.2068564 -0.4897388,-1.9764459 -1.6791044,-2.6236008 z M 3.9534562,-8.7645257 c 0.8745335,0 1.5041977,0.5422109 1.5041977,1.3292911 0,0.7870802 -0.6296642,1.329291 -1.5041977,1.329291 -0.8920243,0 -1.5216885,-0.5422108 -1.5216885,-1.3467817 0,-0.7695895 0.6121735,-1.3118004 1.5216885,-1.3118004 z m -0.034981,4.0228545 c 0.9794776,0 1.6091418,0.6646455 1.6091418,1.7315765 0,0.9794776 -0.6296642,1.6091418 -1.6091418,1.6091418 -0.9794776,0 -1.5916511,-0.6296642 -1.5916511,-1.6441231 0,-1.0319497 0.6296642,-1.6965952 1.5916511,-1.6965952 z m 0,0"
       style="fill:#000000;fill-opacity:1;fill-rule:nonzero;stroke:none"
       aria-label="8"
       transform="matrix(0.89333333,0,0,0.89333333,101.64793,121.85699)" />
    <path
       id="path17"
       d="M 44.0146,-72.36139 H 72.36139 V -44.0146 H 44.0146 Z"
       style="fill:#ff3333;fill-opacity:1;fill-rule:nonzero;stroke:#ffffff;stroke-width:0.74721;stroke-linecap:butt;stroke-linejoin:miter;stroke-miterlimit:10;stroke-dasharray:none;stroke-opacity:1"
       transform="matrix(0.89333333,0,0,-0.89333333,79.219907,65.41976)" />
    <path
       id="path18"
       d="m 3.1122635,-4.5492738 c 0.6996269,0 0.8395523,0.017491 1.171875,0.104944 0.6821362,0.1749068 1.1019123,0.7695896 1.1019123,1.5216885 0,0.8920242 -0.6296641,1.5216884 -1.5041977,1.5216884 -0.9444963,0 -1.4517258,-0.5422108 -1.5216885,-1.5916511 H 0.41870009 c 0.0174907,2.04640857 1.34678171,3.3232276 3.42817161,3.3232276 2.1688433,0 3.5506064,-1.27681903 3.5506064,-3.2532649 0,-1.1893657 -0.5072295,-1.9764459 -1.6616138,-2.5361474 0.9444962,-0.5771922 1.329291,-1.224347 1.329291,-2.1513526 0,-1.6965952 -1.2593283,-2.7810167 -3.2182836,-2.7810167 -1.171875,0 -2.1338619,0.4022853 -2.7110541,1.1543842 -0.40228542,0.5072295 -0.59468281,1.1893657 -0.59468281,2.0988806 v 0.1574161 H 2.4126367 c 0.017491,-0.5422109 0.052472,-0.8045709 0.157416,-1.066931 0.1749067,-0.4372668 0.6471549,-0.7171176 1.224347,-0.7171176 0.8045709,0 1.2593284,0.4897389 1.2593284,1.3292911 0,1.0144589 -0.5771922,1.5391791 -1.7665579,1.5391791 H 3.1122635 Z m 0,0"
       style="fill:#000000;fill-opacity:1;fill-rule:nonzero;stroke:none"
       aria-label="3"
       transform="matrix(0.89333333,0,0,0.89333333,127.63768,121.85699)" />
    <path
       id="path19"
       d="M 14.9206,14.9206 H 43.26739 V 43.26739 H 14.9206 Z"
       style="fill:#ada60a;fill-opacity:1;fill-rule:nonzero;stroke:#ffffff;stroke-width:0.74721;stroke-linecap:butt;stroke-linejoin:miter;stroke-miterlimit:10;stroke-dasharray:none;stroke-opacity:1"
       transform="matrix(0.89333333,0,0,-0.89333333,79.219907,65.41976)" />
    <path
       id="path20"
       d="m 5.8599394,-5.5436936 c 0.3498134,-0.1749067 0.5072294,-0.2798507 0.6646455,-0.4197761 0.4197761,-0.3847948 0.6646455,-1.0144589 0.6646455,-1.6616138 0,-1.5916511 -1.381763,-2.7635265 -3.2532649,-2.7635265 -1.9064832,0 -3.27075561,1.1718754 -3.27075561,2.7810172 0,0.9619869 0.40228541,1.5916511 1.31180041,2.0638992 -1.17187504,0.6471549 -1.66161384,1.4167444 -1.66161384,2.6236008 0,1.92397386 1.48670704,3.25326491 3.62056904,3.25326491 2.1163713,0 3.6030783,-1.32929105 3.6030783,-3.25326491 0,-1.2068564 -0.4897388,-1.9764459 -1.6791044,-2.6236008 z M 3.9534562,-8.7619771 c 0.8745335,0 1.5041977,0.5422108 1.5041977,1.329291 0,0.7870802 -0.6296642,1.329291 -1.5041977,1.329291 -0.8920243,0 -1.5216885,-0.5422108 -1.5216885,-1.3467817 0,-0.7695895 0.6121735,-1.3118003 1.5216885,-1.3118003 z m -0.034981,4.0228544 c 0.9794776,0 1.6091418,0.6646456 1.6091418,1.7315765 0,0.9794776 -0.6296642,1.6091418 -1.6091418,1.6091418 -0.9794776,0 -1.5916511,-0.6296642 -1.5916511,-1.6441231 0,-1.0319496 0.6296642,-1.6965952 1.5916511,-1.6965952 z m 0,0"
       style="fill:#000000;fill-opacity:1;fill-rule:nonzero;stroke:none"
       aria-label="8"
       transform="matrix(0.89333333,0,0,0.89333333,101.64793,43.88596)" />
    <path
       id="path21"
       d="M 44.0146,14.9206 H 72.36139 V 43.26739 H 44.0146 Z"
       style="fill:#ada60a;fill-opacity:1;fill-rule:nonzero;stroke:#ffffff;stroke-width:0.74721;stroke-linecap:butt;stroke-linejoin:miter;stroke-miterlimit:10;stroke-dasharray:none;stroke-opacity:1"
       transform="matrix(0.89333333,0,0,-0.89333333,79.219907,65.41976)" />
    <path
       id="path22"
       d="M 7.5723848,-10.163778 H 0.41870009 v 1.784049 H 5.4735042 c -0.6121735,0.6646455 -1.8365205,2.5186567 -2.238806,3.3931903 -0.6996268,1.4867071 -1.0494403,2.8159981 -1.329291,4.98484141 H 3.9343251 C 4.1092318,-3.2199809 5.1586721,-5.6861656 7.5723848,-8.5896171 Z m 0,0"
       style="fill:#000000;fill-opacity:1;fill-rule:nonzero;stroke:none"
       aria-label="7"
       transform="matrix(0.89333333,0,0,0.89333333,127.63768,43.96636)" />
    <path
       id="path23"
       d="m 73.1086,14.9206 h 28.34679 V 43.26739 H 73.1086 Z"
       style="fill:#ada60a;fill-opacity:1;fill-rule:nonzero;stroke:#ffffff;stroke-width:0.74721;stroke-linecap:butt;stroke-linejoin:miter;stroke-miterlimit:10;stroke-dasharray:none;stroke-opacity:1"
       transform="matrix(0.89333333,0,0,-0.89333333,79.219907,65.41976)" />
    <path
       id="path24"
       d="M 7.0144156,-10.161231 H 1.5748167 L 0.68279244,-4.4942533 H 2.4843316 c 0.2098881,-0.5072294 0.6646455,-0.7870802 1.2943097,-0.7870802 1.014459,0 1.6266325,0.7346082 1.6266325,1.9764459 0,1.1893657 -0.6296642,1.9064832 -1.6266325,1.9064832 -0.8745336,0 -1.3642724,-0.4372668 -1.4167444,-1.2593283 H 0.38545103 c 0.0349813,1.78404846 1.38176307,2.99090481 3.35820897,2.99090481 2.1863339,0 3.673041,-1.48670711 3.673041,-3.69053171 0,-2.0813899 -1.2943097,-3.515625 -3.1658115,-3.515625 -0.6821362,0 -1.1893657,0.1749067 -1.7665579,0.6121735 l 0.3323228,-2.1163713 h 4.1977612 z m 0,0"
       style="fill:#000000;fill-opacity:1;fill-rule:nonzero;stroke:none"
       aria-label="5"
       transform="matrix(0.89333333,0,0,0.89333333,153.62832,43.88596)" />
    <path
       id="path25"
       d="m 73.1086,-14.17339 h 28.34679 V 14.1734 H 73.1086 Z"
       style="fill:#ada60a;fill-opacity:1;fill-rule:nonzero;stroke:#ffffff;stroke-width:0.74721;stroke-linecap:butt;stroke-linejoin:miter;stroke-miterlimit:10;stroke-dasharray:none;stroke-opacity:1"
       transform="matrix(0.89333333,0,0,-0.89333333,79.219907,65.41976)" />
    <path
       id="path26"
       d="M 3.4113372,-7.0137243 V 3.4981343e-5 H 5.4227645 V -10.162045 H 4.0934734 C 3.7786413,-8.9726796 2.729201,-8.3430154 0.98013386,-8.3430154 v 1.3292911 z m 0,0"
       style="fill:#000000;fill-opacity:1;fill-rule:nonzero;stroke:none"
       aria-label="1"
       transform="matrix(0.89333333,0,0,0.89333333,153.62832,69.957)" />
    <path
       id="path27"
       d="m 73.1086,-43.2674 h 28.34679 v 28.34679 H 73.1086 Z"
       style="fill:#ada60a;fill-opacity:1;fill-rule:nonzero;stroke:#ffffff;stroke-width:0.74721;stroke-linecap:butt;stroke-linejoin:miter;stroke-miterlimit:10;stroke-dasharray:none;stroke-opacity:1"
       transform="matrix(0.89333333,0,0,-0.89333333,79.219907,65.41976)" />
    <path
       id="path28"
       d="M 7.3467383,-1.8031446 H 3.0440331 c 0.2623601,-0.5422108 0.5771922,-0.8220616 2.0638993,-1.9064832 1.7665578,-1.2943097 2.2737873,-2.0638993 2.2737873,-3.4456623 0,-1.9764459 -1.3467817,-3.2357739 -3.4806437,-3.2357739 -2.0988806,0 -3.34071826,1.259328 -3.34071826,3.4106806 0,0.087453 0,0.1923974 0.0174907,0.3498134 H 2.5018223 v -0.3323227 c 0,-1.119403 0.5247201,-1.7840485 1.4517257,-1.7840485 0.8745336,0 1.4342351,0.6121735 1.4342351,1.6266324 0,1.119403 -0.3673041,1.5741605 -2.6061101,3.1658116 -1.7140858,1.171875 -2.2562966,2.0813899 -2.34374996,3.95289179 H 7.3467383 Z m 0,0"
       style="fill:#000000;fill-opacity:1;fill-rule:nonzero;stroke:none"
       aria-label="2"
       transform="matrix(0.89333333,0,0,0.89333333,153.62832,95.946747)" />
    <path
       id="path29"
       d="M 44.0146,44.0146 H 72.36139 V 72.36139 H 44.0146 Z"
       style="fill:#3382aa;fill-opacity:1;fill-rule:nonzero;stroke:#ffffff;stroke-width:0.74721;stroke-linecap:butt;stroke-linejoin:miter;stroke-miterlimit:10;stroke-dasharray:none;stroke-opacity:1"
       transform="matrix(0.89333333,0,0,-0.89333333,79.219907,65.41976)" />
    <path
       id="path30"
       d="M 7.3450061,-1.8005961 H 3.0423008 c 0.2623601,-0.5422108 0.5771922,-0.8220615 2.0638993,-1.9064832 1.7665578,-1.2943097 2.2737873,-2.0638992 2.2737873,-3.4456623 0,-1.9764459 -1.3467817,-3.2357744 -3.4806437,-3.2357744 -2.0988805,0 -3.34071823,1.2593285 -3.34071823,3.4106811 0,0.087453 0,0.1923974 0.0174907,0.3498134 H 2.50009 v -0.3323227 c 0,-1.119403 0.5247202,-1.7840485 1.4517258,-1.7840485 0.8745335,0 1.434235,0.6121735 1.434235,1.6266324 0,1.119403 -0.3673041,1.5741605 -2.60611,3.1658116 -1.7140859,1.171875 -2.25629668,2.0813899 -2.34375004,3.95289179701 H 7.3450061 Z m 0,0"
       style="fill:#000000;fill-opacity:1;fill-rule:nonzero;stroke:none"
       aria-label="2"
       transform="matrix(0.89333333,0,0,0.89333333,127.63768,17.97572)" />
    <path
       id="path31"
       d="m 73.1086,44.0146 h 28.34679 V 72.36139 H 73.1086 Z"
       style="fill:#3382aa;fill-opacity:1;fill-rule:nonzero;stroke:#ffffff;stroke-width:0.74721;stroke-linecap:butt;stroke-linejoin:miter;stroke-miterlimit:10;stroke-dasharray:none;stroke-opacity:1"
       transform="matrix(0.89333333,0,0,-0.89333333,79.219907,65.41976)" />
    <path
       id="path32"
       d="M 3.4113372,-7.0128162 V 9.4309701e-4 H 5.4227645 V -10.161137 H 4.0934734 C 3.7786413,-8.9717715 2.729201,-8.3421073 0.98013386,-8.3421073 v 1.3292911 z m 0,0"
       style="fill:#000000;fill-opacity:1;fill-rule:nonzero;stroke:none"
       aria-label="1"
       transform="matrix(0.89333333,0,0,0.89333333,153.62832,17.97572)" />
    <path
       id="path33"
       d="m 102.2026,44.0146 h 28.34679 V 72.36139 H 102.2026 Z"
       style="fill:#3382aa;fill-opacity:1;fill-rule:nonzero;stroke:#ffffff;stroke-width:0.74721;stroke-linecap:butt;stroke-linejoin:miter;stroke-miterlimit:10;stroke-dasharray:none;stroke-opacity:1"
       transform="matrix(0.89333333,0,0,-0.89333333,79.219907,65.41976)" />
    <path
       id="path34"
       d="m 0.54122668,-2.3631236 c 0.052472,1.55666978 1.36427242,2.7110541 3.11333952,2.7110541 1.3118004,0 2.291278,-0.54221082 2.9034515,-1.5916511 C 7.0827379,-2.1357449 7.39757,-3.674924 7.39757,-5.3015564 7.39757,-6.7882635 7.1527006,-7.9601385 6.6979431,-8.7297281 6.0507882,-9.8141497 5.05382,-10.391342 3.8294729,-10.391342 c -2.0289179,0 -3.42817159,1.4692165 -3.42817159,3.5855878 0,2.0988806 1.22434699,3.5331157 3.04337689,3.5331157 0.5072294,0 0.9969683,-0.1399254 1.3118003,-0.3673041 0.1923974,-0.1399254 0.2973415,-0.2623601 0.6296642,-0.6296642 0,1.9239739 -0.5422108,2.8859608 -1.6791045,2.8859608 -0.6996268,0 -1.1893656,-0.3847948 -1.224347,-0.9794776 z M 3.7770009,-8.7472187 c 0.961987,0 1.5741605,0.7520988 1.5741605,1.9414645 0,1.119403 -0.6296642,1.8715019 -1.5566698,1.8715019 -0.9095149,0 -1.4867071,-0.7346082 -1.4867071,-1.8889926 0,-1.1893656 0.5771922,-1.9239738 1.4692164,-1.9239738 z m 0,0"
       style="fill:#000000;fill-opacity:1;fill-rule:nonzero;stroke:none"
       aria-label="9"
       transform="matrix(0.89333333,0,0,0.89333333,179.61807,17.896213)" />
    <path
       id="path35"
       d="m 102.2026,14.9206 h 28.34679 V 43.26739 H 102.2026 Z"
       style="fill:#3382aa;fill-opacity:1;fill-rule:nonzero;stroke:#ffffff;stroke-width:0.74721;stroke-linecap:butt;stroke-linejoin:miter;stroke-miterlimit:10;stroke-dasharray:none;stroke-opacity:1"
       transform="matrix(0.89333333,0,0,-0.89333333,79.219907,65.41976)" />
    <path
       id="path36"
       d="M 7.4850233,-3.9196077 H 6.4180924 V -10.163778 H 4.0568517 l -3.70802241,6.2091889 v 1.6965952 H 4.4241558 v 2.25629661 H 6.4180924 V -2.2579939 h 1.0669309 z m -3.0608675,0 H 1.7655737 l 2.6585821,-4.3376866 z m 0,0"
       style="fill:#000000;fill-opacity:1;fill-rule:nonzero;stroke:none"
       aria-label="4"
       transform="matrix(0.89333333,0,0,0.89333333,179.61807,43.96636)" />
    <path
       id="path37"
       d="m 102.2026,-14.17339 h 28.34679 V 14.1734 H 102.2026 Z"
       style="fill:#3382aa;fill-opacity:1;fill-rule:nonzero;stroke:#ffffff;stroke-width:0.74721;stroke-linecap:butt;stroke-linejoin:miter;stroke-miterlimit:10;stroke-dasharray:none;stroke-opacity:1"
       transform="matrix(0.89333333,0,0,-0.89333333,79.219907,65.41976)" />
    <path
       id="path38"
       d="m 3.1123554,-4.5493657 c 0.6996269,0 0.8395522,0.017491 1.171875,0.1049441 0.6821362,0.1749067 1.1019123,0.7695895 1.1019123,1.5216884 0,0.8920242 -0.6296642,1.5216884 -1.5041977,1.5216884 -0.9444963,0 -1.4517258,-0.5422108 -1.5216885,-1.5916511 H 0.41879198 c 0.0174907,2.04640859 1.34678172,3.32322762 3.42817162,3.32322762 2.1688433,0 3.5506064,-1.27681903 3.5506064,-3.25326492 0,-1.1893657 -0.5072295,-1.9764459 -1.6616138,-2.5361474 0.9444962,-0.5771922 1.329291,-1.224347 1.329291,-2.1513526 0,-1.6965952 -1.2593284,-2.7810168 -3.2182836,-2.7810168 -1.171875,0 -2.1338619,0.4022854 -2.7110541,1.1543843 C 0.73362407,-8.7296362 0.54122668,-8.0475 0.54122668,-7.1379851 V -6.980569 H 2.4127285 c 0.017491,-0.5422109 0.052472,-0.8045709 0.1574161,-1.066931 0.1749067,-0.4372668 0.6471548,-0.7171175 1.224347,-0.7171175 0.8045709,0 1.2593284,0.4897388 1.2593284,1.329291 0,1.014459 -0.5771922,1.5391791 -1.7665579,1.5391791 H 3.1123554 Z m 0,0"
       style="fill:#000000;fill-opacity:1;fill-rule:nonzero;stroke:none"
       aria-label="3"
       transform="matrix(0.89333333,0,0,0.89333333,179.61807,69.8766)" />
    <path
       id="path39"
       d="M -9.3464,-81.23903 H 67.53442"
       style="fill:none;stroke:#4c4c4c;stroke-width:0.99628;stroke-linecap:butt;stroke-linejoin:miter;stroke-miterlimit:10;stroke-dasharray:2.98883, 2.98883;stroke-dashoffset:0;stroke-opacity:1"
       transform="matrix(0.89333333,0,0,-0.89333333,79.219907,65.41976)" />
    <path
       id="path40"
       d="M 5.20058,0 C 3.65962,0.28891 1.15567,1.15567 -0.57784,2.1669 V -2.1669 C 1.15567,-1.15567 3.65962,-0.28891 5.20058,0"
       style="fill:#4c4c4c;fill-opacity:1;fill-rule:nonzero;stroke:none"
       transform="matrix(-0.89333333,0,0,0.89333333,70.870456,137.99329)" />
    <path
       id="path41"
       d="M 5.20058,0 C 3.65962,0.28891 1.15567,1.15567 -0.57784,2.1669 V -2.1669 C 1.15567,-1.15567 3.65962,-0.28891 5.20058,0"
       style="fill:#4c4c4c;fill-opacity:1;fill-rule:nonzero;stroke:none"
       transform="matrix(0.89333333,0,0,-0.89333333,139.55066,137.99329)" />
    <path
       id="path42"
       d="M 5.9284076,-0.00128451 7.4151147,-5.8081875 H 6.5755625 l -1.066931,4.7224813 -1.329291,-4.7224813 H 3.3922603 L 2.0979506,-1.0857062 0.99603825,-5.8081875 H 0.17397668 L 1.6606838,-0.00128451 H 2.4827453 L 3.777055,-4.7762379 5.1238368,-0.00128451 Z M 8.7137971,-4.181555 H 8.0666423 v 4.18027049 h 0.6471548 z m 0,-1.6266325 H 8.0491516 v 0.8220616 h 0.6646455 z m 4.5300839,0 h -0.664645 v 2.1513526 c -0.279851,-0.4197761 -0.734609,-0.6471548 -1.29431,-0.6471548 -1.084422,0 -1.7840487,0.8745335 -1.7840487,2.2038246 0,1.41674439 0.6996267,2.2737873 1.8190297,2.2737873 0.577192,0 0.961987,-0.20988806 1.329291,-0.71711754 v 0.54221083 h 0.594683 z m -1.83652,2.1338619 c 0.717117,0 1.171875,0.6296642 1.171875,1.6266325 0,0.9619869 -0.472249,1.60914179 -1.171875,1.60914179 -0.734609,0 -1.206857,-0.64715489 -1.206857,-1.62663249 0,-0.9619869 0.472248,-1.6091418 1.206857,-1.6091418 z m 4.346431,-0.5072294 h -0.682136 v -1.1543844 h -0.664645 v 1.1543844 h -0.577192 v 0.5422108 h 0.577192 v 3.16581155 c 0,0.41977612 0.27985,0.64715485 0.804571,0.64715485 0.157416,0 0.314832,0 0.54221,-0.052472 v -0.5597015 c -0.08745,0.0349814 -0.192397,0.0349814 -0.314832,0.0349814 -0.297341,0 -0.367304,-0.0699627 -0.367304,-0.36730411 V -3.6393442 h 0.682136 z m 0.747727,-1.6266325 v 5.80690299 h 0.664645 V -2.3100532 c 0,-0.8570429 0.437267,-1.3992537 1.136894,-1.3992537 0.209888,0 0.419776,0.069963 0.577192,0.1749067 0.192397,0.1399254 0.279851,0.3498134 0.279851,0.6296642 v 2.90345149 h 0.664645 V -3.1670961 c 0,-0.6996268 -0.507229,-1.1368936 -1.329291,-1.1368936 -0.577192,0 -0.944496,0.1923973 -1.329291,0.6996268 v -2.2038246 z m 5.583897,4.98484142 h -0.839553 v 0.82206157 h 0.839553 z m 0,-3.35820892 h -0.839553 v 0.8220615 h 0.839553 z m 5.011077,1.5916511 h 0.08745 l 0.297342,-0.017491 c 0.769589,0 1.171875,0.3498134 1.171875,1.0319496 0,0.71711757 -0.437267,1.13689369 -1.171875,1.13689369 -0.76959,0 -1.154385,-0.38479477 -1.189366,-1.20685629 h -0.699627 c 0.01749,0.4547574 0.104944,0.75209883 0.24487,1.01445891 0.27985,0.54221082 0.839552,0.80457089 1.609141,0.80457089 1.171875,0 1.923974,-0.68213619 1.923974,-1.7490672 0,-0.7171175 -0.27985,-1.1194029 -0.961987,-1.3467817 0.524721,-0.209888 0.787081,-0.6121735 0.787081,-1.171875 0,-0.9794776 -0.647155,-1.5566698 -1.714086,-1.5566698 -1.154385,0 -1.749067,0.6121736 -1.784049,1.8190299 h 0.717118 c 0,-0.3323228 0.03498,-0.5247202 0.122435,-0.6996269 0.157416,-0.3148321 0.507229,-0.5072294 0.944496,-0.5072294 0.629664,0 0.996968,0.3673041 0.996968,0.9619869 0,0.4022854 -0.139925,0.6296642 -0.454757,0.7695895 -0.192398,0.069963 -0.437267,0.1049441 -0.927006,0.1224347 z m 6.349114,0.1224347 h 1.81903 c 0.454757,0 0.822061,-0.1399254 1.136893,-0.4197761 0.349814,-0.3148321 0.489739,-0.6821362 0.489739,-1.2243471 0,-1.0844216 -0.647155,-1.6965951 -1.784048,-1.6965951 h -2.413713 v 5.80690299 h 0.752099 z m 0,-0.6471549 v -2.0464085 h 1.539179 c 0.717117,0 1.136894,0.3847947 1.136894,1.0144589 0,0.6471549 -0.419777,1.0319496 -1.136894,1.0319496 z M 38.48292,-4.181555 h -0.647155 v 4.18027049 h 0.647155 z m 0,-1.6266325 h -0.664645 v 0.8220616 h 0.664645 z m 2.903452,3.6380597 1.399253,-2.0114272 H 42.051017 L 41.036558,-2.6598666 40.03959,-4.181555 H 39.27 l 1.399254,2.0464085 -1.469216,2.13386199 h 0.752099 l 1.066931,-1.60914179 1.031949,1.60914179 h 0.78708 z m 5.513934,0.2973414 c 0,-0.6296642 -0.05247,-1.0144589 -0.174907,-1.329291 -0.26236,-0.6821362 -0.909515,-1.1019123 -1.679104,-1.1019123 -1.171875,0 -1.923974,0.8920242 -1.923974,2.2737873 0,1.36427236 0.734608,2.2038246 1.906483,2.2038246 0.944496,0 1.609142,-0.54221082 1.784049,-1.4517257 h -0.664646 c -0.192397,0.55970145 -0.559701,0.83955219 -1.101912,0.83955219 -0.419776,0 -0.78708,-0.19239738 -0.996969,-0.54221082 C 43.89191,-1.2081409 43.821948,-1.4530103 43.821948,-1.8727864 Z m -3.060868,-0.5422108 c 0.05247,-0.7695896 0.524721,-1.276819 1.189366,-1.276819 0.664646,0 1.154384,0.5422108 1.154384,1.2418377 0,0 0,0.017491 0,0.034981 z m 4.60442,-3.3931903 h -0.664646 v 5.80690299 h 0.664646 z m 4.062208,2.7985075 c -0.01749,-0.8220616 -0.559701,-1.2943097 -1.521688,-1.2943097 -0.979478,0 -1.609142,0.5072294 -1.609142,1.276819 0,0.6646455 0.349813,0.9619869 1.329291,1.2068563 l 0.629664,0.1574161 c 0.454758,0.104944 0.647155,0.2798507 0.647155,0.5771921 0,0.38479482 -0.402285,0.64715489 -0.979478,0.64715489 -0.367304,0 -0.664645,-0.10494403 -0.822061,-0.27985074 -0.104944,-0.10494403 -0.157416,-0.22737873 -0.192397,-0.52472015 h -0.699627 c 0.01749,0.96198694 0.559701,1.4167444 1.661613,1.4167444 1.049441,0 1.714086,-0.50722948 1.714086,-1.3118004 0,-0.6296642 -0.349813,-0.9619869 -1.171875,-1.171875 l -0.647155,-0.1399253 c -0.54221,-0.1399254 -0.769589,-0.3148321 -0.769589,-0.6121736 0,-0.3847947 0.349813,-0.6296641 0.892024,-0.6296641 0.52472,0 0.822062,0.2448694 0.839552,0.6821362 z m 0,0"
       style="fill:#4c4c4c;fill-opacity:1;fill-rule:nonzero;stroke:none"
       aria-label="Width:3Pixels"
       transform="matrix(0.89333333,0,0,0.89333333,81.539893,149.00896)" />
    <path
       id="path43"
       d="M -25.88571,-67.53442 V 9.3464"
       style="fill:none;stroke:#4c4c4c;stroke-width:0.99628;stroke-linecap:butt;stroke-linejoin:miter;stroke-miterlimit:10;stroke-dasharray:2.98883, 2.98883;stroke-dashoffset:0;stroke-opacity:1"
       transform="matrix(0.89333333,0,0,-0.89333333,79.219907,65.41976)" />
    <path
       id="path44"
       d="M 5.20058,0 C 3.65962,0.28891 1.15567,1.15567 -0.57784,2.1669 V -2.1669 C 1.15567,-1.15567 3.65962,-0.28891 5.20058,0"
       style="fill:#4c4c4c;fill-opacity:1;fill-rule:nonzero;stroke:none"
       transform="matrix(0,0.89333333,0.89333333,0,56.095339,125.75051)" />
    <path
       id="path45"
       d="M 5.20058,0 C 3.65962,0.28891 1.15567,1.15567 -0.57784,2.1669 V -2.1669 C 1.15567,-1.15567 3.65962,-0.28891 5.20058,0"
       style="fill:#4c4c4c;fill-opacity:1;fill-rule:nonzero;stroke:none"
       transform="matrix(0,-0.89333333,-0.89333333,0,56.095339,57.070309)" />
    <path
       id="path46"
       d="m 4.3880135,-2.6431544 v 2.64109143 H 5.1401124 V -5.808966 H 4.3880135 v 2.5011661 H 1.3971087 V -5.808966 H 0.66250047 v 5.80690303 H 1.4145993 V -2.6431544 Z m 5.4570896,0.7695896 c 0,-0.6296642 -0.052472,-1.014459 -0.1749067,-1.3292911 -0.2623601,-0.6821362 -0.909515,-1.1019123 -1.6791045,-1.1019123 -1.171875,0 -1.9239739,0.8920243 -1.9239739,2.2737873 0,1.36427241 0.7346082,2.20382465 1.9064832,2.20382465 0.9444963,0 1.6091418,-0.54221082 1.7840485,-1.45172575 H 9.0930042 c -0.1923974,0.5597015 -0.5597015,0.83955224 -1.1019123,0.83955224 -0.4197761,0 -0.7870802,-0.19239739 -0.9969683,-0.54221082 C 6.8367076,-1.2089193 6.7667449,-1.4537887 6.7667449,-1.8735648 Z M 6.7842355,-2.4157757 c 0.052472,-0.7695895 0.5247202,-1.276819 1.1893657,-1.276819 0.6646455,0 1.1543843,0.5422108 1.1543843,1.2418377 0,0 0,0.017491 0,0.034981 z m 4.5913015,-1.7665578 h -0.647155 v 4.18027053 h 0.647155 z m 0,-1.6266325 h -0.664646 v 0.8220616 h 0.664646 z m 3.869811,1.6266325 V -3.57016 c -0.332323,-0.5072295 -0.752099,-0.7346082 -1.276819,-0.7346082 -1.066931,0 -1.784049,0.9270056 -1.784049,2.291278 0,0.6821362 0.192398,1.24183768 0.524721,1.64412313 0.314832,0.34981343 0.769589,0.54221082 1.206856,0.54221082 0.52472,0 0.892024,-0.20988806 1.259328,-0.73460821 v 0.20988806 c 0,0.55970149 -0.06996,0.90951493 -0.227378,1.13689366 C 14.7731,1.0298867 14.423286,1.169812 14.021001,1.169812 c -0.314832,0 -0.577192,-0.069963 -0.76959,-0.20988803 -0.139925,-0.1224347 -0.209888,-0.2448694 -0.244869,-0.4897388 h -0.682136 c 0.06996,0.80457093 0.682136,1.25932833 1.661614,1.25932833 0.629664,0 1.154384,-0.1923974 1.434235,-0.5247201 0.314832,-0.3847948 0.437266,-0.90951495 0.437266,-1.88899256 V -4.1823335 Z m -1.206856,0.4897388 c 0.717117,0 1.136893,0.6121735 1.136893,1.6616138 0,0.9969683 -0.419776,1.59165114 -1.136893,1.59165114 -0.717118,0 -1.154385,-0.61217354 -1.154385,-1.62663244 0,-0.9969683 0.437267,-1.6266325 1.154385,-1.6266325 z m 2.907824,-2.1163713 v 5.80690303 h 0.664645 V -2.3108316 c 0,-0.8570429 0.437267,-1.3992538 1.136894,-1.3992538 0.209888,0 0.419776,0.069963 0.577192,0.1749068 0.192397,0.1399253 0.279851,0.3498134 0.279851,0.6296641 v 2.90345153 h 0.664645 V -3.1678745 c 0,-0.6996269 -0.507229,-1.1368937 -1.329291,-1.1368937 -0.577192,0 -0.944496,0.1923974 -1.329291,0.6996269 V -5.808966 Z m 5.898729,1.6266325 h -0.682136 v -1.1543843 h -0.664646 v 1.1543843 h -0.577192 v 0.5422108 h 0.577192 v 3.1658116 c 0,0.41977612 0.279851,0.64715485 0.804571,0.64715485 0.157416,0 0.314832,0 0.542211,-0.052472 v -0.5597015 c -0.08745,0.0349814 -0.192398,0.0349814 -0.314832,0.0349814 -0.297342,0 -0.367304,-0.0699627 -0.367304,-0.36730411 V -3.6401227 h 0.682136 z m 1.90211,3.35820897 h -0.839552 v 0.82206156 h 0.839552 z m 0,-3.35820897 h -0.839552 v 0.8220616 h 0.839552 z m 5.002332,1.5916511 h 0.08745 l 0.297341,-0.017491 c 0.76959,0 1.171875,0.3498134 1.171875,1.0319496 0,0.71711752 -0.437267,1.13689364 -1.171875,1.13689364 -0.769589,0 -1.154384,-0.38479477 -1.189365,-1.20685634 H 28.24529 c 0.01749,0.4547575 0.104944,0.75209888 0.244869,1.01445895 0.279851,0.54221083 0.839552,0.8045709 1.609142,0.8045709 1.171875,0 1.923974,-0.68213619 1.923974,-1.74906715 0,-0.7171176 -0.279851,-1.119403 -0.961987,-1.3467817 0.52472,-0.2098881 0.78708,-0.6121735 0.78708,-1.171875 0,-0.9794776 -0.647155,-1.5566698 -1.714086,-1.5566698 -1.154384,0 -1.749067,0.6121735 -1.784048,1.8190298 h 0.717117 c 0,-0.3323227 0.03498,-0.5247201 0.122435,-0.6996268 0.157416,-0.3148321 0.507229,-0.5072295 0.944496,-0.5072295 0.629664,0 0.996968,0.3673041 0.996968,0.9619869 0,0.4022855 -0.139925,0.6296642 -0.454757,0.7695896 -0.192397,0.069963 -0.437267,0.104944 -0.927006,0.1224347 z m 6.349114,0.1224347 h 1.81903 c 0.454758,0 0.822062,-0.1399253 1.136894,-0.4197761 0.349813,-0.3148321 0.489739,-0.6821362 0.489739,-1.224347 0,-1.0844216 -0.647155,-1.6965952 -1.784049,-1.6965952 h -2.413713 v 5.80690303 h 0.752099 z m 0,-0.6471548 v -2.0464086 h 1.539179 c 0.717118,0 1.136894,0.3847948 1.136894,1.014459 0,0.6471548 -0.419776,1.0319496 -1.136894,1.0319496 z m 5.037314,-1.066931 H 40.48876 v 4.18027053 h 0.647155 z m 0,-1.6266325 h -0.664646 v 0.8220616 h 0.664646 z m 2.907824,3.6380598 1.399254,-2.0114273 h -0.734609 l -1.014459,1.5216884 -0.996968,-1.5216884 h -0.769589 l 1.399253,2.0464086 -1.469216,2.13386193 h 0.752099 l 1.066931,-1.60914183 1.031949,1.60914183 h 0.787081 z m 5.518307,0.2973414 c 0,-0.6296642 -0.05247,-1.014459 -0.174907,-1.3292911 -0.26236,-0.6821362 -0.909515,-1.1019123 -1.679104,-1.1019123 -1.171875,0 -1.923974,0.8920243 -1.923974,2.2737873 0,1.36427241 0.734608,2.20382465 1.906483,2.20382465 0.944496,0 1.609142,-0.54221082 1.784048,-1.45172575 h -0.664645 c -0.192398,0.5597015 -0.559702,0.83955224 -1.101912,0.83955224 -0.419777,0 -0.787081,-0.19239739 -0.996969,-0.54221082 C 46.55365,-1.2089193 46.483687,-1.4537887 46.483687,-1.8735648 Z m -3.060868,-0.5422109 c 0.05247,-0.7695895 0.52472,-1.276819 1.189366,-1.276819 0.664645,0 1.154384,0.5422108 1.154384,1.2418377 0,0 0,0.017491 0,0.034981 z m 4.604419,-3.3931903 h -0.664645 v 5.80690303 h 0.664645 z m 4.062209,2.7985075 c -0.01749,-0.8220616 -0.559702,-1.2943097 -1.521688,-1.2943097 -0.979478,0 -1.609142,0.5072295 -1.609142,1.276819 0,0.6646456 0.349813,0.961987 1.329291,1.2068564 l 0.629664,0.157416 c 0.454757,0.1049441 0.647155,0.2798508 0.647155,0.5771922 0,0.38479477 -0.402286,0.64715484 -0.979478,0.64715484 -0.367304,0 -0.664645,-0.10494403 -0.822061,-0.27985074 -0.104944,-0.10494403 -0.157416,-0.22737874 -0.192398,-0.5247202 h -0.699627 c 0.01749,0.96198699 0.559702,1.41674445 1.661614,1.41674445 1.04944,0 1.714086,-0.50722948 1.714086,-1.31180035 0,-0.6296642 -0.349813,-0.961987 -1.171875,-1.171875 L 53.506192,-2.450757 c -0.542211,-0.1399254 -0.769589,-0.3148321 -0.769589,-0.6121735 0,-0.3847948 0.349813,-0.6296642 0.892024,-0.6296642 0.52472,0 0.822061,0.2448694 0.839552,0.6821362 z m 0,0"
       style="fill:#4c4c4c;fill-opacity:1;fill-rule:nonzero;stroke:none"
       aria-label="Height:3Pixels"
       transform="matrix(0.89333333,0,0,0.89333333,2.96676,93.154187)" />
    <path
       id="path47"
       d="M -18.19951,22.23318 28.62492,69.05763"
       style="fill:none;stroke:#4c4c4c;stroke-width:0.99628;stroke-linecap:butt;stroke-linejoin:miter;stroke-miterlimit:10;stroke-dasharray:2.98883, 2.98883;stroke-dashoffset:0;stroke-opacity:1"
       transform="matrix(0.89333333,0,0,-0.89333333,79.219907,65.41976)" />
    <path
       id="path48"
       d="M 5.20058,0 C 3.65962,0.28891 1.15567,1.15567 -0.57784,2.1669 V -2.1669 C 1.15567,-1.15567 3.65962,-0.28891 5.20058,0"
       style="fill:#4c4c4c;fill-opacity:1;fill-rule:nonzero;stroke:none"
       transform="matrix(-0.631676,0.631676,0.631676,0.631676,62.961687,45.558101)" />
    <path
       id="path49"
       d="M 5.20058,0 C 3.65962,0.28891 1.15567,1.15567 -0.57784,2.1669 V -2.1669 C 1.15567,-1.15567 3.65962,-0.28891 5.20058,0"
       style="fill:#4c4c4c;fill-opacity:1;fill-rule:nonzero;stroke:none"
       transform="matrix(0.631676,-0.631676,-0.631676,-0.631676,104.79149,3.7282861)" />
    <path
       id="path50"
       d="m 1.7651073,-2.5888918 h 0.087453 l 0.2973415,-0.017491 c 0.7695895,0 1.171875,0.3498135 1.171875,1.0319497 0,0.7171175 -0.4372668,1.13689362 -1.171875,1.13689362 -0.7695896,0 -1.15438438,-0.38479478 -1.18936572,-1.20685632 H 0.26090951 c 0.0174907,0.4547574 0.10494403,0.75209886 0.24486941,1.01445893 0.27985074,0.54221082 0.83955228,0.8045709 1.60914178,0.8045709 1.171875,0 1.9239739,-0.6821362 1.9239739,-1.74906713 0,-0.7171176 -0.2798508,-1.119403 -0.961987,-1.3467818 0.5247202,-0.209888 0.7870803,-0.6121735 0.7870803,-1.171875 0,-0.9794776 -0.6471549,-1.5566697 -1.7140858,-1.5566697 -1.15438438,0 -1.74906721,0.6121735 -1.78404856,1.8190298 H 1.0829711 c 0,-0.3323227 0.034981,-0.5247201 0.1224347,-0.6996268 0.157416,-0.3148321 0.5072295,-0.5072295 0.9444963,-0.5072295 0.6296641,0 0.9969682,0.3673041 0.9969682,0.9619869 0,0.4022855 -0.1399253,0.6296642 -0.4547574,0.7695896 -0.1923974,0.069963 -0.4372668,0.104944 -0.9270056,0.1224347 z M 11.927188,-4.0056362 c -0.227379,-1.276819 -0.961987,-1.9064832 -2.2388065,-1.9064832 -0.7870802,0 -1.4167444,0.2448694 -1.8540112,0.7346082 -0.5247201,0.5597015 -0.8045709,1.3992537 -0.8045709,2.34375 0,0.9444963 0.2973415,1.7665578 0.8395523,2.34375001 0.4547574,0.45475746 1.0319496,0.66464552 1.7840485,0.66464552 1.4167448,0 2.2213148,-0.75209888 2.3962218,-2.29127803 h -0.769589 c -0.06996,0.4022855 -0.139926,0.6646456 -0.26236,0.8920243 -0.24487,0.4897388 -0.734609,0.75209888 -1.3642728,0.75209888 -1.1543843,0 -1.8889926,-0.92700558 -1.8889926,-2.37873138 0,-1.4867071 0.6996269,-2.396222 1.8365206,-2.396222 0.4722478,0 0.9095148,0.1399254 1.1368938,0.3498135 0.227379,0.209888 0.349813,0.4547574 0.437267,0.8920242 z m 2.641091,-0.2973414 c -1.171875,0 -1.888993,0.8395522 -1.888993,2.238806 0,1.41674436 0.717118,2.23880593 1.888993,2.23880593 1.189366,0 1.906483,-0.82206157 1.906483,-2.20382463 0,-1.4342351 -0.699627,-2.2737873 -1.906483,-2.2737873 z m 0,0.6121735 c 0.752099,0 1.206856,0.6121735 1.206856,1.6616138 0,0.9794776 -0.472248,1.59165112 -1.206856,1.59165112 -0.734608,0 -1.189366,-0.61217352 -1.189366,-1.62663242 0,-0.9969683 0.454758,-1.6266325 1.189366,-1.6266325 z m 3.471898,-2.1163713 h -0.664645 v 5.80690301194 h 0.664645 z m 2.732918,1.5041978 c -1.171875,0 -1.888993,0.8395522 -1.888993,2.238806 0,1.41674436 0.717118,2.23880593 1.888993,2.23880593 1.189365,0 1.906483,-0.82206157 1.906483,-2.20382463 0,-1.4342351 -0.699627,-2.2737873 -1.906483,-2.2737873 z m 0,0.6121735 c 0.752099,0 1.206856,0.6121735 1.206856,1.6616138 0,0.9794776 -0.472248,1.59165112 -1.206856,1.59165112 -0.734609,0 -1.189366,-0.61217352 -1.189366,-1.62663242 0,-0.9969683 0.454757,-1.6266325 1.189366,-1.6266325 z m 2.80288,-0.4897388 v 4.18027051194 h 0.682136 V -2.1691157 c 0,-0.5946828 0.139925,-0.9969683 0.472248,-1.224347 0.209888,-0.1399254 0.402286,-0.1923974 0.857043,-0.209888 v -0.6646456 c -0.104944,-0.017491 -0.157416,-0.034981 -0.244869,-0.034981 -0.437267,0 -0.76959,0.2623601 -1.136894,0.8745336 v -0.7520989 z m 9.611124,0.1749067 c -0.227379,-1.276819 -0.961987,-1.9064832 -2.238806,-1.9064832 -0.78708,0 -1.416744,0.2448694 -1.854011,0.7346082 -0.52472,0.5597015 -0.804571,1.3992537 -0.804571,2.34375 0,0.9444963 0.297341,1.7665578 0.839552,2.34375001 0.454758,0.45475746 1.03195,0.66464552 1.784049,0.66464552 1.416744,0 2.221315,-0.75209888 2.396222,-2.29127803 h -0.76959 c -0.06996,0.4022855 -0.139925,0.6646456 -0.26236,0.8920243 -0.244869,0.4897388 -0.734608,0.75209888 -1.364272,0.75209888 -1.154385,0 -1.888993,-0.92700558 -1.888993,-2.37873138 0,-1.4867071 0.699627,-2.396222 1.836521,-2.396222 0.472248,0 0.909514,0.1399254 1.136893,0.3498135 0.227379,0.209888 0.349814,0.4547574 0.437267,0.8920242 z m 1.03195,-1.8015392 v 5.80690301194 h 0.664645 V -2.309041 c 0,-0.857043 0.437267,-1.3992538 1.136894,-1.3992538 0.209888,0 0.419776,0.069963 0.577192,0.1749067 0.192397,0.1399254 0.279851,0.3498135 0.279851,0.6296642 v 2.90345151194 h 0.664645 V -3.166084 c 0,-0.6996268 -0.507229,-1.1368936 -1.329291,-1.1368936 -0.577192,0 -0.944496,0.1923974 -1.329291,0.6996269 v -2.2038247 z m 8.137534,5.42210824 c -0.06996,0.0174907 -0.104944,0.0174907 -0.139925,0.0174907 -0.227379,0 -0.367304,-0.1224347 -0.367304,-0.33232276 V -3.166084 c 0,-0.7346082 -0.542211,-1.1368936 -1.57416,-1.1368936 -0.594683,0 -1.101913,0.1749067 -1.381763,0.4897388 -0.192398,0.2098881 -0.262361,0.4547575 -0.279851,0.8745336 h 0.664645 c 0.05247,-0.5072295 0.349814,-0.7520989 0.979478,-0.7520989 0.594683,0 0.927005,0.2273787 0.927005,0.6296642 v 0.1749067 c 0,0.2798507 -0.157416,0.4022854 -0.682136,0.4547575 -0.944496,0.1224347 -1.084421,0.157416 -1.346781,0.26236 -0.489739,0.1923974 -0.734609,0.5771922 -0.734609,1.119403 0,0.75209889 0.524721,1.22434703 1.381763,1.22434703 0.524721,0 0.944497,-0.17490671806 1.416745,-0.61217351 0.03498,0.43726679194 0.244869,0.61217351 0.682136,0.61217351 0.139925,0 0.244869,0 0.454757,-0.0699627 z M 41.184708,-1.3120728 c 0,0.2273788 -0.05247,0.34981347 -0.26236,0.54221086 -0.26236,0.2448694 -0.594682,0.3673041 -0.979477,0.3673041 -0.52472,0 -0.822062,-0.2448694 -0.822062,-0.66464556 0,-0.4372667 0.297342,-0.6646455 0.996969,-0.7695895 0.699626,-0.087453 0.857042,-0.1224347 1.06693,-0.2273787 z m 1.893366,-2.8684701 v 4.18027051194 h 0.664645 V -2.309041 c 0,-0.857043 0.454758,-1.3992538 1.136894,-1.3992538 0.52472,0 0.857043,0.3148321 0.857043,0.8045709 v 2.90345151194 h 0.664645 V -3.166084 c 0,-0.6821361 -0.52472,-1.1368936 -1.329291,-1.1368936 -0.612173,0 -1.014459,0.2448694 -1.381763,0.8220616 v -0.6996269 z m 4.433885,0 v 4.18027051194 h 0.664645 V -2.309041 c 0,-0.857043 0.454758,-1.3992538 1.136894,-1.3992538 0.52472,0 0.857043,0.3148321 0.857043,0.8045709 v 2.90345151194 h 0.664646 V -3.166084 c 0,-0.6821361 -0.524721,-1.1368936 -1.329291,-1.1368936 -0.612174,0 -1.014459,0.2448694 -1.381764,0.8220616 v -0.6996269 z m 7.962628,2.3087686 c 0,-0.6296641 -0.05247,-1.0144589 -0.174906,-1.329291 -0.262361,-0.6821362 -0.909515,-1.1019123 -1.679105,-1.1019123 -1.171875,0 -1.923974,0.8920242 -1.923974,2.2737873 0,1.36427239 0.734608,2.20382463 1.906483,2.20382463 0.944497,0 1.609142,-0.54221082 1.784049,-1.45172573 h -0.664646 c -0.192397,0.55970147 -0.559701,0.83955222 -1.101912,0.83955222 -0.419776,0 -0.78708,-0.19239739 -0.996968,-0.54221082 -0.157416,-0.2273787 -0.227379,-0.4722481 -0.227379,-0.8920243 z M 52.41372,-2.4139851 c 0.05247,-0.7695895 0.52472,-1.276819 1.189365,-1.276819 0.664646,0 1.154385,0.5422108 1.154385,1.2418377 0,0 0,0.017491 0,0.034981 z m 4.608792,-3.3931903 h -0.664646 v 5.80690301194 h 0.664646 z m 4.057835,2.7985075 c -0.01749,-0.8220616 -0.559701,-1.2943097 -1.521688,-1.2943097 -0.979478,0 -1.609142,0.5072295 -1.609142,1.276819 0,0.6646455 0.349814,0.961987 1.329291,1.2068564 l 0.629664,0.157416 c 0.454758,0.104944 0.647155,0.2798508 0.647155,0.5771922 0,0.38479475 -0.402285,0.64715482 -0.979477,0.64715482 -0.367304,0 -0.664646,-0.10494403 -0.822062,-0.27985075 -0.104944,-0.10494403 -0.157416,-0.22737873 -0.192397,-0.52472017 h -0.699627 c 0.01749,0.96198697 0.559701,1.41674443 1.661614,1.41674443 1.04944,0 1.714086,-0.50722948 1.714086,-1.31180033 0,-0.6296642 -0.349814,-0.961987 -1.171875,-1.171875 l -0.647155,-0.1399254 c -0.542211,-0.1399254 -0.76959,-0.3148321 -0.76959,-0.6121735 0,-0.3847948 0.349814,-0.6296642 0.892024,-0.6296642 0.524721,0 0.822062,0.2448694 0.839553,0.6821362 z m 0,0"
       style="fill:#4c4c4c;fill-opacity:1;fill-rule:nonzero;stroke:none"
       aria-label="3ColorChannels"
       transform="matrix(0.89333333,0,0,0.89333333,21.274733,23.781493)" />
  </g>
</svg>
