<?xml version="1.0" encoding="UTF-8" standalone="no"?>
<!-- Created with Inkscape (http://www.inkscape.org/) -->

<svg
   version="1.1"
   id="svg1"
   width="326.72"
   height="149.27867"
   viewBox="0 0 326.72 149.27867"
   xmlns="http://www.w3.org/2000/svg"
   xmlns:svg="http://www.w3.org/2000/svg">
  <defs
     id="defs1" />
  <g
     id="g1">
    <path
       id="path1"
       d="M 60.15819,30.44937 H -62.87509 c -2.20094,0 -3.98511,-1.78417 -3.98511,-3.98511 v -130.51393 c 0,-2.20093 1.78417,-3.9851 3.98511,-3.9851 H 60.15819 c 2.20094,0 3.98511,1.78417 3.98511,3.9851 V 26.46426 c 0,2.20094 -1.78417,3.98511 -3.98511,3.98511 z"
       style="fill:#fdfdf8;fill-opacity:1;fill-rule:nonzero;stroke:#625e28;stroke-width:0.89664;stroke-linecap:butt;stroke-linejoin:miter;stroke-miterlimit:10;stroke-dasharray:none;stroke-opacity:1"
       transform="matrix(1.0666667,0,0,-1.0666667,71.7952,32.9576)" />
    <path
       id="path2"
       d="m 234.5606,29.11787 h -98.49186 c -2.20094,0 -3.98511,-1.78416 -3.98511,-3.9851 v -129.75145 c 0,-2.20095 1.78417,-3.98511 3.98511,-3.98511 h 98.49186 c 2.20094,0 3.9851,1.78416 3.9851,3.98511 V 25.13277 c 0,2.20094 -1.78416,3.9851 -3.9851,3.9851 z"
       style="fill:#fffbf7;fill-opacity:1;fill-rule:nonzero;stroke:#b35900;stroke-width:0.89664;stroke-linecap:butt;stroke-linejoin:miter;stroke-miterlimit:10;stroke-dasharray:none;stroke-opacity:1"
       transform="matrix(1.0666667,0,0,-1.0666667,71.7952,32.9576)" />
    <path
       id="path3"
       d="M 7.08669,0 C 7.08669,3.91391 3.91391,7.08669 0,7.08669 -3.91391,7.08669 -7.08669,3.91391 -7.08669,0 c 0,-3.91391 3.17278,-7.08669 7.08669,-7.08669 3.91391,0 7.08669,3.17278 7.08669,7.08669 z"
       style="fill:#d9f3fd;fill-opacity:1;fill-rule:nonzero;stroke:#006395;stroke-width:0.89664;stroke-linecap:butt;stroke-linejoin:miter;stroke-miterlimit:10;stroke-dasharray:none;stroke-opacity:1"
       transform="matrix(1.0666667,0,0,-1.0666667,71.7952,32.9576)" />
    <path
       id="path4"
       d="m -15.59593,-22.68262 c 0,3.91392 -3.17277,7.08669 -7.08669,7.08669 -3.91392,0 -7.0867,-3.17277 -7.0867,-7.08669 0,-3.91392 3.17278,-7.0867 7.0867,-7.0867 3.91392,0 7.08669,3.17278 7.08669,7.0867 z"
       style="fill:#d9f3fd;fill-opacity:1;fill-rule:nonzero;stroke:#006395;stroke-width:0.89664;stroke-linecap:butt;stroke-linejoin:miter;stroke-miterlimit:10;stroke-dasharray:none;stroke-opacity:1"
       transform="matrix(1.0666667,0,0,-1.0666667,71.7952,32.9576)" />
    <path
       id="path5"
       d="m 29.76932,-22.68262 c 0,3.91392 -3.17278,7.08669 -7.0867,7.08669 -3.91392,0 -7.08669,-3.17277 -7.08669,-7.08669 0,-3.91392 3.17277,-7.0867 7.08669,-7.0867 3.91392,0 7.0867,3.17278 7.0867,7.0867 z"
       style="fill:#d9f3fd;fill-opacity:1;fill-rule:nonzero;stroke:#006395;stroke-width:0.89664;stroke-linecap:butt;stroke-linejoin:miter;stroke-miterlimit:10;stroke-dasharray:none;stroke-opacity:1"
       transform="matrix(1.0666667,0,0,-1.0666667,71.7952,32.9576)" />
    <path
       id="path6"
       d="m -15.59593,-54.76073 c 0,3.91391 -3.17277,7.08669 -7.08669,7.08669 -3.91392,0 -7.0867,-3.17278 -7.0867,-7.08669 0,-3.91391 3.17278,-7.08668 7.0867,-7.08668 3.91392,0 7.08669,3.17277 7.08669,7.08668 z"
       style="fill:#d9f3fd;fill-opacity:1;fill-rule:nonzero;stroke:#006395;stroke-width:0.89664;stroke-linecap:butt;stroke-linejoin:miter;stroke-miterlimit:10;stroke-dasharray:none;stroke-opacity:1"
       transform="matrix(1.0666667,0,0,-1.0666667,71.7952,32.9576)" />
    <path
       id="path7"
       d="m 29.76932,-54.76073 c 0,3.91391 -3.17278,7.08669 -7.0867,7.08669 -3.91392,0 -7.08669,-3.17278 -7.08669,-7.08669 0,-3.91391 3.17277,-7.08668 7.08669,-7.08668 3.91392,0 7.0867,3.17277 7.0867,7.08668 z"
       style="fill:#d9f3fd;fill-opacity:1;fill-rule:nonzero;stroke:#006395;stroke-width:0.89664;stroke-linecap:butt;stroke-linejoin:miter;stroke-miterlimit:10;stroke-dasharray:none;stroke-opacity:1"
       transform="matrix(1.0666667,0,0,-1.0666667,71.7952,32.9576)" />
    <path
       id="path8"
       d="m 7.08669,-77.44336 c 0,3.91393 -3.17278,7.0867 -7.08669,7.0867 -3.91391,0 -7.08669,-3.17277 -7.08669,-7.0867 0,-3.91391 3.17278,-7.08668 7.08669,-7.08668 3.91391,0 7.08669,3.17277 7.08669,7.08668 z"
       style="fill:#d9f3fd;fill-opacity:1;fill-rule:nonzero;stroke:#006395;stroke-width:0.89664;stroke-linecap:butt;stroke-linejoin:miter;stroke-miterlimit:10;stroke-dasharray:none;stroke-opacity:1"
       transform="matrix(1.0666667,0,0,-1.0666667,71.7952,32.9576)" />
    <path
       id="path9"
       d="m -5.32805,-5.32805 -7.93382,-7.93382"
       style="fill:none;stroke:#ab9a97;stroke-width:0.89664;stroke-linecap:butt;stroke-linejoin:miter;stroke-miterlimit:10;stroke-dasharray:none;stroke-opacity:1"
       transform="matrix(1.0666667,0,0,-1.0666667,71.7952,32.9576)" />
    <path
       id="path10"
       d="M 3.93951,0 C 3.45572,0.1214 1.32913,0.80937 0,1.55806 V -1.55806 C 1.32913,-0.80937 3.45572,-0.1214 3.93951,0 Z"
       style="fill:#ab9a97;fill-opacity:1;fill-rule:nonzero;stroke:#ab9a97;stroke-width:0.89664;stroke-linecap:butt;stroke-linejoin:miter;stroke-miterlimit:10;stroke-dasharray:none;stroke-opacity:1"
       transform="matrix(-0.75424,0.75424,0.75424,0.75424,57.649205,47.103595)" />
    <path
       id="path11"
       d="m 5.32805,-5.32805 7.93382,-7.93382"
       style="fill:none;stroke:#ab9a97;stroke-width:0.89664;stroke-linecap:butt;stroke-linejoin:miter;stroke-miterlimit:10;stroke-dasharray:none;stroke-opacity:1"
       transform="matrix(1.0666667,0,0,-1.0666667,71.7952,32.9576)" />
    <path
       id="path12"
       d="M 3.93951,0 C 3.45572,0.1214 1.32913,0.80937 0,1.55806 V -1.55806 C 1.32913,-0.80937 3.45572,-0.1214 3.93951,0 Z"
       style="fill:#ab9a97;fill-opacity:1;fill-rule:nonzero;stroke:#ab9a97;stroke-width:0.89664;stroke-linecap:butt;stroke-linejoin:miter;stroke-miterlimit:10;stroke-dasharray:none;stroke-opacity:1"
       transform="matrix(0.75424,0.75424,0.75424,-0.75424,85.941195,47.103595)" />
    <path
       id="path13"
       d="M -22.68262,-30.21764 V -41.43776"
       style="fill:none;stroke:#ab9a97;stroke-width:0.89664;stroke-linecap:butt;stroke-linejoin:miter;stroke-miterlimit:10;stroke-dasharray:none;stroke-opacity:1"
       transform="matrix(1.0666667,0,0,-1.0666667,71.7952,32.9576)" />
    <path
       id="path14"
       d="M 3.93951,0 C 3.45572,0.1214 1.32913,0.80937 0,1.55806 V -1.55806 C 1.32913,-0.80937 3.45572,-0.1214 3.93951,0 Z"
       style="fill:#ab9a97;fill-opacity:1;fill-rule:nonzero;stroke:#ab9a97;stroke-width:0.89664;stroke-linecap:butt;stroke-linejoin:miter;stroke-miterlimit:10;stroke-dasharray:none;stroke-opacity:1"
       transform="matrix(0,1.0666667,1.0666667,0,47.600405,77.157877)" />
    <path
       id="path15"
       d="M 22.68262,-30.21764 V -41.43776"
       style="fill:none;stroke:#ab9a97;stroke-width:0.89664;stroke-linecap:butt;stroke-linejoin:miter;stroke-miterlimit:10;stroke-dasharray:none;stroke-opacity:1"
       transform="matrix(1.0666667,0,0,-1.0666667,71.7952,32.9576)" />
    <path
       id="path16"
       d="M 3.93951,0 C 3.45572,0.1214 1.32913,0.80937 0,1.55806 V -1.55806 C 1.32913,-0.80937 3.45572,-0.1214 3.93951,0 Z"
       style="fill:#ab9a97;fill-opacity:1;fill-rule:nonzero;stroke:#ab9a97;stroke-width:0.89664;stroke-linecap:butt;stroke-linejoin:miter;stroke-miterlimit:10;stroke-dasharray:none;stroke-opacity:1"
       transform="matrix(0,1.0666667,1.0666667,0,95.989995,77.157877)" />
    <path
       id="path17"
       d="m -17.35457,-60.08878 7.93382,-7.93382"
       style="fill:none;stroke:#ab9a97;stroke-width:0.89664;stroke-linecap:butt;stroke-linejoin:miter;stroke-miterlimit:10;stroke-dasharray:none;stroke-opacity:1"
       transform="matrix(1.0666667,0,0,-1.0666667,71.7952,32.9576)" />
    <path
       id="path18"
       d="M 3.93951,0 C 3.45572,0.1214 1.32913,0.80937 0,1.55806 V -1.55806 C 1.32913,-0.80937 3.45572,-0.1214 3.93951,0 Z"
       style="fill:#ab9a97;fill-opacity:1;fill-rule:nonzero;stroke:#ab9a97;stroke-width:0.89664;stroke-linecap:butt;stroke-linejoin:miter;stroke-miterlimit:10;stroke-dasharray:none;stroke-opacity:1"
       transform="matrix(0.75424,0.75424,0.75424,-0.75424,61.7464,105.51504)" />
    <path
       id="path19"
       d="M 17.35457,-60.08878 9.42075,-68.0226"
       style="fill:none;stroke:#ab9a97;stroke-width:0.89664;stroke-linecap:butt;stroke-linejoin:miter;stroke-miterlimit:10;stroke-dasharray:none;stroke-opacity:1"
       transform="matrix(1.0666667,0,0,-1.0666667,71.7952,32.9576)" />
    <path
       id="path20"
       d="M 3.93951,0 C 3.45572,0.1214 1.32913,0.80937 0,1.55806 V -1.55806 C 1.32913,-0.80937 3.45572,-0.1214 3.93951,0 Z"
       style="fill:#ab9a97;fill-opacity:1;fill-rule:nonzero;stroke:#ab9a97;stroke-width:0.89664;stroke-linecap:butt;stroke-linejoin:miter;stroke-miterlimit:10;stroke-dasharray:none;stroke-opacity:1"
       transform="matrix(-0.75424,0.75424,0.75424,0.75424,81.844,105.51504)" />
    <path
       id="path21"
       d="M -16.53053,-27.0327 11.80486,-47.06918"
       style="fill:none;stroke:#ab9a97;stroke-width:0.89664;stroke-linecap:butt;stroke-linejoin:miter;stroke-miterlimit:10;stroke-dasharray:none;stroke-opacity:1"
       transform="matrix(1.0666667,0,0,-1.0666667,71.7952,32.9576)" />
    <path
       id="path22"
       d="M 3.93951,0 C 3.45572,0.1214 1.32913,0.80937 0,1.55806 V -1.55806 C 1.32913,-0.80937 3.45572,-0.1214 3.93951,0 Z"
       style="fill:#ab9a97;fill-opacity:1;fill-rule:nonzero;stroke:#ab9a97;stroke-width:0.89664;stroke-linecap:butt;stroke-linejoin:miter;stroke-miterlimit:10;stroke-dasharray:none;stroke-opacity:1"
       transform="matrix(0.87090133,0.615808,0.615808,-0.87090133,84.387051,83.164715)" />
    <path
       id="path23"
       d="m -51.04158,-95.7637 c 0,2.59373 -2.10259,4.69632 -4.69632,4.69632 -2.59372,0 -4.6963,-2.10259 -4.6963,-4.69632 0,-2.59374 2.10258,-4.69632 4.6963,-4.69632 2.59373,0 4.69632,2.10258 4.69632,4.69632 z"
       style="fill:#d9f3fd;fill-opacity:1;fill-rule:nonzero;stroke:#006395;stroke-width:0.89664;stroke-linecap:butt;stroke-linejoin:miter;stroke-miterlimit:10;stroke-dasharray:none;stroke-opacity:1"
       transform="matrix(1.0666667,0,0,-1.0666667,71.7952,32.9576)" />
    <path
       id="path24"
       d="m 3.1072852,-5.9036289 c -1.6699219,0 -2.79785161,1.2304687 -2.79785161,3.046875 0,1.8164062 1.12792971,3.04687499 2.79785161,3.04687499 0.703125,0 1.3330078,-0.21972656 1.8017578,-0.61523437 0.6298828,-0.54199219 1.0107422,-1.43554692 1.0107422,-2.38769532 0,-1.875 -1.1132813,-3.0908203 -2.8125,-3.0908203 z m 0,0.6445312 c 1.2597656,0 2.0654296,0.9667969 2.0654296,2.4316407 0,1.40625 -0.8349609,2.35839841 -2.0654296,2.35839841 -1.2304688,0 -2.0654297,-0.95214841 -2.0654297,-2.38769531 0,-1.4355469 0.8349609,-2.4023438 2.0654297,-2.4023438 z m 3.5192871,7.0019532 h 0.6738281 v -2.18261722 c 0.3515625,0.42480469 0.7470703,0.62988281 1.2890625,0.62988281 1.0693359,0 1.7871091,-0.87890625 1.7871091,-2.21191409 0,-1.3916015 -0.6884763,-2.2705078 -1.8017575,-2.2705078 -0.5712891,0 -1.0253907,0.2490235 -1.3330079,0.7470703 V -4.1751133 H 6.6265723 Z M 8.457627,-3.6770664 c 0.7470703,0 1.2158203,0.6445312 1.2158203,1.640625 0,0.9521484 -0.4833985,1.59667968 -1.2158203,1.59667968 -0.6884766,0 -1.1572266,-0.62988278 -1.1572266,-1.61132808 0,-0.9814454 0.46875,-1.6259766 1.1572266,-1.6259766 z m 6.262207,1.8164062 c 0,-0.6445312 -0.04395,-1.0253906 -0.161133,-1.3330078 -0.27832,-0.6884765 -0.908203,-1.0986328 -1.699219,-1.0986328 -1.157226,0 -1.904296,0.8935547 -1.904296,2.2558594 0,1.37695312 0.717773,2.22656249 1.889648,2.22656249 0.966797,0 1.625977,-0.54199218 1.787109,-1.45019529 h -0.673828 c -0.175781,0.54199217 -0.55664,0.83496092 -1.083984,0.83496092 -0.424805,0 -0.776367,-0.19042969 -1.010742,-0.54199219 C 11.702256,-1.2161289 11.658311,-1.4505039 11.643662,-1.8606602 Z m -3.061523,-0.5419921 c 0.05859,-0.7763672 0.527343,-1.2744141 1.201171,-1.2744141 0.644532,0 1.157227,0.5419922 1.157227,1.2158203 0,0.029297 0,0.043945 -0.01465,0.058594 z m 3.962402,-1.772461 v 4.17480470625 h 0.65918 V -2.1682773 c 0,-0.600586 0.161132,-0.9814454 0.46875,-1.2158204 0.205078,-0.1611328 0.410156,-0.2050781 0.878906,-0.2050781 v -0.6884765 c -0.117188,-0.014648 -0.175781,-0.014648 -0.263672,-0.014648 -0.424805,0 -0.74707,0.2490235 -1.142578,0.8789063 v -0.7617188 z m 6.280517,3.77929689 c -0.07324,0.0146484 -0.102539,0.0146484 -0.146484,0.0146484 -0.234375,0 -0.351562,-0.1171875 -0.351562,-0.32226562 V -3.1497227 c 0,-0.7470703 -0.541993,-1.1425781 -1.567383,-1.1425781 -0.615235,0 -1.113281,0.1757813 -1.391602,0.4833985 -0.190429,0.2197265 -0.27832,0.4541015 -0.292969,0.8642578 h 0.673829 c 0.05859,-0.5126953 0.366211,-0.7324219 0.981445,-0.7324219 0.600586,0 0.9375,0.2197266 0.9375,0.6152344 v 0.1757812 c 0,0.2783203 -0.175781,0.3955078 -0.703125,0.46875 -0.9375,0.1171875 -1.083984,0.1464844 -1.333008,0.2490235 -0.483398,0.2050781 -0.732422,0.571289 -0.732422,1.1132812 0,0.76171876 0.527344,1.24511719 1.362305,1.24511719 0.527344,0 0.952148,-0.19042968375 1.420898,-0.61523437 0.05859,0.41015625 0.263672,0.61523437 0.688477,0.61523437 0.131836,0 0.234375,-0.0292969 0.454101,-0.0732422 z M 20.744004,-1.318668 c 0,0.2197266 -0.07324,0.36621097 -0.263672,0.54199222 -0.27832,0.24902344 -0.600586,0.38085937 -0.996094,0.38085937 -0.512695,0 -0.820312,-0.24902343 -0.820312,-0.67382809 0,-0.4394532 0.292969,-0.6591797 1.010742,-0.7617188 0.703125,-0.102539 0.834961,-0.1318359 1.069336,-0.234375 z m 3.347168,-2.8564453 h -0.688477 v -1.1425781 h -0.659179 v 1.1425781 h -0.556641 v 0.5419922 h 0.556641 v 3.14941407 c 0,0.42480469 0.292968,0.67382812 0.805664,0.67382812 0.161133,0 0.322265,-0.0292969 0.541992,-0.0585938 v -0.55664062 c -0.08789,0.0146484 -0.19043,0.0292969 -0.322266,0.0292969 -0.27832,0 -0.366211,-0.0878906 -0.366211,-0.38085937 v -2.8564453 h 0.688477 z m 1.395264,0 h -0.673829 v 4.17480470625 h 0.673829 z m 0,-1.640625 h -0.673829 v 0.8496094 h 0.673829 z m 2.735595,1.5234375 c -1.171875,0 -1.875,0.834961 -1.875,2.241211 0,1.39160152 0.688477,2.24121089 1.889649,2.24121089 1.157226,0 1.875,-0.84960937 1.875,-2.21191409 0,-1.4501953 -0.688477,-2.2705078 -1.889649,-2.2705078 z m 0.01465,0.6152344 c 0.74707,0 1.186523,0.6152344 1.186523,1.640625 0,0.9814453 -0.454101,1.61132812 -1.186523,1.61132812 -0.747071,0 -1.201172,-0.61523442 -1.201172,-1.62597652 0,-1.0107422 0.454101,-1.6259766 1.201172,-1.6259766 z m 2.805175,-0.4980469 v 4.17480470625 h 0.673829 V -2.3001133 c 0,-0.8496094 0.439453,-1.4208984 1.127929,-1.4208984 0.527344,0 0.864258,0.3222656 0.864258,0.8349609 v 2.88574220625 h 0.65918 V -3.1497227 c 0,-0.703125 -0.512696,-1.1425781 -1.31836,-1.1425781 -0.629882,0 -1.02539,0.234375 -1.391601,0.8203125 v -0.703125 z m 7.36084,1.1572266 c 0,-0.8203125 -0.541992,-1.2744141 -1.508789,-1.2744141 -0.966797,0 -1.596679,0.4980469 -1.596679,1.2744141 0,0.6445312 0.322265,0.9667969 1.318359,1.2011719 l 0.615234,0.1464843 c 0.46875,0.1171875 0.644532,0.2783203 0.644532,0.5859375 0,0.39550784 -0.38086,0.65917972 -0.966797,0.65917972 -0.351563,0 -0.65918,-0.10253906 -0.834961,-0.27832031 -0.102539,-0.13183594 -0.146485,-0.24902344 -0.19043,-0.54199221 H 35.18004 c 0.04395,0.96679689 0.585938,1.43554689 1.669922,1.43554689 1.054687,0 1.728516,-0.52734375 1.728516,-1.33300779 0,-0.6152344 -0.351563,-0.9667969 -1.186524,-1.1572266 L 36.76207,-2.4612461 c -0.541992,-0.1171875 -0.776367,-0.2929687 -0.776367,-0.5859375 0,-0.3808594 0.336914,-0.6298828 0.878906,-0.6298828 0.541993,0 0.820313,0.2197266 0.834961,0.6591797 z m 0,0"
       style="fill:#000000;fill-opacity:1;fill-rule:nonzero;stroke:none"
       aria-label="Operations"
       transform="matrix(1.0666667,0,0,1.0666667,21.584,137.33627)" />
    <path
       id="path25"
       d="M -1.81679,-95.7637 H 12.238"
       style="fill:none;stroke:#ab9a97;stroke-width:0.89664;stroke-linecap:butt;stroke-linejoin:miter;stroke-miterlimit:10;stroke-dasharray:none;stroke-opacity:1"
       transform="matrix(1.0666667,0,0,-1.0666667,71.7952,32.9576)" />
    <path
       id="path26"
       d="M 3.93951,0 C 3.45572,0.1214 1.32913,0.80937 0,1.55806 V -1.55806 C 1.32913,-0.80937 3.45572,-0.1214 3.93951,0 Z"
       style="fill:#ab9a97;fill-opacity:1;fill-rule:nonzero;stroke:#ab9a97;stroke-width:0.89664;stroke-linecap:butt;stroke-linejoin:miter;stroke-miterlimit:10;stroke-dasharray:none;stroke-opacity:1"
       transform="matrix(1.0666667,0,0,-1.0666667,84.849067,135.10555)" />
    <path
       id="path27"
       d="M 0.70388477,0.00136914 H 2.9450957 c 1.4648438,0 2.3730469,-1.09863284 2.3730469,-2.91503904 0,-1.8017578 -0.8935547,-2.9003906 -2.3730469,-2.9003906 H 0.70388477 Z M 1.4509551,-0.65781055 V -5.1548809 h 1.3769531 c 1.1425781,0 1.7431641,0.7763672 1.7431641,2.2558594 0,1.4648438 -0.600586,2.24121095 -1.7431641,2.24121095 z m 8.5656739,0.26367188 c -0.073242,0.0146484 -0.1025392,0.0146484 -0.1464845,0.0146484 -0.234375,0 -0.3515625,-0.1171875 -0.3515625,-0.32226563 v -2.446289 c 0,-0.7470703 -0.5419922,-1.1425781 -1.5673828,-1.1425781 -0.6152344,0 -1.1132812,0.1757812 -1.3916015,0.4833984 C 6.369168,-3.587498 6.2812773,-3.353123 6.2666289,-2.9429668 H 6.940457 c 0.058594,-0.5126953 0.366211,-0.7324219 0.9814453,-0.7324219 0.600586,0 0.9375,0.2197266 0.9375,0.6152344 v 0.1757813 c 0,0.2783203 -0.1757812,0.3955078 -0.703125,0.46875 -0.9375,0.1171875 -1.0839843,0.1464843 -1.3330078,0.2490234 -0.4833984,0.2050781 -0.7324218,0.5712891 -0.7324218,1.1132812 0,0.76171879 0.5273437,1.24511723 1.3623046,1.24511723 0.5273438,0 0.9521485,-0.19042969 1.4208985,-0.61523438 0.058594,0.41015625 0.2636719,0.61523438 0.6884765,0.61523438 0.131836,0 0.234375,-0.0292969 0.4541017,-0.0732422 z M 8.8594023,-1.3169902 c 0,0.2197265 -0.073242,0.3662109 -0.2636718,0.54199215 -0.2783203,0.24902344 -0.600586,0.38085938 -0.9960938,0.38085938 -0.5126953,0 -0.8203125,-0.24902344 -0.8203125,-0.67382813 0,-0.4394531 0.2929688,-0.6591797 1.0107422,-0.7617187 0.703125,-0.1025391 0.8349609,-0.131836 1.0693359,-0.234375 z M 12.20657,-4.1734355 h -0.688476 v -1.1425782 h -0.65918 v 1.1425782 h -0.556641 v 0.5419921 h 0.556641 v 3.1494141 c 0,0.42480469 0.292969,0.67382813 0.805664,0.67382813 0.161133,0 0.322266,-0.0292969 0.541992,-0.0585938 V -0.4234356 c -0.08789,0.0146484 -0.190429,0.0292969 -0.322265,0.0292969 -0.278321,0 -0.366211,-0.0878906 -0.366211,-0.38085938 V -3.6314434 h 0.688476 z m 4.456787,3.77929683 c -0.07324,0.0146484 -0.102539,0.0146484 -0.146484,0.0146484 -0.234375,0 -0.351562,-0.1171875 -0.351562,-0.32226563 v -2.446289 c 0,-0.7470703 -0.541993,-1.1425781 -1.567383,-1.1425781 -0.615235,0 -1.113282,0.1757812 -1.391602,0.4833984 -0.19043,0.2197266 -0.27832,0.4541016 -0.292969,0.8642578 h 0.673829 c 0.05859,-0.5126953 0.36621,-0.7324219 0.981445,-0.7324219 0.600586,0 0.9375,0.2197266 0.9375,0.6152344 v 0.1757813 c 0,0.2783203 -0.175781,0.3955078 -0.703125,0.46875 -0.9375,0.1171875 -1.083985,0.1464843 -1.333008,0.2490234 -0.483398,0.2050781 -0.732422,0.5712891 -0.732422,1.1132812 0,0.76171879 0.527344,1.24511723 1.362305,1.24511723 0.527344,0 0.952148,-0.19042969 1.420898,-0.61523438 0.05859,0.41015625 0.263672,0.61523438 0.688477,0.61523438 0.131836,0 0.234375,-0.0292969 0.454101,-0.0732422 z M 15.506131,-1.3169902 c 0,0.2197265 -0.07324,0.3662109 -0.263672,0.54199215 -0.27832,0.24902344 -0.600586,0.38085938 -0.996094,0.38085938 -0.512695,0 -0.820312,-0.24902344 -0.820312,-0.67382813 0,-0.4394531 0.292968,-0.6591797 1.010742,-0.7617187 0.703125,-0.1025391 0.834961,-0.131836 1.069336,-0.234375 z m 5.592041,-2.8564453 h -0.703125 v -0.6591797 c 0,-0.2783203 0.161133,-0.4248047 0.46875,-0.4248047 0.05859,0 0.07324,0 0.234375,0.014648 v -0.5419922 c -0.161133,-0.043945 -0.249024,-0.043945 -0.380859,-0.043945 -0.615235,0 -0.981446,0.3515625 -0.981446,0.9521485 v 0.703125 h -0.55664 v 0.5419921 h 0.55664 v 3.63281254 h 0.65918 V -3.6314434 h 0.703125 z m 1.376953,-1.640625 h -0.65918 v 5.81542964 h 0.65918 z m 2.728271,1.5234375 c -1.171875,0 -1.875,0.8349609 -1.875,2.2412109 0,1.39160155 0.688477,2.24121093 1.889649,2.24121093 1.157226,0 1.875,-0.84960938 1.875,-2.21191403 0,-1.4501953 -0.688477,-2.2705078 -1.889649,-2.2705078 z m 0.01465,0.6152343 c 0.74707,0 1.186523,0.6152344 1.186523,1.640625 0,0.9814453 -0.454101,1.61132815 -1.186523,1.61132815 -0.74707,0 -1.201172,-0.61523435 -1.201172,-1.62597655 0,-1.0107422 0.454102,-1.6259766 1.201172,-1.6259766 z m 6.536865,3.67675784 1.230469,-4.17480464 h -0.74707 l -0.834961,3.25195308 -0.820313,-3.25195308 h -0.805664 l -0.791016,3.25195308 -0.864257,-3.25195308 h -0.732422 l 1.21582,4.17480464 h 0.74707 l 0.805664,-3.28125004 0.84961,3.28125004 z m 0,0"
       style="fill:#000000;fill-opacity:1;fill-rule:nonzero;stroke:none"
       aria-label="Datafow"
       transform="matrix(1.0666667,0,0,1.0666667,94.776533,138.18213)" />
    <path
       id="path28"
       d="M 5.4345313,-3.8378301 C 5.3905859,-4.335877 5.2880469,-4.6581426 5.0390234,-4.9950566 4.5995703,-5.5809941 3.8817969,-5.9032598 3.0175391,-5.9032598 c -1.640625,0 -2.66601566,1.171875 -2.66601566,3.046875 0,1.87500003 1.01074216,3.04687503 2.62207036,3.04687503 1.4501953,0 2.4169921,-0.84960937 2.4902343,-2.16796873 h -1.171875 c -0.073242,0.7324219 -0.5419922,1.15722655 -1.274414,1.15722655 -0.9228516,0 -1.4648438,-0.74707035 -1.4648438,-2.02148435 0,-1.2744141 0.5566406,-2.0361328 1.4941406,-2.0361328 0.4248047,0 0.7617188,0.1318359 0.9814454,0.4101562 0.1318359,0.1611328 0.1904296,0.3222656 0.2636718,0.6298828 z m 2.7209472,-0.5419922 c -1.3183594,0 -2.1240234,0.8789063 -2.1240234,2.2851563 0,1.42089842 0.805664,2.28515623 2.1240234,2.28515623 1.3183594,0 2.1386715,-0.87890625 2.1386715,-2.25585933 0,-1.4501954 -0.7910152,-2.3144532 -2.1386715,-2.3144532 z m 0,0.9082032 c 0.6152344,0 1.0107422,0.5419921 1.0107422,1.3916015 0,0.8056641 -0.4101562,1.36230471 -1.0107422,1.36230471 -0.6005859,0 -1.0107422,-0.55664061 -1.0107422,-1.37695311 0,-0.8203125 0.4101563,-1.3769531 1.0107422,-1.3769531 z m 2.9516605,-0.834961 V 6.0546875e-5 H 12.22042 V -2.5780645 c 0,-0.5273437 0.27832,-0.8496093 0.761719,-0.8496093 0.380859,0 0.600586,0.2197265 0.600586,0.5566406 V 6.0546875e-5 h 1.127929 V -2.5780645 c 0,-0.5273437 0.278321,-0.8496093 0.761719,-0.8496093 0.366211,0 0.600586,0.2197265 0.600586,0.5566406 V 6.0546875e-5 H 17.18624 V -3.0468145 c 0,-0.8349609 -0.512695,-1.3330078 -1.362304,-1.3330078 -0.541993,0 -0.922852,0.1904297 -1.259766,0.6445313 -0.205078,-0.4101563 -0.644531,-0.6445313 -1.171875,-0.6445313 -0.498047,0 -0.820313,0.1757813 -1.186524,0.6152344 v -0.5419922 z m 8.184814,0 h -1.113281 v 6.0498047 h 1.113281 v -2.25585937 c 0.263672,0.48339844 0.644531,0.703125 1.186524,0.703125 1.040039,0 1.801757,-0.96679687 1.801757,-2.28515623 0,-0.600586 -0.175781,-1.2011719 -0.454101,-1.5966797 -0.292969,-0.4101563 -0.820313,-0.6884766 -1.347656,-0.6884766 -0.541993,0 -0.922852,0.234375 -1.186524,0.7177735 z m 0.9375,0.8642578 c 0.571289,0 0.9375,0.5566407 0.9375,1.3769532 0,0.7763671 -0.395508,1.31835933 -0.9375,1.31835933 -0.55664,0 -0.9375,-0.54199223 -0.9375,-1.34765623 0,-0.7910156 0.38086,-1.3476563 0.9375,-1.3476563 z M 26.887168,6.0546875e-5 V -4.3065801 h -1.113281 v 2.6953125 c 0,0.5126953 -0.351563,0.8496094 -0.893555,0.8496094 -0.483398,0 -0.717773,-0.2636719 -0.717773,-0.7763672 v -2.7685547 h -1.113282 v 3.0029297 c 0,0.95214845 0.512696,1.49414063 1.435547,1.49414063 0.585938,0 0.966797,-0.21972656 1.289063,-0.703125 V 6.0546875e-5 Z M 29.849814,-4.2186895 H 29.219932 V -5.375916 H 28.10665 v 1.1572265 h -0.541992 v 0.7470704 h 0.541992 v 2.63671871 c 0,0.68847656 0.366211,1.02539062 1.098633,1.02539062 0.249024,0 0.439453,-0.0292969 0.644531,-0.0878906 V -0.688416 c -0.117187,0.0146484 -0.175781,0.0292969 -0.263671,0.0292969 -0.292969,0 -0.366211,-0.0878906 -0.366211,-0.46875 v -2.34375 h 0.629882 z m 4.427491,4.08691411 C 34.072227,-0.32220508 34.028281,-0.43939258 34.028281,-0.65911914 V -3.0468145 c 0,-0.8789062 -0.600586,-1.3330078 -1.772461,-1.3330078 -1.157226,0 -1.757812,0.4980469 -1.831054,1.4941407 h 1.069336 c 0.05859,-0.4394532 0.249023,-0.5859375 0.791015,-0.5859375 0.424805,0 0.644531,0.1464843 0.644531,0.4248046 0,0.1464844 -0.07324,0.2783204 -0.190429,0.3369141 -0.146485,0.073242 -0.146485,0.073242 -0.703125,0.1611328 l -0.439453,0.087891 c -0.84961,0.1464844 -1.274414,0.5859375 -1.274414,1.3476563 0,0.36621093 0.102539,0.67382812 0.307617,0.89355468 0.249023,0.24902344 0.615234,0.41015625 0.996094,0.41015625 0.483398,0 0.922851,-0.21972656 1.318359,-0.61523437 0,0.21972656 0.01465,0.29296875 0.117187,0.424804686875 h 1.215821 z M 32.929648,-1.7284551 c 0,0.6445313 -0.322265,1.01074221 -0.878906,1.01074221 -0.380859,0 -0.615234,-0.20507813 -0.615234,-0.51269531 0,-0.3369141 0.175781,-0.4980469 0.644531,-0.6005859 l 0.380859,-0.058594 c 0.292969,-0.058594 0.336915,-0.073242 0.46875,-0.1464844 z m 4.006348,-2.4902344 H 36.306113 V -5.375916 h -1.113281 v 1.1572265 H 34.65084 v 0.7470704 h 0.541992 v 2.63671871 c 0,0.68847656 0.366211,1.02539062 1.098633,1.02539062 0.249023,0 0.439453,-0.0292969 0.644531,-0.0878906 V -0.688416 c -0.117187,0.0146484 -0.175781,0.0292969 -0.263672,0.0292969 -0.292969,0 -0.366211,-0.0878906 -0.366211,-0.46875 v -2.34375 h 0.629883 z m 1.907959,-0.087891 h -1.12793 V 6.0546875e-5 h 1.12793 z m 0,-1.508789 h -1.12793 v 0.9960937 h 1.12793 z m 2.962647,1.4355468 c -1.31836,0 -2.124024,0.8789063 -2.124024,2.2851563 0,1.42089842 0.805664,2.28515623 2.124024,2.28515623 1.318359,0 2.138671,-0.87890625 2.138671,-2.25585933 0,-1.4501954 -0.791015,-2.3144532 -2.138671,-2.3144532 z m 0,0.9082032 c 0.615234,0 1.010742,0.5419921 1.010742,1.3916015 0,0.8056641 -0.410156,1.36230471 -1.010742,1.36230471 -0.600586,0 -1.010743,-0.55664061 -1.010743,-1.37695311 0,-0.8203125 0.410157,-1.3769531 1.010743,-1.3769531 z m 2.966308,-0.834961 V 6.0546875e-5 h 1.113281 V -2.5780645 c 0,-0.5126953 0.366211,-0.8496093 0.908204,-0.8496093 0.483398,0 0.717773,0.2636718 0.717773,0.7763672 V 6.0546875e-5 h 1.113281 V -2.8856816 c 0,-0.9521485 -0.527344,-1.4941407 -1.435547,-1.4941407 -0.585937,0 -0.981445,0.2197266 -1.303711,0.703125 v -0.6298828 z m 8.547363,4.17480471 C 53.115195,-0.32220508 53.07125,-0.43939258 53.07125,-0.65911914 V -3.0468145 c 0,-0.8789062 -0.600586,-1.3330078 -1.772461,-1.3330078 -1.157226,0 -1.757812,0.4980469 -1.831055,1.4941407 h 1.069336 c 0.05859,-0.4394532 0.249024,-0.5859375 0.791016,-0.5859375 0.424805,0 0.644531,0.1464843 0.644531,0.4248046 0,0.1464844 -0.07324,0.2783204 -0.190429,0.3369141 -0.146485,0.073242 -0.146485,0.073242 -0.703125,0.1611328 l -0.439454,0.087891 c -0.849609,0.1464844 -1.274414,0.5859375 -1.274414,1.3476563 0,0.36621093 0.102539,0.67382812 0.307618,0.89355468 0.249023,0.24902344 0.615234,0.41015625 0.996093,0.41015625 0.483399,0 0.922852,-0.21972656 1.31836,-0.61523437 0,0.21972656 0.01465,0.29296875 0.117187,0.424804686875 h 1.21582 z M 51.972617,-1.7284551 c 0,0.6445313 -0.322265,1.01074221 -0.878906,1.01074221 -0.380859,0 -0.615234,-0.20507813 -0.615234,-0.51269531 0,-0.3369141 0.175781,-0.4980469 0.644531,-0.6005859 l 0.380859,-0.058594 c 0.292969,-0.058594 0.336914,-0.073242 0.46875,-0.1464844 z m 3.259278,-4.086914 h -1.12793 V 6.0546875e-5 h 1.12793 z m 8.444824,2.6953125 h -2.329102 v 0.9960937 h 1.31836 c -0.0293,0.3222656 -0.102539,0.5273438 -0.278321,0.7324219 -0.292968,0.3515625 -0.732422,0.55664061 -1.186523,0.55664061 -0.966797,0 -1.669922,-0.84960941 -1.669922,-2.03613281 0,-1.2597656 0.615234,-2.0068359 1.625977,-2.0068359 0.424804,0 0.776367,0.1171875 1.040039,0.336914 0.161132,0.1464844 0.249023,0.2929688 0.351562,0.5859375 h 1.12793 c -0.146485,-1.1865234 -1.113281,-1.9482422 -2.519531,-1.9482422 -1.669922,0 -2.8125,1.2304688 -2.8125,3.046875 0,1.7578125 1.142578,3.04687503 2.70996,3.04687503 0.791016,0 1.31836,-0.29296875 1.757813,-0.9375 l 0.146484,0.76171875 h 0.717774 z m 1.029052,-1.1865235 V 6.0546875e-5 h 1.113282 V -2.2850957 c 0,-0.6591797 0.336914,-0.9814453 0.981445,-0.9814453 0.131836,0 0.205078,0.014648 0.351563,0.029297 v -1.1279297 c -0.05859,-0.014648 -0.10254,-0.014648 -0.131836,-0.014648 -0.512696,0 -0.952149,0.3369141 -1.201172,0.9228516 v -0.8496094 z m 6.774903,4.17480471 C 71.275596,-0.32220508 71.23165,-0.43939258 71.23165,-0.65911914 V -3.0468145 c 0,-0.8789062 -0.600586,-1.3330078 -1.772461,-1.3330078 -1.157226,0 -1.757812,0.4980469 -1.831054,1.4941407 h 1.069336 c 0.05859,-0.4394532 0.249023,-0.5859375 0.791015,-0.5859375 0.424805,0 0.644532,0.1464843 0.644532,0.4248046 0,0.1464844 -0.07324,0.2783204 -0.19043,0.3369141 -0.146484,0.073242 -0.146484,0.073242 -0.703125,0.1611328 l -0.439453,0.087891 c -0.84961,0.1464844 -1.274414,0.5859375 -1.274414,1.3476563 0,0.36621093 0.102539,0.67382812 0.307617,0.89355468 0.249023,0.24902344 0.615234,0.41015625 0.996094,0.41015625 0.483398,0 0.922851,-0.21972656 1.318359,-0.61523437 0,0.21972656 0.01465,0.29296875 0.117188,0.424804686875 h 1.21582 z M 70.133018,-1.7284551 c 0,0.6445313 -0.322266,1.01074221 -0.878907,1.01074221 -0.380859,0 -0.615234,-0.20507813 -0.615234,-0.51269531 0,-0.3369141 0.175781,-0.4980469 0.644531,-0.6005859 l 0.38086,-0.058594 c 0.292968,-0.058594 0.336914,-0.073242 0.46875,-0.1464844 z m 3.189697,-2.578125 h -1.113281 v 6.0498047 h 1.113281 v -2.25585937 c 0.263672,0.48339844 0.644531,0.703125 1.186523,0.703125 1.040039,0 1.801758,-0.96679687 1.801758,-2.28515623 0,-0.600586 -0.175781,-1.2011719 -0.454101,-1.5966797 -0.292969,-0.4101563 -0.820313,-0.6884766 -1.347657,-0.6884766 -0.541992,0 -0.922851,0.234375 -1.186523,0.7177735 z m 0.9375,0.8642578 c 0.571289,0 0.9375,0.5566407 0.9375,1.3769532 0,0.7763671 -0.395508,1.31835933 -0.9375,1.31835933 -0.556641,0 -0.9375,-0.54199223 -0.9375,-1.34765623 0,-0.7910156 0.380859,-1.3476563 0.9375,-1.3476563 z m 2.874756,-2.3730468 V 6.0546875e-5 H 78.2629 V -2.5780645 c 0,-0.4980468 0.351563,-0.8496093 0.84961,-0.8496093 0.249023,0 0.439453,0.087891 0.55664,0.2636718 0.102539,0.1464844 0.131836,0.2490235 0.131836,0.5273438 V 6.0546875e-5 h 1.113282 V -2.8856816 c 0,-0.5273438 -0.131836,-0.9082032 -0.439454,-1.1572266 -0.234375,-0.2050781 -0.600585,-0.3369141 -0.952148,-0.3369141 -0.556641,0 -0.952148,0.234375 -1.259766,0.703125 v -2.1386718 z m 0,0"
       style="fill:#000000;fill-opacity:1;fill-rule:nonzero;stroke:none"
       aria-label="ComputationalGraph"
       transform="matrix(1.0666667,0,0,1.0666667,26.890667,11.019467)" />
    <path
       id="path29"
       d="M 4.1891719,3.4960938e-4 6.034875,-5.478166 V 3.4960938e-4 H 6.8258906 V -6.5328535 H 5.6686641 L 3.7643672,-0.84925977 1.8307734,-6.5328535 H 0.67354688 V 3.4960938e-4 H 1.4645625 V -5.478166 L 3.3102656,3.4960938e-4 Z M 12.070031,-2.094377 c 0,-0.7177734 -0.05859,-1.1572265 -0.190429,-1.4941406 -0.307618,-0.7763672 -1.025391,-1.2451172 -1.9042973,-1.2451172 -1.3037109,0 -2.1533203,1.0107422 -2.1533203,2.5488282 0,1.5380859 0.8203125,2.49023433 2.1386719,2.49023433 1.0839847,0 1.8164067,-0.61523437 2.0068357,-1.62597653 h -0.74707 c -0.205078,0.61523435 -0.629883,0.93749997 -1.2304689,0.93749997 -0.46875,0 -0.8789062,-0.21972656 -1.1279297,-0.61523437 C 8.6862422,-1.3619551 8.613,-1.625627 8.613,-2.094377 Z M 8.6276484,-2.7096113 c 0.058594,-0.8642578 0.5859375,-1.4355469 1.3476563,-1.4355469 0.7324223,0 1.2890623,0.6152344 1.2890623,1.3916016 0,0.014648 0,0.029297 0,0.043945 z M 13.084436,-4.7017988 V 3.4960938e-4 h 0.74707 V -2.9439863 c 0,-0.6884766 0.498047,-1.2304688 1.113281,-1.2304688 0.541992,0 0.864258,0.3369141 0.864258,0.9375 V 3.4960938e-4 h 0.74707 V -2.9439863 c 0,-0.6884766 0.498047,-1.2304688 1.113281,-1.2304688 0.541993,0 0.864258,0.3515625 0.864258,0.9375 V 3.4960938e-4 h 0.747071 V -3.5299238 c 0,-0.834961 -0.483399,-1.303711 -1.362305,-1.303711 -0.629883,0 -0.996094,0.1904297 -1.435547,0.7177735 -0.27832,-0.4980469 -0.65918,-0.7177735 -1.274414,-0.7177735 -0.615234,0 -1.025391,0.234375 -1.435547,0.8056641 v -0.6738281 z m 9.268798,-0.131836 c -1.318359,0 -2.109375,0.9375 -2.109375,2.5195313 0,1.58203123 0.791016,2.51953123 2.124024,2.51953123 1.318359,0 2.124023,-0.9375 2.124023,-2.47558593 0,-1.6259766 -0.776367,-2.5634766 -2.138672,-2.5634766 z m 0.01465,0.6884766 c 0.849609,0 1.347656,0.6884766 1.347656,1.8603516 0,1.0986328 -0.527344,1.80175777 -1.347656,1.80175777 -0.834961,0 -1.347656,-0.68847657 -1.347656,-1.83105467 0,-1.1279297 0.512695,-1.8310547 1.347656,-1.8310547 z m 3.156738,-0.5566406 V 3.4960938e-4 H 26.28634 V -2.431291 c 0,-0.6738281 0.161133,-1.1132813 0.527344,-1.3769531 0.234375,-0.1757813 0.454101,-0.2197266 0.966796,-0.234375 v -0.7617188 c -0.117187,-0.014648 -0.175781,-0.029297 -0.27832,-0.029297 -0.483398,0 -0.849609,0.2929688 -1.289062,0.9814453 v -0.8496093 z m 6.112061,0 -1.289063,3.6621093 -1.201172,-3.6621093 h -0.805664 l 1.59668,4.71679685 -0.292969,0.74707031 c -0.117188,0.33691404 -0.29297,0.45410154 -0.600587,0.45410154 -0.102539,0 -0.234375,-0.014648 -0.395508,-0.043945 v 0.6591797 c 0.146485,0.087891 0.307618,0.1171875 0.498047,0.1171875 0.249024,0 0.512696,-0.073242 0.703125,-0.2197266 0.234375,-0.1757812 0.366211,-0.3662109 0.512696,-0.74707028 L 32.456994,-4.7017988 Z M 39.319787,3.4960938e-4 41.16549,-5.478166 V 3.4960938e-4 h 0.791016 V -6.5328535 H 40.799279 L 38.894982,-0.84925977 36.961389,-6.5328535 H 35.804162 V 3.4960938e-4 h 0.791016 V -5.478166 L 38.440881,3.4960938e-4 Z M 47.391076,-0.43910352 c -0.07324,0.0146484 -0.117187,0.0146484 -0.161133,0.0146484 -0.249023,0 -0.395507,-0.13183594 -0.395507,-0.36621094 V -3.5445723 c 0,-0.8349609 -0.615235,-1.2890625 -1.772461,-1.2890625 -0.673829,0 -1.245118,0.2050782 -1.552735,0.5419922 -0.219726,0.2490235 -0.307617,0.5126953 -0.322265,0.9814453 h 0.74707 c 0.05859,-0.571289 0.410156,-0.8349609 1.098633,-0.8349609 0.673828,0 1.054687,0.2490234 1.054687,0.703125 v 0.1904297 c 0,0.3222656 -0.190429,0.4541015 -0.776367,0.5273437 -1.054687,0.131836 -1.21582,0.1757813 -1.508789,0.2929688 -0.541992,0.2197265 -0.820313,0.6445312 -0.820313,1.2451172 0,0.84960935 0.585938,1.39160153 1.538086,1.39160153 0.585938,0 1.069336,-0.20507812062 1.59668,-0.68847656 0.05859,0.46875 0.27832,0.68847656 0.776367,0.68847656 0.146485,0 0.263672,-0.0146484 0.498047,-0.0732422 z M 46.087365,-1.4791426 c 0,0.2490235 -0.07324,0.4101563 -0.292969,0.6152344 -0.307617,0.27832031 -0.673828,0.41015625 -1.113281,0.41015625 -0.585937,0 -0.922851,-0.27832032 -0.922851,-0.74707035 0,-0.4980468 0.336914,-0.7470703 1.127929,-0.8642578 0.791016,-0.102539 0.952149,-0.1464844 1.201172,-0.2636719 z m 2.127686,-3.2226562 V 3.4960938e-4 h 0.74707 V -2.5924238 c 0,-0.9521485 0.512695,-1.5820313 1.274414,-1.5820313 0.600586,0 0.966797,0.3515625 0.966797,0.9228516 V 3.4960938e-4 h 0.74707 V -3.5445723 c 0,-0.7910156 -0.585937,-1.2890625 -1.49414,-1.2890625 -0.688477,0 -1.142578,0.2636719 -1.552735,0.9228516 v -0.7910156 z m 9.144287,4.26269528 c -0.07324,0.0146484 -0.117188,0.0146484 -0.161133,0.0146484 -0.249023,0 -0.395508,-0.13183594 -0.395508,-0.36621094 V -3.5445723 c 0,-0.8349609 -0.615234,-1.2890625 -1.772461,-1.2890625 -0.673828,0 -1.245117,0.2050782 -1.552734,0.5419922 -0.219727,0.2490235 -0.307617,0.5126953 -0.322266,0.9814453 h 0.747071 c 0.05859,-0.571289 0.410156,-0.8349609 1.098632,-0.8349609 0.673829,0 1.054688,0.2490234 1.054688,0.703125 v 0.1904297 c 0,0.3222656 -0.19043,0.4541015 -0.776367,0.5273437 -1.054688,0.131836 -1.215821,0.1757813 -1.508789,0.2929688 -0.541992,0.2197265 -0.820313,0.6445312 -0.820313,1.2451172 0,0.84960935 0.585938,1.39160153 1.538086,1.39160153 0.585938,0 1.069336,-0.20507812062 1.59668,-0.68847656 0.05859,0.46875 0.27832,0.68847656 0.776367,0.68847656 0.146484,0 0.263672,-0.0146484 0.498047,-0.0732422 z M 56.055627,-1.4791426 c 0,0.2490235 -0.07324,0.4101563 -0.292969,0.6152344 -0.307617,0.27832031 -0.673828,0.41015625 -1.113281,0.41015625 -0.585938,0 -0.922852,-0.27832032 -0.922852,-0.74707035 0,-0.4980468 0.336914,-0.7470703 1.12793,-0.8642578 0.791016,-0.102539 0.952149,-0.1464844 1.201172,-0.2636719 z m 5.189209,-3.2226562 v 0.6884765 c -0.380859,-0.5566406 -0.834961,-0.8203125 -1.435547,-0.8203125 -1.186523,0 -1.992187,1.0400391 -1.992187,2.5634766 0,0.7763672 0.205078,1.40625 0.585937,1.84570312 0.351563,0.39550781 0.849609,0.62988281 1.347656,0.62988281 0.585938,0 0.996094,-0.24902343 1.420899,-0.83496093 v 0.234375 c 0,0.64453125 -0.07324,1.02539062 -0.263672,1.2890625 -0.205078,0.2783203 -0.585938,0.4394531 -1.040039,0.4394531 -0.336914,0 -0.644531,-0.102539 -0.84961,-0.2636719 C 58.842492,0.93784961 58.76925,0.82066211 58.725305,0.5423418 h -0.761719 c 0.08789,0.8789062 0.776367,1.40625 1.875,1.40625 0.703125,0 1.303711,-0.2197266 1.611328,-0.6005859 0.351563,-0.42480473 0.483399,-1.01074223 0.483399,-2.12402348 V -4.7017988 Z m -1.347656,0.5566406 c 0.805664,0 1.274414,0.6884766 1.274414,1.8603516 0,1.1132812 -0.483399,1.80175777 -1.274414,1.80175777 -0.805664,0 -1.303711,-0.68847657 -1.303711,-1.83105467 0,-1.1279297 0.498047,-1.8310547 1.303711,-1.8310547 z m 7.243652,2.0507812 c 0,-0.7177734 -0.05859,-1.1572265 -0.19043,-1.4941406 -0.307617,-0.7763672 -1.02539,-1.2451172 -1.904297,-1.2451172 -1.30371,0 -2.15332,1.0107422 -2.15332,2.5488282 0,1.5380859 0.820313,2.49023433 2.138672,2.49023433 1.083984,0 1.816406,-0.61523437 2.006836,-1.62597653 h -0.74707 c -0.205078,0.61523435 -0.629883,0.93749997 -1.230469,0.93749997 -0.46875,0 -0.878906,-0.21972656 -1.12793,-0.61523437 -0.175781,-0.2636719 -0.249023,-0.5273438 -0.249023,-0.9960938 z m -3.442383,-0.6152343 c 0.05859,-0.8642578 0.585938,-1.4355469 1.347656,-1.4355469 0.732422,0 1.289063,0.6152344 1.289063,1.3916016 0,0.014648 0,0.029297 0,0.043945 z m 4.456787,-1.9921875 V 3.4960938e-4 h 0.747071 V -2.9439863 c 0,-0.6884766 0.498047,-1.2304688 1.113281,-1.2304688 0.541992,0 0.864258,0.3369141 0.864258,0.9375 V 3.4960938e-4 h 0.74707 V -2.9439863 c 0,-0.6884766 0.498047,-1.2304688 1.113281,-1.2304688 0.541992,0 0.864258,0.3515625 0.864258,0.9375 V 3.4960938e-4 h 0.74707 V -3.5299238 c 0,-0.834961 -0.483398,-1.303711 -1.362304,-1.303711 -0.629883,0 -0.996094,0.1904297 -1.435547,0.7177735 -0.27832,-0.4980469 -0.65918,-0.7177735 -1.274414,-0.7177735 -0.615235,0 -1.025391,0.234375 -1.435547,0.8056641 v -0.6738281 z m 11.44043,2.6074218 c 0,-0.7177734 -0.05859,-1.1572265 -0.19043,-1.4941406 -0.307617,-0.7763672 -1.02539,-1.2451172 -1.904297,-1.2451172 -1.30371,0 -2.15332,1.0107422 -2.15332,2.5488282 0,1.5380859 0.820313,2.49023433 2.138672,2.49023433 1.083984,0 1.816406,-0.61523437 2.006836,-1.62597653 h -0.74707 c -0.205078,0.61523435 -0.629883,0.93749997 -1.230469,0.93749997 -0.46875,0 -0.878906,-0.21972656 -1.12793,-0.61523437 -0.175781,-0.2636719 -0.249023,-0.5273438 -0.249023,-0.9960938 z m -3.442383,-0.6152343 c 0.05859,-0.8642578 0.585938,-1.4355469 1.347656,-1.4355469 0.732422,0 1.289063,0.6152344 1.289063,1.3916016 0,0.014648 0,0.029297 0,0.043945 z M 80.61007,-4.7017988 V 3.4960938e-4 h 0.747071 V -2.5924238 c 0,-0.9521485 0.512695,-1.5820313 1.274414,-1.5820313 0.600586,0 0.966797,0.3515625 0.966797,0.9228516 V 3.4960938e-4 h 0.74707 V -3.5445723 c 0,-0.7910156 -0.585938,-1.2890625 -1.494141,-1.2890625 -0.688476,0 -1.142578,0.2636719 -1.552734,0.9228516 v -0.7910156 z m 6.624756,0 h -0.761719 v -1.2890625 h -0.74707 v 1.2890625 h -0.629883 v 0.6152343 h 0.629883 v 3.54492192 c 0,0.48339844 0.322266,0.74707031 0.908203,0.74707031 0.175781,0 0.351563,-0.0146484 0.600586,-0.0585938 v -0.62988281 c -0.08789,0.0292969 -0.205078,0.0292969 -0.351562,0.0292969 -0.322266,0 -0.410157,-0.0878906 -0.410157,-0.41015625 V -4.0865645 h 0.761719 z m 0,0"
       style="fill:#000000;fill-opacity:1;fill-rule:nonzero;stroke:none"
       aria-label="MemoryManagement"
       transform="matrix(1.0666667,0,0,1.0666667,222.8128,65.628533)" />
    <path
       id="path30"
       d="M 219.44365,6.17834 H 151.18567 V -10.8861 h 68.25798 z"
       style="fill:#f6d0ae;fill-opacity:1;fill-rule:nonzero;stroke:#000000;stroke-width:0.74721;stroke-linecap:butt;stroke-linejoin:miter;stroke-miterlimit:10;stroke-dasharray:none;stroke-opacity:1"
       transform="matrix(1.0666667,0,0,-1.0666667,71.7952,32.9576)" />
    <path
       id="path31"
       d="m 217.00586,-10.88593 h -63.3824 v -7.31333 h 63.3824 z"
       style="fill:#fbebdc;fill-opacity:1;fill-rule:nonzero;stroke:#000000;stroke-width:0.74721;stroke-linecap:butt;stroke-linejoin:miter;stroke-miterlimit:10;stroke-dasharray:none;stroke-opacity:1"
       transform="matrix(1.0666667,0,0,-1.0666667,71.7952,32.9576)" />
    <path
       id="path32"
       d="m 164.59413,2.52168 h -7.31333 v -9.75111 h 7.31333 z"
       style="fill:#fdf1e8;fill-opacity:1;fill-rule:nonzero;stroke:#000000;stroke-width:0.49814;stroke-linecap:butt;stroke-linejoin:miter;stroke-miterlimit:10;stroke-dasharray:none;stroke-opacity:1"
       transform="matrix(1.0666667,0,0,-1.0666667,71.7952,32.9576)" />
    <path
       id="path33"
       d="m 174.34528,2.52168 h -7.31334 v -9.75111 h 7.31334 z"
       style="fill:#fdf1e8;fill-opacity:1;fill-rule:nonzero;stroke:#000000;stroke-width:0.49814;stroke-linecap:butt;stroke-linejoin:miter;stroke-miterlimit:10;stroke-dasharray:none;stroke-opacity:1"
       transform="matrix(1.0666667,0,0,-1.0666667,71.7952,32.9576)" />
    <path
       id="path34"
       d="m 184.09642,2.52168 h -7.31334 v -9.75111 h 7.31334 z"
       style="fill:#fdf1e8;fill-opacity:1;fill-rule:nonzero;stroke:#000000;stroke-width:0.49814;stroke-linecap:butt;stroke-linejoin:miter;stroke-miterlimit:10;stroke-dasharray:none;stroke-opacity:1"
       transform="matrix(1.0666667,0,0,-1.0666667,71.7952,32.9576)" />
    <path
       id="path35"
       d="m 193.84755,2.52168 h -7.31334 v -9.75111 h 7.31334 z"
       style="fill:#fdf1e8;fill-opacity:1;fill-rule:nonzero;stroke:#000000;stroke-width:0.49814;stroke-linecap:butt;stroke-linejoin:miter;stroke-miterlimit:10;stroke-dasharray:none;stroke-opacity:1"
       transform="matrix(1.0666667,0,0,-1.0666667,71.7952,32.9576)" />
    <path
       id="path36"
       d="m 203.5987,2.52168 h -7.31335 v -9.75111 h 7.31335 z"
       style="fill:#fdf1e8;fill-opacity:1;fill-rule:nonzero;stroke:#000000;stroke-width:0.49814;stroke-linecap:butt;stroke-linejoin:miter;stroke-miterlimit:10;stroke-dasharray:none;stroke-opacity:1"
       transform="matrix(1.0666667,0,0,-1.0666667,71.7952,32.9576)" />
    <path
       id="path37"
       d="m 213.34984,2.52168 h -7.31334 v -9.75111 h 7.31334 z"
       style="fill:#fdf1e8;fill-opacity:1;fill-rule:nonzero;stroke:#000000;stroke-width:0.49814;stroke-linecap:butt;stroke-linejoin:miter;stroke-miterlimit:10;stroke-dasharray:none;stroke-opacity:1"
       transform="matrix(1.0666667,0,0,-1.0666667,71.7952,32.9576)" />
    <path
       id="path38"
       d="m 156.79318,-17.77057 v 2.43779"
       style="fill:none;stroke:#000000;stroke-width:1.49442;stroke-linecap:butt;stroke-linejoin:miter;stroke-miterlimit:10;stroke-dasharray:none;stroke-opacity:1"
       transform="matrix(1.0666667,0,0,-1.0666667,71.7952,32.9576)" />
    <path
       id="path39"
       d="m 159.9623,-17.77057 v 2.43779"
       style="fill:none;stroke:#000000;stroke-width:1.49442;stroke-linecap:butt;stroke-linejoin:miter;stroke-miterlimit:10;stroke-dasharray:none;stroke-opacity:1"
       transform="matrix(1.0666667,0,0,-1.0666667,71.7952,32.9576)" />
    <path
       id="path40"
       d="m 163.13141,-17.77057 v 2.43779"
       style="fill:none;stroke:#000000;stroke-width:1.49442;stroke-linecap:butt;stroke-linejoin:miter;stroke-miterlimit:10;stroke-dasharray:none;stroke-opacity:1"
       transform="matrix(1.0666667,0,0,-1.0666667,71.7952,32.9576)" />
    <path
       id="path41"
       d="m 166.30052,-17.77057 v 2.43779"
       style="fill:none;stroke:#000000;stroke-width:1.49442;stroke-linecap:butt;stroke-linejoin:miter;stroke-miterlimit:10;stroke-dasharray:none;stroke-opacity:1"
       transform="matrix(1.0666667,0,0,-1.0666667,71.7952,32.9576)" />
    <path
       id="path42"
       d="m 169.46962,-17.77057 v 2.43779"
       style="fill:none;stroke:#000000;stroke-width:1.49442;stroke-linecap:butt;stroke-linejoin:miter;stroke-miterlimit:10;stroke-dasharray:none;stroke-opacity:1"
       transform="matrix(1.0666667,0,0,-1.0666667,71.7952,32.9576)" />
    <path
       id="path43"
       d="m 172.63873,-17.77057 v 2.43779"
       style="fill:none;stroke:#000000;stroke-width:1.49442;stroke-linecap:butt;stroke-linejoin:miter;stroke-miterlimit:10;stroke-dasharray:none;stroke-opacity:1"
       transform="matrix(1.0666667,0,0,-1.0666667,71.7952,32.9576)" />
    <path
       id="path44"
       d="m 175.80783,-17.77057 v 2.43779"
       style="fill:none;stroke:#000000;stroke-width:1.49442;stroke-linecap:butt;stroke-linejoin:miter;stroke-miterlimit:10;stroke-dasharray:none;stroke-opacity:1"
       transform="matrix(1.0666667,0,0,-1.0666667,71.7952,32.9576)" />
    <path
       id="path45"
       d="m 178.97694,-17.77057 v 2.43779"
       style="fill:none;stroke:#000000;stroke-width:1.49442;stroke-linecap:butt;stroke-linejoin:miter;stroke-miterlimit:10;stroke-dasharray:none;stroke-opacity:1"
       transform="matrix(1.0666667,0,0,-1.0666667,71.7952,32.9576)" />
    <path
       id="path46"
       d="m 182.14606,-17.77057 v 2.43779"
       style="fill:none;stroke:#000000;stroke-width:1.49442;stroke-linecap:butt;stroke-linejoin:miter;stroke-miterlimit:10;stroke-dasharray:none;stroke-opacity:1"
       transform="matrix(1.0666667,0,0,-1.0666667,71.7952,32.9576)" />
    <path
       id="path47"
       d="m 185.31516,-17.77057 v 2.43779"
       style="fill:none;stroke:#000000;stroke-width:1.49442;stroke-linecap:butt;stroke-linejoin:miter;stroke-miterlimit:10;stroke-dasharray:none;stroke-opacity:1"
       transform="matrix(1.0666667,0,0,-1.0666667,71.7952,32.9576)" />
    <path
       id="path48"
       d="m 188.48425,-17.77057 v 2.43779"
       style="fill:none;stroke:#000000;stroke-width:1.49442;stroke-linecap:butt;stroke-linejoin:miter;stroke-miterlimit:10;stroke-dasharray:none;stroke-opacity:1"
       transform="matrix(1.0666667,0,0,-1.0666667,71.7952,32.9576)" />
    <path
       id="path49"
       d="m 191.65337,-17.77057 v 2.43779"
       style="fill:none;stroke:#000000;stroke-width:1.49442;stroke-linecap:butt;stroke-linejoin:miter;stroke-miterlimit:10;stroke-dasharray:none;stroke-opacity:1"
       transform="matrix(1.0666667,0,0,-1.0666667,71.7952,32.9576)" />
    <path
       id="path50"
       d="m 194.82248,-17.77057 v 2.43779"
       style="fill:none;stroke:#000000;stroke-width:1.49442;stroke-linecap:butt;stroke-linejoin:miter;stroke-miterlimit:10;stroke-dasharray:none;stroke-opacity:1"
       transform="matrix(1.0666667,0,0,-1.0666667,71.7952,32.9576)" />
    <path
       id="path51"
       d="m 197.9916,-17.77057 v 2.43779"
       style="fill:none;stroke:#000000;stroke-width:1.49442;stroke-linecap:butt;stroke-linejoin:miter;stroke-miterlimit:10;stroke-dasharray:none;stroke-opacity:1"
       transform="matrix(1.0666667,0,0,-1.0666667,71.7952,32.9576)" />
    <path
       id="path52"
       d="m 201.1607,-17.77057 v 2.43779"
       style="fill:none;stroke:#000000;stroke-width:1.49442;stroke-linecap:butt;stroke-linejoin:miter;stroke-miterlimit:10;stroke-dasharray:none;stroke-opacity:1"
       transform="matrix(1.0666667,0,0,-1.0666667,71.7952,32.9576)" />
    <path
       id="path53"
       d="m 204.32982,-17.77057 v 2.43779"
       style="fill:none;stroke:#000000;stroke-width:1.49442;stroke-linecap:butt;stroke-linejoin:miter;stroke-miterlimit:10;stroke-dasharray:none;stroke-opacity:1"
       transform="matrix(1.0666667,0,0,-1.0666667,71.7952,32.9576)" />
    <path
       id="path54"
       d="m 207.49892,-17.77057 v 2.43779"
       style="fill:none;stroke:#000000;stroke-width:1.49442;stroke-linecap:butt;stroke-linejoin:miter;stroke-miterlimit:10;stroke-dasharray:none;stroke-opacity:1"
       transform="matrix(1.0666667,0,0,-1.0666667,71.7952,32.9576)" />
    <path
       id="path55"
       d="m 210.66801,-17.77057 v 2.43779"
       style="fill:none;stroke:#000000;stroke-width:1.49442;stroke-linecap:butt;stroke-linejoin:miter;stroke-miterlimit:10;stroke-dasharray:none;stroke-opacity:1"
       transform="matrix(1.0666667,0,0,-1.0666667,71.7952,32.9576)" />
    <path
       id="path56"
       d="m 213.83713,-17.77057 v 2.43779"
       style="fill:none;stroke:#000000;stroke-width:1.49442;stroke-linecap:butt;stroke-linejoin:miter;stroke-miterlimit:10;stroke-dasharray:none;stroke-opacity:1"
       transform="matrix(1.0666667,0,0,-1.0666667,71.7952,32.9576)" />
    <path
       id="path57"
       d="M 0.79043359,-9.7070312e-4 H 3.3099648 c 1.6552735,0 2.6660157,-1.23046879688 2.6660157,-3.26660159688 0,-2.0361328 -0.9960938,-3.2666015 -2.6660157,-3.2666015 H 0.79043359 Z M 1.6253945,-0.73339258 V -5.801752 h 1.5527344 c 1.2890625,0 1.9628906,0.8642579 1.9628906,2.5341797 0,1.6552735 -0.6738281,2.53417972 -1.9628906,2.53417972 z M 11.073637,-2.0956973 c 0,-0.7177734 -0.05859,-1.1572265 -0.19043,-1.4941406 -0.307617,-0.7763672 -1.0253906,-1.2451172 -1.9042968,-1.2451172 -1.303711,0 -2.1533204,1.0107422 -2.1533204,2.5488281 0,1.53808598 0.8203125,2.49023442 2.1386719,2.49023442 1.0839843,0 1.8164063,-0.61523437 2.0068363,-1.62597652 h -0.747071 c -0.205078,0.61523433 -0.6298825,0.93749996 -1.2304684,0.93749996 -0.46875,0 -0.8789063,-0.21972656 -1.1279297,-0.61523436 C 7.6898477,-1.3632754 7.6166055,-1.6269473 7.6166055,-2.0956973 Z M 7.6312539,-2.7109316 c 0.058594,-0.8642579 0.5859375,-1.4355469 1.3476563,-1.4355469 0.7324218,0 1.2890628,0.6152344 1.2890628,1.3916015 0,0.014648 0,0.029297 0,0.043945 z M 13.739652,-9.7070312e-4 15.54141,-4.7031191 h -0.834961 l -1.333008,3.80859371 -1.245117,-3.80859371 h -0.849609 l 1.655273,4.70214839688 z M 17.020902,-4.7031191 h -0.74707 v 4.70214839688 h 0.74707 z m 0,-1.8310547 h -0.761718 v 0.9375 h 0.761718 z m 4.863282,3.4130859 c -0.0293,-0.4541016 -0.131836,-0.7470703 -0.307618,-1.0107422 -0.322265,-0.4394531 -0.893554,-0.703125 -1.538086,-0.703125 -1.274414,0 -2.094726,1.0107422 -2.094726,2.5634766 0,1.52343748 0.805664,2.47558592 2.080078,2.47558592 1.113281,0 1.831055,-0.67382812 1.918945,-1.81640622 h -0.74707 c -0.131836,0.74707028 -0.512695,1.12792966 -1.157227,1.12792966 -0.820312,0 -1.318359,-0.67382816 -1.318359,-1.78710936 0,-1.171875 0.483399,-1.875 1.303711,-1.875 0.629883,0 1.025391,0.3662109 1.113281,1.0253906 z m 4.863281,1.0253906 c 0,-0.7177734 -0.05859,-1.1572265 -0.19043,-1.4941406 -0.307617,-0.7763672 -1.02539,-1.2451172 -1.904297,-1.2451172 -1.303711,0 -2.15332,1.0107422 -2.15332,2.5488281 0,1.53808598 0.820312,2.49023442 2.138672,2.49023442 1.083984,0 1.816406,-0.61523437 2.006836,-1.62597652 h -0.747071 c -0.205078,0.61523433 -0.629882,0.93749996 -1.230468,0.93749996 -0.46875,0 -0.878907,-0.21972656 -1.12793,-0.61523436 -0.175781,-0.2636719 -0.249023,-0.5273438 -0.249023,-0.9960938 z m -3.442383,-0.6152343 c 0.05859,-0.8642579 0.585938,-1.4355469 1.347656,-1.4355469 0.732422,0 1.289063,0.6152344 1.289063,1.3916015 0,0.014648 0,0.029297 0,0.043945 z m 7.976074,-0.058594 h 2.050781 c 0.512696,0 0.908204,-0.1611328 1.259766,-0.46875 0.395508,-0.3515625 0.571289,-0.7763672 0.571289,-1.3769531 0,-1.2304688 -0.732422,-1.9189453 -2.021484,-1.9189453 h -2.695313 v 6.53320309688 h 0.834961 z m 0,-0.7324219 V -5.801752 h 1.728516 c 0.805664,0 1.274414,0.4248047 1.274414,1.1425782 0,0.7177734 -0.46875,1.1572265 -1.274414,1.1572265 z m 5.687256,-3.0322265 h -0.74707 v 6.53320309688 h 0.74707 z m 5.41626,6.09374997 c -0.07324,0.0146484 -0.117188,0.0146484 -0.161133,0.0146484 -0.249023,0 -0.395508,-0.13183594 -0.395508,-0.36621094 V -3.5458926 c 0,-0.8349609 -0.615234,-1.2890625 -1.772461,-1.2890625 -0.673828,0 -1.245117,0.2050781 -1.552734,0.5419922 -0.219727,0.2490234 -0.307617,0.5126953 -0.322266,0.9814453 h 0.747071 c 0.05859,-0.571289 0.410156,-0.8349609 1.098632,-0.8349609 0.673829,0 1.054688,0.2490234 1.054688,0.703125 v 0.1904297 c 0,0.3222656 -0.19043,0.4541015 -0.776367,0.5273437 -1.054688,0.131836 -1.215821,0.1757813 -1.508789,0.2929688 -0.541993,0.2197265 -0.820313,0.6445312 -0.820313,1.2451172 0,0.84960933 0.585938,1.39160152 1.538086,1.39160152 0.585938,0 1.069336,-0.20507812312 1.59668,-0.68847656 0.05859,0.46875 0.27832,0.68847656 0.776367,0.68847656 0.146484,0 0.263672,-0.0146484 0.498047,-0.0732422 z M 41.080961,-1.4804629 c 0,0.2490234 -0.07324,0.4101563 -0.292969,0.61523438 -0.307617,0.27832032 -0.673828,0.41015625 -1.113281,0.41015625 -0.585938,0 -0.922852,-0.27832031 -0.922852,-0.74707033 0,-0.4980469 0.336914,-0.7470703 1.12793,-0.8642578 0.791016,-0.1025391 0.952148,-0.1464844 1.201172,-0.2636719 z m 5.720215,-1.640625 c -0.0293,-0.4541016 -0.131836,-0.7470703 -0.307617,-1.0107422 -0.322266,-0.4394531 -0.893555,-0.703125 -1.538086,-0.703125 -1.274414,0 -2.094727,1.0107422 -2.094727,2.5634766 0,1.52343748 0.805664,2.47558592 2.080078,2.47558592 1.113281,0 1.831055,-0.67382812 1.918946,-1.81640622 h -0.747071 c -0.131836,0.74707028 -0.512695,1.12792966 -1.157226,1.12792966 -0.820313,0 -1.31836,-0.67382816 -1.31836,-1.78710936 0,-1.171875 0.483399,-1.875 1.303711,-1.875 0.629883,0 1.025391,0.3662109 1.113281,1.0253906 z m 4.863281,1.0253906 c 0,-0.7177734 -0.05859,-1.1572265 -0.19043,-1.4941406 -0.307617,-0.7763672 -1.02539,-1.2451172 -1.904297,-1.2451172 -1.30371,0 -2.15332,1.0107422 -2.15332,2.5488281 0,1.53808598 0.820313,2.49023442 2.138672,2.49023442 1.083984,0 1.816406,-0.61523437 2.006836,-1.62597652 h -0.74707 c -0.205078,0.61523433 -0.629883,0.93749996 -1.230469,0.93749996 -0.46875,0 -0.878906,-0.21972656 -1.12793,-0.61523436 -0.175781,-0.2636719 -0.249023,-0.5273438 -0.249023,-0.9960938 z m -3.442383,-0.6152343 c 0.05859,-0.8642579 0.585938,-1.4355469 1.347656,-1.4355469 0.732422,0 1.289063,0.6152344 1.289063,1.3916015 0,0.014648 0,0.029297 0,0.043945 z m 4.456787,-1.9921875 v 4.70214839688 h 0.747071 V -2.9453066 c 0,-0.6884766 0.498047,-1.2304688 1.113281,-1.2304688 0.541992,0 0.864258,0.3369141 0.864258,0.9375 v 3.23730469688 h 0.74707 V -2.9453066 c 0,-0.6884766 0.498047,-1.2304688 1.113281,-1.2304688 0.541992,0 0.864258,0.3515625 0.864258,0.9375 v 3.23730469688 h 0.74707 V -3.5312441 c 0,-0.834961 -0.483398,-1.303711 -1.362304,-1.303711 -0.629883,0 -0.996094,0.1904297 -1.435547,0.7177735 -0.27832,-0.4980469 -0.65918,-0.7177735 -1.274414,-0.7177735 -0.615235,0 -1.025391,0.234375 -1.435547,0.8056641 v -0.6738281 z m 11.44043,2.6074218 c 0,-0.7177734 -0.05859,-1.1572265 -0.19043,-1.4941406 -0.307617,-0.7763672 -1.02539,-1.2451172 -1.904297,-1.2451172 -1.30371,0 -2.15332,1.0107422 -2.15332,2.5488281 0,1.53808598 0.820313,2.49023442 2.138672,2.49023442 1.083984,0 1.816406,-0.61523437 2.006836,-1.62597652 h -0.74707 c -0.205078,0.61523433 -0.629883,0.93749996 -1.230469,0.93749996 -0.46875,0 -0.878906,-0.21972656 -1.12793,-0.61523436 -0.175781,-0.2636719 -0.249023,-0.5273438 -0.249023,-0.9960938 z m -3.442383,-0.6152343 c 0.05859,-0.8642579 0.585938,-1.4355469 1.347656,-1.4355469 0.732422,0 1.289063,0.6152344 1.289063,1.3916015 0,0.014648 0,0.029297 0,0.043945 z m 4.456787,-1.9921875 v 4.70214839688 h 0.747071 V -2.5937441 c 0,-0.9521485 0.512695,-1.5820313 1.274414,-1.5820313 0.600586,0 0.966797,0.3515625 0.966797,0.9228516 v 3.25195309688 h 0.74707 V -3.5458926 c 0,-0.7910156 -0.585938,-1.2890625 -1.494141,-1.2890625 -0.688476,0 -1.142578,0.2636719 -1.552734,0.9228516 v -0.7910156 z m 6.624756,0 h -0.761719 v -1.2890625 h -0.74707 v 1.2890625 h -0.629883 v 0.6152343 h 0.629883 v 3.54492191 c 0,0.48339844 0.322266,0.74707031 0.908203,0.74707031 0.175781,0 0.351563,-0.0146484 0.600586,-0.0585938 v -0.62988281 c -0.08789,0.0292969 -0.205078,0.0292969 -0.351562,0.0292969 -0.322266,0 -0.410157,-0.0878906 -0.410157,-0.41015625 V -4.0878848 h 0.761719 z m 0,0"
       style="fill:#000000;fill-opacity:1;fill-rule:nonzero;stroke:none"
       aria-label="DevicePlacement"
       transform="matrix(1.0666667,0,0,1.0666667,231.07093,137.33307)" />
    <path
       id="path58"
       d="M 198.11671,-50.64438 H 172.5126 c -1.10046,0 -1.99255,-0.89209 -1.99255,-1.99255 v -25.60411 c 0,-1.10048 0.89209,-1.99256 1.99255,-1.99256 h 25.60411 c 1.10049,0 1.99256,0.89208 1.99256,1.99256 v 25.60411 c 0,1.10046 -0.89207,1.99255 -1.99256,1.99255 z"
       style="fill:#3382aa;fill-opacity:1;fill-rule:nonzero;stroke:none"
       transform="matrix(1.0666667,0,0,-1.0666667,71.7952,32.9576)" />
    <path
       id="path59"
       d="m 197.41934,-53.3343 h -24.20936 v -24.20937 h 24.20936 z"
       style="fill:#ffffff;fill-opacity:1;fill-rule:nonzero;stroke:none"
       transform="matrix(1.0666667,0,0,-1.0666667,71.7952,32.9576)" />
    <path
       id="path60"
       d="M 195.17773,-55.57591 H 175.4516 v -19.72614 h 19.72613 z"
       style="fill:#99c1d5;fill-opacity:1;fill-rule:nonzero;stroke:none"
       transform="matrix(1.0666667,0,0,-1.0666667,71.7952,32.9576)" />
    <path
       id="path61"
       d="M 10.221354,-5.6333941 H 6.0221354 v 1.7903646 h 2.3763021 c -0.065104,0.5859375 -0.1953125,0.9440104 -0.5208333,1.3346354 -0.5208334,0.6184896 -1.3020834,1.0091146 -2.1484375,1.0091146 -1.7252605,0 -2.9622396,-1.5299479 -2.9622396,-3.6783854 0,-2.2460938 1.1067708,-3.6132813 2.9296875,-3.6132813 0.7486979,0 1.3671875,0.1953125 1.8554687,0.6184896 0.2929688,0.2604167 0.4557292,0.5208333 0.6184896,1.0416667 H 10.221354 C 9.9609375,-9.2792274 8.203125,-10.646415 5.6640625,-10.646415 c -2.9947917,0 -5.04557292,2.2460938 -5.04557292,5.5013022 0,3.157552 2.05078122,5.46874995 4.88281252,5.46874995 1.3997396,0 2.34375,-0.48828125 3.1575521,-1.66015625 l 0.2604166,1.3671875 h 1.3020832 z m 4.199219,1.8880208 h 2.669271 c 1.920573,0 3.157552,-1.3671875 3.157552,-3.4830729 0,-2.0833333 -1.171875,-3.2226558 -3.352865,-3.2226558 h -4.622396 v 10.44921832 h 2.148438 z m 0,-1.7903645 v -3.125 h 1.985677 c 1.171875,0 1.692708,0.4882812 1.692708,1.5625 0,1.0742187 -0.520833,1.5625 -1.692708,1.5625 z m 13.533529,-4.9153642 v 7.0638017 c 0,1.2695312 -0.651042,1.8880208 -1.985678,1.8880208 -1.334635,0 -1.985677,-0.6184896 -1.985677,-1.8880208 V -10.451102 H 21.83431 v 7.0638017 c 0,1.204427 0.292969,2.0182291 1.009114,2.66927079 0.748698,0.68359375 1.855469,1.04166666 3.125,1.04166666 1.269532,0 2.376303,-0.35807291 3.125,-1.04166666 0.716146,-0.65104169 1.009115,-1.46484379 1.009115,-2.66927079 v -7.0638017 z m 0,0"
       style="fill:#000000;fill-opacity:1;fill-rule:nonzero;stroke:none"
       aria-label="GPU"
       transform="matrix(0.48,0,0,0.48,262,105.22747)" />
    <path
       id="path62"
       d="m 173.97212,-42.93324 h -1.79329 v -6.72481 h 1.79329 z"
       style="fill:#3382aa;fill-opacity:1;fill-rule:nonzero;stroke:none"
       transform="matrix(1.0666667,0,0,-1.0666667,71.7952,32.9576)" />
    <path
       id="path63"
       d="m 178.67932,-42.93324 h -1.79329 v -6.72481 h 1.79329 z"
       style="fill:#3382aa;fill-opacity:1;fill-rule:nonzero;stroke:none"
       transform="matrix(1.0666667,0,0,-1.0666667,71.7952,32.9576)" />
    <path
       id="path64"
       d="m 183.387,-42.93324 h -1.7933 v -6.72481 h 1.7933 z"
       style="fill:#3382aa;fill-opacity:1;fill-rule:nonzero;stroke:none"
       transform="matrix(1.0666667,0,0,-1.0666667,71.7952,32.9576)" />
    <path
       id="path65"
       d="m 188.09418,-42.93324 h -1.79329 v -6.72481 h 1.79329 z"
       style="fill:#3382aa;fill-opacity:1;fill-rule:nonzero;stroke:none"
       transform="matrix(1.0666667,0,0,-1.0666667,71.7952,32.9576)" />
    <path
       id="path66"
       d="m 192.80185,-42.93324 h -1.79329 v -6.72481 h 1.79329 z"
       style="fill:#3382aa;fill-opacity:1;fill-rule:nonzero;stroke:none"
       transform="matrix(1.0666667,0,0,-1.0666667,71.7952,32.9576)" />
    <path
       id="path67"
       d="m 197.1954,-42.93324 h -1.79329 v -6.72481 h 1.79329 z"
       style="fill:#3382aa;fill-opacity:1;fill-rule:nonzero;stroke:none"
       transform="matrix(1.0666667,0,0,-1.0666667,71.7952,32.9576)" />
    <path
       id="path68"
       d="m 173.97212,-81.21996 h -1.79329 v -6.7248 h 1.79329 z"
       style="fill:#3382aa;fill-opacity:1;fill-rule:nonzero;stroke:none"
       transform="matrix(1.0666667,0,0,-1.0666667,71.7952,32.9576)" />
    <path
       id="path69"
       d="m 178.67932,-81.21996 h -1.79329 v -6.7248 h 1.79329 z"
       style="fill:#3382aa;fill-opacity:1;fill-rule:nonzero;stroke:none"
       transform="matrix(1.0666667,0,0,-1.0666667,71.7952,32.9576)" />
    <path
       id="path70"
       d="m 183.387,-81.21996 h -1.7933 v -6.7248 h 1.7933 z"
       style="fill:#3382aa;fill-opacity:1;fill-rule:nonzero;stroke:none"
       transform="matrix(1.0666667,0,0,-1.0666667,71.7952,32.9576)" />
    <path
       id="path71"
       d="m 188.09418,-81.21996 h -1.79329 v -6.7248 h 1.79329 z"
       style="fill:#3382aa;fill-opacity:1;fill-rule:nonzero;stroke:none"
       transform="matrix(1.0666667,0,0,-1.0666667,71.7952,32.9576)" />
    <path
       id="path72"
       d="m 192.80185,-81.21996 h -1.79329 v -6.7248 h 1.79329 z"
       style="fill:#3382aa;fill-opacity:1;fill-rule:nonzero;stroke:none"
       transform="matrix(1.0666667,0,0,-1.0666667,71.7952,32.9576)" />
    <path
       id="path73"
       d="m 197.1954,-81.21996 h -1.79329 v -6.7248 h 1.79329 z"
       style="fill:#3382aa;fill-opacity:1;fill-rule:nonzero;stroke:none"
       transform="matrix(1.0666667,0,0,-1.0666667,71.7952,32.9576)" />
    <path
       id="path74"
       d="m 169.53372,-52.30316 h -6.72481 v -1.79329 h 6.72481 z"
       style="fill:#3382aa;fill-opacity:1;fill-rule:nonzero;stroke:none"
       transform="matrix(1.0666667,0,0,-1.0666667,71.7952,32.9576)" />
    <path
       id="path75"
       d="m 169.53372,-57.01036 h -6.72481 v -1.79329 h 6.72481 z"
       style="fill:#3382aa;fill-opacity:1;fill-rule:nonzero;stroke:none"
       transform="matrix(1.0666667,0,0,-1.0666667,71.7952,32.9576)" />
    <path
       id="path76"
       d="m 169.53372,-61.71803 h -6.72481 v -1.79329 h 6.72481 z"
       style="fill:#3382aa;fill-opacity:1;fill-rule:nonzero;stroke:none"
       transform="matrix(1.0666667,0,0,-1.0666667,71.7952,32.9576)" />
    <path
       id="path77"
       d="m 169.53372,-66.42522 h -6.72481 v -1.79328 h 6.72481 z"
       style="fill:#3382aa;fill-opacity:1;fill-rule:nonzero;stroke:none"
       transform="matrix(1.0666667,0,0,-1.0666667,71.7952,32.9576)" />
    <path
       id="path78"
       d="m 169.53372,-71.13289 h -6.72481 v -1.79329 h 6.72481 z"
       style="fill:#3382aa;fill-opacity:1;fill-rule:nonzero;stroke:none"
       transform="matrix(1.0666667,0,0,-1.0666667,71.7952,32.9576)" />
    <path
       id="path79"
       d="m 169.53372,-75.52644 h -6.72481 v -1.79329 h 6.72481 z"
       style="fill:#3382aa;fill-opacity:1;fill-rule:nonzero;stroke:none"
       transform="matrix(1.0666667,0,0,-1.0666667,71.7952,32.9576)" />
    <path
       id="path80"
       d="m 207.82043,-52.30316 h -6.7248 v -1.79329 h 6.7248 z"
       style="fill:#3382aa;fill-opacity:1;fill-rule:nonzero;stroke:none"
       transform="matrix(1.0666667,0,0,-1.0666667,71.7952,32.9576)" />
    <path
       id="path81"
       d="m 207.82043,-57.01036 h -6.7248 v -1.79329 h 6.7248 z"
       style="fill:#3382aa;fill-opacity:1;fill-rule:nonzero;stroke:none"
       transform="matrix(1.0666667,0,0,-1.0666667,71.7952,32.9576)" />
    <path
       id="path82"
       d="m 207.82043,-61.71803 h -6.7248 v -1.79329 h 6.7248 z"
       style="fill:#3382aa;fill-opacity:1;fill-rule:nonzero;stroke:none"
       transform="matrix(1.0666667,0,0,-1.0666667,71.7952,32.9576)" />
    <path
       id="path83"
       d="m 207.82043,-66.42522 h -6.7248 v -1.79328 h 6.7248 z"
       style="fill:#3382aa;fill-opacity:1;fill-rule:nonzero;stroke:none"
       transform="matrix(1.0666667,0,0,-1.0666667,71.7952,32.9576)" />
    <path
       id="path84"
       d="m 207.82043,-71.13289 h -6.7248 v -1.79329 h 6.7248 z"
       style="fill:#3382aa;fill-opacity:1;fill-rule:nonzero;stroke:none"
       transform="matrix(1.0666667,0,0,-1.0666667,71.7952,32.9576)" />
    <path
       id="path85"
       d="m 207.82043,-75.52644 h -6.7248 v -1.79329 h 6.7248 z"
       style="fill:#3382aa;fill-opacity:1;fill-rule:nonzero;stroke:none"
       transform="matrix(1.0666667,0,0,-1.0666667,71.7952,32.9576)" />
    <path
       id="path86"
       d="m 4.8336035,-4.0419004 c 0,-0.5273437 -0.1171875,-0.8789062 -0.4101562,-1.2011719 C 4.0425879,-5.667877 3.3980566,-5.902252 2.5630957,-5.902252 c -1.40625,0 -2.21191406,0.6445313 -2.21191406,1.7871094 0,0.8935547 0.45410156,1.3330078 1.64062496,1.5527344 l 0.8056641,0.1611328 c 0.8056641,0.1611328 1.0986328,0.3808594 1.0986328,0.8496094 0,0.4833984 -0.4394531,0.77636717 -1.171875,0.77636717 -0.805664,0 -1.2597656,-0.33691407 -1.3037109,-0.96679687 H 0.24864258 c 0.0732422,1.24511718 0.93750002,1.93359375 2.41699222,1.93359375 1.4941406,0 2.3730468,-0.703125 2.3730468,-1.88964845 0,-0.9082031 -0.4541015,-1.3916016 -1.5380859,-1.5966797 L 2.5923926,-3.4706113 C 1.7427832,-3.6463926 1.4937598,-3.8075254 1.4937598,-4.2323301 c 0,-0.4394531 0.3955078,-0.7177734 1.0107422,-0.7177734 0.7470703,0 1.171875,0.3222656 1.2158203,0.9082031 z m 3.6181641,-0.2636719 -0.8935547,3.1347657 -0.9375,-3.1347657 H 5.3902441 l 1.5966797,4.48242191 v 0.0292969 c 0,0.41015625 -0.2929687,0.71777344 -0.6884765,0.71777344 -0.087891,0 -0.1464844,0 -0.2929688,-0.0439453 V 1.7149355 c 0.1611328,0.029297 0.2636719,0.029297 0.3955078,0.029297 0.2783203,0 0.6152344,-0.058594 0.8056641,-0.1318359 C 7.5142676,1.4805605 7.6461035,1.3047793 7.8365332,0.79208398 L 9.6089941,-4.3055723 Z m 5.3247074,1.3916016 c -0.01465,-0.9082031 -0.717774,-1.4648438 -1.875,-1.4648438 -1.098633,0 -1.772461,0.5566407 -1.772461,1.4355469 0,0.2929688 0.08789,0.5419922 0.234375,0.703125 0.161132,0.1464844 0.292968,0.2197266 0.703125,0.366211 l 1.333007,0.4101562 c 0.278321,0.087891 0.38086,0.1757813 0.38086,0.3515625 0,0.26367188 -0.307617,0.4248047 -0.834961,0.4248047 -0.27832,0 -0.512695,-0.0585938 -0.65918,-0.16113282 -0.117187,-0.0878906 -0.161133,-0.17578128 -0.219726,-0.39550778 H 9.9825293 c 0.029297,0.93749997 0.7177737,1.43554685 2.0214847,1.43554685 0.600586,0 1.054687,-0.13183594 1.376953,-0.39550782 0.322265,-0.24902343 0.512695,-0.64453125 0.512695,-1.06933593 0,-0.5566406 -0.27832,-0.9228516 -0.849609,-1.0839844 l -1.40625,-0.4101562 c -0.307617,-0.087891 -0.395508,-0.1611328 -0.395508,-0.3369141 0,-0.234375 0.263672,-0.3955078 0.644531,-0.3955078 0.541992,0 0.805664,0.1904297 0.805664,0.5859375 z m 2.805175,-1.3037109 h -0.629882 v -1.1572266 h -1.113282 v 1.1572266 h -0.541992 v 0.7470703 h 0.541992 v 2.63671872 c 0,0.68847656 0.366211,1.02539063 1.098633,1.02539063 0.249024,0 0.439453,-0.0292969 0.644531,-0.0878906 V -0.6874082 c -0.117187,0.0146484 -0.175781,0.0292969 -0.263671,0.0292969 -0.292969,0 -0.366211,-0.0878906 -0.366211,-0.46875 v -2.34375 h 0.629882 z m 4.427491,2.4169921 c 0.01465,-0.087891 0.01465,-0.1318359 0.01465,-0.1904296 0,-0.4248047 -0.07324,-0.834961 -0.175781,-1.1279297 -0.27832,-0.7910157 -0.981445,-1.2597657 -1.845703,-1.2597657 -1.230469,0 -1.992188,0.8935547 -1.992188,2.34375 0,1.37695317 0.747071,2.22656255 1.962891,2.22656255 0.966797,0 1.743164,-0.55664063 1.992187,-1.40625005 h -1.098632 c -0.131836,0.35156255 -0.439454,0.54199223 -0.84961,0.54199223 -0.322265,0 -0.571289,-0.13183593 -0.732422,-0.36621093 -0.102539,-0.1611328 -0.146484,-0.3515625 -0.161133,-0.7617188 z m -2.871094,-0.7470703 c 0.07324,-0.6445312 0.351562,-0.9667968 0.849609,-0.9667968 0.278321,0 0.527344,0.1318359 0.688477,0.3515625 0.102539,0.1611328 0.161133,0.3222656 0.175781,0.6152343 z m 3.61084,-1.7578125 v 4.30664066 h 1.113281 V -2.5770566 c 0,-0.5273438 0.27832,-0.8496094 0.761719,-0.8496094 0.380859,0 0.600586,0.2197265 0.600586,0.5566406 v 2.87109376 h 1.127929 V -2.5770566 c 0,-0.5273438 0.278321,-0.8496094 0.761719,-0.8496094 0.366211,0 0.600586,0.2197265 0.600586,0.5566406 v 2.87109376 h 1.113281 V -3.0458066 c 0,-0.834961 -0.512695,-1.3330079 -1.362304,-1.3330079 -0.541993,0 -0.922852,0.1904297 -1.259766,0.6445313 -0.205078,-0.4101563 -0.644531,-0.6445313 -1.171875,-0.6445313 -0.498047,0 -0.820313,0.1757813 -1.186523,0.6152344 v -0.5419922 z m 14.241943,0.46875 c -0.04395,-0.4980468 -0.146484,-0.8203125 -0.395508,-1.1572265 -0.439453,-0.5859375 -1.157226,-0.9082032 -2.021484,-0.9082032 -1.640625,0 -2.666016,1.171875 -2.666016,3.046875 0,1.87500005 1.010742,3.04687505 2.622071,3.04687505 1.450195,0 2.416992,-0.84960938 2.490234,-2.16796875 h -1.171875 c -0.07324,0.7324219 -0.541992,1.15722656 -1.274414,1.15722656 -0.922852,0 -1.464844,-0.74707036 -1.464844,-2.02148436 0,-1.2744141 0.556641,-2.0361328 1.494141,-2.0361328 0.424804,0 0.761719,0.1318359 0.981445,0.4101562 0.131836,0.1611328 0.19043,0.3222656 0.263672,0.6298828 z m 2.724609,-0.5419922 c -1.318359,0 -2.124023,0.8789063 -2.124023,2.2851563 0,1.42089843 0.805664,2.28515625 2.124023,2.28515625 1.31836,0 2.138672,-0.87890625 2.138672,-2.25585935 0,-1.4501953 -0.791015,-2.3144532 -2.138672,-2.3144532 z m 0,0.9082032 c 0.615235,0 1.010743,0.5419922 1.010743,1.3916015 0,0.8056641 -0.410157,1.36230472 -1.010743,1.36230472 -0.600585,0 -1.010742,-0.55664062 -1.010742,-1.37695312 0,-0.8203125 0.410157,-1.3769531 1.010742,-1.3769531 z m 2.947999,-0.834961 v 4.30664066 h 1.113281 V -2.5770566 c 0,-0.5273438 0.27832,-0.8496094 0.761719,-0.8496094 0.380859,0 0.600585,0.2197265 0.600585,0.5566406 v 2.87109376 h 1.12793 V -2.5770566 c 0,-0.5273438 0.27832,-0.8496094 0.761719,-0.8496094 0.366211,0 0.600586,0.2197265 0.600586,0.5566406 v 2.87109376 h 1.113281 V -3.0458066 c 0,-0.834961 -0.512695,-1.3330079 -1.362305,-1.3330079 -0.541992,0 -0.922851,0.1904297 -1.259765,0.6445313 -0.205078,-0.4101563 -0.644531,-0.6445313 -1.171875,-0.6445313 -0.498047,0 -0.820313,0.1757813 -1.186524,0.6152344 v -0.5419922 z m 8.184814,0 h -1.113281 v 6.0498047 h 1.113281 v -2.25585935 c 0.263672,0.48339843 0.644531,0.703125 1.186523,0.703125 1.040039,0 1.801758,-0.96679688 1.801758,-2.28515625 0,-0.6005859 -0.175781,-1.2011719 -0.454101,-1.5966797 -0.292969,-0.4101562 -0.820313,-0.6884766 -1.347657,-0.6884766 -0.541992,0 -0.922851,0.234375 -1.186523,0.7177735 z m 0.9375,0.8642578 c 0.571289,0 0.9375,0.5566407 0.9375,1.3769532 0,0.7763672 -0.395508,1.31835935 -0.9375,1.31835935 -0.556641,0 -0.9375,-0.54199215 -0.9375,-1.34765625 0,-0.7910156 0.380859,-1.3476563 0.9375,-1.3476563 z m 4.753418,-0.9375 c -1.318359,0 -2.124024,0.8789063 -2.124024,2.2851563 0,1.42089843 0.805665,2.28515625 2.124024,2.28515625 1.318359,0 2.138672,-0.87890625 2.138672,-2.25585935 0,-1.4501953 -0.791016,-2.3144532 -2.138672,-2.3144532 z m 0,0.9082032 c 0.615234,0 1.010742,0.5419922 1.010742,1.3916015 0,0.8056641 -0.410156,1.36230472 -1.010742,1.36230472 -0.600586,0 -1.010742,-0.55664062 -1.010742,-1.37695312 0,-0.8203125 0.410156,-1.3769531 1.010742,-1.3769531 z m 2.966309,-0.834961 V 0.00106836 H 59.61876 V -2.5770566 c 0,-0.5126954 0.366211,-0.8496094 0.908203,-0.8496094 0.483398,0 0.717773,0.2636719 0.717773,0.7763672 v 2.65136716 h 1.113282 V -2.8846738 c 0,-0.9521485 -0.527344,-1.4941407 -1.435547,-1.4941407 -0.585938,0 -0.981446,0.2197266 -1.303711,0.703125 v -0.6298828 z m 8.543701,2.5048828 c 0.01465,-0.087891 0.01465,-0.1318359 0.01465,-0.1904296 0,-0.4248047 -0.07324,-0.834961 -0.175781,-1.1279297 -0.27832,-0.7910157 -0.981445,-1.2597657 -1.845703,-1.2597657 -1.230469,0 -1.992188,0.8935547 -1.992188,2.34375 0,1.37695317 0.747071,2.22656255 1.962891,2.22656255 0.966797,0 1.743164,-0.55664063 1.992187,-1.40625005 h -1.098632 c -0.131836,0.35156255 -0.439454,0.54199223 -0.84961,0.54199223 -0.322265,0 -0.571289,-0.13183593 -0.732422,-0.36621093 -0.102539,-0.1611328 -0.146484,-0.3515625 -0.161132,-0.7617188 z m -2.871094,-0.7470703 c 0.07324,-0.6445312 0.351562,-0.9667968 0.849609,-0.9667968 0.278321,0 0.527344,0.1318359 0.688477,0.3515625 0.102539,0.1611328 0.161133,0.3222656 0.175781,0.6152343 z m 3.62915,-1.7578125 v 4.30664066 h 1.113282 V -2.5770566 c 0,-0.5126954 0.366211,-0.8496094 0.908203,-0.8496094 0.483398,0 0.717773,0.2636719 0.717773,0.7763672 v 2.65136716 h 1.113281 V -2.8846738 c 0,-0.9521485 -0.527343,-1.4941407 -1.435546,-1.4941407 -0.585938,0 -0.981446,0.2197266 -1.303711,0.703125 v -0.6298828 z m 6.771241,0.087891 h -0.629883 v -1.1572266 h -1.113281 v 1.1572266 H 72.29332 v 0.7470703 h 0.541993 v 2.63671872 c 0,0.68847656 0.36621,1.02539063 1.098632,1.02539063 0.249024,0 0.439453,-0.0292969 0.644532,-0.0878906 V -0.6874082 c -0.117188,0.0146484 -0.175782,0.0292969 -0.263672,0.0292969 -0.292969,0 -0.366211,-0.0878906 -0.366211,-0.46875 v -2.34375 h 0.629883 z m 4.281005,1.3037109 c -0.01465,-0.9082031 -0.717773,-1.4648438 -1.875,-1.4648438 -1.098632,0 -1.772461,0.5566407 -1.772461,1.4355469 0,0.2929688 0.08789,0.5419922 0.234375,0.703125 0.161133,0.1464844 0.292969,0.2197266 0.703125,0.366211 l 1.333008,0.4101562 c 0.278321,0.087891 0.38086,0.1757813 0.38086,0.3515625 0,0.26367188 -0.307618,0.4248047 -0.834961,0.4248047 -0.278321,0 -0.512696,-0.0585938 -0.65918,-0.16113282 -0.117187,-0.0878906 -0.161133,-0.17578128 -0.219727,-0.39550778 h -1.083984 c 0.0293,0.93749997 0.717774,1.43554685 2.021484,1.43554685 0.600586,0 1.054688,-0.13183594 1.376954,-0.39550782 0.322265,-0.24902343 0.512695,-0.64453125 0.512695,-1.06933593 0,-0.5566406 -0.27832,-0.9228516 -0.849609,-1.0839844 l -1.40625,-0.4101562 c -0.307618,-0.087891 -0.395508,-0.1611328 -0.395508,-0.3369141 0,-0.234375 0.263672,-0.3955078 0.644531,-0.3955078 0.541992,0 0.805664,0.1904297 0.805664,0.5859375 z m 0,0"
       style="fill:#000000;fill-opacity:1;fill-rule:nonzero;stroke:none"
       aria-label="SystemComponents"
       transform="matrix(1.0666667,0,0,1.0666667,227.184,12.440267)" />
    <path
       id="path87"
       d="m 65.58784,-39.13286 57.5795,-0.29474"
       style="fill:none;stroke:#cc99cc;stroke-width:4.98138;stroke-linecap:butt;stroke-linejoin:miter;stroke-miterlimit:10;stroke-dasharray:none;stroke-opacity:1"
       transform="matrix(1.0666667,0,0,-1.0666667,71.7952,32.9576)" />
    <path
       id="path88"
       d="M 6.21167,0 0.99628,3.80318 V 0 -3.80318 Z"
       style="fill:#cc99cc;fill-opacity:1;fill-rule:nonzero;stroke:#cc99cc;stroke-width:1.99255;stroke-linecap:butt;stroke-linejoin:miter;stroke-miterlimit:10;stroke-dasharray:none;stroke-opacity:1"
       transform="matrix(1.0666133,0.005472,0.005472,-1.0666133,202.64237,75.010987)" />
    <path
       id="path89"
       d="M 1.5535469,-5.8148359 H 0.79182813 V 5.9375e-4 H 1.5535469 Z m 1.2194824,1.640625 V 5.9375e-4 H 3.4468574 V -2.2992109 c 0,-0.8496094 0.4394531,-1.4208985 1.1279297,-1.4208985 0.5273438,0 0.8642578,0.3222657 0.8642578,0.834961 V 5.9375e-4 H 6.0982246 V -3.1488203 c 0,-0.703125 -0.5126953,-1.1425781 -1.3183594,-1.1425781 -0.6298828,0 -1.0253906,0.234375 -1.3916015,0.8203125 v -0.703125 z m 5.8959961,0 H 7.9805488 V -5.3167891 H 7.3213691 v 1.1425782 H 6.7647285 v 0.5419922 h 0.5566406 v 3.14941401 c 0,0.42480469 0.2929688,0.67382813 0.8056641,0.67382813 0.1611328,0 0.3222656,-0.0292969 0.5419922,-0.0585938 v -0.55664063 c -0.087891,0.0146484 -0.1904297,0.0292969 -0.3222656,0.0292969 -0.2783203,0 -0.366211,-0.0878906 -0.366211,-0.38085938 V -3.6322187 h 0.6884766 z m 4.2810056,2.3144531 c 0,-0.6445313 -0.04394,-1.0253906 -0.161133,-1.3330078 -0.27832,-0.6884766 -0.908203,-1.0986328 -1.699218,-1.0986328 -1.1572269,0 -1.9042972,0.8935547 -1.9042972,2.2558593 0,1.37695316 0.7177735,2.22656254 1.8896482,2.22656254 0.966797,0 1.625977,-0.54199219 1.78711,-1.45019534 h -0.673828 c -0.175782,0.54199221 -0.556641,0.83496096 -1.083985,0.83496096 -0.424805,0 -0.776367,-0.19042968 -1.010742,-0.54199218 C 9.9324531,-1.2152266 9.8885078,-1.4496016 9.8738594,-1.8597578 Z M 9.8885078,-2.40175 c 0.058594,-0.7763672 0.5273442,-1.2744141 1.2011722,-1.2744141 0.644531,0 1.157226,0.5419922 1.157226,1.2158204 0,0.029297 0,0.043945 -0.01465,0.058594 z M 13.85091,-4.1742109 V 5.9375e-4 h 0.65918 V -2.167375 c 0,-0.6005859 0.161133,-0.9814453 0.46875,-1.2158203 0.205078,-0.1611328 0.410156,-0.2050781 0.878906,-0.2050781 V -4.27675 c -0.117187,-0.014648 -0.175781,-0.014648 -0.263672,-0.014648 -0.424804,0 -0.74707,0.2490234 -1.142578,0.8789062 v -0.7617187 z m 6.280518,3.77929684 c -0.07324,0.0146484 -0.102539,0.0146484 -0.146485,0.0146484 -0.234375,0 -0.351562,-0.1171875 -0.351562,-0.32226563 V -3.1488203 c 0,-0.7470703 -0.541992,-1.1425781 -1.567383,-1.1425781 -0.615234,0 -1.113281,0.1757812 -1.391602,0.4833984 -0.190429,0.2197266 -0.27832,0.4541016 -0.292968,0.8642578 h 0.673828 c 0.05859,-0.5126953 0.366211,-0.7324219 0.981445,-0.7324219 0.600586,0 0.9375,0.2197266 0.9375,0.6152344 v 0.1757813 c 0,0.2783203 -0.175781,0.3955078 -0.703125,0.46875 -0.9375,0.1171875 -1.083984,0.1464843 -1.333008,0.2490234 -0.483398,0.2050781 -0.732422,0.5712891 -0.732422,1.1132813 0,0.7617187 0.527344,1.24511714 1.362305,1.24511714 0.527344,0 0.952149,-0.19042969 1.420899,-0.61523438 0.05859,0.41015625 0.263671,0.61523438 0.688476,0.61523438 0.131836,0 0.234375,-0.0292969 0.454102,-0.0732422 z M 18.974201,-1.3177656 c 0,0.2197265 -0.07324,0.36621091 -0.263672,0.54199216 -0.27832,0.24902344 -0.600586,0.38085938 -0.996093,0.38085938 -0.512696,0 -0.820313,-0.24902344 -0.820313,-0.67382814 0,-0.4394531 0.292969,-0.6591797 1.010742,-0.7617187 0.703125,-0.1025391 0.834961,-0.131836 1.069336,-0.234375 z m 5.075684,-1.4501953 c -0.0293,-0.4101563 -0.117188,-0.6738282 -0.278321,-0.9082032 -0.27832,-0.3808593 -0.791015,-0.6152343 -1.362304,-0.6152343 -1.12793,0 -1.860352,0.8935547 -1.860352,2.2705078 0,1.34765623 0.717774,2.21191404 1.845703,2.21191404 0.996094,0 1.625977,-0.60058594 1.699219,-1.62597654 h -0.65918 c -0.117187,0.6738281 -0.454101,1.01074216 -1.02539,1.01074216 -0.732422,0 -1.171875,-0.60058596 -1.171875,-1.59667966 0,-1.0400391 0.439453,-1.6552735 1.157226,-1.6552735 0.556641,0 0.908203,0.3222657 0.996094,0.9082032 z m 2.255859,-1.40625 h -0.688476 v -1.1425782 h -0.65918 v 1.1425782 h -0.556641 v 0.5419922 h 0.556641 v 3.14941401 c 0,0.42480469 0.292969,0.67382813 0.805664,0.67382813 0.161133,0 0.322266,-0.0292969 0.541992,-0.0585938 v -0.55664063 c -0.08789,0.0146484 -0.19043,0.0292969 -0.322265,0.0292969 -0.278321,0 -0.366211,-0.0878906 -0.366211,-0.38085938 V -3.6322187 h 0.688476 z m 3.68042,1.1572265 c 0,-0.8203125 -0.541992,-1.274414 -1.508789,-1.274414 -0.966797,0 -1.59668,0.4980468 -1.59668,1.274414 0,0.6445313 0.322266,0.9667969 1.31836,1.2011719 l 0.615234,0.1464844 c 0.46875,0.1171875 0.644531,0.2783203 0.644531,0.5859375 0,0.39550779 -0.380859,0.65917966 -0.966797,0.65917966 -0.351562,0 -0.659179,-0.10253906 -0.83496,-0.27832031 -0.10254,-0.13183594 -0.146485,-0.24902344 -0.19043,-0.54199215 h -0.703125 c 0.04394,0.96679684 0.585937,1.43554684 1.669922,1.43554684 1.054687,0 1.728515,-0.52734375 1.728515,-1.33300784 0,-0.6152343 -0.351562,-0.9667968 -1.186523,-1.1572265 l -0.629883,-0.1611328 c -0.541992,-0.1171875 -0.776367,-0.2929688 -0.776367,-0.5859375 0,-0.3808594 0.336914,-0.6298829 0.878906,-0.6298829 0.541992,0 0.820313,0.2197266 0.834961,0.6591797 z m 7.115479,3.01757815 1.230468,-4.17480465 h -0.74707 L 36.75008,-0.92225781 35.929768,-4.1742109 H 35.124104 L 34.333088,-0.92225781 33.46883,-4.1742109 h -0.732422 l 1.215821,4.17480465 h 0.74707 L 35.504963,-3.2806562 36.354572,5.9375e-4 Z M 39.650471,-4.1742109 H 38.976643 V 5.9375e-4 h 0.673828 z m 0,-1.640625 h -0.673828 v 0.8496093 h 0.673828 z m 2.589111,1.640625 h -0.688477 v -1.1425782 h -0.659179 v 1.1425782 h -0.556641 v 0.5419922 h 0.556641 v 3.14941401 c 0,0.42480469 0.292969,0.67382813 0.805664,0.67382813 0.161133,0 0.322265,-0.0292969 0.541992,-0.0585938 v -0.55664063 c -0.08789,0.0146484 -0.19043,0.0292969 -0.322266,0.0292969 -0.27832,0 -0.366211,-0.0878906 -0.366211,-0.38085938 V -3.6322187 h 0.688477 z m 0.750732,-1.640625 V 5.9375e-4 h 0.65918 V -2.2992109 c 0,-0.8496094 0.454102,-1.4208985 1.12793,-1.4208985 0.219726,0 0.439453,0.073242 0.600586,0.2050782 0.190429,0.1318359 0.263672,0.3222656 0.263672,0.6298828 V 5.9375e-4 h 0.659179 V -3.1488203 c 0,-0.703125 -0.498047,-1.1425781 -1.303711,-1.1425781 -0.600586,0 -0.952148,0.1757812 -1.347656,0.6884765 v -2.211914 z m 0,0"
       style="fill:#4c4c4c;fill-opacity:1;fill-rule:nonzero;stroke:none"
       aria-label="Interactswith"
       transform="matrix(1.0666667,0,0,1.0666667,147.87413,68.561867)" />
  </g>
</svg>
