<?xml version="1.0" encoding="UTF-8" standalone="no"?>
<!-- Created with Inkscape (http://www.inkscape.org/) -->

<svg
   version="1.1"
   id="svg1"
   width="351.78268"
   height="123.47333"
   viewBox="0 0 351.78268 123.47333"
   xmlns="http://www.w3.org/2000/svg"
   xmlns:svg="http://www.w3.org/2000/svg">
  <defs
     id="defs1" />
  <g
     id="g1">
    <path
       id="path1"
       d="M 0,0 H -70.867 V -70.867 H 0 Z"
       style="fill:#f6f2f1;fill-opacity:1;fill-rule:nonzero;stroke:#8f7874;stroke-width:0.3985;stroke-linecap:butt;stroke-linejoin:miter;stroke-miterlimit:10;stroke-dasharray:none;stroke-opacity:1"
       transform="matrix(1.0266667,0,0,-1.0266667,323.56529,28.21612)" />
    <path
       id="path2"
       d="M 0,0 27.28339,27.28339 V -43.5836 L 0,-70.867 Z"
       style="fill:#e9dedc;fill-opacity:1;fill-rule:nonzero;stroke:#8f7874;stroke-width:0.3985;stroke-linecap:butt;stroke-linejoin:miter;stroke-miterlimit:10;stroke-dasharray:none;stroke-opacity:1"
       transform="matrix(1.0266667,0,0,-1.0266667,323.56529,28.21612)" />
    <path
       id="path3"
       d="m 0,0 h -70.867 l 27.2834,27.28339 h 70.86699 z"
       style="fill:#f0e8e7;fill-opacity:1;fill-rule:nonzero;stroke:#8f7874;stroke-width:0.3985;stroke-linecap:butt;stroke-linejoin:miter;stroke-miterlimit:10;stroke-dasharray:none;stroke-opacity:1"
       transform="matrix(1.0266667,0,0,-1.0266667,323.56529,28.21612)" />
    <path
       id="path4"
       d="m 1.6739144,-2.816414 h 2.1459009 c 0.7457387,0 1.0805601,0.3652598 1.0805601,1.171875 l -0.015219,0.578328 c 0,0.39569801 0.076096,0.79139606 0.1826299,1.06534087013 H 6.0874696 V -0.21393831 C 5.7678673,-0.42700649 5.7069907,-0.65529383 5.6917715,-1.5227857 5.6765524,-2.6033458 5.5091416,-2.9229481 4.8090605,-3.2273312 5.53958,-3.5925909 5.8287439,-4.0491656 5.8287439,-4.7949042 c 0,-1.1262176 -0.7000812,-1.7349838 -1.9784902,-1.7349838 H 0.8368608 v 6.52901787013 h 0.8370536 z m 0,-0.7305194 v -2.2524351 h 2.0089285 c 0.4717939,0 0.7305195,0.076096 0.9435877,0.2435065 0.2282873,0.197849 0.3348214,0.487013 0.3348214,0.882711 0,0.776177 -0.395698,1.1262176 -1.2784091,1.1262176 z m 9.5956776,3.10470775 c -0.0761,0.0152192 -0.121753,0.0152192 -0.152191,0.0152192 -0.273945,0 -0.410918,-0.13697241 -0.410918,-0.36525974 V -3.5469334 c 0,-0.8370536 -0.608766,-1.2784091 -1.7654217,-1.2784091 -0.684862,0 -1.2479708,0.1826298 -1.5675731,0.5326704 C 7.16042,-4.0491656 7.0691051,-3.7752208 7.053886,-3.3034269 h 0.7609578 c 0.060877,-0.578328 0.395698,-0.8370536 1.0957792,-0.8370536 0.6696428,0 1.0501217,0.2435065 1.0501217,0.7000811 v 0.1978491 c 0,0.3043831 -0.1826298,0.4413555 -0.7761769,0.5174513 -1.0653409,0.1369724 -1.2175325,0.1674107 -1.5066965,0.2891639 -0.5478896,0.2282874 -0.8218344,0.6392046 -0.8218344,1.2479708 0,0.85227274 0.5935471,1.40016235 1.5371348,1.40016235 0.5935471,0 1.0653409,-0.21306817987 1.5980113,-0.70008117 0.045658,0.47179383 0.289164,0.70008117 0.776177,0.70008117 0.152192,0 0.258726,-0.0304383 0.502232,-0.0913149 z M 9.9607447,-1.4771282 c 0,0.2435064 -0.076096,0.395698 -0.2891639,0.60876619 -0.3043832,0.2739448 -0.6696429,0.42613636 -1.1109984,0.42613636 -0.5935471,0 -0.9283685,-0.28916396 -0.9283685,-0.76095775 0,-0.487013 0.3348214,-0.7457387 1.1262175,-0.8522728 0.7913961,-0.1217532 0.9588068,-0.1521915 1.2023133,-0.2739448 z m 2.1230723,-3.2264611 v 4.70271917013 h 0.760958 V -2.5881266 c 0,-0.9588068 0.502232,-1.5827922 1.26319,-1.5827922 0.593547,0 0.974026,0.3500406 0.974026,0.9131493 v 3.25689937013 h 0.745738 V -3.5469334 c 0,-0.776177 -0.578328,-1.2784091 -1.491477,-1.2784091 -0.700081,0 -1.141437,0.2587256 -1.552354,0.9131493 v -0.7913961 z m 5.623478,-1.8262987 h -0.745739 v 6.52901787013 h 0.745739 V -1.8271688 l 0.73052,-0.7153004 1.582792,2.54159907013 h 0.928368 L 19.031362,-3.0751396 20.659811,-4.7035893 h -0.958807 l -1.993709,1.9937094 z m 7.689479,3.6221591 h 0.106534 l 0.319602,-0.015219 c 0.882711,0 1.324066,0.3956981 1.324066,1.1566559 0,0.7913961 -0.487013,1.27840908 -1.324066,1.27840908 -0.852273,0 -1.278409,-0.44135552 -1.324067,-1.35450488 h -0.791396 c 0.03044,0.5022322 0.121753,0.8370536 0.273945,1.12621755 0.319602,0.60876623 0.958807,0.9283685 1.826299,0.9283685 1.308847,0 2.145901,-0.7913961 2.145901,-1.99370945 0,-0.8066152 -0.319603,-1.2479707 -1.08056,-1.5066964 0.593547,-0.2282873 0.89793,-0.684862 0.89793,-1.3240666 0,-1.0957792 -0.73052,-1.7502029 -1.948052,-1.7502029 -1.278409,0 -1.963271,0.7000812 -1.97849,2.0545861 h 0.791396 c 0,-0.3804789 0.03044,-0.5935471 0.136972,-0.7913961 0.18263,-0.3500406 0.578328,-0.5631088 1.065341,-0.5631088 0.700081,0 1.126218,0.4109172 1.126218,1.0805601 0,0.4413555 -0.167411,0.7153003 -0.517452,0.8674918 -0.213068,0.076096 -0.487013,0.1217533 -1.050121,0.1217533 z m 0,0"
       style="fill:#000000;fill-opacity:1;fill-rule:nonzero;stroke:none"
       aria-label="Rank3"
       transform="matrix(1.0266667,0,0,1.0266667,272.60567,119.87589)" />
    <path
       id="path5"
       d="m -204.725,-70.64471 h 97.63513 V 26.99042 H -204.725 Z"
       style="fill:#f6f2f1;fill-opacity:1;fill-rule:nonzero;stroke:#8f7874;stroke-width:0.3985;stroke-linecap:butt;stroke-linejoin:miter;stroke-miterlimit:10;stroke-dasharray:none;stroke-opacity:1"
       transform="matrix(1.0266667,0,0,-1.0266667,323.56529,28.21612)" />
    <path
       id="path6"
       d="m 2.3268206,-4.5183904 v 4.52008926 h 0.776177 V -6.3599083 H 2.5855463 c -0.2739448,0.9892452 -0.4565747,1.1109984 -1.67410718,1.26319 v 0.5783279 z m 6.8562297,3.59172076 H 8.2546818 v 0.9283685 h 0.9283685 z m 3.9798097,0 h -0.928369 v 0.9283685 h 0.928369 z m 3.983614,0 h -0.928369 v 0.9283685 h 0.928369 z m 9.302709,0.15219156 h -3.348215 c 0.09131,-0.51745132 0.36526,-0.85227272 1.156656,-1.30884742 l 0.89793,-0.487013 c 0.882711,-0.487013 1.339286,-1.1414367 1.339286,-1.9176136 0,-0.5326705 -0.213068,-1.0196835 -0.593547,-1.369724 -0.380479,-0.3348215 -0.837054,-0.5022322 -1.44582,-0.5022322 -0.806615,0 -1.400162,0.289164 -1.750203,0.8370536 -0.228287,0.3348214 -0.319602,0.7305195 -0.35004,1.369724 h 0.791396 c 0.03044,-0.4261363 0.09131,-0.684862 0.197849,-0.8979302 0.197849,-0.3804789 0.608766,-0.6087662 1.095779,-0.6087662 0.7153,0 1.247971,0.5022321 1.247971,1.1870941 0,0.5022322 -0.289164,0.9283686 -0.867492,1.26319 l -0.821834,0.4565747 c -1.324067,0.7609577 -1.704546,1.3545048 -1.780642,2.75466716 h 4.230926 z m 0,0"
       style="fill:#000000;fill-opacity:1;fill-rule:nonzero;stroke:none"
       aria-label="1...2"
       transform="matrix(1.0266667,0,0,1.0266667,118.83769,13.646693)" />
    <path
       id="path7"
       d="m 1.97678,-2.9056011 h 0.1065341 l 0.3196023,-0.015219 c 0.882711,0 1.3240666,0.395698 1.3240666,1.1566558 0,0.79139614 -0.487013,1.27840912 -1.3240666,1.27840912 -0.8522727,0 -1.2784091,-0.44135552 -1.3240666,-1.35450482 H 0.28745373 c 0.0304383,0.5022321 0.12175325,0.8370535 0.27394481,1.12621749 0.31960227,0.60876623 0.95880686,0.9283685 1.82629866,0.9283685 1.3088474,0 2.145901,-0.7913961 2.145901,-1.99370939 0,-0.8066153 -0.3196023,-1.2479708 -1.0805601,-1.5066965 0.5935471,-0.2282873 0.8979302,-0.684862 0.8979302,-1.3240665 0,-1.0957792 -0.7305194,-1.7502029 -1.9480519,-1.7502029 -1.2784091,0 -1.96327111,0.7000811 -1.97849026,2.054586 H 1.2158222 c 0,-0.3804789 0.030438,-0.5935471 0.1369724,-0.7913961 0.1826299,-0.3500406 0.578328,-0.5631088 1.065341,-0.5631088 0.7000811,0 1.1262175,0.4109172 1.1262175,1.0805601 0,0.4413555 -0.1674107,0.7153003 -0.5174513,0.8674919 -0.2130682,0.076096 -0.487013,0.1217532 -1.0501218,0.1217532 z m 7.2062703,1.9784903 H 8.2546818 v 0.92836851 h 0.9283685 z m 3.9798097,0 h -0.928369 v 0.92836851 h 0.928369 z m 3.983614,0 h -0.928369 v 0.92836851 h 0.928369 z m 9.028764,-5.4332386 h -3.272119 l -0.471794,3.4699675 h 0.715301 c 0.36526,-0.4413555 0.669643,-0.5935471 1.171875,-0.5935471 0.852273,0 1.384943,0.5783279 1.384943,1.5219156 0,0.9131494 -0.53267,1.47625812 -1.384943,1.47625812 -0.700081,0 -1.110999,-0.35004058 -1.308848,-1.06534092 h -0.776177 c 0.106535,0.5174513 0.197849,0.76095781 0.380479,0.98924514 0.36526,0.48701299 1.004465,0.77617695 1.719765,0.77617695 1.278409,0 2.176339,-0.94358766 2.176339,-2.28287339 0,-1.2631899 -0.837053,-2.1154626 -2.054586,-2.1154626 -0.441355,0 -0.806615,0.1217532 -1.171875,0.3804789 l 0.258726,-1.7654221 h 2.632914 z m 0,0"
       style="fill:#000000;fill-opacity:1;fill-rule:nonzero;stroke:none"
       aria-label="3...5"
       transform="matrix(1.0266667,0,0,1.0266667,118.83769,27.64324)" />
    <path
       id="path8"
       d="M 4.2596534,-6.3626449 H 0.9875349 L 0.51574107,-2.8926774 H 1.2310414 c 0.3652597,-0.4413555 0.6696429,-0.593547 1.171875,-0.593547 0.8522727,0 1.3849432,0.5783279 1.3849432,1.5219156 0,0.9131493 -0.5326705,1.47625807 -1.3849432,1.47625807 -0.7000812,0 -1.1109984,-0.35004058 -1.3088474,-1.06534087 H 0.31789205 c 0.10653409,0.5174513 0.19784902,0.76095775 0.38047889,0.98924509 0.36525976,0.48701299 1.00446426,0.77617695 1.71976466,0.77617695 1.278409,0 2.1763392,-0.94358766 2.1763392,-2.28287334 0,-1.26319 -0.8370535,-2.1154627 -2.054586,-2.1154627 -0.4413555,0 -0.8066153,0.1217532 -1.171875,0.3804789 l 0.2587256,-1.7654221 h 2.632914 z m 4.9233969,5.43323865 H 8.2546818 v 0.92836851 h 0.9283685 z m 3.9798097,0 h -0.928369 v 0.92836851 h 0.928369 z m 3.983614,0 h -0.928369 v 0.92836851 h 0.928369 z m 6.74589,-1.97849025 h 0.106535 l 0.319602,-0.015219 c 0.882711,0 1.324066,0.3956981 1.324066,1.1566559 0,0.79139608 -0.487013,1.27840907 -1.324066,1.27840907 -0.852273,0 -1.278409,-0.44135552 -1.324067,-1.35450487 h -0.791396 c 0.03044,0.5022321 0.121753,0.8370536 0.273945,1.12621753 0.319602,0.60876624 0.958807,0.92836851 1.826299,0.92836851 1.308847,0 2.145901,-0.79139611 2.145901,-1.99370944 0,-0.8066152 -0.319603,-1.2479708 -1.08056,-1.5066964 0.593547,-0.2282873 0.89793,-0.684862 0.89793,-1.3240666 0,-1.0957792 -0.73052,-1.7502029 -1.948052,-1.7502029 -1.278409,0 -1.963271,0.7000812 -1.97849,2.0545861 h 0.791396 c 0,-0.3804789 0.03044,-0.5935471 0.136972,-0.7913962 0.18263,-0.3500405 0.578328,-0.5631087 1.065341,-0.5631087 0.700081,0 1.126218,0.4109172 1.126218,1.08056 0,0.4413556 -0.167411,0.7153004 -0.517452,0.8674919 -0.213068,0.076096 -0.487013,0.1217533 -1.050122,0.1217533 z m 0,0"
       style="fill:#000000;fill-opacity:1;fill-rule:nonzero;stroke:none"
       aria-label="5...3"
       transform="matrix(1.0266667,0,0,1.0266667,118.83769,42.739347)" />
    <path
       id="path9"
       d="M 1.7028352,-0.93012338 H 0.77446672 v 0.92836851 H 1.7028352 Z m 0,0"
       style="fill:#000000;fill-opacity:1;fill-rule:nonzero;stroke:none"
       aria-label="."
       transform="matrix(1.0266667,0,0,1.0266667,118.83769,58.142427)" />
    <path
       id="path10"
       d="M 1.7028352,-0.92770455 H 0.77446672 V 6.6396104e-4 H 1.7028352 Z m 0,0"
       style="fill:#000000;fill-opacity:1;fill-rule:nonzero;stroke:none"
       aria-label="."
       transform="matrix(1.0266667,0,0,1.0266667,118.83769,62.233693)" />
    <path
       id="path11"
       d="M 1.7028352,-0.9290905 H 0.77446672 V -7.2199675e-4 H 1.7028352 Z m 0,0"
       style="fill:#000000;fill-opacity:1;fill-rule:nonzero;stroke:none"
       aria-label="."
       transform="matrix(1.0266667,0,0,1.0266667,118.83769,66.32496)" />
    <path
       id="path12"
       d="M 1.7054196,-0.93012338 H 0.77705114 v 0.92836851 H 1.7054196 Z m 0,0"
       style="fill:#000000;fill-opacity:1;fill-rule:nonzero;stroke:none"
       aria-label="."
       transform="matrix(1.0266667,0,0,1.0266667,141.33504,58.142427)" />
    <path
       id="path13"
       d="M 1.7054196,-0.92770455 H 0.77705114 V 6.6396104e-4 H 1.7054196 Z m 0,0"
       style="fill:#000000;fill-opacity:1;fill-rule:nonzero;stroke:none"
       aria-label="."
       transform="matrix(1.0266667,0,0,1.0266667,141.33504,62.233693)" />
    <path
       id="path14"
       d="M 1.7054196,-0.9290905 H 0.77705114 V -7.2199675e-4 H 1.7054196 Z m 0,0"
       style="fill:#000000;fill-opacity:1;fill-rule:nonzero;stroke:none"
       aria-label="."
       transform="matrix(1.0266667,0,0,1.0266667,141.33504,66.32496)" />
    <path
       id="path15"
       d="m 1.97678,-2.9051648 h 0.1065341 l 0.3196023,-0.015219 c 0.882711,0 1.3240666,0.395698 1.3240666,1.1566558 0,0.79139612 -0.487013,1.27840911 -1.3240666,1.27840911 -0.8522727,0 -1.2784091,-0.44135552 -1.3240666,-1.35450491 H 0.28745373 c 0.0304383,0.5022322 0.12175325,0.8370536 0.27394481,1.12621757 0.31960227,0.60876623 0.95880686,0.92836851 1.82629866,0.92836851 1.3088474,0 2.145901,-0.79139611 2.145901,-1.99370938 0,-0.8066153 -0.3196023,-1.2479708 -1.0805601,-1.5066965 0.5935471,-0.2282873 0.8979302,-0.684862 0.8979302,-1.3240665 0,-1.0957792 -0.7305194,-1.7502029 -1.9480519,-1.7502029 -1.2784091,0 -1.96327111,0.7000811 -1.97849026,2.054586 H 1.2158222 c 0,-0.3804789 0.030438,-0.5935471 0.1369724,-0.7913961 0.1826299,-0.3500406 0.578328,-0.5631088 1.065341,-0.5631088 0.7000811,0 1.1262175,0.4109172 1.1262175,1.0805601 0,0.4413555 -0.1674107,0.7153003 -0.5174513,0.8674919 -0.2130682,0.076096 -0.487013,0.1217532 -1.0501218,0.1217532 z m 7.2062703,1.97849029 H 8.2546818 v 0.9283685 h 0.9283685 z m 3.9798097,0 h -0.928369 v 0.9283685 h 0.928369 z m 3.983614,0 h -0.928369 v 0.9283685 h 0.928369 z m 6.74589,-1.97849029 h 0.106535 l 0.319602,-0.015219 c 0.882711,0 1.324066,0.395698 1.324066,1.1566558 0,0.79139612 -0.487013,1.27840911 -1.324066,1.27840911 -0.852273,0 -1.278409,-0.44135552 -1.324067,-1.35450491 h -0.791396 c 0.03044,0.5022322 0.121753,0.8370536 0.273945,1.12621757 0.319602,0.60876623 0.958807,0.92836851 1.826299,0.92836851 1.308847,0 2.145901,-0.79139611 2.145901,-1.99370938 0,-0.8066153 -0.319603,-1.2479708 -1.08056,-1.5066965 0.593547,-0.2282873 0.89793,-0.684862 0.89793,-1.3240665 0,-1.0957792 -0.73052,-1.7502029 -1.948052,-1.7502029 -1.278409,0 -1.963271,0.7000811 -1.97849,2.054586 h 0.791396 c 0,-0.3804789 0.03044,-0.5935471 0.136972,-0.7913961 0.18263,-0.3500406 0.578328,-0.5631088 1.065341,-0.5631088 0.700081,0 1.126218,0.4109172 1.126218,1.0805601 0,0.4413555 -0.167411,0.7153003 -0.517452,0.8674919 -0.213068,0.076096 -0.487013,0.1217532 -1.050122,0.1217532 z m 0,0"
       style="fill:#000000;fill-opacity:1;fill-rule:nonzero;stroke:none"
       aria-label="3...3"
       transform="matrix(1.0266667,0,0,1.0266667,118.83769,94.068573)" />
    <path
       id="path16"
       d="m 1.6748815,-2.8162427 h 2.145901 c 0.7457386,0 1.08056,0.3652597 1.08056,1.171875 l -0.015219,0.5783279 c 0,0.39569808 0.076096,0.79139613 0.1826298,1.06534093636 H 6.0884367 V -0.21376705 C 5.7688344,-0.42683523 5.7079578,-0.65512256 5.6927386,-1.5226144 5.6775195,-2.6031745 5.5101088,-2.9227768 4.8100276,-3.2271599 5.5405471,-3.5924196 5.829711,-4.0489943 5.829711,-4.794733 c 0,-1.1262175 -0.7000811,-1.7349837 -1.9784902,-1.7349837 H 0.83782792 V -6.9886364e-4 H 1.6748815 Z m 0,-0.7305195 v -2.252435 h 2.0089286 c 0.4717938,0 0.7305194,0.076096 0.9435876,0.2435065 0.2282874,0.197849 0.3348215,0.4870129 0.3348215,0.882711 0,0.7761769 -0.3956981,1.1262175 -1.2784091,1.1262175 z m 9.5918725,3.10470782 c -0.0761,0.0152192 -0.121753,0.0152192 -0.152191,0.0152192 -0.273945,0 -0.410917,-0.1369724 -0.410917,-0.36525974 V -3.5467622 c 0,-0.8370535 -0.608767,-1.2784091 -1.7654224,-1.2784091 -0.684862,0 -1.2479708,0.1826299 -1.567573,0.5326705 -0.2130682,0.2435065 -0.3043831,0.5174513 -0.3196023,0.9892451 h 0.7609578 c 0.060877,-0.5783279 0.395698,-0.8370536 1.0957792,-0.8370536 0.6696429,0 1.0501218,0.2435065 1.0501218,0.7000812 v 0.197849 c 0,0.3043832 -0.1826299,0.4413556 -0.776177,0.5174513 -1.0653409,0.1369724 -1.2175325,0.1674108 -1.5066964,0.289164 -0.5478896,0.2282873 -0.8218344,0.6392045 -0.8218344,1.2479708 0,0.85227271 0.593547,1.40016232 1.5371347,1.40016232 0.5935471,0 1.0653409,-0.21306818364 1.5980114,-0.70008117 0.045658,0.47179383 0.2891636,0.70008117 0.7761766,0.70008117 0.152192,0 0.258726,-0.0304383 0.502232,-0.0913149 z M 9.9579071,-1.476957 c 0,0.2435065 -0.076096,0.3956981 -0.289164,0.60876625 -0.3043831,0.27394481 -0.6696429,0.42613637 -1.1109984,0.42613637 -0.5935471,0 -0.9283685,-0.28916396 -0.9283685,-0.76095782 0,-0.487013 0.3348214,-0.7457386 1.1262176,-0.8522727 0.7913961,-0.1217532 0.9588068,-0.1521916 1.2023133,-0.2739448 z m 2.1268769,-3.226461 v 4.70271913636 h 0.760958 V -2.5879554 c 0,-0.9588068 0.502232,-1.5827922 1.26319,-1.5827922 0.593547,0 0.974026,0.3500406 0.974026,0.9131494 v 3.25689933636 h 0.745738 V -3.5467622 c 0,-0.7761769 -0.578327,-1.2784091 -1.491477,-1.2784091 -0.700081,0 -1.141437,0.2587257 -1.552354,0.9131494 V -4.703418 Z m 5.623478,-1.8262987 h -0.745738 v 6.52901783636 h 0.745738 V -1.8269976 l 0.73052,-0.7153003 1.582792,2.54159903636 h 0.928368 L 19.032329,-3.0749683 20.660778,-4.703418 h -0.958806 l -1.99371,1.9937094 z m 10.238687,5.75284089 h -3.348214 c 0.09131,-0.51745129 0.36526,-0.85227269 1.156656,-1.30884739 l 0.89793,-0.487013 c 0.882711,-0.487013 1.339286,-1.1414367 1.339286,-1.9176136 0,-0.5326705 -0.213068,-1.0196835 -0.593547,-1.3697241 -0.380479,-0.3348214 -0.837054,-0.5022321 -1.44582,-0.5022321 -0.806615,0 -1.400162,0.289164 -1.750203,0.8370536 -0.228287,0.3348214 -0.319602,0.7305194 -0.350041,1.369724 h 0.791396 c 0.03044,-0.4261364 0.09132,-0.684862 0.197849,-0.8979302 0.19785,-0.3804789 0.608767,-0.6087662 1.09578,-0.6087662 0.7153,0 1.24797,0.5022321 1.24797,1.1870941 0,0.5022322 -0.289163,0.9283685 -0.867491,1.26319 l -0.821835,0.4565746 c -1.324066,0.7609578 -1.704545,1.3545049 -1.780641,2.75466723636 h 4.230925 z m 0,0"
       style="fill:#000000;fill-opacity:1;fill-rule:nonzero;stroke:none"
       aria-label="Rank2"
       transform="matrix(1.0266667,0,0,1.0266667,148.92108,119.85228)" />
    <path
       id="path17"
       d="m -257.00107,-70.64471 h 17.93298 v 97.63513 h -17.93298 z"
       style="fill:#f6f2f1;fill-opacity:1;fill-rule:nonzero;stroke:#8f7874;stroke-width:0.3985;stroke-linecap:butt;stroke-linejoin:miter;stroke-miterlimit:10;stroke-dasharray:none;stroke-opacity:1"
       transform="matrix(1.0266667,0,0,-1.0266667,323.56529,28.21612)" />
    <path
       id="path18"
       d="M 2.3278251,-4.5183904 V 0.00169886 H 3.104002 V -6.3599083 H 2.5865507 c -0.2739448,0.9892452 -0.4565746,1.1109984 -1.67410711,1.26319 v 0.5783279 z m 0,0"
       style="fill:#000000;fill-opacity:1;fill-rule:nonzero;stroke:none"
       aria-label="1"
       transform="matrix(1.0266667,0,0,1.0266667,65.168693,13.646693)" />
    <path
       id="path19"
       d="m 1.9777845,-2.9056011 h 0.1065341 l 0.3196023,-0.015219 c 0.882711,0 1.3240665,0.395698 1.3240665,1.1566558 0,0.79139614 -0.487013,1.27840912 -1.3240665,1.27840912 -0.8522728,0 -1.2784091,-0.44135552 -1.3240666,-1.35450482 H 0.2884582 c 0.0304383,0.5022321 0.12175324,0.8370535 0.2739448,1.12621749 0.31960228,0.60876623 0.9588068,0.9283685 1.8262987,0.9283685 1.3088474,0 2.145901,-0.7913961 2.145901,-1.99370939 0,-0.8066153 -0.3196023,-1.2479708 -1.0805601,-1.5066965 0.5935471,-0.2282873 0.8979302,-0.684862 0.8979302,-1.3240665 0,-1.0957792 -0.7305195,-1.7502029 -1.9480519,-1.7502029 -1.2784091,0 -1.96327114,0.7000811 -1.9784903,2.054586 h 0.7913961 c 0,-0.3804789 0.030438,-0.5935471 0.1369724,-0.7913961 C 1.536429,-5.4472 1.932127,-5.6602682 2.41914,-5.6602682 c 0.7000812,0 1.1262175,0.4109172 1.1262175,1.0805601 0,0.4413555 -0.1674107,0.7153003 -0.5174513,0.8674919 -0.2130681,0.076096 -0.4870129,0.1217532 -1.0501217,0.1217532 z m 0,0"
       style="fill:#000000;fill-opacity:1;fill-rule:nonzero;stroke:none"
       aria-label="3"
       transform="matrix(1.0266667,0,0,1.0266667,65.168693,27.64324)" />
    <path
       id="path20"
       d="M 4.2606579,-6.3618364 H 0.98853937 L 0.51674554,-2.8918689 H 1.2320459 c 0.3652597,-0.4413555 0.6696428,-0.5935471 1.171875,-0.5935471 0.8522727,0 1.3849431,0.5783279 1.3849431,1.5219156 0,0.9131493 -0.5326704,1.47625811 -1.3849431,1.47625811 -0.7000812,0 -1.1109984,-0.35004058 -1.3088474,-1.06534091 H 0.31889651 c 0.10653409,0.5174513 0.19784903,0.76095779 0.3804789,0.98924513 0.36525969,0.48701299 1.00446429,0.77617695 1.71976459,0.77617695 1.2784091,0 2.1763393,-0.94358766 2.1763393,-2.28287338 0,-1.2631899 -0.8370536,-2.1154627 -2.054586,-2.1154627 -0.4413556,0 -0.8066153,0.1217533 -1.171875,0.3804789 l 0.2587256,-1.765422 h 2.632914 z m 0,0"
       style="fill:#000000;fill-opacity:1;fill-rule:nonzero;stroke:none"
       aria-label="5"
       transform="matrix(1.0266667,0,0,1.0266667,65.168693,42.582267)" />
    <path
       id="path21"
       d="M 1.7038397,-0.93012338 H 0.77547119 v 0.92836851 H 1.7038397 Z m 0,0"
       style="fill:#000000;fill-opacity:1;fill-rule:nonzero;stroke:none"
       aria-label="."
       transform="matrix(1.0266667,0,0,1.0266667,65.168693,58.142427)" />
    <path
       id="path22"
       d="M 1.7038397,-0.92770455 H 0.77547119 V 6.6396104e-4 H 1.7038397 Z m 0,0"
       style="fill:#000000;fill-opacity:1;fill-rule:nonzero;stroke:none"
       aria-label="."
       transform="matrix(1.0266667,0,0,1.0266667,65.168693,62.233693)" />
    <path
       id="path23"
       d="M 1.7038397,-0.9290905 H 0.77547119 V -7.2199675e-4 H 1.7038397 Z m 0,0"
       style="fill:#000000;fill-opacity:1;fill-rule:nonzero;stroke:none"
       aria-label="."
       transform="matrix(1.0266667,0,0,1.0266667,65.168693,66.32496)" />
    <path
       id="path24"
       d="m 1.9777845,-2.9051648 h 0.1065341 l 0.3196023,-0.015219 c 0.882711,0 1.3240665,0.395698 1.3240665,1.1566558 0,0.79139612 -0.487013,1.27840911 -1.3240665,1.27840911 -0.8522728,0 -1.2784091,-0.44135552 -1.3240666,-1.35450491 H 0.2884582 c 0.0304383,0.5022322 0.12175324,0.8370536 0.2739448,1.12621757 0.31960228,0.60876623 0.9588068,0.92836851 1.8262987,0.92836851 1.3088474,0 2.145901,-0.79139611 2.145901,-1.99370938 0,-0.8066153 -0.3196023,-1.2479708 -1.0805601,-1.5066965 0.5935471,-0.2282873 0.8979302,-0.684862 0.8979302,-1.3240665 0,-1.0957792 -0.7305195,-1.7502029 -1.9480519,-1.7502029 -1.2784091,0 -1.96327114,0.7000811 -1.9784903,2.054586 h 0.7913961 c 0,-0.3804789 0.030438,-0.5935471 0.1369724,-0.7913961 C 1.536429,-5.4467638 1.932127,-5.659832 2.41914,-5.659832 c 0.7000812,0 1.1262175,0.4109172 1.1262175,1.0805601 0,0.4413555 -0.1674107,0.7153003 -0.5174513,0.8674919 -0.2130681,0.076096 -0.4870129,0.1217532 -1.0501217,0.1217532 z m 0,0"
       style="fill:#000000;fill-opacity:1;fill-rule:nonzero;stroke:none"
       aria-label="3"
       transform="matrix(1.0266667,0,0,1.0266667,65.168693,94.068573)" />
    <path
       id="path25"
       d="m 1.6755264,-2.8162427 h 2.145901 c 0.7457386,0 1.08056,0.3652597 1.08056,1.171875 l -0.015219,0.5783279 c 0,0.39569808 0.076096,0.79139613 0.1826298,1.06534093636 H 6.0890816 V -0.21376705 C 5.7694793,-0.42683523 5.7086027,-0.65512256 5.6933835,-1.5226144 5.6781644,-2.6031745 5.5107537,-2.9227768 4.8106725,-3.2271599 5.541192,-3.5924196 5.8303559,-4.0489943 5.8303559,-4.794733 c 0,-1.1262175 -0.7000811,-1.7349837 -1.9784902,-1.7349837 H 0.83847281 V -6.9886364e-4 H 1.6755264 Z m 0,-0.7305195 v -2.252435 H 3.684455 c 0.4717938,0 0.7305194,0.076096 0.9435876,0.2435065 0.2282874,0.197849 0.3348214,0.4870129 0.3348214,0.882711 0,0.7761769 -0.395698,1.1262175 -1.278409,1.1262175 z m 9.5918726,3.10470782 c -0.07609,0.0152192 -0.121753,0.0152192 -0.152191,0.0152192 -0.273945,0 -0.410917,-0.1369724 -0.410917,-0.36525974 V -3.5467622 c 0,-0.8370535 -0.608767,-1.2784091 -1.7654225,-1.2784091 -0.684862,0 -1.2479708,0.1826299 -1.567573,0.5326705 -0.2130682,0.2435065 -0.3043832,0.5174513 -0.3196023,0.9892451 H 7.812651 c 0.060877,-0.5783279 0.395698,-0.8370536 1.0957792,-0.8370536 0.6696429,0 1.0501217,0.2435065 1.0501217,0.7000812 v 0.197849 c 0,0.3043832 -0.1826298,0.4413556 -0.7761769,0.5174513 -1.0653409,0.1369724 -1.2175325,0.1674108 -1.5066964,0.289164 -0.5478896,0.2282873 -0.8218344,0.6392045 -0.8218344,1.2479708 0,0.85227271 0.593547,1.40016232 1.5371347,1.40016232 0.5935471,0 1.0653409,-0.21306818364 1.5980114,-0.70008117 0.045658,0.47179383 0.2891637,0.70008117 0.7761767,0.70008117 0.152192,0 0.258726,-0.0304383 0.502232,-0.0913149 z M 9.9585519,-1.476957 c 0,0.2435065 -0.076096,0.3956981 -0.2891639,0.60876625 -0.3043831,0.27394481 -0.6696429,0.42613637 -1.1109984,0.42613637 -0.5935471,0 -0.9283685,-0.28916396 -0.9283685,-0.76095782 0,-0.487013 0.3348214,-0.7457386 1.1262175,-0.8522727 0.7913961,-0.1217532 0.9588069,-0.1521916 1.2023133,-0.2739448 z m 2.1230721,-3.226461 v 4.70271913636 h 0.760958 V -2.5879554 c 0,-0.9588068 0.502232,-1.5827922 1.26319,-1.5827922 0.593547,0 0.974026,0.3500406 0.974026,0.9131494 v 3.25689933636 h 0.745739 V -3.5467622 c 0,-0.7761769 -0.578328,-1.2784091 -1.491478,-1.2784091 -0.700081,0 -1.141436,0.2587257 -1.552354,0.9131494 V -4.703418 Z m 5.627283,-1.8262987 h -0.745739 v 6.52901783636 h 0.745739 V -1.8269976 l 0.73052,-0.7153003 1.582792,2.54159903636 h 0.928368 L 19.032974,-3.0749683 20.661423,-4.703418 h -0.958807 l -1.993709,1.9937094 z m 8.03191,2.0089286 v 4.52008923636 h 0.776177 V -6.362306 h -0.517452 c -0.273945,0.9892451 -0.456574,1.1109984 -1.674107,1.2631899 v 0.578328 z m 0,0"
       style="fill:#000000;fill-opacity:1;fill-rule:nonzero;stroke:none"
       aria-label="Rank1"
       transform="matrix(1.0266667,0,0,1.0266667,54.338387,119.85228)" />
    <path
       id="path26"
       d="m -306.60799,-30.79364 h 17.93298 v 17.93298 h -17.93298 z"
       style="fill:#f6f2f1;fill-opacity:1;fill-rule:nonzero;stroke:#8f7874;stroke-width:0.3985;stroke-linecap:butt;stroke-linejoin:miter;stroke-miterlimit:10;stroke-dasharray:none;stroke-opacity:1"
       transform="matrix(1.0266667,0,0,-1.0266667,323.56529,28.21612)" />
    <path
       id="path27"
       d="m 2.4644196,-6.3600682 c -0.593547,0 -1.1262175,0.2587257 -1.4610389,0.7000812 -0.41091723,0.5631088 -0.62398541,1.4153815 -0.62398541,2.5872565 0,2.14590095 0.71530031,3.28733764 2.08502431,3.28733764 1.3392858,0 2.0850244,-1.14143669 2.0850244,-3.22646104 0,-1.2479708 -0.197849,-2.0698052 -0.6239854,-2.6481331 -0.3348214,-0.4413555 -0.8674919,-0.7000812 -1.461039,-0.7000812 z m 0,0.7000812 c 0.8522728,0 1.2784091,0.8674919 1.2784091,2.5720373 0,1.7958604 -0.4109172,2.64813314 -1.2936282,2.64813314 -0.8370536,0 -1.2631899,-0.88271104 -1.2631899,-2.61769484 0,-1.7502029 0.4261363,-2.6024756 1.278409,-2.6024756 z m 0,0"
       style="fill:#000000;fill-opacity:1;fill-rule:nonzero;stroke:none"
       aria-label="0"
       transform="matrix(1.0266667,0,0,1.0266667,15.4308,53.81092)" />
    <path
       id="path28"
       d="m 1.6746879,-2.8170954 h 2.145901 c 0.7457386,0 1.08056,0.3652598 1.08056,1.171875 l -0.015219,0.5783279 c 0,0.3956981 0.076096,0.79139615 0.1826299,1.06534096 H 6.0882431 V -0.21461972 C 5.7686408,-0.42768791 5.7077642,-0.65597524 5.692545,-1.5234671 5.6773259,-2.6040272 5.5099152,-2.9236295 4.809834,-3.2280126 c 0.7305195,-0.3652597 1.0196835,-0.8218344 1.0196835,-1.567573 0,-1.1262176 -0.7000812,-1.7349838 -1.9784903,-1.7349838 H 0.83763433 v 6.52901786 H 1.6746879 Z m 0,-0.7305195 v -2.252435 h 2.0089286 c 0.4717938,0 0.7305195,0.076096 0.9435876,0.2435065 0.2282874,0.197849 0.3348215,0.487013 0.3348215,0.882711 0,0.776177 -0.3956981,1.1262175 -1.2784091,1.1262175 z m 9.5918731,3.10470784 c -0.0761,0.0152192 -0.121753,0.0152192 -0.152192,0.0152192 -0.273944,0 -0.410917,-0.1369724 -0.410917,-0.36525974 v -2.7546673 c 0,-0.8370535 -0.608766,-1.278409 -1.765422,-1.278409 -0.684862,0 -1.2479707,0.1826298 -1.567573,0.5326704 -0.2130682,0.2435065 -0.3043831,0.5174513 -0.3196023,0.9892451 h 0.7609578 c 0.060877,-0.5783279 0.3956981,-0.8370535 1.0957792,-0.8370535 0.6696429,0 1.0501218,0.2435065 1.0501218,0.7000811 v 0.1978491 c 0,0.3043831 -0.1826299,0.4413555 -0.776177,0.5174513 -1.0653409,0.1369724 -1.2175324,0.1674107 -1.5066964,0.2891639 -0.5478896,0.2282874 -0.8218344,0.6392046 -0.8218344,1.2479708 0,0.85227273 0.5935471,1.40016234 1.5371347,1.40016234 0.5935471,0 1.0653409,-0.21306818 1.5980114,-0.70008117 0.045657,0.47179383 0.2891642,0.70008117 0.7761772,0.70008117 0.152191,0 0.258725,-0.0304383 0.502232,-0.0913149 z M 9.9577135,-1.4778097 c 0,0.2435065 -0.076096,0.3956981 -0.289164,0.60876627 -0.3043831,0.27394481 -0.6696428,0.42613637 -1.1109984,0.42613637 -0.593547,0 -0.9283685,-0.28916396 -0.9283685,-0.76095784 0,-0.4870129 0.3348215,-0.7457386 1.1262176,-0.8522727 0.7913961,-0.1217532 0.9588068,-0.1521915 1.2023133,-0.2739448 z m 2.1268775,-3.226461 v 4.70271916 h 0.760957 V -2.588808 c 0,-0.9588069 0.502232,-1.5827922 1.26319,-1.5827922 0.593547,0 0.974026,0.3500405 0.974026,0.9131493 v 3.25689936 h 0.745739 V -3.5476149 c 0,-0.7761769 -0.578328,-1.278409 -1.491477,-1.278409 -0.700082,0 -1.141437,0.2587256 -1.552354,0.9131493 v -0.7913961 z m 5.623478,-1.8262987 H 16.96233 v 6.52901786 h 0.745739 V -1.8278502 l 0.730519,-0.7153004 1.582792,2.54159906 h 0.928369 l -1.917614,-3.07426946 1.62845,-1.6284497 h -0.958807 l -1.993709,1.9937094 z m 8.168881,0.1674107 c -0.593547,0 -1.126217,0.2587257 -1.461038,0.7000812 -0.410918,0.5631088 -0.623986,1.4153815 -0.623986,2.5872565 0,2.14590095 0.7153,3.28733764 2.085024,3.28733764 1.339286,0 2.085025,-1.14143669 2.085025,-3.22646104 0,-1.2479708 -0.197849,-2.0698052 -0.623986,-2.6481331 -0.334821,-0.4413555 -0.867491,-0.7000812 -1.461039,-0.7000812 z m 0,0.7000812 c 0.852273,0 1.27841,0.8674919 1.27841,2.5720373 0,1.7958604 -0.410918,2.64813314 -1.293629,2.64813314 -0.837053,0 -1.26319,-0.88271104 -1.26319,-2.61769484 0,-1.7502029 0.426137,-2.6024756 1.278409,-2.6024756 z m 0,0"
       style="fill:#000000;fill-opacity:1;fill-rule:nonzero;stroke:none"
       aria-label="Rank0"
       transform="matrix(1.0266667,0,0,1.0266667,3.40956,119.81019)" />
  </g>
</svg>
