<?xml version="1.0" encoding="UTF-8" standalone="no"?>
<!-- Created with Inkscape (http://www.inkscape.org/) -->

<svg
   version="1.1"
   id="svg1"
   width="635.73468"
   height="100.29733"
   viewBox="0 0 635.73468 100.29733"
   xmlns="http://www.w3.org/2000/svg"
   xmlns:svg="http://www.w3.org/2000/svg">
  <defs
     id="defs1" />
  <g
     id="g1">
    <path
       id="path1"
       d="M -19.84276,-14.17339 H 19.84276 V 14.1734 h -39.68552 z"
       style="fill:#eeebd2;fill-opacity:1;fill-rule:nonzero;stroke:#ada60a;stroke-width:0.74721;stroke-linecap:butt;stroke-linejoin:miter;stroke-miterlimit:10;stroke-dasharray:none;stroke-opacity:1"
       transform="matrix(1.3333333,0,0,-1.3333333,26.954667,73.342667)" />
    <path
       id="path2"
       d="m 5.3450625,-4.6162969 c -0.011719,-1.2773437 -0.890625,-2.0273437 -2.390625,-2.0273437 -1.4414063,0 -2.3203125,0.7382812 -2.3203125,1.921875 0,0.796875 0.421875,1.3007812 1.2773437,1.5234375 l 1.6171875,0.4335937 c 0.8320313,0.2109375 1.2070313,0.5390625 1.2070313,1.0546875 0,0.3515625 -0.1875,0.703125 -0.46875,0.90234378 -0.2578125,0.17578125 -0.6679688,0.28125 -1.1953125,0.28125 -0.7148438,0 -1.1953125,-0.17578125 -1.5117188,-0.55078128 -0.2460937,-0.28125 -0.3515625,-0.5976562 -0.3398437,-0.9960937 H 0.43490625 c 0,0.5976562 0.1171875,0.984375 0.38671875,1.34765623 0.4453125,0.609375 1.1953125,0.9375 2.1914062,0.9375 0.7851563,0 1.4179688,-0.1875 1.8398438,-0.50390625 0.4335937,-0.3515625 0.7148437,-0.93749998 0.7148437,-1.49999998 0,-0.8085938 -0.5039062,-1.3945313 -1.3945312,-1.640625 l -1.640625,-0.4335938 c -0.7851563,-0.2226562 -1.0664063,-0.46875 -1.0664063,-0.9726562 0,-0.6679688 0.5742188,-1.1015625 1.453125,-1.1015625 1.0429688,0 1.6289063,0.46875 1.640625,1.3242187 z m 2.9091797,-0.082031 H 7.4925234 v -1.2890625 h -0.75 v 1.2890625 H 6.1097109 v 0.609375 h 0.6328125 v 3.55078123 c 0,0.48046875 0.328125,0.75 0.9023438,0.75 0.1875,0 0.3632812,-0.0234375 0.609375,-0.0703125 v -0.62109375 c -0.09375,0.0234375 -0.2109375,0.0351563 -0.3515625,0.0351563 -0.328125,0 -0.4101563,-0.09375 -0.4101563,-0.421875 V -4.0889531 h 0.7617188 z m 5.0126948,4.26562498 c -0.08203,0.0117188 -0.117187,0.0117188 -0.152343,0.0117188 -0.269532,0 -0.410157,-0.12890625 -0.410157,-0.36328125 V -3.5498906 c 0,-0.8320313 -0.609375,-1.2773438 -1.769531,-1.2773438 -0.679687,0 -1.2421873,0.1875 -1.5585935,0.5390625 -0.2109375,0.2460938 -0.3046875,0.515625 -0.3164063,0.984375 h 0.75 c 0.058594,-0.5742187 0.3984378,-0.8320312 1.1015628,-0.8320312 0.667968,0 1.054687,0.2460937 1.054687,0.6914062 v 0.1992188 c 0,0.3164062 -0.1875,0.4453125 -0.785156,0.515625 -1.054688,0.140625 -1.21875,0.1757812 -1.5,0.2929687 -0.5507813,0.2226563 -0.8320313,0.6445313 -0.8320313,1.2539063 0,0.85546873 0.5976563,1.39453123 1.5468753,1.39453123 0.585937,0 1.066406,-0.210937505 1.59375,-0.69140625 0.04687,0.46875 0.28125,0.69140625 0.773437,0.69140625 0.152344,0 0.269531,-0.0234375 0.503906,-0.0820313 z M 11.966156,-1.4756719 c 0,0.2460938 -0.08203,0.3984375 -0.304687,0.60937503 -0.304688,0.28125 -0.667969,0.421875 -1.113282,0.421875 -0.5742183,0 -0.914062,-0.28125 -0.914062,-0.76171873 0,-0.4921875 0.328125,-0.7382813 1.125,-0.8554688 0.785156,-0.1054687 0.949219,-0.140625 1.207031,-0.2578125 z m 2.112305,-3.2226562 V 8.90625e-4 h 0.75 V -2.4366094 c 0,-0.6679687 0.175781,-1.1132812 0.527344,-1.3710937 0.234375,-0.1757813 0.457031,-0.2226563 0.984375,-0.234375 v -0.7617188 c -0.128907,-0.023437 -0.199219,-0.023437 -0.292969,-0.023437 -0.480469,0 -0.855469,0.28125 -1.277344,0.984375 v -0.8554687 z m 4.989258,0 H 18.306 v -1.2890625 h -0.75 v 1.2890625 h -0.632813 v 0.609375 H 17.556 v 3.55078123 c 0,0.48046875 0.328125,0.75 0.902344,0.75 0.1875,0 0.363281,-0.0234375 0.609375,-0.0703125 v -0.62109375 c -0.09375,0.0234375 -0.210938,0.0351563 -0.351563,0.0351563 -0.328125,0 -0.410156,-0.09375 -0.410156,-0.421875 V -4.0889531 h 0.761719 z m 0,0"
       style="fill:#000000;fill-opacity:1;fill-rule:nonzero;stroke:none"
       aria-label="Start"
       transform="matrix(1.3333333,0,0,1.3333333,14.092,77.616)" />
    <path
       id="path3"
       d="m 48.93677,-14.17339 h 55.00935 V 14.1734 H 48.93677 Z"
       style="fill:#f7b4f7;fill-opacity:1;fill-rule:nonzero;stroke:#7e317b;stroke-width:0.74721;stroke-linecap:butt;stroke-linejoin:miter;stroke-miterlimit:10;stroke-dasharray:none;stroke-opacity:1"
       transform="matrix(1.3333333,0,0,-1.3333333,26.954667,73.342667)" />
    <path
       id="path4"
       d="m 3.4925312,-6.6451797 c -1.875,0 -3.1523437,1.3828125 -3.1523437,3.421875 0,2.0507813 1.2773437,3.43359376 3.1523437,3.43359376 0.796875,0 1.5,-0.24609375 2.0273438,-0.69140625 0.7148437,-0.60937501 1.1367187,-1.61718751 1.1367187,-2.68359371 0,-2.109375 -1.2539062,-3.4804688 -3.1640625,-3.4804688 z m 0,0.7382813 c 1.40625,0 2.3203125,1.078125 2.3203125,2.71875 0,1.5820312 -0.9375,2.66015621 -2.3203125,2.66015621 -1.3828125,0 -2.3203125,-1.07812501 -2.3203125,-2.69531251 0,-1.6054687 0.9375,-2.6835937 2.3203125,-2.6835937 z m 3.9638672,7.8632812 h 0.7617188 v -2.44921874 c 0.3867187,0.48046875 0.8320312,0.703125 1.4414062,0.703125 1.2070316,0 2.0039066,-0.984375 2.0039066,-2.48437496 0,-1.5703125 -0.773438,-2.5546875 -2.0156253,-2.5546875 -0.6328125,0 -1.1484375,0.28125 -1.5,0.84375 V -4.6998672 H 7.4563984 Z m 2.0625,-6.09375 c 0.8320316,0 1.3710936,0.7265625 1.3710936,1.8515625 0,1.0664063 -0.550781,1.79296876 -1.3710936,1.79296876 -0.7851562,0 -1.3007812,-0.71484376 -1.3007812,-1.81640626 0,-1.1015625 0.515625,-1.828125 1.3007812,-1.828125 z m 7.0371096,2.0390625 c 0,-0.7148437 -0.04687,-1.1484375 -0.1875,-1.5 -0.304688,-0.7734375 -1.019531,-1.2304687 -1.898438,-1.2304687 -1.300781,0 -2.144531,0.9960937 -2.144531,2.5429687 0,1.54687501 0.808594,2.49609376 2.132813,2.49609376 1.066406,0 1.816406,-0.609375 2.003906,-1.64062496 h -0.75 c -0.210938,0.62109371 -0.632813,0.94921871 -1.230469,0.94921871 -0.480469,0 -0.878906,-0.22265625 -1.125,-0.60937501 -0.1875,-0.2695312 -0.246094,-0.5390625 -0.257812,-1.0078125 z m -3.433594,-0.609375 c 0.05859,-0.8671875 0.585938,-1.4296875 1.335938,-1.4296875 0.738281,0 1.300781,0.609375 1.300781,1.3710938 0,0.023437 0,0.035156 0,0.058594 z m 4.444336,-1.9921875 v 4.6992187625 h 0.75 V -2.4381484 c 0,-0.6679688 0.175781,-1.1132813 0.527344,-1.3710938 0.234375,-0.1757812 0.457031,-0.2226562 0.984375,-0.234375 v -0.7617187 c -0.128907,-0.023437 -0.199219,-0.023437 -0.292969,-0.023437 -0.480469,0 -0.855469,0.28125 -1.277344,0.984375 v -0.8554688 z m 7.069336,4.26562501 c -0.08203,0.0117188 -0.117188,0.0117188 -0.152344,0.0117188 -0.269531,0 -0.410156,-0.12890625 -0.410156,-0.36328125 V -3.5514297 c 0,-0.8320312 -0.609375,-1.2773437 -1.769531,-1.2773437 -0.679688,0 -1.242188,0.1875 -1.558594,0.5390625 -0.210938,0.2460937 -0.304688,0.515625 -0.316406,0.984375 h 0.75 c 0.05859,-0.5742188 0.398437,-0.8320313 1.101562,-0.8320313 0.667969,0 1.054688,0.2460938 1.054688,0.6914063 v 0.1992187 c 0,0.3164063 -0.1875,0.4453125 -0.785157,0.515625 -1.054687,0.140625 -1.21875,0.1757813 -1.5,0.2929688 -0.550781,0.2226562 -0.832031,0.6445312 -0.832031,1.2539062 0,0.85546876 0.597656,1.39453126 1.546875,1.39453126 0.585938,0 1.066406,-0.2109374975 1.59375,-0.69140625 0.04687,0.46875 0.28125,0.69140625 0.773438,0.69140625 0.152343,0 0.269531,-0.0234375 0.503906,-0.0820313 z M 23.335305,-1.4772109 c 0,0.2460937 -0.08203,0.3984375 -0.304688,0.60937496 -0.304687,0.28125 -0.667969,0.421875 -1.113281,0.421875 -0.574219,0 -0.914063,-0.28125 -0.914063,-0.76171876 0,-0.4921875 0.328125,-0.7382812 1.125,-0.8554687 0.785157,-0.1054688 0.949219,-0.140625 1.207032,-0.2578125 z m 3.764648,-3.2226563 h -0.761719 v -1.2890625 h -0.75 v 1.2890625 h -0.632812 v 0.609375 h 0.632812 v 3.55078126 c 0,0.48046875 0.328125,0.75 0.902344,0.75 0.1875,0 0.363281,-0.0234375 0.609375,-0.0703125 v -0.62109375 c -0.09375,0.0234375 -0.210937,0.0351563 -0.351562,0.0351563 -0.328125,0 -0.410157,-0.09375 -0.410157,-0.421875 V -4.0904922 h 0.761719 z m 1.567383,0 h -0.75 v 4.6992187625 h 0.75 z m 0,-1.8398437 h -0.761719 v 0.9492187 h 0.761719 z m 3.082031,1.7109375 c -1.3125,0 -2.109375,0.9375 -2.109375,2.5195312 0,1.57031251 0.785156,2.51953126 2.121094,2.51953126 1.3125,0 2.121094,-0.94921875 2.121094,-2.48437496 0,-1.6289063 -0.773438,-2.5546875 -2.132813,-2.5546875 z m 0.01172,0.6914062 c 0.84375,0 1.347656,0.6796875 1.347656,1.8515625 0,1.1015625 -0.527344,1.80468751 -1.347656,1.80468751 -0.832031,0 -1.347656,-0.69140621 -1.347656,-1.82812501 0,-1.1367187 0.515625,-1.828125 1.347656,-1.828125 z m 3.166992,-0.5625 v 4.6992187625 h 0.75 V -2.5904922 c 0,-0.9609375 0.503906,-1.5820312 1.265625,-1.5820312 0.597656,0 0.972656,0.3515625 0.972656,0.9140625 v 3.2578124625 h 0.75 V -3.5514297 c 0,-0.7734375 -0.585937,-1.2773437 -1.488281,-1.2773437 -0.703125,0 -1.148437,0.2695312 -1.570312,0.9140625 v -0.7851563 z m 9.158203,0.1757813 v 4.5234374625 h 0.785156 V -6.3522109 h -0.515625 c -0.28125,0.9726562 -0.457031,1.1015625 -1.675781,1.2539062 v 0.5742188 z m 0,0"
       style="fill:#000000;fill-opacity:1;fill-rule:nonzero;stroke:none"
       aria-label="Operation1"
       transform="matrix(1.3333333,0,0,1.3333333,97.702667,76.481333)" />
    <path
       id="path5"
       d="M 133.04015,-19.84276 H 188.0495 V 19.84276 H 133.04015 Z"
       style="fill:#dbfda6;fill-opacity:1;fill-rule:nonzero;stroke:#008f45;stroke-width:0.74721;stroke-linecap:butt;stroke-linejoin:miter;stroke-miterlimit:10;stroke-dasharray:none;stroke-opacity:1"
       transform="matrix(1.3333333,0,0,-1.3333333,26.954667,73.342667)" />
    <path
       id="path6"
       d="m 3.4930703,-6.6450703 c -1.875,0 -3.15234374,1.3828125 -3.15234374,3.421875 0,2.0507812 1.27734374,3.43359374 3.15234374,3.43359374 0.796875,0 1.5,-0.24609375 2.0273438,-0.69140625 0.7148437,-0.60937499 1.1367187,-1.61718749 1.1367187,-2.68359379 0,-2.109375 -1.2539062,-3.4804687 -3.1640625,-3.4804687 z m 0,0.7382812 c 1.40625,0 2.3203125,1.078125 2.3203125,2.71875 0,1.5820313 -0.9375,2.66015629 -2.3203125,2.66015629 -1.3828125,0 -2.3203125,-1.07812499 -2.3203125,-2.69531249 0,-1.6054688 0.9375,-2.6835938 2.3203125,-2.6835938 z m 3.9638672,7.8632813 h 0.7617187 v -2.44921876 c 0.3867188,0.48046875 0.8320313,0.703125 1.4414063,0.703125 1.2070315,0 2.0039065,-0.984375 2.0039065,-2.48437504 0,-1.5703125 -0.773438,-2.5546875 -2.0156253,-2.5546875 -0.6328125,0 -1.1484375,0.28125 -1.5,0.84375 V -4.6997578 H 7.4569375 Z m 2.0625,-6.09375 c 0.8320315,0 1.3710935,0.7265625 1.3710935,1.8515625 0,1.0664062 -0.550781,1.79296874 -1.3710935,1.79296874 -0.7851563,0 -1.3007813,-0.71484374 -1.3007813,-1.81640624 0,-1.1015625 0.515625,-1.828125 1.3007813,-1.828125 z m 7.0341795,2.0390625 c 0,-0.7148438 -0.04687,-1.1484375 -0.1875,-1.5 -0.304687,-0.7734375 -1.019531,-1.2304688 -1.898437,-1.2304688 -1.300782,0 -2.144532,0.9960938 -2.144532,2.5429688 0,1.54687499 0.808594,2.49609374 2.132813,2.49609374 1.066406,0 1.816406,-0.609375 2.003906,-1.64062504 h -0.75 c -0.210937,0.62109379 -0.632812,0.94921879 -1.230469,0.94921879 -0.480468,0 -0.878906,-0.22265625 -1.125,-0.60937499 -0.1875,-0.2695313 -0.246093,-0.5390625 -0.257812,-1.0078125 z m -3.433594,-0.609375 c 0.05859,-0.8671875 0.585938,-1.4296875 1.335938,-1.4296875 0.738281,0 1.300781,0.609375 1.300781,1.3710937 0,0.023437 0,0.035156 0,0.058594 z m 4.447266,-1.9921875 v 4.6992187375 h 0.75 V -2.4380391 c 0,-0.6679687 0.175781,-1.1132812 0.527344,-1.3710937 0.234375,-0.1757813 0.457031,-0.2226563 0.984375,-0.234375 v -0.7617188 c -0.128906,-0.023437 -0.199219,-0.023437 -0.292969,-0.023437 -0.480469,0 -0.855469,0.28125 -1.277344,0.984375 v -0.8554687 z m 7.069336,4.26562499 c -0.08203,0.0117188 -0.117188,0.0117188 -0.152344,0.0117188 -0.269531,0 -0.410156,-0.12890625 -0.410156,-0.36328125 V -3.5513203 c 0,-0.8320313 -0.609375,-1.2773438 -1.769531,-1.2773438 -0.679688,0 -1.242188,0.1875 -1.558594,0.5390625 -0.210938,0.2460938 -0.304688,0.515625 -0.316406,0.984375 h 0.75 c 0.05859,-0.5742187 0.398437,-0.8320312 1.101562,-0.8320312 0.667969,0 1.054688,0.2460937 1.054688,0.6914062 v 0.1992188 c 0,0.3164062 -0.1875,0.4453125 -0.785157,0.515625 -1.054687,0.140625 -1.21875,0.1757812 -1.5,0.2929687 -0.550781,0.2226563 -0.832031,0.6445313 -0.832031,1.2539063 0,0.85546874 0.597656,1.39453124 1.546875,1.39453124 0.585938,0 1.066406,-0.2109375025 1.59375,-0.69140625 0.04687,0.46875 0.28125,0.69140625 0.773438,0.69140625 0.152343,0 0.269531,-0.0234375 0.503906,-0.0820313 z M 23.335844,-1.4771016 c 0,0.2460938 -0.08203,0.3984375 -0.304688,0.60937504 -0.304687,0.28125 -0.667969,0.421875 -1.113281,0.421875 -0.574219,0 -0.914063,-0.28125 -0.914063,-0.76171874 0,-0.4921875 0.328125,-0.7382813 1.125,-0.8554688 0.785157,-0.1054687 0.949219,-0.140625 1.207032,-0.2578125 z m 3.764648,-3.2226562 h -0.761719 v -1.2890625 h -0.75 v 1.2890625 h -0.632812 v 0.609375 h 0.632812 v 3.55078124 c 0,0.48046875 0.328125,0.75 0.902344,0.75 0.1875,0 0.363281,-0.0234375 0.609375,-0.0703125 v -0.62109375 c -0.09375,0.0234375 -0.210937,0.0351563 -0.351562,0.0351563 -0.328125,0 -0.410157,-0.09375 -0.410157,-0.421875 V -4.0903828 h 0.761719 z m 1.567383,0 h -0.75 v 4.6992187375 h 0.75 z m 0,-1.8398438 h -0.761719 v 0.9492188 h 0.761719 z m 3.082031,1.7109375 c -1.3125,0 -2.109375,0.9375 -2.109375,2.5195313 0,1.57031249 0.785156,2.51953124 2.121094,2.51953124 1.3125,0 2.121094,-0.94921875 2.121094,-2.48437504 0,-1.6289062 -0.773438,-2.5546875 -2.132813,-2.5546875 z m 0.01172,0.6914063 c 0.84375,0 1.347656,0.6796875 1.347656,1.8515625 0,1.1015625 -0.527344,1.80468749 -1.347656,1.80468749 -0.832031,0 -1.347656,-0.69140629 -1.347656,-1.82812499 0,-1.1367188 0.515625,-1.828125 1.347656,-1.828125 z m 3.166992,-0.5625 v 4.6992187375 h 0.75 V -2.5903828 c 0,-0.9609375 0.503906,-1.5820313 1.265625,-1.5820313 0.597656,0 0.972656,0.3515625 0.972656,0.9140625 v 3.2578125375 h 0.75 V -3.5513203 c 0,-0.7734375 -0.585937,-1.2773438 -1.488281,-1.2773438 -0.703125,0 -1.148437,0.2695313 -1.570312,0.9140625 v -0.7851562 z m 9.166992,0.1757812 v 4.5234375375 h 0.785157 V -6.3521016 h -0.515625 c -0.28125,0.9726563 -0.457032,1.1015625 -1.675782,1.2539063 v 0.5742187 z m 0,0"
       style="fill:#000000;fill-opacity:1;fill-rule:nonzero;stroke:none"
       aria-label="Operation1"
       transform="matrix(1.3333333,0,0,1.3333333,209.83867,70.364)" />
    <path
       id="path7"
       d="m 1.6397734,-2.9761406 h 3.5625 v -0.7382813 h -3.5625 V -5.8003594 H 5.3311797 V -6.5386406 H 0.80774219 V 4.21875e-4 H 5.4952422 V -0.73785937 H 1.6397734 Z m 6.9550782,0.5507812 1.5820314,-2.2734375 H 9.3331328 l -1.125,1.6992188 -1.1367187,-1.6992188 h -0.84375 L 7.7979766,-2.3902031 6.1339141,4.21875e-4 H 6.9893828 L 8.1729766,-1.8042656 9.3565703,4.21875e-4 h 0.8671877 z m 6.1933594,0.328125 c 0,-0.7148437 -0.04687,-1.1484375 -0.1875,-1.5 -0.304688,-0.7734375 -1.019531,-1.2304687 -1.898438,-1.2304687 -1.300781,0 -2.144531,0.9960937 -2.144531,2.5429687 0,1.54687503 0.808594,2.49609378 2.132813,2.49609378 1.066406,0 1.816406,-0.609375 2.003906,-1.64062498 h -0.75 c -0.210938,0.62109373 -0.632813,0.94921873 -1.230469,0.94921873 -0.480469,0 -0.878906,-0.22265625 -1.125,-0.60937503 -0.1875,-0.2695312 -0.246094,-0.5390625 -0.257812,-1.0078125 z m -3.433594,-0.609375 c 0.05859,-0.8671875 0.585938,-1.4296875 1.335938,-1.4296875 0.738281,0 1.300781,0.609375 1.300781,1.3710938 0,0.023437 0,0.035156 0,0.058594 z m 8.044922,-0.4101562 c -0.03516,-0.4570313 -0.128906,-0.75 -0.304687,-1.0195313 -0.328125,-0.4335937 -0.890625,-0.6914062 -1.546875,-0.6914062 -1.265625,0 -2.085938,0.9960937 -2.085938,2.5546875 0,1.52343748 0.808594,2.48437498 2.074219,2.48437498 1.125,0 1.828125,-0.6796875 1.921875,-1.82812498 h -0.75 c -0.128906,0.76171873 -0.515625,1.13671873 -1.148438,1.13671873 -0.832031,0 -1.324218,-0.67968753 -1.324218,-1.79296873 0,-1.171875 0.492187,-1.8632813 1.300781,-1.8632813 0.632812,0 1.019531,0.3632813 1.113281,1.0195313 z M 23.98743,4.21875e-4 V -4.6987969 h -0.75 v 2.6601563 c 0,0.9609375 -0.503907,1.59374998 -1.277344,1.59374998 -0.597656,0 -0.972656,-0.36328125 -0.972656,-0.92578128 v -3.328125 h -0.738282 v 3.6210938 c 0,0.78515623 0.574219,1.28906248 1.488282,1.28906248 0.691406,0 1.136718,-0.24609375 1.570312,-0.8671875 V 4.21875e-4 Z M 26.922977,-4.6987969 h -0.761719 v -1.2890625 h -0.75 v 1.2890625 h -0.632813 v 0.609375 h 0.632813 v 3.55078128 c 0,0.48046875 0.328125,0.75 0.902344,0.75 0.1875,0 0.363281,-0.0234375 0.609375,-0.0703125 v -0.62109375 c -0.09375,0.0234375 -0.210938,0.0351563 -0.351563,0.0351563 -0.328125,0 -0.410156,-0.09375 -0.410156,-0.421875 V -4.0894219 h 0.761719 z m 4.810546,2.6015625 c 0,-0.7148437 -0.04687,-1.1484375 -0.1875,-1.5 -0.304687,-0.7734375 -1.019531,-1.2304687 -1.898437,-1.2304687 -1.300781,0 -2.144531,0.9960937 -2.144531,2.5429687 0,1.54687503 0.808593,2.49609378 2.132812,2.49609378 1.066406,0 1.816406,-0.609375 2.003906,-1.64062498 h -0.75 c -0.210937,0.62109373 -0.632812,0.94921873 -1.230468,0.94921873 -0.480469,0 -0.878907,-0.22265625 -1.125,-0.60937503 -0.1875,-0.2695312 -0.246094,-0.5390625 -0.257813,-1.0078125 z m -3.433593,-0.609375 c 0.05859,-0.8671875 0.585937,-1.4296875 1.335937,-1.4296875 0.738281,0 1.300781,0.609375 1.300781,1.3710938 0,0.023437 0,0.035156 0,0.058594 z m 8.267578,-3.8320312 h -0.75 v 2.4375 c -0.316406,-0.4804688 -0.808594,-0.7265625 -1.441406,-0.7265625 -1.21875,0 -2.015625,0.9726562 -2.015625,2.4726562 0,1.58203128 0.773437,2.56640628 2.039062,2.56640628 0.644531,0 1.101563,-0.24609375 1.5,-0.83203125 V 4.21875e-4 h 0.667969 z m -2.0625,2.4023437 c 0.808594,0 1.3125,0.7265625 1.3125,1.8398438 0,1.0898437 -0.515625,1.80468748 -1.3125,1.80468748 -0.820313,0 -1.371094,-0.72656248 -1.371094,-1.81640628 0,-1.1015625 0.550781,-1.828125 1.371094,-1.828125 z m 0,0"
       style="fill:#000000;fill-opacity:1;fill-rule:nonzero;stroke:none"
       aria-label="Executed"
       transform="matrix(1.3333333,0,0,1.3333333,216.27067,84.976)" />
    <path
       id="path8"
       d="m 248.3252,-14.17339 h 55.00935 V 14.1734 H 248.3252 Z"
       style="fill:#f7b4f7;fill-opacity:1;fill-rule:nonzero;stroke:#7e317b;stroke-width:0.74721;stroke-linecap:butt;stroke-linejoin:miter;stroke-miterlimit:10;stroke-dasharray:none;stroke-opacity:1"
       transform="matrix(1.3333333,0,0,-1.3333333,26.954667,73.342667)" />
    <path
       id="path9"
       d="m 3.4922734,-6.6451797 c -1.875,0 -3.15234371,1.3828125 -3.15234371,3.421875 0,2.0507813 1.27734371,3.43359376 3.15234371,3.43359376 0.796875,0 1.5,-0.24609375 2.0273438,-0.69140625 0.7148437,-0.60937501 1.1367187,-1.61718751 1.1367187,-2.68359371 0,-2.109375 -1.2539062,-3.4804688 -3.1640625,-3.4804688 z m 0,0.7382813 c 1.40625,0 2.3203125,1.078125 2.3203125,2.71875 0,1.5820312 -0.9375,2.66015621 -2.3203125,2.66015621 -1.3828125,0 -2.3203125,-1.07812501 -2.3203125,-2.69531251 0,-1.6054687 0.9375,-2.6835937 2.3203125,-2.6835937 z m 3.9638672,7.8632812 h 0.7617188 v -2.44921874 c 0.3867187,0.48046875 0.8320312,0.703125 1.4414062,0.703125 1.2070314,0 2.0039064,-0.984375 2.0039064,-2.48437496 0,-1.5703125 -0.773438,-2.5546875 -2.0156251,-2.5546875 -0.6328125,0 -1.1484375,0.28125 -1.5,0.84375 V -4.6998672 H 7.4561406 Z m 2.0625,-6.09375 c 0.8320314,0 1.3710934,0.7265625 1.3710934,1.8515625 0,1.0664063 -0.550781,1.79296876 -1.3710934,1.79296876 -0.7851562,0 -1.3007812,-0.71484376 -1.3007812,-1.81640626 0,-1.1015625 0.515625,-1.828125 1.3007812,-1.828125 z m 7.0371094,2.0390625 c 0,-0.7148437 -0.04687,-1.1484375 -0.1875,-1.5 -0.304688,-0.7734375 -1.019531,-1.2304687 -1.898438,-1.2304687 -1.300781,0 -2.144531,0.9960937 -2.144531,2.5429687 0,1.54687501 0.808594,2.49609376 2.132813,2.49609376 1.066406,0 1.816406,-0.609375 2.003906,-1.64062496 h -0.75 c -0.210938,0.62109371 -0.632813,0.94921871 -1.230469,0.94921871 -0.480469,0 -0.878906,-0.22265625 -1.125,-0.60937501 -0.1875,-0.2695312 -0.246094,-0.5390625 -0.257812,-1.0078125 z m -3.433594,-0.609375 c 0.05859,-0.8671875 0.585938,-1.4296875 1.335938,-1.4296875 0.738281,0 1.300781,0.609375 1.300781,1.3710938 0,0.023437 0,0.035156 0,0.058594 z m 4.444336,-1.9921875 v 4.6992187625 h 0.75 V -2.4381484 c 0,-0.6679688 0.175781,-1.1132813 0.527344,-1.3710938 0.234375,-0.1757812 0.457031,-0.2226562 0.984375,-0.234375 v -0.7617187 c -0.128906,-0.023437 -0.199219,-0.023437 -0.292969,-0.023437 -0.480469,0 -0.855469,0.28125 -1.277344,0.984375 v -0.8554688 z m 7.069336,4.26562501 c -0.08203,0.0117188 -0.117187,0.0117188 -0.152344,0.0117188 -0.269531,0 -0.410156,-0.12890625 -0.410156,-0.36328125 V -3.5514297 c 0,-0.8320312 -0.609375,-1.2773437 -1.769531,-1.2773437 -0.679688,0 -1.242188,0.1875 -1.558594,0.5390625 -0.210937,0.2460937 -0.304687,0.515625 -0.316406,0.984375 h 0.75 c 0.05859,-0.5742188 0.398437,-0.8320313 1.101562,-0.8320313 0.667969,0 1.054688,0.2460938 1.054688,0.6914063 v 0.1992187 c 0,0.3164063 -0.1875,0.4453125 -0.785156,0.515625 -1.054688,0.140625 -1.21875,0.1757813 -1.5,0.2929688 -0.550782,0.2226562 -0.832032,0.6445312 -0.832032,1.2539062 0,0.85546876 0.597657,1.39453126 1.546875,1.39453126 0.585938,0 1.066407,-0.2109374975 1.59375,-0.69140625 0.04687,0.46875 0.28125,0.69140625 0.773438,0.69140625 0.152344,0 0.269531,-0.0234375 0.503906,-0.0820313 z M 23.335047,-1.4772109 c 0,0.2460937 -0.08203,0.3984375 -0.304688,0.60937496 -0.304687,0.28125 -0.667968,0.421875 -1.113281,0.421875 -0.574219,0 -0.914062,-0.28125 -0.914062,-0.76171876 0,-0.4921875 0.328125,-0.7382812 1.125,-0.8554687 0.785156,-0.1054688 0.949218,-0.140625 1.207031,-0.2578125 z m 3.767578,-3.2226563 h -0.761719 v -1.2890625 h -0.75 v 1.2890625 h -0.632812 v 0.609375 h 0.632812 v 3.55078126 c 0,0.48046875 0.328125,0.75 0.902344,0.75 0.1875,0 0.363281,-0.0234375 0.609375,-0.0703125 v -0.62109375 c -0.09375,0.0234375 -0.210938,0.0351563 -0.351563,0.0351563 -0.328125,0 -0.410156,-0.09375 -0.410156,-0.421875 V -4.0904922 h 0.761719 z m 1.564453,0 h -0.75 v 4.6992187625 h 0.75 z m 0,-1.8398437 h -0.761719 v 0.9492187 h 0.761719 z m 3.082031,1.7109375 c -1.3125,0 -2.109375,0.9375 -2.109375,2.5195312 0,1.57031251 0.785157,2.51953126 2.121094,2.51953126 1.3125,0 2.121094,-0.94921875 2.121094,-2.48437496 0,-1.6289063 -0.773438,-2.5546875 -2.132813,-2.5546875 z m 0.01172,0.6914062 c 0.84375,0 1.347656,0.6796875 1.347656,1.8515625 0,1.1015625 -0.527343,1.80468751 -1.347656,1.80468751 -0.832031,0 -1.347656,-0.69140621 -1.347656,-1.82812501 0,-1.1367187 0.515625,-1.828125 1.347656,-1.828125 z m 3.166992,-0.5625 v 4.6992187625 h 0.75 V -2.5904922 c 0,-0.9609375 0.503907,-1.5820312 1.265625,-1.5820312 0.597657,0 0.972657,0.3515625 0.972657,0.9140625 v 3.2578124625 h 0.75 V -3.5514297 c 0,-0.7734375 -0.585938,-1.2773437 -1.488282,-1.2773437 -0.703125,0 -1.148437,0.2695312 -1.570312,0.9140625 v -0.7851563 z m 11.373047,3.91406251 h -3.339844 c 0.08203,-0.51562501 0.363282,-0.84375001 1.148438,-1.30078121 l 0.890625,-0.4921875 c 0.890625,-0.4804688 1.347656,-1.1367188 1.347656,-1.9101563 0,-0.5273437 -0.210937,-1.0195312 -0.597656,-1.3710937 -0.375,-0.3398438 -0.832031,-0.4921875 -1.441406,-0.4921875 -0.808594,0 -1.40625,0.28125 -1.757813,0.8203125 -0.222656,0.3398437 -0.316406,0.7382812 -0.339844,1.3828125 h 0.796875 c 0.02344,-0.4335938 0.07031,-0.6914063 0.1875,-0.9023438 0.199219,-0.3867187 0.609375,-0.609375 1.089844,-0.609375 0.714844,0 1.253906,0.5039063 1.253906,1.1835938 0,0.5039062 -0.292968,0.9375 -0.855468,1.2539062 l -0.832032,0.46875 c -1.324218,0.75 -1.710937,1.359375 -1.78125,2.7539062625 h 4.230469 z m 0,0"
       style="fill:#000000;fill-opacity:1;fill-rule:nonzero;stroke:none"
       aria-label="Operation2"
       transform="matrix(1.3333333,0,0,1.3333333,363.55067,76.481333)" />
    <path
       id="path10"
       d="m 332.42857,-19.84276 h 55.00935 v 39.68552 h -55.00935 z"
       style="fill:#dbfda6;fill-opacity:1;fill-rule:nonzero;stroke:#008f45;stroke-width:0.74721;stroke-linecap:butt;stroke-linejoin:miter;stroke-miterlimit:10;stroke-dasharray:none;stroke-opacity:1"
       transform="matrix(1.3333333,0,0,-1.3333333,26.954667,73.342667)" />
    <path
       id="path11"
       d="m 3.4928125,-6.6450703 c -1.875,0 -3.15234375,1.3828125 -3.15234375,3.421875 0,2.0507812 1.27734375,3.43359374 3.15234375,3.43359374 0.796875,0 1.5,-0.24609375 2.0273438,-0.69140625 C 6.235,-1.0903828 6.656875,-2.0981953 6.656875,-3.1646016 c 0,-2.109375 -1.2539062,-3.4804687 -3.1640625,-3.4804687 z m 0,0.7382812 c 1.40625,0 2.3203125,1.078125 2.3203125,2.71875 0,1.5820313 -0.9375,2.66015629 -2.3203125,2.66015629 C 2.11,-0.52788281 1.1725,-1.6060078 1.1725,-3.2231953 c 0,-1.6054688 0.9375,-2.6835938 2.3203125,-2.6835938 z m 3.9638672,7.8632813 h 0.7617187 v -2.44921876 c 0.3867188,0.48046875 0.8320313,0.703125 1.4414063,0.703125 1.2070313,0 2.0039063,-0.984375 2.0039063,-2.48437504 0,-1.5703125 -0.773438,-2.5546875 -2.0156251,-2.5546875 -0.6328125,0 -1.1484375,0.28125 -1.5,0.84375 V -4.6997578 H 7.4566797 Z m 2.0625,-6.09375 c 0.8320313,0 1.3710933,0.7265625 1.3710933,1.8515625 0,1.0664062 -0.550781,1.79296874 -1.3710933,1.79296874 -0.7851563,0 -1.3007813,-0.71484374 -1.3007813,-1.81640624 0,-1.1015625 0.515625,-1.828125 1.3007813,-1.828125 z m 7.0371093,2.0390625 c 0,-0.7148438 -0.04687,-1.1484375 -0.1875,-1.5 -0.304687,-0.7734375 -1.019531,-1.2304688 -1.898437,-1.2304688 -1.300782,0 -2.144532,0.9960938 -2.144532,2.5429688 0,1.54687499 0.808594,2.49609374 2.132813,2.49609374 1.066406,0 1.816406,-0.609375 2.003906,-1.64062504 h -0.75 c -0.210937,0.62109379 -0.632812,0.94921879 -1.230469,0.94921879 -0.480468,0 -0.878906,-0.22265625 -1.125,-0.60937499 -0.1875,-0.2695313 -0.246093,-0.5390625 -0.257812,-1.0078125 z m -3.433594,-0.609375 c 0.05859,-0.8671875 0.585938,-1.4296875 1.335938,-1.4296875 0.738281,0 1.300781,0.609375 1.300781,1.3710937 0,0.023437 0,0.035156 0,0.058594 z m 4.444336,-1.9921875 v 4.6992187375 h 0.75 V -2.4380391 c 0,-0.6679687 0.175782,-1.1132812 0.527344,-1.3710937 0.234375,-0.1757813 0.457031,-0.2226563 0.984375,-0.234375 v -0.7617188 c -0.128906,-0.023437 -0.199219,-0.023437 -0.292969,-0.023437 -0.480468,0 -0.855468,0.28125 -1.277343,0.984375 v -0.8554687 z m 7.069336,4.26562499 c -0.08203,0.0117188 -0.117187,0.0117188 -0.152344,0.0117188 -0.269531,0 -0.410156,-0.12890625 -0.410156,-0.36328125 V -3.5513203 c 0,-0.8320313 -0.609375,-1.2773438 -1.769531,-1.2773438 -0.679688,0 -1.242188,0.1875 -1.558594,0.5390625 -0.210937,0.2460938 -0.304687,0.515625 -0.316406,0.984375 h 0.75 c 0.05859,-0.5742187 0.398437,-0.8320312 1.101562,-0.8320312 0.667969,0 1.054688,0.2460937 1.054688,0.6914062 v 0.1992188 c 0,0.3164062 -0.1875,0.4453125 -0.785156,0.515625 -1.054688,0.140625 -1.21875,0.1757812 -1.5,0.2929687 -0.550782,0.2226563 -0.832032,0.6445313 -0.832032,1.2539063 0,0.85546874 0.597657,1.39453124 1.546875,1.39453124 0.585938,0 1.066407,-0.2109375025 1.59375,-0.69140625 0.04687,0.46875 0.28125,0.69140625 0.773438,0.69140625 0.152344,0 0.269531,-0.0234375 0.503906,-0.0820313 z M 23.335586,-1.4771016 c 0,0.2460938 -0.08203,0.3984375 -0.304688,0.60937504 -0.304687,0.28125 -0.667968,0.421875 -1.113281,0.421875 -0.574219,0 -0.914062,-0.28125 -0.914062,-0.76171874 0,-0.4921875 0.328125,-0.7382813 1.125,-0.8554688 0.785156,-0.1054687 0.949218,-0.140625 1.207031,-0.2578125 z m 3.764648,-3.2226562 h -0.761718 v -1.2890625 h -0.75 v 1.2890625 h -0.632813 v 0.609375 h 0.632813 v 3.55078124 c 0,0.48046875 0.328125,0.75 0.902343,0.75 0.1875,0 0.363282,-0.0234375 0.609375,-0.0703125 v -0.62109375 c -0.09375,0.0234375 -0.210937,0.0351563 -0.351562,0.0351563 -0.328125,0 -0.410156,-0.09375 -0.410156,-0.421875 V -4.0903828 h 0.761718 z m 1.567383,0 h -0.75 v 4.6992187375 h 0.75 z m 0,-1.8398438 h -0.761719 v 0.9492188 h 0.761719 z m 3.082031,1.7109375 c -1.3125,0 -2.109375,0.9375 -2.109375,2.5195313 0,1.57031249 0.785157,2.51953124 2.121094,2.51953124 1.3125,0 2.121094,-0.94921875 2.121094,-2.48437504 0,-1.6289062 -0.773438,-2.5546875 -2.132813,-2.5546875 z m 0.01172,0.6914063 c 0.84375,0 1.347656,0.6796875 1.347656,1.8515625 0,1.1015625 -0.527343,1.80468749 -1.347656,1.80468749 -0.832031,0 -1.347656,-0.69140629 -1.347656,-1.82812499 0,-1.1367188 0.515625,-1.828125 1.347656,-1.828125 z m 3.166992,-0.5625 v 4.6992187375 h 0.75 V -2.5903828 c 0,-0.9609375 0.503907,-1.5820313 1.265625,-1.5820313 0.597657,0 0.972657,0.3515625 0.972657,0.9140625 v 3.2578125375 h 0.75 V -3.5513203 c 0,-0.7734375 -0.585938,-1.2773438 -1.488282,-1.2773438 -0.703125,0 -1.148437,0.2695313 -1.570312,0.9140625 v -0.7851562 z m 11.381836,3.91406249 h -3.339843 c 0.08203,-0.51562499 0.363281,-0.84374999 1.148437,-1.30078129 l 0.890625,-0.4921875 c 0.890625,-0.4804687 1.347656,-1.1367187 1.347656,-1.9101562 0,-0.5273438 -0.210937,-1.0195313 -0.597656,-1.3710938 -0.375,-0.3398437 -0.832031,-0.4921875 -1.441406,-0.4921875 -0.808594,0 -1.40625,0.28125 -1.757813,0.8203125 -0.222656,0.3398438 -0.316406,0.7382813 -0.339843,1.3828125 h 0.796875 c 0.02344,-0.4335937 0.07031,-0.6914062 0.1875,-0.9023437 0.199218,-0.3867188 0.609375,-0.609375 1.089843,-0.609375 0.714844,0 1.253907,0.5039062 1.253907,1.1835937 0,0.5039063 -0.292969,0.9375 -0.855469,1.2539063 l -0.832031,0.46875 c -1.324219,0.75 -1.710938,1.359375 -1.78125,2.7539062375 h 4.230468 z m 0,0"
       style="fill:#000000;fill-opacity:1;fill-rule:nonzero;stroke:none"
       aria-label="Operation2"
       transform="matrix(1.3333333,0,0,1.3333333,475.68667,70.364)" />
    <path
       id="path12"
       d="m 1.6395156,-2.9761406 h 3.5625 v -0.7382813 h -3.5625 V -5.8003594 H 5.3309219 V -6.5386406 H 0.80748438 V 4.21875e-4 H 5.4949844 V -0.73785937 H 1.6395156 Z m 6.9550782,0.5507812 1.5820312,-2.2734375 h -0.84375 l -1.125,1.6992188 -1.1367187,-1.6992188 h -0.84375 L 7.7977188,-2.3902031 6.1336563,4.21875e-4 H 6.989125 L 8.1727188,-1.8042656 9.3563125,4.21875e-4 H 10.2235 Z m 6.1933592,0.328125 c 0,-0.7148437 -0.04687,-1.1484375 -0.1875,-1.5 -0.304687,-0.7734375 -1.019531,-1.2304687 -1.898437,-1.2304687 -1.300782,0 -2.144532,0.9960937 -2.144532,2.5429687 0,1.54687503 0.808594,2.49609378 2.132813,2.49609378 1.066406,0 1.816406,-0.609375 2.003906,-1.64062498 h -0.75 c -0.210937,0.62109373 -0.632812,0.94921873 -1.230469,0.94921873 -0.480468,0 -0.878906,-0.22265625 -1.125,-0.60937503 -0.1875,-0.2695312 -0.246093,-0.5390625 -0.257812,-1.0078125 z m -3.433594,-0.609375 c 0.05859,-0.8671875 0.585938,-1.4296875 1.335938,-1.4296875 0.738281,0 1.300781,0.609375 1.300781,1.3710938 0,0.023437 0,0.035156 0,0.058594 z m 8.044922,-0.4101562 c -0.03516,-0.4570313 -0.128906,-0.75 -0.304687,-1.0195313 -0.328125,-0.4335937 -0.890625,-0.6914062 -1.546875,-0.6914062 -1.265625,0 -2.085938,0.9960937 -2.085938,2.5546875 0,1.52343748 0.808594,2.48437498 2.074219,2.48437498 1.125,0 1.828125,-0.6796875 1.921875,-1.82812498 h -0.75 c -0.128906,0.76171873 -0.515625,1.13671873 -1.148437,1.13671873 -0.832032,0 -1.324219,-0.67968753 -1.324219,-1.79296873 0,-1.171875 0.492187,-1.8632813 1.300781,-1.8632813 0.632813,0 1.019531,0.3632813 1.113281,1.0195313 z M 23.987172,4.21875e-4 V -4.6987969 h -0.75 v 2.6601563 c 0,0.9609375 -0.503906,1.59374998 -1.277344,1.59374998 -0.597656,0 -0.972656,-0.36328125 -0.972656,-0.92578128 v -3.328125 h -0.738281 v 3.6210938 c 0,0.78515623 0.574218,1.28906248 1.488281,1.28906248 0.691406,0 1.136719,-0.24609375 1.570312,-0.8671875 V 4.21875e-4 Z M 26.922719,-4.6987969 H 26.161 v -1.2890625 h -0.75 v 1.2890625 h -0.632812 v 0.609375 H 25.411 v 3.55078128 c 0,0.48046875 0.328125,0.75 0.902344,0.75 0.1875,0 0.363281,-0.0234375 0.609375,-0.0703125 v -0.62109375 c -0.09375,0.0234375 -0.210938,0.0351563 -0.351563,0.0351563 -0.328125,0 -0.410156,-0.09375 -0.410156,-0.421875 V -4.0894219 h 0.761719 z m 4.813476,2.6015625 c 0,-0.7148437 -0.04687,-1.1484375 -0.1875,-1.5 -0.304687,-0.7734375 -1.019531,-1.2304687 -1.898437,-1.2304687 -1.300781,0 -2.144531,0.9960937 -2.144531,2.5429687 0,1.54687503 0.808593,2.49609378 2.132812,2.49609378 1.066406,0 1.816406,-0.609375 2.003906,-1.64062498 h -0.75 c -0.210937,0.62109373 -0.632812,0.94921873 -1.230468,0.94921873 -0.480469,0 -0.878907,-0.22265625 -1.125,-0.60937503 -0.1875,-0.2695312 -0.246094,-0.5390625 -0.257813,-1.0078125 z m -3.433593,-0.609375 c 0.05859,-0.8671875 0.585937,-1.4296875 1.335937,-1.4296875 0.738281,0 1.300781,0.609375 1.300781,1.3710938 0,0.023437 0,0.035156 0,0.058594 z m 8.264648,-3.8320312 h -0.75 v 2.4375 c -0.316406,-0.4804688 -0.808594,-0.7265625 -1.441406,-0.7265625 -1.21875,0 -2.015625,0.9726562 -2.015625,2.4726562 0,1.58203128 0.773437,2.56640628 2.039062,2.56640628 0.644532,0 1.101563,-0.24609375 1.5,-0.83203125 V 4.21875e-4 h 0.667969 z m -2.0625,2.4023437 c 0.808594,0 1.3125,0.7265625 1.3125,1.8398438 0,1.0898437 -0.515625,1.80468748 -1.3125,1.80468748 -0.820312,0 -1.371094,-0.72656248 -1.371094,-1.81640628 0,-1.1015625 0.550782,-1.828125 1.371094,-1.828125 z m 0,0"
       style="fill:#000000;fill-opacity:1;fill-rule:nonzero;stroke:none"
       aria-label="Executed"
       transform="matrix(1.3333333,0,0,1.3333333,482.11867,84.976)" />
    <path
       id="path13"
       d="m 416.53195,-14.17339 h 39.68552 V 14.1734 h -39.68552 z"
       style="fill:#eeebd2;fill-opacity:1;fill-rule:nonzero;stroke:#ada60a;stroke-width:0.74721;stroke-linecap:butt;stroke-linejoin:miter;stroke-miterlimit:10;stroke-dasharray:none;stroke-opacity:1"
       transform="matrix(1.3333333,0,0,-1.3333333,26.954667,73.342667)" />
    <path
       id="path14"
       d="m 1.6419531,-2.9751953 h 3.5625 v -0.7382813 h -3.5625 V -5.7994141 H 5.3333594 V -6.5376953 H 0.80992188 V 0.00136719 H 5.4974219 V -0.73691406 H 1.6419531 Z m 4.9716797,-1.7226563 v 4.69921879 h 0.75 V -2.5884766 c 0,-0.9609375 0.5039063,-1.5820312 1.265625,-1.5820312 0.5976563,0 0.9726563,0.3515625 0.9726563,0.9140625 V 0.00136719 H 10.351914 V -3.5494141 c 0,-0.7734375 -0.5859374,-1.2773437 -1.4882812,-1.2773437 -0.703125,0 -1.1484375,0.2695312 -1.5703125,0.9140625 v -0.7851563 z m 8.7949222,-1.8398437 h -0.75 v 2.4375 c -0.316407,-0.4804688 -0.808594,-0.7265625 -1.441407,-0.7265625 -1.21875,0 -2.015625,0.9726562 -2.015625,2.4726562 0,1.58203129 0.773438,2.56640629 2.039063,2.56640629 0.644531,0 1.101562,-0.24609375 1.5,-0.83203125 v 0.62109375 h 0.667969 z m -2.0625,2.4023437 c 0.808593,0 1.3125,0.7265625 1.3125,1.8398438 0,1.0898437 -0.515625,1.80468749 -1.3125,1.80468749 -0.820313,0 -1.371094,-0.72656249 -1.371094,-1.81640629 0,-1.1015625 0.550781,-1.828125 1.371094,-1.828125 z m 0,0"
       style="fill:#000000;fill-opacity:1;fill-rule:nonzero;stroke:none"
       aria-label="End"
       transform="matrix(1.3333333,0,0,1.3333333,598.14667,77.533333)" />
    <path
       id="path15"
       d="M 20.21635,0 H 43.36258"
       style="fill:none;stroke:#808080;stroke-width:0.99628;stroke-linecap:butt;stroke-linejoin:miter;stroke-miterlimit:10;stroke-dasharray:none;stroke-opacity:1"
       transform="matrix(1.3333333,0,0,-1.3333333,26.954667,73.342667)" />
    <path
       id="path16"
       d="M 5.20058,0 C 3.65962,0.28891 1.15567,1.15567 -0.57784,2.1669 V -2.1669 C 1.15567,-1.15567 3.65962,-0.28891 5.20058,0"
       style="fill:#808080;fill-opacity:1;fill-rule:nonzero;stroke:none"
       transform="matrix(1.3333333,0,0,-1.3333333,84.77144,73.342667)" />
    <path
       id="path17"
       d="m 104.31973,0 h 23.14624"
       style="fill:none;stroke:#808080;stroke-width:0.99628;stroke-linecap:butt;stroke-linejoin:miter;stroke-miterlimit:10;stroke-dasharray:none;stroke-opacity:1"
       transform="matrix(1.3333333,0,0,-1.3333333,26.954667,73.342667)" />
    <path
       id="path18"
       d="M 5.20058,0 C 3.65962,0.28891 1.15567,1.15567 -0.57784,2.1669 V -2.1669 C 1.15567,-1.15567 3.65962,-0.28891 5.20058,0"
       style="fill:#808080;fill-opacity:1;fill-rule:nonzero;stroke:none"
       transform="matrix(1.3333333,0,0,-1.3333333,196.90929,73.342667)" />
    <path
       id="path19"
       d="M 188.42311,0 H 242.751"
       style="fill:none;stroke:#808080;stroke-width:0.99628;stroke-linecap:butt;stroke-linejoin:miter;stroke-miterlimit:10;stroke-dasharray:none;stroke-opacity:1"
       transform="matrix(1.3333333,0,0,-1.3333333,26.954667,73.342667)" />
    <path
       id="path20"
       d="M 5.20058,0 C 3.65962,0.28891 1.15567,1.15567 -0.57784,2.1669 V -2.1669 C 1.15567,-1.15567 3.65962,-0.28891 5.20058,0"
       style="fill:#808080;fill-opacity:1;fill-rule:nonzero;stroke:none"
       transform="matrix(1.3333333,0,0,-1.3333333,350.62267,73.342667)" />
    <path
       id="path21"
       d="m 303.70816,0 h 23.14623"
       style="fill:none;stroke:#808080;stroke-width:0.99628;stroke-linecap:butt;stroke-linejoin:miter;stroke-miterlimit:10;stroke-dasharray:none;stroke-opacity:1"
       transform="matrix(1.3333333,0,0,-1.3333333,26.954667,73.342667)" />
    <path
       id="path22"
       d="M 5.20058,0 C 3.65962,0.28891 1.15567,1.15567 -0.57784,2.1669 V -2.1669 C 1.15567,-1.15567 3.65962,-0.28891 5.20058,0"
       style="fill:#808080;fill-opacity:1;fill-rule:nonzero;stroke:none"
       transform="matrix(1.3333333,0,0,-1.3333333,462.76052,73.342667)" />
    <path
       id="path23"
       d="m 387.81154,0 h 23.14622"
       style="fill:none;stroke:#808080;stroke-width:0.99628;stroke-linecap:butt;stroke-linejoin:miter;stroke-miterlimit:10;stroke-dasharray:none;stroke-opacity:1"
       transform="matrix(1.3333333,0,0,-1.3333333,26.954667,73.342667)" />
    <path
       id="path24"
       d="M 5.20058,0 C 3.65962,0.28891 1.15567,1.15567 -0.57784,2.1669 V -2.1669 C 1.15567,-1.15567 3.65962,-0.28891 5.20058,0"
       style="fill:#808080;fill-opacity:1;fill-rule:nonzero;stroke:none"
       transform="matrix(1.3333333,0,0,-1.3333333,574.89835,73.342667)" />
    <path
       id="path25"
       d="M 34.38976,0 V 42.52022"
       style="fill:none;stroke:#000000;stroke-width:0.79701;stroke-linecap:butt;stroke-linejoin:miter;stroke-miterlimit:10;stroke-dasharray:none;stroke-opacity:1"
       transform="matrix(1.3333333,0,0,-1.3333333,26.954667,73.342667)" />
    <path
       id="path26"
       d="M 12.94612,30.03293 H 55.83339 V 55.00749 H 12.94612 Z"
       style="fill:#e6e6e6;fill-opacity:1;fill-rule:nonzero;stroke:none"
       transform="matrix(1.3333333,0,0,-1.3333333,26.954667,73.342667)" />
    <path
       id="path27"
       d="m 0.7156875,-3.203125e-4 h 2.2382812 c 1.4648438,0 2.3671875,-1.1015624875 2.3671875,-2.9062499875 0,-1.8046875 -0.9023437,-2.90625 -2.3671875,-2.90625 H 0.7156875 Z M 1.4539687,-0.65657031 V -5.1565703 h 1.3710938 c 1.1484375,0 1.7460937,0.7734375 1.7460937,2.25 0,1.4765625 -0.5976562,2.24999999 -1.7460937,2.24999999 z m 8.390625,-1.20703129 c 0,-0.6445312 -0.046875,-1.0195312 -0.1640625,-1.3359375 -0.28125,-0.6796875 -0.9140625,-1.1015625 -1.6992187,-1.1015625 -1.1601563,0 -1.9101563,0.9023438 -1.9101563,2.2734375 0,1.37109379 0.7265625,2.21484379 1.8984375,2.21484379 0.9609375,0 1.6171875,-0.55078125 1.78125,-1.45312499 H 9.082875 c -0.1757813,0.55078124 -0.5507813,0.83203124 -1.0898438,0.83203124 -0.421875,0 -0.7851562,-0.1875 -1.0078125,-0.5390625 C 6.832875,-1.2073516 6.7742812,-1.4534453 6.7625625,-1.8636016 Z M 6.786,-2.4026641 c 0.046875,-0.7734375 0.5273437,-1.2773437 1.1953125,-1.2773437 0.6445312,0 1.1484375,0.5390625 1.1484375,1.2304687 0,0.011719 0,0.023437 0,0.046875 z m 5.402344,-1.7695312 h -0.691407 v -0.65625 c 0,-0.28125 0.164063,-0.421875 0.46875,-0.421875 0.04687,0 0.07031,0 0.222657,0.011719 v -0.5507812 c -0.152344,-0.035156 -0.234375,-0.046875 -0.375,-0.046875 -0.609375,0 -0.972657,0.3515625 -0.972657,0.9492187 v 0.7148438 h -0.5625 v 0.5390625 h 0.5625 v 3.6328124875 h 0.65625 V -3.6331328 h 0.691407 z m 1.464843,0 h -0.65625 v 4.1718749875 h 0.65625 z m 0,-1.640625 h -0.65625 v 0.84375 h 0.65625 z m 1.081055,1.640625 v 4.1718749875 h 0.667969 V -2.3089141 c 0,-0.84375 0.445312,-1.40625 1.125,-1.40625 0.527344,0 0.867187,0.3164063 0.867187,0.8203125 v 2.8945312875 h 0.65625 V -3.1526641 c 0,-0.6914062 -0.515625,-1.1484375 -1.324218,-1.1484375 -0.621094,0 -1.019532,0.2460938 -1.382813,0.8320313 v -0.703125 z m 7.957031,2.3085937 c 0,-0.6445312 -0.04687,-1.0195312 -0.164062,-1.3359375 -0.28125,-0.6796875 -0.914063,-1.1015625 -1.699219,-1.1015625 -1.160156,0 -1.910156,0.9023438 -1.910156,2.2734375 0,1.37109379 0.726562,2.21484379 1.898437,2.21484379 0.960938,0 1.617188,-0.55078125 1.78125,-1.45312499 h -0.667968 c -0.175782,0.55078124 -0.550782,0.83203124 -1.089844,0.83203124 -0.421875,0 -0.785156,-0.1875 -1.007813,-0.5390625 C 19.679555,-1.2073516 19.620961,-1.4534453 19.609242,-1.8636016 Z M 19.63268,-2.4026641 c 0.04687,-0.7734375 0.527343,-1.2773437 1.195312,-1.2773437 0.644531,0 1.148438,0.5390625 1.148438,1.2304687 0,0.011719 0,0.023437 0,0.046875 z m 0,0"
       style="fill:#000000;fill-opacity:1;fill-rule:nonzero;stroke:none"
       aria-label="Defne"
       transform="matrix(1.3333333,0,0,1.3333333,57.452,13.129333)" />
    <path
       id="path28"
       d="m 3.1069063,-5.90575 c -1.6757813,0 -2.8007813,1.2304688 -2.8007813,3.046875 0,1.8164063 1.125,3.046875 2.8007813,3.046875 0.703125,0 1.3359375,-0.22265625 1.8046875,-0.62109375 C 5.5444063,-0.9604375 5.9194063,-1.8627812 5.9194063,-2.812 c 0,-1.875 -1.1132813,-3.09375 -2.8125,-3.09375 z m 0,0.65625 c 1.2539062,0 2.0625,0.9492188 2.0625,2.4257813 0,1.3945312 -0.8320313,2.3554687 -2.0625,2.3554687 -1.2304688,0 -2.0625,-0.9609375 -2.0625,-2.390625 0,-1.4414062 0.8320312,-2.390625 2.0625,-2.390625 z M 6.63425,1.734875 H 7.3022188 V -0.43309375 C 7.6537813,-0.01121875 8.0405,0.188 8.5795625,0.188 c 1.078125,0 1.7929685,-0.8671875 1.7929685,-2.203125 0,-1.40625 -0.691406,-2.2851562 -1.7929685,-2.2851562 -0.5742187,0 -1.0195312,0.2578125 -1.3359375,0.75 V -4.171375 H 6.63425 Z m 1.828125,-5.4023437 c 0.7382813,0 1.2070313,0.6445312 1.2070313,1.640625 0,0.9492187 -0.4804688,1.59374995 -1.2070313,1.59374995 -0.703125,0 -1.1601562,-0.64453125 -1.1601562,-1.61718745 0,-0.984375 0.4570312,-1.6171875 1.1601562,-1.6171875 z m 6.260742,1.8046875 c 0,-0.6445313 -0.04687,-1.0195313 -0.164062,-1.3359375 -0.28125,-0.6796875 -0.914063,-1.1015625 -1.699219,-1.1015625 -1.160156,0 -1.910156,0.9023437 -1.910156,2.2734375 0,1.3710937 0.726562,2.2148437 1.898437,2.2148437 0.960938,0 1.617188,-0.55078125 1.78125,-1.453125 h -0.667969 c -0.175781,0.55078125 -0.550781,0.83203125 -1.089843,0.83203125 -0.421875,0 -0.785157,-0.1875 -1.007813,-0.5390625 C 11.711398,-1.2065312 11.652805,-1.452625 11.641086,-1.8627812 Z m -3.058594,-0.5390625 c 0.04687,-0.7734375 0.527344,-1.2773438 1.195313,-1.2773438 0.644531,0 1.148437,0.5390625 1.148437,1.2304688 0,0.011719 0,0.023437 0,0.046875 z M 15.613742,-4.171375 V 5e-4 h 0.667969 v -2.1679687 c 0,-0.5976563 0.152344,-0.984375 0.46875,-1.21875 0.210937,-0.1523438 0.410156,-0.1992188 0.867187,-0.2109375 V -4.265125 c -0.105468,-0.023437 -0.164062,-0.035156 -0.246093,-0.035156 -0.433594,0 -0.761719,0.2578125 -1.148438,0.8789062 v -0.75 z m 6.290039,3.78515625 C 21.833469,-0.3745 21.798313,-0.3745 21.763156,-0.3745 c -0.234375,0 -0.363281,-0.1171875 -0.363281,-0.328125 v -2.4492187 c 0,-0.75 -0.539062,-1.1484375 -1.570312,-1.1484375 -0.609375,0 -1.113282,0.1757812 -1.382813,0.4921875 -0.199219,0.2109375 -0.269531,0.4570312 -0.292969,0.8671875 h 0.667969 c 0.05859,-0.5039063 0.363281,-0.7382813 0.984375,-0.7382813 0.597656,0 0.9375,0.2226563 0.9375,0.6210938 v 0.1757812 c 0,0.28125 -0.175781,0.3984375 -0.703125,0.4570313 -0.9375,0.1171875 -1.078125,0.1523437 -1.335937,0.2578125 C 18.224094,-1.96825 17.978,-1.59325 17.978,-1.0541875 c 0,0.76171875 0.515625,1.2421875 1.371094,1.2421875 0.515625,0 0.9375,-0.1875 1.417969,-0.62109375 0.04687,0.421875 0.246093,0.62109375 0.679687,0.62109375 0.140625,0 0.234375,-0.0234375 0.457031,-0.0703125 z M 20.743625,-1.312 c 0,0.2226563 -0.07031,0.3515625 -0.269531,0.5390625 -0.269531,0.24609375 -0.597656,0.375 -0.984375,0.375 -0.515625,0 -0.820313,-0.24609375 -0.820313,-0.6679687 0,-0.4453125 0.292969,-0.6679688 0.996094,-0.7617188 0.703125,-0.1054687 0.84375,-0.1289062 1.078125,-0.234375 z m 3.351563,-2.859375 h -0.691407 v -1.1484375 h -0.65625 v 1.1484375 h -0.5625 v 0.5390625 h 0.5625 v 3.15234375 c 0,0.421875 0.28125,0.66796875 0.796875,0.66796875 0.164063,0 0.328125,-0.0234375 0.550782,-0.0585938 v -0.5625 c -0.09375,0.0234375 -0.199219,0.0351563 -0.316407,0.0351563 -0.292968,0 -0.375,-0.0820313 -0.375,-0.375 v -2.859375 h 0.691407 z m 1.385742,0 H 24.82468 V 5e-4 h 0.65625 z m 0,-1.640625 h -0.667969 v 0.84375 h 0.667969 z m 2.742187,1.5117188 c -1.171875,0 -1.886719,0.84375 -1.886719,2.25 0,1.3945312 0.703125,2.2382812 1.898438,2.2382812 1.171875,0 1.886719,-0.84375 1.886719,-2.2148437 0,-1.4414063 -0.691407,-2.2734375 -1.898438,-2.2734375 z m 0.01172,0.6210937 c 0.75,0 1.195312,0.609375 1.195312,1.6523438 0,0.9726562 -0.46875,1.59374995 -1.195312,1.59374995 -0.75,0 -1.195313,-0.60937495 -1.195313,-1.61718745 0,-1.0078125 0.445313,-1.6289063 1.195313,-1.6289063 z m 2.8125,-0.4921875 V 5e-4 h 0.667969 v -2.3085937 c 0,-0.84375 0.445312,-1.40625 1.125,-1.40625 0.527343,0 0.867187,0.3164062 0.867187,0.8203125 V 5e-4 h 0.65625 v -3.1523437 c 0,-0.6914063 -0.515625,-1.1484375 -1.324219,-1.1484375 -0.621093,0 -1.019531,0.2460937 -1.382812,0.8320312 v -0.703125 z m 0,0"
       style="fill:#000000;fill-opacity:1;fill-rule:nonzero;stroke:none"
       aria-label="Operation"
       transform="matrix(1.3333333,0,0,1.3333333,49.529333,25.749333)" />
    <path
       id="path29"
       d="M 118.49313,0 V 42.52022"
       style="fill:none;stroke:#000000;stroke-width:0.79701;stroke-linecap:butt;stroke-linejoin:miter;stroke-miterlimit:10;stroke-dasharray:none;stroke-opacity:1"
       transform="matrix(1.3333333,0,0,-1.3333333,26.954667,73.342667)" />
    <path
       id="path30"
       d="m 97.0495,30.1246 h 42.88727 V 54.91583 H 97.0495 Z"
       style="fill:#e6e6e6;fill-opacity:1;fill-rule:nonzero;stroke:none"
       transform="matrix(1.3333333,0,0,-1.3333333,26.954667,73.342667)" />
    <path
       id="path31"
       d="M 1.4538125,-2.6475781 H 4.617875 v -0.65625 H 1.4538125 v -1.8515625 h 3.2929688 v -0.65625 H 0.71553125 V 8.59375e-4 H 4.8874063 V -0.65539062 H 1.4538125 Z m 6.1933594,0.4921875 1.3945312,-2.015625 h -0.75 L 7.2956094,-2.6592969 6.2877969,-4.1710156 H 5.5260781 L 6.9206094,-2.1319531 5.4557656,8.59375e-4 h 0.75 L 7.2721719,-1.6046094 8.3151406,8.59375e-4 h 0.7734375 z m 5.5048831,0.2929687 c 0,-0.6445312 -0.04687,-1.0195312 -0.164063,-1.3359375 -0.28125,-0.6796875 -0.914062,-1.1015625 -1.699219,-1.1015625 -1.160156,0 -1.9101558,0.9023438 -1.9101558,2.2734375 0,1.37109378 0.7265628,2.21484378 1.8984378,2.21484378 0.960937,0 1.617187,-0.55078125 1.78125,-1.45312498 h -0.667969 c -0.175781,0.55078123 -0.550781,0.83203123 -1.089844,0.83203123 -0.421875,0 -0.785156,-0.1875 -1.007812,-0.5390625 C 10.140336,-1.2061719 10.081742,-1.4522656 10.070023,-1.8624219 Z m -3.058594,-0.5390625 c 0.04687,-0.7734375 0.527344,-1.2773437 1.195312,-1.2773437 0.644532,0 1.148438,0.5390625 1.148438,1.2304687 0,0.011719 0,0.023437 0,0.046875 z m 7.151367,-0.375 c -0.02344,-0.3984375 -0.117187,-0.6679687 -0.28125,-0.890625 -0.28125,-0.3984375 -0.785156,-0.6328125 -1.359375,-0.6328125 -1.125,0 -1.863281,0.9023438 -1.863281,2.2851563 0,1.34765623 0.714844,2.20312498 1.851562,2.20312498 0.996094,0 1.628907,-0.59765625 1.699219,-1.61718748 h -0.667969 c -0.105468,0.66796873 -0.457031,0.99609373 -1.019531,0.99609373 -0.726562,0 -1.171875,-0.59765623 -1.171875,-1.58203123 0,-1.0429688 0.433594,-1.6640625 1.160156,-1.6640625 0.550782,0 0.902344,0.328125 0.984375,0.9023437 z M 21.322953,8.59375e-4 V -4.1710156 h -0.667969 v 2.3671875 c 0,0.84374998 -0.445312,1.40624998 -1.136718,1.40624998 -0.527344,0 -0.855469,-0.31640625 -0.855469,-0.82031248 v -2.953125 h -0.667969 v 3.21093748 c 0,0.703125 0.515625,1.1484375 1.335938,1.1484375 0.609375,0 0.996093,-0.22265625 1.394531,-0.7734375 V 8.59375e-4 Z M 23.936234,-4.1710156 h -0.691406 v -1.1484375 h -0.65625 v 1.1484375 h -0.5625 v 0.5390625 h 0.5625 v 3.15234373 c 0,0.421875 0.28125,0.66796875 0.796875,0.66796875 0.164063,0 0.328125,-0.0234375 0.550781,-0.0585938 v -0.5625 c -0.09375,0.0234375 -0.199218,0.0351563 -0.316406,0.0351563 -0.292969,0 -0.375,-0.0820313 -0.375,-0.375 V -3.6319531 h 0.691406 z m 4.280274,2.3085937 c 0,-0.6445312 -0.04687,-1.0195312 -0.164063,-1.3359375 -0.28125,-0.6796875 -0.914062,-1.1015625 -1.699218,-1.1015625 -1.160157,0 -1.910157,0.9023438 -1.910157,2.2734375 0,1.37109378 0.726563,2.21484378 1.898438,2.21484378 0.960937,0 1.617187,-0.55078125 1.78125,-1.45312498 h -0.667969 c -0.175781,0.55078123 -0.550781,0.83203123 -1.089844,0.83203123 -0.421875,0 -0.785156,-0.1875 -1.007812,-0.5390625 C 25.204789,-1.2061719 25.146195,-1.4522656 25.134477,-1.8624219 Z m -3.058594,-0.5390625 c 0.04687,-0.7734375 0.527344,-1.2773437 1.195313,-1.2773437 0.644531,0 1.148437,0.5390625 1.148437,1.2304687 0,0.011719 0,0.023437 0,0.046875 z m 0,0"
       style="fill:#000000;fill-opacity:1;fill-rule:nonzero;stroke:none"
       aria-label="Execute"
       transform="matrix(1.3333333,0,0,1.3333333,165.90533,13.006667)" />
    <path
       id="path32"
       d="m 3.1045156,-5.9075 c -1.6757812,0 -2.80078122,1.2304688 -2.80078122,3.046875 0,1.8164063 1.12500002,3.046875 2.80078122,3.046875 0.703125,0 1.3359375,-0.22265625 1.8046875,-0.62109375 C 5.5420156,-0.9621875 5.9170156,-1.8645312 5.9170156,-2.81375 c 0,-1.875 -1.1132812,-3.09375 -2.8125,-3.09375 z m 0,0.65625 c 1.2539063,0 2.0625,0.9492188 2.0625,2.4257813 0,1.3945312 -0.8320312,2.3554687 -2.0625,2.3554687 -1.2304687,0 -2.0625,-0.9609375 -2.0625,-2.390625 0,-1.4414062 0.8320313,-2.390625 2.0625,-2.390625 z M 6.6347891,1.733125 H 7.3027578 V -0.43484375 C 7.6543203,-0.01296875 8.0410391,0.18625 8.5801016,0.18625 c 1.078125,0 1.7929684,-0.8671875 1.7929684,-2.203125 0,-1.40625 -0.6914059,-2.2851562 -1.7929684,-2.2851562 -0.5742188,0 -1.0195313,0.2578125 -1.3359375,0.75 V -4.173125 h -0.609375 z m 1.828125,-5.4023437 c 0.7382812,0 1.2070312,0.6445312 1.2070312,1.640625 0,0.9492187 -0.4804687,1.59374995 -1.2070312,1.59374995 -0.703125,0 -1.1601563,-0.64453125 -1.1601563,-1.61718745 0,-0.984375 0.4570313,-1.6171875 1.1601563,-1.6171875 z m 6.2578129,1.8046875 c 0,-0.6445313 -0.04687,-1.0195313 -0.164063,-1.3359375 -0.28125,-0.6796875 -0.914062,-1.1015625 -1.699219,-1.1015625 -1.160156,0 -1.910156,0.9023437 -1.910156,2.2734375 0,1.3710937 0.726563,2.2148437 1.898438,2.2148437 0.960937,0 1.617187,-0.55078125 1.78125,-1.453125 h -0.667969 c -0.175781,0.55078125 -0.550781,0.83203125 -1.089844,0.83203125 -0.421875,0 -0.785156,-0.1875 -1.007812,-0.5390625 C 11.709008,-1.2082812 11.650414,-1.454375 11.638695,-1.8645312 Z m -3.058594,-0.5390625 c 0.04687,-0.7734375 0.527344,-1.2773438 1.195312,-1.2773438 0.644532,0 1.148438,0.5390625 1.148438,1.2304688 0,0.011719 0,0.023437 0,0.046875 z m 3.952148,-1.7695313 v 4.171875 h 0.667969 v -2.1679687 c 0,-0.5976563 0.152344,-0.984375 0.46875,-1.21875 0.210938,-0.1523438 0.410156,-0.1992188 0.867188,-0.2109375 V -4.266875 c -0.105469,-0.023437 -0.164063,-0.035156 -0.246094,-0.035156 -0.433594,0 -0.761719,0.2578125 -1.148438,0.8789062 v -0.75 z m 6.290039,3.78515625 c -0.07031,0.0117188 -0.105468,0.0117188 -0.140625,0.0117188 -0.234375,0 -0.363281,-0.1171875 -0.363281,-0.328125 V -3.1535936 c 0,-0.75 -0.539062,-1.1484375 -1.570312,-1.1484375 -0.609375,0 -1.113282,0.1757812 -1.382813,0.4921875 -0.199219,0.2109375 -0.269531,0.4570312 -0.292969,0.8671875 h 0.667969 c 0.05859,-0.5039063 0.363281,-0.7382813 0.984375,-0.7382813 0.597656,0 0.9375,0.2226563 0.9375,0.6210938 v 0.1757812 c 0,0.28125 -0.175781,0.3984375 -0.703125,0.4570313 -0.9375,0.1171875 -1.078125,0.1523437 -1.335937,0.2578125 C 18.224633,-1.97 17.978539,-1.595 17.978539,-1.0559375 c 0,0.76171875 0.515625,1.2421875 1.371094,1.2421875 0.515625,0 0.9375,-0.1875 1.417969,-0.62109375 0.04687,0.421875 0.246093,0.62109375 0.679687,0.62109375 0.140625,0 0.234375,-0.0234375 0.457031,-0.0703125 z M 20.744164,-1.31375 c 0,0.2226563 -0.07031,0.3515625 -0.269531,0.5390625 -0.269531,0.24609375 -0.597656,0.375 -0.984375,0.375 -0.515625,0 -0.820313,-0.24609375 -0.820313,-0.6679687 0,-0.4453125 0.292969,-0.6679688 0.996094,-0.7617188 0.703125,-0.1054687 0.84375,-0.1289062 1.078125,-0.234375 z m 3.351563,-2.859375 H 23.40432 v -1.1484375 h -0.65625 v 1.1484375 h -0.5625 v 0.5390625 h 0.5625 v 3.15234375 c 0,0.421875 0.28125,0.66796875 0.796875,0.66796875 0.164063,0 0.328125,-0.0234375 0.550782,-0.0585938 v -0.5625 c -0.09375,0.0234375 -0.199219,0.0351563 -0.316407,0.0351563 -0.292968,0 -0.375,-0.0820313 -0.375,-0.375 v -2.859375 h 0.691407 z m 1.385742,0 h -0.65625 v 4.171875 h 0.65625 z m 0,-1.640625 H 24.8135 V -4.97 h 0.667969 z m 2.742187,1.5117188 c -1.171875,0 -1.886718,0.84375 -1.886718,2.25 0,1.3945312 0.703125,2.2382812 1.898437,2.2382812 1.171875,0 1.886719,-0.84375 1.886719,-2.2148437 0,-1.4414063 -0.691406,-2.2734375 -1.898438,-2.2734375 z m 0.01172,0.6210937 c 0.75,0 1.195313,0.609375 1.195313,1.6523438 0,0.9726562 -0.46875,1.59374995 -1.195313,1.59374995 -0.75,0 -1.195312,-0.60937495 -1.195312,-1.61718745 0,-1.0078125 0.445312,-1.6289063 1.195312,-1.6289063 z m 2.8125,-0.4921875 v 4.171875 h 0.667969 v -2.3085937 c 0,-0.84375 0.445312,-1.40625 1.125,-1.40625 0.527344,0 0.867187,0.3164062 0.867187,0.8203125 V -0.00125 h 0.65625 v -3.1523437 c 0,-0.6914063 -0.515625,-1.1484375 -1.324218,-1.1484375 -0.621094,0 -1.019532,0.2460937 -1.382813,0.8320312 v -0.703125 z m 0,0"
       style="fill:#000000;fill-opacity:1;fill-rule:nonzero;stroke:none"
       aria-label="Operation"
       transform="matrix(1.3333333,0,0,1.3333333,161.66533,25.626667)" />
    <path
       id="path33"
       d="M 218.18735,0 V 42.52022"
       style="fill:none;stroke:#000000;stroke-width:0.79701;stroke-linecap:butt;stroke-linejoin:miter;stroke-miterlimit:10;stroke-dasharray:none;stroke-opacity:1"
       transform="matrix(1.3333333,0,0,-1.3333333,26.954667,73.342667)" />
    <path
       id="path34"
       d="m 193.50377,30.03293 h 49.36714 v 24.97456 h -49.36714 z"
       style="fill:#e6e6e6;fill-opacity:1;fill-rule:nonzero;stroke:none"
       transform="matrix(1.3333333,0,0,-1.3333333,26.954667,73.342667)" />
    <path
       id="path35"
       d="M 0.71499219,-3.203125e-4 H 2.9532734 c 1.4648438,0 2.3671875,-1.1015624875 2.3671875,-2.9062499875 0,-1.8046875 -0.9023437,-2.90625 -2.3671875,-2.90625 H 0.71499219 Z M 1.4532734,-0.65657031 V -5.1565703 h 1.3710938 c 1.1484375,0 1.7460937,0.7734375 1.7460937,2.25 0,1.4765625 -0.5976562,2.24999999 -1.7460937,2.24999999 z m 8.390625,-1.20703129 c 0,-0.6445312 -0.046875,-1.0195312 -0.1640625,-1.3359375 -0.28125,-0.6796875 -0.9140625,-1.1015625 -1.6992187,-1.1015625 -1.1601563,0 -1.9101563,0.9023438 -1.9101563,2.2734375 0,1.37109379 0.7265625,2.21484379 1.8984375,2.21484379 0.9609375,0 1.6171875,-0.55078125 1.78125,-1.45312499 H 9.0821797 c -0.1757813,0.55078124 -0.5507813,0.83203124 -1.0898438,0.83203124 -0.421875,0 -0.7851562,-0.1875 -1.0078125,-0.5390625 C 6.8321797,-1.2073516 6.7735859,-1.4534453 6.7618672,-1.8636016 Z M 6.7853047,-2.4026641 c 0.046875,-0.7734375 0.5273437,-1.2773437 1.1953125,-1.2773437 0.6445312,0 1.1484375,0.5390625 1.1484375,1.2304687 0,0.011719 0,0.023437 0,0.046875 z m 5.4052733,-1.7695312 h -0.691406 v -0.65625 c 0,-0.28125 0.164062,-0.421875 0.46875,-0.421875 0.04687,0 0.07031,0 0.222656,0.011719 v -0.5507812 c -0.152344,-0.035156 -0.234375,-0.046875 -0.375,-0.046875 -0.609375,0 -0.972656,0.3515625 -0.972656,0.9492187 v 0.7148438 h -0.5625 v 0.5390625 h 0.5625 v 3.6328124875 h 0.65625 V -3.6331328 h 0.691406 z m 1.464844,0 h -0.65625 v 4.1718749875 h 0.65625 z m 0,-1.640625 h -0.65625 v 0.84375 h 0.65625 z m 1.078125,1.640625 v 4.1718749875 h 0.667969 V -2.3089141 c 0,-0.84375 0.445312,-1.40625 1.125,-1.40625 0.527343,0 0.867187,0.3164063 0.867187,0.8203125 v 2.8945312875 h 0.65625 V -3.1526641 c 0,-0.6914062 -0.515625,-1.1484375 -1.324219,-1.1484375 -0.621093,0 -1.019531,0.2460938 -1.382812,0.8320313 v -0.703125 z m 7.959961,2.3085937 c 0,-0.6445312 -0.04687,-1.0195312 -0.164063,-1.3359375 -0.28125,-0.6796875 -0.914062,-1.1015625 -1.699218,-1.1015625 -1.160157,0 -1.910157,0.9023438 -1.910157,2.2734375 0,1.37109379 0.726563,2.21484379 1.898438,2.21484379 0.960937,0 1.617187,-0.55078125 1.78125,-1.45312499 h -0.667969 c -0.175781,0.55078124 -0.550781,0.83203124 -1.089844,0.83203124 -0.421875,0 -0.785156,-0.1875 -1.007812,-0.5390625 C 19.681789,-1.2073516 19.623195,-1.4534453 19.611477,-1.8636016 Z m -3.058594,-0.5390625 c 0.04687,-0.7734375 0.527344,-1.2773437 1.195313,-1.2773437 0.644531,0 1.148437,0.5390625 1.148437,1.2304687 0,0.011719 0,0.023437 0,0.046875 z m 10.757813,-3.4101562 h -0.703125 v 4.7578125 L 26.654445,-5.8128203 H 25.85757 v 5.8124999875 h 0.703125 V -4.7112578 l 3,4.7109374875 h 0.832032 z m 4.702148,3.9492187 c 0,-0.6445312 -0.04687,-1.0195312 -0.164062,-1.3359375 -0.28125,-0.6796875 -0.914063,-1.1015625 -1.699219,-1.1015625 -1.160156,0 -1.910156,0.9023438 -1.910156,2.2734375 0,1.37109379 0.726562,2.21484379 1.898437,2.21484379 0.960938,0 1.617188,-0.55078125 1.78125,-1.45312499 h -0.667969 c -0.175781,0.55078124 -0.550781,0.83203124 -1.089843,0.83203124 -0.421875,0 -0.785157,-0.1875 -1.007813,-0.5390625 C 32.083156,-1.2073516 32.024563,-1.4534453 32.012844,-1.8636016 Z m -3.058594,-0.5390625 c 0.04687,-0.7734375 0.527344,-1.2773437 1.195313,-1.2773437 0.644531,0 1.148437,0.5390625 1.148437,1.2304687 0,0.011719 0,0.023437 0,0.046875 z m 5.493164,0.2460938 1.394532,-2.015625 h -0.75 l -0.996094,1.5117187 -1.007813,-1.5117187 h -0.761718 l 1.394531,2.0390625 -1.464844,2.1328124875 h 0.75 L 37.154445,-1.6057891 38.197414,-3.203125e-4 h 0.773438 z m 3.679688,-2.015625 h -0.691406 v -1.1484375 h -0.65625 v 1.1484375 h -0.5625 v 0.5390625 h 0.5625 v 3.15234374 c 0,0.421875 0.28125,0.66796875 0.796875,0.66796875 0.164062,0 0.328125,-0.0234375 0.550781,-0.0585938 v -0.5625 c -0.09375,0.0234375 -0.199219,0.0351563 -0.316406,0.0351563 -0.292969,0 -0.375,-0.0820313 -0.375,-0.375 V -3.6331328 h 0.691406 z m 0,0"
       style="fill:#000000;fill-opacity:1;fill-rule:nonzero;stroke:none"
       aria-label="DefneNext"
       transform="matrix(1.3333333,0,0,1.3333333,290.26933,13.129333)" />
    <path
       id="path36"
       d="m 3.1058516,-5.90575 c -1.6757813,0 -2.80078129,1.2304688 -2.80078129,3.046875 0,1.8164063 1.12499999,3.046875 2.80078129,3.046875 0.703125,0 1.3359375,-0.22265625 1.8046875,-0.62109375 C 5.5433516,-0.9604375 5.9183516,-1.8627812 5.9183516,-2.812 c 0,-1.875 -1.1132813,-3.09375 -2.8125,-3.09375 z m 0,0.65625 c 1.2539062,0 2.0625,0.9492188 2.0625,2.4257813 0,1.3945312 -0.8320313,2.3554687 -2.0625,2.3554687 -1.2304688,0 -2.0625,-0.9609375 -2.0625,-2.390625 0,-1.4414062 0.8320312,-2.390625 2.0625,-2.390625 z M 6.6331953,1.734875 H 7.3011641 V -0.43309375 C 7.6527266,-0.01121875 8.0394453,0.188 8.5785078,0.188 c 1.078125,0 1.7929692,-0.8671875 1.7929692,-2.203125 0,-1.40625 -0.6914067,-2.2851562 -1.7929692,-2.2851562 -0.5742187,0 -1.0195312,0.2578125 -1.3359375,0.75 V -4.171375 h -0.609375 z m 1.828125,-5.4023437 c 0.7382813,0 1.2070313,0.6445312 1.2070313,1.640625 0,0.9492187 -0.4804688,1.59374995 -1.2070313,1.59374995 -0.703125,0 -1.1601562,-0.64453125 -1.1601562,-1.61718745 0,-0.984375 0.4570312,-1.6171875 1.1601562,-1.6171875 z m 6.2607417,1.8046875 c 0,-0.6445313 -0.04687,-1.0195313 -0.164062,-1.3359375 -0.28125,-0.6796875 -0.914063,-1.1015625 -1.699219,-1.1015625 -1.160156,0 -1.910156,0.9023437 -1.910156,2.2734375 0,1.3710937 0.726562,2.2148437 1.898437,2.2148437 0.960938,0 1.617188,-0.55078125 1.78125,-1.453125 h -0.667968 c -0.175782,0.55078125 -0.550782,0.83203125 -1.089844,0.83203125 -0.421875,0 -0.785156,-0.1875 -1.007813,-0.5390625 C 11.710344,-1.2065312 11.65175,-1.452625 11.640031,-1.8627812 Z m -3.058593,-0.5390625 c 0.04687,-0.7734375 0.527343,-1.2773438 1.195312,-1.2773438 0.644531,0 1.148438,0.5390625 1.148438,1.2304688 0,0.011719 0,0.023437 0,0.046875 z M 15.615617,-4.171375 V 5e-4 h 0.667969 v -2.1679687 c 0,-0.5976563 0.152344,-0.984375 0.46875,-1.21875 0.210937,-0.1523438 0.410156,-0.1992188 0.867187,-0.2109375 V -4.265125 c -0.105468,-0.023437 -0.164062,-0.035156 -0.246093,-0.035156 -0.433594,0 -0.761719,0.2578125 -1.148438,0.8789062 v -0.75 z m 6.28711,3.78515625 C 21.832414,-0.3745 21.797258,-0.3745 21.762102,-0.3745 c -0.234375,0 -0.363282,-0.1171875 -0.363282,-0.328125 v -2.4492187 c 0,-0.75 -0.539062,-1.1484375 -1.570312,-1.1484375 -0.609375,0 -1.113281,0.1757812 -1.382813,0.4921875 -0.199218,0.2109375 -0.269531,0.4570312 -0.292968,0.8671875 h 0.667968 c 0.05859,-0.5039063 0.363282,-0.7382813 0.984375,-0.7382813 0.597657,0 0.9375,0.2226563 0.9375,0.6210938 v 0.1757812 c 0,0.28125 -0.175781,0.3984375 -0.703125,0.4570313 -0.9375,0.1171875 -1.078125,0.1523437 -1.335937,0.2578125 -0.480469,0.1992187 -0.726563,0.5742187 -0.726563,1.1132812 0,0.76171875 0.515625,1.2421875 1.371094,1.2421875 0.515625,0 0.9375,-0.1875 1.417969,-0.62109375 0.04687,0.421875 0.246094,0.62109375 0.679687,0.62109375 0.140625,0 0.234375,-0.0234375 0.457032,-0.0703125 z M 20.74257,-1.312 c 0,0.2226563 -0.07031,0.3515625 -0.269531,0.5390625 -0.269531,0.24609375 -0.597656,0.375 -0.984375,0.375 -0.515625,0 -0.820312,-0.24609375 -0.820312,-0.6679687 0,-0.4453125 0.292968,-0.6679688 0.996093,-0.7617188 0.703125,-0.1054687 0.84375,-0.1289062 1.078125,-0.234375 z m 3.354492,-2.859375 h -0.691406 v -1.1484375 h -0.65625 v 1.1484375 h -0.5625 v 0.5390625 h 0.5625 v 3.15234375 c 0,0.421875 0.28125,0.66796875 0.796875,0.66796875 0.164063,0 0.328125,-0.0234375 0.550781,-0.0585938 v -0.5625 c -0.09375,0.0234375 -0.199218,0.0351563 -0.316406,0.0351563 -0.292969,0 -0.375,-0.0820313 -0.375,-0.375 v -2.859375 h 0.691406 z m 1.382813,0 h -0.65625 V 5e-4 h 0.65625 z m 0,-1.640625 h -0.667969 v 0.84375 h 0.667969 z m 2.742187,1.5117188 c -1.171875,0 -1.886718,0.84375 -1.886718,2.25 0,1.3945312 0.703125,2.2382812 1.898437,2.2382812 1.171875,0 1.886719,-0.84375 1.886719,-2.2148437 0,-1.4414063 -0.691406,-2.2734375 -1.898438,-2.2734375 z m 0.01172,0.6210937 c 0.75,0 1.195313,0.609375 1.195313,1.6523438 0,0.9726562 -0.46875,1.59374995 -1.195313,1.59374995 -0.75,0 -1.195312,-0.60937495 -1.195312,-1.61718745 0,-1.0078125 0.445312,-1.6289063 1.195312,-1.6289063 z m 2.81543,-0.4921875 V 5e-4 h 0.667969 v -2.3085937 c 0,-0.84375 0.445312,-1.40625 1.125,-1.40625 0.527343,0 0.867187,0.3164062 0.867187,0.8203125 V 5e-4 h 0.65625 v -3.1523437 c 0,-0.6914063 -0.515625,-1.1484375 -1.324219,-1.1484375 -0.621093,0 -1.019531,0.2460937 -1.382812,0.8320312 v -0.703125 z m 0,0"
       style="fill:#000000;fill-opacity:1;fill-rule:nonzero;stroke:none"
       aria-label="Operation"
       transform="matrix(1.3333333,0,0,1.3333333,294.58933,25.749333)" />
    <path
       id="path37"
       d="M 317.88156,0 V 42.52022"
       style="fill:none;stroke:#000000;stroke-width:0.79701;stroke-linecap:butt;stroke-linejoin:miter;stroke-miterlimit:10;stroke-dasharray:none;stroke-opacity:1"
       transform="matrix(1.3333333,0,0,-1.3333333,26.954667,73.342667)" />
    <path
       id="path38"
       d="m 296.43791,30.1246 h 42.88727 v 24.79123 h -42.88727 z"
       style="fill:#e6e6e6;fill-opacity:1;fill-rule:nonzero;stroke:none"
       transform="matrix(1.3333333,0,0,-1.3333333,26.954667,73.342667)" />
    <path
       id="path39"
       d="m 1.4535547,-2.6475781 h 3.1640625 v -0.65625 H 1.4535547 v -1.8515625 h 3.2929687 v -0.65625 H 0.71527344 V 8.59375e-4 H 4.8871484 V -0.65539062 H 1.4535547 Z m 6.1933594,0.4921875 1.3945312,-2.015625 h -0.75 L 7.2953516,-2.6592969 6.2875391,-4.1710156 H 5.5258203 L 6.9203516,-2.1319531 5.4555078,8.59375e-4 h 0.75 L 7.2719141,-1.6046094 8.3148828,8.59375e-4 h 0.7734375 z m 5.5048829,0.2929687 c 0,-0.6445312 -0.04687,-1.0195312 -0.164063,-1.3359375 -0.28125,-0.6796875 -0.914062,-1.1015625 -1.699218,-1.1015625 -1.160157,0 -1.9101566,0.9023438 -1.9101566,2.2734375 0,1.37109378 0.7265626,2.21484378 1.8984376,2.21484378 0.960937,0 1.617187,-0.55078125 1.78125,-1.45312498 h -0.667969 c -0.175781,0.55078123 -0.550781,0.83203123 -1.089844,0.83203123 -0.421875,0 -0.785156,-0.1875 -1.007812,-0.5390625 C 10.140078,-1.2061719 10.081484,-1.4522656 10.069766,-1.8624219 Z m -3.058594,-0.5390625 c 0.04687,-0.7734375 0.527344,-1.2773437 1.195313,-1.2773437 0.644531,0 1.148437,0.5390625 1.148437,1.2304687 0,0.011719 0,0.023437 0,0.046875 z m 7.151367,-0.375 c -0.02344,-0.3984375 -0.117187,-0.6679687 -0.28125,-0.890625 -0.28125,-0.3984375 -0.785156,-0.6328125 -1.359375,-0.6328125 -1.125,0 -1.863281,0.9023438 -1.863281,2.2851563 0,1.34765623 0.714844,2.20312498 1.851563,2.20312498 0.996093,0 1.628906,-0.59765625 1.699218,-1.61718748 h -0.667968 c -0.105469,0.66796873 -0.457032,0.99609373 -1.019532,0.99609373 -0.726562,0 -1.171875,-0.59765623 -1.171875,-1.58203123 0,-1.0429688 0.433594,-1.6640625 1.160157,-1.6640625 0.550781,0 0.902343,0.328125 0.984375,0.9023437 z M 21.322695,8.59375e-4 V -4.1710156 h -0.667968 v 2.3671875 c 0,0.84374998 -0.445313,1.40624998 -1.136719,1.40624998 -0.527344,0 -0.855469,-0.31640625 -0.855469,-0.82031248 v -2.953125 H 17.99457 v 3.21093748 c 0,0.703125 0.515625,1.1484375 1.335938,1.1484375 0.609375,0 0.996094,-0.22265625 1.394531,-0.7734375 V 8.59375e-4 Z M 23.935977,-4.1710156 H 23.24457 v -1.1484375 h -0.65625 v 1.1484375 h -0.5625 v 0.5390625 h 0.5625 v 3.15234373 c 0,0.421875 0.28125,0.66796875 0.796875,0.66796875 0.164063,0 0.328125,-0.0234375 0.550782,-0.0585938 v -0.5625 c -0.09375,0.0234375 -0.199219,0.0351563 -0.316407,0.0351563 -0.292968,0 -0.375,-0.0820313 -0.375,-0.375 V -3.6319531 h 0.691407 z m 4.280273,2.3085937 c 0,-0.6445312 -0.04687,-1.0195312 -0.164062,-1.3359375 -0.28125,-0.6796875 -0.914063,-1.1015625 -1.699219,-1.1015625 -1.160156,0 -1.910156,0.9023438 -1.910156,2.2734375 0,1.37109378 0.726562,2.21484378 1.898437,2.21484378 0.960938,0 1.617188,-0.55078125 1.78125,-1.45312498 h -0.667969 c -0.175781,0.55078123 -0.550781,0.83203123 -1.089843,0.83203123 -0.421875,0 -0.785157,-0.1875 -1.007813,-0.5390625 C 25.204531,-1.2061719 25.145938,-1.4522656 25.134219,-1.8624219 Z m -3.058594,-0.5390625 c 0.04687,-0.7734375 0.527344,-1.2773437 1.195313,-1.2773437 0.644531,0 1.148437,0.5390625 1.148437,1.2304687 0,0.011719 0,0.023437 0,0.046875 z m 0,0"
       style="fill:#000000;fill-opacity:1;fill-rule:nonzero;stroke:none"
       aria-label="Execute"
       transform="matrix(1.3333333,0,0,1.3333333,431.75333,13.006667)" />
    <path
       id="path40"
       d="m 3.1042578,-5.9075 c -1.6757812,0 -2.80078124,1.2304688 -2.80078124,3.046875 0,1.8164063 1.12500004,3.046875 2.80078124,3.046875 0.703125,0 1.3359375,-0.22265625 1.8046875,-0.62109375 C 5.5417578,-0.9621875 5.9167578,-1.8645312 5.9167578,-2.81375 c 0,-1.875 -1.1132812,-3.09375 -2.8125,-3.09375 z m 0,0.65625 c 1.2539063,0 2.0625,0.9492188 2.0625,2.4257813 0,1.3945312 -0.8320312,2.3554687 -2.0625,2.3554687 -1.2304687,0 -2.0625,-0.9609375 -2.0625,-2.390625 0,-1.4414062 0.8320313,-2.390625 2.0625,-2.390625 z M 6.6345313,1.733125 H 7.3025 V -0.43484375 C 7.6540625,-0.01296875 8.0407813,0.18625 8.5798438,0.18625 c 1.078125,0 1.7929692,-0.8671875 1.7929692,-2.203125 0,-1.40625 -0.6914067,-2.2851562 -1.7929692,-2.2851562 -0.5742188,0 -1.0195313,0.2578125 -1.3359375,0.75 V -4.173125 h -0.609375 z m 1.828125,-5.4023437 c 0.7382812,0 1.2070312,0.6445312 1.2070312,1.640625 0,0.9492187 -0.4804687,1.59374995 -1.2070312,1.59374995 -0.703125,0 -1.1601563,-0.64453125 -1.1601563,-1.61718745 0,-0.984375 0.4570313,-1.6171875 1.1601563,-1.6171875 z m 6.2607417,1.8046875 c 0,-0.6445313 -0.04687,-1.0195313 -0.164062,-1.3359375 -0.28125,-0.6796875 -0.914063,-1.1015625 -1.699219,-1.1015625 -1.160156,0 -1.910156,0.9023437 -1.910156,2.2734375 0,1.3710937 0.726562,2.2148437 1.898437,2.2148437 0.960938,0 1.617188,-0.55078125 1.78125,-1.453125 H 13.96168 c -0.175782,0.55078125 -0.550782,0.83203125 -1.089844,0.83203125 -0.421875,0 -0.785156,-0.1875 -1.007813,-0.5390625 C 11.71168,-1.2082812 11.653086,-1.454375 11.641367,-1.8645312 Z m -3.058593,-0.5390625 c 0.04687,-0.7734375 0.527343,-1.2773438 1.195312,-1.2773438 0.644531,0 1.148438,0.5390625 1.148438,1.2304688 0,0.011719 0,0.023437 0,0.046875 z m 3.949218,-1.7695313 v 4.171875 h 0.667969 v -2.1679687 c 0,-0.5976563 0.152344,-0.984375 0.46875,-1.21875 0.210938,-0.1523438 0.410156,-0.1992188 0.867188,-0.2109375 V -4.266875 c -0.105469,-0.023437 -0.164063,-0.035156 -0.246094,-0.035156 -0.433594,0 -0.761719,0.2578125 -1.148438,0.8789062 v -0.75 z m 6.29004,3.78515625 C 21.83375,-0.37625 21.798594,-0.37625 21.763438,-0.37625 c -0.234375,0 -0.363282,-0.1171875 -0.363282,-0.328125 v -2.4492187 c 0,-0.75 -0.539062,-1.1484375 -1.570312,-1.1484375 -0.609375,0 -1.113281,0.1757812 -1.382813,0.4921875 -0.199218,0.2109375 -0.269531,0.4570312 -0.292968,0.8671875 h 0.667968 c 0.05859,-0.5039063 0.363282,-0.7382813 0.984375,-0.7382813 0.597657,0 0.9375,0.2226563 0.9375,0.6210938 v 0.1757812 c 0,0.28125 -0.175781,0.3984375 -0.703125,0.4570313 -0.9375,0.1171875 -1.078125,0.1523437 -1.335937,0.2578125 C 18.224375,-1.97 17.978281,-1.595 17.978281,-1.0559375 c 0,0.76171875 0.515625,1.2421875 1.371094,1.2421875 0.515625,0 0.9375,-0.1875 1.417969,-0.62109375 0.04687,0.421875 0.246094,0.62109375 0.679687,0.62109375 0.140625,0 0.234375,-0.0234375 0.457032,-0.0703125 z M 20.743906,-1.31375 c 0,0.2226563 -0.07031,0.3515625 -0.269531,0.5390625 -0.269531,0.24609375 -0.597656,0.375 -0.984375,0.375 -0.515625,0 -0.820312,-0.24609375 -0.820312,-0.6679687 0,-0.4453125 0.292968,-0.6679688 0.996093,-0.7617188 0.703125,-0.1054687 0.84375,-0.1289062 1.078125,-0.234375 z m 3.351563,-2.859375 h -0.691406 v -1.1484375 h -0.65625 v 1.1484375 h -0.5625 v 0.5390625 h 0.5625 v 3.15234375 c 0,0.421875 0.28125,0.66796875 0.796875,0.66796875 0.164062,0 0.328125,-0.0234375 0.550781,-0.0585938 v -0.5625 c -0.09375,0.0234375 -0.199219,0.0351563 -0.316406,0.0351563 -0.292969,0 -0.375,-0.0820313 -0.375,-0.375 v -2.859375 h 0.691406 z m 1.385742,0 h -0.65625 v 4.171875 h 0.65625 z m 0,-1.640625 H 24.813242 V -4.97 h 0.667969 z m 2.742187,1.5117188 c -1.171875,0 -1.886718,0.84375 -1.886718,2.25 0,1.3945312 0.703125,2.2382812 1.898437,2.2382812 1.171875,0 1.886719,-0.84375 1.886719,-2.2148437 0,-1.4414063 -0.691406,-2.2734375 -1.898438,-2.2734375 z m 0.01172,0.6210937 c 0.75,0 1.195313,0.609375 1.195313,1.6523438 0,0.9726562 -0.46875,1.59374995 -1.195313,1.59374995 -0.75,0 -1.195312,-0.60937495 -1.195312,-1.61718745 0,-1.0078125 0.445312,-1.6289063 1.195312,-1.6289063 z m 2.8125,-0.4921875 v 4.171875 h 0.667969 v -2.3085937 c 0,-0.84375 0.445312,-1.40625 1.125,-1.40625 0.527344,0 0.867187,0.3164062 0.867187,0.8203125 V -0.00125 h 0.65625 v -3.1523437 c 0,-0.6914063 -0.515625,-1.1484375 -1.324218,-1.1484375 -0.621094,0 -1.019532,0.2460937 -1.382813,0.8320312 v -0.703125 z m 0,0"
       style="fill:#000000;fill-opacity:1;fill-rule:nonzero;stroke:none"
       aria-label="Operation"
       transform="matrix(1.3333333,0,0,1.3333333,427.51333,25.626667)" />
    <path
       id="path41"
       d="M 401.98494,0 V 42.52022"
       style="fill:none;stroke:#000000;stroke-width:0.79701;stroke-linecap:butt;stroke-linejoin:miter;stroke-miterlimit:10;stroke-dasharray:none;stroke-opacity:1"
       transform="matrix(1.3333333,0,0,-1.3333333,26.954667,73.342667)" />
    <path
       id="path42"
       d="m 379.39758,30.88176 h 45.17471 v 23.2769 h -45.17471 z"
       style="fill:#e6e6e6;fill-opacity:1;fill-rule:nonzero;stroke:none"
       transform="matrix(1.3333333,0,0,-1.3333333,26.954667,73.342667)" />
    <path
       id="path43"
       d="m 1.4762188,-2.5090937 h 1.921875 c 0.65625,0 0.9492187,0.328125 0.9492187,1.0429687 V -0.9505 c 0,0.36328125 0.058594,0.71484375 0.1640625,0.94921875 h 0.9023438 v -0.1875 c -0.28125,-0.1875 -0.3398438,-0.3984375 -0.3515625,-1.17187495 -0.011719,-0.9492188 -0.1640625,-1.2421875 -0.796875,-1.5117188 0.65625,-0.3164062 0.9257812,-0.7265625 0.9257812,-1.3828125 0,-1.0078125 -0.6328125,-1.5585937 -1.7695312,-1.5585937 H 0.7379375 v 5.81249995 h 0.7382813 z m 0,-0.6445313 v -2.0039062 h 1.7929687 c 0.421875,0 0.65625,0.058594 0.84375,0.2226562 0.1992188,0.1640625 0.3046875,0.4335938 0.3046875,0.7851563 0,0.6796875 -0.3515625,0.9960937 -1.1484375,0.9960937 z m 8.3671875,1.2890625 c 0,-0.6445312 -0.046875,-1.0195312 -0.1640625,-1.3359375 -0.28125,-0.6796875 -0.9140625,-1.1015625 -1.6992188,-1.1015625 -1.1601562,0 -1.9101562,0.9023438 -1.9101562,2.2734375 0,1.37109375 0.7265625,2.21484375 1.8984375,2.21484375 0.9609375,0 1.6171875,-0.55078125 1.78125,-1.45312495 H 9.0816875 C 8.9059063,-0.716125 8.5309063,-0.434875 7.9918438,-0.434875 c -0.421875,0 -0.7851563,-0.1875 -1.0078125,-0.5390625 C 6.8316875,-1.2083125 6.7730938,-1.4544062 6.761375,-1.8645625 Z M 6.7848125,-2.403625 c 0.046875,-0.7734375 0.5273438,-1.2773437 1.1953125,-1.2773437 0.6445313,0 1.1484375,0.5390625 1.1484375,1.2304687 0,0.011719 0,0.023437 0,0.046875 z m 3.8349605,4.1367188 h 0.667969 V -0.434875 c 0.351563,0.421875 0.738281,0.62109375 1.277344,0.62109375 1.078125,0 1.792969,-0.8671875 1.792969,-2.20312495 0,-1.40625 -0.691407,-2.2851563 -1.792969,-2.2851563 -0.574219,0 -1.019531,0.2578125 -1.335938,0.75 V -4.1731562 H 10.619773 Z M 12.447898,-3.66925 c 0.738282,0 1.207032,0.6445313 1.207032,1.640625 0,0.9492188 -0.480469,1.59375 -1.207032,1.59375 -0.703125,0 -1.160156,-0.6445312 -1.160156,-1.6171875 0,-0.984375 0.457031,-1.6171875 1.160156,-1.6171875 z m 6.257813,1.8046875 c 0,-0.6445312 -0.04687,-1.0195312 -0.164063,-1.3359375 -0.28125,-0.6796875 -0.914062,-1.1015625 -1.699218,-1.1015625 -1.160157,0 -1.910157,0.9023438 -1.910157,2.2734375 0,1.37109375 0.726563,2.21484375 1.898438,2.21484375 0.960937,0 1.617187,-0.55078125 1.78125,-1.45312495 h -0.667969 c -0.175781,0.5507812 -0.550781,0.8320312 -1.089844,0.8320312 -0.421875,0 -0.785156,-0.1875 -1.007812,-0.5390625 -0.152344,-0.234375 -0.210938,-0.4804687 -0.222656,-0.890625 z M 15.647117,-2.403625 c 0.04687,-0.7734375 0.527344,-1.2773437 1.195313,-1.2773437 0.644531,0 1.148437,0.5390625 1.148437,1.2304687 0,0.011719 0,0.023437 0,0.046875 z M 23.314109,-0.388 c -0.07031,0.0117188 -0.105468,0.0117188 -0.140625,0.0117188 -0.234375,0 -0.363281,-0.1171875 -0.363281,-0.328125 V -3.153625 c 0,-0.75 -0.539062,-1.1484375 -1.570312,-1.1484375 -0.609375,0 -1.113282,0.1757813 -1.382813,0.4921875 -0.199219,0.2109375 -0.269531,0.4570313 -0.292969,0.8671875 h 0.667969 c 0.05859,-0.5039062 0.363281,-0.7382812 0.984375,-0.7382812 0.597656,0 0.9375,0.2226562 0.9375,0.6210937 v 0.1757813 c 0,0.28125 -0.175781,0.3984375 -0.703125,0.4570312 -0.9375,0.1171875 -1.078125,0.1523438 -1.335937,0.2578125 -0.480469,0.1992188 -0.726563,0.5742188 -0.726563,1.1132813 0,0.7617187 0.515625,1.24218745 1.371094,1.24218745 0.515625,0 0.9375,-0.1875 1.417969,-0.62109375 0.04687,0.421875 0.246093,0.62109375 0.679687,0.62109375 0.140625,0 0.234375,-0.0234375 0.457031,-0.0703125 z m -1.160156,-0.9257812 c 0,0.2226562 -0.07031,0.35156245 -0.269531,0.53906245 -0.269531,0.24609375 -0.597656,0.375 -0.984375,0.375 -0.515625,0 -0.820313,-0.24609375 -0.820313,-0.66796875 0,-0.4453125 0.292969,-0.6679687 0.996094,-0.7617187 0.703125,-0.1054688 0.84375,-0.1289063 1.078125,-0.234375 z m 3.354492,-2.859375 h -0.691406 v -1.1484375 h -0.65625 v 1.1484375 h -0.5625 v 0.5390625 h 0.5625 V -0.48175 c 0,0.421875 0.28125,0.66796875 0.796875,0.66796875 0.164063,0 0.328125,-0.0234375 0.550781,-0.0585938 v -0.5625 c -0.09375,0.0234375 -0.199218,0.0351563 -0.316406,0.0351563 -0.292969,0 -0.375,-0.0820313 -0.375,-0.375 V -3.6340937 h 0.691406 z m 0,0"
       style="fill:#000000;fill-opacity:1;fill-rule:nonzero;stroke:none"
       aria-label="Repeat"
       transform="matrix(1.3333333,0,0,1.3333333,545.79733,14.017333)" />
    <path
       id="path44"
       d="m 4.3942813,-5.8119609 v 4.078125 c 0,0.78515621 -0.5625,1.26562496 -1.4882813,1.26562496 -0.4335937,0 -0.7851562,-0.10546875 -1.0664062,-0.3046875 -0.28125,-0.22265625 -0.421875,-0.51562496 -0.421875,-0.96093746 v -4.078125 H 0.6794375 v 4.078125 c 0,1.18359371 0.84375,1.92187496 2.2265625,1.92187496 1.359375,0 2.2382813,-0.75 2.2382813,-1.92187496 v -4.078125 z m 1.921875,1.640625 V 5.390625e-4 H 6.984125 V -2.3080547 c 0,-0.84375 0.4453125,-1.40625 1.125,-1.40625 0.5273438,0 0.8671875,0.3164063 0.8671875,0.8203125 V 5.390625e-4 h 0.65625 V -3.1518047 c 0,-0.6914062 -0.515625,-1.1484375 -1.3242187,-1.1484375 -0.6210938,0 -1.0195313,0.2460938 -1.3828125,0.8320313 v -0.703125 z m 5.8974607,0 h -0.691406 v -1.1484375 h -0.65625 v 1.1484375 h -0.5625 v 0.5390625 h 0.5625 v 3.15234371 c 0,0.421875 0.28125,0.66796875 0.796875,0.66796875 0.164062,0 0.328125,-0.0234375 0.550781,-0.0585938 v -0.5625 c -0.09375,0.0234375 -0.199219,0.0351563 -0.316406,0.0351563 -0.292969,0 -0.375,-0.0820313 -0.375,-0.375 V -3.6322734 h 0.691406 z m 1.382813,0 H 12.94018 V 5.390625e-4 h 0.65625 z m 0,-1.640625 h -0.667969 v 0.84375 h 0.667969 z m 1.78125,0 H 14.709711 V 5.390625e-4 h 0.667969 z m 3.486328,5.8124999625 h 2.238281 c 1.464844,0 2.367188,-1.1015624625 2.367188,-2.9062499625 0,-1.8046875 -0.902344,-2.90625 -2.367188,-2.90625 H 18.864008 Z M 19.602289,-0.65571094 V -5.1557109 h 1.371094 c 1.148437,0 1.746094,0.7734375 1.746094,2.25 0,1.4765625 -0.597657,2.24999996 -1.746094,2.24999996 z m 6.46875,-3.64453126 c -1.171875,0 -1.886719,0.84375 -1.886719,2.25 0,1.39453126 0.703125,2.23828126 1.898438,2.23828126 1.171875,0 1.886719,-0.84375 1.886719,-2.21484376 0,-1.4414062 -0.691407,-2.2734375 -1.898438,-2.2734375 z m 0.01172,0.6210938 c 0.75,0 1.195312,0.609375 1.195312,1.6523437 0,0.9726563 -0.46875,1.59375001 -1.195312,1.59375001 -0.75,0 -1.195313,-0.60937501 -1.195313,-1.61718751 0,-1.0078125 0.445313,-1.6289062 1.195313,-1.6289062 z m 2.8125,-0.4921875 V 5.390625e-4 h 0.667969 V -2.3080547 c 0,-0.84375 0.445312,-1.40625 1.125,-1.40625 0.527343,0 0.867187,0.3164063 0.867187,0.8203125 V 5.390625e-4 h 0.65625 V -3.1518047 c 0,-0.6914062 -0.515625,-1.1484375 -1.324219,-1.1484375 -0.621093,0 -1.019531,0.2460938 -1.382812,0.8320313 v -0.703125 z m 7.959961,2.3085937 c 0,-0.6445312 -0.04687,-1.0195312 -0.164063,-1.3359375 -0.28125,-0.6796875 -0.914062,-1.1015625 -1.699218,-1.1015625 -1.160157,0 -1.910157,0.9023438 -1.910157,2.2734375 0,1.37109376 0.726563,2.21484376 1.898438,2.21484376 0.960937,0 1.617187,-0.55078125 1.78125,-1.45312496 H 36.0935 c -0.175781,0.55078121 -0.550781,0.83203121 -1.089844,0.83203121 -0.421875,0 -0.785156,-0.1875 -1.007812,-0.5390625 C 33.8435,-1.2064922 33.784906,-1.4525859 33.773188,-1.8627422 Z m -3.058594,-0.5390625 c 0.04687,-0.7734375 0.527344,-1.2773437 1.195313,-1.2773437 0.644531,0 1.148437,0.5390625 1.148437,1.2304687 0,0.011719 0,0.023437 0,0.046875 z m 0,0"
       style="fill:#000000;fill-opacity:1;fill-rule:nonzero;stroke:none"
       aria-label="UntilDone"
       transform="matrix(1.3333333,0,0,1.3333333,538.12533,26.636)" />
  </g>
</svg>
