<?xml version="1.0" encoding="UTF-8" standalone="no"?>
<!-- Created with Inkscape (http://www.inkscape.org/) -->

<svg
   version="1.1"
   id="svg1"
   width="373.18799"
   height="297.26132"
   viewBox="0 0 373.18799 297.26132"
   xmlns="http://www.w3.org/2000/svg"
   xmlns:svg="http://www.w3.org/2000/svg">
  <defs
     id="defs1" />
  <g
     id="g1">
    <path
       id="path1"
       d="M 38.26819,0 C 38.26819,21.1352 21.1352,38.26819 0,38.26819 -21.1352,38.26819 -38.26819,21.1352 -38.26819,0 c 0,-21.1352 17.13299,-38.26819 38.26819,-38.26819 21.1352,0 38.26819,17.13299 38.26819,38.26819 z"
       style="fill:#fffee6;fill-opacity:1;fill-rule:nonzero;stroke:none"
       transform="matrix(1.0666667,0,0,-1.0666667,183.52853,158.05813)" />
    <path
       id="path2"
       d="M 3.7357891,-8.984375e-4 5.3617656,-4.8641797 v 4.8632812625 h 0.703125 V -5.8163281 H 5.0395 L 3.3402813,-0.74796875 1.6264141,-5.8163281 H 0.60102344 V -8.984375e-4 H 1.3041484 V -4.8641797 l 1.640625,4.8632812625 z M 8.0167949,-5.8163281 H 7.284373 v 5.8154296625 h 3.603516 V -0.66007813 H 8.0167949 Z m 0,0"
       style="fill:#000000;fill-opacity:1;fill-rule:nonzero;stroke:none"
       aria-label="ML"
       transform="matrix(1.0666667,0,0,1.0666667,177.62453,209.48533)" />
    <path
       id="path3"
       d="m 1.4631758,-2.4602832 h 1.8310547 c 0.4541015,0 0.805664,-0.1318359 1.1132812,-0.4101563 0.3515625,-0.3222656 0.5126953,-0.703125 0.5126953,-1.2304687 0,-1.0986328 -0.6445312,-1.7138672 -1.8017578,-1.7138672 H 0.73075391 V 6.5429687e-4 H 1.4631758 Z m 0,-0.6591797 v -2.0361328 h 1.5527344 c 0.703125,0 1.1279296,0.3808594 1.1279296,1.0253906 0,0.6298828 -0.4248046,1.0107422 -1.1279296,1.0107422 z m 7.5402832,1.2597656 c 0,-0.6445312 -0.043945,-1.0253906 -0.1611328,-1.3330078 -0.2783203,-0.6884765 -0.9082032,-1.0986328 -1.6992188,-1.0986328 -1.1572265,0 -1.9042969,0.8935547 -1.9042969,2.2558594 0,1.37695311 0.7177735,2.22656248 1.8896485,2.22656248 0.9667969,0 1.6259765,-0.54199218 1.7871094,-1.45019528 H 8.2417402 c -0.1757812,0.54199216 -0.5566406,0.83496091 -1.0839843,0.83496091 -0.4248047,0 -0.7763672,-0.19042969 -1.0107422,-0.54199219 C 5.9858809,-1.215166 5.9419355,-1.449541 5.9272871,-1.8596973 Z M 5.9419355,-2.4016895 c 0.058594,-0.7763671 0.5273438,-1.274414 1.2011719,-1.274414 0.6445313,0 1.1572266,0.5419922 1.1572266,1.2158203 0,0.029297 0,0.043945 -0.014648,0.058594 z M 9.9043379,-4.1741504 V 6.5429687e-4 H 10.563518 V -2.1673145 c 0,-0.6005859 0.161132,-0.9814453 0.46875,-1.2158203 0.205078,-0.1611328 0.410156,-0.2050781 0.878906,-0.2050781 v -0.6884766 c -0.117188,-0.014648 -0.175781,-0.014648 -0.263672,-0.014648 -0.424805,0 -0.74707,0.2490234 -1.142578,0.8789063 V -4.17415 Z m 4.1491701,0 h -0.688477 v -0.6591797 c 0,-0.2783203 0.161133,-0.4248047 0.46875,-0.4248047 0.04395,0 0.07324,0 0.219727,0.014648 V -5.785479 c -0.146485,-0.043945 -0.234375,-0.043945 -0.366211,-0.043945 -0.615234,0 -0.981445,0.3515625 -0.981445,0.9521484 v 0.703125 h -0.556641 v 0.5419922 h 0.556641 V 6.5429687e-4 h 0.659179 V -3.6321582 h 0.688477 z m 2.094726,-0.1171875 c -1.171875,0 -1.875,0.8349609 -1.875,2.2412109 0,1.39160161 0.688477,2.24121098 1.889649,2.24121098 1.157226,0 1.875,-0.84960937 1.875,-2.21191408 0,-1.4501953 -0.688477,-2.2705078 -1.889649,-2.2705078 z m 0.01465,0.6152344 c 0.74707,0 1.186523,0.6152344 1.186523,1.640625 0,0.9814453 -0.454101,1.61132811 -1.186523,1.61132811 -0.74707,0 -1.201172,-0.61523441 -1.201172,-1.62597661 0,-1.0107421 0.454102,-1.6259765 1.201172,-1.6259765 z M 18.96806,-4.1741504 V 6.5429687e-4 h 0.659179 V -2.1673145 c 0,-0.6005859 0.161133,-0.9814453 0.46875,-1.2158203 0.205078,-0.1611328 0.410157,-0.2050781 0.878907,-0.2050781 v -0.6884766 c -0.117188,-0.014648 -0.175782,-0.014648 -0.263672,-0.014648 -0.424805,0 -0.747071,0.2490234 -1.142578,0.8789063 V -4.17415 Z m 2.845459,0 V 6.5429687e-4 h 0.673828 V -2.621416 c 0,-0.600586 0.439453,-1.0986328 0.981445,-1.0986328 0.483398,0 0.761719,0.3076172 0.761719,0.8496093 V 6.5429687e-4 h 0.673828 V -2.621416 c 0,-0.600586 0.439453,-1.0986328 0.981445,-1.0986328 0.483399,0 0.776367,0.3222656 0.776367,0.8496093 V 6.5429687e-4 H 27.33598 V -3.1341113 c 0,-0.7470703 -0.439454,-1.1572266 -1.215821,-1.1572266 -0.55664,0 -0.893554,0.1611328 -1.289062,0.6298828 -0.249024,-0.4394531 -0.571289,-0.6298828 -1.113282,-0.6298828 -0.571289,0 -0.9375,0.2050781 -1.289062,0.703125 v -0.5859375 z m 10.345459,3.77929688 c -0.07324,0.0146484 -0.102539,0.0146484 -0.146485,0.0146484 -0.234375,0 -0.351562,-0.1171875 -0.351562,-0.32226562 V -3.1487598 c 0,-0.7470703 -0.541992,-1.1425781 -1.567383,-1.1425781 -0.615234,0 -1.113281,0.1757813 -1.391602,0.4833984 -0.190429,0.2197266 -0.27832,0.4541016 -0.292968,0.8642579 h 0.673828 c 0.05859,-0.5126954 0.366211,-0.7324219 0.981445,-0.7324219 0.600586,0 0.9375,0.2197265 0.9375,0.6152344 v 0.1757812 c 0,0.2783203 -0.175781,0.3955078 -0.703125,0.46875 -0.9375,0.1171875 -1.083984,0.1464844 -1.333008,0.2490234 -0.483398,0.2050782 -0.732422,0.5712891 -0.732422,1.1132813 0,0.76171871 0.527344,1.24511714 1.362305,1.24511714 0.527344,0 0.952148,-0.19042968313 1.420898,-0.61523437 0.05859,0.41015625 0.263672,0.61523437 0.688477,0.61523437 0.131836,0 0.234375,-0.0292969 0.454102,-0.0732422 z M 31.00175,-1.3177051 c 0,0.2197266 -0.07324,0.36621096 -0.263672,0.54199221 -0.27832,0.24902344 -0.600586,0.38085937 -0.996094,0.38085937 -0.512695,0 -0.820312,-0.24902343 -0.820312,-0.67382808 0,-0.4394532 0.292969,-0.6591797 1.010742,-0.7617188 0.703125,-0.1025391 0.834961,-0.1318359 1.069336,-0.234375 z m 1.882324,-2.8564453 V 6.5429687e-4 h 0.673828 V -2.2991504 c 0,-0.8496094 0.439453,-1.4208984 1.12793,-1.4208984 0.527344,0 0.864258,0.3222656 0.864258,0.8349609 V 6.5429687e-4 h 0.65918 V -3.1487598 c 0,-0.703125 -0.512696,-1.1425781 -1.31836,-1.1425781 -0.629883,0 -1.02539,0.234375 -1.391601,0.8203125 v -0.703125 z m 7.624512,1.40625 c -0.0293,-0.4101562 -0.117188,-0.6738281 -0.27832,-0.9082031 -0.278321,-0.3808594 -0.791016,-0.6152344 -1.362305,-0.6152344 -1.12793,0 -1.860352,0.8935547 -1.860352,2.2705078 0,1.34765627 0.717774,2.21191408 1.845704,2.21191408 0.996093,0 1.625976,-0.60058593 1.699218,-1.62597658 h -0.659179 c -0.117188,0.67382815 -0.454102,1.01074221 -1.025391,1.01074221 -0.732422,0 -1.171875,-0.60058591 -1.171875,-1.59667971 0,-1.040039 0.439453,-1.6552734 1.157227,-1.6552734 0.55664,0 0.908203,0.3222656 0.996093,0.9082031 z m 4.321289,0.9082031 c 0,-0.6445312 -0.04395,-1.0253906 -0.161133,-1.3330078 -0.27832,-0.6884765 -0.908203,-1.0986328 -1.699219,-1.0986328 -1.157226,0 -1.904296,0.8935547 -1.904296,2.2558594 0,1.37695311 0.717773,2.22656248 1.889648,2.22656248 0.966797,0 1.625977,-0.54199218 1.787109,-1.45019528 h -0.673828 c -0.175781,0.54199216 -0.55664,0.83496091 -1.083984,0.83496091 -0.424805,0 -0.776367,-0.19042969 -1.010742,-0.54199219 C 41.812297,-1.215166 41.768352,-1.449541 41.753703,-1.8596973 Z m -3.061523,-0.5419922 c 0.05859,-0.7763671 0.527343,-1.274414 1.201171,-1.274414 0.644532,0 1.157227,0.5419922 1.157227,1.2158203 0,0.029297 0,0.043945 -0.01465,0.058594 z m 0,0"
       style="fill:#000000;fill-opacity:1;fill-rule:nonzero;stroke:none"
       aria-label="Performance"
       transform="matrix(1.0666667,0,0,1.0666667,159.43147,219.58133)" />
    <path
       id="path4"
       d="m 39.68553,108.09604 c 0,21.918 -17.76753,39.68553 -39.68553,39.68553 -21.918,0 -39.68553,-17.76753 -39.68553,-39.68553 0,-21.91802 17.76753,-39.68555 39.68553,-39.68555 21.918,0 39.68553,17.76753 39.68553,39.68555 z"
       style="fill:none;stroke:#f24dae;stroke-width:0.79701;stroke-linecap:butt;stroke-linejoin:round;stroke-miterlimit:10;stroke-dasharray:2.98883, 2.98883;stroke-dashoffset:0;stroke-opacity:1"
       transform="matrix(1.0666667,0,0,-1.0666667,183.52853,158.05813)" />
    <path
       id="path5"
       d="M 3.7785293,-1.7431035 4.3791152,6.0546875e-5 H 5.1994277 L 3.1632949,-5.8153691 H 2.2111465 L 0.13106836,6.0546875e-5 H 0.92208398 L 1.5373184,-1.7431035 Z M 3.5734512,-2.3729863 H 1.727748 L 2.6798965,-5.0097051 Z M 6.5324355,-5.8153691 H 5.8586074 V 6.0546875e-5 h 0.6738281 z m 3.8342285,1.640625 v 0.6005859 C 10.02975,-4.0575566 9.6342422,-4.2919316 9.09225,-4.2919316 c -1.0546875,0 -1.7724609,0.9228515 -1.7724609,2.2705078 0,0.6884765 0.1757812,1.24511716 0.5273437,1.64062497 0.3076172,0.3515625 0.7470703,0.57128906 1.1865234,0.57128906 0.5273438,0 0.8935547,-0.234375 1.2744138,-0.76171875 v 0.21972657 c 0,0.57128906 -0.07324,0.90820312 -0.249023,1.14257812 C 9.8832656,1.0400996 9.5463516,1.186584 9.1361953,1.186584 8.8432266,1.186584 8.5649062,1.0986934 8.389125,0.95220898 8.2279922,0.83502148 8.1693984,0.73248242 8.1254531,0.48345898 H 7.451625 C 7.524867,1.2598262 8.1401016,1.7432246 9.1215469,1.7432246 c 0.6152343,0 1.1572261,-0.2050781 1.4208981,-0.5419922 0.322266,-0.38085935 0.439453,-0.9082031 0.439453,-1.88964842 V -4.1747441 Z m -1.2011718,0.4980468 c 0.7177734,0 1.1425778,0.600586 1.1425778,1.640625 0,0.9960938 -0.4394528,1.61132816 -1.1279294,1.61132816 -0.7324219,0 -1.171875,-0.61523436 -1.171875,-1.62597656 0,-1.0107422 0.4541016,-1.6259766 1.1572266,-1.6259766 z m 4.5190428,-0.6152343 c -1.171875,0 -1.875,0.8349609 -1.875,2.2412109 0,1.39160156 0.688477,2.24121093 1.889649,2.24121093 1.157226,0 1.875,-0.84960937 1.875,-2.21191403 0,-1.4501953 -0.688477,-2.2705078 -1.889649,-2.2705078 z m 0.01465,0.6152343 c 0.74707,0 1.186523,0.6152344 1.186523,1.640625 0,0.9814453 -0.454102,1.61132816 -1.186523,1.61132816 -0.747071,0 -1.201172,-0.61523436 -1.201172,-1.62597656 0,-1.0107422 0.454101,-1.6259766 1.201172,-1.6259766 z M 16.50436,-4.1747441 V 6.0546875e-5 h 0.65918 V -2.1679082 c 0,-0.6005859 0.161133,-0.9814453 0.46875,-1.2158203 0.205078,-0.1611328 0.410156,-0.2050781 0.878906,-0.2050781 v -0.6884766 c -0.117187,-0.014648 -0.175781,-0.014648 -0.263672,-0.014648 -0.424804,0 -0.74707,0.2490234 -1.142578,0.8789062 v -0.7617187 z m 3.420411,0 h -0.67383 V 6.0546875e-5 h 0.673829 z m 0,-1.640625 h -0.673829 v 0.8496093 h 0.673829 z m 2.589111,1.640625 h -0.688477 v -1.1425782 h -0.659179 v 1.1425782 h -0.556641 v 0.5419921 h 0.556641 v 3.14941411 c 0,0.42480469 0.292968,0.67382812 0.805664,0.67382812 0.161132,0 0.322265,-0.0292969 0.541992,-0.0585938 v -0.55664062 c -0.08789,0.0146484 -0.19043,0.0292969 -0.322266,0.0292969 -0.27832,0 -0.366211,-0.0878906 -0.366211,-0.38085937 V -3.632752 h 0.688477 z m 0.750732,-1.640625 V 6.0546875e-5 h 0.65918 V -2.2997441 c 0,-0.8496094 0.454102,-1.4208985 1.12793,-1.4208985 0.219726,0 0.439453,0.073242 0.600586,0.2050781 0.190429,0.131836 0.263671,0.3222657 0.263671,0.6298829 V 6.0546875e-5 h 0.65918 V -3.1493535 c 0,-0.703125 -0.498047,-1.1425781 -1.303711,-1.1425781 -0.600586,0 -0.952148,0.1757812 -1.347656,0.6884765 v -2.211914 z m 4.431153,1.640625 V 6.0546875e-5 h 0.673828 V -2.6220098 c 0,-0.6005859 0.439453,-1.0986328 0.981445,-1.0986328 0.483398,0 0.761719,0.3076172 0.761719,0.8496094 V 6.0546875e-5 h 0.673828 V -2.6220098 c 0,-0.6005859 0.439453,-1.0986328 0.981445,-1.0986328 0.483399,0 0.776367,0.3222656 0.776367,0.8496094 V 6.0546875e-5 h 0.673829 V -3.1347051 c 0,-0.7470703 -0.439454,-1.1572265 -1.215821,-1.1572265 -0.55664,0 -0.893554,0.1611328 -1.289062,0.6298828 -0.249024,-0.4394532 -0.571289,-0.6298828 -1.113282,-0.6298828 -0.571289,0 -0.9375,0.2050781 -1.289062,0.703125 v -0.5859375 z m 9.569091,1.1572265 c 0,-0.8203125 -0.541992,-1.274414 -1.508789,-1.274414 -0.966797,0 -1.596679,0.4980468 -1.596679,1.274414 0,0.6445313 0.322265,0.9667969 1.318359,1.2011719 l 0.615234,0.1464844 c 0.46875,0.1171875 0.644532,0.2783203 0.644532,0.5859375 0,0.39550778 -0.38086,0.65917966 -0.966797,0.65917966 -0.351563,0 -0.65918,-0.10253906 -0.834961,-0.27832031 -0.102539,-0.13183594 -0.146485,-0.24902344 -0.19043,-0.54199215 h -0.703125 c 0.04395,0.96679683 0.585938,1.43554683 1.669922,1.43554683 1.054688,0 1.728516,-0.52734375 1.728516,-1.33300783 0,-0.6152344 -0.351563,-0.9667969 -1.186524,-1.1572265 L 35.624232,-2.460877 c -0.541992,-0.1171875 -0.776367,-0.2929687 -0.776367,-0.5859375 0,-0.3808593 0.336914,-0.6298828 0.878906,-0.6298828 0.541993,0 0.820313,0.2197266 0.834961,0.6591797 z m 4.581299,-2.7978515 c -0.791015,1.0546875 -1.289062,2.5048828 -1.289062,3.75 0,1.25976558 0.498047,2.7099609 1.289062,3.75 h 0.439453 c -0.703125,-1.12792973 -1.083984,-2.47558598 -1.083984,-3.75 0,-1.2597657 0.380859,-2.6074219 1.083984,-3.75 z M 46.357875,6.0546875e-5 47.983852,-4.8632207 V 6.0546875e-5 h 0.703125 V -5.8153691 H 47.661586 L 45.962367,-0.74700977 44.2485,-5.8153691 H 43.223109 V 6.0546875e-5 h 0.703125 V -4.8632207 L 45.566859,6.0546875e-5 Z M 51.429896,-4.2919316 c -1.171875,0 -1.875,0.8349609 -1.875,2.2412109 0,1.39160156 0.688477,2.24121093 1.889649,2.24121093 1.157226,0 1.875,-0.84960937 1.875,-2.21191403 0,-1.4501953 -0.688477,-2.2705078 -1.889649,-2.2705078 z m 0.01465,0.6152343 c 0.74707,0 1.186523,0.6152344 1.186523,1.640625 0,0.9814453 -0.454101,1.61132816 -1.186523,1.61132816 -0.74707,0 -1.201172,-0.61523436 -1.201172,-1.62597656 0,-1.0107422 0.454102,-1.6259766 1.201172,-1.6259766 z m 6.188965,-2.1386718 h -0.65918 v 2.1679687 c -0.27832,-0.4248047 -0.717773,-0.6445312 -1.274414,-0.6445312 -1.083984,0 -1.801758,0.8642578 -1.801758,2.1972656 0,1.40624998 0.688477,2.28515623 1.816406,2.28515623 0.57129,0 0.981446,-0.21972656 1.333008,-0.74707031 V 6.0546875e-5 h 0.585938 z m -1.831055,2.1386718 c 0.717774,0 1.171875,0.6445313 1.171875,1.640625 0,0.9667969 -0.454101,1.59667972 -1.157226,1.59667972 -0.732422,0 -1.230469,-0.64453122 -1.230469,-1.61132812 0,-0.9814453 0.498047,-1.6259766 1.21582,-1.6259766 z m 6.408691,1.8164063 c 0,-0.6445313 -0.04395,-1.0253906 -0.161132,-1.3330078 -0.278321,-0.6884766 -0.908203,-1.0986328 -1.699219,-1.0986328 -1.157227,0 -1.904297,0.8935546 -1.904297,2.2558593 0,1.37695316 0.717773,2.22656253 1.889648,2.22656253 0.966797,0 1.625977,-0.54199218 1.78711,-1.45019533 h -0.673828 c -0.175782,0.54199221 -0.556641,0.83496096 -1.083985,0.83496096 -0.424804,0 -0.776367,-0.19042969 -1.010742,-0.54199219 C 59.193568,-1.2157598 59.149623,-1.4501348 59.134975,-1.860291 Z m -3.061523,-0.5419922 c 0.05859,-0.7763672 0.527344,-1.2744141 1.201172,-1.2744141 0.644531,0 1.157226,0.5419922 1.157226,1.2158203 0,0.029297 0,0.043945 -0.01465,0.058594 z m 4.625244,-3.4130859 H 63.101039 V 6.0546875e-5 h 0.673828 z m 1.300049,7.5 c 0.791016,-1.0400391 1.289063,-2.49023442 1.289063,-3.7353516 0,-1.2597656 -0.498047,-2.7099609 -1.289063,-3.7646484 h -0.439453 c 0.703125,1.1425781 1.083984,2.4902343 1.083984,3.7646484 0,1.25976562 -0.380859,2.60742187 -1.083984,3.7353516 z m 0,0"
       style="fill:#000000;fill-opacity:1;fill-rule:nonzero;stroke:none"
       aria-label="Algorithms(Model)"
       transform="matrix(1.0666667,0,0,1.0666667,147.8016,95.519467)" />
    <path
       id="path6"
       d="m 133.29971,-54.04802 c 0,21.91802 -17.76754,39.68555 -39.68554,39.68555 -21.918,0 -39.68554,-17.76753 -39.68554,-39.68555 0,-21.918 17.76754,-39.68553 39.68554,-39.68553 21.918,0 39.68554,17.76753 39.68554,39.68553 z"
       style="fill:none;stroke:#a19882;stroke-width:0.79701;stroke-linecap:butt;stroke-linejoin:round;stroke-miterlimit:10;stroke-dasharray:2.98883, 2.98883;stroke-dashoffset:0;stroke-opacity:1"
       transform="matrix(1.0666667,0,0,-1.0666667,183.52853,158.05813)" />
    <path
       id="path7"
       d="M 0.70176367,0.00161523 H 2.9429746 c 1.4648438,0 2.3730469,-1.09863283 2.3730469,-2.91503903 0,-1.8017578 -0.8935547,-2.9003907 -2.3730469,-2.9003907 H 0.70176367 Z M 1.448834,-0.65756445 V -5.1546348 h 1.3769531 c 1.1425781,0 1.7431641,0.7763672 1.7431641,2.2558594 0,1.4648438 -0.600586,2.24121095 -1.7431641,2.24121095 z m 8.569336,0.26367187 c -0.073242,0.0146484 -0.1025391,0.0146484 -0.1464845,0.0146484 -0.234375,0 -0.3515625,-0.1171875 -0.3515625,-0.32226563 V -3.1477988 c 0,-0.7470703 -0.5419921,-1.1425782 -1.5673828,-1.1425782 -0.6152343,0 -1.1132812,0.1757813 -1.3916015,0.4833985 C 6.370709,-3.587252 6.2828184,-3.352877 6.2681699,-2.9427207 H 6.941998 c 0.058594,-0.5126953 0.366211,-0.7324219 0.9814454,-0.7324219 0.6005859,0 0.9375,0.2197266 0.9375,0.6152344 v 0.1757812 c 0,0.2783204 -0.1757813,0.3955079 -0.703125,0.46875 -0.9375,0.1171875 -1.0839844,0.1464844 -1.3330079,0.2490235 -0.4833984,0.2050781 -0.7324218,0.571289 -0.7324218,1.1132812 0,0.76171878 0.5273437,1.24511722 1.3623047,1.24511722 0.5273437,0 0.9521484,-0.19042969 1.4208984,-0.61523437 0.058594,0.41015625 0.2636719,0.61523437 0.6884766,0.61523437 0.1318359,0 0.234375,-0.0292969 0.4541016,-0.0732422 z M 8.8609434,-1.3167441 c 0,0.2197265 -0.073242,0.3662109 -0.2636719,0.54199215 -0.2783203,0.24902343 -0.600586,0.38085937 -0.9960938,0.38085937 -0.5126953,0 -0.8203125,-0.24902344 -0.8203125,-0.67382812 0,-0.4394531 0.2929688,-0.6591797 1.0107422,-0.7617188 0.703125,-0.102539 0.834961,-0.1318359 1.069336,-0.234375 z m 3.3471676,-2.8564454 h -0.688476 v -1.1425781 h -0.65918 v 1.1425781 h -0.556641 v 0.5419922 h 0.556641 v 3.1494141 c 0,0.42480468 0.292969,0.67382812 0.805664,0.67382812 0.161133,0 0.322266,-0.0292969 0.541992,-0.0585938 V -0.4231895 c -0.08789,0.0146484 -0.190429,0.0292969 -0.322265,0.0292969 -0.278321,0 -0.366211,-0.0878906 -0.366211,-0.38085937 V -3.6311973 h 0.688476 z m 4.456787,3.77929692 c -0.07324,0.0146484 -0.102539,0.0146484 -0.146484,0.0146484 -0.234375,0 -0.351562,-0.1171875 -0.351562,-0.32226563 V -3.1477988 c 0,-0.7470703 -0.541993,-1.1425782 -1.567383,-1.1425782 -0.615235,0 -1.113281,0.1757813 -1.391602,0.4833985 -0.190429,0.2197265 -0.27832,0.4541015 -0.292969,0.8642578 h 0.673829 c 0.05859,-0.5126953 0.366211,-0.7324219 0.981445,-0.7324219 0.600586,0 0.9375,0.2197266 0.9375,0.6152344 v 0.1757812 c 0,0.2783204 -0.175781,0.3955079 -0.703125,0.46875 -0.9375,0.1171875 -1.083984,0.1464844 -1.333008,0.2490235 -0.483398,0.2050781 -0.732422,0.571289 -0.732422,1.1132812 0,0.76171878 0.527344,1.24511722 1.362305,1.24511722 0.527344,0 0.952148,-0.19042969 1.420898,-0.61523437 0.05859,0.41015625 0.263672,0.61523437 0.688477,0.61523437 0.131836,0 0.234375,-0.0292969 0.454101,-0.0732422 z M 15.507672,-1.3167441 c 0,0.2197265 -0.07324,0.3662109 -0.263672,0.54199215 -0.27832,0.24902343 -0.600586,0.38085937 -0.996094,0.38085937 -0.512695,0 -0.820312,-0.24902344 -0.820312,-0.67382812 0,-0.4394531 0.292969,-0.6591797 1.010742,-0.7617188 0.703125,-0.102539 0.834961,-0.1318359 1.069336,-0.234375 z m 8.287353,-2.7832032 c 0,-1.1425781 -0.791015,-1.8017578 -2.124023,-1.8017578 -1.274414,0 -2.06543,0.6445313 -2.06543,1.6992188 0,0.7177734 0.38086,1.1572265 1.142578,1.3623047 l 1.435547,0.3808593 c 0.732422,0.1904297 1.069336,0.4833985 1.069336,0.9375 0,0.3076172 -0.161133,0.62988285 -0.410156,0.8056641 -0.234375,0.16113281 -0.600586,0.24902343 -1.069336,0.24902343 -0.629883,0 -1.054687,-0.14648437 -1.333008,-0.48339843 -0.219726,-0.2636719 -0.322265,-0.5419922 -0.307617,-0.8935547 h -0.703125 c 0.01465,0.5273438 0.117188,0.87890626 0.351563,1.20117188 0.395507,0.54199219 1.054687,0.83496094 1.948242,0.83496094 0.688476,0 1.259765,-0.16113281 1.625976,-0.45410156 0.395508,-0.30761719 0.644532,-0.83496096 0.644532,-1.33300786 0,-0.7177734 -0.454102,-1.2451171 -1.230469,-1.4501953 l -1.464844,-0.3955078 c -0.703125,-0.1904297 -0.952148,-0.4101562 -0.952148,-0.8642578 0,-0.5859375 0.512695,-0.9814453 1.289062,-0.9814453 0.922852,0 1.450195,0.4248047 1.450195,1.1865234 z m 4.658204,2.241211 c 0,-0.6445313 -0.04395,-1.0253907 -0.161133,-1.3330078 -0.278321,-0.6884766 -0.908203,-1.0986329 -1.699219,-1.0986329 -1.157227,0 -1.904297,0.8935547 -1.904297,2.2558594 0,1.37695315 0.717774,2.22656252 1.889649,2.22656252 0.966796,0 1.625976,-0.54199219 1.787109,-1.45019532 H 27.69151 c -0.175781,0.5419922 -0.556641,0.83496095 -1.083985,0.83496095 -0.424804,0 -0.776367,-0.19042969 -1.010742,-0.54199219 C 25.43565,-1.2142051 25.391705,-1.4485801 25.377057,-1.8587363 Z m -3.061524,-0.5419922 c 0.05859,-0.7763672 0.527344,-1.2744141 1.201172,-1.2744141 0.644531,0 1.157227,0.5419922 1.157227,1.2158203 0,0.029297 0,0.043945 -0.01465,0.058594 z m 4.621582,-3.413086 h -0.673828 v 5.81542973 h 0.673828 z m 4.639893,3.9550782 c 0,-0.6445313 -0.04395,-1.0253907 -0.161133,-1.3330078 -0.27832,-0.6884766 -0.908203,-1.0986329 -1.699219,-1.0986329 -1.157226,0 -1.904297,0.8935547 -1.904297,2.2558594 0,1.37695315 0.717774,2.22656252 1.889649,2.22656252 0.966797,0 1.625976,-0.54199219 1.787109,-1.45019532 h -0.673828 c -0.175781,0.5419922 -0.556641,0.83496095 -1.083984,0.83496095 -0.424805,0 -0.776368,-0.19042969 -1.010743,-0.54199219 C 31.635602,-1.2142051 31.591656,-1.4485801 31.577008,-1.8587363 Z m -3.061524,-0.5419922 c 0.05859,-0.7763672 0.527344,-1.2744141 1.201172,-1.2744141 0.644531,0 1.157227,0.5419922 1.157227,1.2158203 0,0.029297 0,0.043945 -0.01465,0.058594 z m 7.155762,-0.366211 c -0.0293,-0.4101562 -0.117188,-0.6738281 -0.27832,-0.9082031 -0.278321,-0.3808594 -0.791016,-0.6152344 -1.362305,-0.6152344 -1.12793,0 -1.860352,0.8935547 -1.860352,2.2705079 0,1.34765621 0.717774,2.21191402 1.845704,2.21191402 0.996093,0 1.625976,-0.60058594 1.699218,-1.62597652 h -0.659179 c -0.117188,0.67382808 -0.454102,1.01074215 -1.025391,1.01074215 -0.732422,0 -1.171875,-0.60058595 -1.171875,-1.59667965 0,-1.0400391 0.439453,-1.6552735 1.157227,-1.6552735 0.55664,0 0.908203,0.3222656 0.996093,0.9082031 z m 2.255859,-1.40625 h -0.688476 v -1.1425781 h -0.65918 v 1.1425781 H 39.09898 v 0.5419922 h 0.556641 v 3.1494141 c 0,0.42480468 0.292969,0.67382812 0.805664,0.67382812 0.161133,0 0.322266,-0.0292969 0.541992,-0.0585938 V -0.4231895 c -0.08789,0.0146484 -0.190429,0.0292969 -0.322265,0.0292969 -0.278321,0 -0.366211,-0.0878906 -0.366211,-0.38085937 V -3.6311973 h 0.688476 z m 1.395264,0 h -0.673828 v 4.17480473 h 0.673828 z m 0,-1.640625 h -0.673828 v 0.8496094 h 0.673828 z m 2.735596,1.5234375 c -1.171875,0 -1.875,0.834961 -1.875,2.241211 0,1.39160155 0.688476,2.24121092 1.889648,2.24121092 1.157227,0 1.875,-0.84960937 1.875,-2.21191402 0,-1.4501954 -0.688476,-2.2705079 -1.889648,-2.2705079 z m 0.01465,0.6152344 c 0.74707,0 1.186524,0.6152344 1.186524,1.640625 0,0.9814453 -0.454102,1.61132815 -1.186524,1.61132815 -0.74707,0 -1.201172,-0.61523435 -1.201172,-1.62597655 0,-1.0107422 0.454102,-1.6259766 1.201172,-1.6259766 z m 2.805176,-0.4980469 v 4.17480473 h 0.673828 V -2.2981895 c 0,-0.8496093 0.439453,-1.4208984 1.12793,-1.4208984 0.527343,0 0.864258,0.3222656 0.864258,0.8349609 v 2.88574223 h 0.659179 V -3.1477988 c 0,-0.703125 -0.512695,-1.1425782 -1.318359,-1.1425782 -0.629883,0 -1.025391,0.234375 -1.391602,0.8203125 v -0.703125 z m 0,0"
       style="fill:#000000;fill-opacity:1;fill-rule:nonzero;stroke:none"
       aria-label="DataSelection"
       transform="matrix(1.0666667,0,0,1.0666667,255.73973,268.47093)" />
    <path
       id="path8"
       d="m -53.92863,-54.04802 c 0,21.91802 -17.76754,39.68555 -39.68554,39.68555 -21.918,0 -39.68554,-17.76753 -39.68554,-39.68555 0,-21.918 17.76754,-39.68553 39.68554,-39.68553 21.918,0 39.68554,17.76753 39.68554,39.68553 z"
       style="fill:none;stroke:#00adef;stroke-width:0.79701;stroke-linecap:butt;stroke-linejoin:round;stroke-miterlimit:10;stroke-dasharray:2.98883, 2.98883;stroke-dashoffset:0;stroke-opacity:1"
       transform="matrix(1.0666667,0,0,-1.0666667,183.52853,158.05813)" />
    <path
       id="path9"
       d="M 3.7342402,0.00161523 5.3602168,-4.861666 v 4.86328123 h 0.703125 V -5.8138145 H 5.0379512 L 3.3387324,-0.74545508 1.6248652,-5.8138145 H 0.59947461 V 0.00161523 H 1.3025996 V -4.861666 l 1.640625,4.86328123 z m 7.1667478,-0.39550781 c -0.07324,0.0146484 -0.102539,0.0146484 -0.146484,0.0146484 -0.234375,0 -0.351563,-0.1171875 -0.351563,-0.32226563 V -3.1477988 c 0,-0.7470703 -0.5419918,-1.1425782 -1.5673824,-1.1425782 -0.6152344,0 -1.1132813,0.1757813 -1.3916016,0.4833985 -0.1904297,0.2197265 -0.2783203,0.4541015 -0.2929687,0.8642578 h 0.6738281 c 0.058594,-0.5126953 0.3662109,-0.7324219 0.9814453,-0.7324219 0.600586,0 0.9375,0.2197266 0.9375,0.6152344 v 0.1757812 c 0,0.2783204 -0.1757812,0.3955079 -0.703125,0.46875 -0.9375,0.1171875 -1.0839844,0.1464844 -1.3330078,0.2490235 -0.4833984,0.2050781 -0.7324219,0.571289 -0.7324219,1.1132812 0,0.76171878 0.5273438,1.24511722 1.3623047,1.24511722 0.5273438,0 0.9521485,-0.19042969 1.4208985,-0.61523437 0.058594,0.41015625 0.2636718,0.61523437 0.6884768,0.61523437 0.131836,0 0.234375,-0.0292969 0.454101,-0.0732422 z M 9.7437617,-1.3167441 c 0,0.2197265 -0.073242,0.3662109 -0.2636719,0.54199215 -0.2783203,0.24902343 -0.6005859,0.38085937 -0.9960937,0.38085937 -0.5126953,0 -0.8203125,-0.24902344 -0.8203125,-0.67382812 0,-0.4394531 0.2929687,-0.6591797 1.0107422,-0.7617188 0.703125,-0.102539 0.8349609,-0.1318359 1.0693359,-0.234375 z m 5.0756833,-1.4501954 c -0.0293,-0.4101562 -0.117187,-0.6738281 -0.27832,-0.9082031 -0.27832,-0.3808594 -0.791016,-0.6152344 -1.362305,-0.6152344 -1.127929,0 -1.860351,0.8935547 -1.860351,2.2705079 0,1.34765621 0.717773,2.21191402 1.845703,2.21191402 0.996094,0 1.625976,-0.60058594 1.699219,-1.62597652 h -0.65918 c -0.117188,0.67382808 -0.454102,1.01074215 -1.025391,1.01074215 -0.732422,0 -1.171875,-0.60058595 -1.171875,-1.59667965 0,-1.0400391 0.439453,-1.6552735 1.157227,-1.6552735 0.55664,0 0.908203,0.3222656 0.996094,0.9082031 z m 0.791016,-3.046875 v 5.81542973 h 0.65918 V -2.2981895 c 0,-0.8496093 0.454101,-1.4208984 1.127929,-1.4208984 0.219727,0 0.439453,0.073242 0.600586,0.2050781 0.19043,0.131836 0.263672,0.3222657 0.263672,0.6298828 v 2.88574223 h 0.65918 V -3.1477988 c 0,-0.703125 -0.498047,-1.1425782 -1.303711,-1.1425782 -0.600586,0 -0.952149,0.1757813 -1.347656,0.6884766 v -2.2119141 z m 5.079346,1.640625 h -0.673828 v 4.17480473 h 0.673828 z m 0,-1.640625 h -0.673828 v 0.8496094 h 0.673828 z m 1.124267,1.640625 v 4.17480473 h 0.673828 V -2.2981895 c 0,-0.8496093 0.439453,-1.4208984 1.12793,-1.4208984 0.527344,0 0.864258,0.3222656 0.864258,0.8349609 v 2.88574223 h 0.65918 V -3.1477988 c 0,-0.703125 -0.512696,-1.1425782 -1.31836,-1.1425782 -0.629883,0 -1.02539,0.234375 -1.391601,0.8203125 v -0.703125 z m 7.961426,2.3144532 c 0,-0.6445313 -0.04395,-1.0253907 -0.161133,-1.3330078 -0.27832,-0.6884766 -0.908203,-1.0986329 -1.699219,-1.0986329 -1.157226,0 -1.904296,0.8935547 -1.904296,2.2558594 0,1.37695315 0.717773,2.22656252 1.889648,2.22656252 0.966797,0 1.625977,-0.54199219 1.787109,-1.45019532 h -0.673828 c -0.175781,0.5419922 -0.55664,0.83496095 -1.083984,0.83496095 -0.424805,0 -0.776367,-0.19042969 -1.010742,-0.54199219 C 26.757922,-1.2142051 26.713977,-1.4485801 26.699328,-1.8587363 Z m -3.061523,-0.5419922 c 0.05859,-0.7763672 0.527343,-1.2744141 1.201171,-1.2744141 0.644532,0 1.157227,0.5419922 1.157227,1.2158203 0,0.029297 0,0.043945 -0.01465,0.058594 z m 7.496337,-3.413086 c -0.791015,1.0546875 -1.289062,2.5048829 -1.289062,3.75 0,1.25976567 0.498047,2.70996098 1.289062,3.75 h 0.439454 c -0.703125,-1.12792964 -1.083985,-2.47558589 -1.083985,-3.75 0,-1.2597656 0.38086,-2.6074218 1.083985,-3.75 z m 5.174561,3.1640625 v 2.65136723 h 0.732422 V -5.8138145 h -0.732422 v 2.5195313 h -2.988281 v -2.5195313 h -0.747071 v 5.81542973 h 0.747071 V -2.649752 Z m 5.621338,2.25585942 c -0.07324,0.0146484 -0.102539,0.0146484 -0.146484,0.0146484 -0.234375,0 -0.351563,-0.1171875 -0.351563,-0.32226563 V -3.1477988 c 0,-0.7470703 -0.541992,-1.1425782 -1.567383,-1.1425782 -0.615234,0 -1.113281,0.1757813 -1.391601,0.4833985 -0.19043,0.2197265 -0.278321,0.4541015 -0.292969,0.8642578 h 0.673828 c 0.05859,-0.5126953 0.366211,-0.7324219 0.981445,-0.7324219 0.600586,0 0.9375,0.2197266 0.9375,0.6152344 v 0.1757812 c 0,0.2783204 -0.175781,0.3955079 -0.703125,0.46875 -0.9375,0.1171875 -1.083984,0.1464844 -1.333007,0.2490235 -0.483399,0.2050781 -0.732422,0.571289 -0.732422,1.1132812 0,0.76171878 0.527343,1.24511722 1.362304,1.24511722 0.527344,0 0.952149,-0.19042969 1.420899,-0.61523437 0.05859,0.41015625 0.263672,0.61523437 0.688476,0.61523437 0.131836,0 0.234375,-0.0292969 0.454102,-0.0732422 z M 43.848986,-1.3167441 c 0,0.2197265 -0.07324,0.3662109 -0.263672,0.54199215 -0.27832,0.24902343 -0.600585,0.38085937 -0.996093,0.38085937 -0.512696,0 -0.820313,-0.24902344 -0.820313,-0.67382812 0,-0.4394531 0.292969,-0.6591797 1.010742,-0.7617188 0.703125,-0.102539 0.834961,-0.1318359 1.069336,-0.234375 z m 1.882325,-2.8564454 V 0.00161523 H 46.39049 V -2.1663535 c 0,-0.600586 0.161133,-0.9814453 0.46875,-1.2158203 0.205078,-0.1611328 0.410156,-0.2050782 0.878906,-0.2050782 v -0.6884765 c -0.117187,-0.014649 -0.175781,-0.014649 -0.263671,-0.014649 -0.424805,0 -0.747071,0.2490235 -1.142579,0.8789063 V -4.17319 Z m 6.038818,-1.640625 h -0.65918 v 2.1679688 c -0.27832,-0.4248047 -0.717773,-0.6445313 -1.274414,-0.6445313 -1.083984,0 -1.801758,0.8642579 -1.801758,2.1972657 0,1.40624997 0.688477,2.28515622 1.816407,2.28515622 0.571289,0 0.981445,-0.21972656 1.333007,-0.74707031 v 0.55664062 h 0.585938 z m -1.831055,2.1386719 c 0.717774,0 1.171875,0.6445313 1.171875,1.640625 0,0.9667969 -0.454101,1.59667971 -1.157226,1.59667971 -0.732422,0 -1.230469,-0.64453121 -1.230469,-1.61132811 0,-0.9814453 0.498047,-1.6259766 1.21582,-1.6259766 z M 56.670031,0.00161523 57.9005,-4.1731895 h -0.74707 l -0.834961,3.25195317 -0.820313,-3.25195317 h -0.805664 l -0.791015,3.25195317 -0.864258,-3.25195317 h -0.732422 l 1.21582,4.17480473 h 0.74707 l 0.805665,-3.28125003 0.849609,3.28125003 z m 5.48584,-0.39550781 c -0.07324,0.0146484 -0.102539,0.0146484 -0.146484,0.0146484 -0.234375,0 -0.351563,-0.1171875 -0.351563,-0.32226563 V -3.1477988 c 0,-0.7470703 -0.541992,-1.1425782 -1.567383,-1.1425782 -0.615234,0 -1.113281,0.1757813 -1.391601,0.4833985 -0.19043,0.2197265 -0.27832,0.4541015 -0.292969,0.8642578 h 0.673828 c 0.05859,-0.5126953 0.366211,-0.7324219 0.981446,-0.7324219 0.600585,0 0.9375,0.2197266 0.9375,0.6152344 v 0.1757812 c 0,0.2783204 -0.175782,0.3955079 -0.703125,0.46875 -0.9375,0.1171875 -1.083985,0.1464844 -1.333008,0.2490235 -0.483399,0.2050781 -0.732422,0.571289 -0.732422,1.1132812 0,0.76171878 0.527344,1.24511722 1.362305,1.24511722 0.527343,0 0.952148,-0.19042969 1.420898,-0.61523437 0.05859,0.41015625 0.263672,0.61523437 0.688477,0.61523437 0.131835,0 0.234375,-0.0292969 0.454101,-0.0732422 z M 60.998645,-1.3167441 c 0,0.2197265 -0.07324,0.3662109 -0.263672,0.54199215 -0.278321,0.24902343 -0.600586,0.38085937 -0.996094,0.38085937 -0.512695,0 -0.820313,-0.24902344 -0.820313,-0.67382812 0,-0.4394531 0.292969,-0.6591797 1.010743,-0.7617188 0.703125,-0.102539 0.834961,-0.1318359 1.069336,-0.234375 z m 1.885986,-2.8564454 v 4.17480473 h 0.65918 V -2.1663535 c 0,-0.600586 0.161132,-0.9814453 0.46875,-1.2158203 0.205078,-0.1611328 0.410156,-0.2050782 0.878906,-0.2050782 v -0.6884765 c -0.117188,-0.014649 -0.175781,-0.014649 -0.263672,-0.014649 -0.424805,0 -0.74707,0.2490235 -1.142578,0.8789063 V -4.17319 Z m 6.18164,2.3144532 c 0,-0.6445313 -0.04394,-1.0253907 -0.161132,-1.3330078 -0.278321,-0.6884766 -0.908203,-1.0986329 -1.699219,-1.0986329 -1.157227,0 -1.904297,0.8935547 -1.904297,2.2558594 0,1.37695315 0.717773,2.22656252 1.889648,2.22656252 0.966797,0 1.625977,-0.54199219 1.78711,-1.45019532 h -0.673828 c -0.175782,0.5419922 -0.556641,0.83496095 -1.083985,0.83496095 -0.424804,0 -0.776367,-0.19042969 -1.010742,-0.54199219 C 66.048693,-1.2142051 66.004748,-1.4485801 65.9901,-1.8587363 Z m -3.061523,-0.5419922 c 0.05859,-0.7763672 0.527344,-1.2744141 1.201172,-1.2744141 0.644531,0 1.157226,0.5419922 1.157226,1.2158203 0,0.029297 0,0.043945 -0.01465,0.058594 z m 4.152832,4.086914 c 0.791016,-1.04003902 1.289063,-2.49023433 1.289063,-3.7353515 0,-1.2597656 -0.498047,-2.709961 -1.289063,-3.7646485 h -0.439453 c 0.703125,1.1425782 1.083984,2.4902344 1.083984,3.7646485 0,1.25976561 -0.380859,2.60742186 -1.083984,3.7353515 z m 0,0"
       style="fill:#000000;fill-opacity:1;fill-rule:nonzero;stroke:none"
       aria-label="Machine(Hardware)"
       transform="matrix(1.0666667,0,0,1.0666667,45.239467,268.47093)" />
    <path
       id="path10"
       d="M 1.1622,1.48825 H -1.1622 V -20.33913 H 1.1622 Z"
       style="fill:#006395;fill-opacity:1;fill-rule:nonzero;stroke:none"
       transform="matrix(1.0666667,0,0,-1.0666667,183.52853,158.05813)" />
    <path
       id="path11"
       d="m -17.85684,-21.28072 c 10.32606,-8.66481 25.38789,-8.66481 35.71396,0 z"
       style="fill:#003b59;fill-opacity:1;fill-rule:nonzero;stroke:none"
       transform="matrix(1.0666667,0,0,-1.0666667,183.52853,158.05813)" />
    <path
       id="path12"
       d="m -30.7568,-5.0305 c 0,-6.02754 4.88616,-10.91371 10.91369,-10.91371 6.02754,0 10.9137,4.88617 10.9137,10.91371 z"
       style="fill:#ff8000;fill-opacity:1;fill-rule:nonzero;stroke:none"
       transform="matrix(1.0666667,0,0,-1.0666667,183.52853,158.05813)" />
    <path
       id="path13"
       d="m -17.85881,12.40193 c 0,1.09592 -0.88839,1.9843 -1.9843,1.9843 -1.0959,0 -1.9843,-0.88838 -1.9843,-1.9843 0,-1.0959 0.8884,-1.9843 1.9843,-1.9843 1.09591,0 1.9843,0.8884 1.9843,1.9843 z"
       style="fill:#ff8000;fill-opacity:1;fill-rule:nonzero;stroke:none"
       transform="matrix(1.0666667,0,0,-1.0666667,183.52853,158.05813)" />
    <path
       id="path14"
       d="m -19.84468,7.35985 -5e-5,-9.33105"
       style="fill:none;stroke:#000000;stroke-width:1.19553;stroke-linecap:butt;stroke-linejoin:round;stroke-miterlimit:10;stroke-dasharray:none;stroke-opacity:1"
       transform="matrix(1.0666667,0,0,-1.0666667,183.52853,158.05813)" />
    <path
       id="path15"
       d="m -17.7573,7.81236 4.57114,-10.05262"
       style="fill:none;stroke:#000000;stroke-width:1.19553;stroke-linecap:butt;stroke-linejoin:round;stroke-miterlimit:10;stroke-dasharray:none;stroke-opacity:1"
       transform="matrix(1.0666667,0,0,-1.0666667,183.52853,158.05813)" />
    <path
       id="path16"
       d="M -21.93199,7.81241 -26.50294,-2.24026"
       style="fill:none;stroke:#000000;stroke-width:1.19553;stroke-linecap:butt;stroke-linejoin:round;stroke-miterlimit:10;stroke-dasharray:none;stroke-opacity:1"
       transform="matrix(1.0666667,0,0,-1.0666667,183.52853,158.05813)" />
    <path
       id="path17"
       d="m 8.92941,-5.0305 c 0,-6.02754 4.88616,-10.91371 10.9137,-10.91371 6.02753,0 10.91369,4.88617 10.91369,10.91371 z"
       style="fill:#b35900;fill-opacity:1;fill-rule:nonzero;stroke:none"
       transform="matrix(1.0666667,0,0,-1.0666667,183.52853,158.05813)" />
    <path
       id="path18"
       d="m 21.82741,12.40193 c 0,1.09592 -0.8884,1.9843 -1.9843,1.9843 -1.09591,0 -1.9843,-0.88838 -1.9843,-1.9843 0,-1.0959 0.88839,-1.9843 1.9843,-1.9843 1.0959,0 1.9843,0.8884 1.9843,1.9843 z"
       style="fill:#b35900;fill-opacity:1;fill-rule:nonzero;stroke:none"
       transform="matrix(1.0666667,0,0,-1.0666667,183.52853,158.05813)" />
    <path
       id="path19"
       d="m 19.84468,7.35985 5e-5,-9.33105"
       style="fill:none;stroke:#000000;stroke-width:1.19553;stroke-linecap:butt;stroke-linejoin:round;stroke-miterlimit:10;stroke-dasharray:none;stroke-opacity:1"
       transform="matrix(1.0666667,0,0,-1.0666667,183.52853,158.05813)" />
    <path
       id="path20"
       d="M 21.93199,7.81241 26.50294,-2.24026"
       style="fill:none;stroke:#000000;stroke-width:1.19553;stroke-linecap:butt;stroke-linejoin:round;stroke-miterlimit:10;stroke-dasharray:none;stroke-opacity:1"
       transform="matrix(1.0666667,0,0,-1.0666667,183.52853,158.05813)" />
    <path
       id="path21"
       d="M 17.7573,7.81236 13.18616,-2.24026"
       style="fill:none;stroke:#000000;stroke-width:1.19553;stroke-linecap:butt;stroke-linejoin:round;stroke-miterlimit:10;stroke-dasharray:none;stroke-opacity:1"
       transform="matrix(1.0666667,0,0,-1.0666667,183.52853,158.05813)" />
    <path
       id="path22"
       d="M 15.87448,13.14604 H -15.87448 V 11.65782 H 15.87448 Z"
       style="fill:#003b59;fill-opacity:1;fill-rule:nonzero;stroke:none"
       transform="matrix(1.0666667,0,0,-1.0666667,183.52853,158.05813)" />
    <path
       id="path23"
       d="m 4.46468,8.43336 c 0,4.1097 -1.99888,7.44117 -4.46468,7.44117 -2.4658,0 -4.46468,-3.33147 -4.46468,-7.44117 0,-4.10968 1.99888,-7.44116 4.46468,-7.44116 2.4658,0 4.46468,3.33148 4.46468,7.44116 z"
       style="fill:#006395;fill-opacity:1;fill-rule:nonzero;stroke:#ffffff;stroke-width:1.99255;stroke-linecap:butt;stroke-linejoin:round;stroke-miterlimit:10;stroke-dasharray:none;stroke-opacity:1"
       transform="matrix(1.0666667,0,0,-1.0666667,183.52853,158.05813)" />
    <path
       id="path24"
       d="m 4.96077,20.3392 c 0,2.7398 -2.22099,4.96077 -4.96077,4.96077 -2.73978,0 -4.96077,-2.22097 -4.96077,-4.96077 0,-2.73979 2.22099,-4.96077 4.96077,-4.96077 2.73978,0 4.96077,2.22098 4.96077,4.96077 z"
       style="fill:#003b59;fill-opacity:1;fill-rule:nonzero;stroke:#ffffff;stroke-width:1.99255;stroke-linecap:butt;stroke-linejoin:round;stroke-miterlimit:10;stroke-dasharray:none;stroke-opacity:1"
       transform="matrix(1.0666667,0,0,-1.0666667,183.52853,158.05813)" />
    <path
       id="path25"
       d="m 3.2557,96.36044 h -6.5114 c -0.55024,0 -0.99628,-0.44604 -0.99628,-0.99627 v -6.51145 c 0,-0.55023 0.44604,-0.99627 0.99628,-0.99627 h 6.5114 c 0.55024,0 0.99628,0.44604 0.99628,0.99627 v 6.51145 c 0,0.55023 -0.44604,0.99627 -0.99628,0.99627 z"
       style="fill:#ffc285;fill-opacity:1;fill-rule:nonzero;stroke:#000000;stroke-width:0.74721;stroke-linecap:butt;stroke-linejoin:round;stroke-miterlimit:10;stroke-dasharray:none;stroke-opacity:1"
       transform="matrix(1.0666667,0,0,-1.0666667,183.52853,158.05813)" />
    <path
       id="path26"
       d="m -17.15411,96.36044 h -6.51145 c -0.55023,0 -0.99627,-0.44604 -0.99627,-0.99627 v -6.51145 c 0,-0.55023 0.44604,-0.99627 0.99627,-0.99627 h 6.51145 c 0.55023,0 0.99627,0.44604 0.99627,0.99627 v 6.51145 c 0,0.55023 -0.44604,0.99627 -0.99627,0.99627 z"
       style="fill:#ffe0c2;fill-opacity:1;fill-rule:nonzero;stroke:#000000;stroke-width:0.74721;stroke-linecap:butt;stroke-linejoin:round;stroke-miterlimit:10;stroke-dasharray:none;stroke-opacity:1"
       transform="matrix(1.0666667,0,0,-1.0666667,183.52853,158.05813)" />
    <path
       id="path27"
       d="m 23.66556,96.36044 h -6.51145 c -0.55023,0 -0.99627,-0.44604 -0.99627,-0.99627 v -6.51145 c 0,-0.55023 0.44604,-0.99627 0.99627,-0.99627 h 6.51145 c 0.55023,0 0.99627,0.44604 0.99627,0.99627 v 6.51145 c 0,0.55023 -0.44604,0.99627 -0.99627,0.99627 z"
       style="fill:#ffe0c2;fill-opacity:1;fill-rule:nonzero;stroke:#000000;stroke-width:0.74721;stroke-linecap:butt;stroke-linejoin:round;stroke-miterlimit:10;stroke-dasharray:none;stroke-opacity:1"
       transform="matrix(1.0666667,0,0,-1.0666667,183.52853,158.05813)" />
    <path
       id="path28"
       d="m 12.46426,131.22688 h -24.92852 c -1.10047,0 -1.99256,-0.89207 -1.99256,-1.99255 v -6.21967 c 0,-1.10048 0.89209,-1.99255 1.99256,-1.99255 h 24.92852 c 1.10047,0 1.99256,0.89207 1.99256,1.99255 v 6.21967 c 0,1.10048 -0.89209,1.99255 -1.99256,1.99255 z"
       style="fill:#feac5c;fill-opacity:1;fill-rule:nonzero;stroke:#000000;stroke-width:0.74721;stroke-linecap:butt;stroke-linejoin:round;stroke-miterlimit:10;stroke-dasharray:none;stroke-opacity:1"
       transform="matrix(1.0666667,0,0,-1.0666667,183.52853,158.05813)" />
    <path
       id="path29"
       d="M -10.92287,128.01552 H 10.92287"
       style="fill:none;stroke:#000000;stroke-width:1.1208;stroke-linecap:butt;stroke-linejoin:round;stroke-miterlimit:10;stroke-dasharray:none;stroke-opacity:1"
       transform="matrix(1.0666667,0,0,-1.0666667,183.52853,158.05813)" />
    <path
       id="path30"
       d="M -10.92287,124.3513 H 10.92287"
       style="fill:none;stroke:#000000;stroke-width:1.1208;stroke-linecap:butt;stroke-linejoin:round;stroke-miterlimit:10;stroke-dasharray:none;stroke-opacity:1"
       transform="matrix(1.0666667,0,0,-1.0666667,183.52853,158.05813)" />
    <path
       id="path31"
       d="m 20.41425,96.80656 v 25.33878 c 0,2.20094 -1.78417,3.98511 -3.98511,3.98511 h -1.52115"
       style="fill:none;stroke:#000000;stroke-width:0.3985;stroke-linecap:butt;stroke-linejoin:round;stroke-miterlimit:10;stroke-dasharray:none;stroke-opacity:1"
       transform="matrix(1.0666667,0,0,-1.0666667,183.52853,158.05813)" />
    <path
       id="path32"
       d="m -20.41425,96.80656 v 25.33878 c 0,2.20094 1.78417,3.98511 3.98511,3.98511 h 1.52115"
       style="fill:none;stroke:#000000;stroke-width:0.3985;stroke-linecap:butt;stroke-linejoin:round;stroke-miterlimit:10;stroke-dasharray:none;stroke-opacity:1"
       transform="matrix(1.0666667,0,0,-1.0666667,183.52853,158.05813)" />
    <path
       id="path33"
       d="m 0,96.80656 v 23.76961"
       style="fill:none;stroke:#000000;stroke-width:0.3985;stroke-linecap:butt;stroke-linejoin:round;stroke-miterlimit:10;stroke-dasharray:none;stroke-opacity:1"
       transform="matrix(1.0666667,0,0,-1.0666667,183.52853,158.05813)" />
    <path
       id="path34"
       d="m -0.70447,113.40475 -4.60425,-4.60425 c -0.38906,-0.38906 -0.38906,-1.01988 0,-1.40894 l 4.60425,-4.60425 c 0.38907,-0.38907 1.01987,-0.38907 1.40894,0 l 4.60425,4.60425 c 0.38906,0.38906 0.38906,1.01988 0,1.40894 l -4.60425,4.60425 c -0.38907,0.38907 -1.01987,0.38907 -1.40894,0 z"
       style="fill:#66ff66;fill-opacity:1;fill-rule:nonzero;stroke:#000000;stroke-width:0.74721;stroke-linecap:butt;stroke-linejoin:round;stroke-miterlimit:10;stroke-dasharray:none;stroke-opacity:1"
       transform="matrix(1.0666667,0,0,-1.0666667,183.52853,158.05813)" />
    <path
       id="path35"
       d="m -21.1143,113.40475 -4.60427,-4.60425 c -0.38905,-0.38906 -0.38905,-1.01988 0,-1.40894 l 4.60427,-4.60425 c 0.38905,-0.38907 1.01988,-0.38907 1.40895,0 l 4.60425,4.60425 c 0.38906,0.38906 0.38906,1.01988 0,1.40894 l -4.60425,4.60425 c -0.38907,0.38907 -1.0199,0.38907 -1.40895,0 z"
       style="fill:#b3ffb3;fill-opacity:1;fill-rule:nonzero;stroke:#000000;stroke-width:0.74721;stroke-linecap:butt;stroke-linejoin:round;stroke-miterlimit:10;stroke-dasharray:none;stroke-opacity:1"
       transform="matrix(1.0666667,0,0,-1.0666667,183.52853,158.05813)" />
    <path
       id="path36"
       d="M 19.70535,113.40475 15.1011,108.8005 c -0.38906,-0.38906 -0.38906,-1.01988 0,-1.40894 l 4.60425,-4.60425 c 0.38907,-0.38907 1.0199,-0.38907 1.40895,0 l 4.60427,4.60425 c 0.38905,0.38906 0.38905,1.01988 0,1.40894 l -4.60427,4.60425 c -0.38905,0.38907 -1.01988,0.38907 -1.40895,0 z"
       style="fill:#b3ffb3;fill-opacity:1;fill-rule:nonzero;stroke:#000000;stroke-width:0.74721;stroke-linecap:butt;stroke-linejoin:round;stroke-miterlimit:10;stroke-dasharray:none;stroke-opacity:1"
       transform="matrix(1.0666667,0,0,-1.0666667,183.52853,158.05813)" />
    <path
       id="path37"
       d="m 72.35385,-77.57452 c 0,-1.43045 9.51843,-2.59006 21.26032,-2.59006 11.74189,0 21.26031,1.15961 21.26031,2.59006 v 13.52894 c 0,1.43047 -9.51842,2.59008 -21.26031,2.59008 -11.74189,0 -21.26032,-1.15961 -21.26032,-2.59008 z m 0,13.52894 c 0,-1.43046 9.51843,-2.59007 21.26032,-2.59007 11.74189,0 21.26031,1.15961 21.26031,2.59007"
       style="fill:#80b1ca;fill-opacity:1;fill-rule:nonzero;stroke:#000000;stroke-width:0.69739;stroke-linecap:butt;stroke-linejoin:round;stroke-miterlimit:10;stroke-dasharray:none;stroke-opacity:1"
       transform="matrix(1.0666667,0,0,-1.0666667,183.52853,158.05813)" />
    <path
       id="path38"
       d="m 72.35353,-60.99751 c 0,-1.43047 9.51843,-2.59008 21.26032,-2.59008 11.74189,0 21.26031,1.15961 21.26031,2.59008 v 13.52893 c 0,1.43046 -9.51842,2.59007 -21.26031,2.59007 -11.74189,0 -21.26032,-1.15961 -21.26032,-2.59007 z m 0,13.52893 c 0,-1.43047 9.51843,-2.59007 21.26032,-2.59007 11.74189,0 21.26031,1.1596 21.26031,2.59007"
       style="fill:#b3d0df;fill-opacity:1;fill-rule:nonzero;stroke:#000000;stroke-width:0.69739;stroke-linecap:butt;stroke-linejoin:round;stroke-miterlimit:10;stroke-dasharray:none;stroke-opacity:1"
       transform="matrix(1.0666667,0,0,-1.0666667,183.52853,158.05813)" />
    <path
       id="path39"
       d="m 72.35321,-44.41956 c 0,-1.43044 9.51843,-2.59005 21.26032,-2.59005 11.74189,0 21.26033,1.15961 21.26033,2.59005 v 13.52895 c 0,1.43047 -9.51844,2.59007 -21.26033,2.59007 -11.74189,0 -21.26032,-1.1596 -21.26032,-2.59007 z m 0,13.52895 c 0,-1.43047 9.51843,-2.59007 21.26032,-2.59007 11.74189,0 21.26033,1.1596 21.26033,2.59007"
       style="fill:#e6eff4;fill-opacity:1;fill-rule:nonzero;stroke:#000000;stroke-width:0.69739;stroke-linecap:butt;stroke-linejoin:round;stroke-miterlimit:10;stroke-dasharray:none;stroke-opacity:1"
       transform="matrix(1.0666667,0,0,-1.0666667,183.52853,158.05813)" />
    <path
       id="path40"
       d="m 79.08618,-39.6001 c 0,0.99042 -0.80288,1.79332 -1.7933,1.79332 -0.99044,0 -1.79332,-0.8029 -1.79332,-1.79332 0,-0.99042 0.80288,-1.79332 1.79332,-1.79332 0.99042,0 1.7933,0.8029 1.7933,1.79332 z"
       style="fill:#00314a;fill-opacity:1;fill-rule:nonzero;stroke:none"
       transform="matrix(1.0666667,0,0,-1.0666667,183.52853,158.05813)" />
    <path
       id="path41"
       d="m 79.08652,-56.17905 c 0,0.99044 -0.80289,1.79332 -1.79332,1.79332 -0.99042,0 -1.7933,-0.80288 -1.7933,-1.79332 0,-0.99041 0.80288,-1.7933 1.7933,-1.7933 0.99043,0 1.79332,0.80289 1.79332,1.7933 z"
       style="fill:#00314a;fill-opacity:1;fill-rule:nonzero;stroke:none"
       transform="matrix(1.0666667,0,0,-1.0666667,183.52853,158.05813)" />
    <path
       id="path42"
       d="m 79.08684,-72.75699 c 0,0.99042 -0.80289,1.79331 -1.79332,1.79331 -0.99042,0 -1.79331,-0.80289 -1.79331,-1.79331 0,-0.99043 0.80289,-1.79332 1.79331,-1.79332 0.99043,0 1.79332,0.80289 1.79332,1.79332 z"
       style="fill:#00314a;fill-opacity:1;fill-rule:nonzero;stroke:none"
       transform="matrix(1.0666667,0,0,-1.0666667,183.52853,158.05813)" />
    <path
       id="path43"
       d="m 120.02916,-66.75192 c 0,8.45414 -6.85327,15.30742 -15.30742,15.30742 -8.45416,0 -15.30742,-6.85328 -15.30742,-15.30742 0,-8.45417 6.85326,-15.30742 15.30742,-15.30742 8.45415,0 15.30742,6.85325 15.30742,15.30742 z"
       style="fill:#ffffff;fill-opacity:1;fill-rule:nonzero;stroke:#4c4c4c;stroke-width:0.99628;stroke-linecap:butt;stroke-linejoin:round;stroke-miterlimit:10;stroke-dasharray:none;stroke-opacity:1"
       transform="matrix(1.0666667,0,0,-1.0666667,183.52853,158.05813)" />
    <path
       id="path44"
       d="m 103.49788,-75.01749 -0.71442,5.71471 -5.20443,6.73523 h 14.28672 l -5.20442,-6.73523 -0.71442,-5.71471 z"
       style="fill:#f4efee;fill-opacity:1;fill-rule:nonzero;stroke:#000000;stroke-width:0.49814;stroke-linecap:butt;stroke-linejoin:round;stroke-miterlimit:10;stroke-dasharray:none;stroke-opacity:1"
       transform="matrix(1.0666667,0,0,-1.0666667,183.52853,158.05813)" />
    <path
       id="path45"
       d="m 102.78346,-69.30278 h 2.75533"
       style="fill:#f4efee;fill-opacity:1;fill-rule:nonzero;stroke:#000000;stroke-width:0.49814;stroke-linecap:butt;stroke-linejoin:round;stroke-miterlimit:10;stroke-dasharray:none;stroke-opacity:1"
       transform="matrix(1.0666667,0,0,-1.0666667,183.52853,158.05813)" />
    <path
       id="path46"
       d="m 106.3552,-67.66997 2.55122,4.08187"
       style="fill:#f4efee;fill-opacity:1;fill-rule:nonzero;stroke:#000000;stroke-width:0.49814;stroke-linecap:butt;stroke-linejoin:round;stroke-miterlimit:10;stroke-dasharray:none;stroke-opacity:1"
       transform="matrix(1.0666667,0,0,-1.0666667,183.52853,158.05813)" />
    <path
       id="path47"
       d="m 112.38814,-60.7525 h -15.3315 c -0.2751,0 -0.49814,-0.22304 -0.49814,-0.49814 v -0.79701 c 0,-0.27512 0.22304,-0.49814 0.49814,-0.49814 h 15.3315 c 0.27511,0 0.49814,0.22302 0.49814,0.49814 v 0.79701 c 0,0.2751 -0.22303,0.49814 -0.49814,0.49814 z"
       style="fill:#f4efee;fill-opacity:1;fill-rule:nonzero;stroke:#000000;stroke-width:0.49814;stroke-linecap:butt;stroke-linejoin:round;stroke-miterlimit:10;stroke-dasharray:none;stroke-opacity:1"
       transform="matrix(1.0666667,0,0,-1.0666667,183.52853,158.05813)" />
    <path
       id="path48"
       d="m 99.61996,-60.42111 1.61396,1.61403 h -1.00873 v 3.4884 h -1.21043 v -3.4884 h -1.00873 z"
       style="fill:#00ff00;fill-opacity:1;fill-rule:nonzero;stroke:#000000;stroke-width:0.3985;stroke-linecap:butt;stroke-linejoin:round;stroke-miterlimit:10;stroke-dasharray:none;stroke-opacity:1"
       transform="matrix(1.0666667,0,0,-1.0666667,183.52853,158.05813)" />
    <path
       id="path49"
       d="m 104.7224,-60.42111 1.61393,1.61403 h -1.00871 v 3.4884 h -1.21045 v -3.4884 h -1.00873 z"
       style="fill:#00ff00;fill-opacity:1;fill-rule:nonzero;stroke:#000000;stroke-width:0.3985;stroke-linecap:butt;stroke-linejoin:round;stroke-miterlimit:10;stroke-dasharray:none;stroke-opacity:1"
       transform="matrix(1.0666667,0,0,-1.0666667,183.52853,158.05813)" />
    <path
       id="path50"
       d="m 109.82481,-60.42111 1.61396,1.61403 h -1.00873 v 3.4884 h -1.21045 v -3.4884 h -1.00873 z"
       style="fill:#00ff00;fill-opacity:1;fill-rule:nonzero;stroke:#000000;stroke-width:0.3985;stroke-linecap:butt;stroke-linejoin:round;stroke-miterlimit:10;stroke-dasharray:none;stroke-opacity:1"
       transform="matrix(1.0666667,0,0,-1.0666667,183.52853,158.05813)" />
    <path
       id="path51"
       d="m 104.7224,-80.89807 1.97258,1.97267 h -1.23287 v 3.12975 h -1.47943 v -3.12975 h -1.23286 z"
       style="fill:#00ff00;fill-opacity:1;fill-rule:nonzero;stroke:#000000;stroke-width:0.3985;stroke-linecap:butt;stroke-linejoin:round;stroke-miterlimit:10;stroke-dasharray:none;stroke-opacity:1"
       transform="matrix(1.0666667,0,0,-1.0666667,183.52853,158.05813)" />
    <path
       id="path52"
       d="m -77.5242,-35.96548 h -32.17995 c -1.10046,0 -1.99255,-0.89209 -1.99255,-1.99256 v -32.17995 c 0,-1.10046 0.89209,-1.99255 1.99255,-1.99255 h 32.17995 c 1.10048,0 1.99255,0.89209 1.99255,1.99255 v 32.17995 c 0,1.10047 -0.89207,1.99256 -1.99255,1.99256 z"
       style="fill:#8f7874;fill-opacity:1;fill-rule:nonzero;stroke:none"
       transform="matrix(1.0666667,0,0,-1.0666667,183.52853,158.05813)" />
    <path
       id="path53"
       d="m -78.81938,-39.25322 h -29.58959 V -68.8428 h 29.58959 z"
       style="fill:#ffffff;fill-opacity:1;fill-rule:nonzero;stroke:none"
       transform="matrix(1.0666667,0,0,-1.0666667,183.52853,158.05813)" />
    <path
       id="path54"
       d="m -81.55916,-41.993 h -24.11001 v -24.11001 h 24.11001 z"
       style="fill:#d2c9c7;fill-opacity:1;fill-rule:nonzero;stroke:none"
       transform="matrix(1.0666667,0,0,-1.0666667,183.52853,158.05813)" />
    <path
       id="path55"
       d="M 7.9126065,-6.021147 C 7.5663707,-7.9387607 6.4743963,-8.8709339 4.5567827,-8.8709339 c -1.171875,0 -2.1040483,0.3728693 -2.7698864,1.0919744 -0.7723722,0.8522727 -1.19850852,2.1040483 -1.19850852,3.515625 0,1.4382102 0.42613632,2.6633523 1.25177562,3.51562498 0.665838,0.69247159 1.5447443,1.01207387 2.6633522,1.01207387 2.1306818,0 3.3291904,-1.14524148 3.5955256,-3.43572445 H 6.9537997 c -0.1065341,0.5859375 -0.2130682,0.9854404 -0.3995028,1.3316762 -0.3462358,0.7191051 -1.0919745,1.14524143 -2.0241478,1.14524143 -1.7311789,0 -2.8497869,-1.41157673 -2.8497869,-3.56889203 0,-2.2372159 1.0653409,-3.6221591 2.7432529,-3.6221591 0.7191051,0 1.3583096,0.2130682 1.7311789,0.559304 0.3196023,0.2929687 0.506037,0.665838 0.6392046,1.3050426 z m 2.9296875,2.3171165 h 2.716619 c 0.692472,0 1.225142,-0.1864347 1.704546,-0.6125711 0.53267,-0.4794034 0.745738,-1.0387073 0.745738,-1.837713 0,-1.6512784 -0.958806,-2.5568182 -2.689985,-2.5568182 H 9.7236861 v 8.70916192 h 1.1186079 z m 0,-0.9854404 V -7.752326 h 2.317117 c 1.06534,0 1.677911,0.5859375 1.677911,1.5447443 0,0.9588068 -0.612571,1.5181108 -1.677911,1.5181108 z m 12.371271,-4.0216619 v 6.1257102 c 0,1.171875 -0.852272,1.89098013 -2.263849,1.89098013 -0.639205,0 -1.171875,-0.15980114 -1.571378,-0.47940343 -0.426136,-0.3196023 -0.639204,-0.7723721 -0.639204,-1.4115767 v -6.1257102 h -1.118608 v 6.1257102 c 0,1.75781251 1.278409,2.84978695 3.32919,2.84978695 2.050781,0 3.382457,-1.11860796 3.382457,-2.84978695 v -6.1257102 z m 0,0"
       style="fill:#000000;fill-opacity:1;fill-rule:nonzero;stroke:none"
       aria-label="CPU"
       transform="matrix(0.58666667,0,0,0.58666667,76.272,218.216)" />
    <path
       id="path56"
       d="m -107.75244,-26.53935 h -1.64385 v -8.21932 h 1.64385 z"
       style="fill:#8f7874;fill-opacity:1;fill-rule:nonzero;stroke:none"
       transform="matrix(1.0666667,0,0,-1.0666667,183.52853,158.05813)" />
    <path
       id="path57"
       d="m -101.99875,-26.53935 h -1.64385 v -8.21932 h 1.64385 z"
       style="fill:#8f7874;fill-opacity:1;fill-rule:nonzero;stroke:none"
       transform="matrix(1.0666667,0,0,-1.0666667,183.52853,158.05813)" />
    <path
       id="path58"
       d="m -96.24446,-26.53935 h -1.64384 v -8.21932 h 1.64384 z"
       style="fill:#8f7874;fill-opacity:1;fill-rule:nonzero;stroke:none"
       transform="matrix(1.0666667,0,0,-1.0666667,183.52853,158.05813)" />
    <path
       id="path59"
       d="m -90.49077,-26.53935 h -1.64386 v -8.21932 h 1.64386 z"
       style="fill:#8f7874;fill-opacity:1;fill-rule:nonzero;stroke:none"
       transform="matrix(1.0666667,0,0,-1.0666667,183.52853,158.05813)" />
    <path
       id="path60"
       d="m -84.7365,-26.53935 h -1.64384 v -8.21932 h 1.64384 z"
       style="fill:#8f7874;fill-opacity:1;fill-rule:nonzero;stroke:none"
       transform="matrix(1.0666667,0,0,-1.0666667,183.52853,158.05813)" />
    <path
       id="path61"
       d="m -79.36617,-26.53935 h -1.64384 v -8.21932 h 1.64384 z"
       style="fill:#8f7874;fill-opacity:1;fill-rule:nonzero;stroke:none"
       transform="matrix(1.0666667,0,0,-1.0666667,183.52853,158.05813)" />
    <path
       id="path62"
       d="m -107.75244,-73.33734 h -1.64385 v -8.21932 h 1.64385 z"
       style="fill:#8f7874;fill-opacity:1;fill-rule:nonzero;stroke:none"
       transform="matrix(1.0666667,0,0,-1.0666667,183.52853,158.05813)" />
    <path
       id="path63"
       d="m -101.99875,-73.33734 h -1.64385 v -8.21932 h 1.64385 z"
       style="fill:#8f7874;fill-opacity:1;fill-rule:nonzero;stroke:none"
       transform="matrix(1.0666667,0,0,-1.0666667,183.52853,158.05813)" />
    <path
       id="path64"
       d="m -96.24446,-73.33734 h -1.64384 v -8.21932 h 1.64384 z"
       style="fill:#8f7874;fill-opacity:1;fill-rule:nonzero;stroke:none"
       transform="matrix(1.0666667,0,0,-1.0666667,183.52853,158.05813)" />
    <path
       id="path65"
       d="m -90.49077,-73.33734 h -1.64386 v -8.21932 h 1.64386 z"
       style="fill:#8f7874;fill-opacity:1;fill-rule:nonzero;stroke:none"
       transform="matrix(1.0666667,0,0,-1.0666667,183.52853,158.05813)" />
    <path
       id="path66"
       d="m -84.7365,-73.33734 h -1.64384 v -8.21932 h 1.64384 z"
       style="fill:#8f7874;fill-opacity:1;fill-rule:nonzero;stroke:none"
       transform="matrix(1.0666667,0,0,-1.0666667,183.52853,158.05813)" />
    <path
       id="path67"
       d="m -79.36617,-73.33734 h -1.64384 v -8.21932 h 1.64384 z"
       style="fill:#8f7874;fill-opacity:1;fill-rule:nonzero;stroke:none"
       transform="matrix(1.0666667,0,0,-1.0666667,183.52853,158.05813)" />
    <path
       id="path68"
       d="m -112.90352,-38.2659 h -8.21931 v -1.64384 h 8.21931 z"
       style="fill:#8f7874;fill-opacity:1;fill-rule:nonzero;stroke:none"
       transform="matrix(1.0666667,0,0,-1.0666667,183.52853,158.05813)" />
    <path
       id="path69"
       d="m -112.90352,-44.01959 h -8.21931 v -1.64385 h 8.21931 z"
       style="fill:#8f7874;fill-opacity:1;fill-rule:nonzero;stroke:none"
       transform="matrix(1.0666667,0,0,-1.0666667,183.52853,158.05813)" />
    <path
       id="path70"
       d="m -112.90352,-49.77386 h -8.21931 v -1.64386 h 8.21931 z"
       style="fill:#8f7874;fill-opacity:1;fill-rule:nonzero;stroke:none"
       transform="matrix(1.0666667,0,0,-1.0666667,183.52853,158.05813)" />
    <path
       id="path71"
       d="m -112.90352,-55.52756 h -8.21931 v -1.64386 h 8.21931 z"
       style="fill:#8f7874;fill-opacity:1;fill-rule:nonzero;stroke:none"
       transform="matrix(1.0666667,0,0,-1.0666667,183.52853,158.05813)" />
    <path
       id="path72"
       d="m -112.90352,-61.28183 h -8.21931 v -1.64384 h 8.21931 z"
       style="fill:#8f7874;fill-opacity:1;fill-rule:nonzero;stroke:none"
       transform="matrix(1.0666667,0,0,-1.0666667,183.52853,158.05813)" />
    <path
       id="path73"
       d="m -112.90352,-66.65216 h -8.21931 V -68.296 h 8.21931 z"
       style="fill:#8f7874;fill-opacity:1;fill-rule:nonzero;stroke:none"
       transform="matrix(1.0666667,0,0,-1.0666667,183.52853,158.05813)" />
    <path
       id="path74"
       d="m -66.1055,-38.2659 h -8.21931 v -1.64384 h 8.21931 z"
       style="fill:#8f7874;fill-opacity:1;fill-rule:nonzero;stroke:none"
       transform="matrix(1.0666667,0,0,-1.0666667,183.52853,158.05813)" />
    <path
       id="path75"
       d="m -66.1055,-44.01959 h -8.21931 v -1.64385 h 8.21931 z"
       style="fill:#8f7874;fill-opacity:1;fill-rule:nonzero;stroke:none"
       transform="matrix(1.0666667,0,0,-1.0666667,183.52853,158.05813)" />
    <path
       id="path76"
       d="m -66.1055,-49.77386 h -8.21931 v -1.64386 h 8.21931 z"
       style="fill:#8f7874;fill-opacity:1;fill-rule:nonzero;stroke:none"
       transform="matrix(1.0666667,0,0,-1.0666667,183.52853,158.05813)" />
    <path
       id="path77"
       d="m -66.1055,-55.52756 h -8.21931 v -1.64386 h 8.21931 z"
       style="fill:#8f7874;fill-opacity:1;fill-rule:nonzero;stroke:none"
       transform="matrix(1.0666667,0,0,-1.0666667,183.52853,158.05813)" />
    <path
       id="path78"
       d="m -66.1055,-61.28183 h -8.21931 v -1.64384 h 8.21931 z"
       style="fill:#8f7874;fill-opacity:1;fill-rule:nonzero;stroke:none"
       transform="matrix(1.0666667,0,0,-1.0666667,183.52853,158.05813)" />
    <path
       id="path79"
       d="m -66.1055,-66.65216 h -8.21931 V -68.296 h 8.21931 z"
       style="fill:#8f7874;fill-opacity:1;fill-rule:nonzero;stroke:none"
       transform="matrix(1.0666667,0,0,-1.0666667,183.52853,158.05813)" />
    <path
       id="path80"
       d="M 57.4557,80.88538 C 80.9713,64.1862 96.07323,38.02826 98.77669,9.31267"
       style="fill:none;stroke:#99def9;stroke-width:6.97394;stroke-linecap:butt;stroke-linejoin:round;stroke-miterlimit:10;stroke-dasharray:none;stroke-opacity:1"
       transform="matrix(1.0666667,0,0,-1.0666667,183.52853,158.05813)" />
    <path
       id="path81"
       d="M 7.79115,0 1.24535,4.85225 V 0 -4.85225 Z"
       style="fill:#99def9;fill-opacity:1;fill-rule:nonzero;stroke:#99def9;stroke-width:2.49069;stroke-linecap:butt;stroke-linejoin:miter;stroke-miterlimit:10;stroke-dasharray:none;stroke-opacity:1"
       transform="matrix(-0.89589333,-0.57883733,-0.57883733,0.89589333,245.3682,72.174944)" />
    <path
       id="path82"
       d="M 7.79115,0 1.24535,4.85225 V 0 -4.85225 Z"
       style="fill:#99def9;fill-opacity:1;fill-rule:nonzero;stroke:#99def9;stroke-width:2.49069;stroke-linecap:butt;stroke-linejoin:miter;stroke-miterlimit:10;stroke-dasharray:none;stroke-opacity:1"
       transform="matrix(0.05330133,1.0653013,1.0653013,-0.05330133,288.82556,147.4448)" />
    <path
       id="path83"
       d="m 41.32065,-90.20079 c -26.21991,-12.01518 -56.42444,-12.01476 -82.64409,0.0012"
       style="fill:none;stroke:#99def9;stroke-width:6.97394;stroke-linecap:butt;stroke-linejoin:round;stroke-miterlimit:10;stroke-dasharray:none;stroke-opacity:1"
       transform="matrix(1.0666667,0,0,-1.0666667,183.52853,158.05813)" />
    <path
       id="path84"
       d="M 7.79115,0 1.24535,4.85225 V 0 -4.85225 Z"
       style="fill:#99def9;fill-opacity:1;fill-rule:nonzero;stroke:#99def9;stroke-width:2.49069;stroke-linecap:butt;stroke-linejoin:miter;stroke-miterlimit:10;stroke-dasharray:none;stroke-opacity:1"
       transform="matrix(0.949248,-0.48642133,-0.48642133,-0.949248,226.9854,254.55435)" />
    <path
       id="path85"
       d="M 7.79115,0 1.24535,4.85225 V 0 -4.85225 Z"
       style="fill:#99def9;fill-opacity:1;fill-rule:nonzero;stroke:#99def9;stroke-width:2.49069;stroke-linecap:butt;stroke-linejoin:miter;stroke-miterlimit:10;stroke-dasharray:none;stroke-opacity:1"
       transform="matrix(-0.94923733,-0.48645333,-0.48645333,0.94923733,140.0715,254.55465)" />
    <path
       id="path86"
       d="m -98.7764,9.31575 c 2.70435,28.71536 17.80701,54.87289 41.3232,71.57143"
       style="fill:none;stroke:#99def9;stroke-width:6.97394;stroke-linecap:butt;stroke-linejoin:round;stroke-miterlimit:10;stroke-dasharray:none;stroke-opacity:1"
       transform="matrix(1.0666667,0,0,-1.0666667,183.52853,158.05813)" />
    <path
       id="path87"
       d="M 7.79115,0 1.24535,4.85225 V 0 -4.85225 Z"
       style="fill:#99def9;fill-opacity:1;fill-rule:nonzero;stroke:#99def9;stroke-width:2.49069;stroke-linecap:butt;stroke-linejoin:miter;stroke-miterlimit:10;stroke-dasharray:none;stroke-opacity:1"
       transform="matrix(-0.05333333,1.06528,1.06528,0.05333333,78.23184,147.44497)" />
    <path
       id="path88"
       d="M 7.79115,0 1.24535,4.85225 V 0 -4.85225 Z"
       style="fill:#99def9;fill-opacity:1;fill-rule:nonzero;stroke:#99def9;stroke-width:2.49069;stroke-linecap:butt;stroke-linejoin:miter;stroke-miterlimit:10;stroke-dasharray:none;stroke-opacity:1"
       transform="matrix(0.89591467,-0.57882667,-0.57882667,-0.89591467,121.6887,72.174784)" />
    <path
       id="path89"
       d="m 4.7455312,-4.103 c 0,-1.1425781 -0.7910156,-1.8017578 -2.1240234,-1.8017578 -1.2744141,0 -2.06542968,0.6445312 -2.06542968,1.6992187 0,0.7177735 0.38085938,1.1572266 1.14257808,1.3623047 l 1.4355469,0.3808594 c 0.7324219,0.1904297 1.069336,0.4833984 1.069336,0.9375 0,0.3076172 -0.1611329,0.62988281 -0.4101563,0.80566406 -0.234375,0.16113282 -0.6005859,0.24902344 -1.0693359,0.24902344 -0.6298828,0 -1.0546875,-0.14648437 -1.3330078,-0.48339844 C 1.1713125,-1.2172578 1.0687734,-1.4955781 1.0834219,-1.8471406 H 0.38029687 c 0.0146484,0.5273437 0.1171875,0.87890623 0.3515625,1.20117185 0.39550783,0.54199219 1.05468753,0.83496094 1.94824223,0.83496094 0.6884765,0 1.2597656,-0.16113281 1.6259765,-0.45410156 0.3955078,-0.30761719 0.6445313,-0.83496093 0.6445313,-1.33300783 0,-0.7177734 -0.4541016,-1.2451172 -1.2304688,-1.4501953 L 2.2552969,-3.4438203 C 1.5521719,-3.63425 1.3031484,-3.8539766 1.3031484,-4.3080781 c 0,-0.5859375 0.5126953,-0.9814453 1.2890625,-0.9814453 0.9228516,0 1.4501953,0.4248047 1.4501953,1.1865234 z m 4.8339844,3.70605469 c -0.073242,0.0146484 -0.102539,0.0146484 -0.1464844,0.0146484 -0.234375,0 -0.3515625,-0.1171875 -0.3515625,-0.32226563 V -3.1508516 c 0,-0.7470703 -0.5419921,-1.1425781 -1.5673828,-1.1425781 -0.6152343,0 -1.1132812,0.1757813 -1.3916015,0.4833985 -0.1904297,0.2197265 -0.2783203,0.4541015 -0.2929688,0.8642578 h 0.6738281 c 0.058594,-0.5126953 0.366211,-0.7324219 0.9814454,-0.7324219 0.6005859,0 0.9375,0.2197266 0.9375,0.6152344 v 0.1757812 c 0,0.2783203 -0.1757813,0.3955078 -0.703125,0.46875 -0.9375,0.1171875 -1.0839844,0.1464844 -1.3330079,0.2490235 -0.4833984,0.2050781 -0.7324218,0.571289 -0.7324218,1.1132812 0,0.76171871 0.5273437,1.24511715 1.3623047,1.24511715 0.5273437,0 0.9521484,-0.19042969 1.4208984,-0.61523438 0.058594,0.41015625 0.2636719,0.61523438 0.6884766,0.61523438 0.1318359,0 0.234375,-0.0292969 0.4541015,-0.0732422 z M 8.4222891,-1.3197969 c 0,0.2197266 -0.073242,0.36621096 -0.2636719,0.54199221 -0.2783203,0.24902344 -0.600586,0.38085938 -0.9960938,0.38085938 -0.5126953,0 -0.8203125,-0.24902344 -0.8203125,-0.67382809 0,-0.4394532 0.2929688,-0.6591797 1.0107422,-0.7617188 0.703125,-0.102539 0.834961,-0.1318359 1.069336,-0.234375 z m 1.8823239,-2.8564453 v 4.1748047 h 0.673828 v -2.6220703 c 0,-0.6005859 0.439454,-1.0986328 0.981446,-1.0986328 0.483398,0 0.761718,0.3076172 0.761718,0.8496094 v 2.8710937 h 0.673829 v -2.6220703 c 0,-0.6005859 0.439453,-1.0986328 0.981445,-1.0986328 0.483398,0 0.776367,0.3222656 0.776367,0.8496094 v 2.8710937 h 0.673828 v -3.1347656 c 0,-0.7470703 -0.439453,-1.1572266 -1.21582,-1.1572266 -0.556641,0 -0.893555,0.1611328 -1.289063,0.6298828 C 13.073168,-4.103 12.750902,-4.2934297 12.20891,-4.2934297 c -0.571289,0 -0.9375,0.2050781 -1.289062,0.703125 v -0.5859375 z m 6.507569,5.9179688 h 0.673828 v -2.18261722 c 0.351562,0.42480468 0.74707,0.62988281 1.289062,0.62988281 1.069336,0 1.78711,-0.87890625 1.78711,-2.21191409 0,-1.3916015 -0.688477,-2.2705078 -1.801758,-2.2705078 -0.571289,0 -1.025391,0.2490235 -1.333008,0.7470703 v -0.6298828 h -0.615234 z m 1.831054,-5.4199219 c 0.747071,0 1.215821,0.6445312 1.215821,1.640625 0,0.9521484 -0.483399,1.59667968 -1.215821,1.59667968 -0.688476,0 -1.157226,-0.62988278 -1.157226,-1.61132808 0,-0.9814454 0.46875,-1.6259766 1.157226,-1.6259766 z m 3.391114,-2.1386719 h -0.673829 v 5.8154297 h 0.673829 z m 4.639892,3.9550781 c 0,-0.6445312 -0.04395,-1.0253906 -0.161133,-1.3330078 -0.27832,-0.6884765 -0.908203,-1.0986328 -1.699218,-1.0986328 -1.157227,0 -1.904297,0.8935547 -1.904297,2.2558594 0,1.37695311 0.717773,2.22656249 1.889648,2.22656249 0.966797,0 1.625977,-0.54199219 1.78711,-1.45019529 h -0.673829 c -0.175781,0.54199216 -0.55664,0.83496091 -1.083984,0.83496091 -0.424805,0 -0.776367,-0.19042968 -1.010742,-0.54199218 C 23.656664,-1.2172578 23.612719,-1.4516328 23.59807,-1.8617891 Z m -3.061523,-0.5419921 c 0.05859,-0.7763672 0.527343,-1.2744141 1.201172,-1.2744141 0.644531,0 1.157226,0.5419922 1.157226,1.2158203 0,0.029297 0,0.043945 -0.01465,0.058594 z M 30.6989,-2.6528047 h 3.164063 V -3.2973359 H 30.6989 v -1.8603516 h 3.28125 v -0.6591797 h -4.02832 v 5.8154297 h 4.160156 V -0.66061719 H 30.6989 Z m 5.903321,-1.5234375 h -0.688477 v -0.6591797 c 0,-0.2783203 0.161133,-0.4248047 0.46875,-0.4248047 0.04395,0 0.07324,0 0.219727,0.014648 v -0.5419922 c -0.146485,-0.043945 -0.234375,-0.043945 -0.366211,-0.043945 -0.615235,0 -0.981446,0.3515625 -0.981446,0.9521484 v 0.703125 h -0.55664 V -3.63425 h 0.55664 v 3.6328125 h 0.65918 V -3.63425 h 0.688477 z m 2.171631,0 h -0.688477 v -0.6591797 c 0,-0.2783203 0.161133,-0.4248047 0.454102,-0.4248047 0.05859,0 0.08789,0 0.234375,0.014648 v -0.5419922 c -0.146485,-0.043945 -0.234375,-0.043945 -0.366211,-0.043945 -0.615235,0 -0.981446,0.3515625 -0.981446,0.9521484 v 0.703125 h -0.55664 V -3.63425 h 0.55664 v 3.6328125 h 0.65918 V -3.63425 h 0.688477 z m 1.464843,0 h -0.659179 v 4.1748047 h 0.659179 z m 0,-1.640625 h -0.659179 v 0.8496094 h 0.659179 z m 4.262696,3.046875 c -0.0293,-0.4101562 -0.117188,-0.6738281 -0.278321,-0.9082031 -0.27832,-0.3808594 -0.791015,-0.6152344 -1.362304,-0.6152344 -1.12793,0 -1.860352,0.8935547 -1.860352,2.2705078 0,1.34765628 0.717773,2.21191409 1.845703,2.21191409 0.996094,0 1.625977,-0.60058594 1.699219,-1.62597659 h -0.65918 c -0.117187,0.67382815 -0.454101,1.01074221 -1.02539,1.01074221 -0.732422,0 -1.171875,-0.60058591 -1.171875,-1.59667971 0,-1.040039 0.439453,-1.6552734 1.157226,-1.6552734 0.556641,0 0.908203,0.3222656 0.996094,0.9082031 z m 1.435546,-1.40625 h -0.673828 v 4.1748047 h 0.673828 z m 0,-1.640625 h -0.673828 v 0.8496094 h 0.673828 z m 4.654542,3.9550781 c 0,-0.6445312 -0.04395,-1.0253906 -0.161133,-1.3330078 -0.278321,-0.6884765 -0.908203,-1.0986328 -1.699219,-1.0986328 -1.157227,0 -1.904297,0.8935547 -1.904297,2.2558594 0,1.37695311 0.717774,2.22656249 1.889649,2.22656249 0.966796,0 1.625976,-0.54199219 1.787109,-1.45019529 H 49.82976 c -0.175781,0.54199216 -0.556641,0.83496091 -1.083985,0.83496091 -0.424804,0 -0.776367,-0.19042968 -1.010742,-0.54199218 C 47.5739,-1.2172578 47.529955,-1.4516328 47.515307,-1.8617891 Z m -3.061524,-0.5419921 c 0.05859,-0.7763672 0.527344,-1.2744141 1.201172,-1.2744141 0.644531,0 1.157227,0.5419922 1.157227,1.2158203 0,0.029297 0,0.043945 -0.01465,0.058594 z m 3.962402,-1.772461 v 4.1748047 h 0.673829 v -2.2998047 c 0,-0.8496094 0.439453,-1.4208984 1.127929,-1.4208984 0.527344,0 0.864258,0.3222656 0.864258,0.8349609 v 2.8857422 h 0.65918 v -3.1494141 c 0,-0.703125 -0.512696,-1.1425781 -1.31836,-1.1425781 -0.629882,0 -1.02539,0.234375 -1.391601,0.8203125 v -0.703125 z m 7.624512,1.40625 c -0.0293,-0.4101562 -0.117187,-0.6738281 -0.27832,-0.9082031 -0.27832,-0.3808594 -0.791016,-0.6152344 -1.362305,-0.6152344 -1.12793,0 -1.860351,0.8935547 -1.860351,2.2705078 0,1.34765628 0.717773,2.21191409 1.845703,2.21191409 0.996093,0 1.625976,-0.60058594 1.699218,-1.62597659 h -0.659179 c -0.117188,0.67382815 -0.454102,1.01074221 -1.025391,1.01074221 -0.732422,0 -1.171875,-0.60058591 -1.171875,-1.59667971 0,-1.040039 0.439453,-1.6552734 1.157227,-1.6552734 0.55664,0 0.908203,0.3222656 0.996093,0.9082031 z m 3.328858,-1.40625 -1.157227,3.25195314 -1.069336,-3.25195314 h -0.703125 l 1.40625,4.18945314 -0.249023,0.65917969 c -0.102539,0.29296875 -0.263672,0.41015627 -0.541993,0.41015627 -0.08789,0 -0.205078,-0.014649 -0.351562,-0.043945 v 0.6005859 c 0.146484,0.058594 0.27832,0.1025391 0.454101,0.1025391 0.219727,0 0.439454,-0.073242 0.615235,-0.2050782 0.205078,-0.1464843 0.336914,-0.3222656 0.454101,-0.65917965 L 63.1635,-4.1762422 Z m 0,0"
       style="fill:#000000;fill-opacity:1;fill-rule:nonzero;stroke:none"
       aria-label="SampleEffciency"
       transform="matrix(1.0666667,0,0,1.0666667,305.6256,107.37653)" />
    <path
       id="path90"
       d="m 114.26874,61.14487 c -3.80315,-8.15583 -3.80315,-14.92009 0,-23.07593"
       style="fill:none;stroke:#bf80bf;stroke-width:1.99255;stroke-linecap:butt;stroke-linejoin:round;stroke-miterlimit:10;stroke-dasharray:none;stroke-opacity:1"
       transform="matrix(1.0666667,0,0,-1.0666667,183.52853,158.05813)" />
    <path
       id="path91"
       d="m 90.20729,49.6069 21.20906,-1e-5"
       style="fill:none;stroke:#b366b3;stroke-width:1.49442;stroke-linecap:butt;stroke-linejoin:round;stroke-miterlimit:10;stroke-dasharray:none;stroke-opacity:1"
       transform="matrix(1.0666667,0,0,-1.0666667,183.52853,158.05813)" />
    <path
       id="path92"
       d="M 7.77612,0 2.43257,2.77069 0.65138,0 2.43257,-2.77069 Z"
       style="fill:#ffffff;fill-opacity:1;fill-rule:nonzero;stroke:#b366b3;stroke-width:1.0959;stroke-linecap:butt;stroke-linejoin:round;stroke-miterlimit:10;stroke-dasharray:none;stroke-opacity:1"
       transform="matrix(-1.0666667,0,0,1.0666667,280.86954,105.14411)" />
    <path
       id="path93"
       d="M 1.5522832,-5.8137344 H 0.79056445 V 0.00169531 H 1.5522832 Z m 2.4938965,0 -1.8896484,5.97656252 h 0.4394531 l 1.875,-5.97656252 z m 3.4899902,-0.087891 c -1.6699219,0 -2.7978515,1.2304687 -2.7978515,3.046875 0,1.8164062 1.1279296,3.046875 2.7978515,3.046875 0.703125,0 1.3330078,-0.21972656 1.8017578,-0.61523438 0.6298828,-0.54199218 1.0107423,-1.43554692 1.0107423,-2.38769532 0,-1.875 -1.1132813,-3.0908203 -2.8125001,-3.0908203 z m 0,0.6445312 c 1.2597656,0 2.0654297,0.9667969 2.0654297,2.4316407 0,1.40625 -0.8349609,2.35839841 -2.0654297,2.35839841 -1.2304687,0 -2.0654297,-0.95214841 -2.0654297,-2.38769531 0,-1.4355469 0.834961,-2.4023438 2.0654297,-2.4023438 z m 5.9399411,5.25878911 h 2.622071 c 0.541992,0 0.952148,-0.14648437 1.259765,-0.48339844 0.292969,-0.30761718 0.454102,-0.71777347 0.454102,-1.17187497 0,-0.703125 -0.322266,-1.1279297 -1.054688,-1.40625 0.512696,-0.2490235 0.805664,-0.6884766 0.805664,-1.2744141 0,-0.4248047 -0.161132,-0.7910156 -0.46875,-1.0693359 C 16.786658,-5.6818988 16.39115,-5.8137348 15.83451,-5.8137348 H 13.476111 Z M 14.223182,-3.308852 v -1.8457031 h 1.420898 c 0.424805,0 0.65918,0.058594 0.849609,0.2050781 0.205079,0.1611328 0.322266,0.3955078 0.322266,0.7177735 0,0.3076172 -0.117187,0.5566406 -0.322266,0.7177734 -0.190429,0.1464844 -0.424804,0.2050781 -0.849609,0.2050781 z m 0,2.65136722 V -2.6496719 h 1.801757 c 0.366211,0 0.600586,0.087891 0.776368,0.2783203 0.175781,0.1757813 0.263672,0.4394532 0.263672,0.7177735 0,0.2783203 -0.08789,0.5419922 -0.263672,0.71777341 -0.175782,0.19042969 -0.410157,0.27832031 -0.776368,0.27832031 z M 20.33158,-4.2902969 c -1.171875,0 -1.875,0.834961 -1.875,2.241211 0,1.39160152 0.688477,2.2412109 1.889649,2.2412109 1.157226,0 1.875,-0.84960938 1.875,-2.2119141 0,-1.4501953 -0.688477,-2.2705078 -1.889649,-2.2705078 z m 0.01465,0.6152344 c 0.74707,0 1.186523,0.6152344 1.186523,1.640625 0,0.9814453 -0.454102,1.61132812 -1.186523,1.61132812 -0.747071,0 -1.201172,-0.61523442 -1.201172,-1.62597652 0,-1.0107422 0.454101,-1.6259766 1.201172,-1.6259766 z m 6.086425,3.67675781 V -4.1731094 h -0.659179 v 2.3730469 c 0,0.84960937 -0.439454,1.40625 -1.142579,1.40625 -0.527343,0 -0.849609,-0.32226563 -0.849609,-0.8203125 V -4.1731094 H 23.10746 v 3.22265627 c 0,0.68847657 0.527344,1.14257813 1.333008,1.14257813 0.615234,0 1.010742,-0.21972656 1.391601,-0.77636719 v 0.5859375 z m 1.149903,-4.17480471 v 4.17480471 h 0.673828 V -2.2981094 c 0,-0.8496094 0.439453,-1.4208984 1.127929,-1.4208984 0.527344,0 0.864258,0.3222656 0.864258,0.8349609 v 2.88574221 h 0.65918 V -3.1477188 c 0,-0.703125 -0.512695,-1.1425781 -1.318359,-1.1425781 -0.629883,0 -1.025391,0.234375 -1.391602,0.8203125 v -0.703125 z m 7.814941,-1.640625 h -0.65918 v 2.1679688 c -0.27832,-0.4248047 -0.717773,-0.6445313 -1.274414,-0.6445313 -1.083984,0 -1.801758,0.8642578 -1.801758,2.1972656 0,1.40625005 0.688477,2.2851563 1.816407,2.2851563 0.571289,0 0.981445,-0.21972656 1.333008,-0.74707031 v 0.55664062 h 0.585937 z m -1.831055,2.1386719 c 0.717774,0 1.171875,0.6445312 1.171875,1.640625 0,0.9667969 -0.454101,1.59667969 -1.157226,1.59667969 -0.732422,0 -1.230469,-0.64453129 -1.230469,-1.61132809 0,-0.9814454 0.498047,-1.6259766 1.21582,-1.6259766 z m 0,0"
       style="fill:#000000;fill-opacity:1;fill-rule:nonzero;stroke:none"
       aria-label="I/OBound"
       transform="matrix(1.0666667,0,0,1.0666667,164.3872,293.54507)" />
    <path
       id="path94"
       d="m -11.53796,-117.63905 c 8.15583,3.80313 14.92009,3.80313 23.07592,0"
       style="fill:none;stroke:#bf80bf;stroke-width:1.99255;stroke-linecap:butt;stroke-linejoin:round;stroke-miterlimit:10;stroke-dasharray:none;stroke-opacity:1"
       transform="matrix(1.0666667,0,0,-1.0666667,183.52853,158.05813)" />
    <path
       id="path95"
       d="m 0,-103.49918 v -11.28749"
       style="fill:none;stroke:#b366b3;stroke-width:1.49442;stroke-linecap:butt;stroke-linejoin:round;stroke-miterlimit:10;stroke-dasharray:none;stroke-opacity:1"
       transform="matrix(1.0666667,0,0,-1.0666667,183.52853,158.05813)" />
    <path
       id="path96"
       d="M 7.77612,0 2.43257,2.77069 0.65138,0 2.43257,-2.77069 Z"
       style="fill:#ffffff;fill-opacity:1;fill-rule:nonzero;stroke:#b366b3;stroke-width:1.0959;stroke-linecap:butt;stroke-linejoin:round;stroke-miterlimit:10;stroke-dasharray:none;stroke-opacity:1"
       transform="matrix(0,-1.0666667,-1.0666667,0,183.52853,269.57714)" />
    <path
       id="path97"
       d="m 5.2734375,-4.0151094 c -0.234375,-1.274414 -0.9667969,-1.8896484 -2.2412109,-1.8896484 -0.7763672,0 -1.40625,0.2490234 -1.8310547,0.7177734 -0.52734378,0.5859375 -0.82031252,1.40625 -0.82031252,2.34375 0,0.9667969 0.29296874,1.7871094 0.84960932,2.34375003 0.4394532,0.46875 1.0107422,0.68847656 1.772461,0.68847656 1.4208984,0 2.211914,-0.77636719 2.3876953,-2.31445309 H 4.6289062 c -0.058594,0.3955078 -0.1464843,0.6738281 -0.2636718,0.9082031 -0.234375,0.46874999 -0.7324219,0.7470703 -1.3476563,0.7470703 -1.1572265,0 -1.8896484,-0.9228516 -1.8896484,-2.3730469 0,-1.4941406 0.703125,-2.4169922 1.8164062,-2.4169922 0.46875,0 0.9082032,0.1464844 1.1572266,0.3808594 0.2050781,0.1904297 0.3222656,0.4394531 0.4101562,0.8642578 z m 2.6477051,-0.2783203 c -1.171875,0 -1.875,0.834961 -1.875,2.241211 0,1.39160151 0.6884765,2.24121089 1.8896484,2.24121089 1.1572266,0 1.875,-0.84960938 1.875,-2.21191409 0,-1.4501953 -0.6884765,-2.2705078 -1.8896484,-2.2705078 z m 0.014648,0.6152344 c 0.7470703,0 1.1865235,0.6152344 1.1865235,1.640625 0,0.9814453 -0.4541016,1.61132811 -1.1865235,1.61132811 -0.7470703,0 -1.2011719,-0.61523441 -1.2011719,-1.62597651 0,-1.0107422 0.4541016,-1.6259766 1.2011719,-1.6259766 z m 2.8051764,-0.4980469 v 4.1748047 h 0.673828 v -2.6220703 c 0,-0.6005859 0.439453,-1.0986328 0.981445,-1.0986328 0.483399,0 0.761719,0.3076172 0.761719,0.8496094 v 2.8710937 h 0.673828 v -2.6220703 c 0,-0.6005859 0.439453,-1.0986328 0.981445,-1.0986328 0.483399,0 0.776368,0.3222656 0.776368,0.8496094 v 2.8710937 h 0.673828 v -3.1347656 c 0,-0.7470703 -0.439453,-1.1572266 -1.215821,-1.1572266 -0.55664,0 -0.893554,0.1611328 -1.289062,0.6298828 -0.249024,-0.4394531 -0.571289,-0.6298828 -1.113281,-0.6298828 -0.571289,0 -0.9375,0.2050781 -1.289063,0.703125 v -0.5859375 z m 6.507568,5.9179688 h 0.673828 v -2.18261722 c 0.351563,0.42480468 0.747071,0.62988281 1.289063,0.62988281 1.069336,0 1.787109,-0.87890625 1.787109,-2.21191409 0,-1.3916015 -0.688476,-2.2705078 -1.801758,-2.2705078 -0.571289,0 -1.02539,0.2490235 -1.333007,0.7470703 v -0.6298828 h -0.615235 z m 1.831055,-5.4199219 c 0.74707,0 1.21582,0.6445312 1.21582,1.640625 0,0.9521484 -0.483398,1.59667968 -1.21582,1.59667968 -0.688477,0 -1.157227,-0.62988278 -1.157227,-1.61132808 0,-0.9814454 0.46875,-1.6259766 1.157227,-1.6259766 z m 6.013183,3.6767578 v -4.1748047 h -0.659179 v 2.3730469 c 0,0.84960936 -0.439453,1.40624999 -1.142578,1.40624999 -0.527344,0 -0.84961,-0.32226563 -0.84961,-0.82031249 v -2.9589844 h -0.673828 v 3.22265626 c 0,0.68847657 0.527344,1.14257813 1.333008,1.14257813 0.615234,0 1.010742,-0.21972656 1.391601,-0.77636719 v 0.5859375 z m 2.614747,-4.1748047 h -0.688477 v -1.1425781 h -0.65918 v 1.1425781 h -0.55664 V -3.63425 h 0.55664 v 3.14941406 c 0,0.42480469 0.292969,0.67382813 0.805664,0.67382813 0.161133,0 0.322266,-0.0292969 0.541993,-0.0585938 v -0.55664063 c -0.08789,0.0146484 -0.19043,0.0292969 -0.322266,0.0292969 -0.27832,0 -0.366211,-0.0878906 -0.366211,-0.38085938 V -3.63425 h 0.688477 z m 4.281005,2.3144531 c 0,-0.6445312 -0.04395,-1.0253906 -0.161132,-1.3330078 -0.278321,-0.6884765 -0.908204,-1.0986328 -1.699219,-1.0986328 -1.157227,0 -1.904297,0.8935547 -1.904297,2.2558594 0,1.37695311 0.717773,2.22656249 1.889648,2.22656249 0.966797,0 1.625977,-0.54199219 1.78711,-1.45019529 h -0.673828 c -0.175782,0.54199216 -0.556641,0.83496091 -1.083985,0.83496091 -0.424804,0 -0.776367,-0.19042968 -1.010742,-0.54199218 C 28.970947,-1.2172578 28.927002,-1.4516328 28.912354,-1.8617891 Z m -3.061523,-0.5419921 c 0.05859,-0.7763672 0.527344,-1.2744141 1.201172,-1.2744141 0.644531,0 1.157226,0.5419922 1.157226,1.2158203 0,0.029297 0,0.043945 -0.01465,0.058594 z m 6.243896,2.4023437 h 2.622071 c 0.541992,0 0.952148,-0.14648437 1.259765,-0.48339844 0.292969,-0.30761718 0.454102,-0.71777346 0.454102,-1.17187496 0,-0.703125 -0.322266,-1.1279297 -1.054688,-1.40625 0.512696,-0.2490235 0.805664,-0.6884766 0.805664,-1.2744141 0,-0.4248047 -0.161132,-0.7910156 -0.46875,-1.0693359 -0.307617,-0.2783203 -0.703125,-0.4101563 -1.259765,-0.4101563 h -2.358399 z m 0.747071,-3.3105469 v -1.8457031 h 1.420898 c 0.424805,0 0.65918,0.058594 0.84961,0.2050781 0.205078,0.1611328 0.322265,0.3955078 0.322265,0.7177735 0,0.3076172 -0.117187,0.5566406 -0.322265,0.7177734 -0.19043,0.1464844 -0.424805,0.2050781 -0.84961,0.2050781 z m 0,2.65136721 V -2.6528047 h 1.801758 c 0.36621,0 0.600585,0.087891 0.776367,0.2783203 0.175781,0.1757813 0.263672,0.4394532 0.263672,0.7177735 0,0.2783203 -0.08789,0.5419922 -0.263672,0.7177734 -0.175782,0.19042969 -0.410157,0.27832031 -0.776367,0.27832031 z m 6.108398,-3.63281251 c -1.171875,0 -1.875,0.834961 -1.875,2.241211 0,1.39160151 0.688477,2.24121089 1.889649,2.24121089 1.157226,0 1.875,-0.84960938 1.875,-2.21191409 0,-1.4501953 -0.688477,-2.2705078 -1.889649,-2.2705078 z m 0.01465,0.6152344 c 0.74707,0 1.186523,0.6152344 1.186523,1.640625 0,0.9814453 -0.454102,1.61132811 -1.186523,1.61132811 -0.747071,0 -1.201172,-0.61523441 -1.201172,-1.62597651 0,-1.0107422 0.454101,-1.6259766 1.201172,-1.6259766 z m 6.086425,3.6767578 v -4.1748047 h -0.659179 v 2.3730469 c 0,0.84960936 -0.439453,1.40624999 -1.142578,1.40624999 -0.527344,0 -0.84961,-0.32226563 -0.84961,-0.82031249 v -2.9589844 h -0.673828 v 3.22265626 c 0,0.68847657 0.527344,1.14257813 1.333008,1.14257813 0.615234,0 1.010742,-0.21972656 1.391601,-0.77636719 v 0.5859375 z m 1.149903,-4.1748047 v 4.1748047 h 0.673828 v -2.2998047 c 0,-0.8496094 0.439453,-1.4208984 1.12793,-1.4208984 0.527343,0 0.864257,0.3222656 0.864257,0.8349609 v 2.8857422 h 0.65918 v -3.1494141 c 0,-0.703125 -0.512695,-1.1425781 -1.318359,-1.1425781 -0.629883,0 -1.025391,0.234375 -1.391602,0.8203125 v -0.703125 z m 7.814941,-1.640625 h -0.65918 v 2.1679688 c -0.27832,-0.4248047 -0.717773,-0.6445313 -1.274414,-0.6445313 -1.083984,0 -1.801757,0.8642578 -1.801757,2.1972656 0,1.40625004 0.688476,2.28515629 1.816406,2.28515629 0.571289,0 0.981445,-0.21972656 1.333008,-0.74707031 v 0.55664062 h 0.585937 z m -1.831055,2.1386719 c 0.717774,0 1.171875,0.6445312 1.171875,1.640625 0,0.9667969 -0.454101,1.59667968 -1.157226,1.59667968 -0.732422,0 -1.230469,-0.64453128 -1.230469,-1.61132808 0,-0.9814454 0.498047,-1.6259766 1.21582,-1.6259766 z m 0,0"
       style="fill:#000000;fill-opacity:1;fill-rule:nonzero;stroke:none"
       aria-label="ComputeBound"
       transform="matrix(1.0666667,0,0,1.0666667,0,107.37653)" />
    <path
       id="path98"
       d="m -114.26874,61.14487 c 3.80315,-8.15583 3.80315,-14.92009 0,-23.07593"
       style="fill:none;stroke:#bf80bf;stroke-width:1.99255;stroke-linecap:butt;stroke-linejoin:round;stroke-miterlimit:10;stroke-dasharray:none;stroke-opacity:1"
       transform="matrix(1.0666667,0,0,-1.0666667,183.52853,158.05813)" />
    <path
       id="path99"
       d="m -90.20729,49.6069 -21.20906,-1e-5"
       style="fill:none;stroke:#b366b3;stroke-width:1.49442;stroke-linecap:butt;stroke-linejoin:round;stroke-miterlimit:10;stroke-dasharray:none;stroke-opacity:1"
       transform="matrix(1.0666667,0,0,-1.0666667,183.52853,158.05813)" />
    <path
       id="path100"
       d="M 7.77612,0 2.43257,2.77069 0.65138,0 2.43257,-2.77069 Z"
       style="fill:#ffffff;fill-opacity:1;fill-rule:nonzero;stroke:#b366b3;stroke-width:1.0959;stroke-linecap:butt;stroke-linejoin:round;stroke-miterlimit:10;stroke-dasharray:none;stroke-opacity:1"
       transform="matrix(1.0666667,0,0,-1.0666667,86.187531,105.14411)" />
  </g>
</svg>
