<?xml version="1.0" encoding="UTF-8" standalone="no"?>
<!-- Created with Inkscape (http://www.inkscape.org/) -->

<svg
   version="1.1"
   id="svg1"
   width="425.78534"
   height="177.51199"
   viewBox="0 0 425.78534 177.51199"
   xmlns="http://www.w3.org/2000/svg"
   xmlns:svg="http://www.w3.org/2000/svg">
  <defs
     id="defs1" />
  <g
     id="g1">
    <path
       id="path1"
       d="m 1.665875,-2.8127083 h 2.1614583 c 0.7421875,0 1.0677084,0.3515625 1.0677084,1.1588541 v 0.5859375 c 0,0.40364587 0.065104,0.79427087 0.1822916,1.06770836667 h 1.015625 V -0.20854167 C 5.7804583,-0.416875 5.7153542,-0.65125 5.7023333,-1.5236458 5.6893125,-2.604375 5.5200417,-2.9298958 4.8038958,-3.229375 c 0.7421875,-0.3645833 1.0416667,-0.8203125 1.0416667,-1.5625 0,-1.1328125 -0.7161458,-1.7447917 -1.9921875,-1.7447917 H 0.83254167 V -2.0833333e-4 H 1.665875 Z m 0,-0.7421875 V -5.8075 h 2.0182292 c 0.46875,0 0.7421875,0.078125 0.9505208,0.2604167 0.2213542,0.1822916 0.3385417,0.4817708 0.3385417,0.8723958 0,0.7682292 -0.4036459,1.1197917 -1.2890625,1.1197917 z m 9.61263,3.11197913 c -0.09115,0.0260417 -0.117187,0.0260417 -0.169271,0.0260417 -0.260416,0 -0.403645,-0.14322917 -0.403645,-0.37760417 V -3.5548958 c 0,-0.8333334 -0.61198,-1.2760417 -1.7708338,-1.2760417 -0.6770833,0 -1.2369792,0.1953125 -1.5494792,0.546875 -0.2213541,0.234375 -0.3125,0.5078125 -0.3255208,0.9765625 h 0.7552083 c 0.052083,-0.5729167 0.4036459,-0.8333333 1.09375,-0.8333333 0.6770834,0 1.0546875,0.2473958 1.0546875,0.6901041 v 0.2083334 c 0,0.3125 -0.1822916,0.4427083 -0.78125,0.5208333 -1.0546875,0.1302083 -1.2239583,0.1692708 -1.5104166,0.2864583 -0.546875,0.2213542 -0.8203125,0.6380209 -0.8203125,1.25 0,0.85937503 0.5859375,1.3932292 1.5364583,1.3932292 0.5989583,0 1.0677083,-0.20833333333 1.6015625,-0.69010417 0.052083,0.46875 0.2864583,0.69010417 0.7682293,0.69010417 0.15625,0 0.273437,-0.0260417 0.520833,-0.078125 z M 9.963401,-1.4845833 c 0,0.2604166 -0.065104,0.4036458 -0.2994791,0.61197913 -0.2994792,0.28645834 -0.6640625,0.4296875 -1.1067709,0.4296875 -0.5859375,0 -0.9244791,-0.28645833 -0.9244791,-0.75520833 0,-0.4947917 0.3255208,-0.7552083 1.1328125,-0.859375 0.78125,-0.1171875 0.9505208,-0.1432292 1.1979166,-0.2604167 z m 2.119141,-3.2161459 V -2.0833333e-4 H 12.83775 V -2.5913542 c 0,-0.9635416 0.507813,-1.5885416 1.276042,-1.5885416 0.585937,0 0.963541,0.3515625 0.963541,0.9244791 v 3.25520836667 h 0.755209 V -3.5548958 c 0,-0.78125 -0.585938,-1.2760417 -1.497396,-1.2760417 -0.703125,0 -1.145833,0.2604167 -1.5625,0.9244792 v -0.7942709 z m 8.802083,-1.8359375 h -0.742188 v 2.421875 c -0.3125,-0.46875 -0.820312,-0.7161458 -1.445312,-0.7161458 -1.223958,0 -2.018229,0.9765625 -2.018229,2.4739583 0,1.5885417 0.78125,2.5651042 2.044271,2.5651042 0.651041,0 1.09375,-0.24739583 1.497395,-0.83333333 v 0.62499999667 h 0.664063 z m -2.057292,2.3958334 c 0.807292,0 1.315104,0.7161458 1.315104,1.8489583 0,1.0807292 -0.520833,1.796875 -1.315104,1.796875 -0.820312,0 -1.367187,-0.7291667 -1.367187,-1.8229167 0,-1.09375 0.546875,-1.8229166 1.367187,-1.8229166 z m 5.035808,-0.6901042 c -1.315105,0 -2.109375,0.9375 -2.109375,2.5130208 0,1.5885417 0.78125,2.5260417 2.122395,2.5260417 1.315105,0 2.122396,-0.9375 2.122396,-2.4869792 0,-1.6276041 -0.78125,-2.5520833 -2.135416,-2.5520833 z m 0.01302,0.6901042 c 0.846355,0 1.341146,0.6901041 1.341146,1.8489583 0,1.1067708 -0.520833,1.80989583 -1.341146,1.80989583 -0.833333,0 -1.341145,-0.69010413 -1.341145,-1.83593753 0,-1.1328125 0.507812,-1.8229166 1.341145,-1.8229166 z m 3.164063,-0.5598959 v 4.70052086667 h 0.755208 V -2.9559375 c 0,-0.6770833 0.494792,-1.2239583 1.106771,-1.2239583 0.559896,0 0.872396,0.3385416 0.872396,0.9375 v 3.24218746667 h 0.755208 V -2.9559375 c 0,-0.6770833 0.481771,-1.2239583 1.09375,-1.2239583 0.546875,0 0.872396,0.3515625 0.872396,0.9375 v 3.24218746667 h 0.755208 V -3.5288542 c 0,-0.8463541 -0.48177,-1.3020833 -1.367187,-1.3020833 -0.625,0 -1.002604,0.1822917 -1.445313,0.7161458 -0.273437,-0.5078125 -0.651041,-0.7161458 -1.26302,-0.7161458 -0.625,0 -1.041667,0.234375 -1.445313,0.7942708 v -0.6640625 z m 14.677734,0.078125 c -0.01302,-1.2760416 -0.898437,-2.03125 -2.395833,-2.03125 -1.445313,0 -2.330729,0.7421875 -2.330729,1.9270834 0,0.7942708 0.429687,1.3020833 1.289062,1.5234375 l 1.614584,0.4296875 c 0.833333,0.2213541 1.210937,0.546875 1.210937,1.0546875 0,0.3515625 -0.195312,0.7161458 -0.46875,0.9114583 -0.260417,0.18229167 -0.677083,0.2734375 -1.197917,0.2734375 -0.716145,0 -1.197916,-0.16927083 -1.510416,-0.546875 -0.247396,-0.2864583 -0.351563,-0.5989583 -0.338542,-1.0026042 h -0.794271 c 0.01302,0.5989584 0.130209,1.0026042 0.390625,1.3541667 0.442709,0.61197917 1.197917,0.9375 2.200521,0.9375 0.768229,0 1.40625,-0.18229167 1.835938,-0.5078125 0.442708,-0.3515625 0.716145,-0.9244792 0.716145,-1.4973958 0,-0.8072917 -0.507812,-1.3932292 -1.393229,-1.640625 l -1.640625,-0.4427084 c -0.794271,-0.2083333 -1.080729,-0.4557291 -1.080729,-0.9635416 0,-0.6640625 0.585938,-1.1067709 1.471354,-1.1067709 1.041667,0 1.614584,0.4817709 1.627604,1.328125 z m 5.436198,4.17968753 c -0.09115,0.0260417 -0.117187,0.0260417 -0.169271,0.0260417 -0.260416,0 -0.403645,-0.14322917 -0.403645,-0.37760417 V -3.5548958 c 0,-0.8333334 -0.61198,-1.2760417 -1.770834,-1.2760417 -0.677083,0 -1.236979,0.1953125 -1.549479,0.546875 -0.221354,0.234375 -0.3125,0.5078125 -0.325521,0.9765625 h 0.755209 c 0.05208,-0.5729167 0.403645,-0.8333333 1.09375,-0.8333333 0.677083,0 1.054687,0.2473958 1.054687,0.6901041 v 0.2083334 c 0,0.3125 -0.182292,0.4427083 -0.78125,0.5208333 -1.054687,0.1302083 -1.223958,0.1692708 -1.510417,0.2864583 -0.546875,0.2213542 -0.820312,0.6380209 -0.820312,1.25 0,0.85937503 0.585937,1.3932292 1.536458,1.3932292 0.598959,0 1.067709,-0.20833333333 1.601563,-0.69010417 0.05208,0.46875 0.286458,0.69010417 0.768229,0.69010417 0.15625,0 0.273437,-0.0260417 0.520833,-0.078125 z M 45.839052,-1.4845833 c 0,0.2604166 -0.0651,0.4036458 -0.299479,0.61197913 -0.299479,0.28645834 -0.664063,0.4296875 -1.106771,0.4296875 -0.585937,0 -0.924479,-0.28645833 -0.924479,-0.75520833 0,-0.4947917 0.325521,-0.7552083 1.132812,-0.859375 0.78125,-0.1171875 0.950521,-0.1432292 1.197917,-0.2604167 z m 2.119141,-3.2161459 v 4.70052086667 h 0.755208 V -2.9559375 c 0,-0.6770833 0.494792,-1.2239583 1.106771,-1.2239583 0.559896,0 0.872396,0.3385416 0.872396,0.9375 v 3.24218746667 h 0.755208 V -2.9559375 c 0,-0.6770833 0.481771,-1.2239583 1.09375,-1.2239583 0.546875,0 0.872396,0.3515625 0.872396,0.9375 V -2.0833333e-4 H 54.16913 V -3.5288542 c 0,-0.8463541 -0.481771,-1.3020833 -1.367187,-1.3020833 -0.625,0 -1.002604,0.1822917 -1.445313,0.7161458 -0.273437,-0.5078125 -0.651041,-0.7161458 -1.263021,-0.7161458 -0.625,0 -1.041666,0.234375 -1.445312,0.7942708 v -0.6640625 z m 7.327474,6.6536459 h 0.755208 V -0.495 c 0.390625,0.48177083 0.833333,0.703125 1.445312,0.703125 1.210938,0 2.005209,-0.9765625 2.005209,-2.4739583 0,-1.5885417 -0.768229,-2.5651042 -2.018229,-2.5651042 -0.638021,0 -1.145834,0.2864583 -1.497396,0.8333333 v -0.703125 h -0.690104 z m 2.070312,-6.09375 c 0.820313,0 1.354167,0.7291666 1.354167,1.8489583 0,1.0677083 -0.546875,1.796875 -1.354167,1.796875 -0.794271,0 -1.315104,-0.7161458 -1.315104,-1.8229167 0,-1.1067708 0.520833,-1.8229166 1.315104,-1.8229166 z m 3.798828,-2.3958334 h -0.755208 v 6.53645836667 h 0.755208 z m 1.966146,1.8359375 h -0.742187 v 4.70052086667 h 0.742187 z m 0,-1.8359375 h -0.755208 v 0.9375 h 0.755208 z m 1.272787,1.8359375 v 4.70052086667 h 0.755208 V -2.5913542 c 0,-0.9635416 0.507812,-1.5885416 1.276042,-1.5885416 0.585937,0 0.963541,0.3515625 0.963541,0.9244791 V -2.0833333e-4 H 68.14374 V -3.5548958 c 0,-0.78125 -0.585938,-1.2760417 -1.497396,-1.2760417 -0.703125,0 -1.145834,0.2604167 -1.5625,0.9244792 v -0.7942709 z m 8.059895,0 v 0.6770834 c -0.377604,-0.546875 -0.833333,-0.8072917 -1.432291,-0.8072917 -1.197917,0 -2.005209,1.0416667 -2.005209,2.5651042 0,0.7682291 0.208334,1.39322913 0.585938,1.8489583 0.351562,0.390625 0.859375,0.625 1.354167,0.625 0.585937,0 1.002604,-0.24739583 1.41927,-0.84635417 v 0.24739584 c 0,0.63802083 -0.07813,1.015625 -0.260416,1.27604166 -0.195313,0.28645837 -0.585938,0.44270837 -1.041667,0.44270837 -0.338542,0 -0.651042,-0.091146 -0.859375,-0.2473959 C 70.044781,0.93729167 69.979677,0.82010417 69.927594,0.53364583 h -0.755209 c 0.07813,0.89843747 0.76823,1.41927087 1.875,1.41927087 0.690105,0 1.302084,-0.2213542 1.601563,-0.5989584 0.364583,-0.42968747 0.494792,-1.0286458 0.494792,-2.1223958 v -3.9322917 z m -1.354166,0.5598959 c 0.807291,0 1.276041,0.6770833 1.276041,1.8489583 0,1.1197917 -0.48177,1.80989583 -1.26302,1.80989583 -0.820313,0 -1.315105,-0.69010413 -1.315105,-1.83593753 0,-1.1328125 0.507813,-1.8229166 1.302084,-1.8229166 z m 0,0"
       style="fill:#000000;fill-opacity:1;fill-rule:nonzero;stroke:none"
       aria-label="RandomSampling"
       transform="matrix(1.2,0,0,1.2,30.9072,22.094)" />
    <path
       id="path2"
       d="M 0,0 127.56062,113.38722"
       style="fill:none;stroke:#808080;stroke-width:0.79701;stroke-linecap:butt;stroke-linejoin:miter;stroke-miterlimit:10;stroke-dasharray:2.98883, 2.98883;stroke-dashoffset:0;stroke-opacity:1"
       transform="matrix(1.2,0,0,-1.2,9.3348,155.3972)" />
    <path
       id="path3"
       d="m 14.7486,4.53542 c 0,1.10046 -0.89208,1.99255 -1.99256,1.99255 -1.10046,0 -1.99255,-0.89209 -1.99255,-1.99255 0,-1.10048 0.89209,-1.99256 1.99255,-1.99256 1.10048,0 1.99256,0.89208 1.99256,1.99256 z"
       style="fill:#6666ff;fill-opacity:1;fill-rule:nonzero;stroke:none"
       transform="matrix(1.2,0,0,-1.2,9.3348,155.3972)" />
    <path
       id="path4"
       d="m 27.50467,11.33871 c 0,1.10047 -0.89207,1.99256 -1.99255,1.99256 -1.10047,0 -1.99256,-0.89209 -1.99256,-1.99256 0,-1.10047 0.89209,-1.99255 1.99256,-1.99255 1.10048,0 1.99255,0.89208 1.99255,1.99255 z"
       style="fill:#6666ff;fill-opacity:1;fill-rule:nonzero;stroke:none"
       transform="matrix(1.2,0,0,-1.2,9.3348,155.3972)" />
    <path
       id="path5"
       d="m 22.40231,27.21286 c 0,1.10046 -0.89209,1.99255 -1.99255,1.99255 -1.10048,0 -1.99256,-0.89209 -1.99256,-1.99255 0,-1.10048 0.89208,-1.99256 1.99256,-1.99256 1.10046,0 1.99255,0.89208 1.99255,1.99256 z"
       style="fill:#6666ff;fill-opacity:1;fill-rule:nonzero;stroke:none"
       transform="matrix(1.2,0,0,-1.2,9.3348,155.3972)" />
    <path
       id="path6"
       d="m 40.26073,18.142 c 0,1.10048 -0.89208,1.99255 -1.99256,1.99255 -1.10046,0 -1.99255,-0.89207 -1.99255,-1.99255 0,-1.10047 0.89209,-1.99256 1.99255,-1.99256 1.10048,0 1.99256,0.89209 1.99256,1.99256 z"
       style="fill:#6666ff;fill-opacity:1;fill-rule:nonzero;stroke:none"
       transform="matrix(1.2,0,0,-1.2,9.3348,155.3972)" />
    <path
       id="path7"
       d="m 53.0168,22.67744 c 0,1.10047 -0.89207,1.99256 -1.99255,1.99256 -1.10047,0 -1.99255,-0.89209 -1.99255,-1.99256 0,-1.10047 0.89208,-1.99255 1.99255,-1.99255 1.10048,0 1.99255,0.89208 1.99255,1.99255 z"
       style="fill:#6666ff;fill-opacity:1;fill-rule:nonzero;stroke:none"
       transform="matrix(1.2,0,0,-1.2,9.3348,155.3972)" />
    <path
       id="path8"
       d="m 65.77286,34.01616 c 0,1.10046 -0.89209,1.99255 -1.99256,1.99255 -1.10048,0 -1.99255,-0.89209 -1.99255,-1.99255 0,-1.10048 0.89207,-1.99256 1.99255,-1.99256 1.10047,0 1.99256,0.89208 1.99256,1.99256 z"
       style="fill:#6666ff;fill-opacity:1;fill-rule:nonzero;stroke:none"
       transform="matrix(1.2,0,0,-1.2,9.3348,155.3972)" />
    <path
       id="path9"
       d="m 32.60703,6.80328 c 0,1.10048 -0.89209,1.99256 -1.99256,1.99256 -1.10048,0 -1.99255,-0.89208 -1.99255,-1.99256 0,-1.10046 0.89207,-1.99255 1.99255,-1.99255 1.10047,0 1.99256,0.89209 1.99256,1.99255 z"
       style="fill:#6666ff;fill-opacity:1;fill-rule:nonzero;stroke:none"
       transform="matrix(1.2,0,0,-1.2,9.3348,155.3972)" />
    <path
       id="path10"
       d="m 9.64626,18.142 c 0,1.10048 -0.89209,1.99255 -1.99256,1.99255 -1.10046,0 -1.99255,-0.89207 -1.99255,-1.99255 0,-1.10047 0.89209,-1.99256 1.99255,-1.99256 1.10047,0 1.99256,0.89209 1.99256,1.99256 z"
       style="fill:#6666ff;fill-opacity:1;fill-rule:nonzero;stroke:none"
       transform="matrix(1.2,0,0,-1.2,9.3348,155.3972)" />
    <path
       id="path11"
       d="m 47.91444,34.01616 c 0,1.10046 -0.89209,1.99255 -1.99255,1.99255 -1.10048,0 -1.99255,-0.89209 -1.99255,-1.99255 0,-1.10048 0.89207,-1.99256 1.99255,-1.99256 1.10046,0 1.99255,0.89208 1.99255,1.99256 z"
       style="fill:#6666ff;fill-opacity:1;fill-rule:nonzero;stroke:none"
       transform="matrix(1.2,0,0,-1.2,9.3348,155.3972)" />
    <path
       id="path12"
       d="m 58.11914,11.33871 c 0,1.10047 -0.89207,1.99256 -1.99255,1.99256 -1.10047,0 -1.99256,-0.89209 -1.99256,-1.99256 0,-1.10047 0.89209,-1.99255 1.99256,-1.99255 1.10048,0 1.99255,0.89208 1.99255,1.99255 z"
       style="fill:#6666ff;fill-opacity:1;fill-rule:nonzero;stroke:none"
       transform="matrix(1.2,0,0,-1.2,9.3348,155.3972)" />
    <path
       id="path13"
       d="m 78.52893,45.35489 c 0,1.10046 -0.89209,1.99255 -1.99255,1.99255 -1.10048,0 -1.99256,-0.89209 -1.99256,-1.99255 0,-1.10048 0.89208,-1.99255 1.99256,-1.99255 1.10046,0 1.99255,0.89207 1.99255,1.99255 z"
       style="fill:#6666ff;fill-opacity:1;fill-rule:nonzero;stroke:none"
       transform="matrix(1.2,0,0,-1.2,9.3348,155.3972)" />
    <path
       id="path14"
       d="m 91.28499,56.6936 c 0,1.10047 -0.89209,1.99256 -1.99256,1.99256 -1.10047,0 -1.99255,-0.89209 -1.99255,-1.99256 0,-1.10048 0.89208,-1.99255 1.99255,-1.99255 1.10047,0 1.99256,0.89207 1.99256,1.99255 z"
       style="fill:#6666ff;fill-opacity:1;fill-rule:nonzero;stroke:none"
       transform="matrix(1.2,0,0,-1.2,9.3348,155.3972)" />
    <path
       id="path15"
       d="m 73.42656,40.81944 c 0,1.10048 -0.89208,1.99256 -1.99256,1.99256 -1.10046,0 -1.99255,-0.89208 -1.99255,-1.99256 0,-1.10046 0.89209,-1.99255 1.99255,-1.99255 1.10048,0 1.99256,0.89209 1.99256,1.99255 z"
       style="fill:#6666ff;fill-opacity:1;fill-rule:nonzero;stroke:none"
       transform="matrix(1.2,0,0,-1.2,9.3348,155.3972)" />
    <path
       id="path16"
       d="m 83.63127,27.21286 c 0,1.10046 -0.89207,1.99255 -1.99255,1.99255 -1.10047,0 -1.99256,-0.89209 -1.99256,-1.99255 0,-1.10048 0.89209,-1.99256 1.99256,-1.99256 1.10048,0 1.99255,0.89208 1.99255,1.99256 z"
       style="fill:#6666ff;fill-opacity:1;fill-rule:nonzero;stroke:none"
       transform="matrix(1.2,0,0,-1.2,9.3348,155.3972)" />
    <path
       id="path17"
       d="m 104.04106,63.49689 c 0,1.10048 -0.89209,1.99255 -1.99255,1.99255 -1.10048,0 -1.99256,-0.89207 -1.99256,-1.99255 0,-1.10047 0.89208,-1.99256 1.99256,-1.99256 1.10046,0 1.99255,0.89209 1.99255,1.99256 z"
       style="fill:#6666ff;fill-opacity:1;fill-rule:nonzero;stroke:none"
       transform="matrix(1.2,0,0,-1.2,9.3348,155.3972)" />
    <path
       id="path18"
       d="m 14.7486,34.01616 c 0,1.10046 -0.89208,1.99255 -1.99256,1.99255 -1.10046,0 -1.99255,-0.89209 -1.99255,-1.99255 0,-1.10048 0.89209,-1.99256 1.99255,-1.99256 1.10048,0 1.99256,0.89208 1.99256,1.99256 z"
       style="fill:#ff6666;fill-opacity:1;fill-rule:nonzero;stroke:none"
       transform="matrix(1.2,0,0,-1.2,9.3348,155.3972)" />
    <path
       id="path19"
       d="m 27.50467,45.35489 c 0,1.10046 -0.89207,1.99255 -1.99255,1.99255 -1.10047,0 -1.99256,-0.89209 -1.99256,-1.99255 0,-1.10048 0.89209,-1.99255 1.99256,-1.99255 1.10048,0 1.99255,0.89207 1.99255,1.99255 z"
       style="fill:#ff6666;fill-opacity:1;fill-rule:nonzero;stroke:none"
       transform="matrix(1.2,0,0,-1.2,9.3348,155.3972)" />
    <path
       id="path20"
       d="m 9.64626,56.6936 c 0,1.10047 -0.89209,1.99256 -1.99256,1.99256 -1.10046,0 -1.99255,-0.89209 -1.99255,-1.99256 0,-1.10048 0.89209,-1.99255 1.99255,-1.99255 1.10047,0 1.99256,0.89207 1.99256,1.99255 z"
       style="fill:#ff6666;fill-opacity:1;fill-rule:nonzero;stroke:none"
       transform="matrix(1.2,0,0,-1.2,9.3348,155.3972)" />
    <path
       id="path21"
       d="m 40.26073,56.6936 c 0,1.10047 -0.89208,1.99256 -1.99256,1.99256 -1.10046,0 -1.99255,-0.89209 -1.99255,-1.99256 0,-1.10048 0.89209,-1.99255 1.99255,-1.99255 1.10048,0 1.99256,0.89207 1.99256,1.99255 z"
       style="fill:#ff6666;fill-opacity:1;fill-rule:nonzero;stroke:none"
       transform="matrix(1.2,0,0,-1.2,9.3348,155.3972)" />
    <path
       id="path22"
       d="m 53.0168,68.03233 c 0,1.10047 -0.89207,1.99256 -1.99255,1.99256 -1.10047,0 -1.99255,-0.89209 -1.99255,-1.99256 0,-1.10048 0.89208,-1.99255 1.99255,-1.99255 1.10048,0 1.99255,0.89207 1.99255,1.99255 z"
       style="fill:#ff6666;fill-opacity:1;fill-rule:nonzero;stroke:none"
       transform="matrix(1.2,0,0,-1.2,9.3348,155.3972)" />
    <path
       id="path23"
       d="m 65.77286,79.37105 c 0,1.10046 -0.89209,1.99255 -1.99256,1.99255 -1.10048,0 -1.99255,-0.89209 -1.99255,-1.99255 0,-1.10048 0.89207,-1.99255 1.99255,-1.99255 1.10047,0 1.99256,0.89207 1.99256,1.99255 z"
       style="fill:#ff6666;fill-opacity:1;fill-rule:nonzero;stroke:none"
       transform="matrix(1.2,0,0,-1.2,9.3348,155.3972)" />
    <path
       id="path24"
       d="m 32.60703,72.56775 c 0,1.10046 -0.89209,1.99255 -1.99256,1.99255 -1.10048,0 -1.99255,-0.89209 -1.99255,-1.99255 0,-1.10048 0.89207,-1.99255 1.99255,-1.99255 1.10047,0 1.99256,0.89207 1.99256,1.99255 z"
       style="fill:#ff6666;fill-opacity:1;fill-rule:nonzero;stroke:none"
       transform="matrix(1.2,0,0,-1.2,9.3348,155.3972)" />
    <path
       id="path25"
       d="m 22.40231,86.17433 c 0,1.10048 -0.89209,1.99256 -1.99255,1.99256 -1.10048,0 -1.99256,-0.89208 -1.99256,-1.99256 0,-1.10046 0.89208,-1.99255 1.99256,-1.99255 1.10046,0 1.99255,0.89209 1.99255,1.99255 z"
       style="fill:#ff6666;fill-opacity:1;fill-rule:nonzero;stroke:none"
       transform="matrix(1.2,0,0,-1.2,9.3348,155.3972)" />
    <path
       id="path26"
       d="m 47.91444,79.37105 c 0,1.10046 -0.89209,1.99255 -1.99255,1.99255 -1.10048,0 -1.99255,-0.89209 -1.99255,-1.99255 0,-1.10048 0.89207,-1.99255 1.99255,-1.99255 1.10046,0 1.99255,0.89207 1.99255,1.99255 z"
       style="fill:#ff6666;fill-opacity:1;fill-rule:nonzero;stroke:none"
       transform="matrix(1.2,0,0,-1.2,9.3348,155.3972)" />
    <path
       id="path27"
       d="m 58.11914,90.70978 c 0,1.10046 -0.89207,1.99255 -1.99255,1.99255 -1.10047,0 -1.99256,-0.89209 -1.99256,-1.99255 0,-1.10048 0.89209,-1.99256 1.99256,-1.99256 1.10048,0 1.99255,0.89208 1.99255,1.99256 z"
       style="fill:#ff6666;fill-opacity:1;fill-rule:nonzero;stroke:none"
       transform="matrix(1.2,0,0,-1.2,9.3348,155.3972)" />
    <path
       id="path28"
       d="m 78.52893,90.70978 c 0,1.10046 -0.89209,1.99255 -1.99255,1.99255 -1.10048,0 -1.99256,-0.89209 -1.99256,-1.99255 0,-1.10048 0.89208,-1.99256 1.99256,-1.99256 1.10046,0 1.99255,0.89208 1.99255,1.99256 z"
       style="fill:#ff6666;fill-opacity:1;fill-rule:nonzero;stroke:none"
       transform="matrix(1.2,0,0,-1.2,9.3348,155.3972)" />
    <path
       id="path29"
       d="m 91.28499,102.0485 c 0,1.10046 -0.89209,1.99255 -1.99256,1.99255 -1.10047,0 -1.99255,-0.89209 -1.99255,-1.99255 0,-1.10049 0.89208,-1.99256 1.99255,-1.99256 1.10047,0 1.99256,0.89207 1.99256,1.99256 z"
       style="fill:#ff6666;fill-opacity:1;fill-rule:nonzero;stroke:none"
       transform="matrix(1.2,0,0,-1.2,9.3348,155.3972)" />
    <path
       id="path30"
       d="m 73.42656,86.17433 c 0,1.10048 -0.89208,1.99256 -1.99256,1.99256 -1.10046,0 -1.99255,-0.89208 -1.99255,-1.99256 0,-1.10046 0.89209,-1.99255 1.99255,-1.99255 1.10048,0 1.99256,0.89209 1.99256,1.99255 z"
       style="fill:#ff6666;fill-opacity:1;fill-rule:nonzero;stroke:none"
       transform="matrix(1.2,0,0,-1.2,9.3348,155.3972)" />
    <path
       id="path31"
       d="m 83.63127,95.2452 c 0,1.10046 -0.89207,1.99255 -1.99255,1.99255 -1.10047,0 -1.99256,-0.89209 -1.99256,-1.99255 0,-1.10049 0.89209,-1.99256 1.99256,-1.99256 1.10048,0 1.99255,0.89207 1.99255,1.99256 z"
       style="fill:#ff6666;fill-opacity:1;fill-rule:nonzero;stroke:none"
       transform="matrix(1.2,0,0,-1.2,9.3348,155.3972)" />
    <path
       id="path32"
       d="m 104.04106,102.0485 c 0,1.10046 -0.89209,1.99255 -1.99255,1.99255 -1.10048,0 -1.99256,-0.89209 -1.99256,-1.99255 0,-1.10049 0.89208,-1.99256 1.99256,-1.99256 1.10046,0 1.99255,0.89207 1.99255,1.99256 z"
       style="fill:#ff6666;fill-opacity:1;fill-rule:nonzero;stroke:none"
       transform="matrix(1.2,0,0,-1.2,9.3348,155.3972)" />
    <path
       id="path33"
       d="m 17.73743,4.53542 c 0,2.75117 -2.2302,4.98138 -4.98139,4.98138 -2.75117,0 -4.98138,-2.23021 -4.98138,-4.98138 0,-2.75118 2.23021,-4.98137 4.98138,-4.98137 2.75119,0 4.98139,2.23019 4.98139,4.98137 z"
       style="fill:none;stroke:#ff8000;stroke-width:0.79701;stroke-linecap:butt;stroke-linejoin:miter;stroke-miterlimit:10;stroke-dasharray:none;stroke-opacity:1"
       transform="matrix(1.2,0,0,-1.2,9.3348,155.3972)" />
    <path
       id="path34"
       d="m 43.24956,56.6936 c 0,2.75118 -2.23021,4.98139 -4.98139,4.98139 -2.75117,0 -4.98138,-2.23021 -4.98138,-4.98139 0,-2.75119 2.23021,-4.98138 4.98138,-4.98138 2.75118,0 4.98139,2.23019 4.98139,4.98138 z"
       style="fill:none;stroke:#ff8000;stroke-width:0.79701;stroke-linecap:butt;stroke-linejoin:miter;stroke-miterlimit:10;stroke-dasharray:none;stroke-opacity:1"
       transform="matrix(1.2,0,0,-1.2,9.3348,155.3972)" />
    <path
       id="path35"
       d="m 81.51776,45.35489 c 0,2.75117 -2.23021,4.98138 -4.98138,4.98138 -2.75118,0 -4.98138,-2.23021 -4.98138,-4.98138 0,-2.75119 2.2302,-4.98139 4.98138,-4.98139 2.75117,0 4.98138,2.2302 4.98138,4.98139 z"
       style="fill:none;stroke:#ff8000;stroke-width:0.79701;stroke-linecap:butt;stroke-linejoin:miter;stroke-miterlimit:10;stroke-dasharray:none;stroke-opacity:1"
       transform="matrix(1.2,0,0,-1.2,9.3348,155.3972)" />
    <path
       id="path36"
       d="m 25.39114,86.17433 c 0,2.75119 -2.23021,4.98139 -4.98138,4.98139 -2.75118,0 -4.98138,-2.2302 -4.98138,-4.98139 0,-2.75117 2.2302,-4.98138 4.98138,-4.98138 2.75117,0 4.98138,2.23021 4.98138,4.98138 z"
       style="fill:none;stroke:#ff8000;stroke-width:0.79701;stroke-linecap:butt;stroke-linejoin:miter;stroke-miterlimit:10;stroke-dasharray:none;stroke-opacity:1"
       transform="matrix(1.2,0,0,-1.2,9.3348,155.3972)" />
    <path
       id="path37"
       d="m 61.10797,11.33871 c 0,2.75118 -2.23019,4.98139 -4.98138,4.98139 -2.75118,0 -4.98139,-2.23021 -4.98139,-4.98139 0,-2.75119 2.23021,-4.98138 4.98139,-4.98138 2.75119,0 4.98138,2.23019 4.98138,4.98138 z"
       style="fill:none;stroke:#ff8000;stroke-width:0.79701;stroke-linecap:butt;stroke-linejoin:miter;stroke-miterlimit:10;stroke-dasharray:none;stroke-opacity:1"
       transform="matrix(1.2,0,0,-1.2,9.3348,155.3972)" />
    <path
       id="path38"
       d="M 0,0 H 126.48605"
       style="fill:none;stroke:#000000;stroke-width:0.79701;stroke-linecap:butt;stroke-linejoin:miter;stroke-miterlimit:10;stroke-dasharray:none;stroke-opacity:1"
       transform="matrix(1.2,0,0,-1.2,9.3348,155.3972)" />
    <path
       id="path39"
       d="M 4.53381,0 C 3.97704,0.13808 1.52963,0.92049 0,1.77196 V -1.77196 C 1.52963,-0.92049 3.97704,-0.13808 4.53381,0 Z"
       style="fill:#000000;fill-opacity:1;fill-rule:nonzero;stroke:#000000;stroke-width:0.79701;stroke-linecap:butt;stroke-linejoin:miter;stroke-miterlimit:10;stroke-dasharray:none;stroke-opacity:1"
       transform="matrix(1.2,0,0,-1.2,161.11806,155.3972)" />
    <path
       id="path40"
       d="m 3.9975521,-3.1759427 c -0.3515625,0.091146 -0.3776042,0.390625 -0.3776042,0.4296875 0,0.1692708 0.1432292,0.2994792 0.3125,0.2994792 0.1822917,0 0.4557292,-0.1432292 0.4557292,-0.4817709 0,-0.4557291 -0.5078125,-0.5859375 -0.8072917,-0.5859375 -0.3645833,0 -0.6770833,0.2604167 -0.859375,0.5729167 -0.1692708,-0.4166667 -0.5859375,-0.5729167 -0.9114583,-0.5729167 -0.87239585,0 -1.35416668,1.0026042 -1.35416668,1.2239584 0,0.065104 0.0520833,0.1041666 0.1171875,0.1041666 0.0911458,0 0.1171875,-0.039063 0.13020833,-0.1432291 0.1953125,-0.5729167 0.66406245,-0.9635417 1.08072915,-0.9635417 0.3125,0 0.46875,0.2213542 0.46875,0.5078125 0,0.1692708 -0.1041667,0.5338542 -0.1692708,0.78125 -0.052083,0.234375 -0.2213542,0.9505208 -0.2604167,1.09374999 -0.1171875,0.4296875 -0.4036458,0.76822917 -0.7682292,0.76822917 -0.026042,0 -0.23437495,0 -0.40364578,-0.1171875 0.36458328,-0.078125 0.36458328,-0.41666667 0.36458328,-0.4296875 0,-0.18229167 -0.14322912,-0.28645833 -0.31249995,-0.28645833 -0.22135417,0 -0.44270833,0.18229166 -0.44270833,0.48177083 0,0.36458333 0.390625,0.57291667 0.79427078,0.57291667 0.4166667,0 0.7161459,-0.3125 0.859375,-0.57291667 0.1692709,0.390625 0.5338542,0.57291667 0.9244792,0.57291667 0.8723958,0 1.3411458,-0.98958334 1.3411458,-1.22395833 0,-0.078125 -0.065104,-0.091146 -0.1171875,-0.091146 -0.091146,0 -0.1041666,0.052083 -0.1302083,0.1302083 -0.1692708,0.53385416 -0.6119792,0.96354166 -1.0807292,0.96354166 -0.2604166,0 -0.4557291,-0.16927083 -0.4557291,-0.5078125 0,-0.15625 0.052083,-0.33854167 0.15625,-0.79427086 0.065104,-0.234375 0.234375,-0.9375 0.2734375,-1.09375 0.1171875,-0.4036458 0.390625,-0.7552083 0.7552083,-0.7552083 0.039063,0 0.2473958,0 0.4166667,0.1171877 z m 0,0"
       style="fill:#000000;fill-opacity:1;fill-rule:nonzero;stroke:none"
       aria-label="x"
       transform="matrix(1.2,0,0,1.2,172.992,156.7916)" />
    <path
       id="path41"
       d="m 2.1472187,-3.788151 c 0,-0.1822917 -0.026042,-0.1822917 -0.2083333,-0.1822917 -0.390625,0.3776042 -1.00260415,0.3776042 -1.21093748,0.3776042 v 0.234375 c 0.14322916,0 0.54687498,0 0.89843748,-0.1692709 v 3.02083336 c 0,0.1953125 0,0.2734375 -0.6119792,0.2734375 H 0.75398958 V 9.1145833e-4 C 1.0925312,-0.02513021 1.5482604,-0.02513021 1.8868021,-0.02513021 c 0.3385416,0 0.8072916,0 1.1328125,0.0260416683 V -0.23346354 H 2.7591979 c -0.6119792,0 -0.6119792,-0.078125 -0.6119792,-0.2734375 z m 0,0"
       style="fill:#000000;fill-opacity:1;fill-rule:nonzero;stroke:none"
       aria-label="1"
       transform="matrix(1.2,0,0,1.2,178.7124,158.12)" />
    <path
       id="path42"
       d="M 0,0 V 111.74571"
       style="fill:none;stroke:#000000;stroke-width:0.79701;stroke-linecap:butt;stroke-linejoin:miter;stroke-miterlimit:10;stroke-dasharray:none;stroke-opacity:1"
       transform="matrix(1.2,0,0,-1.2,9.3348,155.3972)" />
    <path
       id="path43"
       d="M 4.53381,0 C 3.97704,0.13808 1.52963,0.92049 0,1.77196 V -1.77196 C 1.52963,-0.92049 3.97704,-0.13808 4.53381,0 Z"
       style="fill:#000000;fill-opacity:1;fill-rule:nonzero;stroke:#000000;stroke-width:0.79701;stroke-linecap:butt;stroke-linejoin:miter;stroke-miterlimit:10;stroke-dasharray:none;stroke-opacity:1"
       transform="matrix(0,-1.2,-1.2,0,9.3348,21.302348)" />
    <path
       id="path44"
       d="m 3.9967083,-3.1764479 c -0.3515625,0.091146 -0.3776041,0.390625 -0.3776041,0.4296875 0,0.1692708 0.1432291,0.2994792 0.3125,0.2994792 0.1822916,0 0.4557291,-0.1432292 0.4557291,-0.4817709 0,-0.4557291 -0.5078125,-0.5859375 -0.8072916,-0.5859375 -0.3645834,0 -0.6770834,0.2604167 -0.859375,0.5729167 -0.1692709,-0.4166667 -0.5859375,-0.5729167 -0.9114584,-0.5729167 -0.8723958,0 -1.35416663,1.0026042 -1.35416663,1.2239584 0,0.065104 0.0520833,0.1041666 0.1171875,0.1041666 0.0911458,0 0.1171875,-0.039063 0.13020833,-0.1432291 C 0.89775,-2.9030104 1.3665,-3.2936354 1.7831667,-3.2936354 c 0.3125,0 0.46875,0.2213542 0.46875,0.5078125 0,0.1692708 -0.1041667,0.5338542 -0.1692709,0.78125 -0.052083,0.234375 -0.2213541,0.9505208 -0.2604166,1.09374998 -0.1171875,0.4296875 -0.4036459,0.76822917 -0.7682292,0.76822917 -0.026042,0 -0.234375,0 -0.40364583,-0.1171875 0.36458333,-0.078125 0.36458333,-0.41666667 0.36458333,-0.4296875 0,-0.18229167 -0.14322917,-0.28645833 -0.3125,-0.28645833 -0.22135417,0 -0.44270833,0.18229166 -0.44270833,0.48177083 0,0.36458333 0.390625,0.57291667 0.79427083,0.57291667 0.4166667,0 0.7161458,-0.3125 0.859375,-0.57291667 0.1692708,0.390625 0.5338542,0.57291667 0.9244792,0.57291667 0.8723958,0 1.3411458,-0.98958334 1.3411458,-1.22395832 0,-0.078125 -0.065104,-0.091146 -0.1171875,-0.091146 -0.091146,0 -0.1041667,0.052083 -0.1302083,0.1302083 -0.1692709,0.53385415 -0.6119792,0.96354165 -1.0807292,0.96354165 -0.2604167,0 -0.4557292,-0.16927083 -0.4557292,-0.5078125 0,-0.15625 0.052083,-0.33854167 0.15625,-0.79427085 0.065104,-0.234375 0.234375,-0.9375 0.2734375,-1.09375 0.1171875,-0.4036458 0.390625,-0.7552083 0.7552084,-0.7552083 0.039063,0 0.2473958,0 0.4166666,0.1171877 z m 0,0"
       style="fill:#000000;fill-opacity:1;fill-rule:nonzero;stroke:none"
       aria-label="x"
       transform="matrix(1.2,0,0,1.2,3.9852,8.1008)" />
    <path
       id="path45"
       d="M 3.2150833,-1.1193854 H 2.9937292 c -0.013021,0.091146 -0.078125,0.48177082 -0.15625,0.54687498 -0.052083,0.0390625 -0.5338542,0.0390625 -0.6119792,0.0390625 H 1.1057083 L 1.8739375,-1.1584479 c 0.1953125,-0.15625 0.7291667,-0.546875 0.9114583,-0.7291667 0.1822917,-0.1692708 0.4296875,-0.4817708 0.4296875,-0.8984375 0,-0.7552083 -0.6770833,-1.1848958 -1.4713541,-1.1848958 -0.78125003,0 -1.3151042,0.5078125 -1.3151042,1.0677083 0,0.2994792 0.26041667,0.3385417 0.32552083,0.3385417 0.14322917,0 0.32552087,-0.1041667 0.32552087,-0.3255208 0,-0.1302084 -0.078125,-0.3125 -0.35156253,-0.3125 0.14322916,-0.3125 0.50781253,-0.5338542 0.92447913,-0.5338542 0.625,0 0.9635417,0.4557292 0.9635417,0.9505208 0,0.4166667 -0.2864583,0.859375 -0.703125,1.2369792 L 0.49372917,-0.24698958 C 0.44164583,-0.19490625 0.428625,-0.18188542 0.428625,4.0625e-4 h 2.6041667 z m 0,0"
       style="fill:#000000;fill-opacity:1;fill-rule:nonzero;stroke:none"
       aria-label="2"
       transform="matrix(1.2,0,0,1.2,9.7044,9.4292)" />
    <path
       id="path46"
       d="m 4.7522187,-4.1005417 c -0.013021,-1.1458333 -0.7942708,-1.796875 -2.1354166,-1.796875 -1.2760417,0 -2.05729168,0.6510417 -2.05729168,1.6927084 0,0.7161458 0.37760416,1.1588541 1.13281248,1.3671875 l 1.4453125,0.3776041 c 0.7291667,0.1953125 1.0677083,0.4817709 1.0677083,0.9375 0,0.3125 -0.1692708,0.62500003 -0.4166666,0.8072917 -0.2213542,0.15625 -0.5989584,0.24739583 -1.0677084,0.24739583 -0.625,0 -1.0546875,-0.15625 -1.3411458,-0.48177083 C 1.1714896,-1.2099167 1.0803437,-1.4833542 1.0803437,-1.8479375 H 0.37721875 c 0.0130208,0.5338542 0.1171875,0.88541667 0.3515625,1.19791667 0.39062495,0.546875 1.06770835,0.83333333 1.95312495,0.83333333 0.6901042,0 1.25,-0.15625 1.6276042,-0.44270833 0.390625,-0.3125 0.6380208,-0.83333337 0.6380208,-1.32812497 0,-0.7161459 -0.4427083,-1.25 -1.2369791,-1.4583334 l -1.4583334,-0.390625 c -0.703125,-0.1953125 -0.9505208,-0.4166666 -0.9505208,-0.859375 0,-0.5989583 0.5208333,-0.9895833 1.3020833,-0.9895833 0.9244792,0 1.4322917,0.4296875 1.4453125,1.1848958 z m 4.6516928,2.2395834 c 0,-0.6380209 -0.052083,-1.0286459 -0.1692709,-1.328125 -0.2734375,-0.6901042 -0.9114583,-1.1067709 -1.6927083,-1.1067709 -1.1588542,0 -1.9140625,0.8984375 -1.9140625,2.265625 0,1.36718753 0.7291667,2.2135417 1.9010417,2.2135417 0.9635416,0 1.6145833,-0.546875 1.7838541,-1.4453125 H 8.6487031 c -0.1822916,0.546875 -0.5598958,0.83333333 -1.09375,0.83333333 -0.4166666,0 -0.78125,-0.1953125 -1.0026041,-0.546875 C 6.396099,-1.2099167 6.3309948,-1.4442917 6.3309948,-1.8609583 Z M 6.3440156,-2.4078333 C 6.396099,-3.1760625 6.864849,-3.683875 7.5419323,-3.683875 c 0.6510417,0 1.1458333,0.546875 1.1458333,1.2369792 0,0.013021 0,0.026042 0,0.039063 z m 4.6158854,-3.3984375 h -0.664062 v 5.80729163 h 0.664062 z m 4.645182,3.9453125 c 0,-0.6380209 -0.05208,-1.0286459 -0.169271,-1.328125 -0.273437,-0.6901042 -0.911458,-1.1067709 -1.692708,-1.1067709 -1.158854,0 -1.914062,0.8984375 -1.914062,2.265625 0,1.36718753 0.729166,2.2135417 1.901041,2.2135417 0.963542,0 1.614584,-0.546875 1.783854,-1.4453125 h -0.664062 c -0.182292,0.546875 -0.559896,0.83333333 -1.09375,0.83333333 -0.416667,0 -0.78125,-0.1953125 -1.002604,-0.546875 -0.15625,-0.23437503 -0.221354,-0.46875003 -0.221354,-0.88541663 z m -3.059896,-0.546875 c 0.05208,-0.7682292 0.520834,-1.2760417 1.197917,-1.2760417 0.651042,0 1.145833,0.546875 1.145833,1.2369792 0,0.013021 0,0.026042 0,0.039063 z m 7.151693,-0.3645834 c -0.02604,-0.4036458 -0.117187,-0.6640625 -0.273437,-0.8984375 -0.286459,-0.390625 -0.794271,-0.625 -1.367188,-0.625 -1.132812,0 -1.861979,0.8984375 -1.861979,2.2786459 0,1.35416663 0.716146,2.2005208 1.848958,2.2005208 0.989584,0 1.627605,-0.59895833 1.70573,-1.6145833 h -0.664063 c -0.117187,0.66406247 -0.455729,1.00260413 -1.028646,1.00260413 -0.729166,0 -1.171875,-0.59895833 -1.171875,-1.58854163 0,-1.0416667 0.429688,-1.6666667 1.158854,-1.6666667 0.559896,0 0.911459,0.3255208 0.989584,0.9114583 z m 2.25586,-1.40625 H 21.275656 V -5.3245 h -0.664062 v 1.1458333 h -0.559896 v 0.546875 h 0.559896 V -0.48075 c 0,0.4296875 0.286458,0.6640625 0.807291,0.6640625 0.15625,0 0.3125,-0.0130208 0.533855,-0.0520833 v -0.55989584 c -0.07813,0.0260417 -0.182292,0.0260417 -0.3125,0.0260417 -0.286459,0 -0.364584,-0.078125 -0.364584,-0.36458333 V -3.6317917 h 0.677084 z m 4.283854,2.3177084 c 0,-0.6380209 -0.05208,-1.0286459 -0.169271,-1.328125 -0.273438,-0.6901042 -0.911458,-1.1067709 -1.692708,-1.1067709 -1.158855,0 -1.914063,0.8984375 -1.914063,2.265625 0,1.36718753 0.729167,2.2135417 1.901042,2.2135417 0.963541,0 1.614583,-0.546875 1.783854,-1.4453125 h -0.664063 c -0.182291,0.546875 -0.559895,0.83333333 -1.09375,0.83333333 -0.416666,0 -0.78125,-0.1953125 -1.002604,-0.546875 -0.15625,-0.23437503 -0.221354,-0.46875003 -0.221354,-0.88541663 z m -3.059896,-0.546875 c 0.05208,-0.7682292 0.520833,-1.2760417 1.197917,-1.2760417 0.651041,0 1.145833,0.546875 1.145833,1.2369792 0,0.013021 0,0.026042 0,0.039063 z m 7.35026,-3.3984375 h -0.664062 v 2.1614583 C 29.589458,-4.0745 29.133729,-4.2958542 28.586854,-4.2958542 c -1.09375,0 -1.796875,0.8723959 -1.796875,2.2005209 0,1.40624997 0.690104,2.2786458 1.809896,2.2786458 0.585937,0 0.976562,-0.20833333 1.341146,-0.72916667 v 0.546875 h 0.585937 z m -1.835937,2.1354166 c 0.716146,0 1.171875,0.6380209 1.171875,1.6276042 0,0.9635417 -0.455729,1.6015625 -1.158854,1.6015625 -0.742188,0 -1.223959,-0.6380208 -1.223959,-1.6145833 0,-0.9765625 0.481771,-1.6145834 1.210938,-1.6145834 z m 6.41276,-2.1354166 c -0.794271,1.0416666 -1.289062,2.4869791 -1.289062,3.7369791 0,1.26302087 0.494791,2.7213542 1.289062,3.7630209 H 35.54649 C 34.843365,0.54789583 34.45274,-0.79325 34.45274,-2.0692917 c 0,-1.2630208 0.390625,-2.6041666 1.09375,-3.7369791 z m 1.32487,1.6276041 v 4.17968753 h 0.677083 V -2.1604375 c 0,-0.5989583 0.14323,-0.9895833 0.46875,-1.2239583 0.208334,-0.15625 0.403646,-0.1953125 0.859375,-0.2083334 v -0.6770833 c -0.104166,-0.013021 -0.15625,-0.026042 -0.247395,-0.026042 -0.429688,0 -0.755209,0.2604167 -1.145834,0.8723959 V -4.178667 Z m 6.285807,3.78906253 c -0.0651,0.0130208 -0.104166,0.0130208 -0.143229,0.0130208 -0.221354,0 -0.351562,-0.1171875 -0.351562,-0.32552084 V -3.1500208 c 0,-0.7421875 -0.546875,-1.1458334 -1.575521,-1.1458334 -0.598959,0 -1.106771,0.1822917 -1.380209,0.4817709 -0.195312,0.2213541 -0.273437,0.4557291 -0.286458,0.8723958 h 0.664063 c 0.05208,-0.5078125 0.364583,-0.7421875 0.976562,-0.7421875 0.598958,0 0.9375,0.2213542 0.9375,0.625 v 0.1692708 c 0,0.2864584 -0.169271,0.4036459 -0.690104,0.46875 -0.9375,0.1171875 -1.080729,0.15625 -1.341146,0.2604167 -0.481771,0.1953125 -0.729167,0.5729167 -0.729167,1.1067708 0,0.75520837 0.520834,1.2369792 1.367188,1.2369792 0.520833,0 0.950521,-0.18229167 1.419271,-0.61197917 0.05208,0.41666667 0.247396,0.61197917 0.690104,0.61197917 0.130208,0 0.234375,-0.0130208 0.442708,-0.0651042 z M 41.555604,-1.3140833 c 0,0.2213541 -0.0651,0.3645833 -0.260417,0.54687497 -0.273437,0.24739583 -0.598958,0.36458333 -0.989583,0.36458333 -0.520833,0 -0.820312,-0.24739583 -0.820312,-0.6640625 0,-0.4427083 0.299479,-0.6640625 1.002604,-0.7682292 0.703125,-0.091146 0.846354,-0.1302083 1.067708,-0.234375 z m 1.891276,-2.8645834 v 4.17968753 h 0.664063 V -2.3036667 c 0,-0.8463541 0.455729,-1.40625 1.132812,-1.40625 0.533854,0 0.859375,0.3125 0.859375,0.8203125 v 2.89062503 h 0.664063 V -3.1500208 c 0,-0.703125 -0.520834,-1.1458334 -1.328125,-1.1458334 -0.611979,0 -1.015625,0.234375 -1.380209,0.8203125 v -0.703125 z m 7.815755,-1.6276041 h -0.664062 v 2.1614583 C 50.325135,-4.0745 49.869406,-4.2958542 49.322531,-4.2958542 c -1.09375,0 -1.796875,0.8723959 -1.796875,2.2005209 0,1.40624997 0.690104,2.2786458 1.809896,2.2786458 0.585938,0 0.976563,-0.20833333 1.341146,-0.72916667 v 0.546875 h 0.585937 z m -1.835937,2.1354166 c 0.716146,0 1.171875,0.6380209 1.171875,1.6276042 0,0.9635417 -0.455729,1.6015625 -1.158854,1.6015625 -0.742188,0 -1.223959,-0.6380208 -1.223959,-1.6145833 0,-0.9765625 0.481771,-1.6145834 1.210938,-1.6145834 z m 4.485677,-0.625 c -1.171875,0 -1.875,0.8333334 -1.875,2.2395834 0,1.40624997 0.703125,2.2395833 1.888021,2.2395833 1.171875,0 1.888021,-0.83333333 1.888021,-2.2005208 0,-1.4453125 -0.690105,-2.2786459 -1.901042,-2.2786459 z m 0.01302,0.6119792 c 0.755208,0 1.197916,0.6119792 1.197916,1.6536458 0,0.9765625 -0.46875,1.60156253 -1.197916,1.60156253 -0.742188,0 -1.197917,-0.61197913 -1.197917,-1.62760413 0,-1.0026042 0.455729,-1.6276042 1.197917,-1.6276042 z m 2.815755,-0.4947917 v 4.17968753 h 0.664063 V -2.6161667 c 0,-0.6119791 0.442708,-1.09375 0.989583,-1.09375 0.481771,0 0.768229,0.2994792 0.768229,0.8333334 v 2.87760413 h 0.664063 V -2.6161667 c 0,-0.6119791 0.442708,-1.09375 0.989583,-1.09375 0.481771,0 0.768229,0.3125 0.768229,0.8333334 v 2.87760413 h 0.664063 V -3.137 c 0,-0.7421875 -0.429688,-1.1588542 -1.210938,-1.1588542 -0.559896,0 -0.885417,0.1692709 -1.276042,0.6380209 -0.247395,-0.4427084 -0.585937,-0.6380209 -1.132812,-0.6380209 -0.546875,0 -0.911458,0.2083334 -1.276042,0.7161459 v -0.5989584 z m 6.822917,5.8723959 c 0.794271,-1.0416667 1.302083,-2.50000003 1.302083,-3.75 0,-1.2630209 -0.507812,-2.7083334 -1.302083,-3.75 h -0.442709 c 0.703125,1.1328125 1.09375,2.4739583 1.09375,3.75 0,1.2630208 -0.390625,2.61718747 -1.09375,3.75 z m 0,0"
       style="fill:#ff8000;fill-opacity:1;fill-rule:nonzero;stroke:none"
       aria-label="Selected(random)"
       transform="matrix(1.2,0,0,1.2,46.5864,171.5144)" />
    <path
       id="path47"
       d="M 5.9373281,-4.5194896 C 5.6769115,-5.9517812 4.856599,-6.6549062 3.4243073,-6.6549062 c -0.8854167,0 -1.5885417,0.2864583 -2.0833333,0.8203125 -0.58593754,0.6510416 -0.91145838,1.5755208 -0.91145838,2.6432291 0,1.0677084 0.33854167,1.9921875 0.95052088,2.63020835 0.5078125,0.52083333 1.1458333,0.76822917 2.0052083,0.76822917 1.5885417,0 2.4869792,-0.859375 2.6822917,-2.59114582 h -0.859375 c -0.065104,0.4427083 -0.15625,0.7552083 -0.2864584,1.015625 -0.2734375,0.53385415 -0.8333333,0.83333332 -1.5364583,0.83333332 -1.2890625,0 -2.1223958,-1.04166662 -2.1223958,-2.66927082 0,-1.6796875 0.7942708,-2.7083333 2.0572916,-2.7083333 0.5338542,0 1.015625,0.15625 1.2890625,0.4166666 0.2473959,0.2213542 0.3776042,0.4947917 0.4817709,0.9765625 z m 2.9720052,-0.3125 c -1.3151041,0 -2.109375,0.9375 -2.109375,2.5130209 0,1.58854162 0.78125,2.52604162 2.1223959,2.52604162 1.3151038,0 2.1223958,-0.9375 2.1223958,-2.48697912 0,-1.6276042 -0.78125,-2.5520834 -2.1354167,-2.5520834 z m 0.013021,0.6901042 c 0.8463541,0 1.3411457,0.6901042 1.3411457,1.8489583 0,1.1067709 -0.5208332,1.80989585 -1.3411457,1.80989585 -0.8333334,0 -1.3411459,-0.69010415 -1.3411459,-1.83593745 0,-1.1328125 0.5078125,-1.8229167 1.3411459,-1.8229167 z m 3.1608067,-0.5598958 v 4.70052078 h 0.742188 V -2.4361562 c 0,-0.6770834 0.182292,-1.1197917 0.533854,-1.3802084 0.234375,-0.1692708 0.455729,-0.2213541 0.976563,-0.234375 v -0.7552083 c -0.117188,-0.026042 -0.182292,-0.026042 -0.286459,-0.026042 -0.481771,0 -0.846354,0.2864584 -1.276041,0.9765625 v -0.8463541 z m 6.959636,2.6041666 c 0,-0.7161458 -0.05208,-1.1458333 -0.182292,-1.4973958 -0.299479,-0.78125 -1.028646,-1.2369792 -1.901041,-1.2369792 -1.315105,0 -2.148438,1.0026042 -2.148438,2.5390625 0,1.54947918 0.807292,2.50000002 2.135417,2.50000002 1.067708,0 1.809896,-0.61197917 2.005208,-1.64062502 h -0.755208 c -0.208334,0.62500002 -0.625,0.95052085 -1.223959,0.95052085 -0.48177,0 -0.885416,-0.22135417 -1.132812,-0.61197915 -0.182292,-0.2734375 -0.247396,-0.5338542 -0.247396,-1.0026042 z m -3.4375,-0.6119791 c 0.0651,-0.8723959 0.585937,-1.4322917 1.341146,-1.4322917 0.742187,0 1.302083,0.6119792 1.302083,1.3802083 0,0.013021 0,0.039063 -0.01302,0.052083 z m 7.757161,-0.6770834 c -0.01302,-0.9244791 -0.625,-1.4453125 -1.705729,-1.4453125 -1.09375,0 -1.809896,0.5598959 -1.809896,1.4322917 0,0.7291667 0.377604,1.0807292 1.497396,1.3541667 l 0.690104,0.1692708 c 0.520834,0.1302083 0.729167,0.3125 0.729167,0.6510417 0,0.44270828 -0.429688,0.74218745 -1.09375,0.74218745 -0.403646,0 -0.742188,-0.1171875 -0.924479,-0.3125 C 20.628083,-0.93876042 20.576,-1.0689687 20.523917,-1.3944896 h -0.794271 c 0.03906,1.08072918 0.651041,1.60156252 1.875,1.60156252 1.184896,0 1.940104,-0.5859375 1.940104,-1.49739582 0,-0.6901042 -0.390625,-1.0807292 -1.328125,-1.3020833 l -0.716146,-0.1692709 c -0.611979,-0.1432291 -0.872396,-0.3385416 -0.872396,-0.6770833 0,-0.4296875 0.390625,-0.703125 1.002604,-0.703125 0.598959,0 0.92448,0.2604167 0.9375,0.7552083 z m 5.146485,1.2890625 c 0,-0.7161458 -0.05208,-1.1458333 -0.182292,-1.4973958 -0.299479,-0.78125 -1.028646,-1.2369792 -1.901042,-1.2369792 -1.315104,0 -2.148437,1.0026042 -2.148437,2.5390625 0,1.54947918 0.807292,2.50000002 2.135417,2.50000002 1.067708,0 1.809895,-0.61197917 2.005208,-1.64062502 h -0.755208 c -0.208334,0.62500002 -0.625,0.95052085 -1.223959,0.95052085 -0.481771,0 -0.885416,-0.22135417 -1.132812,-0.61197915 -0.182292,-0.2734375 -0.247396,-0.5338542 -0.247396,-1.0026042 z m -3.4375,-0.6119791 c 0.0651,-0.8723959 0.585937,-1.4322917 1.341146,-1.4322917 0.742187,0 1.302083,0.6119792 1.302083,1.3802083 0,0.013021 0,0.039063 -0.01302,0.052083 z m 6.106771,-1.9921875 h -0.76823 v -1.2890625 h -0.742187 v 1.2890625 h -0.638021 v 0.6119791 h 0.638021 v 3.55468752 c 0,0.46875 0.3125,0.7421875 0.898437,0.7421875 0.182292,0 0.364584,-0.0260417 0.61198,-0.0651042 v -0.625 c -0.104167,0.0260417 -0.221355,0.0390625 -0.364584,0.0390625 -0.3125,0 -0.403646,-0.0911458 -0.403646,-0.4296875 V -4.0898021 h 0.76823 z m 8.05664,0.078125 c -0.01302,-1.2760417 -0.898437,-2.03125 -2.395833,-2.03125 -1.445313,0 -2.330729,0.7421875 -2.330729,1.9270833 0,0.7942708 0.429687,1.3020833 1.289062,1.5234375 l 1.614583,0.4296875 c 0.833334,0.2213542 1.210938,0.546875 1.210938,1.0546875 0,0.3515625 -0.195313,0.7161458 -0.46875,0.91145832 -0.260417,0.18229166 -0.677083,0.2734375 -1.197917,0.2734375 -0.716146,0 -1.197916,-0.16927084 -1.510416,-0.54687502 -0.247396,-0.2864583 -0.351563,-0.5989583 -0.338542,-1.0026041 h -0.794271 c 0.01302,0.5989583 0.130208,1.0026041 0.390625,1.35416662 0.442708,0.61197916 1.197917,0.9375 2.200521,0.9375 0.768229,0 1.40625,-0.18229167 1.835937,-0.5078125 0.442709,-0.3515625 0.716146,-0.92447912 0.716146,-1.49739582 0,-0.8072917 -0.507812,-1.3932292 -1.393229,-1.640625 l -1.640625,-0.4427083 c -0.794271,-0.2083334 -1.080729,-0.4557292 -1.080729,-0.9635417 0,-0.6640625 0.585937,-1.1067708 1.471354,-1.1067708 1.041667,0 1.614583,0.4817708 1.627604,1.328125 z m 5.22461,2.5260416 c 0,-0.7161458 -0.05208,-1.1458333 -0.182292,-1.4973958 -0.299479,-0.78125 -1.028646,-1.2369792 -1.901042,-1.2369792 -1.315104,0 -2.148437,1.0026042 -2.148437,2.5390625 0,1.54947918 0.807291,2.50000002 2.135416,2.50000002 1.067709,0 1.809896,-0.61197917 2.005209,-1.64062502 h -0.755209 c -0.208333,0.62500002 -0.625,0.95052085 -1.223958,0.95052085 -0.481771,0 -0.885417,-0.22135417 -1.132812,-0.61197915 -0.182292,-0.2734375 -0.247396,-0.5338542 -0.247396,-1.0026042 z m -3.4375,-0.6119791 c 0.0651,-0.8723959 0.585937,-1.4322917 1.341145,-1.4322917 0.742188,0 1.302084,0.6119792 1.302084,1.3802083 0,0.013021 0,0.039063 -0.01302,0.052083 z m 5.195312,-3.828125 h -0.755208 v 6.53645828 h 0.755208 z m 5.218099,4.4401041 c 0,-0.7161458 -0.05208,-1.1458333 -0.182292,-1.4973958 -0.299479,-0.78125 -1.028646,-1.2369792 -1.901041,-1.2369792 -1.315105,0 -2.148438,1.0026042 -2.148438,2.5390625 0,1.54947918 0.807292,2.50000002 2.135417,2.50000002 1.067708,0 1.809896,-0.61197917 2.005208,-1.64062502 h -0.755208 c -0.208334,0.62500002 -0.625,0.95052085 -1.223959,0.95052085 -0.48177,0 -0.885416,-0.22135417 -1.132812,-0.61197915 -0.182292,-0.2734375 -0.247396,-0.5338542 -0.247396,-1.0026042 z m -3.4375,-0.6119791 c 0.0651,-0.8723959 0.585937,-1.4322917 1.341146,-1.4322917 0.742187,0 1.302083,0.6119792 1.302083,1.3802083 0,0.013021 0,0.039063 -0.01302,0.052083 z m 8.059896,-0.4166667 c -0.03906,-0.4557292 -0.143229,-0.7552083 -0.325521,-1.015625 -0.3125,-0.4296875 -0.885417,-0.6901042 -1.536458,-0.6901042 -1.263021,0 -2.096355,1.0026042 -2.096355,2.5651042 0,1.51041665 0.807292,2.47395832 2.083334,2.47395832 1.119791,0 1.835937,-0.67708334 1.927083,-1.82291662 h -0.755208 c -0.130209,0.75520828 -0.507813,1.13281245 -1.145834,1.13281245 -0.833333,0 -1.328125,-0.67708335 -1.328125,-1.78385415 0,-1.1848958 0.494792,-1.875 1.302084,-1.875 0.625,0 1.028646,0.3645833 1.119791,1.015625 z m 2.529297,-1.5755208 h -0.768229 v -1.2890625 h -0.742188 v 1.2890625 H 56.43863 v 0.6119791 h 0.638021 v 3.55468752 c 0,0.46875 0.3125,0.7421875 0.898438,0.7421875 0.182291,0 0.364583,-0.0260417 0.611979,-0.0651042 v -0.625 c -0.104167,0.0260417 -0.221354,0.0390625 -0.364584,0.0390625 -0.3125,0 -0.403645,-0.0911458 -0.403645,-0.4296875 V -4.0898021 h 0.768229 z m 1.555989,0 H 59.40087 v 4.70052078 h 0.742187 z m 0,-1.8359375 h -0.755208 v 0.9375 h 0.755208 z m 3.082683,1.7057291 c -1.315105,0 -2.109375,0.9375 -2.109375,2.5130209 0,1.58854162 0.78125,2.52604162 2.122395,2.52604162 1.315105,0 2.122396,-0.9375 2.122396,-2.48697912 0,-1.6276042 -0.78125,-2.5520834 -2.135416,-2.5520834 z m 0.01302,0.6901042 c 0.846355,0 1.341146,0.6901042 1.341146,1.8489583 0,1.1067709 -0.520833,1.80989585 -1.341146,1.80989585 -0.833333,0 -1.341145,-0.69010415 -1.341145,-1.83593745 0,-1.1328125 0.507812,-1.8229167 1.341145,-1.8229167 z m 3.164063,-0.5598958 v 4.70052078 h 0.755208 V -2.5924062 c 0,-0.9635417 0.507813,-1.5885417 1.276042,-1.5885417 0.585937,0 0.963542,0.3515625 0.963542,0.9244792 v 3.25520828 h 0.755208 V -3.5559479 c 0,-0.78125 -0.585938,-1.2760417 -1.497396,-1.2760417 -0.703125,0 -1.145833,0.2604167 -1.5625,0.9244792 v -0.7942708 z m 0,0"
       style="fill:#000000;fill-opacity:1;fill-rule:nonzero;stroke:none"
       aria-label="CoresetSelection"
       transform="matrix(1.2,0,0,1.2,270.8088,23.1812)" />
    <path
       id="path48"
       d="M 198.42773,0 325.98837,113.38722"
       style="fill:none;stroke:#808080;stroke-width:0.79701;stroke-linecap:butt;stroke-linejoin:miter;stroke-miterlimit:10;stroke-dasharray:2.98883, 2.98883;stroke-dashoffset:0;stroke-opacity:1"
       transform="matrix(1.2,0,0,-1.2,9.3348,155.3972)" />
    <path
       id="path49"
       d="m 198.42773,0 v 22.67744 l 102.04851,90.70978 h 25.51213 V 90.70978 L 223.93987,0 Z"
       style="fill:#fffccc;fill-opacity:1;fill-rule:nonzero;stroke:none"
       transform="matrix(1.2,0,0,-1.2,9.3348,155.3972)" />
    <path
       id="path50"
       d="m 261.39146,69.44513 h 52.65742 v 8.5131 h -52.65742 z"
       style="fill:#ffffff;fill-opacity:1;fill-rule:nonzero;stroke:none"
       transform="matrix(1.2,0,0,-1.2,9.3348,155.3972)" />
    <path
       id="path51"
       d="M 3.8399063,-2.3168646 V 8.4375e-4 H 4.4909479 V -5.0903021 H 3.8399063 v 2.2005209 H 1.2227188 V -5.0903021 H 0.57167708 V 8.4375e-4 H 1.2357396 V -2.3168646 Z M 6.0762344,-3.6580104 H 5.5033177 V 8.4375e-4 h 0.5729167 z m 0,-1.4322917 H 5.4902969 v 0.7421875 h 0.5859375 z m 3.3854166,1.4322917 v 0.5338542 C 9.1621719,-3.5538437 8.8106094,-3.7621771 8.3418594,-3.7621771 c -0.9244792,0 -1.5494792,0.8072917 -1.5494792,1.9921875 0,0.5989584 0.15625,1.09375002 0.4557292,1.44531252 0.2734375,0.29947916 0.6640625,0.48177083 1.0416666,0.48177083 0.46875,0 0.78125,-0.1953125 1.1197917,-0.65104167 v 0.18229167 c 0,0.49479167 -0.065104,0.80729167 -0.2213542,1.00260417 C 9.0449844,0.91230208 8.7455052,1.0294896 8.3809219,1.0294896 8.1205052,1.0294896 7.8861302,0.96438542 7.7168594,0.83417708 7.586651,0.73001042 7.5345677,0.63886458 7.4955052,0.41751042 H 6.9095677 C 6.961651,1.1076146 7.508526,1.5242813 8.367901,1.5242813 c 0.5338542,0 1.0026042,-0.1822917 1.25,-0.46875 C 9.8913385,0.71698958 9.9955052,0.26126042 9.9955052,-0.59811458 V -3.6580104 Z m -1.0546875,0.4296875 c 0.625,0 1.0026042,0.5338542 1.0026042,1.4453125 0,0.87239582 -0.3776042,1.40624998 -1.0026042,1.40624998 -0.625,0 -1.015625,-0.53385416 -1.015625,-1.41927078 0,-0.8854167 0.390625,-1.4322917 1.015625,-1.4322917 z M 10.955792,-5.0903021 V 8.4375e-4 h 0.572916 V -2.0173854 c 0,-0.7421875 0.390625,-1.2369792 0.989584,-1.2369792 0.195312,0 0.377604,0.065104 0.520833,0.1692709 0.169271,0.1171875 0.234375,0.2994791 0.234375,0.546875 V 8.4375e-4 h 0.572917 V -2.7595729 c 0,-0.6119792 -0.429688,-1.0026042 -1.145834,-1.0026042 -0.520833,0 -0.833333,0.15625 -1.171875,0.6119792 v -1.9401042 z m 8.67513,5.09114585 V -3.6580104 h -0.572917 v 2.0703125 c 0,0.75520832 -0.390625,1.23697915 -1.002604,1.23697915 -0.455729,0 -0.755208,-0.2734375 -0.755208,-0.71614585 v -2.5911458 h -0.572917 v 2.82552082 c 0,0.59895833 0.455729,0.98958333 1.158854,0.98958333 0.546875,0 0.885417,-0.18229167 1.223959,-0.6640625 v 0.5078125 z m 1.01237,-3.65885415 V 8.4375e-4 h 0.585937 V -2.0173854 c 0,-0.7421875 0.390625,-1.2369792 0.989584,-1.2369792 0.455729,0 0.755208,0.2864584 0.755208,0.7161459 V 8.4375e-4 h 0.572917 V -2.7595729 c 0,-0.6119792 -0.45573,-1.0026042 -1.158855,-1.0026042 -0.546875,0 -0.898437,0.2083334 -1.210937,0.7161459 v -0.6119792 z m 6.663411,1.2239583 c -0.02604,-0.3515625 -0.104167,-0.5859375 -0.234375,-0.78125 -0.260417,-0.3385416 -0.690104,-0.546875 -1.197917,-0.546875 -0.989583,0 -1.627604,0.78125 -1.627604,1.9921875 0,1.18489585 0.625,1.92708335 1.614584,1.92708335 0.872395,0 1.41927,-0.52083333 1.497395,-1.40624995 h -0.585937 c -0.104167,0.58593745 -0.403646,0.87239578 -0.898438,0.87239578 -0.63802,0 -1.028645,-0.52083333 -1.028645,-1.39322918 0,-0.9114583 0.377604,-1.4583333 1.015625,-1.4583333 0.48177,0 0.79427,0.2864583 0.859375,0.7942708 z m 3.785807,0.8072917 c 0,-0.5598958 -0.03906,-0.8984375 -0.143229,-1.171875 -0.247396,-0.5989583 -0.794271,-0.9635417 -1.484375,-0.9635417 -1.015625,0 -1.679687,0.78125 -1.679687,1.9791667 0,1.21093748 0.638021,1.94010415 1.666666,1.94010415 0.833334,0 1.419271,-0.46875 1.5625,-1.26302085 h -0.585937 c -0.15625,0.48177085 -0.481771,0.72916668 -0.950521,0.72916668 -0.377604,0 -0.690104,-0.16927083 -0.885417,-0.46875 C 28.449281,-1.0538437 28.410219,-1.2751979 28.397198,-1.6267604 Z m -2.682291,-0.4817708 c 0.05208,-0.6770834 0.46875,-1.1197917 1.054687,-1.1197917 0.559896,0 1.002604,0.4817708 1.002604,1.0807292 0,0.013021 0,0.026042 0,0.039063 z m 3.460286,-1.5494792 V 8.4375e-4 h 0.585938 V -1.9001979 c 0,-0.5208333 0.130208,-0.859375 0.416666,-1.0677083 0.182292,-0.1302084 0.351563,-0.1692709 0.755209,-0.1822917 v -0.5859375 c -0.09115,-0.013021 -0.143229,-0.026042 -0.221354,-0.026042 -0.377605,0 -0.664063,0.2213542 -1.002605,0.7682292 v -0.6640625 z m 3.889974,0 h -0.598958 v -1.0026042 h -0.572917 v 1.0026042 h -0.494791 v 0.4817708 h 0.494791 v 2.76041668 c 0,0.36458334 0.247396,0.57291667 0.703125,0.57291667 0.130209,0 0.273438,-0.0130208 0.46875,-0.0390625 v -0.49479167 c -0.07813,0.0260417 -0.169271,0.0260417 -0.273437,0.0260417 -0.260417,0 -0.325521,-0.0651042 -0.325521,-0.32552083 V -3.1762396 h 0.598958 z m 3.90625,3.32031248 c -0.0651,0.0130208 -0.09115,0.0130208 -0.130208,0.0130208 -0.195313,0 -0.3125,-0.10416667 -0.3125,-0.28645834 V -2.7595729 c 0,-0.6510417 -0.46875,-1.0026042 -1.380208,-1.0026042 -0.520834,0 -0.963542,0.15625 -1.210938,0.4296875 -0.169271,0.1822917 -0.234375,0.390625 -0.247396,0.7552084 h 0.585938 c 0.05208,-0.4427084 0.3125,-0.6510417 0.859375,-0.6510417 0.520833,0 0.820312,0.1953125 0.820312,0.546875 v 0.15625 c 0,0.2473958 -0.15625,0.3515625 -0.611979,0.4036458 -0.820312,0.1041667 -0.950521,0.1302084 -1.171875,0.2213542 -0.429687,0.1822917 -0.638021,0.5078125 -0.638021,0.97656248 0,0.6640625 0.455729,1.08072917 1.197917,1.08072917 0.455729,0 0.820312,-0.15625 1.236979,-0.53385417 0.03906,0.36458334 0.221354,0.53385417 0.598958,0.53385417 0.117188,0 0.208334,-0.0130208 0.403646,-0.0520833 z M 38.651104,-1.1449896 c 0,0.19531252 -0.0651,0.31250002 -0.234375,0.46875002 -0.234375,0.22135416 -0.520833,0.32552083 -0.872396,0.32552083 -0.442708,0 -0.716145,-0.20833333 -0.716145,-0.5859375 0,-0.37760415 0.260416,-0.57291665 0.885416,-0.66406245 0.611979,-0.091146 0.729167,-0.1171875 0.9375,-0.2083334 z M 40.84837,-3.6580104 H 40.275453 V 8.4375e-4 h 0.572917 z m 0,-1.4322917 h -0.585938 v 0.7421875 h 0.585938 z m 1.002604,1.4322917 V 8.4375e-4 h 0.585937 V -2.0173854 c 0,-0.7421875 0.390625,-1.2369792 0.989584,-1.2369792 0.455729,0 0.755208,0.2864584 0.755208,0.7161459 V 8.4375e-4 H 44.75462 V -2.7595729 c 0,-0.6119792 -0.455729,-1.0026042 -1.158854,-1.0026042 -0.546875,0 -0.898438,0.2083334 -1.210938,0.7161459 v -0.6119792 z m 5.152995,0 H 46.40501 v -1.0026042 h -0.572916 v 1.0026042 h -0.494792 v 0.4817708 h 0.494792 v 2.76041668 c 0,0.36458334 0.247396,0.57291667 0.703125,0.57291667 0.130208,0 0.273437,-0.0130208 0.46875,-0.0390625 v -0.49479167 c -0.07813,0.0260417 -0.169271,0.0260417 -0.273438,0.0260417 -0.260416,0 -0.325521,-0.0651042 -0.325521,-0.32552083 V -3.1762396 h 0.598959 z m 2.874349,0 -1.015625,2.85156248 -0.9375,-2.85156248 h -0.611979 l 1.236979,3.67187498 -0.234375,0.5859375 c -0.09115,0.24739584 -0.221354,0.3515625 -0.455729,0.3515625 -0.09115,0 -0.182292,-0.0130208 -0.3125,-0.0390625 V 1.4331354 c 0.117187,0.065104 0.234375,0.091146 0.390625,0.091146 0.182291,0 0.390625,-0.065104 0.546875,-0.1822917 0.182291,-0.1302083 0.286458,-0.2864583 0.390625,-0.57291668 l 1.627604,-4.42708332 z m 0,0"
       style="fill:#000000;fill-opacity:1;fill-rule:nonzero;stroke:none"
       aria-label="Highuncertainty"
       transform="matrix(1.2,0,0,1.2,324.1968,69.0068)" />
    <path
       id="path52"
       d="m 213.17635,4.53542 c 0,1.10046 -0.89208,1.99255 -1.99256,1.99255 -1.10046,0 -1.99255,-0.89209 -1.99255,-1.99255 0,-1.10048 0.89209,-1.99256 1.99255,-1.99256 1.10048,0 1.99256,0.89208 1.99256,1.99256 z"
       style="fill:#6666ff;fill-opacity:1;fill-rule:nonzero;stroke:none"
       transform="matrix(1.2,0,0,-1.2,9.3348,155.3972)" />
    <path
       id="path53"
       d="m 225.93242,11.33871 c 0,1.10047 -0.89209,1.99256 -1.99255,1.99256 -1.10048,0 -1.99256,-0.89209 -1.99256,-1.99256 0,-1.10047 0.89208,-1.99255 1.99256,-1.99255 1.10046,0 1.99255,0.89208 1.99255,1.99255 z"
       style="fill:#6666ff;fill-opacity:1;fill-rule:nonzero;stroke:none"
       transform="matrix(1.2,0,0,-1.2,9.3348,155.3972)" />
    <path
       id="path54"
       d="m 220.83006,27.21286 c 0,1.10046 -0.89209,1.99255 -1.99255,1.99255 -1.10048,0 -1.99255,-0.89209 -1.99255,-1.99255 0,-1.10048 0.89207,-1.99256 1.99255,-1.99256 1.10046,0 1.99255,0.89208 1.99255,1.99256 z"
       style="fill:#6666ff;fill-opacity:1;fill-rule:nonzero;stroke:none"
       transform="matrix(1.2,0,0,-1.2,9.3348,155.3972)" />
    <path
       id="path55"
       d="m 238.68848,18.142 c 0,1.10048 -0.89209,1.99255 -1.99256,1.99255 -1.10048,0 -1.99255,-0.89207 -1.99255,-1.99255 0,-1.10047 0.89207,-1.99256 1.99255,-1.99256 1.10047,0 1.99256,0.89209 1.99256,1.99256 z"
       style="fill:#6666ff;fill-opacity:1;fill-rule:nonzero;stroke:none"
       transform="matrix(1.2,0,0,-1.2,9.3348,155.3972)" />
    <path
       id="path56"
       d="m 251.44455,22.67744 c 0,1.10047 -0.89209,1.99256 -1.99255,1.99256 -1.10048,0 -1.99256,-0.89209 -1.99256,-1.99256 0,-1.10047 0.89208,-1.99255 1.99256,-1.99255 1.10046,0 1.99255,0.89208 1.99255,1.99255 z"
       style="fill:#6666ff;fill-opacity:1;fill-rule:nonzero;stroke:none"
       transform="matrix(1.2,0,0,-1.2,9.3348,155.3972)" />
    <path
       id="path57"
       d="m 264.2006,34.01616 c 0,1.10046 -0.89208,1.99255 -1.99255,1.99255 -1.10048,0 -1.99255,-0.89209 -1.99255,-1.99255 0,-1.10048 0.89207,-1.99256 1.99255,-1.99256 1.10047,0 1.99255,0.89208 1.99255,1.99256 z"
       style="fill:#6666ff;fill-opacity:1;fill-rule:nonzero;stroke:none"
       transform="matrix(1.2,0,0,-1.2,9.3348,155.3972)" />
    <path
       id="path58"
       d="m 231.03476,6.80328 c 0,1.10048 -0.89208,1.99256 -1.99256,1.99256 -1.10046,0 -1.99255,-0.89208 -1.99255,-1.99256 0,-1.10046 0.89209,-1.99255 1.99255,-1.99255 1.10048,0 1.99256,0.89209 1.99256,1.99255 z"
       style="fill:#6666ff;fill-opacity:1;fill-rule:nonzero;stroke:none"
       transform="matrix(1.2,0,0,-1.2,9.3348,155.3972)" />
    <path
       id="path59"
       d="m 208.074,18.142 c 0,1.10048 -0.89208,1.99255 -1.99255,1.99255 -1.10048,0 -1.99255,-0.89207 -1.99255,-1.99255 0,-1.10047 0.89207,-1.99256 1.99255,-1.99256 1.10047,0 1.99255,0.89209 1.99255,1.99256 z"
       style="fill:#6666ff;fill-opacity:1;fill-rule:nonzero;stroke:none"
       transform="matrix(1.2,0,0,-1.2,9.3348,155.3972)" />
    <path
       id="path60"
       d="m 246.34218,34.01616 c 0,1.10046 -0.89208,1.99255 -1.99256,1.99255 -1.10046,0 -1.99255,-0.89209 -1.99255,-1.99255 0,-1.10048 0.89209,-1.99256 1.99255,-1.99256 1.10048,0 1.99256,0.89208 1.99256,1.99256 z"
       style="fill:#6666ff;fill-opacity:1;fill-rule:nonzero;stroke:none"
       transform="matrix(1.2,0,0,-1.2,9.3348,155.3972)" />
    <path
       id="path61"
       d="m 256.54689,11.33871 c 0,1.10047 -0.89207,1.99256 -1.99255,1.99256 -1.10047,0 -1.99256,-0.89209 -1.99256,-1.99256 0,-1.10047 0.89209,-1.99255 1.99256,-1.99255 1.10048,0 1.99255,0.89208 1.99255,1.99255 z"
       style="fill:#6666ff;fill-opacity:1;fill-rule:nonzero;stroke:none"
       transform="matrix(1.2,0,0,-1.2,9.3348,155.3972)" />
    <path
       id="path62"
       d="m 276.95668,45.35489 c 0,1.10046 -0.89209,1.99255 -1.99255,1.99255 -1.10048,0 -1.99256,-0.89209 -1.99256,-1.99255 0,-1.10048 0.89208,-1.99255 1.99256,-1.99255 1.10046,0 1.99255,0.89207 1.99255,1.99255 z"
       style="fill:#6666ff;fill-opacity:1;fill-rule:nonzero;stroke:none"
       transform="matrix(1.2,0,0,-1.2,9.3348,155.3972)" />
    <path
       id="path63"
       d="m 289.71272,56.6936 c 0,1.10047 -0.89207,1.99256 -1.99255,1.99256 -1.10047,0 -1.99255,-0.89209 -1.99255,-1.99256 0,-1.10048 0.89208,-1.99255 1.99255,-1.99255 1.10048,0 1.99255,0.89207 1.99255,1.99255 z"
       style="fill:#6666ff;fill-opacity:1;fill-rule:nonzero;stroke:none"
       transform="matrix(1.2,0,0,-1.2,9.3348,155.3972)" />
    <path
       id="path64"
       d="m 271.85431,40.81944 c 0,1.10048 -0.89208,1.99256 -1.99255,1.99256 -1.10047,0 -1.99256,-0.89208 -1.99256,-1.99256 0,-1.10046 0.89209,-1.99255 1.99256,-1.99255 1.10047,0 1.99255,0.89209 1.99255,1.99255 z"
       style="fill:#6666ff;fill-opacity:1;fill-rule:nonzero;stroke:none"
       transform="matrix(1.2,0,0,-1.2,9.3348,155.3972)" />
    <path
       id="path65"
       d="m 282.05902,27.21286 c 0,1.10046 -0.89209,1.99255 -1.99255,1.99255 -1.10048,0 -1.99256,-0.89209 -1.99256,-1.99255 0,-1.10048 0.89208,-1.99256 1.99256,-1.99256 1.10046,0 1.99255,0.89208 1.99255,1.99256 z"
       style="fill:#6666ff;fill-opacity:1;fill-rule:nonzero;stroke:none"
       transform="matrix(1.2,0,0,-1.2,9.3348,155.3972)" />
    <path
       id="path66"
       d="m 302.4688,63.49689 c 0,1.10048 -0.89208,1.99255 -1.99256,1.99255 -1.10046,0 -1.99255,-0.89207 -1.99255,-1.99255 0,-1.10047 0.89209,-1.99256 1.99255,-1.99256 1.10048,0 1.99256,0.89209 1.99256,1.99256 z"
       style="fill:#6666ff;fill-opacity:1;fill-rule:nonzero;stroke:none"
       transform="matrix(1.2,0,0,-1.2,9.3348,155.3972)" />
    <path
       id="path67"
       d="m 213.17635,34.01616 c 0,1.10046 -0.89208,1.99255 -1.99256,1.99255 -1.10046,0 -1.99255,-0.89209 -1.99255,-1.99255 0,-1.10048 0.89209,-1.99256 1.99255,-1.99256 1.10048,0 1.99256,0.89208 1.99256,1.99256 z"
       style="fill:#ff6666;fill-opacity:1;fill-rule:nonzero;stroke:none"
       transform="matrix(1.2,0,0,-1.2,9.3348,155.3972)" />
    <path
       id="path68"
       d="m 225.93242,45.35489 c 0,1.10046 -0.89209,1.99255 -1.99255,1.99255 -1.10048,0 -1.99256,-0.89209 -1.99256,-1.99255 0,-1.10048 0.89208,-1.99255 1.99256,-1.99255 1.10046,0 1.99255,0.89207 1.99255,1.99255 z"
       style="fill:#ff6666;fill-opacity:1;fill-rule:nonzero;stroke:none"
       transform="matrix(1.2,0,0,-1.2,9.3348,155.3972)" />
    <path
       id="path69"
       d="m 208.074,56.6936 c 0,1.10047 -0.89208,1.99256 -1.99255,1.99256 -1.10048,0 -1.99255,-0.89209 -1.99255,-1.99256 0,-1.10048 0.89207,-1.99255 1.99255,-1.99255 1.10047,0 1.99255,0.89207 1.99255,1.99255 z"
       style="fill:#ff6666;fill-opacity:1;fill-rule:nonzero;stroke:none"
       transform="matrix(1.2,0,0,-1.2,9.3348,155.3972)" />
    <path
       id="path70"
       d="m 238.68848,56.6936 c 0,1.10047 -0.89209,1.99256 -1.99256,1.99256 -1.10048,0 -1.99255,-0.89209 -1.99255,-1.99256 0,-1.10048 0.89207,-1.99255 1.99255,-1.99255 1.10047,0 1.99256,0.89207 1.99256,1.99255 z"
       style="fill:#ff6666;fill-opacity:1;fill-rule:nonzero;stroke:none"
       transform="matrix(1.2,0,0,-1.2,9.3348,155.3972)" />
    <path
       id="path71"
       d="m 251.44455,68.03233 c 0,1.10047 -0.89209,1.99256 -1.99255,1.99256 -1.10048,0 -1.99256,-0.89209 -1.99256,-1.99256 0,-1.10048 0.89208,-1.99255 1.99256,-1.99255 1.10046,0 1.99255,0.89207 1.99255,1.99255 z"
       style="fill:#ff6666;fill-opacity:1;fill-rule:nonzero;stroke:none"
       transform="matrix(1.2,0,0,-1.2,9.3348,155.3972)" />
    <path
       id="path72"
       d="m 264.2006,79.37105 c 0,1.10046 -0.89208,1.99255 -1.99255,1.99255 -1.10048,0 -1.99255,-0.89209 -1.99255,-1.99255 0,-1.10048 0.89207,-1.99255 1.99255,-1.99255 1.10047,0 1.99255,0.89207 1.99255,1.99255 z"
       style="fill:#ff6666;fill-opacity:1;fill-rule:nonzero;stroke:none"
       transform="matrix(1.2,0,0,-1.2,9.3348,155.3972)" />
    <path
       id="path73"
       d="m 231.03476,72.56775 c 0,1.10046 -0.89208,1.99255 -1.99256,1.99255 -1.10046,0 -1.99255,-0.89209 -1.99255,-1.99255 0,-1.10048 0.89209,-1.99255 1.99255,-1.99255 1.10048,0 1.99256,0.89207 1.99256,1.99255 z"
       style="fill:#ff6666;fill-opacity:1;fill-rule:nonzero;stroke:none"
       transform="matrix(1.2,0,0,-1.2,9.3348,155.3972)" />
    <path
       id="path74"
       d="m 220.83006,86.17433 c 0,1.10048 -0.89209,1.99256 -1.99255,1.99256 -1.10048,0 -1.99255,-0.89208 -1.99255,-1.99256 0,-1.10046 0.89207,-1.99255 1.99255,-1.99255 1.10046,0 1.99255,0.89209 1.99255,1.99255 z"
       style="fill:#ff6666;fill-opacity:1;fill-rule:nonzero;stroke:none"
       transform="matrix(1.2,0,0,-1.2,9.3348,155.3972)" />
    <path
       id="path75"
       d="m 246.34218,79.37105 c 0,1.10046 -0.89208,1.99255 -1.99256,1.99255 -1.10046,0 -1.99255,-0.89209 -1.99255,-1.99255 0,-1.10048 0.89209,-1.99255 1.99255,-1.99255 1.10048,0 1.99256,0.89207 1.99256,1.99255 z"
       style="fill:#ff6666;fill-opacity:1;fill-rule:nonzero;stroke:none"
       transform="matrix(1.2,0,0,-1.2,9.3348,155.3972)" />
    <path
       id="path76"
       d="m 256.54689,90.70978 c 0,1.10046 -0.89207,1.99255 -1.99255,1.99255 -1.10047,0 -1.99256,-0.89209 -1.99256,-1.99255 0,-1.10048 0.89209,-1.99256 1.99256,-1.99256 1.10048,0 1.99255,0.89208 1.99255,1.99256 z"
       style="fill:#ff6666;fill-opacity:1;fill-rule:nonzero;stroke:none"
       transform="matrix(1.2,0,0,-1.2,9.3348,155.3972)" />
    <path
       id="path77"
       d="m 276.95668,90.70978 c 0,1.10046 -0.89209,1.99255 -1.99255,1.99255 -1.10048,0 -1.99256,-0.89209 -1.99256,-1.99255 0,-1.10048 0.89208,-1.99256 1.99256,-1.99256 1.10046,0 1.99255,0.89208 1.99255,1.99256 z"
       style="fill:#ff6666;fill-opacity:1;fill-rule:nonzero;stroke:none"
       transform="matrix(1.2,0,0,-1.2,9.3348,155.3972)" />
    <path
       id="path78"
       d="m 289.71272,102.0485 c 0,1.10046 -0.89207,1.99255 -1.99255,1.99255 -1.10047,0 -1.99255,-0.89209 -1.99255,-1.99255 0,-1.10049 0.89208,-1.99256 1.99255,-1.99256 1.10048,0 1.99255,0.89207 1.99255,1.99256 z"
       style="fill:#ff6666;fill-opacity:1;fill-rule:nonzero;stroke:none"
       transform="matrix(1.2,0,0,-1.2,9.3348,155.3972)" />
    <path
       id="path79"
       d="m 271.85431,86.17433 c 0,1.10048 -0.89208,1.99256 -1.99255,1.99256 -1.10047,0 -1.99256,-0.89208 -1.99256,-1.99256 0,-1.10046 0.89209,-1.99255 1.99256,-1.99255 1.10047,0 1.99255,0.89209 1.99255,1.99255 z"
       style="fill:#ff6666;fill-opacity:1;fill-rule:nonzero;stroke:none"
       transform="matrix(1.2,0,0,-1.2,9.3348,155.3972)" />
    <path
       id="path80"
       d="m 282.05902,95.2452 c 0,1.10046 -0.89209,1.99255 -1.99255,1.99255 -1.10048,0 -1.99256,-0.89209 -1.99256,-1.99255 0,-1.10049 0.89208,-1.99256 1.99256,-1.99256 1.10046,0 1.99255,0.89207 1.99255,1.99256 z"
       style="fill:#ff6666;fill-opacity:1;fill-rule:nonzero;stroke:none"
       transform="matrix(1.2,0,0,-1.2,9.3348,155.3972)" />
    <path
       id="path81"
       d="m 302.4688,102.0485 c 0,1.10046 -0.89208,1.99255 -1.99256,1.99255 -1.10046,0 -1.99255,-0.89209 -1.99255,-1.99255 0,-1.10049 0.89209,-1.99256 1.99255,-1.99256 1.10048,0 1.99256,0.89207 1.99256,1.99256 z"
       style="fill:#ff6666;fill-opacity:1;fill-rule:nonzero;stroke:none"
       transform="matrix(1.2,0,0,-1.2,9.3348,155.3972)" />
    <path
       id="path82"
       d="m 223.8189,27.21286 c 0,2.75118 -2.23022,4.98138 -4.98139,4.98138 -2.75119,0 -4.98139,-2.2302 -4.98139,-4.98138 0,-2.75117 2.2302,-4.98138 4.98139,-4.98138 2.75117,0 4.98139,2.23021 4.98139,4.98138 z"
       style="fill:none;stroke:#009900;stroke-width:0.79701;stroke-linecap:butt;stroke-linejoin:miter;stroke-miterlimit:10;stroke-dasharray:none;stroke-opacity:1"
       transform="matrix(1.2,0,0,-1.2,9.3348,155.3972)" />
    <path
       id="path83"
       d="m 267.18944,34.01616 c 0,2.75117 -2.23021,4.98138 -4.98139,4.98138 -2.75119,0 -4.98138,-2.23021 -4.98138,-4.98138 0,-2.75119 2.23019,-4.98139 4.98138,-4.98139 2.75118,0 4.98139,2.2302 4.98139,4.98139 z"
       style="fill:none;stroke:#009900;stroke-width:0.79701;stroke-linecap:butt;stroke-linejoin:miter;stroke-miterlimit:10;stroke-dasharray:none;stroke-opacity:1"
       transform="matrix(1.2,0,0,-1.2,9.3348,155.3972)" />
    <path
       id="path84"
       d="m 279.94551,45.35489 c 0,2.75117 -2.23021,4.98138 -4.98138,4.98138 -2.75119,0 -4.98139,-2.23021 -4.98139,-4.98138 0,-2.75119 2.2302,-4.98139 4.98139,-4.98139 2.75117,0 4.98138,2.2302 4.98138,4.98139 z"
       style="fill:none;stroke:#009900;stroke-width:0.79701;stroke-linecap:butt;stroke-linejoin:miter;stroke-miterlimit:10;stroke-dasharray:none;stroke-opacity:1"
       transform="matrix(1.2,0,0,-1.2,9.3348,155.3972)" />
    <path
       id="path85"
       d="m 228.92125,45.35489 c 0,2.75117 -2.23021,4.98138 -4.98138,4.98138 -2.75118,0 -4.98139,-2.23021 -4.98139,-4.98138 0,-2.75119 2.23021,-4.98139 4.98139,-4.98139 2.75117,0 4.98138,2.2302 4.98138,4.98139 z"
       style="fill:none;stroke:#009900;stroke-width:0.79701;stroke-linecap:butt;stroke-linejoin:miter;stroke-miterlimit:10;stroke-dasharray:none;stroke-opacity:1"
       transform="matrix(1.2,0,0,-1.2,9.3348,155.3972)" />
    <path
       id="path86"
       d="m 254.43338,68.03233 c 0,2.75118 -2.23021,4.98139 -4.98138,4.98139 -2.75118,0 -4.98139,-2.23021 -4.98139,-4.98139 0,-2.75119 2.23021,-4.98138 4.98139,-4.98138 2.75117,0 4.98138,2.23019 4.98138,4.98138 z"
       style="fill:none;stroke:#009900;stroke-width:0.79701;stroke-linecap:butt;stroke-linejoin:miter;stroke-miterlimit:10;stroke-dasharray:none;stroke-opacity:1"
       transform="matrix(1.2,0,0,-1.2,9.3348,155.3972)" />
    <path
       id="path87"
       d="M 198.42773,0 H 324.91379"
       style="fill:none;stroke:#000000;stroke-width:0.79701;stroke-linecap:butt;stroke-linejoin:miter;stroke-miterlimit:10;stroke-dasharray:none;stroke-opacity:1"
       transform="matrix(1.2,0,0,-1.2,9.3348,155.3972)" />
    <path
       id="path88"
       d="M 4.53381,0 C 3.97704,0.13808 1.52963,0.92049 0,1.77196 V -1.77196 C 1.52963,-0.92049 3.97704,-0.13808 4.53381,0 Z"
       style="fill:#000000;fill-opacity:1;fill-rule:nonzero;stroke:#000000;stroke-width:0.79701;stroke-linecap:butt;stroke-linejoin:miter;stroke-miterlimit:10;stroke-dasharray:none;stroke-opacity:1"
       transform="matrix(1.2,0,0,-1.2,399.23135,155.3972)" />
    <path
       id="path89"
       d="m 3.9970313,-3.1759427 c -0.3515625,0.091146 -0.3776042,0.390625 -0.3776042,0.4296875 0,0.1692708 0.1432292,0.2994792 0.3125,0.2994792 0.1822917,0 0.4557292,-0.1432292 0.4557292,-0.4817709 0,-0.4557291 -0.5078125,-0.5859375 -0.8072917,-0.5859375 -0.3645833,0 -0.6770833,0.2604167 -0.859375,0.5729167 -0.1692708,-0.4166667 -0.5859375,-0.5729167 -0.9114583,-0.5729167 -0.87239588,0 -1.35416672,1.0026042 -1.35416672,1.2239584 0,0.065104 0.0520833,0.1041666 0.1171875,0.1041666 0.0911458,0 0.1171875,-0.039063 0.13020834,-0.1432291 0.1953125,-0.5729167 0.66406248,-0.9635417 1.08072918,-0.9635417 0.3125,0 0.46875,0.2213542 0.46875,0.5078125 0,0.1692708 -0.1041667,0.5338542 -0.1692708,0.78125 -0.052083,0.234375 -0.2213542,0.9505208 -0.2604167,1.09374999 -0.1171875,0.4296875 -0.4036458,0.76822917 -0.7682292,0.76822917 -0.026042,0 -0.23437498,0 -0.40364582,-0.1171875 0.36458332,-0.078125 0.36458332,-0.41666667 0.36458332,-0.4296875 0,-0.18229167 -0.14322915,-0.28645833 -0.31249998,-0.28645833 -0.22135417,0 -0.44270834,0.18229166 -0.44270834,0.48177083 0,0.36458333 0.390625,0.57291667 0.79427082,0.57291667 0.4166667,0 0.7161459,-0.3125 0.859375,-0.57291667 0.1692709,0.390625 0.5338542,0.57291667 0.9244792,0.57291667 0.8723958,0 1.3411458,-0.98958334 1.3411458,-1.22395833 0,-0.078125 -0.065104,-0.091146 -0.1171875,-0.091146 -0.091146,0 -0.1041666,0.052083 -0.1302083,0.1302083 -0.1692708,0.53385416 -0.6119792,0.96354166 -1.0807292,0.96354166 -0.2604166,0 -0.4557291,-0.16927083 -0.4557291,-0.5078125 0,-0.15625 0.052083,-0.33854167 0.15625,-0.79427086 0.065104,-0.234375 0.234375,-0.9375 0.2734375,-1.09375 0.1171875,-0.4036458 0.390625,-0.7552083 0.7552083,-0.7552083 0.039063,0 0.2473958,0 0.4166667,0.1171877 z m 0,0"
       style="fill:#000000;fill-opacity:1;fill-rule:nonzero;stroke:none"
       aria-label="x"
       transform="matrix(1.2,0,0,1.2,411.102,156.7916)" />
    <path
       id="path90"
       d="m 2.1499531,-3.788151 c 0,-0.1822917 -0.026042,-0.1822917 -0.2083333,-0.1822917 -0.390625,0.3776042 -1.00260418,0.3776042 -1.21093751,0.3776042 v 0.234375 c 0.14322917,0 0.54687501,0 0.89843751,-0.1692709 v 3.02083336 c 0,0.1953125 0,0.2734375 -0.6119792,0.2734375 H 0.75672396 V 9.1145833e-4 C 1.0952656,-0.02513021 1.5509948,-0.02513021 1.8895365,-0.02513021 c 0.3385416,0 0.8072916,0 1.1328125,0.0260416683 V -0.23346354 H 2.7619323 c -0.6119792,0 -0.6119792,-0.078125 -0.6119792,-0.2734375 z m 0,0"
       style="fill:#000000;fill-opacity:1;fill-rule:nonzero;stroke:none"
       aria-label="1"
       transform="matrix(1.2,0,0,1.2,416.8224,158.12)" />
    <path
       id="path91"
       d="M 198.42773,0 V 111.74571"
       style="fill:none;stroke:#000000;stroke-width:0.79701;stroke-linecap:butt;stroke-linejoin:miter;stroke-miterlimit:10;stroke-dasharray:none;stroke-opacity:1"
       transform="matrix(1.2,0,0,-1.2,9.3348,155.3972)" />
    <path
       id="path92"
       d="M 4.53381,0 C 3.97704,0.13808 1.52963,0.92049 0,1.77196 V -1.77196 C 1.52963,-0.92049 3.97704,-0.13808 4.53381,0 Z"
       style="fill:#000000;fill-opacity:1;fill-rule:nonzero;stroke:#000000;stroke-width:0.79701;stroke-linecap:butt;stroke-linejoin:miter;stroke-miterlimit:10;stroke-dasharray:none;stroke-opacity:1"
       transform="matrix(0,-1.2,-1.2,0,247.44808,21.302348)" />
    <path
       id="path93"
       d="m 3.9961875,-3.1764479 c -0.3515625,0.091146 -0.3776042,0.390625 -0.3776042,0.4296875 0,0.1692708 0.1432292,0.2994792 0.3125,0.2994792 0.1822917,0 0.4557292,-0.1432292 0.4557292,-0.4817709 0,-0.4557291 -0.5078125,-0.5859375 -0.8072917,-0.5859375 -0.3645833,0 -0.6770833,0.2604167 -0.859375,0.5729167 -0.1692708,-0.4166667 -0.5859375,-0.5729167 -0.9114583,-0.5729167 -0.87239583,0 -1.35416667,1.0026042 -1.35416667,1.2239584 0,0.065104 0.0520833,0.1041666 0.1171875,0.1041666 0.0911458,0 0.1171875,-0.039063 0.13020834,-0.1432291 0.1953125,-0.5729167 0.66406253,-0.9635417 1.08072913,-0.9635417 0.3125,0 0.46875,0.2213542 0.46875,0.5078125 0,0.1692708 -0.1041666,0.5338542 -0.1692708,0.78125 -0.052083,0.234375 -0.2213542,0.9505208 -0.2604167,1.09374998 -0.1171875,0.4296875 -0.4036458,0.76822917 -0.7682291,0.76822917 -0.026042,0 -0.23437503,0 -0.40364587,-0.1171875 0.36458337,-0.078125 0.36458337,-0.41666667 0.36458337,-0.4296875 0,-0.18229167 -0.1432292,-0.28645833 -0.31250003,-0.28645833 -0.22135417,0 -0.44270834,0.18229166 -0.44270834,0.48177083 0,0.36458333 0.390625,0.57291667 0.79427087,0.57291667 0.4166666,0 0.7161458,-0.3125 0.859375,-0.57291667 0.1692708,0.390625 0.5338541,0.57291667 0.9244791,0.57291667 0.8723959,0 1.3411459,-0.98958334 1.3411459,-1.22395832 0,-0.078125 -0.065104,-0.091146 -0.1171875,-0.091146 -0.091146,0 -0.1041667,0.052083 -0.1302084,0.1302083 -0.1692708,0.53385415 -0.6119791,0.96354165 -1.0807291,0.96354165 -0.2604167,0 -0.4557292,-0.16927083 -0.4557292,-0.5078125 0,-0.15625 0.052083,-0.33854167 0.15625,-0.79427085 0.065104,-0.234375 0.234375,-0.9375 0.2734375,-1.09375 0.1171875,-0.4036458 0.390625,-0.7552083 0.7552083,-0.7552083 0.039063,0 0.2473959,0 0.4166667,0.1171877 z m 0,0"
       style="fill:#000000;fill-opacity:1;fill-rule:nonzero;stroke:none"
       aria-label="x"
       transform="matrix(1.2,0,0,1.2,242.0952,8.1008)" />
    <path
       id="path94"
       d="M 3.2168177,-1.1193854 H 2.9954635 c -0.013021,0.091146 -0.078125,0.48177082 -0.15625,0.54687498 -0.052083,0.0390625 -0.5338541,0.0390625 -0.6119791,0.0390625 H 1.1074427 L 1.8756719,-1.1584479 c 0.1953125,-0.15625 0.7291666,-0.546875 0.9114583,-0.7291667 0.1822917,-0.1692708 0.4296875,-0.4817708 0.4296875,-0.8984375 0,-0.7552083 -0.6770833,-1.1848958 -1.4713542,-1.1848958 -0.78124996,0 -1.31510413,0.5078125 -1.31510413,1.0677083 0,0.2994792 0.26041667,0.3385417 0.32552084,0.3385417 0.14322916,0 0.32552079,-0.1041667 0.32552079,-0.3255208 0,-0.1302084 -0.078125,-0.3125 -0.35156246,-0.3125 0.14322917,-0.3125 0.50781246,-0.5338542 0.92447916,-0.5338542 0.625,0 0.9635417,0.4557292 0.9635417,0.9505208 0,0.4166667 -0.2864584,0.859375 -0.703125,1.2369792 l -1.41927086,1.30208332 c -0.0520833,0.0520833 -0.0651042,0.0651042 -0.0651042,0.24739583 H 3.034526 Z m 0,0"
       style="fill:#000000;fill-opacity:1;fill-rule:nonzero;stroke:none"
       aria-label="2"
       transform="matrix(1.2,0,0,1.2,247.8156,9.4292)" />
    <path
       id="path95"
       d="m 4.7529792,-4.1005417 c -0.013021,-1.1458333 -0.7942709,-1.796875 -2.1354167,-1.796875 -1.2760417,0 -2.05729167,0.6510417 -2.05729167,1.6927084 0,0.7161458 0.37760417,1.1588541 1.13281247,1.3671875 l 1.4453125,0.3776041 c 0.7291667,0.1953125 1.0677084,0.4817709 1.0677084,0.9375 0,0.3125 -0.1692709,0.62500003 -0.4166667,0.8072917 -0.2213542,0.15625 -0.5989583,0.24739583 -1.0677083,0.24739583 -0.625,0 -1.0546875,-0.15625 -1.3411459,-0.48177083 C 1.17225,-1.2099167 1.0811042,-1.4833542 1.0811042,-1.8479375 H 0.37797917 C 0.391,-1.3140833 0.49516667,-0.96252083 0.72954167,-0.65002083 1.1201667,-0.10314583 1.79725,0.1833125 2.6826667,0.1833125 c 0.6901041,0 1.25,-0.15625 1.6276041,-0.44270833 0.390625,-0.3125 0.6380209,-0.83333337 0.6380209,-1.32812497 0,-0.7161459 -0.4427084,-1.25 -1.2369792,-1.4583334 l -1.4583333,-0.390625 c -0.703125,-0.1953125 -0.9505209,-0.4166666 -0.9505209,-0.859375 0,-0.5989583 0.5208334,-0.9895833 1.3020834,-0.9895833 0.9244791,0 1.4322916,0.4296875 1.4453125,1.1848958 z m 4.6516927,2.2395834 c 0,-0.6380209 -0.052083,-1.0286459 -0.1692709,-1.328125 -0.2734375,-0.6901042 -0.9114583,-1.1067709 -1.6927083,-1.1067709 -1.1588542,0 -1.9140625,0.8984375 -1.9140625,2.265625 0,1.36718753 0.7291667,2.2135417 1.9010417,2.2135417 0.9635416,0 1.6145833,-0.546875 1.7838541,-1.4453125 H 8.6494635 c -0.1822916,0.546875 -0.5598958,0.83333333 -1.09375,0.83333333 -0.4166666,0 -0.78125,-0.1953125 -1.0026041,-0.546875 C 6.3968594,-1.2099167 6.3317552,-1.4442917 6.3317552,-1.8609583 Z M 6.344776,-2.4078333 c 0.052083,-0.7682292 0.5208334,-1.2760417 1.1979167,-1.2760417 0.6510417,0 1.1458333,0.546875 1.1458333,1.2369792 0,0.013021 0,0.026042 0,0.039063 z m 4.61263,-3.3984375 h -0.664062 v 5.80729163 h 0.664062 z m 4.648438,3.9453125 c 0,-0.6380209 -0.05208,-1.0286459 -0.169271,-1.328125 -0.273438,-0.6901042 -0.911458,-1.1067709 -1.692708,-1.1067709 -1.158855,0 -1.914063,0.8984375 -1.914063,2.265625 0,1.36718753 0.729167,2.2135417 1.901042,2.2135417 0.963541,0 1.614583,-0.546875 1.783854,-1.4453125 h -0.664063 c -0.182291,0.546875 -0.559895,0.83333333 -1.09375,0.83333333 -0.416666,0 -0.78125,-0.1953125 -1.002604,-0.546875 -0.15625,-0.23437503 -0.221354,-0.46875003 -0.221354,-0.88541663 z m -3.059896,-0.546875 c 0.05208,-0.7682292 0.520833,-1.2760417 1.197917,-1.2760417 0.651041,0 1.145833,0.546875 1.145833,1.2369792 0,0.013021 0,0.026042 0,0.039063 z m 7.151693,-0.3645834 c -0.02604,-0.4036458 -0.117188,-0.6640625 -0.273438,-0.8984375 -0.286458,-0.390625 -0.794271,-0.625 -1.367187,-0.625 -1.132813,0 -1.86198,0.8984375 -1.86198,2.2786459 0,1.35416663 0.716146,2.2005208 1.848959,2.2005208 0.989583,0 1.627604,-0.59895833 1.705729,-1.6145833 h -0.664063 c -0.117187,0.66406247 -0.455729,1.00260413 -1.028645,1.00260413 -0.729167,0 -1.171875,-0.59895833 -1.171875,-1.58854163 0,-1.0416667 0.429687,-1.6666667 1.158854,-1.6666667 0.559896,0 0.911458,0.3255208 0.989583,0.9114583 z m 2.252604,-1.40625 H 21.273161 V -5.3245 h -0.664062 v 1.1458333 h -0.559896 v 0.546875 h 0.559896 V -0.48075 c 0,0.4296875 0.286458,0.6640625 0.807292,0.6640625 0.15625,0 0.3125,-0.0130208 0.533854,-0.0520833 v -0.55989584 c -0.07813,0.0260417 -0.182292,0.0260417 -0.3125,0.0260417 -0.286459,0 -0.364584,-0.078125 -0.364584,-0.36458333 V -3.6317917 h 0.677084 z m 4.287109,2.3177084 c 0,-0.6380209 -0.05208,-1.0286459 -0.169271,-1.328125 -0.273437,-0.6901042 -0.911458,-1.1067709 -1.692708,-1.1067709 -1.158854,0 -1.914063,0.8984375 -1.914063,2.265625 0,1.36718753 0.729167,2.2135417 1.901042,2.2135417 0.963542,0 1.614583,-0.546875 1.783854,-1.4453125 h -0.664062 c -0.182292,0.546875 -0.559896,0.83333333 -1.09375,0.83333333 -0.416667,0 -0.78125,-0.1953125 -1.002604,-0.546875 -0.15625,-0.23437503 -0.221355,-0.46875003 -0.221355,-0.88541663 z m -3.059896,-0.546875 c 0.05208,-0.7682292 0.520834,-1.2760417 1.197917,-1.2760417 0.651042,0 1.145833,0.546875 1.145833,1.2369792 0,0.013021 0,0.026042 0,0.039063 z m 7.347006,-3.3984375 h -0.664063 v 2.1614583 C 29.586964,-4.0745 29.131234,-4.2958542 28.584359,-4.2958542 c -1.09375,0 -1.796875,0.8723959 -1.796875,2.2005209 0,1.40624997 0.690105,2.2786458 1.809896,2.2786458 0.585938,0 0.976563,-0.20833333 1.341146,-0.72916667 v 0.546875 h 0.585938 z m -1.835938,2.1354166 c 0.716146,0 1.171875,0.6380209 1.171875,1.6276042 0,0.9635417 -0.455729,1.6015625 -1.158854,1.6015625 -0.742188,0 -1.223958,-0.6380208 -1.223958,-1.6145833 0,-0.9765625 0.48177,-1.6145834 1.210937,-1.6145834 z m 6.40625,-2.1354166 c -0.794271,1.0416666 -1.289062,2.4869791 -1.289062,3.7369791 0,1.26302087 0.494791,2.7213542 1.289062,3.7630209 h 0.442708 c -0.703125,-1.14583337 -1.09375,-2.4869792 -1.09375,-3.7630209 0,-1.2630208 0.390625,-2.6041666 1.09375,-3.7369791 z m 1.207682,0 v 5.80729163 h 0.598959 v -0.53385416 c 0.3125,0.48177083 0.742187,0.71614583 1.328125,0.71614583 1.09375,0 1.809895,-0.8984375 1.809895,-2.2916667 0,-1.3541666 -0.690104,-2.1875 -1.783854,-2.1875 -0.572916,0 -0.976562,0.2213542 -1.289062,0.6901042 v -2.2005208 z m 1.822917,2.1354166 c 0.742187,0 1.223958,0.6380209 1.223958,1.640625 0,0.9505209 -0.494791,1.5885417 -1.223958,1.5885417 -0.703125,0 -1.158854,-0.6380208 -1.158854,-1.6145833 0,-0.9765625 0.455729,-1.6145834 1.158854,-1.6145834 z m 4.342448,-0.625 c -1.171875,0 -1.875,0.8333334 -1.875,2.2395834 0,1.40624997 0.703125,2.2395833 1.888021,2.2395833 1.171875,0 1.888021,-0.83333333 1.888021,-2.2005208 0,-1.4453125 -0.690105,-2.2786459 -1.901042,-2.2786459 z m 0.01302,0.6119792 c 0.755208,0 1.197916,0.6119792 1.197916,1.6536458 0,0.9765625 -0.46875,1.60156253 -1.197916,1.60156253 -0.742188,0 -1.197917,-0.61197913 -1.197917,-1.62760413 0,-1.0026042 0.455729,-1.6276042 1.197917,-1.6276042 z m 6.097005,3.68489583 V -4.1786667 h -0.664063 v 2.3697917 c 0,0.859375 -0.442708,1.40625 -1.132812,1.40625 -0.533854,0 -0.859375,-0.3125 -0.859375,-0.8203125 V -4.1786667 H 45.257536 V -0.9495 c 0,0.69010417 0.520834,1.1328125 1.328125,1.1328125 0.61198,0 1.002605,-0.20833333 1.39323,-0.76822917 v 0.5859375 z M 49.726937,-4.1786667 V 0.00102083 H 50.391 V -2.3036667 c 0,-0.8463541 0.455729,-1.40625 1.132812,-1.40625 0.533855,0 0.859375,0.3125 0.859375,0.8203125 V 0.00102083 H 53.04725 V -3.1500208 c 0,-0.703125 -0.520833,-1.1458334 -1.328125,-1.1458334 -0.611979,0 -1.015625,0.234375 -1.380208,0.8203125 v -0.703125 z m 7.815756,-1.6276041 H 56.87863 v 2.1614583 C 56.605193,-4.0745 56.149464,-4.2958542 55.602589,-4.2958542 c -1.09375,0 -1.796875,0.8723959 -1.796875,2.2005209 0,1.40624997 0.690104,2.2786458 1.809895,2.2786458 0.585938,0 0.976563,-0.20833333 1.341146,-0.72916667 v 0.546875 h 0.585938 z m -1.835938,2.1354166 c 0.716146,0 1.171875,0.6380209 1.171875,1.6276042 0,0.9635417 -0.455729,1.6015625 -1.158854,1.6015625 -0.742187,0 -1.223958,-0.6380208 -1.223958,-1.6145833 0,-0.9765625 0.481771,-1.6145834 1.210937,-1.6145834 z m 6.582031,3.28125003 c -0.0651,0.0130208 -0.104166,0.0130208 -0.143229,0.0130208 -0.221354,0 -0.351562,-0.1171875 -0.351562,-0.32552084 V -3.1500208 c 0,-0.7421875 -0.546875,-1.1458334 -1.575521,-1.1458334 -0.598958,0 -1.106771,0.1822917 -1.380208,0.4817709 -0.195313,0.2213541 -0.273438,0.4557291 -0.286459,0.8723958 h 0.664063 c 0.05208,-0.5078125 0.364583,-0.7421875 0.976562,-0.7421875 0.598959,0 0.9375,0.2213542 0.9375,0.625 v 0.1692708 c 0,0.2864584 -0.169271,0.4036459 -0.690104,0.46875 -0.9375,0.1171875 -1.080729,0.15625 -1.341146,0.2604167 -0.481771,0.1953125 -0.729166,0.5729167 -0.729166,1.1067708 0,0.75520837 0.520833,1.2369792 1.367187,1.2369792 0.520833,0 0.950521,-0.18229167 1.419271,-0.61197917 0.05208,0.41666667 0.247396,0.61197917 0.690104,0.61197917 0.130208,0 0.234375,-0.0130208 0.442708,-0.0651042 z M 61.129932,-1.3140833 c 0,0.2213541 -0.0651,0.3645833 -0.260416,0.54687497 -0.273438,0.24739583 -0.598959,0.36458333 -0.989584,0.36458333 -0.520833,0 -0.820312,-0.24739583 -0.820312,-0.6640625 0,-0.4427083 0.299479,-0.6640625 1.002604,-0.7682292 0.703125,-0.091146 0.846354,-0.1302083 1.067708,-0.234375 z m 1.878255,-2.8645834 v 4.17968753 h 0.677084 V -2.1604375 c 0,-0.5989583 0.143229,-0.9895833 0.46875,-1.2239583 0.208333,-0.15625 0.403646,-0.1953125 0.859375,-0.2083334 v -0.6770833 c -0.104167,-0.013021 -0.15625,-0.026042 -0.247396,-0.026042 -0.429688,0 -0.755208,0.2604167 -1.145833,0.8723959 V -4.178667 Z m 5.432943,0 -1.145833,3.25520837 -1.067708,-3.25520837 h -0.716146 l 1.419271,4.19270837 -0.260417,0.6640625 C 66.56613,0.97758333 66.40988,1.08175 66.136443,1.08175 c -0.09115,0 -0.208334,-0.013021 -0.351563,-0.039063 v 0.585938 c 0.130209,0.078125 0.273438,0.1041667 0.442709,0.1041667 0.221354,0 0.455729,-0.065104 0.625,-0.1953125 0.208333,-0.15625 0.32552,-0.3255209 0.455729,-0.66406253 l 1.861979,-5.05208337 z m 1.640625,5.8723959 c 0.794271,-1.0416667 1.302084,-2.50000003 1.302084,-3.75 0,-1.2630209 -0.507813,-2.7083334 -1.302084,-3.75 h -0.442708 c 0.703125,1.1328125 1.09375,2.4739583 1.09375,3.75 0,1.2630208 -0.390625,2.61718747 -1.09375,3.75 z m 0,0"
       style="fill:#009900;fill-opacity:1;fill-rule:nonzero;stroke:none"
       aria-label="Selected(boundary)"
       transform="matrix(1.2,0,0,1.2,280.7808,171.5144)" />
  </g>
</svg>
