<?xml version="1.0" encoding="UTF-8" standalone="no"?>
<!-- Created with Inkscape (http://www.inkscape.org/) -->

<svg
   version="1.1"
   id="svg1"
   width="774.80267"
   height="167.55333"
   viewBox="0 0 774.80267 167.55333"
   xmlns="http://www.w3.org/2000/svg"
   xmlns:svg="http://www.w3.org/2000/svg">
  <defs
     id="defs1" />
  <g
     id="g1">
    <path
       id="path1"
       d="M -53.6597,8.70328 H 527.45015 V 31.38071 H -53.6597 Z"
       style="fill:#e6ffe6;fill-opacity:1;fill-rule:nonzero;stroke:none"
       transform="matrix(1.3333333,0,0,-1.3333333,71.545333,149.82267)" />
    <text
       id="text1"
       xml:space="preserve"
       transform="matrix(1.3333333,0,0,1.3333333,11.986667,126.08933)"><tspan
         id="tspan1"
         style="font-variant:normal;font-weight:normal;font-size:8.96638px;font-family:'Latin Modern Sans';writing-mode:lr-tb;fill:#000000;fill-opacity:1;fill-rule:nonzero;stroke:none"
         x="0"
         dx="0 0 0.26002502 0.26002502"
         y="0">Epoch</tspan></text>
    <path
       id="path2"
       d="M -53.6597,31.7792 H 527.45015 V 54.45663 H -53.6597 Z"
       style="fill:#ffffcd;fill-opacity:1;fill-rule:nonzero;stroke:none"
       transform="matrix(1.3333333,0,0,-1.3333333,71.545333,149.82267)" />
    <text
       id="text2"
       xml:space="preserve"
       transform="matrix(1.3333333,0,0,1.3333333,11.986667,96.38)"><tspan
         id="tspan2"
         style="font-variant:normal;font-weight:normal;font-size:8.96638px;font-family:'Latin Modern Sans';writing-mode:lr-tb;fill:#000000;fill-opacity:1;fill-rule:nonzero;stroke:none"
         x="0"
         dx="0 -0.77110869"
         y="0">Train</tspan></text>
    <path
       id="path3"
       d="M -53.6597,54.85515 H 527.45015 V 77.53258 H -53.6597 Z"
       style="fill:#ffe6e6;fill-opacity:1;fill-rule:nonzero;stroke:none"
       transform="matrix(1.3333333,0,0,-1.3333333,71.545333,149.82267)" />
    <text
       id="text3"
       xml:space="preserve"
       transform="matrix(1.3333333,0,0,1.3333333,11.986667,65.648)"><tspan
         id="tspan3"
         style="font-variant:normal;font-weight:normal;font-size:8.96638px;font-family:'Latin Modern Sans';writing-mode:lr-tb;fill:#000000;fill-opacity:1;fill-rule:nonzero;stroke:none"
         x="0"
         y="0">Read</tspan></text>
    <path
       id="path4"
       d="m -53.6597,77.93108 h 581.10985 v 22.67743 H -53.6597 Z"
       style="fill:#f0f0ff;fill-opacity:1;fill-rule:nonzero;stroke:none"
       transform="matrix(1.3333333,0,0,-1.3333333,71.545333,149.82267)" />
    <text
       id="text4"
       xml:space="preserve"
       transform="matrix(1.3333333,0,0,1.3333333,11.986667,33.917333)"><tspan
         id="tspan4"
         style="font-variant:normal;font-weight:normal;font-size:8.96638px;font-family:'Latin Modern Sans';writing-mode:lr-tb;fill:#000000;fill-opacity:1;fill-rule:nonzero;stroke:none"
         x="0"
         dx="0 0 0.26002502"
         y="0">Open</tspan></text>
    <path
       id="path5"
       d="M 0,0 V 111.9698"
       style="fill:none;stroke:#000000;stroke-width:0.79701;stroke-linecap:butt;stroke-linejoin:miter;stroke-miterlimit:10;stroke-dasharray:none;stroke-opacity:1"
       transform="matrix(1.3333333,0,0,-1.3333333,71.545333,149.82267)" />
    <text
       id="text5"
       xml:space="preserve"
       transform="matrix(1.3333333,0,0,1.3333333,57.545333,162.86267)"><tspan
         id="tspan5"
         style="font-variant:normal;font-weight:normal;font-size:8.96638px;font-family:'Latin Modern Sans';writing-mode:lr-tb;fill:#000000;fill-opacity:1;fill-rule:nonzero;stroke:none"
         x="0"
         y="0">00:00</tspan></text>
    <path
       id="path6"
       d="M 85.04042,0 V 111.9698"
       style="fill:none;stroke:#000000;stroke-width:0.79701;stroke-linecap:butt;stroke-linejoin:miter;stroke-miterlimit:10;stroke-dasharray:none;stroke-opacity:1"
       transform="matrix(1.3333333,0,0,-1.3333333,71.545333,149.82267)" />
    <text
       id="text6"
       xml:space="preserve"
       transform="matrix(1.3333333,0,0,1.3333333,170.932,162.86267)"><tspan
         id="tspan6"
         style="font-variant:normal;font-weight:normal;font-size:8.96638px;font-family:'Latin Modern Sans';writing-mode:lr-tb;fill:#000000;fill-opacity:1;fill-rule:nonzero;stroke:none"
         x="0"
         y="0">00:15</tspan></text>
    <path
       id="path7"
       d="M 170.08086,0 V 111.9698"
       style="fill:none;stroke:#000000;stroke-width:0.79701;stroke-linecap:butt;stroke-linejoin:miter;stroke-miterlimit:10;stroke-dasharray:none;stroke-opacity:1"
       transform="matrix(1.3333333,0,0,-1.3333333,71.545333,149.82267)" />
    <text
       id="text7"
       xml:space="preserve"
       transform="matrix(1.3333333,0,0,1.3333333,284.31733,162.86267)"><tspan
         id="tspan7"
         style="font-variant:normal;font-weight:normal;font-size:8.96638px;font-family:'Latin Modern Sans';writing-mode:lr-tb;fill:#000000;fill-opacity:1;fill-rule:nonzero;stroke:none"
         x="0"
         y="0">00:30</tspan></text>
    <path
       id="path8"
       d="M 255.12128,0 V 111.9698"
       style="fill:none;stroke:#000000;stroke-width:0.79701;stroke-linecap:butt;stroke-linejoin:miter;stroke-miterlimit:10;stroke-dasharray:none;stroke-opacity:1"
       transform="matrix(1.3333333,0,0,-1.3333333,71.545333,149.82267)" />
    <text
       id="text8"
       xml:space="preserve"
       transform="matrix(1.3333333,0,0,1.3333333,397.70267,162.86267)"><tspan
         id="tspan8"
         style="font-variant:normal;font-weight:normal;font-size:8.96638px;font-family:'Latin Modern Sans';writing-mode:lr-tb;fill:#000000;fill-opacity:1;fill-rule:nonzero;stroke:none"
         x="0"
         y="0">00:45</tspan></text>
    <path
       id="path9"
       d="M 340.16171,0 V 111.9698"
       style="fill:none;stroke:#000000;stroke-width:0.79701;stroke-linecap:butt;stroke-linejoin:miter;stroke-miterlimit:10;stroke-dasharray:none;stroke-opacity:1"
       transform="matrix(1.3333333,0,0,-1.3333333,71.545333,149.82267)" />
    <text
       id="text9"
       xml:space="preserve"
       transform="matrix(1.3333333,0,0,1.3333333,511.08933,162.86267)"><tspan
         id="tspan9"
         style="font-variant:normal;font-weight:normal;font-size:8.96638px;font-family:'Latin Modern Sans';writing-mode:lr-tb;fill:#000000;fill-opacity:1;fill-rule:nonzero;stroke:none"
         x="0"
         y="0">01:00</tspan></text>
    <path
       id="path10"
       d="M 425.20213,0 V 111.9698"
       style="fill:none;stroke:#000000;stroke-width:0.79701;stroke-linecap:butt;stroke-linejoin:miter;stroke-miterlimit:10;stroke-dasharray:none;stroke-opacity:1"
       transform="matrix(1.3333333,0,0,-1.3333333,71.545333,149.82267)" />
    <text
       id="text10"
       xml:space="preserve"
       transform="matrix(1.3333333,0,0,1.3333333,624.47467,162.86267)"><tspan
         id="tspan10"
         style="font-variant:normal;font-weight:normal;font-size:8.96638px;font-family:'Latin Modern Sans';writing-mode:lr-tb;fill:#000000;fill-opacity:1;fill-rule:nonzero;stroke:none"
         x="0"
         y="0">01:15</tspan></text>
    <path
       id="path11"
       d="M 510.24257,0 V 111.9698"
       style="fill:none;stroke:#000000;stroke-width:0.79701;stroke-linecap:butt;stroke-linejoin:miter;stroke-miterlimit:10;stroke-dasharray:none;stroke-opacity:1"
       transform="matrix(1.3333333,0,0,-1.3333333,71.545333,149.82267)" />
    <text
       id="text11"
       xml:space="preserve"
       transform="matrix(1.3333333,0,0,1.3333333,737.86,162.86267)"><tspan
         id="tspan11"
         style="font-variant:normal;font-weight:normal;font-size:8.96638px;font-family:'Latin Modern Sans';writing-mode:lr-tb;fill:#000000;fill-opacity:1;fill-rule:nonzero;stroke:none"
         x="0"
         y="0">01:30</tspan></text>
    <path
       id="path12"
       d="M 25.3105,96.35446 H 2.36615 c -1.10046,0 -1.99255,-0.89207 -1.99255,-1.99255 V 84.17363 c 0,-1.10046 0.89209,-1.99255 1.99255,-1.99255 H 25.3105 c 1.10046,0 1.99255,0.89209 1.99255,1.99255 v 10.18828 c 0,1.10048 -0.89209,1.99255 -1.99255,1.99255 z"
       style="fill:#e6e6e6;fill-opacity:1;fill-rule:nonzero;stroke:#333333;stroke-width:0.74721;stroke-linecap:butt;stroke-linejoin:miter;stroke-miterlimit:10;stroke-dasharray:none;stroke-opacity:1"
       transform="matrix(1.3333333,0,0,-1.3333333,71.545333,149.82267)" />
    <text
       id="text12"
       xml:space="preserve"
       transform="matrix(1.3333333,0,0,1.3333333,74.793333,33.222667)"><tspan
         id="tspan12"
         style="font-variant:normal;font-weight:normal;font-size:6.97385px;font-family:'Latin Modern Sans';writing-mode:lr-tb;fill:#000000;fill-opacity:1;fill-rule:nonzero;stroke:none"
         x="0"
         dx="0 0 0.20921551 0 2.4687428"
         y="0">Open1</tspan></text>
    <path
       id="path13"
       d="M 55.1988,73.27916 H 32.25446 c -1.10047,0 -1.99256,-0.89209 -1.99256,-1.99256 V 61.09833 c 0,-1.10048 0.89209,-1.99256 1.99256,-1.99256 H 55.1988 c 1.10047,0 1.99256,0.89208 1.99256,1.99256 V 71.2866 c 0,1.10047 -0.89209,1.99256 -1.99256,1.99256 z"
       style="fill:#cceffc;fill-opacity:1;fill-rule:nonzero;stroke:#333333;stroke-width:0.74721;stroke-linecap:butt;stroke-linejoin:miter;stroke-miterlimit:10;stroke-dasharray:none;stroke-opacity:1"
       transform="matrix(1.3333333,0,0,-1.3333333,71.545333,149.82267)" />
    <text
       id="text13"
       xml:space="preserve"
       transform="matrix(1.3333333,0,0,1.3333333,115.416,64.746667)"><tspan
         id="tspan13"
         style="font-variant:normal;font-weight:normal;font-size:6.97385px;font-family:'Latin Modern Sans';writing-mode:lr-tb;fill:#000000;fill-opacity:1;fill-rule:nonzero;stroke:none"
         x="0"
         dx="0 0 0 0 2.4687428"
         y="0">Read1</tspan></text>
    <path
       id="path14"
       d="M 225.15561,27.1285 H 2.36615 c -1.10046,0 -1.99255,-0.89208 -1.99255,-1.99256 V 14.94768 c 0,-1.10048 0.89209,-1.99256 1.99255,-1.99256 h 222.78946 c 1.10048,0 1.99255,0.89208 1.99255,1.99256 v 10.18826 c 0,1.10048 -0.89207,1.99256 -1.99255,1.99256 z"
       style="fill:#ffd9b3;fill-opacity:1;fill-rule:nonzero;stroke:#333333;stroke-width:0.74721;stroke-linecap:butt;stroke-linejoin:miter;stroke-miterlimit:10;stroke-dasharray:none;stroke-opacity:1"
       transform="matrix(1.3333333,0,0,-1.3333333,71.545333,149.82267)" />
    <text
       id="text14"
       xml:space="preserve"
       transform="matrix(1.3333333,0,0,1.3333333,206.10133,125.42533)"><tspan
         id="tspan14"
         style="font-variant:normal;font-weight:normal;font-size:6.97385px;font-family:'Latin Modern Sans';writing-mode:lr-tb;fill:#000000;fill-opacity:1;fill-rule:nonzero;stroke:none"
         x="0"
         dx="0 0 0.20921551 0.20921551 0 2.4687428"
         y="0">Epoch1</tspan></text>
    <path
       id="path15"
       d="M 110.3509,73.27916 H 87.40657 c -1.10048,0 -1.99255,-0.89209 -1.99255,-1.99256 V 61.09833 c 0,-1.10048 0.89207,-1.99256 1.99255,-1.99256 h 22.94433 c 1.10049,0 1.99256,0.89208 1.99256,1.99256 V 71.2866 c 0,1.10047 -0.89207,1.99256 -1.99256,1.99256 z"
       style="fill:#cceffc;fill-opacity:1;fill-rule:nonzero;stroke:#333333;stroke-width:0.74721;stroke-linecap:butt;stroke-linejoin:miter;stroke-miterlimit:10;stroke-dasharray:none;stroke-opacity:1"
       transform="matrix(1.3333333,0,0,-1.3333333,71.545333,149.82267)" />
    <text
       id="text15"
       xml:space="preserve"
       transform="matrix(1.3333333,0,0,1.3333333,188.95067,64.746667)"><tspan
         id="tspan15"
         style="font-variant:normal;font-weight:normal;font-size:6.97385px;font-family:'Latin Modern Sans';writing-mode:lr-tb;fill:#000000;fill-opacity:1;fill-rule:nonzero;stroke:none"
         x="0"
         dx="0 0 0 0 2.4687428"
         y="0">Read2</tspan></text>
    <path
       id="path16"
       d="M 82.67426,50.20383 H 59.7299 c -1.10047,0 -1.99255,-0.89209 -1.99255,-1.99256 V 38.023 c 0,-1.10047 0.89208,-1.99256 1.99255,-1.99256 h 22.94436 c 1.10046,0 1.99255,0.89209 1.99255,1.99256 v 10.18827 c 0,1.10047 -0.89209,1.99256 -1.99255,1.99256 z"
       style="fill:#fbcce8;fill-opacity:1;fill-rule:nonzero;stroke:#333333;stroke-width:0.74721;stroke-linecap:butt;stroke-linejoin:miter;stroke-miterlimit:10;stroke-dasharray:none;stroke-opacity:1"
       transform="matrix(1.3333333,0,0,-1.3333333,71.545333,149.82267)" />
    <text
       id="text16"
       xml:space="preserve"
       transform="matrix(1.3333333,0,0,1.3333333,151.616,95.481333)"><tspan
         id="tspan16"
         style="font-variant:normal;font-weight:normal;font-size:6.97385px;font-family:'Latin Modern Sans';writing-mode:lr-tb;fill:#000000;fill-opacity:1;fill-rule:nonzero;stroke:none"
         x="0"
         dx="0 -0.61369878 0 0 0 2.4617691"
         y="0">Train1</tspan></text>
    <path
       id="path17"
       d="m 140.23921,50.20383 h -22.94433 c -1.10048,0 -1.99256,-0.89209 -1.99256,-1.99256 V 38.023 c 0,-1.10047 0.89208,-1.99256 1.99256,-1.99256 h 22.94433 c 1.10048,0 1.99256,0.89209 1.99256,1.99256 v 10.18827 c 0,1.10047 -0.89208,1.99256 -1.99256,1.99256 z"
       style="fill:#fbcce8;fill-opacity:1;fill-rule:nonzero;stroke:#333333;stroke-width:0.74721;stroke-linecap:butt;stroke-linejoin:miter;stroke-miterlimit:10;stroke-dasharray:none;stroke-opacity:1"
       transform="matrix(1.3333333,0,0,-1.3333333,71.545333,149.82267)" />
    <text
       id="text17"
       xml:space="preserve"
       transform="matrix(1.3333333,0,0,1.3333333,228.36933,95.481333)"><tspan
         id="tspan17"
         style="font-variant:normal;font-weight:normal;font-size:6.97385px;font-family:'Latin Modern Sans';writing-mode:lr-tb;fill:#000000;fill-opacity:1;fill-rule:nonzero;stroke:none"
         x="0"
         dx="0 -0.62067264 0 0 0 2.4687428"
         y="0">Train2</tspan></text>
    <path
       id="path18"
       d="m 167.71469,73.27916 h -22.94433 c -1.10048,0 -1.99256,-0.89209 -1.99256,-1.99256 V 61.09833 c 0,-1.10048 0.89208,-1.99256 1.99256,-1.99256 h 22.94433 c 1.10048,0 1.99255,0.89208 1.99255,1.99256 V 71.2866 c 0,1.10047 -0.89207,1.99256 -1.99255,1.99256 z"
       style="fill:#cceffc;fill-opacity:1;fill-rule:nonzero;stroke:#333333;stroke-width:0.74721;stroke-linecap:butt;stroke-linejoin:miter;stroke-miterlimit:10;stroke-dasharray:none;stroke-opacity:1"
       transform="matrix(1.3333333,0,0,-1.3333333,71.545333,149.82267)" />
    <text
       id="text18"
       xml:space="preserve"
       transform="matrix(1.3333333,0,0,1.3333333,265.43467,64.696)"><tspan
         id="tspan18"
         style="font-variant:normal;font-weight:normal;font-size:6.97385px;font-family:'Latin Modern Sans';writing-mode:lr-tb;fill:#000000;fill-opacity:1;fill-rule:nonzero;stroke:none"
         x="0"
         dx="0 0 0 0 2.4687428"
         y="0">Read3</tspan></text>
    <path
       id="path19"
       d="M 195.39136,50.20383 H 172.447 c -1.10046,0 -1.99255,-0.89209 -1.99255,-1.99256 V 38.023 c 0,-1.10047 0.89209,-1.99256 1.99255,-1.99256 h 22.94436 c 1.10046,0 1.99255,0.89209 1.99255,1.99256 v 10.18827 c 0,1.10047 -0.89209,1.99256 -1.99255,1.99256 z"
       style="fill:#fbcce8;fill-opacity:1;fill-rule:nonzero;stroke:#333333;stroke-width:0.74721;stroke-linecap:butt;stroke-linejoin:miter;stroke-miterlimit:10;stroke-dasharray:none;stroke-opacity:1"
       transform="matrix(1.3333333,0,0,-1.3333333,71.545333,149.82267)" />
    <text
       id="text19"
       xml:space="preserve"
       transform="matrix(1.3333333,0,0,1.3333333,301.904,95.430667)"><tspan
         id="tspan19"
         style="font-variant:normal;font-weight:normal;font-size:6.97385px;font-family:'Latin Modern Sans';writing-mode:lr-tb;fill:#000000;fill-opacity:1;fill-rule:nonzero;stroke:none"
         x="0"
         dx="0 -0.62067264 0 0 0 2.4687428"
         y="0">Train3</tspan></text>
    <path
       id="path20"
       d="M 307.90724,96.35446 H 284.9629 c -1.10047,0 -1.99255,-0.89207 -1.99255,-1.99255 V 84.17363 c 0,-1.10046 0.89208,-1.99255 1.99255,-1.99255 h 22.94434 c 1.10048,0 1.99256,0.89209 1.99256,1.99255 v 10.18828 c 0,1.10048 -0.89208,1.99255 -1.99256,1.99255 z"
       style="fill:#e6e6e6;fill-opacity:1;fill-rule:nonzero;stroke:#333333;stroke-width:0.74721;stroke-linecap:butt;stroke-linejoin:miter;stroke-miterlimit:10;stroke-dasharray:none;stroke-opacity:1"
       transform="matrix(1.3333333,0,0,-1.3333333,71.545333,149.82267)" />
    <text
       id="text20"
       xml:space="preserve"
       transform="matrix(1.3333333,0,0,1.3333333,451.584,33.222667)"><tspan
         id="tspan20"
         style="font-variant:normal;font-weight:normal;font-size:6.97385px;font-family:'Latin Modern Sans';writing-mode:lr-tb;fill:#000000;fill-opacity:1;fill-rule:nonzero;stroke:none"
         x="0"
         dx="0 0 0.20921551 0 2.4687428"
         y="0">Open2</tspan></text>
    <path
       id="path21"
       d="m 337.79555,73.27916 h -22.94434 c -1.10048,0 -1.99255,-0.89209 -1.99255,-1.99256 V 61.09833 c 0,-1.10048 0.89207,-1.99256 1.99255,-1.99256 h 22.94434 c 1.10048,0 1.99255,0.89208 1.99255,1.99256 V 71.2866 c 0,1.10047 -0.89207,1.99256 -1.99255,1.99256 z"
       style="fill:#cceffc;fill-opacity:1;fill-rule:nonzero;stroke:#333333;stroke-width:0.74721;stroke-linecap:butt;stroke-linejoin:miter;stroke-miterlimit:10;stroke-dasharray:none;stroke-opacity:1"
       transform="matrix(1.3333333,0,0,-1.3333333,71.545333,149.82267)" />
    <text
       id="text21"
       xml:space="preserve"
       transform="matrix(1.3333333,0,0,1.3333333,492.20667,64.746667)"><tspan
         id="tspan21"
         style="font-variant:normal;font-weight:normal;font-size:6.97385px;font-family:'Latin Modern Sans';writing-mode:lr-tb;fill:#000000;fill-opacity:1;fill-rule:nonzero;stroke:none"
         x="0"
         dx="0 0 0 0 2.4687428"
         y="0">Read4</tspan></text>
    <path
       id="path22"
       d="m 393.58705,73.27916 h -22.94433 c -1.10048,0 -1.99256,-0.89209 -1.99256,-1.99256 V 61.09833 c 0,-1.10048 0.89208,-1.99256 1.99256,-1.99256 h 22.94433 c 1.10048,0 1.99255,0.89208 1.99255,1.99256 V 71.2866 c 0,1.10047 -0.89207,1.99256 -1.99255,1.99256 z"
       style="fill:#cceffc;fill-opacity:1;fill-rule:nonzero;stroke:#333333;stroke-width:0.74721;stroke-linecap:butt;stroke-linejoin:miter;stroke-miterlimit:10;stroke-dasharray:none;stroke-opacity:1"
       transform="matrix(1.3333333,0,0,-1.3333333,71.545333,149.82267)" />
    <text
       id="text22"
       xml:space="preserve"
       transform="matrix(1.3333333,0,0,1.3333333,566.59467,64.696)"><tspan
         id="tspan22"
         style="font-variant:normal;font-weight:normal;font-size:6.97385px;font-family:'Latin Modern Sans';writing-mode:lr-tb;fill:#000000;fill-opacity:1;fill-rule:nonzero;stroke:none"
         x="0"
         dx="0 0 0 0 2.4617691"
         y="0">Read5</tspan></text>
    <path
       id="path23"
       d="m 365.47221,50.20383 h -22.94435 c -1.10046,0 -1.99255,-0.89209 -1.99255,-1.99256 V 38.023 c 0,-1.10047 0.89209,-1.99256 1.99255,-1.99256 h 22.94435 c 1.10049,0 1.99256,0.89209 1.99256,1.99256 v 10.18827 c 0,1.10047 -0.89207,1.99256 -1.99256,1.99256 z"
       style="fill:#fbcce8;fill-opacity:1;fill-rule:nonzero;stroke:#333333;stroke-width:0.74721;stroke-linecap:butt;stroke-linejoin:miter;stroke-miterlimit:10;stroke-dasharray:none;stroke-opacity:1"
       transform="matrix(1.3333333,0,0,-1.3333333,71.545333,149.82267)" />
    <text
       id="text23"
       xml:space="preserve"
       transform="matrix(1.3333333,0,0,1.3333333,528.676,95.481333)"><tspan
         id="tspan23"
         style="font-variant:normal;font-weight:normal;font-size:6.97385px;font-family:'Latin Modern Sans';writing-mode:lr-tb;fill:#000000;fill-opacity:1;fill-rule:nonzero;stroke:none"
         x="0"
         dx="0 -0.62067264 0 0 0 2.4687428"
         y="0">Train4</tspan></text>
    <path
       id="path24"
       d="m 507.95433,27.1285 h -224.2068 c -1.10047,0 -1.99256,-0.89208 -1.99256,-1.99256 V 14.94768 c 0,-1.10048 0.89209,-1.99256 1.99256,-1.99256 h 224.2068 c 1.10048,0 1.99255,0.89208 1.99255,1.99256 v 10.18826 c 0,1.10048 -0.89207,1.99256 -1.99255,1.99256 z"
       style="fill:#ffd9b3;fill-opacity:1;fill-rule:nonzero;stroke:#333333;stroke-width:0.74721;stroke-linecap:butt;stroke-linejoin:miter;stroke-miterlimit:10;stroke-dasharray:none;stroke-opacity:1"
       transform="matrix(1.3333333,0,0,-1.3333333,71.545333,149.82267)" />
    <text
       id="text24"
       xml:space="preserve"
       transform="matrix(1.3333333,0,0,1.3333333,582.216,125.42533)"><tspan
         id="tspan24"
         style="font-variant:normal;font-weight:normal;font-size:6.97385px;font-family:'Latin Modern Sans';writing-mode:lr-tb;fill:#000000;fill-opacity:1;fill-rule:nonzero;stroke:none"
         x="0"
         dx="0 0 0.20921551 0.20921551 0 2.4687428"
         y="0">Epoch2</tspan></text>
    <path
       id="path25"
       d="m 450.51263,73.27916 h -22.94435 c -1.10048,0 -1.99255,-0.89209 -1.99255,-1.99256 V 61.09833 c 0,-1.10048 0.89207,-1.99256 1.99255,-1.99256 h 22.94435 c 1.10047,0 1.99256,0.89208 1.99256,1.99256 V 71.2866 c 0,1.10047 -0.89209,1.99256 -1.99256,1.99256 z"
       style="fill:#cceffc;fill-opacity:1;fill-rule:nonzero;stroke:#333333;stroke-width:0.74721;stroke-linecap:butt;stroke-linejoin:miter;stroke-miterlimit:10;stroke-dasharray:none;stroke-opacity:1"
       transform="matrix(1.3333333,0,0,-1.3333333,71.545333,149.82267)" />
    <text
       id="text25"
       xml:space="preserve"
       transform="matrix(1.3333333,0,0,1.3333333,642.49333,64.696)"><tspan
         id="tspan25"
         style="font-variant:normal;font-weight:normal;font-size:6.97385px;font-family:'Latin Modern Sans';writing-mode:lr-tb;fill:#000000;fill-opacity:1;fill-rule:nonzero;stroke:none"
         x="0"
         dx="0 0 0 0 2.4687428"
         y="0">Read6</tspan></text>
    <path
       id="path26"
       d="m 422.83597,50.20383 h -22.94435 c -1.10047,0 -1.99256,-0.89209 -1.99256,-1.99256 V 38.023 c 0,-1.10047 0.89209,-1.99256 1.99256,-1.99256 h 22.94435 c 1.10046,0 1.99255,0.89209 1.99255,1.99256 v 10.18827 c 0,1.10047 -0.89209,1.99256 -1.99255,1.99256 z"
       style="fill:#fbcce8;fill-opacity:1;fill-rule:nonzero;stroke:#333333;stroke-width:0.74721;stroke-linecap:butt;stroke-linejoin:miter;stroke-miterlimit:10;stroke-dasharray:none;stroke-opacity:1"
       transform="matrix(1.3333333,0,0,-1.3333333,71.545333,149.82267)" />
    <text
       id="text26"
       xml:space="preserve"
       transform="matrix(1.3333333,0,0,1.3333333,605.16,95.430667)"><tspan
         id="tspan26"
         style="font-variant:normal;font-weight:normal;font-size:6.97385px;font-family:'Latin Modern Sans';writing-mode:lr-tb;fill:#000000;fill-opacity:1;fill-rule:nonzero;stroke:none"
         x="0"
         dx="0 -0.62067264 0 0 0 2.4687428"
         y="0">Train5</tspan></text>
    <path
       id="path27"
       d="m 481.6163,50.20383 h -22.94435 c -1.10046,0 -1.99255,-0.89209 -1.99255,-1.99256 V 38.023 c 0,-1.10047 0.89209,-1.99256 1.99255,-1.99256 h 22.94435 c 1.10047,0 1.99256,0.89209 1.99256,1.99256 v 10.18827 c 0,1.10047 -0.89209,1.99256 -1.99256,1.99256 z"
       style="fill:#fbcce8;fill-opacity:1;fill-rule:nonzero;stroke:#333333;stroke-width:0.74721;stroke-linecap:butt;stroke-linejoin:miter;stroke-miterlimit:10;stroke-dasharray:none;stroke-opacity:1"
       transform="matrix(1.3333333,0,0,-1.3333333,71.545333,149.82267)" />
    <text
       id="text27"
       xml:space="preserve"
       transform="matrix(1.3333333,0,0,1.3333333,683.532,95.430667)"><tspan
         id="tspan27"
         style="font-variant:normal;font-weight:normal;font-size:6.97385px;font-family:'Latin Modern Sans';writing-mode:lr-tb;fill:#000000;fill-opacity:1;fill-rule:nonzero;stroke:none"
         x="0"
         dx="0 -0.61369878 0 0 0 2.4617691"
         y="0">Train6</tspan></text>
  </g>
</svg>
