<?xml version="1.0" encoding="UTF-8" standalone="no"?>
<!-- Created with Inkscape (http://www.inkscape.org/) -->

<svg
   version="1.1"
   id="svg1"
   width="774.80267"
   height="150.05867"
   viewBox="0 0 774.80267 150.05867"
   xmlns="http://www.w3.org/2000/svg"
   xmlns:svg="http://www.w3.org/2000/svg">
  <defs
     id="defs1" />
  <g
     id="g1">
    <path
       id="path1"
       d="M -53.6597,8.70328 H 527.45015 V 28.54602 H -53.6597 Z"
       style="fill:#e6ffe6;fill-opacity:1;fill-rule:nonzero;stroke:none"
       transform="matrix(1.3333333,0,0,-1.3333333,71.545333,132.328)" />
    <text
       id="text1"
       xml:space="preserve"
       transform="matrix(1.3333333,0,0,1.3333333,11.986667,110.484)"><tspan
         id="tspan1"
         style="font-variant:normal;font-weight:normal;font-size:8.96638px;font-family:'Latin Modern Sans';writing-mode:lr-tb;fill:#000000;fill-opacity:1;fill-rule:nonzero;stroke:none"
         x="0"
         dx="0 0 0.26002502 0.26002502"
         y="0">Epoch</tspan></text>
    <path
       id="path2"
       d="M -53.6597,28.94453 H 527.45015 V 48.78727 H -53.6597 Z"
       style="fill:#ffffcd;fill-opacity:1;fill-rule:nonzero;stroke:none"
       transform="matrix(1.3333333,0,0,-1.3333333,71.545333,132.328)" />
    <text
       id="text2"
       xml:space="preserve"
       transform="matrix(1.3333333,0,0,1.3333333,11.986667,84.554667)"><tspan
         id="tspan2"
         style="font-variant:normal;font-weight:normal;font-size:8.96638px;font-family:'Latin Modern Sans';writing-mode:lr-tb;fill:#000000;fill-opacity:1;fill-rule:nonzero;stroke:none"
         x="0"
         dx="0 -0.77110869"
         y="0">Train</tspan></text>
    <path
       id="path3"
       d="M -53.6597,49.18578 H 527.45015 V 69.02852 H -53.6597 Z"
       style="fill:#ffe6e6;fill-opacity:1;fill-rule:nonzero;stroke:none"
       transform="matrix(1.3333333,0,0,-1.3333333,71.545333,132.328)" />
    <text
       id="text3"
       xml:space="preserve"
       transform="matrix(1.3333333,0,0,1.3333333,11.986667,57.602667)"><tspan
         id="tspan3"
         style="font-variant:normal;font-weight:normal;font-size:8.96638px;font-family:'Latin Modern Sans';writing-mode:lr-tb;fill:#000000;fill-opacity:1;fill-rule:nonzero;stroke:none"
         x="0"
         y="0">Read</tspan></text>
    <path
       id="path4"
       d="M -53.6597,69.42703 H 527.45015 V 89.26977 H -53.6597 Z"
       style="fill:#f0f0ff;fill-opacity:1;fill-rule:nonzero;stroke:none"
       transform="matrix(1.3333333,0,0,-1.3333333,71.545333,132.328)" />
    <text
       id="text4"
       xml:space="preserve"
       transform="matrix(1.3333333,0,0,1.3333333,11.986667,29.652)"><tspan
         id="tspan4"
         style="font-variant:normal;font-weight:normal;font-size:8.96638px;font-family:'Latin Modern Sans';writing-mode:lr-tb;fill:#000000;fill-opacity:1;fill-rule:nonzero;stroke:none"
         x="0"
         dx="0 0 0.26002502"
         y="0">Open</tspan></text>
    <path
       id="path5"
       d="M 0,0 V 97.79639"
       style="fill:none;stroke:#000000;stroke-width:0.79701;stroke-linecap:butt;stroke-linejoin:miter;stroke-miterlimit:10;stroke-dasharray:none;stroke-opacity:1"
       transform="matrix(1.3333333,0,0,-1.3333333,71.545333,132.328)" />
    <text
       id="text5"
       xml:space="preserve"
       transform="matrix(1.3333333,0,0,1.3333333,57.545333,145.368)"><tspan
         id="tspan5"
         style="font-variant:normal;font-weight:normal;font-size:8.96638px;font-family:'Latin Modern Sans';writing-mode:lr-tb;fill:#000000;fill-opacity:1;fill-rule:nonzero;stroke:none"
         x="0"
         y="0">00:00</tspan></text>
    <path
       id="path6"
       d="M 28.3468,0 V 97.79639"
       style="fill:none;stroke:#000000;stroke-width:0.79701;stroke-linecap:butt;stroke-linejoin:miter;stroke-miterlimit:10;stroke-dasharray:none;stroke-opacity:1"
       transform="matrix(1.3333333,0,0,-1.3333333,71.545333,132.328)" />
    <text
       id="text6"
       xml:space="preserve"
       transform="matrix(1.3333333,0,0,1.3333333,95.341333,145.368)"><tspan
         id="tspan6"
         style="font-variant:normal;font-weight:normal;font-size:8.96638px;font-family:'Latin Modern Sans';writing-mode:lr-tb;fill:#000000;fill-opacity:1;fill-rule:nonzero;stroke:none"
         x="0"
         y="0">00:05</tspan></text>
    <path
       id="path7"
       d="M 56.69362,0 V 97.79639"
       style="fill:none;stroke:#000000;stroke-width:0.79701;stroke-linecap:butt;stroke-linejoin:miter;stroke-miterlimit:10;stroke-dasharray:none;stroke-opacity:1"
       transform="matrix(1.3333333,0,0,-1.3333333,71.545333,132.328)" />
    <text
       id="text7"
       xml:space="preserve"
       transform="matrix(1.3333333,0,0,1.3333333,133.136,145.368)"><tspan
         id="tspan7"
         style="font-variant:normal;font-weight:normal;font-size:8.96638px;font-family:'Latin Modern Sans';writing-mode:lr-tb;fill:#000000;fill-opacity:1;fill-rule:nonzero;stroke:none"
         x="0"
         y="0">00:10</tspan></text>
    <path
       id="path8"
       d="M 85.04042,0 V 97.79639"
       style="fill:none;stroke:#000000;stroke-width:0.79701;stroke-linecap:butt;stroke-linejoin:miter;stroke-miterlimit:10;stroke-dasharray:none;stroke-opacity:1"
       transform="matrix(1.3333333,0,0,-1.3333333,71.545333,132.328)" />
    <text
       id="text8"
       xml:space="preserve"
       transform="matrix(1.3333333,0,0,1.3333333,170.932,145.368)"><tspan
         id="tspan8"
         style="font-variant:normal;font-weight:normal;font-size:8.96638px;font-family:'Latin Modern Sans';writing-mode:lr-tb;fill:#000000;fill-opacity:1;fill-rule:nonzero;stroke:none"
         x="0"
         y="0">00:15</tspan></text>
    <path
       id="path9"
       d="M 113.38724,0 V 97.79639"
       style="fill:none;stroke:#000000;stroke-width:0.79701;stroke-linecap:butt;stroke-linejoin:miter;stroke-miterlimit:10;stroke-dasharray:none;stroke-opacity:1"
       transform="matrix(1.3333333,0,0,-1.3333333,71.545333,132.328)" />
    <text
       id="text9"
       xml:space="preserve"
       transform="matrix(1.3333333,0,0,1.3333333,208.72667,145.368)"><tspan
         id="tspan9"
         style="font-variant:normal;font-weight:normal;font-size:8.96638px;font-family:'Latin Modern Sans';writing-mode:lr-tb;fill:#000000;fill-opacity:1;fill-rule:nonzero;stroke:none"
         x="0"
         y="0">00:20</tspan></text>
    <path
       id="path10"
       d="M 141.73404,0 V 97.79639"
       style="fill:none;stroke:#000000;stroke-width:0.79701;stroke-linecap:butt;stroke-linejoin:miter;stroke-miterlimit:10;stroke-dasharray:none;stroke-opacity:1"
       transform="matrix(1.3333333,0,0,-1.3333333,71.545333,132.328)" />
    <text
       id="text10"
       xml:space="preserve"
       transform="matrix(1.3333333,0,0,1.3333333,246.52267,145.368)"><tspan
         id="tspan10"
         style="font-variant:normal;font-weight:normal;font-size:8.96638px;font-family:'Latin Modern Sans';writing-mode:lr-tb;fill:#000000;fill-opacity:1;fill-rule:nonzero;stroke:none"
         x="0"
         y="0">00:25</tspan></text>
    <path
       id="path11"
       d="M 170.08086,0 V 97.79639"
       style="fill:none;stroke:#000000;stroke-width:0.79701;stroke-linecap:butt;stroke-linejoin:miter;stroke-miterlimit:10;stroke-dasharray:none;stroke-opacity:1"
       transform="matrix(1.3333333,0,0,-1.3333333,71.545333,132.328)" />
    <text
       id="text11"
       xml:space="preserve"
       transform="matrix(1.3333333,0,0,1.3333333,284.31733,145.368)"><tspan
         id="tspan11"
         style="font-variant:normal;font-weight:normal;font-size:8.96638px;font-family:'Latin Modern Sans';writing-mode:lr-tb;fill:#000000;fill-opacity:1;fill-rule:nonzero;stroke:none"
         x="0"
         y="0">00:30</tspan></text>
    <path
       id="path12"
       d="M 198.42766,0 V 97.79639"
       style="fill:none;stroke:#000000;stroke-width:0.79701;stroke-linecap:butt;stroke-linejoin:miter;stroke-miterlimit:10;stroke-dasharray:none;stroke-opacity:1"
       transform="matrix(1.3333333,0,0,-1.3333333,71.545333,132.328)" />
    <text
       id="text12"
       xml:space="preserve"
       transform="matrix(1.3333333,0,0,1.3333333,322.112,145.368)"><tspan
         id="tspan12"
         style="font-variant:normal;font-weight:normal;font-size:8.96638px;font-family:'Latin Modern Sans';writing-mode:lr-tb;fill:#000000;fill-opacity:1;fill-rule:nonzero;stroke:none"
         x="0"
         y="0">00:35</tspan></text>
    <path
       id="path13"
       d="M 226.77448,0 V 97.79639"
       style="fill:none;stroke:#000000;stroke-width:0.79701;stroke-linecap:butt;stroke-linejoin:miter;stroke-miterlimit:10;stroke-dasharray:none;stroke-opacity:1"
       transform="matrix(1.3333333,0,0,-1.3333333,71.545333,132.328)" />
    <text
       id="text13"
       xml:space="preserve"
       transform="matrix(1.3333333,0,0,1.3333333,359.908,145.368)"><tspan
         id="tspan13"
         style="font-variant:normal;font-weight:normal;font-size:8.96638px;font-family:'Latin Modern Sans';writing-mode:lr-tb;fill:#000000;fill-opacity:1;fill-rule:nonzero;stroke:none"
         x="0"
         y="0">00:40</tspan></text>
    <path
       id="path14"
       d="M 255.12128,0 V 97.79639"
       style="fill:none;stroke:#000000;stroke-width:0.79701;stroke-linecap:butt;stroke-linejoin:miter;stroke-miterlimit:10;stroke-dasharray:none;stroke-opacity:1"
       transform="matrix(1.3333333,0,0,-1.3333333,71.545333,132.328)" />
    <text
       id="text14"
       xml:space="preserve"
       transform="matrix(1.3333333,0,0,1.3333333,397.70267,145.368)"><tspan
         id="tspan14"
         style="font-variant:normal;font-weight:normal;font-size:8.96638px;font-family:'Latin Modern Sans';writing-mode:lr-tb;fill:#000000;fill-opacity:1;fill-rule:nonzero;stroke:none"
         x="0"
         y="0">00:45</tspan></text>
    <path
       id="path15"
       d="M 283.4681,0 V 97.79639"
       style="fill:none;stroke:#000000;stroke-width:0.79701;stroke-linecap:butt;stroke-linejoin:miter;stroke-miterlimit:10;stroke-dasharray:none;stroke-opacity:1"
       transform="matrix(1.3333333,0,0,-1.3333333,71.545333,132.328)" />
    <text
       id="text15"
       xml:space="preserve"
       transform="matrix(1.3333333,0,0,1.3333333,435.49867,145.368)"><tspan
         id="tspan15"
         style="font-variant:normal;font-weight:normal;font-size:8.96638px;font-family:'Latin Modern Sans';writing-mode:lr-tb;fill:#000000;fill-opacity:1;fill-rule:nonzero;stroke:none"
         x="0"
         y="0">00:50</tspan></text>
    <path
       id="path16"
       d="M 311.8149,0 V 97.79639"
       style="fill:none;stroke:#000000;stroke-width:0.79701;stroke-linecap:butt;stroke-linejoin:miter;stroke-miterlimit:10;stroke-dasharray:none;stroke-opacity:1"
       transform="matrix(1.3333333,0,0,-1.3333333,71.545333,132.328)" />
    <text
       id="text16"
       xml:space="preserve"
       transform="matrix(1.3333333,0,0,1.3333333,473.29333,145.368)"><tspan
         id="tspan16"
         style="font-variant:normal;font-weight:normal;font-size:8.96638px;font-family:'Latin Modern Sans';writing-mode:lr-tb;fill:#000000;fill-opacity:1;fill-rule:nonzero;stroke:none"
         x="0"
         y="0">00:55</tspan></text>
    <path
       id="path17"
       d="M 340.16171,0 V 97.79639"
       style="fill:none;stroke:#000000;stroke-width:0.79701;stroke-linecap:butt;stroke-linejoin:miter;stroke-miterlimit:10;stroke-dasharray:none;stroke-opacity:1"
       transform="matrix(1.3333333,0,0,-1.3333333,71.545333,132.328)" />
    <text
       id="text17"
       xml:space="preserve"
       transform="matrix(1.3333333,0,0,1.3333333,511.08933,145.368)"><tspan
         id="tspan17"
         style="font-variant:normal;font-weight:normal;font-size:8.96638px;font-family:'Latin Modern Sans';writing-mode:lr-tb;fill:#000000;fill-opacity:1;fill-rule:nonzero;stroke:none"
         x="0"
         y="0">01:00</tspan></text>
    <path
       id="path18"
       d="M 368.50851,0 V 97.79639"
       style="fill:none;stroke:#000000;stroke-width:0.79701;stroke-linecap:butt;stroke-linejoin:miter;stroke-miterlimit:10;stroke-dasharray:none;stroke-opacity:1"
       transform="matrix(1.3333333,0,0,-1.3333333,71.545333,132.328)" />
    <text
       id="text18"
       xml:space="preserve"
       transform="matrix(1.3333333,0,0,1.3333333,548.884,145.368)"><tspan
         id="tspan18"
         style="font-variant:normal;font-weight:normal;font-size:8.96638px;font-family:'Latin Modern Sans';writing-mode:lr-tb;fill:#000000;fill-opacity:1;fill-rule:nonzero;stroke:none"
         x="0"
         y="0">01:05</tspan></text>
    <path
       id="path19"
       d="M 396.85533,0 V 97.79639"
       style="fill:none;stroke:#000000;stroke-width:0.79701;stroke-linecap:butt;stroke-linejoin:miter;stroke-miterlimit:10;stroke-dasharray:none;stroke-opacity:1"
       transform="matrix(1.3333333,0,0,-1.3333333,71.545333,132.328)" />
    <text
       id="text19"
       xml:space="preserve"
       transform="matrix(1.3333333,0,0,1.3333333,586.68,145.368)"><tspan
         id="tspan19"
         style="font-variant:normal;font-weight:normal;font-size:8.96638px;font-family:'Latin Modern Sans';writing-mode:lr-tb;fill:#000000;fill-opacity:1;fill-rule:nonzero;stroke:none"
         x="0"
         y="0">01:10</tspan></text>
    <path
       id="path20"
       d="M 425.20213,0 V 97.79639"
       style="fill:none;stroke:#000000;stroke-width:0.79701;stroke-linecap:butt;stroke-linejoin:miter;stroke-miterlimit:10;stroke-dasharray:none;stroke-opacity:1"
       transform="matrix(1.3333333,0,0,-1.3333333,71.545333,132.328)" />
    <text
       id="text20"
       xml:space="preserve"
       transform="matrix(1.3333333,0,0,1.3333333,624.47467,145.368)"><tspan
         id="tspan20"
         style="font-variant:normal;font-weight:normal;font-size:8.96638px;font-family:'Latin Modern Sans';writing-mode:lr-tb;fill:#000000;fill-opacity:1;fill-rule:nonzero;stroke:none"
         x="0"
         y="0">01:15</tspan></text>
    <path
       id="path21"
       d="M 453.54895,0 V 97.79639"
       style="fill:none;stroke:#000000;stroke-width:0.79701;stroke-linecap:butt;stroke-linejoin:miter;stroke-miterlimit:10;stroke-dasharray:none;stroke-opacity:1"
       transform="matrix(1.3333333,0,0,-1.3333333,71.545333,132.328)" />
    <text
       id="text21"
       xml:space="preserve"
       transform="matrix(1.3333333,0,0,1.3333333,662.26933,145.368)"><tspan
         id="tspan21"
         style="font-variant:normal;font-weight:normal;font-size:8.96638px;font-family:'Latin Modern Sans';writing-mode:lr-tb;fill:#000000;fill-opacity:1;fill-rule:nonzero;stroke:none"
         x="0"
         y="0">01:20</tspan></text>
    <path
       id="path22"
       d="M 481.89577,0 V 97.79639"
       style="fill:none;stroke:#000000;stroke-width:0.79701;stroke-linecap:butt;stroke-linejoin:miter;stroke-miterlimit:10;stroke-dasharray:none;stroke-opacity:1"
       transform="matrix(1.3333333,0,0,-1.3333333,71.545333,132.328)" />
    <text
       id="text22"
       xml:space="preserve"
       transform="matrix(1.3333333,0,0,1.3333333,700.06533,145.368)"><tspan
         id="tspan22"
         style="font-variant:normal;font-weight:normal;font-size:8.96638px;font-family:'Latin Modern Sans';writing-mode:lr-tb;fill:#000000;fill-opacity:1;fill-rule:nonzero;stroke:none"
         x="0"
         y="0">01:25</tspan></text>
    <path
       id="path23"
       d="M 510.24257,0 V 97.79639"
       style="fill:none;stroke:#000000;stroke-width:0.79701;stroke-linecap:butt;stroke-linejoin:miter;stroke-miterlimit:10;stroke-dasharray:none;stroke-opacity:1"
       transform="matrix(1.3333333,0,0,-1.3333333,71.545333,132.328)" />
    <text
       id="text23"
       xml:space="preserve"
       transform="matrix(1.3333333,0,0,1.3333333,737.86,145.368)"><tspan
         id="tspan23"
         style="font-variant:normal;font-weight:normal;font-size:8.96638px;font-family:'Latin Modern Sans';writing-mode:lr-tb;fill:#000000;fill-opacity:1;fill-rule:nonzero;stroke:none"
         x="0"
         y="0">01:30</tspan></text>
    <path
       id="path24"
       d="M 9.53932,85.01624 H 2.36615 c -1.10046,0 -1.99255,-0.89209 -1.99255,-1.99256 v -7.35359 c 0,-1.10046 0.89209,-1.99255 1.99255,-1.99255 h 7.17317 c 1.10048,0 1.99256,0.89209 1.99256,1.99255 v 7.35359 c 0,1.10047 -0.89208,1.99256 -1.99256,1.99256 z"
       style="fill:#e6e6e6;fill-opacity:1;fill-rule:nonzero;stroke:#333333;stroke-width:0.74721;stroke-linecap:butt;stroke-linejoin:miter;stroke-miterlimit:10;stroke-dasharray:none;stroke-opacity:1"
       transform="matrix(1.3333333,0,0,-1.3333333,71.545333,132.328)" />
    <path
       id="path25"
       d="m 9.44133,85.38985 3.5981,6.23158"
       style="fill:none;stroke:#000000;stroke-width:0.3985;stroke-linecap:butt;stroke-linejoin:miter;stroke-miterlimit:10;stroke-dasharray:none;stroke-opacity:1"
       transform="matrix(1.3333333,0,0,-1.3333333,71.545333,132.328)" />
    <text
       id="text25"
       xml:space="preserve"
       transform="matrix(1.3333333,0,0,1.3333333,75.9,7.0266667)"><tspan
         id="tspan25"
         style="font-variant:normal;font-weight:normal;font-size:5.97758px;font-family:'Latin Modern Sans';writing-mode:lr-tb;fill:#000000;fill-opacity:1;fill-rule:nonzero;stroke:none"
         x="0"
         dx="0 0 0.1793274 0 2.1160634"
         y="0">Open1</tspan></text>
    <path
       id="path26"
       d="M 26.27678,64.77528 H 13.52444 c -1.10046,0 -1.99255,-0.89207 -1.99255,-1.99255 v -7.35359 c 0,-1.10047 0.89209,-1.99256 1.99255,-1.99256 h 12.75234 c 1.10046,0 1.99255,0.89209 1.99255,1.99256 v 7.35359 c 0,1.10048 -0.89209,1.99255 -1.99255,1.99255 z"
       style="fill:#cceffc;fill-opacity:1;fill-rule:nonzero;stroke:#333333;stroke-width:0.74721;stroke-linecap:butt;stroke-linejoin:miter;stroke-miterlimit:10;stroke-dasharray:none;stroke-opacity:1"
       transform="matrix(1.3333333,0,0,-1.3333333,71.545333,132.328)" />
    <text
       id="text26"
       xml:space="preserve"
       transform="matrix(1.3333333,0,0,1.3333333,87.770667,55.792)"><tspan
         id="tspan26"
         style="font-variant:normal;font-weight:normal;font-size:4.98132px;font-family:'Latin Modern Sans';writing-mode:lr-tb;fill:#000000;fill-opacity:1;fill-rule:nonzero;stroke:none"
         x="0"
         dx="0 0 0 0 1.7633873"
         y="0">Read1</tspan></text>
    <path
       id="path27"
       d="m 37.88612,64.77528 h -7.17317 c -1.10048,0 -1.99255,-0.89207 -1.99255,-1.99255 v -7.35359 c 0,-1.10047 0.89207,-1.99256 1.99255,-1.99256 h 7.17317 c 1.10047,0 1.99256,0.89209 1.99256,1.99256 v 7.35359 c 0,1.10048 -0.89209,1.99255 -1.99256,1.99255 z"
       style="fill:#cceffc;fill-opacity:1;fill-rule:nonzero;stroke:#333333;stroke-width:0.74721;stroke-linecap:butt;stroke-linejoin:miter;stroke-miterlimit:10;stroke-dasharray:none;stroke-opacity:1"
       transform="matrix(1.3333333,0,0,-1.3333333,71.545333,132.328)" />
    <path
       id="path28"
       d="m 36.49887,65.1489 3.61784,9.93931"
       style="fill:none;stroke:#000000;stroke-width:0.3985;stroke-linecap:butt;stroke-linejoin:miter;stroke-miterlimit:10;stroke-dasharray:none;stroke-opacity:1"
       transform="matrix(1.3333333,0,0,-1.3333333,71.545333,132.328)" />
    <text
       id="text28"
       xml:space="preserve"
       transform="matrix(1.3333333,0,0,1.3333333,112.664,30.537333)"><tspan
         id="tspan28"
         style="font-variant:normal;font-weight:normal;font-size:5.97758px;font-family:'Latin Modern Sans';writing-mode:lr-tb;fill:#000000;fill-opacity:1;fill-rule:nonzero;stroke:none"
         x="0"
         dx="0 0 0 0 2.1160634"
         y="0">Read2</tspan></text>
    <path
       id="path29"
       d="M 54.87263,64.77528 H 42.1203 c -1.10048,0 -1.99255,-0.89207 -1.99255,-1.99255 v -7.35359 c 0,-1.10047 0.89207,-1.99256 1.99255,-1.99256 h 12.75233 c 1.10047,0 1.99256,0.89209 1.99256,1.99256 v 7.35359 c 0,1.10048 -0.89209,1.99255 -1.99256,1.99255 z"
       style="fill:#cceffc;fill-opacity:1;fill-rule:nonzero;stroke:#333333;stroke-width:0.74721;stroke-linecap:butt;stroke-linejoin:miter;stroke-miterlimit:10;stroke-dasharray:none;stroke-opacity:1"
       transform="matrix(1.3333333,0,0,-1.3333333,71.545333,132.328)" />
    <text
       id="text29"
       xml:space="preserve"
       transform="matrix(1.3333333,0,0,1.3333333,125.89867,55.756)"><tspan
         id="tspan29"
         style="font-variant:normal;font-weight:normal;font-size:4.98132px;font-family:'Latin Modern Sans';writing-mode:lr-tb;fill:#000000;fill-opacity:1;fill-rule:nonzero;stroke:none"
         x="0"
         dx="0 0 0 0 1.7633873"
         y="0">Read3</tspan></text>
    <path
       id="path30"
       d="m 37.88612,44.53435 h -7.17317 c -1.10048,0 -1.99255,-0.89209 -1.99255,-1.99255 v -7.35361 c 0,-1.10047 0.89207,-1.99256 1.99255,-1.99256 h 7.17317 c 1.10047,0 1.99256,0.89209 1.99256,1.99256 v 7.35361 c 0,1.10046 -0.89209,1.99255 -1.99256,1.99255 z"
       style="fill:#fbcce8;fill-opacity:1;fill-rule:nonzero;stroke:#333333;stroke-width:0.74721;stroke-linecap:butt;stroke-linejoin:miter;stroke-miterlimit:10;stroke-dasharray:none;stroke-opacity:1"
       transform="matrix(1.3333333,0,0,-1.3333333,71.545333,132.328)" />
    <path
       id="path31"
       d="m 28.34679,39.91428 -6.60945,1.16531"
       style="fill:none;stroke:#000000;stroke-width:0.3985;stroke-linecap:butt;stroke-linejoin:miter;stroke-miterlimit:10;stroke-dasharray:none;stroke-opacity:1"
       transform="matrix(1.3333333,0,0,-1.3333333,71.545333,132.328)" />
    <text
       id="text31"
       xml:space="preserve"
       transform="matrix(1.3333333,0,0,1.3333333,73.453333,80.253333)"><tspan
         id="tspan31"
         style="font-variant:normal;font-weight:normal;font-size:5.97758px;font-family:'Latin Modern Sans';writing-mode:lr-tb;fill:#000000;fill-opacity:1;fill-rule:nonzero;stroke:none"
         x="0"
         dx="0 -0.53200459 0 0 0 2.1160634"
         y="0">Train1</tspan></text>
    <path
       id="path32"
       d="M 54.87263,44.53435 H 42.1203 c -1.10048,0 -1.99255,-0.89209 -1.99255,-1.99255 v -7.35361 c 0,-1.10047 0.89207,-1.99256 1.99255,-1.99256 h 12.75233 c 1.10047,0 1.99256,0.89209 1.99256,1.99256 v 7.35361 c 0,1.10046 -0.89209,1.99255 -1.99256,1.99255 z"
       style="fill:#fbcce8;fill-opacity:1;fill-rule:nonzero;stroke:#333333;stroke-width:0.74721;stroke-linecap:butt;stroke-linejoin:miter;stroke-miterlimit:10;stroke-dasharray:none;stroke-opacity:1"
       transform="matrix(1.3333333,0,0,-1.3333333,71.545333,132.328)" />
    <text
       id="text32"
       xml:space="preserve"
       transform="matrix(1.3333333,0,0,1.3333333,125.58933,82.757333)"><tspan
         id="tspan32"
         style="font-variant:normal;font-weight:normal;font-size:4.98132px;font-family:'Latin Modern Sans';writing-mode:lr-tb;fill:#000000;fill-opacity:1;fill-rule:nonzero;stroke:none"
         x="0"
         dx="0 -0.44333747 0 0 0 1.7633873"
         y="0">Train2</tspan></text>
    <path
       id="path33"
       d="m 66.27998,44.53435 h -7.17317 c -1.10048,0 -1.99255,-0.89209 -1.99255,-1.99255 v -7.35361 c 0,-1.10047 0.89207,-1.99256 1.99255,-1.99256 h 7.17317 c 1.10047,0 1.99256,0.89209 1.99256,1.99256 v 7.35361 c 0,1.10046 -0.89209,1.99255 -1.99256,1.99255 z"
       style="fill:#fbcce8;fill-opacity:1;fill-rule:nonzero;stroke:#333333;stroke-width:0.74721;stroke-linecap:butt;stroke-linejoin:miter;stroke-miterlimit:10;stroke-dasharray:none;stroke-opacity:1"
       transform="matrix(1.3333333,0,0,-1.3333333,71.545333,132.328)" />
    <path
       id="path34"
       d="m 68.64613,43.85918 3.81871,3.205"
       style="fill:none;stroke:#000000;stroke-width:0.3985;stroke-linecap:butt;stroke-linejoin:miter;stroke-miterlimit:10;stroke-dasharray:none;stroke-opacity:1"
       transform="matrix(1.3333333,0,0,-1.3333333,71.545333,132.328)" />
    <text
       id="text34"
       xml:space="preserve"
       transform="matrix(1.3333333,0,0,1.3333333,155.424,67.814667)"><tspan
         id="tspan34"
         style="font-variant:normal;font-weight:normal;font-size:5.97758px;font-family:'Latin Modern Sans';writing-mode:lr-tb;fill:#000000;fill-opacity:1;fill-rule:nonzero;stroke:none"
         x="0"
         dx="0 -0.53200459 0 0 0 2.1160634"
         y="0">Train3</tspan></text>
    <path
       id="path35"
       d="M 83.06458,24.29341 H 2.36615 c -1.10046,0 -1.99255,-0.89209 -1.99255,-1.99255 v -7.35359 c 0,-1.10048 0.89209,-1.99256 1.99255,-1.99256 h 80.69843 c 1.10046,0 1.99255,0.89208 1.99255,1.99256 v 7.35359 c 0,1.10046 -0.89209,1.99255 -1.99255,1.99255 z"
       style="fill:#ffd9b3;fill-opacity:1;fill-rule:nonzero;stroke:#333333;stroke-width:0.74721;stroke-linecap:butt;stroke-linejoin:miter;stroke-miterlimit:10;stroke-dasharray:none;stroke-opacity:1"
       transform="matrix(1.3333333,0,0,-1.3333333,71.545333,132.328)" />
    <text
       id="text35"
       xml:space="preserve"
       transform="matrix(1.3333333,0,0,1.3333333,116.268,109.156)"><tspan
         id="tspan35"
         style="font-variant:normal;font-weight:normal;font-size:4.98132px;font-family:'Latin Modern Sans';writing-mode:lr-tb;fill:#000000;fill-opacity:1;fill-rule:nonzero;stroke:none"
         x="0"
         dx="0 0 0.14445828 0.1494396 0 1.7633873"
         y="0">Epoch1</tspan></text>
    <path
       id="path36"
       d="m 151.27336,85.01624 h -7.17317 c -1.10048,0 -1.99255,-0.89209 -1.99255,-1.99256 v -7.35359 c 0,-1.10046 0.89207,-1.99255 1.99255,-1.99255 h 7.17317 c 1.10047,0 1.99255,0.89209 1.99255,1.99255 v 7.35359 c 0,1.10047 -0.89208,1.99256 -1.99255,1.99256 z"
       style="fill:#e6e6e6;fill-opacity:1;fill-rule:nonzero;stroke:#333333;stroke-width:0.74721;stroke-linecap:butt;stroke-linejoin:miter;stroke-miterlimit:10;stroke-dasharray:none;stroke-opacity:1"
       transform="matrix(1.3333333,0,0,-1.3333333,71.545333,132.328)" />
    <path
       id="path37"
       d="m 151.17537,85.38985 3.5981,6.23158"
       style="fill:none;stroke:#000000;stroke-width:0.3985;stroke-linecap:butt;stroke-linejoin:miter;stroke-miterlimit:10;stroke-dasharray:none;stroke-opacity:1"
       transform="matrix(1.3333333,0,0,-1.3333333,71.545333,132.328)" />
    <text
       id="text37"
       xml:space="preserve"
       transform="matrix(1.3333333,0,0,1.3333333,264.876,7.0266667)"><tspan
         id="tspan37"
         style="font-variant:normal;font-weight:normal;font-size:5.97758px;font-family:'Latin Modern Sans';writing-mode:lr-tb;fill:#000000;fill-opacity:1;fill-rule:nonzero;stroke:none"
         x="0"
         dx="0 0 0.1793274 0 2.1160634"
         y="0">Open2</tspan></text>
    <path
       id="path38"
       d="m 168.01082,64.77528 h -12.75234 c -1.10048,0 -1.99255,-0.89207 -1.99255,-1.99255 v -7.35359 c 0,-1.10047 0.89207,-1.99256 1.99255,-1.99256 h 12.75234 c 1.10046,0 1.99255,0.89209 1.99255,1.99256 v 7.35359 c 0,1.10048 -0.89209,1.99255 -1.99255,1.99255 z"
       style="fill:#cceffc;fill-opacity:1;fill-rule:nonzero;stroke:#333333;stroke-width:0.74721;stroke-linecap:butt;stroke-linejoin:miter;stroke-miterlimit:10;stroke-dasharray:none;stroke-opacity:1"
       transform="matrix(1.3333333,0,0,-1.3333333,71.545333,132.328)" />
    <text
       id="text38"
       xml:space="preserve"
       transform="matrix(1.3333333,0,0,1.3333333,276.748,55.792)"><tspan
         id="tspan38"
         style="font-variant:normal;font-weight:normal;font-size:4.98132px;font-family:'Latin Modern Sans';writing-mode:lr-tb;fill:#000000;fill-opacity:1;fill-rule:nonzero;stroke:none"
         x="0"
         dx="0 0 0 0 1.7584059"
         y="0">Read4</tspan></text>
    <path
       id="path39"
       d="M 179.62018,64.77528 H 172.447 c -1.10046,0 -1.99255,-0.89207 -1.99255,-1.99255 v -7.35359 c 0,-1.10047 0.89209,-1.99256 1.99255,-1.99256 h 7.17318 c 1.10048,0 1.99255,0.89209 1.99255,1.99256 v 7.35359 c 0,1.10048 -0.89207,1.99255 -1.99255,1.99255 z"
       style="fill:#cceffc;fill-opacity:1;fill-rule:nonzero;stroke:#333333;stroke-width:0.74721;stroke-linecap:butt;stroke-linejoin:miter;stroke-miterlimit:10;stroke-dasharray:none;stroke-opacity:1"
       transform="matrix(1.3333333,0,0,-1.3333333,71.545333,132.328)" />
    <path
       id="path40"
       d="m 178.23294,65.1489 3.61784,9.93931"
       style="fill:none;stroke:#000000;stroke-width:0.3985;stroke-linecap:butt;stroke-linejoin:miter;stroke-miterlimit:10;stroke-dasharray:none;stroke-opacity:1"
       transform="matrix(1.3333333,0,0,-1.3333333,71.545333,132.328)" />
    <text
       id="text40"
       xml:space="preserve"
       transform="matrix(1.3333333,0,0,1.3333333,301.64,30.450667)"><tspan
         id="tspan40"
         style="font-variant:normal;font-weight:normal;font-size:5.97758px;font-family:'Latin Modern Sans';writing-mode:lr-tb;fill:#000000;fill-opacity:1;fill-rule:nonzero;stroke:none"
         x="0"
         dx="0 0 0 0 2.1160634"
         y="0">Read5</tspan></text>
    <path
       id="path41"
       d="m 196.60669,64.77528 h -12.75234 c -1.10046,0 -1.99255,-0.89207 -1.99255,-1.99255 v -7.35359 c 0,-1.10047 0.89209,-1.99256 1.99255,-1.99256 h 12.75234 c 1.10048,0 1.99255,0.89209 1.99255,1.99256 v 7.35359 c 0,1.10048 -0.89207,1.99255 -1.99255,1.99255 z"
       style="fill:#cceffc;fill-opacity:1;fill-rule:nonzero;stroke:#333333;stroke-width:0.74721;stroke-linecap:butt;stroke-linejoin:miter;stroke-miterlimit:10;stroke-dasharray:none;stroke-opacity:1"
       transform="matrix(1.3333333,0,0,-1.3333333,71.545333,132.328)" />
    <text
       id="text41"
       xml:space="preserve"
       transform="matrix(1.3333333,0,0,1.3333333,314.87467,55.756)"><tspan
         id="tspan41"
         style="font-variant:normal;font-weight:normal;font-size:4.98132px;font-family:'Latin Modern Sans';writing-mode:lr-tb;fill:#000000;fill-opacity:1;fill-rule:nonzero;stroke:none"
         x="0"
         dx="0 0 0 0 1.7633873"
         y="0">Read6</tspan></text>
    <path
       id="path42"
       d="M 179.62018,44.53435 H 172.447 c -1.10046,0 -1.99255,-0.89209 -1.99255,-1.99255 v -7.35361 c 0,-1.10047 0.89209,-1.99256 1.99255,-1.99256 h 7.17318 c 1.10048,0 1.99255,0.89209 1.99255,1.99256 v 7.35361 c 0,1.10046 -0.89207,1.99255 -1.99255,1.99255 z"
       style="fill:#fbcce8;fill-opacity:1;fill-rule:nonzero;stroke:#333333;stroke-width:0.74721;stroke-linecap:butt;stroke-linejoin:miter;stroke-miterlimit:10;stroke-dasharray:none;stroke-opacity:1"
       transform="matrix(1.3333333,0,0,-1.3333333,71.545333,132.328)" />
    <path
       id="path43"
       d="m 170.08086,39.91428 -6.60947,1.16531"
       style="fill:none;stroke:#000000;stroke-width:0.3985;stroke-linecap:butt;stroke-linejoin:miter;stroke-miterlimit:10;stroke-dasharray:none;stroke-opacity:1"
       transform="matrix(1.3333333,0,0,-1.3333333,71.545333,132.328)" />
    <text
       id="text43"
       xml:space="preserve"
       transform="matrix(1.3333333,0,0,1.3333333,262.42933,80.253333)"><tspan
         id="tspan43"
         style="font-variant:normal;font-weight:normal;font-size:5.97758px;font-family:'Latin Modern Sans';writing-mode:lr-tb;fill:#000000;fill-opacity:1;fill-rule:nonzero;stroke:none"
         x="0"
         dx="0 -0.52602702 0 0 0 2.1100857"
         y="0">Train4</tspan></text>
    <path
       id="path44"
       d="m 196.60669,44.53435 h -12.75234 c -1.10046,0 -1.99255,-0.89209 -1.99255,-1.99255 v -7.35361 c 0,-1.10047 0.89209,-1.99256 1.99255,-1.99256 h 12.75234 c 1.10048,0 1.99255,0.89209 1.99255,1.99256 v 7.35361 c 0,1.10046 -0.89207,1.99255 -1.99255,1.99255 z"
       style="fill:#fbcce8;fill-opacity:1;fill-rule:nonzero;stroke:#333333;stroke-width:0.74721;stroke-linecap:butt;stroke-linejoin:miter;stroke-miterlimit:10;stroke-dasharray:none;stroke-opacity:1"
       transform="matrix(1.3333333,0,0,-1.3333333,71.545333,132.328)" />
    <text
       id="text44"
       xml:space="preserve"
       transform="matrix(1.3333333,0,0,1.3333333,314.56533,82.72)"><tspan
         id="tspan44"
         style="font-variant:normal;font-weight:normal;font-size:4.98132px;font-family:'Latin Modern Sans';writing-mode:lr-tb;fill:#000000;fill-opacity:1;fill-rule:nonzero;stroke:none"
         x="0"
         dx="0 -0.43835616 0 0 0 1.7584059"
         y="0">Train5</tspan></text>
    <path
       id="path45"
       d="m 208.01404,44.53435 h -7.17317 c -1.10047,0 -1.99256,-0.89209 -1.99256,-1.99255 v -7.35361 c 0,-1.10047 0.89209,-1.99256 1.99256,-1.99256 h 7.17317 c 1.10048,0 1.99255,0.89209 1.99255,1.99256 v 7.35361 c 0,1.10046 -0.89207,1.99255 -1.99255,1.99255 z"
       style="fill:#fbcce8;fill-opacity:1;fill-rule:nonzero;stroke:#333333;stroke-width:0.74721;stroke-linecap:butt;stroke-linejoin:miter;stroke-miterlimit:10;stroke-dasharray:none;stroke-opacity:1"
       transform="matrix(1.3333333,0,0,-1.3333333,71.545333,132.328)" />
    <path
       id="path46"
       d="m 210.3802,43.85918 3.81871,3.205"
       style="fill:none;stroke:#000000;stroke-width:0.3985;stroke-linecap:butt;stroke-linejoin:miter;stroke-miterlimit:10;stroke-dasharray:none;stroke-opacity:1"
       transform="matrix(1.3333333,0,0,-1.3333333,71.545333,132.328)" />
    <text
       id="text46"
       xml:space="preserve"
       transform="matrix(1.3333333,0,0,1.3333333,344.4,67.814667)"><tspan
         id="tspan46"
         style="font-variant:normal;font-weight:normal;font-size:5.97758px;font-family:'Latin Modern Sans';writing-mode:lr-tb;fill:#000000;fill-opacity:1;fill-rule:nonzero;stroke:none"
         x="0"
         dx="0 -0.53200459 0 0 0 2.1160634"
         y="0">Train6</tspan></text>
    <path
       id="path47"
       d="m 224.79861,24.29341 h -80.69842 c -1.10048,0 -1.99255,-0.89209 -1.99255,-1.99255 v -7.35359 c 0,-1.10048 0.89207,-1.99256 1.99255,-1.99256 h 80.69842 c 1.10047,0 1.99256,0.89208 1.99256,1.99256 v 7.35359 c 0,1.10046 -0.89209,1.99255 -1.99256,1.99255 z"
       style="fill:#ffd9b3;fill-opacity:1;fill-rule:nonzero;stroke:#333333;stroke-width:0.74721;stroke-linecap:butt;stroke-linejoin:miter;stroke-miterlimit:10;stroke-dasharray:none;stroke-opacity:1"
       transform="matrix(1.3333333,0,0,-1.3333333,71.545333,132.328)" />
    <text
       id="text47"
       xml:space="preserve"
       transform="matrix(1.3333333,0,0,1.3333333,305.244,109.156)"><tspan
         id="tspan47"
         style="font-variant:normal;font-weight:normal;font-size:4.98132px;font-family:'Latin Modern Sans';writing-mode:lr-tb;fill:#000000;fill-opacity:1;fill-rule:nonzero;stroke:none"
         x="0"
         dx="0 0 0.1494396 0.1494396 0 1.7633873"
         y="0">Epoch2</tspan></text>
  </g>
</svg>
