<?xml version="1.0" encoding="UTF-8" standalone="no"?>
<!-- Created with Inkscape (http://www.inkscape.org/) -->

<svg
   version="1.1"
   id="svg1"
   width="718.11066"
   height="273.38"
   viewBox="0 0 718.11066 273.38"
   xmlns="http://www.w3.org/2000/svg"
   xmlns:svg="http://www.w3.org/2000/svg">
  <defs
     id="defs1" />
  <g
     id="g1">
    <path
       id="path1"
       d="m -107.51865,8.70328 h 538.58961 v 42.5202 h -538.58961 z"
       style="fill:#e6ffe6;fill-opacity:1;fill-rule:nonzero;stroke:none"
       transform="matrix(1.3333333,0,0,-1.3333333,143.356,255.64933)" />
    <text
       id="text1"
       xml:space="preserve"
       transform="matrix(1.3333333,0,0,1.3333333,11.986667,212.47467)"><tspan
         id="tspan1"
         style="font-variant:normal;font-weight:normal;font-size:8.96638px;font-family:'Latin Modern Sans';writing-mode:lr-tb;fill:#000000;fill-opacity:1;fill-rule:nonzero;stroke:none"
         x="0"
         dx="0 0 3.0754683 0 0 0.26002502"
         y="0">AIHypercomputing</tspan></text>
    <text
       id="text2"
       xml:space="preserve"
       transform="matrix(1.3333333,0,0,1.3333333,11.986667,227.08667)"><tspan
         id="tspan2"
         style="font-variant:normal;font-weight:normal;font-size:8.96638px;font-family:'Latin Modern Sans';writing-mode:lr-tb;fill:#000000;fill-opacity:1;fill-rule:nonzero;stroke:none"
         x="0"
         y="0">Era</tspan></text>
    <path
       id="path2"
       d="M -107.51865,51.622 H 431.07096 V 94.1422 H -107.51865 Z"
       style="fill:#ffffcd;fill-opacity:1;fill-rule:nonzero;stroke:none"
       transform="matrix(1.3333333,0,0,-1.3333333,143.356,255.64933)" />
    <text
       id="text3"
       xml:space="preserve"
       transform="matrix(1.3333333,0,0,1.3333333,11.986667,154.21733)"><tspan
         id="tspan3"
         style="font-variant:normal;font-weight:normal;font-size:8.96638px;font-family:'Latin Modern Sans';writing-mode:lr-tb;fill:#000000;fill-opacity:1;fill-rule:nonzero;stroke:none"
         x="0"
         dx="0 -0.26002502 -0.26002502 0 0 0 0 0 0 3.0754683"
         y="0">WarehouseScale</tspan></text>
    <text
       id="text4"
       xml:space="preserve"
       transform="matrix(1.3333333,0,0,1.3333333,11.986667,168.82933)"><tspan
         id="tspan4"
         style="font-variant:normal;font-weight:normal;font-size:8.96638px;font-family:'Latin Modern Sans';writing-mode:lr-tb;fill:#000000;fill-opacity:1;fill-rule:nonzero;stroke:none"
         x="0"
         y="0">Computing</tspan></text>
    <path
       id="path4"
       d="m -107.51865,94.5407 h 538.58961 v 42.5202 h -538.58961 z"
       style="fill:#ffe6e6;fill-opacity:1;fill-rule:nonzero;stroke:none"
       transform="matrix(1.3333333,0,0,-1.3333333,143.356,255.64933)" />
    <text
       id="text5"
       xml:space="preserve"
       transform="matrix(1.3333333,0,0,1.3333333,11.986667,96.926667)"><tspan
         id="tspan5"
         style="font-variant:normal;font-weight:normal;font-size:8.96638px;font-family:'Latin Modern Sans';writing-mode:lr-tb;fill:#000000;fill-opacity:1;fill-rule:nonzero;stroke:none"
         x="0"
         dx="0 0 0 0 0 0 -0.26002502 0 0 0 -0.26002502"
         y="0">High-Performance</tspan></text>
    <text
       id="text6"
       xml:space="preserve"
       transform="matrix(1.3333333,0,0,1.3333333,11.986667,111.53867)"><tspan
         id="tspan6"
         style="font-variant:normal;font-weight:normal;font-size:8.96638px;font-family:'Latin Modern Sans';writing-mode:lr-tb;fill:#000000;fill-opacity:1;fill-rule:nonzero;stroke:none"
         x="0"
         y="0">Computing</tspan></text>
    <path
       id="path6"
       d="m -107.51865,137.45941 h 538.58961 v 42.5202 h -538.58961 z"
       style="fill:#f0f0ff;fill-opacity:1;fill-rule:nonzero;stroke:none"
       transform="matrix(1.3333333,0,0,-1.3333333,143.356,255.64933)" />
    <text
       id="text7"
       xml:space="preserve"
       transform="matrix(1.3333333,0,0,1.3333333,11.986667,48.174667)"><tspan
         id="tspan7"
         style="font-variant:normal;font-weight:normal;font-size:8.96638px;font-family:'Latin Modern Sans';writing-mode:lr-tb;fill:#000000;fill-opacity:1;fill-rule:nonzero;stroke:none"
         x="0"
         y="0">Mainframe</tspan></text>
    <path
       id="path7"
       d="M 0,0 V 191.34096"
       style="fill:none;stroke:#000000;stroke-width:0.79701;stroke-linecap:butt;stroke-linejoin:miter;stroke-miterlimit:10;stroke-dasharray:none;stroke-opacity:1"
       transform="matrix(1.3333333,0,0,-1.3333333,143.356,255.64933)" />
    <text
       id="text8"
       xml:space="preserve"
       transform="matrix(1.3333333,0,0,1.3333333,131.06667,268.68933)"><tspan
         id="tspan8"
         style="font-variant:normal;font-weight:normal;font-size:8.96638px;font-family:'Latin Modern Sans';writing-mode:lr-tb;fill:#000000;fill-opacity:1;fill-rule:nonzero;stroke:none"
         x="0"
         y="0">1950</tspan></text>
    <path
       id="path8"
       d="M 56.69362,0 V 191.34096"
       style="fill:none;stroke:#000000;stroke-width:0.79701;stroke-linecap:butt;stroke-linejoin:miter;stroke-miterlimit:10;stroke-dasharray:none;stroke-opacity:1"
       transform="matrix(1.3333333,0,0,-1.3333333,143.356,255.64933)" />
    <text
       id="text9"
       xml:space="preserve"
       transform="matrix(1.3333333,0,0,1.3333333,206.65733,268.68933)"><tspan
         id="tspan9"
         style="font-variant:normal;font-weight:normal;font-size:8.96638px;font-family:'Latin Modern Sans';writing-mode:lr-tb;fill:#000000;fill-opacity:1;fill-rule:nonzero;stroke:none"
         x="0"
         y="0">1960</tspan></text>
    <path
       id="path9"
       d="M 113.38727,0 V 191.34096"
       style="fill:none;stroke:#000000;stroke-width:0.79701;stroke-linecap:butt;stroke-linejoin:miter;stroke-miterlimit:10;stroke-dasharray:none;stroke-opacity:1"
       transform="matrix(1.3333333,0,0,-1.3333333,143.356,255.64933)" />
    <text
       id="text10"
       xml:space="preserve"
       transform="matrix(1.3333333,0,0,1.3333333,282.248,268.68933)"><tspan
         id="tspan10"
         style="font-variant:normal;font-weight:normal;font-size:8.96638px;font-family:'Latin Modern Sans';writing-mode:lr-tb;fill:#000000;fill-opacity:1;fill-rule:nonzero;stroke:none"
         x="0"
         y="0">1970</tspan></text>
    <path
       id="path10"
       d="M 170.08092,0 V 191.34096"
       style="fill:none;stroke:#000000;stroke-width:0.79701;stroke-linecap:butt;stroke-linejoin:miter;stroke-miterlimit:10;stroke-dasharray:none;stroke-opacity:1"
       transform="matrix(1.3333333,0,0,-1.3333333,143.356,255.64933)" />
    <text
       id="text11"
       xml:space="preserve"
       transform="matrix(1.3333333,0,0,1.3333333,357.83867,268.68933)"><tspan
         id="tspan11"
         style="font-variant:normal;font-weight:normal;font-size:8.96638px;font-family:'Latin Modern Sans';writing-mode:lr-tb;fill:#000000;fill-opacity:1;fill-rule:nonzero;stroke:none"
         x="0"
         y="0">1980</tspan></text>
    <path
       id="path11"
       d="M 226.77457,0 V 191.34096"
       style="fill:none;stroke:#000000;stroke-width:0.79701;stroke-linecap:butt;stroke-linejoin:miter;stroke-miterlimit:10;stroke-dasharray:none;stroke-opacity:1"
       transform="matrix(1.3333333,0,0,-1.3333333,143.356,255.64933)" />
    <text
       id="text12"
       xml:space="preserve"
       transform="matrix(1.3333333,0,0,1.3333333,433.428,268.68933)"><tspan
         id="tspan12"
         style="font-variant:normal;font-weight:normal;font-size:8.96638px;font-family:'Latin Modern Sans';writing-mode:lr-tb;fill:#000000;fill-opacity:1;fill-rule:nonzero;stroke:none"
         x="0"
         y="0">1990</tspan></text>
    <path
       id="path12"
       d="M 283.46822,0 V 191.34096"
       style="fill:none;stroke:#000000;stroke-width:0.79701;stroke-linecap:butt;stroke-linejoin:miter;stroke-miterlimit:10;stroke-dasharray:none;stroke-opacity:1"
       transform="matrix(1.3333333,0,0,-1.3333333,143.356,255.64933)" />
    <text
       id="text13"
       xml:space="preserve"
       transform="matrix(1.3333333,0,0,1.3333333,509.01867,268.68933)"><tspan
         id="tspan13"
         style="font-variant:normal;font-weight:normal;font-size:8.96638px;font-family:'Latin Modern Sans';writing-mode:lr-tb;fill:#000000;fill-opacity:1;fill-rule:nonzero;stroke:none"
         x="0"
         y="0">2000</tspan></text>
    <path
       id="path13"
       d="M 340.16183,0 V 191.34096"
       style="fill:none;stroke:#000000;stroke-width:0.79701;stroke-linecap:butt;stroke-linejoin:miter;stroke-miterlimit:10;stroke-dasharray:none;stroke-opacity:1"
       transform="matrix(1.3333333,0,0,-1.3333333,143.356,255.64933)" />
    <text
       id="text14"
       xml:space="preserve"
       transform="matrix(1.3333333,0,0,1.3333333,584.60933,268.68933)"><tspan
         id="tspan14"
         style="font-variant:normal;font-weight:normal;font-size:8.96638px;font-family:'Latin Modern Sans';writing-mode:lr-tb;fill:#000000;fill-opacity:1;fill-rule:nonzero;stroke:none"
         x="0"
         y="0">2010</tspan></text>
    <path
       id="path14"
       d="M 396.85548,0 V 191.34096"
       style="fill:none;stroke:#000000;stroke-width:0.79701;stroke-linecap:butt;stroke-linejoin:miter;stroke-miterlimit:10;stroke-dasharray:none;stroke-opacity:1"
       transform="matrix(1.3333333,0,0,-1.3333333,143.356,255.64933)" />
    <text
       id="text15"
       xml:space="preserve"
       transform="matrix(1.3333333,0,0,1.3333333,660.2,268.68933)"><tspan
         id="tspan15"
         style="font-variant:normal;font-weight:normal;font-size:8.96638px;font-family:'Latin Modern Sans';writing-mode:lr-tb;fill:#000000;fill-opacity:1;fill-rule:nonzero;stroke:none"
         x="0"
         y="0">2020</tspan></text>
    <path
       id="path15"
       d="m 26.72787,153.00241 h -52.70851 c -1.10046,0 -1.99255,-0.89207 -1.99255,-1.99255 V 140.8216 c 0,-1.10048 0.89209,-1.99256 1.99255,-1.99256 h 52.70851 c 1.10047,0 1.99256,0.89208 1.99256,1.99256 v 10.18826 c 0,1.10048 -0.89209,1.99255 -1.99256,1.99255 z"
       style="fill:#e6e6e6;fill-opacity:1;fill-rule:nonzero;stroke:#333333;stroke-width:0.74721;stroke-linecap:butt;stroke-linejoin:miter;stroke-miterlimit:10;stroke-dasharray:none;stroke-opacity:1"
       transform="matrix(1.3333333,0,0,-1.3333333,143.356,255.64933)" />
    <text
       id="text16"
       xml:space="preserve"
       transform="matrix(1.3333333,0,0,1.3333333,127.70667,64.790667)"><tspan
         id="tspan16"
         style="font-variant:normal;font-weight:normal;font-size:7.97011px;font-family:'Latin Modern Sans';writing-mode:lr-tb;fill:#000000;fill-opacity:1;fill-rule:nonzero;stroke:none"
         x="0"
         dx="0 0 0 0 -0.2391033"
         y="0">ENIAC</tspan></text>
    <path
       id="path16"
       d="M 134.44577,178.60785 H 81.73726 c -1.10046,0 -1.99256,-0.89208 -1.99256,-1.99255 v -19.64454 c 0,-1.10047 0.8921,-1.99255 1.99256,-1.99255 h 52.70851 c 1.10048,0 1.99255,0.89208 1.99255,1.99255 v 19.64454 c 0,1.10047 -0.89207,1.99255 -1.99255,1.99255 z"
       style="fill:#e6e6e6;fill-opacity:1;fill-rule:nonzero;stroke:#333333;stroke-width:0.74721;stroke-linecap:butt;stroke-linejoin:miter;stroke-miterlimit:10;stroke-dasharray:none;stroke-opacity:1"
       transform="matrix(1.3333333,0,0,-1.3333333,143.356,255.64933)" />
    <text
       id="text17"
       xml:space="preserve"
       transform="matrix(1.3333333,0,0,1.3333333,277.22133,29.310667)"><tspan
         id="tspan17"
         style="font-variant:normal;font-weight:normal;font-size:7.97011px;font-family:'Latin Modern Sans';writing-mode:lr-tb;fill:#000000;fill-opacity:1;fill-rule:nonzero;stroke:none"
         x="0"
         y="0">IBM</tspan></text>
    <text
       id="text18"
       xml:space="preserve"
       transform="matrix(1.3333333,0,0,1.3333333,259.25733,41.930667)"><tspan
         id="tspan18"
         style="font-variant:normal;font-weight:normal;font-size:7.97011px;font-family:'Latin Modern Sans';writing-mode:lr-tb;fill:#000000;fill-opacity:1;fill-rule:nonzero;stroke:none"
         x="0"
         y="0">System/360</tspan></text>
    <path
       id="path18"
       d="M 191.13942,136.08928 H 81.73726 c -1.10046,0 -1.99256,-0.89209 -1.99256,-1.99255 v -10.18828 c 0,-1.10048 0.8921,-1.99255 1.99256,-1.99255 h 109.40216 c 1.10048,0 1.99255,0.89207 1.99255,1.99255 v 10.18828 c 0,1.10046 -0.89207,1.99255 -1.99255,1.99255 z"
       style="fill:#e6e6e6;fill-opacity:1;fill-rule:nonzero;stroke:#333333;stroke-width:0.74721;stroke-linecap:butt;stroke-linejoin:miter;stroke-miterlimit:10;stroke-dasharray:none;stroke-opacity:1"
       transform="matrix(1.3333333,0,0,-1.3333333,143.356,255.64933)" />
    <text
       id="text19"
       xml:space="preserve"
       transform="matrix(1.3333333,0,0,1.3333333,300.81467,87.282667)"><tspan
         id="tspan19"
         style="font-variant:normal;font-weight:normal;font-size:7.97011px;font-family:'Latin Modern Sans';writing-mode:lr-tb;fill:#000000;fill-opacity:1;fill-rule:nonzero;stroke:none"
         x="0"
         dx="0 0 0 2.821419"
         y="0">CDC6600</tspan></text>
    <path
       id="path19"
       d="m 230.82498,109.68385 h -81.05534 c -1.10047,0 -1.99256,-0.89209 -1.99256,-1.99255 V 97.50302 c 0,-1.10048 0.89209,-1.99255 1.99256,-1.99255 h 81.05534 c 1.10047,0 1.99256,0.89207 1.99256,1.99255 v 10.18828 c 0,1.10046 -0.89209,1.99255 -1.99256,1.99255 z"
       style="fill:#e6e6e6;fill-opacity:1;fill-rule:nonzero;stroke:#333333;stroke-width:0.74721;stroke-linecap:butt;stroke-linejoin:miter;stroke-miterlimit:10;stroke-dasharray:none;stroke-opacity:1"
       transform="matrix(1.3333333,0,0,-1.3333333,143.356,255.64933)" />
    <text
       id="text20"
       xml:space="preserve"
       transform="matrix(1.3333333,0,0,1.3333333,381.68933,121.51733)"><tspan
         id="tspan20"
         style="font-variant:normal;font-weight:normal;font-size:7.97011px;font-family:'Latin Modern Sans';writing-mode:lr-tb;fill:#000000;fill-opacity:1;fill-rule:nonzero;stroke:none"
         x="0"
         dx="0 0 0 -0.23113319"
         y="0">Cray-1</tspan></text>
    <path
       id="path20"
       d="m 338.54288,92.7707 h -52.70851 c -1.10047,0 -1.99256,-0.89208 -1.99256,-1.99255 V 72.95879 c 0,-1.10047 0.89209,-1.99256 1.99256,-1.99256 h 52.70851 c 1.10048,0 1.99255,0.89209 1.99255,1.99256 v 17.81936 c 0,1.10047 -0.89207,1.99255 -1.99255,1.99255 z"
       style="fill:#e6e6e6;fill-opacity:1;fill-rule:nonzero;stroke:#333333;stroke-width:0.74721;stroke-linecap:butt;stroke-linejoin:miter;stroke-miterlimit:10;stroke-dasharray:none;stroke-opacity:1"
       transform="matrix(1.3333333,0,0,-1.3333333,143.356,255.64933)" />
    <text
       id="text21"
       xml:space="preserve"
       transform="matrix(1.3333333,0,0,1.3333333,529.948,143.876)"><tspan
         id="tspan21"
         style="font-variant:normal;font-weight:normal;font-size:7.97011px;font-family:'Latin Modern Sans';writing-mode:lr-tb;fill:#000000;fill-opacity:1;fill-rule:nonzero;stroke:none"
         x="0"
         dx="0 0 0.2391033 0 0 0 2.821419"
         y="0">GoogleData</tspan></text>
    <text
       id="text22"
       xml:space="preserve"
       transform="matrix(1.3333333,0,0,1.3333333,541.93067,156.49467)"><tspan
         id="tspan22"
         style="font-variant:normal;font-weight:normal;font-size:7.97011px;font-family:'Latin Modern Sans';writing-mode:lr-tb;fill:#000000;fill-opacity:1;fill-rule:nonzero;stroke:none"
         x="0"
         y="0">Centers</tspan></text>
    <path
       id="path22"
       d="M 372.55907,67.16525 H 314.1812 c -1.10048,0 -1.99256,-0.89209 -1.99256,-1.99255 V 54.98442 c 0,-1.10046 0.89208,-1.99255 1.99256,-1.99255 h 58.37787 c 1.10048,0 1.99255,0.89209 1.99255,1.99255 V 65.1727 c 0,1.10046 -0.89207,1.99255 -1.99255,1.99255 z"
       style="fill:#e6e6e6;fill-opacity:1;fill-rule:nonzero;stroke:#333333;stroke-width:0.74721;stroke-linecap:butt;stroke-linejoin:miter;stroke-miterlimit:10;stroke-dasharray:none;stroke-opacity:1"
       transform="matrix(1.3333333,0,0,-1.3333333,143.356,255.64933)" />
    <text
       id="text23"
       xml:space="preserve"
       transform="matrix(1.3333333,0,0,1.3333333,589.57333,179.23333)"><tspan
         id="tspan23"
         style="font-variant:normal;font-weight:normal;font-size:7.97011px;font-family:'Latin Modern Sans';writing-mode:lr-tb;fill:#000000;fill-opacity:1;fill-rule:nonzero;stroke:none"
         x="0"
         dx="0 -0.94047296"
         y="0">AWS</tspan></text>
    <path
       id="path23"
       d="m 423.58336,49.85211 h -52.70851 c -1.10048,0 -1.99255,-0.89207 -1.99255,-1.99255 V 37.67128 c 0,-1.10046 0.89207,-1.99255 1.99255,-1.99255 h 52.70851 c 1.10046,0 1.99255,0.89209 1.99255,1.99255 v 10.18828 c 0,1.10048 -0.89209,1.99255 -1.99255,1.99255 z"
       style="fill:#e6e6e6;fill-opacity:1;fill-rule:nonzero;stroke:#333333;stroke-width:0.74721;stroke-linecap:butt;stroke-linejoin:miter;stroke-miterlimit:10;stroke-dasharray:none;stroke-opacity:1"
       transform="matrix(1.3333333,0,0,-1.3333333,143.356,255.64933)" />
    <text
       id="text24"
       xml:space="preserve"
       transform="matrix(1.3333333,0,0,1.3333333,641.14533,202.264)"><tspan
         id="tspan24"
         style="font-variant:normal;font-weight:normal;font-size:7.97011px;font-family:'Latin Modern Sans';writing-mode:lr-tb;fill:#000000;fill-opacity:1;fill-rule:nonzero;stroke:none"
         x="0"
         dx="0 0 0 0 0 0 2.821419"
         y="0">NVIDIAGPU</tspan></text>
    <path
       id="path24"
       d="m 397.6976,24.24666 h -1.68423 c -1.10047,0 -1.99256,-0.89208 -1.99256,-1.99256 V 12.06583 c 0,-1.10047 0.89209,-1.99256 1.99256,-1.99256 h 1.68423 c 1.10047,0 1.99256,0.89209 1.99256,1.99256 V 22.2541 c 0,1.10048 -0.89209,1.99256 -1.99256,1.99256 z"
       style="fill:#e6e6e6;fill-opacity:1;fill-rule:nonzero;stroke:#333333;stroke-width:0.74721;stroke-linecap:butt;stroke-linejoin:miter;stroke-miterlimit:10;stroke-dasharray:none;stroke-opacity:1"
       transform="matrix(1.3333333,0,0,-1.3333333,143.356,255.64933)" />
    <text
       id="text25"
       xml:space="preserve"
       transform="matrix(1.3333333,0,0,1.3333333,639.388,235.56133)"><tspan
         id="tspan25"
         style="font-variant:normal;font-weight:normal;font-size:8.96638px;font-family:'Latin Modern Sans';writing-mode:lr-tb;fill:#000000;fill-opacity:1;fill-rule:nonzero;stroke:none"
         x="0"
         dx="0 0 0.26002502 0 0 0 3.0754683"
         y="0">GoogleTPUs</tspan></text>
  </g>
</svg>
