<?xml version="1.0" encoding="UTF-8" standalone="no"?>
<!-- Created with Inkscape (http://www.inkscape.org/) -->

<svg
   version="1.1"
   id="svg1"
   width="320.79733"
   height="68.938667"
   viewBox="0 0 320.79733 68.938667"
   xmlns="http://www.w3.org/2000/svg"
   xmlns:svg="http://www.w3.org/2000/svg">
  <defs
     id="defs1" />
  <g
     id="g1">
    <path
       id="path1"
       d="M -63.3118,-35.80711 H 282.54266 V 38.64177 H -63.3118 Z"
       style="fill:#ffffed;fill-opacity:1;fill-rule:nonzero;stroke:#b5b548;stroke-width:0.74721;stroke-linecap:butt;stroke-linejoin:miter;stroke-miterlimit:10;stroke-dasharray:none;stroke-opacity:1"
       transform="matrix(0.91678667,0,0,-0.91678667,61.42654,35.769325)" />
    <path
       id="path2"
       d="M -37.42606,-14.17339 H 37.42607 V 14.1734 h -74.85213 z"
       style="fill:#dbfda6;fill-opacity:1;fill-rule:nonzero;stroke:#008f45;stroke-width:0.74721;stroke-linecap:butt;stroke-linejoin:miter;stroke-miterlimit:10;stroke-dasharray:none;stroke-opacity:1"
       transform="matrix(0.91678667,0,0,-0.91678667,61.42654,35.769325)" />
    <path
       id="path3"
       d="m 0.800693,-4.6594264e-4 h 2.5223971 c 1.6361494,0 2.6587428,-1.24415535736 2.6587428,-3.27229885736 0,-2.0281436 -1.0055502,-3.2552557 -2.6587428,-3.2552557 H 0.800693 Z M 1.635811,-0.73332455 V -5.7951619 h 1.5338901 c 1.2952849,0 1.9770139,0.8692044 1.9770139,2.5394403 0,1.6361494 -0.681729,2.52239705 -1.9770139,2.52239705 z m 9.62516,0.2897348 c -0.06817,0.0170432 -0.102259,0.0170432 -0.153389,0.0170432 -0.255648,0 -0.409037,-0.13634579 -0.409037,-0.35790769 V -3.5454564 c 0,-0.835118 -0.596513,-1.295285 -1.755452,-1.295285 -0.6817289,0 -1.2441553,0.2045187 -1.5679766,0.5624264 -0.2045186,0.2386051 -0.306778,0.5112967 -0.3238212,0.9714637 H 7.801197 c 0.068173,-0.5794696 0.4090374,-0.8351179 1.1078096,-0.8351179 0.6817289,0 1.0566798,0.2556483 1.0566798,0.6987721 v 0.2045187 c 0,0.306778 -0.1874755,0.4431238 -0.7839883,0.5112967 -1.0566798,0.1363458 -1.2271121,0.1704322 -1.5168469,0.2897348 -0.5453831,0.2215619 -0.8180747,0.6476425 -0.8180747,1.2611985 0,0.85216121 0.5965128,1.38050114 1.5509333,1.38050114 0.5794696,0 1.0566799,-0.20451868264 1.5850198,-0.68172894 0.051129,0.46016703 0.2897344,0.68172894 0.7669454,0.68172894 0.153389,0 0.272691,-0.0170432 0.511296,-0.0852161 z M 9.9656864,-1.4832264 c 0,0.2556484 -0.085216,0.4090374 -0.306778,0.61355606 -0.306778,0.27269158 -0.6646857,0.42608059 -1.1078095,0.42608059 -0.5794696,0 -0.9203341,-0.2897348 -0.9203341,-0.74990185 0,-0.4942535 0.3238212,-0.7499018 1.1248527,-0.8692044 0.7839883,-0.1022593 0.9544206,-0.1363458 1.2100689,-0.2556483 z M 13.74076,-4.7043956 h -0.783988 v -1.2782418 h -0.732858 v 1.2782418 h -0.647643 v 0.613556 h 0.647643 v 3.54499051 c 0,0.47721025 0.323821,0.74990183 0.90329,0.74990183 0.170433,0 0.357908,-0.0170432 0.613556,-0.0681729 V -0.4776762 c -0.102259,0.0170432 -0.221562,0.0340864 -0.357907,0.0340864 -0.323822,0 -0.426081,-0.10225934 -0.426081,-0.42608059 V -4.0908396 h 0.783988 z m 5.002186,4.26080585 c -0.06817,0.0170432 -0.102259,0.0170432 -0.153389,0.0170432 -0.255648,0 -0.409037,-0.13634579 -0.409037,-0.35790769 V -3.5454564 c 0,-0.835118 -0.596513,-1.295285 -1.755452,-1.295285 -0.681729,0 -1.244155,0.2045187 -1.567976,0.5624264 -0.204519,0.2386051 -0.306778,0.5112967 -0.323822,0.9714637 h 0.749902 c 0.06817,-0.5794696 0.409037,-0.8351179 1.10781,-0.8351179 0.681729,0 1.056679,0.2556483 1.056679,0.6987721 v 0.2045187 c 0,0.306778 -0.187475,0.4431238 -0.783988,0.5112967 -1.05668,0.1363458 -1.227112,0.1704322 -1.516847,0.2897348 -0.545383,0.2215619 -0.818074,0.6476425 -0.818074,1.2611985 0,0.85216121 0.596512,1.38050114 1.550933,1.38050114 0.57947,0 1.05668,-0.20451868264 1.58502,-0.68172894 0.05113,0.46016703 0.289735,0.68172894 0.766945,0.68172894 0.153389,0 0.272691,-0.0170432 0.511296,-0.0852161 z M 17.447661,-1.4832264 c 0,0.2556484 -0.08522,0.4090374 -0.306778,0.61355606 -0.306778,0.27269158 -0.664685,0.42608059 -1.107809,0.42608059 -0.57947,0 -0.920334,-0.2897348 -0.920334,-0.74990185 0,-0.4942535 0.323821,-0.7499018 1.124853,-0.8692044 0.783988,-0.1022593 0.95442,-0.1363458 1.210068,-0.2556483 z m 0,0"
       style="fill:#000000;fill-opacity:1;fill-rule:nonzero;stroke:none"
       aria-label="Data"
       transform="matrix(0.91678667,0,0,0.91678667,52.746404,32.809021)" />
    <path
       id="path4"
       d="m 4.2427252,-1.960644 0.681729,1.9599707245 h 0.920334 L 3.5609963,-6.5282279 H 2.4872732 L 0.15235162,-6.732755e-4 H 1.0385992 L 1.7373714,-1.960644 Z M 4.0211633,-2.6594161 H 1.9418901 L 3.0156132,-5.6419802 Z M 8.1797099,-6.732755e-4 9.9862915,-4.7046029 H 9.1341304 L 7.8047589,-0.88692089 6.5606036,-4.7046029 H 5.7084425 L 7.3616351,-6.732755e-4 Z M 14.668917,-0.44379708 c -0.06817,0.0170432 -0.102259,0.0170432 -0.153389,0.0170432 -0.255648,0 -0.409037,-0.13634579 -0.409037,-0.35790769 V -3.5456637 c 0,-0.835118 -0.596513,-1.295285 -1.755452,-1.295285 -0.681729,0 -1.244156,0.2045187 -1.567977,0.5624263 -0.204518,0.2386052 -0.306778,0.5112967 -0.323821,0.9714638 h 0.749902 c 0.06817,-0.5794696 0.409037,-0.835118 1.107809,-0.835118 0.681729,0 1.05668,0.2556484 1.05668,0.6987722 v 0.2045187 c 0,0.306778 -0.187475,0.4431238 -0.783988,0.5112967 -1.05668,0.1363458 -1.227112,0.1704322 -1.516847,0.2897348 -0.545383,0.2215619 -0.818075,0.6476425 -0.818075,1.2611985 0,0.85216118 0.596513,1.38050111 1.550934,1.38050111 0.579469,0 1.056679,-0.2045186855 1.585019,-0.68172894 0.05113,0.46016703 0.289735,0.68172894 0.766945,0.68172894 0.153389,0 0.272692,-0.0170432 0.511297,-0.0852161 z M 13.373632,-1.4834337 c 0,0.2556483 -0.08522,0.4090373 -0.306778,0.61355603 -0.306778,0.27269157 -0.664686,0.42608059 -1.107809,0.42608059 -0.57947,0 -0.920334,-0.2897348 -0.920334,-0.74990182 0,-0.4942535 0.323821,-0.7499018 1.124852,-0.8692044 0.783989,-0.1022594 0.954421,-0.1363458 1.210069,-0.2556484 z m 2.837697,-3.2211692 h -0.749902 v 4.7039296245 h 0.749902 z m 0,-1.823625 h -0.749902 v 0.9373773 h 0.749902 z m 2.006839,0 h -0.749901 v 6.5275546245 h 0.749901 z m 5.419746,6.08443082 c -0.06817,0.0170432 -0.10226,0.0170432 -0.15339,0.0170432 -0.255648,0 -0.409037,-0.13634579 -0.409037,-0.35790769 V -3.5456637 c 0,-0.835118 -0.596513,-1.295285 -1.755452,-1.295285 -0.681729,0 -1.244155,0.2045187 -1.567976,0.5624263 -0.204519,0.2386052 -0.306778,0.5112967 -0.323822,0.9714638 h 0.749902 c 0.06817,-0.5794696 0.409038,-0.835118 1.10781,-0.835118 0.681729,0 1.05668,0.2556484 1.05668,0.6987722 v 0.2045187 c 0,0.306778 -0.187476,0.4431238 -0.783989,0.5112967 -1.05668,0.1363458 -1.227112,0.1704322 -1.516847,0.2897348 -0.545383,0.2215619 -0.818074,0.6476425 -0.818074,1.2611985 0,0.85216118 0.596512,1.38050111 1.550933,1.38050111 0.57947,0 1.05668,-0.2045186855 1.58502,-0.68172894 0.05113,0.46016703 0.289735,0.68172894 0.766945,0.68172894 0.153389,0 0.272691,-0.0170432 0.511297,-0.0852161 z M 22.342629,-1.4834337 c 0,0.2556483 -0.08522,0.4090373 -0.306778,0.61355603 -0.306779,0.27269157 -0.664686,0.42608059 -1.10781,0.42608059 -0.57947,0 -0.920334,-0.2897348 -0.920334,-0.74990182 0,-0.4942535 0.323821,-0.7499018 1.124853,-0.8692044 0.783988,-0.1022594 0.95442,-0.1363458 1.210069,-0.2556484 z m 1.968492,-5.0447942 V -6.732755e-4 H 24.99285 V -0.5971861 c 0.357907,0.54538315 0.835118,0.80103151 1.48276,0.80103151 1.244156,0 2.045187,-1.00555019 2.045187,-2.57352671 0,-1.5168469 -0.766945,-2.4712674 -2.0111,-2.4712674 -0.647643,0 -1.090767,0.2556483 -1.448674,0.7839882 v -2.4712674 z m 2.06223,2.4030946 c 0.835118,0 1.363458,0.7158153 1.363458,1.8406681 0,1.0566798 -0.545383,1.78953844 -1.363458,1.78953844 -0.783988,0 -1.312328,-0.71581534 -1.312328,-1.82362494 0,-1.0907663 0.52834,-1.8065816 1.312328,-1.8065816 z m 3.792117,-0.5794696 h -0.749902 v 4.7039296245 h 0.749902 z m 0,-1.823625 h -0.749902 v 0.9373773 h 0.749902 z m 2.00684,0 h -0.749902 v 6.5275546245 h 0.749902 z m 1.972753,1.823625 h -0.749902 v 4.7039296245 h 0.749902 z m 0,-1.823625 h -0.749902 v 0.9373773 h 0.749902 z m 2.927173,1.823625 h -0.783988 v -1.2782418 h -0.732859 v 1.2782418 h -0.647642 v 0.613556 h 0.647642 v 3.54499047 c 0,0.47721026 0.323822,0.74990184 0.903291,0.74990184 0.170433,0 0.357908,-0.0170432 0.613556,-0.0681729 v -0.61355604 c -0.102259,0.0170432 -0.221562,0.0340864 -0.357907,0.0340864 -0.323822,0 -0.426081,-0.10225935 -0.426081,-0.42608059 V -4.0910469 h 0.783988 z m 3.685597,0 -1.295285,3.664293 -1.210068,-3.664293 h -0.783989 l 1.58502,4.72097285 -0.289735,0.74990183 C 38.644472,1.090093 38.47404,1.2264388 38.167261,1.2264388 c -0.119302,0 -0.238605,-0.034086 -0.409037,-0.068173 v 0.681729 c 0.153389,0.085216 0.306778,0.1193025 0.511297,0.1193025 0.238605,0 0.494253,-0.085216 0.698772,-0.2215619 0.238605,-0.1704322 0.357908,-0.3749509 0.511297,-0.74990182 L 41.558863,-4.704603 Z m 0,0"
       style="fill:#000000;fill-opacity:1;fill-rule:nonzero;stroke:none"
       aria-label="Availability"
       transform="matrix(0.91678667,0,0,0.91678667,42.282201,42.856086)" />
    <path
       id="path5"
       d="m 72.18935,-14.17339 h 74.85213 V 14.1734 H 72.18935 Z"
       style="fill:#d1f3ff;fill-opacity:1;fill-rule:nonzero;stroke:#006395;stroke-width:0.74721;stroke-linecap:butt;stroke-linejoin:miter;stroke-miterlimit:10;stroke-dasharray:none;stroke-opacity:1"
       transform="matrix(0.91678667,0,0,-0.91678667,61.42654,35.769325)" />
    <path
       id="path6"
       d="m 4.2455413,-1.9619282 0.6817289,1.95997068 H 5.8476043 L 3.5638124,-6.5295121 H 2.4900893 L 0.15516767,-0.00195752 H 1.0414153 L 1.7401874,-1.9619282 Z M 4.0239794,-2.6607004 H 1.9447061 L 3.0184292,-5.6432645 Z M 7.3431472,-6.5295121 H 6.5932453 v 6.52755458 h 0.7499019 z m 4.3247178,1.8236249 v 0.681729 c -0.374951,-0.5453832 -0.835118,-0.8180748 -1.431631,-0.8180748 -1.1930253,0 -2.0111,1.0566799 -2.0111,2.5735268 0,0.766945 0.2045186,1.39754429 0.5965128,1.8406681 0.3408645,0.39199413 0.8521612,0.63059926 1.3464142,0.63059926 0.596513,0 1.005551,-0.25564835 1.431631,-0.83511795 v 0.23860513 c 0,0.63059927 -0.08522,1.02259341 -0.272691,1.27824176 -0.204519,0.2726916 -0.57947,0.4431238 -1.039637,0.4431238 -0.3408645,0 -0.6476425,-0.085216 -0.8521612,-0.2556483 C 9.2647706,0.93541977 9.1965977,0.81611721 9.145468,0.54342563 H 8.378523 c 0.085216,0.88624767 0.766945,1.41458757 1.874755,1.41458757 0.698772,0 1.295285,-0.2215619 1.602063,-0.6135561 0.357907,-0.42608055 0.494253,-1.02259337 0.494253,-2.11335967 V -4.7058872 Z m -1.363458,0.5624264 c 0.818075,0 1.295285,0.6817289 1.295285,1.8577113 0,1.1248528 -0.494253,1.80658173 -1.278242,1.80658173 -0.8180743,0 -1.3123278,-0.69877213 -1.3123278,-1.84066813 0,-1.1248528 0.4942535,-1.8236249 1.2952848,-1.8236249 z m 5.087402,-0.6987722 c -1.312328,0 -2.113359,0.9544205 -2.113359,2.5223971 0,1.58501977 0.783988,2.52239706 2.130403,2.52239706 1.312328,0 2.113359,-0.93737729 2.113359,-2.48831066 0,-1.6191062 -0.783988,-2.5564835 -2.130403,-2.5564835 z m 0.01704,0.6987722 c 0.835118,0 1.329371,0.6817289 1.329371,1.8577113 0,1.1078096 -0.511297,1.80658173 -1.329371,1.80658173 -0.835118,0 -1.346415,-0.69877213 -1.346415,-1.84066813 0,-1.1248528 0.511297,-1.8236249 1.346415,-1.8236249 z m 3.144474,-0.5624264 v 4.70392968 h 0.749902 V -2.4391385 c 0,-0.6817289 0.170432,-1.1078095 0.545383,-1.3805011 0.221562,-0.1704322 0.443124,-0.2215619 0.971464,-0.2215619 v -0.766945 c -0.136346,-0.017043 -0.187475,-0.034086 -0.289735,-0.034086 -0.47721,0 -0.852161,0.2897348 -1.278241,0.988507 v -0.8521612 z m 3.847508,0 h -0.749902 v 4.70392968 h 0.749902 z m 0,-1.8236249 h -0.749902 v 0.9373773 h 0.749902 z m 2.927174,1.8236249 H 24.54402 v -1.2782417 h -0.732858 v 1.2782417 h -0.647643 v 0.6135561 h 0.647643 v 3.54499043 c 0,0.47721026 0.323821,0.74990183 0.903291,0.74990183 0.170432,0 0.357907,-0.0170432 0.613556,-0.0681729 v -0.61355604 c -0.10226,0.0170432 -0.221562,0.0340864 -0.357908,0.0340864 -0.323821,0 -0.426081,-0.10225934 -0.426081,-0.42608058 V -4.0923311 h 0.783989 z m 0.839378,-1.8236249 v 6.52755458 h 0.732859 V -2.5925275 c 0,-0.9544205 0.511297,-1.5850198 1.278242,-1.5850198 0.238605,0 0.494253,0.085216 0.664686,0.2215619 0.221561,0.1363458 0.306778,0.374951 0.306778,0.6987722 v 3.25525568 h 0.749901 V -3.546948 c 0,-0.8010315 -0.579469,-1.295285 -1.48276,-1.295285 -0.664686,0 -1.073723,0.2215619 -1.516847,0.7839883 v -2.4712674 z m 4.985143,1.8236249 v 4.70392968 h 0.749902 V -2.9504352 c 0,-0.6817289 0.494254,-1.2271121 1.10781,-1.2271121 0.545383,0 0.869204,0.3408645 0.869204,0.9373773 v 3.23821248 h 0.749902 V -2.9504352 c 0,-0.6817289 0.494253,-1.2271121 1.107809,-1.2271121 0.545384,0 0.869205,0.3408645 0.869205,0.9373773 v 3.23821248 H 37.35626 V -3.5299048 c 0,-0.8351179 -0.494254,-1.3123282 -1.363458,-1.3123282 -0.6306,0 -1.00555,0.2045187 -1.448674,0.7328586 -0.272692,-0.5112967 -0.647643,-0.7328586 -1.261199,-0.7328586 -0.630599,0 -1.039636,0.2386052 -1.448674,0.8010315 v -0.6646857 z m 8.185008,0 h -0.749901 v 4.70392968 h 0.749901 z m 0,-1.8236249 h -0.749901 v 0.9373773 h 0.749901 z m 4.870101,3.4086447 c -0.03409,-0.460167 -0.136345,-0.7499018 -0.323821,-1.0055502 -0.323821,-0.4431238 -0.886247,-0.7158154 -1.53389,-0.7158154 -1.261198,0 -2.096316,1.0055502 -2.096316,2.5735268 0,1.51684685 0.818074,2.47126736 2.079273,2.47126736 1.124853,0 1.840668,-0.66468571 1.925884,-1.82362486 h -0.749902 c -0.136346,0.76694501 -0.511296,1.14189593 -1.158939,1.14189593 -0.818075,0 -1.312328,-0.68172893 -1.312328,-1.78953843 0,-1.1759825 0.47721,-1.8747546 1.295285,-1.8747546 0.630599,0 1.022593,0.3749509 1.124853,1.0225934 z m 0,0"
       style="fill:#000000;fill-opacity:1;fill-rule:nonzero;stroke:none"
       aria-label="Algorithmic"
       transform="matrix(0.91678667,0,0,0.91678667,141.53353,33.626795)" />
    <path
       id="path7"
       d="M 1.7398907,-6.5254586 H 0.9047728 v 6.52755455 h 0.8351179 z m 1.3847619,1.8236249 V 0.00209595 H 3.8745545 V -2.588474 c 0,-0.9544205 0.4942535,-1.5850198 1.2782417,-1.5850198 0.5794696,0 0.9714638,0.3579077 0.9714638,0.9203341 V 0.00209595 H 6.8571186 V -3.5428945 c 0,-0.7839883 -0.5794696,-1.295285 -1.4827605,-1.295285 -0.6987721,0 -1.1418959,0.2726916 -1.5679765,0.9373773 v -0.8010315 z m 4.9851429,0 V 0.00209595 H 8.8596973 V -2.588474 c 0,-0.9544205 0.4942535,-1.5850198 1.2782417,-1.5850198 0.57947,0 0.971464,0.3579077 0.971464,0.9203341 v 3.25525565 h 0.732858 V -3.5428945 c 0,-0.7839883 -0.579469,-1.295285 -1.48276,-1.295285 -0.6987722,0 -1.141896,0.2726916 -1.5679766,0.9373773 V -4.7018337 Z M 14.90152,-4.8381795 c -1.312328,0 -2.11336,0.9544205 -2.11336,2.5223971 0,1.58501975 0.783989,2.52239704 2.130403,2.52239704 1.312328,0 2.11336,-0.93737729 2.11336,-2.48831064 0,-1.6191062 -0.783988,-2.5564835 -2.130403,-2.5564835 z m 0.01704,0.6987722 c 0.835118,0 1.329372,0.6817289 1.329372,1.8577113 0,1.1078095 -0.511297,1.8065817 -1.329372,1.8065817 -0.835118,0 -1.346414,-0.6987722 -1.346414,-1.8406681 0,-1.1248528 0.511296,-1.8236249 1.346414,-1.8236249 z m 4.95106,4.14150325 1.806581,-4.70392965 H 20.82404 l -1.329371,3.81768204 -1.244156,-3.81768204 h -0.852161 l 1.653193,4.70392965 z m 6.493468,-0.4431238 c -0.06817,0.0170432 -0.10226,0.0170432 -0.153389,0.0170432 -0.255649,0 -0.409038,-0.13634579 -0.409038,-0.35790769 V -3.5428945 c 0,-0.835118 -0.596512,-1.295285 -1.755452,-1.295285 -0.681729,0 -1.244155,0.2045187 -1.567976,0.5624264 -0.204519,0.2386051 -0.306778,0.5112967 -0.323821,0.9714637 h 0.749901 c 0.06817,-0.5794696 0.409038,-0.8351179 1.10781,-0.8351179 0.681729,0 1.05668,0.2556483 1.05668,0.6987721 v 0.2045187 c 0,0.306778 -0.187476,0.4431238 -0.783988,0.5112967 -1.05668,0.1363458 -1.227113,0.1704322 -1.516847,0.2897348 -0.545383,0.2215619 -0.818075,0.6476425 -0.818075,1.2611985 0,0.85216121 0.596513,1.38050114 1.550933,1.38050114 0.57947,0 1.05668,-0.20451869 1.58502,-0.68172894 0.05113,0.46016703 0.289735,0.68172894 0.766945,0.68172894 0.153389,0 0.272692,-0.0170432 0.511297,-0.0852161 z M 25.067803,-1.4806645 c 0,0.2556484 -0.08522,0.4090374 -0.306778,0.61355606 -0.306778,0.27269157 -0.664686,0.42608059 -1.10781,0.42608059 -0.579469,0 -0.920334,-0.2897348 -0.920334,-0.74990185 0,-0.4942535 0.323821,-0.7499018 1.124853,-0.8692044 0.783988,-0.1022593 0.95442,-0.1363458 1.210069,-0.2556483 z m 3.775074,-3.2211692 H 28.058889 V -5.9800755 H 27.32603 v 1.2782418 h -0.647643 v 0.613556 h 0.647643 v 3.5449905 c 0,0.47721026 0.323821,0.74990184 0.903291,0.74990184 0.170432,0 0.357907,-0.0170432 0.613556,-0.0681729 V -0.4751143 c -0.10226,0.0170432 -0.221562,0.0340864 -0.357908,0.0340864 -0.323821,0 -0.42608,-0.10225935 -0.42608,-0.42608059 V -4.0882777 h 0.783988 z m 1.555194,0 h -0.749902 v 4.70392965 h 0.749902 z m 0,-1.8236249 h -0.749902 v 0.9373773 h 0.749902 z m 3.080563,1.6872791 c -1.312329,0 -2.11336,0.9544205 -2.11336,2.5223971 0,1.58501975 0.783988,2.52239704 2.130403,2.52239704 1.312328,0 2.11336,-0.93737729 2.11336,-2.48831064 0,-1.6191062 -0.783989,-2.5564835 -2.130403,-2.5564835 z m 0.01704,0.6987722 c 0.835118,0 1.329371,0.6817289 1.329371,1.8577113 0,1.1078095 -0.511296,1.8065817 -1.329371,1.8065817 -0.835118,0 -1.346415,-0.6987722 -1.346415,-1.8406681 0,-1.1248528 0.511297,-1.8236249 1.346415,-1.8236249 z m 3.161518,-0.5624264 v 4.70392965 h 0.749902 V -2.588474 c 0,-0.9544205 0.494253,-1.5850198 1.278241,-1.5850198 0.57947,0 0.971464,0.3579077 0.971464,0.9203341 v 3.25525565 h 0.732859 V -3.5428945 c 0,-0.7839883 -0.57947,-1.295285 -1.482761,-1.295285 -0.698772,0 -1.141896,0.2726916 -1.567976,0.9373773 v -0.8010315 z m 8.274485,1.3123282 c 0,-0.9203341 -0.613556,-1.448674 -1.704323,-1.448674 -1.090766,0 -1.789538,0.5794696 -1.789538,1.448674 0,0.7328586 0.374951,1.0737231 1.48276,1.3464146 l 0.698773,0.1704323 c 0.528339,0.1193025 0.732858,0.306778 0.732858,0.6476425 0,0.44312378 -0.443124,0.7499018 -1.090766,0.7499018 -0.409038,0 -0.749902,-0.11930257 -0.937377,-0.32382125 -0.119303,-0.13634578 -0.170433,-0.27269155 -0.221562,-0.59651285 h -0.783989 c 0.03409,1.09076633 0.647643,1.60206304 1.874755,1.60206304 1.175982,0 1.925884,-0.5794696 1.925884,-1.48276044 0,-0.6987722 -0.391994,-1.0907663 -1.312328,-1.3123282 l -0.715815,-0.1704322 c -0.613556,-0.1363458 -0.886248,-0.3408645 -0.886248,-0.6646858 0,-0.4431238 0.391994,-0.7158153 1.00555,-0.7158153 0.596513,0 0.920334,0.2556483 0.937377,0.7499018 z m 0,0"
       style="fill:#000000;fill-opacity:1;fill-rule:nonzero;stroke:none"
       aria-label="Innovations"
       transform="matrix(0.91678667,0,0,0.91678667,141.06505,43.67386)" />
    <path
       id="path8"
       d="m 181.80478,-14.17339 h 74.85213 V 14.1734 h -74.85213 z"
       style="fill:#fde2f0;fill-opacity:1;fill-rule:nonzero;stroke:#d9534f;stroke-width:0.74721;stroke-linecap:butt;stroke-linejoin:miter;stroke-miterlimit:10;stroke-dasharray:none;stroke-opacity:1"
       transform="matrix(0.91678667,0,0,-0.91678667,61.42654,35.769325)" />
    <path
       id="path9"
       d="M 5.9304775,-4.5148916 C 5.6748291,-5.9465223 4.8567544,-6.6452945 3.4080804,-6.6452945 c -0.8692044,0 -1.5850198,0.2897348 -2.06223,0.8180747 -0.59651284,0.6476425 -0.92033408,1.5850198 -0.92033408,2.6416996 0,1.0737231 0.34086447,1.9940572 0.95442048,2.62465645 0.4942535,0.52833993 1.141896,0.76694506 1.9940572,0.76694506 1.602063,0 2.5053538,-0.85216117 2.6928293,-2.59057001 H 5.2146621 c -0.085216,0.4431239 -0.1704322,0.7499019 -0.306778,1.0225935 -0.2726916,0.52833988 -0.8180747,0.8351179 -1.5168469,0.8351179 -1.295285,0 -2.1304029,-1.0396366 -2.1304029,-2.6757861 0,-1.6702359 0.7839882,-2.7098725 2.06223,-2.7098725 0.5283399,0 1.0225934,0.1704322 1.2782418,0.4260806 0.2556483,0.2215619 0.3749509,0.4942535 0.4772102,0.9714637 z m 2.9783033,-0.3238212 c -1.3123282,0 -2.1133597,0.9544205 -2.1133597,2.522397 0,1.58501982 0.7839883,2.52239711 2.1304029,2.52239711 1.312328,0 2.11336,-0.93737729 2.11336,-2.48831061 0,-1.6191062 -0.783989,-2.5564835 -2.1304032,-2.5564835 z m 0.017043,0.6987721 c 0.835118,0 1.3293712,0.681729 1.3293712,1.8577114 0,1.1078095 -0.5112965,1.80658167 -1.3293712,1.80658167 -0.8351179,0 -1.3464146,-0.69877217 -1.3464146,-1.84066817 0,-1.1248527 0.5112967,-1.8236249 1.3464146,-1.8236249 z M 12.091603,-4.702367 v 4.70392963 h 0.749902 V -2.946915 c 0,-0.681729 0.494253,-1.2271121 1.107809,-1.2271121 0.545383,0 0.869205,0.3408645 0.869205,0.9373773 V 0.00156263 H 15.56842 V -2.946915 c 0,-0.681729 0.494254,-1.2271121 1.10781,-1.2271121 0.545383,0 0.869204,0.3408645 0.869204,0.9373773 v 3.23821243 h 0.749902 V -3.5263846 c 0,-0.835118 -0.494253,-1.3123282 -1.363458,-1.3123282 -0.630599,0 -1.00555,0.2045187 -1.448674,0.7328586 -0.272691,-0.5112967 -0.647642,-0.7328586 -1.261198,-0.7328586 -0.6306,0 -1.039637,0.2386051 -1.448674,0.8010315 V -4.702367 Z m 7.311543,6.6639003 h 0.766945 v -2.45422415 c 0.391994,0.47721025 0.835118,0.69877216 1.43163,0.69877216 1.210069,0 2.011101,-0.97146374 2.011101,-2.47126741 0,-1.5850198 -0.766945,-2.5735267 -2.011101,-2.5735267 -0.647642,0 -1.158939,0.2897348 -1.499803,0.8521611 V -4.702367 h -0.698772 z m 2.06223,-6.0844307 c 0.835118,0 1.363458,0.7158153 1.363458,1.8406681 0,1.0566798 -0.545384,1.78953845 -1.363458,1.78953845 -0.783989,0 -1.295285,-0.71581535 -1.295285,-1.82362495 0,-1.0907663 0.511296,-1.8065816 1.295285,-1.8065816 z m 6.778942,4.12446003 V -4.702367 h -0.749902 v 2.675786 c 0,0.9544206 -0.511297,1.58501982 -1.278242,1.58501982 -0.596513,0 -0.971464,-0.35790769 -0.971464,-0.92033402 V -4.702367 h -0.749901 v 3.6302066 c 0,0.78398823 0.579469,1.27824171 1.499803,1.27824171 0.698772,0 1.124853,-0.23860513 1.567977,-0.85216117 V 0.00156263 Z M 31.184274,-4.702367 h -0.783988 v -1.2782418 h -0.732859 v 1.2782418 h -0.647643 v 0.613556 h 0.647643 v 3.54499048 c 0,0.47721025 0.323821,0.74990183 0.903291,0.74990183 0.170432,0 0.357907,-0.0170432 0.613556,-0.0681729 v -0.61355605 c -0.10226,0.0170432 -0.221562,0.0340864 -0.357908,0.0340864 -0.323821,0 -0.42608,-0.10225934 -0.42608,-0.42608059 V -4.088811 h 0.783988 z m 1.555194,0 h -0.749902 v 4.70392963 h 0.749902 z m 0,-1.8236249 h -0.749902 v 0.9373772 h 0.749902 z m 1.273981,1.8236249 v 4.70392963 h 0.749902 V -2.5890073 c 0,-0.9544205 0.494253,-1.5850198 1.278241,-1.5850198 0.57947,0 0.971464,0.3579077 0.971464,0.9203341 v 3.25525563 h 0.732859 V -3.5434278 c 0,-0.7839883 -0.57947,-1.295285 -1.482761,-1.295285 -0.698772,0 -1.141896,0.2726915 -1.567976,0.9373773 V -4.702367 Z m 8.052923,0 v 0.6817289 c -0.374951,-0.5453832 -0.835118,-0.8180747 -1.431631,-0.8180747 -1.193025,0 -2.0111,1.0566798 -2.0111,2.5735267 0,0.7669451 0.204519,1.39754433 0.596513,1.84066814 0.340864,0.39199414 0.852161,0.63059927 1.346414,0.63059927 0.596513,0 1.00555,-0.25564835 1.431631,-0.83511795 v 0.23860513 c 0,0.63059927 -0.08522,1.02259341 -0.272691,1.27824176 -0.204519,0.27269155 -0.57947,0.44312385 -1.039637,0.44312385 -0.340865,0 -0.647643,-0.085216 -0.852161,-0.2556484 C 39.663277,0.93893992 39.595105,0.81963735 39.543975,0.54694578 H 38.77703 c 0.08522,0.88624762 0.766945,1.41458752 1.874754,1.41458752 0.698773,0 1.295285,-0.2215619 1.602063,-0.613556 0.357908,-0.42608061 0.494254,-1.02259343 0.494254,-2.11335973 V -4.702367 Z m -1.363458,0.5624263 c 0.818075,0 1.295285,0.681729 1.295285,1.8577114 0,1.1248527 -0.494253,1.80658167 -1.278242,1.80658167 -0.818074,0 -1.312328,-0.69877217 -1.312328,-1.84066817 0,-1.1248527 0.494254,-1.8236249 1.295285,-1.8236249 z m 0,0"
       style="fill:#000000;fill-opacity:1;fill-rule:nonzero;stroke:none"
       aria-label="Computing"
       transform="matrix(0.91678667,0,0,0.91678667,242.53958,33.721224)" />
    <path
       id="path10"
       d="M 1.7387852,-6.5261993 H 0.90366724 V 0.0013553 H 1.7387852 Z m 1.3847619,1.8236249 v 4.7039297 h 0.7499018 v -2.59057 c 0,-0.9544205 0.4942535,-1.5850197 1.2782418,-1.5850197 0.5794696,0 0.9714637,0.3579076 0.9714637,0.920334 V 0.0013553 H 6.856013 v -3.5449905 c 0,-0.7839883 -0.5794696,-1.295285 -1.4827604,-1.295285 -0.6987722,0 -1.141896,0.2726916 -1.5679766,0.9373773 v -0.8010315 z m 6.672422,0 H 9.0119808 V -5.435433 c 0,-0.306778 0.1704322,-0.4772102 0.5112967,-0.4772102 0.068173,0 0.1022593,0 0.2726916,0.017043 v -0.6135561 c -0.1704323,-0.05113 -0.2726916,-0.05113 -0.4260806,-0.05113 -0.6987722,0 -1.1078095,0.3919941 -1.1078095,1.0737231 V -4.702575 H 7.6314797 v 0.6135561 H 8.262079 v 4.0903736 h 0.7499018 v -4.0903736 h 0.7839883 z m 0.7882489,0 v 4.7039297 h 0.749902 v -2.437181 c 0,-0.6817289 0.170432,-1.1078095 0.545383,-1.3805011 0.221562,-0.1704322 0.443124,-0.2215619 0.971464,-0.2215619 v -0.766945 c -0.136346,-0.017043 -0.187476,-0.034086 -0.289735,-0.034086 -0.47721,0 -0.852161,0.2897348 -1.278242,0.988507 v -0.8521612 z m 7.072938,4.26080589 c -0.06817,0.0170432 -0.102259,0.0170432 -0.153389,0.0170432 -0.255648,0 -0.409038,-0.13634579 -0.409038,-0.35790769 v -2.7610022 c 0,-0.8351179 -0.596512,-1.295285 -1.755452,-1.295285 -0.681728,0 -1.244155,0.2045187 -1.567976,0.5624264 -0.204519,0.2386051 -0.306778,0.5112967 -0.323821,0.9714637 h 0.749902 c 0.06817,-0.5794695 0.409037,-0.8351179 1.107809,-0.8351179 0.681729,0 1.05668,0.2556484 1.05668,0.6987722 v 0.2045186 c 0,0.3067781 -0.187476,0.4431239 -0.783988,0.5112967 -1.05668,0.1363458 -1.227112,0.1704323 -1.516847,0.2897348 -0.545383,0.2215619 -0.818075,0.6476425 -0.818075,1.2611986 0,0.85216115 0.596513,1.38050108 1.550933,1.38050108 0.57947,0 1.05668,-0.20451868 1.58502,-0.68172894 0.05113,0.46016703 0.289735,0.68172894 0.766945,0.68172894 0.153389,0 0.272692,-0.0170432 0.511297,-0.0852161 z M 16.361871,-1.4814051 c 0,0.2556483 -0.08522,0.4090373 -0.306778,0.613556 -0.306778,0.27269158 -0.664686,0.42608059 -1.10781,0.42608059 -0.579469,0 -0.920334,-0.2897348 -0.920334,-0.74990179 0,-0.4942535 0.323822,-0.7499019 1.124853,-0.8692044 0.783988,-0.1022594 0.954421,-0.1363458 1.210069,-0.2556484 z m 5.411223,-1.9088411 c 0,-0.920334 -0.613556,-1.448674 -1.704322,-1.448674 -1.090766,0 -1.789538,0.5794696 -1.789538,1.448674 0,0.7328586 0.37495,1.0737231 1.48276,1.3464147 l 0.698772,0.1704322 c 0.52834,0.1193026 0.732859,0.306778 0.732859,0.6476425 0,0.44312382 -0.443124,0.74990184 -1.090767,0.74990184 -0.409037,0 -0.749901,-0.11930256 -0.937377,-0.32382125 C 19.046179,-0.93602199 18.995049,-1.0723678 18.943919,-1.396189 h -0.783988 c 0.03409,1.09076627 0.647642,1.60206298 1.874755,1.60206298 1.175982,0 1.925884,-0.5794696 1.925884,-1.48276048 0,-0.6987721 -0.391994,-1.0907663 -1.312328,-1.3123282 l -0.715816,-0.1704322 c -0.613556,-0.1363458 -0.886247,-0.3408645 -0.886247,-0.6646857 0,-0.4431238 0.391994,-0.7158154 1.00555,-0.7158154 0.596513,0 0.920334,0.2556484 0.937377,0.7499018 z m 2.846219,-1.3123282 h -0.783989 v -1.2782417 h -0.732858 v 1.2782417 h -0.647643 v 0.6135561 h 0.647643 v 3.54499045 c 0,0.47721025 0.323821,0.74990183 0.903291,0.74990183 0.170432,0 0.357907,-0.0170432 0.613556,-0.0681729 v -0.61355604 c -0.10226,0.0170432 -0.221562,0.0340864 -0.357908,0.0340864 -0.323821,0 -0.426081,-0.10225934 -0.426081,-0.42608059 V -4.0890183 h 0.783989 z m 0.822335,0 v 4.7039297 h 0.749902 v -2.437181 c 0,-0.6817289 0.170432,-1.1078095 0.545383,-1.3805011 0.221562,-0.1704322 0.443124,-0.2215619 0.971464,-0.2215619 v -0.766945 c -0.136346,-0.017043 -0.187476,-0.034086 -0.289735,-0.034086 -0.47721,0 -0.852161,0.2897348 -1.278242,0.988507 v -0.8521612 z m 6.825811,4.7039297 v -4.7039297 h -0.749902 v 2.6757861 c 0,0.9544205 -0.511296,1.58501979 -1.278241,1.58501979 -0.596513,0 -0.971464,-0.3579077 -0.971464,-0.92033409 V -4.7025744 H 28.51795 v 3.6302066 c 0,0.7839883 0.57947,1.27824178 1.499804,1.27824178 0.698772,0 1.124852,-0.23860513 1.567976,-0.85216118 v 0.6476425 z m 4.882884,-3.1189099 c -0.03409,-0.460167 -0.136346,-0.7499018 -0.323822,-1.0055502 -0.323821,-0.4431238 -0.886247,-0.7158154 -1.53389,-0.7158154 -1.261198,0 -2.096316,1.0055502 -2.096316,2.5735268 0,1.51684686 0.818075,2.47126738 2.079273,2.47126738 1.124853,0 1.840668,-0.66468572 1.925884,-1.82362488 h -0.749901 c -0.136346,0.76694502 -0.511297,1.14189594 -1.15894,1.14189594 -0.818074,0 -1.312328,-0.68172894 -1.312328,-1.78953844 0,-1.1759824 0.47721,-1.8747546 1.295285,-1.8747546 0.630599,0 1.022593,0.3749509 1.124853,1.0225934 z m 2.53944,-1.5850198 h -0.783988 v -1.2782417 h -0.732859 v 1.2782417 h -0.647642 v 0.6135561 h 0.647642 v 3.54499045 c 0,0.47721025 0.323821,0.74990183 0.903291,0.74990183 0.170432,0 0.357908,-0.0170432 0.613556,-0.0681729 v -0.61355604 c -0.102259,0.0170432 -0.221562,0.0340864 -0.357908,0.0340864 -0.323821,0 -0.42608,-0.10225934 -0.42608,-0.42608059 V -4.0890183 h 0.783988 z m 4.537758,4.7039297 v -4.7039297 h -0.749902 v 2.6757861 c 0,0.9544205 -0.511296,1.58501979 -1.278241,1.58501979 -0.596513,0 -0.971464,-0.3579077 -0.971464,-0.92033409 v -3.3404718 h -0.749902 v 3.6302066 c 0,0.7839883 0.57947,1.27824178 1.499804,1.27824178 0.698772,0 1.124852,-0.23860513 1.567976,-0.85216118 v 0.6476425 z m 1.26972,-4.7039297 v 4.7039297 h 0.749902 v -2.437181 c 0,-0.6817289 0.170432,-1.1078095 0.545383,-1.3805011 0.221562,-0.1704322 0.443124,-0.2215619 0.971464,-0.2215619 v -0.766945 c -0.136346,-0.017043 -0.187475,-0.034086 -0.289735,-0.034086 -0.47721,0 -0.852161,0.2897348 -1.278241,0.988507 v -0.8521612 z m 6.97494,2.6076132 c 0,-0.7158154 -0.05113,-1.141896 -0.187476,-1.4998036 -0.306778,-0.7669451 -1.022593,-1.2441554 -1.908841,-1.2441554 -1.312328,0 -2.147446,1.0055502 -2.147446,2.5564836 0,1.53389006 0.818075,2.48831058 2.130403,2.48831058 1.073723,0 1.823625,-0.61355605 2.0111,-1.63614948 h -0.749902 c -0.204518,0.63059929 -0.630599,0.95442054 -1.227112,0.95442054 -0.47721,0 -0.886247,-0.22156191 -1.124852,-0.61355604 -0.187476,-0.2726916 -0.255649,-0.5453832 -0.255649,-1.0055502 z m -3.442732,-0.613556 c 0.06817,-0.8692044 0.596513,-1.4316308 1.346415,-1.4316308 0.732859,0 1.295285,0.613556 1.295285,1.3805011 0,0.017043 0,0.034086 -0.01704,0.05113 z m 0,0"
       style="fill:#000000;fill-opacity:1;fill-rule:nonzero;stroke:none"
       aria-label="Infrastructure"
       transform="matrix(0.91678667,0,0,0.91678667,238.17934,43.768289)" />
    <path
       id="path11"
       d="m 37.79967,0 h 28.8155"
       style="fill:none;stroke:#808080;stroke-width:0.99628;stroke-linecap:butt;stroke-linejoin:miter;stroke-miterlimit:10;stroke-dasharray:none;stroke-opacity:1"
       transform="matrix(0.91678667,0,0,-0.91678667,61.42654,35.769325)" />
    <path
       id="path12"
       d="M 5.20058,0 C 3.65962,0.28891 1.15567,1.15567 -0.57784,2.1669 V -2.1669 C 1.15567,-1.15567 3.65962,-0.28891 5.20058,0"
       style="fill:#808080;fill-opacity:1;fill-rule:nonzero;stroke:none"
       transform="matrix(0.91678667,0,0,-0.91678667,122.49844,35.769325)" />
    <path
       id="path13"
       d="m 147.4151,0 h 28.8155"
       style="fill:none;stroke:#808080;stroke-width:0.99628;stroke-linecap:butt;stroke-linejoin:miter;stroke-miterlimit:10;stroke-dasharray:none;stroke-opacity:1"
       transform="matrix(0.91678667,0,0,-0.91678667,61.42654,35.769325)" />
    <path
       id="path14"
       d="M 5.20058,0 C 3.65962,0.28891 1.15567,1.15567 -0.57784,2.1669 V -2.1669 C 1.15567,-1.15567 3.65962,-0.28891 5.20058,0"
       style="fill:#808080;fill-opacity:1;fill-rule:nonzero;stroke:none"
       transform="matrix(0.91678667,0,0,-0.91678667,222.9924,35.769325)" />
    <path
       id="path15"
       d="M 219.23085,-14.547 V -28.3468 H 0 v 8.59923"
       style="fill:none;stroke:#808080;stroke-width:0.99628;stroke-linecap:butt;stroke-linejoin:miter;stroke-miterlimit:10;stroke-dasharray:none;stroke-opacity:1"
       transform="matrix(0.91678667,0,0,-0.91678667,61.42654,35.769325)" />
    <path
       id="path16"
       d="M 5.20058,0 C 3.65962,0.28891 1.15567,1.15567 -0.57784,2.1669 V -2.1669 C 1.15567,-1.15567 3.65962,-0.28891 5.20058,0"
       style="fill:#808080;fill-opacity:1;fill-rule:nonzero;stroke:none"
       transform="matrix(0,-0.91678667,-0.91678667,0,61.42654,53.873634)" />
    <path
       id="path17"
       d="m 1.5346255,-2.284307 1.073723,-1.073723 2.3008352,3.35751498742 h 0.988507 L 3.2048614,-3.8693267 5.8806474,-6.5280696 H 4.7898811 L 1.5346255,-3.2216842 V -6.5280696 H 0.71655075 V -5.1501258e-4 H 1.5346255 Z m 8.6877835,0.1874755 c 0,-0.7158154 -0.05113,-1.141896 -0.187476,-1.4998037 -0.3067779,-0.766945 -1.0225932,-1.2441553 -1.9088409,-1.2441553 -1.3123282,0 -2.1474461,1.0055502 -2.1474461,2.5564835 0,1.53389016 0.8180747,2.48831067 2.1304029,2.48831067 1.0737231,0 1.8236249,-0.61355604 2.0111001,-1.63614947 H 9.3702474 c -0.2045186,0.63059929 -0.6305992,0.95442053 -1.227112,0.95442053 -0.4772103,0 -0.8862477,-0.2215619 -1.1248528,-0.61355603 C 6.8308072,-1.3639729 6.7626343,-1.6366645 6.7626343,-2.0968315 Z m -3.4427315,-0.613556 c 0.068173,-0.8692044 0.5965128,-1.4316308 1.3464146,-1.4316308 0.7328586,0 1.295285,0.613556 1.295285,1.3805011 0,0.017043 0,0.034086 -0.017043,0.05113 z m 7.1240675,-1.9940572 -1.295285,3.6642931 -1.210069,-3.6642931 h -0.783988 l 1.58502,4.72097291 -0.289735,0.74990183 C 11.790385,1.0902513 11.619953,1.2265971 11.313175,1.2265971 c -0.119303,0 -0.238605,-0.034086 -0.409037,-0.068173 V 1.840153 c 0.153389,0.085216 0.306778,0.1193026 0.511296,0.1193026 0.238605,0 0.494254,-0.085216 0.698772,-0.2215619 0.238606,-0.1704323 0.357908,-0.3749509 0.511297,-0.74990185 l 2.079273,-5.69243665 z m 4.213937,4.70392968742 h 2.948478 c 0.613556,0 1.073723,-0.17043223742 1.414587,-0.54538314742 0.323821,-0.34086447 0.511297,-0.80103154 0.511297,-1.31232824 0,-0.8010315 -0.357908,-1.2782417 -1.193026,-1.602063 0.57947,-0.2726915 0.903291,-0.7499018 0.903291,-1.4145875 0,-0.4772103 -0.187475,-0.9032909 -0.52834,-1.2100689 -0.340864,-0.306778 -0.783988,-0.4431238 -1.414587,-0.4431238 h -2.6417 z M 18.935757,-3.7159377 V -5.795211 h 1.619106 c 0.47721,0 0.732858,0.05113 0.95442,0.2215619 0.238605,0.1874755 0.357908,0.4601671 0.357908,0.8180747 0,0.3408645 -0.119303,0.6305993 -0.357908,0.8010316 -0.221562,0.1704322 -0.47721,0.2386051 -0.95442,0.2386051 z m 0,2.98256408 V -2.9830791 h 2.045186 c 0.409038,0 0.664686,0.1022593 0.869205,0.306778 0.187475,0.2045187 0.306778,0.4942535 0.306778,0.8180747 0,0.3238213 -0.119303,0.5965129 -0.306778,0.8010315 -0.204519,0.22156194 -0.460167,0.32382128 -0.869205,0.32382128 z m 5.061837,-3.97107108 v 4.70392968742 h 0.749902 V -2.437696 c 0,-0.6817289 0.170432,-1.1078095 0.545383,-1.3805011 0.221562,-0.1704322 0.443124,-0.2215619 0.971464,-0.2215619 v -0.766945 c -0.136346,-0.017043 -0.187476,-0.034086 -0.289735,-0.034086 -0.47721,0 -0.852161,0.2897348 -1.278242,0.988507 v -0.8521612 z m 6.974939,2.6076132 c 0,-0.7158154 -0.05113,-1.141896 -0.187475,-1.4998037 -0.306778,-0.766945 -1.022594,-1.2441553 -1.908841,-1.2441553 -1.312329,0 -2.147446,1.0055502 -2.147446,2.5564835 0,1.53389016 0.818074,2.48831067 2.130402,2.48831067 1.073724,0 1.823625,-0.61355604 2.011101,-1.63614947 h -0.749902 c -0.204519,0.63059929 -0.630599,0.95442053 -1.227112,0.95442053 -0.47721,0 -0.886248,-0.2215619 -1.124853,-0.61355603 -0.187475,-0.2726916 -0.255648,-0.5453832 -0.255648,-1.0055502 z m -3.442731,-0.613556 c 0.06817,-0.8692044 0.596513,-1.4316308 1.346415,-1.4316308 0.732858,0 1.295285,0.613556 1.295285,1.3805011 0,0.017043 0,0.034086 -0.01704,0.05113 z m 8.615349,2.26674868 c -0.06817,0.0170432 -0.102259,0.0170432 -0.153389,0.0170432 -0.255648,0 -0.409037,-0.13634579 -0.409037,-0.35790769 V -3.5455055 c 0,-0.8351179 -0.596513,-1.295285 -1.755452,-1.295285 -0.681729,0 -1.244155,0.2045187 -1.567976,0.5624264 -0.204519,0.2386051 -0.306779,0.5112967 -0.323822,0.9714637 h 0.749902 c 0.06817,-0.5794696 0.409037,-0.8351179 1.10781,-0.8351179 0.681729,0 1.056679,0.2556483 1.056679,0.6987722 v 0.2045186 c 0,0.3067781 -0.187475,0.4431238 -0.783988,0.5112967 -1.05668,0.1363458 -1.227112,0.1704323 -1.516847,0.2897348 -0.545383,0.2215619 -0.818074,0.6476425 -0.818074,1.2611986 0,0.85216114 0.596512,1.38050107 1.550933,1.38050107 0.57947,0 1.05668,-0.20451868258 1.58502,-0.68172894 0.05113,0.46016703 0.289734,0.68172894 0.766945,0.68172894 0.153389,0 0.272691,-0.0170432 0.511296,-0.0852161 z M 34.849866,-1.4832755 c 0,0.2556484 -0.08522,0.4090374 -0.306778,0.61355609 -0.306778,0.27269158 -0.664685,0.42608059 -1.107809,0.42608059 -0.57947,0 -0.920334,-0.2897348 -0.920334,-0.74990188 0,-0.4942534 0.323821,-0.7499018 1.124853,-0.8692043 0.783988,-0.1022594 0.95442,-0.1363458 1.210068,-0.2556484 z m 2.752481,-5.0447941 h -0.732859 v 6.52755458742 h 0.732859 V -1.8241399 l 0.732859,-0.7158154 1.585019,2.53944028742 H 40.84056 L 38.914675,-3.0682952 l 1.63615,-1.6361495 h -0.954421 l -1.994057,1.9940572 z m 5.504961,1.8236249 H 42.32332 v -1.2782417 h -0.732859 v 1.2782417 h -0.647642 v 0.6135561 h 0.647642 v 3.54499044 c 0,0.47721025 0.323822,0.74990183 0.903291,0.74990183 0.170432,0 0.357908,-0.0170432 0.613556,-0.0681729 v -0.61355604 c -0.102259,0.0170432 -0.221562,0.0340864 -0.357907,0.0340864 -0.323822,0 -0.426081,-0.10225934 -0.426081,-0.42608059 V -4.0908886 h 0.783988 z m 0.839379,-1.8236249 v 6.52755458742 h 0.732859 V -2.591085 c 0,-0.9544205 0.511296,-1.5850198 1.278241,-1.5850198 0.238605,0 0.494254,0.085216 0.664686,0.221562 0.221562,0.1363457 0.306778,0.3749509 0.306778,0.6987721 v 3.25525568742 h 0.749902 V -3.5455055 c 0,-0.8010315 -0.57947,-1.295285 -1.482761,-1.295285 -0.664685,0 -1.073723,0.2215619 -1.516846,0.7839883 v -2.4712674 z m 4.9681,1.8236249 v 4.70392968742 h 0.749901 V -2.437696 c 0,-0.6817289 0.170433,-1.1078095 0.545384,-1.3805011 0.221561,-0.1704322 0.443123,-0.2215619 0.971463,-0.2215619 V -4.806704 C 51.04519,-4.823747 50.99406,-4.84079 50.891801,-4.84079 c -0.477211,0 -0.852162,0.2897348 -1.278242,0.988507 v -0.8521612 z m 4.810449,-0.1363458 c -1.312328,0 -2.113359,0.9544205 -2.113359,2.5223971 0,1.58501978 0.783988,2.52239707 2.130403,2.52239707 1.312328,0 2.113359,-0.93737729 2.113359,-2.48831067 0,-1.6191062 -0.783988,-2.5564835 -2.130403,-2.5564835 z m 0.01704,0.6987722 c 0.835118,0 1.329371,0.6817289 1.329371,1.8577113 0,1.1078096 -0.511297,1.80658173 -1.329371,1.80658173 -0.835118,0 -1.346415,-0.69877213 -1.346415,-1.84066813 0,-1.1248527 0.511297,-1.8236249 1.346415,-1.8236249 z m 6.859897,4.14150328742 V -4.7044447 h -0.749902 v 2.6757861 c 0,0.9544205 -0.511296,1.58501978 -1.278242,1.58501978 -0.596512,0 -0.971463,-0.35790769 -0.971463,-0.92033408 v -3.3404718 h -0.749902 v 3.6302066 c 0,0.78398829 0.57947,1.27824177 1.499804,1.27824177 0.698772,0 1.124852,-0.23860513 1.567976,-0.85216117 V -5.1501258e-4 Z M 64.956721,-4.7044447 v 0.681729 c -0.374951,-0.5453832 -0.835118,-0.8180748 -1.431631,-0.8180748 -1.193026,0 -2.0111,1.0566799 -2.0111,2.5735268 0,0.766945 0.204518,1.39754429 0.596512,1.8406681 0.340865,0.39199414 0.852162,0.63059927 1.346415,0.63059927 0.596513,0 1.00555,-0.25564835 1.431631,-0.83511795 v 0.23860513 c 0,0.63059927 -0.08522,1.0225934 -0.272692,1.27824176 -0.204518,0.27269159 -0.579469,0.44312379 -1.039636,0.44312379 -0.340865,0 -0.647643,-0.085216 -0.852162,-0.2556483 C 62.553626,0.93686228 62.485453,0.81755971 62.434324,0.54486814 h -0.766945 c 0.08522,0.88624766 0.766945,1.41458756 1.874754,1.41458756 0.698772,0 1.295285,-0.2215619 1.602063,-0.6135561 0.357908,-0.42608055 0.494254,-1.02259337 0.494254,-2.11335967 V -4.7044447 Z m -1.363458,0.5624264 c 0.818075,0 1.295285,0.6817289 1.295285,1.8577113 0,1.1248528 -0.494254,1.80658173 -1.278242,1.80658173 -0.818075,0 -1.312328,-0.69877213 -1.312328,-1.84066813 0,-1.1248527 0.494253,-1.8236249 1.295285,-1.8236249 z m 3.28082,-2.3860513 v 6.52755458742 h 0.732859 V -2.591085 c 0,-0.9544205 0.511297,-1.5850198 1.278242,-1.5850198 0.238605,0 0.494253,0.085216 0.664685,0.221562 0.221562,0.1363457 0.306778,0.3749509 0.306778,0.6987721 v 3.25525568742 h 0.749902 V -3.5455055 c 0,-0.8010315 -0.579469,-1.295285 -1.48276,-1.295285 -0.664686,0 -1.073723,0.2215619 -1.516847,0.7839883 v -2.4712674 z m 8.274485,3.1359531 c 0,-0.920334 -0.613556,-1.448674 -1.704322,-1.448674 -1.090766,0 -1.789539,0.5794696 -1.789539,1.448674 0,0.7328586 0.374951,1.0737231 1.482761,1.3464147 l 0.698772,0.1704322 c 0.52834,0.1193026 0.732859,0.306778 0.732859,0.6476425 0,0.44312381 -0.443124,0.74990183 -1.090767,0.74990183 -0.409037,0 -0.749901,-0.11930256 -0.937377,-0.32382124 C 72.421653,-0.9378923 72.370523,-1.0742381 72.319393,-1.3980593 h -0.783988 c 0.03409,1.09076627 0.647642,1.60206297 1.874754,1.60206297 1.175983,0 1.925885,-0.5794696 1.925885,-1.48276047 0,-0.6987721 -0.391994,-1.0907663 -1.312328,-1.3123282 L 73.3079,-2.7615172 c -0.613556,-0.1363458 -0.886247,-0.3408645 -0.886247,-0.6646857 0,-0.4431238 0.391994,-0.7158154 1.00555,-0.7158154 0.596513,0 0.920334,0.2556483 0.937377,0.7499018 z m 0,0"
       style="fill:#000000;fill-opacity:1;fill-rule:nonzero;stroke:none"
       aria-label="KeyBreakthroughs"
       transform="matrix(0.91678667,0,0,0.91678667,248.15948,11.824691)" />
  </g>
</svg>
