<?xml version="1.0" encoding="UTF-8" standalone="no"?>
<!-- Created with Inkscape (http://www.inkscape.org/) -->

<svg
   version="1.1"
   id="svg1"
   width="597.69598"
   height="162.59734"
   viewBox="0 0 597.69598 162.59734"
   xmlns="http://www.w3.org/2000/svg"
   xmlns:svg="http://www.w3.org/2000/svg">
  <defs
     id="defs1" />
  <g
     id="g1">
    <path
       id="path1"
       d="M -36.00873,-14.17339 H 36.00873 V 14.1734 h -72.01746 z"
       style="fill:#d1f3ff;fill-opacity:1;fill-rule:nonzero;stroke:#006395;stroke-width:0.74721;stroke-linecap:butt;stroke-linejoin:round;stroke-miterlimit:10;stroke-dasharray:none;stroke-opacity:1"
       transform="matrix(1.3333333,0,0,-1.3333333,122.18667,54.569333)" />
    <path
       id="path2"
       d="M 6.6677891,-9.296875e-4 8.3318516,-6.5399922 h -0.9375 L 6.1990391,-1.2313984 4.7107578,-6.5399922 H 3.8084141 L 2.3552891,-1.2313984 1.1248203,-6.5399922 H 0.19903906 L 1.8748203,-9.296875e-4 H 2.7888828 L 4.2537266,-5.3681172 l 1.5,5.3671875125 z M 12.787906,-2.0985859 c 0,-0.7148438 -0.04687,-1.1484375 -0.1875,-1.5 -0.304687,-0.7734375 -1.019531,-1.2304688 -1.898437,-1.2304688 -1.3007815,0 -2.1445315,0.9960938 -2.1445315,2.5429688 0,1.54687496 0.8085937,2.49609371 2.1328125,2.49609371 1.066406,0 1.816406,-0.609375 2.003906,-1.64062501 h -0.75 c -0.210937,0.62109376 -0.632812,0.94921876 -1.230469,0.94921876 -0.480468,0 -0.8789058,-0.22265625 -1.1249995,-0.60937496 -0.1875,-0.2695313 -0.2460938,-0.5390625 -0.2578125,-1.0078125 z m -3.4335935,-0.609375 c 0.058594,-0.8671875 0.5859375,-1.4296875 1.3359375,-1.4296875 0.738281,0 1.300781,0.609375 1.300781,1.3710937 0,0.023437 0,0.035156 0,0.058594 z m 5.1738285,-1.9921875 h -0.75 v 4.6992187125 h 0.75 z m 0,-1.8398438 h -0.761719 v 0.9492188 h 0.761719 z m 4.333007,1.8398438 v 0.6796875 c -0.375,-0.5507813 -0.832031,-0.8085938 -1.429687,-0.8085938 -1.195313,0 -2.003906,1.03125 -2.003906,2.5546875 0,0.7734375 0.210937,1.40625001 0.597656,1.85156251 0.351562,0.3984375 0.84375,0.6328125 1.335937,0.6328125 0.597657,0 1.007813,-0.2578125 1.429688,-0.84375 v 0.234375 c 0,0.64453125 -0.08203,1.03125 -0.269531,1.2890625 -0.199219,0.26953129 -0.585938,0.43359379 -1.042969,0.43359379 -0.339844,0 -0.644531,-0.082031 -0.84375,-0.2460938 C 16.458805,0.93657031 16.388492,0.81938281 16.341617,0.53813281 h -0.761719 c 0.08203,0.89062499 0.773438,1.41796879 1.875,1.41796879 0.703125,0 1.300782,-0.2226563 1.605469,-0.5976563 0.363281,-0.43359374 0.492188,-1.03124999 0.492188,-2.13281249 V -4.7001484 Z m -1.347656,0.5625 c 0.808594,0 1.277344,0.6796875 1.277344,1.8515625 0,1.125 -0.480469,1.80468746 -1.277344,1.80468746 -0.808594,0 -1.300781,-0.69140626 -1.300781,-1.82812496 0,-1.1367188 0.503906,-1.828125 1.300781,-1.828125 z m 3.275391,-2.4023438 v 6.5390625125 h 0.738281 V -2.5907734 c 0,-0.9609375 0.503906,-1.5820313 1.277344,-1.5820313 0.234375,0 0.480469,0.070312 0.65625,0.2109375 0.222656,0.1523438 0.304687,0.375 0.304687,0.703125 v 3.2578125125 h 0.75 V -3.5517109 c 0,-0.7851563 -0.5625,-1.2773438 -1.476562,-1.2773438 -0.667969,0 -1.066406,0.1992188 -1.511719,0.7734375 v -2.484375 z m 6.626953,1.8398438 h -0.761719 v -1.2890625 h -0.75 v 1.2890625 h -0.632812 v 0.609375 h 0.632812 v 3.55078121 c 0,0.48046875 0.328125,0.75 0.902344,0.75 0.1875,0 0.363281,-0.0234375 0.609375,-0.0703125 v -0.62109375 c -0.09375,0.0234375 -0.210938,0.0351563 -0.351563,0.0351563 -0.328125,0 -0.410156,-0.09375 -0.410156,-0.421875 V -4.0907734 h 0.761719 z m 4.751953,-1.8398438 h -0.832031 v 6.5390625125 h 4.066406 V -0.73921094 h -3.234375 z m 8.229492,6.10546876 c -0.08203,0.0117188 -0.117187,0.0117188 -0.152344,0.0117188 -0.269531,0 -0.410156,-0.12890625 -0.410156,-0.36328125 V -3.5517109 c 0,-0.8320313 -0.609375,-1.2773438 -1.769531,-1.2773438 -0.679688,0 -1.242188,0.1875 -1.558594,0.5390625 -0.210937,0.2460938 -0.304687,0.515625 -0.316406,0.984375 h 0.75 c 0.05859,-0.5742187 0.398437,-0.8320312 1.101562,-0.8320312 0.667969,0 1.054688,0.2460937 1.054688,0.6914062 v 0.1992188 c 0,0.3164062 -0.1875,0.4453125 -0.785156,0.515625 -1.054688,0.140625 -1.21875,0.1757812 -1.5,0.2929687 -0.550782,0.2226563 -0.832032,0.6445313 -0.832032,1.2539063 0,0.85546871 0.597657,1.39453121 1.546875,1.39453121 0.585938,0 1.066407,-0.2109374975 1.59375,-0.69140625 0.04687,0.46875 0.28125,0.69140625 0.773438,0.69140625 0.152344,0 0.269531,-0.0234375 0.503906,-0.0820313 z M 39.0965,-1.4774922 c 0,0.2460938 -0.08203,0.3984375 -0.304688,0.60937501 -0.304687,0.28125 -0.667968,0.421875 -1.113281,0.421875 -0.574219,0 -0.914062,-0.28125 -0.914062,-0.76171871 0,-0.4921875 0.328125,-0.7382813 1.125,-0.8554688 0.785156,-0.1054687 0.949218,-0.140625 1.207031,-0.2578125 z m 4.713867,-3.2226562 -1.300781,3.65625 -1.207031,-3.65625 H 40.50568 l 1.59375,4.72265621 -0.292969,0.73828125 c -0.117188,0.32812504 -0.28125,0.45703124 -0.597656,0.45703124 -0.105469,0 -0.234375,-0.011719 -0.398438,-0.058594 v 0.6796875 c 0.152344,0.082031 0.304688,0.1171875 0.503906,0.1171875 0.246094,0 0.503907,-0.082031 0.703125,-0.2226563 0.234375,-0.1757812 0.363282,-0.375 0.503907,-0.74999999 l 2.097656,-5.68359371 z m 5.416992,2.6015625 c 0,-0.7148438 -0.04687,-1.1484375 -0.1875,-1.5 -0.304687,-0.7734375 -1.019531,-1.2304688 -1.898437,-1.2304688 -1.300781,0 -2.144531,0.9960938 -2.144531,2.5429688 0,1.54687496 0.808593,2.49609371 2.132812,2.49609371 1.066406,0 1.816406,-0.609375 2.003906,-1.64062501 h -0.75 c -0.210937,0.62109376 -0.632812,0.94921876 -1.230468,0.94921876 -0.480469,0 -0.878907,-0.22265625 -1.125,-0.60937496 -0.1875,-0.2695313 -0.246094,-0.5390625 -0.257813,-1.0078125 z m -3.433593,-0.609375 c 0.05859,-0.8671875 0.585937,-1.4296875 1.335937,-1.4296875 0.738281,0 1.300781,0.609375 1.300781,1.3710937 0,0.023437 0,0.035156 0,0.058594 z m 4.447265,-1.9921875 v 4.6992187125 h 0.75 V -2.4384297 c 0,-0.6679687 0.175781,-1.1132812 0.527344,-1.3710937 0.234375,-0.1757813 0.457031,-0.2226563 0.984375,-0.234375 v -0.7617188 c -0.128906,-0.023437 -0.199219,-0.023437 -0.292969,-0.023437 -0.480469,0 -0.855469,0.28125 -1.277344,0.984375 v -0.8554687 z m 0,0"
       style="fill:#000000;fill-opacity:1;fill-rule:nonzero;stroke:none"
       aria-label="WeightLayer"
       transform="matrix(1.3333333,0,0,1.3333333,87.121333,57.497333)" />
    <path
       id="path3"
       d="m 178.48997,-14.17339 h 72.01746 V 14.1734 h -72.01746 z"
       style="fill:#d1f3ff;fill-opacity:1;fill-rule:nonzero;stroke:#006395;stroke-width:0.74721;stroke-linecap:butt;stroke-linejoin:round;stroke-miterlimit:10;stroke-dasharray:none;stroke-opacity:1"
       transform="matrix(1.3333333,0,0,-1.3333333,122.18667,54.569333)" />
    <path
       id="path4"
       d="M 6.6688594,-9.296875e-4 8.3329219,-6.5399922 h -0.9375 L 6.2001094,-1.2313984 4.7118281,-6.5399922 H 3.8094844 L 2.3563594,-1.2313984 1.1258906,-6.5399922 H 0.20010937 L 1.8758906,-9.296875e-4 H 2.7899531 L 4.2547969,-5.3681172 l 1.5,5.3671875125 z M 12.788977,-2.0985859 c 0,-0.7148438 -0.04687,-1.1484375 -0.1875,-1.5 -0.304688,-0.7734375 -1.019532,-1.2304688 -1.898438,-1.2304688 -1.3007812,0 -2.1445312,0.9960938 -2.1445312,2.5429688 0,1.54687496 0.8085938,2.49609371 2.1328122,2.49609371 1.066407,0 1.816407,-0.609375 2.003907,-1.64062501 h -0.75 c -0.210938,0.62109376 -0.632813,0.94921876 -1.230469,0.94921876 -0.480469,0 -0.8789064,-0.22265625 -1.1250002,-0.60937496 -0.1875,-0.2695313 -0.2460937,-0.5390625 -0.2578125,-1.0078125 z m -3.4335942,-0.609375 c 0.058594,-0.8671875 0.5859375,-1.4296875 1.3359372,-1.4296875 0.738282,0 1.300782,0.609375 1.300782,1.3710937 0,0.023437 0,0.035156 0,0.058594 z m 5.1738282,-1.9921875 h -0.75 v 4.6992187125 h 0.75 z m 0,-1.8398438 h -0.761719 v 0.9492188 h 0.761719 z m 4.333008,1.8398438 v 0.6796875 c -0.375,-0.5507813 -0.832032,-0.8085938 -1.429688,-0.8085938 -1.195312,0 -2.003906,1.03125 -2.003906,2.5546875 0,0.7734375 0.210937,1.40625001 0.597656,1.85156251 0.351563,0.3984375 0.84375,0.6328125 1.335938,0.6328125 0.597656,0 1.007812,-0.2578125 1.429687,-0.84375 v 0.234375 c 0,0.64453125 -0.08203,1.03125 -0.269531,1.2890625 -0.199219,0.26953129 -0.585938,0.43359379 -1.042969,0.43359379 -0.339844,0 -0.644531,-0.082031 -0.84375,-0.2460938 C 16.459875,0.93657031 16.389562,0.81938281 16.342687,0.53813281 h -0.761718 c 0.08203,0.89062499 0.773437,1.41796879 1.875,1.41796879 0.703125,0 1.300781,-0.2226563 1.605468,-0.5976563 0.363282,-0.43359374 0.492188,-1.03124999 0.492188,-2.13281249 V -4.7001484 Z m -1.347657,0.5625 c 0.808594,0 1.277344,0.6796875 1.277344,1.8515625 0,1.125 -0.480469,1.80468746 -1.277344,1.80468746 -0.808593,0 -1.300781,-0.69140626 -1.300781,-1.82812496 0,-1.1367188 0.503906,-1.828125 1.300781,-1.828125 z m 3.275391,-2.4023438 v 6.5390625125 h 0.738281 V -2.5907734 c 0,-0.9609375 0.503907,-1.5820313 1.277344,-1.5820313 0.234375,0 0.480469,0.070312 0.65625,0.2109375 0.222656,0.1523438 0.304688,0.375 0.304688,0.703125 v 3.2578125125 h 0.75 V -3.5517109 c 0,-0.7851563 -0.5625,-1.2773438 -1.476563,-1.2773438 -0.667969,0 -1.066406,0.1992188 -1.511719,0.7734375 v -2.484375 z m 6.624024,1.8398438 h -0.761719 v -1.2890625 h -0.75 v 1.2890625 h -0.632813 v 0.609375 h 0.632813 v 3.55078121 c 0,0.48046875 0.328125,0.75 0.902344,0.75 0.1875,0 0.363281,-0.0234375 0.609375,-0.0703125 v -0.62109375 c -0.09375,0.0234375 -0.210938,0.0351563 -0.351563,0.0351563 -0.328125,0 -0.410156,-0.09375 -0.410156,-0.421875 V -4.0907734 h 0.761719 z m 4.751953,-1.8398438 h -0.832032 v 6.5390625125 h 4.066407 V -0.73921094 H 32.16593 Z m 8.232422,6.10546876 c -0.08203,0.0117188 -0.117188,0.0117188 -0.152344,0.0117188 -0.269531,0 -0.410156,-0.12890625 -0.410156,-0.36328125 V -3.5517109 c 0,-0.8320313 -0.609375,-1.2773438 -1.769532,-1.2773438 -0.679687,0 -1.242187,0.1875 -1.558593,0.5390625 -0.210938,0.2460938 -0.304688,0.515625 -0.316407,0.984375 h 0.75 c 0.05859,-0.5742187 0.398438,-0.8320312 1.101563,-0.8320312 0.667969,0 1.054687,0.2460937 1.054687,0.6914062 v 0.1992188 c 0,0.3164062 -0.1875,0.4453125 -0.785156,0.515625 -1.054687,0.140625 -1.21875,0.1757812 -1.5,0.2929687 -0.550781,0.2226563 -0.832031,0.6445313 -0.832031,1.2539063 0,0.85546871 0.597656,1.39453121 1.546875,1.39453121 0.585937,0 1.066406,-0.2109374975 1.59375,-0.69140625 0.04687,0.46875 0.28125,0.69140625 0.773437,0.69140625 0.152344,0 0.269532,-0.0234375 0.503907,-0.0820313 z M 39.09757,-1.4774922 c 0,0.2460938 -0.08203,0.3984375 -0.304687,0.60937501 -0.304688,0.28125 -0.667969,0.421875 -1.113281,0.421875 -0.574219,0 -0.914063,-0.28125 -0.914063,-0.76171871 0,-0.4921875 0.328125,-0.7382813 1.125,-0.8554688 0.785156,-0.1054687 0.949219,-0.140625 1.207031,-0.2578125 z m 4.713867,-3.2226562 -1.300781,3.65625 -1.207031,-3.65625 H 40.50675 l 1.59375,4.72265621 -0.292969,0.73828125 c -0.117187,0.32812504 -0.28125,0.45703124 -0.597656,0.45703124 -0.105469,0 -0.234375,-0.011719 -0.398438,-0.058594 v 0.6796875 c 0.152344,0.082031 0.304688,0.1171875 0.503907,0.1171875 0.246093,0 0.503906,-0.082031 0.703125,-0.2226563 0.234375,-0.1757812 0.363281,-0.375 0.503906,-0.74999999 l 2.097656,-5.68359371 z m 5.416993,2.6015625 c 0,-0.7148438 -0.04687,-1.1484375 -0.1875,-1.5 -0.304688,-0.7734375 -1.019532,-1.2304688 -1.898438,-1.2304688 -1.300781,0 -2.144531,0.9960938 -2.144531,2.5429688 0,1.54687496 0.808594,2.49609371 2.132812,2.49609371 1.066407,0 1.816407,-0.609375 2.003907,-1.64062501 h -0.75 c -0.210938,0.62109376 -0.632813,0.94921876 -1.230469,0.94921876 -0.480469,0 -0.878906,-0.22265625 -1.125,-0.60937496 -0.1875,-0.2695313 -0.246094,-0.5390625 -0.257813,-1.0078125 z m -3.433594,-0.609375 c 0.05859,-0.8671875 0.585937,-1.4296875 1.335937,-1.4296875 0.738282,0 1.300782,0.609375 1.300782,1.3710937 0,0.023437 0,0.035156 0,0.058594 z m 4.447266,-1.9921875 v 4.6992187125 h 0.75 V -2.4384297 c 0,-0.6679687 0.175781,-1.1132812 0.527343,-1.3710937 0.234375,-0.1757813 0.457032,-0.2226563 0.984375,-0.234375 v -0.7617188 c -0.128906,-0.023437 -0.199218,-0.023437 -0.292968,-0.023437 -0.480469,0 -0.855469,0.28125 -1.277344,0.984375 v -0.8554687 z m 0,0"
       style="fill:#000000;fill-opacity:1;fill-rule:nonzero;stroke:none"
       aria-label="WeightLayer"
       transform="matrix(1.3333333,0,0,1.3333333,373.116,57.497333)" />
    <path
       id="path5"
       d="m 123.41841,0 c 0,8.93002 -7.23903,16.16907 -16.16907,16.16907 C 98.3193,16.16907 91.08028,8.93002 91.08028,0 c 0,-8.93002 7.23902,-16.16907 16.16906,-16.16907 8.93004,0 16.16907,7.23905 16.16907,16.16907 z"
       style="fill:#dbfda6;fill-opacity:1;fill-rule:nonzero;stroke:#008f45;stroke-width:0.74721;stroke-linecap:butt;stroke-linejoin:round;stroke-miterlimit:10;stroke-dasharray:none;stroke-opacity:1"
       transform="matrix(1.3333333,0,0,-1.3333333,122.18667,54.569333)" />
    <path
       id="path6"
       d="M 1.66475,-2.8112266 H 3.821 c 0.7382813,0 1.078125,0.3515625 1.078125,1.1601563 l -0.011719,0.5859375 c 0,0.39843749 0.070312,0.79687499 0.1875,1.06640624 h 1.0078125 v -0.2109375 C 5.7780313,-0.42060156 5.7077188,-0.65497656 5.696,-1.5221641 5.6842813,-2.6002891 5.5085,-2.9166953 4.805375,-3.2213828 c 0.7382813,-0.3632813 1.03125,-0.8203125 1.03125,-1.5703125 0,-1.125 -0.703125,-1.7460938 -1.9921875,-1.7460938 H 0.83271875 V 0.00127344 H 1.66475 Z m 0,-0.7382812 v -2.25 h 2.015625 c 0.46875,0 0.7382813,0.070312 0.9492188,0.2460937 0.2226562,0.1992188 0.3398437,0.4921875 0.3398437,0.8789063 0,0.7734375 -0.3984375,1.125 -1.2890625,1.125 z m 9.401367,1.453125 c 0,-0.7148438 -0.04687,-1.1484375 -0.1875,-1.5 -0.304687,-0.7734375 -1.0195311,-1.2304688 -1.8984373,-1.2304688 -1.3007813,0 -2.1445313,0.9960938 -2.1445313,2.5429688 0,1.54687499 0.8085938,2.49609374 2.1328125,2.49609374 1.0664061,0 1.8164061,-0.609375 2.0039061,-1.64062504 h -0.75 c -0.210937,0.62109379 -0.6328123,0.94921879 -1.2304686,0.94921879 -0.4804687,0 -0.8789062,-0.22265625 -1.125,-0.60937499 -0.1875,-0.2695313 -0.2460937,-0.5390625 -0.2578125,-1.0078125 z m -3.4335936,-0.609375 c 0.058594,-0.8671875 0.5859375,-1.4296875 1.3359375,-1.4296875 0.7382813,0 1.3007811,0.609375 1.3007811,1.3710937 0,0.023437 0,0.035156 0,0.058594 z M 13.00557,-6.5377891 h -0.832031 v 6.53906254 h 4.066406 V -0.73700781 H 13.00557 Z m 8.384766,0 v 4.59375 c 0,0.8789063 -0.632813,1.41796879 -1.6875,1.41796879 -0.480469,0 -0.878906,-0.1171875 -1.183594,-0.33984375 C 18.191117,-1.1237266 18.038773,-1.4518516 18.038773,-1.9440391 v -4.59375 h -0.832031 v 4.59375 c 0,1.32421879 0.949219,2.15625004 2.496094,2.15625004 1.535156,0 2.519531,-0.84375 2.519531,-2.15625004 v -4.59375 z m 0,0"
       style="fill:#000000;fill-opacity:1;fill-rule:nonzero;stroke:none"
       aria-label="ReLU"
       transform="matrix(1.3333333,0,0,1.3333333,249.90533,58.705333)" />
    <path
       id="path7"
       d="m 317.86945,0 c 0,5.47949 -4.4419,9.92137 -9.92139,9.92137 -5.47949,0 -9.92137,-4.44188 -9.92137,-9.92137 0,-5.47949 4.44188,-9.92137 9.92137,-9.92137 5.47949,0 9.92139,4.44188 9.92139,9.92137 z"
       style="fill:#e9dedc;fill-opacity:1;fill-rule:nonzero;stroke:none"
       transform="matrix(1.3333333,0,0,-1.3333333,122.18667,54.569333)" />
    <path
       id="path8"
       d="m 301.99533,0 h 11.90546 m -5.95273,-5.95273 V 5.95273"
       style="fill:none;stroke:#000000;stroke-width:0.99628;stroke-linecap:round;stroke-linejoin:round;stroke-miterlimit:10;stroke-dasharray:none;stroke-opacity:1"
       transform="matrix(1.3333333,0,0,-1.3333333,122.18667,54.569333)" />
    <path
       id="path9"
       d="m 317.86945,0 c 0,5.47949 -4.4419,9.92137 -9.92139,9.92137 -5.47949,0 -9.92137,-4.44188 -9.92137,-9.92137 0,-5.47949 4.44188,-9.92137 9.92137,-9.92137 5.47949,0 9.92139,4.44188 9.92139,9.92137 z"
       style="fill:none;stroke:#8f7874;stroke-width:0.74721;stroke-linecap:butt;stroke-linejoin:round;stroke-miterlimit:10;stroke-dasharray:none;stroke-opacity:1"
       transform="matrix(1.3333333,0,0,-1.3333333,122.18667,54.569333)" />
    <path
       id="path10"
       d="m 324.11713,-46.68031 c 0,8.93004 -7.23903,16.16906 -16.16907,16.16906 -8.93004,0 -16.16907,-7.23902 -16.16907,-16.16906 0,-8.93004 7.23903,-16.16907 16.16907,-16.16907 8.93004,0 16.16907,7.23903 16.16907,16.16907 z"
       style="fill:#dbfda6;fill-opacity:1;fill-rule:nonzero;stroke:#008f45;stroke-width:0.74721;stroke-linecap:butt;stroke-linejoin:round;stroke-miterlimit:10;stroke-dasharray:none;stroke-opacity:1"
       transform="matrix(1.3333333,0,0,-1.3333333,122.18667,54.569333)" />
    <path
       id="path11"
       d="m 1.6630625,-2.8125156 h 2.15625 c 0.7382813,0 1.078125,0.3515625 1.078125,1.1601562 l -0.011719,0.5859375 c 0,0.39843753 0.070312,0.79687503 0.1875,1.066406275 H 6.0810313 V -0.21095312 c -0.3046875,-0.2109375 -0.375,-0.4453125 -0.3867188,-1.31249998 -0.011719,-1.078125 -0.1875,-1.3945313 -0.890625,-1.6992188 0.7382813,-0.3632812 1.03125,-0.8203125 1.03125,-1.5703125 0,-1.125 -0.703125,-1.7460937 -1.9921875,-1.7460937 H 0.83103125 V -1.5625e-5 H 1.6630625 Z m 0,-0.7382813 v -2.25 h 2.015625 c 0.46875,0 0.7382813,0.070312 0.9492188,0.2460938 0.2226562,0.1992187 0.3398437,0.4921875 0.3398437,0.8789062 0,0.7734375 -0.3984375,1.125 -1.2890625,1.125 z m 9.4042965,1.453125 c 0,-0.7148437 -0.04687,-1.1484375 -0.1875,-1.5 -0.304687,-0.7734375 -1.0195309,-1.2304687 -1.8984371,-1.2304687 -1.3007813,0 -2.1445313,0.9960937 -2.1445313,2.5429687 0,1.54687503 0.8085938,2.49609378 2.1328125,2.49609378 1.0664059,0 1.8164059,-0.609375 2.0039059,-1.64062498 h -0.75 c -0.210937,0.62109373 -0.6328121,0.94921873 -1.2304684,0.94921873 -0.4804687,0 -0.8789062,-0.22265625 -1.125,-0.60937503 -0.1875,-0.2695312 -0.2460937,-0.5390625 -0.2578125,-1.0078125 z m -3.4335934,-0.609375 c 0.058594,-0.8671875 0.5859375,-1.4296875 1.3359375,-1.4296875 0.7382813,0 1.3007809,0.609375 1.3007809,1.3710938 0,0.023437 0,0.035156 0,0.058594 z M 13.006813,-6.5390781 H 12.174781 V -1.5625e-5 h 4.066407 V -0.73829687 h -3.234375 z m 8.381835,0 v 4.59375 c 0,0.8789062 -0.632812,1.41796873 -1.6875,1.41796873 -0.480468,0 -0.878906,-0.1171875 -1.183593,-0.33984375 C 18.18943,-1.1250156 18.037086,-1.4531406 18.037086,-1.9453281 v -4.59375 h -0.832031 v 4.59375 c 0,1.32421873 0.949218,2.15624998 2.496093,2.15624998 1.535157,0 2.519532,-0.84375 2.519532,-2.15624998 v -4.59375 z m 0,0"
       style="fill:#000000;fill-opacity:1;fill-rule:nonzero;stroke:none"
       aria-label="ReLU"
       transform="matrix(1.3333333,0,0,1.3333333,517.50133,120.94533)" />
    <path
       id="path12"
       d="M 36.38232,0 H 85.50609"
       style="fill:none;stroke:#808080;stroke-width:0.99628;stroke-linecap:butt;stroke-linejoin:round;stroke-miterlimit:10;stroke-dasharray:none;stroke-opacity:1"
       transform="matrix(1.3333333,0,0,-1.3333333,122.18667,54.569333)" />
    <path
       id="path13"
       d="M 5.20058,0 C 3.65962,0.28891 1.15567,1.15567 -0.57784,2.1669 V -2.1669 C 1.15567,-1.15567 3.65962,-0.28891 5.20058,0"
       style="fill:#808080;fill-opacity:1;fill-rule:nonzero;stroke:none"
       transform="matrix(1.3333333,0,0,-1.3333333,236.19479,54.569333)" />
    <path
       id="path14"
       d="m 123.792,0 h 49.12379"
       style="fill:none;stroke:#808080;stroke-width:0.99628;stroke-linecap:butt;stroke-linejoin:round;stroke-miterlimit:10;stroke-dasharray:none;stroke-opacity:1"
       transform="matrix(1.3333333,0,0,-1.3333333,122.18667,54.569333)" />
    <path
       id="path15"
       d="M 5.20058,0 C 3.65962,0.28891 1.15567,1.15567 -0.57784,2.1669 V -2.1669 C 1.15567,-1.15567 3.65962,-0.28891 5.20058,0"
       style="fill:#808080;fill-opacity:1;fill-rule:nonzero;stroke:none"
       transform="matrix(1.3333333,0,0,-1.3333333,352.74105,54.569333)" />
    <path
       id="path16"
       d="M 250.88104,0 H 292.4525"
       style="fill:none;stroke:#808080;stroke-width:0.99628;stroke-linecap:butt;stroke-linejoin:round;stroke-miterlimit:10;stroke-dasharray:none;stroke-opacity:1"
       transform="matrix(1.3333333,0,0,-1.3333333,122.18667,54.569333)" />
    <path
       id="path17"
       d="M 5.20058,0 C 3.65962,0.28891 1.15567,1.15567 -0.57784,2.1669 V -2.1669 C 1.15567,-1.15567 3.65962,-0.28891 5.20058,0"
       style="fill:#808080;fill-opacity:1;fill-rule:nonzero;stroke:none"
       transform="matrix(1.3333333,0,0,-1.3333333,512.12333,54.569333)" />
    <path
       id="path18"
       d="M 307.94806,-10.29497 V -24.93706"
       style="fill:none;stroke:#808080;stroke-width:0.99628;stroke-linecap:butt;stroke-linejoin:round;stroke-miterlimit:10;stroke-dasharray:none;stroke-opacity:1"
       transform="matrix(1.3333333,0,0,-1.3333333,122.18667,54.569333)" />
    <path
       id="path19"
       d="M 5.20058,0 C 3.65962,0.28891 1.15567,1.15567 -0.57784,2.1669 V -2.1669 C 1.15567,-1.15567 3.65962,-0.28891 5.20058,0"
       style="fill:#808080;fill-opacity:1;fill-rule:nonzero;stroke:none"
       transform="matrix(0,1.3333333,1.3333333,0,532.78408,87.818747)" />
    <path
       id="path20"
       d="m 324.49074,-46.68031 h 26.44623"
       style="fill:none;stroke:#808080;stroke-width:0.99628;stroke-linecap:butt;stroke-linejoin:round;stroke-miterlimit:10;stroke-dasharray:none;stroke-opacity:1"
       transform="matrix(1.3333333,0,0,-1.3333333,122.18667,54.569333)" />
    <path
       id="path21"
       d="M 5.20058,0 C 3.65962,0.28891 1.15567,1.15567 -0.57784,2.1669 V -2.1669 C 1.15567,-1.15567 3.65962,-0.28891 5.20058,0"
       style="fill:#808080;fill-opacity:1;fill-rule:nonzero;stroke:none"
       transform="matrix(1.3333333,0,0,-1.3333333,590.10263,116.80975)" />
    <path
       id="path22"
       d="M -41.5829,0 H -78.90253"
       style="fill:none;stroke:#808080;stroke-width:0.99628;stroke-linecap:butt;stroke-linejoin:round;stroke-miterlimit:10;stroke-dasharray:none;stroke-opacity:1"
       transform="matrix(1.3333333,0,0,-1.3333333,122.18667,54.569333)" />
    <path
       id="path23"
       d="M 5.20058,0 C 3.65962,0.28891 1.15567,1.15567 -0.57784,2.1669 V -2.1669 C 1.15567,-1.15567 3.65962,-0.28891 5.20058,0"
       style="fill:#808080;fill-opacity:1;fill-rule:nonzero;stroke:none"
       transform="matrix(1.3333333,0,0,-1.3333333,66.7428,54.569333)" />
    <path
       id="path24"
       d="m 3.2122031,-2.1904844 1.0898438,-1.1835937 c 0.1054687,-0.1054688 0.1640625,-0.1640625 0.8789062,-0.1640625 v -0.4453125 c -0.3046875,0.035156 -0.5390625,0.035156 -0.8320312,0.035156 -0.1640625,0 -0.515625,0 -0.9140625,-0.035156 v 0.4453125 c 0.1992187,0 0.2460937,0.035156 0.3046875,0.09375 l -0.8320313,0.9140625 -0.890625,-1.0078125 h 0.328125 v -0.4453125 c -0.5390625,0.023437 -0.7734375,0.035156 -1.078125,0.035156 -0.1757812,0 -0.52734372,0 -0.98437497,-0.035156 v 0.4453125 H 0.90360938 L 2.3332969,-1.9209531 1.1262656,-0.60845313 C 0.96220313,-0.43267188 0.64579688,-0.43267188 0.23564063,-0.43267188 V 9.21875e-4 c 0.3046875,-0.023437505 0.5390625,-0.023437505 0.83203127,-0.023437505 0.1640625,0 0.515625,0 0.9140625,0.023437505 V -0.43267188 c -0.1289063,0 -0.28125,-0.046875 -0.28125,-0.10546875 0,-0.0351563 0.046875,-0.09375 0.058594,-0.09375 l 0.878906,-0.94921877 0.9960937,1.14843752 H 3.3176719 V 9.21875e-4 c 0.5625,-0.023437505 0.7734375,-0.023437505 1.0664062,-0.023437505 0.2109375,0 0.5390625,0 0.9960938,0.023437505 V -0.43267188 H 4.7473594 Z m 0,0"
       style="fill:#000000;fill-opacity:1;fill-rule:nonzero;stroke:none"
       aria-label="x"
       transform="matrix(1.3333333,0,0,1.3333333,4.428,57.225333)" />
    <path
       id="path25"
       d="M -57.64243,0 V 25.51193 H 307.94806 V 15.49554"
       style="fill:none;stroke:#808080;stroke-width:0.99628;stroke-linecap:butt;stroke-linejoin:round;stroke-miterlimit:10;stroke-dasharray:none;stroke-opacity:1"
       transform="matrix(1.3333333,0,0,-1.3333333,122.18667,54.569333)" />
    <path
       id="path26"
       d="M 5.20058,0 C 3.65962,0.28891 1.15567,1.15567 -0.57784,2.1669 V -2.1669 C 1.15567,-1.15567 3.65962,-0.28891 5.20058,0"
       style="fill:#808080;fill-opacity:1;fill-rule:nonzero;stroke:none"
       transform="matrix(0,1.3333333,1.3333333,0,532.78408,33.908613)" />
    <path
       id="path27"
       d="m 3.2099297,-2.1914219 1.0898437,-1.1835937 c 0.1054688,-0.1054688 0.1640625,-0.1640625 0.8789063,-0.1640625 v -0.4453125 c -0.3046875,0.035156 -0.5390625,0.035156 -0.8320313,0.035156 -0.1640625,0 -0.515625,0 -0.9140625,-0.035156 v 0.4453125 c 0.1992188,0 0.2460938,0.035156 0.3046875,0.09375 l -0.8320312,0.9140625 -0.890625,-1.0078125 h 0.328125 v -0.4453125 c -0.5390625,0.023437 -0.7734375,0.035156 -1.078125,0.035156 -0.1757813,0 -0.52734376,0 -0.98437501,-0.035156 v 0.4453125 H 0.90133594 L 2.3310234,-1.9218906 1.1239922,-0.60939063 C 0.95992969,-0.43360938 0.64352344,-0.43360938 0.23336719,-0.43360938 V -1.5625e-5 c 0.3046875,-0.023437505 0.5390625,-0.023437505 0.83203121,-0.023437505 0.1640625,0 0.515625,0 0.9140625,0.023437505 V -0.43360938 c -0.1289062,0 -0.28125,-0.046875 -0.28125,-0.10546875 0,-0.0351563 0.046875,-0.09375 0.058594,-0.09375 l 0.878906,-0.94921877 0.9960938,1.14843752 H 3.3153984 V -1.5625e-5 c 0.5625,-0.023437505 0.7734375,-0.023437505 1.0664063,-0.023437505 0.2109375,0 0.5390625,0 0.9960937,0.023437505 V -0.43360938 H 4.7450859 Z m 0,0"
       style="fill:#000000;fill-opacity:1;fill-rule:nonzero;stroke:none"
       aria-label="x"
       transform="matrix(1.3333333,0,0,1.3333333,264.724,12.945333)" />
    <path
       id="path28"
       d="M 1.3464453,-4.6992344 H 0.59644531 V -1.5625e-5 H 1.3464453 Z m 0,-1.8398437 H 0.58472656 v 0.9492187 H 1.3464453 Z m 5.0859375,0 h -0.75 v 2.4375 C 5.3659766,-4.5820469 4.8737891,-4.8281406 4.2409766,-4.8281406 c -1.21875,0 -2.015625,0.9726562 -2.015625,2.4726562 0,1.58203127 0.7734375,2.56640627 2.0390625,2.56640627 0.6445312,0 1.1015625,-0.24609375 1.5,-0.83203125 V -1.5625e-5 h 0.6679687 z m -2.0625,2.4023437 c 0.8085938,0 1.3125,0.7265625 1.3125,1.8398438 0,1.0898437 -0.515625,1.80468747 -1.3125,1.80468747 -0.8203125,0 -1.3710937,-0.72656247 -1.3710937,-1.81640627 0,-1.1015625 0.5507812,-1.828125 1.3710937,-1.828125 z m 7.2011722,2.0390625 c 0,-0.7148437 -0.04687,-1.1484375 -0.1875,-1.5 -0.304688,-0.7734375 -1.019532,-1.2304687 -1.8984378,-1.2304687 -1.3007813,0 -2.1445313,0.9960937 -2.1445313,2.5429687 0,1.54687502 0.8085938,2.49609377 2.1328125,2.49609377 1.0664066,0 1.8164066,-0.609375 2.0039066,-1.64062497 h -0.75 c -0.210938,0.62109372 -0.632813,0.94921872 -1.2304691,0.94921872 -0.4804687,0 -0.8789062,-0.22265625 -1.125,-0.60937502 -0.1875,-0.2695312 -0.2460937,-0.5390625 -0.2578125,-1.0078125 z m -3.4335941,-0.609375 c 0.058594,-0.8671875 0.5859375,-1.4296875 1.3359375,-1.4296875 0.7382816,0 1.3007816,0.609375 1.3007816,1.3710938 0,0.023437 0,0.035156 0,0.058594 z M 12.593516,-4.6992344 V -1.5625e-5 h 0.75 V -2.5898594 c 0,-0.9609375 0.503906,-1.5820312 1.265625,-1.5820312 0.597656,0 0.972656,0.3515625 0.972656,0.9140625 V -1.5625e-5 h 0.75 V -3.5507969 c 0,-0.7734375 -0.585938,-1.2773437 -1.488281,-1.2773437 -0.703125,0 -1.148438,0.2695312 -1.570313,0.9140625 v -0.7851563 z m 6.626953,0 H 18.45875 v -1.2890625 h -0.75 v 1.2890625 h -0.632813 v 0.609375 h 0.632813 v 3.55078127 c 0,0.48046875 0.328125,0.75 0.902344,0.75 0.1875,0 0.363281,-0.0234375 0.609375,-0.0703125 v -0.62109375 c -0.09375,0.0234375 -0.210938,0.0351563 -0.351563,0.0351563 -0.328125,0 -0.410156,-0.09375 -0.410156,-0.421875 V -4.0898594 h 0.761719 z m 1.567383,0 h -0.75 V -1.5625e-5 h 0.75 z m 0,-1.8398437 h -0.761719 v 0.9492187 h 0.761719 z m 2.915039,1.8398437 h -0.761719 v -1.2890625 h -0.75 v 1.2890625 h -0.632813 v 0.609375 h 0.632813 v 3.55078127 c 0,0.48046875 0.328125,0.75 0.902344,0.75 0.1875,0 0.363281,-0.0234375 0.609375,-0.0703125 v -0.62109375 c -0.09375,0.0234375 -0.210938,0.0351563 -0.351563,0.0351563 -0.328125,0 -0.410156,-0.09375 -0.410156,-0.421875 V -4.0898594 h 0.761719 z m 3.700195,0 -1.300781,3.65625 -1.207032,-3.65625 h -0.796875 l 1.59375,4.72265627 -0.292968,0.73828125 C 25.281992,1.0898281 25.11793,1.2187344 24.801523,1.2187344 c -0.105468,0 -0.234375,-0.011719 -0.398437,-0.058594 v 0.6796875 c 0.152344,0.082031 0.304687,0.1171875 0.503906,0.1171875 0.246094,0 0.503906,-0.082031 0.703125,-0.2226562 0.234375,-0.1757813 0.363281,-0.375 0.503906,-0.75000003 L 28.21168,-4.6992344 Z m 0,0"
       style="fill:#000000;fill-opacity:1;fill-rule:nonzero;stroke:none"
       aria-label="identity"
       transform="matrix(1.3333333,0,0,1.3333333,275.51333,12.945333)" />
    <path
       id="path29"
       d="m 7.6049766,-5.7785781 c 0,-0.3046875 -0.3398438,-0.3398438 -0.7148438,-0.3398438 H 3.3041953 c -0.1523437,0 -0.8671875,-0.082031 -1.4765625,0.5273438 -0.058594,0.058594 -0.1171875,0.140625 -0.1171875,0.2226562 0,0.023437 0.023437,0.046875 0.070312,0.046875 0.2578125,0 0.5390625,-0.2109375 0.6445313,-0.2929687 0.1054687,-0.011719 0.375,-0.011719 0.6445312,-0.011719 h 0.7617188 c -0.2226563,1.1484375 -0.5976563,2.4023438 -1.1132813,3.6210938 -0.2578125,0.609375 -0.7148437,1.60546873 -0.8671875,1.79296873 -0.6210937,0 -0.796875,-0.421875 -0.91406249,-0.609375 -0.0117188,-0.0351563 -0.046875,-0.046875 -0.0820313,-0.046875 -0.19921875,0 -0.703125,0.28125 -0.703125,0.43359375 0,0.046875 0.046875,0.1171875 0.0585938,0.15234375 0.1875,0.36328125 0.5859375,0.5625 0.99609379,0.5625 0.5273437,0 0.9960937,-0.3046875 1.359375,-0.71484375 0.1757812,-0.2109375 0.9140625,-1.78124998 1.078125,-2.28515628 h 1.78125 c 0,0.09375 0.011719,0.082031 0.082031,0.082031 0.2226563,0 0.5976563,-0.234375 0.6679688,-0.3867188 0.023437,-0.035156 0.046875,-0.09375 0.046875,-0.140625 0,-0.035156 -0.011719,-0.058594 -0.1523438,-0.058594 H 3.8315391 c 0.1875,-0.4570313 0.609375,-1.96875 0.703125,-2.4023438 h 1.7929687 c 0.1523438,0 0.4921875,0.023437 0.4921875,0.234375 0,0.082031 -0.035156,0.1289063 0.09375,0.1289063 0.09375,0 0.6914063,-0.2109375 0.6914063,-0.5156242 z m 0,0"
       style="fill:#000000;fill-opacity:1;fill-rule:nonzero;stroke:none"
       aria-label="F"
       transform="matrix(1.3333333,0,0,1.3333333,508.028,155.18133)" />
    <path
       id="path30"
       d="m 3.0591719,2.1315781 c 0,-0.046875 -0.023437,-0.070312 -0.082031,-0.1289062 -1.1601562,-1.06640627 -1.5117187,-2.67187502 -1.5117187,-4.2421875 0,-1.3945313 0.2695312,-3.0820313 1.5351562,-4.2773438 0.035156,-0.035156 0.058594,-0.070312 0.058594,-0.1054687 0,-0.070312 -0.046875,-0.1054688 -0.1054688,-0.1054688 -0.1054687,0 -0.9140625,0.6445313 -1.40625,1.6289063 -0.421875,0.8554687 -0.64453123,1.78125 -0.64453123,2.8476562 0,0.6445313 0.0820313,1.66406253 0.57421873,2.73046878 0.5273438,1.10156252 1.3710938,1.74609372 1.4765625,1.74609372 0.058594,0 0.1054688,-0.035156 0.1054683,-0.09375 z m 0,0"
       style="fill:#000000;fill-opacity:1;fill-rule:nonzero;stroke:none"
       aria-label="("
       transform="matrix(1.3333333,0,0,1.3333333,518.02267,155.18133)" />
    <path
       id="path31"
       d="m 3.2105234,-2.1926406 1.0898438,-1.1835938 c 0.1054687,-0.1054687 0.1640625,-0.1640625 0.8789062,-0.1640625 v -0.4453125 c -0.3046875,0.035156 -0.5390625,0.035156 -0.8320312,0.035156 -0.1640625,0 -0.515625,0 -0.9140625,-0.035156 v 0.4453125 c 0.1992187,0 0.2460937,0.035156 0.3046875,0.09375 l -0.8320313,0.9140625 -0.890625,-1.0078125 h 0.328125 v -0.4453125 c -0.5390625,0.023437 -0.7734375,0.035156 -1.078125,0.035156 -0.1757812,0 -0.52734371,0 -0.98437496,-0.035156 v 0.4453125 h 0.62109375 l 1.42968751,1.6171875 -1.2070313,1.31250003 c -0.16406246,0.17578125 -0.48046871,0.17578125 -0.89062496,0.17578125 v 0.43359375 c 0.3046875,-0.0234375 0.5390625,-0.0234375 0.83203126,-0.0234375 0.1640625,0 0.515625,0 0.9140625,0.0234375 v -0.43359375 c -0.1289063,0 -0.28125,-0.046875 -0.28125,-0.10546875 0,-0.0351563 0.046875,-0.09375 0.058594,-0.09375 l 0.878906,-0.94921873 0.9960937,1.14843748 H 3.3159922 v 0.43359375 c 0.5625,-0.0234375 0.7734375,-0.0234375 1.0664062,-0.0234375 0.2109375,0 0.5390625,0 0.9960938,0.0234375 V -0.43482812 H 4.7456797 Z m 0,0"
       style="fill:#000000;fill-opacity:1;fill-rule:nonzero;stroke:none"
       aria-label="x"
       transform="matrix(1.3333333,0,0,1.3333333,522.80133,155.18133)" />
    <path
       id="path32"
       d="m 2.6730234,-2.2512344 c 0,-0.7382812 -0.1054687,-1.7226562 -0.5742187,-2.71875 -0.5273438,-1.1015625 -1.35937501,-1.7578125 -1.46484376,-1.7578125 -0.09375,0 -0.1171875,0.070312 -0.1171875,0.1054688 0,0.035156 0.0234375,0.070312 0.0820313,0.1289062 0.52734366,0.46875 1.51171876,1.6875 1.51171876,4.2421875 0,1.27734378 -0.234375,3.07031253 -1.53515626,4.2773438 -0.0234375,0.023437 -0.0585938,0.058594 -0.0585938,0.1054687 0,0.023437 0.0234375,0.09375 0.1171875,0.09375 0.10546875,0 0.91406246,-0.6445312 1.39453126,-1.61718747 0.4335937,-0.85546875 0.6445312,-1.78125003 0.6445312,-2.85937503 z m 9.2841796,0.1992188 c 0.128906,0 0.316406,0 0.316406,-0.1875 0,-0.1992188 -0.175781,-0.1992188 -0.316406,-0.1992188 H 9.4025156 v -2.5664062 c 0,-0.140625 0,-0.3164063 -0.1992187,-0.3164063 -0.1875,0 -0.1875,0.1875 -0.1875,0.3164063 v 2.5664062 H 6.4493906 c -0.1171875,0 -0.3046875,0 -0.3046875,0.1875 0,0.1992188 0.1640625,0.1992188 0.3046875,0.1992188 h 2.5664063 v 2.56640623 c 0,0.140625 0,0.3046875 0.1992187,0.3046875 0.1875,0 0.1875,-0.1875 0.1875,-0.3046875 V -2.0520156 Z m 0,0"
       style="fill:#000000;fill-opacity:1;fill-rule:nonzero;stroke:none"
       aria-label=")+"
       transform="matrix(1.3333333,0,0,1.3333333,530.268,155.18133)" />
    <path
       id="path33"
       d="M 3.2098125,-2.1926406 4.2996562,-3.3762344 C 4.405125,-3.4817031 4.4637187,-3.5402969 5.1785625,-3.5402969 v -0.4453125 c -0.3046875,0.035156 -0.5390625,0.035156 -0.8320313,0.035156 -0.1640625,0 -0.515625,0 -0.9140625,-0.035156 v 0.4453125 c 0.1992188,0 0.2460938,0.035156 0.3046875,0.09375 L 2.905125,-2.5324844 2.0145,-3.5402969 h 0.328125 v -0.4453125 c -0.5390625,0.023437 -0.7734375,0.035156 -1.078125,0.035156 -0.1757813,0 -0.52734375,0 -0.984375,-0.035156 v 0.4453125 H 0.90121875 L 2.3309062,-1.9231094 1.123875,-0.61060937 C 0.9598125,-0.43482812 0.64340625,-0.43482812 0.23325,-0.43482812 v 0.43359375 c 0.3046875,-0.0234375 0.5390625,-0.0234375 0.8320312,-0.0234375 0.1640625,0 0.515625,0 0.9140625,0.0234375 v -0.43359375 c -0.1289062,0 -0.28125,-0.046875 -0.28125,-0.10546875 0,-0.0351563 0.046875,-0.09375 0.058594,-0.09375 l 0.878906,-0.94921873 0.9960938,1.14843748 H 3.3152812 v 0.43359375 c 0.5625,-0.0234375 0.7734375,-0.0234375 1.0664063,-0.0234375 0.2109375,0 0.5390625,0 0.9960937,0.0234375 V -0.43482812 H 4.7449687 Z m 0,0"
       style="fill:#000000;fill-opacity:1;fill-rule:nonzero;stroke:none"
       aria-label="x"
       transform="matrix(1.3333333,0,0,1.3333333,550.064,155.18133)" />
    <path
       id="path34"
       d="m 7.6053047,-5.7772891 c 0,-0.3046875 -0.3398438,-0.3398437 -0.7148438,-0.3398437 H 3.3045234 c -0.1523437,0 -0.8671875,-0.082031 -1.4765625,0.5273437 -0.058594,0.058594 -0.1171875,0.140625 -0.1171875,0.2226563 0,0.023437 0.023437,0.046875 0.070312,0.046875 0.2578125,0 0.5390625,-0.2109375 0.6445313,-0.2929688 0.1054687,-0.011719 0.375,-0.011719 0.6445312,-0.011719 h 0.7617188 c -0.2226563,1.1484375 -0.5976563,2.4023437 -1.1132813,3.6210937 -0.2578125,0.609375 -0.7148437,1.60546879 -0.8671875,1.79296879 -0.6210937,0 -0.796875,-0.421875 -0.91406246,-0.609375 -0.0117188,-0.0351563 -0.046875,-0.046875 -0.0820313,-0.046875 -0.19921875,0 -0.703125,0.28125 -0.703125,0.43359375 0,0.046875 0.046875,0.1171875 0.0585938,0.15234375 0.1875,0.36328125 0.5859375,0.5625 0.99609376,0.5625 0.5273437,0 0.9960937,-0.3046875 1.359375,-0.71484375 0.1757812,-0.2109375 0.9140625,-1.78125004 1.078125,-2.28515624 h 1.78125 c 0,0.09375 0.011719,0.082031 0.082031,0.082031 0.2226563,0 0.5976563,-0.234375 0.6679688,-0.3867187 0.023437,-0.035156 0.046875,-0.09375 0.046875,-0.140625 0,-0.035156 -0.011719,-0.058594 -0.1523438,-0.058594 H 3.8318672 c 0.1875,-0.4570312 0.609375,-1.96875 0.703125,-2.4023437 h 1.7929687 c 0.1523438,0 0.4921875,0.023437 0.4921875,0.234375 0,0.082031 -0.035156,0.1289062 0.09375,0.1289062 0.09375,0 0.6914063,-0.2109375 0.6914063,-0.5156243 z m 0,0"
       style="fill:#000000;fill-opacity:1;fill-rule:nonzero;stroke:none"
       aria-label="F"
       transform="matrix(1.3333333,0,0,1.3333333,251.676,92.941333)" />
    <path
       id="path35"
       d="M 3.0595,2.1328672 C 3.0595,2.0859922 3.036063,2.0625552 2.977469,2.0039609 1.8173125,0.93755469 1.46575,-0.66791406 1.46575,-2.2382266 c 0,-1.3945312 0.2695313,-3.0820312 1.5351563,-4.2773437 0.035156,-0.035156 0.058594,-0.070312 0.058594,-0.1054688 0,-0.070312 -0.046875,-0.1054687 -0.1054687,-0.1054687 -0.1054688,0 -0.9140625,0.6445312 -1.40625,1.6289062 -0.421875,0.8554688 -0.6445313,1.78125 -0.6445313,2.8476563 0,0.6445312 0.0820313,1.66406249 0.5742188,2.73046874 0.5273437,1.10156246 1.3710937,1.74609376 1.4765625,1.74609376 0.058594,0 0.1054687,-0.035156 0.1054684,-0.09375 z m 0,0"
       style="fill:#000000;fill-opacity:1;fill-rule:nonzero;stroke:none"
       aria-label="("
       transform="matrix(1.3333333,0,0,1.3333333,261.67067,92.941333)" />
    <path
       id="path36"
       d="m 3.2108516,-2.1913516 1.0898437,-1.1835937 c 0.1054688,-0.1054688 0.1640625,-0.1640625 0.8789063,-0.1640625 v -0.4453125 c -0.3046875,0.035156 -0.5390625,0.035156 -0.8320313,0.035156 -0.1640625,0 -0.515625,0 -0.9140625,-0.035156 v 0.4453125 c 0.1992188,0 0.2460938,0.035156 0.3046875,0.09375 l -0.8320312,0.9140625 -0.890625,-1.0078125 h 0.328125 v -0.4453125 c -0.5390625,0.023437 -0.7734375,0.035156 -1.078125,0.035156 -0.1757813,0 -0.52734379,0 -0.98437504,-0.035156 v 0.4453125 H 0.90225781 L 2.3319453,-1.9218203 1.1249141,-0.60932031 C 0.96085156,-0.43353906 0.64444531,-0.43353906 0.23428906,-0.43353906 V 5.46875e-5 C 0.53897656,-0.02338281 0.77335156,-0.02338281 1.0663203,-0.02338281 c 0.1640625,0 0.515625,0 0.9140625,0.0234374975 V -0.43353906 c -0.1289062,0 -0.28125,-0.046875 -0.28125,-0.10546875 0,-0.0351563 0.046875,-0.09375 0.058594,-0.09375 l 0.878906,-0.94921879 0.9960938,1.14843754 H 3.3163203 V 5.46875e-5 C 3.8788203,-0.02338281 4.0897578,-0.02338281 4.3827266,-0.02338281 c 0.2109375,0 0.5390625,0 0.9960937,0.0234374975 V -0.43353906 H 4.7460078 Z m 0,0"
       style="fill:#000000;fill-opacity:1;fill-rule:nonzero;stroke:none"
       aria-label="x"
       transform="matrix(1.3333333,0,0,1.3333333,266.44933,92.941333)" />
    <path
       id="path37"
       d="m 2.6714219,-2.2499453 c 0,-0.7382813 -0.1054688,-1.7226563 -0.5742188,-2.71875 -0.5273437,-1.1015625 -1.35937498,-1.7578125 -1.46484373,-1.7578125 -0.09375,0 -0.1171875,0.070312 -0.1171875,0.1054687 0,0.035156 0.0234375,0.070312 0.0820313,0.1289063 0.52734373,0.46875 1.51171883,1.6875 1.51171883,4.2421875 0,1.27734374 -0.2343751,3.07031249 -1.53515633,4.2773437 -0.0234375,0.023437 -0.0585938,0.058594 -0.0585938,0.1054688 0,0.023437 0.0234375,0.09375 0.1171875,0.09375 0.10546875,0 0.91406253,-0.6445313 1.39453123,-1.61718751 0.4335938,-0.85546875 0.6445313,-1.78124999 0.6445313,-2.85937499 z m 0,0"
       style="fill:#000000;fill-opacity:1;fill-rule:nonzero;stroke:none"
       aria-label=")"
       transform="matrix(1.3333333,0,0,1.3333333,273.91467,92.941333)" />
  </g>
</svg>
