<?xml version="1.0" encoding="utf-8" standalone="no"?>
<!DOCTYPE svg PUBLIC "-//W3C//DTD SVG 1.1//EN"
  "http://www.w3.org/Graphics/SVG/1.1/DTD/svg11.dtd">
<svg xmlns:xlink="http://www.w3.org/1999/xlink" width="68.724pt" height="42.7968pt" viewBox="0 0 68.724 42.7968" xmlns="http://www.w3.org/2000/svg" version="1.1">
 <metadata>
  <rdf:RDF xmlns:dc="http://purl.org/dc/elements/1.1/" xmlns:cc="http://creativecommons.org/ns#" xmlns:rdf="http://www.w3.org/1999/02/22-rdf-syntax-ns#">
   <cc:Work>
    <dc:type rdf:resource="http://purl.org/dc/dcmitype/StillImage"/>
    <dc:format>image/svg+xml</dc:format>
    <dc:creator>
     <cc:Agent>
      <dc:title>Matplotlib v3.10.8, https://matplotlib.org/</dc:title>
     </cc:Agent>
    </dc:creator>
   </cc:Work>
  </rdf:RDF>
 </metadata>
 <defs>
  <style type="text/css">*{stroke-linejoin: round; stroke-linecap: butt}</style>
 </defs>
 <g id="figure_1">
  <g id="patch_1">
   <path d="M 0 42.7968
L 68.724 42.7968
L 68.724 0
L 0 0
z
" style="fill: #ffffff"/>
  </g>
  <g id="axes_1">
   <g id="patch_2">
    <path d="M 1.44 41.3568
L 67.284 41.3568
L 67.284 1.44
L 1.44 1.44
z
" style="fill: #ffffff"/>
   </g>
   <g id="FillBetweenPolyCollection_1">
    <defs>
     <path id="m95b1044a8f" d="M 5.39064 -6.230016
L 5.39064 -6.230016
L 5.877554 -6.34929
L 6.364467 -6.460437
L 6.851381 -6.568711
L 7.338294 -6.675161
L 7.825208 -6.780273
L 8.312122 -6.884332
L 8.799035 -6.987524
L 9.285949 -7.089979
L 9.772863 -7.191793
L 10.259776 -7.293043
L 10.74669 -7.393786
L 11.233603 -7.494072
L 11.720517 -7.59394
L 12.207431 -7.693425
L 12.694344 -7.792555
L 13.181258 -7.891354
L 13.668171 -7.989846
L 14.155085 -8.088047
L 14.641999 -8.185976
L 15.128912 -8.283648
L 15.615826 -8.381076
L 16.102739 -8.478272
L 16.589653 -8.575247
L 17.076567 -8.672011
L 17.56348 -8.768574
L 18.050394 -8.864944
L 18.537308 -8.961129
L 19.024221 -9.057136
L 19.511135 -9.152972
L 19.998048 -9.248642
L 20.484962 -9.344153
L 20.971876 -9.43951
L 21.458789 -9.534719
L 21.945703 -9.629783
L 22.432616 -9.724707
L 22.91953 -9.819496
L 23.406444 -9.914153
L 23.893357 -10.008682
L 24.380271 -10.103087
L 24.867185 -10.197372
L 25.354098 -10.291538
L 25.841012 -10.385589
L 26.327925 -10.479529
L 26.814839 -10.57336
L 27.301753 -10.667083
L 27.788666 -10.760703
L 28.27558 -10.854221
L 28.762493 -10.94764
L 29.249407 -11.040961
L 29.736321 -11.134187
L 30.223234 -11.22732
L 30.710148 -11.320362
L 31.197062 -11.413314
L 31.683975 -11.506179
L 32.170889 -11.598958
L 32.657802 -11.691652
L 33.144716 -11.784264
L 33.63163 -11.876794
L 34.118543 -11.969245
L 34.605457 -12.061617
L 35.09237 -12.153913
L 35.579284 -12.246133
L 36.066198 -12.338278
L 36.553111 -12.43035
L 37.040025 -12.522351
L 37.526938 -12.614281
L 38.013852 -12.706141
L 38.500766 -12.797932
L 38.987679 -12.889656
L 39.474593 -12.981314
L 39.961507 -13.072906
L 40.44842 -13.164434
L 40.935334 -13.255898
L 41.422247 -13.3473
L 41.909161 -13.438639
L 42.396075 -13.529918
L 42.882988 -13.621137
L 43.369902 -13.712297
L 43.856815 -13.803398
L 44.343729 -13.894442
L 44.830643 -13.985429
L 45.317556 -14.076359
L 45.80447 -14.167234
L 46.291384 -14.258055
L 46.778297 -14.348821
L 47.265211 -14.439534
L 47.752124 -14.530194
L 48.239038 -14.620803
L 48.725952 -14.711359
L 49.212865 -14.801865
L 49.699779 -14.892321
L 50.186692 -14.982727
L 50.673606 -15.073083
L 51.16052 -15.163392
L 51.647433 -15.253652
L 52.134347 -15.343865
L 52.621261 -15.43403
L 53.108174 -15.52415
L 53.595088 -15.614223
L 54.082001 -15.704251
L 54.568915 -15.794233
L 55.055829 -15.884172
L 55.542742 -15.974066
L 56.029656 -16.063916
L 56.516569 -16.153724
L 57.003483 -16.243488
L 57.490397 -16.333211
L 57.97731 -16.422891
L 58.464224 -16.51253
L 58.951137 -16.602128
L 59.438051 -16.691685
L 59.924965 -16.781201
L 60.411878 -16.870678
L 60.898792 -16.960115
L 61.385706 -17.049513
L 61.872619 -17.138872
L 62.359533 -17.228193
L 62.846446 -17.317475
L 63.33336 -17.40672
L 63.33336 -35.768448
L 63.33336 -35.768448
L 62.846446 -35.475768
L 62.359533 -35.183534
L 61.872619 -34.891749
L 61.385706 -34.600417
L 60.898792 -34.30954
L 60.411878 -34.019123
L 59.924965 -33.729167
L 59.438051 -33.439677
L 58.951137 -33.150657
L 58.464224 -32.862109
L 57.97731 -32.574036
L 57.490397 -32.286444
L 57.003483 -31.999335
L 56.516569 -31.712713
L 56.029656 -31.426582
L 55.542742 -31.140946
L 55.055829 -30.855809
L 54.568915 -30.571175
L 54.082001 -30.287047
L 53.595088 -30.00343
L 53.108174 -29.720328
L 52.621261 -29.437746
L 52.134347 -29.155688
L 51.647433 -28.874158
L 51.16052 -28.593162
L 50.673606 -28.312702
L 50.186692 -28.032785
L 49.699779 -27.753415
L 49.212865 -27.474598
L 48.725952 -27.196337
L 48.239038 -26.918639
L 47.752124 -26.641508
L 47.265211 -26.364949
L 46.778297 -26.088969
L 46.291384 -25.813573
L 45.80447 -25.538767
L 45.317556 -25.264555
L 44.830643 -24.990945
L 44.343729 -24.717943
L 43.856815 -24.445554
L 43.369902 -24.173784
L 42.882988 -23.902642
L 42.396075 -23.632132
L 41.909161 -23.362262
L 41.422247 -23.09304
L 40.935334 -22.824471
L 40.44842 -22.556564
L 39.961507 -22.289326
L 39.474593 -22.022764
L 38.987679 -21.756887
L 38.500766 -21.491703
L 38.013852 -21.22722
L 37.526938 -20.963446
L 37.040025 -20.700391
L 36.553111 -20.438063
L 36.066198 -20.176472
L 35.579284 -19.915628
L 35.09237 -19.655539
L 34.605457 -19.396218
L 34.118543 -19.137672
L 33.63163 -18.879915
L 33.144716 -18.622956
L 32.657802 -18.366808
L 32.170889 -18.111481
L 31.683975 -17.856989
L 31.197062 -17.603344
L 30.710148 -17.350558
L 30.223234 -17.098647
L 29.736321 -16.847623
L 29.249407 -16.597501
L 28.762493 -16.348296
L 28.27558 -16.100024
L 27.788666 -15.852701
L 27.301753 -15.606344
L 26.814839 -15.360971
L 26.327925 -15.116599
L 25.841012 -14.873248
L 25.354098 -14.630938
L 24.867185 -14.38969
L 24.380271 -14.149525
L 23.893357 -13.910466
L 23.406444 -13.672537
L 22.91953 -13.435762
L 22.432616 -13.200169
L 21.945703 -12.965784
L 21.458789 -12.732637
L 20.971876 -12.500759
L 20.484962 -12.270181
L 19.998048 -12.040939
L 19.511135 -11.813068
L 19.024221 -11.586607
L 18.537308 -11.361598
L 18.050394 -11.138084
L 17.56348 -10.916113
L 17.076567 -10.695734
L 16.589653 -10.477002
L 16.102739 -10.259976
L 15.615826 -10.04472
L 15.128912 -9.8313
L 14.641999 -9.619794
L 14.155085 -9.410283
L 13.668171 -9.202857
L 13.181258 -8.997618
L 12.694344 -8.794675
L 12.207431 -8.594156
L 11.720517 -8.396199
L 11.233603 -8.200967
L 10.74669 -8.008645
L 10.259776 -7.819448
L 9.772863 -7.633632
L 9.285949 -7.451501
L 8.799035 -7.273433
L 8.312122 -7.099898
L 7.825208 -6.931514
L 7.338294 -6.76912
L 6.851381 -6.61394
L 6.364467 -6.46795
L 5.877554 -6.335029
L 5.39064 -6.230016
z
" style="stroke: #f2d7d5; stroke-opacity: 0.28"/>
    </defs>
    <g clip-path="url(#p9173796fe7)">
     <use xlink:href="#m95b1044a8f" x="0" y="42.7968" style="fill: #f2d7d5; fill-opacity: 0.28; stroke: #f2d7d5; stroke-opacity: 0.28"/>
    </g>
   </g>
   <g id="matplotlib.axis_1"/>
   <g id="matplotlib.axis_2"/>
   <g id="line2d_1">
    <path d="M 5.39064 36.566784
L 5.877554 36.461771
L 6.364467 36.32885
L 6.851381 36.18286
L 7.338294 36.02768
L 7.825208 35.865286
L 8.312122 35.696902
L 8.799035 35.523367
L 9.285949 35.345299
L 9.772863 35.163168
L 10.259776 34.977352
L 10.74669 34.788155
L 11.233603 34.595833
L 11.720517 34.400601
L 12.207431 34.202644
L 12.694344 34.002125
L 13.181258 33.799182
L 13.668171 33.593943
L 14.155085 33.386517
L 14.641999 33.177006
L 15.128912 32.9655
L 15.615826 32.75208
L 16.102739 32.536824
L 16.589653 32.319798
L 17.076567 32.101066
L 17.56348 31.880687
L 18.050394 31.658716
L 18.537308 31.435202
L 19.024221 31.210193
L 19.511135 30.983732
L 19.998048 30.755861
L 20.484962 30.526619
L 20.971876 30.296041
L 21.458789 30.064163
L 21.945703 29.831016
L 22.432616 29.596631
L 22.91953 29.361038
L 23.406444 29.124263
L 23.893357 28.886334
L 24.380271 28.647275
L 24.867185 28.40711
L 25.354098 28.165862
L 25.841012 27.923552
L 26.327925 27.680201
L 26.814839 27.435829
L 27.301753 27.190456
L 27.788666 26.944099
L 28.27558 26.696776
L 28.762493 26.448504
L 29.249407 26.199299
L 29.736321 25.949177
L 30.223234 25.698153
L 30.710148 25.446242
L 31.197062 25.193456
L 31.683975 24.939811
L 32.170889 24.685319
L 32.657802 24.429992
L 33.144716 24.173844
L 33.63163 23.916885
L 34.118543 23.659128
L 34.605457 23.400582
L 35.09237 23.141261
L 35.579284 22.881172
L 36.066198 22.620328
L 36.553111 22.358737
L 37.040025 22.096409
L 37.526938 21.833354
L 38.013852 21.56958
L 38.500766 21.305097
L 38.987679 21.039913
L 39.474593 20.774036
L 39.961507 20.507474
L 40.44842 20.240236
L 40.935334 19.972329
L 41.422247 19.70376
L 41.909161 19.434538
L 42.396075 19.164668
L 42.882988 18.894158
L 43.369902 18.623016
L 43.856815 18.351246
L 44.343729 18.078857
L 44.830643 17.805855
L 45.317556 17.532245
L 45.80447 17.258033
L 46.291384 16.983227
L 46.778297 16.707831
L 47.265211 16.431851
L 47.752124 16.155292
L 48.239038 15.878161
L 48.725952 15.600463
L 49.212865 15.322202
L 49.699779 15.043385
L 50.186692 14.764015
L 50.673606 14.484098
L 51.16052 14.203638
L 51.647433 13.922642
L 52.134347 13.641112
L 52.621261 13.359054
L 53.108174 13.076472
L 53.595088 12.79337
L 54.082001 12.509753
L 54.568915 12.225625
L 55.055829 11.940991
L 55.542742 11.655854
L 56.029656 11.370218
L 56.516569 11.084087
L 57.003483 10.797465
L 57.490397 10.510356
L 57.97731 10.222764
L 58.464224 9.934691
L 58.951137 9.646143
L 59.438051 9.357123
L 59.924965 9.067633
L 60.411878 8.777677
L 60.898792 8.48726
L 61.385706 8.196383
L 61.872619 7.905051
L 62.359533 7.613266
L 62.846446 7.321032
L 63.33336 7.028352
" clip-path="url(#p9173796fe7)" style="fill: none; stroke: #e67817; stroke-width: 1.45; stroke-linecap: square"/>
   </g>
   <g id="line2d_2">
    <path d="M 5.39064 36.566784
L 5.877554 36.44751
L 6.364467 36.336363
L 6.851381 36.228089
L 7.338294 36.121639
L 7.825208 36.016527
L 8.312122 35.912468
L 8.799035 35.809276
L 9.285949 35.706821
L 9.772863 35.605007
L 10.259776 35.503757
L 10.74669 35.403014
L 11.233603 35.302728
L 11.720517 35.20286
L 12.207431 35.103375
L 12.694344 35.004245
L 13.181258 34.905446
L 13.668171 34.806954
L 14.155085 34.708753
L 14.641999 34.610824
L 15.128912 34.513152
L 15.615826 34.415724
L 16.102739 34.318528
L 16.589653 34.221553
L 17.076567 34.124789
L 17.56348 34.028226
L 18.050394 33.931856
L 18.537308 33.835671
L 19.024221 33.739664
L 19.511135 33.643828
L 19.998048 33.548158
L 20.484962 33.452647
L 20.971876 33.35729
L 21.458789 33.262081
L 21.945703 33.167017
L 22.432616 33.072093
L 22.91953 32.977304
L 23.406444 32.882647
L 23.893357 32.788118
L 24.380271 32.693713
L 24.867185 32.599428
L 25.354098 32.505262
L 25.841012 32.411211
L 26.327925 32.317271
L 26.814839 32.22344
L 27.301753 32.129717
L 27.788666 32.036097
L 28.27558 31.942579
L 28.762493 31.84916
L 29.249407 31.755839
L 29.736321 31.662613
L 30.223234 31.56948
L 30.710148 31.476438
L 31.197062 31.383486
L 31.683975 31.290621
L 32.170889 31.197842
L 32.657802 31.105148
L 33.144716 31.012536
L 33.63163 30.920006
L 34.118543 30.827555
L 34.605457 30.735183
L 35.09237 30.642887
L 35.579284 30.550667
L 36.066198 30.458522
L 36.553111 30.36645
L 37.040025 30.274449
L 37.526938 30.182519
L 38.013852 30.090659
L 38.500766 29.998868
L 38.987679 29.907144
L 39.474593 29.815486
L 39.961507 29.723894
L 40.44842 29.632366
L 40.935334 29.540902
L 41.422247 29.4495
L 41.909161 29.358161
L 42.396075 29.266882
L 42.882988 29.175663
L 43.369902 29.084503
L 43.856815 28.993402
L 44.343729 28.902358
L 44.830643 28.811371
L 45.317556 28.720441
L 45.80447 28.629566
L 46.291384 28.538745
L 46.778297 28.447979
L 47.265211 28.357266
L 47.752124 28.266606
L 48.239038 28.175997
L 48.725952 28.085441
L 49.212865 27.994935
L 49.699779 27.904479
L 50.186692 27.814073
L 50.673606 27.723717
L 51.16052 27.633408
L 51.647433 27.543148
L 52.134347 27.452935
L 52.621261 27.36277
L 53.108174 27.27265
L 53.595088 27.182577
L 54.082001 27.092549
L 54.568915 27.002567
L 55.055829 26.912628
L 55.542742 26.822734
L 56.029656 26.732884
L 56.516569 26.643076
L 57.003483 26.553312
L 57.490397 26.463589
L 57.97731 26.373909
L 58.464224 26.28427
L 58.951137 26.194672
L 59.438051 26.105115
L 59.924965 26.015599
L 60.411878 25.926122
L 60.898792 25.836685
L 61.385706 25.747287
L 61.872619 25.657928
L 62.359533 25.568607
L 62.846446 25.479325
L 63.33336 25.39008
" clip-path="url(#p9173796fe7)" style="fill: none; stroke: #008f45; stroke-width: 1.45; stroke-linecap: square"/>
   </g>
   <g id="text_1">
    <g id="patch_3">
     <path d="M 39.176623 12.374114
L 57.201857 12.374114
Q 57.577857 12.374114 57.577857 11.998114
L 57.577857 7.646942
Q 57.577857 7.270942 57.201857 7.270942
L 39.176623 7.270942
Q 38.800623 7.270942 38.800623 7.646942
L 38.800623 11.998114
Q 38.800623 12.374114 39.176623 12.374114
z
" style="fill: #ffffff; opacity: 0.92"/>
    </g>
    <!-- compute -->
    <g style="fill: #e67817" transform="translate(39.176623 11.018458) scale(0.047 -0.047)">
     <defs>
      <path id="Helvetica-63" d="M 1703 3444
Q 2269 3444 2623 3169
Q 2978 2894 3050 2222
L 2503 2222
Q 2453 2531 2275 2736
Q 2097 2941 1703 2941
Q 1166 2941 934 2416
Q 784 2075 784 1575
Q 784 1072 996 728
Q 1209 384 1666 384
Q 2016 384 2220 598
Q 2425 813 2503 1184
L 3050 1184
Q 2956 519 2581 211
Q 2206 -97 1622 -97
Q 966 -97 575 383
Q 184 863 184 1581
Q 184 2463 612 2953
Q 1041 3444 1703 3444
z
M 1616 3428
L 1616 3428
z
" transform="scale(0.015625)"/>
      <path id="Helvetica-6f" d="M 1741 363
Q 2300 363 2508 786
Q 2716 1209 2716 1728
Q 2716 2197 2566 2491
Q 2328 2953 1747 2953
Q 1231 2953 997 2559
Q 763 2166 763 1609
Q 763 1075 997 719
Q 1231 363 1741 363
z
M 1763 3444
Q 2409 3444 2856 3012
Q 3303 2581 3303 1744
Q 3303 934 2909 406
Q 2516 -122 1688 -122
Q 997 -122 590 345
Q 184 813 184 1600
Q 184 2444 612 2944
Q 1041 3444 1763 3444
z
M 1744 3428
L 1744 3428
z
" transform="scale(0.015625)"/>
      <path id="Helvetica-6d" d="M 413 3347
L 969 3347
L 969 2872
Q 1169 3119 1331 3231
Q 1609 3422 1963 3422
Q 2363 3422 2606 3225
Q 2744 3113 2856 2894
Q 3044 3163 3297 3292
Q 3550 3422 3866 3422
Q 4541 3422 4784 2934
Q 4916 2672 4916 2228
L 4916 0
L 4331 0
L 4331 2325
Q 4331 2659 4164 2784
Q 3997 2909 3756 2909
Q 3425 2909 3186 2687
Q 2947 2466 2947 1947
L 2947 0
L 2375 0
L 2375 2184
Q 2375 2525 2294 2681
Q 2166 2916 1816 2916
Q 1497 2916 1236 2669
Q 975 2422 975 1775
L 975 0
L 413 0
L 413 3347
z
" transform="scale(0.015625)"/>
      <path id="Helvetica-70" d="M 1825 378
Q 2219 378 2480 708
Q 2741 1038 2741 1694
Q 2741 2094 2625 2381
Q 2406 2934 1825 2934
Q 1241 2934 1025 2350
Q 909 2038 909 1556
Q 909 1169 1025 897
Q 1244 378 1825 378
z
M 369 3331
L 916 3331
L 916 2888
Q 1084 3116 1284 3241
Q 1569 3428 1953 3428
Q 2522 3428 2919 2992
Q 3316 2556 3316 1747
Q 3316 653 2744 184
Q 2381 -113 1900 -113
Q 1522 -113 1266 53
Q 1116 147 931 375
L 931 -1334
L 369 -1334
L 369 3331
z
" transform="scale(0.015625)"/>
      <path id="Helvetica-75" d="M 975 3347
L 975 1125
Q 975 869 1056 706
Q 1206 406 1616 406
Q 2203 406 2416 931
Q 2531 1213 2531 1703
L 2531 3347
L 3094 3347
L 3094 0
L 2563 0
L 2569 494
Q 2459 303 2297 172
Q 1975 -91 1516 -91
Q 800 -91 541 388
Q 400 644 400 1072
L 400 3347
L 975 3347
z
M 1747 3428
L 1747 3428
z
" transform="scale(0.015625)"/>
      <path id="Helvetica-74" d="M 525 4281
L 1094 4281
L 1094 3347
L 1628 3347
L 1628 2888
L 1094 2888
L 1094 703
Q 1094 528 1213 469
Q 1278 434 1431 434
Q 1472 434 1519 436
Q 1566 438 1628 444
L 1628 0
Q 1531 -28 1426 -40
Q 1322 -53 1200 -53
Q 806 -53 665 148
Q 525 350 525 672
L 525 2888
L 72 2888
L 72 3347
L 525 3347
L 525 4281
z
" transform="scale(0.015625)"/>
      <path id="Helvetica-65" d="M 1806 3422
Q 2163 3422 2497 3255
Q 2831 3088 3006 2822
Q 3175 2569 3231 2231
Q 3281 2000 3281 1494
L 828 1494
Q 844 984 1069 676
Q 1294 369 1766 369
Q 2206 369 2469 659
Q 2619 828 2681 1050
L 3234 1050
Q 3213 866 3089 639
Q 2966 413 2813 269
Q 2556 19 2178 -69
Q 1975 -119 1719 -119
Q 1094 -119 659 336
Q 225 791 225 1609
Q 225 2416 662 2919
Q 1100 3422 1806 3422
z
M 2703 1941
Q 2669 2306 2544 2525
Q 2313 2931 1772 2931
Q 1384 2931 1121 2651
Q 859 2372 844 1941
L 2703 1941
z
M 1753 3428
L 1753 3428
z
" transform="scale(0.015625)"/>
     </defs>
     <use xlink:href="#Helvetica-63"/>
     <use xlink:href="#Helvetica-6f" transform="translate(50 0)"/>
     <use xlink:href="#Helvetica-6d" transform="translate(105.615234 0)"/>
     <use xlink:href="#Helvetica-70" transform="translate(188.916016 0)"/>
     <use xlink:href="#Helvetica-75" transform="translate(244.53125 0)"/>
     <use xlink:href="#Helvetica-74" transform="translate(300.146484 0)"/>
     <use xlink:href="#Helvetica-65" transform="translate(327.929688 0)"/>
    </g>
   </g>
   <g id="text_2">
    <g id="patch_4">
     <path d="M 48.225 28.340834
L 57.37164 28.340834
Q 57.74764 28.340834 57.74764 27.964834
L 57.74764 23.613662
Q 57.74764 23.237662 57.37164 23.237662
L 48.225 23.237662
Q 47.849 23.237662 47.849 23.613662
L 47.849 27.964834
Q 47.849 28.340834 48.225 28.340834
z
" style="fill: #ffffff; opacity: 0.92"/>
    </g>
    <!-- data -->
    <g style="fill: #008f45" transform="translate(48.225 26.985178) scale(0.047 -0.047)">
     <defs>
      <path id="Helvetica-64" d="M 769 1634
Q 769 1097 997 734
Q 1225 372 1728 372
Q 2119 372 2370 708
Q 2622 1044 2622 1672
Q 2622 2306 2362 2611
Q 2103 2916 1722 2916
Q 1297 2916 1033 2591
Q 769 2266 769 1634
z
M 1616 3406
Q 2000 3406 2259 3244
Q 2409 3150 2600 2916
L 2600 4606
L 3141 4606
L 3141 0
L 2634 0
L 2634 466
Q 2438 156 2169 18
Q 1900 -119 1553 -119
Q 994 -119 584 351
Q 175 822 175 1603
Q 175 2334 548 2870
Q 922 3406 1616 3406
z
" transform="scale(0.015625)"/>
      <path id="Helvetica-61" d="M 844 891
Q 844 647 1022 506
Q 1200 366 1444 366
Q 1741 366 2019 503
Q 2488 731 2488 1250
L 2488 1703
Q 2384 1638 2221 1594
Q 2059 1550 1903 1531
L 1563 1488
Q 1256 1447 1103 1359
Q 844 1213 844 891
z
M 2206 2028
Q 2400 2053 2466 2191
Q 2503 2266 2503 2406
Q 2503 2694 2298 2823
Q 2094 2953 1713 2953
Q 1272 2953 1088 2716
Q 984 2584 953 2325
L 428 2325
Q 444 2944 830 3186
Q 1216 3428 1725 3428
Q 2316 3428 2684 3203
Q 3050 2978 3050 2503
L 3050 575
Q 3050 488 3086 434
Q 3122 381 3238 381
Q 3275 381 3322 386
Q 3369 391 3422 400
L 3422 -16
Q 3291 -53 3222 -62
Q 3153 -72 3034 -72
Q 2744 -72 2613 134
Q 2544 244 2516 444
Q 2344 219 2022 53
Q 1700 -113 1313 -113
Q 847 -113 551 170
Q 256 453 256 878
Q 256 1344 547 1600
Q 838 1856 1309 1916
L 2206 2028
z
M 1741 3428
L 1741 3428
z
" transform="scale(0.015625)"/>
     </defs>
     <use xlink:href="#Helvetica-64"/>
     <use xlink:href="#Helvetica-61" transform="translate(55.615234 0)"/>
     <use xlink:href="#Helvetica-74" transform="translate(111.230469 0)"/>
     <use xlink:href="#Helvetica-61" transform="translate(139.013672 0)"/>
    </g>
   </g>
   <g id="text_3">
    <g id="patch_5">
     <path d="M 27.149339 22.353314
L 34.990261 22.353314
Q 35.366261 22.353314 35.366261 21.977314
L 35.366261 17.626142
Q 35.366261 17.250142 34.990261 17.250142
L 27.149339 17.250142
Q 26.773339 17.250142 26.773339 17.626142
L 26.773339 21.977314
Q 26.773339 22.353314 27.149339 22.353314
z
" style="fill: #ffffff; opacity: 0.92"/>
    </g>
    <!-- gap -->
    <g style="fill: #cb202d" transform="translate(27.149339 20.937439) scale(0.047 -0.047)">
     <defs>
      <path id="Helvetica-67" d="M 1594 3406
Q 1988 3406 2281 3213
Q 2441 3103 2606 2894
L 2606 3316
L 3125 3316
L 3125 272
Q 3125 -366 2938 -734
Q 2588 -1416 1616 -1416
Q 1075 -1416 706 -1173
Q 338 -931 294 -416
L 866 -416
Q 906 -641 1028 -763
Q 1219 -950 1628 -950
Q 2275 -950 2475 -494
Q 2594 -225 2584 466
Q 2416 209 2178 84
Q 1941 -41 1550 -41
Q 1006 -41 598 345
Q 191 731 191 1622
Q 191 2463 602 2934
Q 1013 3406 1594 3406
z
M 2606 1688
Q 2606 2309 2350 2609
Q 2094 2909 1697 2909
Q 1103 2909 884 2353
Q 769 2056 769 1575
Q 769 1009 998 714
Q 1228 419 1616 419
Q 2222 419 2469 966
Q 2606 1275 2606 1688
z
M 1659 3428
L 1659 3428
z
" transform="scale(0.015625)"/>
     </defs>
     <use xlink:href="#Helvetica-67"/>
     <use xlink:href="#Helvetica-61" transform="translate(55.615234 0)"/>
     <use xlink:href="#Helvetica-70" transform="translate(111.230469 0)"/>
    </g>
   </g>
  </g>
 </g>
 <defs>
  <clipPath id="p9173796fe7">
   <rect x="1.44" y="1.44" width="65.844" height="39.9168"/>
  </clipPath>
 </defs>
</svg>
