<?xml version="1.0" encoding="utf-8" standalone="no"?>
<!DOCTYPE svg PUBLIC "-//W3C//DTD SVG 1.1//EN"
  "http://www.w3.org/Graphics/SVG/1.1/DTD/svg11.dtd">
<svg xmlns:xlink="http://www.w3.org/1999/xlink" width="68.724pt" height="42.7968pt" viewBox="0 0 68.724 42.7968" xmlns="http://www.w3.org/2000/svg" version="1.1">
 <metadata>
  <rdf:RDF xmlns:dc="http://purl.org/dc/elements/1.1/" xmlns:cc="http://creativecommons.org/ns#" xmlns:rdf="http://www.w3.org/1999/02/22-rdf-syntax-ns#">
   <cc:Work>
    <dc:type rdf:resource="http://purl.org/dc/dcmitype/StillImage"/>
    <dc:format>image/svg+xml</dc:format>
    <dc:creator>
     <cc:Agent>
      <dc:title>Matplotlib v3.10.8, https://matplotlib.org/</dc:title>
     </cc:Agent>
    </dc:creator>
   </cc:Work>
  </rdf:RDF>
 </metadata>
 <defs>
  <style type="text/css">*{stroke-linejoin: round; stroke-linecap: butt}</style>
 </defs>
 <g id="figure_1">
  <g id="patch_1">
   <path d="M 0 42.7968
L 68.724 42.7968
L 68.724 0
L 0 0
z
" style="fill: #ffffff"/>
  </g>
  <g id="axes_1">
   <g id="patch_2">
    <path d="M 1.44 41.3568
L 67.284 41.3568
L 67.284 1.44
L 1.44 1.44
z
" style="fill: #ffffff"/>
   </g>
   <g id="FillBetweenPolyCollection_1">
    <defs>
     <path id="m6236e1b0ed" d="M 1.44 -6.230016
L 1.44 -6.230016
L 1.993311 -6.34929
L 2.546622 -6.460437
L 3.099933 -6.568711
L 3.653244 -6.675161
L 4.206555 -6.780273
L 4.759866 -6.884332
L 5.313176 -6.987524
L 5.866487 -7.089979
L 6.419798 -7.191793
L 6.973109 -7.293043
L 7.52642 -7.393786
L 8.079731 -7.494072
L 8.633042 -7.59394
L 9.186353 -7.693425
L 9.739664 -7.792555
L 10.292975 -7.891354
L 10.846286 -7.989846
L 11.399597 -8.088047
L 11.952908 -8.185976
L 12.506218 -8.283648
L 13.059529 -8.381076
L 13.61284 -8.478272
L 14.166151 -8.575247
L 14.719462 -8.672011
L 15.272773 -8.768574
L 15.826084 -8.864944
L 16.379395 -8.961129
L 16.932706 -9.057136
L 17.486017 -9.152972
L 18.039328 -9.248642
L 18.592639 -9.344153
L 19.14595 -9.43951
L 19.699261 -9.534719
L 20.252571 -9.629783
L 20.805882 -9.724707
L 21.359193 -9.819496
L 21.912504 -9.914153
L 22.465815 -10.008682
L 23.019126 -10.103087
L 23.572437 -10.197372
L 24.125748 -10.291538
L 24.679059 -10.385589
L 25.23237 -10.479529
L 25.785681 -10.57336
L 26.338992 -10.667083
L 26.892303 -10.760703
L 27.445613 -10.854221
L 27.998924 -10.94764
L 28.552235 -11.040961
L 29.105546 -11.134187
L 29.658857 -11.22732
L 30.212168 -11.320362
L 30.765479 -11.413314
L 31.31879 -11.506179
L 31.872101 -11.598958
L 32.425412 -11.691652
L 32.978723 -11.784264
L 33.532034 -11.876794
L 34.085345 -11.969245
L 34.638655 -12.061617
L 35.191966 -12.153913
L 35.745277 -12.246133
L 36.298588 -12.338278
L 36.851899 -12.43035
L 37.40521 -12.522351
L 37.958521 -12.614281
L 38.511832 -12.706141
L 39.065143 -12.797932
L 39.618454 -12.889656
L 40.171765 -12.981314
L 40.725076 -13.072906
L 41.278387 -13.164434
L 41.831697 -13.255898
L 42.385008 -13.3473
L 42.938319 -13.438639
L 43.49163 -13.529918
L 44.044941 -13.621137
L 44.598252 -13.712297
L 45.151563 -13.803398
L 45.704874 -13.894442
L 46.258185 -13.985429
L 46.811496 -14.076359
L 47.364807 -14.167234
L 47.918118 -14.258055
L 48.471429 -14.348821
L 49.024739 -14.439534
L 49.57805 -14.530194
L 50.131361 -14.620803
L 50.684672 -14.711359
L 51.237983 -14.801865
L 51.791294 -14.892321
L 52.344605 -14.982727
L 52.897916 -15.073083
L 53.451227 -15.163392
L 54.004538 -15.253652
L 54.557849 -15.343865
L 55.11116 -15.43403
L 55.664471 -15.52415
L 56.217782 -15.614223
L 56.771092 -15.704251
L 57.324403 -15.794233
L 57.877714 -15.884172
L 58.431025 -15.974066
L 58.984336 -16.063916
L 59.537647 -16.153724
L 60.090958 -16.243488
L 60.644269 -16.333211
L 61.19758 -16.422891
L 61.750891 -16.51253
L 62.304202 -16.602128
L 62.857513 -16.691685
L 63.410824 -16.781201
L 63.964134 -16.870678
L 64.517445 -16.960115
L 65.070756 -17.049513
L 65.624067 -17.138872
L 66.177378 -17.228193
L 66.730689 -17.317475
L 67.284 -17.40672
L 67.284 -35.768448
L 67.284 -35.768448
L 66.730689 -35.475768
L 66.177378 -35.183534
L 65.624067 -34.891749
L 65.070756 -34.600417
L 64.517445 -34.30954
L 63.964134 -34.019123
L 63.410824 -33.729167
L 62.857513 -33.439677
L 62.304202 -33.150657
L 61.750891 -32.862109
L 61.19758 -32.574036
L 60.644269 -32.286444
L 60.090958 -31.999335
L 59.537647 -31.712713
L 58.984336 -31.426582
L 58.431025 -31.140946
L 57.877714 -30.855809
L 57.324403 -30.571175
L 56.771092 -30.287047
L 56.217782 -30.00343
L 55.664471 -29.720328
L 55.11116 -29.437746
L 54.557849 -29.155688
L 54.004538 -28.874158
L 53.451227 -28.593162
L 52.897916 -28.312702
L 52.344605 -28.032785
L 51.791294 -27.753415
L 51.237983 -27.474598
L 50.684672 -27.196337
L 50.131361 -26.918639
L 49.57805 -26.641508
L 49.024739 -26.364949
L 48.471429 -26.088969
L 47.918118 -25.813573
L 47.364807 -25.538767
L 46.811496 -25.264555
L 46.258185 -24.990945
L 45.704874 -24.717943
L 45.151563 -24.445554
L 44.598252 -24.173784
L 44.044941 -23.902642
L 43.49163 -23.632132
L 42.938319 -23.362262
L 42.385008 -23.09304
L 41.831697 -22.824471
L 41.278387 -22.556564
L 40.725076 -22.289326
L 40.171765 -22.022764
L 39.618454 -21.756887
L 39.065143 -21.491703
L 38.511832 -21.22722
L 37.958521 -20.963446
L 37.40521 -20.700391
L 36.851899 -20.438063
L 36.298588 -20.176472
L 35.745277 -19.915628
L 35.191966 -19.655539
L 34.638655 -19.396218
L 34.085345 -19.137672
L 33.532034 -18.879915
L 32.978723 -18.622956
L 32.425412 -18.366808
L 31.872101 -18.111481
L 31.31879 -17.856989
L 30.765479 -17.603344
L 30.212168 -17.350558
L 29.658857 -17.098647
L 29.105546 -16.847623
L 28.552235 -16.597501
L 27.998924 -16.348296
L 27.445613 -16.100024
L 26.892303 -15.852701
L 26.338992 -15.606344
L 25.785681 -15.360971
L 25.23237 -15.116599
L 24.679059 -14.873248
L 24.125748 -14.630938
L 23.572437 -14.38969
L 23.019126 -14.149525
L 22.465815 -13.910466
L 21.912504 -13.672537
L 21.359193 -13.435762
L 20.805882 -13.200169
L 20.252571 -12.965784
L 19.699261 -12.732637
L 19.14595 -12.500759
L 18.592639 -12.270181
L 18.039328 -12.040939
L 17.486017 -11.813068
L 16.932706 -11.586607
L 16.379395 -11.361598
L 15.826084 -11.138084
L 15.272773 -10.916113
L 14.719462 -10.695734
L 14.166151 -10.477002
L 13.61284 -10.259976
L 13.059529 -10.04472
L 12.506218 -9.8313
L 11.952908 -9.619794
L 11.399597 -9.410283
L 10.846286 -9.202857
L 10.292975 -8.997618
L 9.739664 -8.794675
L 9.186353 -8.594156
L 8.633042 -8.396199
L 8.079731 -8.200967
L 7.52642 -8.008645
L 6.973109 -7.819448
L 6.419798 -7.633632
L 5.866487 -7.451501
L 5.313176 -7.273433
L 4.759866 -7.099898
L 4.206555 -6.931514
L 3.653244 -6.76912
L 3.099933 -6.61394
L 2.546622 -6.46795
L 1.993311 -6.335029
L 1.44 -6.230016
z
" style="stroke: #f2d7d5; stroke-opacity: 0.28"/>
    </defs>
    <g clip-path="url(#p9173796fe7)">
     <use xlink:href="#m6236e1b0ed" x="0" y="42.7968" style="fill: #f2d7d5; fill-opacity: 0.28; stroke: #f2d7d5; stroke-opacity: 0.28"/>
    </g>
   </g>
   <g id="matplotlib.axis_1"/>
   <g id="matplotlib.axis_2"/>
   <g id="line2d_1">
    <path d="M 1.44 36.566784
L 1.993311 36.461771
L 2.546622 36.32885
L 3.099933 36.18286
L 3.653244 36.02768
L 4.206555 35.865286
L 4.759866 35.696902
L 5.313176 35.523367
L 5.866487 35.345299
L 6.419798 35.163168
L 6.973109 34.977352
L 7.52642 34.788155
L 8.079731 34.595833
L 8.633042 34.400601
L 9.186353 34.202644
L 9.739664 34.002125
L 10.292975 33.799182
L 10.846286 33.593943
L 11.399597 33.386517
L 11.952908 33.177006
L 12.506218 32.9655
L 13.059529 32.75208
L 13.61284 32.536824
L 14.166151 32.319798
L 14.719462 32.101066
L 15.272773 31.880687
L 15.826084 31.658716
L 16.379395 31.435202
L 16.932706 31.210193
L 17.486017 30.983732
L 18.039328 30.755861
L 18.592639 30.526619
L 19.14595 30.296041
L 19.699261 30.064163
L 20.252571 29.831016
L 20.805882 29.596631
L 21.359193 29.361038
L 21.912504 29.124263
L 22.465815 28.886334
L 23.019126 28.647275
L 23.572437 28.40711
L 24.125748 28.165862
L 24.679059 27.923552
L 25.23237 27.680201
L 25.785681 27.435829
L 26.338992 27.190456
L 26.892303 26.944099
L 27.445613 26.696776
L 27.998924 26.448504
L 28.552235 26.199299
L 29.105546 25.949177
L 29.658857 25.698153
L 30.212168 25.446242
L 30.765479 25.193456
L 31.31879 24.939811
L 31.872101 24.685319
L 32.425412 24.429992
L 32.978723 24.173844
L 33.532034 23.916885
L 34.085345 23.659128
L 34.638655 23.400582
L 35.191966 23.141261
L 35.745277 22.881172
L 36.298588 22.620328
L 36.851899 22.358737
L 37.40521 22.096409
L 37.958521 21.833354
L 38.511832 21.56958
L 39.065143 21.305097
L 39.618454 21.039913
L 40.171765 20.774036
L 40.725076 20.507474
L 41.278387 20.240236
L 41.831697 19.972329
L 42.385008 19.70376
L 42.938319 19.434538
L 43.49163 19.164668
L 44.044941 18.894158
L 44.598252 18.623016
L 45.151563 18.351246
L 45.704874 18.078857
L 46.258185 17.805855
L 46.811496 17.532245
L 47.364807 17.258033
L 47.918118 16.983227
L 48.471429 16.707831
L 49.024739 16.431851
L 49.57805 16.155292
L 50.131361 15.878161
L 50.684672 15.600463
L 51.237983 15.322202
L 51.791294 15.043385
L 52.344605 14.764015
L 52.897916 14.484098
L 53.451227 14.203638
L 54.004538 13.922642
L 54.557849 13.641112
L 55.11116 13.359054
L 55.664471 13.076472
L 56.217782 12.79337
L 56.771092 12.509753
L 57.324403 12.225625
L 57.877714 11.940991
L 58.431025 11.655854
L 58.984336 11.370218
L 59.537647 11.084087
L 60.090958 10.797465
L 60.644269 10.510356
L 61.19758 10.222764
L 61.750891 9.934691
L 62.304202 9.646143
L 62.857513 9.357123
L 63.410824 9.067633
L 63.964134 8.777677
L 64.517445 8.48726
L 65.070756 8.196383
L 65.624067 7.905051
L 66.177378 7.613266
L 66.730689 7.321032
L 67.284 7.028352
" clip-path="url(#p9173796fe7)" style="fill: none; stroke: #e67817; stroke-width: 1.45; stroke-linecap: square"/>
   </g>
   <g id="line2d_2">
    <path d="M 1.44 36.566784
L 1.993311 36.44751
L 2.546622 36.336363
L 3.099933 36.228089
L 3.653244 36.121639
L 4.206555 36.016527
L 4.759866 35.912468
L 5.313176 35.809276
L 5.866487 35.706821
L 6.419798 35.605007
L 6.973109 35.503757
L 7.52642 35.403014
L 8.079731 35.302728
L 8.633042 35.20286
L 9.186353 35.103375
L 9.739664 35.004245
L 10.292975 34.905446
L 10.846286 34.806954
L 11.399597 34.708753
L 11.952908 34.610824
L 12.506218 34.513152
L 13.059529 34.415724
L 13.61284 34.318528
L 14.166151 34.221553
L 14.719462 34.124789
L 15.272773 34.028226
L 15.826084 33.931856
L 16.379395 33.835671
L 16.932706 33.739664
L 17.486017 33.643828
L 18.039328 33.548158
L 18.592639 33.452647
L 19.14595 33.35729
L 19.699261 33.262081
L 20.252571 33.167017
L 20.805882 33.072093
L 21.359193 32.977304
L 21.912504 32.882647
L 22.465815 32.788118
L 23.019126 32.693713
L 23.572437 32.599428
L 24.125748 32.505262
L 24.679059 32.411211
L 25.23237 32.317271
L 25.785681 32.22344
L 26.338992 32.129717
L 26.892303 32.036097
L 27.445613 31.942579
L 27.998924 31.84916
L 28.552235 31.755839
L 29.105546 31.662613
L 29.658857 31.56948
L 30.212168 31.476438
L 30.765479 31.383486
L 31.31879 31.290621
L 31.872101 31.197842
L 32.425412 31.105148
L 32.978723 31.012536
L 33.532034 30.920006
L 34.085345 30.827555
L 34.638655 30.735183
L 35.191966 30.642887
L 35.745277 30.550667
L 36.298588 30.458522
L 36.851899 30.36645
L 37.40521 30.274449
L 37.958521 30.182519
L 38.511832 30.090659
L 39.065143 29.998868
L 39.618454 29.907144
L 40.171765 29.815486
L 40.725076 29.723894
L 41.278387 29.632366
L 41.831697 29.540902
L 42.385008 29.4495
L 42.938319 29.358161
L 43.49163 29.266882
L 44.044941 29.175663
L 44.598252 29.084503
L 45.151563 28.993402
L 45.704874 28.902358
L 46.258185 28.811371
L 46.811496 28.720441
L 47.364807 28.629566
L 47.918118 28.538745
L 48.471429 28.447979
L 49.024739 28.357266
L 49.57805 28.266606
L 50.131361 28.175997
L 50.684672 28.085441
L 51.237983 27.994935
L 51.791294 27.904479
L 52.344605 27.814073
L 52.897916 27.723717
L 53.451227 27.633408
L 54.004538 27.543148
L 54.557849 27.452935
L 55.11116 27.36277
L 55.664471 27.27265
L 56.217782 27.182577
L 56.771092 27.092549
L 57.324403 27.002567
L 57.877714 26.912628
L 58.431025 26.822734
L 58.984336 26.732884
L 59.537647 26.643076
L 60.090958 26.553312
L 60.644269 26.463589
L 61.19758 26.373909
L 61.750891 26.28427
L 62.304202 26.194672
L 62.857513 26.105115
L 63.410824 26.015599
L 63.964134 25.926122
L 64.517445 25.836685
L 65.070756 25.747287
L 65.624067 25.657928
L 66.177378 25.568607
L 66.730689 25.479325
L 67.284 25.39008
" clip-path="url(#p9173796fe7)" style="fill: none; stroke: #008f45; stroke-width: 1.45; stroke-linecap: square"/>
   </g>
   <g id="text_1">
    <!-- compute -->
    <g style="fill: #e67817" transform="translate(44.719067 9.871844) scale(0.049 -0.049)">
     <defs>
      <path id="Helvetica-63" d="M 1703 3444
Q 2269 3444 2623 3169
Q 2978 2894 3050 2222
L 2503 2222
Q 2453 2531 2275 2736
Q 2097 2941 1703 2941
Q 1166 2941 934 2416
Q 784 2075 784 1575
Q 784 1072 996 728
Q 1209 384 1666 384
Q 2016 384 2220 598
Q 2425 813 2503 1184
L 3050 1184
Q 2956 519 2581 211
Q 2206 -97 1622 -97
Q 966 -97 575 383
Q 184 863 184 1581
Q 184 2463 612 2953
Q 1041 3444 1703 3444
z
M 1616 3428
L 1616 3428
z
" transform="scale(0.015625)"/>
      <path id="Helvetica-6f" d="M 1741 363
Q 2300 363 2508 786
Q 2716 1209 2716 1728
Q 2716 2197 2566 2491
Q 2328 2953 1747 2953
Q 1231 2953 997 2559
Q 763 2166 763 1609
Q 763 1075 997 719
Q 1231 363 1741 363
z
M 1763 3444
Q 2409 3444 2856 3012
Q 3303 2581 3303 1744
Q 3303 934 2909 406
Q 2516 -122 1688 -122
Q 997 -122 590 345
Q 184 813 184 1600
Q 184 2444 612 2944
Q 1041 3444 1763 3444
z
M 1744 3428
L 1744 3428
z
" transform="scale(0.015625)"/>
      <path id="Helvetica-6d" d="M 413 3347
L 969 3347
L 969 2872
Q 1169 3119 1331 3231
Q 1609 3422 1963 3422
Q 2363 3422 2606 3225
Q 2744 3113 2856 2894
Q 3044 3163 3297 3292
Q 3550 3422 3866 3422
Q 4541 3422 4784 2934
Q 4916 2672 4916 2228
L 4916 0
L 4331 0
L 4331 2325
Q 4331 2659 4164 2784
Q 3997 2909 3756 2909
Q 3425 2909 3186 2687
Q 2947 2466 2947 1947
L 2947 0
L 2375 0
L 2375 2184
Q 2375 2525 2294 2681
Q 2166 2916 1816 2916
Q 1497 2916 1236 2669
Q 975 2422 975 1775
L 975 0
L 413 0
L 413 3347
z
" transform="scale(0.015625)"/>
      <path id="Helvetica-70" d="M 1825 378
Q 2219 378 2480 708
Q 2741 1038 2741 1694
Q 2741 2094 2625 2381
Q 2406 2934 1825 2934
Q 1241 2934 1025 2350
Q 909 2038 909 1556
Q 909 1169 1025 897
Q 1244 378 1825 378
z
M 369 3331
L 916 3331
L 916 2888
Q 1084 3116 1284 3241
Q 1569 3428 1953 3428
Q 2522 3428 2919 2992
Q 3316 2556 3316 1747
Q 3316 653 2744 184
Q 2381 -113 1900 -113
Q 1522 -113 1266 53
Q 1116 147 931 375
L 931 -1334
L 369 -1334
L 369 3331
z
" transform="scale(0.015625)"/>
      <path id="Helvetica-75" d="M 975 3347
L 975 1125
Q 975 869 1056 706
Q 1206 406 1616 406
Q 2203 406 2416 931
Q 2531 1213 2531 1703
L 2531 3347
L 3094 3347
L 3094 0
L 2563 0
L 2569 494
Q 2459 303 2297 172
Q 1975 -91 1516 -91
Q 800 -91 541 388
Q 400 644 400 1072
L 400 3347
L 975 3347
z
M 1747 3428
L 1747 3428
z
" transform="scale(0.015625)"/>
      <path id="Helvetica-74" d="M 525 4281
L 1094 4281
L 1094 3347
L 1628 3347
L 1628 2888
L 1094 2888
L 1094 703
Q 1094 528 1213 469
Q 1278 434 1431 434
Q 1472 434 1519 436
Q 1566 438 1628 444
L 1628 0
Q 1531 -28 1426 -40
Q 1322 -53 1200 -53
Q 806 -53 665 148
Q 525 350 525 672
L 525 2888
L 72 2888
L 72 3347
L 525 3347
L 525 4281
z
" transform="scale(0.015625)"/>
      <path id="Helvetica-65" d="M 1806 3422
Q 2163 3422 2497 3255
Q 2831 3088 3006 2822
Q 3175 2569 3231 2231
Q 3281 2000 3281 1494
L 828 1494
Q 844 984 1069 676
Q 1294 369 1766 369
Q 2206 369 2469 659
Q 2619 828 2681 1050
L 3234 1050
Q 3213 866 3089 639
Q 2966 413 2813 269
Q 2556 19 2178 -69
Q 1975 -119 1719 -119
Q 1094 -119 659 336
Q 225 791 225 1609
Q 225 2416 662 2919
Q 1100 3422 1806 3422
z
M 2703 1941
Q 2669 2306 2544 2525
Q 2313 2931 1772 2931
Q 1384 2931 1121 2651
Q 859 2372 844 1941
L 2703 1941
z
M 1753 3428
L 1753 3428
z
" transform="scale(0.015625)"/>
     </defs>
     <use xlink:href="#Helvetica-63"/>
     <use xlink:href="#Helvetica-6f" transform="translate(50 0)"/>
     <use xlink:href="#Helvetica-6d" transform="translate(105.615234 0)"/>
     <use xlink:href="#Helvetica-70" transform="translate(188.916016 0)"/>
     <use xlink:href="#Helvetica-75" transform="translate(244.53125 0)"/>
     <use xlink:href="#Helvetica-74" transform="translate(300.146484 0)"/>
     <use xlink:href="#Helvetica-65" transform="translate(327.929688 0)"/>
    </g>
   </g>
   <g id="text_2">
    <!-- data -->
    <g style="fill: #008f45" transform="translate(49.34727 27.036068) scale(0.049 -0.049)">
     <defs>
      <path id="Helvetica-64" d="M 769 1634
Q 769 1097 997 734
Q 1225 372 1728 372
Q 2119 372 2370 708
Q 2622 1044 2622 1672
Q 2622 2306 2362 2611
Q 2103 2916 1722 2916
Q 1297 2916 1033 2591
Q 769 2266 769 1634
z
M 1616 3406
Q 2000 3406 2259 3244
Q 2409 3150 2600 2916
L 2600 4606
L 3141 4606
L 3141 0
L 2634 0
L 2634 466
Q 2438 156 2169 18
Q 1900 -119 1553 -119
Q 994 -119 584 351
Q 175 822 175 1603
Q 175 2334 548 2870
Q 922 3406 1616 3406
z
" transform="scale(0.015625)"/>
      <path id="Helvetica-61" d="M 844 891
Q 844 647 1022 506
Q 1200 366 1444 366
Q 1741 366 2019 503
Q 2488 731 2488 1250
L 2488 1703
Q 2384 1638 2221 1594
Q 2059 1550 1903 1531
L 1563 1488
Q 1256 1447 1103 1359
Q 844 1213 844 891
z
M 2206 2028
Q 2400 2053 2466 2191
Q 2503 2266 2503 2406
Q 2503 2694 2298 2823
Q 2094 2953 1713 2953
Q 1272 2953 1088 2716
Q 984 2584 953 2325
L 428 2325
Q 444 2944 830 3186
Q 1216 3428 1725 3428
Q 2316 3428 2684 3203
Q 3050 2978 3050 2503
L 3050 575
Q 3050 488 3086 434
Q 3122 381 3238 381
Q 3275 381 3322 386
Q 3369 391 3422 400
L 3422 -16
Q 3291 -53 3222 -62
Q 3153 -72 3034 -72
Q 2744 -72 2613 134
Q 2544 244 2516 444
Q 2344 219 2022 53
Q 1700 -113 1313 -113
Q 847 -113 551 170
Q 256 453 256 878
Q 256 1344 547 1600
Q 838 1856 1309 1916
L 2206 2028
z
M 1741 3428
L 1741 3428
z
" transform="scale(0.015625)"/>
     </defs>
     <use xlink:href="#Helvetica-64"/>
     <use xlink:href="#Helvetica-61" transform="translate(55.615234 0)"/>
     <use xlink:href="#Helvetica-74" transform="translate(111.230469 0)"/>
     <use xlink:href="#Helvetica-61" transform="translate(139.013672 0)"/>
    </g>
   </g>
   <g id="text_3">
    <!-- gap -->
    <g style="fill: #cb202d" transform="translate(27.724365 20.562435) scale(0.048 -0.048)">
     <defs>
      <path id="Helvetica-67" d="M 1594 3406
Q 1988 3406 2281 3213
Q 2441 3103 2606 2894
L 2606 3316
L 3125 3316
L 3125 272
Q 3125 -366 2938 -734
Q 2588 -1416 1616 -1416
Q 1075 -1416 706 -1173
Q 338 -931 294 -416
L 866 -416
Q 906 -641 1028 -763
Q 1219 -950 1628 -950
Q 2275 -950 2475 -494
Q 2594 -225 2584 466
Q 2416 209 2178 84
Q 1941 -41 1550 -41
Q 1006 -41 598 345
Q 191 731 191 1622
Q 191 2463 602 2934
Q 1013 3406 1594 3406
z
M 2606 1688
Q 2606 2309 2350 2609
Q 2094 2909 1697 2909
Q 1103 2909 884 2353
Q 769 2056 769 1575
Q 769 1009 998 714
Q 1228 419 1616 419
Q 2222 419 2469 966
Q 2606 1275 2606 1688
z
M 1659 3428
L 1659 3428
z
" transform="scale(0.015625)"/>
     </defs>
     <use xlink:href="#Helvetica-67"/>
     <use xlink:href="#Helvetica-61" transform="translate(55.615234 0)"/>
     <use xlink:href="#Helvetica-70" transform="translate(111.230469 0)"/>
    </g>
   </g>
  </g>
 </g>
 <defs>
  <clipPath id="p9173796fe7">
   <rect x="1.44" y="1.44" width="65.844" height="39.9168"/>
  </clipPath>
 </defs>
</svg>
