<?xml version="1.0" encoding="UTF-8" standalone="no"?>
<!-- Created with Inkscape (http://www.inkscape.org/) -->

<svg
   version="1.1"
   id="svg1"
   width="587.13867"
   height="164.62132"
   viewBox="0 0 587.13867 164.62132"
   xmlns="http://www.w3.org/2000/svg"
   xmlns:svg="http://www.w3.org/2000/svg">
  <defs
     id="defs1" />
  <g
     id="g1">
    <path
       id="path1"
       d="m 0.3736,-12.93805 h 60.67873 v 25.8761 H 0.3736 Z"
       style="fill:#dbfda6;fill-opacity:1;fill-rule:nonzero;stroke:#008f45;stroke-width:0.74721;stroke-linecap:butt;stroke-linejoin:miter;stroke-miterlimit:10;stroke-dasharray:none;stroke-opacity:1"
       transform="matrix(1.3333333,0,0,-1.3333333,81.9,69.657333)" />
    <path
       id="path2"
       d="M 0.79779687,-3.28125e-4 H 3.3173281 c 1.6523438,0 2.6601563,-1.242187475 2.6601563,-3.269531275 0,-2.0273437 -0.9960938,-3.2695312 -2.6601563,-3.2695312 H 0.79779687 Z M 1.6298281,-0.73860938 V -5.8011094 h 1.546875 c 1.2890625,0 1.96875,0.8671875 1.96875,2.5429688 0,1.640625 -0.6796875,2.51953122 -1.96875,2.51953122 z m 9.6357419,0.3046875 c -0.08203,0.0117188 -0.117187,0.0117188 -0.152343,0.0117188 -0.269532,0 -0.410157,-0.12890625 -0.410157,-0.36328125 V -3.5511094 c 0,-0.8320312 -0.609375,-1.2773437 -1.7695309,-1.2773437 -0.6796875,0 -1.2421875,0.1875 -1.5585938,0.5390625 -0.2109375,0.2460937 -0.3046875,0.515625 -0.3164062,0.984375 h 0.75 c 0.058594,-0.5742188 0.3984375,-0.8320313 1.1015625,-0.8320313 0.6679687,0 1.0546875,0.2460938 1.0546875,0.6914063 v 0.1992187 c 0,0.3164063 -0.1875,0.4453125 -0.7851563,0.515625 -1.0546875,0.140625 -1.21875,0.1757813 -1.5,0.2929688 -0.5507812,0.2226562 -0.8320312,0.6445312 -0.8320312,1.2539062 0,0.85546877 0.5976562,1.39453127 1.546875,1.39453127 0.5859375,0 1.0664062,-0.210937495 1.59375,-0.69140625 0.046875,0.46875 0.2812504,0.69140625 0.7734374,0.69140625 0.152344,0 0.269531,-0.0234375 0.503906,-0.0820313 z M 9.9647891,-1.4768906 c 0,0.2460937 -0.082031,0.3984375 -0.3046875,0.60937497 -0.3046875,0.28125 -0.6679688,0.421875 -1.1132813,0.421875 -0.5742187,0 -0.9140625,-0.28125 -0.9140625,-0.76171877 0,-0.4921875 0.328125,-0.7382812 1.125,-0.8554687 0.7851563,-0.1054688 0.9492188,-0.140625 1.2070313,-0.2578125 z m 3.7675779,-3.2226563 h -0.761719 v -1.2890625 h -0.75 v 1.2890625 h -0.632812 v 0.609375 h 0.632812 v 3.55078127 c 0,0.48046875 0.328125,0.75 0.902344,0.75 0.1875,0 0.363281,-0.0234375 0.609375,-0.0703125 v -0.62109375 c -0.09375,0.0234375 -0.210937,0.0351563 -0.351562,0.0351563 -0.328125,0 -0.410157,-0.09375 -0.410157,-0.421875 V -4.0901719 h 0.761719 z m 5.012695,4.26562502 c -0.08203,0.0117188 -0.117187,0.0117188 -0.152343,0.0117188 -0.269532,0 -0.410157,-0.12890625 -0.410157,-0.36328125 V -3.5511094 c 0,-0.8320312 -0.609375,-1.2773437 -1.769531,-1.2773437 -0.679687,0 -1.242187,0.1875 -1.558594,0.5390625 -0.210937,0.2460937 -0.304687,0.515625 -0.316406,0.984375 h 0.75 c 0.05859,-0.5742188 0.398438,-0.8320313 1.101563,-0.8320313 0.667968,0 1.054687,0.2460938 1.054687,0.6914063 v 0.1992187 c 0,0.3164063 -0.1875,0.4453125 -0.785156,0.515625 -1.054688,0.140625 -1.21875,0.1757813 -1.5,0.2929688 -0.550781,0.2226562 -0.832031,0.6445312 -0.832031,1.2539062 0,0.85546877 0.597656,1.39453127 1.546875,1.39453127 0.585937,0 1.066406,-0.210937495 1.59375,-0.69140625 0.04687,0.46875 0.28125,0.69140625 0.773437,0.69140625 0.152344,0 0.269531,-0.0234375 0.503906,-0.0820313 z M 17.444281,-1.4768906 c 0,0.2460937 -0.08203,0.3984375 -0.304687,0.60937497 -0.304688,0.28125 -0.667969,0.421875 -1.113282,0.421875 -0.574218,0 -0.914062,-0.28125 -0.914062,-0.76171877 0,-0.4921875 0.328125,-0.7382812 1.125,-0.8554687 0.785156,-0.1054688 0.949219,-0.140625 1.207031,-0.2578125 z m 0,0"
       style="fill:#000000;fill-opacity:1;fill-rule:nonzero;stroke:none"
       aria-label="Data"
       transform="matrix(1.3333333,0,0,1.3333333,110.22533,65.352)" />
    <path
       id="path3"
       d="m 1.6521328,-2.7649922 h 2.0507813 c 0.515625,0 0.9140625,-0.1523437 1.265625,-0.46875 0.3867187,-0.3632812 0.5625,-0.7851562 0.5625,-1.3828125 0,-1.2304687 -0.7265625,-1.921875 -2.015625,-1.921875 H 0.82010156 V 6.328125e-4 H 1.6521328 Z m 0,-0.7382812 v -2.296875 h 1.734375 c 0.796875,0 1.2773438,0.4335937 1.2773438,1.1484375 0,0.7148437 -0.4804688,1.1484375 -1.2773438,1.1484375 z M 6.600375,-4.6985859 V 6.328125e-4 h 0.75 V -2.4368672 c 0,-0.6679687 0.1757812,-1.1132812 0.5273437,-1.3710937 0.234375,-0.1757813 0.4570313,-0.2226563 0.984375,-0.234375 v -0.7617188 c -0.1289062,-0.023437 -0.1992187,-0.023437 -0.2929687,-0.023437 -0.4804688,0 -0.8554688,0.28125 -1.2773438,0.984375 v -0.8554687 z m 6.960937,2.6015625 c 0,-0.7148438 -0.04687,-1.1484375 -0.1875,-1.5 -0.304687,-0.7734375 -1.019531,-1.2304688 -1.898437,-1.2304688 -1.300781,0 -2.1445313,0.9960938 -2.1445313,2.5429688 0,1.54687496 0.8085933,2.49609371 2.1328123,2.49609371 1.066406,0 1.816406,-0.609375 2.003906,-1.64062501 h -0.75 c -0.210937,0.62109376 -0.632812,0.94921876 -1.230468,0.94921876 -0.480469,0 -0.878907,-0.22265625 -1.125,-0.60937496 -0.1875,-0.2695313 -0.246094,-0.5390625 -0.257813,-1.0078125 z m -3.433593,-0.609375 c 0.05859,-0.8671875 0.585937,-1.4296875 1.335937,-1.4296875 0.738281,0 1.300781,0.609375 1.300781,1.3710937 0,0.023437 0,0.035156 0,0.058594 z m 4.303711,4.6640625 h 0.761718 v -2.44921879 c 0.386719,0.48046875 0.832032,0.703125 1.441407,0.703125 1.207031,0 2.003906,-0.984375 2.003906,-2.48437501 0,-1.5703125 -0.773438,-2.5546875 -2.015625,-2.5546875 -0.632813,0 -1.148438,0.28125 -1.5,0.84375 V -4.6985859 H 14.43143 Z m 2.0625,-6.09375 c 0.832031,0 1.371093,0.7265625 1.371093,1.8515625 0,1.0664062 -0.550781,1.79296871 -1.371093,1.79296871 -0.785157,0 -1.300782,-0.71484371 -1.300782,-1.81640621 0,-1.1015625 0.515625,-1.828125 1.300782,-1.828125 z m 7.236328,3.70312496 c -0.08203,0.0117188 -0.117188,0.0117188 -0.152344,0.0117188 -0.269531,0 -0.410156,-0.12890625 -0.410156,-0.36328125 V -3.5501484 c 0,-0.8320313 -0.609375,-1.2773438 -1.769531,-1.2773438 -0.679688,0 -1.242188,0.1875 -1.558594,0.5390625 -0.210938,0.2460938 -0.304688,0.515625 -0.316406,0.984375 h 0.75 c 0.05859,-0.5742187 0.398437,-0.8320312 1.101562,-0.8320312 0.667969,0 1.054688,0.2460937 1.054688,0.6914062 v 0.1992188 c 0,0.3164062 -0.1875,0.4453125 -0.785157,0.515625 -1.054687,0.140625 -1.21875,0.1757812 -1.5,0.2929687 -0.550781,0.2226563 -0.832031,0.6445313 -0.832031,1.2539063 0,0.85546871 0.597656,1.39453121 1.546875,1.39453121 0.585938,0 1.066406,-0.2109374975 1.59375,-0.69140625 0.04687,0.46875 0.28125,0.69140625 0.773438,0.69140625 0.152343,0 0.269531,-0.0234375 0.503906,-0.0820313 z M 22.429477,-1.4759297 c 0,0.2460938 -0.08203,0.3984375 -0.304688,0.60937501 -0.304687,0.28125 -0.667969,0.421875 -1.113281,0.421875 -0.574219,0 -0.914063,-0.28125 -0.914063,-0.76171871 0,-0.4921875 0.328125,-0.7382813 1.125,-0.8554688 0.785157,-0.1054687 0.949219,-0.140625 1.207032,-0.2578125 z m 2.115234,-3.2226562 V 6.328125e-4 h 0.75 V -2.4368672 c 0,-0.6679687 0.175781,-1.1132812 0.527344,-1.3710937 0.234375,-0.1757813 0.457031,-0.2226563 0.984375,-0.234375 v -0.7617188 c -0.128907,-0.023437 -0.199219,-0.023437 -0.292969,-0.023437 -0.480469,0 -0.855469,0.28125 -1.277344,0.984375 v -0.8554687 z m 7.066406,4.26562496 c -0.08203,0.0117188 -0.117187,0.0117188 -0.152344,0.0117188 -0.269531,0 -0.410156,-0.12890625 -0.410156,-0.36328125 V -3.5501484 c 0,-0.8320313 -0.609375,-1.2773438 -1.769531,-1.2773438 -0.679688,0 -1.242188,0.1875 -1.558594,0.5390625 -0.210937,0.2460938 -0.304687,0.515625 -0.316406,0.984375 h 0.75 c 0.05859,-0.5742187 0.398437,-0.8320312 1.101562,-0.8320312 0.667969,0 1.054688,0.2460937 1.054688,0.6914062 v 0.1992188 c 0,0.3164062 -0.1875,0.4453125 -0.785156,0.515625 -1.054688,0.140625 -1.21875,0.1757812 -1.5,0.2929687 -0.550782,0.2226563 -0.832032,0.6445313 -0.832032,1.2539063 0,0.85546871 0.597657,1.39453121 1.546875,1.39453121 0.585938,0 1.066407,-0.2109374975 1.59375,-0.69140625 0.04687,0.46875 0.28125,0.69140625 0.773438,0.69140625 0.152344,0 0.269531,-0.0234375 0.503906,-0.0820313 z M 30.310336,-1.4759297 c 0,0.2460938 -0.08203,0.3984375 -0.304688,0.60937501 -0.304687,0.28125 -0.667968,0.421875 -1.113281,0.421875 -0.574219,0 -0.914062,-0.28125 -0.914062,-0.76171871 0,-0.4921875 0.328125,-0.7382813 1.125,-0.8554688 0.785156,-0.1054687 0.949218,-0.140625 1.207031,-0.2578125 z m 3.767578,-3.2226562 h -0.761719 v -1.2890625 h -0.75 v 1.2890625 h -0.632812 v 0.609375 h 0.632812 v 3.55078121 c 0,0.48046875 0.328125,0.75 0.902344,0.75 0.1875,0 0.363281,-0.0234375 0.609375,-0.0703125 v -0.62109375 c -0.09375,0.0234375 -0.210937,0.0351563 -0.351562,0.0351563 -0.328125,0 -0.410157,-0.09375 -0.410157,-0.421875 V -4.0892109 h 0.761719 z m 1.567383,0 h -0.75 V 6.328125e-4 h 0.75 z m 0,-1.8398438 h -0.761719 v 0.9492188 h 0.761719 z m 3.079101,1.7109375 c -1.3125,0 -2.109375,0.9375 -2.109375,2.5195313 0,1.57031246 0.785157,2.51953121 2.121094,2.51953121 1.3125,0 2.121094,-0.94921875 2.121094,-2.48437501 0,-1.6289062 -0.773438,-2.5546875 -2.132813,-2.5546875 z m 0.01172,0.6914063 c 0.84375,0 1.347656,0.6796875 1.347656,1.8515625 0,1.1015625 -0.527343,1.80468746 -1.347656,1.80468746 -0.832031,0 -1.347656,-0.69140626 -1.347656,-1.82812496 0,-1.1367188 0.515625,-1.828125 1.347656,-1.828125 z m 3.169922,-0.5625 V 6.328125e-4 h 0.75 V -2.5892109 c 0,-0.9609375 0.503906,-1.5820313 1.265625,-1.5820313 0.597656,0 0.972656,0.3515625 0.972656,0.9140625 V 6.328125e-4 h 0.75 V -3.5501484 c 0,-0.7734375 -0.585937,-1.2773438 -1.488281,-1.2773438 -0.703125,0 -1.148437,0.2695313 -1.570312,0.9140625 v -0.7851562 z m 0,0"
       style="fill:#000000;fill-opacity:1;fill-rule:nonzero;stroke:none"
       aria-label="Preparation"
       transform="matrix(1.3333333,0,0,1.3333333,92.012,79.964)" />
    <path
       id="path4"
       d="m 104.31975,-12.04588 h 60.67873 V 12.0459 h -60.67873 z"
       style="fill:#fde2f0;fill-opacity:1;fill-rule:nonzero;stroke:#d9534f;stroke-width:0.74721;stroke-linecap:butt;stroke-linejoin:miter;stroke-miterlimit:10;stroke-dasharray:none;stroke-opacity:1"
       transform="matrix(1.3333333,0,0,-1.3333333,81.9,69.657333)" />
    <path
       id="path5"
       d="M 4.1962891,0.00122656 6.0361328,-5.4714297 V 0.00122656 H 6.8212891 V -6.5378359 H 5.6611328 L 3.7626953,-0.84252344 1.8291016,-6.5378359 H 0.66894531 V 0.00122656 H 1.4658203 V -5.4714297 L 3.3173828,0.00122656 Z M 9.90625,-4.8268984 c -1.3125,0 -2.109375,0.9375 -2.109375,2.5195312 0,1.57031251 0.7851563,2.51953126 2.1210938,2.51953126 1.3125002,0 2.1210942,-0.94921875 2.1210942,-2.48437496 0,-1.6289063 -0.773438,-2.5546875 -2.132813,-2.5546875 z m 0.011719,0.6914062 c 0.84375,0 1.347656,0.6796875 1.347656,1.8515625 0,1.1015625 -0.527344,1.80468751 -1.347656,1.80468751 -0.8320313,0 -1.3476563,-0.69140621 -1.3476563,-1.82812501 0,-1.1367187 0.515625,-1.828125 1.3476563,-1.828125 z m 6.978515,-2.4023437 h -0.75 v 2.4375 c -0.316406,-0.4804688 -0.808593,-0.7265625 -1.441406,-0.7265625 -1.21875,0 -2.015625,0.9726562 -2.015625,2.4726562 0,1.58203126 0.773438,2.56640626 2.039063,2.56640626 0.644531,0 1.101562,-0.24609375 1.5,-0.83203125 v 0.62109375 h 0.667968 z m -2.0625,2.4023437 c 0.808594,0 1.3125,0.7265625 1.3125,1.8398438 0,1.0898437 -0.515625,1.80468746 -1.3125,1.80468746 -0.820312,0 -1.371093,-0.72656246 -1.371093,-1.81640626 0,-1.1015625 0.550781,-1.828125 1.371093,-1.828125 z m 7.198243,2.0390625 c 0,-0.7148437 -0.04687,-1.1484375 -0.1875,-1.5 -0.304688,-0.7734375 -1.019532,-1.2304687 -1.898438,-1.2304687 -1.300781,0 -2.144531,0.9960937 -2.144531,2.5429687 0,1.54687501 0.808594,2.49609376 2.132812,2.49609376 1.066407,0 1.816407,-0.609375 2.003907,-1.64062496 h -0.75 c -0.210938,0.62109371 -0.632813,0.94921871 -1.230469,0.94921871 -0.480469,0 -0.878906,-0.22265625 -1.125,-0.60937501 -0.1875,-0.2695312 -0.246094,-0.5390625 -0.257813,-1.0078125 z m -3.433594,-0.609375 c 0.05859,-0.8671875 0.585937,-1.4296875 1.335937,-1.4296875 0.738282,0 1.300782,0.609375 1.300782,1.3710938 0,0.023437 0,0.035156 0,0.058594 z m 5.185547,-3.8320312 h -0.75 v 6.53906246 h 0.75 z m 0,0"
       style="fill:#000000;fill-opacity:1;fill-rule:nonzero;stroke:none"
       aria-label="Model"
       transform="matrix(1.3333333,0,0,1.3333333,245.16667,66.541333)" />
    <path
       id="path6"
       d="m 1.6403203,-2.9773047 h 3.5625 v -0.7382812 h -3.5625 V -5.8015234 H 5.3317266 V -6.5398047 H 0.80828906 V -7.421875e-4 H 5.4957891 V -0.73902344 H 1.6403203 Z M 8.533875,-7.421875e-4 10.338562,-4.6999609 H 9.4948125 L 8.1705937,-0.89136719 6.9166875,-4.6999609 h -0.84375 l 1.640625,4.6992187125 z M 15.031922,-0.43433594 c -0.08203,0.0117188 -0.117188,0.0117188 -0.152344,0.0117188 -0.269531,0 -0.410156,-0.12890625 -0.410156,-0.36328125 V -3.5515234 c 0,-0.8320313 -0.609375,-1.2773438 -1.769531,-1.2773438 -0.679688,0 -1.242188,0.1875 -1.558594,0.5390625 -0.210938,0.2460938 -0.304688,0.515625 -0.316406,0.984375 h 0.75 c 0.05859,-0.5742187 0.398437,-0.8320312 1.101562,-0.8320312 0.667969,0 1.054688,0.2460937 1.054688,0.6914062 v 0.1992188 c 0,0.3164062 -0.1875,0.4453125 -0.785157,0.515625 -1.054687,0.140625 -1.21875,0.1757812 -1.5,0.2929687 -0.550781,0.2226563 -0.832031,0.6445313 -0.832031,1.2539063 0,0.85546871 0.597656,1.39453121 1.546875,1.39453121 0.585938,0 1.066406,-0.2109374975 1.59375,-0.69140625 0.04687,0.46875 0.28125,0.69140625 0.773438,0.69140625 0.152343,0 0.269531,-0.0234375 0.503906,-0.0820313 z M 13.731141,-1.4773047 c 0,0.2460938 -0.08203,0.3984375 -0.304688,0.60937501 -0.304687,0.28125 -0.667969,0.421875 -1.113281,0.421875 -0.574219,0 -0.914063,-0.28125 -0.914063,-0.76171871 0,-0.4921875 0.328125,-0.7382813 1.125,-0.8554688 0.785157,-0.1054687 0.949219,-0.140625 1.207032,-0.2578125 z m 2.853515,-5.0625 h -0.75 v 6.5390625125 h 0.75 z m 4.954102,6.5390625125 V -4.6999609 h -0.75 v 2.6601562 c 0,0.9609375 -0.503906,1.59375001 -1.277344,1.59375001 -0.597656,0 -0.972656,-0.36328125 -0.972656,-0.92578121 v -3.328125 h -0.738281 v 3.6210937 c 0,0.78515626 0.574218,1.28906251 1.488281,1.28906251 0.691406,0 1.136719,-0.24609375 1.570312,-0.8671875 V -7.421875e-4 Z M 26.993836,-0.43433594 c -0.08203,0.0117188 -0.117188,0.0117188 -0.152344,0.0117188 -0.269531,0 -0.410156,-0.12890625 -0.410156,-0.36328125 V -3.5515234 c 0,-0.8320313 -0.609375,-1.2773438 -1.769531,-1.2773438 -0.679688,0 -1.242188,0.1875 -1.558594,0.5390625 -0.210938,0.2460938 -0.304688,0.515625 -0.316406,0.984375 h 0.75 c 0.05859,-0.5742187 0.398437,-0.8320312 1.101562,-0.8320312 0.667969,0 1.054688,0.2460937 1.054688,0.6914062 v 0.1992188 c 0,0.3164062 -0.1875,0.4453125 -0.785157,0.515625 -1.054687,0.140625 -1.21875,0.1757812 -1.5,0.2929687 -0.550781,0.2226563 -0.832031,0.6445313 -0.832031,1.2539063 0,0.85546871 0.597656,1.39453121 1.546875,1.39453121 0.585938,0 1.066406,-0.2109374975 1.59375,-0.69140625 0.04687,0.46875 0.28125,0.69140625 0.773438,0.69140625 0.152343,0 0.269531,-0.0234375 0.503906,-0.0820313 z M 25.693055,-1.4773047 c 0,0.2460938 -0.08203,0.3984375 -0.304688,0.60937501 -0.304687,0.28125 -0.667969,0.421875 -1.113281,0.421875 -0.574219,0 -0.914063,-0.28125 -0.914063,-0.76171871 0,-0.4921875 0.328125,-0.7382813 1.125,-0.8554688 0.785157,-0.1054687 0.949219,-0.140625 1.207032,-0.2578125 z m 3.767578,-3.2226562 h -0.761719 v -1.2890625 h -0.75 v 1.2890625 h -0.632812 v 0.609375 h 0.632812 v 3.55078121 c 0,0.48046875 0.328125,0.75 0.902344,0.75 0.1875,0 0.363281,-0.0234375 0.609375,-0.0703125 v -0.62109375 c -0.09375,0.0234375 -0.210938,0.0351563 -0.351563,0.0351563 -0.328125,0 -0.410156,-0.09375 -0.410156,-0.421875 V -4.0905859 h 0.761719 z m 1.564453,0 h -0.75 v 4.6992187125 h 0.75 z m 0,-1.8398438 h -0.761719 v 0.9492188 h 0.761719 z m 3.082031,1.7109375 c -1.3125,0 -2.109375,0.9375 -2.109375,2.5195313 0,1.57031246 0.785156,2.51953121 2.121094,2.51953121 1.3125,0 2.121094,-0.94921875 2.121094,-2.48437501 0,-1.6289062 -0.773438,-2.5546875 -2.132813,-2.5546875 z m 0.01172,0.6914063 c 0.84375,0 1.347656,0.6796875 1.347656,1.8515625 0,1.1015625 -0.527344,1.80468746 -1.347656,1.80468746 -0.832031,0 -1.347656,-0.69140626 -1.347656,-1.82812496 0,-1.1367188 0.515625,-1.828125 1.347656,-1.828125 z m 3.169922,-0.5625 v 4.6992187125 h 0.75 V -2.5905859 c 0,-0.9609375 0.503906,-1.5820313 1.265625,-1.5820313 0.597656,0 0.972656,0.3515625 0.972656,0.9140625 v 3.2578125125 h 0.75 V -3.5515234 c 0,-0.7734375 -0.585937,-1.2773438 -1.488281,-1.2773438 -0.703125,0 -1.148438,0.2695313 -1.570313,0.9140625 v -0.7851562 z m 0,0"
       style="fill:#000000;fill-opacity:1;fill-rule:nonzero;stroke:none"
       aria-label="Evaluation"
       transform="matrix(1.3333333,0,0,1.3333333,233.684,81.153333)" />
    <path
       id="path7"
       d="m 256.45552,-12.93805 h 60.67873 v 25.8761 h -60.67873 z"
       style="fill:#f7b4f7;fill-opacity:1;fill-rule:nonzero;stroke:#7e317b;stroke-width:0.74721;stroke-linecap:butt;stroke-linejoin:miter;stroke-miterlimit:10;stroke-dasharray:none;stroke-opacity:1"
       transform="matrix(1.3333333,0,0,-1.3333333,81.9,69.657333)" />
    <path
       id="path8"
       d="M 4.1951016,-3.28125e-4 6.0349453,-5.4729844 V -3.28125e-4 H 6.8201016 V -6.5393906 H 5.6599453 L 3.7615078,-0.84407813 1.8279141,-6.5393906 H 0.66775781 V -3.28125e-4 H 1.4646328 V -5.4729844 L 3.3161953,-3.28125e-4 Z M 9.9050625,-4.8284531 c -1.3125,0 -2.109375,0.9375 -2.109375,2.5195312 0,1.57031252 0.7851562,2.51953127 2.1210937,2.51953127 1.3124998,0 2.1210938,-0.94921875 2.1210938,-2.48437497 0,-1.6289063 -0.773438,-2.5546875 -2.1328125,-2.5546875 z m 0.011719,0.6914062 c 0.8437495,0 1.3476555,0.6796875 1.3476555,1.8515625 0,1.1015625 -0.527343,1.80468752 -1.3476555,1.80468752 -0.8320312,0 -1.3476562,-0.69140622 -1.3476562,-1.82812502 0,-1.1367187 0.515625,-1.828125 1.3476562,-1.828125 z m 6.9785155,-2.4023437 h -0.75 v 2.4375 c -0.316406,-0.4804688 -0.808594,-0.7265625 -1.441406,-0.7265625 -1.21875,0 -2.015625,0.9726562 -2.015625,2.4726562 0,1.58203127 0.773437,2.56640627 2.039062,2.56640627 0.644531,0 1.101563,-0.24609375 1.5,-0.83203125 v 0.621093755 h 0.667969 z m -2.0625,2.4023437 c 0.808594,0 1.3125,0.7265625 1.3125,1.8398438 0,1.0898437 -0.515625,1.80468747 -1.3125,1.80468747 -0.820313,0 -1.371094,-0.72656247 -1.371094,-1.81640627 0,-1.1015625 0.550781,-1.828125 1.371094,-1.828125 z m 7.201172,2.0390625 c 0,-0.7148437 -0.04687,-1.1484375 -0.1875,-1.5 -0.304688,-0.7734375 -1.019532,-1.2304687 -1.898438,-1.2304687 -1.300781,0 -2.144531,0.9960937 -2.144531,2.5429687 0,1.54687502 0.808594,2.49609377 2.132812,2.49609377 1.066407,0 1.816407,-0.609375 2.003907,-1.64062497 h -0.75 c -0.210938,0.62109372 -0.632813,0.94921872 -1.230469,0.94921872 -0.480469,0 -0.878906,-0.22265625 -1.125,-0.60937502 -0.1875,-0.2695312 -0.246094,-0.5390625 -0.257813,-1.0078125 z m -3.433594,-0.609375 c 0.05859,-0.8671875 0.585937,-1.4296875 1.335937,-1.4296875 0.738282,0 1.300782,0.609375 1.300782,1.3710938 0,0.023437 0,0.035156 0,0.058594 z m 5.182617,-3.8320312 h -0.75 v 6.539062475 h 0.75 z m 0,0"
       style="fill:#000000;fill-opacity:1;fill-rule:nonzero;stroke:none"
       aria-label="Model"
       transform="matrix(1.3333333,0,0,1.3333333,448.012,65.352)" />
    <path
       id="path9"
       d="M 0.79746875,6.328125e-4 H 3.317 c 1.6523438,0 2.6601563,-1.2421875125 2.6601563,-3.2695312125 0,-2.0273438 -0.9960938,-3.2695313 -2.6601563,-3.2695313 H 0.79746875 Z M 1.6295,-0.73764844 V -5.8001484 h 1.546875 c 1.2890625,0 1.96875,0.8671875 1.96875,2.5429687 0,1.640625 -0.6796875,2.51953126 -1.96875,2.51953126 z m 9.436523,-1.35937496 c 0,-0.7148438 -0.04687,-1.1484375 -0.1875,-1.5 -0.304687,-0.7734375 -1.0195308,-1.2304688 -1.8984371,-1.2304688 -1.3007812,0 -2.1445312,0.9960938 -2.1445312,2.5429688 0,1.54687496 0.8085937,2.49609371 2.1328125,2.49609371 1.0664058,0 1.8164058,-0.609375 2.0039058,-1.64062501 h -0.75 c -0.210937,0.62109376 -0.6328121,0.94921876 -1.2304683,0.94921876 -0.4804688,0 -0.8789063,-0.22265625 -1.125,-0.60937496 -0.1875,-0.2695313 -0.2460938,-0.5390625 -0.2578125,-1.0078125 z m -3.4335933,-0.609375 c 0.058594,-0.8671875 0.5859375,-1.4296875 1.3359375,-1.4296875 0.7382812,0 1.3007808,0.609375 1.3007808,1.3710937 0,0.023437 0,0.035156 0,0.058594 z M 11.93907,1.9576641 h 0.761719 v -2.44921879 c 0.386719,0.48046875 0.832031,0.703125 1.441406,0.703125 1.207032,0 2.003907,-0.984375 2.003907,-2.48437501 0,-1.5703125 -0.773438,-2.5546875 -2.015625,-2.5546875 -0.632813,0 -1.148438,0.28125 -1.5,0.84375 V -4.6985859 H 11.93907 Z m 2.0625,-6.09375 c 0.832032,0 1.371094,0.7265625 1.371094,1.8515625 0,1.0664062 -0.550781,1.79296871 -1.371094,1.79296871 -0.785156,0 -1.300781,-0.71484371 -1.300781,-1.81640621 0,-1.1015625 0.515625,-1.828125 1.300781,-1.828125 z m 3.802735,-2.4023438 h -0.75 V 6.328125e-4 h 0.75 z m 3.067383,1.7109375 c -1.3125,0 -2.109375,0.9375 -2.109375,2.5195313 0,1.57031246 0.785156,2.51953121 2.121093,2.51953121 1.3125,0 2.121094,-0.94921875 2.121094,-2.48437501 0,-1.6289062 -0.773437,-2.5546875 -2.132812,-2.5546875 z m 0.01172,0.6914063 c 0.84375,0 1.347657,0.6796875 1.347657,1.8515625 0,1.1015625 -0.527344,1.80468746 -1.347657,1.80468746 -0.832031,0 -1.347656,-0.69140626 -1.347656,-1.82812496 0,-1.1367188 0.515625,-1.828125 1.347656,-1.828125 z m 5.748047,-0.5625 -1.300781,3.65625 -1.207031,-3.65625 h -0.796875 l 1.59375,4.72265621 -0.292969,0.73828125 c -0.117188,0.32812504 -0.28125,0.45703124 -0.597656,0.45703124 -0.105469,0 -0.234375,-0.011719 -0.398438,-0.058594 v 0.6796875 c 0.152344,0.082031 0.304688,0.1171875 0.503906,0.1171875 0.246094,0 0.503907,-0.082031 0.703125,-0.2226563 0.234375,-0.1757812 0.363282,-0.375 0.503907,-0.74999999 l 2.097656,-5.68359371 z m 1.634766,0 V 6.328125e-4 h 0.75 V -2.9524922 c 0,-0.6796875 0.492187,-1.21875 1.101562,-1.21875 0.550782,0 0.867188,0.3398438 0.867188,0.9375 V 6.328125e-4 h 0.75 V -2.9524922 c 0,-0.6796875 0.492187,-1.21875 1.101562,-1.21875 0.550782,0 0.878907,0.3398438 0.878907,0.9375 V 6.328125e-4 h 0.75 V -3.5267109 c 0,-0.84375 -0.480469,-1.3007813 -1.359375,-1.3007813 -0.632813,0 -1.007813,0.1875 -1.453125,0.7148438 -0.269532,-0.5039063 -0.644532,-0.7148438 -1.253907,-0.7148438 -0.632812,0 -1.042968,0.234375 -1.453125,0.796875 v -0.6679687 z m 11.43164,2.6015625 c 0,-0.7148438 -0.04687,-1.1484375 -0.1875,-1.5 -0.304687,-0.7734375 -1.019531,-1.2304688 -1.898437,-1.2304688 -1.300781,0 -2.144531,0.9960938 -2.144531,2.5429688 0,1.54687496 0.808593,2.49609371 2.132812,2.49609371 1.066406,0 1.816406,-0.609375 2.003906,-1.64062501 h -0.75 c -0.210937,0.62109376 -0.632812,0.94921876 -1.230468,0.94921876 -0.480469,0 -0.878907,-0.22265625 -1.125,-0.60937496 -0.1875,-0.2695313 -0.246094,-0.5390625 -0.257813,-1.0078125 z m -3.433593,-0.609375 c 0.05859,-0.8671875 0.585937,-1.4296875 1.335937,-1.4296875 0.738281,0 1.300781,0.609375 1.300781,1.3710937 0,0.023437 0,0.035156 0,0.058594 z M 40.72032,-4.6985859 V 6.328125e-4 h 0.75 V -2.5892109 c 0,-0.9609375 0.503907,-1.5820313 1.265625,-1.5820313 0.597657,0 0.972657,0.3515625 0.972657,0.9140625 V 6.328125e-4 h 0.75 V -3.5501484 c 0,-0.7734375 -0.585938,-1.2773438 -1.488282,-1.2773438 -0.703125,0 -1.148437,0.2695313 -1.570312,0.9140625 v -0.7851562 z m 6.626953,0 h -0.761718 v -1.2890625 h -0.75 v 1.2890625 h -0.632813 v 0.609375 h 0.632813 v 3.55078121 c 0,0.48046875 0.328125,0.75 0.902343,0.75 0.1875,0 0.363282,-0.0234375 0.609375,-0.0703125 v -0.62109375 c -0.09375,0.0234375 -0.210937,0.0351563 -0.351562,0.0351563 -0.328125,0 -0.410156,-0.09375 -0.410156,-0.421875 V -4.0892109 h 0.761718 z m 0,0"
       style="fill:#000000;fill-opacity:1;fill-rule:nonzero;stroke:none"
       aria-label="Deployment"
       transform="matrix(1.3333333,0,0,1.3333333,432.57733,79.964)" />
    <path
       id="path10"
       d="m 52.34666,25.88573 h 60.67873 V 51.86949 H 52.34666 Z"
       style="fill:#ffff95;fill-opacity:1;fill-rule:nonzero;stroke:#b5b548;stroke-width:0.74721;stroke-linecap:butt;stroke-linejoin:miter;stroke-miterlimit:10;stroke-dasharray:none;stroke-opacity:1"
       transform="matrix(1.3333333,0,0,-1.3333333,81.9,69.657333)" />
    <path
       id="path11"
       d="M 4.1956328,9.84375e-4 6.0354766,-5.4716719 V 9.84375e-4 H 6.8206328 V -6.5380781 H 5.6604766 L 3.7620391,-0.84276562 1.8284453,-6.5380781 H 0.66828906 V 9.84375e-4 H 1.4651641 V -5.4716719 L 3.3167266,9.84375e-4 Z M 9.9055938,-4.8271406 c -1.3125,0 -2.109375,0.9375 -2.109375,2.5195312 0,1.57031253 0.7851562,2.51953128 2.1210937,2.51953128 1.3125005,0 2.1210935,-0.94921875 2.1210935,-2.48437498 0,-1.6289063 -0.773437,-2.5546875 -2.1328122,-2.5546875 z m 0.011719,0.6914062 c 0.8437502,0 1.3476562,0.6796875 1.3476562,1.8515625 0,1.1015625 -0.527344,1.80468753 -1.3476562,1.80468753 -0.8320312,0 -1.3476562,-0.69140623 -1.3476562,-1.82812503 0,-1.1367187 0.515625,-1.828125 1.3476562,-1.828125 z m 6.9785152,-2.4023437 h -0.75 v 2.4375 c -0.316406,-0.4804688 -0.808594,-0.7265625 -1.441406,-0.7265625 -1.21875,0 -2.015625,0.9726562 -2.015625,2.4726562 0,1.58203128 0.773437,2.56640628 2.039062,2.56640628 0.644532,0 1.101563,-0.24609375 1.5,-0.83203125 V 9.84375e-4 h 0.667969 z m -2.0625,2.4023437 c 0.808594,0 1.3125,0.7265625 1.3125,1.8398438 0,1.0898437 -0.515625,1.80468748 -1.3125,1.80468748 -0.820312,0 -1.371094,-0.72656248 -1.371094,-1.81640628 0,-1.1015625 0.550782,-1.828125 1.371094,-1.828125 z m 7.201172,2.0390625 c 0,-0.7148437 -0.04687,-1.1484375 -0.1875,-1.5 -0.304687,-0.7734375 -1.019531,-1.2304687 -1.898437,-1.2304687 -1.300782,0 -2.144532,0.9960937 -2.144532,2.5429687 0,1.54687503 0.808594,2.49609378 2.132813,2.49609378 1.066406,0 1.816406,-0.609375 2.003906,-1.64062498 h -0.75 c -0.210937,0.62109373 -0.632812,0.94921873 -1.230469,0.94921873 -0.480468,0 -0.878906,-0.22265625 -1.125,-0.60937503 -0.1875,-0.2695312 -0.246093,-0.5390625 -0.257812,-1.0078125 z m -3.433594,-0.609375 c 0.05859,-0.8671875 0.585938,-1.4296875 1.335938,-1.4296875 0.738281,0 1.300781,0.609375 1.300781,1.3710938 0,0.023437 0,0.035156 0,0.058594 z m 5.182617,-3.8320312 h -0.75 V 9.84375e-4 h 0.75 z m 0,0"
       style="fill:#000000;fill-opacity:1;fill-rule:nonzero;stroke:none"
       aria-label="Model"
       transform="matrix(1.3333333,0,0,1.3333333,175.87067,13.444)" />
    <path
       id="path12"
       d="M 3.1748047,-5.8017656 H 5.3193359 V -6.5400469 H 0.18652344 v 0.7382813 H 2.3427734 v 5.800781225 h 0.8320313 z m 1.8486328,1.1015625 v 4.699218725 h 0.75 V -2.4384844 c 0,-0.6679687 0.1757812,-1.1132812 0.5273437,-1.3710937 0.234375,-0.1757813 0.4570313,-0.2226563 0.984375,-0.234375 v -0.7617188 c -0.1289062,-0.023437 -0.1992187,-0.023437 -0.2929687,-0.023437 -0.4804688,0 -0.8554688,0.28125 -1.2773438,0.984375 v -0.8554687 z m 7.0693355,4.26562498 c -0.08203,0.0117188 -0.117187,0.0117188 -0.152343,0.0117188 -0.269532,0 -0.410157,-0.12890625 -0.410157,-0.36328125 V -3.5517656 c 0,-0.8320313 -0.609375,-1.2773438 -1.7695308,-1.2773438 -0.6796875,0 -1.2421875,0.1875 -1.5585938,0.5390625 -0.2109375,0.2460938 -0.3046875,0.515625 -0.3164062,0.984375 h 0.75 c 0.058594,-0.5742187 0.3984375,-0.8320312 1.1015625,-0.8320312 0.6679683,0 1.0546873,0.2460937 1.0546873,0.6914062 v 0.1992188 c 0,0.3164062 -0.1875,0.4453125 -0.785156,0.515625 -1.0546876,0.140625 -1.2187501,0.1757812 -1.5000001,0.2929687 -0.5507812,0.2226563 -0.8320312,0.6445313 -0.8320312,1.2539063 0,0.85546873 0.5976562,1.39453123 1.546875,1.39453123 0.5859375,0 1.0664063,-0.210937505 1.5937503,-0.69140625 0.04687,0.46875 0.28125,0.69140625 0.773437,0.69140625 0.152344,0 0.269531,-0.0234375 0.503906,-0.0820313 z M 10.791992,-1.4775469 c 0,0.2460938 -0.08203,0.3984375 -0.304687,0.60937503 -0.304688,0.28125 -0.6679691,0.421875 -1.1132816,0.421875 -0.5742187,0 -0.9140625,-0.28125 -0.9140625,-0.76171873 0,-0.4921875 0.328125,-0.7382813 1.125,-0.8554688 0.7851561,-0.1054687 0.9492191,-0.140625 1.2070311,-0.2578125 z m 2.838867,-3.2226562 h -0.75 v 4.699218725 h 0.75 z m 0,-1.8398438 h -0.761718 v 0.9492188 h 0.761718 z m 1.277344,1.8398438 v 4.699218725 h 0.75 V -2.5908281 c 0,-0.9609375 0.503906,-1.5820313 1.265625,-1.5820313 0.597656,0 0.972656,0.3515625 0.972656,0.9140625 v 3.257812525 h 0.75 V -3.5517656 c 0,-0.7734375 -0.585937,-1.2773438 -1.488281,-1.2773438 -0.703125,0 -1.148437,0.2695313 -1.570312,0.9140625 v -0.7851562 z m 5.698242,0 h -0.75 v 4.699218725 h 0.75 z m 0,-1.8398438 h -0.761718 v 0.9492188 h 0.761718 z m 1.277344,1.8398438 v 4.699218725 h 0.75 V -2.5908281 c 0,-0.9609375 0.503906,-1.5820313 1.265625,-1.5820313 0.597656,0 0.972656,0.3515625 0.972656,0.9140625 v 3.257812525 h 0.75 V -3.5517656 c 0,-0.7734375 -0.585937,-1.2773438 -1.488281,-1.2773438 -0.703125,0 -1.148437,0.2695313 -1.570312,0.9140625 v -0.7851562 z m 8.041992,0 v 0.6796875 c -0.375,-0.5507813 -0.832031,-0.8085938 -1.429687,-0.8085938 -1.195313,0 -2.003907,1.03125 -2.003907,2.5546875 0,0.7734375 0.210938,1.40625003 0.597657,1.85156253 0.351562,0.3984375 0.84375,0.6328125 1.335937,0.6328125 0.597656,0 1.007813,-0.2578125 1.429688,-0.84375 v 0.234375 c 0,0.64453125 -0.08203,1.03125 -0.269532,1.2890625 C 29.386719,1.1591719 29,1.3232344 28.542969,1.3232344 c -0.339844,0 -0.644532,-0.082031 -0.84375,-0.2460938 C 27.523437,0.93651563 27.453125,0.81932813 27.40625,0.53807813 h -0.761719 c 0.08203,0.89062497 0.773438,1.41796877 1.875,1.41796877 0.703125,0 1.300781,-0.2226563 1.605469,-0.5976563 0.363281,-0.43359372 0.492187,-1.03124997 0.492187,-2.13281247 V -4.7002031 Z m -1.347656,0.5625 c 0.808594,0 1.277344,0.6796875 1.277344,1.8515625 0,1.125 -0.480469,1.80468748 -1.277344,1.80468748 -0.808594,0 -1.300781,-0.69140628 -1.300781,-1.82812498 0,-1.1367188 0.503906,-1.828125 1.300781,-1.828125 z m 0,0"
       style="fill:#000000;fill-opacity:1;fill-rule:nonzero;stroke:none"
       aria-label="Training"
       transform="matrix(1.3333333,0,0,1.3333333,171.33333,28.056)" />
    <path
       id="path13"
       d="m -61.05232,-69.03943 h 60.67873 v 24.1725 h -60.67873 z"
       style="fill:#d1f3ff;fill-opacity:1;fill-rule:nonzero;stroke:#006395;stroke-width:0.74721;stroke-linecap:butt;stroke-linejoin:miter;stroke-miterlimit:10;stroke-dasharray:none;stroke-opacity:1"
       transform="matrix(1.3333333,0,0,-1.3333333,81.9,69.657333)" />
    <path
       id="path14"
       d="M 0.79603906,0.00133594 H 3.3155703 c 1.6523438,0 2.6601563,-1.24218754 2.6601563,-3.26953124 0,-2.0273438 -0.9960938,-3.2695313 -2.6601563,-3.2695313 H 0.79603906 Z M 1.6280703,-0.73694531 V -5.7994453 h 1.546875 c 1.2890625,0 1.96875,0.8671875 1.96875,2.5429687 0,1.640625 -0.6796875,2.51953129 -1.96875,2.51953129 z m 9.6386717,0.3046875 c -0.08203,0.0117188 -0.117187,0.0117188 -0.152344,0.0117188 -0.269531,0 -0.410156,-0.12890625 -0.410156,-0.36328125 V -3.5494453 c 0,-0.8320313 -0.609375,-1.2773438 -1.7695311,-1.2773438 -0.6796875,0 -1.2421875,0.1875 -1.5585937,0.5390625 -0.2109375,0.2460938 -0.3046875,0.515625 -0.3164063,0.984375 h 0.75 c 0.058594,-0.5742187 0.3984375,-0.8320312 1.1015625,-0.8320312 0.6679688,0 1.0546875,0.2460937 1.0546875,0.6914062 v 0.1992188 c 0,0.3164062 -0.1875,0.4453125 -0.7851562,0.515625 -1.0546875,0.140625 -1.21875,0.1757812 -1.5,0.2929687 -0.5507813,0.2226563 -0.8320313,0.6445313 -0.8320313,1.2539063 0,0.85546874 0.5976563,1.39453124 1.546875,1.39453124 0.5859375,0 1.0664063,-0.2109375 1.59375,-0.69140625 0.046875,0.46875 0.2812496,0.69140625 0.7734376,0.69140625 0.152344,0 0.269531,-0.0234375 0.503906,-0.0820313 z M 9.9659609,-1.4752266 c 0,0.2460938 -0.082031,0.3984375 -0.3046875,0.60937504 -0.3046875,0.28125 -0.6679687,0.421875 -1.1132812,0.421875 -0.5742188,0 -0.9140625,-0.28125 -0.9140625,-0.76171874 0,-0.4921875 0.328125,-0.7382813 1.125,-0.8554688 0.7851562,-0.1054687 0.9492187,-0.140625 1.2070312,-0.2578125 z M 13.733539,-4.6978828 H 12.97182 v -1.2890625 h -0.75 v 1.2890625 h -0.632812 v 0.609375 h 0.632812 v 3.55078124 c 0,0.48046875 0.328125,0.75 0.902344,0.75 0.1875,0 0.363281,-0.0234375 0.609375,-0.0703125 v -0.62109375 c -0.09375,0.0234375 -0.210937,0.0351563 -0.351562,0.0351563 -0.328125,0 -0.410157,-0.09375 -0.410157,-0.421875 V -4.0885078 h 0.761719 z m 5.009766,4.26562499 c -0.08203,0.0117188 -0.117188,0.0117188 -0.152344,0.0117188 -0.269531,0 -0.410156,-0.12890625 -0.410156,-0.36328125 V -3.5494453 c 0,-0.8320313 -0.609375,-1.2773438 -1.769532,-1.2773438 -0.679687,0 -1.242187,0.1875 -1.558593,0.5390625 -0.210938,0.2460938 -0.304688,0.515625 -0.316407,0.984375 h 0.75 c 0.05859,-0.5742187 0.398438,-0.8320312 1.101563,-0.8320312 0.667969,0 1.054687,0.2460937 1.054687,0.6914062 v 0.1992188 c 0,0.3164062 -0.1875,0.4453125 -0.785156,0.515625 -1.054687,0.140625 -1.21875,0.1757812 -1.5,0.2929687 -0.550781,0.2226563 -0.832031,0.6445313 -0.832031,1.2539063 0,0.85546874 0.597656,1.39453124 1.546875,1.39453124 0.585937,0 1.066406,-0.2109375 1.59375,-0.69140625 0.04687,0.46875 0.28125,0.69140625 0.773437,0.69140625 0.152344,0 0.269532,-0.0234375 0.503907,-0.0820313 z M 17.442523,-1.4752266 c 0,0.2460938 -0.08203,0.3984375 -0.304687,0.60937504 -0.304688,0.28125 -0.667969,0.421875 -1.113281,0.421875 -0.574219,0 -0.914063,-0.28125 -0.914063,-0.76171874 0,-0.4921875 0.328125,-0.7382813 1.125,-0.8554688 0.785156,-0.1054687 0.949219,-0.140625 1.207031,-0.2578125 z m 0,0"
       style="fill:#000000;fill-opacity:1;fill-rule:nonzero;stroke:none"
       aria-label="Data"
       transform="matrix(1.3333333,0,0,1.3333333,28.325333,142.424)" />
    <path
       id="path15"
       d="m 5.9308906,-4.5123516 c -0.2578125,-1.4296875 -1.078125,-2.1328125 -2.5195312,-2.1328125 -0.8789063,0 -1.5820313,0.28125 -2.0625,0.8203125 -0.59765628,0.6445313 -0.91406253,1.5703125 -0.91406253,2.6367188 0,1.0664062 0.328125,1.9921875 0.94921873,2.63671874 0.5039063,0.515625 1.1484375,0.76171875 1.9921875,0.76171875 1.6054688,0 2.4960938,-0.8671875 2.6953125,-2.58984379 H 5.2043281 c -0.070312,0.4453125 -0.1523437,0.75 -0.2929687,1.0078125 -0.2695313,0.53906254 -0.8203125,0.84375004 -1.5234375,0.84375004 -1.3007813,0 -2.1210938,-1.04296874 -2.1210938,-2.67187504 0,-1.6757812 0.7851563,-2.7070312 2.0507813,-2.7070312 0.5273437,0 1.0195312,0.1640625 1.2890625,0.4101562 0.2460937,0.2226563 0.375,0.5039063 0.4804687,0.984375 z m 2.9794922,-0.3164062 c -1.3125,0 -2.109375,0.9375 -2.109375,2.5195312 0,1.57031254 0.7851563,2.51953129 2.1210938,2.51953129 1.3125004,0 2.1210934,-0.94921875 2.1210934,-2.48437499 0,-1.6289063 -0.773437,-2.5546875 -2.1328122,-2.5546875 z m 0.011719,0.6914062 c 0.84375,0 1.3476562,0.6796875 1.3476562,1.8515625 0,1.1015625 -0.5273437,1.80468754 -1.3476562,1.80468754 -0.8320313,0 -1.3476563,-0.69140624 -1.3476563,-1.82812504 0,-1.1367187 0.515625,-1.828125 1.3476563,-1.828125 z m 3.8964842,-2.4023437 h -0.75 v 6.5390624875 h 0.75 z m 1.989258,0 h -0.75 v 6.5390624875 h 0.75 z m 5.226562,4.4414062 c 0,-0.7148437 -0.04687,-1.1484375 -0.1875,-1.5 -0.304687,-0.7734375 -1.019531,-1.2304687 -1.898437,-1.2304687 -1.300782,0 -2.144532,0.9960937 -2.144532,2.5429687 0,1.54687504 0.808594,2.49609379 2.132813,2.49609379 1.066406,0 1.816406,-0.609375 2.003906,-1.64062499 h -0.75 c -0.210937,0.62109374 -0.632812,0.94921874 -1.230469,0.94921874 -0.480468,0 -0.878906,-0.22265625 -1.125,-0.60937504 -0.1875,-0.2695312 -0.246093,-0.5390625 -0.257812,-1.0078125 z m -3.433594,-0.609375 c 0.05859,-0.8671875 0.585938,-1.4296875 1.335938,-1.4296875 0.738281,0 1.300781,0.609375 1.300781,1.3710938 0,0.023437 0,0.035156 0,0.058594 z m 8.041993,-0.4101562 c -0.03516,-0.4570313 -0.128907,-0.75 -0.304688,-1.0195313 -0.328125,-0.4335937 -0.890625,-0.6914062 -1.546875,-0.6914062 -1.265625,0 -2.085937,0.9960937 -2.085937,2.5546875 0,1.52343749 0.808593,2.48437499 2.074218,2.48437499 1.125,0 1.828125,-0.6796875 1.921875,-1.82812499 h -0.75 c -0.128906,0.76171874 -0.515625,1.13671874 -1.148437,1.13671874 -0.832031,0 -1.324219,-0.67968754 -1.324219,-1.79296874 0,-1.171875 0.492188,-1.8632813 1.300781,-1.8632813 0.632813,0 1.019532,0.3632813 1.113282,1.0195313 z m 2.540039,-1.5820313 h -0.761719 v -1.2890625 h -0.75 v 1.2890625 h -0.632813 v 0.609375 h 0.632813 v 3.55078129 c 0,0.48046875 0.328125,0.75 0.902344,0.75 0.1875,0 0.363281,-0.0234375 0.609375,-0.0703125 v -0.62109375 c -0.09375,0.0234375 -0.210938,0.0351563 -0.351563,0.0351563 -0.328125,0 -0.410156,-0.09375 -0.410156,-0.421875 V -4.0904766 h 0.761719 z m 1.567383,0 h -0.75 v 4.6992187875 h 0.75 z m 0,-1.8398437 h -0.761719 v 0.9492187 h 0.761719 z m 3.079101,1.7109375 c -1.3125,0 -2.109375,0.9375 -2.109375,2.5195312 0,1.57031254 0.785156,2.51953129 2.121094,2.51953129 1.3125,0 2.121094,-0.94921875 2.121094,-2.48437499 0,-1.6289063 -0.773438,-2.5546875 -2.132813,-2.5546875 z m 0.01172,0.6914062 c 0.84375,0 1.347656,0.6796875 1.347656,1.8515625 0,1.1015625 -0.527344,1.80468754 -1.347656,1.80468754 -0.832031,0 -1.347656,-0.69140624 -1.347656,-1.82812504 0,-1.1367187 0.515625,-1.828125 1.347656,-1.828125 z m 3.169922,-0.5625 v 4.6992187875 h 0.75 V -2.5904766 c 0,-0.9609375 0.503906,-1.5820312 1.265625,-1.5820312 0.597656,0 0.972656,0.3515625 0.972656,0.9140625 v 3.2578124875 h 0.75 V -3.5514141 c 0,-0.7734375 -0.585938,-1.2773437 -1.488281,-1.2773437 -0.703125,0 -1.148438,0.2695312 -1.570313,0.9140625 v -0.7851563 z m 0,0"
       style="fill:#000000;fill-opacity:1;fill-rule:nonzero;stroke:none"
       aria-label="Collection"
       transform="matrix(1.3333333,0,0,1.3333333,14.709333,157.036)" />
    <path
       id="path16"
       d="m 317.88145,-70.85068 h 60.67873 v 25.98376 h -60.67873 z"
       style="fill:#fad4af;fill-opacity:1;fill-rule:nonzero;stroke:#e67817;stroke-width:0.74721;stroke-linecap:butt;stroke-linejoin:miter;stroke-miterlimit:10;stroke-dasharray:none;stroke-opacity:1"
       transform="matrix(1.3333333,0,0,-1.3333333,81.9,69.657333)" />
    <path
       id="path17"
       d="M 4.1939297,0.00133594 6.0337734,-5.4713203 V 0.00133594 H 6.8189297 V -6.5377266 H 5.6587734 L 3.7603359,-0.84241406 1.8267422,-6.5377266 H 0.66658594 V 0.00133594 H 1.4634609 V -5.4713203 L 3.3150234,0.00133594 Z M 9.9068203,-4.8267891 c -1.3125,0 -2.109375,0.9375 -2.109375,2.5195313 0,1.57031249 0.7851563,2.51953124 2.1210938,2.51953124 1.3124999,0 2.1210939,-0.94921875 2.1210939,-2.48437504 0,-1.6289062 -0.773438,-2.5546875 -2.1328127,-2.5546875 z m 0.011719,0.6914063 c 0.8437497,0 1.3476557,0.6796875 1.3476557,1.8515625 0,1.1015625 -0.527343,1.80468749 -1.3476557,1.80468749 -0.8320313,0 -1.3476563,-0.69140629 -1.3476563,-1.82812499 0,-1.1367188 0.515625,-1.828125 1.3476563,-1.828125 z m 6.9785157,-2.4023438 h -0.75 v 2.4375 c -0.316407,-0.4804687 -0.808594,-0.7265625 -1.441407,-0.7265625 -1.21875,0 -2.015625,0.9726563 -2.015625,2.4726563 0,1.58203124 0.773438,2.56640624 2.039063,2.56640624 0.644531,0 1.101562,-0.24609375 1.5,-0.83203125 v 0.62109375 h 0.667969 z m -2.0625,2.4023438 c 0.808593,0 1.3125,0.7265625 1.3125,1.8398437 0,1.0898438 -0.515625,1.80468754 -1.3125,1.80468754 -0.820313,0 -1.371094,-0.72656254 -1.371094,-1.81640624 0,-1.1015625 0.550781,-1.828125 1.371094,-1.828125 z m 7.198242,2.0390625 c 0,-0.7148438 -0.04687,-1.1484375 -0.1875,-1.5 -0.304688,-0.7734375 -1.019531,-1.2304688 -1.898438,-1.2304688 -1.300781,0 -2.144531,0.9960938 -2.144531,2.5429688 0,1.54687499 0.808594,2.49609374 2.132813,2.49609374 1.066406,0 1.816406,-0.609375 2.003906,-1.64062504 h -0.75 c -0.210938,0.62109379 -0.632813,0.94921879 -1.230469,0.94921879 -0.480469,0 -0.878906,-0.22265625 -1.125,-0.60937499 -0.1875,-0.2695313 -0.246094,-0.5390625 -0.257812,-1.0078125 z m -3.433594,-0.609375 c 0.05859,-0.8671875 0.585938,-1.4296875 1.335938,-1.4296875 0.738281,0 1.300781,0.609375 1.300781,1.3710937 0,0.023437 0,0.035156 0,0.058594 z m 5.185547,-3.8320313 h -0.75 v 6.53906254 h 0.75 z m 0,0"
       style="fill:#000000;fill-opacity:1;fill-rule:nonzero;stroke:none"
       aria-label="Model"
       transform="matrix(1.3333333,0,0,1.3333333,529.912,142.424)" />
    <path
       id="path18"
       d="M 4.1947969,-6.328125e-4 6.0346406,-5.4732891 V -6.328125e-4 H 6.8197969 V -6.5396953 H 5.6596406 L 3.7612031,-0.84438281 1.8276094,-6.5396953 H 0.66745312 V -6.328125e-4 H 1.4643281 V -5.4732891 L 3.3158906,-6.328125e-4 Z M 9.9076875,-4.8287578 c -1.3125,0 -2.109375,0.9375 -2.109375,2.5195312 0,1.57031254 0.7851562,2.51953129 2.1210937,2.51953129 1.3124998,0 2.1210938,-0.94921875 2.1210938,-2.48437499 0,-1.6289063 -0.773438,-2.5546875 -2.1328125,-2.5546875 z m 0.011719,0.6914062 c 0.8437495,0 1.3476555,0.6796875 1.3476555,1.8515625 0,1.1015625 -0.527343,1.80468754 -1.3476555,1.80468754 -0.8320312,0 -1.3476562,-0.69140624 -1.3476562,-1.82812504 0,-1.1367187 0.515625,-1.828125 1.3476562,-1.828125 z m 3.1669915,-0.5625 v 4.6992187875 h 0.75 V -2.5904766 c 0,-0.9609375 0.503907,-1.5820312 1.265625,-1.5820312 0.597657,0 0.972657,0.3515625 0.972657,0.9140625 v 3.2578124875 h 0.75 V -3.5514141 c 0,-0.7734375 -0.585938,-1.2773437 -1.488282,-1.2773437 -0.703125,0 -1.148437,0.2695312 -1.570312,0.9140625 v -0.7851563 z m 5.701172,0 h -0.75 v 4.6992187875 h 0.75 z m 0,-1.8398437 h -0.761718 v 0.9492187 h 0.761718 z m 2.915039,1.8398437 h -0.761718 v -1.2890625 h -0.75 v 1.2890625 h -0.632813 v 0.609375 h 0.632813 v 3.55078129 c 0,0.48046875 0.328125,0.75 0.902343,0.75 0.1875,0 0.363282,-0.0234375 0.609375,-0.0703125 v -0.62109375 c -0.09375,0.0234375 -0.210937,0.0351563 -0.351562,0.0351563 -0.328125,0 -0.410156,-0.09375 -0.410156,-0.421875 V -4.0904766 h 0.761718 z m 2.657227,-0.1289062 c -1.3125,0 -2.109375,0.9375 -2.109375,2.5195312 0,1.57031254 0.785156,2.51953129 2.121094,2.51953129 1.3125,0 2.121093,-0.94921875 2.121093,-2.48437499 0,-1.6289063 -0.773437,-2.5546875 -2.132812,-2.5546875 z m 0.01172,0.6914062 c 0.84375,0 1.347656,0.6796875 1.347656,1.8515625 0,1.1015625 -0.527344,1.80468754 -1.347656,1.80468754 -0.832032,0 -1.347657,-0.69140624 -1.347657,-1.82812504 0,-1.1367187 0.515625,-1.828125 1.347657,-1.828125 z m 3.158203,-0.5625 v 4.6992187875 h 0.75 V -2.4381328 c 0,-0.6679688 0.175781,-1.1132813 0.527344,-1.3710938 0.234375,-0.1757812 0.457031,-0.2226562 0.984375,-0.234375 v -0.7617187 c -0.128907,-0.023437 -0.199219,-0.023437 -0.292969,-0.023437 -0.480469,0 -0.855469,0.28125 -1.277344,0.984375 v -0.8554688 z m 3.83789,0 h -0.75 v 4.6992187875 h 0.75 z m 0,-1.8398437 H 30.60593 v 0.9492187 h 0.761718 z m 1.274414,1.8398437 v 4.6992187875 h 0.75 V -2.5904766 c 0,-0.9609375 0.503907,-1.5820312 1.265625,-1.5820312 0.597657,0 0.972657,0.3515625 0.972657,0.9140625 v 3.2578124875 h 0.75 V -3.5514141 c 0,-0.7734375 -0.585938,-1.2773437 -1.488282,-1.2773437 -0.703125,0 -1.148437,0.2695312 -1.570312,0.9140625 v -0.7851563 z m 8.044922,0 v 0.6796875 c -0.375,-0.5507812 -0.832031,-0.8085937 -1.429687,-0.8085937 -1.195313,0 -2.003906,1.03125 -2.003906,2.5546875 0,0.7734375 0.210937,1.40624999 0.597656,1.85156249 0.351562,0.3984375 0.84375,0.6328125 1.335937,0.6328125 0.597657,0 1.007813,-0.2578125 1.429688,-0.84375 v 0.234375 c 0,0.64453125 -0.08203,1.03125 -0.269531,1.2890625 -0.199219,0.26953121 -0.585938,0.43359371 -1.042969,0.43359371 -0.339844,0 -0.644531,-0.082031 -0.84375,-0.2460937 -0.175782,-0.14062501 -0.246095,-0.25781251 -0.29297,-0.53906251 h -0.761719 c 0.08203,0.89062501 0.773438,1.41796871 1.875,1.41796871 0.703125,0 1.300782,-0.2226562 1.605469,-0.5976562 0.363281,-0.43359376 0.492188,-1.03125001 0.492188,-2.13281251 V -4.6998516 Z m -1.347656,0.5625 c 0.808594,0 1.277344,0.6796875 1.277344,1.8515625 0,1.125 -0.480469,1.80468754 -1.277344,1.80468754 -0.808594,0 -1.300781,-0.69140624 -1.300781,-1.82812504 0,-1.1367187 0.503906,-1.828125 1.300781,-1.828125 z m 0,0"
       style="fill:#000000;fill-opacity:1;fill-rule:nonzero;stroke:none"
       aria-label="Monitoring"
       transform="matrix(1.3333333,0,0,1.3333333,518.196,157.036)" />
    <path
       id="path19"
       d="M 165.37209,0 H 250.4729"
       style="fill:none;stroke:#808080;stroke-width:0.99628;stroke-linecap:butt;stroke-linejoin:miter;stroke-miterlimit:10;stroke-dasharray:none;stroke-opacity:1"
       transform="matrix(1.3333333,0,0,-1.3333333,81.9,69.657333)" />
    <path
       id="path20"
       d="M 4.5399,0 0.49814,1.77573 V 0 -1.77573 Z"
       style="fill:#808080;fill-opacity:1;fill-rule:nonzero;stroke:#808080;stroke-width:0.99628;stroke-linecap:butt;stroke-linejoin:miter;stroke-miterlimit:10;stroke-dasharray:none;stroke-opacity:1"
       transform="matrix(1.3333333,0,0,-1.3333333,415.53177,69.657333)" />
    <path
       id="path21"
       d="M 169.97964,-7.6633 H 251.4743 V 7.6633 h -81.49466 z"
       style="fill:#e9e9e9;fill-opacity:1;fill-rule:nonzero;stroke:none"
       transform="matrix(1.3333333,0,0,-1.3333333,81.9,69.657333)" />
    <path
       id="path22"
       d="M 3.7272344,1.640625e-4 5.3678594,-4.8631172 V 1.640625e-4 H 6.0592656 V -5.8123359 H 5.0397344 l -1.6875,5.06249996 L 1.6295781,-5.8123359 H 0.59832813 V 1.640625e-4 H 1.3014531 V -4.8631172 L 2.9537969,1.640625e-4 Z M 10.729188,-1.8631172 c 0,-0.6445312 -0.04687,-1.0195312 -0.164063,-1.3359375 -0.28125,-0.6796875 -0.9140625,-1.1015625 -1.6992187,-1.1015625 -1.1601563,0 -1.9101563,0.9023438 -1.9101563,2.2734375 0,1.37109376 0.7265625,2.21484376 1.8984375,2.21484376 0.9609375,0 1.6171875,-0.55078125 1.7812505,-1.45312496 H 9.9674688 c -0.1757813,0.55078121 -0.5507813,0.83203121 -1.0898438,0.83203121 -0.421875,0 -0.7851562,-0.1875 -1.0078125,-0.5390625 C 7.7174688,-1.2068672 7.658875,-1.4529609 7.6471563,-1.8631172 Z M 7.6705938,-2.4021797 c 0.046875,-0.7734375 0.5273437,-1.2773437 1.1953125,-1.2773437 0.6445312,0 1.1484377,0.5390625 1.1484377,1.2304687 0,0.011719 0,0.023437 0,0.046875 z m 7.4882812,0.5390625 c 0,-0.6445312 -0.04687,-1.0195312 -0.164062,-1.3359375 -0.28125,-0.6796875 -0.914063,-1.1015625 -1.699219,-1.1015625 -1.160156,0 -1.910156,0.9023438 -1.910156,2.2734375 0,1.37109376 0.726562,2.21484376 1.898437,2.21484376 0.960938,0 1.617188,-0.55078125 1.78125,-1.45312496 h -0.667969 c -0.175781,0.55078121 -0.550781,0.83203121 -1.089843,0.83203121 -0.421875,0 -0.785157,-0.1875 -1.007813,-0.5390625 C 12.147156,-1.2068672 12.088563,-1.4529609 12.076844,-1.8631172 Z m -3.058594,-0.5390625 c 0.04687,-0.7734375 0.527344,-1.2773437 1.195313,-1.2773437 0.644531,0 1.148437,0.5390625 1.148437,1.2304687 0,0.011719 0,0.023437 0,0.046875 z m 5.428711,-1.7695312 h -0.691406 v -1.1484375 h -0.65625 v 1.1484375 h -0.5625 v 0.5390625 h 0.5625 v 3.15234371 c 0,0.421875 0.28125,0.66796875 0.796875,0.66796875 0.164062,0 0.328125,-0.0234375 0.550781,-0.0585938 v -0.5625 c -0.09375,0.0234375 -0.199219,0.0351563 -0.316406,0.0351563 -0.292969,0 -0.375,-0.0820313 -0.375,-0.375 V -3.6326484 h 0.691406 z m 3.679688,1.1601562 c -0.01172,-0.8203125 -0.550782,-1.2890625 -1.511719,-1.2890625 -0.972656,0 -1.605469,0.5039063 -1.605469,1.2773438 0,0.65625 0.339844,0.9726562 1.324219,1.2070312 l 0.621094,0.1523438 c 0.457031,0.1054687 0.644531,0.28125 0.644531,0.5859375 0,0.38671871 -0.386719,0.64453121 -0.972656,0.64453121 -0.363282,0 -0.65625,-0.10546875 -0.832032,-0.28125 -0.105468,-0.1171875 -0.152343,-0.234375 -0.1875,-0.52734371 h -0.703125 c 0.03516,0.96093746 0.574219,1.42968746 1.664063,1.42968746 1.054687,0 1.722656,-0.52734375 1.722656,-1.32421876 0,-0.6210937 -0.351562,-0.9726562 -1.183594,-1.171875 l -0.632812,-0.140625 c -0.539063,-0.1289062 -0.773438,-0.3046875 -0.773438,-0.5976562 0,-0.3867188 0.339844,-0.6328125 0.890625,-0.6328125 0.527344,0 0.820313,0.234375 0.832032,0.6679687 z m 4.177734,0.5039063 h 1.921875 c 0.65625,0 0.949219,0.328125 0.949219,1.0429687 v 0.51562501 c 0,0.36328125 0.05859,0.71484375 0.164062,0.9492187525 h 0.902344 V -0.18733594 c -0.28125,-0.1875 -0.339844,-0.3984375 -0.351562,-1.17187496 -0.01172,-0.9492188 -0.164063,-1.2421875 -0.796875,-1.5117188 0.65625,-0.3164062 0.925781,-0.7265625 0.925781,-1.3828125 0,-1.0078125 -0.632813,-1.5585937 -1.769531,-1.5585937 H 24.648133 V 1.640625e-4 h 0.738281 z m 0,-0.6445313 v -2.0039062 h 1.792969 c 0.421875,0 0.65625,0.058594 0.84375,0.2226562 0.199219,0.1640625 0.304687,0.4335938 0.304687,0.7851563 0,0.6796875 -0.351562,0.9960937 -1.148437,0.9960937 z m 8.367188,1.2890625 c 0,-0.6445312 -0.04687,-1.0195312 -0.164063,-1.3359375 -0.28125,-0.6796875 -0.914062,-1.1015625 -1.699219,-1.1015625 -1.160156,0 -1.910156,0.9023438 -1.910156,2.2734375 0,1.37109376 0.726563,2.21484376 1.898438,2.21484376 0.960937,0 1.617187,-0.55078125 1.78125,-1.45312496 h -0.667969 c -0.175781,0.55078121 -0.550781,0.83203121 -1.089844,0.83203121 -0.421875,0 -0.785156,-0.1875 -1.007812,-0.5390625 C 30.741883,-1.2068672 30.683289,-1.4529609 30.67157,-1.8631172 Z m -3.058594,-0.5390625 c 0.04687,-0.7734375 0.527344,-1.2773437 1.195312,-1.2773437 0.644532,0 1.148438,0.5390625 1.148438,1.2304687 0,0.011719 0,0.023437 0,0.046875 z m 7.350586,4.1367188 v -5.90625 h -0.597656 v 0.5507812 C 37.14325,-4.0545234 36.6745,-4.3006172 36.123719,-4.3006172 c -1.101563,0 -1.816406,0.9023438 -1.816406,2.296875 0,1.34765626 0.679687,2.19140626 1.78125,2.19140626 0.585937,0 0.984375,-0.2109375 1.289062,-0.66796875 V 1.7345391 Z m -1.828125,-5.4023438 c 0.703125,0 1.160156,0.6328125 1.160156,1.640625 0,0.9492188 -0.457031,1.59375001 -1.160156,1.59375001 -0.738281,0 -1.21875,-0.64453121 -1.21875,-1.61718751 0,-0.9726562 0.480469,-1.6171875 1.21875,-1.6171875 z M 42.369813,1.640625e-4 V -4.1717109 h -0.667969 v 2.3671875 c 0,0.84374996 -0.445313,1.40624996 -1.136719,1.40624996 -0.527344,0 -0.855469,-0.31640625 -0.855469,-0.82031246 v -2.953125 h -0.667968 v 3.21093746 c 0,0.703125 0.515625,1.1484375 1.335937,1.1484375 0.609375,0 0.996094,-0.22265625 1.394531,-0.7734375 V 1.640625e-4 Z M 44.153992,-4.1717109 h -0.65625 V 1.640625e-4 h 0.65625 z m 0,-1.640625 h -0.667969 v 0.84375 h 0.667969 z m 1.125,1.640625 V 1.640625e-4 h 0.667969 V -2.1678047 c 0,-0.5976562 0.152344,-0.984375 0.46875,-1.21875 0.210937,-0.1523437 0.410156,-0.1992187 0.867187,-0.2109375 v -0.6679687 c -0.105468,-0.023437 -0.164062,-0.035156 -0.246093,-0.035156 -0.433594,0 -0.761719,0.2578125 -1.148438,0.8789063 v -0.75 z m 6.19336,2.3085937 c 0,-0.6445312 -0.04687,-1.0195312 -0.164063,-1.3359375 -0.28125,-0.6796875 -0.914062,-1.1015625 -1.699219,-1.1015625 -1.160156,0 -1.910156,0.9023438 -1.910156,2.2734375 0,1.37109376 0.726563,2.21484376 1.898438,2.21484376 0.960937,0 1.617187,-0.55078125 1.78125,-1.45312496 h -0.667969 c -0.175781,0.55078121 -0.550781,0.83203121 -1.089844,0.83203121 -0.421875,0 -0.785156,-0.1875 -1.007812,-0.5390625 C 48.460633,-1.2068672 48.402039,-1.4529609 48.39032,-1.8631172 Z m -3.058594,-0.5390625 c 0.04687,-0.7734375 0.527344,-1.2773437 1.195312,-1.2773437 0.644532,0 1.148438,0.5390625 1.148438,1.2304687 0,0.011719 0,0.023437 0,0.046875 z m 3.963867,-1.7695312 V 1.640625e-4 h 0.667969 V -2.6248359 c 0,-0.5976563 0.433594,-1.0898438 0.972656,-1.0898438 0.503906,0 0.773438,0.3046875 0.773438,0.84375 V 1.640625e-4 h 0.667968 V -2.6248359 c 0,-0.5976563 0.445313,-1.0898438 0.984375,-1.0898438 0.492188,0 0.773438,0.3164063 0.773438,0.84375 V 1.640625e-4 h 0.667969 V -3.1287422 c 0,-0.75 -0.433594,-1.171875 -1.207032,-1.171875 -0.5625,0 -0.890625,0.1757813 -1.289062,0.6445313 -0.246094,-0.4453125 -0.574219,-0.6445313 -1.125,-0.6445313 -0.550781,0 -0.914063,0.2109375 -1.277344,0.7148438 v -0.5859375 z m 10.166016,2.3085937 c 0,-0.6445312 -0.04687,-1.0195312 -0.164063,-1.3359375 -0.28125,-0.6796875 -0.914062,-1.1015625 -1.699219,-1.1015625 -1.160156,0 -1.910156,0.9023438 -1.910156,2.2734375 0,1.37109376 0.726563,2.21484376 1.898438,2.21484376 0.960937,0 1.617187,-0.55078125 1.78125,-1.45312496 h -0.667969 c -0.175781,0.55078121 -0.550781,0.83203121 -1.089844,0.83203121 -0.421875,0 -0.785156,-0.1875 -1.007812,-0.5390625 C 59.531922,-1.2068672 59.473328,-1.4529609 59.461609,-1.8631172 Z m -3.058594,-0.5390625 c 0.04687,-0.7734375 0.527344,-1.2773437 1.195312,-1.2773437 0.644532,0 1.148438,0.5390625 1.148438,1.2304687 0,0.011719 0,0.023437 0,0.046875 z m 3.960937,-1.7695312 V 1.640625e-4 h 0.667969 V -2.3084297 c 0,-0.84375 0.445313,-1.40625 1.125,-1.40625 0.527344,0 0.867188,0.3164063 0.867188,0.8203125 V 1.640625e-4 h 0.65625 V -3.1521797 c 0,-0.6914062 -0.515625,-1.1484375 -1.324219,-1.1484375 -0.621094,0 -1.019531,0.2460938 -1.382813,0.8320313 v -0.703125 z m 5.897461,0 h -0.691406 v -1.1484375 h -0.65625 v 1.1484375 h -0.5625 v 0.5390625 h 0.5625 v 3.15234371 c 0,0.421875 0.28125,0.66796875 0.796875,0.66796875 0.164063,0 0.328125,-0.0234375 0.550781,-0.0585938 v -0.5625 c -0.09375,0.0234375 -0.199218,0.0351563 -0.316406,0.0351563 -0.292969,0 -0.375,-0.0820313 -0.375,-0.375 V -3.6326484 h 0.691406 z m 3.679688,1.1601562 c -0.01172,-0.8203125 -0.550781,-1.2890625 -1.511719,-1.2890625 -0.972656,0 -1.605469,0.5039063 -1.605469,1.2773438 0,0.65625 0.339844,0.9726562 1.324219,1.2070312 l 0.621094,0.1523438 c 0.457031,0.1054687 0.644531,0.28125 0.644531,0.5859375 0,0.38671871 -0.386719,0.64453121 -0.972656,0.64453121 -0.363281,0 -0.65625,-0.10546875 -0.832031,-0.28125 -0.105469,-0.1171875 -0.152344,-0.234375 -0.1875,-0.52734371 h -0.703125 c 0.03516,0.96093746 0.574218,1.42968746 1.664062,1.42968746 1.054688,0 1.722656,-0.52734375 1.722656,-1.32421876 0,-0.6210937 -0.351562,-0.9726562 -1.183593,-1.171875 l -0.632813,-0.140625 c -0.539062,-0.1289062 -0.773437,-0.3046875 -0.773437,-0.5976562 0,-0.3867188 0.339843,-0.6328125 0.890625,-0.6328125 0.527343,0 0.820312,0.234375 0.832031,0.6679687 z m 0,0"
       style="fill:#000000;fill-opacity:1;fill-rule:nonzero;stroke:none"
       aria-label="MeetsRequirements"
       transform="matrix(1.3333333,0,0,1.3333333,313.85067,72.324)" />
    <path
       id="path23"
       d="M 134.65912,-12.4195 V -34.01608 H 30.71297 v 15.09541"
       style="fill:none;stroke:#808080;stroke-width:0.99628;stroke-linecap:butt;stroke-linejoin:miter;stroke-miterlimit:10;stroke-dasharray:none;stroke-opacity:1"
       transform="matrix(1.3333333,0,0,-1.3333333,81.9,69.657333)" />
    <path
       id="path24"
       d="M 4.5399,0 0.49814,1.77573 V 0 -1.77573 Z"
       style="fill:#808080;fill-opacity:1;fill-rule:nonzero;stroke:#808080;stroke-width:0.99628;stroke-linecap:butt;stroke-linejoin:miter;stroke-miterlimit:10;stroke-dasharray:none;stroke-opacity:1"
       transform="matrix(0,-1.3333333,-1.3333333,0,122.85063,95.216987)" />
    <path
       id="path25"
       d="m 42.98276,-41.67938 h 79.40659 v 15.3266 H 42.98276 Z"
       style="fill:#e9e9e9;fill-opacity:1;fill-rule:nonzero;stroke:none"
       transform="matrix(1.3333333,0,0,-1.3333333,81.9,69.657333)" />
    <path
       id="path26"
       d="m 5.1451094,-5.8117344 h -0.703125 v 4.7578125 L 1.4068281,-5.8117344 H 0.60995312 V 7.65625e-4 H 1.3130781 V -4.7101719 l 3,4.710937525 h 0.8320313 z m 4.6992187,3.9492188 c 0,-0.6445313 -0.046875,-1.0195313 -0.1640625,-1.3359375 -0.28125,-0.6796875 -0.9140625,-1.1015625 -1.6992187,-1.1015625 -1.1601563,0 -1.9101563,0.9023437 -1.9101563,2.2734375 0,1.37109373 0.7265625,2.21484373 1.8984375,2.21484373 0.9609375,0 1.6171875,-0.55078125 1.78125,-1.45312503 H 9.0826094 c -0.1757813,0.55078128 -0.5507813,0.83203128 -1.0898438,0.83203128 -0.421875,0 -0.7851562,-0.1875 -1.0078125,-0.5390625 C 6.8326094,-1.2062656 6.7740156,-1.4523594 6.7622969,-1.8625156 Z M 6.7857344,-2.4015781 c 0.046875,-0.7734375 0.5273437,-1.2773438 1.1953125,-1.2773438 0.6445312,0 1.1484375,0.5390625 1.1484375,1.2304688 0,0.011719 0,0.023437 0,0.046875 z m 7.4912106,0.5390625 c 0,-0.6445313 -0.04687,-1.0195313 -0.164062,-1.3359375 -0.28125,-0.6796875 -0.914063,-1.1015625 -1.699219,-1.1015625 -1.160156,0 -1.910156,0.9023437 -1.910156,2.2734375 0,1.37109373 0.726562,2.21484373 1.898437,2.21484373 0.960938,0 1.617188,-0.55078125 1.78125,-1.45312503 h -0.667968 c -0.175782,0.55078128 -0.550782,0.83203128 -1.089844,0.83203128 -0.421875,0 -0.785156,-0.1875 -1.007813,-0.5390625 C 11.265227,-1.2062656 11.206633,-1.4523594 11.194914,-1.8625156 Z m -3.058593,-0.5390625 c 0.04687,-0.7734375 0.527343,-1.2773438 1.195312,-1.2773438 0.644531,0 1.148438,0.5390625 1.148438,1.2304688 0,0.011719 0,0.023437 0,0.046875 z m 7.347656,-3.4101563 h -0.667969 v 2.1679688 c -0.28125,-0.421875 -0.726562,-0.65625 -1.277344,-0.65625 -1.089843,0 -1.792968,0.8789062 -1.792968,2.203125 0,1.41796873 0.691406,2.28515623 1.816406,2.28515623 0.574219,0 0.972656,-0.22265625 1.324219,-0.73828125 V 7.65625e-4 h 0.597656 z m -1.839844,2.1445313 c 0.714844,0 1.171875,0.6328125 1.171875,1.6289062 0,0.9609375 -0.457031,1.60546878 -1.160156,1.60546878 -0.738281,0 -1.21875,-0.64453128 -1.21875,-1.61718748 0,-0.9726563 0.480469,-1.6171875 1.207031,-1.6171875 z m 5.81543,0.65625 c -0.01172,-0.8203125 -0.550782,-1.2890625 -1.511719,-1.2890625 -0.972656,0 -1.605469,0.5039062 -1.605469,1.2773437 0,0.65625 0.339844,0.9726563 1.324219,1.2070313 l 0.621094,0.1523437 c 0.457031,0.1054688 0.644531,0.28125 0.644531,0.5859375 0,0.38671878 -0.386719,0.64453128 -0.972656,0.64453128 -0.363282,0 -0.65625,-0.10546875 -0.832032,-0.28125 -0.105468,-0.1171875 -0.152343,-0.234375 -0.1875,-0.52734378 h -0.703125 c 0.03516,0.96093753 0.574219,1.42968753 1.664063,1.42968753 1.054687,0 1.722656,-0.52734375 1.722656,-1.32421873 0,-0.6210938 -0.351562,-0.9726563 -1.183594,-1.171875 l -0.632812,-0.140625 c -0.539063,-0.1289063 -0.773438,-0.3046875 -0.773438,-0.5976563 0,-0.3867187 0.339844,-0.6328125 0.890625,-0.6328125 0.527344,0 0.820313,0.234375 0.832032,0.6679688 z M 26.7955,-5.8117344 h -0.75 V 7.65625e-4 h 0.75 z m 1.233398,1.640625 V 7.65625e-4 h 0.667969 V -2.6242344 c 0,-0.5976562 0.433594,-1.0898437 0.972656,-1.0898437 0.503907,0 0.773438,0.3046875 0.773438,0.84375 V 7.65625e-4 H 31.11093 V -2.6242344 c 0,-0.5976562 0.445312,-1.0898437 0.984375,-1.0898437 0.492187,0 0.773437,0.3164062 0.773437,0.84375 V 7.65625e-4 h 0.667969 V -3.1281406 c 0,-0.75 -0.433594,-1.171875 -1.207031,-1.171875 -0.5625,0 -0.890625,0.1757812 -1.289063,0.6445312 -0.246094,-0.4453125 -0.574219,-0.6445312 -1.125,-0.6445312 -0.550781,0 -0.914062,0.2109375 -1.277344,0.7148437 v -0.5859375 z m 6.509766,5.90625 h 0.667969 v -2.16796872 c 0.351562,0.421875 0.738281,0.62109375 1.277344,0.62109375 1.078125,0 1.792968,-0.8671875 1.792968,-2.20312503 0,-1.40625 -0.691406,-2.2851562 -1.792968,-2.2851562 -0.574219,0 -1.019532,0.2578125 -1.335938,0.75 v -0.6210938 h -0.609375 z m 1.828125,-5.4023437 c 0.738281,0 1.207031,0.6445312 1.207031,1.640625 0,0.9492187 -0.480468,1.59374998 -1.207031,1.59374998 -0.703125,0 -1.160156,-0.64453128 -1.160156,-1.61718748 0,-0.984375 0.457031,-1.6171875 1.160156,-1.6171875 z m 2.71875,-0.5039063 V 7.65625e-4 h 0.667969 V -2.1672031 c 0,-0.5976563 0.152344,-0.984375 0.46875,-1.21875 0.210937,-0.1523438 0.410156,-0.1992188 0.867187,-0.2109375 v -0.6679688 c -0.105468,-0.023437 -0.164062,-0.035156 -0.246093,-0.035156 -0.433594,0 -0.761719,0.2578125 -1.148438,0.8789062 v -0.75 z m 4.271484,-0.1289062 c -1.171875,0 -1.886718,0.84375 -1.886718,2.25 0,1.39453123 0.703125,2.23828123 1.898437,2.23828123 1.171875,0 1.886719,-0.84375 1.886719,-2.21484373 0,-1.4414063 -0.691406,-2.2734375 -1.898438,-2.2734375 z m 0.01172,0.6210937 c 0.75,0 1.195313,0.609375 1.195313,1.6523438 0,0.9726562 -0.46875,1.59374998 -1.195313,1.59374998 -0.75,0 -1.195312,-0.60937498 -1.195312,-1.61718748 0,-1.0078125 0.445312,-1.6289063 1.195312,-1.6289063 z m 4.40625,3.679687525 1.59375,-4.171875025 h -0.738281 l -1.183594,3.38671878 -1.113281,-3.38671878 h -0.75 L 47.04843,7.65625e-4 Z M 53.376555,-1.8625156 c 0,-0.6445313 -0.04687,-1.0195313 -0.164063,-1.3359375 -0.28125,-0.6796875 -0.914062,-1.1015625 -1.699219,-1.1015625 -1.160156,0 -1.910156,0.9023437 -1.910156,2.2734375 0,1.37109373 0.726563,2.21484373 1.898438,2.21484373 0.960937,0 1.617187,-0.55078125 1.78125,-1.45312503 h -0.667969 c -0.175781,0.55078128 -0.550781,0.83203128 -1.089844,0.83203128 -0.421875,0 -0.785156,-0.1875 -1.007812,-0.5390625 C 50.364836,-1.2062656 50.306242,-1.4523594 50.294523,-1.8625156 Z m -3.058594,-0.5390625 c 0.04687,-0.7734375 0.527344,-1.2773438 1.195312,-1.2773438 0.644532,0 1.148438,0.5390625 1.148438,1.2304688 0,0.011719 0,0.023437 0,0.046875 z m 3.963867,-1.7695313 V 7.65625e-4 h 0.667969 V -2.6242344 c 0,-0.5976562 0.433594,-1.0898437 0.972656,-1.0898437 0.503906,0 0.773438,0.3046875 0.773438,0.84375 V 7.65625e-4 h 0.667968 V -2.6242344 c 0,-0.5976562 0.445313,-1.0898437 0.984375,-1.0898437 0.492188,0 0.773438,0.3164062 0.773438,0.84375 V 7.65625e-4 h 0.667969 V -3.1281406 c 0,-0.75 -0.433594,-1.171875 -1.207032,-1.171875 -0.5625,0 -0.890625,0.1757812 -1.289062,0.6445312 -0.246094,-0.4453125 -0.574219,-0.6445312 -1.125,-0.6445312 -0.550781,0 -0.914063,0.2109375 -1.277344,0.7148437 v -0.5859375 z m 10.166016,2.3085938 c 0,-0.6445313 -0.04687,-1.0195313 -0.164063,-1.3359375 -0.28125,-0.6796875 -0.914062,-1.1015625 -1.699219,-1.1015625 -1.160156,0 -1.910156,0.9023437 -1.910156,2.2734375 0,1.37109373 0.726563,2.21484373 1.898438,2.21484373 0.960937,0 1.617187,-0.55078125 1.78125,-1.45312503 h -0.667969 c -0.175781,0.55078128 -0.550781,0.83203128 -1.089844,0.83203128 -0.421875,0 -0.785156,-0.1875 -1.007812,-0.5390625 C 61.436125,-1.2062656 61.377531,-1.4523594 61.365812,-1.8625156 Z M 61.38925,-2.4015781 c 0.04687,-0.7734375 0.527344,-1.2773438 1.195312,-1.2773438 0.644532,0 1.148438,0.5390625 1.148438,1.2304688 0,0.011719 0,0.023437 0,0.046875 z m 3.960937,-1.7695313 V 7.65625e-4 h 0.667969 V -2.3078281 c 0,-0.84375 0.445313,-1.40625 1.125,-1.40625 0.527344,0 0.867188,0.3164062 0.867188,0.8203125 V 7.65625e-4 h 0.65625 V -3.1515781 c 0,-0.6914063 -0.515625,-1.1484375 -1.324219,-1.1484375 -0.621094,0 -1.019531,0.2460937 -1.382813,0.8320312 v -0.703125 z m 5.897461,0 h -0.691406 v -1.1484375 h -0.65625 v 1.1484375 h -0.5625 v 0.5390625 h 0.5625 v 3.15234378 c 0,0.421875 0.28125,0.66796875 0.796875,0.66796875 0.164063,0 0.328125,-0.0234375 0.550781,-0.0585938 v -0.5625 c -0.09375,0.0234375 -0.199218,0.0351563 -0.316406,0.0351563 -0.292969,0 -0.375,-0.0820313 -0.375,-0.375 V -3.6320469 h 0.691406 z m 0,0"
       style="fill:#000000;fill-opacity:1;fill-rule:nonzero;stroke:none"
       aria-label="NeedsImprovement"
       transform="matrix(1.3333333,0,0,1.3333333,144.52267,117.67867)" />
    <path
       id="path27"
       d="M 317.50784,-57.78569 5.60883,-57.0397"
       style="fill:none;stroke:#808080;stroke-width:0.99628;stroke-linecap:butt;stroke-linejoin:miter;stroke-miterlimit:10;stroke-dasharray:none;stroke-opacity:1"
       transform="matrix(1.3333333,0,0,-1.3333333,81.9,69.657333)" />
    <path
       id="path28"
       d="M 4.5399,0 0.49814,1.77573 V 0 -1.77573 Z"
       style="fill:#808080;fill-opacity:1;fill-rule:nonzero;stroke:#808080;stroke-width:0.99628;stroke-linecap:butt;stroke-linejoin:miter;stroke-miterlimit:10;stroke-dasharray:none;stroke-opacity:1"
       transform="matrix(-1.3332933,-0.0032,-0.0032,1.3332933,89.710533,145.71108)" />
    <path
       id="path29"
       d="m 193.25099,-65.39868 h 89.75977 v 15.60564 h -89.75977 z"
       style="fill:#e9e9e9;fill-opacity:1;fill-rule:nonzero;stroke:none"
       transform="matrix(1.3333333,0,0,-1.3333333,81.9,69.657333)" />
    <path
       id="path30"
       d="m 1.4650234,-2.4611016 h 1.828125 c 0.4570313,0 0.8085938,-0.140625 1.125,-0.4101562 0.3515625,-0.328125 0.5039063,-0.703125 0.5039063,-1.2304688 0,-1.0898437 -0.65625,-1.7109375 -1.7929688,-1.7109375 H 0.72674219 V -1.640625e-4 H 1.4650234 Z m 0,-0.65625 v -2.0390625 h 1.546875 c 0.7148438,0 1.1367188,0.3867188 1.1367188,1.0195313 0,0.6328125 -0.421875,1.0195312 -1.1367188,1.0195312 z m 7.5410157,1.2539063 c 0,-0.6445313 -0.046875,-1.0195313 -0.1640625,-1.3359375 -0.28125,-0.6796875 -0.9140625,-1.1015625 -1.6992188,-1.1015625 -1.1601562,0 -1.9101562,0.9023437 -1.9101562,2.2734375 0,1.37109374 0.7265625,2.21484374 1.8984375,2.21484374 0.9609375,0 1.6171875,-0.55078125 1.78125,-1.45312504 H 8.2443203 c -0.1757812,0.55078129 -0.5507812,0.83203129 -1.0898437,0.83203129 -0.421875,0 -0.7851563,-0.1875 -1.0078125,-0.5390625 C 5.9943203,-1.2071953 5.9357266,-1.4532891 5.9240078,-1.8634453 Z M 5.9474453,-2.4025078 c 0.046875,-0.7734375 0.5273438,-1.2773438 1.1953125,-1.2773438 0.6445313,0 1.1484375,0.5390625 1.1484375,1.2304688 0,0.011719 0,0.023437 0,0.046875 z M 9.8995938,-4.1720391 V -1.640625e-4 H 10.567563 V -2.1681328 c 0,-0.5976563 0.152343,-0.984375 0.46875,-1.21875 0.210937,-0.1523438 0.410156,-0.1992188 0.867187,-0.2109375 v -0.6679688 c -0.105469,-0.023437 -0.164062,-0.035156 -0.246094,-0.035156 -0.433593,0 -0.761718,0.2578125 -1.148437,0.8789062 v -0.75 z m 4.1542972,0 h -0.691407 v -0.65625 c 0,-0.28125 0.164063,-0.421875 0.46875,-0.421875 0.04687,0 0.08203,0 0.222657,0.011719 v -0.5507813 c -0.140625,-0.035156 -0.234375,-0.046875 -0.375,-0.046875 -0.609375,0 -0.972657,0.3515625 -0.972657,0.9492188 v 0.7148437 h -0.5625 v 0.5390625 h 0.5625 v 3.6328125375 h 0.65625 V -3.6329766 h 0.691407 z m 2.094726,-0.1289062 c -1.171875,0 -1.886719,0.84375 -1.886719,2.25 0,1.39453124 0.703125,2.23828124 1.898438,2.23828124 1.171875,0 1.886719,-0.84375 1.886719,-2.21484374 0,-1.4414063 -0.691407,-2.2734375 -1.898438,-2.2734375 z m 0.01172,0.6210937 c 0.75,0 1.195312,0.609375 1.195312,1.6523438 0,0.9726562 -0.46875,1.59374999 -1.195312,1.59374999 -0.75,0 -1.195313,-0.60937499 -1.195313,-1.61718749 0,-1.0078125 0.445313,-1.6289063 1.195313,-1.6289063 z m 2.800781,-0.4921875 v 4.1718750375 h 0.667969 V -2.1681328 c 0,-0.5976563 0.152344,-0.984375 0.46875,-1.21875 0.210937,-0.1523438 0.410156,-0.1992188 0.867187,-0.2109375 v -0.6679688 c -0.105468,-0.023437 -0.164062,-0.035156 -0.246093,-0.035156 -0.433594,0 -0.761719,0.2578125 -1.148438,0.8789062 v -0.75 z m 2.856446,0 v 4.1718750375 h 0.667968 V -2.6251641 c 0,-0.5976562 0.433594,-1.0898437 0.972657,-1.0898437 0.503906,0 0.773437,0.3046875 0.773437,0.84375 v 2.8710937375 h 0.667969 V -2.6251641 c 0,-0.5976562 0.445312,-1.0898437 0.984375,-1.0898437 0.492187,0 0.773437,0.3164062 0.773437,0.84375 v 2.8710937375 h 0.667969 V -3.1290703 c 0,-0.75 -0.433594,-1.171875 -1.207031,-1.171875 -0.5625,0 -0.890625,0.1757812 -1.289063,0.6445312 -0.246093,-0.4453125 -0.574218,-0.6445312 -1.125,-0.6445312 -0.550781,0 -0.914062,0.2109375 -1.277343,0.7148437 v -0.5859375 z m 10.344726,3.78515629 c -0.07031,0.0117188 -0.105469,0.0117188 -0.140625,0.0117188 -0.234375,0 -0.363281,-0.1171875 -0.363281,-0.328125 V -3.1525078 c 0,-0.75 -0.539063,-1.1484375 -1.570313,-1.1484375 -0.609375,0 -1.113281,0.1757812 -1.382812,0.4921875 -0.199219,0.2109375 -0.269531,0.4570312 -0.292969,0.8671875 h 0.667969 c 0.05859,-0.5039063 0.363281,-0.7382813 0.984375,-0.7382813 0.597656,0 0.9375,0.2226563 0.9375,0.6210938 v 0.1757812 c 0,0.28125 -0.175781,0.3984375 -0.703125,0.4570313 -0.9375,0.1171875 -1.078125,0.1523437 -1.335938,0.2578125 -0.480468,0.1992187 -0.726562,0.5742187 -0.726562,1.1132812 0,0.76171879 0.515625,1.24218754 1.371094,1.24218754 0.515625,0 0.9375,-0.1875000025 1.417968,-0.62109375 0.04687,0.421875 0.246094,0.62109375 0.679688,0.62109375 0.140625,0 0.234375,-0.0234375 0.457031,-0.0703125 z M 31.002133,-1.3126641 c 0,0.2226563 -0.07031,0.35156254 -0.269531,0.53906254 -0.269532,0.24609375 -0.597657,0.375 -0.984375,0.375 -0.515625,0 -0.820313,-0.24609375 -0.820313,-0.66796874 0,-0.4453125 0.292969,-0.6679688 0.996094,-0.7617188 0.703125,-0.1054687 0.84375,-0.1289062 1.078125,-0.234375 z m 1.886719,-2.859375 V -1.640625e-4 H 33.55682 V -2.3087578 c 0,-0.84375 0.445313,-1.40625 1.125,-1.40625 0.527344,0 0.867188,0.3164062 0.867188,0.8203125 v 2.8945312375 h 0.65625 V -3.1525078 c 0,-0.6914063 -0.515625,-1.1484375 -1.324219,-1.1484375 -0.621094,0 -1.019531,0.2460937 -1.382812,0.8320312 v -0.703125 z m 7.620117,1.3945313 c -0.02344,-0.3984375 -0.117188,-0.6679688 -0.28125,-0.890625 -0.28125,-0.3984375 -0.785156,-0.6328125 -1.359375,-0.6328125 -1.125,0 -1.863281,0.9023437 -1.863281,2.2851562 0,1.34765629 0.714843,2.20312504 1.851562,2.20312504 0.996094,0 1.628906,-0.59765625 1.699219,-1.61718754 h -0.667969 c -0.105469,0.66796879 -0.457031,0.99609379 -1.019531,0.99609379 -0.726563,0 -1.171875,-0.59765629 -1.171875,-1.58203129 0,-1.0429687 0.433594,-1.6640625 1.160156,-1.6640625 0.550781,0 0.902344,0.328125 0.984375,0.9023438 z m 4.324219,0.9140625 c 0,-0.6445313 -0.04687,-1.0195313 -0.164063,-1.3359375 -0.28125,-0.6796875 -0.914062,-1.1015625 -1.699219,-1.1015625 -1.160156,0 -1.910156,0.9023437 -1.910156,2.2734375 0,1.37109374 0.726563,2.21484374 1.898438,2.21484374 0.960937,0 1.617187,-0.55078125 1.78125,-1.45312504 h -0.667969 c -0.175781,0.55078129 -0.550781,0.83203129 -1.089844,0.83203129 -0.421875,0 -0.785156,-0.1875 -1.007812,-0.5390625 C 41.821469,-1.2071953 41.762875,-1.4532891 41.751156,-1.8634453 Z m -3.058594,-0.5390625 c 0.04687,-0.7734375 0.527344,-1.2773438 1.195312,-1.2773438 0.644532,0 1.148438,0.5390625 1.148438,1.2304688 0,0.011719 0,0.023437 0,0.046875 z m 6.331054,2.4023437375 h 2.238282 c 1.464843,0 2.367187,-1.1015625375 2.367187,-2.9062500375 0,-1.8046875 -0.902344,-2.90625 -2.367187,-2.90625 H 48.105648 Z M 48.84393,-0.65641406 V -5.1564141 h 1.371093 c 1.148438,0 1.746094,0.7734375 1.746094,2.25 0,1.4765625 -0.597656,2.25000004 -1.746094,2.25000004 z m 8.390625,-1.20703124 c 0,-0.6445313 -0.04687,-1.0195313 -0.164063,-1.3359375 -0.28125,-0.6796875 -0.914062,-1.1015625 -1.699219,-1.1015625 -1.160156,0 -1.910156,0.9023437 -1.910156,2.2734375 0,1.37109374 0.726563,2.21484374 1.898438,2.21484374 0.960937,0 1.617187,-0.55078125 1.78125,-1.45312504 h -0.667969 c -0.175781,0.55078129 -0.550781,0.83203129 -1.089844,0.83203129 -0.421875,0 -0.785156,-0.1875 -1.007812,-0.5390625 C 54.222836,-1.2071953 54.164242,-1.4532891 54.152523,-1.8634453 Z m -3.058594,-0.5390625 c 0.04687,-0.7734375 0.527344,-1.2773438 1.195312,-1.2773438 0.644532,0 1.148438,0.5390625 1.148438,1.2304688 0,0.011719 0,0.023437 0,0.046875 z m 6.682617,-1.7695313 v 0.5976563 c -0.328125,-0.4921875 -0.738281,-0.7265625 -1.277344,-0.7265625 -1.054687,0 -1.769531,0.9257812 -1.769531,2.2851562 0,0.6796875 0.175781,1.24218754 0.527344,1.64062504 0.304687,0.3515625 0.75,0.5625 1.195312,0.5625 0.515625,0 0.890625,-0.22265625 1.265625,-0.75 v 0.2109375 c 0,0.5625 -0.07031,0.9140625 -0.246093,1.13671875 -0.175782,0.24609371 -0.515625,0.39843751 -0.925782,0.39843751 -0.292968,0 -0.574218,-0.082031 -0.75,-0.22265626 -0.152343,-0.12890625 -0.222656,-0.234375 -0.257812,-0.48046875 h -0.679688 c 0.07031,0.78515621 0.691407,1.25390621 1.664063,1.25390621 0.621094,0 1.160156,-0.1992187 1.429687,-0.5273437 0.316407,-0.38671876 0.445313,-0.91406251 0.445313,-1.88671876 V -4.1720391 Z m -1.207031,0.4921875 c 0.726562,0 1.148437,0.609375 1.148437,1.6523438 0,0.9960937 -0.433593,1.59374999 -1.136718,1.59374999 -0.726563,0 -1.160157,-0.60937499 -1.160157,-1.61718749 0,-1.0078125 0.445313,-1.6289063 1.148438,-1.6289063 z m 2.835937,-0.4921875 v 4.1718750375 h 0.667969 V -2.1681328 c 0,-0.5976563 0.152344,-0.984375 0.46875,-1.21875 0.210938,-0.1523438 0.410156,-0.1992188 0.867188,-0.2109375 v -0.6679688 c -0.105469,-0.023437 -0.164063,-0.035156 -0.246094,-0.035156 -0.433594,0 -0.761719,0.2578125 -1.148438,0.8789062 v -0.75 z m 6.28711,3.78515629 c -0.07031,0.0117188 -0.105469,0.0117188 -0.140625,0.0117188 -0.234375,0 -0.363281,-0.1171875 -0.363281,-0.328125 V -3.1525078 c 0,-0.75 -0.539063,-1.1484375 -1.570313,-1.1484375 -0.609375,0 -1.113281,0.1757812 -1.382812,0.4921875 -0.199219,0.2109375 -0.269532,0.4570312 -0.292969,0.8671875 h 0.667969 c 0.05859,-0.5039063 0.363281,-0.7382813 0.984375,-0.7382813 0.597656,0 0.9375,0.2226563 0.9375,0.6210938 v 0.1757812 c 0,0.28125 -0.175782,0.3984375 -0.703125,0.4570313 -0.9375,0.1171875 -1.078125,0.1523437 -1.335938,0.2578125 -0.480469,0.1992187 -0.726562,0.5742187 -0.726562,1.1132812 0,0.76171879 0.515625,1.24218754 1.371093,1.24218754 0.515625,0 0.9375,-0.1875000025 1.417969,-0.62109375 0.04687,0.421875 0.246094,0.62109375 0.679688,0.62109375 0.140625,0 0.234375,-0.0234375 0.457031,-0.0703125 z M 67.614438,-1.3126641 c 0,0.2226563 -0.07031,0.35156254 -0.269532,0.53906254 -0.269531,0.24609375 -0.597656,0.375 -0.984375,0.375 -0.515625,0 -0.820312,-0.24609375 -0.820312,-0.66796874 0,-0.4453125 0.292969,-0.6679688 0.996094,-0.7617188 0.703125,-0.1054687 0.84375,-0.1289062 1.078125,-0.234375 z m 5.276367,-4.5 h -0.667969 v 2.1679688 c -0.28125,-0.421875 -0.726563,-0.65625 -1.277344,-0.65625 -1.089844,0 -1.792969,0.8789062 -1.792969,2.203125 0,1.41796874 0.691407,2.28515624 1.816407,2.28515624 0.574218,0 0.972656,-0.22265625 1.324218,-0.73828125 v 0.5507812475 h 0.597657 z m -1.839844,2.1445313 c 0.714844,0 1.171875,0.6328125 1.171875,1.6289062 0,0.9609375 -0.457031,1.60546879 -1.160156,1.60546879 -0.738282,0 -1.21875,-0.64453129 -1.21875,-1.61718749 0,-0.9726563 0.480468,-1.6171875 1.207031,-1.6171875 z m 6.413086,1.8046875 c 0,-0.6445313 -0.04687,-1.0195313 -0.164063,-1.3359375 -0.28125,-0.6796875 -0.914062,-1.1015625 -1.699218,-1.1015625 -1.160157,0 -1.910157,0.9023437 -1.910157,2.2734375 0,1.37109374 0.726563,2.21484374 1.898438,2.21484374 0.960937,0 1.617187,-0.55078125 1.78125,-1.45312504 h -0.667969 c -0.175781,0.55078129 -0.550781,0.83203129 -1.089844,0.83203129 -0.421875,0 -0.785156,-0.1875 -1.007812,-0.5390625 C 74.452328,-1.2071953 74.393734,-1.4532891 74.382016,-1.8634453 Z m -3.058594,-0.5390625 c 0.04687,-0.7734375 0.527344,-1.2773438 1.195313,-1.2773438 0.644531,0 1.148437,0.5390625 1.148437,1.2304688 0,0.011719 0,0.023437 0,0.046875 z m 6.890625,-0.609375 c -0.01172,-0.8203125 -0.550781,-1.2890625 -1.511719,-1.2890625 -0.972656,0 -1.605468,0.5039062 -1.605468,1.2773437 0,0.65625 0.339843,0.9726563 1.324218,1.2070313 l 0.621094,0.1523437 c 0.457031,0.1054688 0.644531,0.28125 0.644531,0.5859375 0,0.38671879 -0.386718,0.64453129 -0.972656,0.64453129 -0.363281,0 -0.65625,-0.10546875 -0.832031,-0.28125 -0.105469,-0.1171875 -0.152344,-0.234375 -0.1875,-0.52734379 h -0.703125 c 0.03516,0.96093754 0.574219,1.42968754 1.664062,1.42968754 1.054688,0 1.722657,-0.52734375 1.722657,-1.32421874 0,-0.6210938 -0.351563,-0.9726563 -1.183594,-1.171875 l -0.632813,-0.140625 c -0.539062,-0.1289063 -0.773437,-0.3046875 -0.773437,-0.5976563 0,-0.3867187 0.339844,-0.6328125 0.890625,-0.6328125 0.527344,0 0.820312,0.234375 0.832031,0.6679688 z m 0,0"
       style="fill:#000000;fill-opacity:1;fill-rule:nonzero;stroke:none"
       aria-label="PerformanceDegrades"
       transform="matrix(1.3333333,0,0,1.3333333,344.87867,149.176)" />
    <path
       id="path31"
       d="M -30.71297,-44.49332 V 0 h 25.10396"
       style="fill:none;stroke:#808080;stroke-width:0.99628;stroke-linecap:butt;stroke-linejoin:miter;stroke-miterlimit:10;stroke-dasharray:none;stroke-opacity:1"
       transform="matrix(1.3333333,0,0,-1.3333333,81.9,69.657333)" />
    <path
       id="path32"
       d="M 4.5399,0 0.49814,1.77573 V 0 -1.77573 Z"
       style="fill:#808080;fill-opacity:1;fill-rule:nonzero;stroke:#808080;stroke-width:0.99628;stroke-linecap:butt;stroke-linejoin:miter;stroke-miterlimit:10;stroke-dasharray:none;stroke-opacity:1"
       transform="matrix(1.3333333,0,0,-1.3333333,74.089227,69.657333)" />
    <path
       id="path33"
       d="M 30.71297,13.31165 V 38.87761 H 46.36404"
       style="fill:none;stroke:#808080;stroke-width:0.99628;stroke-linecap:butt;stroke-linejoin:miter;stroke-miterlimit:10;stroke-dasharray:none;stroke-opacity:1"
       transform="matrix(1.3333333,0,0,-1.3333333,81.9,69.657333)" />
    <path
       id="path34"
       d="M 4.5399,0 0.49814,1.77573 V 0 -1.77573 Z"
       style="fill:#808080;fill-opacity:1;fill-rule:nonzero;stroke:#808080;stroke-width:0.99628;stroke-linecap:butt;stroke-linejoin:miter;stroke-miterlimit:10;stroke-dasharray:none;stroke-opacity:1"
       transform="matrix(1.3333333,0,0,-1.3333333,143.38663,17.82052)" />
    <path
       id="path35"
       d="m 113.399,38.87761 h 21.26012 V 18.0285"
       style="fill:none;stroke:#808080;stroke-width:0.99628;stroke-linecap:butt;stroke-linejoin:miter;stroke-miterlimit:10;stroke-dasharray:none;stroke-opacity:1"
       transform="matrix(1.3333333,0,0,-1.3333333,81.9,69.657333)" />
    <path
       id="path36"
       d="M 4.5399,0 0.49814,1.77573 V 0 -1.77573 Z"
       style="fill:#808080;fill-opacity:1;fill-rule:nonzero;stroke:#808080;stroke-width:0.99628;stroke-linecap:butt;stroke-linejoin:miter;stroke-miterlimit:10;stroke-dasharray:none;stroke-opacity:1"
       transform="matrix(0,1.3333333,1.3333333,0,261.44549,45.28724)" />
    <path
       id="path37"
       d="m 317.50784,0 h 30.71297 v -38.8843"
       style="fill:none;stroke:#808080;stroke-width:0.99628;stroke-linecap:butt;stroke-linejoin:miter;stroke-miterlimit:10;stroke-dasharray:none;stroke-opacity:1"
       transform="matrix(1.3333333,0,0,-1.3333333,81.9,69.657333)" />
    <path
       id="path38"
       d="M 4.5399,0 0.49814,1.77573 V 0 -1.77573 Z"
       style="fill:#808080;fill-opacity:1;fill-rule:nonzero;stroke:#808080;stroke-width:0.99628;stroke-linecap:butt;stroke-linejoin:miter;stroke-miterlimit:10;stroke-dasharray:none;stroke-opacity:1"
       transform="matrix(0,1.3333333,1.3333333,0,546.19441,121.17096)" />
  </g>
</svg>
