<?xml version="1.0" encoding="UTF-8" standalone="no"?>
<!-- Created with Inkscape (http://www.inkscape.org/) -->

<svg
   version="1.1"
   id="svg1"
   width="273.44"
   height="130.52933"
   viewBox="0 0 273.44 130.52933"
   xmlns="http://www.w3.org/2000/svg"
   xmlns:svg="http://www.w3.org/2000/svg">
  <defs
     id="defs1" />
  <g
     id="g1">
    <path
       id="path1"
       d="M 22.67744,0 C 22.67744,12.52455 12.52455,22.67744 0,22.67744 -12.52455,22.67744 -22.67744,12.52455 -22.67744,0 c 0,-12.52455 10.15289,-22.67744 22.67744,-22.67744 12.52455,0 22.67744,10.15289 22.67744,22.67744 z"
       style="fill:#f6f2f1;fill-opacity:1;fill-rule:nonzero;stroke:#8f7874;stroke-width:0.74721;stroke-linecap:butt;stroke-linejoin:round;stroke-miterlimit:10;stroke-dasharray:none;stroke-opacity:1"
       transform="matrix(1.0666667,0,0,-1.0666667,138.48853,24.588)" />
    <path
       id="path2"
       d="m 126.14357,-60.94592 c 0,12.52455 -10.15288,22.67744 -22.67744,22.67744 -12.52456,0 -22.67745,-10.15289 -22.67745,-22.67744 0,-12.52457 10.15289,-22.67745 22.67745,-22.67745 12.52456,0 22.67744,10.15288 22.67744,22.67745 z"
       style="fill:#f1fedb;fill-opacity:1;fill-rule:nonzero;stroke:#008f45;stroke-width:0.74721;stroke-linecap:butt;stroke-linejoin:round;stroke-miterlimit:10;stroke-dasharray:none;stroke-opacity:1"
       transform="matrix(1.0666667,0,0,-1.0666667,138.48853,24.588)" />
    <path
       id="path3"
       d="m -80.78868,-60.94592 c 0,12.52455 -10.15289,22.67744 -22.67745,22.67744 -12.52456,0 -22.67744,-10.15289 -22.67744,-22.67744 0,-12.52457 10.15288,-22.67745 22.67744,-22.67745 12.52456,0 22.67745,10.15288 22.67745,22.67745 z"
       style="fill:#fdeedf;fill-opacity:1;fill-rule:nonzero;stroke:#e67817;stroke-width:0.74721;stroke-linecap:butt;stroke-linejoin:round;stroke-miterlimit:10;stroke-dasharray:none;stroke-opacity:1"
       transform="matrix(1.0666667,0,0,-1.0666667,138.48853,24.588)" />
    <path
       id="path4"
       d="M 25.4395,-14.98506 78.02663,-45.96085"
       style="fill:none;stroke:#b380b3;stroke-width:2.98883;stroke-linecap:butt;stroke-linejoin:round;stroke-miterlimit:10;stroke-dasharray:none;stroke-opacity:1"
       transform="matrix(1.0666667,0,0,-1.0666667,138.48853,24.588)" />
    <path
       id="path5"
       d="M 3.72704,0 0.59775,2.28194 V 0 -2.28194 Z"
       style="fill:#b380b3;fill-opacity:1;fill-rule:nonzero;stroke:#b380b3;stroke-width:1.19553;stroke-linecap:butt;stroke-linejoin:miter;stroke-miterlimit:10;stroke-dasharray:none;stroke-opacity:1"
       transform="matrix(-0.919008,-0.54133333,-0.54133333,0.919008,165.89869,40.733867)" />
    <path
       id="path6"
       d="M 3.72704,0 0.59775,2.28194 V 0 -2.28194 Z"
       style="fill:#b380b3;fill-opacity:1;fill-rule:nonzero;stroke:#b380b3;stroke-width:1.19553;stroke-linecap:butt;stroke-linejoin:miter;stroke-miterlimit:10;stroke-dasharray:none;stroke-opacity:1"
       transform="matrix(0.919008,0.54133333,0.54133333,-0.919008,221.44224,73.451104)" />
    <path
       id="path7"
       d="M -25.4395,-14.98506 -78.02663,-45.96085"
       style="fill:none;stroke:#b380b3;stroke-width:2.98883;stroke-linecap:butt;stroke-linejoin:round;stroke-miterlimit:10;stroke-dasharray:none;stroke-opacity:1"
       transform="matrix(1.0666667,0,0,-1.0666667,138.48853,24.588)" />
    <path
       id="path8"
       d="M 3.72704,0 0.59775,2.28194 V 0 -2.28194 Z"
       style="fill:#b380b3;fill-opacity:1;fill-rule:nonzero;stroke:#b380b3;stroke-width:1.19553;stroke-linecap:butt;stroke-linejoin:miter;stroke-miterlimit:10;stroke-dasharray:none;stroke-opacity:1"
       transform="matrix(0.919008,-0.54133333,-0.54133333,-0.919008,111.07838,40.733867)" />
    <path
       id="path9"
       d="M 3.72704,0 0.59775,2.28194 V 0 -2.28194 Z"
       style="fill:#b380b3;fill-opacity:1;fill-rule:nonzero;stroke:#b380b3;stroke-width:1.19553;stroke-linecap:butt;stroke-linejoin:miter;stroke-miterlimit:10;stroke-dasharray:none;stroke-opacity:1"
       transform="matrix(-0.919008,0.54133333,0.54133333,0.919008,55.534827,73.451104)" />
    <path
       id="path10"
       d="M -73.93927,-60.94592 H 73.93927"
       style="fill:none;stroke:#b380b3;stroke-width:2.98883;stroke-linecap:butt;stroke-linejoin:round;stroke-miterlimit:10;stroke-dasharray:none;stroke-opacity:1"
       transform="matrix(1.0666667,0,0,-1.0666667,138.48853,24.588)" />
    <path
       id="path11"
       d="M 3.72704,0 0.59775,2.28194 V 0 -2.28194 Z"
       style="fill:#b380b3;fill-opacity:1;fill-rule:nonzero;stroke:#b380b3;stroke-width:1.19553;stroke-linecap:butt;stroke-linejoin:miter;stroke-miterlimit:10;stroke-dasharray:none;stroke-opacity:1"
       transform="matrix(-1.0666667,0,0,1.0666667,59.938795,89.596981)" />
    <path
       id="path12"
       d="M 3.72704,0 0.59775,2.28194 V 0 -2.28194 Z"
       style="fill:#b380b3;fill-opacity:1;fill-rule:nonzero;stroke:#b380b3;stroke-width:1.19553;stroke-linecap:butt;stroke-linejoin:miter;stroke-miterlimit:10;stroke-dasharray:none;stroke-opacity:1"
       transform="matrix(1.0666667,0,0,-1.0666667,217.03827,89.596981)" />
    <path
       id="path13"
       d="m 4.2477871,-1.9646523 0.6738281,1.96289058 h 0.9375 L 3.5593105,-6.5349648 H 2.4899746 L 0.14622461,-0.00176172 H 1.0397793 L 1.7282559,-1.9646523 Z m -0.234375,-0.703125 H 1.933334 L 3.0173184,-5.6414102 Z M 7.3422695,-6.5349648 H 6.5951992 v 6.53320308 h 0.7470703 z m 4.3212895,1.8310546 v 0.6884766 c -0.38086,-0.5566406 -0.834961,-0.8203125 -1.435547,-0.8203125 -1.1865237,0 -1.9921878,1.0400391 -1.9921878,2.5634766 0,0.7763672 0.2050781,1.40624997 0.5859375,1.84570309 0.3515625,0.39550782 0.8496094,0.62988282 1.3476563,0.62988282 0.585937,0 0.996094,-0.24902344 1.420898,-0.83496094 v 0.234375 c 0,0.64453125 -0.07324,1.02539062 -0.263671,1.2890625 C 11.121566,1.1701133 10.740707,1.3312461 10.286605,1.3312461 9.9496914,1.3312461 9.6420742,1.228707 9.4369961,1.0675742 9.2612148,0.93573828 9.1879727,0.81855078 9.1440273,0.54023047 H 8.3823086 c 0.087891,0.87890623 0.7763672,1.40625003 1.8750004,1.40625003 0.703125,0 1.303711,-0.2197266 1.611328,-0.600586 0.351562,-0.42480466 0.483398,-1.01074216 0.483398,-2.12402341 V -4.7039102 Z m -1.347657,0.5566407 c 0.805664,0 1.274414,0.6884765 1.274414,1.8603515 0,1.1132813 -0.483398,1.80175784 -1.274414,1.80175784 -0.8056637,0 -1.3037106,-0.68847654 -1.3037106,-1.83105464 0,-1.1279297 0.4980469,-1.8310547 1.3037106,-1.8310547 z m 5.072022,-0.6884766 c -1.31836,0 -2.109375,0.9375 -2.109375,2.5195313 0,1.58203121 0.791015,2.51953121 2.124023,2.51953121 1.31836,0 2.124024,-0.9375 2.124024,-2.47558591 0,-1.6259766 -0.776367,-2.5634766 -2.138672,-2.5634766 z m 0.01465,0.6884766 c 0.84961,0 1.347657,0.6884765 1.347657,1.8603515 0,1.0986328 -0.527344,1.80175784 -1.347657,1.80175784 -0.834961,0 -1.347656,-0.68847654 -1.347656,-1.83105464 0,-1.1279297 0.512695,-1.8310547 1.347656,-1.8310547 z m 3.153076,-0.5566407 v 4.70214848 h 0.761719 V -2.4334023 c 0,-0.6738282 0.161133,-1.1132813 0.527344,-1.3769532 0.234375,-0.1757812 0.454102,-0.2197265 0.966797,-0.234375 v -0.7617187 c -0.117188,-0.014648 -0.175781,-0.029297 -0.27832,-0.029297 -0.483399,0 -0.84961,0.2929688 -1.289063,0.9814453 v -0.8496094 z m 3.845215,0 h -0.74707 v 4.70214848 h 0.74707 z m 0,-1.8310546 h -0.761718 v 0.9375 h 0.761718 z m 2.915039,1.8310546 h -0.761718 v -1.2890625 h -0.747071 v 1.2890625 H 23.17723 v 0.6152344 h 0.629883 v 3.54492189 c 0,0.48339844 0.322266,0.74707032 0.908203,0.74707032 0.175782,0 0.351563,-0.0146484 0.600586,-0.0585938 v -0.62988282 c -0.08789,0.0292969 -0.205078,0.0292969 -0.351562,0.0292969 -0.322266,0 -0.410156,-0.0878906 -0.410156,-0.41015625 V -4.0886758 h 0.761718 z m 0.84961,-1.8310546 v 6.53320308 h 0.74707 V -2.5945352 c 0,-0.9521484 0.498047,-1.5820312 1.274414,-1.5820312 0.234375,0 0.483399,0.073242 0.65918,0.2050781 0.219726,0.1611328 0.307617,0.3808594 0.307617,0.7177735 v 3.25195308 h 0.732422 V -3.5466836 c 0,-0.7910156 -0.556641,-1.2890625 -1.479492,-1.2890625 -0.65918,0 -1.054688,0.2050781 -1.494141,0.7763672 v -2.4755859 z m 4.984131,1.8310546 v 4.70214848 h 0.74707 V -2.9460977 c 0,-0.6884765 0.498047,-1.2304687 1.113281,-1.2304687 0.541992,0 0.864258,0.3369141 0.864258,0.9375 v 3.23730468 h 0.74707 V -2.9460977 c 0,-0.6884765 0.498047,-1.2304687 1.113282,-1.2304687 0.541992,0 0.864257,0.3515625 0.864257,0.9375 v 3.23730468 h 0.747071 V -3.5320352 c 0,-0.8349609 -0.483399,-1.3037109 -1.362305,-1.3037109 -0.629883,0 -0.996094,0.1904297 -1.435547,0.7177734 -0.27832,-0.4980468 -0.65918,-0.7177734 -1.274414,-0.7177734 -0.615234,0 -1.025391,0.234375 -1.435547,0.8056641 v -0.6738282 z m 0,0"
       style="fill:#000000;fill-opacity:1;fill-rule:nonzero;stroke:none"
       aria-label="Algorithm"
       transform="matrix(1.0666667,0,0,1.0666667,118.22293,61.869067)" />
    <path
       id="path14"
       d="M 4.190875,0.00172461 6.0365781,-5.476791 V 0.00172461 H 6.8275938 V -6.5314785 H 5.6703672 L 3.7660703,-0.84788477 1.8324766,-6.5314785 H 0.67525 V 0.00172461 H 1.4662656 V -5.476791 l 1.8457032,5.47851561 z m 8.067627,-0.43945313 c -0.07324,0.0146484 -0.117188,0.0146484 -0.161133,0.0146484 -0.249023,0 -0.395508,-0.13183594 -0.395508,-0.36621094 V -3.5431973 c 0,-0.8349609 -0.615234,-1.2890625 -1.7724606,-1.2890625 -0.6738281,0 -1.2451172,0.2050782 -1.5527344,0.5419922 -0.2197265,0.2490235 -0.3076172,0.5126953 -0.3222656,0.9814453 h 0.7470703 c 0.058594,-0.571289 0.4101563,-0.8349609 1.0986328,-0.8349609 0.6738285,0 1.0546875,0.2490234 1.0546875,0.703125 v 0.1904297 c 0,0.3222656 -0.19043,0.4541015 -0.776367,0.5273437 -1.0546877,0.131836 -1.2158205,0.1757813 -1.5087892,0.2929688 -0.5419922,0.2197265 -0.8203125,0.6445312 -0.8203125,1.2451172 0,0.84960935 0.5859375,1.39160153 1.5380859,1.39160153 0.5859375,0 1.0693358,-0.20507812 1.5966798,-0.68847656 0.05859,0.46875 0.27832,0.68847656 0.776367,0.68847656 0.146484,0 0.263672,-0.0146484 0.498047,-0.0732422 z M 10.954791,-1.4777676 c 0,0.2490235 -0.07324,0.4101563 -0.292969,0.6152344 -0.307617,0.27832031 -0.6738279,0.41015625 -1.113281,0.41015625 -0.5859375,0 -0.9228515,-0.27832032 -0.9228515,-0.74707035 0,-0.4980468 0.336914,-0.7470703 1.1279296,-0.8642578 0.7910159,-0.102539 0.9521489,-0.1464844 1.2011719,-0.2636719 z m 5.716553,-1.640625 c -0.0293,-0.4541015 -0.131836,-0.7470703 -0.307617,-1.0107422 -0.322266,-0.4394531 -0.893555,-0.703125 -1.538086,-0.703125 -1.274414,0 -2.094727,1.0107422 -2.094727,2.5634766 0,1.5234375 0.805664,2.47558593 2.080078,2.47558593 1.113281,0 1.831055,-0.67382812 1.918946,-1.81640623 h -0.747071 c -0.131836,0.7470703 -0.512695,1.12792967 -1.157226,1.12792967 -0.820313,0 -1.31836,-0.67382817 -1.31836,-1.78710937 0,-1.171875 0.483399,-1.875 1.303711,-1.875 0.629883,0 1.025391,0.3662109 1.113281,1.0253906 z m 0.897217,-3.4130859 v 6.53320311 h 0.74707 V -2.5910488 c 0,-0.9521485 0.498047,-1.5820313 1.274414,-1.5820313 0.234375,0 0.483398,0.073242 0.65918,0.2050781 0.219726,0.1611329 0.307617,0.3808594 0.307617,0.7177735 v 3.25195311 h 0.732422 V -3.5431973 c 0,-0.7910156 -0.556641,-1.2890625 -1.479493,-1.2890625 -0.659179,0 -1.054687,0.2050782 -1.49414,0.7763672 v -2.4755859 z m 5.701904,1.8310547 h -0.74707 v 4.70214841 h 0.74707 z m 0,-1.8310547 h -0.761719 v 0.9375 h 0.761719 z m 1.274414,1.8310547 v 4.70214841 h 0.74707 V -2.5910488 c 0,-0.9521485 0.512696,-1.5820313 1.274414,-1.5820313 0.600586,0 0.966797,0.3515625 0.966797,0.9228516 v 3.25195311 h 0.74707 V -3.5431973 c 0,-0.7910156 -0.585937,-1.2890625 -1.49414,-1.2890625 -0.688477,0 -1.142578,0.2636719 -1.552735,0.9228516 v -0.7910156 z m 8.953857,2.6074218 c 0,-0.7177734 -0.05859,-1.1572265 -0.190429,-1.4941406 -0.307618,-0.7763672 -1.025391,-1.2451172 -1.904297,-1.2451172 -1.303711,0 -2.153321,1.0107422 -2.153321,2.5488282 0,1.5380859 0.820313,2.49023433 2.138672,2.49023433 1.083985,0 1.816407,-0.61523437 2.006836,-1.62597653 h -0.74707 c -0.205078,0.61523435 -0.629883,0.93749997 -1.230469,0.93749997 -0.46875,0 -0.878906,-0.21972656 -1.127929,-0.61523437 -0.175782,-0.2636719 -0.249024,-0.5273438 -0.249024,-0.9960938 z m -3.442382,-0.6152343 c 0.05859,-0.8642578 0.585937,-1.4355469 1.347656,-1.4355469 0.732422,0 1.289062,0.6152344 1.289062,1.3916016 0,0.014648 0,0.029297 0,0.043945 z m 0,0"
       style="fill:#000000;fill-opacity:1;fill-rule:nonzero;stroke:none"
       aria-label="Machine"
       transform="matrix(1.0666667,0,0,1.0666667,230.77973,126.87707)" />
    <path
       id="path15"
       d="M 0.79165039,0.00172461 H 3.3111816 c 1.6552735,0 2.6660157,-1.23046871 2.6660157,-3.26660161 0,-2.0361328 -0.9960938,-3.2666015 -2.6660157,-3.2666015 H 0.79165039 Z M 1.6266113,-0.73069727 V -5.7990566 h 1.5527344 c 1.2890625,0 1.9628906,0.8642578 1.9628906,2.5341796 0,1.6552735 -0.6738281,2.53417973 -1.9628906,2.53417973 z m 9.6386717,0.29296875 c -0.07324,0.0146484 -0.117187,0.0146484 -0.161133,0.0146484 -0.249023,0 -0.395507,-0.13183594 -0.395507,-0.36621094 V -3.5431973 c 0,-0.8349609 -0.615235,-1.2890625 -1.7724614,-1.2890625 -0.6738281,0 -1.2451171,0.2050782 -1.5527343,0.5419922 -0.2197266,0.2490235 -0.3076172,0.5126953 -0.3222657,0.9814453 H 7.808252 c 0.058594,-0.571289 0.4101562,-0.8349609 1.0986328,-0.8349609 0.6738281,0 1.0546875,0.2490234 1.0546875,0.703125 v 0.1904297 c 0,0.3222656 -0.1904297,0.4541015 -0.7763672,0.5273437 -1.0546875,0.131836 -1.2158203,0.1757813 -1.5087891,0.2929688 -0.5419922,0.2197265 -0.8203125,0.6445312 -0.8203125,1.2451172 0,0.84960935 0.5859375,1.39160153 1.538086,1.39160153 0.5859375,0 1.0693359,-0.20507812 1.5966796,-0.68847656 0.058594,0.46875 0.2783199,0.68847656 0.7763669,0.68847656 0.146485,0 0.263672,-0.0146484 0.498047,-0.0732422 z M 9.9615723,-1.4777676 c 0,0.2490235 -0.073242,0.4101563 -0.2929688,0.6152344 -0.3076172,0.27832031 -0.6738281,0.41015625 -1.1132812,0.41015625 -0.5859375,0 -0.9228516,-0.27832032 -0.9228516,-0.74707035 0,-0.4980468 0.3369141,-0.7470703 1.1279297,-0.8642578 0.7910156,-0.102539 0.9521484,-0.1464844 1.2011719,-0.2636719 z m 3.7683107,-3.2226562 h -0.761719 v -1.2890625 h -0.74707 v 1.2890625 h -0.629883 v 0.6152343 h 0.629883 v 3.54492192 c 0,0.48339844 0.322265,0.74707031 0.908203,0.74707031 0.175781,0 0.351562,-0.0146484 0.600586,-0.0585938 v -0.62988281 c -0.08789,0.0292969 -0.205078,0.0292969 -0.351563,0.0292969 -0.322265,0 -0.410156,-0.0878906 -0.410156,-0.41015625 V -4.0851895 h 0.761719 z m 5.013428,4.26269528 c -0.07324,0.0146484 -0.117188,0.0146484 -0.161133,0.0146484 -0.249024,0 -0.395508,-0.13183594 -0.395508,-0.36621094 V -3.5431973 c 0,-0.8349609 -0.615234,-1.2890625 -1.772461,-1.2890625 -0.673828,0 -1.245117,0.2050782 -1.552734,0.5419922 -0.219727,0.2490235 -0.307618,0.5126953 -0.322266,0.9814453 h 0.74707 c 0.05859,-0.571289 0.410157,-0.8349609 1.098633,-0.8349609 0.673828,0 1.054688,0.2490234 1.054688,0.703125 v 0.1904297 c 0,0.3222656 -0.19043,0.4541015 -0.776368,0.5273437 -1.054687,0.131836 -1.21582,0.1757813 -1.508789,0.2929688 -0.541992,0.2197265 -0.820312,0.6445312 -0.820312,1.2451172 0,0.84960935 0.585937,1.39160153 1.538086,1.39160153 0.585937,0 1.069336,-0.20507812 1.596679,-0.68847656 0.05859,0.46875 0.278321,0.68847656 0.776368,0.68847656 0.146484,0 0.263672,-0.0146484 0.498047,-0.0732422 z M 17.4396,-1.4777676 c 0,0.2490235 -0.07324,0.4101563 -0.292969,0.6152344 -0.307617,0.27832031 -0.673828,0.41015625 -1.113281,0.41015625 -0.585938,0 -0.922852,-0.27832032 -0.922852,-0.74707035 0,-0.4980468 0.336914,-0.7470703 1.12793,-0.8642578 0.791015,-0.102539 0.952148,-0.1464844 1.201172,-0.2636719 z m 0,0"
       style="fill:#000000;fill-opacity:1;fill-rule:nonzero;stroke:none"
       aria-label="Data"
       transform="matrix(1.0666667,0,0,1.0666667,18.026667,126.87707)" />
    <path
       id="path16"
       d="m -8.75603,7.4621 c 0,1.42656 -1.15643,2.58297 -2.58297,2.58297 -1.42656,0 -2.583,-1.15641 -2.583,-2.58297 0,-1.42656 1.15644,-2.58298 2.583,-2.58298 1.42654,0 2.58297,1.15642 2.58297,2.58298 z"
       style="fill:#fbeeed;fill-opacity:1;fill-rule:nonzero;stroke:#d9534f;stroke-width:0.49814;stroke-linecap:butt;stroke-linejoin:round;stroke-miterlimit:10;stroke-dasharray:none;stroke-opacity:1"
       transform="matrix(1.0666667,0,0,-1.0666667,138.48853,24.588)" />
    <path
       id="path17"
       d="m -8.75603,0.75816 c 0,1.42655 -1.15643,2.58298 -2.58297,2.58298 -1.42656,0 -2.583,-1.15643 -2.583,-2.58298 0,-1.42654 1.15644,-2.58297 2.583,-2.58297 1.42654,0 2.58297,1.15643 2.58297,2.58297 z"
       style="fill:#fbeeed;fill-opacity:1;fill-rule:nonzero;stroke:#d9534f;stroke-width:0.49814;stroke-linecap:butt;stroke-linejoin:round;stroke-miterlimit:10;stroke-dasharray:none;stroke-opacity:1"
       transform="matrix(1.0666667,0,0,-1.0666667,138.48853,24.588)" />
    <path
       id="path18"
       d="m -8.75603,-5.94577 c 0,1.42654 -1.15643,2.58297 -2.58297,2.58297 -1.42656,0 -2.583,-1.15643 -2.583,-2.58297 0,-1.42656 1.15644,-2.58299 2.583,-2.58299 1.42654,0 2.58297,1.15643 2.58297,2.58299 z"
       style="fill:#fbeeed;fill-opacity:1;fill-rule:nonzero;stroke:#d9534f;stroke-width:0.49814;stroke-linecap:butt;stroke-linejoin:round;stroke-miterlimit:10;stroke-dasharray:none;stroke-opacity:1"
       transform="matrix(1.0666667,0,0,-1.0666667,138.48853,24.588)" />
    <path
       id="path19"
       d="m 3.71664,10.81407 c 0,1.42656 -1.15643,2.58298 -2.58297,2.58298 -1.42655,0 -2.58298,-1.15642 -2.58298,-2.58298 0,-1.42656 1.15643,-2.58297 2.58298,-2.58297 1.42654,0 2.58297,1.15641 2.58297,2.58297 z"
       style="fill:#fbeeed;fill-opacity:1;fill-rule:nonzero;stroke:#d9534f;stroke-width:0.49814;stroke-linecap:butt;stroke-linejoin:round;stroke-miterlimit:10;stroke-dasharray:none;stroke-opacity:1"
       transform="matrix(1.0666667,0,0,-1.0666667,138.48853,24.588)" />
    <path
       id="path20"
       d="m 3.71664,4.11012 c 0,1.42656 -1.15643,2.58298 -2.58297,2.58298 -1.42655,0 -2.58298,-1.15642 -2.58298,-2.58298 0,-1.42656 1.15643,-2.58299 2.58298,-2.58299 1.42654,0 2.58297,1.15643 2.58297,2.58299 z"
       style="fill:#fbeeed;fill-opacity:1;fill-rule:nonzero;stroke:#d9534f;stroke-width:0.49814;stroke-linecap:butt;stroke-linejoin:round;stroke-miterlimit:10;stroke-dasharray:none;stroke-opacity:1"
       transform="matrix(1.0666667,0,0,-1.0666667,138.48853,24.588)" />
    <path
       id="path21"
       d="m 3.71664,-2.5938 c 0,1.42655 -1.15643,2.58298 -2.58297,2.58298 -1.42655,0 -2.58298,-1.15643 -2.58298,-2.58298 0,-1.42656 1.15643,-2.58299 2.58298,-2.58299 1.42654,0 2.58297,1.15643 2.58297,2.58299 z"
       style="fill:#fbeeed;fill-opacity:1;fill-rule:nonzero;stroke:#d9534f;stroke-width:0.49814;stroke-linecap:butt;stroke-linejoin:round;stroke-miterlimit:10;stroke-dasharray:none;stroke-opacity:1"
       transform="matrix(1.0666667,0,0,-1.0666667,138.48853,24.588)" />
    <path
       id="path22"
       d="m 3.71664,-9.29771 c 0,1.42654 -1.15643,2.58297 -2.58297,2.58297 -1.42655,0 -2.58298,-1.15643 -2.58298,-2.58297 0,-1.42656 1.15643,-2.58299 2.58298,-2.58299 1.42654,0 2.58297,1.15643 2.58297,2.58299 z"
       style="fill:#fbeeed;fill-opacity:1;fill-rule:nonzero;stroke:#d9534f;stroke-width:0.49814;stroke-linecap:butt;stroke-linejoin:round;stroke-miterlimit:10;stroke-dasharray:none;stroke-opacity:1"
       transform="matrix(1.0666667,0,0,-1.0666667,138.48853,24.588)" />
    <path
       id="path23"
       d="m 16.18935,4.11012 c 0,1.42656 -1.15644,2.58298 -2.583,2.58298 -1.42654,0 -2.58297,-1.15642 -2.58297,-2.58298 0,-1.42656 1.15643,-2.58299 2.58297,-2.58299 1.42656,0 2.583,1.15643 2.583,2.58299 z"
       style="fill:#fbeeed;fill-opacity:1;fill-rule:nonzero;stroke:#d9534f;stroke-width:0.49814;stroke-linecap:butt;stroke-linejoin:round;stroke-miterlimit:10;stroke-dasharray:none;stroke-opacity:1"
       transform="matrix(1.0666667,0,0,-1.0666667,138.48853,24.588)" />
    <path
       id="path24"
       d="m 16.18935,-2.5938 c 0,1.42655 -1.15644,2.58298 -2.583,2.58298 -1.42654,0 -2.58297,-1.15643 -2.58297,-2.58298 0,-1.42656 1.15643,-2.58299 2.58297,-2.58299 1.42656,0 2.583,1.15643 2.583,2.58299 z"
       style="fill:#fbeeed;fill-opacity:1;fill-rule:nonzero;stroke:#d9534f;stroke-width:0.49814;stroke-linecap:butt;stroke-linejoin:round;stroke-miterlimit:10;stroke-dasharray:none;stroke-opacity:1"
       transform="matrix(1.0666667,0,0,-1.0666667,138.48853,24.588)" />
    <path
       id="path25"
       d="m -8.71306,8.16936 7.21982,1.94024"
       style="fill:none;stroke:#808080;stroke-width:0.3487;stroke-linecap:butt;stroke-linejoin:round;stroke-miterlimit:10;stroke-dasharray:none;stroke-opacity:1"
       transform="matrix(1.0666667,0,0,-1.0666667,138.48853,24.588)" />
    <path
       id="path26"
       d="M -8.71294,6.7574 -1.49316,4.81693"
       style="fill:none;stroke:#808080;stroke-width:0.3487;stroke-linecap:butt;stroke-linejoin:round;stroke-miterlimit:10;stroke-dasharray:none;stroke-opacity:1"
       transform="matrix(1.0666667,0,0,-1.0666667,138.48853,24.588)" />
    <path
       id="path27"
       d="m -9.22226,5.75592 8.23842,-6.64217"
       style="fill:none;stroke:#808080;stroke-width:0.3487;stroke-linecap:butt;stroke-linejoin:round;stroke-miterlimit:10;stroke-dasharray:none;stroke-opacity:1"
       transform="matrix(1.0666667,0,0,-1.0666667,138.48853,24.588)" />
    <path
       id="path28"
       d="M -9.71599,5.28098 -0.49017,-7.11578"
       style="fill:none;stroke:#808080;stroke-width:0.3487;stroke-linecap:butt;stroke-linejoin:round;stroke-miterlimit:10;stroke-dasharray:none;stroke-opacity:1"
       transform="matrix(1.0666667,0,0,-1.0666667,138.48853,24.588)" />
    <path
       id="path29"
       d="m -9.22246,2.46613 8.23851,6.64205"
       style="fill:none;stroke:#808080;stroke-width:0.3487;stroke-linecap:butt;stroke-linejoin:round;stroke-miterlimit:10;stroke-dasharray:none;stroke-opacity:1"
       transform="matrix(1.0666667,0,0,-1.0666667,138.48853,24.588)" />
    <path
       id="path30"
       d="M -8.71301,1.46481 -1.49324,3.4051"
       style="fill:none;stroke:#808080;stroke-width:0.3487;stroke-linecap:butt;stroke-linejoin:round;stroke-miterlimit:10;stroke-dasharray:none;stroke-opacity:1"
       transform="matrix(1.0666667,0,0,-1.0666667,138.48853,24.588)" />
    <path
       id="path31"
       d="M -8.71294,0.05287 -1.49316,-1.8875"
       style="fill:none;stroke:#808080;stroke-width:0.3487;stroke-linecap:butt;stroke-linejoin:round;stroke-miterlimit:10;stroke-dasharray:none;stroke-opacity:1"
       transform="matrix(1.0666667,0,0,-1.0666667,138.48853,24.588)" />
    <path
       id="path32"
       d="m -9.22229,-0.94853 8.23842,-6.64215"
       style="fill:none;stroke:#808080;stroke-width:0.3487;stroke-linecap:butt;stroke-linejoin:round;stroke-miterlimit:10;stroke-dasharray:none;stroke-opacity:1"
       transform="matrix(1.0666667,0,0,-1.0666667,138.48853,24.588)" />
    <path
       id="path33"
       d="M -9.71611,-3.76358 -0.49026,8.63326"
       style="fill:none;stroke:#808080;stroke-width:0.3487;stroke-linecap:butt;stroke-linejoin:round;stroke-miterlimit:10;stroke-dasharray:none;stroke-opacity:1"
       transform="matrix(1.0666667,0,0,-1.0666667,138.48853,24.588)" />
    <path
       id="path34"
       d="m -9.22243,-4.23836 8.23848,6.64208"
       style="fill:none;stroke:#808080;stroke-width:0.3487;stroke-linecap:butt;stroke-linejoin:round;stroke-miterlimit:10;stroke-dasharray:none;stroke-opacity:1"
       transform="matrix(1.0666667,0,0,-1.0666667,138.48853,24.588)" />
    <path
       id="path35"
       d="m -8.71298,-5.23972 7.21978,1.94037"
       style="fill:none;stroke:#808080;stroke-width:0.3487;stroke-linecap:butt;stroke-linejoin:round;stroke-miterlimit:10;stroke-dasharray:none;stroke-opacity:1"
       transform="matrix(1.0666667,0,0,-1.0666667,138.48853,24.588)" />
    <path
       id="path36"
       d="M -8.71298,-6.65166 -1.4932,-8.59203"
       style="fill:none;stroke:#808080;stroke-width:0.3487;stroke-linecap:butt;stroke-linejoin:round;stroke-miterlimit:10;stroke-dasharray:none;stroke-opacity:1"
       transform="matrix(1.0666667,0,0,-1.0666667,138.48853,24.588)" />
    <path
       id="path37"
       d="M 3.5297,9.52785 11.21144,5.39876"
       style="fill:none;stroke:#808080;stroke-width:0.3487;stroke-linecap:butt;stroke-linejoin:round;stroke-miterlimit:10;stroke-dasharray:none;stroke-opacity:1"
       transform="matrix(1.0666667,0,0,-1.0666667,138.48853,24.588)" />
    <path
       id="path38"
       d="m 2.9865,8.8238 8.76812,-9.42564"
       style="fill:none;stroke:#808080;stroke-width:0.3487;stroke-linecap:butt;stroke-linejoin:round;stroke-miterlimit:10;stroke-dasharray:none;stroke-opacity:1"
       transform="matrix(1.0666667,0,0,-1.0666667,138.48853,24.588)" />
    <path
       id="path39"
       d="m 3.85378,4.11107 7.03332,-9e-5"
       style="fill:none;stroke:#808080;stroke-width:0.3487;stroke-linecap:butt;stroke-linejoin:round;stroke-miterlimit:10;stroke-dasharray:none;stroke-opacity:1"
       transform="matrix(1.0666667,0,0,-1.0666667,138.48853,24.588)" />
    <path
       id="path40"
       d="M 3.52966,2.8233 11.2114,-1.30566"
       style="fill:none;stroke:#808080;stroke-width:0.3487;stroke-linecap:butt;stroke-linejoin:round;stroke-miterlimit:10;stroke-dasharray:none;stroke-opacity:1"
       transform="matrix(1.0666667,0,0,-1.0666667,138.48853,24.588)" />
    <path
       id="path41"
       d="m 3.5295,-1.30576 7.68182,4.12894"
       style="fill:none;stroke:#808080;stroke-width:0.3487;stroke-linecap:butt;stroke-linejoin:round;stroke-miterlimit:10;stroke-dasharray:none;stroke-opacity:1"
       transform="matrix(1.0666667,0,0,-1.0666667,138.48853,24.588)" />
    <path
       id="path42"
       d="m 3.85382,-2.5935 h 7.03323"
       style="fill:none;stroke:#808080;stroke-width:0.3487;stroke-linecap:butt;stroke-linejoin:round;stroke-miterlimit:10;stroke-dasharray:none;stroke-opacity:1"
       transform="matrix(1.0666667,0,0,-1.0666667,138.48853,24.588)" />
    <path
       id="path43"
       d="m 2.98637,-7.30634 8.76818,9.4256"
       style="fill:none;stroke:#808080;stroke-width:0.3487;stroke-linecap:butt;stroke-linejoin:round;stroke-miterlimit:10;stroke-dasharray:none;stroke-opacity:1"
       transform="matrix(1.0666667,0,0,-1.0666667,138.48853,24.588)" />
    <path
       id="path44"
       d="m 3.52957,-8.01016 7.68179,4.12892"
       style="fill:none;stroke:#808080;stroke-width:0.3487;stroke-linecap:butt;stroke-linejoin:round;stroke-miterlimit:10;stroke-dasharray:none;stroke-opacity:1"
       transform="matrix(1.0666667,0,0,-1.0666667,138.48853,24.588)" />
    <path
       id="path45"
       d="m 101.62373,-46.0638 c 3.71437,5.30468 11.76397,2.93245 11.76397,-3.54335 4.48324,0 6.43371,-5.41215 2.5511,-7.65378"
       style="fill:#ffffff;fill-opacity:1;fill-rule:nonzero;stroke:#d9534f;stroke-width:0.89664;stroke-linecap:butt;stroke-linejoin:round;stroke-miterlimit:10;stroke-dasharray:none;stroke-opacity:1"
       transform="matrix(1.0666667,0,0,-1.0666667,138.48853,24.588)" />
    <path
       id="path46"
       d="m 92.12758,-63.21371 c -5.39632,0.95149 -4.06209,8.64578 1.41742,8.64578 0,8.46835 11.55646,9.59723 13.74823,1.41743 3.2767,1.19263 6.71342,-1.59262 5.81093,-4.96078 3.43402,-0.6055 3.48697,-5.10243 0,-5.10243 H 92.12758"
       style="fill:#ffffff;fill-opacity:1;fill-rule:nonzero;stroke:#d9534f;stroke-width:0.89664;stroke-linecap:butt;stroke-linejoin:round;stroke-miterlimit:10;stroke-dasharray:none;stroke-opacity:1"
       transform="matrix(1.0666667,0,0,-1.0666667,138.48853,24.588)" />
    <path
       id="path47"
       d="m 95.95445,-53.1505 c 0.52059,1.7747 1.42405,2.80138 3.11817,3.54335"
       style="fill:#ffffff;fill-opacity:1;fill-rule:nonzero;stroke:#d9534f;stroke-width:0.89664;stroke-linecap:butt;stroke-linejoin:round;stroke-miterlimit:10;stroke-dasharray:none;stroke-opacity:1"
       transform="matrix(1.0666667,0,0,-1.0666667,138.48853,24.588)" />
    <path
       id="path48"
       d="m 106.3327,-58.65349 h -8.56798 c -0.66027,0 -1.19552,-0.53525 -1.19552,-1.19552 v -9.56426 c 0,-0.66028 0.53525,-1.19554 1.19552,-1.19554 h 8.56798 c 0.66028,0 1.19554,0.53526 1.19554,1.19554 v 9.56426 c 0,0.66027 -0.53526,1.19552 -1.19554,1.19552 z"
       style="fill:#ffffff;fill-opacity:1;fill-rule:nonzero;stroke:#d9534f;stroke-width:0.64757;stroke-linecap:butt;stroke-linejoin:round;stroke-miterlimit:10;stroke-dasharray:none;stroke-opacity:1"
       transform="matrix(1.0666667,0,0,-1.0666667,138.48853,24.588)" />
    <path
       id="path49"
       d="M 107.82712,-56.57999 H 96.27031 c -0.66028,0 -1.19553,-0.53526 -1.19553,-1.19554 v -1.59404 c 0,-0.66026 0.53525,-1.19553 1.19553,-1.19553 h 11.55681 c 0.66028,0 1.19554,0.53527 1.19554,1.19553 v 1.59404 c 0,0.66028 -0.53526,1.19554 -1.19554,1.19554 z"
       style="fill:#ffffff;fill-opacity:1;fill-rule:nonzero;stroke:#d9534f;stroke-width:0.64757;stroke-linecap:butt;stroke-linejoin:round;stroke-miterlimit:10;stroke-dasharray:none;stroke-opacity:1"
       transform="matrix(1.0666667,0,0,-1.0666667,138.48853,24.588)" />
    <path
       id="path50"
       d="m 98.70158,-58.57256 c 0,0.38906 -0.3966,0.70447 -0.88583,0.70447 -0.48923,0 -0.88583,-0.31541 -0.88583,-0.70447 0,-0.38906 0.3966,-0.70448 0.88583,-0.70448 0.48923,0 0.88583,0.31542 0.88583,0.70448 z"
       style="fill:#d9534f;fill-opacity:1;fill-rule:nonzero;stroke:none"
       transform="matrix(1.0666667,0,0,-1.0666667,138.48853,24.588)" />
    <path
       id="path51"
       d="m 101.5235,-58.57256 c 0,0.38906 -0.39661,0.70447 -0.88584,0.70447 -0.48922,0 -0.88583,-0.31541 -0.88583,-0.70447 0,-0.38906 0.39661,-0.70448 0.88583,-0.70448 0.48923,0 0.88584,0.31542 0.88584,0.70448 z"
       style="fill:#d9534f;fill-opacity:1;fill-rule:nonzero;stroke:none"
       transform="matrix(1.0666667,0,0,-1.0666667,138.48853,24.588)" />
    <path
       id="path52"
       d="M 107.82712,-62.6386 H 96.27031 c -0.66028,0 -1.19553,-0.53524 -1.19553,-1.19552 v -1.59404 c 0,-0.66028 0.53525,-1.19554 1.19553,-1.19554 h 11.55681 c 0.66028,0 1.19554,0.53526 1.19554,1.19554 v 1.59404 c 0,0.66028 -0.53526,1.19552 -1.19554,1.19552 z"
       style="fill:#ffffff;fill-opacity:1;fill-rule:nonzero;stroke:#d9534f;stroke-width:0.64757;stroke-linecap:butt;stroke-linejoin:round;stroke-miterlimit:10;stroke-dasharray:none;stroke-opacity:1"
       transform="matrix(1.0666667,0,0,-1.0666667,138.48853,24.588)" />
    <path
       id="path53"
       d="m 98.70158,-64.63115 c 0,0.38907 -0.3966,0.70448 -0.88583,0.70448 -0.48923,0 -0.88583,-0.31541 -0.88583,-0.70448 0,-0.38905 0.3966,-0.70447 0.88583,-0.70447 0.48923,0 0.88583,0.31542 0.88583,0.70447 z"
       style="fill:#d9534f;fill-opacity:1;fill-rule:nonzero;stroke:none"
       transform="matrix(1.0666667,0,0,-1.0666667,138.48853,24.588)" />
    <path
       id="path54"
       d="m 101.5235,-64.63115 c 0,0.38907 -0.39661,0.70448 -0.88584,0.70448 -0.48922,0 -0.88583,-0.31541 -0.88583,-0.70448 0,-0.38905 0.39661,-0.70447 0.88583,-0.70447 0.48923,0 0.88584,0.31542 0.88584,0.70447 z"
       style="fill:#d9534f;fill-opacity:1;fill-rule:nonzero;stroke:none"
       transform="matrix(1.0666667,0,0,-1.0666667,138.48853,24.588)" />
    <path
       id="path55"
       d="M 107.82712,-68.69719 H 96.27031 c -0.66028,0 -1.19553,-0.53526 -1.19553,-1.19553 v -1.59405 c 0,-0.66026 0.53525,-1.19553 1.19553,-1.19553 h 11.55681 c 0.66028,0 1.19554,0.53527 1.19554,1.19553 v 1.59405 c 0,0.66027 -0.53526,1.19553 -1.19554,1.19553 z"
       style="fill:#ffffff;fill-opacity:1;fill-rule:nonzero;stroke:#d9534f;stroke-width:0.64757;stroke-linecap:butt;stroke-linejoin:round;stroke-miterlimit:10;stroke-dasharray:none;stroke-opacity:1"
       transform="matrix(1.0666667,0,0,-1.0666667,138.48853,24.588)" />
    <path
       id="path56"
       d="m 98.70158,-70.68973 c 0,0.38907 -0.3966,0.70449 -0.88583,0.70449 -0.48923,0 -0.88583,-0.31542 -0.88583,-0.70449 0,-0.38905 0.3966,-0.70447 0.88583,-0.70447 0.48923,0 0.88583,0.31542 0.88583,0.70447 z"
       style="fill:#d9534f;fill-opacity:1;fill-rule:nonzero;stroke:none"
       transform="matrix(1.0666667,0,0,-1.0666667,138.48853,24.588)" />
    <path
       id="path57"
       d="m 101.5235,-70.68973 c 0,0.38907 -0.39661,0.70449 -0.88584,0.70449 -0.48922,0 -0.88583,-0.31542 -0.88583,-0.70449 0,-0.38905 0.39661,-0.70447 0.88583,-0.70447 0.48923,0 0.88584,0.31542 0.88584,0.70447 z"
       style="fill:#d9534f;fill-opacity:1;fill-rule:nonzero;stroke:none"
       transform="matrix(1.0666667,0,0,-1.0666667,138.48853,24.588)" />
    <path
       id="path58"
       d="m 109.10359,-70.68974 h 3.4572"
       style="fill:none;stroke:#d9534f;stroke-width:0.64757;stroke-linecap:butt;stroke-linejoin:round;stroke-miterlimit:10;stroke-dasharray:none;stroke-opacity:1"
       transform="matrix(1.0666667,0,0,-1.0666667,138.48853,24.588)" />
    <path
       id="path59"
       d="m 3.66132,0 c 0,0.92163 -0.74714,1.66876 -1.66877,1.66876 C 1.0709,1.66876 0.32378,0.92163 0.32378,0 c 0,-0.92163 0.74712,-1.66876 1.66877,-1.66876 0.92163,0 1.66877,0.74713 1.66877,1.66876 z"
       style="fill:#d9534f;fill-opacity:1;fill-rule:nonzero;stroke:#d9534f;stroke-width:0.64757;stroke-linecap:butt;stroke-linejoin:miter;stroke-miterlimit:10;stroke-dasharray:none;stroke-opacity:1"
       transform="matrix(1.0666667,0,0,-1.0666667,258.208,99.990389)" />
    <path
       id="path60"
       d="m 104.5201,-72.76323 v -0.97555 c 0,-2.20095 1.78416,-3.98511 3.9851,-3.98511 h -1.97705"
       style="fill:none;stroke:#d9534f;stroke-width:0.64757;stroke-linecap:butt;stroke-linejoin:round;stroke-miterlimit:10;stroke-dasharray:none;stroke-opacity:1"
       transform="matrix(1.0666667,0,0,-1.0666667,138.48853,24.588)" />
    <path
       id="path61"
       d="m 3.66132,0 c 0,0.92163 -0.74714,1.66876 -1.66877,1.66876 C 1.0709,1.66876 0.32378,0.92163 0.32378,0 c 0,-0.92163 0.74712,-1.66876 1.66877,-1.66876 0.92163,0 1.66877,0.74713 1.66877,1.66876 z"
       style="fill:#d9534f;fill-opacity:1;fill-rule:nonzero;stroke:#d9534f;stroke-width:0.64757;stroke-linecap:butt;stroke-linejoin:miter;stroke-miterlimit:10;stroke-dasharray:none;stroke-opacity:1"
       transform="matrix(1.0666667,0,0,-1.0666667,251.77321,107.49348)" />
    <path
       id="path62"
       d="m 99.57733,-72.76323 v -0.97555 c 0,-2.20095 -1.78416,-3.98511 -3.98511,-3.98511 h 1.97705"
       style="fill:none;stroke:#d9534f;stroke-width:0.64757;stroke-linecap:butt;stroke-linejoin:round;stroke-miterlimit:10;stroke-dasharray:none;stroke-opacity:1"
       transform="matrix(1.0666667,0,0,-1.0666667,138.48853,24.588)" />
    <path
       id="path63"
       d="m 3.66132,0 c 0,0.92163 -0.74714,1.66876 -1.66877,1.66876 C 1.0709,1.66876 0.32378,0.92163 0.32378,0 c 0,-0.92163 0.74712,-1.66876 1.66877,-1.66876 0.92163,0 1.66877,0.74713 1.66877,1.66876 z"
       style="fill:#d9534f;fill-opacity:1;fill-rule:nonzero;stroke:#d9534f;stroke-width:0.64757;stroke-linecap:butt;stroke-linejoin:miter;stroke-miterlimit:10;stroke-dasharray:none;stroke-opacity:1"
       transform="matrix(-1.0666667,0,0,1.0666667,242.90779,107.49348)" />
    <path
       id="path64"
       d="m 94.99384,-70.68974 h -3.4572"
       style="fill:none;stroke:#d9534f;stroke-width:0.64757;stroke-linecap:butt;stroke-linejoin:round;stroke-miterlimit:10;stroke-dasharray:none;stroke-opacity:1"
       transform="matrix(1.0666667,0,0,-1.0666667,138.48853,24.588)" />
    <path
       id="path65"
       d="m 3.66132,0 c 0,0.92163 -0.74714,1.66876 -1.66877,1.66876 C 1.0709,1.66876 0.32378,0.92163 0.32378,0 c 0,-0.92163 0.74712,-1.66876 1.66877,-1.66876 0.92163,0 1.66877,0.74713 1.66877,1.66876 z"
       style="fill:#d9534f;fill-opacity:1;fill-rule:nonzero;stroke:#d9534f;stroke-width:0.64757;stroke-linecap:butt;stroke-linejoin:miter;stroke-miterlimit:10;stroke-dasharray:none;stroke-opacity:1"
       transform="matrix(-1.0666667,0,0,1.0666667,236.47299,99.990389)" />
    <path
       id="path66"
       d="m -114.09628,-71.88123 c 0,-0.71522 4.7592,-1.29502 10.63015,-1.29502 5.87095,0 10.63015,0.5798 10.63015,1.29502 v 6.76447 c 0,0.71522 -4.7592,1.29503 -10.63015,1.29503 -5.87095,0 -10.63015,-0.57981 -10.63015,-1.29503 z m 0,6.76447 c 0,-0.71521 4.7592,-1.29501 10.63015,-1.29501 5.87095,0 10.63015,0.5798 10.63015,1.29501"
       style="fill:#80d980;fill-opacity:1;fill-rule:nonzero;stroke:#000000;stroke-width:0.3985;stroke-linecap:butt;stroke-linejoin:round;stroke-miterlimit:10;stroke-dasharray:none;stroke-opacity:1"
       transform="matrix(1.0666667,0,0,-1.0666667,138.48853,24.588)" />
    <path
       id="path67"
       d="m -114.09644,-63.6826 c 0,-0.71523 4.75921,-1.29503 10.63016,-1.29503 5.87094,0 10.63014,0.5798 10.63014,1.29503 v 6.76446 c 0,0.71523 -4.7592,1.29503 -10.63014,1.29503 -5.87095,0 -10.63016,-0.5798 -10.63016,-1.29503 z m 0,6.76446 c 0,-0.71521 4.75921,-1.29501 10.63016,-1.29501 5.87094,0 10.63014,0.5798 10.63014,1.29501"
       style="fill:#b3e8b3;fill-opacity:1;fill-rule:nonzero;stroke:#000000;stroke-width:0.3985;stroke-linecap:butt;stroke-linejoin:round;stroke-miterlimit:10;stroke-dasharray:none;stroke-opacity:1"
       transform="matrix(1.0666667,0,0,-1.0666667,138.48853,24.588)" />
    <path
       id="path68"
       d="m -114.09659,-55.4838 c 0,-0.71522 4.75922,-1.29502 10.63016,-1.29502 5.87094,0 10.63014,0.5798 10.63014,1.29502 v 6.76447 c 0,0.71523 -4.7592,1.29503 -10.63014,1.29503 -5.87094,0 -10.63016,-0.5798 -10.63016,-1.29503 z m 0,6.76447 c 0,-0.71521 4.75922,-1.29501 10.63016,-1.29501 5.87094,0 10.63014,0.5798 10.63014,1.29501"
       style="fill:#e6f7e6;fill-opacity:1;fill-rule:nonzero;stroke:#000000;stroke-width:0.3985;stroke-linecap:butt;stroke-linejoin:round;stroke-miterlimit:10;stroke-dasharray:none;stroke-opacity:1"
       transform="matrix(1.0666667,0,0,-1.0666667,138.48853,24.588)" />
  </g>
</svg>
