<?xml version="1.0" encoding="UTF-8" standalone="no"?>
<!-- Created with Inkscape (http://www.inkscape.org/) -->

<svg
   version="1.1"
   id="svg1"
   width="462.17068"
   height="188.528"
   viewBox="0 0 462.17068 188.528"
   xmlns="http://www.w3.org/2000/svg"
   xmlns:svg="http://www.w3.org/2000/svg">
  <defs
     id="defs1" />
  <g
     id="g1">
    <path
       id="path1"
       d="M -35.75227,127.56062 H 35.75227 L 0,175.75012 Z"
       style="fill:#f2d7d5;fill-opacity:1;fill-rule:nonzero;stroke:#d9534f;stroke-width:0.99628;stroke-linecap:round;stroke-linejoin:round;stroke-miterlimit:10;stroke-dasharray:none;stroke-opacity:1"
       transform="matrix(1.0666667,0,0,-1.0666667,233.85813,187.9968)" />
    <path
       id="path2"
       d="M -67.30074,85.04042 H 67.30074 l -31.54847,42.5202 h -71.50454 z"
       style="fill:#fef7e0;fill-opacity:1;fill-rule:nonzero;stroke:#fbbc04;stroke-width:0.99628;stroke-linecap:round;stroke-linejoin:round;stroke-miterlimit:10;stroke-dasharray:none;stroke-opacity:1"
       transform="matrix(1.0666667,0,0,-1.0666667,233.85813,187.9968)" />
    <path
       id="path3"
       d="M -98.84875,42.5202 H 98.84875 L 67.30074,85.04042 H -67.30074 Z"
       style="fill:#d6eaf8;fill-opacity:1;fill-rule:nonzero;stroke:#006395;stroke-width:0.99628;stroke-linecap:round;stroke-linejoin:round;stroke-miterlimit:10;stroke-dasharray:none;stroke-opacity:1"
       transform="matrix(1.0666667,0,0,-1.0666667,233.85813,187.9968)" />
    <path
       id="path4"
       d="M -130.39548,0 H 130.39548 L 98.84875,42.5202 h -197.6975 z"
       style="fill:#d5f5e3;fill-opacity:1;fill-rule:nonzero;stroke:#287528;stroke-width:0.99628;stroke-linecap:round;stroke-linejoin:round;stroke-miterlimit:10;stroke-dasharray:none;stroke-opacity:1"
       transform="matrix(1.0666667,0,0,-1.0666667,233.85813,187.9968)" />
    <path
       id="path5"
       d="m 5.4362422,-4.5427148 c 0,-0.600586 -0.1318359,-0.9960938 -0.4541016,-1.3623047 -0.4394531,-0.4833985 -1.1572265,-0.7324219 -2.109375,-0.7324219 -1.5673828,0 -2.46093747,0.7324219 -2.46093747,2.0068359 0,1.0107422 0.49804687,1.4941407 1.83105467,1.7578125 l 0.9082031,0.1757813 c 0.9082032,0.1611328 1.2304688,0.4248047 1.2304688,0.9521484 0,0.5419922 -0.4980469,0.87890627 -1.3183594,0.87890627 -0.9082031,0 -1.4208984,-0.39550777 -1.4648437,-1.08398437 H 0.29464063 c 0.0732422,1.39160156 1.04003907,2.15332031 2.69531247,2.15332031 1.6845703,0 2.6806641,-0.79101563 2.6806641,-2.10937501 0,-1.0400391 -0.5126953,-1.5673828 -1.7285156,-1.8017578 L 2.9313594,-3.912832 C 1.9645625,-4.1032617 1.6862422,-4.2936914 1.6862422,-4.7624414 c 0,-0.4980469 0.4394531,-0.8056641 1.1279297,-0.8056641 0.8496094,0 1.3330078,0.3515625 1.3769531,1.0253907 z M 8.677209,-4.747793 H 7.974084 V -6.0368555 H 6.7289668 V -4.747793 H 6.1137324 v 0.834961 h 0.6152344 v 2.97363278 c 0,0.76171875 0.3955078,1.14257813 1.2304687,1.14257813 0.2783204,0 0.4980469,-0.0292969 0.7177735,-0.10253907 v -0.87890625 c -0.1171875,0.0292969 -0.1904297,0.0292969 -0.2783203,0.0292969 -0.3369141,0 -0.4248047,-0.10253906 -0.4248047,-0.52734379 V -3.912832 h 0.703125 z m 2.984619,-0.1757812 c -1.479492,0 -2.3876952,0.9814453 -2.3876952,2.5634765 0,1.59667973 0.9082032,2.56347661 2.4023442,2.56347661 1.464843,0 2.387695,-0.98144532 2.387695,-2.53417971 0,-1.640625 -0.878906,-2.5927734 -2.402344,-2.5927734 z m 0.01465,1.0107422 c 0.688476,0 1.142578,0.6152343 1.142578,1.5673828 0,0.9082031 -0.46875,1.53808592 -1.142578,1.53808592 -0.688477,0 -1.142579,-0.62988282 -1.142579,-1.55273442 0,-0.9228515 0.454102,-1.5527343 1.142579,-1.5527343 z m 3.339843,-0.9228516 v 4.83398438 h 1.245118 V -2.5798242 c 0,-0.7324219 0.36621,-1.0986328 1.113281,-1.0986328 0.131836,0 0.219726,0.014648 0.380859,0.043945 v -1.2744141 c -0.05859,-0.014648 -0.117187,-0.014648 -0.146484,-0.014648 -0.571289,0 -1.069336,0.3808594 -1.347656,1.0253906 v -0.9375 z m 7.617188,4.68750001 C 22.399134,-0.35326172 22.34054,-0.49974609 22.34054,-0.74876953 V -3.4294336 c 0,-0.9960937 -0.673828,-1.4941406 -1.977539,-1.4941406 -1.318359,0 -1.992187,0.5566406 -2.080078,1.6699219 h 1.21582 c 0.05859,-0.4980469 0.263672,-0.6591797 0.893555,-0.6591797 0.483398,0 0.717773,0.1611328 0.717773,0.4833984 0,0.1611328 -0.07324,0.3076172 -0.205078,0.3808594 -0.175781,0.087891 -0.175781,0.087891 -0.791015,0.1904297 l -0.512696,0.087891 c -0.952148,0.1611328 -1.420898,0.6591797 -1.420898,1.5234375 0,0.41015624 0.117187,0.74707031 0.336914,0.99609374 0.27832,0.27832032 0.703125,0.45410157 1.142578,0.45410157 0.527344,0 1.025391,-0.234375 1.464844,-0.68847657 0,0.24902344 0.0293,0.33691407 0.146484,0.48339844 h 1.362305 z M 21.11007,-1.9499414 c 0,0.7324219 -0.351562,1.14257812 -0.996093,1.14257812 -0.410157,0 -0.673829,-0.21972652 -0.673829,-0.58593752 0,-0.3808594 0.19043,-0.5566406 0.717774,-0.6591797 l 0.424805,-0.087891 c 0.336914,-0.058594 0.380859,-0.073242 0.527343,-0.1464844 z m 5.379639,-2.8857422 v 0.7324219 c -0.380859,-0.5712891 -0.791016,-0.8203125 -1.347656,-0.8203125 -1.142578,0 -2.006836,1.1279297 -2.006836,2.6220703 0,1.50878906 0.791015,2.50488281 1.977539,2.50488281 0.571289,0 0.908203,-0.17578125 1.376953,-0.703125 v 0.65917968 c 0,0.5859375 -0.439453,0.98144531 -1.069336,0.98144531 -0.483398,0 -0.791016,-0.19042968 -0.893555,-0.55664062 h -1.289062 c 0,0.36621094 0.146484,0.62988282 0.46875,0.90820312 0.380859,0.3076172 0.922851,0.4541016 1.669922,0.4541016 1.464843,0 2.299804,-0.6445313 2.299804,-1.78710941 V -4.8356836 Z m -1.083984,0.9667969 c 0.629882,0 1.098632,0.6445312 1.098632,1.5380859 0,0.8789063 -0.454101,1.47949221 -1.113281,1.47949221 -0.585937,0 -1.010742,-0.60058591 -1.010742,-1.47949221 0,-0.9082031 0.424805,-1.5380859 1.025391,-1.5380859 z m 7.694091,1.8457031 c 0,-0.1171875 0,-0.1611328 0,-0.2197266 0,-0.4833984 -0.07324,-0.9375 -0.190429,-1.274414 -0.322266,-0.8789063 -1.098633,-1.40625 -2.080078,-1.40625 -1.376954,0 -2.241211,1.0107422 -2.241211,2.6220703 0,1.55273437 0.849609,2.50488281 2.226562,2.50488281 1.083985,0 1.962891,-0.61523438 2.241211,-1.56738281 h -1.245117 c -0.146484,0.38085937 -0.498047,0.61523437 -0.952149,0.61523437 -0.36621,0 -0.644531,-0.16113281 -0.83496,-0.42480467 -0.117188,-0.1757813 -0.161133,-0.3955078 -0.175782,-0.8496094 z m -3.237304,-0.8349609 c 0.08789,-0.7324219 0.395508,-1.1132813 0.952148,-1.1132813 0.322266,0 0.600586,0.1611328 0.776367,0.4101563 0.117188,0.1757812 0.175782,0.3662109 0.205078,0.703125 z m 7.82959,-3.6767578 c -1.025391,1.5527343 -1.464844,2.7832031 -1.464844,4.1601562 0,1.37695313 0.439453,2.62207032 1.464844,4.1601563 h 0.893554 c -0.9375,-1.84570317 -1.245117,-2.8417969 -1.245117,-4.1601563 0,-1.3183594 0.307617,-2.3291016 1.245117,-4.1601562 z m 6.602783,1.9921875 c 0,-0.600586 -0.131836,-0.9960938 -0.454102,-1.3623047 -0.439453,-0.4833985 -1.157226,-0.7324219 -2.109375,-0.7324219 -1.567383,0 -2.460937,0.7324219 -2.460937,2.0068359 0,1.0107422 0.498047,1.4941407 1.831054,1.7578125 l 0.908204,0.1757813 c 0.908203,0.1611328 1.230468,0.4248047 1.230468,0.9521484 0,0.5419922 -0.498047,0.87890627 -1.318359,0.87890627 -0.908203,0 -1.420899,-0.39550777 -1.464844,-1.08398437 h -1.303711 c 0.07324,1.39160156 1.040039,2.15332031 2.695313,2.15332031 1.68457,0 2.680664,-0.79101563 2.680664,-2.10937501 0,-1.0400391 -0.512696,-1.5673828 -1.728516,-1.8017578 L 41.790002,-3.912832 c -0.966797,-0.1904297 -1.245117,-0.3808594 -1.245117,-0.8496094 0,-0.4980469 0.439453,-0.8056641 1.127929,-0.8056641 0.84961,0 1.333008,0.3515625 1.376954,1.0253907 z m 5.980224,0 c 0,-0.600586 -0.131836,-0.9960938 -0.454101,-1.3623047 -0.439453,-0.4833985 -1.157227,-0.7324219 -2.109375,-0.7324219 -1.567383,0 -2.460938,0.7324219 -2.460938,2.0068359 0,1.0107422 0.498047,1.4941407 1.831055,1.7578125 l 0.908203,0.1757813 c 0.908203,0.1611328 1.230469,0.4248047 1.230469,0.9521484 0,0.5419922 -0.498047,0.87890627 -1.318359,0.87890627 -0.908204,0 -1.420899,-0.39550777 -1.464844,-1.08398437 h -1.303711 c 0.07324,1.39160156 1.040039,2.15332031 2.695312,2.15332031 1.684571,0 2.680664,-0.79101563 2.680664,-2.10937501 0,-1.0400391 -0.512695,-1.5673828 -1.728515,-1.8017578 L 47.770227,-3.912832 c -0.966797,-0.1904297 -1.245118,-0.3808594 -1.245118,-0.8496094 0,-0.4980469 0.439454,-0.8056641 1.12793,-0.8056641 0.849609,0 1.333008,0.3515625 1.376953,1.0253907 z m 1.234131,4.54101558 h 2.563477 c 0.981445,0 1.611328,-0.234375 2.050781,-0.76171875 0.527344,-0.61523433 0.805664,-1.49414063 0.805664,-2.50488283 0,-1.0107422 -0.27832,-1.9042969 -0.805664,-2.5195312 -0.439453,-0.5273438 -1.054687,-0.7470703 -2.050781,-0.7470703 H 51.50924 Z m 1.347656,-1.11328128 v -4.3066406 h 1.215821 c 1.010742,0 1.508789,0.7177734 1.508789,2.1533203 0,1.4355469 -0.498047,2.1533203 -1.508789,2.1533203 z m 6.298829,-5.2880859 -1.845704,6.53320312 h 0.600586 l 1.845704,-6.53320312 z m 1.322021,6.40136718 h 2.563477 c 0.981445,0 1.611328,-0.234375 2.050781,-0.76171875 0.527344,-0.61523433 0.805664,-1.49414063 0.805664,-2.50488283 0,-1.0107422 -0.27832,-1.9042969 -0.805664,-2.5195312 -0.439453,-0.5273438 -1.054688,-0.7470703 -2.050781,-0.7470703 h -2.563477 z m 1.347656,-1.11328128 v -4.3066406 h 1.215821 c 1.010742,0 1.508789,0.7177734 1.508789,2.1533203 0,1.4355469 -0.498047,2.1533203 -1.508789,2.1533203 z m 6.295166,-3.7207031 h -1.259765 v 4.83398438 h 1.259765 z m 0,-1.6992187 h -1.259765 v 1.1132812 h 1.259765 z m 5.159912,3.2519531 c -0.01465,-1.0253906 -0.805664,-1.640625 -2.109375,-1.640625 -1.230468,0 -1.992187,0.6152344 -1.992187,1.6113281 0,0.3222656 0.102539,0.6005859 0.27832,0.7910156 0.161133,0.1757813 0.322266,0.2490235 0.791016,0.4101563 l 1.494141,0.4541015 c 0.307617,0.1025391 0.424804,0.2050782 0.424804,0.3955079 0,0.30761714 -0.351562,0.48339839 -0.9375,0.48339839 -0.322265,0 -0.585937,-0.0732422 -0.74707,-0.17578125 -0.131836,-0.10253904 -0.19043,-0.19042964 -0.234375,-0.45410154 h -1.230469 c 0.0293,1.05468748 0.805664,1.61132811 2.285156,1.61132811 0.673829,0 1.186524,-0.14648438 1.538086,-0.42480469 0.366211,-0.29296875 0.571289,-0.73242188 0.571289,-1.21582032 0,-0.6298828 -0.307617,-1.0253906 -0.952148,-1.2158203 L 70.878137,-3.107168 c -0.351563,-0.1171875 -0.439453,-0.1904297 -0.439453,-0.3808593 0,-0.2636719 0.292968,-0.4541016 0.732421,-0.4541016 0.600586,0 0.893555,0.2197266 0.893555,0.6591797 z m 2.244874,0.3222656 v -3.5742187 h -1.259766 v 6.53320308 h 1.259766 V -1.5837305 l 0.498046,-0.5566406 1.157227,2.13867188 h 1.464844 l -1.757813,-3.01757808 1.640625,-1.8164063 h -1.420898 z m 4.299316,4.7460938 c 1.025391,-1.53808598 1.450195,-2.78320317 1.450195,-4.1601563 0,-1.3769531 -0.424804,-2.6074219 -1.450195,-4.1601562 h -0.908203 c 0.952148,1.8457031 1.259765,2.8417968 1.259765,4.1601562 0,1.3183594 -0.307617,2.34375001 -1.259765,4.1601563 z m 0,0"
       style="fill:#287528;fill-opacity:1;fill-rule:nonzero;stroke:none"
       aria-label="Storage(SSD/Disk)"
       transform="matrix(1.0666667,0,0,1.0666667,190.27947,167.744)" />
    <path
       id="path6"
       d="M 4.5398359,-2.9732598 V 3.7304687e-4 H 5.8874922 V -6.5328301 H 4.5398359 V -4.086541 H 1.9470625 V -6.5328301 H 0.61405469 V 3.7304687e-4 H 1.9470625 V -2.9732598 Z M 7.2058516,3.7304687e-4 h 2.9443364 c 0.74707,0 1.259765,-0.14648437687 1.655273,-0.46874999687 0.380859,-0.33691407 0.644531,-0.89355465 0.644531,-1.42089845 0,-0.6445312 -0.351562,-1.1425781 -1.083984,-1.5820312 0.644531,-0.4101563 0.893555,-0.7910157 0.893555,-1.3476563 0,-0.4394531 -0.234375,-0.9228516 -0.600586,-1.2451172 -0.38086,-0.3222656 -0.834961,-0.46875 -1.538086,-0.46875 H 7.2058516 Z M 8.5535078,-5.4195488 h 1.4648442 c 0.615234,0 0.952148,0.2636718 0.952148,0.7470703 0,0.4833984 -0.336914,0.7324219 -0.952148,0.7324219 H 8.5535078 Z m 0,2.6074218 h 1.6113282 c 0.644531,0 0.981445,0.2929688 0.981445,0.8496094 0,0.5419922 -0.336914,0.8496094 -0.981445,0.8496094 H 8.5535078 Z m 6.3281252,-2.2851562 1.171875,5.09765624687 h 1.347656 L 18.558391,-5.0972832 V 3.7304687e-4 h 1.347656 V -6.5328301 h -2.021484 l -1.157227,5.2001953 -1.186523,-5.2001953 H 13.533977 V 3.7304687e-4 h 1.347656 z m 7.393799,-1.3037109 -1.845703,6.53320308 h 0.600585 l 1.845704,-6.53320308 z m 1.322021,6.40136714687 h 2.563477 c 0.981445,0 1.611328,-0.23437499687 2.050781,-0.76171874687 0.527344,-0.6152344 0.805664,-1.4941406 0.805664,-2.5048828 0,-1.0107422 -0.27832,-1.9042969 -0.805664,-2.5195313 -0.439453,-0.5273437 -1.054688,-0.7470703 -2.050781,-0.7470703 H 23.597453 Z M 24.945109,-1.1129082 v -4.3066406 h 1.215821 c 1.010742,0 1.508789,0.7177734 1.508789,2.1533203 0,1.4355469 -0.498047,2.1533203 -1.508789,2.1533203 z m 6.503907,-1.4794922 h 1.538086 c 0.585937,0 0.834961,0.234375 0.834961,0.7763672 0,0.058594 0,0.1464844 -0.01465,0.2636719 0,0.1757812 0,0.336914 0,0.4394531 0,0.60058593 0.0293,0.80566406 0.205078,1.11328124687 h 1.435547 V -0.24865039 c -0.205078,-0.10253906 -0.27832,-0.24902344 -0.27832,-0.52734375 -0.04395,-1.93359376 -0.07324,-2.02148436 -0.908203,-2.37304686 0.732422,-0.2929688 1.098632,-0.8203125 1.098632,-1.6259766 0,-0.5126953 -0.175781,-0.9960937 -0.483398,-1.3183594 -0.307617,-0.2929687 -0.717773,-0.4394531 -1.274414,-0.4394531 H 30.101359 V 3.7304687e-4 h 1.347657 z m 0,-1.1132812 v -1.7138672 h 1.625976 c 0.38086,0 0.541992,0.043945 0.703125,0.1757812 0.161133,0.131836 0.234375,0.3515625 0.234375,0.6591797 0,0.3222656 -0.08789,0.5712891 -0.234375,0.703125 -0.146484,0.1318359 -0.322265,0.1757813 -0.703125,0.1757813 z m 8.90625,2.3876953 0.424804,1.31835934687 h 1.376953 L 39.901164,-6.5328301 H 38.407023 L 36.09257,3.7304687e-4 h 1.376953 L 37.908977,-1.3179863 Z m -0.366211,-1.1132813 h -1.713867 l 0.849609,-2.5634765 z m 4.273681,-2.6660156 1.171875,5.09765624687 h 1.347657 L 47.939494,-5.0972832 V 3.7304687e-4 H 49.28715 V -6.5328301 h -2.021484 l -1.157227,5.2001953 -1.186523,-5.2001953 H 42.91508 V 3.7304687e-4 h 1.347656 z m 0,0"
       style="fill:#006395;fill-opacity:1;fill-rule:nonzero;stroke:none"
       aria-label="HBM/DRAM"
       transform="matrix(1.0666667,0,0,1.0666667,207.29813,123.39413)" />
    <path
       id="path7"
       d="M 2.0651348,-6.533582 H 0.71747852 V -3.7890625e-4 H 5.185252 V -1.1136602 H 2.0651348 Z m 5.5517578,2.1533203 V -3.7890625e-4 H 8.8620098 V -6.3578008 H 8.0270488 C 7.8366191,-5.596082 7.1774395,-5.2152227 6.0934551,-5.2152227 v 0.834961 z M 12.322703,-6.4017461 10.477,0.13145703 h 0.600586 l 1.845703,-6.53320313 z m 2.698975,-0.1318359 h -1.347657 v 6.53320309375 h 4.467774 V -1.1136602 h -3.120117 z m 7.998047,5.4199218 h -2.680664 c 0.161132,-0.3515625 0.351562,-0.5273437 1.289062,-1.2158203 1.098633,-0.805664 1.420898,-1.2890625 1.420898,-2.1386718 0,-1.2304688 -0.83496,-2.0214844 -2.182617,-2.0214844 -1.318359,0 -2.080078,0.7763672 -2.080078,2.1240234 0,0.058594 0,0.131836 0,0.2197266 h 1.201172 v -0.2050781 c 0,-0.703125 0.336914,-1.1132813 0.908203,-1.1132813 0.556641,0 0.893555,0.3808594 0.893555,1.0107422 0,0.703125 -0.219727,0.9814453 -1.611328,1.9775391 -1.083985,0.7324218 -1.40625,1.3037109 -1.479492,2.47558589375 h 4.321289 z m 2.259521,-5.2880859 -1.845703,6.53320313 h 0.600586 l 1.845703,-6.53320313 z m 2.698975,-0.1318359 h -1.347657 v 6.53320309375 h 4.467774 V -1.1136602 h -3.120117 z m 5.361328,3.6914062 c 0.439453,0 0.512695,0.014649 0.732422,0.058594 0.424804,0.1171875 0.688476,0.4833984 0.688476,0.9521484 0,0.5566406 -0.395508,0.96679688 -0.9375,0.96679688 -0.600586,0 -0.922851,-0.35156248 -0.952148,-0.99609378 h -1.21582 c 0,1.27441409 0.83496,2.06542972 2.138671,2.06542972 1.347657,0 2.226563,-0.79101563 2.226563,-2.03613282 0,-0.7470703 -0.322266,-1.2304687 -1.040039,-1.5820312 0.585937,-0.366211 0.834961,-0.7617188 0.834961,-1.3476563 0,-1.0546875 -0.791016,-1.7285156 -2.021485,-1.7285156 -0.732421,0 -1.333007,0.2490234 -1.699218,0.7177734 -0.249024,0.3076172 -0.366211,0.7470703 -0.366211,1.303711 v 0.1171875 h 1.171875 c 0,-0.3515625 0.0293,-0.5126954 0.102539,-0.6738282 0.117187,-0.2783203 0.395508,-0.4541015 0.761719,-0.4541015 0.498046,0 0.791015,0.3076172 0.791015,0.8349609 0,0.6298828 -0.366211,0.9521484 -1.113281,0.9521484 H 33.339549 Z M 44.977732,-4.321668 c -0.04395,-0.571289 -0.161132,-0.9228515 -0.439453,-1.2890625 -0.498047,-0.6591797 -1.303711,-1.0253906 -2.285156,-1.0253906 -1.845703,0 -2.988281,1.3037109 -2.988281,3.4277344 0,2.0947265 1.142578,3.41308592 2.958984,3.41308592 1.625977,0 2.709961,-0.9375 2.783203,-2.43164062 h -1.303711 c -0.08789,0.8349609 -0.615234,1.30371093 -1.450195,1.30371093 -1.040039,0 -1.640625,-0.84960933 -1.640625,-2.27050783 0,-1.4355469 0.629883,-2.2998047 1.68457,-2.2998047 0.46875,0 0.864258,0.1611328 1.113282,0.46875 0.131836,0.1904297 0.205078,0.3515625 0.292968,0.703125 z m 5.06836,4.17480472 c -0.234375,-0.20507813 -0.292969,-0.3515625 -0.292969,-0.60058594 V -3.4281133 c 0,-0.9960937 -0.673828,-1.4941406 -1.977539,-1.4941406 -1.318359,0 -1.992188,0.5566406 -2.080078,1.6699219 h 1.21582 c 0.05859,-0.4980469 0.263672,-0.6591797 0.893555,-0.6591797 0.483398,0 0.717773,0.1611328 0.717773,0.4833984 0,0.1611328 -0.07324,0.3076172 -0.205078,0.3808594 -0.175781,0.087891 -0.175781,0.087891 -0.791015,0.1904297 l -0.512696,0.087891 c -0.952148,0.1611328 -1.420898,0.6591797 -1.420898,1.5234375 0,0.41015626 0.117187,0.74707032 0.336914,0.99609376 0.27832,0.27832031 0.703125,0.45410156 1.142578,0.45410156 0.527344,0 1.025391,-0.234375 1.464844,-0.68847656 0,0.24902343 0.0293,0.33691406 0.146484,0.48339843375 h 1.362305 z M 48.522654,-1.9486211 c 0,0.7324219 -0.351562,1.14257813 -0.996093,1.14257813 -0.410157,0 -0.673829,-0.21972653 -0.673829,-0.58593753 0,-0.3808593 0.19043,-0.5566406 0.717774,-0.6591797 l 0.424805,-0.087891 c 0.336914,-0.058594 0.380859,-0.073242 0.527343,-0.1464844 z m 6.478272,-1.0839844 c -0.08789,-1.1865234 -0.878906,-1.8896484 -2.080078,-1.8896484 -1.450196,0 -2.285157,0.9521484 -2.285157,2.5927734 0,1.59667972 0.834961,2.53417972 2.270508,2.53417972 1.171875,0 1.992188,-0.71777344 2.094727,-1.87500002 h -1.201172 c -0.161133,0.6152344 -0.410156,0.86425783 -0.893555,0.86425783 -0.629883,0 -1.02539,-0.57128903 -1.02539,-1.52343753 0,-0.4541015 0.102539,-0.8789062 0.249023,-1.171875 0.146484,-0.2636718 0.424805,-0.4101562 0.776367,-0.4101562 0.512696,0 0.761719,0.2490234 0.893555,0.8789062 z M 55.8249,-6.533582 v 6.53320309375 h 1.259766 V -2.9007695 c 0,-0.5566407 0.395508,-0.9521485 0.966797,-0.9521485 0.263672,0 0.483398,0.1025391 0.629883,0.2929688 0.102539,0.1611328 0.131836,0.2929687 0.131836,0.6005859 v 2.95898439375 h 1.259765 V -3.252332 c 0,-0.600586 -0.161133,-1.0253907 -0.498047,-1.303711 -0.27832,-0.234375 -0.673828,-0.3662109 -1.083984,-0.3662109 -0.615234,0 -1.054687,0.2490234 -1.40625,0.7763672 V -6.533582 Z m 9.580079,4.5117187 c 0,-0.1171875 0,-0.1611328 0,-0.2197265 0,-0.4833985 -0.07324,-0.9375 -0.19043,-1.2744141 -0.322266,-0.8789063 -1.098633,-1.40625 -2.080078,-1.40625 -1.376953,0 -2.241211,1.0107422 -2.241211,2.6220703 0,1.55273438 0.849609,2.50488282 2.226562,2.50488282 1.083985,0 1.962891,-0.61523438 2.241211,-1.56738282 h -1.245117 c -0.146484,0.38085938 -0.498047,0.61523438 -0.952148,0.61523438 -0.366211,0 -0.644532,-0.16113281 -0.834961,-0.42480468 -0.117188,-0.1757813 -0.161133,-0.3955078 -0.175782,-0.8496094 z m -3.237305,-0.8349609 c 0.08789,-0.7324219 0.395508,-1.1132813 0.952148,-1.1132813 0.322266,0 0.600586,0.1611328 0.776367,0.4101563 0.117188,0.1757812 0.175782,0.3662109 0.205079,0.703125 z m 0,0"
       style="fill:#fbbc04;fill-opacity:1;fill-rule:nonzero;stroke:none"
       aria-label="L1/L2/L3Cache"
       transform="matrix(1.0666667,0,0,1.0666667,198.82453,78.039467)" />
    <path
       id="path8"
       d="m 2.0646035,-2.5919707 h 1.538086 c 0.5859375,0 0.8349609,0.234375 0.8349609,0.7763672 0,0.058594 0,0.1464844 -0.014648,0.2636719 0,0.1757812 0,0.336914 0,0.4394531 0,0.60058592 0.029297,0.80566405 0.2050781,1.11328123438 H 6.063627 V -0.2482207 C 5.8585488,-0.35075977 5.7853066,-0.49724414 5.7853066,-0.77556445 5.7413613,-2.7091582 5.7120645,-2.7970488 4.8771035,-3.1486113 c 0.7324219,-0.2929688 1.0986328,-0.8203125 1.0986328,-1.6259766 0,-0.5126953 -0.1757812,-0.9960937 -0.4833984,-1.3183594 C 5.1847207,-6.385916 4.7745645,-6.5324004 4.2179238,-6.5324004 H 0.71694727 V 8.0273438e-4 H 2.0646035 Z m 0,-1.1132813 v -1.7138671 h 1.6259766 c 0.3808594,0 0.5419922,0.043945 0.703125,0.1757812 0.1611328,0.1318359 0.234375,0.3515625 0.234375,0.6591797 0,0.3222656 -0.087891,0.5712891 -0.234375,0.703125 -0.1464844,0.1318359 -0.3222656,0.1757812 -0.703125,0.1757812 z m 9.1113285,1.6845704 c 0,-0.1171875 0,-0.1611329 0,-0.2197266 0,-0.4833984 -0.07324,-0.9375 -0.19043,-1.2744141 -0.322266,-0.8789062 -1.0986329,-1.40625 -2.0800782,-1.40625 -1.3769531,0 -2.2412109,1.0107422 -2.2412109,2.6220703 0,1.55273442 0.8496094,2.50488286 2.2265625,2.50488286 1.0839844,0 1.9628906,-0.61523438 2.2412106,-1.56738286 H 9.8868691 c -0.1464843,0.38085942 -0.4980468,0.61523442 -0.9521484,0.61523442 -0.3662109,0 -0.6445312,-0.16113281 -0.8349609,-0.42480472 C 7.9825723,-1.3468535 7.938627,-1.5665801 7.9239785,-2.0206816 Z m -3.237305,-0.834961 c 0.087891,-0.7324219 0.3955078,-1.1132812 0.9521484,-1.1132812 0.3222656,0 0.6005859,0.1611328 0.7763672,0.4101562 0.1171875,0.1757813 0.1757812,0.366211 0.2050781,0.703125 z m 7.181396,-1.977539 v 0.7324218 c -0.380859,-0.571289 -0.791015,-0.8203125 -1.347656,-0.8203125 -1.142578,0 -2.006836,1.1279297 -2.006836,2.6220703 0,1.50878911 0.791016,2.50488286 1.977539,2.50488286 0.571289,0 0.908203,-0.17578125 1.376953,-0.703125 v 0.65917969 c 0,0.5859375 -0.439453,0.98144535 -1.069335,0.98144535 -0.483399,0 -0.791016,-0.19042973 -0.893555,-0.55664067 H 11.86807 c 0,0.36621094 0.146485,0.62988277 0.46875,0.90820317 0.38086,0.3076171 0.922852,0.4541015 1.669922,0.4541015 1.464844,0 2.299805,-0.6445312 2.299805,-1.78710935 V -4.8331816 Z m -1.083984,0.9667968 c 0.629883,0 1.098633,0.6445313 1.098633,1.538086 0,0.8789062 -0.454102,1.47949216 -1.113281,1.47949216 -0.585938,0 -1.010743,-0.60058596 -1.010743,-1.47949216 0,-0.9082032 0.424805,-1.538086 1.025391,-1.538086 z m 4.760742,-0.9667968 H 17.537016 V 8.0273438e-4 h 1.259765 z m 0,-1.6992188 h -1.259765 v 1.1132813 h 1.259765 z m 5.159912,3.2519531 c -0.01465,-1.0253906 -0.805664,-1.640625 -2.109375,-1.640625 -1.230468,0 -1.992187,0.6152344 -1.992187,1.6113282 0,0.3222656 0.102539,0.6005859 0.27832,0.7910156 0.161133,0.1757812 0.322266,0.2490234 0.791016,0.4101562 l 1.49414,0.4541016 c 0.307618,0.1025391 0.424805,0.2050781 0.424805,0.3955078 0,0.3076172 -0.351562,0.48339845 -0.9375,0.48339845 -0.322266,0 -0.585937,-0.0732422 -0.74707,-0.17578125 -0.131836,-0.1025391 -0.19043,-0.1904297 -0.234375,-0.4541016 h -1.230469 c 0.0293,1.05468753 0.805664,1.61132816 2.285156,1.61132816 0.673828,0 1.186524,-0.14648438 1.538086,-0.42480469 0.366211,-0.29296875 0.571289,-0.73242187 0.571289,-1.21582027 0,-0.6298829 -0.307617,-1.0253907 -0.952148,-1.2158204 L 21.55435,-3.104666 c -0.351563,-0.1171875 -0.439454,-0.1904297 -0.439454,-0.3808594 0,-0.2636719 0.292969,-0.4541016 0.732422,-0.4541016 0.600586,0 0.893555,0.2197266 0.893555,0.6591797 z M 27.10977,-4.745291 h -0.703125 v -1.2890625 h -1.245118 v 1.2890625 h -0.615234 v 0.8349609 h 0.615234 v 2.97363283 c 0,0.76171875 0.395508,1.14257813 1.230469,1.14257813 0.27832,0 0.498047,-0.0292969 0.717774,-0.10253906 v -0.87890625 c -0.117188,0.0292969 -0.19043,0.0292969 -0.278321,0.0292969 -0.336914,0 -0.424804,-0.10253906 -0.424804,-0.52734375 v -2.6367188 h 0.703125 z m 4.995117,2.7246094 c 0,-0.1171875 0,-0.1611329 0,-0.2197266 0,-0.4833984 -0.07324,-0.9375 -0.19043,-1.2744141 -0.322266,-0.8789062 -1.098633,-1.40625 -2.080078,-1.40625 -1.376953,0 -2.241211,1.0107422 -2.241211,2.6220703 0,1.55273442 0.849609,2.50488286 2.226562,2.50488286 1.083985,0 1.962891,-0.61523438 2.241211,-1.56738286 h -1.245117 c -0.146484,0.38085942 -0.498047,0.61523442 -0.952148,0.61523442 -0.366211,0 -0.644531,-0.16113281 -0.834961,-0.42480472 -0.117188,-0.1757812 -0.161133,-0.3955078 -0.175781,-0.8496093 z m -3.237305,-0.834961 c 0.08789,-0.7324219 0.395508,-1.1132812 0.952148,-1.1132812 0.322266,0 0.600586,0.1611328 0.776368,0.4101562 0.117187,0.1757813 0.175781,0.366211 0.205078,0.703125 z m 4.090576,-1.977539 V 8.0273438e-4 h 1.245117 V -2.5773223 c 0,-0.7324218 0.366211,-1.0986328 1.113282,-1.0986328 0.131836,0 0.219726,0.014648 0.380859,0.043945 v -1.274414 c -0.05859,-0.014648 -0.117187,-0.014648 -0.146484,-0.014648 -0.571289,0 -1.069336,0.3808594 -1.347657,1.0253907 v -0.9375 z m 7.309571,1.5527343 c -0.01465,-1.0253906 -0.805665,-1.640625 -2.109375,-1.640625 -1.230469,0 -1.992188,0.6152344 -1.992188,1.6113282 0,0.3222656 0.102539,0.6005859 0.27832,0.7910156 0.161133,0.1757812 0.322266,0.2490234 0.791016,0.4101562 l 1.494141,0.4541016 c 0.307617,0.1025391 0.424804,0.2050781 0.424804,0.3955078 0,0.3076172 -0.351562,0.48339845 -0.9375,0.48339845 -0.322265,0 -0.585937,-0.0732422 -0.74707,-0.17578125 -0.131836,-0.1025391 -0.19043,-0.1904297 -0.234375,-0.4541016 h -1.230469 c 0.0293,1.05468753 0.805664,1.61132816 2.285156,1.61132816 0.673829,0 1.186524,-0.14648438 1.538086,-0.42480469 0.366211,-0.29296875 0.571289,-0.73242187 0.571289,-1.21582027 0,-0.6298829 -0.307617,-1.0253907 -0.952148,-1.2158204 L 37.865385,-3.104666 c -0.351563,-0.1171875 -0.439453,-0.1904297 -0.439453,-0.3808594 0,-0.2636719 0.292968,-0.4541016 0.732422,-0.4541016 0.600585,0 0.893554,0.2197266 0.893554,0.6591797 z m 0,0"
       style="fill:#d9534f;fill-opacity:1;fill-rule:nonzero;stroke:none"
       aria-label="Registers"
       transform="matrix(1.0666667,0,0,1.0666667,212.1376,41.5968)" />
    <path
       id="path9"
       d="M 148.82072,0 V 168.77618"
       style="fill:none;stroke:#999999;stroke-width:0.99628;stroke-linecap:round;stroke-linejoin:round;stroke-miterlimit:10;stroke-dasharray:none;stroke-opacity:1"
       transform="matrix(1.0666667,0,0,-1.0666667,233.85813,187.9968)" />
    <path
       id="path10"
       d="M 4.92007,0 C 4.31586,0.15076 1.65996,1.00505 0,1.93475 v -3.8695 C 1.65996,-1.00505 4.31586,-0.15076 4.92007,0 Z"
       style="fill:#999999;fill-opacity:1;fill-rule:nonzero;stroke:#999999;stroke-width:0.99628;stroke-linecap:round;stroke-linejoin:miter;stroke-miterlimit:10;stroke-dasharray:none;stroke-opacity:1"
       transform="matrix(0,-1.0666667,-1.0666667,0,392.60023,7.9688747)" />
    <path
       id="path11"
       d="M 1.6422441,-2.9740508 H 4.7623613 V -3.7064727 H 1.6422441 V -5.8011992 H 5.187166 V -6.5336211 H 0.8072832 v 6.53320313125 h 0.8349609 z m 8.1774903,2.53417971 c -0.073242,0.0146484 -0.1171875,0.0146484 -0.1611328,0.0146484 -0.2490235,0 -0.3955078,-0.13183593 -0.3955078,-0.36621093 V -3.5453398 c 0,-0.834961 -0.6152344,-1.2890625 -1.772461,-1.2890625 -0.6738281,0 -1.2451172,0.2050781 -1.5527344,0.5419921 -0.2197265,0.2490235 -0.3076171,0.5126954 -0.3222656,0.9814454 h 0.7470703 c 0.058594,-0.5712891 0.4101563,-0.834961 1.0986328,-0.834961 0.6738282,0 1.0546875,0.2490235 1.0546875,0.703125 v 0.1904297 c 0,0.3222656 -0.1904296,0.4541016 -0.7763671,0.5273438 -1.0546875,0.1318359 -1.2158204,0.1757812 -1.5087891,0.2929687 -0.5419922,0.2197266 -0.8203125,0.6445313 -0.8203125,1.2451172 0,0.84960937 0.5859375,1.39160156 1.5380859,1.39160156 0.5859375,0 1.069336,-0.20507812875 1.5966797,-0.68847657 0.058594,0.46875 0.2783203,0.68847657 0.7763672,0.68847657 0.1464844,0 0.2636719,-0.0146484 0.4980469,-0.0732422 z M 8.5160234,-1.4799102 c 0,0.2490235 -0.073242,0.4101563 -0.2929687,0.61523442 -0.3076172,0.27832031 -0.6738281,0.41015625 -1.1132813,0.41015625 -0.5859375,0 -0.9228515,-0.27832031 -0.9228515,-0.74707027 0,-0.4980469 0.336914,-0.7470704 1.1279297,-0.8642579 C 8.1058672,-2.1683867 8.267,-2.212332 8.5160234,-2.3295195 Z M 13.939607,-3.384207 c -0.01465,-0.9228516 -0.615234,-1.4501953 -1.699218,-1.4501953 -1.098633,0 -1.801758,0.571289 -1.801758,1.4355468 0,0.7324219 0.366211,1.0839844 1.479492,1.3476563 l 0.703125,0.1757812 c 0.527344,0.131836 0.732422,0.3222657 0.732422,0.6591797 0,0.43945314 -0.439453,0.73242189 -1.098633,0.73242189 -0.410156,0 -0.74707,-0.1171875 -0.9375,-0.30761718 C 11.20035,-0.93791797 11.156404,-1.0697539 11.112459,-1.3920195 h -0.791016 c 0.0293,1.08398434 0.644532,1.59667966 1.875,1.59667966 1.171875,0 1.933594,-0.5859375 1.933594,-1.49414066 0,-0.6884765 -0.395508,-1.0839843 -1.333008,-1.3037109 l -0.717773,-0.1611328 c -0.600586,-0.1464844 -0.864258,-0.3515625 -0.864258,-0.6738281 0,-0.4394532 0.380859,-0.7177735 0.996094,-0.7177735 0.600586,0 0.922851,0.2636719 0.9375,0.7617188 z m 2.830811,-1.3183594 h -0.761719 v -1.2890625 h -0.74707 v 1.2890625 h -0.629883 v 0.6152344 h 0.629883 v 3.54492184 c 0,0.48339844 0.322266,0.74707032 0.908203,0.74707032 0.175781,0 0.351563,-0.0146484 0.600586,-0.0585938 v -0.62988282 c -0.08789,0.0292969 -0.205078,0.0292969 -0.351563,0.0292969 -0.322265,0 -0.410156,-0.0878906 -0.410156,-0.41015625 V -4.087332 h 0.761719 z m 4.819336,2.6074219 c 0,-0.7177735 -0.05859,-1.1572266 -0.19043,-1.4941407 -0.307617,-0.7763671 -1.02539,-1.2451171 -1.904297,-1.2451171 -1.303711,0 -2.15332,1.0107421 -2.15332,2.5488281 0,1.53808592 0.820313,2.49023436 2.138672,2.49023436 1.083984,0 1.816406,-0.61523438 2.006836,-1.62597656 h -0.74707 c -0.205079,0.61523437 -0.629883,0.93749999 -1.230469,0.93749999 -0.46875,0 -0.878906,-0.21972656 -1.12793,-0.61523439 -0.175781,-0.2636719 -0.249023,-0.5273437 -0.249023,-0.9960937 z m -3.442383,-0.6152344 c 0.05859,-0.8642578 0.585938,-1.4355469 1.347656,-1.4355469 0.732422,0 1.289063,0.6152344 1.289063,1.3916016 0,0.014648 0,0.029297 0,0.043945 z m 4.445801,-1.9921875 v 4.70214843125 h 0.761719 V -2.4320586 c 0,-0.6738281 0.161132,-1.1132812 0.527343,-1.3769531 0.234375,-0.1757813 0.454102,-0.2197266 0.966797,-0.234375 v -0.7617188 c -0.117187,-0.014648 -0.175781,-0.029297 -0.27832,-0.029297 -0.483398,0 -0.849609,0.2929687 -1.289063,0.9814453 v -0.8496094 z m 10.209961,0.087891 c -0.01465,-1.2890625 -0.893555,-2.0214844 -2.402344,-2.0214844 -1.435547,0 -2.314453,0.7324219 -2.314453,1.9042969 0,0.8056641 0.424805,1.303711 1.274414,1.538086 l 1.625977,0.4248046 c 0.820312,0.2197266 1.201171,0.5419922 1.201171,1.0546875 0,0.3515625 -0.190429,0.703125 -0.46875,0.90820317 -0.249023,0.17578125 -0.673828,0.27832031 -1.201171,0.27832031 -0.703125,0 -1.186524,-0.17578125 -1.508789,-0.54199218 -0.234375,-0.2929688 -0.336915,-0.6005859 -0.336915,-1.0107422 h -0.791015 c 0.01465,0.6005859 0.131836,0.9960938 0.395508,1.34765626 0.439453,0.61523437 1.201172,0.9375 2.197265,0.9375 0.776367,0 1.40625,-0.17578125 1.831055,-0.49804688 0.439453,-0.3515625 0.717773,-0.93749998 0.717773,-1.49414058 0,-0.8056641 -0.498046,-1.40625 -1.391601,-1.640625 l -1.640625,-0.4394532 c -0.791016,-0.2197265 -1.069336,-0.46875 -1.069336,-0.9667968 0,-0.6738282 0.585937,-1.1132813 1.464844,-1.1132813 1.040039,0 1.611328,0.4833984 1.625976,1.3330078 z m 1.116943,6.5625 h 0.74707 v -2.44628904 c 0.395508,0.48339843 0.834961,0.703125 1.450196,0.703125 1.21582,0 2.006836,-0.98144532 2.006836,-2.47558596 0,-1.5820312 -0.776367,-2.5634765 -2.021485,-2.5634765 -0.629882,0 -1.142578,0.2929687 -1.49414,0.8496093 V -4.702566 h -0.688477 z m 2.06543,-6.0791015 c 0.820312,0 1.362305,0.7177734 1.362305,1.8457031 0,1.0693359 -0.556641,1.78710936 -1.362305,1.78710936 -0.791016,0 -1.31836,-0.71777346 -1.31836,-1.81640626 0,-1.0986328 0.527344,-1.8164062 1.31836,-1.8164062 z m 7.034912,2.0361328 c 0,-0.7177735 -0.05859,-1.1572266 -0.19043,-1.4941407 -0.307617,-0.7763671 -1.02539,-1.2451171 -1.904297,-1.2451171 -1.303711,0 -2.15332,1.0107421 -2.15332,2.5488281 0,1.53808592 0.820313,2.49023436 2.138672,2.49023436 1.083984,0 1.816406,-0.61523438 2.006836,-1.62597656 h -0.74707 c -0.205079,0.61523437 -0.629883,0.93749999 -1.230469,0.93749999 -0.46875,0 -0.878906,-0.21972656 -1.12793,-0.61523439 -0.175781,-0.2636719 -0.249023,-0.5273437 -0.249023,-0.9960937 z m -3.442383,-0.6152344 c 0.05859,-0.8642578 0.585938,-1.4355469 1.347656,-1.4355469 0.732422,0 1.289063,0.6152344 1.289063,1.3916016 0,0.014648 0,0.029297 0,0.043945 z m 8.426514,0.6152344 c 0,-0.7177735 -0.05859,-1.1572266 -0.19043,-1.4941407 -0.307617,-0.7763671 -1.02539,-1.2451171 -1.904297,-1.2451171 -1.303711,0 -2.15332,1.0107421 -2.15332,2.5488281 0,1.53808592 0.820312,2.49023436 2.138672,2.49023436 1.083984,0 1.816406,-0.61523438 2.006836,-1.62597656 h -0.747071 c -0.205078,0.61523437 -0.629882,0.93749999 -1.230468,0.93749999 -0.46875,0 -0.878907,-0.21972656 -1.12793,-0.61523439 -0.175781,-0.2636719 -0.249023,-0.5273437 -0.249023,-0.9960937 z m -3.442383,-0.6152344 c 0.05859,-0.8642578 0.585938,-1.4355469 1.347656,-1.4355469 0.732422,0 1.289063,0.6152344 1.289063,1.3916016 0,0.014648 0,0.029297 0,0.043945 z m 8.269043,-3.8232422 h -0.74707 v 2.4316406 c -0.307618,-0.4833984 -0.820313,-0.7324218 -1.435547,-0.7324218 -1.230469,0 -2.021485,0.9814453 -2.021485,2.4755859 0,1.58203124 0.776368,2.56347656 2.036133,2.56347656 0.65918,0 1.098633,-0.234375 1.508789,-0.8203125 v 0.61523437125 h 0.65918 z m -2.06543,2.4023438 c 0.805664,0 1.31836,0.7177734 1.31836,1.8310546 0,1.0839844 -0.512696,1.80175786 -1.303711,1.80175786 -0.834961,0 -1.376953,-0.71777346 -1.376953,-1.81640626 0,-1.0986328 0.541992,-1.8164062 1.362304,-1.8164062 z m 0,0"
       style="fill:#000000;fill-opacity:1;fill-rule:nonzero;stroke:none"
       aria-label="FasterSpeed"
       transform="matrix(1.0666667,0,0,1.0666667,399.18187,90.930133)" />
    <path
       id="path12"
       d="M 1.5536172,-6.5319277 H 0.71865625 V 0.00127539 H 4.7762734 V -0.73114648 H 1.5536172 Z m 5.8630371,1.6992187 c -1.3183594,0 -2.109375,0.9375 -2.109375,2.5195313 0,1.58203122 0.7910156,2.51953122 2.1240234,2.51953122 1.3183594,0 2.1240235,-0.9375 2.1240235,-2.47558592 0,-1.6259766 -0.7763672,-2.5634766 -2.1386719,-2.5634766 z m 0.014648,0.6884766 c 0.8496094,0 1.3476563,0.6884765 1.3476563,1.8603515 0,1.0986329 -0.5273438,1.80175785 -1.3476563,1.80175785 -0.8349609,0 -1.3476562,-0.68847655 -1.3476562,-1.83105465 0,-1.1279297 0.5126953,-1.8310547 1.3476562,-1.8310547 z M 14.803129,0.00127539 16.180082,-4.700873 h -0.834961 l -0.9375,3.6621093 L 13.48477,-4.700873 H 12.576566 L 11.668363,-1.0387637 10.716215,-4.700873 H 9.8959023 l 1.3623047,4.70214839 h 0.834961 l 0.908203,-3.69140629 0.952149,3.69140629 z m 6.016846,-2.09472659 c 0,-0.7177734 -0.05859,-1.1572265 -0.19043,-1.4941406 -0.307617,-0.7763672 -1.025391,-1.2451172 -1.904297,-1.2451172 -1.303711,0 -2.15332,1.0107422 -2.15332,2.5488281 0,1.53808598 0.820312,2.49023442 2.138672,2.49023442 1.083984,0 1.816406,-0.61523438 2.006836,-1.62597652 h -0.747071 c -0.205078,0.61523433 -0.629883,0.93749995 -1.230469,0.93749995 -0.46875,0 -0.878906,-0.21972656 -1.127929,-0.61523435 -0.175781,-0.2636719 -0.249024,-0.5273438 -0.249024,-0.9960938 z m -3.442383,-0.6152343 c 0.05859,-0.8642579 0.585937,-1.4355469 1.347656,-1.4355469 0.732422,0 1.289063,0.6152344 1.289063,1.3916015 0,0.014649 0,0.029297 0,0.043945 z M 21.81973,-4.700873 v 4.70214839 h 0.761719 V -2.4303652 c 0,-0.6738282 0.161133,-1.1132813 0.527344,-1.3769532 0.234375,-0.1757812 0.454102,-0.2197265 0.966797,-0.234375 v -0.7617187 c -0.117188,-0.014648 -0.175781,-0.029297 -0.27832,-0.029297 -0.483399,0 -0.84961,0.2929688 -1.289063,0.9814453 V -4.700873 Z m 6.416016,-1.8310547 h -0.834961 v 6.53320309 h 4.057617 v -0.73242187 h -3.222656 z m 8.225098,6.09374997 c -0.07324,0.0146484 -0.117188,0.0146484 -0.161133,0.0146484 -0.249024,0 -0.395508,-0.13183593 -0.395508,-0.36621093 V -3.5436465 c 0,-0.8349609 -0.615234,-1.2890625 -1.772461,-1.2890625 -0.673828,0 -1.245117,0.2050781 -1.552734,0.5419922 -0.219727,0.2490234 -0.307617,0.5126953 -0.322266,0.9814453 h 0.74707 c 0.05859,-0.571289 0.410157,-0.8349609 1.098633,-0.8349609 0.673828,0 1.054688,0.2490234 1.054688,0.703125 v 0.1904297 c 0,0.3222656 -0.19043,0.4541015 -0.776367,0.5273437 -1.054688,0.131836 -1.215821,0.1757813 -1.508789,0.2929688 -0.541993,0.2197265 -0.820313,0.6445312 -0.820313,1.2451172 0,0.84960933 0.585938,1.39160152 1.538086,1.39160152 0.585937,0 1.069336,-0.20507813 1.59668,-0.68847657 0.05859,0.46875 0.27832,0.68847657 0.776367,0.68847657 0.146484,0 0.263672,-0.0146484 0.498047,-0.0732422 z M 35.157133,-1.4782168 c 0,0.2490234 -0.07324,0.4101563 -0.292969,0.61523438 -0.307617,0.27832031 -0.673828,0.41015625 -1.113281,0.41015625 -0.585938,0 -0.922852,-0.27832031 -0.922852,-0.74707033 0,-0.4980469 0.336914,-0.7470703 1.12793,-0.8642578 0.791016,-0.1025391 0.952148,-0.1464844 1.201172,-0.2636719 z m 3.76831,-3.2226562 h -0.761718 v -1.2890625 h -0.747071 v 1.2890625 h -0.629883 v 0.6152343 h 0.629883 v 3.5449219 c 0,0.48339844 0.322266,0.74707032 0.908203,0.74707032 0.175782,0 0.351563,-0.0146484 0.600586,-0.0585938 V -0.4821231 c -0.08789,0.0292969 -0.205078,0.0292969 -0.351562,0.0292969 -0.322266,0 -0.410156,-0.0878906 -0.410156,-0.41015625 V -4.0856387 h 0.761718 z m 4.822998,2.6074218 c 0,-0.7177734 -0.05859,-1.1572265 -0.190429,-1.4941406 -0.307617,-0.7763672 -1.025391,-1.2451172 -1.904297,-1.2451172 -1.303711,0 -2.15332,1.0107422 -2.15332,2.5488281 0,1.53808598 0.820312,2.49023442 2.138671,2.49023442 1.083985,0 1.816407,-0.61523438 2.006836,-1.62597652 h -0.74707 c -0.205078,0.61523433 -0.629883,0.93749995 -1.230469,0.93749995 -0.46875,0 -0.878906,-0.21972656 -1.127929,-0.61523435 -0.175782,-0.2636719 -0.249024,-0.5273438 -0.249024,-0.9960938 z m -3.442382,-0.6152343 c 0.05859,-0.8642579 0.585937,-1.4355469 1.347656,-1.4355469 0.732422,0 1.289062,0.6152344 1.289062,1.3916015 0,0.014649 0,0.029297 0,0.043945 z m 4.456787,-1.9921875 v 4.70214839 h 0.74707 V -2.591498 c 0,-0.9521485 0.512695,-1.5820313 1.274414,-1.5820313 0.600586,0 0.966797,0.3515625 0.966797,0.9228516 v 3.25195309 h 0.74707 V -3.5436465 c 0,-0.7910156 -0.585937,-1.2890625 -1.49414,-1.2890625 -0.688477,0 -1.142578,0.2636719 -1.552735,0.9228516 V -4.700873 Z m 8.572998,1.5820312 c -0.0293,-0.4541016 -0.131836,-0.7470703 -0.307617,-1.0107422 -0.322266,-0.4394531 -0.893555,-0.703125 -1.538086,-0.703125 -1.274414,0 -2.094727,1.0107422 -2.094727,2.5634766 0,1.52343748 0.805664,2.47558592 2.080078,2.47558592 1.113281,0 1.831055,-0.67382813 1.918945,-1.81640622 h -0.74707 c -0.131836,0.74707028 -0.512695,1.12792965 -1.157226,1.12792965 -0.820313,0 -1.31836,-0.67382815 -1.31836,-1.78710935 0,-1.171875 0.483399,-1.875 1.303711,-1.875 0.629883,0 1.025391,0.3662109 1.113281,1.0253906 z m 3.735351,-1.5820312 -1.289062,3.6621093 -1.201172,-3.6621093 h -0.805664 l 1.59668,4.71679683 -0.292969,0.74707031 C 54.96182,1.0999082 54.786039,1.2170957 54.478422,1.2170957 c -0.102539,0 -0.234375,-0.014648 -0.395508,-0.043945 v 0.6591797 c 0.146484,0.087891 0.307617,0.1171875 0.498047,0.1171875 0.249023,0 0.512695,-0.073242 0.703125,-0.2197266 0.234375,-0.1757812 0.366211,-0.3662109 0.512695,-0.7470703 l 2.094727,-5.6835937 z m 0,0"
       style="fill:#000000;fill-opacity:1;fill-rule:nonzero;stroke:none"
       aria-label="LowerLatency"
       transform="matrix(1.0666667,0,0,1.0666667,396.67093,102.61973)" />
    <path
       id="path13"
       d="M -148.82072,175.75012 V 6.97394"
       style="fill:none;stroke:#999999;stroke-width:0.99628;stroke-linecap:round;stroke-linejoin:round;stroke-miterlimit:10;stroke-dasharray:none;stroke-opacity:1"
       transform="matrix(1.0666667,0,0,-1.0666667,233.85813,187.9968)" />
    <path
       id="path14"
       d="M 4.92007,0 C 4.31586,0.15076 1.65996,1.00505 0,1.93475 v -3.8695 C 1.65996,-1.00505 4.31586,-0.15076 4.92007,0 Z"
       style="fill:#999999;fill-opacity:1;fill-rule:nonzero;stroke:#999999;stroke-width:0.99628;stroke-linecap:round;stroke-linejoin:miter;stroke-miterlimit:10;stroke-dasharray:none;stroke-opacity:1"
       transform="matrix(0,1.0666667,1.0666667,0,75.116032,180.55793)" />
    <path
       id="path15"
       d="M 1.5532676,-6.5323496 H 0.71830664 V 8.5351562e-4 H 4.7759238 V -0.73156836 H 1.5532676 Z m 8.2214355,6.09374999 c -0.073242,0.0146484 -0.1171875,0.0146484 -0.1611328,0.0146484 -0.2490234,0 -0.3955078,-0.13183594 -0.3955078,-0.36621094 V -3.5440684 c 0,-0.8349609 -0.6152344,-1.2890625 -1.7724609,-1.2890625 -0.6738282,0 -1.2451172,0.2050782 -1.5527344,0.5419922 -0.2197266,0.2490235 -0.3076172,0.5126953 -0.3222656,0.9814453 h 0.7470703 c 0.058594,-0.571289 0.4101562,-0.8349609 1.0986328,-0.8349609 0.6738281,0 1.0546875,0.2490234 1.0546875,0.703125 v 0.1904297 c 0,0.3222656 -0.1904297,0.4541016 -0.7763672,0.5273437 -1.0546875,0.131836 -1.2158203,0.1757813 -1.5087891,0.2929688 -0.5419921,0.2197266 -0.8203125,0.6445312 -0.8203125,1.2451172 0,0.84960935 0.5859375,1.39160154 1.538086,1.39160154 0.5859375,0 1.0693359,-0.20507812438 1.5966797,-0.68847656 0.058594,0.46875 0.2783203,0.68847656 0.7763672,0.68847656 0.1464843,0 0.2636718,-0.0146484 0.4980468,-0.0732422 z M 8.4709922,-1.4786387 c 0,0.2490235 -0.073242,0.4101563 -0.2929688,0.6152344 -0.3076171,0.27832032 -0.6738281,0.41015625 -1.1132812,0.41015625 -0.5859375,0 -0.9228516,-0.27832031 -0.9228516,-0.74707035 0,-0.4980468 0.3369141,-0.7470703 1.1279297,-0.8642578 0.7910156,-0.102539 0.9521485,-0.1464843 1.2011719,-0.2636718 z M 10.584029,-4.7012949 V 8.5351562e-4 h 0.761719 V -2.4307871 c 0,-0.6738281 0.161133,-1.1132813 0.527344,-1.3769531 0.234375,-0.1757813 0.454101,-0.2197266 0.966797,-0.234375 V -4.803834 c -0.117188,-0.014648 -0.175782,-0.029297 -0.278321,-0.029297 -0.483398,0 -0.849609,0.2929688 -1.289062,0.9814454 V -4.701295 Z m 6.064453,0 v 0.6884765 c -0.380859,-0.5566406 -0.834961,-0.8203125 -1.435546,-0.8203125 -1.186524,0 -1.992188,1.0400391 -1.992188,2.5634766 0,0.7763672 0.205078,1.40625 0.585938,1.84570313 0.351562,0.39550781 0.849609,0.62988281 1.347656,0.62988281 0.585937,0 0.996094,-0.24902344 1.420898,-0.83496094 v 0.234375 c 0,0.64453125 -0.07324,1.02539063 -0.263672,1.2890625 -0.205078,0.2783203 -0.585937,0.4394531 -1.040039,0.4394531 -0.336914,0 -0.644531,-0.102539 -0.849609,-0.2636718 C 14.246139,0.93835352 14.172896,0.82116602 14.128951,0.5428457 h -0.761719 c 0.08789,0.8789063 0.776368,1.40625 1.875,1.40625 0.703125,0 1.303711,-0.2197266 1.611329,-0.6005859 0.351562,-0.42480472 0.483398,-1.01074222 0.483398,-2.12402347 V -4.7012949 Z m -1.347656,0.5566406 c 0.805664,0 1.274414,0.6884766 1.274414,1.8603516 0,1.1132812 -0.483398,1.80175778 -1.274414,1.80175778 -0.805664,0 -1.303711,-0.68847658 -1.303711,-1.83105468 0,-1.1279297 0.498047,-1.8310547 1.303711,-1.8310547 z m 7.23999,2.0507813 c 0,-0.7177735 -0.05859,-1.1572266 -0.190429,-1.4941407 -0.307617,-0.7763672 -1.025391,-1.2451172 -1.904297,-1.2451172 -1.303711,0 -2.15332,1.0107422 -2.15332,2.5488282 0,1.5380859 0.820312,2.49023434 2.138671,2.49023434 1.083985,0 1.816407,-0.61523437 2.006836,-1.62597654 h -0.74707 c -0.205078,0.61523435 -0.629883,0.93749998 -1.230469,0.93749998 -0.46875,0 -0.878906,-0.21972656 -1.127929,-0.61523438 -0.175782,-0.2636719 -0.249024,-0.5273437 -0.249024,-0.9960937 z m -3.442382,-0.6152344 c 0.05859,-0.8642578 0.585937,-1.4355469 1.347656,-1.4355469 0.732422,0 1.289062,0.6152344 1.289062,1.3916016 0,0.014648 0,0.029297 0,0.043945 z m 4.442138,-1.9921875 V 8.5351562e-4 h 0.761719 V -2.4307871 c 0,-0.6738281 0.161133,-1.1132813 0.527344,-1.3769531 0.234375,-0.1757813 0.454101,-0.2197266 0.966797,-0.234375 V -4.803834 c -0.117188,-0.014648 -0.175782,-0.029297 -0.278321,-0.029297 -0.483398,0 -0.849609,0.2929688 -1.289062,0.9814454 V -4.701295 Z m 10.788574,0.1904297 c -0.263671,-1.4355469 -1.083984,-2.1240235 -2.519531,-2.1240235 -0.878906,0 -1.582031,0.2636719 -2.065429,0.8056641 -0.600586,0.6445312 -0.922852,1.5820312 -0.922852,2.6367187 0,1.0839844 0.336914,2.006836 0.952148,2.63671879 0.512696,0.52734375 1.157227,0.76171875 2.006836,0.76171875 1.59668,0 2.490235,-0.86425781 2.680664,-2.59277344 h -0.849609 c -0.07324,0.4541016 -0.161133,0.7617188 -0.307617,1.0107422 -0.263672,0.54199218 -0.820313,0.84960937 -1.523438,0.84960937 -1.289062,0 -2.124023,-1.04003907 -2.124023,-2.66601567 0,-1.6845703 0.791016,-2.7099609 2.050781,-2.7099609 0.541992,0 1.025391,0.1611328 1.303711,0.4101563 0.234375,0.2197265 0.366211,0.4980468 0.46875,0.9814453 z m 5.332032,4.07226559 c -0.07324,0.0146484 -0.117188,0.0146484 -0.161133,0.0146484 -0.249024,0 -0.395508,-0.13183594 -0.395508,-0.36621094 V -3.5440684 c 0,-0.8349609 -0.615234,-1.2890625 -1.772461,-1.2890625 -0.673828,0 -1.245117,0.2050782 -1.552734,0.5419922 -0.219727,0.2490235 -0.307617,0.5126953 -0.322266,0.9814453 h 0.74707 c 0.05859,-0.571289 0.410157,-0.8349609 1.098633,-0.8349609 0.673828,0 1.054688,0.2490234 1.054688,0.703125 v 0.1904297 c 0,0.3222656 -0.19043,0.4541016 -0.776367,0.5273437 -1.054688,0.131836 -1.215821,0.1757813 -1.508789,0.2929688 -0.541993,0.2197266 -0.820313,0.6445312 -0.820313,1.2451172 0,0.84960935 0.585938,1.39160154 1.538086,1.39160154 0.585937,0 1.069336,-0.20507812438 1.59668,-0.68847656 0.05859,0.46875 0.27832,0.68847656 0.776367,0.68847656 0.146484,0 0.263672,-0.0146484 0.498047,-0.0732422 z M 38.357467,-1.4786387 c 0,0.2490235 -0.07324,0.4101563 -0.292969,0.6152344 -0.307617,0.27832032 -0.673828,0.41015625 -1.113281,0.41015625 -0.585938,0 -0.922852,-0.27832031 -0.922852,-0.74707035 0,-0.4980468 0.336914,-0.7470703 1.12793,-0.8642578 0.791016,-0.102539 0.952148,-0.1464843 1.201172,-0.2636718 z m 1.981201,3.4277344 h 0.74707 v -2.44628906 c 0.395508,0.48339844 0.834961,0.703125 1.450196,0.703125 1.21582,0 2.006836,-0.98144531 2.006836,-2.47558594 0,-1.5820312 -0.776368,-2.5634766 -2.021485,-2.5634766 -0.629883,0 -1.142578,0.2929688 -1.49414,0.8496094 v -0.7177734 h -0.688477 z m 2.06543,-6.0791016 c 0.820312,0 1.362304,0.7177735 1.362304,1.8457032 0,1.0693359 -0.55664,1.78710934 -1.362304,1.78710934 -0.791016,0 -1.31836,-0.71777344 -1.31836,-1.81640624 0,-1.0986328 0.527344,-1.8164063 1.31836,-1.8164063 z m 7.225341,3.69140629 c -0.07324,0.0146484 -0.117187,0.0146484 -0.161132,0.0146484 -0.249024,0 -0.395508,-0.13183594 -0.395508,-0.36621094 V -3.5440684 c 0,-0.8349609 -0.615235,-1.2890625 -1.772461,-1.2890625 -0.673828,0 -1.245117,0.2050782 -1.552734,0.5419922 -0.219727,0.2490235 -0.307618,0.5126953 -0.322266,0.9814453 h 0.74707 c 0.05859,-0.571289 0.410156,-0.8349609 1.098633,-0.8349609 0.673828,0 1.054688,0.2490234 1.054688,0.703125 v 0.1904297 c 0,0.3222656 -0.19043,0.4541016 -0.776368,0.5273437 -1.054687,0.131836 -1.21582,0.1757813 -1.508789,0.2929688 -0.541992,0.2197266 -0.820312,0.6445312 -0.820312,1.2451172 0,0.84960935 0.585937,1.39160154 1.538086,1.39160154 0.585937,0 1.069336,-0.20507812438 1.596679,-0.68847656 0.05859,0.46875 0.278321,0.68847656 0.776368,0.68847656 0.146484,0 0.263671,-0.0146484 0.498046,-0.0732422 z m -1.30371,-1.04003909 c 0,0.2490235 -0.07324,0.4101563 -0.292969,0.6152344 -0.307617,0.27832032 -0.673828,0.41015625 -1.113281,0.41015625 -0.585938,0 -0.922852,-0.27832031 -0.922852,-0.74707035 0,-0.4980468 0.336914,-0.7470703 1.12793,-0.8642578 0.791015,-0.102539 0.952148,-0.1464843 1.201172,-0.2636718 z m 5.720214,-1.640625 c -0.0293,-0.4541015 -0.131836,-0.7470703 -0.307617,-1.0107422 -0.322265,-0.4394531 -0.893555,-0.703125 -1.538086,-0.703125 -1.274414,0 -2.094726,1.0107422 -2.094726,2.5634766 0,1.5234375 0.805664,2.47558594 2.080078,2.47558594 1.113281,0 1.831054,-0.67382812 1.918945,-1.81640624 h -0.74707 c -0.131836,0.7470703 -0.512696,1.12792968 -1.157227,1.12792968 -0.820312,0 -1.318359,-0.67382808 -1.318359,-1.78710938 0,-1.171875 0.483398,-1.875 1.303711,-1.875 0.629883,0 1.02539,0.3662109 1.113281,1.0253906 z m 1.611328,-1.5820312 h -0.74707 V 8.5351562e-4 h 0.74707 z m 0,-1.8310547 h -0.761718 v 0.9375 h 0.761718 z m 2.911377,1.8310547 H 57.80693 v -1.2890625 h -0.747071 v 1.2890625 h -0.629882 v 0.6152344 h 0.629882 v 3.54492183 c 0,0.48339844 0.322266,0.74707031 0.908204,0.74707031 0.175781,0 0.351562,-0.0146484 0.600585,-0.0585938 v -0.62988281 c -0.08789,0.0292969 -0.205078,0.0292969 -0.351562,0.0292969 -0.322266,0 -0.410156,-0.0878906 -0.410156,-0.41015625 V -4.0860605 h 0.761718 z m 3.695069,0 -1.289063,3.6621094 -1.201172,-3.6621094 h -0.805664 l 1.59668,4.71679685 -0.292969,0.74707032 C 60.154342,1.0994863 59.978561,1.2166738 59.670943,1.2166738 c -0.102539,0 -0.234375,-0.014648 -0.395507,-0.043945 v 0.6591797 c 0.146484,0.087891 0.307617,0.1171875 0.498046,0.1171875 0.249024,0 0.512696,-0.073242 0.703125,-0.2197266 0.234375,-0.1757812 0.366211,-0.3662109 0.512696,-0.74707027 l 2.094726,-5.68359373 z m 0,0"
       style="fill:#000000;fill-opacity:1;fill-rule:nonzero;stroke:none"
       aria-label="LargerCapacity"
       transform="matrix(1.0666667,0,0,1.0666667,3.5424,91.838933)" />
    <path
       id="path16"
       d="M 1.5532988,-6.5343184 H 0.71833789 v 6.53320317 H 4.7759551 V -0.73353711 H 1.5532988 Z m 5.8630371,1.6992188 c -1.3183593,0 -2.109375,0.9375 -2.109375,2.5195312 0,1.58203129 0.7910157,2.51953129 2.1240235,2.51953129 1.3183594,0 2.1240234,-0.9375 2.1240234,-2.47558589 0,-1.6259766 -0.7763672,-2.5634766 -2.1386719,-2.5634766 z m 0.014648,0.6884766 c 0.8496094,0 1.3476562,0.6884765 1.3476562,1.8603515 0,1.0986328 -0.5273437,1.80175783 -1.3476562,1.80175783 -0.834961,0 -1.3476563,-0.68847653 -1.3476563,-1.83105473 0,-1.1279296 0.5126953,-1.8310546 1.3476563,-1.8310546 z m 7.3718271,4.14550777 1.376952,-4.70214847 h -0.83496 l -0.9375,3.6621094 -0.922853,-3.6621094 h -0.908203 l -0.908203,3.6621094 -0.952149,-3.6621094 H 9.895584 l 1.362305,4.70214847 h 0.834961 l 0.908203,-3.69140627 0.952148,3.69140627 z m 6.016844,-2.09472657 c 0,-0.7177734 -0.05859,-1.1572266 -0.190429,-1.4941406 -0.307618,-0.7763672 -1.025391,-1.2451172 -1.904297,-1.2451172 -1.303711,0 -2.153321,1.0107422 -2.153321,2.5488281 0,1.53808595 0.820313,2.49023439 2.138672,2.49023439 1.083985,0 1.816407,-0.61523437 2.006836,-1.62597659 h -0.74707 c -0.205078,0.6152344 -0.629883,0.93750003 -1.230469,0.93750003 -0.46875,0 -0.878906,-0.21972656 -1.12793,-0.61523433 -0.175781,-0.2636719 -0.249023,-0.5273438 -0.249023,-0.9960938 z m -3.442383,-0.6152344 c 0.05859,-0.8642578 0.585938,-1.4355468 1.347658,-1.4355468 0.732422,0 1.289062,0.6152343 1.289062,1.3916015 0,0.014648 0,0.029297 0,0.043945 z m 4.442139,-1.9921875 v 4.70214847 H 22.58113 V -2.4327559 c 0,-0.6738281 0.161133,-1.1132812 0.527344,-1.3769531 0.234375,-0.1757812 0.454101,-0.2197265 0.966796,-0.234375 v -0.7617187 c -0.117187,-0.014648 -0.175781,-0.029297 -0.27832,-0.029297 -0.483398,0 -0.849609,0.2929687 -1.289062,0.9814453 V -4.7032638 Z M 32.61531,-4.512834 c -0.263672,-1.4355469 -1.083985,-2.1240234 -2.519531,-2.1240234 -0.878907,0 -1.582032,0.2636719 -2.06543,0.805664 -0.600586,0.6445313 -0.922852,1.5820313 -0.922852,2.6367188 0,1.0839844 0.336914,2.0068359 0.952149,2.63671874 0.512695,0.52734375 1.157226,0.76171875 2.006836,0.76171875 1.596679,0 2.490234,-0.86425781 2.680664,-2.59277339 h -0.84961 c -0.07324,0.4541015 -0.161132,0.7617187 -0.307617,1.0107421 -0.263672,0.54199223 -0.820312,0.84960942 -1.523437,0.84960942 -1.289063,0 -2.124024,-1.04003902 -2.124024,-2.66601562 0,-1.6845703 0.791016,-2.7099609 2.050782,-2.7099609 0.541992,0 1.02539,0.1611328 1.30371,0.4101562 0.234375,0.2197266 0.366211,0.4980469 0.46875,0.9814453 z m 2.973633,-0.3222656 c -1.31836,0 -2.109375,0.9375 -2.109375,2.5195312 0,1.58203129 0.791015,2.51953129 2.124023,2.51953129 1.318359,0 2.124024,-0.9375 2.124024,-2.47558589 0,-1.6259766 -0.776368,-2.5634766 -2.138672,-2.5634766 z m 0.01465,0.6884766 c 0.849609,0 1.347656,0.6884765 1.347656,1.8603515 0,1.0986328 -0.527344,1.80175783 -1.347656,1.80175783 -0.834961,0 -1.347656,-0.68847653 -1.347656,-1.83105473 0,-1.1279296 0.512695,-1.8310546 1.347656,-1.8310546 z m 6.463623,0.7617187 c -0.01465,-0.9228516 -0.615235,-1.4501953 -1.699219,-1.4501953 -1.098633,0 -1.801758,0.5712891 -1.801758,1.4355469 0,0.7324218 0.366211,1.0839843 1.479492,1.3476562 l 0.703125,0.1757813 c 0.527344,0.1318359 0.732422,0.3222656 0.732422,0.6591797 0,0.43945308 -0.439453,0.73242183 -1.098632,0.73242183 -0.410157,0 -0.747071,-0.1171875 -0.9375,-0.30761719 -0.117188,-0.14648437 -0.161133,-0.27832034 -0.205079,-0.60058594 h -0.791015 c 0.0293,1.08398438 0.644531,1.59667969 1.875,1.59667969 1.171875,0 1.933594,-0.5859375 1.933594,-1.49414059 0,-0.6884766 -0.395508,-1.0839844 -1.333008,-1.303711 l -0.717774,-0.1611328 c -0.600586,-0.1464844 -0.864258,-0.3515625 -0.864258,-0.6738281 0,-0.4394531 0.38086,-0.7177734 0.996094,-0.7177734 0.600586,0 0.922852,0.2636718 0.9375,0.7617187 z m 2.83081,-1.3183594 h -0.761719 v -1.2890625 h -0.74707 v 1.2890625 h -0.629883 v 0.6152344 h 0.629883 v 3.54492188 c 0,0.48339844 0.322266,0.74707031 0.908203,0.74707031 0.175781,0 0.351563,-0.0146484 0.600586,-0.0585938 v -0.62988281 c -0.08789,0.0292969 -0.205078,0.0292969 -0.351562,0.0292969 -0.322266,0 -0.410157,-0.0878906 -0.410157,-0.41015625 V -4.0880293 h 0.761719 z m 0,0"
       style="fill:#000000;fill-opacity:1;fill-rule:nonzero;stroke:none"
       aria-label="LowerCost"
       transform="matrix(1.0666667,0,0,1.0666667,13.229867,103.52853)" />
  </g>
</svg>
