<?xml version="1.0" encoding="UTF-8" standalone="no"?>
<!-- Created with Inkscape (http://www.inkscape.org/) -->

<svg
   version="1.1"
   id="svg1"
   width="361.112"
   height="180.25067"
   viewBox="0 0 361.112 180.25067"
   xmlns="http://www.w3.org/2000/svg"
   xmlns:svg="http://www.w3.org/2000/svg">
  <defs
     id="defs1" />
  <g
     id="g1">
    <path
       id="path1"
       d="M 0,0 H 153.07172 M 0,12.75595 H 153.07172 M 0,25.51192 H 153.07172 M 0,38.2679 H 153.07172 M 0,51.02386 H 153.07172 M 0,63.77985 H 153.07172 M 0,76.53581 H 153.07172 M 0,89.29178 H 153.07172 M 0,102.04776 H 153.07172 M 0,0 V 102.0478 M 12.75595,0 V 102.0478 M 25.51192,0 V 102.0478 M 38.2679,0 V 102.0478 M 51.02386,0 V 102.0478 M 63.77985,0 V 102.0478 M 76.53581,0 V 102.0478 M 89.29178,0 V 102.0478 M 102.04776,0 V 102.0478 M 114.80373,0 V 102.0478 M 127.55971,0 V 102.0478 M 140.31567,0 V 102.0478 M 153.07162,0 v 102.0478"
       style="fill:none;stroke:#ececec;stroke-width:0.19925;stroke-linecap:butt;stroke-linejoin:miter;stroke-miterlimit:10;stroke-dasharray:none;stroke-opacity:1"
       transform="matrix(1.3333333,0,0,-1.3333333,57.577333,162.436)" />
    <path
       id="path2"
       d="M 0,0 H 146.09778"
       style="fill:none;stroke:#666666;stroke-width:0.99628;stroke-linecap:butt;stroke-linejoin:miter;stroke-miterlimit:10;stroke-dasharray:none;stroke-opacity:1"
       transform="matrix(1.3333333,0,0,-1.3333333,57.577333,162.436)" />
    <path
       id="path3"
       d="M 4.92007,0 C 4.31586,0.15076 1.65996,1.00505 0,1.93475 v -3.8695 C 1.65996,-1.00505 4.31586,-0.15076 4.92007,0 Z"
       style="fill:#666666;fill-opacity:1;fill-rule:nonzero;stroke:#666666;stroke-width:0.99628;stroke-linecap:butt;stroke-linejoin:miter;stroke-miterlimit:10;stroke-dasharray:none;stroke-opacity:1"
       transform="matrix(1.3333333,0,0,-1.3333333,252.37437,162.436)" />
    <path
       id="path4"
       d="M 3.7737266,-1.7463906 4.3713828,-2.96875e-4 H 5.2034141 L 3.1643516,-5.8127969 H 2.2034141 L 0.14091406,-2.96875e-4 H 0.92607031 L 1.5354453,-1.7463906 Z M 3.5745078,-2.3674844 H 1.7229453 L 2.6721641,-5.0159219 Z M 5.8655234,-4.1721719 V -2.96875e-4 H 6.5334922 V -2.1682656 c 0,-0.5976563 0.1523437,-0.984375 0.46875,-1.21875 0.2109375,-0.1523438 0.4101562,-0.1992188 0.8671875,-0.2109375 v -0.6679688 c -0.1054688,-0.023437 -0.1640625,-0.035156 -0.2460938,-0.035156 -0.4335937,0 -0.7617187,0.2578125 -1.1484375,0.8789062 v -0.75 z m 3.4189453,0 h -0.65625 v 4.171875025 h 0.65625 z m 0,-1.640625 H 8.6165 v 0.84375 h 0.6679687 z m 2.6015623,1.640625 h -0.691406 v -1.1484375 h -0.65625 v 1.1484375 h -0.5625 v 0.5390625 h 0.5625 v 3.15234377 c 0,0.421875 0.28125,0.66796875 0.796875,0.66796875 0.164062,0 0.328125,-0.0234375 0.550781,-0.0585938 v -0.5625 c -0.09375,0.0234375 -0.199219,0.0351563 -0.316406,0.0351563 -0.292969,0 -0.375,-0.0820313 -0.375,-0.375 V -3.6331094 h 0.691406 z m 0.75,-1.640625 v 5.812500025 h 0.65625 V -2.3088906 c 0,-0.84375 0.445313,-1.40625 1.136719,-1.40625 0.210937,0 0.421875,0.070312 0.585937,0.1875 0.1875,0.140625 0.269532,0.3398437 0.269532,0.6328125 v 2.894531225 h 0.65625 V -3.1526406 c 0,-0.703125 -0.492188,-1.1484375 -1.3125,-1.1484375 -0.585938,0 -0.949219,0.1875 -1.335938,0.703125 v -2.2148438 z m 4.432617,1.640625 v 4.171875025 h 0.667969 V -2.6252969 c 0,-0.5976562 0.433594,-1.0898437 0.972656,-1.0898437 0.503907,0 0.773438,0.3046875 0.773438,0.84375 V -2.96875e-4 H 20.15068 V -2.6252969 c 0,-0.5976562 0.445312,-1.0898437 0.984375,-1.0898437 0.492187,0 0.773437,0.3164062 0.773437,0.84375 v 2.871093725 h 0.667969 V -3.1292031 c 0,-0.75 -0.433594,-1.171875 -1.207031,-1.171875 -0.5625,0 -0.890625,0.1757812 -1.289063,0.6445312 -0.246094,-0.4453125 -0.574219,-0.6445312 -1.125,-0.6445312 -0.550781,0 -0.914062,0.2109375 -1.277344,0.7148437 v -0.5859375 z m 10.166016,2.3085938 c 0,-0.6445313 -0.04687,-1.0195313 -0.164062,-1.3359375 -0.28125,-0.6796875 -0.914063,-1.1015625 -1.699219,-1.1015625 -1.160156,0 -1.910156,0.9023437 -1.910156,2.2734375 0,1.37109372 0.726562,2.21484372 1.898437,2.21484372 0.960938,0 1.617188,-0.55078125 1.78125,-1.45312502 h -0.667969 c -0.175781,0.55078127 -0.550781,0.83203127 -1.089843,0.83203127 -0.421875,0 -0.785157,-0.1875 -1.007813,-0.5390625 C 24.222945,-1.2073281 24.164352,-1.4534219 24.152633,-1.8635781 Z M 24.17607,-2.4026406 c 0.04687,-0.7734375 0.527344,-1.2773438 1.195313,-1.2773438 0.644531,0 1.148437,0.5390625 1.148437,1.2304688 0,0.011719 0,0.023437 0,0.046875 z m 5.428711,-1.7695313 h -0.691406 v -1.1484375 h -0.65625 v 1.1484375 h -0.5625 v 0.5390625 h 0.5625 v 3.15234377 c 0,0.421875 0.28125,0.66796875 0.796875,0.66796875 0.164062,0 0.328125,-0.0234375 0.550781,-0.0585938 v -0.5625 c -0.09375,0.0234375 -0.199219,0.0351563 -0.316406,0.0351563 -0.292969,0 -0.375,-0.0820313 -0.375,-0.375 V -3.6331094 h 0.691406 z m 1.382813,0 h -0.65625 v 4.171875025 h 0.65625 z m 0,-1.640625 h -0.667969 v 0.84375 h 0.667969 z m 4.324218,3.0351563 c -0.02344,-0.3984375 -0.117187,-0.6679688 -0.28125,-0.890625 -0.28125,-0.3984375 -0.785156,-0.6328125 -1.359375,-0.6328125 -1.125,0 -1.863281,0.9023437 -1.863281,2.2851562 0,1.34765627 0.714844,2.20312502 1.851563,2.20312502 0.996093,0 1.628906,-0.59765625 1.699218,-1.61718752 h -0.667968 c -0.105469,0.66796877 -0.457032,0.99609377 -1.019532,0.99609377 -0.726562,0 -1.171875,-0.59765627 -1.171875,-1.58203127 0,-1.0429687 0.433594,-1.6640625 1.160157,-1.6640625 0.550781,0 0.902343,0.328125 0.984375,0.9023438 z m 3.990235,-3.0351563 h -0.75 v 5.812500025 h 0.75 z m 1.230469,1.640625 v 4.171875025 h 0.667968 V -2.3088906 c 0,-0.84375 0.445313,-1.40625 1.125,-1.40625 0.527344,0 0.867188,0.3164062 0.867188,0.8203125 v 2.894531225 h 0.65625 V -3.1526406 c 0,-0.6914063 -0.515625,-1.1484375 -1.324219,-1.1484375 -0.621094,0 -1.019531,0.2460937 -1.382812,0.8320312 v -0.703125 z m 5.897461,0 H 45.73857 v -1.1484375 h -0.65625 v 1.1484375 h -0.5625 v 0.5390625 h 0.5625 v 3.15234377 c 0,0.421875 0.28125,0.66796875 0.796875,0.66796875 0.164063,0 0.328125,-0.0234375 0.550782,-0.0585938 v -0.5625 c -0.09375,0.0234375 -0.199219,0.0351563 -0.316407,0.0351563 -0.292968,0 -0.375,-0.0820313 -0.375,-0.375 V -3.6331094 h 0.691407 z m 4.277343,2.3085938 c 0,-0.6445313 -0.04687,-1.0195313 -0.164062,-1.3359375 -0.28125,-0.6796875 -0.914063,-1.1015625 -1.699219,-1.1015625 -1.160156,0 -1.910156,0.9023437 -1.910156,2.2734375 0,1.37109372 0.726562,2.21484372 1.898437,2.21484372 0.960938,0 1.617188,-0.55078125 1.78125,-1.45312502 h -0.667968 c -0.175782,0.55078127 -0.550782,0.83203127 -1.089844,0.83203127 -0.421875,0 -0.785156,-0.1875 -1.007813,-0.5390625 C 47.695602,-1.2073281 47.637008,-1.4534219 47.625289,-1.8635781 Z m -3.058593,-0.5390625 c 0.04687,-0.7734375 0.527343,-1.2773438 1.195312,-1.2773438 0.644531,0 1.148438,0.5390625 1.148438,1.2304688 0,0.011719 0,0.023437 0,0.046875 z m 3.960937,-1.7695313 v 4.171875025 h 0.667969 V -2.3088906 c 0,-0.84375 0.445312,-1.40625 1.125,-1.40625 0.527344,0 0.867187,0.3164062 0.867187,0.8203125 v 2.894531225 h 0.65625 V -3.1526406 c 0,-0.6914063 -0.515625,-1.1484375 -1.324218,-1.1484375 -0.621094,0 -1.019532,0.2460937 -1.382813,0.8320312 v -0.703125 z m 7.362305,1.1601563 c -0.01172,-0.8203125 -0.550782,-1.2890625 -1.511719,-1.2890625 -0.972656,0 -1.605469,0.5039062 -1.605469,1.2773437 0,0.65625 0.339844,0.9726563 1.324219,1.2070313 l 0.621094,0.1523437 c 0.457031,0.1054688 0.644531,0.28125 0.644531,0.5859375 0,0.38671877 -0.386719,0.64453127 -0.972656,0.64453127 -0.363282,0 -0.65625,-0.10546875 -0.832032,-0.28125 -0.105468,-0.1171875 -0.152343,-0.234375 -0.1875,-0.52734377 h -0.703125 c 0.03516,0.96093752 0.574219,1.42968752 1.664063,1.42968752 1.054687,0 1.722656,-0.52734375 1.722656,-1.32421872 0,-0.6210938 -0.351562,-0.9726563 -1.183594,-1.171875 l -0.632812,-0.140625 c -0.539063,-0.1289063 -0.773438,-0.3046875 -0.773438,-0.5976563 0,-0.3867187 0.339844,-0.6328125 0.890625,-0.6328125 0.527344,0 0.820313,0.234375 0.832032,0.6679688 z m 1.6875,-1.1601563 h -0.65625 v 4.171875025 h 0.65625 z m 0,-1.640625 H 59.9915 v 0.84375 h 0.667969 z m 2.601562,1.640625 h -0.691406 v -1.1484375 h -0.65625 v 1.1484375 h -0.5625 v 0.5390625 h 0.5625 v 3.15234377 c 0,0.421875 0.28125,0.66796875 0.796875,0.66796875 0.164062,0 0.328125,-0.0234375 0.550781,-0.0585938 v -0.5625 c -0.09375,0.0234375 -0.199219,0.0351563 -0.316406,0.0351563 -0.292969,0 -0.375,-0.0820313 -0.375,-0.375 V -3.6331094 h 0.691406 z m 3.28418,0 -1.160156,3.24609377 -1.066407,-3.24609377 h -0.703125 l 1.40625,4.18359377 -0.257812,0.66796875 c -0.105469,0.29296875 -0.257813,0.39843748 -0.527344,0.39843748 -0.105469,0 -0.210937,-0.011719 -0.351562,-0.046875 v 0.5976563 c 0.128906,0.082031 0.269531,0.1054687 0.445312,0.1054687 0.210938,0 0.445313,-0.070312 0.621094,-0.1992187 0.210937,-0.1523438 0.328125,-0.328125 0.457031,-0.65625003 l 1.851563,-5.05078127 z m 0,0"
       style="fill:#333333;fill-opacity:1;fill-rule:nonzero;stroke:none"
       aria-label="ArithmeticIntensity"
       transform="matrix(1.3333333,0,0,1.3333333,266.76133,158.46133)" />
    <path
       id="path5"
       d="m 1.8752891,-5.8119297 c -0.796875,1.0429688 -1.28906254,2.4960938 -1.28906254,3.75 0,1.25390626 0.49218754,2.70703126 1.28906254,3.75 h 0.4453125 c -0.703125,-1.13671874 -1.0898438,-2.47265624 -1.0898438,-3.75 0,-1.265625 0.3867188,-2.6132812 1.0898438,-3.75 z m 2.2324218,3.1640625 h 2.7773438 v -0.65625 H 4.1077109 v -1.8515625 h 3.1640625 v -0.65625 H 3.3694297 V 5.703125e-4 h 0.7382812 z m 4.7988282,-3.1640625 h -0.75 V 5.703125e-4 H 11.765914 V -0.65567969 H 8.9065391 Z m 6.1552729,-0.09375 c -1.675781,0 -2.800781,1.2304688 -2.800781,3.046875 0,1.8164063 1.125,3.04687501 2.800781,3.04687501 0.703125,0 1.335938,-0.22265625 1.804688,-0.62109375 0.632812,-0.52734375 1.007812,-1.42968746 1.007812,-2.37890626 0,-1.875 -1.113281,-3.09375 -2.8125,-3.09375 z m 0,0.65625 c 1.253907,0 2.0625,0.9492188 2.0625,2.4257813 0,1.3945312 -0.832031,2.35546871 -2.0625,2.35546871 -1.230468,0 -2.0625,-0.96093751 -2.0625,-2.39062501 0,-1.4414062 0.832032,-2.390625 2.0625,-2.390625 z m 4.558594,2.7890625 h 1.828125 c 0.457031,0 0.808594,-0.140625 1.125,-0.4101562 0.351563,-0.328125 0.503906,-0.703125 0.503906,-1.2304688 0,-1.0898437 -0.65625,-1.7109375 -1.792968,-1.7109375 H 18.882125 V 5.703125e-4 h 0.738281 z m 0,-0.65625 v -2.0390625 h 1.546875 c 0.714844,0 1.136719,0.3867188 1.136719,1.0195313 0,0.6328125 -0.421875,1.0195312 -1.136719,1.0195312 z m 5.680664,-2.6953125 -1.886718,5.97656251 h 0.433593 l 1.886719,-5.97656251 z m 0.820313,0 V 5.703125e-4 h 0.597656 V -0.53849219 c 0.316406,0.4921875 0.738281,0.7265625 1.324219,0.7265625 1.089844,0 1.816406,-0.90234375 1.816406,-2.29687501 0,-1.3476562 -0.691406,-2.1914062 -1.792969,-2.1914062 -0.574218,0 -0.972656,0.2226562 -1.289062,0.6914062 v -2.203125 z m 1.816406,2.1445313 c 0.75,0 1.21875,0.6445312 1.21875,1.640625 0,0.9492187 -0.492187,1.59374996 -1.21875,1.59374996 -0.691406,0 -1.160156,-0.64453126 -1.160156,-1.61718746 0,-0.984375 0.46875,-1.6171875 1.160156,-1.6171875 z m 5.115234,-0.5039063 -1.160156,3.24609376 -1.066406,-3.24609376 h -0.703125 l 1.40625,4.18359376 -0.257813,0.66796875 C 31.166305,0.97322656 31.013961,1.0786953 30.74443,1.0786953 c -0.105469,0 -0.210938,-0.011719 -0.351563,-0.046875 v 0.5976563 c 0.128906,0.082031 0.269531,0.1054687 0.445313,0.1054687 0.210937,0 0.445312,-0.070312 0.621093,-0.1992187 0.210938,-0.1523438 0.328125,-0.328125 0.457032,-0.65625004 l 1.851562,-5.05078126 z m 2.917969,0 h -0.691406 v -1.1484375 h -0.65625 v 1.1484375 h -0.5625 v 0.5390625 h 0.5625 v 3.15234376 c 0,0.421875 0.28125,0.66796875 0.796875,0.66796875 0.164062,0 0.328125,-0.0234375 0.550781,-0.0585938 v -0.5625 c -0.09375,0.0234375 -0.199219,0.0351563 -0.316406,0.0351563 -0.292969,0 -0.375,-0.0820313 -0.375,-0.375 V -3.6322422 h 0.691406 z m 4.280274,2.3085938 c 0,-0.6445313 -0.04687,-1.0195313 -0.164063,-1.3359375 -0.28125,-0.6796875 -0.914062,-1.1015625 -1.699219,-1.1015625 -1.160156,0 -1.910156,0.9023437 -1.910156,2.2734375 0,1.37109371 0.726563,2.21484371 1.898438,2.21484371 0.960937,0 1.617187,-0.55078125 1.78125,-1.45312501 h -0.667969 c -0.175781,0.55078126 -0.550781,0.83203126 -1.089844,0.83203126 -0.421875,0 -0.785156,-0.1875 -1.007812,-0.5390625 C 37.239547,-1.2064609 37.180953,-1.4525547 37.169234,-1.8627109 Z m -3.058594,-0.5390625 c 0.04687,-0.7734375 0.527344,-1.2773438 1.195312,-1.2773438 0.644532,0 1.148438,0.5390625 1.148438,1.2304688 0,0.011719 0,0.023437 0,0.046875 z m 4.136719,4.0898437 c 0.796875,-1.04296874 1.300781,-2.49609374 1.300781,-3.7382812 0,-1.265625 -0.503906,-2.71875 -1.300781,-3.7617188 h -0.433594 c 0.703125,1.1484375 1.089844,2.484375 1.089844,3.7617188 0,1.26562496 -0.386719,2.61328121 -1.089844,3.7382812 z m 0,0"
       style="fill:#333333;fill-opacity:1;fill-rule:nonzero;stroke:none"
       aria-label="(FLOP/byte)"
       transform="matrix(1.3333333,0,0,1.3333333,266.76133,171.74533)" />
    <path
       id="path6"
       d="M 0,0 V 100.17618"
       style="fill:none;stroke:#666666;stroke-width:0.99628;stroke-linecap:butt;stroke-linejoin:miter;stroke-miterlimit:10;stroke-dasharray:none;stroke-opacity:1"
       transform="matrix(1.3333333,0,0,-1.3333333,57.577333,162.436)" />
    <path
       id="path7"
       d="M 4.92007,0 C 4.31586,0.15076 1.65996,1.00505 0,1.93475 v -3.8695 C 1.65996,-1.00505 4.31586,-0.15076 4.92007,0 Z"
       style="fill:#666666;fill-opacity:1;fill-rule:nonzero;stroke:#666666;stroke-width:0.99628;stroke-linecap:butt;stroke-linejoin:miter;stroke-miterlimit:10;stroke-dasharray:none;stroke-opacity:1"
       transform="matrix(0,-1.3333333,-1.3333333,0,57.577333,28.86776)" />
    <path
       id="path8"
       d="m 1.4661094,-2.4612969 h 1.828125 c 0.4570312,0 0.8085937,-0.140625 1.125,-0.4101562 0.3515625,-0.328125 0.5039062,-0.703125 0.5039062,-1.2304688 0,-1.0898437 -0.65625,-1.7109375 -1.7929687,-1.7109375 H 0.72782813 V -3.59375e-4 H 1.4661094 Z m 0,-0.65625 v -2.0390625 h 1.546875 c 0.7148437,0 1.1367187,0.3867188 1.1367187,1.0195313 0,0.6328125 -0.421875,1.0195312 -1.1367187,1.0195312 z m 7.5410156,1.2539063 c 0,-0.6445313 -0.046875,-1.0195313 -0.1640625,-1.3359375 C 8.5618125,-3.8792656 7.929,-4.3011406 7.1438438,-4.3011406 c -1.1601563,0 -1.9101563,0.9023437 -1.9101563,2.2734375 0,1.37109372 0.7265625,2.21484372 1.8984375,2.21484372 0.9609375,0 1.6171875,-0.55078125 1.78125,-1.45312502 H 8.2454063 c -0.1757813,0.55078127 -0.5507813,0.83203127 -1.0898438,0.83203127 -0.421875,0 -0.7851562,-0.1875 -1.0078125,-0.5390625 C 5.9954063,-1.2073906 5.9368125,-1.4534844 5.9250938,-1.8636406 Z M 5.9485313,-2.4027031 c 0.046875,-0.7734375 0.5273437,-1.2773438 1.1953125,-1.2773438 0.6445312,0 1.1484375,0.5390625 1.1484375,1.2304688 0,0.011719 0,0.023437 0,0.046875 z M 9.9006797,-4.1722344 V -3.59375e-4 H 10.568648 V -2.1683281 c 0,-0.5976563 0.152344,-0.984375 0.46875,-1.21875 0.210938,-0.1523438 0.410157,-0.1992188 0.867188,-0.2109375 v -0.6679688 c -0.105469,-0.023437 -0.164063,-0.035156 -0.246094,-0.035156 -0.433594,0 -0.761719,0.2578125 -1.148437,0.8789062 v -0.75 z m 4.1542973,0 H 13.36357 v -0.65625 c 0,-0.28125 0.164063,-0.421875 0.46875,-0.421875 0.04687,0 0.08203,0 0.222657,0.011719 v -0.5507813 c -0.140625,-0.035156 -0.234375,-0.046875 -0.375,-0.046875 -0.609375,0 -0.972657,0.3515625 -0.972657,0.9492188 v 0.7148437 h -0.5625 v 0.5390625 h 0.5625 v 3.632812525 h 0.65625 V -3.6331719 h 0.691407 z m 2.091796,-0.1289062 c -1.171875,0 -1.886718,0.84375 -1.886718,2.25 0,1.39453122 0.703125,2.23828122 1.898437,2.23828122 1.171875,0 1.886719,-0.84375 1.886719,-2.21484372 0,-1.4414063 -0.691406,-2.2734375 -1.898438,-2.2734375 z m 0.01172,0.6210937 c 0.75,0 1.195313,0.609375 1.195313,1.6523438 0,0.9726562 -0.46875,1.59374997 -1.195313,1.59374997 -0.75,0 -1.195312,-0.60937497 -1.195312,-1.61718747 0,-1.0078125 0.445312,-1.6289063 1.195312,-1.6289063 z m 2.803711,-0.4921875 v 4.171875025 h 0.667969 V -2.1683281 c 0,-0.5976563 0.152344,-0.984375 0.46875,-1.21875 0.210937,-0.1523438 0.410156,-0.1992188 0.867187,-0.2109375 v -0.6679688 c -0.105468,-0.023437 -0.164062,-0.035156 -0.246093,-0.035156 -0.433594,0 -0.761719,0.2578125 -1.148438,0.8789062 v -0.75 z m 2.856445,0 v 4.171875025 h 0.667969 V -2.6253594 c 0,-0.5976562 0.433594,-1.0898437 0.972656,-1.0898437 0.503907,0 0.773438,0.3046875 0.773438,0.84375 V -3.59375e-4 H 24.90068 V -2.6253594 c 0,-0.5976562 0.445312,-1.0898437 0.984375,-1.0898437 0.492187,0 0.773437,0.3164062 0.773437,0.84375 v 2.871093725 h 0.667969 V -3.1292656 c 0,-0.75 -0.433594,-1.171875 -1.207031,-1.171875 -0.5625,0 -0.890625,0.1757812 -1.289063,0.6445312 -0.246094,-0.4453125 -0.574219,-0.6445312 -1.125,-0.6445312 -0.550781,0 -0.914062,0.2109375 -1.277344,0.7148437 v -0.5859375 z m 10.341797,3.78515627 c -0.07031,0.0117188 -0.105468,0.0117188 -0.140625,0.0117188 -0.234375,0 -0.363281,-0.1171875 -0.363281,-0.328125 V -3.1527031 c 0,-0.75 -0.539062,-1.1484375 -1.570312,-1.1484375 -0.609375,0 -1.113282,0.1757812 -1.382813,0.4921875 -0.199219,0.2109375 -0.269531,0.4570312 -0.292969,0.8671875 h 0.667969 c 0.05859,-0.5039063 0.363281,-0.7382813 0.984375,-0.7382813 0.597656,0 0.9375,0.2226563 0.9375,0.6210938 v 0.1757812 c 0,0.28125 -0.175781,0.3984375 -0.703125,0.4570313 -0.9375,0.1171875 -1.078125,0.1523437 -1.335937,0.2578125 -0.480469,0.1992187 -0.726563,0.5742187 -0.726563,1.1132812 0,0.76171877 0.515625,1.24218752 1.371094,1.24218752 0.515625,0 0.9375,-0.187499995 1.417969,-0.62109375 0.04687,0.421875 0.246093,0.62109375 0.679687,0.62109375 0.140625,0 0.234375,-0.0234375 0.457031,-0.0703125 z M 31.000289,-1.3128594 c 0,0.2226563 -0.07031,0.35156252 -0.269531,0.53906252 -0.269531,0.24609375 -0.597656,0.375 -0.984375,0.375 -0.515625,0 -0.820313,-0.24609375 -0.820313,-0.66796872 0,-0.4453125 0.292969,-0.6679688 0.996094,-0.7617188 0.703125,-0.1054687 0.84375,-0.1289062 1.078125,-0.234375 z m 1.889649,-2.859375 v 4.171875025 h 0.667968 V -2.3089531 c 0,-0.84375 0.445313,-1.40625 1.125,-1.40625 0.527344,0 0.867188,0.3164062 0.867188,0.8203125 v 2.894531225 h 0.65625 V -3.1527031 c 0,-0.6914063 -0.515625,-1.1484375 -1.324219,-1.1484375 -0.621094,0 -1.019531,0.2460937 -1.382812,0.8320312 v -0.703125 z m 7.617187,1.3945313 c -0.02344,-0.3984375 -0.117187,-0.6679688 -0.28125,-0.890625 -0.28125,-0.3984375 -0.785156,-0.6328125 -1.359375,-0.6328125 -1.125,0 -1.863281,0.9023437 -1.863281,2.2851562 0,1.34765627 0.714844,2.20312502 1.851562,2.20312502 0.996094,0 1.628907,-0.59765625 1.699219,-1.61718752 h -0.667969 c -0.105468,0.66796877 -0.457031,0.99609377 -1.019531,0.99609377 -0.726562,0 -1.171875,-0.59765627 -1.171875,-1.58203127 0,-1.0429687 0.433594,-1.6640625 1.160156,-1.6640625 0.550782,0 0.902344,0.328125 0.984375,0.9023438 z m 4.327148,0.9140625 c 0,-0.6445313 -0.04687,-1.0195313 -0.164062,-1.3359375 -0.28125,-0.6796875 -0.914063,-1.1015625 -1.699219,-1.1015625 -1.160156,0 -1.910156,0.9023437 -1.910156,2.2734375 0,1.37109372 0.726562,2.21484372 1.898437,2.21484372 0.960938,0 1.617188,-0.55078125 1.78125,-1.45312502 h -0.667968 c -0.175782,0.55078127 -0.550782,0.83203127 -1.089844,0.83203127 -0.421875,0 -0.785156,-0.1875 -1.007813,-0.5390625 C 41.822555,-1.2073906 41.763961,-1.4534844 41.752242,-1.8636406 Z M 41.77568,-2.4027031 c 0.04687,-0.7734375 0.527343,-1.2773438 1.195312,-1.2773438 0.644531,0 1.148438,0.5390625 1.148438,1.2304688 0,0.011719 0,0.023437 0,0.046875 z m 7.488281,-3.4101563 c -0.796875,1.0429688 -1.289063,2.4960938 -1.289063,3.75 0,1.25390627 0.492188,2.70703127 1.289063,3.75 h 0.445312 c -0.703125,-1.13671873 -1.089843,-2.47265623 -1.089843,-3.75 0,-1.265625 0.386718,-2.6132812 1.089843,-3.75 z m 2.232422,3.1640625 h 2.777344 v -0.65625 h -2.777344 v -1.8515625 h 3.164062 v -0.65625 h -3.902343 v 5.812500025 h 0.738281 z m 4.801758,-3.1640625 h -0.75 v 5.812500025 h 3.609375 V -0.65660938 h -2.859375 z m 6.152343,-0.09375 c -1.675781,0 -2.800781,1.2304688 -2.800781,3.046875 0,1.8164063 1.125,3.04687502 2.800781,3.04687502 0.703125,0 1.335938,-0.22265625 1.804688,-0.62109375 0.632812,-0.52734375 1.007812,-1.42968747 1.007812,-2.37890627 0,-1.875 -1.113281,-3.09375 -2.8125,-3.09375 z m 0,0.65625 c 1.253907,0 2.0625,0.9492188 2.0625,2.4257813 0,1.3945312 -0.832031,2.35546872 -2.0625,2.35546872 -1.230468,0 -2.0625,-0.96093752 -2.0625,-2.39062502 0,-1.4414062 0.832032,-2.390625 2.0625,-2.390625 z m 4.561524,2.7890625 h 1.828125 c 0.457031,0 0.808594,-0.140625 1.125,-0.4101562 0.351562,-0.328125 0.503906,-0.703125 0.503906,-1.2304688 0,-1.0898437 -0.65625,-1.7109375 -1.792969,-1.7109375 h -2.402343 v 5.812500025 h 0.738281 z m 0,-0.65625 v -2.0390625 h 1.546875 c 0.714844,0 1.136719,0.3867188 1.136719,1.0195313 0,0.6328125 -0.421875,1.0195312 -1.136719,1.0195312 z m 5.677734,-2.6953125 -1.886719,5.97656252 h 0.433594 l 1.886719,-5.97656252 z m 3.881836,2.8007813 c -0.01172,-0.8203125 -0.550781,-1.2890625 -1.511719,-1.2890625 -0.972656,0 -1.605468,0.5039062 -1.605468,1.2773437 0,0.65625 0.339843,0.9726563 1.324218,1.2070313 l 0.621094,0.1523437 c 0.457031,0.1054688 0.644531,0.28125 0.644531,0.5859375 0,0.38671877 -0.386718,0.64453127 -0.972656,0.64453127 -0.363281,0 -0.65625,-0.10546875 -0.832031,-0.28125 -0.105469,-0.1171875 -0.152344,-0.234375 -0.1875,-0.52734377 h -0.703125 c 0.03516,0.96093752 0.574219,1.42968752 1.664062,1.42968752 1.054688,0 1.722657,-0.52734375 1.722657,-1.32421872 0,-0.6210938 -0.351563,-0.9726563 -1.183594,-1.171875 l -0.632813,-0.140625 c -0.539062,-0.1289063 -0.773437,-0.3046875 -0.773437,-0.5976563 0,-0.3867187 0.339844,-0.6328125 0.890625,-0.6328125 0.527344,0 0.820312,0.234375 0.832031,0.6679688 z m 1.230469,4.6992187 c 0.796875,-1.04296873 1.300781,-2.49609373 1.300781,-3.7382812 0,-1.265625 -0.503906,-2.71875 -1.300781,-3.7617188 h -0.433594 c 0.703125,1.1484375 1.089844,2.484375 1.089844,3.7617188 0,1.26562497 -0.386719,2.61328122 -1.089844,3.7382812 z m 0,0"
       style="fill:#000000;fill-opacity:1;fill-rule:nonzero;stroke:none"
       aria-label="Performance(FLOP/s)"
       transform="matrix(1.3333333,0,0,1.3333333,4.428,12.242667)" />
    <path
       id="path9"
       d="M 0,0 76.53586,76.53586"
       style="fill:none;stroke:#006395;stroke-width:1.99255;stroke-linecap:butt;stroke-linejoin:miter;stroke-miterlimit:10;stroke-dasharray:none;stroke-opacity:1"
       transform="matrix(1.3333333,0,0,-1.3333333,57.577333,162.436)" />
    <path
       id="path10"
       d="m 76.53586,76.53586 h 71.43353"
       style="fill:none;stroke:#e67817;stroke-width:1.99255;stroke-linecap:butt;stroke-linejoin:miter;stroke-miterlimit:10;stroke-dasharray:none;stroke-opacity:1"
       transform="matrix(1.3333333,0,0,-1.3333333,57.577333,162.436)" />
    <path
       id="path11"
       d="M 1.7231695,-4.5245214 2.7672668,-9.9437845e-5 H 3.960521 L 4.9880454,-4.5245214 V -9.9437845e-5 H 6.1812995 V -5.8172134 H 4.3748453 L 3.3638939,-1.1767806 2.3032236,-5.8172134 H 0.52991532 V -9.9437845e-5 H 1.7231695 Z m 9.0923475,2.7200394 c 0,-0.099438 0,-0.1325838 0,-0.1823027 0,-0.4308973 -0.04972,-0.8286487 -0.149156,-1.1435352 -0.298314,-0.7623568 -0.9943788,-1.2429731 -1.8561735,-1.2429731 -1.2264001,0 -1.9887569,0.8949406 -1.9887569,2.3367894 0,1.37555682 0.7457839,2.2207785 1.955611,2.2207785 0.9612325,0 1.7567354,-0.54690815 2.0053294,-1.3921298 H 9.6719822 c -0.1325838,0.34803243 -0.4474703,0.54690812 -0.8452217,0.54690812 -0.3314595,0 -0.5800541,-0.14915677 -0.7292109,-0.38117842 C 7.9815388,-1.2078549 7.9483929,-1.3901576 7.9318199,-1.804482 Z M 7.9483929,-2.5336929 c 0.066292,-0.6629189 0.3480324,-0.9943784 0.8452216,-0.9943784 0.2651676,0 0.5303352,0.1491568 0.696065,0.3646054 0.099438,0.1657298 0.1491567,0.3314595 0.1657297,0.629773 z M 11.550943,-4.3090727 V -9.9437845e-5 h 1.110389 V -2.5854834 c 0,-0.5137622 0.281741,-0.8286487 0.762357,-0.8286487 0.381179,0 0.6132,0.1988757 0.6132,0.5469081 V -9.9437845e-5 h 1.110389 V -2.5854834 c 0,-0.5137622 0.298314,-0.8286487 0.762357,-0.8286487 0.381179,0 0.6132,0.1988757 0.6132,0.5469081 V -9.9437845e-5 h 1.11039 V -3.0495267 c 0,-0.8286487 -0.49719,-1.3258379 -1.375557,-1.3258379 -0.530335,0 -0.928087,0.1988757 -1.242973,0.629773 -0.215449,-0.3977514 -0.646346,-0.629773 -1.176681,-0.629773 -0.49719,0 -0.812076,0.1657297 -1.193255,0.5966271 v -0.5303352 z m 9.007412,-0.066292 c -1.325838,0 -2.121341,0.8783676 -2.121341,2.2704974 0,1.42527582 0.795503,2.28707048 2.121341,2.28707048 1.309265,0 2.137913,-0.86179466 2.137913,-2.23735148 0,-1.4749947 -0.795503,-2.3202164 -2.137913,-2.3202164 z m 0,0.9115136 c 0.6132,0 1.010951,0.5303351 1.010951,1.3921298 0,0.7955028 -0.414324,1.35898388 -1.010951,1.35898388 -0.596628,0 -1.010952,-0.56348108 -1.010952,-1.39212988 0,-0.8120757 0.414324,-1.3589838 1.010952,-1.3589838 z m 2.96449,-0.8431501 v 4.30897328 h 1.126963 V -2.2850982 c 0,-0.646346 0.314886,-0.9778055 0.977805,-0.9778055 0.116011,0 0.198876,0 0.348032,0.033146 v -1.1435352 c -0.06629,0 -0.09944,0 -0.132583,0 -0.513763,0 -0.961233,0.3314595 -1.193254,0.9115136 V -4.307001 Z m 5.831616,-0.00207 -0.894941,3.1322921 -0.961233,-3.1322921 h -1.2264 l 1.607579,4.49127598 v 0.033146 c 0,0.39775137 -0.298314,0.71263788 -0.696065,0.71263788 -0.08286,0 -0.149157,-0.016573 -0.298314,-0.0497189 V 1.7069169 c 0.182303,0.033146 0.265168,0.033146 0.397752,0.033146 0.28174,0 0.629773,-0.049719 0.812076,-0.1325837 0.314886,-0.1325838 0.44747,-0.3148866 0.629773,-0.82864875 l 1.773308,-5.08790305 z m 4.159816,4.308973262155 h 2.601957 c 0.679492,0 1.110389,-0.132583792155 1.474995,-0.414324352155 0.348032,-0.29831353 0.563481,-0.79550271 0.563481,-1.25954601 0,-0.5800541 -0.314887,-1.0275244 -0.961233,-1.4087028 0.580054,-0.3646055 0.795503,-0.6960649 0.795503,-1.1932542 0,-0.3977513 -0.198876,-0.8286487 -0.513762,-1.1103892 -0.364606,-0.2983136 -0.762357,-0.4308974 -1.375557,-0.4308974 H 33.514277 Z M 34.707531,-4.8228349 h 1.292692 c 0.546908,0 0.845222,0.2485946 0.845222,0.6794919 0,0.4143244 -0.298314,0.646346 -0.845222,0.646346 h -1.292692 z m 0,2.3202164 h 1.408703 c 0.596627,0 0.894941,0.2651676 0.894941,0.7623568 0,0.4806162 -0.298314,0.74578381 -0.894941,0.74578381 h -1.408703 z m 6.301874,-1.8727461 c -1.325838,0 -2.121341,0.8783676 -2.121341,2.2704974 0,1.42527582 0.795503,2.28707048 2.121341,2.28707048 1.309265,0 2.137913,-0.86179466 2.137913,-2.23735148 0,-1.4749947 -0.795502,-2.3202164 -2.137913,-2.3202164 z m 0,0.9115136 c 0.6132,0 1.010951,0.5303351 1.010951,1.3921298 0,0.7955028 -0.414324,1.35898388 -1.010951,1.35898388 -0.596627,0 -1.010952,-0.56348108 -1.010952,-1.39212988 0,-0.8120757 0.414325,-1.3589838 1.010952,-1.3589838 z M 47.787751,-9.9437845e-5 V -4.3090727 h -1.110389 v 2.7013948 c 0,0.5137622 -0.364606,0.84522165 -0.894941,0.84522165 -0.480616,0 -0.729211,-0.26516755 -0.729211,-0.77892975 v -2.7676867 h -1.110389 v 2.9997083 c 0,0.94465953 0.513762,1.49156768 1.441849,1.49156768 0.580054,0 0.961232,-0.21544867 1.292692,-0.69606492 V -9.9437845e-5 Z M 48.844278,-4.3090727 V -9.9437845e-5 H 49.97124 V -2.5854834 c 0,-0.5137622 0.348033,-0.8286487 0.894941,-0.8286487 0.480616,0 0.712638,0.2485946 0.712638,0.7623568 V -9.9437845e-5 h 1.110389 V -2.8837969 c 0,-0.9446596 -0.513762,-1.4915677 -1.441849,-1.4915677 -0.563481,0 -0.961232,0.2154487 -1.276119,0.6960649 v -0.629773 z m 7.586279,4.308973262155 h 1.126962 V -5.8172134 h -1.126962 v 2.0716218 c -0.265168,-0.4308973 -0.629773,-0.629773 -1.176681,-0.629773 -1.027525,0 -1.806454,0.9943784 -1.806454,2.2870704 0,0.5800541 0.182302,1.17668119 0.464043,1.59100554 0.281741,0.41432435 0.812076,0.67949194 1.342411,0.67949194 0.546908,0 0.911513,-0.19887569 1.176681,-0.61320004 z M 55.50247,-3.4472781 c 0.563482,0 0.928087,0.5469082 0.928087,1.3755569 0,0.7789298 -0.364605,1.32583793 -0.928087,1.32583793 -0.546908,0 -0.944659,-0.54690813 -0.944659,-1.34241093 0,-0.7955027 0.397751,-1.3589839 0.944659,-1.3589839 z m 0,0"
       style="fill:#006395;fill-opacity:1;fill-rule:nonzero;stroke:none"
       aria-label="MemoryBound"
       transform="matrix(0.9428,-0.9428,0.9428,0.9428,74.465333,132.04267)" />
    <path
       id="path12"
       d="M 5.4369063,-3.8438672 C 5.3900313,-4.3477734 5.2962813,-4.6641797 5.0384688,-4.9923047 4.5931563,-5.5782422 3.8783125,-5.9063672 3.011125,-5.9063672 c -1.640625,0 -2.66015625,1.171875 -2.66015625,3.0585938 0,1.86328121 1.00781255,3.03515621 2.62500005,3.03515621 1.4414062,0 2.4140625,-0.84375 2.484375,-2.16796871 H 4.3001875 c -0.082031,0.7382812 -0.5507812,1.16015621 -1.2890625,1.16015621 -0.9257812,0 -1.4648437,-0.75000001 -1.4648437,-2.01562501 0,-1.2890625 0.5625,-2.0507812 1.5,-2.0507812 0.421875,0 0.7617187,0.140625 0.984375,0.421875 0.1289062,0.1640625 0.1875,0.3164062 0.2695312,0.6210937 z m 2.71875,-0.5273437 c -1.3242188,0 -2.1210938,0.8671875 -2.1210938,2.2734375 0,1.41796871 0.796875,2.28515621 2.1210938,2.28515621 1.3125,0 2.1328127,-0.8671875 2.1328127,-2.25000001 0,-1.4648437 -0.7851565,-2.3085937 -2.1328127,-2.3085937 z m 0,0.9023437 c 0.6210937,0 1.0195312,0.5390625 1.0195312,1.3945313 0,0.796875 -0.421875,1.35937496 -1.0195312,1.35937496 -0.5976563,0 -1.0078125,-0.56249996 -1.0078125,-1.38281246 0,-0.8203125 0.4101562,-1.3710938 1.0078125,-1.3710938 z m 2.9501957,-0.8320312 v 4.3007812125 h 1.113281 V -2.5782422 c 0,-0.5273437 0.28125,-0.84375 0.761719,-0.84375 0.375,0 0.609375,0.2109375 0.609375,0.5507813 v 2.8710937125 h 1.113281 V -2.5782422 c 0,-0.5273437 0.292969,-0.84375 0.761719,-0.84375 0.375,0 0.609375,0.2109375 0.609375,0.5507813 v 2.8710937125 h 1.113281 V -3.0469922 c 0,-0.8320312 -0.503906,-1.3242187 -1.371094,-1.3242187 -0.539062,0 -0.925781,0.1875 -1.253906,0.6328125 -0.210938,-0.4101563 -0.632813,-0.6328125 -1.171875,-0.6328125 -0.492188,0 -0.808594,0.1640625 -1.183594,0.5976562 v -0.5273437 z m 8.185546,0 h -1.125 v 6.0351562 h 1.125 v -2.24999999 c 0.269532,0.48046875 0.644532,0.703125 1.195313,0.703125 1.03125,0 1.792969,-0.97265625 1.792969,-2.27343751 0,-0.609375 -0.175782,-1.21875 -0.457032,-1.6171875 -0.292968,-0.3984375 -0.820312,-0.6679687 -1.335937,-0.6679687 -0.550781,0 -0.925781,0.2226562 -1.195313,0.703125 z m 0.9375,0.8554687 c 0.5625,0 0.9375,0.5507813 0.9375,1.3710938 0,0.7851562 -0.386718,1.33593746 -0.9375,1.33593746 -0.5625,0 -0.9375,-0.53906246 -0.9375,-1.34765626 0,-0.8085937 0.375,-1.359375 0.9375,-1.359375 z m 6.66211,3.4453125125 V -4.3008984 h -1.113281 v 2.6953125 c 0,0.5039062 -0.363282,0.84374996 -0.902344,0.84374996 -0.480469,0 -0.714844,-0.25781246 -0.714844,-0.77343746 v -2.765625 h -1.125 v 2.9882812 c 0,0.94921876 0.527344,1.50000001 1.453125,1.50000001 0.574219,0 0.960938,-0.22265625 1.289063,-0.703125 V -1.171875e-4 Z M 29.849992,-4.2188672 h -0.621094 v -1.1484375 h -1.125 v 1.1484375 h -0.539062 v 0.75 h 0.539062 v 2.63671876 c 0,0.6796875 0.363282,1.01953125 1.101563,1.01953125 0.246094,0 0.445312,-0.0234375 0.644531,-0.09375 v -0.7734375 c -0.117187,0.0117188 -0.175781,0.0234375 -0.257812,0.0234375 -0.292969,0 -0.363282,-0.09375 -0.363282,-0.48046871 v -2.3320313 h 0.621094 z m 4.423828,2.4140625 c 0.01172,-0.09375 0.01172,-0.1289062 0.01172,-0.1875 0,-0.4335937 -0.05859,-0.8320312 -0.164062,-1.1367187 -0.292969,-0.7734375 -0.984375,-1.2421875 -1.851563,-1.2421875 -1.230469,0 -1.992187,0.890625 -1.992187,2.3320312 0,1.38281251 0.75,2.22656251 1.96875,2.22656251 0.960937,0 1.746093,-0.55078125 1.992187,-1.39453121 h -1.101562 c -0.128907,0.33984371 -0.445313,0.53906246 -0.855469,0.53906246 -0.316406,0 -0.574219,-0.140625 -0.726563,-0.37499996 -0.105468,-0.1640625 -0.140625,-0.3515625 -0.164062,-0.7617188 z m -2.859375,-0.7382812 c 0.07031,-0.65625 0.339844,-0.984375 0.84375,-0.984375 0.269532,0 0.527344,0.140625 0.691407,0.3632812 0.105468,0.1640625 0.152343,0.328125 0.175781,0.6210938 z m 5.991211,2.5429687125 h 2.613282 c 0.667968,0 1.113281,-0.1289062525 1.464843,-0.4218750025 C 41.835344,-0.71496094 42.058,-1.2071484 42.058,-1.6758984 c 0,-0.5742188 -0.316406,-1.03125 -0.960937,-1.40625 0.574218,-0.3632813 0.796875,-0.703125 0.796875,-1.1953125 0,-0.3984375 -0.199219,-0.8203125 -0.527344,-1.1132813 -0.351563,-0.2929687 -0.75,-0.421875 -1.371094,-0.421875 H 37.405656 Z M 38.600969,-4.8165234 h 1.300781 c 0.550781,0 0.84375,0.234375 0.84375,0.6679687 0,0.421875 -0.292969,0.6445313 -0.84375,0.6445313 h -1.300781 z m 0,2.3085937 h 1.417969 c 0.585937,0 0.890625,0.2695313 0.890625,0.7617188 0,0.4921875 -0.304688,0.74999996 -0.890625,0.74999996 h -1.417969 z m 6.304687,-1.8632812 c -1.324218,0 -2.121093,0.8671875 -2.121093,2.2734375 0,1.41796871 0.796875,2.28515621 2.121093,2.28515621 1.3125,0 2.132813,-0.8671875 2.132813,-2.25000001 0,-1.4648437 -0.785156,-2.3085937 -2.132813,-2.3085937 z m 0,0.9023437 c 0.621094,0 1.019532,0.5390625 1.019532,1.3945313 0,0.796875 -0.421875,1.35937496 -1.019532,1.35937496 -0.597656,0 -1.007812,-0.56249996 -1.007812,-1.38281246 0,-0.8203125 0.410156,-1.3710938 1.007812,-1.3710938 z m 6.782227,3.4687500125 V -4.3008984 h -1.113281 v 2.6953125 c 0,0.5039062 -0.363282,0.84374996 -0.902344,0.84374996 -0.480469,0 -0.714844,-0.25781246 -0.714844,-0.77343746 v -2.765625 h -1.125 v 2.9882812 c 0,0.94921876 0.527344,1.50000001 1.453125,1.50000001 0.574219,0 0.960938,-0.22265625 1.289063,-0.703125 V -1.171875e-4 Z M 52.74843,-4.3008984 v 4.3007812125 h 1.113281 V -2.5782422 c 0,-0.515625 0.363281,-0.84375 0.902344,-0.84375 0.480468,0 0.714843,0.2578125 0.714843,0.7734375 V -1.171875e-4 H 56.59218 V -2.8829297 c 0,-0.9492187 -0.527344,-1.4882812 -1.441407,-1.4882812 -0.574218,0 -0.972656,0.2109375 -1.289062,0.6914062 v -0.6210937 z m 7.58789,4.3007812125 h 1.125 V -5.8126172 h -1.125 v 2.0625 c -0.269531,-0.421875 -0.644531,-0.6210937 -1.183593,-0.6210937 -1.03125,0 -1.804688,0.984375 -1.804688,2.2851562 0,0.5742188 0.175781,1.17187501 0.457031,1.58203126 0.292969,0.421875 0.820313,0.69140625 1.347657,0.69140625 0.539062,0 0.914062,-0.19921875 1.183593,-0.62109375 z M 59.39882,-3.4454297 c 0.5625,0 0.9375,0.5507813 0.9375,1.3710938 0,0.7851562 -0.375,1.32421871 -0.9375,1.32421871 -0.550781,0 -0.9375,-0.55078121 -0.9375,-1.33593751 0,-0.796875 0.386719,-1.359375 0.9375,-1.359375 z m 0,0"
       style="fill:#e67817;fill-opacity:1;fill-rule:nonzero;stroke:none"
       aria-label="ComputeBound"
       transform="matrix(1.3333333,0,0,1.3333333,165.92267,50.84)" />
    <path
       id="path13"
       d="M 76.53586,0 V 76.53586"
       style="fill:none;stroke:#a3a3a3;stroke-width:0.59776;stroke-linecap:butt;stroke-linejoin:miter;stroke-miterlimit:10;stroke-dasharray:2.98883, 2.98883;stroke-dashoffset:0;stroke-opacity:1"
       transform="matrix(1.3333333,0,0,-1.3333333,57.577333,162.436)" />
    <path
       id="path14"
       d="m 79.02655,76.53586 c 0,1.37558 -1.11511,2.49069 -2.49069,2.49069 -1.37558,0 -2.49069,-1.11511 -2.49069,-2.49069 0,-1.37558 1.11511,-2.49069 2.49069,-2.49069 1.37558,0 2.49069,1.11511 2.49069,2.49069 z"
       style="fill:#333333;fill-opacity:1;fill-rule:nonzero;stroke:#ffffff;stroke-width:0.49814;stroke-linecap:butt;stroke-linejoin:miter;stroke-miterlimit:10;stroke-dasharray:none;stroke-opacity:1"
       transform="matrix(1.3333333,0,0,-1.3333333,57.577333,162.436)" />
    <path
       id="path15"
       d="m 1.3009453,-2.1919766 h 1.6640625 c 0.5859375,0 0.84375,0.28125 0.84375,0.9140625 l -0.011719,0.44531254 c 0,0.31640625 0.058594,0.62109375 0.1523437,0.8320312475 H 4.7345391 V -0.16463281 C 4.4884453,-0.32869531 4.4415703,-0.50447656 4.4298516,-1.1841641 c -0.011719,-0.84375 -0.140625,-1.0898437 -0.6914063,-1.3242187 0.5742188,-0.28125 0.796875,-0.6328125 0.796875,-1.21875 0,-0.8789063 -0.5507812,-1.359375 -1.546875,-1.359375 H 0.64469531 V -5.703125e-4 H 1.3009453 Z m 0,-0.5742187 v -1.7460938 h 1.5703125 c 0.3515625,0 0.5625,0.058594 0.7265625,0.1992188 0.1757813,0.140625 0.2695313,0.375 0.2695313,0.6796875 0,0.5976562 -0.3164063,0.8671875 -0.9960938,0.8671875 z m 4.7783203,-0.890625 H 5.5050469 v 3.6562499875 h 0.5742187 z m 0,-1.4296875 H 5.4933281 v 0.7382812 h 0.5859375 z m 3.9609374,0 H 9.4542656 v 1.8867187 c -0.2460937,-0.3632812 -0.6328125,-0.5625 -1.125,-0.5625 -0.9492187,0 -1.5703125,0.7617188 -1.5703125,1.9335938 0,1.23046874 0.609375,1.99218749 1.59375,1.99218749 0.5039063,0 0.8554688,-0.1875 1.1601563,-0.64453125 v 0.4804687475 h 0.5273436 z m -1.6054686,1.875 c 0.6210937,0 1.0195312,0.5507812 1.0195312,1.4296875 0,0.84374999 -0.3984375,1.39453124 -1.0195312,1.39453124 -0.6328125,0 -1.0664063,-0.5625 -1.0664063,-1.41796874 0,-0.84375 0.4335938,-1.40625 1.0664063,-1.40625 z m 4.8984376,-0.4453125 v 0.5273437 c -0.292969,-0.421875 -0.644531,-0.6328125 -1.113281,-0.6328125 -0.925782,0 -1.558594,0.8085938 -1.558594,1.9921875 0,0.609375 0.164062,1.08984379 0.46875,1.44140629 0.269531,0.3046875 0.65625,0.4921875 1.042969,0.4921875 0.457031,0 0.773437,-0.19921875 1.101562,-0.65625 v 0.1875 c 0,0.4921875 -0.05859,0.796875 -0.199219,0.99609375 -0.164062,0.2109375 -0.457031,0.33984376 -0.808593,0.33984376 -0.269532,0 -0.503907,-0.0703125 -0.667969,-0.19921876 -0.128906,-0.10546875 -0.1875,-0.19921875 -0.222656,-0.41015625 h -0.597657 c 0.07031,0.69140621 0.609375,1.10156251 1.464844,1.10156251 0.539063,0 1.007813,-0.1757813 1.242188,-0.46875 0.28125,-0.33984376 0.386718,-0.79687501 0.386718,-1.65234376 V -3.6568203 Z m -1.054688,0.4335937 c 0.632813,0 0.996094,0.5273438 0.996094,1.4414063 0,0.87890624 -0.375,1.40624999 -0.984375,1.40624999 -0.632812,0 -1.019531,-0.5390625 -1.019531,-1.42968749 0,-0.8671875 0.386719,-1.4179688 1.007812,-1.4179688 z m 5.633789,1.59375 c 0,-0.5625 -0.03516,-0.890625 -0.140625,-1.171875 -0.234375,-0.5976562 -0.796875,-0.9609375 -1.476562,-0.9609375 -1.019531,0 -1.675781,0.7851563 -1.675781,1.9804688 0,1.20703124 0.632812,1.94531249 1.652343,1.94531249 0.84375,0 1.417969,-0.48046875 1.570313,-1.27734379 h -0.585938 c -0.164062,0.48046879 -0.492187,0.73828129 -0.960937,0.73828129 -0.363281,0 -0.679688,-0.1640625 -0.878906,-0.48046875 -0.140625,-0.19921874 -0.1875,-0.41015624 -0.1875,-0.77343754 z m -2.671875,-0.4804687 c 0.04687,-0.6679688 0.457032,-1.1132813 1.042969,-1.1132813 0.574219,0 1.007813,0.4804688 1.007813,1.078125 0,0.011719 0,0.023437 0,0.035156 z m 6.19043,-0.046875 h 1.605469 c 0.398437,0 0.703125,-0.1171875 0.984375,-0.3632813 0.304687,-0.28125 0.433594,-0.609375 0.433594,-1.0664062 0,-0.9609375 -0.5625,-1.5 -1.570313,-1.5 h -2.097656 v 5.0859374875 h 0.644531 z m 0,-0.5742188 v -1.78125 h 1.359375 c 0.621094,0 0.984375,0.3398438 0.984375,0.890625 0,0.5625 -0.363281,0.890625 -0.984375,0.890625 z m 4.924805,-1.03125 c -1.03125,0 -1.652344,0.7382813 -1.652344,1.9570313 0,1.23046874 0.621094,1.96874999 1.652344,1.96874999 1.03125,0 1.652344,-0.73828125 1.652344,-1.93359379 0,-1.265625 -0.597657,-1.9921875 -1.652344,-1.9921875 z m 0,0.5390625 c 0.65625,0 1.054687,0.5390625 1.054687,1.4414063 0,0.85546874 -0.410156,1.40624999 -1.054687,1.40624999 -0.644531,0 -1.042969,-0.5390625 -1.042969,-1.42968749 0,-0.8671875 0.398438,-1.4179688 1.042969,-1.4179688 z m 3.023437,-0.4335937 h -0.574218 v 3.6562499875 h 0.574218 z m 0,-1.4296875 h -0.585937 v 0.7382812 h 0.585937 z m 0.996094,1.4296875 v 3.6562499875 h 0.585938 V -2.0161953 c 0,-0.75 0.386718,-1.2304688 0.984375,-1.2304688 0.457031,0 0.75,0.28125 0.75,0.7148438 v 2.5312499875 h 0.585937 V -2.7661953 c 0,-0.5976563 -0.457031,-0.9960938 -1.160156,-0.9960938 -0.539063,0 -0.890625,0.2109375 -1.21875,0.7265625 v -0.6210937 z m 5.15332,0 h -0.597656 v -0.9960938 h -0.574219 v 0.9960938 h -0.503906 v 0.4804687 h 0.503906 v 2.75390629 c 0,0.375 0.246094,0.5859375 0.703125,0.5859375 0.140625,0 0.269532,-0.0234375 0.46875,-0.046875 v -0.4921875 c -0.07031,0.0234375 -0.164062,0.0234375 -0.28125,0.0234375 -0.246093,0 -0.316406,-0.0703125 -0.316406,-0.328125 V -3.1763516 h 0.597656 z m 0,0"
       style="fill:#333333;fill-opacity:1;fill-rule:nonzero;stroke:none"
       aria-label="RidgePoint"
       transform="matrix(1.3333333,0,0,1.3333333,135.824,173.75467)" />
  </g>
</svg>
