<?xml version="1.0" encoding="UTF-8"?>
<!DOCTYPE svg PUBLIC "-//W3C//DTD SVG 1.1//EN"
  "http://www.w3.org/Graphics/SVG/1.1/DTD/svg11.dtd">
<svg xmlns:xlink="http://www.w3.org/1999/xlink" width="95.10176pt" height="99.9pt" viewBox="0 0 95.10176 99.9" xmlns="http://www.w3.org/2000/svg" version="1.1">
 <metadata>
  <rdf:RDF xmlns:dc="http://purl.org/dc/elements/1.1/" xmlns:cc="http://creativecommons.org/ns#" xmlns:rdf="http://www.w3.org/1999/02/22-rdf-syntax-ns#">
   <cc:Work>
    <dc:type rdf:resource="http://purl.org/dc/dcmitype/StillImage"/>
    <dc:format>image/svg+xml</dc:format>
    <dc:creator>
     <cc:Agent>
      <dc:title>Matplotlib v3.10.8, https://matplotlib.org/</dc:title>
     </cc:Agent>
    </dc:creator>
   </cc:Work>
  </rdf:RDF>
 </metadata>
 <defs>
  <style type="text/css">*{stroke-linejoin: round; stroke-linecap: butt}</style>
 </defs>
 <g id="figure_1">
  <g id="patch_1">
   <path d="M 0 99.9
L 95.10176 99.9
L 95.10176 0
L 0 0
z
" style="fill: #ffffff"/>
  </g>
  <g id="axes_1">
   <g id="patch_2">
    <path d="M 1.44 98.46
L 71.19 98.46
L 71.19 1.44
L 1.44 1.44
z
" style="fill: #ffffff"/>
   </g>
   <g id="patch_3">
    <path d="M 1.44 31.5162
L 63.716786 31.5162
L 63.716786 10.1718
L 1.44 10.1718
z
" clip-path="url(#p879ee31a35)" style="fill: #006395; opacity: 0.92"/>
   </g>
   <g id="patch_4">
    <path d="M 1.44 63.8562
L 38.56476 63.8562
L 38.56476 42.5118
L 1.44 42.5118
z
" clip-path="url(#p879ee31a35)" style="fill: #006395; opacity: 0.92"/>
   </g>
   <g id="patch_5">
    <path d="M 1.44 96.1962
L 4.87404 96.1962
L 4.87404 74.8518
L 1.44 74.8518
z
" clip-path="url(#p879ee31a35)" style="fill: #006395; opacity: 0.92"/>
   </g>
   <g id="matplotlib.axis_1"/>
   <g id="matplotlib.axis_2"/>
   <g id="patch_6">
    <path d="M 1.44 98.46
L 71.19 98.46
" style="fill: none; stroke: #cccccc; stroke-width: 0.55; stroke-linejoin: miter; stroke-linecap: square"/>
   </g>
   <g id="text_1">
    <!-- MoE resident 1342 GB -->
    <g style="fill: #ffffff" transform="translate(10.066848 22.167156) scale(0.052 -0.052)">
     <defs>
      <path id="Helvetica-4d" d="M 472 4591
L 1363 4591
L 2681 709
L 3991 4591
L 4872 4591
L 4872 0
L 4281 0
L 4281 2709
Q 4281 2850 4287 3175
Q 4294 3500 4294 3872
L 2984 0
L 2369 0
L 1050 3872
L 1050 3731
Q 1050 3563 1058 3217
Q 1066 2872 1066 2709
L 1066 0
L 472 0
L 472 4591
z
" transform="scale(0.015625)"/>
      <path id="Helvetica-6f" d="M 1741 363
Q 2300 363 2508 786
Q 2716 1209 2716 1728
Q 2716 2197 2566 2491
Q 2328 2953 1747 2953
Q 1231 2953 997 2559
Q 763 2166 763 1609
Q 763 1075 997 719
Q 1231 363 1741 363
z
M 1763 3444
Q 2409 3444 2856 3012
Q 3303 2581 3303 1744
Q 3303 934 2909 406
Q 2516 -122 1688 -122
Q 997 -122 590 345
Q 184 813 184 1600
Q 184 2444 612 2944
Q 1041 3444 1763 3444
z
M 1744 3428
L 1744 3428
z
" transform="scale(0.015625)"/>
      <path id="Helvetica-45" d="M 547 4591
L 3894 4591
L 3894 4028
L 1153 4028
L 1153 2634
L 3688 2634
L 3688 2103
L 1153 2103
L 1153 547
L 3941 547
L 3941 0
L 547 0
L 547 4591
z
M 2244 4591
L 2244 4591
z
" transform="scale(0.015625)"/>
      <path id="Helvetica-20" transform="scale(0.015625)"/>
      <path id="Helvetica-72" d="M 428 3347
L 963 3347
L 963 2769
Q 1028 2938 1284 3180
Q 1541 3422 1875 3422
Q 1891 3422 1928 3419
Q 1966 3416 2056 3406
L 2056 2813
Q 2006 2822 1964 2825
Q 1922 2828 1872 2828
Q 1447 2828 1219 2554
Q 991 2281 991 1925
L 991 0
L 428 0
L 428 3347
z
" transform="scale(0.015625)"/>
      <path id="Helvetica-65" d="M 1806 3422
Q 2163 3422 2497 3255
Q 2831 3088 3006 2822
Q 3175 2569 3231 2231
Q 3281 2000 3281 1494
L 828 1494
Q 844 984 1069 676
Q 1294 369 1766 369
Q 2206 369 2469 659
Q 2619 828 2681 1050
L 3234 1050
Q 3213 866 3089 639
Q 2966 413 2813 269
Q 2556 19 2178 -69
Q 1975 -119 1719 -119
Q 1094 -119 659 336
Q 225 791 225 1609
Q 225 2416 662 2919
Q 1100 3422 1806 3422
z
M 2703 1941
Q 2669 2306 2544 2525
Q 2313 2931 1772 2931
Q 1384 2931 1121 2651
Q 859 2372 844 1941
L 2703 1941
z
M 1753 3428
L 1753 3428
z
" transform="scale(0.015625)"/>
      <path id="Helvetica-73" d="M 747 1050
Q 772 769 888 619
Q 1100 347 1625 347
Q 1938 347 2175 483
Q 2413 619 2413 903
Q 2413 1119 2222 1231
Q 2100 1300 1741 1391
L 1294 1503
Q 866 1609 663 1741
Q 300 1969 300 2372
Q 300 2847 642 3140
Q 984 3434 1563 3434
Q 2319 3434 2653 2991
Q 2863 2709 2856 2384
L 2325 2384
Q 2309 2575 2191 2731
Q 1997 2953 1519 2953
Q 1200 2953 1036 2831
Q 872 2709 872 2509
Q 872 2291 1088 2159
Q 1213 2081 1456 2022
L 1828 1931
Q 2434 1784 2641 1647
Q 2969 1431 2969 969
Q 2969 522 2630 197
Q 2291 -128 1597 -128
Q 850 -128 539 211
Q 228 550 206 1050
L 747 1050
z
M 1578 3428
L 1578 3428
z
" transform="scale(0.015625)"/>
      <path id="Helvetica-69" d="M 413 3331
L 984 3331
L 984 0
L 413 0
L 413 3331
z
M 413 4591
L 984 4591
L 984 3953
L 413 3953
L 413 4591
z
" transform="scale(0.015625)"/>
      <path id="Helvetica-64" d="M 769 1634
Q 769 1097 997 734
Q 1225 372 1728 372
Q 2119 372 2370 708
Q 2622 1044 2622 1672
Q 2622 2306 2362 2611
Q 2103 2916 1722 2916
Q 1297 2916 1033 2591
Q 769 2266 769 1634
z
M 1616 3406
Q 2000 3406 2259 3244
Q 2409 3150 2600 2916
L 2600 4606
L 3141 4606
L 3141 0
L 2634 0
L 2634 466
Q 2438 156 2169 18
Q 1900 -119 1553 -119
Q 994 -119 584 351
Q 175 822 175 1603
Q 175 2334 548 2870
Q 922 3406 1616 3406
z
" transform="scale(0.015625)"/>
      <path id="Helvetica-6e" d="M 413 3347
L 947 3347
L 947 2872
Q 1184 3166 1450 3294
Q 1716 3422 2041 3422
Q 2753 3422 3003 2925
Q 3141 2653 3141 2147
L 3141 0
L 2569 0
L 2569 2109
Q 2569 2416 2478 2603
Q 2328 2916 1934 2916
Q 1734 2916 1606 2875
Q 1375 2806 1200 2600
Q 1059 2434 1017 2257
Q 975 2081 975 1753
L 975 0
L 413 0
L 413 3347
z
M 1734 3428
L 1734 3428
z
" transform="scale(0.015625)"/>
      <path id="Helvetica-74" d="M 525 4281
L 1094 4281
L 1094 3347
L 1628 3347
L 1628 2888
L 1094 2888
L 1094 703
Q 1094 528 1213 469
Q 1278 434 1431 434
Q 1472 434 1519 436
Q 1566 438 1628 444
L 1628 0
Q 1531 -28 1426 -40
Q 1322 -53 1200 -53
Q 806 -53 665 148
Q 525 350 525 672
L 525 2888
L 72 2888
L 72 3347
L 525 3347
L 525 4281
z
" transform="scale(0.015625)"/>
      <path id="Helvetica-31" d="M 613 3169
L 613 3600
Q 1222 3659 1462 3798
Q 1703 3938 1822 4456
L 2266 4456
L 2266 0
L 1666 0
L 1666 3169
L 613 3169
z
" transform="scale(0.015625)"/>
      <path id="Helvetica-33" d="M 1663 -122
Q 869 -122 511 314
Q 153 750 153 1375
L 741 1375
Q 778 941 903 744
Q 1122 391 1694 391
Q 2138 391 2406 628
Q 2675 866 2675 1241
Q 2675 1703 2392 1887
Q 2109 2072 1606 2072
Q 1550 2072 1492 2070
Q 1434 2069 1375 2066
L 1375 2563
Q 1463 2553 1522 2550
Q 1581 2547 1650 2547
Q 1966 2547 2169 2647
Q 2525 2822 2525 3272
Q 2525 3606 2287 3787
Q 2050 3969 1734 3969
Q 1172 3969 956 3594
Q 838 3388 822 3006
L 266 3006
Q 266 3506 466 3856
Q 809 4481 1675 4481
Q 2359 4481 2734 4176
Q 3109 3872 3109 3294
Q 3109 2881 2888 2625
Q 2750 2466 2531 2375
Q 2884 2278 3082 2001
Q 3281 1725 3281 1325
Q 3281 684 2859 281
Q 2438 -122 1663 -122
z
" transform="scale(0.015625)"/>
      <path id="Helvetica-34" d="M 2116 1584
L 2116 3613
L 681 1584
L 2116 1584
z
M 2125 0
L 2125 1094
L 163 1094
L 163 1644
L 2213 4488
L 2688 4488
L 2688 1584
L 3347 1584
L 3347 1094
L 2688 1094
L 2688 0
L 2125 0
z
" transform="scale(0.015625)"/>
      <path id="Helvetica-32" d="M 200 0
Q 231 578 439 1006
Q 647 1434 1250 1784
L 1850 2131
Q 2253 2366 2416 2531
Q 2672 2791 2672 3125
Q 2672 3516 2437 3745
Q 2203 3975 1813 3975
Q 1234 3975 1013 3538
Q 894 3303 881 2888
L 309 2888
Q 319 3472 525 3841
Q 891 4491 1816 4491
Q 2584 4491 2939 4075
Q 3294 3659 3294 3150
Q 3294 2613 2916 2231
Q 2697 2009 2131 1694
L 1703 1456
Q 1397 1288 1222 1134
Q 909 863 828 531
L 3272 531
L 3272 0
L 200 0
z
" transform="scale(0.015625)"/>
      <path id="Helvetica-47" d="M 2472 4709
Q 3119 4709 3591 4459
Q 4275 4100 4428 3200
L 3813 3200
Q 3700 3703 3347 3933
Q 2994 4163 2456 4163
Q 1819 4163 1383 3684
Q 947 3206 947 2259
Q 947 1441 1306 927
Q 1666 413 2478 413
Q 3100 413 3508 773
Q 3916 1134 3925 1941
L 2488 1941
L 2488 2456
L 4503 2456
L 4503 0
L 4103 0
L 3953 591
Q 3638 244 3394 109
Q 2984 -122 2353 -122
Q 1538 -122 950 406
Q 309 1069 309 2225
Q 309 3378 934 4059
Q 1528 4709 2472 4709
z
M 2369 4716
L 2369 4716
z
" transform="scale(0.015625)"/>
      <path id="Helvetica-42" d="M 2213 2650
Q 2606 2650 2825 2759
Q 3169 2931 3169 3378
Q 3169 3828 2803 3984
Q 2597 4072 2191 4072
L 1081 4072
L 1081 2650
L 2213 2650
z
M 2422 531
Q 2994 531 3238 863
Q 3391 1072 3391 1369
Q 3391 1869 2944 2050
Q 2706 2147 2316 2147
L 1081 2147
L 1081 531
L 2422 531
z
M 472 4591
L 2444 4591
Q 3250 4591 3591 4109
Q 3791 3825 3791 3453
Q 3791 3019 3544 2741
Q 3416 2594 3175 2472
Q 3528 2338 3703 2169
Q 4013 1869 4013 1341
Q 4013 897 3734 538
Q 3319 0 2413 0
L 472 0
L 472 4591
z
" transform="scale(0.015625)"/>
     </defs>
     <use xlink:href="#Helvetica-4d"/>
     <use xlink:href="#Helvetica-6f" transform="translate(83.300781 0)"/>
     <use xlink:href="#Helvetica-45" transform="translate(138.916016 0)"/>
     <use xlink:href="#Helvetica-20" transform="translate(205.615234 0)"/>
     <use xlink:href="#Helvetica-72" transform="translate(233.398438 0)"/>
     <use xlink:href="#Helvetica-65" transform="translate(266.699219 0)"/>
     <use xlink:href="#Helvetica-73" transform="translate(322.314453 0)"/>
     <use xlink:href="#Helvetica-69" transform="translate(372.314453 0)"/>
     <use xlink:href="#Helvetica-64" transform="translate(394.53125 0)"/>
     <use xlink:href="#Helvetica-65" transform="translate(450.146484 0)"/>
     <use xlink:href="#Helvetica-6e" transform="translate(505.761719 0)"/>
     <use xlink:href="#Helvetica-74" transform="translate(561.376953 0)"/>
     <use xlink:href="#Helvetica-20" transform="translate(589.160156 0)"/>
     <use xlink:href="#Helvetica-31" transform="translate(616.943359 0)"/>
     <use xlink:href="#Helvetica-33" transform="translate(672.558594 0)"/>
     <use xlink:href="#Helvetica-34" transform="translate(728.173828 0)"/>
     <use xlink:href="#Helvetica-32" transform="translate(783.789062 0)"/>
     <use xlink:href="#Helvetica-20" transform="translate(839.404297 0)"/>
     <use xlink:href="#Helvetica-47" transform="translate(867.1875 0)"/>
     <use xlink:href="#Helvetica-42" transform="translate(944.970703 0)"/>
    </g>
   </g>
   <g id="text_2">
    <!-- Dense resident 800 GB -->
    <g style="fill: #333333" transform="translate(39.61101 54.507156) scale(0.052 -0.052)">
     <defs>
      <path id="Helvetica-44" d="M 2250 531
Q 2566 531 2769 597
Q 3131 719 3363 1066
Q 3547 1344 3628 1778
Q 3675 2038 3675 2259
Q 3675 3113 3336 3584
Q 2997 4056 2244 4056
L 1141 4056
L 1141 531
L 2250 531
z
M 516 4591
L 2375 4591
Q 3322 4591 3844 3919
Q 4309 3313 4309 2366
Q 4309 1634 4034 1044
Q 3550 0 2369 0
L 516 0
L 516 4591
z
" transform="scale(0.015625)"/>
      <path id="Helvetica-38" d="M 1741 2600
Q 2113 2600 2322 2808
Q 2531 3016 2531 3303
Q 2531 3553 2331 3762
Q 2131 3972 1722 3972
Q 1316 3972 1134 3762
Q 953 3553 953 3272
Q 953 2956 1187 2778
Q 1422 2600 1741 2600
z
M 1775 384
Q 2166 384 2423 595
Q 2681 806 2681 1225
Q 2681 1659 2415 1884
Q 2150 2109 1734 2109
Q 1331 2109 1076 1879
Q 822 1650 822 1244
Q 822 894 1055 639
Q 1288 384 1775 384
z
M 975 2384
Q 741 2484 609 2619
Q 363 2869 363 3269
Q 363 3769 725 4128
Q 1088 4488 1753 4488
Q 2397 4488 2762 4148
Q 3128 3809 3128 3356
Q 3128 2938 2916 2678
Q 2797 2531 2547 2391
Q 2825 2263 2984 2097
Q 3281 1784 3281 1284
Q 3281 694 2884 283
Q 2488 -128 1763 -128
Q 1109 -128 657 226
Q 206 581 206 1256
Q 206 1653 400 1942
Q 594 2231 975 2384
z
" transform="scale(0.015625)"/>
      <path id="Helvetica-30" d="M 1731 4475
Q 2600 4475 2988 3759
Q 3288 3206 3288 2244
Q 3288 1331 3016 734
Q 2622 -122 1728 -122
Q 922 -122 528 578
Q 200 1163 200 2147
Q 200 2909 397 3456
Q 766 4475 1731 4475
z
M 1725 391
Q 2163 391 2422 778
Q 2681 1166 2681 2222
Q 2681 2984 2493 3476
Q 2306 3969 1766 3969
Q 1269 3969 1039 3501
Q 809 3034 809 2125
Q 809 1441 956 1025
Q 1181 391 1725 391
z
" transform="scale(0.015625)"/>
     </defs>
     <use xlink:href="#Helvetica-44"/>
     <use xlink:href="#Helvetica-65" transform="translate(72.216797 0)"/>
     <use xlink:href="#Helvetica-6e" transform="translate(127.832031 0)"/>
     <use xlink:href="#Helvetica-73" transform="translate(183.447266 0)"/>
     <use xlink:href="#Helvetica-65" transform="translate(233.447266 0)"/>
     <use xlink:href="#Helvetica-20" transform="translate(289.0625 0)"/>
     <use xlink:href="#Helvetica-72" transform="translate(316.845703 0)"/>
     <use xlink:href="#Helvetica-65" transform="translate(350.146484 0)"/>
     <use xlink:href="#Helvetica-73" transform="translate(405.761719 0)"/>
     <use xlink:href="#Helvetica-69" transform="translate(455.761719 0)"/>
     <use xlink:href="#Helvetica-64" transform="translate(477.978516 0)"/>
     <use xlink:href="#Helvetica-65" transform="translate(533.59375 0)"/>
     <use xlink:href="#Helvetica-6e" transform="translate(589.208984 0)"/>
     <use xlink:href="#Helvetica-74" transform="translate(644.824219 0)"/>
     <use xlink:href="#Helvetica-20" transform="translate(672.607422 0)"/>
     <use xlink:href="#Helvetica-38" transform="translate(700.390625 0)"/>
     <use xlink:href="#Helvetica-30" transform="translate(756.005859 0)"/>
     <use xlink:href="#Helvetica-30" transform="translate(811.621094 0)"/>
     <use xlink:href="#Helvetica-20" transform="translate(867.236328 0)"/>
     <use xlink:href="#Helvetica-47" transform="translate(895.019531 0)"/>
     <use xlink:href="#Helvetica-42" transform="translate(972.802734 0)"/>
    </g>
   </g>
   <g id="text_3">
    <!-- MoE active 74 GB -->
    <g style="fill: #333333" transform="translate(5.92029 86.847156) scale(0.052 -0.052)">
     <defs>
      <path id="Helvetica-61" d="M 844 891
Q 844 647 1022 506
Q 1200 366 1444 366
Q 1741 366 2019 503
Q 2488 731 2488 1250
L 2488 1703
Q 2384 1638 2221 1594
Q 2059 1550 1903 1531
L 1563 1488
Q 1256 1447 1103 1359
Q 844 1213 844 891
z
M 2206 2028
Q 2400 2053 2466 2191
Q 2503 2266 2503 2406
Q 2503 2694 2298 2823
Q 2094 2953 1713 2953
Q 1272 2953 1088 2716
Q 984 2584 953 2325
L 428 2325
Q 444 2944 830 3186
Q 1216 3428 1725 3428
Q 2316 3428 2684 3203
Q 3050 2978 3050 2503
L 3050 575
Q 3050 488 3086 434
Q 3122 381 3238 381
Q 3275 381 3322 386
Q 3369 391 3422 400
L 3422 -16
Q 3291 -53 3222 -62
Q 3153 -72 3034 -72
Q 2744 -72 2613 134
Q 2544 244 2516 444
Q 2344 219 2022 53
Q 1700 -113 1313 -113
Q 847 -113 551 170
Q 256 453 256 878
Q 256 1344 547 1600
Q 838 1856 1309 1916
L 2206 2028
z
M 1741 3428
L 1741 3428
z
" transform="scale(0.015625)"/>
      <path id="Helvetica-63" d="M 1703 3444
Q 2269 3444 2623 3169
Q 2978 2894 3050 2222
L 2503 2222
Q 2453 2531 2275 2736
Q 2097 2941 1703 2941
Q 1166 2941 934 2416
Q 784 2075 784 1575
Q 784 1072 996 728
Q 1209 384 1666 384
Q 2016 384 2220 598
Q 2425 813 2503 1184
L 3050 1184
Q 2956 519 2581 211
Q 2206 -97 1622 -97
Q 966 -97 575 383
Q 184 863 184 1581
Q 184 2463 612 2953
Q 1041 3444 1703 3444
z
M 1616 3428
L 1616 3428
z
" transform="scale(0.015625)"/>
      <path id="Helvetica-76" d="M 688 3347
L 1581 622
L 2516 3347
L 3131 3347
L 1869 0
L 1269 0
L 34 3347
L 688 3347
z
" transform="scale(0.015625)"/>
      <path id="Helvetica-37" d="M 3347 4400
L 3347 3909
Q 3131 3700 2773 3181
Q 2416 2663 2141 2063
Q 1869 1478 1728 997
Q 1638 688 1494 0
L 872 0
Q 1084 1281 1809 2550
Q 2238 3294 2709 3834
L 234 3834
L 234 4400
L 3347 4400
z
" transform="scale(0.015625)"/>
     </defs>
     <use xlink:href="#Helvetica-4d"/>
     <use xlink:href="#Helvetica-6f" transform="translate(83.300781 0)"/>
     <use xlink:href="#Helvetica-45" transform="translate(138.916016 0)"/>
     <use xlink:href="#Helvetica-20" transform="translate(205.615234 0)"/>
     <use xlink:href="#Helvetica-61" transform="translate(233.398438 0)"/>
     <use xlink:href="#Helvetica-63" transform="translate(289.013672 0)"/>
     <use xlink:href="#Helvetica-74" transform="translate(339.013672 0)"/>
     <use xlink:href="#Helvetica-69" transform="translate(366.796875 0)"/>
     <use xlink:href="#Helvetica-76" transform="translate(389.013672 0)"/>
     <use xlink:href="#Helvetica-65" transform="translate(439.013672 0)"/>
     <use xlink:href="#Helvetica-20" transform="translate(494.628906 0)"/>
     <use xlink:href="#Helvetica-37" transform="translate(522.412109 0)"/>
     <use xlink:href="#Helvetica-34" transform="translate(578.027344 0)"/>
     <use xlink:href="#Helvetica-20" transform="translate(633.642578 0)"/>
     <use xlink:href="#Helvetica-47" transform="translate(661.425781 0)"/>
     <use xlink:href="#Helvetica-42" transform="translate(739.208984 0)"/>
    </g>
   </g>
  </g>
 </g>
 <defs>
  <clipPath id="p879ee31a35">
   <rect x="1.44" y="1.44" width="69.75" height="97.02"/>
  </clipPath>
 </defs>
</svg>
