<?xml version="1.0" encoding="UTF-8"?>
<!DOCTYPE svg PUBLIC "-//W3C//DTD SVG 1.1//EN"
  "http://www.w3.org/Graphics/SVG/1.1/DTD/svg11.dtd">
<svg xmlns:xlink="http://www.w3.org/1999/xlink" width="75.42pt" height="50.004pt" viewBox="0 0 75.42 50.004" xmlns="http://www.w3.org/2000/svg" version="1.1">
 <metadata>
  <rdf:RDF xmlns:dc="http://purl.org/dc/elements/1.1/" xmlns:cc="http://creativecommons.org/ns#" xmlns:rdf="http://www.w3.org/1999/02/22-rdf-syntax-ns#">
   <cc:Work>
    <dc:type rdf:resource="http://purl.org/dc/dcmitype/StillImage"/>
    <dc:format>image/svg+xml</dc:format>
    <dc:creator>
     <cc:Agent>
      <dc:title>Matplotlib v3.10.8, https://matplotlib.org/</dc:title>
     </cc:Agent>
    </dc:creator>
   </cc:Work>
  </rdf:RDF>
 </metadata>
 <defs>
  <style type="text/css">*{stroke-linejoin: round; stroke-linecap: butt}</style>
 </defs>
 <g id="figure_1">
  <g id="patch_1">
   <path d="M 0 50.004
L 75.42 50.004
L 75.42 0
L 0 0
z
" style="fill: #ffffff"/>
  </g>
  <g id="axes_1">
   <g id="patch_2">
    <path d="M 1.44 48.564
L 73.98 48.564
L 73.98 1.44
L 1.44 1.44
z
" style="fill: #ffffff"/>
   </g>
   <g id="FillBetweenPolyCollection_1">
    <defs>
     <path id="m1226efc89b" d="M 1.44 -6.1524
L 1.44 -6.1524
L 2.172727 -6.22856
L 2.905455 -6.30472
L 3.638182 -6.38088
L 4.370909 -6.45704
L 5.103636 -6.5332
L 5.836364 -6.60936
L 6.569091 -6.68552
L 7.301818 -6.76168
L 8.034545 -6.83784
L 8.767273 -6.914
L 9.5 -6.99016
L 10.232727 -7.06632
L 10.965455 -7.14248
L 11.698182 -7.21864
L 12.430909 -7.2948
L 13.163636 -7.37096
L 13.896364 -7.44712
L 14.629091 -7.52328
L 15.361818 -7.59944
L 16.094545 -7.6756
L 16.827273 -7.75176
L 17.56 -7.82792
L 18.292727 -7.90408
L 19.025455 -7.98024
L 19.758182 -8.0564
L 20.490909 -8.13256
L 21.223636 -8.20872
L 21.956364 -8.28488
L 22.689091 -8.36104
L 23.421818 -8.4372
L 24.154545 -8.51336
L 24.887273 -8.58952
L 25.62 -8.66568
L 26.352727 -8.74184
L 27.085455 -8.818
L 27.818182 -8.89416
L 28.550909 -8.97032
L 29.283636 -9.04648
L 30.016364 -9.12264
L 30.749091 -9.1988
L 31.481818 -9.27496
L 32.214545 -9.35112
L 32.947273 -9.42728
L 33.68 -9.50344
L 34.412727 -9.5796
L 35.145455 -9.65576
L 35.878182 -9.73192
L 36.610909 -9.80808
L 37.343636 -9.88424
L 38.076364 -9.9604
L 38.809091 -10.03656
L 39.541818 -10.11272
L 40.274545 -10.18888
L 41.007273 -10.26504
L 41.74 -10.3412
L 42.472727 -10.41736
L 43.205455 -10.49352
L 43.938182 -10.56968
L 44.670909 -10.64584
L 45.403636 -10.722
L 46.136364 -10.79816
L 46.869091 -10.87432
L 47.601818 -10.95048
L 48.334545 -11.02664
L 49.067273 -11.1028
L 49.8 -11.17896
L 50.532727 -11.25512
L 51.265455 -11.33128
L 51.998182 -11.40744
L 52.730909 -11.4836
L 53.463636 -11.55976
L 54.196364 -11.63592
L 54.929091 -11.71208
L 55.661818 -11.78824
L 56.394545 -11.8644
L 57.127273 -11.94056
L 57.86 -12.01672
L 58.592727 -12.09288
L 59.325455 -12.16904
L 60.058182 -12.2452
L 60.790909 -12.32136
L 61.523636 -12.39752
L 62.256364 -12.47368
L 62.989091 -12.54984
L 63.721818 -12.626
L 64.454545 -12.70216
L 65.187273 -12.77832
L 65.92 -12.85448
L 66.652727 -12.93064
L 67.385455 -13.0068
L 68.118182 -13.08296
L 68.850909 -13.15912
L 69.583636 -13.23528
L 70.316364 -13.31144
L 71.049091 -13.3876
L 71.781818 -13.46376
L 72.514545 -13.53992
L 73.247273 -13.61608
L 73.98 -13.69224
L 73.98 -46.2078
L 73.98 -46.2078
L 73.247273 -45.402687
L 72.514545 -44.605747
L 71.781818 -43.816982
L 71.049091 -43.03639
L 70.316364 -42.263972
L 69.583636 -41.499727
L 68.850909 -40.743657
L 68.118182 -39.99576
L 67.385455 -39.256036
L 66.652727 -38.524487
L 65.92 -37.801111
L 65.187273 -37.085909
L 64.454545 -36.378881
L 63.721818 -35.680026
L 62.989091 -34.989345
L 62.256364 -34.306838
L 61.523636 -33.632505
L 60.790909 -32.966345
L 60.058182 -32.30836
L 59.325455 -31.658547
L 58.592727 -31.016909
L 57.86 -30.383444
L 57.127273 -29.758154
L 56.394545 -29.141036
L 55.661818 -28.532093
L 54.929091 -27.931323
L 54.196364 -27.338727
L 53.463636 -26.754305
L 52.730909 -26.178057
L 51.998182 -25.609982
L 51.265455 -25.050081
L 50.532727 -24.498354
L 49.8 -23.9548
L 49.067273 -23.41942
L 48.334545 -22.892214
L 47.601818 -22.373182
L 46.869091 -21.862323
L 46.136364 -21.359638
L 45.403636 -20.865127
L 44.670909 -20.37879
L 43.938182 -19.900626
L 43.205455 -19.430636
L 42.472727 -18.96882
L 41.74 -18.515178
L 41.007273 -18.069709
L 40.274545 -17.632414
L 39.541818 -17.203293
L 38.809091 -16.782345
L 38.076364 -16.369572
L 37.343636 -15.964972
L 36.610909 -15.568545
L 35.878182 -15.180293
L 35.145455 -14.800214
L 34.412727 -14.428309
L 33.68 -14.064578
L 32.947273 -13.70902
L 32.214545 -13.361636
L 31.481818 -13.022426
L 30.749091 -12.69139
L 30.016364 -12.368527
L 29.283636 -12.053838
L 28.550909 -11.747323
L 27.818182 -11.448982
L 27.085455 -11.158814
L 26.352727 -10.87682
L 25.62 -10.603
L 24.887273 -10.337354
L 24.154545 -10.079881
L 23.421818 -9.830582
L 22.689091 -9.589457
L 21.956364 -9.356505
L 21.223636 -9.131727
L 20.490909 -8.915123
L 19.758182 -8.706693
L 19.025455 -8.506436
L 18.292727 -8.314354
L 17.56 -8.130444
L 16.827273 -7.954709
L 16.094545 -7.787147
L 15.361818 -7.62776
L 14.629091 -7.476545
L 13.896364 -7.333505
L 13.163636 -7.198638
L 12.430909 -7.071945
L 11.698182 -6.953426
L 10.965455 -6.843081
L 10.232727 -6.740909
L 9.5 -6.646911
L 8.767273 -6.561087
L 8.034545 -6.483436
L 7.301818 -6.41396
L 6.569091 -6.352657
L 5.836364 -6.299527
L 5.103636 -6.254572
L 4.370909 -6.21779
L 3.638182 -6.189182
L 2.905455 -6.168747
L 2.172727 -6.156487
L 1.44 -6.1524
z
" style="stroke: #f2d7d5; stroke-opacity: 0.4"/>
    </defs>
    <g clip-path="url(#pcda5fadba2)">
     <use xlink:href="#m1226efc89b" x="0" y="50.004" style="fill: #f2d7d5; fill-opacity: 0.4; stroke: #f2d7d5; stroke-opacity: 0.4"/>
    </g>
   </g>
   <g id="matplotlib.axis_1"/>
   <g id="matplotlib.axis_2"/>
   <g id="line2d_1">
    <path d="M 1.44 43.8516
L 2.172727 43.847513
L 2.905455 43.835253
L 3.638182 43.814818
L 4.370909 43.78621
L 5.103636 43.749428
L 5.836364 43.704473
L 6.569091 43.651343
L 7.301818 43.59004
L 8.034545 43.520564
L 8.767273 43.442913
L 9.5 43.357089
L 10.232727 43.263091
L 10.965455 43.160919
L 11.698182 43.050574
L 12.430909 42.932055
L 13.163636 42.805362
L 13.896364 42.670495
L 14.629091 42.527455
L 15.361818 42.37624
L 16.094545 42.216853
L 16.827273 42.049291
L 17.56 41.873556
L 18.292727 41.689646
L 19.025455 41.497564
L 19.758182 41.297307
L 20.490909 41.088877
L 21.223636 40.872273
L 21.956364 40.647495
L 22.689091 40.414543
L 23.421818 40.173418
L 24.154545 39.924119
L 24.887273 39.666646
L 25.62 39.401
L 26.352727 39.12718
L 27.085455 38.845186
L 27.818182 38.555018
L 28.550909 38.256677
L 29.283636 37.950162
L 30.016364 37.635473
L 30.749091 37.31261
L 31.481818 36.981574
L 32.214545 36.642364
L 32.947273 36.29498
L 33.68 35.939422
L 34.412727 35.575691
L 35.145455 35.203786
L 35.878182 34.823707
L 36.610909 34.435455
L 37.343636 34.039028
L 38.076364 33.634428
L 38.809091 33.221655
L 39.541818 32.800707
L 40.274545 32.371586
L 41.007273 31.934291
L 41.74 31.488822
L 42.472727 31.03518
L 43.205455 30.573364
L 43.938182 30.103374
L 44.670909 29.62521
L 45.403636 29.138873
L 46.136364 28.644362
L 46.869091 28.141677
L 47.601818 27.630818
L 48.334545 27.111786
L 49.067273 26.58458
L 49.8 26.0492
L 50.532727 25.505646
L 51.265455 24.953919
L 51.998182 24.394018
L 52.730909 23.825943
L 53.463636 23.249695
L 54.196364 22.665273
L 54.929091 22.072677
L 55.661818 21.471907
L 56.394545 20.862964
L 57.127273 20.245846
L 57.86 19.620556
L 58.592727 18.987091
L 59.325455 18.345453
L 60.058182 17.69564
L 60.790909 17.037655
L 61.523636 16.371495
L 62.256364 15.697162
L 62.989091 15.014655
L 63.721818 14.323974
L 64.454545 13.625119
L 65.187273 12.918091
L 65.92 12.202889
L 66.652727 11.479513
L 67.385455 10.747964
L 68.118182 10.00824
L 68.850909 9.260343
L 69.583636 8.504273
L 70.316364 7.740028
L 71.049091 6.96761
L 71.781818 6.187018
L 72.514545 5.398253
L 73.247273 4.601313
L 73.98 3.7962
" clip-path="url(#pcda5fadba2)" style="fill: none; stroke: #cb202d; stroke-width: 1.35; stroke-linecap: square"/>
   </g>
   <g id="line2d_2">
    <path d="M 1.44 43.8516
L 2.172727 43.77544
L 2.905455 43.69928
L 3.638182 43.62312
L 4.370909 43.54696
L 5.103636 43.4708
L 5.836364 43.39464
L 6.569091 43.31848
L 7.301818 43.24232
L 8.034545 43.16616
L 8.767273 43.09
L 9.5 43.01384
L 10.232727 42.93768
L 10.965455 42.86152
L 11.698182 42.78536
L 12.430909 42.7092
L 13.163636 42.63304
L 13.896364 42.55688
L 14.629091 42.48072
L 15.361818 42.40456
L 16.094545 42.3284
L 16.827273 42.25224
L 17.56 42.17608
L 18.292727 42.09992
L 19.025455 42.02376
L 19.758182 41.9476
L 20.490909 41.87144
L 21.223636 41.79528
L 21.956364 41.71912
L 22.689091 41.64296
L 23.421818 41.5668
L 24.154545 41.49064
L 24.887273 41.41448
L 25.62 41.33832
L 26.352727 41.26216
L 27.085455 41.186
L 27.818182 41.10984
L 28.550909 41.03368
L 29.283636 40.95752
L 30.016364 40.88136
L 30.749091 40.8052
L 31.481818 40.72904
L 32.214545 40.65288
L 32.947273 40.57672
L 33.68 40.50056
L 34.412727 40.4244
L 35.145455 40.34824
L 35.878182 40.27208
L 36.610909 40.19592
L 37.343636 40.11976
L 38.076364 40.0436
L 38.809091 39.96744
L 39.541818 39.89128
L 40.274545 39.81512
L 41.007273 39.73896
L 41.74 39.6628
L 42.472727 39.58664
L 43.205455 39.51048
L 43.938182 39.43432
L 44.670909 39.35816
L 45.403636 39.282
L 46.136364 39.20584
L 46.869091 39.12968
L 47.601818 39.05352
L 48.334545 38.97736
L 49.067273 38.9012
L 49.8 38.82504
L 50.532727 38.74888
L 51.265455 38.67272
L 51.998182 38.59656
L 52.730909 38.5204
L 53.463636 38.44424
L 54.196364 38.36808
L 54.929091 38.29192
L 55.661818 38.21576
L 56.394545 38.1396
L 57.127273 38.06344
L 57.86 37.98728
L 58.592727 37.91112
L 59.325455 37.83496
L 60.058182 37.7588
L 60.790909 37.68264
L 61.523636 37.60648
L 62.256364 37.53032
L 62.989091 37.45416
L 63.721818 37.378
L 64.454545 37.30184
L 65.187273 37.22568
L 65.92 37.14952
L 66.652727 37.07336
L 67.385455 36.9972
L 68.118182 36.92104
L 68.850909 36.84488
L 69.583636 36.76872
L 70.316364 36.69256
L 71.049091 36.6164
L 71.781818 36.54024
L 72.514545 36.46408
L 73.247273 36.38792
L 73.98 36.31176
" clip-path="url(#pcda5fadba2)" style="fill: none; stroke: #006395; stroke-width: 1.35; stroke-linecap: square"/>
   </g>
  </g>
 </g>
 <defs>
  <clipPath id="pcda5fadba2">
   <rect x="1.44" y="1.44" width="72.54" height="47.124"/>
  </clipPath>
 </defs>
</svg>
