<?xml version="1.0" encoding="utf-8" standalone="no"?>
<!DOCTYPE svg PUBLIC "-//W3C//DTD SVG 1.1//EN"
  "http://www.w3.org/Graphics/SVG/1.1/DTD/svg11.dtd">
<svg xmlns:xlink="http://www.w3.org/1999/xlink" width="72.63pt" height="99.9pt" viewBox="0 0 72.63 99.9" xmlns="http://www.w3.org/2000/svg" version="1.1">
 <metadata>
  <rdf:RDF xmlns:dc="http://purl.org/dc/elements/1.1/" xmlns:cc="http://creativecommons.org/ns#" xmlns:rdf="http://www.w3.org/1999/02/22-rdf-syntax-ns#">
   <cc:Work>
    <dc:type rdf:resource="http://purl.org/dc/dcmitype/StillImage"/>
    <dc:format>image/svg+xml</dc:format>
    <dc:creator>
     <cc:Agent>
      <dc:title>Matplotlib v3.10.8, https://matplotlib.org/</dc:title>
     </cc:Agent>
    </dc:creator>
   </cc:Work>
  </rdf:RDF>
 </metadata>
 <defs>
  <style type="text/css">*{stroke-linejoin: round; stroke-linecap: butt}</style>
 </defs>
 <g id="figure_1">
  <g id="patch_1">
   <path d="M 0 99.9
L 72.63 99.9
L 72.63 0
L 0 0
z
" style="fill: #ffffff"/>
  </g>
  <g id="axes_1">
   <g id="patch_2">
    <path d="M 1.44 98.46
L 71.19 98.46
L 71.19 1.44
L 1.44 1.44
z
" style="fill: #ffffff"/>
   </g>
   <g id="patch_3">
    <path d="M 1.44 31.5162
L 64.869014 31.5162
L 64.869014 10.1718
L 1.44 10.1718
z
" clip-path="url(#p879ee31a35)" style="fill: #e67817; opacity: 0.92"/>
   </g>
   <g id="patch_4">
    <path d="M 1.44 63.8562
L 43.916094 63.8562
L 43.916094 42.5118
L 1.44 42.5118
z
" clip-path="url(#p879ee31a35)" style="fill: #e67817; opacity: 0.92"/>
   </g>
   <g id="patch_5">
    <path d="M 1.44 96.1962
L 8.785813 96.1962
L 8.785813 74.8518
L 1.44 74.8518
z
" clip-path="url(#p879ee31a35)" style="fill: #e67817; opacity: 0.92"/>
   </g>
   <g id="matplotlib.axis_1">
    <g id="xtick_1">
     <g id="line2d_1"/>
    </g>
    <g id="xtick_2">
     <g id="line2d_2"/>
    </g>
    <g id="xtick_3">
     <g id="line2d_3"/>
    </g>
    <g id="xtick_4">
     <g id="line2d_4"/>
    </g>
    <g id="xtick_5">
     <g id="line2d_5"/>
    </g>
    <g id="xtick_6">
     <g id="line2d_6"/>
    </g>
    <g id="xtick_7">
     <g id="line2d_7"/>
    </g>
    <g id="xtick_8">
     <g id="line2d_8"/>
    </g>
    <g id="xtick_9">
     <g id="line2d_9"/>
    </g>
    <g id="xtick_10">
     <g id="line2d_10"/>
    </g>
    <g id="xtick_11">
     <g id="line2d_11"/>
    </g>
    <g id="xtick_12">
     <g id="line2d_12"/>
    </g>
    <g id="xtick_13">
     <g id="line2d_13"/>
    </g>
    <g id="xtick_14">
     <g id="line2d_14"/>
    </g>
    <g id="xtick_15">
     <g id="line2d_15"/>
    </g>
    <g id="xtick_16">
     <g id="line2d_16"/>
    </g>
    <g id="xtick_17">
     <g id="line2d_17"/>
    </g>
    <g id="xtick_18">
     <g id="line2d_18"/>
    </g>
    <g id="xtick_19">
     <g id="line2d_19"/>
    </g>
    <g id="xtick_20">
     <g id="line2d_20"/>
    </g>
    <g id="xtick_21">
     <g id="line2d_21"/>
    </g>
    <g id="xtick_22">
     <g id="line2d_22"/>
    </g>
    <g id="xtick_23">
     <g id="line2d_23"/>
    </g>
    <g id="xtick_24">
     <g id="line2d_24"/>
    </g>
    <g id="xtick_25">
     <g id="line2d_25"/>
    </g>
    <g id="xtick_26">
     <g id="line2d_26"/>
    </g>
    <g id="xtick_27">
     <g id="line2d_27"/>
    </g>
    <g id="xtick_28">
     <g id="line2d_28"/>
    </g>
    <g id="xtick_29">
     <g id="line2d_29"/>
    </g>
    <g id="xtick_30">
     <g id="line2d_30"/>
    </g>
    <g id="xtick_31">
     <g id="line2d_31"/>
    </g>
   </g>
   <g id="matplotlib.axis_2"/>
   <g id="patch_6">
    <path d="M 1.44 98.46
L 71.19 98.46
" style="fill: none; stroke: #cccccc; stroke-width: 0.55; stroke-linejoin: miter; stroke-linecap: square"/>
   </g>
   <g id="text_1">
    <!-- NN 109K MACs -->
    <g style="fill: #ffffff" transform="translate(27.501552 22.167156) scale(0.052 -0.052)">
     <defs>
      <path id="Helvetica-4e" d="M 488 4591
L 1222 4591
L 3541 872
L 3541 4591
L 4131 4591
L 4131 0
L 3434 0
L 1081 3716
L 1081 0
L 488 0
L 488 4591
z
M 2269 4591
L 2269 4591
z
" transform="scale(0.015625)"/>
      <path id="Helvetica-20" transform="scale(0.015625)"/>
      <path id="Helvetica-31" d="M 613 3169
L 613 3600
Q 1222 3659 1462 3798
Q 1703 3938 1822 4456
L 2266 4456
L 2266 0
L 1666 0
L 1666 3169
L 613 3169
z
" transform="scale(0.015625)"/>
      <path id="Helvetica-30" d="M 1731 4475
Q 2600 4475 2988 3759
Q 3288 3206 3288 2244
Q 3288 1331 3016 734
Q 2622 -122 1728 -122
Q 922 -122 528 578
Q 200 1163 200 2147
Q 200 2909 397 3456
Q 766 4475 1731 4475
z
M 1725 391
Q 2163 391 2422 778
Q 2681 1166 2681 2222
Q 2681 2984 2493 3476
Q 2306 3969 1766 3969
Q 1269 3969 1039 3501
Q 809 3034 809 2125
Q 809 1441 956 1025
Q 1181 391 1725 391
z
" transform="scale(0.015625)"/>
      <path id="Helvetica-39" d="M 850 1081
Q 875 616 1209 438
Q 1381 344 1597 344
Q 2000 344 2284 680
Q 2569 1016 2688 2044
Q 2500 1747 2223 1626
Q 1947 1506 1628 1506
Q 981 1506 604 1909
Q 228 2313 228 2947
Q 228 3556 600 4018
Q 972 4481 1697 4481
Q 2675 4481 3047 3600
Q 3253 3116 3253 2388
Q 3253 1566 3006 931
Q 2597 -125 1619 -125
Q 963 -125 622 219
Q 281 563 281 1081
L 850 1081
z
M 1703 2000
Q 2038 2000 2314 2220
Q 2591 2441 2591 2991
Q 2591 3484 2342 3726
Q 2094 3969 1709 3969
Q 1297 3969 1055 3692
Q 813 3416 813 2953
Q 813 2516 1025 2258
Q 1238 2000 1703 2000
z
" transform="scale(0.015625)"/>
      <path id="Helvetica-4b" d="M 488 4591
L 1094 4591
L 1094 2353
L 3331 4591
L 4191 4591
L 2281 2741
L 4244 0
L 3434 0
L 1828 2303
L 1094 1600
L 1094 0
L 488 0
L 488 4591
z
" transform="scale(0.015625)"/>
      <path id="Helvetica-4d" d="M 472 4591
L 1363 4591
L 2681 709
L 3991 4591
L 4872 4591
L 4872 0
L 4281 0
L 4281 2709
Q 4281 2850 4287 3175
Q 4294 3500 4294 3872
L 2984 0
L 2369 0
L 1050 3872
L 1050 3731
Q 1050 3563 1058 3217
Q 1066 2872 1066 2709
L 1066 0
L 472 0
L 472 4591
z
" transform="scale(0.015625)"/>
      <path id="Helvetica-41" d="M 2844 1881
L 2147 3909
L 1406 1881
L 2844 1881
z
M 1822 4591
L 2525 4591
L 4191 0
L 3509 0
L 3044 1375
L 1228 1375
L 731 0
L 94 0
L 1822 4591
z
" transform="scale(0.015625)"/>
      <path id="Helvetica-43" d="M 2422 4716
Q 3294 4716 3775 4256
Q 4256 3797 4309 3213
L 3703 3213
Q 3600 3656 3292 3915
Q 2984 4175 2428 4175
Q 1750 4175 1333 3698
Q 916 3222 916 2238
Q 916 1431 1292 929
Q 1669 428 2416 428
Q 3103 428 3463 956
Q 3653 1234 3747 1688
L 4353 1688
Q 4272 963 3816 472
Q 3269 -119 2341 -119
Q 1541 -119 997 366
Q 281 1006 281 2344
Q 281 3359 819 4009
Q 1400 4716 2422 4716
z
M 2297 4716
L 2297 4716
z
" transform="scale(0.015625)"/>
      <path id="Helvetica-73" d="M 747 1050
Q 772 769 888 619
Q 1100 347 1625 347
Q 1938 347 2175 483
Q 2413 619 2413 903
Q 2413 1119 2222 1231
Q 2100 1300 1741 1391
L 1294 1503
Q 866 1609 663 1741
Q 300 1969 300 2372
Q 300 2847 642 3140
Q 984 3434 1563 3434
Q 2319 3434 2653 2991
Q 2863 2709 2856 2384
L 2325 2384
Q 2309 2575 2191 2731
Q 1997 2953 1519 2953
Q 1200 2953 1036 2831
Q 872 2709 872 2509
Q 872 2291 1088 2159
Q 1213 2081 1456 2022
L 1828 1931
Q 2434 1784 2641 1647
Q 2969 1431 2969 969
Q 2969 522 2630 197
Q 2291 -128 1597 -128
Q 850 -128 539 211
Q 228 550 206 1050
L 747 1050
z
M 1578 3428
L 1578 3428
z
" transform="scale(0.015625)"/>
     </defs>
     <use xlink:href="#Helvetica-4e"/>
     <use xlink:href="#Helvetica-4e" transform="translate(72.216797 0)"/>
     <use xlink:href="#Helvetica-20" transform="translate(144.433594 0)"/>
     <use xlink:href="#Helvetica-31" transform="translate(172.216797 0)"/>
     <use xlink:href="#Helvetica-30" transform="translate(227.832031 0)"/>
     <use xlink:href="#Helvetica-39" transform="translate(283.447266 0)"/>
     <use xlink:href="#Helvetica-4b" transform="translate(339.0625 0)"/>
     <use xlink:href="#Helvetica-20" transform="translate(405.761719 0)"/>
     <use xlink:href="#Helvetica-4d" transform="translate(433.544922 0)"/>
     <use xlink:href="#Helvetica-41" transform="translate(516.845703 0)"/>
     <use xlink:href="#Helvetica-43" transform="translate(583.544922 0)"/>
     <use xlink:href="#Helvetica-73" transform="translate(655.761719 0)"/>
    </g>
   </g>
   <g id="text_2">
    <!-- HOG 8K ops -->
    <g style="fill: #ffffff" transform="translate(13.770132 54.557937) scale(0.052 -0.052)">
     <defs>
      <path id="Helvetica-48" d="M 503 4591
L 1131 4591
L 1131 2694
L 3519 2694
L 3519 4591
L 4147 4591
L 4147 0
L 3519 0
L 3519 2147
L 1131 2147
L 1131 0
L 503 0
L 503 4591
z
" transform="scale(0.015625)"/>
      <path id="Helvetica-4f" d="M 2469 4716
Q 3684 4716 4269 3934
Q 4725 3325 4725 2375
Q 4725 1347 4203 666
Q 3591 -134 2456 -134
Q 1397 -134 791 566
Q 250 1241 250 2272
Q 250 3203 713 3866
Q 1306 4716 2469 4716
z
M 2531 422
Q 3353 422 3720 1011
Q 4088 1600 4088 2366
Q 4088 3175 3664 3669
Q 3241 4163 2506 4163
Q 1794 4163 1344 3673
Q 894 3184 894 2231
Q 894 1469 1280 945
Q 1666 422 2531 422
z
M 2488 4716
L 2488 4716
z
" transform="scale(0.015625)"/>
      <path id="Helvetica-47" d="M 2472 4709
Q 3119 4709 3591 4459
Q 4275 4100 4428 3200
L 3813 3200
Q 3700 3703 3347 3933
Q 2994 4163 2456 4163
Q 1819 4163 1383 3684
Q 947 3206 947 2259
Q 947 1441 1306 927
Q 1666 413 2478 413
Q 3100 413 3508 773
Q 3916 1134 3925 1941
L 2488 1941
L 2488 2456
L 4503 2456
L 4503 0
L 4103 0
L 3953 591
Q 3638 244 3394 109
Q 2984 -122 2353 -122
Q 1538 -122 950 406
Q 309 1069 309 2225
Q 309 3378 934 4059
Q 1528 4709 2472 4709
z
M 2369 4716
L 2369 4716
z
" transform="scale(0.015625)"/>
      <path id="Helvetica-38" d="M 1741 2600
Q 2113 2600 2322 2808
Q 2531 3016 2531 3303
Q 2531 3553 2331 3762
Q 2131 3972 1722 3972
Q 1316 3972 1134 3762
Q 953 3553 953 3272
Q 953 2956 1187 2778
Q 1422 2600 1741 2600
z
M 1775 384
Q 2166 384 2423 595
Q 2681 806 2681 1225
Q 2681 1659 2415 1884
Q 2150 2109 1734 2109
Q 1331 2109 1076 1879
Q 822 1650 822 1244
Q 822 894 1055 639
Q 1288 384 1775 384
z
M 975 2384
Q 741 2484 609 2619
Q 363 2869 363 3269
Q 363 3769 725 4128
Q 1088 4488 1753 4488
Q 2397 4488 2762 4148
Q 3128 3809 3128 3356
Q 3128 2938 2916 2678
Q 2797 2531 2547 2391
Q 2825 2263 2984 2097
Q 3281 1784 3281 1284
Q 3281 694 2884 283
Q 2488 -128 1763 -128
Q 1109 -128 657 226
Q 206 581 206 1256
Q 206 1653 400 1942
Q 594 2231 975 2384
z
" transform="scale(0.015625)"/>
      <path id="Helvetica-6f" d="M 1741 363
Q 2300 363 2508 786
Q 2716 1209 2716 1728
Q 2716 2197 2566 2491
Q 2328 2953 1747 2953
Q 1231 2953 997 2559
Q 763 2166 763 1609
Q 763 1075 997 719
Q 1231 363 1741 363
z
M 1763 3444
Q 2409 3444 2856 3012
Q 3303 2581 3303 1744
Q 3303 934 2909 406
Q 2516 -122 1688 -122
Q 997 -122 590 345
Q 184 813 184 1600
Q 184 2444 612 2944
Q 1041 3444 1763 3444
z
M 1744 3428
L 1744 3428
z
" transform="scale(0.015625)"/>
      <path id="Helvetica-70" d="M 1825 378
Q 2219 378 2480 708
Q 2741 1038 2741 1694
Q 2741 2094 2625 2381
Q 2406 2934 1825 2934
Q 1241 2934 1025 2350
Q 909 2038 909 1556
Q 909 1169 1025 897
Q 1244 378 1825 378
z
M 369 3331
L 916 3331
L 916 2888
Q 1084 3116 1284 3241
Q 1569 3428 1953 3428
Q 2522 3428 2919 2992
Q 3316 2556 3316 1747
Q 3316 653 2744 184
Q 2381 -113 1900 -113
Q 1522 -113 1266 53
Q 1116 147 931 375
L 931 -1334
L 369 -1334
L 369 3331
z
" transform="scale(0.015625)"/>
     </defs>
     <use xlink:href="#Helvetica-48"/>
     <use xlink:href="#Helvetica-4f" transform="translate(72.216797 0)"/>
     <use xlink:href="#Helvetica-47" transform="translate(150 0)"/>
     <use xlink:href="#Helvetica-20" transform="translate(227.783203 0)"/>
     <use xlink:href="#Helvetica-38" transform="translate(255.566406 0)"/>
     <use xlink:href="#Helvetica-4b" transform="translate(311.181641 0)"/>
     <use xlink:href="#Helvetica-20" transform="translate(377.880859 0)"/>
     <use xlink:href="#Helvetica-6f" transform="translate(405.664062 0)"/>
     <use xlink:href="#Helvetica-70" transform="translate(461.279297 0)"/>
     <use xlink:href="#Helvetica-73" transform="translate(516.894531 0)"/>
    </g>
   </g>
   <g id="text_3">
    <!-- Rules 100 -->
    <g style="fill: #333333" transform="translate(12.299261 86.847156) scale(0.052 -0.052)">
     <defs>
      <path id="Helvetica-52" d="M 2622 2488
Q 3059 2488 3314 2663
Q 3569 2838 3569 3294
Q 3569 3784 3213 3963
Q 3022 4056 2703 4056
L 1184 4056
L 1184 2488
L 2622 2488
z
M 563 4591
L 2688 4591
Q 3213 4591 3553 4438
Q 4200 4144 4200 3353
Q 4200 2941 4029 2678
Q 3859 2416 3553 2256
Q 3822 2147 3958 1969
Q 4094 1791 4109 1391
L 4131 775
Q 4141 513 4175 384
Q 4231 166 4375 103
L 4375 0
L 3613 0
Q 3581 59 3562 153
Q 3544 247 3531 516
L 3494 1281
Q 3472 1731 3159 1884
Q 2981 1969 2600 1969
L 1184 1969
L 1184 0
L 563 0
L 563 4591
z
" transform="scale(0.015625)"/>
      <path id="Helvetica-75" d="M 975 3347
L 975 1125
Q 975 869 1056 706
Q 1206 406 1616 406
Q 2203 406 2416 931
Q 2531 1213 2531 1703
L 2531 3347
L 3094 3347
L 3094 0
L 2563 0
L 2569 494
Q 2459 303 2297 172
Q 1975 -91 1516 -91
Q 800 -91 541 388
Q 400 644 400 1072
L 400 3347
L 975 3347
z
M 1747 3428
L 1747 3428
z
" transform="scale(0.015625)"/>
      <path id="Helvetica-6c" d="M 428 4591
L 991 4591
L 991 0
L 428 0
L 428 4591
z
" transform="scale(0.015625)"/>
      <path id="Helvetica-65" d="M 1806 3422
Q 2163 3422 2497 3255
Q 2831 3088 3006 2822
Q 3175 2569 3231 2231
Q 3281 2000 3281 1494
L 828 1494
Q 844 984 1069 676
Q 1294 369 1766 369
Q 2206 369 2469 659
Q 2619 828 2681 1050
L 3234 1050
Q 3213 866 3089 639
Q 2966 413 2813 269
Q 2556 19 2178 -69
Q 1975 -119 1719 -119
Q 1094 -119 659 336
Q 225 791 225 1609
Q 225 2416 662 2919
Q 1100 3422 1806 3422
z
M 2703 1941
Q 2669 2306 2544 2525
Q 2313 2931 1772 2931
Q 1384 2931 1121 2651
Q 859 2372 844 1941
L 2703 1941
z
M 1753 3428
L 1753 3428
z
" transform="scale(0.015625)"/>
     </defs>
     <use xlink:href="#Helvetica-52"/>
     <use xlink:href="#Helvetica-75" transform="translate(72.216797 0)"/>
     <use xlink:href="#Helvetica-6c" transform="translate(127.832031 0)"/>
     <use xlink:href="#Helvetica-65" transform="translate(150.048828 0)"/>
     <use xlink:href="#Helvetica-73" transform="translate(205.664062 0)"/>
     <use xlink:href="#Helvetica-20" transform="translate(255.664062 0)"/>
     <use xlink:href="#Helvetica-31" transform="translate(283.447266 0)"/>
     <use xlink:href="#Helvetica-30" transform="translate(339.0625 0)"/>
     <use xlink:href="#Helvetica-30" transform="translate(394.677734 0)"/>
    </g>
   </g>
   <g id="text_4">
    <!-- log scale -->
    <g style="fill: #777777" transform="translate(55.798406 95.009925) scale(0.039 -0.039)">
     <defs>
      <path id="Helvetica-67" d="M 1594 3406
Q 1988 3406 2281 3213
Q 2441 3103 2606 2894
L 2606 3316
L 3125 3316
L 3125 272
Q 3125 -366 2938 -734
Q 2588 -1416 1616 -1416
Q 1075 -1416 706 -1173
Q 338 -931 294 -416
L 866 -416
Q 906 -641 1028 -763
Q 1219 -950 1628 -950
Q 2275 -950 2475 -494
Q 2594 -225 2584 466
Q 2416 209 2178 84
Q 1941 -41 1550 -41
Q 1006 -41 598 345
Q 191 731 191 1622
Q 191 2463 602 2934
Q 1013 3406 1594 3406
z
M 2606 1688
Q 2606 2309 2350 2609
Q 2094 2909 1697 2909
Q 1103 2909 884 2353
Q 769 2056 769 1575
Q 769 1009 998 714
Q 1228 419 1616 419
Q 2222 419 2469 966
Q 2606 1275 2606 1688
z
M 1659 3428
L 1659 3428
z
" transform="scale(0.015625)"/>
      <path id="Helvetica-63" d="M 1703 3444
Q 2269 3444 2623 3169
Q 2978 2894 3050 2222
L 2503 2222
Q 2453 2531 2275 2736
Q 2097 2941 1703 2941
Q 1166 2941 934 2416
Q 784 2075 784 1575
Q 784 1072 996 728
Q 1209 384 1666 384
Q 2016 384 2220 598
Q 2425 813 2503 1184
L 3050 1184
Q 2956 519 2581 211
Q 2206 -97 1622 -97
Q 966 -97 575 383
Q 184 863 184 1581
Q 184 2463 612 2953
Q 1041 3444 1703 3444
z
M 1616 3428
L 1616 3428
z
" transform="scale(0.015625)"/>
      <path id="Helvetica-61" d="M 844 891
Q 844 647 1022 506
Q 1200 366 1444 366
Q 1741 366 2019 503
Q 2488 731 2488 1250
L 2488 1703
Q 2384 1638 2221 1594
Q 2059 1550 1903 1531
L 1563 1488
Q 1256 1447 1103 1359
Q 844 1213 844 891
z
M 2206 2028
Q 2400 2053 2466 2191
Q 2503 2266 2503 2406
Q 2503 2694 2298 2823
Q 2094 2953 1713 2953
Q 1272 2953 1088 2716
Q 984 2584 953 2325
L 428 2325
Q 444 2944 830 3186
Q 1216 3428 1725 3428
Q 2316 3428 2684 3203
Q 3050 2978 3050 2503
L 3050 575
Q 3050 488 3086 434
Q 3122 381 3238 381
Q 3275 381 3322 386
Q 3369 391 3422 400
L 3422 -16
Q 3291 -53 3222 -62
Q 3153 -72 3034 -72
Q 2744 -72 2613 134
Q 2544 244 2516 444
Q 2344 219 2022 53
Q 1700 -113 1313 -113
Q 847 -113 551 170
Q 256 453 256 878
Q 256 1344 547 1600
Q 838 1856 1309 1916
L 2206 2028
z
M 1741 3428
L 1741 3428
z
" transform="scale(0.015625)"/>
     </defs>
     <use xlink:href="#Helvetica-6c"/>
     <use xlink:href="#Helvetica-6f" transform="translate(22.216797 0)"/>
     <use xlink:href="#Helvetica-67" transform="translate(77.832031 0)"/>
     <use xlink:href="#Helvetica-20" transform="translate(133.447266 0)"/>
     <use xlink:href="#Helvetica-73" transform="translate(161.230469 0)"/>
     <use xlink:href="#Helvetica-63" transform="translate(211.230469 0)"/>
     <use xlink:href="#Helvetica-61" transform="translate(261.230469 0)"/>
     <use xlink:href="#Helvetica-6c" transform="translate(316.845703 0)"/>
     <use xlink:href="#Helvetica-65" transform="translate(339.0625 0)"/>
    </g>
   </g>
  </g>
 </g>
 <defs>
  <clipPath id="p879ee31a35">
   <rect x="1.44" y="1.44" width="69.75" height="97.02"/>
  </clipPath>
 </defs>
</svg>
