<?xml version="1.0" encoding="utf-8" standalone="no"?>
<!DOCTYPE svg PUBLIC "-//W3C//DTD SVG 1.1//EN"
  "http://www.w3.org/Graphics/SVG/1.1/DTD/svg11.dtd">
<svg xmlns:xlink="http://www.w3.org/1999/xlink" width="75.42pt" height="66.636pt" viewBox="0 0 75.42 66.636" xmlns="http://www.w3.org/2000/svg" version="1.1">
 <metadata>
  <rdf:RDF xmlns:dc="http://purl.org/dc/elements/1.1/" xmlns:cc="http://creativecommons.org/ns#" xmlns:rdf="http://www.w3.org/1999/02/22-rdf-syntax-ns#">
   <cc:Work>
    <dc:type rdf:resource="http://purl.org/dc/dcmitype/StillImage"/>
    <dc:format>image/svg+xml</dc:format>
    <dc:creator>
     <cc:Agent>
      <dc:title>Matplotlib v3.10.8, https://matplotlib.org/</dc:title>
     </cc:Agent>
    </dc:creator>
   </cc:Work>
  </rdf:RDF>
 </metadata>
 <defs>
  <style type="text/css">*{stroke-linejoin: round; stroke-linecap: butt}</style>
 </defs>
 <g id="figure_1">
  <g id="patch_1">
   <path d="M 0 66.636
L 75.42 66.636
L 75.42 0
L 0 0
z
" style="fill: #ffffff"/>
  </g>
  <g id="axes_1">
   <g id="patch_2">
    <path d="M 1.44 65.196
L 73.98 65.196
L 73.98 1.44
L 1.44 1.44
z
" style="fill: #ffffff"/>
   </g>
   <g id="matplotlib.axis_1">
    <g id="xtick_1">
     <g id="line2d_1"/>
    </g>
    <g id="xtick_2">
     <g id="line2d_2"/>
    </g>
    <g id="xtick_3">
     <g id="line2d_3"/>
    </g>
    <g id="xtick_4">
     <g id="line2d_4"/>
    </g>
    <g id="xtick_5">
     <g id="line2d_5"/>
    </g>
    <g id="xtick_6">
     <g id="line2d_6"/>
    </g>
    <g id="xtick_7">
     <g id="line2d_7"/>
    </g>
    <g id="xtick_8">
     <g id="line2d_8"/>
    </g>
    <g id="xtick_9">
     <g id="line2d_9"/>
    </g>
    <g id="xtick_10">
     <g id="line2d_10"/>
    </g>
    <g id="xtick_11">
     <g id="line2d_11"/>
    </g>
    <g id="xtick_12">
     <g id="line2d_12"/>
    </g>
    <g id="xtick_13">
     <g id="line2d_13"/>
    </g>
    <g id="xtick_14">
     <g id="line2d_14"/>
    </g>
    <g id="xtick_15">
     <g id="line2d_15"/>
    </g>
    <g id="xtick_16">
     <g id="line2d_16"/>
    </g>
    <g id="xtick_17">
     <g id="line2d_17"/>
    </g>
    <g id="xtick_18">
     <g id="line2d_18"/>
    </g>
    <g id="xtick_19">
     <g id="line2d_19"/>
    </g>
    <g id="xtick_20">
     <g id="line2d_20"/>
    </g>
    <g id="xtick_21">
     <g id="line2d_21"/>
    </g>
    <g id="xtick_22">
     <g id="line2d_22"/>
    </g>
   </g>
   <g id="matplotlib.axis_2">
    <g id="ytick_1">
     <g id="line2d_23"/>
    </g>
    <g id="ytick_2">
     <g id="line2d_24"/>
    </g>
    <g id="ytick_3">
     <g id="line2d_25"/>
    </g>
    <g id="ytick_4">
     <g id="line2d_26"/>
    </g>
    <g id="ytick_5">
     <g id="line2d_27"/>
    </g>
    <g id="ytick_6">
     <g id="line2d_28"/>
    </g>
    <g id="ytick_7">
     <g id="line2d_29"/>
    </g>
    <g id="ytick_8">
     <g id="line2d_30"/>
    </g>
    <g id="ytick_9">
     <g id="line2d_31"/>
    </g>
    <g id="ytick_10">
     <g id="line2d_32"/>
    </g>
    <g id="ytick_11">
     <g id="line2d_33"/>
    </g>
    <g id="ytick_12">
     <g id="line2d_34"/>
    </g>
    <g id="ytick_13">
     <g id="line2d_35"/>
    </g>
    <g id="ytick_14">
     <g id="line2d_36"/>
    </g>
    <g id="ytick_15">
     <g id="line2d_37"/>
    </g>
    <g id="ytick_16">
     <g id="line2d_38"/>
    </g>
    <g id="ytick_17">
     <g id="line2d_39"/>
    </g>
   </g>
   <g id="line2d_40">
    <path d="M 1.44 50.565557
L 1.743515 50.247739
L 2.047029 49.929922
L 2.350544 49.612104
L 2.654059 49.294286
L 2.957573 48.976469
L 3.261088 48.658651
L 3.564603 48.340833
L 3.868117 48.023015
L 4.171632 47.705198
L 4.475146 47.38738
L 4.778661 47.069562
L 5.082176 46.751745
L 5.38569 46.433927
L 5.689205 46.116109
L 5.99272 45.798292
L 6.296234 45.480474
L 6.599749 45.162656
L 6.903264 44.844838
L 7.206778 44.527021
L 7.510293 44.209203
L 7.813808 43.891385
L 8.117322 43.573568
L 8.420837 43.25575
L 8.724351 42.937932
L 9.027866 42.620115
L 9.331381 42.302297
L 9.634895 41.984479
L 9.93841 41.666661
L 10.241925 41.348844
L 10.545439 41.031026
L 10.848954 40.713208
L 11.152469 40.395391
L 11.455983 40.077573
L 11.759498 39.759755
L 12.063013 39.441938
L 12.366527 39.12412
L 12.670042 38.806302
L 12.973556 38.488484
L 13.277071 38.170667
L 13.580586 37.852849
L 13.8841 37.535031
L 14.187615 37.217214
L 14.49113 36.899396
L 14.794644 36.581578
L 15.098159 36.263761
L 15.401674 35.945943
L 15.705188 35.628125
L 16.008703 35.310307
L 16.312218 34.99249
L 16.615732 34.674672
L 16.919247 34.356854
L 17.222762 34.039037
L 17.526276 33.721219
L 17.829791 33.403401
L 18.133305 33.085584
L 18.43682 32.767766
L 18.740335 32.449948
L 19.043849 32.132131
L 19.347364 31.814313
L 19.650879 31.496495
L 19.954393 31.178677
L 20.257908 30.86086
L 20.561423 30.543042
L 20.864937 30.225224
L 21.168452 29.907407
L 21.471967 29.589589
L 21.775481 29.271771
L 22.078996 28.953954
L 22.38251 28.636136
L 22.686025 28.318318
L 22.98954 28.0005
L 23.293054 27.682683
L 23.596569 27.364865
L 23.900084 27.047047
L 24.203598 26.72923
L 24.507113 26.411412
L 24.810628 26.093594
L 25.114142 25.775777
L 25.417657 25.457959
L 25.721172 25.140141
L 26.024686 24.822323
L 26.328201 24.504506
L 26.631715 24.186688
L 26.93523 23.86887
L 27.238745 23.551053
L 27.542259 23.233235
L 27.845774 22.915417
L 28.149289 22.5976
L 28.452803 22.279782
L 28.756318 21.961964
L 29.059833 21.644146
L 29.363347 21.326329
L 29.666862 21.008511
L 29.970377 20.690693
L 30.273891 20.372876
L 30.577406 20.055058
L 30.880921 19.73724
L 31.184435 19.419423
L 31.48795 19.101605
L 31.791464 18.783787
L 32.094979 18.46597
L 32.398494 18.148152
L 32.702008 17.830334
L 33.005523 17.512516
L 33.309038 17.194699
L 33.612552 16.876881
L 33.916067 16.559063
L 34.219582 16.241246
L 34.523096 15.923428
L 34.826611 15.60561
L 35.130126 15.287793
L 35.43364 14.969975
L 35.737155 14.652157
L 36.040669 14.334339
L 36.344184 14.016522
L 36.647699 13.698704
L 36.951213 13.380886
L 37.254728 13.063069
L 37.558243 12.745251
L 37.861757 12.427433
L 38.165272 12.109616
L 38.468787 11.791798
L 38.772301 11.47398
L 39.075816 11.156162
L 39.379331 10.838345
" clip-path="url(#pb95f9e5162)" style="fill: none; stroke: #006395; stroke-width: 1.45; stroke-linecap: square"/>
   </g>
   <g id="line2d_41">
    <path d="M 39.682845 10.670782
L 39.98636 10.670782
L 40.289874 10.670782
L 40.593389 10.670782
L 40.896904 10.670782
L 41.200418 10.670782
L 41.503933 10.670782
L 41.807448 10.670782
L 42.110962 10.670782
L 42.414477 10.670782
L 42.717992 10.670782
L 43.021506 10.670782
L 43.325021 10.670782
L 43.628536 10.670782
L 43.93205 10.670782
L 44.235565 10.670782
L 44.539079 10.670782
L 44.842594 10.670782
L 45.146109 10.670782
L 45.449623 10.670782
L 45.753138 10.670782
L 46.056653 10.670782
L 46.360167 10.670782
L 46.663682 10.670782
L 46.967197 10.670782
L 47.270711 10.670782
L 47.574226 10.670782
L 47.877741 10.670782
L 48.181255 10.670782
L 48.48477 10.670782
L 48.788285 10.670782
L 49.091799 10.670782
L 49.395314 10.670782
L 49.698828 10.670782
L 50.002343 10.670782
L 50.305858 10.670782
L 50.609372 10.670782
L 50.912887 10.670782
L 51.216402 10.670782
L 51.519916 10.670782
L 51.823431 10.670782
L 52.126946 10.670782
L 52.43046 10.670782
L 52.733975 10.670782
L 53.03749 10.670782
L 53.341004 10.670782
L 53.644519 10.670782
L 53.948033 10.670782
L 54.251548 10.670782
L 54.555063 10.670782
L 54.858577 10.670782
L 55.162092 10.670782
L 55.465607 10.670782
L 55.769121 10.670782
L 56.072636 10.670782
L 56.376151 10.670782
L 56.679665 10.670782
L 56.98318 10.670782
L 57.286695 10.670782
L 57.590209 10.670782
L 57.893724 10.670782
L 58.197238 10.670782
L 58.500753 10.670782
L 58.804268 10.670782
L 59.107782 10.670782
L 59.411297 10.670782
L 59.714812 10.670782
L 60.018326 10.670782
L 60.321841 10.670782
L 60.625356 10.670782
L 60.92887 10.670782
L 61.232385 10.670782
L 61.5359 10.670782
L 61.839414 10.670782
L 62.142929 10.670782
L 62.446444 10.670782
L 62.749958 10.670782
L 63.053473 10.670782
L 63.356987 10.670782
L 63.660502 10.670782
L 63.964017 10.670782
L 64.267531 10.670782
L 64.571046 10.670782
L 64.874561 10.670782
L 65.178075 10.670782
L 65.48159 10.670782
L 65.785105 10.670782
L 66.088619 10.670782
L 66.392134 10.670782
L 66.695649 10.670782
L 66.999163 10.670782
L 67.302678 10.670782
L 67.606192 10.670782
L 67.909707 10.670782
L 68.213222 10.670782
L 68.516736 10.670782
L 68.820251 10.670782
L 69.123766 10.670782
L 69.42728 10.670782
L 69.730795 10.670782
L 70.03431 10.670782
L 70.337824 10.670782
L 70.641339 10.670782
L 70.944854 10.670782
L 71.248368 10.670782
L 71.551883 10.670782
L 71.855397 10.670782
L 72.158912 10.670782
L 72.462427 10.670782
L 72.765941 10.670782
L 73.069456 10.670782
L 73.372971 10.670782
L 73.676485 10.670782
L 73.98 10.670782
" clip-path="url(#pb95f9e5162)" style="fill: none; stroke: #e67817; stroke-width: 1.45; stroke-linecap: square"/>
   </g>
   <g id="line2d_42">
    <path d="M 39.539353 65.196
L 39.539353 1.44
" clip-path="url(#pb95f9e5162)" style="fill: none; stroke-dasharray: 2.035,0.88; stroke-dashoffset: 0; stroke: #cccccc; stroke-width: 0.55"/>
   </g>
   <g id="patch_3">
    <path d="M 1.44 65.196
L 1.44 1.44
" style="fill: none; stroke: #cccccc; stroke-width: 0.55; stroke-linejoin: miter; stroke-linecap: square"/>
   </g>
   <g id="patch_4">
    <path d="M 1.44 65.196
L 73.98 65.196
" style="fill: none; stroke: #cccccc; stroke-width: 0.55; stroke-linejoin: miter; stroke-linecap: square"/>
   </g>
   <g id="patch_5">
    <path d="M 23.633049 28.124982
Q 37.709632 19.901778 51.206988 12.016946
" style="fill: none; stroke: #777777; stroke-width: 0.6; stroke-linecap: round"/>
    <path d="M 48.752516 12.176848
L 51.206988 12.016946
L 49.862227 14.076464
" style="fill: none; stroke: #777777; stroke-width: 0.6; stroke-linecap: round"/>
   </g>
   <g id="line2d_43">
    <defs>
     <path id="m3a64f1ad0f" d="M 0 1.7
C 0.450845 1.7 0.883286 1.520877 1.202082 1.202082
C 1.520877 0.883286 1.7 0.450845 1.7 0
C 1.7 -0.450845 1.520877 -0.883286 1.202082 -1.202082
C 0.883286 -1.520877 0.450845 -1.7 0 -1.7
C -0.450845 -1.7 -0.883286 -1.520877 -1.202082 -1.202082
C -1.520877 -0.883286 -1.7 -0.450845 -1.7 0
C -1.7 0.450845 -1.520877 0.883286 -1.202082 1.202082
C -0.883286 1.520877 -0.450845 1.7 0 1.7
z
" style="stroke: #006395"/>
    </defs>
    <g clip-path="url(#pb95f9e5162)">
     <use xlink:href="#m3a64f1ad0f" x="21.908632" y="29.132345" style="fill: #006395; stroke: #006395"/>
    </g>
   </g>
   <g id="line2d_44">
    <defs>
     <path id="m589f3f28cf" d="M 0 1.7
C 0.450845 1.7 0.883286 1.520877 1.202082 1.202082
C 1.520877 0.883286 1.7 0.450845 1.7 0
C 1.7 -0.450845 1.520877 -0.883286 1.202082 -1.202082
C 0.883286 -1.520877 0.450845 -1.7 0 -1.7
C -0.450845 -1.7 -0.883286 -1.520877 -1.202082 -1.202082
C -1.520877 -0.883286 -1.7 -0.450845 -1.7 0
C -1.7 0.450845 -1.520877 0.883286 -1.202082 1.202082
C -0.883286 1.520877 -0.450845 1.7 0 1.7
z
" style="stroke: #e67817"/>
    </defs>
    <g clip-path="url(#pb95f9e5162)">
     <use xlink:href="#m589f3f28cf" x="53.511368" y="10.670782" style="fill: #e67817; stroke: #e67817"/>
    </g>
   </g>
   <g id="text_1">
    <g id="patch_6">
     <path d="M 16.872695 18.732345
L 25.908632 18.732345
Q 26.508632 18.732345 26.508632 18.132345
L 26.508632 13.503439
Q 26.508632 12.903439 25.908632 12.903439
L 16.872695 12.903439
Q 16.272695 12.903439 16.272695 13.503439
L 16.272695 18.132345
Q 16.272695 18.732345 16.872695 18.732345
z
" style="fill: #ffffff; opacity: 0.92"/>
    </g>
    <!-- B=1 -->
    <g style="fill: #006395" transform="translate(16.872695 17.090158) scale(0.05 -0.05)">
     <defs>
      <path id="Helvetica-42" d="M 2213 2650
Q 2606 2650 2825 2759
Q 3169 2931 3169 3378
Q 3169 3828 2803 3984
Q 2597 4072 2191 4072
L 1081 4072
L 1081 2650
L 2213 2650
z
M 2422 531
Q 2994 531 3238 863
Q 3391 1072 3391 1369
Q 3391 1869 2944 2050
Q 2706 2147 2316 2147
L 1081 2147
L 1081 531
L 2422 531
z
M 472 4591
L 2444 4591
Q 3250 4591 3591 4109
Q 3791 3825 3791 3453
Q 3791 3019 3544 2741
Q 3416 2594 3175 2472
Q 3528 2338 3703 2169
Q 4013 1869 4013 1341
Q 4013 897 3734 538
Q 3319 0 2413 0
L 472 0
L 472 4591
z
" transform="scale(0.015625)"/>
      <path id="Helvetica-3d" d="M 3547 2569
L 3547 2044
L 288 2044
L 288 2569
L 3547 2569
z
M 3547 1228
L 3547 694
L 288 694
L 288 1228
L 3547 1228
z
" transform="scale(0.015625)"/>
      <path id="Helvetica-31" d="M 613 3169
L 613 3600
Q 1222 3659 1462 3798
Q 1703 3938 1822 4456
L 2266 4456
L 2266 0
L 1666 0
L 1666 3169
L 613 3169
z
" transform="scale(0.015625)"/>
     </defs>
     <use xlink:href="#Helvetica-42"/>
     <use xlink:href="#Helvetica-3d" transform="translate(66.699219 0)"/>
     <use xlink:href="#Helvetica-31" transform="translate(125.097656 0)"/>
    </g>
   </g>
   <g id="text_2">
    <g id="patch_7">
     <path d="M 47.603165 29.899688
L 59.419571 29.899688
Q 60.019571 29.899688 60.019571 29.299688
L 60.019571 24.670782
Q 60.019571 24.070782 59.419571 24.070782
L 47.603165 24.070782
Q 47.003165 24.070782 47.003165 24.670782
L 47.003165 29.299688
Q 47.003165 29.899688 47.603165 29.899688
z
" style="fill: #ffffff; opacity: 0.92"/>
    </g>
    <!-- B=32 -->
    <g style="fill: #e67817" transform="translate(47.603165 28.257501) scale(0.05 -0.05)">
     <defs>
      <path id="Helvetica-33" d="M 1663 -122
Q 869 -122 511 314
Q 153 750 153 1375
L 741 1375
Q 778 941 903 744
Q 1122 391 1694 391
Q 2138 391 2406 628
Q 2675 866 2675 1241
Q 2675 1703 2392 1887
Q 2109 2072 1606 2072
Q 1550 2072 1492 2070
Q 1434 2069 1375 2066
L 1375 2563
Q 1463 2553 1522 2550
Q 1581 2547 1650 2547
Q 1966 2547 2169 2647
Q 2525 2822 2525 3272
Q 2525 3606 2287 3787
Q 2050 3969 1734 3969
Q 1172 3969 956 3594
Q 838 3388 822 3006
L 266 3006
Q 266 3506 466 3856
Q 809 4481 1675 4481
Q 2359 4481 2734 4176
Q 3109 3872 3109 3294
Q 3109 2881 2888 2625
Q 2750 2466 2531 2375
Q 2884 2278 3082 2001
Q 3281 1725 3281 1325
Q 3281 684 2859 281
Q 2438 -122 1663 -122
z
" transform="scale(0.015625)"/>
      <path id="Helvetica-32" d="M 200 0
Q 231 578 439 1006
Q 647 1434 1250 1784
L 1850 2131
Q 2253 2366 2416 2531
Q 2672 2791 2672 3125
Q 2672 3516 2437 3745
Q 2203 3975 1813 3975
Q 1234 3975 1013 3538
Q 894 3303 881 2888
L 309 2888
Q 319 3472 525 3841
Q 891 4491 1816 4491
Q 2584 4491 2939 4075
Q 3294 3659 3294 3150
Q 3294 2613 2916 2231
Q 2697 2009 2131 1694
L 1703 1456
Q 1397 1288 1222 1134
Q 909 863 828 531
L 3272 531
L 3272 0
L 200 0
z
" transform="scale(0.015625)"/>
     </defs>
     <use xlink:href="#Helvetica-42"/>
     <use xlink:href="#Helvetica-3d" transform="translate(66.699219 0)"/>
     <use xlink:href="#Helvetica-33" transform="translate(125.097656 0)"/>
     <use xlink:href="#Helvetica-32" transform="translate(180.712891 0)"/>
    </g>
   </g>
  </g>
 </g>
 <defs>
  <clipPath id="pb95f9e5162">
   <rect x="1.44" y="1.44" width="72.54" height="63.756"/>
  </clipPath>
 </defs>
</svg>
