<?xml version="1.0" encoding="utf-8" standalone="no"?>
<!DOCTYPE svg PUBLIC "-//W3C//DTD SVG 1.1//EN"
  "http://www.w3.org/Graphics/SVG/1.1/DTD/svg11.dtd">
<svg xmlns:xlink="http://www.w3.org/1999/xlink" width="72.63pt" height="99.9pt" viewBox="0 0 72.63 99.9" xmlns="http://www.w3.org/2000/svg" version="1.1">
 <metadata>
  <rdf:RDF xmlns:dc="http://purl.org/dc/elements/1.1/" xmlns:cc="http://creativecommons.org/ns#" xmlns:rdf="http://www.w3.org/1999/02/22-rdf-syntax-ns#">
   <cc:Work>
    <dc:type rdf:resource="http://purl.org/dc/dcmitype/StillImage"/>
    <dc:format>image/svg+xml</dc:format>
    <dc:creator>
     <cc:Agent>
      <dc:title>Matplotlib v3.10.8, https://matplotlib.org/</dc:title>
     </cc:Agent>
    </dc:creator>
   </cc:Work>
  </rdf:RDF>
 </metadata>
 <defs>
  <style type="text/css">*{stroke-linejoin: round; stroke-linecap: butt}</style>
 </defs>
 <g id="figure_1">
  <g id="patch_1">
   <path d="M 0 99.9
L 72.63 99.9
L 72.63 0
L 0 0
z
" style="fill: #ffffff"/>
  </g>
  <g id="axes_1">
   <g id="patch_2">
    <path d="M 1.44 98.46
L 71.19 98.46
L 71.19 1.44
L 1.44 1.44
z
" style="fill: #ffffff"/>
   </g>
   <g id="patch_3">
    <path d="M 1.44 46.5543
L 62.212007 46.5543
L 62.212007 14.5377
L 1.44 14.5377
z
" clip-path="url(#p879ee31a35)" style="fill: #7e317b; opacity: 0.92"/>
   </g>
   <g id="patch_4">
    <path d="M 1.44 95.0643
L 15.79575 95.0643
L 15.79575 63.0477
L 1.44 63.0477
z
" clip-path="url(#p879ee31a35)" style="fill: #7e317b; opacity: 0.92"/>
   </g>
   <g id="matplotlib.axis_1">
    <g id="xtick_1">
     <g id="line2d_1"/>
    </g>
    <g id="xtick_2">
     <g id="line2d_2"/>
    </g>
    <g id="xtick_3">
     <g id="line2d_3"/>
    </g>
    <g id="xtick_4">
     <g id="line2d_4"/>
    </g>
    <g id="xtick_5">
     <g id="line2d_5"/>
    </g>
    <g id="xtick_6">
     <g id="line2d_6"/>
    </g>
    <g id="xtick_7">
     <g id="line2d_7"/>
    </g>
    <g id="xtick_8">
     <g id="line2d_8"/>
    </g>
    <g id="xtick_9">
     <g id="line2d_9"/>
    </g>
    <g id="xtick_10">
     <g id="line2d_10"/>
    </g>
    <g id="xtick_11">
     <g id="line2d_11"/>
    </g>
    <g id="xtick_12">
     <g id="line2d_12"/>
    </g>
    <g id="xtick_13">
     <g id="line2d_13"/>
    </g>
    <g id="xtick_14">
     <g id="line2d_14"/>
    </g>
    <g id="xtick_15">
     <g id="line2d_15"/>
    </g>
    <g id="xtick_16">
     <g id="line2d_16"/>
    </g>
    <g id="xtick_17">
     <g id="line2d_17"/>
    </g>
    <g id="xtick_18">
     <g id="line2d_18"/>
    </g>
    <g id="xtick_19">
     <g id="line2d_19"/>
    </g>
   </g>
   <g id="matplotlib.axis_2"/>
   <g id="patch_5">
    <path d="M 1.44 98.46
L 71.19 98.46
" style="fill: none; stroke: #cccccc; stroke-width: 0.55; stroke-linejoin: miter; stroke-linecap: square"/>
   </g>
   <g id="text_1">
    <!-- raw 200 MB -->
    <g style="fill: #ffffff" transform="translate(33.456549 31.869156) scale(0.052 -0.052)">
     <defs>
      <path id="Helvetica-72" d="M 428 3347
L 963 3347
L 963 2769
Q 1028 2938 1284 3180
Q 1541 3422 1875 3422
Q 1891 3422 1928 3419
Q 1966 3416 2056 3406
L 2056 2813
Q 2006 2822 1964 2825
Q 1922 2828 1872 2828
Q 1447 2828 1219 2554
Q 991 2281 991 1925
L 991 0
L 428 0
L 428 3347
z
" transform="scale(0.015625)"/>
      <path id="Helvetica-61" d="M 844 891
Q 844 647 1022 506
Q 1200 366 1444 366
Q 1741 366 2019 503
Q 2488 731 2488 1250
L 2488 1703
Q 2384 1638 2221 1594
Q 2059 1550 1903 1531
L 1563 1488
Q 1256 1447 1103 1359
Q 844 1213 844 891
z
M 2206 2028
Q 2400 2053 2466 2191
Q 2503 2266 2503 2406
Q 2503 2694 2298 2823
Q 2094 2953 1713 2953
Q 1272 2953 1088 2716
Q 984 2584 953 2325
L 428 2325
Q 444 2944 830 3186
Q 1216 3428 1725 3428
Q 2316 3428 2684 3203
Q 3050 2978 3050 2503
L 3050 575
Q 3050 488 3086 434
Q 3122 381 3238 381
Q 3275 381 3322 386
Q 3369 391 3422 400
L 3422 -16
Q 3291 -53 3222 -62
Q 3153 -72 3034 -72
Q 2744 -72 2613 134
Q 2544 244 2516 444
Q 2344 219 2022 53
Q 1700 -113 1313 -113
Q 847 -113 551 170
Q 256 453 256 878
Q 256 1344 547 1600
Q 838 1856 1309 1916
L 2206 2028
z
M 1741 3428
L 1741 3428
z
" transform="scale(0.015625)"/>
      <path id="Helvetica-77" d="M 672 3347
L 1316 709
L 1969 3347
L 2600 3347
L 3256 725
L 3941 3347
L 4503 3347
L 3531 0
L 2947 0
L 2266 2591
L 1606 0
L 1022 0
L 56 3347
L 672 3347
z
" transform="scale(0.015625)"/>
      <path id="Helvetica-20" transform="scale(0.015625)"/>
      <path id="Helvetica-32" d="M 200 0
Q 231 578 439 1006
Q 647 1434 1250 1784
L 1850 2131
Q 2253 2366 2416 2531
Q 2672 2791 2672 3125
Q 2672 3516 2437 3745
Q 2203 3975 1813 3975
Q 1234 3975 1013 3538
Q 894 3303 881 2888
L 309 2888
Q 319 3472 525 3841
Q 891 4491 1816 4491
Q 2584 4491 2939 4075
Q 3294 3659 3294 3150
Q 3294 2613 2916 2231
Q 2697 2009 2131 1694
L 1703 1456
Q 1397 1288 1222 1134
Q 909 863 828 531
L 3272 531
L 3272 0
L 200 0
z
" transform="scale(0.015625)"/>
      <path id="Helvetica-30" d="M 1731 4475
Q 2600 4475 2988 3759
Q 3288 3206 3288 2244
Q 3288 1331 3016 734
Q 2622 -122 1728 -122
Q 922 -122 528 578
Q 200 1163 200 2147
Q 200 2909 397 3456
Q 766 4475 1731 4475
z
M 1725 391
Q 2163 391 2422 778
Q 2681 1166 2681 2222
Q 2681 2984 2493 3476
Q 2306 3969 1766 3969
Q 1269 3969 1039 3501
Q 809 3034 809 2125
Q 809 1441 956 1025
Q 1181 391 1725 391
z
" transform="scale(0.015625)"/>
      <path id="Helvetica-4d" d="M 472 4591
L 1363 4591
L 2681 709
L 3991 4591
L 4872 4591
L 4872 0
L 4281 0
L 4281 2709
Q 4281 2850 4287 3175
Q 4294 3500 4294 3872
L 2984 0
L 2369 0
L 1050 3872
L 1050 3731
Q 1050 3563 1058 3217
Q 1066 2872 1066 2709
L 1066 0
L 472 0
L 472 4591
z
" transform="scale(0.015625)"/>
      <path id="Helvetica-42" d="M 2213 2650
Q 2606 2650 2825 2759
Q 3169 2931 3169 3378
Q 3169 3828 2803 3984
Q 2597 4072 2191 4072
L 1081 4072
L 1081 2650
L 2213 2650
z
M 2422 531
Q 2994 531 3238 863
Q 3391 1072 3391 1369
Q 3391 1869 2944 2050
Q 2706 2147 2316 2147
L 1081 2147
L 1081 531
L 2422 531
z
M 472 4591
L 2444 4591
Q 3250 4591 3591 4109
Q 3791 3825 3791 3453
Q 3791 3019 3544 2741
Q 3416 2594 3175 2472
Q 3528 2338 3703 2169
Q 4013 1869 4013 1341
Q 4013 897 3734 538
Q 3319 0 2413 0
L 472 0
L 472 4591
z
" transform="scale(0.015625)"/>
     </defs>
     <use xlink:href="#Helvetica-72"/>
     <use xlink:href="#Helvetica-61" transform="translate(33.300781 0)"/>
     <use xlink:href="#Helvetica-77" transform="translate(88.916016 0)"/>
     <use xlink:href="#Helvetica-20" transform="translate(161.132812 0)"/>
     <use xlink:href="#Helvetica-32" transform="translate(188.916016 0)"/>
     <use xlink:href="#Helvetica-30" transform="translate(244.53125 0)"/>
     <use xlink:href="#Helvetica-30" transform="translate(300.146484 0)"/>
     <use xlink:href="#Helvetica-20" transform="translate(355.761719 0)"/>
     <use xlink:href="#Helvetica-4d" transform="translate(383.544922 0)"/>
     <use xlink:href="#Helvetica-42" transform="translate(466.845703 0)"/>
    </g>
   </g>
   <g id="text_2">
    <!-- update 2.5 MB -->
    <g style="fill: #333333" transform="translate(16.962106 80.38525) scale(0.052 -0.052)">
     <defs>
      <path id="Helvetica-75" d="M 975 3347
L 975 1125
Q 975 869 1056 706
Q 1206 406 1616 406
Q 2203 406 2416 931
Q 2531 1213 2531 1703
L 2531 3347
L 3094 3347
L 3094 0
L 2563 0
L 2569 494
Q 2459 303 2297 172
Q 1975 -91 1516 -91
Q 800 -91 541 388
Q 400 644 400 1072
L 400 3347
L 975 3347
z
M 1747 3428
L 1747 3428
z
" transform="scale(0.015625)"/>
      <path id="Helvetica-70" d="M 1825 378
Q 2219 378 2480 708
Q 2741 1038 2741 1694
Q 2741 2094 2625 2381
Q 2406 2934 1825 2934
Q 1241 2934 1025 2350
Q 909 2038 909 1556
Q 909 1169 1025 897
Q 1244 378 1825 378
z
M 369 3331
L 916 3331
L 916 2888
Q 1084 3116 1284 3241
Q 1569 3428 1953 3428
Q 2522 3428 2919 2992
Q 3316 2556 3316 1747
Q 3316 653 2744 184
Q 2381 -113 1900 -113
Q 1522 -113 1266 53
Q 1116 147 931 375
L 931 -1334
L 369 -1334
L 369 3331
z
" transform="scale(0.015625)"/>
      <path id="Helvetica-64" d="M 769 1634
Q 769 1097 997 734
Q 1225 372 1728 372
Q 2119 372 2370 708
Q 2622 1044 2622 1672
Q 2622 2306 2362 2611
Q 2103 2916 1722 2916
Q 1297 2916 1033 2591
Q 769 2266 769 1634
z
M 1616 3406
Q 2000 3406 2259 3244
Q 2409 3150 2600 2916
L 2600 4606
L 3141 4606
L 3141 0
L 2634 0
L 2634 466
Q 2438 156 2169 18
Q 1900 -119 1553 -119
Q 994 -119 584 351
Q 175 822 175 1603
Q 175 2334 548 2870
Q 922 3406 1616 3406
z
" transform="scale(0.015625)"/>
      <path id="Helvetica-74" d="M 525 4281
L 1094 4281
L 1094 3347
L 1628 3347
L 1628 2888
L 1094 2888
L 1094 703
Q 1094 528 1213 469
Q 1278 434 1431 434
Q 1472 434 1519 436
Q 1566 438 1628 444
L 1628 0
Q 1531 -28 1426 -40
Q 1322 -53 1200 -53
Q 806 -53 665 148
Q 525 350 525 672
L 525 2888
L 72 2888
L 72 3347
L 525 3347
L 525 4281
z
" transform="scale(0.015625)"/>
      <path id="Helvetica-65" d="M 1806 3422
Q 2163 3422 2497 3255
Q 2831 3088 3006 2822
Q 3175 2569 3231 2231
Q 3281 2000 3281 1494
L 828 1494
Q 844 984 1069 676
Q 1294 369 1766 369
Q 2206 369 2469 659
Q 2619 828 2681 1050
L 3234 1050
Q 3213 866 3089 639
Q 2966 413 2813 269
Q 2556 19 2178 -69
Q 1975 -119 1719 -119
Q 1094 -119 659 336
Q 225 791 225 1609
Q 225 2416 662 2919
Q 1100 3422 1806 3422
z
M 2703 1941
Q 2669 2306 2544 2525
Q 2313 2931 1772 2931
Q 1384 2931 1121 2651
Q 859 2372 844 1941
L 2703 1941
z
M 1753 3428
L 1753 3428
z
" transform="scale(0.015625)"/>
      <path id="Helvetica-2e" d="M 547 681
L 1200 681
L 1200 0
L 547 0
L 547 681
z
" transform="scale(0.015625)"/>
      <path id="Helvetica-35" d="M 791 1141
Q 847 659 1238 475
Q 1438 381 1700 381
Q 2200 381 2440 700
Q 2681 1019 2681 1406
Q 2681 1875 2395 2131
Q 2109 2388 1709 2388
Q 1419 2388 1211 2275
Q 1003 2163 856 1963
L 369 1991
L 709 4400
L 3034 4400
L 3034 3856
L 1131 3856
L 941 2613
Q 1097 2731 1238 2791
Q 1488 2894 1816 2894
Q 2431 2894 2859 2497
Q 3288 2100 3288 1491
Q 3288 856 2895 371
Q 2503 -113 1644 -113
Q 1097 -113 676 195
Q 256 503 206 1141
L 791 1141
z
" transform="scale(0.015625)"/>
     </defs>
     <use xlink:href="#Helvetica-75"/>
     <use xlink:href="#Helvetica-70" transform="translate(55.615234 0)"/>
     <use xlink:href="#Helvetica-64" transform="translate(111.230469 0)"/>
     <use xlink:href="#Helvetica-61" transform="translate(166.845703 0)"/>
     <use xlink:href="#Helvetica-74" transform="translate(222.460938 0)"/>
     <use xlink:href="#Helvetica-65" transform="translate(250.244141 0)"/>
     <use xlink:href="#Helvetica-20" transform="translate(305.859375 0)"/>
     <use xlink:href="#Helvetica-32" transform="translate(333.642578 0)"/>
     <use xlink:href="#Helvetica-2e" transform="translate(389.257812 0)"/>
     <use xlink:href="#Helvetica-35" transform="translate(417.041016 0)"/>
     <use xlink:href="#Helvetica-20" transform="translate(472.65625 0)"/>
     <use xlink:href="#Helvetica-4d" transform="translate(500.439453 0)"/>
     <use xlink:href="#Helvetica-42" transform="translate(583.740234 0)"/>
    </g>
   </g>
   <g id="text_3">
    <!-- 80x -->
    <g style="fill: #333333" transform="translate(58.944062 16.295066) scale(0.05 -0.05)">
     <defs>
      <path id="Helvetica-38" d="M 1741 2600
Q 2113 2600 2322 2808
Q 2531 3016 2531 3303
Q 2531 3553 2331 3762
Q 2131 3972 1722 3972
Q 1316 3972 1134 3762
Q 953 3553 953 3272
Q 953 2956 1187 2778
Q 1422 2600 1741 2600
z
M 1775 384
Q 2166 384 2423 595
Q 2681 806 2681 1225
Q 2681 1659 2415 1884
Q 2150 2109 1734 2109
Q 1331 2109 1076 1879
Q 822 1650 822 1244
Q 822 894 1055 639
Q 1288 384 1775 384
z
M 975 2384
Q 741 2484 609 2619
Q 363 2869 363 3269
Q 363 3769 725 4128
Q 1088 4488 1753 4488
Q 2397 4488 2762 4148
Q 3128 3809 3128 3356
Q 3128 2938 2916 2678
Q 2797 2531 2547 2391
Q 2825 2263 2984 2097
Q 3281 1784 3281 1284
Q 3281 694 2884 283
Q 2488 -128 1763 -128
Q 1109 -128 657 226
Q 206 581 206 1256
Q 206 1653 400 1942
Q 594 2231 975 2384
z
" transform="scale(0.015625)"/>
      <path id="Helvetica-78" d="M 94 3347
L 822 3347
L 1591 2169
L 2369 3347
L 3053 3331
L 1925 1716
L 3103 0
L 2384 0
L 1553 1256
L 747 0
L 34 0
L 1213 1716
L 94 3347
z
" transform="scale(0.015625)"/>
     </defs>
     <use xlink:href="#Helvetica-38"/>
     <use xlink:href="#Helvetica-30" transform="translate(55.615234 0)"/>
     <use xlink:href="#Helvetica-78" transform="translate(111.230469 0)"/>
    </g>
   </g>
  </g>
 </g>
 <defs>
  <clipPath id="p879ee31a35">
   <rect x="1.44" y="1.44" width="69.75" height="97.02"/>
  </clipPath>
 </defs>
</svg>
