<?xml version="1.0" encoding="UTF-8" standalone="no"?>
<!-- Created with Inkscape (http://www.inkscape.org/) -->

<svg
   version="1.1"
   id="svg1"
   width="412.45999"
   height="326.47867"
   viewBox="0 0 412.45999 326.47867"
   xmlns="http://www.w3.org/2000/svg"
   xmlns:svg="http://www.w3.org/2000/svg">
  <defs
     id="defs1" />
  <g
     id="g1">
    <path
       id="path1"
       d="M -99.62769,-99.62769 H 99.62768 V 99.62768 H -99.62769 Z"
       style="fill:#fde9fd;fill-opacity:1;fill-rule:nonzero;stroke:#7e317b;stroke-width:0.74721;stroke-linecap:butt;stroke-linejoin:miter;stroke-miterlimit:10;stroke-dasharray:none;stroke-opacity:1"
       transform="matrix(1.07104,0,0,-1.07104,252.397,135.36872)" />
    <path
       id="path2"
       d="m -84.0007,-100.00127 v -19.84266"
       style="fill:none;stroke:#4c4c4c;stroke-width:1.29515;stroke-linecap:round;stroke-linejoin:miter;stroke-miterlimit:10;stroke-dasharray:none;stroke-opacity:1"
       transform="matrix(1.07104,0,0,-1.07104,252.397,135.36872)" />
    <path
       id="path3"
       d="m -34.00005,-100.00127 v -19.84266"
       style="fill:none;stroke:#4c4c4c;stroke-width:1.29515;stroke-linecap:round;stroke-linejoin:miter;stroke-miterlimit:10;stroke-dasharray:none;stroke-opacity:1"
       transform="matrix(1.07104,0,0,-1.07104,252.397,135.36872)" />
    <path
       id="path4"
       d="m 16.00058,-100.00127 v -19.84266"
       style="fill:none;stroke:#4c4c4c;stroke-width:1.29515;stroke-linecap:round;stroke-linejoin:miter;stroke-miterlimit:10;stroke-dasharray:none;stroke-opacity:1"
       transform="matrix(1.07104,0,0,-1.07104,252.397,135.36872)" />
    <path
       id="path5"
       d="m 90.00055,-100.00127 v -19.84266"
       style="fill:none;stroke:#4c4c4c;stroke-width:1.29515;stroke-linecap:round;stroke-linejoin:miter;stroke-miterlimit:10;stroke-dasharray:none;stroke-opacity:1"
       transform="matrix(1.07104,0,0,-1.07104,252.397,135.36872)" />
    <path
       id="path6"
       d="m -94.95975,-168.6615 h 21.91809 v 31.88086 h -21.91809 z"
       style="fill:#f4fee4;fill-opacity:1;fill-rule:nonzero;stroke:#000000;stroke-width:1.24535;stroke-linecap:butt;stroke-linejoin:miter;stroke-miterlimit:10;stroke-dasharray:none;stroke-opacity:1"
       transform="matrix(1.07104,0,0,-1.07104,252.397,135.36872)" />
    <path
       id="path7"
       d="m -95.5824,-142.7831 h 23.16341"
       style="fill:none;stroke:#000000;stroke-width:1.24535;stroke-linecap:butt;stroke-linejoin:miter;stroke-miterlimit:10;stroke-dasharray:none;stroke-opacity:1"
       transform="matrix(1.07104,0,0,-1.07104,252.397,135.36872)" />
    <path
       id="path8"
       d="m -95.5824,-149.40825 h 23.16341"
       style="fill:none;stroke:#000000;stroke-width:1.24535;stroke-linecap:butt;stroke-linejoin:miter;stroke-miterlimit:10;stroke-dasharray:none;stroke-opacity:1"
       transform="matrix(1.07104,0,0,-1.07104,252.397,135.36872)" />
    <path
       id="path9"
       d="m -95.5824,-156.0339 h 23.16341"
       style="fill:none;stroke:#000000;stroke-width:1.24535;stroke-linecap:butt;stroke-linejoin:miter;stroke-miterlimit:10;stroke-dasharray:none;stroke-opacity:1"
       transform="matrix(1.07104,0,0,-1.07104,252.397,135.36872)" />
    <path
       id="path10"
       d="m -95.5824,-162.65904 h 23.16341"
       style="fill:none;stroke:#000000;stroke-width:1.24535;stroke-linecap:butt;stroke-linejoin:miter;stroke-miterlimit:10;stroke-dasharray:none;stroke-opacity:1"
       transform="matrix(1.07104,0,0,-1.07104,252.397,135.36872)" />
    <path
       id="path11"
       d="m -74.53607,-119.83435 c 0,5.22723 -4.2374,9.46463 -9.46463,9.46463 -5.22724,0 -9.46463,-4.2374 -9.46463,-9.46463 0,-5.22722 4.23739,-9.46463 9.46463,-9.46463 5.22723,0 9.46463,4.23741 9.46463,9.46463 z"
       style="fill:#ffffff;fill-opacity:1;fill-rule:nonzero;stroke:#000000;stroke-width:1.24535;stroke-linecap:butt;stroke-linejoin:miter;stroke-miterlimit:10;stroke-dasharray:none;stroke-opacity:1"
       transform="matrix(1.07104,0,0,-1.07104,252.397,135.36872)" />
    <path
       id="path12"
       d="M 5.3088709,-2.9018891 H 3.4998815 V -4.7108785 H 2.3036144 v 1.8089894 H 0.49462496 v 1.1962672 H 2.3036144 V 0.10336751 H 3.4998815 V -1.7056219 h 1.8089894 z m 0,0"
       style="fill:#000000;fill-opacity:1;fill-rule:nonzero;stroke:none"
       aria-label="+"
       transform="matrix(1.07104,0,0,1.07104,159.31399,266.43616)" />
    <path
       id="path13"
       d="m -84.0007,-129.92165 v -6.23632"
       style="fill:none;stroke:#4c4c4c;stroke-width:1.29515;stroke-linecap:butt;stroke-linejoin:miter;stroke-miterlimit:10;stroke-dasharray:none;stroke-opacity:1"
       transform="matrix(1.07104,0,0,-1.07104,252.397,135.36872)" />
    <path
       id="path14"
       d="m -84.0007,-169.28418 v -4.51901 c 0,-2.20095 -1.78417,-3.98511 -3.98511,-3.98511 h -17.54173 c -2.20095,0 -3.98511,1.78416 -3.98511,3.98511 v 49.98373 c 0,2.20094 1.78416,3.98511 3.98511,3.98511 H -94.088"
       style="fill:none;stroke:#4c4c4c;stroke-width:1.29515;stroke-linecap:butt;stroke-linejoin:miter;stroke-miterlimit:10;stroke-dasharray:none;stroke-opacity:1"
       transform="matrix(1.07104,0,0,-1.07104,252.397,135.36872)" />
    <path
       id="path15"
       d="M -44.95909,-168.6615 H -23.041 v 31.88086 h -21.91809 z"
       style="fill:#f4fee4;fill-opacity:1;fill-rule:nonzero;stroke:#000000;stroke-width:1.24535;stroke-linecap:butt;stroke-linejoin:miter;stroke-miterlimit:10;stroke-dasharray:none;stroke-opacity:1"
       transform="matrix(1.07104,0,0,-1.07104,252.397,135.36872)" />
    <path
       id="path16"
       d="m -45.58176,-142.7831 h 23.16341"
       style="fill:none;stroke:#000000;stroke-width:1.24535;stroke-linecap:butt;stroke-linejoin:miter;stroke-miterlimit:10;stroke-dasharray:none;stroke-opacity:1"
       transform="matrix(1.07104,0,0,-1.07104,252.397,135.36872)" />
    <path
       id="path17"
       d="m -45.58176,-149.40825 h 23.16341"
       style="fill:none;stroke:#000000;stroke-width:1.24535;stroke-linecap:butt;stroke-linejoin:miter;stroke-miterlimit:10;stroke-dasharray:none;stroke-opacity:1"
       transform="matrix(1.07104,0,0,-1.07104,252.397,135.36872)" />
    <path
       id="path18"
       d="m -45.58176,-156.0339 h 23.16341"
       style="fill:none;stroke:#000000;stroke-width:1.24535;stroke-linecap:butt;stroke-linejoin:miter;stroke-miterlimit:10;stroke-dasharray:none;stroke-opacity:1"
       transform="matrix(1.07104,0,0,-1.07104,252.397,135.36872)" />
    <path
       id="path19"
       d="m -45.58176,-162.65904 h 23.16341"
       style="fill:none;stroke:#000000;stroke-width:1.24535;stroke-linecap:butt;stroke-linejoin:miter;stroke-miterlimit:10;stroke-dasharray:none;stroke-opacity:1"
       transform="matrix(1.07104,0,0,-1.07104,252.397,135.36872)" />
    <path
       id="path20"
       d="m -24.53542,-119.83435 c 0,5.22723 -4.23741,9.46463 -9.46463,9.46463 -5.22723,0 -9.46463,-4.2374 -9.46463,-9.46463 0,-5.22722 4.2374,-9.46463 9.46463,-9.46463 5.22722,0 9.46463,4.23741 9.46463,9.46463 z"
       style="fill:#ffffff;fill-opacity:1;fill-rule:nonzero;stroke:#000000;stroke-width:1.24535;stroke-linecap:butt;stroke-linejoin:miter;stroke-miterlimit:10;stroke-dasharray:none;stroke-opacity:1"
       transform="matrix(1.07104,0,0,-1.07104,252.397,135.36872)" />
    <path
       id="path21"
       d="M 5.3113802,-2.9018891 H 3.5023908 V -4.7108785 H 2.3061236 v 1.8089894 H 0.49713421 v 1.1962672 H 2.3061236 V 0.10336751 H 3.5023908 V -1.7056219 h 1.8089894 z m 0,0"
       style="fill:#000000;fill-opacity:1;fill-rule:nonzero;stroke:none"
       aria-label="+"
       transform="matrix(1.07104,0,0,1.07104,212.86599,266.43616)" />
    <path
       id="path22"
       d="m -34.00005,-129.92165 v -6.23632"
       style="fill:none;stroke:#4c4c4c;stroke-width:1.29515;stroke-linecap:butt;stroke-linejoin:miter;stroke-miterlimit:10;stroke-dasharray:none;stroke-opacity:1"
       transform="matrix(1.07104,0,0,-1.07104,252.397,135.36872)" />
    <path
       id="path23"
       d="m -34.00005,-169.28418 v -4.51901 c 0,-2.20095 -1.78418,-3.98511 -3.9851,-3.98511 h -17.54174 c -2.20094,0 -3.98511,1.78416 -3.98511,3.98511 v 49.98373 c 0,2.20094 1.78417,3.98511 3.98511,3.98511 h 11.43953"
       style="fill:none;stroke:#4c4c4c;stroke-width:1.29515;stroke-linecap:butt;stroke-linejoin:miter;stroke-miterlimit:10;stroke-dasharray:none;stroke-opacity:1"
       transform="matrix(1.07104,0,0,-1.07104,252.397,135.36872)" />
    <path
       id="path24"
       d="m 5.04153,-168.6615 h 21.91809 v 31.88086 H 5.04153 Z"
       style="fill:#f4fee4;fill-opacity:1;fill-rule:nonzero;stroke:#000000;stroke-width:1.24535;stroke-linecap:butt;stroke-linejoin:miter;stroke-miterlimit:10;stroke-dasharray:none;stroke-opacity:1"
       transform="matrix(1.07104,0,0,-1.07104,252.397,135.36872)" />
    <path
       id="path25"
       d="M 4.41887,-142.7831 H 27.58228"
       style="fill:none;stroke:#000000;stroke-width:1.24535;stroke-linecap:butt;stroke-linejoin:miter;stroke-miterlimit:10;stroke-dasharray:none;stroke-opacity:1"
       transform="matrix(1.07104,0,0,-1.07104,252.397,135.36872)" />
    <path
       id="path26"
       d="M 4.41887,-149.40825 H 27.58228"
       style="fill:none;stroke:#000000;stroke-width:1.24535;stroke-linecap:butt;stroke-linejoin:miter;stroke-miterlimit:10;stroke-dasharray:none;stroke-opacity:1"
       transform="matrix(1.07104,0,0,-1.07104,252.397,135.36872)" />
    <path
       id="path27"
       d="M 4.41887,-156.0339 H 27.58228"
       style="fill:none;stroke:#000000;stroke-width:1.24535;stroke-linecap:butt;stroke-linejoin:miter;stroke-miterlimit:10;stroke-dasharray:none;stroke-opacity:1"
       transform="matrix(1.07104,0,0,-1.07104,252.397,135.36872)" />
    <path
       id="path28"
       d="M 4.41887,-162.65904 H 27.58228"
       style="fill:none;stroke:#000000;stroke-width:1.24535;stroke-linecap:butt;stroke-linejoin:miter;stroke-miterlimit:10;stroke-dasharray:none;stroke-opacity:1"
       transform="matrix(1.07104,0,0,-1.07104,252.397,135.36872)" />
    <path
       id="path29"
       d="m 25.46521,-119.83435 c 0,5.22723 -4.2374,9.46463 -9.46463,9.46463 -5.22723,0 -9.46463,-4.2374 -9.46463,-9.46463 0,-5.22722 4.2374,-9.46463 9.46463,-9.46463 5.22723,0 9.46463,4.23741 9.46463,9.46463 z"
       style="fill:#ffffff;fill-opacity:1;fill-rule:nonzero;stroke:#000000;stroke-width:1.24535;stroke-linecap:butt;stroke-linejoin:miter;stroke-miterlimit:10;stroke-dasharray:none;stroke-opacity:1"
       transform="matrix(1.07104,0,0,-1.07104,252.397,135.36872)" />
    <path
       id="path30"
       d="M 5.3102423,-2.9018891 H 3.5012529 V -4.7108785 H 2.3049857 v 1.8089894 H 0.49599629 v 1.1962672 H 2.3049857 V 0.10336751 H 3.5012529 V -1.7056219 h 1.8089894 z m 0,0"
       style="fill:#000000;fill-opacity:1;fill-rule:nonzero;stroke:none"
       aria-label="+"
       transform="matrix(1.07104,0,0,1.07104,266.41799,266.43616)" />
    <path
       id="path31"
       d="m 16.00058,-129.92165 v -6.23632"
       style="fill:none;stroke:#4c4c4c;stroke-width:1.29515;stroke-linecap:butt;stroke-linejoin:miter;stroke-miterlimit:10;stroke-dasharray:none;stroke-opacity:1"
       transform="matrix(1.07104,0,0,-1.07104,252.397,135.36872)" />
    <path
       id="path32"
       d="m 16.00058,-169.28418 v -4.51901 c 0,-2.20095 -1.78416,-3.98511 -3.98511,-3.98511 H -5.52625 c -2.20094,0 -3.9851,1.78416 -3.9851,3.98511 v 49.98373 c 0,2.20094 1.78416,3.98511 3.9851,3.98511 H 5.91327"
       style="fill:none;stroke:#4c4c4c;stroke-width:1.29515;stroke-linecap:butt;stroke-linejoin:miter;stroke-miterlimit:10;stroke-dasharray:none;stroke-opacity:1"
       transform="matrix(1.07104,0,0,-1.07104,252.397,135.36872)" />
    <path
       id="path33"
       d="m 79.0415,-168.6615 h 21.91809 v 31.88086 H 79.0415 Z"
       style="fill:#f4fee4;fill-opacity:1;fill-rule:nonzero;stroke:#000000;stroke-width:1.24535;stroke-linecap:butt;stroke-linejoin:miter;stroke-miterlimit:10;stroke-dasharray:none;stroke-opacity:1"
       transform="matrix(1.07104,0,0,-1.07104,252.397,135.36872)" />
    <path
       id="path34"
       d="m 78.41885,-142.7831 h 23.16341"
       style="fill:none;stroke:#000000;stroke-width:1.24535;stroke-linecap:butt;stroke-linejoin:miter;stroke-miterlimit:10;stroke-dasharray:none;stroke-opacity:1"
       transform="matrix(1.07104,0,0,-1.07104,252.397,135.36872)" />
    <path
       id="path35"
       d="m 78.41885,-149.40825 h 23.16341"
       style="fill:none;stroke:#000000;stroke-width:1.24535;stroke-linecap:butt;stroke-linejoin:miter;stroke-miterlimit:10;stroke-dasharray:none;stroke-opacity:1"
       transform="matrix(1.07104,0,0,-1.07104,252.397,135.36872)" />
    <path
       id="path36"
       d="m 78.41885,-156.0339 h 23.16341"
       style="fill:none;stroke:#000000;stroke-width:1.24535;stroke-linecap:butt;stroke-linejoin:miter;stroke-miterlimit:10;stroke-dasharray:none;stroke-opacity:1"
       transform="matrix(1.07104,0,0,-1.07104,252.397,135.36872)" />
    <path
       id="path37"
       d="m 78.41885,-162.65904 h 23.16341"
       style="fill:none;stroke:#000000;stroke-width:1.24535;stroke-linecap:butt;stroke-linejoin:miter;stroke-miterlimit:10;stroke-dasharray:none;stroke-opacity:1"
       transform="matrix(1.07104,0,0,-1.07104,252.397,135.36872)" />
    <path
       id="path38"
       d="m 99.46518,-119.83435 c 0,5.22723 -4.2374,9.46463 -9.46463,9.46463 -5.22722,0 -9.46463,-4.2374 -9.46463,-9.46463 0,-5.22722 4.23741,-9.46463 9.46463,-9.46463 5.22723,0 9.46463,4.23741 9.46463,9.46463 z"
       style="fill:#ffffff;fill-opacity:1;fill-rule:nonzero;stroke:#000000;stroke-width:1.24535;stroke-linecap:butt;stroke-linejoin:miter;stroke-miterlimit:10;stroke-dasharray:none;stroke-opacity:1"
       transform="matrix(1.07104,0,0,-1.07104,252.397,135.36872)" />
    <path
       id="path39"
       d="M 5.3120382,-2.9018891 H 3.5030488 V -4.7108785 H 2.3067816 v 1.8089894 H 0.49779225 v 1.1962672 H 2.3067816 V 0.10336751 H 3.5030488 V -1.7056219 h 1.8089894 z m 0,0"
       style="fill:#000000;fill-opacity:1;fill-rule:nonzero;stroke:none"
       aria-label="+"
       transform="matrix(1.07104,0,0,1.07104,345.67388,266.43616)" />
    <path
       id="path40"
       d="m 90.00055,-129.92165 v -6.23632"
       style="fill:none;stroke:#4c4c4c;stroke-width:1.29515;stroke-linecap:butt;stroke-linejoin:miter;stroke-miterlimit:10;stroke-dasharray:none;stroke-opacity:1"
       transform="matrix(1.07104,0,0,-1.07104,252.397,135.36872)" />
    <path
       id="path41"
       d="m 90.00055,-169.28418 v -4.51901 c 0,-2.20095 -1.78417,-3.98511 -3.98511,-3.98511 H 68.47371 c -2.20093,0 -3.98511,1.78416 -3.98511,3.98511 v 49.98373 c 0,2.20094 1.78418,3.98511 3.98511,3.98511 h 11.43954"
       style="fill:none;stroke:#4c4c4c;stroke-width:1.29515;stroke-linecap:butt;stroke-linejoin:miter;stroke-miterlimit:10;stroke-dasharray:none;stroke-opacity:1"
       transform="matrix(1.07104,0,0,-1.07104,252.397,135.36872)" />
    <path
       id="path42"
       d="m -72.41898,-152.72107 h 20.82967"
       style="fill:none;stroke:#4c4c4c;stroke-width:1.29515;stroke-linecap:butt;stroke-linejoin:miter;stroke-miterlimit:10;stroke-dasharray:none;stroke-opacity:1"
       transform="matrix(1.07104,0,0,-1.07104,252.397,135.36872)" />
    <path
       id="path43"
       d="M 6.00752,0 C 4.22748,0.33374 1.335,1.335 -0.6675,2.50311 V -2.50311 C 1.335,-1.335 4.22748,-0.33374 6.00752,0"
       style="fill:#4c4c4c;fill-opacity:1;fill-rule:nonzero;stroke:none"
       transform="matrix(1.07104,0,0,-1.07104,197.14279,298.93909)" />
    <path
       id="path44"
       d="M -22.41833,-152.72107 H -1.58865"
       style="fill:none;stroke:#4c4c4c;stroke-width:1.29515;stroke-linecap:butt;stroke-linejoin:miter;stroke-miterlimit:10;stroke-dasharray:none;stroke-opacity:1"
       transform="matrix(1.07104,0,0,-1.07104,252.397,135.36872)" />
    <path
       id="path45"
       d="M 6.00752,0 C 4.22748,0.33374 1.335,1.335 -0.6675,2.50311 V -2.50311 C 1.335,-1.335 4.22748,-0.33374 6.00752,0"
       style="fill:#4c4c4c;fill-opacity:1;fill-rule:nonzero;stroke:none"
       transform="matrix(1.07104,0,0,-1.07104,250.69549,298.93909)" />
    <path
       id="path46"
       d="m 4.1151804,-1.0200618 c 0,-0.6127222 -0.4960132,-1.0066151 -1.0212037,-1.0066151 -0.4960132,0 -1.0066151,0.3938929 -1.0066151,1.0066151 0,0.62731083 0.4960133,1.02120368 1.0066151,1.02120368 0.4960132,0 1.0212037,-0.39389285 1.0212037,-1.02120368 z m 6.1965176,0 c 0,-0.6127222 -0.4960127,-1.0066151 -1.0212032,-1.0066151 -0.4960132,0 -1.0066151,0.3938929 -1.0066151,1.0066151 0,0.62731083 0.4960133,1.02120368 1.0066151,1.02120368 0.4960132,0 1.0212032,-0.39389285 1.0212032,-1.02120368 z m 6.196519,0 c 0,-0.6127222 -0.496014,-1.0066151 -1.021204,-1.0066151 -0.496013,0 -1.006615,0.3938929 -1.006615,1.0066151 0,0.62731083 0.496013,1.02120368 1.006615,1.02120368 0.496013,0 1.021204,-0.39389285 1.021204,-1.02120368 z m 0,0"
       style="fill:#000000;fill-opacity:1;fill-rule:nonzero;stroke:none"
       aria-label="..."
       transform="matrix(1.07104,0,0,1.07104,295.94013,300.02612)" />
    <path
       id="path47"
       d="m 27.58229,-152.72107 3.54558,2e-5"
       style="fill:none;stroke:#4c4c4c;stroke-width:1.29515;stroke-linecap:butt;stroke-linejoin:miter;stroke-miterlimit:10;stroke-dasharray:none;stroke-opacity:1"
       transform="matrix(1.07104,0,0,-1.07104,252.397,135.36872)" />
    <path
       id="path48"
       d="M 6.00752,0 C 4.22748,0.33374 1.335,1.335 -0.6675,2.50311 V -2.50311 C 1.335,-1.335 4.22748,-0.33374 6.00752,0"
       style="fill:#4c4c4c;fill-opacity:1;fill-rule:nonzero;stroke:none"
       transform="matrix(1.07104,0,0,-1.07104,285.7362,298.93907)" />
    <path
       id="path49"
       d="m 62.76556,-152.72105 9.64574,-2e-5"
       style="fill:none;stroke:#4c4c4c;stroke-width:1.29515;stroke-linecap:butt;stroke-linejoin:miter;stroke-miterlimit:10;stroke-dasharray:none;stroke-opacity:1"
       transform="matrix(1.07104,0,0,-1.07104,252.397,135.36872)" />
    <path
       id="path50"
       d="M 6.00752,0 C 4.22748,0.33374 1.335,1.335 -0.6675,2.50311 V -2.50311 C 1.335,-1.335 4.22748,-0.33374 6.00752,0"
       style="fill:#4c4c4c;fill-opacity:1;fill-rule:nonzero;stroke:none"
       transform="matrix(1.07104,0,0,-1.07104,329.9524,298.93909)" />
    <path
       id="path51"
       d="m 101.58228,-152.72107 h 10.75755"
       style="fill:none;stroke:#4c4c4c;stroke-width:1.29515;stroke-linecap:butt;stroke-linejoin:miter;stroke-miterlimit:10;stroke-dasharray:none;stroke-opacity:1"
       transform="matrix(1.07104,0,0,-1.07104,252.397,135.36872)" />
    <path
       id="path52"
       d="M 6.00752,0 C 4.22748,0.33374 1.335,1.335 -0.6675,2.50311 V -2.50311 C 1.335,-1.335 4.22748,-0.33374 6.00752,0"
       style="fill:#4c4c4c;fill-opacity:1;fill-rule:nonzero;stroke:none"
       transform="matrix(1.07104,0,0,-1.07104,372.71745,298.93909)" />
    <path
       id="path53"
       d="M 0.88827093,-0.00108632 H 3.6892868 c 1.823578,0 2.9614907,-1.37133068 2.9614907,-3.63256738 0,-2.2612368 -1.1233241,-3.6325674 -2.9614907,-3.6325674 H 0.88827093 Z M 1.8073543,-0.81804928 V -6.4492582 h 1.7214576 c 1.4296852,0 2.1882936,0.9628492 2.1882936,2.8156045 0,1.8381666 -0.7586084,2.81560442 -2.1882936,2.81560442 z M 9.9076878,-5.3697 c -1.473451,0 -2.3487685,1.0503809 -2.3487685,2.8010158 0,1.75063492 0.8753175,2.80101586 2.3487685,2.80101586 1.4734512,0 2.3633572,-1.05038094 2.3633572,-2.75724996 0,-1.8089894 -0.860729,-2.8447817 -2.3633572,-2.8447817 z m 0,0.7586084 c 0.9482602,0 1.5026282,0.7731971 1.5026282,2.0715847 0,1.2254444 -0.583545,1.99864148 -1.5026282,1.99864148 -0.9190833,0 -1.4880397,-0.75860848 -1.4880397,-2.02781878 0,-1.2546216 0.5689564,-2.0424074 1.4880397,-2.0424074 z m 3.5231532,-0.6127222 v 5.22272748 h 0.831551 V -2.8750453 c 0,-1.0649695 0.554368,-1.7652235 1.415097,-1.7652235 0.656488,0 1.079558,0.3938929 1.079558,1.0212037 v 3.61797878 h 0.831551 V -3.9400148 c 0,-0.8753175 -0.656488,-1.4296852 -1.663103,-1.4296852 -0.773197,0 -1.26921,0.2917725 -1.736046,1.0212037 v -0.8753175 z m 9.945794,2.8885476 c 0,-0.7877857 -0.05835,-1.2692103 -0.204241,-1.6631031 C 22.836856,-4.8590982 22.034482,-5.3697 21.057044,-5.3697 c -1.444274,0 -2.392535,1.1087354 -2.392535,2.8301931 0,1.706869 0.904495,2.77183856 2.377946,2.77183856 1.196267,0 2.027819,-0.68566533 2.23206,-1.82357806 h -0.846141 c -0.218829,0.700254 -0.685665,1.05038098 -1.356742,1.05038098 -0.52519,0 -0.977437,-0.23341798 -1.254621,-0.67107668 -0.204241,-0.3063611 -0.277184,-0.5981336 -0.277184,-1.1233241 z m -3.822219,-0.6710767 c 0.07294,-0.9774378 0.656488,-1.6047487 1.502628,-1.6047487 0.816963,0 1.444274,0.6856654 1.444274,1.5463942 0,0.014589 0,0.029177 -0.01459,0.058355 z m 0,0"
       style="fill:#4c4c4c;fill-opacity:1;fill-rule:nonzero;stroke:none"
       aria-label="Done"
       transform="matrix(1.07104,0,0,1.07104,383.40019,302.67694)" />
    <path
       id="path54"
       d="m -100.00127,84.0007 h -19.84266"
       style="fill:none;stroke:#4c4c4c;stroke-width:1.29515;stroke-linecap:round;stroke-linejoin:miter;stroke-miterlimit:10;stroke-dasharray:none;stroke-opacity:1"
       transform="matrix(1.07104,0,0,-1.07104,252.397,135.36872)" />
    <path
       id="path55"
       d="m -100.00127,38.00098 h -19.84266"
       style="fill:none;stroke:#4c4c4c;stroke-width:1.29515;stroke-linecap:round;stroke-linejoin:miter;stroke-miterlimit:10;stroke-dasharray:none;stroke-opacity:1"
       transform="matrix(1.07104,0,0,-1.07104,252.397,135.36872)" />
    <path
       id="path56"
       d="m -100.00127,-10.00072 h -19.84266"
       style="fill:none;stroke:#4c4c4c;stroke-width:1.29515;stroke-linecap:round;stroke-linejoin:miter;stroke-miterlimit:10;stroke-dasharray:none;stroke-opacity:1"
       transform="matrix(1.07104,0,0,-1.07104,252.397,135.36872)" />
    <path
       id="path57"
       d="m -100.00127,-90.00055 h -19.84266"
       style="fill:none;stroke:#4c4c4c;stroke-width:1.29515;stroke-linecap:round;stroke-linejoin:miter;stroke-miterlimit:10;stroke-dasharray:none;stroke-opacity:1"
       transform="matrix(1.07104,0,0,-1.07104,252.397,135.36872)" />
    <path
       id="path58"
       d="m -147.73969,74.03793 h 31.88086 v 19.92554 h -31.88086 z"
       style="fill:#e2fdb8;fill-opacity:1;fill-rule:nonzero;stroke:none"
       transform="matrix(1.07104,0,0,-1.07104,252.397,135.36872)" />
    <path
       id="path59"
       d="M -148.36237,94.58614 V 73.41525"
       style="fill:none;stroke:#000000;stroke-width:1.24535;stroke-linecap:round;stroke-linejoin:miter;stroke-miterlimit:10;stroke-dasharray:none;stroke-opacity:1"
       transform="matrix(1.07104,0,0,-1.07104,252.397,135.36872)" />
    <path
       id="path60"
       d="M -140.08081,94.58614 V 73.41525"
       style="fill:none;stroke:#000000;stroke-width:1.24535;stroke-linecap:round;stroke-linejoin:miter;stroke-miterlimit:10;stroke-dasharray:none;stroke-opacity:1"
       transform="matrix(1.07104,0,0,-1.07104,252.397,135.36872)" />
    <path
       id="path61"
       d="M -131.79926,94.58614 V 73.41525"
       style="fill:none;stroke:#000000;stroke-width:1.24535;stroke-linecap:round;stroke-linejoin:miter;stroke-miterlimit:10;stroke-dasharray:none;stroke-opacity:1"
       transform="matrix(1.07104,0,0,-1.07104,252.397,135.36872)" />
    <path
       id="path62"
       d="M -123.51772,94.58614 V 73.41525"
       style="fill:none;stroke:#000000;stroke-width:1.24535;stroke-linecap:round;stroke-linejoin:miter;stroke-miterlimit:10;stroke-dasharray:none;stroke-opacity:1"
       transform="matrix(1.07104,0,0,-1.07104,252.397,135.36872)" />
    <path
       id="path63"
       d="m -148.36237,94.58614 h -5.66934"
       style="fill:none;stroke:#ff0000;stroke-width:1.24535;stroke-linecap:round;stroke-linejoin:miter;stroke-miterlimit:10;stroke-dasharray:none;stroke-opacity:1"
       transform="matrix(1.07104,0,0,-1.07104,252.397,135.36872)" />
    <path
       id="path64"
       d="m -148.36237,73.41525 h -5.66934"
       style="fill:none;stroke:#ff0000;stroke-width:1.24535;stroke-linecap:round;stroke-linejoin:miter;stroke-miterlimit:10;stroke-dasharray:none;stroke-opacity:1"
       transform="matrix(1.07104,0,0,-1.07104,252.397,135.36872)" />
    <path
       id="path65"
       d="m -154.03171,94.58614 h 38.79555 V 73.41525 h -38.79555"
       style="fill:none;stroke:#000000;stroke-width:1.24535;stroke-linecap:round;stroke-linejoin:miter;stroke-miterlimit:10;stroke-dasharray:none;stroke-opacity:1"
       transform="matrix(1.07104,0,0,-1.07104,252.397,135.36872)" />
    <path
       id="path66"
       d="m -147.73969,28.03821 h 31.88086 v 19.92554 h -31.88086 z"
       style="fill:#e2fdb8;fill-opacity:1;fill-rule:nonzero;stroke:none"
       transform="matrix(1.07104,0,0,-1.07104,252.397,135.36872)" />
    <path
       id="path67"
       d="M -148.36237,48.58641 V 27.41553"
       style="fill:none;stroke:#000000;stroke-width:1.24535;stroke-linecap:round;stroke-linejoin:miter;stroke-miterlimit:10;stroke-dasharray:none;stroke-opacity:1"
       transform="matrix(1.07104,0,0,-1.07104,252.397,135.36872)" />
    <path
       id="path68"
       d="M -140.08081,48.58641 V 27.41553"
       style="fill:none;stroke:#000000;stroke-width:1.24535;stroke-linecap:round;stroke-linejoin:miter;stroke-miterlimit:10;stroke-dasharray:none;stroke-opacity:1"
       transform="matrix(1.07104,0,0,-1.07104,252.397,135.36872)" />
    <path
       id="path69"
       d="M -131.79926,48.58641 V 27.41553"
       style="fill:none;stroke:#000000;stroke-width:1.24535;stroke-linecap:round;stroke-linejoin:miter;stroke-miterlimit:10;stroke-dasharray:none;stroke-opacity:1"
       transform="matrix(1.07104,0,0,-1.07104,252.397,135.36872)" />
    <path
       id="path70"
       d="M -123.51772,48.58641 V 27.41553"
       style="fill:none;stroke:#000000;stroke-width:1.24535;stroke-linecap:round;stroke-linejoin:miter;stroke-miterlimit:10;stroke-dasharray:none;stroke-opacity:1"
       transform="matrix(1.07104,0,0,-1.07104,252.397,135.36872)" />
    <path
       id="path71"
       d="m -148.36237,48.58641 h -5.66934"
       style="fill:none;stroke:#ff0000;stroke-width:1.24535;stroke-linecap:round;stroke-linejoin:miter;stroke-miterlimit:10;stroke-dasharray:none;stroke-opacity:1"
       transform="matrix(1.07104,0,0,-1.07104,252.397,135.36872)" />
    <path
       id="path72"
       d="m -148.36237,27.41553 h -5.66934"
       style="fill:none;stroke:#ff0000;stroke-width:1.24535;stroke-linecap:round;stroke-linejoin:miter;stroke-miterlimit:10;stroke-dasharray:none;stroke-opacity:1"
       transform="matrix(1.07104,0,0,-1.07104,252.397,135.36872)" />
    <path
       id="path73"
       d="m -154.03171,48.58641 h 38.79555 V 27.41553 h -38.79555"
       style="fill:none;stroke:#000000;stroke-width:1.24535;stroke-linecap:round;stroke-linejoin:miter;stroke-miterlimit:10;stroke-dasharray:none;stroke-opacity:1"
       transform="matrix(1.07104,0,0,-1.07104,252.397,135.36872)" />
    <path
       id="path74"
       d="m -147.73969,-19.96349 h 31.88086 v 19.92554 h -31.88086 z"
       style="fill:#e2fdb8;fill-opacity:1;fill-rule:nonzero;stroke:none"
       transform="matrix(1.07104,0,0,-1.07104,252.397,135.36872)" />
    <path
       id="path75"
       d="M -148.36237,0.5847 V -20.58617"
       style="fill:none;stroke:#000000;stroke-width:1.24535;stroke-linecap:round;stroke-linejoin:miter;stroke-miterlimit:10;stroke-dasharray:none;stroke-opacity:1"
       transform="matrix(1.07104,0,0,-1.07104,252.397,135.36872)" />
    <path
       id="path76"
       d="M -140.08081,0.5847 V -20.58617"
       style="fill:none;stroke:#000000;stroke-width:1.24535;stroke-linecap:round;stroke-linejoin:miter;stroke-miterlimit:10;stroke-dasharray:none;stroke-opacity:1"
       transform="matrix(1.07104,0,0,-1.07104,252.397,135.36872)" />
    <path
       id="path77"
       d="M -131.79926,0.5847 V -20.58617"
       style="fill:none;stroke:#000000;stroke-width:1.24535;stroke-linecap:round;stroke-linejoin:miter;stroke-miterlimit:10;stroke-dasharray:none;stroke-opacity:1"
       transform="matrix(1.07104,0,0,-1.07104,252.397,135.36872)" />
    <path
       id="path78"
       d="M -123.51772,0.5847 V -20.58617"
       style="fill:none;stroke:#000000;stroke-width:1.24535;stroke-linecap:round;stroke-linejoin:miter;stroke-miterlimit:10;stroke-dasharray:none;stroke-opacity:1"
       transform="matrix(1.07104,0,0,-1.07104,252.397,135.36872)" />
    <path
       id="path79"
       d="m -148.36237,0.5847 h -5.66934"
       style="fill:none;stroke:#ff0000;stroke-width:1.24535;stroke-linecap:round;stroke-linejoin:miter;stroke-miterlimit:10;stroke-dasharray:none;stroke-opacity:1"
       transform="matrix(1.07104,0,0,-1.07104,252.397,135.36872)" />
    <path
       id="path80"
       d="m -148.36237,-20.58617 h -5.66934"
       style="fill:none;stroke:#ff0000;stroke-width:1.24535;stroke-linecap:round;stroke-linejoin:miter;stroke-miterlimit:10;stroke-dasharray:none;stroke-opacity:1"
       transform="matrix(1.07104,0,0,-1.07104,252.397,135.36872)" />
    <path
       id="path81"
       d="m -154.03171,0.5847 h 38.79555 v -21.17087 h -38.79555"
       style="fill:none;stroke:#000000;stroke-width:1.24535;stroke-linecap:round;stroke-linejoin:miter;stroke-miterlimit:10;stroke-dasharray:none;stroke-opacity:1"
       transform="matrix(1.07104,0,0,-1.07104,252.397,135.36872)" />
    <path
       id="path82"
       d="m -147.73969,-99.96332 h 31.88086 v 19.92554 h -31.88086 z"
       style="fill:#e2fdb8;fill-opacity:1;fill-rule:nonzero;stroke:none"
       transform="matrix(1.07104,0,0,-1.07104,252.397,135.36872)" />
    <path
       id="path83"
       d="M -148.36237,-79.41512 V -100.586"
       style="fill:none;stroke:#000000;stroke-width:1.24535;stroke-linecap:round;stroke-linejoin:miter;stroke-miterlimit:10;stroke-dasharray:none;stroke-opacity:1"
       transform="matrix(1.07104,0,0,-1.07104,252.397,135.36872)" />
    <path
       id="path84"
       d="M -140.08081,-79.41512 V -100.586"
       style="fill:none;stroke:#000000;stroke-width:1.24535;stroke-linecap:round;stroke-linejoin:miter;stroke-miterlimit:10;stroke-dasharray:none;stroke-opacity:1"
       transform="matrix(1.07104,0,0,-1.07104,252.397,135.36872)" />
    <path
       id="path85"
       d="M -131.79926,-79.41512 V -100.586"
       style="fill:none;stroke:#000000;stroke-width:1.24535;stroke-linecap:round;stroke-linejoin:miter;stroke-miterlimit:10;stroke-dasharray:none;stroke-opacity:1"
       transform="matrix(1.07104,0,0,-1.07104,252.397,135.36872)" />
    <path
       id="path86"
       d="M -123.51772,-79.41512 V -100.586"
       style="fill:none;stroke:#000000;stroke-width:1.24535;stroke-linecap:round;stroke-linejoin:miter;stroke-miterlimit:10;stroke-dasharray:none;stroke-opacity:1"
       transform="matrix(1.07104,0,0,-1.07104,252.397,135.36872)" />
    <path
       id="path87"
       d="m -148.36237,-79.41512 h -5.66934"
       style="fill:none;stroke:#ff0000;stroke-width:1.24535;stroke-linecap:round;stroke-linejoin:miter;stroke-miterlimit:10;stroke-dasharray:none;stroke-opacity:1"
       transform="matrix(1.07104,0,0,-1.07104,252.397,135.36872)" />
    <path
       id="path88"
       d="m -148.36237,-100.586 h -5.66934"
       style="fill:none;stroke:#ff0000;stroke-width:1.24535;stroke-linecap:round;stroke-linejoin:miter;stroke-miterlimit:10;stroke-dasharray:none;stroke-opacity:1"
       transform="matrix(1.07104,0,0,-1.07104,252.397,135.36872)" />
    <path
       id="path89"
       d="m -154.03171,-79.41512 h 38.79555 V -100.586 h -38.79555"
       style="fill:none;stroke:#000000;stroke-width:1.24535;stroke-linecap:round;stroke-linejoin:miter;stroke-miterlimit:10;stroke-dasharray:none;stroke-opacity:1"
       transform="matrix(1.07104,0,0,-1.07104,252.397,135.36872)" />
    <path
       id="path90"
       d="M -131.79926,73.41525 V 54.59395"
       style="fill:none;stroke:#4c4c4c;stroke-width:1.29515;stroke-linecap:butt;stroke-linejoin:miter;stroke-miterlimit:10;stroke-dasharray:none;stroke-opacity:1"
       transform="matrix(1.07104,0,0,-1.07104,252.397,135.36872)" />
    <path
       id="path91"
       d="M 6.00752,0 C 4.22748,0.33374 1.335,1.335 -0.6675,2.50311 V -2.50311 C 1.335,-1.335 4.22748,-0.33374 6.00752,0"
       style="fill:#4c4c4c;fill-opacity:1;fill-rule:nonzero;stroke:none"
       transform="matrix(0,1.07104,1.07104,0,111.23472,76.896411)" />
    <path
       id="path92"
       d="M -131.79926,27.41553 V 6.59224"
       style="fill:none;stroke:#4c4c4c;stroke-width:1.29515;stroke-linecap:butt;stroke-linejoin:miter;stroke-miterlimit:10;stroke-dasharray:none;stroke-opacity:1"
       transform="matrix(1.07104,0,0,-1.07104,252.397,135.36872)" />
    <path
       id="path93"
       d="M 6.00752,0 C 4.22748,0.33374 1.335,1.335 -0.6675,2.50311 V -2.50311 C 1.335,-1.335 4.22748,-0.33374 6.00752,0"
       style="fill:#4c4c4c;fill-opacity:1;fill-rule:nonzero;stroke:none"
       transform="matrix(0,1.07104,1.07104,0,111.23472,128.30816)" />
    <path
       id="path94"
       d="m 4.1139243,-1.0222319 c 0,-0.6127222 -0.4960133,-1.0066151 -1.0212037,-1.0066151 -0.4960133,0 -1.0066151,0.3938929 -1.0066151,1.0066151 0,0.62731084 0.4960132,1.02120369 1.0066151,1.02120369 0.4960132,0 1.0212037,-0.39389285 1.0212037,-1.02120369 z m 6.1965177,0 c 0,-0.6127222 -0.4960129,-1.0066151 -1.0212033,-1.0066151 -0.4960132,0 -1.0066151,0.3938929 -1.0066151,1.0066151 0,0.62731084 0.4960132,1.02120369 1.0066151,1.02120369 0.4960132,0 1.0212033,-0.39389285 1.0212033,-1.02120369 z m 6.196518,0 c 0,-0.6127222 -0.496013,-1.0066151 -1.021203,-1.0066151 -0.496013,0 -1.006615,0.3938929 -1.006615,1.0066151 0,0.62731084 0.496013,1.02120369 1.006615,1.02120369 0.496013,0 1.021203,-0.39389285 1.021203,-1.02120369 z m 0,0"
       style="fill:#000000;fill-opacity:1;fill-rule:nonzero;stroke:none"
       aria-label="..."
       transform="matrix(0,-1.07104,1.07104,0,112.32532,200.13665)" />
    <path
       id="path95"
       d="m -131.79926,-20.58617 2e-5,-11.76866"
       style="fill:none;stroke:#4c4c4c;stroke-width:1.29515;stroke-linecap:butt;stroke-linejoin:miter;stroke-miterlimit:10;stroke-dasharray:none;stroke-opacity:1"
       transform="matrix(1.07104,0,0,-1.07104,252.397,135.36872)" />
    <path
       id="path96"
       d="M 6.00752,0 C 4.22748,0.33374 1.335,1.335 -0.6675,2.50311 V -2.50311 C 1.335,-1.335 4.22748,-0.33374 6.00752,0"
       style="fill:#4c4c4c;fill-opacity:1;fill-rule:nonzero;stroke:none"
       transform="matrix(0,1.07104,1.07104,0,111.23474,170.02203)" />
    <path
       id="path97"
       d="m -131.79924,-63.99254 -2e-5,-9.41504"
       style="fill:none;stroke:#4c4c4c;stroke-width:1.29515;stroke-linecap:butt;stroke-linejoin:miter;stroke-miterlimit:10;stroke-dasharray:none;stroke-opacity:1"
       transform="matrix(1.07104,0,0,-1.07104,252.397,135.36872)" />
    <path
       id="path98"
       d="M 6.00752,0 C 4.22748,0.33374 1.335,1.335 -0.6675,2.50311 V -2.50311 C 1.335,-1.335 4.22748,-0.33374 6.00752,0"
       style="fill:#4c4c4c;fill-opacity:1;fill-rule:nonzero;stroke:none"
       transform="matrix(0,1.07104,1.07104,0,111.23472,213.99117)" />
    <path
       id="path99"
       d="m -131.79926,-100.586 v -48.14996 c 0,-2.20094 1.78417,-3.98511 3.98511,-3.98511 h 26.2242"
       style="fill:none;stroke:#4c4c4c;stroke-width:1.29515;stroke-linecap:butt;stroke-linejoin:miter;stroke-miterlimit:10;stroke-dasharray:none;stroke-opacity:1"
       transform="matrix(1.07104,0,0,-1.07104,252.397,135.36872)" />
    <path
       id="path100"
       d="M 6.00752,0 C 4.22748,0.33374 1.335,1.335 -0.6675,2.50311 V -2.50311 C 1.335,-1.335 4.22748,-0.33374 6.00752,0"
       style="fill:#4c4c4c;fill-opacity:1;fill-rule:nonzero;stroke:none"
       transform="matrix(1.07104,0,0,-1.07104,143.5901,298.93909)" />
    <path
       id="path101"
       d="m -235.03624,102.2955 h 52.03511 v 23.47218 h -52.03511 z"
       style="fill:#d1f3ff;fill-opacity:1;fill-rule:nonzero;stroke:#000000;stroke-width:1.24535;stroke-linecap:butt;stroke-linejoin:miter;stroke-miterlimit:10;stroke-dasharray:none;stroke-opacity:1"
       transform="matrix(1.07104,0,0,-1.07104,252.397,135.36872)" />
    <path
       id="path102"
       d="m 6.5931049,-5.0169752 c -0.2917725,-1.59016 -1.1962672,-2.3633571 -2.8010158,-2.3633571 -0.9774378,0 -1.7652235,0.3063611 -2.3050026,0.9044947 -0.65648811,0.7148426 -1.00661509,1.7506349 -1.00661509,2.9323135 0,1.1962671 0.3647156,2.2174708 1.05038089,2.93231342 0.5543678,0.56895634 1.283799,0.8461402 2.2174709,0.8461402 1.7798122,0 2.7718386,-0.96284919 2.990668,-2.88854762 H 5.7907306 c -0.087532,0.4960133 -0.1750635,0.8461402 -0.3355384,1.1379127 -0.2917724,0.58354499 -0.9190833,0.93367197 -1.6922804,0.93367197 -1.4442737,0 -2.3633571,-1.16708997 -2.3633571,-2.97607937 0,-1.8673438 0.8753175,-3.0052565 2.290414,-3.0052565 0.583545,0 1.1379127,0.1750635 1.4296852,0.4522473 0.2771838,0.2480066 0.4230701,0.5689564 0.5251905,1.0941468 z m 3.3116177,-0.3501269 c -1.473451,0 -2.3487685,1.0503809 -2.3487685,2.8010158 0,1.75063488 0.8753175,2.80101582 2.3487685,2.80101582 1.4734514,0 2.3633574,-1.05038094 2.3633574,-2.75724992 0,-1.8089894 -0.860729,-2.8447817 -2.3633574,-2.8447817 z m 0,0.7586084 c 0.9482604,0 1.5026284,0.7731971 1.5026284,2.0715846 0,1.2254445 -0.583545,1.99864154 -1.5026284,1.99864154 -0.9190833,0 -1.4880397,-0.75860844 -1.4880397,-2.02781874 0,-1.2546217 0.5689564,-2.0424074 1.4880397,-2.0424074 z m 3.5267994,-0.6127222 v 5.22272743 h 0.831552 V -2.8724474 c 0,-1.0649696 0.554368,-1.7652235 1.415097,-1.7652235 0.656488,0 1.079558,0.3938928 1.079558,1.0212036 V 0.00151153 H 17.58928 V -3.937417 c 0,-0.8753174 -0.656488,-1.4296851 -1.663103,-1.4296851 -0.773197,0 -1.26921,0.2917724 -1.736046,1.0212036 v -0.8753174 z m 7.363609,0 H 19.94899 v -1.4296852 h -0.831551 v 1.4296852 h -0.700254 v 0.6856653 h 0.700254 v 3.93892854 c 0,0.52519047 0.364715,0.83155158 1.006615,0.83155158 0.204241,0 0.393893,-0.0291773 0.671077,-0.0729431 v -0.70025396 c -0.102121,0.0291772 -0.233418,0.0437659 -0.393893,0.0437659 -0.350127,0 -0.452248,-0.10212037 -0.452248,-0.46683597 V -4.5355506 h 0.846141 z m 0.930024,0 v 5.22272743 h 0.831552 V -2.7119726 c 0,-0.7440198 0.189652,-1.2254444 0.598133,-1.5172169 0.262596,-0.1896521 0.510602,-0.2480066 1.079559,-0.2625952 v -0.8461402 c -0.131298,-0.014589 -0.204241,-0.029177 -0.32095,-0.029177 -0.525191,0 -0.933672,0.3209497 -1.415097,1.0941468 v -0.9482606 z m 5.346731,-0.1458862 c -1.473451,0 -2.348768,1.0503809 -2.348768,2.8010158 0,1.75063488 0.875317,2.80101582 2.348768,2.80101582 1.473451,0 2.363357,-1.05038094 2.363357,-2.75724992 0,-1.8089894 -0.860729,-2.8447817 -2.363357,-2.8447817 z m 0,0.7586084 c 0.948261,0 1.502628,0.7731971 1.502628,2.0715846 0,1.2254445 -0.583545,1.99864154 -1.502628,1.99864154 -0.919083,0 -1.48804,-0.75860844 -1.48804,-2.02781874 0,-1.2546217 0.568957,-2.0424074 1.48804,-2.0424074 z m 4.343763,-2.6551296 h -0.84614 v 7.26513483 h 0.84614 z m 0,0"
       style="fill:#000000;fill-opacity:1;fill-rule:nonzero;stroke:none"
       aria-label="Control"
       transform="matrix(1.07104,0,0,1.07104,11.336958,17.053069)" />
    <path
       id="path103"
       d="m -182.37845,109.3341 h 46.59409 c 2.20094,0 3.9851,-1.78416 3.9851,-3.9851 v -4.75533"
       style="fill:none;stroke:#4c4c4c;stroke-width:1.29515;stroke-linecap:butt;stroke-linejoin:miter;stroke-miterlimit:10;stroke-dasharray:none;stroke-opacity:1"
       transform="matrix(1.07104,0,0,-1.07104,252.397,135.36872)" />
    <path
       id="path104"
       d="M 6.00752,0 C 4.22748,0.33374 1.335,1.335 -0.6675,2.50311 V -2.50311 C 1.335,-1.335 4.22748,-0.33374 6.00752,0"
       style="fill:#4c4c4c;fill-opacity:1;fill-rule:nonzero;stroke:none"
       transform="matrix(0,1.07104,1.07104,0,111.23472,27.628871)" />
    <path
       id="path105"
       d="m -182.37845,118.72908 h 78.39206 c 2.20094,0 3.98511,-1.78416 3.98511,-3.98511 v -8.73515"
       style="fill:none;stroke:#4c4c4c;stroke-width:1.29515;stroke-linecap:butt;stroke-linejoin:miter;stroke-miterlimit:10;stroke-dasharray:none;stroke-opacity:1"
       transform="matrix(1.07104,0,0,-1.07104,252.397,135.36872)" />
    <path
       id="path106"
       d="M 6.00752,0 C 4.22748,0.33374 1.335,1.335 -0.6675,2.50311 V -2.50311 C 1.335,-1.335 4.22748,-0.33374 6.00752,0"
       style="fill:#4c4c4c;fill-opacity:1;fill-rule:nonzero;stroke:none"
       transform="matrix(0,1.07104,1.07104,0,145.29163,21.829029)" />
    <path
       id="path107"
       d="m -85.82787,84.0007 h 22.33928"
       style="fill:none;stroke:#4c4c4c;stroke-width:1.29515;stroke-linecap:butt;stroke-linejoin:miter;stroke-miterlimit:10;stroke-dasharray:none;stroke-opacity:1"
       transform="matrix(1.07104,0,0,-1.07104,252.397,135.36872)" />
    <path
       id="path108"
       d="M 6.00752,0 C 4.22748,0.33374 1.335,1.335 -0.6675,2.50311 V -2.50311 C 1.335,-1.335 4.22748,-0.33374 6.00752,0"
       style="fill:#4c4c4c;fill-opacity:1;fill-rule:nonzero;stroke:none"
       transform="matrix(1.07104,0,0,-1.07104,184.39818,45.400606)" />
    <path
       id="path109"
       d="m -43.30766,84.0007 h 22.33928"
       style="fill:none;stroke:#4c4c4c;stroke-width:1.29515;stroke-linecap:butt;stroke-linejoin:miter;stroke-miterlimit:10;stroke-dasharray:none;stroke-opacity:1"
       transform="matrix(1.07104,0,0,-1.07104,252.397,135.36872)" />
    <path
       id="path110"
       d="M 6.00752,0 C 4.22748,0.33374 1.335,1.335 -0.6675,2.50311 V -2.50311 C 1.335,-1.335 4.22748,-0.33374 6.00752,0"
       style="fill:#4c4c4c;fill-opacity:1;fill-rule:nonzero;stroke:none"
       transform="matrix(1.07104,0,0,-1.07104,229.93903,45.400606)" />
    <path
       id="path111"
       d="M -0.78746,84.0007 H 21.5518"
       style="fill:none;stroke:#4c4c4c;stroke-width:1.29515;stroke-linecap:butt;stroke-linejoin:miter;stroke-miterlimit:10;stroke-dasharray:none;stroke-opacity:1"
       transform="matrix(1.07104,0,0,-1.07104,252.397,135.36872)" />
    <path
       id="path112"
       d="M 6.00752,0 C 4.22748,0.33374 1.335,1.335 -0.6675,2.50311 V -2.50311 C 1.335,-1.335 4.22748,-0.33374 6.00752,0"
       style="fill:#4c4c4c;fill-opacity:1;fill-rule:nonzero;stroke:none"
       transform="matrix(1.07104,0,0,-1.07104,275.47984,45.400606)" />
    <path
       id="path113"
       d="m 0.8902629,-0.00174879 h 2.8010158 c 1.8235781,0 2.9614907,-1.37133071 2.9614907,-3.63256741 0,-2.2612367 -1.123324,-3.6325674 -2.9614907,-3.6325674 H 0.8902629 Z M 1.8093462,-0.81871174 V -6.4499207 h 1.7214577 c 1.4296851,0 2.1882936,0.9628492 2.1882936,2.8156045 0,1.8381666 -0.7586085,2.81560446 -2.1882936,2.81560446 z m 10.7080498,0.33553835 c -0.08753,0.0145886 -0.116709,0.0145886 -0.175063,0.0145886 -0.291773,0 -0.452247,-0.14588625 -0.452247,-0.40848148 V -3.9406773 c 0,-0.933672 -0.671077,-1.4296852 -1.9548761,-1.4296852 -0.7586085,0 -1.3859193,0.2188294 -1.7360463,0.6127222 -0.233418,0.2625953 -0.3355384,0.5543678 -0.3647156,1.0795582 h 0.8461402 c 0.072943,-0.6418994 0.4522473,-0.9336719 1.2254444,-0.9336719 0.7440194,0 1.1670904,0.2917725 1.1670904,0.7877857 v 0.2188293 c 0,0.350127 -0.21883,0.4960133 -0.875318,0.5689564 -1.1670898,0.1604749 -1.3567419,0.1896521 -1.663103,0.3209497 -0.6127223,0.2480066 -0.9190834,0.7148426 -0.9190834,1.4005079 0,0.9482606 0.6564881,1.54639419 1.7068691,1.54639419 0.656488,0 1.1816783,-0.23341798 1.7798123,-0.77319708 0.05835,0.52519047 0.32095,0.77319708 0.84614,0.77319708 0.175063,0 0.306361,-0.0291772 0.568956,-0.0875317 z M 11.073123,-1.6502633 c 0,0.2771838 -0.08753,0.4522473 -0.335539,0.68566531 -0.335538,0.30636111 -0.7440196,0.46683598 -1.2400329,0.46683598 -0.6418994,0 -1.0212036,-0.30636111 -1.0212036,-0.84614019 0,-0.5397791 0.3647156,-0.816963 1.2546216,-0.9482606 0.8753179,-0.116709 1.0649699,-0.1604748 1.3421539,-0.2917725 z m 4.183288,-3.5742129 H 14.41027 v -1.4296852 h -0.831551 v 1.4296852 h -0.700254 v 0.6856653 h 0.700254 v 3.93892852 c 0,0.52519047 0.364715,0.83155157 1.006615,0.83155157 0.204241,0 0.393893,-0.0291772 0.671077,-0.0729431 v -0.70025396 c -0.102121,0.0291773 -0.233418,0.0437659 -0.393893,0.0437659 -0.350127,0 -0.452248,-0.10212037 -0.452248,-0.46683598 V -4.5388109 h 0.846141 z m 5.569207,4.74130281 c -0.08753,0.0145886 -0.116709,0.0145886 -0.175064,0.0145886 -0.291772,0 -0.452247,-0.14588625 -0.452247,-0.40848148 V -3.9406773 c 0,-0.933672 -0.671077,-1.4296852 -1.954876,-1.4296852 -0.758608,0 -1.385919,0.2188294 -1.736046,0.6127222 -0.233418,0.2625953 -0.335538,0.5543678 -0.364716,1.0795582 h 0.846141 c 0.07294,-0.6418994 0.452247,-0.9336719 1.225444,-0.9336719 0.74402,0 1.16709,0.2917725 1.16709,0.7877857 v 0.2188293 c 0,0.350127 -0.218829,0.4960133 -0.875317,0.5689564 -1.16709,0.1604749 -1.356742,0.1896521 -1.663104,0.3209497 -0.612722,0.2480066 -0.919083,0.7148426 -0.919083,1.4005079 0,0.9482606 0.656488,1.54639419 1.706869,1.54639419 0.656488,0 1.181679,-0.23341798 1.779812,-0.77319708 0.05836,0.52519047 0.32095,0.77319708 0.84614,0.77319708 0.175064,0 0.306362,-0.0291772 0.568957,-0.0875317 z M 19.381344,-1.6502633 c 0,0.2771838 -0.08753,0.4522473 -0.335538,0.68566531 -0.335539,0.30636111 -0.74402,0.46683598 -1.240033,0.46683598 -0.6419,0 -1.021204,-0.30636111 -1.021204,-0.84614019 0,-0.5397791 0.364716,-0.816963 1.254622,-0.9482606 0.875317,-0.116709 1.064969,-0.1604748 1.342153,-0.2917725 z m 0,0"
       style="fill:#4c4c4c;fill-opacity:1;fill-rule:nonzero;stroke:none"
       aria-label="Data"
       transform="matrix(1.07104,0,0,1.07104,286.16368,49.142498)" />
    <path
       id="path114"
       d="m -85.82787,38.00098 h 22.33928"
       style="fill:none;stroke:#4c4c4c;stroke-width:1.29515;stroke-linecap:butt;stroke-linejoin:miter;stroke-miterlimit:10;stroke-dasharray:none;stroke-opacity:1"
       transform="matrix(1.07104,0,0,-1.07104,252.397,135.36872)" />
    <path
       id="path115"
       d="M 6.00752,0 C 4.22748,0.33374 1.335,1.335 -0.6675,2.50311 V -2.50311 C 1.335,-1.335 4.22748,-0.33374 6.00752,0"
       style="fill:#4c4c4c;fill-opacity:1;fill-rule:nonzero;stroke:none"
       transform="matrix(1.07104,0,0,-1.07104,184.39818,94.668146)" />
    <path
       id="path116"
       d="m -43.30766,38.00098 h 22.33928"
       style="fill:none;stroke:#4c4c4c;stroke-width:1.29515;stroke-linecap:butt;stroke-linejoin:miter;stroke-miterlimit:10;stroke-dasharray:none;stroke-opacity:1"
       transform="matrix(1.07104,0,0,-1.07104,252.397,135.36872)" />
    <path
       id="path117"
       d="M 6.00752,0 C 4.22748,0.33374 1.335,1.335 -0.6675,2.50311 V -2.50311 C 1.335,-1.335 4.22748,-0.33374 6.00752,0"
       style="fill:#4c4c4c;fill-opacity:1;fill-rule:nonzero;stroke:none"
       transform="matrix(1.07104,0,0,-1.07104,229.93903,94.668146)" />
    <path
       id="path118"
       d="m -85.82787,-10.00072 h 22.33928"
       style="fill:none;stroke:#4c4c4c;stroke-width:1.29515;stroke-linecap:butt;stroke-linejoin:miter;stroke-miterlimit:10;stroke-dasharray:none;stroke-opacity:1"
       transform="matrix(1.07104,0,0,-1.07104,252.397,135.36872)" />
    <path
       id="path119"
       d="M 6.00752,0 C 4.22748,0.33374 1.335,1.335 -0.6675,2.50311 V -2.50311 C 1.335,-1.335 4.22748,-0.33374 6.00752,0"
       style="fill:#4c4c4c;fill-opacity:1;fill-rule:nonzero;stroke:none"
       transform="matrix(1.07104,0,0,-1.07104,184.39818,146.07989)" />
    <path
       id="path120"
       d="M 90.00055,69.8273 V 47.48802"
       style="fill:none;stroke:#4c4c4c;stroke-width:1.29515;stroke-linecap:butt;stroke-linejoin:miter;stroke-miterlimit:10;stroke-dasharray:none;stroke-opacity:1"
       transform="matrix(1.07104,0,0,-1.07104,252.397,135.36872)" />
    <path
       id="path121"
       d="M 6.00752,0 C 4.22748,0.33374 1.335,1.335 -0.6675,2.50311 V -2.50311 C 1.335,-1.335 4.22748,-0.33374 6.00752,0"
       style="fill:#4c4c4c;fill-opacity:1;fill-rule:nonzero;stroke:none"
       transform="matrix(0,1.07104,1.07104,0,348.79119,84.507146)" />
    <path
       id="path122"
       d="M 90.00055,27.3071 V 4.96782"
       style="fill:none;stroke:#4c4c4c;stroke-width:1.29515;stroke-linecap:butt;stroke-linejoin:miter;stroke-miterlimit:10;stroke-dasharray:none;stroke-opacity:1"
       transform="matrix(1.07104,0,0,-1.07104,252.397,135.36872)" />
    <path
       id="path123"
       d="M 6.00752,0 C 4.22748,0.33374 1.335,1.335 -0.6675,2.50311 V -2.50311 C 1.335,-1.335 4.22748,-0.33374 6.00752,0"
       style="fill:#4c4c4c;fill-opacity:1;fill-rule:nonzero;stroke:none"
       transform="matrix(0,1.07104,1.07104,0,348.79119,130.04798)" />
    <path
       id="path124"
       d="M 90.00055,-15.2131 V -37.55237"
       style="fill:none;stroke:#4c4c4c;stroke-width:1.29515;stroke-linecap:butt;stroke-linejoin:miter;stroke-miterlimit:10;stroke-dasharray:none;stroke-opacity:1"
       transform="matrix(1.07104,0,0,-1.07104,252.397,135.36872)" />
    <path
       id="path125"
       d="M 6.00752,0 C 4.22748,0.33374 1.335,1.335 -0.6675,2.50311 V -2.50311 C 1.335,-1.335 4.22748,-0.33374 6.00752,0"
       style="fill:#4c4c4c;fill-opacity:1;fill-rule:nonzero;stroke:none"
       transform="matrix(0,1.07104,1.07104,0,348.79119,175.58881)" />
    <path
       id="path126"
       d="m 16.00058,26.66243 v -16.67"
       style="fill:none;stroke:#4c4c4c;stroke-width:1.29515;stroke-linecap:butt;stroke-linejoin:miter;stroke-miterlimit:10;stroke-dasharray:none;stroke-opacity:1"
       transform="matrix(1.07104,0,0,-1.07104,252.397,135.36872)" />
    <path
       id="path127"
       d="M 6.00752,0 C 4.22748,0.33374 1.335,1.335 -0.6675,2.50311 V -2.50311 C 1.335,-1.335 4.22748,-0.33374 6.00752,0"
       style="fill:#4c4c4c;fill-opacity:1;fill-rule:nonzero;stroke:none"
       transform="matrix(0,1.07104,1.07104,0,269.53426,124.66642)" />
    <path
       id="path128"
       d="M 16.00058,-7.35364 V -24.02362"
       style="fill:none;stroke:#4c4c4c;stroke-width:1.29515;stroke-linecap:butt;stroke-linejoin:miter;stroke-miterlimit:10;stroke-dasharray:none;stroke-opacity:1"
       transform="matrix(1.07104,0,0,-1.07104,252.397,135.36872)" />
    <path
       id="path129"
       d="M 6.00752,0 C 4.22748,0.33374 1.335,1.335 -0.6675,2.50311 V -2.50311 C 1.335,-1.335 4.22748,-0.33374 6.00752,0"
       style="fill:#4c4c4c;fill-opacity:1;fill-rule:nonzero;stroke:none"
       transform="matrix(0,1.07104,1.07104,0,269.53426,161.09897)" />
    <path
       id="path130"
       d="M 16.00058,-41.3697 V -58.03969"
       style="fill:none;stroke:#4c4c4c;stroke-width:1.29515;stroke-linecap:butt;stroke-linejoin:miter;stroke-miterlimit:10;stroke-dasharray:none;stroke-opacity:1"
       transform="matrix(1.07104,0,0,-1.07104,252.397,135.36872)" />
    <path
       id="path131"
       d="M 6.00752,0 C 4.22748,0.33374 1.335,1.335 -0.6675,2.50311 V -2.50311 C 1.335,-1.335 4.22748,-0.33374 6.00752,0"
       style="fill:#4c4c4c;fill-opacity:1;fill-rule:nonzero;stroke:none"
       transform="matrix(0,1.07104,1.07104,0,269.53426,197.53154)" />
    <path
       id="path132"
       d="m 1.8372982,-3.0786768 h 2.2758254 c 0.5689563,0 1.0212037,-0.1750635 1.4005079,-0.5251905 0.4376587,-0.3938928 0.6273108,-0.8607288 0.6273108,-1.5318055 0,-1.356742 -0.8023743,-2.1299391 -2.2320595,-2.1299391 H 0.90362626 V -4.7709391e-4 H 1.8372982 Z m 0,-0.8169629 V -6.448649 h 1.9256984 c 0.8899061,0 1.4150965,0.4814246 1.4150965,1.283799 0,0.7877857 -0.5251904,1.2692103 -1.4150965,1.2692103 z m 9.7452008,3.41373801 c -0.08753,0.0145886 -0.116709,0.0145886 -0.175063,0.0145886 -0.291773,0 -0.452248,-0.14588624 -0.452248,-0.40848147 V -3.9394056 c 0,-0.933672 -0.671076,-1.4296852 -1.9548753,-1.4296852 -0.7586085,0 -1.3859193,0.2188294 -1.7360463,0.6127222 -0.233418,0.2625953 -0.3355384,0.5543678 -0.3647156,1.0795582 H 7.745691 c 0.072943,-0.6418994 0.4522473,-0.9336719 1.2254444,-0.9336719 0.7440198,0 1.1670896,0.2917725 1.1670896,0.7877857 v 0.2188293 c 0,0.350127 -0.218829,0.4960133 -0.8753171,0.5689564 -1.1670899,0.1604749 -1.3567421,0.1896521 -1.6631032,0.3209497 -0.6127222,0.2480066 -0.9190833,0.7148426 -0.9190833,1.4005079 0,0.9482606 0.6564881,1.54639419 1.706869,1.54639419 0.6564881,0 1.1816786,-0.23341798391 1.7798126,-0.77319708 0.05835,0.52519047 0.320949,0.77319708 0.84614,0.77319708 0.175063,0 0.306361,-0.0291773 0.568956,-0.0875317 z M 10.138225,-1.6489916 c 0,0.2771838 -0.08753,0.4522473 -0.335538,0.68566531 -0.3355384,0.30636111 -0.7440198,0.46683598 -1.2400331,0.46683598 -0.6418994,0 -1.0212037,-0.30636111 -1.0212037,-0.84614019 0,-0.5397791 0.3647156,-0.816963 1.2546217,-0.9482606 0.8753175,-0.116709 1.0649696,-0.1604748 1.3421531,-0.2917725 z m 2.33418,-3.5742129 v 5.22272740609 h 0.831552 V -2.7139612 c 0,-0.7440198 0.189652,-1.2254444 0.598133,-1.5172169 0.262596,-0.1896521 0.510602,-0.2480066 1.079559,-0.2625952 v -0.8461402 c -0.131298,-0.014589 -0.204241,-0.029177 -0.32095,-0.029177 -0.525191,0 -0.933672,0.3209498 -1.415097,1.0941468 v -0.9482605 z m 5.554619,0 h -0.84614 v -1.4296852 h -0.831552 v 1.4296852 h -0.700254 v 0.6856653 h 0.700254 v 3.93892852 c 0,0.52519047 0.364716,0.83155157 1.006615,0.83155157 0.204241,0 0.393893,-0.0291773 0.671077,-0.0729431 v -0.70025396 c -0.102121,0.0291773 -0.233418,0.0437659 -0.393893,0.0437659 -0.350127,0 -0.452247,-0.10212037 -0.452247,-0.46683598 V -4.5375392 h 0.84614 z m 1.732399,0 H 18.94246 v 5.22272740609 h 0.816963 z m 0,-2.0424074 h -0.831552 v 1.0503809 h 0.831552 z m 6.046985,6.78371021 c -0.08753,0.0145886 -0.116709,0.0145886 -0.175064,0.0145886 -0.291772,0 -0.452247,-0.14588624 -0.452247,-0.40848147 V -3.9394056 c 0,-0.933672 -0.671077,-1.4296852 -1.954876,-1.4296852 -0.758608,0 -1.385919,0.2188294 -1.736046,0.6127222 -0.233418,0.2625953 -0.335538,0.5543678 -0.364716,1.0795582 H 21.9696 c 0.07294,-0.6418994 0.452247,-0.9336719 1.225444,-0.9336719 0.74402,0 1.16709,0.2917725 1.16709,0.7877857 v 0.2188293 c 0,0.350127 -0.218829,0.4960133 -0.875318,0.5689564 -1.16709,0.1604749 -1.356742,0.1896521 -1.663103,0.3209497 -0.612722,0.2480066 -0.919083,0.7148426 -0.919083,1.4005079 0,0.9482606 0.656488,1.54639419 1.706869,1.54639419 0.656488,0 1.181679,-0.23341798391 1.779812,-0.77319708 0.05835,0.52519047 0.32095,0.77319708 0.84614,0.77319708 0.175064,0 0.306361,-0.0291773 0.568957,-0.0875317 z M 24.362134,-1.6489916 c 0,0.2771838 -0.08753,0.4522473 -0.335538,0.68566531 -0.335539,0.30636111 -0.74402,0.46683598 -1.240034,0.46683598 -0.641899,0 -1.021203,-0.30636111 -1.021203,-0.84614019 0,-0.5397791 0.364715,-0.816963 1.254621,-0.9482606 0.875318,-0.116709 1.06497,-0.1604748 1.342154,-0.2917725 z m 3.176673,-5.6166203 h -0.84614 v 7.26513480609 h 0.84614 z m 9.402368,2.1299391 c -0.01459,-1.4150965 -0.992026,-2.2466481 -2.65513,-2.2466481 -1.604748,0 -2.582186,0.8169629 -2.582186,2.1299391 0,0.8899061 0.466836,1.4442738 1.415097,1.6922804 l 1.808989,0.4814246 c 0.919083,0.233418 1.342153,0.6127222 1.342153,1.1816786 0,0.3793042 -0.218829,0.7877857 -0.52519,1.00661503 -0.291773,0.18965212 -0.74402,0.30636111 -1.327565,0.30636111 -0.787786,0 -1.327565,-0.18965211 -1.677692,-0.61272224 C 32.462467,-1.517694 32.345758,-1.867821 32.360347,-2.3054797 H 31.48503 c 0,0.6564881 0.131297,1.0941468 0.42307,1.50262828 0.496013,0.67107671 1.342153,1.03579231 2.4363,1.03579231 0.875317,0 1.575571,-0.20424074 2.056996,-0.56895634 0.481425,-0.37930423 0.787786,-1.03579235 0.787786,-1.66310315 0,-0.8899061 -0.554368,-1.5463942 -1.546395,-1.823578 l -1.823578,-0.4814246 c -0.875317,-0.233418 -1.196267,-0.5251905 -1.196267,-1.0795582 0,-0.7294312 0.656488,-1.2254444 1.633926,-1.2254444 1.152502,0 1.794401,0.5251904 1.80899,1.473451 z m 5.507206,5.13519570609 V -5.2232045 h -0.816963 v 2.9614907 c 0,1.0649695 -0.568957,1.76522349 -1.429685,1.76522349 -0.656489,0 -1.079559,-0.39389286 -1.079559,-1.02120369 v -3.7055105 h -0.831551 v 4.0264602 c 0,0.86072885 0.656488,1.42968519 1.663103,1.42968519 0.773197,0 1.26921,-0.27718386 1.750635,-0.96284919 V -4.7709391e-4 Z M 43.889007,-5.2232045 v 5.22272740609 h 0.831552 V -3.2829175 c 0,-0.7586085 0.554368,-1.3567421 1.225444,-1.3567421 0.627311,0 0.962849,0.3793043 0.962849,1.0357923 v 3.60339020609 h 0.846141 V -3.2829175 c 0,-0.7586085 0.539779,-1.3567421 1.225444,-1.3567421 0.598134,0 0.962849,0.3793043 0.962849,1.0357923 v 3.60339020609 h 0.831552 V -3.9102284 c 0,-0.9482605 -0.525191,-1.4588624 -1.502628,-1.4588624 -0.700254,0 -1.123324,0.2042408 -1.604749,0.8023743 -0.32095,-0.5689563 -0.729431,-0.8023743 -1.415097,-0.8023743 -0.685665,0 -1.152501,0.2625953 -1.604748,0.8899061 v -0.7440198 z m 11.959025,1.4588624 c -0.01459,-1.0357923 -0.685665,-1.6047487 -1.896521,-1.6047487 -1.210856,0 -1.998642,0.6273109 -1.998642,1.5901601 0,0.8169629 0.42307,1.2108558 1.648515,1.5026282 l 0.787786,0.1896522 c 0.568956,0.1458862 0.802374,0.3501269 0.802374,0.7294312 0,0.49601318 -0.481425,0.81696291 -1.210856,0.81696291 -0.452247,0 -0.831552,-0.13129761 -1.035792,-0.35012698 C 52.813598,-1.0362694 52.755244,-1.1821556 52.696889,-1.5614599 h -0.875317 c 0.04377,1.21085583 0.714842,1.79440079 2.086173,1.79440079 1.312976,0 2.144528,-0.65648808 2.144528,-1.66310319 0,-0.773197 -0.437659,-1.1962671 -1.473451,-1.4442737 l -0.787786,-0.1896522 c -0.685665,-0.1604748 -0.962849,-0.3793042 -0.962849,-0.7586084 0,-0.466836 0.42307,-0.7877857 1.094147,-0.7877857 0.671076,0 1.035792,0.2917725 1.05038,0.8461402 z m 0,0"
       style="fill:#4c4c4c;fill-opacity:1;fill-rule:nonzero;stroke:none"
       aria-label="PartialSums"
       transform="matrix(1.07104,0,0,1.07104,239.2939,216.06301)" />
    <path
       id="path133"
       d="m -34.00005,-10.00072 v -16.67"
       style="fill:none;stroke:#4c4c4c;stroke-width:1.29515;stroke-linecap:butt;stroke-linejoin:miter;stroke-miterlimit:10;stroke-dasharray:none;stroke-opacity:1"
       transform="matrix(1.07104,0,0,-1.07104,252.397,135.36872)" />
    <path
       id="path134"
       d="M 6.00752,0 C 4.22748,0.33374 1.335,1.335 -0.6675,2.50311 V -2.50311 C 1.335,-1.335 4.22748,-0.33374 6.00752,0"
       style="fill:#4c4c4c;fill-opacity:1;fill-rule:nonzero;stroke:none"
       transform="matrix(0,1.07104,1.07104,0,215.98159,163.93412)" />
    <path
       id="path135"
       d="m -34.00005,-41.18236 v -16.67"
       style="fill:none;stroke:#4c4c4c;stroke-width:1.29515;stroke-linecap:butt;stroke-linejoin:miter;stroke-miterlimit:10;stroke-dasharray:none;stroke-opacity:1"
       transform="matrix(1.07104,0,0,-1.07104,252.397,135.36872)" />
    <path
       id="path136"
       d="M 6.00752,0 C 4.22748,0.33374 1.335,1.335 -0.6675,2.50311 V -2.50311 C 1.335,-1.335 4.22748,-0.33374 6.00752,0"
       style="fill:#4c4c4c;fill-opacity:1;fill-rule:nonzero;stroke:none"
       transform="matrix(0,1.07104,1.07104,0,215.98159,197.33091)" />
    <path
       id="path137"
       d="M -34.00005,-72.36401 V -89.034"
       style="fill:none;stroke:#4c4c4c;stroke-width:1.29515;stroke-linecap:butt;stroke-linejoin:miter;stroke-miterlimit:10;stroke-dasharray:none;stroke-opacity:1"
       transform="matrix(1.07104,0,0,-1.07104,252.397,135.36872)" />
    <path
       id="path138"
       d="M 6.00752,0 C 4.22748,0.33374 1.335,1.335 -0.6675,2.50311 V -2.50311 C 1.335,-1.335 4.22748,-0.33374 6.00752,0"
       style="fill:#4c4c4c;fill-opacity:1;fill-rule:nonzero;stroke:none"
       transform="matrix(0,1.07104,1.07104,0,215.98159,230.72769)" />
  </g>
</svg>
