<?xml version="1.0" encoding="utf-8" standalone="no"?>
<!DOCTYPE svg PUBLIC "-//W3C//DTD SVG 1.1//EN"
  "http://www.w3.org/Graphics/SVG/1.1/DTD/svg11.dtd">
<svg xmlns:xlink="http://www.w3.org/1999/xlink" width="75.42pt" height="66.636pt" viewBox="0 0 75.42 66.636" xmlns="http://www.w3.org/2000/svg" version="1.1">
 <metadata>
  <rdf:RDF xmlns:dc="http://purl.org/dc/elements/1.1/" xmlns:cc="http://creativecommons.org/ns#" xmlns:rdf="http://www.w3.org/1999/02/22-rdf-syntax-ns#">
   <cc:Work>
    <dc:type rdf:resource="http://purl.org/dc/dcmitype/StillImage"/>
    <dc:format>image/svg+xml</dc:format>
    <dc:creator>
     <cc:Agent>
      <dc:title>Matplotlib v3.10.8, https://matplotlib.org/</dc:title>
     </cc:Agent>
    </dc:creator>
   </cc:Work>
  </rdf:RDF>
 </metadata>
 <defs>
  <style type="text/css">*{stroke-linejoin: round; stroke-linecap: butt}</style>
 </defs>
 <g id="figure_1">
  <g id="patch_1">
   <path d="M 0 66.636
L 75.42 66.636
L 75.42 0
L 0 0
z
" style="fill: #ffffff"/>
  </g>
  <g id="axes_1">
   <g id="patch_2">
    <path d="M 1.44 65.196
L 73.98 65.196
L 73.98 1.44
L 1.44 1.44
z
" style="fill: #ffffff"/>
   </g>
   <g id="matplotlib.axis_1">
    <g id="xtick_1">
     <g id="line2d_1"/>
    </g>
    <g id="xtick_2">
     <g id="line2d_2"/>
    </g>
    <g id="xtick_3">
     <g id="line2d_3"/>
    </g>
    <g id="xtick_4">
     <g id="line2d_4"/>
    </g>
    <g id="xtick_5">
     <g id="line2d_5"/>
    </g>
    <g id="xtick_6">
     <g id="line2d_6"/>
    </g>
    <g id="xtick_7">
     <g id="line2d_7"/>
    </g>
    <g id="xtick_8">
     <g id="line2d_8"/>
    </g>
    <g id="xtick_9">
     <g id="line2d_9"/>
    </g>
    <g id="xtick_10">
     <g id="line2d_10"/>
    </g>
    <g id="xtick_11">
     <g id="line2d_11"/>
    </g>
    <g id="xtick_12">
     <g id="line2d_12"/>
    </g>
    <g id="xtick_13">
     <g id="line2d_13"/>
    </g>
    <g id="xtick_14">
     <g id="line2d_14"/>
    </g>
    <g id="xtick_15">
     <g id="line2d_15"/>
    </g>
    <g id="xtick_16">
     <g id="line2d_16"/>
    </g>
    <g id="xtick_17">
     <g id="line2d_17"/>
    </g>
    <g id="xtick_18">
     <g id="line2d_18"/>
    </g>
    <g id="xtick_19">
     <g id="line2d_19"/>
    </g>
    <g id="xtick_20">
     <g id="line2d_20"/>
    </g>
    <g id="xtick_21">
     <g id="line2d_21"/>
    </g>
    <g id="xtick_22">
     <g id="line2d_22"/>
    </g>
    <g id="xtick_23">
     <g id="line2d_23"/>
    </g>
    <g id="xtick_24">
     <g id="line2d_24"/>
    </g>
    <g id="xtick_25">
     <g id="line2d_25"/>
    </g>
    <g id="xtick_26">
     <g id="line2d_26"/>
    </g>
    <g id="xtick_27">
     <g id="line2d_27"/>
    </g>
    <g id="xtick_28">
     <g id="line2d_28"/>
    </g>
    <g id="xtick_29">
     <g id="line2d_29"/>
    </g>
    <g id="xtick_30">
     <g id="line2d_30"/>
    </g>
    <g id="xtick_31">
     <g id="line2d_31"/>
    </g>
    <g id="xtick_32">
     <g id="line2d_32"/>
    </g>
   </g>
   <g id="matplotlib.axis_2">
    <g id="ytick_1">
     <g id="line2d_33"/>
    </g>
    <g id="ytick_2">
     <g id="line2d_34"/>
    </g>
    <g id="ytick_3">
     <g id="line2d_35"/>
    </g>
    <g id="ytick_4">
     <g id="line2d_36"/>
    </g>
    <g id="ytick_5">
     <g id="line2d_37"/>
    </g>
    <g id="ytick_6">
     <g id="line2d_38"/>
    </g>
    <g id="ytick_7">
     <g id="line2d_39"/>
    </g>
    <g id="ytick_8">
     <g id="line2d_40"/>
    </g>
    <g id="ytick_9">
     <g id="line2d_41"/>
    </g>
    <g id="ytick_10">
     <g id="line2d_42"/>
    </g>
    <g id="ytick_11">
     <g id="line2d_43"/>
    </g>
    <g id="ytick_12">
     <g id="line2d_44"/>
    </g>
    <g id="ytick_13">
     <g id="line2d_45"/>
    </g>
    <g id="ytick_14">
     <g id="line2d_46"/>
    </g>
    <g id="ytick_15">
     <g id="line2d_47"/>
    </g>
    <g id="ytick_16">
     <g id="line2d_48"/>
    </g>
    <g id="ytick_17">
     <g id="line2d_49"/>
    </g>
    <g id="ytick_18">
     <g id="line2d_50"/>
    </g>
    <g id="ytick_19">
     <g id="line2d_51"/>
    </g>
    <g id="ytick_20">
     <g id="line2d_52"/>
    </g>
    <g id="ytick_21">
     <g id="line2d_53"/>
    </g>
    <g id="ytick_22">
     <g id="line2d_54"/>
    </g>
    <g id="ytick_23">
     <g id="line2d_55"/>
    </g>
    <g id="ytick_24">
     <g id="line2d_56"/>
    </g>
    <g id="ytick_25">
     <g id="line2d_57"/>
    </g>
    <g id="ytick_26">
     <g id="line2d_58"/>
    </g>
    <g id="ytick_27">
     <g id="line2d_59"/>
    </g>
    <g id="ytick_28">
     <g id="line2d_60"/>
    </g>
    <g id="ytick_29">
     <g id="line2d_61"/>
    </g>
    <g id="ytick_30">
     <g id="line2d_62"/>
    </g>
    <g id="ytick_31">
     <g id="line2d_63"/>
    </g>
    <g id="ytick_32">
     <g id="line2d_64"/>
    </g>
   </g>
   <g id="line2d_65">
    <path d="M 1.44 57.488936
L 60.625356 6.514007
L 60.625356 6.514007
" clip-path="url(#pb95f9e5162)" style="fill: none; stroke: #006395; stroke-width: 1.45; stroke-linecap: square"/>
   </g>
   <g id="line2d_66">
    <path d="M 60.92887 6.302616
L 61.232385 6.302616
L 61.5359 6.302616
L 61.839414 6.302616
L 62.142929 6.302616
L 62.446444 6.302616
L 62.749958 6.302616
L 63.053473 6.302616
L 63.356987 6.302616
L 63.660502 6.302616
L 63.964017 6.302616
L 64.267531 6.302616
L 64.571046 6.302616
L 64.874561 6.302616
L 65.178075 6.302616
L 65.48159 6.302616
L 65.785105 6.302616
L 66.088619 6.302616
L 66.392134 6.302616
L 66.695649 6.302616
L 66.999163 6.302616
L 67.302678 6.302616
L 67.606192 6.302616
L 67.909707 6.302616
L 68.213222 6.302616
L 68.516736 6.302616
L 68.820251 6.302616
L 69.123766 6.302616
L 69.42728 6.302616
L 69.730795 6.302616
L 70.03431 6.302616
L 70.337824 6.302616
L 70.641339 6.302616
L 70.944854 6.302616
L 71.248368 6.302616
L 71.551883 6.302616
L 71.855397 6.302616
L 72.158912 6.302616
L 72.462427 6.302616
L 72.765941 6.302616
L 73.069456 6.302616
L 73.372971 6.302616
L 73.676485 6.302616
L 73.98 6.302616
" clip-path="url(#pb95f9e5162)" style="fill: none; stroke: #e67817; stroke-width: 1.45; stroke-linecap: square"/>
   </g>
   <g id="line2d_67">
    <path d="M 60.870795 65.196
L 60.870795 1.44
" clip-path="url(#pb95f9e5162)" style="fill: none; stroke-dasharray: 2.035,0.88; stroke-dashoffset: 0; stroke: #cccccc; stroke-width: 0.55"/>
   </g>
   <g id="patch_3">
    <path d="M 1.44 65.196
L 1.44 1.44
" style="fill: none; stroke: #cccccc; stroke-width: 0.55; stroke-linejoin: miter; stroke-linecap: square"/>
   </g>
   <g id="patch_4">
    <path d="M 1.44 65.196
L 73.98 65.196
" style="fill: none; stroke: #cccccc; stroke-width: 0.55; stroke-linejoin: miter; stroke-linecap: square"/>
   </g>
   <g id="patch_5">
    <path d="M 16.062661 44.894788
Q 37.131226 26.748938 57.691506 9.040862
" style="fill: none; stroke: #777777; stroke-width: 0.6; stroke-linecap: round"/>
    <path d="M 55.306696 9.643093
L 57.691506 9.040862
L 56.742405 11.310048
" style="fill: none; stroke: #777777; stroke-width: 0.6; stroke-linecap: round"/>
   </g>
   <g id="text_1">
    <!-- B=1 -->
    <g style="fill: #006395" transform="translate(10.031236 45.211055) scale(0.05 -0.05)">
     <defs>
      <path id="Helvetica-42" d="M 2213 2650
Q 2606 2650 2825 2759
Q 3169 2931 3169 3378
Q 3169 3828 2803 3984
Q 2597 4072 2191 4072
L 1081 4072
L 1081 2650
L 2213 2650
z
M 2422 531
Q 2994 531 3238 863
Q 3391 1072 3391 1369
Q 3391 1869 2944 2050
Q 2706 2147 2316 2147
L 1081 2147
L 1081 531
L 2422 531
z
M 472 4591
L 2444 4591
Q 3250 4591 3591 4109
Q 3791 3825 3791 3453
Q 3791 3019 3544 2741
Q 3416 2594 3175 2472
Q 3528 2338 3703 2169
Q 4013 1869 4013 1341
Q 4013 897 3734 538
Q 3319 0 2413 0
L 472 0
L 472 4591
z
" transform="scale(0.015625)"/>
      <path id="Helvetica-3d" d="M 3547 2569
L 3547 2044
L 288 2044
L 288 2569
L 3547 2569
z
M 3547 1228
L 3547 694
L 288 694
L 288 1228
L 3547 1228
z
" transform="scale(0.015625)"/>
      <path id="Helvetica-31" d="M 613 3169
L 613 3600
Q 1222 3659 1462 3798
Q 1703 3938 1822 4456
L 2266 4456
L 2266 0
L 1666 0
L 1666 3169
L 613 3169
z
" transform="scale(0.015625)"/>
     </defs>
     <use xlink:href="#Helvetica-42"/>
     <use xlink:href="#Helvetica-3d" transform="translate(66.699219 0)"/>
     <use xlink:href="#Helvetica-31" transform="translate(125.097656 0)"/>
    </g>
   </g>
   <g id="text_2">
    <!-- B=256 -->
    <g style="fill: #e67817" transform="translate(52.417384 12.892345) scale(0.05 -0.05)">
     <defs>
      <path id="Helvetica-32" d="M 200 0
Q 231 578 439 1006
Q 647 1434 1250 1784
L 1850 2131
Q 2253 2366 2416 2531
Q 2672 2791 2672 3125
Q 2672 3516 2437 3745
Q 2203 3975 1813 3975
Q 1234 3975 1013 3538
Q 894 3303 881 2888
L 309 2888
Q 319 3472 525 3841
Q 891 4491 1816 4491
Q 2584 4491 2939 4075
Q 3294 3659 3294 3150
Q 3294 2613 2916 2231
Q 2697 2009 2131 1694
L 1703 1456
Q 1397 1288 1222 1134
Q 909 863 828 531
L 3272 531
L 3272 0
L 200 0
z
" transform="scale(0.015625)"/>
      <path id="Helvetica-35" d="M 791 1141
Q 847 659 1238 475
Q 1438 381 1700 381
Q 2200 381 2440 700
Q 2681 1019 2681 1406
Q 2681 1875 2395 2131
Q 2109 2388 1709 2388
Q 1419 2388 1211 2275
Q 1003 2163 856 1963
L 369 1991
L 709 4400
L 3034 4400
L 3034 3856
L 1131 3856
L 941 2613
Q 1097 2731 1238 2791
Q 1488 2894 1816 2894
Q 2431 2894 2859 2497
Q 3288 2100 3288 1491
Q 3288 856 2895 371
Q 2503 -113 1644 -113
Q 1097 -113 676 195
Q 256 503 206 1141
L 791 1141
z
" transform="scale(0.015625)"/>
      <path id="Helvetica-36" d="M 1872 4494
Q 2622 4494 2917 4105
Q 3213 3716 3213 3303
L 2656 3303
Q 2606 3569 2497 3719
Q 2294 4000 1881 4000
Q 1409 4000 1131 3564
Q 853 3128 822 2316
Q 1016 2600 1309 2741
Q 1578 2866 1909 2866
Q 2472 2866 2890 2506
Q 3309 2147 3309 1434
Q 3309 825 2912 354
Q 2516 -116 1781 -116
Q 1153 -116 697 361
Q 241 838 241 1966
Q 241 2800 444 3381
Q 834 4494 1872 4494
z
M 1831 384
Q 2275 384 2495 682
Q 2716 981 2716 1388
Q 2716 1731 2519 2042
Q 2322 2353 1803 2353
Q 1441 2353 1167 2112
Q 894 1872 894 1388
Q 894 963 1142 673
Q 1391 384 1831 384
z
" transform="scale(0.015625)"/>
     </defs>
     <use xlink:href="#Helvetica-42"/>
     <use xlink:href="#Helvetica-3d" transform="translate(66.699219 0)"/>
     <use xlink:href="#Helvetica-32" transform="translate(125.097656 0)"/>
     <use xlink:href="#Helvetica-35" transform="translate(180.712891 0)"/>
     <use xlink:href="#Helvetica-36" transform="translate(236.328125 0)"/>
    </g>
   </g>
   <g id="line2d_68">
    <defs>
     <path id="m3a64f1ad0f" d="M 0 1.7
C 0.450845 1.7 0.883286 1.520877 1.202082 1.202082
C 1.520877 0.883286 1.7 0.450845 1.7 0
C 1.7 -0.450845 1.520877 -0.883286 1.202082 -1.202082
C 0.883286 -1.520877 0.450845 -1.7 0 -1.7
C -0.450845 -1.7 -0.883286 -1.520877 -1.202082 -1.202082
C -1.520877 -0.883286 -1.7 -0.450845 -1.7 0
C -1.7 0.450845 -1.520877 0.883286 -1.202082 1.202082
C -0.883286 1.520877 -0.450845 1.7 0 1.7
z
" style="stroke: #006395"/>
    </defs>
    <g clip-path="url(#pb95f9e5162)">
     <use xlink:href="#m3a64f1ad0f" x="14.549205" y="46.198292" style="fill: #006395; stroke: #006395"/>
    </g>
   </g>
   <g id="line2d_69">
    <defs>
     <path id="m589f3f28cf" d="M 0 1.7
C 0.450845 1.7 0.883286 1.520877 1.202082 1.202082
C 1.520877 0.883286 1.7 0.450845 1.7 0
C 1.7 -0.450845 1.520877 -0.883286 1.202082 -1.202082
C 0.883286 -1.520877 0.450845 -1.7 0 -1.7
C -0.450845 -1.7 -0.883286 -1.520877 -1.202082 -1.202082
C -1.520877 -0.883286 -1.7 -0.450845 -1.7 0
C -1.7 0.450845 -1.520877 0.883286 -1.202082 1.202082
C -0.883286 1.520877 -0.450845 1.7 0 1.7
z
" style="stroke: #e67817"/>
    </defs>
    <g clip-path="url(#pb95f9e5162)">
     <use xlink:href="#m589f3f28cf" x="59.715822" y="7.297367" style="fill: #e67817; stroke: #e67817"/>
    </g>
   </g>
  </g>
 </g>
 <defs>
  <clipPath id="pb95f9e5162">
   <rect x="1.44" y="1.44" width="72.54" height="63.756"/>
  </clipPath>
 </defs>
</svg>
