<?xml version="1.0" encoding="UTF-8"?>
<!DOCTYPE svg PUBLIC "-//W3C//DTD SVG 1.1//EN"
  "http://www.w3.org/Graphics/SVG/1.1/DTD/svg11.dtd">
<svg xmlns:xlink="http://www.w3.org/1999/xlink" width="75.42pt" height="50.004pt" viewBox="0 0 75.42 50.004" xmlns="http://www.w3.org/2000/svg" version="1.1">
 <metadata>
  <rdf:RDF xmlns:dc="http://purl.org/dc/elements/1.1/" xmlns:cc="http://creativecommons.org/ns#" xmlns:rdf="http://www.w3.org/1999/02/22-rdf-syntax-ns#">
   <cc:Work>
    <dc:type rdf:resource="http://purl.org/dc/dcmitype/StillImage"/>
    <dc:format>image/svg+xml</dc:format>
    <dc:creator>
     <cc:Agent>
      <dc:title>Matplotlib v3.10.8, https://matplotlib.org/</dc:title>
     </cc:Agent>
    </dc:creator>
   </cc:Work>
  </rdf:RDF>
 </metadata>
 <defs>
  <style type="text/css">*{stroke-linejoin: round; stroke-linecap: butt}</style>
 </defs>
 <g id="figure_1">
  <g id="patch_1">
   <path d="M 0 50.004
L 75.42 50.004
L 75.42 0
L 0 0
z
" style="fill: #ffffff"/>
  </g>
  <g id="axes_1">
   <g id="patch_2">
    <path d="M 1.44 48.564
L 73.98 48.564
L 73.98 1.44
L 1.44 1.44
z
" style="fill: #ffffff"/>
   </g>
   <g id="matplotlib.axis_1"/>
   <g id="matplotlib.axis_2"/>
   <g id="line2d_1">
    <path d="M 1.44 42.90912
L 73.98 42.90912
" clip-path="url(#pcda5fadba2)" style="fill: none; stroke: #cccccc; stroke-width: 0.6; stroke-linecap: square"/>
   </g>
   <g id="line2d_2">
    <path d="M 1.44 42.90912
L 2.172727 41.588652
L 2.905455 40.312764
L 3.638182 39.079951
L 4.370909 37.888758
L 5.103636 36.73778
L 5.836364 35.625659
L 6.569091 34.551084
L 7.301818 33.512787
L 8.034545 32.509543
L 8.767273 31.54017
L 9.5 30.603522
L 10.232727 29.698497
L 10.965455 28.824025
L 11.698182 27.979076
L 12.430909 27.162652
L 13.163636 26.373792
L 13.896364 25.611563
L 14.629091 24.875068
L 15.361818 24.163437
L 16.094545 23.475831
L 16.827273 22.811439
L 17.56 22.169477
L 18.292727 21.549188
L 19.025455 20.94984
L 19.758182 20.370727
L 20.490909 19.811164
L 21.223636 19.270493
L 21.956364 18.748075
L 22.689091 18.243293
L 23.421818 17.755554
L 24.154545 17.284281
L 24.887273 16.828918
L 25.62 16.388928
L 26.352727 15.963793
L 27.085455 15.55301
L 27.818182 15.156095
L 28.550909 14.772581
L 29.283636 14.402014
L 30.016364 14.043958
L 30.749091 13.697989
L 31.481818 13.363701
L 32.214545 13.040698
L 32.947273 12.7286
L 33.68 12.427039
L 34.412727 12.135659
L 35.145455 11.854115
L 35.878182 11.582077
L 36.610909 11.319223
L 37.343636 11.065242
L 38.076364 10.819837
L 38.809091 10.582716
L 39.541818 10.353601
L 40.274545 10.13222
L 41.007273 9.918314
L 41.74 9.711629
L 42.472727 9.511921
L 43.205455 9.318956
L 43.938182 9.132506
L 44.670909 8.95235
L 45.403636 8.778277
L 46.136364 8.61008
L 46.869091 8.447561
L 47.601818 8.290529
L 48.334545 8.138799
L 49.067273 7.992191
L 49.8 7.850533
L 50.532727 7.713657
L 51.265455 7.581402
L 51.998182 7.453612
L 52.730909 7.330137
L 53.463636 7.21083
L 54.196364 7.09555
L 54.929091 6.984163
L 55.661818 6.876536
L 56.394545 6.772543
L 57.127273 6.67206
L 57.86 6.57497
L 58.592727 6.481158
L 59.325455 6.390512
L 60.058182 6.302927
L 60.790909 6.218299
L 61.523636 6.136528
L 62.256364 6.057518
L 62.989091 5.981175
L 63.721818 5.907409
L 64.454545 5.836134
L 65.187273 5.767265
L 65.92 5.700721
L 66.652727 5.636424
L 67.385455 5.574297
L 68.118182 5.514268
L 68.850909 5.456265
L 69.583636 5.400221
L 70.316364 5.346068
L 71.049091 5.293744
L 71.781818 5.243187
L 72.514545 5.194336
L 73.247273 5.147134
L 73.98 5.101526
" clip-path="url(#pcda5fadba2)" style="fill: none; stroke: #333333; stroke-width: 1.35; stroke-linecap: square"/>
   </g>
   <g id="line2d_3">
    <defs>
     <path id="m4dd36f4867" d="M 0 1.65
C 0.437585 1.65 0.857307 1.476146 1.166726 1.166726
C 1.476146 0.857307 1.65 0.437585 1.65 0
C 1.65 -0.437585 1.476146 -0.857307 1.166726 -1.166726
C 0.857307 -1.476146 0.437585 -1.65 0 -1.65
C -0.437585 -1.65 -0.857307 -1.476146 -1.166726 -1.166726
C -1.476146 -0.857307 -1.65 -0.437585 -1.65 0
C -1.65 0.437585 -1.476146 0.857307 -1.166726 1.166726
C -0.857307 1.476146 -0.437585 1.65 0 1.65
z
" style="stroke: #008f45"/>
    </defs>
    <g clip-path="url(#pcda5fadba2)">
     <use xlink:href="#m4dd36f4867" x="37.343636" y="11.065242" style="fill: #008f45; stroke: #008f45"/>
    </g>
   </g>
  </g>
 </g>
 <defs>
  <clipPath id="pcda5fadba2">
   <rect x="1.44" y="1.44" width="72.54" height="47.124"/>
  </clipPath>
 </defs>
</svg>
