<?xml version="1.0" encoding="utf-8" standalone="no"?>
<!DOCTYPE svg PUBLIC "-//W3C//DTD SVG 1.1//EN"
  "http://www.w3.org/Graphics/SVG/1.1/DTD/svg11.dtd">
<svg xmlns:xlink="http://www.w3.org/1999/xlink" width="68.724pt" height="42.7968pt" viewBox="0 0 68.724 42.7968" xmlns="http://www.w3.org/2000/svg" version="1.1">
 <metadata>
  <rdf:RDF xmlns:dc="http://purl.org/dc/elements/1.1/" xmlns:cc="http://creativecommons.org/ns#" xmlns:rdf="http://www.w3.org/1999/02/22-rdf-syntax-ns#">
   <cc:Work>
    <dc:type rdf:resource="http://purl.org/dc/dcmitype/StillImage"/>
    <dc:format>image/svg+xml</dc:format>
    <dc:creator>
     <cc:Agent>
      <dc:title>Matplotlib v3.10.8, https://matplotlib.org/</dc:title>
     </cc:Agent>
    </dc:creator>
   </cc:Work>
  </rdf:RDF>
 </metadata>
 <defs>
  <style type="text/css">*{stroke-linejoin: round; stroke-linecap: butt}</style>
 </defs>
 <g id="figure_1">
  <g id="patch_1">
   <path d="M 0 42.7968
L 68.724 42.7968
L 68.724 0
L 0 0
z
" style="fill: #ffffff"/>
  </g>
  <g id="axes_1">
   <g id="patch_2">
    <path d="M 1.44 41.3568
L 67.284 41.3568
L 67.284 1.44
L 1.44 1.44
z
" style="fill: #ffffff"/>
   </g>
   <g id="FillBetweenPolyCollection_1">
    <defs>
     <path id="mc1e98b1eca" d="M 30.212168 -20.486016
L 30.212168 -20.458693
L 30.765479 -20.592895
L 31.31879 -20.724638
L 31.872101 -20.853968
L 32.425412 -20.980929
L 32.978723 -21.105565
L 33.532034 -21.227917
L 34.085345 -21.348029
L 34.638655 -21.46594
L 35.191966 -21.581691
L 35.745277 -21.695322
L 36.298588 -21.806872
L 36.851899 -21.916378
L 37.40521 -22.023878
L 37.958521 -22.12941
L 38.511832 -22.233008
L 39.065143 -22.334708
L 39.618454 -22.434546
L 40.171765 -22.532555
L 40.725076 -22.628768
L 41.278387 -22.72322
L 41.831697 -22.815941
L 42.385008 -22.906963
L 42.938319 -22.996318
L 43.49163 -23.084037
L 44.044941 -23.170149
L 44.598252 -23.254683
L 45.151563 -23.337669
L 45.704874 -23.419135
L 46.258185 -23.499108
L 46.811496 -23.577617
L 47.364807 -23.654688
L 47.918118 -23.730347
L 48.471429 -23.804619
L 49.024739 -23.877532
L 49.57805 -23.949109
L 50.131361 -24.019374
L 50.684672 -24.088353
L 51.237983 -24.156068
L 51.791294 -24.222543
L 52.344605 -24.2878
L 52.897916 -24.351862
L 53.451227 -24.41475
L 54.004538 -24.476487
L 54.557849 -24.537092
L 55.11116 -24.596587
L 55.664471 -24.654993
L 56.217782 -24.712329
L 56.771092 -24.768614
L 57.324403 -24.823868
L 57.877714 -24.878111
L 58.431025 -24.931359
L 58.984336 -24.983633
L 59.537647 -25.034948
L 60.090958 -25.085324
L 60.644269 -25.134777
L 61.19758 -25.183325
L 61.750891 -25.230983
L 62.304202 -25.277767
L 62.857513 -25.323695
L 63.410824 -25.368782
L 63.964134 -25.413043
L 64.517445 -25.456493
L 65.070756 -25.499147
L 65.624067 -25.54102
L 66.177378 -25.582126
L 66.730689 -25.622479
L 67.284 -25.662092
L 67.284 -35.768448
L 67.284 -35.768448
L 66.730689 -35.540352
L 66.177378 -35.312256
L 65.624067 -35.08416
L 65.070756 -34.856064
L 64.517445 -34.627968
L 63.964134 -34.399872
L 63.410824 -34.171776
L 62.857513 -33.94368
L 62.304202 -33.715584
L 61.750891 -33.487488
L 61.19758 -33.259392
L 60.644269 -33.031296
L 60.090958 -32.8032
L 59.537647 -32.575104
L 58.984336 -32.347008
L 58.431025 -32.118912
L 57.877714 -31.890816
L 57.324403 -31.66272
L 56.771092 -31.434624
L 56.217782 -31.206528
L 55.664471 -30.978432
L 55.11116 -30.750336
L 54.557849 -30.52224
L 54.004538 -30.294144
L 53.451227 -30.066048
L 52.897916 -29.837952
L 52.344605 -29.609856
L 51.791294 -29.38176
L 51.237983 -29.153664
L 50.684672 -28.925568
L 50.131361 -28.697472
L 49.57805 -28.469376
L 49.024739 -28.24128
L 48.471429 -28.013184
L 47.918118 -27.785088
L 47.364807 -27.556992
L 46.811496 -27.328896
L 46.258185 -27.1008
L 45.704874 -26.872704
L 45.151563 -26.644608
L 44.598252 -26.416512
L 44.044941 -26.188416
L 43.49163 -25.96032
L 42.938319 -25.732224
L 42.385008 -25.504128
L 41.831697 -25.276032
L 41.278387 -25.047936
L 40.725076 -24.81984
L 40.171765 -24.591744
L 39.618454 -24.363648
L 39.065143 -24.135552
L 38.511832 -23.907456
L 37.958521 -23.67936
L 37.40521 -23.451264
L 36.851899 -23.223168
L 36.298588 -22.995072
L 35.745277 -22.766976
L 35.191966 -22.53888
L 34.638655 -22.310784
L 34.085345 -22.082688
L 33.532034 -21.854592
L 32.978723 -21.626496
L 32.425412 -21.3984
L 31.872101 -21.170304
L 31.31879 -20.942208
L 30.765479 -20.714112
L 30.212168 -20.486016
z
" style="stroke: #f2d7d5; stroke-opacity: 0.36"/>
    </defs>
    <g clip-path="url(#p9173796fe7)">
     <use xlink:href="#mc1e98b1eca" x="0" y="42.7968" style="fill: #f2d7d5; fill-opacity: 0.36; stroke: #f2d7d5; stroke-opacity: 0.36"/>
    </g>
   </g>
   <g id="matplotlib.axis_1"/>
   <g id="matplotlib.axis_2"/>
   <g id="line2d_1">
    <path d="M 1.44 34.171776
L 1.993311 33.94368
L 2.546622 33.715584
L 3.099933 33.487488
L 3.653244 33.259392
L 4.206555 33.031296
L 4.759866 32.8032
L 5.313176 32.575104
L 5.866487 32.347008
L 6.419798 32.118912
L 6.973109 31.890816
L 7.52642 31.66272
L 8.079731 31.434624
L 8.633042 31.206528
L 9.186353 30.978432
L 9.739664 30.750336
L 10.292975 30.52224
L 10.846286 30.294144
L 11.399597 30.066048
L 11.952908 29.837952
L 12.506218 29.609856
L 13.059529 29.38176
L 13.61284 29.153664
L 14.166151 28.925568
L 14.719462 28.697472
L 15.272773 28.469376
L 15.826084 28.24128
L 16.379395 28.013184
L 16.932706 27.785088
L 17.486017 27.556992
L 18.039328 27.328896
L 18.592639 27.1008
L 19.14595 26.872704
L 19.699261 26.644608
L 20.252571 26.416512
L 20.805882 26.188416
L 21.359193 25.96032
L 21.912504 25.732224
L 22.465815 25.504128
L 23.019126 25.276032
L 23.572437 25.047936
L 24.125748 24.81984
L 24.679059 24.591744
L 25.23237 24.363648
L 25.785681 24.135552
L 26.338992 23.907456
L 26.892303 23.67936
L 27.445613 23.451264
L 27.998924 23.223168
L 28.552235 22.995072
L 29.105546 22.766976
L 29.658857 22.53888
L 30.212168 22.310784
L 30.765479 22.082688
L 31.31879 21.854592
L 31.872101 21.626496
L 32.425412 21.3984
L 32.978723 21.170304
L 33.532034 20.942208
L 34.085345 20.714112
L 34.638655 20.486016
L 35.191966 20.25792
L 35.745277 20.029824
L 36.298588 19.801728
L 36.851899 19.573632
L 37.40521 19.345536
L 37.958521 19.11744
L 38.511832 18.889344
L 39.065143 18.661248
L 39.618454 18.433152
L 40.171765 18.205056
L 40.725076 17.97696
L 41.278387 17.748864
L 41.831697 17.520768
L 42.385008 17.292672
L 42.938319 17.064576
L 43.49163 16.83648
L 44.044941 16.608384
L 44.598252 16.380288
L 45.151563 16.152192
L 45.704874 15.924096
L 46.258185 15.696
L 46.811496 15.467904
L 47.364807 15.239808
L 47.918118 15.011712
L 48.471429 14.783616
L 49.024739 14.55552
L 49.57805 14.327424
L 50.131361 14.099328
L 50.684672 13.871232
L 51.237983 13.643136
L 51.791294 13.41504
L 52.344605 13.186944
L 52.897916 12.958848
L 53.451227 12.730752
L 54.004538 12.502656
L 54.557849 12.27456
L 55.11116 12.046464
L 55.664471 11.818368
L 56.217782 11.590272
L 56.771092 11.362176
L 57.324403 11.13408
L 57.877714 10.905984
L 58.431025 10.677888
L 58.984336 10.449792
L 59.537647 10.221696
L 60.090958 9.9936
L 60.644269 9.765504
L 61.19758 9.537408
L 61.750891 9.309312
L 62.304202 9.081216
L 62.857513 8.85312
L 63.410824 8.625024
L 63.964134 8.396928
L 64.517445 8.168832
L 65.070756 7.940736
L 65.624067 7.71264
L 66.177378 7.484544
L 66.730689 7.256448
L 67.284 7.028352
" clip-path="url(#p9173796fe7)" style="fill: none; stroke: #cb202d; stroke-width: 1.45; stroke-linecap: square"/>
   </g>
   <g id="line2d_2">
    <path d="M 1.44 34.171776
L 1.993311 33.820811
L 2.546622 33.476274
L 3.099933 33.138048
L 3.653244 32.806018
L 4.206555 32.48007
L 4.759866 32.160093
L 5.313176 31.845976
L 5.866487 31.537614
L 6.419798 31.2349
L 6.973109 30.937731
L 7.52642 30.646005
L 8.079731 30.359623
L 8.633042 30.078487
L 9.186353 29.8025
L 9.739664 29.531569
L 10.292975 29.265601
L 10.846286 29.004505
L 11.399597 28.748191
L 11.952908 28.496572
L 12.506218 28.249563
L 13.059529 28.007078
L 13.61284 27.769035
L 14.166151 27.535352
L 14.719462 27.305949
L 15.272773 27.080749
L 15.826084 26.859674
L 16.379395 26.642648
L 16.932706 26.429598
L 17.486017 26.22045
L 18.039328 26.015133
L 18.592639 25.813578
L 19.14595 25.615714
L 19.699261 25.421475
L 20.252571 25.230793
L 20.805882 25.043605
L 21.359193 24.859845
L 21.912504 24.679451
L 22.465815 24.502362
L 23.019126 24.328517
L 23.572437 24.157855
L 24.125748 23.990321
L 24.679059 23.825854
L 25.23237 23.664401
L 25.785681 23.505905
L 26.338992 23.350312
L 26.892303 23.197569
L 27.445613 23.047624
L 27.998924 22.900426
L 28.552235 22.755924
L 29.105546 22.614069
L 29.658857 22.474813
L 30.212168 22.338107
L 30.765479 22.203905
L 31.31879 22.072162
L 31.872101 21.942832
L 32.425412 21.815871
L 32.978723 21.691235
L 33.532034 21.568883
L 34.085345 21.448771
L 34.638655 21.33086
L 35.191966 21.215109
L 35.745277 21.101478
L 36.298588 20.989928
L 36.851899 20.880422
L 37.40521 20.772922
L 37.958521 20.66739
L 38.511832 20.563792
L 39.065143 20.462092
L 39.618454 20.362254
L 40.171765 20.264245
L 40.725076 20.168032
L 41.278387 20.07358
L 41.831697 19.980859
L 42.385008 19.889837
L 42.938319 19.800482
L 43.49163 19.712763
L 44.044941 19.626651
L 44.598252 19.542117
L 45.151563 19.459131
L 45.704874 19.377665
L 46.258185 19.297692
L 46.811496 19.219183
L 47.364807 19.142112
L 47.918118 19.066453
L 48.471429 18.992181
L 49.024739 18.919268
L 49.57805 18.847691
L 50.131361 18.777426
L 50.684672 18.708447
L 51.237983 18.640732
L 51.791294 18.574257
L 52.344605 18.509
L 52.897916 18.444938
L 53.451227 18.38205
L 54.004538 18.320313
L 54.557849 18.259708
L 55.11116 18.200213
L 55.664471 18.141807
L 56.217782 18.084471
L 56.771092 18.028186
L 57.324403 17.972932
L 57.877714 17.918689
L 58.431025 17.865441
L 58.984336 17.813167
L 59.537647 17.761852
L 60.090958 17.711476
L 60.644269 17.662023
L 61.19758 17.613475
L 61.750891 17.565817
L 62.304202 17.519033
L 62.857513 17.473105
L 63.410824 17.428018
L 63.964134 17.383757
L 64.517445 17.340307
L 65.070756 17.297653
L 65.624067 17.25578
L 66.177378 17.214674
L 66.730689 17.174321
L 67.284 17.134708
" clip-path="url(#p9173796fe7)" style="fill: none; stroke: #006395; stroke-width: 1.45; stroke-linecap: square"/>
   </g>
   <g id="text_1">
    <g id="patch_3">
     <path d="M 38.85855 11.230899
L 56.20305 11.230899
Q 56.58705 11.230899 56.58705 10.846899
L 56.58705 6.403149
Q 56.58705 6.019149 56.20305 6.019149
L 38.85855 6.019149
Q 38.47455 6.019149 38.47455 6.403149
L 38.47455 10.846899
Q 38.47455 11.230899 38.85855 11.230899
z
" style="fill: #ffffff; opacity: 0.92"/>
    </g>
    <!-- demand -->
    <g style="fill: #cb202d" transform="translate(38.85855 9.846399) scale(0.048 -0.048)">
     <defs>
      <path id="Helvetica-64" d="M 769 1634
Q 769 1097 997 734
Q 1225 372 1728 372
Q 2119 372 2370 708
Q 2622 1044 2622 1672
Q 2622 2306 2362 2611
Q 2103 2916 1722 2916
Q 1297 2916 1033 2591
Q 769 2266 769 1634
z
M 1616 3406
Q 2000 3406 2259 3244
Q 2409 3150 2600 2916
L 2600 4606
L 3141 4606
L 3141 0
L 2634 0
L 2634 466
Q 2438 156 2169 18
Q 1900 -119 1553 -119
Q 994 -119 584 351
Q 175 822 175 1603
Q 175 2334 548 2870
Q 922 3406 1616 3406
z
" transform="scale(0.015625)"/>
      <path id="Helvetica-65" d="M 1806 3422
Q 2163 3422 2497 3255
Q 2831 3088 3006 2822
Q 3175 2569 3231 2231
Q 3281 2000 3281 1494
L 828 1494
Q 844 984 1069 676
Q 1294 369 1766 369
Q 2206 369 2469 659
Q 2619 828 2681 1050
L 3234 1050
Q 3213 866 3089 639
Q 2966 413 2813 269
Q 2556 19 2178 -69
Q 1975 -119 1719 -119
Q 1094 -119 659 336
Q 225 791 225 1609
Q 225 2416 662 2919
Q 1100 3422 1806 3422
z
M 2703 1941
Q 2669 2306 2544 2525
Q 2313 2931 1772 2931
Q 1384 2931 1121 2651
Q 859 2372 844 1941
L 2703 1941
z
M 1753 3428
L 1753 3428
z
" transform="scale(0.015625)"/>
      <path id="Helvetica-6d" d="M 413 3347
L 969 3347
L 969 2872
Q 1169 3119 1331 3231
Q 1609 3422 1963 3422
Q 2363 3422 2606 3225
Q 2744 3113 2856 2894
Q 3044 3163 3297 3292
Q 3550 3422 3866 3422
Q 4541 3422 4784 2934
Q 4916 2672 4916 2228
L 4916 0
L 4331 0
L 4331 2325
Q 4331 2659 4164 2784
Q 3997 2909 3756 2909
Q 3425 2909 3186 2687
Q 2947 2466 2947 1947
L 2947 0
L 2375 0
L 2375 2184
Q 2375 2525 2294 2681
Q 2166 2916 1816 2916
Q 1497 2916 1236 2669
Q 975 2422 975 1775
L 975 0
L 413 0
L 413 3347
z
" transform="scale(0.015625)"/>
      <path id="Helvetica-61" d="M 844 891
Q 844 647 1022 506
Q 1200 366 1444 366
Q 1741 366 2019 503
Q 2488 731 2488 1250
L 2488 1703
Q 2384 1638 2221 1594
Q 2059 1550 1903 1531
L 1563 1488
Q 1256 1447 1103 1359
Q 844 1213 844 891
z
M 2206 2028
Q 2400 2053 2466 2191
Q 2503 2266 2503 2406
Q 2503 2694 2298 2823
Q 2094 2953 1713 2953
Q 1272 2953 1088 2716
Q 984 2584 953 2325
L 428 2325
Q 444 2944 830 3186
Q 1216 3428 1725 3428
Q 2316 3428 2684 3203
Q 3050 2978 3050 2503
L 3050 575
Q 3050 488 3086 434
Q 3122 381 3238 381
Q 3275 381 3322 386
Q 3369 391 3422 400
L 3422 -16
Q 3291 -53 3222 -62
Q 3153 -72 3034 -72
Q 2744 -72 2613 134
Q 2544 244 2516 444
Q 2344 219 2022 53
Q 1700 -113 1313 -113
Q 847 -113 551 170
Q 256 453 256 878
Q 256 1344 547 1600
Q 838 1856 1309 1916
L 2206 2028
z
M 1741 3428
L 1741 3428
z
" transform="scale(0.015625)"/>
      <path id="Helvetica-6e" d="M 413 3347
L 947 3347
L 947 2872
Q 1184 3166 1450 3294
Q 1716 3422 2041 3422
Q 2753 3422 3003 2925
Q 3141 2653 3141 2147
L 3141 0
L 2569 0
L 2569 2109
Q 2569 2416 2478 2603
Q 2328 2916 1934 2916
Q 1734 2916 1606 2875
Q 1375 2806 1200 2600
Q 1059 2434 1017 2257
Q 975 2081 975 1753
L 975 0
L 413 0
L 413 3347
z
M 1734 3428
L 1734 3428
z
" transform="scale(0.015625)"/>
     </defs>
     <use xlink:href="#Helvetica-64"/>
     <use xlink:href="#Helvetica-65" transform="translate(55.615234 0)"/>
     <use xlink:href="#Helvetica-6d" transform="translate(111.230469 0)"/>
     <use xlink:href="#Helvetica-61" transform="translate(194.53125 0)"/>
     <use xlink:href="#Helvetica-6e" transform="translate(250.146484 0)"/>
     <use xlink:href="#Helvetica-64" transform="translate(305.761719 0)"/>
    </g>
   </g>
   <g id="text_2">
    <g id="patch_4">
     <path d="M 40.702245 28.010205
L 58.309995 28.010205
Q 58.693995 28.010205 58.693995 27.626205
L 58.693995 23.153955
Q 58.693995 22.769955 58.309995 22.769955
L 40.702245 22.769955
Q 40.318245 22.769955 40.318245 23.153955
L 40.318245 27.626205
Q 40.318245 28.010205 40.702245 28.010205
z
" style="fill: #ffffff; opacity: 0.92"/>
    </g>
    <!-- capacity -->
    <g style="fill: #006395" transform="translate(40.702245 26.597205) scale(0.048 -0.048)">
     <defs>
      <path id="Helvetica-63" d="M 1703 3444
Q 2269 3444 2623 3169
Q 2978 2894 3050 2222
L 2503 2222
Q 2453 2531 2275 2736
Q 2097 2941 1703 2941
Q 1166 2941 934 2416
Q 784 2075 784 1575
Q 784 1072 996 728
Q 1209 384 1666 384
Q 2016 384 2220 598
Q 2425 813 2503 1184
L 3050 1184
Q 2956 519 2581 211
Q 2206 -97 1622 -97
Q 966 -97 575 383
Q 184 863 184 1581
Q 184 2463 612 2953
Q 1041 3444 1703 3444
z
M 1616 3428
L 1616 3428
z
" transform="scale(0.015625)"/>
      <path id="Helvetica-70" d="M 1825 378
Q 2219 378 2480 708
Q 2741 1038 2741 1694
Q 2741 2094 2625 2381
Q 2406 2934 1825 2934
Q 1241 2934 1025 2350
Q 909 2038 909 1556
Q 909 1169 1025 897
Q 1244 378 1825 378
z
M 369 3331
L 916 3331
L 916 2888
Q 1084 3116 1284 3241
Q 1569 3428 1953 3428
Q 2522 3428 2919 2992
Q 3316 2556 3316 1747
Q 3316 653 2744 184
Q 2381 -113 1900 -113
Q 1522 -113 1266 53
Q 1116 147 931 375
L 931 -1334
L 369 -1334
L 369 3331
z
" transform="scale(0.015625)"/>
      <path id="Helvetica-69" d="M 413 3331
L 984 3331
L 984 0
L 413 0
L 413 3331
z
M 413 4591
L 984 4591
L 984 3953
L 413 3953
L 413 4591
z
" transform="scale(0.015625)"/>
      <path id="Helvetica-74" d="M 525 4281
L 1094 4281
L 1094 3347
L 1628 3347
L 1628 2888
L 1094 2888
L 1094 703
Q 1094 528 1213 469
Q 1278 434 1431 434
Q 1472 434 1519 436
Q 1566 438 1628 444
L 1628 0
Q 1531 -28 1426 -40
Q 1322 -53 1200 -53
Q 806 -53 665 148
Q 525 350 525 672
L 525 2888
L 72 2888
L 72 3347
L 525 3347
L 525 4281
z
" transform="scale(0.015625)"/>
      <path id="Helvetica-79" d="M 2503 3347
L 3125 3347
Q 3006 3025 2597 1878
Q 2291 1016 2084 472
Q 1597 -809 1397 -1090
Q 1197 -1372 709 -1372
Q 591 -1372 527 -1362
Q 463 -1353 369 -1328
L 369 -816
Q 516 -856 581 -865
Q 647 -875 697 -875
Q 853 -875 926 -823
Q 1000 -772 1050 -697
Q 1066 -672 1162 -440
Q 1259 -209 1303 -97
L 66 3347
L 703 3347
L 1600 622
L 2503 3347
z
M 1597 3428
L 1597 3428
z
" transform="scale(0.015625)"/>
     </defs>
     <use xlink:href="#Helvetica-63"/>
     <use xlink:href="#Helvetica-61" transform="translate(50 0)"/>
     <use xlink:href="#Helvetica-70" transform="translate(105.615234 0)"/>
     <use xlink:href="#Helvetica-61" transform="translate(161.230469 0)"/>
     <use xlink:href="#Helvetica-63" transform="translate(216.845703 0)"/>
     <use xlink:href="#Helvetica-69" transform="translate(266.845703 0)"/>
     <use xlink:href="#Helvetica-74" transform="translate(289.0625 0)"/>
     <use xlink:href="#Helvetica-79" transform="translate(316.845703 0)"/>
    </g>
   </g>
   <g id="text_3">
    <g id="patch_5">
     <path d="M 23.111157 34.005194
L 41.662203 34.005194
Q 42.038203 34.005194 42.038203 33.629194
L 42.038203 29.126006
Q 42.038203 28.750006 41.662203 28.750006
L 23.111157 28.750006
Q 22.735157 28.750006 22.735157 29.126006
L 22.735157 33.629194
Q 22.735157 34.005194 23.111157 34.005194
z
" style="fill: #ffffff; opacity: 0.92"/>
    </g>
    <!-- SLO gap -->
    <g style="fill: #cb202d" transform="translate(23.111157 32.589319) scale(0.047 -0.047)">
     <defs>
      <path id="Helvetica-53" d="M 894 1481
Q 916 1091 1078 847
Q 1388 391 2169 391
Q 2519 391 2806 491
Q 3363 684 3363 1184
Q 3363 1559 3128 1719
Q 2891 1875 2384 1991
L 1763 2131
Q 1153 2269 900 2434
Q 463 2722 463 3294
Q 463 3913 891 4309
Q 1319 4706 2103 4706
Q 2825 4706 3329 4357
Q 3834 4009 3834 3244
L 3250 3244
Q 3203 3613 3050 3809
Q 2766 4169 2084 4169
Q 1534 4169 1293 3937
Q 1053 3706 1053 3400
Q 1053 3063 1334 2906
Q 1519 2806 2169 2656
L 2813 2509
Q 3278 2403 3531 2219
Q 3969 1897 3969 1284
Q 3969 522 3414 194
Q 2859 -134 2125 -134
Q 1269 -134 784 303
Q 300 738 309 1481
L 894 1481
z
M 2150 4716
L 2150 4716
z
" transform="scale(0.015625)"/>
      <path id="Helvetica-4c" d="M 488 4591
L 1109 4591
L 1109 547
L 3434 547
L 3434 0
L 488 0
L 488 4591
z
" transform="scale(0.015625)"/>
      <path id="Helvetica-4f" d="M 2469 4716
Q 3684 4716 4269 3934
Q 4725 3325 4725 2375
Q 4725 1347 4203 666
Q 3591 -134 2456 -134
Q 1397 -134 791 566
Q 250 1241 250 2272
Q 250 3203 713 3866
Q 1306 4716 2469 4716
z
M 2531 422
Q 3353 422 3720 1011
Q 4088 1600 4088 2366
Q 4088 3175 3664 3669
Q 3241 4163 2506 4163
Q 1794 4163 1344 3673
Q 894 3184 894 2231
Q 894 1469 1280 945
Q 1666 422 2531 422
z
M 2488 4716
L 2488 4716
z
" transform="scale(0.015625)"/>
      <path id="Helvetica-20" transform="scale(0.015625)"/>
      <path id="Helvetica-67" d="M 1594 3406
Q 1988 3406 2281 3213
Q 2441 3103 2606 2894
L 2606 3316
L 3125 3316
L 3125 272
Q 3125 -366 2938 -734
Q 2588 -1416 1616 -1416
Q 1075 -1416 706 -1173
Q 338 -931 294 -416
L 866 -416
Q 906 -641 1028 -763
Q 1219 -950 1628 -950
Q 2275 -950 2475 -494
Q 2594 -225 2584 466
Q 2416 209 2178 84
Q 1941 -41 1550 -41
Q 1006 -41 598 345
Q 191 731 191 1622
Q 191 2463 602 2934
Q 1013 3406 1594 3406
z
M 2606 1688
Q 2606 2309 2350 2609
Q 2094 2909 1697 2909
Q 1103 2909 884 2353
Q 769 2056 769 1575
Q 769 1009 998 714
Q 1228 419 1616 419
Q 2222 419 2469 966
Q 2606 1275 2606 1688
z
M 1659 3428
L 1659 3428
z
" transform="scale(0.015625)"/>
     </defs>
     <use xlink:href="#Helvetica-53"/>
     <use xlink:href="#Helvetica-4c" transform="translate(66.699219 0)"/>
     <use xlink:href="#Helvetica-4f" transform="translate(122.314453 0)"/>
     <use xlink:href="#Helvetica-20" transform="translate(200.097656 0)"/>
     <use xlink:href="#Helvetica-67" transform="translate(227.880859 0)"/>
     <use xlink:href="#Helvetica-61" transform="translate(283.496094 0)"/>
     <use xlink:href="#Helvetica-70" transform="translate(339.111328 0)"/>
    </g>
   </g>
  </g>
 </g>
 <defs>
  <clipPath id="p9173796fe7">
   <rect x="1.44" y="1.44" width="65.844" height="39.9168"/>
  </clipPath>
 </defs>
</svg>
