<?xml version="1.0" encoding="utf-8" standalone="no"?>
<!DOCTYPE svg PUBLIC "-//W3C//DTD SVG 1.1//EN"
  "http://www.w3.org/Graphics/SVG/1.1/DTD/svg11.dtd">
<svg xmlns:xlink="http://www.w3.org/1999/xlink" width="68.724pt" height="42.7968pt" viewBox="0 0 68.724 42.7968" xmlns="http://www.w3.org/2000/svg" version="1.1">
 <metadata>
  <rdf:RDF xmlns:dc="http://purl.org/dc/elements/1.1/" xmlns:cc="http://creativecommons.org/ns#" xmlns:rdf="http://www.w3.org/1999/02/22-rdf-syntax-ns#">
   <cc:Work>
    <dc:type rdf:resource="http://purl.org/dc/dcmitype/StillImage"/>
    <dc:format>image/svg+xml</dc:format>
    <dc:creator>
     <cc:Agent>
      <dc:title>Matplotlib v3.10.8, https://matplotlib.org/</dc:title>
     </cc:Agent>
    </dc:creator>
   </cc:Work>
  </rdf:RDF>
 </metadata>
 <defs>
  <style type="text/css">*{stroke-linejoin: round; stroke-linecap: butt}</style>
 </defs>
 <g id="figure_1">
  <g id="patch_1">
   <path d="M 0 42.7968
L 68.724 42.7968
L 68.724 0
L 0 0
z
" style="fill: #ffffff"/>
  </g>
  <g id="axes_1">
   <g id="patch_2">
    <path d="M 1.44 41.3568
L 67.284 41.3568
L 67.284 1.44
L 1.44 1.44
z
" style="fill: #ffffff"/>
   </g>
   <g id="matplotlib.axis_1"/>
   <g id="matplotlib.axis_2"/>
   <g id="line2d_1">
    <path d="M 6.70752 5.43168
L 7.216566 10.440359
L 7.725612 14.282174
L 8.234658 17.293319
L 8.743704 19.697086
L 9.25275 21.646486
L 9.761796 23.249215
L 10.270842 24.582853
L 10.779888 25.704432
L 11.288934 26.65664
L 11.797981 27.471939
L 12.307027 28.17537
L 12.816073 28.786501
L 13.325119 29.320801
L 13.834165 29.79063
L 14.343211 30.205957
L 14.852257 30.574899
L 15.361303 30.904112
L 15.870349 31.199104
L 16.379395 31.464459
L 16.888441 31.704016
L 17.397487 31.921015
L 17.906533 32.118203
L 18.415579 32.297918
L 18.924625 32.462167
L 19.433671 32.612673
L 19.942717 32.75093
L 20.451763 32.87823
L 20.960809 32.995701
L 21.469855 33.104331
L 21.978902 33.204984
L 22.487948 33.298423
L 22.996994 33.38532
L 23.50604 33.466274
L 24.015086 33.541813
L 24.524132 33.612411
L 25.033178 33.678488
L 25.542224 33.740423
L 26.05127 33.798554
L 26.560316 33.853188
L 27.069362 33.904598
L 27.578408 33.953035
L 28.087454 33.998722
L 28.5965 34.041864
L 29.105546 34.082646
L 29.614592 34.121238
L 30.123638 34.157794
L 30.632684 34.192454
L 31.14173 34.225347
L 31.650776 34.256592
L 32.159823 34.286296
L 32.668869 34.31456
L 33.177915 34.341475
L 33.686961 34.367125
L 34.196007 34.391588
L 34.705053 34.414937
L 35.214099 34.437238
L 35.723145 34.458554
L 36.232191 34.47894
L 36.741237 34.498451
L 37.250283 34.517136
L 37.759329 34.535041
L 38.268375 34.552208
L 38.777421 34.568678
L 39.286467 34.584488
L 39.795513 34.599673
L 40.304559 34.614265
L 40.813605 34.628295
L 41.322651 34.64179
L 41.831697 34.654779
L 42.340744 34.667286
L 42.84979 34.679335
L 43.358836 34.690947
L 43.867882 34.702144
L 44.376928 34.712944
L 44.885974 34.723368
L 45.39502 34.733431
L 45.904066 34.743151
L 46.413112 34.752543
L 46.922158 34.761621
L 47.431204 34.770399
L 47.94025 34.77889
L 48.449296 34.787108
L 48.958342 34.795062
L 49.467388 34.802765
L 49.976434 34.810227
L 50.48548 34.817458
L 50.994526 34.824467
L 51.503572 34.831263
L 52.012618 34.837855
L 52.521665 34.844251
L 53.030711 34.850459
L 53.539757 34.856485
L 54.048803 34.862338
L 54.557849 34.868023
L 55.066895 34.873547
L 55.575941 34.878916
L 56.084987 34.884135
L 56.594033 34.889211
L 57.103079 34.894148
L 57.612125 34.898951
L 58.121171 34.903626
L 58.630217 34.908176
L 59.139263 34.912606
L 59.648309 34.916921
L 60.157355 34.921124
L 60.666401 34.925219
L 61.175447 34.92921
L 61.684493 34.9331
L 62.193539 34.936892
L 62.702586 34.940591
L 63.211632 34.944198
L 63.720678 34.947718
L 64.229724 34.951152
L 64.73877 34.954503
L 65.247816 34.957775
L 65.756862 34.96097
L 66.265908 34.964089
L 66.774954 34.967136
L 67.284 34.970112
" clip-path="url(#p9173796fe7)" style="fill: none; stroke: #333333; stroke-width: 1.45; stroke-linecap: square"/>
   </g>
   <g id="line2d_2">
    <defs>
     <path id="m8b595126ea" d="M 0 1.65
C 0.437585 1.65 0.857307 1.476146 1.166726 1.166726
C 1.476146 0.857307 1.65 0.437585 1.65 0
C 1.65 -0.437585 1.476146 -0.857307 1.166726 -1.166726
C 0.857307 -1.476146 0.437585 -1.65 0 -1.65
C -0.437585 -1.65 -0.857307 -1.476146 -1.166726 -1.166726
C -1.476146 -0.857307 -1.65 -0.437585 -1.65 0
C -1.65 0.437585 -1.476146 0.857307 -1.166726 1.166726
C -0.857307 1.476146 -0.437585 1.65 0 1.65
z
" style="stroke: #cb202d"/>
    </defs>
    <g clip-path="url(#p9173796fe7)">
     <use xlink:href="#m8b595126ea" x="10.779888" y="25.704432" style="fill: #cb202d; stroke: #cb202d"/>
    </g>
   </g>
   <g id="line2d_3">
    <defs>
     <path id="m4dd36f4867" d="M 0 1.65
C 0.437585 1.65 0.857307 1.476146 1.166726 1.166726
C 1.476146 0.857307 1.65 0.437585 1.65 0
C 1.65 -0.437585 1.476146 -0.857307 1.166726 -1.166726
C 0.857307 -1.476146 0.437585 -1.65 0 -1.65
C -0.437585 -1.65 -0.857307 -1.476146 -1.166726 -1.166726
C -1.476146 -0.857307 -1.65 -0.437585 -1.65 0
C -1.65 0.437585 -1.476146 0.857307 -1.166726 1.166726
C -0.857307 1.476146 -0.437585 1.65 0 1.65
z
" style="stroke: #008f45"/>
    </defs>
    <g clip-path="url(#p9173796fe7)">
     <use xlink:href="#m4dd36f4867" x="67.284" y="34.970112" style="fill: #008f45; stroke: #008f45"/>
    </g>
   </g>
   <g id="text_1">
    <!-- small -->
    <g style="fill: #cb202d" transform="translate(12.30075 8.078535) scale(0.048 -0.048)">
     <defs>
      <path id="Helvetica-73" d="M 747 1050
Q 772 769 888 619
Q 1100 347 1625 347
Q 1938 347 2175 483
Q 2413 619 2413 903
Q 2413 1119 2222 1231
Q 2100 1300 1741 1391
L 1294 1503
Q 866 1609 663 1741
Q 300 1969 300 2372
Q 300 2847 642 3140
Q 984 3434 1563 3434
Q 2319 3434 2653 2991
Q 2863 2709 2856 2384
L 2325 2384
Q 2309 2575 2191 2731
Q 1997 2953 1519 2953
Q 1200 2953 1036 2831
Q 872 2709 872 2509
Q 872 2291 1088 2159
Q 1213 2081 1456 2022
L 1828 1931
Q 2434 1784 2641 1647
Q 2969 1431 2969 969
Q 2969 522 2630 197
Q 2291 -128 1597 -128
Q 850 -128 539 211
Q 228 550 206 1050
L 747 1050
z
M 1578 3428
L 1578 3428
z
" transform="scale(0.015625)"/>
      <path id="Helvetica-6d" d="M 413 3347
L 969 3347
L 969 2872
Q 1169 3119 1331 3231
Q 1609 3422 1963 3422
Q 2363 3422 2606 3225
Q 2744 3113 2856 2894
Q 3044 3163 3297 3292
Q 3550 3422 3866 3422
Q 4541 3422 4784 2934
Q 4916 2672 4916 2228
L 4916 0
L 4331 0
L 4331 2325
Q 4331 2659 4164 2784
Q 3997 2909 3756 2909
Q 3425 2909 3186 2687
Q 2947 2466 2947 1947
L 2947 0
L 2375 0
L 2375 2184
Q 2375 2525 2294 2681
Q 2166 2916 1816 2916
Q 1497 2916 1236 2669
Q 975 2422 975 1775
L 975 0
L 413 0
L 413 3347
z
" transform="scale(0.015625)"/>
      <path id="Helvetica-61" d="M 844 891
Q 844 647 1022 506
Q 1200 366 1444 366
Q 1741 366 2019 503
Q 2488 731 2488 1250
L 2488 1703
Q 2384 1638 2221 1594
Q 2059 1550 1903 1531
L 1563 1488
Q 1256 1447 1103 1359
Q 844 1213 844 891
z
M 2206 2028
Q 2400 2053 2466 2191
Q 2503 2266 2503 2406
Q 2503 2694 2298 2823
Q 2094 2953 1713 2953
Q 1272 2953 1088 2716
Q 984 2584 953 2325
L 428 2325
Q 444 2944 830 3186
Q 1216 3428 1725 3428
Q 2316 3428 2684 3203
Q 3050 2978 3050 2503
L 3050 575
Q 3050 488 3086 434
Q 3122 381 3238 381
Q 3275 381 3322 386
Q 3369 391 3422 400
L 3422 -16
Q 3291 -53 3222 -62
Q 3153 -72 3034 -72
Q 2744 -72 2613 134
Q 2544 244 2516 444
Q 2344 219 2022 53
Q 1700 -113 1313 -113
Q 847 -113 551 170
Q 256 453 256 878
Q 256 1344 547 1600
Q 838 1856 1309 1916
L 2206 2028
z
M 1741 3428
L 1741 3428
z
" transform="scale(0.015625)"/>
      <path id="Helvetica-6c" d="M 428 4591
L 991 4591
L 991 0
L 428 0
L 428 4591
z
" transform="scale(0.015625)"/>
     </defs>
     <use xlink:href="#Helvetica-73"/>
     <use xlink:href="#Helvetica-6d" transform="translate(50 0)"/>
     <use xlink:href="#Helvetica-61" transform="translate(133.300781 0)"/>
     <use xlink:href="#Helvetica-6c" transform="translate(188.916016 0)"/>
     <use xlink:href="#Helvetica-6c" transform="translate(211.132812 0)"/>
    </g>
    <!-- effect -->
    <g style="fill: #cb202d" transform="translate(12.0315 13.210935) scale(0.048 -0.048)">
     <defs>
      <path id="Helvetica-65" d="M 1806 3422
Q 2163 3422 2497 3255
Q 2831 3088 3006 2822
Q 3175 2569 3231 2231
Q 3281 2000 3281 1494
L 828 1494
Q 844 984 1069 676
Q 1294 369 1766 369
Q 2206 369 2469 659
Q 2619 828 2681 1050
L 3234 1050
Q 3213 866 3089 639
Q 2966 413 2813 269
Q 2556 19 2178 -69
Q 1975 -119 1719 -119
Q 1094 -119 659 336
Q 225 791 225 1609
Q 225 2416 662 2919
Q 1100 3422 1806 3422
z
M 2703 1941
Q 2669 2306 2544 2525
Q 2313 2931 1772 2931
Q 1384 2931 1121 2651
Q 859 2372 844 1941
L 2703 1941
z
M 1753 3428
L 1753 3428
z
" transform="scale(0.015625)"/>
      <path id="Helvetica-66" d="M 553 3856
Q 566 4206 675 4369
Q 872 4656 1434 4656
Q 1488 4656 1544 4653
Q 1600 4650 1672 4644
L 1672 4131
Q 1584 4138 1545 4139
Q 1506 4141 1472 4141
Q 1216 4141 1166 4008
Q 1116 3875 1116 3331
L 1672 3331
L 1672 2888
L 1109 2888
L 1109 0
L 553 0
L 553 2888
L 88 2888
L 88 3331
L 553 3331
L 553 3856
z
" transform="scale(0.015625)"/>
      <path id="Helvetica-63" d="M 1703 3444
Q 2269 3444 2623 3169
Q 2978 2894 3050 2222
L 2503 2222
Q 2453 2531 2275 2736
Q 2097 2941 1703 2941
Q 1166 2941 934 2416
Q 784 2075 784 1575
Q 784 1072 996 728
Q 1209 384 1666 384
Q 2016 384 2220 598
Q 2425 813 2503 1184
L 3050 1184
Q 2956 519 2581 211
Q 2206 -97 1622 -97
Q 966 -97 575 383
Q 184 863 184 1581
Q 184 2463 612 2953
Q 1041 3444 1703 3444
z
M 1616 3428
L 1616 3428
z
" transform="scale(0.015625)"/>
      <path id="Helvetica-74" d="M 525 4281
L 1094 4281
L 1094 3347
L 1628 3347
L 1628 2888
L 1094 2888
L 1094 703
Q 1094 528 1213 469
Q 1278 434 1431 434
Q 1472 434 1519 436
Q 1566 438 1628 444
L 1628 0
Q 1531 -28 1426 -40
Q 1322 -53 1200 -53
Q 806 -53 665 148
Q 525 350 525 672
L 525 2888
L 72 2888
L 72 3347
L 525 3347
L 525 4281
z
" transform="scale(0.015625)"/>
     </defs>
     <use xlink:href="#Helvetica-65"/>
     <use xlink:href="#Helvetica-66" transform="translate(55.615234 0)"/>
     <use xlink:href="#Helvetica-66" transform="translate(83.398438 0)"/>
     <use xlink:href="#Helvetica-65" transform="translate(111.181641 0)"/>
     <use xlink:href="#Helvetica-63" transform="translate(166.796875 0)"/>
     <use xlink:href="#Helvetica-74" transform="translate(216.796875 0)"/>
    </g>
   </g>
   <g id="text_2">
    <!-- large -->
    <g style="fill: #008f45" transform="translate(47.46207 31.199529) scale(0.048 -0.048)">
     <defs>
      <path id="Helvetica-72" d="M 428 3347
L 963 3347
L 963 2769
Q 1028 2938 1284 3180
Q 1541 3422 1875 3422
Q 1891 3422 1928 3419
Q 1966 3416 2056 3406
L 2056 2813
Q 2006 2822 1964 2825
Q 1922 2828 1872 2828
Q 1447 2828 1219 2554
Q 991 2281 991 1925
L 991 0
L 428 0
L 428 3347
z
" transform="scale(0.015625)"/>
      <path id="Helvetica-67" d="M 1594 3406
Q 1988 3406 2281 3213
Q 2441 3103 2606 2894
L 2606 3316
L 3125 3316
L 3125 272
Q 3125 -366 2938 -734
Q 2588 -1416 1616 -1416
Q 1075 -1416 706 -1173
Q 338 -931 294 -416
L 866 -416
Q 906 -641 1028 -763
Q 1219 -950 1628 -950
Q 2275 -950 2475 -494
Q 2594 -225 2584 466
Q 2416 209 2178 84
Q 1941 -41 1550 -41
Q 1006 -41 598 345
Q 191 731 191 1622
Q 191 2463 602 2934
Q 1013 3406 1594 3406
z
M 2606 1688
Q 2606 2309 2350 2609
Q 2094 2909 1697 2909
Q 1103 2909 884 2353
Q 769 2056 769 1575
Q 769 1009 998 714
Q 1228 419 1616 419
Q 2222 419 2469 966
Q 2606 1275 2606 1688
z
M 1659 3428
L 1659 3428
z
" transform="scale(0.015625)"/>
     </defs>
     <use xlink:href="#Helvetica-6c"/>
     <use xlink:href="#Helvetica-61" transform="translate(22.216797 0)"/>
     <use xlink:href="#Helvetica-72" transform="translate(77.832031 0)"/>
     <use xlink:href="#Helvetica-67" transform="translate(111.132812 0)"/>
     <use xlink:href="#Helvetica-65" transform="translate(166.748047 0)"/>
    </g>
    <!-- effect -->
    <g style="fill: #008f45" transform="translate(46.92882 36.393429) scale(0.048 -0.048)">
     <use xlink:href="#Helvetica-65"/>
     <use xlink:href="#Helvetica-66" transform="translate(55.615234 0)"/>
     <use xlink:href="#Helvetica-66" transform="translate(83.398438 0)"/>
     <use xlink:href="#Helvetica-65" transform="translate(111.181641 0)"/>
     <use xlink:href="#Helvetica-63" transform="translate(166.796875 0)"/>
     <use xlink:href="#Helvetica-74" transform="translate(216.796875 0)"/>
    </g>
   </g>
   <g id="text_3">
    <!-- n ~ 1/d^2 -->
    <g style="fill: #333333" transform="translate(27.787575 21.422271) scale(0.048 -0.048)">
     <defs>
      <path id="Helvetica-6e" d="M 413 3347
L 947 3347
L 947 2872
Q 1184 3166 1450 3294
Q 1716 3422 2041 3422
Q 2753 3422 3003 2925
Q 3141 2653 3141 2147
L 3141 0
L 2569 0
L 2569 2109
Q 2569 2416 2478 2603
Q 2328 2916 1934 2916
Q 1734 2916 1606 2875
Q 1375 2806 1200 2600
Q 1059 2434 1017 2257
Q 975 2081 975 1753
L 975 0
L 413 0
L 413 3347
z
M 1734 3428
L 1734 3428
z
" transform="scale(0.015625)"/>
      <path id="Helvetica-20" transform="scale(0.015625)"/>
      <path id="Helvetica-7e" d="M 1028 2163
Q 1119 2163 1219 2147
Q 1397 2122 1563 2056
L 2256 1784
Q 2416 1722 2519 1691
Q 2684 1644 2809 1644
Q 3038 1644 3197 1823
Q 3356 2003 3413 2266
L 3775 2266
Q 3697 1822 3467 1456
Q 3238 1091 2772 1091
Q 2631 1091 2438 1147
Q 2325 1181 2103 1266
L 1466 1509
Q 1347 1556 1220 1581
Q 1094 1606 1013 1606
Q 750 1606 600 1403
Q 513 1284 422 1000
L 56 1000
Q 109 1259 171 1442
Q 234 1625 391 1856
Q 522 2013 673 2088
Q 825 2163 1028 2163
z
" transform="scale(0.015625)"/>
      <path id="Helvetica-31" d="M 613 3169
L 613 3600
Q 1222 3659 1462 3798
Q 1703 3938 1822 4456
L 2266 4456
L 2266 0
L 1666 0
L 1666 3169
L 613 3169
z
" transform="scale(0.015625)"/>
      <path id="Helvetica-2f" d="M 1456 4591
L 1931 4591
L 475 0
L 0 0
L 1456 4591
z
" transform="scale(0.015625)"/>
      <path id="Helvetica-64" d="M 769 1634
Q 769 1097 997 734
Q 1225 372 1728 372
Q 2119 372 2370 708
Q 2622 1044 2622 1672
Q 2622 2306 2362 2611
Q 2103 2916 1722 2916
Q 1297 2916 1033 2591
Q 769 2266 769 1634
z
M 1616 3406
Q 2000 3406 2259 3244
Q 2409 3150 2600 2916
L 2600 4606
L 3141 4606
L 3141 0
L 2634 0
L 2634 466
Q 2438 156 2169 18
Q 1900 -119 1553 -119
Q 994 -119 584 351
Q 175 822 175 1603
Q 175 2334 548 2870
Q 922 3406 1616 3406
z
" transform="scale(0.015625)"/>
      <path id="Helvetica-5e" d="M 1953 4591
L 3056 1894
L 2547 1894
L 1716 3963
L 888 1894
L 375 1894
L 1472 4591
L 1953 4591
z
" transform="scale(0.015625)"/>
      <path id="Helvetica-32" d="M 200 0
Q 231 578 439 1006
Q 647 1434 1250 1784
L 1850 2131
Q 2253 2366 2416 2531
Q 2672 2791 2672 3125
Q 2672 3516 2437 3745
Q 2203 3975 1813 3975
Q 1234 3975 1013 3538
Q 894 3303 881 2888
L 309 2888
Q 319 3472 525 3841
Q 891 4491 1816 4491
Q 2584 4491 2939 4075
Q 3294 3659 3294 3150
Q 3294 2613 2916 2231
Q 2697 2009 2131 1694
L 1703 1456
Q 1397 1288 1222 1134
Q 909 863 828 531
L 3272 531
L 3272 0
L 200 0
z
" transform="scale(0.015625)"/>
     </defs>
     <use xlink:href="#Helvetica-6e"/>
     <use xlink:href="#Helvetica-20" transform="translate(55.615234 0)"/>
     <use xlink:href="#Helvetica-7e" transform="translate(83.398438 0)"/>
     <use xlink:href="#Helvetica-20" transform="translate(141.796875 0)"/>
     <use xlink:href="#Helvetica-31" transform="translate(169.580078 0)"/>
     <use xlink:href="#Helvetica-2f" transform="translate(225.195312 0)"/>
     <use xlink:href="#Helvetica-64" transform="translate(252.978516 0)"/>
     <use xlink:href="#Helvetica-5e" transform="translate(308.59375 0)"/>
     <use xlink:href="#Helvetica-32" transform="translate(355.517578 0)"/>
    </g>
   </g>
  </g>
 </g>
 <defs>
  <clipPath id="p9173796fe7">
   <rect x="1.44" y="1.44" width="65.844" height="39.9168"/>
  </clipPath>
 </defs>
</svg>
