<?xml version="1.0" encoding="UTF-8" standalone="no"?>
<!-- Created with Inkscape (http://www.inkscape.org/) -->

<svg
   version="1.1"
   id="svg1"
   width="387.82932"
   height="331.67068"
   viewBox="0 0 387.82932 331.67068"
   xmlns="http://www.w3.org/2000/svg"
   xmlns:svg="http://www.w3.org/2000/svg">
  <defs
     id="defs1" />
  <g
     id="g1">
    <path
       id="path1"
       d="M 3.5198,0 H 225.7782"
       style="fill:none;stroke:#000000;stroke-width:0.99628;stroke-linecap:butt;stroke-linejoin:miter;stroke-miterlimit:10;stroke-dasharray:none;stroke-opacity:1"
       transform="matrix(1.3333333,0,0,-1.3333333,22.365333,322.916)" />
    <path
       id="path2"
       d="M -2.78957,3.47087 C -2.27992,1.38832 -1.14423,0.40492 0,0 -1.14423,-0.40492 -2.27992,-1.38832 -2.78957,-3.47087"
       style="fill:none;stroke:#000000;stroke-width:0.99628;stroke-linecap:round;stroke-linejoin:round;stroke-miterlimit:10;stroke-dasharray:none;stroke-opacity:1"
       transform="matrix(1.3333333,0,0,-1.3333333,324.06712,322.916)" />
    <path
       id="path3"
       d="M 1.5471094,-6.5389609 H 0.71507812 V 1.015625e-4 H 4.7814844 V -0.73817969 h -3.234375 z m 4.7871093,1.8398437 h -0.75 V 1.015625e-4 h 0.75 z m 0,-1.8398437 H 5.5725 v 0.9492187 h 0.7617187 z m 1.9072266,0 h -0.75 V 1.015625e-4 h 0.75 V -1.8280234 L 8.9680078,-2.5428672 10.550039,1.015625e-4 H 11.47582 L 9.5539453,-3.0702109 11.19457,-4.6991172 h -0.960937 l -1.9921877,1.9921875 z m 7.6318357,4.4414062 c 0,-0.7148437 -0.04687,-1.1484375 -0.1875,-1.5 -0.304687,-0.7734375 -1.019531,-1.2304687 -1.898437,-1.2304687 -1.300782,0 -2.144532,0.9960937 -2.144532,2.5429687 0,1.54687501 0.808594,2.49609376 2.132813,2.49609376 1.066406,0 1.816406,-0.609375 2.003906,-1.64062496 h -0.75 c -0.210937,0.62109371 -0.632812,0.94921871 -1.230469,0.94921871 -0.480468,0 -0.878906,-0.22265625 -1.125,-0.60937501 -0.1875,-0.2695312 -0.246093,-0.5390625 -0.257812,-1.0078125 z m -3.433594,-0.609375 c 0.05859,-0.8671875 0.585938,-1.4296875 1.335938,-1.4296875 0.738281,0 1.300781,0.609375 1.300781,1.3710938 0,0.023437 0,0.035156 0,0.058594 z m 5.185547,-3.8320312 h -0.75 V 1.015625e-4 h 0.75 z m 1.977539,1.8398437 h -0.75 V 1.015625e-4 h 0.75 z m 0,-1.8398437 h -0.761718 v 0.9492187 h 0.761718 z m 1.277344,0 V 1.015625e-4 h 0.738281 V -2.5897422 c 0,-0.9609375 0.503907,-1.5820312 1.277344,-1.5820312 0.234375,0 0.480469,0.070312 0.65625,0.2109375 0.222656,0.1523437 0.304688,0.375 0.304688,0.703125 V 1.015625e-4 h 0.75 V -3.5506797 c 0,-0.7851562 -0.5625,-1.2773437 -1.476563,-1.2773437 -0.667969,0 -1.066406,0.1992187 -1.511719,0.7734375 v -2.484375 z m 6.788086,1.7109375 c -1.3125,0 -2.109375,0.9375 -2.109375,2.5195312 0,1.57031251 0.785156,2.51953126 2.121094,2.51953126 1.3125,0 2.121094,-0.94921875 2.121094,-2.48437496 0,-1.6289063 -0.773438,-2.5546875 -2.132813,-2.5546875 z m 0.01172,0.6914062 c 0.84375,0 1.347656,0.6796875 1.347656,1.8515625 0,1.1015625 -0.527344,1.80468751 -1.347656,1.80468751 -0.832031,0 -1.347656,-0.69140621 -1.347656,-1.82812501 0,-1.1367187 0.515625,-1.828125 1.347656,-1.828125 z m 4.974609,-0.6914062 c -1.3125,0 -2.109375,0.9375 -2.109375,2.5195312 0,1.57031251 0.785156,2.51953126 2.121094,2.51953126 1.3125,0 2.121094,-0.94921875 2.121094,-2.48437496 0,-1.6289063 -0.773438,-2.5546875 -2.132813,-2.5546875 z m 0.01172,0.6914062 c 0.84375,0 1.347656,0.6796875 1.347656,1.8515625 0,1.1015625 -0.527344,1.80468751 -1.347656,1.80468751 -0.832031,0 -1.347656,-0.69140621 -1.347656,-1.82812501 0,-1.1367187 0.515625,-1.828125 1.347656,-1.828125 z m 6.978516,-2.4023437 h -0.75 v 2.4375 c -0.316407,-0.4804688 -0.808594,-0.7265625 -1.441407,-0.7265625 -1.21875,0 -2.015625,0.9726562 -2.015625,2.4726562 0,1.58203126 0.773438,2.56640626 2.039063,2.56640626 0.644531,0 1.101562,-0.24609375 1.5,-0.83203125 V 1.015625e-4 h 0.667969 z m -2.0625,2.4023437 c 0.808593,0 1.3125,0.7265625 1.3125,1.8398438 0,1.0898437 -0.515625,1.80468746 -1.3125,1.80468746 -0.820313,0 -1.371094,-0.72656246 -1.371094,-1.81640626 0,-1.1015625 0.550781,-1.828125 1.371094,-1.828125 z m 0,0"
       style="fill:#000000;fill-opacity:1;fill-rule:nonzero;stroke:none"
       aria-label="Likelihood"
       transform="matrix(1.3333333,0,0,1.3333333,329.82,327.10533)" />
    <path
       id="path4"
       d="M 0,3.5198 V 225.7782"
       style="fill:none;stroke:#000000;stroke-width:0.99628;stroke-linecap:butt;stroke-linejoin:miter;stroke-miterlimit:10;stroke-dasharray:none;stroke-opacity:1"
       transform="matrix(1.3333333,0,0,-1.3333333,22.365333,322.916)" />
    <path
       id="path5"
       d="M -2.78957,3.47087 C -2.27992,1.38832 -1.14423,0.40492 0,0 -1.14423,-0.40492 -2.27992,-1.38832 -2.78957,-3.47087"
       style="fill:none;stroke:#000000;stroke-width:0.99628;stroke-linecap:round;stroke-linejoin:round;stroke-miterlimit:10;stroke-dasharray:none;stroke-opacity:1"
       transform="matrix(0,-1.3333333,-1.3333333,0,22.365333,21.214213)" />
    <path
       id="path6"
       d="M 1.7356406,-6.5390781 H 0.89189063 V -1.5625e-5 H 1.7356406 Z m 1.3886719,1.8398437 V -1.5625e-5 h 0.75 V -2.9531406 c 0,-0.6796875 0.4921875,-1.21875 1.1015625,-1.21875 0.5507813,0 0.8671875,0.3398437 0.8671875,0.9375 V -1.5625e-5 h 0.75 V -2.9531406 c 0,-0.6796875 0.4921875,-1.21875 1.1015625,-1.21875 0.5507813,0 0.8789063,0.3398437 0.8789063,0.9375 V -1.5625e-5 h 0.75 V -3.5273594 c 0,-0.84375 -0.4804688,-1.3007812 -1.359375,-1.3007812 -0.6328125,0 -1.0078125,0.1875 -1.453125,0.7148437 C 6.2415,-4.6172031 5.8665,-4.8281406 5.257125,-4.8281406 c -0.6328125,0 -1.0429687,0.234375 -1.453125,0.796875 v -0.6679688 z m 7.3183595,6.65625 h 0.761719 v -2.44921873 c 0.386718,0.48046875 0.832031,0.703125 1.441406,0.703125 1.207031,0 2.003906,-0.984375 2.003906,-2.48437497 0,-1.5703125 -0.773437,-2.5546875 -2.015625,-2.5546875 -0.632812,0 -1.148437,0.28125 -1.5,0.84375 v -0.7148438 h -0.691406 z m 2.0625,-6.09375 c 0.832031,0 1.371094,0.7265625 1.371094,1.8515625 0,1.0664063 -0.550782,1.79296877 -1.371094,1.79296877 -0.785156,0 -1.300781,-0.71484377 -1.300781,-1.81640627 0,-1.1015625 0.515625,-1.828125 1.300781,-1.828125 z m 7.233398,3.70312502 c -0.08203,0.0117188 -0.117187,0.0117188 -0.152343,0.0117188 -0.269532,0 -0.410157,-0.12890625 -0.410157,-0.36328125 V -3.5507969 c 0,-0.8320312 -0.609375,-1.2773437 -1.769531,-1.2773437 -0.679687,0 -1.242187,0.1875 -1.558594,0.5390625 -0.210937,0.2460937 -0.304687,0.515625 -0.316406,0.984375 h 0.75 c 0.05859,-0.5742188 0.398438,-0.8320313 1.101563,-0.8320313 0.667968,0 1.054687,0.2460938 1.054687,0.6914063 v 0.1992187 c 0,0.3164063 -0.1875,0.4453125 -0.785156,0.515625 -1.054688,0.140625 -1.21875,0.1757813 -1.5,0.2929688 -0.550781,0.2226562 -0.832031,0.6445312 -0.832031,1.2539062 0,0.85546877 0.597656,1.39453127 1.546875,1.39453127 0.585937,0 1.066406,-0.210937495 1.59375,-0.69140625 0.04687,0.46875 0.28125,0.69140625 0.773437,0.69140625 0.152344,0 0.269531,-0.0234375 0.503906,-0.0820313 z M 18.437789,-1.4765781 c 0,0.2460937 -0.08203,0.3984375 -0.304687,0.60937497 -0.304688,0.28125 -0.667969,0.421875 -1.113282,0.421875 -0.574218,0 -0.914062,-0.28125 -0.914062,-0.76171877 0,-0.4921875 0.328125,-0.7382812 1.125,-0.8554687 0.785156,-0.1054688 0.949219,-0.140625 1.207031,-0.2578125 z m 5.712891,-1.640625 c -0.03516,-0.4570313 -0.128907,-0.75 -0.304688,-1.0195313 -0.328125,-0.4335937 -0.890625,-0.6914062 -1.546875,-0.6914062 -1.265625,0 -2.085937,0.9960937 -2.085937,2.5546875 0,1.52343747 0.808593,2.48437497 2.074218,2.48437497 1.125,0 1.828125,-0.6796875 1.921875,-1.82812497 h -0.75 c -0.128906,0.76171872 -0.515625,1.13671872 -1.148437,1.13671872 -0.832031,0 -1.324219,-0.67968752 -1.324219,-1.79296872 0,-1.171875 0.492188,-1.8632813 1.300781,-1.8632813 0.632813,0 1.019532,0.3632813 1.113282,1.0195313 z m 2.537109,-1.5820313 H 25.92607 v -1.2890625 h -0.75 v 1.2890625 h -0.632812 v 0.609375 h 0.632812 v 3.55078127 c 0,0.48046875 0.328125,0.75 0.902344,0.75 0.1875,0 0.363281,-0.0234375 0.609375,-0.0703125 v -0.62109375 c -0.09375,0.0234375 -0.210937,0.0351563 -0.351562,0.0351563 -0.328125,0 -0.410157,-0.09375 -0.410157,-0.421875 V -4.0898594 h 0.761719 z m 0,0"
       style="fill:#000000;fill-opacity:1;fill-rule:nonzero;stroke:none"
       aria-label="Impact"
       transform="matrix(1.3333333,0,0,1.3333333,4.428,12.945333)" />
    <path
       id="path7"
       d="M 113.38724,0 V 226.77448"
       style="fill:none;stroke:#666666;stroke-width:0.74721;stroke-linecap:butt;stroke-linejoin:miter;stroke-miterlimit:10;stroke-dasharray:2.98883, 2.98883;stroke-dashoffset:0;stroke-opacity:1"
       transform="matrix(1.3333333,0,0,-1.3333333,22.365333,322.916)" />
    <path
       id="path8"
       d="M 0,113.38724 H 226.77448"
       style="fill:none;stroke:#666666;stroke-width:0.74721;stroke-linecap:butt;stroke-linejoin:miter;stroke-miterlimit:10;stroke-dasharray:2.98883, 2.98883;stroke-dashoffset:0;stroke-opacity:1"
       transform="matrix(1.3333333,0,0,-1.3333333,22.365333,322.916)" />
    <path
       id="path9"
       d="m 7.6288047,-2.2614453 c 0,-0.1992188 -0.070312,-0.2109375 -0.234375,-0.2109375 -0.1289063,0 -0.2226563,0 -0.234375,0.1757812 -0.070312,1.33593754 -1.2773438,1.93359379 -2.2734375,1.93359379 -0.7851563,0 -1.6171875,-0.234375 -2.1328125,-0.84374999 -0.46875,-0.5625 -0.5976563,-1.3125 -0.5976563,-2.2148438 0,-0.5507812 0.035156,-1.6289062 0.6679688,-2.2851562 0.6445312,-0.65625 1.5117187,-0.7734375 2.0273437,-0.7734375 1.078125,0 2.0273438,0.7617187 2.2382813,2.0273437 0.035156,0.1875 0.046875,0.2109375 0.2695312,0.2109375 0.2578125,0 0.2695313,-0.023437 0.2695313,-0.28125 v -2.1445312 c 0,-0.1875 0,-0.2695313 -0.1757813,-0.2695313 -0.09375,0 -0.1171875,0.011719 -0.1875,0.082031 l -0.65625,0.5859375 c -0.6210937,-0.4921875 -1.2890625,-0.6679688 -1.96875,-0.6679688 -2.484375,0 -4.00781246,1.4765625 -4.00781246,3.515625 0,2.0507813 1.52343746,3.52734379 4.00781246,3.52734379 1.8632813,0 2.9882813,-1.21874999 2.9882813,-2.36718719 z m 9.1933593,1.31249999 c 0,-0.21093749 -0.140625,-0.21093749 -0.234375,-0.21093749 -0.210937,0 -0.222656,0.09375 -0.234375,0.22265624 -0.04687,0.46875 -0.339844,0.69140625 -0.632812,0.69140625 -0.597657,0 -0.691407,-0.71484375 -0.738282,-1.12499999 -0.02344,-0.1171875 -0.09375,-0.796875 -0.105468,-0.8554688 -0.140625,-0.6914062 -0.691407,-0.9960937 -1.113282,-1.1601562 1.148438,-0.3046875 1.652344,-0.9492188 1.652344,-1.6054688 0,-1.0078125 -1.089844,-1.8398437 -2.964844,-1.8398437 H 8.6659141 v 0.46875 h 1.078125 v 5.89453124 H 8.6659141 V 2.734375e-4 C 9.0291953,-0.03488281 10.001852,-0.03488281 10.423727,-0.03488281 c 0.410156,0 1.394531,0 1.746093,0.0351562475 V -0.46847656 H 11.103414 V -3.2341016 h 1.160156 c 0.140625,0 0.574219,0 0.890625,0.3398438 0.316407,0.3398437 0.316407,0.5390625 0.316407,1.265625 0,0.65624999 0,1.13671874 0.691406,1.47656249 0.445312,0.22265625 1.054687,0.2578125 1.464844,0.2578125 1.066406,0 1.195312,-0.890625 1.195312,-1.0546875 z M 13.892477,-4.9801953 c 0,0.5625 0,1.3828125 -1.640625,1.3828125 h -1.148438 v -2.765625 h 1.171875 c 1.605469,0 1.617188,0.7734375 1.617188,1.3828125 z M 20.897359,2.734375e-4 V -0.46847656 H 19.760641 V -6.3630078 h 1.136718 v -0.46875 c -0.410156,0.023437 -1.394531,0.023437 -1.851562,0.023437 -0.457031,0 -1.429688,0 -1.839844,-0.023437 v 0.46875 h 1.136719 v 5.89453124 H 17.205953 V 2.734375e-4 C 17.616109,-0.03488281 18.588766,-0.03488281 19.045797,-0.03488281 c 0.457031,0 1.441406,0 1.851562,0.0351562475 z M 28.754781,-4.3239453 28.555563,-6.7262891 H 21.852438 L 21.6415,-4.3239453 h 0.46875 c 0.08203,-1.125 0.1875,-1.9335938 1.617188,-1.9335938 h 0.773437 v 5.78906254 H 22.977438 V 2.734375e-4 C 23.5165,-0.03488281 24.618063,-0.03488281 25.204,-0.03488281 c 0.585938,0 1.699219,0 2.226563,0.0351562475 V -0.46847656 H 25.907125 V -6.2575391 h 0.761719 c 1.429687,0 1.523437,0.796875 1.628906,1.9335938 z M 33.210836,2.734375e-4 V -0.46847656 H 32.074117 V -6.3630078 h 1.136719 v -0.46875 c -0.410156,0.023437 -1.394531,0.023437 -1.851563,0.023437 -0.457031,0 -1.429687,0 -1.839843,-0.023437 v 0.46875 h 1.136718 v 5.89453124 H 29.51943 V 2.734375e-4 C 29.929586,-0.03488281 30.902242,-0.03488281 31.359273,-0.03488281 c 0.457032,0 1.441407,0 1.851563,0.0351562475 z M 41.162008,-2.2614453 c 0,-0.1992188 -0.07031,-0.2109375 -0.234375,-0.2109375 -0.128906,0 -0.222656,0 -0.234375,0.1757812 -0.07031,1.33593754 -1.277344,1.93359379 -2.273438,1.93359379 -0.785156,0 -1.617187,-0.234375 -2.132812,-0.84374999 -0.46875,-0.5625 -0.597656,-1.3125 -0.597656,-2.2148438 0,-0.5507812 0.03516,-1.6289062 0.667968,-2.2851562 0.644532,-0.65625 1.511719,-0.7734375 2.027344,-0.7734375 1.078125,0 2.027344,0.7617187 2.238281,2.0273437 0.03516,0.1875 0.04687,0.2109375 0.269532,0.2109375 0.257812,0 0.269531,-0.023437 0.269531,-0.28125 v -2.1445312 c 0,-0.1875 0,-0.2695313 -0.175781,-0.2695313 -0.09375,0 -0.117188,0.011719 -0.1875,0.082031 l -0.65625,0.5859375 c -0.621094,-0.4921875 -1.289063,-0.6679688 -1.96875,-0.6679688 -2.484375,0 -4.007813,1.4765625 -4.007813,3.515625 0,2.0507813 1.523438,3.52734379 4.007813,3.52734379 1.863281,0 2.988281,-1.21874999 2.988281,-2.36718719 z M 50.05068,2.734375e-4 V -0.46847656 H 49.089742 L 46.535055,-6.6911328 c -0.105469,-0.2578125 -0.234375,-0.2578125 -0.398438,-0.2578125 -0.28125,0 -0.316406,0.070312 -0.386719,0.2578125 l -2.472656,5.98828124 c -0.05859,0.15234375 -0.09375,0.234375 -0.84375,0.234375 H 42.222555 V 2.734375e-4 L 43.382711,-0.03488281 c 0.386719,0 0.949219,0 1.324219,0.0351562475 V -0.46847656 c 0,0 -0.890625,0 -0.890625,-0.12890625 l 0.03516,-0.1171875 0.503906,-1.20703129 h 2.671875 l 0.597656,1.45312504 H 46.67568 V 2.734375e-4 c 0.375,-0.0351562475 1.324218,-0.0351562475 1.746093,-0.0351562475 0.398438,0 1.277344,0 1.628907,0.0351562475 z M 46.828023,-2.3903516 h -2.273437 l 1.136719,-2.765625 z m 10.051758,-0.3398437 h -0.46875 c -0.08203,0.6914062 -0.257812,2.26171874 -2.039062,2.26171874 H 53.352438 V -6.3630078 h 1.335937 v -0.46875 c -0.433594,0.023437 -1.523437,0.023437 -2.003906,0.023437 -0.445313,0 -1.453125,0 -1.828125,-0.023437 v 0.46875 h 1.078125 v 5.89453124 H 50.856344 V 2.734375e-4 h 5.707031 z m 0,0"
       style="fill:#d9534f;fill-opacity:1;fill-rule:nonzero;stroke:none"
       aria-label="CRITICAL"
       transform="matrix(1.3333333,0,0,1.3333333,210.89467,100.70667)" />
    <path
       id="path10"
       d="m 7.6280938,-2.2606094 c 0,-0.1992187 -0.070312,-0.2109375 -0.234375,-0.2109375 -0.1289063,0 -0.2226563,0 -0.234375,0.1757813 -0.070312,1.33593747 -1.2773438,1.93359372 -2.2734375,1.93359372 -0.7851563,0 -1.6171875,-0.234375 -2.1328125,-0.84375002 -0.46875,-0.5625 -0.5976563,-1.3125 -0.5976563,-2.2148437 0,-0.5507813 0.035156,-1.6289063 0.6679688,-2.2851563 0.6445312,-0.65625 1.5117187,-0.7734375 2.0273437,-0.7734375 1.078125,0 2.0273438,0.7617188 2.2382813,2.0273438 0.035156,0.1875 0.046875,0.2109375 0.2695312,0.2109375 0.2578125,0 0.2695313,-0.023437 0.2695313,-0.28125 v -2.1445313 c 0,-0.1875 0,-0.2695312 -0.1757813,-0.2695312 -0.09375,0 -0.1171875,0.011719 -0.1875,0.082031 l -0.65625,0.5859375 C 5.9874688,-6.7606094 5.3195,-6.9363906 4.6398125,-6.9363906 c -2.484375,0 -4.0078125,1.4765625 -4.0078125,3.515625 0,2.0507812 1.5234375,3.52734372 4.0078125,3.52734372 1.8632813,0 2.9882813,-1.21875002 2.9882813,-2.36718752 z m 8.6074222,-1.1132812 c 0,-2.15625 -1.441407,-3.5625 -3.65625,-3.5625 -2.273438,0 -3.6679691,1.4648437 -3.6679691,3.5625 0,2.0625 1.3945311,3.48046872 3.6562501,3.48046872 2.296875,0 3.667969,-1.44140622 3.667969,-3.48046872 z m -1.523438,-0.1523438 c 0,0.703125 -0.03516,1.5820313 -0.457031,2.2734375 -0.445313,0.72656252 -1.148438,0.94921877 -1.6875,0.94921877 -0.585938,0 -1.3125,-0.28125 -1.722656,-1.04296877 -0.328125,-0.609375 -0.410157,-1.3242187 -0.410157,-2.1796875 0,-0.6328125 0.03516,-1.4882812 0.46875,-2.15625 0.410157,-0.609375 1.078125,-0.8554687 1.664063,-0.8554687 0.644531,0 1.324219,0.2695312 1.722656,0.9257812 0.386719,0.6445313 0.421875,1.40625 0.421875,2.0859375 z M 27.35075,0.00110937 v -0.46875 H 26.284344 V -6.3621719 h 1.066406 v -0.46875 h -2.191406 c -0.222656,0 -0.339844,0 -0.445313,0.2460938 l -2.390625,5.2734375 -2.390625,-5.2734375 c -0.105468,-0.2460938 -0.222656,-0.2460938 -0.433593,-0.2460938 h -2.214844 v 0.46875 h 1.078125 v 5.60156252 c 0,0.22265625 -0.01172,0.234375 -0.292969,0.2578125 -0.234375,0.0351563 -0.257812,0.0351563 -0.539062,0.0351563 h -0.246094 v 0.46875 c 0.375,-0.03515625 0.949219,-0.03515625 1.335937,-0.03515625 0.421875,0 0.9375,0 1.347657,0.03515625 v -0.46875 h -0.257813 c -0.175781,0 -0.339844,-0.0117188 -0.527344,-0.0351563 -0.28125,-0.0234375 -0.292968,-0.0351563 -0.292968,-0.2578125 V -6.2332656 h 0.01172 l 2.707032,5.98828122 c 0.09375,0.19921875 0.210937,0.24609375 0.316406,0.24609375 0.199219,0 0.28125,-0.15234375 0.316406,-0.234375 l 2.777344,-6.12890627 h 0.01172 v 5.89453127 h -1.066407 v 0.46875 c 0.351563,-0.03515625 1.277344,-0.03515625 1.6875,-0.03515625 0.410157,0 1.347657,0 1.699219,0.03515625 z m 10.880859,0 v -0.46875 H 37.165203 V -6.3621719 h 1.066406 v -0.46875 h -2.191406 c -0.222656,0 -0.339844,0 -0.445312,0.2460938 l -2.390625,5.2734375 -2.390625,-5.2734375 c -0.105469,-0.2460938 -0.222657,-0.2460938 -0.433594,-0.2460938 h -2.214844 v 0.46875 h 1.078125 v 5.60156252 c 0,0.22265625 -0.01172,0.234375 -0.292969,0.2578125 -0.234375,0.0351563 -0.257812,0.0351563 -0.539062,0.0351563 h -0.246094 v 0.46875 c 0.375,-0.03515625 0.949219,-0.03515625 1.335938,-0.03515625 0.421875,0 0.9375,0 1.347656,0.03515625 v -0.46875 h -0.257813 c -0.175781,0 -0.339843,-0.0117188 -0.527343,-0.0351563 -0.28125,-0.0234375 -0.292969,-0.0351563 -0.292969,-0.2578125 V -6.2332656 h 0.01172 l 2.707031,5.98828122 c 0.09375,0.19921875 0.210937,0.24609375 0.316406,0.24609375 0.199219,0 0.28125,-0.15234375 0.316406,-0.234375 l 2.777344,-6.12890627 h 0.01172 v 5.89453127 h -1.066406 v 0.46875 c 0.351562,-0.03515625 1.277343,-0.03515625 1.6875,-0.03515625 0.410156,0 1.347656,0 1.699218,0.03515625 z m 8.370118,-3.37499997 c 0,-2.15625 -1.441407,-3.5625 -3.65625,-3.5625 -2.273438,0 -3.667969,1.4648437 -3.667969,3.5625 0,2.0625 1.394531,3.48046872 3.65625,3.48046872 2.296875,0 3.667969,-1.44140622 3.667969,-3.48046872 z m -1.523438,-0.1523438 c 0,0.703125 -0.03516,1.5820313 -0.457031,2.2734375 -0.445313,0.72656252 -1.148438,0.94921877 -1.6875,0.94921877 -0.585938,0 -1.3125,-0.28125 -1.722656,-1.04296877 -0.328125,-0.609375 -0.410157,-1.3242187 -0.410157,-2.1796875 0,-0.6328125 0.03516,-1.4882812 0.46875,-2.15625 0.410157,-0.609375 1.078125,-0.8554687 1.664063,-0.8554687 0.644531,0 1.324219,0.2695312 1.722656,0.9257812 0.386719,0.6445313 0.421875,1.40625 0.421875,2.0859375 z m 10.740234,-2.8359375 v -0.46875 c -0.375,0.023437 -0.949218,0.023437 -1.335937,0.023437 -0.421875,0 -0.9375,0 -1.347656,-0.023437 v 0.46875 h 0.257812 c 0.175781,0 0.339844,0.011719 0.527344,0.023437 0.28125,0.035156 0.292969,0.046875 0.292969,0.2578125 v 4.0429688 l -3.960938,-4.664062 C 50.146648,-6.8192031 50.13493,-6.8309219 49.923992,-6.8309219 h -2.285156 v 0.46875 h 1.078125 v 5.60156252 c 0,0.22265625 -0.01172,0.234375 -0.292969,0.2578125 -0.234375,0.0351563 -0.257812,0.0351563 -0.539062,0.0351563 h -0.246094 v 0.46875 c 0.375,-0.03515625 0.949219,-0.03515625 1.335937,-0.03515625 0.421875,0 0.9375,0 1.347657,0.03515625 v -0.46875 h -0.246094 c -0.1875,0 -0.351563,-0.0117188 -0.527344,-0.0351563 -0.292969,-0.0234375 -0.304687,-0.0351563 -0.304687,-0.2578125 V -5.9637344 l 4.957031,5.83593752 c 0.105469,0.1171875 0.117187,0.12890625 0.269531,0.12890625 0.269531,0 0.269531,-0.09375 0.269531,-0.31640625 V -6.0809219 c 0,-0.2109375 0.01172,-0.2226562 0.292969,-0.2578125 0.234375,-0.023437 0.257813,-0.023437 0.539063,-0.023437 z m 0,0"
       style="fill:#e67817;fill-opacity:1;fill-rule:nonzero;stroke:none"
       aria-label="COMMON"
       transform="matrix(1.3333333,0,0,1.3333333,211.65733,251.88133)" />
    <path
       id="path11"
       d="m 5.7173906,-2.0270703 c 0,-1.1015625 -0.8085937,-1.9101563 -1.7109375,-2.0976563 l -1.453125,-0.3046875 c -0.3984375,-0.09375 -0.9492187,-0.4335937 -0.9492187,-1.0429687 0,-0.421875 0.28125,-1.0429688 1.2773437,-1.0429688 0.796875,0 1.8046875,0.3398438 2.0273438,1.6992188 0.035156,0.234375 0.035156,0.2578125 0.2460937,0.2578125 0.2460938,0 0.2460938,-0.058594 0.2460938,-0.28125 v -1.828125 c 0,-0.1875 0,-0.2695313 -0.1875,-0.2695313 -0.070312,0 -0.082031,0 -0.1992188,0.1054688 l -0.4453125,0.4335937 c -0.5742187,-0.4570312 -1.21875,-0.5390625 -1.6992187,-0.5390625 -1.5117188,0 -2.23828127,0.9492188 -2.23828127,1.9921875 0,0.65625 0.328125,1.1132813 0.53906247,1.3242188 0.4921875,0.4921875 0.8320313,0.5625 1.921875,0.796875 0.8671875,0.1992187 1.0429688,0.2226562 1.2539063,0.4335937 0.1523437,0.1523438 0.3984375,0.4101563 0.3984375,0.8671875 0,0.4804688 -0.2578125,1.16015629 -1.2890625,1.16015629 -0.7617188,0 -2.2734375,-0.19921875 -2.3554688,-1.67578129 0,-0.1875 0,-0.234375 -0.22265622,-0.234375 -0.24609375,0 -0.24609375,0.058594 -0.24609375,0.2929688 v 1.81640624 c 0,0.1875 0,0.26953125 0.1875,0.26953125 0.0820313,0 0.10546875,-0.01171875 0.18749997,-0.08203125 l 0.4570313,-0.45703125 c 0.65625,0.48046875 1.5820312,0.5390625 1.9921875,0.5390625 1.640625,0 2.2617187,-1.12499999 2.2617187,-2.13281249 z m 7.8310544,-2.859375 c 0,-1.1015625 -0.984375,-1.9453125 -2.636718,-1.9453125 H 6.7515703 v 0.46875 h 1.078125 v 5.89453124 H 6.7515703 V 2.734375e-4 c 0.375,-0.0351562475 1.359375,-0.0351562475 1.78125,-0.0351562475 0.4335938,0 1.40625,0 1.7812497,0.0351562475 V -0.46847656 H 9.2476641 V -3.0114453 h 1.7578129 c 1.382812,0 2.542968,-0.7148438 2.542968,-1.875 z m -1.523437,0 c 0,0.703125 0,1.4648437 -1.511719,1.4648437 H 9.1890703 v -2.9414062 h 1.3359377 c 1.5,0 1.5,0.75 1.5,1.4765625 z m 9.377929,2.15625 h -0.46875 c -0.222656,1.3710937 -0.503906,2.26171874 -2.34375,2.26171874 H 17.078719 V -3.2809766 h 0.539062 c 0.960938,0 1.066406,0.4335938 1.066406,1.171875 h 0.457032 v -2.8007812 h -0.457032 c 0,0.7382812 -0.09375,1.1601562 -1.066406,1.1601562 h -0.539062 v -2.5546875 h 1.511718 c 1.605469,0 1.863282,0.7265625 2.015625,1.9335938 h 0.46875 l -0.304687,-2.4023438 h -6.1875 v 0.46875 h 1.078125 v 5.83593754 H 14.582625 V 2.734375e-4 h 6.351562 z m 7.954102,0.46875 c 0,-0.1992188 -0.07031,-0.2109375 -0.234375,-0.2109375 -0.128906,0 -0.222656,0 -0.234375,0.1757812 -0.07031,1.33593754 -1.277344,1.93359379 -2.273437,1.93359379 -0.785157,0 -1.617188,-0.234375 -2.132813,-0.84374999 -0.46875,-0.5625 -0.597656,-1.3125 -0.597656,-2.2148438 0,-0.5507812 0.03516,-1.6289062 0.667969,-2.2851562 0.644531,-0.65625 1.511718,-0.7734375 2.027343,-0.7734375 1.078125,0 2.027344,0.7617187 2.238282,2.0273437 0.03516,0.1875 0.04687,0.2109375 0.269531,0.2109375 0.257812,0 0.269531,-0.023437 0.269531,-0.28125 v -2.1445312 c 0,-0.1875 0,-0.2695313 -0.175781,-0.2695313 -0.09375,0 -0.117188,0.011719 -0.1875,0.082031 l -0.65625,0.5859375 c -0.621094,-0.4921875 -1.289063,-0.6679688 -1.96875,-0.6679688 -2.484375,0 -4.007813,1.4765625 -4.007813,3.515625 0,2.0507813 1.523438,3.52734379 4.007813,3.52734379 1.863281,0 2.988281,-1.21874999 2.988281,-2.36718719 z M 34.026961,2.734375e-4 V -0.46847656 H 32.890242 V -6.3630078 h 1.136719 v -0.46875 c -0.410156,0.023437 -1.394531,0.023437 -1.851563,0.023437 -0.457031,0 -1.429687,0 -1.839843,-0.023437 v 0.46875 h 1.136718 v 5.89453124 H 30.335555 V 2.734375e-4 C 30.745711,-0.03488281 31.718367,-0.03488281 32.175398,-0.03488281 c 0.457032,0 1.441407,0 1.851563,0.0351562475 z m 8.563476,0 V -0.46847656 H 41.6295 L 39.074812,-6.6911328 c -0.105468,-0.2578125 -0.234375,-0.2578125 -0.398437,-0.2578125 -0.28125,0 -0.316406,0.070312 -0.386719,0.2578125 L 35.817,-0.70285156 c -0.05859,0.15234375 -0.09375,0.234375 -0.84375,0.234375 H 34.762312 V 2.734375e-4 L 35.922469,-0.03488281 c 0.386718,0 0.949218,0 1.324218,0.0351562475 V -0.46847656 c 0,0 -0.890625,0 -0.890625,-0.12890625 l 0.03516,-0.1171875 0.503906,-1.20703129 H 39.567 l 0.597656,1.45312504 H 39.215437 V 2.734375e-4 c 0.375,-0.0351562475 1.324219,-0.0351562475 1.746094,-0.0351562475 0.398438,0 1.277344,0 1.628906,0.0351562475 z M 39.367781,-2.3903516 h -2.273437 l 1.136718,-2.765625 z m 10.051758,-0.3398437 h -0.46875 c -0.08203,0.6914062 -0.257812,2.26171874 -2.039062,2.26171874 H 45.892195 V -6.3630078 h 1.335938 v -0.46875 c -0.433594,0.023437 -1.523438,0.023437 -2.003906,0.023437 -0.445313,0 -1.453125,0 -1.828125,-0.023437 v 0.46875 h 1.078125 v 5.89453124 H 43.396102 V 2.734375e-4 h 5.707031 z m 4.50293,2.7304687375 V -0.46847656 H 52.78575 V -6.3630078 h 1.136719 v -0.46875 c -0.410157,0.023437 -1.394532,0.023437 -1.851563,0.023437 -0.457031,0 -1.429687,0 -1.839844,-0.023437 v 0.46875 h 1.136719 v 5.89453124 H 50.231062 V 2.734375e-4 C 50.641219,-0.03488281 51.613875,-0.03488281 52.070906,-0.03488281 c 0.457031,0 1.441406,0 1.851563,0.0351562475 z M 60.669539,-2.8239453 h -0.46875 c -0.07031,1.1015625 -0.210937,2.32031249 -2.261719,2.32031249 h -1.394531 l 3.984375,-5.83593749 c 0.07031,-0.1289063 0.07031,-0.140625 0.07031,-0.2460938 0,-0.2460937 -0.105469,-0.2460937 -0.316407,-0.2460937 h -5.121093 l -0.117188,2.4023437 h 0.46875 c 0.08203,-1.3242187 0.75,-1.9335937 2.144531,-1.9335937 h 1.289063 l -3.984375,5.84765624 c -0.08203,0.1171875 -0.08203,0.15234375 -0.08203,0.2578125 0,0.2578124975 0.105468,0.2578124975 0.328125,0.2578124975 h 5.285156 z m 7.787109,0.09375 h -0.46875 c -0.222656,1.3710937 -0.503906,2.26171874 -2.34375,2.26171874 H 64.13243 V -3.2809766 h 0.539062 c 0.960938,0 1.066406,0.4335938 1.066406,1.171875 h 0.457032 v -2.8007812 h -0.457032 c 0,0.7382812 -0.09375,1.1601562 -1.066406,1.1601562 H 64.13243 v -2.5546875 h 1.511718 c 1.605469,0 1.863282,0.7265625 2.015625,1.9335938 h 0.46875 l -0.304687,-2.4023438 h -6.1875 v 0.46875 h 1.078125 v 5.83593754 H 61.636336 V 2.734375e-4 h 6.351562 z m 8.458008,-0.6210938 c 0,-2.1914062 -1.488281,-3.4804687 -3.457031,-3.4804687 h -4.289062 v 0.46875 h 1.078125 v 5.89453124 H 69.168563 V 2.734375e-4 h 4.300781 c 1.957031,0 3.445312,-1.2304687375 3.445312,-3.3515625375 z m -1.453125,-0.011719 c 0,1.078125 -0.128906,1.6054687 -0.445312,2.0625 -0.480469,0.66796874 -1.347656,0.83203124 -1.957031,0.83203124 H 71.606063 V -6.3630078 h 1.453125 c 0.65625,0 1.476562,0.1875 1.96875,0.8789062 0.351562,0.515625 0.433593,1.1953125 0.433593,2.1210935 z m 0,0"
       style="fill:#e67817;fill-opacity:1;fill-rule:nonzero;stroke:none"
       aria-label="SPECIALIZED"
       transform="matrix(1.3333333,0,0,1.3333333,46.244,100.70667)" />
    <path
       id="path12"
       d="m 8.5439297,-0.94810938 c 0,-0.21093752 -0.140625,-0.21093752 -0.234375,-0.21093752 -0.2109375,0 -0.2226563,0.09375 -0.234375,0.22265627 -0.046875,0.46875 -0.3398438,0.69140625 -0.6328125,0.69140625 -0.5976563,0 -0.6914063,-0.71484375 -0.7382813,-1.12500002 -0.023437,-0.1171875 -0.09375,-0.796875 -0.1054687,-0.8554687 -0.140625,-0.6914063 -0.6914063,-0.9960938 -1.1132813,-1.1601563 1.1484375,-0.3046875 1.6523438,-0.9492187 1.6523438,-1.6054687 0,-1.0078125 -1.0898438,-1.8398438 -2.9648438,-1.8398438 H 0.38767969 v 0.46875 H 1.4658047 v 5.89453127 H 0.38767969 v 0.46875 c 0.36328125,-0.03515625 1.33593751,-0.03515625 1.75781251,-0.03515625 0.4101562,0 1.3945312,0 1.7460937,0.03515625 v -0.46875 H 2.8251797 V -3.2332656 h 1.1601562 c 0.140625,0 0.5742188,0 0.890625,0.3398437 0.3164063,0.3398438 0.3164063,0.5390625 0.3164063,1.265625 0,0.65625002 0,1.13671877 0.6914062,1.47656252 0.4453125,0.22265625 1.0546875,0.2578125 1.4648438,0.2578125 1.0664062,0 1.1953125,-0.890625 1.1953125,-1.0546875 z M 5.6142422,-4.9793594 c 0,0.5625 0,1.3828125 -1.640625,1.3828125 H 2.8251797 v -2.765625 h 1.171875 c 1.6054687,0 1.6171875,0.7734375 1.6171875,1.3828125 z m 10.6230468,1.6054688 c 0,-2.15625 -1.441406,-3.5625 -3.65625,-3.5625 -2.273437,0 -3.6679687,1.4648437 -3.6679687,3.5625 0,2.0625 1.3945317,3.48046872 3.6562497,3.48046872 2.296875,0 3.667969,-1.44140622 3.667969,-3.48046872 z m -1.523437,-0.1523438 c 0,0.703125 -0.03516,1.5820313 -0.457032,2.2734375 -0.445312,0.72656252 -1.148437,0.94921877 -1.6875,0.94921877 -0.585937,0 -1.3125,-0.28125 -1.722656,-1.04296877 -0.328125,-0.609375 -0.410156,-1.3242187 -0.410156,-2.1796875 0,-0.6328125 0.03516,-1.4882812 0.46875,-2.15625 0.410156,-0.609375 1.078125,-0.8554687 1.664062,-0.8554687 0.644532,0 1.324219,0.2695312 1.722657,0.9257812 0.386718,0.6445313 0.421875,1.40625 0.421875,2.0859375 z m 10.58789,-2.8359375 v -0.46875 c -0.375,0.023437 -0.9375,0.023437 -1.335937,0.023437 -0.410157,0 -0.9375,0 -1.335938,-0.023437 v 0.46875 h 0.246094 c 0.175781,0 0.351562,0.011719 0.527344,0.023437 0.292968,0.035156 0.292968,0.046875 0.292968,0.2578125 v 3.7617188 c 0,1.47656247 -1.078125,1.95703122 -2.167968,1.95703122 -1.746094,0 -1.757813,-1.30078122 -1.757813,-1.86328122 v -4.1367188 h 1.066406 v -0.46875 c -0.375,0.023437 -1.347656,0.023437 -1.78125,0.023437 -0.421875,0 -1.40625,0 -1.78125,-0.023437 v 0.46875 h 1.078125 v 4.0664063 c 0,1.32421872 1.078125,2.40234372 3.140625,2.40234372 1.886719,0 2.730469,-1.16015622 2.730469,-2.39062502 v -3.796875 c 0,-0.2109375 0.01172,-0.2226562 0.292969,-0.2578125 0.246094,-0.023437 0.257812,-0.023437 0.539062,-0.023437 z m 7.936524,2.0390625 -0.199219,-2.4023437 h -6.703125 l -0.210938,2.4023437 h 0.46875 c 0.08203,-1.125 0.1875,-1.9335937 1.617188,-1.9335937 h 0.773437 v 5.78906247 h -1.523437 v 0.46875 c 0.539062,-0.03515625 1.640625,-0.03515625 2.226562,-0.03515625 0.585938,0 1.699219,0 2.226563,0.03515625 v -0.46875 H 30.390609 V -6.2567031 h 0.761719 c 1.429688,0 1.523438,0.796875 1.628906,1.9335937 z m 4.456054,4.32421877 v -0.46875 H 36.557602 V -6.3621719 h 1.136718 v -0.46875 c -0.410156,0.023437 -1.394531,0.023437 -1.851562,0.023437 -0.457031,0 -1.429688,0 -1.839844,-0.023437 v 0.46875 h 1.136719 v 5.89453127 h -1.136719 v 0.46875 c 0.410156,-0.03515625 1.382813,-0.03515625 1.839844,-0.03515625 0.457031,0 1.441406,0 1.851562,0.03515625 z m 8.888672,-6.36328127 v -0.46875 c -0.375,0.023437 -0.949219,0.023437 -1.335937,0.023437 -0.421875,0 -0.9375,0 -1.347657,-0.023437 v 0.46875 h 0.257813 c 0.175781,0 0.339844,0.011719 0.527344,0.023437 0.28125,0.035156 0.292968,0.046875 0.292968,0.2578125 v 4.0429688 l -3.960937,-4.6640625 c -0.105469,-0.1171875 -0.117188,-0.1289063 -0.328125,-0.1289063 h -2.285156 v 0.46875 h 1.078125 v 5.60156252 c 0,0.22265625 -0.01172,0.234375 -0.292969,0.2578125 -0.234375,0.0351563 -0.257813,0.0351563 -0.539063,0.0351563 h -0.246093 v 0.46875 c 0.375,-0.03515625 0.949218,-0.03515625 1.335937,-0.03515625 0.421875,0 0.9375,0 1.347656,0.03515625 v -0.46875 h -0.246093 c -0.1875,0 -0.351563,-0.0117188 -0.527344,-0.0351563 -0.292969,-0.0234375 -0.304688,-0.0351563 -0.304688,-0.2578125 V -5.9637344 l 4.957032,5.83593752 c 0.105468,0.1171875 0.117187,0.12890625 0.269531,0.12890625 0.269531,0 0.269531,-0.09375 0.269531,-0.31640625 V -6.0809219 c 0,-0.2109375 0.01172,-0.2226562 0.292969,-0.2578125 0.234375,-0.023437 0.257812,-0.023437 0.539062,-0.023437 z m 7.608399,3.6328125 h -0.46875 c -0.222657,1.3710938 -0.503907,2.26171877 -2.34375,2.26171877 H 49.867172 V -3.2801406 h 0.539062 c 0.960938,0 1.066407,0.4335937 1.066407,1.171875 h 0.457031 v -2.8007813 h -0.457031 c 0,0.7382813 -0.09375,1.1601563 -1.066407,1.1601563 h -0.539062 v -2.5546875 h 1.511719 c 1.605468,0 1.863281,0.7265625 2.015625,1.9335937 h 0.46875 l -0.304688,-2.4023437 h -6.1875 v 0.46875 h 1.078125 v 5.83593747 h -1.078125 v 0.46875 h 6.351563 z m 0,0"
       style="fill:#666666;fill-opacity:1;fill-rule:nonzero;stroke:none"
       aria-label="ROUTINE"
       transform="matrix(1.3333333,0,0,1.3333333,61.612,251.88133)" />
    <path
       id="path13"
       d="m 201.24574,198.42766 c 0,1.55639 -1.26169,2.81808 -2.81808,2.81808 -1.5564,0 -2.81809,-1.26169 -2.81809,-2.81808 0,-1.5564 1.26169,-2.81809 2.81809,-2.81809 1.55639,0 2.81808,1.26169 2.81808,2.81809 z"
       style="fill:#d9534f;fill-opacity:1;fill-rule:nonzero;stroke:none"
       transform="matrix(1.3333333,0,0,-1.3333333,22.365333,322.916)" />
    <path
       id="path14"
       d="m 201.24574,85.04042 c 0,1.5564 -1.26169,2.81808 -2.81808,2.81808 -1.5564,0 -2.81809,-1.26168 -2.81809,-2.81808 0,-1.5564 1.26169,-2.81808 2.81809,-2.81808 1.55639,0 2.81808,1.26168 2.81808,2.81808 z"
       style="fill:#e67817;fill-opacity:1;fill-rule:nonzero;stroke:none"
       transform="matrix(1.3333333,0,0,-1.3333333,22.365333,322.916)" />
    <path
       id="path15"
       d="m 45.33829,198.42766 c 0,1.55639 -1.26169,2.81808 -2.81809,2.81808 -1.5564,0 -2.81808,-1.26169 -2.81808,-2.81808 0,-1.5564 1.26168,-2.81809 2.81808,-2.81809 1.5564,0 2.81809,1.26169 2.81809,2.81809 z"
       style="fill:#e67817;fill-opacity:1;fill-rule:nonzero;stroke:none"
       transform="matrix(1.3333333,0,0,-1.3333333,22.365333,322.916)" />
    <path
       id="path16"
       d="m 87.8585,56.69362 c 0,1.55638 -1.26168,2.81807 -2.81808,2.81807 -1.5564,0 -2.81808,-1.26169 -2.81808,-2.81807 0,-1.5564 1.26168,-2.81809 2.81808,-2.81809 1.5564,0 2.81808,1.26169 2.81808,2.81809 z"
       style="fill:#666666;fill-opacity:1;fill-rule:nonzero;stroke:none"
       transform="matrix(1.3333333,0,0,-1.3333333,22.365333,322.916)" />
    <path
       id="path17"
       d="m 215.41914,141.73404 c 0,1.5564 -1.26168,2.81808 -2.81808,2.81808 -1.5564,0 -2.81809,-1.26168 -2.81809,-2.81808 0,-1.5564 1.26169,-2.81809 2.81809,-2.81809 1.5564,0 2.81808,1.26169 2.81808,2.81809 z"
       style="fill:#d9534f;fill-opacity:1;fill-rule:nonzero;stroke:none"
       transform="matrix(1.3333333,0,0,-1.3333333,22.365333,322.916)" />
  </g>
</svg>
