<?xml version="1.0" encoding="UTF-8" standalone="no"?>
<!-- Created with Inkscape (http://www.inkscape.org/) -->

<svg
   version="1.1"
   id="svg2"
   width="643.72931"
   height="327.23068"
   viewBox="0 0 643.72931 327.23068"
   xmlns="http://www.w3.org/2000/svg"
   xmlns:svg="http://www.w3.org/2000/svg">
  <defs
     id="defs6" />
  <g
     id="g8"
     transform="matrix(1.3333333,0,0,-1.3333333,0,327.23067)">
    <g
       id="g10"
       transform="translate(36.263,206.408)">
      <g
         id="g12">
        <g
           id="g14">
          <g
             id="g16">
            <g
               id="g18">
              <path
                 d="M -35.89009,-27.30307 H 446.00586 V 38.64177 H -35.89009 Z"
                 style="fill:#ffffe5;fill-opacity:1;fill-rule:nonzero;stroke:#b5b548;stroke-width:0.74721;stroke-linecap:butt;stroke-linejoin:miter;stroke-miterlimit:10;stroke-dasharray:none;stroke-opacity:1"
                 id="path20" />
            </g>
            <g
               id="g22"
               transform="translate(0,5.669)">
              <g
                 id="g24" />
              <g
                 id="g26"
                 transform="translate(0,-5.669)" />
            </g>
          </g>
          <g
             id="g28">
            <g
               id="g30">
              <path
                 d="m -35.7302,-115.22421 h 481.89595 v 66.0368 H -35.7302 Z"
                 style="fill:#ffffe5;fill-opacity:1;fill-rule:nonzero;stroke:#b5b548;stroke-width:0.74721;stroke-linecap:butt;stroke-linejoin:miter;stroke-miterlimit:10;stroke-dasharray:none;stroke-opacity:1"
                 id="path32" />
            </g>
            <g
               id="g34"
               transform="translate(11.339,-82.205)">
              <g
                 id="g36" />
              <g
                 id="g38"
                 transform="translate(-11.339,82.205)" />
            </g>
          </g>
          <g
             id="g40">
            <g
               id="g42">
              <path
                 d="m -35.7302,-206.03706 h 481.89595 v 66.24307 H -35.7302 Z"
                 style="fill:#ffffe5;fill-opacity:1;fill-rule:nonzero;stroke:#b5b548;stroke-width:0.74721;stroke-linecap:butt;stroke-linejoin:miter;stroke-miterlimit:10;stroke-dasharray:none;stroke-opacity:1"
                 id="path44" />
            </g>
            <g
               id="g46"
               transform="translate(11.339,-172.913)">
              <g
                 id="g48" />
              <g
                 id="g50"
                 transform="translate(-11.339,172.913)" />
            </g>
          </g>
        </g>
        <g
           id="g52">
          <g
             id="g54">
            <g
               id="g56">
              <g
                 id="g58">
                <path
                   d="M 0.3736,-18.42542 H 89.39914 V 18.42541 H 0.3736 Z"
                   style="fill:#dbfda6;fill-opacity:1;fill-rule:nonzero;stroke:#495938;stroke-width:0.74721;stroke-linecap:butt;stroke-linejoin:miter;stroke-miterlimit:10;stroke-dasharray:none;stroke-opacity:1"
                   id="path60" />
              </g>
              <g
                 id="g62"
                 transform="translate(2.366,7.753)">
                <g
                   id="g64">
                  <g
                     id="g66"
                     transform="translate(-38.629,-214.161)">
                    <text
                       xml:space="preserve"
                       transform="matrix(1,0,0,-1,51.251,214.161)"
                       style="font-variant:normal;font-size:8.96638px;font-family:'Nimbus Sans';-inkscape-font-specification:NimbusSanL-Regu;writing-mode:lr-tb;fill:#000000;fill-opacity:1;fill-rule:nonzero;stroke:none"
                       id="text70"><tspan
                         x="0 6.4737263 8.464263 13.44957 18.434877 25.912838 33.381832 40.850826 47.324554 52.30986 54.802513"
                         y="0"
                         id="tspan68">CloudMLData</tspan></text>
                    <text
                       xml:space="preserve"
                       transform="matrix(1,0,0,-1,43.612,203.203)"
                       style="font-variant:normal;font-size:8.96638px;font-family:'Nimbus Sans';-inkscape-font-specification:NimbusSanL-Regu;writing-mode:lr-tb;fill:#000000;fill-opacity:1;fill-rule:nonzero;stroke:none"
                       id="text74"><tspan
                         x="0 6.4737263 11.459034 16.444342 18.936995 23.922302 26.908106 33.874985 38.286442 41.182583 46.167892 48.158428 53.143734 55.13427 60.119579 67.58857 72.573883"
                         y="0"
                         id="tspan72">CentersTrainingat</tspan></text>
                    <text
                       xml:space="preserve"
                       transform="matrix(1,0,0,-1,69.937,192.244)"
                       style="font-variant:normal;font-size:8.96638px;font-family:'Nimbus Sans';-inkscape-font-specification:NimbusSanL-Regu;writing-mode:lr-tb;fill:#000000;fill-opacity:1;fill-rule:nonzero;stroke:none"
                       id="text78"><tspan
                         x="0 5.9805756 10.463765 15.449073 17.43961"
                         y="0"
                         id="tspan76">Scale</tspan></text>
                    <g
                       id="g80"
                       transform="translate(38.629,214.161)" />
                  </g>
                </g>
                <g
                   id="g82"
                   transform="translate(-2.366,-7.753)" />
              </g>
            </g>
            <g
               id="g84">
              <g
                 id="g86">
                <path
                   d="m 107.1546,-18.42542 h 89.02554 V 18.42541 H 107.1546 Z"
                   style="fill:#dbfda6;fill-opacity:1;fill-rule:nonzero;stroke:#495938;stroke-width:0.74721;stroke-linecap:butt;stroke-linejoin:miter;stroke-miterlimit:10;stroke-dasharray:none;stroke-opacity:1"
                   id="path88" />
              </g>
              <g
                 id="g90"
                 transform="translate(109.146,7.816)">
                <g
                   id="g92">
                  <g
                     id="g94"
                     transform="translate(-145.409,-214.224)">
                    <text
                       xml:space="preserve"
                       transform="matrix(1,0,0,-1,158.026,214.224)"
                       style="font-variant:normal;font-size:8.96638px;font-family:'Nimbus Sans';-inkscape-font-specification:NimbusSanL-Regu;writing-mode:lr-tb;fill:#000000;fill-opacity:1;fill-rule:nonzero;stroke:none"
                       id="text98"><tspan
                         x="0 5.9805756 10.965882 15.95119 23.429152 30.898146 38.376106 43.361412 48.346722 52.82991 57.81522"
                         y="0"
                         id="tspan96">EdgeMLLocal</tspan></text>
                    <text
                       xml:space="preserve"
                       transform="matrix(1,0,0,-1,145.953,203.265)"
                       style="font-variant:normal;font-size:8.96638px;font-family:'Nimbus Sans';-inkscape-font-specification:NimbusSanL-Regu;writing-mode:lr-tb;fill:#000000;fill-opacity:1;fill-rule:nonzero;stroke:none"
                       id="text102"><tspan
                         x="0 5.9805756 8.9663801 13.951687 18.434877 23.420185 27.903374 32.386566 34.377102 39.362408 46.831402 49.324055 54.309364 56.541992 61.527298 64.513107 69.498413 74.483719 78.966911"
                         y="0"
                         id="tspan100">ProcessingInference</tspan></text>
                    <text
                       xml:space="preserve"
                       transform="matrix(1,0,0,-1,175.855,192.306)"
                       style="font-variant:normal;font-size:8.96638px;font-family:'Nimbus Sans';-inkscape-font-specification:NimbusSanL-Regu;writing-mode:lr-tb;fill:#000000;fill-opacity:1;fill-rule:nonzero;stroke:none"
                       id="text106"><tspan
                         x="0 5.2184334 10.194774 14.677964 19.663271"
                         y="0"
                         id="tspan104">Focus</tspan></text>
                    <g
                       id="g108"
                       transform="translate(145.409,214.224)" />
                  </g>
                </g>
                <g
                   id="g110"
                   transform="translate(-109.146,-7.816)" />
              </g>
            </g>
            <g
               id="g112">
              <g
                 id="g114">
                <path
                   d="m 213.93561,-18.42542 h 89.02554 v 36.85083 h -89.02554 z"
                   style="fill:#dbfda6;fill-opacity:1;fill-rule:nonzero;stroke:#495938;stroke-width:0.74721;stroke-linecap:butt;stroke-linejoin:miter;stroke-miterlimit:10;stroke-dasharray:none;stroke-opacity:1"
                   id="path116" />
              </g>
              <g
                 id="g118"
                 transform="translate(215.926,8.708)">
                <g
                   id="g120">
                  <g
                     id="g122"
                     transform="translate(-252.189,-215.116)">
                    <text
                       xml:space="preserve"
                       transform="matrix(1,0,0,-1,255.319,215.116)"
                       style="font-variant:normal;font-size:8.96638px;font-family:'Nimbus Sans';-inkscape-font-specification:NimbusSanL-Regu;writing-mode:lr-tb;fill:#000000;fill-opacity:1;fill-rule:nonzero;stroke:none"
                       id="text126"><tspan
                         x="0 7.4689946 12.454302 17.43961 19.430145 21.420681 28.898643 36.367638 43.845596 49.377853 54.363163 57.348965 61.832157 66.817467 71.802773 76.788078"
                         y="0"
                         id="tspan124">MobileMLPersonal</tspan></text>
                    <text
                       xml:space="preserve"
                       transform="matrix(1,0,0,-1,269.437,204.157)"
                       style="font-variant:normal;font-size:8.96638px;font-family:'Nimbus Sans';-inkscape-font-specification:NimbusSanL-Regu;writing-mode:lr-tb;fill:#000000;fill-opacity:1;fill-rule:nonzero;stroke:none"
                       id="text130"><tspan
                         x="0 6.4737263 11.190042 15.673232 17.663769 22.146959 27.132265 31.615456 38.089184 42.572372 47.557678"
                         y="0"
                         id="tspan128">DevicesUser</tspan></text>
                    <text
                       xml:space="preserve"
                       transform="matrix(1,0,0,-1,270.54,193.199)"
                       style="font-variant:normal;font-size:8.96638px;font-family:'Nimbus Sans';-inkscape-font-specification:NimbusSanL-Regu;writing-mode:lr-tb;fill:#000000;fill-opacity:1;fill-rule:nonzero;stroke:none"
                       id="text134"><tspan
                         x="0 5.9805756 10.965882 15.95119 17.941727 19.932262 24.415453 29.400761 31.893414 33.883949 38.869259 43.854565"
                         y="0"
                         id="tspan132">Applications</tspan></text>
                    <g
                       id="g136"
                       transform="translate(252.189,215.116)" />
                  </g>
                </g>
                <g
                   id="g138"
                   transform="translate(-215.926,-8.708)" />
              </g>
            </g>
            <g
               id="g140">
              <g
                 id="g142">
                <path
                   d="m 320.71661,-18.42542 h 89.02554 v 36.85083 h -89.02554 z"
                   style="fill:#dbfda6;fill-opacity:1;fill-rule:nonzero;stroke:#495938;stroke-width:0.74721;stroke-linecap:butt;stroke-linejoin:miter;stroke-miterlimit:10;stroke-dasharray:none;stroke-opacity:1"
                   id="path144" />
              </g>
              <g
                 id="g146"
                 transform="translate(322.705,7.857)">
                <g
                   id="g148">
                  <g
                     id="g150"
                     transform="translate(-358.968,-214.265)">
                    <text
                       xml:space="preserve"
                       transform="matrix(1,0,0,-1,363.933,214.265)"
                       style="font-variant:normal;font-size:8.96638px;font-family:'Nimbus Sans';-inkscape-font-specification:NimbusSanL-Regu;writing-mode:lr-tb;fill:#000000;fill-opacity:1;fill-rule:nonzero;stroke:none"
                       id="text154"><tspan
                         x="0 5.4784584 7.4689946 12.319806 16.802996 24.27199 31.740986 37.721561 45.190556 50.175861 55.161171 60.146477 65.131783 70.117088"
                         y="0"
                         id="tspan152">TinyMLEmbedded</tspan></text>
                    <text
                       xml:space="preserve"
                       transform="matrix(1,0,0,-1,363.87,203.306)"
                       style="font-variant:normal;font-size:8.96638px;font-family:'Nimbus Sans';-inkscape-font-specification:NimbusSanL-Regu;writing-mode:lr-tb;fill:#000000;fill-opacity:1;fill-rule:nonzero;stroke:none"
                       id="text158"><tspan
                         x="0 5.9805756 10.463765 14.946956 17.43961 22.424917 29.893911 36.860786 43.334515 48.31982 52.803013 57.788319 62.773628 65.75943 70.242622"
                         y="0"
                         id="tspan156">SystemsResource</tspan></text>
                    <text
                       xml:space="preserve"
                       transform="matrix(1,0,0,-1,377.364,192.347)"
                       style="font-variant:normal;font-size:8.96638px;font-family:'Nimbus Sans';-inkscape-font-specification:NimbusSanL-Regu;writing-mode:lr-tb;fill:#000000;fill-opacity:1;fill-rule:nonzero;stroke:none"
                       id="text162"><tspan
                         x="0 6.4737263 11.459034 16.444342 20.92753 23.420185 26.316326 31.301632 33.292168 38.277477 43.262783"
                         y="0"
                         id="tspan160">Constrained</tspan></text>
                    <g
                       id="g164"
                       transform="translate(358.968,214.265)" />
                  </g>
                </g>
                <g
                   id="g166"
                   transform="translate(-322.705,-7.857)" />
              </g>
            </g>
            <g
               id="g168" />
            <g
               id="g170">
              <g
                 id="g172"
                 transform="translate(329.745,25.702)">
                <g
                   id="g174">
                  <g
                     id="g176"
                     transform="translate(-366.008,-232.11)">
                    <text
                       xml:space="preserve"
                       transform="matrix(1,0,0,-1,366.008,232.11)"
                       style="font-variant:normal;font-size:8.96638px;font-family:'Nimbus Sans';-inkscape-font-specification:NimbusSanL-Regu;writing-mode:lr-tb;fill:#000000;fill-opacity:1;fill-rule:nonzero;stroke:none"
                       id="text180"><tspan
                         x="0 7.4689946 14.937989 20.918564 25.401754 29.884945 32.377598 37.362904 47.324554 49.817207 57.286201 62.271507 64.262047 69.247353 76.716347 81.701653 86.686958 89.179619 94.164925 96.657578 98.648109 103.63342 108.61873"
                         y="0"
                         id="tspan178">MLSystemImplementations</tspan></text>
                    <g
                       id="g182"
                       transform="translate(366.008,232.11)" />
                  </g>
                </g>
                <g
                   id="g184"
                   transform="translate(-329.745,-25.702)" />
              </g>
            </g>
          </g>
          <g
             id="g186">
            <g
               id="g188">
              <g
                 id="g190">
                <path
                   d="m 11.71214,-97.79655 h 113.38727 v 36.85083 H 11.71214 Z"
                   style="fill:#d1f3ff;fill-opacity:1;fill-rule:nonzero;stroke:#2294bd;stroke-width:0.74721;stroke-linecap:butt;stroke-linejoin:miter;stroke-miterlimit:10;stroke-dasharray:none;stroke-opacity:1"
                   id="path192" />
              </g>
              <g
                 id="g194"
                 transform="translate(17.382,-76.191)">
                <g
                   id="g196">
                  <g
                     id="g198"
                     transform="translate(-53.645,-130.217)">
                    <text
                       xml:space="preserve"
                       transform="matrix(1,0,0,-1,53.645,130.217)"
                       style="font-variant:normal;font-size:8.96638px;font-family:'Nimbus Sans';-inkscape-font-specification:NimbusSanL-Regu;writing-mode:lr-tb;fill:#000000;fill-opacity:1;fill-rule:nonzero;stroke:none"
                       id="text202"><tspan
                         x="0 6.4737263 11.459034 13.951687 21.223421 27.203997 29.194532 34.17984 39.16515 41.155685 43.146221 48.131527 55.403263 61.876987 66.862297 68.852829 70.843369 75.828674 80.311867 82.80452 84.795059 89.780365 97.061066"
                         y="0"
                         id="tspan200">DataPipelineCollection–</tspan></text>
                    <text
                       xml:space="preserve"
                       transform="matrix(1,0,0,-1,53.726,119.259)"
                       style="font-variant:normal;font-size:8.96638px;font-family:'Nimbus Sans';-inkscape-font-specification:NimbusSanL-Regu;writing-mode:lr-tb;fill:#000000;fill-opacity:1;fill-rule:nonzero;stroke:none"
                       id="text206"><tspan
                         x="0 5.9805756 8.9663801 13.951687 18.434877 23.420185 27.903374 32.386566 34.377102 39.362408 46.84037 54.309364 60.783089 65.768394 70.753708 72.74424 77.469521 81.952713 89.421707 94.407013 99.392319"
                         y="0"
                         id="tspan204">Processing–Deployment</tspan></text>
                    <g
                       id="g208"
                       transform="translate(53.645,130.217)" />
                  </g>
                </g>
                <g
                   id="g210"
                   transform="translate(-17.382,76.191)" />
              </g>
            </g>
            <g
               id="g212">
              <g
                 id="g214">
                <path
                   d="m 148.52414,-97.84254 h 113.38727 v 36.94281 H 148.52414 Z"
                   style="fill:#d1f3ff;fill-opacity:1;fill-rule:nonzero;stroke:#2294bd;stroke-width:0.74721;stroke-linecap:butt;stroke-linejoin:miter;stroke-miterlimit:10;stroke-dasharray:none;stroke-opacity:1"
                   id="path216" />
              </g>
              <g
                 id="g218"
                 transform="translate(154.192,-70.608)">
                <g
                   id="g220">
                  <g
                     id="g222"
                     transform="translate(-190.455,-135.8)">
                    <text
                       xml:space="preserve"
                       transform="matrix(1,0,0,-1,194.885,135.8)"
                       style="font-variant:normal;font-size:8.96638px;font-family:'Nimbus Sans';-inkscape-font-specification:NimbusSanL-Regu;writing-mode:lr-tb;fill:#000000;fill-opacity:1;fill-rule:nonzero;stroke:none"
                       id="text226"><tspan
                         x="0 6.4737263 11.459034 15.942224 20.92753 25.912838 28.898643 33.381832 40.859795 48.328789 53.314095 58.299404 63.28471 68.27002 73.255325 80.724319 85.709625 90.694931"
                         y="0"
                         id="tspan224">ResourceManagement</tspan></text>
                    <text
                       xml:space="preserve"
                       transform="matrix(1,0,0,-1,198.243,124.841)"
                       style="font-variant:normal;font-size:8.96638px;font-family:'Nimbus Sans';-inkscape-font-specification:NimbusSanL-Regu;writing-mode:lr-tb;fill:#000000;fill-opacity:1;fill-rule:nonzero;stroke:none"
                       id="text230"><tspan
                         x="0 6.4737263 11.459034 18.928028 23.913336 28.898643 31.391296 38.860291 46.338253 53.807247 58.792553 66.261551 71.246857 74.501648 81.477493"
                         y="0"
                         id="tspan228">Compute–Memory–</tspan></text>
                    <text
                       xml:space="preserve"
                       transform="matrix(1,0,0,-1,205.829,113.882)"
                       style="font-variant:normal;font-size:8.96638px;font-family:'Nimbus Sans';-inkscape-font-specification:NimbusSanL-Regu;writing-mode:lr-tb;fill:#000000;fill-opacity:1;fill-rule:nonzero;stroke:none"
                       id="text234"><tspan
                         x="0 5.9805756 10.965882 15.95119 18.936995 23.922302 30.889179 38.367142 44.840866 49.826172 52.318829 58.711857 63.697163 66.808495"
                         y="0"
                         id="tspan232">Energy–Network</tspan></text>
                    <g
                       id="g236"
                       transform="translate(190.455,135.8)" />
                  </g>
                </g>
                <g
                   id="g238"
                   transform="translate(-154.192,70.608)" />
              </g>
            </g>
            <g
               id="g240">
              <g
                 id="g242">
                <path
                   d="m 285.33614,-97.79655 h 113.38727 v 36.85083 H 285.33614 Z"
                   style="fill:#d1f3ff;fill-opacity:1;fill-rule:nonzero;stroke:#2294bd;stroke-width:0.74721;stroke-linecap:butt;stroke-linejoin:miter;stroke-miterlimit:10;stroke-dasharray:none;stroke-opacity:1"
                   id="path244" />
              </g>
              <g
                 id="g246"
                 transform="translate(291.002,-71.617)">
                <g
                   id="g248">
                  <g
                     id="g250"
                     transform="translate(-327.265,-134.791)">
                    <text
                       xml:space="preserve"
                       transform="matrix(1,0,0,-1,338.178,134.791)"
                       style="font-variant:normal;font-size:8.96638px;font-family:'Nimbus Sans';-inkscape-font-specification:NimbusSanL-Regu;writing-mode:lr-tb;fill:#000000;fill-opacity:1;fill-rule:nonzero;stroke:none"
                       id="text254"><tspan
                         x="0 5.9805756 10.463765 14.946956 17.43961 22.424917 32.386566 38.367142 41.352943 45.836136 50.821442 52.811977 55.30463 60.28994 64.773132 67.265785 72.251091 75.236893"
                         y="0"
                         id="tspan252">SystemArchitecture</tspan></text>
                    <text
                       xml:space="preserve"
                       transform="matrix(1,0,0,-1,335.753,123.832)"
                       style="font-variant:normal;font-size:8.96638px;font-family:'Nimbus Sans';-inkscape-font-specification:NimbusSanL-Regu;writing-mode:lr-tb;fill:#000000;fill-opacity:1;fill-rule:nonzero;stroke:none"
                       id="text258"><tspan
                         x="0 7.4689946 12.454302 17.43961 22.424917 24.415453 31.38233 38.860291 45.334019 50.319324 53.30513 58.290436 64.638634 69.62394 72.609749 80.078743"
                         y="0"
                         id="tspan256">Models–Hardware–</tspan></text>
                    <text
                       xml:space="preserve"
                       transform="matrix(1,0,0,-1,360.665,112.874)"
                       style="font-variant:normal;font-size:8.96638px;font-family:'Nimbus Sans';-inkscape-font-specification:NimbusSanL-Regu;writing-mode:lr-tb;fill:#000000;fill-opacity:1;fill-rule:nonzero;stroke:none"
                       id="text262"><tspan
                         x="0 5.9805756 10.965882 13.458536 15.95119 22.290421 27.275728 30.261532"
                         y="0"
                         id="tspan260">Software</tspan></text>
                    <g
                       id="g264"
                       transform="translate(327.265,134.791)" />
                  </g>
                </g>
                <g
                   id="g266"
                   transform="translate(-291.002,71.617)" />
              </g>
            </g>
            <g
               id="g268" />
            <g
               id="g270">
              <g
                 id="g272"
                 transform="translate(349.711,-109.98)">
                <g
                   id="g274">
                  <g
                     id="g276"
                     transform="translate(-385.974,-96.428)">
                    <text
                       xml:space="preserve"
                       transform="matrix(1,0,0,-1,385.974,96.428)"
                       style="font-variant:normal;font-size:8.96638px;font-family:'Nimbus Sans';-inkscape-font-specification:NimbusSanL-Regu;writing-mode:lr-tb;fill:#000000;fill-opacity:1;fill-rule:nonzero;stroke:none"
                       id="text280"><tspan
                         x="0 6.4737263 11.459034 14.444839 21.922798 27.903374 32.386566 36.869755 39.362408 44.347717 54.300396 60.280972 63.401272 65.391808 70.377113 74.860306 76.850845 81.836151 83.826683 88.811996"
                         y="0"
                         id="tspan278">CoreSystemPrinciples</tspan></text>
                    <g
                       id="g282"
                       transform="translate(385.974,96.428)" />
                  </g>
                </g>
                <g
                   id="g284"
                   transform="translate(-349.711,109.98)" />
              </g>
            </g>
          </g>
          <g
             id="g286">
            <g
               id="g288">
              <g
                 id="g290">
                <path
                   d="m 11.71214,-188.6554 h 113.38727 v 37.14906 H 11.71214 Z"
                   style="fill:#f7b4f7;fill-opacity:1;fill-rule:nonzero;stroke:#800080;stroke-width:0.74721;stroke-linecap:butt;stroke-linejoin:miter;stroke-miterlimit:10;stroke-dasharray:none;stroke-opacity:1"
                   id="path292" />
              </g>
              <g
                 id="g294"
                 transform="translate(17.382,-161.42)">
                <g
                   id="g296">
                  <g
                     id="g298"
                     transform="translate(-53.645,-44.988)">
                    <text
                       xml:space="preserve"
                       transform="matrix(1,0,0,-1,55.089,44.988)"
                       style="font-variant:normal;font-size:8.96638px;font-family:'Nimbus Sans';-inkscape-font-specification:NimbusSanL-Regu;writing-mode:lr-tb;fill:#000000;fill-opacity:1;fill-rule:nonzero;stroke:none"
                       id="text302"><tspan
                         x="0 6.9758434 11.961151 14.453805 16.444342 23.913336 25.903872 30.387062 35.372368 37.865025 39.85556 44.840866 52.30986 60.783089 66.763664 69.256317 73.73951 78.222702 80.213234 85.19854 90.183853 94.667038"
                         y="0"
                         id="tspan300">Optimization&amp;Effciency</tspan></text>
                    <text
                       xml:space="preserve"
                       transform="matrix(1,0,0,-1,64.374,34.029)"
                       style="font-variant:normal;font-size:8.96638px;font-family:'Nimbus Sans';-inkscape-font-specification:NimbusSanL-Regu;writing-mode:lr-tb;fill:#000000;fill-opacity:1;fill-rule:nonzero;stroke:none"
                       id="text306"><tspan
                         x="0 7.4689946 12.454302 17.43961 22.424917 26.899139 34.377102 40.850826 45.836136 48.821938 53.807247 60.155445 65.140747 68.126556 75.595551"
                         y="0"
                         id="tspan304">Model–Hardware–</tspan></text>
                    <text
                       xml:space="preserve"
                       transform="matrix(1,0,0,-1,90.466,23.071)"
                       style="font-variant:normal;font-size:8.96638px;font-family:'Nimbus Sans';-inkscape-font-specification:NimbusSanL-Regu;writing-mode:lr-tb;fill:#000000;fill-opacity:1;fill-rule:nonzero;stroke:none"
                       id="text310"><tspan
                         x="0 5.9805756 10.965882 15.95119 18.936995 23.922302"
                         y="0"
                         id="tspan308">Energy</tspan></text>
                    <g
                       id="g312"
                       transform="translate(53.645,44.988)" />
                  </g>
                </g>
                <g
                   id="g314"
                   transform="translate(-17.382,161.42)" />
              </g>
            </g>
            <g
               id="g316">
              <g
                 id="g318">
                <path
                   d="m 148.52414,-188.60156 h 113.38727 v 37.04141 H 148.52414 Z"
                   style="fill:#f7b4f7;fill-opacity:1;fill-rule:nonzero;stroke:#800080;stroke-width:0.74721;stroke-linecap:butt;stroke-linejoin:miter;stroke-miterlimit:10;stroke-dasharray:none;stroke-opacity:1"
                   id="path320" />
              </g>
              <g
                 id="g322"
                 transform="translate(154.192,-161.473)">
                <g
                   id="g324">
                  <g
                     id="g326"
                     transform="translate(-190.455,-44.935)">
                    <text
                       xml:space="preserve"
                       transform="matrix(1,0,0,-1,201.157,44.935)"
                       style="font-variant:normal;font-size:8.96638px;font-family:'Nimbus Sans';-inkscape-font-specification:NimbusSanL-Regu;writing-mode:lr-tb;fill:#000000;fill-opacity:1;fill-rule:nonzero;stroke:none"
                       id="text330"><tspan
                         x="0 6.9758434 11.961151 16.946459 19.8426 24.827906 27.32056 29.311096 34.296402 39.281712 44.267017 48.741241 54.721817 59.205006 64.190315 69.175621 73.658813 76.151466"
                         y="0"
                         id="tspan328">OperationalAspects</tspan></text>
                    <text
                       xml:space="preserve"
                       transform="matrix(1,0,0,-1,191.716,33.976)"
                       style="font-variant:normal;font-size:8.96638px;font-family:'Nimbus Sans';-inkscape-font-specification:NimbusSanL-Regu;writing-mode:lr-tb;fill:#000000;fill-opacity:1;fill-rule:nonzero;stroke:none"
                       id="text334"><tspan
                         x="0 6.4737263 11.459034 16.444342 18.434877 23.151194 27.634382 35.103378 40.088684 45.073994 50.050335 57.528294 64.997292 69.982597 74.967903 76.958443 79.451096 84.436401 87.556702 89.547234 94.532547"
                         y="0"
                         id="tspan332">Deployment–Monitoring</tspan></text>
                    <text
                       xml:space="preserve"
                       transform="matrix(1,0,0,-1,221.044,23.017)"
                       style="font-variant:normal;font-size:8.96638px;font-family:'Nimbus Sans';-inkscape-font-specification:NimbusSanL-Regu;writing-mode:lr-tb;fill:#000000;fill-opacity:1;fill-rule:nonzero;stroke:none"
                       id="text338"><tspan
                         x="0 7.4779611 13.951687 18.936995 23.922302 28.90761 31.400263 36.385571"
                         y="0"
                         id="tspan336">–Updates</tspan></text>
                    <g
                       id="g340"
                       transform="translate(190.455,44.935)" />
                  </g>
                </g>
                <g
                   id="g342"
                   transform="translate(-154.192,161.473)" />
              </g>
            </g>
            <g
               id="g344">
              <g
                 id="g346">
                <path
                   d="m 285.33614,-188.50627 h 113.38727 v 36.85083 H 285.33614 Z"
                   style="fill:#f7b4f7;fill-opacity:1;fill-rule:nonzero;stroke:#800080;stroke-width:0.74721;stroke-linecap:butt;stroke-linejoin:miter;stroke-miterlimit:10;stroke-dasharray:none;stroke-opacity:1"
                   id="path348" />
              </g>
              <g
                 id="g350"
                 transform="translate(291.002,-166.953)">
                <g
                   id="g352">
                  <g
                     id="g354"
                     transform="translate(-327.265,-39.455)">
                    <text
                       xml:space="preserve"
                       transform="matrix(1,0,0,-1,328.616,39.455)"
                       style="font-variant:normal;font-size:8.96638px;font-family:'Nimbus Sans';-inkscape-font-specification:NimbusSanL-Regu;writing-mode:lr-tb;fill:#000000;fill-opacity:1;fill-rule:nonzero;stroke:none"
                       id="text358"><tspan
                         x="0 4.4024925 7.5138264 12.499134 16.982325 19.474977 25.868006 30.853313 34.188808 36.681461 41.406742 48.373619 54.354195 59.339504 65.320076 70.305382 74.788574 79.77388 82.89418 84.88472 87.377373 94.353218"
                         y="0"
                         id="tspan356">TrustworthyAISecurity–</tspan></text>
                    <text
                       xml:space="preserve"
                       transform="matrix(1,0,0,-1,339.474,28.496)"
                       style="font-variant:normal;font-size:8.96638px;font-family:'Nimbus Sans';-inkscape-font-specification:NimbusSanL-Regu;writing-mode:lr-tb;fill:#000000;fill-opacity:1;fill-rule:nonzero;stroke:none"
                       id="text362"><tspan
                         x="0 5.9805756 9.0919094 11.082446 15.350443 20.335751 24.818939 31.785816 39.263779 45.737503 50.722813 52.713348 54.703884 59.68919 64.6745 66.665039 68.655571 70.646111 73.138763"
                         y="0"
                         id="tspan360">Privacy–Reliability</tspan></text>
                    <g
                       id="g364"
                       transform="translate(327.265,39.455)" />
                  </g>
                </g>
                <g
                   id="g366"
                   transform="translate(-291.002,166.953)" />
              </g>
            </g>
            <g
               id="g368" />
            <g
               id="g370">
              <g
                 id="g372"
                 transform="translate(350.921,-200.792)">
                <g
                   id="g374">
                  <g
                     id="g376"
                     transform="translate(-387.184,-5.616)">
                    <text
                       xml:space="preserve"
                       transform="matrix(1,0,0,-1,387.184,5.616)"
                       style="font-variant:normal;font-size:8.96638px;font-family:'Nimbus Sans';-inkscape-font-specification:NimbusSanL-Regu;writing-mode:lr-tb;fill:#000000;fill-opacity:1;fill-rule:nonzero;stroke:none"
                       id="text380"><tspan
                         x="0 5.9805756 10.463765 14.946956 17.43961 22.424917 32.386566 38.860291 43.845596 48.830906 53.314095 55.30463 60.28994 65.275246 68.171387 73.156693 75.649345 77.639885 82.625191 87.610497"
                         y="0"
                         id="tspan378">SystemConsiderations</tspan></text>
                    <g
                       id="g382"
                       transform="translate(387.184,5.616)" />
                  </g>
                </g>
                <g
                   id="g384"
                   transform="translate(-350.921,200.792)" />
              </g>
            </g>
          </g>
          <g
             id="g386">
            <path
               d="M 44.88637,-18.79901 V -40.05913 H 68.40578 V -55.37152"
               style="fill:none;stroke:#808080;stroke-width:0.99628;stroke-linecap:butt;stroke-linejoin:miter;stroke-miterlimit:10;stroke-dasharray:none;stroke-opacity:1"
               id="path388" />
            <g
               id="g390"
               transform="rotate(-90,6.51713,-61.88865)">
              <g
                 id="g392">
                <path
                   d="M 5.20058,0 C 3.65962,0.28891 1.15567,1.15567 -0.57784,2.1669 V -2.1669 C 1.15567,-1.15567 3.65962,-0.28891 5.20058,0"
                   style="fill:#808080;fill-opacity:1;fill-rule:nonzero;stroke:none"
                   id="path394" />
              </g>
            </g>
          </g>
          <g
             id="g396">
            <path
               d="M 151.66737,-18.79901 V -40.05913 H 68.40578 v -15.31239"
               style="fill:none;stroke:#808080;stroke-width:0.99628;stroke-linecap:butt;stroke-linejoin:miter;stroke-miterlimit:10;stroke-dasharray:none;stroke-opacity:1"
               id="path398" />
            <g
               id="g400"
               transform="rotate(-90,6.51713,-61.88865)">
              <g
                 id="g402">
                <path
                   d="M 5.20058,0 C 3.65962,0.28891 1.15567,1.15567 -0.57784,2.1669 V -2.1669 C 1.15567,-1.15567 3.65962,-0.28891 5.20058,0"
                   style="fill:#808080;fill-opacity:1;fill-rule:nonzero;stroke:none"
                   id="path404" />
              </g>
            </g>
          </g>
          <g
             id="g406">
            <path
               d="M 258.44838,-18.79901 V -40.05913 H 68.40578 v -15.31239"
               style="fill:none;stroke:#808080;stroke-width:0.99628;stroke-linecap:butt;stroke-linejoin:miter;stroke-miterlimit:10;stroke-dasharray:none;stroke-opacity:1"
               id="path408" />
            <g
               id="g410"
               transform="rotate(-90,6.51713,-61.88865)">
              <g
                 id="g412">
                <path
                   d="M 5.20058,0 C 3.65962,0.28891 1.15567,1.15567 -0.57784,2.1669 V -2.1669 C 1.15567,-1.15567 3.65962,-0.28891 5.20058,0"
                   style="fill:#808080;fill-opacity:1;fill-rule:nonzero;stroke:none"
                   id="path414" />
              </g>
            </g>
          </g>
          <g
             id="g416">
            <path
               d="M 365.22939,-18.79901 V -40.05913 H 68.40578 v -15.31239"
               style="fill:none;stroke:#808080;stroke-width:0.99628;stroke-linecap:butt;stroke-linejoin:miter;stroke-miterlimit:10;stroke-dasharray:none;stroke-opacity:1"
               id="path418" />
            <g
               id="g420"
               transform="rotate(-90,6.51713,-61.88865)">
              <g
                 id="g422">
                <path
                   d="M 5.20058,0 C 3.65962,0.28891 1.15567,1.15567 -0.57784,2.1669 V -2.1669 C 1.15567,-1.15567 3.65962,-0.28891 5.20058,0"
                   style="fill:#808080;fill-opacity:1;fill-rule:nonzero;stroke:none"
                   id="path424" />
              </g>
            </g>
          </g>
          <g
             id="g426">
            <path
               d="m 151.66737,-18.79901 v -21.26012 h 53.5504 v -15.26642"
               style="fill:none;stroke:#808080;stroke-width:0.99628;stroke-linecap:butt;stroke-linejoin:miter;stroke-miterlimit:10;stroke-dasharray:none;stroke-opacity:1"
               id="path428" />
            <g
               id="g430"
               transform="rotate(-90,74.94611,-130.27166)">
              <g
                 id="g432">
                <path
                   d="M 5.20058,0 C 3.65962,0.28891 1.15567,1.15567 -0.57784,2.1669 V -2.1669 C 1.15567,-1.15567 3.65962,-0.28891 5.20058,0"
                   style="fill:#808080;fill-opacity:1;fill-rule:nonzero;stroke:none"
                   id="path434" />
              </g>
            </g>
          </g>
          <g
             id="g436">
            <path
               d="m 258.44838,-18.79901 v -21.26012 h 83.58139 v -15.31239"
               style="fill:none;stroke:#808080;stroke-width:0.99628;stroke-linecap:butt;stroke-linejoin:miter;stroke-miterlimit:10;stroke-dasharray:none;stroke-opacity:1"
               id="path438" />
            <g
               id="g440"
               transform="rotate(-90,143.32912,-198.70064)">
              <g
                 id="g442">
                <path
                   d="M 5.20058,0 C 3.65962,0.28891 1.15567,1.15567 -0.57784,2.1669 V -2.1669 C 1.15567,-1.15567 3.65962,-0.28891 5.20058,0"
                   style="fill:#808080;fill-opacity:1;fill-rule:nonzero;stroke:none"
                   id="path444" />
              </g>
            </g>
          </g>
          <g
             id="g446">
            <path
               d="m 68.40578,-98.17015 v -26.92938 0 -20.8326"
               style="fill:none;stroke:#808080;stroke-width:0.99628;stroke-linecap:butt;stroke-linejoin:miter;stroke-miterlimit:10;stroke-dasharray:none;stroke-opacity:1"
               id="path448" />
            <g
               id="g450"
               transform="rotate(-90,-38.763175,-107.16896)">
              <g
                 id="g452">
                <path
                   d="M 5.20058,0 C 3.65962,0.28891 1.15567,1.15567 -0.57784,2.1669 V -2.1669 C 1.15567,-1.15567 3.65962,-0.28891 5.20058,0"
                   style="fill:#808080;fill-opacity:1;fill-rule:nonzero;stroke:none"
                   id="path454" />
              </g>
            </g>
          </g>
          <g
             id="g456">
            <path
               d="m 205.21777,-98.21614 v -26.92938 H 68.40578 v -20.78661"
               style="fill:none;stroke:#808080;stroke-width:0.99628;stroke-linecap:butt;stroke-linejoin:miter;stroke-miterlimit:10;stroke-dasharray:none;stroke-opacity:1"
               id="path458" />
            <g
               id="g460"
               transform="rotate(-90,-38.763175,-107.16896)">
              <g
                 id="g462">
                <path
                   d="M 5.20058,0 C 3.65962,0.28891 1.15567,1.15567 -0.57784,2.1669 V -2.1669 C 1.15567,-1.15567 3.65962,-0.28891 5.20058,0"
                   style="fill:#808080;fill-opacity:1;fill-rule:nonzero;stroke:none"
                   id="path464" />
              </g>
            </g>
          </g>
          <g
             id="g466">
            <path
               d="m 342.02977,-98.17015 v -26.92938 H 68.40578 v -20.8326"
               style="fill:none;stroke:#808080;stroke-width:0.99628;stroke-linecap:butt;stroke-linejoin:miter;stroke-miterlimit:10;stroke-dasharray:none;stroke-opacity:1"
               id="path468" />
            <g
               id="g470"
               transform="rotate(-90,-38.763175,-107.16896)">
              <g
                 id="g472">
                <path
                   d="M 5.20058,0 C 3.65962,0.28891 1.15567,1.15567 -0.57784,2.1669 V -2.1669 C 1.15567,-1.15567 3.65962,-0.28891 5.20058,0"
                   style="fill:#808080;fill-opacity:1;fill-rule:nonzero;stroke:none"
                   id="path474" />
              </g>
            </g>
          </g>
          <g
             id="g476">
            <path
               d="m 205.21777,-98.21614 v -26.92938 0 -20.84044"
               style="fill:none;stroke:#808080;stroke-width:0.99628;stroke-linecap:butt;stroke-linejoin:miter;stroke-miterlimit:10;stroke-dasharray:none;stroke-opacity:1"
               id="path478" />
            <g
               id="g480"
               transform="rotate(-90,29.615905,-175.60186)">
              <g
                 id="g482">
                <path
                   d="M 5.20058,0 C 3.65962,0.28891 1.15567,1.15567 -0.57784,2.1669 V -2.1669 C 1.15567,-1.15567 3.65962,-0.28891 5.20058,0"
                   style="fill:#808080;fill-opacity:1;fill-rule:nonzero;stroke:none"
                   id="path484" />
              </g>
            </g>
          </g>
          <g
             id="g486">
            <path
               d="m 342.02977,-98.17015 v -26.92938 0 -20.98171"
               style="fill:none;stroke:#808080;stroke-width:0.99628;stroke-linecap:butt;stroke-linejoin:miter;stroke-miterlimit:10;stroke-dasharray:none;stroke-opacity:1"
               id="path488" />
            <g
               id="g490"
               transform="rotate(-90,97.974265,-244.0555)">
              <g
                 id="g492">
                <path
                   d="M 5.20058,0 C 3.65962,0.28891 1.15567,1.15567 -0.57784,2.1669 V -2.1669 C 1.15567,-1.15567 3.65962,-0.28891 5.20058,0"
                   style="fill:#808080;fill-opacity:1;fill-rule:nonzero;stroke:none"
                   id="path494" />
              </g>
            </g>
          </g>
        </g>
      </g>
    </g>
  </g>
</svg>
