<?xml version="1.0" encoding="UTF-8" standalone="no"?>
<!-- Created with Inkscape (http://www.inkscape.org/) -->

<svg
   version="1.1"
   id="svg1"
   width="491.70132"
   height="179.132"
   viewBox="0 0 491.70132 179.132"
   xmlns="http://www.w3.org/2000/svg"
   xmlns:svg="http://www.w3.org/2000/svg">
  <defs
     id="defs1" />
  <g
     id="g1">
    <path
       id="path1"
       d="M 96.75278,11.33871 H 4.3587 c -2.20094,0 -3.9851,-1.78418 -3.9851,-3.98511 V -7.3536 c 0,-2.20093 1.78416,-3.98511 3.9851,-3.98511 h 92.39408 c 2.20094,0 3.9851,1.78418 3.9851,3.98511 V 7.3536 c 0,2.20093 -1.78416,3.98511 -3.9851,3.98511 z"
       style="fill:#dbfda6;fill-opacity:1;fill-rule:nonzero;stroke:#495938;stroke-width:0.74721;stroke-linecap:butt;stroke-linejoin:miter;stroke-miterlimit:10;stroke-dasharray:none;stroke-opacity:1"
       transform="matrix(1.3333333,0,0,-1.3333333,0,15.616)" />
    <text
       id="text1"
       xml:space="preserve"
       transform="matrix(1.3333333,0,0,1.3333333,28.068,18.533333)"><tspan
         id="tspan1"
         style="font-variant:normal;font-weight:normal;font-size:8.96638px;font-family:'Latin Modern Sans';writing-mode:lr-tb;fill:#000000;fill-opacity:1;fill-rule:nonzero;stroke:none"
         x="0"
         dx="0 0 0 0 3.0754683"
         y="0">HighResources</tspan></text>
    <path
       id="path2"
       d="m 223.37639,11.33871 h -92.39407 c -2.20095,0 -3.98511,-1.78418 -3.98511,-3.98511 V -7.3536 c 0,-2.20093 1.78416,-3.98511 3.98511,-3.98511 h 92.39407 c 2.20094,0 3.98511,1.78418 3.98511,3.98511 V 7.3536 c 0,2.20093 -1.78417,3.98511 -3.98511,3.98511 z"
       style="fill:#dbfda6;fill-opacity:1;fill-rule:nonzero;stroke:#495938;stroke-width:0.74721;stroke-linecap:butt;stroke-linejoin:miter;stroke-miterlimit:10;stroke-dasharray:none;stroke-opacity:1"
       transform="matrix(1.3333333,0,0,-1.3333333,0,15.616)" />
    <text
       id="text2"
       xml:space="preserve"
       transform="matrix(1.3333333,0,0,1.3333333,188.164,19.698667)"><tspan
         id="tspan2"
         style="font-variant:normal;font-weight:normal;font-size:8.96638px;font-family:'Latin Modern Sans';writing-mode:lr-tb;fill:#000000;fill-opacity:1;fill-rule:nonzero;stroke:none"
         x="0"
         dx="0 0 0 0 0 0 3.0754683"
         y="0">MediumResources</tspan></text>
    <path
       id="path3"
       d="m 350,11.33871 h -92.39406 c -2.20094,0 -3.98511,-1.78418 -3.98511,-3.98511 V -7.3536 c 0,-2.20093 1.78417,-3.98511 3.98511,-3.98511 H 350 c 2.20094,0 3.9851,1.78418 3.9851,3.98511 V 7.3536 c 0,2.20093 -1.78416,3.98511 -3.9851,3.98511 z"
       style="fill:#dbfda6;fill-opacity:1;fill-rule:nonzero;stroke:#495938;stroke-width:0.74721;stroke-linecap:butt;stroke-linejoin:miter;stroke-miterlimit:10;stroke-dasharray:none;stroke-opacity:1"
       transform="matrix(1.3333333,0,0,-1.3333333,0,15.616)" />
    <text
       id="text3"
       xml:space="preserve"
       transform="matrix(1.3333333,0,0,1.3333333,367.34133,19.698667)"><tspan
         id="tspan3"
         style="font-variant:normal;font-weight:normal;font-size:8.96638px;font-family:'Latin Modern Sans';writing-mode:lr-tb;fill:#000000;fill-opacity:1;fill-rule:nonzero;stroke:none"
         x="0"
         dx="0 0 -0.26002502 3.0754683"
         y="0">LowResources</tspan></text>
    <path
       id="path4"
       d="M 96.75278,-45.3549 H 4.3587 c -2.20094,0 -3.9851,-1.78417 -3.9851,-3.98511 v -14.70722 c 0,-2.20094 1.78416,-3.9851 3.9851,-3.9851 h 92.39408 c 2.20094,0 3.9851,1.78416 3.9851,3.9851 v 14.70722 c 0,2.20094 -1.78416,3.98511 -3.9851,3.98511 z"
       style="fill:#dbfda6;fill-opacity:1;fill-rule:nonzero;stroke:#495938;stroke-width:0.74721;stroke-linecap:butt;stroke-linejoin:miter;stroke-miterlimit:10;stroke-dasharray:none;stroke-opacity:1"
       transform="matrix(1.3333333,0,0,-1.3333333,0,15.616)" />
    <text
       id="text4"
       xml:space="preserve"
       transform="matrix(1.3333333,0,0,1.3333333,26.561333,94.261333)"><tspan
         id="tspan4"
         style="font-variant:normal;font-weight:normal;font-size:8.96638px;font-family:'Latin Modern Sans';writing-mode:lr-tb;fill:#000000;fill-opacity:1;fill-rule:nonzero;stroke:none"
         x="0"
         dx="0 -0.26002502 0 0 3.0754683"
         y="0">FullCapabilities</tspan></text>
    <path
       id="path5"
       d="m 223.37639,-45.3549 h -92.39407 c -2.20095,0 -3.98511,-1.78417 -3.98511,-3.98511 v -14.70722 c 0,-2.20094 1.78416,-3.9851 3.98511,-3.9851 h 92.39407 c 2.20094,0 3.98511,1.78416 3.98511,3.9851 v 14.70722 c 0,2.20094 -1.78417,3.98511 -3.98511,3.98511 z"
       style="fill:#dbfda6;fill-opacity:1;fill-rule:nonzero;stroke:#495938;stroke-width:0.74721;stroke-linecap:butt;stroke-linejoin:miter;stroke-miterlimit:10;stroke-dasharray:none;stroke-opacity:1"
       transform="matrix(1.3333333,0,0,-1.3333333,0,15.616)" />
    <text
       id="text5"
       xml:space="preserve"
       transform="matrix(1.3333333,0,0,1.3333333,174.756,94.261333)"><tspan
         id="tspan5"
         style="font-variant:normal;font-weight:normal;font-size:8.96638px;font-family:'Latin Modern Sans';writing-mode:lr-tb;fill:#000000;fill-opacity:1;fill-rule:nonzero;stroke:none"
         x="0"
         dx="0 0 0 0 0 0 0 0 0 3.0754683 -0.26002502 0 0 0 0 0 0 0 0 0 0 -0.25105864"
         y="0">OptimizedFunctionality</tspan></text>
    <path
       id="path6"
       d="m 350,-45.3549 h -92.39406 c -2.20094,0 -3.98511,-1.78417 -3.98511,-3.98511 v -14.70722 c 0,-2.20094 1.78417,-3.9851 3.98511,-3.9851 H 350 c 2.20094,0 3.9851,1.78416 3.9851,3.9851 v 14.70722 c 0,2.20094 -1.78416,3.98511 -3.9851,3.98511 z"
       style="fill:#dbfda6;fill-opacity:1;fill-rule:nonzero;stroke:#495938;stroke-width:0.74721;stroke-linecap:butt;stroke-linejoin:miter;stroke-miterlimit:10;stroke-dasharray:none;stroke-opacity:1"
       transform="matrix(1.3333333,0,0,-1.3333333,0,15.616)" />
    <text
       id="text6"
       xml:space="preserve"
       transform="matrix(1.3333333,0,0,1.3333333,356.29467,94.129333)"><tspan
         id="tspan6"
         style="font-variant:normal;font-weight:normal;font-size:8.96638px;font-family:'Latin Modern Sans';writing-mode:lr-tb;fill:#000000;fill-opacity:1;fill-rule:nonzero;stroke:none"
         x="0"
         dx="0 0 0 0 0 3.0754683 -0.26002502 0 0 0 0 0 0 0 0 0 0 -0.26002502"
         y="0">BasicFunctionality</tspan></text>
    <path
       id="path7"
       d="m 286.68819,-99.58742 h -92.39406 c -2.20094,0 -3.98511,-1.78416 -3.98511,-3.98511 v -14.70721 c 0,-2.20094 1.78417,-3.98511 3.98511,-3.98511 h 92.39406 c 2.20094,0 3.98511,1.78417 3.98511,3.98511 v 14.70721 c 0,2.20095 -1.78417,3.98511 -3.98511,3.98511 z"
       style="fill:#dbfda6;fill-opacity:1;fill-rule:nonzero;stroke:#495938;stroke-width:0.74721;stroke-linecap:butt;stroke-linejoin:miter;stroke-miterlimit:10;stroke-dasharray:none;stroke-opacity:1"
       transform="matrix(1.3333333,0,0,-1.3333333,0,15.616)" />
    <text
       id="text7"
       xml:space="preserve"
       transform="matrix(1.3333333,0,0,1.3333333,266.42267,166.504)"><tspan
         id="tspan7"
         style="font-variant:normal;font-weight:normal;font-size:8.96638px;font-family:'Latin Modern Sans';writing-mode:lr-tb;fill:#000000;fill-opacity:1;fill-rule:nonzero;stroke:none"
         x="0"
         dx="0 -0.26002502 0 0 0 0 0 0 0 0 3.0754683 -0.26002502"
         y="0">AdaptationFeedback</tspan></text>
    <path
       id="path8"
       d="m 253.24722,0 h -21.6566"
       style="fill:none;stroke:#000000;stroke-width:0.49814;stroke-linecap:butt;stroke-linejoin:miter;stroke-miterlimit:10;stroke-dasharray:none;stroke-opacity:1"
       transform="matrix(1.3333333,0,0,-1.3333333,0,15.616)" />
    <path
       id="path9"
       d="M 3.85551,0 C 2.71312,0.21419 0.85678,0.85678 -0.42839,1.60646 V -1.60646 C 0.85678,-0.85678 2.71312,-0.21419 3.85551,0"
       style="fill:#000000;fill-opacity:1;fill-rule:nonzero;stroke:none"
       transform="matrix(-1.3333333,0,0,1.3333333,308.78749,15.616)" />
    <path
       id="path10"
       d="m 126.62361,0 h -21.6566"
       style="fill:none;stroke:#000000;stroke-width:0.49814;stroke-linecap:butt;stroke-linejoin:miter;stroke-miterlimit:10;stroke-dasharray:none;stroke-opacity:1"
       transform="matrix(1.3333333,0,0,-1.3333333,0,15.616)" />
    <path
       id="path11"
       d="M 3.85551,0 C 2.71312,0.21419 0.85678,0.85678 -0.42839,1.60646 V -1.60646 C 0.85678,-0.85678 2.71312,-0.21419 3.85551,0"
       style="fill:#000000;fill-opacity:1;fill-rule:nonzero;stroke:none"
       transform="matrix(-1.3333333,0,0,1.3333333,139.95601,15.616)" />
    <path
       id="path12"
       d="M 50.55574,-11.71231 V -41.12576"
       style="fill:none;stroke:#000000;stroke-width:0.49814;stroke-linecap:butt;stroke-linejoin:miter;stroke-miterlimit:10;stroke-dasharray:none;stroke-opacity:1"
       transform="matrix(1.3333333,0,0,-1.3333333,0,15.616)" />
    <path
       id="path13"
       d="M 3.85551,0 C 2.71312,0.21419 0.85678,0.85678 -0.42839,1.60646 V -1.60646 C 0.85678,-0.85678 2.71312,-0.21419 3.85551,0"
       style="fill:#000000;fill-opacity:1;fill-rule:nonzero;stroke:none"
       transform="matrix(0,1.3333333,1.3333333,0,67.407653,70.450347)" />
    <path
       id="path14"
       d="m 9.22221,-35.87068 h 82.66704 v 15.04776 H 9.22221 Z"
       style="fill:#e0e0e0;fill-opacity:1;fill-rule:nonzero;stroke:none"
       transform="matrix(1.3333333,0,0,-1.3333333,0,15.616)" />
    <text
       id="text14"
       xml:space="preserve"
       transform="matrix(1.3333333,0,0,1.3333333,17.609333,56.068)"><tspan
         id="tspan14"
         style="font-variant:normal;font-weight:normal;font-size:7.97011px;font-family:'Latin Modern Sans';writing-mode:lr-tb;fill:#000000;fill-opacity:1;fill-rule:nonzero;stroke:none"
         x="0"
         dx="0 -0.2391033 0 0 0 0 0 0 0 0 2.821419 -0.2391033"
         y="0">AdaptationFeedback</tspan></text>
    <path
       id="path15"
       d="M 177.17935,-11.71231 V -41.12576"
       style="fill:none;stroke:#000000;stroke-width:0.49814;stroke-linecap:butt;stroke-linejoin:miter;stroke-miterlimit:10;stroke-dasharray:none;stroke-opacity:1"
       transform="matrix(1.3333333,0,0,-1.3333333,0,15.616)" />
    <path
       id="path16"
       d="M 3.85551,0 C 2.71312,0.21419 0.85678,0.85678 -0.42839,1.60646 V -1.60646 C 0.85678,-0.85678 2.71312,-0.21419 3.85551,0"
       style="fill:#000000;fill-opacity:1;fill-rule:nonzero;stroke:none"
       transform="matrix(0,1.3333333,1.3333333,0,236.23913,70.450347)" />
    <path
       id="path17"
       d="m 135.6346,-35.95438 h 83.08951 v 15.21513 H 135.6346 Z"
       style="fill:#e0e0e0;fill-opacity:1;fill-rule:nonzero;stroke:none"
       transform="matrix(1.3333333,0,0,-1.3333333,0,15.616)" />
    <text
       id="text17"
       xml:space="preserve"
       transform="matrix(1.3333333,0,0,1.3333333,186.15733,56.18)"><tspan
         id="tspan17"
         style="font-variant:normal;font-weight:normal;font-size:7.97011px;font-family:'Latin Modern Sans';writing-mode:lr-tb;fill:#000000;fill-opacity:1;fill-rule:nonzero;stroke:none"
         x="0"
         dx="0 0 0.2391033 0 0 0 0 0 2.821419 0 0.2391033"
         y="0">ModerateOperations</tspan></text>
    <path
       id="path18"
       d="M 303.80298,-11.71231 V -41.12576"
       style="fill:none;stroke:#000000;stroke-width:0.49814;stroke-linecap:butt;stroke-linejoin:miter;stroke-miterlimit:10;stroke-dasharray:none;stroke-opacity:1"
       transform="matrix(1.3333333,0,0,-1.3333333,0,15.616)" />
    <path
       id="path19"
       d="M 3.85551,0 C 2.71312,0.21419 0.85678,0.85678 -0.42839,1.60646 V -1.60646 C 0.85678,-0.85678 2.71312,-0.21419 3.85551,0"
       style="fill:#000000;fill-opacity:1;fill-rule:nonzero;stroke:none"
       transform="matrix(0,1.3333333,1.3333333,0,405.07064,70.450347)" />
    <path
       id="path20"
       d="m 261.88362,-35.95438 h 83.83868 v 15.21513 h -83.83868 z"
       style="fill:#e0e0e0;fill-opacity:1;fill-rule:nonzero;stroke:none"
       transform="matrix(1.3333333,0,0,-1.3333333,0,15.616)" />
    <text
       id="text20"
       xml:space="preserve"
       transform="matrix(1.3333333,0,0,1.3333333,354.48667,56.18)"><tspan
         id="tspan20"
         style="font-variant:normal;font-weight:normal;font-size:7.97011px;font-family:'Latin Modern Sans';writing-mode:lr-tb;fill:#000000;fill-opacity:1;fill-rule:nonzero;stroke:none"
         x="0"
         dx="0 0 0 0 0 0 0 0 0 2.821419 0 0.2391033"
         y="0">SimplifedOperations</tspan></text>
    <path
       id="path21"
       d="M 240.49115,-99.21382 V -4.4233 h -8.90053"
       style="fill:none;stroke:#000000;stroke-width:0.49814;stroke-linecap:butt;stroke-linejoin:miter;stroke-miterlimit:10;stroke-dasharray:none;stroke-opacity:1"
       transform="matrix(1.3333333,0,0,-1.3333333,0,15.616)" />
    <path
       id="path22"
       d="M 3.85551,0 C 2.71312,0.21419 0.85678,0.85678 -0.42839,1.60646 V -1.60646 C 0.85678,-0.85678 2.71312,-0.21419 3.85551,0"
       style="fill:#000000;fill-opacity:1;fill-rule:nonzero;stroke:none"
       transform="matrix(-1.3333333,0,0,1.3333333,308.78749,21.513733)" />
    <path
       id="path23"
       d="m 213.56378,-91.1337 h 53.85474 v 14.17337 h -53.85474 z"
       style="fill:#e0e0e0;fill-opacity:1;fill-rule:nonzero;stroke:none"
       transform="matrix(1.3333333,0,0,-1.3333333,0,15.616)" />
    <text
       id="text23"
       xml:space="preserve"
       transform="matrix(1.3333333,0,0,1.3333333,290.06133,131.312)"><tspan
         id="tspan23"
         style="font-variant:normal;font-weight:normal;font-size:7.97011px;font-family:'Latin Modern Sans';writing-mode:lr-tb;fill:#000000;fill-opacity:1;fill-rule:nonzero;stroke:none"
         x="0"
         dx="0 0 0 0 0 0 0 -0.2391033"
         y="0">Recalibration</tspan></text>
    <path
       id="path24"
       d="m 354.35872,0 h 14.1734 v -110.92613 h -73.6297"
       style="fill:none;stroke:#000000;stroke-width:0.49814;stroke-linecap:butt;stroke-linejoin:miter;stroke-miterlimit:10;stroke-dasharray:none;stroke-opacity:1"
       transform="matrix(1.3333333,0,0,-1.3333333,0,15.616)" />
    <path
       id="path25"
       d="M 3.85551,0 C 2.71312,0.21419 0.85678,0.85678 -0.42839,1.60646 V -1.60646 C 0.85678,-0.85678 2.71312,-0.21419 3.85551,0"
       style="fill:#000000;fill-opacity:1;fill-rule:nonzero;stroke:none"
       transform="matrix(-1.3333333,0,0,1.3333333,393.20323,163.51751)" />
    <path
       id="path26"
       d="m 310.61113,-118.01283 h 53.85474 v 14.17337 h -53.85474 z"
       style="fill:#e0e0e0;fill-opacity:1;fill-rule:nonzero;stroke:none"
       transform="matrix(1.3333333,0,0,-1.3333333,0,15.616)" />
    <text
       id="text26"
       xml:space="preserve"
       transform="matrix(1.3333333,0,0,1.3333333,419.456,167.15067)"><tspan
         id="tspan26"
         style="font-variant:normal;font-weight:normal;font-size:7.97011px;font-family:'Latin Modern Sans';writing-mode:lr-tb;fill:#000000;fill-opacity:1;fill-rule:nonzero;stroke:none"
         x="0"
         dx="0 0 0 0 0 0 0 -0.2391033"
         y="0">Recalibration</tspan></text>
    <path
       id="path27"
       d="m 50.55574,-68.40593 v -42.5202 h 135.52414"
       style="fill:none;stroke:#000000;stroke-width:0.49814;stroke-linecap:butt;stroke-linejoin:miter;stroke-miterlimit:10;stroke-dasharray:none;stroke-opacity:1"
       transform="matrix(1.3333333,0,0,-1.3333333,0,15.616)" />
    <path
       id="path28"
       d="M 3.85551,0 C 2.71312,0.21419 0.85678,0.85678 -0.42839,1.60646 V -1.60646 C 0.85678,-0.85678 2.71312,-0.21419 3.85551,0"
       style="fill:#000000;fill-opacity:1;fill-rule:nonzero;stroke:none"
       transform="matrix(1.3333333,0,0,-1.3333333,248.10651,163.51751)" />
    <path
       id="path29"
       d="m 177.17935,-68.40593 v -42.5202 h 8.90053"
       style="fill:none;stroke:#000000;stroke-width:0.49814;stroke-linecap:butt;stroke-linejoin:miter;stroke-miterlimit:10;stroke-dasharray:none;stroke-opacity:1"
       transform="matrix(1.3333333,0,0,-1.3333333,0,15.616)" />
    <path
       id="path30"
       d="M 3.85551,0 C 2.71312,0.21419 0.85678,0.85678 -0.42839,1.60646 V -1.60646 C 0.85678,-0.85678 2.71312,-0.21419 3.85551,0"
       style="fill:#000000;fill-opacity:1;fill-rule:nonzero;stroke:none"
       transform="matrix(1.3333333,0,0,-1.3333333,248.10651,163.51751)" />
    <path
       id="path31"
       d="m 303.80298,-68.40593 v -42.5202 h -8.90056"
       style="fill:none;stroke:#000000;stroke-width:0.49814;stroke-linecap:butt;stroke-linejoin:miter;stroke-miterlimit:10;stroke-dasharray:none;stroke-opacity:1"
       transform="matrix(1.3333333,0,0,-1.3333333,0,15.616)" />
    <path
       id="path32"
       d="M 3.85551,0 C 2.71312,0.21419 0.85678,0.85678 -0.42839,1.60646 V -1.60646 C 0.85678,-0.85678 2.71312,-0.21419 3.85551,0"
       style="fill:#000000;fill-opacity:1;fill-rule:nonzero;stroke:none"
       transform="matrix(-1.3333333,0,0,1.3333333,393.20323,163.51751)" />
  </g>
</svg>
