<?xml version="1.0" encoding="UTF-8" standalone="no"?>
<!-- Created with Inkscape (http://www.inkscape.org/) -->

<svg
   version="1.1"
   id="svg1"
   width="540.33466"
   height="274.09866"
   viewBox="0 0 540.33466 274.09866"
   xmlns="http://www.w3.org/2000/svg"
   xmlns:svg="http://www.w3.org/2000/svg">
  <defs
     id="defs1" />
  <g
     id="g1">
    <path
       id="path1"
       d="M 45.72849,14.17339 H 4.3587 c -2.20094,0 -3.9851,-1.78417 -3.9851,-3.98511 v -20.37656 c 0,-2.20094 1.78416,-3.98511 3.9851,-3.98511 h 41.36979 c 2.20094,0 3.98511,1.78417 3.98511,3.98511 v 20.37656 c 0,2.20094 -1.78417,3.98511 -3.98511,3.98511 z"
       style="fill:#dbfda6;fill-opacity:1;fill-rule:nonzero;stroke:#495938;stroke-width:0.74721;stroke-linecap:butt;stroke-linejoin:miter;stroke-miterlimit:10;stroke-dasharray:none;stroke-opacity:1"
       transform="matrix(1.3333333,0,0,-1.3333333,0.54,19.396)" />
    <text
       id="text1"
       xml:space="preserve"
       transform="matrix(1.3333333,0,0,1.3333333,15.310667,23.478667)"><tspan
         id="tspan1"
         style="font-variant:normal;font-weight:normal;font-size:8.96638px;font-family:'Latin Modern Sans';writing-mode:lr-tb;fill:#000000;fill-opacity:1;fill-rule:nonzero;stroke:none"
         x="0"
         dx="0 0 0.26002502 0 3.0754683"
         y="0">Node1</tspan></text>
    <path
       id="path2"
       d="m 163.84805,14.17339 h -41.36978 c -2.20094,0 -3.98511,-1.78417 -3.98511,-3.98511 v -20.37656 c 0,-2.20094 1.78417,-3.98511 3.98511,-3.98511 h 41.36978 c 2.20095,0 3.98511,1.78417 3.98511,3.98511 v 20.37656 c 0,2.20094 -1.78416,3.98511 -3.98511,3.98511 z"
       style="fill:#dbfda6;fill-opacity:1;fill-rule:nonzero;stroke:#495938;stroke-width:0.74721;stroke-linecap:butt;stroke-linejoin:miter;stroke-miterlimit:10;stroke-dasharray:none;stroke-opacity:1"
       transform="matrix(1.3333333,0,0,-1.3333333,0.54,19.396)" />
    <text
       id="text2"
       xml:space="preserve"
       transform="matrix(1.3333333,0,0,1.3333333,172.80133,23.478667)"><tspan
         id="tspan2"
         style="font-variant:normal;font-weight:normal;font-size:8.96638px;font-family:'Latin Modern Sans';writing-mode:lr-tb;fill:#000000;fill-opacity:1;fill-rule:nonzero;stroke:none"
         x="0"
         dx="0 0 0.26002502 0 3.0754683"
         y="0">Node2</tspan></text>
    <path
       id="path3"
       d="m 281.96762,14.17339 h -41.36978 c -2.20094,0 -3.98511,-1.78417 -3.98511,-3.98511 v -20.37656 c 0,-2.20094 1.78417,-3.98511 3.98511,-3.98511 h 41.36978 c 2.20094,0 3.98511,1.78417 3.98511,3.98511 v 20.37656 c 0,2.20094 -1.78417,3.98511 -3.98511,3.98511 z"
       style="fill:#dbfda6;fill-opacity:1;fill-rule:nonzero;stroke:#495938;stroke-width:0.74721;stroke-linecap:butt;stroke-linejoin:miter;stroke-miterlimit:10;stroke-dasharray:none;stroke-opacity:1"
       transform="matrix(1.3333333,0,0,-1.3333333,0.54,19.396)" />
    <text
       id="text3"
       xml:space="preserve"
       transform="matrix(1.3333333,0,0,1.3333333,329.528,23.478667)"><tspan
         id="tspan3"
         style="font-variant:normal;font-weight:normal;font-size:8.96638px;font-family:'Latin Modern Sans';writing-mode:lr-tb;fill:#000000;fill-opacity:1;fill-rule:nonzero;stroke:none"
         x="0"
         dx="0 0 0.26002502 0 3.0754683"
         y="0">Node…</tspan></text>
    <path
       id="path4"
       d="M 400.08719,14.17339 H 358.7174 c -2.20094,0 -3.9851,-1.78417 -3.9851,-3.98511 v -20.37656 c 0,-2.20094 1.78416,-3.98511 3.9851,-3.98511 h 41.36979 c 2.20094,0 3.98511,1.78417 3.98511,3.98511 v 20.37656 c 0,2.20094 -1.78417,3.98511 -3.98511,3.98511 z"
       style="fill:#dbfda6;fill-opacity:1;fill-rule:nonzero;stroke:#495938;stroke-width:0.74721;stroke-linecap:butt;stroke-linejoin:miter;stroke-miterlimit:10;stroke-dasharray:none;stroke-opacity:1"
       transform="matrix(1.3333333,0,0,-1.3333333,0.54,19.396)" />
    <text
       id="text4"
       xml:space="preserve"
       transform="matrix(1.3333333,0,0,1.3333333,486.51067,23.478667)"><tspan
         id="tspan4"
         style="font-variant:normal;font-weight:normal;font-size:8.96638px;font-family:'Latin Modern Sans';writing-mode:lr-tb;fill:#000000;fill-opacity:1;fill-rule:nonzero;stroke:none"
         x="0"
         dx="0 0 0.26002502 0 3.0754683"
         y="0">NodeN</tspan></text>
    <path
       id="path5"
       d="m 50.0872,0 h 64.17684"
       style="fill:none;stroke:#000000;stroke-width:0.49814;stroke-linecap:butt;stroke-linejoin:miter;stroke-miterlimit:10;stroke-dasharray:none;stroke-opacity:1"
       transform="matrix(1.3333333,0,0,-1.3333333,0.54,19.396)" />
    <path
       id="path6"
       d="M 3.85551,0 C 2.71312,0.21419 0.85678,0.85678 -0.42839,1.60646 V -1.60646 C 0.85678,-0.85678 2.71312,-0.21419 3.85551,0"
       style="fill:#000000;fill-opacity:1;fill-rule:nonzero;stroke:none"
       transform="matrix(1.3333333,0,0,-1.3333333,152.89205,19.396)" />
    <path
       id="path7"
       d="M 168.20677,0 H 232.3836"
       style="fill:none;stroke:#000000;stroke-width:0.49814;stroke-linecap:butt;stroke-linejoin:miter;stroke-miterlimit:10;stroke-dasharray:none;stroke-opacity:1"
       transform="matrix(1.3333333,0,0,-1.3333333,0.54,19.396)" />
    <path
       id="path8"
       d="M 3.85551,0 C 2.71312,0.21419 0.85678,0.85678 -0.42839,1.60646 V -1.60646 C 0.85678,-0.85678 2.71312,-0.21419 3.85551,0"
       style="fill:#000000;fill-opacity:1;fill-rule:nonzero;stroke:none"
       transform="matrix(1.3333333,0,0,-1.3333333,310.3848,19.396)" />
    <path
       id="path9"
       d="m 286.32634,0 h 64.17683"
       style="fill:none;stroke:#000000;stroke-width:0.49814;stroke-linecap:butt;stroke-linejoin:miter;stroke-miterlimit:10;stroke-dasharray:none;stroke-opacity:1"
       transform="matrix(1.3333333,0,0,-1.3333333,0.54,19.396)" />
    <path
       id="path10"
       d="M 3.85551,0 C 2.71312,0.21419 0.85678,0.85678 -0.42839,1.60646 V -1.60646 C 0.85678,-0.85678 2.71312,-0.21419 3.85551,0"
       style="fill:#000000;fill-opacity:1;fill-rule:nonzero;stroke:none"
       transform="matrix(1.3333333,0,0,-1.3333333,467.87756,19.396)" />
    <path
       id="path11"
       d="m 66.66853,-12.38371 h 34.86969 V 12.38372 H 66.66853 Z"
       style="fill:#e0e0e0;fill-opacity:1;fill-rule:nonzero;stroke:none"
       transform="matrix(1.3333333,0,0,-1.3333333,0.54,19.396)" />
    <text
       id="text11"
       xml:space="preserve"
       transform="matrix(1.3333333,0,0,1.3333333,97.474667,15.796)"><tspan
         id="tspan11"
         style="font-variant:normal;font-weight:normal;font-size:7.97011px;font-family:'Latin Modern Sans';writing-mode:lr-tb;fill:#000000;fill-opacity:1;fill-rule:nonzero;stroke:none"
         x="0"
         dx="0 0 0 -0.2391033"
         y="0">Shares</tspan></text>
    <text
       id="text12"
       xml:space="preserve"
       transform="matrix(1.3333333,0,0,1.3333333,94.744,28.416)"><tspan
         id="tspan12"
         style="font-variant:normal;font-weight:normal;font-size:7.97011px;font-family:'Latin Modern Sans';writing-mode:lr-tb;fill:#000000;fill-opacity:1;fill-rule:nonzero;stroke:none"
         x="0"
         y="0">Insights</tspan></text>
    <path
       id="path12"
       d="m 184.7881,-12.38371 h 34.86969 V 12.38372 H 184.7881 Z"
       style="fill:#e0e0e0;fill-opacity:1;fill-rule:nonzero;stroke:none"
       transform="matrix(1.3333333,0,0,-1.3333333,0.54,19.396)" />
    <text
       id="text13"
       xml:space="preserve"
       transform="matrix(1.3333333,0,0,1.3333333,254.96533,15.796)"><tspan
         id="tspan13"
         style="font-variant:normal;font-weight:normal;font-size:7.97011px;font-family:'Latin Modern Sans';writing-mode:lr-tb;fill:#000000;fill-opacity:1;fill-rule:nonzero;stroke:none"
         x="0"
         dx="0 0 0 -0.2391033"
         y="0">Shares</tspan></text>
    <text
       id="text14"
       xml:space="preserve"
       transform="matrix(1.3333333,0,0,1.3333333,252.23467,28.416)"><tspan
         id="tspan14"
         style="font-variant:normal;font-weight:normal;font-size:7.97011px;font-family:'Latin Modern Sans';writing-mode:lr-tb;fill:#000000;fill-opacity:1;fill-rule:nonzero;stroke:none"
         x="0"
         y="0">Insights</tspan></text>
    <path
       id="path14"
       d="m 302.90767,-12.38371 h 34.86969 v 24.76743 h -34.86969 z"
       style="fill:#e0e0e0;fill-opacity:1;fill-rule:nonzero;stroke:none"
       transform="matrix(1.3333333,0,0,-1.3333333,0.54,19.396)" />
    <text
       id="text15"
       xml:space="preserve"
       transform="matrix(1.3333333,0,0,1.3333333,412.456,15.796)"><tspan
         id="tspan15"
         style="font-variant:normal;font-weight:normal;font-size:7.97011px;font-family:'Latin Modern Sans';writing-mode:lr-tb;fill:#000000;fill-opacity:1;fill-rule:nonzero;stroke:none"
         x="0"
         dx="0 0 0 -0.23113319"
         y="0">Shares</tspan></text>
    <text
       id="text16"
       xml:space="preserve"
       transform="matrix(1.3333333,0,0,1.3333333,409.72533,28.416)"><tspan
         id="tspan16"
         style="font-variant:normal;font-weight:normal;font-size:7.97011px;font-family:'Latin Modern Sans';writing-mode:lr-tb;fill:#000000;fill-opacity:1;fill-rule:nonzero;stroke:none"
         x="0"
         y="0">Insights</tspan></text>
    <path
       id="path16"
       d="m 242.28415,-81.69368 -37.2433,37.24332 c -1.55631,1.5563 -4.0795,1.5563 -5.63581,0 l -37.24331,-37.24332 c -1.55631,-1.5563 -1.55631,-4.0795 0,-5.63579 l 37.24331,-37.24331 c 1.55631,-1.55631 4.0795,-1.55631 5.63581,0 l 37.2433,37.24331 c 1.5563,1.55629 1.5563,4.07949 0,5.63579 z"
       style="fill:#dbfda6;fill-opacity:1;fill-rule:nonzero;stroke:#495938;stroke-width:0.74721;stroke-linecap:butt;stroke-linejoin:miter;stroke-miterlimit:10;stroke-dasharray:none;stroke-opacity:1"
       transform="matrix(1.3333333,0,0,-1.3333333,0.54,19.396)" />
    <text
       id="text17"
       xml:space="preserve"
       transform="matrix(1.3333333,0,0,1.3333333,251.60133,120.448)"><tspan
         id="tspan17"
         style="font-variant:normal;font-weight:normal;font-size:8.96638px;font-family:'Latin Modern Sans';writing-mode:lr-tb;fill:#000000;fill-opacity:1;fill-rule:nonzero;stroke:none"
         x="0"
         y="0">Central</tspan></text>
    <text
       id="text18"
       xml:space="preserve"
       transform="matrix(1.3333333,0,0,1.3333333,253.036,135.06)"><tspan
         id="tspan18"
         style="font-variant:normal;font-weight:normal;font-size:8.96638px;font-family:'Latin Modern Sans';writing-mode:lr-tb;fill:#000000;fill-opacity:1;fill-rule:nonzero;stroke:none"
         x="0"
         y="0">Aggre-</tspan></text>
    <text
       id="text19"
       xml:space="preserve"
       transform="matrix(1.3333333,0,0,1.3333333,254.21333,149.672)"><tspan
         id="tspan19"
         style="font-variant:normal;font-weight:normal;font-size:8.96638px;font-family:'Latin Modern Sans';writing-mode:lr-tb;fill:#000000;fill-opacity:1;fill-rule:nonzero;stroke:none"
         x="0"
         y="0">gation</tspan></text>
    <path
       id="path19"
       d="m 222.90784,-162.3088 h -41.36978 c -2.20095,0 -3.98511,-1.78417 -3.98511,-3.98511 v -20.37659 c 0,-2.20094 1.78416,-3.98511 3.98511,-3.98511 h 41.36978 c 2.20094,0 3.9851,1.78417 3.9851,3.98511 v 20.37659 c 0,2.20094 -1.78416,3.98511 -3.9851,3.98511 z"
       style="fill:#dbfda6;fill-opacity:1;fill-rule:nonzero;stroke:#495938;stroke-width:0.74721;stroke-linecap:butt;stroke-linejoin:miter;stroke-miterlimit:10;stroke-dasharray:none;stroke-opacity:1"
       transform="matrix(1.3333333,0,0,-1.3333333,0.54,19.396)" />
    <text
       id="text20"
       xml:space="preserve"
       transform="matrix(1.3333333,0,0,1.3333333,251.60133,250.38533)"><tspan
         id="tspan20"
         style="font-variant:normal;font-weight:normal;font-size:8.96638px;font-family:'Latin Modern Sans';writing-mode:lr-tb;fill:#000000;fill-opacity:1;fill-rule:nonzero;stroke:none"
         x="0"
         y="0">Central</tspan></text>
    <text
       id="text21"
       xml:space="preserve"
       transform="matrix(1.3333333,0,0,1.3333333,249.46133,264.99733)"><tspan
         id="tspan21"
         style="font-variant:normal;font-weight:normal;font-size:8.96638px;font-family:'Latin Modern Sans';writing-mode:lr-tb;fill:#000000;fill-opacity:1;fill-rule:nonzero;stroke:none"
         x="0"
         y="0">Analysis</tspan></text>
    <path
       id="path21"
       d="m 202.22295,-127.92322 v -30.15646"
       style="fill:none;stroke:#000000;stroke-width:0.49814;stroke-linecap:butt;stroke-linejoin:miter;stroke-miterlimit:10;stroke-dasharray:none;stroke-opacity:1"
       transform="matrix(1.3333333,0,0,-1.3333333,0.54,19.396)" />
    <path
       id="path22"
       d="M 3.85551,0 C 2.71312,0.21419 0.85678,0.85678 -0.42839,1.60646 V -1.60646 C 0.85678,-0.85678 2.71312,-0.21419 3.85551,0"
       style="fill:#000000;fill-opacity:1;fill-rule:nonzero;stroke:none"
       transform="matrix(0,1.3333333,1.3333333,0,270.1706,230.16891)" />
    <path
       id="path23"
       d="m 158.17154,-147.2622 h 88.10275 v 15.13542 h -88.10275 z"
       style="fill:#e0e0e0;fill-opacity:1;fill-rule:nonzero;stroke:none"
       transform="matrix(1.3333333,0,0,-1.3333333,0.54,19.396)" />
    <text
       id="text23"
       xml:space="preserve"
       transform="matrix(1.3333333,0,0,1.3333333,216.74667,208.252)"><tspan
         id="tspan23"
         style="font-variant:normal;font-weight:normal;font-size:7.97011px;font-family:'Latin Modern Sans';writing-mode:lr-tb;fill:#000000;fill-opacity:1;fill-rule:nonzero;stroke:none"
         x="0"
         dx="0 0 0 0 0 0 0 0 0 0 2.821419 0 0 -0.2391033"
         y="0">AggregatesKnowledge</tspan></text>
    <path
       id="path24"
       d="M 25.0436,-14.547 V -84.51158 H 154.95512"
       style="fill:none;stroke:#000000;stroke-width:0.49814;stroke-linecap:butt;stroke-linejoin:miter;stroke-miterlimit:10;stroke-dasharray:none;stroke-opacity:1"
       transform="matrix(1.3333333,0,0,-1.3333333,0.54,19.396)" />
    <path
       id="path25"
       d="M 3.85551,0 C 2.71312,0.21419 0.85678,0.85678 -0.42839,1.60646 V -1.60646 C 0.85678,-0.85678 2.71312,-0.21419 3.85551,0"
       style="fill:#000000;fill-opacity:1;fill-rule:nonzero;stroke:none"
       transform="matrix(1.3333333,0,0,-1.3333333,207.14683,132.07811)" />
    <path
       id="path26"
       d="m -0.40529,-39.82515 h 50.8978 v 14.17337 h -50.8978 z"
       style="fill:#e0e0e0;fill-opacity:1;fill-rule:nonzero;stroke:none"
       transform="matrix(1.3333333,0,0,-1.3333333,0.54,19.396)" />
    <text
       id="text26"
       xml:space="preserve"
       transform="matrix(1.3333333,0,0,1.3333333,5.3133333,66.734667)"><tspan
         id="tspan26"
         style="font-variant:normal;font-weight:normal;font-size:7.97011px;font-family:'Latin Modern Sans';writing-mode:lr-tb;fill:#000000;fill-opacity:1;fill-rule:nonzero;stroke:none"
         x="0"
         dx="0 0 0 -0.2391033 0 0 2.821419"
         y="0">SharesData</tspan></text>
    <path
       id="path27"
       d="m 143.16316,-14.547 v -69.96458 h 11.79196"
       style="fill:none;stroke:#000000;stroke-width:0.49814;stroke-linecap:butt;stroke-linejoin:miter;stroke-miterlimit:10;stroke-dasharray:none;stroke-opacity:1"
       transform="matrix(1.3333333,0,0,-1.3333333,0.54,19.396)" />
    <path
       id="path28"
       d="M 3.85551,0 C 2.71312,0.21419 0.85678,0.85678 -0.42839,1.60646 V -1.60646 C 0.85678,-0.85678 2.71312,-0.21419 3.85551,0"
       style="fill:#000000;fill-opacity:1;fill-rule:nonzero;stroke:none"
       transform="matrix(1.3333333,0,0,-1.3333333,207.14683,132.07811)" />
    <path
       id="path29"
       d="m 117.71426,-39.82515 h 50.8978 v 14.17337 h -50.8978 z"
       style="fill:#e0e0e0;fill-opacity:1;fill-rule:nonzero;stroke:none"
       transform="matrix(1.3333333,0,0,-1.3333333,0.54,19.396)" />
    <text
       id="text29"
       xml:space="preserve"
       transform="matrix(1.3333333,0,0,1.3333333,162.804,66.734667)"><tspan
         id="tspan29"
         style="font-variant:normal;font-weight:normal;font-size:7.97011px;font-family:'Latin Modern Sans';writing-mode:lr-tb;fill:#000000;fill-opacity:1;fill-rule:nonzero;stroke:none"
         x="0"
         dx="0 0 0 -0.2391033 0 0 2.821419"
         y="0">SharesData</tspan></text>
    <path
       id="path30"
       d="M 261.28273,-14.547 V -84.51158 H 249.49075"
       style="fill:none;stroke:#000000;stroke-width:0.49814;stroke-linecap:butt;stroke-linejoin:miter;stroke-miterlimit:10;stroke-dasharray:none;stroke-opacity:1"
       transform="matrix(1.3333333,0,0,-1.3333333,0.54,19.396)" />
    <path
       id="path31"
       d="M 3.85551,0 C 2.71312,0.21419 0.85678,0.85678 -0.42839,1.60646 V -1.60646 C 0.85678,-0.85678 2.71312,-0.21419 3.85551,0"
       style="fill:#000000;fill-opacity:1;fill-rule:nonzero;stroke:none"
       transform="matrix(-1.3333333,0,0,1.3333333,333.19433,132.07811)" />
    <path
       id="path32"
       d="m 235.83383,-39.82515 h 50.8978 v 14.17337 h -50.8978 z"
       style="fill:#e0e0e0;fill-opacity:1;fill-rule:nonzero;stroke:none"
       transform="matrix(1.3333333,0,0,-1.3333333,0.54,19.396)" />
    <text
       id="text32"
       xml:space="preserve"
       transform="matrix(1.3333333,0,0,1.3333333,320.29467,66.734667)"><tspan
         id="tspan32"
         style="font-variant:normal;font-weight:normal;font-size:7.97011px;font-family:'Latin Modern Sans';writing-mode:lr-tb;fill:#000000;fill-opacity:1;fill-rule:nonzero;stroke:none"
         x="0"
         dx="0 0 0 -0.2391033 0 0 2.821419"
         y="0">SharesData</tspan></text>
    <path
       id="path33"
       d="M 379.4023,-14.547 V -84.51158 H 249.49075"
       style="fill:none;stroke:#000000;stroke-width:0.49814;stroke-linecap:butt;stroke-linejoin:miter;stroke-miterlimit:10;stroke-dasharray:none;stroke-opacity:1"
       transform="matrix(1.3333333,0,0,-1.3333333,0.54,19.396)" />
    <path
       id="path34"
       d="M 3.85551,0 C 2.71312,0.21419 0.85678,0.85678 -0.42839,1.60646 V -1.60646 C 0.85678,-0.85678 2.71312,-0.21419 3.85551,0"
       style="fill:#000000;fill-opacity:1;fill-rule:nonzero;stroke:none"
       transform="matrix(-1.3333333,0,0,1.3333333,333.19433,132.07811)" />
    <path
       id="path35"
       d="m 353.9534,-39.82515 h 50.8978 v 14.17337 h -50.8978 z"
       style="fill:#e0e0e0;fill-opacity:1;fill-rule:nonzero;stroke:none"
       transform="matrix(1.3333333,0,0,-1.3333333,0.54,19.396)" />
    <text
       id="text35"
       xml:space="preserve"
       transform="matrix(1.3333333,0,0,1.3333333,477.78533,66.734667)"><tspan
         id="tspan35"
         style="font-variant:normal;font-weight:normal;font-size:7.97011px;font-family:'Latin Modern Sans';writing-mode:lr-tb;fill:#000000;fill-opacity:1;fill-rule:nonzero;stroke:none"
         x="0"
         dx="0 0 0 -0.2391033 0 0 2.821419"
         y="0">SharesData</tspan></text>
  </g>
</svg>
