<?xml version="1.0" encoding="UTF-8" standalone="no"?>
<!-- Created with Inkscape (http://www.inkscape.org/) -->

<svg
   version="1.1"
   id="svg1"
   width="297.89066"
   height="212.66"
   viewBox="0 0 297.89066 212.66"
   xmlns="http://www.w3.org/2000/svg"
   xmlns:svg="http://www.w3.org/2000/svg">
  <defs
     id="defs1" />
  <g
     id="g1">
    <path
       id="path1"
       d="M -22.67744,-23.05104 H 304.2715 v 57.4408 H -22.67744 Z"
       style="fill:#fffff2;fill-opacity:1;fill-rule:nonzero;stroke:#aaaa33;stroke-width:0.74721;stroke-linecap:butt;stroke-linejoin:miter;stroke-miterlimit:10;stroke-dasharray:none;stroke-opacity:1"
       transform="matrix(0.90906667,0,0,-0.90906667,20.954896,31.599374)" />
    <path
       id="path2"
       d="M -22.67744,-110.92632 H 304.2715 v 57.4408 H -22.67744 Z"
       style="fill:#fffff2;fill-opacity:1;fill-rule:nonzero;stroke:#aaaa33;stroke-width:0.74721;stroke-linecap:butt;stroke-linejoin:miter;stroke-miterlimit:10;stroke-dasharray:none;stroke-opacity:1"
       transform="matrix(0.90906667,0,0,-0.90906667,20.954896,31.599374)" />
    <path
       id="path3"
       d="M -22.67744,-198.80118 H 304.2715 v 57.4408 H -22.67744 Z"
       style="fill:#fffff2;fill-opacity:1;fill-rule:nonzero;stroke:#aaaa33;stroke-width:0.74721;stroke-linecap:butt;stroke-linejoin:miter;stroke-miterlimit:10;stroke-dasharray:none;stroke-opacity:1"
       transform="matrix(0.90906667,0,0,-0.90906667,20.954896,31.599374)" />
    <path
       id="path4"
       d="M 119.43024,14.17339 H 4.3587 c -2.20094,0 -3.9851,-1.78417 -3.9851,-3.98511 v -20.37656 c 0,-2.20094 1.78416,-3.98511 3.9851,-3.98511 h 115.07154 c 2.20094,0 3.9851,1.78417 3.9851,3.98511 v 20.37656 c 0,2.20094 -1.78416,3.98511 -3.9851,3.98511 z"
       style="fill:#f3f3ff;fill-opacity:1;fill-rule:nonzero;stroke:#9e7ae6;stroke-width:0.74721;stroke-linecap:butt;stroke-linejoin:miter;stroke-miterlimit:10;stroke-dasharray:none;stroke-opacity:1"
       transform="matrix(0.90906667,0,0,-0.90906667,20.954896,31.599374)" />
    <text
       id="text4"
       xml:space="preserve"
       transform="matrix(0.90906667,0,0,0.90906667,49.37232,28.47673)"><tspan
         id="tspan4"
         style="font-variant:normal;font-weight:normal;font-size:8.96638px;font-family:'Latin Modern Sans';writing-mode:lr-tb;fill:#000000;fill-opacity:1;fill-rule:nonzero;stroke:none"
         x="0"
         dx="0 -0.26002502 0 0 3.0754683"
         y="0">FullCapabilities</tspan></text>
    <text
       id="text5"
       xml:space="preserve"
       transform="matrix(0.90906667,0,0,0.90906667,36.50539,38.439191)"><tspan
         id="tspan5"
         style="font-variant:normal;font-weight:normal;font-size:8.96638px;font-family:'Latin Modern Sans';writing-mode:lr-tb;fill:#000000;fill-opacity:1;fill-rule:nonzero;stroke:none"
         x="0"
         dx="0 0 0 0 0 0 0 0 0 0 0 0 3.0754683"
         y="0">(Cloud-BasedAnalysis)</tspan></text>
    <path
       id="path5"
       d="M 277.23535,14.17339 H 162.16383 c -2.20094,0 -3.9851,-1.78417 -3.9851,-3.98511 v -20.37656 c 0,-2.20094 1.78416,-3.98511 3.9851,-3.98511 h 115.07152 c 2.20095,0 3.98511,1.78417 3.98511,3.98511 v 20.37656 c 0,2.20094 -1.78416,3.98511 -3.98511,3.98511 z"
       style="fill:#f3f3ff;fill-opacity:1;fill-rule:nonzero;stroke:#9e7ae6;stroke-width:0.74721;stroke-linecap:butt;stroke-linejoin:miter;stroke-miterlimit:10;stroke-dasharray:none;stroke-opacity:1"
       transform="matrix(0.90906667,0,0,-0.90906667,20.954896,31.599374)" />
    <text
       id="text6"
       xml:space="preserve"
       transform="matrix(0.90906667,0,0,0.90906667,170.39364,28.431277)"><tspan
         id="tspan6"
         style="font-variant:normal;font-weight:normal;font-size:8.96638px;font-family:'Latin Modern Sans';writing-mode:lr-tb;fill:#000000;fill-opacity:1;fill-rule:nonzero;stroke:none"
         x="0"
         dx="0 0 0 0 3.0754683 0 0 0 0 0 0 0 3.0754683"
         y="0">HighResourceRequirements</tspan></text>
    <text
       id="text7"
       xml:space="preserve"
       transform="matrix(0.90906667,0,0,0.90906667,182.54695,38.393738)"><tspan
         id="tspan7"
         style="font-variant:normal;font-weight:normal;font-size:8.96638px;font-family:'Latin Modern Sans';writing-mode:lr-tb;fill:#000000;fill-opacity:1;fill-rule:nonzero;stroke:none"
         x="0"
         dx="0 0 0 0 0 0 0 3.0754683 0 0.26002502 -0.26002502"
         y="0">(GlobalCoordination)</tspan></text>
    <text
       id="text8"
       xml:space="preserve"
       transform="matrix(0.90906667,0,0,0.90906667,121.4204,9.7599563)"><tspan
         id="tspan8"
         style="font-variant:normal;font-weight:normal;font-size:8.96638px;font-family:'Latin Modern Sans';writing-mode:lr-tb;fill:#000000;fill-opacity:1;fill-rule:nonzero;stroke:none"
         x="0"
         dx="0 -0.25105864 0 0 0 0 0 0 3.0665019 0 -0.25105864 -0.26002502"
         y="0">AdvancedLayer</tspan></text>
    <path
       id="path8"
       d="M 119.43024,-73.70187 H 4.3587 c -2.20094,0 -3.9851,-1.78417 -3.9851,-3.98511 v -20.37659 c 0,-2.20094 1.78416,-3.98511 3.9851,-3.98511 h 115.07154 c 2.20094,0 3.9851,1.78417 3.9851,3.98511 v 20.37659 c 0,2.20094 -1.78416,3.98511 -3.9851,3.98511 z"
       style="fill:#f3f3ff;fill-opacity:1;fill-rule:nonzero;stroke:#9e7ae6;stroke-width:0.74721;stroke-linecap:butt;stroke-linejoin:miter;stroke-miterlimit:10;stroke-dasharray:none;stroke-opacity:1"
       transform="matrix(0.90906667,0,0,-0.90906667,20.954896,31.599374)" />
    <text
       id="text9"
       xml:space="preserve"
       transform="matrix(0.90906667,0,0,0.90906667,44.179731,108.3146)"><tspan
         id="tspan9"
         style="font-variant:normal;font-weight:normal;font-size:8.96638px;font-family:'Latin Modern Sans';writing-mode:lr-tb;fill:#000000;fill-opacity:1;fill-rule:nonzero;stroke:none"
         x="0"
         dx="0 0 0 0 0 0 0 0 3.0754683 -0.26002502"
         y="0">EnhancedFeatures</tspan></text>
    <text
       id="text10"
       xml:space="preserve"
       transform="matrix(0.90906667,0,0,0.90906667,42.835221,118.27706)"><tspan
         id="tspan10"
         style="font-variant:normal;font-weight:normal;font-size:8.96638px;font-family:'Latin Modern Sans';writing-mode:lr-tb;fill:#000000;fill-opacity:1;fill-rule:nonzero;stroke:none"
         x="0"
         dx="0 0 0 0 0 3.0754683"
         y="0">(DataAggregation)</tspan></text>
    <path
       id="path10"
       d="M 277.23535,-73.70187 H 162.16383 c -2.20094,0 -3.9851,-1.78417 -3.9851,-3.98511 v -20.37659 c 0,-2.20094 1.78416,-3.98511 3.9851,-3.98511 h 115.07152 c 2.20095,0 3.98511,1.78417 3.98511,3.98511 v 20.37659 c 0,2.20094 -1.78416,3.98511 -3.98511,3.98511 z"
       style="fill:#f3f3ff;fill-opacity:1;fill-rule:nonzero;stroke:#9e7ae6;stroke-width:0.74721;stroke-linecap:butt;stroke-linejoin:miter;stroke-miterlimit:10;stroke-dasharray:none;stroke-opacity:1"
       transform="matrix(0.90906667,0,0,-0.90906667,20.954896,31.599374)" />
    <text
       id="text11"
       xml:space="preserve"
       transform="matrix(0.90906667,0,0,0.90906667,171.75087,108.3146)"><tspan
         id="tspan11"
         style="font-variant:normal;font-weight:normal;font-size:8.96638px;font-family:'Latin Modern Sans';writing-mode:lr-tb;fill:#000000;fill-opacity:1;fill-rule:nonzero;stroke:none"
         x="0"
         dx="0 -0.26002502 -0.26002502 0 0 0 0 3.0754683 0 0 0 0 0 0 0 3.0754683 -0.26002502 0 0 0 0 0 0 0 0 0 -0.26002502"
         y="0">PartialResourceAvailability</tspan></text>
    <text
       id="text12"
       xml:space="preserve"
       transform="matrix(0.90906667,0,0,0.90906667,176.86619,118.27706)"><tspan
         id="tspan12"
         style="font-variant:normal;font-weight:normal;font-size:8.96638px;font-family:'Latin Modern Sans';writing-mode:lr-tb;fill:#000000;fill-opacity:1;fill-rule:nonzero;stroke:none"
         x="0"
         dx="0 0 0 0 0 0 0 0 0 0 0 3.0754683"
         y="0">(Edge-CloudIntegration)</tspan></text>
    <text
       id="text13"
       xml:space="preserve"
       transform="matrix(0.90906667,0,0,0.90906667,116.38781,89.643281)"><tspan
         id="tspan13"
         style="font-variant:normal;font-weight:normal;font-size:8.96638px;font-family:'Latin Modern Sans';writing-mode:lr-tb;fill:#000000;fill-opacity:1;fill-rule:nonzero;stroke:none"
         x="0"
         dx="0 0 0 0 0 0 0 0 0 0 0 0 3.0754683 0 -0.26002502 -0.26002502"
         y="0">IntermediateLayer</tspan></text>
    <path
       id="path13"
       d="M 119.43024,-161.57672 H 4.3587 c -2.20094,0 -3.9851,-1.78417 -3.9851,-3.98511 v -20.37659 c 0,-2.20094 1.78416,-3.9851 3.9851,-3.9851 h 115.07154 c 2.20094,0 3.9851,1.78416 3.9851,3.9851 v 20.37659 c 0,2.20094 -1.78416,3.98511 -3.9851,3.98511 z"
       style="fill:#f3f3ff;fill-opacity:1;fill-rule:nonzero;stroke:#9e7ae6;stroke-width:0.74721;stroke-linecap:butt;stroke-linejoin:miter;stroke-miterlimit:10;stroke-dasharray:none;stroke-opacity:1"
       transform="matrix(0.90906667,0,0,-0.90906667,20.954896,31.599374)" />
    <text
       id="text14"
       xml:space="preserve"
       transform="matrix(0.90906667,0,0,0.90906667,48.817789,188.28792)"><tspan
         id="tspan14"
         style="font-variant:normal;font-weight:normal;font-size:8.96638px;font-family:'Latin Modern Sans';writing-mode:lr-tb;fill:#000000;fill-opacity:1;fill-rule:nonzero;stroke:none"
         x="0"
         dx="0 0 -0.26002502 0 3.0754683 0 0.26002502"
         y="0">CoreOperations</tspan></text>
    <text
       id="text15"
       xml:space="preserve"
       transform="matrix(0.90906667,0,0,0.90906667,41.057996,198.25038)"><tspan
         id="tspan15"
         style="font-variant:normal;font-weight:normal;font-size:8.96638px;font-family:'Latin Modern Sans';writing-mode:lr-tb;fill:#000000;fill-opacity:1;fill-rule:nonzero;stroke:none"
         x="0"
         dx="0 0 0 0 0 0 3.0754683"
         y="0">(OfineDiagnostics)</tspan></text>
    <path
       id="path15"
       d="M 277.23535,-161.57672 H 162.16383 c -2.20094,0 -3.9851,-1.78417 -3.9851,-3.98511 v -20.37659 c 0,-2.20094 1.78416,-3.9851 3.9851,-3.9851 h 115.07152 c 2.20095,0 3.98511,1.78416 3.98511,3.9851 v 20.37659 c 0,2.20094 -1.78416,3.98511 -3.98511,3.98511 z"
       style="fill:#f3f3ff;fill-opacity:1;fill-rule:nonzero;stroke:#9e7ae6;stroke-width:0.74721;stroke-linecap:butt;stroke-linejoin:miter;stroke-miterlimit:10;stroke-dasharray:none;stroke-opacity:1"
       transform="matrix(0.90906667,0,0,-0.90906667,20.954896,31.599374)" />
    <text
       id="text16"
       xml:space="preserve"
       transform="matrix(0.90906667,0,0,0.90906667,171.15634,188.19793)"><tspan
         id="tspan16"
         style="font-variant:normal;font-weight:normal;font-size:8.96638px;font-family:'Latin Modern Sans';writing-mode:lr-tb;fill:#000000;fill-opacity:1;fill-rule:nonzero;stroke:none"
         x="0"
         dx="0 0 0 0 0 0 0 3.0754683 0 0 0 0 0 0 0 0 3.0754683"
         y="0">MinimalResourcesRequired</tspan></text>
    <text
       id="text17"
       xml:space="preserve"
       transform="matrix(0.90906667,0,0,0.90906667,190.98763,198.16039)"><tspan
         id="tspan17"
         style="font-variant:normal;font-weight:normal;font-size:8.96638px;font-family:'Latin Modern Sans';writing-mode:lr-tb;fill:#000000;fill-opacity:1;fill-rule:nonzero;stroke:none"
         x="0"
         dx="0 0 0 0.26002502 0 0 3.0754683"
         y="0">(LocalInference)</tspan></text>
    <text
       id="text18"
       xml:space="preserve"
       transform="matrix(0.90906667,0,0,0.90906667,123.96397,169.5257)"><tspan
         id="tspan18"
         style="font-variant:normal;font-weight:normal;font-size:8.96638px;font-family:'Latin Modern Sans';writing-mode:lr-tb;fill:#000000;fill-opacity:1;fill-rule:nonzero;stroke:none"
         x="0"
         dx="0 0 0 0 0 0 0 0 3.0754683 0 -0.26002502 -0.26002502"
         y="0">BaselineLayer</tspan></text>
    <path
       id="path18"
       d="M 60.83824,-23.42465 V -49.2564"
       style="fill:none;stroke:#000000;stroke-width:0.49814;stroke-linecap:butt;stroke-linejoin:miter;stroke-miterlimit:10;stroke-dasharray:none;stroke-opacity:1"
       transform="matrix(0.90906667,0,0,-0.90906667,20.954896,31.599374)" />
    <path
       id="path19"
       d="M 3.85551,0 C 2.71312,0.21419 0.85678,0.85678 -0.42839,1.60646 V -1.60646 C 0.85678,-0.85678 2.71312,-0.21419 3.85551,0"
       style="fill:#000000;fill-opacity:1;fill-rule:nonzero;stroke:none"
       transform="matrix(0,0.90906667,0.90906667,0,76.260912,76.376725)" />
    <path
       id="path20"
       d="m 2.61583,-45.35498 h 116.44484 v 14.17337 H 2.61583 Z"
       style="fill:#e0e0e0;fill-opacity:1;fill-rule:nonzero;stroke:none"
       transform="matrix(0.90906667,0,0,-0.90906667,20.954896,31.599374)" />
    <text
       id="text20"
       xml:space="preserve"
       transform="matrix(0.90906667,0,0,0.90906667,26.955645,68.864744)"><tspan
         id="tspan20"
         style="font-variant:normal;font-weight:normal;font-size:7.97011px;font-family:'Latin Modern Sans';writing-mode:lr-tb;fill:#000000;fill-opacity:1;fill-rule:nonzero;stroke:none"
         x="0"
         dx="0 -0.2391033 0 0 0 0 0 0 0 3.7539217 0 0.0079701096 0 0 0 0 0 0 2.821419"
         y="0">Fallback:DecreasedResources</tspan></text>
    <path
       id="path21"
       d="M 220.7558,-27.28017 V -53.11192"
       style="fill:none;stroke:#000000;stroke-width:0.49814;stroke-linecap:butt;stroke-linejoin:miter;stroke-miterlimit:10;stroke-dasharray:none;stroke-opacity:1"
       transform="matrix(0.90906667,0,0,-0.90906667,20.954896,31.599374)" />
    <path
       id="path22"
       d="M 3.85551,0 C 2.71312,0.21419 0.85678,0.85678 -0.42839,1.60646 V -1.60646 C 0.85678,-0.85678 2.71312,-0.21419 3.85551,0"
       style="fill:#000000;fill-opacity:1;fill-rule:nonzero;stroke:none"
       transform="matrix(0,-0.90906667,-0.90906667,0,221.63663,56.398867)" />
    <path
       id="path23"
       d="m 181.68579,-45.35498 h 78.13998 v 14.17337 h -78.13998 z"
       style="fill:#e0e0e0;fill-opacity:1;fill-rule:nonzero;stroke:none"
       transform="matrix(0.90906667,0,0,-0.90906667,20.954896,31.599374)" />
    <text
       id="text23"
       xml:space="preserve"
       transform="matrix(0.90906667,0,0,0.90906667,189.73949,68.864744)"><tspan
         id="tspan23"
         style="font-variant:normal;font-weight:normal;font-size:7.97011px;font-family:'Latin Modern Sans';writing-mode:lr-tb;fill:#000000;fill-opacity:1;fill-rule:nonzero;stroke:none"
         x="0"
         dx="0 0 0 0 0 0 0 0 0 2.821419"
         y="0">IncreasedResources</tspan></text>
    <path
       id="path24"
       d="m 60.83824,-111.29993 v -25.83131"
       style="fill:none;stroke:#000000;stroke-width:0.49814;stroke-linecap:butt;stroke-linejoin:miter;stroke-miterlimit:10;stroke-dasharray:none;stroke-opacity:1"
       transform="matrix(0.90906667,0,0,-0.90906667,20.954896,31.599374)" />
    <path
       id="path25"
       d="M 3.85551,0 C 2.71312,0.21419 0.85678,0.85678 -0.42839,1.60646 V -1.60646 C 0.85678,-0.85678 2.71312,-0.21419 3.85551,0"
       style="fill:#000000;fill-opacity:1;fill-rule:nonzero;stroke:none"
       transform="matrix(0,0.90906667,0.90906667,0,76.260912,156.26081)" />
    <path
       id="path26"
       d="m 2.61583,-133.23004 h 116.44484 v 14.17337 H 2.61583 Z"
       style="fill:#e0e0e0;fill-opacity:1;fill-rule:nonzero;stroke:none"
       transform="matrix(0.90906667,0,0,-0.90906667,20.954896,31.599374)" />
    <text
       id="text26"
       xml:space="preserve"
       transform="matrix(0.90906667,0,0,0.90906667,26.955645,148.74807)"><tspan
         id="tspan26"
         style="font-variant:normal;font-weight:normal;font-size:7.97011px;font-family:'Latin Modern Sans';writing-mode:lr-tb;fill:#000000;fill-opacity:1;fill-rule:nonzero;stroke:none"
         x="0"
         dx="0 -0.2391033 0 0 0 0 0 0 0 3.7539217 0 0.0079701096 0 0 0 0 0 0 2.821419"
         y="0">Fallback:DecreasedResources</tspan></text>
    <path
       id="path27"
       d="m 220.7558,-115.15546 v -25.83131"
       style="fill:none;stroke:#000000;stroke-width:0.49814;stroke-linecap:butt;stroke-linejoin:miter;stroke-miterlimit:10;stroke-dasharray:none;stroke-opacity:1"
       transform="matrix(0.90906667,0,0,-0.90906667,20.954896,31.599374)" />
    <path
       id="path28"
       d="M 3.85551,0 C 2.71312,0.21419 0.85678,0.85678 -0.42839,1.60646 V -1.60646 C 0.85678,-0.85678 2.71312,-0.21419 3.85551,0"
       style="fill:#000000;fill-opacity:1;fill-rule:nonzero;stroke:none"
       transform="matrix(0,-0.90906667,-0.90906667,0,221.63663,136.28336)" />
    <path
       id="path29"
       d="m 181.68579,-133.23004 h 78.13998 v 14.17337 h -78.13998 z"
       style="fill:#e0e0e0;fill-opacity:1;fill-rule:nonzero;stroke:none"
       transform="matrix(0.90906667,0,0,-0.90906667,20.954896,31.599374)" />
    <text
       id="text29"
       xml:space="preserve"
       transform="matrix(0.90906667,0,0,0.90906667,189.73949,148.74807)"><tspan
         id="tspan29"
         style="font-variant:normal;font-weight:normal;font-size:7.97011px;font-family:'Latin Modern Sans';writing-mode:lr-tb;fill:#000000;fill-opacity:1;fill-rule:nonzero;stroke:none"
         x="0"
         dx="0 0 0 0 0 0 0 0 0 2.821419"
         y="0">IncreasedResources</tspan></text>
  </g>
</svg>
