<?xml version="1.0" encoding="UTF-8" standalone="no"?>
<!-- Created with Inkscape (http://www.inkscape.org/) -->

<svg
   version="1.1"
   id="svg2"
   width="491.70132"
   height="179.132"
   viewBox="0 0 491.70132 179.132"
   xmlns="http://www.w3.org/2000/svg"
   xmlns:svg="http://www.w3.org/2000/svg">
  <defs
     id="defs6" />
  <g
     id="g8"
     transform="matrix(1.3333333,0,0,-1.3333333,0,179.132)">
    <g
       id="g10"
       transform="translate(0,122.637)">
      <g
         id="g12">
        <g
           id="g14" />
        <g
           id="g16">
          <g
             id="g18">
            <g
               id="g20">
              <path
                 d="M 96.75278,11.33871 H 4.3587 c -2.20094,0 -3.9851,-1.78418 -3.9851,-3.98511 V -7.3536 c 0,-2.20093 1.78416,-3.98511 3.9851,-3.98511 h 92.39408 c 2.20094,0 3.9851,1.78418 3.9851,3.98511 V 7.3536 c 0,2.20093 -1.78416,3.98511 -3.9851,3.98511 z"
                 style="fill:#dbfda6;fill-opacity:1;fill-rule:nonzero;stroke:#495938;stroke-width:0.74721;stroke-linecap:butt;stroke-linejoin:miter;stroke-miterlimit:10;stroke-dasharray:none;stroke-opacity:1"
                 id="path22" />
            </g>
            <g
               id="g24"
               transform="translate(2.366,-2.188)">
              <g
                 id="g26">
                <g
                   id="g28"
                   transform="translate(-2.366,-120.449)">
                  <text
                     xml:space="preserve"
                     transform="matrix(1,0,0,-1,21.051,120.449)"
                     style="font-variant:normal;font-weight:normal;font-size:8.96638px;font-family:LMSans9;-inkscape-font-specification:LMSans9-Regular;writing-mode:lr-tb;fill:#000000;fill-opacity:1;fill-rule:nonzero;stroke:none"
                     id="text32"><tspan
                       x="0 6.518558 8.7153215 13.32404 21.160656 27.132265 31.229902 34.762657 39.371376 44.132523 47.27972 51.377357 55.474995"
                       y="0"
                       id="tspan30">HighResources</tspan></text>
                  <g
                     id="g34"
                     transform="translate(2.366,120.449)" />
                </g>
              </g>
              <g
                 id="g36"
                 transform="translate(-2.366,2.188)" />
            </g>
          </g>
          <g
             id="g38">
            <g
               id="g40">
              <path
                 d="m 223.37639,11.33871 h -92.39407 c -2.20095,0 -3.98511,-1.78418 -3.98511,-3.98511 V -7.3536 c 0,-2.20093 1.78416,-3.98511 3.98511,-3.98511 h 92.39407 c 2.20094,0 3.98511,1.78418 3.98511,3.98511 V 7.3536 c 0,2.20093 -1.78417,3.98511 -3.98511,3.98511 z"
                 style="fill:#dbfda6;fill-opacity:1;fill-rule:nonzero;stroke:#495938;stroke-width:0.74721;stroke-linecap:butt;stroke-linejoin:miter;stroke-miterlimit:10;stroke-dasharray:none;stroke-opacity:1"
                 id="path42" />
            </g>
            <g
               id="g44"
               transform="translate(128.988,-3.062)">
              <g
                 id="g46">
                <g
                   id="g48"
                   transform="translate(-128.988,-119.575)">
                  <text
                     xml:space="preserve"
                     transform="matrix(1,0,0,-1,141.123,119.575)"
                     style="font-variant:normal;font-weight:normal;font-size:8.96638px;font-family:LMSans9;-inkscape-font-specification:LMSans9-Regular;writing-mode:lr-tb;fill:#000000;fill-opacity:1;fill-rule:nonzero;stroke:none"
                     id="text52"><tspan
                       x="0 8.0518093 12.149445 16.910593 19.107355 23.868504 34.260536 40.232147 44.329784 47.862537 52.471256 57.232403 60.379604 64.477242 68.574875"
                       y="0"
                       id="tspan50">MediumResources</tspan></text>
                  <g
                     id="g54"
                     transform="translate(128.988,119.575)" />
                </g>
              </g>
              <g
                 id="g56"
                 transform="translate(-128.988,3.062)" />
            </g>
          </g>
          <g
             id="g58">
            <g
               id="g60">
              <path
                 d="m 350,11.33871 h -92.39406 c -2.20094,0 -3.98511,-1.78418 -3.98511,-3.98511 V -7.3536 c 0,-2.20093 1.78417,-3.98511 3.98511,-3.98511 H 350 c 2.20094,0 3.9851,1.78418 3.9851,3.98511 V 7.3536 c 0,2.20093 -1.78416,3.98511 -3.9851,3.98511 z"
                 style="fill:#dbfda6;fill-opacity:1;fill-rule:nonzero;stroke:#495938;stroke-width:0.74721;stroke-linecap:butt;stroke-linejoin:miter;stroke-miterlimit:10;stroke-dasharray:none;stroke-opacity:1"
                 id="path62" />
            </g>
            <g
               id="g64"
               transform="translate(255.61,-3.062)">
              <g
                 id="g66">
                <g
                   id="g68"
                   transform="translate(-255.61,-119.575)">
                  <text
                     xml:space="preserve"
                     transform="matrix(1,0,0,-1,275.506,119.575)"
                     style="font-variant:normal;font-weight:normal;font-size:8.96638px;font-family:LMSans9;-inkscape-font-specification:LMSans9-Regular;writing-mode:lr-tb;fill:#000000;fill-opacity:1;fill-rule:nonzero;stroke:none"
                     id="text72"><tspan
                       x="0 5.021173 9.3698673 18.739735 24.711344 28.808979 32.341732 36.950451 41.711601 44.858799 48.956436 53.05407"
                       y="0"
                       id="tspan70">LowResources</tspan></text>
                  <g
                     id="g74"
                     transform="translate(255.61,119.575)" />
                </g>
              </g>
              <g
                 id="g76"
                 transform="translate(-255.61,3.062)" />
            </g>
          </g>
          <g
             id="g78">
            <g
               id="g80">
              <g
                 id="g82">
                <path
                   d="M 96.75278,-45.3549 H 4.3587 c -2.20094,0 -3.9851,-1.78417 -3.9851,-3.98511 v -14.70722 c 0,-2.20094 1.78416,-3.9851 3.9851,-3.9851 h 92.39408 c 2.20094,0 3.9851,1.78416 3.9851,3.9851 v 14.70722 c 0,2.20094 -1.78416,3.98511 -3.9851,3.98511 z"
                   style="fill:#dbfda6;fill-opacity:1;fill-rule:nonzero;stroke:#495938;stroke-width:0.74721;stroke-linecap:butt;stroke-linejoin:miter;stroke-miterlimit:10;stroke-dasharray:none;stroke-opacity:1"
                   id="path84" />
              </g>
              <g
                 id="g86"
                 transform="translate(2.366,-58.984)">
                <g
                   id="g88">
                  <g
                     id="g90"
                     transform="translate(-2.366,-63.653)">
                    <text
                       xml:space="preserve"
                       transform="matrix(1,0,0,-1,19.921,63.653)"
                       style="font-variant:normal;font-weight:normal;font-size:8.96638px;font-family:LMSans9;-inkscape-font-specification:LMSans9-Regular;writing-mode:lr-tb;fill:#000000;fill-opacity:1;fill-rule:nonzero;stroke:none"
                       id="text94"><tspan
                         x="0 5.021173 9.782321 11.979084 17.251316 23.142227 27.571619 32.332767 36.762157 41.523304 43.72007 45.916832 48.113594 51.440121 53.636887 57.73452"
                         y="0"
                         id="tspan92">FullCapabilities</tspan></text>
                    <g
                       id="g96"
                       transform="translate(2.366,63.653)" />
                  </g>
                </g>
                <g
                   id="g98"
                   transform="translate(-2.366,58.984)" />
              </g>
            </g>
            <g
               id="g100">
              <g
                 id="g102">
                <path
                   d="m 223.37639,-45.3549 h -92.39407 c -2.20095,0 -3.98511,-1.78417 -3.98511,-3.98511 v -14.70722 c 0,-2.20094 1.78416,-3.9851 3.98511,-3.9851 h 92.39407 c 2.20094,0 3.98511,1.78416 3.98511,3.9851 v 14.70722 c 0,2.20094 -1.78417,3.98511 -3.98511,3.98511 z"
                   style="fill:#dbfda6;fill-opacity:1;fill-rule:nonzero;stroke:#495938;stroke-width:0.74721;stroke-linecap:butt;stroke-linejoin:miter;stroke-miterlimit:10;stroke-dasharray:none;stroke-opacity:1"
                   id="path104" />
              </g>
              <g
                 id="g106"
                 transform="translate(128.988,-58.984)">
                <g
                   id="g108">
                  <g
                     id="g110"
                     transform="translate(-128.988,-63.653)">
                    <text
                       xml:space="preserve"
                       transform="matrix(1,0,0,-1,131.067,63.653)"
                       style="font-variant:normal;font-weight:normal;font-size:8.96638px;font-family:LMSans9;-inkscape-font-specification:LMSans9-Regular;writing-mode:lr-tb;fill:#000000;fill-opacity:1;fill-rule:nonzero;stroke:none"
                       id="text114"><tspan
                         x="0 6.8054824 11.56663 14.893157 17.08992 24.406487 26.603249 30.611221 34.708858 42.545475 47.566647 52.327793 57.08894 61.186577 64.513107 66.709869 71.318588 76.079735 80.509125 82.705887 84.902649 87.978119"
                         y="0"
                         id="tspan112">OptimizedFunctionality</tspan></text>
                    <g
                       id="g116"
                       transform="translate(128.988,63.653)" />
                  </g>
                </g>
                <g
                   id="g118"
                   transform="translate(-128.988,58.984)" />
              </g>
            </g>
            <g
               id="g120">
              <g
                 id="g122">
                <path
                   d="m 350,-45.3549 h -92.39406 c -2.20094,0 -3.98511,-1.78417 -3.98511,-3.98511 v -14.70722 c 0,-2.20094 1.78417,-3.9851 3.98511,-3.9851 H 350 c 2.20094,0 3.9851,1.78416 3.9851,3.9851 v 14.70722 c 0,2.20094 -1.78416,3.98511 -3.9851,3.98511 z"
                   style="fill:#dbfda6;fill-opacity:1;fill-rule:nonzero;stroke:#495938;stroke-width:0.74721;stroke-linecap:butt;stroke-linejoin:miter;stroke-miterlimit:10;stroke-dasharray:none;stroke-opacity:1"
                   id="path124" />
              </g>
              <g
                 id="g126"
                 transform="translate(255.61,-58.885)">
                <g
                   id="g128">
                  <g
                     id="g130"
                     transform="translate(-255.61,-63.752)">
                    <text
                       xml:space="preserve"
                       transform="matrix(1,0,0,-1,267.221,63.752)"
                       style="font-variant:normal;font-weight:normal;font-size:8.96638px;font-family:LMSans9;-inkscape-font-specification:LMSans9-Regular;writing-mode:lr-tb;fill:#000000;fill-opacity:1;fill-rule:nonzero;stroke:none"
                       id="text134"><tspan
                         x="0 6.1509366 10.580328 14.113082 16.309845 23.482948 28.504122 33.26527 38.026417 42.124054 45.450581 47.647343 52.256062 57.017212 61.446602 63.643364 65.840126 68.906631"
                         y="0"
                         id="tspan132">BasicFunctionality</tspan></text>
                    <g
                       id="g136"
                       transform="translate(255.61,63.752)" />
                  </g>
                </g>
                <g
                   id="g138"
                   transform="translate(-255.61,58.885)" />
              </g>
            </g>
          </g>
          <g
             id="g140">
            <g
               id="g142">
              <path
                 d="m 286.68819,-99.58742 h -92.39406 c -2.20094,0 -3.98511,-1.78416 -3.98511,-3.98511 v -14.70721 c 0,-2.20094 1.78417,-3.98511 3.98511,-3.98511 h 92.39406 c 2.20094,0 3.98511,1.78417 3.98511,3.98511 v 14.70721 c 0,2.20095 -1.78417,3.98511 -3.98511,3.98511 z"
                 style="fill:#dbfda6;fill-opacity:1;fill-rule:nonzero;stroke:#495938;stroke-width:0.74721;stroke-linecap:butt;stroke-linejoin:miter;stroke-miterlimit:10;stroke-dasharray:none;stroke-opacity:1"
                 id="path144" />
            </g>
            <g
               id="g146"
               transform="translate(192.299,-113.166)">
              <g
                 id="g148">
                <g
                   id="g150"
                   transform="translate(-192.299,-9.471)">
                  <text
                     xml:space="preserve"
                     transform="matrix(1,0,0,-1,199.817,9.471)"
                     style="font-variant:normal;font-weight:normal;font-size:8.96638px;font-family:LMSans9;-inkscape-font-specification:LMSans9-Regular;writing-mode:lr-tb;fill:#000000;fill-opacity:1;fill-rule:nonzero;stroke:none"
                     id="text154"><tspan
                       x="0 5.899878 10.661026 15.090418 19.851564 23.178093 27.607485 30.934011 33.130775 37.739494 45.576111 50.597282 54.69492 58.792553 63.553703 68.31485 72.74424 76.841873"
                       y="0"
                       id="tspan152">AdaptationFeedback</tspan></text>
                  <g
                     id="g156"
                     transform="translate(192.299,9.471)" />
                </g>
              </g>
              <g
                 id="g158"
                 transform="translate(-192.299,113.166)" />
            </g>
          </g>
          <g
             id="g160">
            <path
               d="m 253.24722,0 h -21.6566"
               style="fill:none;stroke:#000000;stroke-width:0.49814;stroke-linecap:butt;stroke-linejoin:miter;stroke-miterlimit:10;stroke-dasharray:none;stroke-opacity:1"
               id="path162" />
            <g
               id="g164"
               transform="rotate(180,115.79531,0)">
              <g
                 id="g166">
                <path
                   d="M 3.85551,0 C 2.71312,0.21419 0.85678,0.85678 -0.42839,1.60646 V -1.60646 C 0.85678,-0.85678 2.71312,-0.21419 3.85551,0"
                   style="fill:#000000;fill-opacity:1;fill-rule:nonzero;stroke:none"
                   id="path168" />
              </g>
            </g>
          </g>
          <g
             id="g170">
            <path
               d="m 126.62361,0 h -21.6566"
               style="fill:none;stroke:#000000;stroke-width:0.49814;stroke-linecap:butt;stroke-linejoin:miter;stroke-miterlimit:10;stroke-dasharray:none;stroke-opacity:1"
               id="path172" />
            <g
               id="g174"
               transform="rotate(180,52.483505,0)">
              <g
                 id="g176">
                <path
                   d="M 3.85551,0 C 2.71312,0.21419 0.85678,0.85678 -0.42839,1.60646 V -1.60646 C 0.85678,-0.85678 2.71312,-0.21419 3.85551,0"
                   style="fill:#000000;fill-opacity:1;fill-rule:nonzero;stroke:none"
                   id="path178" />
              </g>
            </g>
          </g>
          <g
             id="g180">
            <path
               d="M 50.55574,-11.71231 V -41.12576"
               style="fill:none;stroke:#000000;stroke-width:0.49814;stroke-linecap:butt;stroke-linejoin:miter;stroke-miterlimit:10;stroke-dasharray:none;stroke-opacity:1"
               id="path182" />
            <g
               id="g184"
               transform="rotate(-90,4.71499,-45.84075)">
              <g
                 id="g186">
                <path
                   d="M 3.85551,0 C 2.71312,0.21419 0.85678,0.85678 -0.42839,1.60646 V -1.60646 C 0.85678,-0.85678 2.71312,-0.21419 3.85551,0"
                   style="fill:#000000;fill-opacity:1;fill-rule:nonzero;stroke:none"
                   id="path188" />
              </g>
            </g>
            <g
               id="g190">
              <g
                 id="g192">
                <path
                   d="m 9.22221,-35.87068 h 82.66704 v 15.04776 H 9.22221 Z"
                   style="fill:#e0e0e0;fill-opacity:1;fill-rule:nonzero;stroke:none"
                   id="path194" />
              </g>
              <g
                 id="g196"
                 transform="translate(13.207,-30.339)">
                <g
                   id="g198">
                  <g
                     id="g200"
                     transform="translate(-13.207,-92.298)">
                    <text
                       xml:space="preserve"
                       transform="matrix(1,0,0,-1,13.207,92.298)"
                       style="font-variant:normal;font-weight:normal;font-size:7.97011px;font-family:LMSans8;-inkscape-font-specification:LMSans8-Regular;writing-mode:lr-tb;fill:#000000;fill-opacity:1;fill-rule:nonzero;stroke:none"
                       id="text204"><tspan
                         x="0 5.4037347 9.7793245 13.844081 18.219671 21.280193 25.34495 28.405472 30.421909 34.654037 41.851048 46.457771 50.219662 53.981556 58.357147 62.732735 66.797493 70.559387"
                         y="0"
                         id="tspan202">AdaptationFeedback</tspan></text>
                    <g
                       id="g206"
                       transform="translate(13.207,92.298)" />
                  </g>
                </g>
                <g
                   id="g208"
                   transform="translate(-13.207,30.339)" />
              </g>
            </g>
          </g>
          <g
             id="g210">
            <path
               d="M 177.17935,-11.71231 V -41.12576"
               style="fill:none;stroke:#000000;stroke-width:0.49814;stroke-linecap:butt;stroke-linejoin:miter;stroke-miterlimit:10;stroke-dasharray:none;stroke-opacity:1"
               id="path212" />
            <g
               id="g214"
               transform="rotate(-90,68.026795,-109.15255)">
              <g
                 id="g216">
                <path
                   d="M 3.85551,0 C 2.71312,0.21419 0.85678,0.85678 -0.42839,1.60646 V -1.60646 C 0.85678,-0.85678 2.71312,-0.21419 3.85551,0"
                   style="fill:#000000;fill-opacity:1;fill-rule:nonzero;stroke:none"
                   id="path218" />
              </g>
            </g>
            <g
               id="g220">
              <g
                 id="g222">
                <path
                   d="m 135.6346,-35.95438 h 83.08951 v 15.21513 H 135.6346 Z"
                   style="fill:#e0e0e0;fill-opacity:1;fill-rule:nonzero;stroke:none"
                   id="path224" />
              </g>
              <g
                 id="g226"
                 transform="translate(139.618,-30.423)">
                <g
                   id="g228">
                  <g
                     id="g230"
                     transform="translate(-139.618,-92.214)">
                    <text
                       xml:space="preserve"
                       transform="matrix(1,0,0,-1,139.618,92.214)"
                       style="font-variant:normal;font-weight:normal;font-size:7.97011px;font-family:LMSans8;-inkscape-font-specification:LMSans8-Regular;writing-mode:lr-tb;fill:#000000;fill-opacity:1;fill-rule:nonzero;stroke:none"
                       id="text234"><tspan
                         x="0 7.3882918 11.859524 16.235113 19.997005 22.890156 26.954912 30.015434 36.598743 42.855282 47.469975 51.231869 54.125015 58.189774 61.250294 63.266735 67.498863 71.874451"
                         y="0"
                         id="tspan232">ModerateOperations</tspan></text>
                    <g
                       id="g236"
                       transform="translate(139.618,92.214)" />
                  </g>
                </g>
                <g
                   id="g238"
                   transform="translate(-139.618,30.423)" />
              </g>
            </g>
          </g>
          <g
             id="g240">
            <path
               d="M 303.80298,-11.71231 V -41.12576"
               style="fill:none;stroke:#000000;stroke-width:0.49814;stroke-linecap:butt;stroke-linejoin:miter;stroke-miterlimit:10;stroke-dasharray:none;stroke-opacity:1"
               id="path242" />
            <g
               id="g244"
               transform="rotate(-90,131.33861,-172.46437)">
              <g
                 id="g246">
                <path
                   d="M 3.85551,0 C 2.71312,0.21419 0.85678,0.85678 -0.42839,1.60646 V -1.60646 C 0.85678,-0.85678 2.71312,-0.21419 3.85551,0"
                   style="fill:#000000;fill-opacity:1;fill-rule:nonzero;stroke:none"
                   id="path248" />
              </g>
            </g>
            <g
               id="g250">
              <g
                 id="g252">
                <path
                   d="m 261.88362,-35.95438 h 83.83868 v 15.21513 h -83.83868 z"
                   style="fill:#e0e0e0;fill-opacity:1;fill-rule:nonzero;stroke:none"
                   id="path254" />
              </g>
              <g
                 id="g256"
                 transform="translate(265.865,-30.423)">
                <g
                   id="g258">
                  <g
                     id="g260"
                     transform="translate(-265.865,-92.214)">
                    <text
                       xml:space="preserve"
                       transform="matrix(1,0,0,-1,265.865,92.214)"
                       style="font-variant:normal;font-weight:normal;font-size:7.97011px;font-family:LMSans8;-inkscape-font-specification:LMSans8-Regular;writing-mode:lr-tb;fill:#000000;fill-opacity:1;fill-rule:nonzero;stroke:none"
                       id="text264"><tspan
                         x="0 4.7023649 6.7188029 13.445576 17.821165 19.837605 21.854042 26.389034 30.150927 37.347935 43.604473 48.219166 51.981056 54.874207 58.938965 61.999485 64.015923 68.248055 72.623642"
                         y="0"
                         id="tspan262">SimplifedOperations</tspan></text>
                    <g
                       id="g266"
                       transform="translate(265.865,92.214)" />
                  </g>
                </g>
                <g
                   id="g268"
                   transform="translate(-265.865,30.423)" />
              </g>
            </g>
          </g>
          <g
             id="g270">
            <path
               d="M 240.49115,-99.21382 V -4.4233 h -8.90053"
               style="fill:none;stroke:#000000;stroke-width:0.49814;stroke-linecap:butt;stroke-linejoin:miter;stroke-miterlimit:10;stroke-dasharray:none;stroke-opacity:1"
               id="path272" />
            <g
               id="g274"
               transform="rotate(180,115.79531,-2.21165)">
              <g
                 id="g276">
                <path
                   d="M 3.85551,0 C 2.71312,0.21419 0.85678,0.85678 -0.42839,1.60646 V -1.60646 C 0.85678,-0.85678 2.71312,-0.21419 3.85551,0"
                   style="fill:#000000;fill-opacity:1;fill-rule:nonzero;stroke:none"
                   id="path278" />
              </g>
            </g>
            <g
               id="g280">
              <g
                 id="g282">
                <path
                   d="m 213.56378,-91.1337 h 53.85474 v 14.17337 h -53.85474 z"
                   style="fill:#e0e0e0;fill-opacity:1;fill-rule:nonzero;stroke:none"
                   id="path284" />
              </g>
              <g
                 id="g286"
                 transform="translate(217.546,-86.772)">
                <g
                   id="g288">
                  <g
                     id="g290"
                     transform="translate(-217.546,-35.865)">
                    <text
                       xml:space="preserve"
                       transform="matrix(1,0,0,-1,217.546,35.865)"
                       style="font-variant:normal;font-weight:normal;font-size:7.97011px;font-family:LMSans8;-inkscape-font-specification:LMSans8-Regular;writing-mode:lr-tb;fill:#000000;fill-opacity:1;fill-rule:nonzero;stroke:none"
                       id="text294"><tspan
                         x="0 5.4834356 9.2453279 13.007219 17.071976 19.088413 21.104851 25.241339 28.134489 32.199245 35.259766 37.276203 41.508331"
                         y="0"
                         id="tspan292">Recalibration</tspan></text>
                    <g
                       id="g296"
                       transform="translate(217.546,35.865)" />
                  </g>
                </g>
                <g
                   id="g298"
                   transform="translate(-217.546,86.772)" />
              </g>
            </g>
          </g>
          <g
             id="g300">
            <path
               d="m 354.35872,0 h 14.1734 v -110.92613 h -73.6297"
               style="fill:none;stroke:#000000;stroke-width:0.49814;stroke-linecap:butt;stroke-linejoin:miter;stroke-miterlimit:10;stroke-dasharray:none;stroke-opacity:1"
               id="path302" />
            <g
               id="g304"
               transform="rotate(180,147.45121,-55.463065)">
              <g
                 id="g306">
                <path
                   d="M 3.85551,0 C 2.71312,0.21419 0.85678,0.85678 -0.42839,1.60646 V -1.60646 C 0.85678,-0.85678 2.71312,-0.21419 3.85551,0"
                   style="fill:#000000;fill-opacity:1;fill-rule:nonzero;stroke:none"
                   id="path308" />
              </g>
            </g>
            <g
               id="g310">
              <g
                 id="g312">
                <path
                   d="m 310.61113,-118.01283 h 53.85474 v 14.17337 h -53.85474 z"
                   style="fill:#e0e0e0;fill-opacity:1;fill-rule:nonzero;stroke:none"
                   id="path314" />
              </g>
              <g
                 id="g316"
                 transform="translate(314.592,-113.651)">
                <g
                   id="g318">
                  <g
                     id="g320"
                     transform="translate(-314.592,-8.986)">
                    <text
                       xml:space="preserve"
                       transform="matrix(1,0,0,-1,314.592,8.986)"
                       style="font-variant:normal;font-weight:normal;font-size:7.97011px;font-family:LMSans8;-inkscape-font-specification:LMSans8-Regular;writing-mode:lr-tb;fill:#000000;fill-opacity:1;fill-rule:nonzero;stroke:none"
                       id="text324"><tspan
                         x="0 5.4834356 9.2453279 13.007219 17.071976 19.088413 21.104851 25.241339 28.134489 32.199245 35.259766 37.276203 41.508331"
                         y="0"
                         id="tspan322">Recalibration</tspan></text>
                    <g
                       id="g326"
                       transform="translate(314.592,8.986)" />
                  </g>
                </g>
                <g
                   id="g328"
                   transform="translate(-314.592,113.651)" />
              </g>
            </g>
          </g>
          <g
             id="g330">
            <path
               d="m 50.55574,-68.40593 v -42.5202 h 135.52414"
               style="fill:none;stroke:#000000;stroke-width:0.49814;stroke-linecap:butt;stroke-linejoin:miter;stroke-miterlimit:10;stroke-dasharray:none;stroke-opacity:1"
               id="path332" />
            <g
               id="g334"
               transform="translate(186.07988,-110.92613)">
              <g
                 id="g336">
                <path
                   d="M 3.85551,0 C 2.71312,0.21419 0.85678,0.85678 -0.42839,1.60646 V -1.60646 C 0.85678,-0.85678 2.71312,-0.21419 3.85551,0"
                   style="fill:#000000;fill-opacity:1;fill-rule:nonzero;stroke:none"
                   id="path338" />
              </g>
            </g>
          </g>
          <g
             id="g340">
            <path
               d="m 177.17935,-68.40593 v -42.5202 h 8.90053"
               style="fill:none;stroke:#000000;stroke-width:0.49814;stroke-linecap:butt;stroke-linejoin:miter;stroke-miterlimit:10;stroke-dasharray:none;stroke-opacity:1"
               id="path342" />
            <g
               id="g344"
               transform="translate(186.07988,-110.92613)">
              <g
                 id="g346">
                <path
                   d="M 3.85551,0 C 2.71312,0.21419 0.85678,0.85678 -0.42839,1.60646 V -1.60646 C 0.85678,-0.85678 2.71312,-0.21419 3.85551,0"
                   style="fill:#000000;fill-opacity:1;fill-rule:nonzero;stroke:none"
                   id="path348" />
              </g>
            </g>
          </g>
          <g
             id="g350">
            <path
               d="m 303.80298,-68.40593 v -42.5202 h -8.90056"
               style="fill:none;stroke:#000000;stroke-width:0.49814;stroke-linecap:butt;stroke-linejoin:miter;stroke-miterlimit:10;stroke-dasharray:none;stroke-opacity:1"
               id="path352" />
            <g
               id="g354"
               transform="rotate(180,147.45121,-55.463065)">
              <g
                 id="g356">
                <path
                   d="M 3.85551,0 C 2.71312,0.21419 0.85678,0.85678 -0.42839,1.60646 V -1.60646 C 0.85678,-0.85678 2.71312,-0.21419 3.85551,0"
                   style="fill:#000000;fill-opacity:1;fill-rule:nonzero;stroke:none"
                   id="path358" />
              </g>
            </g>
          </g>
        </g>
      </g>
    </g>
  </g>
</svg>
