<?xml version="1.0" encoding="utf-8" standalone="no"?>
<!DOCTYPE svg PUBLIC "-//W3C//DTD SVG 1.1//EN"
  "http://www.w3.org/Graphics/SVG/1.1/DTD/svg11.dtd">
<svg xmlns:xlink="http://www.w3.org/1999/xlink" width="72.63pt" height="99.9pt" viewBox="0 0 72.63 99.9" xmlns="http://www.w3.org/2000/svg" version="1.1">
 <metadata>
  <rdf:RDF xmlns:dc="http://purl.org/dc/elements/1.1/" xmlns:cc="http://creativecommons.org/ns#" xmlns:rdf="http://www.w3.org/1999/02/22-rdf-syntax-ns#">
   <cc:Work>
    <dc:type rdf:resource="http://purl.org/dc/dcmitype/StillImage"/>
    <dc:format>image/svg+xml</dc:format>
    <dc:creator>
     <cc:Agent>
      <dc:title>Matplotlib v3.10.8, https://matplotlib.org/</dc:title>
     </cc:Agent>
    </dc:creator>
   </cc:Work>
  </rdf:RDF>
 </metadata>
 <defs>
  <style type="text/css">*{stroke-linejoin: round; stroke-linecap: butt}</style>
 </defs>
 <g id="figure_1">
  <g id="patch_1">
   <path d="M 0 99.9
L 72.63 99.9
L 72.63 0
L 0 0
z
" style="fill: #ffffff"/>
  </g>
  <g id="axes_1">
   <g id="patch_2">
    <path d="M 1.44 98.46
L 71.19 98.46
L 71.19 1.44
L 1.44 1.44
z
" style="fill: #ffffff"/>
   </g>
   <g id="patch_3">
    <path d="M 1.44 31.5162
L 64.245635 31.5162
L 64.245635 10.1718
L 1.44 10.1718
z
" clip-path="url(#p879ee31a35)" style="fill: #7e317b; opacity: 0.92"/>
   </g>
   <g id="patch_4">
    <path d="M 1.44 63.8562
L 29.790359 63.8562
L 29.790359 42.5118
L 1.44 42.5118
z
" clip-path="url(#p879ee31a35)" style="fill: #7e317b; opacity: 0.92"/>
   </g>
   <g id="patch_5">
    <path d="M 1.44 96.1962
L 9.510262 96.1962
L 9.510262 74.8518
L 1.44 74.8518
z
" clip-path="url(#p879ee31a35)" style="fill: #7e317b; opacity: 0.92"/>
   </g>
   <g id="matplotlib.axis_1">
    <g id="xtick_1">
     <g id="line2d_1"/>
    </g>
    <g id="xtick_2">
     <g id="line2d_2"/>
    </g>
    <g id="xtick_3">
     <g id="line2d_3"/>
    </g>
    <g id="xtick_4">
     <g id="line2d_4"/>
    </g>
    <g id="xtick_5">
     <g id="line2d_5"/>
    </g>
    <g id="xtick_6">
     <g id="line2d_6"/>
    </g>
    <g id="xtick_7">
     <g id="line2d_7"/>
    </g>
    <g id="xtick_8">
     <g id="line2d_8"/>
    </g>
    <g id="xtick_9">
     <g id="line2d_9"/>
    </g>
    <g id="xtick_10">
     <g id="line2d_10"/>
    </g>
    <g id="xtick_11">
     <g id="line2d_11"/>
    </g>
    <g id="xtick_12">
     <g id="line2d_12"/>
    </g>
    <g id="xtick_13">
     <g id="line2d_13"/>
    </g>
    <g id="xtick_14">
     <g id="line2d_14"/>
    </g>
    <g id="xtick_15">
     <g id="line2d_15"/>
    </g>
    <g id="xtick_16">
     <g id="line2d_16"/>
    </g>
    <g id="xtick_17">
     <g id="line2d_17"/>
    </g>
    <g id="xtick_18">
     <g id="line2d_18"/>
    </g>
    <g id="xtick_19">
     <g id="line2d_19"/>
    </g>
    <g id="xtick_20">
     <g id="line2d_20"/>
    </g>
    <g id="xtick_21">
     <g id="line2d_21"/>
    </g>
    <g id="xtick_22">
     <g id="line2d_22"/>
    </g>
    <g id="xtick_23">
     <g id="line2d_23"/>
    </g>
    <g id="xtick_24">
     <g id="line2d_24"/>
    </g>
    <g id="xtick_25">
     <g id="line2d_25"/>
    </g>
    <g id="xtick_26">
     <g id="line2d_26"/>
    </g>
    <g id="xtick_27">
     <g id="line2d_27"/>
    </g>
    <g id="xtick_28">
     <g id="line2d_28"/>
    </g>
    <g id="xtick_29">
     <g id="line2d_29"/>
    </g>
    <g id="xtick_30">
     <g id="line2d_30"/>
    </g>
   </g>
   <g id="matplotlib.axis_2"/>
   <g id="patch_6">
    <path d="M 1.44 98.46
L 71.19 98.46
" style="fill: none; stroke: #cccccc; stroke-width: 0.55; stroke-linejoin: miter; stroke-linecap: square"/>
   </g>
   <g id="text_1">
    <!-- ~5000x -->
    <g style="fill: #ffffff" transform="translate(46.307374 22.167156) scale(0.052 -0.052)">
     <defs>
      <path id="Helvetica-7e" d="M 1028 2163
Q 1119 2163 1219 2147
Q 1397 2122 1563 2056
L 2256 1784
Q 2416 1722 2519 1691
Q 2684 1644 2809 1644
Q 3038 1644 3197 1823
Q 3356 2003 3413 2266
L 3775 2266
Q 3697 1822 3467 1456
Q 3238 1091 2772 1091
Q 2631 1091 2438 1147
Q 2325 1181 2103 1266
L 1466 1509
Q 1347 1556 1220 1581
Q 1094 1606 1013 1606
Q 750 1606 600 1403
Q 513 1284 422 1000
L 56 1000
Q 109 1259 171 1442
Q 234 1625 391 1856
Q 522 2013 673 2088
Q 825 2163 1028 2163
z
" transform="scale(0.015625)"/>
      <path id="Helvetica-35" d="M 791 1141
Q 847 659 1238 475
Q 1438 381 1700 381
Q 2200 381 2440 700
Q 2681 1019 2681 1406
Q 2681 1875 2395 2131
Q 2109 2388 1709 2388
Q 1419 2388 1211 2275
Q 1003 2163 856 1963
L 369 1991
L 709 4400
L 3034 4400
L 3034 3856
L 1131 3856
L 941 2613
Q 1097 2731 1238 2791
Q 1488 2894 1816 2894
Q 2431 2894 2859 2497
Q 3288 2100 3288 1491
Q 3288 856 2895 371
Q 2503 -113 1644 -113
Q 1097 -113 676 195
Q 256 503 206 1141
L 791 1141
z
" transform="scale(0.015625)"/>
      <path id="Helvetica-30" d="M 1731 4475
Q 2600 4475 2988 3759
Q 3288 3206 3288 2244
Q 3288 1331 3016 734
Q 2622 -122 1728 -122
Q 922 -122 528 578
Q 200 1163 200 2147
Q 200 2909 397 3456
Q 766 4475 1731 4475
z
M 1725 391
Q 2163 391 2422 778
Q 2681 1166 2681 2222
Q 2681 2984 2493 3476
Q 2306 3969 1766 3969
Q 1269 3969 1039 3501
Q 809 3034 809 2125
Q 809 1441 956 1025
Q 1181 391 1725 391
z
" transform="scale(0.015625)"/>
      <path id="Helvetica-78" d="M 94 3347
L 822 3347
L 1591 2169
L 2369 3347
L 3053 3331
L 1925 1716
L 3103 0
L 2384 0
L 1553 1256
L 747 0
L 34 0
L 1213 1716
L 94 3347
z
" transform="scale(0.015625)"/>
     </defs>
     <use xlink:href="#Helvetica-7e"/>
     <use xlink:href="#Helvetica-35" transform="translate(58.398438 0)"/>
     <use xlink:href="#Helvetica-30" transform="translate(114.013672 0)"/>
     <use xlink:href="#Helvetica-30" transform="translate(169.628906 0)"/>
     <use xlink:href="#Helvetica-30" transform="translate(225.244141 0)"/>
     <use xlink:href="#Helvetica-78" transform="translate(280.859375 0)"/>
    </g>
   </g>
   <g id="text_2">
    <!-- Raw -->
    <g style="fill: #ffffff" transform="translate(18.653535 54.507156) scale(0.052 -0.052)">
     <defs>
      <path id="Helvetica-52" d="M 2622 2488
Q 3059 2488 3314 2663
Q 3569 2838 3569 3294
Q 3569 3784 3213 3963
Q 3022 4056 2703 4056
L 1184 4056
L 1184 2488
L 2622 2488
z
M 563 4591
L 2688 4591
Q 3213 4591 3553 4438
Q 4200 4144 4200 3353
Q 4200 2941 4029 2678
Q 3859 2416 3553 2256
Q 3822 2147 3958 1969
Q 4094 1791 4109 1391
L 4131 775
Q 4141 513 4175 384
Q 4231 166 4375 103
L 4375 0
L 3613 0
Q 3581 59 3562 153
Q 3544 247 3531 516
L 3494 1281
Q 3472 1731 3159 1884
Q 2981 1969 2600 1969
L 1184 1969
L 1184 0
L 563 0
L 563 4591
z
" transform="scale(0.015625)"/>
      <path id="Helvetica-61" d="M 844 891
Q 844 647 1022 506
Q 1200 366 1444 366
Q 1741 366 2019 503
Q 2488 731 2488 1250
L 2488 1703
Q 2384 1638 2221 1594
Q 2059 1550 1903 1531
L 1563 1488
Q 1256 1447 1103 1359
Q 844 1213 844 891
z
M 2206 2028
Q 2400 2053 2466 2191
Q 2503 2266 2503 2406
Q 2503 2694 2298 2823
Q 2094 2953 1713 2953
Q 1272 2953 1088 2716
Q 984 2584 953 2325
L 428 2325
Q 444 2944 830 3186
Q 1216 3428 1725 3428
Q 2316 3428 2684 3203
Q 3050 2978 3050 2503
L 3050 575
Q 3050 488 3086 434
Q 3122 381 3238 381
Q 3275 381 3322 386
Q 3369 391 3422 400
L 3422 -16
Q 3291 -53 3222 -62
Q 3153 -72 3034 -72
Q 2744 -72 2613 134
Q 2544 244 2516 444
Q 2344 219 2022 53
Q 1700 -113 1313 -113
Q 847 -113 551 170
Q 256 453 256 878
Q 256 1344 547 1600
Q 838 1856 1309 1916
L 2206 2028
z
M 1741 3428
L 1741 3428
z
" transform="scale(0.015625)"/>
      <path id="Helvetica-77" d="M 672 3347
L 1316 709
L 1969 3347
L 2600 3347
L 3256 725
L 3941 3347
L 4503 3347
L 3531 0
L 2947 0
L 2266 2591
L 1606 0
L 1022 0
L 56 3347
L 672 3347
z
" transform="scale(0.015625)"/>
     </defs>
     <use xlink:href="#Helvetica-52"/>
     <use xlink:href="#Helvetica-61" transform="translate(72.216797 0)"/>
     <use xlink:href="#Helvetica-77" transform="translate(127.832031 0)"/>
    </g>
   </g>
   <g id="text_3">
    <!-- Summary -->
    <g style="fill: #333333" transform="translate(13.370207 86.8825) scale(0.052 -0.052)">
     <defs>
      <path id="Helvetica-53" d="M 894 1481
Q 916 1091 1078 847
Q 1388 391 2169 391
Q 2519 391 2806 491
Q 3363 684 3363 1184
Q 3363 1559 3128 1719
Q 2891 1875 2384 1991
L 1763 2131
Q 1153 2269 900 2434
Q 463 2722 463 3294
Q 463 3913 891 4309
Q 1319 4706 2103 4706
Q 2825 4706 3329 4357
Q 3834 4009 3834 3244
L 3250 3244
Q 3203 3613 3050 3809
Q 2766 4169 2084 4169
Q 1534 4169 1293 3937
Q 1053 3706 1053 3400
Q 1053 3063 1334 2906
Q 1519 2806 2169 2656
L 2813 2509
Q 3278 2403 3531 2219
Q 3969 1897 3969 1284
Q 3969 522 3414 194
Q 2859 -134 2125 -134
Q 1269 -134 784 303
Q 300 738 309 1481
L 894 1481
z
M 2150 4716
L 2150 4716
z
" transform="scale(0.015625)"/>
      <path id="Helvetica-75" d="M 975 3347
L 975 1125
Q 975 869 1056 706
Q 1206 406 1616 406
Q 2203 406 2416 931
Q 2531 1213 2531 1703
L 2531 3347
L 3094 3347
L 3094 0
L 2563 0
L 2569 494
Q 2459 303 2297 172
Q 1975 -91 1516 -91
Q 800 -91 541 388
Q 400 644 400 1072
L 400 3347
L 975 3347
z
M 1747 3428
L 1747 3428
z
" transform="scale(0.015625)"/>
      <path id="Helvetica-6d" d="M 413 3347
L 969 3347
L 969 2872
Q 1169 3119 1331 3231
Q 1609 3422 1963 3422
Q 2363 3422 2606 3225
Q 2744 3113 2856 2894
Q 3044 3163 3297 3292
Q 3550 3422 3866 3422
Q 4541 3422 4784 2934
Q 4916 2672 4916 2228
L 4916 0
L 4331 0
L 4331 2325
Q 4331 2659 4164 2784
Q 3997 2909 3756 2909
Q 3425 2909 3186 2687
Q 2947 2466 2947 1947
L 2947 0
L 2375 0
L 2375 2184
Q 2375 2525 2294 2681
Q 2166 2916 1816 2916
Q 1497 2916 1236 2669
Q 975 2422 975 1775
L 975 0
L 413 0
L 413 3347
z
" transform="scale(0.015625)"/>
      <path id="Helvetica-72" d="M 428 3347
L 963 3347
L 963 2769
Q 1028 2938 1284 3180
Q 1541 3422 1875 3422
Q 1891 3422 1928 3419
Q 1966 3416 2056 3406
L 2056 2813
Q 2006 2822 1964 2825
Q 1922 2828 1872 2828
Q 1447 2828 1219 2554
Q 991 2281 991 1925
L 991 0
L 428 0
L 428 3347
z
" transform="scale(0.015625)"/>
      <path id="Helvetica-79" d="M 2503 3347
L 3125 3347
Q 3006 3025 2597 1878
Q 2291 1016 2084 472
Q 1597 -809 1397 -1090
Q 1197 -1372 709 -1372
Q 591 -1372 527 -1362
Q 463 -1353 369 -1328
L 369 -816
Q 516 -856 581 -865
Q 647 -875 697 -875
Q 853 -875 926 -823
Q 1000 -772 1050 -697
Q 1066 -672 1162 -440
Q 1259 -209 1303 -97
L 66 3347
L 703 3347
L 1600 622
L 2503 3347
z
M 1597 3428
L 1597 3428
z
" transform="scale(0.015625)"/>
     </defs>
     <use xlink:href="#Helvetica-53"/>
     <use xlink:href="#Helvetica-75" transform="translate(66.699219 0)"/>
     <use xlink:href="#Helvetica-6d" transform="translate(122.314453 0)"/>
     <use xlink:href="#Helvetica-6d" transform="translate(205.615234 0)"/>
     <use xlink:href="#Helvetica-61" transform="translate(288.916016 0)"/>
     <use xlink:href="#Helvetica-72" transform="translate(344.53125 0)"/>
     <use xlink:href="#Helvetica-79" transform="translate(377.832031 0)"/>
    </g>
   </g>
   <g id="text_4">
    <!-- log scale -->
    <g style="fill: #777777" transform="translate(55.798406 95.009925) scale(0.039 -0.039)">
     <defs>
      <path id="Helvetica-6c" d="M 428 4591
L 991 4591
L 991 0
L 428 0
L 428 4591
z
" transform="scale(0.015625)"/>
      <path id="Helvetica-6f" d="M 1741 363
Q 2300 363 2508 786
Q 2716 1209 2716 1728
Q 2716 2197 2566 2491
Q 2328 2953 1747 2953
Q 1231 2953 997 2559
Q 763 2166 763 1609
Q 763 1075 997 719
Q 1231 363 1741 363
z
M 1763 3444
Q 2409 3444 2856 3012
Q 3303 2581 3303 1744
Q 3303 934 2909 406
Q 2516 -122 1688 -122
Q 997 -122 590 345
Q 184 813 184 1600
Q 184 2444 612 2944
Q 1041 3444 1763 3444
z
M 1744 3428
L 1744 3428
z
" transform="scale(0.015625)"/>
      <path id="Helvetica-67" d="M 1594 3406
Q 1988 3406 2281 3213
Q 2441 3103 2606 2894
L 2606 3316
L 3125 3316
L 3125 272
Q 3125 -366 2938 -734
Q 2588 -1416 1616 -1416
Q 1075 -1416 706 -1173
Q 338 -931 294 -416
L 866 -416
Q 906 -641 1028 -763
Q 1219 -950 1628 -950
Q 2275 -950 2475 -494
Q 2594 -225 2584 466
Q 2416 209 2178 84
Q 1941 -41 1550 -41
Q 1006 -41 598 345
Q 191 731 191 1622
Q 191 2463 602 2934
Q 1013 3406 1594 3406
z
M 2606 1688
Q 2606 2309 2350 2609
Q 2094 2909 1697 2909
Q 1103 2909 884 2353
Q 769 2056 769 1575
Q 769 1009 998 714
Q 1228 419 1616 419
Q 2222 419 2469 966
Q 2606 1275 2606 1688
z
M 1659 3428
L 1659 3428
z
" transform="scale(0.015625)"/>
      <path id="Helvetica-20" transform="scale(0.015625)"/>
      <path id="Helvetica-73" d="M 747 1050
Q 772 769 888 619
Q 1100 347 1625 347
Q 1938 347 2175 483
Q 2413 619 2413 903
Q 2413 1119 2222 1231
Q 2100 1300 1741 1391
L 1294 1503
Q 866 1609 663 1741
Q 300 1969 300 2372
Q 300 2847 642 3140
Q 984 3434 1563 3434
Q 2319 3434 2653 2991
Q 2863 2709 2856 2384
L 2325 2384
Q 2309 2575 2191 2731
Q 1997 2953 1519 2953
Q 1200 2953 1036 2831
Q 872 2709 872 2509
Q 872 2291 1088 2159
Q 1213 2081 1456 2022
L 1828 1931
Q 2434 1784 2641 1647
Q 2969 1431 2969 969
Q 2969 522 2630 197
Q 2291 -128 1597 -128
Q 850 -128 539 211
Q 228 550 206 1050
L 747 1050
z
M 1578 3428
L 1578 3428
z
" transform="scale(0.015625)"/>
      <path id="Helvetica-63" d="M 1703 3444
Q 2269 3444 2623 3169
Q 2978 2894 3050 2222
L 2503 2222
Q 2453 2531 2275 2736
Q 2097 2941 1703 2941
Q 1166 2941 934 2416
Q 784 2075 784 1575
Q 784 1072 996 728
Q 1209 384 1666 384
Q 2016 384 2220 598
Q 2425 813 2503 1184
L 3050 1184
Q 2956 519 2581 211
Q 2206 -97 1622 -97
Q 966 -97 575 383
Q 184 863 184 1581
Q 184 2463 612 2953
Q 1041 3444 1703 3444
z
M 1616 3428
L 1616 3428
z
" transform="scale(0.015625)"/>
      <path id="Helvetica-65" d="M 1806 3422
Q 2163 3422 2497 3255
Q 2831 3088 3006 2822
Q 3175 2569 3231 2231
Q 3281 2000 3281 1494
L 828 1494
Q 844 984 1069 676
Q 1294 369 1766 369
Q 2206 369 2469 659
Q 2619 828 2681 1050
L 3234 1050
Q 3213 866 3089 639
Q 2966 413 2813 269
Q 2556 19 2178 -69
Q 1975 -119 1719 -119
Q 1094 -119 659 336
Q 225 791 225 1609
Q 225 2416 662 2919
Q 1100 3422 1806 3422
z
M 2703 1941
Q 2669 2306 2544 2525
Q 2313 2931 1772 2931
Q 1384 2931 1121 2651
Q 859 2372 844 1941
L 2703 1941
z
M 1753 3428
L 1753 3428
z
" transform="scale(0.015625)"/>
     </defs>
     <use xlink:href="#Helvetica-6c"/>
     <use xlink:href="#Helvetica-6f" transform="translate(22.216797 0)"/>
     <use xlink:href="#Helvetica-67" transform="translate(77.832031 0)"/>
     <use xlink:href="#Helvetica-20" transform="translate(133.447266 0)"/>
     <use xlink:href="#Helvetica-73" transform="translate(161.230469 0)"/>
     <use xlink:href="#Helvetica-63" transform="translate(211.230469 0)"/>
     <use xlink:href="#Helvetica-61" transform="translate(261.230469 0)"/>
     <use xlink:href="#Helvetica-6c" transform="translate(316.845703 0)"/>
     <use xlink:href="#Helvetica-65" transform="translate(339.0625 0)"/>
    </g>
   </g>
  </g>
 </g>
 <defs>
  <clipPath id="p879ee31a35">
   <rect x="1.44" y="1.44" width="69.75" height="97.02"/>
  </clipPath>
 </defs>
</svg>
