<?xml version="1.0" encoding="UTF-8" standalone="no"?>
<!-- Created with Inkscape (http://www.inkscape.org/) -->

<svg
   version="1.1"
   id="svg1"
   width="668.97601"
   height="272.12534"
   viewBox="0 0 668.97601 272.12534"
   xmlns="http://www.w3.org/2000/svg"
   xmlns:svg="http://www.w3.org/2000/svg">
  <defs
     id="defs1" />
  <g
     id="g1">
    <path
       id="path1"
       d="M 0,0 V 37.70094 C 43.52724,35.41971 43.52724,2.28123 0,0 Z"
       style="fill:#e9feca;fill-opacity:1;fill-rule:nonzero;stroke:#000000;stroke-width:0.99628;stroke-linecap:butt;stroke-linejoin:round;stroke-miterlimit:10;stroke-dasharray:none;stroke-opacity:1"
       transform="matrix(1.3333333,0,0,-1.3333333,75.590667,94.488)" />
    <path
       id="path2"
       d="m 39.204,18.85086 c 0,1.92581 -1.56116,3.48697 -3.48697,3.48697 -1.92582,0 -3.48697,-1.56116 -3.48697,-3.48697 0,-1.92583 1.56115,-3.48697 3.48697,-3.48697 1.92581,0 3.48697,1.56114 3.48697,3.48697 z"
       style="fill:#ffffff;fill-opacity:1;fill-rule:nonzero;stroke:#000000;stroke-width:1.49442;stroke-linecap:butt;stroke-linejoin:round;stroke-miterlimit:10;stroke-dasharray:none;stroke-opacity:1"
       transform="matrix(1.3333333,0,0,-1.3333333,75.590667,94.488)" />
    <path
       id="path3"
       d="m 0,-99.21382 v 37.70096 c 43.52724,-2.28125 43.52724,-35.41973 0,-37.70096"
       style="fill:#e9feca;fill-opacity:1;fill-rule:nonzero;stroke:#000000;stroke-width:0.99628;stroke-linecap:butt;stroke-linejoin:round;stroke-miterlimit:10;stroke-dasharray:none;stroke-opacity:1"
       transform="matrix(1.3333333,0,0,-1.3333333,75.590667,94.488)" />
    <path
       id="path4"
       d="m 39.204,-80.36296 c 0,1.92583 -1.56116,3.48697 -3.48697,3.48697 -1.92582,0 -3.48697,-1.56114 -3.48697,-3.48697 0,-1.92581 1.56115,-3.48697 3.48697,-3.48697 1.92581,0 3.48697,1.56116 3.48697,3.48697 z"
       style="fill:#ffffff;fill-opacity:1;fill-rule:nonzero;stroke:#000000;stroke-width:1.49442;stroke-linecap:butt;stroke-linejoin:round;stroke-miterlimit:10;stroke-dasharray:none;stroke-opacity:1"
       transform="matrix(1.3333333,0,0,-1.3333333,75.590667,94.488)" />
    <path
       id="path5"
       d="m 198.42766,-49.6069 v 37.70094 c 43.52725,-2.28124 43.52725,-35.41971 0,-37.70094"
       style="fill:#e9feca;fill-opacity:1;fill-rule:nonzero;stroke:#000000;stroke-width:0.99628;stroke-linecap:butt;stroke-linejoin:round;stroke-miterlimit:10;stroke-dasharray:none;stroke-opacity:1"
       transform="matrix(1.3333333,0,0,-1.3333333,75.590667,94.488)" />
    <path
       id="path6"
       d="m 237.63167,-30.75604 c 0,1.92581 -1.56116,3.48697 -3.48697,3.48697 -1.92583,0 -3.48697,-1.56116 -3.48697,-3.48697 0,-1.92581 1.56114,-3.48697 3.48697,-3.48697 1.92581,0 3.48697,1.56116 3.48697,3.48697 z"
       style="fill:#ffffff;fill-opacity:1;fill-rule:nonzero;stroke:#000000;stroke-width:1.49442;stroke-linecap:butt;stroke-linejoin:round;stroke-miterlimit:10;stroke-dasharray:none;stroke-opacity:1"
       transform="matrix(1.3333333,0,0,-1.3333333,75.590667,94.488)" />
    <path
       id="path7"
       d="m 347.2484,-99.21382 v 37.70096 c 43.52725,-2.28125 43.52725,-35.41973 0,-37.70096"
       style="fill:#e9feca;fill-opacity:1;fill-rule:nonzero;stroke:#000000;stroke-width:0.99628;stroke-linecap:butt;stroke-linejoin:round;stroke-miterlimit:10;stroke-dasharray:none;stroke-opacity:1"
       transform="matrix(1.3333333,0,0,-1.3333333,75.590667,94.488)" />
    <path
       id="path8"
       d="m 386.45241,-80.36296 c 0,1.92583 -1.56116,3.48697 -3.48697,3.48697 -1.92583,0 -3.48697,-1.56114 -3.48697,-3.48697 0,-1.92581 1.56114,-3.48697 3.48697,-3.48697 1.92581,0 3.48697,1.56116 3.48697,3.48697 z"
       style="fill:#ffffff;fill-opacity:1;fill-rule:nonzero;stroke:#000000;stroke-width:1.49442;stroke-linecap:butt;stroke-linejoin:round;stroke-miterlimit:10;stroke-dasharray:none;stroke-opacity:1"
       transform="matrix(1.3333333,0,0,-1.3333333,75.590667,94.488)" />
    <path
       id="path9"
       d="m 39.68565,-80.36296 h 85.04044 v -9.922 H 347.2484"
       style="fill:none;stroke:#808080;stroke-width:0.99628;stroke-linecap:butt;stroke-linejoin:round;stroke-miterlimit:10;stroke-dasharray:none;stroke-opacity:1"
       transform="matrix(1.3333333,0,0,-1.3333333,75.590667,94.488)" />
    <path
       id="path10"
       d="m 5.3449687,-4.6166016 c -0.011719,-1.2773437 -0.890625,-2.0273437 -2.390625,-2.0273437 -1.4414062,0 -2.32031245,0.7382812 -2.32031245,1.921875 0,0.796875 0.42187495,1.3007812 1.27734375,1.5234375 l 1.6171875,0.4335937 c 0.8320312,0.2109375 1.2070312,0.5390625 1.2070312,1.0546875 0,0.3515625 -0.1875,0.703125 -0.46875,0.90234379 -0.2578125,0.17578125 -0.6679687,0.28125 -1.1953125,0.28125 -0.7148437,0 -1.1953125,-0.17578125 -1.5117187,-0.55078129 C 1.3137187,-1.3587891 1.20825,-1.6751953 1.2199687,-2.0736328 H 0.4348125 c 0,0.5976562 0.1171875,0.984375 0.38671875,1.34765624 0.44531245,0.609375 1.19531245,0.9375 2.19140625,0.9375 0.7851562,0 1.4179687,-0.1875 1.8398437,-0.50390625 0.4335938,-0.3515625 0.7148438,-0.93749999 0.7148438,-1.49999999 0,-0.8085938 -0.5039063,-1.3945313 -1.3945313,-1.640625 l -1.640625,-0.4335938 c -0.7851562,-0.2226562 -1.0664062,-0.46875 -1.0664062,-0.9726562 0,-0.6679688 0.5742187,-1.1015625 1.453125,-1.1015625 1.0429687,0 1.6289062,0.46875 1.640625,1.3242187 z m 4.8896483,2.6484375 0.667969,1.9687500375 h 0.9375 L 9.5432109,-6.5384766 H 8.4650859 L 6.1330547,5.859375e-4 h 0.890625 L 7.7150859,-1.9681641 Z M 10.000242,-2.6595703 H 7.9143047 l 1.078125,-2.9765625 z m 4.420899,-3.6914063 c -0.585938,0 -1.125,0.2578125 -1.453125,0.6914063 -0.421875,0.5625 -0.621094,1.40625 -0.621094,2.5898437 0,2.13281254 0.714844,3.28125004 2.074219,3.28125004 1.347656,0 2.085937,-1.1484375 2.085937,-3.23437504 0,-1.2304687 -0.199219,-2.0625 -0.621094,-2.6367187 -0.328125,-0.4453125 -0.855468,-0.6914063 -1.464843,-0.6914063 z m 0,0.6914063 c 0.855468,0 1.277343,0.8671875 1.277343,2.5664062 0,1.8046875 -0.410156,2.64843754 -1.289062,2.64843754 -0.832031,0 -1.253906,-0.87890624 -1.253906,-2.62500004 0,-1.734375 0.421875,-2.5898437 1.265625,-2.5898437 z m 0,0"
       style="fill:#000000;fill-opacity:1;fill-rule:nonzero;stroke:none"
       aria-label="SA0"
       transform="matrix(1.3333333,0,0,1.3333333,138.264,196.3)" />
    <path
       id="path11"
       d="m 5.3425156,-4.6166016 c -0.011719,-1.2773437 -0.890625,-2.0273437 -2.390625,-2.0273437 -1.4414062,0 -2.32031248,0.7382812 -2.32031248,1.921875 0,0.796875 0.42187498,1.3007812 1.27734378,1.5234375 l 1.6171875,0.4335937 c 0.8320312,0.2109375 1.2070312,0.5390625 1.2070312,1.0546875 0,0.3515625 -0.1875,0.703125 -0.46875,0.90234379 -0.2578125,0.17578125 -0.6679687,0.28125 -1.1953125,0.28125 -0.7148437,0 -1.1953125,-0.17578125 -1.5117187,-0.55078129 -0.2460938,-0.28125 -0.3515625,-0.5976562 -0.3398438,-0.9960937 H 0.43235937 c 0,0.5976562 0.1171875,0.984375 0.38671875,1.34765624 0.44531248,0.609375 1.19531248,0.9375 2.19140628,0.9375 0.7851562,0 1.4179687,-0.1875 1.8398437,-0.50390625 0.4335938,-0.3515625 0.7148438,-0.93749999 0.7148438,-1.49999999 0,-0.8085938 -0.5039063,-1.3945313 -1.3945313,-1.640625 l -1.640625,-0.4335938 c -0.7851562,-0.2226562 -1.0664062,-0.46875 -1.0664062,-0.9726562 0,-0.6679688 0.5742187,-1.1015625 1.453125,-1.1015625 1.0429687,0 1.6289062,0.46875 1.640625,1.3242187 z m 4.8925784,2.6484375 0.667968,1.9687500375 h 0.9375 L 9.5436875,-6.5384766 H 8.4655625 L 6.1335312,5.859375e-4 h 0.890625 L 7.7155625,-1.9681641 Z M 10.000719,-2.6595703 H 7.9147812 l 1.078125,-2.9765625 z m 4.280273,-1.8632813 V 5.859375e-4 h 0.785156 V -6.3509766 h -0.515625 c -0.28125,0.9726563 -0.457031,1.1015625 -1.675781,1.2539063 v 0.5742187 z m 0,0"
       style="fill:#000000;fill-opacity:1;fill-rule:nonzero;stroke:none"
       aria-label="SA1"
       transform="matrix(1.3333333,0,0,1.3333333,164.18133,196.3)" />
    <path
       id="path12"
       d="m 5.3431563,-4.6176875 c -0.011719,-1.2773437 -0.890625,-2.0273437 -2.390625,-2.0273437 -1.4414063,0 -2.32031255,0.7382812 -2.32031255,1.921875 0,0.796875 0.42187505,1.3007812 1.27734375,1.5234375 L 3.52675,-2.766125 c 0.8320313,0.2109375 1.2070313,0.5390625 1.2070313,1.0546875 0,0.3515625 -0.1875,0.703125 -0.46875,0.90234375 -0.2578125,0.17578125 -0.6679688,0.28125 -1.1953125,0.28125 C 2.354875,-0.52784375 1.8744063,-0.703625 1.558,-1.078625 1.3119063,-1.359875 1.2064375,-1.6762812 1.2181563,-2.0747187 H 0.433 c 0,0.5976562 0.1171875,0.984375 0.38671875,1.3476562 0.44531255,0.609375 1.19531255,0.9375 2.19140625,0.9375 0.7851563,0 1.4179688,-0.1875 1.8398438,-0.50390625 0.4335937,-0.3515625 0.7148437,-0.93749995 0.7148437,-1.49999995 0,-0.8085938 -0.5039062,-1.3945313 -1.3945312,-1.640625 L 2.5306563,-3.8676875 C 1.7455,-4.0903437 1.46425,-4.3364375 1.46425,-4.8403437 c 0,-0.6679688 0.5742188,-1.1015625 1.453125,-1.1015625 1.0429688,0 1.6289063,0.46875 1.640625,1.3242187 z M 10.235734,-1.96925 10.903703,-5e-4 h 0.9375 L 9.5443281,-6.5395625 H 8.4662031 L 6.1341719,-5e-4 h 0.890625 L 7.7162031,-1.96925 Z M 10.001359,-2.6606562 H 7.9154219 l 1.078125,-2.9765625 z m 4.420899,-3.6914063 c -0.585938,0 -1.125,0.2578125 -1.453125,0.6914063 -0.421875,0.5625 -0.621094,1.40625 -0.621094,2.5898437 0,2.1328125 0.714844,3.28125 2.074219,3.28125 1.347656,0 2.085937,-1.1484375 2.085937,-3.234375 0,-1.2304687 -0.199218,-2.0625 -0.621093,-2.6367187 -0.328125,-0.4453125 -0.855469,-0.6914063 -1.464844,-0.6914063 z m 0,0.6914063 c 0.855469,0 1.277344,0.8671875 1.277344,2.5664062 0,1.8046875 -0.410157,2.6484375 -1.289063,2.6484375 -0.832031,0 -1.253906,-0.8789062 -1.253906,-2.625 0,-1.734375 0.421875,-2.5898437 1.265625,-2.5898437 z m 0,0"
       style="fill:#000000;fill-opacity:1;fill-rule:nonzero;stroke:none"
       aria-label="SA0"
       transform="matrix(1.3333333,0,0,1.3333333,460.92267,228.75067)" />
    <path
       id="path13"
       d="m 5.3426328,-4.6176875 c -0.011719,-1.2773437 -0.890625,-2.0273437 -2.390625,-2.0273437 -1.4414062,0 -2.32031249,0.7382812 -2.32031249,1.921875 0,0.796875 0.42187499,1.3007812 1.27734379,1.5234375 l 1.6171875,0.4335937 c 0.8320312,0.2109375 1.2070312,0.5390625 1.2070312,1.0546875 0,0.3515625 -0.1875,0.703125 -0.46875,0.90234375 -0.2578125,0.17578125 -0.6679687,0.28125 -1.1953125,0.28125 -0.7148437,0 -1.1953125,-0.17578125 -1.5117187,-0.55078125 C 1.3113828,-1.359875 1.2059141,-1.6762812 1.2176328,-2.0747187 H 0.43247656 c 0,0.5976562 0.1171875,0.984375 0.38671875,1.3476562 0.44531249,0.609375 1.19531249,0.9375 2.19140629,0.9375 0.7851562,0 1.4179687,-0.1875 1.8398437,-0.50390625 0.4335938,-0.3515625 0.7148438,-0.93749995 0.7148438,-1.49999995 0,-0.8085938 -0.5039063,-1.3945313 -1.3945313,-1.640625 l -1.640625,-0.4335938 c -0.7851562,-0.2226562 -1.0664062,-0.46875 -1.0664062,-0.9726562 0,-0.6679688 0.5742187,-1.1015625 1.453125,-1.1015625 1.0429687,0 1.6289062,0.46875 1.640625,1.3242187 z M 10.235211,-1.96925 10.90318,-5e-4 h 0.9375 L 9.5438047,-6.5395625 H 8.4656797 L 6.1336484,-5e-4 h 0.890625 L 7.7156797,-1.96925 Z M 10.000836,-2.6606562 H 7.9148984 l 1.078125,-2.9765625 z m 4.280273,-1.8632813 V -5e-4 h 0.785157 v -6.3515625 h -0.515625 c -0.28125,0.9726563 -0.457032,1.1015625 -1.675782,1.2539063 v 0.5742187 z m 0,0"
       style="fill:#ff0000;fill-opacity:1;fill-rule:nonzero;stroke:none"
       aria-label="SA1"
       transform="matrix(1.3333333,0,0,1.3333333,486.84133,228.75067)" />
    <path
       id="path14"
       d="M 39.68565,18.85086 H 96.37927 V -20.83482 H 198.42766"
       style="fill:none;stroke:#808080;stroke-width:0.99628;stroke-linecap:butt;stroke-linejoin:round;stroke-miterlimit:10;stroke-dasharray:none;stroke-opacity:1"
       transform="matrix(1.3333333,0,0,-1.3333333,75.590667,94.488)" />
    <path
       id="path15"
       d="m 5.3439766,-4.6184687 c -0.011719,-1.2773438 -0.890625,-2.0273438 -2.390625,-2.0273438 -1.4414063,0 -2.32031254,0.7382813 -2.32031254,1.921875 0,0.796875 0.42187504,1.3007813 1.27734374,1.5234375 l 1.6171875,0.4335938 c 0.8320313,0.2109375 1.2070313,0.5390625 1.2070313,1.0546875 0,0.3515625 -0.1875,0.703125 -0.46875,0.9023437 -0.2578125,0.17578125 -0.6679688,0.28125 -1.1953125,0.28125 -0.7148438,0 -1.1953125,-0.17578125 -1.5117188,-0.5507812 C 1.3127266,-1.3606562 1.2072578,-1.6770625 1.2189766,-2.0755 H 0.43382031 c 0,0.5976563 0.1171875,0.984375 0.38671875,1.34765625 0.44531254,0.609375 1.19531254,0.9375 2.19140624,0.9375 0.7851563,0 1.4179688,-0.1875 1.8398438,-0.50390625 0.4335937,-0.3515625 0.7148437,-0.9375 0.7148437,-1.5 0,-0.8085937 -0.5039062,-1.3945312 -1.3945312,-1.640625 L 2.5314766,-3.8684687 C 1.7463203,-4.091125 1.4650703,-4.3372187 1.4650703,-4.841125 c 0,-0.6679687 0.5742188,-1.1015625 1.453125,-1.1015625 1.0429688,0 1.6289063,0.46875 1.640625,1.3242188 z m 4.8896484,2.6484375 0.667969,1.96874995 h 0.9375 L 9.5422188,-6.5403437 h -1.078125 l -2.3320313,6.53906245 h 0.890625 L 7.7140938,-1.9700312 Z M 9.99925,-2.6614375 H 7.9133125 L 8.9914375,-5.638 Z m 4.423828,-3.6914062 c -0.585937,0 -1.125,0.2578125 -1.453125,0.6914062 -0.421875,0.5625 -0.621094,1.40625 -0.621094,2.5898438 0,2.13281245 0.714844,3.28124995 2.074219,3.28124995 1.347656,0 2.085938,-1.1484375 2.085938,-3.23437495 0,-1.2304688 -0.199219,-2.0625 -0.621094,-2.6367188 -0.328125,-0.4453125 -0.855469,-0.6914062 -1.464844,-0.6914062 z m 0,0.6914062 c 0.855469,0 1.277344,0.8671875 1.277344,2.5664063 0,1.8046875 -0.410156,2.64843745 -1.289063,2.64843745 -0.832031,0 -1.253906,-0.87890625 -1.253906,-2.62499995 0,-1.734375 0.421875,-2.5898438 1.265625,-2.5898438 z m 0,0"
       style="fill:#000000;fill-opacity:1;fill-rule:nonzero;stroke:none"
       aria-label="SA0"
       transform="matrix(1.3333333,0,0,1.3333333,142.04267,64.017333)" />
    <path
       id="path16"
       d="m 5.3434531,-4.6184687 c -0.011719,-1.2773438 -0.890625,-2.0273438 -2.390625,-2.0273438 -1.4414062,0 -2.32031248,0.7382813 -2.32031248,1.921875 0,0.796875 0.42187498,1.3007813 1.27734378,1.5234375 l 1.6171875,0.4335938 c 0.8320312,0.2109375 1.2070312,0.5390625 1.2070312,1.0546875 0,0.3515625 -0.1875,0.703125 -0.46875,0.9023437 -0.2578125,0.17578125 -0.6679687,0.28125 -1.1953125,0.28125 -0.7148437,0 -1.1953125,-0.17578125 -1.5117187,-0.5507812 C 1.3122031,-1.3606562 1.2067344,-1.6770625 1.2184531,-2.0755 H 0.43329687 c 0,0.5976563 0.1171875,0.984375 0.38671875,1.34765625 0.44531248,0.609375 1.19531248,0.9375 2.19140628,0.9375 0.7851562,0 1.4179687,-0.1875 1.8398437,-0.50390625 0.4335938,-0.3515625 0.7148438,-0.9375 0.7148438,-1.5 0,-0.8085937 -0.5039063,-1.3945312 -1.3945313,-1.640625 L 2.5309531,-3.8684687 C 1.7457969,-4.091125 1.4645469,-4.3372187 1.4645469,-4.841125 c 0,-0.6679687 0.5742187,-1.1015625 1.453125,-1.1015625 1.0429687,0 1.6289062,0.46875 1.640625,1.3242188 z m 4.8896489,2.6484375 0.667968,1.96874995 h 0.9375 L 9.5416953,-6.5403437 h -1.078125 l -2.3320312,6.53906245 h 0.890625 L 7.7135703,-1.9700312 Z M 9.9987266,-2.6614375 H 7.9127891 L 8.9909141,-5.638 Z M 14.28193,-4.5247187 v 4.52343745 h 0.785156 V -6.3528437 h -0.515625 c -0.28125,0.9726562 -0.457031,1.1015625 -1.675781,1.2539062 v 0.5742188 z m 0,0"
       style="fill:#ff0000;fill-opacity:1;fill-rule:nonzero;stroke:none"
       aria-label="SA1"
       transform="matrix(1.3333333,0,0,1.3333333,167.96133,64.017333)" />
    <path
       id="path17"
       d="m 238.11333,-30.75604 h 28.3468 v -39.68569 h 80.78827"
       style="fill:none;stroke:#808080;stroke-width:0.99628;stroke-linecap:butt;stroke-linejoin:round;stroke-miterlimit:10;stroke-dasharray:none;stroke-opacity:1"
       transform="matrix(1.3333333,0,0,-1.3333333,75.590667,94.488)" />
    <path
       id="path18"
       d="m 5.3428438,-4.6160703 c -0.011719,-1.2773438 -0.890625,-2.0273438 -2.390625,-2.0273438 -1.4414063,0 -2.32031255,0.7382813 -2.32031255,1.921875 0,0.796875 0.42187505,1.3007813 1.27734375,1.5234375 l 1.6171875,0.4335938 c 0.8320313,0.2109375 1.2070313,0.5390625 1.2070313,1.0546875 0,0.3515625 -0.1875,0.703125 -0.46875,0.90234374 -0.2578125,0.17578125 -0.6679688,0.28125 -1.1953125,0.28125 -0.7148438,0 -1.1953125,-0.17578125 -1.5117188,-0.55078124 C 1.3115938,-1.3582578 1.206125,-1.6746641 1.2178438,-2.0731016 H 0.4326875 c 0,0.5976563 0.1171875,0.984375 0.38671875,1.34765629 0.44531255,0.609375 1.19531255,0.9375 2.19140625,0.9375 0.7851563,0 1.4179688,-0.1875 1.8398438,-0.50390625 C 5.28425,-0.64341406 5.5655,-1.2293516 5.5655,-1.7918516 c 0,-0.8085937 -0.5039062,-1.3945312 -1.3945312,-1.640625 l -1.640625,-0.4335937 c -0.7851563,-0.2226563 -1.0664063,-0.46875 -1.0664063,-0.9726563 0,-0.6679687 0.5742188,-1.1015625 1.453125,-1.1015625 1.0429688,0 1.6289063,0.46875 1.640625,1.3242188 z m 4.8925782,2.6484375 0.667969,1.96874999 h 0.9375 L 9.5440156,-6.5379453 H 8.4658906 L 6.1338594,0.00111719 h 0.890625 L 7.7158906,-1.9676328 Z M 10.001047,-2.6590391 H 7.9151094 l 1.078125,-2.9765625 z m 4.420898,-3.6914062 c -0.585937,0 -1.125,0.2578125 -1.453125,0.6914062 -0.421875,0.5625 -0.621093,1.40625 -0.621093,2.5898438 0,2.13281249 0.714843,3.28124999 2.074218,3.28124999 1.347657,0 2.085938,-1.1484375 2.085938,-3.23437499 0,-1.2304688 -0.199219,-2.0625 -0.621094,-2.6367188 -0.328125,-0.4453125 -0.855469,-0.6914062 -1.464844,-0.6914062 z m 0,0.6914062 c 0.855469,0 1.277344,0.8671875 1.277344,2.5664063 0,1.8046875 -0.410156,2.64843749 -1.289062,2.64843749 -0.832032,0 -1.253907,-0.87890629 -1.253907,-2.62499999 0,-1.734375 0.421875,-2.5898438 1.265625,-2.5898438 z m 0,0"
       style="fill:#000000;fill-opacity:1;fill-rule:nonzero;stroke:none"
       aria-label="SA0"
       transform="matrix(1.3333333,0,0,1.3333333,402.82933,130.15867)" />
    <path
       id="path19"
       d="m 5.3423203,-4.6160703 c -0.011719,-1.2773438 -0.890625,-2.0273438 -2.390625,-2.0273438 -1.4414062,0 -2.32031249,0.7382813 -2.32031249,1.921875 0,0.796875 0.42187499,1.3007813 1.27734379,1.5234375 l 1.6171875,0.4335938 c 0.8320312,0.2109375 1.2070312,0.5390625 1.2070312,1.0546875 0,0.3515625 -0.1875,0.703125 -0.46875,0.90234374 -0.2578125,0.17578125 -0.6679687,0.28125 -1.1953125,0.28125 -0.7148437,0 -1.1953125,-0.17578125 -1.5117187,-0.55078124 -0.2460938,-0.28125 -0.3515625,-0.5976563 -0.3398438,-0.9960938 H 0.43216406 c 0,0.5976563 0.1171875,0.984375 0.38671875,1.34765629 0.44531249,0.609375 1.19531249,0.9375 2.19140629,0.9375 0.7851562,0 1.4179687,-0.1875 1.8398437,-0.50390625 0.4335938,-0.3515625 0.7148438,-0.93750004 0.7148438,-1.50000004 0,-0.8085937 -0.5039063,-1.3945312 -1.3945313,-1.640625 l -1.640625,-0.4335937 c -0.7851562,-0.2226563 -1.0664062,-0.46875 -1.0664062,-0.9726563 0,-0.6679687 0.5742187,-1.1015625 1.453125,-1.1015625 1.0429687,0 1.6289062,0.46875 1.640625,1.3242188 z m 4.8925777,2.6484375 0.667969,1.96874999 h 0.9375 L 9.5434922,-6.5379453 H 8.4653672 L 6.1333359,0.00111719 h 0.890625 L 7.7153672,-1.9676328 Z M 10.000523,-2.6590391 H 7.9145859 l 1.078125,-2.9765625 z m 4.280274,-1.8632812 v 4.52343749 h 0.785156 V -6.3504453 h -0.515625 c -0.28125,0.9726562 -0.457031,1.1015625 -1.675781,1.2539062 v 0.5742188 z m 0,0"
       style="fill:#ff0000;fill-opacity:1;fill-rule:nonzero;stroke:none"
       aria-label="SA1"
       transform="matrix(1.3333333,0,0,1.3333333,428.748,130.15867)" />
    <path
       id="path20"
       d="M 198.42766,-40.67804 H 96.37898 V -80.36296 H 39.68565"
       style="fill:none;stroke:#808080;stroke-width:0.99628;stroke-linecap:butt;stroke-linejoin:round;stroke-miterlimit:10;stroke-dasharray:none;stroke-opacity:1"
       transform="matrix(1.3333333,0,0,-1.3333333,75.590667,94.488)" />
    <path
       id="path21"
       d="m 5.3442734,-4.6181484 c -0.011719,-1.2773438 -0.890625,-2.0273438 -2.390625,-2.0273438 -1.4414062,0 -2.32031246,0.7382813 -2.32031246,1.921875 0,0.796875 0.42187496,1.3007813 1.27734376,1.5234375 l 1.6171875,0.4335938 c 0.8320312,0.2109375 1.2070312,0.5390625 1.2070312,1.0546875 0,0.3515625 -0.1875,0.703125 -0.46875,0.90234371 -0.2578125,0.17578125 -0.6679687,0.28125 -1.1953125,0.28125 -0.7148437,0 -1.1953125,-0.17578125 -1.5117187,-0.55078121 -0.2460938,-0.28125 -0.3515625,-0.5976563 -0.3398438,-0.9960938 H 0.43411719 c 0,0.5976563 0.1171875,0.984375 0.38671875,1.34765626 0.44531246,0.609375 1.19531246,0.9375 2.19140626,0.9375 0.7851562,0 1.4179687,-0.1875 1.8398437,-0.50390625 0.4335938,-0.3515625 0.7148438,-0.93750001 0.7148438,-1.50000001 0,-0.8085937 -0.5039063,-1.3945312 -1.3945313,-1.640625 l -1.640625,-0.4335937 c -0.7851562,-0.2226563 -1.0664062,-0.46875 -1.0664062,-0.9726563 0,-0.6679687 0.5742187,-1.1015625 1.453125,-1.1015625 1.0429687,0 1.6289062,0.46875 1.640625,1.3242188 z m 4.8896486,2.6484375 0.667969,1.9687499625 h 0.9375 L 9.5425156,-6.5400234 H 8.4643906 L 6.1323594,-9.609375e-4 h 0.890625 L 7.7143906,-1.9697109 Z M 9.9995469,-2.6611172 H 7.9136094 l 1.078125,-2.9765625 z m 4.4238281,-3.6914062 c -0.585937,0 -1.125,0.2578125 -1.453125,0.6914062 -0.421875,0.5625 -0.621094,1.40625 -0.621094,2.5898438 0,2.13281246 0.714844,3.28124996 2.074219,3.28124996 1.347656,0 2.085938,-1.1484375 2.085938,-3.23437496 0,-1.2304688 -0.199219,-2.0625 -0.621094,-2.6367188 -0.328125,-0.4453125 -0.855469,-0.6914062 -1.464844,-0.6914062 z m 0,0.6914062 c 0.855469,0 1.277344,0.8671875 1.277344,2.5664063 0,1.8046875 -0.410156,2.64843746 -1.289063,2.64843746 -0.832031,0 -1.253906,-0.87890626 -1.253906,-2.62499996 0,-1.734375 0.421875,-2.5898438 1.265625,-2.5898438 z m 0,0"
       style="fill:#000000;fill-opacity:1;fill-rule:nonzero;stroke:none"
       aria-label="SA0"
       transform="matrix(1.3333333,0,0,1.3333333,275.08133,143.388)" />
    <path
       id="path22"
       d="M 5.34375,-4.6181484 C 5.332031,-5.8954922 4.453125,-6.6454922 2.953125,-6.6454922 c -1.4414063,0 -2.3203125,0.7382813 -2.3203125,1.921875 0,0.796875 0.421875,1.3007813 1.2773437,1.5234375 l 1.6171876,0.4335938 c 0.8320312,0.2109375 1.2070312,0.5390625 1.2070312,1.0546875 0,0.3515625 -0.1875,0.703125 -0.46875,0.90234371 -0.2578125,0.17578125 -0.6679687,0.28125 -1.1953125,0.28125 -0.7148437,0 -1.1953125,-0.17578125 -1.5117188,-0.55078121 C 1.3125,-1.3603359 1.2070312,-1.6767422 1.21875,-2.0751797 H 0.43359375 c 0,0.5976563 0.1171875,0.984375 0.38671875,1.34765626 0.4453125,0.609375 1.1953125,0.9375 2.1914063,0.9375 0.7851562,0 1.4179687,-0.1875 1.8398437,-0.50390625 0.4335937,-0.3515625 0.7148437,-0.93750001 0.7148437,-1.50000001 0,-0.8085937 -0.5039062,-1.3945312 -1.3945312,-1.640625 L 2.53125,-3.8681484 c -0.7851563,-0.2226563 -1.0664063,-0.46875 -1.0664063,-0.9726563 0,-0.6679687 0.5742188,-1.1015625 1.4531251,-1.1015625 1.0429687,0 1.6289062,0.46875 1.6406249,1.3242188 z m 4.889648,2.6484375 0.667969,1.9687499625 h 0.9375 L 9.5419922,-6.5400234 H 8.4638672 L 6.1318359,-9.609375e-4 h 0.890625 L 7.7138672,-1.9697109 Z M 9.9990234,-2.6611172 H 7.9130859 l 1.078125,-2.9765625 z m 4.2832036,-1.8632812 v 4.5234374625 h 0.785156 V -6.3525234 h -0.515625 c -0.28125,0.9726562 -0.457031,1.1015625 -1.675781,1.2539062 v 0.5742188 z m 0,0"
       style="fill:#ff0000;fill-opacity:1;fill-rule:nonzero;stroke:none"
       aria-label="SA1"
       transform="matrix(1.3333333,0,0,1.3333333,301,143.388)" />
    <path
       id="path23"
       d="M 0,28.77208 H -56.69362"
       style="fill:none;stroke:#808080;stroke-width:0.99628;stroke-linecap:butt;stroke-linejoin:round;stroke-miterlimit:10;stroke-dasharray:none;stroke-opacity:1"
       transform="matrix(1.3333333,0,0,-1.3333333,75.590667,94.488)" />
    <path
       id="path24"
       d="m 5.3440469,-4.6173906 c -0.011719,-1.2773438 -0.890625,-2.0273438 -2.390625,-2.0273438 -1.4414063,0 -2.32031252,0.7382813 -2.32031252,1.921875 0,0.796875 0.42187502,1.3007813 1.27734372,1.5234375 l 1.6171875,0.4335938 c 0.8320313,0.2109375 1.2070313,0.5390625 1.2070313,1.0546875 0,0.3515625 -0.1875,0.703125 -0.46875,0.90234373 -0.2578125,0.17578125 -0.6679688,0.28125 -1.1953125,0.28125 -0.7148438,0 -1.1953125,-0.17578125 -1.5117188,-0.55078123 -0.2460937,-0.28125 -0.3515625,-0.5976563 -0.3398437,-0.9960938 H 0.43389063 c 0,0.5976563 0.1171875,0.984375 0.38671875,1.34765628 0.44531252,0.609375 1.19531252,0.9375 2.19140622,0.9375 0.7851563,0 1.4179688,-0.1875 1.8398438,-0.50390625 0.4335937,-0.3515625 0.7148437,-0.93750003 0.7148437,-1.50000003 0,-0.8085937 -0.5039062,-1.3945312 -1.3945312,-1.640625 l -1.640625,-0.4335937 c -0.7851563,-0.2226563 -1.0664063,-0.46875 -1.0664063,-0.9726563 0,-0.6679687 0.5742188,-1.1015625 1.453125,-1.1015625 1.0429688,0 1.6289063,0.46875 1.640625,1.3242188 z m 4.8896481,2.6484375 0.667969,1.968749975 h 0.9375 L 9.5422891,-6.5392656 H 8.4641641 L 6.1321328,-2.03125e-4 h 0.890625 L 7.7141641,-1.9689531 Z M 9.9993203,-2.6603594 H 7.9133828 l 1.078125,-2.9765625 z m 4.4238277,-3.6914062 c -0.585937,0 -1.125,0.2578125 -1.453125,0.6914062 -0.421875,0.5625 -0.621093,1.40625 -0.621093,2.5898438 0,2.13281248 0.714843,3.28124998 2.074218,3.28124998 1.347657,0 2.085938,-1.1484375 2.085938,-3.23437498 0,-1.2304688 -0.199219,-2.0625 -0.621094,-2.6367188 -0.328125,-0.4453125 -0.855469,-0.6914062 -1.464844,-0.6914062 z m 0,0.6914062 c 0.855469,0 1.277344,0.8671875 1.277344,2.5664063 0,1.8046875 -0.410156,2.64843748 -1.289062,2.64843748 -0.832032,0 -1.253907,-0.87890628 -1.253907,-2.62499998 0,-1.734375 0.421875,-2.5898438 1.265625,-2.5898438 z m 0,0"
       style="fill:#000000;fill-opacity:1;fill-rule:nonzero;stroke:none"
       aria-label="SA0"
       transform="matrix(1.3333333,0,0,1.3333333,13.538667,50.789333)" />
    <path
       id="path25"
       d="m 5.3435234,-4.6173906 c -0.011719,-1.2773438 -0.890625,-2.0273438 -2.390625,-2.0273438 -1.4414062,0 -2.32031246,0.7382813 -2.32031246,1.921875 0,0.796875 0.42187496,1.3007813 1.27734376,1.5234375 l 1.6171875,0.4335938 c 0.8320312,0.2109375 1.2070312,0.5390625 1.2070312,1.0546875 0,0.3515625 -0.1875,0.703125 -0.46875,0.90234373 -0.2578125,0.17578125 -0.6679687,0.28125 -1.1953125,0.28125 -0.7148437,0 -1.1953125,-0.17578125 -1.5117187,-0.55078123 -0.2460938,-0.28125 -0.3515625,-0.5976563 -0.3398438,-0.9960938 H 0.43336719 c 0,0.5976563 0.1171875,0.984375 0.38671875,1.34765628 0.44531246,0.609375 1.19531246,0.9375 2.19140626,0.9375 0.7851562,0 1.4179687,-0.1875 1.8398437,-0.50390625 0.4335938,-0.3515625 0.7148438,-0.93750003 0.7148438,-1.50000003 0,-0.8085937 -0.5039063,-1.3945312 -1.3945313,-1.640625 l -1.640625,-0.4335937 c -0.7851562,-0.2226563 -1.0664062,-0.46875 -1.0664062,-0.9726563 0,-0.6679687 0.5742187,-1.1015625 1.453125,-1.1015625 1.0429687,0 1.6289062,0.46875 1.640625,1.3242188 z m 4.8896486,2.6484375 0.667969,1.968749975 h 0.9375 L 9.5417656,-6.5392656 H 8.4636406 L 6.1316094,-2.03125e-4 h 0.890625 L 7.7136406,-1.9689531 Z M 9.9987969,-2.6603594 H 7.9128594 l 1.078125,-2.9765625 z M 14.282,-4.5236406 v 4.523437475 h 0.785156 V -6.3517656 h -0.515625 c -0.28125,0.9726562 -0.457031,1.1015625 -1.675781,1.2539062 v 0.5742188 z m 0,0"
       style="fill:#ff0000;fill-opacity:1;fill-rule:nonzero;stroke:none"
       aria-label="SA1"
       transform="matrix(1.3333333,0,0,1.3333333,39.457333,50.789333)" />
    <path
       id="path26"
       d="M 0,8.92886 H -56.69362"
       style="fill:none;stroke:#808080;stroke-width:0.99628;stroke-linecap:butt;stroke-linejoin:round;stroke-miterlimit:10;stroke-dasharray:none;stroke-opacity:1"
       transform="matrix(1.3333333,0,0,-1.3333333,75.590667,94.488)" />
    <path
       id="path27"
       d="m 5.3440469,-4.6176172 c -0.011719,-1.2773437 -0.890625,-2.0273437 -2.390625,-2.0273437 -1.4414063,0 -2.32031252,0.7382812 -2.32031252,1.921875 0,0.796875 0.42187502,1.3007812 1.27734372,1.5234375 l 1.6171875,0.4335937 c 0.8320313,0.2109375 1.2070313,0.5390625 1.2070313,1.0546875 0,0.3515625 -0.1875,0.703125 -0.46875,0.90234376 -0.2578125,0.17578125 -0.6679688,0.28125 -1.1953125,0.28125 -0.7148438,0 -1.1953125,-0.17578125 -1.5117188,-0.55078126 -0.2460937,-0.28125 -0.3515625,-0.5976562 -0.3398437,-0.9960937 H 0.43389063 c 0,0.5976562 0.1171875,0.984375 0.38671875,1.34765621 0.44531252,0.609375 1.19531252,0.9375 2.19140622,0.9375 0.7851563,0 1.4179688,-0.1875 1.8398438,-0.50390625 0.4335937,-0.3515625 0.7148437,-0.93749996 0.7148437,-1.49999996 0,-0.8085938 -0.5039062,-1.3945313 -1.3945312,-1.640625 l -1.640625,-0.4335938 c -0.7851563,-0.2226562 -1.0664063,-0.46875 -1.0664063,-0.9726562 0,-0.6679688 0.5742188,-1.1015625 1.453125,-1.1015625 1.0429688,0 1.6289063,0.46875 1.640625,1.3242187 z m 4.8896481,2.6484375 0.667969,1.9687500125 h 0.9375 L 9.5422891,-6.5394922 H 8.4641641 L 6.1321328,-4.296875e-4 h 0.890625 L 7.7141641,-1.9691797 Z M 9.9993203,-2.6605859 H 7.9133828 l 1.078125,-2.9765625 z m 4.4238277,-3.6914063 c -0.585937,0 -1.125,0.2578125 -1.453125,0.6914063 -0.421875,0.5625 -0.621093,1.40625 -0.621093,2.5898437 0,2.13281251 0.714843,3.28125001 2.074218,3.28125001 1.347657,0 2.085938,-1.1484375 2.085938,-3.23437501 0,-1.2304687 -0.199219,-2.0625 -0.621094,-2.6367187 -0.328125,-0.4453125 -0.855469,-0.6914063 -1.464844,-0.6914063 z m 0,0.6914063 c 0.855469,0 1.277344,0.8671875 1.277344,2.5664062 0,1.8046875 -0.410156,2.64843751 -1.289062,2.64843751 -0.832032,0 -1.253907,-0.87890621 -1.253907,-2.62500001 0,-1.734375 0.421875,-2.5898437 1.265625,-2.5898437 z m 0,0"
       style="fill:#000000;fill-opacity:1;fill-rule:nonzero;stroke:none"
       aria-label="SA0"
       transform="matrix(1.3333333,0,0,1.3333333,13.538667,77.246667)" />
    <path
       id="path28"
       d="m 5.3435234,-4.6176172 c -0.011719,-1.2773437 -0.890625,-2.0273437 -2.390625,-2.0273437 -1.4414062,0 -2.32031246,0.7382812 -2.32031246,1.921875 0,0.796875 0.42187496,1.3007812 1.27734376,1.5234375 l 1.6171875,0.4335937 c 0.8320312,0.2109375 1.2070312,0.5390625 1.2070312,1.0546875 0,0.3515625 -0.1875,0.703125 -0.46875,0.90234376 -0.2578125,0.17578125 -0.6679687,0.28125 -1.1953125,0.28125 -0.7148437,0 -1.1953125,-0.17578125 -1.5117187,-0.55078126 -0.2460938,-0.28125 -0.3515625,-0.5976562 -0.3398438,-0.9960937 H 0.43336719 c 0,0.5976562 0.1171875,0.984375 0.38671875,1.34765621 0.44531246,0.609375 1.19531246,0.9375 2.19140626,0.9375 0.7851562,0 1.4179687,-0.1875 1.8398437,-0.50390625 0.4335938,-0.3515625 0.7148438,-0.93749996 0.7148438,-1.49999996 0,-0.8085938 -0.5039063,-1.3945313 -1.3945313,-1.640625 l -1.640625,-0.4335938 c -0.7851562,-0.2226562 -1.0664062,-0.46875 -1.0664062,-0.9726562 0,-0.6679688 0.5742187,-1.1015625 1.453125,-1.1015625 1.0429687,0 1.6289062,0.46875 1.640625,1.3242187 z m 4.8896486,2.6484375 0.667969,1.9687500125 h 0.9375 L 9.5417656,-6.5394922 H 8.4636406 L 6.1316094,-4.296875e-4 h 0.890625 L 7.7136406,-1.9691797 Z M 9.9987969,-2.6605859 H 7.9128594 l 1.078125,-2.9765625 z M 14.282,-4.5238672 v 4.5234375125 h 0.785156 V -6.3519922 h -0.515625 c -0.28125,0.9726563 -0.457031,1.1015625 -1.675781,1.2539063 v 0.5742187 z m 0,0"
       style="fill:#ff0000;fill-opacity:1;fill-rule:nonzero;stroke:none"
       aria-label="SA1"
       transform="matrix(1.3333333,0,0,1.3333333,39.457333,77.246667)" />
    <path
       id="path29"
       d="M 0,-70.44173 H -56.69362"
       style="fill:none;stroke:#808080;stroke-width:0.99628;stroke-linecap:butt;stroke-linejoin:round;stroke-miterlimit:10;stroke-dasharray:none;stroke-opacity:1"
       transform="matrix(1.3333333,0,0,-1.3333333,75.590667,94.488)" />
    <path
       id="path30"
       d="m 5.3440469,-4.6184531 c -0.011719,-1.2773438 -0.890625,-2.0273438 -2.390625,-2.0273438 -1.4414063,0 -2.32031252,0.7382813 -2.32031252,1.921875 0,0.796875 0.42187502,1.3007813 1.27734372,1.5234375 l 1.6171875,0.4335938 c 0.8320313,0.2109375 1.2070313,0.5390625 1.2070313,1.0546875 0,0.3515625 -0.1875,0.703125 -0.46875,0.90234373 -0.2578125,0.17578125 -0.6679688,0.28125 -1.1953125,0.28125 -0.7148438,0 -1.1953125,-0.17578125 -1.5117188,-0.55078123 -0.2460937,-0.28125 -0.3515625,-0.5976563 -0.3398437,-0.9960938 H 0.43389063 c 0,0.5976563 0.1171875,0.984375 0.38671875,1.34765628 0.44531252,0.609375 1.19531252,0.9375 2.19140622,0.9375 0.7851563,0 1.4179688,-0.1875 1.8398438,-0.50390625 0.4335937,-0.3515625 0.7148437,-0.93750003 0.7148437,-1.50000003 0,-0.8085937 -0.5039062,-1.3945312 -1.3945312,-1.640625 l -1.640625,-0.4335937 c -0.7851563,-0.2226563 -1.0664063,-0.46875 -1.0664063,-0.9726563 0,-0.6679687 0.5742188,-1.1015625 1.453125,-1.1015625 1.0429688,0 1.6289063,0.46875 1.640625,1.3242188 z m 4.8896481,2.6484375 0.667969,1.96874998 h 0.9375 L 9.5422891,-6.5403281 h -1.078125 l -2.3320313,6.53906248 h 0.890625 L 7.7141641,-1.9700156 Z M 9.9993203,-2.6614219 H 7.9133828 l 1.078125,-2.9765625 z m 4.4238277,-3.6914062 c -0.585937,0 -1.125,0.2578125 -1.453125,0.6914062 -0.421875,0.5625 -0.621093,1.40625 -0.621093,2.5898438 0,2.13281248 0.714843,3.28124998 2.074218,3.28124998 1.347657,0 2.085938,-1.1484375 2.085938,-3.23437498 0,-1.2304688 -0.199219,-2.0625 -0.621094,-2.6367188 -0.328125,-0.4453125 -0.855469,-0.6914062 -1.464844,-0.6914062 z m 0,0.6914062 c 0.855469,0 1.277344,0.8671875 1.277344,2.5664063 0,1.8046875 -0.410156,2.64843748 -1.289062,2.64843748 -0.832032,0 -1.253907,-0.87890628 -1.253907,-2.62499998 0,-1.734375 0.421875,-2.5898438 1.265625,-2.5898438 z m 0,0"
       style="fill:#000000;fill-opacity:1;fill-rule:nonzero;stroke:none"
       aria-label="SA0"
       transform="matrix(1.3333333,0,0,1.3333333,13.538667,183.072)" />
    <path
       id="path31"
       d="m 5.3435234,-4.6184531 c -0.011719,-1.2773438 -0.890625,-2.0273438 -2.390625,-2.0273438 -1.4414062,0 -2.32031246,0.7382813 -2.32031246,1.921875 0,0.796875 0.42187496,1.3007813 1.27734376,1.5234375 l 1.6171875,0.4335938 c 0.8320312,0.2109375 1.2070312,0.5390625 1.2070312,1.0546875 0,0.3515625 -0.1875,0.703125 -0.46875,0.90234373 -0.2578125,0.17578125 -0.6679687,0.28125 -1.1953125,0.28125 -0.7148437,0 -1.1953125,-0.17578125 -1.5117187,-0.55078123 -0.2460938,-0.28125 -0.3515625,-0.5976563 -0.3398438,-0.9960938 H 0.43336719 c 0,0.5976563 0.1171875,0.984375 0.38671875,1.34765628 0.44531246,0.609375 1.19531246,0.9375 2.19140626,0.9375 0.7851562,0 1.4179687,-0.1875 1.8398437,-0.50390625 0.4335938,-0.3515625 0.7148438,-0.93750003 0.7148438,-1.50000003 0,-0.8085937 -0.5039063,-1.3945312 -1.3945313,-1.640625 l -1.640625,-0.4335937 c -0.7851562,-0.2226563 -1.0664062,-0.46875 -1.0664062,-0.9726563 0,-0.6679687 0.5742187,-1.1015625 1.453125,-1.1015625 1.0429687,0 1.6289062,0.46875 1.640625,1.3242188 z m 4.8896486,2.6484375 0.667969,1.96874998 h 0.9375 L 9.5417656,-6.5403281 h -1.078125 l -2.3320312,6.53906248 h 0.890625 L 7.7136406,-1.9700156 Z M 9.9987969,-2.6614219 H 7.9128594 l 1.078125,-2.9765625 z M 14.282,-4.5247031 v 4.52343748 h 0.785156 V -6.3528281 h -0.515625 c -0.28125,0.9726562 -0.457031,1.1015625 -1.675781,1.2539062 v 0.5742188 z m 0,0"
       style="fill:#ff0000;fill-opacity:1;fill-rule:nonzero;stroke:none"
       aria-label="SA1"
       transform="matrix(1.3333333,0,0,1.3333333,39.457333,183.072)" />
    <path
       id="path32"
       d="M 0,-90.28496 H -56.69362"
       style="fill:none;stroke:#808080;stroke-width:0.99628;stroke-linecap:butt;stroke-linejoin:round;stroke-miterlimit:10;stroke-dasharray:none;stroke-opacity:1"
       transform="matrix(1.3333333,0,0,-1.3333333,75.590667,94.488)" />
    <path
       id="path33"
       d="m 5.3440469,-4.61575 c -0.011719,-1.2773437 -0.890625,-2.0273437 -2.390625,-2.0273437 -1.4414063,0 -2.32031252,0.7382812 -2.32031252,1.921875 0,0.796875 0.42187502,1.3007812 1.27734372,1.5234375 l 1.6171875,0.4335937 C 4.3596719,-2.55325 4.7346719,-2.225125 4.7346719,-1.7095 c 0,0.3515625 -0.1875,0.703125 -0.46875,0.90234375 -0.2578125,0.17578125 -0.6679688,0.28125 -1.1953125,0.28125 -0.7148438,0 -1.1953125,-0.17578125 -1.5117188,-0.55078125 -0.2460937,-0.28125 -0.3515625,-0.5976562 -0.3398437,-0.9960937 H 0.43389063 c 0,0.5976562 0.1171875,0.984375 0.38671875,1.3476562 0.44531252,0.609375 1.19531252,0.9375 2.19140622,0.9375 0.7851563,0 1.4179688,-0.1875 1.8398438,-0.50390625 0.4335937,-0.3515625 0.7148437,-0.93749995 0.7148437,-1.49999995 0,-0.8085938 -0.5039062,-1.3945313 -1.3945312,-1.640625 L 2.5315469,-3.86575 C 1.7463906,-4.0884062 1.4651406,-4.3345 1.4651406,-4.8384062 c 0,-0.6679688 0.5742188,-1.1015625 1.453125,-1.1015625 1.0429688,0 1.6289063,0.46875 1.640625,1.3242187 z m 4.8896481,2.6484375 0.667969,1.96875 h 0.9375 L 9.5422891,-6.537625 H 8.4641641 L 6.1321328,0.0014375 h 0.890625 l 0.6914063,-1.96875 z M 9.9993203,-2.6587187 H 7.9133828 l 1.078125,-2.9765625 z M 14.423148,-6.350125 c -0.585937,0 -1.125,0.2578125 -1.453125,0.6914063 -0.421875,0.5625 -0.621093,1.40625 -0.621093,2.5898437 0,2.1328125 0.714843,3.28125 2.074218,3.28125 1.347657,0 2.085938,-1.1484375 2.085938,-3.234375 0,-1.2304687 -0.199219,-2.0625 -0.621094,-2.6367187 -0.328125,-0.4453125 -0.855469,-0.6914063 -1.464844,-0.6914063 z m 0,0.6914063 c 0.855469,0 1.277344,0.8671875 1.277344,2.5664062 0,1.8046875 -0.410156,2.6484375 -1.289062,2.6484375 -0.832032,0 -1.253907,-0.8789062 -1.253907,-2.625 0,-1.734375 0.421875,-2.5898437 1.265625,-2.5898437 z m 0,0"
       style="fill:#000000;fill-opacity:1;fill-rule:nonzero;stroke:none"
       aria-label="SA0"
       transform="matrix(1.3333333,0,0,1.3333333,13.538667,209.52933)" />
    <path
       id="path34"
       d="m 5.3435234,-4.61575 c -0.011719,-1.2773437 -0.890625,-2.0273437 -2.390625,-2.0273437 -1.4414062,0 -2.32031246,0.7382812 -2.32031246,1.921875 0,0.796875 0.42187496,1.3007812 1.27734376,1.5234375 l 1.6171875,0.4335937 C 4.3591484,-2.55325 4.7341484,-2.225125 4.7341484,-1.7095 c 0,0.3515625 -0.1875,0.703125 -0.46875,0.90234375 -0.2578125,0.17578125 -0.6679687,0.28125 -1.1953125,0.28125 -0.7148437,0 -1.1953125,-0.17578125 -1.5117187,-0.55078125 -0.2460938,-0.28125 -0.3515625,-0.5976562 -0.3398438,-0.9960937 H 0.43336719 c 0,0.5976562 0.1171875,0.984375 0.38671875,1.3476562 0.44531246,0.609375 1.19531246,0.9375 2.19140626,0.9375 0.7851562,0 1.4179687,-0.1875 1.8398437,-0.50390625 0.4335938,-0.3515625 0.7148438,-0.93749995 0.7148438,-1.49999995 0,-0.8085938 -0.5039063,-1.3945313 -1.3945313,-1.640625 L 2.5310234,-3.86575 C 1.7458672,-4.0884062 1.4646172,-4.3345 1.4646172,-4.8384062 c 0,-0.6679688 0.5742187,-1.1015625 1.453125,-1.1015625 1.0429687,0 1.6289062,0.46875 1.640625,1.3242187 z m 4.8896486,2.6484375 0.667969,1.96875 h 0.9375 L 9.5417656,-6.537625 H 8.4636406 L 6.1316094,0.0014375 h 0.890625 l 0.6914062,-1.96875 z M 9.9987969,-2.6587187 H 7.9128594 l 1.078125,-2.9765625 z M 14.282,-4.522 v 4.5234375 h 0.785156 V -6.350125 h -0.515625 c -0.28125,0.9726563 -0.457031,1.1015625 -1.675781,1.2539063 V -4.522 Z m 0,0"
       style="fill:#ff0000;fill-opacity:1;fill-rule:nonzero;stroke:none"
       aria-label="SA1"
       transform="matrix(1.3333333,0,0,1.3333333,39.457333,209.52933)" />
    <path
       id="path35"
       d="m 386.93407,-80.36296 h 56.69362"
       style="fill:none;stroke:#808080;stroke-width:0.99628;stroke-linecap:butt;stroke-linejoin:round;stroke-miterlimit:10;stroke-dasharray:none;stroke-opacity:1"
       transform="matrix(1.3333333,0,0,-1.3333333,75.590667,94.488)" />
    <path
       id="path36"
       d="m 5.3441172,-4.6166016 c -0.011719,-1.2773437 -0.890625,-2.0273437 -2.390625,-2.0273437 -1.4414063,0 -2.32031251,0.7382812 -2.32031251,1.921875 0,0.796875 0.42187501,1.3007812 1.27734371,1.5234375 l 1.6171875,0.4335937 c 0.8320313,0.2109375 1.2070313,0.5390625 1.2070313,1.0546875 0,0.3515625 -0.1875,0.703125 -0.46875,0.90234379 -0.2578125,0.17578125 -0.6679688,0.28125 -1.1953125,0.28125 -0.7148438,0 -1.1953125,-0.17578125 -1.5117188,-0.55078129 -0.2460937,-0.28125 -0.3515625,-0.5976562 -0.3398437,-0.9960937 H 0.43396094 c 0,0.5976562 0.1171875,0.984375 0.38671875,1.34765624 0.44531251,0.609375 1.19531251,0.9375 2.19140621,0.9375 0.7851563,0 1.4179688,-0.1875 1.8398438,-0.50390625 0.4335937,-0.3515625 0.7148437,-0.93749999 0.7148437,-1.49999999 0,-0.8085938 -0.5039062,-1.3945313 -1.3945312,-1.640625 l -1.640625,-0.4335938 c -0.7851563,-0.2226562 -1.0664063,-0.46875 -1.0664063,-0.9726562 0,-0.6679688 0.5742188,-1.1015625 1.453125,-1.1015625 1.0429688,0 1.6289063,0.46875 1.640625,1.3242187 z m 4.8896488,2.6484375 0.667968,1.9687500375 h 0.9375 L 9.5423594,-6.5384766 H 8.4642344 L 6.1322031,5.859375e-4 h 0.890625 L 7.7142344,-1.9681641 Z M 9.9993906,-2.6595703 H 7.9134531 l 1.078125,-2.9765625 z m 4.4238284,-3.6914063 c -0.585938,0 -1.125,0.2578125 -1.453125,0.6914063 -0.421875,0.5625 -0.621094,1.40625 -0.621094,2.5898437 0,2.13281254 0.714844,3.28125004 2.074219,3.28125004 1.347656,0 2.085937,-1.1484375 2.085937,-3.23437504 0,-1.2304687 -0.199219,-2.0625 -0.621094,-2.6367187 -0.328125,-0.4453125 -0.855468,-0.6914063 -1.464843,-0.6914063 z m 0,0.6914063 c 0.855468,0 1.277343,0.8671875 1.277343,2.5664062 0,1.8046875 -0.410156,2.64843754 -1.289062,2.64843754 -0.832031,0 -1.253906,-0.87890624 -1.253906,-2.62500004 0,-1.734375 0.421875,-2.5898437 1.265625,-2.5898437 z m 0,0"
       style="fill:#000000;fill-opacity:1;fill-rule:nonzero;stroke:none"
       aria-label="SA0"
       transform="matrix(1.3333333,0,0,1.3333333,605.03467,196.3)" />
    <path
       id="path37"
       d="m 5.3435937,-4.6166016 c -0.011719,-1.2773437 -0.890625,-2.0273437 -2.390625,-2.0273437 -1.4414062,0 -2.32031245,0.7382812 -2.32031245,1.921875 0,0.796875 0.42187495,1.3007812 1.27734375,1.5234375 l 1.6171875,0.4335937 c 0.8320312,0.2109375 1.2070312,0.5390625 1.2070312,1.0546875 0,0.3515625 -0.1875,0.703125 -0.46875,0.90234379 -0.2578125,0.17578125 -0.6679687,0.28125 -1.1953125,0.28125 -0.7148437,0 -1.1953125,-0.17578125 -1.5117187,-0.55078129 C 1.3123437,-1.3587891 1.206875,-1.6751953 1.2185937,-2.0736328 H 0.4334375 c 0,0.5976562 0.1171875,0.984375 0.38671875,1.34765624 0.44531245,0.609375 1.19531245,0.9375 2.19140625,0.9375 0.7851562,0 1.4179687,-0.1875 1.8398437,-0.50390625 C 5.285,-0.64394531 5.56625,-1.2298828 5.56625,-1.7923828 c 0,-0.8085938 -0.5039063,-1.3945313 -1.3945313,-1.640625 l -1.640625,-0.4335938 c -0.7851562,-0.2226562 -1.0664062,-0.46875 -1.0664062,-0.9726562 0,-0.6679688 0.5742187,-1.1015625 1.453125,-1.1015625 1.0429687,0 1.6289062,0.46875 1.640625,1.3242187 z m 4.8896483,2.6484375 0.667969,1.9687500375 h 0.9375 L 9.5418359,-6.5384766 H 8.4637109 L 6.1316797,5.859375e-4 h 0.890625 L 7.7137109,-1.9681641 Z M 9.9988672,-2.6595703 H 7.9129297 l 1.078125,-2.9765625 z M 14.28207,-4.5228516 V 5.859375e-4 h 0.785157 V -6.3509766 h -0.515625 c -0.28125,0.9726563 -0.457032,1.1015625 -1.675782,1.2539063 v 0.5742187 z m 0,0"
       style="fill:#000000;fill-opacity:1;fill-rule:nonzero;stroke:none"
       aria-label="SA1"
       transform="matrix(1.3333333,0,0,1.3333333,630.95333,196.3)" />
    <path
       id="path38"
       d="M -20.20392,45.6851 C 0.88997,70.82231 36.37929,68.57669 57.67824,42.30249"
       style="fill:none;stroke:#f5c9a2;stroke-width:2.83466;stroke-linecap:butt;stroke-linejoin:round;stroke-miterlimit:10;stroke-dasharray:none;stroke-opacity:1"
       transform="matrix(1.3333333,0,0,-1.3333333,75.590667,94.488)" />
    <path
       id="path39"
       d="m 61.28746,37.41281 c 0.15382,2.43219 0.24283,4.86606 0.25119,7.319 -1.18051,-0.94188 -2.36108,-1.88382 -3.54158,-2.82571 -1.1805,-0.94188 -2.36105,-1.88382 -3.54157,-2.82572 2.2508,-0.43824 4.52543,-0.98732 6.83196,-1.66757 z"
       style="fill:#f5c9a2;fill-opacity:1;fill-rule:nonzero;stroke:#f5c9a2;stroke-width:2.12599;stroke-linecap:butt;stroke-linejoin:miter;stroke-miterlimit:10;stroke-dasharray:none;stroke-opacity:1"
       transform="matrix(1.3333333,0,0,-1.3333333,75.590667,94.488)" />
    <path
       id="path40"
       d="M -20.20586,6.43184 C 3.41931,-21.71988 42.76482,-22.47153 60.83908,8.94998"
       style="fill:none;stroke:#f5c9a2;stroke-width:2.83466;stroke-linecap:butt;stroke-linejoin:round;stroke-miterlimit:10;stroke-dasharray:none;stroke-opacity:1"
       transform="matrix(1.3333333,0,0,-1.3333333,75.590667,94.488)" />
    <path
       id="path41"
       d="m 63.57474,14.32031 c -2.15891,-1.05328 -4.30534,-1.95477 -6.43549,-2.71167 1.31561,-0.74159 2.63129,-1.48323 3.94687,-2.22484 1.31558,-0.74159 2.63124,-1.48323 3.94685,-2.22483 -0.41258,2.4029 -0.90033,4.78814 -1.45823,7.16134 z"
       style="fill:#f5c9a2;fill-opacity:1;fill-rule:nonzero;stroke:#f5c9a2;stroke-width:2.12599;stroke-linecap:butt;stroke-linejoin:miter;stroke-miterlimit:10;stroke-dasharray:none;stroke-opacity:1"
       transform="matrix(1.3333333,0,0,-1.3333333,75.590667,94.488)" />
    <path
       id="path42"
       d="m -20.20392,-53.52872 c 21.0853,25.127 54.23596,22.89332 75.0961,-3.35328"
       style="fill:none;stroke:#f5c9a2;stroke-width:2.83466;stroke-linecap:butt;stroke-linejoin:round;stroke-miterlimit:10;stroke-dasharray:none;stroke-opacity:1"
       transform="matrix(1.3333333,0,0,-1.3333333,75.590667,94.488)" />
    <path
       id="path43"
       d="m 58.46333,-61.79501 c 0.16646,2.43278 0.27349,4.86468 0.31002,7.30848 -1.1892,-0.93098 -2.37845,-1.862 -3.56763,-2.79295 -1.18918,-0.93095 -2.37845,-1.86197 -3.56763,-2.79295 2.24661,-0.45665 4.52021,-1.02617 6.82524,-1.72258 z"
       style="fill:#f5c9a2;fill-opacity:1;fill-rule:nonzero;stroke:#f5c9a2;stroke-width:2.12599;stroke-linecap:butt;stroke-linejoin:miter;stroke-miterlimit:10;stroke-dasharray:none;stroke-opacity:1"
       transform="matrix(1.3333333,0,0,-1.3333333,75.590667,94.488)" />
    <path
       id="path44"
       d="m -20.20586,-92.78197 c 23.62,-28.14555 60.59468,-28.90309 78.2609,2.49927"
       style="fill:none;stroke:#f5c9a2;stroke-width:2.83466;stroke-linecap:butt;stroke-linejoin:round;stroke-miterlimit:10;stroke-dasharray:none;stroke-opacity:1"
       transform="matrix(1.3333333,0,0,-1.3333333,75.590667,94.488)" />
    <path
       id="path45"
       d="m 60.74998,-84.89871 c -2.15496,-1.06813 -4.29554,-1.98483 -6.41955,-2.76004 1.32234,-0.72955 2.64479,-1.45914 3.96712,-2.18869 1.32232,-0.72954 2.64475,-1.45912 3.9671,-2.18869 -0.43784,2.38993 -0.94498,4.76581 -1.51467,7.13742 z"
       style="fill:#f5c9a2;fill-opacity:1;fill-rule:nonzero;stroke:#f5c9a2;stroke-width:2.12599;stroke-linecap:butt;stroke-linejoin:miter;stroke-miterlimit:10;stroke-dasharray:none;stroke-opacity:1"
       transform="matrix(1.3333333,0,0,-1.3333333,75.590667,94.488)" />
    <path
       id="path46"
       d="m 175.95572,-43.17511 c 27.45668,-32.71999 54.15912,-31.22679 77.68184,3.12396"
       style="fill:none;stroke:#f5c9a2;stroke-width:2.83466;stroke-linecap:butt;stroke-linejoin:round;stroke-miterlimit:10;stroke-dasharray:none;stroke-opacity:1"
       transform="matrix(1.3333333,0,0,-1.3333333,75.590667,94.488)" />
    <path
       id="path47"
       d="m 256.96115,-34.94522 c -2.27922,-0.78702 -4.54105,-1.50003 -6.79001,-2.14726 1.24953,-0.84824 2.49913,-1.69654 3.74864,-2.54476 1.24952,-0.84822 2.4991,-1.6965 3.74863,-2.54475 -0.2018,2.41609 -0.44067,4.82439 -0.70726,7.23677 z"
       style="fill:#f5c9a2;fill-opacity:1;fill-rule:nonzero;stroke:#f5c9a2;stroke-width:2.12599;stroke-linecap:butt;stroke-linejoin:miter;stroke-miterlimit:10;stroke-dasharray:none;stroke-opacity:1"
       transform="matrix(1.3333333,0,0,-1.3333333,75.590667,94.488)" />
    <path
       id="path48"
       d="m 315.33896,-107.19803 c 27.48894,-32.75841 81.03755,-23.96905 95.83801,16.26172"
       style="fill:none;stroke:#f5c9a2;stroke-width:2.83466;stroke-linecap:butt;stroke-linejoin:round;stroke-miterlimit:10;stroke-dasharray:none;stroke-opacity:1"
       transform="matrix(1.3333333,0,0,-1.3333333,75.590667,94.488)" />
    <path
       id="path49"
       d="m 412.97986,-85.13751 c -1.94796,-1.40032 -3.91489,-2.66356 -5.89508,-3.79361 1.42184,-0.50911 2.84379,-1.01824 4.26564,-1.52732 1.42184,-0.50907 2.84378,-1.01821 4.26564,-1.52731 -0.80322,2.32469 -1.68308,4.6071 -2.6362,6.84824 z"
       style="fill:#f5c9a2;fill-opacity:1;fill-rule:nonzero;stroke:#f5c9a2;stroke-width:2.12599;stroke-linecap:butt;stroke-linejoin:miter;stroke-miterlimit:10;stroke-dasharray:none;stroke-opacity:1"
       transform="matrix(1.3333333,0,0,-1.3333333,75.590667,94.488)" />
    <path
       id="path50"
       d="M 271.7644,-13.84306 C 307.61348,28.87422 402.96095,0.68732 414.19455,-55.03"
       style="fill:none;stroke:#f5c9a2;stroke-width:2.83466;stroke-linecap:butt;stroke-linejoin:round;stroke-miterlimit:10;stroke-dasharray:none;stroke-opacity:1"
       transform="matrix(1.3333333,0,0,-1.3333333,75.590667,94.488)" />
    <path
       id="path51"
       d="m 415.06715,-61.07199 c 1.30271,2.04805 2.53,4.17598 3.67705,6.38769 -1.48321,-0.28454 -2.96649,-0.56909 -4.44969,-0.85363 -1.4832,-0.28453 -2.96649,-0.56908 -4.44969,-0.85364 1.78435,-1.44185 3.52693,-2.9998 5.22233,-4.68042 z"
       style="fill:#f5c9a2;fill-opacity:1;fill-rule:nonzero;stroke:#f5c9a2;stroke-width:2.12599;stroke-linecap:butt;stroke-linejoin:miter;stroke-miterlimit:10;stroke-dasharray:none;stroke-opacity:1"
       transform="matrix(1.3333333,0,0,-1.3333333,75.590667,94.488)" />
    <path
       id="path52"
       d="M 76.1732,35.76393 C 122.90273,91.44945 250.80472,66.07129 262.73044,-5.41989"
       style="fill:none;stroke:#f5c9a2;stroke-width:2.83466;stroke-linecap:butt;stroke-linejoin:round;stroke-miterlimit:10;stroke-dasharray:none;stroke-opacity:1"
       transform="matrix(1.3333333,0,0,-1.3333333,75.590667,94.488)" />
    <path
       id="path53"
       d="m 263.45007,-11.46278 c 1.3409,2.01916 2.62114,4.10061 3.83817,6.24368 -1.49164,-0.2366 -2.98337,-0.47322 -4.47501,-0.70982 -1.49162,-0.23661 -2.98335,-0.47324 -4.475,-0.70984 1.74212,-1.50023 3.44755,-3.10807 5.11184,-4.82402 z"
       style="fill:#f5c9a2;fill-opacity:1;fill-rule:nonzero;stroke:#f5c9a2;stroke-width:2.12599;stroke-linecap:butt;stroke-linejoin:miter;stroke-miterlimit:10;stroke-dasharray:none;stroke-opacity:1"
       transform="matrix(1.3333333,0,0,-1.3333333,75.590667,94.488)" />
  </g>
</svg>
