<?xml version="1.0" encoding="UTF-8" standalone="no"?>
<!-- Created with Inkscape (http://www.inkscape.org/) -->

<svg
   version="1.1"
   id="svg2"
   width="188.97733"
   height="178.84933"
   viewBox="0 0 188.97733 178.84933"
   xmlns="http://www.w3.org/2000/svg"
   xmlns:svg="http://www.w3.org/2000/svg">
  <defs
     id="defs6" />
  <g
     id="g8"
     transform="matrix(1.3333333,0,0,-1.3333333,0,178.84933)">
    <g
       id="g10"
       transform="matrix(0.8,0,0,0.8,-42.52,233.3496)">
      <g
         id="g12">
        <g
           id="g14" />
        <g
           id="g16">
          <g
             id="g18">
            <g
               id="g20">
              <path
                 d="m 159.45082,-177.16762 c 0,29.35446 -23.79581,53.15027 -53.15027,53.15027 -29.35446,0 -53.15027,-23.79581 -53.15027,-53.15027 0,-29.35446 23.79581,-53.15027 53.15027,-53.15027 29.35446,0 53.15027,23.79581 53.15027,53.15027 z"
                 style="fill:#00adef;fill-opacity:0.5;fill-rule:nonzero;stroke:none"
                 id="path22" />
            </g>
            <g
               id="g24">
              <path
                 d="m 194.88432,-238.54044 c 0,29.35447 -23.7958,53.15027 -53.15027,53.15027 -29.35445,0 -53.15026,-23.7958 -53.15026,-53.15027 0,-29.35446 23.79581,-53.15026 53.15026,-53.15026 29.35447,0 53.15027,23.7958 53.15027,53.15026 z"
                 style="fill:#d24c79;fill-opacity:0.5;fill-rule:nonzero;stroke:none"
                 id="path26" />
            </g>
            <g
               id="g28">
              <path
                 d="m 230.31786,-177.16762 c 0,29.35446 -23.79581,53.15027 -53.15027,53.15027 -29.35446,0 -53.15027,-23.79581 -53.15027,-53.15027 0,-29.35446 23.79581,-53.15027 53.15027,-53.15027 29.35446,0 53.15027,23.79581 53.15027,53.15027 z"
                 style="fill:#ff8000;fill-opacity:0.5;fill-rule:nonzero;stroke:none"
                 id="path30" />
            </g>
          </g>
          <g
             id="g32">
            <g
               id="g34">
              <g
                 id="g36" />
              <g
                 id="g38"
                 transform="translate(58.133,-184.895)">
                <g
                   id="g40">
                  <g
                     id="g42"
                     transform="translate(-4.983,-106.792)">
                    <text
                       xml:space="preserve"
                       transform="matrix(1,0,0,-1,4.983,117.75)"
                       style="font-variant:normal;font-size:8.96638px;font-family:'Nimbus Sans';-inkscape-font-specification:NimbusSanL-Regu;writing-mode:lr-tb;fill:#000000;fill-opacity:1;fill-rule:nonzero;stroke:none"
                       id="text46"><tspan
                         x="0 5.9805756 7.9711118 12.956419 17.941727 21.053061 23.043596 25.536251 30.521557 37.990551 39.981087"
                         y="0"
                         id="tspan44">Algorithmic</tspan></text>
                    <text
                       xml:space="preserve"
                       transform="matrix(1,0,0,-1,8.036,106.792)"
                       style="font-variant:normal;font-size:8.96638px;font-family:'Nimbus Sans';-inkscape-font-specification:NimbusSanL-Regu;writing-mode:lr-tb;fill:#000000;fill-opacity:1;fill-rule:nonzero;stroke:none"
                       id="text50"><tspan
                         x="0 5.9805756 8.4732294 12.956419 17.43961 19.430145 24.415453 29.400761 33.883949"
                         y="0"
                         id="tspan48">Effciency</tspan></text>
                    <g
                       id="g52"
                       transform="translate(4.983,106.792)" />
                  </g>
                </g>
                <g
                   id="g54"
                   transform="translate(-58.133,184.895)" />
              </g>
            </g>
            <g
               id="g56">
              <g
                 id="g58" />
              <g
                 id="g60"
                 transform="translate(122.549,-259.579)">
                <g
                   id="g62">
                  <g
                     id="g64"
                     transform="translate(-69.399,-32.108)">
                    <text
                       xml:space="preserve"
                       transform="matrix(1,0,0,-1,79.114,43.067)"
                       style="font-variant:normal;font-size:8.96638px;font-family:'Nimbus Sans';-inkscape-font-specification:NimbusSanL-Regu;writing-mode:lr-tb;fill:#000000;fill-opacity:1;fill-rule:nonzero;stroke:none"
                       id="text68"><tspan
                         x="0 6.4737263 11.459034 13.951687"
                         y="0"
                         id="tspan66">Data</tspan></text>
                    <text
                       xml:space="preserve"
                       transform="matrix(1,0,0,-1,69.399,32.108)"
                       style="font-variant:normal;font-size:8.96638px;font-family:'Nimbus Sans';-inkscape-font-specification:NimbusSanL-Regu;writing-mode:lr-tb;fill:#000000;fill-opacity:1;fill-rule:nonzero;stroke:none"
                       id="text72"><tspan
                         x="0 5.9805756 8.4732294 12.956419 17.43961 19.430145 24.415453 29.400761 33.883949"
                         y="0"
                         id="tspan70">Effciency</tspan></text>
                    <g
                       id="g74"
                       transform="translate(69.399,32.108)" />
                  </g>
                </g>
                <g
                   id="g76"
                   transform="translate(-122.549,259.579)" />
              </g>
            </g>
            <g
               id="g78">
              <g
                 id="g80" />
              <g
                 id="g82"
                 transform="translate(180.86,-184.999)">
                <g
                   id="g84">
                  <g
                     id="g86"
                     transform="translate(-127.71,-106.688)">
                    <text
                       xml:space="preserve"
                       transform="matrix(1,0,0,-1,128.705,117.647)"
                       style="font-variant:normal;font-size:8.96638px;font-family:'Nimbus Sans';-inkscape-font-specification:NimbusSanL-Regu;writing-mode:lr-tb;fill:#000000;fill-opacity:1;fill-rule:nonzero;stroke:none"
                       id="text90"><tspan
                         x="0 6.4737263 11.459034 18.928028 23.913336 28.898643 31.391296"
                         y="0"
                         id="tspan88">Compute</tspan></text>
                    <text
                       xml:space="preserve"
                       transform="matrix(1,0,0,-1,127.71,106.688)"
                       style="font-variant:normal;font-size:8.96638px;font-family:'Nimbus Sans';-inkscape-font-specification:NimbusSanL-Regu;writing-mode:lr-tb;fill:#000000;fill-opacity:1;fill-rule:nonzero;stroke:none"
                       id="text94"><tspan
                         x="0 5.9805756 8.4732294 12.956419 17.43961 19.430145 24.415453 29.400761 33.883949"
                         y="0"
                         id="tspan92">Effciency</tspan></text>
                    <g
                       id="g96"
                       transform="translate(127.71,106.688)" />
                  </g>
                </g>
                <g
                   id="g98"
                   transform="translate(-180.86,184.999)" />
              </g>
            </g>
          </g>
        </g>
      </g>
      <g
         id="g100"
         transform="translate(53.15,-291.687)" />
    </g>
  </g>
</svg>
