<?xml version="1.0" encoding="UTF-8" standalone="no"?>
<!-- Created with Inkscape (http://www.inkscape.org/) -->

<svg
   version="1.1"
   id="svg1"
   width="328.53867"
   height="195.308"
   viewBox="0 0 328.53867 195.308"
   xmlns="http://www.w3.org/2000/svg"
   xmlns:svg="http://www.w3.org/2000/svg">
  <defs
     id="defs1" />
  <g
     id="g1">
    <path
       id="path1"
       d="M 4.4956893,-1.3248989 4.923079,-0.00136949 H 6.3017555 L 4.0407261,-6.536296 H 2.5517555 L 0.23557904,-0.00136949 H 1.6004688 L 2.0416452,-1.3248989 Z M 4.1234467,-2.4416268 H 2.4138879 l 0.8547794,-2.5505515 z m 4.2670037,1.1305147 H 7.0531342 v 1.30974261 H 8.3904504 Z M 13.512233,-6.536296 h -1.337316 v 6.53492651 h 4.466912 V -1.1180974 h -3.129596 z m 8.127298,4.5082721 c 0,-0.1102941 0,-0.1516544 0,-0.2068015 0,-0.4963235 -0.06893,-0.9375 -0.179228,-1.2821691 -0.330882,-0.8685662 -1.102941,-1.40625 -2.081801,-1.40625 -1.392463,0 -2.247243,1.0064338 -2.247243,2.6332721 0,1.54411762 0.840993,2.49540439 2.219669,2.49540439 1.075368,0 1.957721,-0.62040442 2.233456,-1.57169119 h -1.227022 c -0.151654,0.38602942 -0.51011,0.60661766 -0.965073,0.60661766 -0.358456,0 -0.647978,-0.15165442 -0.827206,-0.41360296 -0.110294,-0.1792279 -0.151655,-0.3998162 -0.179228,-0.8547794 z m -3.226103,-0.8272059 c 0.06893,-0.7444853 0.38603,-1.1029412 0.9375,-1.1029412 0.317096,0 0.606618,0.1516545 0.785846,0.3998162 0.110294,0.179228 0.165441,0.3722427 0.193015,0.703125 z m 8.210019,2.7022059 C 26.389072,-0.35982537 26.333925,-0.49769301 26.333925,-0.74585478 V -3.4342739 c 0,-0.9788603 -0.675552,-1.4889706 -1.985294,-1.4889706 -1.309743,0 -1.985295,0.5514706 -2.068015,1.6819853 h 1.213235 c 0.05515,-0.5101103 0.261949,-0.6617647 0.882353,-0.6617647 0.482537,0 0.730699,0.1516544 0.730699,0.4825368 0,0.1516544 -0.08272,0.3033088 -0.220589,0.3722426 -0.165441,0.096507 -0.165441,0.096507 -0.785845,0.1930147 l -0.496324,0.082721 c -0.965073,0.1654412 -1.433823,0.6617647 -1.433823,1.5303309 0,0.41360293 0.124081,0.74448529 0.344669,0.99264705 0.275735,0.28952206 0.703125,0.45496324 1.130515,0.45496324 0.537683,0 1.034007,-0.234375 1.461397,-0.68933824 0,0.24816176 0.02757,0.34466912 0.151654,0.48253676 h 1.36489 z m -1.516544,-1.7922794 c 0,0.7306985 -0.358456,1.14430146 -0.992647,1.14430146 -0.42739,0 -0.689339,-0.23437496 -0.689339,-0.59283086 0,-0.3722427 0.193015,-0.5514706 0.716912,-0.6617647 l 0.42739,-0.082721 c 0.330882,-0.055147 0.386029,-0.082721 0.537684,-0.1516544 z m 4.601332,-2.7987132 H 28.96375 v -0.46875 c 0,-0.2481618 0.110294,-0.3860295 0.344669,-0.3860295 0.110294,0 0.248162,0.013787 0.358456,0.027574 v -0.9375 c -0.234375,-0.013787 -0.537684,-0.027574 -0.716912,-0.027574 -0.827206,0 -1.240809,0.3998162 -1.240809,1.2132353 v 0.5790442 h -0.675551 v 0.8409926 h 0.675551 v 3.90165441 H 28.96375 V -3.9030239 h 0.744485 z m 2.860754,1.6819852 h -2.440257 v 1.1994486 h 2.440257 z m 5.755974,-1.4889705 c 0,-0.5928309 -0.137867,-0.9926471 -0.46875,-1.351103 -0.427389,-0.4825367 -1.158088,-0.7444853 -2.095588,-0.7444853 -1.571691,0 -2.481618,0.7444853 -2.481618,2.0128677 0,1.0064338 0.510111,1.5027573 1.83364,1.7509191 l 0.923713,0.1792279 c 0.89614,0.179228 1.227022,0.4273897 1.227022,0.9512868 0,0.5514706 -0.51011,0.88235294 -1.323529,0.88235294 -0.909927,0 -1.420037,-0.38602944 -1.461397,-1.08915444 h -1.309743 c 0.08272,1.40625003 1.034008,2.16452209 2.702206,2.16452209 1.681985,0 2.674632,-0.78584559 2.674632,-2.10937499 0,-1.0340074 -0.51011,-1.5716912 -1.723345,-1.8060662 l -1.020221,-0.1930147 c -0.965073,-0.1930147 -1.240809,-0.3860294 -1.240809,-0.8547794 0,-0.4963235 0.441177,-0.8134191 1.130515,-0.8134191 0.85478,0 1.32353,0.3584559 1.378677,1.0202206 z m 2.31273,-0.2895221 h -1.254596 v 6.796875 h 1.254596 v -2.5367647 c 0.303309,0.53768382 0.730699,0.79963235 1.337316,0.79963235 1.171875,0 2.026655,-1.10294118 2.026655,-2.56433825 0,-0.6893382 -0.193015,-1.3648897 -0.523897,-1.8198529 -0.317096,-0.4549633 -0.923714,-0.7582721 -1.502758,-0.7582721 -0.606617,0 -1.034007,0.2619485 -1.337316,0.7996324 z m 1.047794,0.9650735 c 0.647978,0 1.061581,0.6204044 1.061581,1.5441177 0,0.8823529 -0.441176,1.50275733 -1.061581,1.50275733 -0.620404,0 -1.047794,-0.62040443 -1.047794,-1.51654413 0,-0.9099265 0.42739,-1.5303309 1.047794,-1.5303309 z m 4.515166,-0.9650735 h -1.254596 v 4.83915441 h 1.254596 z m 0,-1.6957721 h -1.254596 v 1.116728 h 1.254596 z m 1.196001,1.6957721 v 4.83915441 H 48.65125 V -2.9103768 c 0,-0.5652574 0.399816,-0.9375 1.006434,-0.9375 0.537684,0 0.813419,0.289522 0.813419,0.8685661 v 2.97794121 h 1.254596 V -3.2412592 c 0,-1.0753676 -0.592831,-1.6819853 -1.626839,-1.6819853 -0.647978,0 -1.089154,0.2481618 -1.44761,0.7858456 v -0.703125 z m 9.612822,2.8125 c 0,-0.1102941 0,-0.1516544 0,-0.2068015 0,-0.4963235 -0.06893,-0.9375 -0.179228,-1.2821691 -0.330882,-0.8685662 -1.102941,-1.40625 -2.081801,-1.40625 -1.392464,0 -2.247243,1.0064338 -2.247243,2.6332721 0,1.54411762 0.840993,2.49540439 2.219669,2.49540439 1.075368,0 1.957721,-0.62040442 2.233456,-1.57169119 h -1.227022 c -0.151654,0.38602942 -0.51011,0.60661766 -0.965074,0.60661766 -0.358455,0 -0.647977,-0.15165442 -0.827205,-0.41360296 -0.110295,-0.1792279 -0.151655,-0.3998162 -0.179228,-0.8547794 z m -3.226103,-0.8272059 c 0.06893,-0.7444853 0.38603,-1.1029412 0.9375,-1.1029412 0.317096,0 0.606618,0.1516545 0.785846,0.3998162 0.110294,0.179228 0.165441,0.3722427 0.193014,0.703125 z m 7.813649,-3.6810662 c -1.034007,1.5579045 -1.461397,2.7849265 -1.461397,4.163603 0,1.37867646 0.42739,2.61948528 1.461397,4.1636029 h 0.89614 c -0.951287,-1.84742644 -1.254596,-2.8538603 -1.254596,-4.1636029 0,-1.3097427 0.303309,-2.3299633 1.254596,-4.163603 z m 3.181296,3.7224265 h 2.85386 v -1.1167279 h -2.85386 V -5.419568 h 3.23989 v -1.116728 h -4.590993 v 6.53492651 h 1.351103 z m 7.996324,2.6608456 C 72.540267,-0.35982537 72.485119,-0.49769301 72.485119,-0.74585478 V -3.4342739 c 0,-0.9788603 -0.675551,-1.4889706 -1.985294,-1.4889706 -1.309742,0 -1.985294,0.5514706 -2.068014,1.6819853 h 1.213235 c 0.05515,-0.5101103 0.261948,-0.6617647 0.882353,-0.6617647 0.482537,0 0.730698,0.1516544 0.730698,0.4825368 0,0.1516544 -0.08272,0.3033088 -0.220588,0.3722426 -0.165441,0.096507 -0.165441,0.096507 -0.785845,0.1930147 l -0.496324,0.082721 c -0.965073,0.1654412 -1.433823,0.6617647 -1.433823,1.5303309 0,0.41360293 0.12408,0.74448529 0.344669,0.99264705 0.275735,0.28952206 0.703125,0.45496324 1.130514,0.45496324 0.537684,0 1.034008,-0.234375 1.461397,-0.68933824 0,0.24816176 0.02757,0.34466912 0.151655,0.48253676 h 1.36489 z m -1.516545,-1.7922794 c 0,0.7306985 -0.358455,1.14430146 -0.992647,1.14430146 -0.427389,0 -0.689338,-0.23437496 -0.689338,-0.59283086 0,-0.3722427 0.193015,-0.5514706 0.716912,-0.6617647 l 0.42739,-0.082721 c 0.330882,-0.055147 0.386029,-0.082721 0.537683,-0.1516544 z m 4.501379,-2.7987132 h -0.703125 v -1.2959559 h -1.254595 v 1.2959559 h -0.620405 v 0.8409926 h 0.620405 v 2.96415441 c 0,0.77205883 0.399816,1.14430148 1.227022,1.14430148 0.275735,0 0.496323,-0.0275735 0.730698,-0.0965074 v -0.88235294 c -0.124081,0.0137868 -0.206801,0.0275735 -0.289522,0.0275735 -0.330882,0 -0.413603,-0.0965073 -0.413603,-0.52389705 V -3.903024 h 0.703125 z m 2.960708,1.6819852 h -2.440258 v 1.1994486 h 2.440258 z m 3.756893,-2.3575367 h 1.916361 v -1.116728 h -5.238971 v 1.116728 h 1.985294 v 5.41819851 h 1.337316 z m 1.878447,0.5790441 v 4.83915441 h 1.254595 V -2.5794945 c 0,-0.7306985 0.372243,-1.0891544 1.102942,-1.0891544 0.137867,0 0.220588,0 0.386029,0.027573 v -1.2683823 c -0.06893,-0.013787 -0.110294,-0.013787 -0.151654,-0.013787 -0.565258,0 -1.075368,0.3722427 -1.337317,1.0340074 v -0.9512868 z m 7.624081,2.8125 c 0,-0.1102941 0,-0.1516544 0,-0.2068015 0,-0.4963235 -0.06893,-0.9375 -0.179228,-1.2821691 -0.330883,-0.8685662 -1.102941,-1.40625 -2.081802,-1.40625 -1.392463,0 -2.247242,1.0064338 -2.247242,2.6332721 0,1.54411762 0.840992,2.49540439 2.219669,2.49540439 1.075367,0 1.95772,-0.62040442 2.233456,-1.57169119 h -1.227022 c -0.151655,0.38602942 -0.510111,0.60661766 -0.965074,0.60661766 -0.358456,0 -0.647978,-0.15165442 -0.827206,-0.41360296 -0.110294,-0.1792279 -0.151654,-0.3998162 -0.179228,-0.8547794 z m -3.226103,-0.8272059 c 0.06893,-0.7444853 0.386029,-1.1029412 0.9375,-1.1029412 0.317095,0 0.606617,0.1516545 0.785845,0.3998162 0.110295,0.179228 0.165442,0.3722427 0.193015,0.703125 z m 8.213465,0.8272059 c 0,-0.1102941 0,-0.1516544 0,-0.2068015 0,-0.4963235 -0.06893,-0.9375 -0.179228,-1.2821691 -0.330882,-0.8685662 -1.102941,-1.40625 -2.081801,-1.40625 -1.392464,0 -2.247243,1.0064338 -2.247243,2.6332721 0,1.54411762 0.840993,2.49540439 2.219669,2.49540439 1.075368,0 1.957721,-0.62040442 2.233456,-1.57169119 h -1.227022 c -0.151655,0.38602942 -0.51011,0.60661766 -0.965074,0.60661766 -0.358456,0 -0.647978,-0.15165442 -0.827206,-0.41360296 -0.110294,-0.1792279 -0.151654,-0.3998162 -0.179228,-0.8547794 z m -3.226103,-0.8272059 c 0.06893,-0.7444853 0.386029,-1.1029412 0.9375,-1.1029412 0.317096,0 0.606618,0.1516545 0.785846,0.3998162 0.110294,0.179228 0.165441,0.3722427 0.193014,0.703125 z m 4.597886,4.6461397 c 1.034007,-1.54411762 1.461397,-2.78492644 1.461397,-4.1636029 0,-1.3786765 -0.42739,-2.6056985 -1.461397,-4.163603 h -0.89614 c 0.951287,1.8474265 1.254596,2.8538603 1.254596,4.163603 0,1.3097426 -0.303309,2.32996322 -1.254596,4.1636029 z m 0,0"
       style="fill:#cb202d;fill-opacity:1;fill-rule:nonzero;stroke:none"
       aria-label="A.Leaf-Spine(Fat-Tree)"
       transform="matrix(1.1333333,0,0,1.1333333,26.830667,11.177333)" />
    <path
       id="path2"
       d="m 17.46878,72.28487 c 0,2.99415 -2.42717,5.42132 -5.42133,5.42132 -2.99415,0 -5.42132,-2.42717 -5.42132,-5.42132 0,-2.99416 2.42717,-5.42133 5.42132,-5.42133 2.99416,0 5.42133,2.42717 5.42133,5.42133 z"
       style="fill:#006395;fill-opacity:1;fill-rule:nonzero;stroke:#4c4c4c;stroke-width:0.74721;stroke-linecap:butt;stroke-linejoin:miter;stroke-miterlimit:10;stroke-dasharray:none;stroke-opacity:1"
       transform="matrix(1.3333333,0,0,-1.3333333,19.378667,129.71067)" />
    <path
       id="path3"
       d="m 42.19847,72.28333 c 0,2.99415 -2.42718,5.42134 -5.42134,5.42134 -2.99414,0 -5.42133,-2.42719 -5.42133,-5.42134 0,-2.99415 2.42719,-5.42133 5.42133,-5.42133 2.99416,0 5.42134,2.42718 5.42134,5.42133 z"
       style="fill:#006395;fill-opacity:1;fill-rule:nonzero;stroke:#4c4c4c;stroke-width:0.74721;stroke-linecap:butt;stroke-linejoin:miter;stroke-miterlimit:10;stroke-dasharray:none;stroke-opacity:1"
       transform="matrix(1.3333333,0,0,-1.3333333,19.378667,129.71067)" />
    <path
       id="path4"
       d="m 66.92763,72.2818 c 0,2.99416 -2.42717,5.42133 -5.42133,5.42133 -2.99415,0 -5.42132,-2.42717 -5.42132,-5.42133 0,-2.99416 2.42717,-5.42133 5.42132,-5.42133 2.99416,0 5.42133,2.42717 5.42133,5.42133 z"
       style="fill:#006395;fill-opacity:1;fill-rule:nonzero;stroke:#4c4c4c;stroke-width:0.74721;stroke-linecap:butt;stroke-linejoin:miter;stroke-miterlimit:10;stroke-dasharray:none;stroke-opacity:1"
       transform="matrix(1.3333333,0,0,-1.3333333,19.378667,129.71067)" />
    <path
       id="path5"
       d="m 91.65627,72.28026 c 0,2.99415 -2.42719,5.42132 -5.42133,5.42132 -2.99416,0 -5.42134,-2.42717 -5.42134,-5.42132 0,-2.99414 2.42718,-5.42133 5.42134,-5.42133 2.99414,0 5.42133,2.42719 5.42133,5.42133 z"
       style="fill:#006395;fill-opacity:1;fill-rule:nonzero;stroke:#4c4c4c;stroke-width:0.74721;stroke-linecap:butt;stroke-linejoin:miter;stroke-miterlimit:10;stroke-dasharray:none;stroke-opacity:1"
       transform="matrix(1.3333333,0,0,-1.3333333,19.378667,129.71067)" />
    <path
       id="path6"
       d="m 5.42133,36.14243 c 0,2.99414 -2.42719,5.42132 -5.42133,5.42132 -2.99414,0 -5.42133,-2.42718 -5.42133,-5.42132 0,-2.99416 2.42719,-5.42133 5.42133,-5.42133 2.99414,0 5.42133,2.42717 5.42133,5.42133 z"
       style="fill:#006395;fill-opacity:1;fill-rule:nonzero;stroke:#4c4c4c;stroke-width:0.74721;stroke-linecap:butt;stroke-linejoin:miter;stroke-miterlimit:10;stroke-dasharray:none;stroke-opacity:1"
       transform="matrix(1.3333333,0,0,-1.3333333,19.378667,129.71067)" />
    <path
       id="path7"
       d="m 30.15125,36.14165 c 0,2.99415 -2.42717,5.42132 -5.42133,5.42132 -2.99416,0 -5.42132,-2.42717 -5.42132,-5.42132 0,-2.99416 2.42716,-5.42133 5.42132,-5.42133 2.99416,0 5.42133,2.42717 5.42133,5.42133 z"
       style="fill:#006395;fill-opacity:1;fill-rule:nonzero;stroke:#4c4c4c;stroke-width:0.74721;stroke-linecap:butt;stroke-linejoin:miter;stroke-miterlimit:10;stroke-dasharray:none;stroke-opacity:1"
       transform="matrix(1.3333333,0,0,-1.3333333,19.378667,129.71067)" />
    <path
       id="path8"
       d="m 78.97562,36.14087 c 0,2.99416 -2.42717,5.42133 -5.42133,5.42133 -2.99416,0 -5.42132,-2.42717 -5.42132,-5.42133 0,-2.99416 2.42716,-5.42133 5.42132,-5.42133 2.99416,0 5.42133,2.42717 5.42133,5.42133 z"
       style="fill:#006395;fill-opacity:1;fill-rule:nonzero;stroke:#4c4c4c;stroke-width:0.74721;stroke-linecap:butt;stroke-linejoin:miter;stroke-miterlimit:10;stroke-dasharray:none;stroke-opacity:1"
       transform="matrix(1.3333333,0,0,-1.3333333,19.378667,129.71067)" />
    <path
       id="path9"
       d="m 103.704,36.14009 c 0,2.99416 -2.42718,5.42134 -5.42133,5.42134 -2.99416,0 -5.42133,-2.42718 -5.42133,-5.42134 0,-2.99414 2.42717,-5.42132 5.42133,-5.42132 2.99415,0 5.42133,2.42718 5.42133,5.42132 z"
       style="fill:#006395;fill-opacity:1;fill-rule:nonzero;stroke:#4c4c4c;stroke-width:0.74721;stroke-linecap:butt;stroke-linejoin:miter;stroke-miterlimit:10;stroke-dasharray:none;stroke-opacity:1"
       transform="matrix(1.3333333,0,0,-1.3333333,19.378667,129.71067)" />
    <path
       id="path10"
       d="m -1.2048,4.8189 h -9.63782 v -9.6378 h 9.63782 z"
       style="fill:#d1e6f3;fill-opacity:1;fill-rule:nonzero;stroke:#4c4c4c;stroke-width:0.74721;stroke-linecap:butt;stroke-linejoin:miter;stroke-miterlimit:10;stroke-dasharray:none;stroke-opacity:1"
       transform="matrix(1.3333333,0,0,-1.3333333,19.378667,129.71067)" />
    <path
       id="path11"
       d="m 11.47778,4.8189 h -9.6378 v -9.6378 h 9.6378 z"
       style="fill:#d1e6f3;fill-opacity:1;fill-rule:nonzero;stroke:#4c4c4c;stroke-width:0.74721;stroke-linecap:butt;stroke-linejoin:miter;stroke-miterlimit:10;stroke-dasharray:none;stroke-opacity:1"
       transform="matrix(1.3333333,0,0,-1.3333333,19.378667,129.71067)" />
    <path
       id="path12"
       d="m 24.16011,4.8189 h -9.6378 v -9.6378 h 9.6378 z"
       style="fill:#d1e6f3;fill-opacity:1;fill-rule:nonzero;stroke:#4c4c4c;stroke-width:0.74721;stroke-linecap:butt;stroke-linejoin:miter;stroke-miterlimit:10;stroke-dasharray:none;stroke-opacity:1"
       transform="matrix(1.3333333,0,0,-1.3333333,19.378667,129.71067)" />
    <path
       id="path13"
       d="m 36.84216,4.8189 h -9.6378 v -9.6378 h 9.6378 z"
       style="fill:#d1e6f3;fill-opacity:1;fill-rule:nonzero;stroke:#4c4c4c;stroke-width:0.74721;stroke-linecap:butt;stroke-linejoin:miter;stroke-miterlimit:10;stroke-dasharray:none;stroke-opacity:1"
       transform="matrix(1.3333333,0,0,-1.3333333,19.378667,129.71067)" />
    <path
       id="path14"
       d="m 71.08003,4.8189 h -9.6378 v -9.6378 h 9.6378 z"
       style="fill:#d1e6f3;fill-opacity:1;fill-rule:nonzero;stroke:#4c4c4c;stroke-width:0.74721;stroke-linecap:butt;stroke-linejoin:miter;stroke-miterlimit:10;stroke-dasharray:none;stroke-opacity:1"
       transform="matrix(1.3333333,0,0,-1.3333333,19.378667,129.71067)" />
    <path
       id="path15"
       d="M 83.7611,4.8189 H 74.12329 V -4.8189 H 83.7611 Z"
       style="fill:#d1e6f3;fill-opacity:1;fill-rule:nonzero;stroke:#4c4c4c;stroke-width:0.74721;stroke-linecap:butt;stroke-linejoin:miter;stroke-miterlimit:10;stroke-dasharray:none;stroke-opacity:1"
       transform="matrix(1.3333333,0,0,-1.3333333,19.378667,129.71067)" />
    <path
       id="path16"
       d="M 96.4419,4.8189 H 86.80408 V -4.8189 H 96.4419 Z"
       style="fill:#d1e6f3;fill-opacity:1;fill-rule:nonzero;stroke:#4c4c4c;stroke-width:0.74721;stroke-linecap:butt;stroke-linejoin:miter;stroke-miterlimit:10;stroke-dasharray:none;stroke-opacity:1"
       transform="matrix(1.3333333,0,0,-1.3333333,19.378667,129.71067)" />
    <path
       id="path17"
       d="m 109.12242,4.8189 h -9.6378 v -9.6378 h 9.6378 z"
       style="fill:#d1e6f3;fill-opacity:1;fill-rule:nonzero;stroke:#4c4c4c;stroke-width:0.74721;stroke-linecap:butt;stroke-linejoin:miter;stroke-miterlimit:10;stroke-dasharray:none;stroke-opacity:1"
       transform="matrix(1.3333333,0,0,-1.3333333,19.378667,129.71067)" />
    <path
       id="path18"
       d="M 10.23254,66.83931 1.81462,41.58568"
       style="fill:none;stroke:#999999;stroke-width:0.99628;stroke-linecap:butt;stroke-linejoin:miter;stroke-miterlimit:10;stroke-dasharray:none;stroke-opacity:1"
       transform="matrix(1.3333333,0,0,-1.3333333,19.378667,129.71067)" />
    <path
       id="path19"
       d="m 13.94702,66.86841 8.88226,-25.3127"
       style="fill:none;stroke:#999999;stroke-width:0.99628;stroke-linecap:butt;stroke-linejoin:miter;stroke-miterlimit:10;stroke-dasharray:none;stroke-opacity:1"
       transform="matrix(1.3333333,0,0,-1.3333333,19.378667,129.71067)" />
    <path
       id="path20"
       d="M 16.99452,69.37589 68.60522,39.04738"
       style="fill:none;stroke:#999999;stroke-width:0.99628;stroke-linecap:butt;stroke-linejoin:miter;stroke-miterlimit:10;stroke-dasharray:none;stroke-opacity:1"
       transform="matrix(1.3333333,0,0,-1.3333333,19.378667,129.71067)" />
    <path
       id="path21"
       d="M 17.33961,70.06502 92.98817,38.35745"
       style="fill:none;stroke:#999999;stroke-width:0.99628;stroke-linecap:butt;stroke-linejoin:miter;stroke-miterlimit:10;stroke-dasharray:none;stroke-opacity:1"
       transform="matrix(1.3333333,0,0,-1.3333333,19.378667,129.71067)" />
    <path
       id="path22"
       d="M 32.6835,68.25961 4.09291,40.16376"
       style="fill:none;stroke:#999999;stroke-width:0.99628;stroke-linecap:butt;stroke-linejoin:miter;stroke-miterlimit:10;stroke-dasharray:none;stroke-opacity:1"
       transform="matrix(1.3333333,0,0,-1.3333333,19.378667,129.71067)" />
    <path
       id="path23"
       d="M 34.9617,66.83777 26.54404,41.5849"
       style="fill:none;stroke:#999999;stroke-width:0.99628;stroke-linecap:butt;stroke-linejoin:miter;stroke-miterlimit:10;stroke-dasharray:none;stroke-opacity:1"
       transform="matrix(1.3333333,0,0,-1.3333333,19.378667,129.71067)" />
    <path
       id="path24"
       d="M 40.86902,68.25954 69.4598,40.1622"
       style="fill:none;stroke:#999999;stroke-width:0.99628;stroke-linecap:butt;stroke-linejoin:miter;stroke-miterlimit:10;stroke-dasharray:none;stroke-opacity:1"
       transform="matrix(1.3333333,0,0,-1.3333333,19.378667,129.71067)" />
    <path
       id="path25"
       d="M 41.72368,69.37434 93.33308,39.04652"
       style="fill:none;stroke:#999999;stroke-width:0.99628;stroke-linecap:butt;stroke-linejoin:miter;stroke-miterlimit:10;stroke-dasharray:none;stroke-opacity:1"
       transform="matrix(1.3333333,0,0,-1.3333333,19.378667,129.71067)" />
    <path
       id="path26"
       d="M 56.5574,69.37315 4.94768,39.04858"
       style="fill:none;stroke:#999999;stroke-width:0.99628;stroke-linecap:butt;stroke-linejoin:miter;stroke-miterlimit:10;stroke-dasharray:none;stroke-opacity:1"
       transform="matrix(1.3333333,0,0,-1.3333333,19.378667,129.71067)" />
    <path
       id="path27"
       d="M 57.41214,68.25815 28.82233,40.16298"
       style="fill:none;stroke:#999999;stroke-width:0.99628;stroke-linecap:butt;stroke-linejoin:miter;stroke-miterlimit:10;stroke-dasharray:none;stroke-opacity:1"
       transform="matrix(1.3333333,0,0,-1.3333333,19.378667,129.71067)" />
    <path
       id="path28"
       d="M 63.31944,66.83618 71.73775,41.58403"
       style="fill:none;stroke:#999999;stroke-width:0.99628;stroke-linecap:butt;stroke-linejoin:miter;stroke-miterlimit:10;stroke-dasharray:none;stroke-opacity:1"
       transform="matrix(1.3333333,0,0,-1.3333333,19.378667,129.71067)" />
    <path
       id="path29"
       d="M 65.59767,68.25789 94.18755,40.16142"
       style="fill:none;stroke:#999999;stroke-width:0.99628;stroke-linecap:butt;stroke-linejoin:miter;stroke-miterlimit:10;stroke-dasharray:none;stroke-opacity:1"
       transform="matrix(1.3333333,0,0,-1.3333333,19.378667,129.71067)" />
    <path
       id="path30"
       d="M 80.94058,70.06085 5.2925,38.35944"
       style="fill:none;stroke:#999999;stroke-width:0.99628;stroke-linecap:butt;stroke-linejoin:miter;stroke-miterlimit:10;stroke-dasharray:none;stroke-opacity:1"
       transform="matrix(1.3333333,0,0,-1.3333333,19.378667,129.71067)" />
    <path
       id="path31"
       d="M 81.2855,69.37163 29.67706,39.0478"
       style="fill:none;stroke:#999999;stroke-width:0.99628;stroke-linecap:butt;stroke-linejoin:miter;stroke-miterlimit:10;stroke-dasharray:none;stroke-opacity:1"
       transform="matrix(1.3333333,0,0,-1.3333333,19.378667,129.71067)" />
    <path
       id="path32"
       d="M 84.333,66.86388 75.45256,41.55502"
       style="fill:none;stroke:#999999;stroke-width:0.99628;stroke-linecap:butt;stroke-linejoin:miter;stroke-miterlimit:10;stroke-dasharray:none;stroke-opacity:1"
       transform="matrix(1.3333333,0,0,-1.3333333,19.378667,129.71067)" />
    <path
       id="path33"
       d="M 88.04747,66.83455 96.4655,41.58325"
       style="fill:none;stroke:#999999;stroke-width:0.99628;stroke-linecap:butt;stroke-linejoin:miter;stroke-miterlimit:10;stroke-dasharray:none;stroke-opacity:1"
       transform="matrix(1.3333333,0,0,-1.3333333,19.378667,129.71067)" />
    <path
       id="path34"
       d="M -0.9433,30.48126 -5.1679,5.13635"
       style="fill:none;stroke:#666666;stroke-width:0.99628;stroke-linecap:butt;stroke-linejoin:miter;stroke-miterlimit:10;stroke-dasharray:none;stroke-opacity:1"
       transform="matrix(1.3333333,0,0,-1.3333333,19.378667,129.71067)" />
    <path
       id="path35"
       d="M 1.03964,30.49817 5.71284,5.13635"
       style="fill:none;stroke:#666666;stroke-width:0.99628;stroke-linecap:butt;stroke-linejoin:miter;stroke-miterlimit:10;stroke-dasharray:none;stroke-opacity:1"
       transform="matrix(1.3333333,0,0,-1.3333333,19.378667,129.71067)" />
    <path
       id="path36"
       d="M 23.88298,30.46526 20.10619,5.13635"
       style="fill:none;stroke:#666666;stroke-width:0.99628;stroke-linecap:butt;stroke-linejoin:miter;stroke-miterlimit:10;stroke-dasharray:none;stroke-opacity:1"
       transform="matrix(1.3333333,0,0,-1.3333333,19.378667,129.71067)" />
    <path
       id="path37"
       d="M 25.86441,30.51578 30.98648,5.13635"
       style="fill:none;stroke:#666666;stroke-width:0.99628;stroke-linecap:butt;stroke-linejoin:miter;stroke-miterlimit:10;stroke-dasharray:none;stroke-opacity:1"
       transform="matrix(1.3333333,0,0,-1.3333333,19.378667,129.71067)" />
    <path
       id="path38"
       d="M 72.41725,30.51509 67.29552,5.13635"
       style="fill:none;stroke:#666666;stroke-width:0.99628;stroke-linecap:butt;stroke-linejoin:miter;stroke-miterlimit:10;stroke-dasharray:none;stroke-opacity:1"
       transform="matrix(1.3333333,0,0,-1.3333333,19.378667,129.71067)" />
    <path
       id="path39"
       d="M 74.39842,30.46439 78.17497,5.13635"
       style="fill:none;stroke:#666666;stroke-width:0.99628;stroke-linecap:butt;stroke-linejoin:miter;stroke-miterlimit:10;stroke-dasharray:none;stroke-opacity:1"
       transform="matrix(1.3333333,0,0,-1.3333333,19.378667,129.71067)" />
    <path
       id="path40"
       d="M 97.2403,30.49593 92.56677,5.13635"
       style="fill:none;stroke:#666666;stroke-width:0.99628;stroke-linecap:butt;stroke-linejoin:miter;stroke-miterlimit:10;stroke-dasharray:none;stroke-opacity:1"
       transform="matrix(1.3333333,0,0,-1.3333333,19.378667,129.71067)" />
    <path
       id="path41"
       d="M 99.22314,30.47885 103.4457,5.13635"
       style="fill:none;stroke:#666666;stroke-width:0.99628;stroke-linecap:butt;stroke-linejoin:miter;stroke-miterlimit:10;stroke-dasharray:none;stroke-opacity:1"
       transform="matrix(1.3333333,0,0,-1.3333333,19.378667,129.71067)" />
    <path
       id="path42"
       d="M 6.1089522,-4.3166268 C 6.0675919,-4.8818842 5.9572978,-5.2403401 5.6677757,-5.6125827 5.1714522,-6.2743474 4.3718199,-6.6465901 3.3929596,-6.6465901 c -1.8474265,0 -2.99172798,1.3235294 -2.99172798,3.4329044 0,2.0955883 1.13051468,3.41911769 2.95036768,3.41911769 1.6268382,0 2.7022058,-0.9375 2.7849264,-2.44025739 H 4.8267831 c -0.082721,0.8409927 -0.6066177,1.30974268 -1.4338235,1.30974268 -1.0477942,0 -1.6544118,-0.84099268 -1.6544118,-2.26102938 0,-1.4476103 0.6341912,-2.3023897 1.6957721,-2.3023897 0.46875,0 0.8547794,0.1516544 1.1029411,0.46875 0.1378677,0.1792279 0.2068015,0.3446691 0.2895221,0.703125 z m 2.2817096,3.0055147 H 7.0533456 v 1.30974261 h 1.3373162 z m 5.1148892,-1.2821692 h 1.544118 c 0.592831,0 0.840993,0.234375 0.840993,0.7858456 0,0.055147 0,0.1378677 -0.01379,0.2619486 -0.01379,0.1654411 -0.01379,0.3308823 -0.01379,0.4273897 0,0.60661762 0.04136,0.79963233 0.206802,1.11672791 h 1.44761 v -0.24816176 c -0.206801,-0.11029412 -0.289522,-0.24816176 -0.289522,-0.53768382 -0.02757,-1.91636033 -0.06893,-2.01286763 -0.89614,-2.37132353 0.730699,-0.2895221 1.102941,-0.8134191 1.102941,-1.6130515 0,-0.5101103 -0.179228,-0.992647 -0.496323,-1.3097426 -0.303309,-0.3033088 -0.716912,-0.4549633 -1.268382,-0.4549633 h -3.501839 v 6.53492651 h 1.337316 z m 0,-1.1167279 V -5.419568 h 1.626839 c 0.386029,0 0.55147,0.04136 0.703125,0.1792279 0.165441,0.1378677 0.248161,0.3584559 0.248161,0.6617647 0,0.3170956 -0.08272,0.5652574 -0.248161,0.703125 -0.137868,0.1240809 -0.317096,0.1654412 -0.703125,0.1654412 z m 9.119945,3.5569853 C 22.391121,-0.35982537 22.335974,-0.49769301 22.335974,-0.74585478 V -3.4342739 c 0,-0.9788603 -0.675551,-1.4889706 -1.985294,-1.4889706 -1.309742,0 -1.985294,0.5514706 -2.068015,1.6819853 h 1.213236 c 0.05515,-0.5101103 0.261948,-0.6617647 0.882353,-0.6617647 0.482536,0 0.730698,0.1516544 0.730698,0.4825368 0,0.1516544 -0.08272,0.3033088 -0.220588,0.3722426 -0.165441,0.096507 -0.165441,0.096507 -0.785846,0.1930147 l -0.496323,0.082721 c -0.965074,0.1654412 -1.433824,0.6617647 -1.433824,1.5303309 0,0.41360293 0.124081,0.74448529 0.344669,0.99264705 0.275736,0.28952206 0.703125,0.45496324 1.130515,0.45496324 0.537684,0 1.034008,-0.234375 1.461397,-0.68933824 0,0.24816176 0.02757,0.34466912 0.151655,0.48253676 h 1.364889 z m -1.516544,-1.7922794 c 0,0.7306985 -0.358456,1.14430146 -0.992647,1.14430146 -0.42739,0 -0.689338,-0.23437496 -0.689338,-0.59283086 0,-0.3722427 0.193015,-0.5514706 0.716912,-0.6617647 l 0.427389,-0.082721 c 0.330883,-0.055147 0.38603,-0.082721 0.537684,-0.1516544 z m 3.660386,-2.8952206 h -1.254595 v 4.83915441 h 1.254595 z m 0,-1.6957721 h -1.254595 v 1.116728 h 1.254595 z m 2.491958,0 H 26.0067 v 6.53492651 h 1.254596 z m 3.308823,3.4742647 h -2.440257 v 1.1994486 h 2.440257 z m 3.798254,-3.5845588 c -0.909926,0 -1.654412,0.3033088 -2.219669,0.9099265 -0.579044,0.6341912 -0.909926,1.5441176 -0.909926,2.5229779 0,0.9788603 0.330882,1.8887868 0.909926,2.50919121 0.565257,0.62040442 1.309743,0.90992648 2.233456,0.90992648 0.9375,0 1.668198,-0.28952206 2.233456,-0.90992648 0.565257,-0.59283091 0.909926,-1.54411761 0.909926,-2.46783091 0,-1.0202206 -0.330882,-1.930147 -0.909926,-2.5643382 -0.579044,-0.6204044 -1.295956,-0.9099265 -2.247243,-0.9099265 z m 0.01379,1.1580883 c 1.102941,0 1.806066,0.8961397 1.806066,2.3023897 0,1.3373161 -0.730698,2.24724261 -1.806066,2.24724261 -1.089154,0 -1.806066,-0.90992651 -1.806066,-2.27481621 0,-1.3786764 0.716912,-2.2748161 1.806066,-2.2748161 z m 5.252757,0.6479779 h -1.254595 v 6.796875 h 1.254595 v -2.5367647 c 0.303309,0.53768382 0.730699,0.79963235 1.337316,0.79963235 1.171875,0 2.026655,-1.10294118 2.026655,-2.56433825 0,-0.6893382 -0.193015,-1.3648897 -0.523897,-1.8198529 -0.317096,-0.4549633 -0.923713,-0.7582721 -1.502758,-0.7582721 -0.606617,0 -1.034007,0.2619485 -1.337316,0.7996324 z m 1.047794,0.9650735 c 0.647978,0 1.061581,0.6204044 1.061581,1.5441177 0,0.8823529 -0.441176,1.50275733 -1.061581,1.50275733 -0.620404,0 -1.047794,-0.62040443 -1.047794,-1.51654413 0,-0.9099265 0.42739,-1.5303309 1.047794,-1.5303309 z m 5.352712,-0.8685661 h -0.703125 v -1.2959559 h -1.254596 v 1.2959559 h -0.620404 v 0.8409926 h 0.620404 v 2.96415441 c 0,0.77205883 0.399816,1.14430148 1.227022,1.14430148 0.275736,0 0.496324,-0.0275735 0.730699,-0.0965074 v -0.88235294 c -0.124081,0.0137868 -0.206802,0.0275735 -0.289522,0.0275735 -0.330883,0 -0.413603,-0.0965073 -0.413603,-0.52389705 V -3.903024 h 0.703125 z m 2.147288,-0.096507 h -1.254595 v 4.83915441 h 1.254595 z m 0,-1.6957721 h -1.254595 v 1.116728 h 1.254595 z m 1.168429,1.6957721 v 4.83915441 h 1.254595 V -2.9103768 c 0,-0.5790442 0.317096,-0.9375 0.85478,-0.9375 0.427389,0 0.689338,0.234375 0.689338,0.6204044 v 3.22610291 h 1.254596 V -2.9103768 c 0,-0.5790442 0.317095,-0.9375 0.854779,-0.9375 0.42739,0 0.689338,0.234375 0.689338,0.6204044 v 3.22610291 h 1.254596 V -3.4204871 c 0,-0.9512868 -0.579044,-1.5027574 -1.544118,-1.5027574 -0.606618,0 -1.047794,0.2205882 -1.420037,0.7169118 -0.234375,-0.4549633 -0.716911,-0.7169118 -1.309742,-0.7169118 -0.565258,0 -0.923714,0.1930147 -1.337316,0.6893382 v -0.6066176 z m 9.295726,0 H 57.39227 v 4.83915441 h 1.254596 z m 0,-1.6957721 H 57.39227 v 1.116728 h 1.254596 z m 4.7392,1.6957721 h -3.763787 v 1.0064338 h 2.233456 l -2.38511,2.8262868 v 1.00643381 H 63.46879 V -1.0078033 h -2.454044 l 2.371323,-2.8262868 z m 5.163144,2.8125 c 0,-0.1102941 0,-0.1516544 0,-0.2068015 0,-0.4963235 -0.06893,-0.9375 -0.179228,-1.2821691 -0.330883,-0.8685662 -1.102942,-1.40625 -2.081802,-1.40625 -1.392463,0 -2.247242,1.0064338 -2.247242,2.6332721 0,1.54411762 0.840992,2.49540439 2.219669,2.49540439 1.075367,0 1.95772,-0.62040442 2.233456,-1.57169119 H 67.26704 c -0.151654,0.38602942 -0.51011,0.60661766 -0.965073,0.60661766 -0.358456,0 -0.647978,-0.15165442 -0.827206,-0.41360296 -0.110294,-0.1792279 -0.151654,-0.3998162 -0.179228,-0.8547794 z M 65.32311,-2.8552294 c 0.06893,-0.7444853 0.386029,-1.1029412 0.9375,-1.1029412 0.317095,0 0.606617,0.1516545 0.785845,0.3998162 0.110294,0.179228 0.165441,0.3722427 0.193015,0.703125 z m 7.138097,2.85386031 H 73.7158 V -6.536296 h -1.254596 v 2.3299633 c -0.317096,-0.4963236 -0.730698,-0.7169118 -1.337316,-0.7169118 -1.144302,0 -2.026655,1.116728 -2.026655,2.578125 0,0.647978 0.193015,1.3097427 0.523898,1.77849266 0.330882,0.46875 0.909926,0.77205883 1.502757,0.77205883 0.606618,0 1.02022,-0.22058824 1.337316,-0.703125 z M 71.41341,-3.8754504 c 0.634191,0 1.047794,0.6204044 1.047794,1.5441177 0,0.8823529 -0.42739,1.48897057 -1.047794,1.48897057 -0.634191,0 -1.061581,-0.62040437 -1.061581,-1.50275737 0,-0.8961397 0.42739,-1.5303309 1.061581,-1.5303309 z m 0,0"
       style="fill:#cb202d;fill-opacity:1;fill-rule:nonzero;stroke:none"
       aria-label="C.Rail-Optimized"
       transform="matrix(1.1333333,0,0,1.1333333,218.20933,11.177333)" />
    <path
       id="path43"
       d="m 151.03685,72.28487 c 0,3.57171 -2.89537,6.46708 -6.46709,6.46708 -3.57173,0 -6.46708,-2.89537 -6.46708,-6.46708 0,-3.57172 2.89535,-6.46709 6.46708,-6.46709 3.57172,0 6.46709,2.89537 6.46709,6.46709 z"
       style="fill:#e67817;fill-opacity:1;fill-rule:nonzero;stroke:#4c4c4c;stroke-width:0.74721;stroke-linecap:butt;stroke-linejoin:miter;stroke-miterlimit:10;stroke-dasharray:none;stroke-opacity:1"
       transform="matrix(1.3333333,0,0,-1.3333333,19.378667,129.71067)" />
    <path
       id="path44"
       d="m 5.3907537,-0.49515625 c 0,-0.15165441 -0.1102941,-0.15165441 -0.2205883,-0.15165441 -0.08272,0 -0.1930147,0 -0.1930147,0.12408088 -0.027573,0.27573529 -0.1930147,0.33088235 -0.3033088,0.33088235 -0.2481618,0 -0.3860294,-0.1930147 -0.4273897,-0.45496323 L 4.1637316,-1.0466268 C 4.1361581,-1.1982813 4.081011,-1.5015901 3.6536213,-1.6946048 4.2464522,-1.860046 4.5084007,-2.149568 4.5084007,-2.4666636 c 0,-0.5376838 -0.7444853,-0.9512868 -1.8336397,-0.9512868 H 0.48266544 v 0.3446691 H 1.0065625 v 2.74356623 H 0.48266544 V 0.00116728 L 1.3788051,-0.01261949 2.2749449,0.00116728 V -0.32971507 H 1.737261 V -1.5705239 h 0.8409927 c 0.1654412,0 0.4136029,0.027573 0.6066176,0.1654412 0.1930147,0.1240809 0.1930147,0.2481617 0.1930147,0.5376838 0,0.38602941 0,0.64797794 0.3998162,0.82720589 0.1792279,0.08272058 0.4963235,0.12408088 0.8409927,0.12408088 0.6893382,0 0.7720588,-0.48253677 0.7720588,-0.57904412 z M 3.6536213,-2.4666636 c 0,0.3860294 -0.2205882,0.6204044 -1.0064338,0.6204044 H 1.737261 v -1.2270221 h 0.9099265 c 0.7720588,0 1.0064338,0.2068015 1.0064338,0.6066177 z m 5.245864,0.8961397 c 0,-0.8409926 -0.2068015,-1.7233456 -1.5165441,-1.7233456 -1.3097427,0 -1.5303309,0.8547794 -1.5303309,1.7233456 0,0.88235294 0.2619485,1.65441177 1.5303309,1.65441177 1.2821691,0 1.5165441,-0.79963236 1.5165441,-1.65441177 z M 8.155,-1.6532445 c 0,0.3033088 0,0.77205884 -0.068934,1.0202206 -0.1240809,0.39981618 -0.5238971,0.44117647 -0.703125,0.44117647 -0.1930147,0 -0.6066177,-0.0551471 -0.703125,-0.45496323 C 6.610882,-0.89497243 6.610882,-1.2947886 6.610882,-1.6532445 c 0,-0.3584559 0,-0.758272 0.08272,-0.992647 0.082721,-0.2205883 0.3446692,-0.3584559 0.6893383,-0.3584559 0.289522,0 0.5928309,0.096507 0.6893382,0.3860294 C 8.155,-2.3977298 8.155,-1.9841268 8.155,-1.6532445 Z m 0,0"
       style="fill:#ffffff;fill-opacity:1;fill-rule:nonzero;stroke:none"
       aria-label="R0"
       transform="matrix(1.1333333,0,0,1.1333333,206.88267,35.221333)" />
    <path
       id="path45"
       d="m 177.85828,72.28333 c 0,3.57173 -2.89538,6.4671 -6.46709,6.4671 -3.57172,0 -6.46709,-2.89537 -6.46709,-6.4671 0,-3.57172 2.89537,-6.46709 6.46709,-6.46709 3.57171,0 6.46709,2.89537 6.46709,6.46709 z"
       style="fill:#e67817;fill-opacity:1;fill-rule:nonzero;stroke:#4c4c4c;stroke-width:0.74721;stroke-linecap:butt;stroke-linejoin:miter;stroke-miterlimit:10;stroke-dasharray:none;stroke-opacity:1"
       transform="matrix(1.3333333,0,0,-1.3333333,19.378667,129.71067)" />
    <path
       id="path46"
       d="m 5.3910938,-0.49633272 c 0,-0.15165441 -0.1102942,-0.15165441 -0.2205883,-0.15165441 -0.082721,0 -0.1930147,0 -0.1930147,0.12408088 -0.027573,0.27573529 -0.1930147,0.33088235 -0.3033088,0.33088235 -0.2481618,0 -0.3860294,-0.1930147 -0.4273897,-0.45496323 L 4.1640717,-1.0478033 c -0.027573,-0.1516544 -0.082721,-0.4549632 -0.5101103,-0.6479779 0.5928309,-0.1654412 0.8547794,-0.4549633 0.8547794,-0.7720589 0,-0.5376838 -0.7444853,-0.9512867 -1.8336397,-0.9512867 H 0.48300551 v 0.3446691 H 1.0069026 v 2.74356616 H 0.48300551 V -9.1911765e-6 L 1.3791452,-0.01379596 2.2752849,-9.1911765e-6 V -0.33089154 H 1.7376011 V -1.5717004 h 0.8409927 c 0.1654411,0 0.4136029,0.027574 0.6066176,0.1654412 0.1930147,0.1240809 0.1930147,0.2481618 0.1930147,0.53768383 0,0.38602941 0,0.64797794 0.3998162,0.82720588 0.1792279,0.08272059 0.4963235,0.12408089 0.8409926,0.12408089 0.6893383,0 0.7720589,-0.48253677 0.7720589,-0.57904412 z M 3.6539614,-2.4678401 c 0,0.3860294 -0.2205882,0.6204044 -1.0064338,0.6204044 H 1.7376011 v -1.227022 h 0.9099265 c 0.7720588,0 1.0064338,0.2068015 1.0064338,0.6066176 z M 8.6792371,-9.1911765e-6 V -0.33089154 H 7.7830974 V -3.1020312 c 0,-0.1516545 -0.027573,-0.1930148 -0.1930147,-0.1930148 H 7.4797886 c -0.4136029,0.3170956 -1.0615809,0.3170956 -1.171875,0.3170956 H 6.170046 v 0.3446692 h 0.1378676 c 0.055147,0 0.4411765,0 0.7996324,-0.1240809 v 2.42647056 H 6.2114063 V -9.1911765e-6 C 6.459568,-0.01379596 7.162693,-0.01379596 7.4522151,-0.01379596 c 0.2757353,0 0.9788603,0 1.227022,0.013786768823 z m 0,0"
       style="fill:#ffffff;fill-opacity:1;fill-rule:nonzero;stroke:none"
       aria-label="R1"
       transform="matrix(1.1333333,0,0,1.1333333,242.644,35.222667)" />
    <path
       id="path47"
       d="m 204.67914,72.2818 c 0,3.57172 -2.89537,6.46709 -6.46709,6.46709 -3.57171,0 -6.46709,-2.89537 -6.46709,-6.46709 0,-3.57172 2.89538,-6.46709 6.46709,-6.46709 3.57172,0 6.46709,2.89537 6.46709,6.46709 z"
       style="fill:#e67817;fill-opacity:1;fill-rule:nonzero;stroke:#4c4c4c;stroke-width:0.74721;stroke-linecap:butt;stroke-linejoin:miter;stroke-miterlimit:10;stroke-dasharray:none;stroke-opacity:1"
       transform="matrix(1.3333333,0,0,-1.3333333,19.378667,129.71067)" />
    <path
       id="path48"
       d="m 5.3891636,-0.49523897 c 0,-0.15165441 -0.1102941,-0.15165441 -0.2205882,-0.15165441 -0.082721,0 -0.1930147,0 -0.1930147,0.12408088 -0.027574,0.27573529 -0.1930147,0.33088235 -0.3033089,0.33088235 -0.2481617,0 -0.3860294,-0.1930147 -0.4273897,-0.45496323 L 4.1621415,-1.0467096 C 4.134568,-1.198364 4.079421,-1.5016728 3.6520313,-1.6946875 c 0.5928308,-0.1654412 0.8547794,-0.4549632 0.8547794,-0.7720588 0,-0.5376838 -0.7444853,-0.9512868 -1.8336397,-0.9512868 H 0.48107537 V -3.073364 H 1.0049724 v 2.74356621 H 0.48107537 V 0.00108456 L 1.3772151,-0.01270221 2.2733548,0.00108456 V -0.32979779 H 1.735671 V -1.5706066 h 0.8409926 c 0.1654412,0 0.4136029,0.027574 0.6066177,0.1654412 0.1930147,0.1240808 0.1930147,0.2481617 0.1930147,0.53768378 0,0.38602941 0,0.64797794 0.3998161,0.82720588 0.179228,0.08272059 0.4963236,0.12408089 0.8409927,0.12408089 0.6893382,0 0.7720588,-0.48253677 0.7720588,-0.57904412 z M 3.6520313,-2.4667463 c 0,0.3860294 -0.2205883,0.6204044 -1.0064339,0.6204044 H 1.735671 V -3.073364 h 0.9099264 c 0.7720589,0 1.0064339,0.2068015 1.0064339,0.6066177 z m 5.1803768,1.4200367 h -0.413603 c -0.04136,0.19301475 -0.1102941,0.31709563 -0.1516544,0.33088239 -0.1240808,0.0137868 -0.3308823,0.0137868 -0.5101103,0.0137868 H 7.0125551 c 0.3308824,-0.20680147 0.6341912,-0.39981619 0.8409927,-0.51011029 0.5652573,-0.3033089 0.9788603,-0.5376839 0.9788603,-1.0615809 0,-0.6066177 -0.5790441,-1.0202206 -1.5579044,-1.0202206 -0.234375,0 -1.3373162,0.013787 -1.3373162,0.7444853 0,0.289522 0.2481618,0.4136029 0.4136029,0.4136029 0.1930147,0 0.413603,-0.1378676 0.413603,-0.4136029 0,-0.179228 -0.1102941,-0.2757353 -0.1378677,-0.3033088 0.179228,-0.096507 0.3722427,-0.096507 0.4825368,-0.096507 0.4825368,0 0.9237132,0.234375 0.9237132,0.6893382 0,0.3860295 -0.3033088,0.6755515 -0.6204044,0.9099265 l -1.3924632,1.00643387 c -0.082721,0.0551471 -0.082721,0.0827206 -0.082721,0.19301471 v 0.15165441 h 2.6884191 z m 0,0"
       style="fill:#ffffff;fill-opacity:1;fill-rule:nonzero;stroke:none"
       aria-label="R2"
       transform="matrix(1.1333333,0,0,1.1333333,278.404,35.225333)" />
    <path
       id="path49"
       d="m 231.49945,72.28026 c 0,3.57171 -2.89537,6.46708 -6.4671,6.46708 -3.57172,0 -6.46709,-2.89537 -6.46709,-6.46708 0,-3.57172 2.89537,-6.46709 6.46709,-6.46709 3.57173,0 6.4671,2.89537 6.4671,6.46709 z"
       style="fill:#e67817;fill-opacity:1;fill-rule:nonzero;stroke:#4c4c4c;stroke-width:0.74721;stroke-linecap:butt;stroke-linejoin:miter;stroke-miterlimit:10;stroke-dasharray:none;stroke-opacity:1"
       transform="matrix(1.3333333,0,0,-1.3333333,19.378667,129.71067)" />
    <path
       id="path50"
       d="m 5.3906801,-0.49641544 c 0,-0.15165441 -0.1102941,-0.15165441 -0.2205882,-0.15165441 -0.082721,0 -0.1930147,0 -0.1930147,0.12408088 -0.027573,0.27573529 -0.1930147,0.33088235 -0.3033088,0.33088235 -0.2481618,0 -0.3860294,-0.1930147 -0.4273897,-0.45496323 L 4.1636581,-1.047886 c -0.027573,-0.1516544 -0.082721,-0.4549633 -0.5101103,-0.647978 0.5928309,-0.1654411 0.8547794,-0.4549632 0.8547794,-0.7720588 0,-0.5376838 -0.7444853,-0.9512868 -1.8336397,-0.9512868 H 0.48259191 v 0.3446692 H 1.006489 v 2.74356614 H 0.48259191 V -9.1911765e-5 L 1.3787316,-0.01387868 2.2748713,-9.1911765e-5 V -0.33097426 H 1.7371875 V -1.5717831 h 0.8409926 c 0.1654412,0 0.413603,0.027573 0.6066177,0.1654412 0.1930147,0.1240809 0.1930147,0.2481618 0.1930147,0.53768381 0,0.38602941 0,0.64797794 0.3998162,0.82720588 0.1792279,0.08272059 0.4963235,0.12408089 0.8409926,0.12408089 0.6893383,0 0.7720588,-0.48253677 0.7720588,-0.57904412 z M 3.6535478,-2.4679228 c 0,0.3860294 -0.2205882,0.6204044 -1.0064338,0.6204044 H 1.7371875 v -1.227022 H 2.647114 c 0.7720588,0 1.0064338,0.2068014 1.0064338,0.6066176 z m 5.2320772,1.57169118 c 0,-0.44117648 -0.4136029,-0.73069848 -0.8961397,-0.85477938 0.3033088,-0.096507 0.6893382,-0.3446691 0.6893382,-0.7996324 0,-0.4136029 -0.4411764,-0.7444853 -1.3373161,-0.7444853 -0.7996324,0 -1.2545956,0.3446691 -1.2545956,0.8134191 0,0.2757353 0.2068014,0.3998162 0.3998161,0.3998162 0.2068015,0 0.3998162,-0.1516544 0.3998162,-0.3998162 0,-0.2481617 -0.1930147,-0.3446691 -0.1930147,-0.3584558 0.1930147,-0.1378677 0.4549632,-0.1654412 0.6204044,-0.1654412 0.4963236,0 0.5928309,0.2068015 0.5928309,0.4411765 0,0.2068014 -0.1240809,0.6479779 -0.7169118,0.6755514 -0.055147,0 -0.2757353,0.013787 -0.3170955,0.013787 -0.096507,0.027573 -0.096507,0.1102941 -0.096507,0.1378676 0,0.1378677 0.082721,0.1378677 0.1792279,0.1378677 h 0.3446692 c 0.6617647,0 0.7306985,0.4136029 0.7306985,0.68933822 0,0.24816176 -0.055147,0.68933823 -0.7306985,0.68933823 -0.096507,0 -0.4825368,-0.0137868 -0.7444853,-0.17922794 0.1102941,-0.0689338 0.1792279,-0.1930147 0.1792279,-0.35845588 0,-0.234375 -0.1792279,-0.42738973 -0.4273897,-0.42738973 -0.2481618,0 -0.4273897,0.179228 -0.4273897,0.44117649 0,0.49632353 0.4963235,0.82720589 1.4338235,0.82720589 1.2408088,0 1.5716912,-0.59283089 1.5716908,-0.9788605 z m 0,0"
       style="fill:#ffffff;fill-opacity:1;fill-rule:nonzero;stroke:none"
       aria-label="R3"
       transform="matrix(1.1333333,0,0,1.1333333,314.164,35.226667)" />
    <path
       id="path51"
       d="m 224.5001,12.04745 h -87.57583 c -1.10047,0 -1.99255,-0.89209 -1.99255,-1.99255 v -20.1098 c 0,-1.10046 0.89208,-1.99255 1.99255,-1.99255 h 87.57583 c 1.10047,0 1.99256,0.89209 1.99256,1.99255 v 20.1098 c 0,1.10046 -0.89209,1.99255 -1.99256,1.99255 z"
       style="fill:#f2f2f2;fill-opacity:1;fill-rule:nonzero;stroke:#808080;stroke-width:0.74721;stroke-linecap:butt;stroke-linejoin:miter;stroke-miterlimit:10;stroke-dasharray:none;stroke-opacity:1"
       transform="matrix(1.3333333,0,0,-1.3333333,19.378667,129.71067)" />
    <path
       id="path52"
       d="m 5.2811213,-3.0740625 v -0.3446691 l -0.7444853,0.027573 -0.758272,-0.027573 v 0.3446691 h 0.523897 v 2.09558824 L 1.8068566,-3.3497978 c -0.055147,-0.068934 -0.082721,-0.068934 -0.1792279,-0.068934 H 0.45575368 v 0.3446691 h 0.52389706 v 2.74356618 H 0.45575368 V 3.8602941e-4 L 1.2140257,-0.01340074 1.9722978,3.8602941e-4 V -0.33049632 H 1.434614 V -2.7983272 l 2.867647,2.72977941 C 4.371195,3.860294e-4 4.384982,3.860294e-4 4.4952757,3.860294e-4 h 0.068934 c 0.1516544,0 0.1930147,-0.0275735294 0.1930147,-0.1930147094 V -3.0740625 Z m 3.9499081,1.9990809 c 0,-0.5652574 -0.4411765,-1.1994485 -1.5992647,-1.1994485 -1.1856618,0 -1.5992647,0.6479779 -1.5992647,1.1994485 0,0.52389704 0.4273897,1.11672792 1.5992647,1.11672792 1.171875,0 1.5992647,-0.59283088 1.5992647,-1.11672792 z m -0.7444853,-0.068934 c 0,0.4136029 0,0.8823529 -0.8547794,0.8823529 -0.8547794,0 -0.8547794,-0.46875 -0.8547794,-0.8823529 0,-0.3860295 0,-0.8409927 0.8547794,-0.8409927 0.8547794,0 0.8547794,0.4549632 0.8547794,0.8409927 z M 13.4808,3.8602941e-4 V -0.33049632 c -0.330883,0 -0.358456,0 -0.358456,-0.19301471 V -3.4600919 l -0.992647,0.04136 v 0.3446691 c 0.330882,0 0.358456,0 0.358456,0.1930147 v 0.8409927 c -0.193015,-0.1102942 -0.496324,-0.2068015 -0.89614,-0.2068015 -1.061581,0 -1.557905,0.5514706 -1.557905,1.1443015 0,0.55147054 0.441177,1.14430142 1.488971,1.14430142 0.386029,0 0.703125,-0.11029411 0.9375,-0.24816176 V 0.04174632 Z M 12.460579,-0.66137868 c -0.261948,0.31709559 -0.579044,0.42738971 -0.868566,0.42738971 -0.799632,0 -0.799632,-0.59283088 -0.799632,-0.85477943 0,-0.2757353 0,-0.8823529 0.882352,-0.8823529 0.220589,0 0.46875,0.055147 0.675552,0.2205882 0.110294,0.082721 0.110294,0.096507 0.110294,0.1930147 z m 4.594439,0.11029412 c 0,-0.12408088 -0.110294,-0.12408088 -0.179228,-0.12408088 h -0.04136 c -0.09651,0 -0.137868,0 -0.179228,0.0689338 -0.05515,0.0965074 -0.193015,0.34466912 -0.716912,0.34466912 -0.634191,0 -0.965073,-0.24816176 -1.006433,-0.71691176 h 1.943933 c 0.09651,0 0.179228,0 0.179228,-0.16544112 0,-0.2895221 -0.110294,-0.6204045 -0.317095,-0.8134192 -0.220588,-0.1930147 -0.523897,-0.3170955 -1.020221,-0.3170955 -1.116728,0 -1.530331,0.6204044 -1.530331,1.1443014 0,0.53768383 0.413603,1.171875 1.640625,1.171875 0.124081,0 0.46875,0 0.758272,-0.12408088 0.344669,-0.13786765 0.46875,-0.39981618 0.46875,-0.46874998 z M 16.558695,-1.2404228 h -1.626838 c 0,-0.1792279 0.01379,-0.7444853 0.785845,-0.7444853 0.689338,0 0.813419,0.413603 0.840993,0.7444853 z M 23.103961,3.8602941e-4 V -0.33049632 H 22.207822 V -3.101636 c 0,-0.1516544 -0.02757,-0.1930147 -0.193015,-0.1930147 h -0.110294 c -0.413603,0.3170956 -1.061581,0.3170956 -1.171875,0.3170956 H 20.59477 v 0.3446691 h 0.137868 c 0.05515,0 0.441176,0 0.799632,-0.1240809 v 2.42647058 H 20.636131 V 3.8602941e-4 C 20.884292,-0.01340074 21.587417,-0.01340074 21.876939,-0.01340074 c 0.275736,0 0.978861,0 1.227022,0.0137867694 z m 0,0"
       style="fill:#000000;fill-opacity:1;fill-rule:nonzero;stroke:none"
       aria-label="Node1"
       transform="matrix(1.1333333,0,0,1.1333333,202.85067,131.648)" />
    <path
       id="path53"
       d="M 224.49933,-24.72978 H 136.9235 c -1.10047,0 -1.99256,-0.89208 -1.99256,-1.99256 v -20.10981 c 0,-1.10047 0.89209,-1.99255 1.99256,-1.99255 h 87.57583 c 1.10047,0 1.99255,0.89208 1.99255,1.99255 v 20.10981 c 0,1.10048 -0.89208,1.99256 -1.99255,1.99256 z"
       style="fill:#f2f2f2;fill-opacity:1;fill-rule:nonzero;stroke:#808080;stroke-width:0.74721;stroke-linecap:butt;stroke-linejoin:miter;stroke-miterlimit:10;stroke-dasharray:none;stroke-opacity:1"
       transform="matrix(1.3333333,0,0,-1.3333333,19.378667,129.71067)" />
    <path
       id="path54"
       d="m 5.2788511,-3.0736305 v -0.3446691 l -0.7444853,0.027573 -0.758272,-0.027573 v 0.3446691 h 0.523897 v 2.09558822 L 1.8045864,-3.3493658 c -0.055147,-0.068934 -0.082721,-0.068934 -0.1792279,-0.068934 H 0.45348346 v 0.3446691 h 0.52389705 v 2.74356616 H 0.45348346 V 8.1801471e-4 L 1.2117555,-0.01296875 1.9700276,8.1801471e-4 V -0.33006434 H 1.4323438 V -2.7978952 l 2.867647,2.72977939 C 4.3689248,8.180147e-4 4.3827118,8.180147e-4 4.4930055,8.180147e-4 h 0.068934 c 0.1516545,0 0.1930147,-0.0275735247 0.1930147,-0.1930147047 V -3.0736305 Z m 3.9533548,1.9990809 c 0,-0.5652574 -0.4411765,-1.1994486 -1.5992647,-1.1994486 -1.1856618,0 -1.5992647,0.647978 -1.5992647,1.1994486 0,0.52389703 0.4273897,1.11672791 1.5992647,1.11672791 1.171875,0 1.5992647,-0.59283088 1.5992647,-1.11672791 z m -0.7444853,-0.068934 c 0,0.41360299 0,0.88235299 -0.8547794,0.88235299 -0.8547794,0 -0.8547794,-0.46875 -0.8547794,-0.88235299 0,-0.3860294 0,-0.8409926 0.8547794,-0.8409926 0.8547794,0 0.8547794,0.4549632 0.8547794,0.8409926 z M 13.481976,8.1801471e-4 V -0.33006434 c -0.330882,0 -0.358456,0 -0.358456,-0.1930147 V -3.4596599 l -0.992647,0.04136 v 0.3446691 c 0.330883,0 0.358456,0 0.358456,0.1930147 v 0.8409926 c -0.193015,-0.1102941 -0.496323,-0.2068014 -0.89614,-0.2068014 -1.061581,0 -1.557904,0.5514706 -1.557904,1.1443014 0,0.55147063 0.441176,1.14430151 1.488971,1.14430151 0.386029,0 0.703125,-0.11029412 0.9375,-0.24816177 V 0.04217831 Z M 12.461756,-0.66094669 c -0.261949,0.31709559 -0.579045,0.4273897 -0.868567,0.4273897 -0.799632,0 -0.799632,-0.59283088 -0.799632,-0.85477941 0,-0.2757353 0,-0.8823529 0.882353,-0.8823529 0.220588,0 0.46875,0.055147 0.675551,0.2205882 0.110295,0.082721 0.110295,0.096507 0.110295,0.1930147 z m 4.594439,0.11029412 c 0,-0.12408089 -0.110294,-0.12408089 -0.179228,-0.12408089 h -0.04136 c -0.09651,0 -0.137868,0 -0.179228,0.0689338 -0.05515,0.0965073 -0.193015,0.34466912 -0.716912,0.34466912 -0.634191,0 -0.965074,-0.24816177 -1.006434,-0.71691177 h 1.943934 c 0.09651,0 0.179228,0 0.179228,-0.16544119 0,-0.289522 -0.110294,-0.6204044 -0.317096,-0.8134191 -0.220588,-0.1930147 -0.523897,-0.3170956 -1.02022,-0.3170956 -1.116728,0 -1.530331,0.6204044 -1.530331,1.1443015 0,0.5376838 0.413603,1.17187498 1.640625,1.17187498 0.124081,0 0.46875,0 0.758272,-0.12408088 0.344669,-0.13786765 0.46875,-0.39981618 0.46875,-0.46874997 z M 16.559871,-1.2399908 h -1.626838 c 0,-0.179228 0.01379,-0.7444853 0.785846,-0.7444853 0.689338,0 0.813419,0.4136029 0.840992,0.7444853 z m 6.696921,0.1930147 h -0.413603 c -0.04136,0.1930147 -0.110294,0.31709559 -0.151654,0.33088235 -0.124081,0.0137868 -0.330882,0.0137868 -0.51011,0.0137868 h -0.744486 c 0.330883,-0.20680147 0.634192,-0.39981625 0.840993,-0.51011035 0.565257,-0.3033088 0.97886,-0.5376838 0.97886,-1.0615809 0,-0.6066176 -0.579044,-1.0202206 -1.557904,-1.0202206 -0.234375,0 -1.337316,0.013787 -1.337316,0.7444853 0,0.2895221 0.248161,0.413603 0.413603,0.413603 0.193014,0 0.413603,-0.1378677 0.413603,-0.413603 0,-0.1792279 -0.110295,-0.2757353 -0.137868,-0.3033088 0.179228,-0.096507 0.372243,-0.096507 0.482537,-0.096507 0.482536,0 0.923713,0.234375 0.923713,0.6893382 0,0.3860294 -0.303309,0.6755515 -0.620404,0.9099265 l -1.392464,1.00643384 c -0.08272,0.0551471 -0.08272,0.0827206 -0.08272,0.1930147 V 8.1801471e-4 h 2.688419 z m 0,0"
       style="fill:#000000;fill-opacity:1;fill-rule:nonzero;stroke:none"
       aria-label="Node2"
       transform="matrix(1.1333333,0,0,1.1333333,202.84933,180.68267)" />
    <path
       id="path55"
       d="m 149.38866,4.8189 h -9.63781 v -9.6378 h 9.63781 z"
       style="fill:#f5d2d5;fill-opacity:1;fill-rule:nonzero;stroke:#4c4c4c;stroke-width:0.74721;stroke-linecap:butt;stroke-linejoin:miter;stroke-miterlimit:10;stroke-dasharray:none;stroke-opacity:1"
       transform="matrix(1.3333333,0,0,-1.3333333,19.378667,129.71067)" />
    <path
       id="path56"
       d="m 174.1186,4.8189 h -9.63781 v -9.6378 h 9.63781 z"
       style="fill:#f5d2d5;fill-opacity:1;fill-rule:nonzero;stroke:#4c4c4c;stroke-width:0.74721;stroke-linecap:butt;stroke-linejoin:miter;stroke-miterlimit:10;stroke-dasharray:none;stroke-opacity:1"
       transform="matrix(1.3333333,0,0,-1.3333333,19.378667,129.71067)" />
    <path
       id="path57"
       d="m 198.84802,4.8189 h -9.6378 v -9.6378 h 9.6378 z"
       style="fill:#f5d2d5;fill-opacity:1;fill-rule:nonzero;stroke:#4c4c4c;stroke-width:0.74721;stroke-linecap:butt;stroke-linejoin:miter;stroke-miterlimit:10;stroke-dasharray:none;stroke-opacity:1"
       transform="matrix(1.3333333,0,0,-1.3333333,19.378667,129.71067)" />
    <path
       id="path58"
       d="m 223.57693,4.8189 h -9.63781 v -9.6378 h 9.63781 z"
       style="fill:#f5d2d5;fill-opacity:1;fill-rule:nonzero;stroke:#4c4c4c;stroke-width:0.74721;stroke-linecap:butt;stroke-linejoin:miter;stroke-miterlimit:10;stroke-dasharray:none;stroke-opacity:1"
       transform="matrix(1.3333333,0,0,-1.3333333,19.378667,129.71067)" />
    <path
       id="path59"
       d="m 149.38866,-31.32352 h -9.63781 v -9.63781 h 9.63781 z"
       style="fill:#f5d2d5;fill-opacity:1;fill-rule:nonzero;stroke:#4c4c4c;stroke-width:0.74721;stroke-linecap:butt;stroke-linejoin:miter;stroke-miterlimit:10;stroke-dasharray:none;stroke-opacity:1"
       transform="matrix(1.3333333,0,0,-1.3333333,19.378667,129.71067)" />
    <path
       id="path60"
       d="m 174.1186,-31.32274 h -9.63781 v -9.63782 h 9.63781 z"
       style="fill:#f5d2d5;fill-opacity:1;fill-rule:nonzero;stroke:#4c4c4c;stroke-width:0.74721;stroke-linecap:butt;stroke-linejoin:miter;stroke-miterlimit:10;stroke-dasharray:none;stroke-opacity:1"
       transform="matrix(1.3333333,0,0,-1.3333333,19.378667,129.71067)" />
    <path
       id="path61"
       d="m 198.84802,-31.32196 h -9.6378 v -9.63782 h 9.6378 z"
       style="fill:#f5d2d5;fill-opacity:1;fill-rule:nonzero;stroke:#4c4c4c;stroke-width:0.74721;stroke-linecap:butt;stroke-linejoin:miter;stroke-miterlimit:10;stroke-dasharray:none;stroke-opacity:1"
       transform="matrix(1.3333333,0,0,-1.3333333,19.378667,129.71067)" />
    <path
       id="path62"
       d="m 223.57693,-31.3212 h -9.63781 v -9.6378 h 9.63781 z"
       style="fill:#f5d2d5;fill-opacity:1;fill-rule:nonzero;stroke:#4c4c4c;stroke-width:0.74721;stroke-linecap:butt;stroke-linejoin:miter;stroke-miterlimit:10;stroke-dasharray:none;stroke-opacity:1"
       transform="matrix(1.3333333,0,0,-1.3333333,19.378667,129.71067)" />
    <path
       id="path63"
       d="M 144.56976,5.13635 V 65.49883"
       style="fill:none;stroke:#e67817;stroke-width:1.19553;stroke-linecap:butt;stroke-linejoin:miter;stroke-miterlimit:10;stroke-dasharray:none;stroke-opacity:1"
       transform="matrix(1.3333333,0,0,-1.3333333,19.378667,129.71067)" />
    <path
       id="path64"
       d="M 144.56976,-31.00528 V 65.49883"
       style="fill:none;stroke:#e67817;stroke-width:1.19553;stroke-linecap:butt;stroke-linejoin:miter;stroke-miterlimit:10;stroke-dasharray:none;stroke-opacity:1"
       transform="matrix(1.3333333,0,0,-1.3333333,19.378667,129.71067)" />
    <path
       id="path65"
       d="m 169.44768,5.13635 1.74676,60.36418"
       style="fill:none;stroke:#e67817;stroke-width:1.19553;stroke-linecap:butt;stroke-linejoin:miter;stroke-miterlimit:10;stroke-dasharray:none;stroke-opacity:1"
       transform="matrix(1.3333333,0,0,-1.3333333,19.378667,129.71067)" />
    <path
       id="path66"
       d="m 169.39815,-31.0045 1.86162,96.50325"
       style="fill:none;stroke:#e67817;stroke-width:1.19553;stroke-linecap:butt;stroke-linejoin:miter;stroke-miterlimit:10;stroke-dasharray:none;stroke-opacity:1"
       transform="matrix(1.3333333,0,0,-1.3333333,19.378667,129.71067)" />
    <path
       id="path67"
       d="m 194.32509,5.13635 3.49389,60.37111"
       style="fill:none;stroke:#e67817;stroke-width:1.19553;stroke-linecap:butt;stroke-linejoin:miter;stroke-miterlimit:10;stroke-dasharray:none;stroke-opacity:1"
       transform="matrix(1.3333333,0,0,-1.3333333,19.378667,129.71067)" />
    <path
       id="path68"
       d="m 194.2261,-31.00372 3.72333,96.50479"
       style="fill:none;stroke:#e67817;stroke-width:1.19553;stroke-linecap:butt;stroke-linejoin:miter;stroke-miterlimit:10;stroke-dasharray:none;stroke-opacity:1"
       transform="matrix(1.3333333,0,0,-1.3333333,19.378667,129.71067)" />
    <path
       id="path69"
       d="M 219.20209,5.13635 224.444,65.51991"
       style="fill:none;stroke:#e67817;stroke-width:1.19553;stroke-linecap:butt;stroke-linejoin:miter;stroke-miterlimit:10;stroke-dasharray:none;stroke-opacity:1"
       transform="matrix(1.3333333,0,0,-1.3333333,19.378667,129.71067)" />
    <path
       id="path70"
       d="m 219.05357,-31.00296 5.58516,96.50888"
       style="fill:none;stroke:#e67817;stroke-width:1.19553;stroke-linecap:butt;stroke-linejoin:miter;stroke-miterlimit:10;stroke-dasharray:none;stroke-opacity:1"
       transform="matrix(1.3333333,0,0,-1.3333333,19.378667,129.71067)" />
  </g>
</svg>
