<?xml version="1.0" encoding="UTF-8" standalone="no"?>
<!-- Created with Inkscape (http://www.inkscape.org/) -->

<svg
   version="1.1"
   id="svg1"
   width="315.86133"
   height="147.24133"
   viewBox="0 0 315.86133 147.24133"
   xmlns="http://www.w3.org/2000/svg"
   xmlns:svg="http://www.w3.org/2000/svg">
  <defs
     id="defs1" />
  <g
     id="g1">
    <path
       id="path1"
       d="M 0,0 H 62.36288 C 62.36288,34.4425 34.4425,62.36288 0,62.36288 -34.4425,62.36288 -62.36288,34.4425 -62.36288,0 c 0,-13.16417 4.17269,-26.00198 11.90905,-36.65208 z"
       style="fill:#9999ff;fill-opacity:1;fill-rule:nonzero;stroke:#000000;stroke-width:0.79701;stroke-linecap:butt;stroke-linejoin:round;stroke-miterlimit:10;stroke-dasharray:none;stroke-opacity:1"
       transform="matrix(1.1333333,0,0,-1.1333333,71.129133,71.128933)" />
    <path
       id="path2"
       d="M 4.4668732,-4.7011085 C 4.3152188,-5.7351158 3.6258805,-6.3555202 2.660807,-6.3555202 c -0.703125,0 -1.3235294,0.3446691 -1.69577207,0.9099264 -0.39981618,0.6204045 -0.57904412,1.3924633 -0.57904412,2.5505515 0,1.0615809 0.16544118,1.7509191 0.53768382,2.31617649 0.34466917,0.5101103 0.89613967,0.78584559 1.59926467,0.78584559 1.1994486,0 2.0680147,-0.89613971 2.0680147,-2.13694858 0,-1.1856617 -0.7996323,-2.0266544 -1.9439338,-2.0266544 -0.6204044,0 -1.1167279,0.2481618 -1.461397,0.7169118 0.013787,-1.5579044 0.5101103,-2.4126838 1.4200367,-2.4126838 0.5514706,0 0.9375,0.3446691 1.0615809,0.9512867 z m -1.9163603,1.4476103 c 0.758272,0 1.2408088,0.5238971 1.2408088,1.3786765 0,0.7996324 -0.5376838,1.37867648 -1.2683824,1.37867648 -0.7306985,0 -1.2821691,-0.60661768 -1.2821691,-1.42003678 0,-0.7858456 0.5376838,-1.3373162 1.3097427,-1.3373162 z m 4.9011948,-3.102022 c -0.5928309,0 -1.1305147,0.2619485 -1.461397,0.703125 -0.413603,0.5514706 -0.6204044,1.40625 -0.6204044,2.578125 0,2.13694851 0.7169117,3.28124998 2.0818014,3.28124998 1.3373162,0 2.0818015,-1.14430147 2.0818015,-3.22610298 0,-1.2408088 -0.2068015,-2.0680147 -0.6204044,-2.633272 -0.3308824,-0.4549633 -0.8685662,-0.703125 -1.4613971,-0.703125 z m 0,0.703125 c 0.8409927,0 1.2683824,0.8547794 1.2683824,2.5643382 0,1.7922794 -0.413603,2.64705884 -1.2959559,2.64705884 -0.8272059,0 -1.2545956,-0.88235294 -1.2545956,-2.61948534 0,-1.7371323 0.4273897,-2.5919117 1.2821691,-2.5919117 z M 11.749732,-6.134932 c -0.827206,0 -1.516544,0.6893382 -1.516544,1.5303309 0,0.8409926 0.689338,1.5303309 1.53033,1.5303309 0.827206,0 1.516545,-0.6893383 1.516545,-1.5165441 0,-0.8685662 -0.661765,-1.5441177 -1.530331,-1.5441177 z m 0,0.6204044 c 0.51011,0 0.923713,0.413603 0.923713,0.9237133 0,0.4825367 -0.413603,0.8961397 -0.909927,0.8961397 -0.496323,0 -0.909926,-0.413603 -0.909926,-0.9099265 0,-0.4963235 0.413603,-0.9099265 0.89614,-0.9099265 z m 3.681066,-0.8409926 -3.543199,6.53492645 h 0.592831 l 3.543199,-6.53492645 z m 0.703125,3.4742647 c -0.827206,0 -1.516544,0.6893382 -1.516544,1.5165441 0,0.84099265 0.689338,1.53033089 1.530331,1.53033089 0.827205,0 1.516544,-0.68933824 1.516544,-1.50275739 0,-0.8685661 -0.661765,-1.5441176 -1.530331,-1.5441176 z m 0,0.6204044 c 0.51011,0 0.909926,0.3998162 0.909926,0.9237132 0,0.4825368 -0.399816,0.88235297 -0.896139,0.88235297 -0.510111,0 -0.909927,-0.39981617 -0.909927,-0.90992647 0,-0.4963235 0.399816,-0.8961397 0.89614,-0.8961397 z m 0,0"
       style="fill:#000000;fill-opacity:1;fill-rule:nonzero;stroke:none"
       aria-label="60%"
       transform="matrix(1.1333333,0,0,1.1333333,54.4102,54.480267)" />
    <path
       id="path3"
       d="M 0,0 -50.45381,-36.65196 C -35.42262,-57.3441 -9.26744,-66.76001 15.50412,-60.40154 Z"
       style="fill:#ffb366;fill-opacity:1;fill-rule:nonzero;stroke:#000000;stroke-width:0.79701;stroke-linecap:butt;stroke-linejoin:round;stroke-miterlimit:10;stroke-dasharray:none;stroke-opacity:1"
       transform="matrix(1.1333333,0,0,-1.1333333,71.129133,71.128933)" />
    <path
       id="path4"
       d="M 2.3170827,-4.523 V -9.4117647e-4 H 3.1167151 V -6.3566397 H 2.592818 C 2.3170827,-5.3777794 2.1378548,-5.2399118 0.91083272,-5.0882574 V -4.523 Z m 3.136489,3.0744485 c 0.1516544,1.03400738 0.8409926,1.65441179 1.8060662,1.65441179 0.703125,0 1.3373161,-0.34466911 1.7095588,-0.90992647 0.3998162,-0.62040442 0.5790441,-1.39246322 0.5790441,-2.55055142 0,-1.0615809 -0.1654412,-1.7509192 -0.5376838,-2.3161765 -0.3584559,-0.5101103 -0.9099265,-0.7858456 -1.6130515,-0.7858456 -1.1994485,0 -2.0680147,0.8961397 -2.0680147,2.1507353 0,1.171875 0.7996324,2.0128676 1.9439338,2.0128676 0.6066177,0 1.0477942,-0.2205882 1.4613971,-0.7169117 -0.013787,1.5579044 -0.5101103,2.41268379 -1.4200368,2.41268379 -0.5514706,0 -0.9375,-0.34466911 -1.0615809,-0.95128679 z m 1.9439338,-4.21875 c 0.7306985,0 1.2821691,0.6066177 1.2821691,1.4338236 0,0.7858455 -0.5376838,1.3373161 -1.3097426,1.3373161 -0.7582721,0 -1.2408088,-0.523897 -1.2408088,-1.3786764 0,-0.8134192 0.5376838,-1.3924633 1.2683823,-1.3924633 z m 4.3531705,-0.46875 c -0.827205,0 -1.516544,0.6893383 -1.516544,1.5303309 0,0.8409927 0.689339,1.5303309 1.530331,1.5303309 0.827206,0 1.516544,-0.6893382 1.516544,-1.5165441 0,-0.8685662 -0.661764,-1.5441177 -1.530331,-1.5441177 z m 0,0.6204044 c 0.510111,0 0.923714,0.413603 0.923714,0.9237133 0,0.4825367 -0.413603,0.8961397 -0.909927,0.8961397 -0.496323,0 -0.909926,-0.413603 -0.909926,-0.9099265 0,-0.4963235 0.413603,-0.9099265 0.896139,-0.9099265 z m 3.681067,-0.8409926 -3.543199,6.53492646 h 0.592831 l 3.543199,-6.53492646 z m 0.703125,3.4742647 c -0.827206,0 -1.516544,0.6893382 -1.516544,1.5165441 0,0.84099266 0.689338,1.5303309 1.53033,1.5303309 0.827206,0 1.516545,-0.68933824 1.516545,-1.5027574 0,-0.8685661 -0.661765,-1.5441176 -1.530331,-1.5441176 z m 0,0.6204044 c 0.51011,0 0.909926,0.3998162 0.909926,0.9237132 0,0.48253681 -0.399816,0.88235299 -0.89614,0.88235299 -0.51011,0 -0.909926,-0.39981618 -0.909926,-0.90992649 0,-0.4963235 0.399816,-0.8961397 0.89614,-0.8961397 z m 0,0"
       style="fill:#000000;fill-opacity:1;fill-rule:nonzero;stroke:none"
       aria-label="19%"
       transform="matrix(1.1333333,0,0,1.1333333,45.620067,117.25107)" />
    <path
       id="path5"
       d="m 0,0 15.50388,-60.40132 c 11.45895,2.94038 21.85215,9.08667 29.95106,17.7099 z"
       style="fill:#80ff80;fill-opacity:1;fill-rule:nonzero;stroke:#000000;stroke-width:0.79701;stroke-linecap:butt;stroke-linejoin:round;stroke-miterlimit:10;stroke-dasharray:none;stroke-opacity:1"
       transform="matrix(1.1333333,0,0,-1.1333333,71.129133,71.128933)" />
    <path
       id="path6"
       d="m 0.46850368,-1.4460901 c 0.15165441,1.03400738 0.84099262,1.65441179 1.80606622,1.65441179 0.703125,0 1.3373161,-0.34466912 1.7095588,-0.90992647 0.3998162,-0.62040442 0.5790441,-1.39246322 0.5790441,-2.55055152 0,-1.0615808 -0.1654412,-1.7509191 -0.5376838,-2.3161764 -0.3584559,-0.5101103 -0.9099265,-0.7858456 -1.6130515,-0.7858456 -1.1994485,0 -2.06801471,0.8961397 -2.06801471,2.1507353 0,1.171875 0.79963231,2.0128676 1.94393381,2.0128676 0.6066177,0 1.0477941,-0.2205882 1.4613971,-0.7169117 -0.013787,1.5579044 -0.5101103,2.41268379 -1.4200368,2.41268379 -0.5514706,0 -0.9375,-0.34466912 -1.0615809,-0.95128679 z m 1.94393382,-4.21875 c 0.7306985,0 1.2821691,0.6066177 1.2821691,1.4338236 0,0.7858455 -0.5376838,1.3373161 -1.3097426,1.3373161 -0.7582721,0 -1.2408089,-0.523897 -1.2408089,-1.3786764 0,-0.8134192 0.5376839,-1.3924633 1.2683824,-1.3924633 z m 4.3497243,-0.46875 c -0.8272059,0 -1.5165442,0.6893383 -1.5165442,1.5303309 0,0.8409927 0.6893383,1.5303309 1.5303309,1.5303309 0.8272059,0 1.5165441,-0.6893382 1.5165441,-1.5165441 0,-0.8685662 -0.6617647,-1.5441177 -1.5303308,-1.5441177 z m 0,0.6204044 c 0.5101103,0 0.9237132,0.413603 0.9237132,0.9237133 0,0.4825367 -0.4136029,0.8961397 -0.9099265,0.8961397 -0.4963235,0 -0.9099264,-0.413603 -0.9099264,-0.9099265 0,-0.4963235 0.4136029,-0.9099265 0.8961397,-0.9099265 z M 10.443228,-6.3541783 6.9000294,0.18074816 H 7.4928603 L 11.036059,-6.3541783 Z m 0.703125,3.4742647 c -0.827206,0 -1.5165442,0.6893382 -1.5165442,1.5165441 0,0.84099266 0.6893382,1.5303309 1.5303312,1.5303309 0.827206,0 1.516544,-0.68933824 1.516544,-1.5027574 0,-0.8685661 -0.661765,-1.5441176 -1.530331,-1.5441176 z m 0,0.6204044 c 0.51011,0 0.909926,0.3998162 0.909926,0.9237132 0,0.48253681 -0.399816,0.88235299 -0.896139,0.88235299 -0.510111,0 -0.909927,-0.39981618 -0.909927,-0.90992649 0,-0.4963235 0.399816,-0.8961397 0.89614,-0.8961397 z m 0,0"
       style="fill:#000000;fill-opacity:1;fill-rule:nonzero;stroke:none"
       aria-label="9%"
       transform="matrix(1.1333333,0,0,1.1333333,90.367467,119.59593)" />
    <path
       id="path7"
       d="m 0,0 45.45497,-42.69148 c 4.47719,4.76742 8.18457,10.22 10.96889,16.13789 z"
       style="fill:#ff9999;fill-opacity:1;fill-rule:nonzero;stroke:#000000;stroke-width:0.79701;stroke-linecap:butt;stroke-linejoin:round;stroke-miterlimit:10;stroke-dasharray:none;stroke-opacity:1"
       transform="matrix(1.1333333,0,0,-1.1333333,71.129133,71.128933)" />
    <path
       id="path8"
       d="M 4.2608493,-6.3565864 H 0.97959926 l -0.46875,3.4604779 H 1.2415478 c 0.3584559,-0.4411764 0.6617647,-0.5928308 1.1580882,-0.5928308 0.8547794,0 1.3924633,0.5790441 1.3924633,1.5303308 0,0.9099265 -0.5238971,1.4613971 -1.3924633,1.4613971 -0.6893382,0 -1.1029411,-0.34466911 -1.2959559,-1.0615809 H 0.31783456 c 0.11029412,0.5238971 0.1930147,0.77205884 0.38602941,1.00643384 C 1.0623199,-0.06982169 1.696511,0.2059136 2.4134228,0.2059136 c 1.2821691,0 2.1783088,-0.9375 2.1783088,-2.2748162 0,-1.2545956 -0.8272059,-2.1231617 -2.0404412,-2.1231617 -0.4549632,0 -0.8134191,0.1240808 -1.1856617,0.3860294 l 0.2619485,-1.7647059 h 2.6332721 z m 2.5022978,0.2205882 c -0.8272059,0 -1.5165442,0.6893383 -1.5165442,1.5303309 0,0.8409927 0.6893383,1.5303309 1.5303309,1.5303309 0.8272059,0 1.5165441,-0.6893382 1.5165441,-1.5165441 0,-0.8685662 -0.6617647,-1.5441177 -1.5303308,-1.5441177 z m 0,0.6204044 c 0.5101103,0 0.9237132,0.413603 0.9237132,0.9237133 0,0.4825367 -0.4136029,0.8961397 -0.9099265,0.8961397 -0.4963235,0 -0.9099264,-0.413603 -0.9099264,-0.9099265 0,-0.4963235 0.4136029,-0.9099265 0.8961397,-0.9099265 z M 10.444213,-6.3565864 6.9010147,0.17834007 H 7.4938456 L 11.037044,-6.3565864 Z m 0.703125,3.4742647 c -0.827206,0 -1.5165439,0.6893382 -1.5165439,1.5165441 0,0.84099267 0.6893379,1.53033091 1.5303309,1.53033091 0.827206,0 1.516544,-0.68933824 1.516544,-1.50275731 0,-0.8685662 -0.661765,-1.5441177 -1.530331,-1.5441177 z m 0,0.6204044 c 0.510111,0 0.909927,0.3998162 0.909927,0.9237133 0,0.48253672 -0.399816,0.8823529 -0.89614,0.8823529 -0.51011,0 -0.909926,-0.39981618 -0.909926,-0.9099265 0,-0.4963235 0.399816,-0.8961397 0.896139,-0.8961397 z m 0,0"
       style="fill:#000000;fill-opacity:1;fill-rule:nonzero;stroke:none"
       aria-label="5%"
       transform="matrix(1.1333333,0,0,1.1333333,109.2726,105.5596)" />
    <path
       id="path9"
       d="m 0,0 56.4237,-26.55348 c 2.22574,4.7303 3.85107,9.72801 4.83118,14.86369 z"
       style="fill:#e28ca9;fill-opacity:1;fill-rule:nonzero;stroke:#000000;stroke-width:0.79701;stroke-linecap:butt;stroke-linejoin:round;stroke-miterlimit:10;stroke-dasharray:none;stroke-opacity:1"
       transform="matrix(1.1333333,0,0,-1.1333333,71.129133,71.128933)" />
    <path
       id="path10"
       d="M 2.9367335,-1.5159779 V 5.6617647e-4 H 3.722579 V -1.5159779 h 0.9375 v -0.7169118 h -0.9375 V -6.3551324 H 3.1297482 l -2.88143386,3.9981618 v 0.8409927 z m 0,-0.7169118 H 0.93765257 L 2.9367335,-5.0040294 Z m 3.8258272,-3.9016544 c -0.8272059,0 -1.5165442,0.6893382 -1.5165442,1.5303309 0,0.8409926 0.6893383,1.5303308 1.5303309,1.5303308 0.8272059,0 1.5165441,-0.6893382 1.5165441,-1.5165441 0,-0.8685661 -0.6617647,-1.5441176 -1.5303308,-1.5441176 z m 0,0.6204044 c 0.5101103,0 0.9237132,0.4136029 0.9237132,0.9237132 0,0.4825368 -0.4136029,0.8961397 -0.9099265,0.8961397 -0.4963235,0 -0.9099264,-0.4136029 -0.9099264,-0.9099264 0,-0.4963236 0.4136029,-0.9099265 0.8961397,-0.9099265 z M 10.443627,-6.3551324 6.9004283,0.17979412 H 7.4932592 L 11.036458,-6.3551324 Z m 0.703125,3.4742648 c -0.827206,0 -1.5165443,0.6893382 -1.5165443,1.5165441 0,0.84099262 0.6893383,1.53033085 1.5303313,1.53033085 0.827205,0 1.516544,-0.68933823 1.516544,-1.50275735 0,-0.8685662 -0.661765,-1.5441176 -1.530331,-1.5441176 z m 0,0.6204044 c 0.51011,0 0.909926,0.3998161 0.909926,0.9237132 0,0.48253676 -0.399816,0.88235294 -0.896139,0.88235294 -0.510111,0 -0.909927,-0.39981618 -0.909927,-0.90992644 0,-0.4963236 0.399816,-0.8961397 0.89614,-0.8961397 z m 0,0"
       style="fill:#000000;fill-opacity:1;fill-rule:nonzero;stroke:none"
       aria-label="4%"
       transform="matrix(1.1333333,0,0,1.1333333,116.75373,91.858733)" />
    <path
       id="path11"
       d="m 0,0 61.25514,-11.68976 c 0.73462,3.85105 1.10766,7.76874 1.10766,11.69017 z"
       style="fill:#cccccc;fill-opacity:1;fill-rule:nonzero;stroke:#000000;stroke-width:0.79701;stroke-linecap:butt;stroke-linejoin:round;stroke-miterlimit:10;stroke-dasharray:none;stroke-opacity:1"
       transform="matrix(1.1333333,0,0,-1.1333333,71.129133,71.128933)" />
    <path
       id="path12"
       d="m 1.9867132,-2.9089559 h 0.096507 l 0.3308823,-0.013787 c 0.8685662,0 1.3097427,0.3998161 1.3097427,1.1580882 0,0.79963234 -0.4825368,1.26838234 -1.3097427,1.26838234 -0.8685661,0 -1.2821691,-0.4273897 -1.3373161,-1.35110294 H 0.29094118 c 0.0275735,0.5101103 0.12408088,0.8409926 0.27573529,1.13051471 0.31709559,0.60661764 0.95128673,0.92371323 1.81985293,0.92371323 1.3097427,0 2.1507353,-0.78584559 2.1507353,-1.98529414 0,-0.7996323 -0.3170956,-1.2545956 -1.0753676,-1.5165441 0.5928308,-0.2205882 0.8823529,-0.6755515 0.8823529,-1.3097426 0,-1.0891545 -0.7169118,-1.7509192 -1.9301471,-1.7509192 -1.2821691,0 -1.97150731,0.703125 -1.98529408,2.054228 H 1.2146544 c 0,-0.3860294 0.04136,-0.6066177 0.1378677,-0.7996324 0.1792279,-0.3446691 0.5790441,-0.5652573 1.0615808,-0.5652573 0.703125,0 1.1305147,0.4136029 1.1305147,1.0891544 0,0.4411765 -0.1654411,0.7169118 -0.5101102,0.8547794 -0.2205883,0.096507 -0.4963236,0.1240809 -1.0477942,0.1378676 z m 4.777114,-3.2261029 c -0.8272059,0 -1.5165441,0.6893382 -1.5165441,1.5303309 0,0.8409926 0.6893382,1.5303308 1.5303309,1.5303308 0.8272059,0 1.5165441,-0.6893382 1.5165441,-1.5165441 0,-0.8685662 -0.6617647,-1.5441176 -1.5303309,-1.5441176 z m 0,0.6204044 c 0.5101103,0 0.9237132,0.4136029 0.9237132,0.9237132 0,0.4825368 -0.4136029,0.8961397 -0.9099264,0.8961397 -0.4963236,0 -0.9099265,-0.4136029 -0.9099265,-0.9099264 0,-0.4963236 0.4136029,-0.9099265 0.8961397,-0.9099265 z M 10.444893,-6.3556471 6.9016949,0.17927941 H 7.4945257 L 11.037724,-6.3556471 Z m 0.703125,3.4742647 c -0.827205,0 -1.5165437,0.6893383 -1.5165437,1.5165442 0,0.84099261 0.6893387,1.53033085 1.5303307,1.53033085 0.827206,0 1.516544,-0.68933824 1.516544,-1.50275735 0,-0.8685662 -0.661764,-1.5441177 -1.530331,-1.5441177 z m 0,0.6204045 c 0.510111,0 0.909927,0.3998161 0.909927,0.9237132 0,0.48253676 -0.399816,0.88235294 -0.89614,0.88235294 -0.51011,0 -0.909926,-0.39981618 -0.909926,-0.90992644 0,-0.4963236 0.399816,-0.8961397 0.896139,-0.8961397 z m 0,0"
       style="fill:#000000;fill-opacity:1;fill-rule:nonzero;stroke:none"
       aria-label="3%"
       transform="matrix(1.1333333,0,0,1.1333333,119.92027,79.953067)" />
    <path
       id="path13"
       d="m 82.11836,37.00107 h 6.64113 v 6.64113 h -6.64113 z"
       style="fill:#9999ff;fill-opacity:1;fill-rule:nonzero;stroke:#000000;stroke-width:0.79701;stroke-linecap:butt;stroke-linejoin:round;stroke-miterlimit:10;stroke-dasharray:none;stroke-opacity:1"
       transform="matrix(1.1333333,0,0,-1.1333333,71.129133,71.128933)" />
    <path
       id="path14"
       d="M 5.9267408,-4.5077463 C 5.6647923,-5.9415699 4.8513732,-6.6446949 3.4175496,-6.6446949 c -0.8823529,0 -1.5854779,0.2895221 -2.0818014,0.8272059 -0.57904416,0.6341912 -0.90992651,1.5716912 -0.90992651,2.6332721 0,1.0753676 0.33088235,1.9990809 0.95128681,2.63327205 0.4963235,0.51011029 1.1443014,0.75827206 1.9990808,0.75827206 1.5992647,0 2.4954045,-0.85477942 2.6884192,-2.59191181 H 5.209829 c -0.08272,0.4549633 -0.1654411,0.7582721 -0.3033088,1.0202206 -0.2619485,0.53768385 -0.8272059,0.84099268 -1.5165441,0.84099268 -1.3097426,0 -2.1231618,-1.04779408 -2.1231618,-2.67463238 0,-1.6819853 0.7858456,-2.7022059 2.0404412,-2.7022059 0.5376838,0 1.0340074,0.1516545 1.2959559,0.413603 0.2481618,0.2205882 0.3722426,0.4963235 0.4825368,0.9788603 z M 7.8396544,-6.5344007 H 7.0813824 V 5.2573529e-4 h 0.758272 z m 5.2148436,4.4393382 c 0,-0.7169118 -0.04136,-1.1443015 -0.179228,-1.5027574 -0.303309,-0.7720588 -1.02022,-1.227022 -1.902573,-1.227022 -1.309743,0 -2.1507356,0.992647 -2.1507356,2.5367647 0,1.54411764 0.8134191,2.49540441 2.1369486,2.49540441 1.075368,0 1.819853,-0.60661765 1.999081,-1.62683821 h -0.744485 c -0.206802,0.62040438 -0.634192,0.93749997 -1.227023,0.93749997 -0.482536,0 -0.882352,-0.22058823 -1.1305142,-0.60661767 C 9.6767408,-1.364364 9.607807,-1.6263125 9.607807,-2.0950625 Z M 9.6215938,-2.7016801 c 0.055147,-0.8685662 0.5928312,-1.4338236 1.3373162,-1.4338236 0.744485,0 1.309743,0.6066177 1.309743,1.3786765 0,0.013787 0,0.027573 -0.01379,0.055147 z m 8.6270682,2.26102936 c -0.08272,0.0137868 -0.124081,0.0137868 -0.165441,0.0137868 -0.261949,0 -0.399817,-0.12408088 -0.399817,-0.35845588 V -3.5426728 c 0,-0.8409926 -0.606617,-1.2821691 -1.764705,-1.2821691 -0.689339,0 -1.254596,0.1930147 -1.557905,0.5376838 -0.220588,0.2481618 -0.303309,0.5101103 -0.330882,0.9788603 h 0.758272 c 0.05515,-0.5652573 0.399816,-0.8272059 1.102941,-0.8272059 0.675551,0 1.047794,0.2481618 1.047794,0.6893383 v 0.2068014 c 0,0.3033089 -0.193015,0.4411765 -0.785845,0.5101103 -1.047795,0.1378677 -1.213236,0.179228 -1.502758,0.2895221 -0.55147,0.2205882 -0.827206,0.6479779 -0.827206,1.2545956 0,0.85477938 0.592831,1.39246321 1.544118,1.39246321 0.592831,0 1.061581,-0.20680147471 1.599265,-0.68933824 0.05515,0.46875 0.289522,0.68933824 0.772058,0.68933824 0.151655,0 0.261949,-0.0137868 0.510111,-0.0827206 z M 16.938919,-1.4746581 c 0,0.2481618 -0.06893,0.3998162 -0.303309,0.60661766 -0.303309,0.27573529 -0.661764,0.4273897 -1.102941,0.4273897 -0.579044,0 -0.923713,-0.28952205 -0.923713,-0.75827206 0,-0.4963235 0.330882,-0.7444853 1.130515,-0.8547794 0.785845,-0.1102941 0.951286,-0.1516544 1.199448,-0.2619485 z M 19.055188,-4.700761 V 5.2573529e-4 H 19.81346 V -2.591386 c 0,-0.9512868 0.496323,-1.585478 1.268382,-1.585478 0.592831,0 0.97886,0.3584559 0.97886,0.9237133 V 5.2573529e-4 h 0.744486 V -3.5426728 c 0,-0.7858456 -0.592831,-1.2821691 -1.488971,-1.2821691 -0.703125,0 -1.158088,0.2619485 -1.557904,0.9237132 V -4.700761 Z m 5.700827,0 H 24.025316 V 5.2573529e-4 h 0.730699 z m 0,-1.8336397 h -0.744486 v 0.9375 h 0.744486 z M 26.03129,-4.700761 V 5.2573529e-4 h 0.758273 V -2.591386 c 0,-0.9512868 0.496323,-1.585478 1.268382,-1.585478 0.592831,0 0.97886,0.3584559 0.97886,0.9237133 V 5.2573529e-4 H 29.78129 V -3.5426728 c 0,-0.7858456 -0.59283,-1.2821691 -1.48897,-1.2821691 -0.703125,0 -1.158088,0.2619485 -1.557905,0.9237132 V -4.700761 Z m 8.058364,0 v 0.6893382 c -0.386029,-0.5514706 -0.840992,-0.8134191 -1.433823,-0.8134191 -1.199449,0 -1.999081,1.0340073 -1.999081,2.5643382 0,0.7582721 0.206801,1.39246326 0.592831,1.83363973 0.344669,0.39981618 0.840993,0.63419118 1.337316,0.63419118 0.592831,0 1.006434,-0.24816177 1.433824,-0.84099265 v 0.234375 c 0,0.64797794 -0.08272,1.02022059 -0.275736,1.28216912 -0.193014,0.27573532 -0.579044,0.44117642 -1.034007,0.44117642 -0.344669,0 -0.647978,-0.08272 -0.854779,-0.2481617 C 31.690757,0.93802574 31.608037,0.81394485 31.566676,0.53820956 h -0.758272 c 0.08272,0.88235294 0.772059,1.42003674 1.875,1.42003674 0.689339,0 1.295956,-0.234375 1.599265,-0.6066176 0.358456,-0.42738973 0.496324,-1.02022061 0.496324,-2.12316179 V -4.700761 Z m -1.351103,0.5652573 c 0.799633,0 1.28217,0.6755515 1.28217,1.8474265 0,1.1305147 -0.496324,1.80606617 -1.28217,1.80606617 -0.813419,0 -1.309742,-0.68933827 -1.309742,-1.83363967 0,-1.1305147 0.51011,-1.819853 1.309742,-1.819853 z m 9.933364,3.69485296 c -0.08272,0.0137868 -0.12408,0.0137868 -0.165441,0.0137868 -0.261948,0 -0.399816,-0.12408088 -0.399816,-0.35845588 V -3.5426728 c 0,-0.8409926 -0.606618,-1.2821691 -1.764706,-1.2821691 -0.689338,0 -1.254595,0.1930147 -1.557904,0.5376838 -0.220588,0.2481618 -0.303309,0.5101103 -0.330883,0.9788603 h 0.758273 c 0.05515,-0.5652573 0.399816,-0.8272059 1.102941,-0.8272059 0.675551,0 1.047794,0.2481618 1.047794,0.6893383 v 0.2068014 c 0,0.3033089 -0.193015,0.4411765 -0.785846,0.5101103 -1.047794,0.1378677 -1.213235,0.179228 -1.502757,0.2895221 -0.551471,0.2205882 -0.827206,0.6479779 -0.827206,1.2545956 0,0.85477938 0.592831,1.39246321 1.544118,1.39246321 0.592831,0 1.061581,-0.20680147471 1.599264,-0.68933824 0.05515,0.46875 0.289522,0.68933824 0.772059,0.68933824 0.151655,0 0.261949,-0.0137868 0.51011,-0.0827206 z M 41.362173,-1.4746581 c 0,0.2481618 -0.06893,0.3998162 -0.303309,0.60661766 -0.303309,0.27573529 -0.661765,0.4273897 -1.102941,0.4273897 -0.579044,0 -0.923713,-0.28952205 -0.923713,-0.75827206 0,-0.4963235 0.330882,-0.7444853 1.130514,-0.8547794 0.785846,-0.1102941 0.951287,-0.1516544 1.199449,-0.2619485 z M 43.478441,-4.700761 V 5.2573529e-4 h 0.758272 V -2.591386 c 0,-0.9512868 0.496324,-1.585478 1.268383,-1.585478 0.59283,0 0.97886,0.3584559 0.97886,0.9237133 V 5.2573529e-4 h 0.744485 V -3.5426728 c 0,-0.7858456 -0.592831,-1.2821691 -1.48897,-1.2821691 -0.703125,0 -1.158089,0.2619485 -1.557905,0.9237132 V -4.700761 Z m 8.806296,-1.8336397 h -0.744485 v 2.4264706 c -0.317096,-0.46875 -0.813419,-0.7169118 -1.44761,-0.7169118 -1.213236,0 -2.012868,0.9788603 -2.012868,2.4678309 0,1.58547791 0.772059,2.56433821 2.040441,2.56433821 0.647978,0 1.089154,-0.24816177 1.502757,-0.82720589 V 5.2573529e-4 h 0.661765 z m -2.068015,2.398897 c 0.81342,0 1.32353,0.7169118 1.32353,1.8474265 0,1.0753676 -0.523897,1.79227941 -1.309743,1.79227941 -0.827206,0 -1.378676,-0.71691181 -1.378676,-1.81985291 0,-1.0891544 0.55147,-1.819853 1.364889,-1.819853 z m 7.537914,-0.6893382 c -1.323529,0 -2.123162,0.9375 -2.123162,2.5091912 0,1.58547791 0.799633,2.52297791 2.123162,2.52297791 1.323529,0 2.123162,-0.9375 2.123162,-2.48161761 0,-1.6268383 -0.772059,-2.5505515 -2.123162,-2.5505515 z m 0,0.6893382 c 0.854779,0 1.351103,0.6893383 1.351103,1.8474265 0,1.1029412 -0.523897,1.80606617 -1.351103,1.80606617 -0.827206,0 -1.337316,-0.68933827 -1.337316,-1.83363967 0,-1.1305147 0.51011,-1.819853 1.337316,-1.819853 z M 60.918699,-4.700761 V 5.2573529e-4 h 0.744485 V -2.4397316 c 0,-0.6755515 0.179228,-1.1029412 0.537684,-1.3648897 0.234375,-0.179228 0.454963,-0.2205883 0.97886,-0.234375 v -0.7582721 c -0.124081,-0.027573 -0.193015,-0.027573 -0.289522,-0.027573 -0.482537,0 -0.85478,0.2757353 -1.282169,0.9788603 V -4.700761 Z m 6.059283,0 v 0.6893382 c -0.38603,-0.5514706 -0.840993,-0.8134191 -1.433824,-0.8134191 -1.199448,0 -1.999081,1.0340073 -1.999081,2.5643382 0,0.7582721 0.206802,1.39246326 0.592831,1.83363973 0.344669,0.39981618 0.840993,0.63419118 1.337316,0.63419118 0.592831,0 1.006434,-0.24816177 1.433824,-0.84099265 v 0.234375 c 0,0.64797794 -0.08272,1.02022059 -0.275735,1.28216912 -0.193015,0.27573532 -0.579045,0.44117642 -1.034008,0.44117642 -0.344669,0 -0.647978,-0.08272 -0.854779,-0.2481617 C 64.579085,0.93802574 64.496364,0.81394485 64.455004,0.53820956 h -0.758272 c 0.08272,0.88235294 0.772058,1.42003674 1.875,1.42003674 0.689338,0 1.295956,-0.234375 1.599264,-0.6066176 0.358456,-0.42738973 0.496324,-1.02022061 0.496324,-2.12316179 V -4.700761 Z m -1.351103,0.5652573 c 0.799632,0 1.282169,0.6755515 1.282169,1.8474265 0,1.1305147 -0.496324,1.80606617 -1.282169,1.80606617 -0.813419,0 -1.309743,-0.68933827 -1.309743,-1.83363967 0,-1.1305147 0.51011,-1.819853 1.309743,-1.819853 z m 7.441406,3.69485296 c -0.08272,0.0137868 -0.124081,0.0137868 -0.165441,0.0137868 -0.261949,0 -0.399816,-0.12408088 -0.399816,-0.35845588 V -3.5426728 c 0,-0.8409926 -0.606618,-1.2821691 -1.764706,-1.2821691 -0.689339,0 -1.254596,0.1930147 -1.557905,0.5376838 -0.220588,0.2481618 -0.303309,0.5101103 -0.330882,0.9788603 h 0.758272 c 0.05515,-0.5652573 0.399816,-0.8272059 1.102941,-0.8272059 0.675552,0 1.047794,0.2481618 1.047794,0.6893383 v 0.2068014 c 0,0.3033089 -0.193014,0.4411765 -0.785845,0.5101103 -1.047794,0.1378677 -1.213236,0.179228 -1.502758,0.2895221 -0.55147,0.2205882 -0.827206,0.6479779 -0.827206,1.2545956 0,0.85477938 0.592831,1.39246321 1.544118,1.39246321 0.592831,0 1.061581,-0.20680147471 1.599265,-0.68933824 0.05515,0.46875 0.289522,0.68933824 0.772059,0.68933824 0.151654,0 0.261948,-0.0137868 0.51011,-0.0827206 z M 71.758542,-1.4746581 c 0,0.2481618 -0.06893,0.3998162 -0.303309,0.60661766 -0.303308,0.27573529 -0.661764,0.4273897 -1.102941,0.4273897 -0.579044,0 -0.923713,-0.28952205 -0.923713,-0.75827206 0,-0.4963235 0.330882,-0.7444853 1.130515,-0.8547794 0.785845,-0.1102941 0.951287,-0.1516544 1.199448,-0.2619485 z M 73.874811,-4.700761 V 5.2573529e-4 h 0.758272 V -2.591386 c 0,-0.9512868 0.496323,-1.585478 1.268382,-1.585478 0.592831,0 0.97886,0.3584559 0.97886,0.9237133 V 5.2573529e-4 h 0.744486 V -3.5426728 c 0,-0.7858456 -0.592831,-1.2821691 -1.488971,-1.2821691 -0.703125,0 -1.158088,0.2619485 -1.557904,0.9237132 V -4.700761 Z m 5.704274,0 H 78.848386 V 5.2573529e-4 h 0.730699 z m 0,-1.8336397 h -0.744486 v 0.9375 h 0.744486 z m 4.622012,1.8336397 h -3.501838 v 0.6617647 h 2.619485 l -2.8125,3.36397056 V 5.2573529e-4 h 3.818934 V -0.64745221 h -2.909007 l 2.784926,-3.37775739 z m 1.850874,0 H 85.321272 V 5.2573529e-4 h 0.730699 z m 0,-1.8336397 h -0.744486 v 0.9375 h 0.744486 z M 87.3238,-4.700761 V 5.2573529e-4 h 0.758272 V -2.591386 c 0,-0.9512868 0.496323,-1.585478 1.268382,-1.585478 0.592831,0 0.97886,0.3584559 0.97886,0.9237133 V 5.2573529e-4 H 91.0738 V -3.5426728 c 0,-0.7858456 -0.592831,-1.2821691 -1.488971,-1.2821691 -0.703125,0 -1.158088,0.2619485 -1.557904,0.9237132 V -4.700761 Z m 8.06181,0 v 0.6893382 c -0.386029,-0.5514706 -0.840992,-0.8134191 -1.433823,-0.8134191 -1.199449,0 -1.999081,1.0340073 -1.999081,2.5643382 0,0.7582721 0.206801,1.39246326 0.592831,1.83363973 0.344669,0.39981618 0.840992,0.63419118 1.337316,0.63419118 0.592831,0 1.006434,-0.24816177 1.433823,-0.84099265 v 0.234375 c 0,0.64797794 -0.08272,1.02022059 -0.275735,1.28216912 -0.193015,0.27573532 -0.579044,0.44117642 -1.034007,0.44117642 -0.344669,0 -0.647978,-0.08272 -0.85478,-0.2481617 C 92.986713,0.93802574 92.903993,0.81394485 92.862632,0.53820956 H 92.10436 c 0.08272,0.88235294 0.772059,1.42003674 1.875,1.42003674 0.689339,0 1.295956,-0.234375 1.599265,-0.6066176 0.358456,-0.42738973 0.496324,-1.02022061 0.496324,-2.12316179 V -4.700761 Z m -1.351103,0.5652573 c 0.799633,0 1.282169,0.6755515 1.282169,1.8474265 0,1.1305147 -0.496323,1.80606617 -1.282169,1.80606617 -0.813419,0 -1.309742,-0.68933827 -1.309742,-1.83363967 0,-1.1305147 0.51011,-1.819853 1.309742,-1.819853 z m 9.571463,-2.398897 h -0.74449 v 2.4264706 c -0.31709,-0.46875 -0.81342,-0.7169118 -1.44761,-0.7169118 -1.21323,0 -2.012864,0.9788603 -2.012864,2.4678309 0,1.58547791 0.772054,2.56433821 2.040444,2.56433821 0.64797,0 1.08915,-0.24816177 1.50275,-0.82720589 V 5.2573529e-4 h 0.66177 z m -2.06802,2.398897 c 0.81342,0 1.32353,0.7169118 1.32353,1.8474265 0,1.0753676 -0.52389,1.79227941 -1.30974,1.79227941 -0.82721,0 -1.37868,-0.71691181 -1.37868,-1.81985291 0,-1.0891544 0.55147,-1.819853 1.36489,-1.819853 z m 7.41384,3.69485296 c -0.0827,0.0137868 -0.12408,0.0137868 -0.16544,0.0137868 -0.26195,0 -0.39982,-0.12408088 -0.39982,-0.35845588 V -3.5426728 c 0,-0.8409926 -0.60662,-1.2821691 -1.76471,-1.2821691 -0.68933,0 -1.25459,0.1930147 -1.5579,0.5376838 -0.22059,0.2481618 -0.30331,0.5101103 -0.33088,0.9788603 h 0.75827 c 0.0551,-0.5652573 0.39982,-0.8272059 1.10294,-0.8272059 0.67555,0 1.04779,0.2481618 1.04779,0.6893383 v 0.2068014 c 0,0.3033089 -0.19301,0.4411765 -0.78584,0.5101103 -1.0478,0.1378677 -1.21324,0.179228 -1.50276,0.2895221 -0.55147,0.2205882 -0.8272,0.6479779 -0.8272,1.2545956 0,0.85477938 0.59283,1.39246321 1.54411,1.39246321 0.59283,0 1.06158,-0.20680147471 1.59927,-0.68933824 0.0551,0.46875 0.28952,0.68933824 0.77206,0.68933824 0.15165,0 0.26195,-0.0137868 0.51011,-0.0827206 z m -1.30975,-1.03400736 c 0,0.2481618 -0.0689,0.3998162 -0.3033,0.60661766 -0.30331,0.27573529 -0.66177,0.4273897 -1.10295,0.4273897 -0.57904,0 -0.92371,-0.28952205 -0.92371,-0.75827206 0,-0.4963235 0.33088,-0.7444853 1.13052,-0.8547794 0.78584,-0.1102941 0.95128,-0.1516544 1.19944,-0.2619485 z m 3.77068,-3.2261029 h -0.77205 v -1.2821691 h -0.74449 v 1.2821691 h -0.63419 v 0.6204044 h 0.63419 v 3.54319851 c 0,0.46875 0.33088,0.7444853 0.90993,0.7444853 0.17922,0 0.35845,-0.0137868 0.60661,-0.0689338 V -0.482011 c -0.0965,0.0275735 -0.22058,0.0413603 -0.35845,0.0413603 -0.3171,0 -0.4136,-0.0965074 -0.4136,-0.4273897 v -3.2123162 h 0.77205 z m 5.01494,4.26011026 c -0.0827,0.0137868 -0.12408,0.0137868 -0.16544,0.0137868 -0.26195,0 -0.39982,-0.12408088 -0.39982,-0.35845588 V -3.5426728 c 0,-0.8409926 -0.60662,-1.2821691 -1.7647,-1.2821691 -0.68934,0 -1.2546,0.1930147 -1.55791,0.5376838 -0.22059,0.2481618 -0.30331,0.5101103 -0.33088,0.9788603 h 0.75827 c 0.0551,-0.5652573 0.39982,-0.8272059 1.10294,-0.8272059 0.67555,0 1.0478,0.2481618 1.0478,0.6893383 v 0.2068014 c 0,0.3033089 -0.19302,0.4411765 -0.78585,0.5101103 -1.04779,0.1378677 -1.21323,0.179228 -1.50276,0.2895221 -0.55147,0.2205882 -0.8272,0.6479779 -0.8272,1.2545956 0,0.85477938 0.59283,1.39246321 1.54412,1.39246321 0.59283,0 1.06158,-0.20680147471 1.59926,-0.68933824 0.0552,0.46875 0.28952,0.68933824 0.77206,0.68933824 0.15165,0 0.26195,-0.0137868 0.51011,-0.0827206 z m -1.30974,-1.03400736 c 0,0.2481618 -0.0689,0.3998162 -0.30331,0.60661766 -0.30331,0.27573529 -0.66177,0.4273897 -1.10294,0.4273897 -0.57905,0 -0.92372,-0.28952205 -0.92372,-0.75827206 0,-0.4963235 0.33089,-0.7444853 1.13052,-0.8547794 0.78584,-0.1102941 0.95129,-0.1516544 1.19945,-0.2619485 z m 0,0"
       style="fill:#000000;fill-opacity:1;fill-rule:nonzero;stroke:none"
       aria-label="Cleaningandorganizingdata"
       transform="matrix(1.1333333,0,0,1.1333333,176.16193,28.038467)" />
    <path
       id="path15"
       d="m 82.11836,22.82767 h 6.64113 v 6.64113 h -6.64113 z"
       style="fill:#ffb366;fill-opacity:1;fill-rule:nonzero;stroke:#000000;stroke-width:0.79701;stroke-linecap:butt;stroke-linejoin:round;stroke-miterlimit:10;stroke-dasharray:none;stroke-opacity:1"
       transform="matrix(1.1333333,0,0,-1.1333333,71.129133,71.128933)" />
    <path
       id="path16"
       d="M 5.9267408,-4.5079522 C 5.6647923,-5.9417757 4.8513732,-6.6449007 3.4175496,-6.6449007 c -0.8823529,0 -1.5854779,0.289522 -2.0818014,0.8272058 -0.57904416,0.6341912 -0.90992651,1.5716912 -0.90992651,2.6332721 0,1.0753677 0.33088235,1.9990809 0.95128681,2.63327206 0.4963235,0.5101103 1.1443014,0.75827206 1.9990808,0.75827206 1.5992647,0 2.4954045,-0.85477941 2.6884192,-2.59191172 H 5.209829 c -0.08272,0.4549632 -0.1654411,0.758272 -0.3033088,1.0202205 -0.2619485,0.53768387 -0.8272059,0.84099269 -1.5165441,0.84099269 -1.3097426,0 -2.1231618,-1.04779409 -2.1231618,-2.67463239 0,-1.6819853 0.7858456,-2.7022058 2.0404412,-2.7022058 0.5376838,0 1.0340074,0.1516544 1.2959559,0.4136029 0.2481618,0.2205882 0.3722426,0.4963235 0.4825368,0.9788603 z m 2.9882813,-0.3170956 c -1.3235295,0 -2.1231618,0.9375 -2.1231618,2.5091912 0,1.58547792 0.7996323,2.52297792 2.1231618,2.52297792 1.3235289,0 2.1231619,-0.9375 2.1231619,-2.48161762 0,-1.6268383 -0.772059,-2.5505515 -2.1231619,-2.5505515 z m 0,0.6893382 c 0.8547794,0 1.3511029,0.6893383 1.3511029,1.8474265 0,1.1029412 -0.5238971,1.80606619 -1.3511029,1.80606619 -0.8272059,0 -1.3373162,-0.68933819 -1.3373162,-1.83363969 0,-1.1305147 0.5101103,-1.819853 1.3373162,-1.819853 z M 12.82357,-6.5346066 H 12.065298 V 3.1985294e-4 h 0.758272 z m 1.992187,0 H 14.057485 V 3.1985294e-4 h 0.758272 z m 5.214844,4.4393382 c 0,-0.7169117 -0.04136,-1.1443015 -0.179228,-1.5027573 -0.303309,-0.7720589 -1.02022,-1.2270221 -1.902573,-1.2270221 -1.309743,0 -2.150736,0.9926471 -2.150736,2.5367647 0,1.54411766 0.813419,2.49540442 2.136949,2.49540442 1.075368,0 1.819853,-0.60661764 1.999081,-1.62683822 h -0.744486 c -0.206801,0.6204044 -0.634191,0.93749999 -1.227022,0.93749999 -0.482536,0 -0.882353,-0.22058824 -1.130514,-0.60661769 C 16.652844,-1.3645699 16.58391,-1.6265184 16.58391,-2.0952684 Z M 16.597697,-2.701886 c 0.05515,-0.8685662 0.592831,-1.4338236 1.337316,-1.4338236 0.744485,0 1.309743,0.6066177 1.309743,1.3786765 0,0.013787 0,0.027573 -0.01379,0.055147 z m 8.048024,-0.413603 c -0.02757,-0.4549632 -0.137868,-0.758272 -0.317096,-1.0202206 -0.317096,-0.4273897 -0.882353,-0.6893382 -1.530331,-0.6893382 -1.268382,0 -2.095588,0.9926471 -2.095588,2.5643382 0,1.50275739 0.813419,2.46783092 2.081801,2.46783092 1.116728,0 1.83364,-0.67555147 1.916361,-1.81985292 h -0.758272 c -0.124081,0.75827204 -0.510111,1.13051469 -1.144302,1.13051469 -0.827206,0 -1.309743,-0.67555149 -1.309743,-1.77849269 0,-1.1856617 0.482537,-1.875 1.295956,-1.875 0.620405,0 1.020221,0.3584559 1.116728,1.0202206 z m 2.536764,-1.5854779 H 26.410426 V -5.983136 h -0.744485 v 1.2821691 H 25.03175 v 0.6204044 h 0.634191 v 3.54319853 c 0,0.46875 0.330883,0.74448529 0.909927,0.74448529 0.179228,0 0.358456,-0.0137868 0.606617,-0.0689338 v -0.62040441 c -0.09651,0.0275735 -0.220588,0.0413603 -0.358456,0.0413603 -0.317095,0 -0.413603,-0.0965074 -0.413603,-0.4273897 V -4.0805625 h 0.772059 z m 1.554458,0 H 28.006244 V 3.1985294e-4 h 0.730699 z m 0,-1.8336397 h -0.744485 v 0.9375 h 0.744485 z m 1.275276,1.8336397 V 3.1985294e-4 h 0.758272 V -2.5915919 c 0,-0.9512868 0.496323,-1.585478 1.268382,-1.585478 0.592831,0 0.97886,0.3584559 0.97886,0.9237133 V 3.1985294e-4 h 0.744486 V -3.5428787 c 0,-0.7858456 -0.592831,-1.2821691 -1.488971,-1.2821691 -0.703125,0 -1.158088,0.2619485 -1.557904,0.9237132 v -0.7996323 z m 8.058364,0 v 0.6893382 c -0.38603,-0.5514706 -0.840993,-0.8134191 -1.433824,-0.8134191 -1.199448,0 -1.999081,1.0340074 -1.999081,2.5643382 0,0.7582721 0.206802,1.39246328 0.592831,1.83363975 0.344669,0.39981617 0.840993,0.63419117 1.337316,0.63419117 0.592831,0 1.006434,-0.24816176 1.433824,-0.84099264 v 0.234375 c 0,0.64797794 -0.08272,1.02022058 -0.275735,1.28216911 -0.193015,0.27573531 -0.579045,0.44117651 -1.034008,0.44117651 -0.344669,0 -0.647978,-0.082721 -0.854779,-0.2481618 C 35.671686,0.93781985 35.588965,0.81373897 35.547605,0.53800368 h -0.758272 c 0.08272,0.88235292 0.772059,1.42003672 1.875,1.42003672 0.689338,0 1.295956,-0.234375 1.599264,-0.6066176 0.358456,-0.42738971 0.496324,-1.02022059 0.496324,-2.12316177 V -4.7009669 Z m -1.351103,0.5652573 c 0.799632,0 1.282169,0.6755515 1.282169,1.8474265 0,1.1305147 -0.496324,1.80606619 -1.282169,1.80606619 -0.813419,0 -1.309743,-0.68933819 -1.309743,-1.83363969 0,-1.1305147 0.51011,-1.819853 1.309743,-1.819853 z m 9.574908,-2.398897 h -0.744485 v 2.4264706 c -0.317096,-0.46875 -0.81342,-0.7169118 -1.447611,-0.7169118 -1.213235,0 -2.012867,0.9788603 -2.012867,2.4678309 0,1.58547793 0.772058,2.56433822 2.040441,2.56433822 0.647978,0 1.089154,-0.24816176 1.502757,-0.82720588 V 3.1985294e-4 h 0.661765 z m -2.068015,2.398897 c 0.813419,0 1.32353,0.7169118 1.32353,1.8474265 0,1.0753677 -0.523897,1.79227942 -1.309743,1.79227942 -0.827206,0 -1.378677,-0.71691172 -1.378677,-1.81985292 0,-1.0891544 0.551471,-1.819853 1.36489,-1.819853 z m 7.410386,3.69485298 c -0.08272,0.0137868 -0.124081,0.0137868 -0.165441,0.0137868 -0.261949,0 -0.399816,-0.12408089 -0.399816,-0.35845589 V -3.5428787 c 0,-0.8409926 -0.606618,-1.2821691 -1.764706,-1.2821691 -0.689338,0 -1.254596,0.1930147 -1.557904,0.5376838 -0.220589,0.2481618 -0.303309,0.5101103 -0.330883,0.9788603 h 0.758272 c 0.05515,-0.5652573 0.399816,-0.8272059 1.102941,-0.8272059 0.675552,0 1.047795,0.2481618 1.047795,0.6893383 v 0.2068014 c 0,0.3033089 -0.193015,0.4411765 -0.785846,0.5101103 -1.047794,0.1378677 -1.213235,0.179228 -1.502757,0.2895221 -0.551471,0.2205882 -0.827206,0.6479779 -0.827206,1.2545956 0,0.8547794 0.592831,1.39246322 1.544117,1.39246322 0.592831,0 1.061581,-0.20680146706 1.599265,-0.68933823 0.05515,0.46875 0.289522,0.68933823 0.772059,0.68933823 0.151654,0 0.261948,-0.0137868 0.51011,-0.0827206 z M 50.327017,-1.474864 c 0,0.2481618 -0.06893,0.3998162 -0.303309,0.60661768 -0.303309,0.27573529 -0.661765,0.4273897 -1.102941,0.4273897 -0.579045,0 -0.923714,-0.28952206 -0.923714,-0.75827208 0,-0.4963235 0.330883,-0.7444853 1.130515,-0.8547794 0.785846,-0.1102941 0.951287,-0.1516544 1.199449,-0.2619485 z m 3.774126,-3.2261029 H 53.329085 V -5.983136 h -0.744486 v 1.2821691 h -0.634191 v 0.6204044 h 0.634191 v 3.54319853 c 0,0.46875 0.330883,0.74448529 0.909927,0.74448529 0.179228,0 0.358456,-0.0137868 0.606617,-0.0689338 v -0.62040441 c -0.09651,0.0275735 -0.220588,0.0413603 -0.358455,0.0413603 -0.317096,0 -0.413603,-0.0965074 -0.413603,-0.4273897 V -4.0805625 h 0.772058 z m 5.014936,4.26011028 c -0.08272,0.0137868 -0.124081,0.0137868 -0.165441,0.0137868 -0.261949,0 -0.399816,-0.12408089 -0.399816,-0.35845589 V -3.5428787 c 0,-0.8409926 -0.606618,-1.2821691 -1.764706,-1.2821691 -0.689338,0 -1.254596,0.1930147 -1.557905,0.5376838 -0.220588,0.2481618 -0.303308,0.5101103 -0.330882,0.9788603 h 0.758272 c 0.05515,-0.5652573 0.399816,-0.8272059 1.102941,-0.8272059 0.675552,0 1.047794,0.2481618 1.047794,0.6893383 v 0.2068014 c 0,0.3033089 -0.193014,0.4411765 -0.785845,0.5101103 -1.047794,0.1378677 -1.213235,0.179228 -1.502758,0.2895221 -0.55147,0.2205882 -0.827205,0.6479779 -0.827205,1.2545956 0,0.8547794 0.59283,1.39246322 1.544117,1.39246322 0.592831,0 1.061581,-0.20680146706 1.599265,-0.68933823 0.05515,0.46875 0.289522,0.68933823 0.772059,0.68933823 0.151654,0 0.261948,-0.0137868 0.51011,-0.0827206 z M 57.806336,-1.474864 c 0,0.2481618 -0.06893,0.3998162 -0.303308,0.60661768 -0.303309,0.27573529 -0.661765,0.4273897 -1.102942,0.4273897 -0.579044,0 -0.923713,-0.28952206 -0.923713,-0.75827208 0,-0.4963235 0.330883,-0.7444853 1.130515,-0.8547794 0.785845,-0.1102941 0.951287,-0.1516544 1.199448,-0.2619485 z m 7.910157,-1.9163603 c -0.01379,-0.9237132 -0.620405,-1.4338235 -1.709559,-1.4338235 -1.089155,0 -1.79228,0.5652574 -1.79228,1.4338235 0,0.7306986 0.372243,1.0753677 1.475184,1.351103 l 0.703125,0.1654412 c 0.523897,0.1240808 0.730699,0.3170955 0.730699,0.6617647 0,0.42738966 -0.441177,0.73069849 -1.102941,0.73069849 -0.399817,0 -0.730699,-0.12408088 -0.923714,-0.31709559 -0.124081,-0.13786765 -0.165441,-0.2619485 -0.220588,-0.5928309 h -0.785845 c 0.04136,1.07536766 0.647977,1.59926472 1.875,1.59926472 1.185661,0 1.930147,-0.57904411 1.930147,-1.48897062 0,-0.703125 -0.38603,-1.0891544 -1.32353,-1.3097426 l -0.716912,-0.1654412 c -0.606617,-0.1516544 -0.868566,-0.3446691 -0.868566,-0.6755515 0,-0.4273897 0.38603,-0.703125 0.992647,-0.703125 0.606618,0 0.923714,0.2619486 0.9375,0.7444853 z m 5.14591,1.2959559 c 0,-0.7169117 -0.04136,-1.1443015 -0.179228,-1.5027573 -0.303309,-0.7720589 -1.020221,-1.2270221 -1.902574,-1.2270221 -1.309743,0 -2.150735,0.9926471 -2.150735,2.5367647 0,1.54411766 0.813419,2.49540442 2.136948,2.49540442 1.075368,0 1.819853,-0.60661764 1.999081,-1.62683822 H 70.02141 c -0.206802,0.6204044 -0.634191,0.93749999 -1.227022,0.93749999 -0.482537,0 -0.882353,-0.22058824 -1.130515,-0.60661769 -0.179228,-0.2757353 -0.248162,-0.5376838 -0.248162,-1.0064338 z M 67.429498,-2.701886 c 0.05515,-0.8685662 0.592831,-1.4338236 1.337316,-1.4338236 0.744486,0 1.309743,0.6066177 1.309743,1.3786765 0,0.013787 0,0.027573 -0.01379,0.055147 z m 6.100644,-1.9990809 H 72.758083 V -5.983136 h -0.744486 v 1.2821691 h -0.634191 v 0.6204044 h 0.634191 v 3.54319853 c 0,0.46875 0.330883,0.74448529 0.909927,0.74448529 0.179228,0 0.358456,-0.0137868 0.606618,-0.0689338 v -0.62040441 c -0.09651,0.0275735 -0.220589,0.0413603 -0.358456,0.0413603 -0.317096,0 -0.413603,-0.0965074 -0.413603,-0.4273897 V -4.0805625 h 0.772059 z m 4.146369,1.3097426 c -0.01379,-0.9237132 -0.620404,-1.4338235 -1.709559,-1.4338235 -1.089154,0 -1.792279,0.5652574 -1.792279,1.4338235 0,0.7306986 0.372242,1.0753677 1.475184,1.351103 l 0.703125,0.1654412 c 0.523897,0.1240808 0.730698,0.3170955 0.730698,0.6617647 0,0.42738966 -0.441176,0.73069849 -1.102941,0.73069849 -0.399816,0 -0.730699,-0.12408088 -0.923713,-0.31709559 -0.124081,-0.13786765 -0.165441,-0.2619485 -0.220588,-0.5928309 h -0.785846 c 0.04136,1.07536766 0.647978,1.59926472 1.875,1.59926472 1.185662,0 1.930147,-0.57904411 1.930147,-1.48897062 0,-0.703125 -0.386029,-1.0891544 -1.323529,-1.3097426 l -0.716912,-0.1654412 c -0.606618,-0.1516544 -0.868566,-0.3446691 -0.868566,-0.6755515 0,-0.4273897 0.386029,-0.703125 0.992647,-0.703125 0.606617,0 0.923713,0.2619486 0.9375,0.7444853 z m 0,0"
       style="fill:#000000;fill-opacity:1;fill-rule:nonzero;stroke:none"
       aria-label="Collectingdatasets"
       transform="matrix(1.1333333,0,0,1.1333333,176.16193,44.1012)" />
    <path
       id="path17"
       d="m 82.11836,8.65427 h 6.64113 v 6.64113 h -6.64113 z"
       style="fill:#80ff80;fill-opacity:1;fill-rule:nonzero;stroke:#000000;stroke-width:0.79701;stroke-linecap:butt;stroke-linejoin:round;stroke-miterlimit:10;stroke-dasharray:none;stroke-opacity:1"
       transform="matrix(1.1333333,0,0,-1.1333333,71.129133,71.128933)" />
    <path
       id="path18"
       d="M 4.1896085,-8.8602941e-4 6.0232482,-5.4742316 V -8.8602941e-4 H 6.8228805 V -6.5358125 H 5.6647923 L 3.7622188,-0.84187868 1.8320717,-6.5358125 H 0.67398346 V -8.8602941e-4 H 1.459829 V -5.4742316 L 3.3072555,-8.8602941e-4 Z M 8.8047279,-4.7021728 H 8.0740294 v 4.70128677059 h 0.7306985 z m 0,-1.8336397 H 8.0602426 v 0.9375 h 0.7444853 z m 1.2752761,1.8336397 v 4.70128677059 h 0.758272 V -2.5927978 c 0,-0.9512868 0.496323,-1.5854779 1.268382,-1.5854779 0.592831,0 0.97886,0.3584558 0.97886,0.9237132 v 3.25367647059 h 0.744486 V -3.5440846 c 0,-0.7858455 -0.592831,-1.2821691 -1.488971,-1.2821691 -0.703125,0 -1.158088,0.2619486 -1.557904,0.9237133 v -0.7996324 z m 5.700827,0 h -0.730699 v 4.70128677059 h 0.730699 z m 0,-1.8336397 h -0.744485 v 0.9375 h 0.744485 z m 1.275276,1.8336397 v 4.70128677059 h 0.758272 V -2.5927978 c 0,-0.9512868 0.496323,-1.5854779 1.268382,-1.5854779 0.592831,0 0.97886,0.3584558 0.97886,0.9237132 v 3.25367647059 h 0.744486 V -3.5440846 c 0,-0.7858455 -0.592831,-1.2821691 -1.488971,-1.2821691 -0.703125,0 -1.158088,0.2619486 -1.557904,0.9237133 v -0.7996324 z m 8.058364,0 v 0.6893382 c -0.38603,-0.5514705 -0.840993,-0.8134191 -1.433824,-0.8134191 -1.199448,0 -1.999081,1.0340074 -1.999081,2.5643383 0,0.758272 0.206802,1.39246319 0.592831,1.83363966 0.344669,0.39981618 0.840993,0.63419118 1.337316,0.63419118 0.592831,0 1.006434,-0.24816176 1.433824,-0.84099265 v 0.234375 c 0,0.64797795 -0.08272,1.02022059 -0.275736,1.28216912 -0.193014,0.27573529 -0.579044,0.44117649 -1.034007,0.44117649 -0.344669,0 -0.647978,-0.082721 -0.854779,-0.2481618 C 22.715574,0.93661397 22.632853,0.81253309 22.591493,0.53679779 h -0.758272 c 0.08272,0.88235291 0.772058,1.42003681 1.875,1.42003681 0.689338,0 1.295955,-0.234375 1.599264,-0.6066177 0.358456,-0.42738969 0.496324,-1.02022058 0.496324,-2.12316175 V -4.7021728 Z m -1.351103,0.5652574 c 0.799632,0 1.282169,0.6755514 1.282169,1.8474264 0,1.1305147 -0.496324,1.80606621 -1.282169,1.80606621 -0.813419,0 -1.309743,-0.68933821 -1.309743,-1.83363971 0,-1.1305147 0.51011,-1.8198529 1.309743,-1.8198529 z m 9.574908,-2.3988971 H 32.59379 v 2.4264706 c -0.317095,-0.46875 -0.813419,-0.7169118 -1.44761,-0.7169118 -1.213235,0 -2.012867,0.9788603 -2.012867,2.4678309 0,1.58547795 0.772058,2.56433824 2.040441,2.56433824 0.647978,0 1.089154,-0.24816176 1.502757,-0.82720588 v 0.62040441059 h 0.661765 z m -2.068015,2.3988971 c 0.813419,0 1.323529,0.7169117 1.323529,1.8474264 0,1.0753677 -0.523897,1.79227944 -1.309742,1.79227944 -0.827206,0 -1.378677,-0.71691174 -1.378677,-1.81985294 0,-1.0891544 0.551471,-1.8198529 1.36489,-1.8198529 z m 7.410386,3.6948529 c -0.08272,0.0137868 -0.124081,0.0137868 -0.165441,0.0137868 -0.261949,0 -0.399816,-0.12408088 -0.399816,-0.35845588 V -3.5440846 c 0,-0.8409926 -0.606618,-1.2821691 -1.764706,-1.2821691 -0.689338,0 -1.254596,0.1930147 -1.557905,0.5376838 -0.220588,0.2481618 -0.303308,0.5101103 -0.330882,0.9788603 h 0.758272 c 0.05515,-0.5652573 0.399816,-0.8272058 1.102941,-0.8272058 0.675552,0 1.047794,0.2481617 1.047794,0.6893382 v 0.2068015 c 0,0.3033088 -0.193014,0.4411764 -0.785845,0.5101103 -1.047794,0.1378676 -1.213235,0.1792279 -1.502758,0.289522 -0.55147,0.2205883 -0.827205,0.647978 -0.827205,1.2545956 0,0.85477942 0.59283,1.39246324 1.544117,1.39246324 0.592831,0 1.061581,-0.20680146941 1.599265,-0.68933823 0.05515,0.46875 0.289522,0.68933823 0.772059,0.68933823 0.151654,0 0.261948,-0.0137868 0.51011,-0.0827206 z m -1.309743,-1.0340074 c 0,0.2481618 -0.06893,0.3998162 -0.303308,0.60661769 -0.303309,0.2757353 -0.661765,0.42738971 -1.102942,0.42738971 -0.579044,0 -0.923713,-0.28952206 -0.923713,-0.7582721 0,-0.4963235 0.330883,-0.7444853 1.130515,-0.8547794 0.785845,-0.1102941 0.951287,-0.1516544 1.199448,-0.2619485 z m 3.774127,-3.2261029 h -0.772059 v -1.2821691 h -0.744485 v 1.2821691 h -0.634191 v 0.6204044 h 0.634191 v 3.54319855 c 0,0.46875 0.330882,0.74448529 0.909927,0.74448529 0.179228,0 0.358455,-0.0137868 0.606617,-0.0689338 v -0.62040441 c -0.09651,0.0275735 -0.220588,0.0413603 -0.358456,0.0413603 -0.317095,0 -0.413603,-0.0965073 -0.413603,-0.42738971 V -4.0817684 h 0.772059 z m 5.014936,4.2601103 c -0.08272,0.0137868 -0.124081,0.0137868 -0.165441,0.0137868 -0.261949,0 -0.399816,-0.12408088 -0.399816,-0.35845588 V -3.5440846 c 0,-0.8409926 -0.606618,-1.2821691 -1.764706,-1.2821691 -0.689339,0 -1.254596,0.1930147 -1.557905,0.5376838 -0.220588,0.2481618 -0.303309,0.5101103 -0.330882,0.9788603 h 0.758272 c 0.05515,-0.5652573 0.399816,-0.8272058 1.102941,-0.8272058 0.675552,0 1.047794,0.2481617 1.047794,0.6893382 v 0.2068015 c 0,0.3033088 -0.193014,0.4411764 -0.785845,0.5101103 -1.047794,0.1378676 -1.213236,0.1792279 -1.502758,0.289522 -0.55147,0.2205883 -0.827206,0.647978 -0.827206,1.2545956 0,0.85477942 0.592831,1.39246324 1.544118,1.39246324 0.592831,0 1.061581,-0.20680146941 1.599265,-0.68933823 0.05515,0.46875 0.289522,0.68933823 0.772059,0.68933823 0.151654,0 0.261948,-0.0137868 0.51011,-0.0827206 z m -1.309743,-1.0340074 c 0,0.2481618 -0.06893,0.3998162 -0.303309,0.60661769 -0.303308,0.2757353 -0.661764,0.42738971 -1.102941,0.42738971 -0.579044,0 -0.923713,-0.28952206 -0.923713,-0.7582721 0,-0.4963235 0.330882,-0.7444853 1.130515,-0.8547794 0.785845,-0.1102941 0.951287,-0.1516544 1.199448,-0.2619485 z m 6.297105,-3.2261029 h -0.785846 v -0.7306985 c 0,-0.3170956 0.179228,-0.46875 0.523898,-0.46875 0.05515,0 0.08272,0 0.261948,0 v -0.6204044 c -0.179228,-0.027574 -0.275735,-0.04136 -0.42739,-0.04136 -0.689338,0 -1.102941,0.3998161 -1.102941,1.0753676 v 0.7858456 h -0.620404 v 0.6204044 h 0.620404 v 4.08088237059 h 0.744485 V -4.0817684 h 0.785846 z m 2.357537,-0.1240809 c -1.32353,0 -2.123162,0.9375 -2.123162,2.5091912 0,1.58547794 0.799632,2.52297794 2.123162,2.52297794 1.323529,0 2.123162,-0.9375 2.123162,-2.48161764 0,-1.6268382 -0.772059,-2.5505515 -2.123162,-2.5505515 z m 0,0.6893383 c 0.854779,0 1.351103,0.6893382 1.351103,1.8474264 0,1.1029412 -0.523897,1.80606621 -1.351103,1.80606621 -0.827206,0 -1.337316,-0.68933821 -1.337316,-1.83363971 0,-1.1305147 0.51011,-1.8198529 1.337316,-1.8198529 z m 3.164062,-0.5652574 v 4.70128677059 h 0.744486 V -2.4411434 c 0,-0.6755515 0.179228,-1.1029412 0.537683,-1.3648897 0.234375,-0.1792279 0.454964,-0.2205882 0.978861,-0.234375 v -0.758272 c -0.124081,-0.027574 -0.193015,-0.027574 -0.289522,-0.027574 -0.482537,0 -0.85478,0.2757353 -1.282169,0.9788603 v -0.8547794 z m 5.332032,6.6590074 h 0.758272 v -2.45404416 c 0.386029,0.48253677 0.827206,0.703125 1.433823,0.703125 1.213235,0 2.012868,-0.97886029 2.012868,-2.46783084 0,-1.585478 -0.772059,-2.5643383 -2.012868,-2.5643383 -0.634191,0 -1.158088,0.2757353 -1.502757,0.8409927 V -4.7021728 H 62.00096 Z m 2.068014,-6.09375 c 0.813419,0 1.351103,0.7306985 1.351103,1.8474264 0,1.0753677 -0.537684,1.79227944 -1.351103,1.79227944 -0.799632,0 -1.309742,-0.71691174 -1.309742,-1.81985294 0,-1.1029412 0.51011,-1.8198529 1.309742,-1.8198529 z m 7.231158,3.6948529 c -0.08272,0.0137868 -0.124081,0.0137868 -0.165441,0.0137868 -0.261948,0 -0.399816,-0.12408088 -0.399816,-0.35845588 V -3.5440846 c 0,-0.8409926 -0.606618,-1.2821691 -1.764706,-1.2821691 -0.689338,0 -1.254595,0.1930147 -1.557904,0.5376838 -0.220589,0.2481618 -0.303309,0.5101103 -0.330883,0.9788603 h 0.758272 c 0.05515,-0.5652573 0.399817,-0.8272058 1.102942,-0.8272058 0.675551,0 1.047794,0.2481617 1.047794,0.6893382 v 0.2068015 c 0,0.3033088 -0.193015,0.4411764 -0.785846,0.5101103 -1.047794,0.1378676 -1.213235,0.1792279 -1.502757,0.289522 -0.551471,0.2205883 -0.827206,0.647978 -0.827206,1.2545956 0,0.85477942 0.592831,1.39246324 1.544118,1.39246324 0.59283,0 1.06158,-0.20680146941 1.599264,-0.68933823 0.05515,0.46875 0.289522,0.68933823 0.772059,0.68933823 0.151654,0 0.261949,-0.0137868 0.51011,-0.0827206 z M 69.99039,-1.4760699 c 0,0.2481618 -0.06893,0.3998162 -0.303309,0.60661769 -0.303309,0.2757353 -0.661765,0.42738971 -1.102941,0.42738971 -0.579044,0 -0.923714,-0.28952206 -0.923714,-0.7582721 0,-0.4963235 0.330883,-0.7444853 1.130515,-0.8547794 0.785846,-0.1102941 0.951287,-0.1516544 1.199449,-0.2619485 z m 3.774127,-3.2261029 h -0.772059 v -1.2821691 h -0.744486 v 1.2821691 h -0.634191 v 0.6204044 h 0.634191 v 3.54319855 c 0,0.46875 0.330883,0.74448529 0.909927,0.74448529 0.179228,0 0.358456,-0.0137868 0.606618,-0.0689338 v -0.62040441 c -0.09651,0.0275735 -0.220589,0.0413603 -0.358456,0.0413603 -0.317096,0 -0.413603,-0.0965073 -0.413603,-0.42738971 V -4.0817684 h 0.772059 z m 2.491957,0 H 75.484415 V -5.9843419 H 74.73993 v 1.2821691 h -0.634191 v 0.6204044 h 0.634191 v 3.54319855 c 0,0.46875 0.330883,0.74448529 0.909927,0.74448529 0.179228,0 0.358456,-0.0137868 0.606617,-0.0689338 v -0.62040441 c -0.09651,0.0275735 -0.220588,0.0413603 -0.358456,0.0413603 -0.317095,0 -0.413603,-0.0965073 -0.413603,-0.42738971 V -4.0817684 h 0.772059 z m 4.808134,2.6056985 c 0,-0.7169117 -0.04136,-1.1443014 -0.179227,-1.5027573 -0.303309,-0.7720588 -1.020221,-1.2270221 -1.902574,-1.2270221 -1.309743,0 -2.150735,0.9926471 -2.150735,2.5367647 0,1.54411768 0.813419,2.49540444 2.136948,2.49540444 1.075368,0 1.819853,-0.60661765 1.999081,-1.62683824 h -0.744485 c -0.206802,0.62040442 -0.634191,0.93750001 -1.227022,0.93750001 -0.482537,0 -0.882353,-0.22058824 -1.130515,-0.60661761 -0.179228,-0.2757353 -0.248162,-0.5376839 -0.248162,-1.0064339 z m -3.432904,-0.6066176 c 0.05515,-0.8685662 0.592831,-1.4338235 1.337316,-1.4338235 0.744486,0 1.309743,0.6066176 1.309743,1.3786764 0,0.013787 0,0.027574 -0.01379,0.055147 z m 4.449678,-1.9990809 v 4.70128677059 h 0.744486 V -2.4411434 c 0,-0.6755515 0.179228,-1.1029412 0.537683,-1.3648897 0.234375,-0.1792279 0.454964,-0.2205882 0.978861,-0.234375 v -0.758272 c -0.124081,-0.027574 -0.193015,-0.027574 -0.289522,-0.027574 -0.482537,0 -0.85478,0.2757353 -1.282169,0.9788603 v -0.8547794 z m 3.20887,0 v 4.70128677059 h 0.758272 V -2.5927978 c 0,-0.9512868 0.496323,-1.5854779 1.268382,-1.5854779 0.592831,0 0.978861,0.3584558 0.978861,0.9237132 v 3.25367647059 h 0.744485 V -3.5440846 c 0,-0.7858455 -0.592831,-1.2821691 -1.488971,-1.2821691 -0.703125,0 -1.158088,0.2619486 -1.557904,0.9237133 v -0.7996324 z m 8.292739,1.3097427 c -0.01379,-0.9237133 -0.620405,-1.4338236 -1.709559,-1.4338236 -1.089154,0 -1.792279,0.5652574 -1.792279,1.4338236 0,0.7306985 0.372242,1.0753676 1.475183,1.3511029 l 0.703125,0.1654412 c 0.523897,0.1240809 0.730699,0.3170956 0.730699,0.6617647 0,0.42738968 -0.441177,0.73069851 -1.102941,0.73069851 -0.399816,0 -0.730699,-0.12408089 -0.923713,-0.31709559 -0.124081,-0.13786765 -0.165442,-0.26194852 -0.220589,-0.59283092 h -0.785845 c 0.04136,1.07536768 0.647978,1.59926474 1.875,1.59926474 1.185661,0 1.930147,-0.57904412 1.930147,-1.48897054 0,-0.703125 -0.38603,-1.0891545 -1.32353,-1.3097427 L 91.721778,-2.758239 c -0.606618,-0.1516544 -0.868567,-0.3446691 -0.868567,-0.6755514 0,-0.4273897 0.38603,-0.703125 0.992647,-0.703125 0.606618,0 0.923714,0.2619485 0.9375,0.7444853 z m 0,0"
       style="fill:#000000;fill-opacity:1;fill-rule:nonzero;stroke:none"
       aria-label="Miningdataforpatterns"
       transform="matrix(1.1333333,0,0,1.1333333,176.16193,60.165067)" />
    <path
       id="path19"
       d="m 82.11836,-5.51912 h 6.64113 v 6.64113 h -6.64113 z"
       style="fill:#ff9999;fill-opacity:1;fill-rule:nonzero;stroke:#000000;stroke-width:0.79701;stroke-linecap:butt;stroke-linejoin:round;stroke-miterlimit:10;stroke-dasharray:none;stroke-opacity:1"
       transform="matrix(1.1333333,0,0,-1.1333333,71.129133,71.128933)" />
    <path
       id="path20"
       d="M 0.70155699,-0.00149265 H 3.6519246 c 0.6204044,0 1.0753677,-0.16544117 1.4338236,-0.55147059 0.3170956,-0.33088235 0.4963235,-0.79963236 0.4963235,-1.30974266 0,-0.7858456 -0.3584559,-1.2683823 -1.1994485,-1.5854779 0.5928308,-0.2757353 0.9099264,-0.7582721 0.9099264,-1.4338236 0,-0.46875 -0.1792279,-0.8961397 -0.523897,-1.1994485 C 4.4377702,-6.3847647 3.982807,-6.5364191 3.3624026,-6.5364191 H 0.70155699 Z M 1.5425496,-3.7239191 v -2.0818015 h 1.6130515 c 0.46875,0 0.7169118,0.068934 0.9512868,0.234375 0.234375,0.179228 0.3584559,0.4549632 0.3584559,0.8134191 0,0.3446691 -0.1240809,0.6204044 -0.3584559,0.7996324 -0.234375,0.1792279 -0.4825368,0.234375 -0.9512868,0.234375 z m 0,2.99172792 V -2.9794338 H 3.569204 c 0.413603,0 0.6755515,0.096507 0.8685662,0.3033088 0.2068015,0.2068015 0.3033088,0.4963235 0.3033088,0.8134191 0,0.3170956 -0.096507,0.6066177 -0.3033088,0.8134191 -0.1930147,0.22058827 -0.4549632,0.31709562 -0.8685662,0.31709562 z m 8.7545954,0.73069853 V -4.7027794 H 9.5526599 v 2.6608456 c 0,0.9650735 -0.4963235,1.59926468 -1.2821691,1.59926468 -0.5928309,0 -0.9650735,-0.35845588 -0.9650735,-0.92371328 v -3.336397 H 6.560932 v 3.6259191 c 0,0.78584559 0.5790441,1.28216912 1.5027573,1.28216912 0.6893383,0 1.1305147,-0.24816176 1.5716912,-0.85477941 v 0.64797794 z m 2.005974,-4.70128675 h -0.730698 v 4.70128675 h 0.730698 z m 0,-1.8336397 h -0.744485 v 0.9375 h 0.744485 z m 2.019762,0 h -0.758273 v 6.53492645 h 0.758273 z m 5.063189,0 h -0.744485 v 2.4264706 c -0.317096,-0.46875 -0.81342,-0.7169118 -1.447611,-0.7169118 -1.213235,0 -2.012867,0.9788603 -2.012867,2.4678309 0,1.58547793 0.772058,2.56433822 2.040441,2.56433822 0.647978,0 1.089154,-0.24816176 1.502757,-0.82720588 v 0.62040441 h 0.661765 z m -2.068015,2.398897 c 0.813419,0 1.32353,0.7169118 1.32353,1.8474265 0,1.0753677 -0.523897,1.79227942 -1.309743,1.79227942 -0.827206,0 -1.378677,-0.71691172 -1.378677,-1.81985292 0,-1.0891544 0.551471,-1.819853 1.36489,-1.819853 z m 3.949908,-0.5652573 h -0.730698 v 4.70128675 h 0.730698 z m 0,-1.8336397 h -0.744485 v 0.9375 h 0.744485 z m 1.275276,1.8336397 v 4.70128675 h 0.758272 V -2.5934044 c 0,-0.9512868 0.496324,-1.585478 1.268382,-1.585478 0.592831,0 0.978861,0.3584559 0.978861,0.9237133 v 3.25367645 h 0.744485 V -3.5446912 c 0,-0.7858456 -0.592831,-1.2821691 -1.488971,-1.2821691 -0.703125,0 -1.158088,0.2619485 -1.557904,0.9237132 v -0.7996323 z m 8.058364,0 v 0.6893382 c -0.386029,-0.5514706 -0.840993,-0.8134191 -1.433824,-0.8134191 -1.199448,0 -1.99908,1.0340074 -1.99908,2.5643382 0,0.7582721 0.206801,1.39246328 0.59283,1.83363975 0.34467,0.39981617 0.840993,0.63419117 1.337317,0.63419117 0.59283,0 1.006433,-0.24816176 1.433823,-0.84099264 v 0.234375 c 0,0.64797794 -0.08272,1.02022058 -0.275735,1.28216911 -0.193015,0.27573531 -0.579044,0.44117651 -1.034008,0.44117651 -0.344669,0 -0.647977,-0.082721 -0.854779,-0.2481618 C 28.202706,0.93600735 28.119985,0.81192647 28.078625,0.53619118 h -0.758272 c 0.08272,0.88235292 0.772059,1.42003672 1.875,1.42003672 0.689338,0 1.295956,-0.234375 1.599265,-0.6066176 0.358456,-0.42738971 0.496323,-1.02022059 0.496323,-2.12316177 V -4.7027794 Z M 29.2505,-4.1375221 c 0.799632,0 1.282169,0.6755515 1.282169,1.8474265 0,1.1305147 -0.496323,1.80606619 -1.282169,1.80606619 -0.813419,0 -1.309743,-0.68933819 -1.309743,-1.83363969 0,-1.1305147 0.510111,-1.819853 1.309743,-1.819853 z m 7.410386,-0.5652573 h -0.772059 v -1.2821691 h -0.744485 v 1.2821691 h -0.634191 v 0.6204044 h 0.634191 v 3.54319853 c 0,0.46875 0.330882,0.74448529 0.909926,0.74448529 0.179228,0 0.358456,-0.0137868 0.606618,-0.0689338 v -0.62040441 c -0.09651,0.0275735 -0.220588,0.0413603 -0.358456,0.0413603 -0.317095,0 -0.413603,-0.0965073 -0.413603,-0.4273897 V -4.082375 h 0.772059 z m 0.837546,0 v 4.70128675 h 0.744485 V -2.44175 c 0,-0.6755515 0.179228,-1.1029412 0.537684,-1.3648897 0.234375,-0.1792279 0.454963,-0.2205882 0.97886,-0.234375 v -0.7582721 c -0.12408,-0.027573 -0.193014,-0.027573 -0.289522,-0.027573 -0.482536,0 -0.854779,0.2757353 -1.282169,0.9788603 v -0.8547794 z m 7.07261,4.26011028 c -0.08272,0.0137868 -0.124081,0.0137868 -0.165441,0.0137868 -0.261948,0 -0.399816,-0.12408089 -0.399816,-0.35845589 V -3.5446912 c 0,-0.8409926 -0.606618,-1.2821691 -1.764706,-1.2821691 -0.689338,0 -1.254596,0.1930147 -1.557904,0.5376838 -0.220589,0.2481618 -0.303309,0.5101103 -0.330883,0.9788603 h 0.758272 c 0.05515,-0.5652573 0.399817,-0.8272059 1.102942,-0.8272059 0.675551,0 1.047794,0.2481618 1.047794,0.6893383 v 0.2068014 c 0,0.3033089 -0.193015,0.4411765 -0.785846,0.5101103 -1.047794,0.1378677 -1.213235,0.179228 -1.502757,0.2895221 -0.551471,0.2205882 -0.827206,0.6479779 -0.827206,1.2545956 0,0.8547794 0.592831,1.39246322 1.544117,1.39246322 0.592831,0 1.061581,-0.20680147 1.599265,-0.68933823 0.05515,0.46875 0.289522,0.68933823 0.772059,0.68933823 0.151654,0 0.261949,-0.0137868 0.51011,-0.0827206 z M 43.2613,-1.4766765 c 0,0.2481618 -0.06893,0.3998162 -0.303309,0.60661768 -0.303309,0.27573529 -0.661765,0.4273897 -1.102941,0.4273897 -0.579044,0 -0.923714,-0.28952206 -0.923714,-0.75827208 0,-0.4963235 0.330883,-0.7444853 1.130515,-0.8547794 0.785846,-0.1102941 0.951287,-0.1516544 1.199449,-0.2619485 z m 2.836626,-3.2261029 h -0.730698 v 4.70128675 h 0.730698 z m 0,-1.8336397 h -0.744485 v 0.9375 h 0.744485 z m 1.27183,1.8336397 v 4.70128675 h 0.758272 V -2.5934044 c 0,-0.9512868 0.496323,-1.585478 1.268382,-1.585478 0.592831,0 0.97886,0.3584559 0.97886,0.9237133 v 3.25367645 h 0.744486 V -3.5446912 c 0,-0.7858456 -0.592831,-1.2821691 -1.488971,-1.2821691 -0.703125,0 -1.158088,0.2619485 -1.557904,0.9237132 v -0.7996323 z m 5.704273,0 h -0.730698 v 4.70128675 h 0.730698 z m 0,-1.8336397 h -0.744485 v 0.9375 h 0.744485 z m 1.271829,1.8336397 v 4.70128675 h 0.758273 V -2.5934044 c 0,-0.9512868 0.496323,-1.585478 1.268382,-1.585478 0.592831,0 0.97886,0.3584559 0.97886,0.9237133 v 3.25367645 h 0.744485 V -3.5446912 c 0,-0.7858456 -0.59283,-1.2821691 -1.48897,-1.2821691 -0.703125,0 -1.158088,0.2619485 -1.557905,0.9237132 v -0.7996323 z m 8.061811,0 v 0.6893382 c -0.386029,-0.5514706 -0.840993,-0.8134191 -1.433823,-0.8134191 -1.199449,0 -1.999081,1.0340074 -1.999081,2.5643382 0,0.7582721 0.206801,1.39246328 0.592831,1.83363975 0.344669,0.39981617 0.840992,0.63419117 1.337316,0.63419117 0.592831,0 1.006434,-0.24816176 1.433823,-0.84099264 v 0.234375 c 0,0.64797794 -0.08272,1.02022058 -0.275735,1.28216911 -0.193015,0.27573531 -0.579044,0.44117651 -1.034007,0.44117651 -0.344669,0 -0.647978,-0.082721 -0.85478,-0.2481618 C 60.008772,0.93600735 59.926051,0.81192647 59.884691,0.53619118 h -0.758272 c 0.08272,0.88235292 0.772059,1.42003672 1.875,1.42003672 0.689338,0 1.295956,-0.234375 1.599265,-0.6066176 0.358456,-0.42738971 0.496323,-1.02022059 0.496323,-2.12316177 V -4.7027794 Z m -1.351103,0.5652573 c 0.799633,0 1.282169,0.6755515 1.282169,1.8474265 0,1.1305147 -0.496323,1.80606619 -1.282169,1.80606619 -0.813419,0 -1.309742,-0.68933819 -1.309742,-1.83363969 0,-1.1305147 0.51011,-1.819853 1.309742,-1.819853 z m 9.054458,0.7444853 c -0.01379,-0.9237132 -0.620405,-1.4338235 -1.709559,-1.4338235 -1.089154,0 -1.792279,0.5652574 -1.792279,1.4338235 0,0.7306986 0.372242,1.0753677 1.475183,1.351103 l 0.703125,0.1654412 c 0.523898,0.1240808 0.730699,0.3170955 0.730699,0.6617647 0,0.42738966 -0.441176,0.73069849 -1.102941,0.73069849 -0.399816,0 -0.730699,-0.12408088 -0.923713,-0.31709559 -0.124081,-0.13786765 -0.165442,-0.2619485 -0.220589,-0.5928309 h -0.785845 c 0.04136,1.07536766 0.647978,1.59926472 1.875,1.59926472 1.185662,0 1.930147,-0.57904411 1.930147,-1.48897062 0,-0.703125 -0.38603,-1.0891544 -1.32353,-1.3097426 L 68.249811,-2.7588456 C 67.643193,-2.9105 67.381244,-3.1035147 67.381244,-3.4343971 c 0,-0.4273897 0.38603,-0.703125 0.992648,-0.703125 0.606617,0 0.923713,0.2619486 0.9375,0.7444853 z m 5.142463,1.2959559 c 0,-0.7169117 -0.04136,-1.1443015 -0.179228,-1.5027573 -0.303309,-0.7720589 -1.02022,-1.2270221 -1.902573,-1.2270221 -1.309743,0 -2.150736,0.9926471 -2.150736,2.5367647 0,1.54411766 0.813419,2.49540442 2.136949,2.49540442 1.075368,0 1.819853,-0.60661764 1.999081,-1.62683822 h -0.744486 c -0.206801,0.6204044 -0.634191,0.93749999 -1.227022,0.93749999 -0.482536,0 -0.882353,-0.22058824 -1.130514,-0.60661769 -0.179228,-0.2757353 -0.248162,-0.5376838 -0.248162,-1.0064338 z m -3.432904,-0.6066176 c 0.05515,-0.8685662 0.592831,-1.4338236 1.337316,-1.4338236 0.744485,0 1.309743,0.6066177 1.309743,1.3786765 0,0.013787 0,0.027573 -0.01379,0.055147 z m 6.10409,-1.9990809 h -0.772059 v -1.2821691 h -0.744485 v 1.2821691 h -0.634191 v 0.6204044 h 0.634191 v 3.54319853 c 0,0.46875 0.330882,0.74448529 0.909926,0.74448529 0.179228,0 0.358456,-0.0137868 0.606618,-0.0689338 v -0.62040441 c -0.09651,0.0275735 -0.220588,0.0413603 -0.358456,0.0413603 -0.317096,0 -0.413603,-0.0965073 -0.413603,-0.4273897 V -4.082375 h 0.772059 z m 4.146369,1.3097426 c -0.01379,-0.9237132 -0.620404,-1.4338235 -1.709559,-1.4338235 -1.089154,0 -1.792279,0.5652574 -1.792279,1.4338235 0,0.7306986 0.372243,1.0753677 1.475184,1.351103 l 0.703125,0.1654412 c 0.523897,0.1240808 0.730698,0.3170955 0.730698,0.6617647 0,0.42738966 -0.441176,0.73069849 -1.102941,0.73069849 -0.399816,0 -0.730698,-0.12408088 -0.923713,-0.31709559 -0.124081,-0.13786765 -0.165441,-0.2619485 -0.220588,-0.5928309 h -0.785846 c 0.04136,1.07536766 0.647978,1.59926472 1.875,1.59926472 1.185662,0 1.930147,-0.57904411 1.930147,-1.48897062 0,-0.703125 -0.386029,-1.0891544 -1.323529,-1.3097426 L 80.209829,-2.7588456 C 79.603211,-2.9105 79.341263,-3.1035147 79.341263,-3.4343971 c 0,-0.4273897 0.386029,-0.703125 0.992647,-0.703125 0.606618,0 0.923713,0.2619486 0.9375,0.7444853 z m 0,0"
       style="fill:#000000;fill-opacity:1;fill-rule:nonzero;stroke:none"
       aria-label="Buildingtrainingsets"
       transform="matrix(1.1333333,0,0,1.1333333,176.16193,76.111067)" />
    <path
       id="path21"
       d="m 82.11836,-19.69252 h 6.64113 v 6.64113 h -6.64113 z"
       style="fill:#e28ca9;fill-opacity:1;fill-rule:nonzero;stroke:#000000;stroke-width:0.79701;stroke-linecap:butt;stroke-linejoin:round;stroke-miterlimit:10;stroke-dasharray:none;stroke-opacity:1"
       transform="matrix(1.1333333,0,0,-1.1333333,71.129133,71.128933)" />
    <path
       id="path22"
       d="m 1.6666305,-2.8137978 h 2.1507353 c 0.7444853,0 1.0753677,0.3584559 1.0753677,1.1580882 l -0.013787,0.5928309 c 0,0.3998162 0.068934,0.79963238 0.1930147,1.06158091 h 1.006434 V -0.20809926 C 5.7750864,-0.4286875 5.7061526,-0.64927574 5.6923658,-1.5178419 5.678579,-2.5932096 5.5131379,-2.9240919 4.7962261,-3.2274007 c 0.7444853,-0.3584559 1.0340074,-0.8134192 1.0340074,-1.5579044 0,-1.1305148 -0.703125,-1.7509192 -1.9852942,-1.7509192 H 0.82563787 v 6.53492651 H 1.6666305 Z m 0,-0.7306985 v -2.2610294 h 2.0128677 c 0.46875,0 0.7306985,0.082721 0.9375,0.2619485 0.234375,0.1792279 0.3446691,0.4825368 0.3446691,0.8685662 0,0.7720588 -0.3998162,1.1305147 -1.2821691,1.1305147 z m 9.3991265,1.4476103 c 0,-0.7169118 -0.04136,-1.1443015 -0.179228,-1.5027574 -0.303308,-0.7720588 -1.0202202,-1.227022 -1.9025731,-1.227022 -1.3097427,0 -2.1507353,0.992647 -2.1507353,2.5367647 0,1.54411761 0.8134191,2.49540438 2.1369485,2.49540438 1.0753679,0 1.8198529,-0.60661765 1.9990809,-1.62683828 h -0.744485 c -0.206802,0.62040445 -0.6341915,0.93750004 -1.2270224,0.93750004 -0.4825367,0 -0.8823529,-0.22058823 -1.1305147,-0.60661764 C 7.688,-1.3661875 7.6190662,-1.628136 7.6190662,-2.096886 Z M 7.6328529,-2.7035037 C 7.688,-3.5720699 8.2256838,-4.1373272 8.9701691,-4.1373272 c 0.7444853,0 1.3097429,0.6066176 1.3097429,1.3786765 0,0.013787 0,0.027573 -0.01379,0.055147 z M 13.71971,-4.7025846 h -0.785846 v -0.7306985 c 0,-0.3170956 0.179228,-0.46875 0.523897,-0.46875 0.05515,0 0.08272,0 0.261949,0 v -0.6204044 c -0.179228,-0.027573 -0.275736,-0.04136 -0.42739,-0.04136 -0.689338,0 -1.102941,0.3998162 -1.102941,1.0753677 v 0.7858455 h -0.620405 v 0.6204045 h 0.620405 v 4.08088231 h 0.744485 V -4.0821801 h 0.785846 z m 1.640625,0 h -0.744486 v 4.70128681 h 0.744486 z m 0,-1.8336397 h -0.744486 v 0.9375 h 0.744486 z m 1.202895,1.8336397 v 4.70128681 h 0.758272 V -2.5932096 c 0,-0.9512867 0.496323,-1.5854779 1.268382,-1.5854779 0.592831,0 0.97886,0.3584559 0.97886,0.9237132 v 3.25367651 H 20.31323 V -3.5444963 c 0,-0.7858456 -0.592831,-1.2821691 -1.488971,-1.2821691 -0.703125,0 -1.158088,0.2619485 -1.557904,0.9237132 v -0.7996324 z m 5.700827,0 h -0.730699 v 4.70128681 h 0.730699 z m 0,-1.8336397 h -0.744485 v 0.9375 h 0.744485 z m 1.275276,1.8336397 v 4.70128681 h 0.758272 V -2.5932096 c 0,-0.9512867 0.496323,-1.5854779 1.268382,-1.5854779 0.592831,0 0.97886,0.3584559 0.97886,0.9237132 v 3.25367651 h 0.744486 V -3.5444963 c 0,-0.7858456 -0.592831,-1.2821691 -1.488971,-1.2821691 -0.703125,0 -1.158088,0.2619485 -1.557904,0.9237132 v -0.7996324 z m 8.058364,0 v 0.6893383 c -0.38603,-0.5514706 -0.840993,-0.8134191 -1.433824,-0.8134191 -1.199448,0 -1.999081,1.0340073 -1.999081,2.5643382 0,0.7582721 0.206802,1.39246323 0.592831,1.8336397 0.344669,0.39981618 0.840993,0.63419118 1.337316,0.63419118 0.592831,0 1.006434,-0.24816177 1.433824,-0.84099265 v 0.234375 c 0,0.64797794 -0.08272,1.02022059 -0.275735,1.28216912 -0.193015,0.27573525 -0.579045,0.44117645 -1.034008,0.44117645 -0.344669,0 -0.647978,-0.082721 -0.854779,-0.2481617 C 29.1988,0.93620221 29.116079,0.81212132 29.074719,0.53638603 h -0.758272 c 0.08272,0.88235297 0.772059,1.42003677 1.875,1.42003677 0.689338,0 1.295956,-0.234375 1.599264,-0.6066177 0.358456,-0.42738966 0.496324,-1.02022054 0.496324,-2.12316172 V -4.7025846 Z m -1.351103,0.5652574 c 0.799632,0 1.282169,0.6755515 1.282169,1.8474265 0,1.1305147 -0.496324,1.80606614 -1.282169,1.80606614 -0.813419,0 -1.309743,-0.68933824 -1.309743,-1.83363974 0,-1.1305147 0.51011,-1.8198529 1.309743,-1.8198529 z m 9.933364,3.69485294 c -0.08272,0.0137868 -0.124081,0.0137868 -0.165441,0.0137868 -0.261949,0 -0.399817,-0.12408088 -0.399817,-0.35845588 V -3.5444963 c 0,-0.8409927 -0.606617,-1.2821691 -1.764706,-1.2821691 -0.689338,0 -1.254595,0.1930147 -1.557904,0.5376838 -0.220588,0.2481617 -0.303309,0.5101103 -0.330882,0.9788603 h 0.758272 c 0.05515,-0.5652574 0.399816,-0.8272059 1.102941,-0.8272059 0.675551,0 1.047794,0.2481618 1.047794,0.6893382 v 0.2068015 c 0,0.3033088 -0.193015,0.4411765 -0.785846,0.5101103 -1.047794,0.1378676 -1.213235,0.1792279 -1.502757,0.2895221 -0.55147,0.2205882 -0.827206,0.6479779 -0.827206,1.2545955 0,0.85477945 0.592831,1.39246328 1.544118,1.39246328 0.592831,0 1.061581,-0.20680147 1.599265,-0.68933824 0.05515,0.46875 0.289522,0.68933824 0.772058,0.68933824 0.151655,0 0.261949,-0.0137868 0.510111,-0.0827206 z M 38.870215,-1.4764816 c 0,0.2481617 -0.06893,0.3998162 -0.303309,0.60661763 -0.303309,0.27573529 -0.661764,0.42738971 -1.102941,0.42738971 -0.579044,0 -0.923713,-0.28952206 -0.923713,-0.75827204 0,-0.4963236 0.330882,-0.7444853 1.130515,-0.8547794 0.785845,-0.1102942 0.951286,-0.1516544 1.199448,-0.2619486 z m 2.860754,-5.0597427 h -0.758272 v 6.53492651 h 0.758272 z m 4.32215,1.8336397 v 0.6893383 c -0.386029,-0.5514706 -0.840992,-0.8134191 -1.433823,-0.8134191 -1.199449,0 -1.999081,1.0340073 -1.999081,2.5643382 0,0.7582721 0.206802,1.39246323 0.592831,1.8336397 0.344669,0.39981618 0.840993,0.63419118 1.337316,0.63419118 0.592831,0 1.006434,-0.24816177 1.433824,-0.84099265 v 0.234375 c 0,0.64797794 -0.08272,1.02022059 -0.275736,1.28216912 -0.193014,0.27573525 -0.579044,0.44117645 -1.034007,0.44117645 -0.344669,0 -0.647978,-0.082721 -0.854779,-0.2481617 C 43.654222,0.93620221 43.571502,0.81212132 43.530142,0.53638603 h -0.758273 c 0.08272,0.88235297 0.772059,1.42003677 1.875,1.42003677 0.689339,0 1.295956,-0.234375 1.599265,-0.6066177 0.358456,-0.42738966 0.496324,-1.02022054 0.496324,-2.12316172 V -4.7025846 Z m -1.351102,0.5652574 c 0.799632,0 1.282169,0.6755515 1.282169,1.8474265 0,1.1305147 -0.496324,1.80606614 -1.282169,1.80606614 -0.81342,0 -1.309743,-0.68933824 -1.309743,-1.83363974 0,-1.1305147 0.51011,-1.8198529 1.309743,-1.8198529 z m 5.080422,-0.6893382 c -1.323529,0 -2.123161,0.9375 -2.123161,2.5091911 0,1.58547798 0.799632,2.52297798 2.123161,2.52297798 1.32353,0 2.123162,-0.9375 2.123162,-2.48161768 0,-1.6268382 -0.772059,-2.5505514 -2.123162,-2.5505514 z m 0,0.6893382 c 0.85478,0 1.351103,0.6893382 1.351103,1.8474265 0,1.1029411 -0.523897,1.80606614 -1.351103,1.80606614 -0.827206,0 -1.337316,-0.68933824 -1.337316,-1.83363974 0,-1.1305147 0.51011,-1.8198529 1.337316,-1.8198529 z m 3.164063,-0.5652574 v 4.70128681 h 0.744485 V -2.4415551 c 0,-0.6755515 0.179228,-1.1029412 0.537684,-1.3648898 0.234375,-0.1792279 0.454963,-0.2205882 0.97886,-0.234375 v -0.758272 c -0.124081,-0.027574 -0.193014,-0.027574 -0.289522,-0.027574 -0.482537,0 -0.854779,0.2757353 -1.282169,0.9788603 v -0.8547795 z m 3.829274,0 h -0.730699 v 4.70128681 h 0.730699 z m 0,-1.8336397 H 56.03129 v 0.9375 h 0.744486 z m 2.929687,1.8336397 h -0.772059 v -1.2821691 h -0.744485 v 1.2821691 h -0.634191 v 0.6204045 h 0.634191 v 3.54319848 c 0,0.46875 0.330882,0.7444853 0.909927,0.7444853 0.179228,0 0.358455,-0.0137868 0.606617,-0.0689338 v -0.62040441 c -0.09651,0.0275735 -0.220588,0.0413603 -0.358456,0.0413603 -0.317095,0 -0.413603,-0.0965074 -0.413603,-0.42738971 V -4.0821801 h 0.772059 z m 0.837546,-1.8336397 v 6.53492651 h 0.744485 V -2.5932096 c 0,-0.9512867 0.510111,-1.5854779 1.28217,-1.5854779 0.234375,0 0.482536,0.082721 0.661764,0.2205882 0.206802,0.1516544 0.303309,0.3722427 0.303309,0.703125 v 3.25367651 h 0.744485 V -3.5444963 c 0,-0.7996324 -0.565257,-1.2821691 -1.475183,-1.2821691 -0.661765,0 -1.075368,0.2068014 -1.516545,0.7720588 v -2.4816177 z m 4.983916,1.8336397 v 4.70128681 h 0.758272 V -2.9516654 c 0,-0.6755515 0.496323,-1.2270221 1.102941,-1.2270221 0.55147,0 0.868566,0.3446691 0.868566,0.9375 v 3.23988971 h 0.758272 V -2.9516654 c 0,-0.6755515 0.482537,-1.2270221 1.102941,-1.2270221 0.537684,0 0.868566,0.3446691 0.868566,0.9375 v 3.23988971 h 0.744486 V -3.5169228 c 0,-0.8547794 -0.482537,-1.3097426 -1.36489,-1.3097426 -0.620404,0 -0.992647,0.1792279 -1.433823,0.7169117 -0.275736,-0.5101103 -0.661765,-0.7169117 -1.268383,-0.7169117 -0.620404,0 -1.034007,0.234375 -1.433823,0.7996323 v -0.6755515 z m 10.777803,1.3097427 c -0.01379,-0.9237132 -0.620404,-1.4338235 -1.709559,-1.4338235 -1.089154,0 -1.792279,0.5652573 -1.792279,1.4338235 0,0.7306985 0.372242,1.0753676 1.475184,1.3511029 l 0.703125,0.1654412 c 0.523897,0.1240809 0.730698,0.3170956 0.730698,0.6617647 0,0.42738972 -0.441176,0.73069854 -1.102941,0.73069854 -0.399816,0 -0.730699,-0.12408088 -0.923713,-0.31709559 C 73.561162,-0.93879779 73.519801,-1.0628787 73.464654,-1.393761 h -0.785845 c 0.04136,1.07536762 0.647978,1.59926468 1.875,1.59926468 1.185662,0 1.930147,-0.57904412 1.930147,-1.48897058 0,-0.703125 -0.38603,-1.0891544 -1.32353,-1.3097427 l -0.716911,-0.1654411 c -0.606618,-0.1516544 -0.868566,-0.3446692 -0.868566,-0.6755515 0,-0.4273897 0.386029,-0.703125 0.992647,-0.703125 0.606617,0 0.923713,0.2619485 0.9375,0.7444853 z m 0,0"
       style="fill:#000000;fill-opacity:1;fill-rule:nonzero;stroke:none"
       aria-label="Refningalgorithms"
       transform="matrix(1.1333333,0,0,1.1333333,176.16193,92.290533)" />
    <path
       id="path23"
       d="m 82.11836,-33.8659 h 6.64113 v 6.64113 h -6.64113 z"
       style="fill:#cccccc;fill-opacity:1;fill-rule:nonzero;stroke:#000000;stroke-width:0.79701;stroke-linecap:butt;stroke-linejoin:round;stroke-miterlimit:10;stroke-dasharray:none;stroke-opacity:1"
       transform="matrix(1.1333333,0,0,-1.1333333,71.129133,71.128933)" />
    <path
       id="path24"
       d="m 3.4864835,-6.6462445 c -1.875,0 -3.1433824,1.3786765 -3.1433824,3.4329044 0,2.0404412 1.2683824,3.41911767 3.1433824,3.41911767 0.7996323,0 1.5027573,-0.24816176 2.0266544,-0.68933823 0.7169117,-0.60661764 1.1305147,-1.61305144 1.1305147,-2.67463234 0,-2.109375 -1.2408088,-3.4880515 -3.1571691,-3.4880515 z m 0,0.7444853 c 1.4200367,0 2.3299632,1.0753677 2.3299632,2.7159927 0,1.5854779 -0.9375,2.66084554 -2.3299632,2.66084554 -1.3786765,0 -2.3161765,-1.07536764 -2.3161765,-2.68841914 0,-1.6130514 0.9375,-2.6884191 2.3161765,-2.6884191 z m 5.7628676,1.1994485 H 8.4772923 V -5.9844798 H 7.732807 v 1.2821691 H 7.0986158 v 0.6204045 H 7.732807 v 3.54319848 c 0,0.46875 0.3308823,0.74448529 0.9099265,0.74448529 0.1792279,0 0.3584558,-0.0137868 0.6066176,-0.0689338 v -0.62040441 c -0.096507,0.0275735 -0.2205882,0.0413603 -0.3584559,0.0413603 -0.3170956,0 -0.4136029,-0.0965073 -0.4136029,-0.4273897 V -4.0819062 h 0.7720588 z m 0.8409929,-1.8336397 v 6.5349265 h 0.744485 v -2.5919118 c 0,-0.9512867 0.51011,-1.5854779 1.282169,-1.5854779 0.234375,0 0.482537,0.082721 0.661765,0.2205882 0.206801,0.1516544 0.303309,0.3722427 0.303309,0.703125 v 3.2536765 h 0.744485 v -3.5431985 c 0,-0.7996324 -0.565257,-1.2821691 -1.475184,-1.2821691 -0.661765,0 -1.075367,0.2068014 -1.516544,0.7720588 v -2.4816177 z m 8.954503,4.4393383 c 0,-0.7169118 -0.04136,-1.1443015 -0.179228,-1.5027574 -0.303308,-0.7720588 -1.02022,-1.227022 -1.902573,-1.227022 -1.309743,0 -2.150735,0.992647 -2.150735,2.5367647 0,1.54411761 0.813419,2.49540437 2.136948,2.49540437 1.075368,0 1.819853,-0.60661764 1.999081,-1.62683827 h -0.744485 c -0.206802,0.62040445 -0.634191,0.93750004 -1.227022,0.93750004 -0.482537,0 -0.882353,-0.22058824 -1.130515,-0.60661764 -0.179228,-0.2757353 -0.248162,-0.5376838 -0.248162,-1.0064338 z m -3.432904,-0.6066177 c 0.05515,-0.8685662 0.592831,-1.4338235 1.337316,-1.4338235 0.744485,0 1.309743,0.6066176 1.309743,1.3786765 0,0.013787 0,0.027574 -0.01379,0.055147 z m 4.446232,-1.9990809 v 4.7012868 h 0.744485 v -2.4402573 c 0,-0.6755515 0.179228,-1.1029412 0.537684,-1.3648898 0.234375,-0.1792279 0.454963,-0.2205882 0.97886,-0.234375 v -0.758272 c -0.124081,-0.027573 -0.193015,-0.027573 -0.289522,-0.027573 -0.482537,0 -0.854779,0.2757353 -1.282169,0.9788603 v -0.8547795 z m 0,0"
       style="fill:#000000;fill-opacity:1;fill-rule:nonzero;stroke:none"
       aria-label="Other"
       transform="matrix(1.1333333,0,0,1.1333333,176.16193,109.38007)" />
  </g>
</svg>
