<?xml version="1.0" encoding="utf-8" standalone="no"?>
<!DOCTYPE svg PUBLIC "-//W3C//DTD SVG 1.1//EN"
  "http://www.w3.org/Graphics/SVG/1.1/DTD/svg11.dtd">
<svg xmlns:xlink="http://www.w3.org/1999/xlink" width="75.42pt" height="61.092pt" viewBox="0 0 75.42 61.092" xmlns="http://www.w3.org/2000/svg" version="1.1">
 <metadata>
  <rdf:RDF xmlns:dc="http://purl.org/dc/elements/1.1/" xmlns:cc="http://creativecommons.org/ns#" xmlns:rdf="http://www.w3.org/1999/02/22-rdf-syntax-ns#">
   <cc:Work>
    <dc:type rdf:resource="http://purl.org/dc/dcmitype/StillImage"/>
    <dc:format>image/svg+xml</dc:format>
    <dc:creator>
     <cc:Agent>
      <dc:title>Matplotlib v3.10.8, https://matplotlib.org/</dc:title>
     </cc:Agent>
    </dc:creator>
   </cc:Work>
  </rdf:RDF>
 </metadata>
 <defs>
  <style type="text/css">*{stroke-linejoin: round; stroke-linecap: butt}</style>
 </defs>
 <g id="figure_1">
  <g id="patch_1">
   <path d="M 0 61.092
L 75.42 61.092
L 75.42 0
L 0 0
z
" style="fill: #ffffff"/>
  </g>
  <g id="axes_1">
   <g id="patch_2">
    <path d="M 1.44 59.652
L 73.98 59.652
L 73.98 1.44
L 1.44 1.44
z
" style="fill: #ffffff"/>
   </g>
   <g id="patch_3">
    <path d="M 52.218 59.652
L 73.98 59.652
L 73.98 1.44
L 52.218 1.44
z
" clip-path="url(#p69016035c6)" style="fill: #f2d7d5; opacity: 0.6; stroke: #f2d7d5; stroke-linejoin: miter"/>
   </g>
   <g id="matplotlib.axis_1"/>
   <g id="matplotlib.axis_2"/>
   <g id="line2d_1">
    <path d="M 1.44 58.035
L 18.058586 57.554464
L 29.373368 57.022409
L 37.505867 56.4361
L 43.516845 55.801539
L 48.113475 55.11729
L 52.002932 54.314747
L 54.831627 53.5263
L 57.306736 52.616954
L 59.428257 51.591304
L 61.196192 50.476551
L 62.61054 49.335136
L 64.024887 47.869393
L 65.085648 46.464172
L 66.146409 44.678384
L 67.20717 42.333216
L 67.914344 40.314079
L 68.621518 37.762
L 69.328691 34.433897
L 70.035865 29.912351
L 70.743039 23.415176
L 71.450213 13.285573
L 71.8038 5.752
L 71.8038 5.752
" clip-path="url(#p69016035c6)" style="fill: none; stroke: #333333; stroke-width: 1.35; stroke-linecap: square"/>
   </g>
   <g id="line2d_2">
    <defs>
     <path id="m8b595126ea" d="M 0 1.65
C 0.437585 1.65 0.857307 1.476146 1.166726 1.166726
C 1.476146 0.857307 1.65 0.437585 1.65 0
C 1.65 -0.437585 1.476146 -0.857307 1.166726 -1.166726
C 0.857307 -1.476146 0.437585 -1.65 0 -1.65
C -0.437585 -1.65 -0.857307 -1.476146 -1.166726 -1.166726
C -1.476146 -0.857307 -1.65 -0.437585 -1.65 0
C -1.65 0.437585 -1.476146 0.857307 -1.166726 1.166726
C -0.857307 1.476146 -0.437585 1.65 0 1.65
z
" style="stroke: #cb202d"/>
    </defs>
    <g clip-path="url(#p69016035c6)">
     <use xlink:href="#m8b595126ea" x="52.218" y="54.262" style="fill: #cb202d; stroke: #cb202d"/>
    </g>
   </g>
   <g id="patch_4">
    <path d="M 1.44 59.652
L 1.44 1.44
" style="fill: none; stroke: #cccccc; stroke-width: 0.55; stroke-linejoin: miter; stroke-linecap: square"/>
   </g>
   <g id="patch_5">
    <path d="M 1.44 59.652
L 73.98 59.652
" style="fill: none; stroke: #cccccc; stroke-width: 0.55; stroke-linejoin: miter; stroke-linecap: square"/>
   </g>
   <g id="text_1">
    <!-- capacity -->
    <g style="fill: #cb202d" transform="translate(53.019483 22.93507) scale(0.051 -0.051)">
     <defs>
      <path id="Helvetica-63" d="M 1703 3444
Q 2269 3444 2623 3169
Q 2978 2894 3050 2222
L 2503 2222
Q 2453 2531 2275 2736
Q 2097 2941 1703 2941
Q 1166 2941 934 2416
Q 784 2075 784 1575
Q 784 1072 996 728
Q 1209 384 1666 384
Q 2016 384 2220 598
Q 2425 813 2503 1184
L 3050 1184
Q 2956 519 2581 211
Q 2206 -97 1622 -97
Q 966 -97 575 383
Q 184 863 184 1581
Q 184 2463 612 2953
Q 1041 3444 1703 3444
z
M 1616 3428
L 1616 3428
z
" transform="scale(0.015625)"/>
      <path id="Helvetica-61" d="M 844 891
Q 844 647 1022 506
Q 1200 366 1444 366
Q 1741 366 2019 503
Q 2488 731 2488 1250
L 2488 1703
Q 2384 1638 2221 1594
Q 2059 1550 1903 1531
L 1563 1488
Q 1256 1447 1103 1359
Q 844 1213 844 891
z
M 2206 2028
Q 2400 2053 2466 2191
Q 2503 2266 2503 2406
Q 2503 2694 2298 2823
Q 2094 2953 1713 2953
Q 1272 2953 1088 2716
Q 984 2584 953 2325
L 428 2325
Q 444 2944 830 3186
Q 1216 3428 1725 3428
Q 2316 3428 2684 3203
Q 3050 2978 3050 2503
L 3050 575
Q 3050 488 3086 434
Q 3122 381 3238 381
Q 3275 381 3322 386
Q 3369 391 3422 400
L 3422 -16
Q 3291 -53 3222 -62
Q 3153 -72 3034 -72
Q 2744 -72 2613 134
Q 2544 244 2516 444
Q 2344 219 2022 53
Q 1700 -113 1313 -113
Q 847 -113 551 170
Q 256 453 256 878
Q 256 1344 547 1600
Q 838 1856 1309 1916
L 2206 2028
z
M 1741 3428
L 1741 3428
z
" transform="scale(0.015625)"/>
      <path id="Helvetica-70" d="M 1825 378
Q 2219 378 2480 708
Q 2741 1038 2741 1694
Q 2741 2094 2625 2381
Q 2406 2934 1825 2934
Q 1241 2934 1025 2350
Q 909 2038 909 1556
Q 909 1169 1025 897
Q 1244 378 1825 378
z
M 369 3331
L 916 3331
L 916 2888
Q 1084 3116 1284 3241
Q 1569 3428 1953 3428
Q 2522 3428 2919 2992
Q 3316 2556 3316 1747
Q 3316 653 2744 184
Q 2381 -113 1900 -113
Q 1522 -113 1266 53
Q 1116 147 931 375
L 931 -1334
L 369 -1334
L 369 3331
z
" transform="scale(0.015625)"/>
      <path id="Helvetica-69" d="M 413 3331
L 984 3331
L 984 0
L 413 0
L 413 3331
z
M 413 4591
L 984 4591
L 984 3953
L 413 3953
L 413 4591
z
" transform="scale(0.015625)"/>
      <path id="Helvetica-74" d="M 525 4281
L 1094 4281
L 1094 3347
L 1628 3347
L 1628 2888
L 1094 2888
L 1094 703
Q 1094 528 1213 469
Q 1278 434 1431 434
Q 1472 434 1519 436
Q 1566 438 1628 444
L 1628 0
Q 1531 -28 1426 -40
Q 1322 -53 1200 -53
Q 806 -53 665 148
Q 525 350 525 672
L 525 2888
L 72 2888
L 72 3347
L 525 3347
L 525 4281
z
" transform="scale(0.015625)"/>
      <path id="Helvetica-79" d="M 2503 3347
L 3125 3347
Q 3006 3025 2597 1878
Q 2291 1016 2084 472
Q 1597 -809 1397 -1090
Q 1197 -1372 709 -1372
Q 591 -1372 527 -1362
Q 463 -1353 369 -1328
L 369 -816
Q 516 -856 581 -865
Q 647 -875 697 -875
Q 853 -875 926 -823
Q 1000 -772 1050 -697
Q 1066 -672 1162 -440
Q 1259 -209 1303 -97
L 66 3347
L 703 3347
L 1600 622
L 2503 3347
z
M 1597 3428
L 1597 3428
z
" transform="scale(0.015625)"/>
     </defs>
     <use xlink:href="#Helvetica-63"/>
     <use xlink:href="#Helvetica-61" transform="translate(50 0)"/>
     <use xlink:href="#Helvetica-70" transform="translate(105.615234 0)"/>
     <use xlink:href="#Helvetica-61" transform="translate(161.230469 0)"/>
     <use xlink:href="#Helvetica-63" transform="translate(216.845703 0)"/>
     <use xlink:href="#Helvetica-69" transform="translate(266.845703 0)"/>
     <use xlink:href="#Helvetica-74" transform="translate(289.0625 0)"/>
     <use xlink:href="#Helvetica-79" transform="translate(316.845703 0)"/>
    </g>
   </g>
  </g>
 </g>
 <defs>
  <clipPath id="p69016035c6">
   <rect x="1.44" y="1.44" width="72.54" height="58.212"/>
  </clipPath>
 </defs>
</svg>
