<?xml version="1.0" encoding="UTF-8" standalone="no"?>
<!-- Created with Inkscape (http://www.inkscape.org/) -->

<svg
   version="1.1"
   id="svg1"
   width="472.77332"
   height="193.35333"
   viewBox="0 0 472.77332 193.35333"
   xmlns="http://www.w3.org/2000/svg"
   xmlns:svg="http://www.w3.org/2000/svg">
  <defs
     id="defs1" />
  <g
     id="g1">
    <path
       id="path1"
       d="m 35.43352,-29.76413 h 70.86702 V -9.92139 H 35.43352 Z"
       style="fill:#b3ffb3;fill-opacity:1;fill-rule:nonzero;stroke:#000000;stroke-width:0.24907;stroke-linecap:butt;stroke-linejoin:round;stroke-miterlimit:10;stroke-dasharray:none;stroke-opacity:1"
       transform="matrix(1.3333333,0,0,-1.3333333,-47.078667,-13.062667)" />
    <path
       id="path2"
       d="m 35.43352,-49.60689 h 70.86702 v 19.84274 H 35.43352 Z"
       style="fill:#b3ffb3;fill-opacity:1;fill-rule:nonzero;stroke:#000000;stroke-width:0.24907;stroke-linecap:butt;stroke-linejoin:round;stroke-miterlimit:10;stroke-dasharray:none;stroke-opacity:1"
       transform="matrix(1.3333333,0,0,-1.3333333,-47.078667,-13.062667)" />
    <path
       id="path3"
       d="m 35.43352,-69.44965 h 70.86702 v 19.84274 H 35.43352 Z"
       style="fill:#b3ffb3;fill-opacity:1;fill-rule:nonzero;stroke:#000000;stroke-width:0.24907;stroke-linecap:butt;stroke-linejoin:round;stroke-miterlimit:10;stroke-dasharray:none;stroke-opacity:1"
       transform="matrix(1.3333333,0,0,-1.3333333,-47.078667,-13.062667)" />
    <path
       id="path4"
       d="m 106.30057,-29.76413 h 70.86702 v 19.84274 h -70.86702 z"
       style="fill:#b3ffb3;fill-opacity:1;fill-rule:nonzero;stroke:#000000;stroke-width:0.24907;stroke-linecap:butt;stroke-linejoin:round;stroke-miterlimit:10;stroke-dasharray:none;stroke-opacity:1"
       transform="matrix(1.3333333,0,0,-1.3333333,-47.078667,-13.062667)" />
    <path
       id="path5"
       d="m 106.30057,-49.60689 h 70.86702 v 19.84274 h -70.86702 z"
       style="fill:#b3ffb3;fill-opacity:1;fill-rule:nonzero;stroke:#000000;stroke-width:0.24907;stroke-linecap:butt;stroke-linejoin:round;stroke-miterlimit:10;stroke-dasharray:none;stroke-opacity:1"
       transform="matrix(1.3333333,0,0,-1.3333333,-47.078667,-13.062667)" />
    <path
       id="path6"
       d="m 106.30057,-69.44965 h 70.86702 v 19.84274 h -70.86702 z"
       style="fill:#b3ffb3;fill-opacity:1;fill-rule:nonzero;stroke:#000000;stroke-width:0.24907;stroke-linecap:butt;stroke-linejoin:round;stroke-miterlimit:10;stroke-dasharray:none;stroke-opacity:1"
       transform="matrix(1.3333333,0,0,-1.3333333,-47.078667,-13.062667)" />
    <path
       id="path7"
       d="m 177.16762,-29.76413 h 70.86702 v 19.84274 h -70.86702 z"
       style="fill:#b3ffb3;fill-opacity:1;fill-rule:nonzero;stroke:#000000;stroke-width:0.24907;stroke-linecap:butt;stroke-linejoin:round;stroke-miterlimit:10;stroke-dasharray:none;stroke-opacity:1"
       transform="matrix(1.3333333,0,0,-1.3333333,-47.078667,-13.062667)" />
    <path
       id="path8"
       d="m 177.16762,-49.60689 h 70.86702 v 19.84274 h -70.86702 z"
       style="fill:#b3ffb3;fill-opacity:1;fill-rule:nonzero;stroke:#000000;stroke-width:0.24907;stroke-linecap:butt;stroke-linejoin:round;stroke-miterlimit:10;stroke-dasharray:none;stroke-opacity:1"
       transform="matrix(1.3333333,0,0,-1.3333333,-47.078667,-13.062667)" />
    <path
       id="path9"
       d="m 177.16762,-69.44965 h 70.86702 v 19.84274 h -70.86702 z"
       style="fill:#b3ffb3;fill-opacity:1;fill-rule:nonzero;stroke:#000000;stroke-width:0.24907;stroke-linecap:butt;stroke-linejoin:round;stroke-miterlimit:10;stroke-dasharray:none;stroke-opacity:1"
       transform="matrix(1.3333333,0,0,-1.3333333,-47.078667,-13.062667)" />
    <path
       id="path10"
       d="m 248.03467,-29.76413 h 70.86702 v 19.84274 h -70.86702 z"
       style="fill:#b3ffb3;fill-opacity:1;fill-rule:nonzero;stroke:#000000;stroke-width:0.24907;stroke-linecap:butt;stroke-linejoin:round;stroke-miterlimit:10;stroke-dasharray:none;stroke-opacity:1"
       transform="matrix(1.3333333,0,0,-1.3333333,-47.078667,-13.062667)" />
    <path
       id="path11"
       d="m 248.03467,-49.60689 h 70.86702 v 19.84274 h -70.86702 z"
       style="fill:#b3ffb3;fill-opacity:1;fill-rule:nonzero;stroke:#000000;stroke-width:0.24907;stroke-linecap:butt;stroke-linejoin:round;stroke-miterlimit:10;stroke-dasharray:none;stroke-opacity:1"
       transform="matrix(1.3333333,0,0,-1.3333333,-47.078667,-13.062667)" />
    <path
       id="path12"
       d="m 248.03467,-69.44965 h 70.86702 v 19.84274 h -70.86702 z"
       style="fill:#b3ffb3;fill-opacity:1;fill-rule:nonzero;stroke:#000000;stroke-width:0.24907;stroke-linecap:butt;stroke-linejoin:round;stroke-miterlimit:10;stroke-dasharray:none;stroke-opacity:1"
       transform="matrix(1.3333333,0,0,-1.3333333,-47.078667,-13.062667)" />
    <path
       id="path13"
       d="m 318.90172,-29.76413 h 70.86702 v 19.84274 h -70.86702 z"
       style="fill:#b3ffb3;fill-opacity:1;fill-rule:nonzero;stroke:#000000;stroke-width:0.24907;stroke-linecap:butt;stroke-linejoin:round;stroke-miterlimit:10;stroke-dasharray:none;stroke-opacity:1"
       transform="matrix(1.3333333,0,0,-1.3333333,-47.078667,-13.062667)" />
    <path
       id="path14"
       d="m 318.90172,-49.60689 h 70.86702 v 19.84274 h -70.86702 z"
       style="fill:#b3ffb3;fill-opacity:1;fill-rule:nonzero;stroke:#000000;stroke-width:0.24907;stroke-linecap:butt;stroke-linejoin:round;stroke-miterlimit:10;stroke-dasharray:none;stroke-opacity:1"
       transform="matrix(1.3333333,0,0,-1.3333333,-47.078667,-13.062667)" />
    <path
       id="path15"
       d="m 318.90172,-69.44965 h 70.86702 v 19.84274 h -70.86702 z"
       style="fill:#b3ffb3;fill-opacity:1;fill-rule:nonzero;stroke:#000000;stroke-width:0.24907;stroke-linecap:butt;stroke-linejoin:round;stroke-miterlimit:10;stroke-dasharray:none;stroke-opacity:1"
       transform="matrix(1.3333333,0,0,-1.3333333,-47.078667,-13.062667)" />
    <path
       id="path16"
       d="m 35.43352,-29.76413 h 70.86702 V -9.92139 H 35.43352 Z"
       style="fill:#ff9358;fill-opacity:1;fill-rule:nonzero;stroke:#000000;stroke-width:0.24907;stroke-linecap:butt;stroke-linejoin:round;stroke-miterlimit:10;stroke-dasharray:none;stroke-opacity:1"
       transform="matrix(1.3333333,0,0,-1.3333333,-47.078667,-13.062667)" />
    <path
       id="path17"
       d="m 106.30057,-29.76413 h 70.86702 v 19.84274 h -70.86702 z"
       style="fill:#14bcbc;fill-opacity:1;fill-rule:nonzero;stroke:#000000;stroke-width:0.24907;stroke-linecap:butt;stroke-linejoin:round;stroke-miterlimit:10;stroke-dasharray:none;stroke-opacity:1"
       transform="matrix(1.3333333,0,0,-1.3333333,-47.078667,-13.062667)" />
    <path
       id="path18"
       d="m 177.16762,-29.76413 h 70.86702 v 19.84274 h -70.86702 z"
       style="fill:#ff2e58;fill-opacity:1;fill-rule:nonzero;stroke:#000000;stroke-width:0.24907;stroke-linecap:butt;stroke-linejoin:round;stroke-miterlimit:10;stroke-dasharray:none;stroke-opacity:1"
       transform="matrix(1.3333333,0,0,-1.3333333,-47.078667,-13.062667)" />
    <path
       id="path19"
       d="m 248.03467,-29.76413 h 70.86702 v 19.84274 h -70.86702 z"
       style="fill:#de84bf;fill-opacity:1;fill-rule:nonzero;stroke:#000000;stroke-width:0.24907;stroke-linecap:butt;stroke-linejoin:round;stroke-miterlimit:10;stroke-dasharray:none;stroke-opacity:1"
       transform="matrix(1.3333333,0,0,-1.3333333,-47.078667,-13.062667)" />
    <path
       id="path20"
       d="m 318.90172,-29.76413 h 70.86702 v 19.84274 h -70.86702 z"
       style="fill:#ffb94c;fill-opacity:1;fill-rule:nonzero;stroke:#000000;stroke-width:0.24907;stroke-linecap:butt;stroke-linejoin:round;stroke-miterlimit:10;stroke-dasharray:none;stroke-opacity:1"
       transform="matrix(1.3333333,0,0,-1.3333333,-47.078667,-13.062667)" />
    <path
       id="path21"
       d="m 35.43352,-49.60689 h 70.86702 v 19.84274 H 35.43352 Z"
       style="fill:#dfbf9f;fill-opacity:1;fill-rule:nonzero;stroke:#000000;stroke-width:0.24907;stroke-linecap:butt;stroke-linejoin:round;stroke-miterlimit:10;stroke-dasharray:none;stroke-opacity:1"
       transform="matrix(1.3333333,0,0,-1.3333333,-47.078667,-13.062667)" />
    <path
       id="path22"
       d="m 106.30057,-49.60689 h 70.86702 v 19.84274 h -70.86702 z"
       style="fill:#bfff00;fill-opacity:1;fill-rule:nonzero;stroke:#000000;stroke-width:0.24907;stroke-linecap:butt;stroke-linejoin:round;stroke-miterlimit:10;stroke-dasharray:none;stroke-opacity:1"
       transform="matrix(1.3333333,0,0,-1.3333333,-47.078667,-13.062667)" />
    <path
       id="path23"
       d="m 177.16762,-49.60689 h 70.86702 v 19.84274 h -70.86702 z"
       style="fill:#008080;fill-opacity:1;fill-rule:nonzero;stroke:#000000;stroke-width:0.24907;stroke-linecap:butt;stroke-linejoin:round;stroke-miterlimit:10;stroke-dasharray:none;stroke-opacity:1"
       transform="matrix(1.3333333,0,0,-1.3333333,-47.078667,-13.062667)" />
    <path
       id="path24"
       d="m 248.03467,-49.60689 h 70.86702 v 19.84274 h -70.86702 z"
       style="fill:#ffbfbf;fill-opacity:1;fill-rule:nonzero;stroke:#000000;stroke-width:0.24907;stroke-linecap:butt;stroke-linejoin:round;stroke-miterlimit:10;stroke-dasharray:none;stroke-opacity:1"
       transform="matrix(1.3333333,0,0,-1.3333333,-47.078667,-13.062667)" />
    <path
       id="path25"
       d="m 318.90172,-49.60689 h 70.86702 v 19.84274 h -70.86702 z"
       style="fill:#bfbfbf;fill-opacity:1;fill-rule:nonzero;stroke:#000000;stroke-width:0.24907;stroke-linecap:butt;stroke-linejoin:round;stroke-miterlimit:10;stroke-dasharray:none;stroke-opacity:1"
       transform="matrix(1.3333333,0,0,-1.3333333,-47.078667,-13.062667)" />
    <path
       id="path26"
       d="m 35.43352,-69.44965 h 70.86702 v 19.84274 H 35.43352 Z"
       style="fill:#fda0cc;fill-opacity:1;fill-rule:nonzero;stroke:#000000;stroke-width:0.24907;stroke-linecap:butt;stroke-linejoin:round;stroke-miterlimit:10;stroke-dasharray:none;stroke-opacity:1"
       transform="matrix(1.3333333,0,0,-1.3333333,-47.078667,-13.062667)" />
    <path
       id="path27"
       d="m 106.30057,-69.44965 h 70.86702 v 19.84274 h -70.86702 z"
       style="fill:#ffdb57;fill-opacity:1;fill-rule:nonzero;stroke:#000000;stroke-width:0.24907;stroke-linecap:butt;stroke-linejoin:round;stroke-miterlimit:10;stroke-dasharray:none;stroke-opacity:1"
       transform="matrix(1.3333333,0,0,-1.3333333,-47.078667,-13.062667)" />
    <path
       id="path28"
       d="m 177.16762,-69.44965 h 70.86702 v 19.84274 h -70.86702 z"
       style="fill:#00ade7;fill-opacity:1;fill-rule:nonzero;stroke:#000000;stroke-width:0.24907;stroke-linecap:butt;stroke-linejoin:round;stroke-miterlimit:10;stroke-dasharray:none;stroke-opacity:1"
       transform="matrix(1.3333333,0,0,-1.3333333,-47.078667,-13.062667)" />
    <path
       id="path29"
       d="m 248.03467,-69.44965 h 70.86702 v 19.84274 h -70.86702 z"
       style="fill:#ba3132;fill-opacity:1;fill-rule:nonzero;stroke:#000000;stroke-width:0.24907;stroke-linecap:butt;stroke-linejoin:round;stroke-miterlimit:10;stroke-dasharray:none;stroke-opacity:1"
       transform="matrix(1.3333333,0,0,-1.3333333,-47.078667,-13.062667)" />
    <path
       id="path30"
       d="m 318.90172,-69.44965 h 70.86702 v 19.84274 h -70.86702 z"
       style="fill:#88c946;fill-opacity:1;fill-rule:nonzero;stroke:#000000;stroke-width:0.24907;stroke-linecap:butt;stroke-linejoin:round;stroke-miterlimit:10;stroke-dasharray:none;stroke-opacity:1"
       transform="matrix(1.3333333,0,0,-1.3333333,-47.078667,-13.062667)" />
    <text
       id="text30"
       xml:space="preserve"
       transform="matrix(1.3333333,0,0,1.3333333,237.32533,104.988)"><tspan
         id="tspan30"
         style="font-variant:normal;font-weight:normal;font-size:8.96638px;font-family:'Latin Modern Mono';writing-mode:lr-tb;fill:#000000;fill-opacity:1;fill-rule:nonzero;stroke:none"
         x="0"
         dx="0 0 4.7073493 0 0 0 0 0 0 0 0 0 0 0 0 0 0 0 0 0 0 0 0 4.7073493"
         y="0">if(ball.collide(brick)){</tspan></text>
    <text
       id="text31"
       xml:space="preserve"
       transform="matrix(1.3333333,0,0,1.3333333,261.236,119.6)"><tspan
         id="tspan31"
         style="font-variant:normal;font-weight:normal;font-size:8.96638px;font-family:'Latin Modern Mono';writing-mode:lr-tb;fill:#000000;fill-opacity:1;fill-rule:nonzero;stroke:none"
         x="0"
         y="0">removeBrick();</tspan></text>
    <text
       id="text32"
       xml:space="preserve"
       transform="matrix(1.3333333,0,0,1.3333333,261.236,134.212)"><tspan
         id="tspan32"
         style="font-variant:normal;font-weight:normal;font-size:8.96638px;font-family:'Latin Modern Mono';writing-mode:lr-tb;fill:#000000;fill-opacity:1;fill-rule:nonzero;stroke:none"
         x="0"
         dx="0 0 0 0 0 0 0 4.7073493 4.7073493 0 0 4.7073493 4.7073493"
         y="0">ball.dx=1.1*(ball.dx);</tspan></text>
    <text
       id="text33"
       xml:space="preserve"
       transform="matrix(1.3333333,0,0,1.3333333,261.236,148.824)"><tspan
         id="tspan33"
         style="font-variant:normal;font-weight:normal;font-size:8.96638px;font-family:'Latin Modern Mono';writing-mode:lr-tb;fill:#000000;fill-opacity:1;fill-rule:nonzero;stroke:none"
         x="0"
         dx="0 0 0 0 0 0 0 4.7073493 4.7073493 0 4.7073493 4.7073493"
         y="0">ball.dy=-1*(ball.dy);</tspan></text>
    <text
       id="text34"
       xml:space="preserve"
       transform="matrix(1.3333333,0,0,1.3333333,237.32533,163.43467)"><tspan
         id="tspan34"
         style="font-variant:normal;font-weight:normal;font-size:8.96638px;font-family:'Latin Modern Mono';writing-mode:lr-tb;fill:#000000;fill-opacity:1;fill-rule:nonzero;stroke:none"
         x="0"
         y="0">}</tspan></text>
    <path
       id="path34"
       d="m 120.34944,-154.61469 h 113.38727 v 11.3387 H 120.34944 Z"
       style="fill:#000000;fill-opacity:1;fill-rule:nonzero;stroke:#000000;stroke-width:0.3985;stroke-linecap:butt;stroke-linejoin:round;stroke-miterlimit:10;stroke-dasharray:none;stroke-opacity:1"
       transform="matrix(1.3333333,0,0,-1.3333333,-47.078667,-13.062667)" />
    <path
       id="path35"
       d="m 99.28877,-76.86012 c 0,3.91392 -3.17277,7.0867 -7.0867,7.0867 -3.91391,0 -7.08668,-3.17278 -7.08668,-7.0867 0,-3.91391 3.17277,-7.08669 7.08668,-7.08669 3.91393,0 7.0867,3.17278 7.0867,7.08669 z"
       style="fill:#000000;fill-opacity:1;fill-rule:nonzero;stroke:#000000;stroke-width:0.3985;stroke-linecap:butt;stroke-linejoin:round;stroke-miterlimit:10;stroke-dasharray:none;stroke-opacity:1"
       transform="matrix(1.3333333,0,0,-1.3333333,-47.078667,-13.062667)" />
    <path
       id="path36"
       d="M 170.13734,-143.07672 97.75412,-81.57747 M 87.05014,-82.01205 55.41046,-113.65173"
       style="fill:none;stroke:#000000;stroke-width:0.79701;stroke-linecap:butt;stroke-linejoin:round;stroke-miterlimit:10;stroke-dasharray:4.98138, 1.99255, 0.99628, 2.98883;stroke-dashoffset:0;stroke-opacity:1"
       transform="matrix(1.3333333,0,0,-1.3333333,-47.078667,-13.062667)" />
    <path
       id="path37"
       d="M 4.66248,0 C 3.28098,0.25902 1.0361,1.0361 -0.51805,1.94269 V -1.94269 C 1.0361,-1.0361 3.28098,-0.25902 4.66248,0"
       style="fill:#000000;fill-opacity:1;fill-rule:nonzero;stroke:none"
       transform="matrix(-0.9428,0.9428,0.9428,0.9428,26.801973,138.47296)" />
  </g>
</svg>
