<?xml version="1.0" encoding="UTF-8" standalone="no"?>
<!-- Created with Inkscape (http://www.inkscape.org/) -->

<svg
   version="1.1"
   id="svg1"
   width="466.48267"
   height="373.59467"
   viewBox="0 0 466.48267 373.59467"
   xmlns="http://www.w3.org/2000/svg"
   xmlns:svg="http://www.w3.org/2000/svg">
  <defs
     id="defs1" />
  <g
     id="g1">
    <path
       id="path1"
       d="M 38.26819,0 C 38.26819,21.1352 21.1352,38.26819 0,38.26819 -21.1352,38.26819 -38.26819,21.1352 -38.26819,0 c 0,-21.1352 17.13299,-38.26819 38.26819,-38.26819 21.1352,0 38.26819,17.13299 38.26819,38.26819 z"
       style="fill:#fffee6;fill-opacity:1;fill-rule:nonzero;stroke:none"
       transform="matrix(1.3333333,0,0,-1.3333333,229.41067,197.572)" />
    <path
       id="path2"
       d="M 3.727,-3.984375e-4 5.367625,-4.8636797 V -3.984375e-4 H 6.0590312 V -5.8128984 H 5.0395 L 3.352,-0.75039844 1.6293437,-5.8128984 H 0.59809375 V -3.984375e-4 H 1.3012187 V -4.8636797 L 2.9535625,-3.984375e-4 Z M 8.0219219,-5.8128984 h -0.75 V -3.984375e-4 H 10.881297 V -0.65664844 H 8.0219219 Z m 0,0"
       style="fill:#000000;fill-opacity:1;fill-rule:nonzero;stroke:none"
       aria-label="ML"
       transform="matrix(1.3333333,0,0,1.3333333,222.03067,261.856)" />
    <path
       id="path3"
       d="m 1.4646406,-2.4595156 h 1.828125 c 0.4570313,0 0.8085938,-0.140625 1.125,-0.4101563 0.3515625,-0.328125 0.5039063,-0.703125 0.5039063,-1.2304687 0,-1.0898438 -0.65625,-1.7109375 -1.7929688,-1.7109375 H 0.72635937 V 0.00142188 H 1.4646406 Z m 0,-0.65625 v -2.0390625 h 1.546875 c 0.7148438,0 1.1367188,0.3867187 1.1367188,1.0195312 0,0.6328125 -0.421875,1.0195313 -1.1367188,1.0195313 z m 7.5439453,1.2539062 c 0,-0.6445312 -0.046875,-1.0195312 -0.1640625,-1.3359375 -0.28125,-0.6796875 -0.9140625,-1.1015625 -1.6992187,-1.1015625 -1.1601563,0 -1.9101563,0.9023438 -1.9101563,2.2734375 0,1.37109378 0.7265625,2.21484378 1.8984375,2.21484378 0.9609375,0 1.6171875,-0.55078125 1.78125,-1.45312498 H 8.2468672 c -0.1757813,0.55078123 -0.5507813,0.83203123 -1.0898438,0.83203123 -0.421875,0 -0.7851562,-0.1875 -1.0078125,-0.5390625 C 5.9968672,-1.2056094 5.9382734,-1.4517031 5.9265547,-1.8618594 Z M 5.9499922,-2.4009219 c 0.046875,-0.7734375 0.5273437,-1.2773437 1.1953125,-1.2773437 0.6445312,0 1.1484375,0.5390625 1.1484375,1.2304687 0,0.011719 0,0.023437 0,0.046875 z M 9.8992109,-4.1704531 V 0.00142188 H 10.56718 V -2.1665469 c 0,-0.5976562 0.152343,-0.984375 0.46875,-1.21875 0.210937,-0.1523437 0.410156,-0.1992187 0.867187,-0.2109375 v -0.6679687 c -0.105469,-0.023437 -0.164062,-0.035156 -0.246094,-0.035156 -0.433593,0 -0.761718,0.2578125 -1.148437,0.8789063 v -0.75 z m 4.1542971,0 h -0.691406 v -0.65625 c 0,-0.28125 0.164062,-0.421875 0.46875,-0.421875 0.04687,0 0.08203,0 0.222656,0.011719 v -0.5507812 c -0.140625,-0.035156 -0.234375,-0.046875 -0.375,-0.046875 -0.609375,0 -0.972656,0.3515625 -0.972656,0.9492187 v 0.7148438 h -0.5625 v 0.5390625 h 0.5625 v 3.63281248 h 0.65625 V -3.6313906 h 0.691406 z m 2.094726,-0.1289063 c -1.171875,0 -1.886718,0.84375 -1.886718,2.25 0,1.39453128 0.703125,2.23828128 1.898437,2.23828128 1.171875,0 1.886719,-0.84375 1.886719,-2.21484378 0,-1.4414062 -0.691406,-2.2734375 -1.898438,-2.2734375 z m 0.01172,0.6210938 c 0.75,0 1.195313,0.609375 1.195313,1.6523437 0,0.9726563 -0.46875,1.59375003 -1.195313,1.59375003 -0.75,0 -1.195312,-0.60937503 -1.195312,-1.61718753 0,-1.0078125 0.445312,-1.6289062 1.195312,-1.6289062 z m 2.800781,-0.4921875 v 4.17187498 h 0.667969 V -2.1665469 c 0,-0.5976562 0.152344,-0.984375 0.46875,-1.21875 0.210938,-0.1523437 0.410156,-0.1992187 0.867188,-0.2109375 v -0.6679687 c -0.105469,-0.023437 -0.164063,-0.035156 -0.246094,-0.035156 -0.433594,0 -0.761719,0.2578125 -1.148438,0.8789063 v -0.75 z m 2.859375,0 v 4.17187498 h 0.667969 V -2.6235781 c 0,-0.5976563 0.433594,-1.0898438 0.972656,-1.0898438 0.503907,0 0.773438,0.3046875 0.773438,0.84375 v 2.87109378 h 0.667969 V -2.6235781 c 0,-0.5976563 0.445312,-1.0898438 0.984375,-1.0898438 0.492187,0 0.773437,0.3164063 0.773437,0.84375 v 2.87109378 h 0.667969 V -3.1274844 c 0,-0.75 -0.433594,-1.171875 -1.207031,-1.171875 -0.5625,0 -0.890625,0.1757813 -1.289063,0.6445313 -0.246094,-0.4453125 -0.574219,-0.6445313 -1.125,-0.6445313 -0.550781,0 -0.914062,0.2109375 -1.277344,0.7148438 v -0.5859375 z m 10.341797,3.78515623 c -0.07031,0.0117188 -0.105469,0.0117188 -0.140625,0.0117188 -0.234375,0 -0.363281,-0.1171875 -0.363281,-0.328125 V -3.1509219 c 0,-0.75 -0.539063,-1.1484375 -1.570313,-1.1484375 -0.609375,0 -1.113281,0.1757813 -1.382812,0.4921875 -0.199219,0.2109375 -0.269531,0.4570313 -0.292969,0.8671875 h 0.667969 c 0.05859,-0.5039062 0.363281,-0.7382812 0.984375,-0.7382812 0.597656,0 0.9375,0.2226562 0.9375,0.6210937 v 0.1757813 c 0,0.28125 -0.175781,0.3984375 -0.703125,0.4570312 -0.9375,0.1171875 -1.078125,0.1523438 -1.335938,0.2578125 -0.480468,0.1992188 -0.726562,0.5742188 -0.726562,1.1132813 0,0.76171873 0.515625,1.24218748 1.371094,1.24218748 0.515625,0 0.9375,-0.1875 1.417968,-0.62109375 0.04687,0.421875 0.246094,0.62109375 0.679688,0.62109375 0.140625,0 0.234375,-0.0234375 0.457031,-0.0703125 z M 31.00175,-1.3110781 c 0,0.2226562 -0.07031,0.35156248 -0.269531,0.53906248 -0.269532,0.24609375 -0.597657,0.375 -0.984375,0.375 -0.515625,0 -0.820313,-0.24609375 -0.820313,-0.66796878 0,-0.4453125 0.292969,-0.6679687 0.996094,-0.7617187 0.703125,-0.1054688 0.84375,-0.1289063 1.078125,-0.234375 z m 1.886719,-2.859375 v 4.17187498 h 0.667968 V -2.3071719 c 0,-0.84375 0.445313,-1.40625 1.125,-1.40625 0.527344,0 0.867188,0.3164063 0.867188,0.8203125 v 2.89453128 h 0.65625 V -3.1509219 c 0,-0.6914062 -0.515625,-1.1484375 -1.324219,-1.1484375 -0.621094,0 -1.019531,0.2460938 -1.382812,0.8320313 v -0.703125 z m 7.620117,1.3945312 c -0.02344,-0.3984375 -0.117188,-0.6679687 -0.28125,-0.890625 -0.28125,-0.3984375 -0.785156,-0.6328125 -1.359375,-0.6328125 -1.125,0 -1.863281,0.9023438 -1.863281,2.2851563 0,1.34765623 0.714843,2.20312498 1.851562,2.20312498 0.996094,0 1.628906,-0.59765625 1.699219,-1.61718748 h -0.667969 c -0.105469,0.66796873 -0.457031,0.99609373 -1.019531,0.99609373 -0.726563,0 -1.171875,-0.59765623 -1.171875,-1.58203123 0,-1.0429688 0.433594,-1.6640625 1.160156,-1.6640625 0.550781,0 0.902344,0.328125 0.984375,0.9023437 z m 4.324219,0.9140625 c 0,-0.6445312 -0.04687,-1.0195312 -0.164063,-1.3359375 -0.28125,-0.6796875 -0.914062,-1.1015625 -1.699219,-1.1015625 -1.160156,0 -1.910156,0.9023438 -1.910156,2.2734375 0,1.37109378 0.726563,2.21484378 1.898438,2.21484378 0.960937,0 1.617187,-0.55078125 1.78125,-1.45312498 h -0.667969 c -0.175781,0.55078123 -0.550781,0.83203123 -1.089844,0.83203123 -0.421875,0 -0.785156,-0.1875 -1.007812,-0.5390625 C 41.821086,-1.2056094 41.762492,-1.4517031 41.750773,-1.8618594 Z m -3.058594,-0.5390625 c 0.04687,-0.7734375 0.527344,-1.2773437 1.195312,-1.2773437 0.644532,0 1.148438,0.5390625 1.148438,1.2304687 0,0.011719 0,0.023437 0,0.046875 z m 0,0"
       style="fill:#000000;fill-opacity:1;fill-rule:nonzero;stroke:none"
       aria-label="Performance"
       transform="matrix(1.3333333,0,0,1.3333333,199.28933,274.47467)" />
    <path
       id="path4"
       d="m 39.68553,108.09604 c 0,21.918 -17.76753,39.68553 -39.68553,39.68553 -21.918,0 -39.68553,-17.76753 -39.68553,-39.68553 0,-21.91802 17.76753,-39.68555 39.68553,-39.68555 21.918,0 39.68553,17.76753 39.68553,39.68555 z"
       style="fill:none;stroke:#f24dae;stroke-width:0.79701;stroke-linecap:butt;stroke-linejoin:round;stroke-miterlimit:10;stroke-dasharray:2.98883, 2.98883;stroke-dashoffset:0;stroke-opacity:1"
       transform="matrix(1.3333333,0,0,-1.3333333,229.41067,197.572)" />
    <path
       id="path5"
       d="M 3.7748672,-1.7462656 4.3725234,-1.71875e-4 H 5.2045547 L 3.1654922,-5.8126719 H 2.2045547 L 0.14205469,-1.71875e-4 H 0.92721094 L 1.5365859,-1.7462656 Z M 3.5756484,-2.3673594 H 1.7240859 L 2.6733047,-5.0157969 Z M 6.5229141,-5.8126719 H 5.8549453 v 5.812500025 h 0.6679688 z m 3.8437499,1.640625 v 0.5976563 c -0.328125,-0.4921875 -0.7382812,-0.7265625 -1.2773437,-0.7265625 -1.0546875,0 -1.7695312,0.9257812 -1.7695312,2.2851562 0,0.6796875 0.1757812,1.24218753 0.5273437,1.64062503 0.3046875,0.3515625 0.75,0.5625 1.1953125,0.5625 0.515625,0 0.890625,-0.22265625 1.2656247,-0.75 v 0.2109375 c 0,0.5625 -0.07031,0.9140625 -0.246093,1.13671875 C 9.8861953,1.0310781 9.5463516,1.1834219 9.1361953,1.1834219 c -0.2929687,0 -0.5742187,-0.082031 -0.75,-0.22265627 C 8.2338516,0.83185938 8.1635391,0.72639063 8.1283828,0.48029688 H 7.4486953 c 0.070312,0.78515622 0.6914063,1.25390622 1.6640625,1.25390622 0.6210938,0 1.1601562,-0.1992187 1.4296872,-0.5273437 0.316407,-0.38671877 0.445313,-0.91406252 0.445313,-1.88671877 V -4.1720469 Z m -1.2070312,0.4921875 c 0.7265625,0 1.1484372,0.609375 1.1484372,1.6523438 0,0.9960937 -0.4335934,1.59374998 -1.1367184,1.59374998 -0.7265625,0 -1.1601563,-0.60937498 -1.1601563,-1.61718748 0,-1.0078125 0.4453125,-1.6289063 1.1484375,-1.6289063 z M 13.686,-4.3009531 c -1.171875,0 -1.886719,0.84375 -1.886719,2.25 0,1.39453123 0.703125,2.23828123 1.898438,2.23828123 1.171875,0 1.886718,-0.84375 1.886718,-2.21484373 0,-1.4414063 -0.691406,-2.2734375 -1.898437,-2.2734375 z m 0.01172,0.6210937 c 0.75,0 1.195312,0.609375 1.195312,1.6523438 0,0.9726562 -0.46875,1.59374998 -1.195312,1.59374998 -0.75,0 -1.195313,-0.60937498 -1.195313,-1.61718748 0,-1.0078125 0.445313,-1.6289063 1.195313,-1.6289063 z m 2.80078,-0.4921875 v 4.171875025 h 0.667969 V -2.1681406 c 0,-0.5976563 0.152343,-0.984375 0.46875,-1.21875 0.210937,-0.1523438 0.410156,-0.1992188 0.867187,-0.2109375 v -0.6679688 c -0.105469,-0.023437 -0.164062,-0.035156 -0.246094,-0.035156 -0.433593,0 -0.761718,0.2578125 -1.148437,0.8789062 v -0.75 z m 3.418945,0 h -0.65625 v 4.171875025 h 0.65625 z m 0,-1.640625 h -0.667968 v 0.84375 h 0.667968 z m 2.601563,1.640625 h -0.691406 v -1.1484375 h -0.65625 v 1.1484375 h -0.5625 v 0.5390625 h 0.5625 v 3.15234378 c 0,0.421875 0.28125,0.66796875 0.796875,0.66796875 0.164062,0 0.328125,-0.0234375 0.550781,-0.0585938 v -0.5625 c -0.09375,0.0234375 -0.199219,0.0351563 -0.316406,0.0351563 -0.292969,0 -0.375,-0.0820313 -0.375,-0.375 V -3.6329844 h 0.691406 z m 0.75,-1.640625 v 5.812500025 h 0.65625 V -2.3087656 c 0,-0.84375 0.445312,-1.40625 1.136719,-1.40625 0.210937,0 0.421875,0.070312 0.585937,0.1875 0.1875,0.140625 0.269531,0.3398437 0.269531,0.6328125 v 2.894531225 h 0.65625 V -3.1525156 c 0,-0.703125 -0.492187,-1.1484375 -1.3125,-1.1484375 -0.585937,0 -0.949218,0.1875 -1.335937,0.703125 v -2.2148438 z m 4.432617,1.640625 v 4.171875025 h 0.667969 V -2.6251719 c 0,-0.5976562 0.433593,-1.0898437 0.972656,-1.0898437 0.503906,0 0.773437,0.3046875 0.773437,0.84375 v 2.871093725 h 0.667969 V -2.6251719 c 0,-0.5976562 0.445313,-1.0898437 0.984375,-1.0898437 0.492188,0 0.773438,0.3164062 0.773438,0.84375 v 2.871093725 h 0.667968 V -3.1290781 c 0,-0.75 -0.433593,-1.171875 -1.207031,-1.171875 -0.5625,0 -0.890625,0.1757812 -1.289062,0.6445312 -0.246094,-0.4453125 -0.574219,-0.6445312 -1.125,-0.6445312 -0.550782,0 -0.914063,0.2109375 -1.277344,0.7148437 v -0.5859375 z m 9.568359,1.1601563 c -0.01172,-0.8203125 -0.550781,-1.2890625 -1.511718,-1.2890625 -0.972657,0 -1.605469,0.5039062 -1.605469,1.2773437 0,0.65625 0.339844,0.9726563 1.324219,1.2070313 l 0.621093,0.1523437 c 0.457032,0.1054688 0.644532,0.28125 0.644532,0.5859375 0,0.38671878 -0.386719,0.64453128 -0.972657,0.64453128 -0.363281,0 -0.65625,-0.10546875 -0.832031,-0.28125 -0.105469,-0.1171875 -0.152344,-0.234375 -0.1875,-0.52734378 h -0.703125 c 0.03516,0.96093753 0.574219,1.42968753 1.664063,1.42968753 1.054687,0 1.722656,-0.52734375 1.722656,-1.32421873 0,-0.6210938 -0.351563,-0.9726563 -1.183594,-1.171875 l -0.632812,-0.140625 c -0.539063,-0.1289063 -0.773438,-0.3046875 -0.773438,-0.5976563 0,-0.3867187 0.339844,-0.6328125 0.890625,-0.6328125 0.527344,0 0.820313,0.234375 0.832031,0.6679688 z m 4.576172,-2.8007813 c -0.796875,1.0429688 -1.289062,2.4960938 -1.289062,3.75 0,1.25390628 0.492187,2.70703128 1.289062,3.75 h 0.445313 c -0.703125,-1.13671872 -1.089844,-2.47265622 -1.089844,-3.75 0,-1.265625 0.386719,-2.6132812 1.089844,-3.75 z m 4.50586,5.812500025 1.640625,-4.863281225 v 4.863281225 h 0.691406 V -5.8126719 h -1.019531 l -1.6875,5.06250003 -1.722657,-5.06250003 h -1.03125 v 5.812500025 h 0.703125 V -4.8634531 l 1.652344,4.863281225 z M 51.432094,-4.3009531 c -1.171875,0 -1.886719,0.84375 -1.886719,2.25 0,1.39453123 0.703125,2.23828123 1.898437,2.23828123 1.171875,0 1.886719,-0.84375 1.886719,-2.21484373 0,-1.4414063 -0.691406,-2.2734375 -1.898437,-2.2734375 z m 0.01172,0.6210937 c 0.75,0 1.195313,0.609375 1.195313,1.6523438 0,0.9726562 -0.46875,1.59374998 -1.195313,1.59374998 -0.75,0 -1.195312,-0.60937498 -1.195312,-1.61718748 0,-1.0078125 0.445312,-1.6289063 1.195312,-1.6289063 z m 6.199219,-2.1328125 h -0.667969 v 2.1679688 c -0.28125,-0.421875 -0.726562,-0.65625 -1.277343,-0.65625 -1.089844,0 -1.792969,0.8789062 -1.792969,2.203125 0,1.41796873 0.691406,2.28515623 1.816406,2.28515623 0.574219,0 0.972656,-0.22265625 1.324219,-0.73828125 v 0.550781245 h 0.597656 z m -1.839844,2.1445313 c 0.714844,0 1.171875,0.6328125 1.171875,1.6289062 0,0.9609375 -0.457031,1.60546878 -1.160156,1.60546878 -0.738281,0 -1.21875,-0.64453128 -1.21875,-1.61718748 0,-0.9726563 0.480469,-1.6171875 1.207031,-1.6171875 z m 6.413086,1.8046875 c 0,-0.6445313 -0.04687,-1.0195313 -0.164062,-1.3359375 -0.28125,-0.6796875 -0.914063,-1.1015625 -1.699219,-1.1015625 -1.160156,0 -1.910156,0.9023437 -1.910156,2.2734375 0,1.37109373 0.726562,2.21484373 1.898437,2.21484373 0.960938,0 1.617188,-0.55078125 1.78125,-1.45312503 h -0.667968 c -0.175782,0.55078128 -0.550782,0.83203128 -1.089844,0.83203128 -0.421875,0 -0.785156,-0.1875 -1.007813,-0.5390625 C 59.204555,-1.2072031 59.145961,-1.4532969 59.134242,-1.8634531 Z M 59.15768,-2.4025156 c 0.04687,-0.7734375 0.527343,-1.2773438 1.195312,-1.2773438 0.644531,0 1.148438,0.5390625 1.148438,1.2304688 0,0.011719 0,0.023437 0,0.046875 z m 4.605468,-3.4101563 H 63.09518 v 5.812500025 h 0.667968 z m 1.300782,7.5 c 0.796875,-1.04296872 1.300781,-2.49609372 1.300781,-3.7382812 0,-1.265625 -0.503906,-2.71875 -1.300781,-3.7617188 h -0.433594 c 0.703125,1.1484375 1.089844,2.484375 1.089844,3.7617188 0,1.26562498 -0.386719,2.61328123 -1.089844,3.7382812 z m 0,0"
       style="fill:#000000;fill-opacity:1;fill-rule:nonzero;stroke:none"
       aria-label="Algorithms(Model)"
       transform="matrix(1.3333333,0,0,1.3333333,184.752,119.39867)" />
    <path
       id="path6"
       d="m 133.29971,-54.04802 c 0,21.91802 -17.76754,39.68555 -39.68554,39.68555 -21.918,0 -39.68554,-17.76753 -39.68554,-39.68555 0,-21.918 17.76754,-39.68553 39.68554,-39.68553 21.918,0 39.68554,17.76753 39.68554,39.68553 z"
       style="fill:none;stroke:#a19882;stroke-width:0.79701;stroke-linecap:butt;stroke-linejoin:round;stroke-miterlimit:10;stroke-dasharray:2.98883, 2.98883;stroke-dashoffset:0;stroke-opacity:1"
       transform="matrix(1.3333333,0,0,-1.3333333,229.41067,197.572)" />
    <path
       id="path7"
       d="M 0.71567969,0.00138281 H 2.9539609 c 1.4648438,0 2.3671875,-1.10156251 2.3671875,-2.90625001 0,-1.8046875 -0.9023437,-2.90625 -2.3671875,-2.90625 H 0.71567969 Z m 0.73828121,-0.65625 V -5.1548672 h 1.3710938 c 1.1484375,0 1.7460937,0.7734375 1.7460937,2.25 0,1.4765625 -0.5976562,2.25000001 -1.7460937,2.25000001 z m 8.5664061,0.26953125 c -0.070312,0.0117188 -0.1054686,0.0117188 -0.1406248,0.0117188 -0.234375,0 -0.3632813,-0.1171875 -0.3632813,-0.328125 V -3.1509609 c 0,-0.75 -0.5390625,-1.1484375 -1.5703125,-1.1484375 -0.609375,0 -1.1132812,0.1757812 -1.3828125,0.4921875 -0.1992187,0.2109375 -0.2695312,0.4570312 -0.2929687,0.8671875 h 0.6679687 c 0.058594,-0.5039063 0.3632813,-0.7382813 0.984375,-0.7382813 0.5976563,0 0.9375,0.2226563 0.9375,0.6210938 v 0.1757812 c 0,0.28125 -0.1757812,0.3984375 -0.703125,0.4570313 -0.9375,0.1171875 -1.078125,0.1523437 -1.3359375,0.2578125 -0.4804687,0.1992187 -0.7265625,0.5742187 -0.7265625,1.1132812 0,0.76171876 0.515625,1.24218751 1.3710938,1.24218751 0.515625,0 0.9375,-0.1875 1.4179687,-0.62109375 0.046875,0.421875 0.2460938,0.62109375 0.6796875,0.62109375 0.140625,0 0.234375,-0.0234375 0.4570311,-0.0703125 z M 8.8602109,-1.3111172 c 0,0.2226563 -0.070312,0.35156251 -0.2695312,0.53906251 -0.2695313,0.24609375 -0.5976563,0.375 -0.984375,0.375 -0.515625,0 -0.8203125,-0.24609375 -0.8203125,-0.66796871 0,-0.4453125 0.2929687,-0.6679688 0.9960937,-0.7617188 0.703125,-0.1054687 0.84375,-0.1289062 1.078125,-0.234375 z m 3.3515621,-2.859375 h -0.691406 v -1.1484375 h -0.65625 v 1.1484375 h -0.5625 v 0.5390625 h 0.5625 v 3.15234376 c 0,0.421875 0.28125,0.66796875 0.796875,0.66796875 0.164063,0 0.328125,-0.0234375 0.550781,-0.0585938 v -0.5625 c -0.09375,0.0234375 -0.199218,0.0351563 -0.316406,0.0351563 -0.292969,0 -0.375,-0.0820313 -0.375,-0.375 V -3.6314297 h 0.691406 z m 4.456055,3.78515626 c -0.07031,0.0117188 -0.105469,0.0117188 -0.140625,0.0117188 -0.234375,0 -0.363281,-0.1171875 -0.363281,-0.328125 V -3.1509609 c 0,-0.75 -0.539063,-1.1484375 -1.570313,-1.1484375 -0.609375,0 -1.113281,0.1757812 -1.382812,0.4921875 -0.199219,0.2109375 -0.269531,0.4570312 -0.292969,0.8671875 h 0.667969 c 0.05859,-0.5039063 0.363281,-0.7382813 0.984375,-0.7382813 0.597656,0 0.9375,0.2226563 0.9375,0.6210938 v 0.1757812 c 0,0.28125 -0.175781,0.3984375 -0.703125,0.4570313 -0.9375,0.1171875 -1.078125,0.1523437 -1.335938,0.2578125 -0.480468,0.1992187 -0.726562,0.5742187 -0.726562,1.1132812 0,0.76171876 0.515625,1.24218751 1.371094,1.24218751 0.515625,0 0.9375,-0.1875 1.417968,-0.62109375 0.04687,0.421875 0.246094,0.62109375 0.679688,0.62109375 0.140625,0 0.234375,-0.0234375 0.457031,-0.0703125 z M 15.507672,-1.3111172 c 0,0.2226563 -0.07031,0.35156251 -0.269531,0.53906251 -0.269532,0.24609375 -0.597657,0.375 -0.984375,0.375 -0.515625,0 -0.820313,-0.24609375 -0.820313,-0.66796871 0,-0.4453125 0.292969,-0.6679688 0.996094,-0.7617188 0.703125,-0.1054687 0.84375,-0.1289062 1.078125,-0.234375 z m 8.288086,-2.7890625 c 0,-1.1367187 -0.785156,-1.8046875 -2.121094,-1.8046875 -1.277344,0 -2.0625,0.65625 -2.0625,1.7109375 0,0.703125 0.375,1.1484375 1.136719,1.3476563 l 1.441406,0.3867187 c 0.726563,0.1875 1.066406,0.4804688 1.066406,0.9375 0,0.3164063 -0.164062,0.63281251 -0.410156,0.80859376 -0.234375,0.15234375 -0.597656,0.24609375 -1.066406,0.24609375 -0.632813,0 -1.066406,-0.15234375 -1.347656,-0.4921875 C 20.221539,-1.2056484 20.127789,-1.4868984 20.127789,-1.8501797 h -0.691406 c 0,0.5390625 0.105469,0.89062501 0.339844,1.20703126 0.398437,0.5390625 1.066406,0.83203125 1.945312,0.83203125 0.703125,0 1.265625,-0.1640625 1.640625,-0.4453125 0.386719,-0.31640625 0.632813,-0.83203121 0.632813,-1.33593751 0,-0.7148437 -0.445313,-1.2421875 -1.230469,-1.453125 l -1.464844,-0.3984375 c -0.691406,-0.1875 -0.949219,-0.4101562 -0.949219,-0.8554687 0,-0.5976563 0.515625,-0.984375 1.300782,-0.984375 0.925781,0 1.441406,0.421875 1.441406,1.1835937 z m 4.658203,2.2382813 c 0,-0.6445313 -0.04687,-1.0195313 -0.164063,-1.3359375 -0.28125,-0.6796875 -0.914062,-1.1015625 -1.699218,-1.1015625 -1.160157,0 -1.910157,0.9023437 -1.910157,2.2734375 0,1.37109371 0.726563,2.21484371 1.898438,2.21484371 0.960937,0 1.617187,-0.55078125 1.78125,-1.45312501 h -0.667969 c -0.175781,0.55078126 -0.550781,0.83203126 -1.089844,0.83203126 -0.421875,0 -0.785156,-0.1875 -1.007812,-0.5390625 C 25.442242,-1.2056484 25.383648,-1.4517422 25.37193,-1.8618984 Z m -3.058594,-0.5390625 c 0.04687,-0.7734375 0.527344,-1.2773438 1.195313,-1.2773438 0.644531,0 1.148437,0.5390625 1.148437,1.2304688 0,0.011719 0,0.023437 0,0.046875 z m 4.608399,-3.4101563 h -0.667969 v 5.81250001 h 0.667969 z m 4.652343,3.9492188 c 0,-0.6445313 -0.04687,-1.0195313 -0.164062,-1.3359375 -0.28125,-0.6796875 -0.914063,-1.1015625 -1.699219,-1.1015625 -1.160156,0 -1.910156,0.9023437 -1.910156,2.2734375 0,1.37109371 0.726562,2.21484371 1.898437,2.21484371 0.960938,0 1.617188,-0.55078125 1.78125,-1.45312501 h -0.667968 c -0.175782,0.55078126 -0.550782,0.83203126 -1.089844,0.83203126 -0.421875,0 -0.785156,-0.1875 -1.007813,-0.5390625 C 31.644391,-1.2056484 31.585797,-1.4517422 31.574078,-1.8618984 Z m -3.058593,-0.5390625 c 0.04687,-0.7734375 0.527343,-1.2773438 1.195312,-1.2773438 0.644531,0 1.148438,0.5390625 1.148438,1.2304688 0,0.011719 0,0.023437 0,0.046875 z m 7.148437,-0.375 c -0.02344,-0.3984375 -0.117187,-0.6679688 -0.28125,-0.890625 -0.28125,-0.3984375 -0.785156,-0.6328125 -1.359375,-0.6328125 -1.125,0 -1.863281,0.9023437 -1.863281,2.2851562 0,1.34765626 0.714844,2.20312501 1.851562,2.20312501 0.996094,0 1.628907,-0.59765625 1.699219,-1.61718751 h -0.667969 c -0.105468,0.66796876 -0.457031,0.99609376 -1.019531,0.99609376 -0.726562,0 -1.171875,-0.59765626 -1.171875,-1.58203126 0,-1.0429687 0.433594,-1.6640625 1.160156,-1.6640625 0.550782,0 0.902344,0.328125 0.984375,0.9023438 z m 2.264649,-1.3945313 h -0.691407 v -1.1484375 h -0.65625 v 1.1484375 h -0.5625 v 0.5390625 h 0.5625 v 3.15234376 c 0,0.421875 0.28125,0.66796875 0.796875,0.66796875 0.164063,0 0.328125,-0.0234375 0.550782,-0.0585938 v -0.5625 c -0.09375,0.0234375 -0.199219,0.0351563 -0.316407,0.0351563 -0.292968,0 -0.375,-0.0820313 -0.375,-0.375 V -3.6314297 h 0.691407 z m 1.382812,0 h -0.65625 v 4.17187501 h 0.65625 z m 0,-1.640625 h -0.667969 v 0.84375 h 0.667969 z m 2.742188,1.5117188 c -1.171875,0 -1.886719,0.84375 -1.886719,2.25 0,1.39453121 0.703125,2.23828121 1.898437,2.23828121 1.171875,0 1.886719,-0.84375 1.886719,-2.21484371 0,-1.4414063 -0.691406,-2.2734375 -1.898437,-2.2734375 z m 0.01172,0.6210937 c 0.75,0 1.195313,0.609375 1.195313,1.6523438 0,0.9726562 -0.46875,1.59374996 -1.195313,1.59374996 -0.75,0 -1.195312,-0.60937496 -1.195312,-1.61718746 0,-1.0078125 0.445312,-1.6289063 1.195312,-1.6289063 z m 2.8125,-0.4921875 v 4.17187501 h 0.667969 V -2.3072109 c 0,-0.84375 0.445313,-1.40625 1.125,-1.40625 0.527344,0 0.867188,0.3164062 0.867188,0.8203125 v 2.89453121 h 0.65625 V -3.1509609 c 0,-0.6914063 -0.515625,-1.1484375 -1.324219,-1.1484375 -0.621094,0 -1.019531,0.2460937 -1.382813,0.8320312 v -0.703125 z m 0,0"
       style="fill:#000000;fill-opacity:1;fill-rule:nonzero;stroke:none"
       aria-label="DataSelection"
       transform="matrix(1.3333333,0,0,1.3333333,319.67467,335.588)" />
    <path
       id="path8"
       d="m -53.92863,-54.04802 c 0,21.91802 -17.76754,39.68555 -39.68554,39.68555 -21.918,0 -39.68554,-17.76753 -39.68554,-39.68555 0,-21.918 17.76754,-39.68553 39.68554,-39.68553 21.918,0 39.68554,17.76753 39.68554,39.68553 z"
       style="fill:none;stroke:#00adef;stroke-width:0.79701;stroke-linecap:butt;stroke-linejoin:round;stroke-miterlimit:10;stroke-dasharray:2.98883, 2.98883;stroke-dashoffset:0;stroke-opacity:1"
       transform="matrix(1.3333333,0,0,-1.3333333,229.41067,197.572)" />
    <path
       id="path9"
       d="M 3.7276484,0.00138281 5.3682734,-4.8618984 V 0.00138281 H 6.0596797 V -5.8111172 H 5.0401484 l -1.6875,5.06250001 L 1.6299922,-5.8111172 H 0.59874219 V 0.00138281 H 1.3018672 V -4.8618984 l 1.6523437,4.86328121 z m 7.1777346,-0.38671875 c -0.07031,0.0117188 -0.105469,0.0117188 -0.140625,0.0117188 -0.234375,0 -0.363281,-0.1171875 -0.363281,-0.328125 V -3.1509609 c 0,-0.75 -0.5390629,-1.1484375 -1.5703129,-1.1484375 -0.609375,0 -1.1132813,0.1757812 -1.3828125,0.4921875 -0.1992188,0.2109375 -0.2695313,0.4570312 -0.2929688,0.8671875 h 0.6679688 c 0.058594,-0.5039063 0.3632812,-0.7382813 0.984375,-0.7382813 0.5976562,0 0.9375,0.2226563 0.9375,0.6210938 v 0.1757812 c 0,0.28125 -0.1757813,0.3984375 -0.703125,0.4570313 -0.9375,0.1171875 -1.078125,0.1523437 -1.3359375,0.2578125 -0.4804688,0.1992187 -0.7265625,0.5742187 -0.7265625,1.1132812 0,0.76171876 0.515625,1.24218751 1.3710937,1.24218751 0.515625,0 0.9375,-0.1875 1.4179688,-0.62109375 0.046875,0.421875 0.2460939,0.62109375 0.6796879,0.62109375 0.140625,0 0.234375,-0.0234375 0.457031,-0.0703125 z M 9.7452266,-1.3111172 c 0,0.2226563 -0.070312,0.35156251 -0.2695313,0.53906251 -0.2695312,0.24609375 -0.5976562,0.375 -0.984375,0.375 -0.515625,0 -0.8203125,-0.24609375 -0.8203125,-0.66796871 0,-0.4453125 0.2929688,-0.6679688 0.9960938,-0.7617188 0.703125,-0.1054687 0.84375,-0.1289062 1.078125,-0.234375 z m 5.0742184,-1.4648437 c -0.02344,-0.3984375 -0.117187,-0.6679688 -0.28125,-0.890625 -0.28125,-0.3984375 -0.785156,-0.6328125 -1.359375,-0.6328125 -1.125,0 -1.863281,0.9023437 -1.863281,2.2851562 0,1.34765626 0.714844,2.20312501 1.851563,2.20312501 0.996093,0 1.628906,-0.59765625 1.699218,-1.61718751 h -0.667968 c -0.105469,0.66796876 -0.457032,0.99609376 -1.019532,0.99609376 -0.726562,0 -1.171875,-0.59765626 -1.171875,-1.58203126 0,-1.0429687 0.433594,-1.6640625 1.160157,-1.6640625 0.550781,0 0.902343,0.328125 0.984375,0.9023438 z M 15.61925,-5.8111172 V 0.00138281 H 16.2755 V -2.3072109 c 0,-0.84375 0.445312,-1.40625 1.136719,-1.40625 0.210937,0 0.421875,0.070312 0.585937,0.1875 0.1875,0.140625 0.269531,0.3398437 0.269531,0.6328125 v 2.89453121 h 0.65625 V -3.1509609 c 0,-0.703125 -0.492187,-1.1484375 -1.3125,-1.1484375 -0.585937,0 -0.949218,0.1875 -1.335937,0.703125 v -2.2148438 z m 5.0625,1.640625 H 20.0255 v 4.17187501 h 0.65625 z m 0,-1.640625 h -0.667969 v 0.84375 h 0.667969 z m 1.136719,1.640625 v 4.17187501 h 0.667968 V -2.3072109 c 0,-0.84375 0.445313,-1.40625 1.125,-1.40625 0.527344,0 0.867188,0.3164062 0.867188,0.8203125 v 2.89453121 h 0.65625 V -3.1509609 c 0,-0.6914063 -0.515625,-1.1484375 -1.324219,-1.1484375 -0.621094,0 -1.019531,0.2460937 -1.382812,0.8320312 v -0.703125 z m 7.959961,2.3085938 c 0,-0.6445313 -0.04687,-1.0195313 -0.164063,-1.3359375 -0.28125,-0.6796875 -0.914062,-1.1015625 -1.699219,-1.1015625 -1.160156,0 -1.910156,0.9023437 -1.910156,2.2734375 0,1.37109371 0.726563,2.21484371 1.898438,2.21484371 0.960937,0 1.617187,-0.55078125 1.78125,-1.45312501 h -0.667969 c -0.175781,0.55078126 -0.550781,0.83203126 -1.089844,0.83203126 -0.421875,0 -0.785156,-0.1875 -1.007812,-0.5390625 C 26.766711,-1.2056484 26.708117,-1.4517422 26.696398,-1.8618984 Z m -3.058594,-0.5390625 c 0.04687,-0.7734375 0.527344,-1.2773438 1.195312,-1.2773438 0.644532,0 1.148438,0.5390625 1.148438,1.2304688 0,0.011719 0,0.023437 0,0.046875 z m 7.491211,-3.4101563 c -0.796875,1.0429688 -1.289063,2.4960938 -1.289063,3.75 0,1.25390626 0.492188,2.70703126 1.289063,3.75 h 0.445312 c -0.703125,-1.13671874 -1.089843,-2.47265624 -1.089843,-3.75 0,-1.265625 0.386718,-2.6132812 1.089843,-3.75 z m 5.170898,3.1640625 v 2.64843751 h 0.738282 V -5.8111172 h -0.738282 v 2.5078125 h -2.988281 v -2.5078125 h -0.75 v 5.81250001 h 0.75 V -2.6470547 Z m 5.62793,2.26171876 c -0.07031,0.0117188 -0.105469,0.0117188 -0.140625,0.0117188 -0.234375,0 -0.363281,-0.1171875 -0.363281,-0.328125 V -3.1509609 c 0,-0.75 -0.539063,-1.1484375 -1.570313,-1.1484375 -0.609375,0 -1.113281,0.1757812 -1.382812,0.4921875 -0.199219,0.2109375 -0.269532,0.4570312 -0.292969,0.8671875 h 0.667969 c 0.05859,-0.5039063 0.363281,-0.7382813 0.984375,-0.7382813 0.597656,0 0.9375,0.2226563 0.9375,0.6210938 v 0.1757812 c 0,0.28125 -0.175782,0.3984375 -0.703125,0.4570313 -0.9375,0.1171875 -1.078125,0.1523437 -1.335938,0.2578125 -0.480469,0.1992187 -0.726562,0.5742187 -0.726562,1.1132812 0,0.76171876 0.515625,1.24218751 1.371093,1.24218751 0.515625,0 0.9375,-0.1875 1.417969,-0.62109375 0.04687,0.421875 0.246094,0.62109375 0.679688,0.62109375 0.140625,0 0.234375,-0.0234375 0.457031,-0.0703125 z M 43.849719,-1.3111172 c 0,0.2226563 -0.07031,0.35156251 -0.269532,0.53906251 -0.269531,0.24609375 -0.597656,0.375 -0.984375,0.375 -0.515625,0 -0.820312,-0.24609375 -0.820312,-0.66796871 0,-0.4453125 0.292969,-0.6679688 0.996094,-0.7617188 0.703125,-0.1054687 0.84375,-0.1289062 1.078125,-0.234375 z m 1.875,-2.859375 v 4.17187501 h 0.667968 V -2.1665859 c 0,-0.5976563 0.152344,-0.984375 0.46875,-1.21875 0.210938,-0.1523438 0.410157,-0.1992188 0.867188,-0.2109375 v -0.6679688 c -0.105469,-0.023437 -0.164063,-0.035156 -0.246094,-0.035156 -0.433594,0 -0.761719,0.2578125 -1.148437,0.8789062 v -0.75 z m 6.052734,-1.640625 h -0.667969 v 2.1679688 c -0.28125,-0.421875 -0.726562,-0.65625 -1.277343,-0.65625 -1.089844,0 -1.792969,0.8789062 -1.792969,2.203125 0,1.41796871 0.691406,2.28515621 1.816406,2.28515621 0.574219,0 0.972656,-0.22265625 1.324219,-0.73828125 v 0.55078125 h 0.597656 z m -1.839844,2.1445313 c 0.714844,0 1.171875,0.6328125 1.171875,1.6289062 0,0.9609375 -0.457031,1.60546876 -1.160156,1.60546876 -0.738281,0 -1.21875,-0.64453126 -1.21875,-1.61718746 0,-0.9726563 0.480469,-1.6171875 1.207031,-1.6171875 z m 6.741211,3.66796871 1.21875,-4.17187501 h -0.738281 l -0.832031,3.24609376 -0.820313,-3.24609376 h -0.820312 l -0.796875,3.24609376 -0.84375,-3.24609376 h -0.738281 l 1.207031,4.17187501 h 0.75 l 0.808594,-3.26953121 0.84375,3.26953121 z m 5.481446,-0.38671875 c -0.07031,0.0117188 -0.105469,0.0117188 -0.140625,0.0117188 -0.234375,0 -0.363282,-0.1171875 -0.363282,-0.328125 V -3.1509609 c 0,-0.75 -0.539062,-1.1484375 -1.570312,-1.1484375 -0.609375,0 -1.113281,0.1757812 -1.382813,0.4921875 -0.199218,0.2109375 -0.269531,0.4570312 -0.292968,0.8671875 h 0.667968 c 0.05859,-0.5039063 0.363282,-0.7382813 0.984375,-0.7382813 0.597657,0 0.9375,0.2226563 0.9375,0.6210938 v 0.1757812 c 0,0.28125 -0.175781,0.3984375 -0.703125,0.4570313 -0.9375,0.1171875 -1.078125,0.1523437 -1.335937,0.2578125 -0.480469,0.1992187 -0.726563,0.5742187 -0.726563,1.1132812 0,0.76171876 0.515625,1.24218751 1.371094,1.24218751 0.515625,0 0.9375,-0.1875 1.417969,-0.62109375 0.04687,0.421875 0.246094,0.62109375 0.679687,0.62109375 0.140625,0 0.234375,-0.0234375 0.457032,-0.0703125 z M 61.000109,-1.3111172 c 0,0.2226563 -0.07031,0.35156251 -0.269531,0.53906251 -0.269531,0.24609375 -0.597656,0.375 -0.984375,0.375 -0.515625,0 -0.820312,-0.24609375 -0.820312,-0.66796871 0,-0.4453125 0.292968,-0.6679688 0.996093,-0.7617188 0.703125,-0.1054687 0.84375,-0.1289062 1.078125,-0.234375 z m 1.87793,-2.859375 v 4.17187501 h 0.667969 V -2.1665859 c 0,-0.5976563 0.152344,-0.984375 0.46875,-1.21875 0.210937,-0.1523438 0.410156,-0.1992188 0.867187,-0.2109375 v -0.6679688 c -0.105468,-0.023437 -0.164062,-0.035156 -0.246093,-0.035156 -0.433594,0 -0.761719,0.2578125 -1.148438,0.8789062 v -0.75 z m 6.193359,2.3085938 c 0,-0.6445313 -0.04687,-1.0195313 -0.164062,-1.3359375 -0.28125,-0.6796875 -0.914063,-1.1015625 -1.699219,-1.1015625 -1.160156,0 -1.910156,0.9023437 -1.910156,2.2734375 0,1.37109371 0.726562,2.21484371 1.898437,2.21484371 0.960938,0 1.617188,-0.55078125 1.78125,-1.45312501 H 68.30968 c -0.175782,0.55078126 -0.550782,0.83203126 -1.089844,0.83203126 -0.421875,0 -0.785156,-0.1875 -1.007813,-0.5390625 C 66.05968,-1.2056484 66.001086,-1.4517422 65.989367,-1.8618984 Z m -3.058593,-0.5390625 c 0.04687,-0.7734375 0.527343,-1.2773438 1.195312,-1.2773438 0.644531,0 1.148438,0.5390625 1.148438,1.2304688 0,0.011719 0,0.023437 0,0.046875 z m 4.136718,4.0898437 c 0.796875,-1.04296874 1.300782,-2.49609374 1.300782,-3.7382812 0,-1.265625 -0.503907,-2.71875 -1.300782,-3.7617188 H 69.71593 c 0.703125,1.1484375 1.089843,2.484375 1.089843,3.7617188 0,1.26562496 -0.386718,2.61328121 -1.089843,3.7382812 z m 0,0"
       style="fill:#000000;fill-opacity:1;fill-rule:nonzero;stroke:none"
       aria-label="Machine(Hardware)"
       transform="matrix(1.3333333,0,0,1.3333333,56.549333,335.588)" />
    <path
       id="path10"
       d="M 1.1622,1.48825 H -1.1622 V -20.33913 H 1.1622 Z"
       style="fill:#006395;fill-opacity:1;fill-rule:nonzero;stroke:none"
       transform="matrix(1.3333333,0,0,-1.3333333,229.41067,197.572)" />
    <path
       id="path11"
       d="m -17.85684,-21.28072 c 10.32606,-8.66481 25.38789,-8.66481 35.71396,0 z"
       style="fill:#003b59;fill-opacity:1;fill-rule:nonzero;stroke:none"
       transform="matrix(1.3333333,0,0,-1.3333333,229.41067,197.572)" />
    <path
       id="path12"
       d="m -30.7568,-5.0305 c 0,-6.02754 4.88616,-10.91371 10.91369,-10.91371 6.02754,0 10.9137,4.88617 10.9137,10.91371 z"
       style="fill:#ff8000;fill-opacity:1;fill-rule:nonzero;stroke:none"
       transform="matrix(1.3333333,0,0,-1.3333333,229.41067,197.572)" />
    <path
       id="path13"
       d="m -17.85881,12.40193 c 0,1.09592 -0.88839,1.9843 -1.9843,1.9843 -1.0959,0 -1.9843,-0.88838 -1.9843,-1.9843 0,-1.0959 0.8884,-1.9843 1.9843,-1.9843 1.09591,0 1.9843,0.8884 1.9843,1.9843 z"
       style="fill:#ff8000;fill-opacity:1;fill-rule:nonzero;stroke:none"
       transform="matrix(1.3333333,0,0,-1.3333333,229.41067,197.572)" />
    <path
       id="path14"
       d="m -19.84468,7.35985 -5e-5,-9.33105"
       style="fill:none;stroke:#000000;stroke-width:1.19553;stroke-linecap:butt;stroke-linejoin:round;stroke-miterlimit:10;stroke-dasharray:none;stroke-opacity:1"
       transform="matrix(1.3333333,0,0,-1.3333333,229.41067,197.572)" />
    <path
       id="path15"
       d="m -17.7573,7.81236 4.57114,-10.05262"
       style="fill:none;stroke:#000000;stroke-width:1.19553;stroke-linecap:butt;stroke-linejoin:round;stroke-miterlimit:10;stroke-dasharray:none;stroke-opacity:1"
       transform="matrix(1.3333333,0,0,-1.3333333,229.41067,197.572)" />
    <path
       id="path16"
       d="M -21.93199,7.81241 -26.50294,-2.24026"
       style="fill:none;stroke:#000000;stroke-width:1.19553;stroke-linecap:butt;stroke-linejoin:round;stroke-miterlimit:10;stroke-dasharray:none;stroke-opacity:1"
       transform="matrix(1.3333333,0,0,-1.3333333,229.41067,197.572)" />
    <path
       id="path17"
       d="m 8.92941,-5.0305 c 0,-6.02754 4.88616,-10.91371 10.9137,-10.91371 6.02753,0 10.91369,4.88617 10.91369,10.91371 z"
       style="fill:#b35900;fill-opacity:1;fill-rule:nonzero;stroke:none"
       transform="matrix(1.3333333,0,0,-1.3333333,229.41067,197.572)" />
    <path
       id="path18"
       d="m 21.82741,12.40193 c 0,1.09592 -0.8884,1.9843 -1.9843,1.9843 -1.09591,0 -1.9843,-0.88838 -1.9843,-1.9843 0,-1.0959 0.88839,-1.9843 1.9843,-1.9843 1.0959,0 1.9843,0.8884 1.9843,1.9843 z"
       style="fill:#b35900;fill-opacity:1;fill-rule:nonzero;stroke:none"
       transform="matrix(1.3333333,0,0,-1.3333333,229.41067,197.572)" />
    <path
       id="path19"
       d="m 19.84468,7.35985 5e-5,-9.33105"
       style="fill:none;stroke:#000000;stroke-width:1.19553;stroke-linecap:butt;stroke-linejoin:round;stroke-miterlimit:10;stroke-dasharray:none;stroke-opacity:1"
       transform="matrix(1.3333333,0,0,-1.3333333,229.41067,197.572)" />
    <path
       id="path20"
       d="M 21.93199,7.81241 26.50294,-2.24026"
       style="fill:none;stroke:#000000;stroke-width:1.19553;stroke-linecap:butt;stroke-linejoin:round;stroke-miterlimit:10;stroke-dasharray:none;stroke-opacity:1"
       transform="matrix(1.3333333,0,0,-1.3333333,229.41067,197.572)" />
    <path
       id="path21"
       d="M 17.7573,7.81236 13.18616,-2.24026"
       style="fill:none;stroke:#000000;stroke-width:1.19553;stroke-linecap:butt;stroke-linejoin:round;stroke-miterlimit:10;stroke-dasharray:none;stroke-opacity:1"
       transform="matrix(1.3333333,0,0,-1.3333333,229.41067,197.572)" />
    <path
       id="path22"
       d="M 15.87448,13.14604 H -15.87448 V 11.65782 H 15.87448 Z"
       style="fill:#003b59;fill-opacity:1;fill-rule:nonzero;stroke:none"
       transform="matrix(1.3333333,0,0,-1.3333333,229.41067,197.572)" />
    <path
       id="path23"
       d="m 4.46468,8.43336 c 0,4.1097 -1.99888,7.44117 -4.46468,7.44117 -2.4658,0 -4.46468,-3.33147 -4.46468,-7.44117 0,-4.10968 1.99888,-7.44116 4.46468,-7.44116 2.4658,0 4.46468,3.33148 4.46468,7.44116 z"
       style="fill:#006395;fill-opacity:1;fill-rule:nonzero;stroke:#ffffff;stroke-width:1.99255;stroke-linecap:butt;stroke-linejoin:round;stroke-miterlimit:10;stroke-dasharray:none;stroke-opacity:1"
       transform="matrix(1.3333333,0,0,-1.3333333,229.41067,197.572)" />
    <path
       id="path24"
       d="m 4.96077,20.3392 c 0,2.7398 -2.22099,4.96077 -4.96077,4.96077 -2.73978,0 -4.96077,-2.22097 -4.96077,-4.96077 0,-2.73979 2.22099,-4.96077 4.96077,-4.96077 2.73978,0 4.96077,2.22098 4.96077,4.96077 z"
       style="fill:#003b59;fill-opacity:1;fill-rule:nonzero;stroke:#ffffff;stroke-width:1.99255;stroke-linecap:butt;stroke-linejoin:round;stroke-miterlimit:10;stroke-dasharray:none;stroke-opacity:1"
       transform="matrix(1.3333333,0,0,-1.3333333,229.41067,197.572)" />
    <path
       id="path25"
       d="m 3.2557,96.36044 h -6.5114 c -0.55024,0 -0.99628,-0.44604 -0.99628,-0.99627 v -6.51145 c 0,-0.55023 0.44604,-0.99627 0.99628,-0.99627 h 6.5114 c 0.55024,0 0.99628,0.44604 0.99628,0.99627 v 6.51145 c 0,0.55023 -0.44604,0.99627 -0.99628,0.99627 z"
       style="fill:#ffc285;fill-opacity:1;fill-rule:nonzero;stroke:#000000;stroke-width:0.74721;stroke-linecap:butt;stroke-linejoin:round;stroke-miterlimit:10;stroke-dasharray:none;stroke-opacity:1"
       transform="matrix(1.3333333,0,0,-1.3333333,229.41067,197.572)" />
    <path
       id="path26"
       d="m -17.15411,96.36044 h -6.51145 c -0.55023,0 -0.99627,-0.44604 -0.99627,-0.99627 v -6.51145 c 0,-0.55023 0.44604,-0.99627 0.99627,-0.99627 h 6.51145 c 0.55023,0 0.99627,0.44604 0.99627,0.99627 v 6.51145 c 0,0.55023 -0.44604,0.99627 -0.99627,0.99627 z"
       style="fill:#ffe0c2;fill-opacity:1;fill-rule:nonzero;stroke:#000000;stroke-width:0.74721;stroke-linecap:butt;stroke-linejoin:round;stroke-miterlimit:10;stroke-dasharray:none;stroke-opacity:1"
       transform="matrix(1.3333333,0,0,-1.3333333,229.41067,197.572)" />
    <path
       id="path27"
       d="m 23.66556,96.36044 h -6.51145 c -0.55023,0 -0.99627,-0.44604 -0.99627,-0.99627 v -6.51145 c 0,-0.55023 0.44604,-0.99627 0.99627,-0.99627 h 6.51145 c 0.55023,0 0.99627,0.44604 0.99627,0.99627 v 6.51145 c 0,0.55023 -0.44604,0.99627 -0.99627,0.99627 z"
       style="fill:#ffe0c2;fill-opacity:1;fill-rule:nonzero;stroke:#000000;stroke-width:0.74721;stroke-linecap:butt;stroke-linejoin:round;stroke-miterlimit:10;stroke-dasharray:none;stroke-opacity:1"
       transform="matrix(1.3333333,0,0,-1.3333333,229.41067,197.572)" />
    <path
       id="path28"
       d="m 12.46426,131.22688 h -24.92852 c -1.10047,0 -1.99256,-0.89207 -1.99256,-1.99255 v -6.21967 c 0,-1.10048 0.89209,-1.99255 1.99256,-1.99255 h 24.92852 c 1.10047,0 1.99256,0.89207 1.99256,1.99255 v 6.21967 c 0,1.10048 -0.89209,1.99255 -1.99256,1.99255 z"
       style="fill:#feac5c;fill-opacity:1;fill-rule:nonzero;stroke:#000000;stroke-width:0.74721;stroke-linecap:butt;stroke-linejoin:round;stroke-miterlimit:10;stroke-dasharray:none;stroke-opacity:1"
       transform="matrix(1.3333333,0,0,-1.3333333,229.41067,197.572)" />
    <path
       id="path29"
       d="M -10.92287,128.01552 H 10.92287"
       style="fill:none;stroke:#000000;stroke-width:1.1208;stroke-linecap:butt;stroke-linejoin:round;stroke-miterlimit:10;stroke-dasharray:none;stroke-opacity:1"
       transform="matrix(1.3333333,0,0,-1.3333333,229.41067,197.572)" />
    <path
       id="path30"
       d="M -10.92287,124.3513 H 10.92287"
       style="fill:none;stroke:#000000;stroke-width:1.1208;stroke-linecap:butt;stroke-linejoin:round;stroke-miterlimit:10;stroke-dasharray:none;stroke-opacity:1"
       transform="matrix(1.3333333,0,0,-1.3333333,229.41067,197.572)" />
    <path
       id="path31"
       d="m 20.41425,96.80656 v 25.33878 c 0,2.20094 -1.78417,3.98511 -3.98511,3.98511 h -1.52115"
       style="fill:none;stroke:#000000;stroke-width:0.3985;stroke-linecap:butt;stroke-linejoin:round;stroke-miterlimit:10;stroke-dasharray:none;stroke-opacity:1"
       transform="matrix(1.3333333,0,0,-1.3333333,229.41067,197.572)" />
    <path
       id="path32"
       d="m -20.41425,96.80656 v 25.33878 c 0,2.20094 1.78417,3.98511 3.98511,3.98511 h 1.52115"
       style="fill:none;stroke:#000000;stroke-width:0.3985;stroke-linecap:butt;stroke-linejoin:round;stroke-miterlimit:10;stroke-dasharray:none;stroke-opacity:1"
       transform="matrix(1.3333333,0,0,-1.3333333,229.41067,197.572)" />
    <path
       id="path33"
       d="m 0,96.80656 v 23.76961"
       style="fill:none;stroke:#000000;stroke-width:0.3985;stroke-linecap:butt;stroke-linejoin:round;stroke-miterlimit:10;stroke-dasharray:none;stroke-opacity:1"
       transform="matrix(1.3333333,0,0,-1.3333333,229.41067,197.572)" />
    <path
       id="path34"
       d="m -0.70447,113.40475 -4.60425,-4.60425 c -0.38906,-0.38906 -0.38906,-1.01988 0,-1.40894 l 4.60425,-4.60425 c 0.38907,-0.38907 1.01987,-0.38907 1.40894,0 l 4.60425,4.60425 c 0.38906,0.38906 0.38906,1.01988 0,1.40894 l -4.60425,4.60425 c -0.38907,0.38907 -1.01987,0.38907 -1.40894,0 z"
       style="fill:#66ff66;fill-opacity:1;fill-rule:nonzero;stroke:#000000;stroke-width:0.74721;stroke-linecap:butt;stroke-linejoin:round;stroke-miterlimit:10;stroke-dasharray:none;stroke-opacity:1"
       transform="matrix(1.3333333,0,0,-1.3333333,229.41067,197.572)" />
    <path
       id="path35"
       d="m -21.1143,113.40475 -4.60427,-4.60425 c -0.38905,-0.38906 -0.38905,-1.01988 0,-1.40894 l 4.60427,-4.60425 c 0.38905,-0.38907 1.01988,-0.38907 1.40895,0 l 4.60425,4.60425 c 0.38906,0.38906 0.38906,1.01988 0,1.40894 l -4.60425,4.60425 c -0.38907,0.38907 -1.0199,0.38907 -1.40895,0 z"
       style="fill:#b3ffb3;fill-opacity:1;fill-rule:nonzero;stroke:#000000;stroke-width:0.74721;stroke-linecap:butt;stroke-linejoin:round;stroke-miterlimit:10;stroke-dasharray:none;stroke-opacity:1"
       transform="matrix(1.3333333,0,0,-1.3333333,229.41067,197.572)" />
    <path
       id="path36"
       d="M 19.70535,113.40475 15.1011,108.8005 c -0.38906,-0.38906 -0.38906,-1.01988 0,-1.40894 l 4.60425,-4.60425 c 0.38907,-0.38907 1.0199,-0.38907 1.40895,0 l 4.60427,4.60425 c 0.38905,0.38906 0.38905,1.01988 0,1.40894 l -4.60427,4.60425 c -0.38905,0.38907 -1.01988,0.38907 -1.40895,0 z"
       style="fill:#b3ffb3;fill-opacity:1;fill-rule:nonzero;stroke:#000000;stroke-width:0.74721;stroke-linecap:butt;stroke-linejoin:round;stroke-miterlimit:10;stroke-dasharray:none;stroke-opacity:1"
       transform="matrix(1.3333333,0,0,-1.3333333,229.41067,197.572)" />
    <path
       id="path37"
       d="m 72.35385,-77.57452 c 0,-1.43045 9.51843,-2.59006 21.26032,-2.59006 11.74189,0 21.26031,1.15961 21.26031,2.59006 v 13.52894 c 0,1.43047 -9.51842,2.59008 -21.26031,2.59008 -11.74189,0 -21.26032,-1.15961 -21.26032,-2.59008 z m 0,13.52894 c 0,-1.43046 9.51843,-2.59007 21.26032,-2.59007 11.74189,0 21.26031,1.15961 21.26031,2.59007"
       style="fill:#80b1ca;fill-opacity:1;fill-rule:nonzero;stroke:#000000;stroke-width:0.69739;stroke-linecap:butt;stroke-linejoin:round;stroke-miterlimit:10;stroke-dasharray:none;stroke-opacity:1"
       transform="matrix(1.3333333,0,0,-1.3333333,229.41067,197.572)" />
    <path
       id="path38"
       d="m 72.35353,-60.99751 c 0,-1.43047 9.51843,-2.59008 21.26032,-2.59008 11.74189,0 21.26031,1.15961 21.26031,2.59008 v 13.52893 c 0,1.43046 -9.51842,2.59007 -21.26031,2.59007 -11.74189,0 -21.26032,-1.15961 -21.26032,-2.59007 z m 0,13.52893 c 0,-1.43047 9.51843,-2.59007 21.26032,-2.59007 11.74189,0 21.26031,1.1596 21.26031,2.59007"
       style="fill:#b3d0df;fill-opacity:1;fill-rule:nonzero;stroke:#000000;stroke-width:0.69739;stroke-linecap:butt;stroke-linejoin:round;stroke-miterlimit:10;stroke-dasharray:none;stroke-opacity:1"
       transform="matrix(1.3333333,0,0,-1.3333333,229.41067,197.572)" />
    <path
       id="path39"
       d="m 72.35321,-44.41956 c 0,-1.43044 9.51843,-2.59005 21.26032,-2.59005 11.74189,0 21.26033,1.15961 21.26033,2.59005 v 13.52895 c 0,1.43047 -9.51844,2.59007 -21.26033,2.59007 -11.74189,0 -21.26032,-1.1596 -21.26032,-2.59007 z m 0,13.52895 c 0,-1.43047 9.51843,-2.59007 21.26032,-2.59007 11.74189,0 21.26033,1.1596 21.26033,2.59007"
       style="fill:#e6eff4;fill-opacity:1;fill-rule:nonzero;stroke:#000000;stroke-width:0.69739;stroke-linecap:butt;stroke-linejoin:round;stroke-miterlimit:10;stroke-dasharray:none;stroke-opacity:1"
       transform="matrix(1.3333333,0,0,-1.3333333,229.41067,197.572)" />
    <path
       id="path40"
       d="m 79.08618,-39.6001 c 0,0.99042 -0.80288,1.79332 -1.7933,1.79332 -0.99044,0 -1.79332,-0.8029 -1.79332,-1.79332 0,-0.99042 0.80288,-1.79332 1.79332,-1.79332 0.99042,0 1.7933,0.8029 1.7933,1.79332 z"
       style="fill:#00314a;fill-opacity:1;fill-rule:nonzero;stroke:none"
       transform="matrix(1.3333333,0,0,-1.3333333,229.41067,197.572)" />
    <path
       id="path41"
       d="m 79.08652,-56.17905 c 0,0.99044 -0.80289,1.79332 -1.79332,1.79332 -0.99042,0 -1.7933,-0.80288 -1.7933,-1.79332 0,-0.99041 0.80288,-1.7933 1.7933,-1.7933 0.99043,0 1.79332,0.80289 1.79332,1.7933 z"
       style="fill:#00314a;fill-opacity:1;fill-rule:nonzero;stroke:none"
       transform="matrix(1.3333333,0,0,-1.3333333,229.41067,197.572)" />
    <path
       id="path42"
       d="m 79.08684,-72.75699 c 0,0.99042 -0.80289,1.79331 -1.79332,1.79331 -0.99042,0 -1.79331,-0.80289 -1.79331,-1.79331 0,-0.99043 0.80289,-1.79332 1.79331,-1.79332 0.99043,0 1.79332,0.80289 1.79332,1.79332 z"
       style="fill:#00314a;fill-opacity:1;fill-rule:nonzero;stroke:none"
       transform="matrix(1.3333333,0,0,-1.3333333,229.41067,197.572)" />
    <path
       id="path43"
       d="m 120.02916,-66.75192 c 0,8.45414 -6.85327,15.30742 -15.30742,15.30742 -8.45416,0 -15.30742,-6.85328 -15.30742,-15.30742 0,-8.45417 6.85326,-15.30742 15.30742,-15.30742 8.45415,0 15.30742,6.85325 15.30742,15.30742 z"
       style="fill:#ffffff;fill-opacity:1;fill-rule:nonzero;stroke:#4c4c4c;stroke-width:0.99628;stroke-linecap:butt;stroke-linejoin:round;stroke-miterlimit:10;stroke-dasharray:none;stroke-opacity:1"
       transform="matrix(1.3333333,0,0,-1.3333333,229.41067,197.572)" />
    <path
       id="path44"
       d="m 103.49788,-75.01749 -0.71442,5.71471 -5.20443,6.73523 h 14.28672 l -5.20442,-6.73523 -0.71442,-5.71471 z"
       style="fill:#f4efee;fill-opacity:1;fill-rule:nonzero;stroke:#000000;stroke-width:0.49814;stroke-linecap:butt;stroke-linejoin:round;stroke-miterlimit:10;stroke-dasharray:none;stroke-opacity:1"
       transform="matrix(1.3333333,0,0,-1.3333333,229.41067,197.572)" />
    <path
       id="path45"
       d="m 102.78346,-69.30278 h 2.75533"
       style="fill:#f4efee;fill-opacity:1;fill-rule:nonzero;stroke:#000000;stroke-width:0.49814;stroke-linecap:butt;stroke-linejoin:round;stroke-miterlimit:10;stroke-dasharray:none;stroke-opacity:1"
       transform="matrix(1.3333333,0,0,-1.3333333,229.41067,197.572)" />
    <path
       id="path46"
       d="m 106.3552,-67.66997 2.55122,4.08187"
       style="fill:#f4efee;fill-opacity:1;fill-rule:nonzero;stroke:#000000;stroke-width:0.49814;stroke-linecap:butt;stroke-linejoin:round;stroke-miterlimit:10;stroke-dasharray:none;stroke-opacity:1"
       transform="matrix(1.3333333,0,0,-1.3333333,229.41067,197.572)" />
    <path
       id="path47"
       d="m 112.38814,-60.7525 h -15.3315 c -0.2751,0 -0.49814,-0.22304 -0.49814,-0.49814 v -0.79701 c 0,-0.27512 0.22304,-0.49814 0.49814,-0.49814 h 15.3315 c 0.27511,0 0.49814,0.22302 0.49814,0.49814 v 0.79701 c 0,0.2751 -0.22303,0.49814 -0.49814,0.49814 z"
       style="fill:#f4efee;fill-opacity:1;fill-rule:nonzero;stroke:#000000;stroke-width:0.49814;stroke-linecap:butt;stroke-linejoin:round;stroke-miterlimit:10;stroke-dasharray:none;stroke-opacity:1"
       transform="matrix(1.3333333,0,0,-1.3333333,229.41067,197.572)" />
    <path
       id="path48"
       d="m 99.61996,-60.42111 1.61396,1.61403 h -1.00873 v 3.4884 h -1.21043 v -3.4884 h -1.00873 z"
       style="fill:#00ff00;fill-opacity:1;fill-rule:nonzero;stroke:#000000;stroke-width:0.3985;stroke-linecap:butt;stroke-linejoin:round;stroke-miterlimit:10;stroke-dasharray:none;stroke-opacity:1"
       transform="matrix(1.3333333,0,0,-1.3333333,229.41067,197.572)" />
    <path
       id="path49"
       d="m 104.7224,-60.42111 1.61393,1.61403 h -1.00871 v 3.4884 h -1.21045 v -3.4884 h -1.00873 z"
       style="fill:#00ff00;fill-opacity:1;fill-rule:nonzero;stroke:#000000;stroke-width:0.3985;stroke-linecap:butt;stroke-linejoin:round;stroke-miterlimit:10;stroke-dasharray:none;stroke-opacity:1"
       transform="matrix(1.3333333,0,0,-1.3333333,229.41067,197.572)" />
    <path
       id="path50"
       d="m 109.82481,-60.42111 1.61396,1.61403 h -1.00873 v 3.4884 h -1.21045 v -3.4884 h -1.00873 z"
       style="fill:#00ff00;fill-opacity:1;fill-rule:nonzero;stroke:#000000;stroke-width:0.3985;stroke-linecap:butt;stroke-linejoin:round;stroke-miterlimit:10;stroke-dasharray:none;stroke-opacity:1"
       transform="matrix(1.3333333,0,0,-1.3333333,229.41067,197.572)" />
    <path
       id="path51"
       d="m 104.7224,-80.89807 1.97258,1.97267 h -1.23287 v 3.12975 h -1.47943 v -3.12975 h -1.23286 z"
       style="fill:#00ff00;fill-opacity:1;fill-rule:nonzero;stroke:#000000;stroke-width:0.3985;stroke-linecap:butt;stroke-linejoin:round;stroke-miterlimit:10;stroke-dasharray:none;stroke-opacity:1"
       transform="matrix(1.3333333,0,0,-1.3333333,229.41067,197.572)" />
    <path
       id="path52"
       d="m -77.5242,-35.96548 h -32.17995 c -1.10046,0 -1.99255,-0.89209 -1.99255,-1.99256 v -32.17995 c 0,-1.10046 0.89209,-1.99255 1.99255,-1.99255 h 32.17995 c 1.10048,0 1.99255,0.89209 1.99255,1.99255 v 32.17995 c 0,1.10047 -0.89207,1.99256 -1.99255,1.99256 z"
       style="fill:#8f7874;fill-opacity:1;fill-rule:nonzero;stroke:none"
       transform="matrix(1.3333333,0,0,-1.3333333,229.41067,197.572)" />
    <path
       id="path53"
       d="m -78.81938,-39.25322 h -29.58959 V -68.8428 h 29.58959 z"
       style="fill:#ffffff;fill-opacity:1;fill-rule:nonzero;stroke:none"
       transform="matrix(1.3333333,0,0,-1.3333333,229.41067,197.572)" />
    <path
       id="path54"
       d="m -81.55916,-41.993 h -24.11001 v -24.11001 h 24.11001 z"
       style="fill:#d2c9c7;fill-opacity:1;fill-rule:nonzero;stroke:none"
       transform="matrix(1.3333333,0,0,-1.3333333,229.41067,197.572)" />
    <path
       id="path55"
       d="M 7.9046165,-6.0082528 C 7.5637074,-7.9258665 6.4770597,-8.8633665 4.559446,-8.8633665 c -1.171875,0 -2.1306818,0.3835228 -2.7698863,1.0866478 -0.7883523,0.8735795 -1.21448868,2.109375 -1.21448868,3.515625 0,1.4488636 0.44744318,2.6633522 1.25710228,3.51562495 0.6818182,0.703125 1.5340909,1.02272727 2.6633523,1.02272727 2.1306818,0 3.3238636,-1.15056818 3.6008522,-3.45170452 H 6.9458097 c -0.1065341,0.5965909 -0.2130682,1.0014204 -0.4048296,1.3423295 -0.3409091,0.7244318 -1.0866477,1.12926139 -2.0241477,1.12926139 -1.7258523,0 -2.8338068,-1.38494319 -2.8338068,-3.55823859 0,-2.237216 1.0440341,-3.6221591 2.7485795,-3.6221591 0.703125,0 1.3636364,0.2130681 1.7045455,0.5539772 0.3409091,0.2982955 0.5113636,0.6818182 0.6392045,1.3210228 z m 2.9190345,2.3224431 h 2.748579 c 0.681818,0 1.214489,-0.2130681 1.683239,-0.6392045 0.511363,-0.46875 0.745738,-1.0227273 0.745738,-1.8323864 0,-1.640625 -0.958806,-2.5568181 -2.684659,-2.5568181 H 9.715696 V 2.6988636e-4 h 1.107955 z m 0,-0.9801136 v -3.0681818 h 2.322443 c 1.065341,0 1.704545,0.5752841 1.704545,1.5340909 0,0.9588068 -0.639204,1.5340909 -1.704545,1.5340909 z m 12.384588,-4.0482954 v 6.1150568 c 0,1.171875 -0.852273,1.89630679 -2.258523,1.89630679 -0.639205,0 -1.171875,-0.14914773 -1.576705,-0.44744319 -0.447443,-0.3409091 -0.639204,-0.7883523 -0.639204,-1.4488636 v -6.1150568 h -1.107955 v 6.1150568 c 0,1.76846588 1.257103,2.87642042 3.323864,2.87642042 2.045454,0 3.366477,-1.12926136 3.366477,-2.87642042 v -6.1150568 z m 0,0"
       style="fill:#000000;fill-opacity:1;fill-rule:nonzero;stroke:none"
       aria-label="CPU"
       transform="matrix(0.73333333,0,0,0.73333333,95.34,272.76933)" />
    <path
       id="path56"
       d="m -107.75244,-26.53935 h -1.64385 v -8.21932 h 1.64385 z"
       style="fill:#8f7874;fill-opacity:1;fill-rule:nonzero;stroke:none"
       transform="matrix(1.3333333,0,0,-1.3333333,229.41067,197.572)" />
    <path
       id="path57"
       d="m -101.99875,-26.53935 h -1.64385 v -8.21932 h 1.64385 z"
       style="fill:#8f7874;fill-opacity:1;fill-rule:nonzero;stroke:none"
       transform="matrix(1.3333333,0,0,-1.3333333,229.41067,197.572)" />
    <path
       id="path58"
       d="m -96.24446,-26.53935 h -1.64384 v -8.21932 h 1.64384 z"
       style="fill:#8f7874;fill-opacity:1;fill-rule:nonzero;stroke:none"
       transform="matrix(1.3333333,0,0,-1.3333333,229.41067,197.572)" />
    <path
       id="path59"
       d="m -90.49077,-26.53935 h -1.64386 v -8.21932 h 1.64386 z"
       style="fill:#8f7874;fill-opacity:1;fill-rule:nonzero;stroke:none"
       transform="matrix(1.3333333,0,0,-1.3333333,229.41067,197.572)" />
    <path
       id="path60"
       d="m -84.7365,-26.53935 h -1.64384 v -8.21932 h 1.64384 z"
       style="fill:#8f7874;fill-opacity:1;fill-rule:nonzero;stroke:none"
       transform="matrix(1.3333333,0,0,-1.3333333,229.41067,197.572)" />
    <path
       id="path61"
       d="m -79.36617,-26.53935 h -1.64384 v -8.21932 h 1.64384 z"
       style="fill:#8f7874;fill-opacity:1;fill-rule:nonzero;stroke:none"
       transform="matrix(1.3333333,0,0,-1.3333333,229.41067,197.572)" />
    <path
       id="path62"
       d="m -107.75244,-73.33734 h -1.64385 v -8.21932 h 1.64385 z"
       style="fill:#8f7874;fill-opacity:1;fill-rule:nonzero;stroke:none"
       transform="matrix(1.3333333,0,0,-1.3333333,229.41067,197.572)" />
    <path
       id="path63"
       d="m -101.99875,-73.33734 h -1.64385 v -8.21932 h 1.64385 z"
       style="fill:#8f7874;fill-opacity:1;fill-rule:nonzero;stroke:none"
       transform="matrix(1.3333333,0,0,-1.3333333,229.41067,197.572)" />
    <path
       id="path64"
       d="m -96.24446,-73.33734 h -1.64384 v -8.21932 h 1.64384 z"
       style="fill:#8f7874;fill-opacity:1;fill-rule:nonzero;stroke:none"
       transform="matrix(1.3333333,0,0,-1.3333333,229.41067,197.572)" />
    <path
       id="path65"
       d="m -90.49077,-73.33734 h -1.64386 v -8.21932 h 1.64386 z"
       style="fill:#8f7874;fill-opacity:1;fill-rule:nonzero;stroke:none"
       transform="matrix(1.3333333,0,0,-1.3333333,229.41067,197.572)" />
    <path
       id="path66"
       d="m -84.7365,-73.33734 h -1.64384 v -8.21932 h 1.64384 z"
       style="fill:#8f7874;fill-opacity:1;fill-rule:nonzero;stroke:none"
       transform="matrix(1.3333333,0,0,-1.3333333,229.41067,197.572)" />
    <path
       id="path67"
       d="m -79.36617,-73.33734 h -1.64384 v -8.21932 h 1.64384 z"
       style="fill:#8f7874;fill-opacity:1;fill-rule:nonzero;stroke:none"
       transform="matrix(1.3333333,0,0,-1.3333333,229.41067,197.572)" />
    <path
       id="path68"
       d="m -112.90352,-38.2659 h -8.21931 v -1.64384 h 8.21931 z"
       style="fill:#8f7874;fill-opacity:1;fill-rule:nonzero;stroke:none"
       transform="matrix(1.3333333,0,0,-1.3333333,229.41067,197.572)" />
    <path
       id="path69"
       d="m -112.90352,-44.01959 h -8.21931 v -1.64385 h 8.21931 z"
       style="fill:#8f7874;fill-opacity:1;fill-rule:nonzero;stroke:none"
       transform="matrix(1.3333333,0,0,-1.3333333,229.41067,197.572)" />
    <path
       id="path70"
       d="m -112.90352,-49.77386 h -8.21931 v -1.64386 h 8.21931 z"
       style="fill:#8f7874;fill-opacity:1;fill-rule:nonzero;stroke:none"
       transform="matrix(1.3333333,0,0,-1.3333333,229.41067,197.572)" />
    <path
       id="path71"
       d="m -112.90352,-55.52756 h -8.21931 v -1.64386 h 8.21931 z"
       style="fill:#8f7874;fill-opacity:1;fill-rule:nonzero;stroke:none"
       transform="matrix(1.3333333,0,0,-1.3333333,229.41067,197.572)" />
    <path
       id="path72"
       d="m -112.90352,-61.28183 h -8.21931 v -1.64384 h 8.21931 z"
       style="fill:#8f7874;fill-opacity:1;fill-rule:nonzero;stroke:none"
       transform="matrix(1.3333333,0,0,-1.3333333,229.41067,197.572)" />
    <path
       id="path73"
       d="m -112.90352,-66.65216 h -8.21931 V -68.296 h 8.21931 z"
       style="fill:#8f7874;fill-opacity:1;fill-rule:nonzero;stroke:none"
       transform="matrix(1.3333333,0,0,-1.3333333,229.41067,197.572)" />
    <path
       id="path74"
       d="m -66.1055,-38.2659 h -8.21931 v -1.64384 h 8.21931 z"
       style="fill:#8f7874;fill-opacity:1;fill-rule:nonzero;stroke:none"
       transform="matrix(1.3333333,0,0,-1.3333333,229.41067,197.572)" />
    <path
       id="path75"
       d="m -66.1055,-44.01959 h -8.21931 v -1.64385 h 8.21931 z"
       style="fill:#8f7874;fill-opacity:1;fill-rule:nonzero;stroke:none"
       transform="matrix(1.3333333,0,0,-1.3333333,229.41067,197.572)" />
    <path
       id="path76"
       d="m -66.1055,-49.77386 h -8.21931 v -1.64386 h 8.21931 z"
       style="fill:#8f7874;fill-opacity:1;fill-rule:nonzero;stroke:none"
       transform="matrix(1.3333333,0,0,-1.3333333,229.41067,197.572)" />
    <path
       id="path77"
       d="m -66.1055,-55.52756 h -8.21931 v -1.64386 h 8.21931 z"
       style="fill:#8f7874;fill-opacity:1;fill-rule:nonzero;stroke:none"
       transform="matrix(1.3333333,0,0,-1.3333333,229.41067,197.572)" />
    <path
       id="path78"
       d="m -66.1055,-61.28183 h -8.21931 v -1.64384 h 8.21931 z"
       style="fill:#8f7874;fill-opacity:1;fill-rule:nonzero;stroke:none"
       transform="matrix(1.3333333,0,0,-1.3333333,229.41067,197.572)" />
    <path
       id="path79"
       d="m -66.1055,-66.65216 h -8.21931 V -68.296 h 8.21931 z"
       style="fill:#8f7874;fill-opacity:1;fill-rule:nonzero;stroke:none"
       transform="matrix(1.3333333,0,0,-1.3333333,229.41067,197.572)" />
    <path
       id="path80"
       d="M 57.4557,80.88538 C 80.9713,64.1862 96.07323,38.02826 98.77669,9.31267"
       style="fill:none;stroke:#99def9;stroke-width:6.97394;stroke-linecap:butt;stroke-linejoin:round;stroke-miterlimit:10;stroke-dasharray:none;stroke-opacity:1"
       transform="matrix(1.3333333,0,0,-1.3333333,229.41067,197.572)" />
    <path
       id="path81"
       d="M 7.79115,0 1.24535,4.85225 V 0 -4.85225 Z"
       style="fill:#99def9;fill-opacity:1;fill-rule:nonzero;stroke:#99def9;stroke-width:2.49069;stroke-linecap:butt;stroke-linejoin:miter;stroke-miterlimit:10;stroke-dasharray:none;stroke-opacity:1"
       transform="matrix(-1.1198667,-0.72354667,-0.72354667,1.1198667,306.71025,90.218013)" />
    <path
       id="path82"
       d="M 7.79115,0 1.24535,4.85225 V 0 -4.85225 Z"
       style="fill:#99def9;fill-opacity:1;fill-rule:nonzero;stroke:#99def9;stroke-width:2.49069;stroke-linecap:butt;stroke-linejoin:miter;stroke-miterlimit:10;stroke-dasharray:none;stroke-opacity:1"
       transform="matrix(0.06662667,1.3316267,1.3316267,-0.06662667,361.03195,184.30533)" />
    <path
       id="path83"
       d="m 41.32065,-90.20079 c -26.21991,-12.01518 -56.42444,-12.01476 -82.64409,0.0012"
       style="fill:none;stroke:#99def9;stroke-width:6.97394;stroke-linecap:butt;stroke-linejoin:round;stroke-miterlimit:10;stroke-dasharray:none;stroke-opacity:1"
       transform="matrix(1.3333333,0,0,-1.3333333,229.41067,197.572)" />
    <path
       id="path84"
       d="M 7.79115,0 1.24535,4.85225 V 0 -4.85225 Z"
       style="fill:#99def9;fill-opacity:1;fill-rule:nonzero;stroke:#99def9;stroke-width:2.49069;stroke-linecap:butt;stroke-linejoin:miter;stroke-miterlimit:10;stroke-dasharray:none;stroke-opacity:1"
       transform="matrix(1.18656,-0.60802667,-0.60802667,-1.18656,283.73175,318.19227)" />
    <path
       id="path85"
       d="M 7.79115,0 1.24535,4.85225 V 0 -4.85225 Z"
       style="fill:#99def9;fill-opacity:1;fill-rule:nonzero;stroke:#99def9;stroke-width:2.49069;stroke-linecap:butt;stroke-linejoin:miter;stroke-miterlimit:10;stroke-dasharray:none;stroke-opacity:1"
       transform="matrix(-1.1865467,-0.60806667,-0.60806667,1.1865467,175.08937,318.19264)" />
    <path
       id="path86"
       d="m -98.7764,9.31575 c 2.70435,28.71536 17.80701,54.87289 41.3232,71.57143"
       style="fill:none;stroke:#99def9;stroke-width:6.97394;stroke-linecap:butt;stroke-linejoin:round;stroke-miterlimit:10;stroke-dasharray:none;stroke-opacity:1"
       transform="matrix(1.3333333,0,0,-1.3333333,229.41067,197.572)" />
    <path
       id="path87"
       d="M 7.79115,0 1.24535,4.85225 V 0 -4.85225 Z"
       style="fill:#99def9;fill-opacity:1;fill-rule:nonzero;stroke:#99def9;stroke-width:2.49069;stroke-linecap:butt;stroke-linejoin:miter;stroke-miterlimit:10;stroke-dasharray:none;stroke-opacity:1"
       transform="matrix(-0.06666667,1.3316,1.3316,0.06666667,97.7898,184.30555)" />
    <path
       id="path88"
       d="M 7.79115,0 1.24535,4.85225 V 0 -4.85225 Z"
       style="fill:#99def9;fill-opacity:1;fill-rule:nonzero;stroke:#99def9;stroke-width:2.49069;stroke-linecap:butt;stroke-linejoin:miter;stroke-miterlimit:10;stroke-dasharray:none;stroke-opacity:1"
       transform="matrix(1.1198933,-0.72353333,-0.72353333,-1.1198933,152.11088,90.217813)" />
    <path
       id="path89"
       d="m 4.7455312,-4.1015 c 0,-1.1367187 -0.7851562,-1.8046875 -2.1210937,-1.8046875 -1.2773438,0 -2.0625,0.65625 -2.0625,1.7109375 0,0.703125 0.375,1.1484375 1.1367187,1.3476563 l 1.4414063,0.3867187 c 0.7265625,0.1875 1.0664062,0.4804688 1.0664062,0.9375 0,0.3164063 -0.1640625,0.6328125 -0.4101562,0.80859375 C 3.5619375,-0.5624375 3.1986562,-0.4686875 2.7299062,-0.4686875 2.0970937,-0.4686875 1.6635,-0.62103125 1.38225,-0.960875 1.1713125,-1.2069687 1.0775625,-1.4882187 1.0775625,-1.8515 H 0.38615625 c 0,0.5390625 0.10546875,0.890625 0.33984375,1.20703125 0.3984375,0.5390625 1.0664062,0.83203125 1.9453125,0.83203125 0.703125,0 1.265625,-0.1640625 1.640625,-0.4453125 0.3867187,-0.31640625 0.6328125,-0.8320312 0.6328125,-1.3359375 0,-0.7148437 -0.4453125,-1.2421875 -1.2304688,-1.453125 L 2.2494375,-3.44525 c -0.6914063,-0.1875 -0.9492188,-0.4101562 -0.9492188,-0.8554687 0,-0.5976563 0.515625,-0.984375 1.3007813,-0.984375 0.9257812,0 1.4414062,0.421875 1.4414062,1.1835937 z m 4.8369141,3.71484375 c -0.070312,0.0117188 -0.1054687,0.0117188 -0.140625,0.0117188 -0.234375,0 -0.3632812,-0.1171875 -0.3632812,-0.328125 V -3.1522811 c 0,-0.75 -0.5390625,-1.1484375 -1.5703125,-1.1484375 -0.609375,0 -1.1132813,0.1757812 -1.3828125,0.4921875 C 5.9261953,-3.5975937 5.8558828,-3.3515 5.8324453,-2.9413437 h 0.6679688 c 0.058594,-0.5039063 0.3632812,-0.7382813 0.984375,-0.7382813 0.5976562,0 0.9375,0.2226563 0.9375,0.6210938 V -2.88275 c 0,0.28125 -0.1757813,0.3984375 -0.703125,0.4570313 -0.9375,0.1171875 -1.078125,0.1523437 -1.3359375,0.2578125 -0.4804688,0.1992187 -0.7265625,0.5742187 -0.7265625,1.1132812 0,0.76171875 0.515625,1.2421875 1.3710937,1.2421875 0.515625,0 0.9375,-0.1875 1.4179688,-0.62109375 0.046875,0.421875 0.2460937,0.62109375 0.6796875,0.62109375 0.140625,0 0.234375,-0.0234375 0.4570312,-0.0703125 z M 8.4222891,-1.3124375 c 0,0.2226563 -0.070312,0.3515625 -0.2695313,0.5390625 -0.2695312,0.24609375 -0.5976562,0.375 -0.984375,0.375 -0.515625,0 -0.8203125,-0.24609375 -0.8203125,-0.6679687 0,-0.4453125 0.2929688,-0.6679688 0.9960938,-0.7617188 0.703125,-0.1054687 0.84375,-0.1289062 1.078125,-0.234375 z m 1.8867189,-2.859375 V 6.25e-5 h 0.667969 v -2.625 c 0,-0.5976562 0.433593,-1.0898437 0.972656,-1.0898437 0.503906,0 0.773437,0.3046875 0.773437,0.84375 V 6.25e-5 h 0.667969 v -2.625 c 0,-0.5976562 0.445313,-1.0898437 0.984375,-1.0898437 0.492188,0 0.773438,0.3164062 0.773438,0.84375 V 6.25e-5 h 0.667968 v -3.1289062 c 0,-0.75 -0.433593,-1.171875 -1.207031,-1.171875 -0.5625,0 -0.890625,0.1757812 -1.289062,0.6445312 -0.246094,-0.4453125 -0.574219,-0.6445312 -1.125,-0.6445312 -0.550782,0 -0.914063,0.2109375 -1.277344,0.7148437 v -0.5859375 z m 6.509765,5.90625 h 0.667969 v -2.16796875 c 0.351563,0.421875 0.738281,0.62109375 1.277344,0.62109375 1.078125,0 1.792969,-0.8671875 1.792969,-2.203125 0,-1.40625 -0.691407,-2.2851562 -1.792969,-2.2851562 -0.574219,0 -1.019531,0.2578125 -1.335938,0.75 v -0.6210938 h -0.609375 z m 1.828125,-5.4023437 c 0.738282,0 1.207032,0.6445312 1.207032,1.640625 0,0.9492187 -0.480469,1.59374995 -1.207032,1.59374995 -0.703125,0 -1.160156,-0.64453125 -1.160156,-1.61718745 0,-0.984375 0.457031,-1.6171875 1.160156,-1.6171875 z m 3.37793,-2.1445313 h -0.667969 v 5.8125 h 0.667969 z m 4.652344,3.9492188 c 0,-0.6445313 -0.04687,-1.0195313 -0.164063,-1.3359375 -0.28125,-0.6796875 -0.914062,-1.1015625 -1.699218,-1.1015625 -1.160157,0 -1.910157,0.9023437 -1.910157,2.2734375 0,1.3710937 0.726563,2.2148437 1.898438,2.2148437 0.960937,0 1.617187,-0.55078125 1.78125,-1.453125 h -0.667969 c -0.175781,0.55078125 -0.550781,0.83203125 -1.089844,0.83203125 -0.421875,0 -0.785156,-0.1875 -1.007812,-0.5390625 C 23.665453,-1.2069687 23.606859,-1.4530625 23.595141,-1.8632187 Z m -3.058594,-0.5390625 c 0.04687,-0.7734375 0.527344,-1.2773438 1.195313,-1.2773438 0.644531,0 1.148437,0.5390625 1.148437,1.2304688 0,0.011719 0,0.023437 0,0.046875 z m 7.069336,-0.2460938 h 3.164063 v -0.65625 h -3.164063 v -1.8515625 h 3.292969 v -0.65625 h -4.03125 v 5.8125 h 4.171875 v -0.65625 h -3.433594 z m 5.912109,-1.5234375 h -0.691406 v -0.65625 c 0,-0.28125 0.164063,-0.421875 0.46875,-0.421875 0.04687,0 0.08203,0 0.222656,0.011719 V -5.789 c -0.140625,-0.035156 -0.234375,-0.046875 -0.375,-0.046875 -0.609375,0 -0.972656,0.3515625 -0.972656,0.9492188 v 0.7148437 h -0.5625 V -3.63275 h 0.5625 V 6.25e-5 h 0.65625 V -3.63275 h 0.691406 z m 2.170899,0 h -0.691406 v -0.65625 c 0,-0.28125 0.164062,-0.421875 0.46875,-0.421875 0.04687,0 0.07031,0 0.222656,0.011719 V -5.789 c -0.152344,-0.035156 -0.234375,-0.046875 -0.375,-0.046875 -0.609375,0 -0.972656,0.3515625 -0.972656,0.9492188 v 0.7148437 h -0.5625 V -3.63275 h 0.5625 V 6.25e-5 h 0.65625 V -3.63275 h 0.691406 z m 1.464844,0 h -0.65625 V 6.25e-5 h 0.65625 z m 0,-1.640625 h -0.65625 v 0.84375 h 0.65625 z m 4.265625,3.0351563 c -0.02344,-0.3984375 -0.117188,-0.6679688 -0.28125,-0.890625 -0.28125,-0.3984375 -0.785157,-0.6328125 -1.359375,-0.6328125 -1.125,0 -1.863282,0.9023437 -1.863282,2.2851562 0,1.34765625 0.714844,2.203125 1.851563,2.203125 0.996094,0 1.628906,-0.59765625 1.699219,-1.6171875 h -0.667969 c -0.105469,0.66796875 -0.457031,0.99609375 -1.019531,0.99609375 -0.726563,0 -1.171875,-0.59765625 -1.171875,-1.58203125 0,-1.0429687 0.433593,-1.6640625 1.160156,-1.6640625 0.550781,0 0.902344,0.328125 0.984375,0.9023438 z m 1.429687,-1.3945313 h -0.65625 V 6.25e-5 h 0.65625 z m 0,-1.640625 h -0.667969 v 0.84375 h 0.667969 z m 4.664063,3.9492188 c 0,-0.6445313 -0.04687,-1.0195313 -0.164063,-1.3359375 -0.28125,-0.6796875 -0.914062,-1.1015625 -1.699219,-1.1015625 -1.160156,0 -1.910156,0.9023437 -1.910156,2.2734375 0,1.3710937 0.726563,2.2148437 1.898438,2.2148437 0.960937,0 1.617187,-0.55078125 1.78125,-1.453125 h -0.667969 c -0.175781,0.55078125 -0.550781,0.83203125 -1.089844,0.83203125 -0.421875,0 -0.785156,-0.1875 -1.007812,-0.5390625 C 47.583422,-1.2069687 47.524828,-1.4530625 47.513109,-1.8632187 Z m -3.058594,-0.5390625 c 0.04687,-0.7734375 0.527344,-1.2773438 1.195312,-1.2773438 0.644532,0 1.148438,0.5390625 1.148438,1.2304688 0,0.011719 0,0.023437 0,0.046875 z m 3.963867,-1.7695313 V 6.25e-5 h 0.667969 v -2.3085937 c 0,-0.84375 0.445312,-1.40625 1.125,-1.40625 0.527344,0 0.867187,0.3164062 0.867187,0.8203125 V 6.25e-5 h 0.65625 v -3.1523437 c 0,-0.6914063 -0.515625,-1.1484375 -1.324218,-1.1484375 -0.621094,0 -1.019532,0.2460937 -1.382813,0.8320312 v -0.703125 z m 7.617188,1.3945313 c -0.02344,-0.3984375 -0.117188,-0.6679688 -0.28125,-0.890625 -0.28125,-0.3984375 -0.785157,-0.6328125 -1.359375,-0.6328125 -1.125,0 -1.863282,0.9023437 -1.863282,2.2851562 0,1.34765625 0.714844,2.203125 1.851563,2.203125 0.996094,0 1.628906,-0.59765625 1.699219,-1.6171875 h -0.667969 c -0.105469,0.66796875 -0.457031,0.99609375 -1.019531,0.99609375 -0.726563,0 -1.171875,-0.59765625 -1.171875,-1.58203125 0,-1.0429687 0.433593,-1.6640625 1.160156,-1.6640625 0.550781,0 0.902344,0.328125 0.984375,0.9023438 z M 62.445727,-4.1718125 61.28557,-0.92571875 60.219164,-4.1718125 H 59.516039 L 60.922289,0.01178125 60.664477,0.67975 c -0.105469,0.29296875 -0.257813,0.3984375 -0.527344,0.3984375 -0.105469,0 -0.210938,-0.011719 -0.351563,-0.046875 v 0.5976563 c 0.128907,0.082031 0.269532,0.1054687 0.445313,0.1054687 0.210937,0 0.445312,-0.070312 0.621094,-0.1992187 0.210937,-0.1523438 0.328125,-0.328125 0.457031,-0.65625005 L 63.16057,-4.1718125 Z m 0,0"
       style="fill:#000000;fill-opacity:1;fill-rule:nonzero;stroke:none"
       aria-label="SampleEffciency"
       transform="matrix(1.3333333,0,0,1.3333333,382.032,134.21867)" />
    <path
       id="path90"
       d="m 114.26874,61.14487 c -3.80315,-8.15583 -3.80315,-14.92009 0,-23.07593"
       style="fill:none;stroke:#bf80bf;stroke-width:1.99255;stroke-linecap:butt;stroke-linejoin:round;stroke-miterlimit:10;stroke-dasharray:none;stroke-opacity:1"
       transform="matrix(1.3333333,0,0,-1.3333333,229.41067,197.572)" />
    <path
       id="path91"
       d="m 90.20729,49.6069 21.20906,-1e-5"
       style="fill:none;stroke:#b366b3;stroke-width:1.49442;stroke-linecap:butt;stroke-linejoin:round;stroke-miterlimit:10;stroke-dasharray:none;stroke-opacity:1"
       transform="matrix(1.3333333,0,0,-1.3333333,229.41067,197.572)" />
    <path
       id="path92"
       d="M 7.77612,0 2.43257,2.77069 0.65138,0 2.43257,-2.77069 Z"
       style="fill:#ffffff;fill-opacity:1;fill-rule:nonzero;stroke:#b366b3;stroke-width:1.0959;stroke-linecap:butt;stroke-linejoin:round;stroke-miterlimit:10;stroke-dasharray:none;stroke-opacity:1"
       transform="matrix(-1.3333333,0,0,1.3333333,351.08692,131.42947)" />
    <path
       id="path93"
       d="m 4.7447891,-4.1022969 c 0,-1.1367187 -0.7851563,-1.8046875 -2.1210938,-1.8046875 -1.2773437,0 -2.06249999,0.65625 -2.06249999,1.7109375 0,0.703125 0.375,1.1484375 1.13671879,1.3476563 l 1.4414062,0.3867187 c 0.7265625,0.1875 1.0664063,0.4804688 1.0664063,0.9375 0,0.3164063 -0.1640625,0.63281253 -0.4101563,0.80859378 -0.234375,0.15234375 -0.5976562,0.24609375 -1.0664062,0.24609375 -0.6328125,0 -1.0664063,-0.15234375 -1.3476563,-0.4921875 C 1.1705703,-1.2077656 1.0768203,-1.4890156 1.0768203,-1.8522969 H 0.38541406 c 0,0.5390625 0.10546875,0.89062503 0.33984375,1.20703128 0.39843749,0.5390625 1.06640629,0.83203125 1.94531249,0.83203125 0.703125,0 1.265625,-0.1640625 1.640625,-0.4453125 0.3867188,-0.31640625 0.6328125,-0.83203123 0.6328125,-1.33593753 0,-0.7148437 -0.4453125,-1.2421875 -1.2304687,-1.453125 L 2.2486953,-3.4460469 c -0.6914062,-0.1875 -0.9492187,-0.4101562 -0.9492187,-0.8554687 0,-0.5976563 0.515625,-0.984375 1.3007812,-0.984375 0.9257813,0 1.4414063,0.421875 1.4414063,1.1835937 z m 4.836914,3.71484378 c -0.070312,0.0117188 -0.1054687,0.0117188 -0.140625,0.0117188 -0.234375,0 -0.3632812,-0.1171875 -0.3632812,-0.328125 V -3.1530781 c 0,-0.75 -0.5390625,-1.1484375 -1.5703125,-1.1484375 -0.609375,0 -1.1132813,0.1757812 -1.3828125,0.4921875 -0.1992188,0.2109375 -0.2695313,0.4570312 -0.2929688,0.8671875 h 0.6679688 c 0.058594,-0.5039063 0.3632812,-0.7382813 0.984375,-0.7382813 0.5976562,0 0.9375,0.2226563 0.9375,0.6210938 v 0.1757812 c 0,0.28125 -0.1757813,0.3984375 -0.703125,0.4570313 -0.9375,0.1171875 -1.078125,0.1523437 -1.3359375,0.2578125 -0.4804688,0.1992187 -0.7265625,0.5742187 -0.7265625,1.1132812 0,0.76171878 0.515625,1.24218753 1.3710937,1.24218753 0.515625,0 0.9375,-0.187500005 1.4179688,-0.62109375 0.046875,0.421875 0.2460937,0.62109375 0.6796875,0.62109375 0.140625,0 0.234375,-0.0234375 0.4570312,-0.0703125 z M 8.4215469,-1.3132344 c 0,0.2226563 -0.070312,0.35156253 -0.2695313,0.53906253 -0.2695312,0.24609375 -0.5976562,0.375 -0.984375,0.375 -0.515625,0 -0.8203125,-0.24609375 -0.8203125,-0.66796873 0,-0.4453125 0.2929688,-0.6679688 0.9960938,-0.7617188 0.703125,-0.1054687 0.84375,-0.1289062 1.078125,-0.234375 z m 1.8896481,-2.859375 v 4.171875025 h 0.667969 V -2.6257344 c 0,-0.5976562 0.433594,-1.0898437 0.972656,-1.0898437 0.503907,0 0.773438,0.3046875 0.773438,0.84375 v 2.871093725 h 0.667969 V -2.6257344 c 0,-0.5976562 0.445312,-1.0898437 0.984375,-1.0898437 0.492187,0 0.773437,0.3164062 0.773437,0.84375 v 2.871093725 h 0.667969 V -3.1296406 c 0,-0.75 -0.433594,-1.171875 -1.207031,-1.171875 -0.5625,0 -0.890625,0.1757812 -1.289063,0.6445312 -0.246094,-0.4453125 -0.574219,-0.6445312 -1.125,-0.6445312 -0.550781,0 -0.914062,0.2109375 -1.277344,0.7148437 v -0.5859375 z m 6.509766,5.90625 h 0.667969 v -2.16796872 c 0.351562,0.421875 0.738281,0.62109375 1.277343,0.62109375 1.078125,0 1.792969,-0.8671875 1.792969,-2.20312503 0,-1.40625 -0.691406,-2.2851562 -1.792969,-2.2851562 -0.574218,0 -1.019531,0.2578125 -1.335937,0.75 v -0.6210938 h -0.609375 z m 1.828125,-5.4023437 c 0.738281,0 1.207031,0.6445312 1.207031,1.640625 0,0.9492187 -0.480469,1.59374998 -1.207031,1.59374998 -0.703125,0 -1.160156,-0.64453128 -1.160156,-1.61718748 0,-0.984375 0.457031,-1.6171875 1.160156,-1.6171875 z m 3.375,-2.1445313 h -0.667969 v 5.812500025 h 0.667969 z m 4.652344,3.9492188 c 0,-0.6445313 -0.04687,-1.0195313 -0.164063,-1.3359375 -0.28125,-0.6796875 -0.914062,-1.1015625 -1.699219,-1.1015625 -1.160156,0 -1.910156,0.9023437 -1.910156,2.2734375 0,1.37109373 0.726563,2.21484373 1.898438,2.21484373 0.960937,0 1.617187,-0.55078125 1.78125,-1.45312503 h -0.667969 c -0.175781,0.55078128 -0.550781,0.83203128 -1.089844,0.83203128 -0.421875,0 -0.785156,-0.1875 -1.007812,-0.5390625 C 23.664711,-1.2077656 23.606117,-1.4538594 23.594398,-1.8640156 Z m -3.058594,-0.5390625 c 0.04687,-0.7734375 0.527344,-1.2773438 1.195312,-1.2773438 0.644532,0 1.148438,0.5390625 1.148438,1.2304688 0,0.011719 0,0.023437 0,0.046875 z m 7.069336,-0.2460938 h 3.164062 v -0.65625 h -3.164062 v -1.8515625 h 3.292969 v -0.65625 h -4.03125 v 5.812500025 h 4.171875 V -0.65698437 h -3.433594 z m 5.915039,-1.5234375 h -0.691406 v -0.65625 c 0,-0.28125 0.164062,-0.421875 0.46875,-0.421875 0.04687,0 0.08203,0 0.222656,0.011719 v -0.5507813 c -0.140625,-0.035156 -0.234375,-0.046875 -0.375,-0.046875 -0.609375,0 -0.972656,0.3515625 -0.972656,0.9492188 v 0.7148437 h -0.5625 v 0.5390625 h 0.5625 v 3.632812525 h 0.65625 V -3.6335469 h 0.691406 z m 2.167969,0 h -0.691407 v -0.65625 c 0,-0.28125 0.164063,-0.421875 0.46875,-0.421875 0.04687,0 0.07031,0 0.222657,0.011719 v -0.5507813 c -0.152344,-0.035156 -0.234375,-0.046875 -0.375,-0.046875 -0.609375,0 -0.972657,0.3515625 -0.972657,0.9492188 v 0.7148437 h -0.5625 v 0.5390625 h 0.5625 v 3.632812525 h 0.65625 V -3.6335469 h 0.691407 z m 1.464843,0 h -0.65625 v 4.171875025 h 0.65625 z m 0,-1.640625 h -0.65625 v 0.84375 h 0.65625 z m 4.265625,3.0351563 c -0.02344,-0.3984375 -0.117187,-0.6679688 -0.28125,-0.890625 -0.28125,-0.3984375 -0.785156,-0.6328125 -1.359375,-0.6328125 -1.125,0 -1.863281,0.9023437 -1.863281,2.2851562 0,1.34765628 0.714844,2.20312503 1.851563,2.20312503 0.996093,0 1.628906,-0.59765625 1.699218,-1.61718753 h -0.667968 c -0.105469,0.66796878 -0.457032,0.99609378 -1.019532,0.99609378 -0.726562,0 -1.171875,-0.59765628 -1.171875,-1.58203128 0,-1.0429687 0.433594,-1.6640625 1.160157,-1.6640625 0.550781,0 0.902343,0.328125 0.984375,0.9023438 z m 1.429688,-1.3945313 h -0.65625 v 4.171875025 h 0.65625 z m 0,-1.640625 h -0.667969 v 0.84375 h 0.667969 z m 4.664062,3.9492188 c 0,-0.6445313 -0.04687,-1.0195313 -0.164062,-1.3359375 -0.28125,-0.6796875 -0.914063,-1.1015625 -1.699219,-1.1015625 -1.160156,0 -1.910156,0.9023437 -1.910156,2.2734375 0,1.37109373 0.726562,2.21484373 1.898437,2.21484373 0.960938,0 1.617188,-0.55078125 1.78125,-1.45312503 H 49.83268 c -0.175782,0.55078128 -0.550782,0.83203128 -1.089844,0.83203128 -0.421875,0 -0.785156,-0.1875 -1.007813,-0.5390625 C 47.58268,-1.2077656 47.524086,-1.4538594 47.512367,-1.8640156 Z m -3.058593,-0.5390625 c 0.04687,-0.7734375 0.527343,-1.2773438 1.195312,-1.2773438 0.644531,0 1.148438,0.5390625 1.148438,1.2304688 0,0.011719 0,0.023437 0,0.046875 z m 3.963867,-1.7695313 v 4.171875025 h 0.667969 V -2.3093281 c 0,-0.84375 0.445312,-1.40625 1.125,-1.40625 0.527343,0 0.867187,0.3164062 0.867187,0.8203125 v 2.894531225 h 0.65625 V -3.1530781 c 0,-0.6914063 -0.515625,-1.1484375 -1.324219,-1.1484375 -0.621093,0 -1.019531,0.2460937 -1.382812,0.8320312 v -0.703125 z m 7.620117,1.3945313 c -0.02344,-0.3984375 -0.117187,-0.6679688 -0.28125,-0.890625 -0.28125,-0.3984375 -0.785156,-0.6328125 -1.359375,-0.6328125 -1.125,0 -1.863281,0.9023437 -1.863281,2.2851562 0,1.34765628 0.714844,2.20312503 1.851562,2.20312503 0.996094,0 1.628907,-0.59765625 1.699219,-1.61718753 h -0.667969 c -0.105468,0.66796878 -0.457031,0.99609378 -1.019531,0.99609378 -0.726562,0 -1.171875,-0.59765628 -1.171875,-1.58203128 0,-1.0429687 0.433594,-1.6640625 1.160156,-1.6640625 0.550782,0 0.902344,0.328125 0.984375,0.9023438 z m 3.328125,-1.3945313 -1.160156,3.24609378 -1.066406,-3.24609378 h -0.703125 l 1.40625,4.18359378 -0.257813,0.66796875 C 60.561195,0.97192188 60.408852,1.0773906 60.13932,1.0773906 c -0.105468,0 -0.210937,-0.011719 -0.351562,-0.046875 v 0.5976563 c 0.128906,0.082031 0.269531,0.1054687 0.445312,0.1054687 0.210938,0 0.445313,-0.070312 0.621094,-0.1992187 0.210938,-0.1523438 0.328125,-0.328125 0.457031,-0.65625002 l 1.851563,-5.05078128 z m 0,0"
       style="fill:#000000;fill-opacity:1;fill-rule:nonzero;stroke:none"
       aria-label="SampleEffciency"
       transform="matrix(1.3333333,0,0,1.3333333,187.18533,366.93067)" />
    <path
       id="path94"
       d="m -11.53796,-117.63905 c 8.15583,3.80313 14.92009,3.80313 23.07592,0"
       style="fill:none;stroke:#bf80bf;stroke-width:1.99255;stroke-linecap:butt;stroke-linejoin:round;stroke-miterlimit:10;stroke-dasharray:none;stroke-opacity:1"
       transform="matrix(1.3333333,0,0,-1.3333333,229.41067,197.572)" />
    <path
       id="path95"
       d="m 0,-103.49918 v -11.28749"
       style="fill:none;stroke:#b366b3;stroke-width:1.49442;stroke-linecap:butt;stroke-linejoin:round;stroke-miterlimit:10;stroke-dasharray:none;stroke-opacity:1"
       transform="matrix(1.3333333,0,0,-1.3333333,229.41067,197.572)" />
    <path
       id="path96"
       d="M 7.77612,0 2.43257,2.77069 0.65138,0 2.43257,-2.77069 Z"
       style="fill:#ffffff;fill-opacity:1;fill-rule:nonzero;stroke:#b366b3;stroke-width:1.0959;stroke-linecap:butt;stroke-linejoin:round;stroke-miterlimit:10;stroke-dasharray:none;stroke-opacity:1"
       transform="matrix(0,-1.3333333,-1.3333333,0,229.41067,336.97076)" />
    <path
       id="path97"
       d="M 5.2734375,-4.00775 C 5.0390625,-5.2850937 4.3125,-5.9061875 3.0351563,-5.9061875 c -0.7851563,0 -1.4062501,0.2460938 -1.8398438,0.7265625 -0.52734375,0.5742188 -0.80859375,1.40625 -0.80859375,2.34375 0,0.9609375 0.29296875,1.78125 0.84374995,2.34375 C 1.6757812,-0.03509375 2.25,0.1875625 3,0.1875625 c 1.4179687,0 2.2148437,-0.7734375 2.390625,-2.3085937 H 4.6289062 c -0.058594,0.3984375 -0.140625,0.6679687 -0.2578125,0.9023437 -0.2460937,0.48046875 -0.7382812,0.75 -1.3593749,0.75 -1.1601563,0 -1.8867188,-0.9257812 -1.8867188,-2.3789062 0,-1.4882813 0.703125,-2.4023438 1.828125,-2.4023438 0.46875,0 0.9023438,0.140625 1.1484375,0.3632813 0.2109375,0.1992187 0.328125,0.4453125 0.421875,0.8789062 z M 7.921875,-4.3007187 c -1.171875,0 -1.8867188,0.84375 -1.8867188,2.25 0,1.3945312 0.703125,2.2382812 1.8984375,2.2382812 1.1718751,0 1.8867188,-0.84375 1.8867188,-2.2148437 0,-1.4414063 -0.6914062,-2.2734375 -1.8984375,-2.2734375 z m 0.011719,0.6210937 c 0.7500001,0 1.1953126,0.609375 1.1953126,1.6523438 0,0.9726562 -0.46875,1.59374995 -1.1953126,1.59374995 -0.75,0 -1.1953125,-0.60937495 -1.1953125,-1.61718745 0,-1.0078125 0.4453125,-1.6289063 1.1953125,-1.6289063 z m 2.815429,-0.4921875 V 6.25e-5 h 0.667969 v -2.625 c 0,-0.5976562 0.433594,-1.0898437 0.972656,-1.0898437 0.503907,0 0.773438,0.3046875 0.773438,0.84375 V 6.25e-5 h 0.667969 v -2.625 c 0,-0.5976562 0.445312,-1.0898437 0.984375,-1.0898437 0.492187,0 0.773437,0.3164062 0.773437,0.84375 V 6.25e-5 h 0.667969 v -3.1289062 c 0,-0.75 -0.433594,-1.171875 -1.207031,-1.171875 -0.5625,0 -0.890625,0.1757812 -1.289063,0.6445312 -0.246094,-0.4453125 -0.574219,-0.6445312 -1.125,-0.6445312 -0.550781,0 -0.914062,0.2109375 -1.277344,0.7148437 v -0.5859375 z m 6.509766,5.90625 h 0.667969 v -2.16796875 c 0.351562,0.421875 0.738281,0.62109375 1.277344,0.62109375 1.078125,0 1.792968,-0.8671875 1.792968,-2.203125 0,-1.40625 -0.691406,-2.2851562 -1.792968,-2.2851562 -0.574219,0 -1.019532,0.2578125 -1.335938,0.75 v -0.6210938 h -0.609375 z m 1.828125,-5.4023437 c 0.738281,0 1.207031,0.6445312 1.207031,1.640625 0,0.9492187 -0.480468,1.59374995 -1.207031,1.59374995 -0.703125,0 -1.160156,-0.64453125 -1.160156,-1.61718745 0,-0.984375 0.457031,-1.6171875 1.160156,-1.6171875 z M 25.098633,6.25e-5 v -4.171875 h -0.667969 v 2.3671875 c 0,0.84375 -0.445312,1.40625 -1.136719,1.40625 -0.527343,0 -0.855468,-0.31640625 -0.855468,-0.8203125 v -2.953125 h -0.667969 v 3.2109375 c 0,0.703125 0.515625,1.1484375 1.335937,1.1484375 0.609375,0 0.996094,-0.22265625 1.394532,-0.7734375 V 6.25e-5 Z m 2.616211,-4.171875 H 27.023437 V -5.32025 h -0.65625 v 1.1484375 h -0.5625 V -3.63275 h 0.5625 v 3.15234375 c 0,0.421875 0.28125,0.66796875 0.796875,0.66796875 0.164063,0 0.328125,-0.0234375 0.550782,-0.0585938 v -0.5625 c -0.09375,0.0234375 -0.199219,0.0351563 -0.316407,0.0351563 -0.292968,0 -0.375,-0.0820313 -0.375,-0.375 V -3.63275 h 0.691407 z m 4.277343,2.3085938 c 0,-0.6445313 -0.04687,-1.0195313 -0.164062,-1.3359375 -0.28125,-0.6796875 -0.914063,-1.1015625 -1.699219,-1.1015625 -1.160156,0 -1.910156,0.9023437 -1.910156,2.2734375 0,1.3710937 0.726562,2.2148437 1.898437,2.2148437 0.960938,0 1.617188,-0.55078125 1.78125,-1.453125 h -0.667968 c -0.175782,0.55078125 -0.550782,0.83203125 -1.089844,0.83203125 -0.421875,0 -0.785156,-0.1875 -1.007813,-0.5390625 C 28.980469,-1.2069687 28.921875,-1.4530625 28.910156,-1.8632187 Z m -3.058593,-0.5390625 c 0.04687,-0.7734375 0.527343,-1.2773438 1.195312,-1.2773438 0.644531,0 1.148438,0.5390625 1.148438,1.2304688 0,0.011719 0,0.023437 0,0.046875 z M 35.173828,6.25e-5 h 2.613281 c 0.550782,0 0.960938,-0.15234375 1.277344,-0.48046875 0.28125,-0.3046875 0.445313,-0.72656245 0.445313,-1.17187495 0,-0.703125 -0.328125,-1.125 -1.066407,-1.4179688 0.527344,-0.2460937 0.808594,-0.6796875 0.808594,-1.265625 0,-0.421875 -0.164062,-0.796875 -0.46875,-1.0664062 -0.292969,-0.28125 -0.691406,-0.4101563 -1.253906,-0.4101563 h -2.355469 z m 0.738281,-3.3046875 v -1.8515625 h 1.429688 c 0.421875,0 0.644531,0.058594 0.84375,0.2109375 0.210937,0.1523438 0.328125,0.3984375 0.328125,0.7148438 0,0.3046875 -0.117188,0.5625 -0.328125,0.7148437 -0.199219,0.1523438 -0.421875,0.2109375 -0.84375,0.2109375 z m 0,2.6484375 V -2.648375 h 1.804688 c 0.363281,0 0.597656,0.082031 0.773437,0.2695313 0.175782,0.1875 0.269532,0.4453125 0.269532,0.7265625 0,0.28125 -0.09375,0.5390625 -0.269532,0.7148437 -0.175781,0.19921875 -0.410156,0.28125 -0.773437,0.28125 z m 6.114258,-3.6445312 c -1.171875,0 -1.886719,0.84375 -1.886719,2.25 0,1.3945312 0.703125,2.2382812 1.898438,2.2382812 1.171875,0 1.886719,-0.84375 1.886719,-2.2148437 0,-1.4414063 -0.691407,-2.2734375 -1.898438,-2.2734375 z m 0.01172,0.6210937 c 0.75,0 1.195312,0.609375 1.195312,1.6523438 0,0.9726562 -0.46875,1.59374995 -1.195312,1.59374995 -0.75,0 -1.195313,-0.60937495 -1.195313,-1.61718745 0,-1.0078125 0.445313,-1.6289063 1.195313,-1.6289063 z m 6.09668,3.6796875 v -4.171875 h -0.667969 v 2.3671875 c 0,0.84375 -0.445313,1.40625 -1.136719,1.40625 -0.527344,0 -0.855469,-0.31640625 -0.855469,-0.8203125 v -2.953125 h -0.667968 v 3.2109375 c 0,0.703125 0.515625,1.1484375 1.335937,1.1484375 0.609375,0 0.996094,-0.22265625 1.394531,-0.7734375 V 6.25e-5 Z m 1.148437,-4.171875 V 6.25e-5 h 0.667969 v -2.3085937 c 0,-0.84375 0.445312,-1.40625 1.125,-1.40625 0.527344,0 0.867187,0.3164062 0.867187,0.8203125 V 6.25e-5 h 0.65625 v -3.1523437 c 0,-0.6914063 -0.515625,-1.1484375 -1.324218,-1.1484375 -0.621094,0 -1.019532,0.2460937 -1.382813,0.8320312 v -0.703125 z m 7.819336,-1.640625 h -0.66797 v 2.1679688 c -0.28125,-0.421875 -0.726562,-0.65625 -1.277343,-0.65625 -1.089844,0 -1.792969,0.8789062 -1.792969,2.203125 0,1.4179687 0.691406,2.2851562 1.816406,2.2851562 0.574219,0 0.972656,-0.22265625 1.324219,-0.73828125 V 6.25e-5 h 0.597656 z m -1.839844,2.1445313 c 0.714844,0 1.171875,0.6328125 1.171875,1.6289062 0,0.9609375 -0.457031,1.60546875 -1.160156,1.60546875 -0.738281,0 -1.21875,-0.64453125 -1.21875,-1.61718745 0,-0.9726563 0.480469,-1.6171875 1.207031,-1.6171875 z m 0,0"
       style="fill:#000000;fill-opacity:1;fill-rule:nonzero;stroke:none"
       aria-label="ComputeBound"
       transform="matrix(1.3333333,0,0,1.3333333,0,134.21867)" />
    <path
       id="path98"
       d="m -114.26874,61.14487 c 3.80315,-8.15583 3.80315,-14.92009 0,-23.07593"
       style="fill:none;stroke:#bf80bf;stroke-width:1.99255;stroke-linecap:butt;stroke-linejoin:round;stroke-miterlimit:10;stroke-dasharray:none;stroke-opacity:1"
       transform="matrix(1.3333333,0,0,-1.3333333,229.41067,197.572)" />
    <path
       id="path99"
       d="m -90.20729,49.6069 -21.20906,-1e-5"
       style="fill:none;stroke:#b366b3;stroke-width:1.49442;stroke-linecap:butt;stroke-linejoin:round;stroke-miterlimit:10;stroke-dasharray:none;stroke-opacity:1"
       transform="matrix(1.3333333,0,0,-1.3333333,229.41067,197.572)" />
    <path
       id="path100"
       d="M 7.77612,0 2.43257,2.77069 0.65138,0 2.43257,-2.77069 Z"
       style="fill:#ffffff;fill-opacity:1;fill-rule:nonzero;stroke:#b366b3;stroke-width:1.0959;stroke-linecap:butt;stroke-linejoin:round;stroke-miterlimit:10;stroke-dasharray:none;stroke-opacity:1"
       transform="matrix(1.3333333,0,0,-1.3333333,107.73441,131.42947)" />
  </g>
</svg>
