<?xml version="1.0" encoding="UTF-8" standalone="no"?>
<!-- Created with Inkscape (http://www.inkscape.org/) -->

<svg
   version="1.1"
   id="svg1"
   width="354.79733"
   height="148.36932"
   viewBox="0 0 354.79733 148.36932"
   xmlns="http://www.w3.org/2000/svg"
   xmlns:svg="http://www.w3.org/2000/svg">
  <defs
     id="defs1" />
  <g
     id="g1">
    <path
       id="path1"
       d="m 16.81807,21.82715 c 0,3.02629 -2.45325,5.47952 -5.47952,5.47952 -3.02629,0 -5.47953,-2.45323 -5.47953,-5.47952 0,-3.02629 2.45324,-5.47952 5.47953,-5.47952 3.02627,0 5.47952,2.45323 5.47952,5.47952 z"
       style="fill:#00ade7;fill-opacity:1;fill-rule:nonzero;stroke:none"
       transform="matrix(1.2,0,0,-1.2,15.6012,129.62413)" />
    <path
       id="path2"
       d="m 16.53474,41.3865 c 0,3.0263 -2.45323,5.47953 -5.47952,5.47953 -3.02629,0 -5.47952,-2.45323 -5.47952,-5.47953 0,-3.02627 2.45323,-5.47952 5.47952,-5.47952 3.02629,0 5.47952,2.45325 5.47952,5.47952 z"
       style="fill:#00ade7;fill-opacity:1;fill-rule:nonzero;stroke:none"
       transform="matrix(1.2,0,0,-1.2,15.6012,129.62413)" />
    <path
       id="path3"
       d="m 16.53474,57.26067 c 0,3.02629 -2.45323,5.47952 -5.47952,5.47952 -3.02629,0 -5.47952,-2.45323 -5.47952,-5.47952 0,-3.02629 2.45323,-5.47953 5.47952,-5.47953 3.02629,0 5.47952,2.45324 5.47952,5.47953 z"
       style="fill:#00ade7;fill-opacity:1;fill-rule:nonzero;stroke:none"
       transform="matrix(1.2,0,0,-1.2,15.6012,129.62413)" />
    <path
       id="path4"
       d="m 15.9677,71.43407 c 0,3.02629 -2.45323,5.47952 -5.47953,5.47952 -3.02629,0 -5.47952,-2.45323 -5.47952,-5.47952 0,-3.02628 2.45323,-5.47953 5.47952,-5.47953 3.0263,0 5.47953,2.45325 5.47953,5.47953 z"
       style="fill:#00ade7;fill-opacity:1;fill-rule:nonzero;stroke:none"
       transform="matrix(1.2,0,0,-1.2,15.6012,129.62413)" />
    <path
       id="path5"
       d="m 15.9677,83.62299 c 0,3.02629 -2.45323,5.47952 -5.47953,5.47952 -3.02629,0 -5.47952,-2.45323 -5.47952,-5.47952 0,-3.02629 2.45323,-5.47953 5.47952,-5.47953 3.0263,0 5.47953,2.45324 5.47953,5.47953 z"
       style="fill:#00ade7;fill-opacity:1;fill-rule:nonzero;stroke:none"
       transform="matrix(1.2,0,0,-1.2,15.6012,129.62413)" />
    <path
       id="path6"
       d="m 18.80255,94.96198 c 0,3.02629 -2.45325,5.47952 -5.47952,5.47952 -3.02629,0 -5.47953,-2.45323 -5.47953,-5.47952 0,-3.0263 2.45324,-5.47953 5.47953,-5.47953 3.02627,0 5.47952,2.45323 5.47952,5.47953 z"
       style="fill:#00ade7;fill-opacity:1;fill-rule:nonzero;stroke:none"
       transform="matrix(1.2,0,0,-1.2,15.6012,129.62413)" />
    <path
       id="path7"
       d="m 29.29073,11.9056 c 0,3.02628 -2.45323,5.47952 -5.47953,5.47952 -3.02629,0 -5.47952,-2.45324 -5.47952,-5.47952 0,-3.0263 2.45323,-5.47953 5.47952,-5.47953 3.0263,0 5.47953,2.45323 5.47953,5.47953 z"
       style="fill:#00ade7;fill-opacity:1;fill-rule:nonzero;stroke:none"
       transform="matrix(1.2,0,0,-1.2,15.6012,129.62413)" />
    <path
       id="path8"
       d="m 24.75514,30.8979 c 0,3.0263 -2.45324,5.47953 -5.47952,5.47953 -3.02629,0 -5.47952,-2.45323 -5.47952,-5.47953 0,-3.02629 2.45323,-5.47952 5.47952,-5.47952 3.02628,0 5.47952,2.45323 5.47952,5.47952 z"
       style="fill:#00ade7;fill-opacity:1;fill-rule:nonzero;stroke:none"
       transform="matrix(1.2,0,0,-1.2,15.6012,129.62413)" />
    <path
       id="path9"
       d="m 25.32219,48.75653 c 0,3.02629 -2.45323,5.47952 -5.47952,5.47952 -3.02629,0 -5.47953,-2.45323 -5.47953,-5.47952 0,-3.02627 2.45324,-5.47952 5.47953,-5.47952 3.02629,0 5.47952,2.45325 5.47952,5.47952 z"
       style="fill:#00ade7;fill-opacity:1;fill-rule:nonzero;stroke:none"
       transform="matrix(1.2,0,0,-1.2,15.6012,129.62413)" />
    <path
       id="path10"
       d="m 26.4563,66.89847 c 0,3.02629 -2.45323,5.47952 -5.47952,5.47952 -3.02629,0 -5.47953,-2.45323 -5.47953,-5.47952 0,-3.02629 2.45324,-5.47952 5.47953,-5.47952 3.02629,0 5.47952,2.45323 5.47952,5.47952 z"
       style="fill:#00ade7;fill-opacity:1;fill-rule:nonzero;stroke:none"
       transform="matrix(1.2,0,0,-1.2,15.6012,129.62413)" />
    <path
       id="path11"
       d="m 27.30667,78.80408 c 0,3.02629 -2.45323,5.47952 -5.47952,5.47952 -3.02629,0 -5.47952,-2.45323 -5.47952,-5.47952 0,-3.02628 2.45323,-5.47953 5.47952,-5.47953 3.02629,0 5.47952,2.45325 5.47952,5.47953 z"
       style="fill:#00ade7;fill-opacity:1;fill-rule:nonzero;stroke:none"
       transform="matrix(1.2,0,0,-1.2,15.6012,129.62413)" />
    <path
       id="path12"
       d="m 29.57446,90.14264 c 0,3.02627 -2.45323,5.47952 -5.47952,5.47952 -3.02628,0 -5.47952,-2.45325 -5.47952,-5.47952 0,-3.02629 2.45324,-5.47952 5.47952,-5.47952 3.02629,0 5.47952,2.45323 5.47952,5.47952 z"
       style="fill:#00ade7;fill-opacity:1;fill-rule:nonzero;stroke:none"
       transform="matrix(1.2,0,0,-1.2,15.6012,129.62413)" />
    <path
       id="path13"
       d="m 38.36191,97.51308 c 0,3.02629 -2.45323,5.47952 -5.47952,5.47952 -3.02629,0 -5.47953,-2.45323 -5.47953,-5.47952 0,-3.02628 2.45324,-5.47953 5.47953,-5.47953 3.02629,0 5.47952,2.45325 5.47952,5.47953 z"
       style="fill:#00ade7;fill-opacity:1;fill-rule:nonzero;stroke:none"
       transform="matrix(1.2,0,0,-1.2,15.6012,129.62413)" />
    <path
       id="path14"
       d="m 44.3145,10.20485 c 0,3.02629 -2.45323,5.47952 -5.47952,5.47952 -3.02628,0 -5.47953,-2.45323 -5.47953,-5.47952 0,-3.02629 2.45325,-5.47952 5.47953,-5.47952 3.02629,0 5.47952,2.45323 5.47952,5.47952 z"
       style="fill:#00ade7;fill-opacity:1;fill-rule:nonzero;stroke:none"
       transform="matrix(1.2,0,0,-1.2,15.6012,129.62413)" />
    <path
       id="path15"
       d="m 37.79485,23.24458 c 0,3.02628 -2.45324,5.47952 -5.47953,5.47952 -3.02629,0 -5.47952,-2.45324 -5.47952,-5.47952 0,-3.02629 2.45323,-5.47952 5.47952,-5.47952 3.02629,0 5.47953,2.45323 5.47953,5.47952 z"
       style="fill:#00ade7;fill-opacity:1;fill-rule:nonzero;stroke:none"
       transform="matrix(1.2,0,0,-1.2,15.6012,129.62413)" />
    <path
       id="path16"
       d="m 36.09412,41.66983 c 0,3.02629 -2.45325,5.47952 -5.47952,5.47952 -3.0263,0 -5.47953,-2.45323 -5.47953,-5.47952 0,-3.02629 2.45323,-5.47953 5.47953,-5.47953 3.02627,0 5.47952,2.45324 5.47952,5.47953 z"
       style="fill:#00ade7;fill-opacity:1;fill-rule:nonzero;stroke:none"
       transform="matrix(1.2,0,0,-1.2,15.6012,129.62413)" />
    <path
       id="path17"
       d="m 34.39337,55.84323 c 0,3.02629 -2.45323,5.47952 -5.47952,5.47952 -3.02629,0 -5.47952,-2.45323 -5.47952,-5.47952 0,-3.02629 2.45323,-5.47952 5.47952,-5.47952 3.02629,0 5.47952,2.45323 5.47952,5.47952 z"
       style="fill:#00ade7;fill-opacity:1;fill-rule:nonzero;stroke:none"
       transform="matrix(1.2,0,0,-1.2,15.6012,129.62413)" />
    <path
       id="path18"
       d="m 46.58229,59.52846 c 0,3.02629 -2.45323,5.47952 -5.47952,5.47952 -3.02629,0 -5.47952,-2.45323 -5.47952,-5.47952 0,-3.02629 2.45323,-5.47953 5.47952,-5.47953 3.02629,0 5.47952,2.45324 5.47952,5.47953 z"
       style="fill:#00ade7;fill-opacity:1;fill-rule:nonzero;stroke:none"
       transform="matrix(1.2,0,0,-1.2,15.6012,129.62413)" />
    <path
       id="path19"
       d="m 38.36191,67.74884 c 0,3.02629 -2.45323,5.47952 -5.47952,5.47952 -3.02629,0 -5.47953,-2.45323 -5.47953,-5.47952 0,-3.02629 2.45324,-5.47952 5.47953,-5.47952 3.02629,0 5.47952,2.45323 5.47952,5.47952 z"
       style="fill:#00ade7;fill-opacity:1;fill-rule:nonzero;stroke:none"
       transform="matrix(1.2,0,0,-1.2,15.6012,129.62413)" />
    <path
       id="path20"
       d="m 41.19633,82.20555 c 0,3.02629 -2.45323,5.47952 -5.47952,5.47952 -3.02629,0 -5.47952,-2.45323 -5.47952,-5.47952 0,-3.02627 2.45323,-5.47952 5.47952,-5.47952 3.02629,0 5.47952,2.45325 5.47952,5.47952 z"
       style="fill:#00ade7;fill-opacity:1;fill-rule:nonzero;stroke:none"
       transform="matrix(1.2,0,0,-1.2,15.6012,129.62413)" />
    <path
       id="path21"
       d="m 49.70045,93.54454 c 0,3.02629 -2.45323,5.47952 -5.47952,5.47952 -3.02629,0 -5.47952,-2.45323 -5.47952,-5.47952 0,-3.02628 2.45323,-5.47952 5.47952,-5.47952 3.02629,0 5.47952,2.45324 5.47952,5.47952 z"
       style="fill:#00ade7;fill-opacity:1;fill-rule:nonzero;stroke:none"
       transform="matrix(1.2,0,0,-1.2,15.6012,129.62413)" />
    <path
       id="path22"
       d="m 59.05496,67.1818 c 0,3.02628 -2.45323,5.47952 -5.47952,5.47952 -3.02629,0 -5.47952,-2.45324 -5.47952,-5.47952 0,-3.0263 2.45323,-5.47953 5.47952,-5.47953 3.02629,0 5.47952,2.45323 5.47952,5.47953 z"
       style="fill:#00ade7;fill-opacity:1;fill-rule:nonzero;stroke:none"
       transform="matrix(1.2,0,0,-1.2,15.6012,129.62413)" />
    <path
       id="path23"
       d="m 51.96826,76.53629 c 0,3.02629 -2.45323,5.47952 -5.47952,5.47952 -3.02629,0 -5.47952,-2.45323 -5.47952,-5.47952 0,-3.02629 2.45323,-5.47953 5.47952,-5.47953 3.02629,0 5.47952,2.45324 5.47952,5.47953 z"
       style="fill:#00ade7;fill-opacity:1;fill-rule:nonzero;stroke:none"
       transform="matrix(1.2,0,0,-1.2,15.6012,129.62413)" />
    <path
       id="path24"
       d="m 64.72424,83.90674 c 0,3.02629 -2.45323,5.47952 -5.47952,5.47952 -3.02629,0 -5.47952,-2.45323 -5.47952,-5.47952 0,-3.02629 2.45323,-5.47952 5.47952,-5.47952 3.02629,0 5.47952,2.45323 5.47952,5.47952 z"
       style="fill:#00ade7;fill-opacity:1;fill-rule:nonzero;stroke:none"
       transform="matrix(1.2,0,0,-1.2,15.6012,129.62413)" />
    <path
       id="path25"
       d="m 62.17314,95.5286 c 0,3.02629 -2.45324,5.47952 -5.47952,5.47952 -3.02629,0 -5.47952,-2.45323 -5.47952,-5.47952 0,-3.02628 2.45323,-5.47953 5.47952,-5.47953 3.02628,0 5.47952,2.45325 5.47952,5.47953 z"
       style="fill:#00ade7;fill-opacity:1;fill-rule:nonzero;stroke:none"
       transform="matrix(1.2,0,0,-1.2,15.6012,129.62413)" />
    <path
       id="path26"
       d="m 78.33101,66.04811 c 0,3.02628 -2.45323,5.47952 -5.47952,5.47952 -3.02629,0 -5.47953,-2.45324 -5.47953,-5.47952 0,-3.02629 2.45324,-5.47952 5.47953,-5.47952 3.02629,0 5.47952,2.45323 5.47952,5.47952 z"
       style="fill:#00ade7;fill-opacity:1;fill-rule:nonzero;stroke:none"
       transform="matrix(1.2,0,0,-1.2,15.6012,129.62413)" />
    <path
       id="path27"
       d="m 92.78773,62.36288 c 0,3.0263 -2.45323,5.47952 -5.47952,5.47952 -3.02629,0 -5.47952,-2.45322 -5.47952,-5.47952 0,-3.02628 2.45323,-5.47952 5.47952,-5.47952 3.02629,0 5.47952,2.45324 5.47952,5.47952 z"
       style="fill:#00ade7;fill-opacity:1;fill-rule:nonzero;stroke:none"
       transform="matrix(1.2,0,0,-1.2,15.6012,129.62413)" />
    <path
       id="path28"
       d="m 102.42554,68.59921 c 0,3.02629 -2.45324,5.47953 -5.47953,5.47953 -3.02629,0 -5.47952,-2.45324 -5.47952,-5.47953 0,-3.02629 2.45323,-5.47952 5.47952,-5.47952 3.02629,0 5.47953,2.45323 5.47953,5.47952 z"
       style="fill:#00ade7;fill-opacity:1;fill-rule:nonzero;stroke:none"
       transform="matrix(1.2,0,0,-1.2,15.6012,129.62413)" />
    <path
       id="path29"
       d="m 97.60663,86.74117 c 0,3.02627 -2.45323,5.47952 -5.47953,5.47952 -3.02627,0 -5.47952,-2.45325 -5.47952,-5.47952 0,-3.0263 2.45325,-5.47953 5.47952,-5.47953 3.0263,0 5.47953,2.45323 5.47953,5.47953 z"
       style="fill:#00ade7;fill-opacity:1;fill-rule:nonzero;stroke:none"
       transform="matrix(1.2,0,0,-1.2,15.6012,129.62413)" />
    <path
       id="path30"
       d="m 89.38626,77.95372 c 0,3.02629 -2.45323,5.47952 -5.47952,5.47952 -3.02629,0 -5.47952,-2.45323 -5.47952,-5.47952 0,-3.02629 2.45323,-5.47952 5.47952,-5.47952 3.02629,0 5.47952,2.45323 5.47952,5.47952 z"
       style="fill:#00ade7;fill-opacity:1;fill-rule:nonzero;stroke:none"
       transform="matrix(1.2,0,0,-1.2,15.6012,129.62413)" />
    <path
       id="path31"
       d="m 75.77946,77.38666 c 0,3.02627 -2.45323,5.47952 -5.47952,5.47952 -3.02629,0 -5.47952,-2.45325 -5.47952,-5.47952 0,-3.02629 2.45323,-5.47952 5.47952,-5.47952 3.02629,0 5.47952,2.45323 5.47952,5.47952 z"
       style="fill:#00ade7;fill-opacity:1;fill-rule:nonzero;stroke:none"
       transform="matrix(1.2,0,0,-1.2,15.6012,129.62413)" />
    <path
       id="path32"
       d="m 82.29955,88.72565 c 0,3.02627 -2.45324,5.47952 -5.47953,5.47952 -3.02627,0 -5.47952,-2.45325 -5.47952,-5.47952 0,-3.02629 2.45325,-5.47953 5.47952,-5.47953 3.02629,0 5.47953,2.45324 5.47953,5.47953 z"
       style="fill:#00ade7;fill-opacity:1;fill-rule:nonzero;stroke:none"
       transform="matrix(1.2,0,0,-1.2,15.6012,129.62413)" />
    <path
       id="path33"
       d="m 74.6458,97.51308 c 0,3.02629 -2.45323,5.47952 -5.47952,5.47952 -3.0263,0 -5.47953,-2.45323 -5.47953,-5.47952 0,-3.02628 2.45323,-5.47953 5.47953,-5.47953 3.02629,0 5.47952,2.45325 5.47952,5.47953 z"
       style="fill:#00ade7;fill-opacity:1;fill-rule:nonzero;stroke:none"
       transform="matrix(1.2,0,0,-1.2,15.6012,129.62413)" />
    <path
       id="path34"
       d="m 92.50443,98.64676 c 0,3.02629 -2.45323,5.47952 -5.47953,5.47952 -3.02629,0 -5.47952,-2.45323 -5.47952,-5.47952 0,-3.02629 2.45323,-5.47952 5.47952,-5.47952 3.0263,0 5.47953,2.45323 5.47953,5.47952 z"
       style="fill:#00ade7;fill-opacity:1;fill-rule:nonzero;stroke:none"
       transform="matrix(1.2,0,0,-1.2,15.6012,129.62413)" />
    <path
       id="path35"
       d="m 57.35422,10.20485 c 0,3.02629 -2.45323,5.47952 -5.47952,5.47952 -3.0263,0 -5.47953,-2.45323 -5.47953,-5.47952 0,-3.02629 2.45323,-5.47952 5.47953,-5.47952 3.02629,0 5.47952,2.45323 5.47952,5.47952 z"
       style="fill:#88c946;fill-opacity:1;fill-rule:nonzero;stroke:none"
       transform="matrix(1.2,0,0,-1.2,15.6012,129.62413)" />
    <path
       id="path36"
       d="m 70.39351,9.92155 c 0,3.02628 -2.45323,5.47953 -5.47952,5.47953 -3.02629,0 -5.47953,-2.45325 -5.47953,-5.47953 0,-3.02629 2.45324,-5.47952 5.47953,-5.47952 3.02629,0 5.47952,2.45323 5.47952,5.47952 z"
       style="fill:#88c946;fill-opacity:1;fill-rule:nonzero;stroke:none"
       transform="matrix(1.2,0,0,-1.2,15.6012,129.62413)" />
    <path
       id="path37"
       d="m 82.29955,9.92155 c 0,3.02628 -2.45324,5.47953 -5.47953,5.47953 -3.02627,0 -5.47952,-2.45325 -5.47952,-5.47953 0,-3.02629 2.45325,-5.47952 5.47952,-5.47952 3.02629,0 5.47953,2.45323 5.47953,5.47952 z"
       style="fill:#88c946;fill-opacity:1;fill-rule:nonzero;stroke:none"
       transform="matrix(1.2,0,0,-1.2,15.6012,129.62413)" />
    <path
       id="path38"
       d="m 101.29187,9.92155 c 0,3.02628 -2.45323,5.47953 -5.47952,5.47953 -3.02629,0 -5.47953,-2.45325 -5.47953,-5.47953 0,-3.02629 2.45324,-5.47952 5.47953,-5.47952 3.02629,0 5.47952,2.45323 5.47952,5.47952 z"
       style="fill:#88c946;fill-opacity:1;fill-rule:nonzero;stroke:none"
       transform="matrix(1.2,0,0,-1.2,15.6012,129.62413)" />
    <path
       id="path39"
       d="m 101.85849,22.67752 c 0,3.02628 -2.45323,5.47952 -5.47952,5.47952 -3.02629,0 -5.47953,-2.45324 -5.47953,-5.47952 0,-3.02629 2.45324,-5.47952 5.47953,-5.47952 3.02629,0 5.47952,2.45323 5.47952,5.47952 z"
       style="fill:#88c946;fill-opacity:1;fill-rule:nonzero;stroke:none"
       transform="matrix(1.2,0,0,-1.2,15.6012,129.62413)" />
    <path
       id="path40"
       d="m 101.57518,38.26836 c 0,3.02629 -2.45325,5.47952 -5.47952,5.47952 -3.02629,0 -5.47953,-2.45323 -5.47953,-5.47952 0,-3.02629 2.45324,-5.47953 5.47953,-5.47953 3.02627,0 5.47952,2.45324 5.47952,5.47953 z"
       style="fill:#88c946;fill-opacity:1;fill-rule:nonzero;stroke:none"
       transform="matrix(1.2,0,0,-1.2,15.6012,129.62413)" />
    <path
       id="path41"
       d="m 102.14224,53.85875 c 0,3.02629 -2.45324,5.47952 -5.47952,5.47952 -3.02629,0 -5.47952,-2.45323 -5.47952,-5.47952 0,-3.02629 2.45323,-5.47952 5.47952,-5.47952 3.02628,0 5.47952,2.45323 5.47952,5.47952 z"
       style="fill:#88c946;fill-opacity:1;fill-rule:nonzero;stroke:none"
       transform="matrix(1.2,0,0,-1.2,15.6012,129.62413)" />
    <path
       id="path42"
       d="m 92.50443,45.92168 c 0,3.02629 -2.45323,5.47952 -5.47953,5.47952 -3.02629,0 -5.47952,-2.45323 -5.47952,-5.47952 0,-3.02629 2.45323,-5.47953 5.47952,-5.47953 3.0263,0 5.47953,2.45324 5.47953,5.47953 z"
       style="fill:#88c946;fill-opacity:1;fill-rule:nonzero;stroke:none"
       transform="matrix(1.2,0,0,-1.2,15.6012,129.62413)" />
    <path
       id="path43"
       d="m 78.89764,51.59138 c 0,3.0263 -2.45324,5.47952 -5.47952,5.47952 -3.02629,0 -5.47952,-2.45322 -5.47952,-5.47952 0,-3.02628 2.45323,-5.47952 5.47952,-5.47952 3.02628,0 5.47952,2.45324 5.47952,5.47952 z"
       style="fill:#88c946;fill-opacity:1;fill-rule:nonzero;stroke:none"
       transform="matrix(1.2,0,0,-1.2,15.6012,129.62413)" />
    <path
       id="path44"
       d="m 67.55908,56.12654 c 0,3.02629 -2.45323,5.47952 -5.47952,5.47952 -3.02628,0 -5.47952,-2.45323 -5.47952,-5.47952 0,-3.02627 2.45324,-5.47952 5.47952,-5.47952 3.02629,0 5.47952,2.45325 5.47952,5.47952 z"
       style="fill:#88c946;fill-opacity:1;fill-rule:nonzero;stroke:none"
       transform="matrix(1.2,0,0,-1.2,15.6012,129.62413)" />
    <path
       id="path45"
       d="m 56.22011,47.33911 c 0,3.02628 -2.45325,5.47952 -5.47952,5.47952 -3.02629,0 -5.47953,-2.45324 -5.47953,-5.47952 0,-3.02629 2.45324,-5.47952 5.47953,-5.47952 3.02627,0 5.47952,2.45323 5.47952,5.47952 z"
       style="fill:#88c946;fill-opacity:1;fill-rule:nonzero;stroke:none"
       transform="matrix(1.2,0,0,-1.2,15.6012,129.62413)" />
    <path
       id="path46"
       d="m 48.56679,35.43349 c 0,3.02629 -2.45323,5.47952 -5.47952,5.47952 -3.0263,0 -5.47953,-2.45323 -5.47953,-5.47952 0,-3.02628 2.45323,-5.47953 5.47953,-5.47953 3.02629,0 5.47952,2.45325 5.47952,5.47953 z"
       style="fill:#88c946;fill-opacity:1;fill-rule:nonzero;stroke:none"
       transform="matrix(1.2,0,0,-1.2,15.6012,129.62413)" />
    <path
       id="path47"
       d="m 52.53531,22.67752 c 0,3.02628 -2.45323,5.47952 -5.47952,5.47952 -3.02629,0 -5.47953,-2.45324 -5.47953,-5.47952 0,-3.02629 2.45324,-5.47952 5.47953,-5.47952 3.02629,0 5.47952,2.45323 5.47952,5.47952 z"
       style="fill:#88c946;fill-opacity:1;fill-rule:nonzero;stroke:none"
       transform="matrix(1.2,0,0,-1.2,15.6012,129.62413)" />
    <path
       id="path48"
       d="m 65.85835,20.40973 c 0,3.02629 -2.45323,5.47952 -5.47952,5.47952 -3.02629,0 -5.47953,-2.45323 -5.47953,-5.47952 0,-3.02629 2.45324,-5.47953 5.47953,-5.47953 3.02629,0 5.47952,2.45324 5.47952,5.47953 z"
       style="fill:#88c946;fill-opacity:1;fill-rule:nonzero;stroke:none"
       transform="matrix(1.2,0,0,-1.2,15.6012,129.62413)" />
    <path
       id="path49"
       d="m 80.03175,20.97678 c 0,3.02629 -2.45323,5.47952 -5.47952,5.47952 -3.02629,0 -5.47952,-2.45323 -5.47952,-5.47952 0,-3.02629 2.45323,-5.47953 5.47952,-5.47953 3.02629,0 5.47952,2.45324 5.47952,5.47953 z"
       style="fill:#88c946;fill-opacity:1;fill-rule:nonzero;stroke:none"
       transform="matrix(1.2,0,0,-1.2,15.6012,129.62413)" />
    <path
       id="path50"
       d="m 91.65361,16.72449 c 0,3.02629 -2.45323,5.47952 -5.47952,5.47952 -3.02628,0 -5.47953,-2.45323 -5.47953,-5.47952 0,-3.02628 2.45325,-5.47953 5.47953,-5.47953 3.02629,0 5.47952,2.45325 5.47952,5.47953 z"
       style="fill:#88c946;fill-opacity:1;fill-rule:nonzero;stroke:none"
       transform="matrix(1.2,0,0,-1.2,15.6012,129.62413)" />
    <path
       id="path51"
       d="m 91.08699,28.06348 c 0,3.02629 -2.45323,5.47952 -5.47952,5.47952 -3.02629,0 -5.47953,-2.45323 -5.47953,-5.47952 0,-3.02628 2.45324,-5.47953 5.47953,-5.47953 3.02629,0 5.47952,2.45325 5.47952,5.47953 z"
       style="fill:#88c946;fill-opacity:1;fill-rule:nonzero;stroke:none"
       transform="matrix(1.2,0,0,-1.2,15.6012,129.62413)" />
    <path
       id="path52"
       d="m 82.58287,36.28386 c 0,3.02629 -2.45323,5.47952 -5.47952,5.47952 -3.02629,0 -5.47952,-2.45323 -5.47952,-5.47952 0,-3.02629 2.45323,-5.47952 5.47952,-5.47952 3.02629,0 5.47952,2.45323 5.47952,5.47952 z"
       style="fill:#88c946;fill-opacity:1;fill-rule:nonzero;stroke:none"
       transform="matrix(1.2,0,0,-1.2,15.6012,129.62413)" />
    <path
       id="path53"
       d="m 70.39351,41.95314 c 0,3.02629 -2.45323,5.47952 -5.47952,5.47952 -3.02629,0 -5.47953,-2.45323 -5.47953,-5.47952 0,-3.02629 2.45324,-5.47952 5.47953,-5.47952 3.02629,0 5.47952,2.45323 5.47952,5.47952 z"
       style="fill:#88c946;fill-opacity:1;fill-rule:nonzero;stroke:none"
       transform="matrix(1.2,0,0,-1.2,15.6012,129.62413)" />
    <path
       id="path54"
       d="m 60.7557,32.59865 c 0,3.02629 -2.45323,5.47952 -5.47952,5.47952 -3.02628,0 -5.47952,-2.45323 -5.47952,-5.47952 0,-3.02629 2.45324,-5.47952 5.47952,-5.47952 3.02629,0 5.47952,2.45323 5.47952,5.47952 z"
       style="fill:#88c946;fill-opacity:1;fill-rule:nonzero;stroke:none"
       transform="matrix(1.2,0,0,-1.2,15.6012,129.62413)" />
    <path
       id="path55"
       d="m 72.37799,30.33128 c 0,3.02629 -2.45323,5.47952 -5.47952,5.47952 -3.02629,0 -5.47952,-2.45323 -5.47952,-5.47952 0,-3.02628 2.45323,-5.47952 5.47952,-5.47952 3.02629,0 5.47952,2.45324 5.47952,5.47952 z"
       style="fill:#88c946;fill-opacity:1;fill-rule:nonzero;stroke:none"
       transform="matrix(1.2,0,0,-1.2,15.6012,129.62413)" />
    <path
       id="path56"
       d="M 1.98431,1.41751 H 107.15104 V 107.15076 H 1.98431 Z"
       style="fill:none;stroke:#000000;stroke-width:1.74348;stroke-linecap:butt;stroke-linejoin:round;stroke-miterlimit:10;stroke-dasharray:none;stroke-opacity:1"
       transform="matrix(1.2,0,0,-1.2,15.6012,129.62413)" />
    <path
       id="path57"
       d="m 20.3556,0.54576 87.66717,94.58006"
       style="fill:none;stroke:#ff0000;stroke-width:1.99255;stroke-linecap:butt;stroke-linejoin:round;stroke-miterlimit:10;stroke-dasharray:none;stroke-opacity:1"
       transform="matrix(1.2,0,0,-1.2,15.6012,129.62413)" />
    <path
       id="path58"
       d="M 5.7936406,-6.5354705 H 4.9993698 v 5.3385417 L 1.5879115,-6.5354705 H 0.67645313 V 9.8784722e-4 H 1.470724 V -5.2984913 L 4.8561406,9.8784722e-4 h 0.9375 z m 6.4746094,0 h -0.794271 v 5.3385417 L 8.0625208,-6.5354705 H 7.1510625 V 9.8784722e-4 H 7.9453333 V -5.2984913 L 11.33075,9.8784722e-4 h 0.9375 z M 20.412781,9.8784722e-4 21.79299,-4.699533 h -0.846355 l -0.9375,3.6588542 -0.924479,-3.6588542 H 18.173198 L 17.27476,-1.0406788 16.32424,-4.699533 h -0.833334 l 1.367188,4.70052084722 h 0.846354 L 18.602885,-3.683908 19.553406,9.8784722e-4 Z M 23.254578,-4.699533 H 22.512391 V 9.8784722e-4 h 0.742187 z m 0,-1.8359375 H 22.49937 v 0.9375 h 0.755208 z m 2.929688,1.8359375 h -0.76823 v -1.2890625 h -0.742187 v 1.2890625 h -0.638021 v 0.6119792 h 0.638021 v 3.55468748 c 0,0.46875 0.3125,0.7421875 0.898437,0.7421875 0.182292,0 0.364584,-0.0260417 0.61198,-0.0651042 v -0.625 c -0.104167,0.0260417 -0.221355,0.0390625 -0.364584,0.0390625 -0.3125,0 -0.403646,-0.0911458 -0.403646,-0.4296875 V -4.0875538 h 0.76823 z m 0.836588,-1.8359375 V 9.8784722e-4 h 0.742188 V -2.590158 c 0,-0.9635417 0.507812,-1.5885417 1.276041,-1.5885417 0.247396,0 0.481771,0.078125 0.664063,0.2083334 0.221354,0.15625 0.3125,0.3776041 0.3125,0.7161458 V 9.8784722e-4 h 0.742187 V -3.5536997 c 0,-0.78125 -0.572916,-1.2760416 -1.484375,-1.2760416 -0.664062,0 -1.067708,0.1953125 -1.510416,0.78125 v -2.4869792 z m 6.796875,1.7057292 c -1.315104,0 -2.109375,0.9375 -2.109375,2.5130208 0,1.58854168 0.78125,2.52604168 2.122396,2.52604168 1.315104,0 2.122396,-0.9375 2.122396,-2.48697918 0,-1.6276042 -0.78125,-2.5520833 -2.135417,-2.5520833 z m 0.01302,0.6901041 c 0.846354,0 1.341146,0.6901042 1.341146,1.8489584 0,1.1067708 -0.520833,1.80989581 -1.341146,1.80989581 -0.833333,0 -1.341146,-0.69010421 -1.341146,-1.83593751 0,-1.1328125 0.507813,-1.8229167 1.341146,-1.8229167 z M 40.689474,9.8784722e-4 V -4.699533 h -0.742188 v 2.6692708 c 0,0.9505209 -0.507812,1.58854171 -1.289062,1.58854171 -0.585938,0 -0.963542,-0.36458333 -0.963542,-0.92447921 V -4.699533 h -0.742187 v 3.6197917 c 0,0.78124998 0.585937,1.28906248 1.497396,1.28906248 0.690104,0 1.132812,-0.24739583 1.5625,-0.859375 V 9.8784722e-4 Z M 43.632182,-4.699533 h -0.768229 v -1.2890625 h -0.742187 v 1.2890625 h -0.638021 v 0.6119792 h 0.638021 v 3.55468748 c 0,0.46875 0.3125,0.7421875 0.898437,0.7421875 0.182292,0 0.364583,-0.0260417 0.611979,-0.0651042 v -0.625 c -0.104166,0.0260417 -0.221354,0.0390625 -0.364583,0.0390625 -0.3125,0 -0.403646,-0.0911458 -0.403646,-0.4296875 V -4.0875538 h 0.768229 z m 6.956381,2.734375 0.664062,1.96614584722 h 0.9375 L 49.898458,-6.5354705 H 48.817729 L 46.487,9.8784722e-4 h 0.885417 L 48.062521,-1.965158 Z m -0.234375,-0.703125 h -2.083334 l 1.080729,-2.96875 z m 6.188151,-0.4557292 c -0.03906,-0.4557291 -0.14323,-0.7552083 -0.325521,-1.015625 -0.3125,-0.4296875 -0.885417,-0.6901041 -1.536459,-0.6901041 -1.26302,0 -2.096354,1.0026041 -2.096354,2.5651041 0,1.51041671 0.807292,2.47395838 2.083334,2.47395838 1.119791,0 1.835937,-0.67708333 1.927083,-1.82291668 h -0.755208 c -0.130209,0.75520835 -0.507813,1.13281251 -1.145834,1.13281251 -0.833333,0 -1.328125,-0.67708331 -1.328125,-1.78385421 0,-1.1848958 0.494792,-1.875 1.302084,-1.875 0.625,0 1.028645,0.3645834 1.119791,1.015625 z m 2.529296,-1.5755208 h -0.768229 v -1.2890625 h -0.742187 v 1.2890625 h -0.638021 v 0.6119792 h 0.638021 v 3.55468748 c 0,0.46875 0.3125,0.7421875 0.898437,0.7421875 0.182292,0 0.364584,-0.0260417 0.611979,-0.0651042 v -0.625 c -0.104166,0.0260417 -0.221354,0.0390625 -0.364583,0.0390625 -0.3125,0 -0.403646,-0.0911458 -0.403646,-0.4296875 V -4.0875538 h 0.768229 z m 1.55599,0 H 59.885438 V 9.8784722e-4 h 0.742187 z m 0,-1.8359375 h -0.755208 v 0.9375 h 0.755208 z M 63.827495,9.8784722e-4 65.637391,-4.699533 h -0.846355 l -1.328125,3.81510418 -1.25,-3.81510418 H 61.366557 L 63.020203,9.8784722e-4 Z M 70.347677,-0.44172049 c -0.09115,0.0260417 -0.117187,0.0260417 -0.169271,0.0260417 -0.260416,0 -0.403646,-0.14322917 -0.403646,-0.37760417 V -3.5536997 c 0,-0.8333333 -0.611979,-1.2760416 -1.770833,-1.2760416 -0.677083,0 -1.236979,0.1953125 -1.549479,0.546875 -0.221354,0.234375 -0.3125,0.5078125 -0.325521,0.9765625 h 0.755208 c 0.05208,-0.5729167 0.403646,-0.8333334 1.09375,-0.8333334 0.677084,0 1.054688,0.2473959 1.054688,0.6901042 v 0.2083333 c 0,0.3125 -0.182292,0.4427084 -0.78125,0.5208334 -1.054688,0.1302083 -1.223958,0.1692708 -1.510417,0.2864583 -0.546875,0.2213542 -0.820312,0.6380208 -0.820312,1.25 0,0.85937501 0.585937,1.39322918 1.536458,1.39322918 0.598958,0 1.067708,-0.20833333278 1.601563,-0.69010417 0.05208,0.46875 0.286458,0.69010417 0.768229,0.69010417 0.15625,0 0.273437,-0.0260417 0.520833,-0.078125 z M 69.032573,-1.4833872 c 0,0.2604167 -0.0651,0.4036459 -0.299479,0.61197921 -0.299479,0.28645834 -0.664063,0.4296875 -1.106771,0.4296875 -0.585938,0 -0.924479,-0.28645833 -0.924479,-0.75520831 0,-0.4947917 0.325521,-0.7552084 1.132812,-0.859375 0.78125,-0.1171875 0.950521,-0.1432292 1.197917,-0.2604167 z m 3.776042,-3.2161458 h -0.76823 v -1.2890625 h -0.742187 v 1.2890625 h -0.638021 v 0.6119792 h 0.638021 v 3.55468748 c 0,0.46875 0.3125,0.7421875 0.898437,0.7421875 0.182292,0 0.364584,-0.0260417 0.61198,-0.0651042 v -0.625 c -0.104167,0.0260417 -0.221355,0.0390625 -0.364584,0.0390625 -0.3125,0 -0.403646,-0.0911458 -0.403646,-0.4296875 V -4.0875538 h 0.76823 z m 1.555989,0 H 73.622417 V 9.8784722e-4 h 0.742187 z m 0,-1.8359375 h -0.755208 v 0.9375 h 0.755208 z m 3.082682,1.7057292 c -1.315104,0 -2.109375,0.9375 -2.109375,2.5130208 0,1.58854168 0.78125,2.52604168 2.122396,2.52604168 1.315104,0 2.122396,-0.9375 2.122396,-2.48697918 0,-1.6276042 -0.78125,-2.5520833 -2.135417,-2.5520833 z m 0.01302,0.6901041 c 0.846354,0 1.341146,0.6901042 1.341146,1.8489584 0,1.1067708 -0.520833,1.80989581 -1.341146,1.80989581 -0.833333,0 -1.341146,-0.69010421 -1.341146,-1.83593751 0,-1.1328125 0.507813,-1.8229167 1.341146,-1.8229167 z M 80.62437,-4.699533 V 9.8784722e-4 h 0.755208 V -2.590158 c 0,-0.9635417 0.507813,-1.5885417 1.276042,-1.5885417 0.585937,0 0.963541,0.3515625 0.963541,0.9244792 V 9.8784722e-4 H 84.37437 V -3.5536997 c 0,-0.78125 -0.585938,-1.2760416 -1.497396,-1.2760416 -0.703125,0 -1.145833,0.2604166 -1.5625,0.9244791 V -4.699533 Z m 8.483073,1.71875 h 3.125 v -0.7291667 h -3.125 V -5.8063038 H 92.66213 V -6.5354705 H 88.274109 V 9.8784722e-4 h 0.833334 z M 97.26825,9.8784722e-4 V -4.699533 h -0.742188 v 2.6692708 c 0,0.9505209 -0.507812,1.58854171 -1.289062,1.58854171 -0.585938,0 -0.963542,-0.36458333 -0.963542,-0.92447921 V -4.699533 h -0.742187 v 3.6197917 c 0,0.78124998 0.585937,1.28906248 1.497396,1.28906248 0.690104,0 1.132812,-0.24739583 1.5625,-0.859375 V 9.8784722e-4 Z M 98.557312,-4.699533 V 9.8784722e-4 h 0.755209 V -2.590158 c 0,-0.9635417 0.507812,-1.5885417 1.276039,-1.5885417 0.58594,0 0.96354,0.3515625 0.96354,0.9244792 V 9.8784722e-4 h 0.75521 V -3.5536997 c 0,-0.78125 -0.58594,-1.2760416 -1.49739,-1.2760416 -0.70313,0 -1.145837,0.2604166 -1.562503,0.9244791 V -4.699533 Z m 8.590498,1.5755208 c -0.0391,-0.4557291 -0.14323,-0.7552083 -0.32552,-1.015625 -0.3125,-0.4296875 -0.88542,-0.6901041 -1.53646,-0.6901041 -1.26302,0 -2.09636,1.0026041 -2.09636,2.5651041 0,1.51041671 0.8073,2.47395838 2.08334,2.47395838 1.11979,0 1.83593,-0.67708333 1.92708,-1.82291668 h -0.75521 c -0.13021,0.75520835 -0.50781,1.13281251 -1.14583,1.13281251 -0.83333,0 -1.32813,-0.67708331 -1.32813,-1.78385421 0,-1.1848958 0.4948,-1.875 1.30209,-1.875 0.625,0 1.02864,0.3645834 1.11979,1.015625 z m 2.52929,-1.5755208 h -0.76823 v -1.2890625 h -0.74218 v 1.2890625 h -0.63802 v 0.6119792 h 0.63802 v 3.55468748 c 0,0.46875 0.3125,0.7421875 0.89843,0.7421875 0.1823,0 0.36459,-0.0260417 0.61198,-0.0651042 v -0.625 c -0.10416,0.0260417 -0.22135,0.0390625 -0.36458,0.0390625 -0.3125,0 -0.40365,-0.0911458 -0.40365,-0.4296875 V -4.0875538 h 0.76823 z m 1.55599,0 h -0.74218 V 9.8784722e-4 h 0.74218 z m 0,-1.8359375 h -0.7552 v 0.9375 h 0.7552 z m 3.08269,1.7057292 c -1.31511,0 -2.10938,0.9375 -2.10938,2.5130208 0,1.58854168 0.78125,2.52604168 2.1224,2.52604168 1.3151,0 2.12239,-0.9375 2.12239,-2.48697918 0,-1.6276042 -0.78125,-2.5520833 -2.13541,-2.5520833 z m 0.013,0.6901041 c 0.84635,0 1.34114,0.6901042 1.34114,1.8489584 0,1.1067708 -0.52083,1.80989581 -1.34114,1.80989581 -0.83334,0 -1.34115,-0.69010421 -1.34115,-1.83593751 0,-1.1328125 0.50781,-1.8229167 1.34115,-1.8229167 z m 3.16406,-0.5598958 V 9.8784722e-4 h 0.75521 V -2.590158 c 0,-0.9635417 0.50781,-1.5885417 1.27604,-1.5885417 0.58594,0 0.96354,0.3515625 0.96354,0.9244792 V 9.8784722e-4 h 0.75521 V -3.5536997 c 0,-0.78125 -0.58594,-1.2760416 -1.4974,-1.2760416 -0.70312,0 -1.14583,0.2604166 -1.5625,0.9244791 V -4.699533 Z m 0,0"
       style="fill:#000000;fill-opacity:1;fill-rule:nonzero;stroke:none"
       aria-label="NNwithoutActivationFunction"
       transform="matrix(1.2,0,0,1.2,7.9656,144.26053)" />
    <path
       id="path59"
       d="m 186.89893,21.82715 c 0,3.02629 -2.45323,5.47952 -5.47953,5.47952 -3.02629,0 -5.47952,-2.45323 -5.47952,-5.47952 0,-3.02629 2.45323,-5.47952 5.47952,-5.47952 3.0263,0 5.47953,2.45323 5.47953,5.47952 z"
       style="fill:#00ade7;fill-opacity:1;fill-rule:nonzero;stroke:none"
       transform="matrix(1.2,0,0,-1.2,15.6012,129.62413)" />
    <path
       id="path60"
       d="m 186.6156,41.3865 c 0,3.0263 -2.45323,5.47953 -5.47952,5.47953 -3.02629,0 -5.47952,-2.45323 -5.47952,-5.47953 0,-3.02627 2.45323,-5.47952 5.47952,-5.47952 3.02629,0 5.47952,2.45325 5.47952,5.47952 z"
       style="fill:#00ade7;fill-opacity:1;fill-rule:nonzero;stroke:none"
       transform="matrix(1.2,0,0,-1.2,15.6012,129.62413)" />
    <path
       id="path61"
       d="m 186.6156,57.26067 c 0,3.02629 -2.45323,5.47952 -5.47952,5.47952 -3.02629,0 -5.47952,-2.45323 -5.47952,-5.47952 0,-3.02629 2.45323,-5.47953 5.47952,-5.47953 3.02629,0 5.47952,2.45324 5.47952,5.47953 z"
       style="fill:#00ade7;fill-opacity:1;fill-rule:nonzero;stroke:none"
       transform="matrix(1.2,0,0,-1.2,15.6012,129.62413)" />
    <path
       id="path62"
       d="m 186.04855,71.43407 c 0,3.02629 -2.45323,5.47952 -5.47952,5.47952 -3.02629,0 -5.47952,-2.45323 -5.47952,-5.47952 0,-3.02628 2.45323,-5.47953 5.47952,-5.47953 3.02629,0 5.47952,2.45325 5.47952,5.47953 z"
       style="fill:#00ade7;fill-opacity:1;fill-rule:nonzero;stroke:none"
       transform="matrix(1.2,0,0,-1.2,15.6012,129.62413)" />
    <path
       id="path63"
       d="m 186.04855,83.62299 c 0,3.02629 -2.45323,5.47952 -5.47952,5.47952 -3.02629,0 -5.47952,-2.45323 -5.47952,-5.47952 0,-3.02629 2.45323,-5.47953 5.47952,-5.47953 3.02629,0 5.47952,2.45324 5.47952,5.47953 z"
       style="fill:#00ade7;fill-opacity:1;fill-rule:nonzero;stroke:none"
       transform="matrix(1.2,0,0,-1.2,15.6012,129.62413)" />
    <path
       id="path64"
       d="m 188.8834,94.96198 c 0,3.02629 -2.45322,5.47952 -5.47952,5.47952 -3.02628,0 -5.47952,-2.45323 -5.47952,-5.47952 0,-3.0263 2.45324,-5.47953 5.47952,-5.47953 3.0263,0 5.47952,2.45323 5.47952,5.47953 z"
       style="fill:#00ade7;fill-opacity:1;fill-rule:nonzero;stroke:none"
       transform="matrix(1.2,0,0,-1.2,15.6012,129.62413)" />
    <path
       id="path65"
       d="m 199.37158,11.9056 c 0,3.02628 -2.45323,5.47952 -5.47952,5.47952 -3.02629,0 -5.47952,-2.45324 -5.47952,-5.47952 0,-3.0263 2.45323,-5.47953 5.47952,-5.47953 3.02629,0 5.47952,2.45323 5.47952,5.47953 z"
       style="fill:#00ade7;fill-opacity:1;fill-rule:nonzero;stroke:none"
       transform="matrix(1.2,0,0,-1.2,15.6012,129.62413)" />
    <path
       id="path66"
       d="m 194.836,30.8979 c 0,3.0263 -2.45323,5.47953 -5.47952,5.47953 -3.0263,0 -5.47953,-2.45323 -5.47953,-5.47953 0,-3.02629 2.45323,-5.47952 5.47953,-5.47952 3.02629,0 5.47952,2.45323 5.47952,5.47952 z"
       style="fill:#00ade7;fill-opacity:1;fill-rule:nonzero;stroke:none"
       transform="matrix(1.2,0,0,-1.2,15.6012,129.62413)" />
    <path
       id="path67"
       d="m 195.40305,48.75653 c 0,3.02629 -2.45324,5.47952 -5.47953,5.47952 -3.02629,0 -5.47952,-2.45323 -5.47952,-5.47952 0,-3.02627 2.45323,-5.47952 5.47952,-5.47952 3.02629,0 5.47953,2.45325 5.47953,5.47952 z"
       style="fill:#00ade7;fill-opacity:1;fill-rule:nonzero;stroke:none"
       transform="matrix(1.2,0,0,-1.2,15.6012,129.62413)" />
    <path
       id="path68"
       d="m 196.53716,66.89847 c 0,3.02629 -2.45324,5.47952 -5.47953,5.47952 -3.02629,0 -5.47952,-2.45323 -5.47952,-5.47952 0,-3.02629 2.45323,-5.47952 5.47952,-5.47952 3.02629,0 5.47953,2.45323 5.47953,5.47952 z"
       style="fill:#00ade7;fill-opacity:1;fill-rule:nonzero;stroke:none"
       transform="matrix(1.2,0,0,-1.2,15.6012,129.62413)" />
    <path
       id="path69"
       d="m 197.38753,78.80408 c 0,3.02629 -2.45323,5.47952 -5.47953,5.47952 -3.02629,0 -5.47952,-2.45323 -5.47952,-5.47952 0,-3.02628 2.45323,-5.47953 5.47952,-5.47953 3.0263,0 5.47953,2.45325 5.47953,5.47953 z"
       style="fill:#00ade7;fill-opacity:1;fill-rule:nonzero;stroke:none"
       transform="matrix(1.2,0,0,-1.2,15.6012,129.62413)" />
    <path
       id="path70"
       d="m 199.65533,90.14264 c 0,3.02627 -2.45324,5.47952 -5.47952,5.47952 -3.02629,0 -5.47952,-2.45325 -5.47952,-5.47952 0,-3.02629 2.45323,-5.47952 5.47952,-5.47952 3.02628,0 5.47952,2.45323 5.47952,5.47952 z"
       style="fill:#00ade7;fill-opacity:1;fill-rule:nonzero;stroke:none"
       transform="matrix(1.2,0,0,-1.2,15.6012,129.62413)" />
    <path
       id="path71"
       d="m 208.44276,97.51308 c 0,3.02629 -2.45323,5.47952 -5.47952,5.47952 -3.02627,0 -5.47952,-2.45323 -5.47952,-5.47952 0,-3.02628 2.45325,-5.47953 5.47952,-5.47953 3.02629,0 5.47952,2.45325 5.47952,5.47953 z"
       style="fill:#00ade7;fill-opacity:1;fill-rule:nonzero;stroke:none"
       transform="matrix(1.2,0,0,-1.2,15.6012,129.62413)" />
    <path
       id="path72"
       d="m 214.39537,10.20485 c 0,3.02629 -2.45325,5.47952 -5.47952,5.47952 -3.02629,0 -5.47952,-2.45323 -5.47952,-5.47952 0,-3.02629 2.45323,-5.47952 5.47952,-5.47952 3.02627,0 5.47952,2.45323 5.47952,5.47952 z"
       style="fill:#00ade7;fill-opacity:1;fill-rule:nonzero;stroke:none"
       transform="matrix(1.2,0,0,-1.2,15.6012,129.62413)" />
    <path
       id="path73"
       d="m 207.8757,23.24458 c 0,3.02628 -2.45323,5.47952 -5.47952,5.47952 -3.02629,0 -5.47952,-2.45324 -5.47952,-5.47952 0,-3.02629 2.45323,-5.47952 5.47952,-5.47952 3.02629,0 5.47952,2.45323 5.47952,5.47952 z"
       style="fill:#00ade7;fill-opacity:1;fill-rule:nonzero;stroke:none"
       transform="matrix(1.2,0,0,-1.2,15.6012,129.62413)" />
    <path
       id="path74"
       d="m 206.17497,41.66983 c 0,3.02629 -2.45323,5.47952 -5.47952,5.47952 -3.02629,0 -5.47952,-2.45323 -5.47952,-5.47952 0,-3.02629 2.45323,-5.47953 5.47952,-5.47953 3.02629,0 5.47952,2.45324 5.47952,5.47953 z"
       style="fill:#00ade7;fill-opacity:1;fill-rule:nonzero;stroke:none"
       transform="matrix(1.2,0,0,-1.2,15.6012,129.62413)" />
    <path
       id="path75"
       d="m 204.47423,55.84323 c 0,3.02629 -2.45323,5.47952 -5.47953,5.47952 -3.02627,0 -5.47952,-2.45323 -5.47952,-5.47952 0,-3.02629 2.45325,-5.47952 5.47952,-5.47952 3.0263,0 5.47953,2.45323 5.47953,5.47952 z"
       style="fill:#00ade7;fill-opacity:1;fill-rule:nonzero;stroke:none"
       transform="matrix(1.2,0,0,-1.2,15.6012,129.62413)" />
    <path
       id="path76"
       d="m 216.66315,59.52846 c 0,3.02629 -2.45323,5.47952 -5.47953,5.47952 -3.02629,0 -5.47952,-2.45323 -5.47952,-5.47952 0,-3.02629 2.45323,-5.47953 5.47952,-5.47953 3.0263,0 5.47953,2.45324 5.47953,5.47953 z"
       style="fill:#00ade7;fill-opacity:1;fill-rule:nonzero;stroke:none"
       transform="matrix(1.2,0,0,-1.2,15.6012,129.62413)" />
    <path
       id="path77"
       d="m 208.44276,67.74884 c 0,3.02629 -2.45323,5.47952 -5.47952,5.47952 -3.02627,0 -5.47952,-2.45323 -5.47952,-5.47952 0,-3.02629 2.45325,-5.47952 5.47952,-5.47952 3.02629,0 5.47952,2.45323 5.47952,5.47952 z"
       style="fill:#00ade7;fill-opacity:1;fill-rule:nonzero;stroke:none"
       transform="matrix(1.2,0,0,-1.2,15.6012,129.62413)" />
    <path
       id="path78"
       d="m 211.27719,82.20555 c 0,3.02629 -2.45323,5.47952 -5.47952,5.47952 -3.02629,0 -5.47952,-2.45323 -5.47952,-5.47952 0,-3.02627 2.45323,-5.47952 5.47952,-5.47952 3.02629,0 5.47952,2.45325 5.47952,5.47952 z"
       style="fill:#00ade7;fill-opacity:1;fill-rule:nonzero;stroke:none"
       transform="matrix(1.2,0,0,-1.2,15.6012,129.62413)" />
    <path
       id="path79"
       d="m 219.78131,93.54454 c 0,3.02629 -2.45323,5.47952 -5.47952,5.47952 -3.02628,0 -5.47952,-2.45323 -5.47952,-5.47952 0,-3.02628 2.45324,-5.47952 5.47952,-5.47952 3.02629,0 5.47952,2.45324 5.47952,5.47952 z"
       style="fill:#00ade7;fill-opacity:1;fill-rule:nonzero;stroke:none"
       transform="matrix(1.2,0,0,-1.2,15.6012,129.62413)" />
    <path
       id="path80"
       d="m 229.13582,67.1818 c 0,3.02628 -2.45323,5.47952 -5.47952,5.47952 -3.02628,0 -5.47953,-2.45324 -5.47953,-5.47952 0,-3.0263 2.45325,-5.47953 5.47953,-5.47953 3.02629,0 5.47952,2.45323 5.47952,5.47953 z"
       style="fill:#00ade7;fill-opacity:1;fill-rule:nonzero;stroke:none"
       transform="matrix(1.2,0,0,-1.2,15.6012,129.62413)" />
    <path
       id="path81"
       d="m 222.04912,76.53629 c 0,3.02629 -2.45323,5.47952 -5.47952,5.47952 -3.0263,0 -5.47953,-2.45323 -5.47953,-5.47952 0,-3.02629 2.45323,-5.47953 5.47953,-5.47953 3.02629,0 5.47952,2.45324 5.47952,5.47953 z"
       style="fill:#00ade7;fill-opacity:1;fill-rule:nonzero;stroke:none"
       transform="matrix(1.2,0,0,-1.2,15.6012,129.62413)" />
    <path
       id="path82"
       d="m 234.8051,83.90674 c 0,3.02629 -2.45323,5.47952 -5.47952,5.47952 -3.02629,0 -5.47953,-2.45323 -5.47953,-5.47952 0,-3.02629 2.45324,-5.47952 5.47953,-5.47952 3.02629,0 5.47952,2.45323 5.47952,5.47952 z"
       style="fill:#00ade7;fill-opacity:1;fill-rule:nonzero;stroke:none"
       transform="matrix(1.2,0,0,-1.2,15.6012,129.62413)" />
    <path
       id="path83"
       d="m 232.254,95.5286 c 0,3.02629 -2.45323,5.47952 -5.47952,5.47952 -3.0263,0 -5.47953,-2.45323 -5.47953,-5.47952 0,-3.02628 2.45323,-5.47953 5.47953,-5.47953 3.02629,0 5.47952,2.45325 5.47952,5.47953 z"
       style="fill:#00ade7;fill-opacity:1;fill-rule:nonzero;stroke:none"
       transform="matrix(1.2,0,0,-1.2,15.6012,129.62413)" />
    <path
       id="path84"
       d="m 248.41187,66.04811 c 0,3.02628 -2.45324,5.47952 -5.47953,5.47952 -3.02627,0 -5.47952,-2.45324 -5.47952,-5.47952 0,-3.02629 2.45325,-5.47952 5.47952,-5.47952 3.02629,0 5.47953,2.45323 5.47953,5.47952 z"
       style="fill:#00ade7;fill-opacity:1;fill-rule:nonzero;stroke:none"
       transform="matrix(1.2,0,0,-1.2,15.6012,129.62413)" />
    <path
       id="path85"
       d="m 262.86859,62.36288 c 0,3.0263 -2.45323,5.47952 -5.47952,5.47952 -3.02629,0 -5.47952,-2.45322 -5.47952,-5.47952 0,-3.02628 2.45323,-5.47952 5.47952,-5.47952 3.02629,0 5.47952,2.45324 5.47952,5.47952 z"
       style="fill:#00ade7;fill-opacity:1;fill-rule:nonzero;stroke:none"
       transform="matrix(1.2,0,0,-1.2,15.6012,129.62413)" />
    <path
       id="path86"
       d="m 272.5064,68.59921 c 0,3.02629 -2.45324,5.47953 -5.47953,5.47953 -3.02627,0 -5.47952,-2.45324 -5.47952,-5.47953 0,-3.02629 2.45325,-5.47952 5.47952,-5.47952 3.02629,0 5.47953,2.45323 5.47953,5.47952 z"
       style="fill:#00ade7;fill-opacity:1;fill-rule:nonzero;stroke:none"
       transform="matrix(1.2,0,0,-1.2,15.6012,129.62413)" />
    <path
       id="path87"
       d="m 267.6875,86.74117 c 0,3.02627 -2.45325,5.47952 -5.47952,5.47952 -3.02629,0 -5.47953,-2.45325 -5.47953,-5.47952 0,-3.0263 2.45324,-5.47953 5.47953,-5.47953 3.02627,0 5.47952,2.45323 5.47952,5.47953 z"
       style="fill:#00ade7;fill-opacity:1;fill-rule:nonzero;stroke:none"
       transform="matrix(1.2,0,0,-1.2,15.6012,129.62413)" />
    <path
       id="path88"
       d="m 259.46712,77.95372 c 0,3.02629 -2.45323,5.47952 -5.47952,5.47952 -3.0263,0 -5.47953,-2.45323 -5.47953,-5.47952 0,-3.02629 2.45323,-5.47952 5.47953,-5.47952 3.02629,0 5.47952,2.45323 5.47952,5.47952 z"
       style="fill:#00ade7;fill-opacity:1;fill-rule:nonzero;stroke:none"
       transform="matrix(1.2,0,0,-1.2,15.6012,129.62413)" />
    <path
       id="path89"
       d="m 245.86032,77.38666 c 0,3.02627 -2.45323,5.47952 -5.47952,5.47952 -3.02628,0 -5.47952,-2.45325 -5.47952,-5.47952 0,-3.02629 2.45324,-5.47952 5.47952,-5.47952 3.02629,0 5.47952,2.45323 5.47952,5.47952 z"
       style="fill:#00ade7;fill-opacity:1;fill-rule:nonzero;stroke:none"
       transform="matrix(1.2,0,0,-1.2,15.6012,129.62413)" />
    <path
       id="path90"
       d="m 252.38042,88.72565 c 0,3.02627 -2.45325,5.47952 -5.47952,5.47952 -3.0263,0 -5.47953,-2.45325 -5.47953,-5.47952 0,-3.02629 2.45323,-5.47953 5.47953,-5.47953 3.02627,0 5.47952,2.45324 5.47952,5.47953 z"
       style="fill:#00ade7;fill-opacity:1;fill-rule:nonzero;stroke:none"
       transform="matrix(1.2,0,0,-1.2,15.6012,129.62413)" />
    <path
       id="path91"
       d="m 244.72665,97.51308 c 0,3.02629 -2.45323,5.47952 -5.47952,5.47952 -3.02629,0 -5.47952,-2.45323 -5.47952,-5.47952 0,-3.02628 2.45323,-5.47953 5.47952,-5.47953 3.02629,0 5.47952,2.45325 5.47952,5.47953 z"
       style="fill:#00ade7;fill-opacity:1;fill-rule:nonzero;stroke:none"
       transform="matrix(1.2,0,0,-1.2,15.6012,129.62413)" />
    <path
       id="path92"
       d="m 262.58528,98.64676 c 0,3.02629 -2.45323,5.47952 -5.47952,5.47952 -3.02629,0 -5.47952,-2.45323 -5.47952,-5.47952 0,-3.02629 2.45323,-5.47952 5.47952,-5.47952 3.02629,0 5.47952,2.45323 5.47952,5.47952 z"
       style="fill:#00ade7;fill-opacity:1;fill-rule:nonzero;stroke:none"
       transform="matrix(1.2,0,0,-1.2,15.6012,129.62413)" />
    <path
       id="path93"
       d="m 227.43507,10.20485 c 0,3.02629 -2.45323,5.47952 -5.47952,5.47952 -3.02629,0 -5.47952,-2.45323 -5.47952,-5.47952 0,-3.02629 2.45323,-5.47952 5.47952,-5.47952 3.02629,0 5.47952,2.45323 5.47952,5.47952 z"
       style="fill:#88c946;fill-opacity:1;fill-rule:nonzero;stroke:none"
       transform="matrix(1.2,0,0,-1.2,15.6012,129.62413)" />
    <path
       id="path94"
       d="m 240.47437,9.92155 c 0,3.02628 -2.45324,5.47953 -5.47953,5.47953 -3.02627,0 -5.47952,-2.45325 -5.47952,-5.47953 0,-3.02629 2.45325,-5.47952 5.47952,-5.47952 3.02629,0 5.47953,2.45323 5.47953,5.47952 z"
       style="fill:#88c946;fill-opacity:1;fill-rule:nonzero;stroke:none"
       transform="matrix(1.2,0,0,-1.2,15.6012,129.62413)" />
    <path
       id="path95"
       d="m 252.38042,9.92155 c 0,3.02628 -2.45325,5.47953 -5.47952,5.47953 -3.0263,0 -5.47953,-2.45325 -5.47953,-5.47953 0,-3.02629 2.45323,-5.47952 5.47953,-5.47952 3.02627,0 5.47952,2.45323 5.47952,5.47952 z"
       style="fill:#88c946;fill-opacity:1;fill-rule:nonzero;stroke:none"
       transform="matrix(1.2,0,0,-1.2,15.6012,129.62413)" />
    <path
       id="path96"
       d="m 271.37273,9.92155 c 0,3.02628 -2.45323,5.47953 -5.47953,5.47953 -3.02629,0 -5.47952,-2.45325 -5.47952,-5.47953 0,-3.02629 2.45323,-5.47952 5.47952,-5.47952 3.0263,0 5.47953,2.45323 5.47953,5.47952 z"
       style="fill:#88c946;fill-opacity:1;fill-rule:nonzero;stroke:none"
       transform="matrix(1.2,0,0,-1.2,15.6012,129.62413)" />
    <path
       id="path97"
       d="m 271.93935,22.67752 c 0,3.02628 -2.45324,5.47952 -5.47953,5.47952 -3.02627,0 -5.47952,-2.45324 -5.47952,-5.47952 0,-3.02629 2.45325,-5.47952 5.47952,-5.47952 3.02629,0 5.47953,2.45323 5.47953,5.47952 z"
       style="fill:#88c946;fill-opacity:1;fill-rule:nonzero;stroke:none"
       transform="matrix(1.2,0,0,-1.2,15.6012,129.62413)" />
    <path
       id="path98"
       d="m 271.65604,38.26836 c 0,3.02629 -2.45324,5.47952 -5.47953,5.47952 -3.02629,0 -5.47952,-2.45323 -5.47952,-5.47952 0,-3.02629 2.45323,-5.47953 5.47952,-5.47953 3.02629,0 5.47953,2.45324 5.47953,5.47953 z"
       style="fill:#88c946;fill-opacity:1;fill-rule:nonzero;stroke:none"
       transform="matrix(1.2,0,0,-1.2,15.6012,129.62413)" />
    <path
       id="path99"
       d="m 272.2231,53.85875 c 0,3.02629 -2.45323,5.47952 -5.47952,5.47952 -3.02629,0 -5.47953,-2.45323 -5.47953,-5.47952 0,-3.02629 2.45324,-5.47952 5.47953,-5.47952 3.02629,0 5.47952,2.45323 5.47952,5.47952 z"
       style="fill:#88c946;fill-opacity:1;fill-rule:nonzero;stroke:none"
       transform="matrix(1.2,0,0,-1.2,15.6012,129.62413)" />
    <path
       id="path100"
       d="m 262.58528,45.92168 c 0,3.02629 -2.45323,5.47952 -5.47952,5.47952 -3.02629,0 -5.47952,-2.45323 -5.47952,-5.47952 0,-3.02629 2.45323,-5.47953 5.47952,-5.47953 3.02629,0 5.47952,2.45324 5.47952,5.47953 z"
       style="fill:#88c946;fill-opacity:1;fill-rule:nonzero;stroke:none"
       transform="matrix(1.2,0,0,-1.2,15.6012,129.62413)" />
    <path
       id="path101"
       d="m 248.9785,51.59138 c 0,3.0263 -2.45323,5.47952 -5.47952,5.47952 -3.02629,0 -5.47953,-2.45322 -5.47953,-5.47952 0,-3.02628 2.45324,-5.47952 5.47953,-5.47952 3.02629,0 5.47952,2.45324 5.47952,5.47952 z"
       style="fill:#88c946;fill-opacity:1;fill-rule:nonzero;stroke:none"
       transform="matrix(1.2,0,0,-1.2,15.6012,129.62413)" />
    <path
       id="path102"
       d="m 237.63995,56.12654 c 0,3.02629 -2.45325,5.47952 -5.47952,5.47952 -3.02629,0 -5.47952,-2.45323 -5.47952,-5.47952 0,-3.02627 2.45323,-5.47952 5.47952,-5.47952 3.02627,0 5.47952,2.45325 5.47952,5.47952 z"
       style="fill:#88c946;fill-opacity:1;fill-rule:nonzero;stroke:none"
       transform="matrix(1.2,0,0,-1.2,15.6012,129.62413)" />
    <path
       id="path103"
       d="m 226.30096,47.33911 c 0,3.02628 -2.45323,5.47952 -5.47952,5.47952 -3.02629,0 -5.47952,-2.45324 -5.47952,-5.47952 0,-3.02629 2.45323,-5.47952 5.47952,-5.47952 3.02629,0 5.47952,2.45323 5.47952,5.47952 z"
       style="fill:#88c946;fill-opacity:1;fill-rule:nonzero;stroke:none"
       transform="matrix(1.2,0,0,-1.2,15.6012,129.62413)" />
    <path
       id="path104"
       d="m 218.64764,35.43349 c 0,3.02629 -2.45323,5.47952 -5.47952,5.47952 -3.02629,0 -5.47952,-2.45323 -5.47952,-5.47952 0,-3.02628 2.45323,-5.47953 5.47952,-5.47953 3.02629,0 5.47952,2.45325 5.47952,5.47953 z"
       style="fill:#88c946;fill-opacity:1;fill-rule:nonzero;stroke:none"
       transform="matrix(1.2,0,0,-1.2,15.6012,129.62413)" />
    <path
       id="path105"
       d="m 222.61617,22.67752 c 0,3.02628 -2.45324,5.47952 -5.47953,5.47952 -3.02629,0 -5.47952,-2.45324 -5.47952,-5.47952 0,-3.02629 2.45323,-5.47952 5.47952,-5.47952 3.02629,0 5.47953,2.45323 5.47953,5.47952 z"
       style="fill:#88c946;fill-opacity:1;fill-rule:nonzero;stroke:none"
       transform="matrix(1.2,0,0,-1.2,15.6012,129.62413)" />
    <path
       id="path106"
       d="m 235.93921,20.40973 c 0,3.02629 -2.45323,5.47952 -5.47952,5.47952 -3.02629,0 -5.47953,-2.45323 -5.47953,-5.47952 0,-3.02629 2.45324,-5.47953 5.47953,-5.47953 3.02629,0 5.47952,2.45324 5.47952,5.47953 z"
       style="fill:#88c946;fill-opacity:1;fill-rule:nonzero;stroke:none"
       transform="matrix(1.2,0,0,-1.2,15.6012,129.62413)" />
    <path
       id="path107"
       d="m 250.11261,20.97678 c 0,3.02629 -2.45323,5.47952 -5.47952,5.47952 -3.02629,0 -5.47953,-2.45323 -5.47953,-5.47952 0,-3.02629 2.45324,-5.47953 5.47953,-5.47953 3.02629,0 5.47952,2.45324 5.47952,5.47953 z"
       style="fill:#88c946;fill-opacity:1;fill-rule:nonzero;stroke:none"
       transform="matrix(1.2,0,0,-1.2,15.6012,129.62413)" />
    <path
       id="path108"
       d="m 261.73448,16.72449 c 0,3.02629 -2.45325,5.47952 -5.47952,5.47952 -3.02629,0 -5.47952,-2.45323 -5.47952,-5.47952 0,-3.02628 2.45323,-5.47953 5.47952,-5.47953 3.02627,0 5.47952,2.45325 5.47952,5.47953 z"
       style="fill:#88c946;fill-opacity:1;fill-rule:nonzero;stroke:none"
       transform="matrix(1.2,0,0,-1.2,15.6012,129.62413)" />
    <path
       id="path109"
       d="m 261.16785,28.06348 c 0,3.02629 -2.45324,5.47952 -5.47953,5.47952 -3.02627,0 -5.47952,-2.45323 -5.47952,-5.47952 0,-3.02628 2.45325,-5.47953 5.47952,-5.47953 3.02629,0 5.47953,2.45325 5.47953,5.47953 z"
       style="fill:#88c946;fill-opacity:1;fill-rule:nonzero;stroke:none"
       transform="matrix(1.2,0,0,-1.2,15.6012,129.62413)" />
    <path
       id="path110"
       d="m 252.66373,36.28386 c 0,3.02629 -2.45323,5.47952 -5.47953,5.47952 -3.02629,0 -5.47952,-2.45323 -5.47952,-5.47952 0,-3.02629 2.45323,-5.47952 5.47952,-5.47952 3.0263,0 5.47953,2.45323 5.47953,5.47952 z"
       style="fill:#88c946;fill-opacity:1;fill-rule:nonzero;stroke:none"
       transform="matrix(1.2,0,0,-1.2,15.6012,129.62413)" />
    <path
       id="path111"
       d="m 240.47437,41.95314 c 0,3.02629 -2.45324,5.47952 -5.47953,5.47952 -3.02627,0 -5.47952,-2.45323 -5.47952,-5.47952 0,-3.02629 2.45325,-5.47952 5.47952,-5.47952 3.02629,0 5.47953,2.45323 5.47953,5.47952 z"
       style="fill:#88c946;fill-opacity:1;fill-rule:nonzero;stroke:none"
       transform="matrix(1.2,0,0,-1.2,15.6012,129.62413)" />
    <path
       id="path112"
       d="m 230.83656,32.59865 c 0,3.02629 -2.45323,5.47952 -5.47952,5.47952 -3.02629,0 -5.47952,-2.45323 -5.47952,-5.47952 0,-3.02629 2.45323,-5.47952 5.47952,-5.47952 3.02629,0 5.47952,2.45323 5.47952,5.47952 z"
       style="fill:#88c946;fill-opacity:1;fill-rule:nonzero;stroke:none"
       transform="matrix(1.2,0,0,-1.2,15.6012,129.62413)" />
    <path
       id="path113"
       d="m 242.45885,30.33128 c 0,3.02629 -2.45323,5.47952 -5.47953,5.47952 -3.02627,0 -5.47952,-2.45323 -5.47952,-5.47952 0,-3.02628 2.45325,-5.47952 5.47952,-5.47952 3.0263,0 5.47953,2.45324 5.47953,5.47952 z"
       style="fill:#88c946;fill-opacity:1;fill-rule:nonzero;stroke:none"
       transform="matrix(1.2,0,0,-1.2,15.6012,129.62413)" />
    <path
       id="path114"
       d="M 172.06517,1.41751 H 277.2319 V 107.15076 H 172.06517 Z"
       style="fill:none;stroke:#000000;stroke-width:1.74348;stroke-linecap:butt;stroke-linejoin:round;stroke-miterlimit:10;stroke-dasharray:none;stroke-opacity:1"
       transform="matrix(1.2,0,0,-1.2,15.6012,129.62413)" />
    <path
       id="path115"
       d="m 213.95685,0.54576 c 0,3.81122 1.47883,5.84786 1.47883,9.65907 0,5.46347 -4.72058,7.37571 -5.66928,12.75621 -2.12071,5.82659 -5.93486,10.22083 -2.83462,15.59063 2.32939,6.39987 3.85361,10.50431 9.07075,14.88211 4.89743,2.82751 6.5918,6.28622 11.90583,8.22039 5.27215,3.04387 9.58665,-0.75228 15.30729,-2.83444 6.93482,-2.52409 13.19745,-5.45262 18.85066,-0.70892 1.12316,1.94537 2.87356,1.99501 4.81891,3.11816 l 11.21842,3.80349"
       style="fill:none;stroke:#ff0000;stroke-width:1.99255;stroke-linecap:butt;stroke-linejoin:round;stroke-miterlimit:10;stroke-dasharray:none;stroke-opacity:1"
       transform="matrix(1.2,0,0,-1.2,15.6012,129.62413)" />
    <path
       id="path116"
       d="M 5.7954896,-6.5354705 H 5.0012187 v 5.3385417 L 1.5897604,-6.5354705 H 0.67830208 V 9.8784722e-4 H 1.4725729 V -5.2984913 L 4.8579896,9.8784722e-4 h 0.9375 z m 6.4713544,0 h -0.794271 v 5.3385417 L 8.0611146,-6.5354705 H 7.1496562 V 9.8784722e-4 H 7.9439271 V -5.2984913 L 11.329344,9.8784722e-4 h 0.9375 z M 20.41463,9.8784722e-4 21.794839,-4.699533 h -0.846355 l -0.9375,3.6588542 -0.924479,-3.6588542 h -0.911458 l -0.898438,3.6588542 -0.95052,-3.6588542 h -0.833334 l 1.367188,4.70052084722 h 0.846354 L 18.604734,-3.683908 19.555255,9.8784722e-4 Z M 23.256427,-4.699533 H 22.51424 V 9.8784722e-4 h 0.742187 z m 0,-1.8359375 h -0.755208 v 0.9375 h 0.755208 z m 2.926432,1.8359375 H 25.41463 v -1.2890625 h -0.742187 v 1.2890625 h -0.638021 v 0.6119792 h 0.638021 v 3.55468748 c 0,0.46875 0.3125,0.7421875 0.898437,0.7421875 0.182292,0 0.364584,-0.0260417 0.611979,-0.0651042 v -0.625 c -0.104166,0.0260417 -0.221354,0.0390625 -0.364583,0.0390625 -0.3125,0 -0.403646,-0.0911458 -0.403646,-0.4296875 V -4.0875538 h 0.768229 z m 0.839844,-1.8359375 V 9.8784722e-4 h 0.742188 V -2.590158 c 0,-0.9635417 0.507812,-1.5885417 1.276041,-1.5885417 0.247396,0 0.481771,0.078125 0.664063,0.2083334 0.221354,0.15625 0.3125,0.3776041 0.3125,0.7161458 V 9.8784722e-4 h 0.742187 V -3.5536997 c 0,-0.78125 -0.572916,-1.2760416 -1.484375,-1.2760416 -0.664062,0 -1.067708,0.1953125 -1.510416,0.78125 v -2.4869792 z m 11.110026,4.5703125 0.664063,1.96614584722 h 0.9375 L 37.442625,-6.5354705 H 36.361896 L 34.031167,9.8784722e-4 h 0.885416 L 35.606687,-1.965158 Z m -0.234375,-0.703125 h -2.083333 l 1.080729,-2.96875 z m 6.188151,-0.4557292 c -0.03906,-0.4557291 -0.143229,-0.7552083 -0.325521,-1.015625 -0.3125,-0.4296875 -0.885416,-0.6901041 -1.536458,-0.6901041 -1.263021,0 -2.096354,1.0026041 -2.096354,2.5651041 0,1.51041671 0.807292,2.47395838 2.083333,2.47395838 1.119792,0 1.835938,-0.67708333 1.927084,-1.82291668 H 43.38338 c -0.130208,0.75520835 -0.507812,1.13281251 -1.145833,1.13281251 -0.833333,0 -1.328125,-0.67708331 -1.328125,-1.78385421 0,-1.1848958 0.494792,-1.875 1.302083,-1.875 0.625,0 1.028646,0.3645834 1.119792,1.015625 z m 2.529297,-1.5755208 h -0.768229 v -1.2890625 h -0.742188 v 1.2890625 h -0.63802 v 0.6119792 h 0.63802 v 3.55468748 c 0,0.46875 0.3125,0.7421875 0.898438,0.7421875 0.182292,0 0.364583,-0.0260417 0.611979,-0.0651042 v -0.625 c -0.104167,0.0260417 -0.221354,0.0390625 -0.364583,0.0390625 -0.3125,0 -0.403646,-0.0911458 -0.403646,-0.4296875 V -4.0875538 h 0.768229 z m 1.55599,0 H 47.429604 V 9.8784722e-4 h 0.742188 z m 0,-1.8359375 h -0.755209 v 0.9375 h 0.755209 z M 51.374917,9.8784722e-4 53.184812,-4.699533 h -0.846354 l -1.328125,3.81510418 -1.25,-3.81510418 H 48.913979 L 50.567625,9.8784722e-4 Z M 57.885333,-0.44172049 c -0.09115,0.0260417 -0.117187,0.0260417 -0.169271,0.0260417 -0.260416,0 -0.403645,-0.14322917 -0.403645,-0.37760417 V -3.5536997 c 0,-0.8333333 -0.61198,-1.2760416 -1.770834,-1.2760416 -0.677083,0 -1.236979,0.1953125 -1.549479,0.546875 -0.221354,0.234375 -0.3125,0.5078125 -0.325521,0.9765625 h 0.755209 c 0.05208,-0.5729167 0.403645,-0.8333334 1.09375,-0.8333334 0.677083,0 1.054687,0.2473959 1.054687,0.6901042 v 0.2083333 c 0,0.3125 -0.182292,0.4427084 -0.78125,0.5208334 -1.054687,0.1302083 -1.223958,0.1692708 -1.510417,0.2864583 -0.546875,0.2213542 -0.820312,0.6380208 -0.820312,1.25 0,0.85937501 0.585937,1.39322918 1.536458,1.39322918 0.598959,0 1.067709,-0.20833333278 1.601563,-0.69010417 0.05208,0.46875 0.286458,0.69010417 0.768229,0.69010417 0.15625,0 0.273437,-0.0260417 0.520833,-0.078125 z M 56.570229,-1.4833872 c 0,0.2604167 -0.0651,0.4036459 -0.299479,0.61197921 -0.299479,0.28645834 -0.664063,0.4296875 -1.106771,0.4296875 -0.585937,0 -0.924479,-0.28645833 -0.924479,-0.75520831 0,-0.4947917 0.325521,-0.7552084 1.132812,-0.859375 0.78125,-0.1171875 0.950521,-0.1432292 1.197917,-0.2604167 z m 3.776042,-3.2161458 h -0.768229 v -1.2890625 h -0.742188 v 1.2890625 h -0.638021 v 0.6119792 h 0.638021 v 3.55468748 c 0,0.46875 0.3125,0.7421875 0.898438,0.7421875 0.182291,0 0.364583,-0.0260417 0.611979,-0.0651042 v -0.625 c -0.104167,0.0260417 -0.221354,0.0390625 -0.364584,0.0390625 -0.3125,0 -0.403645,-0.0911458 -0.403645,-0.4296875 V -4.0875538 h 0.768229 z m 1.552734,0 H 61.156818 V 9.8784722e-4 h 0.742187 z m 0,-1.8359375 h -0.755208 v 0.9375 h 0.755208 z m 3.085938,1.7057292 c -1.315104,0 -2.109375,0.9375 -2.109375,2.5130208 0,1.58854168 0.78125,2.52604168 2.122396,2.52604168 1.315104,0 2.122395,-0.9375 2.122395,-2.48697918 0,-1.6276042 -0.78125,-2.5520833 -2.135416,-2.5520833 z m 0.01302,0.6901041 c 0.846354,0 1.341145,0.6901042 1.341145,1.8489584 0,1.1067708 -0.520833,1.80989581 -1.341145,1.80989581 -0.833334,0 -1.341146,-0.69010421 -1.341146,-1.83593751 0,-1.1328125 0.507812,-1.8229167 1.341146,-1.8229167 z M 68.158771,-4.699533 V 9.8784722e-4 h 0.755208 V -2.590158 c 0,-0.9635417 0.507813,-1.5885417 1.276042,-1.5885417 0.585937,0 0.963541,0.3515625 0.963541,0.9244792 V 9.8784722e-4 h 0.755209 V -3.5536997 c 0,-0.78125 -0.585938,-1.2760416 -1.497396,-1.2760416 -0.703125,0 -1.145833,0.2604166 -1.5625,0.9244791 V -4.699533 Z m 8.486328,1.71875 h 3.125 v -0.7291667 h -3.125 v -2.0963541 h 3.554687 v -0.7291667 h -4.38802 V 9.8784722e-4 h 0.833333 z M 84.805906,9.8784722e-4 V -4.699533 h -0.742187 v 2.6692708 c 0,0.9505209 -0.507813,1.58854171 -1.289063,1.58854171 -0.585937,0 -0.963541,-0.36458333 -0.963541,-0.92447921 V -4.699533 h -0.742188 v 3.6197917 c 0,0.78124998 0.585938,1.28906248 1.497396,1.28906248 0.690104,0 1.132812,-0.24739583 1.5625,-0.859375 V 9.8784722e-4 Z M 86.091714,-4.699533 V 9.8784722e-4 h 0.755208 V -2.590158 c 0,-0.9635417 0.507812,-1.5885417 1.276042,-1.5885417 0.585937,0 0.963541,0.3515625 0.963541,0.9244792 V 9.8784722e-4 h 0.755209 V -3.5536997 c 0,-0.78125 -0.585938,-1.2760416 -1.497396,-1.2760416 -0.703125,0 -1.145834,0.2604166 -1.5625,0.9244791 V -4.699533 Z m 8.59375,1.5755208 c -0.03906,-0.4557291 -0.14323,-0.7552083 -0.325521,-1.015625 -0.3125,-0.4296875 -0.885417,-0.6901041 -1.536459,-0.6901041 -1.26302,0 -2.096354,1.0026041 -2.096354,2.5651041 0,1.51041671 0.807292,2.47395838 2.083334,2.47395838 1.119791,0 1.835937,-0.67708333 1.927083,-1.82291668 h -0.755208 c -0.130209,0.75520835 -0.507813,1.13281251 -1.145834,1.13281251 -0.833333,0 -1.328125,-0.67708331 -1.328125,-1.78385421 0,-1.1848958 0.494792,-1.875 1.302084,-1.875 0.625,0 1.028645,0.3645834 1.119791,1.015625 z M 97.21476,-4.699533 h -0.768229 v -1.2890625 h -0.742187 v 1.2890625 h -0.638021 v 0.6119792 h 0.638021 v 3.55468748 c 0,0.46875 0.3125,0.7421875 0.898437,0.7421875 0.182292,0 0.364584,-0.0260417 0.611979,-0.0651042 v -0.625 c -0.104166,0.0260417 -0.221354,0.0390625 -0.364583,0.0390625 -0.3125,0 -0.403646,-0.0911458 -0.403646,-0.4296875 V -4.0875538 h 0.768229 z m 1.55599,0 H 98.028562 V 9.8784722e-4 h 0.742188 z m 0,-1.8359375 h -0.755208 v 0.9375 h 0.755208 z m 3.08268,1.7057292 c -1.3151,0 -2.109373,0.9375 -2.109373,2.5130208 0,1.58854168 0.781253,2.52604168 2.122393,2.52604168 1.31511,0 2.1224,-0.9375 2.1224,-2.48697918 0,-1.6276042 -0.78125,-2.5520833 -2.13542,-2.5520833 z m 0.013,0.6901041 c 0.84636,0 1.34115,0.6901042 1.34115,1.8489584 0,1.1067708 -0.52083,1.80989581 -1.34115,1.80989581 -0.83333,0 -1.34114,-0.69010421 -1.34114,-1.83593751 0,-1.1328125 0.50781,-1.8229167 1.34114,-1.8229167 z M 105.0305,-4.699533 V 9.8784722e-4 h 0.7552 V -2.590158 c 0,-0.9635417 0.50782,-1.5885417 1.27605,-1.5885417 0.58593,0 0.96354,0.3515625 0.96354,0.9244792 V 9.8784722e-4 h 0.75521 V -3.5536997 c 0,-0.78125 -0.58594,-1.2760416 -1.4974,-1.2760416 -0.70313,0 -1.14583,0.2604166 -1.5625,0.9244791 V -4.699533 Z m 0,0"
       style="fill:#000000;fill-opacity:1;fill-rule:nonzero;stroke:none"
       aria-label="NNwithActivationFunction"
       transform="matrix(1.2,0,0,1.2,219.5376,144.26053)" />
  </g>
</svg>
