<?xml version="1.0" encoding="UTF-8" standalone="no"?>
<!-- Created with Inkscape (http://www.inkscape.org/) -->

<svg
   version="1.1"
   id="svg1"
   width="315.37866"
   height="131.88533"
   viewBox="0 0 315.37866 131.88533"
   xmlns="http://www.w3.org/2000/svg"
   xmlns:svg="http://www.w3.org/2000/svg">
  <defs
     id="defs1" />
  <g
     id="g1">
    <path
       id="path1"
       d="m 16.81807,21.82715 c 0,3.02629 -2.45325,5.47952 -5.47952,5.47952 -3.02629,0 -5.47953,-2.45323 -5.47953,-5.47952 0,-3.02629 2.45324,-5.47952 5.47953,-5.47952 3.02627,0 5.47952,2.45323 5.47952,5.47952 z"
       style="fill:#00ade7;fill-opacity:1;fill-rule:nonzero;stroke:none"
       transform="matrix(1.0666667,0,0,-1.0666667,13.867733,115.22293)" />
    <path
       id="path2"
       d="m 16.53474,41.3865 c 0,3.0263 -2.45323,5.47953 -5.47952,5.47953 -3.02629,0 -5.47952,-2.45323 -5.47952,-5.47953 0,-3.02627 2.45323,-5.47952 5.47952,-5.47952 3.02629,0 5.47952,2.45325 5.47952,5.47952 z"
       style="fill:#00ade7;fill-opacity:1;fill-rule:nonzero;stroke:none"
       transform="matrix(1.0666667,0,0,-1.0666667,13.867733,115.22293)" />
    <path
       id="path3"
       d="m 16.53474,57.26067 c 0,3.02629 -2.45323,5.47952 -5.47952,5.47952 -3.02629,0 -5.47952,-2.45323 -5.47952,-5.47952 0,-3.02629 2.45323,-5.47953 5.47952,-5.47953 3.02629,0 5.47952,2.45324 5.47952,5.47953 z"
       style="fill:#00ade7;fill-opacity:1;fill-rule:nonzero;stroke:none"
       transform="matrix(1.0666667,0,0,-1.0666667,13.867733,115.22293)" />
    <path
       id="path4"
       d="m 15.9677,71.43407 c 0,3.02629 -2.45323,5.47952 -5.47953,5.47952 -3.02629,0 -5.47952,-2.45323 -5.47952,-5.47952 0,-3.02628 2.45323,-5.47953 5.47952,-5.47953 3.0263,0 5.47953,2.45325 5.47953,5.47953 z"
       style="fill:#00ade7;fill-opacity:1;fill-rule:nonzero;stroke:none"
       transform="matrix(1.0666667,0,0,-1.0666667,13.867733,115.22293)" />
    <path
       id="path5"
       d="m 15.9677,83.62299 c 0,3.02629 -2.45323,5.47952 -5.47953,5.47952 -3.02629,0 -5.47952,-2.45323 -5.47952,-5.47952 0,-3.02629 2.45323,-5.47953 5.47952,-5.47953 3.0263,0 5.47953,2.45324 5.47953,5.47953 z"
       style="fill:#00ade7;fill-opacity:1;fill-rule:nonzero;stroke:none"
       transform="matrix(1.0666667,0,0,-1.0666667,13.867733,115.22293)" />
    <path
       id="path6"
       d="m 18.80255,94.96198 c 0,3.02629 -2.45325,5.47952 -5.47952,5.47952 -3.02629,0 -5.47953,-2.45323 -5.47953,-5.47952 0,-3.0263 2.45324,-5.47953 5.47953,-5.47953 3.02627,0 5.47952,2.45323 5.47952,5.47953 z"
       style="fill:#00ade7;fill-opacity:1;fill-rule:nonzero;stroke:none"
       transform="matrix(1.0666667,0,0,-1.0666667,13.867733,115.22293)" />
    <path
       id="path7"
       d="m 29.29073,11.9056 c 0,3.02628 -2.45323,5.47952 -5.47953,5.47952 -3.02629,0 -5.47952,-2.45324 -5.47952,-5.47952 0,-3.0263 2.45323,-5.47953 5.47952,-5.47953 3.0263,0 5.47953,2.45323 5.47953,5.47953 z"
       style="fill:#00ade7;fill-opacity:1;fill-rule:nonzero;stroke:none"
       transform="matrix(1.0666667,0,0,-1.0666667,13.867733,115.22293)" />
    <path
       id="path8"
       d="m 24.75514,30.8979 c 0,3.0263 -2.45324,5.47953 -5.47952,5.47953 -3.02629,0 -5.47952,-2.45323 -5.47952,-5.47953 0,-3.02629 2.45323,-5.47952 5.47952,-5.47952 3.02628,0 5.47952,2.45323 5.47952,5.47952 z"
       style="fill:#00ade7;fill-opacity:1;fill-rule:nonzero;stroke:none"
       transform="matrix(1.0666667,0,0,-1.0666667,13.867733,115.22293)" />
    <path
       id="path9"
       d="m 25.32219,48.75653 c 0,3.02629 -2.45323,5.47952 -5.47952,5.47952 -3.02629,0 -5.47953,-2.45323 -5.47953,-5.47952 0,-3.02627 2.45324,-5.47952 5.47953,-5.47952 3.02629,0 5.47952,2.45325 5.47952,5.47952 z"
       style="fill:#00ade7;fill-opacity:1;fill-rule:nonzero;stroke:none"
       transform="matrix(1.0666667,0,0,-1.0666667,13.867733,115.22293)" />
    <path
       id="path10"
       d="m 26.4563,66.89847 c 0,3.02629 -2.45323,5.47952 -5.47952,5.47952 -3.02629,0 -5.47953,-2.45323 -5.47953,-5.47952 0,-3.02629 2.45324,-5.47952 5.47953,-5.47952 3.02629,0 5.47952,2.45323 5.47952,5.47952 z"
       style="fill:#00ade7;fill-opacity:1;fill-rule:nonzero;stroke:none"
       transform="matrix(1.0666667,0,0,-1.0666667,13.867733,115.22293)" />
    <path
       id="path11"
       d="m 27.30667,78.80408 c 0,3.02629 -2.45323,5.47952 -5.47952,5.47952 -3.02629,0 -5.47952,-2.45323 -5.47952,-5.47952 0,-3.02628 2.45323,-5.47953 5.47952,-5.47953 3.02629,0 5.47952,2.45325 5.47952,5.47953 z"
       style="fill:#00ade7;fill-opacity:1;fill-rule:nonzero;stroke:none"
       transform="matrix(1.0666667,0,0,-1.0666667,13.867733,115.22293)" />
    <path
       id="path12"
       d="m 29.57446,90.14264 c 0,3.02627 -2.45323,5.47952 -5.47952,5.47952 -3.02628,0 -5.47952,-2.45325 -5.47952,-5.47952 0,-3.02629 2.45324,-5.47952 5.47952,-5.47952 3.02629,0 5.47952,2.45323 5.47952,5.47952 z"
       style="fill:#00ade7;fill-opacity:1;fill-rule:nonzero;stroke:none"
       transform="matrix(1.0666667,0,0,-1.0666667,13.867733,115.22293)" />
    <path
       id="path13"
       d="m 38.36191,97.51308 c 0,3.02629 -2.45323,5.47952 -5.47952,5.47952 -3.02629,0 -5.47953,-2.45323 -5.47953,-5.47952 0,-3.02628 2.45324,-5.47953 5.47953,-5.47953 3.02629,0 5.47952,2.45325 5.47952,5.47953 z"
       style="fill:#00ade7;fill-opacity:1;fill-rule:nonzero;stroke:none"
       transform="matrix(1.0666667,0,0,-1.0666667,13.867733,115.22293)" />
    <path
       id="path14"
       d="m 44.3145,10.20485 c 0,3.02629 -2.45323,5.47952 -5.47952,5.47952 -3.02628,0 -5.47953,-2.45323 -5.47953,-5.47952 0,-3.02629 2.45325,-5.47952 5.47953,-5.47952 3.02629,0 5.47952,2.45323 5.47952,5.47952 z"
       style="fill:#00ade7;fill-opacity:1;fill-rule:nonzero;stroke:none"
       transform="matrix(1.0666667,0,0,-1.0666667,13.867733,115.22293)" />
    <path
       id="path15"
       d="m 37.79485,23.24458 c 0,3.02628 -2.45324,5.47952 -5.47953,5.47952 -3.02629,0 -5.47952,-2.45324 -5.47952,-5.47952 0,-3.02629 2.45323,-5.47952 5.47952,-5.47952 3.02629,0 5.47953,2.45323 5.47953,5.47952 z"
       style="fill:#00ade7;fill-opacity:1;fill-rule:nonzero;stroke:none"
       transform="matrix(1.0666667,0,0,-1.0666667,13.867733,115.22293)" />
    <path
       id="path16"
       d="m 36.09412,41.66983 c 0,3.02629 -2.45325,5.47952 -5.47952,5.47952 -3.0263,0 -5.47953,-2.45323 -5.47953,-5.47952 0,-3.02629 2.45323,-5.47953 5.47953,-5.47953 3.02627,0 5.47952,2.45324 5.47952,5.47953 z"
       style="fill:#00ade7;fill-opacity:1;fill-rule:nonzero;stroke:none"
       transform="matrix(1.0666667,0,0,-1.0666667,13.867733,115.22293)" />
    <path
       id="path17"
       d="m 34.39337,55.84323 c 0,3.02629 -2.45323,5.47952 -5.47952,5.47952 -3.02629,0 -5.47952,-2.45323 -5.47952,-5.47952 0,-3.02629 2.45323,-5.47952 5.47952,-5.47952 3.02629,0 5.47952,2.45323 5.47952,5.47952 z"
       style="fill:#00ade7;fill-opacity:1;fill-rule:nonzero;stroke:none"
       transform="matrix(1.0666667,0,0,-1.0666667,13.867733,115.22293)" />
    <path
       id="path18"
       d="m 46.58229,59.52846 c 0,3.02629 -2.45323,5.47952 -5.47952,5.47952 -3.02629,0 -5.47952,-2.45323 -5.47952,-5.47952 0,-3.02629 2.45323,-5.47953 5.47952,-5.47953 3.02629,0 5.47952,2.45324 5.47952,5.47953 z"
       style="fill:#00ade7;fill-opacity:1;fill-rule:nonzero;stroke:none"
       transform="matrix(1.0666667,0,0,-1.0666667,13.867733,115.22293)" />
    <path
       id="path19"
       d="m 38.36191,67.74884 c 0,3.02629 -2.45323,5.47952 -5.47952,5.47952 -3.02629,0 -5.47953,-2.45323 -5.47953,-5.47952 0,-3.02629 2.45324,-5.47952 5.47953,-5.47952 3.02629,0 5.47952,2.45323 5.47952,5.47952 z"
       style="fill:#00ade7;fill-opacity:1;fill-rule:nonzero;stroke:none"
       transform="matrix(1.0666667,0,0,-1.0666667,13.867733,115.22293)" />
    <path
       id="path20"
       d="m 41.19633,82.20555 c 0,3.02629 -2.45323,5.47952 -5.47952,5.47952 -3.02629,0 -5.47952,-2.45323 -5.47952,-5.47952 0,-3.02627 2.45323,-5.47952 5.47952,-5.47952 3.02629,0 5.47952,2.45325 5.47952,5.47952 z"
       style="fill:#00ade7;fill-opacity:1;fill-rule:nonzero;stroke:none"
       transform="matrix(1.0666667,0,0,-1.0666667,13.867733,115.22293)" />
    <path
       id="path21"
       d="m 49.70045,93.54454 c 0,3.02629 -2.45323,5.47952 -5.47952,5.47952 -3.02629,0 -5.47952,-2.45323 -5.47952,-5.47952 0,-3.02628 2.45323,-5.47952 5.47952,-5.47952 3.02629,0 5.47952,2.45324 5.47952,5.47952 z"
       style="fill:#00ade7;fill-opacity:1;fill-rule:nonzero;stroke:none"
       transform="matrix(1.0666667,0,0,-1.0666667,13.867733,115.22293)" />
    <path
       id="path22"
       d="m 59.05496,67.1818 c 0,3.02628 -2.45323,5.47952 -5.47952,5.47952 -3.02629,0 -5.47952,-2.45324 -5.47952,-5.47952 0,-3.0263 2.45323,-5.47953 5.47952,-5.47953 3.02629,0 5.47952,2.45323 5.47952,5.47953 z"
       style="fill:#00ade7;fill-opacity:1;fill-rule:nonzero;stroke:none"
       transform="matrix(1.0666667,0,0,-1.0666667,13.867733,115.22293)" />
    <path
       id="path23"
       d="m 51.96826,76.53629 c 0,3.02629 -2.45323,5.47952 -5.47952,5.47952 -3.02629,0 -5.47952,-2.45323 -5.47952,-5.47952 0,-3.02629 2.45323,-5.47953 5.47952,-5.47953 3.02629,0 5.47952,2.45324 5.47952,5.47953 z"
       style="fill:#00ade7;fill-opacity:1;fill-rule:nonzero;stroke:none"
       transform="matrix(1.0666667,0,0,-1.0666667,13.867733,115.22293)" />
    <path
       id="path24"
       d="m 64.72424,83.90674 c 0,3.02629 -2.45323,5.47952 -5.47952,5.47952 -3.02629,0 -5.47952,-2.45323 -5.47952,-5.47952 0,-3.02629 2.45323,-5.47952 5.47952,-5.47952 3.02629,0 5.47952,2.45323 5.47952,5.47952 z"
       style="fill:#00ade7;fill-opacity:1;fill-rule:nonzero;stroke:none"
       transform="matrix(1.0666667,0,0,-1.0666667,13.867733,115.22293)" />
    <path
       id="path25"
       d="m 62.17314,95.5286 c 0,3.02629 -2.45324,5.47952 -5.47952,5.47952 -3.02629,0 -5.47952,-2.45323 -5.47952,-5.47952 0,-3.02628 2.45323,-5.47953 5.47952,-5.47953 3.02628,0 5.47952,2.45325 5.47952,5.47953 z"
       style="fill:#00ade7;fill-opacity:1;fill-rule:nonzero;stroke:none"
       transform="matrix(1.0666667,0,0,-1.0666667,13.867733,115.22293)" />
    <path
       id="path26"
       d="m 78.33101,66.04811 c 0,3.02628 -2.45323,5.47952 -5.47952,5.47952 -3.02629,0 -5.47953,-2.45324 -5.47953,-5.47952 0,-3.02629 2.45324,-5.47952 5.47953,-5.47952 3.02629,0 5.47952,2.45323 5.47952,5.47952 z"
       style="fill:#00ade7;fill-opacity:1;fill-rule:nonzero;stroke:none"
       transform="matrix(1.0666667,0,0,-1.0666667,13.867733,115.22293)" />
    <path
       id="path27"
       d="m 92.78773,62.36288 c 0,3.0263 -2.45323,5.47952 -5.47952,5.47952 -3.02629,0 -5.47952,-2.45322 -5.47952,-5.47952 0,-3.02628 2.45323,-5.47952 5.47952,-5.47952 3.02629,0 5.47952,2.45324 5.47952,5.47952 z"
       style="fill:#00ade7;fill-opacity:1;fill-rule:nonzero;stroke:none"
       transform="matrix(1.0666667,0,0,-1.0666667,13.867733,115.22293)" />
    <path
       id="path28"
       d="m 102.42554,68.59921 c 0,3.02629 -2.45324,5.47953 -5.47953,5.47953 -3.02629,0 -5.47952,-2.45324 -5.47952,-5.47953 0,-3.02629 2.45323,-5.47952 5.47952,-5.47952 3.02629,0 5.47953,2.45323 5.47953,5.47952 z"
       style="fill:#00ade7;fill-opacity:1;fill-rule:nonzero;stroke:none"
       transform="matrix(1.0666667,0,0,-1.0666667,13.867733,115.22293)" />
    <path
       id="path29"
       d="m 97.60663,86.74117 c 0,3.02627 -2.45323,5.47952 -5.47953,5.47952 -3.02627,0 -5.47952,-2.45325 -5.47952,-5.47952 0,-3.0263 2.45325,-5.47953 5.47952,-5.47953 3.0263,0 5.47953,2.45323 5.47953,5.47953 z"
       style="fill:#00ade7;fill-opacity:1;fill-rule:nonzero;stroke:none"
       transform="matrix(1.0666667,0,0,-1.0666667,13.867733,115.22293)" />
    <path
       id="path30"
       d="m 89.38626,77.95372 c 0,3.02629 -2.45323,5.47952 -5.47952,5.47952 -3.02629,0 -5.47952,-2.45323 -5.47952,-5.47952 0,-3.02629 2.45323,-5.47952 5.47952,-5.47952 3.02629,0 5.47952,2.45323 5.47952,5.47952 z"
       style="fill:#00ade7;fill-opacity:1;fill-rule:nonzero;stroke:none"
       transform="matrix(1.0666667,0,0,-1.0666667,13.867733,115.22293)" />
    <path
       id="path31"
       d="m 75.77946,77.38666 c 0,3.02627 -2.45323,5.47952 -5.47952,5.47952 -3.02629,0 -5.47952,-2.45325 -5.47952,-5.47952 0,-3.02629 2.45323,-5.47952 5.47952,-5.47952 3.02629,0 5.47952,2.45323 5.47952,5.47952 z"
       style="fill:#00ade7;fill-opacity:1;fill-rule:nonzero;stroke:none"
       transform="matrix(1.0666667,0,0,-1.0666667,13.867733,115.22293)" />
    <path
       id="path32"
       d="m 82.29955,88.72565 c 0,3.02627 -2.45324,5.47952 -5.47953,5.47952 -3.02627,0 -5.47952,-2.45325 -5.47952,-5.47952 0,-3.02629 2.45325,-5.47953 5.47952,-5.47953 3.02629,0 5.47953,2.45324 5.47953,5.47953 z"
       style="fill:#00ade7;fill-opacity:1;fill-rule:nonzero;stroke:none"
       transform="matrix(1.0666667,0,0,-1.0666667,13.867733,115.22293)" />
    <path
       id="path33"
       d="m 74.6458,97.51308 c 0,3.02629 -2.45323,5.47952 -5.47952,5.47952 -3.0263,0 -5.47953,-2.45323 -5.47953,-5.47952 0,-3.02628 2.45323,-5.47953 5.47953,-5.47953 3.02629,0 5.47952,2.45325 5.47952,5.47953 z"
       style="fill:#00ade7;fill-opacity:1;fill-rule:nonzero;stroke:none"
       transform="matrix(1.0666667,0,0,-1.0666667,13.867733,115.22293)" />
    <path
       id="path34"
       d="m 92.50443,98.64676 c 0,3.02629 -2.45323,5.47952 -5.47953,5.47952 -3.02629,0 -5.47952,-2.45323 -5.47952,-5.47952 0,-3.02629 2.45323,-5.47952 5.47952,-5.47952 3.0263,0 5.47953,2.45323 5.47953,5.47952 z"
       style="fill:#00ade7;fill-opacity:1;fill-rule:nonzero;stroke:none"
       transform="matrix(1.0666667,0,0,-1.0666667,13.867733,115.22293)" />
    <path
       id="path35"
       d="m 57.35422,10.20485 c 0,3.02629 -2.45323,5.47952 -5.47952,5.47952 -3.0263,0 -5.47953,-2.45323 -5.47953,-5.47952 0,-3.02629 2.45323,-5.47952 5.47953,-5.47952 3.02629,0 5.47952,2.45323 5.47952,5.47952 z"
       style="fill:#88c946;fill-opacity:1;fill-rule:nonzero;stroke:none"
       transform="matrix(1.0666667,0,0,-1.0666667,13.867733,115.22293)" />
    <path
       id="path36"
       d="m 70.39351,9.92155 c 0,3.02628 -2.45323,5.47953 -5.47952,5.47953 -3.02629,0 -5.47953,-2.45325 -5.47953,-5.47953 0,-3.02629 2.45324,-5.47952 5.47953,-5.47952 3.02629,0 5.47952,2.45323 5.47952,5.47952 z"
       style="fill:#88c946;fill-opacity:1;fill-rule:nonzero;stroke:none"
       transform="matrix(1.0666667,0,0,-1.0666667,13.867733,115.22293)" />
    <path
       id="path37"
       d="m 82.29955,9.92155 c 0,3.02628 -2.45324,5.47953 -5.47953,5.47953 -3.02627,0 -5.47952,-2.45325 -5.47952,-5.47953 0,-3.02629 2.45325,-5.47952 5.47952,-5.47952 3.02629,0 5.47953,2.45323 5.47953,5.47952 z"
       style="fill:#88c946;fill-opacity:1;fill-rule:nonzero;stroke:none"
       transform="matrix(1.0666667,0,0,-1.0666667,13.867733,115.22293)" />
    <path
       id="path38"
       d="m 101.29187,9.92155 c 0,3.02628 -2.45323,5.47953 -5.47952,5.47953 -3.02629,0 -5.47953,-2.45325 -5.47953,-5.47953 0,-3.02629 2.45324,-5.47952 5.47953,-5.47952 3.02629,0 5.47952,2.45323 5.47952,5.47952 z"
       style="fill:#88c946;fill-opacity:1;fill-rule:nonzero;stroke:none"
       transform="matrix(1.0666667,0,0,-1.0666667,13.867733,115.22293)" />
    <path
       id="path39"
       d="m 101.85849,22.67752 c 0,3.02628 -2.45323,5.47952 -5.47952,5.47952 -3.02629,0 -5.47953,-2.45324 -5.47953,-5.47952 0,-3.02629 2.45324,-5.47952 5.47953,-5.47952 3.02629,0 5.47952,2.45323 5.47952,5.47952 z"
       style="fill:#88c946;fill-opacity:1;fill-rule:nonzero;stroke:none"
       transform="matrix(1.0666667,0,0,-1.0666667,13.867733,115.22293)" />
    <path
       id="path40"
       d="m 101.57518,38.26836 c 0,3.02629 -2.45325,5.47952 -5.47952,5.47952 -3.02629,0 -5.47953,-2.45323 -5.47953,-5.47952 0,-3.02629 2.45324,-5.47953 5.47953,-5.47953 3.02627,0 5.47952,2.45324 5.47952,5.47953 z"
       style="fill:#88c946;fill-opacity:1;fill-rule:nonzero;stroke:none"
       transform="matrix(1.0666667,0,0,-1.0666667,13.867733,115.22293)" />
    <path
       id="path41"
       d="m 102.14224,53.85875 c 0,3.02629 -2.45324,5.47952 -5.47952,5.47952 -3.02629,0 -5.47952,-2.45323 -5.47952,-5.47952 0,-3.02629 2.45323,-5.47952 5.47952,-5.47952 3.02628,0 5.47952,2.45323 5.47952,5.47952 z"
       style="fill:#88c946;fill-opacity:1;fill-rule:nonzero;stroke:none"
       transform="matrix(1.0666667,0,0,-1.0666667,13.867733,115.22293)" />
    <path
       id="path42"
       d="m 92.50443,45.92168 c 0,3.02629 -2.45323,5.47952 -5.47953,5.47952 -3.02629,0 -5.47952,-2.45323 -5.47952,-5.47952 0,-3.02629 2.45323,-5.47953 5.47952,-5.47953 3.0263,0 5.47953,2.45324 5.47953,5.47953 z"
       style="fill:#88c946;fill-opacity:1;fill-rule:nonzero;stroke:none"
       transform="matrix(1.0666667,0,0,-1.0666667,13.867733,115.22293)" />
    <path
       id="path43"
       d="m 78.89764,51.59138 c 0,3.0263 -2.45324,5.47952 -5.47952,5.47952 -3.02629,0 -5.47952,-2.45322 -5.47952,-5.47952 0,-3.02628 2.45323,-5.47952 5.47952,-5.47952 3.02628,0 5.47952,2.45324 5.47952,5.47952 z"
       style="fill:#88c946;fill-opacity:1;fill-rule:nonzero;stroke:none"
       transform="matrix(1.0666667,0,0,-1.0666667,13.867733,115.22293)" />
    <path
       id="path44"
       d="m 67.55908,56.12654 c 0,3.02629 -2.45323,5.47952 -5.47952,5.47952 -3.02628,0 -5.47952,-2.45323 -5.47952,-5.47952 0,-3.02627 2.45324,-5.47952 5.47952,-5.47952 3.02629,0 5.47952,2.45325 5.47952,5.47952 z"
       style="fill:#88c946;fill-opacity:1;fill-rule:nonzero;stroke:none"
       transform="matrix(1.0666667,0,0,-1.0666667,13.867733,115.22293)" />
    <path
       id="path45"
       d="m 56.22011,47.33911 c 0,3.02628 -2.45325,5.47952 -5.47952,5.47952 -3.02629,0 -5.47953,-2.45324 -5.47953,-5.47952 0,-3.02629 2.45324,-5.47952 5.47953,-5.47952 3.02627,0 5.47952,2.45323 5.47952,5.47952 z"
       style="fill:#88c946;fill-opacity:1;fill-rule:nonzero;stroke:none"
       transform="matrix(1.0666667,0,0,-1.0666667,13.867733,115.22293)" />
    <path
       id="path46"
       d="m 48.56679,35.43349 c 0,3.02629 -2.45323,5.47952 -5.47952,5.47952 -3.0263,0 -5.47953,-2.45323 -5.47953,-5.47952 0,-3.02628 2.45323,-5.47953 5.47953,-5.47953 3.02629,0 5.47952,2.45325 5.47952,5.47953 z"
       style="fill:#88c946;fill-opacity:1;fill-rule:nonzero;stroke:none"
       transform="matrix(1.0666667,0,0,-1.0666667,13.867733,115.22293)" />
    <path
       id="path47"
       d="m 52.53531,22.67752 c 0,3.02628 -2.45323,5.47952 -5.47952,5.47952 -3.02629,0 -5.47953,-2.45324 -5.47953,-5.47952 0,-3.02629 2.45324,-5.47952 5.47953,-5.47952 3.02629,0 5.47952,2.45323 5.47952,5.47952 z"
       style="fill:#88c946;fill-opacity:1;fill-rule:nonzero;stroke:none"
       transform="matrix(1.0666667,0,0,-1.0666667,13.867733,115.22293)" />
    <path
       id="path48"
       d="m 65.85835,20.40973 c 0,3.02629 -2.45323,5.47952 -5.47952,5.47952 -3.02629,0 -5.47953,-2.45323 -5.47953,-5.47952 0,-3.02629 2.45324,-5.47953 5.47953,-5.47953 3.02629,0 5.47952,2.45324 5.47952,5.47953 z"
       style="fill:#88c946;fill-opacity:1;fill-rule:nonzero;stroke:none"
       transform="matrix(1.0666667,0,0,-1.0666667,13.867733,115.22293)" />
    <path
       id="path49"
       d="m 80.03175,20.97678 c 0,3.02629 -2.45323,5.47952 -5.47952,5.47952 -3.02629,0 -5.47952,-2.45323 -5.47952,-5.47952 0,-3.02629 2.45323,-5.47953 5.47952,-5.47953 3.02629,0 5.47952,2.45324 5.47952,5.47953 z"
       style="fill:#88c946;fill-opacity:1;fill-rule:nonzero;stroke:none"
       transform="matrix(1.0666667,0,0,-1.0666667,13.867733,115.22293)" />
    <path
       id="path50"
       d="m 91.65361,16.72449 c 0,3.02629 -2.45323,5.47952 -5.47952,5.47952 -3.02628,0 -5.47953,-2.45323 -5.47953,-5.47952 0,-3.02628 2.45325,-5.47953 5.47953,-5.47953 3.02629,0 5.47952,2.45325 5.47952,5.47953 z"
       style="fill:#88c946;fill-opacity:1;fill-rule:nonzero;stroke:none"
       transform="matrix(1.0666667,0,0,-1.0666667,13.867733,115.22293)" />
    <path
       id="path51"
       d="m 91.08699,28.06348 c 0,3.02629 -2.45323,5.47952 -5.47952,5.47952 -3.02629,0 -5.47953,-2.45323 -5.47953,-5.47952 0,-3.02628 2.45324,-5.47953 5.47953,-5.47953 3.02629,0 5.47952,2.45325 5.47952,5.47953 z"
       style="fill:#88c946;fill-opacity:1;fill-rule:nonzero;stroke:none"
       transform="matrix(1.0666667,0,0,-1.0666667,13.867733,115.22293)" />
    <path
       id="path52"
       d="m 82.58287,36.28386 c 0,3.02629 -2.45323,5.47952 -5.47952,5.47952 -3.02629,0 -5.47952,-2.45323 -5.47952,-5.47952 0,-3.02629 2.45323,-5.47952 5.47952,-5.47952 3.02629,0 5.47952,2.45323 5.47952,5.47952 z"
       style="fill:#88c946;fill-opacity:1;fill-rule:nonzero;stroke:none"
       transform="matrix(1.0666667,0,0,-1.0666667,13.867733,115.22293)" />
    <path
       id="path53"
       d="m 70.39351,41.95314 c 0,3.02629 -2.45323,5.47952 -5.47952,5.47952 -3.02629,0 -5.47953,-2.45323 -5.47953,-5.47952 0,-3.02629 2.45324,-5.47952 5.47953,-5.47952 3.02629,0 5.47952,2.45323 5.47952,5.47952 z"
       style="fill:#88c946;fill-opacity:1;fill-rule:nonzero;stroke:none"
       transform="matrix(1.0666667,0,0,-1.0666667,13.867733,115.22293)" />
    <path
       id="path54"
       d="m 60.7557,32.59865 c 0,3.02629 -2.45323,5.47952 -5.47952,5.47952 -3.02628,0 -5.47952,-2.45323 -5.47952,-5.47952 0,-3.02629 2.45324,-5.47952 5.47952,-5.47952 3.02629,0 5.47952,2.45323 5.47952,5.47952 z"
       style="fill:#88c946;fill-opacity:1;fill-rule:nonzero;stroke:none"
       transform="matrix(1.0666667,0,0,-1.0666667,13.867733,115.22293)" />
    <path
       id="path55"
       d="m 72.37799,30.33128 c 0,3.02629 -2.45323,5.47952 -5.47952,5.47952 -3.02629,0 -5.47952,-2.45323 -5.47952,-5.47952 0,-3.02628 2.45323,-5.47952 5.47952,-5.47952 3.02629,0 5.47952,2.45324 5.47952,5.47952 z"
       style="fill:#88c946;fill-opacity:1;fill-rule:nonzero;stroke:none"
       transform="matrix(1.0666667,0,0,-1.0666667,13.867733,115.22293)" />
    <path
       id="path56"
       d="M 1.98431,1.41751 H 107.15104 V 107.15076 H 1.98431 Z"
       style="fill:none;stroke:#000000;stroke-width:1.74348;stroke-linecap:butt;stroke-linejoin:round;stroke-miterlimit:10;stroke-dasharray:none;stroke-opacity:1"
       transform="matrix(1.0666667,0,0,-1.0666667,13.867733,115.22293)" />
    <path
       id="path57"
       d="m 20.3556,0.54576 87.66717,94.58006"
       style="fill:none;stroke:#ff0000;stroke-width:1.99255;stroke-linecap:butt;stroke-linejoin:round;stroke-miterlimit:10;stroke-dasharray:none;stroke-opacity:1"
       transform="matrix(1.0666667,0,0,-1.0666667,13.867733,115.22293)" />
    <path
       id="path58"
       d="M 5.7875371,-6.5319766 H 4.9965215 v 5.3466797 L 1.5834355,-6.5319766 H 0.68988086 V 0.00122656 H 1.466248 V -5.3015078 l 3.3837891,5.30273436 h 0.9375 z m 6.4709469,0 h -0.791015 v 5.3466797 L 8.0543828,-6.5319766 H 7.1608281 V 0.00122656 H 7.9371953 V -5.3015078 l 3.3837887,5.30273436 h 0.9375 z m 8.148194,6.53320316 1.376953,-4.70214846 H 20.94867 l -0.9375,3.6621094 -0.922852,-3.6621094 h -0.908203 l -0.908203,3.6621094 -0.952148,-3.6621094 h -0.820313 l 1.362305,4.70214846 h 0.834961 l 0.908203,-3.69140626 0.952148,3.69140626 z m 2.856445,-4.70214846 h -0.74707 v 4.70214846 h 0.74707 z m 0,-1.8310547 h -0.761719 v 0.9375 h 0.761719 z m 2.911377,1.8310547 h -0.761719 v -1.2890625 h -0.74707 v 1.2890625 h -0.629883 v 0.6152344 h 0.629883 v 3.54492187 c 0,0.48339844 0.322266,0.74707032 0.908203,0.74707032 0.175781,0 0.351563,-0.0146484 0.600586,-0.0585938 v -0.62988282 c -0.08789,0.0292969 -0.205078,0.0292969 -0.351562,0.0292969 -0.322266,0 -0.410157,-0.0878906 -0.410157,-0.41015625 V -4.0856875 H 26.1745 Z m 0.853271,-1.8310547 v 6.53320316 h 0.747071 V -2.5915469 c 0,-0.9521484 0.498047,-1.5820312 1.274414,-1.5820312 0.234375,0 0.483398,0.073242 0.65918,0.2050781 0.219726,0.1611328 0.307617,0.3808594 0.307617,0.7177734 v 3.25195316 h 0.732422 V -3.5436953 c 0,-0.7910156 -0.556641,-1.2890625 -1.479493,-1.2890625 -0.659179,0 -1.054687,0.2050781 -1.49414,0.7763672 v -2.475586 z m 6.785889,1.6992188 c -1.318359,0 -2.109375,0.9375 -2.109375,2.5195312 0,1.58203129 0.791016,2.51953129 2.124024,2.51953129 1.318359,0 2.124023,-0.9375 2.124023,-2.47558599 0,-1.6259765 -0.776367,-2.5634765 -2.138672,-2.5634765 z m 0.01465,0.6884765 c 0.849609,0 1.347656,0.6884766 1.347656,1.8603516 0,1.0986328 -0.527344,1.80175782 -1.347656,1.80175782 -0.834961,0 -1.347657,-0.68847652 -1.347657,-1.83105472 0,-1.1279297 0.512696,-1.8310547 1.347657,-1.8310547 z m 6.85913,4.14550786 V -4.7009219 h -0.74707 v 2.6660156 c 0,0.9667969 -0.498047,1.5820313 -1.274414,1.5820313 -0.600586,0 -0.966797,-0.3515625 -0.966797,-0.9228516 v -3.3251953 h -0.74707 v 3.6328125 c 0,0.77636721 0.585937,1.27441409 1.494141,1.27441409 0.688476,0 1.127929,-0.234375 1.567382,-0.86425782 v 0.65917969 z m 2.937012,-4.70214846 h -0.761719 v -1.2890625 h -0.74707 v 1.2890625 H 41.48578 v 0.6152344 h 0.629883 v 3.54492187 c 0,0.48339844 0.322266,0.74707032 0.908203,0.74707032 0.175781,0 0.351563,-0.0146484 0.600586,-0.0585938 v -0.62988282 c -0.08789,0.0292969 -0.205078,0.0292969 -0.351562,0.0292969 -0.322266,0 -0.410157,-0.0878906 -0.410157,-0.41015625 V -4.0856875 h 0.761719 z m 6.954346,2.7392578 0.673828,1.96289066 h 0.9375 L 49.89032,-6.5319766 h -1.069336 l -2.34375,6.53320316 h 0.893555 l 0.688477,-1.96289066 z m -0.234375,-0.703125 h -2.080078 l 1.083984,-2.9736328 z m 6.185303,-0.4541015 c -0.0293,-0.4541016 -0.131836,-0.7470703 -0.307618,-1.0107422 -0.322265,-0.4394531 -0.893554,-0.703125 -1.538086,-0.703125 -1.274414,0 -2.094726,1.0107422 -2.094726,2.5634765 0,1.52343755 0.805664,2.47558599 2.080078,2.47558599 1.113281,0 1.831055,-0.67382813 1.918945,-1.81640629 h -0.74707 c -0.131836,0.74707035 -0.512695,1.12792972 -1.157227,1.12792972 -0.820312,0 -1.318359,-0.67382812 -1.318359,-1.78710942 0,-1.171875 0.483399,-1.875 1.303711,-1.875 0.629883,0 1.025391,0.366211 1.113281,1.0253907 z m 2.534179,-1.5820313 h -0.761718 v -1.2890625 h -0.747071 v 1.2890625 h -0.629883 v 0.6152344 h 0.629883 v 3.54492187 c 0,0.48339844 0.322266,0.74707032 0.908203,0.74707032 0.175782,0 0.351563,-0.0146484 0.600586,-0.0585938 v -0.62988282 c -0.08789,0.0292969 -0.205078,0.0292969 -0.351562,0.0292969 -0.322266,0 -0.410156,-0.0878906 -0.410156,-0.41015625 V -4.0856875 h 0.761718 z m 1.571045,0 h -0.74707 v 4.70214846 h 0.74707 z m 0,-1.8310547 h -0.76172 v 0.9375 h 0.761719 z m 3.189697,6.53320316 1.801758,-4.70214846 H 64.791444 L 63.458437,-0.89232813 62.213319,-4.7009219 H 61.36371 l 1.655273,4.70214846 z m 6.511231,-0.43945312 c -0.07324,0.0146484 -0.117188,0.0146484 -0.161133,0.0146484 -0.249023,0 -0.395508,-0.13183593 -0.395508,-0.36621093 V -3.5436953 c 0,-0.834961 -0.615234,-1.2890625 -1.772461,-1.2890625 -0.673828,0 -1.245117,0.2050781 -1.552734,0.5419922 -0.219727,0.2490234 -0.307617,0.5126953 -0.322266,0.9814453 h 0.747071 c 0.05859,-0.5712891 0.410156,-0.834961 1.098633,-0.834961 0.673828,0 1.054687,0.2490235 1.054687,0.703125 v 0.1904297 c 0,0.3222657 -0.19043,0.4541016 -0.776367,0.5273438 -1.054688,0.1318359 -1.21582,0.1757812 -1.508789,0.2929687 -0.541992,0.2197266 -0.820313,0.6445313 -0.820313,1.2451172 0,0.8496094 0.585938,1.39160159 1.538086,1.39160159 0.585938,0 1.069336,-0.20507813 1.59668,-0.68847657 0.05859,0.46875 0.27832,0.68847657 0.776367,0.68847657 0.146484,0 0.263672,-0.0146484 0.498047,-0.0732422 z M 69.032166,-1.4782656 c 0,0.2490234 -0.07324,0.4101562 -0.292969,0.61523435 -0.307617,0.27832031 -0.673828,0.41015625 -1.113281,0.41015625 -0.585937,0 -0.922852,-0.27832031 -0.922852,-0.7470703 0,-0.4980469 0.336915,-0.7470703 1.12793,-0.8642578 0.791016,-0.1025391 0.952149,-0.1464844 1.201172,-0.2636719 z m 3.768311,-3.2226563 h -0.761719 v -1.2890625 h -0.747071 v 1.2890625 h -0.629882 v 0.6152344 h 0.629882 v 3.54492187 c 0,0.48339844 0.322266,0.74707032 0.908204,0.74707032 0.175781,0 0.351562,-0.0146484 0.600586,-0.0585938 v -0.62988282 c -0.08789,0.0292969 -0.205079,0.0292969 -0.351563,0.0292969 -0.322266,0 -0.410156,-0.0878906 -0.410156,-0.41015625 V -4.0856875 h 0.761719 z m 1.571044,0 h -0.74707 v 4.70214846 h 0.74707 z m 0,-1.8310547 h -0.761718 v 0.9375 h 0.761718 z m 3.07251,1.6992188 c -1.318359,0 -2.109375,0.9375 -2.109375,2.5195312 0,1.58203129 0.791016,2.51953129 2.124024,2.51953129 1.318359,0 2.124023,-0.9375 2.124023,-2.47558599 0,-1.6259765 -0.776367,-2.5634765 -2.138672,-2.5634765 z m 0.01465,0.6884765 c 0.849609,0 1.347656,0.6884766 1.347656,1.8603516 0,1.0986328 -0.527344,1.80175782 -1.347656,1.80175782 -0.834961,0 -1.347657,-0.68847652 -1.347657,-1.83105472 0,-1.1279297 0.512696,-1.8310547 1.347657,-1.8310547 z m 3.167724,-0.5566406 v 4.70214846 h 0.747071 V -2.5915469 c 0,-0.9521484 0.512695,-1.5820312 1.274414,-1.5820312 0.600586,0 0.966797,0.3515625 0.966797,0.9228515 v 3.25195316 h 0.74707 V -3.5436953 c 0,-0.7910156 -0.585938,-1.2890625 -1.494141,-1.2890625 -0.688476,0 -1.142578,0.2636719 -1.552734,0.9228515 v -0.7910156 z m 8.481446,1.7285156 h 3.120117 V -3.7048281 H 89.10785 v -2.0947266 h 3.544921 V -6.5319766 H 88.272889 V 0.00122656 H 89.10785 Z M 97.26703,0.00122656 V -4.7009219 h -0.74707 v 2.6660156 c 0,0.9667969 -0.498047,1.5820313 -1.274414,1.5820313 -0.600586,0 -0.966797,-0.3515625 -0.966797,-0.9228516 v -3.3251953 h -0.74707 v 3.6328125 c 0,0.77636721 0.585937,1.27441409 1.49414,1.27441409 0.688477,0 1.12793,-0.234375 1.567383,-0.86425782 v 0.65917969 z m 1.292725,-4.70214846 v 4.70214846 h 0.74707 V -2.5915469 c 0,-0.9521484 0.512696,-1.5820312 1.274415,-1.5820312 0.60058,0 0.9668,0.3515625 0.9668,0.9228515 v 3.25195316 h 0.74707 V -3.5436953 c 0,-0.7910156 -0.58594,-1.2890625 -1.49415,-1.2890625 -0.68847,0 -1.142572,0.2636719 -1.552729,0.9228515 v -0.7910156 z m 8.576655,1.5820313 c -0.0293,-0.4541016 -0.13183,-0.7470703 -0.30761,-1.0107422 -0.32227,-0.4394531 -0.89356,-0.703125 -1.53809,-0.703125 -1.27441,0 -2.09473,1.0107422 -2.09473,2.5634765 0,1.52343755 0.80567,2.47558599 2.08008,2.47558599 1.11328,0 1.83106,-0.67382813 1.91895,-1.81640629 h -0.74707 c -0.13184,0.74707035 -0.5127,1.12792972 -1.15723,1.12792972 -0.82031,0 -1.31836,-0.67382812 -1.31836,-1.78710942 0,-1.171875 0.4834,-1.875 1.30371,-1.875 0.62989,0 1.02539,0.366211 1.11328,1.0253907 z m 2.53418,-1.5820313 h -0.76172 v -1.2890625 h -0.74707 v 1.2890625 h -0.62988 v 0.6152344 h 0.62988 v 3.54492187 c 0,0.48339844 0.32227,0.74707032 0.90821,0.74707032 0.17578,0 0.35156,-0.0146484 0.60058,-0.0585938 v -0.62988282 c -0.0879,0.0292969 -0.20507,0.0292969 -0.35156,0.0292969 -0.32226,0 -0.41016,-0.0878906 -0.41016,-0.41015625 V -4.0856875 h 0.76172 z m 1.56739,0 h -0.74707 v 4.70214846 h 0.74707 z m 0,-1.8310547 h -0.76172 v 0.9375 h 0.76172 z m 3.07617,1.6992188 c -1.31836,0 -2.10938,0.9375 -2.10938,2.5195312 0,1.58203129 0.79102,2.51953129 2.12403,2.51953129 1.31836,0 2.12402,-0.9375 2.12402,-2.47558599 0,-1.6259765 -0.77637,-2.5634765 -2.13867,-2.5634765 z m 0.0147,0.6884765 c 0.84961,0 1.34765,0.6884766 1.34765,1.8603516 0,1.0986328 -0.52734,1.80175782 -1.34765,1.80175782 -0.83496,0 -1.34766,-0.68847652 -1.34766,-1.83105472 0,-1.1279297 0.5127,-1.8310547 1.34766,-1.8310547 z m 3.16772,-0.5566406 v 4.70214846 h 0.74707 V -2.5915469 c 0,-0.9521484 0.5127,-1.5820312 1.27442,-1.5820312 0.60058,0 0.96679,0.3515625 0.96679,0.9228515 v 3.25195316 h 0.74707 V -3.5436953 c 0,-0.7910156 -0.58593,-1.2890625 -1.49414,-1.2890625 -0.68847,0 -1.14258,0.2636719 -1.55273,0.9228515 v -0.7910156 z m 0,0"
       style="fill:#000000;fill-opacity:1;fill-rule:nonzero;stroke:none"
       aria-label="NNwithoutActivationFunction"
       transform="matrix(1.0666667,0,0,1.0666667,7.0805333,128.23307)" />
    <path
       id="path59"
       d="m 186.89893,21.82715 c 0,3.02629 -2.45323,5.47952 -5.47953,5.47952 -3.02629,0 -5.47952,-2.45323 -5.47952,-5.47952 0,-3.02629 2.45323,-5.47952 5.47952,-5.47952 3.0263,0 5.47953,2.45323 5.47953,5.47952 z"
       style="fill:#00ade7;fill-opacity:1;fill-rule:nonzero;stroke:none"
       transform="matrix(1.0666667,0,0,-1.0666667,13.867733,115.22293)" />
    <path
       id="path60"
       d="m 186.6156,41.3865 c 0,3.0263 -2.45323,5.47953 -5.47952,5.47953 -3.02629,0 -5.47952,-2.45323 -5.47952,-5.47953 0,-3.02627 2.45323,-5.47952 5.47952,-5.47952 3.02629,0 5.47952,2.45325 5.47952,5.47952 z"
       style="fill:#00ade7;fill-opacity:1;fill-rule:nonzero;stroke:none"
       transform="matrix(1.0666667,0,0,-1.0666667,13.867733,115.22293)" />
    <path
       id="path61"
       d="m 186.6156,57.26067 c 0,3.02629 -2.45323,5.47952 -5.47952,5.47952 -3.02629,0 -5.47952,-2.45323 -5.47952,-5.47952 0,-3.02629 2.45323,-5.47953 5.47952,-5.47953 3.02629,0 5.47952,2.45324 5.47952,5.47953 z"
       style="fill:#00ade7;fill-opacity:1;fill-rule:nonzero;stroke:none"
       transform="matrix(1.0666667,0,0,-1.0666667,13.867733,115.22293)" />
    <path
       id="path62"
       d="m 186.04855,71.43407 c 0,3.02629 -2.45323,5.47952 -5.47952,5.47952 -3.02629,0 -5.47952,-2.45323 -5.47952,-5.47952 0,-3.02628 2.45323,-5.47953 5.47952,-5.47953 3.02629,0 5.47952,2.45325 5.47952,5.47953 z"
       style="fill:#00ade7;fill-opacity:1;fill-rule:nonzero;stroke:none"
       transform="matrix(1.0666667,0,0,-1.0666667,13.867733,115.22293)" />
    <path
       id="path63"
       d="m 186.04855,83.62299 c 0,3.02629 -2.45323,5.47952 -5.47952,5.47952 -3.02629,0 -5.47952,-2.45323 -5.47952,-5.47952 0,-3.02629 2.45323,-5.47953 5.47952,-5.47953 3.02629,0 5.47952,2.45324 5.47952,5.47953 z"
       style="fill:#00ade7;fill-opacity:1;fill-rule:nonzero;stroke:none"
       transform="matrix(1.0666667,0,0,-1.0666667,13.867733,115.22293)" />
    <path
       id="path64"
       d="m 188.8834,94.96198 c 0,3.02629 -2.45322,5.47952 -5.47952,5.47952 -3.02628,0 -5.47952,-2.45323 -5.47952,-5.47952 0,-3.0263 2.45324,-5.47953 5.47952,-5.47953 3.0263,0 5.47952,2.45323 5.47952,5.47953 z"
       style="fill:#00ade7;fill-opacity:1;fill-rule:nonzero;stroke:none"
       transform="matrix(1.0666667,0,0,-1.0666667,13.867733,115.22293)" />
    <path
       id="path65"
       d="m 199.37158,11.9056 c 0,3.02628 -2.45323,5.47952 -5.47952,5.47952 -3.02629,0 -5.47952,-2.45324 -5.47952,-5.47952 0,-3.0263 2.45323,-5.47953 5.47952,-5.47953 3.02629,0 5.47952,2.45323 5.47952,5.47953 z"
       style="fill:#00ade7;fill-opacity:1;fill-rule:nonzero;stroke:none"
       transform="matrix(1.0666667,0,0,-1.0666667,13.867733,115.22293)" />
    <path
       id="path66"
       d="m 194.836,30.8979 c 0,3.0263 -2.45323,5.47953 -5.47952,5.47953 -3.0263,0 -5.47953,-2.45323 -5.47953,-5.47953 0,-3.02629 2.45323,-5.47952 5.47953,-5.47952 3.02629,0 5.47952,2.45323 5.47952,5.47952 z"
       style="fill:#00ade7;fill-opacity:1;fill-rule:nonzero;stroke:none"
       transform="matrix(1.0666667,0,0,-1.0666667,13.867733,115.22293)" />
    <path
       id="path67"
       d="m 195.40305,48.75653 c 0,3.02629 -2.45324,5.47952 -5.47953,5.47952 -3.02629,0 -5.47952,-2.45323 -5.47952,-5.47952 0,-3.02627 2.45323,-5.47952 5.47952,-5.47952 3.02629,0 5.47953,2.45325 5.47953,5.47952 z"
       style="fill:#00ade7;fill-opacity:1;fill-rule:nonzero;stroke:none"
       transform="matrix(1.0666667,0,0,-1.0666667,13.867733,115.22293)" />
    <path
       id="path68"
       d="m 196.53716,66.89847 c 0,3.02629 -2.45324,5.47952 -5.47953,5.47952 -3.02629,0 -5.47952,-2.45323 -5.47952,-5.47952 0,-3.02629 2.45323,-5.47952 5.47952,-5.47952 3.02629,0 5.47953,2.45323 5.47953,5.47952 z"
       style="fill:#00ade7;fill-opacity:1;fill-rule:nonzero;stroke:none"
       transform="matrix(1.0666667,0,0,-1.0666667,13.867733,115.22293)" />
    <path
       id="path69"
       d="m 197.38753,78.80408 c 0,3.02629 -2.45323,5.47952 -5.47953,5.47952 -3.02629,0 -5.47952,-2.45323 -5.47952,-5.47952 0,-3.02628 2.45323,-5.47953 5.47952,-5.47953 3.0263,0 5.47953,2.45325 5.47953,5.47953 z"
       style="fill:#00ade7;fill-opacity:1;fill-rule:nonzero;stroke:none"
       transform="matrix(1.0666667,0,0,-1.0666667,13.867733,115.22293)" />
    <path
       id="path70"
       d="m 199.65533,90.14264 c 0,3.02627 -2.45324,5.47952 -5.47952,5.47952 -3.02629,0 -5.47952,-2.45325 -5.47952,-5.47952 0,-3.02629 2.45323,-5.47952 5.47952,-5.47952 3.02628,0 5.47952,2.45323 5.47952,5.47952 z"
       style="fill:#00ade7;fill-opacity:1;fill-rule:nonzero;stroke:none"
       transform="matrix(1.0666667,0,0,-1.0666667,13.867733,115.22293)" />
    <path
       id="path71"
       d="m 208.44276,97.51308 c 0,3.02629 -2.45323,5.47952 -5.47952,5.47952 -3.02627,0 -5.47952,-2.45323 -5.47952,-5.47952 0,-3.02628 2.45325,-5.47953 5.47952,-5.47953 3.02629,0 5.47952,2.45325 5.47952,5.47953 z"
       style="fill:#00ade7;fill-opacity:1;fill-rule:nonzero;stroke:none"
       transform="matrix(1.0666667,0,0,-1.0666667,13.867733,115.22293)" />
    <path
       id="path72"
       d="m 214.39537,10.20485 c 0,3.02629 -2.45325,5.47952 -5.47952,5.47952 -3.02629,0 -5.47952,-2.45323 -5.47952,-5.47952 0,-3.02629 2.45323,-5.47952 5.47952,-5.47952 3.02627,0 5.47952,2.45323 5.47952,5.47952 z"
       style="fill:#00ade7;fill-opacity:1;fill-rule:nonzero;stroke:none"
       transform="matrix(1.0666667,0,0,-1.0666667,13.867733,115.22293)" />
    <path
       id="path73"
       d="m 207.8757,23.24458 c 0,3.02628 -2.45323,5.47952 -5.47952,5.47952 -3.02629,0 -5.47952,-2.45324 -5.47952,-5.47952 0,-3.02629 2.45323,-5.47952 5.47952,-5.47952 3.02629,0 5.47952,2.45323 5.47952,5.47952 z"
       style="fill:#00ade7;fill-opacity:1;fill-rule:nonzero;stroke:none"
       transform="matrix(1.0666667,0,0,-1.0666667,13.867733,115.22293)" />
    <path
       id="path74"
       d="m 206.17497,41.66983 c 0,3.02629 -2.45323,5.47952 -5.47952,5.47952 -3.02629,0 -5.47952,-2.45323 -5.47952,-5.47952 0,-3.02629 2.45323,-5.47953 5.47952,-5.47953 3.02629,0 5.47952,2.45324 5.47952,5.47953 z"
       style="fill:#00ade7;fill-opacity:1;fill-rule:nonzero;stroke:none"
       transform="matrix(1.0666667,0,0,-1.0666667,13.867733,115.22293)" />
    <path
       id="path75"
       d="m 204.47423,55.84323 c 0,3.02629 -2.45323,5.47952 -5.47953,5.47952 -3.02627,0 -5.47952,-2.45323 -5.47952,-5.47952 0,-3.02629 2.45325,-5.47952 5.47952,-5.47952 3.0263,0 5.47953,2.45323 5.47953,5.47952 z"
       style="fill:#00ade7;fill-opacity:1;fill-rule:nonzero;stroke:none"
       transform="matrix(1.0666667,0,0,-1.0666667,13.867733,115.22293)" />
    <path
       id="path76"
       d="m 216.66315,59.52846 c 0,3.02629 -2.45323,5.47952 -5.47953,5.47952 -3.02629,0 -5.47952,-2.45323 -5.47952,-5.47952 0,-3.02629 2.45323,-5.47953 5.47952,-5.47953 3.0263,0 5.47953,2.45324 5.47953,5.47953 z"
       style="fill:#00ade7;fill-opacity:1;fill-rule:nonzero;stroke:none"
       transform="matrix(1.0666667,0,0,-1.0666667,13.867733,115.22293)" />
    <path
       id="path77"
       d="m 208.44276,67.74884 c 0,3.02629 -2.45323,5.47952 -5.47952,5.47952 -3.02627,0 -5.47952,-2.45323 -5.47952,-5.47952 0,-3.02629 2.45325,-5.47952 5.47952,-5.47952 3.02629,0 5.47952,2.45323 5.47952,5.47952 z"
       style="fill:#00ade7;fill-opacity:1;fill-rule:nonzero;stroke:none"
       transform="matrix(1.0666667,0,0,-1.0666667,13.867733,115.22293)" />
    <path
       id="path78"
       d="m 211.27719,82.20555 c 0,3.02629 -2.45323,5.47952 -5.47952,5.47952 -3.02629,0 -5.47952,-2.45323 -5.47952,-5.47952 0,-3.02627 2.45323,-5.47952 5.47952,-5.47952 3.02629,0 5.47952,2.45325 5.47952,5.47952 z"
       style="fill:#00ade7;fill-opacity:1;fill-rule:nonzero;stroke:none"
       transform="matrix(1.0666667,0,0,-1.0666667,13.867733,115.22293)" />
    <path
       id="path79"
       d="m 219.78131,93.54454 c 0,3.02629 -2.45323,5.47952 -5.47952,5.47952 -3.02628,0 -5.47952,-2.45323 -5.47952,-5.47952 0,-3.02628 2.45324,-5.47952 5.47952,-5.47952 3.02629,0 5.47952,2.45324 5.47952,5.47952 z"
       style="fill:#00ade7;fill-opacity:1;fill-rule:nonzero;stroke:none"
       transform="matrix(1.0666667,0,0,-1.0666667,13.867733,115.22293)" />
    <path
       id="path80"
       d="m 229.13582,67.1818 c 0,3.02628 -2.45323,5.47952 -5.47952,5.47952 -3.02628,0 -5.47953,-2.45324 -5.47953,-5.47952 0,-3.0263 2.45325,-5.47953 5.47953,-5.47953 3.02629,0 5.47952,2.45323 5.47952,5.47953 z"
       style="fill:#00ade7;fill-opacity:1;fill-rule:nonzero;stroke:none"
       transform="matrix(1.0666667,0,0,-1.0666667,13.867733,115.22293)" />
    <path
       id="path81"
       d="m 222.04912,76.53629 c 0,3.02629 -2.45323,5.47952 -5.47952,5.47952 -3.0263,0 -5.47953,-2.45323 -5.47953,-5.47952 0,-3.02629 2.45323,-5.47953 5.47953,-5.47953 3.02629,0 5.47952,2.45324 5.47952,5.47953 z"
       style="fill:#00ade7;fill-opacity:1;fill-rule:nonzero;stroke:none"
       transform="matrix(1.0666667,0,0,-1.0666667,13.867733,115.22293)" />
    <path
       id="path82"
       d="m 234.8051,83.90674 c 0,3.02629 -2.45323,5.47952 -5.47952,5.47952 -3.02629,0 -5.47953,-2.45323 -5.47953,-5.47952 0,-3.02629 2.45324,-5.47952 5.47953,-5.47952 3.02629,0 5.47952,2.45323 5.47952,5.47952 z"
       style="fill:#00ade7;fill-opacity:1;fill-rule:nonzero;stroke:none"
       transform="matrix(1.0666667,0,0,-1.0666667,13.867733,115.22293)" />
    <path
       id="path83"
       d="m 232.254,95.5286 c 0,3.02629 -2.45323,5.47952 -5.47952,5.47952 -3.0263,0 -5.47953,-2.45323 -5.47953,-5.47952 0,-3.02628 2.45323,-5.47953 5.47953,-5.47953 3.02629,0 5.47952,2.45325 5.47952,5.47953 z"
       style="fill:#00ade7;fill-opacity:1;fill-rule:nonzero;stroke:none"
       transform="matrix(1.0666667,0,0,-1.0666667,13.867733,115.22293)" />
    <path
       id="path84"
       d="m 248.41187,66.04811 c 0,3.02628 -2.45324,5.47952 -5.47953,5.47952 -3.02627,0 -5.47952,-2.45324 -5.47952,-5.47952 0,-3.02629 2.45325,-5.47952 5.47952,-5.47952 3.02629,0 5.47953,2.45323 5.47953,5.47952 z"
       style="fill:#00ade7;fill-opacity:1;fill-rule:nonzero;stroke:none"
       transform="matrix(1.0666667,0,0,-1.0666667,13.867733,115.22293)" />
    <path
       id="path85"
       d="m 262.86859,62.36288 c 0,3.0263 -2.45323,5.47952 -5.47952,5.47952 -3.02629,0 -5.47952,-2.45322 -5.47952,-5.47952 0,-3.02628 2.45323,-5.47952 5.47952,-5.47952 3.02629,0 5.47952,2.45324 5.47952,5.47952 z"
       style="fill:#00ade7;fill-opacity:1;fill-rule:nonzero;stroke:none"
       transform="matrix(1.0666667,0,0,-1.0666667,13.867733,115.22293)" />
    <path
       id="path86"
       d="m 272.5064,68.59921 c 0,3.02629 -2.45324,5.47953 -5.47953,5.47953 -3.02627,0 -5.47952,-2.45324 -5.47952,-5.47953 0,-3.02629 2.45325,-5.47952 5.47952,-5.47952 3.02629,0 5.47953,2.45323 5.47953,5.47952 z"
       style="fill:#00ade7;fill-opacity:1;fill-rule:nonzero;stroke:none"
       transform="matrix(1.0666667,0,0,-1.0666667,13.867733,115.22293)" />
    <path
       id="path87"
       d="m 267.6875,86.74117 c 0,3.02627 -2.45325,5.47952 -5.47952,5.47952 -3.02629,0 -5.47953,-2.45325 -5.47953,-5.47952 0,-3.0263 2.45324,-5.47953 5.47953,-5.47953 3.02627,0 5.47952,2.45323 5.47952,5.47953 z"
       style="fill:#00ade7;fill-opacity:1;fill-rule:nonzero;stroke:none"
       transform="matrix(1.0666667,0,0,-1.0666667,13.867733,115.22293)" />
    <path
       id="path88"
       d="m 259.46712,77.95372 c 0,3.02629 -2.45323,5.47952 -5.47952,5.47952 -3.0263,0 -5.47953,-2.45323 -5.47953,-5.47952 0,-3.02629 2.45323,-5.47952 5.47953,-5.47952 3.02629,0 5.47952,2.45323 5.47952,5.47952 z"
       style="fill:#00ade7;fill-opacity:1;fill-rule:nonzero;stroke:none"
       transform="matrix(1.0666667,0,0,-1.0666667,13.867733,115.22293)" />
    <path
       id="path89"
       d="m 245.86032,77.38666 c 0,3.02627 -2.45323,5.47952 -5.47952,5.47952 -3.02628,0 -5.47952,-2.45325 -5.47952,-5.47952 0,-3.02629 2.45324,-5.47952 5.47952,-5.47952 3.02629,0 5.47952,2.45323 5.47952,5.47952 z"
       style="fill:#00ade7;fill-opacity:1;fill-rule:nonzero;stroke:none"
       transform="matrix(1.0666667,0,0,-1.0666667,13.867733,115.22293)" />
    <path
       id="path90"
       d="m 252.38042,88.72565 c 0,3.02627 -2.45325,5.47952 -5.47952,5.47952 -3.0263,0 -5.47953,-2.45325 -5.47953,-5.47952 0,-3.02629 2.45323,-5.47953 5.47953,-5.47953 3.02627,0 5.47952,2.45324 5.47952,5.47953 z"
       style="fill:#00ade7;fill-opacity:1;fill-rule:nonzero;stroke:none"
       transform="matrix(1.0666667,0,0,-1.0666667,13.867733,115.22293)" />
    <path
       id="path91"
       d="m 244.72665,97.51308 c 0,3.02629 -2.45323,5.47952 -5.47952,5.47952 -3.02629,0 -5.47952,-2.45323 -5.47952,-5.47952 0,-3.02628 2.45323,-5.47953 5.47952,-5.47953 3.02629,0 5.47952,2.45325 5.47952,5.47953 z"
       style="fill:#00ade7;fill-opacity:1;fill-rule:nonzero;stroke:none"
       transform="matrix(1.0666667,0,0,-1.0666667,13.867733,115.22293)" />
    <path
       id="path92"
       d="m 262.58528,98.64676 c 0,3.02629 -2.45323,5.47952 -5.47952,5.47952 -3.02629,0 -5.47952,-2.45323 -5.47952,-5.47952 0,-3.02629 2.45323,-5.47952 5.47952,-5.47952 3.02629,0 5.47952,2.45323 5.47952,5.47952 z"
       style="fill:#00ade7;fill-opacity:1;fill-rule:nonzero;stroke:none"
       transform="matrix(1.0666667,0,0,-1.0666667,13.867733,115.22293)" />
    <path
       id="path93"
       d="m 227.43507,10.20485 c 0,3.02629 -2.45323,5.47952 -5.47952,5.47952 -3.02629,0 -5.47952,-2.45323 -5.47952,-5.47952 0,-3.02629 2.45323,-5.47952 5.47952,-5.47952 3.02629,0 5.47952,2.45323 5.47952,5.47952 z"
       style="fill:#88c946;fill-opacity:1;fill-rule:nonzero;stroke:none"
       transform="matrix(1.0666667,0,0,-1.0666667,13.867733,115.22293)" />
    <path
       id="path94"
       d="m 240.47437,9.92155 c 0,3.02628 -2.45324,5.47953 -5.47953,5.47953 -3.02627,0 -5.47952,-2.45325 -5.47952,-5.47953 0,-3.02629 2.45325,-5.47952 5.47952,-5.47952 3.02629,0 5.47953,2.45323 5.47953,5.47952 z"
       style="fill:#88c946;fill-opacity:1;fill-rule:nonzero;stroke:none"
       transform="matrix(1.0666667,0,0,-1.0666667,13.867733,115.22293)" />
    <path
       id="path95"
       d="m 252.38042,9.92155 c 0,3.02628 -2.45325,5.47953 -5.47952,5.47953 -3.0263,0 -5.47953,-2.45325 -5.47953,-5.47953 0,-3.02629 2.45323,-5.47952 5.47953,-5.47952 3.02627,0 5.47952,2.45323 5.47952,5.47952 z"
       style="fill:#88c946;fill-opacity:1;fill-rule:nonzero;stroke:none"
       transform="matrix(1.0666667,0,0,-1.0666667,13.867733,115.22293)" />
    <path
       id="path96"
       d="m 271.37273,9.92155 c 0,3.02628 -2.45323,5.47953 -5.47953,5.47953 -3.02629,0 -5.47952,-2.45325 -5.47952,-5.47953 0,-3.02629 2.45323,-5.47952 5.47952,-5.47952 3.0263,0 5.47953,2.45323 5.47953,5.47952 z"
       style="fill:#88c946;fill-opacity:1;fill-rule:nonzero;stroke:none"
       transform="matrix(1.0666667,0,0,-1.0666667,13.867733,115.22293)" />
    <path
       id="path97"
       d="m 271.93935,22.67752 c 0,3.02628 -2.45324,5.47952 -5.47953,5.47952 -3.02627,0 -5.47952,-2.45324 -5.47952,-5.47952 0,-3.02629 2.45325,-5.47952 5.47952,-5.47952 3.02629,0 5.47953,2.45323 5.47953,5.47952 z"
       style="fill:#88c946;fill-opacity:1;fill-rule:nonzero;stroke:none"
       transform="matrix(1.0666667,0,0,-1.0666667,13.867733,115.22293)" />
    <path
       id="path98"
       d="m 271.65604,38.26836 c 0,3.02629 -2.45324,5.47952 -5.47953,5.47952 -3.02629,0 -5.47952,-2.45323 -5.47952,-5.47952 0,-3.02629 2.45323,-5.47953 5.47952,-5.47953 3.02629,0 5.47953,2.45324 5.47953,5.47953 z"
       style="fill:#88c946;fill-opacity:1;fill-rule:nonzero;stroke:none"
       transform="matrix(1.0666667,0,0,-1.0666667,13.867733,115.22293)" />
    <path
       id="path99"
       d="m 272.2231,53.85875 c 0,3.02629 -2.45323,5.47952 -5.47952,5.47952 -3.02629,0 -5.47953,-2.45323 -5.47953,-5.47952 0,-3.02629 2.45324,-5.47952 5.47953,-5.47952 3.02629,0 5.47952,2.45323 5.47952,5.47952 z"
       style="fill:#88c946;fill-opacity:1;fill-rule:nonzero;stroke:none"
       transform="matrix(1.0666667,0,0,-1.0666667,13.867733,115.22293)" />
    <path
       id="path100"
       d="m 262.58528,45.92168 c 0,3.02629 -2.45323,5.47952 -5.47952,5.47952 -3.02629,0 -5.47952,-2.45323 -5.47952,-5.47952 0,-3.02629 2.45323,-5.47953 5.47952,-5.47953 3.02629,0 5.47952,2.45324 5.47952,5.47953 z"
       style="fill:#88c946;fill-opacity:1;fill-rule:nonzero;stroke:none"
       transform="matrix(1.0666667,0,0,-1.0666667,13.867733,115.22293)" />
    <path
       id="path101"
       d="m 248.9785,51.59138 c 0,3.0263 -2.45323,5.47952 -5.47952,5.47952 -3.02629,0 -5.47953,-2.45322 -5.47953,-5.47952 0,-3.02628 2.45324,-5.47952 5.47953,-5.47952 3.02629,0 5.47952,2.45324 5.47952,5.47952 z"
       style="fill:#88c946;fill-opacity:1;fill-rule:nonzero;stroke:none"
       transform="matrix(1.0666667,0,0,-1.0666667,13.867733,115.22293)" />
    <path
       id="path102"
       d="m 237.63995,56.12654 c 0,3.02629 -2.45325,5.47952 -5.47952,5.47952 -3.02629,0 -5.47952,-2.45323 -5.47952,-5.47952 0,-3.02627 2.45323,-5.47952 5.47952,-5.47952 3.02627,0 5.47952,2.45325 5.47952,5.47952 z"
       style="fill:#88c946;fill-opacity:1;fill-rule:nonzero;stroke:none"
       transform="matrix(1.0666667,0,0,-1.0666667,13.867733,115.22293)" />
    <path
       id="path103"
       d="m 226.30096,47.33911 c 0,3.02628 -2.45323,5.47952 -5.47952,5.47952 -3.02629,0 -5.47952,-2.45324 -5.47952,-5.47952 0,-3.02629 2.45323,-5.47952 5.47952,-5.47952 3.02629,0 5.47952,2.45323 5.47952,5.47952 z"
       style="fill:#88c946;fill-opacity:1;fill-rule:nonzero;stroke:none"
       transform="matrix(1.0666667,0,0,-1.0666667,13.867733,115.22293)" />
    <path
       id="path104"
       d="m 218.64764,35.43349 c 0,3.02629 -2.45323,5.47952 -5.47952,5.47952 -3.02629,0 -5.47952,-2.45323 -5.47952,-5.47952 0,-3.02628 2.45323,-5.47953 5.47952,-5.47953 3.02629,0 5.47952,2.45325 5.47952,5.47953 z"
       style="fill:#88c946;fill-opacity:1;fill-rule:nonzero;stroke:none"
       transform="matrix(1.0666667,0,0,-1.0666667,13.867733,115.22293)" />
    <path
       id="path105"
       d="m 222.61617,22.67752 c 0,3.02628 -2.45324,5.47952 -5.47953,5.47952 -3.02629,0 -5.47952,-2.45324 -5.47952,-5.47952 0,-3.02629 2.45323,-5.47952 5.47952,-5.47952 3.02629,0 5.47953,2.45323 5.47953,5.47952 z"
       style="fill:#88c946;fill-opacity:1;fill-rule:nonzero;stroke:none"
       transform="matrix(1.0666667,0,0,-1.0666667,13.867733,115.22293)" />
    <path
       id="path106"
       d="m 235.93921,20.40973 c 0,3.02629 -2.45323,5.47952 -5.47952,5.47952 -3.02629,0 -5.47953,-2.45323 -5.47953,-5.47952 0,-3.02629 2.45324,-5.47953 5.47953,-5.47953 3.02629,0 5.47952,2.45324 5.47952,5.47953 z"
       style="fill:#88c946;fill-opacity:1;fill-rule:nonzero;stroke:none"
       transform="matrix(1.0666667,0,0,-1.0666667,13.867733,115.22293)" />
    <path
       id="path107"
       d="m 250.11261,20.97678 c 0,3.02629 -2.45323,5.47952 -5.47952,5.47952 -3.02629,0 -5.47953,-2.45323 -5.47953,-5.47952 0,-3.02629 2.45324,-5.47953 5.47953,-5.47953 3.02629,0 5.47952,2.45324 5.47952,5.47953 z"
       style="fill:#88c946;fill-opacity:1;fill-rule:nonzero;stroke:none"
       transform="matrix(1.0666667,0,0,-1.0666667,13.867733,115.22293)" />
    <path
       id="path108"
       d="m 261.73448,16.72449 c 0,3.02629 -2.45325,5.47952 -5.47952,5.47952 -3.02629,0 -5.47952,-2.45323 -5.47952,-5.47952 0,-3.02628 2.45323,-5.47953 5.47952,-5.47953 3.02627,0 5.47952,2.45325 5.47952,5.47953 z"
       style="fill:#88c946;fill-opacity:1;fill-rule:nonzero;stroke:none"
       transform="matrix(1.0666667,0,0,-1.0666667,13.867733,115.22293)" />
    <path
       id="path109"
       d="m 261.16785,28.06348 c 0,3.02629 -2.45324,5.47952 -5.47953,5.47952 -3.02627,0 -5.47952,-2.45323 -5.47952,-5.47952 0,-3.02628 2.45325,-5.47953 5.47952,-5.47953 3.02629,0 5.47953,2.45325 5.47953,5.47953 z"
       style="fill:#88c946;fill-opacity:1;fill-rule:nonzero;stroke:none"
       transform="matrix(1.0666667,0,0,-1.0666667,13.867733,115.22293)" />
    <path
       id="path110"
       d="m 252.66373,36.28386 c 0,3.02629 -2.45323,5.47952 -5.47953,5.47952 -3.02629,0 -5.47952,-2.45323 -5.47952,-5.47952 0,-3.02629 2.45323,-5.47952 5.47952,-5.47952 3.0263,0 5.47953,2.45323 5.47953,5.47952 z"
       style="fill:#88c946;fill-opacity:1;fill-rule:nonzero;stroke:none"
       transform="matrix(1.0666667,0,0,-1.0666667,13.867733,115.22293)" />
    <path
       id="path111"
       d="m 240.47437,41.95314 c 0,3.02629 -2.45324,5.47952 -5.47953,5.47952 -3.02627,0 -5.47952,-2.45323 -5.47952,-5.47952 0,-3.02629 2.45325,-5.47952 5.47952,-5.47952 3.02629,0 5.47953,2.45323 5.47953,5.47952 z"
       style="fill:#88c946;fill-opacity:1;fill-rule:nonzero;stroke:none"
       transform="matrix(1.0666667,0,0,-1.0666667,13.867733,115.22293)" />
    <path
       id="path112"
       d="m 230.83656,32.59865 c 0,3.02629 -2.45323,5.47952 -5.47952,5.47952 -3.02629,0 -5.47952,-2.45323 -5.47952,-5.47952 0,-3.02629 2.45323,-5.47952 5.47952,-5.47952 3.02629,0 5.47952,2.45323 5.47952,5.47952 z"
       style="fill:#88c946;fill-opacity:1;fill-rule:nonzero;stroke:none"
       transform="matrix(1.0666667,0,0,-1.0666667,13.867733,115.22293)" />
    <path
       id="path113"
       d="m 242.45885,30.33128 c 0,3.02629 -2.45323,5.47952 -5.47953,5.47952 -3.02627,0 -5.47952,-2.45323 -5.47952,-5.47952 0,-3.02628 2.45325,-5.47952 5.47952,-5.47952 3.0263,0 5.47953,2.45324 5.47953,5.47952 z"
       style="fill:#88c946;fill-opacity:1;fill-rule:nonzero;stroke:none"
       transform="matrix(1.0666667,0,0,-1.0666667,13.867733,115.22293)" />
    <path
       id="path114"
       d="M 172.06517,1.41751 H 277.2319 V 107.15076 H 172.06517 Z"
       style="fill:none;stroke:#000000;stroke-width:1.74348;stroke-linecap:butt;stroke-linejoin:round;stroke-miterlimit:10;stroke-dasharray:none;stroke-opacity:1"
       transform="matrix(1.0666667,0,0,-1.0666667,13.867733,115.22293)" />
    <path
       id="path115"
       d="m 213.95685,0.54576 c 0,3.81122 1.47883,5.84786 1.47883,9.65907 0,5.46347 -4.72058,7.37571 -5.66928,12.75621 -2.12071,5.82659 -5.93486,10.22083 -2.83462,15.59063 2.32939,6.39987 3.85361,10.50431 9.07075,14.88211 4.89743,2.82751 6.5918,6.28622 11.90583,8.22039 5.27215,3.04387 9.58665,-0.75228 15.30729,-2.83444 6.93482,-2.52409 13.19745,-5.45262 18.85066,-0.70892 1.12316,1.94537 2.87356,1.99501 4.81891,3.11816 l 11.21842,3.80349"
       style="fill:none;stroke:#ff0000;stroke-width:1.99255;stroke-linecap:butt;stroke-linejoin:round;stroke-miterlimit:10;stroke-dasharray:none;stroke-opacity:1"
       transform="matrix(1.0666667,0,0,-1.0666667,13.867733,115.22293)" />
    <path
       id="path116"
       d="M 5.7861309,-6.5319766 H 4.9951152 v 5.3466797 L 1.5820293,-6.5319766 H 0.68847461 V 0.00122656 H 1.4648418 V -5.3015078 l 3.3837891,5.30273436 h 0.9375 z m 6.4746091,0 h -0.791015 v 5.3466797 L 8.0566387,-6.5319766 H 7.163084 V 0.00122656 H 7.9394512 V -5.3015078 L 11.32324,0.00122656 h 0.9375 z m 8.144531,6.53320316 1.376954,-4.70214846 h -0.834961 l -0.9375,3.6621094 -0.922852,-3.6621094 h -0.908203 l -0.908203,3.6621094 -0.952149,-3.6621094 h -0.820312 l 1.362305,4.70214846 h 0.834961 l 0.908203,-3.69140626 0.952148,3.69140626 z m 2.856446,-4.70214846 h -0.747071 v 4.70214846 h 0.747071 z m 0,-1.8310547 h -0.761719 v 0.9375 h 0.761719 z m 2.911377,1.8310547 h -0.761719 v -1.2890625 h -0.74707 v 1.2890625 h -0.629883 v 0.6152344 h 0.629883 v 3.54492187 c 0,0.48339844 0.322265,0.74707032 0.908203,0.74707032 0.175781,0 0.351562,-0.0146484 0.600586,-0.0585938 v -0.62988282 c -0.08789,0.0292969 -0.205078,0.0292969 -0.351563,0.0292969 -0.322265,0 -0.410156,-0.0878906 -0.410156,-0.41015625 V -4.0856875 h 0.761719 z m 0.853271,-1.8310547 v 6.53320316 h 0.747071 V -2.5915469 c 0,-0.9521484 0.498046,-1.5820312 1.274414,-1.5820312 0.234375,0 0.483398,0.073242 0.659179,0.2050781 0.219727,0.1611328 0.307617,0.3808594 0.307617,0.7177734 v 3.25195316 h 0.732422 V -3.5436953 c 0,-0.7910156 -0.55664,-1.2890625 -1.479492,-1.2890625 -0.65918,0 -1.054687,0.2050781 -1.49414,0.7763672 v -2.475586 z m 11.096192,4.5703125 0.673828,1.96289066 h 0.9375 L 37.43408,-6.5319766 h -1.069336 l -2.34375,6.53320316 h 0.893555 l 0.688476,-1.96289066 z m -0.234375,-0.703125 h -2.080078 l 1.083984,-2.9736328 z m 6.185302,-0.4541015 c -0.0293,-0.4541016 -0.131836,-0.7470703 -0.307617,-1.0107422 -0.322265,-0.4394531 -0.893555,-0.703125 -1.538086,-0.703125 -1.274414,0 -2.094726,1.0107422 -2.094726,2.5634765 0,1.52343755 0.805664,2.47558599 2.080078,2.47558599 1.113281,0 1.831054,-0.67382813 1.918945,-1.81640629 h -0.74707 c -0.131836,0.74707035 -0.512696,1.12792972 -1.157227,1.12792972 -0.820312,0 -1.318359,-0.67382812 -1.318359,-1.78710942 0,-1.171875 0.483398,-1.875 1.303711,-1.875 0.629883,0 1.02539,0.366211 1.113281,1.0253907 z m 2.53418,-1.5820313 h -0.761719 v -1.2890625 h -0.74707 v 1.2890625 h -0.629883 v 0.6152344 h 0.629883 v 3.54492187 c 0,0.48339844 0.322266,0.74707032 0.908203,0.74707032 0.175781,0 0.351563,-0.0146484 0.600586,-0.0585938 v -0.62988282 c -0.08789,0.0292969 -0.205078,0.0292969 -0.351562,0.0292969 -0.322266,0 -0.410157,-0.0878906 -0.410157,-0.41015625 V -4.0856875 h 0.761719 z m 1.571045,0 h -0.74707 v 4.70214846 h 0.74707 z m 0,-1.8310547 H 47.41699 v 0.9375 h 0.761719 z m 3.193359,6.53320316 1.801758,-4.70214846 H 52.338865 L 51.005857,-0.89232813 49.76074,-4.7009219 h -0.849609 l 1.655273,4.70214846 z m 6.500244,-0.43945312 c -0.07324,0.0146484 -0.117187,0.0146484 -0.161132,0.0146484 -0.249024,0 -0.395508,-0.13183593 -0.395508,-0.36621093 V -3.5436953 c 0,-0.834961 -0.615235,-1.2890625 -1.772461,-1.2890625 -0.673828,0 -1.245117,0.2050781 -1.552734,0.5419922 -0.219727,0.2490234 -0.307618,0.5126953 -0.322266,0.9814453 h 0.74707 c 0.05859,-0.5712891 0.410156,-0.834961 1.098633,-0.834961 0.673828,0 1.054688,0.2490235 1.054688,0.703125 v 0.1904297 c 0,0.3222657 -0.19043,0.4541016 -0.776368,0.5273438 -1.054687,0.1318359 -1.21582,0.1757812 -1.508789,0.2929687 -0.541992,0.2197266 -0.820312,0.6445313 -0.820312,1.2451172 0,0.8496094 0.585937,1.39160159 1.538086,1.39160159 0.585937,0 1.069336,-0.20507813 1.596679,-0.68847657 0.05859,0.46875 0.278321,0.68847657 0.776368,0.68847657 0.146484,0 0.263671,-0.0146484 0.498046,-0.0732422 z m -1.30371,-1.04003904 c 0,0.2490234 -0.07324,0.4101562 -0.292969,0.61523435 -0.307617,0.27832031 -0.673828,0.41015625 -1.113281,0.41015625 -0.585938,0 -0.922852,-0.27832031 -0.922852,-0.7470703 0,-0.4980469 0.336914,-0.7470703 1.12793,-0.8642578 0.791015,-0.1025391 0.952148,-0.1464844 1.201172,-0.2636719 z m 3.76831,-3.2226563 h -0.761719 v -1.2890625 h -0.74707 v 1.2890625 H 58.19824 v 0.6152344 h 0.629883 v 3.54492187 c 0,0.48339844 0.322266,0.74707032 0.908203,0.74707032 0.175781,0 0.351563,-0.0146484 0.600586,-0.0585938 v -0.62988282 c -0.08789,0.0292969 -0.205078,0.0292969 -0.351562,0.0292969 -0.322266,0 -0.410157,-0.0878906 -0.410157,-0.41015625 V -4.0856875 h 0.761719 z m 1.571045,0 h -0.74707 v 4.70214846 h 0.74707 z m 0,-1.8310547 h -0.761719 v 0.9375 h 0.761719 z m 3.07251,1.6992188 c -1.31836,0 -2.109375,0.9375 -2.109375,2.5195312 0,1.58203129 0.791015,2.51953129 2.124023,2.51953129 1.31836,0 2.124024,-0.9375 2.124024,-2.47558599 0,-1.6259765 -0.776368,-2.5634765 -2.138672,-2.5634765 z m 0.01465,0.6884765 c 0.84961,0 1.347656,0.6884766 1.347656,1.8603516 0,1.0986328 -0.527343,1.80175782 -1.347656,1.80175782 -0.834961,0 -1.347656,-0.68847652 -1.347656,-1.83105472 0,-1.1279297 0.512695,-1.8310547 1.347656,-1.8310547 z m 3.167725,-0.5566406 v 4.70214846 h 0.74707 V -2.5915469 c 0,-0.9521484 0.512695,-1.5820312 1.274414,-1.5820312 0.600586,0 0.966797,0.3515625 0.966797,0.9228515 v 3.25195316 h 0.74707 V -3.5436953 c 0,-0.7910156 -0.585937,-1.2890625 -1.49414,-1.2890625 -0.688477,0 -1.142578,0.2636719 -1.552735,0.9228515 v -0.7910156 z m 8.481445,1.7285156 h 3.120117 v -0.7324218 h -3.120117 v -2.0947266 h 3.544922 v -0.7324219 h -4.379883 v 6.53320316 h 0.834961 z m 8.15918,2.97363286 V -4.7009219 h -0.74707 v 2.6660156 c 0,0.9667969 -0.498047,1.5820313 -1.274415,1.5820313 -0.600585,0 -0.966796,-0.3515625 -0.966796,-0.9228516 v -3.3251953 h -0.747071 v 3.6328125 c 0,0.77636721 0.585938,1.27441409 1.494141,1.27441409 0.688476,0 1.12793,-0.234375 1.567383,-0.86425782 V 0.00122656 Z M 86.096189,-4.7009219 V 0.00122656 H 86.84326 V -2.5915469 c 0,-0.9521484 0.512695,-1.5820312 1.274414,-1.5820312 0.600586,0 0.966797,0.3515625 0.966797,0.9228515 v 3.25195316 h 0.74707 V -3.5436953 c 0,-0.7910156 -0.585937,-1.2890625 -1.494141,-1.2890625 -0.688476,0 -1.142578,0.2636719 -1.552734,0.9228515 v -0.7910156 z m 8.576661,1.5820313 c -0.0293,-0.4541016 -0.131836,-0.7470703 -0.307618,-1.0107422 -0.322265,-0.4394531 -0.893554,-0.703125 -1.538086,-0.703125 -1.274414,0 -2.094726,1.0107422 -2.094726,2.5634765 0,1.52343755 0.805664,2.47558599 2.080078,2.47558599 1.113281,0 1.831055,-0.67382813 1.918945,-1.81640629 h -0.74707 c -0.131836,0.74707035 -0.512695,1.12792972 -1.157227,1.12792972 -0.820312,0 -1.318359,-0.67382812 -1.318359,-1.78710942 0,-1.171875 0.483399,-1.875 1.303711,-1.875 0.629883,0 1.025391,0.366211 1.113281,1.0253907 z m 2.534179,-1.5820313 H 96.445311 V -5.9899844 H 95.69824 v 1.2890625 h -0.629883 v 0.6152344 h 0.629883 v 3.54492187 c 0,0.48339844 0.322266,0.74707032 0.908203,0.74707032 0.175782,0 0.351563,-0.0146484 0.600586,-0.0585938 v -0.62988282 c -0.08789,0.0292969 -0.205078,0.0292969 -0.351562,0.0292969 -0.322266,0 -0.410156,-0.0878906 -0.410156,-0.41015625 V -4.0856875 h 0.761718 z m 1.571045,0 h -0.74707 v 4.70214846 h 0.74707 z m 0,-1.8310547 h -0.761719 v 0.9375 h 0.761719 z m 3.072506,1.6992188 c -1.31836,0 -2.109371,0.9375 -2.109371,2.5195312 0,1.58203129 0.791011,2.51953129 2.124021,2.51953129 1.31836,0 2.12403,-0.9375 2.12403,-2.47558599 0,-1.6259765 -0.77637,-2.5634765 -2.13868,-2.5634765 z m 0.0147,0.6884765 c 0.84961,0 1.34766,0.6884766 1.34766,1.8603516 0,1.0986328 -0.52735,1.80175782 -1.34766,1.80175782 -0.83496,0 -1.34765,-0.68847652 -1.34765,-1.83105472 0,-1.1279297 0.51269,-1.8310547 1.34765,-1.8310547 z m 3.16773,-0.5566406 v 4.70214846 h 0.74707 V -2.5915469 c 0,-0.9521484 0.51269,-1.5820312 1.27441,-1.5820312 0.60059,0 0.9668,0.3515625 0.9668,0.9228515 v 3.25195316 h 0.74707 V -3.5436953 c 0,-0.7910156 -0.58594,-1.2890625 -1.49414,-1.2890625 -0.68848,0 -1.14258,0.2636719 -1.55274,0.9228515 v -0.7910156 z m 0,0"
       style="fill:#000000;fill-opacity:1;fill-rule:nonzero;stroke:none"
       aria-label="NNwithActivationFunction"
       transform="matrix(1.0666667,0,0,1.0666667,195.14453,128.23307)" />
  </g>
</svg>
