<?xml version="1.0" encoding="UTF-8" standalone="no"?>
<!-- Created with Inkscape (http://www.inkscape.org/) -->

<svg
   version="1.1"
   id="svg1"
   width="335.09067"
   height="140.12801"
   viewBox="0 0 335.09067 140.12801"
   xmlns="http://www.w3.org/2000/svg"
   xmlns:svg="http://www.w3.org/2000/svg">
  <defs
     id="defs1" />
  <g
     id="g1">
    <path
       id="path1"
       d="m 16.81807,21.82715 c 0,3.02629 -2.45325,5.47952 -5.47952,5.47952 -3.02629,0 -5.47953,-2.45323 -5.47953,-5.47952 0,-3.02629 2.45324,-5.47952 5.47953,-5.47952 3.02627,0 5.47952,2.45323 5.47952,5.47952 z"
       style="fill:#00ade7;fill-opacity:1;fill-rule:nonzero;stroke:none"
       transform="matrix(1.1333333,0,0,-1.1333333,14.734467,122.4242)" />
    <path
       id="path2"
       d="m 16.53474,41.3865 c 0,3.0263 -2.45323,5.47953 -5.47952,5.47953 -3.02629,0 -5.47952,-2.45323 -5.47952,-5.47953 0,-3.02627 2.45323,-5.47952 5.47952,-5.47952 3.02629,0 5.47952,2.45325 5.47952,5.47952 z"
       style="fill:#00ade7;fill-opacity:1;fill-rule:nonzero;stroke:none"
       transform="matrix(1.1333333,0,0,-1.1333333,14.734467,122.4242)" />
    <path
       id="path3"
       d="m 16.53474,57.26067 c 0,3.02629 -2.45323,5.47952 -5.47952,5.47952 -3.02629,0 -5.47952,-2.45323 -5.47952,-5.47952 0,-3.02629 2.45323,-5.47953 5.47952,-5.47953 3.02629,0 5.47952,2.45324 5.47952,5.47953 z"
       style="fill:#00ade7;fill-opacity:1;fill-rule:nonzero;stroke:none"
       transform="matrix(1.1333333,0,0,-1.1333333,14.734467,122.4242)" />
    <path
       id="path4"
       d="m 15.9677,71.43407 c 0,3.02629 -2.45323,5.47952 -5.47953,5.47952 -3.02629,0 -5.47952,-2.45323 -5.47952,-5.47952 0,-3.02628 2.45323,-5.47953 5.47952,-5.47953 3.0263,0 5.47953,2.45325 5.47953,5.47953 z"
       style="fill:#00ade7;fill-opacity:1;fill-rule:nonzero;stroke:none"
       transform="matrix(1.1333333,0,0,-1.1333333,14.734467,122.4242)" />
    <path
       id="path5"
       d="m 15.9677,83.62299 c 0,3.02629 -2.45323,5.47952 -5.47953,5.47952 -3.02629,0 -5.47952,-2.45323 -5.47952,-5.47952 0,-3.02629 2.45323,-5.47953 5.47952,-5.47953 3.0263,0 5.47953,2.45324 5.47953,5.47953 z"
       style="fill:#00ade7;fill-opacity:1;fill-rule:nonzero;stroke:none"
       transform="matrix(1.1333333,0,0,-1.1333333,14.734467,122.4242)" />
    <path
       id="path6"
       d="m 18.80255,94.96198 c 0,3.02629 -2.45325,5.47952 -5.47952,5.47952 -3.02629,0 -5.47953,-2.45323 -5.47953,-5.47952 0,-3.0263 2.45324,-5.47953 5.47953,-5.47953 3.02627,0 5.47952,2.45323 5.47952,5.47953 z"
       style="fill:#00ade7;fill-opacity:1;fill-rule:nonzero;stroke:none"
       transform="matrix(1.1333333,0,0,-1.1333333,14.734467,122.4242)" />
    <path
       id="path7"
       d="m 29.29073,11.9056 c 0,3.02628 -2.45323,5.47952 -5.47953,5.47952 -3.02629,0 -5.47952,-2.45324 -5.47952,-5.47952 0,-3.0263 2.45323,-5.47953 5.47952,-5.47953 3.0263,0 5.47953,2.45323 5.47953,5.47953 z"
       style="fill:#00ade7;fill-opacity:1;fill-rule:nonzero;stroke:none"
       transform="matrix(1.1333333,0,0,-1.1333333,14.734467,122.4242)" />
    <path
       id="path8"
       d="m 24.75514,30.8979 c 0,3.0263 -2.45324,5.47953 -5.47952,5.47953 -3.02629,0 -5.47952,-2.45323 -5.47952,-5.47953 0,-3.02629 2.45323,-5.47952 5.47952,-5.47952 3.02628,0 5.47952,2.45323 5.47952,5.47952 z"
       style="fill:#00ade7;fill-opacity:1;fill-rule:nonzero;stroke:none"
       transform="matrix(1.1333333,0,0,-1.1333333,14.734467,122.4242)" />
    <path
       id="path9"
       d="m 25.32219,48.75653 c 0,3.02629 -2.45323,5.47952 -5.47952,5.47952 -3.02629,0 -5.47953,-2.45323 -5.47953,-5.47952 0,-3.02627 2.45324,-5.47952 5.47953,-5.47952 3.02629,0 5.47952,2.45325 5.47952,5.47952 z"
       style="fill:#00ade7;fill-opacity:1;fill-rule:nonzero;stroke:none"
       transform="matrix(1.1333333,0,0,-1.1333333,14.734467,122.4242)" />
    <path
       id="path10"
       d="m 26.4563,66.89847 c 0,3.02629 -2.45323,5.47952 -5.47952,5.47952 -3.02629,0 -5.47953,-2.45323 -5.47953,-5.47952 0,-3.02629 2.45324,-5.47952 5.47953,-5.47952 3.02629,0 5.47952,2.45323 5.47952,5.47952 z"
       style="fill:#00ade7;fill-opacity:1;fill-rule:nonzero;stroke:none"
       transform="matrix(1.1333333,0,0,-1.1333333,14.734467,122.4242)" />
    <path
       id="path11"
       d="m 27.30667,78.80408 c 0,3.02629 -2.45323,5.47952 -5.47952,5.47952 -3.02629,0 -5.47952,-2.45323 -5.47952,-5.47952 0,-3.02628 2.45323,-5.47953 5.47952,-5.47953 3.02629,0 5.47952,2.45325 5.47952,5.47953 z"
       style="fill:#00ade7;fill-opacity:1;fill-rule:nonzero;stroke:none"
       transform="matrix(1.1333333,0,0,-1.1333333,14.734467,122.4242)" />
    <path
       id="path12"
       d="m 29.57446,90.14264 c 0,3.02627 -2.45323,5.47952 -5.47952,5.47952 -3.02628,0 -5.47952,-2.45325 -5.47952,-5.47952 0,-3.02629 2.45324,-5.47952 5.47952,-5.47952 3.02629,0 5.47952,2.45323 5.47952,5.47952 z"
       style="fill:#00ade7;fill-opacity:1;fill-rule:nonzero;stroke:none"
       transform="matrix(1.1333333,0,0,-1.1333333,14.734467,122.4242)" />
    <path
       id="path13"
       d="m 38.36191,97.51308 c 0,3.02629 -2.45323,5.47952 -5.47952,5.47952 -3.02629,0 -5.47953,-2.45323 -5.47953,-5.47952 0,-3.02628 2.45324,-5.47953 5.47953,-5.47953 3.02629,0 5.47952,2.45325 5.47952,5.47953 z"
       style="fill:#00ade7;fill-opacity:1;fill-rule:nonzero;stroke:none"
       transform="matrix(1.1333333,0,0,-1.1333333,14.734467,122.4242)" />
    <path
       id="path14"
       d="m 44.3145,10.20485 c 0,3.02629 -2.45323,5.47952 -5.47952,5.47952 -3.02628,0 -5.47953,-2.45323 -5.47953,-5.47952 0,-3.02629 2.45325,-5.47952 5.47953,-5.47952 3.02629,0 5.47952,2.45323 5.47952,5.47952 z"
       style="fill:#00ade7;fill-opacity:1;fill-rule:nonzero;stroke:none"
       transform="matrix(1.1333333,0,0,-1.1333333,14.734467,122.4242)" />
    <path
       id="path15"
       d="m 37.79485,23.24458 c 0,3.02628 -2.45324,5.47952 -5.47953,5.47952 -3.02629,0 -5.47952,-2.45324 -5.47952,-5.47952 0,-3.02629 2.45323,-5.47952 5.47952,-5.47952 3.02629,0 5.47953,2.45323 5.47953,5.47952 z"
       style="fill:#00ade7;fill-opacity:1;fill-rule:nonzero;stroke:none"
       transform="matrix(1.1333333,0,0,-1.1333333,14.734467,122.4242)" />
    <path
       id="path16"
       d="m 36.09412,41.66983 c 0,3.02629 -2.45325,5.47952 -5.47952,5.47952 -3.0263,0 -5.47953,-2.45323 -5.47953,-5.47952 0,-3.02629 2.45323,-5.47953 5.47953,-5.47953 3.02627,0 5.47952,2.45324 5.47952,5.47953 z"
       style="fill:#00ade7;fill-opacity:1;fill-rule:nonzero;stroke:none"
       transform="matrix(1.1333333,0,0,-1.1333333,14.734467,122.4242)" />
    <path
       id="path17"
       d="m 34.39337,55.84323 c 0,3.02629 -2.45323,5.47952 -5.47952,5.47952 -3.02629,0 -5.47952,-2.45323 -5.47952,-5.47952 0,-3.02629 2.45323,-5.47952 5.47952,-5.47952 3.02629,0 5.47952,2.45323 5.47952,5.47952 z"
       style="fill:#00ade7;fill-opacity:1;fill-rule:nonzero;stroke:none"
       transform="matrix(1.1333333,0,0,-1.1333333,14.734467,122.4242)" />
    <path
       id="path18"
       d="m 46.58229,59.52846 c 0,3.02629 -2.45323,5.47952 -5.47952,5.47952 -3.02629,0 -5.47952,-2.45323 -5.47952,-5.47952 0,-3.02629 2.45323,-5.47953 5.47952,-5.47953 3.02629,0 5.47952,2.45324 5.47952,5.47953 z"
       style="fill:#00ade7;fill-opacity:1;fill-rule:nonzero;stroke:none"
       transform="matrix(1.1333333,0,0,-1.1333333,14.734467,122.4242)" />
    <path
       id="path19"
       d="m 38.36191,67.74884 c 0,3.02629 -2.45323,5.47952 -5.47952,5.47952 -3.02629,0 -5.47953,-2.45323 -5.47953,-5.47952 0,-3.02629 2.45324,-5.47952 5.47953,-5.47952 3.02629,0 5.47952,2.45323 5.47952,5.47952 z"
       style="fill:#00ade7;fill-opacity:1;fill-rule:nonzero;stroke:none"
       transform="matrix(1.1333333,0,0,-1.1333333,14.734467,122.4242)" />
    <path
       id="path20"
       d="m 41.19633,82.20555 c 0,3.02629 -2.45323,5.47952 -5.47952,5.47952 -3.02629,0 -5.47952,-2.45323 -5.47952,-5.47952 0,-3.02627 2.45323,-5.47952 5.47952,-5.47952 3.02629,0 5.47952,2.45325 5.47952,5.47952 z"
       style="fill:#00ade7;fill-opacity:1;fill-rule:nonzero;stroke:none"
       transform="matrix(1.1333333,0,0,-1.1333333,14.734467,122.4242)" />
    <path
       id="path21"
       d="m 49.70045,93.54454 c 0,3.02629 -2.45323,5.47952 -5.47952,5.47952 -3.02629,0 -5.47952,-2.45323 -5.47952,-5.47952 0,-3.02628 2.45323,-5.47952 5.47952,-5.47952 3.02629,0 5.47952,2.45324 5.47952,5.47952 z"
       style="fill:#00ade7;fill-opacity:1;fill-rule:nonzero;stroke:none"
       transform="matrix(1.1333333,0,0,-1.1333333,14.734467,122.4242)" />
    <path
       id="path22"
       d="m 59.05496,67.1818 c 0,3.02628 -2.45323,5.47952 -5.47952,5.47952 -3.02629,0 -5.47952,-2.45324 -5.47952,-5.47952 0,-3.0263 2.45323,-5.47953 5.47952,-5.47953 3.02629,0 5.47952,2.45323 5.47952,5.47953 z"
       style="fill:#00ade7;fill-opacity:1;fill-rule:nonzero;stroke:none"
       transform="matrix(1.1333333,0,0,-1.1333333,14.734467,122.4242)" />
    <path
       id="path23"
       d="m 51.96826,76.53629 c 0,3.02629 -2.45323,5.47952 -5.47952,5.47952 -3.02629,0 -5.47952,-2.45323 -5.47952,-5.47952 0,-3.02629 2.45323,-5.47953 5.47952,-5.47953 3.02629,0 5.47952,2.45324 5.47952,5.47953 z"
       style="fill:#00ade7;fill-opacity:1;fill-rule:nonzero;stroke:none"
       transform="matrix(1.1333333,0,0,-1.1333333,14.734467,122.4242)" />
    <path
       id="path24"
       d="m 64.72424,83.90674 c 0,3.02629 -2.45323,5.47952 -5.47952,5.47952 -3.02629,0 -5.47952,-2.45323 -5.47952,-5.47952 0,-3.02629 2.45323,-5.47952 5.47952,-5.47952 3.02629,0 5.47952,2.45323 5.47952,5.47952 z"
       style="fill:#00ade7;fill-opacity:1;fill-rule:nonzero;stroke:none"
       transform="matrix(1.1333333,0,0,-1.1333333,14.734467,122.4242)" />
    <path
       id="path25"
       d="m 62.17314,95.5286 c 0,3.02629 -2.45324,5.47952 -5.47952,5.47952 -3.02629,0 -5.47952,-2.45323 -5.47952,-5.47952 0,-3.02628 2.45323,-5.47953 5.47952,-5.47953 3.02628,0 5.47952,2.45325 5.47952,5.47953 z"
       style="fill:#00ade7;fill-opacity:1;fill-rule:nonzero;stroke:none"
       transform="matrix(1.1333333,0,0,-1.1333333,14.734467,122.4242)" />
    <path
       id="path26"
       d="m 78.33101,66.04811 c 0,3.02628 -2.45323,5.47952 -5.47952,5.47952 -3.02629,0 -5.47953,-2.45324 -5.47953,-5.47952 0,-3.02629 2.45324,-5.47952 5.47953,-5.47952 3.02629,0 5.47952,2.45323 5.47952,5.47952 z"
       style="fill:#00ade7;fill-opacity:1;fill-rule:nonzero;stroke:none"
       transform="matrix(1.1333333,0,0,-1.1333333,14.734467,122.4242)" />
    <path
       id="path27"
       d="m 92.78773,62.36288 c 0,3.0263 -2.45323,5.47952 -5.47952,5.47952 -3.02629,0 -5.47952,-2.45322 -5.47952,-5.47952 0,-3.02628 2.45323,-5.47952 5.47952,-5.47952 3.02629,0 5.47952,2.45324 5.47952,5.47952 z"
       style="fill:#00ade7;fill-opacity:1;fill-rule:nonzero;stroke:none"
       transform="matrix(1.1333333,0,0,-1.1333333,14.734467,122.4242)" />
    <path
       id="path28"
       d="m 102.42554,68.59921 c 0,3.02629 -2.45324,5.47953 -5.47953,5.47953 -3.02629,0 -5.47952,-2.45324 -5.47952,-5.47953 0,-3.02629 2.45323,-5.47952 5.47952,-5.47952 3.02629,0 5.47953,2.45323 5.47953,5.47952 z"
       style="fill:#00ade7;fill-opacity:1;fill-rule:nonzero;stroke:none"
       transform="matrix(1.1333333,0,0,-1.1333333,14.734467,122.4242)" />
    <path
       id="path29"
       d="m 97.60663,86.74117 c 0,3.02627 -2.45323,5.47952 -5.47953,5.47952 -3.02627,0 -5.47952,-2.45325 -5.47952,-5.47952 0,-3.0263 2.45325,-5.47953 5.47952,-5.47953 3.0263,0 5.47953,2.45323 5.47953,5.47953 z"
       style="fill:#00ade7;fill-opacity:1;fill-rule:nonzero;stroke:none"
       transform="matrix(1.1333333,0,0,-1.1333333,14.734467,122.4242)" />
    <path
       id="path30"
       d="m 89.38626,77.95372 c 0,3.02629 -2.45323,5.47952 -5.47952,5.47952 -3.02629,0 -5.47952,-2.45323 -5.47952,-5.47952 0,-3.02629 2.45323,-5.47952 5.47952,-5.47952 3.02629,0 5.47952,2.45323 5.47952,5.47952 z"
       style="fill:#00ade7;fill-opacity:1;fill-rule:nonzero;stroke:none"
       transform="matrix(1.1333333,0,0,-1.1333333,14.734467,122.4242)" />
    <path
       id="path31"
       d="m 75.77946,77.38666 c 0,3.02627 -2.45323,5.47952 -5.47952,5.47952 -3.02629,0 -5.47952,-2.45325 -5.47952,-5.47952 0,-3.02629 2.45323,-5.47952 5.47952,-5.47952 3.02629,0 5.47952,2.45323 5.47952,5.47952 z"
       style="fill:#00ade7;fill-opacity:1;fill-rule:nonzero;stroke:none"
       transform="matrix(1.1333333,0,0,-1.1333333,14.734467,122.4242)" />
    <path
       id="path32"
       d="m 82.29955,88.72565 c 0,3.02627 -2.45324,5.47952 -5.47953,5.47952 -3.02627,0 -5.47952,-2.45325 -5.47952,-5.47952 0,-3.02629 2.45325,-5.47953 5.47952,-5.47953 3.02629,0 5.47953,2.45324 5.47953,5.47953 z"
       style="fill:#00ade7;fill-opacity:1;fill-rule:nonzero;stroke:none"
       transform="matrix(1.1333333,0,0,-1.1333333,14.734467,122.4242)" />
    <path
       id="path33"
       d="m 74.6458,97.51308 c 0,3.02629 -2.45323,5.47952 -5.47952,5.47952 -3.0263,0 -5.47953,-2.45323 -5.47953,-5.47952 0,-3.02628 2.45323,-5.47953 5.47953,-5.47953 3.02629,0 5.47952,2.45325 5.47952,5.47953 z"
       style="fill:#00ade7;fill-opacity:1;fill-rule:nonzero;stroke:none"
       transform="matrix(1.1333333,0,0,-1.1333333,14.734467,122.4242)" />
    <path
       id="path34"
       d="m 92.50443,98.64676 c 0,3.02629 -2.45323,5.47952 -5.47953,5.47952 -3.02629,0 -5.47952,-2.45323 -5.47952,-5.47952 0,-3.02629 2.45323,-5.47952 5.47952,-5.47952 3.0263,0 5.47953,2.45323 5.47953,5.47952 z"
       style="fill:#00ade7;fill-opacity:1;fill-rule:nonzero;stroke:none"
       transform="matrix(1.1333333,0,0,-1.1333333,14.734467,122.4242)" />
    <path
       id="path35"
       d="m 57.35422,10.20485 c 0,3.02629 -2.45323,5.47952 -5.47952,5.47952 -3.0263,0 -5.47953,-2.45323 -5.47953,-5.47952 0,-3.02629 2.45323,-5.47952 5.47953,-5.47952 3.02629,0 5.47952,2.45323 5.47952,5.47952 z"
       style="fill:#88c946;fill-opacity:1;fill-rule:nonzero;stroke:none"
       transform="matrix(1.1333333,0,0,-1.1333333,14.734467,122.4242)" />
    <path
       id="path36"
       d="m 70.39351,9.92155 c 0,3.02628 -2.45323,5.47953 -5.47952,5.47953 -3.02629,0 -5.47953,-2.45325 -5.47953,-5.47953 0,-3.02629 2.45324,-5.47952 5.47953,-5.47952 3.02629,0 5.47952,2.45323 5.47952,5.47952 z"
       style="fill:#88c946;fill-opacity:1;fill-rule:nonzero;stroke:none"
       transform="matrix(1.1333333,0,0,-1.1333333,14.734467,122.4242)" />
    <path
       id="path37"
       d="m 82.29955,9.92155 c 0,3.02628 -2.45324,5.47953 -5.47953,5.47953 -3.02627,0 -5.47952,-2.45325 -5.47952,-5.47953 0,-3.02629 2.45325,-5.47952 5.47952,-5.47952 3.02629,0 5.47953,2.45323 5.47953,5.47952 z"
       style="fill:#88c946;fill-opacity:1;fill-rule:nonzero;stroke:none"
       transform="matrix(1.1333333,0,0,-1.1333333,14.734467,122.4242)" />
    <path
       id="path38"
       d="m 101.29187,9.92155 c 0,3.02628 -2.45323,5.47953 -5.47952,5.47953 -3.02629,0 -5.47953,-2.45325 -5.47953,-5.47953 0,-3.02629 2.45324,-5.47952 5.47953,-5.47952 3.02629,0 5.47952,2.45323 5.47952,5.47952 z"
       style="fill:#88c946;fill-opacity:1;fill-rule:nonzero;stroke:none"
       transform="matrix(1.1333333,0,0,-1.1333333,14.734467,122.4242)" />
    <path
       id="path39"
       d="m 101.85849,22.67752 c 0,3.02628 -2.45323,5.47952 -5.47952,5.47952 -3.02629,0 -5.47953,-2.45324 -5.47953,-5.47952 0,-3.02629 2.45324,-5.47952 5.47953,-5.47952 3.02629,0 5.47952,2.45323 5.47952,5.47952 z"
       style="fill:#88c946;fill-opacity:1;fill-rule:nonzero;stroke:none"
       transform="matrix(1.1333333,0,0,-1.1333333,14.734467,122.4242)" />
    <path
       id="path40"
       d="m 101.57518,38.26836 c 0,3.02629 -2.45325,5.47952 -5.47952,5.47952 -3.02629,0 -5.47953,-2.45323 -5.47953,-5.47952 0,-3.02629 2.45324,-5.47953 5.47953,-5.47953 3.02627,0 5.47952,2.45324 5.47952,5.47953 z"
       style="fill:#88c946;fill-opacity:1;fill-rule:nonzero;stroke:none"
       transform="matrix(1.1333333,0,0,-1.1333333,14.734467,122.4242)" />
    <path
       id="path41"
       d="m 102.14224,53.85875 c 0,3.02629 -2.45324,5.47952 -5.47952,5.47952 -3.02629,0 -5.47952,-2.45323 -5.47952,-5.47952 0,-3.02629 2.45323,-5.47952 5.47952,-5.47952 3.02628,0 5.47952,2.45323 5.47952,5.47952 z"
       style="fill:#88c946;fill-opacity:1;fill-rule:nonzero;stroke:none"
       transform="matrix(1.1333333,0,0,-1.1333333,14.734467,122.4242)" />
    <path
       id="path42"
       d="m 92.50443,45.92168 c 0,3.02629 -2.45323,5.47952 -5.47953,5.47952 -3.02629,0 -5.47952,-2.45323 -5.47952,-5.47952 0,-3.02629 2.45323,-5.47953 5.47952,-5.47953 3.0263,0 5.47953,2.45324 5.47953,5.47953 z"
       style="fill:#88c946;fill-opacity:1;fill-rule:nonzero;stroke:none"
       transform="matrix(1.1333333,0,0,-1.1333333,14.734467,122.4242)" />
    <path
       id="path43"
       d="m 78.89764,51.59138 c 0,3.0263 -2.45324,5.47952 -5.47952,5.47952 -3.02629,0 -5.47952,-2.45322 -5.47952,-5.47952 0,-3.02628 2.45323,-5.47952 5.47952,-5.47952 3.02628,0 5.47952,2.45324 5.47952,5.47952 z"
       style="fill:#88c946;fill-opacity:1;fill-rule:nonzero;stroke:none"
       transform="matrix(1.1333333,0,0,-1.1333333,14.734467,122.4242)" />
    <path
       id="path44"
       d="m 67.55908,56.12654 c 0,3.02629 -2.45323,5.47952 -5.47952,5.47952 -3.02628,0 -5.47952,-2.45323 -5.47952,-5.47952 0,-3.02627 2.45324,-5.47952 5.47952,-5.47952 3.02629,0 5.47952,2.45325 5.47952,5.47952 z"
       style="fill:#88c946;fill-opacity:1;fill-rule:nonzero;stroke:none"
       transform="matrix(1.1333333,0,0,-1.1333333,14.734467,122.4242)" />
    <path
       id="path45"
       d="m 56.22011,47.33911 c 0,3.02628 -2.45325,5.47952 -5.47952,5.47952 -3.02629,0 -5.47953,-2.45324 -5.47953,-5.47952 0,-3.02629 2.45324,-5.47952 5.47953,-5.47952 3.02627,0 5.47952,2.45323 5.47952,5.47952 z"
       style="fill:#88c946;fill-opacity:1;fill-rule:nonzero;stroke:none"
       transform="matrix(1.1333333,0,0,-1.1333333,14.734467,122.4242)" />
    <path
       id="path46"
       d="m 48.56679,35.43349 c 0,3.02629 -2.45323,5.47952 -5.47952,5.47952 -3.0263,0 -5.47953,-2.45323 -5.47953,-5.47952 0,-3.02628 2.45323,-5.47953 5.47953,-5.47953 3.02629,0 5.47952,2.45325 5.47952,5.47953 z"
       style="fill:#88c946;fill-opacity:1;fill-rule:nonzero;stroke:none"
       transform="matrix(1.1333333,0,0,-1.1333333,14.734467,122.4242)" />
    <path
       id="path47"
       d="m 52.53531,22.67752 c 0,3.02628 -2.45323,5.47952 -5.47952,5.47952 -3.02629,0 -5.47953,-2.45324 -5.47953,-5.47952 0,-3.02629 2.45324,-5.47952 5.47953,-5.47952 3.02629,0 5.47952,2.45323 5.47952,5.47952 z"
       style="fill:#88c946;fill-opacity:1;fill-rule:nonzero;stroke:none"
       transform="matrix(1.1333333,0,0,-1.1333333,14.734467,122.4242)" />
    <path
       id="path48"
       d="m 65.85835,20.40973 c 0,3.02629 -2.45323,5.47952 -5.47952,5.47952 -3.02629,0 -5.47953,-2.45323 -5.47953,-5.47952 0,-3.02629 2.45324,-5.47953 5.47953,-5.47953 3.02629,0 5.47952,2.45324 5.47952,5.47953 z"
       style="fill:#88c946;fill-opacity:1;fill-rule:nonzero;stroke:none"
       transform="matrix(1.1333333,0,0,-1.1333333,14.734467,122.4242)" />
    <path
       id="path49"
       d="m 80.03175,20.97678 c 0,3.02629 -2.45323,5.47952 -5.47952,5.47952 -3.02629,0 -5.47952,-2.45323 -5.47952,-5.47952 0,-3.02629 2.45323,-5.47953 5.47952,-5.47953 3.02629,0 5.47952,2.45324 5.47952,5.47953 z"
       style="fill:#88c946;fill-opacity:1;fill-rule:nonzero;stroke:none"
       transform="matrix(1.1333333,0,0,-1.1333333,14.734467,122.4242)" />
    <path
       id="path50"
       d="m 91.65361,16.72449 c 0,3.02629 -2.45323,5.47952 -5.47952,5.47952 -3.02628,0 -5.47953,-2.45323 -5.47953,-5.47952 0,-3.02628 2.45325,-5.47953 5.47953,-5.47953 3.02629,0 5.47952,2.45325 5.47952,5.47953 z"
       style="fill:#88c946;fill-opacity:1;fill-rule:nonzero;stroke:none"
       transform="matrix(1.1333333,0,0,-1.1333333,14.734467,122.4242)" />
    <path
       id="path51"
       d="m 91.08699,28.06348 c 0,3.02629 -2.45323,5.47952 -5.47952,5.47952 -3.02629,0 -5.47953,-2.45323 -5.47953,-5.47952 0,-3.02628 2.45324,-5.47953 5.47953,-5.47953 3.02629,0 5.47952,2.45325 5.47952,5.47953 z"
       style="fill:#88c946;fill-opacity:1;fill-rule:nonzero;stroke:none"
       transform="matrix(1.1333333,0,0,-1.1333333,14.734467,122.4242)" />
    <path
       id="path52"
       d="m 82.58287,36.28386 c 0,3.02629 -2.45323,5.47952 -5.47952,5.47952 -3.02629,0 -5.47952,-2.45323 -5.47952,-5.47952 0,-3.02629 2.45323,-5.47952 5.47952,-5.47952 3.02629,0 5.47952,2.45323 5.47952,5.47952 z"
       style="fill:#88c946;fill-opacity:1;fill-rule:nonzero;stroke:none"
       transform="matrix(1.1333333,0,0,-1.1333333,14.734467,122.4242)" />
    <path
       id="path53"
       d="m 70.39351,41.95314 c 0,3.02629 -2.45323,5.47952 -5.47952,5.47952 -3.02629,0 -5.47953,-2.45323 -5.47953,-5.47952 0,-3.02629 2.45324,-5.47952 5.47953,-5.47952 3.02629,0 5.47952,2.45323 5.47952,5.47952 z"
       style="fill:#88c946;fill-opacity:1;fill-rule:nonzero;stroke:none"
       transform="matrix(1.1333333,0,0,-1.1333333,14.734467,122.4242)" />
    <path
       id="path54"
       d="m 60.7557,32.59865 c 0,3.02629 -2.45323,5.47952 -5.47952,5.47952 -3.02628,0 -5.47952,-2.45323 -5.47952,-5.47952 0,-3.02629 2.45324,-5.47952 5.47952,-5.47952 3.02629,0 5.47952,2.45323 5.47952,5.47952 z"
       style="fill:#88c946;fill-opacity:1;fill-rule:nonzero;stroke:none"
       transform="matrix(1.1333333,0,0,-1.1333333,14.734467,122.4242)" />
    <path
       id="path55"
       d="m 72.37799,30.33128 c 0,3.02629 -2.45323,5.47952 -5.47952,5.47952 -3.02629,0 -5.47952,-2.45323 -5.47952,-5.47952 0,-3.02628 2.45323,-5.47952 5.47952,-5.47952 3.02629,0 5.47952,2.45324 5.47952,5.47952 z"
       style="fill:#88c946;fill-opacity:1;fill-rule:nonzero;stroke:none"
       transform="matrix(1.1333333,0,0,-1.1333333,14.734467,122.4242)" />
    <path
       id="path56"
       d="M 1.98431,1.41751 H 107.15104 V 107.15076 H 1.98431 Z"
       style="fill:none;stroke:#000000;stroke-width:1.74348;stroke-linecap:butt;stroke-linejoin:round;stroke-miterlimit:10;stroke-dasharray:none;stroke-opacity:1"
       transform="matrix(1.1333333,0,0,-1.1333333,14.734467,122.4242)" />
    <path
       id="path57"
       d="m 20.3556,0.54576 87.66717,94.58006"
       style="fill:none;stroke:#ff0000;stroke-width:1.99255;stroke-linecap:butt;stroke-linejoin:round;stroke-miterlimit:10;stroke-dasharray:none;stroke-opacity:1"
       transform="matrix(1.1333333,0,0,-1.1333333,14.734467,122.4242)" />
    <path
       id="path58"
       d="M 5.7907684,-6.5361379 H 5.0049228 v 5.3492647 L 1.5858051,-6.5361379 H 0.67587868 v 6.5349265 H 1.475511 V -5.295329 l 3.3777574,5.2941176 h 0.9375 z m 6.4728856,0 h -0.785845 v 5.3492647 L 8.0586912,-6.5361379 H 7.1487647 v 6.5349265 H 7.9483971 V -5.295329 l 3.3777569,5.2941176 h 0.9375 z m 8.141085,6.5349265 1.378676,-4.7012868 h -0.840992 l -0.9375,3.6672795 -0.909927,-3.6672795 h -0.923713 l -0.89614,3.6672795 -0.951286,-3.6672795 h -0.827206 l 1.364889,4.7012868 h 0.840993 l 0.89614,-3.6810662 0.951287,3.6810662 z m 2.846967,-4.7012868 h -0.730699 v 4.7012868 h 0.730699 z m 0,-1.8336397 h -0.744485 v 0.9375 h 0.744485 z m 2.926241,1.8336397 h -0.772059 v -1.2821691 h -0.744485 v 1.2821691 h -0.634192 v 0.6204045 h 0.634192 v 3.54319848 c 0,0.46875 0.330882,0.74448529 0.909926,0.74448529 0.179228,0 0.358456,-0.0137868 0.606618,-0.0689338 v -0.62040441 c -0.09651,0.0275735 -0.220589,0.0413603 -0.358456,0.0413603 -0.317096,0 -0.413603,-0.0965073 -0.413603,-0.4273897 V -4.0820937 h 0.772059 z m 0.840992,-1.8336397 v 6.5349265 h 0.744486 v -2.5919118 c 0,-0.9512867 0.51011,-1.5854779 1.282169,-1.5854779 0.234375,0 0.482537,0.082721 0.661764,0.2205882 0.206802,0.1516544 0.303309,0.3722427 0.303309,0.703125 v 3.2536765 h 0.744486 v -3.5431985 c 0,-0.7996324 -0.565258,-1.2821691 -1.475184,-1.2821691 -0.661765,0 -1.075368,0.2068014 -1.516544,0.7720588 v -2.4816177 z m 6.803769,1.7095589 c -1.32353,0 -2.123162,0.9375 -2.123162,2.5091911 0,1.58547797 0.799632,2.52297797 2.123162,2.52297797 1.323529,0 2.123161,-0.9375 2.123161,-2.48161767 0,-1.6268382 -0.772058,-2.5505514 -2.123161,-2.5505514 z m 0,0.6893382 c 0.854779,0 1.351103,0.6893382 1.351103,1.8474265 0,1.1029411 -0.523897,1.80606614 -1.351103,1.80606614 -0.827206,0 -1.337316,-0.68933824 -1.337316,-1.83363974 0,-1.1305147 0.51011,-1.8198529 1.337316,-1.8198529 z m 6.858915,4.1360294 v -4.7012868 h -0.744485 v 2.6608456 c 0,0.9650736 -0.496324,1.59926473 -1.282169,1.59926473 -0.592831,0 -0.965074,-0.35845588 -0.965074,-0.92371323 V -4.7024982 H 36.94541 v 3.6259192 c 0,0.78584554 0.579044,1.28216907 1.502757,1.28216907 0.689339,0 1.130515,-0.24816176 1.571691,-0.85477941 v 0.64797794 z m 2.946921,-4.7012868 H 42.856485 V -5.9846673 H 42.112 v 1.2821691 h -0.634191 v 0.6204045 H 42.112 v 3.54319848 c 0,0.46875 0.330882,0.74448529 0.909926,0.74448529 0.179228,0 0.358456,-0.0137868 0.606618,-0.0689338 v -0.62040441 c -0.09651,0.0275735 -0.220588,0.0413603 -0.358456,0.0413603 -0.317095,0 -0.413603,-0.0965073 -0.413603,-0.4273897 V -4.0820937 h 0.772059 z m 6.94853,2.7435662 0.675551,1.9577206 h 0.923713 l -2.288603,-6.5349265 h -1.075367 l -2.329964,6.5349265 h 0.882353 l 0.689339,-1.9577206 z m -0.234375,-0.703125 h -2.081802 l 1.075368,-2.9779412 z m 6.18681,-0.4549632 c -0.02757,-0.4549633 -0.137867,-0.7582721 -0.317095,-1.0202206 -0.317096,-0.4273897 -0.882353,-0.6893382 -1.530331,-0.6893382 -1.268383,0 -2.095589,0.992647 -2.095589,2.5643382 0,1.50275734 0.81342,2.46783087 2.081802,2.46783087 1.116728,0 1.83364,-0.67555147 1.91636,-1.81985297 h -0.758272 c -0.124081,0.75827209 -0.51011,1.13051474 -1.144301,1.13051474 -0.827206,0 -1.309743,-0.67555144 -1.309743,-1.77849264 0,-1.1856618 0.482537,-1.875 1.295956,-1.875 0.620404,0 1.020221,0.3584559 1.116728,1.0202206 z m 2.536765,-1.585478 H 58.294215 V -5.9846673 H 57.54973 v 1.2821691 h -0.634191 v 0.6204045 h 0.634191 v 3.54319848 c 0,0.46875 0.330882,0.74448529 0.909926,0.74448529 0.179228,0 0.358456,-0.0137868 0.606618,-0.0689338 v -0.62040441 c -0.09651,0.0275735 -0.220588,0.0413603 -0.358456,0.0413603 -0.317096,0 -0.413603,-0.0965073 -0.413603,-0.4273897 V -4.0820937 h 0.772059 z m 1.557904,0 H 59.89348 v 4.7012868 h 0.730698 z m 0,-1.8336397 h -0.744485 v 0.9375 h 0.744485 z m 3.201976,6.5349265 1.806067,-4.7012868 h -0.840993 l -1.323529,3.81893386 -1.254596,-3.81893386 h -0.854779 l 1.654411,4.7012868 z m 6.514247,-0.44117647 c -0.08272,0.0137868 -0.124081,0.0137868 -0.165441,0.0137868 -0.261949,0 -0.399817,-0.12408089 -0.399817,-0.35845589 V -3.5444099 c 0,-0.8409927 -0.606617,-1.2821691 -1.764706,-1.2821691 -0.689338,0 -1.254595,0.1930147 -1.557904,0.5376838 -0.220588,0.2481617 -0.303309,0.5101103 -0.330882,0.9788603 h 0.758272 c 0.05515,-0.5652574 0.399816,-0.8272059 1.102941,-0.8272059 0.675551,0 1.047794,0.2481618 1.047794,0.6893382 v 0.2068015 c 0,0.3033088 -0.193015,0.4411765 -0.785846,0.5101103 -1.047794,0.1378676 -1.213235,0.1792279 -1.502757,0.2895221 -0.55147,0.2205882 -0.827206,0.6479779 -0.827206,1.2545955 0,0.85477945 0.592831,1.39246327 1.544118,1.39246327 0.592831,0 1.061581,-0.20680147 1.599265,-0.68933823 0.05515,0.46875 0.289522,0.68933823 0.772058,0.68933823 0.151655,0 0.261949,-0.0137868 0.510111,-0.0827206 z M 69.030658,-1.4763952 c 0,0.2481617 -0.06893,0.3998162 -0.303309,0.60661763 -0.303309,0.27573529 -0.661764,0.4273897 -1.102941,0.4273897 -0.579044,0 -0.923713,-0.28952206 -0.923713,-0.75827203 0,-0.4963236 0.330882,-0.7444853 1.130515,-0.8547794 0.785845,-0.1102942 0.951286,-0.1516544 1.199448,-0.2619486 z m 3.774127,-3.226103 h -0.772059 v -1.2821691 h -0.744485 v 1.2821691 H 70.65405 v 0.6204045 h 0.634191 v 3.54319848 c 0,0.46875 0.330882,0.74448529 0.909926,0.74448529 0.179228,0 0.358456,-0.0137868 0.606618,-0.0689338 v -0.62040441 c -0.09651,0.0275735 -0.220588,0.0413603 -0.358456,0.0413603 -0.317096,0 -0.413603,-0.0965073 -0.413603,-0.4273897 V -4.0820937 h 0.772059 z m 1.554458,0 h -0.730699 v 4.7012868 h 0.730699 z m 0,-1.8336397 h -0.744486 v 0.9375 h 0.744486 z m 3.095128,1.7095589 c -1.323529,0 -2.123161,0.9375 -2.123161,2.5091911 0,1.58547797 0.799632,2.52297797 2.123161,2.52297797 1.32353,0 2.123162,-0.9375 2.123162,-2.48161767 0,-1.6268382 -0.772059,-2.5505514 -2.123162,-2.5505514 z m 0,0.6893382 c 0.85478,0 1.351103,0.6893382 1.351103,1.8474265 0,1.1029411 -0.523897,1.80606614 -1.351103,1.80606614 -0.827206,0 -1.337316,-0.68933824 -1.337316,-1.83363974 0,-1.1305147 0.51011,-1.8198529 1.337316,-1.8198529 z m 3.164063,-0.5652574 v 4.7012868 h 0.758272 v -2.5919118 c 0,-0.9512867 0.496323,-1.5854779 1.268382,-1.5854779 0.592831,0 0.978861,0.3584559 0.978861,0.9237132 v 3.2536765 h 0.744485 v -3.5431985 c 0,-0.7858456 -0.592831,-1.2821691 -1.488971,-1.2821691 -0.703125,0 -1.158088,0.2619485 -1.557904,0.9237132 v -0.7996324 z m 8.4892,1.7233456 h 3.115809 v -0.7306985 h -3.115809 v -2.0955882 h 3.543199 v -0.7306986 h -4.384191 v 6.5349265 h 0.840992 z m 8.151425,2.9779412 v -4.7012868 h -0.744485 v 2.6608456 c 0,0.9650736 -0.496324,1.59926473 -1.28217,1.59926473 -0.59283,0 -0.965073,-0.35845588 -0.965073,-0.92371323 v -3.3363971 h -0.744485 v 3.6259192 c 0,0.78584554 0.579044,1.28216907 1.502757,1.28216907 0.689338,0 1.130515,-0.24816176 1.571691,-0.85477941 v 0.64797794 z m 1.292509,-4.7012868 v 4.7012868 h 0.758272 v -2.5919118 c 0,-0.9512867 0.496324,-1.5854779 1.26838,-1.5854779 0.59283,0 0.97886,0.3584559 0.97886,0.9237132 v 3.2536765 h 0.74449 v -3.5431985 c 0,-0.7858456 -0.59283,-1.2821691 -1.48897,-1.2821691 -0.70313,0 -1.158091,0.2619485 -1.557907,0.9237132 v -0.7996324 z m 8.582262,1.585478 c -0.0276,-0.4549633 -0.13787,-0.7582721 -0.3171,-1.0202206 -0.31709,-0.4273897 -0.88235,-0.6893382 -1.53033,-0.6893382 -1.26838,0 -2.09559,0.992647 -2.09559,2.5643382 0,1.50275734 0.81342,2.46783087 2.08181,2.46783087 1.11672,0 1.83364,-0.67555147 1.91636,-1.81985297 h -0.75828 c -0.12408,0.75827209 -0.51011,1.13051474 -1.1443,1.13051474 -0.8272,0 -1.30974,-0.67555144 -1.30974,-1.77849264 0,-1.1856618 0.48254,-1.875 1.29596,-1.875 0.6204,0 1.02022,0.3584559 1.11672,1.0202206 z m 2.54021,-1.585478 h -0.77206 v -1.2821691 h -0.74448 v 1.2821691 h -0.63419 v 0.6204045 h 0.63419 v 3.54319848 c 0,0.46875 0.33088,0.74448529 0.90992,0.74448529 0.17923,0 0.35846,-0.0137868 0.60662,-0.0689338 v -0.62040441 c -0.0965,0.0275735 -0.22059,0.0413603 -0.35846,0.0413603 -0.31709,0 -0.4136,-0.0965073 -0.4136,-0.4273897 V -4.0820937 h 0.77206 z m 1.55446,0 h -0.7307 v 4.7012868 h 0.7307 z m 0,-1.8336397 h -0.74449 v 0.9375 h 0.74449 z m 3.09513,1.7095589 c -1.32353,0 -2.12316,0.9375 -2.12316,2.5091911 0,1.58547797 0.79963,2.52297797 2.12316,2.52297797 1.32353,0 2.12316,-0.9375 2.12316,-2.48161767 0,-1.6268382 -0.77206,-2.5505514 -2.12316,-2.5505514 z m 0,0.6893382 c 0.85478,0 1.3511,0.6893382 1.3511,1.8474265 0,1.1029411 -0.5239,1.80606614 -1.3511,1.80606614 -0.82721,0 -1.33732,-0.68933824 -1.33732,-1.83363974 0,-1.1305147 0.51011,-1.8198529 1.33732,-1.8198529 z m 3.16406,-0.5652574 v 4.7012868 h 0.75827 v -2.5919118 c 0,-0.9512867 0.49632,-1.5854779 1.26838,-1.5854779 0.59283,0 0.97886,0.3584559 0.97886,0.9237132 v 3.2536765 h 0.74449 v -3.5431985 c 0,-0.7858456 -0.59283,-1.2821691 -1.48897,-1.2821691 -0.70313,0 -1.15809,0.2619485 -1.55791,0.9237132 v -0.7996324 z m 0,0"
       style="fill:#000000;fill-opacity:1;fill-rule:nonzero;stroke:none"
       aria-label="NNwithoutActivationFunction"
       transform="matrix(1.1333333,0,0,1.1333333,7.5230667,136.24747)" />
    <path
       id="path59"
       d="m 186.89893,21.82715 c 0,3.02629 -2.45323,5.47952 -5.47953,5.47952 -3.02629,0 -5.47952,-2.45323 -5.47952,-5.47952 0,-3.02629 2.45323,-5.47952 5.47952,-5.47952 3.0263,0 5.47953,2.45323 5.47953,5.47952 z"
       style="fill:#00ade7;fill-opacity:1;fill-rule:nonzero;stroke:none"
       transform="matrix(1.1333333,0,0,-1.1333333,14.734467,122.4242)" />
    <path
       id="path60"
       d="m 186.6156,41.3865 c 0,3.0263 -2.45323,5.47953 -5.47952,5.47953 -3.02629,0 -5.47952,-2.45323 -5.47952,-5.47953 0,-3.02627 2.45323,-5.47952 5.47952,-5.47952 3.02629,0 5.47952,2.45325 5.47952,5.47952 z"
       style="fill:#00ade7;fill-opacity:1;fill-rule:nonzero;stroke:none"
       transform="matrix(1.1333333,0,0,-1.1333333,14.734467,122.4242)" />
    <path
       id="path61"
       d="m 186.6156,57.26067 c 0,3.02629 -2.45323,5.47952 -5.47952,5.47952 -3.02629,0 -5.47952,-2.45323 -5.47952,-5.47952 0,-3.02629 2.45323,-5.47953 5.47952,-5.47953 3.02629,0 5.47952,2.45324 5.47952,5.47953 z"
       style="fill:#00ade7;fill-opacity:1;fill-rule:nonzero;stroke:none"
       transform="matrix(1.1333333,0,0,-1.1333333,14.734467,122.4242)" />
    <path
       id="path62"
       d="m 186.04855,71.43407 c 0,3.02629 -2.45323,5.47952 -5.47952,5.47952 -3.02629,0 -5.47952,-2.45323 -5.47952,-5.47952 0,-3.02628 2.45323,-5.47953 5.47952,-5.47953 3.02629,0 5.47952,2.45325 5.47952,5.47953 z"
       style="fill:#00ade7;fill-opacity:1;fill-rule:nonzero;stroke:none"
       transform="matrix(1.1333333,0,0,-1.1333333,14.734467,122.4242)" />
    <path
       id="path63"
       d="m 186.04855,83.62299 c 0,3.02629 -2.45323,5.47952 -5.47952,5.47952 -3.02629,0 -5.47952,-2.45323 -5.47952,-5.47952 0,-3.02629 2.45323,-5.47953 5.47952,-5.47953 3.02629,0 5.47952,2.45324 5.47952,5.47953 z"
       style="fill:#00ade7;fill-opacity:1;fill-rule:nonzero;stroke:none"
       transform="matrix(1.1333333,0,0,-1.1333333,14.734467,122.4242)" />
    <path
       id="path64"
       d="m 188.8834,94.96198 c 0,3.02629 -2.45322,5.47952 -5.47952,5.47952 -3.02628,0 -5.47952,-2.45323 -5.47952,-5.47952 0,-3.0263 2.45324,-5.47953 5.47952,-5.47953 3.0263,0 5.47952,2.45323 5.47952,5.47953 z"
       style="fill:#00ade7;fill-opacity:1;fill-rule:nonzero;stroke:none"
       transform="matrix(1.1333333,0,0,-1.1333333,14.734467,122.4242)" />
    <path
       id="path65"
       d="m 199.37158,11.9056 c 0,3.02628 -2.45323,5.47952 -5.47952,5.47952 -3.02629,0 -5.47952,-2.45324 -5.47952,-5.47952 0,-3.0263 2.45323,-5.47953 5.47952,-5.47953 3.02629,0 5.47952,2.45323 5.47952,5.47953 z"
       style="fill:#00ade7;fill-opacity:1;fill-rule:nonzero;stroke:none"
       transform="matrix(1.1333333,0,0,-1.1333333,14.734467,122.4242)" />
    <path
       id="path66"
       d="m 194.836,30.8979 c 0,3.0263 -2.45323,5.47953 -5.47952,5.47953 -3.0263,0 -5.47953,-2.45323 -5.47953,-5.47953 0,-3.02629 2.45323,-5.47952 5.47953,-5.47952 3.02629,0 5.47952,2.45323 5.47952,5.47952 z"
       style="fill:#00ade7;fill-opacity:1;fill-rule:nonzero;stroke:none"
       transform="matrix(1.1333333,0,0,-1.1333333,14.734467,122.4242)" />
    <path
       id="path67"
       d="m 195.40305,48.75653 c 0,3.02629 -2.45324,5.47952 -5.47953,5.47952 -3.02629,0 -5.47952,-2.45323 -5.47952,-5.47952 0,-3.02627 2.45323,-5.47952 5.47952,-5.47952 3.02629,0 5.47953,2.45325 5.47953,5.47952 z"
       style="fill:#00ade7;fill-opacity:1;fill-rule:nonzero;stroke:none"
       transform="matrix(1.1333333,0,0,-1.1333333,14.734467,122.4242)" />
    <path
       id="path68"
       d="m 196.53716,66.89847 c 0,3.02629 -2.45324,5.47952 -5.47953,5.47952 -3.02629,0 -5.47952,-2.45323 -5.47952,-5.47952 0,-3.02629 2.45323,-5.47952 5.47952,-5.47952 3.02629,0 5.47953,2.45323 5.47953,5.47952 z"
       style="fill:#00ade7;fill-opacity:1;fill-rule:nonzero;stroke:none"
       transform="matrix(1.1333333,0,0,-1.1333333,14.734467,122.4242)" />
    <path
       id="path69"
       d="m 197.38753,78.80408 c 0,3.02629 -2.45323,5.47952 -5.47953,5.47952 -3.02629,0 -5.47952,-2.45323 -5.47952,-5.47952 0,-3.02628 2.45323,-5.47953 5.47952,-5.47953 3.0263,0 5.47953,2.45325 5.47953,5.47953 z"
       style="fill:#00ade7;fill-opacity:1;fill-rule:nonzero;stroke:none"
       transform="matrix(1.1333333,0,0,-1.1333333,14.734467,122.4242)" />
    <path
       id="path70"
       d="m 199.65533,90.14264 c 0,3.02627 -2.45324,5.47952 -5.47952,5.47952 -3.02629,0 -5.47952,-2.45325 -5.47952,-5.47952 0,-3.02629 2.45323,-5.47952 5.47952,-5.47952 3.02628,0 5.47952,2.45323 5.47952,5.47952 z"
       style="fill:#00ade7;fill-opacity:1;fill-rule:nonzero;stroke:none"
       transform="matrix(1.1333333,0,0,-1.1333333,14.734467,122.4242)" />
    <path
       id="path71"
       d="m 208.44276,97.51308 c 0,3.02629 -2.45323,5.47952 -5.47952,5.47952 -3.02627,0 -5.47952,-2.45323 -5.47952,-5.47952 0,-3.02628 2.45325,-5.47953 5.47952,-5.47953 3.02629,0 5.47952,2.45325 5.47952,5.47953 z"
       style="fill:#00ade7;fill-opacity:1;fill-rule:nonzero;stroke:none"
       transform="matrix(1.1333333,0,0,-1.1333333,14.734467,122.4242)" />
    <path
       id="path72"
       d="m 214.39537,10.20485 c 0,3.02629 -2.45325,5.47952 -5.47952,5.47952 -3.02629,0 -5.47952,-2.45323 -5.47952,-5.47952 0,-3.02629 2.45323,-5.47952 5.47952,-5.47952 3.02627,0 5.47952,2.45323 5.47952,5.47952 z"
       style="fill:#00ade7;fill-opacity:1;fill-rule:nonzero;stroke:none"
       transform="matrix(1.1333333,0,0,-1.1333333,14.734467,122.4242)" />
    <path
       id="path73"
       d="m 207.8757,23.24458 c 0,3.02628 -2.45323,5.47952 -5.47952,5.47952 -3.02629,0 -5.47952,-2.45324 -5.47952,-5.47952 0,-3.02629 2.45323,-5.47952 5.47952,-5.47952 3.02629,0 5.47952,2.45323 5.47952,5.47952 z"
       style="fill:#00ade7;fill-opacity:1;fill-rule:nonzero;stroke:none"
       transform="matrix(1.1333333,0,0,-1.1333333,14.734467,122.4242)" />
    <path
       id="path74"
       d="m 206.17497,41.66983 c 0,3.02629 -2.45323,5.47952 -5.47952,5.47952 -3.02629,0 -5.47952,-2.45323 -5.47952,-5.47952 0,-3.02629 2.45323,-5.47953 5.47952,-5.47953 3.02629,0 5.47952,2.45324 5.47952,5.47953 z"
       style="fill:#00ade7;fill-opacity:1;fill-rule:nonzero;stroke:none"
       transform="matrix(1.1333333,0,0,-1.1333333,14.734467,122.4242)" />
    <path
       id="path75"
       d="m 204.47423,55.84323 c 0,3.02629 -2.45323,5.47952 -5.47953,5.47952 -3.02627,0 -5.47952,-2.45323 -5.47952,-5.47952 0,-3.02629 2.45325,-5.47952 5.47952,-5.47952 3.0263,0 5.47953,2.45323 5.47953,5.47952 z"
       style="fill:#00ade7;fill-opacity:1;fill-rule:nonzero;stroke:none"
       transform="matrix(1.1333333,0,0,-1.1333333,14.734467,122.4242)" />
    <path
       id="path76"
       d="m 216.66315,59.52846 c 0,3.02629 -2.45323,5.47952 -5.47953,5.47952 -3.02629,0 -5.47952,-2.45323 -5.47952,-5.47952 0,-3.02629 2.45323,-5.47953 5.47952,-5.47953 3.0263,0 5.47953,2.45324 5.47953,5.47953 z"
       style="fill:#00ade7;fill-opacity:1;fill-rule:nonzero;stroke:none"
       transform="matrix(1.1333333,0,0,-1.1333333,14.734467,122.4242)" />
    <path
       id="path77"
       d="m 208.44276,67.74884 c 0,3.02629 -2.45323,5.47952 -5.47952,5.47952 -3.02627,0 -5.47952,-2.45323 -5.47952,-5.47952 0,-3.02629 2.45325,-5.47952 5.47952,-5.47952 3.02629,0 5.47952,2.45323 5.47952,5.47952 z"
       style="fill:#00ade7;fill-opacity:1;fill-rule:nonzero;stroke:none"
       transform="matrix(1.1333333,0,0,-1.1333333,14.734467,122.4242)" />
    <path
       id="path78"
       d="m 211.27719,82.20555 c 0,3.02629 -2.45323,5.47952 -5.47952,5.47952 -3.02629,0 -5.47952,-2.45323 -5.47952,-5.47952 0,-3.02627 2.45323,-5.47952 5.47952,-5.47952 3.02629,0 5.47952,2.45325 5.47952,5.47952 z"
       style="fill:#00ade7;fill-opacity:1;fill-rule:nonzero;stroke:none"
       transform="matrix(1.1333333,0,0,-1.1333333,14.734467,122.4242)" />
    <path
       id="path79"
       d="m 219.78131,93.54454 c 0,3.02629 -2.45323,5.47952 -5.47952,5.47952 -3.02628,0 -5.47952,-2.45323 -5.47952,-5.47952 0,-3.02628 2.45324,-5.47952 5.47952,-5.47952 3.02629,0 5.47952,2.45324 5.47952,5.47952 z"
       style="fill:#00ade7;fill-opacity:1;fill-rule:nonzero;stroke:none"
       transform="matrix(1.1333333,0,0,-1.1333333,14.734467,122.4242)" />
    <path
       id="path80"
       d="m 229.13582,67.1818 c 0,3.02628 -2.45323,5.47952 -5.47952,5.47952 -3.02628,0 -5.47953,-2.45324 -5.47953,-5.47952 0,-3.0263 2.45325,-5.47953 5.47953,-5.47953 3.02629,0 5.47952,2.45323 5.47952,5.47953 z"
       style="fill:#00ade7;fill-opacity:1;fill-rule:nonzero;stroke:none"
       transform="matrix(1.1333333,0,0,-1.1333333,14.734467,122.4242)" />
    <path
       id="path81"
       d="m 222.04912,76.53629 c 0,3.02629 -2.45323,5.47952 -5.47952,5.47952 -3.0263,0 -5.47953,-2.45323 -5.47953,-5.47952 0,-3.02629 2.45323,-5.47953 5.47953,-5.47953 3.02629,0 5.47952,2.45324 5.47952,5.47953 z"
       style="fill:#00ade7;fill-opacity:1;fill-rule:nonzero;stroke:none"
       transform="matrix(1.1333333,0,0,-1.1333333,14.734467,122.4242)" />
    <path
       id="path82"
       d="m 234.8051,83.90674 c 0,3.02629 -2.45323,5.47952 -5.47952,5.47952 -3.02629,0 -5.47953,-2.45323 -5.47953,-5.47952 0,-3.02629 2.45324,-5.47952 5.47953,-5.47952 3.02629,0 5.47952,2.45323 5.47952,5.47952 z"
       style="fill:#00ade7;fill-opacity:1;fill-rule:nonzero;stroke:none"
       transform="matrix(1.1333333,0,0,-1.1333333,14.734467,122.4242)" />
    <path
       id="path83"
       d="m 232.254,95.5286 c 0,3.02629 -2.45323,5.47952 -5.47952,5.47952 -3.0263,0 -5.47953,-2.45323 -5.47953,-5.47952 0,-3.02628 2.45323,-5.47953 5.47953,-5.47953 3.02629,0 5.47952,2.45325 5.47952,5.47953 z"
       style="fill:#00ade7;fill-opacity:1;fill-rule:nonzero;stroke:none"
       transform="matrix(1.1333333,0,0,-1.1333333,14.734467,122.4242)" />
    <path
       id="path84"
       d="m 248.41187,66.04811 c 0,3.02628 -2.45324,5.47952 -5.47953,5.47952 -3.02627,0 -5.47952,-2.45324 -5.47952,-5.47952 0,-3.02629 2.45325,-5.47952 5.47952,-5.47952 3.02629,0 5.47953,2.45323 5.47953,5.47952 z"
       style="fill:#00ade7;fill-opacity:1;fill-rule:nonzero;stroke:none"
       transform="matrix(1.1333333,0,0,-1.1333333,14.734467,122.4242)" />
    <path
       id="path85"
       d="m 262.86859,62.36288 c 0,3.0263 -2.45323,5.47952 -5.47952,5.47952 -3.02629,0 -5.47952,-2.45322 -5.47952,-5.47952 0,-3.02628 2.45323,-5.47952 5.47952,-5.47952 3.02629,0 5.47952,2.45324 5.47952,5.47952 z"
       style="fill:#00ade7;fill-opacity:1;fill-rule:nonzero;stroke:none"
       transform="matrix(1.1333333,0,0,-1.1333333,14.734467,122.4242)" />
    <path
       id="path86"
       d="m 272.5064,68.59921 c 0,3.02629 -2.45324,5.47953 -5.47953,5.47953 -3.02627,0 -5.47952,-2.45324 -5.47952,-5.47953 0,-3.02629 2.45325,-5.47952 5.47952,-5.47952 3.02629,0 5.47953,2.45323 5.47953,5.47952 z"
       style="fill:#00ade7;fill-opacity:1;fill-rule:nonzero;stroke:none"
       transform="matrix(1.1333333,0,0,-1.1333333,14.734467,122.4242)" />
    <path
       id="path87"
       d="m 267.6875,86.74117 c 0,3.02627 -2.45325,5.47952 -5.47952,5.47952 -3.02629,0 -5.47953,-2.45325 -5.47953,-5.47952 0,-3.0263 2.45324,-5.47953 5.47953,-5.47953 3.02627,0 5.47952,2.45323 5.47952,5.47953 z"
       style="fill:#00ade7;fill-opacity:1;fill-rule:nonzero;stroke:none"
       transform="matrix(1.1333333,0,0,-1.1333333,14.734467,122.4242)" />
    <path
       id="path88"
       d="m 259.46712,77.95372 c 0,3.02629 -2.45323,5.47952 -5.47952,5.47952 -3.0263,0 -5.47953,-2.45323 -5.47953,-5.47952 0,-3.02629 2.45323,-5.47952 5.47953,-5.47952 3.02629,0 5.47952,2.45323 5.47952,5.47952 z"
       style="fill:#00ade7;fill-opacity:1;fill-rule:nonzero;stroke:none"
       transform="matrix(1.1333333,0,0,-1.1333333,14.734467,122.4242)" />
    <path
       id="path89"
       d="m 245.86032,77.38666 c 0,3.02627 -2.45323,5.47952 -5.47952,5.47952 -3.02628,0 -5.47952,-2.45325 -5.47952,-5.47952 0,-3.02629 2.45324,-5.47952 5.47952,-5.47952 3.02629,0 5.47952,2.45323 5.47952,5.47952 z"
       style="fill:#00ade7;fill-opacity:1;fill-rule:nonzero;stroke:none"
       transform="matrix(1.1333333,0,0,-1.1333333,14.734467,122.4242)" />
    <path
       id="path90"
       d="m 252.38042,88.72565 c 0,3.02627 -2.45325,5.47952 -5.47952,5.47952 -3.0263,0 -5.47953,-2.45325 -5.47953,-5.47952 0,-3.02629 2.45323,-5.47953 5.47953,-5.47953 3.02627,0 5.47952,2.45324 5.47952,5.47953 z"
       style="fill:#00ade7;fill-opacity:1;fill-rule:nonzero;stroke:none"
       transform="matrix(1.1333333,0,0,-1.1333333,14.734467,122.4242)" />
    <path
       id="path91"
       d="m 244.72665,97.51308 c 0,3.02629 -2.45323,5.47952 -5.47952,5.47952 -3.02629,0 -5.47952,-2.45323 -5.47952,-5.47952 0,-3.02628 2.45323,-5.47953 5.47952,-5.47953 3.02629,0 5.47952,2.45325 5.47952,5.47953 z"
       style="fill:#00ade7;fill-opacity:1;fill-rule:nonzero;stroke:none"
       transform="matrix(1.1333333,0,0,-1.1333333,14.734467,122.4242)" />
    <path
       id="path92"
       d="m 262.58528,98.64676 c 0,3.02629 -2.45323,5.47952 -5.47952,5.47952 -3.02629,0 -5.47952,-2.45323 -5.47952,-5.47952 0,-3.02629 2.45323,-5.47952 5.47952,-5.47952 3.02629,0 5.47952,2.45323 5.47952,5.47952 z"
       style="fill:#00ade7;fill-opacity:1;fill-rule:nonzero;stroke:none"
       transform="matrix(1.1333333,0,0,-1.1333333,14.734467,122.4242)" />
    <path
       id="path93"
       d="m 227.43507,10.20485 c 0,3.02629 -2.45323,5.47952 -5.47952,5.47952 -3.02629,0 -5.47952,-2.45323 -5.47952,-5.47952 0,-3.02629 2.45323,-5.47952 5.47952,-5.47952 3.02629,0 5.47952,2.45323 5.47952,5.47952 z"
       style="fill:#88c946;fill-opacity:1;fill-rule:nonzero;stroke:none"
       transform="matrix(1.1333333,0,0,-1.1333333,14.734467,122.4242)" />
    <path
       id="path94"
       d="m 240.47437,9.92155 c 0,3.02628 -2.45324,5.47953 -5.47953,5.47953 -3.02627,0 -5.47952,-2.45325 -5.47952,-5.47953 0,-3.02629 2.45325,-5.47952 5.47952,-5.47952 3.02629,0 5.47953,2.45323 5.47953,5.47952 z"
       style="fill:#88c946;fill-opacity:1;fill-rule:nonzero;stroke:none"
       transform="matrix(1.1333333,0,0,-1.1333333,14.734467,122.4242)" />
    <path
       id="path95"
       d="m 252.38042,9.92155 c 0,3.02628 -2.45325,5.47953 -5.47952,5.47953 -3.0263,0 -5.47953,-2.45325 -5.47953,-5.47953 0,-3.02629 2.45323,-5.47952 5.47953,-5.47952 3.02627,0 5.47952,2.45323 5.47952,5.47952 z"
       style="fill:#88c946;fill-opacity:1;fill-rule:nonzero;stroke:none"
       transform="matrix(1.1333333,0,0,-1.1333333,14.734467,122.4242)" />
    <path
       id="path96"
       d="m 271.37273,9.92155 c 0,3.02628 -2.45323,5.47953 -5.47953,5.47953 -3.02629,0 -5.47952,-2.45325 -5.47952,-5.47953 0,-3.02629 2.45323,-5.47952 5.47952,-5.47952 3.0263,0 5.47953,2.45323 5.47953,5.47952 z"
       style="fill:#88c946;fill-opacity:1;fill-rule:nonzero;stroke:none"
       transform="matrix(1.1333333,0,0,-1.1333333,14.734467,122.4242)" />
    <path
       id="path97"
       d="m 271.93935,22.67752 c 0,3.02628 -2.45324,5.47952 -5.47953,5.47952 -3.02627,0 -5.47952,-2.45324 -5.47952,-5.47952 0,-3.02629 2.45325,-5.47952 5.47952,-5.47952 3.02629,0 5.47953,2.45323 5.47953,5.47952 z"
       style="fill:#88c946;fill-opacity:1;fill-rule:nonzero;stroke:none"
       transform="matrix(1.1333333,0,0,-1.1333333,14.734467,122.4242)" />
    <path
       id="path98"
       d="m 271.65604,38.26836 c 0,3.02629 -2.45324,5.47952 -5.47953,5.47952 -3.02629,0 -5.47952,-2.45323 -5.47952,-5.47952 0,-3.02629 2.45323,-5.47953 5.47952,-5.47953 3.02629,0 5.47953,2.45324 5.47953,5.47953 z"
       style="fill:#88c946;fill-opacity:1;fill-rule:nonzero;stroke:none"
       transform="matrix(1.1333333,0,0,-1.1333333,14.734467,122.4242)" />
    <path
       id="path99"
       d="m 272.2231,53.85875 c 0,3.02629 -2.45323,5.47952 -5.47952,5.47952 -3.02629,0 -5.47953,-2.45323 -5.47953,-5.47952 0,-3.02629 2.45324,-5.47952 5.47953,-5.47952 3.02629,0 5.47952,2.45323 5.47952,5.47952 z"
       style="fill:#88c946;fill-opacity:1;fill-rule:nonzero;stroke:none"
       transform="matrix(1.1333333,0,0,-1.1333333,14.734467,122.4242)" />
    <path
       id="path100"
       d="m 262.58528,45.92168 c 0,3.02629 -2.45323,5.47952 -5.47952,5.47952 -3.02629,0 -5.47952,-2.45323 -5.47952,-5.47952 0,-3.02629 2.45323,-5.47953 5.47952,-5.47953 3.02629,0 5.47952,2.45324 5.47952,5.47953 z"
       style="fill:#88c946;fill-opacity:1;fill-rule:nonzero;stroke:none"
       transform="matrix(1.1333333,0,0,-1.1333333,14.734467,122.4242)" />
    <path
       id="path101"
       d="m 248.9785,51.59138 c 0,3.0263 -2.45323,5.47952 -5.47952,5.47952 -3.02629,0 -5.47953,-2.45322 -5.47953,-5.47952 0,-3.02628 2.45324,-5.47952 5.47953,-5.47952 3.02629,0 5.47952,2.45324 5.47952,5.47952 z"
       style="fill:#88c946;fill-opacity:1;fill-rule:nonzero;stroke:none"
       transform="matrix(1.1333333,0,0,-1.1333333,14.734467,122.4242)" />
    <path
       id="path102"
       d="m 237.63995,56.12654 c 0,3.02629 -2.45325,5.47952 -5.47952,5.47952 -3.02629,0 -5.47952,-2.45323 -5.47952,-5.47952 0,-3.02627 2.45323,-5.47952 5.47952,-5.47952 3.02627,0 5.47952,2.45325 5.47952,5.47952 z"
       style="fill:#88c946;fill-opacity:1;fill-rule:nonzero;stroke:none"
       transform="matrix(1.1333333,0,0,-1.1333333,14.734467,122.4242)" />
    <path
       id="path103"
       d="m 226.30096,47.33911 c 0,3.02628 -2.45323,5.47952 -5.47952,5.47952 -3.02629,0 -5.47952,-2.45324 -5.47952,-5.47952 0,-3.02629 2.45323,-5.47952 5.47952,-5.47952 3.02629,0 5.47952,2.45323 5.47952,5.47952 z"
       style="fill:#88c946;fill-opacity:1;fill-rule:nonzero;stroke:none"
       transform="matrix(1.1333333,0,0,-1.1333333,14.734467,122.4242)" />
    <path
       id="path104"
       d="m 218.64764,35.43349 c 0,3.02629 -2.45323,5.47952 -5.47952,5.47952 -3.02629,0 -5.47952,-2.45323 -5.47952,-5.47952 0,-3.02628 2.45323,-5.47953 5.47952,-5.47953 3.02629,0 5.47952,2.45325 5.47952,5.47953 z"
       style="fill:#88c946;fill-opacity:1;fill-rule:nonzero;stroke:none"
       transform="matrix(1.1333333,0,0,-1.1333333,14.734467,122.4242)" />
    <path
       id="path105"
       d="m 222.61617,22.67752 c 0,3.02628 -2.45324,5.47952 -5.47953,5.47952 -3.02629,0 -5.47952,-2.45324 -5.47952,-5.47952 0,-3.02629 2.45323,-5.47952 5.47952,-5.47952 3.02629,0 5.47953,2.45323 5.47953,5.47952 z"
       style="fill:#88c946;fill-opacity:1;fill-rule:nonzero;stroke:none"
       transform="matrix(1.1333333,0,0,-1.1333333,14.734467,122.4242)" />
    <path
       id="path106"
       d="m 235.93921,20.40973 c 0,3.02629 -2.45323,5.47952 -5.47952,5.47952 -3.02629,0 -5.47953,-2.45323 -5.47953,-5.47952 0,-3.02629 2.45324,-5.47953 5.47953,-5.47953 3.02629,0 5.47952,2.45324 5.47952,5.47953 z"
       style="fill:#88c946;fill-opacity:1;fill-rule:nonzero;stroke:none"
       transform="matrix(1.1333333,0,0,-1.1333333,14.734467,122.4242)" />
    <path
       id="path107"
       d="m 250.11261,20.97678 c 0,3.02629 -2.45323,5.47952 -5.47952,5.47952 -3.02629,0 -5.47953,-2.45323 -5.47953,-5.47952 0,-3.02629 2.45324,-5.47953 5.47953,-5.47953 3.02629,0 5.47952,2.45324 5.47952,5.47953 z"
       style="fill:#88c946;fill-opacity:1;fill-rule:nonzero;stroke:none"
       transform="matrix(1.1333333,0,0,-1.1333333,14.734467,122.4242)" />
    <path
       id="path108"
       d="m 261.73448,16.72449 c 0,3.02629 -2.45325,5.47952 -5.47952,5.47952 -3.02629,0 -5.47952,-2.45323 -5.47952,-5.47952 0,-3.02628 2.45323,-5.47953 5.47952,-5.47953 3.02627,0 5.47952,2.45325 5.47952,5.47953 z"
       style="fill:#88c946;fill-opacity:1;fill-rule:nonzero;stroke:none"
       transform="matrix(1.1333333,0,0,-1.1333333,14.734467,122.4242)" />
    <path
       id="path109"
       d="m 261.16785,28.06348 c 0,3.02629 -2.45324,5.47952 -5.47953,5.47952 -3.02627,0 -5.47952,-2.45323 -5.47952,-5.47952 0,-3.02628 2.45325,-5.47953 5.47952,-5.47953 3.02629,0 5.47953,2.45325 5.47953,5.47953 z"
       style="fill:#88c946;fill-opacity:1;fill-rule:nonzero;stroke:none"
       transform="matrix(1.1333333,0,0,-1.1333333,14.734467,122.4242)" />
    <path
       id="path110"
       d="m 252.66373,36.28386 c 0,3.02629 -2.45323,5.47952 -5.47953,5.47952 -3.02629,0 -5.47952,-2.45323 -5.47952,-5.47952 0,-3.02629 2.45323,-5.47952 5.47952,-5.47952 3.0263,0 5.47953,2.45323 5.47953,5.47952 z"
       style="fill:#88c946;fill-opacity:1;fill-rule:nonzero;stroke:none"
       transform="matrix(1.1333333,0,0,-1.1333333,14.734467,122.4242)" />
    <path
       id="path111"
       d="m 240.47437,41.95314 c 0,3.02629 -2.45324,5.47952 -5.47953,5.47952 -3.02627,0 -5.47952,-2.45323 -5.47952,-5.47952 0,-3.02629 2.45325,-5.47952 5.47952,-5.47952 3.02629,0 5.47953,2.45323 5.47953,5.47952 z"
       style="fill:#88c946;fill-opacity:1;fill-rule:nonzero;stroke:none"
       transform="matrix(1.1333333,0,0,-1.1333333,14.734467,122.4242)" />
    <path
       id="path112"
       d="m 230.83656,32.59865 c 0,3.02629 -2.45323,5.47952 -5.47952,5.47952 -3.02629,0 -5.47952,-2.45323 -5.47952,-5.47952 0,-3.02629 2.45323,-5.47952 5.47952,-5.47952 3.02629,0 5.47952,2.45323 5.47952,5.47952 z"
       style="fill:#88c946;fill-opacity:1;fill-rule:nonzero;stroke:none"
       transform="matrix(1.1333333,0,0,-1.1333333,14.734467,122.4242)" />
    <path
       id="path113"
       d="m 242.45885,30.33128 c 0,3.02629 -2.45323,5.47952 -5.47953,5.47952 -3.02627,0 -5.47952,-2.45323 -5.47952,-5.47952 0,-3.02628 2.45325,-5.47952 5.47952,-5.47952 3.0263,0 5.47953,2.45324 5.47953,5.47952 z"
       style="fill:#88c946;fill-opacity:1;fill-rule:nonzero;stroke:none"
       transform="matrix(1.1333333,0,0,-1.1333333,14.734467,122.4242)" />
    <path
       id="path114"
       d="M 172.06517,1.41751 H 277.2319 V 107.15076 H 172.06517 Z"
       style="fill:none;stroke:#000000;stroke-width:1.74348;stroke-linecap:butt;stroke-linejoin:round;stroke-miterlimit:10;stroke-dasharray:none;stroke-opacity:1"
       transform="matrix(1.1333333,0,0,-1.1333333,14.734467,122.4242)" />
    <path
       id="path115"
       d="m 213.95685,0.54576 c 0,3.81122 1.47883,5.84786 1.47883,9.65907 0,5.46347 -4.72058,7.37571 -5.66928,12.75621 -2.12071,5.82659 -5.93486,10.22083 -2.83462,15.59063 2.32939,6.39987 3.85361,10.50431 9.07075,14.88211 4.89743,2.82751 6.5918,6.28622 11.90583,8.22039 5.27215,3.04387 9.58665,-0.75228 15.30729,-2.83444 6.93482,-2.52409 13.19745,-5.45262 18.85066,-0.70892 1.12316,1.94537 2.87356,1.99501 4.81891,3.11816 l 11.21842,3.80349"
       style="fill:none;stroke:#ff0000;stroke-width:1.99255;stroke-linecap:butt;stroke-linejoin:round;stroke-miterlimit:10;stroke-dasharray:none;stroke-opacity:1"
       transform="matrix(1.1333333,0,0,-1.1333333,14.734467,122.4242)" />
    <path
       id="path116"
       d="M 5.7893621,-6.5361379 H 5.0035165 v 5.3492647 L 1.5843989,-6.5361379 H 0.67447243 v 6.5349265 H 1.4741048 V -5.295329 l 3.3777573,5.2941176 h 0.9375 z m 6.4763329,0 h -0.785846 v 5.3492647 L 8.0607316,-6.5361379 H 7.1508051 v 6.5349265 H 7.9504375 V -5.295329 l 3.3777575,5.2941176 h 0.9375 z m 8.137638,6.5349265 1.378676,-4.7012868 h -0.840992 l -0.9375,3.6672795 -0.909927,-3.6672795 h -0.923713 l -0.89614,3.6672795 -0.951287,-3.6672795 h -0.827206 l 1.36489,4.7012868 h 0.840993 l 0.89614,-3.6810662 0.951286,3.6810662 z M 23.2503,-4.7024982 h -0.730699 v 4.7012868 H 23.2503 Z m 0,-1.8336397 h -0.744486 v 0.9375 H 23.2503 Z m 2.929687,1.8336397 h -0.772059 v -1.2821691 h -0.744485 v 1.2821691 h -0.634191 v 0.6204045 h 0.634191 v 3.54319848 c 0,0.46875 0.330882,0.74448529 0.909926,0.74448529 0.179228,0 0.358456,-0.0137868 0.606618,-0.0689338 v -0.62040441 c -0.09651,0.0275735 -0.220588,0.0413603 -0.358456,0.0413603 -0.317095,0 -0.413603,-0.0965073 -0.413603,-0.4273897 V -4.0820937 h 0.772059 z m 0.837546,-1.8336397 v 6.5349265 h 0.744485 v -2.5919118 c 0,-0.9512867 0.510111,-1.5854779 1.28217,-1.5854779 0.234375,0 0.482536,0.082721 0.661764,0.2205882 0.206802,0.1516544 0.303309,0.3722427 0.303309,0.703125 v 3.2536765 h 0.744485 v -3.5431985 c 0,-0.7996324 -0.565257,-1.2821691 -1.475183,-1.2821691 -0.661765,0 -1.075368,0.2068014 -1.516545,0.7720588 v -2.4816177 z m 11.105239,4.5772059 0.675552,1.9577206 h 0.923713 l -2.288603,-6.5349265 h -1.075368 l -2.329963,6.5349265 h 0.882353 l 0.689338,-1.9577206 z m -0.234375,-0.703125 h -2.081801 l 1.075367,-2.9779412 z m 6.186811,-0.4549632 c -0.02757,-0.4549633 -0.137868,-0.7582721 -0.317096,-1.0202206 -0.317095,-0.4273897 -0.882353,-0.6893382 -1.530331,-0.6893382 -1.268382,0 -2.095588,0.992647 -2.095588,2.5643382 0,1.50275734 0.813419,2.46783087 2.081801,2.46783087 1.116728,0 1.83364,-0.67555147 1.916361,-1.81985297 h -0.758272 c -0.124081,0.75827209 -0.510111,1.13051474 -1.144302,1.13051474 -0.827206,0 -1.309742,-0.67555144 -1.309742,-1.77849264 0,-1.1856618 0.482536,-1.875 1.295955,-1.875 0.620405,0 1.020221,0.3584559 1.116728,1.0202206 z m 2.536764,-1.585478 h -0.772058 v -1.2821691 h -0.744486 v 1.2821691 h -0.634191 v 0.6204045 h 0.634191 v 3.54319848 c 0,0.46875 0.330883,0.74448529 0.909927,0.74448529 0.179228,0 0.358456,-0.0137868 0.606617,-0.0689338 v -0.62040441 c -0.09651,0.0275735 -0.220588,0.0413603 -0.358455,0.0413603 -0.317096,0 -0.413603,-0.0965073 -0.413603,-0.4273897 V -4.0820937 h 0.772058 z m 1.557905,0 h -0.730699 v 4.7012868 h 0.730699 z m 0,-1.8336397 h -0.744485 v 0.9375 h 0.744485 z m 3.201976,6.5349265 1.806066,-4.7012868 h -0.840993 l -1.323529,3.81893386 -1.254596,-3.81893386 h -0.854779 l 1.654412,4.7012868 z m 6.507353,-0.44117647 c -0.08272,0.0137868 -0.124081,0.0137868 -0.165441,0.0137868 -0.261949,0 -0.399816,-0.12408089 -0.399816,-0.35845589 V -3.5444099 c 0,-0.8409927 -0.606618,-1.2821691 -1.764706,-1.2821691 -0.689339,0 -1.254596,0.1930147 -1.557905,0.5376838 -0.220588,0.2481617 -0.303309,0.5101103 -0.330882,0.9788603 h 0.758272 c 0.05515,-0.5652574 0.399816,-0.8272059 1.102941,-0.8272059 0.675552,0 1.047794,0.2481618 1.047794,0.6893382 v 0.2068015 c 0,0.3033088 -0.193014,0.4411765 -0.785845,0.5101103 -1.047794,0.1378676 -1.213236,0.1792279 -1.502758,0.2895221 -0.55147,0.2205882 -0.827206,0.6479779 -0.827206,1.2545955 0,0.85477945 0.592831,1.39246327 1.544118,1.39246327 0.592831,0 1.061581,-0.20680147 1.599265,-0.68933823 0.05515,0.46875 0.289522,0.68933823 0.772059,0.68933823 0.151654,0 0.261948,-0.0137868 0.51011,-0.0827206 z M 56.569463,-1.4763952 c 0,0.2481617 -0.06893,0.3998162 -0.303309,0.60661763 -0.303308,0.27573529 -0.661764,0.4273897 -1.102941,0.4273897 -0.579044,0 -0.923713,-0.28952206 -0.923713,-0.75827203 0,-0.4963236 0.330882,-0.7444853 1.130515,-0.8547794 0.785845,-0.1102942 0.951286,-0.1516544 1.199448,-0.2619486 z m 3.77068,-3.226103 h -0.772058 v -1.2821691 h -0.744486 v 1.2821691 h -0.634191 v 0.6204045 h 0.634191 v 3.54319848 c 0,0.46875 0.330883,0.74448529 0.909927,0.74448529 0.179228,0 0.358456,-0.0137868 0.606617,-0.0689338 v -0.62040441 c -0.09651,0.0275735 -0.220588,0.0413603 -0.358455,0.0413603 -0.317096,0 -0.413603,-0.0965073 -0.413603,-0.4273897 V -4.0820937 h 0.772058 z m 1.554458,0 h -0.730698 v 4.7012868 h 0.730698 z m 0,-1.8336397 h -0.744485 v 0.9375 h 0.744485 z m 3.095129,1.7095589 c -1.32353,0 -2.123162,0.9375 -2.123162,2.5091911 0,1.58547797 0.799632,2.52297797 2.123162,2.52297797 1.323529,0 2.123162,-0.9375 2.123162,-2.48161767 0,-1.6268382 -0.772059,-2.5505514 -2.123162,-2.5505514 z m 0,0.6893382 c 0.854779,0 1.351103,0.6893382 1.351103,1.8474265 0,1.1029411 -0.523897,1.80606614 -1.351103,1.80606614 -0.827206,0 -1.337316,-0.68933824 -1.337316,-1.83363974 0,-1.1305147 0.51011,-1.8198529 1.337316,-1.8198529 z m 3.164062,-0.5652574 v 4.7012868 h 0.758272 v -2.5919118 c 0,-0.9512867 0.496324,-1.5854779 1.268383,-1.5854779 0.592831,0 0.97886,0.3584559 0.97886,0.9237132 v 3.2536765 h 0.744485 v -3.5431985 c 0,-0.7858456 -0.592831,-1.2821691 -1.48897,-1.2821691 -0.703125,0 -1.158089,0.2619485 -1.557905,0.9237132 v -0.7996324 z m 8.489201,1.7233456 h 3.115808 v -0.7306985 h -3.115808 v -2.0955882 h 3.543198 V -6.5361379 H 75.802 v 6.5349265 h 0.840993 z m 8.154871,2.9779412 v -4.7012868 h -0.744485 v 2.6608456 c 0,0.9650736 -0.496324,1.59926473 -1.282169,1.59926473 -0.592831,0 -0.965074,-0.35845588 -0.965074,-0.92371323 v -3.3363971 h -0.744485 v 3.6259192 c 0,0.78584554 0.579044,1.28216907 1.502757,1.28216907 0.689338,0 1.130515,-0.24816176 1.571691,-0.85477941 v 0.64797794 z m 1.289062,-4.7012868 v 4.7012868 h 0.758273 v -2.5919118 c 0,-0.9512867 0.496323,-1.5854779 1.268382,-1.5854779 0.592831,0 0.97886,0.3584559 0.97886,0.9237132 v 3.2536765 h 0.744485 v -3.5431985 c 0,-0.7858456 -0.59283,-1.2821691 -1.48897,-1.2821691 -0.703125,0 -1.158088,0.2619485 -1.557905,0.9237132 v -0.7996324 z m 8.585708,1.585478 c -0.02757,-0.4549633 -0.137867,-0.7582721 -0.317095,-1.0202206 -0.317096,-0.4273897 -0.882353,-0.6893382 -1.530331,-0.6893382 -1.268383,0 -2.095589,0.992647 -2.095589,2.5643382 0,1.50275734 0.81342,2.46783087 2.081802,2.46783087 1.116728,0 1.83364,-0.67555147 1.91636,-1.81985297 h -0.758272 c -0.124081,0.75827209 -0.51011,1.13051474 -1.144301,1.13051474 -0.827206,0 -1.309743,-0.67555144 -1.309743,-1.77849264 0,-1.1856618 0.482537,-1.875 1.295956,-1.875 0.620404,0 1.020221,0.3584559 1.116728,1.0202206 z m 2.536765,-1.585478 H 96.43734 v -1.2821691 h -0.744485 v 1.2821691 h -0.634191 v 0.6204045 h 0.634191 v 3.54319848 c 0,0.46875 0.330882,0.74448529 0.909926,0.74448529 0.179228,0 0.358456,-0.0137868 0.606618,-0.0689338 v -0.62040441 c -0.09651,0.0275735 -0.220588,0.0413603 -0.358456,0.0413603 -0.317096,0 -0.413603,-0.0965073 -0.413603,-0.4273897 V -4.0820937 h 0.772059 z m 1.557904,0 h -0.730698 v 4.7012868 h 0.730698 z m 0,-1.8336397 h -0.744485 v 0.9375 h 0.744485 z m 3.091687,1.7095589 c -1.32353,0 -2.123166,0.9375 -2.123166,2.5091911 0,1.58547797 0.799636,2.52297797 2.123166,2.52297797 1.32352,0 2.12316,-0.9375 2.12316,-2.48161767 0,-1.6268382 -0.77206,-2.5505514 -2.12316,-2.5505514 z m 0,0.6893382 c 0.85477,0 1.3511,0.6893382 1.3511,1.8474265 0,1.1029411 -0.5239,1.80606614 -1.3511,1.80606614 -0.82721,0 -1.33732,-0.68933824 -1.33732,-1.83363974 0,-1.1305147 0.51011,-1.8198529 1.33732,-1.8198529 z m 3.1675,-0.5652574 v 4.7012868 h 0.75828 v -2.5919118 c 0,-0.9512867 0.49632,-1.5854779 1.26838,-1.5854779 0.59283,0 0.97886,0.3584559 0.97886,0.9237132 v 3.2536765 h 0.74448 v -3.5431985 c 0,-0.7858456 -0.59283,-1.2821691 -1.48897,-1.2821691 -0.70312,0 -1.15808,0.2619485 -1.5579,0.9237132 v -0.7996324 z m 0,0"
       style="fill:#000000;fill-opacity:1;fill-rule:nonzero;stroke:none"
       aria-label="NNwithActivationFunction"
       transform="matrix(1.1333333,0,0,1.1333333,207.34107,136.24747)" />
  </g>
</svg>
