<?xml version="1.0" encoding="UTF-8" standalone="no"?>
<!-- Created with Inkscape (http://www.inkscape.org/) -->

<svg
   version="1.1"
   id="svg1"
   width="442.70267"
   height="203.78799"
   viewBox="0 0 442.70267 203.78799"
   xmlns="http://www.w3.org/2000/svg"
   xmlns:svg="http://www.w3.org/2000/svg">
  <defs
     id="defs1">
    <clipPath
       clipPathUnits="userSpaceOnUse"
       id="clipPath16">
      <path
         d="M 0,2.5000001e-6 H 252.80526 V 125.24836 H 0 Z"
         id="path16" />
    </clipPath>
  </defs>
  <g
     id="g1">
    <path
       id="path1"
       d="M 50.56105,0 V 125.24574 M 101.1221,0 V 125.24574 M 151.68315,0 V 125.24574 M 202.2442,0 v 125.24574"
       style="fill:none;stroke:#bfbfbf;stroke-width:0.3985;stroke-linecap:butt;stroke-linejoin:miter;stroke-miterlimit:10;stroke-dasharray:none;stroke-opacity:1"
       transform="matrix(1.3333333,0,0,-1.3333333,50.168,167.25867)" />
    <path
       id="path2"
       d="M 25.28052,0 V 125.24574 M 75.84157,0 V 125.24574 M 126.40262,0 V 125.24574 M 176.96367,0 V 125.24574 M 227.52472,0 v 125.24574"
       style="fill:none;stroke:#666666;stroke-width:0.3985;stroke-linecap:butt;stroke-linejoin:miter;stroke-miterlimit:10;stroke-dasharray:none;stroke-opacity:1"
       transform="matrix(1.3333333,0,0,-1.3333333,50.168,167.25867)" />
    <path
       id="path3"
       d="M 0,18.97662 H 252.80525 M 0,56.92989 H 252.80525 M 0,94.88313 h 252.80525"
       style="fill:none;stroke:#bfbfbf;stroke-width:0.3985;stroke-linecap:butt;stroke-linejoin:miter;stroke-miterlimit:10;stroke-dasharray:none;stroke-opacity:1"
       transform="matrix(1.3333333,0,0,-1.3333333,50.168,167.25867)" />
    <path
       id="path4"
       d="M 0,0 H 252.80525 M 0,37.95325 H 252.80525 M 0,75.90651 H 252.80525 M 0,113.85977 h 252.80525"
       style="fill:none;stroke:#666666;stroke-width:0.3985;stroke-linecap:butt;stroke-linejoin:miter;stroke-miterlimit:10;stroke-dasharray:none;stroke-opacity:1"
       transform="matrix(1.3333333,0,0,-1.3333333,50.168,167.25867)" />
    <path
       id="path5"
       d="m 1.9229531,-4.9448906 c -0.46875,0 -0.8789062,0.1992187 -1.13671873,0.5507812 -0.328125,0.421875 -0.48046875,1.0898438 -0.48046875,2.0039063 0,1.66406248 0.55078125,2.55468748 1.61718748,2.55468748 1.0429688,0 1.6171875,-0.890625 1.6171875,-2.51953128 0,-0.9609375 -0.1523437,-1.59375 -0.4804687,-2.0390625 C 2.8018594,-4.7456719 2.3799844,-4.9448906 1.9229531,-4.9448906 Z m 0,0.5507812 c 0.65625,0 0.984375,0.6679688 0.984375,1.9921875 0,1.3945313 -0.3164062,2.05078128 -1.0078125,2.05078128 -0.6445312,0 -0.97265623,-0.67968748 -0.97265623,-2.02734378 0,-1.359375 0.32812503,-2.015625 0.99609373,-2.015625 z m 3.2900391,3.66796878 H 4.4864297 V 4.21875e-4 H 5.2129922 Z M 7.7383828,-4.9448906 c -0.46875,0 -0.8789062,0.1992187 -1.1367187,0.5507812 -0.328125,0.421875 -0.4804688,1.0898438 -0.4804688,2.0039063 0,1.66406248 0.5507813,2.55468748 1.6171875,2.55468748 1.0429688,0 1.6171875,-0.890625 1.6171875,-2.51953128 0,-0.9609375 -0.1523437,-1.59375 -0.4804687,-2.0390625 C 8.6172891,-4.7456719 8.1954141,-4.9448906 7.7383828,-4.9448906 Z m 0,0.5507812 c 0.65625,0 0.984375,0.6679688 0.984375,1.9921875 0,1.3945313 -0.3164062,2.05078128 -1.0078125,2.05078128 -0.6445312,0 -0.9726562,-0.67968748 -0.9726562,-2.02734378 0,-1.359375 0.328125,-2.015625 0.9960937,-2.015625 z m 0,0"
       style="fill:#000000;fill-opacity:1;fill-rule:nonzero;stroke:none"
       aria-label="0.0"
       transform="matrix(1.3333333,0,0,1.3333333,28.772,170.476)" />
    <path
       id="path6"
       d="m 1.8048594,-3.5163047 v 3.5156250125 h 0.609375 V -4.9459922 H 2.0157969 c -0.2109375,0.7617188 -0.3515625,0.8671875 -1.30078128,0.984375 v 0.4453125 z m 3.993164,-1.4296875 c -0.46875,0 -0.8789062,0.1992188 -1.1367187,0.5507813 -0.328125,0.421875 -0.4804688,1.0898437 -0.4804688,2.0039062 0,1.66406251 0.5507813,2.55468751 1.6171875,2.55468751 1.0429688,0 1.6171875,-0.890625 1.6171875,-2.51953121 0,-0.9609375 -0.1523437,-1.59375 -0.4804687,-2.0390625 C 6.6769297,-4.7467734 6.2550547,-4.9459922 5.7980234,-4.9459922 Z m 0,0.5507813 c 0.65625,0 0.984375,0.6679687 0.984375,1.9921875 0,1.3945312 -0.3164062,2.05078121 -1.0078125,2.05078121 -0.6445312,0 -0.9726562,-0.67968751 -0.9726562,-2.02734371 0,-1.359375 0.328125,-2.015625 0.9960937,-2.015625 z m 3.2929688,3.66796871 H 8.3644297 V -6.796875e-4 H 9.0909922 Z M 11.616383,-4.9459922 c -0.46875,0 -0.878906,0.1992188 -1.136719,0.5507813 -0.328125,0.421875 -0.4804687,1.0898437 -0.4804687,2.0039062 0,1.66406251 0.5507817,2.55468751 1.6171877,2.55468751 1.042969,0 1.617187,-0.890625 1.617187,-2.51953121 0,-0.9609375 -0.152343,-1.59375 -0.480468,-2.0390625 -0.257813,-0.3515625 -0.679688,-0.5507813 -1.136719,-0.5507813 z m 0,0.5507813 c 0.65625,0 0.984375,0.6679687 0.984375,1.9921875 0,1.3945312 -0.316406,2.05078121 -1.007813,2.05078121 -0.644531,0 -0.972656,-0.67968751 -0.972656,-2.02734371 0,-1.359375 0.328125,-2.015625 0.996094,-2.015625 z m 0,0"
       style="fill:#000000;fill-opacity:1;fill-rule:nonzero;stroke:none"
       aria-label="10.0"
       transform="matrix(1.3333333,0,0,1.3333333,23.601333,119.872)" />
    <path
       id="path7"
       d="M 3.5275156,-0.60822656 H 0.92595312 C 0.98454687,-1.0066641 1.2189219,-1.2644766 1.8165781,-1.6277578 l 0.703125,-0.375 c 0.6914063,-0.375 1.0429688,-0.8789063 1.0429688,-1.4882813 0,-0.4101562 -0.1640625,-0.796875 -0.4570313,-1.0664062 -0.2929687,-0.2578125 -0.65625,-0.3867188 -1.125,-0.3867188 -0.6328125,0 -1.08984373,0.2226563 -1.37109373,0.6445313 -0.17578125,0.2578125 -0.24609375,0.5742187 -0.2578125,1.078125 h 0.609375 c 0.0234375,-0.3398438 0.0585937,-0.5390625 0.15234373,-0.703125 0.1523438,-0.3046875 0.4804688,-0.4804688 0.84375,-0.4804688 0.5625,0 0.9726563,0.3984375 0.9726563,0.9257813 0,0.3867187 -0.2226563,0.7265625 -0.6679688,0.9726562 L 1.6290781,-2.1433828 C 0.59782812,-1.5574453 0.29314062,-1.0886953 0.23454687,0.00114844 H 3.5275156 Z M 5.7980234,-4.9441641 c -0.46875,0 -0.8789062,0.1992188 -1.1367187,0.5507813 -0.328125,0.421875 -0.4804688,1.0898437 -0.4804688,2.0039062 0,1.66406254 0.5507813,2.55468754 1.6171875,2.55468754 1.0429688,0 1.6171875,-0.890625 1.6171875,-2.51953124 0,-0.9609375 -0.1523437,-1.59375 -0.4804687,-2.0390625 C 6.6769297,-4.7449453 6.2550547,-4.9441641 5.7980234,-4.9441641 Z m 0,0.5507813 c 0.65625,0 0.984375,0.6679687 0.984375,1.9921875 0,1.3945312 -0.3164062,2.05078124 -1.0078125,2.05078124 -0.6445312,0 -0.9726562,-0.67968754 -0.9726562,-2.02734374 0,-1.359375 0.328125,-2.015625 0.9960937,-2.015625 z m 3.2929688,3.66796874 H 8.3644297 v 0.7265625 H 9.0909922 Z M 11.616383,-4.9441641 c -0.46875,0 -0.878906,0.1992188 -1.136719,0.5507813 -0.328125,0.421875 -0.4804687,1.0898437 -0.4804687,2.0039062 0,1.66406254 0.5507817,2.55468754 1.6171877,2.55468754 1.042969,0 1.617187,-0.890625 1.617187,-2.51953124 0,-0.9609375 -0.152343,-1.59375 -0.480468,-2.0390625 -0.257813,-0.3515625 -0.679688,-0.5507813 -1.136719,-0.5507813 z m 0,0.5507813 c 0.65625,0 0.984375,0.6679687 0.984375,1.9921875 0,1.3945312 -0.316406,2.05078124 -1.007813,2.05078124 -0.644531,0 -0.972656,-0.67968754 -0.972656,-2.02734374 0,-1.359375 0.328125,-2.015625 0.996094,-2.015625 z m 0,0"
       style="fill:#000000;fill-opacity:1;fill-rule:nonzero;stroke:none"
       aria-label="20.0"
       transform="matrix(1.3333333,0,0,1.3333333,23.601333,69.268)" />
    <path
       id="path8"
       d="m 1.5353281,-2.2616719 h 0.082031 l 0.2578125,-0.011719 c 0.6796875,0 1.03125,0.3046875 1.03125,0.9023437 0,0.62109378 -0.3867188,0.98437503 -1.03125,0.98437503 -0.6679688,0 -0.99609378,-0.328125 -1.04296878,-1.05468753 h -0.609375 c 0.0234375,0.3984375 0.09375,0.65625003 0.2109375,0.87890628 0.2578125,0.48046875 0.74999998,0.7265625 1.41796878,0.7265625 1.0195312,0 1.6757812,-0.609375 1.6757812,-1.54687498 0,-0.6210938 -0.2460937,-0.9726563 -0.8320312,-1.171875 0.4570312,-0.1875 0.6914062,-0.5390625 0.6914062,-1.03125 0,-0.84375 -0.5742187,-1.359375 -1.5117187,-1.359375 -0.99609378,0 -1.52343753,0.5507812 -1.54687503,1.59375 h 0.609375 c 0.0117188,-0.2929688 0.0351563,-0.4570313 0.11718753,-0.6210938 0.140625,-0.2695312 0.4453125,-0.4335937 0.8320312,-0.4335937 0.5390625,0 0.8671875,0.3164062 0.8671875,0.84375 0,0.3515625 -0.1289062,0.5625 -0.3984375,0.6679687 -0.1640625,0.070312 -0.3867187,0.09375 -0.8203125,0.1054688 z m 4.2626953,-2.6835937 c -0.46875,0 -0.8789062,0.1992187 -1.1367187,0.5507812 -0.328125,0.421875 -0.4804688,1.0898438 -0.4804688,2.0039063 0,1.66406248 0.5507813,2.55468748 1.6171875,2.55468748 1.0429688,0 1.6171875,-0.890625 1.6171875,-2.51953128 0,-0.9609375 -0.1523437,-1.59375 -0.4804687,-2.0390625 C 6.6769297,-4.7460469 6.2550547,-4.9452656 5.7980234,-4.9452656 Z m 0,0.5507812 c 0.65625,0 0.984375,0.6679688 0.984375,1.9921875 0,1.3945313 -0.3164062,2.05078128 -1.0078125,2.05078128 -0.6445312,0 -0.9726562,-0.67968748 -0.9726562,-2.02734378 0,-1.359375 0.328125,-2.015625 0.9960937,-2.015625 z m 3.2929688,3.66796878 H 8.3644297 V 4.6875e-5 H 9.0909922 Z M 11.616383,-4.9452656 c -0.46875,0 -0.878906,0.1992187 -1.136719,0.5507812 -0.328125,0.421875 -0.4804687,1.0898438 -0.4804687,2.0039063 0,1.66406248 0.5507817,2.55468748 1.6171877,2.55468748 1.042969,0 1.617187,-0.890625 1.617187,-2.51953128 0,-0.9609375 -0.152343,-1.59375 -0.480468,-2.0390625 -0.257813,-0.3515625 -0.679688,-0.5507812 -1.136719,-0.5507812 z m 0,0.5507812 c 0.65625,0 0.984375,0.6679688 0.984375,1.9921875 0,1.3945313 -0.316406,2.05078128 -1.007813,2.05078128 -0.644531,0 -0.972656,-0.67968748 -0.972656,-2.02734378 0,-1.359375 0.328125,-2.015625 0.996094,-2.015625 z m 0,0"
       style="fill:#000000;fill-opacity:1;fill-rule:nonzero;stroke:none"
       aria-label="30.0"
       transform="matrix(1.3333333,0,0,1.3333333,23.601333,18.664)" />
    <path
       id="path9"
       d="m 1.9211484,-4.9448906 c -0.46875,0 -0.8789062,0.1992187 -1.13671871,0.5507812 -0.328125,0.421875 -0.48046875,1.0898438 -0.48046875,2.0039063 0,1.66406248 0.55078125,2.55468748 1.61718746,2.55468748 1.0429688,0 1.6171875,-0.890625 1.6171875,-2.51953128 0,-0.9609375 -0.1523437,-1.59375 -0.4804687,-2.0390625 C 2.8000547,-4.7456719 2.3781797,-4.9448906 1.9211484,-4.9448906 Z m 0,0.5507812 c 0.65625,0 0.984375,0.6679688 0.984375,1.9921875 0,1.3945313 -0.3164062,2.05078128 -1.0078125,2.05078128 -0.6445312,0 -0.97265621,-0.67968748 -0.97265621,-2.02734378 0,-1.359375 0.32812501,-2.015625 0.99609371,-2.015625 z m 3.2929688,3.66796878 H 4.4875547 V 4.21875e-4 H 5.2141172 Z M 7.7395078,-4.9448906 c -0.46875,0 -0.8789062,0.1992187 -1.1367187,0.5507812 -0.328125,0.421875 -0.4804688,1.0898438 -0.4804688,2.0039063 0,1.66406248 0.5507813,2.55468748 1.6171875,2.55468748 1.0429688,0 1.6171875,-0.890625 1.6171875,-2.51953128 0,-0.9609375 -0.1523437,-1.59375 -0.4804687,-2.0390625 C 8.6184141,-4.7456719 8.1965391,-4.9448906 7.7395078,-4.9448906 Z m 0,0.5507812 c 0.65625,0 0.984375,0.6679688 0.984375,1.9921875 0,1.3945313 -0.3164062,2.05078128 -1.0078125,2.05078128 -0.6445312,0 -0.9726562,-0.67968748 -0.9726562,-2.02734378 0,-1.359375 0.328125,-2.015625 0.9960937,-2.015625 z m 0,0"
       style="fill:#000000;fill-opacity:1;fill-rule:nonzero;stroke:none"
       aria-label="0.0"
       transform="matrix(1.3333333,0,0,1.3333333,395.708,170.476)" />
    <path
       id="path10"
       d="M 3.5266172,-0.60892187 H 0.92505469 C 0.98364844,-1.0073594 1.2180234,-1.2651719 1.8156797,-1.6284531 l 0.703125,-0.375 c 0.6914062,-0.375 1.0429687,-0.8789063 1.0429687,-1.4882813 0,-0.4101562 -0.1640625,-0.796875 -0.4570312,-1.0664062 -0.2929688,-0.2578125 -0.65625,-0.3867188 -1.125,-0.3867188 -0.6328125,0 -1.08984376,0.2226563 -1.37109376,0.6445313 -0.17578125,0.2578125 -0.24609375,0.5742187 -0.2578125,1.078125 h 0.609375 c 0.0234375,-0.3398438 0.0585938,-0.5390625 0.15234376,-0.703125 0.1523437,-0.3046875 0.4804687,-0.4804688 0.84375,-0.4804688 0.5625,0 0.9726562,0.3984375 0.9726562,0.9257813 0,0.3867187 -0.2226562,0.7265625 -0.6679687,0.9726562 L 1.6281797,-2.1440781 C 0.59692969,-1.5581406 0.29224219,-1.0893906 0.23364844,4.53125e-4 H 3.5266172 Z M 7.1945859,-4.9448594 H 4.6398984 l -0.3632812,2.6953125 h 0.5625 c 0.2929687,-0.3398437 0.5273437,-0.4570312 0.9023437,-0.4570312 0.6679688,0 1.0898438,0.4453125 1.0898438,1.1835937 0,0.70312503 -0.4101563,1.13671878 -1.0898438,1.13671878 -0.5273437,0 -0.8554687,-0.26953125 -1.0078125,-0.83203128 h -0.609375 c 0.082031,0.41015628 0.1523438,0.60937503 0.2929688,0.78515628 0.28125,0.375 0.7851562,0.59765625 1.3476562,0.59765625 0.9960938,0 1.6875,-0.7265625 1.6875,-1.76953123 0,-0.984375 -0.6445312,-1.6523438 -1.59375,-1.6523438 -0.3515625,0 -0.6328125,0.09375 -0.9140625,0.3046875 l 0.1992188,-1.3828125 h 2.0507812 z m 1.8955078,4.21875003 H 8.3635312 V 4.53125e-4 H 9.0900937 Z M 11.615484,-4.9448594 c -0.46875,0 -0.878906,0.1992188 -1.136718,0.5507813 -0.328125,0.421875 -0.4804691,1.0898437 -0.4804691,2.0039062 0,1.66406253 0.5507811,2.55468753 1.6171871,2.55468753 1.042969,0 1.617188,-0.890625 1.617188,-2.51953123 0,-0.9609375 -0.152344,-1.59375 -0.480469,-2.0390625 -0.257812,-0.3515625 -0.679687,-0.5507813 -1.136719,-0.5507813 z m 0,0.5507813 c 0.65625,0 0.984375,0.6679687 0.984375,1.9921875 0,1.3945312 -0.316406,2.05078123 -1.007812,2.05078123 -0.644531,0 -0.972656,-0.67968753 -0.972656,-2.02734373 0,-1.359375 0.328125,-2.015625 0.996093,-2.015625 z m 0,0"
       style="fill:#000000;fill-opacity:1;fill-rule:nonzero;stroke:none"
       aria-label="25.0"
       transform="matrix(1.3333333,0,0,1.3333333,395.708,139.08533)" />
    <path
       id="path11"
       d="M 3.3156797,-4.9448281 H 0.76099219 l -0.36328125,2.6953125 h 0.5625 C 1.2531797,-2.5893594 1.4875547,-2.7065469 1.8625547,-2.7065469 c 0.6679687,0 1.0898437,0.4453125 1.0898437,1.1835938 0,0.70312497 -0.4101562,1.13671872 -1.0898437,1.13671872 -0.5273438,0 -0.8554688,-0.26953125 -1.00781251,-0.83203122 h -0.609375 c 0.0820313,0.41015622 0.15234375,0.60937497 0.29296875,0.78515622 0.28125,0.375 0.78515626,0.59765625 1.34765626,0.59765625 0.9960937,0 1.6875,-0.7265625 1.6875,-1.76953127 0,-0.984375 -0.6445313,-1.6523437 -1.59375,-1.6523437 -0.3515625,0 -0.6328125,0.09375 -0.9140625,0.3046875 l 0.1992187,-1.3828125 h 2.0507813 z m 2.484375,0 c -0.46875,0 -0.8789063,0.1992187 -1.1367188,0.5507812 -0.328125,0.421875 -0.4804687,1.0898438 -0.4804687,2.0039063 0,1.66406247 0.5507812,2.55468747 1.6171875,2.55468747 1.0429687,0 1.6171875,-0.890625 1.6171875,-2.51953127 0,-0.9609375 -0.1523438,-1.59375 -0.4804688,-2.0390625 C 6.6789609,-4.7456094 6.2570859,-4.9448281 5.8000547,-4.9448281 Z m 0,0.5507812 c 0.65625,0 0.984375,0.6679688 0.984375,1.9921875 0,1.3945313 -0.3164063,2.05078127 -1.0078125,2.05078127 -0.6445313,0 -0.9726563,-0.67968747 -0.9726563,-2.02734377 0,-1.359375 0.328125,-2.015625 0.9960938,-2.015625 z m 3.290039,3.66796877 H 8.3635312 V 4.84375e-4 H 9.0900937 Z M 11.615484,-4.9448281 c -0.46875,0 -0.878906,0.1992187 -1.136718,0.5507812 -0.328125,0.421875 -0.4804691,1.0898438 -0.4804691,2.0039063 0,1.66406247 0.5507811,2.55468747 1.6171871,2.55468747 1.042969,0 1.617188,-0.890625 1.617188,-2.51953127 0,-0.9609375 -0.152344,-1.59375 -0.480469,-2.0390625 -0.257812,-0.3515625 -0.679687,-0.5507812 -1.136719,-0.5507812 z m 0,0.5507812 c 0.65625,0 0.984375,0.6679688 0.984375,1.9921875 0,1.3945313 -0.316406,2.05078127 -1.007812,2.05078127 -0.644531,0 -0.972656,-0.67968747 -0.972656,-2.02734377 0,-1.359375 0.328125,-2.015625 0.996093,-2.015625 z m 0,0"
       style="fill:#000000;fill-opacity:1;fill-rule:nonzero;stroke:none"
       aria-label="50.0"
       transform="matrix(1.3333333,0,0,1.3333333,395.708,107.69467)" />
    <path
       id="path12"
       d="M 3.6203672,-4.9457969 H 0.31567969 v 0.609375 H 2.9875547 C 1.8156797,-2.6606406 1.3352109,-1.6293906 0.96021094,-4.84375e-4 H 1.6164609 C 1.8859922,-1.5825156 2.5070859,-2.9418906 3.6203672,-4.4301719 Z m 3.5742187,0 H 4.6398984 l -0.3632812,2.6953125 h 0.5625 c 0.2929687,-0.3398437 0.5273437,-0.4570312 0.9023437,-0.4570312 0.6679688,0 1.0898438,0.4453125 1.0898438,1.1835937 0,0.70312502 -0.4101563,1.13671877 -1.0898438,1.13671877 -0.5273437,0 -0.8554687,-0.26953125 -1.0078125,-0.83203127 h -0.609375 c 0.082031,0.41015627 0.1523438,0.60937502 0.2929688,0.78515627 0.28125,0.375 0.7851562,0.59765625 1.3476562,0.59765625 0.9960938,0 1.6875,-0.7265625 1.6875,-1.76953122 0,-0.984375 -0.6445312,-1.6523438 -1.59375,-1.6523438 -0.3515625,0 -0.6328125,0.09375 -0.9140625,0.3046875 l 0.1992188,-1.3828125 h 2.0507812 z m 1.8955078,4.21875002 H 8.3635312 V -4.84375e-4 H 9.0900937 Z M 11.615484,-4.9457969 c -0.46875,0 -0.878906,0.1992188 -1.136718,0.5507813 -0.328125,0.421875 -0.4804691,1.0898437 -0.4804691,2.0039062 0,1.66406252 0.5507811,2.55468752 1.6171871,2.55468752 1.042969,0 1.617188,-0.890625 1.617188,-2.51953122 0,-0.9609375 -0.152344,-1.59375 -0.480469,-2.0390625 -0.257812,-0.3515625 -0.679687,-0.5507813 -1.136719,-0.5507813 z m 0,0.5507813 c 0.65625,0 0.984375,0.6679687 0.984375,1.9921875 0,1.3945312 -0.316406,2.05078122 -1.007812,2.05078122 -0.644531,0 -0.972656,-0.67968752 -0.972656,-2.02734372 0,-1.359375 0.328125,-2.015625 0.996093,-2.015625 z m 0,0"
       style="fill:#000000;fill-opacity:1;fill-rule:nonzero;stroke:none"
       aria-label="75.0"
       transform="matrix(1.3333333,0,0,1.3333333,395.708,76.305333)" />
    <path
       id="path13"
       d="m 1.8039609,-3.5160781 v 3.515624975 h 0.609375 V -4.9457656 H 2.0148984 c -0.2109375,0.7617187 -0.3515625,0.8671875 -1.30078121,0.984375 v 0.4453125 z m 3.9960938,-1.4296875 c -0.46875,0 -0.8789063,0.1992187 -1.1367188,0.5507812 -0.328125,0.421875 -0.4804687,1.0898438 -0.4804687,2.0039063 0,1.66406247 0.5507812,2.55468747 1.6171875,2.55468747 1.0429687,0 1.6171875,-0.890625 1.6171875,-2.51953127 0,-0.9609375 -0.1523438,-1.59375 -0.4804688,-2.0390625 C 6.6789609,-4.7465469 6.2570859,-4.9457656 5.8000547,-4.9457656 Z m 0,0.5507812 c 0.65625,0 0.984375,0.6679688 0.984375,1.9921875 0,1.3945313 -0.3164063,2.05078127 -1.0078125,2.05078127 -0.6445313,0 -0.9726563,-0.67968747 -0.9726563,-2.02734377 0,-1.359375 0.328125,-2.015625 0.9960938,-2.015625 z m 3.8759765,-0.5507812 c -0.46875,0 -0.8789062,0.1992187 -1.1367187,0.5507812 -0.328125,0.421875 -0.4804688,1.0898438 -0.4804688,2.0039063 0,1.66406247 0.5507813,2.55468747 1.6171875,2.55468747 1.0429688,0 1.6171878,-0.890625 1.6171878,-2.51953127 0,-0.9609375 -0.152344,-1.59375 -0.480469,-2.0390625 -0.257813,-0.3515625 -0.679688,-0.5507812 -1.1367188,-0.5507812 z m 0,0.5507812 c 0.6562498,0 0.9843748,0.6679688 0.9843748,1.9921875 0,1.3945313 -0.316406,2.05078127 -1.0078123,2.05078127 -0.6445312,0 -0.9726562,-0.67968747 -0.9726562,-2.02734377 0,-1.359375 0.328125,-2.015625 0.9960937,-2.015625 z M 12.969,-0.72701563 H 12.242437 V -4.53125e-4 H 12.969 Z m 2.525391,-4.21874997 c -0.46875,0 -0.878907,0.1992187 -1.136719,0.5507812 -0.328125,0.421875 -0.480469,1.0898438 -0.480469,2.0039063 0,1.66406247 0.550781,2.55468747 1.617188,2.55468747 1.042968,0 1.617187,-0.890625 1.617187,-2.51953127 0,-0.9609375 -0.152344,-1.59375 -0.480469,-2.0390625 -0.257812,-0.3515625 -0.679687,-0.5507812 -1.136718,-0.5507812 z m 0,0.5507812 c 0.65625,0 0.984375,0.6679688 0.984375,1.9921875 0,1.3945313 -0.316407,2.05078127 -1.007813,2.05078127 -0.644531,0 -0.972656,-0.67968747 -0.972656,-2.02734377 0,-1.359375 0.328125,-2.015625 0.996094,-2.015625 z m 0,0"
       style="fill:#000000;fill-opacity:1;fill-rule:nonzero;stroke:none"
       aria-label="100.0"
       transform="matrix(1.3333333,0,0,1.3333333,395.708,44.914667)" />
    <path
       id="path14"
       d="m 1.8039609,-3.5170469 v 3.51562502 h 0.609375 V -4.9467344 H 2.0148984 c -0.2109375,0.7617188 -0.3515625,0.8671875 -1.30078121,0.984375 v 0.4453125 z m 5.6015625,2.90625002 H 4.8039609 C 4.8625547,-1.0092344 5.0969297,-1.2670469 5.6945859,-1.6303281 l 0.703125,-0.375 c 0.6914063,-0.375 1.0429688,-0.8789063 1.0429688,-1.4882813 0,-0.4101562 -0.1640625,-0.796875 -0.4570313,-1.0664062 -0.2929687,-0.2578125 -0.65625,-0.3867188 -1.125,-0.3867188 -0.6328125,0 -1.0898437,0.2226563 -1.3710937,0.6445313 -0.1757813,0.2578125 -0.2460938,0.5742187 -0.2578125,1.078125 h 0.609375 c 0.023437,-0.3398438 0.058594,-0.5390625 0.1523437,-0.703125 0.1523438,-0.3046875 0.4804688,-0.4804688 0.84375,-0.4804688 0.5625,0 0.9726563,0.3984375 0.9726563,0.9257813 0,0.3867187 -0.2226563,0.7265625 -0.6679688,0.9726562 l -0.6328125,0.3632813 c -1.03125,0.5859375 -1.3359375,1.0546875 -1.3945312,2.14453122 H 7.4055234 Z M 11.070562,-4.9467344 H 8.515875 l -0.3632813,2.6953125 h 0.5625 c 0.2929688,-0.3398437 0.5273438,-0.4570312 0.9023438,-0.4570312 0.6679685,0 1.0898435,0.4453125 1.0898435,1.1835937 0,0.70312502 -0.410156,1.13671877 -1.0898435,1.13671877 -0.5273438,0 -0.8554688,-0.26953125 -1.0078125,-0.83203127 H 8.00025 c 0.082031,0.41015627 0.1523437,0.60937502 0.2929687,0.78515627 0.28125,0.375 0.7851563,0.59765625 1.3476563,0.59765625 0.996094,0 1.6875,-0.7265625 1.6875,-1.76953122 0,-0.984375 -0.644531,-1.6523438 -1.59375,-1.6523438 -0.3515625,0 -0.6328125,0.09375 -0.9140625,0.3046875 L 9.0197812,-4.3373594 H 11.070562 Z M 12.969,-0.72798438 h -0.726563 v 0.7265625 H 12.969 Z m 2.525391,-4.21875002 c -0.46875,0 -0.878907,0.1992188 -1.136719,0.5507813 -0.328125,0.421875 -0.480469,1.0898437 -0.480469,2.0039062 0,1.66406252 0.550781,2.55468752 1.617188,2.55468752 1.042968,0 1.617187,-0.890625 1.617187,-2.51953122 0,-0.9609375 -0.152344,-1.59375 -0.480469,-2.0390625 -0.257812,-0.3515625 -0.679687,-0.5507813 -1.136718,-0.5507813 z m 0,0.5507813 c 0.65625,0 0.984375,0.6679687 0.984375,1.9921875 0,1.3945312 -0.316407,2.05078122 -1.007813,2.05078122 -0.644531,0 -0.972656,-0.67968752 -0.972656,-2.02734372 0,-1.359375 0.328125,-2.015625 0.996094,-2.015625 z m 0,0"
       style="fill:#000000;fill-opacity:1;fill-rule:nonzero;stroke:none"
       aria-label="125.0"
       transform="matrix(1.3333333,0,0,1.3333333,395.708,13.525333)" />
    <path
       id="path15"
       d="M 11.37616,0 H 39.18488 V 0 Z"
       style="fill:#000000;fill-opacity:1;fill-rule:nonzero;stroke:none"
       transform="matrix(1.3333333,0,0,-1.3333333,50.168,167.25867)"
       clip-path="url(#clipPath16)" />
    <path
       id="path17"
       d="M 61.93721,0 H 89.74593 V 0 Z"
       style="fill:#000000;fill-opacity:1;fill-rule:nonzero;stroke:none"
       transform="matrix(1.3333333,0,0,-1.3333333,50.168,167.25867)"
       clip-path="url(#clipPath16)" />
    <path
       id="path18"
       d="m 112.49826,0 h 27.80872 v 3.76688 h -27.80872 z"
       style="fill:#009900;fill-opacity:1;fill-rule:nonzero;stroke:#009900;stroke-width:0.3985;stroke-linecap:butt;stroke-linejoin:miter;stroke-miterlimit:10;stroke-dasharray:none;stroke-opacity:1"
       transform="matrix(1.3333333,0,0,-1.3333333,50.168,167.25867)"
       clip-path="url(#clipPath16)" />
    <path
       id="path19"
       d="m 163.05931,0 h 27.80872 v 56.50323 h -27.80872 z"
       style="fill:#009900;fill-opacity:1;fill-rule:nonzero;stroke:#009900;stroke-width:0.3985;stroke-linecap:butt;stroke-linejoin:miter;stroke-miterlimit:10;stroke-dasharray:none;stroke-opacity:1"
       transform="matrix(1.3333333,0,0,-1.3333333,50.168,167.25867)"
       clip-path="url(#clipPath16)" />
    <path
       id="path20"
       d="m 213.62036,0 h 27.80872 v 103.58926 h -27.80872 z"
       style="fill:#009900;fill-opacity:1;fill-rule:nonzero;stroke:#009900;stroke-width:0.3985;stroke-linecap:butt;stroke-linejoin:miter;stroke-miterlimit:10;stroke-dasharray:none;stroke-opacity:1"
       transform="matrix(1.3333333,0,0,-1.3333333,50.168,167.25867)"
       clip-path="url(#clipPath16)" />
    <path
       id="path21"
       d="M 3.8667812,-5.5550703 H 3.2456875 L 2.9761562,-3.9964766 H 1.9800625 l 0.28125,-1.5585937 h -0.609375 l -0.28125,1.5585937 H 0.40975 v 0.5507813 H 1.2652187 L 1.019125,-2.0628828 H 0.11678125 v 0.5390625 h 0.796875 L 0.60896875,0.16367969 H 1.2183437 L 1.53475,-1.5238203 H 2.519125 L 2.2144375,0.16367969 h 0.609375 L 3.1285,-1.5238203 H 4.066 V -2.0628828 H 3.22225 l 0.2460937,-1.3828125 h 0.8554688 v -0.5507813 h -0.75 z m -0.9960937,2.109375 -0.2460938,1.3828125 H 1.6285 l 0.2460937,-1.3828125 z m 5.9355469,-0.8554688 c -1.171875,0 -1.8867188,0.84375 -1.8867188,2.25 0,1.39453129 0.703125,2.23828129 1.8984375,2.23828129 1.171875,0 1.8867189,-0.84375 1.8867189,-2.21484379 0,-1.4414062 -0.691406,-2.2734375 -1.8984376,-2.2734375 z m 0.011719,0.6210938 c 0.75,0 1.1953126,0.609375 1.1953126,1.6523437 0,0.9726563 -0.4687501,1.59375004 -1.1953126,1.59375004 -0.75,0 -1.1953125,-0.60937504 -1.1953125,-1.61718754 0,-1.0078125 0.4453125,-1.6289062 1.1953125,-1.6289062 z m 4.3037106,-0.4921875 h -0.691406 v -0.65625 c 0,-0.28125 0.164062,-0.421875 0.46875,-0.421875 0.04687,0 0.08203,0 0.222656,0.011719 V -5.789445 c -0.140625,-0.035156 -0.234375,-0.046875 -0.375,-0.046875 -0.609375,0 -0.972656,0.3515625 -0.972656,0.9492187 v 0.7148438 h -0.5625 v 0.5390625 h 0.5625 v 3.6328124875 h 0.65625 V -3.6331953 h 0.691406 z m 3.832031,1.5234375 h 3.164063 v -0.65625 h -3.164063 v -1.8515625 h 3.292969 v -0.65625 h -4.03125 v 5.8124999875 h 4.171875 V -0.65663281 h -3.433594 z m 4.426758,-1.5234375 v 4.1718749875 h 0.667969 V -2.3089766 c 0,-0.84375 0.445312,-1.40625 1.125,-1.40625 0.527344,0 0.867187,0.3164063 0.867187,0.8203125 v 2.8945312875 h 0.65625 V -3.1527266 c 0,-0.6914062 -0.515625,-1.1484375 -1.324218,-1.1484375 -0.621094,0 -1.019532,0.2460938 -1.382813,0.8320313 v -0.703125 z m 5.897461,0 h -0.691406 v -1.1484375 h -0.65625 v 1.1484375 h -0.5625 v 0.5390625 h 0.5625 v 3.15234374 c 0,0.421875 0.28125,0.66796875 0.796875,0.66796875 0.164062,0 0.328125,-0.0234375 0.550781,-0.0585938 v -0.5625 c -0.09375,0.0234375 -0.199219,0.0351563 -0.316406,0.0351563 -0.292969,0 -0.375,-0.0820313 -0.375,-0.375 V -3.6331953 h 0.691406 z m 0.738281,0 v 4.1718749875 h 0.667969 V -2.1683516 c 0,-0.5976562 0.152344,-0.984375 0.46875,-1.21875 0.210938,-0.1523437 0.410156,-0.1992187 0.867188,-0.2109375 v -0.6679687 c -0.105469,-0.023437 -0.164063,-0.035156 -0.246094,-0.035156 -0.433594,0 -0.761719,0.2578125 -1.148438,0.8789063 v -0.75 z m 3.418946,0 h -0.65625 v 4.1718749875 h 0.65625 z m 0,-1.640625 h -0.667969 v 0.84375 h 0.667969 z m 4.664062,3.9492187 c 0,-0.6445312 -0.04687,-1.0195312 -0.164062,-1.3359375 -0.28125,-0.6796875 -0.914063,-1.1015625 -1.699219,-1.1015625 -1.160156,0 -1.910156,0.9023438 -1.910156,2.2734375 0,1.37109379 0.726562,2.21484379 1.898437,2.21484379 0.960938,0 1.617188,-0.55078125 1.78125,-1.45312499 h -0.667969 c -0.175781,0.55078124 -0.550781,0.83203124 -1.089843,0.83203124 -0.421875,0 -0.785157,-0.1875 -1.007813,-0.5390625 C 33.087484,-1.2074141 33.028891,-1.4535078 33.017172,-1.8636641 Z m -3.058594,-0.5390625 c 0.04687,-0.7734375 0.527344,-1.2773437 1.195313,-1.2773437 0.644531,0 1.148437,0.5390625 1.148437,1.2304687 0,0.011719 0,0.023437 0,0.046875 z m 6.890625,-0.609375 c -0.01172,-0.8203125 -0.550781,-1.2890625 -1.511718,-1.2890625 -0.972657,0 -1.605469,0.5039063 -1.605469,1.2773438 0,0.65625 0.339844,0.9726562 1.324219,1.2070312 l 0.621093,0.1523438 c 0.457032,0.1054687 0.644532,0.28125 0.644532,0.5859375 0,0.38671874 -0.386719,0.64453124 -0.972657,0.64453124 -0.363281,0 -0.65625,-0.10546875 -0.832031,-0.28125 -0.105469,-0.1171875 -0.152344,-0.234375 -0.1875,-0.52734374 h -0.703125 c 0.03516,0.96093749 0.574219,1.42968749 1.664063,1.42968749 1.054687,0 1.722656,-0.52734375 1.722656,-1.32421879 0,-0.6210937 -0.351563,-0.9726562 -1.183594,-1.171875 l -0.632812,-0.140625 c -0.539063,-0.1289062 -0.773438,-0.3046875 -0.773438,-0.5976562 0,-0.3867188 0.339844,-0.6328125 0.890625,-0.6328125 0.527344,0 0.820313,0.234375 0.832031,0.6679687 z m 7.104493,-2.8007812 v 4.078125 c 0,0.78515624 -0.5625,1.26562499 -1.488282,1.26562499 -0.433593,0 -0.785156,-0.10546875 -1.066406,-0.3046875 -0.28125,-0.22265625 -0.421875,-0.51562499 -0.421875,-0.96093749 v -4.078125 h -0.738281 v 4.078125 c 0,1.18359374 0.84375,1.92187499 2.226562,1.92187499 1.359375,0 2.238282,-0.75 2.238282,-1.92187499 v -4.078125 z m 4.851562,2.8007812 c -0.01172,-0.8203125 -0.550781,-1.2890625 -1.511719,-1.2890625 -0.972656,0 -1.605468,0.5039063 -1.605468,1.2773438 0,0.65625 0.339843,0.9726562 1.324218,1.2070312 l 0.621094,0.1523438 c 0.457031,0.1054687 0.644531,0.28125 0.644531,0.5859375 0,0.38671874 -0.386718,0.64453124 -0.972656,0.64453124 -0.363281,0 -0.65625,-0.10546875 -0.832031,-0.28125 -0.105469,-0.1171875 -0.152344,-0.234375 -0.1875,-0.52734374 h -0.703125 c 0.03516,0.96093749 0.574219,1.42968749 1.664062,1.42968749 1.054688,0 1.722657,-0.52734375 1.722657,-1.32421879 0,-0.6210937 -0.351563,-0.9726562 -1.183594,-1.171875 l -0.632813,-0.140625 c -0.539062,-0.1289062 -0.773437,-0.3046875 -0.773437,-0.5976562 0,-0.3867188 0.339844,-0.6328125 0.890625,-0.6328125 0.527344,0 0.820312,0.234375 0.832031,0.6679687 z m 1.6875,-1.1601562 h -0.65625 v 4.1718749875 h 0.65625 z m 0,-1.640625 H 52.90682 v 0.84375 h 0.667969 z m 1.136719,1.640625 v 4.1718749875 h 0.667969 V -2.3089766 c 0,-0.84375 0.445312,-1.40625 1.125,-1.40625 0.527343,0 0.867187,0.3164063 0.867187,0.8203125 v 2.8945312875 h 0.65625 V -3.1527266 c 0,-0.6914062 -0.515625,-1.1484375 -1.324219,-1.1484375 -0.621093,0 -1.019531,0.2460938 -1.382812,0.8320313 v -0.703125 z m 7.151367,0 v 0.5976562 c -0.328125,-0.4921875 -0.738281,-0.7265625 -1.277344,-0.7265625 -1.054687,0 -1.769531,0.9257813 -1.769531,2.2851563 0,0.6796875 0.175781,1.24218749 0.527344,1.64062499 0.304687,0.3515625 0.75,0.5625 1.195312,0.5625 0.515625,0 0.890625,-0.22265625 1.265625,-0.75 v 0.2109375 c 0,0.5625 -0.07031,0.9140625 -0.246094,1.13671875 -0.175781,0.24609376 -0.515625,0.39843746 -0.925781,0.39843746 -0.292969,0 -0.574219,-0.082031 -0.75,-0.22265621 -0.152344,-0.12890625 -0.222656,-0.234375 -0.257812,-0.48046875 h -0.679688 c 0.07031,0.78515626 0.691406,1.25390626 1.664063,1.25390626 0.621093,0 1.160156,-0.1992188 1.429687,-0.5273438 0.316406,-0.38671871 0.445313,-0.91406246 0.445313,-1.88671871 V -4.1722578 Z m -1.207031,0.4921875 c 0.726562,0 1.148437,0.609375 1.148437,1.6523437 0,0.9960938 -0.433594,1.59375004 -1.136719,1.59375004 -0.726562,0 -1.160156,-0.60937504 -1.160156,-1.61718754 0,-1.0078125 0.445313,-1.6289062 1.148438,-1.6289062 z m 10.21875,0.609375 h -2.425782 v 0.65625 h 1.769532 v 0.1640625 c 0,1.03125 -0.761719,1.78124999 -1.816407,1.78124999 -0.597656,0 -1.125,-0.2109375 -1.464843,-0.58593749 -0.386719,-0.421875 -0.621094,-1.1132813 -0.621094,-1.828125 0,-1.4296875 0.820312,-2.3671875 2.039062,-2.3671875 0.890625,0 1.523438,0.4570312 1.6875,1.2070312 h 0.75 C 70.593344,-5.2269453 69.691,-5.9066328 68.366781,-5.9066328 c -0.714844,0 -1.289062,0.1875 -1.734375,0.5625 -0.667969,0.5507812 -1.054687,1.453125 -1.054687,2.4960937 0,1.7929688 1.089843,3.03515629 2.660156,3.03515629 0.785156,0 1.417969,-0.3046875 1.980469,-0.92578125 l 0.1875,0.7734375 h 0.46875 z m 2.018554,0.609375 h 1.828125 c 0.457032,0 0.808594,-0.140625 1.125,-0.4101563 0.351563,-0.328125 0.503907,-0.703125 0.503907,-1.2304687 0,-1.0898438 -0.65625,-1.7109375 -1.792969,-1.7109375 h -2.402344 v 5.8124999875 h 0.738281 z m 0,-0.65625 v -2.0390625 h 1.546875 c 0.714844,0 1.136719,0.3867187 1.136719,1.0195312 0,0.6328125 -0.421875,1.0195313 -1.136719,1.0195313 z m 8.244141,-2.6953125 v 4.078125 c 0,0.78515624 -0.5625,1.26562499 -1.488281,1.26562499 -0.433594,0 -0.785156,-0.10546875 -1.066406,-0.3046875 -0.28125,-0.22265625 -0.421875,-0.51562499 -0.421875,-0.96093749 v -4.078125 h -0.738282 v 4.078125 c 0,1.18359374 0.84375,1.92187499 2.226563,1.92187499 1.359375,0 2.238281,-0.75 2.238281,-1.92187499 v -4.078125 z m 4.854492,2.8007812 c -0.01172,-0.8203125 -0.550781,-1.2890625 -1.511719,-1.2890625 -0.972656,0 -1.605468,0.5039063 -1.605468,1.2773438 0,0.65625 0.339843,0.9726562 1.324218,1.2070312 l 0.621094,0.1523438 c 0.457031,0.1054687 0.644531,0.28125 0.644531,0.5859375 0,0.38671874 -0.386718,0.64453124 -0.972656,0.64453124 -0.363281,0 -0.65625,-0.10546875 -0.832031,-0.28125 -0.105469,-0.1171875 -0.152344,-0.234375 -0.1875,-0.52734374 h -0.703125 c 0.03516,0.96093749 0.574219,1.42968749 1.664062,1.42968749 1.054688,0 1.722657,-0.52734375 1.722657,-1.32421879 0,-0.6210937 -0.351563,-0.9726562 -1.183594,-1.171875 l -0.632813,-0.140625 C 83.800375,-2.5785078 83.566,-2.7542891 83.566,-3.0472578 c 0,-0.3867188 0.339844,-0.6328125 0.890625,-0.6328125 0.527344,0 0.820312,0.234375 0.832031,0.6679687 z m 0,0"
       style="fill:#009900;fill-opacity:1;fill-rule:nonzero;stroke:none"
       aria-label="#ofEntriesUsingGPUs"
       transform="matrix(0,-1.3333333,1.3333333,0,435.91067,141.42133)" />
    <path
       id="path22"
       d="M 3.5277109,-0.60977344 H 0.92614844 C 0.98474219,-1.0082109 1.2191172,-1.2660234 1.8167734,-1.6293047 l 0.703125,-0.375 c 0.6914063,-0.375 1.0429688,-0.8789062 1.0429688,-1.4882812 0,-0.4101563 -0.1640625,-0.796875 -0.4570313,-1.0664063 -0.2929687,-0.2578125 -0.65625,-0.3867187 -1.125,-0.3867187 -0.6328125,0 -1.08984371,0.2226562 -1.37109371,0.6445312 -0.17578125,0.2578125 -0.24609375,0.5742188 -0.2578125,1.078125 h 0.609375 c 0.0234375,-0.3398437 0.0585937,-0.5390625 0.15234371,-0.703125 0.1523438,-0.3046875 0.4804688,-0.4804687 0.84375,-0.4804687 0.5625,0 0.9726563,0.3984375 0.9726563,0.9257812 0,0.3867188 -0.2226563,0.7265625 -0.6679688,0.9726563 L 1.6292734,-2.1449297 C 0.59802344,-1.5589922 0.29333594,-1.0902422 0.23474219,-3.984375e-4 H 3.5277109 Z M 5.7982188,-4.9457109 c -0.46875,0 -0.8789063,0.1992187 -1.1367188,0.5507812 -0.328125,0.421875 -0.4804687,1.0898438 -0.4804687,2.0039063 0,1.66406246 0.5507812,2.55468746 1.6171875,2.55468746 1.0429687,0 1.6171875,-0.890625 1.6171875,-2.51953126 0,-0.9609375 -0.1523438,-1.59375 -0.4804688,-2.0390625 C 6.677125,-4.7464922 6.25525,-4.9457109 5.7982188,-4.9457109 Z m 0,0.5507812 c 0.65625,0 0.984375,0.6679688 0.984375,1.9921875 0,1.3945313 -0.3164063,2.05078126 -1.0078125,2.05078126 -0.6445313,0 -0.9726563,-0.67968746 -0.9726563,-2.02734376 0,-1.359375 0.328125,-2.015625 0.9960938,-2.015625 z m 3.7617187,0.8789063 V -3.984375e-4 H 10.169313 V -4.9457109 H 9.770875 c -0.2109375,0.7617187 -0.3515625,0.8671875 -1.3007812,0.984375 v 0.4453125 z m 3.9931645,-1.4296875 c -0.46875,0 -0.878907,0.1992187 -1.136719,0.5507812 -0.328125,0.421875 -0.480469,1.0898438 -0.480469,2.0039063 0,1.66406246 0.550781,2.55468746 1.617188,2.55468746 1.042968,0 1.617187,-0.890625 1.617187,-2.51953126 0,-0.9609375 -0.152344,-1.59375 -0.480469,-2.0390625 -0.257812,-0.3515625 -0.679687,-0.5507812 -1.136718,-0.5507812 z m 0,0.5507812 c 0.65625,0 0.984375,0.6679688 0.984375,1.9921875 0,1.3945313 -0.316407,2.05078126 -1.007813,2.05078126 -0.644531,0 -0.972656,-0.67968746 -0.972656,-2.02734376 0,-1.359375 0.328125,-2.015625 0.996094,-2.015625 z m 0,0"
       style="fill:#000000;fill-opacity:1;fill-rule:nonzero;stroke:none"
       aria-label="2010"
       transform="matrix(1.3333333,0,0,1.3333333,73.534667,182.356)" />
    <path
       id="path23"
       d="M 3.5282578,-0.60977344 H 0.92669531 C 0.98528906,-1.0082109 1.2196641,-1.2660234 1.8173203,-1.6293047 l 0.703125,-0.375 c 0.6914063,-0.375 1.0429688,-0.8789062 1.0429688,-1.4882812 0,-0.4101563 -0.1640625,-0.796875 -0.4570313,-1.0664063 -0.2929687,-0.2578125 -0.65625,-0.3867187 -1.125,-0.3867187 -0.6328125,0 -1.08984374,0.2226562 -1.37109374,0.6445312 -0.17578125,0.2578125 -0.24609375,0.5742188 -0.2578125,1.078125 h 0.609375 c 0.0234375,-0.3398437 0.0585937,-0.5390625 0.15234374,-0.703125 0.1523438,-0.3046875 0.4804688,-0.4804687 0.84375,-0.4804687 0.5625,0 0.9726563,0.3984375 0.9726563,0.9257812 0,0.3867188 -0.2226563,0.7265625 -0.6679688,0.9726563 L 1.6298203,-2.1449297 C 0.59857031,-1.5589922 0.29388281,-1.0902422 0.23528906,-3.984375e-4 H 3.5282578 Z M 5.7987656,-4.9457109 c -0.46875,0 -0.8789062,0.1992187 -1.1367187,0.5507812 -0.328125,0.421875 -0.4804688,1.0898438 -0.4804688,2.0039063 0,1.66406246 0.5507813,2.55468746 1.6171875,2.55468746 1.0429688,0 1.6171875,-0.890625 1.6171875,-2.51953126 0,-0.9609375 -0.1523437,-1.59375 -0.4804687,-2.0390625 C 6.6776719,-4.7464922 6.2557969,-4.9457109 5.7987656,-4.9457109 Z m 0,0.5507812 c 0.65625,0 0.984375,0.6679688 0.984375,1.9921875 0,1.3945313 -0.3164062,2.05078126 -1.0078125,2.05078126 -0.6445312,0 -0.9726562,-0.67968746 -0.9726562,-2.02734376 0,-1.359375 0.328125,-2.015625 0.9960937,-2.015625 z m 3.7617188,0.8789063 V -3.984375e-4 H 10.169859 V -4.9457109 H 9.7714219 c -0.2109375,0.7617187 -0.3515625,0.8671875 -1.3007813,0.984375 v 0.4453125 z m 3.8759766,0 v 3.5156249625 h 0.609375 V -4.9457109 h -0.398438 c -0.210937,0.7617187 -0.351562,0.8671875 -1.300781,0.984375 v 0.4453125 z m 0,0"
       style="fill:#000000;fill-opacity:1;fill-rule:nonzero;stroke:none"
       aria-label="2011"
       transform="matrix(1.3333333,0,0,1.3333333,140.948,182.356)" />
    <path
       id="path24"
       d="M 3.5278047,-0.60977344 H 0.92624219 C 0.98483594,-1.0082109 1.2192109,-1.2660234 1.8168672,-1.6293047 l 0.703125,-0.375 c 0.6914062,-0.375 1.0429687,-0.8789062 1.0429687,-1.4882812 0,-0.4101563 -0.1640625,-0.796875 -0.4570312,-1.0664063 -0.2929688,-0.2578125 -0.65625,-0.3867187 -1.125,-0.3867187 -0.6328125,0 -1.08984376,0.2226562 -1.37109376,0.6445312 -0.17578125,0.2578125 -0.24609375,0.5742188 -0.2578125,1.078125 h 0.609375 c 0.0234375,-0.3398437 0.0585938,-0.5390625 0.15234376,-0.703125 0.1523437,-0.3046875 0.4804687,-0.4804687 0.84375,-0.4804687 0.5625,0 0.9726562,0.3984375 0.9726562,0.9257812 0,0.3867188 -0.2226562,0.7265625 -0.6679687,0.9726563 L 1.6293672,-2.1449297 C 0.59811719,-1.5589922 0.29342969,-1.0902422 0.23483594,-3.984375e-4 H 3.5278047 Z M 5.7983125,-4.9457109 c -0.46875,0 -0.8789062,0.1992187 -1.1367187,0.5507812 -0.328125,0.421875 -0.4804688,1.0898438 -0.4804688,2.0039063 0,1.66406246 0.5507813,2.55468746 1.6171875,2.55468746 1.0429688,0 1.6171875,-0.890625 1.6171875,-2.51953126 0,-0.9609375 -0.1523437,-1.59375 -0.4804687,-2.0390625 C 6.6772188,-4.7464922 6.2553438,-4.9457109 5.7983125,-4.9457109 Z m 0,0.5507812 c 0.65625,0 0.984375,0.6679688 0.984375,1.9921875 0,1.3945313 -0.3164062,2.05078126 -1.0078125,2.05078126 -0.6445312,0 -0.9726562,-0.67968746 -0.9726562,-2.02734376 0,-1.359375 0.328125,-2.015625 0.9960937,-2.015625 z m 3.7617188,0.8789063 V -3.984375e-4 H 10.169406 V -4.9457109 H 9.7709688 c -0.2109375,0.7617187 -0.3515625,0.8671875 -1.3007813,0.984375 v 0.4453125 z m 5.5986327,2.90624996 h -2.601562 c 0.05859,-0.39843746 0.292968,-0.65624996 0.890625,-1.01953126 l 0.703125,-0.375 c 0.691406,-0.375 1.042968,-0.8789062 1.042968,-1.4882812 0,-0.4101563 -0.164062,-0.796875 -0.457031,-1.0664063 -0.292969,-0.2578125 -0.65625,-0.3867187 -1.125,-0.3867187 -0.632812,0 -1.089844,0.2226562 -1.371094,0.6445312 -0.175781,0.2578125 -0.246093,0.5742188 -0.257812,1.078125 h 0.609375 c 0.02344,-0.3398437 0.05859,-0.5390625 0.152344,-0.703125 0.152343,-0.3046875 0.480468,-0.4804687 0.84375,-0.4804687 0.5625,0 0.972656,0.3984375 0.972656,0.9257812 0,0.3867188 -0.222656,0.7265625 -0.667969,0.9726563 l -0.632812,0.3632812 c -1.03125,0.5859375 -1.335938,1.0546875 -1.394532,2.1445312625 h 3.292969 z m 0,0"
       style="fill:#000000;fill-opacity:1;fill-rule:nonzero;stroke:none"
       aria-label="2012"
       transform="matrix(1.3333333,0,0,1.3333333,208.36267,182.356)" />
    <path
       id="path25"
       d="M 3.5283516,-0.60977344 H 0.92678906 C 0.98538281,-1.0082109 1.2197578,-1.2660234 1.8174141,-1.6293047 l 0.703125,-0.375 c 0.6914062,-0.375 1.0429687,-0.8789062 1.0429687,-1.4882812 0,-0.4101563 -0.1640625,-0.796875 -0.4570312,-1.0664063 -0.2929688,-0.2578125 -0.65625,-0.3867187 -1.125,-0.3867187 -0.6328125,0 -1.08984379,0.2226562 -1.37109379,0.6445312 -0.17578125,0.2578125 -0.24609375,0.5742188 -0.2578125,1.078125 h 0.609375 c 0.0234375,-0.3398437 0.0585938,-0.5390625 0.15234379,-0.703125 0.1523437,-0.3046875 0.4804687,-0.4804687 0.84375,-0.4804687 0.5625,0 0.9726562,0.3984375 0.9726562,0.9257812 0,0.3867188 -0.2226562,0.7265625 -0.6679687,0.9726563 L 1.6299141,-2.1449297 C 0.59866406,-1.5589922 0.29397656,-1.0902422 0.23538281,-3.984375e-4 H 3.5283516 Z M 5.7988594,-4.9457109 c -0.46875,0 -0.8789063,0.1992187 -1.1367188,0.5507812 -0.328125,0.421875 -0.4804687,1.0898438 -0.4804687,2.0039063 0,1.66406246 0.5507812,2.55468746 1.6171875,2.55468746 1.0429687,0 1.6171875,-0.890625 1.6171875,-2.51953126 0,-0.9609375 -0.1523438,-1.59375 -0.4804688,-2.0390625 C 6.6777656,-4.7464922 6.2558906,-4.9457109 5.7988594,-4.9457109 Z m 0,0.5507812 c 0.65625,0 0.984375,0.6679688 0.984375,1.9921875 0,1.3945313 -0.3164063,2.05078126 -1.0078125,2.05078126 -0.6445313,0 -0.9726563,-0.67968746 -0.9726563,-2.02734376 0,-1.359375 0.328125,-2.015625 0.9960938,-2.015625 z m 3.7617187,0.8789063 V -3.984375e-4 H 10.169953 V -4.9457109 H 9.7715156 c -0.2109375,0.7617187 -0.3515625,0.8671875 -1.3007812,0.984375 v 0.4453125 z m 3.6064449,1.2539062 h 0.08203 l 0.257812,-0.011719 c 0.679688,0 1.03125,0.3046875 1.03125,0.9023437 0,0.62109376 -0.386719,0.98437501 -1.03125,0.98437501 -0.667969,0 -0.996094,-0.328125 -1.042969,-1.05468751 h -0.609375 c 0.02344,0.3984375 0.09375,0.65625001 0.210938,0.87890626 0.257812,0.48046875 0.75,0.7265625 1.417969,0.7265625 1.019531,0 1.675781,-0.609375 1.675781,-1.54687496 0,-0.6210938 -0.246094,-0.9726563 -0.832031,-1.171875 0.457031,-0.1875 0.691406,-0.5390625 0.691406,-1.03125 0,-0.84375 -0.574219,-1.359375 -1.511719,-1.359375 -0.996094,0 -1.523437,0.5507812 -1.546875,1.59375 h 0.609375 c 0.01172,-0.2929688 0.03516,-0.4570313 0.117188,-0.6210938 0.140625,-0.2695312 0.445312,-0.4335937 0.832031,-0.4335937 0.539062,0 0.867187,0.3164062 0.867187,0.84375 0,0.3515625 -0.128906,0.5625 -0.398437,0.6679687 -0.164063,0.070312 -0.386719,0.09375 -0.820313,0.1054688 z m 0,0"
       style="fill:#000000;fill-opacity:1;fill-rule:nonzero;stroke:none"
       aria-label="2013"
       transform="matrix(1.3333333,0,0,1.3333333,275.776,182.356)" />
    <path
       id="path26"
       d="M 3.5278984,-0.60977344 H 0.92633594 C 0.98492969,-1.0082109 1.2193047,-1.2660234 1.8169609,-1.6293047 l 0.703125,-0.375 c 0.6914063,-0.375 1.0429688,-0.8789062 1.0429688,-1.4882812 0,-0.4101563 -0.1640625,-0.796875 -0.4570313,-1.0664063 -0.2929687,-0.2578125 -0.65625,-0.3867187 -1.125,-0.3867187 -0.6328125,0 -1.08984371,0.2226562 -1.37109371,0.6445312 -0.17578125,0.2578125 -0.24609375,0.5742188 -0.2578125,1.078125 h 0.609375 c 0.0234375,-0.3398437 0.0585937,-0.5390625 0.15234371,-0.703125 0.1523438,-0.3046875 0.4804688,-0.4804687 0.84375,-0.4804687 0.5625,0 0.9726563,0.3984375 0.9726563,0.9257812 0,0.3867188 -0.2226563,0.7265625 -0.6679688,0.9726563 L 1.6294609,-2.1449297 C 0.59821094,-1.5589922 0.29352344,-1.0902422 0.23492969,-3.984375e-4 H 3.5278984 Z M 5.7984063,-4.9457109 c -0.46875,0 -0.8789063,0.1992187 -1.1367188,0.5507812 -0.328125,0.421875 -0.4804687,1.0898438 -0.4804687,2.0039063 0,1.66406246 0.5507812,2.55468746 1.6171875,2.55468746 1.0429687,0 1.6171875,-0.890625 1.6171875,-2.51953126 0,-0.9609375 -0.1523438,-1.59375 -0.4804688,-2.0390625 C 6.6773125,-4.7464922 6.2554375,-4.9457109 5.7984063,-4.9457109 Z m 0,0.5507812 c 0.65625,0 0.984375,0.6679688 0.984375,1.9921875 0,1.3945313 -0.3164063,2.05078126 -1.0078125,2.05078126 -0.6445313,0 -0.9726563,-0.67968746 -0.9726563,-2.02734376 0,-1.359375 0.328125,-2.015625 0.9960938,-2.015625 z M 9.560125,-3.5160234 V -3.984375e-4 H 10.1695 V -4.9457109 H 9.7710625 C 9.560125,-4.1839922 9.4195,-4.0785234 8.4702813,-3.9613359 v 0.4453125 z m 4.356445,2.3320312 v 1.1835937625 h 0.609375 V -1.1839922 h 0.726563 v -0.5507812 h -0.726563 v -3.2109375 h -0.457031 l -2.238281,3.1171875 v 0.6445312 z m 0,-0.5507812 h -1.558593 l 1.558593,-2.1679688 z m 0,0"
       style="fill:#000000;fill-opacity:1;fill-rule:nonzero;stroke:none"
       aria-label="2014"
       transform="matrix(1.3333333,0,0,1.3333333,343.19067,182.356)" />
    <path
       id="path27"
       d="m 1.9229531,-4.9448906 c -0.46875,0 -0.8789062,0.1992187 -1.13671873,0.5507812 -0.328125,0.421875 -0.48046875,1.0898438 -0.48046875,2.0039063 0,1.66406248 0.55078125,2.55468748 1.61718748,2.55468748 1.0429688,0 1.6171875,-0.890625 1.6171875,-2.51953128 0,-0.9609375 -0.1523437,-1.59375 -0.4804687,-2.0390625 C 2.8018594,-4.7456719 2.3799844,-4.9448906 1.9229531,-4.9448906 Z m 0,0.5507812 c 0.65625,0 0.984375,0.6679688 0.984375,1.9921875 0,1.3945313 -0.3164062,2.05078128 -1.0078125,2.05078128 -0.6445312,0 -0.97265623,-0.67968748 -0.97265623,-2.02734378 0,-1.359375 0.32812503,-2.015625 0.99609373,-2.015625 z m 3.2900391,3.66796878 H 4.4864297 V 4.21875e-4 H 5.2129922 Z M 7.7383828,-4.9448906 c -0.46875,0 -0.8789062,0.1992187 -1.1367187,0.5507812 -0.328125,0.421875 -0.4804688,1.0898438 -0.4804688,2.0039063 0,1.66406248 0.5507813,2.55468748 1.6171875,2.55468748 1.0429688,0 1.6171875,-0.890625 1.6171875,-2.51953128 0,-0.9609375 -0.1523437,-1.59375 -0.4804687,-2.0390625 C 8.6172891,-4.7456719 8.1954141,-4.9448906 7.7383828,-4.9448906 Z m 0,0.5507812 c 0.65625,0 0.984375,0.6679688 0.984375,1.9921875 0,1.3945313 -0.3164062,2.05078128 -1.0078125,2.05078128 -0.6445312,0 -0.9726562,-0.67968748 -0.9726562,-2.02734378 0,-1.359375 0.328125,-2.015625 0.9960937,-2.015625 z m 0,0"
       style="fill:#000000;fill-opacity:1;fill-rule:nonzero;stroke:none"
       aria-label="0.0"
       transform="matrix(1.3333333,0,0,1.3333333,28.772,170.476)" />
    <path
       id="path28"
       d="m 1.8048594,-3.5163047 v 3.5156250125 h 0.609375 V -4.9459922 H 2.0157969 c -0.2109375,0.7617188 -0.3515625,0.8671875 -1.30078128,0.984375 v 0.4453125 z m 3.993164,-1.4296875 c -0.46875,0 -0.8789062,0.1992188 -1.1367187,0.5507813 -0.328125,0.421875 -0.4804688,1.0898437 -0.4804688,2.0039062 0,1.66406251 0.5507813,2.55468751 1.6171875,2.55468751 1.0429688,0 1.6171875,-0.890625 1.6171875,-2.51953121 0,-0.9609375 -0.1523437,-1.59375 -0.4804687,-2.0390625 C 6.6769297,-4.7467734 6.2550547,-4.9459922 5.7980234,-4.9459922 Z m 0,0.5507813 c 0.65625,0 0.984375,0.6679687 0.984375,1.9921875 0,1.3945312 -0.3164062,2.05078121 -1.0078125,2.05078121 -0.6445312,0 -0.9726562,-0.67968751 -0.9726562,-2.02734371 0,-1.359375 0.328125,-2.015625 0.9960937,-2.015625 z m 3.2929688,3.66796871 H 8.3644297 V -6.796875e-4 H 9.0909922 Z M 11.616383,-4.9459922 c -0.46875,0 -0.878906,0.1992188 -1.136719,0.5507813 -0.328125,0.421875 -0.4804687,1.0898437 -0.4804687,2.0039062 0,1.66406251 0.5507817,2.55468751 1.6171877,2.55468751 1.042969,0 1.617187,-0.890625 1.617187,-2.51953121 0,-0.9609375 -0.152343,-1.59375 -0.480468,-2.0390625 -0.257813,-0.3515625 -0.679688,-0.5507813 -1.136719,-0.5507813 z m 0,0.5507813 c 0.65625,0 0.984375,0.6679687 0.984375,1.9921875 0,1.3945312 -0.316406,2.05078121 -1.007813,2.05078121 -0.644531,0 -0.972656,-0.67968751 -0.972656,-2.02734371 0,-1.359375 0.328125,-2.015625 0.996094,-2.015625 z m 0,0"
       style="fill:#000000;fill-opacity:1;fill-rule:nonzero;stroke:none"
       aria-label="10.0"
       transform="matrix(1.3333333,0,0,1.3333333,23.601333,119.872)" />
    <path
       id="path29"
       d="M 3.5275156,-0.60822656 H 0.92595312 C 0.98454687,-1.0066641 1.2189219,-1.2644766 1.8165781,-1.6277578 l 0.703125,-0.375 c 0.6914063,-0.375 1.0429688,-0.8789063 1.0429688,-1.4882813 0,-0.4101562 -0.1640625,-0.796875 -0.4570313,-1.0664062 -0.2929687,-0.2578125 -0.65625,-0.3867188 -1.125,-0.3867188 -0.6328125,0 -1.08984373,0.2226563 -1.37109373,0.6445313 -0.17578125,0.2578125 -0.24609375,0.5742187 -0.2578125,1.078125 h 0.609375 c 0.0234375,-0.3398438 0.0585937,-0.5390625 0.15234373,-0.703125 0.1523438,-0.3046875 0.4804688,-0.4804688 0.84375,-0.4804688 0.5625,0 0.9726563,0.3984375 0.9726563,0.9257813 0,0.3867187 -0.2226563,0.7265625 -0.6679688,0.9726562 L 1.6290781,-2.1433828 C 0.59782812,-1.5574453 0.29314062,-1.0886953 0.23454687,0.00114844 H 3.5275156 Z M 5.7980234,-4.9441641 c -0.46875,0 -0.8789062,0.1992188 -1.1367187,0.5507813 -0.328125,0.421875 -0.4804688,1.0898437 -0.4804688,2.0039062 0,1.66406254 0.5507813,2.55468754 1.6171875,2.55468754 1.0429688,0 1.6171875,-0.890625 1.6171875,-2.51953124 0,-0.9609375 -0.1523437,-1.59375 -0.4804687,-2.0390625 C 6.6769297,-4.7449453 6.2550547,-4.9441641 5.7980234,-4.9441641 Z m 0,0.5507813 c 0.65625,0 0.984375,0.6679687 0.984375,1.9921875 0,1.3945312 -0.3164062,2.05078124 -1.0078125,2.05078124 -0.6445312,0 -0.9726562,-0.67968754 -0.9726562,-2.02734374 0,-1.359375 0.328125,-2.015625 0.9960937,-2.015625 z m 3.2929688,3.66796874 H 8.3644297 v 0.7265625 H 9.0909922 Z M 11.616383,-4.9441641 c -0.46875,0 -0.878906,0.1992188 -1.136719,0.5507813 -0.328125,0.421875 -0.4804687,1.0898437 -0.4804687,2.0039062 0,1.66406254 0.5507817,2.55468754 1.6171877,2.55468754 1.042969,0 1.617187,-0.890625 1.617187,-2.51953124 0,-0.9609375 -0.152343,-1.59375 -0.480468,-2.0390625 -0.257813,-0.3515625 -0.679688,-0.5507813 -1.136719,-0.5507813 z m 0,0.5507813 c 0.65625,0 0.984375,0.6679687 0.984375,1.9921875 0,1.3945312 -0.316406,2.05078124 -1.007813,2.05078124 -0.644531,0 -0.972656,-0.67968754 -0.972656,-2.02734374 0,-1.359375 0.328125,-2.015625 0.996094,-2.015625 z m 0,0"
       style="fill:#000000;fill-opacity:1;fill-rule:nonzero;stroke:none"
       aria-label="20.0"
       transform="matrix(1.3333333,0,0,1.3333333,23.601333,69.268)" />
    <path
       id="path30"
       d="m 1.5353281,-2.2616719 h 0.082031 l 0.2578125,-0.011719 c 0.6796875,0 1.03125,0.3046875 1.03125,0.9023437 0,0.62109378 -0.3867188,0.98437503 -1.03125,0.98437503 -0.6679688,0 -0.99609378,-0.328125 -1.04296878,-1.05468753 h -0.609375 c 0.0234375,0.3984375 0.09375,0.65625003 0.2109375,0.87890628 0.2578125,0.48046875 0.74999998,0.7265625 1.41796878,0.7265625 1.0195312,0 1.6757812,-0.609375 1.6757812,-1.54687498 0,-0.6210938 -0.2460937,-0.9726563 -0.8320312,-1.171875 0.4570312,-0.1875 0.6914062,-0.5390625 0.6914062,-1.03125 0,-0.84375 -0.5742187,-1.359375 -1.5117187,-1.359375 -0.99609378,0 -1.52343753,0.5507812 -1.54687503,1.59375 h 0.609375 c 0.0117188,-0.2929688 0.0351563,-0.4570313 0.11718753,-0.6210938 0.140625,-0.2695312 0.4453125,-0.4335937 0.8320312,-0.4335937 0.5390625,0 0.8671875,0.3164062 0.8671875,0.84375 0,0.3515625 -0.1289062,0.5625 -0.3984375,0.6679687 -0.1640625,0.070312 -0.3867187,0.09375 -0.8203125,0.1054688 z m 4.2626953,-2.6835937 c -0.46875,0 -0.8789062,0.1992187 -1.1367187,0.5507812 -0.328125,0.421875 -0.4804688,1.0898438 -0.4804688,2.0039063 0,1.66406248 0.5507813,2.55468748 1.6171875,2.55468748 1.0429688,0 1.6171875,-0.890625 1.6171875,-2.51953128 0,-0.9609375 -0.1523437,-1.59375 -0.4804687,-2.0390625 C 6.6769297,-4.7460469 6.2550547,-4.9452656 5.7980234,-4.9452656 Z m 0,0.5507812 c 0.65625,0 0.984375,0.6679688 0.984375,1.9921875 0,1.3945313 -0.3164062,2.05078128 -1.0078125,2.05078128 -0.6445312,0 -0.9726562,-0.67968748 -0.9726562,-2.02734378 0,-1.359375 0.328125,-2.015625 0.9960937,-2.015625 z m 3.2929688,3.66796878 H 8.3644297 V 4.6875e-5 H 9.0909922 Z M 11.616383,-4.9452656 c -0.46875,0 -0.878906,0.1992187 -1.136719,0.5507812 -0.328125,0.421875 -0.4804687,1.0898438 -0.4804687,2.0039063 0,1.66406248 0.5507817,2.55468748 1.6171877,2.55468748 1.042969,0 1.617187,-0.890625 1.617187,-2.51953128 0,-0.9609375 -0.152343,-1.59375 -0.480468,-2.0390625 -0.257813,-0.3515625 -0.679688,-0.5507812 -1.136719,-0.5507812 z m 0,0.5507812 c 0.65625,0 0.984375,0.6679688 0.984375,1.9921875 0,1.3945313 -0.316406,2.05078128 -1.007813,2.05078128 -0.644531,0 -0.972656,-0.67968748 -0.972656,-2.02734378 0,-1.359375 0.328125,-2.015625 0.996094,-2.015625 z m 0,0"
       style="fill:#000000;fill-opacity:1;fill-rule:nonzero;stroke:none"
       aria-label="30.0"
       transform="matrix(1.3333333,0,0,1.3333333,23.601333,18.664)" />
    <path
       id="path31"
       d="M 25.28052,107.02792 75.84157,97.91916 126.40262,62.24318 176.96367,44.4052 227.52472,27.70581"
       style="fill:none;stroke:#000080;stroke-width:1.49442;stroke-linecap:butt;stroke-linejoin:miter;stroke-miterlimit:10;stroke-dasharray:none;stroke-opacity:1"
       transform="matrix(1.3333333,0,0,-1.3333333,50.168,167.25867)" />
    <path
       id="path32"
       d="m 27.27307,107.02792 c 0,1.10048 -0.89209,1.99256 -1.99255,1.99256 -1.10047,0 -1.99256,-0.89208 -1.99256,-1.99256 0,-1.10046 0.89209,-1.99255 1.99256,-1.99255 1.10046,0 1.99255,0.89209 1.99255,1.99255 z"
       style="fill:#ff0000;fill-opacity:1;fill-rule:nonzero;stroke:#ff0000;stroke-width:1.49442;stroke-linecap:butt;stroke-linejoin:miter;stroke-miterlimit:10;stroke-dasharray:none;stroke-opacity:1"
       transform="matrix(1.3333333,0,0,-1.3333333,50.168,167.25867)" />
    <path
       id="path33"
       d="m 77.83412,97.91916 c 0,1.10046 -0.89209,1.99255 -1.99255,1.99255 -1.10047,0 -1.99256,-0.89209 -1.99256,-1.99255 0,-1.10048 0.89209,-1.99256 1.99256,-1.99256 1.10046,0 1.99255,0.89208 1.99255,1.99256 z"
       style="fill:#ff0000;fill-opacity:1;fill-rule:nonzero;stroke:#ff0000;stroke-width:1.49442;stroke-linecap:butt;stroke-linejoin:miter;stroke-miterlimit:10;stroke-dasharray:none;stroke-opacity:1"
       transform="matrix(1.3333333,0,0,-1.3333333,50.168,167.25867)" />
    <path
       id="path34"
       d="m 128.39517,62.24318 c 0,1.10048 -0.89209,1.99255 -1.99255,1.99255 -1.10047,0 -1.99256,-0.89207 -1.99256,-1.99255 0,-1.10046 0.89209,-1.99255 1.99256,-1.99255 1.10046,0 1.99255,0.89209 1.99255,1.99255 z"
       style="fill:#ff0000;fill-opacity:1;fill-rule:nonzero;stroke:#ff0000;stroke-width:1.49442;stroke-linecap:butt;stroke-linejoin:miter;stroke-miterlimit:10;stroke-dasharray:none;stroke-opacity:1"
       transform="matrix(1.3333333,0,0,-1.3333333,50.168,167.25867)" />
    <path
       id="path35"
       d="m 178.95622,44.4052 c 0,1.10048 -0.89209,1.99255 -1.99255,1.99255 -1.10047,0 -1.99255,-0.89207 -1.99255,-1.99255 0,-1.10047 0.89208,-1.99256 1.99255,-1.99256 1.10046,0 1.99255,0.89209 1.99255,1.99256 z"
       style="fill:#ff0000;fill-opacity:1;fill-rule:nonzero;stroke:#ff0000;stroke-width:1.49442;stroke-linecap:butt;stroke-linejoin:miter;stroke-miterlimit:10;stroke-dasharray:none;stroke-opacity:1"
       transform="matrix(1.3333333,0,0,-1.3333333,50.168,167.25867)" />
    <path
       id="path36"
       d="m 229.51727,27.70581 c 0,1.10046 -0.89209,1.99255 -1.99255,1.99255 -1.10046,0 -1.99255,-0.89209 -1.99255,-1.99255 0,-1.10046 0.89209,-1.99255 1.99255,-1.99255 1.10046,0 1.99255,0.89209 1.99255,1.99255 z"
       style="fill:#ff0000;fill-opacity:1;fill-rule:nonzero;stroke:#ff0000;stroke-width:1.49442;stroke-linecap:butt;stroke-linejoin:miter;stroke-miterlimit:10;stroke-dasharray:none;stroke-opacity:1"
       transform="matrix(1.3333333,0,0,-1.3333333,50.168,167.25867)" />
    <path
       id="path37"
       d="M 3.0810234,-2.2737266 5.2607109,-5.8127891 H 4.3818047 L 2.7294609,-2.9768516 1.0185234,-5.8127891 H 0.10446094 l 2.23828126,3.5390625 v 2.2734375375 h 0.7382812 z m 5.2089844,0.4101563 c 0,-0.6445313 -0.046875,-1.0195313 -0.1640625,-1.3359375 -0.28125,-0.6796875 -0.9140625,-1.1015625 -1.6992187,-1.1015625 -1.1601563,0 -1.9101563,0.9023437 -1.9101563,2.2734375 0,1.37109374 0.7265625,2.21484374 1.8984375,2.21484374 0.9609375,0 1.6171875,-0.55078125 1.78125,-1.45312504 H 7.5282891 c -0.1757813,0.55078129 -0.5507813,0.83203129 -1.0898438,0.83203129 -0.421875,0 -0.7851562,-0.1875 -1.0078125,-0.5390625 C 5.2782891,-1.2073203 5.2196953,-1.4534141 5.2079766,-1.8635703 Z M 5.2314141,-2.4026328 c 0.046875,-0.7734375 0.5273437,-1.2773438 1.1953125,-1.2773438 0.6445312,0 1.1484375,0.5390625 1.1484375,1.2304688 0,0.011719 0,0.023437 0,0.046875 z m 7.6669919,2.01562499 c -0.07031,0.0117188 -0.105469,0.0117188 -0.140625,0.0117188 -0.234375,0 -0.363281,-0.1171875 -0.363281,-0.328125 V -3.1526328 c 0,-0.75 -0.539063,-1.1484375 -1.570313,-1.1484375 -0.609375,0 -1.1132808,0.1757812 -1.382812,0.4921875 -0.1992188,0.2109375 -0.2695313,0.4570312 -0.2929688,0.8671875 H 9.816375 c 0.058594,-0.5039063 0.363281,-0.7382813 0.984375,-0.7382813 0.597656,0 0.9375,0.2226563 0.9375,0.6210938 v 0.1757812 c 0,0.28125 -0.175781,0.3984375 -0.703125,0.4570313 -0.9375,0.1171875 -1.078125,0.1523437 -1.3359375,0.2578125 -0.4804688,0.1992187 -0.7265625,0.5742187 -0.7265625,1.1132812 0,0.76171879 0.515625,1.24218754 1.371094,1.24218754 0.515625,0 0.9375,-0.1875000025 1.417968,-0.62109375 0.04687,0.421875 0.246094,0.62109375 0.679688,0.62109375 0.140625,0 0.234375,-0.0234375 0.457031,-0.0703125 z M 11.73825,-1.3127891 c 0,0.2226563 -0.07031,0.35156254 -0.269531,0.53906254 -0.269532,0.24609375 -0.597657,0.375 -0.984375,0.375 -0.5156253,0 -0.8203128,-0.24609375 -0.8203128,-0.66796874 0,-0.4453125 0.2929688,-0.6679688 0.9960938,-0.7617188 0.703125,-0.1054687 0.84375,-0.1289062 1.078125,-0.234375 z m 1.875,-2.859375 v 4.1718750375 h 0.667969 V -2.1682578 c 0,-0.5976563 0.152343,-0.984375 0.46875,-1.21875 0.210937,-0.1523438 0.410156,-0.1992188 0.867187,-0.2109375 v -0.6679688 c -0.105469,-0.023437 -0.164062,-0.035156 -0.246094,-0.035156 -0.433593,0 -0.761718,0.2578125 -1.148437,0.8789062 v -0.75 z m 0,0"
       style="fill:#000000;fill-opacity:1;fill-rule:nonzero;stroke:none"
       aria-label="Year"
       transform="matrix(1.3333333,0,0,1.3333333,208.224,199.23867)" />
    <path
       id="path38"
       d="m 2.8232969,-5.1566094 h 1.8984375 v -0.65625 H 0.16314062 v 0.65625 H 2.0732969 v 5.156250025 h 0.75 z m 3.2666015,0.8554688 c -1.171875,0 -1.8867187,0.84375 -1.8867187,2.25 0,1.39453122 0.703125,2.23828122 1.8984375,2.23828122 1.171875,0 1.8867187,-0.84375 1.8867187,-2.21484372 0,-1.4414063 -0.6914062,-2.2734375 -1.8984375,-2.2734375 z m 0.011719,0.6210937 c 0.75,0 1.1953125,0.609375 1.1953125,1.6523438 0,0.9726562 -0.46875,1.59374997 -1.1953125,1.59374997 -0.75,0 -1.1953125,-0.60937497 -1.1953125,-1.61718747 0,-1.0078125 0.4453125,-1.6289063 1.1953125,-1.6289063 z m 2.6835937,5.4140625 h 0.6679688 v -2.16796873 c 0.3515625,0.421875 0.7382811,0.62109375 1.2773431,0.62109375 1.078125,0 1.792969,-0.8671875 1.792969,-2.20312502 0,-1.40625 -0.691406,-2.2851562 -1.792969,-2.2851562 -0.574218,0 -1.0195306,0.2578125 -1.3359369,0.75 v -0.6210938 h -0.609375 z m 1.8281249,-5.4023437 c 0.738281,0 1.207031,0.6445312 1.207031,1.640625 0,0.9492187 -0.480469,1.59374997 -1.207031,1.59374997 -0.7031249,0 -1.1601561,-0.64453127 -1.1601561,-1.61718747 0,-0.984375 0.4570312,-1.6171875 1.1601561,-1.6171875 z m 4.432617,1.1835937 h -1.898437 v 0.5742188 h 1.898437 z m 4.189453,-3.1640625 h -2.917969 l -0.421875,3.0703125 h 0.644532 c 0.328125,-0.3867187 0.597656,-0.5273437 1.03125,-0.5273437 0.761718,0 1.242187,0.5273437 1.242187,1.359375 0,0.80859372 -0.46875,1.31249997 -1.242187,1.31249997 -0.609375,0 -0.984375,-0.31640625 -1.148438,-0.94921877 h -0.703125 c 0.09375,0.45703127 0.175781,0.67968752 0.339844,0.89062502 0.316406,0.43359375 0.890625,0.6796875 1.535156,0.6796875 1.136719,0 1.933594,-0.83203125 1.933594,-2.02734372 0,-1.1132813 -0.738281,-1.8867188 -1.828125,-1.8867188 -0.398438,0 -0.714844,0.1054688 -1.042969,0.3515625 l 0.222656,-1.5820312 h 2.355469 z m 4.294922,3 h 3.164063 v -0.65625 h -3.164063 v -1.8515625 h 3.292969 v -0.65625 h -4.03125 v 5.812500025 h 4.171875 V -0.65660938 h -3.433594 z m 4.415039,-1.5234375 v 4.171875025 h 0.667969 V -2.1683281 c 0,-0.5976563 0.152344,-0.984375 0.46875,-1.21875 0.210937,-0.1523438 0.410156,-0.1992188 0.867187,-0.2109375 v -0.6679688 c -0.105468,-0.023437 -0.164062,-0.035156 -0.246093,-0.035156 -0.433594,0 -0.761719,0.2578125 -1.148438,0.8789062 v -0.75 z m 2.651367,0 v 4.171875025 h 0.667969 V -2.1683281 c 0,-0.5976563 0.152344,-0.984375 0.46875,-1.21875 0.210938,-0.1523438 0.410156,-0.1992188 0.867188,-0.2109375 v -0.6679688 c -0.105469,-0.023437 -0.164063,-0.035156 -0.246094,-0.035156 -0.433594,0 -0.761719,0.2578125 -1.148438,0.8789062 v -0.75 z m 4.271485,-0.1289062 c -1.171875,0 -1.886719,0.84375 -1.886719,2.25 0,1.39453122 0.703125,2.23828122 1.898437,2.23828122 1.171875,0 1.886719,-0.84375 1.886719,-2.21484372 0,-1.4414063 -0.691406,-2.2734375 -1.898437,-2.2734375 z m 0.01172,0.6210937 c 0.75,0 1.195313,0.609375 1.195313,1.6523438 0,0.9726562 -0.46875,1.59374997 -1.195313,1.59374997 -0.75,0 -1.195312,-0.60937497 -1.195312,-1.61718747 0,-1.0078125 0.445312,-1.6289063 1.195312,-1.6289063 z m 2.803711,-0.4921875 v 4.171875025 h 0.667969 V -2.1683281 c 0,-0.5976563 0.152344,-0.984375 0.46875,-1.21875 0.210938,-0.1523438 0.410156,-0.1992188 0.867188,-0.2109375 v -0.6679688 c -0.105469,-0.023437 -0.164063,-0.035156 -0.246094,-0.035156 -0.433594,0 -0.761719,0.2578125 -1.148438,0.8789062 v -0.75 z m 5.794922,1.6640625 h 1.921875 c 0.65625,0 0.949219,0.328125 0.949219,1.0429688 v 0.51562497 c 0,0.36328125 0.05859,0.71484375 0.164063,0.949218755 H 47.41607 V -0.18785938 c -0.28125,-0.1875 -0.339843,-0.3984375 -0.351562,-1.17187502 -0.01172,-0.9492187 -0.164063,-1.2421875 -0.796875,-1.5117187 0.65625,-0.3164063 0.925781,-0.7265625 0.925781,-1.3828125 0,-1.0078125 -0.632812,-1.5585938 -1.769531,-1.5585938 h -2.683594 v 5.812500025 h 0.738281 z m 0,-0.6445312 v -2.0039063 h 1.792969 c 0.421875,0 0.65625,0.058594 0.84375,0.2226563 0.199219,0.1640625 0.304688,0.4335937 0.304688,0.7851562 0,0.6796875 -0.351563,0.9960938 -1.148438,0.9960938 z m 8.542969,2.76562497 c -0.07031,0.0117188 -0.105469,0.0117188 -0.140625,0.0117188 -0.234375,0 -0.363281,-0.1171875 -0.363281,-0.328125 V -3.1527031 c 0,-0.75 -0.539063,-1.1484375 -1.570313,-1.1484375 -0.609375,0 -1.113281,0.1757812 -1.382812,0.4921875 -0.199219,0.2109375 -0.269531,0.4570312 -0.292969,0.8671875 h 0.667969 c 0.05859,-0.5039063 0.363281,-0.7382813 0.984375,-0.7382813 0.597656,0 0.9375,0.2226563 0.9375,0.6210938 v 0.1757812 c 0,0.28125 -0.175781,0.3984375 -0.703125,0.4570313 -0.9375,0.1171875 -1.078125,0.1523437 -1.335938,0.2578125 -0.480468,0.1992187 -0.726562,0.5742187 -0.726562,1.1132812 0,0.76171877 0.515625,1.24218752 1.371094,1.24218752 0.515625,0 0.9375,-0.187499995 1.417968,-0.62109375 0.04687,0.421875 0.246094,0.62109375 0.679688,0.62109375 0.140625,0 0.234375,-0.0234375 0.457031,-0.0703125 z M 50.861383,-1.3128594 c 0,0.2226563 -0.07031,0.35156252 -0.269531,0.53906252 -0.269532,0.24609375 -0.597657,0.375 -0.984375,0.375 -0.515625,0 -0.820313,-0.24609375 -0.820313,-0.66796872 0,-0.4453125 0.292969,-0.6679688 0.996094,-0.7617188 0.703125,-0.1054687 0.84375,-0.1289062 1.078125,-0.234375 z m 3.354492,-2.859375 h -0.691406 v -1.1484375 h -0.65625 v 1.1484375 h -0.5625 v 0.5390625 h 0.5625 v 3.15234377 c 0,0.421875 0.28125,0.66796875 0.796875,0.66796875 0.164062,0 0.328125,-0.0234375 0.550781,-0.0585938 v -0.5625 c -0.09375,0.0234375 -0.199219,0.0351563 -0.316406,0.0351563 -0.292969,0 -0.375,-0.0820313 -0.375,-0.375 V -3.6331719 h 0.691406 z m 4.277344,2.3085938 c 0,-0.6445313 -0.04687,-1.0195313 -0.164063,-1.3359375 -0.28125,-0.6796875 -0.914062,-1.1015625 -1.699219,-1.1015625 -1.160156,0 -1.910156,0.9023437 -1.910156,2.2734375 0,1.37109372 0.726563,2.21484372 1.898438,2.21484372 0.960937,0 1.617187,-0.55078125 1.78125,-1.45312502 H 57.7315 c -0.175781,0.55078127 -0.550781,0.83203127 -1.089844,0.83203127 -0.421875,0 -0.785156,-0.1875 -1.007812,-0.5390625 C 55.4815,-1.2073906 55.422906,-1.4534844 55.411187,-1.8636406 Z m -3.058594,-0.5390625 c 0.04687,-0.7734375 0.527344,-1.2773438 1.195312,-1.2773438 0.644532,0 1.148438,0.5390625 1.148438,1.2304688 0,0.011719 0,0.023437 0,0.046875 z m 7.491211,-3.4101563 c -0.796875,1.0429688 -1.289063,2.4960938 -1.289063,3.75 0,1.25390627 0.492188,2.70703127 1.289063,3.75 h 0.445312 c -0.703125,-1.13671873 -1.089843,-2.47265623 -1.089843,-3.75 0,-1.265625 0.386718,-2.6132812 1.089843,-3.75 z m 2.361328,0.3515625 c -0.738281,0 -1.347656,0.6210938 -1.347656,1.359375 0,0.75 0.609375,1.3710938 1.359375,1.3710938 0.738281,0 1.359375,-0.6210938 1.359375,-1.3476563 0,-0.7734375 -0.597656,-1.3828125 -1.371094,-1.3828125 z m 0,0.5625 c 0.457031,0 0.820313,0.3515625 0.820313,0.8085938 0,0.4453125 -0.375,0.796875 -0.808594,0.796875 -0.445313,0 -0.808594,-0.3632813 -0.808594,-0.8085938 0,-0.4453125 0.363281,-0.796875 0.796875,-0.796875 z m 3.269531,-0.75 -3.140625,5.81250002 h 0.515625 l 3.152344,-5.81250002 z m 0.632813,3.0820313 c -0.738281,0 -1.359375,0.609375 -1.359375,1.359375 0,0.74999997 0.621094,1.35937497 1.371094,1.35937497 0.726562,0 1.347656,-0.609375 1.347656,-1.34765627 0,-0.7617187 -0.597656,-1.3710937 -1.359375,-1.3710937 z m 0,0.5625 c 0.457031,0 0.808594,0.3515625 0.808594,0.8085937 0,0.43359377 -0.363282,0.78515627 -0.796875,0.78515627 -0.457032,0 -0.820313,-0.3515625 -0.820313,-0.79687497 0,-0.4453125 0.363281,-0.796875 0.808594,-0.796875 z m 2.33789,3.6914062 c 0.796875,-1.04296873 1.300782,-2.49609373 1.300782,-3.7382812 0,-1.265625 -0.503907,-2.71875 -1.300782,-3.7617188 h -0.433593 c 0.703125,1.1484375 1.089843,2.484375 1.089843,3.7617188 0,1.26562497 -0.386718,2.61328122 -1.089843,3.7382812 z m 0,0"
       style="fill:#000080;fill-opacity:1;fill-rule:nonzero;stroke:none"
       aria-label="Top-5ErrorRate(%)"
       transform="matrix(0,-1.3333333,1.3333333,0,12.242667,132.72533)" />
  </g>
</svg>
