<?xml version="1.0" encoding="UTF-8" standalone="no"?>
<!-- Created with Inkscape (http://www.inkscape.org/) -->

<svg
   version="1.1"
   id="svg1"
   width="294.06"
   height="197.84399"
   viewBox="0 0 294.06 197.84399"
   xmlns="http://www.w3.org/2000/svg"
   xmlns:svg="http://www.w3.org/2000/svg">
  <defs
     id="defs1" />
  <g
     id="g1">
    <path
       id="path1"
       d="m -28.3468,113.38724 c 0,0 37.84361,-25.22908 85.04042,-56.69362 C 103.89043,25.22908 141.73404,0 141.73404,0"
       style="fill:none;stroke:#0000ff;stroke-width:0.99628;stroke-linecap:butt;stroke-linejoin:miter;stroke-miterlimit:10;stroke-dasharray:none;stroke-opacity:1"
       transform="matrix(1.3333333,0,0,-1.3333333,45.62,151.84533)" />
    <path
       id="path2"
       d="m 5.4950625,-2.3437031 c 0,-1.3242188 -1.0429687,-2.4140625 -2.34375,-2.4140625 H 0.409125 v 0.2460937 h 0.1640625 c 0.5390625,0 0.5507813,0.070312 0.5507813,0.3164063 v 3.63281248 c 0,0.234375 -0.011719,0.31640625 -0.5507813,0.31640625 H 0.409125 V 4.6875e-5 h 2.7421875 c 1.2773438,0 2.34375,-1.031249975 2.34375,-2.343749975 z m -0.7148437,0 c 0,0.8085937 -0.1992188,1.2304687 -0.4453125,1.52343748 C 4.0185,-0.46870312 3.5145938,-0.24604687 2.9638125,-0.24604687 H 2.096625 c -0.328125,0 -0.3398437,-0.0585937 -0.3398437,-0.28125 V -4.2421406 c 0,-0.2109375 0.011719,-0.2695313 0.3398437,-0.2695313 h 0.8554688 c 0.5976562,0 1.1132812,0.2460938 1.4296875,0.65625 0.2929687,0.375 0.3984375,0.9023438 0.3984375,1.5117188 z m 4.4765625,1.51171873 c 0,-0.0351563 -0.011719,-0.10546875 -0.1171875,-0.10546875 -0.082031,0 -0.1054688,0.046875 -0.1171875,0.1171875 -0.2226563,0.5625 -0.75,0.66796875 -0.9960938,0.66796875 -0.328125,0 -0.6445312,-0.15234375 -0.8554687,-0.41015625 C 6.9130313,-0.89057812 6.9013125,-1.3124531 6.9013125,-1.5937031 h 2.1679688 c 0.140625,0 0.1875,0 0.1875,-0.1523438 0,-0.609375 -0.3398438,-1.359375 -1.3710938,-1.359375 -0.9140625,0 -1.6171875,0.7265625 -1.6171875,1.5820313 0,0.87890623 0.7734375,1.59374998 1.6992188,1.59374998 0.9492187,0 1.2890625,-0.75 1.2890625,-0.90234375 z M 8.7763125,-1.7694844 H 6.9130313 c 0.070312,-0.984375 0.703125,-1.1484375 0.9726562,-1.1484375 0.8554688,0 0.8789063,0.9726563 0.890625,1.1484375 z m 4.0224605,0.93750003 c 0,-0.09375 -0.08203,-0.09375 -0.117187,-0.09375 -0.08203,0 -0.09375,0.0234375 -0.128906,0.12890625 -0.152344,0.421875 -0.527344,0.64453125 -0.949219,0.64453125 -0.480469,0 -1.101563,-0.3515625 -1.101563,-1.35937503 0,-0.890625 0.421875,-1.3710937 1.078125,-1.3710937 0.08203,0 0.421875,0 0.667969,0.1054687 -0.117187,0.046875 -0.1875,0.1640625 -0.1875,0.3046875 0,0.1875 0.128906,0.328125 0.328125,0.328125 0.1875,0 0.328125,-0.1171875 0.328125,-0.3398437 0,-0.6210938 -0.960937,-0.6210938 -1.160156,-0.6210938 -1.042969,0 -1.6992188,0.796875 -1.6992188,1.59375 0,0.87890628 0.7499998,1.58203128 1.6640628,1.58203128 1.042968,0 1.277343,-0.8203125 1.277343,-0.90234375 z M 14.993109,4.6875e-5 V -0.24604687 c -0.398437,0 -0.46875,0 -0.46875,-0.29296875 V -3.0702656 l -1.03125,0.070312 v 0.2578125 c 0.445313,0 0.503907,0.035156 0.503907,0.375 v 1.81640623 c 0,0.3046875 -0.07031,0.3046875 -0.527344,0.3046875 V 4.6875e-5 c 0,0 0.503906,-0.023437495 0.785156,-0.023437495 0.246094,0 0.492188,0 0.738281,0.023437495 z M 14.606391,-4.1952656 c 0,-0.2226563 -0.175782,-0.4101563 -0.398438,-0.4101563 -0.234375,0 -0.398437,0.1992188 -0.398437,0.3984375 0,0.2226563 0.175781,0.4101563 0.398437,0.4101563 0.246094,0 0.398438,-0.1992188 0.398438,-0.3984375 z m 3.565429,3.28124998 c 0,-0.26953128 -0.117187,-0.46874998 -0.292968,-0.64453128 -0.269532,-0.2460937 -0.585938,-0.2929687 -0.832032,-0.3398437 -0.5625,-0.09375 -1.007812,-0.1757813 -1.007812,-0.5507813 0,-0.2226562 0.1875,-0.4921875 0.84375,-0.4921875 0.808594,0 0.84375,0.5625 0.855469,0.7617188 0.01172,0.082031 0.09375,0.082031 0.117187,0.082031 0.128906,0 0.128906,-0.046875 0.128906,-0.1875 v -0.6445312 c 0,-0.1171875 0,-0.1757813 -0.105468,-0.1757813 -0.03516,0 -0.04687,0 -0.140625,0.082031 -0.01172,0 -0.08203,0.070312 -0.117188,0.1054687 -0.210937,-0.1523437 -0.480469,-0.1875 -0.738281,-0.1875 -0.996094,0 -1.230469,0.515625 -1.230469,0.8671875 0,0.2226563 0.09375,0.4101563 0.257813,0.5390625 0.269531,0.234375 0.539062,0.28125 0.960937,0.3515625 0.351563,0.070312 0.914063,0.1640625 0.914063,0.63281253 0,0.26953125 -0.1875,0.5859375 -0.855469,0.5859375 -0.667969,0 -0.914063,-0.43359375 -1.03125,-0.91406253 -0.02344,-0.082031 -0.03516,-0.1171875 -0.128906,-0.1171875 -0.117188,0 -0.117188,0.046875 -0.117188,0.18750003 v 0.85546875 c 0,0.12890625 0,0.1875 0.09375,0.1875 0.05859,0 0.199219,-0.15234375 0.339844,-0.3046875 0.304687,0.29296875 0.679687,0.3046875 0.84375,0.3046875 0.914062,0 1.242187,-0.4921875 1.242187,-0.9843745 z M 20.404242,4.6875e-5 V -0.24604687 c -0.398437,0 -0.46875,0 -0.46875,-0.29296875 V -3.0702656 l -1.03125,0.070312 v 0.2578125 c 0.445313,0 0.503906,0.035156 0.503906,0.375 v 1.81640623 c 0,0.3046875 -0.07031,0.3046875 -0.527343,0.3046875 V 4.6875e-5 c 0,0 0.503906,-0.023437495 0.785156,-0.023437495 0.246094,0 0.492187,0 0.738281,0.023437495 z M 20.017523,-4.1952656 c 0,-0.2226563 -0.175781,-0.4101563 -0.398437,-0.4101563 -0.234375,0 -0.398438,0.1992188 -0.398438,0.3984375 0,0.2226563 0.175782,0.4101563 0.398438,0.4101563 0.246094,0 0.398437,-0.1992188 0.398437,-0.3984375 z m 4.420899,2.7070312 c 0,-0.8671875 -0.75,-1.6171875 -1.710938,-1.6171875 -0.960937,0 -1.710937,0.75 -1.710937,1.6171875 0,0.86718753 0.773437,1.55859378 1.710937,1.55859378 0.9375,0 1.710938,-0.69140625 1.710938,-1.55859378 z m -0.632813,-0.058594 c 0,0.328125 -0.02344,0.70312498 -0.222656,0.98437498 -0.1875,0.26953125 -0.515625,0.41015625 -0.855469,0.41015625 -0.257812,0 -0.632812,-0.0820313 -0.867187,-0.421875 -0.1875,-0.29296875 -0.210938,-0.65625003 -0.210938,-0.97265623 0,-0.3046875 0.01172,-0.7148438 0.257813,-1.0078125 0.175781,-0.2109375 0.46875,-0.3632813 0.820312,-0.3632813 0.410157,0 0.703125,0.1992188 0.855469,0.4101563 0.199219,0.28125 0.222656,0.6210937 0.222656,0.9609375 z M 28.830023,4.6875e-5 V -0.24604687 c -0.457031,0 -0.527343,0 -0.527343,-0.3046875 V -2.1093281 c 0,-0.609375 -0.292969,-0.9609375 -1.042969,-0.9609375 -0.574219,0 -0.9375,0.3046875 -1.136719,0.6679687 v -0.6679687 l -1.03125,0.070312 v 0.2578125 c 0.46875,0 0.527344,0.046875 0.527344,0.3867187 v 1.80468753 c 0,0.3046875 -0.07031,0.3046875 -0.527344,0.3046875 V 4.6875e-5 c 0,0 0.503906,-0.023437495 0.796875,-0.023437495 0.257813,0 0.738281,0.01171875 0.796875,0.023437495 V -0.24604687 c -0.445312,0 -0.515625,0 -0.515625,-0.3046875 V -1.8046406 c 0,-0.7382813 0.574219,-1.078125 1.03125,-1.078125 0.492188,0 0.550781,0.3867187 0.550781,0.7382812 v 1.59375003 c 0,0.3046875 -0.07031,0.3046875 -0.515625,0.3046875 V 4.6875e-5 c 0,0 0.503907,-0.023437495 0.796875,-0.023437495 0.257813,0 0.738282,0.01171875 0.796875,0.023437495 z M 36.874945,-1.2772969 c 0,-0.609375 -0.609375,-1.125 -1.464843,-1.2070312 0.691406,-0.1289063 1.253906,-0.5507813 1.253906,-1.0898438 0,-0.6328125 -0.726563,-1.1835937 -1.699219,-1.1835937 h -2.742187 v 0.2460937 h 0.164062 c 0.539063,0 0.550781,0.070312 0.550781,0.3164063 v 3.63281248 c 0,0.234375 -0.01172,0.31640625 -0.550781,0.31640625 H 32.222602 V 4.6875e-5 h 2.953125 c 0.984375,0 1.699218,-0.609374995 1.699218,-1.277343775 z m -0.902343,-2.296875 c 0,0.4921875 -0.46875,0.9960938 -1.265625,0.9960938 H 33.54682 v -1.6640625 c 0,-0.2109375 0.01172,-0.2695313 0.339844,-0.2695313 h 1.03125 c 0.691406,0 1.054688,0.4921875 1.054688,0.9375 z m 0.1875,2.2851563 c 0,0.51562498 -0.457032,1.04296873 -1.230469,1.04296873 h -1.042969 c -0.328125,0 -0.339844,-0.0585937 -0.339844,-0.28125 V -2.3788594 h 1.488282 c 0.738281,0 1.125,0.5976563 1.125,1.0898438 z m 4.904296,-0.1992188 c 0,-0.8671875 -0.75,-1.6171875 -1.710937,-1.6171875 -0.960938,0 -1.710938,0.75 -1.710938,1.6171875 0,0.86718753 0.773438,1.55859378 1.710938,1.55859378 0.9375,0 1.710937,-0.69140625 1.710937,-1.55859378 z m -0.632812,-0.058594 c 0,0.328125 -0.02344,0.70312498 -0.222656,0.98437498 -0.1875,0.26953125 -0.515625,0.41015625 -0.855469,0.41015625 -0.257813,0 -0.632813,-0.0820313 -0.867188,-0.421875 -0.1875,-0.29296875 -0.210937,-0.65625003 -0.210937,-0.97265623 0,-0.3046875 0.01172,-0.7148438 0.257812,-1.0078125 0.175782,-0.2109375 0.46875,-0.3632813 0.820313,-0.3632813 0.410156,0 0.703125,0.1992188 0.855469,0.4101563 0.199218,0.28125 0.222656,0.6210937 0.222656,0.9609375 z M 45.45307,4.6875e-5 V -0.24604687 c -0.46875,0 -0.527343,-0.0585937 -0.527343,-0.3984375 V -3.0702656 l -1.066407,0.070312 v 0.2578125 c 0.46875,0 0.515625,0.046875 0.515625,0.3867187 v 1.1953125 c 0,0.60937503 -0.386718,1.03125003 -0.925781,1.03125003 -0.632812,0 -0.65625,-0.29296875 -0.65625,-0.65625 V -3.0702656 l -1.078125,0.070312 v 0.2578125 c 0.527344,0 0.527344,0.011719 0.527344,0.6328125 v 1.0546875 c 0,0.48046873 0,1.12499998 1.160156,1.12499998 0.152344,0 0.667969,0 0.996094,-0.5859375 h 0.01172 v 0.5859375 z m 4.400391,0 V -0.24604687 c -0.457031,0 -0.527344,0 -0.527344,-0.3046875 V -2.1093281 c 0,-0.609375 -0.292969,-0.9609375 -1.042969,-0.9609375 -0.574218,0 -0.9375,0.3046875 -1.136718,0.6679687 v -0.6679687 l -1.03125,0.070312 v 0.2578125 c 0.46875,0 0.527343,0.046875 0.527343,0.3867187 v 1.80468753 c 0,0.3046875 -0.07031,0.3046875 -0.527343,0.3046875 V 4.6875e-5 c 0,0 0.503906,-0.023437495 0.796875,-0.023437495 0.257812,0 0.738281,0.01171875 0.796875,0.023437495 V -0.24604687 c -0.445313,0 -0.515625,0 -0.515625,-0.3046875 V -1.8046406 c 0,-0.7382813 0.574218,-1.078125 1.03125,-1.078125 0.492187,0 0.550781,0.3867187 0.550781,0.7382812 v 1.59375003 c 0,0.3046875 -0.07031,0.3046875 -0.515625,0.3046875 V 4.6875e-5 c 0,0 0.503906,-0.023437495 0.796875,-0.023437495 0.257812,0 0.738281,0.01171875 0.796875,0.023437495 z m 4.341797,0 V -0.24604687 c -0.46875,0 -0.527344,-0.0585937 -0.527344,-0.3984375 V -4.8397969 l -1.042969,0.082031 v 0.2460937 c 0.46875,0 0.515625,0.046875 0.515625,0.3867188 v 1.453125 c -0.257812,-0.2578125 -0.585937,-0.3984375 -0.972656,-0.3984375 -0.925781,0 -1.710937,0.6914062 -1.710937,1.5703125 0,0.86718748 0.738281,1.57031248 1.628906,1.57031248 0.574219,0 0.914062,-0.3046875 1.03125,-0.43359375 V 0.07035938 Z M 53.117133,-0.72651562 c -0.175781,0.31640625 -0.539063,0.59765625 -0.984375,0.59765625 -0.398438,0 -0.679688,-0.22265625 -0.808594,-0.43359375 -0.140625,-0.19921875 -0.222656,-0.48046878 -0.222656,-0.92578128 0,-0.1640625 0,-0.6914062 0.28125,-1.0195312 0.28125,-0.3046875 0.621094,-0.375 0.820312,-0.375 0.339844,0 0.632813,0.1523437 0.832032,0.4101562 0.08203,0.1054688 0.08203,0.1171875 0.08203,0.2460938 z m 5.223633,0.09375 V -1.0077656 h -0.246094 v 0.37499998 c 0,0.0703125 0,0.3984375 -0.257813,0.3984375 -0.257812,0 -0.257812,-0.328125 -0.257812,-0.41015625 V -1.8632344 c 0,-0.375 0,-0.6445312 -0.316406,-0.9023437 -0.28125,-0.234375 -0.621094,-0.3398438 -1.03125,-0.3398438 -0.667969,0 -1.125,0.2460938 -1.125,0.6679688 0,0.2226562 0.152343,0.3398437 0.328125,0.3398437 0.1875,0 0.328125,-0.1289062 0.328125,-0.3164062 0,-0.1289063 -0.05859,-0.2695313 -0.246094,-0.328125 0.257812,-0.1757813 0.65625,-0.1757813 0.703125,-0.1757813 0.386719,0 0.808594,0.2578125 0.808594,0.84375 v 0.2226563 c -0.375,0.011719 -0.84375,0.035156 -1.347657,0.2226562 -0.632812,0.2226563 -0.820312,0.609375 -0.820312,0.92578128 0,0.59765625 0.726562,0.7734375 1.21875,0.7734375 0.5625,0 0.878906,-0.31640625 1.03125,-0.5859375 0.02344,0.28125 0.210937,0.55078125 0.539062,0.55078125 0,0 0.691407,0 0.691407,-0.66796875 z m -1.3125,-0.3515625 c 0,0.66796875 -0.585938,0.85546875 -0.890625,0.85546875 -0.363282,0 -0.691407,-0.234375 -0.691407,-0.57421875 0,-0.38671878 0.328125,-0.92578128 1.582032,-0.97265628 z m 4.318359,-1.64062498 c 0,-0.2460938 -0.222656,-0.4453125 -0.550781,-0.4453125 -0.351563,0 -0.726563,0.2109375 -0.9375,0.7382812 h -0.01172 v -0.7382812 l -0.996094,0.070312 v 0.2578125 c 0.46875,0 0.527344,0.046875 0.527344,0.3867187 v 1.80468753 c 0,0.3046875 -0.07031,0.3046875 -0.527344,0.3046875 V 4.6875e-5 c 0.03516,0 0.515625,-0.023437495 0.796875,-0.023437495 L 60.54975,4.6875e-5 V -0.24604687 h -0.140625 c -0.515625,0 -0.515625,-0.0820312 -0.515625,-0.31640625 V -1.5937031 c 0,-0.5859375 0.28125,-1.2890625 0.9375,-1.2890625 -0.05859,0.046875 -0.117187,0.140625 -0.117187,0.2578125 0,0.2226562 0.175781,0.3164062 0.316406,0.3164062 0.164062,0 0.316406,-0.1054687 0.316406,-0.3164062 z m 4.236328,-0.1289063 v -0.2460937 c -0.199219,0.011719 -0.328125,0.023437 -0.527344,0.023437 -0.1875,0 -0.445312,-0.011719 -0.632812,-0.023437 v 0.2460937 c 0.222656,0.011719 0.28125,0.1523438 0.28125,0.2695313 0,0.082031 -0.03516,0.140625 -0.05859,0.2109375 L 63.87202,-0.62104687 63.004832,-2.4608906 c -0.01172,-0.046875 -0.03516,-0.082031 -0.03516,-0.1289063 0,-0.1640625 0.234375,-0.1640625 0.351562,-0.1640625 v -0.2460937 l -0.796875,0.023437 c -0.210937,0 -0.480468,-0.011719 -0.691406,-0.023437 v 0.2460937 c 0.398438,0 0.46875,0.023437 0.574219,0.2460938 L 63.579047,4.6875e-5 c -0.05859,0.140625005 -0.128906,0.269531255 -0.1875,0.410156255 -0.164063,0.33984375 -0.386719,0.82031247 -0.855469,0.82031247 -0.175781,0 -0.234375,-0.035156 -0.304687,-0.082031 0,0 0.210937,-0.070312 0.210937,-0.30468752 0,-0.17578125 -0.128906,-0.3046875 -0.304687,-0.3046875 -0.175782,0 -0.304688,0.12890625 -0.304688,0.31640625 0,0.32812497 0.328125,0.56249997 0.703125,0.56249997 0.597656,0 0.9375,-0.62109372 1.03125,-0.82031247 l 1.347656,-2.91796873 c 0.199219,-0.421875 0.550782,-0.4335938 0.667969,-0.433594 z m 0,0"
       style="fill:#0000ff;fill-opacity:1;fill-rule:nonzero;stroke:none"
       aria-label="DecisionBoundary"
       transform="matrix(1.3333333,0,0,1.3333333,201.892,88.164)" />
    <path
       id="path3"
       d="m 6.1185469,-4.3245937 c -0.046875,-0.5625 -0.1640625,-0.9257813 -0.4453125,-1.2890625 -0.5039063,-0.65625 -1.3007813,-1.03125 -2.2851563,-1.03125 -1.8398437,0 -2.98828123,1.3242187 -2.98828123,3.4335937 0,2.0976563 1.13671873,3.421875 2.95312503,3.421875 1.6289062,0 2.7070312,-0.94921875 2.7890625,-2.4375 h -1.3125 c -0.082031,0.8320313 -0.609375,1.30078125 -1.4414063,1.30078125 -1.0429687,0 -1.6523437,-0.84374995 -1.6523437,-2.26171875 0,-1.453125 0.6445312,-2.3085937 1.6992187,-2.3085937 0.46875,0 0.8554688,0.1640625 1.1015625,0.4804687 0.140625,0.1757813 0.2109375,0.3398438 0.2929688,0.6914063 z M 8.3246016,-6.5394375 H 7.0706953 V -3.75e-4 h 1.2539063 z m 5.3408204,6.38671875 c -0.222656,-0.2109375 -0.292969,-0.33984375 -0.292969,-0.5859375 V -3.4339687 c 0,-0.984375 -0.667969,-1.4882813 -1.980469,-1.4882813 -1.300781,0 -1.9921871,0.5507813 -2.0624996,1.6757813 h 1.2070316 c 0.05859,-0.5039063 0.269531,-0.6679688 0.890625,-0.6679688 0.480468,0 0.726562,0.1640625 0.726562,0.4921875 0,0.1640625 -0.08203,0.3046875 -0.222656,0.375 -0.164063,0.09375 -0.164063,0.09375 -0.785156,0.1875 L 10.641984,-2.766 c -0.9609371,0.1523438 -1.4296871,0.6445313 -1.4296871,1.5234375 0,0.41015625 0.1171875,0.75 0.3398437,0.99609375 0.28125,0.28125 0.7031254,0.45703125 1.1367184,0.45703125 0.539063,0 1.03125,-0.234375 1.464844,-0.69140625 0,0.24609375 0.03516,0.33984375 0.152344,0.48046875 h 1.359375 z M 12.153703,-1.9456875 c 0,0.7265625 -0.363281,1.13671875 -0.996094,1.13671875 -0.421875,0 -0.679687,-0.22265625 -0.679687,-0.58593745 0,-0.375 0.1875,-0.5507813 0.714844,-0.65625 l 0.421875,-0.082031 c 0.339843,-0.058594 0.386718,-0.082031 0.539062,-0.1523437 z m 6.322266,-1.3359375 c -0.01172,-1.0195312 -0.808594,-1.640625 -2.097657,-1.640625 -1.230468,0 -1.992187,0.6210938 -1.992187,1.6171875 0,0.3164063 0.09375,0.5976563 0.269531,0.7851563 0.164063,0.1757812 0.316406,0.2460937 0.785156,0.3984375 l 1.5,0.46875 c 0.316407,0.1054687 0.421875,0.1992187 0.421875,0.3984375 0,0.2929687 -0.351562,0.46874995 -0.9375,0.46874995 -0.316406,0 -0.585937,-0.0585938 -0.738281,-0.1640625 -0.140625,-0.10546875 -0.1875,-0.19921875 -0.246094,-0.45703125 h -1.230468 c 0.03516,1.0546875 0.820312,1.6171875 2.285156,1.6171875 0.679687,0 1.183594,-0.15234375 1.546875,-0.43359375 0.351562,-0.29296875 0.574219,-0.73828125 0.574219,-1.20703125 0,-0.6328125 -0.316407,-1.03125 -0.949219,-1.21875 l -1.59375,-0.4570312 c -0.351563,-0.1171875 -0.433594,-0.1875 -0.433594,-0.3867188 0,-0.2695312 0.28125,-0.4453125 0.726563,-0.4453125 0.597656,0 0.890625,0.2226563 0.902343,0.65625 z m 4.983398,0 c -0.01172,-1.0195312 -0.808594,-1.640625 -2.097656,-1.640625 -1.230469,0 -1.992188,0.6210938 -1.992188,1.6171875 0,0.3164063 0.09375,0.5976563 0.269532,0.7851563 0.164062,0.1757812 0.316406,0.2460937 0.785156,0.3984375 l 1.5,0.46875 c 0.316406,0.1054687 0.421875,0.1992187 0.421875,0.3984375 0,0.2929687 -0.351563,0.46874995 -0.9375,0.46874995 -0.316406,0 -0.585938,-0.0585938 -0.738281,-0.1640625 C 20.52968,-1.0550625 20.482805,-1.1488125 20.424211,-1.406625 h -1.230469 c 0.03516,1.0546875 0.820313,1.6171875 2.285156,1.6171875 0.679688,0 1.183594,-0.15234375 1.546875,-0.43359375 0.351563,-0.29296875 0.574219,-0.73828125 0.574219,-1.20703125 0,-0.6328125 -0.316406,-1.03125 -0.949219,-1.21875 l -1.59375,-0.4570312 c -0.351562,-0.1171875 -0.433593,-0.1875 -0.433593,-0.3867188 0,-0.2695312 0.28125,-0.4453125 0.726562,-0.4453125 0.597656,0 0.890625,0.2226563 0.902344,0.65625 z m 7.435547,1.96875 0.433594,1.3125 H 32.71132 L 30.449602,-6.5394375 H 28.96132 L 26.641008,-3.75e-4 h 1.371094 l 0.433593,-1.3125 z m -0.363281,-1.125 h -1.699219 l 0.84375,-2.5546875 z m 0,0"
       style="fill:#000000;fill-opacity:1;fill-rule:nonzero;stroke:none"
       aria-label="ClassA"
       transform="matrix(1.3333333,0,0,1.3333333,5.756,117.188)" />
    <path
       id="path4"
       d="m 2.1203594,-6.5394375 c -0.9023438,1.1835938 -1.46484378,2.8125 -1.46484378,4.21875 0,1.41796875 0.56249998,3.046875 1.46484378,4.21875 H 2.6125469 C 1.8156719,0.62071875 1.3820781,-0.891 1.3820781,-2.3206875 c 0,-1.4296875 0.4335938,-2.9414062 1.2304688,-4.21875 z m 6.2080078,1.921875 c -0.011719,-1.2773437 -0.890625,-2.0273437 -2.390625,-2.0273437 -1.4414063,0 -2.3203125,0.7382812 -2.3203125,1.921875 0,0.796875 0.421875,1.3007812 1.2773437,1.5234375 L 6.5119609,-2.766 c 0.8320313,0.2109375 1.2070313,0.5390625 1.2070313,1.0546875 0,0.3515625 -0.1875,0.703125 -0.46875,0.90234375 -0.2578125,0.17578125 -0.6679688,0.28125 -1.1953125,0.28125 C 5.3400859,-0.52771875 4.8596172,-0.7035 4.5432109,-1.0785 4.2971172,-1.35975 4.1916484,-1.6761562 4.2033672,-2.0745937 H 3.4182109 c 0,0.5976562 0.1171875,0.984375 0.3867188,1.3476562 0.4453125,0.609375 1.1953125,0.9375 2.1914062,0.9375 0.7851563,0 1.4179688,-0.1875 1.8398438,-0.50390625 0.4335937,-0.3515625 0.7148437,-0.93749995 0.7148437,-1.49999995 0,-0.8085938 -0.5039062,-1.3945313 -1.3945312,-1.640625 l -1.640625,-0.4335938 c -0.7851563,-0.2226562 -1.0664063,-0.46875 -1.0664063,-0.9726562 0,-0.6679688 0.5742188,-1.1015625 1.453125,-1.1015625 1.0429688,0 1.6289063,0.46875 1.640625,1.3242187 z m 2.9121098,-0.082031 H 10.478758 V -5.9886562 H 9.7287578 v 1.2890625 H 9.0959453 v 0.609375 h 0.6328125 v 3.5507812 c 0,0.48046875 0.3281252,0.75 0.9023442,0.75 0.1875,0 0.363281,-0.0234375 0.609375,-0.0703125 v -0.62109375 c -0.09375,0.0234375 -0.210938,0.0351563 -0.351563,0.0351563 -0.328125,0 -0.410156,-0.09375 -0.410156,-0.421875 V -4.0902187 h 0.761719 z M 13.897703,-4.8285 c -1.3125,0 -2.109375,0.9375 -2.109375,2.5195313 0,1.57031245 0.785156,2.5195312 2.121094,2.5195312 1.3125,0 2.121094,-0.94921875 2.121094,-2.484375 0,-1.6289062 -0.773438,-2.5546875 -2.132813,-2.5546875 z m 0.01172,0.6914063 c 0.84375,0 1.347656,0.6796875 1.347656,1.8515625 0,1.1015625 -0.527344,1.80468745 -1.347656,1.80468745 -0.832031,0 -1.347656,-0.69140625 -1.347656,-1.82812495 0,-1.1367188 0.515625,-1.828125 1.347656,-1.828125 z m 3.014648,6.09375 h 0.761719 v -2.4492188 c 0.386719,0.48046875 0.832031,0.703125 1.441406,0.703125 1.207032,0 2.003907,-0.984375 2.003907,-2.484375 0,-1.5703125 -0.773438,-2.5546875 -2.015625,-2.5546875 -0.632813,0 -1.148438,0.28125 -1.5,0.84375 V -4.6995937 H 16.92407 Z m 2.0625,-6.09375 c 0.832032,0 1.371094,0.7265625 1.371094,1.8515625 0,1.0664062 -0.550781,1.7929687 -1.371094,1.7929687 -0.785156,0 -1.300781,-0.7148437 -1.300781,-1.8164062 0,-1.1015625 0.515625,-1.828125 1.300781,-1.828125 z m 3.275391,6.0351562 c 0.902344,-1.171875 1.464844,-2.80078125 1.464844,-4.2070312 0,-1.4179688 -0.5625,-3.046875 -1.464844,-4.2304688 h -0.492188 c 0.785157,1.2890625 1.230469,2.7890625 1.230469,4.2304688 0,1.4179687 -0.445312,2.9414062 -1.230469,4.2070312 z m 0,0"
       style="fill:#000000;fill-opacity:1;fill-rule:nonzero;stroke:none"
       aria-label="(Stop)"
       transform="matrix(1.3333333,0,0,1.3333333,52.930667,117.188)" />
    <path
       id="path5"
       d="m 6.1180313,-4.3249766 c -0.046875,-0.5625 -0.1640625,-0.9257812 -0.4453125,-1.2890625 -0.5039063,-0.65625 -1.3007813,-1.03125 -2.2851563,-1.03125 -1.8398437,0 -2.98828125,1.3242188 -2.98828125,3.4335938 0,2.0976562 1.13671875,3.42187499 2.95312505,3.42187499 1.6289062,0 2.7070312,-0.94921875 2.7890625,-2.43749999 h -1.3125 c -0.082031,0.8320312 -0.609375,1.30078124 -1.4414063,1.30078124 -1.0429687,0 -1.6523437,-0.84375004 -1.6523437,-2.26171874 0,-1.453125 0.6445312,-2.3085938 1.6992187,-2.3085938 0.46875,0 0.8554688,0.1640625 1.1015625,0.4804688 0.140625,0.1757812 0.2109375,0.3398437 0.2929688,0.6914062 z M 8.3240859,-6.5398203 H 7.0701797 v 6.5390624875 h 1.2539062 z m 5.3408201,6.38671874 c -0.222656,-0.2109375 -0.292968,-0.33984375 -0.292968,-0.5859375 V -3.4343516 c 0,-0.984375 -0.667969,-1.4882812 -1.980469,-1.4882812 -1.300781,0 -1.9921877,0.5507812 -2.0625002,1.6757812 H 10.536 c 0.05859,-0.5039062 0.269531,-0.6679687 0.890625,-0.6679687 0.480469,0 0.726563,0.1640625 0.726563,0.4921875 0,0.1640625 -0.08203,0.3046875 -0.222657,0.375 -0.164062,0.09375 -0.164062,0.09375 -0.785156,0.1875 l -0.503906,0.09375 c -0.9609377,0.1523437 -1.4296877,0.6445312 -1.4296877,1.5234375 0,0.41015624 0.1171875,0.74999999 0.3398437,0.99609374 0.28125,0.28125 0.703125,0.45703125 1.136719,0.45703125 0.539062,0 1.03125,-0.234375 1.464844,-0.69140625 0,0.24609375 0.03516,0.33984375 0.152343,0.4804687475 h 1.359375 z M 12.153188,-1.9460703 c 0,0.7265625 -0.363282,1.13671874 -0.996094,1.13671874 -0.421875,0 -0.679688,-0.22265624 -0.679688,-0.58593754 0,-0.375 0.1875,-0.5507812 0.714844,-0.65625 l 0.421875,-0.082031 c 0.339844,-0.058594 0.386719,-0.082031 0.539063,-0.1523438 z m 6.322265,-1.3359375 c -0.01172,-1.0195313 -0.808594,-1.640625 -2.097656,-1.640625 -1.230469,0 -1.992188,0.6210937 -1.992188,1.6171875 0,0.3164062 0.09375,0.5976562 0.269532,0.7851562 0.164062,0.1757813 0.316406,0.2460938 0.785156,0.3984375 l 1.5,0.46875 c 0.316406,0.1054688 0.421875,0.1992188 0.421875,0.3984375 0,0.29296879 -0.351563,0.46875004 -0.9375,0.46875004 -0.316406,0 -0.585938,-0.0585938 -0.738281,-0.1640625 -0.140625,-0.10546874 -0.1875,-0.19921874 -0.246094,-0.45703124 h -1.230469 c 0.03516,1.05468749 0.820313,1.61718749 2.285156,1.61718749 0.679688,0 1.183594,-0.15234375 1.546875,-0.43359375 0.351563,-0.29296875 0.574219,-0.73828125 0.574219,-1.20703124 0,-0.6328125 -0.316406,-1.03125 -0.949219,-1.21875 l -1.59375,-0.4570313 c -0.351562,-0.1171875 -0.433593,-0.1875 -0.433593,-0.3867187 0,-0.2695313 0.28125,-0.4453125 0.726562,-0.4453125 0.597656,0 0.890625,0.2226562 0.902344,0.65625 z m 4.986328,0 c -0.01172,-1.0195313 -0.808593,-1.640625 -2.097656,-1.640625 -1.230469,0 -1.992187,0.6210937 -1.992187,1.6171875 0,0.3164062 0.09375,0.5976562 0.269531,0.7851562 0.164062,0.1757813 0.316406,0.2460938 0.785156,0.3984375 l 1.5,0.46875 c 0.316406,0.1054688 0.421875,0.1992188 0.421875,0.3984375 0,0.29296879 -0.351562,0.46875004 -0.9375,0.46875004 -0.316406,0 -0.585937,-0.0585938 -0.738281,-0.1640625 -0.140625,-0.10546874 -0.1875,-0.19921874 -0.246094,-0.45703124 h -1.230469 c 0.03516,1.05468749 0.820313,1.61718749 2.285157,1.61718749 0.679687,0 1.183593,-0.15234375 1.546875,-0.43359375 0.351562,-0.29296875 0.574218,-0.73828125 0.574218,-1.20703124 0,-0.6328125 -0.316406,-1.03125 -0.949218,-1.21875 l -1.59375,-0.4570313 c -0.351563,-0.1171875 -0.433594,-0.1875 -0.433594,-0.3867187 0,-0.2695313 0.28125,-0.4453125 0.726562,-0.4453125 0.597657,0 0.890625,0.2226562 0.902344,0.65625 z m 3.682617,3.2812499875 h 2.941407 c 0.75,0 1.253906,-0.1406249975 1.640625,-0.4804687475 0.398437,-0.328125 0.644531,-0.87890624 0.644531,-1.40625004 0,-0.6445312 -0.339844,-1.1484375 -1.078125,-1.5820312 0.644531,-0.4101563 0.890625,-0.7851563 0.890625,-1.3476563 0,-0.4453125 -0.222656,-0.9257812 -0.585938,-1.2421875 -0.386718,-0.328125 -0.84375,-0.4804687 -1.546875,-0.4804687 h -2.90625 z M 28.480336,-5.4148203 h 1.464844 c 0.621093,0 0.949218,0.2578125 0.949218,0.7382812 0,0.4804688 -0.328125,0.7382813 -0.949218,0.7382813 h -1.464844 z m 0,2.6015625 h 1.605469 c 0.65625,0 0.996093,0.2929687 0.996093,0.84375 0,0.5507812 -0.339843,0.84375 -0.996093,0.84375 h -1.605469 z m 0,0"
       style="fill:#000000;fill-opacity:1;fill-rule:nonzero;stroke:none"
       aria-label="ClassB"
       transform="matrix(1.3333333,0,0,1.3333333,151.952,41.598667)" />
    <path
       id="path6"
       d="M 2.1198438,-6.5398203 C 1.2175,-5.3562266 0.655,-3.7273203 0.655,-2.3210703 c 0,1.41796874 0.5625,3.04687499 1.4648438,4.21875 h 0.4921875 c -0.796875,-1.27734376 -1.2304688,-2.78906251 -1.2304688,-4.21875 0,-1.4296875 0.4335938,-2.9414063 1.2304688,-4.21875 z m 6.2109375,1.921875 c -0.011719,-1.2773438 -0.890625,-2.0273438 -2.390625,-2.0273438 -1.4414063,0 -2.3203125,0.7382813 -2.3203125,1.921875 0,0.796875 0.421875,1.3007813 1.2773437,1.5234375 l 1.6171875,0.4335938 c 0.8320313,0.2109375 1.2070313,0.5390625 1.2070313,1.0546875 0,0.3515625 -0.1875,0.703125 -0.46875,0.90234374 -0.2578125,0.17578125 -0.6679688,0.28125 -1.1953125,0.28125 -0.7148438,0 -1.1953125,-0.17578125 -1.5117188,-0.55078124 -0.2460937,-0.28125 -0.3515625,-0.5976563 -0.3398437,-0.9960938 H 3.420625 c 0,0.5976563 0.1171875,0.984375 0.3867188,1.34765629 0.4453125,0.609375 1.1953125,0.9375 2.1914062,0.9375 0.7851563,0 1.4179688,-0.1875 1.8398438,-0.50390625 0.4335937,-0.3515625 0.7148437,-0.93750004 0.7148437,-1.50000004 0,-0.8085937 -0.5039062,-1.3945312 -1.3945312,-1.640625 L 5.5182813,-3.8679453 C 4.733125,-4.0906016 4.451875,-4.3366953 4.451875,-4.8406016 c 0,-0.6679687 0.5742188,-1.1015625 1.453125,-1.1015625 1.0429688,0 1.6289063,0.46875 1.640625,1.3242188 z m 1.1162109,6.5742187 h 0.7617188 v -2.44921871 c 0.386719,0.48046875 0.832031,0.703125 1.441406,0.703125 1.207031,0 2.003906,-0.984375 2.003906,-2.48437499 0,-1.5703125 -0.773437,-2.5546875 -2.015625,-2.5546875 -0.632812,0 -1.148437,0.28125 -1.5,0.84375 V -4.6999766 H 9.4469922 Z m 2.0624998,-6.09375 c 0.832031,0 1.371094,0.7265625 1.371094,1.8515625 0,1.0664063 -0.550781,1.79296879 -1.371094,1.79296879 -0.785156,0 -1.300781,-0.71484379 -1.300781,-1.81640629 0,-1.1015625 0.515625,-1.828125 1.300781,-1.828125 z m 7.03711,2.0390625 c 0,-0.7148437 -0.04687,-1.1484375 -0.1875,-1.5 -0.304688,-0.7734375 -1.019532,-1.2304687 -1.898438,-1.2304687 -1.300781,0 -2.144531,0.9960937 -2.144531,2.5429687 0,1.54687504 0.808594,2.49609379 2.132812,2.49609379 1.066407,0 1.816407,-0.609375 2.003907,-1.64062499 h -0.75 c -0.210938,0.62109374 -0.632813,0.94921874 -1.230469,0.94921874 -0.480469,0 -0.878906,-0.22265625 -1.125,-0.60937504 -0.1875,-0.2695312 -0.246094,-0.5390625 -0.257813,-1.0078125 z m -3.433594,-0.609375 c 0.05859,-0.8671875 0.585937,-1.4296875 1.335937,-1.4296875 0.738282,0 1.300782,0.609375 1.300782,1.3710938 0,0.023437 0,0.035156 0,0.058594 z M 23.53,-2.0984141 c 0,-0.7148437 -0.04687,-1.1484375 -0.1875,-1.5 -0.304688,-0.7734375 -1.019531,-1.2304687 -1.898438,-1.2304687 -1.300781,0 -2.144531,0.9960937 -2.144531,2.5429687 0,1.54687504 0.808594,2.49609379 2.132813,2.49609379 1.066406,0 1.816406,-0.609375 2.003906,-1.64062499 h -0.75 c -0.210938,0.62109374 -0.632813,0.94921874 -1.230469,0.94921874 -0.480469,0 -0.878906,-0.22265625 -1.125,-0.60937504 -0.1875,-0.2695312 -0.246094,-0.5390625 -0.257812,-1.0078125 z m -3.433594,-0.609375 c 0.05859,-0.8671875 0.585938,-1.4296875 1.335938,-1.4296875 0.738281,0 1.300781,0.609375 1.300781,1.3710938 0,0.023437 0,0.035156 0,0.058594 z m 8.267578,-3.8320312 h -0.75 v 2.4375 c -0.316406,-0.4804688 -0.808593,-0.7265625 -1.441406,-0.7265625 -1.21875,0 -2.015625,0.9726562 -2.015625,2.4726562 0,1.58203129 0.773438,2.56640629 2.039063,2.56640629 0.644531,0 1.101562,-0.24609375 1.5,-0.83203125 v 0.6210937475 h 0.667968 z m -2.0625,2.4023437 c 0.808594,0 1.3125,0.7265625 1.3125,1.8398438 0,1.0898437 -0.515625,1.80468749 -1.3125,1.80468749 -0.820312,0 -1.371093,-0.72656249 -1.371093,-1.81640629 0,-1.1015625 0.550781,-1.828125 1.371093,-1.828125 z m 3.439453,6.0351563 c 0.902344,-1.17187501 1.464844,-2.80078126 1.464844,-4.2070313 0,-1.4179687 -0.5625,-3.046875 -1.464844,-4.2304687 H 29.24875 c 0.785156,1.2890625 1.230469,2.7890625 1.230469,4.2304687 0,1.41796879 -0.445313,2.94140629 -1.230469,4.2070313 z m 0,0"
       style="fill:#000000;fill-opacity:1;fill-rule:nonzero;stroke:none"
       aria-label="(Speed)"
       transform="matrix(1.3333333,0,0,1.3333333,199.12667,41.598667)" />
    <path
       id="path7"
       d="m 31.16489,42.5202 c 0,1.5564 -1.26169,2.81809 -2.81809,2.81809 -1.5564,0 -2.81808,-1.26169 -2.81808,-2.81809 0,-1.5564 1.26168,-2.81808 2.81808,-2.81808 1.5564,0 2.81809,1.26168 2.81809,2.81808 z"
       style="fill:#00ff00;fill-opacity:1;fill-rule:nonzero;stroke:none"
       transform="matrix(1.3333333,0,0,-1.3333333,45.62,151.84533)" />
    <path
       id="path8"
       d="M 3.1755547,-5.8007422 H 5.3200859 V -6.5390234 H 0.18727344 v 0.7382812 H 2.3435234 V 3.90625e-5 h 0.8320313 z m 1.8486328,1.1015625 V 3.90625e-5 h 0.75 V -2.4374609 c 0,-0.6679688 0.1757812,-1.1132813 0.5273437,-1.3710938 0.234375,-0.1757812 0.4570313,-0.2226562 0.984375,-0.234375 V -4.8046484 C 7.157,-4.8280859 7.0866875,-4.8280859 6.9929375,-4.8280859 c -0.4804688,0 -0.8554688,0.28125 -1.2773438,0.984375 v -0.8554688 z m 7.0664065,4.26562501 c -0.08203,0.0117188 -0.117188,0.0117188 -0.152344,0.0117188 -0.269531,0 -0.410156,-0.12890625 -0.410156,-0.36328125 V -3.5507422 c 0,-0.8320312 -0.609375,-1.2773437 -1.7695315,-1.2773437 -0.6796875,0 -1.2421875,0.1875 -1.5585938,0.5390625 -0.2109375,0.2460937 -0.3046875,0.515625 -0.3164062,0.984375 h 0.75 C 8.6921562,-3.8788672 9.032,-4.1366797 9.735125,-4.1366797 c 0.667969,0 1.054687,0.2460938 1.054687,0.6914063 v 0.1992187 c 0,0.3164063 -0.1875,0.4453125 -0.785156,0.515625 -1.0546873,0.140625 -1.2187498,0.1757813 -1.4999998,0.2929688 -0.5507812,0.2226562 -0.8320312,0.6445312 -0.8320312,1.2539062 0,0.85546876 0.5976562,1.39453126 1.546875,1.39453126 0.5859375,0 1.066406,-0.2109374975 1.59375,-0.69140625 0.04687,0.46875 0.28125,0.69140625 0.773437,0.69140625 0.152344,0 0.269532,-0.0234375 0.503907,-0.0820313 z M 10.789812,-1.4765234 c 0,0.2460937 -0.08203,0.3984375 -0.304687,0.60937496 -0.304688,0.28125 -0.6679688,0.421875 -1.1132813,0.421875 -0.5742187,0 -0.9140625,-0.28125 -0.9140625,-0.76171876 0,-0.4921875 0.328125,-0.7382812 1.125,-0.8554687 0.7851558,-0.1054688 0.9492188,-0.140625 1.2070308,-0.2578125 z m 2.841797,-3.2226563 h -0.75 V 3.90625e-5 h 0.75 z m 0,-1.8398437 h -0.761718 v 0.9492187 h 0.761718 z m 1.274414,1.8398437 V 3.90625e-5 h 0.75 V -2.5898047 c 0,-0.9609375 0.503907,-1.5820312 1.265625,-1.5820312 0.597657,0 0.972657,0.3515625 0.972657,0.9140625 V 3.90625e-5 h 0.75 V -3.5507422 c 0,-0.7734375 -0.585938,-1.2773437 -1.488282,-1.2773437 -0.703125,0 -1.148437,0.2695312 -1.570312,0.9140625 v -0.7851563 z m 5.701172,0 h -0.75 V 3.90625e-5 h 0.75 z m 0,-1.8398437 h -0.761718 v 0.9492187 h 0.761718 z m 1.277344,1.8398437 V 3.90625e-5 h 0.75 V -2.5898047 c 0,-0.9609375 0.503906,-1.5820312 1.265625,-1.5820312 0.597656,0 0.972656,0.3515625 0.972656,0.9140625 V 3.90625e-5 h 0.75 V -3.5507422 c 0,-0.7734375 -0.585937,-1.2773437 -1.488281,-1.2773437 -0.703125,0 -1.148437,0.2695312 -1.570312,0.9140625 v -0.7851563 z m 8.041992,0 v 0.6796875 c -0.375,-0.5507812 -0.832031,-0.8085937 -1.429687,-0.8085937 -1.195313,0 -2.003907,1.03125 -2.003907,2.5546875 0,0.7734375 0.210938,1.40624996 0.597657,1.85156246 0.351562,0.3984375 0.84375,0.6328125 1.335937,0.6328125 0.597656,0 1.007813,-0.2578125 1.429688,-0.84375 v 0.234375 c 0,0.64453125 -0.08203,1.03125 -0.269532,1.2890625 -0.199218,0.26953124 -0.585937,0.43359374 -1.042968,0.43359374 -0.339844,0 -0.644532,-0.082031 -0.84375,-0.2460937 C 27.524187,0.93753906 27.453875,0.82035156 27.407,0.53910156 h -0.761719 c 0.08203,0.89062504 0.773438,1.41796874 1.875,1.41796874 0.703125,0 1.300781,-0.2226562 1.605469,-0.5976562 0.363281,-0.43359379 0.492187,-1.03125004 0.492187,-2.13281254 V -4.6991797 Z m -1.347656,0.5625 c 0.808594,0 1.277344,0.6796875 1.277344,1.8515625 0,1.125 -0.480469,1.80468751 -1.277344,1.80468751 -0.808594,0 -1.300781,-0.69140621 -1.300781,-1.82812501 0,-1.1367187 0.503906,-1.828125 1.300781,-1.828125 z m 0,0"
       style="fill:#000000;fill-opacity:1;fill-rule:nonzero;stroke:none"
       aria-label="Training"
       transform="matrix(1.3333333,0,0,1.3333333,57.457333,112.38667)" />
    <path
       id="path9"
       d="m 4.4049375,-3.6210547 c -0.328125,0.058594 -0.421875,0.3515625 -0.421875,0.4804688 0,0.1757812 0.1171875,0.328125 0.3398438,0.328125 0.2578125,0 0.5039062,-0.2226563 0.5039062,-0.5273438 0,-0.421875 -0.4570312,-0.6210937 -0.8789062,-0.6210937 -0.5390625,0 -0.84375,0.46875 -0.9492188,0.65625 -0.1757812,-0.4335938 -0.5742187,-0.65625 -0.9960937,-0.65625 -0.9609375,0 -1.4882813,1.1484375 -1.4882813,1.3828125 0,0.082031 0.0703125,0.1054687 0.12890625,0.1054687 0.0820313,0 0.10546875,-0.046875 0.12890625,-0.1054687 0.28125,-0.8789063 0.8671875,-1.1601563 1.2070313,-1.1601563 0.2578125,0 0.4921875,0.1757813 0.4921875,0.5859375 0,0.328125 -0.3867188,1.7578125 -0.5039063,2.19140626 -0.070312,0.28125 -0.3398437,0.83203125 -0.8320312,0.83203125 -0.1757813,0 -0.3632813,-0.0585938 -0.4570313,-0.1171875 0.24609375,-0.0351563 0.421875,-0.24609375 0.421875,-0.48046875 0,-0.22265625 -0.1640625,-0.32812496 -0.33984375,-0.32812496 -0.2578125,0 -0.4921875,0.23437496 -0.4921875,0.53906246 0,0.43359375 0.48046875,0.609375 0.85546875,0.609375 0.5273438,0 0.8320313,-0.421875 0.9609375,-0.66796875 0.2226563,0.59765625 0.7617188,0.66796875 0.9960938,0.66796875 0.9726562,0 1.4765625,-1.16015626 1.4765625,-1.37109376 0,-0.046875 -0.023437,-0.1171875 -0.1171875,-0.1171875 -0.09375,0 -0.1054688,0.035156 -0.1523438,0.1757813 -0.1875,0.64453121 -0.7148437,1.08984371 -1.1835937,1.08984371 -0.2578125,0 -0.4921875,-0.15234375 -0.4921875,-0.5859375 0,-0.19921875 0.1171875,-0.69140621 0.1992187,-1.03125001 0.035156,-0.1640625 0.28125,-1.1367187 0.2929688,-1.1953125 0.1171875,-0.3164062 0.3867187,-0.796875 0.84375,-0.796875 0.1523437,0 0.328125,0.023437 0.4570312,0.1171875 z m 0,0"
       style="fill:#000000;fill-opacity:1;fill-rule:nonzero;stroke:none"
       aria-label="x"
       transform="matrix(1.3333333,0,0,1.3333333,102.408,112.38667)" />
    <path
       id="path10"
       d="m 73.68509,70.867 c 0,1.5564 -1.26169,2.81809 -2.81809,2.81809 -1.55638,0 -2.81807,-1.26169 -2.81807,-2.81809 0,-1.55638 1.26169,-2.81807 2.81807,-2.81807 1.5564,0 2.81809,1.26169 2.81809,2.81807 z"
       style="fill:#ff0000;fill-opacity:1;fill-rule:nonzero;stroke:none"
       transform="matrix(1.3333333,0,0,-1.3333333,45.62,151.84533)" />
    <path
       id="path11"
       d="m 5.3435547,-4.6182891 c -0.011719,-1.2773437 -0.890625,-2.0273437 -2.390625,-2.0273437 -1.4414063,0 -2.32031251,0.7382812 -2.32031251,1.921875 0,0.796875 0.42187501,1.3007812 1.27734371,1.5234375 l 1.6171875,0.4335937 c 0.8320313,0.2109375 1.2070313,0.5390625 1.2070313,1.0546875 0,0.3515625 -0.1875,0.703125 -0.46875,0.90234379 -0.2578125,0.17578125 -0.6679688,0.28125 -1.1953125,0.28125 -0.7148438,0 -1.1953125,-0.17578125 -1.5117188,-0.55078129 -0.2460937,-0.28125 -0.3515625,-0.5976562 -0.3398437,-0.9960937 H 0.43339844 c 0,0.5976562 0.1171875,0.984375 0.38671875,1.34765624 0.44531251,0.609375 1.19531251,0.9375 2.19140621,0.9375 0.7851563,0 1.4179688,-0.1875 1.8398438,-0.50390625 0.4335937,-0.3515625 0.7148437,-0.93749999 0.7148437,-1.49999999 0,-0.8085938 -0.5039062,-1.3945313 -1.3945312,-1.640625 l -1.640625,-0.4335938 c -0.7851563,-0.2226562 -1.0664063,-0.46875 -1.0664063,-0.9726562 0,-0.6679688 0.5742188,-1.1015625 1.453125,-1.1015625 1.0429688,0 1.6289063,0.46875 1.640625,1.3242187 z m 1.2685547,-1.921875 v 6.53906254 H 7.3503906 V -2.5909453 c 0,-0.9609375 0.5039063,-1.5820313 1.2773438,-1.5820313 0.234375,0 0.4804687,0.070312 0.65625,0.2109375 0.2226562,0.1523438 0.3046875,0.375 0.3046875,0.703125 v 3.25781254 H 10.338672 V -3.5518828 c 0,-0.7851563 -0.5625001,-1.2773438 -1.4765626,-1.2773438 -0.6679688,0 -1.0664063,0.1992188 -1.5117188,0.7734375 v -2.484375 z m 5.7011716,1.8398438 h -0.75 v 4.69921874 h 0.75 z m 0,-1.8398438 h -0.761718 v 0.9492188 h 0.761718 z m 2.953125,1.8398438 h -0.773437 v -0.7382813 c 0,-0.3046875 0.175781,-0.46875 0.515625,-0.46875 0.07031,0 0.09375,0 0.257812,0.011719 v -0.6210938 c -0.164062,-0.035156 -0.269531,-0.046875 -0.421875,-0.046875 -0.679687,0 -1.101562,0.3984375 -1.101562,1.0664063 v 0.796875 h -0.621094 v 0.609375 h 0.621094 v 4.08984374 h 0.75 V -4.0909453 h 0.773437 z m 2.455078,0 h -0.761718 v -1.2890625 h -0.75 v 1.2890625 h -0.632813 v 0.609375 h 0.632813 v 3.55078124 c 0,0.48046875 0.328125,0.75 0.902343,0.75 0.1875,0 0.363282,-0.0234375 0.609375,-0.0703125 v -0.62109375 c -0.09375,0.0234375 -0.210937,0.0351563 -0.351562,0.0351563 -0.328125,0 -0.410156,-0.09375 -0.410156,-0.421875 V -4.0909453 h 0.761718 z m 4.813477,2.6015625 c 0,-0.7148438 -0.04687,-1.1484375 -0.1875,-1.5 -0.304688,-0.7734375 -1.019531,-1.2304688 -1.898438,-1.2304688 -1.300781,0 -2.144531,0.9960938 -2.144531,2.5429688 0,1.54687499 0.808594,2.49609374 2.132813,2.49609374 1.066406,0 1.816406,-0.609375 2.003906,-1.64062504 h -0.75 c -0.210938,0.62109379 -0.632813,0.94921879 -1.230469,0.94921879 -0.480469,0 -0.878906,-0.22265625 -1.125,-0.60937499 -0.1875,-0.2695313 -0.246094,-0.5390625 -0.257812,-1.0078125 z m -3.433594,-0.609375 c 0.05859,-0.8671875 0.585938,-1.4296875 1.335938,-1.4296875 0.738281,0 1.300781,0.609375 1.300781,1.3710937 0,0.023437 0,0.035156 0,0.058594 z m 8.267578,-3.8320313 h -0.75 v 2.4375 c -0.316406,-0.4804687 -0.808593,-0.7265625 -1.441406,-0.7265625 -1.21875,0 -2.015625,0.9726563 -2.015625,2.4726563 0,1.58203124 0.773438,2.56640624 2.039063,2.56640624 0.644531,0 1.101562,-0.24609375 1.5,-0.83203125 v 0.62109375 h 0.667968 z m -2.0625,2.4023438 c 0.808594,0 1.3125,0.7265625 1.3125,1.8398437 0,1.0898438 -0.515625,1.80468754 -1.3125,1.80468754 -0.820312,0 -1.371093,-0.72656254 -1.371093,-1.81640624 0,-1.1015625 0.550781,-1.828125 1.371093,-1.828125 z m 0,0"
       style="fill:#000000;fill-opacity:1;fill-rule:nonzero;stroke:none"
       aria-label="Shifted"
       transform="matrix(1.3333333,0,0,1.3333333,114.56667,48.396)" />
    <path
       id="path12"
       d="m 4.4063516,-3.6221953 c -0.328125,0.058594 -0.421875,0.3515625 -0.421875,0.4804687 0,0.1757813 0.1171875,0.328125 0.3398437,0.328125 0.2578125,0 0.5039063,-0.2226562 0.5039063,-0.5273437 0,-0.421875 -0.4570313,-0.6210938 -0.8789063,-0.6210938 -0.5390625,0 -0.84375,0.46875 -0.9492187,0.65625 -0.1757813,-0.4335937 -0.5742188,-0.65625 -0.9960938,-0.65625 -0.9609375,0 -1.48828124,1.1484375 -1.48828124,1.3828125 0,0.082031 0.0703125,0.1054688 0.12890625,0.1054688 0.0820313,0 0.10546875,-0.046875 0.12890625,-0.1054688 0.28125004,-0.8789062 0.86718754,-1.1601562 1.20703124,-1.1601562 0.2578125,0 0.4921875,0.1757812 0.4921875,0.5859375 0,0.328125 -0.3867187,1.7578125 -0.5039062,2.19140624 -0.070312,0.28125 -0.3398438,0.83203125 -0.8320313,0.83203125 -0.17578124,0 -0.36328124,-0.0585938 -0.45703124,-0.1171875 0.24609375,-0.0351563 0.42187504,-0.24609375 0.42187504,-0.48046875 0,-0.22265625 -0.16406254,-0.32812504 -0.33984379,-0.32812504 -0.2578125,0 -0.4921875,0.23437504 -0.4921875,0.53906254 0,0.43359375 0.48046875,0.609375 0.85546879,0.609375 0.5273437,0 0.8320312,-0.421875 0.9609375,-0.66796875 0.2226562,0.59765625 0.7617187,0.66796875 0.9960937,0.66796875 0.9726563,0 1.4765625,-1.16015624 1.4765625,-1.37109374 0,-0.046875 -0.023437,-0.1171875 -0.1171875,-0.1171875 -0.09375,0 -0.1054687,0.035156 -0.1523437,0.1757812 -0.1875,0.64453129 -0.7148438,1.08984379 -1.1835938,1.08984379 -0.2578125,0 -0.4921875,-0.15234375 -0.4921875,-0.5859375 0,-0.19921875 0.1171875,-0.69140629 0.1992188,-1.03124999 0.035156,-0.1640625 0.28125,-1.1367188 0.2929687,-1.1953125 0.1171875,-0.3164063 0.3867188,-0.796875 0.84375,-0.796875 0.1523438,0 0.328125,0.023437 0.4570313,0.1171875 z m 0,0"
       style="fill:#000000;fill-opacity:1;fill-rule:nonzero;stroke:none"
       aria-label="x"
       transform="matrix(1.3333333,0,0,1.3333333,155.10533,48.396)" />
    <path
       id="path13"
       d="m 1.8747344,-2.8131953 c 0.046875,-0.082031 0.058594,-0.1523438 0.058594,-0.1875 0,-0.1875 -0.1757812,-0.3398438 -0.3632812,-0.3398438 -0.2460938,0 -0.3164063,0.2109375 -0.3398438,0.2929688 l -0.83203122,2.55468749 c -0.0117188,0.0351563 -0.0351563,0.0820313 -0.0351563,0.10546875 0,0.10546875 0.24609375,0.15234375 0.24609375,0.15234375 0.0585938,0 0.0820313,-0.046875 0.10546875,-0.10546875 z m 0,0"
       style="fill:#000000;fill-opacity:1;fill-rule:nonzero;stroke:none"
       aria-label="0"
       transform="matrix(1.3333333,0,0,1.3333333,162.07067,43.317333)" />
    <path
       id="path14"
       d="M 30.85727,44.19383 67.52762,68.64078"
       style="fill:none;stroke:#ff0000;stroke-width:0.99628;stroke-linecap:butt;stroke-linejoin:miter;stroke-miterlimit:10;stroke-dasharray:none;stroke-opacity:1"
       transform="matrix(1.3333333,0,0,-1.3333333,45.62,151.84533)" />
    <path
       id="path15"
       d="M -2.78957,3.47087 C -2.27992,1.38832 -1.14423,0.40492 0,0 -1.14423,-0.40492 -2.27992,-1.38832 -2.78957,-3.47087"
       style="fill:none;stroke:#ff0000;stroke-width:0.99628;stroke-linecap:round;stroke-linejoin:round;stroke-miterlimit:10;stroke-dasharray:none;stroke-opacity:1"
       transform="matrix(1.10936,-0.73956,-0.73956,-1.10936,136.20947,59.955893)" />
    <path
       id="path16"
       d="m 4.5150624,-1.6796536 c -7.8e-6,-0.9295952 -0.8418505,-1.7161687 -1.8982087,-1.7161599 l -2.19722498,1.83e-5 1.75e-6,0.2112716 c 0.11701193,-0.0065 0.2697776,-0.00325 0.38353941,0.016249 0.17226778,0.01625 0.1755186,0.074756 0.17551965,0.2015192 l -0.00973,2.52875899 c 0.009752,0.13326356 -0.003249,0.19501999 -0.16251497,0.20152199 -0.11701193,0.006502 -0.28602923,0.006503 -0.38678952,0.009754 L 0.42290731,8.0256359e-4 2.6201323,7.8428081e-4 C 3.6667394,-0.00572509 4.5053191,-0.75655896 4.5150624,-1.6796536 Z m -0.5655579,0.00326 c -0.00325,0.4485459 -0.091003,0.81258394 -0.3835303,1.082364 -0.1722664,0.15276708 -0.5265508,0.36729199 -1.0921087,0.37054703 l -0.7443263,-0.003244 c -0.2437749,0.006503 -0.2470254,-0.009749 -0.2405262,-0.1885173 l 0.00323,-2.56126233 c -1.4e-6,-0.1690173 -0.0065,-0.2015206 0.2372726,-0.2080233 l 0.7443263,0.00324 c 0.5818095,-0.00651 0.9458489,0.2502677 1.0726129,0.3770296 0.1885208,0.1820171 0.3997949,0.4777956 0.4030507,1.1278622 z m 2.6831637,1.67958714 -0.00325,-0.22752327 c -0.3380346,2.81e-6 -0.380289,3.17e-6 -0.3770402,-0.19501683 l -1.48e-5,-1.77468174 -0.8190835,0.045511 0.00325,0.2275233 c 0.3477857,0.0065 0.3932905,0.022749 0.3932926,0.276275 l 1.02e-5,1.22537545 c -0.00325,0.15276567 -0.00325,0.19502 -0.3250317,0.19177235 l -0.1007603,0.003251 0.00325,0.22752327 c 0.2080212,-0.0162534 0.4257934,-0.02600621 0.627314,-0.03250855 0.19502,0.0032487 0.399791,0.01299801 0.5980615,0.03249835 z M 6.3043597,-2.9903652 c -1.4e-6,-0.1690173 -0.1365165,-0.3022798 -0.3055338,-0.3022784 -0.1690173,1.4e-6 -0.2925288,0.1430171 -0.2925274,0.3120344 -0.00325,0.1527657 0.1267655,0.2957792 0.2957828,0.2957778 0.1592662,-0.0065 0.2990293,-0.1527681 0.3022784,-0.3055338 z m 3.0862106,2.35321533 C 9.3970691,-0.85817256 9.2735552,-1.0109372 9.0687831,-1.1474495 8.8672615,-1.2677101 8.737248,-1.2839607 8.3082035,-1.3587148 7.9961712,-1.3977162 7.5963798,-1.4529685 7.5931272,-1.7227461 c 0.0065,-0.1787683 0.2145189,-0.364039 0.7475736,-0.3607931 0.4127922,-0.0065 0.6500679,0.1657615 0.6793239,0.5232979 0.019502,0.055255 0.019503,0.09751 0.1137625,0.1040097 0.1007603,-0.00325 0.1007599,-0.045505 0.097509,-0.1462658 l 0.00325,-0.4908003 c -7e-7,-0.084509 -1.1e-6,-0.126763 -0.078009,-0.1365133 -0.022752,0.013002 -0.048755,0.00975 -0.087759,0.026003 -0.013001,0.019502 -0.097509,0.1040114 -0.1235118,0.1007613 0,0 -0.016252,0.00325 -0.045505,-0.016251 -0.1137622,-0.061755 -0.2990315,-0.1007578 -0.5525574,-0.1007557 -0.8190839,0.00326 -0.9913485,0.3672959 -0.9815957,0.5850681 -0.0065,0.4745486 0.578564,0.5688034 1.0238602,0.64030704 0.2892801,0.0520029 0.7410768,0.11375549 0.7410797,0.4517901 0.00975,0.17551789 -0.1397607,0.44204643 -0.7475729,0.44530182 -0.3380346,2.81e-6 -0.6533181,-0.13975887 -0.8093384,-0.6663115 -0.019503,-0.0975098 -0.022753,-0.11376146 -0.1072619,-0.11376075 -0.1007603,0.003251 -0.10076,0.0455055 -0.097509,0.14626579 l -0.0065,0.64356595 c 7e-7,0.08450866 0.00325,0.14301462 0.08776,0.14301392 0.026003,0.0032501 0.022752,-0.01300152 0.1235118,-0.10076135 L 7.7101521,-0.16583763 C 7.9539288,0.03893131 8.2789623,0.0584306 8.3894736,0.06168002 9.2248091,0.0551724 9.3905724,-0.38362391 9.3905703,-0.63714987 Z m 2.5669507,-2.136e-5 -0.0033,-0.2697776 -0.211272,1.76e-6 3e-6,0.25352596 c 3e-6,0.38028894 -0.224269,0.52655578 -0.393286,0.52655719 -0.380289,3.16e-6 -0.383543,-0.39653741 -0.380294,-0.50704876 l -0.0033,-1.28388142 0.887341,-7.4e-6 -0.0033,-0.2275233 -0.887341,7.4e-6 0.0032,-0.9133435 -0.211272,1.7e-6 c 4e-6,0.4647976 -0.250267,0.9458489 -0.754069,0.9621048 l -0.0065,0.1787684 0.533055,0.00325 0.0033,1.28388141 c -0.0032,0.57530893 0.468053,0.69231699 0.780085,0.68906407 0.370538,-0.0065038 0.643564,-0.28928498 0.646811,-0.69557661 z m 2.878972,-1.21808617 c 0.0032,-0.19502 -0.195023,-0.3412833 -0.448549,-0.3412812 -0.243775,0.0065 -0.575308,0.1235174 -0.760573,0.5493125 l -0.01625,0.00325 -4e-6,-0.5493062 -0.793081,0.048762 0.0033,0.2275232 c 0.370538,-0.0065 0.425794,0.016248 0.425796,0.2697741 l 10e-6,1.22537549 c -0.0032,0.15276567 -0.0032,0.19501999 -0.341283,0.19502281 l -0.08451,7e-7 0.0033,0.22752327134 C 13.032573,-0.01555402 13.250346,-0.02530683 13.461617,-0.02530859 l 0.715074,0.0259967104 -0.0033,-0.2275232704 -0.143014,0.003252 c -0.364037,-0.003247 -0.364038,-0.0455016 -0.360789,-0.1982673 l -0.0033,-0.69232085 c -4e-6,-0.4647976 0.256769,-0.9133457 0.734568,-0.9328516 0,0 -0.06826,0.081259 -0.07151,0.1917702 0.0033,0.1852689 0.143017,0.2502744 0.243777,0.2470233 0.136514,0.0065 0.263276,-0.07801 0.263275,-0.2470275 z m 1.937214,1.85836166 -0.0033,-0.22752327 c -0.338034,2.81e-6 -0.380289,3.16e-6 -0.37704,-0.19501683 l -1.5e-5,-1.77468176 -0.819083,0.045511 0.0033,0.2275233 c 0.347786,0.0065 0.393291,0.022749 0.393293,0.276275 l 10e-6,1.22537547 c -0.0032,0.15276567 -0.0032,0.19502 -0.325032,0.19177234 l -0.10076,0.003251 0.0033,0.22752327 c 0.208021,-0.0162534 0.425794,-0.02600621 0.627314,-0.03250855 0.19502,0.0032487 0.399791,0.012998 0.598062,0.03249835 z M 16.445398,-2.9904495 c -1e-6,-0.1690174 -0.136516,-0.3022799 -0.305534,-0.3022785 -0.169017,1.4e-6 -0.292528,0.1430171 -0.292527,0.3120344 -0.0032,0.1527657 0.126765,0.2957793 0.295783,0.2957779 0.159266,-0.0065 0.299029,-0.1527682 0.302278,-0.3055338 z m 4.08731,1.9079113 c -5e-6,-0.5915606 -0.552566,-1.1148595 -1.322895,-1.1213538 -0.269778,0.00325 -0.575308,0.081263 -0.838584,0.2860363 l -0.0033,-1.5374074 -0.841836,0.058513 2e-6,0.2112716 c 0.370538,-0.0065 0.429044,0.0325 0.419295,0.2795251 l 0.0065,2.9057975238 0.19502,0.003248706 c 0.0455,-0.06825736 0.08451,-0.12676368 0.120261,-0.20152163 0.0098,-0.0357537 0.02925,-0.0650069 0.04875,-0.0942601 0.214524,0.22752151 0.526557,0.35103156 0.838589,0.34777864 0.754077,0.0097447 1.368386,-0.51031365 1.378132,-1.13762794 z m -0.507052,4.2e-6 c 2e-6,0.29578032 -0.065,0.56230816 -0.260021,0.72807675 -0.152764,0.16576825 -0.406289,0.25027901 -0.650064,0.25678171 -0.338035,2.81e-6 -0.591563,-0.21126672 -0.74433,-0.42578741 l -10e-6,-1.14086685 c 0.195018,-0.2502772 0.507049,-0.3802931 0.802829,-0.3802956 0.591561,-4.9e-6 0.848341,0.4387879 0.851596,0.9620914 z m 4.257132,1.07744995 -0.0033,-0.22752327 c -0.354286,0.003253 -0.409542,-0.0194986 -0.409544,-0.27302456 l -1.4e-5,-1.69017302 -0.861338,0.045512 0.0033,0.2275232 c 0.364037,0.00325 0.419293,0.025999 0.419295,0.2795252 l 0.0033,0.81908383 c -0.0032,0.44854596 -0.35428,0.72157684 -0.760572,0.71832989 -0.4973,0.0065048 -0.523305,-0.20801695 -0.523307,-0.46154291 l 0.0032,-1.63166711 -0.867839,0.055263 0.0033,0.2275232 c 0.39654,-0.00325 0.419293,0.025999 0.419295,0.2795252 l -0.0032,1.08236084 c 0.05526,0.57205812 0.620818,0.61105741 0.942601,0.61430507 0.412792,-0.0065041 0.646815,-0.18852469 0.802829,-0.42254995 l 3e-6,0.42254327 z m 2.552319,-0.63302356 -0.0033,-0.2697776 -0.211272,1.76e-6 3e-6,0.25352596 c 3e-6,0.38028894 -0.224269,0.52655579 -0.393286,0.52655719 -0.380289,3.17e-6 -0.383543,-0.39653741 -0.380294,-0.50704876 l -0.0033,-1.28388144 0.887341,-7.4e-6 -0.0033,-0.2275233 -0.887341,7.4e-6 0.0032,-0.9133435 -0.211272,1.7e-6 c 4e-6,0.4647976 -0.250267,0.945849 -0.754069,0.9621048 l -0.0065,0.1787684 0.533055,0.00325 0.0033,1.28388143 c -0.0032,0.57530894 0.468053,0.692317 0.780085,0.68906407 0.370538,-0.0065038 0.643564,-0.28928498 0.646811,-0.69557661 z m 2.118409,0.64111052 -0.0033,-0.22752327 c -0.338034,2.82e-6 -0.380289,3.17e-6 -0.37704,-0.19501683 l -1.5e-5,-1.77468171 -0.819083,0.045511 0.0033,0.2275232 c 0.347786,0.0065 0.39329,0.022749 0.393292,0.276275 l 1.1e-5,1.22537553 c -0.0032,0.15276567 -0.0032,0.19501999 -0.325032,0.19177234 l -0.10076,0.003251 0.0033,0.22752327 c 0.208021,-0.01625339 0.425793,-0.02600621 0.627314,-0.03250855 0.19502,0.0032487 0.399791,0.01299801 0.598061,0.03249835 z M 28.625208,-2.9905509 c -2e-6,-0.1690173 -0.136517,-0.3022798 -0.305534,-0.3022784 -0.169017,1.4e-6 -0.292529,0.1430171 -0.292527,0.3120344 -0.0032,0.1527657 0.126765,0.2957792 0.295782,0.2957778 0.159267,-0.0065 0.29903,-0.1527681 0.302279,-0.3055338 z m 3.768777,1.9209154 c -0.0065,-0.6240639 -0.58507,-1.150613 -1.361899,-1.1473562 -0.786581,-0.00324 -1.374887,0.5200647 -1.368381,1.1441285 -0.0065,0.60131167 0.581819,1.13436135 1.3684,1.13760514 0.776829,-0.0032568 1.355384,-0.53306586 1.36188,-1.13437744 z m -0.507053,-0.04225 c 0.0065,0.24377495 0.0033,0.9881012 -0.858079,0.9913587 -0.88084,-0.009744 -0.877596,-0.75406992 -0.884099,-0.9978448 0.0065,-0.2210227 -0.0033,-0.9458469 0.877582,-0.9361032 0.861338,-0.00326 0.871095,0.7215667 0.864596,0.9425893 z m 4.231943,1.10995349 -0.0033,-0.22752327 -0.08451,7e-7 c -0.328283,0.006503 -0.328284,-0.0357509 -0.325035,-0.18851659 l 0.0032,-1.08236083 c -5e-6,-0.5493063 -0.367294,-0.6955682 -0.832091,-0.6955643 -0.533055,-0.00325 -0.812581,0.2892863 -0.932842,0.490808 l 0.0032,-0.4908003 -0.825584,0.055262 0.0033,0.2275233 c 0.370538,-0.0065 0.416042,0.00975 0.416044,0.2632735 l 1.1e-5,1.22537547 c -0.0032,0.15276567 -0.0032,0.19502 -0.315281,0.19827293 l -0.10076,0.003251 0.0033,0.22752327 c 0.208021,-0.01625339 0.425793,-0.0260062 0.637065,-0.02600796 0.211272,-1.76e-6 0.416043,0.0097475 0.630565,0.02599741 l -0.0033,-0.22752327 -0.08451,7e-7 c -0.321783,-0.003248 -0.321784,-0.045502 -0.318534,-0.19826765 l 0.0032,-0.8710893 c -0.0098,-0.5558068 0.500545,-0.750831 0.822328,-0.7475833 0.364037,0.00325 0.448547,0.2145182 0.4453,0.5363012 l 0.0065,1.08886144 c -0.0032,0.15276567 -0.0032,0.19502 -0.325031,0.19177234 l -0.09426,-0.0065 0.0033,0.22752327 c 0.208021,-0.01625339 0.425794,-0.0260062 0.637065,-0.02600796 0.211272,-1.76e-6 0.416043,0.0097475 0.630565,0.02599741 z m 5.072139,-0.63629485 c 0.0065,-0.22102269 -0.117015,-0.37378734 -0.321787,-0.51029954 -0.201522,-0.1202607 -0.331535,-0.1365113 -0.76058,-0.2112653 -0.312032,-0.039001 -0.711823,-0.094254 -0.715076,-0.3640314 0.0065,-0.1787683 0.214519,-0.364039 0.747574,-0.3607931 0.412792,-0.0065 0.650068,0.1657615 0.679324,0.5232979 0.0195,0.055256 0.0195,0.09751 0.113762,0.1040097 0.10076,-0.00325 0.10076,-0.045505 0.09751,-0.1462658 l 0.0032,-0.4908003 c -1e-6,-0.084509 -1e-6,-0.126763 -0.07801,-0.1365133 -0.02275,0.013001 -0.04875,0.00975 -0.08776,0.026003 -0.013,0.019502 -0.09751,0.1040114 -0.123512,0.1007613 0,0 -0.01625,0.00325 -0.0455,-0.016251 -0.113763,-0.061755 -0.299032,-0.1007578 -0.552558,-0.1007557 -0.819084,0.00326 -0.991348,0.3672959 -0.981596,0.5850681 -0.0065,0.4745487 0.578564,0.5688034 1.023861,0.64030705 0.28928,0.0520029 0.741076,0.11375549 0.741079,0.4517901 0.0098,0.17551789 -0.13976,0.44204643 -0.747573,0.44530182 -0.338034,2.81e-6 -0.653318,-0.13975887 -0.809338,-0.6663115 -0.0195,-0.0975098 -0.02275,-0.11376146 -0.107262,-0.11376075 -0.10076,0.003251 -0.10076,0.0455055 -0.09751,0.14626579 l -0.0065,0.64356595 c 10e-7,0.08450866 0.0033,0.14301462 0.08776,0.14301392 0.026,0.0032501 0.02275,-0.01300152 0.123512,-0.10076135 l 0.136513,-0.12026345 c 0.243777,0.20476894 0.56881,0.22426823 0.679321,0.22751765 0.835336,-0.0065076 1.001099,-0.44530393 1.001097,-0.69882989 z m 3.750077,0.6337837 -0.0033,-0.22752328 -0.08451,7.1e-7 c -0.328284,0.006503 -0.328284,-0.0357509 -0.325035,-0.1885166 l 0.0032,-1.08236087 c -5e-6,-0.5493062 -0.367294,-0.6955682 -0.832091,-0.6955643 -0.575309,-0.00325 -0.828833,0.3347912 -0.916591,0.4453032 l -0.0033,-1.7064247 -0.832085,0.065014 2e-6,0.2112716 c 0.370538,-0.0065 0.419293,0.025999 0.409544,0.2730246 l 0.0065,2.48325421 c -0.0032,0.15276567 -0.0032,0.19502 -0.31528,0.19827293 l -0.10076,0.003251 0.0033,0.22752327 c 0.208021,-0.01625339 0.425793,-0.0260062 0.637065,-0.02600796 0.211271,-1.76e-6 0.416042,0.0097475 0.630565,0.02599741 l -0.0033,-0.22752327 -0.08451,7.1e-7 c -0.321783,-0.003248 -0.321784,-0.045502 -0.318535,-0.19826766 l 0.0032,-0.87108924 c -0.0098,-0.5558068 0.500545,-0.7508311 0.822328,-0.7475834 0.364037,0.00325 0.448547,0.2145182 0.4453,0.5363012 l 0.0065,1.08886148 c -0.0032,0.15276567 -0.0032,0.19502 -0.325031,0.19177234 l -0.09426,-0.0065 0.0033,0.22752327 c 0.208021,-0.01625339 0.425794,-0.0260062 0.637065,-0.02600796 0.211272,-1.76e-6 0.416043,0.0097475 0.630565,0.02599742 z m 1.970514,0.00729685 -0.0033,-0.22752327 c -0.338035,2.81e-6 -0.380289,3.16e-6 -0.37704,-0.19501684 l -1.5e-5,-1.77468168 -0.819083,0.045511 0.0033,0.2275233 c 0.347785,0.0065 0.39329,0.022749 0.393292,0.276275 l 1.1e-5,1.2253755 c -0.0033,0.15276567 -0.0032,0.19502 -0.325032,0.19177234 l -0.10076,0.003251 0.0033,0.22752327 c 0.208021,-0.01625339 0.425793,-0.0260062 0.627314,-0.03250854 0.19502,0.0032487 0.399791,0.012998 0.598061,0.03249835 z M 46.583297,-2.9907003 c -2e-6,-0.1690173 -0.136517,-0.3022798 -0.305534,-0.3022784 -0.169017,1.4e-6 -0.292529,0.143017 -0.292527,0.3120344 -0.0032,0.1527656 0.126765,0.2957792 0.295782,0.2957778 0.159267,-0.0065 0.29903,-0.1527682 0.302279,-0.3055338 z m 3.030934,-0.1202876 c 0.0065,-0.2210226 -0.198274,-0.3997892 -0.546059,-0.406287 -0.422543,3.5e-6 -0.949095,0.2827868 -0.958841,0.8255925 l 4e-6,0.5493063 -0.474549,-0.0065 0.0033,0.2275233 0.474548,0.0065 0.0033,1.4951531 c -0.0032,0.15276567 -0.0032,0.19502 -0.325032,0.19177234 l -0.08451,7e-7 0.0033,0.22752327513 C 47.917583,-0.01665688 48.145106,-0.01990911 48.356378,-0.01991086 L 49.0617,-4.147358e-4 49.0584,-0.22793801 l -0.136514,-0.0065 c -0.386789,0.009754 -0.38679,-0.0325001 -0.383541,-0.18526578 l -0.0033,-1.49515311 0.708572,-0.00651 -0.0033,-0.2275232 -0.734575,0.00326 0.0097,-0.5428056 c -4e-6,-0.4647976 0.315277,-0.6630706 0.5428,-0.6663228 0.026,0.00325 0.139765,0.022751 0.136515,0.048754 l -0.0098,-0.0065 c -0.03575,0.032504 -0.08451,0.084509 -0.08776,0.1950207 0.0033,0.1430146 0.110514,0.2567754 0.263279,0.2600244 0.169018,-1.4e-6 0.256776,-0.1105134 0.253524,-0.2535281 z m 2.068858,2.4742987 -0.0033,-0.2697776 -0.211272,1.76e-6 2e-6,0.25352596 c 4e-6,0.38028894 -0.224268,0.52655579 -0.393285,0.52655719 -0.380289,3.17e-6 -0.383543,-0.39653741 -0.380294,-0.50704876 l -0.0033,-1.28388145 0.887341,-7.4e-6 -0.0033,-0.2275232 -0.887341,7.3e-6 0.0032,-0.9133435 -0.211272,1.7e-6 c 4e-6,0.4647976 -0.250268,0.945849 -0.754069,0.9621048 l -0.0065,0.1787684 0.533054,0.00325 0.0033,1.28388144 c -0.0032,0.57530894 0.468054,0.692317 0.780086,0.68906407 0.370538,-0.0065038 0.643564,-0.28928498 0.646811,-0.69557661 z m 0,0"
       style="fill:#ff0000;fill-opacity:1;fill-rule:nonzero;stroke:none"
       aria-label="Distributionshift"
       transform="matrix(1.10936,-0.73956,0.73956,1.10936,75.624,94.14)" />
    <path
       id="path17"
       d="M 2.92428,-3.458026 C 2.865773,-3.539284 2.826769,-3.5652862 2.7260089,-3.562035 2.6154975,-3.565285 2.5862447,-3.542532 2.5277394,-3.4547724 l -2.04768197,3.32510752 c -0.0292525,0.0650069 -0.0292525,0.0650069 -0.035753,0.07475795 0.003251,0.05850597 0.0455051,0.05850562 0.12026275,0.05200433 L 4.8842595,0.00356212 c 0.084509,-7e-7 0.126763,-1.05e-6 0.1235122,-0.05850702 0.0065,-0.0097511 0.0065,-0.0097511 -0.022753,-0.07150713 z m -0.3770353,0.3965437 1.6024358,2.60350327 -3.21782946,0.009778 z m 0,0"
       style="fill:#ff0000;fill-opacity:1;fill-rule:nonzero;stroke:none"
       aria-label="∆"
       transform="matrix(1.10936,-0.73956,0.73956,1.10936,136.10631,53.819189)" />
    <path
       id="path18"
       d="m 90.7097,42.5202 c 0,34.4425 -27.92038,62.36289 -62.3629,62.36289 -34.4425,0 -62.36288,-27.92039 -62.36288,-62.36289 0,-34.44252 27.92038,-62.36288 62.36288,-62.36288 34.44252,0 62.3629,27.92036 62.3629,62.36288 z"
       style="fill:none;stroke:#bf8040;stroke-width:0.3985;stroke-linecap:butt;stroke-linejoin:miter;stroke-miterlimit:10;stroke-dasharray:2.98883, 2.98883;stroke-dashoffset:0;stroke-opacity:1"
       transform="matrix(1.3333333,0,0,-1.3333333,45.62,151.84533)" />
    <path
       id="path19"
       d="m 3.2462578,-0.90098437 c 0,-0.37500003 -0.2226562,-0.59765623 -0.3164062,-0.67968753 -0.234375,-0.2226562 -0.5039063,-0.28125 -0.9140625,-0.3515625 -0.28125,-0.058594 -0.5625,-0.1171875 -0.6210938,-0.1289062 -0.1992187,-0.035156 -0.60937499,-0.2226563 -0.60937499,-0.5976563 0,-0.328125 0.37499999,-0.6445312 0.91406249,-0.6445312 0.890625,0 1.1015625,0.5859375 1.1601563,0.9492187 0.011719,0.070312 0.035156,0.082031 0.1054687,0.082031 0.1054688,0 0.1054688,-0.035156 0.1054688,-0.140625 v -0.9609375 c 0,-0.082031 0,-0.140625 -0.082031,-0.140625 -0.023437,0 -0.046875,0 -0.09375,0.070312 l -0.1992187,0.2929687 c -0.234375,-0.2226562 -0.5390625,-0.3632812 -0.9960938,-0.3632812 -0.70312499,0 -1.21874999,0.4453125 -1.21874999,0.9492187 0,0.2695313 0.15234375,0.4921875 0.3046875,0.6210938 0.25781249,0.2109375 0.50390629,0.2578125 0.73828129,0.3046875 l 0.7851562,0.1523437 c 0.328125,0.082031 0.6328125,0.328125 0.6328125,0.66796878 0,0.3515625 -0.3515625,0.71484375 -0.9257812,0.71484375 -0.2226563,0 -0.6445313,-0.0351563 -0.9492188,-0.234375 -0.23437499,-0.1640625 -0.36328124,-0.38671875 -0.37499999,-0.67968753 0,-0.082031 0,-0.1054687 -0.10546875,-0.1054687 -0.10546875,0 -0.10546875,0.035156 -0.10546875,0.14062498 v 0.94921875 c 0,0.09375 0,0.140625 0.0820313,0.140625 0.046875,0 0.0585938,-0.01171875 0.09375,-0.05859375 0.0234375,-0.0234375 0.1875,-0.28125 0.1875,-0.28125 0.37499999,0.28125 0.83203119,0.33984375 1.17187499,0.33984375 0.75,0 1.2304688,-0.4921875 1.2304684,-1.0078117 z m 3.8876953,0.90234375 v -0.22265625 h -0.082031 c -0.328125,0 -0.328125,-0.046875 -0.328125,-0.19921875 V -1.4986406 c 0,-0.5507813 -0.375,-0.703125 -0.8320313,-0.703125 -0.5742187,0 -0.8320312,0.3398437 -0.9140625,0.4570312 v -1.7109375 l -0.8320312,0.058594 v 0.2109375 c 0.3632812,0 0.4101562,0.035156 0.4101562,0.28125 v 2.48437498 c 0,0.15234375 0,0.19921875 -0.3164062,0.19921875 h -0.09375 v 0.22265625 c 0.2109375,-0.01171875 0.421875,-0.0234375 0.6328125,-0.0234375 0.2109375,0 0.421875,0.01171875 0.6328125,0.0234375 v -0.22265625 h -0.082031 c -0.328125,0 -0.328125,-0.046875 -0.328125,-0.19921875 V -1.2877031 c 0,-0.5625 0.515625,-0.75 0.8320313,-0.75 0.3632812,0 0.4453125,0.2109375 0.4453125,0.5273437 v 1.08984378 c 0,0.15234375 0,0.19921875 -0.3164063,0.19921875 h -0.09375 v 0.22265625 c 0.2109375,-0.01171875 0.421875,-0.0234375 0.6328125,-0.0234375 0.2109375,0 0.421875,0.01171875 0.632812,0.0234375 z m 1.9658203,0 v -0.22265625 c -0.3398437,0 -0.375,0 -0.375,-0.19921875 V -2.2017656 l -0.8203125,0.058594 v 0.2226563 c 0.3515625,0 0.3984375,0.023437 0.3984375,0.2695312 v 1.23046878 c 0,0.15234375 0,0.19921875 -0.328125,0.19921875 h -0.09375 v 0.22265625 c 0.2109375,-0.01171875 0.421875,-0.0234375 0.6210938,-0.0234375 0.1875,0 0.4101562,0.01171875 0.5976562,0.0234372 z M 8.7716484,-2.9869219 c 0,-0.1640625 -0.1289062,-0.3046875 -0.3046875,-0.3046875 -0.1640625,0 -0.2929687,0.140625 -0.2929687,0.3046875 0,0.1640625 0.1289062,0.3046875 0.2929687,0.3046875 0.1640625,0 0.3046875,-0.140625 0.3046875,-0.3046875 z m 3.0410156,-0.1289062 c 0,-0.2226563 -0.210937,-0.3984375 -0.550781,-0.3984375 -0.433594,0 -0.949219,0.28125 -0.949219,0.8203125 v 0.5507812 H 9.8321953 v 0.2226563 h 0.4804687 v 1.49999998 c 0,0.15234375 0,0.19921875 -0.3281249,0.19921875 h -0.082031 v 0.22265625 c 0.2109369,-0.01171875 0.4335939,-0.0234375 0.6445309,-0.0234375 l 0.703125,0.0234375 v -0.22265625 h -0.128906 c -0.386719,0 -0.386719,-0.046875 -0.386719,-0.19921875 V -1.9205156 h 0.703125 v -0.2226563 h -0.726562 v -0.5390625 c 0,-0.46875 0.316406,-0.6679687 0.539062,-0.6679687 0.03516,0 0.140625,0.011719 0.140625,0.035156 h -0.01172 c -0.03516,0.035156 -0.08203,0.09375 -0.08203,0.1992188 0,0.140625 0.105469,0.2578125 0.257813,0.2578125 0.164062,0 0.257812,-0.1171875 0.257812,-0.2578123 z m 2.0625,2.48437498 v -0.26953125 h -0.210937 v 0.2578125 c 0,0.375 -0.222657,0.515625 -0.398438,0.515625 -0.375,0 -0.375,-0.3984375 -0.375,-0.50390625 V -1.9205156 h 0.878906 v -0.2226563 h -0.878906 v -0.9140625 h -0.210937 c -0.01172,0.46875 -0.257813,0.9492188 -0.761719,0.9609375 v 0.1757813 h 0.527344 v 1.28906248 c 0,0.57421875 0.46875,0.69140625 0.773437,0.69140625 0.375,0 0.65625,-0.28125 0.65625,-0.69140625 z m 7.96875,0.6328125 v -0.22265625 h -0.08203 c -0.328125,0 -0.328125,-0.046875 -0.328125,-0.19921875 V -1.4986406 c 0,-0.6210938 -0.46875,-0.703125 -0.84375,-0.703125 -0.492188,0 -0.773438,0.2460937 -0.914063,0.46875 -0.117187,-0.4570313 -0.632812,-0.46875 -0.808593,-0.46875 -0.515625,0 -0.808594,0.28125 -0.925782,0.4921875 v -0.4921875 l -0.820312,0.058594 v 0.2226563 c 0.363281,0 0.410156,0.023437 0.410156,0.2695312 v 1.23046878 c 0,0.15234375 0,0.19921875 -0.316406,0.19921875 h -0.09375 v 0.22265625 c 0.210937,-0.01171875 0.421875,-0.0234375 0.632812,-0.0234375 0.210938,0 0.421875,0.01171875 0.632813,0.0234375 v -0.22265625 h -0.08203 c -0.328125,0 -0.328125,-0.046875 -0.328125,-0.19921875 V -1.2877031 c 0,-0.5507813 0.503906,-0.75 0.832031,-0.75 0.363281,0 0.457031,0.2109375 0.457031,0.5273437 v 1.08984378 c 0,0.15234375 0,0.19921875 -0.328125,0.19921875 h -0.09375 v 0.22265625 c 0.222656,-0.01171875 0.421875,-0.0234375 0.644531,-0.0234375 0.210938,0 0.421875,0.01171875 0.632813,0.0234375 v -0.22265625 h -0.09375 c -0.328125,0 -0.328125,-0.046875 -0.328125,-0.19921875 V -1.2877031 c 0,-0.5507813 0.515625,-0.75 0.832031,-0.75 0.363281,0 0.457031,0.2109375 0.457031,0.5273437 v 1.08984378 c 0,0.15234375 0,0.19921875 -0.328125,0.19921875 h -0.08203 v 0.22265625 c 0.210938,-0.01171875 0.421875,-0.0234375 0.632813,-0.0234375 0.210937,0 0.421875,0.01171875 0.632812,0.0234375 z m 3.498047,-0.4453125 v -0.28125 h -0.210938 v 0.26953125 c 0,0.046875 0,0.26953125 -0.199218,0.26953125 -0.199219,0 -0.199219,-0.22265625 -0.199219,-0.26953125 V -1.4752031 c 0,-0.4804688 -0.503906,-0.75 -1.125,-0.75 -0.304688,0 -0.878906,0.011719 -0.878906,0.4335937 0,0.1875 0.140625,0.2695313 0.269531,0.2695313 0.128906,0 0.257812,-0.09375 0.257812,-0.2695313 0,-0.1171875 -0.07031,-0.1875 -0.117187,-0.2226562 0.164062,-0.046875 0.410156,-0.046875 0.46875,-0.046875 0.421875,0 0.679687,0.234375 0.679687,0.5859375 v 0.1289062 c -0.480468,0.023437 -0.75,0.046875 -1.136718,0.1757813 -0.328125,0.1171875 -0.609375,0.32812498 -0.609375,0.64453123 0,0.46875 0.574218,0.5859375 0.972656,0.5859375 0.386719,0 0.679687,-0.1640625 0.832031,-0.41015625 0.02344,0.17578125 0.140625,0.38671875 0.386719,0.38671875 0.03516,0 0.609375,0 0.609375,-0.48046875 z m -1.054688,-0.2578125 c 0,0.5390625 -0.597656,0.59765625 -0.714843,0.59765625 -0.292969,0 -0.574219,-0.1640625 -0.574219,-0.421875 0,-0.1640625 0.105469,-0.62109373 1.289062,-0.66796873 z m 4.447266,-1.26562498 c 0,-0.1289063 -0.105469,-0.2929688 -0.339844,-0.2929688 -0.128906,0 -0.386718,0.035156 -0.65625,0.234375 -0.105468,-0.070312 -0.339843,-0.1757812 -0.644531,-0.1757812 -0.585937,0 -0.996094,0.3515625 -0.996094,0.7382812 0,0.2460938 0.1875,0.4335938 0.257813,0.49218753 -0.117188,0.140625 -0.152344,0.29296875 -0.152344,0.41015625 0,0.2578125 0.175781,0.421875 0.222656,0.45703125 -0.257812,0.0703125 -0.539062,0.22265625 -0.539062,0.4921875 0,0.38671875 0.65625,0.64453127 1.382812,0.64453127 0.65625,0 1.371094,-0.22265627 1.371094,-0.65625002 0,-0.22265625 -0.128906,-0.46875 -0.375,-0.5859375 -0.328125,-0.15234375 -0.644531,-0.15234375 -1.183594,-0.15234375 -0.117187,0 -0.339843,0 -0.363281,-0.0117188 -0.246094,-0.0351563 -0.292969,-0.234375 -0.292969,-0.328125 0,-0.09375 0.04687,-0.17578125 0.05859,-0.17578125 0,0 0.02344,0 0.03516,0.0117188 0.199219,0.10546875 0.398438,0.12890625 0.574219,0.12890625 0.585938,0 0.996094,-0.35156253 0.996094,-0.72656253 0,-0.2460937 -0.164063,-0.421875 -0.222656,-0.46875 0.234375,-0.1523437 0.457031,-0.1523437 0.539062,-0.1640625 -0.01172,0.023437 -0.04687,0.058594 -0.04687,0.1289063 0,0.09375 0.07031,0.1757812 0.1875,0.1757812 0.117188,0 0.1875,-0.082031 0.1875,-0.1757812 z m -1.089844,0.5039062 c 0,0.2695313 -0.117187,0.56250003 -0.550781,0.56250003 -0.433594,0 -0.5625,-0.29296873 -0.5625,-0.56250003 0,-0.28125 0.128906,-0.5742187 0.5625,-0.5742187 0.433594,0 0.550781,0.2929687 0.550781,0.5742187 z m 0.65625,1.85156253 c 0,0.24609375 -0.445312,0.48046875 -1.03125,0.48046875 -0.574218,0 -1.042968,-0.22265625 -1.042968,-0.4921875 0,-0.15234375 0.175781,-0.36328125 0.550781,-0.36328125 h 0.316406 c 0.503906,0 1.207031,0 1.207031,0.375 z m 4.057617,-0.38671875 v -0.22265625 h -0.08203 c -0.328125,0 -0.328125,-0.046875 -0.328125,-0.19921875 V -1.4986406 c 0,-0.5507813 -0.375,-0.703125 -0.832031,-0.703125 -0.539063,0 -0.820313,0.2929687 -0.925781,0.4921875 v -0.4921875 l -0.820313,0.058594 v 0.2226563 c 0.363281,0 0.410156,0.023437 0.410156,0.2695312 v 1.23046878 c 0,0.15234375 0,0.19921875 -0.316406,0.19921875 h -0.09375 v 0.22265625 c 0.210938,-0.01171875 0.421875,-0.0234375 0.632813,-0.0234375 0.210937,0 0.421875,0.01171875 0.632812,0.0234375 v -0.22265625 h -0.08203 c -0.328125,0 -0.328125,-0.046875 -0.328125,-0.19921875 V -1.2877031 c 0,-0.5625 0.515625,-0.75 0.832031,-0.75 0.363281,0 0.445313,0.2109375 0.445313,0.5273437 v 1.08984378 c 0,0.15234375 0,0.19921875 -0.316407,0.19921875 h -0.09375 v 0.22265625 c 0.210938,-0.01171875 0.421875,-0.0234375 0.632813,-0.0234375 0.210937,0 0.421875,0.01171875 0.632812,0.0234375 z m 1.96875,0 v -0.22265625 c -0.339843,0 -0.375,0 -0.375,-0.19921875 V -2.2017656 L 33.132,-2.1431719 v 0.2226563 c 0.351562,0 0.398437,0.023437 0.398437,0.2695312 v 1.23046878 c 0,0.15234375 0,0.19921875 -0.328125,0.19921875 h -0.09375 v 0.22265625 c 0.210938,-0.01171875 0.421875,-0.0234375 0.621094,-0.0234375 0.1875,0 0.410156,0.01171875 0.597656,0.0234375 z M 33.999187,-2.9869219 c 0,-0.1640625 -0.128906,-0.3046875 -0.304687,-0.3046875 -0.164063,0 -0.292969,0.140625 -0.292969,0.3046875 0,0.1640625 0.128906,0.3046875 0.292969,0.3046875 0.164062,0 0.304687,-0.140625 0.304687,-0.3046875 z m 2.920899,2.35546878 v -0.26953125 h -0.210938 v 0.2578125 c 0,0.375 -0.222656,0.515625 -0.398437,0.515625 -0.375,0 -0.375,-0.3984375 -0.375,-0.50390625 V -1.9205156 h 0.878906 v -0.2226563 h -0.878906 v -0.9140625 h -0.210938 c -0.01172,0.46875 -0.257812,0.9492188 -0.761718,0.9609375 v 0.1757813 h 0.527343 v 1.28906248 c 0,0.57421875 0.46875,0.69140625 0.773438,0.69140625 0.375,0 0.65625,-0.28125 0.65625,-0.69140625 z m 3.881836,0.6328125 v -0.22265625 c -0.363281,0 -0.410156,-0.0351562 -0.410156,-0.28125 V -2.2017656 l -0.855469,0.058594 v 0.2226563 c 0.363281,0 0.410156,0.023437 0.410156,0.2695312 v 0.82031253 c 0,0.45703125 -0.339844,0.7265625 -0.75,0.7265625 -0.503906,0 -0.527344,-0.2109375 -0.527344,-0.45703125 V -2.2017656 l -0.855468,0.058594 v 0.2226563 c 0.386718,0 0.410156,0.035156 0.410156,0.2929687 v 1.07812503 c 0.04687,0.5625 0.609375,0.609375 0.9375,0.609375 0.410156,0 0.65625,-0.1875 0.808594,-0.421875 v 0.421875 z m 3.691406,0 v -0.22265625 c -0.363281,0 -0.410156,-0.0351562 -0.410156,-0.28125 V -3.4556719 l -0.84375,0.058594 v 0.2109375 c 0.375,0 0.421875,0.035156 0.421875,0.28125 v 0.9726562 c -0.117188,-0.09375 -0.386719,-0.2695312 -0.796875,-0.2695312 -0.75,0 -1.359375,0.5039062 -1.359375,1.1367187 0,0.59765628 0.5625,1.12500003 1.300781,1.12500003 0.410156,0 0.691406,-0.1875 0.832031,-0.3046875 v 0.3046875 z m -0.855469,-0.5390625 c -0.234375,0.36328125 -0.609375,0.43359375 -0.796875,0.43359375 -0.257812,0 -0.503906,-0.10546875 -0.667968,-0.328125 -0.164063,-0.19921875 -0.175782,-0.48046875 -0.175782,-0.63281253 0,-0.140625 0.01172,-0.46875 0.222657,-0.6914062 0.175781,-0.1875 0.433593,-0.28125 0.679687,-0.28125 0.140625,0 0.503906,0.035156 0.738281,0.375 z m 3.958008,-0.0585938 c 0,-0.0820313 -0.07031,-0.0820313 -0.09375,-0.0820313 -0.08203,0 -0.09375,0.0234375 -0.117187,0.09375 -0.140625,0.33984375 -0.515625,0.45703125 -0.785157,0.45703125 -0.410156,0 -0.632812,-0.22265625 -0.703125,-0.3046875 -0.199218,-0.234375 -0.199218,-0.55078125 -0.199218,-0.69140623 h 1.757812 c 0.105469,0 0.140625,0 0.140625,-0.1171875 0,-0.328125 -0.175781,-0.984375 -1.101562,-0.984375 -0.761719,0 -1.289063,0.5390625 -1.289063,1.125 0,0.63281248 0.597656,1.16015623 1.359375,1.16015623 0.796875,0 1.03125,-0.5625 1.03125,-0.65624995 z m -0.375,-0.67968758 h -1.511719 c 0.05859,-0.65625 0.539063,-0.7851562 0.773438,-0.7851562 0.691406,0 0.726562,0.6445312 0.738281,0.7851562 z m 0,0"
       style="fill:#bf8040;fill-opacity:1;fill-rule:nonzero;stroke:none"
       aria-label="Shiftmagnitude"
       transform="matrix(1.3333333,0,0,1.3333333,38.324,191.756)" />
    <path
       id="path20"
       d="m 1.2770156,-3.5142656 c 0,-0.082031 0,-0.2226563 -0.140625,-0.2226563 -0.14062498,0 -0.14062498,0.140625 -0.14062498,0.2226563 v 4.546875 c 0,0.082031 0,0.2109375 0.14062498,0.2109375 0.140625,0 0.140625,-0.1289063 0.140625,-0.2109375 z m 2.3876953,-0.011719 c 0,-0.082031 0,-0.2109375 -0.140625,-0.2109375 -0.140625,0 -0.140625,0.1523438 -0.140625,0.234375 v 4.5234375 c 0,0.082031 0,0.2226563 0.140625,0.2226563 0.140625,0 0.140625,-0.1289063 0.140625,-0.1992188 z m 1.1835938,0.023437 c 0,-0.082031 0,-0.234375 -0.140625,-0.234375 -0.140625,0 -0.140625,0.1289063 -0.140625,0.2109375 v 4.5703125 c 0,0.070312 0,0.1992188 0.140625,0.1992188 0.140625,0 0.140625,-0.140625 0.140625,-0.2226563 z m 0,0"
       style="fill:#bf8040;fill-opacity:1;fill-rule:nonzero;stroke:none"
       aria-label="|k"
       transform="matrix(1.3333333,0,0,1.3333333,105.352,191.756)" />
    <path
       id="path21"
       d="m 2.9295547,-3.4556719 c -0.058594,-0.082031 -0.09375,-0.1054687 -0.1992188,-0.1054687 -0.1054687,0 -0.140625,0.023437 -0.1992187,0.1054687 l -2.05078126,3.32812503 c -0.0351563,0.05859375 -0.0351563,0.05859375 -0.0351563,0.0703125 0,0.05859375 0.046875,0.05859375 0.1171875,0.05859375 H 4.8865859 c 0.082031,0 0.1289063,0 0.1289063,-0.05859375 0,-0.01171875 0,-0.01171875 -0.035156,-0.0703125 z m -0.375,0.3984375 1.6054687,2.60156253 H 0.93736719 Z m 0,0"
       style="fill:#bf8040;fill-opacity:1;fill-rule:nonzero;stroke:none"
       aria-label="∆"
       transform="matrix(1.3333333,0,0,1.3333333,113.28533,191.756)" />
    <path
       id="path22"
       d="m 1.2780078,-3.5142656 c 0,-0.082031 0,-0.2226563 -0.140625,-0.2226563 -0.14062499,0 -0.14062499,0.140625 -0.14062499,0.2226563 v 4.546875 c 0,0.082031 0,0.2109375 0.14062499,0.2109375 0.140625,0 0.140625,-0.1289063 0.140625,-0.2109375 z m 2.3876953,-0.011719 c 0,-0.082031 0,-0.2109375 -0.140625,-0.2109375 -0.140625,0 -0.140625,0.1523438 -0.140625,0.234375 v 4.5234375 c 0,0.082031 0,0.2226563 0.140625,0.2226563 0.140625,0 0.140625,-0.1289063 0.140625,-0.1992188 z m 1.1835938,0.023437 c 0,-0.082031 0,-0.234375 -0.140625,-0.234375 -0.140625,0 -0.140625,0.1289063 -0.140625,0.2109375 v 4.5703125 c 0,0.070312 0,0.1992188 0.140625,0.1992188 0.140625,0 0.140625,-0.140625 0.140625,-0.2226563 z m 0,0"
       style="fill:#bf8040;fill-opacity:1;fill-rule:nonzero;stroke:none"
       aria-label="|k"
       transform="matrix(1.3333333,0,0,1.3333333,120.57333,191.756)" />
  </g>
</svg>
