<?xml version="1.0" encoding="UTF-8" standalone="no"?>
<!-- Created with Inkscape (http://www.inkscape.org/) -->

<svg
   version="1.1"
   id="svg1"
   width="333.76932"
   height="205.55467"
   viewBox="0 0 333.76932 205.55467"
   xmlns="http://www.w3.org/2000/svg"
   xmlns:svg="http://www.w3.org/2000/svg">
  <defs
     id="defs1">
    <clipPath
       clipPathUnits="userSpaceOnUse"
       id="clipPath36">
      <path
         d="M -34.0908,2.7777778e-6 H 204.54755 V 153.58939 H -34.0908 Z"
         id="path36" />
    </clipPath>
  </defs>
  <g
     id="g1">
    <path
       id="path1"
       d="M 0,-2.83472 V 0 M 56.81891,-2.83472 V 0 m 56.81891,-2.83472 V 0 m 56.81892,-2.83472 V 0"
       style="fill:none;stroke:#000000;stroke-width:0.3985;stroke-linecap:butt;stroke-linejoin:miter;stroke-miterlimit:10;stroke-dasharray:none;stroke-opacity:1"
       transform="matrix(1.2,0,0,-1.2,87.84,184.78267)" />
    <path
       id="path2"
       d="m -36.92572,0 h 2.83492 m -2.83492,20.47858 h 2.83492 m -2.83492,20.47859 h 2.83492 m -2.83492,20.47858 h 2.83492 m -2.83492,20.47859 h 2.83492 m -2.83492,20.47857 h 2.83492 m -2.83492,20.47859 h 2.83492 m -2.83492,20.47858 h 2.83492"
       style="fill:none;stroke:#000000;stroke-width:0.3985;stroke-linecap:butt;stroke-linejoin:miter;stroke-miterlimit:10;stroke-dasharray:none;stroke-opacity:1"
       transform="matrix(1.2,0,0,-1.2,87.84,184.78267)" />
    <path
       id="path3"
       d="M -34.0908,0 H 199.88507"
       style="fill:none;stroke:#000000;stroke-width:0.79701;stroke-linecap:butt;stroke-linejoin:miter;stroke-miterlimit:10;stroke-dasharray:none;stroke-opacity:1"
       transform="matrix(1.2,0,0,-1.2,87.84,184.78267)" />
    <path
       id="path4"
       d="M 4.66248,0 C 3.28098,0.25902 1.0361,1.0361 -0.51805,1.94269 V -1.94269 C 1.0361,-1.0361 3.28098,-0.25902 4.66248,0"
       style="fill:#000000;fill-opacity:1;fill-rule:nonzero;stroke:none"
       transform="matrix(1.2,0,0,-1.2,327.70208,184.78267)" />
    <path
       id="path5"
       d="M -34.0908,0 V 148.92691"
       style="fill:none;stroke:#000000;stroke-width:0.79701;stroke-linecap:butt;stroke-linejoin:miter;stroke-miterlimit:10;stroke-dasharray:none;stroke-opacity:1"
       transform="matrix(1.2,0,0,-1.2,87.84,184.78267)" />
    <path
       id="path6"
       d="M 4.66248,0 C 3.28098,0.25902 1.0361,1.0361 -0.51805,1.94269 V -1.94269 C 1.0361,-1.0361 3.28098,-0.25902 4.66248,0"
       style="fill:#000000;fill-opacity:1;fill-rule:nonzero;stroke:none"
       transform="matrix(0,-1.2,-1.2,0,46.93104,6.0703747)" />
    <path
       id="path7"
       d="m 4.7519427,-4.1019462 c -0.013021,-1.1458333 -0.7942708,-1.796875 -2.1354167,-1.796875 -1.2760416,0 -2.05729163,0.6510417 -2.05729163,1.6927084 0,0.7161458 0.37760417,1.1588541 1.13281253,1.3671875 l 1.4453125,0.3776041 c 0.7291666,0.1953125 1.0677083,0.4817709 1.0677083,0.9375 0,0.3125 -0.1692708,0.62500002 -0.4166667,0.80729169 -0.2213541,0.15625 -0.5989583,0.24739583 -1.0677083,0.24739583 -0.625,0 -1.0546875,-0.15625 -1.3411458,-0.48177083 C 1.1712135,-1.2113212 1.0800677,-1.4847587 1.0800677,-1.849342 H 0.37694271 c 0.0130208,0.5338542 0.1171875,0.88541665 0.3515625,1.19791665 0.39062499,0.546875 1.06770829,0.83333334 1.95312499,0.83333334 0.6901042,0 1.25,-0.15625 1.6276042,-0.44270834 0.390625,-0.3125 0.6380208,-0.83333335 0.6380208,-1.32812495 0,-0.7161459 -0.4427083,-1.25 -1.2369792,-1.4583334 l -1.4583333,-0.390625 c -0.703125,-0.1953125 -0.9505208,-0.4166666 -0.9505208,-0.859375 0,-0.5989583 0.5208333,-0.9895833 1.3020833,-0.9895833 0.9244792,0 1.4322917,0.4296875 1.4453125,1.1848958 z m 1.7610677,-0.078125 H 5.8489479 v 4.17968751944 h 0.6640625 z m 0,-1.6276041 H 5.8359271 v 0.8333333 h 0.6770833 z m 3.8541666,1.6276041 v 0.6119792 c -0.338542,-0.4947917 -0.7421874,-0.7291667 -1.2760416,-0.7291667 -1.0546875,0 -1.7708333,0.9244792 -1.7708333,2.2786459 0,0.6901041 0.1822916,1.24999995 0.5208333,1.64062495 0.3125,0.3515625 0.7552083,0.55989584 1.1979167,0.55989584 0.5208333,0 0.8854166,-0.22135417 1.2630209,-0.7421875 v 0.20833333 c 0,0.57291667 -0.0651,0.91145833 -0.234375,1.14583333 C 9.8854062,1.041283 9.5468646,1.1845122 9.1432187,1.1845122 c -0.2994791,0 -0.5729166,-0.091146 -0.7552083,-0.23437505 -0.15625,-0.1171875 -0.2213542,-0.22135416 -0.2604167,-0.46875 H 7.4505104 c 0.078125,0.78125005 0.6901042,1.25000005 1.6666667,1.25000005 0.625,0 1.1588539,-0.1953125 1.4322919,-0.5338542 0.3125,-0.37760418 0.429687,-0.89843751 0.429687,-1.88802085 V -4.1800712 Z m -1.1979166,0.4947917 c 0.7161458,0 1.1328126,0.6119792 1.1328126,1.6536458 0,0.9895834 -0.4296876,1.60156252 -1.1328126,1.60156252 -0.7161458,0 -1.1588542,-0.61197912 -1.1588542,-1.62760412 0,-1.0026042 0.4427084,-1.6276042 1.1588542,-1.6276042 z m 2.9069006,-0.4947917 v 4.17968751944 h 0.664063 V -2.6175712 c 0,-0.6119791 0.442708,-1.09375 0.989583,-1.09375 0.481771,0 0.768229,0.2994792 0.768229,0.8333334 v 2.87760411944 h 0.664063 V -2.6175712 c 0,-0.6119791 0.442708,-1.09375 0.989583,-1.09375 0.481771,0 0.768229,0.3125 0.768229,0.8333334 v 2.87760411944 h 0.664063 V -3.1384045 c 0,-0.7421875 -0.429688,-1.1588542 -1.210938,-1.1588542 -0.559895,0 -0.885416,0.1692709 -1.276041,0.6380209 -0.247396,-0.4427084 -0.585938,-0.6380209 -1.132813,-0.6380209 -0.546875,0 -0.911458,0.2083334 -1.276041,0.7161459 v -0.5989584 z m 8.242188,-0.1171875 c -1.171875,0 -1.875,0.8333334 -1.875,2.2395834 0,1.40624995 0.703125,2.23958329 1.888021,2.23958329 1.171875,0 1.888021,-0.83333334 1.888021,-2.20052079 0,-1.4453125 -0.690105,-2.2786459 -1.901042,-2.2786459 z m 0.01302,0.6119792 c 0.755208,0 1.197916,0.6119792 1.197916,1.6536458 0,0.9765625 -0.46875,1.60156252 -1.197916,1.60156252 -0.742188,0 -1.197917,-0.61197912 -1.197917,-1.62760412 0,-1.0026042 0.455729,-1.6276042 1.197917,-1.6276042 z m 3.453776,-0.4947917 h -0.664063 v 4.17968751944 h 0.664063 z m 0,-1.6276041 h -0.677084 v 0.8333333 h 0.677084 z m 4.518229,0 h -0.664063 v 2.1614583 c -0.273437,-0.4296875 -0.729166,-0.6510417 -1.276041,-0.6510417 -1.09375,0 -1.796875,0.8723959 -1.796875,2.2005209 0,1.40624995 0.690104,2.27864579 1.809896,2.27864579 0.585937,0 0.976562,-0.20833334 1.341145,-0.72916667 v 0.54687499944 h 0.585938 z m -1.835938,2.1354166 c 0.716146,0 1.171875,0.6380209 1.171875,1.6276042 0,0.9635417 -0.455729,1.60156249 -1.158854,1.60156249 -0.742187,0 -1.223958,-0.63802079 -1.223958,-1.61458329 0,-0.9765625 0.481771,-1.6145834 1.210937,-1.6145834 z m 0,0"
       style="fill:#000000;fill-opacity:1;fill-rule:nonzero;stroke:none"
       aria-label="Sigmoid"
       transform="matrix(1.2,0,0,1.2,70.5672,199.44187)" />
    <path
       id="path8"
       d="M 2.8265365,-5.1559253 H 4.7275781 V -5.806967 H 0.17028646 v 0.6510417 H 2.084349 V 3.2465278e-4 h 0.7421875 z m 5.345052,4.76562495 c -0.065104,0.0130208 -0.1041666,0.0130208 -0.1432291,0.0130208 -0.2213542,0 -0.3515625,-0.1171875 -0.3515625,-0.32552084 V -3.150717 c 0,-0.7421875 -0.546875,-1.1458333 -1.5755209,-1.1458333 -0.5989583,0 -1.1067708,0.1822916 -1.3802083,0.4817708 -0.1953125,0.2213542 -0.2734375,0.4557292 -0.2864583,0.8723958 h 0.6640625 c 0.052083,-0.5078125 0.3645833,-0.7421875 0.9765625,-0.7421875 0.5989583,0 0.9375,0.2213542 0.9375,0.625 v 0.1692709 c 0,0.2864583 -0.1692709,0.4036458 -0.6901042,0.46875 -0.9375,0.1171875 -1.0807292,0.15625 -1.3411458,0.2604166 -0.4817709,0.1953125 -0.7291667,0.5729167 -0.7291667,1.1067709 0,0.75520829 0.5208333,1.23697912 1.3671875,1.23697912 0.5208333,0 0.9505208,-0.18229166722 1.4192708,-0.61197917 0.052083,0.41666667 0.2473959,0.61197917 0.6901042,0.61197917 0.1302083,0 0.234375,-0.0130208 0.4427083,-0.0651042 z M 7.0127344,-1.3147795 c 0,0.2213542 -0.065104,0.36458332 -0.2604167,0.54687499 -0.2734375,0.24739583 -0.5989583,0.36458333 -0.9895833,0.36458333 -0.5208334,0 -0.8203125,-0.24739583 -0.8203125,-0.66406252 0,-0.4427083 0.2994791,-0.6640625 1.0026041,-0.7682291 0.703125,-0.091146 0.8463542,-0.1302084 1.0677084,-0.234375 z m 1.891276,-2.8645833 V 3.2465278e-4 H 9.5680729 V -2.3043628 c 0,-0.8463542 0.4557291,-1.40625 1.1328121,-1.40625 0.533855,0 0.859375,0.3125 0.859375,0.8203125 V 3.2465278e-4 h 0.664063 V -3.150717 c 0,-0.703125 -0.520833,-1.1458333 -1.328125,-1.1458333 -0.611979,0 -1.0156251,0.234375 -1.3802084,0.8203125 v -0.703125 z M 13.337604,-5.806967 V 3.2465278e-4 h 0.664063 V -2.3043628 c 0,-0.8463542 0.442708,-1.40625 1.132812,-1.40625 0.208333,0 0.429688,0.065104 0.585938,0.1822916 0.195312,0.1432292 0.273437,0.3385417 0.273437,0.6380209 V 3.2465278e-4 h 0.651042 V -3.150717 c 0,-0.703125 -0.494792,-1.1458333 -1.315104,-1.1458333 -0.585938,0 -0.9375,0.1822916 -1.328125,0.6901041 V -5.806967 Z m 0,0"
       style="fill:#000000;fill-opacity:1;fill-rule:nonzero;stroke:none"
       aria-label="Tanh"
       transform="matrix(1.2,0,0,1.2,145.698,199.22227)" />
    <path
       id="path9"
       d="m 1.4837656,-2.4996753 h 1.9140625 c 0.6640625,0 0.9505209,0.3125 0.9505209,1.0286458 v 0.52083332 c 0,0.36458333 0.052083,0.71614583 0.15625,0.95052083278 H 5.4160573 V -0.18196701 C 5.129599,-0.37727951 5.0775156,-0.58561285 5.0644948,-1.353842 5.051474,-2.3043628 4.895224,-2.603842 4.270224,-2.8642587 c 0.6510416,-0.3255208 0.9114583,-0.7291666 0.9114583,-1.3932291 0,-1.0026042 -0.625,-1.5494792 -1.7578125,-1.5494792 H 0.74157812 V 3.2465278e-4 H 1.4837656 Z m 0,-0.6510417 v -2.0052083 h 1.796875 c 0.4036459,0 0.6510417,0.065104 0.8333334,0.2213541 0.1953125,0.1692709 0.2994791,0.4296875 0.2994791,0.78125 0,0.6901042 -0.3515625,1.0026042 -1.1328125,1.0026042 z m 8.359375,1.2890625 c 0,-0.6380208 -0.052083,-1.0286458 -0.1692708,-1.328125 -0.2734375,-0.6901042 -0.9114583,-1.1067708 -1.6927083,-1.1067708 -1.1588542,0 -1.9140625,0.8984375 -1.9140625,2.265625 0,1.36718745 0.7291666,2.21354162 1.9010416,2.21354162 0.9635417,0 1.6145834,-0.546875 1.7838542,-1.44531252 H 9.0879323 c -0.1822917,0.54687502 -0.5598958,0.83333335 -1.09375,0.83333335 -0.4166667,0 -0.78125,-0.1953125 -1.0026042,-0.546875 C 6.8353281,-1.2106128 6.770224,-1.4449878 6.770224,-1.8616545 Z m -3.0598958,-0.546875 c 0.052083,-0.7682292 0.5208333,-1.2760417 1.1979167,-1.2760417 0.6510416,0 1.1458333,0.546875 1.1458333,1.2369792 0,0.013021 0,0.026042 0,0.039063 z M 11.565146,-5.806967 H 10.822958 V 3.2465278e-4 h 3.606771 V -0.65071701 h -2.864583 z m 7.454427,0 v 4.0755208 c 0,0.78125002 -0.572917,1.26302085 -1.497396,1.26302085 -0.429687,0 -0.78125,-0.10416666 -1.067708,-0.29947916 C 16.16801,-0.98925868 16.037802,-1.2887378 16.037802,-1.7314462 V -5.806967 h -0.742187 v 4.0755208 c 0,1.18489585 0.846354,1.91406252 2.226562,1.91406252 1.354167,0 2.239583,-0.7421875 2.239583,-1.91406252 V -5.806967 Z m 0,0"
       style="fill:#000000;fill-opacity:1;fill-rule:nonzero;stroke:none"
       aria-label="ReLU"
       transform="matrix(1.2,0,0,1.2,211.9812,199.22227)" />
    <path
       id="path10"
       d="m 4.7510625,-4.1019462 c -0.013021,-1.1458333 -0.7942708,-1.796875 -2.1354167,-1.796875 -1.2760416,0 -2.05729163,0.6510417 -2.05729163,1.6927084 0,0.7161458 0.37760416,1.1588541 1.13281253,1.3671875 l 1.4453125,0.3776041 c 0.7291666,0.1953125 1.0677083,0.4817709 1.0677083,0.9375 0,0.3125 -0.1692708,0.62500002 -0.4166667,0.80729169 -0.2213541,0.15625 -0.5989583,0.24739583 -1.0677083,0.24739583 -0.625,0 -1.0546875,-0.15625 -1.3411458,-0.48177083 C 1.1703333,-1.2113212 1.0791875,-1.4847587 1.0791875,-1.849342 h -0.703125 c 0.0130208,0.5338542 0.1171875,0.88541665 0.3515625,1.19791665 0.390625,0.546875 1.0677083,0.83333334 1.953125,0.83333334 0.6901042,0 1.25,-0.15625 1.6276042,-0.44270834 0.390625,-0.3125 0.6380208,-0.83333335 0.6380208,-1.32812495 0,-0.7161459 -0.4427083,-1.25 -1.2369792,-1.4583334 l -1.4583333,-0.390625 c -0.703125,-0.1953125 -0.9505208,-0.4166666 -0.9505208,-0.859375 0,-0.5989583 0.5208333,-0.9895833 1.3020833,-0.9895833 0.9244792,0 1.4322917,0.4296875 1.4453125,1.1848958 z m 2.7278646,-0.1953125 c -1.171875,0 -1.875,0.8333334 -1.875,2.2395834 0,1.40624995 0.703125,2.23958329 1.8880208,2.23958329 1.171875,0 1.8880208,-0.83333334 1.8880208,-2.20052079 0,-1.4453125 -0.6901041,-2.2786459 -1.9010416,-2.2786459 z m 0.013021,0.6119792 c 0.7552083,0 1.1979167,0.6119792 1.1979167,1.6536458 0,0.9765625 -0.46875,1.60156252 -1.1979167,1.60156252 -0.7421875,0 -1.1979167,-0.61197912 -1.1979167,-1.62760412 0,-1.0026042 0.4557292,-1.6276042 1.1979167,-1.6276042 z m 4.3131509,-0.4947917 h -0.690104 v -0.6510416 c 0,-0.2734375 0.15625,-0.4166667 0.455729,-0.4166667 0.05208,0 0.07813,0 0.234375,0 v -0.546875 c -0.15625,-0.026042 -0.234375,-0.039063 -0.377604,-0.039063 -0.611979,0 -0.976563,0.3515625 -0.976563,0.9505208 v 0.703125 H 9.8910365 v 0.546875 h 0.5598955 v 3.63281251944 h 0.664063 V -3.6331962 h 0.690104 z m 2.177734,0 H 13.30575 v -1.1458333 h -0.664063 v 1.1458333 h -0.559895 v 0.546875 h 0.559895 v 3.15104169 c 0,0.4296875 0.286459,0.6640625 0.807292,0.6640625 0.15625,0 0.3125,-0.0130208 0.533854,-0.0520833 v -0.55989583 c -0.07813,0.0260417 -0.182291,0.0260417 -0.3125,0.0260417 -0.286458,0 -0.364583,-0.078125 -0.364583,-0.36458334 V -3.6331962 h 0.677083 z m 0.755209,0 v 4.17968751944 h 0.664062 V -2.6175712 c 0,-0.6119791 0.442708,-1.09375 0.989583,-1.09375 0.481771,0 0.76823,0.2994792 0.76823,0.8333334 v 2.87760411944 h 0.664062 V -2.6175712 c 0,-0.6119791 0.442708,-1.09375 0.989583,-1.09375 0.481771,0 0.76823,0.3125 0.76823,0.8333334 v 2.87760411944 h 0.664062 V -3.1384045 c 0,-0.7421875 -0.429687,-1.1588542 -1.210937,-1.1588542 -0.559896,0 -0.885417,0.1692709 -1.276042,0.6380209 -0.247396,-0.4427084 -0.585938,-0.6380209 -1.132813,-0.6380209 -0.546875,0 -0.911458,0.2083334 -1.276041,0.7161459 v -0.5989584 z m 10.338541,3.78906252 c -0.0651,0.0130208 -0.104166,0.0130208 -0.143229,0.0130208 -0.221354,0 -0.351562,-0.1171875 -0.351562,-0.32552083 V -3.1514253 c 0,-0.7421875 -0.546875,-1.1458334 -1.575521,-1.1458334 -0.598959,0 -1.106771,0.1822917 -1.380209,0.4817709 -0.195312,0.2213541 -0.273437,0.4557291 -0.286458,0.8723958 h 0.664063 c 0.05208,-0.5078125 0.364583,-0.7421875 0.976562,-0.7421875 0.598958,0 0.9375,0.2213542 0.9375,0.625 v 0.1692708 c 0,0.2864584 -0.169271,0.4036459 -0.690104,0.46875 -0.9375,0.1171875 -1.080729,0.15625 -1.341146,0.2604167 -0.481771,0.1953125 -0.729167,0.5729167 -0.729167,1.1067708 0,0.75520835 0.520834,1.23697919 1.367188,1.23697919 0.520833,0 0.950521,-0.18229167056 1.419271,-0.61197917 0.05208,0.41666667 0.247396,0.61197917 0.690104,0.61197917 0.130208,0 0.234375,-0.0130208 0.442708,-0.0651042 z M 23.917729,-1.3154878 c 0,0.2213541 -0.0651,0.36458329 -0.260417,0.54687495 -0.273437,0.24739584 -0.598958,0.36458334 -0.989583,0.36458334 -0.520833,0 -0.820312,-0.24739584 -0.820312,-0.66406249 0,-0.4427083 0.299479,-0.6640625 1.002604,-0.7682292 0.703125,-0.091146 0.846354,-0.1302083 1.067708,-0.234375 z m 3.66211,-0.8463542 1.393229,-2.0182292 H 28.23088 l -1.002604,1.5234375 -1.002604,-1.5234375 h -0.755208 l 1.393229,2.0572917 -1.484375,2.12239581944 h 0.768229 L 27.202234,-1.6019462 28.243901,-3.8368056e-4 h 0.768229 z m 0,0"
       style="fill:#000000;fill-opacity:1;fill-rule:nonzero;stroke:none"
       aria-label="Softmax"
       transform="matrix(1.2,0,0,1.2,274.8456,199.44187)" />
    <path
       id="path11"
       d="m 3.8917969,-2.5398837 c 0,-0.859375 -0.078125,-1.3671875 -0.3515625,-1.8880208 -0.3515625,-0.703125 -0.9895834,-0.8723958 -1.4322917,-0.8723958 -1.0026042,0 -1.36718749,0.7552083 -1.48437499,0.9765625 -0.28645834,0.5729166 -0.29947917,1.3671875 -0.29947917,1.7838541 0,0.5208334 0.0260417,1.328125 0.40364583,1.96614585 0.36458333,0.5859375 0.96354163,0.7421875 1.38020833,0.7421875 0.390625,0 1.0677083,-0.1171875 1.4713542,-0.91145833 0.2864583,-0.57291662 0.3125,-1.27604162 0.3125,-1.79687502 z m -1.7838542,2.48697919 c -0.2734375,0 -0.8203125,-0.13020834 -0.9895833,-0.96354169 -0.078125,-0.4557291 -0.078125,-1.2109375 -0.078125,-1.6276041 0,-0.546875 0,-1.1067709 0.078125,-1.5364584 0.1692708,-0.8203125 0.7942708,-0.8984375 0.9895833,-0.8984375 0.2734375,0 0.8203125,0.1432292 0.9765625,0.859375 0.1041667,0.4427084 0.1041667,1.0416667 0.1041667,1.5755209 0,0.4817708 0,1.1979166 -0.1041667,1.640625 -0.15625,0.83333329 -0.7161458,0.95052079 -0.9765625,0.95052079 z m 0,0"
       style="fill:#000000;fill-opacity:1;fill-rule:nonzero;stroke:none"
       aria-label="0"
       transform="matrix(1.2,0,0,1.2,21.24,187.86427)" />
    <path
       id="path12"
       d="m 1.6141771,-0.44352951 c 0,-0.26041667 -0.2213542,-0.44270834 -0.4296875,-0.44270834 -0.26041668,0 -0.45572918,0.20833334 -0.45572918,0.44270834 0,0.2734375 0.22135416,0.44270832944 0.44270828,0.44270832944 0.2604167,0 0.4427084,-0.20833332944 0.4427084,-0.44270832944 z m 0,0"
       style="fill:#000000;fill-opacity:1;fill-rule:nonzero;stroke:none"
       aria-label="."
       transform="matrix(1.2,0,0,1.2,26.3208,187.86427)" />
    <path
       id="path13"
       d="m 3.1381302,-5.1570712 c 0,-0.15625 0,-0.2213541 -0.1692708,-0.2213541 -0.1041667,0 -0.1041667,0.013021 -0.1822917,0.1171875 L 0.23448437,-1.576342 v 0.2734375 H 2.4870885 v 0.65104165 c 0,0.29947917 -0.026042,0.390625 -0.6380208,0.390625 H 1.666776 V -8.2118056e-4 C 2.3438594,-0.02686285 2.3568802,-0.02686285 2.8126094,-0.02686285 c 0.4557291,0 0.46875,0 1.1458333,0.0260416694 V -0.26123785 H 3.776151 c -0.6119791,0 -0.6380208,-0.0911458 -0.6380208,-0.390625 V -1.3029045 H 3.9844844 V -1.576342 H 3.1381302 Z M 2.5391719,-4.5060295 V -1.576342 H 0.52094271 Z m 5.5891927,1.9661458 c 0,-0.859375 -0.078125,-1.3671875 -0.3515625,-1.8880208 -0.3515625,-0.703125 -0.9895834,-0.8723958 -1.4322917,-0.8723958 -1.0026042,0 -1.3671875,0.7552083 -1.484375,0.9765625 -0.2864583,0.5729166 -0.2994792,1.3671875 -0.2994792,1.7838541 0,0.5208334 0.026042,1.328125 0.4036459,1.96614585 0.3645833,0.5859375 0.9635416,0.7421875 1.3802083,0.7421875 0.390625,0 1.0677083,-0.1171875 1.4713542,-0.91145833 0.2864583,-0.57291662 0.3125,-1.27604162 0.3125,-1.79687502 z m -1.7838542,2.48697919 c -0.2734375,0 -0.8203125,-0.13020834 -0.9895833,-0.96354169 -0.078125,-0.4557291 -0.078125,-1.2109375 -0.078125,-1.6276041 0,-0.546875 0,-1.1067709 0.078125,-1.5364584 0.1692708,-0.8203125 0.7942708,-0.8984375 0.9895833,-0.8984375 0.2734375,0 0.8203125,0.1432292 0.9765625,0.859375 0.1041667,0.4427084 0.1041667,1.0416667 0.1041667,1.5755209 0,0.4817708 0,1.1979166 -0.1041667,1.640625 -0.15625,0.83333329 -0.7161458,0.95052079 -0.9765625,0.95052079 z m 0,0"
       style="fill:#000000;fill-opacity:1;fill-rule:nonzero;stroke:none"
       aria-label="40"
       transform="matrix(1.2,0,0,1.2,29.1444,187.86427)" />
    <path
       id="path14"
       d="m 3.8917969,-2.5393993 c 0,-0.859375 -0.078125,-1.3671875 -0.3515625,-1.8880208 C 3.1886719,-5.1305451 2.550651,-5.299816 2.1079427,-5.299816 c -1.0026042,0 -1.36718749,0.7552084 -1.48437499,0.9765625 -0.28645834,0.5729167 -0.29947917,1.3671875 -0.29947917,1.7838542 0,0.5208333 0.0260417,1.328125 0.40364583,1.96614583 0.36458333,0.5859375 0.96354163,0.7421875 1.38020833,0.7421875 0.390625,0 1.0677083,-0.1171875 1.4713542,-0.91145834 0.2864583,-0.57291669 0.3125,-1.27604169 0.3125,-1.79687499 z m -1.7838542,2.48697916 c -0.2734375,0 -0.8203125,-0.13020833 -0.9895833,-0.96354166 -0.078125,-0.4557292 -0.078125,-1.2109375 -0.078125,-1.6276042 0,-0.546875 0,-1.1067708 0.078125,-1.5364583 0.1692708,-0.8203125 0.7942708,-0.8984375 0.9895833,-0.8984375 0.2734375,0 0.8203125,0.1432292 0.9765625,0.859375 0.1041667,0.4427083 0.1041667,1.0416667 0.1041667,1.5755208 0,0.4817709 0,1.1979167 -0.1041667,1.640625 -0.15625,0.83333336 -0.7161458,0.95052086 -0.9765625,0.95052086 z m 0,0"
       style="fill:#000000;fill-opacity:1;fill-rule:nonzero;stroke:none"
       aria-label="0"
       transform="matrix(1.2,0,0,1.2,21.24,163.28947)" />
    <path
       id="path15"
       d="m 1.6141771,-0.44304514 c 0,-0.26041667 -0.2213542,-0.44270833 -0.4296875,-0.44270833 -0.26041668,0 -0.45572918,0.20833333 -0.45572918,0.44270833 0,0.2734375 0.22135416,0.44270833444 0.44270828,0.44270833444 0.2604167,0 0.4427084,-0.20833333444 0.4427084,-0.44270833444 z m 0,0"
       style="fill:#000000;fill-opacity:1;fill-rule:nonzero;stroke:none"
       aria-label="."
       transform="matrix(1.2,0,0,1.2,26.3208,163.28947)" />
    <path
       id="path16"
       d="m 1.119901,-4.4795035 c 0.1041667,0.039063 0.4166667,0.1171875 0.7552084,0.1171875 0.9895833,0 1.6015625,-0.703125 1.6015625,-0.8203125 0,-0.091146 -0.052083,-0.1171875 -0.1041667,-0.1171875 -0.013021,0 -0.026042,0 -0.091146,0.039063 -0.3125,0.1171875 -0.6770834,0.2213542 -1.1197917,0.2213542 -0.46875,0 -0.859375,-0.1302083 -1.1067708,-0.2213542 -0.078125,-0.039063 -0.0911459,-0.039063 -0.10416669,-0.039063 -0.10416667,0 -0.10416667,0.091146 -0.10416667,0.234375 v 2.3307292 c 0,0.1432292 0,0.234375 0.13020833,0.234375 0.0651041,0 0.0911458,-0.026042 0.13020833,-0.091146 0.091146,-0.1171875 0.4036458,-0.5208334 1.0807292,-0.5208334 0.4427083,0 0.6510416,0.3645834 0.7291666,0.5078125 0.1302084,0.2994792 0.15625,0.6640625 0.15625,0.9765625 0,0.2864584 -0.013021,0.71614586 -0.234375,1.06770836 -0.15625,0.24739583 -0.46875,0.48177083 -0.8984375,0.48177083 -0.5078125,0 -1.02864579,-0.32552083 -1.21093746,-0.83333333 0.0260417,0 0.078125,0 0.078125,0 0.23437496,0 0.40364586,-0.14322916 0.40364586,-0.39062496 0,-0.2864584 -0.23437503,-0.390625 -0.39062503,-0.390625 -0.14322916,0 -0.40364583,0.078125 -0.40364583,0.4166666 0,0.71614586 0.62499996,1.44531253 1.54947916,1.44531253 0.9895833,0 1.8359375,-0.78125 1.8359375,-1.75781253 0,-0.9244791 -0.6640625,-1.7447916 -1.6145833,-1.7447916 -0.390625,0 -0.7682292,0.1171875 -1.0677084,0.390625 z m 7.0084636,1.9401042 c 0,-0.859375 -0.078125,-1.3671875 -0.3515625,-1.8880208 -0.3515625,-0.703125 -0.9895834,-0.8723959 -1.4322917,-0.8723959 -1.0026042,0 -1.3671875,0.7552084 -1.484375,0.9765625 -0.2864583,0.5729167 -0.2994792,1.3671875 -0.2994792,1.7838542 0,0.5208333 0.026042,1.328125 0.4036459,1.96614583 0.3645833,0.5859375 0.9635416,0.7421875 1.3802083,0.7421875 0.390625,0 1.0677083,-0.1171875 1.4713542,-0.91145834 0.2864583,-0.57291669 0.3125,-1.27604169 0.3125,-1.79687499 z m -1.7838542,2.48697916 c -0.2734375,0 -0.8203125,-0.13020833 -0.9895833,-0.96354166 -0.078125,-0.4557292 -0.078125,-1.2109375 -0.078125,-1.6276042 0,-0.546875 0,-1.1067708 0.078125,-1.5364583 0.1692708,-0.8203125 0.7942708,-0.8984375 0.9895833,-0.8984375 0.2734375,0 0.8203125,0.1432292 0.9765625,0.859375 0.1041667,0.4427083 0.1041667,1.0416667 0.1041667,1.5755208 0,0.4817709 0,1.1979167 -0.1041667,1.640625 -0.15625,0.83333336 -0.7161458,0.95052086 -0.9765625,0.95052086 z m 0,0"
       style="fill:#000000;fill-opacity:1;fill-rule:nonzero;stroke:none"
       aria-label="50"
       transform="matrix(1.2,0,0,1.2,29.1444,163.28947)" />
    <path
       id="path17"
       d="m 3.8917969,-2.5399149 c 0,-0.859375 -0.078125,-1.3671875 -0.3515625,-1.8880209 -0.3515625,-0.703125 -0.9895834,-0.8723958 -1.4322917,-0.8723958 -1.0026042,0 -1.36718749,0.7552083 -1.48437499,0.9765625 -0.28645834,0.5729167 -0.29947917,1.3671875 -0.29947917,1.7838542 0,0.5208333 0.0260417,1.328125 0.40364583,1.9661458 0.36458333,0.5859375 0.96354163,0.7421875 1.38020833,0.7421875 0.390625,0 1.0677083,-0.1171875 1.4713542,-0.91145833 0.2864583,-0.57291667 0.3125,-1.27604167 0.3125,-1.79687497 z m -1.7838542,2.48697914 c -0.2734375,0 -0.8203125,-0.13020834 -0.9895833,-0.96354164 -0.078125,-0.4557292 -0.078125,-1.2109375 -0.078125,-1.6276042 0,-0.546875 0,-1.1067708 0.078125,-1.5364583 0.1692708,-0.8203125 0.7942708,-0.8984375 0.9895833,-0.8984375 0.2734375,0 0.8203125,0.1432291 0.9765625,0.859375 0.1041667,0.4427083 0.1041667,1.0416666 0.1041667,1.5755208 0,0.4817708 0,1.1979167 -0.1041667,1.640625 -0.15625,0.83333334 -0.7161458,0.95052084 -0.9765625,0.95052084 z m 0,0"
       style="fill:#000000;fill-opacity:1;fill-rule:nonzero;stroke:none"
       aria-label="0"
       transform="matrix(1.2,0,0,1.2,21.24,138.71587)" />
    <path
       id="path18"
       d="m 1.6141771,-0.44356076 c 0,-0.26041667 -0.2213542,-0.44270834 -0.4296875,-0.44270834 -0.26041668,0 -0.45572918,0.20833334 -0.45572918,0.44270834 0,0.2734375 0.22135416,0.44270832944 0.44270828,0.44270832944 0.2604167,0 0.4427084,-0.20833332944 0.4427084,-0.44270832944 z m 0,0"
       style="fill:#000000;fill-opacity:1;fill-rule:nonzero;stroke:none"
       aria-label="."
       transform="matrix(1.2,0,0,1.2,26.3208,138.71587)" />
    <path
       id="path19"
       d="m 1.0938594,-2.6440816 c 0,-0.6510417 0.065104,-1.2369792 0.3515625,-1.71875 0.234375,-0.4036458 0.6380208,-0.7291667 1.1458333,-0.7291667 0.15625,0 0.5208333,0.026042 0.703125,0.2994792 -0.3515625,0.013021 -0.390625,0.2864583 -0.390625,0.3776042 0,0.234375 0.1822917,0.3776041 0.3776042,0.3776041 0.1432291,0 0.3776041,-0.091146 0.3776041,-0.390625 0,-0.4817708 -0.3645833,-0.8723958 -1.0807291,-0.8723958 -1.1067709,0 -2.22656253,1.0546875 -2.22656253,2.7734375 0,2.16145834 1.00260413,2.6953125 1.77083333,2.6953125 0.390625,0 0.8072917,-0.10416666 1.1588542,-0.44270833 0.3255208,-0.3125 0.5859375,-0.65104167 0.5859375,-1.34114587 0,-1.0416666 -0.78125,-1.7838541 -1.6666667,-1.7838541 -0.5729167,0 -0.9114583,0.3645833 -1.1067708,0.7552083 z m 1.0286458,2.56510417 c -0.4166667,0 -0.6770833,-0.28645833 -0.7942708,-0.5078125 C 1.1459427,-0.95137326 1.119901,-1.4852274 1.119901,-1.7977274 c 0,-0.78125 0.4296875,-1.3802084 1.0416667,-1.3802084 0.4036458,0 0.6380208,0.2083334 0.7942708,0.4947917 0.1692709,0.2864583 0.1692709,0.6510417 0.1692709,1.0546875 0,0.4036458 0,0.75520834 -0.15625,1.04166667 -0.2083334,0.36458333 -0.4947917,0.5078125 -0.8463542,0.5078125 z M 8.1283646,-2.5399149 c 0,-0.859375 -0.078125,-1.3671875 -0.3515625,-1.8880209 -0.3515625,-0.703125 -0.9895834,-0.8723958 -1.4322917,-0.8723958 -1.0026042,0 -1.3671875,0.7552083 -1.484375,0.9765625 -0.2864583,0.5729167 -0.2994792,1.3671875 -0.2994792,1.7838542 0,0.5208333 0.026042,1.328125 0.4036459,1.9661458 0.3645833,0.5859375 0.9635416,0.7421875 1.3802083,0.7421875 0.390625,0 1.0677083,-0.1171875 1.4713542,-0.91145833 0.2864583,-0.57291667 0.3125,-1.27604167 0.3125,-1.79687497 z m -1.7838542,2.48697914 c -0.2734375,0 -0.8203125,-0.13020834 -0.9895833,-0.96354164 -0.078125,-0.4557292 -0.078125,-1.2109375 -0.078125,-1.6276042 0,-0.546875 0,-1.1067708 0.078125,-1.5364583 0.1692708,-0.8203125 0.7942708,-0.8984375 0.9895833,-0.8984375 0.2734375,0 0.8203125,0.1432291 0.9765625,0.859375 0.1041667,0.4427083 0.1041667,1.0416666 0.1041667,1.5755208 0,0.4817708 0,1.1979167 -0.1041667,1.640625 -0.15625,0.83333334 -0.7161458,0.95052084 -0.9765625,0.95052084 z m 0,0"
       style="fill:#000000;fill-opacity:1;fill-rule:nonzero;stroke:none"
       aria-label="60"
       transform="matrix(1.2,0,0,1.2,29.1444,138.71587)" />
    <path
       id="path20"
       d="m 3.8917969,-2.5404306 c 0,-0.859375 -0.078125,-1.3671875 -0.3515625,-1.8880208 -0.3515625,-0.703125 -0.9895834,-0.8723958 -1.4322917,-0.8723958 -1.0026042,0 -1.36718749,0.7552083 -1.48437499,0.9765625 -0.28645834,0.5729166 -0.29947917,1.3671875 -0.29947917,1.7838541 0,0.5208334 0.0260417,1.328125 0.40364583,1.96614588 0.36458333,0.5859375 0.96354163,0.7421875 1.38020833,0.7421875 0.390625,0 1.0677083,-0.1171875 1.4713542,-0.91145834 0.2864583,-0.57291664 0.3125,-1.27604164 0.3125,-1.79687504 z m -1.7838542,2.48697921 c -0.2734375,0 -0.8203125,-0.13020833 -0.9895833,-0.96354171 -0.078125,-0.4557291 -0.078125,-1.2109375 -0.078125,-1.6276041 0,-0.546875 0,-1.1067709 0.078125,-1.5364584 0.1692708,-0.8203125 0.7942708,-0.8984375 0.9895833,-0.8984375 0.2734375,0 0.8203125,0.1432292 0.9765625,0.859375 0.1041667,0.4427084 0.1041667,1.0416667 0.1041667,1.5755209 0,0.4817708 0,1.1979166 -0.1041667,1.640625 -0.15625,0.83333331 -0.7161458,0.95052081 -0.9765625,0.95052081 z m 0,0"
       style="fill:#000000;fill-opacity:1;fill-rule:nonzero;stroke:none"
       aria-label="0"
       transform="matrix(1.2,0,0,1.2,21.24,114.14227)" />
    <path
       id="path21"
       d="m 1.6141771,-0.44407639 c 0,-0.26041667 -0.2213542,-0.44270833 -0.4296875,-0.44270833 -0.26041668,0 -0.45572918,0.20833333 -0.45572918,0.44270833 0,0.2734375 0.22135416,0.44270833 0.44270828,0.44270833 0.2604167,0 0.4427084,-0.20833333 0.4427084,-0.44270833 z m 0,0"
       style="fill:#000000;fill-opacity:1;fill-rule:nonzero;stroke:none"
       aria-label="."
       transform="matrix(1.2,0,0,1.2,26.3208,114.14227)" />
    <path
       id="path22"
       d="m 4.0365677,-4.8581389 c 0.065104,-0.078125 0.065104,-0.1041667 0.065104,-0.2734375 h -2.018229 c -0.2083333,0 -0.4557292,-0.013021 -0.6510417,-0.026042 C 1.0157344,-5.1836604 1.0157344,-5.261785 0.98969271,-5.3919934 H 0.74229687 l -0.2734375,1.6796875 h 0.24739584 c 0.0130208,-0.1171875 0.10416666,-0.6640625 0.22135416,-0.7291666 0.078125,-0.039063 0.67708333,-0.039063 0.79427083,-0.039063 H 3.4245885 L 2.604276,-3.3737639 c -0.9114583,1.2109375 -1.09375,2.46093751 -1.09375,3.09895834 0,0.078125 0,0.44270834 0.3645834,0.44270834 0.3776041,0 0.3776041,-0.36458334 0.3776041,-0.45572917 v -0.37760417 c 0,-1.15885414 0.1953125,-2.09635414 0.5859375,-2.61718754 z m 4.0917969,2.3177083 c 0,-0.859375 -0.078125,-1.3671875 -0.3515625,-1.8880208 -0.3515625,-0.703125 -0.9895834,-0.8723958 -1.4322917,-0.8723958 -1.0026042,0 -1.3671875,0.7552083 -1.484375,0.9765625 -0.2864583,0.5729166 -0.2994792,1.3671875 -0.2994792,1.7838541 0,0.5208334 0.026042,1.328125 0.4036459,1.96614588 0.3645833,0.5859375 0.9635416,0.7421875 1.3802083,0.7421875 0.390625,0 1.0677083,-0.1171875 1.4713542,-0.91145834 0.2864583,-0.57291664 0.3125,-1.27604164 0.3125,-1.79687504 z m -1.7838542,2.48697921 c -0.2734375,0 -0.8203125,-0.13020833 -0.9895833,-0.96354171 -0.078125,-0.4557291 -0.078125,-1.2109375 -0.078125,-1.6276041 0,-0.546875 0,-1.1067709 0.078125,-1.5364584 0.1692708,-0.8203125 0.7942708,-0.8984375 0.9895833,-0.8984375 0.2734375,0 0.8203125,0.1432292 0.9765625,0.859375 0.1041667,0.4427084 0.1041667,1.0416667 0.1041667,1.5755209 0,0.4817708 0,1.1979166 -0.1041667,1.640625 -0.15625,0.83333331 -0.7161458,0.95052081 -0.9765625,0.95052081 z m 0,0"
       style="fill:#000000;fill-opacity:1;fill-rule:nonzero;stroke:none"
       aria-label="70"
       transform="matrix(1.2,0,0,1.2,29.1444,114.14227)" />
    <path
       id="path23"
       d="m 3.8917969,-2.537691 c 0,-0.859375 -0.078125,-1.3671875 -0.3515625,-1.8880208 -0.3515625,-0.703125 -0.9895834,-0.8723958 -1.4322917,-0.8723958 -1.0026042,0 -1.36718749,0.7552083 -1.48437499,0.9765625 -0.28645834,0.5729166 -0.29947917,1.3671875 -0.29947917,1.7838541 0,0.5208334 0.0260417,1.328125 0.40364583,1.96614586 0.36458333,0.5859375 0.96354163,0.7421875 1.38020833,0.7421875 0.390625,0 1.0677083,-0.1171875 1.4713542,-0.91145833 0.2864583,-0.57291663 0.3125,-1.27604163 0.3125,-1.79687503 z m -1.7838542,2.48697919 c -0.2734375,0 -0.8203125,-0.13020833 -0.9895833,-0.96354169 -0.078125,-0.4557291 -0.078125,-1.2109375 -0.078125,-1.6276041 0,-0.546875 0,-1.1067709 0.078125,-1.5364584 0.1692708,-0.8203125 0.7942708,-0.8984375 0.9895833,-0.8984375 0.2734375,0 0.8203125,0.1432292 0.9765625,0.859375 0.1041667,0.4427084 0.1041667,1.0416667 0.1041667,1.5755209 0,0.4817708 0,1.1979166 -0.1041667,1.640625 -0.15625,0.83333329 -0.7161458,0.95052079 -0.9765625,0.95052079 z m 0,0"
       style="fill:#000000;fill-opacity:1;fill-rule:nonzero;stroke:none"
       aria-label="0"
       transform="matrix(1.2,0,0,1.2,21.24,89.568667)" />
    <path
       id="path24"
       d="m 1.6141771,-0.44133681 c 0,-0.26041666 -0.2213542,-0.44270833 -0.4296875,-0.44270833 -0.26041668,0 -0.45572918,0.20833333 -0.45572918,0.44270833 0,0.2734375 0.22135416,0.44270834 0.44270828,0.44270834 0.2604167,0 0.4427084,-0.20833334 0.4427084,-0.44270834 z m 0,0"
       style="fill:#000000;fill-opacity:1;fill-rule:nonzero;stroke:none"
       aria-label="."
       transform="matrix(1.2,0,0,1.2,26.3208,89.568667)" />
    <path
       id="path25"
       d="m 2.6433385,-2.8762326 c 0.4427084,-0.2083334 0.9895834,-0.6119792 0.9895834,-1.2369792 0,-0.7552083 -0.7682292,-1.1848958 -1.5104167,-1.1848958 -0.8463542,0 -1.53645833,0.5859375 -1.53645833,1.328125 0,0.2994791 0.10416667,0.5729166 0.3125,0.7942708 0.13020833,0.1692708 0.15625003,0.1953125 0.65104163,0.4947917 -0.98958329,0.4427083 -1.19791663,1.0286458 -1.19791663,1.4713541 0,0.87239586 0.88541663,1.38020836 1.75781253,1.38020836 0.9765625,0 1.7578125,-0.6640625 1.7578125,-1.51041666 0,-0.4947917 -0.2604167,-0.8333333 -0.390625,-0.9635417 C 3.3334427,-2.4335243 3.3334427,-2.4465451 2.6433385,-2.8762326 Z M 1.4063594,-3.6184201 C 1.1850052,-3.7616493 0.98969271,-3.9960243 0.98969271,-4.2694618 c 0,-0.5078125 0.54687499,-0.8203125 1.11979169,-0.8203125 0.6119791,0 1.1197916,0.4166667 1.1197916,0.9765625 0,0.46875 -0.3515625,0.859375 -0.8203125,1.0807292 z m 0.390625,1.0807291 c 0.039063,0.026042 0.9505208,0.5729167 1.0807291,0.6640625 0.1302084,0.078125 0.546875,0.3255209 0.546875,0.8072917 0,0.61197916 -0.6510416,0.98958333 -1.3020833,0.98958333 -0.7161458,0 -1.31510416,-0.48177084 -1.31510416,-1.13281253 0,-0.5989583 0.44270836,-1.0677083 0.98958336,-1.328125 z m 6.3313802,0 c 0,-0.859375 -0.078125,-1.3671875 -0.3515625,-1.8880208 -0.3515625,-0.703125 -0.9895834,-0.8723958 -1.4322917,-0.8723958 -1.0026042,0 -1.3671875,0.7552083 -1.484375,0.9765625 -0.2864583,0.5729166 -0.2994792,1.3671875 -0.2994792,1.7838541 0,0.5208334 0.026042,1.328125 0.4036459,1.96614586 0.3645833,0.5859375 0.9635416,0.7421875 1.3802083,0.7421875 0.390625,0 1.0677083,-0.1171875 1.4713542,-0.91145833 0.2864583,-0.57291663 0.3125,-1.27604163 0.3125,-1.79687503 z m -1.7838542,2.48697919 c -0.2734375,0 -0.8203125,-0.13020833 -0.9895833,-0.96354169 -0.078125,-0.4557291 -0.078125,-1.2109375 -0.078125,-1.6276041 0,-0.546875 0,-1.1067709 0.078125,-1.5364584 0.1692708,-0.8203125 0.7942708,-0.8984375 0.9895833,-0.8984375 0.2734375,0 0.8203125,0.1432292 0.9765625,0.859375 0.1041667,0.4427084 0.1041667,1.0416667 0.1041667,1.5755209 0,0.4817708 0,1.1979166 -0.1041667,1.640625 -0.15625,0.83333329 -0.7161458,0.95052079 -0.9765625,0.95052079 z m 0,0"
       style="fill:#000000;fill-opacity:1;fill-rule:nonzero;stroke:none"
       aria-label="80"
       transform="matrix(1.2,0,0,1.2,29.1444,89.568667)" />
    <path
       id="path26"
       d="m 3.8917969,-2.5404618 c 0,-0.859375 -0.078125,-1.3671875 -0.3515625,-1.8880208 -0.3515625,-0.703125 -0.9895834,-0.8723959 -1.4322917,-0.8723959 -1.0026042,0 -1.36718749,0.7552084 -1.48437499,0.9765625 -0.28645834,0.5729167 -0.29947917,1.3671875 -0.29947917,1.7838542 0,0.5208333 0.0260417,1.328125 0.40364583,1.96614583 0.36458333,0.5859375 0.96354163,0.7421875 1.38020833,0.7421875 0.390625,0 1.0677083,-0.1171875 1.4713542,-0.91145834 0.2864583,-0.57291669 0.3125,-1.27604169 0.3125,-1.79687499 z m -1.7838542,2.48697916 c -0.2734375,0 -0.8203125,-0.13020833 -0.9895833,-0.96354166 -0.078125,-0.4557292 -0.078125,-1.2109375 -0.078125,-1.6276042 0,-0.546875 0,-1.1067708 0.078125,-1.5364583 0.1692708,-0.8203125 0.7942708,-0.8984375 0.9895833,-0.8984375 0.2734375,0 0.8203125,0.1432292 0.9765625,0.859375 0.1041667,0.4427083 0.1041667,1.0416667 0.1041667,1.5755208 0,0.4817709 0,1.1979167 -0.1041667,1.640625 -0.15625,0.83333336 -0.7161458,0.95052086 -0.9765625,0.95052086 z m 0,0"
       style="fill:#000000;fill-opacity:1;fill-rule:nonzero;stroke:none"
       aria-label="0"
       transform="matrix(1.2,0,0,1.2,21.24,64.993867)" />
    <path
       id="path27"
       d="m 1.6141771,-0.44410764 c 0,-0.26041667 -0.2213542,-0.44270833 -0.4296875,-0.44270833 -0.26041668,0 -0.45572918,0.20833333 -0.45572918,0.44270833 0,0.2734375 0.22135416,0.44270833 0.44270828,0.44270833 0.2604167,0 0.4427084,-0.20833333 0.4427084,-0.44270833 z m 0,0"
       style="fill:#000000;fill-opacity:1;fill-rule:nonzero;stroke:none"
       aria-label="."
       transform="matrix(1.2,0,0,1.2,26.3208,64.993867)" />
    <path
       id="path28"
       d="m 3.1251094,-2.3581701 c 0,1.95312496 -0.9244792,2.27864579 -1.3932292,2.27864579 -0.15625,0 -0.5729167,-0.01302083 -0.79427083,-0.26041666 0.35156253,-0.0390625 0.37760413,-0.29947917 0.37760413,-0.37760417 0,-0.234375 -0.1822916,-0.37760416 -0.37760413,-0.37760416 -0.14322916,0 -0.37760416,0.091146 -0.37760416,0.39062499 0,0.546875 0.45572919,0.87239584 1.18489579,0.87239584 1.09375,0 2.1223959,-1.08072917 2.1223959,-2.78645833 0,-2.0703125 -0.9114584,-2.6822917 -1.7317709,-2.6822917 -0.9375,0 -1.78385413,0.7291667 -1.78385413,1.7708334 0,1.0286458 0.76822913,1.7838541 1.66666663,1.7838541 0.5729167,0 0.9114584,-0.3645833 1.1067709,-0.7682291 z m -1.0677084,0.390625 c -0.3645833,0 -0.5989583,-0.1692709 -0.7682291,-0.46875 -0.1953125,-0.2864584 -0.1953125,-0.6770834 -0.1953125,-1.0807292 0,-0.46875 0,-0.8072917 0.2213541,-1.1328125 0.1953125,-0.2864583 0.4557292,-0.4427083 0.8333334,-0.4427083 0.5338541,0 0.7552083,0.5208333 0.78125,0.5598958 0.1692708,0.390625 0.1822916,1.015625 0.1822916,1.171875 0,0.6380208 -0.3515625,1.3932292 -1.0546875,1.3932292 z m 6.0709636,-0.5729167 c 0,-0.859375 -0.078125,-1.3671875 -0.3515625,-1.8880208 -0.3515625,-0.703125 -0.9895834,-0.8723959 -1.4322917,-0.8723959 -1.0026042,0 -1.3671875,0.7552084 -1.484375,0.9765625 -0.2864583,0.5729167 -0.2994792,1.3671875 -0.2994792,1.7838542 0,0.5208333 0.026042,1.328125 0.4036459,1.96614583 0.3645833,0.5859375 0.9635416,0.7421875 1.3802083,0.7421875 0.390625,0 1.0677083,-0.1171875 1.4713542,-0.91145834 0.2864583,-0.57291669 0.3125,-1.27604169 0.3125,-1.79687499 z m -1.7838542,2.48697916 c -0.2734375,0 -0.8203125,-0.13020833 -0.9895833,-0.96354166 -0.078125,-0.4557292 -0.078125,-1.2109375 -0.078125,-1.6276042 0,-0.546875 0,-1.1067708 0.078125,-1.5364583 0.1692708,-0.8203125 0.7942708,-0.8984375 0.9895833,-0.8984375 0.2734375,0 0.8203125,0.1432292 0.9765625,0.859375 0.1041667,0.4427083 0.1041667,1.0416667 0.1041667,1.5755208 0,0.4817709 0,1.1979167 -0.1041667,1.640625 -0.15625,0.83333336 -0.7161458,0.95052086 -0.9765625,0.95052086 z m 0,0"
       style="fill:#000000;fill-opacity:1;fill-rule:nonzero;stroke:none"
       aria-label="90"
       transform="matrix(1.2,0,0,1.2,29.1444,64.993867)" />
    <path
       id="path29"
       d="m 2.4985677,-5.0767847 c 0,-0.2083334 -0.013021,-0.2213542 -0.234375,-0.2213542 -0.3255208,0.3255208 -0.7421875,0.5078125 -1.49739583,0.5078125 v 0.2604167 c 0.20833334,0 0.63802083,0 1.10677083,-0.2083334 v 4.08854171 c 0,0.28645833 -0.026042,0.390625 -0.78125,0.390625 H 0.80585937 V 0.00134028 C 1.144401,-0.02470139 1.8214844,-0.02470139 2.1860677,-0.02470139 c 0.3515625,0 1.0416667,0 1.3802083,0.02604167 V -0.25907639 H 3.2798177 c -0.7552083,0 -0.78125,-0.10416667 -0.78125,-0.390625 z m 0,0"
       style="fill:#000000;fill-opacity:1;fill-rule:nonzero;stroke:none"
       aria-label="1"
       transform="matrix(1.2,0,0,1.2,21.24,40.420267)" />
    <path
       id="path30"
       d="m 1.6141771,-0.44136806 c 0,-0.26041666 -0.2213542,-0.44270833 -0.4296875,-0.44270833 -0.26041668,0 -0.45572918,0.20833333 -0.45572918,0.44270833 0,0.2734375 0.22135416,0.44270834 0.44270828,0.44270834 0.2604167,0 0.4427084,-0.20833334 0.4427084,-0.44270834 z m 0,0"
       style="fill:#000000;fill-opacity:1;fill-rule:nonzero;stroke:none"
       aria-label="."
       transform="matrix(1.2,0,0,1.2,26.3208,40.420267)" />
    <path
       id="path31"
       d="m 3.8933385,-2.5377222 c 0,-0.859375 -0.078125,-1.3671875 -0.3515625,-1.8880209 -0.3515625,-0.703125 -0.9895833,-0.8723958 -1.4322916,-0.8723958 -1.0026042,0 -1.36718753,0.7552083 -1.48437503,0.9765625 -0.28645833,0.5729167 -0.29947916,1.3671875 -0.29947916,1.7838542 0,0.5208333 0.0260417,1.328125 0.40364583,1.96614581 0.36458336,0.5859375 0.96354166,0.7421875 1.38020836,0.7421875 0.390625,0 1.0677083,-0.1171875 1.4713541,-0.91145833 0.2864584,-0.57291668 0.3125,-1.27604168 0.3125,-1.79687498 z m -1.7838541,2.48697914 c -0.2734375,0 -0.8203125,-0.13020833 -0.9895834,-0.96354164 -0.078125,-0.4557292 -0.078125,-1.2109375 -0.078125,-1.6276042 0,-0.546875 0,-1.1067708 0.078125,-1.5364583 0.1692709,-0.8203125 0.7942709,-0.8984375 0.9895834,-0.8984375 0.2734375,0 0.8203125,0.1432291 0.9765625,0.859375 0.1041666,0.4427083 0.1041666,1.0416666 0.1041666,1.5755208 0,0.4817708 0,1.1979167 -0.1041666,1.640625 -0.15625,0.83333334 -0.7161459,0.95052084 -0.9765625,0.95052084 z M 8.1283646,-2.5377222 c 0,-0.859375 -0.078125,-1.3671875 -0.3515625,-1.8880209 -0.3515625,-0.703125 -0.9895834,-0.8723958 -1.4322917,-0.8723958 -1.0026042,0 -1.3671875,0.7552083 -1.484375,0.9765625 -0.2864583,0.5729167 -0.2994792,1.3671875 -0.2994792,1.7838542 0,0.5208333 0.026042,1.328125 0.4036459,1.96614581 0.3645833,0.5859375 0.9635416,0.7421875 1.3802083,0.7421875 0.390625,0 1.0677083,-0.1171875 1.4713542,-0.91145833 0.2864583,-0.57291668 0.3125,-1.27604168 0.3125,-1.79687498 z m -1.7838542,2.48697914 c -0.2734375,0 -0.8203125,-0.13020833 -0.9895833,-0.96354164 -0.078125,-0.4557292 -0.078125,-1.2109375 -0.078125,-1.6276042 0,-0.546875 0,-1.1067708 0.078125,-1.5364583 0.1692708,-0.8203125 0.7942708,-0.8984375 0.9895833,-0.8984375 0.2734375,0 0.8203125,0.1432291 0.9765625,0.859375 0.1041667,0.4427083 0.1041667,1.0416666 0.1041667,1.5755208 0,0.4817708 0,1.1979167 -0.1041667,1.640625 -0.15625,0.83333334 -0.7161458,0.95052084 -0.9765625,0.95052084 z m 0,0"
       style="fill:#000000;fill-opacity:1;fill-rule:nonzero;stroke:none"
       aria-label="00"
       transform="matrix(1.2,0,0,1.2,29.1444,40.420267)" />
    <path
       id="path32"
       d="m 2.4985677,-5.0773003 c 0,-0.2083334 -0.013021,-0.2213542 -0.234375,-0.2213542 -0.3255208,0.3255208 -0.7421875,0.5078125 -1.49739583,0.5078125 v 0.2604167 c 0.20833334,0 0.63802083,0 1.10677083,-0.2083334 v 4.08854169 c 0,0.28645833 -0.026042,0.390625 -0.78125,0.390625 H 0.80585937 V 8.2465278e-4 C 1.144401,-0.02521701 1.8214844,-0.02521701 2.1860677,-0.02521701 c 0.3515625,0 1.0416667,0 1.3802083,0.0260416628 V -0.25959201 H 3.2798177 c -0.7552083,0 -0.78125,-0.10416667 -0.78125,-0.390625 z m 0,0"
       style="fill:#000000;fill-opacity:1;fill-rule:nonzero;stroke:none"
       aria-label="1"
       transform="matrix(1.2,0,0,1.2,21.24,15.846667)" />
    <path
       id="path33"
       d="m 1.6141771,-0.44188368 c 0,-0.26041667 -0.2213542,-0.44270833 -0.4296875,-0.44270833 -0.26041668,0 -0.45572918,0.20833333 -0.45572918,0.44270833 0,0.2734375 0.22135416,0.44270833278 0.44270828,0.44270833278 0.2604167,0 0.4427084,-0.20833333278 0.4427084,-0.44270833278 z m 0,0"
       style="fill:#000000;fill-opacity:1;fill-rule:nonzero;stroke:none"
       aria-label="."
       transform="matrix(1.2,0,0,1.2,26.3208,15.846667)" />
    <path
       id="path34"
       d="m 2.5001094,-5.0773003 c 0,-0.2083334 -0.013021,-0.2213542 -0.234375,-0.2213542 -0.3255209,0.3255208 -0.7421875,0.5078125 -1.49739586,0.5078125 v 0.2604167 c 0.20833333,0 0.63802086,0 1.10677086,-0.2083334 v 4.08854169 c 0,0.28645833 -0.026042,0.390625 -0.78125,0.390625 H 0.80740104 V 8.2465278e-4 C 1.1459427,-0.02521701 1.823026,-0.02521701 2.1876094,-0.02521701 c 0.3515625,0 1.0416666,0 1.3802083,0.0260416628 V -0.25959201 H 3.2813594 c -0.7552084,0 -0.78125,-0.10416667 -0.78125,-0.390625 z m 5.6282552,2.5390625 c 0,-0.859375 -0.078125,-1.3671875 -0.3515625,-1.8880209 -0.3515625,-0.703125 -0.9895834,-0.8723958 -1.4322917,-0.8723958 -1.0026042,0 -1.3671875,0.7552083 -1.484375,0.9765625 -0.2864583,0.5729167 -0.2994792,1.3671875 -0.2994792,1.7838542 0,0.5208333 0.026042,1.328125 0.4036459,1.96614579 0.3645833,0.5859375 0.9635416,0.7421875 1.3802083,0.7421875 0.390625,0 1.0677083,-0.1171875 1.4713542,-0.91145834 0.2864583,-0.57291665 0.3125,-1.27604165 0.3125,-1.79687495 z m -1.7838542,2.48697912 c -0.2734375,0 -0.8203125,-0.13020833 -0.9895833,-0.96354162 -0.078125,-0.4557292 -0.078125,-1.2109375 -0.078125,-1.6276042 0,-0.546875 0,-1.1067708 0.078125,-1.5364583 0.1692708,-0.8203125 0.7942708,-0.8984375 0.9895833,-0.8984375 0.2734375,0 0.8203125,0.1432291 0.9765625,0.859375 0.1041667,0.4427083 0.1041667,1.0416666 0.1041667,1.5755208 0,0.4817708 0,1.1979167 -0.1041667,1.640625 -0.15625,0.83333332 -0.7161458,0.95052082 -0.9765625,0.95052082 z m 0,0"
       style="fill:#000000;fill-opacity:1;fill-rule:nonzero;stroke:none"
       aria-label="10"
       transform="matrix(1.2,0,0,1.2,29.1444,15.846667)" />
    <path
       id="path35"
       d="M -15.6252,0 H 15.6252 V 143.34929 H -15.6252 Z"
       style="fill:#cb202d;fill-opacity:1;fill-rule:nonzero;stroke:#cb202d;stroke-width:0.3985;stroke-linecap:butt;stroke-linejoin:miter;stroke-miterlimit:10;stroke-dasharray:none;stroke-opacity:1"
       transform="matrix(1.2,0,0,-1.2,87.84,184.78267)"
       clip-path="url(#clipPath36)" />
    <path
       id="path37"
       d="m 41.19347,0 h 31.2504 v 43.00478 h -31.2504 z"
       style="fill:#006395;fill-opacity:1;fill-rule:nonzero;stroke:#006395;stroke-width:0.3985;stroke-linecap:butt;stroke-linejoin:miter;stroke-miterlimit:10;stroke-dasharray:none;stroke-opacity:1"
       transform="matrix(1.2,0,0,-1.2,87.84,184.78267)"
       clip-path="url(#clipPath36)" />
    <path
       id="path38"
       d="m 98.01212,0 h 31.2504 v 10.23923 h -31.2504 z"
       style="fill:#008f45;fill-opacity:1;fill-rule:nonzero;stroke:#008f45;stroke-width:0.3985;stroke-linecap:butt;stroke-linejoin:miter;stroke-miterlimit:10;stroke-dasharray:none;stroke-opacity:1"
       transform="matrix(1.2,0,0,-1.2,87.84,184.78267)"
       clip-path="url(#clipPath36)" />
    <path
       id="path39"
       d="m 154.8308,0 h 31.2504 v 104.4402 h -31.2504 z"
       style="fill:#cc5500;fill-opacity:1;fill-rule:nonzero;stroke:#cc5500;stroke-width:0.3985;stroke-linecap:butt;stroke-linejoin:miter;stroke-miterlimit:10;stroke-dasharray:none;stroke-opacity:1"
       transform="matrix(1.2,0,0,-1.2,87.84,184.78267)"
       clip-path="url(#clipPath36)" />
    <path
       id="path40"
       d="M 1.4581233,-2.6422865 H 4.6221858 V -3.2933281 H 1.4581233 v -1.8619792 h 3.28125 V -5.806349 H 0.71593576 V 9.4270833e-4 H 4.8826024 V -0.65009896 H 1.4581233 Z m 6.188151,0.4817709 1.3932292,-2.0182292 H 8.297316 L 7.2947118,-2.6553073 6.2921076,-4.1787448 H 5.5368993 L 6.9301285,-2.1214531 5.4457535,9.4270833e-4 H 6.2139826 L 7.2686701,-1.6006198 8.3103368,9.4270833e-4 H 9.078566 Z m 5.5110677,0.2994791 c 0,-0.6380208 -0.05208,-1.0286458 -0.169271,-1.328125 -0.273437,-0.6901041 -0.911458,-1.1067708 -1.692708,-1.1067708 -1.158854,0 -1.9140627,0.8984375 -1.9140627,2.265625 0,1.36718751 0.7291667,2.21354167 1.9010417,2.21354167 0.963542,0 1.614583,-0.546875 1.783854,-1.44531247 h -0.664062 c -0.182292,0.54687497 -0.559896,0.83333331 -1.09375,0.83333331 -0.416667,0 -0.78125,-0.1953125 -1.002604,-0.546875 C 10.14953,-1.2099948 10.084425,-1.4443698 10.084425,-1.8610365 Z m -3.059896,-0.546875 c 0.05208,-0.7682291 0.520834,-1.2760416 1.197917,-1.2760416 0.651042,0 1.145833,0.546875 1.145833,1.2369791 0,0.013021 0,0.026042 0,0.039063 z m 7.154948,-0.3645833 c -0.02604,-0.4036458 -0.117187,-0.6640625 -0.273437,-0.8984375 -0.286459,-0.390625 -0.794271,-0.625 -1.367188,-0.625 -1.132812,0 -1.861979,0.8984375 -1.861979,2.2786458 0,1.35416671 0.716146,2.20052087 1.848958,2.20052087 0.989584,0 1.627604,-0.59895833 1.705729,-1.61458337 h -0.664062 c -0.117188,0.66406254 -0.455729,1.00260421 -1.028646,1.00260421 -0.729167,0 -1.171875,-0.59895831 -1.171875,-1.58854171 0,-1.0416666 0.429688,-1.6666666 1.158854,-1.6666666 0.559896,0 0.911459,0.3255208 0.989584,0.9114583 z M 21.327915,9.4270833e-4 V -4.1787448 h -0.664063 v 2.3697917 c 0,0.85937497 -0.442708,1.40624997 -1.132812,1.40624997 -0.533854,0 -0.859375,-0.3125 -0.859375,-0.82031247 v -2.9557292 h -0.664063 v 3.22916667 c 0,0.69010417 0.520834,1.1328125 1.328125,1.1328125 0.61198,0 1.002605,-0.20833333 1.39323,-0.76822916 V 9.4270833e-4 Z M 23.935337,-4.1787448 h -0.677084 v -1.1458333 h -0.664062 v 1.1458333 h -0.559896 v 0.546875 h 0.559896 v 3.15104167 c 0,0.4296875 0.286458,0.6640625 0.807292,0.6640625 0.15625,0 0.3125,-0.0130208 0.533854,-0.0520833 v -0.55989583 c -0.07813,0.0260417 -0.182292,0.0260417 -0.3125,0.0260417 -0.286459,0 -0.364584,-0.078125 -0.364584,-0.36458333 V -3.6318698 h 0.677084 z m 1.386719,0 H 24.657993 V 9.4270833e-4 h 0.664063 z m 0,-1.6276042 h -0.677084 v 0.8333334 h 0.677084 z m 2.734375,1.5104167 c -1.171875,0 -1.875,0.8333333 -1.875,2.2395833 0,1.40625004 0.703125,2.23958337 1.88802,2.23958337 1.171875,0 1.888021,-0.83333333 1.888021,-2.20052087 0,-1.4453125 -0.690104,-2.2786458 -1.901041,-2.2786458 z m 0.01302,0.6119792 c 0.755209,0 1.197917,0.6119791 1.197917,1.6536458 0,0.9765625 -0.46875,1.60156251 -1.197917,1.60156251 -0.742187,0 -1.197916,-0.61197921 -1.197916,-1.62760421 0,-1.0026041 0.455729,-1.6276041 1.197916,-1.6276041 z m 2.815756,-0.4947917 V 9.4270833e-4 h 0.664062 V -2.3037448 c 0,-0.8463542 0.455729,-1.40625 1.132813,-1.40625 0.533854,0 0.859375,0.3125 0.859375,0.8203125 V 9.4270833e-4 h 0.664062 V -3.150099 c 0,-0.703125 -0.520833,-1.1458333 -1.328125,-1.1458333 -0.611979,0 -1.015625,0.234375 -1.380208,0.8203125 v -0.703125 z m 8.91276,-0.9765625 h 1.901042 V -5.806349 h -4.557292 v 0.6510417 H 39.05578 V 9.4270833e-4 h 0.742187 z m 3.242188,0.9765625 H 42.376092 V 9.4270833e-4 h 0.664063 z m 0,-1.6276042 h -0.677084 v 0.8333334 h 0.677084 z m 1.132812,1.6276042 V 9.4270833e-4 H 44.83703 V -2.6162448 c 0,-0.6119792 0.442708,-1.09375 0.989583,-1.09375 0.481771,0 0.768229,0.2994792 0.768229,0.8333333 V 9.4270833e-4 h 0.664063 V -2.6162448 c 0,-0.6119792 0.442708,-1.09375 0.989583,-1.09375 0.481771,0 0.768229,0.3125 0.768229,0.8333333 V 9.4270833e-4 H 49.68078 V -3.1370781 c 0,-0.7421875 -0.429688,-1.1588542 -1.210938,-1.1588542 -0.559896,0 -0.885417,0.1692708 -1.276042,0.6380208 -0.247395,-0.4427083 -0.585937,-0.6380208 -1.132812,-0.6380208 -0.546875,0 -0.911458,0.2083333 -1.276042,0.7161458 v -0.5989583 z m 10.166016,2.3177083 c 0,-0.6380208 -0.05208,-1.0286458 -0.169271,-1.328125 -0.273438,-0.6901041 -0.911459,-1.1067708 -1.692709,-1.1067708 -1.158854,0 -1.914062,0.8984375 -1.914062,2.265625 0,1.36718751 0.729167,2.21354167 1.901042,2.21354167 0.963541,0 1.614583,-0.546875 1.783854,-1.44531247 h -0.664063 c -0.182291,0.54687497 -0.559896,0.83333331 -1.09375,0.83333331 -0.416666,0 -0.78125,-0.1953125 -1.002604,-0.546875 C 51.33117,-1.2099948 51.266066,-1.4443698 51.266066,-1.8610365 Z m -3.059896,-0.546875 c 0.05208,-0.7682291 0.520833,-1.2760416 1.197916,-1.2760416 0.651042,0 1.145834,0.546875 1.145834,1.2369791 0,0.013021 0,0.026042 0,0.039063 z m 7.493489,-3.3984375 c -0.79427,1.0416667 -1.289062,2.4869792 -1.289062,3.7369792 0,1.26302084 0.494792,2.72135417 1.289062,3.7630208 h 0.442709 c -0.703125,-1.14583329 -1.09375,-2.48697913 -1.09375,-3.7630208 0,-1.2630208 0.390625,-2.6041667 1.09375,-3.7369792 z m 4.270834,2.7994792 c -0.01302,-0.8203125 -0.546875,-1.2890625 -1.510417,-1.2890625 -0.976562,0 -1.601562,0.5078125 -1.601562,1.2760417 0,0.6510416 0.32552,0.9635416 1.315104,1.1979166 l 0.625,0.15625 c 0.46875,0.1171875 0.651041,0.2864584 0.651041,0.5859375 0,0.39062504 -0.390625,0.65104171 -0.976562,0.65104171 -0.364583,0 -0.664063,-0.10416667 -0.833333,-0.2734375 -0.104167,-0.13020834 -0.14323,-0.24739584 -0.182292,-0.53385421 h -0.703125 c 0.02604,0.96354171 0.572917,1.41927087 1.666667,1.41927087 1.041666,0 1.71875,-0.52083333 1.71875,-1.32812497 0,-0.6119792 -0.351563,-0.9635417 -1.184896,-1.1588542 L 61.389764,-2.446974 c -0.533854,-0.1302083 -0.768229,-0.3125 -0.768229,-0.5989583 0,-0.390625 0.338541,-0.6380208 0.885416,-0.6380208 0.533855,0 0.820313,0.234375 0.833334,0.6770833 z m 4.583333,1.1458333 c 0,-0.6380208 -0.05208,-1.0286458 -0.169271,-1.328125 -0.273437,-0.6901041 -0.911458,-1.1067708 -1.692708,-1.1067708 -1.158854,0 -1.914063,0.8984375 -1.914063,2.265625 0,1.36718751 0.729167,2.21354167 1.901042,2.21354167 0.963542,0 1.614583,-0.546875 1.783854,-1.44531247 h -0.664062 c -0.182292,0.54687497 -0.559896,0.83333331 -1.09375,0.83333331 -0.416667,0 -0.78125,-0.1953125 -1.002604,-0.546875 -0.15625,-0.23437501 -0.221355,-0.46875001 -0.221355,-0.88541671 z m -3.059896,-0.546875 c 0.05208,-0.7682291 0.520834,-1.2760416 1.197917,-1.2760416 0.651042,0 1.145833,0.546875 1.145833,1.2369791 0,0.013021 0,0.026042 0,0.039063 z m 7.151693,-0.3645833 c -0.02604,-0.4036458 -0.117188,-0.6640625 -0.273438,-0.8984375 -0.286458,-0.390625 -0.79427,-0.625 -1.367187,-0.625 -1.132813,0 -1.861979,0.8984375 -1.861979,2.2786458 0,1.35416671 0.716146,2.20052087 1.848958,2.20052087 0.989583,0 1.627604,-0.59895833 1.705729,-1.61458337 h -0.664062 c -0.117188,0.66406254 -0.455729,1.00260421 -1.028646,1.00260421 -0.729167,0 -1.171875,-0.59895831 -1.171875,-1.58854171 0,-1.0416666 0.429687,-1.6666666 1.158854,-1.6666666 0.559896,0 0.911458,0.3255208 0.989583,0.9114583 z m 2.395833,-1.5234375 c -1.171875,0 -1.875,0.8333333 -1.875,2.2395833 0,1.40625004 0.703125,2.23958337 1.888021,2.23958337 1.171875,0 1.888021,-0.83333333 1.888021,-2.20052087 0,-1.4453125 -0.690104,-2.2786458 -1.901042,-2.2786458 z m 0.01302,0.6119792 c 0.755208,0 1.197917,0.6119791 1.197917,1.6536458 0,0.9765625 -0.46875,1.60156251 -1.197917,1.60156251 -0.742187,0 -1.197917,-0.61197921 -1.197917,-1.62760421 0,-1.0026041 0.45573,-1.6276041 1.197917,-1.6276041 z m 2.819011,-0.4947917 V 9.4270833e-4 h 0.664062 V -2.3037448 c 0,-0.8463542 0.455729,-1.40625 1.132813,-1.40625 0.533854,0 0.859375,0.3125 0.859375,0.8203125 V 9.4270833e-4 h 0.664062 V -3.150099 c 0,-0.703125 -0.520833,-1.1458333 -1.328125,-1.1458333 -0.611979,0 -1.015625,0.234375 -1.380208,0.8203125 v -0.703125 z M 84.76216,-5.806349 h -0.664063 v 2.1614584 c -0.273437,-0.4296875 -0.729166,-0.6510417 -1.276041,-0.6510417 -1.09375,0 -1.796875,0.8723958 -1.796875,2.2005208 0,1.40625004 0.690104,2.27864587 1.809895,2.27864587 0.585938,0 0.976563,-0.20833333 1.341146,-0.72916666 V 9.4270833e-4 h 0.585938 z m -1.835938,2.1354167 c 0.716146,0 1.171875,0.6380208 1.171875,1.6276042 0,0.9635416 -0.455729,1.60156247 -1.158854,1.60156247 -0.742187,0 -1.223958,-0.63802087 -1.223958,-1.61458337 0,-0.9765625 0.481771,-1.6145833 1.210937,-1.6145833 z m 5.810547,0.6640625 c -0.01302,-0.8203125 -0.546875,-1.2890625 -1.510417,-1.2890625 -0.976562,0 -1.601562,0.5078125 -1.601562,1.2760417 0,0.6510416 0.325521,0.9635416 1.315104,1.1979166 l 0.625,0.15625 c 0.46875,0.1171875 0.651042,0.2864584 0.651042,0.5859375 0,0.39062504 -0.390625,0.65104171 -0.976563,0.65104171 -0.364583,0 -0.664062,-0.10416667 -0.833333,-0.2734375 -0.104167,-0.13020834 -0.143229,-0.24739584 -0.182292,-0.53385421 h -0.703125 c 0.02604,0.96354171 0.572917,1.41927087 1.666667,1.41927087 1.041667,0 1.71875,-0.52083333 1.71875,-1.32812497 0,-0.6119792 -0.351563,-0.9635417 -1.184896,-1.1588542 L 87.083123,-2.446974 c -0.533854,-0.1302083 -0.768229,-0.3125 -0.768229,-0.5989583 0,-0.390625 0.338542,-0.6380208 0.885417,-0.6380208 0.533854,0 0.820312,0.234375 0.833333,0.6770833 z m 1.240234,4.7005208 c 0.794271,-1.04166663 1.302084,-2.49999996 1.302084,-3.75 0,-1.2630208 -0.507813,-2.7083333 -1.302084,-3.75 h -0.442708 c 0.703125,1.1328125 1.09375,2.4739584 1.09375,3.75 0,1.26302087 -0.390625,2.61718754 -1.09375,3.75 z m 0,0"
       style="fill:#000000;fill-opacity:1;fill-rule:nonzero;stroke:none"
       aria-label="ExecutionTime(seconds)"
       transform="matrix(0,-1.2,1.2,0,11.0184,147.76147)" />
  </g>
</svg>
