<?xml version="1.0" encoding="UTF-8" standalone="no"?>
<!-- Created with Inkscape (http://www.inkscape.org/) -->

<svg
   version="1.1"
   id="svg1"
   width="365.108"
   height="157.75333"
   viewBox="0 0 365.108 157.75333"
   xmlns="http://www.w3.org/2000/svg"
   xmlns:svg="http://www.w3.org/2000/svg">
  <defs
     id="defs1" />
  <g
     id="g1">
    <path
       id="path1"
       d="m 155.90831,-62.36331 c 78.12765,0 77.78064,124.72662 155.90831,124.72662 34.44273,0 62.36331,-27.92058 62.36331,-62.36331 0,-34.44273 -27.92058,-62.36331 -62.36331,-62.36331 M 155.90831,62.36331 C 77.78064,62.36331 78.12764,-62.36331 0,-62.36331 c -34.44273,0 -62.36331,27.92058 -62.36331,62.36331 0,34.44273 27.92058,62.36331 62.36331,62.36331"
       style="fill:none;stroke:#7eac7e;stroke-width:19.8428;stroke-linecap:butt;stroke-linejoin:round;stroke-miterlimit:10;stroke-dasharray:none;stroke-opacity:1"
       transform="matrix(0.8,0,0,-0.8,57.8272,57.828533)" />
    <path
       id="path2"
       d="m 0,62.36331 c 78.12764,0 77.78064,-124.72662 155.90831,-124.72662"
       style="fill:none;stroke:#ffffff;stroke-width:28.3468;stroke-linecap:butt;stroke-linejoin:round;stroke-miterlimit:10;stroke-dasharray:none;stroke-opacity:1"
       transform="matrix(0.8,0,0,-0.8,57.8272,57.828533)" />
    <path
       id="path3"
       d="m 0,62.36331 c 78.12764,0 77.78064,-124.72662 155.90831,-124.72662"
       style="fill:none;stroke:#7eac7e;stroke-width:19.8428;stroke-linecap:butt;stroke-linejoin:round;stroke-miterlimit:10;stroke-dasharray:none;stroke-opacity:1"
       transform="matrix(0.8,0,0,-0.8,57.8272,57.828533)" />
    <path
       id="path4"
       d="M 31.99915,55.09703 27.20068,65.08054 25.96219,61.54997 15.69958,65.15 12.99133,57.42961 23.25392,53.82959 22.01544,50.29904 Z"
       style="fill:#ffffff;fill-opacity:1;fill-rule:nonzero;stroke:none"
       transform="matrix(0.8,0,0,-0.8,57.8272,57.828533)" />
    <path
       id="path5"
       d="m 126.30115,-56.2483 -1.54715,10.96841 -2.25029,-2.98921 -8.68903,6.54107 -4.92076,-6.53663 8.68903,-6.54108 -2.25029,-2.98921 z"
       style="fill:#ffffff;fill-opacity:1;fill-rule:nonzero;stroke:none"
       transform="matrix(0.8,0,0,-0.8,57.8272,57.828533)" />
    <path
       id="path6"
       d="m 203.73065,-42.53584 -10.96847,1.54664 2.25029,-2.98921 -8.68903,-6.54108 4.92076,-6.53663 8.68901,6.54107 2.25029,-2.98921 z"
       style="fill:#ffffff;fill-opacity:1;fill-rule:nonzero;stroke:none"
       transform="matrix(0.8,0,0,-0.8,57.8272,57.828533)" />
    <path
       id="path7"
       d="m 301.33142,62.64401 -9.9837,4.79799 1.23849,-3.53055 -10.2626,-3.60002 2.70827,-7.7204 10.26258,3.60004 1.2385,-3.53057 z"
       style="fill:#ffffff;fill-opacity:1;fill-rule:nonzero;stroke:none"
       transform="matrix(0.8,0,0,-0.8,57.8272,57.828533)" />
    <path
       id="path8"
       d="m 374.17995,-11.40016 7.83264,7.83298 h -3.74165 V 7.30898 h -8.18198 V -3.56718 h -3.74164 z"
       style="fill:#ffffff;fill-opacity:1;fill-rule:nonzero;stroke:none"
       transform="matrix(0.8,0,0,-0.8,57.8272,57.828533)" />
    <path
       id="path9"
       d="m 311.81662,-62.36331 c -78.12767,0 -77.78066,124.72662 -155.90831,124.72662"
       style="fill:none;stroke:#ffffff;stroke-width:28.3468;stroke-linecap:butt;stroke-linejoin:round;stroke-miterlimit:10;stroke-dasharray:none;stroke-opacity:1"
       transform="matrix(0.8,0,0,-0.8,57.8272,57.828533)" />
    <path
       id="path10"
       d="m 311.81662,-62.36331 c -78.12767,0 -77.78066,124.72662 -155.90831,124.72662"
       style="fill:none;stroke:#7eac7e;stroke-width:19.8428;stroke-linecap:butt;stroke-linejoin:round;stroke-miterlimit:10;stroke-dasharray:none;stroke-opacity:1"
       transform="matrix(0.8,0,0,-0.8,57.8272,57.828533)" />
    <path
       id="path11"
       d="m 279.81737,-55.09703 4.79846,-9.98351 1.23848,3.53057 10.2626,-3.60003 2.70827,7.72039 -10.2626,3.60002 1.23849,3.53055 z"
       style="fill:#ffffff;fill-opacity:1;fill-rule:nonzero;stroke:none"
       transform="matrix(0.8,0,0,-0.8,57.8272,57.828533)" />
    <path
       id="path12"
       d="m 185.51535,56.2483 1.54715,-10.96841 2.25029,2.98921 8.68903,-6.54107 4.92074,6.53663 -8.68902,6.54108 2.25029,2.98921 z"
       style="fill:#ffffff;fill-opacity:1;fill-rule:nonzero;stroke:none"
       transform="matrix(0.8,0,0,-0.8,57.8272,57.828533)" />
    <path
       id="path13"
       d="m 108.08583,42.53584 10.96849,-1.54664 -2.25029,2.98921 8.68903,6.54108 -4.92076,6.53663 -8.68903,-6.54107 -2.25029,2.98921 z"
       style="fill:#ffffff;fill-opacity:1;fill-rule:nonzero;stroke:none"
       transform="matrix(0.8,0,0,-0.8,57.8272,57.828533)" />
    <path
       id="path14"
       d="m 10.48509,-62.64401 9.98369,-4.79799 -1.23848,3.53055 10.26259,3.60002 -2.70825,7.7204 -10.26261,-3.60004 -1.23849,3.53057 z"
       style="fill:#ffffff;fill-opacity:1;fill-rule:nonzero;stroke:none"
       transform="matrix(0.8,0,0,-0.8,57.8272,57.828533)" />
    <path
       id="path15"
       d="m -62.36331,11.40016 -7.83264,-7.83298 h 3.74165 V -7.30898 h 8.18198 V 3.56718 h 3.74165 z"
       style="fill:#ffffff;fill-opacity:1;fill-rule:nonzero;stroke:none"
       transform="matrix(0.8,0,0,-0.8,57.8272,57.828533)" />
    <path
       id="path16"
       d="M 0.8765,0.00194271 H 3.689 c 1.8359375,0 2.9492187,-1.36718751 2.9492187,-3.63281251 0,-2.2460937 -1.1132812,-3.6328125 -2.9492187,-3.6328125 H 0.8765 Z M 1.814,-0.81836979 V -6.4433698 h 1.71875 c 1.4257812,0 2.1875,0.9765625 2.1875,2.8125 0,1.8359375 -0.7617188,2.81250001 -2.1875,2.81250001 z M 9.0112656,-3.2988385 H 12.976109 V -4.119151 H 9.0112656 V -6.4433698 H 13.112828 V -7.2636823 H 8.0932969 v 7.26562501 h 5.2148441 v -0.8203125 H 9.0112656 Z M 19.777867,-5.134776 c -0.01953,-1.4257813 -0.996094,-2.2460938 -2.65625,-2.2460938 -1.601562,0 -2.578125,0.8203125 -2.578125,2.1289063 0,0.8984375 0.46875,1.4453125 1.425781,1.6992187 l 1.796875,0.46875 c 0.917969,0.2539063 1.328125,0.625 1.328125,1.1914063 0,0.3710937 -0.195312,0.78125 -0.507812,0.99609371 -0.292969,0.1953125 -0.742188,0.3125 -1.347656,0.3125 -0.78125,0 -1.308594,-0.1953125 -1.660157,-0.60546871 -0.273437,-0.3320313 -0.390625,-0.6640625 -0.390625,-1.1132813 h -0.878906 c 0.01953,0.6640625 0.15625,1.09375 0.429688,1.50390626 0.507812,0.6640625 1.347656,1.03515625 2.441406,1.03515625 0.878906,0 1.582031,-0.1953125 2.050781,-0.56640625 0.488281,-0.390625 0.800781,-1.03515626 0.800781,-1.66015626 0,-0.8984375 -0.566406,-1.5625 -1.542968,-1.8164062 l -1.835938,-0.4882813 c -0.878906,-0.2539062 -1.191406,-0.5273437 -1.191406,-1.0742187 0,-0.7421875 0.644531,-1.2304688 1.621094,-1.2304688 1.152343,0 1.816406,0.5273438 1.816406,1.4648438 z m 2.636719,-2.1289063 h -0.9375 v 7.26562501 h 0.9375 z m 7.910156,3.4375 h -3.027344 v 0.8007813 h 2.207032 v 0.2148437 c 0,1.2890625 -0.957032,2.22656251 -2.285157,2.22656251 -0.742187,0 -1.40625,-0.2734375 -1.835937,-0.74218751 -0.46875,-0.5078125 -0.761719,-1.3867187 -0.761719,-2.2851562 0,-1.7773438 1.015625,-2.9492188 2.539063,-2.9492188 1.113281,0 1.914062,0.5664063 2.109375,1.5039063 h 0.9375 c -0.253907,-1.484375 -1.367188,-2.3242188 -3.027344,-2.3242188 -0.878906,0 -1.601563,0.234375 -2.167969,0.703125 -0.839844,0.6835938 -1.328125,1.8164063 -1.328125,3.125 0,2.2265625 1.367188,3.78906251 3.339844,3.78906251 0.976562,0 1.777344,-0.37109375 2.480469,-1.15234375 l 0.214843,0.95703125 h 0.605469 z m 7.104492,-3.4375 h -0.859375 v 5.9375 l -3.808593,-5.9375 h -0.996094 v 7.26562501 h 0.878906 V -5.8769635 l 3.75,5.87890621 h 1.035156 z m 0,0"
       style="fill:#000080;fill-opacity:1;fill-rule:nonzero;stroke:none"
       aria-label="DESIGN"
       transform="matrix(0.8,0,0,0.8,42.5488,60.678133)" />
    <path
       id="path17"
       d="m 4.6656016,-0.0015026 2.03125,-6.09375 v 6.09375 h 0.8789062 v -7.265625 H 6.2866953 l -2.109375,6.328125 -2.1484375,-6.328125 H 0.73982031 v 7.265625 H 1.6187266 v -6.09375 l 2.0703125,6.09375 z m 7.5000004,-7.3828125 c -2.070313,0 -3.4960942,1.5429687 -3.4960942,3.8085937 0,2.265625 1.4257812,3.8085938 3.5156252,3.8085938 0.878906,0 1.660156,-0.2734375 2.246094,-0.78125 0.78125,-0.6640625 1.25,-1.7773438 1.25,-2.96875 0,-2.34375 -1.367188,-3.8671875 -3.515625,-3.8671875 z m 0,0.8203125 c 1.582031,0 2.597656,1.1914062 2.597656,3.0273437 0,1.7578125 -1.054688,2.9492188 -2.578125,2.9492188 -1.542969,0 -2.5781252,-1.1914063 -2.5781252,-2.9882813 0,-1.796875 1.0351562,-2.9882812 2.5585942,-2.9882812 z m 4.760742,6.5625 h 2.8125 c 1.835937,0 2.949218,-1.3671875 2.949218,-3.6328125 0,-2.2460938 -1.113281,-3.6328125 -2.949218,-3.6328125 h -2.8125 z m 0.9375,-0.8203125 v -5.625 h 1.71875 c 1.425781,0 2.1875,0.9765625 2.1875,2.8125 0,1.8359375 -0.761719,2.8125 -2.1875,2.8125 z m 7.197265,-2.4804688 h 3.964844 v -0.8203125 h -3.964844 v -2.3242187 h 4.101563 v -0.8203125 h -5.019531 v 7.265625 h 5.214843 v -0.8203125 h -4.296875 z m 6.547852,-3.9648437 h -0.917969 v 7.265625 h 4.511719 v -0.8203125 h -3.59375 z m 0,0"
       style="fill:#483c3a;fill-opacity:1;fill-rule:nonzero;stroke:none"
       aria-label="MODEL"
       transform="matrix(0.8,0,0,0.8,168.3808,55.895733)" />
    <path
       id="path18"
       d="M 0.87978125,5.0520833e-4 H 3.6922813 C 5.5282188,5.0520833e-4 6.6415,-1.3666823 6.6415,-3.6323073 6.6415,-5.878401 5.5282188,-7.2651198 3.6922813,-7.2651198 H 0.87978125 Z M 1.8172813,-0.81980729 V -6.4448073 h 1.71875 c 1.4257812,0 2.1875,0.9765625 2.1875,2.8125 0,1.8359375 -0.7617188,2.81250001 -2.1875,2.81250001 z M 9.0096641,-3.300276 H 12.974508 V -4.1205885 H 9.0096641 V -6.4448073 H 13.111227 V -7.2651198 H 8.0916953 V 5.0520833e-4 H 13.306539 V -0.81980729 H 9.0096641 Z M 17.745016,5.0520833e-4 20.264547,-7.2651198 H 19.268453 L 17.256734,-1.112776 15.127828,-7.2651198 H 14.131734 L 16.748922,5.0520833e-4 Z M 22.30068,-3.300276 h 3.964843 V -4.1205885 H 22.30068 v -2.3242188 h 4.101562 V -7.2651198 H 21.382711 V 5.0520833e-4 h 5.214844 V -0.81980729 H 22.30068 Z m 6.547851,-3.9648438 H 27.930563 V 5.0520833e-4 h 4.511718 V -0.81980729 h -3.59375 z m 7.685547,-0.1171875 c -2.070312,0 -3.496094,1.5429688 -3.496094,3.8085938 0,2.265625 1.425782,3.80859371 3.515625,3.80859371 0.878907,0 1.660157,-0.2734375 2.246094,-0.78125 0.78125,-0.66406251 1.25,-1.77734371 1.25,-2.96875001 0,-2.34375 -1.367187,-3.8671875 -3.515625,-3.8671875 z m 0,0.8203125 c 1.582031,0 2.597656,1.1914063 2.597656,3.0273438 0,1.7578125 -1.054687,2.94921871 -2.578125,2.94921871 -1.542968,0 -2.578125,-1.19140621 -2.578125,-2.98828121 0,-1.796875 1.035157,-2.9882813 2.558594,-2.9882813 z m 5.722656,3.4765625 h 2.285157 c 0.566406,0 1.015625,-0.15625 1.40625,-0.5078125 0.429687,-0.4101562 0.625,-0.859375 0.625,-1.5429687 0,-1.3671875 -0.820313,-2.1289063 -2.246094,-2.1289063 H 41.319234 V 5.0520833e-4 h 0.9375 z m 0,-0.8007812 v -2.5585938 h 1.933594 c 0.878906,0 1.40625,0.4882813 1.40625,1.2695313 0,0.8007812 -0.527344,1.2890625 -1.40625,1.2890625 z M 51.729391,5.0520833e-4 53.760641,-6.0932448 V 5.0520833e-4 h 0.878906 V -7.2651198 H 53.350484 L 51.241109,-0.93699479 49.092672,-7.2651198 H 47.803609 V 5.0520833e-4 h 0.878907 V -6.0932448 L 50.752828,5.0520833e-4 Z M 57.178609,-3.300276 h 3.964844 v -0.8203125 h -3.964844 v -2.3242188 h 4.101563 V -7.2651198 H 56.260641 V 5.0520833e-4 h 5.214843 V -0.81980729 h -4.296875 z m 11.254883,-3.9648438 h -0.859375 v 5.9375 l -3.808594,-5.9375 H 62.76943 V 5.0520833e-4 h 0.878906 V -5.878401 l 3.75,5.87890620833 h 1.035156 z m 4.301758,0.8203125 h 2.363281 v -0.8203125 h -5.683593 v 0.8203125 H 71.79775 V 5.0520833e-4 h 0.9375 z m 0,0"
       style="fill:#483c3a;fill-opacity:1;fill-rule:nonzero;stroke:none"
       aria-label="DEVELOPMENT"
       transform="matrix(0.8,0,0,0.8,152.4368,65.460533)" />
    <path
       id="path19"
       d="m 3.8684375,-7.3808698 c -2.0703125,0 -3.49609375,1.5429688 -3.49609375,3.8085938 0,2.265625 1.42578125,3.80859371 3.51562495,3.80859371 0.8789063,0 1.6601563,-0.2734375 2.2460938,-0.78125 0.78125,-0.66406251 1.25,-1.77734371 1.25,-2.96875001 0,-2.34375 -1.3671875,-3.8671875 -3.515625,-3.8671875 z m 0,0.8203125 c 1.5820312,0 2.5976562,1.1914063 2.5976562,3.0273438 0,1.7578125 -1.0546875,2.94921871 -2.578125,2.94921871 -1.5429687,0 -2.578125,-1.19140621 -2.578125,-2.98828121 0,-1.796875 1.0351563,-2.9882813 2.5585938,-2.9882813 z m 5.7177734,3.4765625 h 2.2851561 c 0.566406,0 1.015625,-0.15625 1.40625,-0.5078125 0.429688,-0.4101562 0.625,-0.859375 0.625,-1.5429687 0,-1.3671875 -0.820312,-2.1289063 -2.246094,-2.1289063 H 8.6487109 v 7.26562501 h 0.9375 z m 0,-0.8007812 v -2.5585938 h 1.9335941 c 0.878906,0 1.40625,0.4882813 1.40625,1.2695313 0,0.8007812 -0.527344,1.2890625 -1.40625,1.2890625 z m 6.6259761,0.5859375 h 3.964844 V -4.119151 h -3.964844 v -2.3242188 h 4.101563 v -0.8203125 h -5.019531 v 7.26562501 h 5.214843 v -0.8203125 h -4.296875 z m 6.684571,0.1757812 h 2.382812 c 0.839844,0 1.191407,0.390625 1.191407,1.2890625 v 0.6445313 c 0,0.44921871 0.07813,0.89843746 0.214843,1.19140621 h 1.113282 v -0.234375 c -0.351563,-0.234375 -0.410157,-0.48828125 -0.429688,-1.46484371 -0.01953,-1.1914063 -0.195312,-1.5429688 -0.996094,-1.8945313 0.820313,-0.390625 1.152344,-0.8984375 1.152344,-1.71875 0,-1.2695312 -0.78125,-1.953125 -2.207031,-1.953125 h -3.359375 v 7.26562501 h 0.9375 z m 0,-0.8203125 v -2.5 h 2.246094 c 0.507812,0 0.800781,0.078125 1.035156,0.2734375 0.253906,0.2148438 0.390625,0.546875 0.390625,0.9765625 0,0.859375 -0.449219,1.25 -1.425781,1.25 z m 10.063476,1.7578125 0.742188,2.18750001 h 1.035156 L 32.178984,-7.2636823 h -1.191406 l -2.578125,7.26562501 h 0.976563 L 30.147734,-2.1855573 Z M 32.686797,-2.947276 h -2.304688 l 1.191407,-3.3203125 z m 4.53125,-3.4960938 h 2.363281 v -0.8203125 h -5.683594 v 0.8203125 h 2.382813 v 6.44531251 h 0.9375 z m 4.487305,-0.8203125 h -0.9375 v 7.26562501 h 0.9375 z M 46.4075,-7.3808698 c -2.070313,0 -3.496094,1.5429688 -3.496094,3.8085938 0,2.265625 1.425781,3.80859371 3.515625,3.80859371 0.878906,0 1.660156,-0.2734375 2.246094,-0.78125 0.78125,-0.66406251 1.25,-1.77734371 1.25,-2.96875001 0,-2.34375 -1.367188,-3.8671875 -3.515625,-3.8671875 z m 0,0.8203125 c 1.582031,0 2.597656,1.1914063 2.597656,3.0273438 0,1.7578125 -1.054687,2.94921871 -2.578125,2.94921871 -1.542969,0 -2.578125,-1.19140621 -2.578125,-2.98828121 0,-1.796875 1.035156,-2.9882813 2.558594,-2.9882813 z m 10.307617,-0.703125 h -0.859375 v 5.9375 l -3.808594,-5.9375 h -0.996093 v 7.26562501 h 0.878906 V -5.8769635 l 3.75,5.87890621 h 1.035156 z m 6.708985,2.1289063 c -0.01953,-1.4257813 -0.996094,-2.2460938 -2.65625,-2.2460938 -1.601563,0 -2.578125,0.8203125 -2.578125,2.1289063 0,0.8984375 0.46875,1.4453125 1.425781,1.6992187 l 1.796875,0.46875 c 0.917969,0.2539063 1.328125,0.625 1.328125,1.1914063 0,0.3710937 -0.195313,0.78125 -0.507813,0.99609371 -0.292968,0.1953125 -0.742187,0.3125 -1.347656,0.3125 -0.78125,0 -1.308594,-0.1953125 -1.660156,-0.60546871 -0.273438,-0.3320313 -0.390625,-0.6640625 -0.390625,-1.1132813 h -0.878906 c 0.01953,0.6640625 0.15625,1.09375 0.429687,1.50390626 0.507813,0.6640625 1.347656,1.03515625 2.441406,1.03515625 0.878907,0 1.582032,-0.1953125 2.050782,-0.56640625 0.488281,-0.390625 0.800781,-1.03515626 0.800781,-1.66015626 0,-0.8984375 -0.566406,-1.5625 -1.542969,-1.8164062 l -1.835937,-0.4882813 c -0.878907,-0.2539062 -1.191407,-0.5273437 -1.191407,-1.0742187 0,-0.7421875 0.644532,-1.2304688 1.621094,-1.2304688 1.152344,0 1.816406,0.5273438 1.816406,1.4648438 z m 0,0"
       style="fill:#ff0000;fill-opacity:1;fill-rule:nonzero;stroke:none"
       aria-label="OPERATIONS"
       transform="matrix(0.8,0,0,0.8,281.624,60.678133)" />
    <path
       id="path20"
       d="m 4.4161484,-2.4799948 c 0,-1.0742187 -0.8789062,-1.9335937 -1.9335937,-1.9335937 -1.0742188,0 -1.93359376,0.8789062 -1.93359376,1.9335937 0,1.0546875 0.85937496,1.91406251 1.93359376,1.91406251 1.0546875,0 1.9335937,-0.85937501 1.9335937,-1.91406251 z m 0,0"
       style="fill:#000080;fill-opacity:1;fill-rule:nonzero;stroke:none"
       aria-label="•"
       transform="matrix(0.8,0,0,0.8,5.2288,134.19493)" />
    <path
       id="path21"
       d="m 1.8555781,-3.124526 h 2.3828125 c 0.8398438,0 1.1914063,0.390625 1.1914063,1.2890625 v 0.6445312 c 0,0.44921876 0.078125,0.89843751 0.2148437,1.19140625833 H 6.7579219 V -0.23390104 C 6.4063594,-0.46827604 6.3477656,-0.72218229 6.3282344,-1.6987448 6.3087031,-2.890151 6.1329219,-3.2417135 5.3321406,-3.593276 c 0.8203125,-0.390625 1.1523438,-0.8984375 1.1523438,-1.71875 0,-1.2695313 -0.78125,-1.953125 -2.2070313,-1.953125 H 0.91807812 V 4.7395833e-4 H 1.8555781 Z m 0,-0.8203125 v -2.5 h 2.2460938 c 0.5078125,0 0.8007812,0.078125 1.0351562,0.2734375 0.2539063,0.2148437 0.390625,0.546875 0.390625,0.9765625 0,0.859375 -0.4492187,1.25 -1.4257812,1.25 z M 12.30968,-2.3237448 c 0,-0.8007812 -0.05859,-1.2890625 -0.214844,-1.6796875 -0.332031,-0.8398437 -1.132813,-1.3671875 -2.1093751,-1.3671875 -1.4648437,0 -2.4023437,1.1132813 -2.4023437,2.8320313 0,1.71874996 0.9179687,2.77343746 2.3828125,2.77343746 1.1914063,0 2.0117183,-0.68359375 2.2265623,-1.81640626 h -0.839844 c -0.234375,0.68359376 -0.703125,1.03515626 -1.3671871,1.03515626 -0.5273437,0 -0.9765625,-0.234375 -1.25,-0.66406246 -0.1953125,-0.3125 -0.2734375,-0.6054688 -0.2734375,-1.1132813 z M 8.4815547,-3.0073385 c 0.058594,-0.9570313 0.6445312,-1.6015625 1.484375,-1.6015625 0.8203123,0 1.4453123,0.6835937 1.4453123,1.5429687 0,0.019531 0,0.039063 0,0.058594 z m 9.1748043,5.1757812 v -7.3828125 h -0.722656 v 0.6835938 c -0.390625,-0.546875 -0.976562,-0.8398438 -1.660156,-0.8398438 -1.386719,0 -2.285156,1.1328125 -2.285156,2.8515625 0,1.69921876 0.859375,2.75390626 2.226562,2.75390626 0.742188,0 1.230469,-0.2734375 1.621094,-0.83984375 V 2.1684427 Z m -2.265625,-6.7578125 c 0.878907,0 1.445313,0.8007813 1.445313,2.0507813 0,1.1914062 -0.566406,1.99218746 -1.445313,1.99218746 -0.917968,0 -1.523437,-0.80078126 -1.523437,-2.03124996 0,-1.1914063 0.605469,-2.0117188 1.523437,-2.0117188 z M 23.076281,4.7395833e-4 V -5.2143698 h -0.839844 v 2.9492188 c 0,1.0742187 -0.546875,1.77734371 -1.40625,1.77734371 -0.664062,0 -1.09375,-0.41015625 -1.09375,-1.03515621 v -3.6914063 h -0.820312 v 4.0234375 c 0,0.85937501 0.644531,1.42578126 1.660156,1.42578126 0.78125,0 1.269531,-0.2734375 1.757813,-0.95703125 V 4.7395833e-4 Z M 25.293078,-5.2143698 H 24.472766 V 4.7395833e-4 h 0.820312 z m 0,-2.0507812 h -0.820312 v 1.0546875 h 0.820312 z m 1.411133,2.0507812 V 4.7395833e-4 h 0.839844 V -2.7143698 c 0,-0.7421875 0.195312,-1.2304687 0.585937,-1.5234375 0.253906,-0.1757812 0.507813,-0.234375 1.09375,-0.2539062 v -0.8398438 c -0.136719,-0.019531 -0.214844,-0.039063 -0.332031,-0.039063 -0.527344,0 -0.9375,0.3125 -1.425781,1.09375 v -0.9375 z m 7.753906,2.890625 c 0,-0.8007812 -0.05859,-1.2890625 -0.214844,-1.6796875 -0.332031,-0.8398437 -1.132812,-1.3671875 -2.109375,-1.3671875 -1.464843,0 -2.402343,1.1132813 -2.402343,2.8320313 0,1.71874996 0.917968,2.77343746 2.382812,2.77343746 1.191406,0 2.011719,-0.68359375 2.226563,-1.81640626 h -0.839844 c -0.234375,0.68359376 -0.703125,1.03515626 -1.367188,1.03515626 -0.527343,0 -0.976562,-0.234375 -1.25,-0.66406246 -0.195312,-0.3125 -0.273437,-0.6054688 -0.273437,-1.1132813 z m -3.828125,-0.6835937 c 0.05859,-0.9570313 0.644531,-1.6015625 1.484375,-1.6015625 0.820313,0 1.445313,0.6835937 1.445313,1.5429687 0,0.019531 0,0.039063 0,0.058594 z m 4.951172,-2.2070313 V 4.7395833e-4 h 0.839844 V -3.280776 c 0,-0.7617188 0.546875,-1.3671875 1.210937,-1.3671875 0.625,0 0.976563,0.390625 0.976563,1.0546875 V 4.7395833e-4 h 0.839844 V -3.280776 c 0,-0.7617188 0.546875,-1.3671875 1.210937,-1.3671875 0.605469,0 0.976563,0.390625 0.976563,1.0546875 V 4.7395833e-4 h 0.839843 V -3.905776 c 0,-0.9375 -0.546875,-1.4648438 -1.523437,-1.4648438 -0.703125,0 -1.113281,0.2148438 -1.601563,0.8007813 -0.3125,-0.5664063 -0.722656,-0.8007813 -1.40625,-0.8007813 -0.703125,0 -1.152343,0.2539063 -1.601562,0.8984375 v -0.7421875 z m 12.714844,2.890625 c 0,-0.8007812 -0.05859,-1.2890625 -0.214844,-1.6796875 -0.332031,-0.8398437 -1.132812,-1.3671875 -2.109375,-1.3671875 -1.464844,0 -2.402344,1.1132813 -2.402344,2.8320313 0,1.71874996 0.917969,2.77343746 2.382813,2.77343746 1.191406,0 2.011719,-0.68359375 2.226562,-1.81640626 h -0.839843 c -0.234375,0.68359376 -0.703125,1.03515626 -1.367188,1.03515626 -0.527344,0 -0.976562,-0.234375 -1.25,-0.66406246 -0.195312,-0.3125 -0.273437,-0.6054688 -0.273437,-1.1132813 z m -3.828125,-0.6835937 c 0.05859,-0.9570313 0.644531,-1.6015625 1.484375,-1.6015625 0.820312,0 1.445312,0.6835937 1.445312,1.5429687 0,0.019531 0,0.039063 0,0.058594 z m 4.951172,-2.2070313 V 4.7395833e-4 h 0.839843 V -2.8706198 c 0,-1.0742187 0.546875,-1.7773437 1.40625,-1.7773437 0.664063,0 1.074219,0.4101562 1.074219,1.0351562 V 4.7395833e-4 H 53.55968 V -3.9448385 c 0,-0.859375 -0.644532,-1.4257813 -1.640625,-1.4257813 -0.78125,0 -1.289063,0.2929688 -1.738282,1.0351563 v -0.8789063 z m 7.377929,0 h -0.859375 v -1.4453125 h -0.839843 v 1.4453125 h -0.703125 v 0.6640625 h 0.703125 v 3.94531251 c 0,0.52734375 0.371093,0.83984375 1.015625,0.83984375 0.195312,0 0.390625,-0.0195313 0.683593,-0.078125 v -0.703125 c -0.117187,0.0390625 -0.253906,0.0585938 -0.410156,0.0585938 -0.351562,0 -0.449219,-0.1171875 -0.449219,-0.46875 V -4.5503073 h 0.859375 z m 4.584961,1.4453125 c 0,-1.015625 -0.683593,-1.6015625 -1.894531,-1.6015625 -1.210937,0 -1.992187,0.625 -1.992187,1.6015625 0,0.8203125 0.410156,1.1914063 1.660156,1.5039063 l 0.761719,0.1757812 c 0.585937,0.15625 0.820312,0.3515625 0.820312,0.7421875 0,0.48828126 -0.488281,0.80078126 -1.230469,0.80078126 -0.429687,0 -0.820312,-0.1171875 -1.035156,-0.33203125 C 58.354602,-1.0346823 58.296008,-1.1909323 58.237414,-1.562026 h -0.878906 c 0.03906,1.21093746 0.722656,1.79687496 2.089844,1.79687496 1.308593,0 2.148437,-0.64453125 2.148437,-1.66015626 0,-0.78125 -0.429687,-1.2109375 -1.464844,-1.4453125 l -0.800781,-0.1953125 c -0.683594,-0.15625 -0.976562,-0.3710937 -0.976562,-0.7421875 0,-0.4882812 0.429687,-0.8007812 1.113281,-0.8007812 0.664062,0 1.015625,0.2929687 1.035156,0.8398437 z m 5.200196,0.46875 h 3.964843 v -0.8203125 h -3.964843 v -2.3242187 h 4.101562 V -7.265151 H 65.664172 V 4.7395833e-4 h 5.214844 V -0.81983854 h -4.296875 z m 5.532226,-1.9140625 V 4.7395833e-4 h 0.839844 V -2.8706198 c 0,-1.0742187 0.546875,-1.7773437 1.40625,-1.7773437 0.664062,0 1.074219,0.4101562 1.074219,1.0351562 V 4.7395833e-4 h 0.820312 V -3.9448385 c 0,-0.859375 -0.644531,-1.4257813 -1.640625,-1.4257813 -0.78125,0 -1.289062,0.2929688 -1.738281,1.0351563 v -0.8789063 z m 8.94043,0 v 0.7617188 c -0.410156,-0.625 -0.917969,-0.9179688 -1.582031,-0.9179688 -1.328125,0 -2.226563,1.1523438 -2.226563,2.8515625 0,0.859375 0.234375,1.56250001 0.644531,2.05078126 0.390625,0.4296875 0.957032,0.703125 1.503907,0.703125 0.664062,0 1.113281,-0.29296875 1.582031,-0.9375 v 0.2734375 c 0,0.703125 -0.09766,1.1328125 -0.292969,1.40625 -0.214844,0.31250004 -0.644531,0.48828124 -1.152344,0.48828124 -0.390625,0 -0.722656,-0.097656 -0.957031,-0.2734375 -0.195312,-0.1367187 -0.273437,-0.29296874 -0.3125,-0.58593749 h -0.859375 c 0.09766,0.97656249 0.859375,1.56249999 2.089844,1.56249999 0.78125,0 1.445312,-0.2539062 1.777344,-0.6640625 0.410156,-0.46875 0.546875,-1.13281249 0.546875,-2.36328124 V -5.2143698 Z m -1.503906,0.6054688 c 0.898437,0 1.425781,0.7617187 1.425781,2.0703125 0,1.25 -0.546875,1.99218746 -1.40625,1.99218746 -0.917969,0 -1.464844,-0.76171876 -1.464844,-2.03124996 0,-1.25 0.566406,-2.03125 1.445313,-2.03125 z m 4.423828,-0.6054688 H 83.154406 V 4.7395833e-4 h 0.820313 z m 0,-2.0507812 h -0.820313 v 1.0546875 h 0.820313 z m 1.430664,2.0507812 V 4.7395833e-4 h 0.839844 V -2.8706198 c 0,-1.0742187 0.546875,-1.7773437 1.40625,-1.7773437 0.664062,0 1.074218,0.4101562 1.074218,1.0351562 V 4.7395833e-4 h 0.820313 V -3.9448385 c 0,-0.859375 -0.644531,-1.4257813 -1.640625,-1.4257813 -0.78125,0 -1.289063,0.2929688 -1.738281,1.0351563 v -0.8789063 z m 9.951172,2.890625 c 0,-0.8007812 -0.05859,-1.2890625 -0.214844,-1.6796875 -0.332031,-0.8398437 -1.132813,-1.3671875 -2.109375,-1.3671875 -1.464844,0 -2.402344,1.1132813 -2.402344,2.8320313 0,1.71874996 0.917969,2.77343746 2.382813,2.77343746 1.191406,0 2.011718,-0.68359375 2.226562,-1.81640626 h -0.839844 c -0.234375,0.68359376 -0.703125,1.03515626 -1.367187,1.03515626 -0.527344,0 -0.976563,-0.234375 -1.25,-0.66406246 -0.195313,-0.3125 -0.273438,-0.6054688 -0.273438,-1.1132813 z M 91.52843,-3.0073385 c 0.05859,-0.9570313 0.644531,-1.6015625 1.484375,-1.6015625 0.820312,0 1.445312,0.6835937 1.445312,1.5429687 0,0.019531 0,0.039063 0,0.058594 z m 9.37012,0.6835937 c 0,-0.8007812 -0.0586,-1.2890625 -0.21485,-1.6796875 -0.33203,-0.8398437 -1.132809,-1.3671875 -2.109372,-1.3671875 -1.464844,0 -2.402344,1.1132813 -2.402344,2.8320313 0,1.71874996 0.917969,2.77343746 2.382813,2.77343746 1.191406,0 2.011723,-0.68359375 2.226563,-1.81640626 h -0.839844 c -0.234375,0.68359376 -0.703125,1.03515626 -1.367188,1.03515626 -0.527344,0 -0.976562,-0.234375 -1.25,-0.66406246 -0.195312,-0.3125 -0.273437,-0.6054688 -0.273437,-1.1132813 z m -3.828128,-0.6835937 c 0.05859,-0.9570313 0.644531,-1.6015625 1.484375,-1.6015625 0.820312,0 1.445313,0.6835937 1.445313,1.5429687 0,0.019531 0,0.039063 0,0.058594 z m 4.931638,-2.2070313 V 4.7395833e-4 h 0.83985 V -2.7143698 c 0,-0.7421875 0.19531,-1.2304687 0.58593,-1.5234375 0.25391,-0.1757812 0.50782,-0.234375 1.09375,-0.2539062 v -0.8398438 c -0.13672,-0.019531 -0.21484,-0.039063 -0.33203,-0.039063 -0.52734,0 -0.9375,0.3125 -1.42578,1.09375 v -0.9375 z m 4.26758,0 h -0.82031 V 4.7395833e-4 h 0.82031 z m 0,-2.0507812 h -0.82031 v 1.0546875 h 0.82031 z m 1.43066,2.0507812 V 4.7395833e-4 h 0.83985 V -2.8706198 c 0,-1.0742187 0.54687,-1.7773437 1.40625,-1.7773437 0.66406,0 1.07422,0.4101562 1.07422,1.0351562 V 4.7395833e-4 h 0.82031 V -3.9448385 c 0,-0.859375 -0.64453,-1.4257813 -1.64063,-1.4257813 -0.78125,0 -1.28906,0.2929688 -1.73828,1.0351563 v -0.8789063 z m 8.94043,0 v 0.7617188 c -0.41015,-0.625 -0.91796,-0.9179688 -1.58203,-0.9179688 -1.32812,0 -2.22656,1.1523438 -2.22656,2.8515625 0,0.859375 0.23438,1.56250001 0.64453,2.05078126 0.39063,0.4296875 0.95703,0.703125 1.50391,0.703125 0.66406,0 1.11328,-0.29296875 1.58203,-0.9375 v 0.2734375 c 0,0.703125 -0.0977,1.1328125 -0.29297,1.40625 -0.21484,0.31250004 -0.64453,0.48828124 -1.15234,0.48828124 -0.39063,0 -0.72266,-0.097656 -0.95703,-0.2734375 -0.19532,-0.1367187 -0.27344,-0.29296874 -0.3125,-0.58593749 h -0.85938 c 0.0977,0.97656249 0.85938,1.56249999 2.08984,1.56249999 0.78125,0 1.44532,-0.2539062 1.77735,-0.6640625 0.41015,-0.46875 0.54687,-1.13281249 0.54687,-2.36328124 V -5.2143698 Z m -1.5039,0.6054688 c 0.89844,0 1.42578,0.7617187 1.42578,2.0703125 0,1.25 -0.54688,1.99218746 -1.40625,1.99218746 -0.91797,0 -1.46484,-0.76171876 -1.46484,-2.03124996 0,-1.25 0.5664,-2.03125 1.44531,-2.03125 z m 0,0"
       style="fill:#000080;fill-opacity:1;fill-rule:nonzero;stroke:none"
       aria-label="RequirementsEngineering"
       transform="matrix(0.8,0,0,0.8,11.4296,134.19493)" />
    <path
       id="path22"
       d="m 4.4161484,-2.4828698 c 0,-1.0742187 -0.8789062,-1.9335937 -1.9335937,-1.9335937 -1.0742188,0 -1.93359376,0.8789062 -1.93359376,1.9335937 0,1.0546875 0.85937496,1.91406251 1.93359376,1.91406251 1.0546875,0 1.9335937,-0.85937501 1.9335937,-1.91406251 z m 0,0"
       style="fill:#000080;fill-opacity:1;fill-rule:nonzero;stroke:none"
       aria-label="•"
       transform="matrix(0.8,0,0,0.8,5.2288,143.75973)" />
    <path
       id="path23"
       d="m 4.6680781,-0.00240104 2.03125,-6.09374996 v 6.09374996 H 7.5782344 V -7.268026 H 6.2891719 L 4.1797969,-0.93990104 2.0313594,-7.268026 H 0.74229687 v 7.26562496 H 1.6212031 V -6.096151 l 2.0703125,6.09374996 z M 10.019641,-7.268026 H 9.1016719 v 7.26562496 h 4.5117191 v -0.8203125 h -3.59375 z m 12.094726,0 v 5.0976562 c 0,0.9765625 -0.722656,1.58203126 -1.875,1.58203126 -0.546875,0 -0.976562,-0.13671875 -1.328125,-0.37109375 C 18.540148,-1.252401 18.383898,-1.6234948 18.383898,-2.1703698 V -7.268026 h -0.9375 v 5.0976562 c 0,1.48437501 1.054688,2.40234376 2.792969,2.40234376 1.699219,0 2.792969,-0.9375 2.792969,-2.40234376 V -7.268026 Z m 6.040039,3.4960937 c 0,-1.015625 -0.683594,-1.6015625 -1.894531,-1.6015625 -1.210938,0 -1.992188,0.625 -1.992188,1.6015625 0,0.8203125 0.410157,1.1914063 1.660157,1.5039063 l 0.761718,0.1757812 c 0.585938,0.15625 0.820313,0.3515625 0.820313,0.7421875 0,0.48828126 -0.488281,0.80078126 -1.230469,0.80078126 -0.429687,0 -0.820312,-0.1171875 -1.035156,-0.33203125 C 25.127062,-1.0375573 25.068469,-1.1938073 25.009875,-1.564901 h -0.878906 c 0.03906,1.21093746 0.722656,1.79687496 2.089843,1.79687496 1.308594,0 2.148438,-0.64453125 2.148438,-1.66015626 0,-0.78125 -0.429688,-1.2109375 -1.464844,-1.4453125 l -0.800781,-0.1953125 c -0.683594,-0.15625 -0.976563,-0.3710937 -0.976563,-0.7421875 0,-0.4882812 0.429688,-0.8007812 1.113282,-0.8007812 0.664062,0 1.015625,0.2929687 1.035156,0.8398437 z m 5.747071,1.4453125 c 0,-0.8007812 -0.05859,-1.2890625 -0.214844,-1.6796875 -0.332031,-0.8398437 -1.132813,-1.3671875 -2.109375,-1.3671875 -1.464844,0 -2.402344,1.1132813 -2.402344,2.8320313 0,1.71874996 0.917969,2.77343746 2.382813,2.77343746 1.191406,0 2.011718,-0.68359375 2.226562,-1.81640626 h -0.839844 c -0.234375,0.68359376 -0.703125,1.03515626 -1.367187,1.03515626 -0.527344,0 -0.976563,-0.234375 -1.25,-0.66406246 -0.195313,-0.3125 -0.273438,-0.6054688 -0.273438,-1.1132813 z m -3.828125,-0.6835937 c 0.05859,-0.9570313 0.644531,-1.6015625 1.484375,-1.6015625 0.820312,0 1.445312,0.6835937 1.445312,1.5429687 0,0.019531 0,0.039063 0,0.058594 z m 7.080078,-0.097656 h -2.382813 v 0.7226563 h 2.382813 z m 7.084961,-1.9140625 c -0.292969,-1.5820312 -1.210938,-2.3632812 -2.8125,-2.3632812 -0.976563,0 -1.757813,0.3125 -2.304688,0.9179687 -0.644531,0.703125 -1.015625,1.7382813 -1.015625,2.9101563 0,1.2109375 0.371094,2.2265625 1.074219,2.92968746 0.546875,0.5859375 1.269531,0.859375 2.207031,0.859375 1.777344,0 2.773438,-0.95703125 2.988281,-2.89062496 h -0.957031 c -0.07813,0.5078125 -0.175781,0.8398437 -0.332031,1.1328125 -0.292969,0.60546871 -0.898438,0.93749996 -1.679688,0.93749996 -1.445312,0 -2.363281,-1.15234376 -2.363281,-2.96874996 0,-1.8554688 0.878906,-3.0078125 2.285156,-3.0078125 0.585938,0 1.132813,0.1757812 1.425782,0.4492187 0.273437,0.2539063 0.429687,0.5664063 0.527343,1.09375 z m 5.927734,4.53125001 c -0.09766,0.0195313 -0.136719,0.0195313 -0.175781,0.0195313 -0.292969,0 -0.449219,-0.15625 -0.449219,-0.41015625 V -3.9477135 c 0,-0.9179688 -0.683594,-1.4257813 -1.972656,-1.4257813 -0.761719,0 -1.386719,0.2148438 -1.71875,0.6054688 -0.253907,0.2734375 -0.351563,0.5664062 -0.371094,1.09375 h 0.839844 c 0.07813,-0.6445313 0.449218,-0.9375 1.230468,-0.9375 0.742188,0 1.152344,0.2929687 1.152344,0.78125 v 0.2148437 c 0,0.3515625 -0.195312,0.5078125 -0.859375,0.5859375 -1.171875,0.15625 -1.347656,0.1953125 -1.679687,0.3125 -0.605469,0.2539063 -0.917969,0.7226563 -0.917969,1.40625 0,0.93750001 0.664062,1.54296876 1.71875,1.54296876 0.664062,0 1.191406,-0.234375 1.777344,-0.78125 0.05859,0.52734375 0.3125,0.78125 0.859375,0.78125 0.15625,0 0.292968,-0.0195313 0.566406,-0.0976563 z M 48.701281,-1.643026 c 0,0.2734375 -0.07813,0.4492187 -0.3125,0.68359371 -0.351562,0.29296875 -0.761719,0.46875 -1.25,0.46875 -0.644531,0 -1.015625,-0.3125 -1.015625,-0.83984371 0,-0.546875 0.371094,-0.8398438 1.25,-0.9570313 0.878906,-0.1171875 1.054688,-0.15625 1.328125,-0.2929687 z m 6.025391,-2.1289063 c 0,-1.015625 -0.683594,-1.6015625 -1.894531,-1.6015625 -1.210938,0 -1.992188,0.625 -1.992188,1.6015625 0,0.8203125 0.410156,1.1914063 1.660156,1.5039063 l 0.761719,0.1757812 c 0.585938,0.15625 0.820313,0.3515625 0.820313,0.7421875 0,0.48828126 -0.488282,0.80078126 -1.230469,0.80078126 -0.429688,0 -0.820313,-0.1171875 -1.035156,-0.33203125 C 51.699328,-1.0375573 51.640734,-1.1938073 51.582141,-1.564901 h -0.878907 c 0.03906,1.21093746 0.722657,1.79687496 2.089844,1.79687496 1.308594,0 2.148438,-0.64453125 2.148438,-1.66015626 0,-0.78125 -0.429688,-1.2109375 -1.464844,-1.4453125 l -0.800781,-0.1953125 c -0.683594,-0.15625 -0.976563,-0.3710937 -0.976563,-0.7421875 0,-0.4882812 0.429688,-0.8007812 1.113281,-0.8007812 0.664063,0 1.015625,0.2929687 1.035157,0.8398437 z m 5.742187,1.4453125 c 0,-0.8007812 -0.05859,-1.2890625 -0.214843,-1.6796875 -0.332032,-0.8398437 -1.132813,-1.3671875 -2.109375,-1.3671875 -1.464844,0 -2.402344,1.1132813 -2.402344,2.8320313 0,1.71874996 0.917969,2.77343746 2.382812,2.77343746 1.191407,0 2.011719,-0.68359375 2.226563,-1.81640626 h -0.839844 c -0.234375,0.68359376 -0.703125,1.03515626 -1.367187,1.03515626 -0.527344,0 -0.976563,-0.234375 -1.25,-0.66406246 -0.195313,-0.3125 -0.273438,-0.6054688 -0.273438,-1.1132813 z m -3.828125,-0.6835937 c 0.05859,-0.9570313 0.644532,-1.6015625 1.484375,-1.6015625 0.820313,0 1.445313,0.6835937 1.445313,1.5429687 0,0.019531 0,0.039063 0,0.058594 z m 8.608399,-0.7617188 c 0,-1.015625 -0.683594,-1.6015625 -1.894531,-1.6015625 -1.210938,0 -1.992188,0.625 -1.992188,1.6015625 0,0.8203125 0.410156,1.1914063 1.660156,1.5039063 l 0.761719,0.1757812 c 0.585938,0.15625 0.820313,0.3515625 0.820313,0.7421875 0,0.48828126 -0.488282,0.80078126 -1.230469,0.80078126 -0.429688,0 -0.820313,-0.1171875 -1.035156,-0.33203125 C 62.221789,-1.0375573 62.163195,-1.1938073 62.104602,-1.564901 h -0.878907 c 0.03906,1.21093746 0.722657,1.79687496 2.089844,1.79687496 1.308594,0 2.148438,-0.64453125 2.148438,-1.66015626 0,-0.78125 -0.429688,-1.2109375 -1.464844,-1.4453125 l -0.800781,-0.1953125 c -0.683594,-0.15625 -0.976563,-0.3710937 -0.976563,-0.7421875 0,-0.4882812 0.429688,-0.8007812 1.113281,-0.8007812 0.664063,0 1.015625,0.2929687 1.035157,0.8398437 z m 5.219726,0.6835938 h 2.285157 c 0.566406,0 1.015625,-0.15625 1.40625,-0.5078125 0.429687,-0.4101563 0.625,-0.859375 0.625,-1.5429688 0,-1.3671875 -0.820313,-2.1289062 -2.246094,-2.1289062 h -3.007813 v 7.26562496 h 0.9375 z m 0,-0.8007813 v -2.5585937 h 1.933594 c 0.878906,0 1.40625,0.4882812 1.40625,1.2695312 0,0.8007813 -0.527344,1.2890625 -1.40625,1.2890625 z m 5.493164,-1.328125 v 5.21484376 h 0.839844 V -2.7172448 c 0,-0.7421875 0.195313,-1.2304687 0.585938,-1.5234375 0.253906,-0.1757812 0.507812,-0.234375 1.09375,-0.2539062 v -0.8398438 c -0.136719,-0.019531 -0.214844,-0.039063 -0.332032,-0.039063 -0.527343,0 -0.9375,0.3125 -1.425781,1.09375 v -0.9375 z m 4.267579,0 h -0.820313 v 5.21484376 h 0.820313 z m 0,-2.0507812 h -0.820313 v 1.0546875 h 0.820313 z m 3.442382,1.8945312 c -1.464843,0 -2.363281,1.0546875 -2.363281,2.7929688 0,1.75781246 0.878906,2.81249996 2.363281,2.81249996 1.464844,0 2.363282,-1.0546875 2.363282,-2.77343746 0,-1.796875 -0.859375,-2.8320313 -2.363282,-2.8320313 z m 0,0.7617188 c 0.9375,0 1.503907,0.78125 1.503907,2.0703125 0,1.2304687 -0.585938,1.99218746 -1.503907,1.99218746 -0.917968,0 -1.484375,-0.76171876 -1.484375,-2.03124996 0,-1.25 0.566407,-2.03125 1.484375,-2.03125 z m 3.50586,-0.6054688 v 5.21484376 h 0.839843 V -2.7172448 c 0,-0.7421875 0.195313,-1.2304687 0.585938,-1.5234375 0.253906,-0.1757812 0.507812,-0.234375 1.09375,-0.2539062 v -0.8398438 c -0.136719,-0.019531 -0.214844,-0.039063 -0.332031,-0.039063 -0.527344,0 -0.9375,0.3125 -1.425782,1.09375 v -0.9375 z m 4.267578,0 h -0.820313 v 5.21484376 h 0.820313 z m 0,-2.0507812 h -0.820313 v 1.0546875 h 0.820313 z m 3.266601,2.0507812 h -0.859375 v -1.4453125 h -0.839843 v 1.4453125 H 92.30968 v 0.6640625 h 0.703125 v 3.94531251 c 0,0.52734375 0.371093,0.83984375 1.015625,0.83984375 0.195312,0 0.390625,-0.0195313 0.683593,-0.078125 v -0.703125 c -0.117187,0.0390625 -0.253906,0.0585937 -0.410156,0.0585937 -0.351562,0 -0.449219,-0.1171875 -0.449219,-0.46875 V -4.5531823 h 0.859375 z m 1.71875,0 h -0.820312 v 5.21484376 h 0.820312 z m 0,-2.0507812 h -0.820312 v 1.0546875 h 0.820312 z m 5.136717,2.0507812 h -3.886717 v 0.7226563 h 2.890627 l -3.10547,3.74999996 v 0.7421875 h 4.23828 v -0.72265625 h -3.242187 l 3.105467,-3.75000001 z m 5.90332,4.72656251 c -0.0977,0.0195313 -0.13672,0.0195313 -0.17578,0.0195313 -0.29297,0 -0.44922,-0.15625 -0.44922,-0.41015625 V -3.9477135 c 0,-0.9179688 -0.68359,-1.4257813 -1.97265,-1.4257813 -0.76172,0 -1.38672,0.2148438 -1.71875,0.6054688 -0.25391,0.2734375 -0.35157,0.5664062 -0.3711,1.09375 h 0.83985 c 0.0781,-0.6445313 0.44921,-0.9375 1.23046,-0.9375 0.74219,0 1.15235,0.2929687 1.15235,0.78125 v 0.2148437 c 0,0.3515625 -0.19531,0.5078125 -0.85938,0.5859375 -1.17187,0.15625 -1.34765,0.1953125 -1.67968,0.3125 -0.60547,0.2539063 -0.91797,0.7226563 -0.91797,1.40625 0,0.93750001 0.66406,1.54296876 1.71875,1.54296876 0.66406,0 1.1914,-0.234375 1.77734,-0.78125 0.0586,0.52734375 0.3125,0.78125 0.85938,0.78125 0.15625,0 0.29296,-0.0195313 0.5664,-0.0976563 z M 106.00597,-1.643026 c 0,0.2734375 -0.0781,0.4492187 -0.3125,0.68359371 -0.35156,0.29296875 -0.76172,0.46875 -1.25,0.46875 -0.64453,0 -1.01563,-0.3125 -1.01563,-0.83984371 0,-0.546875 0.3711,-0.8398438 1.25,-0.9570313 0.87891,-0.1171875 1.05469,-0.15625 1.32813,-0.2929687 z m 4.20898,-3.5742188 h -0.85937 v -1.4453125 h -0.83985 v 1.4453125 h -0.70312 v 0.6640625 h 0.70312 v 3.94531251 c 0,0.52734375 0.3711,0.83984375 1.01563,0.83984375 0.19531,0 0.39062,-0.0195313 0.68359,-0.078125 v -0.703125 c -0.11718,0.0390625 -0.2539,0.0585937 -0.41015,0.0585937 -0.35157,0 -0.44922,-0.1171875 -0.44922,-0.46875 V -4.5531823 h 0.85937 z m 1.71387,0 h -0.82031 v 5.21484376 h 0.82031 z m 0,-2.0507812 h -0.82031 v 1.0546875 h 0.82031 z m 3.44238,1.8945312 c -1.46484,0 -2.36328,1.0546875 -2.36328,2.7929688 0,1.75781246 0.87891,2.81249996 2.36328,2.81249996 1.46485,0 2.36328,-1.0546875 2.36328,-2.77343746 0,-1.796875 -0.85937,-2.8320313 -2.36328,-2.8320313 z m 0,0.7617188 c 0.9375,0 1.50391,0.78125 1.50391,2.0703125 0,1.2304687 -0.58594,1.99218746 -1.50391,1.99218746 -0.91797,0 -1.48437,-0.76171876 -1.48437,-2.03124996 0,-1.25 0.5664,-2.03125 1.48437,-2.03125 z m 3.53028,-0.6054688 v 5.21484376 h 0.83984 V -2.8734948 c 0,-1.0742187 0.54688,-1.7773437 1.40625,-1.7773437 0.66406,0 1.07422,0.4101562 1.07422,1.0351562 v 3.61328126 h 0.82031 V -3.9477135 c 0,-0.859375 -0.64453,-1.4257813 -1.64062,-1.4257813 -0.78125,0 -1.28907,0.2929688 -1.73828,1.0351563 v -0.8789063 z m 0,0"
       style="fill:#000080;fill-opacity:1;fill-rule:nonzero;stroke:none"
       aria-label="MLUse-CasesPrioritization"
       transform="matrix(0.8,0,0,0.8,11.4296,143.75973)" />
    <path
       id="path24"
       d="m 4.4161484,-2.479862 c 0,-1.0742187 -0.8789062,-1.9335937 -1.9335937,-1.9335937 -1.0742188,0 -1.93359376,0.8789062 -1.93359376,1.9335937 0,1.0546875 0.85937496,1.91406252 1.93359376,1.91406252 1.0546875,0 1.9335937,-0.85937502 1.9335937,-1.91406252 z m 0,0"
       style="fill:#000080;fill-opacity:1;fill-rule:nonzero;stroke:none"
       aria-label="•"
       transform="matrix(0.8,0,0,0.8,5.2288,153.32373)" />
    <path
       id="path25"
       d="M 0.87901562,6.0677083e-4 H 3.6915156 c 1.8359375,0 2.9492188,-1.36718747083 2.9492188,-3.63281247083 0,-2.2460938 -1.1132813,-3.6328125 -2.9492188,-3.6328125 H 0.87901562 Z M 1.8165156,-0.81970573 V -6.4447057 h 1.71875 c 1.4257813,0 2.1875,0.9765625 2.1875,2.8125 0,1.8359375 -0.7617187,2.81249997 -2.1875,2.81249997 z m 10.7080074,0.33203125 c -0.09766,0.0195313 -0.136718,0.0195313 -0.175781,0.0195313 -0.292969,0 -0.449219,-0.15625 -0.449219,-0.41015625 V -3.9447057 c 0,-0.9179688 -0.683593,-1.4257813 -1.9726558,-1.4257813 -0.7617188,0 -1.3867188,0.2148438 -1.71875,0.6054688 -0.2539063,0.2734375 -0.3515625,0.5664062 -0.3710938,1.09375 h 0.8398438 c 0.078125,-0.6445313 0.4492187,-0.9375 1.2304687,-0.9375 0.7421871,0 1.1523441,0.2929687 1.1523441,0.78125 v 0.2148437 c 0,0.3515625 -0.195313,0.5078125 -0.859375,0.5859375 -1.1718753,0.15625 -1.3476566,0.1953125 -1.6796878,0.3125 -0.6054688,0.2539063 -0.9179688,0.7226563 -0.9179688,1.40625 0,0.93750002 0.6640625,1.54296877 1.71875,1.54296877 0.6640625,0 1.1914066,-0.23437499917 1.7773436,-0.78125 0.05859,0.52734375 0.3125,0.78125 0.859375,0.78125 0.15625,0 0.292969,-0.0195313 0.566406,-0.0976563 z M 11.05968,-1.6400182 c 0,0.2734375 -0.07813,0.4492187 -0.3125,0.68359372 -0.351563,0.29296875 -0.7617191,0.46875 -1.2500003,0.46875 -0.6445313,0 -1.015625,-0.3125 -1.015625,-0.83984372 0,-0.546875 0.3710937,-0.8398438 1.25,-0.9570313 0.8789063,-0.1171875 1.0546873,-0.15625 1.3281253,-0.2929687 z m 4.213867,-3.5742188 h -0.859375 v -1.4453125 h -0.839844 v 1.4453125 h -0.703125 v 0.6640625 h 0.703125 v 3.94531252 c 0,0.52734375 0.371094,0.83984375 1.015625,0.83984375 0.195313,0 0.390625,-0.0195313 0.683594,-0.078125 v -0.703125 c -0.117188,0.0390625 -0.253906,0.0585938 -0.410156,0.0585938 -0.351563,0 -0.449219,-0.1171875 -0.449219,-0.46875 V -4.5501745 h 0.859375 z m 5.561523,4.72656252 c -0.09766,0.0195313 -0.136718,0.0195313 -0.175781,0.0195313 -0.292969,0 -0.449219,-0.15625 -0.449219,-0.41015625 V -3.9447057 c 0,-0.9179688 -0.683593,-1.4257813 -1.972656,-1.4257813 -0.761719,0 -1.386719,0.2148438 -1.71875,0.6054688 -0.253906,0.2734375 -0.351562,0.5664062 -0.371094,1.09375 h 0.839844 c 0.07813,-0.6445313 0.449219,-0.9375 1.230469,-0.9375 0.742187,0 1.152344,0.2929687 1.152344,0.78125 v 0.2148437 c 0,0.3515625 -0.195313,0.5078125 -0.859375,0.5859375 -1.171875,0.15625 -1.347657,0.1953125 -1.679688,0.3125 -0.605469,0.2539063 -0.917969,0.7226563 -0.917969,1.40625 0,0.93750002 0.664063,1.54296877 1.71875,1.54296877 0.664063,0 1.191407,-0.23437499917 1.777344,-0.78125 0.05859,0.52734375 0.3125,0.78125 0.859375,0.78125 0.15625,0 0.292969,-0.0195313 0.566406,-0.0976563 z M 19.370227,-1.6400182 c 0,0.2734375 -0.07813,0.4492187 -0.3125,0.68359372 -0.351563,0.29296875 -0.761719,0.46875 -1.25,0.46875 -0.644532,0 -1.015625,-0.3125 -1.015625,-0.83984372 0,-0.546875 0.371093,-0.8398438 1.25,-0.9570313 0.878906,-0.1171875 1.054687,-0.15625 1.328125,-0.2929687 z m 9.165039,-0.546875 0.742187,2.18749997083 h 1.035156 L 27.754016,-7.2650182 H 26.562609 L 23.984484,6.0677083e-4 h 0.976563 L 25.722766,-2.1868932 Z M 28.261828,-2.948612 h -2.304687 l 1.191406,-3.3203125 z M 32.890734,6.0677083e-4 34.902453,-5.214237 h -0.9375 L 32.480578,-0.97595573 31.093859,-5.214237 h -0.9375 L 31.992297,6.0677083e-4 Z M 40.12218,-0.48767448 c -0.09766,0.0195313 -0.136719,0.0195313 -0.175782,0.0195313 -0.292968,0 -0.449218,-0.15625 -0.449218,-0.41015625 V -3.9447057 c 0,-0.9179688 -0.683594,-1.4257813 -1.972657,-1.4257813 -0.761718,0 -1.386718,0.2148438 -1.71875,0.6054688 -0.253906,0.2734375 -0.351562,0.5664062 -0.371093,1.09375 h 0.839843 c 0.07813,-0.6445313 0.449219,-0.9375 1.230469,-0.9375 0.742188,0 1.152344,0.2929687 1.152344,0.78125 v 0.2148437 c 0,0.3515625 -0.195313,0.5078125 -0.859375,0.5859375 -1.171875,0.15625 -1.347656,0.1953125 -1.679688,0.3125 -0.605468,0.2539063 -0.917968,0.7226563 -0.917968,1.40625 0,0.93750002 0.664062,1.54296877 1.71875,1.54296877 0.664062,0 1.191406,-0.23437499917 1.777343,-0.78125 0.05859,0.52734375 0.3125,0.78125 0.859375,0.78125 0.15625,0 0.292969,-0.0195313 0.566407,-0.0976563 z M 38.657336,-1.6400182 c 0,0.2734375 -0.07813,0.4492187 -0.3125,0.68359372 -0.351563,0.29296875 -0.761719,0.46875 -1.25,0.46875 -0.644531,0 -1.015625,-0.3125 -1.015625,-0.83984372 0,-0.546875 0.371094,-0.8398438 1.25,-0.9570313 0.878906,-0.1171875 1.054687,-0.15625 1.328125,-0.2929687 z M 41.811633,-5.214237 H 40.99132 V 6.0677083e-4 h 0.820313 z m 0,-2.0507812 H 40.99132 v 1.0546875 h 0.820313 z m 2.250976,0 H 43.222766 V 6.0677083e-4 h 0.839843 z m 6.020508,6.77734372 c -0.09766,0.0195313 -0.136719,0.0195313 -0.175781,0.0195313 -0.292969,0 -0.449219,-0.15625 -0.449219,-0.41015625 V -3.9447057 c 0,-0.9179688 -0.683594,-1.4257813 -1.972656,-1.4257813 -0.761719,0 -1.386719,0.2148438 -1.71875,0.6054688 -0.253906,0.2734375 -0.351563,0.5664062 -0.371094,1.09375 h 0.839844 c 0.07813,-0.6445313 0.449219,-0.9375 1.230469,-0.9375 0.742187,0 1.152343,0.2929687 1.152343,0.78125 v 0.2148437 c 0,0.3515625 -0.195312,0.5078125 -0.859375,0.5859375 -1.171875,0.15625 -1.347656,0.1953125 -1.679687,0.3125 -0.605469,0.2539063 -0.917969,0.7226563 -0.917969,1.40625 0,0.93750002 0.664063,1.54296877 1.71875,1.54296877 0.664063,0 1.191406,-0.23437499917 1.777344,-0.78125 0.05859,0.52734375 0.3125,0.78125 0.859375,0.78125 0.15625,0 0.292969,-0.0195313 0.566406,-0.0976563 z M 48.618273,-1.6400182 c 0,0.2734375 -0.07813,0.4492187 -0.3125,0.68359372 -0.351562,0.29296875 -0.761718,0.46875 -1.25,0.46875 -0.644531,0 -1.015625,-0.3125 -1.015625,-0.83984372 0,-0.546875 0.371094,-0.8398438 1.25,-0.9570313 0.878907,-0.1171875 1.054688,-0.15625 1.328125,-0.2929687 z m 2.22168,-5.625 V 6.0677083e-4 h 0.742188 V -0.66345573 c 0.390625,0.60546875 0.917968,0.8984375 1.640625,0.8984375 1.386718,0 2.285156,-1.1328125 2.285156,-2.87109377 0,-1.6796875 -0.859375,-2.734375 -2.246094,-2.734375 -0.703125,0 -1.210937,0.2734375 -1.601562,0.859375 v -2.7539062 z m 2.265625,2.6757812 c 0.9375,0 1.523438,0.8007813 1.523438,2.0507813 0,1.1914062 -0.605469,1.99218747 -1.523438,1.99218747 -0.878906,0 -1.445312,-0.80078127 -1.445312,-2.03124997 0,-1.2109375 0.566406,-2.0117188 1.445312,-2.0117188 z m 4.208984,-0.625 H 56.49425 V 6.0677083e-4 h 0.820312 z m 0,-2.0507812 H 56.49425 v 1.0546875 h 0.820312 z m 2.250977,0 H 58.725695 V 6.0677083e-4 h 0.839844 z m 2.172852,2.0507812 H 60.918078 V 6.0677083e-4 h 0.820313 z m 0,-2.0507812 h -0.820313 v 1.0546875 h 0.820313 z m 3.266601,2.0507812 h -0.859375 v -1.4453125 h -0.839844 v 1.4453125 h -0.703125 v 0.6640625 h 0.703125 v 3.94531252 c 0,0.52734375 0.371094,0.83984375 1.015625,0.83984375 0.195313,0 0.390625,-0.0195313 0.683594,-0.078125 v -0.703125 c -0.117187,0.0390625 -0.253906,0.0585938 -0.410156,0.0585938 -0.351563,0 -0.449219,-0.1171875 -0.449219,-0.46875 V -4.5501745 h 0.859375 z m 4.09668,0 -1.445313,4.0625 -1.328125,-4.0625 h -0.898437 l 1.757812,5.23437502 -0.3125,0.8203125 C 66.757922,1.2115443 66.562609,1.348263 66.211047,1.348263 c -0.117188,0 -0.253906,-0.019531 -0.429688,-0.058594 v 0.761719 c 0.15625,0.078125 0.332032,0.1171875 0.546875,0.1171875 0.273438,0 0.566407,-0.078125 0.78125,-0.2539062 0.253907,-0.1757813 0.410157,-0.390625 0.566407,-0.8203125 l 2.324218,-6.3085938 z m 10.478515,0.1953125 c -0.292968,-1.5820312 -1.210937,-2.3632812 -2.8125,-2.3632812 -0.976562,0 -1.757812,0.3125 -2.304687,0.9179687 -0.644531,0.703125 -1.015625,1.7382813 -1.015625,2.9101563 0,1.2109375 0.371094,2.2265625 1.074219,2.92968747 0.546875,0.5859375 1.269531,0.859375 2.207031,0.859375 1.777344,0 2.773437,-0.95703125 2.988281,-2.89062497 h -0.957031 c -0.07813,0.5078125 -0.175781,0.8398437 -0.332031,1.1328125 -0.292969,0.60546872 -0.898438,0.93749997 -1.679688,0.93749997 -1.445312,0 -2.363281,-1.15234377 -2.363281,-2.96874997 0,-1.8554688 0.878906,-3.0078125 2.285156,-3.0078125 0.585938,0 1.132813,0.1757812 1.425781,0.4492187 0.273438,0.2539063 0.429688,0.5664063 0.527344,1.09375 z m 1.293946,-2.2460937 V 6.0677083e-4 h 0.820312 V -2.870487 c 0,-1.0742187 0.566407,-1.7773437 1.40625,-1.7773437 0.273438,0 0.546875,0.097656 0.742188,0.2539062 0.234375,0.15625 0.351562,0.4101563 0.351562,0.78125 V 6.0677083e-4 h 0.820313 V -3.9447057 c 0,-0.8789063 -0.625,-1.4257813 -1.640625,-1.4257813 -0.742188,0 -1.191406,0.234375 -1.679688,0.859375 v -2.7539062 z m 9.951172,4.9414062 c 0,-0.8007812 -0.05859,-1.2890625 -0.214844,-1.6796875 -0.332031,-0.8398437 -1.132813,-1.3671875 -2.109375,-1.3671875 -1.464844,0 -2.402344,1.1132813 -2.402344,2.8320313 0,1.71874997 0.917969,2.77343747 2.382813,2.77343747 1.191406,0 2.011718,-0.68359375 2.226562,-1.81640627 h -0.839844 c -0.234375,0.68359377 -0.703125,1.03515627 -1.367187,1.03515627 -0.527344,0 -0.976563,-0.234375 -1.25,-0.66406247 -0.195313,-0.3125 -0.273438,-0.6054688 -0.273438,-1.1132813 z M 86.99718,-3.0072057 c 0.05859,-0.9570313 0.644531,-1.6015625 1.484375,-1.6015625 0.820312,0 1.445312,0.6835937 1.445312,1.5429687 0,0.019531 0,0.039063 0,0.058594 z m 8.940429,-0.4492188 c -0.03906,-0.5078125 -0.136718,-0.8398437 -0.351562,-1.1328125 -0.351563,-0.4882812 -0.976563,-0.78125 -1.699219,-0.78125 -1.40625,0 -2.324219,1.1132813 -2.324219,2.8515625 0,1.67968752 0.898438,2.75390627 2.304688,2.75390627 1.25,0 2.03125,-0.76171875 2.128906,-2.03124997 h -0.839844 c -0.136718,0.83984372 -0.566406,1.24999997 -1.269531,1.24999997 -0.917969,0 -1.464844,-0.74218747 -1.464844,-1.97265627 0,-1.3085937 0.546875,-2.0898437 1.445313,-2.0898437 0.703125,0 1.132812,0.4101562 1.230469,1.1523437 z m 1.508789,-3.8085937 H 96.626086 V 6.0677083e-4 h 0.820312 V -2.0306432 l 0.800782,-0.8007813 1.75781,2.83203127083 h 1.03516 L 98.911242,-3.417362 100.72765,-5.214237 h -1.07422 l -2.207032,2.2070313 z m 0,0"
       style="fill:#000080;fill-opacity:1;fill-rule:nonzero;stroke:none"
       aria-label="DataAvailabilityCheck"
       transform="matrix(0.8,0,0,0.8,11.4296,153.32373)" />
    <path
       id="path26"
       d="m 4.4146484,-2.4799948 c 0,-1.0742187 -0.8789062,-1.9335937 -1.9335937,-1.9335937 -1.0742188,0 -1.93359376,0.8789062 -1.93359376,1.9335937 0,1.0546875 0.85937496,1.91406251 1.93359376,1.91406251 1.0546875,0 1.9335937,-0.85937501 1.9335937,-1.91406251 z m 0,0"
       style="fill:#483c3a;fill-opacity:1;fill-rule:nonzero;stroke:none"
       aria-label="•"
       transform="matrix(0.8,0,0,0.8,138.48,134.19493)" />
    <path
       id="path27"
       d="M 0.87751562,4.7395833e-4 H 3.6900156 c 1.8359375,0 2.9492188,-1.36718745833 2.9492188,-3.63281245833 0,-2.2460938 -1.1132813,-3.6328125 -2.9492188,-3.6328125 H 0.87751562 Z M 1.8150156,-0.81983854 V -6.4448385 h 1.71875 c 1.4257813,0 2.1875,0.9765625 2.1875,2.8125 0,1.8359375 -0.7617187,2.81249996 -2.1875,2.81249996 z m 10.7080074,0.33203125 c -0.09766,0.0195313 -0.136718,0.0195313 -0.175781,0.0195313 -0.292969,0 -0.449219,-0.15625 -0.449219,-0.41015625 V -3.9448385 c 0,-0.9179688 -0.683593,-1.4257813 -1.9726558,-1.4257813 -0.7617188,0 -1.3867188,0.2148438 -1.71875,0.6054688 -0.2539063,0.2734375 -0.3515625,0.5664062 -0.3710938,1.09375 h 0.8398438 c 0.078125,-0.6445313 0.4492187,-0.9375 1.2304687,-0.9375 0.7421871,0 1.1523441,0.2929687 1.1523441,0.78125 v 0.2148437 c 0,0.3515625 -0.195313,0.5078125 -0.859375,0.5859375 -1.1718753,0.15625 -1.3476566,0.1953125 -1.6796878,0.3125 -0.6054688,0.2539063 -0.9179688,0.7226563 -0.9179688,1.40625 0,0.93750001 0.6640625,1.54296876 1.71875,1.54296876 0.6640625,0 1.1914066,-0.23437500167 1.7773436,-0.78125 0.05859,0.52734375 0.3125,0.78125 0.859375,0.78125 0.15625,0 0.292969,-0.0195313 0.566406,-0.0976563 z M 11.05818,-1.640151 c 0,0.2734375 -0.07813,0.4492187 -0.3125,0.68359371 -0.351563,0.29296875 -0.7617191,0.46875 -1.2500003,0.46875 -0.6445313,0 -1.015625,-0.3125 -1.015625,-0.83984371 0,-0.546875 0.3710937,-0.8398438 1.25,-0.9570313 0.8789063,-0.1171875 1.0546873,-0.15625 1.3281253,-0.2929687 z m 4.213867,-3.5742188 h -0.859375 v -1.4453125 h -0.839844 v 1.4453125 h -0.703125 v 0.6640625 h 0.703125 v 3.94531251 c 0,0.52734375 0.371094,0.83984375 1.015625,0.83984375 0.195313,0 0.390625,-0.0195313 0.683594,-0.078125 v -0.703125 c -0.117188,0.0390625 -0.253906,0.0585938 -0.410156,0.0585938 -0.351563,0 -0.449219,-0.1171875 -0.449219,-0.46875 V -4.5503073 h 0.859375 z m 5.561523,4.72656251 c -0.09766,0.0195313 -0.136718,0.0195313 -0.175781,0.0195313 -0.292969,0 -0.449219,-0.15625 -0.449219,-0.41015625 V -3.9448385 c 0,-0.9179688 -0.683593,-1.4257813 -1.972656,-1.4257813 -0.761719,0 -1.386719,0.2148438 -1.71875,0.6054688 -0.253906,0.2734375 -0.351562,0.5664062 -0.371094,1.09375 h 0.839844 c 0.07813,-0.6445313 0.449219,-0.9375 1.230469,-0.9375 0.742187,0 1.152344,0.2929687 1.152344,0.78125 v 0.2148437 c 0,0.3515625 -0.195313,0.5078125 -0.859375,0.5859375 -1.171875,0.15625 -1.347657,0.1953125 -1.679688,0.3125 -0.605469,0.2539063 -0.917969,0.7226563 -0.917969,1.40625 0,0.93750001 0.664063,1.54296876 1.71875,1.54296876 0.664063,0 1.191407,-0.23437500167 1.777344,-0.78125 0.05859,0.52734375 0.3125,0.78125 0.859375,0.78125 0.15625,0 0.292969,-0.0195313 0.566406,-0.0976563 z M 19.368727,-1.640151 c 0,0.2734375 -0.07813,0.4492187 -0.3125,0.68359371 -0.351563,0.29296875 -0.761719,0.46875 -1.25,0.46875 -0.644532,0 -1.015625,-0.3125 -1.015625,-0.83984371 0,-0.546875 0.371093,-0.8398438 1.25,-0.9570313 0.878906,-0.1171875 1.054687,-0.15625 1.328125,-0.2929687 z m 6.25,-1.6601563 h 3.964843 v -0.8203125 h -3.964843 v -2.3242187 h 4.101562 V -7.265151 H 24.700758 V 4.7395833e-4 h 5.214844 V -0.81983854 h -4.296875 z m 5.532226,-1.9140625 V 4.7395833e-4 h 0.839844 V -2.8706198 c 0,-1.0742187 0.546875,-1.7773437 1.40625,-1.7773437 0.664062,0 1.074219,0.4101562 1.074219,1.0351562 V 4.7395833e-4 h 0.820312 V -3.9448385 c 0,-0.859375 -0.644531,-1.4257813 -1.640625,-1.4257813 -0.78125,0 -1.289062,0.2929688 -1.738281,1.0351563 v -0.8789063 z m 8.935547,0 v 0.7617188 c -0.410156,-0.625 -0.917969,-0.9179688 -1.582031,-0.9179688 -1.328125,0 -2.226563,1.1523438 -2.226563,2.8515625 0,0.859375 0.234375,1.56250001 0.644531,2.05078126 0.390625,0.4296875 0.957032,0.703125 1.503907,0.703125 0.664062,0 1.113281,-0.29296875 1.582031,-0.9375 v 0.2734375 c 0,0.703125 -0.09766,1.1328125 -0.292969,1.40625 -0.214844,0.31250004 -0.644531,0.48828124 -1.152344,0.48828124 -0.390625,0 -0.722656,-0.097656 -0.957031,-0.2734375 -0.195312,-0.1367187 -0.273437,-0.29296874 -0.3125,-0.58593749 h -0.859375 c 0.09766,0.97656249 0.859375,1.56249999 2.089844,1.56249999 0.78125,0 1.445312,-0.2539062 1.777344,-0.6640625 0.410156,-0.46875 0.546875,-1.13281249 0.546875,-2.36328124 V -5.2143698 Z m -1.503906,0.6054688 c 0.898437,0 1.425781,0.7617187 1.425781,2.0703125 0,1.25 -0.546875,1.99218746 -1.40625,1.99218746 -0.917969,0 -1.464844,-0.76171876 -1.464844,-2.03124996 0,-1.25 0.566406,-2.03125 1.445313,-2.03125 z m 4.423828,-0.6054688 H 42.186109 V 4.7395833e-4 h 0.820313 z m 0,-2.0507812 h -0.820313 v 1.0546875 h 0.820313 z m 1.430664,2.0507812 V 4.7395833e-4 H 45.27693 V -2.8706198 c 0,-1.0742187 0.546875,-1.7773437 1.40625,-1.7773437 0.664062,0 1.074218,0.4101562 1.074218,1.0351562 V 4.7395833e-4 h 0.820313 V -3.9448385 c 0,-0.859375 -0.644531,-1.4257813 -1.640625,-1.4257813 -0.78125,0 -1.289063,0.2929688 -1.738281,1.0351563 v -0.8789063 z m 9.956055,2.890625 c 0,-0.8007812 -0.05859,-1.2890625 -0.214844,-1.6796875 -0.332031,-0.8398437 -1.132813,-1.3671875 -2.109375,-1.3671875 -1.464844,0 -2.402344,1.1132813 -2.402344,2.8320313 0,1.71874996 0.917969,2.77343746 2.382813,2.77343746 1.191406,0 2.011718,-0.68359375 2.226562,-1.81640626 h -0.839844 c -0.234375,0.68359376 -0.703125,1.03515626 -1.367187,1.03515626 -0.527344,0 -0.976563,-0.234375 -1.25,-0.66406246 -0.195313,-0.3125 -0.273438,-0.6054688 -0.273438,-1.1132813 z m -3.828125,-0.6835937 c 0.05859,-0.9570313 0.644531,-1.6015625 1.484375,-1.6015625 0.820312,0 1.445312,0.6835937 1.445312,1.5429687 0,0.019531 0,0.039063 0,0.058594 z m 9.365234,0.6835937 c 0,-0.8007812 -0.05859,-1.2890625 -0.214844,-1.6796875 -0.332031,-0.8398437 -1.132812,-1.3671875 -2.109375,-1.3671875 -1.464844,0 -2.402344,1.1132813 -2.402344,2.8320313 0,1.71874996 0.917969,2.77343746 2.382813,2.77343746 1.191406,0 2.011719,-0.68359375 2.226562,-1.81640626 h -0.839843 c -0.234375,0.68359376 -0.703125,1.03515626 -1.367188,1.03515626 -0.527344,0 -0.976562,-0.234375 -1.25,-0.66406246 -0.195312,-0.3125 -0.273437,-0.6054688 -0.273437,-1.1132813 z m -3.828125,-0.6835937 c 0.05859,-0.9570313 0.644531,-1.6015625 1.484375,-1.6015625 0.820312,0 1.445312,0.6835937 1.445312,1.5429687 0,0.019531 0,0.039063 0,0.058594 z m 4.936523,-2.2070313 V 4.7395833e-4 h 0.839844 V -2.7143698 c 0,-0.7421875 0.195313,-1.2304687 0.585938,-1.5234375 0.253906,-0.1757812 0.507812,-0.234375 1.09375,-0.2539062 v -0.8398438 c -0.136719,-0.019531 -0.214844,-0.039063 -0.332032,-0.039063 -0.527343,0 -0.9375,0.3125 -1.425781,1.09375 v -0.9375 z m 4.267579,0 H 64.485914 V 4.7395833e-4 h 0.820313 z m 0,-2.0507812 h -0.820313 v 1.0546875 h 0.820313 z m 1.430664,2.0507812 V 4.7395833e-4 h 0.839843 V -2.8706198 c 0,-1.0742187 0.546875,-1.7773437 1.40625,-1.7773437 0.664063,0 1.074219,0.4101562 1.074219,1.0351562 V 4.7395833e-4 h 0.820313 V -3.9448385 c 0,-0.859375 -0.644532,-1.4257813 -1.640625,-1.4257813 -0.78125,0 -1.289063,0.2929688 -1.738282,1.0351563 v -0.8789063 z m 8.935546,0 v 0.7617188 c -0.410156,-0.625 -0.917968,-0.9179688 -1.582031,-0.9179688 -1.328125,0 -2.226562,1.1523438 -2.226562,2.8515625 0,0.859375 0.234375,1.56250001 0.644531,2.05078126 0.390625,0.4296875 0.957031,0.703125 1.503906,0.703125 0.664063,0 1.113281,-0.29296875 1.582031,-0.9375 v 0.2734375 c 0,0.703125 -0.09766,1.1328125 -0.292968,1.40625 C 75.0865,1.2895365 74.656812,1.4653177 74.149,1.4653177 c -0.390625,0 -0.722656,-0.097656 -0.957031,-0.2734375 -0.195313,-0.1367187 -0.273438,-0.29296874 -0.3125,-0.58593749 h -0.859375 c 0.09766,0.97656249 0.859375,1.56249999 2.089843,1.56249999 0.78125,0 1.445313,-0.2539062 1.777344,-0.6640625 0.410156,-0.46875 0.546875,-1.13281249 0.546875,-2.36328124 V -5.2143698 Z m -1.503906,0.6054688 c 0.898438,0 1.425781,0.7617187 1.425781,2.0703125 0,1.25 -0.546875,1.99218746 -1.40625,1.99218746 -0.917968,0 -1.464843,-0.76171876 -1.464843,-2.03124996 0,-1.25 0.566406,-2.03125 1.445312,-2.03125 z m 0,0"
       style="fill:#483c3a;fill-opacity:1;fill-rule:nonzero;stroke:none"
       aria-label="DataEngineering"
       transform="matrix(0.8,0,0,0.8,144.6808,134.19493)" />
    <path
       id="path28"
       d="m 4.4146484,-2.4828698 c 0,-1.0742187 -0.8789062,-1.9335937 -1.9335937,-1.9335937 -1.0742188,0 -1.93359376,0.8789062 -1.93359376,1.9335937 0,1.0546875 0.85937496,1.91406251 1.93359376,1.91406251 1.0546875,0 1.9335937,-0.85937501 1.9335937,-1.91406251 z m 0,0"
       style="fill:#483c3a;fill-opacity:1;fill-rule:nonzero;stroke:none"
       aria-label="•"
       transform="matrix(0.8,0,0,0.8,138.48,143.75973)" />
    <path
       id="path29"
       d="m 4.6665781,-0.00240104 2.03125,-6.09374996 v 6.09374996 H 7.5767344 V -7.268026 H 6.2876719 L 4.1782969,-0.93990104 2.0298594,-7.268026 H 0.74079687 v 7.26562496 H 1.6197031 V -6.096151 l 2.0703125,6.09374996 z M 10.018141,-7.268026 H 9.1001719 v 7.26562496 h 4.5117191 v -0.8203125 h -3.59375 z m 11.25,7.26562496 2.03125,-6.09374996 v 6.09374996 h 0.878906 V -7.268026 H 22.889234 L 20.779859,-0.93990104 18.631422,-7.268026 h -1.289063 v 7.26562496 h 0.878907 V -6.096151 l 2.070312,6.09374996 z m 6.342773,-5.37109376 c -1.464844,0 -2.363281,1.0546875 -2.363281,2.7929688 0,1.75781246 0.878906,2.81249996 2.363281,2.81249996 1.464844,0 2.363281,-1.0546875 2.363281,-2.77343746 0,-1.796875 -0.859375,-2.8320313 -2.363281,-2.8320313 z m 0,0.7617188 c 0.9375,0 1.503906,0.78125 1.503906,2.0703125 0,1.2304687 -0.585937,1.99218746 -1.503906,1.99218746 -0.917969,0 -1.484375,-0.76171876 -1.484375,-2.03124996 0,-1.25 0.566406,-2.03125 1.484375,-2.03125 z m 7.749023,-2.65625 h -0.820312 v 2.6953125 c -0.351563,-0.5273438 -0.898438,-0.8007813 -1.601563,-0.8007813 -1.347656,0 -2.246093,1.09375 -2.246093,2.7539063 0,1.75781246 0.878906,2.85156246 2.285156,2.85156246 0.703125,0 1.210937,-0.2734375 1.660156,-0.91796875 v 0.68359375 h 0.722656 z m -2.285156,2.6757812 c 0.898438,0 1.464844,0.8007813 1.464844,2.03125 0,1.2109375 -0.566406,2.01171876 -1.445313,2.01171876 -0.917968,0 -1.523437,-0.80078126 -1.523437,-2.03124996 0,-1.2109375 0.605469,-2.0117188 1.503906,-2.0117188 z m 8.017578,2.265625 c 0,-0.8007812 -0.05859,-1.2890625 -0.214843,-1.6796875 -0.332032,-0.8398437 -1.132813,-1.3671875 -2.109375,-1.3671875 -1.464844,0 -2.402344,1.1132813 -2.402344,2.8320313 0,1.71874996 0.917969,2.77343746 2.382812,2.77343746 1.191407,0 2.011719,-0.68359375 2.226563,-1.81640626 h -0.839844 c -0.234375,0.68359376 -0.703125,1.03515626 -1.367187,1.03515626 -0.527344,0 -0.976563,-0.234375 -1.25,-0.66406246 -0.195313,-0.3125 -0.273438,-0.6054688 -0.273438,-1.1132813 z m -3.828125,-0.6835937 c 0.05859,-0.9570313 0.644532,-1.6015625 1.484375,-1.6015625 0.820313,0 1.445313,0.6835937 1.445313,1.5429687 0,0.019531 0,0.039063 0,0.058594 z m 5.771485,-4.2578125 h -0.839844 v 7.26562496 h 0.839844 z m 5.27832,3.9648437 h 3.964844 v -0.8203125 h -3.964844 v -2.3242187 h 4.101563 V -7.268026 H 47.39607 v 7.26562496 h 5.214844 v -0.8203125 h -4.296875 z m 5.532227,-1.9140625 v 5.21484376 h 0.839843 V -2.8734948 c 0,-1.0742187 0.546875,-1.7773437 1.40625,-1.7773437 0.664063,0 1.074219,0.4101562 1.074219,1.0351562 v 3.61328126 h 0.820313 V -3.9477135 c 0,-0.859375 -0.644532,-1.4257813 -1.640625,-1.4257813 -0.78125,0 -1.289063,0.2929688 -1.738282,1.0351563 v -0.8789063 z m 8.935546,0 v 0.7617188 c -0.410156,-0.625 -0.917968,-0.9179688 -1.582031,-0.9179688 -1.328125,0 -2.226562,1.1523438 -2.226562,2.8515625 0,0.859375 0.234375,1.56250001 0.644531,2.05078126 0.390625,0.4296875 0.957031,0.703125 1.503906,0.703125 0.664063,0 1.113281,-0.29296875 1.582031,-0.9375 v 0.2734375 c 0,0.703125 -0.09766,1.1328125 -0.292968,1.40625 -0.214844,0.31250004 -0.644532,0.48828124 -1.152344,0.48828124 -0.390625,0 -0.722656,-0.097656 -0.957031,-0.2734375 -0.195313,-0.1367187 -0.273438,-0.29296874 -0.3125,-0.58593749 h -0.859375 c 0.09766,0.97656249 0.859375,1.56249999 2.089843,1.56249999 0.78125,0 1.445313,-0.2539062 1.777344,-0.6640625 0.410156,-0.46875 0.546875,-1.13281249 0.546875,-2.36328124 V -5.2172448 Z m -1.503906,0.6054688 c 0.898438,0 1.425781,0.7617187 1.425781,2.0703125 0,1.25 -0.546875,1.99218746 -1.40625,1.99218746 -0.917968,0 -1.464843,-0.76171876 -1.464843,-2.03124996 0,-1.25 0.566406,-2.03125 1.445312,-2.03125 z m 4.423828,-0.6054688 h -0.820312 v 5.21484376 h 0.820312 z m 0,-2.0507812 h -0.820312 v 1.0546875 h 0.820312 z m 1.430664,2.0507812 v 5.21484376 h 0.839844 V -2.8734948 c 0,-1.0742187 0.546875,-1.7773437 1.40625,-1.7773437 0.664063,0 1.074219,0.4101562 1.074219,1.0351562 v 3.61328126 h 0.820312 V -3.9477135 c 0,-0.859375 -0.644531,-1.4257813 -1.640625,-1.4257813 -0.78125,0 -1.289062,0.2929688 -1.738281,1.0351563 v -0.8789063 z m 9.956055,2.890625 c 0,-0.8007812 -0.05859,-1.2890625 -0.214844,-1.6796875 -0.332031,-0.8398437 -1.132812,-1.3671875 -2.109375,-1.3671875 -1.464843,0 -2.402343,1.1132813 -2.402343,2.8320313 0,1.71874996 0.917968,2.77343746 2.382812,2.77343746 1.191406,0 2.011719,-0.68359375 2.226563,-1.81640626 h -0.839844 c -0.234375,0.68359376 -0.703125,1.03515626 -1.367188,1.03515626 -0.527343,0 -0.976562,-0.234375 -1.25,-0.66406246 -0.195312,-0.3125 -0.273437,-0.6054688 -0.273437,-1.1132813 z m -3.828125,-0.6835937 c 0.05859,-0.9570313 0.644531,-1.6015625 1.484375,-1.6015625 0.820313,0 1.445313,0.6835937 1.445313,1.5429687 0,0.019531 0,0.039063 0,0.058594 z m 9.365234,0.6835937 c 0,-0.8007812 -0.05859,-1.2890625 -0.214843,-1.6796875 -0.332032,-0.8398437 -1.132813,-1.3671875 -2.109375,-1.3671875 -1.464844,0 -2.402344,1.1132813 -2.402344,2.8320313 0,1.71874996 0.917969,2.77343746 2.382812,2.77343746 1.191407,0 2.011719,-0.68359375 2.226563,-1.81640626 h -0.839844 c -0.234375,0.68359376 -0.703125,1.03515626 -1.367187,1.03515626 -0.527344,0 -0.976563,-0.234375 -1.25,-0.66406246 -0.195313,-0.3125 -0.273438,-0.6054688 -0.273438,-1.1132813 z m -3.828125,-0.6835937 c 0.05859,-0.9570313 0.644532,-1.6015625 1.484375,-1.6015625 0.820313,0 1.445313,0.6835937 1.445313,1.5429687 0,0.019531 0,0.039063 0,0.058594 z m 4.936524,-2.2070313 v 5.21484376 h 0.839844 V -2.7172448 c 0,-0.7421875 0.195312,-1.2304687 0.585937,-1.5234375 0.253906,-0.1757812 0.507813,-0.234375 1.09375,-0.2539062 v -0.8398438 c -0.136719,-0.019531 -0.214844,-0.039063 -0.332031,-0.039063 -0.527344,0 -0.9375,0.3125 -1.425781,1.09375 v -0.9375 z m 4.267578,0 h -0.820312 v 5.21484376 h 0.820312 z m 0,-2.0507812 h -0.820312 v 1.0546875 h 0.820312 z m 1.430664,2.0507812 v 5.21484376 h 0.839844 V -2.8734948 c 0,-1.0742187 0.546875,-1.7773437 1.40625,-1.7773437 0.664062,0 1.074219,0.4101562 1.074219,1.0351562 v 3.61328126 h 0.820312 V -3.9477135 c 0,-0.859375 -0.644531,-1.4257813 -1.640625,-1.4257813 -0.78125,0 -1.289062,0.2929688 -1.738281,1.0351563 v -0.8789063 z m 8.935547,0 v 0.7617188 c -0.410156,-0.625 -0.917969,-0.9179688 -1.582031,-0.9179688 -1.328125,0 -2.226563,1.1523438 -2.226563,2.8515625 0,0.859375 0.234375,1.56250001 0.644531,2.05078126 0.390625,0.4296875 0.957032,0.703125 1.503907,0.703125 0.664062,0 1.113281,-0.29296875 1.582031,-0.9375 v 0.2734375 c 0,0.703125 -0.09766,1.1328125 -0.292969,1.40625 -0.214844,0.31250004 -0.644531,0.48828124 -1.152344,0.48828124 -0.390625,0 -0.722656,-0.097656 -0.957031,-0.2734375 -0.195312,-0.1367187 -0.273437,-0.29296874 -0.3125,-0.58593749 h -0.859375 c 0.09766,0.97656249 0.859375,1.56249999 2.089844,1.56249999 0.78125,0 1.445312,-0.2539062 1.777344,-0.6640625 0.410156,-0.46875 0.546875,-1.13281249 0.546875,-2.36328124 V -5.2172448 Z m -1.503906,0.6054688 c 0.898437,0 1.425781,0.7617187 1.425781,2.0703125 0,1.25 -0.546875,1.99218746 -1.40625,1.99218746 -0.917969,0 -1.464844,-0.76171876 -1.464844,-2.03124996 0,-1.25 0.566406,-2.03125 1.445313,-2.03125 z m 0,0"
       style="fill:#483c3a;fill-opacity:1;fill-rule:nonzero;stroke:none"
       aria-label="MLModelEngineering"
       transform="matrix(0.8,0,0,0.8,144.6808,143.75973)" />
    <path
       id="path30"
       d="m 4.4146484,-2.479862 c 0,-1.0742187 -0.8789062,-1.9335937 -1.9335937,-1.9335937 -1.0742188,0 -1.93359376,0.8789062 -1.93359376,1.9335937 0,1.0546875 0.85937496,1.91406252 1.93359376,1.91406252 1.0546875,0 1.9335937,-0.85937502 1.9335937,-1.91406252 z m 0,0"
       style="fill:#483c3a;fill-opacity:1;fill-rule:nonzero;stroke:none"
       aria-label="•"
       transform="matrix(0.8,0,0,0.8,138.48,153.32373)" />
    <path
       id="path31"
       d="M 4.6665781,6.0677083e-4 6.6978281,-6.0931432 V 6.0677083e-4 H 7.5767344 V -7.2650182 H 6.2876719 L 4.1782969,-0.93689323 2.0298594,-7.2650182 H 0.74079687 V 6.0677083e-4 H 1.6197031 V -6.0931432 L 3.6900156,6.0677083e-4 Z M 11.014234,-5.370487 c -1.4648434,0 -2.3632809,1.0546875 -2.3632809,2.7929688 0,1.75781247 0.8789063,2.81249997 2.3632809,2.81249997 1.464844,0 2.363282,-1.0546875 2.363282,-2.77343747 0,-1.796875 -0.859375,-2.8320313 -2.363282,-2.8320313 z m 0,0.7617188 c 0.9375,0 1.503907,0.78125 1.503907,2.0703125 0,1.2304687 -0.585938,1.99218747 -1.503907,1.99218747 -0.917968,0 -1.4843746,-0.76171877 -1.4843746,-2.03124997 0,-1.25 0.5664066,-2.03125 1.4843746,-2.03125 z m 7.744141,-2.65625 h -0.820313 v 2.6953125 C 17.5865,-5.0970495 17.039625,-5.370487 16.3365,-5.370487 c -1.347656,0 -2.246094,1.09375 -2.246094,2.7539063 0,1.75781247 0.878906,2.85156247 2.285156,2.85156247 0.703125,0 1.210938,-0.2734375 1.660157,-0.91796875 V 6.0677083e-4 h 0.722656 z m -2.285156,2.6757812 c 0.898437,0 1.464843,0.8007813 1.464843,2.03125 0,1.2109375 -0.566406,2.01171877 -1.445312,2.01171877 -0.917969,0 -1.523438,-0.80078127 -1.523438,-2.03124997 0,-1.2109375 0.605469,-2.0117188 1.503907,-2.0117188 z m 8.022461,2.265625 c 0,-0.8007812 -0.05859,-1.2890625 -0.214844,-1.6796875 -0.332031,-0.8398437 -1.132813,-1.3671875 -2.109375,-1.3671875 -1.464844,0 -2.402344,1.1132813 -2.402344,2.8320313 0,1.71874997 0.917969,2.77343747 2.382813,2.77343747 1.191406,0 2.011718,-0.68359375 2.226562,-1.81640627 h -0.839844 c -0.234375,0.68359377 -0.703125,1.03515627 -1.367187,1.03515627 -0.527344,0 -0.976563,-0.234375 -1.25,-0.66406247 -0.195313,-0.3125 -0.273438,-0.6054688 -0.273438,-1.1132813 z m -3.828125,-0.6835937 c 0.05859,-0.9570313 0.644531,-1.6015625 1.484375,-1.6015625 0.820312,0 1.445312,0.6835937 1.445312,1.5429687 0,0.019531 0,0.039063 0,0.058594 z m 5.771484,-4.2578125 H 25.599195 V 6.0677083e-4 h 0.839844 z m 6.982422,0.8203125 h 2.363281 v -0.8203125 h -5.683594 v 0.8203125 h 2.382813 V 6.0677083e-4 h 0.9375 z m 6.484375,4.1210937 c 0,-0.8007812 -0.05859,-1.2890625 -0.214844,-1.6796875 -0.332031,-0.8398437 -1.132812,-1.3671875 -2.109375,-1.3671875 -1.464844,0 -2.402344,1.1132813 -2.402344,2.8320313 0,1.71874997 0.917969,2.77343747 2.382813,2.77343747 1.191406,0 2.011719,-0.68359375 2.226562,-1.81640627 h -0.839843 c -0.234375,0.68359377 -0.703125,1.03515627 -1.367188,1.03515627 -0.527344,0 -0.976562,-0.234375 -1.25,-0.66406247 -0.195312,-0.3125 -0.273437,-0.6054688 -0.273437,-1.1132813 z m -3.828125,-0.6835937 c 0.05859,-0.9570313 0.644531,-1.6015625 1.484375,-1.6015625 0.820312,0 1.445312,0.6835937 1.445312,1.5429687 0,0.019531 0,0.039063 0,0.058594 z m 8.608398,-0.7617188 c 0,-1.015625 -0.683593,-1.6015625 -1.894531,-1.6015625 -1.210937,0 -1.992187,0.625 -1.992187,1.6015625 0,0.8203125 0.410156,1.1914063 1.660156,1.5039063 l 0.761719,0.1757812 c 0.585937,0.15625 0.820312,0.3515625 0.820312,0.7421875 0,0.48828127 -0.488281,0.80078127 -1.230469,0.80078127 -0.429687,0 -0.820312,-0.1171875 -1.035156,-0.33203125 C 41.658766,-1.0345495 41.600172,-1.1907995 41.541578,-1.5618932 h -0.878906 c 0.03906,1.21093747 0.722656,1.79687497 2.089844,1.79687497 1.308593,0 2.148437,-0.64453125 2.148437,-1.66015627 0,-0.78125 -0.429687,-1.2109375 -1.464844,-1.4453125 l -0.800781,-0.1953125 c -0.683594,-0.15625 -0.976562,-0.3710937 -0.976562,-0.7421875 0,-0.4882812 0.429687,-0.8007812 1.113281,-0.8007812 0.664062,0 1.015625,0.2929687 1.035156,0.8398437 z m 3.164063,-1.4453125 h -0.859375 v -1.4453125 h -0.839844 v 1.4453125 h -0.703125 v 0.6640625 h 0.703125 v 3.94531252 c 0,0.52734375 0.371094,0.83984375 1.015625,0.83984375 0.195313,0 0.390625,-0.0195313 0.683594,-0.078125 v -0.703125 c -0.117188,0.0390625 -0.253906,0.0585938 -0.410156,0.0585938 -0.351563,0 -0.449219,-0.1171875 -0.449219,-0.46875 V -4.5501745 h 0.859375 z m 1.713867,0 H 48.743727 V 6.0677083e-4 h 0.820312 z m 0,-2.0507812 h -0.820312 v 1.0546875 h 0.820312 z m 1.430664,2.0507812 V 6.0677083e-4 h 0.839844 V -2.870487 c 0,-1.0742187 0.546875,-1.7773437 1.40625,-1.7773437 0.664062,0 1.074219,0.4101562 1.074219,1.0351562 V 6.0677083e-4 h 0.820312 V -3.9447057 c 0,-0.859375 -0.644531,-1.4257813 -1.640625,-1.4257813 -0.78125,0 -1.289062,0.2929688 -1.738281,1.0351563 V -5.214237 Z m 8.935547,0 v 0.7617188 c -0.410156,-0.625 -0.917969,-0.9179688 -1.582031,-0.9179688 -1.328125,0 -2.226563,1.1523438 -2.226563,2.8515625 0,0.859375 0.234375,1.56250002 0.644531,2.05078127 0.390625,0.4296875 0.957032,0.703125 1.503907,0.703125 0.664062,0 1.113281,-0.29296875 1.582031,-0.9375 v 0.2734375 c 0,0.703125 -0.09766,1.1328125 -0.292969,1.40625 -0.214844,0.31250003 -0.644531,0.48828123 -1.152344,0.48828123 -0.390625,0 -0.722656,-0.097656 -0.957031,-0.2734375 -0.195312,-0.1367187 -0.273437,-0.29296873 -0.3125,-0.58593748 h -0.859375 c 0.09766,0.97656248 0.859375,1.56249998 2.089844,1.56249998 0.78125,0 1.445312,-0.2539062 1.777344,-0.6640625 0.410156,-0.46875 0.546875,-1.13281248 0.546875,-2.36328123 V -5.214237 Z m -1.503906,0.6054688 c 0.898437,0 1.425781,0.7617187 1.425781,2.0703125 0,1.25 -0.546875,1.99218747 -1.40625,1.99218747 -0.917969,0 -1.464844,-0.76171877 -1.464844,-2.03124997 0,-1.25 0.566406,-2.03125 1.445313,-2.03125 z m 10.605468,1.2890625 c 0.01953,0.3515625 -0.09766,0.8398437 -0.292968,1.171875 l -1.328125,-1.6210938 c 1.035156,-0.5859375 1.367187,-1.015625 1.367187,-1.7382812 0,-0.8984375 -0.683594,-1.5625 -1.621094,-1.5625 -0.9375,0 -1.699218,0.703125 -1.699218,1.5625 0,0.46875 0.195312,0.859375 0.800781,1.640625 -1.230469,0.703125 -1.601563,1.2109375 -1.601563,2.109375 0,1.19140622 0.800782,1.99218747 2.03125,1.99218747 0.488282,0 0.957032,-0.13671875 1.308594,-0.37109375 0.214844,-0.1171875 0.390625,-0.2734375 0.78125,-0.64453125 l 0.605469,0.78125000083 h 1.09375 L 69.266187,-1.5032995 c 0.371094,-0.5664062 0.566407,-1.2304687 0.566407,-1.8164062 z M 66.9615,-4.2962682 c -0.605469,-0.703125 -0.683594,-0.859375 -0.683594,-1.2109375 0,-0.5273438 0.332031,-0.859375 0.859375,-0.859375 0.488281,0 0.859375,0.3515625 0.859375,0.8398437 0,0.4492188 -0.253906,0.7421875 -1.035156,1.2304688 z m 1.328125,2.9296875 c -0.546875,0.58593747 -0.976563,0.82031247 -1.503906,0.82031247 -0.722657,0 -1.308594,-0.58593747 -1.308594,-1.26953127 0,-0.5664062 0.3125,-0.9570312 1.230469,-1.5429687 z M 77.449781,6.0677083e-4 79.969312,-7.2650182 H 78.973219 L 76.9615,-1.1126745 74.832594,-7.2650182 H 73.8365 L 76.453687,6.0677083e-4 Z M 84.832594,-0.48767448 c -0.09766,0.0195313 -0.136719,0.0195313 -0.175782,0.0195313 -0.292968,0 -0.449218,-0.15625 -0.449218,-0.41015625 V -3.9447057 c 0,-0.9179688 -0.683594,-1.4257813 -1.972657,-1.4257813 -0.761718,0 -1.386718,0.2148438 -1.71875,0.6054688 -0.253906,0.2734375 -0.351562,0.5664062 -0.371093,1.09375 h 0.839843 c 0.07813,-0.6445313 0.449219,-0.9375 1.230469,-0.9375 0.742188,0 1.152344,0.2929687 1.152344,0.78125 v 0.2148437 c 0,0.3515625 -0.195313,0.5078125 -0.859375,0.5859375 -1.171875,0.15625 -1.347656,0.1953125 -1.679688,0.3125 -0.605468,0.2539063 -0.917968,0.7226563 -0.917968,1.40625 0,0.93750002 0.664062,1.54296877 1.71875,1.54296877 0.664062,0 1.191406,-0.23437499917 1.777343,-0.78125 0.05859,0.52734375 0.3125,0.78125 0.859375,0.78125 0.15625,0 0.292969,-0.0195313 0.566407,-0.0976563 z M 83.36775,-1.6400182 c 0,0.2734375 -0.07813,0.4492187 -0.3125,0.68359372 -0.351563,0.29296875 -0.761719,0.46875 -1.25,0.46875 -0.644531,0 -1.015625,-0.3125 -1.015625,-0.83984372 0,-0.546875 0.371094,-0.8398438 1.25,-0.9570313 0.878906,-0.1171875 1.054687,-0.15625 1.328125,-0.2929687 z m 3.198242,-5.625 H 85.726148 V 6.0677083e-4 h 0.839844 z m 2.172852,2.0507812 H 87.918531 V 6.0677083e-4 h 0.820313 z m 0,-2.0507812 h -0.820313 v 1.0546875 h 0.820313 z m 5.649414,0 h -0.820313 v 2.6953125 c -0.351562,-0.5273438 -0.898437,-0.8007813 -1.601562,-0.8007813 -1.347656,0 -2.246094,1.09375 -2.246094,2.7539063 0,1.75781247 0.878906,2.85156247 2.285156,2.85156247 0.703125,0 1.210938,-0.2734375 1.660157,-0.91796875 V 6.0677083e-4 h 0.722656 z m -2.285156,2.6757812 c 0.898437,0 1.464843,0.8007813 1.464843,2.03125 0,1.2109375 -0.566406,2.01171877 -1.445312,2.01171877 -0.917969,0 -1.523438,-0.80078127 -1.523438,-2.03124997 0,-1.2109375 0.605469,-2.0117188 1.503907,-2.0117188 z m 8.232418,4.10156252 c -0.0977,0.0195313 -0.13672,0.0195313 -0.17578,0.0195313 -0.292967,0 -0.449217,-0.15625 -0.449217,-0.41015625 V -3.9447057 c 0,-0.9179688 -0.683593,-1.4257813 -1.972656,-1.4257813 -0.761719,0 -1.386719,0.2148438 -1.71875,0.6054688 -0.253906,0.2734375 -0.351562,0.5664062 -0.371094,1.09375 h 0.839844 c 0.07813,-0.6445313 0.449219,-0.9375 1.230469,-0.9375 0.742187,0 1.152344,0.2929687 1.152344,0.78125 v 0.2148437 c 0,0.3515625 -0.195313,0.5078125 -0.859375,0.5859375 -1.171875,0.15625 -1.347657,0.1953125 -1.679688,0.3125 -0.605469,0.2539063 -0.917969,0.7226563 -0.917969,1.40625 0,0.93750002 0.664063,1.54296877 1.71875,1.54296877 0.664063,0 1.191407,-0.23437499917 1.777344,-0.78125 0.05859,0.52734375 0.3125,0.78125 0.859375,0.78125 0.15625,0 0.292973,-0.0195313 0.566403,-0.0976563 z M 98.87068,-1.6400182 c 0,0.2734375 -0.07813,0.4492187 -0.3125,0.68359372 -0.351563,0.29296875 -0.761719,0.46875 -1.25,0.46875 -0.644532,0 -1.015625,-0.3125 -1.015625,-0.83984372 0,-0.546875 0.371093,-0.8398438 1.25,-0.9570313 0.878906,-0.1171875 1.054687,-0.15625 1.328125,-0.2929687 z m 4.20898,-3.5742188 h -0.85937 v -1.4453125 h -0.83984 v 1.4453125 h -0.70313 v 0.6640625 h 0.70313 v 3.94531252 c 0,0.52734375 0.37109,0.83984375 1.01562,0.83984375 0.19531,0 0.39063,-0.0195313 0.68359,-0.078125 v -0.703125 c -0.11718,0.0390625 -0.2539,0.0585938 -0.41015,0.0585938 -0.35156,0 -0.44922,-0.1171875 -0.44922,-0.46875 V -4.5501745 h 0.85937 z m 1.71875,0 H 103.9781 V 6.0677083e-4 h 0.82031 z m 0,-2.0507812 h -0.82031 v 1.0546875 h 0.82031 z m 3.44239,1.8945312 c -1.46485,0 -2.36328,1.0546875 -2.36328,2.7929688 0,1.75781247 0.8789,2.81249997 2.36328,2.81249997 1.46484,0 2.36328,-1.0546875 2.36328,-2.77343747 0,-1.796875 -0.85938,-2.8320313 -2.36328,-2.8320313 z m 0,0.7617188 c 0.9375,0 1.5039,0.78125 1.5039,2.0703125 0,1.2304687 -0.58593,1.99218747 -1.5039,1.99218747 -0.91797,0 -1.48438,-0.76171877 -1.48438,-2.03124997 0,-1.25 0.56641,-2.03125 1.48438,-2.03125 z m 3.52539,-0.6054688 V 6.0677083e-4 h 0.83984 V -2.870487 c 0,-1.0742187 0.54688,-1.7773437 1.40625,-1.7773437 0.66406,0 1.07422,0.4101562 1.07422,1.0351562 V 6.0677083e-4 h 0.82031 V -3.9447057 c 0,-0.859375 -0.64453,-1.4257813 -1.64062,-1.4257813 -0.78125,0 -1.28907,0.2929688 -1.73828,1.0351563 V -5.214237 Z m 0,0"
       style="fill:#483c3a;fill-opacity:1;fill-rule:nonzero;stroke:none"
       aria-label="ModelTesting&amp;Validation"
       transform="matrix(0.8,0,0,0.8,144.6808,153.32373)" />
    <path
       id="path32"
       d="m 4.4131484,-2.4799948 c 0,-1.0742187 -0.8789062,-1.9335937 -1.9335937,-1.9335937 -1.0742188,0 -1.93359376,0.8789062 -1.93359376,1.9335937 0,1.0546875 0.85937496,1.91406251 1.93359376,1.91406251 1.0546875,0 1.9335937,-0.85937501 1.9335937,-1.91406251 z m 0,0"
       style="fill:#ff0000;fill-opacity:1;fill-rule:nonzero;stroke:none"
       aria-label="•"
       transform="matrix(0.8,0,0,0.8,268.7312,134.19493)" />
    <path
       id="path33"
       d="M 4.6699609,4.7395833e-4 6.7012109,-6.093276 V 4.7395833e-4 H 7.5801172 V -7.265151 H 6.2910547 L 4.1816797,-0.93702604 2.0332422,-7.265151 H 0.74417969 V 4.7395833e-4 H 1.6230859 V -6.093276 L 3.6933984,4.7395833e-4 Z M 10.016641,-7.265151 H 9.0986719 V 4.7395833e-4 H 13.610391 V -0.81983854 h -3.59375 z M 21.276406,4.7395833e-4 23.307656,-6.093276 V 4.7395833e-4 h 0.878906 V -7.265151 H 22.8975 L 20.788125,-0.93702604 18.639687,-7.265151 H 17.350625 V 4.7395833e-4 h 0.878906 V -6.093276 L 20.299844,4.7395833e-4 Z M 27.61918,-5.3706198 c -1.464844,0 -2.363282,1.0546875 -2.363282,2.7929688 0,1.75781246 0.878907,2.81249996 2.363282,2.81249996 1.464843,0 2.363281,-1.0546875 2.363281,-2.77343746 0,-1.796875 -0.859375,-2.8320313 -2.363281,-2.8320313 z m 0,0.7617188 c 0.9375,0 1.503906,0.78125 1.503906,2.0703125 0,1.2304687 -0.585938,1.99218746 -1.503906,1.99218746 -0.917969,0 -1.484375,-0.76171876 -1.484375,-2.03124996 0,-1.25 0.566406,-2.03125 1.484375,-2.03125 z m 7.749023,-2.65625 h -0.820312 v 2.6953125 c -0.351563,-0.5273438 -0.898438,-0.8007813 -1.601563,-0.8007813 -1.347656,0 -2.246094,1.09375 -2.246094,2.7539063 0,1.75781246 0.878907,2.85156246 2.285157,2.85156246 0.703125,0 1.210937,-0.2734375 1.660156,-0.91796875 V 4.7395833e-4 h 0.722656 z m -2.285156,2.6757812 c 0.898437,0 1.464844,0.8007813 1.464844,2.03125 0,1.2109375 -0.566407,2.01171876 -1.445313,2.01171876 -0.917969,0 -1.523437,-0.80078126 -1.523437,-2.03124996 0,-1.2109375 0.605468,-2.0117188 1.503906,-2.0117188 z m 8.017578,2.265625 c 0,-0.8007812 -0.05859,-1.2890625 -0.214844,-1.6796875 -0.332031,-0.8398437 -1.132812,-1.3671875 -2.109375,-1.3671875 -1.464844,0 -2.402344,1.1132813 -2.402344,2.8320313 0,1.71874996 0.917969,2.77343746 2.382813,2.77343746 1.191406,0 2.011719,-0.68359375 2.226562,-1.81640626 h -0.839843 c -0.234375,0.68359376 -0.703125,1.03515626 -1.367188,1.03515626 -0.527344,0 -0.976562,-0.234375 -1.25,-0.66406246 -0.195312,-0.3125 -0.273437,-0.6054688 -0.273437,-1.1132813 z M 37.2725,-3.0073385 c 0.05859,-0.9570313 0.644531,-1.6015625 1.484375,-1.6015625 0.820312,0 1.445312,0.6835937 1.445312,1.5429687 0,0.019531 0,0.039063 0,0.058594 z M 43.048867,-7.265151 H 42.209023 V 4.7395833e-4 h 0.839844 z m 4.335938,7.26562495833 h 2.8125 c 1.835937,0 2.949218,-1.36718745833 2.949218,-3.63281245833 0,-2.2460938 -1.113281,-3.6328125 -2.949218,-3.6328125 h -2.8125 z M 48.322305,-0.81983854 V -6.4448385 h 1.71875 c 1.425781,0 2.1875,0.9765625 2.1875,2.8125 0,1.8359375 -0.761719,2.81249996 -2.1875,2.81249996 z M 58.815469,-2.3237448 c 0,-0.8007812 -0.05859,-1.2890625 -0.214844,-1.6796875 -0.332031,-0.8398437 -1.132813,-1.3671875 -2.109375,-1.3671875 -1.464844,0 -2.402344,1.1132813 -2.402344,2.8320313 0,1.71874996 0.917969,2.77343746 2.382813,2.77343746 1.191406,0 2.011718,-0.68359375 2.226562,-1.81640626 h -0.839844 c -0.234375,0.68359376 -0.703125,1.03515626 -1.367187,1.03515626 -0.527344,0 -0.976563,-0.234375 -1.25,-0.66406246 -0.195313,-0.3125 -0.273438,-0.6054688 -0.273438,-1.1132813 z m -3.828125,-0.6835937 c 0.05859,-0.9570313 0.644531,-1.6015625 1.484375,-1.6015625 0.820312,0 1.445312,0.6835937 1.445312,1.5429687 0,0.019531 0,0.039063 0,0.058594 z m 4.799804,5.1757812 h 0.820313 v -2.71484374 c 0.449219,0.52734375 0.9375,0.78125 1.601562,0.78125 1.347657,0 2.246094,-1.09375 2.246094,-2.75390626 0,-1.7578125 -0.859375,-2.8515625 -2.246094,-2.8515625 -0.703125,0 -1.269531,0.3125 -1.660156,0.9375 v -0.78125 h -0.761719 z m 2.285157,-6.7578125 c 0.917968,0 1.503906,0.8007813 1.503906,2.0507813 0,1.1914062 -0.605469,1.99218746 -1.503906,1.99218746 -0.878907,0 -1.464844,-0.80078126 -1.464844,-2.03124996 0,-1.2109375 0.585937,-2.0117188 1.464844,-2.0117188 z M 66.30082,-7.265151 H 65.460977 V 4.7395833e-4 h 0.839843 z m 3.403321,1.8945312 c -1.464844,0 -2.363282,1.0546875 -2.363282,2.7929688 0,1.75781246 0.878907,2.81249996 2.363282,2.81249996 1.464843,0 2.363281,-1.0546875 2.363281,-2.77343746 0,-1.796875 -0.859375,-2.8320313 -2.363281,-2.8320313 z m 0,0.7617188 c 0.9375,0 1.503906,0.78125 1.503906,2.0703125 0,1.2304687 -0.585938,1.99218746 -1.503906,1.99218746 -0.917969,0 -1.484375,-0.76171876 -1.484375,-2.03124996 0,-1.25 0.566406,-2.03125 1.484375,-2.03125 z m 6.391601,-0.6054688 -1.445312,4.0625 -1.328125,-4.0625 h -0.898438 l 1.757813,5.23437501 -0.3125,0.8203125 c -0.117188,0.37109379 -0.3125,0.50781249 -0.664063,0.50781249 -0.117187,0 -0.253906,-0.019531 -0.429687,-0.058594 v 0.7617187 c 0.15625,0.078125 0.332031,0.1171875 0.546875,0.1171875 0.273437,0 0.566406,-0.078125 0.78125,-0.2539062 0.253906,-0.1757813 0.410156,-0.390625 0.566406,-0.8203125 l 2.324219,-6.3085938 z m 1.816406,0 V 4.7395833e-4 h 0.839844 V -3.280776 c 0,-0.7617188 0.546875,-1.3671875 1.210938,-1.3671875 0.625,0 0.976562,0.390625 0.976562,1.0546875 V 4.7395833e-4 h 0.839844 V -3.280776 c 0,-0.7617188 0.546875,-1.3671875 1.210937,-1.3671875 0.605469,0 0.976563,0.390625 0.976563,1.0546875 V 4.7395833e-4 H 84.80668 V -3.905776 c 0,-0.9375 -0.546875,-1.4648438 -1.523438,-1.4648438 -0.703125,0 -1.113281,0.2148438 -1.601562,0.8007813 -0.3125,-0.5664063 -0.722657,-0.8007813 -1.40625,-0.8007813 -0.703125,0 -1.152344,0.2539063 -1.601563,0.8984375 v -0.7421875 z m 12.714844,2.890625 c 0,-0.8007812 -0.05859,-1.2890625 -0.214844,-1.6796875 -0.332031,-0.8398437 -1.132812,-1.3671875 -2.109375,-1.3671875 -1.464843,0 -2.402343,1.1132813 -2.402343,2.8320313 0,1.71874996 0.917968,2.77343746 2.382812,2.77343746 1.191406,0 2.011719,-0.68359375 2.226563,-1.81640626 h -0.839844 c -0.234375,0.68359376 -0.703125,1.03515626 -1.367188,1.03515626 -0.527343,0 -0.976562,-0.234375 -1.25,-0.66406246 -0.195312,-0.3125 -0.273437,-0.6054688 -0.273437,-1.1132813 z m -3.828125,-0.6835937 c 0.05859,-0.9570313 0.644531,-1.6015625 1.484375,-1.6015625 0.820313,0 1.445313,0.6835937 1.445313,1.5429687 0,0.019531 0,0.039063 0,0.058594 z m 4.951172,-2.2070313 V 4.7395833e-4 h 0.839844 V -2.8706198 c 0,-1.0742187 0.546875,-1.7773437 1.40625,-1.7773437 0.664062,0 1.074219,0.4101562 1.074219,1.0351562 V 4.7395833e-4 h 0.820312 V -3.9448385 c 0,-0.859375 -0.644531,-1.4257813 -1.640625,-1.4257813 -0.78125,0 -1.289062,0.2929688 -1.738281,1.0351563 v -0.8789063 z m 7.37793,0 H 98.268594 V -6.6596823 H 97.42875 v 1.4453125 h -0.703125 v 0.6640625 h 0.703125 v 3.94531251 c 0,0.52734375 0.371094,0.83984375 1.015625,0.83984375 0.195312,0 0.390625,-0.0195313 0.683594,-0.078125 v -0.703125 c -0.117188,0.0390625 -0.253907,0.0585938 -0.410157,0.0585938 -0.351562,0 -0.449218,-0.1171875 -0.449218,-0.46875 V -4.5503073 h 0.859375 z m 0,0"
       style="fill:#ff0000;fill-opacity:1;fill-rule:nonzero;stroke:none"
       aria-label="MLModelDeployment"
       transform="matrix(0.8,0,0,0.8,274.932,134.19493)" />
    <path
       id="path34"
       d="m 4.4131484,-2.4828698 c 0,-1.0742187 -0.8789062,-1.9335937 -1.9335937,-1.9335937 -1.0742188,0 -1.93359376,0.8789062 -1.93359376,1.9335937 0,1.0546875 0.85937496,1.91406251 1.93359376,1.91406251 1.0546875,0 1.9335937,-0.85937501 1.9335937,-1.91406251 z m 0,0"
       style="fill:#ff0000;fill-opacity:1;fill-rule:nonzero;stroke:none"
       aria-label="•"
       transform="matrix(0.8,0,0,0.8,268.7312,143.75973)" />
    <path
       id="path35"
       d="m 6.6035547,-5.0219323 c -0.2929688,-1.5820312 -1.2109375,-2.3632812 -2.8125,-2.3632812 -0.9765625,0 -1.7578125,0.3125 -2.3046875,0.9179687 -0.64453126,0.703125 -1.01562501,1.7382813 -1.01562501,2.9101563 0,1.2109375 0.37109375,2.2265625 1.07421871,2.92968746 0.546875,0.5859375 1.2695313,0.859375 2.2070313,0.859375 1.7773437,0 2.7734375,-0.95703125 2.9882812,-2.89062496 H 5.7832422 c -0.078125,0.5078125 -0.1757813,0.8398437 -0.3320313,1.1328125 -0.2929687,0.60546871 -0.8984375,0.93749996 -1.6796875,0.93749996 -1.4453125,0 -2.3632812,-1.15234376 -2.3632812,-2.96874996 0,-1.8554688 0.8789062,-3.0078125 2.2851562,-3.0078125 0.5859375,0 1.1328125,0.1757812 1.4257813,0.4492187 0.2734375,0.2539063 0.4296875,0.5664063 0.5273437,1.09375 z m 2.524414,-2.2460937 h -0.9375 v 7.26562496 h 0.9375 z m 3.1201173,0 -2.3632813,7.46093746 H 10.43168 L 12.794961,-7.268026 Z m 7.084961,2.2460937 c -0.292969,-1.5820312 -1.210938,-2.3632812 -2.8125,-2.3632812 -0.976563,0 -1.757813,0.3125 -2.304688,0.9179687 -0.644531,0.703125 -1.015625,1.7382813 -1.015625,2.9101563 0,1.2109375 0.371094,2.2265625 1.074219,2.92968746 0.546875,0.5859375 1.269531,0.859375 2.207031,0.859375 1.777344,0 2.773438,-0.95703125 2.988282,-2.89062496 h -0.957032 c -0.07813,0.5078125 -0.175781,0.8398437 -0.332031,1.1328125 -0.292969,0.60546871 -0.898437,0.93749996 -1.679687,0.93749996 -1.445313,0 -2.363282,-1.15234376 -2.363282,-2.96874996 0,-1.8554688 0.878907,-3.0078125 2.285157,-3.0078125 0.585937,0 1.132812,0.1757812 1.425781,0.4492187 0.273437,0.2539063 0.429687,0.5664063 0.527344,1.09375 z m 1.469726,5.01953126 h 2.8125 c 1.835938,0 2.949219,-1.36718746 2.949219,-3.63281246 0,-2.2460938 -1.113281,-3.6328125 -2.949219,-3.6328125 h -2.8125 z m 0.9375,-0.8203125 V -6.4477135 h 1.71875 c 1.425782,0 2.1875,0.9765625 2.1875,2.8125 0,1.8359375 -0.761718,2.81249996 -2.1875,2.81249996 z m 9.985352,-2.26562496 h 2.285156 c 0.566406,0 1.015625,-0.15625 1.40625,-0.5078125 0.429688,-0.4101563 0.625,-0.859375 0.625,-1.5429688 0,-1.3671875 -0.820312,-2.1289062 -2.246094,-2.1289062 h -3.007812 v 7.26562496 h 0.9375 z m 0,-0.8007813 v -2.5585937 h 1.933594 c 0.878906,0 1.40625,0.4882812 1.40625,1.2695312 0,0.8007813 -0.527344,1.2890625 -1.40625,1.2890625 z m 6.293945,-1.328125 h -0.820312 v 5.21484376 h 0.820312 z m 0,-2.0507812 h -0.820312 v 1.0546875 h 0.820312 z m 1.274414,9.4335937 h 0.820313 v -2.71484374 c 0.449219,0.52734375 0.9375,0.78125 1.601562,0.78125 1.347657,0 2.246094,-1.09375 2.246094,-2.75390626 0,-1.7578125 -0.859375,-2.8515625 -2.246094,-2.8515625 -0.703125,0 -1.269531,0.3125 -1.660156,0.9375 v -0.78125 h -0.761719 z m 2.285157,-6.7578125 c 0.917968,0 1.503906,0.8007813 1.503906,2.0507813 0,1.1914062 -0.605469,1.99218746 -1.503906,1.99218746 -0.878907,0 -1.464844,-0.80078126 -1.464844,-2.03124996 0,-1.2109375 0.585937,-2.0117188 1.464844,-2.0117188 z m 7.822265,2.265625 c 0,-0.8007812 -0.05859,-1.2890625 -0.214844,-1.6796875 -0.332031,-0.8398437 -1.132812,-1.3671875 -2.109375,-1.3671875 -1.464843,0 -2.402343,1.1132813 -2.402343,2.8320313 0,1.71874996 0.917968,2.77343746 2.382812,2.77343746 1.191406,0 2.011719,-0.68359375 2.226563,-1.81640626 h -0.839844 c -0.234375,0.68359376 -0.703125,1.03515626 -1.367188,1.03515626 -0.527343,0 -0.976562,-0.234375 -1.25,-0.66406246 -0.195312,-0.3125 -0.273437,-0.6054688 -0.273437,-1.1132813 z m -3.828125,-0.6835937 c 0.05859,-0.9570313 0.644531,-1.6015625 1.484375,-1.6015625 0.820313,0 1.445313,0.6835937 1.445313,1.5429687 0,0.019531 0,0.039063 0,0.058594 z m 5.771485,-4.2578125 h -0.839844 v 7.26562496 h 0.839844 z m 2.172851,2.0507812 h -0.820312 v 5.21484376 h 0.820312 z m 0,-2.0507812 h -0.820312 v 1.0546875 h 0.820312 z m 1.430664,2.0507812 v 5.21484376 h 0.839844 V -2.8734948 c 0,-1.0742187 0.546875,-1.7773437 1.40625,-1.7773437 0.664062,0 1.074219,0.4101562 1.074219,1.0351562 v 3.61328126 h 0.820312 V -3.9477135 c 0,-0.859375 -0.644531,-1.4257813 -1.640625,-1.4257813 -0.78125,0 -1.289062,0.2929688 -1.738281,1.0351563 v -0.8789063 z m 9.956055,2.890625 c 0,-0.8007812 -0.05859,-1.2890625 -0.214844,-1.6796875 -0.332031,-0.8398437 -1.132812,-1.3671875 -2.109375,-1.3671875 -1.464844,0 -2.402344,1.1132813 -2.402344,2.8320313 0,1.71874996 0.917969,2.77343746 2.382813,2.77343746 1.191406,0 2.011719,-0.68359375 2.226562,-1.81640626 h -0.839843 c -0.234375,0.68359376 -0.703125,1.03515626 -1.367188,1.03515626 -0.527344,0 -0.976562,-0.234375 -1.25,-0.66406246 -0.195312,-0.3125 -0.273437,-0.6054688 -0.273437,-1.1132813 z m -3.828125,-0.6835937 c 0.05859,-0.9570313 0.644531,-1.6015625 1.484375,-1.6015625 0.820312,0 1.445312,0.6835937 1.445312,1.5429687 0,0.019531 0,0.039063 0,0.058594 z m 0,0"
       style="fill:#ff0000;fill-opacity:1;fill-rule:nonzero;stroke:none"
       aria-label="CI/CDPipeline"
       transform="matrix(0.8,0,0,0.8,274.932,143.75973)" />
    <path
       id="path36"
       d="m 4.4131484,-2.479862 c 0,-1.0742187 -0.8789062,-1.9335937 -1.9335937,-1.9335937 -1.0742188,0 -1.93359376,0.8789062 -1.93359376,1.9335937 0,1.0546875 0.85937496,1.91406252 1.93359376,1.91406252 1.0546875,0 1.9335937,-0.85937502 1.9335937,-1.91406252 z m 0,0"
       style="fill:#ff0000;fill-opacity:1;fill-rule:nonzero;stroke:none"
       aria-label="•"
       transform="matrix(0.8,0,0,0.8,268.7312,153.32373)" />
    <path
       id="path37"
       d="M 4.6699609,6.0677083e-4 6.7012109,-6.0931432 V 6.0677083e-4 H 7.5801172 V -7.2650182 H 6.2910547 L 4.1816797,-0.93689323 2.0332422,-7.2650182 H 0.74417969 V 6.0677083e-4 H 1.6230859 V -6.0931432 L 3.6933984,6.0677083e-4 Z M 11.012734,-5.370487 c -1.4648434,0 -2.3632809,1.0546875 -2.3632809,2.7929688 0,1.75781247 0.8789063,2.81249997 2.3632809,2.81249997 1.464844,0 2.363282,-1.0546875 2.363282,-2.77343747 0,-1.796875 -0.859375,-2.8320313 -2.363282,-2.8320313 z m 0,0.7617188 c 0.9375,0 1.503907,0.78125 1.503907,2.0703125 0,1.2304687 -0.585938,1.99218747 -1.503907,1.99218747 -0.917968,0 -1.4843746,-0.76171877 -1.4843746,-2.03124997 0,-1.25 0.5664066,-2.03125 1.4843746,-2.03125 z M 14.543008,-5.214237 V 6.0677083e-4 h 0.839844 V -2.870487 c 0,-1.0742187 0.546875,-1.7773437 1.40625,-1.7773437 0.664062,0 1.074218,0.4101562 1.074218,1.0351562 V 6.0677083e-4 h 0.820313 V -3.9447057 c 0,-0.859375 -0.644531,-1.4257813 -1.640625,-1.4257813 -0.78125,0 -1.289063,0.2929688 -1.738281,1.0351563 V -5.214237 Z m 6.318359,0 H 20.041055 V 6.0677083e-4 h 0.820312 z m 0,-2.0507812 h -0.820312 v 1.0546875 h 0.820312 z m 3.266602,2.0507812 H 23.268594 V -6.6595495 H 22.42875 v 1.4453125 h -0.703125 v 0.6640625 h 0.703125 v 3.94531252 c 0,0.52734375 0.371094,0.83984375 1.015625,0.83984375 0.195312,0 0.390625,-0.0195313 0.683594,-0.078125 v -0.703125 c -0.117188,0.0390625 -0.253907,0.0585938 -0.410157,0.0585938 -0.351562,0 -0.449218,-0.1171875 -0.449218,-0.46875 V -4.5501745 h 0.859375 z m 2.944336,-0.15625 c -1.464844,0 -2.363282,1.0546875 -2.363282,2.7929688 0,1.75781247 0.878907,2.81249997 2.363282,2.81249997 1.464843,0 2.363281,-1.0546875 2.363281,-2.77343747 0,-1.796875 -0.859375,-2.8320313 -2.363281,-2.8320313 z m 0,0.7617188 c 0.9375,0 1.503906,0.78125 1.503906,2.0703125 0,1.2304687 -0.585938,1.99218747 -1.503906,1.99218747 -0.917969,0 -1.484375,-0.76171877 -1.484375,-2.03124997 0,-1.25 0.566406,-2.03125 1.484375,-2.03125 z M 30.583047,-5.214237 V 6.0677083e-4 h 0.839844 V -2.714237 c 0,-0.7421875 0.195312,-1.2304687 0.585937,-1.5234375 0.253906,-0.1757812 0.507813,-0.234375 1.09375,-0.2539062 v -0.8398438 c -0.136719,-0.019531 -0.214844,-0.039063 -0.332031,-0.039063 -0.527344,0 -0.9375,0.3125 -1.425781,1.09375 v -0.9375 z m 4.267578,0 H 34.030312 V 6.0677083e-4 h 0.820313 z m 0,-2.0507812 h -0.820313 v 1.0546875 h 0.820313 z m 1.430664,2.0507812 V 6.0677083e-4 h 0.839844 V -2.870487 c 0,-1.0742187 0.546875,-1.7773437 1.40625,-1.7773437 0.664062,0 1.074219,0.4101562 1.074219,1.0351562 V 6.0677083e-4 h 0.820312 V -3.9447057 c 0,-0.859375 -0.644531,-1.4257813 -1.640625,-1.4257813 -0.78125,0 -1.289062,0.2929688 -1.738281,1.0351563 V -5.214237 Z m 8.935547,0 v 0.7617188 c -0.410156,-0.625 -0.917969,-0.9179688 -1.582031,-0.9179688 -1.328125,0 -2.226563,1.1523438 -2.226563,2.8515625 0,0.859375 0.234375,1.56250002 0.644531,2.05078127 0.390625,0.4296875 0.957032,0.703125 1.503907,0.703125 0.664062,0 1.113281,-0.29296875 1.582031,-0.9375 v 0.2734375 c 0,0.703125 -0.09766,1.1328125 -0.292969,1.40625 -0.214844,0.31250003 -0.644531,0.48828123 -1.152344,0.48828123 -0.390625,0 -0.722656,-0.097656 -0.957031,-0.2734375 -0.195312,-0.1367187 -0.273437,-0.29296873 -0.3125,-0.58593748 h -0.859375 c 0.09766,0.97656248 0.859375,1.56249998 2.089844,1.56249998 0.78125,0 1.445312,-0.2539062 1.777344,-0.6640625 0.410156,-0.46875 0.546875,-1.13281248 0.546875,-2.36328123 V -5.214237 Z m -1.503906,0.6054688 c 0.898437,0 1.425781,0.7617187 1.425781,2.0703125 0,1.25 -0.546875,1.99218747 -1.40625,1.99218747 -0.917969,0 -1.464844,-0.76171877 -1.464844,-2.03124997 0,-1.25 0.566406,-2.03125 1.445313,-2.03125 z m 10.605468,1.2890625 c 0.01953,0.3515625 -0.09766,0.8398437 -0.292968,1.171875 l -1.328125,-1.6210938 c 1.035156,-0.5859375 1.367187,-1.015625 1.367187,-1.7382812 0,-0.8984375 -0.683594,-1.5625 -1.621094,-1.5625 -0.9375,0 -1.699218,0.703125 -1.699218,1.5625 0,0.46875 0.195312,0.859375 0.800781,1.640625 -1.230469,0.703125 -1.601563,1.2109375 -1.601563,2.109375 0,1.19140622 0.800782,1.99218747 2.03125,1.99218747 0.488282,0 0.957032,-0.13671875 1.308594,-0.37109375 0.214844,-0.1171875 0.390625,-0.2734375 0.78125,-0.64453125 l 0.605469,0.78125000083 h 1.09375 L 54.552773,-1.5032995 c 0.371094,-0.5664062 0.566407,-1.2304687 0.566407,-1.8164062 z m -2.070312,-0.9765625 c -0.605469,-0.703125 -0.683594,-0.859375 -0.683594,-1.2109375 0,-0.5273438 0.332031,-0.859375 0.859375,-0.859375 0.488281,0 0.859375,0.3515625 0.859375,0.8398437 0,0.4492188 -0.253906,0.7421875 -1.035156,1.2304688 z m 1.328125,2.9296875 c -0.546875,0.58593747 -0.976563,0.82031247 -1.503906,0.82031247 -0.722657,0 -1.308594,-0.58593747 -1.308594,-1.26953127 0,-0.5664062 0.3125,-0.9570312 1.230469,-1.5429687 z m 8.789062,-5.078125 h 2.363282 v -0.8203125 h -5.683594 v 0.8203125 h 2.382812 V 6.0677083e-4 h 0.9375 z m 2.050782,1.2304687 V 6.0677083e-4 h 0.839843 V -2.714237 c 0,-0.7421875 0.195313,-1.2304687 0.585938,-1.5234375 0.253906,-0.1757812 0.507812,-0.234375 1.09375,-0.2539062 v -0.8398438 c -0.136719,-0.019531 -0.214844,-0.039063 -0.332031,-0.039063 -0.527344,0 -0.9375,0.3125 -1.425782,1.09375 v -0.9375 z m 4.257812,0 H 67.853555 V 6.0677083e-4 h 0.820312 z m 0,-2.0507812 h -0.820312 v 1.0546875 h 0.820312 z m 4.829102,2.0507812 v 0.7617188 c -0.410157,-0.625 -0.917969,-0.9179688 -1.582032,-0.9179688 -1.328125,0 -2.226562,1.1523438 -2.226562,2.8515625 0,0.859375 0.234375,1.56250002 0.644531,2.05078127 0.390625,0.4296875 0.957031,0.703125 1.503906,0.703125 0.664063,0 1.113282,-0.29296875 1.582032,-0.9375 v 0.2734375 c 0,0.703125 -0.09766,1.1328125 -0.292969,1.40625 -0.214844,0.31250003 -0.644531,0.48828123 -1.152344,0.48828123 -0.390625,0 -0.722656,-0.097656 -0.957031,-0.2734375 C 70.827187,1.0552943 70.749062,0.89904427 70.71,0.60607552 H 69.850625 C 69.948281,1.582638 70.71,2.1685755 71.940469,2.1685755 c 0.78125,0 1.445312,-0.2539062 1.777343,-0.6640625 0.410157,-0.46875 0.546875,-1.13281248 0.546875,-2.36328123 V -5.214237 Z m -1.503907,0.6054688 c 0.898438,0 1.425782,0.7617187 1.425782,2.0703125 0,1.25 -0.546875,1.99218747 -1.40625,1.99218747 -0.917969,0 -1.464844,-0.76171877 -1.464844,-2.03124997 0,-1.25 0.566406,-2.03125 1.445312,-2.03125 z m 7.041016,-0.6054688 v 0.7617188 c -0.410156,-0.625 -0.917969,-0.9179688 -1.582031,-0.9179688 -1.328125,0 -2.226563,1.1523438 -2.226563,2.8515625 0,0.859375 0.234375,1.56250002 0.644532,2.05078127 0.390625,0.4296875 0.957031,0.703125 1.503906,0.703125 0.664062,0 1.113281,-0.29296875 1.582031,-0.9375 v 0.2734375 c 0,0.703125 -0.09766,1.1328125 -0.292969,1.40625 -0.214843,0.31250003 -0.644531,0.48828123 -1.152343,0.48828123 -0.390625,0 -0.722657,-0.097656 -0.957032,-0.2734375 -0.195312,-0.1367187 -0.273437,-0.29296873 -0.3125,-0.58593748 h -0.859375 c 0.09766,0.97656248 0.859375,1.56249998 2.089844,1.56249998 0.78125,0 1.445313,-0.2539062 1.777344,-0.6640625 0.410156,-0.46875 0.546875,-1.13281248 0.546875,-2.36328123 V -5.214237 Z m -1.503906,0.6054688 c 0.898437,0 1.425781,0.7617187 1.425781,2.0703125 0,1.25 -0.546875,1.99218747 -1.40625,1.99218747 -0.917969,0 -1.464844,-0.76171877 -1.464844,-2.03124997 0,-1.25 0.566407,-2.03125 1.445313,-2.03125 z m 8.061523,2.2851562 c 0,-0.8007812 -0.05859,-1.2890625 -0.214843,-1.6796875 -0.332032,-0.8398437 -1.132813,-1.3671875 -2.109375,-1.3671875 -1.464844,0 -2.402344,1.1132813 -2.402344,2.8320313 0,1.71874997 0.917969,2.77343747 2.382812,2.77343747 1.191407,0 2.011719,-0.68359375 2.226563,-1.81640627 h -0.839844 c -0.234375,0.68359377 -0.703125,1.03515627 -1.367187,1.03515627 -0.527344,0 -0.976563,-0.234375 -1.25,-0.66406247 -0.195313,-0.3125 -0.273438,-0.6054688 -0.273438,-1.1132813 z M 81.76957,-3.0072057 c 0.05859,-0.9570313 0.644532,-1.6015625 1.484375,-1.6015625 0.820313,0 1.445313,0.6835937 1.445313,1.5429687 0,0.019531 0,0.039063 0,0.058594 z M 86.701211,-5.214237 V 6.0677083e-4 h 0.839844 V -2.714237 c 0,-0.7421875 0.195312,-1.2304687 0.585937,-1.5234375 0.253906,-0.1757812 0.507813,-0.234375 1.09375,-0.2539062 v -0.8398438 c -0.136719,-0.019531 -0.214844,-0.039063 -0.332031,-0.039063 -0.527344,0 -0.9375,0.3125 -1.425781,1.09375 v -0.9375 z m 4.267578,0 H 90.148477 V 6.0677083e-4 h 0.820312 z m 0,-2.0507812 h -0.820312 v 1.0546875 h 0.820312 z m 1.430664,2.0507812 V 6.0677083e-4 h 0.839844 V -2.870487 c 0,-1.0742187 0.546875,-1.7773437 1.40625,-1.7773437 0.664062,0 1.074219,0.4101562 1.074219,1.0351562 V 6.0677083e-4 h 0.820312 V -3.9447057 c 0,-0.859375 -0.644531,-1.4257813 -1.640625,-1.4257813 -0.78125,0 -1.289062,0.2929688 -1.738281,1.0351563 V -5.214237 Z m 8.935547,0 v 0.7617188 c -0.41016,-0.625 -0.91797,-0.9179688 -1.582031,-0.9179688 -1.328125,0 -2.226563,1.1523438 -2.226563,2.8515625 0,0.859375 0.234375,1.56250002 0.644531,2.05078127 0.390625,0.4296875 0.957032,0.703125 1.503907,0.703125 0.664066,0 1.113276,-0.29296875 1.582026,-0.9375 v 0.2734375 c 0,0.703125 -0.0977,1.1328125 -0.29296,1.40625 -0.21485,0.31250003 -0.64454,0.48828123 -1.152348,0.48828123 -0.390625,0 -0.722656,-0.097656 -0.957031,-0.2734375 -0.195312,-0.1367187 -0.273437,-0.29296873 -0.3125,-0.58593748 h -0.859375 c 0.09766,0.97656248 0.859375,1.56249998 2.089844,1.56249998 0.78125,0 1.44531,-0.2539062 1.77734,-0.6640625 0.41016,-0.46875 0.54688,-1.13281248 0.54688,-2.36328123 V -5.214237 Z m -1.503906,0.6054688 c 0.898436,0 1.425776,0.7617187 1.425776,2.0703125 0,1.25 -0.54687,1.99218747 -1.406245,1.99218747 -0.917969,0 -1.464844,-0.76171877 -1.464844,-2.03124997 0,-1.25 0.566406,-2.03125 1.445313,-2.03125 z m 0,0"
       style="fill:#ff0000;fill-opacity:1;fill-rule:nonzero;stroke:none"
       aria-label="Monitoring&amp;Triggering"
       transform="matrix(0.8,0,0,0.8,274.932,153.32373)" />
  </g>
</svg>
