<?xml version="1.0" encoding="utf-8" standalone="no"?>
<!DOCTYPE svg PUBLIC "-//W3C//DTD SVG 1.1//EN"
  "http://www.w3.org/Graphics/SVG/1.1/DTD/svg11.dtd">
<svg xmlns:xlink="http://www.w3.org/1999/xlink" width="72.54105pt" height="39.4704pt" viewBox="0 0 72.54105 39.4704" xmlns="http://www.w3.org/2000/svg" version="1.1">
 <metadata>
  <rdf:RDF xmlns:dc="http://purl.org/dc/elements/1.1/" xmlns:cc="http://creativecommons.org/ns#" xmlns:rdf="http://www.w3.org/1999/02/22-rdf-syntax-ns#">
   <cc:Work>
    <dc:type rdf:resource="http://purl.org/dc/dcmitype/StillImage"/>
    <dc:format>image/svg+xml</dc:format>
    <dc:creator>
     <cc:Agent>
      <dc:title>Matplotlib v3.10.8, https://matplotlib.org/</dc:title>
     </cc:Agent>
    </dc:creator>
   </cc:Work>
  </rdf:RDF>
 </metadata>
 <defs>
  <style type="text/css">*{stroke-linejoin: round; stroke-linecap: butt}</style>
 </defs>
 <g id="figure_1">
  <g id="patch_1">
   <path d="M 0 39.4704
L 72.54105 39.4704
L 72.54105 0
L 0 0
z
" style="fill: #ffffff"/>
  </g>
  <g id="axes_1">
   <g id="patch_2">
    <path d="M 1.44 38.0304
L 68.4 38.0304
L 68.4 1.44
L 1.44 1.44
z
" style="fill: #ffffff"/>
   </g>
   <g id="patch_3">
    <path d="M 17.5104 17.539776
L 42.090653 17.539776
L 42.090653 12.41712
L 17.5104 12.41712
z
" clip-path="url(#p0962d27eb9)" style="fill: #e67817; stroke: #ffffff; stroke-width: 0.35; stroke-linejoin: miter"/>
   </g>
   <g id="patch_4">
    <path d="M 42.090653 17.539776
L 56.3472 17.539776
L 56.3472 12.41712
L 42.090653 12.41712
z
" clip-path="url(#p0962d27eb9)" style="fill: #cccccc; stroke: #ffffff; stroke-width: 0.35; stroke-linejoin: miter"/>
   </g>
   <g id="patch_5">
    <path d="M 17.5104 28.516896
L 42.090653 28.516896
L 42.090653 23.39424
L 17.5104 23.39424
z
" clip-path="url(#p0962d27eb9)" style="fill: #e67817; stroke: #ffffff; stroke-width: 0.35; stroke-linejoin: miter"/>
   </g>
   <g id="patch_6">
    <path d="M 42.090653 28.516896
L 44.548678 28.516896
L 44.548678 23.39424
L 42.090653 23.39424
z
" clip-path="url(#p0962d27eb9)" style="fill: #cccccc; stroke: #ffffff; stroke-width: 0.35; stroke-linejoin: miter"/>
   </g>
   <g id="matplotlib.axis_1"/>
   <g id="matplotlib.axis_2"/>
   <g id="text_1">
    <!-- 1.58 -->
    <g style="fill: #333333" transform="translate(6.1272 16.250714) scale(0.05 -0.05)">
     <defs>
      <path id="Helvetica-31" d="M 613 3169
L 613 3600
Q 1222 3659 1462 3798
Q 1703 3938 1822 4456
L 2266 4456
L 2266 0
L 1666 0
L 1666 3169
L 613 3169
z
" transform="scale(0.015625)"/>
      <path id="Helvetica-2e" d="M 547 681
L 1200 681
L 1200 0
L 547 0
L 547 681
z
" transform="scale(0.015625)"/>
      <path id="Helvetica-35" d="M 791 1141
Q 847 659 1238 475
Q 1438 381 1700 381
Q 2200 381 2440 700
Q 2681 1019 2681 1406
Q 2681 1875 2395 2131
Q 2109 2388 1709 2388
Q 1419 2388 1211 2275
Q 1003 2163 856 1963
L 369 1991
L 709 4400
L 3034 4400
L 3034 3856
L 1131 3856
L 941 2613
Q 1097 2731 1238 2791
Q 1488 2894 1816 2894
Q 2431 2894 2859 2497
Q 3288 2100 3288 1491
Q 3288 856 2895 371
Q 2503 -113 1644 -113
Q 1097 -113 676 195
Q 256 503 206 1141
L 791 1141
z
" transform="scale(0.015625)"/>
      <path id="Helvetica-38" d="M 1741 2600
Q 2113 2600 2322 2808
Q 2531 3016 2531 3303
Q 2531 3553 2331 3762
Q 2131 3972 1722 3972
Q 1316 3972 1134 3762
Q 953 3553 953 3272
Q 953 2956 1187 2778
Q 1422 2600 1741 2600
z
M 1775 384
Q 2166 384 2423 595
Q 2681 806 2681 1225
Q 2681 1659 2415 1884
Q 2150 2109 1734 2109
Q 1331 2109 1076 1879
Q 822 1650 822 1244
Q 822 894 1055 639
Q 1288 384 1775 384
z
M 975 2384
Q 741 2484 609 2619
Q 363 2869 363 3269
Q 363 3769 725 4128
Q 1088 4488 1753 4488
Q 2397 4488 2762 4148
Q 3128 3809 3128 3356
Q 3128 2938 2916 2678
Q 2797 2531 2547 2391
Q 2825 2263 2984 2097
Q 3281 1784 3281 1284
Q 3281 694 2884 283
Q 2488 -128 1763 -128
Q 1109 -128 657 226
Q 206 581 206 1256
Q 206 1653 400 1942
Q 594 2231 975 2384
z
" transform="scale(0.015625)"/>
     </defs>
     <use xlink:href="#Helvetica-31"/>
     <use xlink:href="#Helvetica-2e" transform="translate(55.615234 0)"/>
     <use xlink:href="#Helvetica-35" transform="translate(83.398438 0)"/>
     <use xlink:href="#Helvetica-38" transform="translate(139.013672 0)"/>
    </g>
   </g>
   <g id="text_2">
    <!-- IT -->
    <g style="fill: #ffffff" transform="translate(19.5192 16.199823) scale(0.048 -0.048)">
     <defs>
      <path id="Helvetica-49" d="M 628 4591
L 1256 4591
L 1256 0
L 628 0
L 628 4591
z
" transform="scale(0.015625)"/>
      <path id="Helvetica-54" d="M 3828 4591
L 3828 4044
L 2281 4044
L 2281 0
L 1650 0
L 1650 4044
L 103 4044
L 103 4591
L 3828 4591
z
" transform="scale(0.015625)"/>
     </defs>
     <use xlink:href="#Helvetica-49"/>
     <use xlink:href="#Helvetica-54" transform="translate(27.783203 0)"/>
    </g>
   </g>
   <g id="text_3">
    <!-- +58% -->
    <g style="fill: #555555" transform="translate(58.6908 16.199823) scale(0.048 -0.048)">
     <defs>
      <path id="Helvetica-2b" d="M 288 1369
L 288 1894
L 1650 1894
L 1650 3266
L 2184 3266
L 2184 1894
L 3547 1894
L 3547 1369
L 2184 1369
L 2184 0
L 1650 0
L 1650 1369
L 288 1369
z
" transform="scale(0.015625)"/>
      <path id="Helvetica-25" d="M 4363 2175
Q 4813 2175 5131 1856
Q 5450 1538 5450 1088
Q 5450 638 5131 319
Q 4813 0 4363 0
Q 3909 0 3590 319
Q 3272 638 3272 1088
Q 3272 1538 3590 1856
Q 3909 2175 4363 2175
z
M 3909 4456
L 4256 4456
L 1753 -119
L 1406 -119
L 3909 4456
z
M 1294 2606
Q 1563 2606 1752 2795
Q 1941 2984 1941 3250
Q 1941 3516 1752 3705
Q 1563 3894 1294 3894
Q 1028 3894 839 3706
Q 650 3519 650 3250
Q 650 2984 839 2795
Q 1028 2606 1294 2606
z
M 1294 4341
Q 1747 4341 2065 4020
Q 2384 3700 2384 3250
Q 2384 2800 2065 2481
Q 1747 2163 1294 2163
Q 844 2163 525 2481
Q 206 2800 206 3250
Q 206 3700 525 4020
Q 844 4341 1294 4341
z
M 4363 444
Q 4628 444 4817 633
Q 5006 822 5006 1088
Q 5006 1353 4817 1542
Q 4628 1731 4363 1731
Q 4094 1731 3905 1542
Q 3716 1353 3716 1088
Q 3716 822 3905 633
Q 4094 444 4363 444
z
" transform="scale(0.015625)"/>
     </defs>
     <use xlink:href="#Helvetica-2b"/>
     <use xlink:href="#Helvetica-35" transform="translate(58.398438 0)"/>
     <use xlink:href="#Helvetica-38" transform="translate(114.013672 0)"/>
     <use xlink:href="#Helvetica-25" transform="translate(169.628906 0)"/>
    </g>
   </g>
   <g id="text_4">
    <!-- 1.10 -->
    <g style="fill: #333333" transform="translate(6.1272 27.227834) scale(0.05 -0.05)">
     <defs>
      <path id="Helvetica-30" d="M 1731 4475
Q 2600 4475 2988 3759
Q 3288 3206 3288 2244
Q 3288 1331 3016 734
Q 2622 -122 1728 -122
Q 922 -122 528 578
Q 200 1163 200 2147
Q 200 2909 397 3456
Q 766 4475 1731 4475
z
M 1725 391
Q 2163 391 2422 778
Q 2681 1166 2681 2222
Q 2681 2984 2493 3476
Q 2306 3969 1766 3969
Q 1269 3969 1039 3501
Q 809 3034 809 2125
Q 809 1441 956 1025
Q 1181 391 1725 391
z
" transform="scale(0.015625)"/>
     </defs>
     <use xlink:href="#Helvetica-31"/>
     <use xlink:href="#Helvetica-2e" transform="translate(55.615234 0)"/>
     <use xlink:href="#Helvetica-31" transform="translate(83.398438 0)"/>
     <use xlink:href="#Helvetica-30" transform="translate(139.013672 0)"/>
    </g>
   </g>
   <g id="text_5">
    <!-- IT -->
    <g style="fill: #ffffff" transform="translate(19.5192 27.176943) scale(0.048 -0.048)">
     <use xlink:href="#Helvetica-49"/>
     <use xlink:href="#Helvetica-54" transform="translate(27.783203 0)"/>
    </g>
   </g>
   <g id="text_6">
    <!-- +10% -->
    <g style="fill: #555555" transform="translate(58.6908 27.176943) scale(0.048 -0.048)">
     <use xlink:href="#Helvetica-2b"/>
     <use xlink:href="#Helvetica-31" transform="translate(58.398438 0)"/>
     <use xlink:href="#Helvetica-30" transform="translate(114.013672 0)"/>
     <use xlink:href="#Helvetica-25" transform="translate(169.628906 0)"/>
    </g>
   </g>
   <g id="text_7">
    <!-- PUE overhead -->
    <g style="fill: #333333" transform="translate(20.669816 7.103114) scale(0.05 -0.05)">
     <defs>
      <path id="Helvetica-50" d="M 547 4591
L 2613 4591
Q 3225 4591 3600 4245
Q 3975 3900 3975 3275
Q 3975 2738 3640 2339
Q 3306 1941 2613 1941
L 1169 1941
L 1169 0
L 547 0
L 547 4591
z
M 3347 3272
Q 3347 3778 2972 3959
Q 2766 4056 2406 4056
L 1169 4056
L 1169 2466
L 2406 2466
Q 2825 2466 3086 2644
Q 3347 2822 3347 3272
z
" transform="scale(0.015625)"/>
      <path id="Helvetica-55" d="M 1163 4591
L 1163 1753
Q 1163 1253 1350 922
Q 1628 422 2288 422
Q 3078 422 3363 963
Q 3516 1256 3516 1753
L 3516 4591
L 4147 4591
L 4147 2013
Q 4147 1166 3919 709
Q 3500 -122 2338 -122
Q 1175 -122 759 709
Q 531 1166 531 2013
L 531 4591
L 1163 4591
z
M 2341 4591
L 2341 4591
z
" transform="scale(0.015625)"/>
      <path id="Helvetica-45" d="M 547 4591
L 3894 4591
L 3894 4028
L 1153 4028
L 1153 2634
L 3688 2634
L 3688 2103
L 1153 2103
L 1153 547
L 3941 547
L 3941 0
L 547 0
L 547 4591
z
M 2244 4591
L 2244 4591
z
" transform="scale(0.015625)"/>
      <path id="Helvetica-20" transform="scale(0.015625)"/>
      <path id="Helvetica-6f" d="M 1741 363
Q 2300 363 2508 786
Q 2716 1209 2716 1728
Q 2716 2197 2566 2491
Q 2328 2953 1747 2953
Q 1231 2953 997 2559
Q 763 2166 763 1609
Q 763 1075 997 719
Q 1231 363 1741 363
z
M 1763 3444
Q 2409 3444 2856 3012
Q 3303 2581 3303 1744
Q 3303 934 2909 406
Q 2516 -122 1688 -122
Q 997 -122 590 345
Q 184 813 184 1600
Q 184 2444 612 2944
Q 1041 3444 1763 3444
z
M 1744 3428
L 1744 3428
z
" transform="scale(0.015625)"/>
      <path id="Helvetica-76" d="M 688 3347
L 1581 622
L 2516 3347
L 3131 3347
L 1869 0
L 1269 0
L 34 3347
L 688 3347
z
" transform="scale(0.015625)"/>
      <path id="Helvetica-65" d="M 1806 3422
Q 2163 3422 2497 3255
Q 2831 3088 3006 2822
Q 3175 2569 3231 2231
Q 3281 2000 3281 1494
L 828 1494
Q 844 984 1069 676
Q 1294 369 1766 369
Q 2206 369 2469 659
Q 2619 828 2681 1050
L 3234 1050
Q 3213 866 3089 639
Q 2966 413 2813 269
Q 2556 19 2178 -69
Q 1975 -119 1719 -119
Q 1094 -119 659 336
Q 225 791 225 1609
Q 225 2416 662 2919
Q 1100 3422 1806 3422
z
M 2703 1941
Q 2669 2306 2544 2525
Q 2313 2931 1772 2931
Q 1384 2931 1121 2651
Q 859 2372 844 1941
L 2703 1941
z
M 1753 3428
L 1753 3428
z
" transform="scale(0.015625)"/>
      <path id="Helvetica-72" d="M 428 3347
L 963 3347
L 963 2769
Q 1028 2938 1284 3180
Q 1541 3422 1875 3422
Q 1891 3422 1928 3419
Q 1966 3416 2056 3406
L 2056 2813
Q 2006 2822 1964 2825
Q 1922 2828 1872 2828
Q 1447 2828 1219 2554
Q 991 2281 991 1925
L 991 0
L 428 0
L 428 3347
z
" transform="scale(0.015625)"/>
      <path id="Helvetica-68" d="M 413 4606
L 975 4606
L 975 2894
Q 1175 3147 1334 3250
Q 1606 3428 2013 3428
Q 2741 3428 3000 2919
Q 3141 2641 3141 2147
L 3141 0
L 2563 0
L 2563 2109
Q 2563 2478 2469 2650
Q 2316 2925 1894 2925
Q 1544 2925 1259 2684
Q 975 2444 975 1775
L 975 0
L 413 0
L 413 4606
z
" transform="scale(0.015625)"/>
      <path id="Helvetica-61" d="M 844 891
Q 844 647 1022 506
Q 1200 366 1444 366
Q 1741 366 2019 503
Q 2488 731 2488 1250
L 2488 1703
Q 2384 1638 2221 1594
Q 2059 1550 1903 1531
L 1563 1488
Q 1256 1447 1103 1359
Q 844 1213 844 891
z
M 2206 2028
Q 2400 2053 2466 2191
Q 2503 2266 2503 2406
Q 2503 2694 2298 2823
Q 2094 2953 1713 2953
Q 1272 2953 1088 2716
Q 984 2584 953 2325
L 428 2325
Q 444 2944 830 3186
Q 1216 3428 1725 3428
Q 2316 3428 2684 3203
Q 3050 2978 3050 2503
L 3050 575
Q 3050 488 3086 434
Q 3122 381 3238 381
Q 3275 381 3322 386
Q 3369 391 3422 400
L 3422 -16
Q 3291 -53 3222 -62
Q 3153 -72 3034 -72
Q 2744 -72 2613 134
Q 2544 244 2516 444
Q 2344 219 2022 53
Q 1700 -113 1313 -113
Q 847 -113 551 170
Q 256 453 256 878
Q 256 1344 547 1600
Q 838 1856 1309 1916
L 2206 2028
z
M 1741 3428
L 1741 3428
z
" transform="scale(0.015625)"/>
      <path id="Helvetica-64" d="M 769 1634
Q 769 1097 997 734
Q 1225 372 1728 372
Q 2119 372 2370 708
Q 2622 1044 2622 1672
Q 2622 2306 2362 2611
Q 2103 2916 1722 2916
Q 1297 2916 1033 2591
Q 769 2266 769 1634
z
M 1616 3406
Q 2000 3406 2259 3244
Q 2409 3150 2600 2916
L 2600 4606
L 3141 4606
L 3141 0
L 2634 0
L 2634 466
Q 2438 156 2169 18
Q 1900 -119 1553 -119
Q 994 -119 584 351
Q 175 822 175 1603
Q 175 2334 548 2870
Q 922 3406 1616 3406
z
" transform="scale(0.015625)"/>
     </defs>
     <use xlink:href="#Helvetica-50"/>
     <use xlink:href="#Helvetica-55" transform="translate(66.699219 0)"/>
     <use xlink:href="#Helvetica-45" transform="translate(138.916016 0)"/>
     <use xlink:href="#Helvetica-20" transform="translate(205.615234 0)"/>
     <use xlink:href="#Helvetica-6f" transform="translate(233.398438 0)"/>
     <use xlink:href="#Helvetica-76" transform="translate(289.013672 0)"/>
     <use xlink:href="#Helvetica-65" transform="translate(339.013672 0)"/>
     <use xlink:href="#Helvetica-72" transform="translate(394.628906 0)"/>
     <use xlink:href="#Helvetica-68" transform="translate(427.929688 0)"/>
     <use xlink:href="#Helvetica-65" transform="translate(483.544922 0)"/>
     <use xlink:href="#Helvetica-61" transform="translate(539.160156 0)"/>
     <use xlink:href="#Helvetica-64" transform="translate(594.775391 0)"/>
    </g>
   </g>
  </g>
 </g>
 <defs>
  <clipPath id="p0962d27eb9">
   <rect x="1.44" y="1.44" width="66.96" height="36.5904"/>
  </clipPath>
 </defs>
</svg>
