<?xml version="1.0" encoding="UTF-8" standalone="no"?>
<!-- Created with Inkscape (http://www.inkscape.org/) -->

<svg
   version="1.1"
   id="svg1"
   width="252.07201"
   height="136.29066"
   viewBox="0 0 252.07201 136.29066"
   xmlns="http://www.w3.org/2000/svg"
   xmlns:svg="http://www.w3.org/2000/svg">
  <defs
     id="defs1" />
  <g
     id="g1">
    <path
       id="path1"
       d="M 9.72809,14.547 H 166.78601 V 40.0591 H 9.72809 Z"
       style="fill:#ffb3b3;fill-opacity:1;fill-rule:nonzero;stroke:#191919;stroke-width:0.74721;stroke-linecap:butt;stroke-linejoin:miter;stroke-miterlimit:10;stroke-dasharray:none;stroke-opacity:1"
       transform="matrix(1.2565467,0,0,-1.2565467,42.030229,142.94534)" />
    <path
       id="path2"
       d="M 1.6408618,-2.9704219 H 5.1972359 V -3.7040795 H 1.6408618 V -5.7931384 H 5.3340195 V -6.5392309 H 0.80772525 V 0.00151305 H 5.4956729 V -0.73214454 H 1.6408618 Z m 6.6526578,-1.7284476 h -0.783397 v -0.7336576 c 0,-0.3108718 0.1865231,-0.4725252 0.5222647,-0.4725252 0.062174,0 0.087044,0 0.2611323,0.012435 V -6.514361 C 8.1194314,-6.551666 8.0199524,-6.5641 7.8707339,-6.5641 c -0.6839181,0 -1.1067038,0.3979159 -1.1067038,1.0693992 v 0.7958319 H 6.1422864 V -4.08956 H 6.7640301 V 0.00151305 H 7.5101226 V -4.0895606 h 0.783397 z m 2.4434524,0 H 9.9535754 v -0.7336576 c 0,-0.3108718 0.1740886,-0.4725252 0.5222646,-0.4725252 0.06217,0 0.08704,0 0.261132,0.012435 V -6.514361 C 10.562884,-6.551666 10.463405,-6.5641 10.314187,-6.5641 c -0.6963532,0 -1.1067041,0.3979159 -1.1067041,1.0693992 v 0.7958319 H 8.5857392 V -4.08956 H 9.2074829 V 0.00151305 H 9.9535754 V -4.0895606 h 0.7833966 z m 1.641404,0 h -0.733658 v 4.70038255 h 0.733658 z m 0,-1.8403614 h -0.733658 v 0.9450505 h 0.733658 z m 4.806079,3.4195905 c -0.0373,-0.4600904 -0.136784,-0.7460925 -0.323307,-1.0072249 -0.323307,-0.4476554 -0.882876,-0.7087878 -1.541924,-0.7087878 -1.255923,0 -2.089059,1.0072248 -2.089059,2.574019 0,1.50461981 0.808267,2.47454002 2.089059,2.47454002 1.119138,0 1.827926,-0.67148322 1.91497,-1.82792652 h -0.758527 c -0.124349,0.75852732 -0.50983,1.13157355 -1.144008,1.13157355 -0.820702,0 -1.318097,-0.67148325 -1.318097,-1.77818705 0,-1.1813131 0.48496,-1.877666 1.305662,-1.877666 0.621743,0 1.019659,0.3606113 1.106704,1.0196597 z m 1.597881,-1.5792291 h -0.746092 v 4.70038255 h 0.746092 z m 0,-1.8403614 h -0.746092 v 0.9450505 h 0.746092 z m 5.247517,4.4392502 c 0,-0.7087879 -0.04974,-1.1440085 -0.186523,-1.492185 -0.310872,-0.7709622 -1.01966,-1.2434874 -1.902536,-1.2434874 -1.305661,0 -2.151233,1.0072248 -2.151233,2.5491493 0,1.54192439 0.808267,2.49940972 2.126364,2.49940972 1.081834,0 1.827926,-0.60930885 2.014449,-1.64140342 h -0.758527 c -0.198958,0.62174372 -0.621744,0.94505045 -1.218618,0.94505045 -0.48496,0 -0.882876,-0.21139286 -1.131573,-0.60930885 -0.186523,-0.2735672 -0.248698,-0.5346996 -0.248698,-1.0072248 z m -3.44446,-0.6093089 c 0.06217,-0.8704412 0.596874,-1.4300105 1.342966,-1.4300105 0.733658,0 1.305662,0.6093088 1.305662,1.380271 0,0.012435 0,0.037305 -0.01243,0.049739 z m 4.451685,-1.9895799 v 4.70038255 h 0.758527 V -2.5849408 c 0,-0.9699202 0.497395,-1.591664 1.268358,-1.591664 0.596874,0 0.96992,0.3606114 0.96992,0.9201808 v 3.25793705 h 0.746092 V -3.554861 c 0,-0.7709622 -0.584439,-1.2807921 -1.492185,-1.2807921 -0.696353,0 -1.144008,0.2735672 -1.554359,0.9326156 v -0.795832 z m 6.640223,0 h -0.770962 v -1.2932269 h -0.746093 v 1.2932269 h -0.634178 v 0.6093089 h 0.634178 v 3.55637405 c 0,0.47252523 0.323307,0.74609247 0.907746,0.74609247 0.186523,0 0.360612,-0.0248697 0.609309,-0.0621744 v -0.6341786 c -0.09948,0.0248697 -0.211393,0.0373046 -0.360611,0.0373046 -0.323307,0 -0.410351,-0.0870441 -0.410351,-0.42278573 V -4.0895606 h 0.770962 z m 7.644339,1.7284476 v 2.97193495 h 0.833137 V -6.5392309 H 39.32164 v 2.8351514 h -3.357416 v -2.8351514 h -0.833137 v 6.54074395 h 0.845572 V -2.9704219 Z m 6.338677,2.53671435 c -0.08704,0.0124349 -0.124348,0.0124349 -0.161653,0.0124349 -0.261132,0 -0.410351,-0.13678361 -0.410351,-0.36061135 v -2.772977 c 0,-0.8331366 -0.609309,-1.2807921 -1.765752,-1.2807921 -0.683918,0 -1.243488,0.198958 -1.554359,0.5471345 -0.211393,0.2486975 -0.310872,0.5098298 -0.323307,0.9823551 h 0.746092 c 0.06218,-0.5720043 0.410351,-0.8331366 1.106704,-0.8331366 0.671483,0 1.04453,0.2486975 1.04453,0.6963529 v 0.198958 c 0,0.3108719 -0.186524,0.4476555 -0.770963,0.5222648 -1.056964,0.1367836 -1.218617,0.1740882 -1.504619,0.2860021 -0.547135,0.2238277 -0.833137,0.6466134 -0.833137,1.2559223 0,0.84557145 0.596874,1.39270592 1.541924,1.39270592 0.596874,0 1.0694,-0.21139287 1.604099,-0.69635297 0.04974,0.47252523 0.286002,0.69635297 0.770962,0.69635297 0.149219,0 0.261133,-0.0248697 0.50983,-0.0870441 z M 44.342221,-1.478237 c 0,0.2486975 -0.06218,0.397916 -0.286003,0.60930885 -0.310871,0.27356723 -0.671483,0.42278573 -1.119138,0.42278573 -0.584439,0 -0.920181,-0.27356724 -0.920181,-0.75852738 0,-0.4849601 0.335742,-0.7336576 1.131574,-0.8580063 0.783397,-0.099479 0.94505,-0.1367836 1.193748,-0.2611324 z m 2.123254,-3.2206325 v 4.70038255 h 0.746093 V -2.4357223 c 0,-0.6714833 0.174088,-1.1191387 0.534699,-1.3678362 0.236263,-0.1740883 0.460091,-0.2238278 0.969921,-0.2362626 v -0.7585274 c -0.124349,-0.02487 -0.186523,-0.037305 -0.286002,-0.037305 -0.484961,0 -0.845572,0.2860021 -1.280793,0.99479 v -0.8580064 z m 6.804985,-1.8403614 h -0.746092 v 2.4372354 c -0.310872,-0.4725252 -0.820702,-0.7336576 -1.442445,-0.7336576 -1.218618,0 -2.01445,0.9823551 -2.01445,2.47454 0,1.59166394 0.770962,2.57401902 2.039319,2.57401902 0.646614,0 1.094269,-0.24869749 1.50462,-0.83313659 v 0.62174372 h 0.659048 z m -2.064189,2.4123656 c 0.808267,0 1.318097,0.7087879 1.318097,1.8279266 0,1.0942689 -0.522265,1.80305678 -1.305662,1.80305678 -0.833136,0 -1.380271,-0.72122268 -1.380271,-1.81549168 0,-1.0942689 0.547135,-1.8154917 1.367836,-1.8154917 z m 7.572839,4.12837835 1.380271,-4.70038255 h -0.833137 l -0.932615,3.6558531 -0.932616,-3.6558531 h -0.907746 l -0.895311,3.6558531 -0.957485,-3.6558531 h -0.833137 l 1.367837,4.70038255 h 0.845571 l 0.907746,-3.68072285 0.94505,3.68072285 z m 6.177024,-0.4352206 c -0.08704,0.0124349 -0.124349,0.0124349 -0.161654,0.0124349 -0.261132,0 -0.410351,-0.13678361 -0.410351,-0.36061135 v -2.772977 c 0,-0.8331366 -0.609308,-1.2807921 -1.765752,-1.2807921 -0.683918,0 -1.243487,0.198958 -1.554359,0.5471345 -0.211393,0.2486975 -0.310872,0.5098298 -0.323307,0.9823551 h 0.746093 c 0.06217,-0.5720043 0.410351,-0.8331366 1.106704,-0.8331366 0.671483,0 1.044529,0.2486975 1.044529,0.6963529 v 0.198958 c 0,0.3108719 -0.186523,0.4476555 -0.770962,0.5222648 -1.056965,0.1367836 -1.218618,0.1740882 -1.50462,0.2860021 -0.547135,0.2238277 -0.833137,0.6466134 -0.833137,1.2559223 0,0.84557145 0.596874,1.39270592 1.541925,1.39270592 0.596874,0 1.069399,-0.21139287 1.604099,-0.69635297 0.04974,0.47252523 0.286002,0.69635297 0.770962,0.69635297 0.149218,0 0.261132,-0.0248697 0.50983,-0.0870441 z M 63.638037,-1.478237 c 0,0.2486975 -0.06217,0.397916 -0.286002,0.60930885 -0.310872,0.27356723 -0.671483,0.42278573 -1.119139,0.42278573 -0.584439,0 -0.920181,-0.27356724 -0.920181,-0.75852738 0,-0.4849601 0.335742,-0.7336576 1.131574,-0.8580063 0.783397,-0.099479 0.94505,-0.1367836 1.193748,-0.2611324 z m 2.123255,-3.2206325 v 4.70038255 h 0.746092 V -2.4357223 c 0,-0.6714833 0.174088,-1.1191387 0.5347,-1.3678362 0.236262,-0.1740883 0.46009,-0.2238278 0.96992,-0.2362626 v -0.7585274 c -0.124349,-0.02487 -0.186523,-0.037305 -0.286002,-0.037305 -0.48496,0 -0.845572,0.2860021 -1.280792,0.99479 v -0.8580064 z m 6.966638,2.5988888 c 0,-0.7087879 -0.04974,-1.1440085 -0.186523,-1.492185 -0.310872,-0.7709622 -1.01966,-1.2434874 -1.902536,-1.2434874 -1.305662,0 -2.151233,1.0072248 -2.151233,2.5491493 0,1.54192439 0.808267,2.49940972 2.126364,2.49940972 1.081834,0 1.827926,-0.60930885 2.014449,-1.64140342 h -0.758527 c -0.198958,0.62174372 -0.621744,0.94505045 -1.218618,0.94505045 -0.48496,0 -0.882876,-0.21139286 -1.131573,-0.60930885 -0.186524,-0.2735672 -0.248698,-0.5346996 -0.248698,-1.0072248 z m -3.44446,-0.6093089 c 0.06217,-0.8704412 0.596874,-1.4300105 1.342966,-1.4300105 0.733658,0 1.305662,0.6093088 1.305662,1.380271 0,0.012435 0,0.037305 -0.01243,0.049739 z m 8.051581,-3.8299413 H 76.48948 v 6.54074395 h 0.845571 z m 1.374054,1.8403614 v 4.70038255 h 0.758527 V -2.9455522 c 0,-0.6839181 0.497395,-1.2310526 1.106704,-1.2310526 0.547134,0 0.870441,0.3357417 0.870441,0.9450505 V 0.00151305 H 82.19087 V -2.9455522 c 0,-0.6839181 0.497395,-1.2310526 1.106703,-1.2310526 0.547135,0 0.870442,0.3481765 0.870442,0.9450505 v 3.23306735 h 0.746092 V -3.5175564 c 0,-0.8455715 -0.48496,-1.3180967 -1.355401,-1.3180967 -0.634179,0 -1.007225,0.198958 -1.442446,0.7212227 -0.286002,-0.497395 -0.659048,-0.7212227 -1.268357,-0.7212227 -0.621744,0 -1.044529,0.2362626 -1.442445,0.8082668 v -0.6714832 z m 7.333467,6.6526578 h 0.746092 v -2.44967022 c 0.397916,0.4849601 0.845572,0.70878784 1.454881,0.70878784 1.206183,0 2.002014,-0.98235508 2.002014,-2.47454002 0,-1.579229 -0.770962,-2.574019 -2.014449,-2.574019 -0.634179,0 -1.144009,0.2860021 -1.50462,0.8455715 v -0.7087879 h -0.683918 z m 2.064189,-6.0806536 c 0.820702,0 1.355401,0.7212228 1.355401,1.8403615 0,1.0693992 -0.547134,1.79062188 -1.355401,1.79062188 -0.795832,0 -1.318097,-0.70878788 -1.318097,-1.81549168 0,-1.1067038 0.522265,-1.8154917 1.318097,-1.8154917 z m 3.805072,-2.4123656 h -0.758528 v 6.54074395 h 0.758528 z m 5.222647,4.4392502 c 0,-0.7087879 -0.04974,-1.1440085 -0.186523,-1.492185 -0.310872,-0.7709622 -1.01966,-1.2434874 -1.902536,-1.2434874 -1.305662,0 -2.151233,1.0072248 -2.151233,2.5491493 0,1.54192439 0.808267,2.49940972 2.126363,2.49940972 1.081834,0 1.827927,-0.60930885 2.01445,-1.64140342 h -0.758527 c -0.198958,0.62174372 -0.621744,0.94505045 -1.218618,0.94505045 -0.48496,0 -0.882876,-0.21139286 -1.131574,-0.60930885 -0.186523,-0.2735672 -0.248697,-0.5346996 -0.248697,-1.0072248 z m -3.44446,-0.6093089 c 0.06217,-0.8704412 0.596874,-1.4300105 1.342966,-1.4300105 0.733658,0 1.305662,0.6093088 1.305662,1.380271 0,0.012435 0,0.037305 -0.01244,0.049739 z m 4.448576,-1.9895799 v 4.70038255 h 0.758527 V -2.9455522 c 0,-0.6839181 0.497395,-1.2310526 1.106707,-1.2310526 0.54713,0 0.87044,0.3357417 0.87044,0.9450505 v 3.23306735 h 0.74609 V -2.9455522 c 0,-0.6839181 0.4974,-1.2310526 1.1067,-1.2310526 0.54714,0 0.87045,0.3481765 0.87045,0.9450505 v 3.23306735 h 0.74609 V -3.5175564 c 0,-0.8455715 -0.48496,-1.3180967 -1.3554,-1.3180967 -0.63418,0 -1.00723,0.198958 -1.44245,0.7212227 -0.286,-0.497395 -0.65905,-0.7212227 -1.26836,-0.7212227 -0.621739,0 -1.044525,0.2362626 -1.442441,0.8082668 v -0.6714832 z m 11.449414,2.5988888 c 0,-0.7087879 -0.0497,-1.1440085 -0.18653,-1.492185 -0.31087,-0.7709622 -1.01966,-1.2434874 -1.90253,-1.2434874 -1.30566,0 -2.15124,1.0072248 -2.15124,2.5491493 0,1.54192439 0.80827,2.49940972 2.12637,2.49940972 1.08183,0 1.82792,-0.60930885 2.01445,-1.64140342 H 108.73 c -0.19896,0.62174372 -0.62174,0.94505045 -1.21862,0.94505045 -0.48496,0 -0.88287,-0.21139286 -1.13157,-0.60930885 -0.18652,-0.2735672 -0.2487,-0.5346996 -0.2487,-1.0072248 z m -3.44446,-0.6093089 c 0.0622,-0.8704412 0.59687,-1.4300105 1.34296,-1.4300105 0.73366,0 1.30566,0.6093088 1.30566,1.380271 0,0.012435 0,0.037305 -0.0124,0.049739 z m 4.45168,-1.9895799 v 4.70038255 h 0.75853 V -2.5849408 c 0,-0.9699202 0.49739,-1.591664 1.26836,-1.591664 0.59687,0 0.96992,0.3606114 0.96992,0.9201808 v 3.25793705 h 0.74609 V -3.554861 c 0,-0.7709622 -0.58444,-1.2807921 -1.49219,-1.2807921 -0.69635,0 -1.144,0.2735672 -1.55436,0.9326156 v -0.795832 z m 6.63712,0 h -0.77097 v -1.2932269 h -0.74609 v 1.2932269 h -0.63418 v 0.6093089 h 0.63418 v 3.55637405 c 0,0.47252523 0.32331,0.74609247 0.90775,0.74609247 0.18652,0 0.36061,-0.0248697 0.60931,-0.0621744 v -0.6341786 c -0.0995,0.0248697 -0.2114,0.0373046 -0.36062,0.0373046 -0.3233,0 -0.41035,-0.0870441 -0.41035,-0.42278573 V -4.0895606 h 0.77097 z m 5.01747,4.26516195 c -0.0871,0.0124349 -0.12435,0.0124349 -0.16166,0.0124349 -0.26113,0 -0.41035,-0.13678361 -0.41035,-0.36061135 v -2.772977 c 0,-0.8331366 -0.60931,-1.2807921 -1.76575,-1.2807921 -0.68392,0 -1.24349,0.198958 -1.55436,0.5471345 -0.21139,0.2486975 -0.31087,0.5098298 -0.3233,0.9823551 h 0.74609 c 0.0622,-0.5720043 0.41035,-0.8331366 1.1067,-0.8331366 0.67148,0 1.04453,0.2486975 1.04453,0.6963529 v 0.198958 c 0,0.3108719 -0.18652,0.4476555 -0.77096,0.5222648 -1.05697,0.1367836 -1.21862,0.1740882 -1.50462,0.2860021 -0.54714,0.2238277 -0.83314,0.6466134 -0.83314,1.2559223 0,0.84557145 0.59688,1.39270592 1.54193,1.39270592 0.59687,0 1.0694,-0.21139287 1.6041,-0.69635297 0.0497,0.47252523 0.286,0.69635297 0.77096,0.69635297 0.14922,0 0.26113,-0.0248697 0.50983,-0.0870441 z m -1.3181,-1.04452945 c 0,0.2486975 -0.0622,0.397916 -0.286,0.60930885 -0.31087,0.27356723 -0.67148,0.42278573 -1.11914,0.42278573 -0.58444,0 -0.92018,-0.27356724 -0.92018,-0.75852738 0,-0.4849601 0.33574,-0.7336576 1.13157,-0.8580063 0.7834,-0.099479 0.94505,-0.1367836 1.19375,-0.2611324 z m 3.7802,-3.2206325 h -0.77096 v -1.2932269 h -0.74609 v 1.2932269 h -0.63418 v 0.6093089 h 0.63418 v 3.55637405 c 0,0.47252523 0.3233,0.74609247 0.90774,0.74609247 0.18653,0 0.36062,-0.0248697 0.60931,-0.0621744 v -0.6341786 c -0.0995,0.0248697 -0.21139,0.0373046 -0.36061,0.0373046 -0.32331,0 -0.41035,-0.0870441 -0.41035,-0.42278573 V -4.0895606 h 0.77096 z m 1.56058,0 h -0.74609 v 4.70038255 h 0.74609 z m 0,-1.8403614 h -0.74609 v 0.9450505 h 0.74609 z m 3.08385,1.7035778 c -1.3181,0 -2.11393,0.9450505 -2.11393,2.5242795 0,1.57922906 0.7834,2.52427952 2.12636,2.52427952 1.3181,0 2.12637,-0.94505046 2.12637,-2.48697492 0,-1.6289685 -0.7834,-2.5615841 -2.1388,-2.5615841 z m 0.0124,0.696353 c 0.84557,0 1.34297,0.6839181 1.34297,1.8527963 0,1.1067038 -0.52227,1.80305675 -1.34297,1.80305675 -0.83313,0 -1.34296,-0.68391805 -1.34296,-1.82792655 0,-1.1315736 0.50983,-1.8279265 1.34296,-1.8279265 z m 3.15846,-0.5595694 v 4.70038255 h 0.75853 V -2.5849408 c 0,-0.9699202 0.49739,-1.591664 1.26836,-1.591664 0.59687,0 0.96992,0.3606114 0.96992,0.9201808 v 3.25793705 h 0.74609 V -3.554861 c 0,-0.7709622 -0.58444,-1.2807921 -1.49219,-1.2807921 -0.69635,0 -1.144,0.2735672 -1.55436,0.9326156 v -0.795832 z m 0,0"
       style="fill:#000000;fill-opacity:1;fill-rule:nonzero;stroke:none"
       aria-label="EffcientHardwareImplementation"
       transform="matrix(1.2565467,0,0,1.2565467,66.918649,111.59576)" />
    <path
       id="path3"
       d="m 9.72809,46.47559 h 157.05792 v 25.5121 H 9.72809 Z"
       style="fill:#ffcccc;fill-opacity:1;fill-rule:nonzero;stroke:#191919;stroke-width:0.74721;stroke-linecap:butt;stroke-linejoin:miter;stroke-miterlimit:10;stroke-dasharray:none;stroke-opacity:1"
       transform="matrix(1.2565467,0,0,-1.2565467,42.030229,142.94534)" />
    <path
       id="path4"
       d="M 1.6423881,-2.9710707 H 5.1987622 V -3.7047283 H 1.6423881 V -5.7937872 H 5.3355458 V -6.5398797 H 0.80925153 V 8.6426821e-4 H 5.4971992 V -0.73279332 H 1.6423881 Z M 8.2919372,-4.6995183 H 7.5085401 v -0.7336576 c 0,-0.3108718 0.1865231,-0.4725252 0.5222648,-0.4725252 0.062174,0 0.087044,0 0.2611323,0.012435 v -0.6217437 c -0.1740882,-0.037305 -0.2735672,-0.04974 -0.4227857,-0.04974 -0.6839181,0 -1.1067038,0.397916 -1.1067038,1.0693992 v 0.7958319 H 6.1407039 v 0.6093089 H 6.7624477 V 8.6426821e-4 H 7.5085401 V -4.0902094 h 0.7833971 z m 2.4434528,0 H 9.9519929 v -0.7336576 c 0,-0.3108718 0.1740881,-0.4725252 0.5222651,-0.4725252 0.06217,0 0.08704,0 0.261132,0.012435 v -0.6217437 c -0.174088,-0.037305 -0.273567,-0.04974 -0.422786,-0.04974 -0.6963527,0 -1.1067035,0.397916 -1.1067035,1.0693992 v 0.7958319 H 8.5841568 v 0.6093089 H 9.2059005 V 8.6426821e-4 H 9.9519929 V -4.0902094 H 10.73539 Z m 1.641403,0 H 11.643136 V 8.6426821e-4 h 0.733657 z m 0,-1.8403614 h -0.733657 v 0.9450505 h 0.733657 z m 4.806079,3.4195905 c -0.0373,-0.4600904 -0.136783,-0.7460925 -0.323306,-1.0072248 -0.323307,-0.4476555 -0.882876,-0.7087879 -1.541925,-0.7087879 -1.255922,0 -2.089059,1.0072248 -2.089059,2.574019 0,1.50461983 0.808267,2.47454003 2.089059,2.47454003 1.119139,0 1.827927,-0.67148322 1.914971,-1.82792653 h -0.758527 c -0.124349,0.75852733 -0.50983,1.13157357 -1.144009,1.13157357 -0.820702,0 -1.318097,-0.67148327 -1.318097,-1.77818707 0,-1.181313 0.484961,-1.877666 1.305662,-1.877666 0.621744,0 1.01966,0.3606113 1.106704,1.0196597 z m 1.600991,-1.5792291 H 18.03777 V 8.6426821e-4 h 0.746093 z m 0,-1.8403614 H 18.03777 v 0.9450505 h 0.746093 z m 5.247517,4.4392502 c 0,-0.7087879 -0.04974,-1.1440085 -0.186524,-1.4921849 -0.310871,-0.7709623 -1.019659,-1.2434875 -1.902535,-1.2434875 -1.305662,0 -2.151234,1.0072248 -2.151234,2.5491493 0,1.5419244 0.808267,2.49940973 2.126364,2.49940973 1.081834,0 1.827926,-0.60930884 2.01445,-1.64140343 h -0.758528 c -0.198958,0.62174373 -0.621744,0.94505047 -1.218618,0.94505047 -0.48496,0 -0.882876,-0.21139287 -1.131573,-0.60930887 -0.186523,-0.2735672 -0.248698,-0.5346996 -0.248698,-1.0072248 z m -3.444461,-0.6093089 c 0.06217,-0.8704412 0.596874,-1.4300105 1.342967,-1.4300105 0.733657,0 1.305662,0.6093088 1.305662,1.380271 0,0.012435 0,0.037305 -0.01243,0.049739 z m 4.451685,-1.9895799 V 8.6426821e-4 h 0.758528 V -2.5855896 c 0,-0.9699202 0.497395,-1.5916639 1.268357,-1.5916639 0.596874,0 0.96992,0.3606113 0.96992,0.9201807 V 8.6426821e-4 h 0.746093 V -3.5555098 c 0,-0.7709622 -0.58444,-1.2807921 -1.492185,-1.2807921 -0.696353,0 -1.144009,0.2735673 -1.55436,0.9326156 v -0.795832 z m 6.637115,0 h -0.770963 v -1.2932269 h -0.746092 v 1.2932269 h -0.634179 v 0.6093089 h 0.634179 v 3.55637407 c 0,0.47252523 0.323307,0.74609246 0.907746,0.74609246 0.186523,0 0.360611,-0.0248697 0.609309,-0.0621744 v -0.63417859 c -0.09948,0.0248697 -0.211393,0.0373046 -0.360612,0.0373046 -0.323307,0 -0.410351,-0.0870441 -0.410351,-0.42278573 V -4.0902094 h 0.770963 z m 8.505454,-1.8403614 h -0.795832 v 5.346996 l -3.407156,-5.346996 H 35.070439 V 8.6426821e-4 h 0.783397 V -5.2963922 l 3.382286,5.29725646821 h 0.945051 z M 45.18621,8.6426821e-4 V -4.6995183 h -0.746093 v 2.6610632 c 0,0.9574853 -0.50983,1.59166389 -1.280792,1.59166389 -0.596874,0 -0.96992,-0.36061136 -0.96992,-0.92018069 v -3.3325464 h -0.746093 v 3.6185485 c 0,0.78339708 0.58444,1.29322693 1.492185,1.29322693 0.696353,0 1.131574,-0.24869749 1.566795,-0.87044121 V 8.6426821e-4 Z M 46.467002,-4.6995183 V 8.6426821e-4 h 0.758527 V -2.946201 c 0,-0.6839181 0.497395,-1.2310525 1.106704,-1.2310525 0.547134,0 0.870441,0.3357416 0.870441,0.9450504 V 8.6426821e-4 h 0.746093 V -2.946201 c 0,-0.6839181 0.497394,-1.2310525 1.106703,-1.2310525 0.547135,0 0.870442,0.3481764 0.870442,0.9450504 V 8.6426821e-4 h 0.746092 V -3.5182052 c 0,-0.8455715 -0.48496,-1.3180967 -1.355401,-1.3180967 -0.634179,0 -1.007225,0.198958 -1.442446,0.7212227 -0.286002,-0.4973949 -0.659048,-0.7212227 -1.268357,-0.7212227 -0.621744,0 -1.044529,0.2362626 -1.442445,0.8082669 v -0.6714833 z m 11.44941,2.5988888 c 0,-0.7087879 -0.04974,-1.1440085 -0.186523,-1.4921849 -0.310872,-0.7709623 -1.01966,-1.2434875 -1.902536,-1.2434875 -1.305661,0 -2.151233,1.0072248 -2.151233,2.5491493 0,1.5419244 0.808267,2.49940973 2.126364,2.49940973 1.081834,0 1.827926,-0.60930884 2.014449,-1.64140343 h -0.758527 c -0.198958,0.62174373 -0.621744,0.94505047 -1.218618,0.94505047 -0.48496,0 -0.882876,-0.21139287 -1.131573,-0.60930887 -0.186523,-0.2735672 -0.248698,-0.5346996 -0.248698,-1.0072248 z m -3.44446,-0.6093089 c 0.06217,-0.8704412 0.596874,-1.4300105 1.342967,-1.4300105 0.733657,0 1.305661,0.6093088 1.305661,1.380271 0,0.012435 0,0.037305 -0.01243,0.049739 z m 4.448576,-1.9895799 V 8.6426821e-4 h 0.746093 V -2.4363711 c 0,-0.6714832 0.174088,-1.1191387 0.534699,-1.3678362 0.236263,-0.1740882 0.460091,-0.2238277 0.969921,-0.2362626 v -0.7585274 c -0.124349,-0.02487 -0.186523,-0.037305 -0.286002,-0.037305 -0.484961,0 -0.845572,0.2860021 -1.280793,0.99479 v -0.8580064 z m 3.842377,0 H 62.016812 V 8.6426821e-4 h 0.746093 z m 0,-1.8403614 h -0.746093 v 0.9450505 h 0.746093 z m 4.87447,3.4195905 c -0.0373,-0.4600904 -0.136783,-0.7460925 -0.323306,-1.0072248 -0.323307,-0.4476555 -0.882876,-0.7087879 -1.541925,-0.7087879 -1.255922,0 -2.089059,1.0072248 -2.089059,2.574019 0,1.50461983 0.808267,2.47454003 2.089059,2.47454003 1.119139,0 1.827927,-0.67148322 1.914971,-1.82792653 h -0.758527 c -0.124349,0.75852733 -0.50983,1.13157357 -1.144009,1.13157357 -0.820702,0 -1.318097,-0.67148327 -1.318097,-1.77818707 0,-1.181313 0.48496,-1.877666 1.305662,-1.877666 0.621744,0 1.01966,0.3606113 1.106704,1.0196597 z m 4.184336,-0.2735672 c -0.01243,-0.9201808 -0.621744,-1.4424455 -1.703578,-1.4424455 -1.094269,0 -1.803057,0.5720042 -1.803057,1.4424455 0,0.7336575 0.373046,1.081834 1.492185,1.3554013 l 0.696353,0.1616533 c 0.522265,0.1243488 0.721223,0.3233068 0.721223,0.6590484 0,0.43522058 -0.435221,0.73365757 -1.094269,0.73365757 -0.397916,0 -0.746093,-0.11191387 -0.932616,-0.31087186 -0.111914,-0.13678362 -0.161653,-0.27356721 -0.211393,-0.59687401 h -0.783397 c 0.02487,1.08183411 0.634179,1.60409883 1.865231,1.60409883 1.181313,0 1.939841,-0.58443909 1.939841,-1.49218493 0,-0.696353 -0.397916,-1.0818341 -1.330532,-1.3056618 l -0.708788,-0.1740883 c -0.609309,-0.1492184 -0.870441,-0.3357416 -0.870441,-0.6714832 0,-0.4352206 0.385481,-0.7087878 0.99479,-0.7087878 0.596874,0 0.920181,0.2611323 0.932616,0.7460925 z m 4.703491,0.584439 h 2.151233 c 0.746093,0 1.081834,0.3481765 1.081834,1.1564434 l -0.01243,0.5844391 c 0,0.41035082 0.07461,0.79583193 0.186523,1.06939916821 h 1.01966 V -0.2105286 c -0.323307,-0.21139286 -0.385481,-0.44765548 -0.397916,-1.3180967 -0.01243,-1.0693992 -0.186523,-1.3927059 -0.895311,-1.7035778 0.746093,-0.3481765 1.032095,-0.8082668 1.032095,-1.5543593 0,-1.1315736 -0.708788,-1.7533173 -1.98958,-1.7533173 H 75.69207 V 8.6426821e-4 h 0.833137 z m 0,-0.7460924 v -2.2382774 h 2.01445 c 0.472525,0 0.733657,0.062174 0.94505,0.2486975 0.223828,0.1865231 0.335742,0.4849601 0.335742,0.8704412 0,0.7709622 -0.385482,1.1191387 -1.280792,1.1191387 z m 9.410091,1.4548803 c 0,-0.7087879 -0.04974,-1.1440085 -0.186523,-1.4921849 -0.310872,-0.7709623 -1.01966,-1.2434875 -1.902536,-1.2434875 -1.305662,0 -2.151233,1.0072248 -2.151233,2.5491493 0,1.5419244 0.808267,2.49940973 2.126363,2.49940973 1.081835,0 1.827927,-0.60930884 2.01445,-1.64140343 h -0.758527 c -0.198958,0.62174373 -0.621744,0.94505047 -1.218618,0.94505047 -0.48496,0 -0.882876,-0.21139287 -1.131574,-0.60930887 -0.186523,-0.2735672 -0.248697,-0.5346996 -0.248697,-1.0072248 z m -3.44446,-0.6093089 c 0.06217,-0.8704412 0.596874,-1.4300105 1.342966,-1.4300105 0.733658,0 1.305662,0.6093088 1.305662,1.380271 0,0.012435 0,0.037305 -0.01243,0.049739 z m 4.314901,4.663078 h 0.746093 v -2.44967031 c 0.397916,0.4849601 0.845571,0.70878784 1.45488,0.70878784 1.206183,0 2.002015,-0.98235508 2.002015,-2.47454003 0,-1.579229 -0.770962,-2.574019 -2.01445,-2.574019 -0.634178,0 -1.144008,0.2860021 -1.50462,0.8455715 v -0.7087879 h -0.683918 z m 2.064189,-6.0806536 c 0.820702,0 1.355402,0.7212227 1.355402,1.8403614 0,1.0693992 -0.547135,1.79062189 -1.355402,1.79062189 -0.795832,0 -1.318096,-0.70878789 -1.318096,-1.81549169 0,-1.1067038 0.522264,-1.8154916 1.318096,-1.8154916 z m 3.055871,-0.5720043 V 8.6426821e-4 h 0.746092 V -2.4363711 c 0,-0.6714832 0.174089,-1.1191387 0.5347,-1.3678362 0.236263,-0.1740882 0.46009,-0.2238277 0.96992,-0.2362626 v -0.7585274 c -0.124349,-0.02487 -0.186523,-0.037305 -0.286002,-0.037305 -0.48496,0 -0.845571,0.2860021 -1.280792,0.99479 v -0.8580064 z m 6.966638,2.5988888 c 0,-0.7087879 -0.04974,-1.1440085 -0.186523,-1.4921849 -0.310872,-0.7709623 -1.01966,-1.2434875 -1.902536,-1.2434875 -1.305661,0 -2.151233,1.0072248 -2.151233,2.5491493 0,1.5419244 0.808267,2.49940973 2.126364,2.49940973 1.081834,0 1.827926,-0.60930884 2.014449,-1.64140343 h -0.758527 c -0.198958,0.62174373 -0.621744,0.94505047 -1.218618,0.94505047 -0.48496,0 -0.882876,-0.21139287 -1.131573,-0.60930887 -0.186523,-0.2735672 -0.248698,-0.5346996 -0.248698,-1.0072248 z m -3.44446,-0.6093089 c 0.06217,-0.8704412 0.596874,-1.4300105 1.342966,-1.4300105 0.733658,0 1.305662,0.6093088 1.305662,1.380271 0,0.012435 0,0.037305 -0.01243,0.049739 z m 7.756248,-0.683918 c -0.0124,-0.9201808 -0.62174,-1.4424455 -1.70357,-1.4424455 -1.09427,0 -1.80306,0.5720042 -1.80306,1.4424455 0,0.7336575 0.37305,1.081834 1.49219,1.3554013 l 0.69635,0.1616533 c 0.52226,0.1243488 0.72122,0.3233068 0.72122,0.6590484 0,0.43522058 -0.43522,0.73365757 -1.09427,0.73365757 -0.39791,0 -0.74609,-0.11191387 -0.93261,-0.31087186 -0.11192,-0.13678362 -0.16166,-0.27356721 -0.2114,-0.59687401 h -0.783394 c 0.02487,1.08183411 0.634184,1.60409883 1.865234,1.60409883 1.18131,0 1.93984,-0.58443909 1.93984,-1.49218493 0,-0.696353 -0.39792,-1.0818341 -1.33053,-1.3056618 l -0.70879,-0.1740883 c -0.60931,-0.1492184 -0.87044,-0.3357416 -0.87044,-0.6714832 0,-0.4352206 0.38548,-0.7087878 0.99479,-0.7087878 0.59687,0 0.92018,0.2611323 0.93261,0.7460925 z m 5.15426,1.2932269 c 0,-0.7087879 -0.0497,-1.1440085 -0.18652,-1.4921849 -0.31087,-0.7709623 -1.01966,-1.2434875 -1.90254,-1.2434875 -1.30566,0 -2.15123,1.0072248 -2.15123,2.5491493 0,1.5419244 0.80827,2.49940973 2.12636,2.49940973 1.08184,0 1.82793,-0.60930884 2.01445,-1.64140343 h -0.75853 c -0.19895,0.62174373 -0.62174,0.94505047 -1.21861,0.94505047 -0.48496,0 -0.88288,-0.21139287 -1.13158,-0.60930887 -0.18652,-0.2735672 -0.24869,-0.5346996 -0.24869,-1.0072248 z m -3.44446,-0.6093089 c 0.0622,-0.8704412 0.59687,-1.4300105 1.34297,-1.4300105 0.73365,0 1.30566,0.6093088 1.30566,1.380271 0,0.012435 0,0.037305 -0.0124,0.049739 z m 4.45169,-1.9895799 V 8.6426821e-4 h 0.75852 V -2.5855896 c 0,-0.9699202 0.4974,-1.5916639 1.26836,-1.5916639 0.59687,0 0.96992,0.3606113 0.96992,0.9201807 V 8.6426821e-4 h 0.74609 V -3.5555098 c 0,-0.7709622 -0.58444,-1.2807921 -1.49218,-1.2807921 -0.69636,0 -1.14401,0.2735673 -1.55436,0.9326156 v -0.795832 z m 6.64022,0 h -0.77096 v -1.2932269 h -0.7461 v 1.2932269 h -0.63418 v 0.6093089 h 0.63418 v 3.55637407 c 0,0.47252523 0.32331,0.74609246 0.90775,0.74609246 0.18652,0 0.36061,-0.0248697 0.60931,-0.0621744 v -0.63417859 c -0.0995,0.0248697 -0.21139,0.0373046 -0.36061,0.0373046 -0.32331,0 -0.41035,-0.0870441 -0.41035,-0.42278573 V -4.0902094 h 0.77096 z m 5.01747,4.26516196 c -0.087,0.0124349 -0.12435,0.0124349 -0.16165,0.0124349 -0.26114,0 -0.41035,-0.13678362 -0.41035,-0.36061136 v -2.772977 c 0,-0.8331366 -0.60931,-1.2807921 -1.76576,-1.2807921 -0.68391,0 -1.24348,0.198958 -1.55436,0.5471345 -0.21139,0.2486975 -0.31087,0.5098298 -0.3233,0.9823551 h 0.74609 c 0.0622,-0.5720043 0.41035,-0.8331366 1.1067,-0.8331366 0.67149,0 1.04453,0.2486975 1.04453,0.696353 v 0.1989579 c 0,0.3108719 -0.18652,0.4476555 -0.77096,0.5222648 -1.05696,0.1367836 -1.21862,0.1740882 -1.50462,0.2860021 -0.54713,0.2238277 -0.83314,0.6466135 -0.83314,1.2559223 0,0.84557146 0.59688,1.39270593 1.54193,1.39270593 0.59687,0 1.0694,-0.21139286179 1.6041,-0.69635296 0.0497,0.47252522 0.286,0.69635296 0.77096,0.69635296 0.14922,0 0.26113,-0.0248697 0.50983,-0.0870441 z m -1.3181,-1.04452946 c 0,0.2486975 -0.0622,0.397916 -0.286,0.60930886 -0.31087,0.27356724 -0.67148,0.42278573 -1.11914,0.42278573 -0.58444,0 -0.92018,-0.27356724 -0.92018,-0.75852739 0,-0.4849601 0.33574,-0.7336575 1.13158,-0.8580063 0.78339,-0.099479 0.94505,-0.1367836 1.19374,-0.2611323 z m 3.7771,-3.2206325 h -0.77097 v -1.2932269 h -0.74609 v 1.2932269 h -0.63418 v 0.6093089 h 0.63418 v 3.55637407 c 0,0.47252523 0.32331,0.74609246 0.90775,0.74609246 0.18652,0 0.36061,-0.0248697 0.60931,-0.0621744 v -0.63417859 c -0.0995,0.0248697 -0.2114,0.0373046 -0.36061,0.0373046 -0.32331,0 -0.41036,-0.0870441 -0.41036,-0.42278573 V -4.0902094 h 0.77097 z m 1.56057,0 h -0.74609 V 8.6426821e-4 h 0.74609 z m 0,-1.8403614 h -0.74609 v 0.9450505 h 0.74609 z m 3.08385,1.7035778 c -1.31809,0 -2.11393,0.9450505 -2.11393,2.5242795 0,1.57922908 0.7834,2.52427953 2.12637,2.52427953 1.31809,0 2.12636,-0.94505045 2.12636,-2.48697493 0,-1.6289685 -0.7834,-2.5615841 -2.1388,-2.5615841 z m 0.0124,0.696353 c 0.84557,0 1.34296,0.6839181 1.34296,1.8527963 0,1.1067038 -0.52226,1.80305677 -1.34296,1.80305677 -0.83314,0 -1.34297,-0.68391807 -1.34297,-1.82792657 0,-1.1315735 0.50983,-1.8279265 1.34297,-1.8279265 z m 3.15845,-0.5595694 V 8.6426821e-4 h 0.75853 V -2.5855896 c 0,-0.9699202 0.4974,-1.5916639 1.26836,-1.5916639 0.59687,0 0.96992,0.3606113 0.96992,0.9201807 V 8.6426821e-4 h 0.74609 V -3.5555098 c 0,-0.7709622 -0.58444,-1.2807921 -1.49218,-1.2807921 -0.69636,0 -1.14401,0.2735673 -1.55436,0.9326156 v -0.795832 z m 0,0"
       style="fill:#000000;fill-opacity:1;fill-rule:nonzero;stroke:none"
       aria-label="EffcientNumericsRepresentation"
       transform="matrix(1.2565467,0,0,1.2565467,67.690169,71.475477)" />
    <path
       id="path5"
       d="m 9.72809,78.40417 h 157.05792 v 25.5121 H 9.72809 Z"
       style="fill:#ffe6e6;fill-opacity:1;fill-rule:nonzero;stroke:#191919;stroke-width:0.74721;stroke-linecap:butt;stroke-linejoin:miter;stroke-miterlimit:10;stroke-dasharray:none;stroke-opacity:1"
       transform="matrix(1.2565467,0,0,-1.2565467,42.030229,142.94534)" />
    <path
       id="path6"
       d="M 1.6407208,-2.9727195 H 5.1970949 V -3.7063771 H 1.6407208 V -5.795436 H 5.3338785 V -6.5415285 H 0.80758425 V -7.8451788e-4 H 5.4955319 V -0.73444211 H 1.6407208 Z M 8.2933786,-4.701167 h -0.783397 v -0.7336576 c 0,-0.3108719 0.1865231,-0.4725253 0.5222647,-0.4725253 0.062174,0 0.087044,0 0.2611323,0.012435 v -0.6217437 c -0.1740882,-0.037305 -0.2735672,-0.04974 -0.4227857,-0.04974 -0.6839181,0 -1.1067038,0.397916 -1.1067038,1.0693992 v 0.795832 H 6.1421454 v 0.6093088 H 6.7638891 V -7.8451788e-4 H 7.5099816 V -4.0918582 h 0.783397 z m 2.4434524,0 H 9.9534344 v -0.7336576 c 0,-0.3108719 0.1740886,-0.4725253 0.5222646,-0.4725253 0.06217,0 0.08704,0 0.261132,0.012435 v -0.6217437 c -0.174088,-0.037305 -0.273567,-0.04974 -0.422785,-0.04974 -0.6963532,0 -1.1067041,0.397916 -1.1067041,1.0693992 v 0.795832 H 8.5855982 v 0.6093088 H 9.2073419 V -7.8451788e-4 H 9.9534344 V -4.0918582 h 0.7833966 z m 1.641404,0 h -0.733658 v 4.70038248212 h 0.733658 z m 0,-1.8403615 h -0.733658 v 0.9450505 h 0.733658 z m 4.806079,3.4195905 c -0.0373,-0.4600904 -0.136784,-0.7460925 -0.323307,-1.0072248 -0.323307,-0.4476555 -0.882876,-0.7087879 -1.541924,-0.7087879 -1.255923,0 -2.089059,1.0072249 -2.089059,2.574019 0,1.50461984 0.808267,2.47454005 2.089059,2.47454005 1.119138,0 1.827926,-0.67148322 1.91497,-1.82792655 h -0.758527 c -0.124349,0.75852735 -0.50983,1.13157358 -1.144008,1.13157358 -0.820702,0 -1.318097,-0.67148318 -1.318097,-1.77818708 0,-1.181313 0.48496,-1.877666 1.305662,-1.877666 0.621743,0 1.019659,0.3606114 1.106704,1.0196597 z m 1.597881,-1.579229 h -0.746092 v 4.70038248212 h 0.746092 z m 0,-1.8403615 h -0.746092 v 0.9450505 h 0.746092 z m 5.247517,4.4392502 c 0,-0.7087878 -0.04974,-1.1440084 -0.186523,-1.4921849 -0.310872,-0.7709622 -1.01966,-1.2434875 -1.902536,-1.2434875 -1.305661,0 -2.151233,1.0072249 -2.151233,2.5491493 0,1.54192442 0.808267,2.49940975 2.126364,2.49940975 1.081834,0 1.827926,-0.60930885 2.014449,-1.64140345 h -0.758527 c -0.198958,0.62174374 -0.621744,0.94505048 -1.218618,0.94505048 -0.48496,0 -0.882876,-0.21139287 -1.131573,-0.60930888 -0.186523,-0.2735672 -0.248698,-0.5346996 -0.248698,-1.0072248 z m -3.44446,-0.6093088 c 0.06217,-0.8704413 0.596874,-1.4300106 1.342966,-1.4300106 0.733658,0 1.305662,0.6093088 1.305662,1.3802711 0,0.012435 0,0.037305 -0.01243,0.049739 z m 4.451685,-1.9895799 v 4.70038248212 h 0.758527 V -2.5872384 c 0,-0.9699202 0.497395,-1.5916639 1.268358,-1.5916639 0.596874,0 0.96992,0.3606113 0.96992,0.9201807 v 3.25793708212 h 0.746092 V -3.5571586 c 0,-0.7709622 -0.584439,-1.2807921 -1.492185,-1.2807921 -0.696353,0 -1.144008,0.2735673 -1.554359,0.9326156 V -4.701167 Z m 6.640223,0 h -0.770962 v -1.293227 h -0.746093 v 1.293227 h -0.634178 v 0.6093088 h 0.634178 v 3.55637408 c 0,0.47252523 0.323307,0.74609247 0.907746,0.74609247 0.186523,0 0.360612,-0.0248697 0.609309,-0.0621744 v -0.6341786 c -0.09948,0.0248698 -0.211393,0.0373046 -0.360611,0.0373046 -0.323307,0 -0.410351,-0.0870441 -0.410351,-0.42278573 V -4.0918582 H 31.67716 Z M 38.569189,-7.8451788e-4 40.409551,-5.4845641 v 5.48377958212 h 0.795832 V -6.5415285 h -1.156444 l -1.902536,5.69517252 -1.93984,-5.69517252 H 35.05012 v 6.54074398212 h 0.795832 V -5.4845641 l 1.852796,5.48377958212 z M 44.283014,-4.8379507 c -1.318097,0 -2.113929,0.9450505 -2.113929,2.5242795 0,1.57922909 0.783397,2.52427955 2.126364,2.52427955 1.318096,0 2.126363,-0.94505046 2.126363,-2.48697485 0,-1.6289686 -0.783397,-2.5615842 -2.138798,-2.5615842 z m 0.01243,0.696353 c 0.845571,0 1.342966,0.6839181 1.342966,1.8527963 0,1.1067038 -0.522264,1.80305678 -1.342966,1.80305678 -0.833137,0 -1.342967,-0.68391808 -1.342967,-1.82792658 0,-1.1315735 0.50983,-1.8279265 1.342967,-1.8279265 z m 6.975964,-2.3999308 h -0.746092 v 2.4372354 c -0.310872,-0.4725252 -0.820702,-0.7336576 -1.442446,-0.7336576 -1.218617,0 -2.014449,0.9823551 -2.014449,2.47454 0,1.59166397 0.770962,2.57401905 2.039319,2.57401905 0.646614,0 1.094269,-0.24869749 1.50462,-0.83313659 v 0.62174372212 h 0.659048 z m -2.064189,2.4123657 c 0.808267,0 1.318097,0.7087878 1.318097,1.8279265 0,1.094269 -0.522265,1.80305681 -1.305662,1.80305681 -0.833137,0 -1.380271,-0.72122271 -1.380271,-1.81549171 0,-1.0942689 0.547134,-1.8154916 1.367836,-1.8154916 z m 7.209119,2.0268845 c 0,-0.7087878 -0.04974,-1.1440084 -0.186523,-1.4921849 -0.310872,-0.7709622 -1.01966,-1.2434875 -1.902536,-1.2434875 -1.305662,0 -2.151234,1.0072249 -2.151234,2.5491493 0,1.54192442 0.808267,2.49940975 2.126364,2.49940975 1.081834,0 1.827927,-0.60930885 2.01445,-1.64140345 h -0.758528 c -0.198958,0.62174374 -0.621743,0.94505048 -1.218617,0.94505048 -0.48496,0 -0.882876,-0.21139287 -1.131574,-0.60930888 -0.186523,-0.2735672 -0.248697,-0.5346996 -0.248697,-1.0072248 z m -3.444461,-0.6093088 c 0.06217,-0.8704413 0.596874,-1.4300106 1.342967,-1.4300106 0.733657,0 1.305662,0.6093088 1.305662,1.3802711 0,0.012435 0,0.037305 -0.01244,0.049739 z m 5.197778,-3.8299414 h -0.758527 v 6.54074398212 h 0.758527 z m 4.781209,3.7304624 h 2.151233 c 0.746093,0 1.081834,0.3481764 1.081834,1.1564433 l -0.01243,0.5844391 c 0,0.41035084 0.07461,0.79583194 0.186523,1.06939918212 h 1.019659 V -0.21217738 c -0.323306,-0.21139287 -0.385481,-0.44765548 -0.397916,-1.31809672 -0.01243,-1.0693992 -0.186523,-1.3927059 -0.89531,-1.7035778 0.746092,-0.3481765 1.032094,-0.8082668 1.032094,-1.5543593 0,-1.1315735 -0.708788,-1.7533173 -1.98958,-1.7533173 h -3.009239 v 6.54074398212 h 0.833136 z m 0,-0.7460925 V -5.795436 h 2.01445 c 0.472525,0 0.733657,0.062174 0.94505,0.2486975 0.223828,0.1865231 0.335742,0.4849601 0.335742,0.8704412 0,0.7709622 -0.385481,1.1191387 -1.280792,1.1191387 z m 9.410091,1.4548803 c 0,-0.7087878 -0.04974,-1.1440084 -0.186523,-1.4921849 -0.310872,-0.7709622 -1.019659,-1.2434875 -1.902536,-1.2434875 -1.305661,0 -2.151233,1.0072249 -2.151233,2.5491493 0,1.54192442 0.808267,2.49940975 2.126364,2.49940975 1.081834,0 1.827926,-0.60930885 2.014449,-1.64140345 h -0.758527 c -0.198958,0.62174374 -0.621744,0.94505048 -1.218618,0.94505048 -0.48496,0 -0.882876,-0.21139287 -1.131573,-0.60930888 C 68.966235,-1.3686207 68.90406,-1.6297531 68.90406,-2.1022783 Z M 68.9165,-2.7115871 c 0.06217,-0.8704413 0.596874,-1.4300106 1.342967,-1.4300106 0.733657,0 1.305661,0.6093088 1.305661,1.3802711 0,0.012435 0,0.037305 -0.01243,0.049739 z m 4.311793,4.6630779 h 0.746092 v -2.44967029 c 0.397916,0.4849601 0.845572,0.70878784 1.454881,0.70878784 1.206182,0 2.002014,-0.98235508 2.002014,-2.47454005 0,-1.579229 -0.770962,-2.574019 -2.014449,-2.574019 -0.634179,0 -1.144009,0.2860021 -1.50462,0.8455715 V -4.701167 h -0.683918 z m 2.064189,-6.0806536 c 0.820702,0 1.355401,0.7212227 1.355401,1.8403614 0,1.0693992 -0.547134,1.79062191 -1.355401,1.79062191 -0.795832,0 -1.318097,-0.70878781 -1.318097,-1.81549171 0,-1.1067038 0.522265,-1.8154916 1.318097,-1.8154916 z m 3.058979,-0.5720042 v 4.70038248212 h 0.746093 V -2.4380199 c 0,-0.6714832 0.174088,-1.1191387 0.534699,-1.3678362 0.236263,-0.1740882 0.460091,-0.2238277 0.96992,-0.2362626 V -4.800646 c -0.124348,-0.02487 -0.186523,-0.037305 -0.286002,-0.037305 -0.48496,0 -0.845571,0.2860021 -1.280792,0.99479 v -0.858006 z m 6.96353,2.5988887 c 0,-0.7087878 -0.04974,-1.1440084 -0.186523,-1.4921849 -0.310872,-0.7709622 -1.01966,-1.2434875 -1.902536,-1.2434875 -1.305662,0 -2.151233,1.0072249 -2.151233,2.5491493 0,1.54192442 0.808266,2.49940975 2.126363,2.49940975 1.081834,0 1.827927,-0.60930885 2.01445,-1.64140345 h -0.758528 c -0.198958,0.62174374 -0.621743,0.94505048 -1.218617,0.94505048 -0.48496,0 -0.882876,-0.21139287 -1.131574,-0.60930888 -0.186523,-0.2735672 -0.248697,-0.5346996 -0.248697,-1.0072248 z m -3.44446,-0.6093088 c 0.06217,-0.8704413 0.596874,-1.4300106 1.342966,-1.4300106 0.733658,0 1.305662,0.6093088 1.305662,1.3802711 0,0.012435 0,0.037305 -0.01243,0.049739 z m 7.759361,-0.6839181 c -0.01243,-0.9201807 -0.621744,-1.4424455 -1.703578,-1.4424455 -1.094269,0 -1.803056,0.5720043 -1.803056,1.4424455 0,0.7336576 0.373046,1.081834 1.492185,1.3554013 l 0.696353,0.1616533 c 0.522264,0.1243488 0.721222,0.3233068 0.721222,0.6590484 0,0.43522059 -0.43522,0.73365758 -1.094269,0.73365758 -0.397916,0 -0.746092,-0.11191387 -0.932615,-0.31087186 C 86.89422,-0.9334001 86.84448,-1.0701837 86.794741,-1.3934905 h -0.783397 c 0.02487,1.08183412 0.634178,1.60409885 1.865231,1.60409885 1.181313,0 1.93984,-0.5844391 1.93984,-1.49218495 0,-0.696353 -0.397916,-1.0818341 -1.330531,-1.3056618 l -0.708788,-0.1740882 c -0.609309,-0.1492185 -0.870441,-0.3357416 -0.870441,-0.6714833 0,-0.4352206 0.385481,-0.7087878 0.99479,-0.7087878 0.596874,0 0.92018,0.2611324 0.932615,0.7460925 z m 5.154256,1.2932269 c 0,-0.7087878 -0.04974,-1.1440084 -0.186523,-1.4921849 -0.310872,-0.7709622 -1.01966,-1.2434875 -1.902536,-1.2434875 -1.305662,0 -2.151234,1.0072249 -2.151234,2.5491493 0,1.54192442 0.808267,2.49940975 2.126364,2.49940975 1.081834,0 1.827927,-0.60930885 2.01445,-1.64140345 h -0.758528 c -0.198958,0.62174374 -0.621743,0.94505048 -1.218617,0.94505048 -0.48496,0 -0.882876,-0.21139287 -1.131574,-0.60930888 -0.186523,-0.2735672 -0.248697,-0.5346996 -0.248697,-1.0072248 z m -3.444461,-0.6093088 c 0.06217,-0.8704413 0.596874,-1.4300106 1.342967,-1.4300106 0.733657,0 1.305662,0.6093088 1.305662,1.3802711 0,0.012435 0,0.037305 -0.01243,0.049739 z M 95.791372,-4.701167 V -7.8451788e-4 H 96.5499 V -2.5872384 c 0,-0.9699202 0.497395,-1.5916639 1.268357,-1.5916639 0.596874,0 0.96992,0.3606113 0.96992,0.9201807 V -7.8451788e-4 H 99.53427 V -3.5571586 c 0,-0.7709622 -0.584439,-1.2807921 -1.492185,-1.2807921 -0.696353,0 -1.144009,0.2735673 -1.55436,0.9326156 V -4.701167 Z m 6.640228,0 h -0.77097 v -1.293227 h -0.74609 v 1.293227 h -0.63418 v 0.6093088 h 0.63418 v 3.55637408 c 0,0.47252523 0.32331,0.74609247 0.90775,0.74609247 0.18652,0 0.36061,-0.0248697 0.60931,-0.0621744 v -0.6341786 c -0.0995,0.0248698 -0.2114,0.0373046 -0.36062,0.0373046 -0.3233,0 -0.41035,-0.0870441 -0.41035,-0.42278573 V -4.0918582 h 0.77097 z m 5.01436,4.26516188 c -0.0871,0.0124349 -0.12435,0.0124349 -0.16165,0.0124349 -0.26114,0 -0.41036,-0.13678362 -0.41036,-0.36061136 V -3.5571586 c 0,-0.8331366 -0.6093,-1.2807921 -1.76575,-1.2807921 -0.68392,0 -1.24349,0.198958 -1.55436,0.5471345 -0.21139,0.2486975 -0.31087,0.5098299 -0.3233,0.9823551 h 0.74609 c 0.0622,-0.5720042 0.41035,-0.8331366 1.1067,-0.8331366 0.67149,0 1.04453,0.2486975 1.04453,0.696353 v 0.198958 c 0,0.3108718 -0.18652,0.4476554 -0.77096,0.5222647 -1.05696,0.1367836 -1.21862,0.1740882 -1.50462,0.2860021 -0.54713,0.2238277 -0.83314,0.6466135 -0.83314,1.2559223 0,0.84557147 0.59688,1.39270595 1.54193,1.39270595 0.59687,0 1.0694,-0.21139286788 1.6041,-0.69635297 0.0497,0.47252523 0.286,0.69635297 0.77096,0.69635297 0.14922,0 0.26113,-0.0248697 0.50983,-0.0870441 z m -1.3181,-1.04452948 c 0,0.2486975 -0.0622,0.397916 -0.286,0.60930887 -0.31087,0.27356724 -0.67148,0.42278573 -1.11914,0.42278573 -0.58444,0 -0.92018,-0.27356723 -0.92018,-0.7585273 0,-0.4849601 0.33574,-0.7336576 1.13157,-0.8580064 0.7834,-0.099479 0.94505,-0.1367836 1.19375,-0.2611323 z m 3.7802,-3.2206324 h -0.77096 v -1.293227 h -0.74609 v 1.293227 h -0.63418 v 0.6093088 h 0.63418 v 3.55637408 c 0,0.47252523 0.32331,0.74609247 0.90774,0.74609247 0.18653,0 0.36062,-0.0248697 0.60931,-0.0621744 v -0.6341786 c -0.0995,0.0248698 -0.21139,0.0373046 -0.36061,0.0373046 -0.3233,0 -0.41035,-0.0870441 -0.41035,-0.42278573 V -4.0918582 h 0.77096 z m 1.56058,0 h -0.74609 v 4.70038248212 h 0.74609 z m 0,-1.8403615 h -0.74609 v 0.9450505 h 0.74609 z m 3.08385,1.7035778 c -1.3181,0 -2.11393,0.9450505 -2.11393,2.5242795 0,1.57922909 0.7834,2.52427955 2.12636,2.52427955 1.3181,0 2.12637,-0.94505046 2.12637,-2.48697485 0,-1.6289686 -0.7834,-2.5615842 -2.1388,-2.5615842 z m 0.0124,0.696353 c 0.84558,0 1.34297,0.6839181 1.34297,1.8527963 0,1.1067038 -0.52226,1.80305678 -1.34297,1.80305678 -0.83313,0 -1.34296,-0.68391808 -1.34296,-1.82792658 0,-1.1315735 0.50983,-1.8279265 1.34296,-1.8279265 z m 3.15846,-0.5595693 v 4.70038248212 h 0.75853 V -2.5872384 c 0,-0.9699202 0.49739,-1.5916639 1.26836,-1.5916639 0.59687,0 0.96992,0.3606113 0.96992,0.9201807 v 3.25793708212 h 0.74609 V -3.5571586 c 0,-0.7709622 -0.58444,-1.2807921 -1.49219,-1.2807921 -0.69635,0 -1.144,0.2735673 -1.55435,0.9326156 V -4.701167 Z m 0,0"
       style="fill:#000000;fill-opacity:1;fill-rule:nonzero;stroke:none"
       aria-label="EffcientModelRepresentation"
       transform="matrix(1.2565467,0,0,1.2565467,76.219608,31.356455)" />
    <path
       id="path7"
       d="m 0,10.19725 v 98.662"
       style="fill:none;stroke:#000000;stroke-width:0.74721;stroke-linecap:butt;stroke-linejoin:miter;stroke-miterlimit:10;stroke-dasharray:none;stroke-opacity:1"
       transform="matrix(1.2565467,0,0,-1.2565467,42.030229,142.94534)" />
    <path
       id="path8"
       d="M 4.52798,0 C 3.18633,0.25154 1.00621,1.00621 -0.5031,1.88664 V -1.88664 C 1.00621,-1.00621 3.18633,-0.25154 4.52798,0"
       style="fill:#000000;fill-opacity:1;fill-rule:nonzero;stroke:none"
       transform="matrix(0,1.2565467,1.2565467,0,42.030229,130.13202)" />
    <path
       id="path9"
       d="M 4.52798,0 C 3.18633,0.25154 1.00621,1.00621 -0.5031,1.88664 V -1.88664 C 1.00621,-1.00621 3.18633,-0.25154 4.52798,0"
       style="fill:#000000;fill-opacity:1;fill-rule:nonzero;stroke:none"
       transform="matrix(0,-1.2565467,-1.2565467,0,42.030229,6.1586101)" />
    <path
       id="path10"
       d="M 3.7318996,7.4311075e-4 5.3608682,-4.8737277 V 7.4311075e-4 H 6.069656 V -5.8063432 H 5.0375615 L 3.3464185,-0.74534935 1.6304059,-5.8063432 H 0.59831129 V 7.4311075e-4 H 1.2946643 V -4.8737277 L 2.9485026,7.4311075e-4 Z M 8.8022197,-4.3017234 c -1.1688782,0 -1.877666,0.8455714 -1.877666,2.2507122 0,1.39270597 0.6963529,2.23827743 1.8901009,2.23827743 1.1688782,0 1.8901004,-0.84557146 1.8901004,-2.21340763 0,-1.4424455 -0.696352,-2.275582 -1.9025353,-2.275582 z m 0.012435,0.6217437 c 0.7460924,0 1.1937483,0.6093088 1.1937483,1.6538383 0,0.9699202 -0.4600907,1.59166391 -1.1937483,1.59166391 -0.7460925,0 -1.193748,-0.60930881 -1.193748,-1.61653371 0,-1.0072248 0.4476555,-1.6289685 1.193748,-1.6289685 z m 2.8040643,-0.497395 V 7.4311075e-4 h 0.671483 V -2.162925 c 0,-0.596874 0.149218,-0.99479 0.472525,-1.2186177 0.211393,-0.1616534 0.410351,-0.198958 0.870441,-0.2113929 v -0.6839181 c -0.111913,-0.012435 -0.174088,-0.02487 -0.261132,-0.02487 -0.422786,0 -0.758527,0.2611323 -1.131574,0.882876 V -4.177375 Z m 6.195676,2.3128866 c 0,-0.6341785 -0.04974,-1.0196597 -0.174088,-1.3305315 -0.261133,-0.6839181 -0.907746,-1.1067038 -1.691143,-1.1067038 -1.156444,0 -1.902536,0.8953109 -1.902536,2.275582 0,1.36783617 0.721223,2.21340763 1.890101,2.21340763 0.957485,0 1.616534,-0.54713448 1.790622,-1.45488033 h -0.671483 c -0.186524,0.54713449 -0.55957,0.83313661 -1.094269,0.83313661 -0.422786,0 -0.783397,-0.18652312 -1.007225,-0.5346996 C 14.805155,-1.2054397 14.742981,-1.4541372 14.730546,-1.8644881 Z m -3.058979,-0.5471344 c 0.04974,-0.7709622 0.522265,-1.2683572 1.193748,-1.2683572 0.646613,0 1.156443,0.5346996 1.156443,1.2310526 0,0.012435 0,0.02487 -0.01243,0.037305 z m 0,0"
       style="fill:#000000;fill-opacity:1;fill-rule:nonzero;stroke:none"
       aria-label="More"
       transform="matrix(0,-1.2565467,1.2565467,0,15.475629,120.04477)" />
    <path
       id="path11"
       d="m 0.55964715,-5.8084038 v 5.80708634 H 1.2186955 V -2.3017692 c 0,-0.8580064 0.4476555,-1.4175757 1.1315736,-1.4175757 0.2113928,0 0.4352206,0.074609 0.5968739,0.198958 0.1865232,0.1367836 0.2611324,0.3357416 0.2611324,0.6217437 v 2.89732574 H 3.8797586 V -3.1597756 c 0,-0.6963529 -0.5098298,-1.1440084 -1.3180967,-1.1440084 -0.5968739,0 -0.9574853,0.1865231 -1.3429664,0.696353 v -2.2009728 z m 8.13551655,5.42160524 c -0.074609,0.0124349 -0.099479,0.0124349 -0.1492185,0.0124349 -0.2238277,0 -0.3481764,-0.12434874 -0.3481764,-0.32330673 V -3.1597756 c 0,-0.7336576 -0.5471345,-1.1440084 -1.5792291,-1.1440084 -0.596874,0 -1.1067038,0.1865231 -1.3802711,0.497395 -0.1989579,0.2113928 -0.2735672,0.4476554 -0.2860021,0.8580063 h 0.6714833 c 0.04974,-0.5098298 0.3481764,-0.7336576 0.9699202,-0.7336576 0.5968739,0 0.9326155,0.2238278 0.9326155,0.6217437 v 0.1740883 c 0,0.2735672 -0.1616533,0.397916 -0.6839181,0.4600903 -0.9450504,0.1243488 -1.0942689,0.1492185 -1.3429664,0.2611324 -0.4849601,0.198958 -0.7336576,0.5720042 -0.7336576,1.1067038 0,0.75852736 0.5222647,1.24348746 1.3678362,1.24348746 0.5222647,0 0.9450505,-0.18652312 1.4175757,-0.62174372 0.04974,0.42278573 0.2611324,0.62174372 0.6839181,0.62174372 0.1367836,0 0.2486975,-0.0248697 0.4600903,-0.0746092 z M 7.5262855,-1.3194141 c 0,0.2238277 -0.062174,0.36061131 -0.2611323,0.54713443 -0.2735673,0.24869749 -0.596874,0.37304623 -0.9823551,0.37304623 -0.5222647,0 -0.8207017,-0.24869749 -0.8207017,-0.67148326 0,-0.4352206 0.2860021,-0.6590483 0.9947899,-0.7585273 0.7087879,-0.099479 0.8455715,-0.1367836 1.0693992,-0.2362626 z M 9.410169,-4.1794353 v 4.17811784 h 0.671483 V -2.1649856 c 0,-0.596874 0.149219,-0.99479 0.472525,-1.2186177 0.211393,-0.1616534 0.410351,-0.198958 0.870442,-0.2113929 v -0.6839181 c -0.111914,-0.012435 -0.174089,-0.02487 -0.261133,-0.02487 -0.422785,0 -0.758527,0.2611324 -1.131573,0.8828761 v -0.7585274 z m 6.049566,-1.6289685 h -0.659048 v 2.1512333 C 14.52712,-4.0799563 14.079464,-4.303784 13.519895,-4.303784 c -1.081834,0 -1.790622,0.8704412 -1.790622,2.2009728 0,1.41757565 0.683918,2.28801686 1.815492,2.28801686 0.572004,0 0.96992,-0.22382774 1.330531,-0.73365759 v 0.54713447 h 0.584439 z m -1.827926,2.1263635 c 0.721223,0 1.168878,0.6466135 1.168878,1.6414034 0,0.9574854 -0.46009,1.60409884 -1.156443,1.60409884 -0.733658,0 -1.231053,-0.64661344 -1.231053,-1.61653364 0,-0.9823551 0.497395,-1.6289686 1.218618,-1.6289686 z m 6.730376,3.68072284 1.231052,-4.17811784 H 20.847145 L 20.014008,-0.92149816 19.193306,-4.1794353 H 18.38504 l -0.808267,3.25793714 -0.845572,-3.25793714 h -0.733657 l 1.206183,4.17811784 h 0.758527 l 0.795832,-3.27037194 0.845571,3.27037194 z m 5.486888,-0.3854811 c -0.07461,0.0124349 -0.09948,0.0124349 -0.149218,0.0124349 -0.223828,0 -0.348177,-0.12434874 -0.348177,-0.32330673 V -3.1597756 c 0,-0.7336576 -0.547134,-1.1440084 -1.579229,-1.1440084 -0.596874,0 -1.106704,0.1865231 -1.380271,0.497395 -0.198958,0.2113928 -0.273567,0.4476554 -0.286002,0.8580063 h 0.671483 c 0.04974,-0.5098298 0.348176,-0.7336576 0.96992,-0.7336576 0.596874,0 0.932616,0.2238278 0.932616,0.6217437 v 0.1740883 c 0,0.2735672 -0.161654,0.397916 -0.683918,0.4600903 -0.945051,0.1243488 -1.094269,0.1492185 -1.342967,0.2611324 -0.48496,0.198958 -0.733657,0.5720042 -0.733657,1.1067038 0,0.75852736 0.522264,1.24348746 1.367836,1.24348746 0.522265,0 0.94505,-0.18652312 1.417576,-0.62174372 0.04974,0.42278573 0.261132,0.62174372 0.683918,0.62174372 0.136783,0 0.248697,-0.0248697 0.46009,-0.0746092 z M 24.680195,-1.3194141 c 0,0.2238277 -0.06217,0.36061131 -0.261133,0.54713443 -0.273567,0.24869749 -0.596874,0.37304623 -0.982355,0.37304623 -0.522264,0 -0.820701,-0.24869749 -0.820701,-0.67148326 0,-0.4352206 0.286002,-0.6590483 0.99479,-0.7585273 0.708787,-0.099479 0.845571,-0.1367836 1.069399,-0.2362626 z m 1.880775,-2.8600212 v 4.17811784 h 0.671483 V -2.1649856 c 0,-0.596874 0.149218,-0.99479 0.472525,-1.2186177 0.211393,-0.1616534 0.410351,-0.198958 0.870441,-0.2113929 v -0.6839181 c -0.111914,-0.012435 -0.174088,-0.02487 -0.261132,-0.02487 -0.422786,0 -0.758527,0.2611324 -1.131574,0.8828761 v -0.7585274 z m 6.198784,2.3128867 c 0,-0.6341786 -0.04974,-1.0196597 -0.174088,-1.3305316 -0.261132,-0.6839181 -0.907746,-1.1067038 -1.691143,-1.1067038 -1.156443,0 -1.902535,0.895311 -1.902535,2.275582 0,1.3678362 0.721222,2.21340766 1.8901,2.21340766 0.957486,0 1.616534,-0.54713448 1.790622,-1.45488026 h -0.671483 c -0.186523,0.54713443 -0.559569,0.83313654 -1.094269,0.83313654 -0.422786,0 -0.783397,-0.18652312 -1.007225,-0.5346996 C 29.750515,-1.2075003 29.68834,-1.4561978 29.675906,-1.8665486 Z m -3.058979,-0.5471345 c 0.04974,-0.7709622 0.522265,-1.2683572 1.193748,-1.2683572 0.646614,0 1.156444,0.5346996 1.156444,1.2310526 0,0.012435 0,0.02487 -0.01244,0.037305 z m 0,0"
       style="fill:#000000;fill-opacity:1;fill-rule:nonzero;stroke:none"
       aria-label="hardware"
       transform="matrix(0,-1.2565467,1.2565467,0,27.368843,129.43369)" />
    <path
       id="path12"
       d="M 3.7310885,-2.5688925e-4 5.3600571,-4.8747277 V -2.5688925e-4 H 6.0688449 V -5.8073432 H 5.0367503 L 3.3456074,-0.74634935 1.6295947,-5.8073432 H 0.59750015 V -2.5688925e-4 H 1.2938531 V -4.8747277 L 2.9476914,-2.5688925e-4 Z M 8.8014085,-4.3027234 c -1.1688781,0 -1.877666,0.8455714 -1.877666,2.2507122 0,1.39270597 0.696353,2.23827743 1.8901009,2.23827743 1.1688782,0 1.8901006,-0.84557146 1.8901006,-2.21340763 0,-1.4424455 -0.696353,-2.275582 -1.9025355,-2.275582 z m 0.012435,0.6217437 c 0.7460925,0 1.1937475,0.6093088 1.1937475,1.6538383 0,0.9699202 -0.4600899,1.59166391 -1.1937475,1.59166391 -0.7460924,0 -1.1937479,-0.60930881 -1.1937479,-1.61653371 0,-1.0072248 0.4476555,-1.6289685 1.1937479,-1.6289685 z m 2.8040645,-0.497395 v 4.17811781075 h 0.671483 V -2.163925 c 0,-0.596874 0.149218,-0.99479 0.472525,-1.2186177 0.211393,-0.1616534 0.410351,-0.198958 0.870441,-0.2113929 v -0.6839181 c -0.111914,-0.012435 -0.174088,-0.02487 -0.261132,-0.02487 -0.422786,0 -0.758527,0.2611323 -1.131574,0.882876 V -4.178375 Z m 6.198784,2.3128866 c 0,-0.6341785 -0.04974,-1.0196597 -0.174088,-1.3305315 -0.261132,-0.6839181 -0.907746,-1.1067038 -1.691143,-1.1067038 -1.156443,0 -1.902535,0.8953109 -1.902535,2.275582 0,1.36783617 0.721222,2.21340763 1.8901,2.21340763 0.957486,0 1.616534,-0.54713448 1.790622,-1.45488033 h -0.671483 c -0.186523,0.54713449 -0.559569,0.83313661 -1.094269,0.83313661 -0.422786,0 -0.783397,-0.18652312 -1.007225,-0.5346996 C 14.807453,-1.2064397 14.745279,-1.4551372 14.732844,-1.8654881 Z m -3.058979,-0.5471344 c 0.04974,-0.7709622 0.522265,-1.2683572 1.193748,-1.2683572 0.646614,0 1.156444,0.5346996 1.156444,1.2310526 0,0.012435 0,0.02487 -0.01243,0.037305 z m 0,0"
       style="fill:#000000;fill-opacity:1;fill-rule:nonzero;stroke:none"
       aria-label="More"
       transform="matrix(0,-1.2565467,1.2565467,0,15.476885,39.805474)" />
    <path
       id="path13"
       d="M 3.4947169,-3.0105571 C 3.4822821,-3.8312588 2.9475825,-4.303784 1.9776623,-4.303784 c -0.9699202,0 -1.60409883,0.5098298 -1.60409883,1.2807921 0,0.6590483 0.33574161,0.9699202 1.33053153,1.2061828 l 0.6217438,0.1492185 c 0.4600903,0.1119138 0.6341785,0.2735672 0.6341785,0.5844391 0,0.38548108 -0.3854811,0.64661344 -0.9699202,0.64661344 -0.3606113,0 -0.6590483,-0.099479 -0.8207017,-0.27356724 C 1.0574816,-0.83445404 1.0077421,-0.94636791 0.97043744,-1.2448049 H 0.27408447 c 0.0248697,0.96992021 0.57200423,1.43001056 1.66627313,1.43001056 1.0445295,0 1.7160127,-0.52226473 1.7160127,-1.33053156 0,-0.6217437 -0.3481765,-0.9574853 -1.1813131,-1.1564433 L 1.8408786,-2.4509877 C 1.2937442,-2.5877713 1.0699164,-2.7618596 1.0699164,-3.0602966 c 0,-0.3730462 0.3357416,-0.6217437 0.8828761,-0.6217437 0.5346996,0 0.8207017,0.2238278 0.8331366,0.6714832 z M 6.1495626,-4.303784 c -1.1688782,0 -1.877666,0.8455715 -1.877666,2.2507123 0,1.3927059 0.696353,2.23827736 1.8901009,2.23827736 1.1688782,0 1.8901009,-0.84557146 1.8901009,-2.21340766 0,-1.4424454 -0.6963529,-2.275582 -1.9025358,-2.275582 z m 0.012435,0.6217437 c 0.7460925,0 1.193748,0.6093089 1.193748,1.6538383 0,0.9699202 -0.4600904,1.59166394 -1.193748,1.59166394 -0.7460925,0 -1.1937479,-0.60930884 -1.1937479,-1.61653364 0,-1.0072249 0.4476554,-1.6289686 1.1937479,-1.6289686 z m 4.3055754,-0.497395 H 9.7836547 v -0.6466134 c 0,-0.2860021 0.1492185,-0.4227858 0.4600903,-0.4227858 0.04974,0 0.07461,0 0.223828,0 v -0.5471344 c -0.149219,-0.037305 -0.236263,-0.037305 -0.373046,-0.037305 -0.6093093,0 -0.9823555,0.3481765 -0.9823555,0.9450505 v 0.7087878 H 8.565037 v 0.5471345 h 0.5471345 v 3.63098334 H 9.7836547 V -3.6323008 h 0.6839183 z m 2.191646,0 h -0.683918 v -1.1440084 h -0.671483 v 1.1440084 h -0.559569 v 0.5471345 h 0.559569 v 3.15845811 c 0,0.42278573 0.298437,0.65904835 0.808267,0.65904835 0.161653,0 0.323307,-0.0248697 0.547134,-0.0621744 v -0.55956935 c -0.08704,0.0248698 -0.198958,0.0373046 -0.323306,0.0373046 -0.286002,0 -0.360612,-0.0746093 -0.360612,-0.37304623 V -3.6323008 h 0.683918 z m 4.604013,4.17811784 1.231052,-4.17811784 H 17.748192 L 16.915055,-0.92149816 16.094353,-4.1794353 H 15.286087 L 14.47782,-0.92149816 13.632248,-4.1794353 h -0.733657 l 1.206183,4.17811784 h 0.758527 l 0.795832,-3.27037194 0.845571,3.27037194 z m 5.483779,-0.3854811 c -0.07461,0.0124349 -0.09948,0.0124349 -0.149218,0.0124349 -0.223828,0 -0.348177,-0.12434874 -0.348177,-0.32330673 V -3.1597756 c 0,-0.7336576 -0.547134,-1.1440084 -1.579229,-1.1440084 -0.596874,0 -1.106704,0.1865231 -1.380271,0.497395 -0.198958,0.2113928 -0.273567,0.4476554 -0.286002,0.8580063 h 0.671483 c 0.04974,-0.5098298 0.348177,-0.7336576 0.96992,-0.7336576 0.596874,0 0.932616,0.2238278 0.932616,0.6217437 v 0.1740883 c 0,0.2735672 -0.161653,0.397916 -0.683918,0.4600903 -0.94505,0.1243488 -1.094269,0.1492185 -1.342966,0.2611324 -0.484961,0.198958 -0.733658,0.5720042 -0.733658,1.1067038 0,0.75852736 0.522265,1.24348746 1.367836,1.24348746 0.522265,0 0.945051,-0.18652312 1.417576,-0.62174372 0.04974,0.42278573 0.261132,0.62174372 0.683918,0.62174372 0.136784,0 0.248697,-0.0248697 0.46009,-0.0746092 z M 21.578133,-1.3194141 c 0,0.2238277 -0.06217,0.36061131 -0.261132,0.54713443 -0.273568,0.24869749 -0.596874,0.37304623 -0.982355,0.37304623 -0.522265,0 -0.820702,-0.24869749 -0.820702,-0.67148326 0,-0.4352206 0.286002,-0.6590483 0.99479,-0.7585273 0.708788,-0.099479 0.845571,-0.1367836 1.069399,-0.2362626 z m 1.883884,-2.8600212 v 4.17811784 H 24.1335 V -2.1649856 c 0,-0.596874 0.149218,-0.99479 0.472525,-1.2186177 0.211393,-0.1616534 0.410351,-0.198958 0.870441,-0.2113929 v -0.6839181 c -0.111914,-0.012435 -0.174088,-0.02487 -0.261132,-0.02487 -0.422786,0 -0.758528,0.2611324 -1.131574,0.8828761 v -0.7585274 z m 6.195676,2.3128867 c 0,-0.6341786 -0.04974,-1.0196597 -0.174089,-1.3305316 -0.261132,-0.6839181 -0.907745,-1.1067038 -1.691142,-1.1067038 -1.156444,0 -1.902536,0.895311 -1.902536,2.275582 0,1.3678362 0.721222,2.21340766 1.890101,2.21340766 0.957485,0 1.616533,-0.54713448 1.790622,-1.45488026 h -0.671484 c -0.186523,0.54713443 -0.559569,0.83313654 -1.094269,0.83313654 -0.422785,0 -0.783397,-0.18652312 -1.007224,-0.5346996 C 26.648453,-1.2075003 26.586279,-1.4561978 26.573844,-1.8665486 Z m -3.058979,-0.5471345 c 0.04974,-0.7709622 0.522264,-1.2683572 1.193748,-1.2683572 0.646613,0 1.156443,0.5346996 1.156443,1.2310526 0,0.012435 0,0.02487 -0.01243,0.037305 z m 0,0"
       style="fill:#000000;fill-opacity:1;fill-rule:nonzero;stroke:none"
       aria-label="software"
       transform="matrix(0,-1.2565467,1.2565467,0,27.368843,47.246744)" />
  </g>
</svg>
