<?xml version="1.0" encoding="UTF-8" standalone="no"?>
<!-- Created with Inkscape (http://www.inkscape.org/) -->

<svg
   version="1.1"
   id="svg1"
   width="926.1427"
   height="272.72668"
   viewBox="0 0 926.1427 272.72668"
   xmlns="http://www.w3.org/2000/svg"
   xmlns:svg="http://www.w3.org/2000/svg">
  <defs
     id="defs1" />
  <g
     id="g1">
    <path
       id="path1"
       d="M 0.3736,0.3736 H 30.2619 V 34.38976 H 0.3736 Z"
       style="fill:#f7b4f7;fill-opacity:1;fill-rule:nonzero;stroke:#191919;stroke-width:0.74721;stroke-linecap:butt;stroke-linejoin:miter;stroke-miterlimit:10;stroke-dasharray:none;stroke-opacity:1"
       transform="matrix(1.3333333,0,0,-1.3333333,45.909333,102.14933)" />
    <path
       id="path2"
       d="M 2.1329453,-4.3823984 V 4.140625e-4 H 3.3868516 V -6.3511484 H 2.5548203 c -0.1992187,0.75 -0.8554687,1.1367187 -1.94531249,1.1367187 v 0.8320313 z m 5.5253906,1.3125 h -2.4375 v 1.21875 h 2.4375 z m 0.8408203,-3.46875 V 4.140625e-4 H 9.7530625 V -0.49177344 c 0.3046875,0.46875 0.7265625,0.703125 1.3359375,0.703125 1.160156,0 2.039062,-1.1015625 2.039062,-2.56640626 0,-0.65625 -0.199218,-1.3242187 -0.515625,-1.78125 -0.339843,-0.4804687 -0.925781,-0.7851562 -1.523437,-0.7851562 -0.597656,0 -1.03125,0.2226562 -1.3359375,0.703125 v -2.3203125 z m 2.3203128,2.671875 c 0.609375,0 1.054687,0.6210937 1.054687,1.5234375 0,0.8789062 -0.445312,1.49999996 -1.054687,1.49999996 -0.644532,0 -1.0664065,-0.60937496 -1.0664065,-1.53515626 0,-0.8789062 0.4335935,-1.4882812 1.0664065,-1.4882812 z m 4.482422,-0.9726563 H 14.047984 V 4.140625e-4 h 1.253907 z m 0,-1.6992187 h -1.253907 v 1.125 h 1.253907 z m 3.336914,1.7929687 h -0.691407 v -1.3007812 h -1.265625 v 1.3007812 h -0.609375 v 0.8320313 h 0.609375 v 2.97656246 c 0,0.76171875 0.410157,1.1484375 1.230469,1.1484375 0.28125,0 0.503906,-0.0351563 0.726563,-0.10546875 v -0.87890625 c -0.117188,0.0234375 -0.199219,0.0351563 -0.28125,0.0351563 -0.339844,0 -0.410157,-0.10546875 -0.410157,-0.53906246 v -2.6367187 h 0.691407 z m 0,0"
       style="fill:#000000;fill-opacity:1;fill-rule:nonzero;stroke:none"
       aria-label="1-bit"
       transform="matrix(1.3333333,0,0,1.3333333,53.714667,74.698667)" />
    <path
       id="path3"
       d="M 3.9261016,-3.3853437 C 3.9143828,-4.311125 3.3050078,-4.82675 2.2268828,-4.82675 c -1.1015625,0 -1.80468749,0.5625 -1.80468749,1.4296875 0,0.7382813 0.375,1.0898438 1.48828129,1.359375 l 0.703125,0.1640625 c 0.515625,0.1289063 0.7265625,0.3164063 0.7265625,0.65625 0,0.43359375 -0.4453125,0.73828125 -1.1015625,0.73828125 -0.3984375,0 -0.7382813,-0.1171875 -0.9257813,-0.31640625 C 1.1956328,-0.936125 1.1370391,-1.0650312 1.0901641,-1.3931562 H 0.30500781 c 0.0351563,1.07812495 0.64453125,1.6054687 1.87499999,1.6054687 1.1835938,0 1.9335938,-0.5859375 1.9335938,-1.4882812 0,-0.703125 -0.3984375,-1.0898438 -1.3242188,-1.3125 L 2.0745391,-2.76425 c -0.609375,-0.140625 -0.8671875,-0.3398437 -0.8671875,-0.6679687 0,-0.4335938 0.375,-0.703125 0.984375,-0.703125 0.609375,0 0.9257812,0.2578125 0.9492187,0.75 z m 1.9042968,-1.3125 h -0.75 V 0.001375 h 0.75 z m 0,-1.8398438 H 5.0686797 v 0.9492188 h 0.7617187 z m 4.3359376,1.8398438 v 0.6796875 C 9.7913359,-4.5689375 9.3343047,-4.82675 8.7366484,-4.82675 c -1.1953125,0 -2.0039062,1.03125 -2.0039062,2.5546875 0,0.7734375 0.2109375,1.40625 0.5976562,1.8515625 0.3515625,0.3984375 0.84375,0.6328125 1.3359375,0.6328125 0.5976563,0 1.0078125,-0.2578125 1.4296871,-0.84375 v 0.234375 c 0,0.64453125 -0.08203,1.03125 -0.2695308,1.2890625 C 9.6272734,1.1615313 9.2405547,1.3255938 8.7835234,1.3255938 8.4436797,1.3255938 8.1389922,1.2435625 7.9397734,1.0795 7.7639922,0.938875 7.6936797,0.8216875 7.6468047,0.5404375 H 6.8850859 c 0.082031,0.890625 0.7734375,1.4179688 1.875,1.4179688 0.703125,0 1.3007811,-0.2226563 1.6054691,-0.5976563 0.363281,-0.43359375 0.492187,-1.03125 0.492187,-2.1328125 v -3.9257812 z m -1.3476563,0.5625 c 0.8085937,0 1.2773433,0.6796875 1.2773433,1.8515625 0,1.125 -0.4804683,1.80468745 -1.2773433,1.80468745 -0.8085938,0 -1.3007813,-0.69140625 -1.3007813,-1.82812495 0,-1.1367188 0.5039063,-1.828125 1.3007813,-1.828125 z m 3.2724613,-0.5625 V 0.001375 h 0.75 v -2.5898437 c 0,-0.9609375 0.503906,-1.5820313 1.265625,-1.5820313 0.597656,0 0.972656,0.3515625 0.972656,0.9140625 V 0.001375 h 0.75 v -3.5507812 c 0,-0.7734375 -0.585938,-1.2773438 -1.488281,-1.2773438 -0.703125,0 -1.148438,0.2695313 -1.570313,0.9140625 v -0.7851562 z m 0,0"
       style="fill:#000000;fill-opacity:1;fill-rule:nonzero;stroke:none"
       aria-label="sign"
       transform="matrix(1.3333333,0,0,1.3333333,55.370667,89.310667)" />
    <path
       id="path4"
       d="m 31.00911,0.3736 h 159.4043 V 34.38976 H 31.00911 Z"
       style="fill:#fde2f0;fill-opacity:1;fill-rule:nonzero;stroke:#191919;stroke-width:0.74721;stroke-linecap:butt;stroke-linejoin:miter;stroke-miterlimit:10;stroke-dasharray:none;stroke-opacity:1"
       transform="matrix(1.3333333,0,0,-1.3333333,45.909333,102.14933)" />
    <path
       id="path5"
       d="m 3.6689922,-3.4564375 c 0.2109375,-0.1171875 0.3164062,-0.1875 0.4101562,-0.2695312 0.2578125,-0.2460938 0.4101563,-0.6328125 0.4101563,-1.0429688 0,-0.9960937 -0.8554688,-1.7226562 -2.0273438,-1.7226562 -1.1835937,0 -2.05078121,0.7265625 -2.05078121,1.734375 0,0.609375 0.2578125,0.9960937 0.83203121,1.3007812 -0.73828121,0.3867188 -1.04296871,0.8789063 -1.04296871,1.6289063 0,1.19531245 0.92578121,2.03906245 2.26171871,2.03906245 1.3242188,0 2.25,-0.84375 2.25,-2.03906245 0,-0.75 -0.3046875,-1.2421875 -1.0429687,-1.6289063 z m -1.2070313,-2.015625 c 0.5625,0 0.9492188,0.3398438 0.9492188,0.8320313 0,0.4804687 -0.3984375,0.8320312 -0.9492188,0.8320312 -0.5507812,0 -0.9492187,-0.3515625 -0.9492187,-0.84375 0,-0.4804687 0.3867187,-0.8203125 0.9492187,-0.8203125 z m -0.011719,2.5195313 c 0.6210937,0 1.0078125,0.4101562 1.0078125,1.0664062 0,0.609375 -0.3984375,1.01953125 -1.0078125,1.01953125 -0.609375,0 -0.9960938,-0.41015625 -0.9960938,-1.03124995 0,-0.6445313 0.3984375,-1.0546875 0.9960938,-1.0546875 z m 5.2060547,-0.1171875 h -2.4375 v 1.21875 h 2.4375 z m 0.8408203,-3.46875 V 5.9375e-4 h 1.2539062 v -0.4921875 c 0.3046879,0.46875 0.7265629,0.703125 1.3359379,0.703125 1.160156,0 2.039062,-1.1015625 2.039062,-2.56640625 0,-0.65625 -0.199218,-1.3242187 -0.515625,-1.78125 -0.339843,-0.4804687 -0.925781,-0.7851562 -1.523437,-0.7851562 -0.597656,0 -1.03125,0.2226562 -1.3359379,0.703125 v -2.3203125 z m 2.3203131,2.671875 c 0.609375,0 1.054687,0.6210937 1.054687,1.5234375 0,0.8789062 -0.445312,1.49999995 -1.054687,1.49999995 -0.644532,0 -1.0664069,-0.60937495 -1.0664069,-1.53515625 0,-0.8789062 0.4335939,-1.4882812 1.0664069,-1.4882812 z M 15.299852,-4.83925 H 14.045945 V 5.9375e-4 h 1.253907 z m 0,-1.6992187 h -1.253907 v 1.125 h 1.253907 z M 18.636766,-4.7455 H 17.945359 V -6.0462812 H 16.679734 V -4.7455 h -0.609375 v 0.8320313 h 0.609375 v 2.97656245 c 0,0.76171875 0.410157,1.1484375 1.230469,1.1484375 0.28125,0 0.503906,-0.0351563 0.726563,-0.10546875 v -0.87890625 c -0.117188,0.0234375 -0.199219,0.0351563 -0.28125,0.0351563 -0.339844,0 -0.410157,-0.10546875 -0.410157,-0.53906245 v -2.6367187 h 0.691407 z m 0,0"
       style="fill:#000000;fill-opacity:1;fill-rule:nonzero;stroke:none"
       aria-label="8-bit"
       transform="matrix(1.3333333,0,0,1.3333333,154.83067,82.077333)" />
    <path
       id="path6"
       d="m 4.5937188,-2.0970625 c 0,-0.7148437 -0.046875,-1.1484375 -0.1875,-1.5 C 4.1015313,-4.3705 3.3866875,-4.8275312 2.5077813,-4.8275312 c -1.3007813,0 -2.1445313,0.9960937 -2.1445313,2.5429687 0,1.546875 0.8085938,2.49609375 2.1328125,2.49609375 1.0664063,0 1.8164063,-0.609375 2.0039063,-1.64062495 h -0.75 C 3.5390313,-0.808 3.1171563,-0.479875 2.5195,-0.479875 c -0.4804687,0 -0.8789062,-0.22265625 -1.125,-0.609375 C 1.207,-1.3587812 1.1484063,-1.6283125 1.1366875,-2.0970625 Z M 1.160125,-2.7064375 C 1.218719,-3.573625 1.7460625,-4.136125 2.4960625,-4.136125 c 0.7382813,0 1.3007813,0.609375 1.3007813,1.3710938 0,0.023437 0,0.035156 0,0.058594 z m 6.1699219,0.28125 1.5820312,-2.2734375 h -0.84375 l -1.125,1.6992188 -1.1367187,-1.6992188 h -0.84375 L 6.5331719,-2.3900312 4.8691094,5.9375e-4 H 5.7245781 L 6.9081719,-1.8040937 8.0917656,5.9375e-4 H 8.9589531 Z M 9.6796563,1.957625 h 0.7617187 v -2.44921875 c 0.386719,0.48046875 0.832031,0.703125 1.441406,0.703125 1.207032,0 2.003907,-0.984375 2.003907,-2.48437495 0,-1.5703125 -0.773438,-2.5546875 -2.015625,-2.5546875 -0.632813,0 -1.148438,0.28125 -1.5,0.84375 V -4.698625 H 9.6796563 Z m 2.0624997,-6.09375 c 0.832032,0 1.371094,0.7265625 1.371094,1.8515625 0,1.0664063 -0.550781,1.79296875 -1.371094,1.79296875 -0.785156,0 -1.300781,-0.71484375 -1.300781,-1.81640625 0,-1.1015625 0.515625,-1.828125 1.300781,-1.828125 z m 4.88086,-0.6914062 c -1.3125,0 -2.109375,0.9375 -2.109375,2.5195312 0,1.5703125 0.785156,2.51953125 2.121093,2.51953125 1.3125,0 2.121094,-0.94921875 2.121094,-2.48437495 0,-1.6289063 -0.773437,-2.5546875 -2.132812,-2.5546875 z m 0.01172,0.6914062 c 0.84375,0 1.347657,0.6796875 1.347657,1.8515625 0,1.1015625 -0.527344,1.8046875 -1.347657,1.8046875 -0.832031,0 -1.347656,-0.6914062 -1.347656,-1.828125 0,-1.1367187 0.515625,-1.828125 1.347656,-1.828125 z m 3.166993,-0.5625 V 5.9375e-4 h 0.75 V -2.58925 c 0,-0.9609375 0.503906,-1.5820312 1.265625,-1.5820312 0.597656,0 0.972656,0.3515625 0.972656,0.9140625 V 5.9375e-4 h 0.75 V -3.5501875 c 0,-0.7734375 -0.585938,-1.2773437 -1.488281,-1.2773437 -0.703125,0 -1.148438,0.2695312 -1.570313,0.9140625 V -4.698625 Z m 8.947265,2.6015625 c 0,-0.7148437 -0.04687,-1.1484375 -0.1875,-1.5 -0.304687,-0.7734375 -1.019531,-1.2304687 -1.898437,-1.2304687 -1.300782,0 -2.144532,0.9960937 -2.144532,2.5429687 0,1.546875 0.808594,2.49609375 2.132813,2.49609375 1.066406,0 1.816406,-0.609375 2.003906,-1.64062495 h -0.75 C 27.694305,-0.808 27.27243,-0.479875 26.674773,-0.479875 c -0.480468,0 -0.878906,-0.22265625 -1.125,-0.609375 -0.1875,-0.2695312 -0.246093,-0.5390625 -0.257812,-1.0078125 z M 25.3154,-2.7064375 c 0.05859,-0.8671875 0.585938,-1.4296875 1.335938,-1.4296875 0.738281,0 1.300781,0.609375 1.300781,1.3710938 0,0.023437 0,0.035156 0,0.058594 z M 29.774383,-4.698625 V 5.9375e-4 h 0.75 V -2.58925 c 0,-0.9609375 0.503906,-1.5820312 1.265625,-1.5820312 0.597656,0 0.972656,0.3515625 0.972656,0.9140625 V 5.9375e-4 h 0.75 V -3.5501875 c 0,-0.7734375 -0.585937,-1.2773437 -1.488281,-1.2773437 -0.703125,0 -1.148438,0.2695312 -1.570313,0.9140625 V -4.698625 Z m 6.624023,0 h -0.761718 v -1.2890625 h -0.75 v 1.2890625 h -0.632813 v 0.609375 h 0.632813 v 3.55078125 c 0,0.48046875 0.328125,0.75 0.902343,0.75 0.1875,0 0.363282,-0.0234375 0.609375,-0.0703125 V -0.479875 c -0.09375,0.0234375 -0.210937,0.0351563 -0.351562,0.0351563 -0.328125,0 -0.410156,-0.09375 -0.410156,-0.421875 V -4.08925 h 0.761718 z m 0,0"
       style="fill:#000000;fill-opacity:1;fill-rule:nonzero;stroke:none"
       aria-label="exponent"
       transform="matrix(1.3333333,0,0,1.3333333,183.39067,82.077333)" />
    <path
       id="path7"
       d="M 191.16061,0.3736 H 659.41073 V 34.38976 H 191.16061 Z"
       style="fill:#eca9a7;fill-opacity:1;fill-rule:nonzero;stroke:#191919;stroke-width:0.74721;stroke-linecap:butt;stroke-linejoin:miter;stroke-miterlimit:10;stroke-dasharray:none;stroke-opacity:1"
       transform="matrix(1.3333333,0,0,-1.3333333,45.909333,102.14933)" />
    <path
       id="path8"
       d="M 4.5930156,-1.1237109 H 1.8977031 c 0.1640625,-0.3398438 0.3632813,-0.515625 1.2890625,-1.1953125 1.1015625,-0.8085938 1.4296875,-1.2890625 1.4296875,-2.15625 0,-1.2304688 -0.84375,-2.015625 -2.1796875,-2.015625 -1.3125,0 -2.08593747,0.7851562 -2.08593747,2.1210937 0,0.058594 0,0.1289063 0.0117188,0.234375 H 1.5578594 v -0.2109375 c 0,-0.703125 0.328125,-1.125 0.9023437,-1.125 0.5625,0 0.9023438,0.3867188 0.9023438,1.03125 0,0.6914063 -0.2226563,0.9726563 -1.6289063,1.96875 -1.06640622,0.7382813 -1.40624997,1.3007813 -1.46484372,2.47265626 H 4.5930156 Z m 2.3378907,-1.7226563 c 0.4335937,0 0.515625,0.011719 0.7382812,0.070312 0.421875,0.1171875 0.6914063,0.4804688 0.6914063,0.9492188 0,0.5507812 -0.3984375,0.96093746 -0.9492188,0.96093746 -0.5859375,0 -0.9140625,-0.33984376 -0.9492187,-0.99609376 h -1.21875 c 0.011719,1.27734376 0.84375,2.07421876 2.1445312,2.07421876 1.359375,0 2.2265625,-0.796875 2.2265625,-2.03906246 0,-0.75 -0.328125,-1.2304688 -1.0429687,-1.5820313 0.5859375,-0.3632812 0.8320312,-0.7617187 0.8320312,-1.3476562 0,-1.0546875 -0.7851562,-1.734375 -2.015625,-1.734375 -0.7265625,0 -1.3359375,0.2578125 -1.6992187,0.7148437 -0.2460938,0.3164063 -0.3632813,0.75 -0.3632813,1.3125 v 0.1054688 h 1.171875 c 0,-0.3398438 0.035156,-0.5039063 0.09375,-0.6679688 C 6.70825,-5.3073047 6.9895,-5.4713672 7.3645,-5.4713672 c 0.5039063,0 0.7851563,0.3046875 0.7851563,0.8320313 0,0.6328125 -0.3632813,0.9609375 -1.1132813,0.9609375 H 6.9309063 Z m 5.7128907,-0.2226562 h -2.4375 v 1.21875 h 2.4375 z m 0.84082,-3.46875 v 6.53906246 h 1.253906 v -0.4921875 c 0.304688,0.46875 0.726563,0.703125 1.335938,0.703125 1.160156,0 2.039062,-1.1015625 2.039062,-2.56640626 0,-0.65625 -0.199218,-1.3242187 -0.515625,-1.78125 -0.339843,-0.4804687 -0.925781,-0.7851562 -1.523437,-0.7851562 -0.597656,0 -1.03125,0.2226562 -1.335938,0.703125 v -2.3203125 z m 2.320313,2.671875 c 0.609375,0 1.054687,0.6210937 1.054687,1.5234375 0,0.8789062 -0.445312,1.49999996 -1.054687,1.49999996 -0.644532,0 -1.066407,-0.60937496 -1.066407,-1.53515626 0,-0.8789062 0.433594,-1.4882812 1.066407,-1.4882812 z m 4.482422,-0.9726563 h -1.253907 v 4.83984376 h 1.253907 z m 0,-1.6992187 h -1.253907 v 1.125 h 1.253907 z m 3.336914,1.7929687 h -0.691407 v -1.3007812 h -1.265625 v 1.3007812 h -0.609375 v 0.8320313 h 0.609375 v 2.97656246 c 0,0.76171875 0.410157,1.1484375 1.230469,1.1484375 0.28125,0 0.503906,-0.0351563 0.726563,-0.10546875 v -0.87890625 c -0.117188,0.0234375 -0.199219,0.0351563 -0.28125,0.0351563 -0.339844,0 -0.410157,-0.10546875 -0.410157,-0.53906246 v -2.6367187 h 0.691407 z m 0,0"
       style="fill:#000000;fill-opacity:1;fill-rule:nonzero;stroke:none"
       aria-label="23-bit"
       transform="matrix(1.3333333,0,0,1.3333333,571.43067,83.26)" />
    <path
       id="path9"
       d="M 0.63235156,-4.6979297 V 0.00128906 H 1.3823516 V -2.9518359 c 0,-0.6796875 0.4921875,-1.21875 1.1015625,-1.21875 0.5507812,0 0.8671875,0.3398437 0.8671875,0.9375 v 3.23437496 h 0.75 V -2.9518359 c 0,-0.6796875 0.4921875,-1.21875 1.1015625,-1.21875 0.5507812,0 0.8789062,0.3398437 0.8789062,0.9375 v 3.23437496 h 0.75 V -3.5260547 c 0,-0.84375 -0.4804687,-1.3007812 -1.359375,-1.3007812 -0.6328125,0 -1.0078125,0.1875 -1.453125,0.7148437 -0.2695312,-0.5039062 -0.6445312,-0.7148437 -1.2539062,-0.7148437 -0.6328125,0 -1.0429688,0.234375 -1.453125,0.796875 V -4.6979297 Z M 12.263211,-0.43230469 c -0.08203,0.0117188 -0.117188,0.0117188 -0.152344,0.0117188 -0.269531,0 -0.410156,-0.12890625 -0.410156,-0.36328125 V -3.5494922 c 0,-0.8320312 -0.609375,-1.2773437 -1.7695313,-1.2773437 -0.6796875,0 -1.2421875,0.1875 -1.5585938,0.5390625 -0.2109375,0.2460937 -0.3046875,0.515625 -0.3164062,0.984375 h 0.75 c 0.058594,-0.5742188 0.3984375,-0.8320313 1.1015625,-0.8320313 0.6679688,0 1.0546878,0.2460938 1.0546878,0.6914063 v 0.1992187 c 0,0.3164063 -0.1875,0.4453125 -0.785157,0.515625 -1.0546871,0.140625 -1.2187496,0.1757813 -1.4999996,0.2929688 -0.5507812,0.2226562 -0.8320312,0.6445312 -0.8320312,1.2539062 0,0.85546876 0.5976562,1.39453126 1.546875,1.39453126 0.5859375,0 1.0664058,-0.2109375 1.5937498,-0.69140625 0.04687,0.46875 0.28125,0.69140625 0.773438,0.69140625 0.152343,0 0.269531,-0.0234375 0.503906,-0.0820313 z M 10.96243,-1.4752734 c 0,0.2460937 -0.08203,0.3984375 -0.304688,0.60937496 -0.304687,0.28125 -0.6679686,0.421875 -1.1132811,0.421875 -0.5742187,0 -0.9140625,-0.28125 -0.9140625,-0.76171876 0,-0.4921875 0.328125,-0.7382812 1.125,-0.8554687 0.7851566,-0.1054688 0.9492186,-0.140625 1.2070316,-0.2578125 z m 2.124023,-3.2226563 v 4.69921876 h 0.75 V -2.5885547 c 0,-0.9609375 0.503906,-1.5820312 1.265625,-1.5820312 0.597656,0 0.972656,0.3515625 0.972656,0.9140625 v 3.25781246 h 0.75 V -3.5494922 c 0,-0.7734375 -0.585937,-1.2773437 -1.488281,-1.2773437 -0.703125,0 -1.148437,0.2695312 -1.570312,0.9140625 v -0.7851563 z m 6.626953,0 h -0.761718 v -1.2890625 h -0.75 v 1.2890625 h -0.632813 v 0.609375 h 0.632813 v 3.55078126 c 0,0.48046875 0.328125,0.75 0.902343,0.75 0.1875,0 0.363282,-0.0234375 0.609375,-0.0703125 v -0.62109375 c -0.09375,0.0234375 -0.210937,0.0351563 -0.351562,0.0351563 -0.328125,0 -0.410156,-0.09375 -0.410156,-0.421875 V -4.0885547 h 0.761718 z m 1.567383,0 h -0.75 v 4.69921876 h 0.75 z m 0,-1.8398437 H 20.51907 v 0.9492187 h 0.761719 z m 4.567383,3.1523437 c -0.01172,-0.9257812 -0.621094,-1.4414062 -1.699219,-1.4414062 -1.101562,0 -1.804687,0.5625 -1.804687,1.4296875 0,0.7382812 0.375,1.0898437 1.488281,1.359375 l 0.703125,0.1640625 c 0.515625,0.1289062 0.726562,0.3164062 0.726562,0.65625 0,0.43359371 -0.445312,0.73828121 -1.101562,0.73828121 -0.398438,0 -0.738281,-0.1171875 -0.925781,-0.31640625 -0.117188,-0.140625 -0.175782,-0.26953126 -0.222657,-0.59765626 h -0.785156 c 0.03516,1.07812501 0.644531,1.60546876 1.875,1.60546876 1.183594,0 1.933594,-0.5859375 1.933594,-1.48828126 0,-0.703125 -0.398438,-1.0898437 -1.324219,-1.3125 l -0.714844,-0.1757812 c -0.609375,-0.140625 -0.867187,-0.3398438 -0.867187,-0.6679688 0,-0.4335937 0.375,-0.703125 0.984375,-0.703125 0.609375,0 0.925781,0.2578125 0.949219,0.75 z m 4.482422,0 c -0.01172,-0.9257812 -0.621094,-1.4414062 -1.699219,-1.4414062 -1.101562,0 -1.804687,0.5625 -1.804687,1.4296875 0,0.7382812 0.375,1.0898437 1.488281,1.359375 l 0.703125,0.1640625 c 0.515625,0.1289062 0.726562,0.3164062 0.726562,0.65625 0,0.43359371 -0.445312,0.73828121 -1.101562,0.73828121 -0.398438,0 -0.738281,-0.1171875 -0.925781,-0.31640625 -0.117188,-0.140625 -0.175782,-0.26953126 -0.222657,-0.59765626 H 26.7095 c 0.03516,1.07812501 0.644531,1.60546876 1.875,1.60546876 1.183594,0 1.933594,-0.5859375 1.933594,-1.48828126 0,-0.703125 -0.398438,-1.0898437 -1.324219,-1.3125 l -0.714844,-0.1757812 c -0.609375,-0.140625 -0.867187,-0.3398438 -0.867187,-0.6679688 0,-0.4335937 0.375,-0.703125 0.984375,-0.703125 0.609375,0 0.925781,0.2578125 0.949219,0.75 z m 5.352539,2.95312501 c -0.08203,0.0117188 -0.117188,0.0117188 -0.152344,0.0117188 -0.269531,0 -0.410156,-0.12890625 -0.410156,-0.36328125 V -3.5494922 c 0,-0.8320312 -0.609375,-1.2773437 -1.769531,-1.2773437 -0.679688,0 -1.242188,0.1875 -1.558594,0.5390625 -0.210938,0.2460937 -0.304688,0.515625 -0.316406,0.984375 h 0.75 c 0.05859,-0.5742188 0.398437,-0.8320313 1.101562,-0.8320313 0.667969,0 1.054688,0.2460938 1.054688,0.6914063 v 0.1992187 c 0,0.3164063 -0.1875,0.4453125 -0.785157,0.515625 -1.054687,0.140625 -1.21875,0.1757813 -1.5,0.2929688 -0.550781,0.2226562 -0.832031,0.6445312 -0.832031,1.2539062 0,0.85546876 0.597656,1.39453126 1.546875,1.39453126 0.585938,0 1.066406,-0.2109375 1.59375,-0.69140625 0.04687,0.46875 0.28125,0.69140625 0.773438,0.69140625 0.152343,0 0.269531,-0.0234375 0.503906,-0.0820313 z M 34.382352,-1.4752734 c 0,0.2460937 -0.08203,0.3984375 -0.304688,0.60937496 -0.304687,0.28125 -0.667969,0.421875 -1.113281,0.421875 -0.574219,0 -0.914063,-0.28125 -0.914063,-0.76171876 0,-0.4921875 0.328125,-0.7382812 1.125,-0.8554687 0.785157,-0.1054688 0.949219,-0.140625 1.207032,-0.2578125 z m 0,0"
       style="fill:#000000;fill-opacity:1;fill-rule:nonzero;stroke:none"
       aria-label="mantissa"
       transform="matrix(1.3333333,0,0,1.3333333,606.63733,83.26)" />
    <path
       id="path10"
       d="m 2.0043594,-2.8118906 h 2.859375 v -1.125 h -2.859375 v -1.4765625 h 3.2460937 v -1.125 H 0.66842187 V 6.09375e-4 H 2.0043594 Z m 5.5019531,0.4804687 h 1.6757812 c 1.1953123,0 1.9687503,-0.8554687 1.9687503,-2.1796875 0,-1.3007812 -0.738282,-2.0273437 -2.1093753,-2.0273437 H 6.1586562 V 6.09375e-4 h 1.3476563 z m 0,-1.125 v -1.9570312 h 1.2539062 c 0.7148438,0 1.0429688,0.3164062 1.0429688,0.984375 0,0.6679687 -0.328125,0.9726562 -1.0429688,0.9726562 z m 5.8974605,0.609375 c 0.433594,0 0.515625,0.011719 0.738282,0.070312 0.421875,0.1171875 0.691406,0.4804688 0.691406,0.9492188 0,0.5507812 -0.398438,0.96093748 -0.949219,0.96093748 -0.585937,0 -0.914062,-0.33984378 -0.949219,-0.99609378 h -1.21875 c 0.01172,1.27734378 0.84375,2.07421878 2.144532,2.07421878 1.359375,0 2.226562,-0.796875 2.226562,-2.03906248 0,-0.75 -0.328125,-1.2304688 -1.042969,-1.5820313 0.585938,-0.3632812 0.832032,-0.7617187 0.832032,-1.3476562 0,-1.0546875 -0.785157,-1.734375 -2.015625,-1.734375 -0.726563,0 -1.335938,0.2578125 -1.699219,0.7148437 -0.246094,0.3164063 -0.363281,0.75 -0.363281,1.3125 v 0.1054688 h 1.171875 c 0,-0.3398438 0.03516,-0.5039063 0.09375,-0.6679688 0.117187,-0.28125 0.398437,-0.4453125 0.773437,-0.4453125 0.503906,0 0.785156,0.3046875 0.785156,0.8320313 0,0.6328125 -0.363281,0.9609375 -1.113281,0.9609375 h -0.105469 z m 7.634766,1.7226563 h -2.695312 c 0.164062,-0.3398438 0.363281,-0.515625 1.289062,-1.1953125 1.101563,-0.8085938 1.429688,-1.2890625 1.429688,-2.15625 0,-1.2304688 -0.84375,-2.015625 -2.179688,-2.015625 -1.3125,0 -2.085937,0.7851562 -2.085937,2.1210937 0,0.058594 0,0.1289063 0.01172,0.234375 h 1.195313 v -0.2109375 c 0,-0.703125 0.328125,-1.125 0.902344,-1.125 0.5625,0 0.902343,0.3867188 0.902343,1.03125 0,0.6914063 -0.222656,0.9726563 -1.628906,1.96875 -1.066406,0.7382813 -1.40625,1.3007813 -1.464844,2.472656275 h 4.324219 z m 0,0"
       style="fill:#000000;fill-opacity:1;fill-rule:nonzero;stroke:none"
       aria-label="FP32"
       transform="matrix(1.3333333,0,0,1.3333333,5.0853333,83.132)" />
    <path
       id="path11"
       d="m 0.3736,-56.32 h 29.8883 v 34.01616 H 0.3736 Z"
       style="fill:#f7b4f7;fill-opacity:1;fill-rule:nonzero;stroke:#191919;stroke-width:0.74721;stroke-linecap:butt;stroke-linejoin:miter;stroke-miterlimit:10;stroke-dasharray:none;stroke-opacity:1"
       transform="matrix(1.3333333,0,0,-1.3333333,45.909333,102.14933)" />
    <path
       id="path12"
       d="M 2.1329453,-4.3830156 V -2.03125e-4 H 3.3868516 V -6.3517656 H 2.5548203 c -0.1992187,0.75 -0.8554687,1.1367187 -1.94531249,1.1367187 v 0.8320313 z m 5.5253906,1.3125 h -2.4375 v 1.21875 h 2.4375 z m 0.8408203,-3.46875 V -2.03125e-4 H 9.7530625 V -0.49239062 c 0.3046875,0.46875 0.7265625,0.703125 1.3359375,0.703125 1.160156,0 2.039062,-1.1015625 2.039062,-2.56640628 0,-0.65625 -0.199218,-1.3242187 -0.515625,-1.78125 -0.339843,-0.4804687 -0.925781,-0.7851562 -1.523437,-0.7851562 -0.597656,0 -1.03125,0.2226562 -1.3359375,0.703125 v -2.3203125 z m 2.3203128,2.671875 c 0.609375,0 1.054687,0.6210937 1.054687,1.5234375 0,0.8789062 -0.445312,1.49999998 -1.054687,1.49999998 -0.644532,0 -1.0664065,-0.60937498 -1.0664065,-1.53515628 0,-0.8789062 0.4335935,-1.4882812 1.0664065,-1.4882812 z m 4.482422,-0.9726563 h -1.253907 v 4.839843775 h 1.253907 z m 0,-1.6992187 h -1.253907 v 1.125 h 1.253907 z m 3.336914,1.7929687 h -0.691407 v -1.3007812 h -1.265625 v 1.3007812 h -0.609375 v 0.8320313 h 0.609375 v 2.97656248 c 0,0.76171875 0.410157,1.1484375 1.230469,1.1484375 0.28125,0 0.503906,-0.0351563 0.726563,-0.10546875 v -0.87890625 c -0.117188,0.0234375 -0.199219,0.0351563 -0.28125,0.0351563 -0.339844,0 -0.410157,-0.10546875 -0.410157,-0.53906248 v -2.6367187 h 0.691407 z m 0,0"
       style="fill:#000000;fill-opacity:1;fill-rule:nonzero;stroke:none"
       aria-label="1-bit"
       transform="matrix(1.3333333,0,0,1.3333333,53.714667,150.28933)" />
    <path
       id="path13"
       d="m 3.9261016,-3.3859609 c -0.011719,-0.9257813 -0.6210938,-1.4414063 -1.6992188,-1.4414063 -1.1015625,0 -1.80468749,0.5625 -1.80468749,1.4296875 0,0.7382813 0.375,1.0898438 1.48828129,1.359375 l 0.703125,0.1640625 c 0.515625,0.1289063 0.7265625,0.3164063 0.7265625,0.65625 0,0.43359376 -0.4453125,0.73828126 -1.1015625,0.73828126 -0.3984375,0 -0.7382813,-0.1171875 -0.9257813,-0.31640625 C 1.1956328,-0.93674219 1.1370391,-1.0656484 1.0901641,-1.3937734 H 0.30500781 c 0.0351563,1.07812496 0.64453125,1.60546871 1.87499999,1.60546871 1.1835938,0 1.9335938,-0.5859375 1.9335938,-1.48828121 0,-0.703125 -0.3984375,-1.0898438 -1.3242188,-1.3125 L 2.0745391,-2.7648672 c -0.609375,-0.140625 -0.8671875,-0.3398437 -0.8671875,-0.6679687 0,-0.4335938 0.375,-0.703125 0.984375,-0.703125 0.609375,0 0.9257812,0.2578125 0.9492187,0.75 z m 1.9042968,-1.3125 h -0.75 V 7.578125e-4 h 0.75 z m 0,-1.8398438 H 5.0686797 v 0.9492188 h 0.7617187 z m 4.3359376,1.8398438 v 0.6796875 C 9.7913359,-4.5695547 9.3343047,-4.8273672 8.7366484,-4.8273672 c -1.1953125,0 -2.0039062,1.03125 -2.0039062,2.5546875 0,0.7734375 0.2109375,1.40625001 0.5976562,1.85156251 0.3515625,0.3984375 0.84375,0.6328125 1.3359375,0.6328125 0.5976563,0 1.0078125,-0.2578125 1.4296871,-0.84375 v 0.234375 c 0,0.64453125 -0.08203,1.03125 -0.2695308,1.2890625 C 9.6272734,1.1609141 9.2405547,1.3249766 8.7835234,1.3249766 c -0.3398437,0 -0.6445312,-0.082031 -0.84375,-0.2460938 C 7.7639922,0.93825781 7.6936797,0.82107031 7.6468047,0.53982031 H 6.8850859 c 0.082031,0.89062499 0.7734375,1.41796879 1.875,1.41796879 0.703125,0 1.3007811,-0.2226563 1.6054691,-0.5976563 0.363281,-0.43359374 0.492187,-1.03124999 0.492187,-2.13281249 V -4.6984609 Z m -1.3476563,0.5625 c 0.8085937,0 1.2773433,0.6796875 1.2773433,1.8515625 0,1.125 -0.4804683,1.80468746 -1.2773433,1.80468746 -0.8085938,0 -1.3007813,-0.69140626 -1.3007813,-1.82812496 0,-1.1367188 0.5039063,-1.828125 1.3007813,-1.828125 z m 3.2724613,-0.5625 V 7.578125e-4 h 0.75 V -2.5890859 c 0,-0.9609375 0.503906,-1.5820313 1.265625,-1.5820313 0.597656,0 0.972656,0.3515625 0.972656,0.9140625 V 7.578125e-4 h 0.75 V -3.5500234 c 0,-0.7734375 -0.585938,-1.2773438 -1.488281,-1.2773438 -0.703125,0 -1.148438,0.2695313 -1.570313,0.9140625 v -0.7851562 z m 0,0"
       style="fill:#000000;fill-opacity:1;fill-rule:nonzero;stroke:none"
       aria-label="sign"
       transform="matrix(1.3333333,0,0,1.3333333,55.370667,164.90133)" />
    <path
       id="path14"
       d="m 31.00911,-56.32 h 99.62769 v 34.01616 H 31.00911 Z"
       style="fill:#fde2f0;fill-opacity:1;fill-rule:nonzero;stroke:#191919;stroke-width:0.74721;stroke-linecap:butt;stroke-linejoin:miter;stroke-miterlimit:10;stroke-dasharray:none;stroke-opacity:1"
       transform="matrix(1.3333333,0,0,-1.3333333,45.909333,102.14933)" />
    <path
       id="path15"
       d="M 4.3831641,-6.3515859 H 0.98472656 l -0.5625,3.5390625 H 1.5472266 c 0.140625,-0.3164063 0.421875,-0.4921875 0.8085937,-0.4921875 0.6445313,0 1.0195313,0.4570312 1.0195313,1.2304687 0,0.75 -0.3867188,1.20703126 -1.0195313,1.20703126 -0.5390625,0 -0.84375,-0.28124996 -0.8789062,-0.79687496 H 0.24644531 c 0.0117187,1.11328121 0.85546879,1.87499996 2.09765629,1.87499996 1.359375,0 2.296875,-0.9375 2.296875,-2.30859376 0,-1.3007812 -0.8085938,-2.1914062 -1.9921875,-2.1914062 -0.421875,0 -0.7265625,0.1054687 -1.1015625,0.375 l 0.2109375,-1.3242188 h 2.625 z m 3.2753906,3.28125 h -2.4375 v 1.21875 h 2.4375 z m 0.8408203,-3.46875 V -2.34375e-5 H 9.7532813 V -0.49221094 c 0.3046877,0.46875 0.7265627,0.703125 1.3359377,0.703125 1.160156,0 2.039062,-1.1015625 2.039062,-2.56640626 0,-0.65625 -0.199218,-1.3242187 -0.515625,-1.78125 -0.339843,-0.4804687 -0.925781,-0.7851562 -1.523437,-0.7851562 -0.597656,0 -1.03125,0.2226562 -1.3359377,0.703125 v -2.3203125 z m 2.320313,2.671875 c 0.609375,0 1.054687,0.6210937 1.054687,1.5234375 0,0.8789062 -0.445312,1.49999996 -1.054687,1.49999996 -0.644532,0 -1.0664067,-0.60937496 -1.0664067,-1.53515626 0,-0.8789062 0.4335937,-1.4882812 1.0664067,-1.4882812 z m 4.482421,-0.9726563 H 14.048203 V -2.34375e-5 h 1.253906 z m 0,-1.6992187 h -1.253906 v 1.125 h 1.253906 z m 3.333985,1.7929687 h -0.691406 v -1.3007812 h -1.265625 v 1.3007812 h -0.609375 v 0.8320313 h 0.609375 v 2.97656246 c 0,0.76171875 0.410156,1.1484375 1.230468,1.1484375 0.28125,0 0.503907,-0.0351563 0.726563,-0.10546875 v -0.87890625 c -0.117188,0.0234375 -0.199219,0.0351563 -0.28125,0.0351563 -0.339844,0 -0.410156,-0.10546875 -0.410156,-0.53906246 v -2.6367187 h 0.691406 z m 0,0"
       style="fill:#000000;fill-opacity:1;fill-rule:nonzero;stroke:none"
       aria-label="5-bit"
       transform="matrix(1.3333333,0,0,1.3333333,114.98,157.668)" />
    <path
       id="path16"
       d="m 4.5930469,-2.0976797 c 0,-0.7148437 -0.046875,-1.1484375 -0.1875,-1.5 -0.3046875,-0.7734375 -1.0195313,-1.2304687 -1.8984375,-1.2304687 -1.3007813,0 -2.14453127,0.9960937 -2.14453127,2.5429687 0,1.54687501 0.80859377,2.49609376 2.13281247,2.49609376 1.0664063,0 1.8164063,-0.609375 2.0039063,-1.64062496 h -0.75 c -0.2109375,0.62109371 -0.6328125,0.94921871 -1.2304688,0.94921871 -0.4804687,0 -0.8789062,-0.22265625 -1.125,-0.60937501 -0.1875,-0.2695312 -0.2460937,-0.5390625 -0.2578125,-1.0078125 z m -3.4335938,-0.609375 c 0.058594,-0.8671875 0.5859375,-1.4296875 1.3359375,-1.4296875 0.7382813,0 1.3007813,0.609375 1.3007813,1.3710938 0,0.023437 0,0.035156 0,0.058594 z m 6.1699219,0.28125 1.5820313,-2.2734375 h -0.84375 l -1.125,1.6992188 -1.1367188,-1.6992188 h -0.84375 L 6.5325,-2.3906484 4.8684375,-2.34375e-5 H 5.7239063 L 6.9075,-1.8047109 8.0910938,-2.34375e-5 h 0.8671875 z m 2.3496094,4.3828125 h 0.7617186 v -2.44921874 c 0.386719,0.48046875 0.832031,0.703125 1.441406,0.703125 1.207032,0 2.003907,-0.984375 2.003907,-2.48437496 0,-1.5703125 -0.773438,-2.5546875 -2.015625,-2.5546875 -0.632813,0 -1.148438,0.28125 -1.5,0.84375 V -4.6992422 H 9.6789844 Z m 2.0624996,-6.09375 c 0.832032,0 1.371094,0.7265625 1.371094,1.8515625 0,1.0664063 -0.550781,1.79296876 -1.371094,1.79296876 -0.785156,0 -1.300781,-0.71484376 -1.300781,-1.81640626 0,-1.1015625 0.515625,-1.828125 1.300781,-1.828125 z m 4.88086,-0.6914062 c -1.3125,0 -2.109375,0.9375 -2.109375,2.5195312 0,1.57031251 0.785156,2.51953126 2.121094,2.51953126 1.3125,0 2.121093,-0.94921875 2.121093,-2.48437496 0,-1.6289063 -0.773437,-2.5546875 -2.132812,-2.5546875 z m 0.01172,0.6914062 c 0.84375,0 1.347656,0.6796875 1.347656,1.8515625 0,1.1015625 -0.527344,1.80468751 -1.347656,1.80468751 -0.832032,0 -1.347657,-0.69140621 -1.347657,-1.82812501 0,-1.1367187 0.515625,-1.828125 1.347657,-1.828125 z m 3.169921,-0.5625 V -2.34375e-5 h 0.75 V -2.5898672 c 0,-0.9609375 0.503907,-1.5820312 1.265625,-1.5820312 0.597657,0 0.972657,0.3515625 0.972657,0.9140625 V -2.34375e-5 h 0.75 V -3.5508047 c 0,-0.7734375 -0.585938,-1.2773437 -1.488282,-1.2773437 -0.703125,0 -1.148437,0.2695312 -1.570312,0.9140625 v -0.7851563 z m 8.944336,2.6015625 c 0,-0.7148437 -0.04687,-1.1484375 -0.1875,-1.5 -0.304687,-0.7734375 -1.019531,-1.2304687 -1.898437,-1.2304687 -1.300781,0 -2.144531,0.9960937 -2.144531,2.5429687 0,1.54687501 0.808593,2.49609376 2.132812,2.49609376 1.066406,0 1.816406,-0.609375 2.003906,-1.64062496 h -0.75 c -0.210937,0.62109371 -0.632812,0.94921871 -1.230468,0.94921871 -0.480469,0 -0.878907,-0.22265625 -1.125,-0.60937501 -0.1875,-0.2695312 -0.246094,-0.5390625 -0.257813,-1.0078125 z m -3.433593,-0.609375 c 0.05859,-0.8671875 0.585937,-1.4296875 1.335937,-1.4296875 0.738281,0 1.300781,0.609375 1.300781,1.3710938 0,0.023437 0,0.035156 0,0.058594 z m 4.458984,-1.9921875 V -2.34375e-5 h 0.75 V -2.5898672 c 0,-0.9609375 0.503906,-1.5820312 1.265625,-1.5820312 0.597656,0 0.972656,0.3515625 0.972656,0.9140625 V -2.34375e-5 h 0.75 V -3.5508047 c 0,-0.7734375 -0.585937,-1.2773437 -1.488281,-1.2773437 -0.703125,0 -1.148438,0.2695312 -1.570313,0.9140625 v -0.7851563 z m 6.626953,0 h -0.761719 v -1.2890625 h -0.75 v 1.2890625 h -0.632812 v 0.609375 h 0.632812 v 3.55078126 c 0,0.48046875 0.328125,0.75 0.902344,0.75 0.1875,0 0.363281,-0.0234375 0.609375,-0.0703125 v -0.62109375 c -0.09375,0.0234375 -0.210937,0.0351563 -0.351562,0.0351563 -0.328125,0 -0.410157,-0.09375 -0.410157,-0.421875 V -4.0898672 h 0.761719 z m 0,0"
       style="fill:#000000;fill-opacity:1;fill-rule:nonzero;stroke:none"
       aria-label="exponent"
       transform="matrix(1.3333333,0,0,1.3333333,143.54,157.668)" />
    <path
       id="path17"
       d="m 131.384,-56.32 h 199.25537 v 34.01616 H 131.384 Z"
       style="fill:#eca9a7;fill-opacity:1;fill-rule:nonzero;stroke:#191919;stroke-width:0.74721;stroke-linecap:butt;stroke-linejoin:miter;stroke-miterlimit:10;stroke-dasharray:none;stroke-opacity:1"
       transform="matrix(1.3333333,0,0,-1.3333333,45.909333,102.14933)" />
    <path
       id="path18"
       d="M 2.1335703,-4.3821406 V 6.71875e-4 H 3.3874766 V -6.3508906 H 2.5554453 c -0.1992187,0.75 -0.8554687,1.1367187 -1.94531249,1.1367187 v 0.8320313 z m 5.2998047,-2.109375 c -0.6796875,0 -1.265625,0.2929687 -1.6523437,0.8203125 -0.3632813,0.4921875 -0.5390625,1.3007812 -0.5390625,2.53125 0,1.125 0.1523437,1.921875 0.4453125,2.40234373 0.3867187,0.609375 0.9960937,0.94921875 1.7460937,0.94921875 0.6914063,0 1.2539063,-0.28125 1.6523438,-0.8203125 0.3515625,-0.48046878 0.5390625,-1.31249998 0.5390625,-2.49609378 0,-1.1601562 -0.1523438,-1.9453125 -0.4570313,-2.4492187 -0.375,-0.609375 -0.9960937,-0.9375 -1.734375,-0.9375 z m 0,1.0195312 c 0.3164063,0 0.5859375,0.1757813 0.7382813,0.5039063 0.1171875,0.2695312 0.1875,0.9726562 0.1875,1.8398437 0,0.703125 -0.070312,1.4296875 -0.1523438,1.6757813 -0.1523437,0.375 -0.421875,0.58593748 -0.7734375,0.58593748 -0.328125,0 -0.5859375,-0.17578128 -0.7382812,-0.49218748 C 6.5661875,-1.6282344 6.495875,-2.3079219 6.495875,-3.1516719 c 0,-0.7382812 0.070312,-1.4648437 0.1640625,-1.7226562 0.140625,-0.3867188 0.4101563,-0.5976563 0.7734375,-0.5976563 z m 5.208984,2.4023438 h -2.4375 v 1.21875 h 2.4375 z m 0.840821,-3.46875 V 6.71875e-4 h 1.253906 V -0.49151562 c 0.304687,0.46875 0.726562,0.703125 1.335937,0.703125 1.160157,0 2.039063,-1.1015625 2.039063,-2.56640628 0,-0.65625 -0.199219,-1.3242187 -0.515625,-1.78125 -0.339844,-0.4804687 -0.925781,-0.7851562 -1.523438,-0.7851562 -0.597656,0 -1.03125,0.2226562 -1.335937,0.703125 v -2.3203125 z m 2.320312,2.671875 c 0.609375,0 1.054688,0.6210937 1.054688,1.5234375 0,0.8789062 -0.445313,1.49999998 -1.054688,1.49999998 -0.644531,0 -1.066406,-0.60937498 -1.066406,-1.53515628 0,-0.8789062 0.433594,-1.4882812 1.066406,-1.4882812 z m 4.482422,-0.9726563 H 19.032008 V 6.71875e-4 h 1.253906 z m 0,-1.6992187 h -1.253906 v 1.125 h 1.253906 z m 3.336914,1.7929687 h -0.691406 v -1.3007812 h -1.265625 v 1.3007812 h -0.609375 v 0.8320313 h 0.609375 v 2.97656248 c 0,0.76171875 0.410156,1.1484375 1.230469,1.1484375 0.28125,0 0.503906,-0.0351563 0.726562,-0.10546875 v -0.87890625 c -0.117187,0.0234375 -0.199219,0.0351563 -0.28125,0.0351563 -0.339844,0 -0.410156,-0.10546875 -0.410156,-0.53906248 v -2.6367187 h 0.691406 z m 0,0"
       style="fill:#000000;fill-opacity:1;fill-rule:nonzero;stroke:none"
       aria-label="10-bit"
       transform="matrix(1.3333333,0,0,1.3333333,312.40133,158.85067)" />
    <path
       id="path19"
       d="M 0.63284375,-4.6985469 V 6.71875e-4 H 1.3828438 V -2.9524531 c 0,-0.6796875 0.4921875,-1.21875 1.1015625,-1.21875 0.5507812,0 0.8671875,0.3398437 0.8671875,0.9375 V 6.71875e-4 h 0.75 V -2.9524531 c 0,-0.6796875 0.4921875,-1.21875 1.1015625,-1.21875 0.5507812,0 0.8789062,0.3398437 0.8789062,0.9375 V 6.71875e-4 h 0.75 V -3.5266719 c 0,-0.84375 -0.4804687,-1.3007812 -1.359375,-1.3007812 -0.6328125,0 -1.0078125,0.1875 -1.453125,0.7148437 -0.2695312,-0.5039062 -0.6445312,-0.7148437 -1.2539062,-0.7148437 -0.6328125,0 -1.0429688,0.234375 -1.453125,0.796875 V -4.6985469 Z M 12.260773,-0.43292187 c -0.08203,0.0117188 -0.117187,0.0117188 -0.152343,0.0117188 -0.269532,0 -0.410157,-0.12890625 -0.410157,-0.36328125 V -3.5501094 c 0,-0.8320312 -0.609375,-1.2773437 -1.7695308,-1.2773437 -0.6796875,0 -1.2421875,0.1875 -1.5585938,0.5390625 -0.2109375,0.2460937 -0.3046875,0.515625 -0.3164062,0.984375 h 0.75 c 0.058594,-0.5742188 0.3984375,-0.8320313 1.1015625,-0.8320313 0.6679683,0 1.0546873,0.2460938 1.0546873,0.6914063 v 0.1992187 c 0,0.3164063 -0.1875,0.4453125 -0.785156,0.515625 -1.0546876,0.140625 -1.2187501,0.1757813 -1.5000001,0.2929688 -0.5507812,0.2226562 -0.8320312,0.6445312 -0.8320312,1.2539062 0,0.85546878 0.5976562,1.39453128 1.546875,1.39453128 0.5859375,0 1.0664063,-0.210937505 1.5937503,-0.69140625 0.04687,0.46875 0.28125,0.69140625 0.773437,0.69140625 0.152344,0 0.269531,-0.0234375 0.503906,-0.0820313 z M 10.959992,-1.4758906 c 0,0.2460937 -0.08203,0.3984375 -0.304687,0.60937498 -0.304688,0.28125 -0.6679691,0.421875 -1.1132816,0.421875 -0.5742187,0 -0.9140625,-0.28125 -0.9140625,-0.76171878 0,-0.4921875 0.328125,-0.7382812 1.125,-0.8554687 0.7851561,-0.1054688 0.9492191,-0.140625 1.2070311,-0.2578125 z m 2.126953,-3.2226563 V 6.71875e-4 h 0.75 V -2.5891719 c 0,-0.9609375 0.503907,-1.5820312 1.265625,-1.5820312 0.597657,0 0.972657,0.3515625 0.972657,0.9140625 V 6.71875e-4 h 0.75 V -3.5501094 c 0,-0.7734375 -0.585938,-1.2773437 -1.488282,-1.2773437 -0.703125,0 -1.148437,0.2695312 -1.570312,0.9140625 v -0.7851563 z m 6.626953,0 H 18.95218 v -1.2890625 h -0.75 v 1.2890625 h -0.632813 v 0.609375 h 0.632813 v 3.55078128 c 0,0.48046875 0.328125,0.75 0.902343,0.75 0.1875,0 0.363282,-0.0234375 0.609375,-0.0703125 v -0.62109375 c -0.09375,0.0234375 -0.210937,0.0351563 -0.351562,0.0351563 -0.328125,0 -0.410156,-0.09375 -0.410156,-0.421875 V -4.0891719 h 0.761718 z m 1.567383,0 h -0.75 V 6.71875e-4 h 0.75 z m 0,-1.8398437 h -0.761718 v 0.9492187 h 0.761718 z m 4.567383,3.1523437 c -0.01172,-0.9257812 -0.621094,-1.4414062 -1.699219,-1.4414062 -1.101562,0 -1.804687,0.5625 -1.804687,1.4296875 0,0.7382812 0.375,1.0898437 1.488281,1.359375 l 0.703125,0.1640625 c 0.515625,0.1289062 0.726563,0.3164062 0.726563,0.65625 0,0.43359373 -0.445313,0.73828123 -1.101563,0.73828123 -0.398437,0 -0.738281,-0.1171875 -0.925781,-0.31640625 -0.117188,-0.140625 -0.175781,-0.26953128 -0.222656,-0.59765628 H 22.22757 c 0.03516,1.07812503 0.644532,1.60546878 1.875,1.60546878 1.183594,0 1.933594,-0.5859375 1.933594,-1.48828128 0,-0.703125 -0.398437,-1.0898437 -1.324219,-1.3125 l -0.714843,-0.1757812 c -0.609375,-0.140625 -0.867188,-0.3398438 -0.867188,-0.6679688 0,-0.4335937 0.375,-0.703125 0.984375,-0.703125 0.609375,0 0.925781,0.2578125 0.949219,0.75 z m 4.482422,0 c -0.01172,-0.9257812 -0.621094,-1.4414062 -1.699219,-1.4414062 -1.101562,0 -1.804687,0.5625 -1.804687,1.4296875 0,0.7382812 0.375,1.0898437 1.488281,1.359375 l 0.703125,0.1640625 c 0.515625,0.1289062 0.726562,0.3164062 0.726562,0.65625 0,0.43359373 -0.445312,0.73828123 -1.101562,0.73828123 -0.398438,0 -0.738281,-0.1171875 -0.925781,-0.31640625 -0.117188,-0.140625 -0.175782,-0.26953128 -0.222657,-0.59765628 h -0.785156 c 0.03516,1.07812503 0.644531,1.60546878 1.875,1.60546878 1.183594,0 1.933594,-0.5859375 1.933594,-1.48828128 0,-0.703125 -0.398438,-1.0898437 -1.324219,-1.3125 l -0.714844,-0.1757812 c -0.609375,-0.140625 -0.867187,-0.3398438 -0.867187,-0.6679688 0,-0.4335937 0.375,-0.703125 0.984375,-0.703125 0.609375,0 0.925781,0.2578125 0.949219,0.75 z m 5.349609,2.95312503 c -0.08203,0.0117188 -0.117187,0.0117188 -0.152343,0.0117188 -0.269532,0 -0.410157,-0.12890625 -0.410157,-0.36328125 V -3.5501094 c 0,-0.8320312 -0.609375,-1.2773437 -1.769531,-1.2773437 -0.679687,0 -1.242187,0.1875 -1.558594,0.5390625 -0.210937,0.2460937 -0.304687,0.515625 -0.316406,0.984375 h 0.75 c 0.05859,-0.5742188 0.398438,-0.8320313 1.101563,-0.8320313 0.667968,0 1.054687,0.2460938 1.054687,0.6914063 v 0.1992187 c 0,0.3164063 -0.1875,0.4453125 -0.785156,0.515625 -1.054688,0.140625 -1.21875,0.1757813 -1.5,0.2929688 -0.550781,0.2226562 -0.832031,0.6445312 -0.832031,1.2539062 0,0.85546878 0.597656,1.39453128 1.546875,1.39453128 0.585937,0 1.066406,-0.210937505 1.59375,-0.69140625 0.04687,0.46875 0.28125,0.69140625 0.773437,0.69140625 0.152344,0 0.269531,-0.0234375 0.503906,-0.0820313 z M 34.379914,-1.4758906 c 0,0.2460937 -0.08203,0.3984375 -0.304687,0.60937498 -0.304688,0.28125 -0.667969,0.421875 -1.113282,0.421875 -0.574218,0 -0.914062,-0.28125 -0.914062,-0.76171878 0,-0.4921875 0.328125,-0.7382812 1.125,-0.8554687 0.785156,-0.1054688 0.949219,-0.140625 1.207031,-0.2578125 z m 0,0"
       style="fill:#000000;fill-opacity:1;fill-rule:nonzero;stroke:none"
       aria-label="mantissa"
       transform="matrix(1.3333333,0,0,1.3333333,347.60933,158.85067)" />
    <path
       id="path20"
       d="m 2.0043594,-2.8125078 h 2.859375 v -1.125 h -2.859375 v -1.4765625 h 3.2460937 v -1.125 H 0.66842187 V -7.8124999e-6 H 2.0043594 Z m 5.5019531,0.4804687 h 1.6757812 c 1.1953123,0 1.9687503,-0.8554687 1.9687503,-2.1796875 0,-1.3007812 -0.738282,-2.0273437 -2.1093753,-2.0273437 H 6.1586562 V -7.8124999e-6 h 1.3476563 z m 0,-1.125 v -1.9570312 h 1.2539062 c 0.7148438,0 1.0429688,0.3164062 1.0429688,0.984375 0,0.6679687 -0.328125,0.9726562 -1.0429688,0.9726562 z M 13.591273,-4.3828203 V -7.8124999e-6 H 14.84518 V -6.3515703 h -0.832032 c -0.199218,0.75 -0.855468,1.1367187 -1.945312,1.1367187 v 0.8320313 z m 7.400391,-0.5273438 c -0.07031,-0.4101562 -0.140625,-0.6210937 -0.304687,-0.8554687 -0.328125,-0.4570313 -0.914063,-0.7265625 -1.605469,-0.7265625 -0.785156,0 -1.429688,0.3515625 -1.816406,0.984375 -0.386719,0.6210937 -0.539063,1.3359375 -0.539063,2.484375 0,1.1015625 0.140625,1.78125 0.457031,2.28515624 0.375,0.59765625 1.03125,0.94921875 1.792969,0.94921875 1.265625,0 2.121094,-0.94921875 2.121094,-2.33203129 0,-1.21875 -0.75,-2.0625 -1.851563,-2.0625 -0.515625,0 -0.867187,0.1523438 -1.253906,0.5625 0.02344,-0.6679687 0.02344,-0.6679687 0.07031,-0.9375 0.117187,-0.5742187 0.480468,-0.9140625 0.984375,-0.9140625 0.398437,0 0.621093,0.1523438 0.773437,0.5625 z m -2.050781,1.7109375 c 0.585937,0 0.960937,0.4570313 0.960937,1.1601563 0,0.6796875 -0.410156,1.17187499 -0.960937,1.17187499 -0.574219,0 -0.972656,-0.48046879 -0.972656,-1.14843749 0,-0.703125 0.398437,-1.1835938 0.972656,-1.1835938 z m 0,0"
       style="fill:#000000;fill-opacity:1;fill-rule:nonzero;stroke:none"
       aria-label="FP16"
       transform="matrix(1.3333333,0,0,1.3333333,5.0853333,158.72267)" />
    <path
       id="path21"
       d="m 0.3736,-113.01363 h 29.8883 v 34.01616 H 0.3736 Z"
       style="fill:#f7b4f7;fill-opacity:1;fill-rule:nonzero;stroke:#191919;stroke-width:0.74721;stroke-linecap:butt;stroke-linejoin:miter;stroke-miterlimit:10;stroke-dasharray:none;stroke-opacity:1"
       transform="matrix(1.3333333,0,0,-1.3333333,45.909333,102.14933)" />
    <path
       id="path22"
       d="M 2.1329453,-4.3836328 V -8.203125e-4 H 3.3868516 V -6.3523828 H 2.5548203 c -0.1992187,0.75 -0.8554687,1.1367187 -1.94531249,1.1367187 v 0.8320313 z m 5.5253906,1.3125 h -2.4375 v 1.21875 h 2.4375 z m 0.8408203,-3.46875 V -8.203125e-4 H 9.7530625 V -0.49300781 c 0.3046875,0.46875 0.7265625,0.703125 1.3359375,0.703125 1.160156,0 2.039062,-1.1015625 2.039062,-2.56640629 0,-0.65625 -0.199218,-1.3242187 -0.515625,-1.78125 -0.339843,-0.4804687 -0.925781,-0.7851562 -1.523437,-0.7851562 -0.597656,0 -1.03125,0.2226562 -1.3359375,0.703125 v -2.3203125 z m 2.3203128,2.671875 c 0.609375,0 1.054687,0.6210937 1.054687,1.5234375 0,0.8789062 -0.445312,1.49999999 -1.054687,1.49999999 -0.644532,0 -1.0664065,-0.60937499 -1.0664065,-1.53515629 0,-0.8789062 0.4335935,-1.4882812 1.0664065,-1.4882812 z m 4.482422,-0.9726563 h -1.253907 v 4.8398437875 h 1.253907 z m 0,-1.6992187 h -1.253907 v 1.125 h 1.253907 z m 3.336914,1.7929687 h -0.691407 v -1.3007812 h -1.265625 v 1.3007812 h -0.609375 v 0.8320313 h 0.609375 v 2.97656249 c 0,0.76171875 0.410157,1.1484375 1.230469,1.1484375 0.28125,0 0.503906,-0.0351563 0.726563,-0.10546875 v -0.87890625 c -0.117188,0.0234375 -0.199219,0.0351563 -0.28125,0.0351563 -0.339844,0 -0.410157,-0.10546875 -0.410157,-0.53906249 v -2.6367187 h 0.691407 z m 0,0"
       style="fill:#000000;fill-opacity:1;fill-rule:nonzero;stroke:none"
       aria-label="1-bit"
       transform="matrix(1.3333333,0,0,1.3333333,53.714667,225.88)" />
    <path
       id="path23"
       d="m 3.9261016,-3.3865781 c -0.011719,-0.9257813 -0.6210938,-1.4414063 -1.6992188,-1.4414063 -1.1015625,0 -1.80468749,0.5625 -1.80468749,1.4296875 0,0.7382813 0.375,1.0898438 1.48828129,1.359375 l 0.703125,0.1640625 c 0.515625,0.1289063 0.7265625,0.3164063 0.7265625,0.65625 0,0.43359378 -0.4453125,0.73828128 -1.1015625,0.73828128 -0.3984375,0 -0.7382813,-0.1171875 -0.9257813,-0.31640625 C 1.1956328,-0.93735937 1.1370391,-1.0662656 1.0901641,-1.3943906 H 0.30500781 c 0.0351563,1.07812498 0.64453125,1.60546873 1.87499999,1.60546873 1.1835938,0 1.9335938,-0.5859375 1.9335938,-1.48828123 0,-0.703125 -0.3984375,-1.0898438 -1.3242188,-1.3125 L 2.0745391,-2.7654844 c -0.609375,-0.140625 -0.8671875,-0.3398437 -0.8671875,-0.6679687 0,-0.4335938 0.375,-0.703125 0.984375,-0.703125 0.609375,0 0.9257812,0.2578125 0.9492187,0.75 z m 1.9042968,-1.3125 h -0.75 V 1.40625e-4 h 0.75 z m 0,-1.8398438 H 5.0686797 v 0.9492188 h 0.7617187 z m 4.3359376,1.8398438 v 0.6796875 C 9.7913359,-4.5701719 9.3343047,-4.8279844 8.7366484,-4.8279844 c -1.1953125,0 -2.0039062,1.03125 -2.0039062,2.5546875 0,0.7734375 0.2109375,1.40625003 0.5976562,1.85156253 0.3515625,0.3984375 0.84375,0.6328125 1.3359375,0.6328125 0.5976563,0 1.0078125,-0.2578125 1.4296871,-0.84375 v 0.234375 c 0,0.64453125 -0.08203,1.03125 -0.2695308,1.2890625 C 9.6272734,1.1602969 9.2405547,1.3243594 8.7835234,1.3243594 c -0.3398437,0 -0.6445312,-0.082031 -0.84375,-0.2460938 C 7.7639922,0.93764063 7.6936797,0.82045313 7.6468047,0.53920313 H 6.8850859 c 0.082031,0.89062497 0.7734375,1.41796877 1.875,1.41796877 0.703125,0 1.3007811,-0.2226563 1.6054691,-0.5976563 0.363281,-0.43359372 0.492187,-1.03124997 0.492187,-2.13281247 V -4.6990781 Z m -1.3476563,0.5625 c 0.8085937,0 1.2773433,0.6796875 1.2773433,1.8515625 0,1.125 -0.4804683,1.80468748 -1.2773433,1.80468748 -0.8085938,0 -1.3007813,-0.69140628 -1.3007813,-1.82812498 0,-1.1367188 0.5039063,-1.828125 1.3007813,-1.828125 z m 3.2724613,-0.5625 V 1.40625e-4 h 0.75 V -2.5897031 c 0,-0.9609375 0.503906,-1.5820313 1.265625,-1.5820313 0.597656,0 0.972656,0.3515625 0.972656,0.9140625 V 1.40625e-4 h 0.75 V -3.5506406 c 0,-0.7734375 -0.585938,-1.2773438 -1.488281,-1.2773438 -0.703125,0 -1.148438,0.2695313 -1.570313,0.9140625 v -0.7851562 z m 0,0"
       style="fill:#000000;fill-opacity:1;fill-rule:nonzero;stroke:none"
       aria-label="sign"
       transform="matrix(1.3333333,0,0,1.3333333,55.370667,240.492)" />
    <path
       id="path24"
       d="m 31.00911,-113.01363 h 159.4043 v 34.01616 H 31.00911 Z"
       style="fill:#fde2f0;fill-opacity:1;fill-rule:nonzero;stroke:#191919;stroke-width:0.74721;stroke-linecap:butt;stroke-linejoin:miter;stroke-miterlimit:10;stroke-dasharray:none;stroke-opacity:1"
       transform="matrix(1.3333333,0,0,-1.3333333,45.909333,102.14933)" />
    <path
       id="path25"
       d="m 3.6689922,-3.4576719 c 0.2109375,-0.1171875 0.3164062,-0.1875 0.4101562,-0.2695312 0.2578125,-0.2460938 0.4101563,-0.6328125 0.4101563,-1.0429688 0,-0.9960937 -0.8554688,-1.7226562 -2.0273438,-1.7226562 -1.1835937,0 -2.05078121,0.7265625 -2.05078121,1.734375 0,0.609375 0.2578125,0.9960937 0.83203121,1.3007812 -0.73828121,0.3867188 -1.04296871,0.8789063 -1.04296871,1.6289063 0,1.19531248 0.92578121,2.03906248 2.26171871,2.03906248 1.3242188,0 2.25,-0.84375 2.25,-2.03906248 0,-0.75 -0.3046875,-1.2421875 -1.0429687,-1.6289063 z m -1.2070313,-2.015625 c 0.5625,0 0.9492188,0.3398438 0.9492188,0.8320313 0,0.4804687 -0.3984375,0.8320312 -0.9492188,0.8320312 -0.5507812,0 -0.9492187,-0.3515625 -0.9492187,-0.84375 0,-0.4804687 0.3867187,-0.8203125 0.9492187,-0.8203125 z m -0.011719,2.5195313 c 0.6210937,0 1.0078125,0.4101562 1.0078125,1.0664062 0,0.609375 -0.3984375,1.01953128 -1.0078125,1.01953128 -0.609375,0 -0.9960938,-0.41015628 -0.9960938,-1.03124998 0,-0.6445313 0.3984375,-1.0546875 0.9960938,-1.0546875 z m 5.2060547,-0.1171875 h -2.4375 v 1.21875 h 2.4375 z m 0.8408203,-3.46875 V -6.40625e-4 H 9.7510234 V -0.49282812 c 0.3046876,0.46875 0.7265626,0.703125 1.3359376,0.703125 1.160156,0 2.039062,-1.1015625 2.039062,-2.56640628 0,-0.65625 -0.199218,-1.3242187 -0.515625,-1.78125 -0.339843,-0.4804687 -0.925781,-0.7851562 -1.523437,-0.7851562 -0.597656,0 -1.03125,0.2226562 -1.3359376,0.703125 v -2.3203125 z m 2.3203131,2.671875 c 0.609375,0 1.054687,0.6210937 1.054687,1.5234375 0,0.8789062 -0.445312,1.49999998 -1.054687,1.49999998 -0.644532,0 -1.0664069,-0.60937498 -1.0664069,-1.53515628 0,-0.8789062 0.4335939,-1.4882812 1.0664069,-1.4882812 z m 4.482422,-0.9726563 h -1.253907 v 4.839843775 h 1.253907 z m 0,-1.6992187 h -1.253907 v 1.125 h 1.253907 z m 3.336914,1.7929687 h -0.691407 v -1.3007812 h -1.265625 v 1.3007812 h -0.609375 v 0.8320313 h 0.609375 v 2.97656248 c 0,0.76171875 0.410157,1.1484375 1.230469,1.1484375 0.28125,0 0.503906,-0.0351563 0.726563,-0.10546875 v -0.87890625 c -0.117188,0.0234375 -0.199219,0.0351563 -0.28125,0.0351563 -0.339844,0 -0.410157,-0.10546875 -0.410157,-0.53906248 V -3.914703 h 0.691407 z m 0,0"
       style="fill:#000000;fill-opacity:1;fill-rule:nonzero;stroke:none"
       aria-label="8-bit"
       transform="matrix(1.3333333,0,0,1.3333333,154.83067,233.25867)" />
    <path
       id="path26"
       d="m 4.5937188,-2.0982969 c 0,-0.7148437 -0.046875,-1.1484375 -0.1875,-1.5 -0.3046875,-0.7734375 -1.0195313,-1.2304687 -1.8984375,-1.2304687 -1.3007813,0 -2.1445313,0.9960937 -2.1445313,2.5429687 0,1.54687503 0.8085938,2.49609378 2.1328125,2.49609378 1.0664063,0 1.8164063,-0.609375 2.0039063,-1.64062498 h -0.75 C 3.5390313,-0.80923437 3.1171563,-0.48110937 2.5195,-0.48110937 c -0.4804687,0 -0.8789062,-0.22265625 -1.125,-0.60937503 C 1.207,-1.3600156 1.1484063,-1.6295469 1.1366875,-2.0982969 Z M 1.160125,-2.7076719 c 0.058594,-0.8671875 0.5859375,-1.4296875 1.3359375,-1.4296875 0.7382813,0 1.3007813,0.609375 1.3007813,1.3710938 0,0.023437 0,0.035156 0,0.058594 z m 6.1699219,0.28125 1.5820312,-2.2734375 h -0.84375 l -1.125,1.6992188 -1.1367187,-1.6992188 h -0.84375 L 6.5331719,-2.3912656 4.8691094,-6.40625e-4 H 5.7245781 L 6.9081719,-1.8053281 8.0917656,-6.40625e-4 h 0.8671875 z m 2.3496094,4.3828125 h 0.7617187 v -2.44921872 c 0.386719,0.48046875 0.832031,0.703125 1.441406,0.703125 1.207032,0 2.003907,-0.984375 2.003907,-2.48437498 0,-1.5703125 -0.773438,-2.5546875 -2.015625,-2.5546875 -0.632813,0 -1.148438,0.28125 -1.5,0.84375 V -4.6998594 H 9.6796563 Z m 2.0624997,-6.09375 c 0.832032,0 1.371094,0.7265625 1.371094,1.8515625 0,1.0664063 -0.550781,1.79296878 -1.371094,1.79296878 -0.785156,0 -1.300781,-0.71484378 -1.300781,-1.81640628 0,-1.1015625 0.515625,-1.828125 1.300781,-1.828125 z m 4.88086,-0.6914062 c -1.3125,0 -2.109375,0.9375 -2.109375,2.5195312 0,1.57031253 0.785156,2.51953128 2.121093,2.51953128 1.3125,0 2.121094,-0.94921875 2.121094,-2.48437498 0,-1.6289063 -0.773437,-2.5546875 -2.132812,-2.5546875 z m 0.01172,0.6914062 c 0.84375,0 1.347657,0.6796875 1.347657,1.8515625 0,1.1015625 -0.527344,1.80468753 -1.347657,1.80468753 -0.832031,0 -1.347656,-0.69140623 -1.347656,-1.82812503 0,-1.1367187 0.515625,-1.828125 1.347656,-1.828125 z m 3.166993,-0.5625 v 4.699218775 h 0.75 V -2.5904844 c 0,-0.9609375 0.503906,-1.5820312 1.265625,-1.5820312 0.597656,0 0.972656,0.3515625 0.972656,0.9140625 v 3.257812475 h 0.75 V -3.5514219 c 0,-0.7734375 -0.585938,-1.2773437 -1.488281,-1.2773437 -0.703125,0 -1.148438,0.2695312 -1.570313,0.9140625 v -0.7851563 z m 8.947265,2.6015625 c 0,-0.7148437 -0.04687,-1.1484375 -0.1875,-1.5 -0.304687,-0.7734375 -1.019531,-1.2304687 -1.898437,-1.2304687 -1.300782,0 -2.144532,0.9960937 -2.144532,2.5429687 0,1.54687503 0.808594,2.49609378 2.132813,2.49609378 1.066406,0 1.816406,-0.609375 2.003906,-1.64062498 h -0.75 c -0.210937,0.62109373 -0.632812,0.94921873 -1.230469,0.94921873 -0.480468,0 -0.878906,-0.22265625 -1.125,-0.60937503 -0.1875,-0.2695312 -0.246093,-0.5390625 -0.257812,-1.0078125 z M 25.3154,-2.7076719 c 0.05859,-0.8671875 0.585938,-1.4296875 1.335938,-1.4296875 0.738281,0 1.300781,0.609375 1.300781,1.3710938 0,0.023437 0,0.035156 0,0.058594 z m 4.458985,-1.9921875 v 4.699218775 h 0.75 V -2.5904844 c 0,-0.9609375 0.503906,-1.5820312 1.265625,-1.5820312 0.597656,0 0.972656,0.3515625 0.972656,0.9140625 v 3.257812475 h 0.75 V -3.5514219 c 0,-0.7734375 -0.585937,-1.2773437 -1.488281,-1.2773437 -0.703125,0 -1.148438,0.2695312 -1.570313,0.9140625 v -0.7851563 z m 6.624023,0 H 35.63669 v -1.2890625 h -0.75 v 1.2890625 h -0.632813 v 0.609375 h 0.632813 v 3.55078128 c 0,0.48046875 0.328125,0.75 0.902343,0.75 0.1875,0 0.363282,-0.0234375 0.609375,-0.0703125 v -0.62109375 c -0.09375,0.0234375 -0.210937,0.0351563 -0.351562,0.0351563 -0.328125,0 -0.410156,-0.09375 -0.410156,-0.421875 V -4.0904844 h 0.761718 z m 0,0"
       style="fill:#000000;fill-opacity:1;fill-rule:nonzero;stroke:none"
       aria-label="exponent"
       transform="matrix(1.3333333,0,0,1.3333333,183.39067,233.25867)" />
    <path
       id="path27"
       d="m 191.16061,-113.01363 h 139.47876 v 34.01616 H 191.16061 Z"
       style="fill:#eca9a7;fill-opacity:1;fill-rule:nonzero;stroke:#191919;stroke-width:0.74721;stroke-linecap:butt;stroke-linejoin:miter;stroke-miterlimit:10;stroke-dasharray:none;stroke-opacity:1"
       transform="matrix(1.3333333,0,0,-1.3333333,45.909333,102.14933)" />
    <path
       id="path28"
       d="M 4.7330391,-6.3515078 H 0.25647656 v 1.1132812 H 3.4205391 C 3.0338203,-4.8280703 2.2721016,-3.6679141 2.0260078,-3.1054141 1.5806953,-2.1913516 1.3580391,-1.3593203 1.1939766,5.46875e-5 h 1.265625 C 2.5767891,-2.0038516 3.2213203,-3.5507266 4.7330391,-5.3671328 Z m 2.9238281,3.28125 h -2.4375 v 1.21875 h 2.4375 z m 0.8408203,-3.46875 V 5.46875e-5 H 9.7515938 V -0.49213281 c 0.3046872,0.46875 0.7265622,0.703125 1.3359372,0.703125 1.160157,0 2.039063,-1.1015625 2.039063,-2.56640629 0,-0.65625 -0.199219,-1.3242187 -0.515625,-1.78125 -0.339844,-0.4804687 -0.925781,-0.7851562 -1.523438,-0.7851562 -0.597656,0 -1.03125,0.2226562 -1.3359372,0.703125 V -6.5390078 Z M 10.818,-3.8671328 c 0.609375,0 1.054688,0.6210937 1.054688,1.5234375 0,0.8789062 -0.445313,1.49999999 -1.054688,1.49999999 -0.644531,0 -1.0664062,-0.60937499 -1.0664062,-1.53515629 0,-0.8789062 0.4335942,-1.4882812 1.0664062,-1.4882812 z m 4.482422,-0.9726563 H 14.046516 V 5.46875e-5 h 1.253906 z m 0,-1.6992187 h -1.253906 v 1.125 h 1.253906 z m 3.336914,1.7929687 H 17.94593 v -1.3007812 h -1.265625 v 1.3007812 H 16.07093 v 0.8320313 h 0.609375 v 2.97656249 c 0,0.76171875 0.410156,1.1484375 1.230468,1.1484375 0.28125,0 0.503907,-0.0351563 0.726563,-0.10546875 v -0.87890625 c -0.117188,0.0234375 -0.199219,0.0351563 -0.28125,0.0351563 -0.339844,0 -0.410156,-0.10546875 -0.410156,-0.53906249 v -2.6367187 h 0.691406 z m 0,0"
       style="fill:#000000;fill-opacity:1;fill-rule:nonzero;stroke:none"
       aria-label="7-bit"
       transform="matrix(1.3333333,0,0,1.3333333,355.576,234.44133)" />
    <path
       id="path29"
       d="M 0.63335156,-4.6991641 V 5.46875e-5 H 1.3833516 V -2.9530703 c 0,-0.6796875 0.4921875,-1.21875 1.1015625,-1.21875 0.5507812,0 0.8671875,0.3398437 0.8671875,0.9375 V 5.46875e-5 h 0.75 V -2.9530703 c 0,-0.6796875 0.4921875,-1.21875 1.1015625,-1.21875 0.5507812,0 0.8789062,0.3398437 0.8789062,0.9375 V 5.46875e-5 h 0.75 V -3.5272891 c 0,-0.84375 -0.4804687,-1.3007812 -1.359375,-1.3007812 -0.6328125,0 -1.0078125,0.1875 -1.453125,0.7148437 -0.2695312,-0.5039062 -0.6445312,-0.7148437 -1.2539062,-0.7148437 -0.6328125,0 -1.0429688,0.234375 -1.453125,0.796875 V -4.6991641 Z M 12.261281,-0.43353906 c -0.08203,0.0117188 -0.117187,0.0117188 -0.152343,0.0117188 -0.269532,0 -0.410157,-0.12890625 -0.410157,-0.36328125 V -3.5507266 c 0,-0.8320312 -0.609375,-1.2773437 -1.769531,-1.2773437 -0.6796875,0 -1.2421875,0.1875 -1.5585937,0.5390625 -0.2109375,0.2460937 -0.3046875,0.515625 -0.3164063,0.984375 h 0.75 c 0.058594,-0.5742188 0.3984375,-0.8320313 1.1015625,-0.8320313 0.6679685,0 1.0546875,0.2460938 1.0546875,0.6914063 v 0.1992187 c 0,0.3164063 -0.1875,0.4453125 -0.785156,0.515625 -1.0546877,0.140625 -1.2187502,0.1757813 -1.5000002,0.2929688 -0.5507813,0.2226562 -0.8320313,0.6445312 -0.8320313,1.2539062 0,0.85546879 0.5976563,1.39453129 1.546875,1.39453129 0.5859375,0 1.0664065,-0.2109375025 1.5937505,-0.69140625 0.04687,0.46875 0.28125,0.69140625 0.773437,0.69140625 0.152344,0 0.269531,-0.0234375 0.503906,-0.0820313 z M 10.9605,-1.4765078 c 0,0.2460937 -0.08203,0.3984375 -0.304687,0.60937499 -0.304688,0.28125 -0.6679692,0.421875 -1.1132817,0.421875 -0.5742188,0 -0.9140625,-0.28125 -0.9140625,-0.76171879 0,-0.4921875 0.328125,-0.7382812 1.125,-0.8554687 0.7851562,-0.1054688 0.9492192,-0.140625 1.2070312,-0.2578125 z m 2.126953,-3.2226563 V 5.46875e-5 h 0.75 V -2.5897891 c 0,-0.9609375 0.503906,-1.5820312 1.265625,-1.5820312 0.597656,0 0.972656,0.3515625 0.972656,0.9140625 V 5.46875e-5 h 0.75 V -3.5507266 c 0,-0.7734375 -0.585937,-1.2773437 -1.488281,-1.2773437 -0.703125,0 -1.148437,0.2695312 -1.570312,0.9140625 v -0.7851563 z m 6.626953,0 h -0.761718 v -1.2890625 h -0.75 v 1.2890625 h -0.632813 v 0.609375 h 0.632813 v 3.55078129 c 0,0.48046875 0.328125,0.75 0.902343,0.75 0.1875,0 0.363282,-0.0234375 0.609375,-0.0703125 v -0.62109375 c -0.09375,0.0234375 -0.210937,0.0351563 -0.351562,0.0351563 -0.328125,0 -0.410156,-0.09375 -0.410156,-0.421875 V -4.0897891 h 0.761718 z m 1.564453,0 h -0.75 V 5.46875e-5 h 0.75 z m 0,-1.8398437 h -0.761718 v 0.9492187 h 0.761718 z m 4.570313,3.1523437 c -0.01172,-0.9257812 -0.621094,-1.4414062 -1.699219,-1.4414062 -1.101562,0 -1.804687,0.5625 -1.804687,1.4296875 0,0.7382812 0.375,1.0898437 1.488281,1.359375 l 0.703125,0.1640625 c 0.515625,0.1289062 0.726562,0.3164062 0.726562,0.65625 0,0.43359374 -0.445312,0.73828124 -1.101562,0.73828124 -0.398438,0 -0.738281,-0.1171875 -0.925781,-0.31640625 -0.117188,-0.140625 -0.175782,-0.26953129 -0.222657,-0.59765629 h -0.785156 c 0.03516,1.07812504 0.644531,1.60546879 1.875,1.60546879 1.183594,0 1.933594,-0.5859375 1.933594,-1.48828129 0,-0.703125 -0.398438,-1.0898437 -1.324219,-1.3125 l -0.714844,-0.1757812 c -0.609375,-0.140625 -0.867187,-0.3398438 -0.867187,-0.6679688 0,-0.4335937 0.375,-0.703125 0.984375,-0.703125 0.609375,0 0.925781,0.2578125 0.949219,0.75 z m 4.482422,0 c -0.01172,-0.9257812 -0.621094,-1.4414062 -1.699219,-1.4414062 -1.101562,0 -1.804687,0.5625 -1.804687,1.4296875 0,0.7382812 0.375,1.0898437 1.488281,1.359375 l 0.703125,0.1640625 c 0.515625,0.1289062 0.726562,0.3164062 0.726562,0.65625 0,0.43359374 -0.445312,0.73828124 -1.101562,0.73828124 -0.398438,0 -0.738281,-0.1171875 -0.925781,-0.31640625 -0.117188,-0.140625 -0.175782,-0.26953129 -0.222657,-0.59765629 H 26.7105 c 0.03516,1.07812504 0.644531,1.60546879 1.875,1.60546879 1.183594,0 1.933594,-0.5859375 1.933594,-1.48828129 0,-0.703125 -0.398438,-1.0898437 -1.324219,-1.3125 l -0.714844,-0.1757812 c -0.609375,-0.140625 -0.867187,-0.3398438 -0.867187,-0.6679688 0,-0.4335937 0.375,-0.703125 0.984375,-0.703125 0.609375,0 0.925781,0.2578125 0.949219,0.75 z m 5.349609,2.95312504 c -0.08203,0.0117188 -0.117187,0.0117188 -0.152344,0.0117188 -0.269531,0 -0.410156,-0.12890625 -0.410156,-0.36328125 V -3.5507266 c 0,-0.8320312 -0.609375,-1.2773437 -1.769531,-1.2773437 -0.679688,0 -1.242188,0.1875 -1.558594,0.5390625 -0.210937,0.2460937 -0.304687,0.515625 -0.316406,0.984375 h 0.75 c 0.05859,-0.5742188 0.398437,-0.8320313 1.101562,-0.8320313 0.667969,0 1.054688,0.2460938 1.054688,0.6914063 v 0.1992187 c 0,0.3164063 -0.1875,0.4453125 -0.785156,0.515625 -1.054688,0.140625 -1.21875,0.1757813 -1.5,0.2929688 -0.550782,0.2226562 -0.832032,0.6445312 -0.832032,1.2539062 0,0.85546879 0.597657,1.39453129 1.546875,1.39453129 0.585938,0 1.066407,-0.2109375025 1.59375,-0.69140625 0.04687,0.46875 0.28125,0.69140625 0.773438,0.69140625 0.152344,0 0.269531,-0.0234375 0.503906,-0.0820313 z M 34.380422,-1.4765078 c 0,0.2460937 -0.08203,0.3984375 -0.304688,0.60937499 -0.304687,0.28125 -0.667968,0.421875 -1.113281,0.421875 -0.574219,0 -0.914062,-0.28125 -0.914062,-0.76171879 0,-0.4921875 0.328125,-0.7382812 1.125,-0.8554687 0.785156,-0.1054688 0.949218,-0.140625 1.207031,-0.2578125 z m 0,0"
       style="fill:#000000;fill-opacity:1;fill-rule:nonzero;stroke:none"
       aria-label="mantissa"
       transform="matrix(1.3333333,0,0,1.3333333,384.136,234.44133)" />
    <path
       id="path30"
       d="M 0.73954688,-6.25e-4 H 3.6809531 c 0.75,0 1.2539063,-0.140625 1.640625,-0.48046875 C 5.7200156,-0.80921875 5.9661094,-1.36 5.9661094,-1.8873437 c 0,-0.6445313 -0.3398438,-1.1484375 -1.078125,-1.5820313 0.6445312,-0.4101562 0.890625,-0.7851562 0.890625,-1.3476562 0,-0.4453125 -0.2226563,-0.9257813 -0.5859375,-1.2421875 -0.3867188,-0.328125 -0.84375,-0.4804688 -1.546875,-0.4804688 H 0.73954688 Z M 2.0754844,-5.4146875 h 1.4648437 c 0.6210938,0 0.9492188,0.2578125 0.9492188,0.7382813 0,0.4804687 -0.328125,0.7382812 -0.9492188,0.7382812 H 2.0754844 Z m 0,2.6015625 h 1.6054687 c 0.65625,0 0.9960938,0.2929688 0.9960938,0.84375 0,0.5507813 -0.3398438,0.84375 -0.9960938,0.84375 H 2.0754844 Z m 6.4013672,0 h 2.8593754 v -1.125 H 8.4768516 v -1.4765625 h 3.2460934 v -1.125 H 7.1409141 V -6.25e-4 H 8.4768516 Z M 14.084273,-4.3834375 V -6.25e-4 h 1.253907 v -6.3515625 h -0.832032 c -0.199218,0.75 -0.855468,1.1367188 -1.945312,1.1367188 v 0.8320312 z m 7.400391,-0.5273437 c -0.07031,-0.4101563 -0.140625,-0.6210938 -0.304687,-0.8554688 -0.328125,-0.4570312 -0.914063,-0.7265625 -1.605469,-0.7265625 -0.785156,0 -1.429688,0.3515625 -1.816406,0.984375 -0.386719,0.6210938 -0.539063,1.3359375 -0.539063,2.484375 0,1.1015625 0.140625,1.78125 0.457031,2.28515625 0.375,0.59765625 1.03125,0.94921875 1.792969,0.94921875 1.265625,0 2.121094,-0.94921875 2.121094,-2.3320312 0,-1.21875 -0.75,-2.0625 -1.851563,-2.0625 -0.515625,0 -0.867187,0.1523437 -1.253906,0.5625 0.02344,-0.6679688 0.02344,-0.6679688 0.07031,-0.9375 0.117187,-0.5742188 0.480468,-0.9140625 0.984375,-0.9140625 0.398437,0 0.621093,0.1523437 0.773437,0.5625 z m -2.050781,1.7109375 c 0.585937,0 0.960937,0.4570312 0.960937,1.1601562 0,0.6796875 -0.410156,1.171875 -0.960937,1.171875 -0.574219,0 -0.972656,-0.4804687 -0.972656,-1.1484375 0,-0.703125 0.398437,-1.1835937 0.972656,-1.1835937 z m 0,0"
       style="fill:#000000;fill-opacity:1;fill-rule:nonzero;stroke:none"
       aria-label="BF16"
       transform="matrix(1.3333333,0,0,1.3333333,4.428,234.31333)" />
    <path
       id="path31"
       d="m 331.01299,-113.38724 v -14.17338"
       style="fill:none;stroke:#000000;stroke-width:0.74721;stroke-linecap:butt;stroke-linejoin:miter;stroke-miterlimit:10;stroke-dasharray:2.98883, 2.98883;stroke-dashoffset:0;stroke-opacity:1"
       transform="matrix(1.3333333,0,0,-1.3333333,45.909333,102.14933)" />
    <path
       id="path32"
       d="M 331.01299,-113.38724 V 56.69362"
       style="fill:none;stroke:#000000;stroke-width:0.74721;stroke-linecap:butt;stroke-linejoin:miter;stroke-miterlimit:10;stroke-dasharray:2.98883, 2.98883;stroke-dashoffset:0;stroke-opacity:1"
       transform="matrix(1.3333333,0,0,-1.3333333,45.909333,102.14933)" />
    <path
       id="path33"
       d="m 0,48.93675 c 1.94713,3.88321 6.4832,6.46819 12.95891,6.46068 l 139.60315,-0.16188 c 6.47571,-0.0075 11.01176,2.57745 12.95891,6.46068 1.93812,-3.88771 6.46818,-6.48322 12.94389,-6.49073 l 139.60318,-0.16189 c 6.47571,-0.0075 11.00575,-2.60301 12.94389,-6.49072"
       style="fill:none;stroke:#000000;stroke-width:0.79701;stroke-linecap:butt;stroke-linejoin:miter;stroke-miterlimit:10;stroke-dasharray:none;stroke-opacity:1"
       transform="matrix(1.3333333,0,0,-1.3333333,45.909333,102.14933)" />
    <path
       id="path34"
       d="M 2.1341172,-4.3824844 V 3.28125e-4 H 3.3880234 V -6.3512344 H 2.5559922 c -0.1992188,0.75 -0.8554688,1.1367188 -1.94531251,1.1367188 v 0.8320312 z M 9.5315781,-4.9098281 C 9.4612656,-5.3199844 9.3909531,-5.5309219 9.2268906,-5.7652969 8.8987656,-6.2223281 8.3128281,-6.4918594 7.6214219,-6.4918594 c -0.7851563,0 -1.4296875,0.3515625 -1.8164063,0.984375 -0.3867187,0.6210938 -0.5390625,1.3359375 -0.5390625,2.484375 0,1.1015625 0.140625,1.78125 0.4570313,2.28515628 0.375,0.59765625 1.03125,0.94921875 1.7929687,0.94921875 1.265625,0 2.1210938,-0.94921875 2.1210938,-2.33203123 0,-1.21875 -0.75,-2.0625 -1.8515625,-2.0625 -0.515625,0 -0.8671875,0.1523437 -1.2539063,0.5625 0.023437,-0.6679688 0.023437,-0.6679688 0.070312,-0.9375 0.1171875,-0.5742188 0.4804688,-0.9140625 0.984375,-0.9140625 0.3984375,0 0.6210938,0.1523437 0.7734375,0.5625 z m -2.0507812,1.7109375 c 0.5859375,0 0.9609375,0.4570312 0.9609375,1.1601562 0,0.6796875 -0.4101563,1.17187503 -0.9609375,1.17187503 -0.5742188,0 -0.9726563,-0.48046873 -0.9726563,-1.14843753 0,-0.703125 0.3984375,-1.1835937 0.9726563,-1.1835937 z M 13.483727,-6.5387344 V 3.28125e-4 h 1.253906 V -0.49185937 c 0.304687,0.46875 0.726562,0.703125 1.335937,0.703125 1.160157,0 2.039063,-1.1015625 2.039063,-2.56640623 0,-0.65625 -0.199219,-1.3242188 -0.515625,-1.78125 -0.339844,-0.4804688 -0.925781,-0.7851563 -1.523438,-0.7851563 -0.597656,0 -1.03125,0.2226563 -1.335937,0.703125 v -2.3203125 z m 2.320312,2.671875 c 0.609375,0 1.054688,0.6210938 1.054688,1.5234375 0,0.8789063 -0.445313,1.50000003 -1.054688,1.50000003 -0.644531,0 -1.066406,-0.60937503 -1.066406,-1.53515623 0,-0.8789063 0.433594,-1.4882813 1.066406,-1.4882813 z m 4.482422,-0.9726562 H 19.032555 V 3.28125e-4 h 1.253906 z m 0,-1.6992188 h -1.253906 v 1.125 h 1.253906 z m 3.336914,1.7929688 h -0.691406 v -1.3007813 h -1.265625 v 1.3007813 h -0.609375 v 0.8320312 h 0.609375 v 2.97656253 c 0,0.76171875 0.410156,1.1484375 1.230468,1.1484375 0.28125,0 0.503907,-0.0351563 0.726563,-0.10546875 v -0.87890625 c -0.117188,0.0234375 -0.199219,0.0351563 -0.28125,0.0351563 -0.339844,0 -0.410156,-0.10546875 -0.410156,-0.53906253 v -2.6367188 h 0.691406 z m 4.813477,1.4648437 c -0.01172,-1.0195312 -0.808594,-1.640625 -2.097657,-1.640625 -1.230468,0 -1.992187,0.6210938 -1.992187,1.6171875 0,0.3164063 0.09375,0.5976563 0.269531,0.7851563 0.164063,0.1757812 0.316406,0.2460937 0.785156,0.3984375 l 1.5,0.46875 c 0.316407,0.1054687 0.421875,0.1992187 0.421875,0.3984375 0,0.29296873 -0.351562,0.46874998 -0.9375,0.46874998 -0.316406,0 -0.585937,-0.0585938 -0.738281,-0.1640625 -0.140625,-0.10546878 -0.1875,-0.19921878 -0.246094,-0.45703128 h -1.230468 c 0.03516,1.05468753 0.820312,1.61718753 2.285156,1.61718753 0.679687,0 1.183594,-0.15234375 1.546875,-0.43359375 0.351562,-0.29296875 0.574219,-0.73828125 0.574219,-1.20703128 0,-0.6328125 -0.316407,-1.03125 -0.949219,-1.21875 l -1.59375,-0.4570312 c -0.351563,-0.1171875 -0.433594,-0.1875 -0.433594,-0.3867188 0,-0.2695312 0.28125,-0.4453125 0.726563,-0.4453125 0.597656,0 0.890625,0.2226563 0.902343,0.65625 z m 0,0"
       style="fill:#000000;fill-opacity:1;fill-rule:nonzero;stroke:none"
       aria-label="16bits"
       transform="matrix(1.3333333,0,0,1.3333333,247.31467,13.148)" />
    <path
       id="path35"
       d="m 331.01299,48.55843 c 1.93824,3.88765 6.46836,6.483 12.94407,6.49031 l 138.48241,0.15637 c 6.47571,0.0073 11.00586,2.60268 12.94409,6.49034 1.94702,-3.88329 6.483,-6.4684 12.95871,-6.46109 l 138.48242,0.15637 c 6.47571,0.0073 11.01172,-2.5778 12.95873,-6.46107"
       style="fill:none;stroke:#000000;stroke-width:0.79701;stroke-linecap:butt;stroke-linejoin:miter;stroke-miterlimit:10;stroke-dasharray:none;stroke-opacity:1"
       transform="matrix(1.3333333,0,0,-1.3333333,45.909333,102.14933)" />
    <path
       id="path36"
       d="M 2.1318594,-4.3824844 V 3.28125e-4 H 3.3857656 V -6.3512344 H 2.5537344 c -0.1992188,0.75 -0.8554688,1.1367188 -1.94531253,1.1367188 v 0.8320312 z M 9.53225,-4.9098281 C 9.4619375,-5.3199844 9.391625,-5.5309219 9.2275625,-5.7652969 8.8994375,-6.2223281 8.3135,-6.4918594 7.6220937,-6.4918594 c -0.7851562,0 -1.4296875,0.3515625 -1.8164062,0.984375 -0.3867188,0.6210938 -0.5390625,1.3359375 -0.5390625,2.484375 0,1.1015625 0.140625,1.78125 0.4570312,2.28515628 0.375,0.59765625 1.03125,0.94921875 1.7929688,0.94921875 1.265625,0 2.1210937,-0.94921875 2.1210937,-2.33203123 0,-1.21875 -0.75,-2.0625 -1.8515625,-2.0625 -0.515625,0 -0.8671875,0.1523437 -1.2539062,0.5625 0.023437,-0.6679688 0.023437,-0.6679688 0.070312,-0.9375 0.1171875,-0.5742188 0.4804687,-0.9140625 0.984375,-0.9140625 0.3984375,0 0.6210937,0.1523437 0.7734375,0.5625 z m -2.0507813,1.7109375 c 0.5859375,0 0.9609375,0.4570312 0.9609375,1.1601562 0,0.6796875 -0.4101562,1.17187503 -0.9609375,1.17187503 -0.5742187,0 -0.9726562,-0.48046873 -0.9726562,-1.14843753 0,-0.703125 0.3984375,-1.1835937 0.9726562,-1.1835937 z M 13.484398,-6.5387344 V 3.28125e-4 h 1.253907 V -0.49185937 c 0.304687,0.46875 0.726562,0.703125 1.335937,0.703125 1.160156,0 2.039063,-1.1015625 2.039063,-2.56640623 0,-0.65625 -0.199219,-1.3242188 -0.515625,-1.78125 -0.339844,-0.4804688 -0.925782,-0.7851563 -1.523438,-0.7851563 -0.597656,0 -1.03125,0.2226563 -1.335937,0.703125 v -2.3203125 z m 2.320313,2.671875 c 0.609375,0 1.054687,0.6210938 1.054687,1.5234375 0,0.8789063 -0.445312,1.50000003 -1.054687,1.50000003 -0.644531,0 -1.066406,-0.60937503 -1.066406,-1.53515623 0,-0.8789063 0.433593,-1.4882813 1.066406,-1.4882813 z m 4.482422,-0.9726562 H 19.033227 V 3.28125e-4 h 1.253906 z m 0,-1.6992188 h -1.253906 v 1.125 h 1.253906 z m 3.336914,1.7929688 h -0.691406 v -1.3007813 h -1.265625 v 1.3007813 h -0.609375 v 0.8320312 h 0.609375 v 2.97656253 c 0,0.76171875 0.410156,1.1484375 1.230468,1.1484375 0.28125,0 0.503907,-0.0351563 0.726563,-0.10546875 v -0.87890625 c -0.117188,0.0234375 -0.199219,0.0351563 -0.28125,0.0351563 -0.339844,0 -0.410156,-0.10546875 -0.410156,-0.53906253 v -2.6367188 h 0.691406 z m 4.813476,1.4648437 c -0.01172,-1.0195312 -0.808593,-1.640625 -2.097656,-1.640625 -1.230469,0 -1.992187,0.6210938 -1.992187,1.6171875 0,0.3164063 0.09375,0.5976563 0.269531,0.7851563 0.164062,0.1757812 0.316406,0.2460937 0.785156,0.3984375 l 1.5,0.46875 c 0.316406,0.1054687 0.421875,0.1992187 0.421875,0.3984375 0,0.29296873 -0.351562,0.46874998 -0.9375,0.46874998 -0.316406,0 -0.585937,-0.0585938 -0.738281,-0.1640625 -0.140625,-0.10546878 -0.1875,-0.19921878 -0.246094,-0.45703128 h -1.230469 c 0.03516,1.05468753 0.820313,1.61718753 2.285157,1.61718753 0.679687,0 1.183593,-0.15234375 1.546875,-0.43359375 0.351562,-0.29296875 0.574218,-0.73828125 0.574218,-1.20703128 0,-0.6328125 -0.316406,-1.03125 -0.949218,-1.21875 l -1.59375,-0.4570312 c -0.351563,-0.1171875 -0.433594,-0.1875 -0.433594,-0.3867188 0,-0.2695312 0.28125,-0.4453125 0.726562,-0.4453125 0.597657,0 0.890625,0.2226563 0.902344,0.65625 z m 0,0"
       style="fill:#000000;fill-opacity:1;fill-rule:nonzero;stroke:none"
       aria-label="16bits"
       transform="matrix(1.3333333,0,0,1.3333333,687.16533,13.148)" />
  </g>
</svg>
