<?xml version="1.0" encoding="UTF-8" standalone="no"?>
<!-- Created with Inkscape (http://www.inkscape.org/) -->

<svg
   version="1.1"
   id="svg1"
   width="332.05334"
   height="249.40533"
   viewBox="0 0 332.05334 249.40533"
   xmlns="http://www.w3.org/2000/svg"
   xmlns:svg="http://www.w3.org/2000/svg">
  <defs
     id="defs1" />
  <g
     id="g1">
    <path
       id="path1"
       d="m -17.00804,-18.0917 h 34.0161 v 14.17337 h -34.0161 z"
       style="fill:#c8dcff;fill-opacity:1;fill-rule:nonzero;stroke:#4c4c4c;stroke-width:0.79701;stroke-linecap:butt;stroke-linejoin:miter;stroke-miterlimit:10;stroke-dasharray:none;stroke-opacity:1"
       transform="matrix(1.3333333,0,0,-1.3333333,25.452,113.12)" />
    <path
       id="path2"
       d="m 4.8643906,-3.4574688 c 0,-0.6796875 -0.7851562,-1.3007812 -1.8046875,-1.3007812 H 0.41126563 v 0.2460937 h 0.1640625 c 0.53906247,0 0.55078127,0.070312 0.55078127,0.3164063 v 3.6328125 c 0,0.234375 -0.011719,0.31640625 -0.55078127,0.31640625 H 0.41126563 V -4.375e-4 L 1.4542344,-0.023875 2.5089219,-4.375e-4 V -0.24653125 H 2.3331406 c -0.5273437,0 -0.5507812,-0.0703125 -0.5507812,-0.31640625 v -1.59375 h 1.2773437 c 1.0078125,0 1.8046875,-0.5859375 1.8046875,-1.3007813 z m -0.75,0 c 0,0.3164063 0,1.078125 -1.2304687,1.078125 h -1.125 V -4.242625 c 0,-0.2109375 0.011719,-0.2695313 0.3398437,-0.2695313 h 0.7851563 c 1.1601562,0 1.2304687,0.65625 1.2304687,1.0546875 z m 0,0"
       style="fill:#333333;fill-opacity:1;fill-rule:nonzero;stroke:none"
       aria-label="P"
       transform="matrix(1.3333333,0,0,1.3333333,21.881333,130.96933)" />
    <path
       id="path3"
       d="m -17.00804,-33.06209 h 34.0161 v 14.17337 h -34.0161 z"
       style="fill:#ffdcc8;fill-opacity:1;fill-rule:nonzero;stroke:#4c4c4c;stroke-width:0.79701;stroke-linecap:butt;stroke-linejoin:miter;stroke-miterlimit:10;stroke-dasharray:none;stroke-opacity:1"
       transform="matrix(1.3333333,0,0,-1.3333333,25.452,113.12)" />
    <path
       id="path4"
       d="m 5.7293516,-1.6755156 v -0.2460938 c -0.046875,0 -0.5625,0.023437 -0.9023438,0.023437 -0.3632812,0 -0.890625,0 -1.2539062,-0.023437 v 0.2460938 h 0.2578125 c 0.703125,0 0.703125,0.09375 0.703125,0.328125 v 0.44531248 c 0,0.15234375 0,0.421875 -0.3984375,0.62109375 -0.3398438,0.1640625 -0.7382813,0.1640625 -0.8203125,0.1640625 -0.796875,0 -2.0859375,-0.4453125 -2.0859375,-2.26171873 0,-1.8632813 1.3242187,-2.2734375 2.015625,-2.2734375 0.6796875,0 1.5117187,0.4570312 1.6992187,1.6640625 0.011719,0.082031 0.070312,0.082031 0.1289063,0.082031 0.1171875,0 0.1171875,-0.046875 0.1171875,-0.1875 v -1.6289062 c 0,-0.1171875 0,-0.1757813 -0.09375,-0.1757813 -0.023437,0 -0.058594,0 -0.1171875,0.082031 l -0.375,0.5273437 c -0.3398438,-0.3515625 -0.8320313,-0.609375 -1.4414063,-0.609375 -1.453125,0 -2.67187499,1.125 -2.67187499,2.5195313 0,1.3710937 1.18359379,2.51953123 2.68359379,2.51953123 0.3867187,0 1.1601562,-0.0703125 1.4882812,-0.5625 0.1171875,0.1875 0.375,0.421874995 0.4453125,0.421874995 0.082031,0 0.082031,-0.082031245 0.082031,-0.175781245 V -1.3708281 c 0,-0.3046875 0.070312,-0.3046875 0.5390628,-0.3046875 z m 0,0"
       style="fill:#333333;fill-opacity:1;fill-rule:nonzero;stroke:none"
       aria-label="G"
       transform="matrix(1.3333333,0,0,1.3333333,21.341333,150.92933)" />
    <path
       id="path5"
       d="m -17.00804,-90.55272 h 34.0161 v 56.69362 h -34.0161 z"
       style="fill:#dcffc8;fill-opacity:1;fill-rule:nonzero;stroke:#4c4c4c;stroke-width:0.79701;stroke-linecap:butt;stroke-linejoin:miter;stroke-miterlimit:10;stroke-dasharray:none;stroke-opacity:1"
       transform="matrix(1.3333333,0,0,-1.3333333,25.452,113.12)" />
    <path
       id="path6"
       d="m 5.6250547,-2.3566875 c 0,-1.3945312 -1.1484375,-2.5429687 -2.5664063,-2.5429687 -1.4296875,0 -2.56640621,1.1484375 -2.56640621,2.5429687 0,1.37109375 1.13671871,2.49609375 2.56640621,2.49609375 1.4296875,0 2.5664063,-1.125 2.5664063,-2.49609375 z m -0.75,-0.1171875 c 0,1.72265625 -1.0078125,2.37890625 -1.8164063,2.37890625 -0.8203125,0 -1.828125,-0.65625 -1.828125,-2.37890625 0,-1.6171875 1.03125,-2.203125 1.828125,-2.203125 0.7851563,0 1.8164063,0.5859375 1.8164063,2.203125 z m 5.1445313,1.1835938 c 0,-0.6328125 -0.4335938,-1.21875 -1.1367188,-1.3828125 l -1.03125,-0.234375 c -0.609375,-0.140625 -0.796875,-0.5859375 -0.796875,-0.8671875 0,-0.46875 0.421875,-0.9023438 1.0546875,-0.9023438 0.9375,0 1.3476562,0.6210938 1.4648437,1.359375 0.011719,0.1054688 0.011719,0.140625 0.1171875,0.140625 0.1171875,0 0.1171875,-0.046875 0.1171875,-0.1875 v -1.359375 c 0,-0.1171875 0,-0.1757812 -0.09375,-0.1757812 -0.058594,0 -0.070312,0.011719 -0.1171875,0.09375 l -0.2578125,0.3867187 c -0.4570312,-0.46875 -1.03125,-0.4804687 -1.2304687,-0.4804687 -0.8789063,0 -1.5,0.6210937 -1.5,1.3242187 0,0.3984375 0.1757812,0.6914063 0.421875,0.9257813 0.28125,0.28125 0.5039062,0.328125 1.265625,0.4921875 0.6328125,0.140625 0.7734375,0.1640625 0.9726562,0.3632812 0.1640625,0.1640625 0.3046875,0.3867188 0.3046875,0.703125 0,0.48046875 -0.3984375,0.97265625 -1.078125,0.97265625 -0.6679687,0 -1.6054687,-0.2578125 -1.6523437,-1.31249995 C 6.8320859,-1.536375 6.8320859,-1.58325 6.7266172,-1.58325 c -0.1171875,0 -0.1171875,0.046875 -0.1171875,0.1875 v 1.34765625 c 0,0.12890625 0,0.1875 0.09375,0.1875 0.058594,0 0.070312,-0.0234375 0.1171875,-0.08203125 0.058594,-0.08203125 0.1992187,-0.3046875 0.2578125,-0.3984375 0.4335937,0.38671875 0.9726562,0.48046875 1.4179687,0.48046875 0.9257813,0 1.5234376,-0.69140625 1.5234376,-1.42968745 z m 0,0"
       style="fill:#333333;fill-opacity:1;fill-rule:nonzero;stroke:none"
       aria-label="OS"
       transform="matrix(1.3333333,0,0,1.3333333,18.441333,199.236)" />
    <path
       id="path7"
       d="m 4.6653281,-0.470125 c 0,-0.09375 -0.046875,-0.09375 -0.1054687,-0.09375 -0.070312,0 -0.09375,0.0234375 -0.1054688,0.09375 -0.011719,0.28125 -0.1992187,0.41015625 -0.3632812,0.41015625 -0.3398438,0 -0.3867188,-0.375 -0.4335938,-0.69140625 -0.011719,-0.140625 -0.035156,-0.3398437 -0.046875,-0.3984375 -0.082031,-0.2929687 -0.3398437,-0.46875 -0.6328125,-0.5507812 0.3164063,-0.082031 0.9257813,-0.328125 0.9257813,-0.7851563 0,-0.515625 -0.7734375,-0.9140625 -1.59375,-0.9140625 H 0.42314062 v 0.2109375 h 0.15234375 c 0.3984375,0 0.3984375,0.058594 0.3984375,0.2109375 V -0.42325 c 0,0.15234375 0,0.19921875 -0.3984375,0.19921875 H 0.42314062 V -0.001375 L 1.2317344,-0.0248125 2.0403281,-0.001375 V -0.22403125 H 1.8879844 c -0.3984375,0 -0.3984375,-0.046875 -0.3984375,-0.19921875 v -1.1953125 h 0.7617187 c 0.2695313,0 0.5039063,0.070312 0.65625,0.1992188 0.1875,0.1523437 0.1875,0.2695312 0.1875,0.56249995 0,0.38671875 0,0.57421875 0.2578125,0.7734375 0.1992188,0.15234375 0.4921875,0.1875 0.703125,0.1875 0.4804688,0 0.609375,-0.41015625 0.609375,-0.57421875 z M 3.3176719,-2.48575 c 0,0.5742188 -0.5625,0.703125 -1.0664063,0.703125 H 1.4895469 v -1.2070312 c 0,-0.1523438 0.011719,-0.1757813 0.1523437,-0.1992188 h 0.3515625 c 0.5625,0 1.3242188,0 1.3242188,0.703125 z m 4.227539,1.88671875 c 0,-0.0820313 -0.070312,-0.0820313 -0.09375,-0.0820313 -0.082031,0 -0.09375,0.0234375 -0.1171875,0.09375 -0.140625,0.33984375 -0.515625,0.45703125 -0.7851562,0.45703125 -0.4101563,0 -0.6328125,-0.22265625 -0.703125,-0.3046875 C 5.6467734,-0.66934375 5.6467734,-0.98575 5.6467734,-1.126375 h 1.7578125 c 0.1054688,0 0.140625,0 0.140625,-0.1171875 0,-0.328125 -0.1757812,-0.984375 -1.1015625,-0.984375 -0.7617187,0 -1.2890625,0.5390625 -1.2890625,1.125 0,0.6328125 0.5976563,1.16015625 1.359375,1.16015625 0.796875,0 1.03125,-0.5625 1.03125,-0.65625 z m -0.375,-0.67968745 H 5.6584922 c 0.058594,-0.65625 0.5390625,-0.7851563 0.7734375,-0.7851563 0.6914062,0 0.7265625,0.6445313 0.7382812,0.7851563 z M 11.245406,-1.0795 c 0,-0.5976562 -0.550781,-1.125 -1.2890623,-1.125 -0.3867187,0 -0.703125,0.140625 -0.8671875,0.28125 V -2.2045 l -0.84375,0.058594 v 0.222656 c 0.3632813,0 0.421875,0 0.421875,0.2109375 v 2.26171875 c 0,0.15234375 0,0.19921875 -0.328125,0.19921875 h -0.09375 v 0.2109375 c 0.2226563,-0.0117188 0.421875,-0.0117188 0.6445313,-0.0117188 0.2109375,0 0.421875,0 0.6328125,0.0117188 V 0.748625 H 9.429 c -0.328125,0 -0.328125,-0.046875 -0.328125,-0.19921875 V -0.23575 c 0.2226562,0.19921875 0.4921875,0.29296875 0.7734375,0.29296875 0.7499995,0 1.3710935,-0.515625 1.3710935,-1.13671875 z m -0.503906,0 c 0,0.55078125 -0.410156,0.97265625 -0.9023438,0.97265625 -0.2226562,0 -0.4921875,-0.09375 -0.6679687,-0.328125 -0.070312,-0.0820313 -0.070312,-0.09375 -0.070312,-0.1875 V -1.6537187 c 0.2226562,-0.3046875 0.5976562,-0.375 0.796875,-0.375 0.4921865,0 0.8437495,0.4453125 0.8437495,0.9492187 z m 2.52832,1.078125 v -0.22265625 h -0.09375 c -0.316406,0 -0.316406,-0.046875 -0.316406,-0.19921875 v -3.0351562 l -0.84375,0.058594 v 0.2109375 c 0.375,0 0.421875,0.035156 0.421875,0.28125 v 2.484375 c 0,0.15234375 0,0.19921875 -0.328125,0.19921875 h -0.09375 V -0.001375 c 0.210938,-0.01171875 0.421875,-0.0234375 0.621094,-0.0234375 0.210937,0 0.421875,0.01171875 0.632812,0.0234375 z m 1.97168,0 v -0.22265625 c -0.339844,0 -0.375,0 -0.375,-0.19921875 V -2.2045 l -0.820313,0.058594 v 0.222656 c 0.351563,0 0.398438,0.023437 0.398438,0.2695313 V -0.42325 c 0,0.15234375 0,0.19921875 -0.328125,0.19921875 H 14.02275 V -0.001375 c 0.210937,-0.01171875 0.421875,-0.0234375 0.621094,-0.0234375 0.1875,0 0.410156,0.01171875 0.597656,0.0234375 z m -0.328125,-2.9882812 c 0,-0.1640625 -0.128906,-0.3046875 -0.304688,-0.3046875 -0.164062,0 -0.292968,0.140625 -0.292968,0.3046875 0,0.1640625 0.128906,0.3046875 0.292968,0.3046875 0.164063,0 0.304688,-0.140625 0.304688,-0.3046875 z m 3.427734,2.39062495 c 0,-0.0703125 -0.07031,-0.0703125 -0.09375,-0.0703125 -0.08203,0 -0.09375,0.0117188 -0.117187,0.0703125 -0.164063,0.421875 -0.527344,0.46875 -0.75,0.46875 -0.433594,0 -0.902344,-0.28125 -0.902344,-0.94921875 0,-0.2226562 0.04687,-0.4921875 0.234375,-0.703125 0.234375,-0.2695312 0.527344,-0.2695312 0.679688,-0.2695312 0.152343,0 0.292968,0 0.46875,0.046875 -0.07031,0.046875 -0.117188,0.1289062 -0.117188,0.2109375 0,0.1640625 0.128906,0.2695312 0.269531,0.2695312 0.117188,0 0.269532,-0.082031 0.269532,-0.2695312 0,-0.421875 -0.5625,-0.4335938 -0.902344,-0.4335938 -0.984375,0 -1.394531,0.65625 -1.394531,1.1484375 0,0.62109375 0.574218,1.13671875 1.335937,1.13671875 0.855469,0 1.019531,-0.609375 1.019531,-0.65625 z m 3.489258,0.15234375 v -0.28125 H 21.61943 v 0.26953125 c 0,0.046875 0,0.26953125 -0.199219,0.26953125 -0.199219,0 -0.199219,-0.22265625 -0.199219,-0.26953125 V -1.4779375 c 0,-0.4804687 -0.503906,-0.75 -1.125,-0.75 -0.304687,0 -0.878906,0.011719 -0.878906,0.4335938 0,0.1875 0.140625,0.2695312 0.269531,0.2695312 0.128906,0 0.257813,-0.09375 0.257813,-0.2695312 0,-0.1171875 -0.07031,-0.1875 -0.117188,-0.2226563 0.164063,-0.046875 0.410156,-0.046875 0.46875,-0.046875 0.421875,0 0.679688,0.234375 0.679688,0.5859375 v 0.1289063 c -0.480469,0.023437 -0.75,0.046875 -1.136719,0.1757812 -0.328125,0.1171875 -0.609375,0.328125 -0.609375,0.64453125 0,0.46875 0.574219,0.5859375 0.972656,0.5859375 0.386719,0 0.679688,-0.1640625 0.832031,-0.41015625 0.02344,0.17578125 0.140625,0.38671875 0.386719,0.38671875 0.03516,0 0.609375,0 0.609375,-0.48046875 z M 20.77568,-0.7045 c 0,0.5390625 -0.597657,0.59765625 -0.714844,0.59765625 -0.292969,0 -0.574219,-0.1640625 -0.574219,-0.421875 0,-0.1640625 0.105469,-0.62109375 1.289063,-0.66796875 z m 3.495117,0.0703125 v -0.26953125 h -0.210938 v 0.2578125 c 0,0.375 -0.222656,0.515625 -0.398437,0.515625 -0.375,0 -0.375,-0.3984375 -0.375,-0.50390625 V -1.92325 h 0.878906 v -0.2226562 h -0.878906 v -0.9140625 h -0.210938 c -0.01172,0.46875 -0.257812,0.9492187 -0.761718,0.9609375 V -1.92325 h 0.527343 v 1.2890625 c 0,0.57421875 0.46875,0.69140625 0.773438,0.69140625 0.375,0 0.65625,-0.28125 0.65625,-0.69140625 z m 3.205078,0.0351563 c 0,-0.0820313 -0.07031,-0.0820313 -0.09375,-0.0820313 -0.08203,0 -0.09375,0.0234375 -0.117188,0.09375 -0.140625,0.33984375 -0.515625,0.45703125 -0.785156,0.45703125 -0.410156,0 -0.632812,-0.22265625 -0.703125,-0.3046875 C 25.577437,-0.66934375 25.577437,-0.98575 25.577437,-1.126375 h 1.757813 c 0.105469,0 0.140625,0 0.140625,-0.1171875 0,-0.328125 -0.175781,-0.984375 -1.101563,-0.984375 -0.761718,0 -1.289062,0.5390625 -1.289062,1.125 0,0.6328125 0.597656,1.16015625 1.359375,1.16015625 0.796875,0 1.03125,-0.5625 1.03125,-0.65624995 z m -0.375,-0.6796874 h -1.511719 c 0.05859,-0.65625 0.539063,-0.7851564 0.773438,-0.7851564 0.691406,0 0.726562,0.6445314 0.738281,0.7851564 z m 4.051758,1.27734365 V -0.2240312 c -0.363281,0 -0.410156,-0.0351563 -0.410156,-0.28125 v -2.953125 l -0.84375,0.058594 v 0.2109375 c 0.375,0 0.421875,0.035156 0.421875,0.28125 v 0.9726563 C 30.203414,-2.0287187 29.933883,-2.2045 29.523727,-2.2045 c -0.75,0 -1.359375,0.5039063 -1.359375,1.1367188 0,0.5976562 0.5625,1.12499995 1.300781,1.12499995 0.410156,0 0.691406,-0.1875 0.832031,-0.3046875 v 0.3046875 z m -0.855469,-0.5390625 c -0.234375,0.36328125 -0.609375,0.43359375 -0.796875,0.43359375 -0.257812,0 -0.503906,-0.10546875 -0.667969,-0.328125 -0.164062,-0.19921875 -0.175781,-0.48046875 -0.175781,-0.6328124 0,-0.140625 0.01172,-0.46875 0.222656,-0.6914064 0.175782,-0.1875 0.433594,-0.28125 0.679688,-0.28125 0.140625,0 0.503906,0.035156 0.738281,0.375 z m 0,0"
       style="fill:#000000;fill-opacity:1;fill-rule:nonzero;stroke:none"
       aria-label="Replicated"
       transform="matrix(1.3333333,0,0,1.3333333,4.428,243.68933)" />
    <path
       id="path8"
       d="M 18.3831,-18.0917 H 52.3992 V -3.91833 H 18.3831 Z"
       style="fill:#c8dcff;fill-opacity:1;fill-rule:nonzero;stroke:#4c4c4c;stroke-width:0.79701;stroke-linecap:butt;stroke-linejoin:miter;stroke-miterlimit:10;stroke-dasharray:none;stroke-opacity:1"
       transform="matrix(1.3333333,0,0,-1.3333333,25.452,113.12)" />
    <path
       id="path9"
       d="m 4.8640156,-3.4574688 c 0,-0.6796875 -0.7851562,-1.3007812 -1.8046875,-1.3007812 H 0.41089063 v 0.2460937 h 0.1640625 c 0.53906247,0 0.55078127,0.070312 0.55078127,0.3164063 v 3.6328125 c 0,0.234375 -0.011719,0.31640625 -0.55078127,0.31640625 H 0.41089063 V -4.375e-4 L 1.4538594,-0.023875 2.5085469,-4.375e-4 V -0.24653125 H 2.3327656 c -0.5273437,0 -0.5507812,-0.0703125 -0.5507812,-0.31640625 v -1.59375 h 1.2773437 c 1.0078125,0 1.8046875,-0.5859375 1.8046875,-1.3007813 z m -0.75,0 c 0,0.3164063 0,1.078125 -1.2304687,1.078125 h -1.125 V -4.242625 c 0,-0.2109375 0.011719,-0.2695313 0.3398437,-0.2695313 h 0.7851563 c 1.1601562,0 1.2304687,0.65625 1.2304687,1.0546875 z m 0,0"
       style="fill:#333333;fill-opacity:1;fill-rule:nonzero;stroke:none"
       aria-label="P"
       transform="matrix(1.3333333,0,0,1.3333333,69.069333,130.96933)" />
    <path
       id="path10"
       d="m 18.3874,-33.06209 h 34.0161 v 14.17337 H 18.3874 Z"
       style="fill:#ffdcc8;fill-opacity:1;fill-rule:nonzero;stroke:#4c4c4c;stroke-width:0.79701;stroke-linecap:butt;stroke-linejoin:miter;stroke-miterlimit:10;stroke-dasharray:none;stroke-opacity:1"
       transform="matrix(1.3333333,0,0,-1.3333333,25.452,113.12)" />
    <path
       id="path11"
       d="m 5.7308359,-1.6755156 v -0.2460938 c -0.046875,0 -0.5625,0.023437 -0.9023437,0.023437 -0.3632813,0 -0.890625,0 -1.2539063,-0.023437 v 0.2460938 h 0.2578125 c 0.703125,0 0.703125,0.09375 0.703125,0.328125 v 0.44531248 c 0,0.15234375 0,0.421875 -0.3984375,0.62109375 -0.3398437,0.1640625 -0.7382812,0.1640625 -0.8203125,0.1640625 -0.796875,0 -2.0859375,-0.4453125 -2.0859375,-2.26171873 0,-1.8632813 1.3242188,-2.2734375 2.015625,-2.2734375 0.6796875,0 1.5117188,0.4570312 1.6992188,1.6640625 0.011719,0.082031 0.070312,0.082031 0.1289062,0.082031 0.1171875,0 0.1171875,-0.046875 0.1171875,-0.1875 v -1.6289062 c 0,-0.1171875 0,-0.1757813 -0.09375,-0.1757813 -0.023437,0 -0.058594,0 -0.1171875,0.082031 l -0.375,0.5273437 c -0.3398437,-0.3515625 -0.8320312,-0.609375 -1.4414062,-0.609375 -1.453125,0 -2.67187501,1.125 -2.67187501,2.5195313 0,1.3710937 1.18359371,2.51953123 2.68359371,2.51953123 0.3867188,0 1.1601563,-0.0703125 1.4882813,-0.5625 0.1171875,0.1875 0.375,0.421874995 0.4453125,0.421874995 0.082031,0 0.082031,-0.082031245 0.082031,-0.175781245 V -1.3708281 c 0,-0.3046875 0.070312,-0.3046875 0.5390627,-0.3046875 z m 0,0"
       style="fill:#333333;fill-opacity:1;fill-rule:nonzero;stroke:none"
       aria-label="G"
       transform="matrix(1.3333333,0,0,1.3333333,68.534667,150.92933)" />
    <path
       id="path12"
       d="m 18.39172,-47.47418 h 34.0161 v 13.61507 h -34.0161 z"
       style="fill:#dcffc8;fill-opacity:1;fill-rule:nonzero;stroke:#4c4c4c;stroke-width:0.79701;stroke-linecap:butt;stroke-linejoin:miter;stroke-miterlimit:10;stroke-dasharray:none;stroke-opacity:1"
       transform="matrix(1.3333333,0,0,-1.3333333,25.452,113.12)" />
    <path
       id="path13"
       d="m 5.6246641,-2.3544922 c 0,-1.3945312 -1.1484375,-2.5429687 -2.5664063,-2.5429687 -1.4296875,0 -2.56640624,1.1484375 -2.56640624,2.5429687 0,1.37109376 1.13671874,2.49609376 2.56640624,2.49609376 1.4296875,0 2.5664063,-1.125 2.5664063,-2.49609376 z m -0.75,-0.1171875 c 0,1.72265626 -1.0078125,2.37890626 -1.8164063,2.37890626 -0.8203125,0 -1.828125,-0.65625 -1.828125,-2.37890626 0,-1.6171875 1.03125,-2.203125 1.828125,-2.203125 0.7851563,0 1.8164063,0.5859375 1.8164063,2.203125 z m 5.1445309,1.1835938 c 0,-0.6328125 -0.4335934,-1.21875 -1.1367184,-1.3828125 l -1.03125,-0.234375 c -0.609375,-0.140625 -0.796875,-0.5859375 -0.796875,-0.8671875 0,-0.46875 0.421875,-0.9023438 1.0546875,-0.9023438 0.9375,0 1.3476562,0.6210938 1.4648437,1.359375 0.011719,0.1054688 0.011719,0.140625 0.1171875,0.140625 0.1171875,0 0.1171875,-0.046875 0.1171875,-0.1875 v -1.359375 c 0,-0.1171875 0,-0.1757812 -0.09375,-0.1757812 -0.058594,0 -0.070312,0.011719 -0.1171875,0.09375 l -0.2578125,0.3867187 c -0.4570312,-0.46875 -1.03125,-0.4804687 -1.2304687,-0.4804687 -0.8789063,0 -1.5,0.6210937 -1.5,1.3242187 0,0.3984375 0.1757812,0.6914063 0.421875,0.9257813 0.28125,0.28125 0.5039062,0.328125 1.265625,0.4921875 0.6328125,0.140625 0.7734375,0.1640625 0.9726562,0.3632812 0.1640625,0.1640625 0.3046875,0.3867188 0.3046875,0.703125 0,0.48046876 -0.3984375,0.97265626 -1.078125,0.97265626 -0.6679687,0 -1.6054687,-0.2578125 -1.6523437,-1.31249996 -0.011719,-0.1054688 -0.011719,-0.1523438 -0.1171875,-0.1523438 -0.1171875,0 -0.1171875,0.046875 -0.1171875,0.1875 v 1.34765626 c 0,0.12890625 0,0.1875 0.09375,0.1875 0.058594,0 0.070312,-0.0234375 0.1171875,-0.08203125 0.058594,-0.08203125 0.1992187,-0.3046875 0.2578125,-0.3984375 0.4335937,0.38671875 0.9726562,0.48046875 1.4179687,0.48046875 0.9257813,0 1.5234372,-0.69140625 1.5234372,-1.42968746 z m 3.966797,-3.7617188 c 0,-0.1171875 -0.09375,-0.1757812 -0.164062,-0.1757812 -0.117188,0 -0.152344,0.082031 -0.1875,0.1757812 l -2.589844,6.4921875 c -0.03516,0.082031 -0.03516,0.1289063 -0.03516,0.1289063 0,0.1171875 0.09375,0.1757812 0.164062,0.1757812 0.117188,0 0.152344,-0.082031 0.1875,-0.1757812 l 2.589844,-6.5039063 c 0.03516,-0.082031 0.03516,-0.1171875 0.03516,-0.1171875 z m 5.982422,0.5390625 v -0.2460937 c -0.292969,0.011719 -0.574219,0.023437 -0.855469,0.023437 -0.28125,0 -0.5625,-0.011719 -0.855468,-0.023437 v 0.2460937 c 0.726562,0 0.726562,0.3164063 0.726562,0.5039063 v 2.953125 l -2.683594,-3.5976563 c -0.07031,-0.1054687 -0.08203,-0.1054687 -0.222656,-0.1054687 h -1.207031 v 0.2460937 h 0.210937 c 0.304688,0 0.480469,0.035156 0.515625,0.046875 v 3.71484376 c 0,0.1875 0,0.50390625 -0.726562,0.50390625 V 9.765625e-4 C 15.163727,-0.02246094 15.444977,-0.02246094 15.726227,-0.02246094 c 0.28125,0 0.5625,0 0.855468,0.0234375025 V -0.24511719 c -0.726562,0 -0.726562,-0.31640625 -0.726562,-0.50390625 V -4.2763672 l 3.09375,4.17187501 c 0.07031,0.09375 0.08203,0.1054687525 0.164062,0.1054687525 0.128907,0 0.128907,-0.0585937525 0.128907,-0.1992187525 V -4.0068359 c 0,-0.1875 0,-0.5039063 0.726562,-0.5039063 z m 0,0"
       style="fill:#333333;fill-opacity:1;fill-rule:nonzero;stroke:none"
       aria-label="OS/N"
       transform="matrix(1.3333333,0,0,1.3333333,59.074667,169.66667)" />
    <path
       id="path14"
       d="m 3.2473516,-0.90317969 c 0,-0.37500001 -0.2226563,-0.59765621 -0.3164063,-0.67968751 -0.234375,-0.2226562 -0.5039062,-0.28125 -0.9140625,-0.3515625 -0.28125,-0.058594 -0.5625,-0.1171875 -0.6210937,-0.1289062 -0.1992188,-0.035156 -0.60937504,-0.2226563 -0.60937504,-0.5976563 0,-0.328125 0.37500004,-0.6445312 0.91406254,-0.6445312 0.890625,0 1.1015625,0.5859375 1.1601562,0.9492187 0.011719,0.070312 0.035156,0.082031 0.1054688,0.082031 0.1054687,0 0.1054687,-0.035156 0.1054687,-0.140625 v -0.9609375 c 0,-0.082031 0,-0.140625 -0.082031,-0.140625 -0.023437,0 -0.046875,0 -0.09375,0.070312 L 2.6965705,-3.1531805 C 2.4621955,-3.3758367 2.157508,-3.5164617 1.7004768,-3.5164617 c -0.70312504,0 -1.21875004,0.4453125 -1.21875004,0.9492187 0,0.2695313 0.15234375,0.4921875 0.3046875,0.6210938 0.25781254,0.2109375 0.50390624,0.2578125 0.73828124,0.3046875 l 0.7851563,0.1523437 c 0.328125,0.082031 0.6328125,0.328125 0.6328125,0.66796876 0,0.3515625 -0.3515625,0.71484375 -0.9257813,0.71484375 -0.2226562,0 -0.6445312,-0.0351563 -0.9492187,-0.234375 -0.23437504,-0.1640625 -0.36328129,-0.38671875 -0.37500004,-0.67968751 0,-0.082031 0,-0.1054687 -0.10546875,-0.1054687 -0.10546875,0 -0.10546875,0.035156 -0.10546875,0.14062496 v 0.94921875 c 0,0.09375 0,0.140625 0.0820313,0.140625 0.046875,0 0.0585938,-0.01171875 0.09375,-0.05859375 0.0234375,-0.0234375 0.1875,-0.28125 0.1875,-0.28125 0.37500004,0.28125 0.83203134,0.33984375 1.17187504,0.33984375 0.75,0 1.2304688,-0.4921875 1.2304685,-1.0078117 z M 7.1350469,-8.359375e-4 V -0.22349219 h -0.082031 c -0.328125,0 -0.328125,-0.046875 -0.328125,-0.19921875 V -1.5008359 c 0,-0.5507813 -0.375,-0.703125 -0.8320312,-0.703125 -0.5742188,0 -0.8320313,0.3398437 -0.9140625,0.4570312 v -1.7109375 l -0.8320313,0.058594 v 0.2109375 c 0.3632813,0 0.4101563,0.035156 0.4101563,0.28125 v 2.48437496 c 0,0.15234375 0,0.19921875 -0.3164063,0.19921875 h -0.09375 V -8.359375e-4 C 4.3577031,-0.01255469 4.5686406,-0.02427344 4.7795781,-0.02427344 c 0.2109375,0 0.421875,0.01171875 0.6328125,0.0234375025 V -0.22349219 h -0.082031 c -0.328125,0 -0.328125,-0.046875 -0.328125,-0.19921875 V -1.2898984 c 0,-0.5625 0.515625,-0.75 0.8320312,-0.75 0.3632813,0 0.4453125,0.2109375 0.4453125,0.5273437 v 1.08984376 c 0,0.15234375 0,0.19921875 -0.3164062,0.19921875 h -0.09375 V -8.359375e-4 C 6.0803594,-0.01255469 6.2912969,-0.02427344 6.5022344,-0.02427344 c 0.2109375,0 0.421875,0.01171875 0.6328125,0.0234375025 z M 10.636023,-0.44614844 v -0.28125 h -0.210937 v 0.26953125 c 0,0.046875 0,0.26953125 -0.199219,0.26953125 -0.199219,0 -0.199219,-0.22265625 -0.199219,-0.26953125 V -1.4773984 c 0,-0.4804688 -0.5039058,-0.75 -1.1249996,-0.75 -0.3046875,0 -0.8789062,0.011719 -0.8789062,0.4335937 0,0.1875 0.140625,0.2695313 0.2695312,0.2695313 0.1289063,0 0.2578125,-0.09375 0.2578125,-0.2695313 0,-0.1171875 -0.070312,-0.1875 -0.1171875,-0.2226562 0.1640625,-0.046875 0.4101563,-0.046875 0.46875,-0.046875 0.421875,0 0.6796875,0.234375 0.6796875,0.5859375 v 0.1289062 c -0.4804687,0.023437 -0.75,0.046875 -1.1367187,0.1757813 -0.328125,0.1171875 -0.609375,0.32812496 -0.609375,0.64453121 0,0.46875 0.5742187,0.5859375 0.9726562,0.5859375 0.3867188,0 0.6796875,-0.1640625 0.8320313,-0.41015625 0.023437,0.17578125 0.140625,0.38671875 0.3867183,0.38671875 0.03516,0 0.609375,0 0.609375,-0.48046875 z m -1.0546871,-0.2578125 c 0,0.5390625 -0.5976562,0.59765625 -0.7148437,0.59765625 -0.2929688,0 -0.5742188,-0.1640625 -0.5742188,-0.421875 0,-0.1640625 0.1054688,-0.62109371 1.2890625,-0.66796871 z M 13.255164,-1.8641172 c 0,-0.1875 -0.1875,-0.3398437 -0.445312,-0.3398437 -0.246094,0 -0.574219,0.1289062 -0.761719,0.5507812 h -0.01172 v -0.5507812 l -0.796875,0.058594 v 0.2226563 c 0.375,0 0.421875,0.023437 0.421875,0.2695312 v 1.23046876 c 0,0.15234375 0,0.19921875 -0.328125,0.19921875 h -0.09375 V -8.359375e-4 C 11.450477,-0.01255469 11.673133,-0.02427344 11.88407,-0.02427344 l 0.714844,0.0234375025 V -0.22349219 h -0.140625 c -0.375,0 -0.375,-0.046875 -0.375,-0.19921875 V -1.1141172 c 0,-0.46875 0.257813,-0.9140625 0.738281,-0.9257812 0,0 -0.07031,0.070312 -0.07031,0.1757812 0,0.1875 0.140625,0.2578125 0.246094,0.2578125 0.128906,0 0.257812,-0.082031 0.257812,-0.2578125 z m 3.65918,1.8632812625 V -0.22349219 c -0.363282,0 -0.410157,-0.0351562 -0.410157,-0.28125 V -3.4578672 l -0.843749,0.058594 v 0.2109375 c 0.374999,0 0.421874,0.035156 0.421874,0.28125 v 0.9726562 c -0.117187,-0.09375 -0.386718,-0.2695312 -0.796874,-0.2695312 -0.75,0 -1.359375,0.5039062 -1.359375,1.1367187 0,0.59765626 0.5625,1.12500001 1.300781,1.12500001 0.410156,0 0.691406,-0.1875 0.832031,-0.3046875 v 0.3046875 z M 16.058875,-0.53989844 C 15.8245,-0.17661719 15.4495,-0.10630469 15.262,-0.10630469 c -0.257812,0 -0.503906,-0.10546875 -0.667969,-0.328125 -0.164062,-0.19921875 -0.175781,-0.48046875 -0.175781,-0.63281251 0,-0.140625 0.01172,-0.46875 0.222656,-0.6914062 0.175782,-0.1875 0.433594,-0.28125 0.679688,-0.28125 0.140625,0 0.503906,0.035156 0.738281,0.375 z m 8.220703,-1.14843746 c 0,-0.984375 -0.902344,-1.828125 -2.074219,-1.828125 -1.183593,0 -2.074218,0.8554687 -2.074218,1.828125 0,0.97265621 0.914062,1.79296871 2.074218,1.79296871 1.183594,0 2.074219,-0.83203125 2.074219,-1.79296871 z m -0.574219,-0.070312 c 0,1.16015621 -0.773437,1.68749996 -1.5,1.68749996 -0.75,0 -1.488281,-0.55078125 -1.488281,-1.68749996 0,-1.0898438 0.773438,-1.5703125 1.488281,-1.5703125 0.75,0 1.5,0.5039062 1.5,1.5703125 z m 4.3125,0.85546871 c 0,-0.37500001 -0.222656,-0.59765621 -0.316406,-0.67968751 -0.234375,-0.2226562 -0.503906,-0.28125 -0.914062,-0.3515625 -0.28125,-0.058594 -0.5625,-0.1171875 -0.621094,-0.1289062 -0.199219,-0.035156 -0.609375,-0.2226563 -0.609375,-0.5976563 0,-0.328125 0.375,-0.6445312 0.914062,-0.6445312 0.890625,0 1.101563,0.5859375 1.160157,0.9492187 0.01172,0.070312 0.03516,0.082031 0.105468,0.082031 0.105469,0 0.105469,-0.035156 0.105469,-0.140625 v -0.9609375 c 0,-0.082031 0,-0.140625 -0.08203,-0.140625 -0.02344,0 -0.04687,0 -0.09375,0.070312 L 27.467079,-3.15318 c -0.234375,-0.2226562 -0.539062,-0.3632812 -0.996094,-0.3632812 -0.703125,0 -1.21875,0.4453125 -1.21875,0.9492187 0,0.2695313 0.152344,0.4921875 0.304688,0.6210938 0.257812,0.2109375 0.503906,0.2578125 0.738281,0.3046875 l 0.785156,0.1523437 c 0.328125,0.082031 0.632813,0.328125 0.632813,0.66796876 0,0.3515625 -0.351563,0.71484375 -0.925781,0.71484375 -0.222657,0 -0.644532,-0.0351563 -0.949219,-0.234375 -0.234375,-0.1640625 -0.363281,-0.38671875 -0.375,-0.67968751 0,-0.082031 0,-0.1054687 -0.105469,-0.1054687 -0.105469,0 -0.105469,0.035156 -0.105469,0.14062496 v 0.94921875 c 0,0.09375 0,0.140625 0.08203,0.140625 0.04687,0 0.05859,-0.01171875 0.09375,-0.05859375 0.02344,-0.0234375 0.1875,-0.28125 0.1875,-0.28125 0.375,0.28125 0.832031,0.33984375 1.171875,0.33984375 0.75,0 1.230468,-0.4921875 1.230468,-1.0078125 z m 0,0"
       style="fill:#000000;fill-opacity:1;fill-rule:nonzero;stroke:none"
       aria-label="ShardOS"
       transform="matrix(1.3333333,0,0,1.3333333,53.650667,186.32533)" />
    <path
       id="path15"
       d="M 53.7786,-18.0917 H 87.7947 V -3.91833 H 53.7786 Z"
       style="fill:#c8dcff;fill-opacity:1;fill-rule:nonzero;stroke:#4c4c4c;stroke-width:0.79701;stroke-linecap:butt;stroke-linejoin:miter;stroke-miterlimit:10;stroke-dasharray:none;stroke-opacity:1"
       transform="matrix(1.3333333,0,0,-1.3333333,25.452,113.12)" />
    <path
       id="path16"
       d="m 4.8625703,-3.4574688 c 0,-0.6796875 -0.7851562,-1.3007812 -1.8046875,-1.3007812 H 0.40944531 v 0.2460937 h 0.1640625 c 0.53906249,0 0.55078129,0.070312 0.55078129,0.3164063 v 3.6328125 c 0,0.234375 -0.011719,0.31640625 -0.55078129,0.31640625 H 0.40944531 V -4.375e-4 L 1.4524141,-0.023875 2.5071016,-4.375e-4 V -0.24653125 H 2.3313203 c -0.5273437,0 -0.5507812,-0.0703125 -0.5507812,-0.31640625 v -1.59375 h 1.2773437 c 1.0078125,0 1.8046875,-0.5859375 1.8046875,-1.3007813 z m -0.75,0 c 0,0.3164063 0,1.078125 -1.2304687,1.078125 h -1.125 V -4.242625 c 0,-0.2109375 0.011719,-0.2695313 0.3398437,-0.2695313 h 0.7851563 c 1.1601562,0 1.2304687,0.65625 1.2304687,1.0546875 z m 0,0"
       style="fill:#333333;fill-opacity:1;fill-rule:nonzero;stroke:none"
       aria-label="P"
       transform="matrix(1.3333333,0,0,1.3333333,116.26267,130.96933)" />
    <path
       id="path17"
       d="m 53.78722,-32.50378 h 34.0161 v 13.61507 h -34.0161 z"
       style="fill:#ffdcc8;fill-opacity:1;fill-rule:nonzero;stroke:#4c4c4c;stroke-width:0.79701;stroke-linecap:butt;stroke-linejoin:miter;stroke-miterlimit:10;stroke-dasharray:none;stroke-opacity:1"
       transform="matrix(1.3333333,0,0,-1.3333333,25.452,113.12)" />
    <path
       id="path18"
       d="m 5.7294453,-1.6755078 v -0.2460938 c -0.046875,0 -0.5625,0.023437 -0.9023437,0.023437 -0.3632813,0 -0.890625,0 -1.2539063,-0.023437 v 0.2460938 h 0.2578125 c 0.703125,0 0.703125,0.09375 0.703125,0.328125 v 0.44531249 c 0,0.15234375 0,0.421875 -0.3984375,0.62109375 -0.3398437,0.1640625 -0.7382812,0.1640625 -0.8203125,0.1640625 -0.796875,0 -2.0859375,-0.4453125 -2.0859375,-2.26171874 0,-1.8632813 1.3242188,-2.2734375 2.015625,-2.2734375 0.6796875,0 1.5117188,0.4570312 1.6992188,1.6640625 0.011719,0.082031 0.070312,0.082031 0.1289062,0.082031 0.1171875,0 0.1171875,-0.046875 0.1171875,-0.1875 V -4.722383 c 0,-0.1171875 0,-0.1757813 -0.09375,-0.1757813 -0.023437,0 -0.058594,0 -0.1171875,0.082031 l -0.375,0.5273437 c -0.3398437,-0.3515625 -0.8320312,-0.609375 -1.4414062,-0.609375 -1.453125,0 -2.67187504,1.125 -2.67187504,2.5195313 0,1.3710937 1.18359374,2.51953124 2.68359374,2.51953124 0.3867188,0 1.1601563,-0.0703125 1.4882813,-0.5625 0.1171875,0.1875 0.375,0.4218749975 0.4453125,0.4218749975 0.082031,0 0.082031,-0.0820312475 0.082031,-0.1757812475 V -1.3708203 c 0,-0.3046875 0.070312,-0.3046875 0.5390627,-0.3046875 z m 3.9052735,-3.375 c 0,-0.1171875 -0.09375,-0.1757813 -0.1640625,-0.1757813 -0.1171875,0 -0.1523438,0.082031 -0.1875,0.1757813 L 6.6933125,1.4416797 c -0.035156,0.082031 -0.035156,0.1289062 -0.035156,0.1289062 0,0.1171875 0.09375,0.1757813 0.1640625,0.1757813 0.1171875,0 0.1523437,-0.082031 0.1875,-0.1757813 l 2.5898437,-6.5039062 c 0.035156,-0.082031 0.035156,-0.1171875 0.035156,-0.1171875 z m 5.9824222,0.5390625 v -0.2460938 c -0.292969,0.011719 -0.574219,0.023437 -0.855469,0.023437 -0.28125,0 -0.5625,-0.011719 -0.855469,-0.023437 v 0.2460938 c 0.726563,0 0.726563,0.3164062 0.726563,0.5039062 v 2.953125 l -2.683594,-3.5976562 c -0.07031,-0.1054688 -0.08203,-0.1054688 -0.222656,-0.1054688 h -1.207032 v 0.2460938 h 0.210938 c 0.304687,0 0.480469,0.035156 0.515625,0.046875 v 3.71484374 c 0,0.1875 0,0.50390625 -0.726563,0.50390625 V 2.734375e-4 C 10.812453,-0.02316406 11.093703,-0.02316406 11.374953,-0.02316406 c 0.28125,0 0.5625,0 0.855469,0.0234374975 V -0.24582031 c -0.726563,0 -0.726563,-0.31640625 -0.726563,-0.50390625 V -4.2770703 l 3.09375,4.17187499 c 0.07031,0.09375 0.08203,0.1054687475 0.164063,0.1054687475 0.128906,0 0.128906,-0.0585937475 0.128906,-0.1992187475 V -4.0075391 c 0,-0.1875 0,-0.5039062 0.726563,-0.5039062 z m 0,0"
       style="fill:#333333;fill-opacity:1;fill-rule:nonzero;stroke:none"
       aria-label="G/N"
       transform="matrix(1.3333333,0,0,1.3333333,109.16933,149.70667)" />
    <path
       id="path19"
       d="m 53.79584,-46.91586 h 34.0161 v 13.61507 h -34.0161 z"
       style="fill:#dcffc8;fill-opacity:1;fill-rule:nonzero;stroke:#4c4c4c;stroke-width:0.79701;stroke-linecap:butt;stroke-linejoin:miter;stroke-miterlimit:10;stroke-dasharray:none;stroke-opacity:1"
       transform="matrix(1.3333333,0,0,-1.3333333,25.452,113.12)" />
    <path
       id="path20"
       d="m 5.6259375,-2.3550625 c 0,-1.3945312 -1.1484375,-2.5429687 -2.5664063,-2.5429687 -1.4296875,0 -2.5664062,1.1484375 -2.5664062,2.5429687 0,1.37109375 1.1367187,2.49609375 2.5664062,2.49609375 1.4296875,0 2.5664063,-1.125 2.5664063,-2.49609375 z m -0.75,-0.1171875 c 0,1.72265625 -1.0078125,2.37890625 -1.8164063,2.37890625 -0.8203125,0 -1.828125,-0.65625 -1.828125,-2.37890625 0,-1.6171875 1.03125,-2.203125 1.828125,-2.203125 0.7851563,0 1.8164063,0.5859375 1.8164063,2.203125 z m 5.1416015,1.1835938 c 0,-0.6328125 -0.4335937,-1.21875 -1.1367187,-1.3828125 l -1.03125,-0.234375 c -0.609375,-0.140625 -0.796875,-0.5859375 -0.796875,-0.8671875 0,-0.46875 0.421875,-0.9023438 1.0546875,-0.9023438 0.9375,0 1.3476563,0.6210938 1.4648438,1.359375 0.011719,0.1054688 0.011719,0.140625 0.1171875,0.140625 0.1171875,0 0.1171875,-0.046875 0.1171875,-0.1875 V -4.72225 c 0,-0.1171875 0,-0.1757812 -0.09375,-0.1757812 -0.058594,0 -0.070312,0.011719 -0.1171875,0.09375 l -0.2578125,0.3867187 c -0.4570313,-0.46875 -1.03125,-0.4804687 -1.2304688,-0.4804687 -0.8789062,0 -1.5,0.6210937 -1.5,1.3242187 0,0.3984375 0.1757813,0.6914063 0.421875,0.9257813 0.28125,0.28125 0.5039063,0.328125 1.265625,0.4921875 0.6328125,0.140625 0.7734375,0.1640625 0.9726563,0.3632812 0.1640625,0.1640625 0.3046875,0.3867188 0.3046875,0.703125 0,0.48046875 -0.3984375,0.97265625 -1.078125,0.97265625 -0.6679688,0 -1.6054688,-0.2578125 -1.6523438,-1.31249995 C 6.8300391,-1.53475 6.8300391,-1.581625 6.7245703,-1.581625 c -0.1171875,0 -0.1171875,0.046875 -0.1171875,0.1875 v 1.34765625 c 0,0.12890625 0,0.1875 0.09375,0.1875 0.058594,0 0.070312,-0.0234375 0.1171875,-0.08203125 0.058594,-0.08203125 0.1992188,-0.3046875 0.2578125,-0.3984375 0.4335938,0.38671875 0.9726563,0.48046875 1.4179688,0.48046875 0.9257812,0 1.5234374,-0.69140625 1.5234374,-1.42968745 z m 3.966797,-3.7617188 c 0,-0.1171875 -0.09375,-0.1757812 -0.164063,-0.1757812 -0.117187,0 -0.152343,0.082031 -0.1875,0.1757812 L 11.04293,1.4418125 c -0.03516,0.082031 -0.03516,0.1289063 -0.03516,0.1289063 0,0.1171875 0.09375,0.1757812 0.164063,0.1757812 0.117187,0 0.152344,-0.082031 0.1875,-0.1757812 l 2.589844,-6.5039063 c 0.03516,-0.082031 0.03516,-0.1171875 0.03516,-0.1171875 z m 5.985351,0.5390625 v -0.2460937 c -0.292968,0.011719 -0.574218,0.023437 -0.855468,0.023437 -0.28125,0 -0.5625,-0.011719 -0.855469,-0.023437 v 0.2460937 c 0.726562,0 0.726562,0.3164063 0.726562,0.5039063 v 2.953125 l -2.683593,-3.5976563 c -0.07031,-0.1054687 -0.08203,-0.1054687 -0.222657,-0.1054687 h -1.207031 v 0.2460937 h 0.210938 c 0.304687,0 0.480468,0.035156 0.515625,0.046875 v 3.71484375 c 0,0.1875 0,0.50390625 -0.726563,0.50390625 V 4.0625e-4 c 0.292969,-0.0234375 0.574219,-0.0234375 0.855469,-0.0234375 0.28125,0 0.5625,0 0.855469,0.0234375 V -0.2456875 c -0.726563,0 -0.726563,-0.31640625 -0.726563,-0.50390625 V -4.2769375 l 3.09375,4.171875 c 0.07031,0.09375 0.08203,0.10546875 0.164063,0.10546875 0.128906,0 0.128906,-0.05859375 0.128906,-0.19921875 v -3.8085937 c 0,-0.1875 0,-0.5039063 0.726562,-0.5039063 z m 0,0"
       style="fill:#333333;fill-opacity:1;fill-rule:nonzero;stroke:none"
       aria-label="OS/N"
       transform="matrix(1.3333333,0,0,1.3333333,106.28,168.92133)" />
    <path
       id="path21"
       d="m 4.6283125,-1.2416641 c 0,-0.140625 -0.1289062,-0.140625 -0.1992187,-0.140625 h -1.734375 v -1.734375 c 0,-0.070312 0,-0.1992187 -0.140625,-0.1992187 -0.1289063,0 -0.1289063,0.1289062 -0.1289063,0.1992187 v 1.734375 H 0.67909375 c -0.0585938,0 -0.19921875,0 -0.19921875,0.140625 0,0.140625 0.140625,0.140625 0.19921875,0.140625 H 2.4251875 v 1.73437504 c 0,0.0703125 0,0.19921875 0.1289063,0.19921875 0.140625,0 0.140625,-0.12890625 0.140625,-0.19921875 V -1.1010391 h 1.734375 c 0.070312,0 0.1992187,0 0.1992187,-0.140625 z m 3.7382813,0.33984379 c 0,-0.37499999 -0.2226563,-0.59765629 -0.3164063,-0.67968749 -0.234375,-0.2226563 -0.5039062,-0.28125 -0.9140625,-0.3515625 -0.28125,-0.058594 -0.5625,-0.1171875 -0.6210937,-0.1289063 -0.1992188,-0.035156 -0.609375,-0.2226562 -0.609375,-0.5976562 0,-0.328125 0.375,-0.6445313 0.9140625,-0.6445313 0.890625,0 1.1015625,0.5859375 1.1601562,0.9492188 0.011719,0.070312 0.035156,0.082031 0.1054688,0.082031 0.1054687,0 0.1054687,-0.035156 0.1054687,-0.140625 v -0.9609375 c 0,-0.082031 0,-0.140625 -0.082031,-0.140625 -0.023437,0 -0.046875,0 -0.09375,0.070312 l -0.199219,0.2929695 C 7.5814375,-3.3744766 7.27675,-3.5151016 6.8197188,-3.5151016 c -0.703125,0 -1.21875,0.4453125 -1.21875,0.9492188 0,0.2695312 0.1523437,0.4921875 0.3046875,0.6210937 0.2578125,0.2109375 0.5039062,0.2578125 0.7382812,0.3046875 l 0.7851563,0.1523438 c 0.328125,0.082031 0.6328125,0.328125 0.6328125,0.66796874 0,0.3515625 -0.3515625,0.71484375 -0.9257813,0.71484375 -0.2226562,0 -0.6445312,-0.0351563 -0.9492187,-0.234375 -0.234375,-0.1640625 -0.3632813,-0.38671875 -0.375,-0.67968749 0,-0.082031 0,-0.1054688 -0.1054688,-0.1054688 -0.1054687,0 -0.1054687,0.035156 -0.1054687,0.14062504 v 0.94921875 c 0,0.09375 0,0.140625 0.082031,0.140625 0.046875,0 0.058594,-0.01171875 0.09375,-0.05859375 0.023437,-0.0234375 0.1875,-0.28125 0.1875,-0.28125 0.375,0.28125 0.8320313,0.33984375 1.171875,0.33984375 0.75,0 1.2304688,-0.4921875 1.230469,-1.0078125 z M 12.254289,5.234375e-4 V -0.22213281 h -0.08203 c -0.328125,0 -0.328125,-0.046875 -0.328125,-0.19921875 V -1.4994766 c 0,-0.5507812 -0.375,-0.703125 -0.832031,-0.703125 -0.574219,0 -0.832032,0.3398438 -0.914063,0.4570313 v -1.7109375 l -0.8320312,0.058594 v 0.2109375 c 0.3632813,0 0.4101563,0.035156 0.4101563,0.28125 v 2.48437504 c 0,0.15234375 0,0.19921875 -0.3164063,0.19921875 h -0.09375 V 5.234375e-4 C 9.4769453,-0.01119531 9.6878828,-0.02291406 9.8988203,-0.02291406 c 0.2109377,0 0.4218747,0.01171875 0.6328127,0.0234374975 V -0.22213281 h -0.08203 c -0.328125,0 -0.328125,-0.046875 -0.328125,-0.19921875 V -1.2885391 c 0,-0.5625 0.515625,-0.75 0.832031,-0.75 0.363281,0 0.445312,0.2109375 0.445312,0.5273438 v 1.08984374 c 0,0.15234375 0,0.19921875 -0.316406,0.19921875 h -0.09375 V 5.234375e-4 C 11.199602,-0.01119531 11.410539,-0.02291406 11.621477,-0.02291406 c 0.210937,0 0.421875,0.01171875 0.632812,0.0234374975 z M 15.758195,-0.44478906 v -0.28125 h -0.210937 v 0.26953125 c 0,0.046875 0,0.26953125 -0.199219,0.26953125 -0.199219,0 -0.199219,-0.22265625 -0.199219,-0.26953125 V -1.4760391 c 0,-0.4804687 -0.503906,-0.75 -1.125,-0.75 -0.304687,0 -0.878906,0.011719 -0.878906,0.4335938 0,0.1875 0.140625,0.2695312 0.269531,0.2695312 0.128907,0 0.257813,-0.09375 0.257813,-0.2695312 0,-0.1171875 -0.07031,-0.1875 -0.117188,-0.2226563 0.164063,-0.046875 0.410157,-0.046875 0.46875,-0.046875 0.421875,0 0.679688,0.234375 0.679688,0.5859375 v 0.1289063 c -0.480469,0.023437 -0.75,0.046875 -1.136719,0.1757812 -0.328125,0.1171875 -0.609375,0.32812504 -0.609375,0.64453129 0,0.46875 0.574219,0.5859375 0.972656,0.5859375 0.386719,0 0.679688,-0.1640625 0.832032,-0.41015625 0.02344,0.17578125 0.140625,0.38671875 0.386718,0.38671875 0.03516,0 0.609375,0 0.609375,-0.48046875 z m -1.054687,-0.2578125 c 0,0.5390625 -0.597656,0.59765625 -0.714844,0.59765625 -0.292969,0 -0.574219,-0.1640625 -0.574219,-0.421875 0,-0.1640625 0.105469,-0.62109379 1.289063,-0.66796879 z m 3.670898,-1.16015624 c 0,-0.1875 -0.1875,-0.3398438 -0.445312,-0.3398438 -0.246094,0 -0.574219,0.1289063 -0.761719,0.5507813 h -0.01172 v -0.5507813 l -0.796875,0.058594 v 0.2226562 c 0.375,0 0.421875,0.023437 0.421875,0.2695313 v 1.23046874 c 0,0.15234375 0,0.19921875 -0.328125,0.19921875 H 16.35878 V 5.234375e-4 C 16.569719,-0.01119531 16.792375,-0.02291406 17.003313,-0.02291406 L 17.718156,5.234375e-4 V -0.22213281 h -0.140625 c -0.375,0 -0.375,-0.046875 -0.375,-0.19921875 V -1.1127578 c 0,-0.46875 0.257813,-0.9140625 0.738282,-0.9257813 0,0 -0.07031,0.070312 -0.07031,0.1757813 0,0.1875 0.140625,0.2578125 0.246094,0.2578125 0.128906,0 0.257812,-0.082031 0.257812,-0.2578125 z m 3.66211,1.8632812375 V -0.22213281 c -0.363282,0 -0.410157,-0.0351563 -0.410157,-0.28125 V -3.4565078 l -0.84375,0.058594 v 0.2109375 c 0.375,0 0.421875,0.035156 0.421875,0.28125 V -1.93307 c -0.117187,-0.09375 -0.386718,-0.2695313 -0.796875,-0.2695313 -0.75,0 -1.359375,0.5039063 -1.359375,1.1367188 0,0.59765624 0.5625,1.12499999 1.300782,1.12499999 0.410156,0 0.691406,-0.1875 0.832031,-0.3046875 v 0.3046875 z M 21.181047,-0.53853906 c -0.234375,0.36328125 -0.609375,0.43359375 -0.796875,0.43359375 -0.257813,0 -0.503906,-0.10546875 -0.667969,-0.328125 -0.164062,-0.19921875 -0.175781,-0.48046875 -0.175781,-0.63281249 0,-0.140625 0.01172,-0.46875 0.222656,-0.6914063 0.175781,-0.1875 0.433594,-0.28125 0.679688,-0.28125 0.140625,0 0.503906,0.035156 0.738281,0.375 z m 8.296875,-0.62109374 v -0.2226563 l -0.75,0.023437 c -0.269531,0 -0.738281,0 -0.984375,-0.023437 v 0.2226563 h 0.246094 c 0.527343,0 0.527343,0.046875 0.527343,0.19921874 v 0.31640625 c 0,0.1171875 0,0.31640625 -0.339843,0.4453125 -0.246094,0.09375 -0.550782,0.09375 -0.621094,0.09375 -0.832031,0 -1.722656,-0.45703125 -1.722656,-1.59374999 0,-1.1953125 0.925781,-1.59375 1.652343,-1.59375 0.445313,0 1.183594,0.2460937 1.335938,1.171875 0.01172,0.058594 0.07031,0.058594 0.117187,0.058594 0.105469,0 0.105469,-0.035156 0.105469,-0.140625 v -1.171875 c 0,-0.082031 0,-0.140625 -0.08203,-0.140625 -0.04687,0 -0.05859,0.023437 -0.09375,0.058594 l -0.292969,0.3867187 c -0.234375,-0.1875 -0.597656,-0.4453125 -1.183594,-0.4453125 -1.195312,0 -2.144531,0.8320313 -2.144531,1.8164063 0,0.93749999 0.890625,1.80468749 2.179688,1.80468749 0.1875,0 0.445312,0 0.703125,-0.0703125 0.363281,-0.10546875 0.492187,-0.28125 0.515625,-0.3046875 0.117187,0.15234375 0.292968,0.2695312475 0.328125,0.2695312475 0.07031,0 0.07031,-0.0703124975 0.07031,-0.1406249975 v -0.8203125 c 0,-0.16406254 0,-0.19921874 0.339844,-0.19921874 z m 0,0"
       style="fill:#000000;fill-opacity:1;fill-rule:nonzero;stroke:none"
       aria-label="+ShardG"
       transform="matrix(1.3333333,0,0,1.3333333,99.922667,185.58133)" />
    <path
       id="path22"
       d="m 89.17844,-10.55945 h 34.0161 v 6.64113 h -34.0161 z"
       style="fill:#c8dcff;fill-opacity:1;fill-rule:nonzero;stroke:#4c4c4c;stroke-width:0.79701;stroke-linecap:butt;stroke-linejoin:miter;stroke-miterlimit:10;stroke-dasharray:none;stroke-opacity:1"
       transform="matrix(1.3333333,0,0,-1.3333333,25.452,113.12)" />
    <path
       id="path23"
       d="m 89.19138,-17.9976 h 34.0161 v 6.64113 h -34.0161 z"
       style="fill:#ffdcc8;fill-opacity:1;fill-rule:nonzero;stroke:#4c4c4c;stroke-width:0.79701;stroke-linecap:butt;stroke-linejoin:miter;stroke-miterlimit:10;stroke-dasharray:none;stroke-opacity:1"
       transform="matrix(1.3333333,0,0,-1.3333333,25.452,113.12)" />
    <path
       id="path24"
       d="m 89.20433,-25.88129 h 34.0161 v 7.08667 h -34.0161 z"
       style="fill:#dcffc8;fill-opacity:1;fill-rule:nonzero;stroke:#4c4c4c;stroke-width:0.79701;stroke-linecap:butt;stroke-linejoin:miter;stroke-miterlimit:10;stroke-dasharray:none;stroke-opacity:1"
       transform="matrix(1.3333333,0,0,-1.3333333,25.452,113.12)" />
    <path
       id="path25"
       d="M 4.5242422,2.34375e-4 V -0.22242187 H 4.3953359 c -0.3046875,0 -0.375,-0.0234375 -0.4453125,-0.1640625 L 2.6140859,-3.4333594 c -0.035156,-0.09375 -0.058594,-0.1289062 -0.1757812,-0.1289062 -0.082031,0 -0.1289063,0.011719 -0.1757813,0.1171875 l -1.27734371,2.92968748 c -0.1171875,0.24609375 -0.38671875,0.29296875 -0.6328125,0.29296875 V 2.34375e-4 c 0.1875,-0.011718745 0.3984375,-0.023437495 0.57421875,-0.023437495 0.0703125,0 0.42187496,0.01171875 0.65624996,0.023437495 V -0.22242187 c -0.28125,0 -0.3867187,-0.1171875 -0.3867187,-0.2109375 0,-0.0351563 0.011719,-0.046875 0.035156,-0.09375 L 1.4890859,-1.1130469 h 1.59375 l 0.3046875,0.70312503 c 0.035156,0.0585938 0.035156,0.0703125 0.035156,0.0703125 0,0.1171875 -0.2929688,0.1171875 -0.4335938,0.1171875 V 2.34375e-4 L 3.7976797,-0.02320312 Z M 2.9890859,-1.3239844 h -1.40625 l 0.703125,-1.6054687 z m 3.5625,1.324218775 V -0.22242187 h -0.09375 c -0.3164062,0 -0.3164062,-0.046875 -0.3164062,-0.19921875 V -3.4567969 l -0.84375,0.058594 v 0.2109375 c 0.375,0 0.421875,0.035156 0.421875,0.28125 v 2.48437498 c 0,0.15234375 0,0.19921875 -0.328125,0.19921875 h -0.09375 V 2.34375e-4 c 0.2109375,-0.011718745 0.421875,-0.023437495 0.6210937,-0.023437495 0.2109375,0 0.421875,0.01171875 0.6328125,0.023437495 z m 2.006836,0 V -0.22242187 h -0.09375 c -0.3164063,0 -0.3164063,-0.046875 -0.3164063,-0.19921875 V -3.4567969 l -0.84375,0.058594 v 0.2109375 c 0.375,0 0.421875,0.035156 0.421875,0.28125 v 2.48437498 c 0,0.15234375 0,0.19921875 -0.328125,0.19921875 h -0.09375 V 2.34375e-4 c 0.2109375,-0.011718745 0.421875,-0.023437495 0.6210938,-0.023437495 0.2109375,0 0.421875,0.01171875 0.6328125,0.023437495 z M 11.807445,-3.5974219 c 0,-0.070312 -0.05859,-0.140625 -0.140625,-0.140625 -0.04687,0 -0.105468,0.023437 -0.140625,0.1171875 L 9.4168203,1.0080469 c -0.035156,0.070312 -0.035156,0.082031 -0.035156,0.09375 0,0.082031 0.058594,0.140625 0.140625,0.140625 0.046875,0 0.1054687,-0.011719 0.140625,-0.1171875 l 2.1093747,-4.6171875 c 0.03516,-0.070312 0.03516,-0.082031 0.03516,-0.1054688 z m 4.951172,0.4101563 v -0.2109375 c -0.222656,0.011719 -0.445312,0.011719 -0.667969,0.011719 -0.140625,0 -0.457031,0 -0.667968,-0.011719 v 0.2109375 c 0.5625,0 0.5625,0.2109375 0.5625,0.3398437 v 2.06250003 L 13.82893,-3.3396094 c -0.04687,-0.058594 -0.05859,-0.058594 -0.152344,-0.058594 H 12.70393 v 0.2109375 h 0.199218 c 0.05859,0 0.292969,0.011719 0.339844,0.023437 0.01172,0.011719 0.01172,0.011719 0.01172,0.09375 v 2.51953123 c 0,0.12890625 0,0.328125 -0.550781,0.328125 V 2.34375e-4 c 0.222656,-0.011718745 0.445312,-0.023437495 0.667968,-0.023437495 0.140625,0 0.46875,0.01171875 0.667969,0.023437495 V -0.22242187 c -0.550781,0 -0.550781,-0.19921875 -0.550781,-0.328125 V -3.0232031 l 2.484375,2.96484373 c 0.04687,0.058593745 0.07031,0.058593745 0.117187,0.058593745 0.117188,0 0.117188,-0.046874995 0.117188,-0.152343745 V -2.8474219 c 0,-0.1289062 0,-0.3398437 0.55078,-0.3398437 z m 0,0"
       style="fill:#000000;fill-opacity:1;fill-rule:nonzero;stroke:none"
       aria-label="All/N"
       transform="matrix(1.3333333,0,0,1.3333333,148.56533,149.82)" />
    <path
       id="path26"
       d="m 4.6275,-1.2418203 c 0,-0.140625 -0.1289062,-0.140625 -0.1992187,-0.140625 h -1.734375 v -1.734375 c 0,-0.070312 0,-0.1992188 -0.140625,-0.1992188 -0.1289063,0 -0.1289063,0.1289063 -0.1289063,0.1992188 v 1.734375 H 0.67828125 c -0.0585938,0 -0.19921875,0 -0.19921875,0.140625 0,0.140625 0.140625,0.140625 0.19921875,0.140625 H 2.424375 v 1.73437499 c 0,0.0703125 0,0.19921875 0.1289063,0.19921875 0.140625,0 0.140625,-0.12890625 0.140625,-0.19921875 V -1.1011953 h 1.734375 c 0.070312,0 0.1992187,0 0.1992187,-0.140625 z m 3.7382813,0.33984374 C 8.3657813,-1.2769766 8.143125,-1.4996328 8.049375,-1.5816641 7.815,-1.8043203 7.5454688,-1.8629141 7.1353125,-1.9332266 6.8540625,-1.9918203 6.5728125,-2.0504141 6.5142188,-2.0621328 6.315,-2.0972891 5.9048438,-2.2847891 5.9048438,-2.6597891 c 0,-0.328125 0.375,-0.6445312 0.9140625,-0.6445312 0.890625,0 1.1015625,0.5859375 1.1601562,0.9492187 0.011719,0.070312 0.035156,0.082031 0.1054688,0.082031 C 8.19,-2.2730703 8.19,-2.3082266 8.19,-2.4136953 v -0.9609375 c 0,-0.082031 0,-0.140625 -0.082031,-0.140625 -0.023437,0 -0.046875,0 -0.09375,0.070312 L 7.815,-3.1519766 C 7.580625,-3.3746328 7.2759375,-3.5152578 6.8189063,-3.5152578 c -0.703125,0 -1.21875,0.4453125 -1.21875,0.9492187 0,0.2695313 0.1523437,0.4921875 0.3046875,0.6210938 0.2578125,0.2109375 0.5039062,0.2578125 0.7382812,0.3046875 l 0.7851563,0.1523437 c 0.328125,0.082031 0.6328125,0.328125 0.6328125,0.66796879 0,0.3515625 -0.3515625,0.71484375 -0.9257813,0.71484375 -0.2226562,0 -0.6445312,-0.0351563 -0.9492187,-0.234375 -0.234375,-0.1640625 -0.3632813,-0.38671875 -0.375,-0.67968754 0,-0.082031 0,-0.1054687 -0.1054688,-0.1054687 -0.1054687,0 -0.1054687,0.035156 -0.1054687,0.14062499 v 0.94921875 c 0,0.09375 0,0.140625 0.082031,0.140625 0.046875,0 0.058594,-0.01171875 0.09375,-0.05859375 0.023437,-0.0234375 0.1875,-0.28125 0.1875,-0.28125 0.375,0.28125 0.8320313,0.33984375 1.171875,0.33984375 0.75,0 1.2304688,-0.4921875 1.230469,-1.0078125 z M 12.256406,3.671875e-4 V -0.22228906 h -0.08203 c -0.328125,0 -0.328125,-0.046875 -0.328125,-0.19921875 V -1.4996328 c 0,-0.5507813 -0.375,-0.703125 -0.832031,-0.703125 -0.574219,0 -0.832031,0.3398437 -0.914063,0.4570312 v -1.7109375 l -0.832031,0.058594 v 0.2109375 c 0.3632813,0 0.4101563,0.035156 0.4101563,0.28125 v 2.48437499 c 0,0.15234375 0,0.19921875 -0.3164063,0.19921875 H 9.268125 V 3.671875e-4 C 9.4790625,-0.01135156 9.69,-0.02307031 9.9009375,-0.02307031 c 0.2109375,0 0.4218755,0.01171875 0.6328125,0.0234374975 V -0.22228906 h -0.08203 c -0.328125,0 -0.328125,-0.046875 -0.328125,-0.19921875 V -1.2886953 c 0,-0.5625 0.515625,-0.75 0.832031,-0.75 0.363281,0 0.445313,0.2109375 0.445313,0.5273437 v 1.08984379 c 0,0.15234375 0,0.19921875 -0.316407,0.19921875 h -0.09375 V 3.671875e-4 C 11.201719,-0.01135156 11.412656,-0.02307031 11.623594,-0.02307031 c 0.210937,0 0.421875,0.01171875 0.632812,0.0234374975 z M 15.757383,-0.44494531 v -0.28125 h -0.210938 v 0.26953125 c 0,0.046875 0,0.26953125 -0.199218,0.26953125 -0.199219,0 -0.199219,-0.22265625 -0.199219,-0.26953125 V -1.4761953 c 0,-0.4804688 -0.503906,-0.75 -1.125,-0.75 -0.304688,0 -0.878906,0.011719 -0.878906,0.4335937 0,0.1875 0.140625,0.2695313 0.269531,0.2695313 0.128906,0 0.257812,-0.09375 0.257812,-0.2695313 0,-0.1171875 -0.07031,-0.1875 -0.117187,-0.2226562 0.164062,-0.046875 0.410156,-0.046875 0.46875,-0.046875 0.421875,0 0.679687,0.234375 0.679687,0.5859375 v 0.1289062 c -0.480468,0.023437 -0.75,0.046875 -1.136718,0.1757813 -0.328125,0.1171875 -0.609375,0.32812499 -0.609375,0.64453124 0,0.46875 0.574218,0.5859375 0.972656,0.5859375 0.386719,0 0.679687,-0.1640625 0.832031,-0.41015625 0.02344,0.17578125 0.140625,0.38671875 0.386719,0.38671875 0.03516,0 0.609375,0 0.609375,-0.48046875 z m -1.054688,-0.2578125 c 0,0.5390625 -0.597656,0.59765625 -0.714843,0.59765625 -0.292969,0 -0.574219,-0.1640625 -0.574219,-0.421875 0,-0.1640625 0.105469,-0.62109374 1.289062,-0.66796874 z m 3.673828,-1.16015629 c 0,-0.1875 -0.1875,-0.3398437 -0.445312,-0.3398437 -0.246094,0 -0.574219,0.1289062 -0.761719,0.5507812 h -0.01172 v -0.5507812 l -0.796875,0.058594 v 0.2226563 c 0.375,0 0.421875,0.023437 0.421875,0.2695312 v 1.23046879 c 0,0.15234375 0,0.19921875 -0.328125,0.19921875 h -0.09375 V 3.671875e-4 C 16.571836,-0.01135156 16.794492,-0.02307031 17.00543,-0.02307031 L 17.720273,3.671875e-4 V -0.22228906 h -0.140625 c -0.375,0 -0.375,-0.046875 -0.375,-0.19921875 V -1.1129141 c 0,-0.46875 0.257813,-0.9140625 0.738282,-0.9257812 0,0 -0.07031,0.070312 -0.07031,0.1757812 0,0.1875 0.140625,0.2578125 0.246094,0.2578125 0.128906,0 0.257812,-0.082031 0.257812,-0.2578125 z m 3.65918,1.8632812875 V -0.22228906 c -0.363281,0 -0.410156,-0.0351562 -0.410156,-0.28125 V -3.4566641 l -0.84375,0.058594 v 0.2109375 c 0.375,0 0.421875,0.035156 0.421875,0.28125 v 0.9726562 c -0.117188,-0.09375 -0.386719,-0.2695312 -0.796875,-0.2695312 -0.75,0 -1.359375,0.5039062 -1.359375,1.1367187 0,0.59765629 0.5625,1.12500004 1.300781,1.12500004 0.410156,0 0.691406,-0.1875 0.832031,-0.3046875 v 0.3046875 z M 21.180234,-0.53869531 c -0.234375,0.36328125 -0.609375,0.43359375 -0.796875,0.43359375 -0.257812,0 -0.503906,-0.10546875 -0.667968,-0.328125 -0.164063,-0.19921875 -0.175782,-0.48046875 -0.175782,-0.63281254 0,-0.140625 0.01172,-0.46875 0.222657,-0.6914062 0.175781,-0.1875 0.433593,-0.28125 0.679687,-0.28125 0.140625,0 0.503906,0.035156 0.738281,0.375 z m 7.587891,-1.91015629 c 0,-0.515625 -0.65625,-0.9492187 -1.453125,-0.9492187 h -2.121094 v 0.2109375 h 0.152344 c 0.398438,0 0.398438,0.058594 0.398438,0.2109375 v 2.55468749 c 0,0.15234375 0,0.19921875 -0.398438,0.19921875 H 25.193906 V 3.671875e-4 L 26.014219,-0.02307031 26.834531,3.671875e-4 V -0.22228906 h -0.152343 c -0.410157,0 -0.410157,-0.046875 -0.410157,-0.19921875 V -1.5113516 h 1.089844 c 0.667969,0 1.40625,-0.3867187 1.40625,-0.9375 z m -0.585937,0 c 0,0.4101563 -0.1875,0.75 -0.984375,0.75 h -0.9375 v -1.2890625 c 0,-0.1640625 0,-0.1992187 0.234375,-0.1992187 h 0.703125 c 0.808593,0 0.984375,0.3515625 0.984375,0.7382812 z m 0,0"
       style="fill:#000000;fill-opacity:1;fill-rule:nonzero;stroke:none"
       aria-label="+ShardP"
       transform="matrix(1.3333333,0,0,1.3333333,147.58,157.53467)" />
    <path
       id="path27"
       d="m 3.9946406,-2.4485859 c 0,-0.515625 -0.65625,-0.9492188 -1.453125,-0.9492188 H 0.42042187 v 0.2109375 h 0.15234375 c 0.3984375,0 0.3984375,0.058594 0.3984375,0.2109375 v 2.55468751 c 0,0.15234375 0,0.19921875 -0.3984375,0.19921875 H 0.42042187 V 6.328125e-4 L 1.2407344,-0.02280469 2.0610469,6.328125e-4 V -0.22202344 H 1.9087031 c -0.4101562,0 -0.4101562,-0.046875 -0.4101562,-0.19921875 V -1.5110859 h 1.0898437 c 0.6679688,0 1.40625,-0.3867188 1.40625,-0.9375 z m -0.5859375,0 c 0,0.4101562 -0.1875,0.75 -0.984375,0.75 h -0.9375 v -1.2890625 c 0,-0.1640625 0,-0.1992188 0.234375,-0.1992188 h 0.703125 c 0.8085938,0 0.984375,0.3515625 0.984375,0.7382813 z m 2.3759766,0.609375 c 0,-0.1757813 -0.1289063,-0.3046875 -0.3046875,-0.3046875 -0.1640625,0 -0.2929688,0.1289062 -0.2929688,0.3046875 0,0.1640625 0.1289063,0.3046875 0.2929688,0.3046875 0.1640625,0 0.3046875,-0.140625 0.3046875,-0.3046875 z m 0,1.53515621 c 0,-0.1640625 -0.1289063,-0.3046875 -0.3046875,-0.3046875 -0.1640625,0 -0.2929688,0.140625 -0.2929688,0.3046875 0,0.17578125 0.1289063,0.3046875025 0.2929688,0.3046875025 0.1640625,0 0.3046875,-0.1289062525 0.3046875,-0.3046875025 z M 12.839367,-2.4485859 c 0,-0.515625 -0.65625,-0.9492188 -1.453125,-0.9492188 H 9.2651484 v 0.2109375 h 0.1523438 c 0.3984375,0 0.3984375,0.058594 0.3984375,0.2109375 v 2.55468751 c 0,0.15234375 0,0.19921875 -0.3984375,0.19921875 H 9.2651484 V 6.328125e-4 L 10.085461,-0.02280469 10.905773,6.328125e-4 V -0.22202344 H 10.75343 c -0.410157,0 -0.410157,-0.046875 -0.410157,-0.19921875 V -1.5110859 h 1.089844 c 0.667969,0 1.40625,-0.3867188 1.40625,-0.9375 z m -0.585937,0 c 0,0.4101562 -0.1875,0.75 -0.984375,0.75 h -0.9375 v -1.2890625 c 0,-0.1640625 0,-0.1992188 0.234375,-0.1992188 h 0.703125 c 0.808593,0 0.984375,0.3515625 0.984375,0.7382813 z m 4.066406,2.00390621 v -0.28125 h -0.210938 v 0.26953125 c 0,0.046875 0,0.26953125 -0.199218,0.26953125 -0.199219,0 -0.199219,-0.22265625 -0.199219,-0.26953125 V -1.4759297 c 0,-0.4804687 -0.503906,-0.75 -1.125,-0.75 -0.304688,0 -0.878906,0.011719 -0.878906,0.4335938 0,0.1875 0.140625,0.2695312 0.269531,0.2695312 0.128906,0 0.257812,-0.09375 0.257812,-0.2695312 0,-0.1171875 -0.07031,-0.1875 -0.117187,-0.2226563 0.164062,-0.046875 0.410156,-0.046875 0.46875,-0.046875 0.421875,0 0.679687,0.234375 0.679687,0.5859375 v 0.1289063 c -0.480468,0.023437 -0.75,0.046875 -1.136718,0.1757812 -0.328125,0.1171875 -0.609375,0.32812501 -0.609375,0.64453126 0,0.46875 0.574218,0.5859375 0.972656,0.5859375 0.386719,0 0.679687,-0.1640625 0.832031,-0.41015625 0.02344,0.17578125 0.140625,0.38671875 0.386719,0.38671875 0.03516,0 0.609375,0 0.609375,-0.48046875 z m -1.054688,-0.2578125 c 0,0.5390625 -0.597656,0.59765625 -0.714843,0.59765625 -0.292969,0 -0.574219,-0.1640625 -0.574219,-0.421875 0,-0.1640625 0.105469,-0.62109376 1.289062,-0.66796876 z m 3.673829,-1.16015621 c 0,-0.1875 -0.1875,-0.3398438 -0.445313,-0.3398438 -0.246094,0 -0.574219,0.1289063 -0.761719,0.5507813 h -0.01172 v -0.5507813 l -0.796875,0.058594 v 0.2226562 c 0.375,0 0.421875,0.023437 0.421875,0.2695313 v 1.23046871 c 0,0.15234375 0,0.19921875 -0.328125,0.19921875 H 16.92335 V 6.328125e-4 C 17.134289,-0.01108594 17.356945,-0.02280469 17.567883,-0.02280469 L 18.282727,6.328125e-4 V -0.22202344 h -0.140625 c -0.375,0 -0.375,-0.046875 -0.375,-0.19921875 V -1.1126484 c 0,-0.46875 0.257812,-0.9140625 0.738281,-0.9257813 0,0 -0.07031,0.070312 -0.07031,0.1757813 0,0.1875 0.140625,0.2578125 0.246094,0.2578125 0.128906,0 0.257813,-0.082031 0.257813,-0.2578125 z m 3.471679,1.41796871 v -0.28125 h -0.210937 v 0.26953125 c 0,0.046875 0,0.26953125 -0.199219,0.26953125 -0.199219,0 -0.199219,-0.22265625 -0.199219,-0.26953125 V -1.4759297 c 0,-0.4804687 -0.503906,-0.75 -1.125,-0.75 -0.304687,0 -0.878906,0.011719 -0.878906,0.4335938 0,0.1875 0.140625,0.2695312 0.269531,0.2695312 0.128906,0 0.257813,-0.09375 0.257813,-0.2695312 0,-0.1171875 -0.07031,-0.1875 -0.117188,-0.2226563 0.164063,-0.046875 0.410156,-0.046875 0.46875,-0.046875 0.421875,0 0.679688,0.234375 0.679688,0.5859375 v 0.1289063 c -0.480469,0.023437 -0.75,0.046875 -1.136719,0.1757812 -0.328125,0.1171875 -0.609375,0.32812501 -0.609375,0.64453126 0,0.46875 0.574219,0.5859375 0.972656,0.5859375 0.386719,0 0.679688,-0.1640625 0.832031,-0.41015625 0.02344,0.17578125 0.140625,0.38671875 0.386719,0.38671875 0.03516,0 0.609375,0 0.609375,-0.48046875 z m -1.054687,-0.2578125 c 0,0.5390625 -0.597657,0.59765625 -0.714844,0.59765625 -0.292969,0 -0.574219,-0.1640625 -0.574219,-0.421875 0,-0.1640625 0.105469,-0.62109376 1.289063,-0.66796876 z M 27.771984,6.328125e-4 V -0.22202344 h -0.08203 c -0.328125,0 -0.328125,-0.046875 -0.328125,-0.19921875 V -1.4993672 c 0,-0.6210937 -0.46875,-0.703125 -0.84375,-0.703125 -0.492187,0 -0.773437,0.2460938 -0.914062,0.46875 -0.117188,-0.4570312 -0.632813,-0.46875 -0.808594,-0.46875 -0.515625,0 -0.808594,0.28125 -0.925781,0.4921875 v -0.4921875 l -0.820313,0.058594 v 0.2226562 c 0.363281,0 0.410156,0.023437 0.410156,0.2695313 v 1.23046871 c 0,0.15234375 0,0.19921875 -0.316406,0.19921875 h -0.09375 V 6.328125e-4 C 23.260266,-0.01108594 23.471203,-0.02280469 23.682141,-0.02280469 c 0.210937,0 0.421875,0.01171875 0.632812,0.0234375025 V -0.22202344 h -0.08203 c -0.328125,0 -0.328125,-0.046875 -0.328125,-0.19921875 V -1.2884297 c 0,-0.5507812 0.503906,-0.75 0.832031,-0.75 0.363281,0 0.457031,0.2109375 0.457031,0.5273438 v 1.08984371 c 0,0.15234375 0,0.19921875 -0.328125,0.19921875 h -0.09375 V 6.328125e-4 C 24.994641,-0.01108594 25.193859,-0.02280469 25.416516,-0.02280469 c 0.210937,0 0.421875,0.01171875 0.632812,0.0234375025 V -0.22202344 h -0.09375 c -0.328125,0 -0.328125,-0.046875 -0.328125,-0.19921875 V -1.2884297 c 0,-0.5507812 0.515625,-0.75 0.832031,-0.75 0.363282,0 0.457032,0.2109375 0.457032,0.5273438 v 1.08984371 c 0,0.15234375 0,0.19921875 -0.328125,0.19921875 h -0.08203 V 6.328125e-4 C 26.717297,-0.01108594 26.928234,-0.02280469 27.139172,-0.02280469 c 0.210937,0 0.421875,0.01171875 0.632812,0.0234375025 z M 30.824719,-0.59702344 c 0,-0.0820313 -0.07031,-0.0820313 -0.09375,-0.0820313 -0.08203,0 -0.09375,0.0234375 -0.117188,0.09375 -0.140625,0.33984375 -0.515625,0.45703125 -0.785156,0.45703125 -0.410156,0 -0.632813,-0.22265625 -0.703125,-0.3046875 -0.199219,-0.234375 -0.199219,-0.55078125 -0.199219,-0.69140631 h 1.757813 c 0.105468,0 0.140625,0 0.140625,-0.1171875 0,-0.328125 -0.175782,-0.984375 -1.101563,-0.984375 -0.761719,0 -1.289062,0.5390625 -1.289062,1.125 0,0.63281256 0.597656,1.16015631 1.359375,1.16015631 0.796875,0 1.03125,-0.5625 1.03125,-0.65624995 z m -0.375,-0.67968746 H 28.938 c 0.05859,-0.65625 0.539062,-0.7851563 0.773437,-0.7851563 0.691407,0 0.726563,0.6445313 0.738282,0.7851563 z m 2.912109,0.64453121 v -0.26953125 h -0.210937 v 0.2578125 c 0,0.375 -0.222657,0.515625 -0.398438,0.515625 -0.375,0 -0.375,-0.3984375 -0.375,-0.50390625 V -1.9212422 h 0.878906 v -0.2226562 h -0.878906 v -0.9140625 h -0.210937 c -0.01172,0.46875 -0.257813,0.9492187 -0.761719,0.9609375 v 0.1757812 h 0.527344 v 1.28906251 c 0,0.57421875 0.46875,0.69140625 0.773437,0.69140625 0.375,0 0.65625,-0.28125 0.65625,-0.69140625 z m 3.205078,0.0351563 c 0,-0.0820313 -0.07031,-0.0820313 -0.09375,-0.0820313 -0.08203,0 -0.09375,0.0234375 -0.117187,0.09375 -0.140625,0.33984375 -0.515625,0.45703125 -0.785157,0.45703125 -0.410156,0 -0.632812,-0.22265625 -0.703125,-0.3046875 -0.199218,-0.234375 -0.199218,-0.55078125 -0.199218,-0.69140626 h 1.757812 c 0.105469,0 0.140625,0 0.140625,-0.1171875 0,-0.328125 -0.175781,-0.984375 -1.101562,-0.984375 -0.761719,0 -1.289063,0.5390625 -1.289063,1.125 0,0.63281251 0.597656,1.16015626 1.359375,1.16015626 0.796875,0 1.03125,-0.5625 1.03125,-0.65624995 z m -0.375,-0.67968741 h -1.511719 c 0.05859,-0.65625 0.539063,-0.7851564 0.773438,-0.7851564 0.691406,0 0.726562,0.6445314 0.738281,0.7851564 z m 3.090821,-0.5859375 c 0,-0.1875 -0.1875,-0.3398439 -0.445313,-0.3398439 -0.246094,0 -0.574219,0.1289064 -0.761719,0.5507814 h -0.01172 v -0.5507814 l -0.796875,0.058594 v 0.2226563 c 0.375,0 0.421875,0.023437 0.421875,0.2695313 v 1.23046866 c 0,0.15234375 0,0.19921875 -0.328125,0.19921875 H 37.2671 V 6.328125e-4 C 37.478039,-0.01108594 37.700695,-0.02280469 37.911633,-0.02280469 L 38.626477,6.328125e-4 V -0.22202344 h -0.140625 c -0.375,0 -0.375,-0.046875 -0.375,-0.19921875 V -1.1126484 c 0,-0.46875 0.257812,-0.9140625 0.738281,-0.9257813 0,0 -0.07031,0.070312 -0.07031,0.1757813 0,0.1875 0.140625,0.2578125 0.246094,0.2578125 0.128906,0 0.257813,-0.082031 0.257813,-0.2578125 z m 2.686523,1.23046866 c 0,-0.22265625 -0.117188,-0.38671866 -0.316406,-0.50390616 -0.199219,-0.1289063 -0.339844,-0.140625 -0.761719,-0.2109375 -0.316406,-0.046875 -0.703125,-0.1054688 -0.703125,-0.375 0,-0.1757813 0.199219,-0.3632814 0.738281,-0.3632814 0.410156,0 0.65625,0.1640626 0.679688,0.5156251 0.01172,0.070312 0.01172,0.1054688 0.105468,0.1054688 0.105469,0 0.105469,-0.035156 0.105469,-0.140625 v -0.4921875 c 0,-0.082031 0,-0.1289064 -0.08203,-0.1289064 -0.02344,0 -0.04687,0 -0.08203,0.035156 -0.02344,0.011719 -0.105469,0.09375 -0.128907,0.09375 0,0 -0.01172,0 -0.04687,-0.023437 -0.117187,-0.058594 -0.292968,-0.1054688 -0.550781,-0.1054688 -0.820312,0 -0.984375,0.375 -0.984375,0.5976563 0,0.46875 0.574219,0.5625 1.03125,0.63281241 0.292969,0.046875 0.75,0.1171875 0.75,0.45703125 0,0.17578125 -0.140625,0.43359375 -0.75,0.43359375 -0.339844,0 -0.667969,-0.12890625 -0.820312,-0.65625 -0.02344,-0.09375 -0.02344,-0.10546875 -0.105469,-0.10546875 -0.105469,0 -0.105469,0.0351563 -0.105469,0.140625 v 0.64453125 c 0,0.0820312525 0,0.140625 0.08203,0.140625 0.03516,0 0.03516,-0.01171875 0.128907,-0.10546875 l 0.140625,-0.1171875 c 0.246093,0.2109375 0.5625,0.22265625 0.679687,0.22265625 0.832031,0 0.996094,-0.43359375 0.996094,-0.69140625 z m 0,0"
       style="fill:#808080;fill-opacity:1;fill-rule:nonzero;stroke:none"
       aria-label="P:Parameters"
       transform="matrix(1.3333333,0,0,1.3333333,256.916,8.964)" />
    <path
       id="path28"
       d="m 4.7122891,-1.1607734 v -0.2226563 l -0.75,0.023437 c -0.2695313,0 -0.7382813,0 -0.984375,-0.023437 v 0.2226563 h 0.2460937 c 0.5273438,0 0.5273438,0.046875 0.5273438,0.19921871 v 0.31640625 c 0,0.1171875 0,0.31640625 -0.3398438,0.4453125 -0.2460937,0.09375 -0.5507812,0.09375 -0.6210937,0.09375 -0.8320313,0 -1.7226563,-0.45703125 -1.7226563,-1.59374996 0,-1.1953125 0.9257813,-1.59375 1.6523438,-1.59375 0.4453125,0 1.1835937,0.2460937 1.3359375,1.171875 0.011719,0.058594 0.070312,0.058594 0.1171875,0.058594 0.1054687,0 0.1054687,-0.035156 0.1054687,-0.140625 v -1.171875 c 0,-0.082031 0,-0.140625 -0.082031,-0.140625 -0.046875,0 -0.058594,0.023437 -0.09375,0.058594 l -0.2929688,0.3867187 c -0.234375,-0.1875 -0.5976562,-0.4453125 -1.1835937,-0.4453125 -1.1953125,0 -2.14453129,0.8320313 -2.14453129,1.8164063 0,0.93749996 0.89062499,1.80468746 2.17968749,1.80468746 0.1875,0 0.4453125,0 0.703125,-0.0703125 0.3632813,-0.10546875 0.4921875,-0.28125 0.515625,-0.3046875 0.1171875,0.15234375 0.2929688,0.2695312525 0.328125,0.2695312525 0.070312,0 0.070312,-0.0703125025 0.070312,-0.1406250025 v -0.8203125 c 0,-0.16406251 0,-0.19921871 0.3398438,-0.19921871 z m 1.734375,-0.6796875 c 0,-0.1757813 -0.1289063,-0.3046875 -0.3046875,-0.3046875 -0.1640625,0 -0.2929688,0.1289062 -0.2929688,0.3046875 0,0.1640625 0.1289063,0.3046875 0.2929688,0.3046875 0.1640625,0 0.3046875,-0.140625 0.3046875,-0.3046875 z m 0,1.53515621 c 0,-0.1640625 -0.1289063,-0.3046875 -0.3046875,-0.3046875 -0.1640625,0 -0.2929688,0.140625 -0.2929688,0.3046875 0,0.17578125 0.1289063,0.3046875025 0.2929688,0.3046875025 0.1640625,0 0.3046875,-0.1289062525 0.3046875,-0.3046875025 z M 14.216195,-1.1607734 v -0.2226563 l -0.75,0.023437 c -0.269531,0 -0.738281,0 -0.984375,-0.023437 v 0.2226563 h 0.246094 c 0.527344,0 0.527344,0.046875 0.527344,0.19921871 v 0.31640625 c 0,0.1171875 0,0.31640625 -0.339844,0.4453125 -0.246094,0.09375 -0.550781,0.09375 -0.621094,0.09375 -0.832031,0 -1.722656,-0.45703125 -1.722656,-1.59374996 0,-1.1953125 0.925781,-1.59375 1.652344,-1.59375 0.445312,0 1.183594,0.2460937 1.335937,1.171875 0.01172,0.058594 0.07031,0.058594 0.117188,0.058594 0.105469,0 0.105469,-0.035156 0.105469,-0.140625 v -1.171875 c 0,-0.082031 0,-0.140625 -0.08203,-0.140625 -0.04687,0 -0.05859,0.023437 -0.09375,0.058594 l -0.292968,0.3867187 c -0.234375,-0.1875 -0.597657,-0.4453125 -1.183594,-0.4453125 -1.195313,0 -2.1445314,0.8320313 -2.1445314,1.8164063 0,0.93749996 0.8906254,1.80468746 2.1796874,1.80468746 0.1875,0 0.445313,0 0.703125,-0.0703125 0.363281,-0.10546875 0.492188,-0.28125 0.515625,-0.3046875 0.117188,0.15234375 0.292969,0.2695312525 0.328125,0.2695312525 0.07031,0 0.07031,-0.0703125025 0.07031,-0.1406250025 v -0.8203125 c 0,-0.16406251 0,-0.19921871 0.339843,-0.19921871 z m 2.824219,-0.703125 c 0,-0.1875 -0.1875,-0.3398438 -0.445312,-0.3398438 -0.246094,0 -0.574219,0.1289063 -0.761719,0.5507813 h -0.01172 v -0.5507813 l -0.796875,0.058594 v 0.2226562 c 0.375,0 0.421875,0.023437 0.421875,0.2695313 v 1.23046871 c 0,0.15234375 0,0.19921875 -0.328125,0.19921875 h -0.09375 V -6.171875e-4 C 15.235727,-0.01233594 15.458383,-0.02405469 15.66932,-0.02405469 l 0.714844,0.0234375025 V -0.22327344 h -0.140625 c -0.375,0 -0.375,-0.046875 -0.375,-0.19921875 V -1.1138984 c 0,-0.46875 0.257813,-0.9140625 0.738281,-0.9257813 0,0 -0.07031,0.070313 -0.07031,0.1757813 0,0.1875 0.140625,0.2578125 0.246094,0.2578125 0.128906,0 0.257812,-0.082031 0.257812,-0.2578125 z m 3.474609,1.41796871 v -0.28125 h -0.210937 v 0.26953125 c 0,0.046875 0,0.26953125 -0.199219,0.26953125 -0.199219,0 -0.199219,-0.22265625 -0.199219,-0.26953125 V -1.4771797 c 0,-0.4804687 -0.503906,-0.75 -1.125,-0.75 -0.304687,0 -0.878906,0.011719 -0.878906,0.4335938 0,0.1875 0.140625,0.2695312 0.269531,0.2695312 0.128907,0 0.257813,-0.09375 0.257813,-0.2695312 0,-0.1171875 -0.07031,-0.1875 -0.117188,-0.2226563 0.164063,-0.046875 0.410157,-0.046875 0.46875,-0.046875 0.421875,0 0.679688,0.234375 0.679688,0.5859375 v 0.1289063 c -0.480469,0.023437 -0.75,0.046875 -1.136719,0.1757812 -0.328125,0.1171875 -0.609375,0.32812501 -0.609375,0.64453126 0,0.46875 0.574219,0.5859375 0.972656,0.5859375 0.386719,0 0.679688,-0.1640625 0.832032,-0.41015625 0.02344,0.17578125 0.140625,0.38671875 0.386718,0.38671875 0.03516,0 0.609375,0 0.609375,-0.48046875 z m -1.054687,-0.2578125 c 0,0.5390625 -0.597656,0.59765625 -0.714844,0.59765625 -0.292969,0 -0.574219,-0.1640625 -0.574219,-0.421875 0,-0.1640625 0.105469,-0.62109376 1.289063,-0.66796876 z m 4.634766,0.7031250025 V -0.22327344 c -0.363282,0 -0.410157,-0.0351563 -0.410157,-0.28125 V -3.4576484 l -0.84375,0.058594 v 0.2109375 c 0.375,0 0.421875,0.035156 0.421875,0.28125 v 0.9726563 c -0.117187,-0.09375 -0.386718,-0.2695313 -0.796875,-0.2695313 -0.75,0 -1.359375,0.5039063 -1.359375,1.1367188 0,0.59765621 0.5625,1.12499996 1.300782,1.12499996 0.410156,0 0.691406,-0.1875 0.832031,-0.3046875 v 0.3046875 z M 23.239633,-0.53967969 c -0.234375,0.36328125 -0.609375,0.43359375 -0.796875,0.43359375 -0.257813,0 -0.503906,-0.10546875 -0.667969,-0.328125 -0.164062,-0.19921875 -0.175781,-0.48046875 -0.175781,-0.63281246 0,-0.140625 0.01172,-0.46875 0.222656,-0.6914063 0.175781,-0.1875 0.433594,-0.28125 0.679688,-0.28125 0.140625,0 0.503906,0.035156 0.738281,0.375 z m 2.868164,0.5390625025 V -0.22327344 c -0.339844,0 -0.375,0 -0.375,-0.19921875 V -2.2037422 l -0.820313,0.058594 v 0.2226562 c 0.351563,0 0.398438,0.023437 0.398438,0.2695313 v 1.23046871 c 0,0.15234375 0,0.19921875 -0.328125,0.19921875 h -0.09375 V -6.171875e-4 C 25.099984,-0.01233594 25.310922,-0.02405469 25.510141,-0.02405469 c 0.1875,0 0.410156,0.01171875 0.597656,0.0234375025 z M 25.779672,-2.9888984 c 0,-0.1640625 -0.128906,-0.3046875 -0.304688,-0.3046875 -0.164062,0 -0.292968,0.140625 -0.292968,0.3046875 0,0.1640625 0.128906,0.3046875 0.292968,0.3046875 0.164063,0 0.304688,-0.140625 0.304688,-0.3046875 z m 3.424805,2.39062496 c 0,-0.0820313 -0.07031,-0.0820313 -0.09375,-0.0820313 -0.08203,0 -0.09375,0.0234375 -0.117188,0.09375 -0.140625,0.33984375 -0.515625,0.45703125 -0.785156,0.45703125 -0.410156,0 -0.632813,-0.22265625 -0.703125,-0.3046875 -0.199219,-0.234375 -0.199219,-0.55078125 -0.199219,-0.69140631 h 1.757813 c 0.105468,0 0.140625,0 0.140625,-0.1171875 0,-0.328125 -0.175782,-0.984375 -1.101563,-0.984375 -0.761719,0 -1.289062,0.5390625 -1.289062,1.125 0,0.63281256 0.597656,1.16015631 1.359375,1.16015631 0.796875,0 1.03125,-0.5625 1.03125,-0.65624995 z m -0.375,-0.67968746 h -1.511719 c 0.05859,-0.65625 0.539062,-0.7851563 0.773437,-0.7851563 0.691407,0 0.726563,0.6445313 0.738282,0.7851563 z m 4.098632,1.2773437125 V -0.22327344 h -0.08203 c -0.328125,0 -0.328125,-0.046875 -0.328125,-0.19921875 V -1.5006172 c 0,-0.5507812 -0.375,-0.703125 -0.832031,-0.703125 -0.539063,0 -0.820313,0.2929688 -0.925781,0.4921875 v -0.4921875 l -0.820313,0.058594 v 0.2226562 c 0.363281,0 0.410156,0.023437 0.410156,0.2695313 v 1.23046871 c 0,0.15234375 0,0.19921875 -0.316406,0.19921875 h -0.09375 V -6.171875e-4 C 30.150766,-0.01233594 30.361703,-0.02405469 30.572641,-0.02405469 c 0.210937,0 0.421875,0.01171875 0.632812,0.0234375025 V -0.22327344 h -0.08203 c -0.328125,0 -0.328125,-0.046875 -0.328125,-0.19921875 V -1.2896797 c 0,-0.5625 0.515625,-0.75 0.832031,-0.75 0.363281,0 0.445313,0.2109375 0.445313,0.5273438 v 1.08984371 c 0,0.15234375 0,0.19921875 -0.316407,0.19921875 h -0.09375 V -6.171875e-4 C 31.873422,-0.01233594 32.084359,-0.02405469 32.295297,-0.02405469 c 0.210937,0 0.421875,0.01171875 0.632812,0.0234375025 z M 35.307016,-0.63342969 v -0.26953125 h -0.210938 v 0.2578125 c 0,0.375 -0.222656,0.515625 -0.398437,0.515625 -0.375,0 -0.375,-0.3984375 -0.375,-0.50390625 V -1.9224922 h 0.878906 v -0.2226562 h -0.878906 v -0.9140625 h -0.210938 c -0.01172,0.46875 -0.257812,0.9492187 -0.761719,0.9609375 v 0.1757812 h 0.527344 v 1.28906251 c 0,0.57421875 0.46875,0.69140625 0.773438,0.69140625 0.375,0 0.65625,-0.28125 0.65625,-0.69140625 z m 2.862304,0 c 0,-0.22265625 -0.117187,-0.38671871 -0.316406,-0.50390621 -0.199219,-0.1289063 -0.339844,-0.140625 -0.761719,-0.2109375 -0.316406,-0.046875 -0.703125,-0.1054688 -0.703125,-0.375 0,-0.1757813 0.199219,-0.3632813 0.738282,-0.3632813 0.410156,0 0.65625,0.1640625 0.679687,0.515625 0.01172,0.070312 0.01172,0.1054688 0.105469,0.1054688 0.105469,0 0.105469,-0.035156 0.105469,-0.140625 v -0.4921875 c 0,-0.082031 0,-0.1289063 -0.08203,-0.1289063 -0.02344,0 -0.04687,0 -0.08203,0.035156 -0.02344,0.011719 -0.105469,0.09375 -0.128906,0.09375 0,0 -0.01172,0 -0.04687,-0.023437 -0.117188,-0.058594 -0.292969,-0.1054688 -0.550781,-0.1054688 -0.820313,0 -0.984375,0.375 -0.984375,0.5976563 0,0.46875 0.574218,0.5625 1.03125,0.63281246 0.292968,0.046875 0.75,0.1171875 0.75,0.45703125 0,0.17578125 -0.140625,0.43359375 -0.75,0.43359375 -0.339844,0 -0.667969,-0.12890625 -0.820313,-0.65625 -0.02344,-0.09375 -0.02344,-0.10546875 -0.105469,-0.10546875 -0.105468,0 -0.105468,0.0351563 -0.105468,0.140625 v 0.64453125 c 0,0.0820312525 0,0.140625 0.08203,0.140625 0.03516,0 0.03516,-0.01171875 0.128906,-0.10546875 l 0.140625,-0.1171875 c 0.246094,0.2109375 0.5625,0.22265625 0.679688,0.22265625 0.832031,0 0.996093,-0.43359375 0.996093,-0.69140625 z m 0,0"
       style="fill:#808080;fill-opacity:1;fill-rule:nonzero;stroke:none"
       aria-label="G:Gradients"
       transform="matrix(1.3333333,0,0,1.3333333,259.47867,27.090667)" />
    <path
       id="path29"
       d="m 4.6293203,-1.6881172 c 0,-0.984375 -0.9023437,-1.828125 -2.0742187,-1.828125 -1.1835938,0 -2.07421879,0.8554688 -2.07421879,1.828125 0,0.97265626 0.91406249,1.79296876 2.07421879,1.79296876 1.1835937,0 2.0742187,-0.83203125 2.0742187,-1.79296876 z m -0.5742187,-0.070312 c 0,1.16015626 -0.7734375,1.68750001 -1.5,1.68750001 -0.75,0 -1.4882813,-0.55078125 -1.4882813,-1.68750001 0,-1.0898437 0.7734375,-1.5703125 1.4882813,-1.5703125 0.75,0 1.5,0.5039063 1.5,1.5703125 z m 4.3125,0.85546876 c 0,-0.37499996 -0.2226563,-0.59765626 -0.3164063,-0.67968746 -0.234375,-0.2226563 -0.5039062,-0.28125 -0.9140625,-0.3515625 -0.28125,-0.058594 -0.5625,-0.1171875 -0.6210937,-0.1289063 -0.1992188,-0.035156 -0.609375,-0.2226562 -0.609375,-0.5976562 0,-0.328125 0.375,-0.6445313 0.9140625,-0.6445313 0.890625,0 1.1015625,0.5859375 1.1601562,0.9492188 0.011719,0.070312 0.035156,0.082031 0.1054688,0.082031 0.1054687,0 0.1054687,-0.035156 0.1054687,-0.140625 v -0.9609375 c 0,-0.082031 0,-0.140625 -0.082031,-0.140625 -0.023437,0 -0.046875,0 -0.09375,0.070312 L 7.8168205,-3.1529611 C 7.5824455,-3.3756174 7.277758,-3.5162424 6.8207268,-3.5162424 c -0.703125,0 -1.21875,0.4453125 -1.21875,0.9492188 0,0.2695312 0.1523437,0.4921875 0.3046875,0.6210937 0.2578125,0.2109375 0.5039062,0.2578125 0.7382812,0.3046875 l 0.7851563,0.1523438 c 0.328125,0.082031 0.6328125,0.328125 0.6328125,0.66796871 0,0.3515625 -0.3515625,0.71484375 -0.9257813,0.71484375 -0.2226562,0 -0.6445312,-0.0351562 -0.9492187,-0.234375 -0.234375,-0.1640625 -0.3632813,-0.38671875 -0.375,-0.67968746 0,-0.082031 0,-0.1054688 -0.1054688,-0.1054688 -0.1054687,0 -0.1054687,0.035156 -0.1054687,0.14062501 v 0.94921875 c 0,0.09375 0,0.140625 0.082031,0.140625 0.046875,0 0.058594,-0.01171875 0.09375,-0.05859375 0.023437,-0.0234375 0.1875,-0.28125 0.1875,-0.28125 0.375,0.28125 0.8320313,0.33984375 1.171875,0.33984375 0.75,0 1.2304688,-0.4921875 1.2304688,-1.0078118 z M 10.157641,-1.8404609 c 0,-0.1757813 -0.128907,-0.3046875 -0.3046879,-0.3046875 -0.1640625,0 -0.2929687,0.1289062 -0.2929687,0.3046875 0,0.1640625 0.1289062,0.3046875 0.2929687,0.3046875 0.1640629,0 0.3046879,-0.140625 0.3046879,-0.3046875 z m 0,1.53515621 c 0,-0.1640625 -0.128907,-0.3046875 -0.3046879,-0.3046875 -0.1640625,0 -0.2929687,0.140625 -0.2929687,0.3046875 0,0.17578125 0.1289062,0.3046875025 0.2929687,0.3046875025 0.1640629,0 0.3046879,-0.1289062525 0.3046879,-0.3046875025 z m 7.68164,-1.38281251 c 0,-0.984375 -0.902344,-1.828125 -2.074219,-1.828125 -1.183593,0 -2.074218,0.8554688 -2.074218,1.828125 0,0.97265626 0.914062,1.79296876 2.074218,1.79296876 1.183594,0 2.074219,-0.83203125 2.074219,-1.79296876 z m -0.574219,-0.070312 c 0,1.16015626 -0.773437,1.68750001 -1.5,1.68750001 -0.75,0 -1.488281,-0.55078125 -1.488281,-1.68750001 0,-1.0898437 0.773438,-1.5703125 1.488281,-1.5703125 0.75,0 1.5,0.5039063 1.5,1.5703125 z m 4.441407,0.6796875 c 0,-0.5976562 -0.550782,-1.125 -1.289063,-1.125 -0.386719,0 -0.703125,0.140625 -0.867187,0.28125 v -0.28125 l -0.84375,0.058594 v 0.2226562 c 0.363281,0 0.421875,0 0.421875,0.2109375 v 2.26171876 c 0,0.15234375 0,0.19921875 -0.328125,0.19921875 h -0.09375 v 0.2109375 c 0.222656,-0.0117188 0.421875,-0.0117188 0.644531,-0.0117188 0.210937,0 0.421875,0 0.632812,0.0117188 v -0.2109375 h -0.09375 c -0.328125,0 -0.328125,-0.046875 -0.328125,-0.19921875 v -0.78515625 c 0.222657,0.19921875 0.492188,0.29296875 0.773438,0.29296875 0.75,0 1.371094,-0.515625 1.371094,-1.13671896 z m -0.503907,0 c 0,0.55078126 -0.410156,0.97265626 -0.902343,0.97265626 -0.222657,0 -0.492188,-0.09375 -0.667969,-0.328125 -0.07031,-0.0820313 -0.07031,-0.09375 -0.07031,-0.1875 V -1.6529609 c 0.222657,-0.3046875 0.597657,-0.375 0.796875,-0.375 0.492188,0 0.84375,0.4453125 0.84375,0.9492187 z m 3.079102,0.44531251 v -0.26953125 h -0.210937 v 0.2578125 c 0,0.375 -0.222657,0.515625 -0.398438,0.515625 -0.375,0 -0.375,-0.3984375 -0.375,-0.50390625 V -1.9224922 h 0.878906 v -0.2226562 h -0.878906 v -0.9140625 h -0.210937 c -0.01172,0.46875 -0.257813,0.9492187 -0.761719,0.9609375 v 0.1757812 h 0.527344 v 1.28906251 c 0,0.57421875 0.46875,0.69140625 0.773437,0.69140625 0.375,0 0.65625,-0.28125 0.65625,-0.69140575 z m 2.115234,0.6328125025 V -0.22327344 c -0.339843,0 -0.375,0 -0.375,-0.19921875 V -2.2037422 l -0.820312,0.058594 v 0.2226562 c 0.351562,0 0.398437,0.023437 0.398437,0.2695313 v 1.23046871 c 0,0.15234375 0,0.19921875 -0.328125,0.19921875 h -0.09375 V -6.171875e-4 C 25.389086,-0.01233594 25.600023,-0.02405469 25.799242,-0.02405469 c 0.1875,0 0.410156,0.01171875 0.597656,0.0234380025 z M 26.068773,-2.9888984 c 0,-0.1640625 -0.128906,-0.3046875 -0.304687,-0.3046875 -0.164063,0 -0.292969,0.140625 -0.292969,0.3046875 0,0.1640625 0.128906,0.3046875 0.292969,0.3046875 0.164062,0 0.304687,-0.140625 0.304687,-0.3046875 z m 5.838868,2.9882812125 V -0.22327344 h -0.08203 c -0.328125,0 -0.328125,-0.046875 -0.328125,-0.19921875 V -1.5006172 c 0,-0.6210937 -0.46875,-0.703125 -0.84375,-0.703125 -0.492187,0 -0.773437,0.2460938 -0.914062,0.46875 -0.117188,-0.4570312 -0.632813,-0.46875 -0.808594,-0.46875 -0.515625,0 -0.808594,0.28125 -0.925781,0.4921875 v -0.4921875 l -0.820313,0.058594 v 0.2226562 c 0.363282,0 0.410157,0.023437 0.410157,0.2695313 v 1.23046871 c 0,0.15234375 0,0.19921875 -0.316407,0.19921875 h -0.09375 V -6.171875e-4 C 27.395922,-0.01233594 27.606859,-0.02405469 27.817797,-0.02405469 c 0.210937,0 0.421875,0.01171875 0.632812,0.0234375025 V -0.22327344 h -0.08203 c -0.328125,0 -0.328125,-0.046875 -0.328125,-0.19921875 V -1.2896797 c 0,-0.5507812 0.503906,-0.75 0.832031,-0.75 0.363282,0 0.457032,0.2109375 0.457032,0.5273438 v 1.08984371 c 0,0.15234375 0,0.19921875 -0.328125,0.19921875 h -0.09375 v 0.2226562525 c 0.222655,-0.0117187525 0.421874,-0.0234375025 0.64453,-0.0234375025 0.210937,0 0.421875,0.01171875 0.632812,0.0234375025 V -0.22327344 h -0.09375 c -0.328125,0 -0.328125,-0.046875 -0.328125,-0.19921875 V -1.2896797 c 0,-0.5507812 0.515625,-0.75 0.832032,-0.75 0.363281,0 0.457031,0.2109375 0.457031,0.5273438 v 1.08984371 c 0,0.15234375 0,0.19921875 -0.328125,0.19921875 h -0.08203 V -6.171875e-4 C 30.852953,-0.01233594 31.063891,-0.02405469 31.274828,-0.02405469 c 0.210938,0 0.421875,0.01171875 0.632813,0.0234375025 z m 1.959961,0 V -0.22327344 c -0.339844,0 -0.375,0 -0.375,-0.19921875 V -2.2037422 l -0.820313,0.058594 v 0.2226562 c 0.351563,0 0.398438,0.023437 0.398438,0.2695313 v 1.23046871 c 0,0.15234375 0,0.19921875 -0.328125,0.19921875 h -0.09375 V -6.171875e-4 C 32.859789,-0.01233594 33.070727,-0.02405469 33.269945,-0.02405469 c 0.1875,0 0.410157,0.01171875 0.597657,0.0234375025 z M 33.539477,-2.9888984 c 0,-0.1640625 -0.128907,-0.3046875 -0.304688,-0.3046875 -0.164062,0 -0.292969,0.140625 -0.292969,0.3046875 0,0.1640625 0.128907,0.3046875 0.292969,0.3046875 0.164063,0 0.304688,-0.140625 0.304688,-0.3046875 z m 3.342773,2.00390621 h -0.210938 c -0.05859,0.5625 -0.140625,0.80859375 -0.84375,0.80859375 h -0.667968 l 1.652343,-1.76953126 c 0.04687,-0.058594 0.05859,-0.058594 0.05859,-0.1054687 0,-0.09375 -0.07031,-0.09375 -0.152344,-0.09375 h -2.003906 l -0.07031,0.8554687 h 0.210937 c 0.03516,-0.5507812 0.199219,-0.6914062 0.785156,-0.6914062 h 0.632813 l -1.664063,1.76953121 c -0.04687,0.0585938 -0.04687,0.0585938 -0.04687,0.10546875 0,0.1054687525 0.05859,0.1054687525 0.152344,0.1054687525 H 36.7885 Z m 3.125977,0.38671875 c 0,-0.0820313 -0.07031,-0.0820313 -0.09375,-0.0820313 -0.08203,0 -0.09375,0.0234375 -0.117188,0.09375 -0.140625,0.33984375 -0.515625,0.45703125 -0.785156,0.45703125 -0.410156,0 -0.632813,-0.22265625 -0.703125,-0.3046875 -0.199219,-0.234375 -0.199219,-0.55078125 -0.199219,-0.69140631 h 1.757813 c 0.105468,0 0.140625,0 0.140625,-0.1171875 0,-0.328125 -0.175782,-0.984375 -1.101563,-0.984375 -0.761719,0 -1.289062,0.5390625 -1.289062,1.125 0,0.63281256 0.597656,1.16015631 1.359375,1.16015631 0.796875,0 1.03125,-0.5625 1.03125,-0.65624995 z m -0.375,-0.67968746 h -1.511719 c 0.05859,-0.65625 0.539062,-0.7851563 0.773437,-0.7851563 0.691407,0 0.726563,0.6445313 0.738282,0.7851563 z m 3.09082,-0.5859375 c 0,-0.1875 -0.1875,-0.3398438 -0.445313,-0.3398438 -0.246093,0 -0.574218,0.1289063 -0.761718,0.5507813 h -0.01172 v -0.5507813 l -0.796875,0.058594 v 0.2226562 c 0.375,0 0.421875,0.023437 0.421875,0.2695313 v 1.23046871 c 0,0.15234375 0,0.19921875 -0.328125,0.19921875 h -0.09375 V -6.171875e-4 C 40.919359,-0.01233594 41.142016,-0.02405469 41.352953,-0.02405469 l 0.714844,0.0234375025 V -0.22327344 h -0.140625 c -0.375,0 -0.375,-0.046875 -0.375,-0.19921875 V -1.1138984 c 0,-0.46875 0.257812,-0.9140625 0.738281,-0.9257813 0,0 -0.07031,0.070313 -0.07031,0.1757813 0,0.1875 0.140625,0.2578125 0.246093,0.2578125 0.128907,0 0.257813,-0.082031 0.257813,-0.2578125 z m 5.90625,0.96093746 c 0,-0.37499996 -0.222656,-0.59765626 -0.316406,-0.67968746 -0.234375,-0.2226563 -0.503907,-0.28125 -0.914063,-0.3515625 -0.28125,-0.058594 -0.5625,-0.1171875 -0.621094,-0.1289063 -0.199218,-0.035156 -0.609375,-0.2226562 -0.609375,-0.5976562 0,-0.328125 0.375,-0.6445313 0.914063,-0.6445313 0.890625,0 1.101562,0.5859375 1.160156,0.9492188 0.01172,0.070312 0.03516,0.082031 0.105469,0.082031 0.105469,0 0.105469,-0.035156 0.105469,-0.140625 v -0.9609375 c 0,-0.082031 0,-0.140625 -0.08203,-0.140625 -0.02344,0 -0.04687,0 -0.09375,0.070312 l -0.199218,0.2929688 c -0.234375,-0.2226563 -0.539063,-0.3632813 -0.996094,-0.3632813 -0.703125,0 -1.21875,0.4453125 -1.21875,0.9492188 0,0.2695312 0.152344,0.4921875 0.304687,0.6210937 0.257813,0.2109375 0.503907,0.2578125 0.738282,0.3046875 l 0.785156,0.1523438 c 0.328125,0.082031 0.632812,0.328125 0.632812,0.66796871 0,0.3515625 -0.351562,0.71484375 -0.925781,0.71484375 -0.222656,0 -0.644531,-0.0351562 -0.949219,-0.234375 -0.234375,-0.1640625 -0.363281,-0.38671875 -0.375,-0.67968746 0,-0.082031 0,-0.1054688 -0.105468,-0.1054688 -0.105469,0 -0.105469,0.035156 -0.105469,0.14062501 v 0.94921875 c 0,0.09375 0,0.140625 0.08203,0.140625 0.04687,0 0.05859,-0.01171875 0.09375,-0.05859375 0.02344,-0.0234375 0.1875,-0.28125 0.1875,-0.28125 0.375,0.28125 0.832031,0.33984375 1.171875,0.33984375 0.75,0 1.230469,-0.4921875 1.230469,-1.0078125 z m 2.704101,0.26953125 v -0.26953125 h -0.210937 v 0.2578125 c 0,0.375 -0.222656,0.515625 -0.398438,0.515625 -0.375,0 -0.375,-0.3984375 -0.375,-0.50390625 V -1.9224922 h 0.878907 v -0.2226562 h -0.878907 v -0.9140625 h -0.210937 c -0.01172,0.46875 -0.257813,0.9492187 -0.761719,0.9609375 v 0.1757812 h 0.527344 v 1.28906251 c 0,0.57421875 0.46875,0.69140625 0.773437,0.69140625 0.375,0 0.65625,-0.28125 0.65625,-0.69140625 z m 3.650391,0.1875 v -0.28125 h -0.210937 v 0.26953125 c 0,0.046875 0,0.26953125 -0.199219,0.26953125 -0.199219,0 -0.199219,-0.22265625 -0.199219,-0.26953125 V -1.4771797 c 0,-0.4804687 -0.503906,-0.75 -1.125,-0.75 -0.304687,0 -0.878906,0.011719 -0.878906,0.4335938 0,0.1875 0.140625,0.2695312 0.269531,0.2695312 0.128906,0 0.257813,-0.09375 0.257813,-0.2695312 0,-0.1171875 -0.07031,-0.1875 -0.117188,-0.2226563 0.164063,-0.046875 0.410156,-0.046875 0.46875,-0.046875 0.421875,0 0.679688,0.234375 0.679688,0.5859375 v 0.1289063 c -0.480469,0.023437 -0.75,0.046875 -1.136719,0.1757812 -0.328125,0.1171875 -0.609375,0.32812501 -0.609375,0.64453126 0,0.46875 0.574219,0.5859375 0.972656,0.5859375 0.386719,0 0.679688,-0.1640625 0.832031,-0.41015625 0.02344,0.17578125 0.140625,0.38671875 0.386719,0.38671875 0.03516,0 0.609375,0 0.609375,-0.48046875 z m -1.054687,-0.2578125 c 0,0.5390625 -0.597657,0.59765625 -0.714844,0.59765625 -0.292969,0 -0.574219,-0.1640625 -0.574219,-0.421875 0,-0.1640625 0.105469,-0.62109376 1.289063,-0.66796876 z m 3.498046,0.0703125 v -0.26953125 h -0.210937 v 0.2578125 c 0,0.375 -0.222656,0.515625 -0.398438,0.515625 -0.375,0 -0.375,-0.3984375 -0.375,-0.50390625 V -1.9224922 h 0.878907 v -0.2226562 h -0.878907 v -0.9140625 h -0.210937 c -0.01172,0.46875 -0.257813,0.9492187 -0.761719,0.9609375 v 0.1757812 h 0.527344 v 1.28906251 c 0,0.57421875 0.46875,0.69140625 0.773437,0.69140625 0.375,0 0.65625,-0.28125 0.65625,-0.69140625 z m 3.202149,0.0351563 c 0,-0.0820313 -0.07031,-0.0820313 -0.09375,-0.0820313 -0.08203,0 -0.09375,0.0234375 -0.117188,0.09375 -0.140625,0.33984375 -0.515625,0.45703125 -0.785156,0.45703125 -0.410156,0 -0.632812,-0.22265625 -0.703125,-0.3046875 -0.199219,-0.234375 -0.199219,-0.55078125 -0.199219,-0.69140626 h 1.757813 c 0.105469,0 0.140625,0 0.140625,-0.1171875 0,-0.328125 -0.175781,-0.984375 -1.101563,-0.984375 -0.761718,0 -1.289062,0.5390625 -1.289062,1.125 0,0.63281251 0.597656,1.16015626 1.359375,1.16015626 0.796875,0 1.03125,-0.5625 1.03125,-0.65624995 z m -0.375,-0.67968751 h -1.511719 c 0.05859,-0.65625 0.539063,-0.7851563 0.773438,-0.7851563 0.691406,0 0.726562,0.6445313 0.738281,0.7851563 z m 3.079101,0.64453126 c 0,-0.22265625 -0.117187,-0.38671876 -0.316406,-0.50390626 -0.199219,-0.1289063 -0.339844,-0.140625 -0.761719,-0.2109375 -0.316406,-0.046875 -0.703125,-0.1054688 -0.703125,-0.375 0,-0.1757813 0.199219,-0.3632813 0.738282,-0.3632813 0.410156,0 0.65625,0.1640625 0.679687,0.515625 0.01172,0.070312 0.01172,0.1054688 0.105469,0.1054688 0.105469,0 0.105469,-0.035156 0.105469,-0.140625 v -0.4921875 c 0,-0.082031 0,-0.1289063 -0.08203,-0.1289063 -0.02344,0 -0.04687,0 -0.08203,0.035156 -0.02344,0.011719 -0.105469,0.09375 -0.128906,0.09375 0,0 -0.01172,0 -0.04687,-0.023437 -0.117188,-0.058594 -0.292969,-0.1054688 -0.550781,-0.1054688 -0.820313,0 -0.984375,0.375 -0.984375,0.5976563 0,0.46875 0.574218,0.5625 1.03125,0.63281251 0.292968,0.046875 0.75,0.1171875 0.75,0.45703125 0,0.17578125 -0.140625,0.43359375 -0.75,0.43359375 -0.339844,0 -0.667969,-0.12890625 -0.820313,-0.65625 -0.02344,-0.09375 -0.02344,-0.10546875 -0.105469,-0.10546875 -0.105468,0 -0.105468,0.0351563 -0.105468,0.140625 v 0.64453125 c 0,0.0820312525 0,0.140625 0.08203,0.140625 0.03516,0 0.03516,-0.01171875 0.128906,-0.10546875 l 0.140625,-0.1171875 c 0.246094,0.2109375 0.5625,0.22265625 0.679688,0.22265625 0.832031,0 0.996093,-0.43359375 0.996093,-0.69140625 z m 0,0"
       style="fill:#808080;fill-opacity:1;fill-rule:nonzero;stroke:none"
       aria-label="OS:OptimizerStates"
       transform="matrix(1.3333333,0,0,1.3333333,242.69867,27.090667)" />
  </g>
</svg>
