<?xml version="1.0" encoding="UTF-8" standalone="no"?>
<!-- Created with Inkscape (http://www.inkscape.org/) -->

<svg
   version="1.1"
   id="svg1"
   width="444.89468"
   height="293.54001"
   viewBox="0 0 444.89468 293.54001"
   xmlns="http://www.w3.org/2000/svg"
   xmlns:svg="http://www.w3.org/2000/svg">
  <defs
     id="defs1">
    <clipPath
       clipPathUnits="userSpaceOnUse"
       id="clipPath13">
      <path
         d="M 2.5000001e-7,0 H 266.98171 V 181.94183 H 2.5000001e-7 Z"
         id="path13" />
    </clipPath>
  </defs>
  <g
     id="g1">
    <path
       id="path1"
       d="M 0,0 V 181.94183 M 66.74542,0 V 181.94183 M 133.49084,0 V 181.94183 M 200.23627,0 V 181.94183 M 266.9817,0 v 181.94183"
       style="fill:none;stroke:#bfbfbf;stroke-width:0.3985;stroke-linecap:butt;stroke-linejoin:miter;stroke-miterlimit:10;stroke-dasharray:none;stroke-opacity:1"
       transform="matrix(1.3333333,0,0,-1.3333333,72.205333,252.668)" />
    <path
       id="path2"
       d="M 0,0 H 266.9817 M 0,45.48546 H 266.9817 M 0,90.97092 H 266.9817 M 0,136.45638 H 266.9817 M 0,181.94183 h 266.9817"
       style="fill:none;stroke:#bfbfbf;stroke-width:0.3985;stroke-linecap:butt;stroke-linejoin:miter;stroke-miterlimit:10;stroke-dasharray:none;stroke-opacity:1"
       transform="matrix(1.3333333,0,0,-1.3333333,72.205333,252.668)" />
    <path
       id="path3"
       d="M 0,0 V 4.25214 M 66.74542,0 V 4.25214 M 133.49084,0 V 4.25214 M 200.23627,0 V 4.25214 M 266.9817,0 V 4.25214 M 0,181.94183 v -4.25216 m 66.74542,4.25216 v -4.25216 m 66.74542,4.25216 v -4.25216 m 66.74543,4.25216 v -4.25216 m 66.74543,4.25216 v -4.25216"
       style="fill:none;stroke:#808080;stroke-width:0.19925;stroke-linecap:butt;stroke-linejoin:miter;stroke-miterlimit:10;stroke-dasharray:none;stroke-opacity:1"
       transform="matrix(1.3333333,0,0,-1.3333333,72.205333,252.668)" />
    <path
       id="path4"
       d="M 0,0 H 4.25203 M 0,45.48546 H 4.25203 M 0,90.97092 H 4.25203 M 0,136.45638 H 4.25203 M 0,181.94183 H 4.25203 M 266.9817,0 h -4.25206 m 4.25206,45.48546 h -4.25206 m 4.25206,45.48546 h -4.25206 m 4.25206,45.48546 h -4.25206 m 4.25206,45.48545 h -4.25206"
       style="fill:none;stroke:#808080;stroke-width:0.19925;stroke-linecap:butt;stroke-linejoin:miter;stroke-miterlimit:10;stroke-dasharray:none;stroke-opacity:1"
       transform="matrix(1.3333333,0,0,-1.3333333,72.205333,252.668)" />
    <path
       id="path5"
       d="M 0,0 V 181.94183 H 266.9817 V 0 Z"
       style="fill:none;stroke:#000000;stroke-width:0.3985;stroke-linecap:butt;stroke-linejoin:miter;stroke-miterlimit:10;stroke-dasharray:none;stroke-opacity:1"
       transform="matrix(1.3333333,0,0,-1.3333333,72.205333,252.668)" />
    <path
       id="path6"
       d="M 1.5458984,-6.5388828 H 0.71386719 V 1.796875e-4 H 4.7802734 V -0.73810156 h -3.234375 z m 5.8769532,1.7109375 c -1.3125,0 -2.109375,0.9375 -2.109375,2.5195312 0,1.57031254 0.7851562,2.51953129 2.1210937,2.51953129 1.3125,0 2.1210938,-0.94921875 2.1210938,-2.48437499 0,-1.6289063 -0.7734375,-2.5546875 -2.1328125,-2.5546875 z m 0.011719,0.6914062 c 0.84375,0 1.3476563,0.6796875 1.3476563,1.8515625 0,1.1015625 -0.5273438,1.80468754 -1.3476563,1.80468754 -0.8320312,0 -1.3476562,-0.69140624 -1.3476562,-1.82812504 0,-1.1367187 0.515625,-1.828125 1.3476562,-1.828125 z M 14.805664,1.796875e-4 16.188477,-4.6990391 h -0.84375 l -0.9375,3.65625 -0.925782,-3.65625 h -0.914062 l -0.890625,3.65625 -0.960938,-3.65625 H 9.8955078 L 11.254883,1.796875e-4 h 0.84375 L 13.000977,-3.6795078 13.950195,1.796875e-4 Z m 0,0"
       style="fill:#000000;fill-opacity:1;fill-rule:nonzero;stroke:none"
       aria-label="Low"
       transform="matrix(1.3333333,0,0,1.3333333,61.333333,265.87867)" />
    <path
       id="path7"
       d="M 4.1964375,1.796875e-4 6.0362813,-5.4724766 V 1.796875e-4 H 6.8214375 V -6.5388828 H 5.6612813 L 3.7628438,-0.84357031 1.82925,-6.5388828 H 0.66909375 V 1.796875e-4 H 1.4659688 V -5.4724766 L 3.3175313,1.796875e-4 Z M 12.062648,-2.0974766 c 0,-0.7148437 -0.04687,-1.1484375 -0.1875,-1.5 -0.304687,-0.7734375 -1.019531,-1.2304687 -1.8984371,-1.2304687 -1.3007812,0 -2.1445312,0.9960937 -2.1445312,2.5429687 0,1.54687504 0.8085937,2.49609379 2.1328125,2.49609379 1.0664058,0 1.8164058,-0.609375 2.0039058,-1.64062499 h -0.75 c -0.210937,0.62109374 -0.632812,0.94921874 -1.2304683,0.94921874 -0.4804688,0 -0.8789063,-0.22265625 -1.125,-0.60937504 -0.1875,-0.2695312 -0.2460938,-0.5390625 -0.2578125,-1.0078125 z m -3.4335933,-0.609375 c 0.058594,-0.8671875 0.5859375,-1.4296875 1.3359375,-1.4296875 0.7382808,0 1.3007808,0.609375 1.3007808,1.3710938 0,0.023437 0,0.035156 0,0.058594 z m 8.2675783,-3.8320312 h -0.75 v 2.4375 c -0.316406,-0.4804688 -0.808594,-0.7265625 -1.441406,-0.7265625 -1.21875,0 -2.015625,0.9726562 -2.015625,2.4726562 0,1.58203129 0.773437,2.56640629 2.039062,2.56640629 0.644531,0 1.101563,-0.24609375 1.5,-0.83203125 V 1.796875e-4 h 0.667969 z m -2.0625,2.4023437 c 0.808594,0 1.3125,0.7265625 1.3125,1.8398438 0,1.0898437 -0.515625,1.80468749 -1.3125,1.80468749 -0.820313,0 -1.371094,-0.72656249 -1.371094,-1.81640629 0,-1.1015625 0.550781,-1.828125 1.371094,-1.828125 z m 3.952148,-0.5625 h -0.75 V 1.796875e-4 h 0.75 z m 0,-1.8398437 h -0.761718 v 0.9492187 h 0.761718 z m 4.96875,6.5390624875 V -4.6990391 h -0.75 v 2.6601563 c 0,0.9609375 -0.503906,1.59374999 -1.277343,1.59374999 -0.597657,0 -0.972657,-0.36328125 -0.972657,-0.92578129 v -3.328125 H 20.01675 v 3.6210938 c 0,0.78515624 0.574219,1.28906249 1.488281,1.28906249 0.691407,0 1.136719,-0.24609375 1.570313,-0.8671875 V 1.796875e-4 Z M 25.047023,-4.6990391 V 1.796875e-4 h 0.75 V -2.9529453 c 0,-0.6796875 0.492188,-1.21875 1.101563,-1.21875 0.550781,0 0.867187,0.3398437 0.867187,0.9375 V 1.796875e-4 h 0.75 V -2.9529453 c 0,-0.6796875 0.492188,-1.21875 1.101563,-1.21875 0.550781,0 0.878906,0.3398437 0.878906,0.9375 V 1.796875e-4 h 0.75 V -3.5271641 c 0,-0.84375 -0.480469,-1.3007812 -1.359375,-1.3007812 -0.632812,0 -1.007812,0.1875 -1.453125,0.7148437 -0.269531,-0.5039062 -0.644531,-0.7148437 -1.253906,-0.7148437 -0.632813,0 -1.042969,0.234375 -1.453125,0.796875 v -0.6679688 z m 0,0"
       style="fill:#000000;fill-opacity:1;fill-rule:nonzero;stroke:none"
       aria-label="Medium"
       transform="matrix(1.3333333,0,0,1.3333333,228.936,265.87867)" />
    <path
       id="path8"
       d="M 4.9453516,-2.9763828 V 1.796875e-4 H 5.7773828 V -6.5388828 H 4.9453516 v 2.8242187 H 1.5820703 V -6.5388828 H 0.73832031 V 1.796875e-4 H 1.5820703 V -2.9763828 Z m 2.8769531,-1.7226563 h -0.75 V 1.796875e-4 h 0.75 z m 0,-1.8398437 H 7.0605859 v 0.9492187 h 0.7617188 z m 4.3330083,1.8398437 v 0.6796875 c -0.375,-0.5507812 -0.832032,-0.8085937 -1.429688,-0.8085937 -1.1953125,0 -2.0039062,1.03125 -2.0039062,2.5546875 0,0.7734375 0.2109375,1.40624999 0.5976562,1.85156249 0.3515625,0.3984375 0.84375,0.6328125 1.335938,0.6328125 0.597656,0 1.007812,-0.2578125 1.429687,-0.84375 v 0.234375 c 0,0.64453125 -0.08203,1.03125 -0.269531,1.2890625 C 11.61625,1.1603359 11.229531,1.3243984 10.7725,1.3243984 c -0.339844,0 -0.644531,-0.082031 -0.84375,-0.2460937 C 9.7529688,0.93767969 9.6826563,0.82049219 9.6357813,0.53924219 H 8.8740625 C 8.9560938,1.4298672 9.6475,1.9572109 10.749063,1.9572109 c 0.703125,0 1.300781,-0.2226562 1.605468,-0.5976562 0.363282,-0.43359376 0.492188,-1.03125001 0.492188,-2.13281251 V -4.6990391 Z m -1.347657,0.5625 c 0.808594,0 1.277344,0.6796875 1.277344,1.8515625 0,1.125 -0.480469,1.80468754 -1.277344,1.80468754 -0.8085935,0 -1.300781,-0.69140624 -1.300781,-1.82812504 0,-1.1367187 0.503906,-1.828125 1.300781,-1.828125 z m 3.275391,-2.4023437 V 1.796875e-4 h 0.738281 V -2.5896641 c 0,-0.9609375 0.503906,-1.5820312 1.277344,-1.5820312 0.234375,0 0.480469,0.070312 0.65625,0.2109375 0.222656,0.1523437 0.304687,0.375 0.304687,0.703125 V 1.796875e-4 h 0.75 V -3.5506016 c 0,-0.7851562 -0.5625,-1.2773437 -1.476562,-1.2773437 -0.667969,0 -1.066406,0.1992187 -1.511719,0.7734375 v -2.484375 z m 0,0"
       style="fill:#000000;fill-opacity:1;fill-rule:nonzero;stroke:none"
       aria-label="High"
       transform="matrix(1.3333333,0,0,1.3333333,415.88667,265.87867)" />
    <path
       id="path9"
       d="m 1.6538047,-2.7650937 h 2.0507812 c 0.515625,0 0.9140625,-0.1523438 1.265625,-0.46875 0.3867188,-0.3632813 0.5625,-0.7851563 0.5625,-1.3828125 0,-1.2304688 -0.7265625,-1.921875 -2.015625,-1.921875 H 0.82177344 V 5.3125e-4 H 1.6538047 Z m 0,-0.7382813 V -5.80025 h 1.734375 c 0.796875,0 1.2773437,0.4335938 1.2773437,1.1484375 0,0.7148438 -0.4804687,1.1484375 -1.2773437,1.1484375 z m 6.3164062,-1.3242187 c -1.3125,0 -2.109375,0.9375 -2.109375,2.5195312 0,1.5703125 0.7851563,2.51953125 2.1210938,2.51953125 1.3125,0 2.1210933,-0.94921875 2.1210933,-2.48437495 0,-1.6289063 -0.7734371,-2.5546875 -2.1328121,-2.5546875 z m 0.011719,0.6914062 c 0.84375,0 1.3476562,0.6796875 1.3476562,1.8515625 0,1.1015625 -0.5273437,1.8046875 -1.3476562,1.8046875 -0.8320313,0 -1.3476563,-0.6914062 -1.3476563,-1.828125 0,-1.1367187 0.515625,-1.828125 1.3476563,-1.828125 z m 4.9716791,-0.6914062 c -1.3125,0 -2.109375,0.9375 -2.109375,2.5195312 0,1.5703125 0.785157,2.51953125 2.121094,2.51953125 1.3125,0 2.121094,-0.94921875 2.121094,-2.48437495 0,-1.6289063 -0.773438,-2.5546875 -2.132813,-2.5546875 z m 0.01172,0.6914062 c 0.84375,0 1.347656,0.6796875 1.347656,1.8515625 0,1.1015625 -0.527343,1.8046875 -1.347656,1.8046875 -0.832031,0 -1.347656,-0.6914062 -1.347656,-1.828125 0,-1.1367187 0.515625,-1.828125 1.347656,-1.828125 z m 3.158203,-0.5625 V 5.3125e-4 h 0.75 V -2.4369687 c 0,-0.6679688 0.175781,-1.1132813 0.527344,-1.3710938 0.234375,-0.1757812 0.457031,-0.2226562 0.984375,-0.234375 v -0.7617187 c -0.128906,-0.023437 -0.199219,-0.023437 -0.292969,-0.023437 -0.480469,0 -0.855469,0.28125 -1.277344,0.984375 V -4.698687 Z m 0,0"
       style="fill:#000000;fill-opacity:1;fill-rule:nonzero;stroke:none"
       aria-label="Poor"
       transform="matrix(1.3333333,0,0,1.3333333,42.861333,256.85867)" />
    <path
       id="path10"
       d="M 4.1943125,8.046875e-4 6.0341562,-5.4718516 V 8.046875e-4 H 6.8193125 V -6.5382578 H 5.6591562 L 3.7607187,-0.84294531 1.827125,-6.5382578 H 0.66696875 V 8.046875e-4 H 1.4638437 V -5.4718516 L 3.3154062,8.046875e-4 Z M 12.063453,-2.0968516 c 0,-0.7148437 -0.04687,-1.1484375 -0.1875,-1.5 -0.304687,-0.7734375 -1.019531,-1.2304687 -1.8984374,-1.2304687 -1.3007812,0 -2.1445312,0.9960937 -2.1445312,2.5429687 0,1.54687504 0.8085937,2.49609379 2.1328125,2.49609379 1.0664061,0 1.8164061,-0.609375 2.0039061,-1.64062499 h -0.75 c -0.210937,0.62109374 -0.632812,0.94921874 -1.2304686,0.94921874 -0.4804688,0 -0.8789063,-0.22265625 -1.125,-0.60937504 -0.1875,-0.2695312 -0.2460938,-0.5390625 -0.2578125,-1.0078125 z m -3.4335936,-0.609375 c 0.058594,-0.8671875 0.5859375,-1.4296875 1.3359375,-1.4296875 0.7382811,0 1.3007811,0.609375 1.3007811,1.3710938 0,0.023437 0,0.035156 0,0.058594 z m 8.2646486,-3.8320312 h -0.75 v 2.4375 c -0.316406,-0.4804688 -0.808594,-0.7265625 -1.441406,-0.7265625 -1.21875,0 -2.015625,0.9726562 -2.015625,2.4726562 0,1.58203129 0.773437,2.56640629 2.039062,2.56640629 0.644531,0 1.101563,-0.24609375 1.5,-0.83203125 V 8.046875e-4 h 0.667969 z m -2.0625,2.4023437 c 0.808594,0 1.3125,0.7265625 1.3125,1.8398438 0,1.0898437 -0.515625,1.80468749 -1.3125,1.80468749 -0.820313,0 -1.371094,-0.72656249 -1.371094,-1.81640629 0,-1.1015625 0.550781,-1.828125 1.371094,-1.828125 z m 3.955078,-0.5625 h -0.75 V 8.046875e-4 h 0.75 z m 0,-1.8398437 h -0.761719 v 0.9492187 h 0.761719 z m 4.96582,6.5390624875 V -4.6984141 h -0.75 v 2.6601563 c 0,0.9609375 -0.503906,1.59374999 -1.277344,1.59374999 -0.597656,0 -0.972656,-0.36328125 -0.972656,-0.92578129 v -3.328125 h -0.738281 v 3.6210938 c 0,0.78515624 0.574219,1.28906249 1.488281,1.28906249 0.691406,0 1.136719,-0.24609375 1.570313,-0.8671875 V 8.046875e-4 Z M 25.047828,-4.6984141 V 8.046875e-4 h 0.75 V -2.9523203 c 0,-0.6796875 0.492188,-1.21875 1.101563,-1.21875 0.550781,0 0.867187,0.3398437 0.867187,0.9375 V 8.046875e-4 h 0.75 V -2.9523203 c 0,-0.6796875 0.492188,-1.21875 1.101563,-1.21875 0.550781,0 0.878906,0.3398437 0.878906,0.9375 V 8.046875e-4 h 0.75 V -3.5265391 c 0,-0.84375 -0.480469,-1.3007812 -1.359375,-1.3007812 -0.632813,0 -1.007813,0.1875 -1.453125,0.7148437 -0.269531,-0.5039062 -0.644531,-0.7148437 -1.253906,-0.7148437 -0.632813,0 -1.042969,0.234375 -1.453125,0.796875 v -0.6679688 z m 0,0"
       style="fill:#000000;fill-opacity:1;fill-rule:nonzero;stroke:none"
       aria-label="Medium"
       transform="matrix(1.3333333,0,0,1.3333333,25.001333,135.56533)" />
    <path
       id="path11"
       d="m 3.4922813,-6.6454687 c -1.875,0 -3.1523438,1.3828125 -3.1523438,3.421875 0,2.0507812 1.2773438,3.4335937 3.1523438,3.4335937 0.796875,0 1.5,-0.24609375 2.0273437,-0.69140625 C 6.2344688,-1.0907812 6.6563438,-2.0985937 6.6563438,-3.165 c 0,-2.109375 -1.2539063,-3.4804687 -3.1640625,-3.4804687 z m 0,0.7382812 c 1.40625,0 2.3203125,1.078125 2.3203125,2.71875 0,1.5820313 -0.9375,2.66015625 -2.3203125,2.66015625 -1.3828125,0 -2.3203125,-1.07812495 -2.3203125,-2.69531245 0,-1.6054688 0.9375,-2.6835938 2.3203125,-2.6835938 z M 7.4561484,1.9560938 H 8.2178672 V -0.493125 C 8.6045859,-0.01265625 9.0498984,0.21 9.6592734,0.21 c 1.2070316,0 2.0039066,-0.984375 2.0039066,-2.484375 0,-1.5703125 -0.773438,-2.5546875 -2.0156253,-2.5546875 -0.6328125,0 -1.1484375,0.28125 -1.5,0.84375 V -4.7001562 H 7.4561484 Z m 2.0625,-6.09375 c 0.8320316,0 1.3710936,0.7265625 1.3710936,1.8515625 0,1.0664062 -0.550781,1.7929687 -1.3710936,1.7929687 -0.7851562,0 -1.3007812,-0.7148437 -1.3007812,-1.8164062 0,-1.1015625 0.515625,-1.828125 1.3007812,-1.828125 z m 4.7167966,-0.5625 h -0.761718 v -1.2890625 h -0.75 v 1.2890625 h -0.632813 v 0.609375 h 0.632813 V -0.54 c 0,0.48046875 0.328125,0.75 0.902343,0.75 0.1875,0 0.363282,-0.0234375 0.609375,-0.0703125 v -0.62109375 c -0.09375,0.0234375 -0.210937,0.0351563 -0.351562,0.0351563 -0.328125,0 -0.410156,-0.09375 -0.410156,-0.421875 V -4.0907811 h 0.761718 z m 1.567383,0 h -0.75 v 4.6992187 h 0.75 z m 0,-1.8398438 h -0.761719 v 0.9492188 h 0.761719 z m 1.274414,1.8398438 v 4.6992187 h 0.75 v -2.953125 c 0,-0.6796875 0.492188,-1.21875 1.101563,-1.21875 0.550781,0 0.867187,0.3398438 0.867187,0.9375 v 3.234375 h 0.75 v -2.953125 c 0,-0.6796875 0.492188,-1.21875 1.101563,-1.21875 0.550781,0 0.878906,0.3398438 0.878906,0.9375 v 3.234375 h 0.75 v -3.5273437 c 0,-0.84375 -0.480469,-1.3007813 -1.359375,-1.3007813 -0.632813,0 -1.007813,0.1875 -1.453125,0.7148438 -0.269531,-0.5039063 -0.644531,-0.7148438 -1.253906,-0.7148438 -0.632813,0 -1.042969,0.234375 -1.453125,0.796875 v -0.6679687 z m 11.62793,4.26562495 c -0.08203,0.0117188 -0.117188,0.0117188 -0.152344,0.0117188 -0.269531,0 -0.410156,-0.12890625 -0.410156,-0.36328125 v -2.765625 c 0,-0.8320313 -0.609375,-1.2773438 -1.769531,-1.2773438 -0.679688,0 -1.242188,0.1875 -1.558594,0.5390625 -0.210938,0.2460938 -0.304688,0.515625 -0.316406,0.984375 h 0.75 c 0.05859,-0.5742187 0.398437,-0.8320312 1.101562,-0.8320312 0.667969,0 1.054688,0.2460937 1.054688,0.6914062 v 0.1992188 c 0,0.3164062 -0.1875,0.4453125 -0.785157,0.515625 -1.054687,0.140625 -1.21875,0.1757812 -1.5,0.2929687 -0.550781,0.2226563 -0.832031,0.6445313 -0.832031,1.2539063 0,0.8554687 0.597656,1.3945312 1.546875,1.3945312 0.585938,0 1.066406,-0.2109375 1.59375,-0.69140625 0.04687,0.46875 0.28125,0.69140625 0.773438,0.69140625 0.152343,0 0.269531,-0.0234375 0.503906,-0.0820313 z M 27.404391,-1.4775 c 0,0.2460938 -0.08203,0.3984375 -0.304688,0.609375 -0.304687,0.28125 -0.667969,0.421875 -1.113281,0.421875 -0.574219,0 -0.914063,-0.28125 -0.914063,-0.7617187 0,-0.4921875 0.328125,-0.7382813 1.125,-0.8554688 0.785157,-0.1054687 0.949219,-0.140625 1.207032,-0.2578125 z M 30.257906,-6.54 h -0.75 v 6.5390625 h 0.75 z m 0,0"
       style="fill:#000000;fill-opacity:1;fill-rule:nonzero;stroke:none"
       aria-label="Optimal"
       transform="matrix(1.3333333,0,0,1.3333333,26.328,13.22)" />
    <path
       id="path12"
       d="m 40.04733,181.94206 4.3589,-2.40063 4.35889,-2.44914 4.3589,-2.49762 4.35889,-2.54613 4.3589,-2.59464 4.35889,-2.64311 4.3589,-2.69162 4.35889,-2.74013 4.3589,-2.7886 4.35889,-2.83711 4.35888,-2.88563 4.3589,-2.9341 4.35889,-2.98261 4.3589,-3.0311 4.35889,-3.0796 4.3589,-3.12812 4.35889,-3.17659 4.3589,-3.22509 4.35889,-3.27359 4.3589,-3.3221 4.35888,-3.37058 4.3589,-3.41909 4.3589,-3.4676 4.35888,-3.51606 4.35892,-3.56458 4.35889,-3.61308 4.3589,-3.66158 4.35888,-3.71006 4.35891,-3.75859 4.35888,-3.80706 4.35891,-3.85557 4.35888,-3.90405 4.35889,-3.95257 4.3589,-4.00106 4.35889,-4.04955 4.3589,-4.09805 4.35889,-4.14657 4.3589,-4.19503 4.35888,-4.24355 4.3589,-4.29205 4.3589,-4.34055 4.3589,-4.38903 4.35888,-4.43753 4.35889,-4.48604 4.3589,-4.53453 4.35889,-4.58303 4.3589,-4.63153 4.35889,-4.68003 4.3589,-4.72852"
       style="fill:none;stroke:#000000;stroke-width:0.79701;stroke-linecap:butt;stroke-linejoin:miter;stroke-miterlimit:10;stroke-dasharray:2.98883, 2.98883;stroke-dashoffset:0;stroke-opacity:1"
       transform="matrix(1.3333333,0,0,-1.3333333,72.205333,252.668)"
       clip-path="url(#clipPath13)" />
    <path
       id="path14"
       d="m 5.2840469,-3.9500469 c 0,-0.7851562 -0.84375,-1.4882812 -1.9921875,-1.4882812 H 0.36217188 v 0.2578125 h 0.17578125 c 0.62109377,0 0.63281247,0.082031 0.63281247,0.3867187 v 4.14843753 c 0,0.29296875 -0.011719,0.38671875 -0.63281247,0.38671875 H 0.36217188 V -8.28125e-4 L 1.5340469,-0.02426562 2.7059219,-8.28125e-4 V -0.25864062 H 2.5301406 c -0.609375,0 -0.6210937,-0.09375 -0.6210937,-0.38671875 V -2.4852031 h 1.4414062 c 0.984375,0 1.9335938,-0.6328125 1.9335938,-1.4648438 z m -0.8320313,0 c 0,0.3515625 0,1.21875 -1.359375,1.21875 h -1.21875 v -2.1210937 c 0,-0.2695313 0.023437,-0.328125 0.3867188,-0.328125 h 0.8320312 c 1.359375,0 1.359375,0.8671875 1.359375,1.2304687 z m 5.1738282,3.23437503 V -1.1609844 H 9.3680313 v 0.44531253 c 0,0.328125 -0.1171875,0.45703125 -0.28125,0.45703125 -0.2929688,0 -0.2929688,-0.375 -0.2929688,-0.45703125 V -2.3797344 c 0,-0.7734375 -0.7617187,-1.171875 -1.4882812,-1.171875 -0.65625,0 -1.2421875,0.2460938 -1.2421875,0.7734375 0,0.2460938 0.1640625,0.3867188 0.375,0.3867188 0.2226562,0 0.3632812,-0.1640625 0.3632812,-0.375 0,-0.1875 -0.1171875,-0.328125 -0.2929687,-0.3632813 0.2929687,-0.1992187 0.7265625,-0.1992187 0.7851562,-0.1992187 0.4453125,0 0.890625,0.3046875 0.890625,0.9609375 v 0.2460937 c -0.4570312,0.023437 -0.9960937,0.046875 -1.546875,0.28125 -0.703125,0.3046875 -0.84375,0.7617188 -0.84375,1.03125003 0,0.6796875 0.8085938,0.890625 1.359375,0.890625 0.5742188,0 0.9375,-0.328125 1.1132813,-0.64453125 0.035156,0.3046875 0.2460937,0.59765625 0.5976562,0.59765625 0.082031,0 0.7617188,-0.0234375 0.7617188,-0.75 z M 8.1844375,-1.1258281 c 0,0.77343748 -0.65625,0.98437498 -0.9726562,0.98437498 -0.4101563,0 -0.7617188,-0.28125 -0.7617188,-0.66796875 0,-0.52734373 0.4921875,-1.06640623 1.734375,-1.10156253 z m 4.6289065,-1.8867188 c 0,-0.28125 -0.257813,-0.5039062 -0.609375,-0.5039062 -0.515625,0 -0.867188,0.3867187 -1.03125,0.84375 H 11.161 v -0.84375 l -1.125,0.09375 v 0.2578125 c 0.539063,0 0.597656,0.058594 0.597656,0.4453125 v 2.09765623 c 0,0.36328125 -0.09375,0.36328125 -0.597656,0.36328125 v 0.257812495 c 0.304688,-0.023437495 0.75,-0.023437495 0.9375,-0.023437495 0.46875,0 0.492188,0 1.007813,0.023437495 V -0.25864062 H 11.81725 c -0.585937,0 -0.597656,-0.09375 -0.597656,-0.375 V -1.8172344 c 0,-0.5976562 0.246094,-1.453125 1.007812,-1.4765625 -0.04687,0.035156 -0.117187,0.09375 -0.117187,0.28125 0,0.2460938 0.1875,0.3632813 0.351562,0.3632813 0.1875,0 0.351563,-0.1289063 0.351563,-0.3632813 z m 3.755859,2.05078128 c 0,-0.0234375 -0.02344,-0.10546878 -0.128906,-0.10546878 -0.08203,0 -0.105469,0.058594 -0.117188,0.10546878 -0.292968,0.7734375 -0.972656,0.796875 -1.113281,0.796875 -0.363281,0 -0.726562,-0.17578125 -0.972656,-0.5390625 C 14.002797,-1.0672344 14.002797,-1.5828594 14.002797,-1.8172344 h 2.34375 c 0.175781,0 0.222656,0 0.222656,-0.1875 0,-0.703125 -0.386719,-1.546875 -1.511719,-1.546875 -0.996093,0 -1.769531,0.8203125 -1.769531,1.8046875 0,1.03125003 0.867188,1.82812503 1.875,1.82812503 1.007813,0 1.40625,-0.85546875 1.40625,-1.04296875 z M 16.030141,-2.0281719 h -2.015625 c 0.07031,-1.1132812 0.75,-1.3007812 1.042968,-1.3007812 0.925782,0 0.960938,1.125 0.972657,1.3007812 z m 3.600586,1.03125003 V -1.4422344 h -0.246094 v 0.4335938 c 0,0.55078123 -0.246094,0.84374998 -0.550781,0.84374998 -0.539063,0 -0.539063,-0.69140625 -0.539063,-0.8203125 V -3.1766094 h 1.195313 v -0.2578125 h -1.195313 v -1.4648437 h -0.246094 c 0,0.7265625 -0.328125,1.4765625 -1.066406,1.5 v 0.2226562 h 0.714844 v 2.17968753 c 0,0.9375 0.714844,1.078125 1.078125,1.078125 0.539062,0 0.855469,-0.48046875 0.855469,-1.078125 z m 4.461914,-0.70312503 c 0,-0.9960937 -0.820313,-1.8515625 -1.875,-1.8515625 -1.054688,0 -1.875,0.8554688 -1.875,1.8515625 0,0.99609378 0.855468,1.78125003 1.875,1.78125003 1.03125,0 1.875,-0.78515625 1.875,-1.78125003 z m -0.714844,-0.070312 c 0,0.3632813 -0.01172,0.80859378 -0.234375,1.13671878 -0.210938,0.31640625 -0.574219,0.46875 -0.925781,0.46875 -0.433594,0 -0.761719,-0.2109375 -0.9375,-0.4921875 -0.199219,-0.328125 -0.222657,-0.71484378 -0.222657,-1.11328128 0,-0.3046875 0,-0.7851562 0.246094,-1.125 0.210938,-0.28125 0.539063,-0.4335937 0.914063,-0.4335937 0.421875,0 0.761718,0.1992187 0.9375,0.4804687 0.222656,0.328125 0.222656,0.7617188 0.222656,1.078125 z m 8.944336,-1.8398437 -0.234375,-1.8046875 h -4.582031 v 0.2578125 h 0.175781 c 0.609375,0 0.632812,0.09375 0.632812,0.3867187 v 4.12500003 c 0,0.29296875 -0.02344,0.38671875 -0.632812,0.38671875 h -0.175781 v 0.257812495 l 1.230468,-0.023437495 c 0.375,0 0.949219,0 1.3125,0.023437495 V -0.25864062 h -0.257812 c -0.75,0 -0.75,-0.1171875 -0.75,-0.3984375 V -2.5789531 h 0.738281 c 0.785156,0 0.878906,0.2460937 0.878906,0.9257812 h 0.246094 V -3.7742656 H 30.65807 c 0,0.6679687 -0.09375,0.9257812 -0.878906,0.9257812 h -0.738281 v -1.9804687 c 0,-0.2695313 0.02344,-0.328125 0.386719,-0.328125 h 1.054687 c 1.300781,0 1.453125,0.5039062 1.59375,1.546875 z m 2.71289,0.5976562 c 0,-0.28125 -0.257812,-0.5039062 -0.609375,-0.5039062 -0.515625,0 -0.867187,0.3867187 -1.03125,0.84375 h -0.01172 v -0.84375 l -1.125,0.09375 v 0.2578125 c 0.539062,0 0.597656,0.058594 0.597656,0.4453125 v 2.09765623 c 0,0.36328125 -0.09375,0.36328125 -0.597656,0.36328125 v 0.257812495 c 0.304687,-0.023437495 0.75,-0.023437495 0.9375,-0.023437495 0.46875,0 0.492187,0 1.007812,0.023437495 V -0.25864062 h -0.16406 c -0.585938,0 -0.597657,-0.09375 -0.597657,-0.375 V -1.8172344 c 0,-0.5976562 0.246094,-1.453125 1.007813,-1.4765625 -0.04687,0.035156 -0.117188,0.09375 -0.117188,0.28125 0,0.2460938 0.1875,0.3632813 0.351563,0.3632813 0.1875,0 0.351562,-0.1289063 0.351562,-0.3632808 z m 4.22461,1.3125 c 0,-0.9960937 -0.820313,-1.8515625 -1.875,-1.8515625 -1.054688,0 -1.875,0.8554688 -1.875,1.8515625 0,0.99609378 0.855469,1.78125003 1.875,1.78125003 1.03125,0 1.875,-0.78515625 1.875,-1.78125003 z m -0.714844,-0.070312 c 0,0.3632813 -0.01172,0.80859378 -0.234375,1.13671878 -0.210937,0.31640625 -0.574219,0.46875 -0.925781,0.46875 -0.433594,0 -0.761719,-0.2109375 -0.9375,-0.4921875 -0.199219,-0.328125 -0.222656,-0.71484378 -0.222656,-1.11328128 0,-0.3046875 0,-0.7851562 0.246093,-1.125 0.210938,-0.28125 0.539063,-0.4335937 0.914063,-0.4335937 0.421875,0 0.761719,0.1992187 0.9375,0.4804687 0.222656,0.328125 0.222656,0.7617188 0.222656,1.078125 z m 5.44043,1.769531275 V -0.25864062 c -0.503906,0 -0.609375,0 -0.609375,-0.36328125 V -2.4148906 c 0,-0.6679688 -0.292969,-1.1015625 -1.136719,-1.1015625 -0.785156,0 -1.148437,0.5742187 -1.242187,0.7617187 h -0.01172 v -0.7617187 l -1.148438,0.09375 v 0.2578125 c 0.539063,0 0.609375,0.058594 0.609375,0.4453125 v 2.09765623 c 0,0.36328125 -0.105468,0.36328125 -0.609375,0.36328125 v 0.257812495 c 0.339844,-0.023437495 0.691407,-0.023437495 0.902344,-0.023437495 0.234375,0 0.574219,0 0.914063,0.023437495 V -0.25864062 c -0.515625,0 -0.609375,0 -0.609375,-0.36328125 V -2.0633281 c 0,-0.84375 0.644531,-1.2304688 1.125,-1.2304688 0.492187,0 0.609375,0.3398438 0.609375,0.84375 v 1.82812503 c 0,0.36328125 -0.09375,0.36328125 -0.609375,0.36328125 v 0.257812495 c 0.339843,-0.023437495 0.691406,-0.023437495 0.914062,-0.023437495 0.222656,0 0.5625,0 0.902344,0.023437495 z M 46.78307,-0.99692187 V -1.4422344 h -0.246093 v 0.4335938 c 0,0.55078123 -0.246094,0.84374998 -0.550782,0.84374998 -0.539062,0 -0.539062,-0.69140625 -0.539062,-0.8203125 V -3.1766094 h 1.195312 v -0.2578125 h -1.195312 v -1.4648437 h -0.246094 c 0,0.7265625 -0.328125,1.4765625 -1.066406,1.5 v 0.2226562 h 0.714844 v 2.17968753 c 0,0.9375 0.714843,1.078125 1.078125,1.078125 0.539062,0 0.855468,-0.48046875 0.855468,-1.078125 z m 2.554688,0.996093745 V -0.25864062 c -0.515625,0 -0.550781,-0.046875 -0.550781,-0.3515625 V -3.5164531 l -1.160157,0.09375 v 0.2578125 c 0.503907,0 0.574219,0.046875 0.574219,0.4335937 v 2.10937503 c 0,0.36328125 -0.09375,0.36328125 -0.597656,0.36328125 v 0.257812495 c 0.304687,-0.023437495 0.75,-0.023437495 0.867187,-0.023437495 0.105469,0 0.585938,0 0.867188,0.023437495 z M 48.880727,-4.7937969 c 0,-0.2695312 -0.210938,-0.4453125 -0.433594,-0.4453125 -0.234375,0 -0.445313,0.1757813 -0.445313,0.4453125 0,0.2226563 0.1875,0.4335938 0.445313,0.4335938 0.246094,0 0.433594,-0.2109375 0.433594,-0.4335938 z m 4.248046,3.83203128 c 0,-0.0234375 -0.02344,-0.10546878 -0.128906,-0.10546878 -0.08203,0 -0.105469,0.058594 -0.117187,0.10546878 -0.292969,0.7734375 -0.972657,0.796875 -1.113282,0.796875 -0.363281,0 -0.726562,-0.17578125 -0.972656,-0.5390625 C 50.562367,-1.0672344 50.562367,-1.5828594 50.562367,-1.8172344 h 2.34375 c 0.175781,0 0.222656,0 0.222656,-0.1875 0,-0.703125 -0.386718,-1.546875 -1.511718,-1.546875 -0.996094,0 -1.769532,0.8203125 -1.769532,1.8046875 0,1.03125003 0.867188,1.82812503 1.875,1.82812503 1.007813,0 1.40625,-0.85546875 1.40625,-1.04296875 z M 52.589711,-2.0281719 h -2.015625 c 0.07031,-1.1132812 0.75,-1.3007812 1.042969,-1.3007812 0.925781,0 0.960937,1.125 0.972656,1.3007812 z m 3.84375,-0.984375 c 0,-0.28125 -0.257813,-0.5039062 -0.609375,-0.5039062 -0.515625,0 -0.867188,0.3867187 -1.03125,0.84375 h -0.01172 v -0.84375 l -1.125,0.09375 v 0.2578125 c 0.539063,0 0.597656,0.058594 0.597656,0.4453125 v 2.09765623 c 0,0.36328125 -0.09375,0.36328125 -0.597656,0.36328125 v 0.257812495 c 0.304688,-0.023437495 0.75,-0.023437495 0.9375,-0.023437495 0.46875,0 0.492188,0 1.007813,0.023437495 V -0.25864062 h -0.164063 c -0.585937,0 -0.597656,-0.09375 -0.597656,-0.375 V -1.8172344 c 0,-0.5976562 0.246094,-1.453125 1.007812,-1.4765625 -0.04687,0.035156 -0.117187,0.09375 -0.117187,0.28125 0,0.2460938 0.1875,0.3632813 0.351562,0.3632813 0.1875,0 0.351563,-0.1289063 0.351564,-0.3632813 z m 0,0"
       style="fill:#000000;fill-opacity:1;fill-rule:nonzero;stroke:none"
       aria-label="ParetoFrontier"
       transform="matrix(1.3333333,0,0,1.3333333,330.11867,216.10267)" />
    <path
       id="path15"
       d="m 5.9288359,-4.510875 c -0.2578125,-1.4296875 -1.078125,-2.1328125 -2.5195312,-2.1328125 -0.8789063,0 -1.5820313,0.28125 -2.0625,0.8203125 -0.59765626,0.6445313 -0.91406251,1.5703125 -0.91406251,2.6367188 0,1.0664062 0.328125,1.9921875 0.94921871,2.6367187 0.5039063,0.515625 1.1484375,0.76171875 1.9921875,0.76171875 1.6054688,0 2.4960938,-0.8671875 2.6953125,-2.58984375 H 5.2022734 c -0.070312,0.4453125 -0.1523437,0.75 -0.2929687,1.0078125 -0.2695313,0.5390625 -0.8203125,0.84375 -1.5234375,0.84375 -1.3007813,0 -2.1210938,-1.0429687 -2.1210938,-2.671875 0,-1.6757812 0.7851563,-2.7070312 2.0507813,-2.7070312 0.5273437,0 1.0195312,0.1640625 1.2890625,0.4101562 0.2460937,0.2226563 0.375,0.5039063 0.4804687,0.984375 z m 2.9824219,-0.3164062 c -1.3125,0 -2.109375,0.9375 -2.109375,2.5195312 0,1.5703125 0.7851563,2.51953125 2.1210938,2.51953125 1.3125004,0 2.1210934,-0.94921875 2.1210934,-2.48437495 0,-1.6289063 -0.773437,-2.5546875 -2.1328122,-2.5546875 z m 0.011719,0.6914062 c 0.84375,0 1.3476562,0.6796875 1.3476562,1.8515625 0,1.1015625 -0.5273437,1.8046875 -1.3476562,1.8046875 -0.8320313,0 -1.3476563,-0.6914062 -1.3476563,-1.828125 0,-1.1367187 0.515625,-1.828125 1.3476563,-1.828125 z m 3.1699212,-0.5625 V 8.4375e-4 h 0.75 V -2.9522812 c 0,-0.6796875 0.492188,-1.21875 1.101563,-1.21875 0.550781,0 0.867187,0.3398437 0.867187,0.9375 V 8.4375e-4 h 0.75 V -2.9522812 c 0,-0.6796875 0.492188,-1.21875 1.101563,-1.21875 0.550781,0 0.878906,0.3398437 0.878906,0.9375 V 8.4375e-4 h 0.75 V -3.5265 c 0,-0.84375 -0.480469,-1.3007812 -1.359375,-1.3007812 -0.632812,0 -1.007812,0.1875 -1.453125,0.7148437 -0.269531,-0.5039062 -0.644531,-0.7148437 -1.253906,-0.7148437 -0.632813,0 -1.042969,0.234375 -1.453125,0.796875 V -4.698375 Z m 7.467774,0 V 8.4375e-4 h 0.75 V -2.9522812 c 0,-0.6796875 0.492187,-1.21875 1.101562,-1.21875 0.550782,0 0.867188,0.3398437 0.867188,0.9375 V 8.4375e-4 h 0.75 V -2.9522812 c 0,-0.6796875 0.492187,-1.21875 1.101562,-1.21875 0.550782,0 0.878907,0.3398437 0.878907,0.9375 V 8.4375e-4 h 0.75 V -3.5265 c 0,-0.84375 -0.480469,-1.3007812 -1.359375,-1.3007812 -0.632813,0 -1.007813,0.1875 -1.453125,0.7148437 -0.269532,-0.5039062 -0.644532,-0.7148437 -1.253907,-0.7148437 -0.632812,0 -1.042968,0.234375 -1.453125,0.796875 V -4.698375 Z M 30.631961,8.4375e-4 V -4.698375 h -0.75 v 2.6601563 c 0,0.9609375 -0.503906,1.59374995 -1.277344,1.59374995 -0.597656,0 -0.972656,-0.36328125 -0.972656,-0.92578125 V -4.698375 H 26.89368 v 3.6210938 c 0,0.7851562 0.574218,1.28906245 1.488281,1.28906245 0.691406,0 1.136719,-0.24609375 1.570312,-0.8671875 v 0.65625 z M 31.926883,-4.698375 V 8.4375e-4 h 0.75 V -2.589 c 0,-0.9609375 0.503906,-1.5820312 1.265625,-1.5820312 0.597656,0 0.972656,0.3515625 0.972656,0.9140625 V 8.4375e-4 h 0.75 V -3.5499375 c 0,-0.7734375 -0.585937,-1.2773437 -1.488281,-1.2773437 -0.703125,0 -1.148438,0.2695312 -1.570313,0.9140625 V -4.698375 Z m 5.698242,0 h -0.75 V 8.4375e-4 h 0.75 z m 0,-1.8398437 H 36.863406 V -5.589 h 0.761719 z m 4.863281,3.421875 c -0.03516,-0.4570313 -0.128906,-0.75 -0.304687,-1.0195313 -0.328125,-0.4335937 -0.890625,-0.6914062 -1.546875,-0.6914062 -1.265625,0 -2.085938,0.9960937 -2.085938,2.5546875 0,1.52343745 0.808594,2.48437495 2.074219,2.48437495 1.125,0 1.828125,-0.6796875 1.921875,-1.82812495 h -0.75 c -0.128906,0.7617187 -0.515625,1.1367187 -1.148438,1.1367187 -0.832031,0 -1.324218,-0.6796875 -1.324218,-1.7929687 0,-1.171875 0.492187,-1.8632813 1.300781,-1.8632813 0.632812,0 1.019531,0.3632813 1.113281,1.0195313 z m 5.056641,2.6835937 c -0.08203,0.0117188 -0.117188,0.0117188 -0.152344,0.0117188 -0.269531,0 -0.410156,-0.12890625 -0.410156,-0.36328125 V -3.5499375 c 0,-0.8320312 -0.609375,-1.2773437 -1.769531,-1.2773437 -0.679688,0 -1.242188,0.1875 -1.558594,0.5390625 -0.210938,0.2460937 -0.304688,0.515625 -0.316406,0.984375 h 0.75 c 0.05859,-0.5742188 0.398437,-0.8320313 1.101562,-0.8320313 0.667969,0 1.054688,0.2460938 1.054688,0.6914063 V -3.24525 c 0,0.3164063 -0.1875,0.4453125 -0.785157,0.515625 -1.054687,0.140625 -1.21875,0.1757813 -1.5,0.2929688 -0.550781,0.2226562 -0.832031,0.6445312 -0.832031,1.2539062 0,0.85546875 0.597656,1.39453125 1.546875,1.39453125 0.585938,0 1.066406,-0.2109375 1.59375,-0.69140625 0.04687,0.46875 0.28125,0.69140625 0.773438,0.69140625 0.152343,0 0.269531,-0.0234375 0.503906,-0.0820313 z m -1.300781,-1.0429687 c 0,0.2460937 -0.08203,0.3984375 -0.304688,0.60937495 -0.304687,0.28125 -0.667969,0.421875 -1.113281,0.421875 -0.574219,0 -0.914063,-0.28125 -0.914063,-0.76171875 0,-0.4921875 0.328125,-0.7382812 1.125,-0.8554687 0.785157,-0.1054688 0.949219,-0.140625 1.207032,-0.2578125 z m 3.767578,-3.2226563 h -0.761719 v -1.2890625 h -0.75 V -4.698375 H 47.867312 V -4.089 h 0.632813 v 3.55078125 c 0,0.48046875 0.328125,0.75 0.902344,0.75 0.1875,0 0.363281,-0.0234375 0.609375,-0.0703125 V -0.479625 c -0.09375,0.0234375 -0.210938,0.0351563 -0.351563,0.0351563 -0.328125,0 -0.410156,-0.09375 -0.410156,-0.421875 V -4.089 h 0.761719 z m 1.564453,0 h -0.75 V 8.4375e-4 h 0.75 z m 0,-1.8398437 H 50.814578 V -5.589 h 0.761719 z m 3.082031,1.7109375 c -1.3125,0 -2.109375,0.9375 -2.109375,2.5195312 0,1.5703125 0.785156,2.51953125 2.121094,2.51953125 1.3125,0 2.121094,-0.94921875 2.121094,-2.48437495 0,-1.6289063 -0.773438,-2.5546875 -2.132813,-2.5546875 z m 0.01172,0.6914062 c 0.84375,0 1.347656,0.6796875 1.347656,1.8515625 0,1.1015625 -0.527344,1.8046875 -1.347656,1.8046875 -0.832031,0 -1.347656,-0.6914062 -1.347656,-1.828125 0,-1.1367187 0.515625,-1.828125 1.347656,-1.828125 z m 3.166992,-0.5625 V 8.4375e-4 h 0.75 V -2.589 c 0,-0.9609375 0.503906,-1.5820312 1.265625,-1.5820312 0.597656,0 0.972656,0.3515625 0.972656,0.9140625 V 8.4375e-4 h 0.75 V -3.5499375 c 0,-0.7734375 -0.585937,-1.2773437 -1.488281,-1.2773437 -0.703125,0 -1.148437,0.2695312 -1.570312,0.9140625 V -4.698375 Z m 8.478516,1.7226563 h 3.5625 V -3.714 h -3.5625 v -2.0859375 h 3.691406 V -6.5382187 H 65.483523 V 8.4375e-4 h 4.6875 V -0.7374375 h -3.855468 z m 6.647461,-1.7226563 h -0.773438 v -0.7382812 c 0,-0.3046875 0.175781,-0.46875 0.515625,-0.46875 0.07031,0 0.09375,0 0.257813,0.011719 v -0.6210937 c -0.164063,-0.035156 -0.269532,-0.046875 -0.421875,-0.046875 -0.679688,0 -1.101563,0.3984375 -1.101563,1.0664062 v 0.796875 H 70.818484 V -4.089 h 0.621094 V 8.4375e-4 h 0.75 V -4.089 h 0.773438 z m 2.446289,0 h -0.785157 v -0.7382812 c 0,-0.3046875 0.1875,-0.46875 0.527344,-0.46875 0.05859,0 0.08203,0 0.257813,0.011719 v -0.6210937 c -0.175782,-0.035156 -0.269532,-0.046875 -0.421875,-0.046875 -0.691407,0 -1.101563,0.3984375 -1.101563,1.0664062 v 0.796875 H 73.253055 V -4.089 h 0.632812 V 8.4375e-4 h 0.738281 V -4.089 h 0.785157 z m 1.652343,0 h -0.75 V 8.4375e-4 h 0.75 z m 0,-1.8398437 h -0.75 V -5.589 h 0.75 z m 4.78711,3.421875 c -0.03516,-0.4570313 -0.128906,-0.75 -0.304688,-1.0195313 -0.328125,-0.4335937 -0.890625,-0.6914062 -1.546875,-0.6914062 -1.265625,0 -2.085937,0.9960937 -2.085937,2.5546875 0,1.52343745 0.808594,2.48437495 2.074219,2.48437495 1.125,0 1.828125,-0.6796875 1.921875,-1.82812495 h -0.75 c -0.128907,0.7617187 -0.515625,1.1367187 -1.148438,1.1367187 -0.832031,0 -1.324219,-0.6796875 -1.324219,-1.7929687 0,-1.171875 0.492188,-1.8632813 1.300782,-1.8632813 0.632812,0 1.019531,0.3632813 1.113281,1.0195313 z m 1.614258,-1.5820313 h -0.75 V 8.4375e-4 h 0.75 z m 0,-1.8398437 h -0.76172 V -5.589 h 0.761719 z m 5.235351,4.4414062 c 0,-0.7148437 -0.04687,-1.1484375 -0.1875,-1.5 -0.304687,-0.7734375 -1.019531,-1.2304687 -1.898437,-1.2304687 -1.300782,0 -2.144532,0.9960937 -2.144532,2.5429687 0,1.546875 0.808594,2.49609375 2.132813,2.49609375 1.066406,0 1.816406,-0.609375 2.003906,-1.64062495 h -0.75 c -0.210937,0.6210937 -0.632812,0.9492187 -1.230469,0.9492187 -0.480468,0 -0.878906,-0.22265625 -1.125,-0.609375 -0.1875,-0.2695312 -0.246093,-0.5390625 -0.257812,-1.0078125 z m -3.433594,-0.609375 c 0.05859,-0.8671875 0.585938,-1.4296875 1.335938,-1.4296875 0.738281,0 1.300781,0.609375 1.300781,1.3710938 0,0.023437 0,0.035156 0,0.058594 z M 89.723758,-4.698375 V 8.4375e-4 h 0.75 V -2.589 c 0,-0.9609375 0.503906,-1.5820312 1.265625,-1.5820312 0.597656,0 0.972656,0.3515625 0.972656,0.9140625 V 8.4375e-4 h 0.75 V -3.5499375 c 0,-0.7734375 -0.585937,-1.2773437 -1.488281,-1.2773437 -0.703125,0 -1.148438,0.2695312 -1.570313,0.9140625 V -4.698375 Z m 8.569336,1.5820313 c -0.03516,-0.4570313 -0.128907,-0.75 -0.304688,-1.0195313 -0.328125,-0.4335937 -0.890625,-0.6914062 -1.546875,-0.6914062 -1.265625,0 -2.085937,0.9960937 -2.085937,2.5546875 0,1.52343745 0.808593,2.48437495 2.074218,2.48437495 1.125,0 1.828125,-0.6796875 1.921875,-1.82812495 h -0.75 c -0.128906,0.7617187 -0.515625,1.1367187 -1.148437,1.1367187 -0.832031,0 -1.324219,-0.6796875 -1.324219,-1.7929687 0,-1.171875 0.492188,-1.8632813 1.300781,-1.8632813 0.632813,0 1.019532,0.3632813 1.113282,1.0195313 z m 3.747066,-1.5820313 -1.30078,3.65625 -1.207028,-3.65625 h -0.796875 l 1.593753,4.72265625 -0.29297,0.73828125 c -0.11719,0.328125 -0.281252,0.4570313 -0.597658,0.4570313 -0.105469,0 -0.234375,-0.011719 -0.398438,-0.058594 v 0.6796875 c 0.152344,0.082031 0.304688,0.1171875 0.503906,0.1171875 0.246094,0 0.50391,-0.082031 0.70313,-0.2226562 0.23437,-0.1757813 0.36328,-0.375 0.5039,-0.75000005 l 2.09766,-5.68359375 z m 5.61621,-1.8398437 c -0.90234,1.1835937 -1.46484,2.8125 -1.46484,4.21875 0,1.4179687 0.5625,3.04687495 1.46484,4.21875 h 0.49219 c -0.79687,-1.2773438 -1.23047,-2.78906255 -1.23047,-4.21875 0,-1.4296875 0.4336,-2.9414063 1.23047,-4.21875 z m 3.1377,1.8398437 h -0.76172 v -1.2890625 h -0.75 v 1.2890625 h -0.63281 V -4.089 h 0.63281 v 3.55078125 c 0,0.48046875 0.32813,0.75 0.90235,0.75 0.1875,0 0.36328,-0.0234375 0.60937,-0.0703125 V -0.479625 c -0.0937,0.0234375 -0.21094,0.0351563 -0.35156,0.0351563 -0.32813,0 -0.41016,-0.09375 -0.41016,-0.421875 V -4.089 h 0.76172 z m 0.85254,-1.8398437 V 8.4375e-4 h 0.73828 V -2.589 c 0,-0.9609375 0.50391,-1.5820312 1.27734,-1.5820312 0.23438,0 0.48047,0.070312 0.65625,0.2109375 0.22266,0.1523437 0.30469,0.375 0.30469,0.703125 V 8.4375e-4 h 0.75 V -3.5499375 c 0,-0.7851562 -0.5625,-1.2773437 -1.47656,-1.2773437 -0.66797,0 -1.06641,0.1992187 -1.51172,0.7734375 v -2.484375 z m 4.97168,1.8398437 V 8.4375e-4 h 0.75 V -2.4366562 c 0,-0.6679688 0.17578,-1.1132813 0.52734,-1.3710938 0.23438,-0.1757812 0.45703,-0.2226562 0.98438,-0.234375 v -0.7617187 c -0.12891,-0.023437 -0.19922,-0.023437 -0.29297,-0.023437 -0.48047,0 -0.85547,0.28125 -1.27734,0.984375 V -4.698375 Z m 4.80176,-0.1289062 c -1.3125,0 -2.10938,0.9375 -2.10938,2.5195312 0,1.5703125 0.78516,2.51953125 2.1211,2.51953125 1.3125,0 2.12109,-0.94921875 2.12109,-2.48437495 0,-1.6289063 -0.77344,-2.5546875 -2.13281,-2.5546875 z m 0.0117,0.6914062 c 0.84375,0 1.34765,0.6796875 1.34765,1.8515625 0,1.1015625 -0.52734,1.8046875 -1.34765,1.8046875 -0.83204,0 -1.34766,-0.6914062 -1.34766,-1.828125 0,-1.1367187 0.51562,-1.828125 1.34766,-1.828125 z m 6.86132,4.13671875 V -4.698375 h -0.75 v 2.6601563 c 0,0.9609375 -0.5039,1.59374995 -1.27734,1.59374995 -0.59766,0 -0.97266,-0.36328125 -0.97266,-0.92578125 v -3.328125 h -0.73828 v 3.6210938 c 0,0.7851562 0.57422,1.28906245 1.48828,1.28906245 0.69141,0 1.13672,-0.24609375 1.57032,-0.8671875 v 0.65625 z m 4.35352,-4.69921875 v 0.6796875 c -0.375,-0.5507812 -0.83203,-0.8085937 -1.42969,-0.8085937 -1.19531,0 -2.0039,1.03125 -2.0039,2.5546875 0,0.7734375 0.21093,1.40624995 0.59765,1.85156245 0.35156,0.3984375 0.84375,0.6328125 1.33594,0.6328125 0.59766,0 1.00781,-0.2578125 1.42969,-0.84375 v 0.234375 c 0,0.64453125 -0.082,1.03125 -0.26953,1.2890625 -0.1992,0.26953125 -0.58592,0.43359375 -1.04295,0.43359375 -0.33985,0 -0.64453,-0.082031 -0.84375,-0.2460937 -0.17578,-0.14062505 -0.2461,-0.25781255 -0.29297,-0.53906255 h -0.76172 c 0.082,0.89062505 0.77344,1.41796875 1.875,1.41796875 0.70312,0 1.30078,-0.2226562 1.60547,-0.5976562 0.36328,-0.4335938 0.49219,-1.03125005 0.49219,-2.13281255 V -4.698375 Z m -1.34766,0.5625 c 0.8086,0 1.27735,0.6796875 1.27735,1.8515625 0,1.125 -0.48047,1.8046875 -1.27735,1.8046875 -0.80859,0 -1.30078,-0.6914062 -1.30078,-1.828125 0,-1.1367187 0.50391,-1.828125 1.30078,-1.828125 z m 3.27246,-2.4023437 V 8.4375e-4 h 0.73829 V -2.589 c 0,-0.9609375 0.5039,-1.5820312 1.27734,-1.5820312 0.23437,0 0.48047,0.070312 0.65625,0.2109375 0.22266,0.1523437 0.30469,0.375 0.30469,0.703125 V 8.4375e-4 h 0.75 V -3.5499375 c 0,-0.7851562 -0.5625,-1.2773437 -1.47657,-1.2773437 -0.66796,0 -1.0664,0.1992187 -1.51171,0.7734375 v -2.484375 z m 4.83399,8.4960937 h 0.76172 v -2.44921875 c 0.38672,0.48046875 0.83203,0.703125 1.4414,0.703125 1.20703,0 2.00391,-0.984375 2.00391,-2.48437495 0,-1.5703125 -0.77344,-2.5546875 -2.01563,-2.5546875 -0.63281,0 -1.14843,0.28125 -1.5,0.84375 V -4.698375 h -0.6914 z m 2.0625,-6.09375 c 0.83203,0 1.37109,0.7265625 1.37109,1.8515625 0,1.0664063 -0.55078,1.79296875 -1.37109,1.79296875 -0.78516,0 -1.30078,-0.71484375 -1.30078,-1.81640625 0,-1.1015625 0.51562,-1.828125 1.30078,-1.828125 z m 6.76758,4.13671875 V -4.698375 h -0.75 v 2.6601563 c 0,0.9609375 -0.50391,1.59374995 -1.27735,1.59374995 -0.59765,0 -0.97265,-0.36328125 -0.97265,-0.92578125 v -3.328125 h -0.73828 v 3.6210938 c 0,0.7851562 0.57421,1.28906245 1.48828,1.28906245 0.6914,0 1.13672,-0.24609375 1.57031,-0.8671875 v 0.65625 z m 2.93261,-4.69921875 h -0.76172 v -1.2890625 h -0.75 v 1.2890625 h -0.63281 V -4.089 h 0.63281 v 3.55078125 c 0,0.48046875 0.32813,0.75 0.90235,0.75 0.1875,0 0.36328,-0.0234375 0.60937,-0.0703125 V -0.479625 c -0.0937,0.0234375 -0.21093,0.0351563 -0.35156,0.0351563 -0.32812,0 -0.41016,-0.09375 -0.41016,-0.421875 V -4.089 h 0.76172 z m 1.05176,6.5976563 C 153.1222,0.72740625 153.6847,-0.9015 153.6847,-2.30775 c 0,-1.4179687 -0.5625,-3.046875 -1.46485,-4.2304687 h -0.49219 c 0.78516,1.2890625 1.23047,2.7890625 1.23047,4.2304687 0,1.41796875 -0.44531,2.94140625 -1.23047,4.2070313 z m 0,0"
       style="fill:#000000;fill-opacity:1;fill-rule:nonzero;stroke:none"
       aria-label="CommunicationEffciency(throughput)"
       transform="matrix(1.3333333,0,0,1.3333333,147.27067,286.452)" />
    <path
       id="path16"
       d="M 5.9303125,-4.5126562 C 5.6725,-5.9423437 4.8521875,-6.6454687 3.4107812,-6.6454687 c -0.8789062,0 -1.5820312,0.28125 -2.0625,0.8203125 -0.5976562,0.6445312 -0.91406245,1.5703125 -0.91406245,2.6367187 0,1.0664063 0.328125,1.9921875 0.94921875,2.63671875 C 1.8873437,-0.03609375 2.531875,0.21 3.375625,0.21 c 1.6054687,0 2.4960937,-0.8671875 2.6953125,-2.5898437 H 5.20375 c -0.070312,0.4453125 -0.1523438,0.75 -0.2929688,1.0078125 -0.2695312,0.53906245 -0.8203125,0.84374995 -1.5234375,0.84374995 -1.3007812,0 -2.1210937,-1.04296875 -2.1210937,-2.67187495 0,-1.6757813 0.7851562,-2.7070313 2.0507812,-2.7070313 0.5273438,0 1.0195313,0.1640625 1.2890625,0.4101563 0.2460938,0.2226562 0.375,0.5039062 0.4804688,0.984375 z m 2.9794922,-0.3164063 c -1.3125,0 -2.109375,0.9375 -2.109375,2.5195313 0,1.57031245 0.7851562,2.5195312 2.1210937,2.5195312 1.3124996,0 2.1210936,-0.94921875 2.1210936,-2.484375 0,-1.6289062 -0.773437,-2.5546875 -2.1328123,-2.5546875 z m 0.011719,0.6914063 c 0.84375,0 1.3476563,0.6796875 1.3476563,1.8515625 0,1.1015625 -0.5273438,1.80468745 -1.3476563,1.80468745 -0.8320312,0 -1.3476562,-0.69140625 -1.3476562,-1.82812495 0,-1.1367188 0.515625,-1.828125 1.3476562,-1.828125 z m 3.1699213,-0.5625 v 4.6992187 h 0.75 v -2.5898437 c 0,-0.9609375 0.503907,-1.5820313 1.265625,-1.5820313 0.597657,0 0.972657,0.3515625 0.972657,0.9140625 v 3.2578125 h 0.75 v -3.5507812 c 0,-0.7734375 -0.585938,-1.2773438 -1.488282,-1.2773438 -0.703125,0 -1.148437,0.2695313 -1.570312,0.9140625 v -0.7851562 z m 6.729492,4.6992187 1.804688,-4.6992187 h -0.84375 L 18.457656,-0.8915625 17.20375,-4.7001562 H 16.36 l 1.640625,4.6992187 z m 6.295899,-2.0976562 c 0,-0.7148438 -0.04687,-1.1484375 -0.1875,-1.5 -0.304688,-0.7734375 -1.019531,-1.2304688 -1.898438,-1.2304688 -1.300781,0 -2.144531,0.9960938 -2.144531,2.5429688 0,1.54687495 0.808594,2.4960937 2.132813,2.4960937 1.066406,0 1.816406,-0.609375 2.003906,-1.640625 h -0.75 c -0.210938,0.62109375 -0.632813,0.94921875 -1.230469,0.94921875 -0.480469,0 -0.878906,-0.22265625 -1.125,-0.60937495 -0.1875,-0.2695313 -0.246094,-0.5390625 -0.257812,-1.0078125 z m -3.433594,-0.609375 c 0.05859,-0.8671875 0.585938,-1.4296875 1.335938,-1.4296875 0.738281,0 1.300781,0.609375 1.300781,1.3710937 0,0.023437 0,0.035156 0,0.058594 z m 4.447266,-1.9921875 v 4.6992187 h 0.75 v -2.4375 c 0,-0.6679687 0.175781,-1.1132812 0.527344,-1.3710937 0.234375,-0.1757813 0.457031,-0.2226563 0.984375,-0.234375 V -4.805625 c -0.128907,-0.023437 -0.199219,-0.023437 -0.292969,-0.023437 -0.480469,0 -0.855469,0.28125 -1.277344,0.984375 v -0.8554687 z m 6.055664,0 v 0.6796875 c -0.375,-0.5507813 -0.832031,-0.8085938 -1.429688,-0.8085938 -1.195312,0 -2.003906,1.03125 -2.003906,2.5546875 0,0.7734375 0.210938,1.40625 0.597656,1.8515625 C 29.701797,-0.024375 30.193984,0.21 30.686172,0.21 c 0.597656,0 1.007812,-0.2578125 1.429687,-0.84375 v 0.234375 c 0,0.64453125 -0.08203,1.03125 -0.269531,1.2890625 -0.199219,0.2695313 -0.585937,0.4335938 -1.042969,0.4335938 -0.339843,0 -0.644531,-0.082031 -0.84375,-0.2460938 C 29.783828,0.9365625 29.713516,0.819375 29.666641,0.538125 h -0.761719 c 0.08203,0.890625 0.773437,1.4179688 1.875,1.4179688 0.703125,0 1.300781,-0.2226563 1.605469,-0.5976563 0.363281,-0.43359375 0.492187,-1.03125 0.492187,-2.1328125 v -3.9257812 z m -1.347656,0.5625 c 0.808593,0 1.277343,0.6796875 1.277343,1.8515625 0,1.125 -0.480468,1.80468745 -1.277343,1.80468745 -0.808594,0 -1.300782,-0.69140625 -1.300782,-1.82812495 0,-1.1367188 0.503907,-1.828125 1.300782,-1.828125 z m 7.236328,2.0390625 c 0,-0.7148438 -0.04687,-1.1484375 -0.1875,-1.5 -0.304688,-0.7734375 -1.019532,-1.2304688 -1.898438,-1.2304688 -1.300781,0 -2.144531,0.9960938 -2.144531,2.5429688 0,1.54687495 0.808594,2.4960937 2.132812,2.4960937 1.066407,0 1.816407,-0.609375 2.003907,-1.640625 h -0.75 c -0.210938,0.62109375 -0.632813,0.94921875 -1.230469,0.94921875 -0.480469,0 -0.878906,-0.22265625 -1.125,-0.60937495 -0.1875,-0.2695313 -0.246094,-0.5390625 -0.257813,-1.0078125 z m -3.433594,-0.609375 c 0.05859,-0.8671875 0.585937,-1.4296875 1.335937,-1.4296875 0.738282,0 1.300782,0.609375 1.300782,1.3710937 0,0.023437 0,0.035156 0,0.058594 z m 4.456055,-1.9921875 v 4.6992187 h 0.75 v -2.5898437 c 0,-0.9609375 0.503906,-1.5820313 1.265625,-1.5820313 0.597656,0 0.972656,0.3515625 0.972656,0.9140625 v 3.2578125 h 0.75 v -3.5507812 c 0,-0.7734375 -0.585938,-1.2773438 -1.488281,-1.2773438 -0.703125,0 -1.148438,0.2695313 -1.570313,0.9140625 v -0.7851562 z m 8.572265,1.5820312 c -0.03516,-0.4570312 -0.128906,-0.75 -0.304687,-1.0195312 -0.328125,-0.4335938 -0.890625,-0.6914063 -1.546875,-0.6914063 -1.265625,0 -2.085938,0.9960938 -2.085938,2.5546875 0,1.5234375 0.808594,2.484375 2.074219,2.484375 1.125,0 1.828125,-0.6796875 1.921875,-1.828125 h -0.75 c -0.128906,0.76171875 -0.515625,1.13671875 -1.148437,1.13671875 -0.832032,0 -1.324219,-0.67968745 -1.324219,-1.79296875 0,-1.171875 0.492187,-1.8632812 1.300781,-1.8632812 0.632813,0 1.019531,0.3632812 1.113281,1.0195312 z m 4.857422,1.0195313 c 0,-0.7148438 -0.04687,-1.1484375 -0.1875,-1.5 -0.304687,-0.7734375 -1.019531,-1.2304688 -1.898437,-1.2304688 -1.300782,0 -2.144532,0.9960938 -2.144532,2.5429688 0,1.54687495 0.808594,2.4960937 2.132813,2.4960937 1.066406,0 1.816406,-0.609375 2.003906,-1.640625 h -0.75 c -0.210937,0.62109375 -0.632812,0.94921875 -1.230469,0.94921875 -0.480468,0 -0.878906,-0.22265625 -1.125,-0.60937495 -0.1875,-0.2695313 -0.246093,-0.5390625 -0.257812,-1.0078125 z m -3.433594,-0.609375 c 0.05859,-0.8671875 0.585938,-1.4296875 1.335938,-1.4296875 0.738281,0 1.300781,0.609375 1.300781,1.3710937 0,0.023437 0,0.035156 0,0.058594 z M 61.986953,0.01078125 61.143203,-0.680625 c 0.621094,-0.6796875 0.925781,-1.5234375 0.925781,-2.5546875 0,-2.0273437 -1.277343,-3.4101562 -3.164062,-3.4101562 -1.875,0 -3.152344,1.3828125 -3.152344,3.421875 0,2.0507812 1.277344,3.4335937 3.152344,3.4335937 0.644531,0 1.183594,-0.15234375 1.710937,-0.45703125 l 0.949219,0.7734375 z m -2.261719,-1.85156245 -0.410156,0.5039062 0.65625,0.55078125 c -0.386719,0.1875 -0.679687,0.2578125 -1.066406,0.2578125 -1.394531,0 -2.320313,-1.07812495 -2.320313,-2.69531245 0,-1.6054688 0.9375,-2.6835938 2.320313,-2.6835938 1.394531,0 2.320312,1.078125 2.320312,2.6835938 0,0.84375 -0.222656,1.4882812 -0.703125,2.0390625 z m 6.987305,1.8398437 v -4.6992187 h -0.75 V -2.04 c 0,0.9609375 -0.503906,1.59375 -1.277344,1.59375 -0.597656,0 -0.972656,-0.36328125 -0.972656,-0.9257812 v -3.328125 h -0.738281 v 3.6210937 c 0,0.78515625 0.574219,1.2890625 1.488281,1.2890625 0.691406,0 1.136719,-0.24609375 1.570313,-0.8671875 v 0.65625 z m 5.455078,-0.43359375 c -0.08203,0.0117188 -0.117187,0.0117188 -0.152344,0.0117188 -0.269531,0 -0.410156,-0.12890625 -0.410156,-0.36328125 v -2.765625 c 0,-0.8320313 -0.609375,-1.2773438 -1.769531,-1.2773438 -0.679688,0 -1.242188,0.1875 -1.558594,0.5390625 -0.210937,0.2460938 -0.304687,0.515625 -0.316406,0.984375 h 0.75 c 0.05859,-0.5742187 0.398437,-0.8320312 1.101562,-0.8320312 0.667969,0 1.054688,0.2460937 1.054688,0.6914062 v 0.1992188 c 0,0.3164062 -0.1875,0.4453125 -0.785156,0.515625 -1.054688,0.140625 -1.21875,0.1757812 -1.5,0.2929687 -0.550782,0.2226563 -0.832032,0.6445313 -0.832032,1.2539063 0,0.8554687 0.597657,1.3945312 1.546875,1.3945312 0.585938,0 1.066407,-0.2109375 1.59375,-0.69140625 0.04687,0.46875 0.28125,0.69140625 0.773438,0.69140625 0.152344,0 0.269531,-0.0234375 0.503906,-0.0820313 z M 70.866836,-1.4775 c 0,0.2460938 -0.08203,0.3984375 -0.304688,0.609375 -0.304687,0.28125 -0.667968,0.421875 -1.113281,0.421875 -0.574219,0 -0.914062,-0.28125 -0.914062,-0.7617187 0,-0.4921875 0.328125,-0.7382813 1.125,-0.8554688 0.785156,-0.1054687 0.949218,-0.140625 1.207031,-0.2578125 z M 73.717422,-6.54 h -0.75 v 6.5390625 h 0.75 z m 1.980469,1.8398438 h -0.75 v 4.6992187 h 0.75 z m 0,-1.8398438 h -0.761719 v 0.9492188 h 0.761719 z m 2.915039,1.8398438 h -0.761719 v -1.2890625 h -0.75 v 1.2890625 h -0.632813 v 0.609375 h 0.632813 V -0.54 c 0,0.48046875 0.328125,0.75 0.902344,0.75 0.1875,0 0.363281,-0.0234375 0.609375,-0.0703125 v -0.62109375 c -0.09375,0.0234375 -0.210938,0.0351563 -0.351563,0.0351563 -0.328125,0 -0.410156,-0.09375 -0.410156,-0.421875 V -4.0907811 h 0.761719 z m 3.700195,0 -1.300781,3.65625 -1.207032,-3.65625 H 79.008437 L 80.602187,0.0225 80.309219,0.76078125 c -0.117188,0.32812505 -0.28125,0.45703125 -0.597657,0.45703125 -0.105468,0 -0.234375,-0.011719 -0.398437,-0.058594 V 1.838906 c 0.152344,0.082031 0.304687,0.1171875 0.503906,0.1171875 0.246094,0 0.503906,-0.082031 0.703125,-0.2226563 0.234375,-0.1757812 0.363281,-0.375 0.503906,-0.75 l 2.097657,-5.6835937 z M 87.920547,-6.54 c -0.902344,1.1835938 -1.464844,2.8125 -1.464844,4.21875 0,1.41796875 0.5625,3.046875 1.464844,4.21875 h 0.492187 c -0.796875,-1.27734375 -1.230468,-2.7890625 -1.230468,-4.21875 0,-1.4296875 0.433593,-2.9414062 1.230468,-4.21875 z m 3.125976,1.8398438 h -0.785156 v -0.7382813 c 0,-0.3046875 0.1875,-0.46875 0.527344,-0.46875 0.05859,0 0.08203,0 0.257812,0.011719 v -0.6210938 c -0.175781,-0.035156 -0.269531,-0.046875 -0.421875,-0.046875 -0.691406,0 -1.101562,0.3984375 -1.101562,1.0664063 v 0.796875 h -0.632813 v 0.609375 h 0.632813 v 4.0898437 h 0.738281 V -4.090781 h 0.785156 z m 1.652344,0 h -0.75 v 4.6992187 h 0.75 z m 0,-1.8398438 h -0.75 v 0.9492188 h 0.75 z m 1.201172,1.8398438 v 4.6992187 h 0.75 v -2.5898437 c 0,-0.9609375 0.503906,-1.5820313 1.265625,-1.5820313 0.597656,0 0.972656,0.3515625 0.972656,0.9140625 v 3.2578125 h 0.75 v -3.5507812 c 0,-0.7734375 -0.585937,-1.2773438 -1.488281,-1.2773438 -0.703125,0 -1.148437,0.2695313 -1.570312,0.9140625 v -0.7851562 z m 9.146481,4.26562495 c -0.082,0.0117188 -0.11718,0.0117188 -0.15234,0.0117188 -0.26953,0 -0.41016,-0.12890625 -0.41016,-0.36328125 v -2.765625 c 0,-0.8320313 -0.60937,-1.2773438 -1.76953,-1.2773438 -0.67969,0 -1.242185,0.1875 -1.558592,0.5390625 -0.210937,0.2460938 -0.304687,0.515625 -0.316406,0.984375 h 0.75 c 0.05859,-0.5742187 0.398438,-0.8320312 1.101558,-0.8320312 0.66797,0 1.05469,0.2460937 1.05469,0.6914062 v 0.1992188 c 0,0.3164062 -0.1875,0.4453125 -0.78515,0.515625 -1.054692,0.140625 -1.218754,0.1757812 -1.500004,0.2929687 -0.550781,0.2226563 -0.832031,0.6445313 -0.832031,1.2539063 0,0.8554687 0.597656,1.3945312 1.546875,1.3945312 0.58594,0 1.06641,-0.2109375 1.59375,-0.69140625 0.0469,0.46875 0.28125,0.69140625 0.77344,0.69140625 0.15234,0 0.26953,-0.0234375 0.5039,-0.0820313 z M 101.74574,-1.4775 c 0,0.2460938 -0.082,0.3984375 -0.30469,0.609375 -0.30468,0.28125 -0.66796,0.421875 -1.11328,0.421875 -0.574215,0 -0.914059,-0.28125 -0.914059,-0.7617187 0,-0.4921875 0.328125,-0.7382813 1.124999,-0.8554688 0.78516,-0.1054687 0.94922,-0.140625 1.20703,-0.2578125 z m 2.85352,-5.0625 h -0.75 v 6.5390625 h 0.75 z m 4.48242,0 h -0.75 v 6.5390625 h 0.75 z m 3.06738,1.7109375 c -1.3125,0 -2.10937,0.9375 -2.10937,2.5195313 0,1.57031245 0.78515,2.5195312 2.12109,2.5195312 1.3125,0 2.12109,-0.94921875 2.12109,-2.484375 0,-1.6289062 -0.77343,-2.5546875 -2.13281,-2.5546875 z m 0.0117,0.6914063 c 0.84375,0 1.34766,0.6796875 1.34766,1.8515625 0,1.1015625 -0.52735,1.80468745 -1.34766,1.80468745 -0.83203,0 -1.34766,-0.69140625 -1.34766,-1.82812495 0,-1.1367188 0.51563,-1.828125 1.34766,-1.828125 z m 6.46289,0.75 c -0.0117,-0.9257813 -0.62109,-1.4414063 -1.69922,-1.4414063 -1.10156,0 -1.80468,0.5625 -1.80468,1.4296875 0,0.7382813 0.375,1.0898438 1.48828,1.359375 l 0.70312,0.1640625 c 0.51563,0.1289063 0.72656,0.3164063 0.72656,0.65625 0,0.43359375 -0.44531,0.73828125 -1.10156,0.73828125 -0.39844,0 -0.73828,-0.1171875 -0.92578,-0.31640625 -0.11719,-0.140625 -0.17578,-0.2695312 -0.22266,-0.5976562 h -0.78515 c 0.0352,1.07812495 0.64453,1.6054687 1.875,1.6054687 1.18359,0 1.93359,-0.5859375 1.93359,-1.4882812 0,-0.703125 -0.39844,-1.0898438 -1.32422,-1.3125 l -0.71484,-0.1757813 c -0.60938,-0.140625 -0.86719,-0.3398437 -0.86719,-0.6679687 0,-0.4335938 0.375,-0.703125 0.98438,-0.703125 0.60937,0 0.92578,0.2578125 0.94922,0.75 z m 4.48242,0 c -0.0117,-0.9257813 -0.62109,-1.4414063 -1.69922,-1.4414063 -1.10156,0 -1.80468,0.5625 -1.80468,1.4296875 0,0.7382813 0.375,1.0898438 1.48828,1.359375 l 0.70312,0.1640625 c 0.51563,0.1289063 0.72657,0.3164063 0.72657,0.65625 0,0.43359375 -0.44532,0.73828125 -1.10157,0.73828125 -0.39843,0 -0.73828,-0.1171875 -0.92578,-0.31640625 -0.11719,-0.140625 -0.17578,-0.2695312 -0.22265,-0.5976562 H 119.485 C 119.52016,-0.31734375 120.12953,0.21 121.36,0.21 c 1.18359,0 1.93359,-0.5859375 1.93359,-1.4882812 0,-0.703125 -0.39843,-1.0898438 -1.32422,-1.3125 l -0.71484,-0.1757813 c -0.60937,-0.140625 -0.86719,-0.3398437 -0.86719,-0.6679687 0,-0.4335938 0.375,-0.703125 0.98438,-0.703125 0.60937,0 0.92578,0.2578125 0.94922,0.75 z M 124.4977,1.8975 c 0.90234,-1.171875 1.46484,-2.80078125 1.46484,-4.2070312 0,-1.4179688 -0.5625,-3.046875 -1.46484,-4.2304688 h -0.49219 c 0.78515,1.2890625 1.23047,2.7890625 1.23047,4.2304688 0,1.4179687 -0.44532,2.9414062 -1.23047,4.2070312 z m 0,0"
       style="fill:#000000;fill-opacity:1;fill-rule:nonzero;stroke:none"
       aria-label="ConvergenceQuality(fnalloss)"
       transform="matrix(0,-1.3333333,1.3333333,0,13.22,215.81333)" />
  </g>
</svg>
