<?xml version="1.0" encoding="UTF-8" standalone="no"?>
<!-- Created with Inkscape (http://www.inkscape.org/) -->

<svg
   version="1.1"
   id="svg1"
   width="445.19467"
   height="248.21468"
   viewBox="0 0 445.19467 248.21468"
   xmlns="http://www.w3.org/2000/svg"
   xmlns:svg="http://www.w3.org/2000/svg">
  <defs
     id="defs1">
    <clipPath
       clipPathUnits="userSpaceOnUse"
       id="clipPath26">
      <path
         d="m 147.66534,-118.06114 h 295.3307 V 35.535231 h -295.3307 z"
         id="path26" />
    </clipPath>
    <clipPath
       clipPathUnits="userSpaceOnUse"
       id="clipPath32">
      <path
         d="m -183.11767,153.34914 h 295.3307 V -0.24723026 h -295.3307 z"
         id="path32" />
    </clipPath>
  </defs>
  <g
     id="g1">
    <path
       id="path1"
       d="M 147.66534,-118.06114 V 35.53523 M 221.498,-118.06114 V 35.53523 m 73.83269,-153.59637 V 35.53523 m 73.83266,-153.59637 V 35.53523 m 73.83268,-153.59637 V 35.53523"
       style="fill:none;stroke:#bfbfbf;stroke-width:0.3985;stroke-linecap:butt;stroke-linejoin:miter;stroke-miterlimit:10;stroke-dasharray:none;stroke-opacity:1"
       transform="matrix(1.3333333,0,0,-1.3333333,-158.79733,60.693333)" />
    <path
       id="path2"
       d="M 147.66534,-82.52591 H 442.99603 M 147.66534,-35.5407 H 442.99603 M 147.66534,0 H 442.99603 M 147.66534,35.53523 h 295.33069"
       style="fill:none;stroke:#bfbfbf;stroke-width:0.3985;stroke-linecap:butt;stroke-linejoin:miter;stroke-miterlimit:10;stroke-dasharray:none;stroke-opacity:1"
       transform="matrix(1.3333333,0,0,-1.3333333,-158.79733,60.693333)" />
    <path
       id="path3"
       d="m 147.66534,-118.06114 v 2.82904 m 22.22582,-2.82904 v 2.82904 m 13.00152,-2.82904 v 2.82904 m 9.22432,-2.82904 v 2.82904 m 7.15516,-2.82904 v 2.82904 m 5.84637,-2.82904 v 2.82904 m 4.94266,-2.82904 v 2.82904 m 4.28164,-2.82904 v 2.82904 m 3.77672,-2.82904 v 2.82904 m 3.37845,-2.82904 v 2.82904 m 22.22585,-2.82904 v 2.82904 m 13.00151,-2.82904 v 2.82904 m 9.2243,-2.82904 v 2.82904 m 7.15518,-2.82904 v 2.82904 m 5.84635,-2.82904 v 2.82904 m 4.94267,-2.82904 v 2.82904 m 4.28164,-2.82904 v 2.82904 m 3.77672,-2.82904 v 2.82904 m 3.37847,-2.82904 v 2.82904 m 22.22581,-2.82904 v 2.82904 m 13.00153,-2.82904 v 2.82904 m 9.22432,-2.82904 v 2.82904 m 7.15515,-2.82904 v 2.82904 m 5.84637,-2.82904 v 2.82904 m 4.94266,-2.82904 v 2.82904 m 4.28165,-2.82904 v 2.82904 m 3.77672,-2.82904 v 2.82904 m 3.37845,-2.82904 v 2.82904 m 22.22584,-2.82904 v 2.82904 m 13.00151,-2.82904 v 2.82904 m 9.2243,-2.82904 v 2.82904 m 7.15519,-2.82904 v 2.82904 m 5.84634,-2.82904 v 2.82904 m 4.94267,-2.82904 v 2.82904 m 4.28165,-2.82904 v 2.82904 m 3.77672,-2.82904 v 2.82904 M 147.66534,35.53523 v -2.82907 m 22.22582,2.82907 v -2.82907 m 13.00152,2.82907 v -2.82907 m 9.22432,2.82907 v -2.82907 m 7.15516,2.82907 v -2.82907 m 5.84637,2.82907 v -2.82907 m 4.94266,2.82907 v -2.82907 m 4.28164,2.82907 v -2.82907 m 3.77672,2.82907 v -2.82907 m 3.37845,2.82907 v -2.82907 m 22.22585,2.82907 v -2.82907 m 13.00151,2.82907 v -2.82907 m 9.2243,2.82907 v -2.82907 m 7.15518,2.82907 v -2.82907 m 5.84635,2.82907 v -2.82907 m 4.94267,2.82907 v -2.82907 m 4.28164,2.82907 v -2.82907 m 3.77672,2.82907 v -2.82907 m 3.37847,2.82907 v -2.82907 m 22.22581,2.82907 v -2.82907 m 13.00153,2.82907 v -2.82907 m 9.22432,2.82907 v -2.82907 m 7.15515,2.82907 v -2.82907 m 5.84637,2.82907 v -2.82907 m 4.94266,2.82907 v -2.82907 m 4.28165,2.82907 v -2.82907 m 3.77672,2.82907 v -2.82907 m 3.37845,2.82907 v -2.82907 m 22.22584,2.82907 v -2.82907 m 13.00151,2.82907 v -2.82907 m 9.2243,2.82907 v -2.82907 m 7.15519,2.82907 v -2.82907 m 5.84634,2.82907 v -2.82907 m 4.94267,2.82907 v -2.82907 m 4.28165,2.82907 v -2.82907 m 3.77672,2.82907 v -2.82907"
       style="fill:none;stroke:#808080;stroke-width:0.19925;stroke-linecap:butt;stroke-linejoin:miter;stroke-miterlimit:10;stroke-dasharray:none;stroke-opacity:1"
       transform="matrix(1.3333333,0,0,-1.3333333,-158.79733,60.693333)" />
    <path
       id="path4"
       d="m 147.66534,-118.06114 v 4.24357 m 73.83266,-4.24357 v 4.24357 m 73.83269,-4.24357 v 4.24357 m 73.83266,-4.24357 v 4.24357 m 73.83268,-4.24357 v 4.24357 M 147.66534,35.53523 v -4.24359 m 73.83266,4.24359 v -4.24359 m 73.83269,4.24359 v -4.24359 m 73.83266,4.24359 v -4.24359 m 73.83268,4.24359 v -4.24359"
       style="fill:none;stroke:#808080;stroke-width:0.19925;stroke-linecap:butt;stroke-linejoin:miter;stroke-miterlimit:10;stroke-dasharray:none;stroke-opacity:1"
       transform="matrix(1.3333333,0,0,-1.3333333,-158.79733,60.693333)" />
    <path
       id="path5"
       d="m 147.66534,-82.52591 h 4.24299 m -4.24299,46.98521 h 4.24299 M 147.66534,0 h 4.24299 m -4.24299,35.53523 h 4.24299 m 291.0877,-118.06114 h -4.24301 m 4.24301,46.98521 h -4.24301 M 442.99603,0 h -4.24301 m 4.24301,35.53523 h -4.24301"
       style="fill:none;stroke:#808080;stroke-width:0.19925;stroke-linecap:butt;stroke-linejoin:miter;stroke-miterlimit:10;stroke-dasharray:none;stroke-opacity:1"
       transform="matrix(1.3333333,0,0,-1.3333333,-158.79733,60.693333)" />
    <path
       id="path6"
       d="M 147.66534,-118.06114 V 35.53523 h 295.33069 v -153.59637 z"
       style="fill:none;stroke:#000000;stroke-width:0.3985;stroke-linecap:butt;stroke-linejoin:miter;stroke-miterlimit:10;stroke-dasharray:none;stroke-opacity:1"
       transform="matrix(1.3333333,0,0,-1.3333333,-158.79733,60.693333)" />
    <path
       id="path7"
       d="m 2.7293047,-5.7293359 c 0,-0.2226563 -0.011719,-0.234375 -0.234375,-0.234375 -0.5625,0.5625 -1.3828125,0.5625 -1.66406251,0.5625 v 0.28125 c 0.17578121,0 0.71484371,0 1.20703121,-0.234375 v 4.64062496 c 0,0.328125 -0.035156,0.43359375 -0.8671875,0.43359375 H 0.88946094 v 0.28125 c 0.31640626,-0.0234375 1.11328126,-0.0234375 1.48828126,-0.0234375 0.3632812,0 1.171875,0 1.4882812,0.0234375 v -0.28125 h -0.28125 c -0.8320312,0 -0.8554687,-0.10546875 -0.8554687,-0.43359375 z m 6.1201172,2.859375 c 0,-0.5976563 -0.023437,-1.3710938 -0.3398438,-2.0390625 -0.3984375,-0.84375 -1.078125,-1.0546875 -1.59375,-1.0546875 -0.5390625,0 -1.21875,0.2109375 -1.6171875,1.0664062 -0.2929687,0.6210938 -0.328125,1.3476563 -0.328125,2.0273438 0,0.5859375 0.011719,1.453125 0.3984375,2.16796871 0.421875,0.76171875 1.125,0.90234375 1.5351563,0.90234375 0.5859375,0 1.2421875,-0.2578125 1.6171875,-1.078125 0.2695312,-0.59765626 0.328125,-1.27734376 0.328125,-1.99218746 z m -1.9335938,2.84765621 c -0.2695312,0 -0.9140625,-0.12890625 -1.0898437,-1.13671871 -0.09375,-0.5390625 -0.09375,-1.3007813 -0.09375,-1.8164063 0,-0.609375 0,-1.3125 0.1171875,-1.8164062 0.1757812,-0.796875 0.75,-0.9492188 1.0546875,-0.9492188 0.3398437,0 0.9023437,0.1757813 1.078125,1.0078125 0.09375,0.4921875 0.09375,1.1953125 0.09375,1.7578125 0,0.5507813 0,1.3125 -0.09375,1.8398438 -0.1875,1.01953121 -0.84375,1.11328121 -1.0664063,1.11328121 z m 0,0"
       style="fill:#000000;fill-opacity:1;fill-rule:nonzero;stroke:none"
       aria-label="10"
       transform="matrix(1.3333333,0,0,1.3333333,29.177333,223.21333)" />
    <path
       id="path8"
       d="M 3.2115703,-1.1146719 H 3.0006328 c -0.023437,0.082031 -0.082031,0.46875002 -0.1640625,0.53906252 -0.046875,0.0351563 -0.5273437,0.0351563 -0.609375,0.0351563 h -1.125 L 1.8756328,-1.1615469 c 0.1992188,-0.1640625 0.7265625,-0.5390625 0.9140625,-0.7265625 0.1757813,-0.1757812 0.421875,-0.4804687 0.421875,-0.9023437 0,-0.75 -0.6679687,-1.1835938 -1.4765625,-1.1835938 -0.76171874,0 -1.30078124,0.5039063 -1.30078124,1.0664063 0,0.3046875 0.2578125,0.3398437 0.31640625,0.3398437 0.15234375,0 0.32812499,-0.1054687 0.32812499,-0.3164062 0,-0.140625 -0.0820312,-0.328125 -0.33984374,-0.328125 0.12890625,-0.3046875 0.50390624,-0.5273438 0.91406254,-0.5273438 0.6210937,0 0.9609375,0.46875 0.9609375,0.9492188 0,0.421875 -0.28125,0.8554687 -0.703125,1.2421875 l -1.41796879,1.30078122 c -0.0585938,0.0585938 -0.0585938,0.0585938 -0.0585938,0.24609375 H 3.0357891 Z m 0,0"
       style="fill:#000000;fill-opacity:1;fill-rule:nonzero;stroke:none"
       aria-label="2"
       transform="matrix(1.3333333,0,0,1.3333333,41.464,218.13467)" />
    <path
       id="path9"
       d="m 2.7293594,-5.7293359 c 0,-0.2226563 -0.011719,-0.234375 -0.234375,-0.234375 -0.5625,0.5625 -1.3828125,0.5625 -1.66406253,0.5625 v 0.28125 c 0.17578123,0 0.71484373,0 1.20703123,-0.234375 v 4.64062496 c 0,0.328125 -0.035156,0.43359375 -0.8671875,0.43359375 H 0.88951562 v 0.28125 c 0.31640628,-0.0234375 1.11328128,-0.0234375 1.48828128,-0.0234375 0.3632812,0 1.171875,0 1.4882812,0.0234375 v -0.28125 h -0.28125 c -0.8320312,0 -0.8554687,-0.10546875 -0.8554687,-0.43359375 z m 6.1201172,2.859375 c 0,-0.5976563 -0.023437,-1.3710938 -0.3398438,-2.0390625 -0.3984375,-0.84375 -1.078125,-1.0546875 -1.59375,-1.0546875 -0.5390625,0 -1.21875,0.2109375 -1.6171875,1.0664062 -0.2929687,0.6210938 -0.328125,1.3476563 -0.328125,2.0273438 0,0.5859375 0.011719,1.453125 0.3984375,2.16796871 0.421875,0.76171875 1.125,0.90234375 1.5351563,0.90234375 0.5859375,0 1.2421875,-0.2578125 1.6171875,-1.078125 0.2695312,-0.59765626 0.328125,-1.27734376 0.328125,-1.99218746 z m -1.9335938,2.84765621 c -0.2695312,0 -0.9140625,-0.12890625 -1.0898437,-1.13671871 -0.09375,-0.5390625 -0.09375,-1.3007813 -0.09375,-1.8164063 0,-0.609375 0,-1.3125 0.1171875,-1.8164062 0.1757812,-0.796875 0.75,-0.9492188 1.0546875,-0.9492188 0.3398437,0 0.9023437,0.1757813 1.078125,1.0078125 0.09375,0.4921875 0.09375,1.1953125 0.09375,1.7578125 0,0.5507813 0,1.3125 -0.09375,1.8398438 -0.1875,1.01953121 -0.84375,1.11328121 -1.0664063,1.11328121 z m 0,0"
       style="fill:#000000;fill-opacity:1;fill-rule:nonzero;stroke:none"
       aria-label="10"
       transform="matrix(1.3333333,0,0,1.3333333,127.61867,223.21333)" />
    <path
       id="path10"
       d="m 1.7575,-1.9818594 c 0.5039062,0 0.84375,0.3398438 0.84375,0.9492188 0,0.65624997 -0.3867188,0.93749997 -0.8320313,0.93749997 -0.1523437,0 -0.77343745,-0.03515625 -1.0429687,-0.375 0.234375,-0.0234375 0.328125,-0.1875 0.328125,-0.33984375 0,-0.21093752 -0.140625,-0.33984372 -0.33984375,-0.33984372 -0.1640625,0 -0.33984375,0.09375 -0.33984375,0.35156247 0,0.5859375 0.65625,0.92578125 1.4179687,0.92578125 0.8789063,0 1.4765625,-0.57421875 1.4765625,-1.16015622 0,-0.4335938 -0.3398437,-0.9023438 -1.0429687,-1.078125 0.46875,-0.1523438 0.8554687,-0.5390625 0.8554687,-1.03125 0,-0.4804688 -0.5625,-0.8320313 -1.2773437,-0.8320313 -0.703125,0 -1.2421875,0.3164063 -1.2421875,0.8085938 0,0.2578125 0.19921875,0.328125 0.31640625,0.328125 0.16406245,0 0.32812495,-0.1054688 0.32812495,-0.3164063 0,-0.1875 -0.140625,-0.2929687 -0.2929687,-0.3164062 0.2695312,-0.3046875 0.8203125,-0.3046875 0.8671875,-0.3046875 0.3046875,0 0.6914062,0.140625 0.6914062,0.6328125 0,0.328125 -0.1875,0.9023437 -0.7851562,0.9375 -0.1054688,0.011719 -0.2695313,0.023437 -0.3164063,0.023437 -0.058594,0 -0.1289062,0.011719 -0.1289062,0.1054687 0,0.09375 0.070312,0.09375 0.1640625,0.09375 z m 0,0"
       style="fill:#000000;fill-opacity:1;fill-rule:nonzero;stroke:none"
       aria-label="3"
       transform="matrix(1.3333333,0,0,1.3333333,139.90667,218.13467)" />
    <path
       id="path11"
       d="m 2.7313437,-5.7293359 c 0,-0.2226563 -0.011719,-0.234375 -0.234375,-0.234375 -0.5625,0.5625 -1.3828125,0.5625 -1.66406245,0.5625 v 0.28125 c 0.17578125,0 0.71484375,0 1.20703125,-0.234375 v 4.64062496 c 0,0.328125 -0.035156,0.43359375 -0.8671875,0.43359375 H 0.8915 v 0.28125 c 0.3164062,-0.0234375 1.1132812,-0.0234375 1.4882812,-0.0234375 0.3632813,0 1.171875,0 1.4882813,0.0234375 v -0.28125 h -0.28125 c -0.8320313,0 -0.8554688,-0.10546875 -0.8554688,-0.43359375 z m 6.1201172,2.859375 c 0,-0.5976563 -0.023437,-1.3710938 -0.3398437,-2.0390625 -0.3984375,-0.84375 -1.078125,-1.0546875 -1.59375,-1.0546875 -0.5390625,0 -1.21875,0.2109375 -1.6171875,1.0664062 -0.2929688,0.6210938 -0.328125,1.3476563 -0.328125,2.0273438 0,0.5859375 0.011719,1.453125 0.3984375,2.16796871 0.421875,0.76171875 1.125,0.90234375 1.5351562,0.90234375 0.5859375,0 1.2421875,-0.2578125 1.6171875,-1.078125 0.2695313,-0.59765626 0.328125,-1.27734376 0.328125,-1.99218746 z m -1.9335937,2.84765621 c -0.2695313,0 -0.9140625,-0.12890625 -1.0898438,-1.13671871 -0.09375,-0.5390625 -0.09375,-1.3007813 -0.09375,-1.8164063 0,-0.609375 0,-1.3125 0.1171875,-1.8164062 0.1757813,-0.796875 0.75,-0.9492188 1.0546875,-0.9492188 0.3398438,0 0.9023438,0.1757813 1.078125,1.0078125 0.09375,0.4921875 0.09375,1.1953125 0.09375,1.7578125 0,0.5507813 0,1.3125 -0.09375,1.8398438 -0.1875,1.01953121 -0.84375,1.11328121 -1.0664062,1.11328121 z m 0,0"
       style="fill:#000000;fill-opacity:1;fill-rule:nonzero;stroke:none"
       aria-label="10"
       transform="matrix(1.3333333,0,0,1.3333333,226.06133,223.21333)" />
    <path
       id="path12"
       d="M 3.3747422,-0.98576563 V -1.2201406 h -0.703125 v -2.6367188 c 0,-0.140625 0,-0.1757812 -0.1523438,-0.1757812 -0.1054687,0 -0.1171875,0.011719 -0.1757812,0.082031 l -2.07421876,2.7304688 v 0.23437497 H 2.1325547 v 0.48046875 c 0,0.19921875 0,0.26953125 -0.5039063,0.26953125 H 1.4528672 v 0.234375 c 0.1289062,-0.01171875 0.6914062,-0.0234375 0.9492187,-0.0234375 0.2578125,0 0.8203125,0.01171875 0.9492188,0.0234375 v -0.234375 H 3.1755234 c -0.5039062,0 -0.5039062,-0.0703125 -0.5039062,-0.26953125 V -0.98576563 Z M 2.1794297,-3.3881094 v 2.1679688 H 0.52708594 Z m 0,0"
       style="fill:#000000;fill-opacity:1;fill-rule:nonzero;stroke:none"
       aria-label="4"
       transform="matrix(1.3333333,0,0,1.3333333,238.348,218.13467)" />
    <path
       id="path13"
       d="m 2.7303984,-5.7293359 c 0,-0.2226563 -0.011719,-0.234375 -0.234375,-0.234375 -0.5625,0.5625 -1.3828125,0.5625 -1.66406246,0.5625 v 0.28125 c 0.17578126,0 0.71484376,0 1.20703126,-0.234375 v 4.64062496 c 0,0.328125 -0.035156,0.43359375 -0.8671875,0.43359375 H 0.89055469 v 0.28125 c 0.31640621,-0.0234375 1.11328121,-0.0234375 1.48828121,-0.0234375 0.3632813,0 1.171875,0 1.4882813,0.0234375 v -0.28125 h -0.28125 c -0.8320313,0 -0.8554688,-0.10546875 -0.8554688,-0.43359375 z m 6.1201172,2.859375 c 0,-0.5976563 -0.023437,-1.3710938 -0.3398437,-2.0390625 -0.3984375,-0.84375 -1.078125,-1.0546875 -1.59375,-1.0546875 -0.5390625,0 -1.21875,0.2109375 -1.6171875,1.0664062 -0.2929688,0.6210938 -0.328125,1.3476563 -0.328125,2.0273438 0,0.5859375 0.011719,1.453125 0.3984375,2.16796871 0.421875,0.76171875 1.125,0.90234375 1.5351562,0.90234375 0.5859375,0 1.2421875,-0.2578125 1.6171875,-1.078125 0.2695313,-0.59765626 0.328125,-1.27734376 0.328125,-1.99218746 z m -1.9335937,2.84765621 c -0.2695313,0 -0.9140625,-0.12890625 -1.0898438,-1.13671871 -0.09375,-0.5390625 -0.09375,-1.3007813 -0.09375,-1.8164063 0,-0.609375 0,-1.3125 0.1171875,-1.8164062 0.1757813,-0.796875 0.75,-0.9492188 1.0546875,-0.9492188 0.3398438,0 0.9023438,0.1757813 1.078125,1.0078125 0.09375,0.4921875 0.09375,1.1953125 0.09375,1.7578125 0,0.5507813 0,1.3125 -0.09375,1.8398438 -0.1875,1.01953121 -0.84375,1.11328121 -1.0664062,1.11328121 z m 0,0"
       style="fill:#000000;fill-opacity:1;fill-rule:nonzero;stroke:none"
       aria-label="10"
       transform="matrix(1.3333333,0,0,1.3333333,324.504,223.21333)" />
    <path
       id="path14"
       d="m 1.0183281,-3.3177969 c 0.1992188,0.058594 0.3984375,0.082031 0.609375,0.082031 0.1289063,0 0.4570313,0 0.84375,-0.2109375 0.09375,-0.058594 0.46875,-0.3046875 0.46875,-0.4335938 0,-0.082031 -0.058594,-0.09375 -0.082031,-0.09375 -0.023437,0 -0.023437,0 -0.09375,0.023437 -0.2109375,0.082031 -0.515625,0.1640625 -0.9023438,0.1640625 -0.2929687,0 -0.6210937,-0.046875 -0.89062497,-0.1523437 -0.0585938,-0.023437 -0.0820313,-0.035156 -0.10546875,-0.035156 -0.0820313,0 -0.0820313,0.058594 -0.0820313,0.1640625 v 1.7929688 c 0,0.09375 0,0.1640625 0.10546875,0.1640625 0.0585938,0 0.0703125,-0.023437 0.11718747,-0.070312 0.140625,-0.1875 0.4101562,-0.3867188 0.8789062,-0.3867188 0.7265625,0 0.7265625,0.890625 0.7265625,1.078125 0,0.23437502 -0.011719,0.57421877 -0.2109375,0.82031252 -0.1875,0.22265625 -0.4570312,0.31640625 -0.7148437,0.31640625 -0.4101563,0 -0.83203122,-0.22265625 -0.97265622,-0.57421875 0.29296872,0 0.32812492,-0.234375 0.32812492,-0.3046875 0,-0.16406252 -0.11718742,-0.30468752 -0.30468742,-0.30468752 -0.0585938,0 -0.3046875,0.023437 -0.3046875,0.32812502 0,0.55078125 0.515625,1.078125 1.26562492,1.078125 0.8203125,0 1.5117188,-0.5859375 1.5117188,-1.33593752 0,-0.6796875 -0.5507813,-1.3007812 -1.3125,-1.3007812 -0.3867188,0 -0.6914063,0.1289062 -0.8789063,0.2929687 z m 0,0"
       style="fill:#000000;fill-opacity:1;fill-rule:nonzero;stroke:none"
       aria-label="5"
       transform="matrix(1.3333333,0,0,1.3333333,336.79067,218.13467)" />
    <path
       id="path15"
       d="m 2.7304531,-5.7293359 c 0,-0.2226563 -0.011719,-0.234375 -0.234375,-0.234375 -0.5625,0.5625 -1.3828125,0.5625 -1.66406248,0.5625 v 0.28125 c 0.17578128,0 0.71484378,0 1.20703128,-0.234375 v 4.64062496 c 0,0.328125 -0.035156,0.43359375 -0.8671875,0.43359375 H 0.89060937 v 0.28125 c 0.31640623,-0.0234375 1.11328123,-0.0234375 1.48828123,-0.0234375 0.3632813,0 1.171875,0 1.4882813,0.0234375 v -0.28125 h -0.28125 c -0.8320313,0 -0.8554688,-0.10546875 -0.8554688,-0.43359375 z m 6.1201172,2.859375 c 0,-0.5976563 -0.023437,-1.3710938 -0.3398437,-2.0390625 -0.3984375,-0.84375 -1.078125,-1.0546875 -1.59375,-1.0546875 -0.5390625,0 -1.21875,0.2109375 -1.6171875,1.0664062 -0.2929688,0.6210938 -0.328125,1.3476563 -0.328125,2.0273438 0,0.5859375 0.011719,1.453125 0.3984375,2.16796871 0.421875,0.76171875 1.125,0.90234375 1.5351562,0.90234375 0.5859375,0 1.2421875,-0.2578125 1.6171875,-1.078125 0.2695313,-0.59765626 0.328125,-1.27734376 0.328125,-1.99218746 z m -1.9335937,2.84765621 c -0.2695313,0 -0.9140625,-0.12890625 -1.0898438,-1.13671871 -0.09375,-0.5390625 -0.09375,-1.3007813 -0.09375,-1.8164063 0,-0.609375 0,-1.3125 0.1171875,-1.8164062 0.1757813,-0.796875 0.75,-0.9492188 1.0546875,-0.9492188 0.3398438,0 0.9023438,0.1757813 1.078125,1.0078125 0.09375,0.4921875 0.09375,1.1953125 0.09375,1.7578125 0,0.5507813 0,1.3125 -0.09375,1.8398438 -0.1875,1.01953121 -0.84375,1.11328121 -1.0664062,1.11328121 z m 0,0"
       style="fill:#000000;fill-opacity:1;fill-rule:nonzero;stroke:none"
       aria-label="10"
       transform="matrix(1.3333333,0,0,1.3333333,422.94533,223.21333)" />
    <path
       id="path16"
       d="m 0.9734375,-1.9818594 c 0.0117188,-0.2929687 0.0234375,-0.796875 0.234375,-1.1601562 0.2578125,-0.4570313 0.65625,-0.6328125 1.0078125,-0.6328125 0.140625,0 0.4101563,0.023437 0.5625,0.1875 -0.2226562,0.035156 -0.2578125,0.1875 -0.2578125,0.28125 0,0.1640625 0.1054688,0.2929687 0.28125,0.2929687 0.1757813,0 0.2929688,-0.1171875 0.2929688,-0.3046875 0,-0.3632812 -0.2695313,-0.65625 -0.8789063,-0.65625 -0.9257812,0 -1.83984375,0.8085938 -1.83984375,2.0742188 0,1.45312497 0.67968755,2.02734372 1.46484375,2.02734372 0.234375,0 0.6445313,-0.03515625 1.0078125,-0.38671875 0.1875,-0.19921875 0.421875,-0.43359375 0.421875,-0.96093747 0,-0.1992188 -0.023437,-0.5859375 -0.3867187,-0.9257813 -0.2109375,-0.1875 -0.46875,-0.3984375 -0.984375,-0.3984375 -0.421875,0 -0.7265625,0.2109375 -0.9257813,0.5625 z m 0.8671875,1.88671877 c -0.84375,0 -0.84375,-1.01953127 -0.84375,-1.25390627 0,-0.515625 0.3398438,-1.0078125 0.8789063,-1.0078125 0.3046875,0 0.4804687,0.1289063 0.6328125,0.3164063 0.1640625,0.234375 0.1640625,0.5039062 0.1640625,0.8203125 0,0.41015622 -0.011719,0.60937497 -0.2109375,0.85546872 C 2.309375,-0.18889063 2.121875,-0.09514063 1.840625,-0.09514063 Z m 0,0"
       style="fill:#000000;fill-opacity:1;fill-rule:nonzero;stroke:none"
       aria-label="6"
       transform="matrix(1.3333333,0,0,1.3333333,435.23333,218.13467)" />
    <path
       id="path17"
       d="m 2.4599375,-6.3503672 c -0.5859375,0 -1.125,0.2578125 -1.453125,0.6914063 -0.421875,0.5625 -0.62109375,1.40625 -0.62109375,2.5898437 0,2.13281251 0.71484375,3.28125001 2.07421875,3.28125001 1.3476563,0 2.0859375,-1.1484375 2.0859375,-3.23437501 0,-1.2304687 -0.1992187,-2.0625 -0.6210937,-2.6367187 -0.328125,-0.4453125 -0.8554688,-0.6914063 -1.4648438,-0.6914063 z m 0,0.6914063 c 0.8554688,0 1.2773438,0.8671875 1.2773438,2.5664062 0,1.8046875 -0.4101563,2.64843751 -1.2890625,2.64843751 -0.8320313,0 -1.2539063,-0.87890621 -1.2539063,-2.62500001 0,-1.734375 0.421875,-2.5898437 1.265625,-2.5898437 z m 4.2363281,4.72265621 H 5.7704844 v 0.9375 h 0.9257812 z m 5.3173824,0.15234375 H 8.6738047 C 8.7558359,-1.2995859 9.0370859,-1.6277109 9.8222422,-2.0847422 l 0.8906248,-0.4921875 c 0.890625,-0.4804687 1.347656,-1.1367187 1.347656,-1.9101562 0,-0.5273438 -0.210937,-1.0195313 -0.597656,-1.3710938 -0.375,-0.3398437 -0.832031,-0.4921875 -1.441406,-0.4921875 -0.8085938,0 -1.4062501,0.28125 -1.7578126,0.8203125 -0.2226562,0.3398438 -0.3164062,0.7382813 -0.3398437,1.3828125 h 0.796875 c 0.023437,-0.4335937 0.070312,-0.6914062 0.1875,-0.9023437 0.1992187,-0.3867188 0.609375,-0.609375 1.0898437,-0.609375 0.7148436,0 1.2539066,0.5039062 1.2539066,1.1835937 0,0.5039063 -0.292969,0.9375 -0.855469,1.2539063 l -0.8320313,0.46875 c -1.3242188,0.75 -1.7109375,1.359375 -1.78125,2.75390621 h 4.2304683 z m 0,0"
       style="fill:#000000;fill-opacity:1;fill-rule:nonzero;stroke:none"
       aria-label="0.2"
       transform="matrix(1.3333333,0,0,1.3333333,25.001333,174.432)" />
    <path
       id="path18"
       d="m 5.6707656,-4.0652109 c 0.1054688,-0.1054688 0.1289063,-0.1523438 0.1289063,-0.2109375 0,-0.1171875 -0.09375,-0.1992188 -0.1875,-0.1992188 -0.070312,0 -0.082031,0.023437 -0.1875,0.1171875 l -1.8515625,1.8398438 -1.921875,-1.921875 c -0.046875,-0.035156 -0.09375,-0.035156 -0.1054688,-0.035156 -0.1054687,0 -0.1875,0.09375 -0.1875,0.1992188 0,0.070312 0.035156,0.1054687 0.1289063,0.2109375 l 1.8164062,1.8164062 -1.8164062,1.81640626 c -0.1289063,0.12890625 -0.1289063,0.17578125 -0.1289063,0.22265625 0,0.10546875 0.082031,0.1875 0.1875,0.1875 0.011719,0 0.058594,0 0.1054688,-0.0234375 l 1.921875,-1.92187501 1.875,1.86328126 c 0.058594,0.046875 0.082031,0.08203125 0.1640625,0.08203125 0.09375,0 0.1875,-0.0703125 0.1875,-0.1875 0,-0.0351563 -0.023437,-0.09375 -0.046875,-0.1171875 C 5.7410781,-0.36208594 4.1473281,-1.9441172 3.8426406,-2.2370859 Z m 0,0"
       style="fill:#000000;fill-opacity:1;fill-rule:nonzero;stroke:none"
       aria-label="×"
       transform="matrix(1.3333333,0,0,1.3333333,41.618667,174.432)" />
    <path
       id="path19"
       d="m 2.4599375,-6.3526953 c -0.5859375,0 -1.125,0.2578125 -1.453125,0.6914062 -0.421875,0.5625 -0.62109375,1.40625 -0.62109375,2.5898438 0,2.13281249 0.71484375,3.28124999 2.07421875,3.28124999 1.3476563,0 2.0859375,-1.1484375 2.0859375,-3.23437499 0,-1.2304688 -0.1992187,-2.0625 -0.6210937,-2.6367188 -0.328125,-0.4453125 -0.8554688,-0.6914062 -1.4648438,-0.6914062 z m 0,0.6914062 c 0.8554688,0 1.2773438,0.8671875 1.2773438,2.5664063 0,1.8046875 -0.4101563,2.64843749 -1.2890625,2.64843749 -0.8320313,0 -1.2539063,-0.87890629 -1.2539063,-2.62499999 0,-1.734375 0.421875,-2.5898438 1.265625,-2.5898438 z m 4.2363281,4.72265629 H 5.7704844 v 0.9375 H 6.6962656 Z M 11.744117,-6.3526953 H 8.4628672 l -0.46875,3.4570312 h 0.7265625 c 0.3632812,-0.4453125 0.6679687,-0.5976562 1.1601562,-0.5976562 0.8554691,0 1.3945311,0.5859375 1.3945311,1.5234375 0,0.9140625 -0.539062,1.47656249 -1.3945311,1.47656249 -0.6914062,0 -1.1132812,-0.3515625 -1.3007812,-1.06640629 H 7.7948984 c 0.1054688,0.515625 0.1992188,0.77343754 0.3867188,1.00781254 0.3515625,0.48046875 0.9960937,0.76171875 1.7226562,0.76171875 1.2773436,0 2.1679686,-0.9375 2.1679686,-2.28515629 0,-1.2539062 -0.832031,-2.109375 -2.050781,-2.109375 -0.4453126,0 -0.8085938,0.1171875 -1.1718751,0.3867188 l 0.2460938,-1.78125 h 2.6484373 z m 0,0"
       style="fill:#000000;fill-opacity:1;fill-rule:nonzero;stroke:none"
       aria-label="0.5"
       transform="matrix(1.3333333,0,0,1.3333333,25.001333,111.78667)" />
    <path
       id="path20"
       d="m 5.6707656,-4.0675391 c 0.1054688,-0.1054687 0.1289063,-0.1523437 0.1289063,-0.2109375 0,-0.1171875 -0.09375,-0.1992187 -0.1875,-0.1992187 -0.070312,0 -0.082031,0.023437 -0.1875,0.1171875 l -1.8515625,1.8398437 -1.921875,-1.921875 c -0.046875,-0.035156 -0.09375,-0.035156 -0.1054688,-0.035156 -0.1054687,0 -0.1875,0.09375 -0.1875,0.1992187 0,0.070312 0.035156,0.1054688 0.1289063,0.2109375 l 1.8164062,1.8164063 -1.8164062,1.81640624 c -0.1289063,0.12890625 -0.1289063,0.17578125 -0.1289063,0.22265625 0,0.10546875 0.082031,0.1875 0.1875,0.1875 0.011719,0 0.058594,0 0.1054688,-0.0234375 l 1.921875,-1.92187499 1.875,1.86328124 c 0.058594,0.046875 0.082031,0.08203125 0.1640625,0.08203125 0.09375,0 0.1875,-0.0703125 0.1875,-0.1875 0,-0.0351563 -0.023437,-0.09375 -0.046875,-0.1171875 C 5.7410781,-0.36441406 4.1473281,-1.9464453 3.8426406,-2.2394141 Z m 0,0"
       style="fill:#000000;fill-opacity:1;fill-rule:nonzero;stroke:none"
       aria-label="×"
       transform="matrix(1.3333333,0,0,1.3333333,41.618667,111.78667)" />
    <path
       id="path21"
       d="M 2.3193125,-4.5236094 V -1.71875e-4 H 3.1044688 V -6.3517344 h -0.515625 c -0.28125,0.9726563 -0.4570313,1.1015625 -1.6757813,1.2539063 v 0.5742187 z m 4.3769531,3.58593752 H 5.7704844 V -1.71875e-4 H 6.6962656 Z M 9.9394297,-6.3517344 c -0.5859375,0 -1.125,0.2578125 -1.453125,0.6914063 -0.421875,0.5625 -0.6210938,1.40625 -0.6210938,2.5898437 0,2.13281252 0.7148438,3.28125002 2.0742188,3.28125002 1.3476563,0 2.0859373,-1.1484375 2.0859373,-3.23437502 0,-1.2304687 -0.199219,-2.0625 -0.621094,-2.6367187 -0.328125,-0.4453125 -0.855468,-0.6914063 -1.4648433,-0.6914063 z m 0,0.6914063 c 0.8554683,0 1.2773433,0.8671875 1.2773433,2.5664062 0,1.8046875 -0.410156,2.64843752 -1.2890621,2.64843752 -0.8320312,0 -1.2539062,-0.87890622 -1.2539062,-2.62500002 0,-1.734375 0.421875,-2.5898437 1.265625,-2.5898437 z m 0,0"
       style="fill:#000000;fill-opacity:1;fill-rule:nonzero;stroke:none"
       aria-label="1.0"
       transform="matrix(1.3333333,0,0,1.3333333,25.001333,64.398667)" />
    <path
       id="path22"
       d="m 5.6707656,-4.0665781 c 0.1054688,-0.1054688 0.1289063,-0.1523438 0.1289063,-0.2109375 0,-0.1171875 -0.09375,-0.1992188 -0.1875,-0.1992188 -0.070312,0 -0.082031,0.023437 -0.1875,0.1171875 l -1.8515625,1.8398438 -1.921875,-1.921875 c -0.046875,-0.035156 -0.09375,-0.035156 -0.1054688,-0.035156 -0.1054687,0 -0.1875,0.09375 -0.1875,0.1992188 0,0.070312 0.035156,0.1054687 0.1289063,0.2109375 l 1.8164062,1.8164062 -1.8164062,1.81640627 c -0.1289063,0.12890625 -0.1289063,0.17578125 -0.1289063,0.22265625 0,0.10546875 0.082031,0.1875 0.1875,0.1875 0.011719,0 0.058594,0 0.1054688,-0.0234375 l 1.921875,-1.92187502 1.875,1.86328127 c 0.058594,0.046875 0.082031,0.08203125 0.1640625,0.08203125 0.09375,0 0.1875,-0.0703125 0.1875,-0.1875 0,-0.0351563 -0.023437,-0.09375 -0.046875,-0.1171875 C 5.7410781,-0.36345313 4.1473281,-1.9454844 3.8426406,-2.2384531 Z m 0,0"
       style="fill:#000000;fill-opacity:1;fill-rule:nonzero;stroke:none"
       aria-label="×"
       transform="matrix(1.3333333,0,0,1.3333333,41.618667,64.398667)" />
    <path
       id="path23"
       d="M 4.5341563,-0.78550781 H 1.1943125 C 1.2763438,-1.3011328 1.5575938,-1.6292578 2.34275,-2.0862891 L 3.233375,-2.5784766 C 4.124,-3.0589453 4.5810313,-3.7151953 4.5810313,-4.4886328 c 0,-0.5273438 -0.2109375,-1.0195313 -0.5976563,-1.3710938 -0.375,-0.3398437 -0.8320312,-0.4921875 -1.4414062,-0.4921875 -0.8085938,0 -1.40625,0.28125 -1.75781255,0.8203125 C 0.5615,-5.1917578 0.46775,-4.7933203 0.4443125,-4.1487891 h 0.796875 c 0.023437,-0.4335937 0.070312,-0.6914062 0.1875,-0.9023437 0.1992188,-0.3867188 0.609375,-0.609375 1.0898438,-0.609375 0.7148437,0 1.2539062,0.5039062 1.2539062,1.1835937 0,0.5039063 -0.2929687,0.9375 -0.8554687,1.2539063 l -0.8320313,0.46875 c -1.32421875,0.75 -1.7109375,1.359375 -1.78125,2.7539062375 H 4.5341563 Z M 6.6962656,-0.93785156 H 5.7704844 V -3.515625e-4 H 6.6962656 Z M 9.9394297,-6.3519141 c -0.5859375,0 -1.125,0.2578125 -1.453125,0.6914063 -0.421875,0.5625 -0.6210938,1.40625 -0.6210938,2.5898437 0,2.13281254 0.7148438,3.28125004 2.0742188,3.28125004 1.3476563,0 2.0859373,-1.1484375 2.0859373,-3.23437504 0,-1.2304687 -0.199219,-2.0625 -0.621094,-2.6367187 -0.328125,-0.4453125 -0.855468,-0.6914063 -1.4648433,-0.6914063 z m 0,0.6914063 c 0.8554683,0 1.2773433,0.8671875 1.2773433,2.5664062 0,1.8046875 -0.410156,2.64843754 -1.2890621,2.64843754 -0.8320312,0 -1.2539062,-0.87890624 -1.2539062,-2.62500004 0,-1.734375 0.421875,-2.5898437 1.265625,-2.5898437 z m 0,0"
       style="fill:#000000;fill-opacity:1;fill-rule:nonzero;stroke:none"
       aria-label="2.0"
       transform="matrix(1.3333333,0,0,1.3333333,25.001333,17.02)" />
    <path
       id="path24"
       d="m 5.6707656,-4.0667578 c 0.1054688,-0.1054688 0.1289063,-0.1523438 0.1289063,-0.2109375 0,-0.1171875 -0.09375,-0.1992188 -0.1875,-0.1992188 -0.070312,0 -0.082031,0.023437 -0.1875,0.1171875 l -1.8515625,1.8398438 -1.921875,-1.921875 c -0.046875,-0.035156 -0.09375,-0.035156 -0.1054688,-0.035156 -0.1054687,0 -0.1875,0.09375 -0.1875,0.1992188 0,0.070312 0.035156,0.1054687 0.1289063,0.2109375 l 1.8164062,1.8164062 -1.8164062,1.81640629 c -0.1289063,0.12890625 -0.1289063,0.17578125 -0.1289063,0.22265625 0,0.10546875 0.082031,0.1875 0.1875,0.1875 0.011719,0 0.058594,0 0.1054688,-0.0234375 l 1.921875,-1.92187504 1.875,1.86328129 c 0.058594,0.046875 0.082031,0.08203125 0.1640625,0.08203125 0.09375,0 0.1875,-0.0703125 0.1875,-0.1875 0,-0.0351563 -0.023437,-0.09375 -0.046875,-0.1171875 C 5.7410781,-0.36363281 4.1473281,-1.9456641 3.8426406,-2.2386328 Z m 0,0"
       style="fill:#000000;fill-opacity:1;fill-rule:nonzero;stroke:none"
       aria-label="×"
       transform="matrix(1.3333333,0,0,1.3333333,41.618667,17.02)" />
    <path
       id="path25"
       d="m 147.66534,0 h 5.85418 5.85417 5.85418 5.85418 5.8542 5.85417 5.85418 5.85418 5.8542 5.85417 5.85419 5.85417 5.8542 5.85418 5.85418 5.85417 5.85421 5.85417 5.85418 5.85418 5.8542 5.85417 5.85419 5.85417"
       style="fill:none;stroke:#0000ff;stroke-width:1.59404;stroke-linecap:butt;stroke-linejoin:miter;stroke-miterlimit:10;stroke-dasharray:none;stroke-opacity:1"
       transform="matrix(1.3333333,0,0,-1.3333333,-158.79733,60.693333)"
       clip-path="url(#clipPath26)" />
    <path
       id="path27"
       d="m 288.1755,0 0.45307,0.00546 0.45308,0.01564 0.45306,0.02661 0.45307,0.03911 0.45308,0.05008 0.45306,0.06337 0.45306,0.07511 0.45308,0.08998 0.45307,0.10249 0.45306,0.11813 0.45307,0.133 0.45308,0.14787 0.45306,0.16272 0.45306,0.18074 0.45308,0.19716 0.45308,0.21515 0.45307,0.23158 0.45307,0.25115 0.45307,0.26913 0.45307,0.28712 0.45307,0.30747 0.45307,0.3286 0.45306,0.34816 0.45306,0.36848 0.45308,0.38964 0.45306,0.4123 0.45307,0.43345 0.45308,0.45611 0.45306,0.4796 0.45307,0.50149 0.45308,0.52341 0.45306,0.54764 0.45307,0.57271 0.45307,0.59303 0.45307,0.62042 0.45307,0.64234 0.45306,0.66734 0.45308,0.69162 0.45306,0.71509 0.45306,0.73935 0.45308,0.7628 0.45306,0.78706 0.45309,0.81289 0.45308,0.83557 0.45306,0.85903 0.45307,0.88253 0.45307,0.90754 0.45307,0.92946 0.45306,0.95293"
       style="fill:none;stroke:#0000ff;stroke-width:1.59404;stroke-linecap:butt;stroke-linejoin:miter;stroke-miterlimit:10;stroke-dasharray:none;stroke-opacity:1"
       transform="matrix(1.3333333,0,0,-1.3333333,-158.79733,60.693333)" />
    <path
       id="path28"
       d="m 310.39938,20.7946 2.70569,1.28777 2.70571,1.29794 2.70568,1.29796 2.70569,1.29796 2.70571,1.29403 2.70568,1.2956 2.70569,1.30423 2.70571,1.29324 2.70569,1.3011 2.70568,1.29637 2.70571,1.29248 2.70568,1.30812 2.70571,1.29482 2.7057,1.29874 2.70569,1.29795 2.7057,1.29717 2.7057,1.30029 2.70568,1.29796 2.70571,1.29794 2.70569,1.29717 2.70568,1.29797 2.70571,1.29717 2.70569,1.29872 2.70568,1.2956 2.70571,1.3003 2.70569,1.2964 2.70569,1.29717 2.7057,1.29951 2.70569,1.29717 2.70568,1.29795 2.70571,1.29873 2.70569,1.2956 2.70569,1.29639 2.7057,1.29952 2.70569,1.2956 2.70569,1.3003 2.7057,1.29483 2.70569,1.29951 2.70569,1.30342 2.70572,1.29639 2.70569,1.29717 2.70568,1.29873 2.70571,1.29718 2.70569,1.29796 2.70568,1.30028 2.70571,1.2964 2.70569,1.29794 2.70568,1.29874 2.70571,1.29639"
       style="fill:none;stroke:#0000ff;stroke-width:1.59404;stroke-linecap:butt;stroke-linejoin:miter;stroke-miterlimit:10;stroke-dasharray:none;stroke-opacity:1"
       transform="matrix(1.3333333,0,0,-1.3333333,-158.79733,60.693333)"
       clip-path="url(#clipPath26)" />
    <path
       id="path29"
       d="M 301.17606,-118.06114 V 35.53523"
       style="fill:none;stroke:#ff0000;stroke-width:0.79701;stroke-linecap:butt;stroke-linejoin:miter;stroke-miterlimit:10;stroke-dasharray:2.98883, 2.98883;stroke-dashoffset:0;stroke-opacity:1"
       transform="matrix(1.3333333,0,0,-1.3333333,-158.79733,60.693333)" />
    <path
       id="path30"
       d="M 4.9345469,-2.0737734 H 4.6884531 c -0.09375,0.8320312 -0.2226562,1.81640621 -1.6757812,1.81640621 H 2.2743906 c -0.3632812,0 -0.3867187,-0.0585938 -0.3867187,-0.328125 V -4.7925234 c 0,-0.2695313 0,-0.3867188 0.75,-0.3867188 h 0.2578125 v -0.2578125 c -0.3632813,0.023437 -0.9375,0.023437 -1.3125,0.023437 l -1.23046877,-0.023437 v 0.2578125 h 0.17578125 c 0.60937502,0 0.63281252,0.082031 0.63281252,0.3867188 v 4.14843746 c 0,0.29296875 -0.023437,0.38671875 -0.63281252,0.38671875 H 0.35251563 V 4.453125e-4 H 4.7001719 Z M 7.3661875,4.453125e-4 V -0.25736719 c -0.515625,0 -0.5507812,-0.046875 -0.5507812,-0.3515625 V -3.5151797 l -1.1601563,0.09375 v 0.2578125 c 0.5039063,0 0.5742188,0.046875 0.5742188,0.4335938 v 2.10937496 c 0,0.36328125 -0.09375,0.36328125 -0.5976563,0.36328125 V 4.453125e-4 C 5.9365,-0.02299219 6.3818125,-0.02299219 6.499,-0.02299219 c 0.1054688,0 0.5859375,0 0.8671875,0.0234375025 z M 6.9091563,-4.7925234 c 0,-0.2695313 -0.2109375,-0.4453125 -0.4335938,-0.4453125 -0.234375,0 -0.4453125,0.1757812 -0.4453125,0.4453125 0,0.2226562 0.1875,0.4335937 0.4453125,0.4335937 0.2460938,0 0.4335938,-0.2109375 0.4335938,-0.4335937 z M 12.12107,4.453125e-4 V -0.25736719 c -0.503906,0 -0.609375,0 -0.609375,-0.36328125 V -2.4136172 c 0,-0.6679687 -0.292968,-1.1015625 -1.136718,-1.1015625 -0.7851567,0 -1.1484379,0.5742188 -1.2421879,0.7617188 h -0.011719 v -0.7617188 l -1.1484375,0.09375 v 0.2578125 c 0.5390625,0 0.609375,0.058594 0.609375,0.4453125 v 2.09765626 c 0,0.36328125 -0.1054687,0.36328125 -0.609375,0.36328125 V 4.453125e-4 C 8.3124766,-0.02299219 8.6640391,-0.02299219 8.8749766,-0.02299219 c 0.234375,0 0.5742187,0 0.9140625,0.0234375025 V -0.25736719 c -0.515625,0 -0.609375,0 -0.609375,-0.36328125 V -2.0620547 c 0,-0.84375 0.6445312,-1.2304687 1.1249999,-1.2304687 0.492188,0 0.609375,0.3398437 0.609375,0.84375 v 1.82812496 c 0,0.36328125 -0.09375,0.36328125 -0.609375,0.36328125 V 4.453125e-4 C 10.644508,-0.02299219 10.99607,-0.02299219 11.218727,-0.02299219 c 0.222656,0 0.5625,0 0.902343,0.0234375025 z M 15.862281,-0.96049219 c 0,-0.0234375 -0.02344,-0.10546871 -0.128906,-0.10546871 -0.08203,0 -0.105469,0.058594 -0.117187,0.10546871 -0.292969,0.7734375 -0.972657,0.796875 -1.113282,0.796875 -0.363281,0 -0.726562,-0.17578125 -0.972656,-0.5390625 C 13.295875,-1.0659609 13.295875,-1.5815859 13.295875,-1.8159609 h 2.34375 c 0.175781,0 0.222656,0 0.222656,-0.1875 0,-0.703125 -0.386718,-1.546875 -1.511718,-1.546875 -0.996094,0 -1.769532,0.8203125 -1.769532,1.8046875 0,1.03124996 0.867188,1.82812496 1.875,1.82812496 1.007813,0 1.40625,-0.85546875 1.40625,-1.04296875 z M 15.323219,-2.0268984 h -2.015625 c 0.07031,-1.1132813 0.75,-1.3007813 1.042969,-1.3007813 0.925781,0 0.960937,1.125 0.972656,1.3007813 z m 4.886719,1.31249996 V -1.1597109 h -0.257813 v 0.44531246 c 0,0.328125 -0.117187,0.45703125 -0.28125,0.45703125 -0.292969,0 -0.292969,-0.375 -0.292969,-0.45703125 V -2.3784609 c 0,-0.7734375 -0.761718,-1.171875 -1.488281,-1.171875 -0.65625,0 -1.242187,0.2460937 -1.242187,0.7734375 0,0.2460937 0.164062,0.3867187 0.375,0.3867187 0.222656,0 0.363281,-0.1640625 0.363281,-0.375 0,-0.1875 -0.117188,-0.328125 -0.292969,-0.3632812 0.292969,-0.1992188 0.726563,-0.1992188 0.785156,-0.1992188 0.445313,0 0.890625,0.3046875 0.890625,0.9609375 v 0.2460938 c -0.457031,0.023437 -0.996093,0.046875 -1.546875,0.28125 -0.703125,0.3046875 -0.84375,0.7617187 -0.84375,1.03124996 0,0.6796875 0.808594,0.890625 1.359375,0.890625 0.574219,0 0.9375,-0.328125 1.113282,-0.64453125 0.03516,0.3046875 0.246093,0.59765625 0.597656,0.59765625 0.08203,0 0.761719,-0.0234375 0.761719,-0.75 z M 18.768531,-1.1245547 c 0,0.77343751 -0.65625,0.98437501 -0.972656,0.98437501 -0.410156,0 -0.761719,-0.28125 -0.761719,-0.66796875 0,-0.52734376 0.492188,-1.06640626 1.734375,-1.10156246 z m 4.628907,-1.8867187 c 0,-0.28125 -0.257813,-0.5039063 -0.609375,-0.5039063 -0.515625,0 -0.867188,0.3867188 -1.03125,0.84375 h -0.01172 v -0.84375 l -1.125,0.09375 v 0.2578125 c 0.539062,0 0.597656,0.058594 0.597656,0.4453125 v 2.09765626 c 0,0.36328125 -0.09375,0.36328125 -0.597656,0.36328125 V 4.453125e-4 c 0.304687,-0.0234375025 0.75,-0.0234375025 0.9375,-0.0234375025 0.46875,0 0.492187,0 1.007812,0.0234375025 V -0.25736719 h -0.164062 c -0.585938,0 -0.597656,-0.09375 -0.597656,-0.375 V -1.8159609 c 0,-0.5976563 0.246093,-1.453125 1.007812,-1.4765625 -0.04687,0.035156 -0.117187,0.09375 -0.117187,0.28125 0,0.2460937 0.1875,0.3632812 0.351562,0.3632812 0.1875,0 0.351563,-0.1289062 0.351563,-0.3632812 z m 7.274414,1.5351562 c 0,-0.6914062 -0.445313,-1.3945312 -1.265625,-1.59375 l -1.101563,-0.2578125 c -0.503906,-0.1171875 -0.878906,-0.515625 -0.878906,-1.0078125 0,-0.5273437 0.457031,-1.03125 1.160156,-1.03125 1.371094,0 1.558594,1.2890625 1.59375,1.59375 0.02344,0.082031 0.02344,0.140625 0.128906,0.140625 0.128907,0 0.128907,-0.058594 0.128907,-0.2109375 v -1.5585937 c 0,-0.1289063 0,-0.2109375 -0.105469,-0.2109375 -0.05859,0 -0.08203,0.023437 -0.128906,0.1171875 l -0.28125,0.4453125 c -0.398438,-0.4453125 -0.914063,-0.5625 -1.347657,-0.5625 -0.949218,0 -1.652343,0.7148437 -1.652343,1.5351562 0,0.609375 0.339843,0.9375 0.492187,1.0898438 0.292969,0.28125 0.550781,0.3515625 1.417969,0.5507812 0.679687,0.1640625 0.796875,0.1875 1.066406,0.4570313 0.08203,0.09375 0.28125,0.3632812 0.28125,0.75 0,0.55078121 -0.421875,1.13671871 -1.171875,1.13671871 -0.878906,0 -1.792969,-0.421875 -1.839844,-1.53515621 0,-0.1289063 0,-0.1757813 -0.117187,-0.1757813 -0.128906,0 -0.128906,0.058594 -0.128906,0.2109375 v 1.55859376 c 0,0.1171875 0,0.19921875 0.105468,0.19921875 0.05859,0 0.07031,-0.0117188 0.128907,-0.09375 0.03516,-0.046875 0.05859,-0.1171875 0.28125,-0.45703125 0.503906,0.4453125 1.089843,0.55078125 1.570312,0.55078125 0.996094,0 1.664063,-0.78515625 1.664063,-1.64062501 z m 3.999023,0.51562501 c 0,-0.09375 -0.105469,-0.09375 -0.128906,-0.09375 -0.05859,0 -0.09375,0.011719 -0.117188,0.09375 -0.05859,0.1640625 -0.28125,0.796875 -1.078125,0.796875 -0.492187,0 -1.207031,-0.38671875 -1.207031,-1.57031251 0,-1.1367187 0.597656,-1.5703125 1.171875,-1.5703125 0.07031,0 0.492188,0 0.773438,0.140625 -0.222657,0.070312 -0.257813,0.2578125 -0.257813,0.3515625 0,0.2109375 0.152344,0.375 0.375,0.375 0.210938,0 0.375,-0.140625 0.375,-0.3867187 0,-0.4921875 -0.539062,-0.7265625 -1.289062,-0.7265625 -1.101563,0 -1.851563,0.8789062 -1.851563,1.828125 0,1.00781246 0.832031,1.80468746 1.828125,1.80468746 1.125,0 1.40625,-0.9375 1.40625,-1.04296875 z m 4.347656,0.24609375 V -1.1597109 h -0.257812 v 0.44531246 c 0,0.328125 -0.117188,0.45703125 -0.28125,0.45703125 -0.292969,0 -0.292969,-0.375 -0.292969,-0.45703125 V -2.3784609 c 0,-0.7734375 -0.761719,-1.171875 -1.488281,-1.171875 -0.65625,0 -1.242188,0.2460937 -1.242188,0.7734375 0,0.2460937 0.164063,0.3867187 0.375,0.3867187 0.222657,0 0.363282,-0.1640625 0.363282,-0.375 0,-0.1875 -0.117188,-0.328125 -0.292969,-0.3632812 0.292969,-0.1992188 0.726562,-0.1992188 0.785156,-0.1992188 0.445313,0 0.890625,0.3046875 0.890625,0.9609375 v 0.2460938 c -0.457031,0.023437 -0.996094,0.046875 -1.546875,0.28125 -0.703125,0.3046875 -0.84375,0.7617187 -0.84375,1.03124996 0,0.6796875 0.808594,0.890625 1.359375,0.890625 0.574219,0 0.9375,-0.328125 1.113281,-0.64453125 0.03516,0.3046875 0.246094,0.59765625 0.597657,0.59765625 0.08203,0 0.761718,-0.0234375 0.761718,-0.75 z M 37.577125,-1.1245547 c 0,0.77343751 -0.65625,0.98437501 -0.972656,0.98437501 -0.410156,0 -0.761719,-0.28125 -0.761719,-0.66796875 0,-0.52734376 0.492188,-1.06640626 1.734375,-1.10156246 z M 41.28318,4.453125e-4 V -0.25736719 c -0.515625,0 -0.609375,0 -0.609375,-0.36328125 V -5.5308047 l -1.183594,0.09375 v 0.2578125 c 0.539062,0 0.597656,0.058594 0.597656,0.4453125 v 4.11328126 c 0,0.36328125 -0.09375,0.36328125 -0.597656,0.36328125 V 4.453125e-4 c 0.304687,-0.0234375025 0.75,-0.0234375025 0.890625,-0.0234375025 0.152344,0 0.585937,0 0.902344,0.0234375025 z m 2.291015,0 V -0.25736719 c -0.515625,0 -0.550781,-0.046875 -0.550781,-0.3515625 V -3.5151797 l -1.160156,0.09375 v 0.2578125 c 0.503906,0 0.574219,0.046875 0.574219,0.4335938 v 2.10937496 c 0,0.36328125 -0.09375,0.36328125 -0.597657,0.36328125 V 4.453125e-4 c 0.304688,-0.0234375025 0.75,-0.0234375025 0.867188,-0.0234375025 0.105469,0 0.585937,0 0.867187,0.0234375025 z M 43.117164,-4.7925234 c 0,-0.2695313 -0.210937,-0.4453125 -0.433594,-0.4453125 -0.234375,0 -0.445312,0.1757812 -0.445312,0.4453125 0,0.2226562 0.1875,0.4335937 0.445312,0.4335937 0.246094,0 0.433594,-0.2109375 0.433594,-0.4335937 z M 48.329078,4.453125e-4 V -0.25736719 c -0.503906,0 -0.609375,0 -0.609375,-0.36328125 V -2.4136172 c 0,-0.6679687 -0.292969,-1.1015625 -1.136719,-1.1015625 -0.785156,0 -1.148437,0.5742188 -1.242187,0.7617188 h -0.01172 v -0.7617188 l -1.148437,0.09375 v 0.2578125 c 0.539062,0 0.609375,0.058594 0.609375,0.4453125 v 2.09765626 c 0,0.36328125 -0.105469,0.36328125 -0.609375,0.36328125 V 4.453125e-4 C 44.520484,-0.02299219 44.872047,-0.02299219 45.082984,-0.02299219 c 0.234375,0 0.574219,0 0.914063,0.0234375025 V -0.25736719 c -0.515625,0 -0.609375,0 -0.609375,-0.36328125 V -2.0620547 c 0,-0.84375 0.644531,-1.2304687 1.125,-1.2304687 0.492187,0 0.609375,0.3398437 0.609375,0.84375 v 1.82812496 c 0,0.36328125 -0.09375,0.36328125 -0.609375,0.36328125 V 4.453125e-4 C 46.852516,-0.02299219 47.204078,-0.02299219 47.426734,-0.02299219 c 0.222657,0 0.5625,0 0.902344,0.0234375025 z M 52.656227,-3.1987734 c 0,-0.1289063 -0.105469,-0.3984375 -0.457032,-0.3984375 -0.128906,0 -0.515625,0.023437 -0.878906,0.3632812 -0.199219,-0.140625 -0.515625,-0.28125 -0.890625,-0.28125 -0.785156,0 -1.359375,0.5507813 -1.359375,1.171875 0,0.375 0.199219,0.65625 0.363281,0.8085938 -0.164062,0.1992187 -0.234375,0.4570312 -0.234375,0.65624996 0,0.31640625 0.164063,0.5625 0.339844,0.703125 -0.421875,0.1171875 -0.75,0.421875 -0.75,0.78515625 0,0.57421879 0.820313,1.01953129 1.875,1.01953129 0.996094,0 1.875,-0.3984375 1.875,-1.03125004 0,-0.43359375 -0.257812,-0.76171875 -0.515625,-0.90234375 -0.46875,-0.24609375 -0.867187,-0.24609375 -1.640625,-0.24609375 h -0.445312 c -0.246094,-0.0234375 -0.445313,-0.234375 -0.445313,-0.52734376 0,-0.1875 0.04687,-0.2578125 0.09375,-0.328125 0.339844,0.1992188 0.644531,0.234375 0.84375,0.234375 0.785156,0 1.371094,-0.5507812 1.371094,-1.171875 0,-0.3046875 -0.140625,-0.5625 -0.328125,-0.7617187 0.105469,-0.09375 0.375,-0.2695313 0.761719,-0.2695313 -0.03516,0.023437 -0.07031,0.058594 -0.07031,0.1875 0,0.140625 0.105469,0.2460938 0.246094,0.2460938 0.117187,0 0.246094,-0.070312 0.246094,-0.2578125 z m -1.488282,0.8554687 c 0,0.2929688 -0.03516,0.5039063 -0.164062,0.6679688 -0.175781,0.2226562 -0.421875,0.2695312 -0.574219,0.2695312 -0.738281,0 -0.738281,-0.7617187 -0.738281,-0.9375 0,-0.2929687 0.04687,-0.5039062 0.164062,-0.65625 0.128907,-0.1875 0.351563,-0.28125 0.574219,-0.28125 0.738281,0 0.738281,0.7617188 0.738281,0.9375 z m 0.902344,2.95312501 c 0,0.42187499 -0.609375,0.79687499 -1.40625,0.79687499 -0.796875,0 -1.394531,-0.375 -1.394531,-0.79687499 0,-0.17578125 0.117187,-0.64453125 0.773437,-0.64453125 h 0.761719 c 0.222656,0 1.265625,0 1.265625,0.64453125 z m 0,0"
       style="fill:#000000;fill-opacity:1;fill-rule:nonzero;stroke:none"
       aria-label="LinearScaling"
       transform="matrix(1.3333333,0,0,1.3333333,101.33467,47.308)" />
    <path
       id="path31"
       d="m 5.9878516,-2.6704766 c 0,-1.5351562 -1.171875,-2.765625 -2.5898438,-2.765625 H 0.36285156 v 0.2578125 h 0.17578125 c 0.62109379,0 0.63281249,0.082031 0.63281249,0.3867188 v 4.14843749 c 0,0.29296875 -0.011719,0.38671875 -0.63281249,0.38671875 H 0.36285156 v 0.2578125 H 3.3980078 c 1.4296875,0 2.5898438,-1.19531254 2.5898438,-2.67187504 z m -0.8085938,0 c 0,0.3984375 0,1.1835938 -0.5039062,1.76953129 -0.28125,0.328125 -0.7851563,0.64453125 -1.5,0.64453125 H 2.2612891 c -0.3632813,0 -0.3867188,-0.0585938 -0.3867188,-0.328125 V -4.8501641 c 0,-0.2695312 0.023437,-0.328125 0.3867188,-0.328125 h 0.9140625 c 0.6210937,0 1.1484375,0.2578125 1.4882812,0.65625 0.515625,0.5976563 0.515625,1.453125 0.515625,1.8515625 z m 3.3574219,2.67187504 v -0.2578125 c -0.515625,0 -0.5507813,-0.046875 -0.5507813,-0.3515625 V -3.5142266 l -1.1601562,0.09375 v 0.2578125 c 0.5039062,0 0.5742187,0.046875 0.5742187,0.4335938 v 2.10937499 c 0,0.36328125 -0.09375,0.36328125 -0.5976562,0.36328125 v 0.2578125 c 0.3046875,-0.0234375 0.75,-0.0234375 0.8671875,-0.0234375 0.1054687,0 0.5859375,0 0.8671875,0.0234375 z M 8.0796484,-4.7915703 c 0,-0.2695313 -0.2109375,-0.4453125 -0.4335937,-0.4453125 -0.234375,0 -0.4453125,0.1757812 -0.4453125,0.4453125 0,0.2226562 0.1875,0.4335937 0.4453125,0.4335937 0.2460937,0 0.4335937,-0.2109375 0.4335937,-0.4335937 z m 7.5673826,4.79296874 v -0.2578125 c -0.515625,0 -0.609375,0 -0.609375,-0.36328125 V -2.4126641 c 0,-0.6445312 -0.28125,-1.1015625 -1.148437,-1.1015625 -0.726563,0 -1.101563,0.5039063 -1.230469,0.7382813 -0.140625,-0.5742188 -0.597656,-0.7382813 -1.113281,-0.7382813 -0.773438,0 -1.136719,0.5507813 -1.242188,0.7617188 h -0.01172 v -0.7617188 l -1.148438,0.09375 v 0.2578125 c 0.5390625,0 0.609375,0.058594 0.609375,0.4453125 v 2.09765629 c 0,0.36328125 -0.1054687,0.36328125 -0.609375,0.36328125 v 0.2578125 c 0.3398438,-0.0234375 0.6914063,-0.0234375 0.902344,-0.0234375 0.234375,0 0.574219,0 0.914062,0.0234375 v -0.2578125 c -0.515625,0 -0.609375,0 -0.609375,-0.36328125 V -2.0611016 c 0,-0.84375 0.632813,-1.2304687 1.136719,-1.2304687 0.515625,0 0.597656,0.4101562 0.597656,0.84375 v 1.82812499 c 0,0.36328125 -0.09375,0.36328125 -0.597656,0.36328125 v 0.2578125 c 0.339844,-0.0234375 0.691406,-0.0234375 0.902344,-0.0234375 0.234375,0 0.574219,0 0.914062,0.0234375 v -0.2578125 c -0.515625,0 -0.609375,0 -0.609375,-0.36328125 V -2.0611016 c 0,-0.84375 0.632813,-1.2304687 1.136719,-1.2304687 0.515625,0 0.597656,0.4101562 0.597656,0.84375 v 1.82812499 c 0,0.36328125 -0.09375,0.36328125 -0.597656,0.36328125 v 0.2578125 c 0.339844,-0.0234375 0.691406,-0.0234375 0.902344,-0.0234375 0.234375,0 0.574219,0 0.914062,0.0234375 z m 2.296875,0 v -0.2578125 c -0.515625,0 -0.550781,-0.046875 -0.550781,-0.3515625 V -3.5142266 l -1.160156,0.09375 v 0.2578125 c 0.503906,0 0.574219,0.046875 0.574219,0.4335938 v 2.10937499 c 0,0.36328125 -0.09375,0.36328125 -0.597657,0.36328125 v 0.2578125 c 0.304688,-0.0234375 0.75,-0.0234375 0.867188,-0.0234375 0.105469,0 0.585937,0 0.867187,0.0234375 z M 17.486875,-4.7915703 c 0,-0.2695313 -0.210937,-0.4453125 -0.433594,-0.4453125 -0.234375,0 -0.445312,0.1757812 -0.445312,0.4453125 0,0.2226562 0.1875,0.4335937 0.445312,0.4335937 0.246094,0 0.433594,-0.2109375 0.433594,-0.4335937 z m 5.208984,4.79296874 v -0.2578125 c -0.503906,0 -0.609375,0 -0.609375,-0.36328125 V -2.4126641 c 0,-0.6679687 -0.292968,-1.1015625 -1.136718,-1.1015625 -0.785157,0 -1.148438,0.5742188 -1.242188,0.7617188 h -0.01172 v -0.7617188 l -1.148437,0.09375 v 0.2578125 c 0.539062,0 0.609375,0.058594 0.609375,0.4453125 v 2.09765629 c 0,0.36328125 -0.105469,0.36328125 -0.609375,0.36328125 v 0.2578125 c 0.339844,-0.0234375 0.691406,-0.0234375 0.902344,-0.0234375 0.234375,0 0.574218,0 0.914062,0.0234375 v -0.2578125 c -0.515625,0 -0.609375,0 -0.609375,-0.36328125 V -2.0611016 c 0,-0.84375 0.644531,-1.2304687 1.125,-1.2304687 0.492188,0 0.609375,0.3398437 0.609375,0.84375 v 1.82812499 c 0,0.36328125 -0.09375,0.36328125 -0.609375,0.36328125 v 0.2578125 c 0.339844,-0.0234375 0.691406,-0.0234375 0.914063,-0.0234375 0.222656,0 0.5625,0 0.902343,0.0234375 z m 2.299805,0 v -0.2578125 c -0.515625,0 -0.550781,-0.046875 -0.550781,-0.3515625 V -3.5142266 l -1.160156,0.09375 v 0.2578125 c 0.503906,0 0.574218,0.046875 0.574218,0.4335938 v 2.10937499 c 0,0.36328125 -0.09375,0.36328125 -0.597656,0.36328125 v 0.2578125 c 0.304688,-0.0234375 0.75,-0.0234375 0.867188,-0.0234375 0.105468,0 0.585937,0 0.867187,0.0234375 z M 24.538633,-4.7915703 c 0,-0.2695313 -0.210938,-0.4453125 -0.433594,-0.4453125 -0.234375,0 -0.445312,0.1757812 -0.445312,0.4453125 0,0.2226562 0.1875,0.4335937 0.445312,0.4335937 0.246094,0 0.433594,-0.2109375 0.433594,-0.4335937 z m 3.782226,3.7617187 c 0,-0.375 -0.222656,-0.9375 -1.171875,-1.1132812 -0.07031,-0.011719 -0.515625,-0.09375 -0.539062,-0.09375 -0.257813,-0.058594 -0.621094,-0.2226563 -0.621094,-0.5390625 0,-0.2460938 0.164063,-0.5742188 0.925781,-0.5742188 0.890625,0 0.9375,0.6445313 0.949219,0.8789063 0.01172,0.058594 0.05859,0.082031 0.117188,0.082031 0.128906,0 0.128906,-0.058594 0.128906,-0.2109375 v -0.75 c 0,-0.1171875 0,-0.1992187 -0.105469,-0.1992187 -0.03516,0 -0.05859,0 -0.1875,0.1289062 -0.01172,0 -0.09375,0.070312 -0.117187,0.070312 0,0 -0.02344,0 -0.07031,-0.023437 -0.128906,-0.09375 -0.351562,-0.1757812 -0.714844,-0.1757812 -1.113281,0 -1.359375,0.5976562 -1.359375,0.984375 0,0.3984375 0.292969,0.6328125 0.316407,0.65625 0.316406,0.234375 0.503906,0.2695312 1.03125,0.3632812 0.375,0.070312 0.996093,0.1875 0.996093,0.72656254 0,0.3046875 -0.210937,0.6796875 -0.949218,0.6796875 -0.796875,0 -1.03125,-0.62109375 -1.136719,-1.04296874 -0.02344,-0.1054688 -0.03516,-0.1523438 -0.128906,-0.1523438 -0.128907,0 -0.128907,0.070312 -0.128907,0.2226563 v 0.98437499 c 0,0.12890625 0,0.2109375 0.105469,0.2109375 0.04687,0 0.04687,-0.01171875 0.199219,-0.1640625 0.03516,-0.03515625 0.128906,-0.140625 0.164062,-0.17578125 0.363282,0.31640625 0.726563,0.33984375 0.9375,0.33984375 1.019532,0 1.359375,-0.5859375 1.359375,-1.11328129 z m 4.769532,1.03125004 v -0.2578125 c -0.503907,0 -0.609375,0 -0.609375,-0.36328125 V -2.4126641 c 0,-0.6679687 -0.292969,-1.1015625 -1.136719,-1.1015625 -0.703125,0 -1.066406,0.4453125 -1.207031,0.703125 h -0.01172 v -2.71875 l -1.183594,0.09375 v 0.2578125 c 0.539063,0 0.609375,0.058594 0.609375,0.4453125 v 4.11328129 c 0,0.36328125 -0.105469,0.36328125 -0.609375,0.36328125 v 0.2578125 c 0.339844,-0.0234375 0.691406,-0.0234375 0.902344,-0.0234375 0.234375,0 0.574219,0 0.914062,0.0234375 v -0.2578125 c -0.515625,0 -0.609375,0 -0.609375,-0.36328125 V -2.0611016 c 0,-0.84375 0.644532,-1.2304687 1.125,-1.2304687 0.492188,0 0.609375,0.3398437 0.609375,0.84375 v 1.82812499 c 0,0.36328125 -0.09375,0.36328125 -0.609375,0.36328125 v 0.2578125 c 0.339844,-0.0234375 0.691407,-0.0234375 0.914063,-0.0234375 0.222656,0 0.5625,0 0.902345,0.0234375 z m 2.299804,0 v -0.2578125 c -0.515625,0 -0.550781,-0.046875 -0.550781,-0.3515625 V -3.5142266 l -1.160156,0.09375 v 0.2578125 c 0.503906,0 0.574219,0.046875 0.574219,0.4335938 v 2.10937499 c 0,0.36328125 -0.09375,0.36328125 -0.597657,0.36328125 v 0.2578125 c 0.304688,-0.0234375 0.75,-0.0234375 0.867188,-0.0234375 0.105469,0 0.585937,0 0.867187,0.0234375 z M 34.933164,-4.7915703 c 0,-0.2695313 -0.210937,-0.4453125 -0.433594,-0.4453125 -0.234375,0 -0.445312,0.1757812 -0.445312,0.4453125 0,0.2226562 0.1875,0.4335937 0.445312,0.4335937 0.246094,0 0.433594,-0.2109375 0.433594,-0.4335937 z m 5.208984,4.79296874 v -0.2578125 c -0.503906,0 -0.609375,0 -0.609375,-0.36328125 V -2.4126641 c 0,-0.6679687 -0.292968,-1.1015625 -1.136718,-1.1015625 -0.785157,0 -1.148438,0.5742188 -1.242188,0.7617188 h -0.01172 v -0.7617188 l -1.148437,0.09375 v 0.2578125 c 0.539062,0 0.609375,0.058594 0.609375,0.4453125 v 2.09765629 c 0,0.36328125 -0.105469,0.36328125 -0.609375,0.36328125 v 0.2578125 c 0.339844,-0.0234375 0.691406,-0.0234375 0.902344,-0.0234375 0.234375,0 0.574218,0 0.914062,0.0234375 v -0.2578125 c -0.515625,0 -0.609375,0 -0.609375,-0.36328125 V -2.0611016 c 0,-0.84375 0.644531,-1.2304687 1.125,-1.2304687 0.492188,0 0.609375,0.3398437 0.609375,0.84375 v 1.82812499 c 0,0.36328125 -0.09375,0.36328125 -0.609375,0.36328125 v 0.2578125 c 0.339844,-0.0234375 0.691406,-0.0234375 0.914063,-0.0234375 0.222656,0 0.5625,0 0.902344,0.0234375 z m 4.327149,-3.19921874 c 0,-0.1289063 -0.105469,-0.3984375 -0.457031,-0.3984375 -0.128907,0 -0.515625,0.023437 -0.878907,0.3632812 -0.199218,-0.140625 -0.515625,-0.28125 -0.890625,-0.28125 -0.785156,0 -1.359375,0.5507813 -1.359375,1.171875 0,0.375 0.199219,0.65625 0.363282,0.8085938 -0.164063,0.1992187 -0.234375,0.4570312 -0.234375,0.65624999 0,0.31640625 0.164062,0.5625 0.339843,0.703125 -0.421875,0.1171875 -0.75,0.421875 -0.75,0.78515625 0,0.57421876 0.820313,1.01953126 1.875,1.01953126 0.996094,0 1.875,-0.3984375 1.875,-1.03125001 0,-0.43359375 -0.257812,-0.76171875 -0.515625,-0.90234375 -0.46875,-0.24609375 -0.867187,-0.24609375 -1.640625,-0.24609375 h -0.445312 c -0.246094,-0.0234375 -0.445313,-0.234375 -0.445313,-0.52734379 0,-0.1875 0.04687,-0.2578125 0.09375,-0.328125 0.339844,0.1992188 0.644532,0.234375 0.84375,0.234375 0.785157,0 1.371094,-0.5507812 1.371094,-1.171875 0,-0.3046875 -0.140625,-0.5625 -0.328125,-0.7617187 0.105469,-0.09375 0.375,-0.2695313 0.761719,-0.2695313 -0.03516,0.023437 -0.07031,0.058594 -0.07031,0.1875 0,0.140625 0.105469,0.2460938 0.246094,0.2460938 0.117188,0 0.246094,-0.070312 0.246094,-0.2578125 z m -1.488281,0.8554687 c 0,0.2929688 -0.03516,0.5039063 -0.164063,0.6679688 -0.175781,0.2226562 -0.421875,0.2695312 -0.574219,0.2695312 -0.738281,0 -0.738281,-0.7617187 -0.738281,-0.9375 0,-0.2929687 0.04687,-0.5039062 0.164063,-0.65625 0.128906,-0.1875 0.351562,-0.28125 0.574218,-0.28125 0.738282,0 0.738282,0.7617188 0.738282,0.9375 z m 0.902343,2.95312504 c 0,0.42187496 -0.609375,0.79687496 -1.40625,0.79687496 -0.796875,0 -1.394531,-0.375 -1.394531,-0.79687496 0,-0.17578125 0.117188,-0.64453125 0.773438,-0.64453125 h 0.761718 c 0.222657,0 1.265625,0 1.265625,0.64453125 z m 9.738282,-1.3359375 c 0,-0.046875 0,-0.15234375 -0.128907,-0.15234375 -0.105468,0 -0.105468,0.09375 -0.117187,0.140625 -0.03516,0.50390625 -0.316406,0.6796875 -0.539063,0.6796875 -0.433593,0 -0.480468,-0.36328125 -0.621093,-1.37109379 -0.05859,-0.4570312 -0.140625,-1.0078125 -1.019532,-1.2773437 0.621094,-0.1640625 1.394532,-0.6210938 1.394532,-1.3007813 0,-0.7851562 -1.019532,-1.4296875 -2.203125,-1.4296875 h -2.601563 v 0.2578125 h 0.175781 c 0.621094,0 0.632813,0.082031 0.632813,0.3867188 v 4.14843749 c 0,0.29296875 -0.01172,0.38671875 -0.632813,0.38671875 h -0.175781 v 0.2578125 l 1.160156,-0.0234375 1.160157,0.0234375 v -0.2578125 h -0.175782 c -0.609375,0 -0.632812,-0.09375 -0.632812,-0.38671875 V -2.6118828 h 1.007812 c 0.585938,0 0.855469,0.2929687 0.914063,0.3632812 0.222656,0.2460938 0.222656,0.3984375 0.222656,0.9375 0,0.50390629 0,0.85546879 0.339844,1.14843754 0.339844,0.29296875 0.785156,0.328125 1.019531,0.328125 0.65625,0 0.820313,-0.64453125 0.820313,-0.890625 z M 51.758359,-4.0064141 c 0,0.8789063 -0.632812,1.171875 -1.476562,1.171875 h -0.984375 v -2.015625 c 0,-0.2109375 0.01172,-0.2929687 0.199219,-0.3164062 0.08203,-0.011719 0.328125,-0.011719 0.492187,-0.011719 0.714844,0 1.769531,0 1.769531,1.1718752 z m 5.411133,3.04687504 c 0,-0.0234375 -0.02344,-0.10546874 -0.128906,-0.10546874 -0.08203,0 -0.105469,0.058594 -0.117188,0.10546874 -0.292968,0.7734375 -0.972656,0.796875 -1.113281,0.796875 -0.363281,0 -0.726562,-0.17578125 -0.972656,-0.5390625 C 54.603086,-1.0650078 54.603086,-1.5806328 54.603086,-1.8150078 h 2.34375 c 0.175781,0 0.222656,0 0.222656,-0.1875 0,-0.703125 -0.386719,-1.546875 -1.511719,-1.546875 -0.996093,0 -1.769531,0.8203125 -1.769531,1.8046875 0,1.03124999 0.867188,1.82812499 1.875,1.82812499 1.007813,0 1.40625,-0.85546875 1.40625,-1.04296875 z M 56.63043,-2.0259453 h -2.015625 c 0.07031,-1.1132813 0.75,-1.3007813 1.042968,-1.3007813 0.925782,0 0.960938,1.125 0.972657,1.3007813 z m 3.597656,1.03124999 V -1.4400078 h -0.246094 v 0.4335937 c 0,0.55078129 -0.246094,0.84375004 -0.550781,0.84375004 -0.539063,0 -0.539063,-0.69140625 -0.539063,-0.8203125 V -3.1743828 h 1.195313 v -0.2578125 h -1.195313 v -1.4648438 h -0.246093 c 0,0.7265625 -0.328125,1.4765625 -1.066407,1.5 v 0.2226563 h 0.714844 v 2.17968749 c 0,0.9375 0.714844,1.078125 1.078125,1.078125 0.539063,0 0.855469,-0.48046875 0.855469,-1.078125 z m 4.957031,0.99609375 v -0.2578125 c -0.539062,0 -0.609375,-0.0585938 -0.609375,-0.45703125 V -3.5142266 l -1.207031,0.09375 v 0.2578125 c 0.539062,0 0.609375,0.058594 0.609375,0.4453125 v 1.3828125 c 0,0.69140629 -0.421875,1.19531254 -1.019531,1.19531254 -0.679688,0 -0.714844,-0.33984375 -0.714844,-0.73828125 V -3.5142266 l -1.207031,0.09375 v 0.2578125 c 0.609375,0 0.609375,0.023437 0.609375,0.7382813 v 1.1953125 c 0,0.57421874 0,1.31249999 1.265625,1.31249999 0.75,0 1.042968,-0.57421875 1.078125,-0.64453125 h 0.01172 v 0.64453125 z m 3.28418,-3.01171874 c 0,-0.28125 -0.257813,-0.5039063 -0.609375,-0.5039063 -0.515625,0 -0.867188,0.3867188 -1.03125,0.84375 h -0.01172 v -0.84375 l -1.125,0.09375 v 0.2578125 c 0.539063,0 0.597656,0.058594 0.597656,0.4453125 v 2.09765629 c 0,0.36328125 -0.09375,0.36328125 -0.597656,0.36328125 v 0.2578125 c 0.304688,-0.0234375 0.75,-0.0234375 0.9375,-0.0234375 0.46875,0 0.492188,0 1.007813,0.0234375 v -0.2578125 h -0.164063 c -0.585937,0 -0.597656,-0.09375 -0.597656,-0.375 V -1.8150078 c 0,-0.5976563 0.246094,-1.453125 1.007812,-1.4765625 -0.04687,0.035156 -0.117187,0.09375 -0.117187,0.28125 0,0.2460937 0.1875,0.3632812 0.351562,0.3632812 0.1875,0 0.351563,-0.1289062 0.351564,-0.3632812 z m 4.716797,3.01171874 v -0.2578125 c -0.503906,0 -0.609375,0 -0.609375,-0.36328125 V -2.4126641 c 0,-0.6679687 -0.292969,-1.1015625 -1.136719,-1.1015625 -0.785156,0 -1.148437,0.5742188 -1.242187,0.7617188 h -0.01172 v -0.7617188 l -1.148438,0.09375 v 0.2578125 c 0.539063,0 0.609375,0.058594 0.609375,0.4453125 v 2.09765629 c 0,0.36328125 -0.105468,0.36328125 -0.609375,0.36328125 v 0.2578125 c 0.339844,-0.0234375 0.691407,-0.0234375 0.902344,-0.0234375 0.234375,0 0.574219,0 0.914063,0.0234375 v -0.2578125 c -0.515625,0 -0.609375,0 -0.609375,-0.36328125 V -2.0611016 c 0,-0.84375 0.644531,-1.2304687 1.125,-1.2304687 0.492187,0 0.609375,0.3398437 0.609375,0.84375 v 1.82812499 c 0,0.36328125 -0.09375,0.36328125 -0.609375,0.36328125 v 0.2578125 c 0.339843,-0.0234375 0.691406,-0.0234375 0.914062,-0.0234375 0.222656,0 0.5625,0 0.902345,0.0234375 z m 3.272461,-1.03125004 c 0,-0.375 -0.222657,-0.9375 -1.171875,-1.1132812 -0.07031,-0.011719 -0.515625,-0.09375 -0.539063,-0.09375 -0.257812,-0.058594 -0.621094,-0.2226563 -0.621094,-0.5390625 0,-0.2460938 0.164063,-0.5742188 0.925782,-0.5742188 0.890625,0 0.9375,0.6445313 0.949218,0.8789063 0.01172,0.058594 0.05859,0.082031 0.117188,0.082031 0.128906,0 0.128906,-0.058594 0.128906,-0.2109375 v -0.75 c 0,-0.1171875 0,-0.1992187 -0.105469,-0.1992187 -0.03516,0 -0.05859,0 -0.1875,0.1289062 -0.01172,0 -0.09375,0.070312 -0.117187,0.070312 0,0 -0.02344,0 -0.07031,-0.023437 -0.128906,-0.09375 -0.351562,-0.1757812 -0.714843,-0.1757812 -1.113282,0 -1.359375,0.5976562 -1.359375,0.984375 0,0.3984375 0.292968,0.6328125 0.316406,0.65625 0.316406,0.234375 0.503906,0.2695312 1.03125,0.3632812 0.375,0.070312 0.996094,0.1875 0.996094,0.72656254 0,0.3046875 -0.210938,0.6796875 -0.949219,0.6796875 -0.796875,0 -1.03125,-0.62109375 -1.136719,-1.04296874 -0.02344,-0.1054688 -0.03516,-0.1523438 -0.128906,-0.1523438 -0.128906,0 -0.128906,0.070312 -0.128906,0.2226563 v 0.98437499 c 0,0.12890625 0,0.2109375 0.105468,0.2109375 0.04687,0 0.04687,-0.01171875 0.199219,-0.1640625 0.03516,-0.03515625 0.128906,-0.140625 0.164063,-0.17578125 0.363281,0.31640625 0.726562,0.33984375 0.9375,0.33984375 1.019531,0 1.359375,-0.5859375 1.359375,-1.11328129 z m 0,0"
       style="fill:#000000;fill-opacity:1;fill-rule:nonzero;stroke:none"
       aria-label="DiminishingReturns"
       transform="matrix(1.3333333,0,0,1.3333333,282.24667,13.642667)"
       clip-path="url(#clipPath32)" />
    <path
       id="path33"
       d="m 1.3489609,-0.63316406 c -0.070312,0.3046875 -0.09375,0.375 -0.67968746,0.375 -0.15234375,0 -0.24609375,0 -0.24609375,0.140625 0,0.1171874975 0.10546875,0.1171874975 0.234375,0.1171874975 H 3.6223984 c 1.3125,0 2.296875,-0.9374999975 2.296875,-1.7109375375 0,-0.5742187 -0.5039062,-1.0429687 -1.3007812,-1.1367187 0.9257812,-0.1757813 1.7226562,-0.7734375 1.7226562,-1.4765625 0,-0.5976563 -0.5859375,-1.1132813 -1.59375,-1.1132813 H 1.9700547 c -0.140625,0 -0.2460938,0 -0.2460938,0.140625 0,0.1171875 0.09375,0.1171875 0.234375,0.1171875 0.2578125,0 0.4921875,0 0.4921875,0.1289063 0,0.035156 -0.011719,0.035156 -0.035156,0.140625 z M 2.5911484,-2.9417578 3.0716172,-4.8870703 c 0.082031,-0.2695313 0.082031,-0.2929688 0.4101562,-0.2929688 h 1.1484375 c 0.7851563,0 0.9609375,0.515625 0.9609375,0.8320313 0,0.6796875 -0.7265625,1.40625 -1.7460937,1.40625 z m -0.5507812,2.68359374 c -0.070312,-0.0234375 -0.09375,-0.0234375 -0.09375,-0.0820313 0,-0.0585938 0.011719,-0.1171875 0.035156,-0.17578125 L 2.5325547,-2.7191016 h 1.6171875 c 0.75,0 0.9960937,0.5039063 0.9960937,0.9492188 0,0.78515624 -0.7734375,1.51171874 -1.7226562,1.51171874 z m 0,0"
       style="fill:#ff0000;fill-opacity:1;fill-rule:nonzero;stroke:none"
       aria-label="B"
       transform="matrix(1.3333333,0,0,1.3333333,254.31467,194.02)" />
    <path
       id="path34"
       d="m 3.2935703,-1.0550391 c 0.070312,0.046875 0.09375,0.046875 0.1289063,0.046875 0.1289062,0 0.2460937,-0.1054687 0.2460937,-0.2460937 0,-0.1523438 -0.082031,-0.1757813 -0.1992187,-0.234375 C 2.9302891,-1.7347266 2.7427891,-1.8284766 2.3560703,-1.9808203 l 0.9257813,-0.421875 c 0.070312,-0.023437 0.2226562,-0.1054688 0.28125,-0.1289063 0.082031,-0.046875 0.1054687,-0.1171875 0.1054687,-0.1992187 0,-0.09375 -0.046875,-0.2460938 -0.2929687,-0.2460938 l -1.1484375,0.7851563 0.1171875,-1.1835938 c 0.011719,-0.1289062 0,-0.328125 -0.234375,-0.328125 -0.140625,0 -0.2578125,0.1171875 -0.234375,0.234375 v 0.09375 l 0.1171875,1.1835938 -1.05468754,-0.7382813 c -0.0820313,-0.046875 -0.10546875,-0.046875 -0.140625,-0.046875 -0.12890625,0 -0.234375,0.1054688 -0.234375,0.2460938 0,0.1523437 0.0703125,0.1875 0.19921875,0.2460937 0.52734379,0.2460938 0.71484379,0.328125 1.11328129,0.4921875 l -0.93750004,0.421875 c -0.0585938,0.023437 -0.2109375,0.09375 -0.28125,0.1171875 -0.0703125,0.046875 -0.09375,0.1289063 -0.09375,0.1992188 0,0.140625 0.10546875,0.2460937 0.234375,0.2460937 0.0585938,0 0.0820313,0 0.28125004,-0.140625 l 0.9140625,-0.6328125 -0.1171875,1.27734379 c 0,0.1640625 0.1289062,0.234375 0.234375,0.234375 0.1054687,0 0.2460937,-0.0703125 0.2460937,-0.234375 0,-0.0820313 -0.035156,-0.328125 -0.046875,-0.43359375 C 2.2740391,-1.2073828 2.2506016,-1.5120703 2.2271641,-1.7816016 Z m 0,0"
       style="fill:#ff0000;fill-opacity:1;fill-rule:nonzero;stroke:none"
       aria-label="∗"
       transform="matrix(1.3333333,0,0,1.3333333,263.35467,194.02)" />
    <path
       id="path35"
       d="M 0.70438281,-0.00125 H 3.6575078 c 0.6210938,0 1.078125,-0.17578125 1.4296875,-0.55078125 C 5.4036016,-0.891875 5.5911016,-1.360625 5.5911016,-1.8645313 c 0,-0.7851562 -0.3632813,-1.265625 -1.1953125,-1.59375 C 4.9817266,-3.7278125 5.2981328,-4.22 5.2981328,-4.87625 c 0,-0.4804688 -0.1757812,-0.9023438 -0.515625,-1.2070313 C 4.4426641,-6.3879688 3.9856328,-6.5403125 3.3645391,-6.5403125 H 0.70438281 Z M 1.5481328,-3.7160938 v -2.0859375 h 1.6054688 c 0.46875,0 0.7265625,0.058594 0.9492187,0.234375 0.234375,0.1757813 0.3632813,0.4453125 0.3632813,0.8085938 0,0.3515625 -0.1289063,0.6210937 -0.3632813,0.8085937 -0.2226562,0.1640625 -0.4804687,0.234375 -0.9492187,0.234375 z m 0,2.97656255 V -2.9895313 h 2.0273438 c 0.4101562,0 0.6796875,0.1054688 0.8671875,0.3164063 0.1992187,0.2109375 0.3046875,0.4921875 0.3046875,0.8203125 0,0.3046875 -0.1054688,0.5976562 -0.3046875,0.796875 -0.1875,0.22265625 -0.4570313,0.31640625 -0.8671875,0.31640625 z m 9.2255862,0.3046875 c -0.08203,0.0117188 -0.117188,0.0117188 -0.152344,0.0117188 -0.269531,0 -0.410156,-0.12890625 -0.410156,-0.36328125 v -2.7656251 c 0,-0.8320312 -0.6093752,-1.2773437 -1.7695315,-1.2773437 -0.6796875,0 -1.2421875,0.1875 -1.5585937,0.5390625 -0.2109375,0.2460937 -0.3046875,0.515625 -0.3164063,0.984375 h 0.75 c 0.058594,-0.5742188 0.3984375,-0.8320313 1.1015625,-0.8320313 0.6679688,0 1.0546875,0.2460938 1.0546875,0.6914063 v 0.1992187 c 0,0.3164063 -0.1875,0.4453125 -0.7851562,0.515625 -1.0546875,0.140625 -1.21875,0.1757813 -1.5,0.2929688 C 6.637,-2.2160938 6.35575,-1.7942188 6.35575,-1.1848438 c 0,0.8554688 0.5976563,1.3945313 1.546875,1.3945313 0.5859375,0 1.0664063,-0.2109375 1.59375,-0.69140625 0.046875,0.46875 0.28125,0.69140625 0.773438,0.69140625 0.152343,0 0.269531,-0.0234375 0.503906,-0.0820313 z M 9.4729375,-1.4778125 c 0,0.2460937 -0.082031,0.3984375 -0.3046875,0.609375 -0.3046875,0.28125 -0.6679687,0.421875 -1.1132812,0.421875 -0.5742188,0 -0.9140625,-0.28125 -0.9140625,-0.7617188 0,-0.4921875 0.328125,-0.7382812 1.125,-0.8554687 0.7851562,-0.1054688 0.9492187,-0.140625 1.2070312,-0.2578125 z m 3.7675785,-3.2226563 h -0.761719 v -1.2890625 h -0.75 v 1.2890625 h -0.632813 v 0.609375 h 0.632813 v 3.5507813 c 0,0.48046875 0.328125,0.75 0.902344,0.75 0.1875,0 0.363281,-0.0234375 0.609375,-0.0703125 v -0.62109375 c -0.09375,0.0234375 -0.210938,0.0351563 -0.351563,0.0351563 -0.328125,0 -0.410156,-0.09375 -0.410156,-0.421875 V -4.0910938 h 0.761719 z m 4.435546,1.5820313 c -0.03516,-0.4570313 -0.128906,-0.75 -0.304687,-1.0195313 C 17.04325,-4.5715625 16.48075,-4.829375 15.8245,-4.829375 c -1.265625,0 -2.085937,0.9960937 -2.085937,2.5546875 0,1.5234375 0.808593,2.484375 2.074218,2.484375 1.125,0 1.828125,-0.6796875 1.921875,-1.828125 h -0.75 c -0.128906,0.76171875 -0.515625,1.13671875 -1.148437,1.13671875 -0.832031,0 -1.324219,-0.67968755 -1.324219,-1.79296875 0,-1.171875 0.492188,-1.8632813 1.300781,-1.8632813 0.632813,0 1.019531,0.3632813 1.113281,1.0195313 z m 0.899415,-3.421875 V -0.00125 h 0.738281 v -2.5898438 c 0,-0.9609375 0.503906,-1.5820312 1.277344,-1.5820312 0.234375,0 0.480468,0.070312 0.65625,0.2109375 0.222656,0.1523437 0.304687,0.375 0.304687,0.703125 V -0.00125 h 0.75 v -3.5507813 c 0,-0.7851562 -0.5625,-1.2773437 -1.476562,-1.2773437 -0.667969,0 -1.066407,0.1992187 -1.511719,0.7734375 v -2.484375 z m 12.1875,1.921875 c -0.01172,-1.2773438 -0.890625,-2.0273438 -2.390625,-2.0273438 -1.441407,0 -2.320313,0.7382813 -2.320313,1.921875 0,0.796875 0.421875,1.3007813 1.277344,1.5234375 l 1.617187,0.4335938 c 0.832032,0.2109375 1.207032,0.5390625 1.207032,1.0546875 0,0.3515625 -0.1875,0.703125 -0.46875,0.90234375 -0.257813,0.17578125 -0.667969,0.28125 -1.195313,0.28125 -0.714844,0 -1.195312,-0.17578125 -1.511719,-0.55078125 -0.246093,-0.28125 -0.351562,-0.5976563 -0.339843,-0.9960938 H 25.85282 c 0,0.5976563 0.117188,0.984375 0.386719,1.3476563 0.445313,0.609375 1.195313,0.9375 2.191406,0.9375 0.785157,0 1.417969,-0.1875 1.839844,-0.50390625 0.433594,-0.3515625 0.714844,-0.93750005 0.714844,-1.50000005 0,-0.8085937 -0.503906,-1.3945312 -1.394531,-1.640625 l -1.640625,-0.4335937 c -0.785157,-0.2226563 -1.066407,-0.46875 -1.066407,-0.9726563 0,-0.6679687 0.574219,-1.1015625 1.453125,-1.1015625 1.042969,0 1.628907,0.46875 1.640625,1.3242188 z m 1.986328,-0.082031 h -0.75 V -0.00125 h 0.75 z m 0,-1.8398437 h -0.761719 v 0.9492187 h 0.761719 z m 4.614257,1.8398437 h -3.503906 v 0.65625 h 2.613281 l -2.800781,3.37500005 V -0.00125 h 3.820313 V -0.6575 H 34.5745 l 2.789062,-3.375 z m 4.96875,2.6015625 c 0,-0.7148437 -0.04687,-1.1484375 -0.1875,-1.5 -0.304687,-0.7734375 -1.019531,-1.2304687 -1.898437,-1.2304687 -1.300781,0 -2.144531,0.9960937 -2.144531,2.5429687 0,1.54687505 0.808593,2.4960938 2.132812,2.4960938 1.066406,0 1.816406,-0.609375 2.003906,-1.640625 h -0.75 c -0.210937,0.62109375 -0.632812,0.94921875 -1.230468,0.94921875 -0.480469,0 -0.878907,-0.22265625 -1.125,-0.60937505 C 38.945594,-1.3606247 38.887,-1.630156 38.875281,-2.098906 Z m -3.433593,-0.609375 c 0.05859,-0.8671875 0.585937,-1.4296875 1.335937,-1.4296875 0.738281,0 1.300781,0.609375 1.300781,1.3710938 0,0.023437 0,0.035156 0,0.058594 z m 0,0"
       style="fill:#000000;fill-opacity:1;fill-rule:nonzero;stroke:none"
       aria-label="BatchSize"
       transform="matrix(1.3333333,0,0,1.3333333,170.65067,241.12667)" />
    <path
       id="path36"
       d="M 1.4658984,-0.6809375 C 1.3838672,-0.36453125 1.3604297,-0.2825 0.69246094,-0.2825 c -0.17578125,0 -0.26953125,0 -0.26953125,0.1640625 0,0.1171875 0.09375,0.1171875 0.24609375,0.1171875 H 3.9385547 c 1.453125,0 2.5195312,-1.0546875 2.5195312,-1.921875 0,-0.6445313 -0.5273437,-1.1835938 -1.4179687,-1.2773438 1.0195312,-0.1992187 1.8867187,-0.8789062 1.8867187,-1.6757812 0,-0.703125 -0.6445312,-1.2421875 -1.7109375,-1.2421875 H 2.1573047 c -0.1640625,0 -0.2695313,0 -0.2695313,0.1523437 0,0.1171875 0.082031,0.1171875 0.2695313,0.1171875 0.035156,0 0.1875,0 0.3398437,0.023437 0.1523438,0.011719 0.2109375,0.035156 0.2109375,0.1289063 0,0.046875 -0.011719,0.082031 -0.035156,0.1875 z m 1.3945313,-2.625 0.5507812,-2.1914063 c 0.082031,-0.3164062 0.09375,-0.3515625 0.46875,-0.3515625 h 1.21875 c 0.9257813,0 1.0078125,0.7148438 1.0078125,0.9375 0,0.796875 -0.8320312,1.6054688 -1.8515625,1.6054688 z M 2.4268359,-0.2825 c -0.1171875,0 -0.140625,0 -0.1757812,0 -0.09375,-0.0117188 -0.1171875,-0.0234375 -0.1171875,-0.0820313 0,-0.0351563 0,-0.046875 0.046875,-0.2109375 l 0.6210937,-2.4960937 h 1.6757813 c 0.5625,0 1.125,0.234375 1.125,1.0546875 0,0.890625 -0.8085938,1.734375 -1.8867188,1.734375 z m 0,0"
       style="fill:#000000;fill-opacity:1;fill-rule:nonzero;stroke:none"
       aria-label="B"
       transform="matrix(1.3333333,0,0,1.3333333,230.94,241.12667)" />
    <path
       id="path37"
       d="m 2.1202813,-6.5403125 c -0.9023438,1.1835937 -1.4648438,2.8125 -1.4648438,4.21875 0,1.41796875 0.5625,3.046875 1.4648438,4.21875 H 2.6124688 C 1.8155938,0.61984375 1.382,-0.891875 1.382,-2.3215625 c 0,-1.4296875 0.4335938,-2.9414063 1.2304688,-4.21875 z m 2.2236328,0 h -0.75 V -0.00125 h 0.75 z m 3.0703125,1.7109375 c -1.3125,0 -2.109375,0.9375 -2.109375,2.5195312 0,1.57031255 0.7851562,2.5195313 2.1210937,2.5195313 1.3125,0 2.1210938,-0.94921875 2.1210938,-2.484375 0,-1.6289063 -0.7734375,-2.5546875 -2.1328125,-2.5546875 z m 0.011719,0.6914062 c 0.84375,0 1.3476563,0.6796875 1.3476563,1.8515625 0,1.1015625 -0.5273438,1.80468755 -1.3476563,1.80468755 -0.8320312,0 -1.3476562,-0.69140625 -1.3476562,-1.82812505 0,-1.1367187 0.515625,-1.828125 1.3476562,-1.828125 z m 6.2285154,-0.5625 v 0.6796875 c -0.375,-0.5507812 -0.832031,-0.8085937 -1.429688,-0.8085937 -1.195312,0 -2.003906,1.03125 -2.003906,2.5546875 0,0.7734375 0.210938,1.40625 0.597656,1.8515625 0.351563,0.3984375 0.84375,0.6328125 1.335938,0.6328125 0.597656,0 1.007812,-0.2578125 1.429687,-0.84375 v 0.234375 c 0,0.64453125 -0.08203,1.03125 -0.269531,1.2890625 -0.199219,0.2695312 -0.585937,0.4335937 -1.042969,0.4335937 -0.339843,0 -0.644531,-0.082031 -0.84375,-0.2460937 C 11.252117,0.93625 11.181805,0.8190625 11.13493,0.5378125 h -0.761719 c 0.08203,0.890625 0.773437,1.4179687 1.875,1.4179687 0.703125,0 1.300781,-0.2226562 1.605469,-0.5976562 0.363281,-0.43359375 0.492187,-1.03125 0.492187,-2.1328125 v -3.9257813 z m -1.347656,0.5625 c 0.808593,0 1.277343,0.6796875 1.277343,1.8515625 0,1.125 -0.480468,1.80468755 -1.277343,1.80468755 -0.808594,0 -1.300782,-0.69140625 -1.300782,-1.82812505 0,-1.1367187 0.503907,-1.828125 1.300782,-1.828125 z m 9.049804,0.75 C 21.344891,-4.31375 20.735516,-4.829375 19.657391,-4.829375 c -1.101563,0 -1.804688,0.5625 -1.804688,1.4296875 0,0.7382812 0.375,1.0898437 1.488281,1.359375 l 0.703125,0.1640625 c 0.515625,0.1289062 0.726563,0.3164062 0.726563,0.65625 0,0.43359375 -0.445313,0.73828125 -1.101563,0.73828125 -0.398437,0 -0.738281,-0.1171875 -0.925781,-0.31640625 -0.117187,-0.140625 -0.175781,-0.2695313 -0.222656,-0.5976563 h -0.785156 c 0.03516,1.07812505 0.644531,1.6054688 1.875,1.6054688 1.183593,0 1.933593,-0.5859375 1.933593,-1.4882813 0,-0.703125 -0.398437,-1.0898437 -1.324218,-1.3125 L 19.505047,-2.766875 c -0.609375,-0.140625 -0.867188,-0.3398438 -0.867188,-0.6679688 0,-0.4335937 0.375,-0.703125 0.984375,-0.703125 0.609375,0 0.925782,0.2578125 0.949219,0.75 z M 26.132,-3.1184375 c -0.03516,-0.4570313 -0.128906,-0.75 -0.304687,-1.0195313 -0.328125,-0.4335937 -0.890625,-0.6914062 -1.546875,-0.6914062 -1.265625,0 -2.085938,0.9960937 -2.085938,2.5546875 0,1.5234375 0.808594,2.484375 2.074219,2.484375 1.125,0 1.828125,-0.6796875 1.921875,-1.828125 h -0.75 c -0.128906,0.76171875 -0.515625,1.13671875 -1.148438,1.13671875 -0.832031,0 -1.324218,-0.67968755 -1.324218,-1.79296875 0,-1.171875 0.492187,-1.8632813 1.300781,-1.8632813 0.632812,0 1.019531,0.3632813 1.113281,1.0195313 z m 5.056641,2.68359375 c -0.08203,0.0117188 -0.117188,0.0117188 -0.152344,0.0117188 -0.269531,0 -0.410156,-0.12890625 -0.410156,-0.36328125 v -2.7656251 c 0,-0.8320312 -0.609375,-1.2773437 -1.769532,-1.2773437 -0.679687,0 -1.242187,0.1875 -1.558593,0.5390625 -0.210938,0.2460937 -0.304688,0.515625 -0.316407,0.984375 h 0.75 c 0.05859,-0.5742188 0.398438,-0.8320313 1.101563,-0.8320313 0.667969,0 1.054687,0.2460938 1.054687,0.6914063 v 0.1992187 c 0,0.3164063 -0.1875,0.4453125 -0.785156,0.515625 -1.054687,0.140625 -1.21875,0.1757813 -1.5,0.2929688 -0.550781,0.2226562 -0.832031,0.6445312 -0.832031,1.2539062 0,0.8554688 0.597656,1.3945313 1.546875,1.3945313 0.585937,0 1.066406,-0.2109375 1.59375,-0.69140625 0.04687,0.46875 0.28125,0.69140625 0.773437,0.69140625 0.152344,0 0.269532,-0.0234375 0.503907,-0.0820313 z M 29.887859,-1.4778125 c 0,0.2460937 -0.08203,0.3984375 -0.304687,0.609375 -0.304688,0.28125 -0.667969,0.421875 -1.113281,0.421875 -0.574219,0 -0.914063,-0.28125 -0.914063,-0.7617188 0,-0.4921875 0.328125,-0.7382812 1.125,-0.8554687 0.785156,-0.1054688 0.949219,-0.140625 1.207031,-0.2578125 z m 2.853516,-5.0625 h -0.75 V -0.00125 h 0.75 z m 5.226563,4.4414062 c 0,-0.7148437 -0.04687,-1.1484375 -0.1875,-1.5 C 37.47575,-4.3723438 36.760906,-4.829375 35.882,-4.829375 c -1.300781,0 -2.144531,0.9960937 -2.144531,2.5429687 0,1.54687505 0.808594,2.4960938 2.132812,2.4960938 1.066407,0 1.816407,-0.609375 2.003907,-1.640625 h -0.75 c -0.210938,0.62109375 -0.632813,0.94921875 -1.230469,0.94921875 -0.480469,0 -0.878906,-0.22265625 -1.125,-0.60937505 -0.1875,-0.2695312 -0.246094,-0.5390625 -0.257813,-1.0078125 z m -3.433594,-0.609375 c 0.05859,-0.8671875 0.585937,-1.4296875 1.335937,-1.4296875 0.738282,0 1.300782,0.609375 1.300782,1.3710938 0,0.023437 0,0.035156 0,0.058594 z m 4.655273,4.6054688 c 0.902344,-1.171875 1.464844,-2.80078125 1.464844,-4.2070313 0,-1.4179687 -0.5625,-3.046875 -1.464844,-4.2304687 H 38.69743 c 0.785156,1.2890625 1.230468,2.7890625 1.230468,4.2304687 0,1.4179688 -0.445312,2.9414063 -1.230468,4.2070313 z m 0,0"
       style="fill:#000000;fill-opacity:1;fill-rule:nonzero;stroke:none"
       aria-label="(logscale)"
       transform="matrix(1.3333333,0,0,1.3333333,244.15733,241.12667)" />
    <path
       id="path38"
       d="m 5.3446094,-4.618125 c -0.011719,-1.2773437 -0.890625,-2.0273437 -2.390625,-2.0273437 -1.4414063,0 -2.32031252,0.7382812 -2.32031252,1.921875 0,0.796875 0.42187502,1.3007812 1.27734372,1.5234375 l 1.6171875,0.4335937 c 0.8320313,0.2109375 1.2070313,0.5390625 1.2070313,1.0546875 0,0.3515625 -0.1875,0.703125 -0.46875,0.90234375 -0.2578125,0.17578125 -0.6679688,0.28125 -1.1953125,0.28125 -0.7148438,0 -1.1953125,-0.17578125 -1.5117188,-0.55078125 -0.2460937,-0.28125 -0.3515625,-0.5976562 -0.3398437,-0.9960937 H 0.43445313 c 0,0.5976562 0.1171875,0.984375 0.38671875,1.3476562 C 1.2664844,-0.118125 2.0164844,0.21 3.0125781,0.21 c 0.7851563,0 1.4179688,-0.1875 1.8398438,-0.50390625 0.4335937,-0.3515625 0.7148437,-0.93749995 0.7148437,-1.49999995 0,-0.8085938 -0.5039062,-1.3945313 -1.3945312,-1.640625 L 2.5321094,-3.868125 c -0.7851563,-0.2226562 -1.0664063,-0.46875 -1.0664063,-0.9726562 0,-0.6679688 0.5742188,-1.1015625 1.453125,-1.1015625 1.0429688,0 1.6289063,0.46875 1.640625,1.3242187 z m 5.4287106,4.18359375 c -0.08203,0.0117188 -0.117187,0.0117188 -0.152343,0.0117188 -0.269532,0 -0.410157,-0.12890625 -0.410157,-0.36328125 v -2.765625 c 0,-0.8320313 -0.6093747,-1.2773438 -1.7695309,-1.2773438 -0.6796875,0 -1.2421875,0.1875 -1.5585938,0.5390625 -0.2109375,0.2460938 -0.3046875,0.515625 -0.3164062,0.984375 h 0.75 c 0.058594,-0.5742187 0.3984375,-0.8320312 1.1015625,-0.8320312 0.6679687,0 1.0546875,0.2460937 1.0546875,0.6914062 v 0.1992188 c 0,0.3164062 -0.1875,0.4453125 -0.7851563,0.515625 -1.0546875,0.140625 -1.21875,0.1757812 -1.5,0.2929687 -0.5507812,0.2226563 -0.8320312,0.6445313 -0.8320312,1.2539063 0,0.8554687 0.5976562,1.3945312 1.546875,1.3945312 0.5859375,0 1.0664062,-0.2109375 1.59375,-0.69140625 C 9.5428516,-0.01265625 9.7772266,0.21 10.269414,0.21 c 0.152344,0 0.269531,-0.0234375 0.503906,-0.0820313 z M 9.4725391,-1.4775 c 0,0.2460938 -0.082031,0.3984375 -0.3046875,0.609375 -0.3046875,0.28125 -0.6679688,0.421875 -1.1132813,0.421875 -0.5742187,0 -0.9140625,-0.28125 -0.9140625,-0.7617187 0,-0.4921875 0.328125,-0.7382813 1.125,-0.8554688 0.7851563,-0.1054687 0.9492188,-0.140625 1.2070313,-0.2578125 z m 2.1269529,-3.2226562 v 4.6992187 h 0.75 v -2.953125 c 0,-0.6796875 0.492188,-1.21875 1.101563,-1.21875 0.550781,0 0.867187,0.3398438 0.867187,0.9375 v 3.234375 h 0.75 v -2.953125 c 0,-0.6796875 0.492188,-1.21875 1.101563,-1.21875 0.550781,0 0.878906,0.3398438 0.878906,0.9375 v 3.234375 h 0.75 v -3.5273437 c 0,-0.84375 -0.480469,-1.3007813 -1.359375,-1.3007813 -0.632813,0 -1.007813,0.1875 -1.453125,0.7148438 -0.269531,-0.5039063 -0.644531,-0.7148438 -1.253906,-0.7148438 -0.632813,0 -1.042969,0.234375 -1.453125,0.796875 v -0.6679687 z m 7.31543,6.65625 h 0.761719 V -0.493125 C 20.063359,-0.01265625 20.508672,0.21 21.118047,0.21 c 1.207031,0 2.003906,-0.984375 2.003906,-2.484375 0,-1.5703125 -0.773437,-2.5546875 -2.015625,-2.5546875 -0.632812,0 -1.148437,0.28125 -1.5,0.84375 v -0.7148437 h -0.691406 z m 2.0625,-6.09375 c 0.832031,0 1.371094,0.7265625 1.371094,1.8515625 0,1.0664062 -0.550782,1.7929687 -1.371094,1.7929687 -0.785156,0 -1.300781,-0.7148437 -1.300781,-1.8164062 0,-1.1015625 0.515625,-1.828125 1.300781,-1.828125 z M 24.780156,-6.54 h -0.75 v 6.5390625 h 0.75 z m 5.223633,4.4414063 c 0,-0.7148438 -0.04687,-1.1484375 -0.1875,-1.5 -0.304687,-0.7734375 -1.019531,-1.2304688 -1.898437,-1.2304688 -1.300782,0 -2.144532,0.9960938 -2.144532,2.5429688 0,1.54687495 0.808594,2.4960937 2.132813,2.4960937 1.066406,0 1.816406,-0.609375 2.003906,-1.640625 h -0.75 c -0.210937,0.62109375 -0.632812,0.94921875 -1.230469,0.94921875 -0.480468,0 -0.878906,-0.22265625 -1.125,-0.60937495 -0.1875,-0.2695313 -0.246093,-0.5390625 -0.257812,-1.0078125 z m -3.433594,-0.609375 c 0.05859,-0.8671875 0.585938,-1.4296875 1.335938,-1.4296875 0.738281,0 1.300781,0.609375 1.300781,1.3710937 0,0.023437 0,0.035156 0,0.058594 z M 34.530156,-2.9775 h 3.5625 v -0.7382812 h -3.5625 v -2.0859375 h 3.691407 V -6.54 h -4.523438 v 6.5390625 h 4.6875 v -0.73828125 h -3.855469 z m 6.647461,-1.7226562 H 40.40418 v -0.7382813 c 0,-0.3046875 0.175781,-0.46875 0.515625,-0.46875 0.07031,0 0.09375,0 0.257812,0.011719 v -0.6210938 c -0.164062,-0.035156 -0.269531,-0.046875 -0.421875,-0.046875 -0.679687,0 -1.101562,0.3984375 -1.101562,1.0664063 v 0.796875 h -0.621094 v 0.609375 h 0.621094 v 4.0898437 h 0.75 V -4.090781 h 0.773437 z m 2.446289,0 H 42.83875 v -0.7382813 c 0,-0.3046875 0.1875,-0.46875 0.527344,-0.46875 0.05859,0 0.08203,0 0.257812,0.011719 v -0.6210938 c -0.175781,-0.035156 -0.269531,-0.046875 -0.421875,-0.046875 -0.691406,0 -1.101562,0.3984375 -1.101562,1.0664063 v 0.796875 h -0.632813 v 0.609375 h 0.632813 V -9.373e-4 H 42.83875 V -4.090781 h 0.785156 z m 1.652344,0 h -0.75 v 4.6992187 h 0.75 z m 0,-1.8398438 h -0.75 v 0.9492188 h 0.75 z m 4.787109,3.421875 c -0.03516,-0.4570312 -0.128906,-0.75 -0.304687,-1.0195312 -0.328125,-0.4335938 -0.890625,-0.6914063 -1.546875,-0.6914063 -1.265625,0 -2.085938,0.9960938 -2.085938,2.5546875 0,1.5234375 0.808594,2.484375 2.074219,2.484375 1.125,0 1.828125,-0.6796875 1.921875,-1.828125 h -0.75 c -0.128906,0.76171875 -0.515625,1.13671875 -1.148437,1.13671875 -0.832032,0 -1.324219,-0.67968745 -1.324219,-1.79296875 0,-1.171875 0.492187,-1.8632812 1.300781,-1.8632812 0.632813,0 1.019531,0.3632812 1.113281,1.0195312 z m 1.611329,-1.5820312 h -0.75 v 4.6992187 h 0.75 z m 0,-1.8398438 h -0.761719 v 0.9492188 h 0.761719 z m 5.238281,4.4414063 c 0,-0.7148438 -0.04687,-1.1484375 -0.1875,-1.5 -0.304688,-0.7734375 -1.019531,-1.2304688 -1.898438,-1.2304688 -1.300781,0 -2.144531,0.9960938 -2.144531,2.5429688 0,1.54687495 0.808594,2.4960937 2.132813,2.4960937 1.066406,0 1.816406,-0.609375 2.003906,-1.640625 h -0.75 c -0.210938,0.62109375 -0.632813,0.94921875 -1.230469,0.94921875 -0.480469,0 -0.878906,-0.22265625 -1.125,-0.60937495 -0.1875,-0.2695313 -0.246094,-0.5390625 -0.257812,-1.0078125 z m -3.433594,-0.609375 c 0.05859,-0.8671875 0.585938,-1.4296875 1.335938,-1.4296875 0.738281,0 1.300781,0.609375 1.300781,1.3710937 0,0.023437 0,0.035156 0,0.058594 z m 4.458984,-1.9921875 v 4.6992187 h 0.75 v -2.5898437 c 0,-0.9609375 0.503907,-1.5820313 1.265625,-1.5820313 0.597657,0 0.972657,0.3515625 0.972657,0.9140625 v 3.2578125 h 0.75 v -3.5507812 c 0,-0.7734375 -0.585938,-1.2773438 -1.488282,-1.2773438 -0.703125,0 -1.148437,0.2695313 -1.570312,0.9140625 v -0.7851562 z m 8.569336,1.5820312 c -0.03516,-0.4570312 -0.128906,-0.75 -0.304687,-1.0195312 -0.328125,-0.4335938 -0.890625,-0.6914063 -1.546875,-0.6914063 -1.265625,0 -2.085938,0.9960938 -2.085938,2.5546875 0,1.5234375 0.808594,2.484375 2.074219,2.484375 1.125,0 1.828125,-0.6796875 1.921875,-1.828125 h -0.75 c -0.128906,0.76171875 -0.515625,1.13671875 -1.148437,1.13671875 -0.832032,0 -1.324219,-0.67968745 -1.324219,-1.79296875 0,-1.171875 0.492187,-1.8632812 1.300781,-1.8632812 0.632813,0 1.019531,0.3632812 1.113281,1.0195312 z m 3.744141,-1.5820312 -1.300781,3.65625 -1.207032,-3.65625 H 66.947148 L 68.540898,0.0225 68.24793,0.76078125 C 68.130742,1.0889063 67.96668,1.2178125 67.650273,1.2178125 c -0.105468,0 -0.234375,-0.011719 -0.398437,-0.058594 V 1.838906 c 0.152344,0.082031 0.304687,0.1171875 0.503906,0.1171875 0.246094,0 0.503906,-0.082031 0.703125,-0.2226563 0.234375,-0.1757812 0.363281,-0.375 0.503906,-0.75 L 71.06043,-4.7001562 Z M 75.859258,-6.54 c -0.902344,1.1835938 -1.464844,2.8125 -1.464844,4.21875 0,1.41796875 0.5625,3.046875 1.464844,4.21875 h 0.492187 c -0.796875,-1.27734375 -1.230468,-2.7890625 -1.230468,-4.21875 0,-1.4296875 0.433593,-2.9414062 1.230468,-4.21875 z m 4.792969,3.1523438 c -0.01172,-0.9257813 -0.621094,-1.4414063 -1.699219,-1.4414063 -1.101563,0 -1.804688,0.5625 -1.804688,1.4296875 0,0.7382813 0.375,1.0898438 1.488282,1.359375 l 0.703125,0.1640625 c 0.515625,0.1289063 0.726562,0.3164063 0.726562,0.65625 0,0.43359375 -0.445312,0.73828125 -1.101562,0.73828125 -0.398438,0 -0.738282,-0.1171875 -0.925782,-0.31640625 -0.117187,-0.140625 -0.175781,-0.2695312 -0.222656,-0.5976562 h -0.785156 c 0.03516,1.07812495 0.644531,1.6054687 1.875,1.6054687 1.183594,0 1.933594,-0.5859375 1.933594,-1.4882812 0,-0.703125 -0.398438,-1.0898438 -1.324219,-1.3125 l -0.714844,-0.1757813 c -0.609375,-0.140625 -0.867187,-0.3398437 -0.867187,-0.6679687 0,-0.4335938 0.375,-0.703125 0.984375,-0.703125 0.609375,0 0.925781,0.2578125 0.949218,0.75 z m 5.349609,2.95312495 c -0.08203,0.0117188 -0.117188,0.0117188 -0.152344,0.0117188 -0.269531,0 -0.410156,-0.12890625 -0.410156,-0.36328125 v -2.765625 c 0,-0.8320313 -0.609375,-1.2773438 -1.769531,-1.2773438 -0.679688,0 -1.242188,0.1875 -1.558594,0.5390625 -0.210938,0.2460938 -0.304688,0.515625 -0.316406,0.984375 h 0.75 c 0.05859,-0.5742187 0.398437,-0.8320312 1.101562,-0.8320312 0.667969,0 1.054688,0.2460937 1.054688,0.6914062 v 0.1992188 c 0,0.3164062 -0.1875,0.4453125 -0.785157,0.515625 -1.054687,0.140625 -1.21875,0.1757812 -1.5,0.2929687 -0.550781,0.2226563 -0.832031,0.6445313 -0.832031,1.2539063 0,0.8554687 0.597656,1.3945312 1.546875,1.3945312 0.585938,0 1.066406,-0.2109375 1.59375,-0.69140625 0.04687,0.46875 0.28125,0.69140625 0.773438,0.69140625 0.152343,0 0.269531,-0.0234375 0.503906,-0.0820313 z M 84.701055,-1.4775 c 0,0.2460938 -0.08203,0.3984375 -0.304688,0.609375 -0.304687,0.28125 -0.667969,0.421875 -1.113281,0.421875 -0.574219,0 -0.914063,-0.28125 -0.914063,-0.7617187 0,-0.4921875 0.328125,-0.7382813 1.125,-0.8554688 0.785157,-0.1054687 0.949219,-0.140625 1.207032,-0.2578125 z m 2.126953,-3.2226562 v 4.6992187 h 0.75 v -2.953125 c 0,-0.6796875 0.492187,-1.21875 1.101562,-1.21875 0.550782,0 0.867188,0.3398438 0.867188,0.9375 v 3.234375 h 0.75 v -2.953125 c 0,-0.6796875 0.492187,-1.21875 1.101562,-1.21875 0.550782,0 0.878907,0.3398438 0.878907,0.9375 v 3.234375 h 0.75 v -3.5273437 c 0,-0.84375 -0.480469,-1.3007813 -1.359375,-1.3007813 -0.632813,0 -1.007813,0.1875 -1.453125,0.7148438 -0.269532,-0.5039063 -0.644532,-0.7148438 -1.253907,-0.7148438 -0.632812,0 -1.042968,0.234375 -1.453125,0.796875 v -0.6679687 z m 7.31543,6.65625 h 0.761718 V -0.493125 C 95.291875,-0.01265625 95.737188,0.21 96.346563,0.21 c 1.207031,0 2.003906,-0.984375 2.003906,-2.484375 0,-1.5703125 -0.773438,-2.5546875 -2.015625,-2.5546875 -0.632813,0 -1.148438,0.28125 -1.5,0.84375 v -0.7148437 h -0.691406 z m 2.0625,-6.09375 c 0.832031,0 1.371093,0.7265625 1.371093,1.8515625 0,1.0664062 -0.550781,1.7929687 -1.371093,1.7929687 -0.785157,0 -1.300782,-0.7148437 -1.300782,-1.8164062 0,-1.1015625 0.515625,-1.828125 1.300782,-1.828125 z M 100.00867,-6.54 h -0.749998 v 6.5390625 h 0.749998 z m 5.22363,4.4414063 c 0,-0.7148438 -0.0469,-1.1484375 -0.1875,-1.5 -0.30468,-0.7734375 -1.01953,-1.2304688 -1.89843,-1.2304688 -1.30078,0 -2.14453,0.9960938 -2.14453,2.5429688 0,1.54687495 0.80859,2.4960937 2.13281,2.4960937 1.0664,0 1.8164,-0.609375 2.0039,-1.640625 h -0.75 c -0.21093,0.62109375 -0.63281,0.94921875 -1.23046,0.94921875 -0.48047,0 -0.87891,-0.22265625 -1.125,-0.60937495 -0.1875,-0.2695313 -0.2461,-0.5390625 -0.25782,-1.0078125 z m -3.43359,-0.609375 c 0.0586,-0.8671875 0.58594,-1.4296875 1.33594,-1.4296875 0.73828,0 1.30078,0.609375 1.30078,1.3710937 0,0.023437 0,0.035156 0,0.058594 z m 7.75195,-0.6796875 c -0.0117,-0.9257813 -0.62109,-1.4414063 -1.69921,-1.4414063 -1.10157,0 -1.80469,0.5625 -1.80469,1.4296875 0,0.7382813 0.375,1.0898438 1.48828,1.359375 l 0.70312,0.1640625 c 0.51563,0.1289063 0.72657,0.3164063 0.72657,0.65625 0,0.43359375 -0.44532,0.73828125 -1.10157,0.73828125 -0.39843,0 -0.73828,-0.1171875 -0.92578,-0.31640625 -0.11718,-0.140625 -0.17578,-0.2695312 -0.22265,-0.5976562 h -0.78516 c 0.0352,1.07812495 0.64453,1.6054687 1.875,1.6054687 1.18359,0 1.93359,-0.5859375 1.93359,-1.4882812 0,-0.703125 -0.39843,-1.0898438 -1.32421,-1.3125 l -0.71485,-0.1757813 c -0.60937,-0.140625 -0.86719,-0.3398437 -0.86719,-0.6679687 0,-0.4335938 0.375,-0.703125 0.98438,-0.703125 0.60937,0 0.92578,0.2578125 0.94922,0.75 z m 5.32325,-1.3125 h -0.76172 v -1.2890625 h -0.75 v 1.2890625 h -0.63281 v 0.609375 h 0.63281 V -0.54 c 0,0.48046875 0.32812,0.75 0.90234,0.75 0.1875,0 0.36328,-0.0234375 0.60938,-0.0703125 v -0.62109375 c -0.0937,0.0234375 -0.21094,0.0351563 -0.35157,0.0351563 -0.32812,0 -0.41015,-0.09375 -0.41015,-0.421875 V -4.0907811 h 0.76172 z m 2.65722,-0.1289063 c -1.3125,0 -2.10937,0.9375 -2.10937,2.5195313 0,1.57031245 0.78515,2.5195312 2.12109,2.5195312 1.3125,0 2.1211,-0.94921875 2.1211,-2.484375 0,-1.6289062 -0.77344,-2.5546875 -2.13282,-2.5546875 z m 0.0117,0.6914063 c 0.84375,0 1.34766,0.6796875 1.34766,1.8515625 0,1.1015625 -0.52735,1.80468745 -1.34766,1.80468745 -0.83203,0 -1.34765,-0.69140625 -1.34765,-1.82812495 0,-1.1367188 0.51562,-1.828125 1.34765,-1.828125 z m 7.30078,-0.5625 h -0.76172 v -1.2890625 h -0.75 v 1.2890625 h -0.63281 v 0.609375 h 0.63281 V -0.54 c 0,0.48046875 0.32813,0.75 0.90235,0.75 0.1875,0 0.36328,-0.0234375 0.60937,-0.0703125 v -0.62109375 c -0.0937,0.0234375 -0.21093,0.0351563 -0.35156,0.0351563 -0.32812,0 -0.41016,-0.09375 -0.41016,-0.421875 V -4.0907811 h 0.76172 z m 5.0127,4.26562495 c -0.082,0.0117188 -0.11719,0.0117188 -0.15235,0.0117188 -0.26953,0 -0.41015,-0.12890625 -0.41015,-0.36328125 v -2.765625 c 0,-0.8320313 -0.60938,-1.2773438 -1.76953,-1.2773438 -0.67969,0 -1.24219,0.1875 -1.5586,0.5390625 -0.21093,0.2460938 -0.30468,0.515625 -0.3164,0.984375 h 0.75 c 0.0586,-0.5742187 0.39843,-0.8320312 1.10156,-0.8320312 0.66797,0 1.05469,0.2460937 1.05469,0.6914062 v 0.1992188 c 0,0.3164062 -0.1875,0.4453125 -0.78516,0.515625 -1.05469,0.140625 -1.21875,0.1757812 -1.5,0.2929687 -0.55078,0.2226563 -0.83203,0.6445313 -0.83203,1.2539063 0,0.8554687 0.59766,1.3945312 1.54687,1.3945312 0.58594,0 1.06641,-0.2109375 1.59375,-0.69140625 0.0469,0.46875 0.28125,0.69140625 0.77344,0.69140625 0.15235,0 0.26953,-0.0234375 0.50391,-0.0820313 z M 128.55555,-1.4775 c 0,0.2460938 -0.082,0.3984375 -0.30469,0.609375 -0.30469,0.28125 -0.66797,0.421875 -1.11328,0.421875 -0.57422,0 -0.91406,-0.28125 -0.91406,-0.7617187 0,-0.4921875 0.32812,-0.7382813 1.125,-0.8554688 0.78515,-0.1054687 0.94921,-0.140625 1.20703,-0.2578125 z m 2.11523,-3.2226562 v 4.6992187 h 0.75 v -2.4375 c 0,-0.6679687 0.17578,-1.1132812 0.52734,-1.3710937 0.23438,-0.1757813 0.45704,-0.2226563 0.98438,-0.234375 V -4.805625 c -0.12891,-0.023437 -0.19922,-0.023437 -0.29297,-0.023437 -0.48047,0 -0.85547,0.28125 -1.27734,0.984375 v -0.8554687 z m 6.05567,0 v 0.6796875 c -0.375,-0.5507813 -0.83204,-0.8085938 -1.42969,-0.8085938 -1.19531,0 -2.00391,1.03125 -2.00391,2.5546875 0,0.7734375 0.21094,1.40625 0.59766,1.8515625 0.35156,0.3984375 0.84375,0.6328125 1.33594,0.6328125 0.59765,0 1.00781,-0.2578125 1.42968,-0.84375 v 0.234375 c 0,0.64453125 -0.082,1.03125 -0.26953,1.2890625 -0.19922,0.2695313 -0.58594,0.4335938 -1.04297,0.4335938 -0.33984,0 -0.64453,-0.082031 -0.84375,-0.2460938 -0.17578,-0.140625 -0.24609,-0.2578125 -0.29297,-0.5390625 h -0.76171 c 0.082,0.890625 0.77343,1.4179688 1.875,1.4179688 0.70312,0 1.30078,-0.2226563 1.60546,-0.5976563 0.36329,-0.43359375 0.49219,-1.03125 0.49219,-2.1328125 v -3.9257812 z m -1.34766,0.5625 c 0.80859,0 1.27734,0.6796875 1.27734,1.8515625 0,1.125 -0.48047,1.80468745 -1.27734,1.80468745 -0.80859,0 -1.30078,-0.69140625 -1.30078,-1.82812495 0,-1.1367188 0.5039,-1.828125 1.30078,-1.828125 z m 7.2334,2.0390625 c 0,-0.7148438 -0.0469,-1.1484375 -0.1875,-1.5 -0.30469,-0.7734375 -1.01953,-1.2304688 -1.89844,-1.2304688 -1.30078,0 -2.14453,0.9960938 -2.14453,2.5429688 0,1.54687495 0.80859,2.4960937 2.13281,2.4960937 1.06641,0 1.81641,-0.609375 2.00391,-1.640625 h -0.75 c -0.21094,0.62109375 -0.63282,0.94921875 -1.23047,0.94921875 -0.48047,0 -0.87891,-0.22265625 -1.125,-0.60937495 -0.1875,-0.2695313 -0.2461,-0.5390625 -0.25781,-1.0078125 z m -3.4336,-0.609375 c 0.0586,-0.8671875 0.58594,-1.4296875 1.33594,-1.4296875 0.73828,0 1.30078,0.609375 1.30078,1.3710937 0,0.023437 0,0.035156 0,0.058594 z m 6.09961,-1.9921875 h -0.76172 v -1.2890625 h -0.75 v 1.2890625 h -0.63281 v 0.609375 h 0.63281 V -0.54 c 0,0.48046875 0.32813,0.75 0.90235,0.75 0.1875,0 0.36328,-0.0234375 0.60937,-0.0703125 v -0.62109375 c -0.0937,0.0234375 -0.21093,0.0351563 -0.35156,0.0351563 -0.32812,0 -0.41016,-0.09375 -0.41016,-0.421875 V -4.0907811 h 0.76172 z M 149.35047,-6.54 h -0.75 v 6.5390625 h 0.75 z m 3.06738,1.7109375 c -1.3125,0 -2.10937,0.9375 -2.10937,2.5195313 0,1.57031245 0.78515,2.5195312 2.12109,2.5195312 1.3125,0 2.12109,-0.94921875 2.12109,-2.484375 0,-1.6289062 -0.77343,-2.5546875 -2.13281,-2.5546875 z m 0.0117,0.6914063 c 0.84375,0 1.34766,0.6796875 1.34766,1.8515625 0,1.1015625 -0.52735,1.80468745 -1.34766,1.80468745 -0.83203,0 -1.34766,-0.69140625 -1.34766,-1.82812495 0,-1.1367188 0.51563,-1.828125 1.34766,-1.828125 z m 6.46289,0.75 c -0.0117,-0.9257813 -0.62109,-1.4414063 -1.69922,-1.4414063 -1.10156,0 -1.80469,0.5625 -1.80469,1.4296875 0,0.7382813 0.375,1.0898438 1.48829,1.359375 l 0.70312,0.1640625 c 0.51563,0.1289063 0.72656,0.3164063 0.72656,0.65625 0,0.43359375 -0.44531,0.73828125 -1.10156,0.73828125 -0.39844,0 -0.73828,-0.1171875 -0.92578,-0.31640625 -0.11719,-0.140625 -0.17578,-0.2695312 -0.22266,-0.5976562 h -0.78515 c 0.0352,1.07812495 0.64453,1.6054687 1.875,1.6054687 1.18359,0 1.93359,-0.5859375 1.93359,-1.4882812 0,-0.703125 -0.39844,-1.0898438 -1.32422,-1.3125 l -0.71484,-0.1757813 c -0.60938,-0.140625 -0.86719,-0.3398437 -0.86719,-0.6679687 0,-0.4335938 0.375,-0.703125 0.98438,-0.703125 0.60937,0 0.92578,0.2578125 0.94921,0.75 z m 4.48242,0 c -0.0117,-0.9257813 -0.62109,-1.4414063 -1.69922,-1.4414063 -1.10156,0 -1.80468,0.5625 -1.80468,1.4296875 0,0.7382813 0.375,1.0898438 1.48828,1.359375 l 0.70312,0.1640625 c 0.51563,0.1289063 0.72657,0.3164063 0.72657,0.65625 0,0.43359375 -0.44532,0.73828125 -1.10157,0.73828125 -0.39843,0 -0.73828,-0.1171875 -0.92578,-0.31640625 -0.11719,-0.140625 -0.17578,-0.2695312 -0.22265,-0.5976562 h -0.78516 c 0.0352,1.07812495 0.64453,1.6054687 1.875,1.6054687 1.18359,0 1.93359,-0.5859375 1.93359,-1.4882812 0,-0.703125 -0.39843,-1.0898438 -1.32422,-1.3125 l -0.71484,-0.1757813 c -0.60937,-0.140625 -0.86719,-0.3398437 -0.86719,-0.6679687 0,-0.4335938 0.375,-0.703125 0.98438,-0.703125 0.60937,0 0.92578,0.2578125 0.94922,0.75 z M 164.76355,1.8975 c 0.90235,-1.171875 1.46485,-2.80078125 1.46485,-4.2070312 0,-1.4179688 -0.5625,-3.046875 -1.46485,-4.2304688 h -0.49218 c 0.78515,1.2890625 1.23047,2.7890625 1.23047,4.2304688 0,1.4179687 -0.44532,2.9414062 -1.23047,4.2070312 z m 0,0"
       style="fill:#000000;fill-opacity:1;fill-rule:nonzero;stroke:none"
       aria-label="SampleEffciency(samplestotargetloss)"
       transform="matrix(0,-1.3333333,1.3333333,0,13.22,226.99333)" />
  </g>
</svg>
