<?xml version="1.0" encoding="UTF-8" standalone="no"?>
<!-- Created with Inkscape (http://www.inkscape.org/) -->

<svg
   version="1.1"
   id="svg1"
   width="500.10001"
   height="147.60667"
   viewBox="0 0 500.10001 147.60667"
   xmlns="http://www.w3.org/2000/svg"
   xmlns:svg="http://www.w3.org/2000/svg">
  <defs
     id="defs1" />
  <g
     id="g1">
    <path
       id="path1"
       d="M -38.64178,-49.31044 H 110.25618 V 60.64914 H -38.64178 Z"
       style="fill:#ffffe5;fill-opacity:1;fill-rule:nonzero;stroke:#b5b548;stroke-width:0.74721;stroke-linecap:butt;stroke-linejoin:miter;stroke-miterlimit:10;stroke-dasharray:none;stroke-opacity:1"
       transform="matrix(1.3333333,0,0,-1.3333333,52.02,81.362667)" />
    <path
       id="path2"
       d="m 158.44576,-49.31044 h 77.28357 V 60.64914 h -77.28357 z"
       style="fill:#ffffe5;fill-opacity:1;fill-rule:nonzero;stroke:#b5b548;stroke-width:0.74721;stroke-linecap:butt;stroke-linejoin:miter;stroke-miterlimit:10;stroke-dasharray:none;stroke-opacity:1"
       transform="matrix(1.3333333,0,0,-1.3333333,52.02,81.362667)" />
    <path
       id="path3"
       d="m 258.40697,-23.05104 h 77.28357 v 51.77142 h -77.28357 z"
       style="fill:#ffffff;fill-opacity:1;fill-rule:nonzero;stroke:#ff0000;stroke-width:0.74721;stroke-linecap:butt;stroke-linejoin:miter;stroke-miterlimit:10;stroke-dasharray:2.98883, 2.98883;stroke-dashoffset:0;stroke-opacity:1"
       transform="matrix(1.3333333,0,0,-1.3333333,52.02,81.362667)" />
    <path
       id="path4"
       d="M -26.92946,-11.33871 H 26.92947 V 11.33872 H -26.92946 Z"
       style="fill:#fde2f0;fill-opacity:1;fill-rule:nonzero;stroke:#d9534f;stroke-width:0.74721;stroke-linecap:butt;stroke-linejoin:miter;stroke-miterlimit:10;stroke-dasharray:none;stroke-opacity:1"
       transform="matrix(1.3333333,0,0,-1.3333333,52.02,81.362667)" />
    <path
       id="path5"
       d="m 5.6240625,-1.6875156 c 0,-0.796875 -0.8085937,-1.4179688 -1.7695312,-1.5703125 0.890625,-0.2226563 1.5117187,-0.75 1.5117187,-1.40625 0,-0.8203125 -0.9960937,-1.5585938 -2.2734375,-1.5585938 H 0.87796875 V -1.5625e-5 H 3.3389063 c 1.3359375,0 2.2851562,-0.820312495 2.2851562,-1.687499975 z M 4.61625,-4.6406406 c 0,0.515625 -0.6328125,1.1132812 -1.8867187,1.1132812 H 1.6865625 V -5.6953281 H 2.835 c 0.9140625,0 1.78125,0.421875 1.78125,1.0546875 z m 0.234375,2.9414062 c 0,0.6445313 -0.7851562,1.17187503 -1.78125,1.17187503 H 1.6865625 V -2.9414219 h 1.3125 c 0.9492188,0 1.8515625,0.5390625 1.8515625,1.2421875 z M 9.9365625,-1.5625e-5 V -2.5898594 c 0,-0.890625 -0.65625,-1.546875 -1.546875,-1.546875 -0.5742187,0 -1.0078125,0.1523438 -1.4414062,0.3984375 l 0.058594,0.6328125 c 0.4453125,-0.328125 0.8789063,-0.4570312 1.3710938,-0.4570312 0.5039062,0 0.8085937,0.3984375 0.8085937,0.984375 v 0.375 c -1.5351562,0.035156 -2.5546875,0.4335937 -2.5546875,1.1601562 0,0.42187503 0.28125,1.13671878 1.0664063,1.13671878 0.1757812,0 0.9492187,-0.01171875 1.5234375,-0.43359375 V -1.5625e-5 Z m -0.75,-1.253906275 c 0,0.1875 0,0.41015628 -0.3164062,0.59765628 -0.2226563,0.140625 -0.5273438,0.17578125 -0.703125,0.17578125 -0.4570313,0 -0.84375,-0.22265625 -0.84375,-0.57421873 0,-0.6445313 1.7460937,-0.6679688 1.8632812,-0.6679688 z m 4.4648435,1.01953128 -0.152343,-0.5625 c -0.234375,0.17578125 -0.550782,0.28125 -0.832032,0.28125 -0.351562,0 -0.46875,-0.3046875 -0.46875,-0.77343748 v -2.1328125 h 1.300782 v -0.5625 h -1.300782 v -1.1367188 h -0.65625 v 1.1367188 h -0.785156 v 0.5625 h 0.761719 v 2.296875 c 0,0.52734373 0.117187,1.21874998 0.761719,1.21874998 0.398437,0 0.867187,-0.0703125 1.371093,-0.328125 z m 4.086914,-0.09375 -0.05859,-0.64453125 c -0.433594,0.3046875 -0.902344,0.45703125 -1.441407,0.45703125 -0.761718,0 -1.265625,-0.63281248 -1.265625,-1.48828128 0,-0.6796875 0.339844,-1.5234375 1.300782,-1.5234375 0.5625,0 0.855468,0.1171875 1.300781,0.421875 l 0.117187,-0.6328125 c -0.503906,-0.28125 -0.785156,-0.3984375 -1.429687,-0.3984375 -1.265625,0 -2.027344,1.078125 -2.027344,2.1445313 0,1.11328123 0.832031,2.08593748 1.992188,2.08593748 0.632812,0 1.101562,-0.1875 1.511718,-0.421875 z M 22.024453,-1.5625e-5 V -2.6601719 c 0,-0.6679687 -0.175781,-1.4179687 -1.253906,-1.4179687 -0.515625,0 -0.996094,0.2460937 -1.324219,0.6445312 V -6.2226719 H 18.731484 V -1.5625e-5 h 0.738282 V -2.1914219 c 0,-0.5859375 0.234375,-1.3007812 0.914062,-1.3007812 0.902344,0 0.902344,0.6328125 0.902344,0.890625 V -1.5625e-5 Z m 7.954102,0 V -0.66798437 h -1.675782 c -0.117187,0 -0.222656,0 -0.328125,0 h -0.984375 l 1.464844,-1.33593753 c 0.949219,-0.7617187 1.523438,-1.2539062 1.523438,-2.1210937 0,-1.03125 -0.738282,-1.9335938 -1.957032,-1.9335938 -0.949218,0 -1.511718,0.5507813 -1.792968,1.4296875 l 0.410156,0.5273438 c 0.234375,-1.0546875 0.703125,-1.3476563 1.253906,-1.3476563 0.796875,0 1.300781,0.609375 1.300781,1.3476563 0,0.8085937 -0.574218,1.3359375 -1.230468,1.921875 l -1.664063,1.57031248 V -1.5625e-5 Z m 0,0"
       style="fill:#000000;fill-opacity:1;fill-rule:nonzero;stroke:none"
       aria-label="Batch2"
       transform="matrix(1.3333333,0,0,1.3333333,31.72,85.445333)" />
    <path
       id="path6"
       d="M 44.68492,-11.33871 H 98.54385 V 11.33872 H 44.68492 Z"
       style="fill:#fde2f0;fill-opacity:1;fill-rule:nonzero;stroke:#d9534f;stroke-width:0.74721;stroke-linecap:butt;stroke-linejoin:miter;stroke-miterlimit:10;stroke-dasharray:none;stroke-opacity:1"
       transform="matrix(1.3333333,0,0,-1.3333333,52.02,81.362667)" />
    <path
       id="path7"
       d="m 1.6278359,-0.821375 c 0.4921875,-0.7265625 0.65625,-1.3476562 0.7617188,-1.7929687 0.3398437,-1.2773438 0.6796875,-2.2851563 1.21875,-2.90625 0.1289062,-0.1523438 0.2109375,-0.2460938 0.5273437,-0.2460938 0.515625,0 0.65625,0.4335938 0.65625,0.7617188 0,0.1640625 -0.035156,0.28125 -0.035156,0.3164062 0,0.046875 0.046875,0.058594 0.070312,0.058594 0.1171875,0 0.375,-0.1054688 0.5625,-0.234375 0.1875,-0.140625 0.2695312,-0.1992188 0.2695312,-0.5976563 0,-0.3515625 -0.1640625,-0.8554687 -0.7851562,-0.8554687 -0.7382813,0 -1.6171875,0.5039062 -2.109375,1.125 -0.65625,0.8203125 -0.9726563,1.9921875 -1.2539063,3.09375 -0.1875,0.6914062 -0.4921875,1.42968745 -0.92578121,1.85156245 -0.3046875,0.3046875 -0.3046875,0.36328125 -0.3046875,0.38671875 0,0.0117188 0.0117188,0.0585938 0.0820313,0.0585938 0.0117188,0 0.375,0 0.84375001,-0.515625 0.421875,0.0117188 0.6328125,0.046875 1.3710938,0.24609375 C 3.116117,0.080969 3.5497107,0.1981565 4.0184607,0.1981565 c 0.609375,0 1.1484375,-0.375 1.3242188,-0.50390625 0.5976562,-0.45703125 0.6914062,-0.90234365 0.6914062,-0.94921865 0,-0.023437 -0.035156,-0.046875 -0.070312,-0.046875 -0.1171875,0 -0.328125,0.082031 -0.46875,0.1757812 -0.28125,0.1757812 -0.3164062,0.28124995 -0.3515625,0.3632812 -0.011719,0.0585938 -0.046875,0.17578125 -0.1640625,0.328125 -0.058594,0.0703125 -0.070312,0.0703125 -0.2109375,0.0703125 -0.4453125,0 -0.9023436,-0.1171875 -1.4179686,-0.26953125 -0.421875,-0.10546875 -0.8789064,-0.234375 -1.3476563,-0.234375 -0.046875,0 -0.2226562,0 -0.3750003,0.0468748 z m 0,0"
       style="fill:#000000;fill-opacity:1;fill-rule:nonzero;stroke:none"
       aria-label="L"
       transform="matrix(1.3333333,0,0,1.3333333,140.50533,84.782667)" />
    <path
       id="path8"
       d="M 3.2105,-1.11425 H 2.9995625 C 2.9761255,-1.032219 2.9175315,-0.6455 2.8355,-0.5751875 2.788625,-0.5400312 2.3081562,-0.5400312 2.226125,-0.5400312 h -1.125 L 1.8745625,-1.161125 C 2.0737812,-1.3251875 2.601125,-1.7001875 2.788625,-1.8876875 2.9644062,-2.0634687 3.2105,-2.3681562 3.2105,-2.7900312 c 0,-0.75 -0.6679688,-1.1835938 -1.4765625,-1.1835938 -0.76171875,0 -1.30078125,0.5039063 -1.30078125,1.0664063 0,0.3046875 0.2578125,0.3398437 0.31640625,0.3398437 0.15234375,0 0.328125,-0.1054687 0.328125,-0.3164062 0,-0.140625 -0.0820312,-0.328125 -0.33984375,-0.328125 C 0.86675,-3.5165937 1.24175,-3.73925 1.6519062,-3.73925 c 0.6210938,0 0.9609375,0.46875 0.9609375,0.9492188 0,0.421875 -0.28125,0.8554687 -0.703125,1.2421875 L 0.49175,-0.2470625 C 0.4331562,-0.1884687 0.4331562,-0.1884687 0.4331562,-9.6875e-4 h 2.6015625 z m 0,0"
       style="fill:#000000;fill-opacity:1;fill-rule:nonzero;stroke:none"
       aria-label="2"
       transform="matrix(1.3333333,0,0,1.3333333,148.96933,86.110667)" />
    <path
       id="path9"
       d="m 170.15808,-11.33871 h 53.85893 v 22.67743 h -53.85893 z"
       style="fill:#f3f3ff;fill-opacity:1;fill-rule:nonzero;stroke:#a988e5;stroke-width:0.74721;stroke-linecap:butt;stroke-linejoin:miter;stroke-miterlimit:10;stroke-dasharray:none;stroke-opacity:1"
       transform="matrix(1.3333333,0,0,-1.3333333,52.02,81.362667)" />
    <path
       id="path10"
       d="m 2.4027891,-3.9153203 c -1.0195313,0.234375 -2.01562504,1.3007812 -2.01562504,2.484375 0,0.99609374 0.70312504,1.53515624 1.47656254,1.53515624 1.0429687,0 1.8164062,-1.35937504 1.8164062,-2.63671874 0,-0.8203125 -0.3867187,-1.3007813 -0.6679687,-1.640625 -0.3164063,-0.3867188 -0.890625,-1.1015625 -0.890625,-1.5 0,-0.1523438 0.1054687,-0.3984375 0.4921875,-0.3984375 0.2695312,0 0.4570312,0.1054687 0.6445312,0.234375 0.1171875,0.070312 0.3867188,0.234375 0.515625,0.234375 0.1875,0 0.3632813,-0.1757813 0.3632813,-0.3632813 0,-0.1992187 -0.1171875,-0.234375 -0.5390625,-0.3164062 -0.4453125,-0.1054688 -0.5976563,-0.1054688 -0.7265625,-0.1054688 -0.9023438,0 -1.03125,0.6445313 -1.03125,0.9257813 0,0.4453125 0.28125,1.0546875 0.5625,1.546875 z m 0.1289062,0.2226562 c 0.46875,0.8320313 0.4921875,1.2304688 0.4921875,1.5351563 0,0.6796875 -0.375,2.03906249 -1.171875,2.03906249 -0.3867187,0 -0.87890624,-0.24609375 -0.87890624,-1.05468749 0,-0.5742188 0.31640624,-2.1796875 1.55859374,-2.5195313 z m 0,0"
       style="fill:#000000;fill-opacity:1;fill-rule:nonzero;stroke:none"
       aria-label="δ"
       transform="matrix(1.3333333,0,0,1.3333333,309.308,84.849333)" />
    <path
       id="path11"
       d="M 3.2112969,-1.1144453 H 3.0003594 c -0.023437,0.082031 -0.082031,0.46874999 -0.1640625,0.53906249 -0.046875,0.0351563 -0.5273438,0.0351563 -0.609375,0.0351563 h -1.125 L 1.8753594,-1.1613203 c 0.1992187,-0.1640625 0.7265625,-0.5390625 0.9140625,-0.7265625 0.1757812,-0.1757813 0.421875,-0.4804688 0.421875,-0.9023438 0,-0.75 -0.6679688,-1.1835937 -1.4765625,-1.1835937 -0.76171878,0 -1.30078128,0.5039062 -1.30078128,1.0664062 0,0.3046875 0.2578125,0.3398438 0.31640625,0.3398438 0.15234375,0 0.32812503,-0.1054688 0.32812503,-0.3164063 0,-0.140625 -0.0820313,-0.328125 -0.33984378,-0.328125 0.12890625,-0.3046875 0.50390628,-0.5273437 0.91406248,-0.5273437 0.6210938,0 0.9609375,0.46875 0.9609375,0.9492187 0,0.421875 -0.28125,0.8554688 -0.703125,1.2421875 l -1.41796873,1.30078129 c -0.0585938,0.0585938 -0.0585938,0.0585938 -0.0585938,0.24609375 H 3.0355156 Z m 0,0"
       style="fill:#000000;fill-opacity:1;fill-rule:nonzero;stroke:none"
       aria-label="2"
       transform="matrix(1.3333333,0,0,1.3333333,314.75733,86.177333)" />
    <path
       id="path12"
       d="m 270.11928,-11.33871 h 53.85893 v 22.67743 h -53.85893 z"
       style="fill:#fad4af;fill-opacity:1;fill-rule:nonzero;stroke:#e67817;stroke-width:0.74721;stroke-linecap:butt;stroke-linejoin:miter;stroke-miterlimit:10;stroke-dasharray:none;stroke-opacity:1"
       transform="matrix(1.3333333,0,0,-1.3333333,52.02,81.362667)" />
    <path
       id="path13"
       d="m 2.403125,-3.9153203 c -1.0195312,0.234375 -2.015625,1.3007812 -2.015625,2.484375 0,0.99609374 0.703125,1.53515624 1.4765625,1.53515624 1.0429688,0 1.8164063,-1.35937504 1.8164063,-2.63671874 0,-0.8203125 -0.3867188,-1.3007813 -0.6679688,-1.640625 -0.3164062,-0.3867188 -0.890625,-1.1015625 -0.890625,-1.5 0,-0.1523438 0.1054688,-0.3984375 0.4921875,-0.3984375 0.2695313,0 0.4570313,0.1054687 0.6445313,0.234375 0.1171875,0.070312 0.3867187,0.234375 0.515625,0.234375 0.1875,0 0.3632812,-0.1757813 0.3632812,-0.3632813 0,-0.1992187 -0.1171875,-0.234375 -0.5390625,-0.3164062 C 3.153125,-6.3879766 3.0007813,-6.3879766 2.871875,-6.3879766 c -0.9023437,0 -1.03125,0.6445313 -1.03125,0.9257813 0,0.4453125 0.28125,1.0546875 0.5625,1.546875 z m 0.1289063,0.2226562 c 0.46875,0.8320313 0.4921875,1.2304688 0.4921875,1.5351563 0,0.6796875 -0.375,2.03906249 -1.171875,2.03906249 -0.3867188,0 -0.8789063,-0.24609375 -0.8789063,-1.05468749 0,-0.5742188 0.3164063,-2.1796875 1.5585938,-2.5195313 z m 0,0"
       style="fill:#000000;fill-opacity:1;fill-rule:nonzero;stroke:none"
       aria-label="δ"
       transform="matrix(1.3333333,0,0,1.3333333,419.73333,84.849333)" />
    <path
       id="path14"
       d="m 2.1452266,-3.7980391 c 0,-0.1757812 -0.023437,-0.1757812 -0.1992188,-0.1757812 -0.3984375,0.375 -1.00781249,0.375 -1.21874999,0.375 v 0.234375 c 0.15234375,0 0.55078129,0 0.90234379,-0.1640625 v 3.02343749 c 0,0.1875 0,0.26953125 -0.609375,0.26953125 H 0.76241406 v 0.234375 c 0.32812504,-0.0234375 0.79687504,-0.0234375 1.12500004,-0.0234375 0.3398437,0 0.796875,0 1.1367187,0.0234375 v -0.234375 H 2.7663203 c -0.6210937,0 -0.6210937,-0.0820313 -0.6210937,-0.26953125 z m 0,0"
       style="fill:#000000;fill-opacity:1;fill-rule:nonzero;stroke:none"
       aria-label="1"
       transform="matrix(1.3333333,0,0,1.3333333,425.18267,86.177333)" />
    <path
       id="path15"
       d="m 6.328375,-2.0520391 c 0.1289063,0 0.3164063,0 0.3164063,-0.1875 0,-0.1992187 -0.1757813,-0.1992187 -0.3164063,-0.1992187 H 3.7736875 v -2.5664063 c 0,-0.140625 0,-0.3164062 -0.1992187,-0.3164062 -0.1875,0 -0.1875,0.1875 -0.1875,0.3164062 v 2.5664063 H 0.8205625 c -0.1171875,0 -0.3046875,0 -0.3046875,0.1875 0,0.1992187 0.1640625,0.1992187 0.3046875,0.1992187 h 2.5664063 v 2.56640629 c 0,0.140625 0,0.3046875 0.1992187,0.3046875 0.1875,0 0.1875,-0.1875 0.1875,-0.3046875 V -2.0520391 Z m 0,0"
       style="fill:#000000;fill-opacity:1;fill-rule:nonzero;stroke:none"
       aria-label="+"
       transform="matrix(1.3333333,0,0,1.3333333,431.87467,84.849333)" />
    <path
       id="path16"
       d="m 2.4037266,-3.9153203 c -1.0195313,0.234375 -2.01562504,1.3007812 -2.01562504,2.484375 0,0.99609374 0.70312504,1.53515624 1.47656254,1.53515624 1.0429687,0 1.8164062,-1.35937504 1.8164062,-2.63671874 0,-0.8203125 -0.3867187,-1.3007813 -0.6679687,-1.640625 -0.3164063,-0.3867188 -0.890625,-1.1015625 -0.890625,-1.5 0,-0.1523438 0.1054687,-0.3984375 0.4921875,-0.3984375 0.2695312,0 0.4570312,0.1054687 0.6445312,0.234375 0.1171875,0.070312 0.3867188,0.234375 0.515625,0.234375 0.1875,0 0.3632813,-0.1757813 0.3632813,-0.3632813 0,-0.1992187 -0.1171875,-0.234375 -0.5390625,-0.3164062 -0.4453125,-0.1054688 -0.5976563,-0.1054688 -0.7265625,-0.1054688 -0.9023438,0 -1.03125,0.6445313 -1.03125,0.9257813 0,0.4453125 0.28125,1.0546875 0.5625,1.546875 z m 0.1289062,0.2226562 c 0.46875,0.8320313 0.4921875,1.2304688 0.4921875,1.5351563 0,0.6796875 -0.375,2.03906249 -1.171875,2.03906249 -0.3867187,0 -0.87890624,-0.24609375 -0.87890624,-1.05468749 0,-0.5742188 0.31640624,-2.1796875 1.55859374,-2.5195313 z m 0,0"
       style="fill:#000000;fill-opacity:1;fill-rule:nonzero;stroke:none"
       aria-label="δ"
       transform="matrix(1.3333333,0,0,1.3333333,442.588,84.849333)" />
    <path
       id="path17"
       d="M 3.2122344,-1.1144453 H 3.0012969 c -0.023437,0.082031 -0.082031,0.46874999 -0.1640625,0.53906249 -0.046875,0.0351563 -0.5273438,0.0351563 -0.609375,0.0351563 h -1.125 L 1.8762969,-1.1613203 c 0.1992187,-0.1640625 0.7265625,-0.5390625 0.9140625,-0.7265625 0.1757812,-0.1757813 0.421875,-0.4804688 0.421875,-0.9023438 0,-0.75 -0.6679688,-1.1835937 -1.4765625,-1.1835937 -0.76171877,0 -1.30078127,0.5039062 -1.30078127,1.0664062 0,0.3046875 0.2578125,0.3398438 0.31640625,0.3398438 0.15234375,0 0.32812502,-0.1054688 0.32812502,-0.3164063 0,-0.140625 -0.0820313,-0.328125 -0.33984377,-0.328125 0.12890625,-0.3046875 0.50390627,-0.5273437 0.91406247,-0.5273437 0.6210938,0 0.9609375,0.46875 0.9609375,0.9492187 0,0.421875 -0.28125,0.8554688 -0.703125,1.2421875 l -1.41796872,1.30078129 c -0.0585938,0.0585938 -0.0585938,0.0585938 -0.0585938,0.24609375 H 3.0364531 Z m 0,0"
       style="fill:#000000;fill-opacity:1;fill-rule:nonzero;stroke:none"
       aria-label="2"
       transform="matrix(1.3333333,0,0,1.3333333,448.03733,86.177333)" />
    <path
       id="path18"
       d="m 6.3270469,-2.0520391 c 0.1289062,0 0.3164062,0 0.3164062,-0.1875 0,-0.1992187 -0.1757812,-0.1992187 -0.3164062,-0.1992187 H 3.7723594 v -2.5664063 c 0,-0.140625 0,-0.3164062 -0.1992188,-0.3164062 -0.1875,0 -0.1875,0.1875 -0.1875,0.3164062 v 2.5664063 H 0.81923438 c -0.1171875,0 -0.3046875,0 -0.3046875,0.1875 0,0.1992187 0.1640625,0.1992187 0.3046875,0.1992187 H 3.3856406 v 2.56640629 c 0,0.140625 0,0.3046875 0.1992188,0.3046875 0.1875,0 0.1875,-0.1875 0.1875,-0.3046875 V -2.0520391 Z m 0,0"
       style="fill:#000000;fill-opacity:1;fill-rule:nonzero;stroke:none"
       aria-label="+"
       transform="matrix(1.3333333,0,0,1.3333333,454.728,84.849333)" />
    <path
       id="path19"
       d="m 2.4023984,-3.9153203 c -1.0195312,0.234375 -2.01562496,1.3007812 -2.01562496,2.484375 0,0.99609374 0.70312496,1.53515624 1.47656246,1.53515624 1.0429688,0 1.8164063,-1.35937504 1.8164063,-2.63671874 0,-0.8203125 -0.3867188,-1.3007813 -0.6679688,-1.640625 -0.3164062,-0.3867188 -0.890625,-1.1015625 -0.890625,-1.5 0,-0.1523438 0.1054688,-0.3984375 0.4921875,-0.3984375 0.2695313,0 0.4570313,0.1054687 0.6445313,0.234375 0.1171875,0.070312 0.3867187,0.234375 0.515625,0.234375 0.1875,0 0.3632812,-0.1757813 0.3632812,-0.3632813 0,-0.1992187 -0.1171875,-0.234375 -0.5390625,-0.3164062 -0.4453125,-0.1054688 -0.5976562,-0.1054688 -0.7265625,-0.1054688 -0.9023437,0 -1.03125,0.6445313 -1.03125,0.9257813 0,0.4453125 0.28125,1.0546875 0.5625,1.546875 z m 0.1289063,0.2226562 c 0.46875,0.8320313 0.4921875,1.2304688 0.4921875,1.5351563 0,0.6796875 -0.375,2.03906249 -1.171875,2.03906249 -0.3867188,0 -0.87890626,-0.24609375 -0.87890626,-1.05468749 0,-0.5742188 0.31640626,-2.1796875 1.55859376,-2.5195313 z m 0,0"
       style="fill:#000000;fill-opacity:1;fill-rule:nonzero;stroke:none"
       aria-label="δ"
       transform="matrix(1.3333333,0,0,1.3333333,465.44133,84.849333)" />
    <path
       id="path20"
       d="m 1.7567813,-1.9816328 c 0.5039062,0 0.84375,0.3398437 0.84375,0.9492187 0,0.65625004 -0.3867188,0.93750004 -0.8320313,0.93750004 -0.1523437,0 -0.7734375,-0.03515625 -1.04296875,-0.375 0.234375,-0.0234375 0.32812505,-0.1875 0.32812505,-0.33984375 0,-0.21093749 -0.14062505,-0.33984379 -0.3398438,-0.33984379 -0.1640625,0 -0.33984375,0.09375 -0.33984375,0.35156254 0,0.5859375 0.65625005,0.92578125 1.41796875,0.92578125 0.8789063,0 1.4765625,-0.57421875 1.4765625,-1.16015629 0,-0.4335937 -0.3398437,-0.9023437 -1.0429687,-1.078125 0.46875,-0.1523437 0.8554687,-0.5390625 0.8554687,-1.03125 0,-0.4804687 -0.5625,-0.8320312 -1.2773437,-0.8320312 -0.703125,0 -1.24218755,0.3164062 -1.24218755,0.8085937 0,0.2578125 0.19921875,0.328125 0.31640625,0.328125 0.1640625,0 0.328125,-0.1054687 0.328125,-0.3164062 0,-0.1875 -0.140625,-0.2929688 -0.29296875,-0.3164063 0.26953125,-0.3046875 0.82031255,-0.3046875 0.86718755,-0.3046875 0.3046875,0 0.6914062,0.140625 0.6914062,0.6328125 0,0.328125 -0.1875,0.9023438 -0.7851562,0.9375 -0.1054688,0.011719 -0.2695313,0.023437 -0.3164063,0.023437 -0.058594,0 -0.1289062,0.011719 -0.1289062,0.1054688 0,0.09375 0.070312,0.09375 0.1640625,0.09375 z m 0,0"
       style="fill:#000000;fill-opacity:1;fill-rule:nonzero;stroke:none"
       aria-label="3"
       transform="matrix(1.3333333,0,0,1.3333333,470.892,86.177333)" />
    <path
       id="path21"
       d="M -26.92946,20.59004 H 26.92947 V 43.26747 H -26.92946 Z"
       style="fill:#dbfda6;fill-opacity:1;fill-rule:nonzero;stroke:#008f45;stroke-width:0.74721;stroke-linecap:butt;stroke-linejoin:miter;stroke-miterlimit:10;stroke-dasharray:none;stroke-opacity:1"
       transform="matrix(1.3333333,0,0,-1.3333333,52.02,81.362667)" />
    <path
       id="path22"
       d="m 5.6240625,-1.68625 c 0,-0.796875 -0.8085937,-1.4179687 -1.7695312,-1.5703125 0.890625,-0.2226562 1.5117187,-0.75 1.5117187,-1.40625 0,-0.8203125 -0.9960937,-1.5585937 -2.2734375,-1.5585937 H 0.87796875 V 0.00125 H 3.3389063 c 1.3359375,0 2.2851562,-0.8203125 2.2851562,-1.6875 z M 4.61625,-4.639375 c 0,0.515625 -0.6328125,1.1132813 -1.8867187,1.1132813 H 1.6865625 V -5.6940625 H 2.835 c 0.9140625,0 1.78125,0.421875 1.78125,1.0546875 z m 0.234375,2.9414063 c 0,0.6445312 -0.7851562,1.17187495 -1.78125,1.17187495 H 1.6865625 V -2.9401562 h 1.3125 c 0.9492188,0 1.8515625,0.5390625 1.8515625,1.2421875 z M 9.9365625,0.00125 v -2.5898437 c 0,-0.890625 -0.65625,-1.546875 -1.546875,-1.546875 -0.5742187,0 -1.0078125,0.1523437 -1.4414062,0.3984375 l 0.058594,0.6328125 c 0.4453122,-0.328125 0.878906,-0.4570313 1.3710935,-0.4570313 0.5039062,0 0.8085937,0.3984375 0.8085937,0.984375 v 0.375 C 7.6514063,-2.1667187 6.631875,-1.7682812 6.631875,-1.0417187 6.631875,-0.61984375 6.913125,0.095 7.6982813,0.095 7.8740625,0.095 8.6475,0.08328125 9.2217188,-0.33859375 V 0.00125 Z m -0.75,-1.2539062 c 0,0.1875 0,0.4101562 -0.3164062,0.5976562 -0.2226563,0.140625 -0.5273438,0.17578125 -0.703125,0.17578125 -0.4570313,0 -0.84375,-0.22265625 -0.84375,-0.57421875 0,-0.6445312 1.7460937,-0.6679687 1.8632812,-0.6679687 z m 4.4648435,1.0195312 -0.152343,-0.5625 c -0.234375,0.17578125 -0.550782,0.28125 -0.832032,0.28125 -0.351562,0 -0.46875,-0.3046875 -0.46875,-0.7734375 V -3.420625 h 1.300782 v -0.5625 h -1.300782 v -1.1367187 h -0.65625 v 1.1367187 h -0.785156 v 0.5625 h 0.761719 v 2.296875 c 0,0.52734375 0.117187,1.21875 0.761719,1.21875 0.398437,0 0.867187,-0.0703125 1.371093,-0.328125 z m 4.086914,-0.09375 -0.05859,-0.64453125 c -0.433594,0.3046875 -0.902344,0.45703125 -1.441407,0.45703125 -0.761718,0 -1.265625,-0.6328125 -1.265625,-1.4882812 0,-0.6796875 0.339844,-1.5234375 1.300782,-1.5234375 0.5625,0 0.855468,0.1171875 1.300781,0.421875 l 0.117187,-0.6328125 c -0.503906,-0.28125 -0.785156,-0.3984375 -1.429687,-0.3984375 -1.265625,0 -2.027344,1.078125 -2.027344,2.1445312 0,1.11328125 0.832031,2.0859375 1.992188,2.0859375 0.632812,0 1.101562,-0.1875 1.511718,-0.421875 z m 4.286133,0.328125 v -2.6601562 c 0,-0.6679688 -0.175781,-1.4179688 -1.253906,-1.4179688 -0.515625,0 -0.996094,0.2460938 -1.324219,0.6445313 V -6.2214062 H 18.731484 V 0.00125 h 0.738282 v -2.1914062 c 0,-0.5859375 0.234375,-1.3007813 0.914062,-1.3007813 0.902344,0 0.902344,0.6328125 0.902344,0.890625 V 0.00125 Z m 7.731445,0 V -0.54953125 H 28.607461 V -6.0573437 h -0.1875 c -0.597656,0.5859375 -1.453125,0.5859375 -1.769531,0.5859375 v 0.5507812 c 0.246093,0 0.703125,0 1.195312,-0.2109375 v 4.58203125 H 26.697305 V 0.00125 Z m 0,0"
       style="fill:#000000;fill-opacity:1;fill-rule:nonzero;stroke:none"
       aria-label="Batch1"
       transform="matrix(1.3333333,0,0,1.3333333,31.72,42.873333)" />
    <path
       id="path23"
       d="M 44.68492,20.59004 H 98.54385 V 43.26747 H 44.68492 Z"
       style="fill:#dbfda6;fill-opacity:1;fill-rule:nonzero;stroke:#008f45;stroke-width:0.74721;stroke-linecap:butt;stroke-linejoin:miter;stroke-miterlimit:10;stroke-dasharray:none;stroke-opacity:1"
       transform="matrix(1.3333333,0,0,-1.3333333,52.02,81.362667)" />
    <path
       id="path24"
       d="m 1.6278359,-0.82110937 c 0.4921875,-0.72656253 0.65625,-1.34765623 0.7617188,-1.79296873 0.3398437,-1.2773438 0.6796875,-2.2851563 1.21875,-2.90625 0.1289062,-0.1523438 0.2109375,-0.2460938 0.5273437,-0.2460938 0.515625,0 0.65625,0.4335938 0.65625,0.7617188 0,0.1640625 -0.035156,0.28125 -0.035156,0.3164062 0,0.046875 0.046875,0.058594 0.070312,0.058594 0.1171875,0 0.375,-0.1054688 0.5625,-0.234375 0.1875,-0.140625 0.2695312,-0.1992188 0.2695312,-0.5976563 0,-0.3515625 -0.1640625,-0.8554687 -0.7851562,-0.8554687 -0.7382813,0 -1.6171875,0.5039062 -2.109375,1.125 -0.65625,0.8203125 -0.9726563,1.9921875 -1.2539063,3.09375 -0.1875,0.6914062 -0.4921875,1.42968748 -0.92578121,1.85156248 -0.3046875,0.3046875 -0.3046875,0.36328125 -0.3046875,0.38671875 0,0.0117188 0.0117188,0.0585938 0.0820313,0.0585938 0.0117188,0 0.375,0 0.84375001,-0.515625 0.421875,0.0117188 0.6328125,0.046875 1.3710938,0.24609375 0.5390625,0.15234375 0.9726562,0.26953125 1.4414062,0.26953125 0.609375,0 1.1484375,-0.375 1.3242188,-0.50390625 0.5976562,-0.45703125 0.6914062,-0.90234368 0.6914062,-0.94921868 0,-0.023437 -0.035156,-0.046875 -0.070312,-0.046875 -0.1171875,0 -0.328125,0.082031 -0.46875,0.1757812 -0.28125,0.17578123 -0.3164062,0.28124998 -0.3515625,0.36328123 -0.011719,0.0585938 -0.046875,0.17578125 -0.1640625,0.328125 -0.058594,0.0703125 -0.070312,0.0703125 -0.2109375,0.0703125 -0.4453125,0 -0.9023436,-0.1171875 -1.4179686,-0.26953125 -0.421875,-0.10546875 -0.8789064,-0.234375 -1.3476563,-0.234375 -0.046875,0 -0.2226562,0 -0.3750003,0.0468748 z m 0,0"
       style="fill:#000000;fill-opacity:1;fill-rule:nonzero;stroke:none"
       aria-label="L"
       transform="matrix(1.3333333,0,0,1.3333333,140.50533,42.212)" />
    <path
       id="path25"
       d="m 2.1440937,-3.7975781 c 0,-0.1757813 -0.023437,-0.1757813 -0.1992187,-0.1757813 -0.3984375,0.375 -1.0078125,0.375 -1.21875,0.375 v 0.234375 c 0.15234375,0 0.5507812,0 0.9023437,-0.1640625 v 3.02343753 c 0,0.1875 0,0.26953125 -0.609375,0.26953125 H 0.76128125 V -7.03125e-4 C 1.0894062,-0.02414062 1.5581562,-0.02414062 1.8862812,-0.02414062 c 0.3398438,0 0.796875,0 1.1367188,0.023437495 V -0.23507812 H 2.7651875 c -0.6210938,0 -0.6210938,-0.0820313 -0.6210938,-0.26953125 z m 0,0"
       style="fill:#000000;fill-opacity:1;fill-rule:nonzero;stroke:none"
       aria-label="1"
       transform="matrix(1.3333333,0,0,1.3333333,148.96933,43.54)" />
    <path
       id="path26"
       d="m -26.92946,-43.26747 h 53.85893 v 22.67743 h -53.85893 z"
       style="fill:#d1f3ff;fill-opacity:1;fill-rule:nonzero;stroke:#006395;stroke-width:0.74721;stroke-linecap:butt;stroke-linejoin:miter;stroke-miterlimit:10;stroke-dasharray:none;stroke-opacity:1"
       transform="matrix(1.3333333,0,0,-1.3333333,52.02,81.362667)" />
    <path
       id="path27"
       d="m 5.6240625,-1.6885859 c 0,-0.796875 -0.8085937,-1.4179688 -1.7695312,-1.5703125 0.890625,-0.2226563 1.5117187,-0.75 1.5117187,-1.40625 0,-0.8203125 -0.9960937,-1.5585938 -2.2734375,-1.5585938 H 0.87796875 v 6.22265626 H 3.3389063 c 1.3359375,0 2.2851562,-0.8203125 2.2851562,-1.68749996 z M 4.61625,-4.6417109 c 0,0.515625 -0.6328125,1.1132812 -1.8867187,1.1132812 H 1.6865625 V -5.6963984 H 2.835 c 0.9140625,0 1.78125,0.421875 1.78125,1.0546875 z m 0.234375,2.9414062 c 0,0.6445313 -0.7851562,1.17187501 -1.78125,1.17187501 H 1.6865625 V -2.9424922 h 1.3125 c 0.9492188,0 1.8515625,0.5390625 1.8515625,1.2421875 z m 5.0859375,1.69921876 V -2.5909297 c 0,-0.890625 -0.65625,-1.546875 -1.546875,-1.546875 -0.5742187,0 -1.0078125,0.1523438 -1.4414062,0.3984375 l 0.058594,0.6328125 c 0.4453125,-0.328125 0.8789063,-0.4570312 1.3710938,-0.4570312 0.5039062,0 0.8085937,0.3984375 0.8085937,0.984375 v 0.375 c -1.5351562,0.035156 -2.5546875,0.4335937 -2.5546875,1.1601562 0,0.42187501 0.28125,1.13671876 1.0664063,1.13671876 0.1757812,0 0.9492187,-0.01171875 1.5234375,-0.43359375 v 0.33984375 z m -0.75,-1.25390626 c 0,0.1875 0,0.41015626 -0.3164062,0.59765626 -0.2226563,0.140625 -0.5273438,0.17578125 -0.703125,0.17578125 -0.4570313,0 -0.84375,-0.22265625 -0.84375,-0.57421871 0,-0.6445313 1.7460937,-0.6679688 1.8632812,-0.6679688 z m 4.4648435,1.01953126 -0.152343,-0.5625 c -0.234375,0.17578125 -0.550782,0.28125 -0.832032,0.28125 -0.351562,0 -0.46875,-0.3046875 -0.46875,-0.77343746 v -2.1328125 h 1.300782 v -0.5625 h -1.300782 v -1.1367188 h -0.65625 v 1.1367188 h -0.785156 v 0.5625 h 0.761719 v 2.296875 c 0,0.52734371 0.117187,1.21874996 0.761719,1.21874996 0.398437,0 0.867187,-0.0703125 1.371093,-0.328125 z m 4.086914,-0.09375 -0.05859,-0.64453125 c -0.433594,0.3046875 -0.902344,0.45703125 -1.441407,0.45703125 -0.761718,0 -1.265625,-0.63281246 -1.265625,-1.48828126 0,-0.6796875 0.339844,-1.5234375 1.300782,-1.5234375 0.5625,0 0.855468,0.1171875 1.300781,0.421875 l 0.117187,-0.6328125 c -0.503906,-0.28125 -0.785156,-0.3984375 -1.429687,-0.3984375 -1.265625,0 -2.027344,1.078125 -2.027344,2.1445313 0,1.11328121 0.832031,2.08593746 1.992188,2.08593746 0.632812,0 1.101562,-0.1875 1.511718,-0.421875 z m 4.286133,0.328125 V -2.6612422 c 0,-0.6679687 -0.175781,-1.4179687 -1.253906,-1.4179687 -0.515625,0 -0.996094,0.2460937 -1.324219,0.6445312 v -2.7890625 h -0.714844 v 6.22265626 h 0.738282 V -2.1924922 c 0,-0.5859375 0.234375,-1.3007812 0.914062,-1.3007812 0.902344,0 0.902344,0.6328125 0.902344,0.890625 v 2.60156246 z m 8.036133,-1.61718746 c 0,-0.7148438 -0.527344,-1.3007813 -1.265625,-1.546875 0.632812,-0.328125 1.007812,-0.9023438 1.007812,-1.5234375 0,-0.7734375 -0.761718,-1.3710938 -1.6875,-1.3710938 -0.75,0 -1.382812,0.3867188 -1.757812,0.9492188 l 0.339844,0.515625 c 0.398437,-0.7851563 1.078125,-0.9140625 1.417968,-0.9140625 0.457032,0 0.902344,0.2578125 0.902344,0.8203125 0,0.328125 -0.1875,1.1015625 -1.160156,1.1953125 -0.164063,0.011719 -0.316406,0.023437 -0.480469,0.035156 v 0.5742188 h 0.667969 c 0.867187,0 1.148437,0.7148437 1.148437,1.2539062 0,0.70312501 -0.421875,1.24218751 -1.101562,1.24218751 -0.738281,0 -1.417969,-0.3984375 -1.757813,-0.89062501 -0.07031,0.36328126 -0.07031,0.38671876 -0.105468,0.57421876 0.433593,0.52734375 1.125,0.90234375 1.886718,0.90234375 1.125,0 1.945313,-0.87890625 1.945313,-1.81640601 z m 0,0"
       style="fill:#000000;fill-opacity:1;fill-rule:nonzero;stroke:none"
       aria-label="Batch3"
       transform="matrix(1.3333333,0,0,1.3333333,31.72,127.95067)" />
    <path
       id="path28"
       d="m 44.68492,-43.26747 h 53.85893 v 22.67743 H 44.68492 Z"
       style="fill:#d1f3ff;fill-opacity:1;fill-rule:nonzero;stroke:#006395;stroke-width:0.74721;stroke-linecap:butt;stroke-linejoin:miter;stroke-miterlimit:10;stroke-dasharray:none;stroke-opacity:1"
       transform="matrix(1.3333333,0,0,-1.3333333,52.02,81.362667)" />
    <path
       id="path29"
       d="m 1.6278359,-0.82164062 c 0.4921875,-0.72656248 0.65625,-1.34765628 0.7617188,-1.79296878 0.3398437,-1.2773437 0.6796875,-2.2851562 1.21875,-2.90625 0.1289062,-0.1523437 0.2109375,-0.2460937 0.5273437,-0.2460937 0.515625,0 0.65625,0.4335937 0.65625,0.7617187 0,0.1640625 -0.035156,0.28125 -0.035156,0.3164063 0,0.046875 0.046875,0.058594 0.070312,0.058594 0.1171875,0 0.375,-0.1054687 0.5625,-0.234375 0.1875,-0.140625 0.2695312,-0.1992187 0.2695312,-0.5976562 0,-0.3515625 -0.1640625,-0.8554688 -0.7851562,-0.8554688 -0.7382813,0 -1.6171875,0.5039063 -2.109375,1.125 -0.65625,0.8203125 -0.9726563,1.9921875 -1.2539063,3.09375 -0.1875,0.6914063 -0.4921875,1.42968753 -0.92578121,1.85156253 -0.3046875,0.3046875 -0.3046875,0.36328125 -0.3046875,0.38671875 0,0.0117188 0.0117188,0.0585938 0.0820313,0.0585938 0.0117188,0 0.375,0 0.84375001,-0.515625 0.421875,0.0117188 0.6328125,0.046875 1.3710938,0.24609375 0.5390625,0.15234375 0.9726562,0.26953125 1.4414062,0.26953125 0.609375,0 1.1484375,-0.375 1.3242188,-0.50390625 0.5976562,-0.45703125 0.6914062,-0.90234373 0.6914062,-0.94921873 0,-0.023437 -0.035156,-0.046875 -0.070312,-0.046875 -0.1171875,0 -0.328125,0.082031 -0.46875,0.1757813 -0.28125,0.17578118 -0.3164062,0.28124993 -0.3515625,0.36328118 -0.011719,0.0585938 -0.046875,0.17578125 -0.1640625,0.328125 -0.058594,0.0703125 -0.070312,0.0703125 -0.2109375,0.0703125 -0.4453125,0 -0.9023436,-0.1171875 -1.4179686,-0.26953125 -0.421875,-0.10546875 -0.8789064,-0.234375 -1.3476563,-0.234375 -0.046875,0 -0.2226562,0 -0.3750003,0.0468746 z m 0,0"
       style="fill:#000000;fill-opacity:1;fill-rule:nonzero;stroke:none"
       aria-label="L"
       transform="matrix(1.3333333,0,0,1.3333333,140.50533,127.35333)" />
    <path
       id="path30"
       d="m 1.757375,-1.9797734 c 0.5039062,0 0.84375,0.3398437 0.84375,0.9492187 0,0.65625001 -0.3867188,0.93750001 -0.8320313,0.93750001 -0.1523437,0 -0.77343745,-0.03515625 -1.0429687,-0.375 0.234375,-0.0234375 0.328125,-0.1875 0.328125,-0.33984375 0,-0.21093746 -0.140625,-0.33984376 -0.33984375,-0.33984376 -0.1640625,0 -0.33984375,0.09375 -0.33984375,0.35156251 0,0.5859375 0.65625,0.92578125 1.4179687,0.92578125 0.8789063,0 1.4765625,-0.57421875 1.4765625,-1.16015626 0,-0.4335937 -0.3398437,-0.9023437 -1.0429687,-1.078125 0.46875,-0.1523437 0.8554687,-0.5390625 0.8554687,-1.03125 0,-0.4804687 -0.5625,-0.8320312 -1.2773437,-0.8320312 -0.703125,0 -1.2421875,0.3164062 -1.2421875,0.8085937 0,0.2578125 0.19921875,0.328125 0.31640625,0.328125 0.16406245,0 0.32812495,-0.1054687 0.32812495,-0.3164062 0,-0.1875 -0.140625,-0.2929688 -0.2929687,-0.3164063 0.2695312,-0.3046875 0.8203125,-0.3046875 0.8671875,-0.3046875 0.3046875,0 0.6914062,0.140625 0.6914062,0.6328125 0,0.328125 -0.1875,0.9023438 -0.7851562,0.9375 -0.1054688,0.011719 -0.2695313,0.023437 -0.3164063,0.023437 -0.058594,0 -0.1289062,0.011719 -0.1289062,0.1054688 0,0.09375 0.070312,0.09375 0.1640625,0.09375 z m 0,0"
       style="fill:#000000;fill-opacity:1;fill-rule:nonzero;stroke:none"
       aria-label="3"
       transform="matrix(1.3333333,0,0,1.3333333,148.96933,128.68267)" />
    <path
       id="path31"
       d="m 170.15808,20.59004 h 53.85893 v 22.67743 h -53.85893 z"
       style="fill:#f3f3ff;fill-opacity:1;fill-rule:nonzero;stroke:#a988e5;stroke-width:0.74721;stroke-linecap:butt;stroke-linejoin:miter;stroke-miterlimit:10;stroke-dasharray:none;stroke-opacity:1"
       transform="matrix(1.3333333,0,0,-1.3333333,52.02,81.362667)" />
    <path
       id="path32"
       d="m 2.4027891,-3.9140547 c -1.0195313,0.234375 -2.01562504,1.3007813 -2.01562504,2.484375 0,0.99609376 0.70312504,1.53515626 1.47656254,1.53515626 1.0429687,0 1.8164062,-1.35937496 1.8164062,-2.63671876 0,-0.8203125 -0.3867187,-1.3007812 -0.6679687,-1.640625 -0.3164063,-0.3867187 -0.890625,-1.1015625 -0.890625,-1.5 0,-0.1523437 0.1054687,-0.3984375 0.4921875,-0.3984375 0.2695312,0 0.4570312,0.1054688 0.6445312,0.234375 0.1171875,0.070312 0.3867188,0.234375 0.515625,0.234375 0.1875,0 0.3632813,-0.1757812 0.3632813,-0.3632812 0,-0.1992188 -0.1171875,-0.234375 -0.5390625,-0.3164063 -0.4453125,-0.1054687 -0.5976563,-0.1054687 -0.7265625,-0.1054687 -0.9023438,0 -1.03125,0.6445312 -1.03125,0.9257812 0,0.4453125 0.28125,1.0546875 0.5625,1.546875 z m 0.1289062,0.2226563 c 0.46875,0.8320312 0.4921875,1.2304687 0.4921875,1.5351562 0,0.6796875 -0.375,2.03906251 -1.171875,2.03906251 -0.3867187,0 -0.87890624,-0.24609375 -0.87890624,-1.05468751 0,-0.5742187 0.31640624,-2.1796875 1.55859374,-2.5195312 z m 0,0"
       style="fill:#000000;fill-opacity:1;fill-rule:nonzero;stroke:none"
       aria-label="δ"
       transform="matrix(1.3333333,0,0,1.3333333,309.308,42.277333)" />
    <path
       id="path33"
       d="m 2.1448906,-3.7977734 c 0,-0.1757813 -0.023437,-0.1757813 -0.1992187,-0.1757813 -0.3984375,0.375 -1.00781253,0.375 -1.21875003,0.375 v 0.234375 c 0.15234375,0 0.55078123,0 0.90234373,-0.1640625 v 3.02343751 c 0,0.1875 0,0.26953125 -0.609375,0.26953125 H 0.76207812 V -8.984375e-4 C 1.0902031,-0.02433594 1.5589531,-0.02433594 1.8870781,-0.02433594 c 0.3398438,0 0.796875,0 1.1367188,0.0234375025 V -0.23527344 H 2.7659844 c -0.6210938,0 -0.6210938,-0.0820313 -0.6210938,-0.26953125 z m 0,0"
       style="fill:#000000;fill-opacity:1;fill-rule:nonzero;stroke:none"
       aria-label="1"
       transform="matrix(1.3333333,0,0,1.3333333,314.75733,43.606667)" />
    <path
       id="path34"
       d="m 170.15808,-43.26747 h 53.85893 v 22.67743 h -53.85893 z"
       style="fill:#f3f3ff;fill-opacity:1;fill-rule:nonzero;stroke:#a988e5;stroke-width:0.74721;stroke-linecap:butt;stroke-linejoin:miter;stroke-miterlimit:10;stroke-dasharray:none;stroke-opacity:1"
       transform="matrix(1.3333333,0,0,-1.3333333,52.02,81.362667)" />
    <path
       id="path35"
       d="m 2.4027891,-3.9126562 c -1.0195313,0.234375 -2.01562504,1.3007812 -2.01562504,2.484375 0,0.9960937 0.70312504,1.5351562 1.47656254,1.5351562 1.0429687,0 1.8164062,-1.359375 1.8164062,-2.6367187 0,-0.8203125 -0.3867187,-1.3007813 -0.6679687,-1.640625 -0.3164063,-0.3867188 -0.890625,-1.1015625 -0.890625,-1.5 0,-0.1523438 0.1054687,-0.3984375 0.4921875,-0.3984375 0.2695312,0 0.4570312,0.1054687 0.6445312,0.234375 0.1171875,0.070312 0.3867188,0.234375 0.515625,0.234375 0.1875,0 0.3632813,-0.1757813 0.3632813,-0.3632813 0,-0.1992187 -0.1171875,-0.234375 -0.5390625,-0.3164062 -0.4453125,-0.1054688 -0.5976563,-0.1054688 -0.7265625,-0.1054688 -0.9023438,0 -1.03125,0.6445313 -1.03125,0.9257813 0,0.4453125 0.28125,1.0546875 0.5625,1.546875 z M 2.5316953,-3.69 c 0.46875,0.8320313 0.4921875,1.2304688 0.4921875,1.5351563 0,0.6796875 -0.375,2.03906245 -1.171875,2.03906245 -0.3867187,0 -0.87890624,-0.24609375 -0.87890624,-1.05468745 0,-0.5742188 0.31640624,-2.1796875 1.55859374,-2.5195313 z m 0,0"
       style="fill:#000000;fill-opacity:1;fill-rule:nonzero;stroke:none"
       aria-label="δ"
       transform="matrix(1.3333333,0,0,1.3333333,309.308,127.42)" />
    <path
       id="path36"
       d="m 1.7581719,-1.9818984 c 0.5039062,0 0.84375,0.3398437 0.84375,0.9492187 0,0.65625001 -0.3867188,0.93750001 -0.8320313,0.93750001 -0.1523437,0 -0.77343748,-0.03515625 -1.04296873,-0.375 0.234375,-0.0234375 0.32812503,-0.1875 0.32812503,-0.33984375 0,-0.21093746 -0.14062503,-0.33984376 -0.33984378,-0.33984376 -0.1640625,0 -0.33984375,0.09375 -0.33984375,0.35156251 0,0.5859375 0.65625003,0.92578125 1.41796873,0.92578125 0.8789063,0 1.4765625,-0.57421875 1.4765625,-1.16015626 0,-0.4335937 -0.3398437,-0.9023437 -1.0429687,-1.078125 0.46875,-0.1523437 0.8554687,-0.5390625 0.8554687,-1.03125 0,-0.4804687 -0.5625,-0.8320312 -1.2773437,-0.8320312 -0.703125,0 -1.24218753,0.3164062 -1.24218753,0.8085937 0,0.2578125 0.19921875,0.328125 0.31640625,0.328125 0.16406248,0 0.32812498,-0.1054687 0.32812498,-0.3164062 0,-0.1875 -0.140625,-0.2929688 -0.29296873,-0.3164063 0.26953123,-0.3046875 0.82031253,-0.3046875 0.86718753,-0.3046875 0.3046875,0 0.6914062,0.140625 0.6914062,0.6328125 0,0.328125 -0.1875,0.9023438 -0.7851562,0.9375 -0.1054688,0.011719 -0.2695313,0.023437 -0.3164063,0.023437 -0.058594,0 -0.1289062,0.011719 -0.1289062,0.1054688 0,0.09375 0.070312,0.09375 0.1640625,0.09375 z m 0,0"
       style="fill:#000000;fill-opacity:1;fill-rule:nonzero;stroke:none"
       aria-label="3"
       transform="matrix(1.3333333,0,0,1.3333333,314.75733,128.748)" />
    <path
       id="path37"
       d="M 4.6300625,-6.953125e-4 V -0.63350781 H 4.231625 l -2.1796875,0.0234375 H 1.7120938 V -6.2233516 H 0.856625 V -6.953125e-4 Z M 9.3439297,-1.9694453 c 0,-1.1835938 -0.890625,-2.1679688 -2.0273438,-2.1679688 -1.1132812,0 -2.0273437,0.9726563 -2.0273437,2.1679688 0,1.18359374 0.9375,2.06249999 2.0273437,2.06249999 1.1132813,0 2.0273438,-0.90234375 2.0273438,-2.06249999 z m -0.7382813,-0.09375 c 0,1.0429687 -0.6328125,1.54687499 -1.2773437,1.54687499 -0.6914063,0 -1.3007813,-0.53906249 -1.3007813,-1.54687499 0,-1.0429688 0.6796875,-1.4882813 1.2890625,-1.4882813 0.6445313,0 1.2890625,0.4570313 1.2890625,1.4882813 z m 4.3417966,0.9023437 c 0,-0.3046875 -0.128906,-0.6210937 -0.433593,-0.890625 -0.304688,-0.2578125 -0.574219,-0.3164062 -1.136719,-0.421875 -0.316406,-0.058594 -0.773438,-0.140625 -0.773438,-0.5625 0,-0.5273437 0.644532,-0.5273437 0.773438,-0.5273437 0.65625,0 1.042969,0.1992187 1.300781,0.3398437 l 0.117188,-0.6210937 c -0.550782,-0.2578125 -0.972657,-0.2929688 -1.335938,-0.2929688 -0.210937,0 -1.5234374,0 -1.5234374,1.1835938 0,0.4335937 0.2578124,0.703125 0.3632814,0.796875 0.339844,0.3046875 0.574219,0.3398437 1.183594,0.4570312 0.28125,0.058594 0.796875,0.1523438 0.796875,0.609375 0,0.58593754 -0.726563,0.58593754 -0.84375,0.58593754 -0.527344,0 -1.042969,-0.17578125 -1.429688,-0.4453125 l -0.1171874,0.65625 c 0.5390624,0.28125 1.0898434,0.38671875 1.5468754,0.38671875 0.574218,0 1.511718,-0.1875 1.511718,-1.25390629 z m 3.530274,0 c 0,-0.3046875 -0.128907,-0.6210937 -0.433594,-0.890625 -0.304687,-0.2578125 -0.574219,-0.3164062 -1.136719,-0.421875 -0.316406,-0.058594 -0.773437,-0.140625 -0.773437,-0.5625 0,-0.5273437 0.644531,-0.5273437 0.773437,-0.5273437 0.65625,0 1.042969,0.1992187 1.300781,0.3398437 l 0.117188,-0.6210937 c -0.550781,-0.2578125 -0.972656,-0.2929688 -1.335937,-0.2929688 -0.210938,0 -1.523438,0 -1.523438,1.1835938 0,0.4335937 0.257813,0.703125 0.363281,0.796875 0.339844,0.3046875 0.574219,0.3398437 1.183594,0.4570312 0.28125,0.058594 0.796875,0.1523438 0.796875,0.609375 0,0.58593754 -0.726562,0.58593754 -0.84375,0.58593754 -0.527344,0 -1.042969,-0.17578125 -1.429687,-0.4453125 l -0.117188,0.65625 c 0.539063,0.28125 1.089844,0.38671875 1.546875,0.38671875 0.574219,0 1.511719,-0.1875 1.511719,-1.25390629 z m 4.048828,-0.8085937 c 0,-0.2695313 -0.01172,-0.9492188 -0.363281,-1.4882813 -0.375,-0.5625 -0.949219,-0.6796875 -1.289063,-0.6796875 -1.042969,0 -1.863281,0.9609375 -1.863281,2.109375 0,1.18359379 0.878906,2.12109379 1.992187,2.12109379 0.433594,0 0.949219,-0.10546875 1.476563,-0.43359375 l -0.05859,-0.62109375 c -0.5625,0.41015625 -1.089844,0.48046875 -1.40625,0.48046875 -0.738281,0 -1.3125,-0.65625004 -1.347656,-1.48828124 z m -0.539063,-0.5273438 h -2.261718 c 0.140625,-0.5742187 0.585937,-1.0546875 1.148437,-1.0546875 0.328125,0 0.9375,0.1523438 1.113281,1.0546875 z m 4.122071,1.3359375 c 0,-0.3046875 -0.128907,-0.6210937 -0.433594,-0.890625 -0.304688,-0.2578125 -0.574219,-0.3164062 -1.136719,-0.421875 -0.316406,-0.058594 -0.773437,-0.140625 -0.773437,-0.5625 0,-0.5273437 0.644531,-0.5273437 0.773437,-0.5273437 0.65625,0 1.042969,0.1992187 1.300781,0.3398437 l 0.117188,-0.6210937 c -0.550781,-0.2578125 -0.972656,-0.2929688 -1.335938,-0.2929688 -0.210937,0 -1.523437,0 -1.523437,1.1835938 0,0.4335937 0.257812,0.703125 0.363281,0.796875 0.339844,0.3046875 0.574219,0.3398437 1.183594,0.4570312 0.28125,0.058594 0.796875,0.1523438 0.796875,0.609375 0,0.58593754 -0.726563,0.58593754 -0.84375,0.58593754 -0.527344,0 -1.042969,-0.17578125 -1.429688,-0.4453125 l -0.117187,0.65625 c 0.539062,0.28125 1.089844,0.38671875 1.546875,0.38671875 0.574219,0 1.511719,-0.1875 1.511719,-1.25390629 z m 0,0"
       style="fill:#000000;fill-opacity:1;fill-rule:nonzero;stroke:none"
       aria-label="Losses"
       transform="matrix(1.3333333,0,0,1.3333333,83.545333,14.317333)" />
    <path
       id="path38"
       d="M 5.5091094,-0.33992969 V -2.6836797 H 3.5637969 v 0.5742188 h 1.1953125 v 1.41796871 c -0.3867188,0.1171875 -0.7851563,0.17578125 -1.1953125,0.17578125 -0.5742188,0 -1.1132813,-0.3046875 -1.4882813,-0.76171876 -0.421875,-0.515625 -0.6210937,-1.171875 -0.6210937,-1.828125 0,-0.6796875 0.1992187,-1.3359375 0.6210937,-1.8398437 0.375,-0.4570313 0.9140625,-0.7617188 1.4882813,-0.7617188 0.3164062,0 0.6328125,0.035156 0.9140625,0.1289063 0.3164062,0.1054687 0.5742187,0.28125 0.8203125,0.4804687 l 0.140625,-0.7851562 c -0.2929688,-0.140625 -0.5976563,-0.2695313 -0.9140625,-0.3398438 -0.3046875,-0.070312 -0.6328125,-0.09375 -0.9609375,-0.09375 -0.796875,0 -1.5585938,0.3515625 -2.0976563,0.9375 -0.57421873,0.609375 -0.87890623,1.4296875 -0.87890623,2.2734375 0,0.8320313 0.3046875,1.640625 0.87890623,2.26171876 0.5390625,0.59765625 1.3007813,0.9375 2.0976563,0.9375 0.6796875,0 1.3359375,-0.15234375 1.9453125,-0.43359375 z M 9.1536406,-3.4336797 v -0.6445312 c -0.6445312,0.011719 -1.2421875,0.328125 -1.6054687,0.8554687 V -4.0313359 H 6.8802031 V -8.59375e-5 H 7.6067656 V -1.9102422 c 0,-0.9375 0.7265625,-1.5117187 1.546875,-1.5234375 z M 13.073562,-8.59375e-5 V -2.5899297 c 0,-0.890625 -0.65625,-1.546875 -1.546875,-1.546875 -0.574218,0 -1.007812,0.1523438 -1.441406,0.3984375 l 0.05859,0.6328125 c 0.445312,-0.328125 0.878906,-0.4570312 1.371094,-0.4570312 0.503906,0 0.808593,0.3984375 0.808593,0.984375 v 0.375 c -1.535156,0.035156 -2.554687,0.4335937 -2.554687,1.1601562 0,0.42187501 0.28125,1.13671876 1.066406,1.13671876 0.175781,0 0.949219,-0.01171875 1.523438,-0.43359375 V -8.59375e-5 Z m -0.75,-1.2539062625 c 0,0.1875 0,0.41015626 -0.316406,0.59765626 -0.222656,0.140625 -0.527344,0.17578125 -0.703125,0.17578125 -0.457031,0 -0.84375,-0.22265625 -0.84375,-0.57421871 0,-0.6445313 1.746094,-0.6679688 1.863281,-0.6679688 z M 17.725906,-8.59375e-5 V -6.2227422 h -0.714844 v 2.6367188 c -0.503906,-0.421875 -1.078125,-0.4921875 -1.371093,-0.4921875 -0.902344,0 -1.59375,0.9375 -1.59375,2.0859375 0,1.16015621 0.679687,2.08593746 1.558593,2.08593746 0.269532,0 0.84375,-0.05859375 1.371094,-0.5625 V -8.59375e-5 Z m -0.75,-1.2656249625 c 0,0.1757812 0,0.1875 -0.09375,0.31640621 -0.246094,0.31640625 -0.550781,0.46875 -0.867187,0.46875 -0.585938,0 -1.230469,-0.421875 -1.230469,-1.50000001 0,-1.1484375 0.761719,-1.5117187 1.324219,-1.5117187 0.410156,0 0.703125,0.234375 0.867187,0.4570312 z M 19.931961,-8.59375e-5 V -3.9844609 H 19.217117 V -8.59375e-5 Z M 20.013992,-5.0508672 v -0.8554687 h -0.867187 v 0.8554687 z m 4.494141,3.0820313 c 0,-0.2695313 -0.01172,-0.9492188 -0.363281,-1.4882813 -0.375,-0.5625 -0.949219,-0.6796875 -1.289063,-0.6796875 -1.042969,0 -1.863281,0.9609375 -1.863281,2.109375 0,1.18359376 0.878906,2.12109376 1.992187,2.12109376 0.433594,0 0.949219,-0.10546875 1.476563,-0.43359375 l -0.05859,-0.62109375 c -0.5625,0.41015625 -1.089844,0.48046875 -1.40625,0.48046875 -0.738281,0 -1.3125,-0.65625001 -1.347656,-1.48828121 z M 23.96907,-2.4961797 h -2.261718 c 0.140625,-0.5742187 0.585937,-1.0546875 1.148437,-1.0546875 0.328125,0 0.9375,0.1523438 1.113281,1.0546875 z M 28.794266,-8.59375e-5 V -2.6602422 c 0,-0.6679687 -0.175782,-1.4179687 -1.253907,-1.4179687 -0.714843,0 -1.148437,0.4101562 -1.347656,0.6796875 V -4.0313359 H 25.501297 V -8.59375e-5 h 0.738281 V -2.1914922 c 0,-0.5859375 0.234375,-1.3007812 0.914063,-1.3007812 0.902343,0 0.902343,0.6328125 0.902343,0.890625 V -8.59375e-5 Z m 3.811523,-0.2343750025 -0.152344,-0.5625 c -0.234375,0.17578125 -0.550781,0.28125 -0.832031,0.28125 -0.351562,0 -0.46875,-0.3046875 -0.46875,-0.77343746 v -2.1328125 h 1.300781 v -0.5625 h -1.300781 v -1.1367188 h -0.65625 v 1.1367188 h -0.785156 v 0.5625 h 0.761719 v 2.296875 c 0,0.52734371 0.117187,1.21874996 0.761718,1.21874996 0.398438,0 0.867188,-0.0703125 1.371094,-0.328125 z m 3.571289,-0.92578126 c 0,-0.3046875 -0.128906,-0.6210937 -0.433594,-0.890625 -0.304687,-0.2578125 -0.574218,-0.3164062 -1.136718,-0.421875 -0.316407,-0.058594 -0.773438,-0.140625 -0.773438,-0.5625 0,-0.5273437 0.644531,-0.5273437 0.773438,-0.5273437 0.65625,0 1.042968,0.1992187 1.300781,0.3398437 l 0.117187,-0.6210937 c -0.550781,-0.2578125 -0.972656,-0.2929688 -1.335937,-0.2929688 -0.210938,0 -1.523438,0 -1.523438,1.1835938 0,0.4335937 0.257813,0.703125 0.363282,0.796875 0.339843,0.3046875 0.574218,0.3398437 1.183593,0.4570312 0.28125,0.058594 0.796875,0.1523438 0.796875,0.609375 0,0.58593751 -0.726562,0.58593751 -0.84375,0.58593751 -0.527343,0 -1.042968,-0.17578125 -1.429687,-0.4453125 l -0.117188,0.65625 c 0.539063,0.28125 1.089844,0.38671875 1.546875,0.38671875 0.574219,0 1.511719,-0.1875 1.511719,-1.25390626 z m 0,0"
       style="fill:#000000;fill-opacity:1;fill-rule:nonzero;stroke:none"
       aria-label="Gradients"
       transform="matrix(1.3333333,0,0,1.3333333,290.53733,14.449333)" />
    <path
       id="path39"
       d="m 4.5927109,-1.7106797 c 0,-1.0195312 -0.8320312,-1.6757812 -1.5,-1.8398437 L 2.1903672,-3.7614609 c -0.4570313,-0.1054688 -0.9140625,-0.46875 -0.9140625,-0.984375 0,-0.515625 0.4921875,-1.03125 1.3007812,-1.03125 0.6445313,0 1.1015625,0.1875 1.5585938,0.5742187 L 4.2880234,-5.9763047 C 3.8309922,-6.1989609 3.4091172,-6.4216172 2.5888047,-6.4216172 c -1.2773438,0 -2.07421876,0.890625 -2.07421876,1.78125 0,0.234375 0.0351563,0.5859375 0.33984375,0.9960938 0.42187501,0.5390625 0.99609371,0.6796875 1.37109371,0.7617187 l 0.75,0.1992188 c 0.4101563,0.1171875 0.8554688,0.515625 0.8554688,1.0664062 0,0.5976563 -0.5039063,1.14843751 -1.3007813,1.14843751 -0.7265625,0 -1.40625,-0.26953125 -1.98046871,-0.73828121 l -0.140625,0.78515621 C 1.2880234,0.12916406 2.1083359,0.19947656 2.5302109,0.19947656 c 1.2304688,0 2.0625,-0.9140625 2.0625,-1.91015626 z M 9.1395859,2.578125e-4 V -3.9841172 H 8.4013047 v 2.5898438 c 0,0.72656246 -0.5625,0.96093746 -1.1015625,0.96093746 -0.6445313,0 -0.7148438,-0.19921875 -0.7148438,-0.58593746 V -3.9841172 H 5.8466172 v 3.01171876 c 0,0.76171875 0.3046875,1.06640625 0.9375,1.06640625 0.5273437,0 1.21875,-0.15234375 1.640625,-0.52734375 V 2.578125e-4 Z m 7.3271481,0 V -2.6598984 c 0,-0.6679688 -0.1875,-1.4179688 -1.265625,-1.4179688 -0.761718,0 -1.183593,0.4570313 -1.394531,0.7382813 -0.05859,-0.1875 -0.246094,-0.7382813 -1.160156,-0.7382813 -0.714844,0 -1.148438,0.4101563 -1.347656,0.6796875 V -4.0309922 H 10.607359 V 2.578125e-4 h 0.738282 V -2.1911484 c 0,-0.5859375 0.234375,-1.3007813 0.914062,-1.3007813 0.902344,0 0.902344,0.6328125 0.902344,0.890625 V 2.578125e-4 h 0.738281 V -2.1911484 c 0,-0.5859375 0.234375,-1.3007813 0.925781,-1.3007813 0.890625,0 0.890625,0.6328125 0.890625,0.890625 V 2.578125e-4 Z m 0,0"
       style="fill:#000000;fill-opacity:1;fill-rule:nonzero;stroke:none"
       aria-label="Sum"
       transform="matrix(1.3333333,0,0,1.3333333,436.61467,57.152)" />
    <path
       id="path40"
       d="M 27.30307,31.92876 H 39.11073"
       style="fill:none;stroke:#808080;stroke-width:0.99628;stroke-linecap:butt;stroke-linejoin:miter;stroke-miterlimit:10;stroke-dasharray:none;stroke-opacity:1"
       transform="matrix(1.3333333,0,0,-1.3333333,52.02,81.362667)" />
    <path
       id="path41"
       d="M 5.20058,0 C 3.65962,0.28891 1.15567,1.15567 -0.57784,2.1669 V -2.1669 C 1.15567,-1.15567 3.65962,-0.28891 5.20058,0"
       style="fill:#808080;fill-opacity:1;fill-rule:nonzero;stroke:none"
       transform="matrix(1.3333333,0,0,-1.3333333,104.16764,38.790987)" />
    <path
       id="path42"
       d="M 98.91745,31.92876 H 164.5839"
       style="fill:none;stroke:#808080;stroke-width:0.99628;stroke-linecap:butt;stroke-linejoin:miter;stroke-miterlimit:10;stroke-dasharray:none;stroke-opacity:1"
       transform="matrix(1.3333333,0,0,-1.3333333,52.02,81.362667)" />
    <path
       id="path43"
       d="M 5.20058,0 C 3.65962,0.28891 1.15567,1.15567 -0.57784,2.1669 V -2.1669 C 1.15567,-1.15567 3.65962,-0.28891 5.20058,0"
       style="fill:#808080;fill-opacity:1;fill-rule:nonzero;stroke:none"
       transform="matrix(1.3333333,0,0,-1.3333333,271.4652,38.790987)" />
    <path
       id="path44"
       d="m 1.5245156,-3.6547891 c 0.1640625,-0.234375 0.4921875,-0.4101562 0.9140625,-0.4101562 0.5976563,0 1.0546875,0.3867187 1.0546875,1.1484375 0,0.1171875 -0.011719,0.3632812 -0.1289062,0.890625 -0.140625,-0.4453125 -0.5039063,-0.703125 -0.9726563,-0.703125 -0.2460937,0 -0.7734375,0.011719 -1.39453122,0.5625 -0.5625,0.5039062 -0.5625,1.1132812 -0.5625,1.18359374 0,0.3046875 0.15234375,0.57421875 0.3984375,0.796875 0.25781252,0.24609375 0.58593752,0.31640625 0.93750002,0.31640625 1.6757812,0 2.2617187,-2.01562499 2.2617187,-2.75390629 0,-0.9726562 -0.65625,-1.6523437 -1.5703125,-1.6523437 -1.0429687,0 -1.3007812,0.7851562 -1.3007812,0.9609375 0,0.1054687 0.070312,0.234375 0.2460937,0.234375 0.2226563,0 0.3398438,-0.1875 0.3398438,-0.3398438 0,-0.1875 -0.1875,-0.2226562 -0.2226563,-0.234375 z m 0.2578125,3.56250004 c -0.7382812,0 -0.79687497,-0.5390625 -0.79687497,-0.703125 0,-0.09375 0.09375,-0.85546874 0.37499997,-1.20703124 0.2109375,-0.28125 0.5390625,-0.5273438 1.0429688,-0.5273438 0.6445312,0 0.8203125,0.4804688 0.8203125,0.8085938 0,0.3867187 -0.3867188,1.62890624 -1.4414063,1.62890624 z m 0,0"
       style="fill:#000000;fill-opacity:1;fill-rule:nonzero;stroke:none"
       aria-label="∂"
       transform="matrix(1.3333333,0,0,1.3333333,222.272,24.361333)" />
    <path
       id="path45"
       d="m 4.6536406,-0.90088281 c -0.1875,0.0117188 -0.515625,0.1640625 -0.5859375,0.375 -0.070312,0.22265625 -0.140625,0.234375 -0.3046875,0.234375 -0.3398437,0 -0.7851562,-0.09375 -0.9609375,-0.140625 -0.4335937,-0.09375 -0.796875,-0.17578125 -1.1601562,-0.17578125 -0.011719,0 -0.1523438,0 -0.2460938,0.0234375 0.3398438,-0.46875004 0.4335938,-0.84375004 0.5039063,-1.12500004 0.3164062,-1.21875 0.6914062,-1.7226562 0.8671875,-1.8984375 0.1171875,-0.1054687 0.1757812,-0.1757812 0.4101562,-0.1757812 0.4101563,0 0.5273438,0.3046875 0.5273438,0.5039062 0,0.070312 -0.023437,0.140625 -0.023437,0.1640625 0,0.046875 0.035156,0.058594 0.058594,0.058594 0.140625,0 0.3046875,-0.09375 0.3984375,-0.1640625 0.1523438,-0.1054688 0.1992188,-0.1757813 0.1992188,-0.3867188 0,-0.3515625 -0.2578125,-0.5976562 -0.6328125,-0.5976562 -0.5390625,0 -1.1132813,0.3046875 -1.5117188,0.7617187 -0.5625,0.6328125 -0.8203125,1.6523438 -0.9257812,2.0390625 -0.058594,0.1992188 -0.1289063,0.49218754 -0.31640627,0.80859379 -0.1640625,0.24609375 -0.24609375,0.328125 -0.36328125,0.41015625 -0.0234375,0.0234375 -0.19921875,0.17578125 -0.19921875,0.2578125 0,0.01171875 0,0.05859375 0.0703125,0.05859375 0.1171875,0 0.29296875,-0.08203125 0.515625,-0.26953125 0.0585938,-0.046875 0.0703125,-0.046875 0.15234377,-0.046875 0.328125,0 0.7148437,0.0820313 1.1484375,0.17578125 0.2109375,0.046875 0.609375,0.140625 0.9609375,0.140625 0.8320312,0 1.4765625,-0.69140625 1.4765625,-0.97265625 0,-0.046875 -0.046875,-0.0585938 -0.058595,-0.058594 z m 0,0"
       style="fill:#000000;fill-opacity:1;fill-rule:nonzero;stroke:none"
       aria-label="L"
       transform="matrix(1.3333333,0,0,1.3333333,228.03733,24.361333)" />
    <path
       id="path46"
       d="m 1.9802109,-3.1651641 c 0,-0.1523437 -0.011719,-0.1523437 -0.1757812,-0.1523437 -0.3515625,0.3164062 -0.90234376,0.3164062 -1.00781251,0.3164062 h -0.0820313 v 0.2226563 h 0.0820313 c 0.1171875,0 0.43359371,-0.011719 0.72656251,-0.140625 v 2.48437499 c 0,0.1640625 0,0.2109375 -0.52734376,0.2109375 H 0.74974219 v 0.22265625 c 0.26953121,-0.0234375 0.71484371,-0.0234375 1.00781251,-0.0234375 0.28125,0 0.7265625,0 0.9960937,0.0234375 V -0.22375781 H 2.5075547 c -0.5273438,0 -0.5273438,-0.046875 -0.5273438,-0.2109375 z m 0,0"
       style="fill:#000000;fill-opacity:1;fill-rule:nonzero;stroke:none"
       aria-label="1"
       transform="matrix(1.3333333,0,0,1.3333333,234.848,25.896)" />
    <path
       id="path47"
       d="M 0,0 H 13.321"
       style="fill:none;stroke:#000000;stroke-width:0.379;stroke-linecap:butt;stroke-linejoin:miter;stroke-miterlimit:10;stroke-dasharray:none;stroke-opacity:1"
       transform="matrix(1.3333333,0,0,-1.3333333,222.272,26.653333)" />
    <path
       id="path48"
       d="m 1.5236484,-3.6568359 c 0.1640625,-0.234375 0.4921875,-0.4101563 0.9140625,-0.4101563 0.5976563,0 1.0546875,0.3867188 1.0546875,1.1484375 0,0.1171875 -0.011719,0.3632813 -0.1289062,0.890625 -0.140625,-0.4453125 -0.5039063,-0.703125 -0.9726563,-0.703125 -0.2460937,0 -0.7734375,0.011719 -1.39453121,0.5625 -0.5625,0.5039063 -0.5625,1.1132813 -0.5625,1.18359376 0,0.3046875 0.15234375,0.57421875 0.3984375,0.796875 0.25781251,0.24609375 0.58593751,0.31640625 0.93750001,0.31640625 1.6757812,0 2.2617187,-2.01562501 2.2617187,-2.75390621 0,-0.9726563 -0.65625,-1.6523438 -1.5703125,-1.6523438 -1.0429687,0 -1.3007812,0.7851563 -1.3007812,0.9609375 0,0.1054688 0.070312,0.234375 0.2460937,0.234375 0.2226563,0 0.3398438,-0.1875 0.3398438,-0.3398437 0,-0.1875 -0.1875,-0.2226563 -0.2226563,-0.234375 z m 0.2578125,3.56249996 c -0.7382812,0 -0.79687496,-0.5390625 -0.79687496,-0.703125 0,-0.09375 0.09375,-0.85546876 0.37499996,-1.20703126 0.2109375,-0.28125 0.5390625,-0.5273437 1.0429688,-0.5273437 0.6445312,0 0.8203125,0.4804687 0.8203125,0.8085937 0,0.3867188 -0.3867188,1.62890626 -1.4414063,1.62890626 z M 7.6818516,-2.3443359 c -0.2109375,0.058594 -0.2578125,0.2226562 -0.2578125,0.3164062 0,0.1875 0.1523437,0.234375 0.2460937,0.234375 0.1640625,0 0.3398438,-0.140625 0.3398438,-0.375 0,-0.328125 -0.3515625,-0.46875 -0.65625,-0.46875 -0.3984375,0 -0.6328125,0.3046875 -0.703125,0.421875 -0.070312,-0.1523437 -0.3046875,-0.421875 -0.75,-0.421875 -0.6914063,0 -1.0898438,0.7148438 -1.0898438,0.9257813 0,0.023437 0.023437,0.082031 0.1054688,0.082031 0.082031,0 0.1054687,-0.035156 0.1171875,-0.09375 0.1523437,-0.4804687 0.5625,-0.7148437 0.8554687,-0.7148437 0.2929688,0 0.375,0.1875 0.375,0.3867187 0,0.070312 0,0.1289063 -0.046875,0.3164063 -0.140625,0.5507812 -0.2695312,1.08984371 -0.2929687,1.17187496 -0.09375,0.22265625 -0.3046875,0.421875 -0.5625,0.421875 -0.035156,0 -0.1992188,0 -0.3398438,-0.0820313 0.234375,-0.0820313 0.2578125,-0.28125 0.2578125,-0.328125 0,-0.15234375 -0.1171875,-0.234375 -0.234375,-0.234375 -0.1757812,0 -0.3515625,0.12890625 -0.3515625,0.375 0,0.33984375 0.375,0.46875 0.65625,0.46875 0.3398438,0 0.5859375,-0.234375 0.703125,-0.421875 0.1171875,0.2578125 0.4101563,0.421875 0.75,0.421875 0.703125,0 1.0898438,-0.7265625 1.0898438,-0.9140625 0,-0.0117188 0,-0.09375 -0.1054688,-0.09375 -0.082031,0 -0.09375,0.046875 -0.1171875,0.10546875 -0.1757812,0.515625 -0.5976562,0.703125 -0.84375,0.703125 -0.234375,0 -0.3867187,-0.12890625 -0.3867187,-0.375 0,-0.1171875 0.023437,-0.24609375 0.082031,-0.45703125 l 0.1875,-0.77343756 c 0.058594,-0.234375 0.09375,-0.3398437 0.2109375,-0.4921875 0.082031,-0.082031 0.234375,-0.1992187 0.421875,-0.1992187 0.035156,0 0.2109375,0 0.339844,0.09375 z m 0,0"
       style="fill:#000000;fill-opacity:1;fill-rule:nonzero;stroke:none"
       aria-label="∂x"
       transform="matrix(1.3333333,0,0,1.3333333,225.488,33.7)" />
    <path
       id="path49"
       d="M 27.30307,0 H 39.11073"
       style="fill:none;stroke:#808080;stroke-width:0.99628;stroke-linecap:butt;stroke-linejoin:miter;stroke-miterlimit:10;stroke-dasharray:none;stroke-opacity:1"
       transform="matrix(1.3333333,0,0,-1.3333333,52.02,81.362667)" />
    <path
       id="path50"
       d="M 5.20058,0 C 3.65962,0.28891 1.15567,1.15567 -0.57784,2.1669 V -2.1669 C 1.15567,-1.15567 3.65962,-0.28891 5.20058,0"
       style="fill:#808080;fill-opacity:1;fill-rule:nonzero;stroke:none"
       transform="matrix(1.3333333,0,0,-1.3333333,104.16764,81.362667)" />
    <path
       id="path51"
       d="M 98.91745,0 H 164.5839"
       style="fill:none;stroke:#808080;stroke-width:0.99628;stroke-linecap:butt;stroke-linejoin:miter;stroke-miterlimit:10;stroke-dasharray:none;stroke-opacity:1"
       transform="matrix(1.3333333,0,0,-1.3333333,52.02,81.362667)" />
    <path
       id="path52"
       d="M 5.20058,0 C 3.65962,0.28891 1.15567,1.15567 -0.57784,2.1669 V -2.1669 C 1.15567,-1.15567 3.65962,-0.28891 5.20058,0"
       style="fill:#808080;fill-opacity:1;fill-rule:nonzero;stroke:none"
       transform="matrix(1.3333333,0,0,-1.3333333,271.4652,81.362667)" />
    <path
       id="path53"
       d="m 1.5245156,-3.6560547 c 0.1640625,-0.234375 0.4921875,-0.4101562 0.9140625,-0.4101562 0.5976563,0 1.0546875,0.3867187 1.0546875,1.1484375 0,0.1171875 -0.011719,0.3632812 -0.1289062,0.890625 -0.140625,-0.4453125 -0.5039063,-0.703125 -0.9726563,-0.703125 -0.2460937,0 -0.7734375,0.011719 -1.39453122,0.5625 -0.5625,0.5039062 -0.5625,1.1132812 -0.5625,1.18359371 0,0.3046875 0.15234375,0.57421875 0.3984375,0.796875 0.25781252,0.24609375 0.58593752,0.31640625 0.93750002,0.31640625 1.6757812,0 2.2617187,-2.01562496 2.2617187,-2.75390626 0,-0.9726562 -0.65625,-1.6523437 -1.5703125,-1.6523437 -1.0429687,0 -1.3007812,0.7851562 -1.3007812,0.9609375 0,0.1054687 0.070312,0.234375 0.2460937,0.234375 0.2226563,0 0.3398438,-0.1875 0.3398438,-0.3398438 0,-0.1875 -0.1875,-0.2226562 -0.2226563,-0.234375 z m 0.2578125,3.56250001 c -0.7382812,0 -0.79687497,-0.5390625 -0.79687497,-0.703125 0,-0.09375 0.09375,-0.85546871 0.37499997,-1.20703121 0.2109375,-0.28125 0.5390625,-0.5273438 1.0429688,-0.5273438 0.6445312,0 0.8203125,0.4804688 0.8203125,0.8085938 0,0.3867187 -0.3867188,1.62890621 -1.4414063,1.62890621 z m 0,0"
       style="fill:#000000;fill-opacity:1;fill-rule:nonzero;stroke:none"
       aria-label="∂"
       transform="matrix(1.3333333,0,0,1.3333333,222.272,66.933333)" />
    <path
       id="path54"
       d="m 4.6536406,-0.90214844 c -0.1875,0.0117188 -0.515625,0.1640625 -0.5859375,0.375 -0.070312,0.22265625 -0.140625,0.234375 -0.3046875,0.234375 -0.3398437,0 -0.7851562,-0.09375 -0.9609375,-0.140625 -0.4335937,-0.09375 -0.796875,-0.17578125 -1.1601562,-0.17578125 -0.011719,0 -0.1523438,0 -0.2460938,0.0234375 0.3398438,-0.46875001 0.4335938,-0.84375001 0.5039063,-1.12500001 0.3164062,-1.21875 0.6914062,-1.7226562 0.8671875,-1.8984375 0.1171875,-0.1054687 0.1757812,-0.1757812 0.4101562,-0.1757812 0.4101563,0 0.5273438,0.3046875 0.5273438,0.5039062 0,0.070312 -0.023437,0.140625 -0.023437,0.1640625 0,0.046875 0.035156,0.058594 0.058594,0.058594 0.140625,0 0.3046875,-0.09375 0.3984375,-0.1640625 0.1523438,-0.1054688 0.1992188,-0.1757813 0.1992188,-0.3867188 0,-0.3515625 -0.2578125,-0.5976562 -0.6328125,-0.5976562 -0.5390625,0 -1.1132813,0.3046875 -1.5117188,0.7617187 -0.5625,0.6328125 -0.8203125,1.6523438 -0.9257812,2.0390625 -0.058594,0.1992188 -0.1289063,0.49218751 -0.31640627,0.80859376 -0.1640625,0.24609375 -0.24609375,0.328125 -0.36328125,0.41015625 -0.0234375,0.0234375 -0.19921875,0.17578125 -0.19921875,0.2578125 0,0.01171875 0,0.05859375 0.0703125,0.05859375 0.1171875,0 0.29296875,-0.08203125 0.515625,-0.26953125 0.0585938,-0.046875 0.0703125,-0.046875 0.15234377,-0.046875 0.328125,0 0.7148437,0.0820313 1.1484375,0.17578125 0.2109375,0.046875 0.609375,0.140625 0.9609375,0.140625 0.8320312,0 1.4765625,-0.69140625 1.4765625,-0.97265625 0,-0.046875 -0.046875,-0.0585938 -0.058595,-0.058594 z m 0,0"
       style="fill:#000000;fill-opacity:1;fill-rule:nonzero;stroke:none"
       aria-label="L"
       transform="matrix(1.3333333,0,0,1.3333333,228.03733,66.933333)" />
    <path
       id="path55"
       d="M 2.9294297,-0.960375 H 2.7184922 c -0.011719,0.09375 -0.058594,0.3984375 -0.140625,0.45703125 -0.035156,0.0234375 -0.4570313,0.0234375 -0.5273438,0.0234375 H 1.0661484 C 1.3942734,-0.726 1.7692734,-0.99553125 2.0622422,-1.19475 c 0.4570312,-0.3164062 0.8671875,-0.5976562 0.8671875,-1.125 0,-0.6445312 -0.5976563,-0.9960937 -1.3125,-0.9960937 -0.66796876,0 -1.16015626,0.3867187 -1.16015626,0.8789062 0,0.2578125 0.2109375,0.3046875 0.28125,0.3046875 0.140625,0 0.29296876,-0.09375 0.29296876,-0.2929687 0,-0.1875 -0.12890626,-0.28125 -0.28125001,-0.2929688 0.140625,-0.234375 0.43359371,-0.375 0.76171871,-0.375 0.4804688,0 0.890625,0.28125 0.890625,0.7734375 0,0.421875 -0.2929687,0.7382813 -0.6796875,1.0546875 l -1.20703121,1.03125 c -0.046875,0.046875 -0.0585938,0.046875 -0.0585938,0.0820313 V 5.625e-4 H 2.7653672 Z m 0,0"
       style="fill:#000000;fill-opacity:1;fill-rule:nonzero;stroke:none"
       aria-label="2"
       transform="matrix(1.3333333,0,0,1.3333333,234.848,68.468)" />
    <path
       id="path56"
       d="M 0,0 H 13.321"
       style="fill:none;stroke:#000000;stroke-width:0.379;stroke-linecap:butt;stroke-linejoin:miter;stroke-miterlimit:10;stroke-dasharray:none;stroke-opacity:1"
       transform="matrix(1.3333333,0,0,-1.3333333,222.272,69.225333)" />
    <path
       id="path57"
       d="m 1.5236484,-3.6571016 c 0.1640625,-0.234375 0.4921875,-0.4101562 0.9140625,-0.4101562 0.5976563,0 1.0546875,0.3867187 1.0546875,1.1484375 0,0.1171875 -0.011719,0.3632812 -0.1289062,0.890625 -0.140625,-0.4453125 -0.5039063,-0.703125 -0.9726563,-0.703125 -0.2460937,0 -0.7734375,0.011719 -1.39453121,0.5625 -0.5625,0.5039062 -0.5625,1.1132812 -0.5625,1.18359374 0,0.3046875 0.15234375,0.57421875 0.3984375,0.796875 0.25781251,0.24609375 0.58593751,0.31640625 0.93750001,0.31640625 1.6757812,0 2.2617187,-2.01562499 2.2617187,-2.75390629 0,-0.9726562 -0.65625,-1.6523437 -1.5703125,-1.6523437 -1.0429687,0 -1.3007812,0.7851562 -1.3007812,0.9609375 0,0.1054687 0.070312,0.234375 0.2460937,0.234375 0.2226563,0 0.3398438,-0.1875 0.3398438,-0.3398438 0,-0.1875 -0.1875,-0.2226562 -0.2226563,-0.234375 z m 0.2578125,3.56250004 c -0.7382812,0 -0.79687496,-0.5390625 -0.79687496,-0.703125 0,-0.09375 0.09375,-0.85546874 0.37499996,-1.20703124 0.2109375,-0.28125 0.5390625,-0.5273438 1.0429688,-0.5273438 0.6445312,0 0.8203125,0.4804688 0.8203125,0.8085938 0,0.3867187 -0.3867188,1.62890624 -1.4414063,1.62890624 z M 7.6818516,-2.3446016 c -0.2109375,0.058594 -0.2578125,0.2226563 -0.2578125,0.3164063 0,0.1875 0.1523437,0.234375 0.2460937,0.234375 0.1640625,0 0.3398438,-0.140625 0.3398438,-0.375 0,-0.328125 -0.3515625,-0.46875 -0.65625,-0.46875 -0.3984375,0 -0.6328125,0.3046875 -0.703125,0.421875 -0.070312,-0.1523438 -0.3046875,-0.421875 -0.75,-0.421875 -0.6914063,0 -1.0898438,0.7148437 -1.0898438,0.9257812 0,0.023437 0.023437,0.082031 0.1054688,0.082031 0.082031,0 0.1054687,-0.035156 0.1171875,-0.09375 0.1523437,-0.4804688 0.5625,-0.7148438 0.8554687,-0.7148438 0.2929688,0 0.375,0.1875 0.375,0.3867188 0,0.070313 0,0.1289062 -0.046875,0.3164062 -0.140625,0.5507813 -0.2695312,1.08984379 -0.2929687,1.17187504 -0.09375,0.22265625 -0.3046875,0.421875 -0.5625,0.421875 -0.035156,0 -0.1992188,0 -0.3398438,-0.0820313 0.234375,-0.0820312 0.2578125,-0.28125 0.2578125,-0.328125 0,-0.15234375 -0.1171875,-0.234375 -0.234375,-0.234375 -0.1757812,0 -0.3515625,0.12890625 -0.3515625,0.375 0,0.33984375 0.375,0.46875 0.65625,0.46875 0.3398438,0 0.5859375,-0.234375 0.703125,-0.421875 0.1171875,0.2578125 0.4101563,0.421875 0.75,0.421875 0.703125,0 1.0898438,-0.7265625 1.0898438,-0.9140625 0,-0.0117188 0,-0.09375 -0.1054688,-0.09375 -0.082031,0 -0.09375,0.046875 -0.1171875,0.10546875 -0.1757812,0.515625 -0.5976562,0.703125 -0.84375,0.703125 -0.234375,0 -0.3867187,-0.12890625 -0.3867187,-0.375 0,-0.1171875 0.023437,-0.24609375 0.082031,-0.45703125 l 0.1875,-0.77343744 c 0.058594,-0.234375 0.09375,-0.3398438 0.2109375,-0.4921875 0.082031,-0.082031 0.234375,-0.1992189 0.421875,-0.1992189 0.035156,0 0.2109375,0 0.339844,0.09375 z m 0,0"
       style="fill:#000000;fill-opacity:1;fill-rule:nonzero;stroke:none"
       aria-label="∂x"
       transform="matrix(1.3333333,0,0,1.3333333,225.488,76.270667)" />
    <path
       id="path58"
       d="M 27.30307,-31.92876 H 39.11073"
       style="fill:none;stroke:#808080;stroke-width:0.99628;stroke-linecap:butt;stroke-linejoin:miter;stroke-miterlimit:10;stroke-dasharray:none;stroke-opacity:1"
       transform="matrix(1.3333333,0,0,-1.3333333,52.02,81.362667)" />
    <path
       id="path59"
       d="M 5.20058,0 C 3.65962,0.28891 1.15567,1.15567 -0.57784,2.1669 V -2.1669 C 1.15567,-1.15567 3.65962,-0.28891 5.20058,0"
       style="fill:#808080;fill-opacity:1;fill-rule:nonzero;stroke:none"
       transform="matrix(1.3333333,0,0,-1.3333333,104.16764,123.93435)" />
    <path
       id="path60"
       d="M 98.91745,-31.92876 H 164.5839"
       style="fill:none;stroke:#808080;stroke-width:0.99628;stroke-linecap:butt;stroke-linejoin:miter;stroke-miterlimit:10;stroke-dasharray:none;stroke-opacity:1"
       transform="matrix(1.3333333,0,0,-1.3333333,52.02,81.362667)" />
    <path
       id="path61"
       d="M 5.20058,0 C 3.65962,0.28891 1.15567,1.15567 -0.57784,2.1669 V -2.1669 C 1.15567,-1.15567 3.65962,-0.28891 5.20058,0"
       style="fill:#808080;fill-opacity:1;fill-rule:nonzero;stroke:none"
       transform="matrix(1.3333333,0,0,-1.3333333,271.4652,123.93435)" />
    <path
       id="path62"
       d="m 1.5245156,-3.6563203 c 0.1640625,-0.234375 0.4921875,-0.4101563 0.9140625,-0.4101563 0.5976563,0 1.0546875,0.3867188 1.0546875,1.1484375 0,0.1171875 -0.011719,0.3632813 -0.1289062,0.890625 -0.140625,-0.4453125 -0.5039063,-0.703125 -0.9726563,-0.703125 -0.2460937,0 -0.7734375,0.011719 -1.39453122,0.5625 -0.5625,0.5039063 -0.5625,1.1132813 -0.5625,1.18359379 0,0.3046875 0.15234375,0.57421875 0.3984375,0.796875 0.25781252,0.24609375 0.58593752,0.31640625 0.93750002,0.31640625 1.6757812,0 2.2617187,-2.01562504 2.2617187,-2.75390624 0,-0.9726563 -0.65625,-1.6523438 -1.5703125,-1.6523438 -1.0429687,0 -1.3007812,0.7851563 -1.3007812,0.9609375 0,0.1054688 0.070312,0.234375 0.2460937,0.234375 0.2226563,0 0.3398438,-0.1875 0.3398438,-0.3398437 0,-0.1875 -0.1875,-0.2226563 -0.2226563,-0.234375 z m 0.2578125,3.56249999 c -0.7382812,0 -0.79687497,-0.5390625 -0.79687497,-0.703125 0,-0.09375 0.09375,-0.85546879 0.37499997,-1.20703129 0.2109375,-0.28125 0.5390625,-0.5273437 1.0429688,-0.5273437 0.6445312,0 0.8203125,0.4804687 0.8203125,0.8085937 0,0.3867188 -0.3867188,1.62890629 -1.4414063,1.62890629 z m 0,0"
       style="fill:#000000;fill-opacity:1;fill-rule:nonzero;stroke:none"
       aria-label="∂"
       transform="matrix(1.3333333,0,0,1.3333333,222.272,109.504)" />
    <path
       id="path63"
       d="m 4.6536406,-0.90241406 c -0.1875,0.0117188 -0.515625,0.1640625 -0.5859375,0.375 -0.070312,0.22265625 -0.140625,0.234375 -0.3046875,0.234375 -0.3398437,0 -0.7851562,-0.09375 -0.9609375,-0.140625 -0.4335937,-0.09375 -0.796875,-0.17578125 -1.1601562,-0.17578125 -0.011719,0 -0.1523438,0 -0.2460938,0.0234375 0.3398438,-0.46874999 0.4335938,-0.84374999 0.5039063,-1.12499999 0.3164062,-1.21875 0.6914062,-1.7226563 0.8671875,-1.8984375 0.1171875,-0.1054688 0.1757812,-0.1757813 0.4101562,-0.1757813 0.4101563,0 0.5273438,0.3046875 0.5273438,0.5039063 0,0.070312 -0.023437,0.140625 -0.023437,0.1640625 0,0.046875 0.035156,0.058594 0.058594,0.058594 0.140625,0 0.3046875,-0.09375 0.3984375,-0.1640625 0.1523438,-0.1054687 0.1992188,-0.1757812 0.1992188,-0.3867187 0,-0.3515625 -0.2578125,-0.5976563 -0.6328125,-0.5976563 -0.5390625,0 -1.1132813,0.3046875 -1.5117188,0.7617188 -0.5625,0.6328125 -0.8203125,1.6523437 -0.9257812,2.0390625 -0.058594,0.1992187 -0.1289063,0.49218749 -0.31640627,0.80859374 -0.1640625,0.24609375 -0.24609375,0.328125 -0.36328125,0.41015625 -0.0234375,0.0234375 -0.19921875,0.17578125 -0.19921875,0.2578125 0,0.01171875 0,0.05859375 0.0703125,0.05859375 0.1171875,0 0.29296875,-0.08203125 0.515625,-0.26953125 0.0585938,-0.046875 0.0703125,-0.046875 0.15234377,-0.046875 0.328125,0 0.7148437,0.0820312 1.1484375,0.17578125 0.2109375,0.046875 0.609375,0.140625 0.9609375,0.140625 0.8320312,0 1.4765625,-0.69140625 1.4765625,-0.97265625 0,-0.046875 -0.046875,-0.0585938 -0.058595,-0.0585941 z m 0,0"
       style="fill:#000000;fill-opacity:1;fill-rule:nonzero;stroke:none"
       aria-label="L"
       transform="matrix(1.3333333,0,0,1.3333333,228.03733,109.504)" />
    <path
       id="path64"
       d="m 1.6403672,-1.6520469 c 0.4570312,0 0.7617187,0.2929688 0.7617187,0.78515628 0,0.50390625 -0.3046875,0.7734375 -0.75,0.7734375 -0.058594,0 -0.65624996,0 -0.90234371,-0.2578125 0.19921875,-0.0351563 0.25781251,-0.1875 0.25781251,-0.3046875 0,-0.1875 -0.14062501,-0.3046875 -0.30468751,-0.3046875 -0.15234375,0 -0.3046875,0.10546875 -0.3046875,0.31640625 0,0.515625 0.5859375,0.75 1.26562501,0.75 0.8203125,0 1.3242187,-0.4921875 1.3242187,-0.97265625 0,-0.41015628 -0.3632812,-0.76171878 -0.9257812,-0.89062498 0.5976562,-0.1875 0.75,-0.5625 0.75,-0.84375 0,-0.4101563 -0.5039063,-0.7148438 -1.1367188,-0.7148438 -0.609375,0 -1.10156246,0.2578125 -1.10156246,0.703125 0,0.234375 0.1875,0.2929688 0.28125,0.2929688 0.140625,0 0.28124996,-0.1054688 0.28124996,-0.28125 0,-0.1171875 -0.058594,-0.2578125 -0.23437496,-0.28125 0.21093746,-0.234375 0.65624996,-0.2460938 0.76171876,-0.2460938 0.3632812,0 0.6210937,0.1875 0.6210937,0.5273438 0,0.28125 -0.1875,0.7382812 -0.7148437,0.7734375 -0.140625,0 -0.1523438,0 -0.28125,0.011719 -0.058594,0 -0.1171875,0.011719 -0.1171875,0.082031 0,0.082031 0.058594,0.082031 0.140625,0.082031 z m 0,0"
       style="fill:#000000;fill-opacity:1;fill-rule:nonzero;stroke:none"
       aria-label="3"
       transform="matrix(1.3333333,0,0,1.3333333,234.848,111.03867)" />
    <path
       id="path65"
       d="M 0,0 H 13.321"
       style="fill:none;stroke:#000000;stroke-width:0.379;stroke-linecap:butt;stroke-linejoin:miter;stroke-miterlimit:10;stroke-dasharray:none;stroke-opacity:1"
       transform="matrix(1.3333333,0,0,-1.3333333,222.272,111.796)" />
    <path
       id="path66"
       d="m 1.5236484,-3.6573672 c 0.1640625,-0.234375 0.4921875,-0.4101562 0.9140625,-0.4101562 0.5976563,0 1.0546875,0.3867187 1.0546875,1.1484375 0,0.1171875 -0.011719,0.3632812 -0.1289062,0.890625 -0.140625,-0.4453125 -0.5039063,-0.703125 -0.9726563,-0.703125 -0.2460937,0 -0.7734375,0.011719 -1.39453121,0.5625 -0.5625,0.5039062 -0.5625,1.1132812 -0.5625,1.18359371 0,0.3046875 0.15234375,0.57421875 0.3984375,0.796875 0.25781251,0.24609375 0.58593751,0.31640625 0.93750001,0.31640625 1.6757812,0 2.2617187,-2.01562496 2.2617187,-2.75390626 0,-0.9726562 -0.65625,-1.6523437 -1.5703125,-1.6523437 -1.0429687,0 -1.3007812,0.7851562 -1.3007812,0.9609375 0,0.1054687 0.070312,0.234375 0.2460937,0.234375 0.2226563,0 0.3398438,-0.1875 0.3398438,-0.3398438 0,-0.1875 -0.1875,-0.2226562 -0.2226563,-0.234375 z m 0.2578125,3.56250001 c -0.7382812,0 -0.79687496,-0.5390625 -0.79687496,-0.703125 0,-0.09375 0.09375,-0.85546871 0.37499996,-1.20703121 0.2109375,-0.28125 0.5390625,-0.5273438 1.0429688,-0.5273438 0.6445312,0 0.8203125,0.4804688 0.8203125,0.8085938 0,0.3867187 -0.3867188,1.62890621 -1.4414063,1.62890621 z M 7.6818516,-2.3448672 c -0.2109375,0.058594 -0.2578125,0.2226563 -0.2578125,0.3164063 0,0.1875 0.1523437,0.234375 0.2460937,0.234375 0.1640625,0 0.3398438,-0.140625 0.3398438,-0.375 0,-0.328125 -0.3515625,-0.46875 -0.65625,-0.46875 -0.3984375,0 -0.6328125,0.3046875 -0.703125,0.421875 -0.070312,-0.1523438 -0.3046875,-0.421875 -0.75,-0.421875 -0.6914063,0 -1.0898438,0.7148437 -1.0898438,0.9257812 0,0.023437 0.023437,0.082031 0.1054688,0.082031 0.082031,0 0.1054687,-0.035156 0.1171875,-0.09375 0.1523437,-0.4804688 0.5625,-0.7148438 0.8554687,-0.7148438 0.2929688,0 0.375,0.1875 0.375,0.3867188 0,0.070312 0,0.1289062 -0.046875,0.3164062 -0.140625,0.5507813 -0.2695312,1.08984376 -0.2929687,1.17187501 -0.09375,0.22265625 -0.3046875,0.421875 -0.5625,0.421875 -0.035156,0 -0.1992188,0 -0.3398438,-0.0820313 0.234375,-0.0820313 0.2578125,-0.28125 0.2578125,-0.328125 0,-0.15234375 -0.1171875,-0.234375 -0.234375,-0.234375 -0.1757812,0 -0.3515625,0.12890625 -0.3515625,0.375 0,0.33984375 0.375,0.46875 0.65625,0.46875 0.3398438,0 0.5859375,-0.234375 0.703125,-0.421875 0.1171875,0.2578125 0.4101563,0.421875 0.75,0.421875 0.703125,0 1.0898438,-0.7265625 1.0898438,-0.9140625 0,-0.0117188 0,-0.09375 -0.1054688,-0.09375 -0.082031,0 -0.09375,0.046875 -0.1171875,0.10546875 -0.1757812,0.515625 -0.5976562,0.703125 -0.84375,0.703125 -0.234375,0 -0.3867187,-0.12890625 -0.3867187,-0.375 0,-0.1171875 0.023437,-0.24609375 0.082031,-0.45703125 l 0.1875,-0.77343741 c 0.058594,-0.234375 0.09375,-0.3398439 0.2109375,-0.4921876 0.082031,-0.082031 0.234375,-0.1992188 0.421875,-0.1992188 0.035156,0 0.2109375,0 0.339844,0.09375 z m 0,0"
       style="fill:#000000;fill-opacity:1;fill-rule:nonzero;stroke:none"
       aria-label="∂x"
       transform="matrix(1.3333333,0,0,1.3333333,225.488,118.84133)" />
    <path
       id="path67"
       d="m 224.39063,0 h 40.15446"
       style="fill:none;stroke:#808080;stroke-width:0.99628;stroke-linecap:butt;stroke-linejoin:miter;stroke-miterlimit:10;stroke-dasharray:none;stroke-opacity:1"
       transform="matrix(1.3333333,0,0,-1.3333333,52.02,81.362667)" />
    <path
       id="path68"
       d="M 5.20058,0 C 3.65962,0.28891 1.15567,1.15567 -0.57784,2.1669 V -2.1669 C 1.15567,-1.15567 3.65962,-0.28891 5.20058,0"
       style="fill:#808080;fill-opacity:1;fill-rule:nonzero;stroke:none"
       transform="matrix(1.3333333,0,0,-1.3333333,404.74679,81.362667)" />
    <path
       id="path69"
       d="m 224.39063,31.92876 h 60.94473 V 16.91289"
       style="fill:none;stroke:#808080;stroke-width:0.99628;stroke-linecap:butt;stroke-linejoin:miter;stroke-miterlimit:10;stroke-dasharray:none;stroke-opacity:1"
       transform="matrix(1.3333333,0,0,-1.3333333,52.02,81.362667)" />
    <path
       id="path70"
       d="M 5.20058,0 C 3.65962,0.28891 1.15567,1.15567 -0.57784,2.1669 V -2.1669 C 1.15567,-1.15567 3.65962,-0.28891 5.20058,0"
       style="fill:#808080;fill-opacity:1;fill-rule:nonzero;stroke:none"
       transform="matrix(0,1.3333333,1.3333333,0,432.46715,58.812147)" />
    <path
       id="path71"
       d="m 224.39063,-31.92876 h 60.94473 v 15.01587"
       style="fill:none;stroke:#808080;stroke-width:0.99628;stroke-linecap:butt;stroke-linejoin:miter;stroke-miterlimit:10;stroke-dasharray:none;stroke-opacity:1"
       transform="matrix(1.3333333,0,0,-1.3333333,52.02,81.362667)" />
    <path
       id="path72"
       d="M 5.20058,0 C 3.65962,0.28891 1.15567,1.15567 -0.57784,2.1669 V -2.1669 C 1.15567,-1.15567 3.65962,-0.28891 5.20058,0"
       style="fill:#808080;fill-opacity:1;fill-rule:nonzero;stroke:none"
       transform="matrix(0,-1.3333333,-1.3333333,0,432.46715,103.91319)" />
  </g>
</svg>
