<?xml version="1.0" encoding="UTF-8" standalone="no"?>
<!-- Created with Inkscape (http://www.inkscape.org/) -->

<svg
   version="1.1"
   id="svg1"
   width="524.8147"
   height="63.428001"
   viewBox="0 0 524.8147 63.428001"
   xmlns="http://www.w3.org/2000/svg"
   xmlns:svg="http://www.w3.org/2000/svg">
  <defs
     id="defs1" />
  <g
     id="g1">
    <path
       id="path1"
       d="m 46.29143,19.84268 h -92.58286 c -1.10047,0 -1.99255,-0.89209 -1.99255,-1.99255 v -35.70026 c 0,-1.10046 0.89208,-1.99255 1.99255,-1.99255 h 92.58286 c 1.10047,0 1.99255,0.89209 1.99255,1.99255 v 35.70026 c 0,1.10046 -0.89208,1.99255 -1.99255,1.99255 z"
       style="fill:#d1f3ff;fill-opacity:1;fill-rule:nonzero;stroke:#006395;stroke-width:0.74721;stroke-linecap:butt;stroke-linejoin:miter;stroke-miterlimit:10;stroke-dasharray:none;stroke-opacity:1"
       transform="matrix(1.3333333,0,0,-1.3333333,64.876,36.473333)" />
    <path
       id="path2"
       d="M 0.79696875,-0.00120312 H 3.3165 c 1.6523438,0 2.6601563,-1.24218748 2.6601563,-3.26953128 0,-2.0273437 -0.9960938,-3.2695312 -2.6601563,-3.2695312 H 0.79696875 Z M 1.629,-0.73948437 V -5.8019844 h 1.546875 c 1.2890625,0 1.96875,0.8671875 1.96875,2.5429688 0,1.640625 -0.6796875,2.51953123 -1.96875,2.51953123 z m 9.638672,0.30468749 c -0.08203,0.0117188 -0.117188,0.0117188 -0.152344,0.0117188 -0.269531,0 -0.410156,-0.12890624 -0.410156,-0.36328124 V -3.5519844 c 0,-0.8320312 -0.609375,-1.2773437 -1.7695314,-1.2773437 -0.6796875,0 -1.2421875,0.1875 -1.5585937,0.5390625 -0.2109375,0.2460937 -0.3046875,0.515625 -0.3164063,0.984375 h 0.75 c 0.058594,-0.5742188 0.3984375,-0.8320313 1.1015625,-0.8320313 0.6679688,0 1.0546875,0.2460938 1.0546875,0.6914063 v 0.1992187 c 0,0.3164063 -0.1875,0.4453125 -0.7851562,0.515625 -1.0546875,0.140625 -1.21875,0.1757813 -1.5,0.2929688 -0.5507813,0.2226562 -0.8320313,0.6445312 -0.8320313,1.2539062 0,0.85546878 0.5976563,1.39453128 1.546875,1.39453128 0.5859375,0 1.0664063,-0.2109375 1.59375,-0.69140626 0.046875,0.46875001 0.2812499,0.69140626 0.7734379,0.69140626 0.152343,0 0.269531,-0.0234375 0.503906,-0.0820313 z M 9.9668906,-1.4777656 c 0,0.2460937 -0.082031,0.3984375 -0.3046875,0.60937497 -0.3046875,0.28125001 -0.6679687,0.421875 -1.1132812,0.421875 -0.5742188,0 -0.9140625,-0.28124999 -0.9140625,-0.76171877 0,-0.4921875 0.328125,-0.7382812 1.125,-0.8554687 0.7851562,-0.1054688 0.9492187,-0.140625 1.2070312,-0.2578125 z M 13.731539,-4.7004219 H 12.96982 v -1.2890625 h -0.75 v 1.2890625 h -0.632812 v 0.609375 h 0.632812 v 3.55078128 c 0,0.48046875 0.328125,0.75 0.902344,0.75 0.1875,0 0.363281,-0.0234375 0.609375,-0.0703125 v -0.62109376 c -0.09375,0.0234375 -0.210937,0.0351563 -0.351562,0.0351563 -0.328125,0 -0.410157,-0.09375 -0.410157,-0.421875 V -4.0910469 h 0.761719 z m 5.012695,4.26562502 c -0.08203,0.0117188 -0.117187,0.0117188 -0.152343,0.0117188 -0.269532,0 -0.410157,-0.12890624 -0.410157,-0.36328124 V -3.5519844 c 0,-0.8320312 -0.609375,-1.2773437 -1.769531,-1.2773437 -0.679687,0 -1.242187,0.1875 -1.558594,0.5390625 -0.210937,0.2460937 -0.304687,0.515625 -0.316406,0.984375 h 0.75 c 0.05859,-0.5742188 0.398438,-0.8320313 1.101563,-0.8320313 0.667968,0 1.054687,0.2460938 1.054687,0.6914063 v 0.1992187 c 0,0.3164063 -0.1875,0.4453125 -0.785156,0.515625 -1.054688,0.140625 -1.21875,0.1757813 -1.5,0.2929688 -0.550781,0.2226562 -0.832031,0.6445312 -0.832031,1.2539062 0,0.85546878 0.597656,1.39453128 1.546875,1.39453128 0.585937,0 1.066406,-0.2109375 1.59375,-0.69140626 0.04687,0.46875001 0.28125,0.69140626 0.773437,0.69140626 0.152344,0 0.269531,-0.0234375 0.503906,-0.0820313 z M 17.443453,-1.4777656 c 0,0.2460937 -0.08203,0.3984375 -0.304687,0.60937497 -0.304688,0.28125001 -0.667969,0.421875 -1.113282,0.421875 -0.574218,0 -0.914062,-0.28124999 -0.914062,-0.76171877 0,-0.4921875 0.328125,-0.7382812 1.125,-0.8554687 0.785156,-0.1054688 0.949219,-0.140625 1.207031,-0.2578125 z m 5.63086,-1.2890625 h 2.050781 c 0.515625,0 0.914062,-0.1523438 1.265625,-0.46875 0.386719,-0.3632813 0.5625,-0.7851563 0.5625,-1.3828125 0,-1.2304688 -0.726563,-1.921875 -2.015625,-1.921875 h -2.695313 v 6.53906248 h 0.832032 z m 0,-0.7382813 v -2.296875 h 1.734375 c 0.796875,0 1.277343,0.4335938 1.277343,1.1484375 0,0.7148438 -0.480468,1.1484375 -1.277343,1.1484375 z m 5.674804,-1.1953125 h -0.75 v 4.69921878 h 0.75 z m 0,-1.8398437 h -0.761719 v 0.9492187 h 0.761719 z m 1.122071,8.4960937 h 0.761718 v -2.44921873 c 0.386719,0.48046876 0.832032,0.70312501 1.441407,0.70312501 1.207031,0 2.003906,-0.984375 2.003906,-2.48437498 0,-1.5703125 -0.773438,-2.5546875 -2.015625,-2.5546875 -0.632813,0 -1.148438,0.28125 -1.5,0.84375 v -0.7148438 h -0.691406 z m 2.0625,-6.09375 c 0.832031,0 1.371093,0.7265625 1.371093,1.8515625 0,1.0664063 -0.550781,1.79296877 -1.371093,1.79296877 -0.785157,0 -1.300782,-0.71484377 -1.300782,-1.81640627 0,-1.1015625 0.515625,-1.828125 1.300782,-1.828125 z m 7.037109,2.0390625 c 0,-0.7148437 -0.04687,-1.1484375 -0.1875,-1.5 -0.304688,-0.7734375 -1.019531,-1.2304687 -1.898438,-1.2304687 -1.300781,0 -2.144531,0.9960937 -2.144531,2.5429687 0,1.54687503 0.808594,2.49609378 2.132813,2.49609378 1.066406,0 1.816406,-0.609375 2.003906,-1.64062498 h -0.75 c -0.210938,0.62109372 -0.632813,0.94921872 -1.230469,0.94921872 -0.480469,0 -0.878906,-0.22265624 -1.125,-0.60937502 -0.1875,-0.2695312 -0.246094,-0.5390625 -0.257812,-1.0078125 z m -3.433594,-0.609375 c 0.05859,-0.8671875 0.585938,-1.4296875 1.335938,-1.4296875 0.738281,0 1.300781,0.609375 1.300781,1.3710938 0,0.023437 0,0.035156 0,0.058594 z m 5.185547,-3.8320312 h -0.75 v 6.53906248 h 0.75 z m 1.977539,1.8398437 h -0.75 v 4.69921878 h 0.75 z m 0,-1.8398437 H 41.93857 v 0.9492187 h 0.761719 z m 1.277344,1.8398437 v 4.69921878 h 0.75 V -2.5910469 c 0,-0.9609375 0.503906,-1.5820312 1.265625,-1.5820312 0.597656,0 0.972656,0.3515625 0.972656,0.9140625 v 3.25781248 h 0.75 V -3.5519844 c 0,-0.7734375 -0.585937,-1.2773437 -1.488281,-1.2773437 -0.703125,0 -1.148438,0.2695312 -1.570313,0.9140625 v -0.7851563 z m 8.944336,2.6015625 c 0,-0.7148437 -0.04687,-1.1484375 -0.1875,-1.5 -0.304688,-0.7734375 -1.019531,-1.2304687 -1.898438,-1.2304687 -1.300781,0 -2.144531,0.9960937 -2.144531,2.5429687 0,1.54687503 0.808594,2.49609378 2.132813,2.49609378 1.066406,0 1.816406,-0.609375 2.003906,-1.64062498 h -0.75 c -0.210938,0.62109372 -0.632813,0.94921872 -1.230469,0.94921872 -0.480469,0 -0.878906,-0.22265624 -1.125,-0.60937502 -0.1875,-0.2695312 -0.246094,-0.5390625 -0.257812,-1.0078125 z m -3.433594,-0.609375 c 0.05859,-0.8671875 0.585938,-1.4296875 1.335938,-1.4296875 0.738281,0 1.300781,0.609375 1.300781,1.3710938 0,0.023437 0,0.035156 0,0.058594 z m 0,0"
       style="fill:#000000;fill-opacity:1;fill-rule:nonzero;stroke:none"
       aria-label="DataPipeline"
       transform="matrix(1.3333333,0,0,1.3333333,29.328,24.790667)" />
    <path
       id="path3"
       d="M 1.5472109,-5.8127422 H 0.79721094 V -2.421875e-4 H 1.5472109 Z m 1.2304688,1.640625 V -2.421875e-4 H 3.4456484 V -2.3088359 c 0,-0.84375 0.4453125,-1.40625 1.125,-1.40625 0.5273438,0 0.8671875,0.3164062 0.8671875,0.8203125 v 2.8945312125 h 0.65625 V -3.1525859 c 0,-0.6914063 -0.515625,-1.1484375 -1.3242187,-1.1484375 -0.6210938,0 -1.0195313,0.2460937 -1.3828125,0.8320312 v -0.703125 z m 7.1513672,0 v 0.5976563 c -0.328125,-0.4921875 -0.7382813,-0.7265625 -1.2773438,-0.7265625 -1.0546875,0 -1.7695312,0.9257812 -1.7695312,2.2851562 0,0.6796875 0.1757812,1.24218751 0.5273437,1.64062501 0.3046875,0.3515625 0.75,0.5625 1.1953125,0.5625 0.515625,0 0.890625,-0.22265625 1.265625,-0.75 v 0.2109375 c 0,0.5625 -0.070312,0.9140625 -0.2460937,1.13671875 C 9.4485781,1.0310078 9.1087344,1.1833516 8.6985781,1.1833516 c -0.2929687,0 -0.5742187,-0.082031 -0.75,-0.22265629 C 7.7962344,0.83178906 7.7259219,0.72632031 7.6907656,0.48022656 H 7.0110781 c 0.070312,0.78515624 0.6914063,1.25390624 1.6640625,1.25390624 0.6210938,0 1.1601563,-0.1992187 1.4296874,-0.5273437 0.316406,-0.38671879 0.445313,-0.91406254 0.445313,-1.88671879 V -4.1721172 Z m -1.2070313,0.4921875 c 0.7265625,0 1.1484375,0.609375 1.1484375,1.6523438 0,0.9960937 -0.4335937,1.59374996 -1.1367187,1.59374996 -0.7265625,0 -1.1601563,-0.60937496 -1.1601563,-1.61718746 0,-1.0078125 0.4453125,-1.6289063 1.1484375,-1.6289063 z m 6.4453124,1.8164063 c 0,-0.6445313 -0.04687,-1.0195313 -0.164062,-1.3359375 -0.28125,-0.6796875 -0.914063,-1.1015625 -1.699219,-1.1015625 -1.160156,0 -1.910156,0.9023437 -1.910156,2.2734375 0,1.37109371 0.726562,2.21484371 1.898437,2.21484371 0.960938,0 1.617188,-0.55078125 1.78125,-1.45312501 h -0.667969 c -0.175781,0.55078126 -0.550781,0.83203126 -1.089843,0.83203126 -0.421875,0 -0.785157,-0.1875 -1.007813,-0.5390625 C 12.155609,-1.2072734 12.097016,-1.4533672 12.085297,-1.8635234 Z m -3.058594,-0.5390625 c 0.04687,-0.7734375 0.527344,-1.2773438 1.195313,-1.2773438 0.644531,0 1.148437,0.5390625 1.148437,1.2304688 0,0.011719 0,0.023437 0,0.046875 z m 6.893555,-0.609375 c -0.01172,-0.8203125 -0.550781,-1.2890625 -1.511719,-1.2890625 -0.972656,0 -1.605468,0.5039062 -1.605468,1.2773437 0,0.65625 0.339843,0.9726563 1.324218,1.2070313 l 0.621094,0.1523437 c 0.457031,0.1054688 0.644531,0.28125 0.644531,0.5859375 0,0.38671876 -0.386718,0.64453126 -0.972656,0.64453126 -0.363281,0 -0.65625,-0.10546875 -0.832031,-0.28125 -0.105469,-0.1171875 -0.152344,-0.234375 -0.1875,-0.52734376 h -0.703125 c 0.03516,0.96093751 0.574219,1.42968751 1.664062,1.42968751 1.054688,0 1.722657,-0.52734375 1.722657,-1.32421871 0,-0.6210938 -0.351563,-0.9726563 -1.183594,-1.171875 l -0.632813,-0.140625 c -0.539062,-0.1289063 -0.773437,-0.3046875 -0.773437,-0.5976563 0,-0.3867187 0.339844,-0.6328125 0.890625,-0.6328125 0.527344,0 0.820312,0.234375 0.832031,0.6679688 z m 2.519531,-1.1601563 h -0.691406 v -1.1484375 h -0.65625 v 1.1484375 h -0.5625 v 0.5390625 h 0.5625 v 3.15234376 c 0,0.421875 0.28125,0.66796875 0.796875,0.66796875 0.164063,0 0.328125,-0.0234375 0.550781,-0.0585938 v -0.5625 c -0.09375,0.0234375 -0.199218,0.0351563 -0.316406,0.0351563 -0.292969,0 -0.375,-0.0820313 -0.375,-0.375 V -3.6330547 h 0.691406 z m 1.382813,0 h -0.65625 v 4.1718750125 h 0.65625 z m 0,-1.640625 h -0.667969 v 0.84375 h 0.667969 z m 2.742187,1.5117188 c -1.171875,0 -1.886718,0.84375 -1.886718,2.25 0,1.39453121 0.703125,2.23828121 1.898437,2.23828121 1.171875,0 1.886719,-0.84375 1.886719,-2.21484371 0,-1.4414063 -0.691406,-2.2734375 -1.898438,-2.2734375 z m 0.01172,0.6210937 c 0.75,0 1.195313,0.609375 1.195313,1.6523438 0,0.9726562 -0.46875,1.59374996 -1.195313,1.59374996 -0.75,0 -1.195312,-0.60937496 -1.195312,-1.61718746 0,-1.0078125 0.445312,-1.6289063 1.195312,-1.6289063 z m 2.81543,-0.4921875 v 4.1718750125 h 0.667969 V -2.3088359 c 0,-0.84375 0.445312,-1.40625 1.125,-1.40625 0.527343,0 0.867187,0.3164062 0.867187,0.8203125 v 2.8945312125 h 0.65625 V -3.1525859 c 0,-0.6914063 -0.515625,-1.1484375 -1.324219,-1.1484375 -0.621093,0 -1.019531,0.2460937 -1.382812,0.8320312 v -0.703125 z m 4.561523,3.33984376 v 0.8320312525 h 0.480469 V 0.14038281 c 0,0.55078125 -0.105469,0.71484375 -0.480469,0.7265625 V 1.1716328 c 0.5625,0 0.84375,-0.36328124 0.84375,-1.04296874 v -0.9609375 z m 5.194336,-1.62890626 h 1.828125 c 0.457031,0 0.808594,-0.140625 1.125,-0.4101562 0.351563,-0.328125 0.503906,-0.703125 0.503906,-1.2304688 0,-1.0898437 -0.65625,-1.7109375 -1.792968,-1.7109375 h -2.402344 v 5.8125000125 h 0.738281 z m 0,-0.65625 v -2.0390625 h 1.546875 c 0.714844,0 1.136719,0.3867188 1.136719,1.0195313 0,0.6328125 -0.421875,1.0195312 -1.136719,1.0195312 z m 4.40332,-1.0546875 v 4.1718750125 h 0.667969 V -2.1682109 c 0,-0.5976563 0.152344,-0.984375 0.46875,-1.21875 0.210938,-0.1523438 0.410156,-0.1992188 0.867188,-0.2109375 v -0.6679688 c -0.105469,-0.023437 -0.164063,-0.035156 -0.246094,-0.035156 -0.433594,0 -0.761719,0.2578125 -1.148438,0.8789062 v -0.75 z m 6.19336,2.3085938 c 0,-0.6445313 -0.04687,-1.0195313 -0.164063,-1.3359375 -0.28125,-0.6796875 -0.914062,-1.1015625 -1.699218,-1.1015625 -1.160157,0 -1.910157,0.9023437 -1.910157,2.2734375 0,1.37109371 0.726563,2.21484371 1.898438,2.21484371 0.960937,0 1.617187,-0.55078125 1.78125,-1.45312501 H 48.06479 c -0.175781,0.55078126 -0.550781,0.83203126 -1.089844,0.83203126 -0.421875,0 -0.785156,-0.1875 -1.007812,-0.5390625 C 45.814789,-1.2072734 45.756195,-1.4533672 45.744477,-1.8635234 Z m -3.058594,-0.5390625 c 0.04687,-0.7734375 0.527344,-1.2773438 1.195313,-1.2773438 0.644531,0 1.148437,0.5390625 1.148437,1.2304688 0,0.011719 0,0.023437 0,0.046875 z m 3.832031,4.1367187 h 0.667969 v -2.16796874 c 0.351563,0.421875 0.738281,0.62109375 1.277344,0.62109375 1.078125,0 1.792969,-0.8671875 1.792969,-2.20312501 0,-1.40625 -0.691407,-2.2851562 -1.792969,-2.2851562 -0.574219,0 -1.019531,0.2578125 -1.335938,0.75 v -0.6210938 h -0.609375 z m 1.828125,-5.4023437 c 0.738282,0 1.207032,0.6445312 1.207032,1.640625 0,0.9492187 -0.480469,1.59374996 -1.207032,1.59374996 -0.703125,0 -1.160156,-0.64453126 -1.160156,-1.61718746 0,-0.984375 0.457031,-1.6171875 1.160156,-1.6171875 z m 2.72168,-0.5039063 V -2.421875e-4 H 54.81772 V -2.1682109 c 0,-0.5976563 0.152344,-0.984375 0.46875,-1.21875 0.210937,-0.1523438 0.410156,-0.1992188 0.867187,-0.2109375 v -0.6679688 c -0.105468,-0.023437 -0.164062,-0.035156 -0.246093,-0.035156 -0.433594,0 -0.761719,0.2578125 -1.148438,0.8789062 v -0.75 z m 4.271484,-0.1289062 c -1.171875,0 -1.886718,0.84375 -1.886718,2.25 0,1.39453121 0.703125,2.23828121 1.898437,2.23828121 1.171875,0 1.886719,-0.84375 1.886719,-2.21484371 0,-1.4414063 -0.691406,-2.2734375 -1.898438,-2.2734375 z m 0.01172,0.6210937 c 0.75,0 1.195313,0.609375 1.195313,1.6523438 0,0.9726562 -0.46875,1.59374996 -1.195313,1.59374996 -0.75,0 -1.195312,-0.60937496 -1.195312,-1.61718746 0,-1.0078125 0.445312,-1.6289063 1.195312,-1.6289063 z m 6,0.9023438 c -0.02344,-0.3984375 -0.117187,-0.6679688 -0.28125,-0.890625 -0.28125,-0.3984375 -0.785156,-0.6328125 -1.359375,-0.6328125 -1.125,0 -1.863281,0.9023437 -1.863281,2.2851562 0,1.34765626 0.714844,2.20312501 1.851562,2.20312501 0.996094,0 1.628907,-0.59765625 1.699219,-1.61718751 h -0.667969 c -0.105468,0.66796876 -0.457031,0.99609376 -1.019531,0.99609376 -0.726562,0 -1.171875,-0.59765626 -1.171875,-1.58203126 0,-1.0429687 0.433594,-1.6640625 1.160156,-1.6640625 0.550782,0 0.902344,0.328125 0.984375,0.9023438 z m 4.327149,0.9140625 c 0,-0.6445313 -0.04687,-1.0195313 -0.164063,-1.3359375 -0.28125,-0.6796875 -0.914062,-1.1015625 -1.699219,-1.1015625 -1.160156,0 -1.910156,0.9023437 -1.910156,2.2734375 0,1.37109371 0.726563,2.21484371 1.898438,2.21484371 0.960937,0 1.617187,-0.55078125 1.78125,-1.45312501 h -0.667969 c -0.175781,0.55078126 -0.550781,0.83203126 -1.089844,0.83203126 -0.421875,0 -0.785156,-0.1875 -1.007812,-0.5390625 C 65.748383,-1.2072734 65.689789,-1.4533672 65.67807,-1.8635234 Z M 65.70151,-2.4025859 c 0.04687,-0.7734375 0.527344,-1.2773438 1.195312,-1.2773438 0.644532,0 1.148438,0.5390625 1.148438,1.2304688 0,0.011719 0,0.023437 0,0.046875 z m 6.890625,-0.609375 c -0.01172,-0.8203125 -0.550781,-1.2890625 -1.511719,-1.2890625 -0.972656,0 -1.605469,0.5039062 -1.605469,1.2773437 0,0.65625 0.339844,0.9726563 1.324219,1.2070313 l 0.621094,0.1523437 c 0.457031,0.1054688 0.644531,0.28125 0.644531,0.5859375 0,0.38671876 -0.386719,0.64453126 -0.972656,0.64453126 -0.363281,0 -0.65625,-0.10546875 -0.832031,-0.28125 -0.105469,-0.1171875 -0.152344,-0.234375 -0.1875,-0.52734376 h -0.703125 c 0.03516,0.96093751 0.574218,1.42968751 1.664062,1.42968751 1.054688,0 1.722656,-0.52734375 1.722656,-1.32421871 0,-0.6210938 -0.351562,-0.9726563 -1.183593,-1.171875 l -0.632813,-0.140625 c -0.539062,-0.1289063 -0.773437,-0.3046875 -0.773437,-0.5976563 0,-0.3867187 0.339843,-0.6328125 0.890625,-0.6328125 0.527343,0 0.820312,0.234375 0.832031,0.6679688 z m 3.987305,0 c -0.01172,-0.8203125 -0.550782,-1.2890625 -1.511719,-1.2890625 -0.972656,0 -1.605469,0.5039062 -1.605469,1.2773437 0,0.65625 0.339844,0.9726563 1.324219,1.2070313 l 0.621094,0.1523437 c 0.457031,0.1054688 0.644531,0.28125 0.644531,0.5859375 0,0.38671876 -0.386719,0.64453126 -0.972656,0.64453126 -0.363282,0 -0.65625,-0.10546875 -0.832032,-0.28125 -0.105468,-0.1171875 -0.152343,-0.234375 -0.1875,-0.52734376 h -0.703125 c 0.03516,0.96093751 0.574219,1.42968751 1.664063,1.42968751 1.054687,0 1.722656,-0.52734375 1.722656,-1.32421871 0,-0.6210938 -0.351562,-0.9726563 -1.183594,-1.171875 l -0.632812,-0.140625 c -0.539063,-0.1289063 -0.773438,-0.3046875 -0.773438,-0.5976563 0,-0.3867187 0.339844,-0.6328125 0.890625,-0.6328125 0.527344,0 0.820313,0.234375 0.832032,0.6679688 z m 1.6875,-1.1601563 h -0.65625 v 4.1718750125 h 0.65625 z m 0,-1.640625 h -0.667969 v 0.84375 h 0.667969 z m 1.136718,1.640625 v 4.1718750125 h 0.667969 V -2.3088359 c 0,-0.84375 0.445313,-1.40625 1.125,-1.40625 0.527344,0 0.867188,0.3164062 0.867188,0.8203125 v 2.8945312125 h 0.65625 V -3.1525859 c 0,-0.6914063 -0.515625,-1.1484375 -1.324219,-1.1484375 -0.621094,0 -1.019531,0.2460937 -1.382813,0.8320312 v -0.703125 z m 7.148438,0 v 0.5976563 c -0.328125,-0.4921875 -0.738281,-0.7265625 -1.277344,-0.7265625 -1.054687,0 -1.769531,0.9257812 -1.769531,2.2851562 0,0.6796875 0.175781,1.24218751 0.527344,1.64062501 0.304687,0.3515625 0.75,0.5625 1.195312,0.5625 0.515625,0 0.890625,-0.22265625 1.265625,-0.75 v 0.2109375 c 0,0.5625 -0.07031,0.9140625 -0.246094,1.13671875 -0.175781,0.24609374 -0.515625,0.39843754 -0.925781,0.39843754 -0.292969,0 -0.574219,-0.082031 -0.75,-0.22265629 -0.152344,-0.12890625 -0.222656,-0.234375 -0.257812,-0.48046875 h -0.679688 c 0.07031,0.78515624 0.691406,1.25390624 1.664063,1.25390624 0.621093,0 1.160156,-0.1992187 1.429687,-0.5273437 0.316406,-0.38671879 0.445313,-0.91406254 0.445313,-1.88671879 V -4.1721172 Z m -1.207031,0.4921875 c 0.726562,0 1.148437,0.609375 1.148437,1.6523438 0,0.9960937 -0.433594,1.59374996 -1.136719,1.59374996 -0.726562,0 -1.160156,-0.60937496 -1.160156,-1.61718746 0,-1.0078125 0.445313,-1.6289063 1.148438,-1.6289063 z m 3.049804,2.84765626 v 0.8320312525 h 0.480469 V 0.14038281 c 0,0.55078125 -0.105469,0.71484375 -0.480469,0.7265625 V 1.1716328 c 0.5625,0 0.84375,-0.36328124 0.84375,-1.04296874 v -0.9609375 z m 0,0"
       style="fill:#000000;fill-opacity:1;fill-rule:nonzero;stroke:none"
       aria-label="Ingestion,Preprocessing,"
       transform="matrix(1.3333333,0,0,1.3333333,4.9253333,39.402667)" />
    <path
       id="path4"
       d="M 0.70301563,7.1875e-4 H 3.6561406 c 0.6210938,0 1.078125,-0.17578125 1.4296875,-0.55078125 0.3164063,-0.33984375 0.5039063,-0.8085937 0.5039063,-1.3125 0,-0.7851562 -0.3632813,-1.265625 -1.1953125,-1.59375 0.5859375,-0.2695312 0.9023437,-0.7617187 0.9023437,-1.4179687 0,-0.4804688 -0.1757812,-0.9023438 -0.515625,-1.2070313 C 4.4412969,-6.386 3.9842656,-6.5383437 3.3631719,-6.5383437 H 0.70301563 Z M 1.5467656,-3.714125 v -2.0859375 h 1.6054688 c 0.46875,0 0.7265625,0.058594 0.9492187,0.234375 0.234375,0.1757813 0.3632813,0.4453125 0.3632813,0.8085938 0,0.3515625 -0.1289063,0.6210937 -0.3632813,0.8085937 -0.2226562,0.1640625 -0.4804687,0.234375 -0.9492187,0.234375 z m 0,2.9765625 v -2.25 h 2.0273438 c 0.4101562,0 0.6796875,0.1054688 0.8671875,0.3164063 0.1992187,0.2109375 0.3046875,0.4921875 0.3046875,0.8203125 0,0.3046875 -0.1054688,0.5976562 -0.3046875,0.796875 -0.1875,0.2226562 -0.4570313,0.3164062 -0.8671875,0.3164062 z m 9.2255864,0.3046875 c -0.08203,0.0117188 -0.117188,0.0117188 -0.152344,0.0117188 -0.269531,0 -0.410156,-0.12890625 -0.410156,-0.36328125 V -3.5500625 c 0,-0.8320312 -0.6093754,-1.2773437 -1.7695317,-1.2773437 -0.6796875,0 -1.2421875,0.1875 -1.5585937,0.5390625 -0.2109375,0.2460937 -0.3046875,0.515625 -0.3164063,0.984375 h 0.75 C 7.3739141,-3.8781875 7.7137578,-4.136 8.4168828,-4.136 c 0.6679688,0 1.0546875,0.2460938 1.0546875,0.6914063 v 0.1992187 c 0,0.3164063 -0.1875,0.4453125 -0.7851562,0.515625 -1.0546875,0.140625 -1.21875,0.1757813 -1.5,0.2929688 -0.5507813,0.2226562 -0.8320313,0.6445312 -0.8320313,1.2539062 0,0.85546875 0.5976563,1.39453125 1.546875,1.39453125 0.5859375,0 1.0664063,-0.2109375 1.59375,-0.69140625 0.046875,0.46875 0.28125,0.69140625 0.7734372,0.69140625 0.152344,0 0.269532,-0.0234375 0.503907,-0.0820313 z M 9.4715703,-1.4758437 c 0,0.2460937 -0.082031,0.3984375 -0.3046875,0.60937495 -0.3046875,0.28125 -0.6679687,0.421875 -1.1132812,0.421875 -0.5742188,0 -0.9140625,-0.28125 -0.9140625,-0.76171875 0,-0.4921875 0.328125,-0.7382812 1.125,-0.8554687 0.7851562,-0.1054688 0.9492187,-0.140625 1.2070312,-0.2578125 z M 13.239148,-4.6985 H 12.47743 v -1.2890625 h -0.75 V -4.6985 h -0.632813 v 0.609375 h 0.632813 v 3.55078125 c 0,0.48046875 0.328125,0.75 0.902343,0.75 0.1875,0 0.363282,-0.0234375 0.609375,-0.0703125 V -0.47975 c -0.09375,0.0234375 -0.210937,0.0351563 -0.351562,0.0351563 -0.328125,0 -0.410156,-0.09375 -0.410156,-0.421875 V -4.089125 h 0.761718 z m 4.438477,1.5820313 c -0.03516,-0.4570313 -0.128906,-0.75 -0.304687,-1.0195313 -0.328125,-0.4335937 -0.890625,-0.6914062 -1.546875,-0.6914062 -1.265625,0 -2.085938,0.9960937 -2.085938,2.5546875 0,1.52343745 0.808594,2.48437495 2.074219,2.48437495 1.125,0 1.828125,-0.6796875 1.921875,-1.82812495 h -0.75 C 16.857313,-0.85475 16.470594,-0.47975 15.837781,-0.47975 c -0.832031,0 -1.324218,-0.6796875 -1.324218,-1.7929687 0,-1.171875 0.492187,-1.8632813 1.300781,-1.8632813 0.632812,0 1.019531,0.3632813 1.113281,1.0195313 z m 0.896484,-3.421875 V 7.1875e-4 h 0.738282 V -2.589125 c 0,-0.9609375 0.503906,-1.5820312 1.277343,-1.5820312 0.234375,0 0.480469,0.070312 0.65625,0.2109375 0.222657,0.1523437 0.304688,0.375 0.304688,0.703125 V 7.1875e-4 h 0.75 V -3.5500625 c 0,-0.7851562 -0.5625,-1.2773437 -1.476563,-1.2773437 -0.667968,0 -1.066406,0.1992187 -1.511718,0.7734375 v -2.484375 z M 24.275281,-4.6985 h -0.75 V 7.1875e-4 h 0.75 z m 0,-1.8398437 h -0.761718 v 0.9492187 h 0.761718 z M 25.549695,-4.6985 V 7.1875e-4 h 0.75 V -2.589125 c 0,-0.9609375 0.503907,-1.5820312 1.265625,-1.5820312 0.597657,0 0.972657,0.3515625 0.972657,0.9140625 V 7.1875e-4 h 0.75 V -3.5500625 c 0,-0.7734375 -0.585938,-1.2773437 -1.488282,-1.2773437 -0.703125,0 -1.148437,0.2695312 -1.570312,0.9140625 V -4.6985 Z m 8.044922,0 v 0.6796875 c -0.375,-0.5507812 -0.832031,-0.8085937 -1.429687,-0.8085937 -1.195313,0 -2.003907,1.03125 -2.003907,2.5546875 0,0.7734375 0.210938,1.40624995 0.597657,1.85156245 0.351562,0.3984375 0.84375,0.6328125 1.335937,0.6328125 0.597656,0 1.007813,-0.2578125 1.429688,-0.84375 v 0.234375 c 0,0.64453125 -0.08203,1.03125 -0.269532,1.2890625 -0.199218,0.26953125 -0.585937,0.43359375 -1.042968,0.43359375 -0.339844,0 -0.644532,-0.082031 -0.84375,-0.2460937 C 31.192273,0.93821875 31.121961,0.82103125 31.075086,0.53978125 h -0.761719 c 0.08203,0.89062505 0.773438,1.41796875 1.875,1.41796875 0.703125,0 1.300781,-0.2226562 1.605469,-0.5976562 C 34.157117,0.9265 34.286023,0.32884375 34.286023,-0.77271875 V -4.6985 Z m -1.347656,0.5625 c 0.808594,0 1.277344,0.6796875 1.277344,1.8515625 0,1.125 -0.480469,1.8046875 -1.277344,1.8046875 -0.808594,0 -1.300781,-0.6914062 -1.300781,-1.828125 0,-1.1367187 0.503906,-1.828125 1.300781,-1.828125 z m 0,0"
       style="fill:#000000;fill-opacity:1;fill-rule:nonzero;stroke:none"
       aria-label="Batching"
       transform="matrix(1.3333333,0,0,1.3333333,41.617333,54.014667)" />
    <path
       id="path5"
       d="m 194.44199,19.84268 h -86.72461 c -1.10047,0 -1.99256,-0.89209 -1.99256,-1.99255 v -35.70026 c 0,-1.10046 0.89209,-1.99255 1.99256,-1.99255 h 86.72461 c 1.10048,0 1.99255,0.89209 1.99255,1.99255 v 35.70026 c 0,1.10046 -0.89207,1.99255 -1.99255,1.99255 z"
       style="fill:#d1f3ff;fill-opacity:1;fill-rule:nonzero;stroke:#006395;stroke-width:0.74721;stroke-linecap:butt;stroke-linejoin:miter;stroke-miterlimit:10;stroke-dasharray:none;stroke-opacity:1"
       transform="matrix(1.3333333,0,0,-1.3333333,64.876,36.473333)" />
    <path
       id="path6"
       d="M 3.1750078,-5.8016953 H 5.3195391 V -6.5399766 H 0.18672656 v 0.7382813 H 2.3429766 v 5.8007812375 h 0.8320312 z m 1.8486328,1.1015625 v 4.6992187375 h 0.75 V -2.4384141 c 0,-0.6679687 0.1757813,-1.1132812 0.5273438,-1.3710937 0.234375,-0.1757813 0.4570312,-0.2226563 0.984375,-0.234375 v -0.7617188 c -0.1289063,-0.023437 -0.1992188,-0.023437 -0.2929688,-0.023437 -0.4804687,0 -0.8554687,0.28125 -1.2773437,0.984375 v -0.8554687 z m 7.0693364,4.26562499 c -0.08203,0.0117188 -0.117188,0.0117188 -0.152344,0.0117188 -0.269531,0 -0.410156,-0.12890625 -0.410156,-0.36328125 V -3.5516953 c 0,-0.8320313 -0.609375,-1.2773438 -1.7695317,-1.2773438 -0.6796875,0 -1.2421875,0.1875 -1.5585937,0.5390625 -0.2109375,0.2460938 -0.3046875,0.515625 -0.3164063,0.984375 h 0.75 c 0.058594,-0.5742187 0.3984375,-0.8320312 1.1015625,-0.8320312 0.6679692,0 1.0546872,0.2460937 1.0546872,0.6914062 v 0.1992188 c 0,0.3164062 -0.1875,0.4453125 -0.785156,0.515625 -1.0546874,0.140625 -1.2187499,0.1757812 -1.4999999,0.2929687 -0.5507813,0.2226563 -0.8320313,0.6445313 -0.8320313,1.2539063 0,0.85546874 0.5976563,1.39453124 1.546875,1.39453124 0.5859375,0 1.0664062,-0.2109375025 1.5937502,-0.69140625 0.04687,0.46875 0.28125,0.69140625 0.773437,0.69140625 0.152344,0 0.269532,-0.0234375 0.503907,-0.0820313 z M 10.792195,-1.4774766 c 0,0.2460938 -0.08203,0.3984375 -0.304687,0.60937504 -0.304688,0.28125 -0.6679689,0.421875 -1.1132814,0.421875 -0.5742188,0 -0.9140625,-0.28125 -0.9140625,-0.76171874 0,-0.4921875 0.328125,-0.7382813 1.125,-0.8554688 0.7851559,-0.1054687 0.9492189,-0.140625 1.2070309,-0.2578125 z m 2.838867,-3.2226562 h -0.75 v 4.6992187375 h 0.75 z m 0,-1.8398438 h -0.761718 v 0.9492188 h 0.761718 z m 1.277344,1.8398438 v 4.6992187375 h 0.75 V -2.5907578 c 0,-0.9609375 0.503906,-1.5820313 1.265625,-1.5820313 0.597656,0 0.972656,0.3515625 0.972656,0.9140625 v 3.2578125375 h 0.75 V -3.5516953 c 0,-0.7734375 -0.585937,-1.2773438 -1.488281,-1.2773438 -0.703125,0 -1.148437,0.2695313 -1.570312,0.9140625 v -0.7851562 z m 5.698242,0 h -0.75 v 4.6992187375 h 0.75 z m 0,-1.8398438 H 19.84493 v 0.9492188 h 0.761718 z m 1.277344,1.8398438 v 4.6992187375 h 0.75 V -2.5907578 c 0,-0.9609375 0.503906,-1.5820313 1.265625,-1.5820313 0.597656,0 0.972656,0.3515625 0.972656,0.9140625 v 3.2578125375 h 0.75 V -3.5516953 c 0,-0.7734375 -0.585937,-1.2773438 -1.488281,-1.2773438 -0.703125,0 -1.148437,0.2695313 -1.570312,0.9140625 v -0.7851562 z m 8.041992,0 v 0.6796875 c -0.375,-0.5507813 -0.832031,-0.8085938 -1.429687,-0.8085938 -1.195313,0 -2.003906,1.03125 -2.003906,2.5546875 0,0.7734375 0.210937,1.40625004 0.597656,1.85156254 0.351562,0.3984375 0.84375,0.6328125 1.335937,0.6328125 0.597657,0 1.007813,-0.2578125 1.429688,-0.84375 v 0.234375 c 0,0.64453125 -0.08203,1.03125 -0.269531,1.2890625 -0.199219,0.26953126 -0.585938,0.43359376 -1.042969,0.43359376 -0.339844,0 -0.644531,-0.082031 -0.84375,-0.2460938 C 27.523641,0.93658594 27.453328,0.81939844 27.406453,0.53814844 h -0.761719 c 0.08203,0.89062496 0.773438,1.41796876 1.875,1.41796876 0.703125,0 1.300782,-0.2226563 1.605469,-0.5976563 0.363281,-0.43359371 0.492188,-1.03124996 0.492188,-2.13281246 V -4.7001328 Z m -1.347656,0.5625 c 0.808594,0 1.277344,0.6796875 1.277344,1.8515625 0,1.125 -0.480469,1.80468749 -1.277344,1.80468749 -0.808594,0 -1.300781,-0.69140629 -1.300781,-1.82812499 0,-1.1367188 0.503906,-1.828125 1.300781,-1.828125 z m 6.673828,-2.4023438 h -0.832031 v 6.5390625375 h 4.066406 V -0.73919531 h -3.234375 z m 5.874024,1.7109375 c -1.3125,0 -2.109375,0.9375 -2.109375,2.5195313 0,1.57031249 0.785156,2.51953124 2.121093,2.51953124 1.3125,0 2.121094,-0.94921875 2.121094,-2.48437504 0,-1.6289062 -0.773437,-2.5546875 -2.132812,-2.5546875 z m 0.01172,0.6914063 c 0.84375,0 1.347657,0.6796875 1.347657,1.8515625 0,1.1015625 -0.527344,1.80468749 -1.347657,1.80468749 -0.832031,0 -1.347656,-0.69140629 -1.347656,-1.82812499 0,-1.1367188 0.515625,-1.828125 1.347656,-1.828125 z m 4.97461,-0.6914063 c -1.3125,0 -2.109375,0.9375 -2.109375,2.5195313 0,1.57031249 0.785156,2.51953124 2.121094,2.51953124 1.3125,0 2.121093,-0.94921875 2.121093,-2.48437504 0,-1.6289062 -0.773437,-2.5546875 -2.132812,-2.5546875 z m 0.01172,0.6914063 c 0.84375,0 1.347656,0.6796875 1.347656,1.8515625 0,1.1015625 -0.527344,1.80468749 -1.347656,1.80468749 -0.832032,0 -1.347657,-0.69140629 -1.347657,-1.82812499 0,-1.1367188 0.515625,-1.828125 1.347657,-1.828125 z m 3.017578,6.09375 h 0.761718 v -2.44921876 c 0.386719,0.48046875 0.832032,0.703125 1.441407,0.703125 1.207031,0 2.003906,-0.984375 2.003906,-2.48437504 0,-1.5703125 -0.773438,-2.5546875 -2.015625,-2.5546875 -0.632813,0 -1.148438,0.28125 -1.5,0.84375 v -0.7148437 h -0.691406 z m 2.0625,-6.09375 c 0.832031,0 1.371093,0.7265625 1.371093,1.8515625 0,1.0664062 -0.550781,1.79296874 -1.371093,1.79296874 -0.785157,0 -1.300782,-0.71484374 -1.300782,-1.81640624 0,-1.1015625 0.515625,-1.828125 1.300782,-1.828125 z m 0,0"
       style="fill:#000000;fill-opacity:1;fill-rule:nonzero;stroke:none"
       aria-label="TrainingLoop"
       transform="matrix(1.3333333,0,0,1.3333333,230.544,26.052)" />
    <path
       id="path7"
       d="m 1.4521953,-2.6483906 h 2.7773438 v -0.65625 H 1.4521953 v -1.8515625 h 3.1640625 v -0.65625 H 0.71391406 V 4.6875e-5 H 1.4521953 Z m 5.3554688,-1.6523438 c -1.171875,0 -1.8867188,0.84375 -1.8867188,2.25 0,1.39453127 0.703125,2.23828127 1.8984375,2.23828127 1.171875,0 1.8867188,-0.84375 1.8867188,-2.21484377 0,-1.4414062 -0.6914063,-2.2734375 -1.8984375,-2.2734375 z m 0.011719,0.6210938 c 0.75,0 1.1953125,0.609375 1.1953125,1.6523437 0,0.9726563 -0.46875,1.59375002 -1.1953125,1.59375002 -0.75,0 -1.1953125,-0.60937502 -1.1953125,-1.61718752 0,-1.0078125 0.4453125,-1.6289062 1.1953125,-1.6289062 z M 9.611375,-4.1718281 V 4.6875e-5 h 0.667969 V -2.1679219 c 0,-0.5976562 0.152344,-0.984375 0.46875,-1.21875 0.210937,-0.1523437 0.410156,-0.1992187 0.867187,-0.2109375 v -0.6679687 c -0.105468,-0.023437 -0.164062,-0.035156 -0.246093,-0.035156 -0.433594,0 -0.761719,0.2578125 -1.148438,0.8789063 v -0.75 z M 16.132859,4.6875e-5 17.351609,-4.1718281 h -0.738281 l -0.832031,3.24609372 -0.820313,-3.24609372 h -0.820312 l -0.796875,3.24609372 -0.84375,-3.24609372 H 11.761766 L 12.968797,4.6875e-5 h 0.75 L 14.527391,-3.2694844 15.371141,4.6875e-5 Z m 5.484375,-0.386718755 c -0.07031,0.0117188 -0.105468,0.0117188 -0.140625,0.0117188 -0.234375,0 -0.363281,-0.1171875 -0.363281,-0.328125 V -3.1522969 c 0,-0.75 -0.539062,-1.1484375 -1.570312,-1.1484375 -0.609375,0 -1.113282,0.1757813 -1.382813,0.4921875 -0.199219,0.2109375 -0.269531,0.4570313 -0.292969,0.8671875 h 0.667969 c 0.05859,-0.5039062 0.363281,-0.7382812 0.984375,-0.7382812 0.597656,0 0.9375,0.2226562 0.9375,0.6210937 v 0.1757813 c 0,0.28125 -0.175781,0.3984375 -0.703125,0.4570312 -0.9375,0.1171875 -1.078125,0.1523438 -1.335937,0.2578125 -0.480469,0.1992188 -0.726563,0.5742188 -0.726563,1.1132813 0,0.76171872 0.515625,1.24218747 1.371094,1.24218747 0.515625,0 0.9375,-0.187499995 1.417969,-0.62109375 0.04687,0.421875 0.246093,0.62109375 0.679687,0.62109375 0.140625,0 0.234375,-0.0234375 0.457031,-0.0703125 z M 20.457078,-1.3124531 c 0,0.2226562 -0.07031,0.35156247 -0.269531,0.53906247 -0.269531,0.24609375 -0.597656,0.375 -0.984375,0.375 -0.515625,0 -0.820313,-0.24609375 -0.820313,-0.66796877 0,-0.4453125 0.292969,-0.6679687 0.996094,-0.7617187 0.703125,-0.1054688 0.84375,-0.1289063 1.078125,-0.234375 z m 1.875,-2.859375 V 4.6875e-5 h 0.667969 V -2.1679219 c 0,-0.5976562 0.152344,-0.984375 0.46875,-1.21875 0.210937,-0.1523437 0.410156,-0.1992187 0.867187,-0.2109375 v -0.6679687 c -0.105468,-0.023437 -0.164062,-0.035156 -0.246093,-0.035156 -0.433594,0 -0.761719,0.2578125 -1.148438,0.8789063 v -0.75 z m 6.052735,-1.640625 h -0.667969 v 2.1679687 c -0.28125,-0.421875 -0.726563,-0.65625 -1.277344,-0.65625 -1.089844,0 -1.792969,0.8789063 -1.792969,2.203125 0,1.41796877 0.691407,2.28515627 1.816407,2.28515627 0.574218,0 0.972656,-0.22265625 1.324218,-0.73828125 V 4.6875e-5 h 0.597657 z m -1.839844,2.1445312 c 0.714844,0 1.171875,0.6328125 1.171875,1.6289063 0,0.9609375 -0.457031,1.60546872 -1.160156,1.60546872 -0.738282,0 -1.21875,-0.64453122 -1.21875,-1.61718752 0,-0.9726562 0.480468,-1.6171875 1.207031,-1.6171875 z m 6.002929,1.2070313 h 1.828125 c 0.457032,0 0.808594,-0.140625 1.125,-0.4101563 0.351563,-0.328125 0.503907,-0.703125 0.503907,-1.2304687 0,-1.0898438 -0.65625,-1.7109375 -1.792969,-1.7109375 H 31.809617 V 4.6875e-5 h 0.738281 z m 0,-0.65625 v -2.0390625 h 1.546875 c 0.714844,0 1.136719,0.3867187 1.136719,1.0195312 0,0.6328125 -0.421875,1.0195313 -1.136719,1.0195313 z m 7.798829,2.73046872 c -0.07031,0.0117188 -0.105469,0.0117188 -0.140625,0.0117188 -0.234375,0 -0.363282,-0.1171875 -0.363282,-0.328125 V -3.1522969 c 0,-0.75 -0.539062,-1.1484375 -1.570312,-1.1484375 -0.609375,0 -1.113281,0.1757813 -1.382813,0.4921875 -0.199218,0.2109375 -0.269531,0.4570313 -0.292968,0.8671875 h 0.667968 c 0.05859,-0.5039062 0.363282,-0.7382812 0.984375,-0.7382812 0.597657,0 0.9375,0.2226562 0.9375,0.6210937 v 0.1757813 c 0,0.28125 -0.175781,0.3984375 -0.703125,0.4570312 -0.9375,0.1171875 -1.078125,0.1523438 -1.335937,0.2578125 -0.480469,0.1992188 -0.726563,0.5742188 -0.726563,1.1132813 0,0.76171872 0.515625,1.24218747 1.371094,1.24218747 0.515625,0 0.9375,-0.187499995 1.417969,-0.62109375 0.04687,0.421875 0.246094,0.62109375 0.679687,0.62109375 0.140625,0 0.234375,-0.0234375 0.457032,-0.0703125 z M 39.18657,-1.3124531 c 0,0.2226562 -0.07031,0.35156247 -0.269531,0.53906247 -0.269531,0.24609375 -0.597656,0.375 -0.984375,0.375 -0.515625,0 -0.820312,-0.24609375 -0.820312,-0.66796877 0,-0.4453125 0.292968,-0.6679687 0.996093,-0.7617187 0.703125,-0.1054688 0.84375,-0.1289063 1.078125,-0.234375 z m 4.816407,-1.6992188 c -0.01172,-0.8203125 -0.550782,-1.2890625 -1.511719,-1.2890625 -0.972656,0 -1.605469,0.5039063 -1.605469,1.2773438 0,0.65625 0.339844,0.9726562 1.324219,1.2070312 l 0.621094,0.1523438 c 0.457031,0.1054687 0.644531,0.28125 0.644531,0.5859375 0,0.38671872 -0.386719,0.64453122 -0.972656,0.64453122 -0.363282,0 -0.65625,-0.10546875 -0.832032,-0.28125 -0.105468,-0.1171875 -0.152343,-0.234375 -0.1875,-0.52734372 H 40.78032 c 0.03516,0.96093747 0.574219,1.42968747 1.664063,1.42968747 1.054687,0 1.722656,-0.52734375 1.722656,-1.32421877 0,-0.6210937 -0.351562,-0.9726562 -1.183594,-1.171875 l -0.632812,-0.140625 c -0.539063,-0.1289062 -0.773438,-0.3046875 -0.773438,-0.5976562 0,-0.3867188 0.339844,-0.6328125 0.890625,-0.6328125 0.527344,0 0.820313,0.234375 0.832032,0.6679687 z m 3.987304,0 c -0.01172,-0.8203125 -0.550781,-1.2890625 -1.511718,-1.2890625 -0.972657,0 -1.605469,0.5039063 -1.605469,1.2773438 0,0.65625 0.339844,0.9726562 1.324219,1.2070312 l 0.621093,0.1523438 c 0.457032,0.1054687 0.644532,0.28125 0.644532,0.5859375 0,0.38671872 -0.386719,0.64453122 -0.972657,0.64453122 -0.363281,0 -0.65625,-0.10546875 -0.832031,-0.28125 -0.105469,-0.1171875 -0.152344,-0.234375 -0.1875,-0.52734372 h -0.703125 c 0.03516,0.96093747 0.574219,1.42968747 1.664063,1.42968747 1.054687,0 1.722656,-0.52734375 1.722656,-1.32421877 0,-0.6210937 -0.351563,-0.9726562 -1.183594,-1.171875 l -0.632812,-0.140625 C 45.798875,-2.5780781 45.5645,-2.7538594 45.5645,-3.0468281 c 0,-0.3867188 0.339844,-0.6328125 0.890625,-0.6328125 0.527344,0 0.820313,0.234375 0.832031,0.6679687 z m 1.063477,2.17968752 V 4.6875e-5 h 0.480469 V 0.14067187 c 0,0.55078125 -0.105469,0.71484375 -0.480469,0.7265625 V 1.1719219 c 0.5625,0 0.84375,-0.36328128 0.84375,-1.04296878 v -0.9609375 z m 5.124023,-4.98046872 h -0.75 V 4.6875e-5 h 3.609375 V -0.65620313 h -2.859375 z m 5.214844,1.5117187 c -1.171875,0 -1.886719,0.84375 -1.886719,2.25 0,1.39453127 0.703125,2.23828127 1.898438,2.23828127 1.171875,0 1.886719,-0.84375 1.886719,-2.21484377 0,-1.4414062 -0.691407,-2.2734375 -1.898438,-2.2734375 z m 0.01172,0.6210938 c 0.75,0 1.195312,0.609375 1.195312,1.6523437 0,0.9726563 -0.46875,1.59375002 -1.195312,1.59375002 -0.75,0 -1.195313,-0.60937502 -1.195313,-1.61718752 0,-1.0078125 0.445313,-1.6289062 1.195313,-1.6289062 z m 5.745117,0.6679687 c -0.01172,-0.8203125 -0.550781,-1.2890625 -1.511719,-1.2890625 -0.972656,0 -1.605469,0.5039063 -1.605469,1.2773438 0,0.65625 0.339844,0.9726562 1.324219,1.2070312 l 0.621094,0.1523438 c 0.457031,0.1054687 0.644531,0.28125 0.644531,0.5859375 0,0.38671872 -0.386719,0.64453122 -0.972656,0.64453122 -0.363281,0 -0.65625,-0.10546875 -0.832031,-0.28125 -0.105469,-0.1171875 -0.152344,-0.234375 -0.1875,-0.52734372 h -0.703125 c 0.03516,0.96093747 0.574218,1.42968747 1.664062,1.42968747 1.054688,0 1.722656,-0.52734375 1.722656,-1.32421877 0,-0.6210937 -0.351562,-0.9726562 -1.183593,-1.171875 l -0.632813,-0.140625 c -0.539062,-0.1289062 -0.773437,-0.3046875 -0.773437,-0.5976562 0,-0.3867188 0.339843,-0.6328125 0.890625,-0.6328125 0.527343,0 0.820312,0.234375 0.832031,0.6679687 z m 3.984375,0 c -0.01172,-0.8203125 -0.550781,-1.2890625 -1.511719,-1.2890625 -0.972656,0 -1.605469,0.5039063 -1.605469,1.2773438 0,0.65625 0.339844,0.9726562 1.324219,1.2070312 l 0.621094,0.1523438 c 0.457031,0.1054687 0.644531,0.28125 0.644531,0.5859375 0,0.38671872 -0.386719,0.64453122 -0.972656,0.64453122 -0.363281,0 -0.65625,-0.10546875 -0.832031,-0.28125 -0.105469,-0.1171875 -0.152344,-0.234375 -0.1875,-0.52734372 H 65.91118 c 0.03516,0.96093747 0.574218,1.42968747 1.664062,1.42968747 1.054688,0 1.722656,-0.52734375 1.722656,-1.32421877 0,-0.6210937 -0.351562,-0.9726562 -1.183593,-1.171875 l -0.632813,-0.140625 c -0.539062,-0.1289062 -0.773437,-0.3046875 -0.773437,-0.5976562 0,-0.3867188 0.339843,-0.6328125 0.890625,-0.6328125 0.527343,0 0.820312,0.234375 0.832031,0.6679687 z m 1.063477,2.17968752 V 4.6875e-5 h 0.480468 V 0.14067187 c 0,0.55078125 -0.105468,0.71484375 -0.480468,0.7265625 V 1.1719219 c 0.5625,0 0.84375,-0.36328128 0.84375,-1.04296878 v -0.9609375 z m 0,0"
       style="fill:#000000;fill-opacity:1;fill-rule:nonzero;stroke:none"
       aria-label="ForwardPass,Loss,"
       transform="matrix(1.3333333,0,0,1.3333333,218.49733,40.664)" />
    <path
       id="path8"
       d="M 0.70385938,0.00100781 H 3.6569844 c 0.6210937,0 1.078125,-0.17578125 1.4296875,-0.55078125 0.3164062,-0.33984375 0.5039062,-0.80859376 0.5039062,-1.31249996 0,-0.7851563 -0.3632812,-1.265625 -1.1953125,-1.59375 0.5859375,-0.2695313 0.9023438,-0.7617188 0.9023438,-1.4179688 0,-0.4804687 -0.1757813,-0.9023437 -0.515625,-1.2070312 C 4.4421406,-6.3857109 3.9851094,-6.5380547 3.3640156,-6.5380547 H 0.70385938 Z M 1.5476094,-3.7138359 v -2.0859375 h 1.6054687 c 0.46875,0 0.7265625,0.058594 0.9492188,0.234375 0.234375,0.1757812 0.3632812,0.4453125 0.3632812,0.8085937 0,0.3515625 -0.1289062,0.6210938 -0.3632812,0.8085938 -0.2226563,0.1640625 -0.4804688,0.234375 -0.9492188,0.234375 z m 0,2.97656246 V -2.9872734 h 2.0273437 c 0.4101563,0 0.6796875,0.1054687 0.8671875,0.3164062 0.1992188,0.2109375 0.3046875,0.4921875 0.3046875,0.8203125 0,0.3046875 -0.1054687,0.5976563 -0.3046875,0.796875 -0.1875,0.22265626 -0.4570312,0.31640626 -0.8671875,0.31640626 z m 9.2255856,0.3046875 c -0.08203,0.0117188 -0.117187,0.0117188 -0.152343,0.0117188 -0.269532,0 -0.410157,-0.12890625 -0.410157,-0.36328125 V -3.5497734 c 0,-0.8320313 -0.6093747,-1.2773438 -1.7695309,-1.2773438 -0.6796875,0 -1.2421875,0.1875 -1.5585938,0.5390625 -0.2109375,0.2460938 -0.3046875,0.515625 -0.3164062,0.984375 h 0.75 c 0.058594,-0.5742187 0.3984375,-0.8320312 1.1015625,-0.8320312 0.6679687,0 1.0546875,0.2460937 1.0546875,0.6914062 v 0.1992188 c 0,0.3164062 -0.1875,0.4453125 -0.7851563,0.515625 -1.0546875,0.140625 -1.21875,0.1757812 -1.5,0.2929687 -0.5507812,0.2226563 -0.8320312,0.6445313 -0.8320312,1.2539063 0,0.85546871 0.5976562,1.39453121 1.546875,1.39453121 0.5859375,0 1.0664062,-0.2109375 1.59375,-0.69140625 0.046875,0.46875 0.28125,0.69140625 0.7734374,0.69140625 0.152344,0 0.269531,-0.0234375 0.503906,-0.0820313 z M 9.4724141,-1.4755547 c 0,0.2460938 -0.082031,0.3984375 -0.3046875,0.60937501 -0.3046875,0.28125 -0.6679688,0.421875 -1.1132813,0.421875 -0.5742187,0 -0.9140625,-0.28125 -0.9140625,-0.76171871 0,-0.4921875 0.328125,-0.7382813 1.125,-0.8554688 0.7851563,-0.1054687 0.9492188,-0.140625 1.2070313,-0.2578125 z m 5.7128909,-1.640625 c -0.03516,-0.4570312 -0.128907,-0.75 -0.304688,-1.0195312 -0.328125,-0.4335938 -0.890625,-0.6914063 -1.546875,-0.6914063 -1.265625,0 -2.085937,0.9960938 -2.085937,2.5546875 0,1.52343751 0.808593,2.48437501 2.074218,2.48437501 1.125,0 1.828125,-0.6796875 1.921875,-1.82812501 h -0.75 c -0.128906,0.76171876 -0.515625,1.13671876 -1.148437,1.13671876 -0.832031,0 -1.324219,-0.67968746 -1.324219,-1.79296876 0,-1.171875 0.492188,-1.8632812 1.300781,-1.8632812 0.632813,0 1.019532,0.3632812 1.113282,1.0195312 z m 1.350586,-3.421875 h -0.75 v 6.53906251 h 0.75 V -1.8271172 l 0.726562,-0.7148437 1.582031,2.54296871 h 0.925782 l -1.921875,-3.07031251 1.640625,-1.6289062 h -0.960938 l -1.992187,1.9921875 z M 24.721438,0.00100781 26.10425,-4.6982109 H 25.2605 l -0.9375,3.65625 -0.925781,-3.65625 h -0.914063 l -0.890625,3.65625 -0.960937,-3.65625 h -0.820313 l 1.359375,4.69921871 h 0.84375 L 22.91675,-3.6786797 23.865969,0.00100781 Z M 30.8855,-0.43258594 c -0.08203,0.0117188 -0.117187,0.0117188 -0.152344,0.0117188 -0.269531,0 -0.410156,-0.12890625 -0.410156,-0.36328125 V -3.5497734 c 0,-0.8320313 -0.609375,-1.2773438 -1.769531,-1.2773438 -0.679688,0 -1.242188,0.1875 -1.558594,0.5390625 -0.210937,0.2460938 -0.304687,0.515625 -0.316406,0.984375 h 0.75 c 0.05859,-0.5742187 0.398437,-0.8320312 1.101562,-0.8320312 0.667969,0 1.054688,0.2460937 1.054688,0.6914062 v 0.1992188 c 0,0.3164062 -0.1875,0.4453125 -0.785156,0.515625 -1.054688,0.140625 -1.21875,0.1757812 -1.5,0.2929687 -0.550782,0.2226563 -0.832032,0.6445313 -0.832032,1.2539063 0,0.85546871 0.597657,1.39453121 1.546875,1.39453121 0.585938,0 1.066407,-0.2109375 1.59375,-0.69140625 0.04687,0.46875 0.28125,0.69140625 0.773438,0.69140625 0.152344,0 0.269531,-0.0234375 0.503906,-0.0820313 z M 29.584719,-1.4755547 c 0,0.2460938 -0.08203,0.3984375 -0.304688,0.60937501 -0.304687,0.28125 -0.667968,0.421875 -1.113281,0.421875 -0.574219,0 -0.914062,-0.28125 -0.914062,-0.76171871 0,-0.4921875 0.328125,-0.7382813 1.125,-0.8554688 0.785156,-0.1054687 0.949218,-0.140625 1.207031,-0.2578125 z m 2.115234,-3.2226562 v 4.69921871 h 0.75 V -2.4364922 c 0,-0.6679687 0.175781,-1.1132812 0.527344,-1.3710937 0.234375,-0.1757813 0.457031,-0.2226563 0.984375,-0.234375 v -0.7617188 c -0.128906,-0.023437 -0.199219,-0.023437 -0.292969,-0.023437 -0.480469,0 -0.855469,0.28125 -1.277344,0.984375 v -0.8554687 z m 6.805664,-1.8398438 h -0.75 v 2.4375 c -0.316406,-0.4804687 -0.808594,-0.7265625 -1.441406,-0.7265625 -1.21875,0 -2.015625,0.9726563 -2.015625,2.4726563 0,1.58203121 0.773437,2.56640621 2.039062,2.56640621 0.644532,0 1.101563,-0.24609375 1.5,-0.83203125 v 0.62109375 h 0.667969 z m -2.0625,2.4023438 c 0.808594,0 1.3125,0.7265625 1.3125,1.8398437 0,1.0898438 -0.515625,1.80468751 -1.3125,1.80468751 -0.820312,0 -1.371094,-0.72656251 -1.371094,-1.81640621 0,-1.1015625 0.550782,-1.828125 1.371094,-1.828125 z m 6.75,1.3710937 h 2.050781 c 0.515625,0 0.914063,-0.1523437 1.265625,-0.46875 0.386719,-0.3632812 0.5625,-0.7851562 0.5625,-1.3828125 0,-1.2304687 -0.726562,-1.921875 -2.015625,-1.921875 h -2.695312 v 6.53906251 h 0.832031 z m 0,-0.7382812 v -2.296875 h 1.734375 c 0.796875,0 1.277344,0.4335937 1.277344,1.1484375 0,0.7148437 -0.480469,1.1484375 -1.277344,1.1484375 z m 8.762696,3.07031246 c -0.08203,0.0117188 -0.117188,0.0117188 -0.152344,0.0117188 -0.269531,0 -0.410156,-0.12890625 -0.410156,-0.36328125 V -3.5497734 c 0,-0.8320313 -0.609375,-1.2773438 -1.769532,-1.2773438 -0.679687,0 -1.242187,0.1875 -1.558593,0.5390625 -0.210938,0.2460938 -0.304688,0.515625 -0.316407,0.984375 h 0.75 c 0.05859,-0.5742187 0.398438,-0.8320312 1.101563,-0.8320312 0.667969,0 1.054687,0.2460937 1.054687,0.6914062 v 0.1992188 c 0,0.3164062 -0.1875,0.4453125 -0.785156,0.515625 -1.054687,0.140625 -1.21875,0.1757812 -1.5,0.2929687 -0.550781,0.2226563 -0.832031,0.6445313 -0.832031,1.2539063 0,0.85546871 0.597656,1.39453121 1.546875,1.39453121 0.585937,0 1.066406,-0.2109375 1.59375,-0.69140625 0.04687,0.46875 0.28125,0.69140625 0.773437,0.69140625 0.152344,0 0.269532,-0.0234375 0.503907,-0.0820313 z M 50.655031,-1.4755547 c 0,0.2460938 -0.08203,0.3984375 -0.304687,0.60937501 -0.304688,0.28125 -0.667969,0.421875 -1.113281,0.421875 -0.574219,0 -0.914063,-0.28125 -0.914063,-0.76171871 0,-0.4921875 0.328125,-0.7382813 1.125,-0.8554688 0.785156,-0.1054687 0.949219,-0.140625 1.207031,-0.2578125 z m 5.419922,-1.9101562 c -0.01172,-0.9257813 -0.621094,-1.4414063 -1.699219,-1.4414063 -1.101562,0 -1.804687,0.5625 -1.804687,1.4296875 0,0.7382813 0.375,1.0898438 1.488281,1.359375 l 0.703125,0.1640625 c 0.515625,0.1289063 0.726563,0.3164063 0.726563,0.65625 0,0.43359376 -0.445313,0.73828126 -1.101563,0.73828126 -0.398437,0 -0.738281,-0.1171875 -0.925781,-0.31640625 -0.117188,-0.140625 -0.175781,-0.26953121 -0.222656,-0.59765621 h -0.785157 c 0.03516,1.07812496 0.644532,1.60546871 1.875,1.60546871 1.183594,0 1.933594,-0.5859375 1.933594,-1.48828121 0,-0.703125 -0.398437,-1.0898438 -1.324219,-1.3125 l -0.714843,-0.1757813 c -0.609375,-0.140625 -0.867188,-0.3398437 -0.867188,-0.6679687 0,-0.4335938 0.375,-0.703125 0.984375,-0.703125 0.609375,0 0.925781,0.2578125 0.949219,0.75 z m 4.482422,0 c -0.01172,-0.9257813 -0.621094,-1.4414063 -1.699219,-1.4414063 -1.101562,0 -1.804687,0.5625 -1.804687,1.4296875 0,0.7382813 0.375,1.0898438 1.488281,1.359375 l 0.703125,0.1640625 c 0.515625,0.1289063 0.726563,0.3164063 0.726563,0.65625 0,0.43359376 -0.445313,0.73828126 -1.101563,0.73828126 -0.398437,0 -0.738281,-0.1171875 -0.925781,-0.31640625 -0.117188,-0.140625 -0.175781,-0.26953121 -0.222656,-0.59765621 h -0.785157 c 0.03516,1.07812496 0.644532,1.60546871 1.875,1.60546871 1.183594,0 1.933594,-0.5859375 1.933594,-1.48828121 0,-0.703125 -0.398437,-1.0898438 -1.324219,-1.3125 l -0.714843,-0.1757813 c -0.609375,-0.140625 -0.867188,-0.3398437 -0.867188,-0.6679687 0,-0.4335938 0.375,-0.703125 0.984375,-0.703125 0.609375,0 0.925781,0.2578125 0.949219,0.75 z m 0,0"
       style="fill:#000000;fill-opacity:1;fill-rule:nonzero;stroke:none"
       aria-label="BackwardPass"
       transform="matrix(1.3333333,0,0,1.3333333,225.56933,55.276)" />
    <path
       id="path9"
       d="m 342.59256,19.84268 h -86.72462 c -1.10047,0 -1.99256,-0.89209 -1.99256,-1.99255 v -35.70026 c 0,-1.10046 0.89209,-1.99255 1.99256,-1.99255 h 86.72462 c 1.10046,0 1.99255,0.89209 1.99255,1.99255 v 35.70026 c 0,1.10046 -0.89209,1.99255 -1.99255,1.99255 z"
       style="fill:#d1f3ff;fill-opacity:1;fill-rule:nonzero;stroke:#006395;stroke-width:0.74721;stroke-linecap:butt;stroke-linejoin:miter;stroke-miterlimit:10;stroke-dasharray:none;stroke-opacity:1"
       transform="matrix(1.3333333,0,0,-1.3333333,64.876,36.473333)" />
    <path
       id="path10"
       d="m 1.6397422,-2.9751719 h 3.5625 v -0.7382812 h -3.5625 V -5.7993906 H 5.3311484 V -6.5376719 H 0.80771094 V 0.00139063 H 5.4952109 V -0.73689062 H 1.6397422 Z M 8.5362266,0.00139063 10.340914,-4.6978281 H 9.4971641 L 8.1729453,-0.88923437 6.9190391,-4.6978281 h -0.84375 l 1.640625,4.69921873 z m 6.4951174,-0.43359375 c -0.08203,0.0117188 -0.117188,0.0117188 -0.152344,0.0117188 -0.269531,0 -0.410156,-0.12890625 -0.410156,-0.36328125 V -3.5493906 c 0,-0.8320313 -0.609375,-1.2773438 -1.769531,-1.2773438 -0.679688,0 -1.242188,0.1875 -1.558594,0.5390625 -0.210938,0.2460938 -0.304688,0.515625 -0.316406,0.984375 h 0.75 c 0.05859,-0.5742187 0.398437,-0.8320312 1.101562,-0.8320312 0.667969,0 1.054688,0.2460937 1.054688,0.6914062 v 0.1992188 c 0,0.3164062 -0.1875,0.4453125 -0.785157,0.515625 -1.054687,0.140625 -1.21875,0.1757812 -1.5,0.2929687 -0.550781,0.2226563 -0.832031,0.6445313 -0.832031,1.2539063 0,0.85546873 0.597656,1.39453123 1.546875,1.39453123 0.585938,0 1.066406,-0.2109375 1.59375,-0.69140625 0.04687,0.46875 0.28125,0.69140625 0.773438,0.69140625 0.152343,0 0.269531,-0.0234375 0.503906,-0.0820313 z M 13.730563,-1.4751719 c 0,0.2460938 -0.08203,0.3984375 -0.304688,0.60937503 -0.304687,0.28125 -0.667969,0.421875 -1.113281,0.421875 -0.574219,0 -0.914063,-0.28125 -0.914063,-0.76171873 0,-0.4921875 0.328125,-0.7382813 1.125,-0.8554688 0.785157,-0.1054687 0.949219,-0.140625 1.207032,-0.2578125 z m 2.853515,-5.0625 h -0.75 v 6.53906253 h 0.75 z m 4.957031,6.53906253 V -4.6978281 h -0.75 v 2.6601562 c 0,0.9609375 -0.503906,1.59375003 -1.277343,1.59375003 -0.597657,0 -0.972657,-0.36328125 -0.972657,-0.92578123 v -3.328125 h -0.738281 v 3.6210937 c 0,0.78515628 0.574219,1.28906253 1.488281,1.28906253 0.691407,0 1.136719,-0.24609375 1.570313,-0.8671875 v 0.65625 z m 5.452149,-0.43359375 c -0.08203,0.0117188 -0.117188,0.0117188 -0.152344,0.0117188 -0.269531,0 -0.410156,-0.12890625 -0.410156,-0.36328125 V -3.5493906 c 0,-0.8320313 -0.609375,-1.2773438 -1.769531,-1.2773438 -0.679688,0 -1.242188,0.1875 -1.558594,0.5390625 -0.210938,0.2460938 -0.304688,0.515625 -0.316406,0.984375 h 0.75 c 0.05859,-0.5742187 0.398437,-0.8320312 1.101562,-0.8320312 0.667969,0 1.054688,0.2460937 1.054688,0.6914062 v 0.1992188 c 0,0.3164062 -0.1875,0.4453125 -0.785157,0.515625 -1.054687,0.140625 -1.21875,0.1757812 -1.5,0.2929687 -0.550781,0.2226563 -0.832031,0.6445313 -0.832031,1.2539063 0,0.85546873 0.597656,1.39453123 1.546875,1.39453123 0.585938,0 1.066406,-0.2109375 1.59375,-0.69140625 0.04687,0.46875 0.28125,0.69140625 0.773438,0.69140625 0.152343,0 0.269531,-0.0234375 0.503906,-0.0820313 z M 25.692477,-1.4751719 c 0,0.2460938 -0.08203,0.3984375 -0.304688,0.60937503 -0.304687,0.28125 -0.667969,0.421875 -1.113281,0.421875 -0.574219,0 -0.914063,-0.28125 -0.914063,-0.76171873 0,-0.4921875 0.328125,-0.7382813 1.125,-0.8554688 0.785157,-0.1054687 0.949219,-0.140625 1.207032,-0.2578125 z m 3.767578,-3.2226562 h -0.761719 v -1.2890625 h -0.75 v 1.2890625 h -0.632813 v 0.609375 h 0.632813 v 3.55078123 c 0,0.48046875 0.328125,0.75 0.902344,0.75 0.1875,0 0.363281,-0.0234375 0.609375,-0.0703125 v -0.62109375 c -0.09375,0.0234375 -0.210938,0.0351563 -0.351563,0.0351563 -0.328125,0 -0.410156,-0.09375 -0.410156,-0.421875 V -4.0884531 h 0.761719 z m 1.567383,0 h -0.75 v 4.69921873 h 0.75 z m 0,-1.8398438 h -0.761719 v 0.9492188 h 0.761719 z m 3.079101,1.7109375 c -1.3125,0 -2.109375,0.9375 -2.109375,2.5195313 0,1.57031248 0.785156,2.51953123 2.121094,2.51953123 1.3125,0 2.121094,-0.94921875 2.121094,-2.48437503 0,-1.6289062 -0.773438,-2.5546875 -2.132813,-2.5546875 z m 0.01172,0.6914063 c 0.84375,0 1.347656,0.6796875 1.347656,1.8515625 0,1.1015625 -0.527344,1.80468748 -1.347656,1.80468748 -0.832031,0 -1.347656,-0.69140628 -1.347656,-1.82812498 0,-1.1367188 0.515625,-1.828125 1.347656,-1.828125 z m 3.169922,-0.5625 v 4.69921873 h 0.75 V -2.5884531 c 0,-0.9609375 0.503906,-1.5820313 1.265625,-1.5820313 0.597656,0 0.972656,0.3515625 0.972656,0.9140625 v 3.25781253 h 0.75 V -3.5493906 c 0,-0.7734375 -0.585938,-1.2773438 -1.488281,-1.2773438 -0.703125,0 -1.148438,0.2695313 -1.570313,0.9140625 v -0.7851562 z m 8.487304,1.9335937 h 2.050782 c 0.515625,0 0.914062,-0.1523437 1.265625,-0.46875 0.386718,-0.3632812 0.5625,-0.7851562 0.5625,-1.3828125 0,-1.2304687 -0.726563,-1.921875 -2.015625,-1.921875 h -2.695313 v 6.53906253 h 0.832031 z m 0,-0.7382812 v -2.296875 h 1.734375 c 0.796875,0 1.277344,0.4335937 1.277344,1.1484375 0,0.7148437 -0.480469,1.1484375 -1.277344,1.1484375 z m 5.677735,-1.1953125 h -0.75 v 4.69921873 h 0.75 z m 0,-1.8398438 H 50.6915 v 0.9492188 h 0.761719 z m 1.12207,8.4960938 h 0.761719 v -2.44921877 c 0.386719,0.48046875 0.832031,0.703125 1.441406,0.703125 1.207031,0 2.003906,-0.984375 2.003906,-2.48437503 0,-1.5703125 -0.773437,-2.5546875 -2.015625,-2.5546875 -0.632812,0 -1.148437,0.28125 -1.5,0.84375 V -4.6978281 H 52.57529 Z m 2.0625,-6.09375 c 0.832031,0 1.371094,0.7265625 1.371094,1.8515625 0,1.0664062 -0.550781,1.79296873 -1.371094,1.79296873 -0.785156,0 -1.300781,-0.71484373 -1.300781,-1.81640623 0,-1.1015625 0.515625,-1.828125 1.300781,-1.828125 z m 7.037109,2.0390625 c 0,-0.7148438 -0.04687,-1.1484375 -0.1875,-1.5 -0.304687,-0.7734375 -1.019531,-1.2304688 -1.898437,-1.2304688 -1.300781,0 -2.144531,0.9960938 -2.144531,2.5429688 0,1.54687498 0.808593,2.49609373 2.132812,2.49609373 1.066406,0 1.816406,-0.609375 2.003906,-1.64062503 h -0.75 c -0.210937,0.62109378 -0.632812,0.94921878 -1.230468,0.94921878 -0.480469,0 -0.878907,-0.22265625 -1.125,-0.60937498 -0.1875,-0.2695313 -0.246094,-0.5390625 -0.257813,-1.0078125 z m -3.433593,-0.609375 c 0.05859,-0.8671875 0.585937,-1.4296875 1.335937,-1.4296875 0.738281,0 1.300781,0.609375 1.300781,1.3710937 0,0.023437 0,0.035156 0,0.058594 z m 5.182617,-3.8320313 h -0.75 v 6.53906253 h 0.75 z m 1.980469,1.8398438 h -0.75 v 4.69921873 h 0.75 z m 0,-1.8398438 h -0.761719 v 0.9492188 h 0.761719 z m 1.274414,1.8398438 v 4.69921873 h 0.75 V -2.5884531 c 0,-0.9609375 0.503906,-1.5820313 1.265625,-1.5820313 0.597656,0 0.972656,0.3515625 0.972656,0.9140625 v 3.25781253 h 0.75 V -3.5493906 c 0,-0.7734375 -0.585938,-1.2773438 -1.488281,-1.2773438 -0.703125,0 -1.148438,0.2695313 -1.570313,0.9140625 v -0.7851562 z m 8.947265,2.6015625 c 0,-0.7148438 -0.04687,-1.1484375 -0.1875,-1.5 -0.304687,-0.7734375 -1.019531,-1.2304688 -1.898437,-1.2304688 -1.300781,0 -2.144531,0.9960938 -2.144531,2.5429688 0,1.54687498 0.808593,2.49609373 2.132812,2.49609373 1.066406,0 1.816406,-0.609375 2.003906,-1.64062503 h -0.75 c -0.210937,0.62109378 -0.632812,0.94921878 -1.230468,0.94921878 -0.480469,0 -0.878907,-0.22265625 -1.125,-0.60937498 -0.1875,-0.2695313 -0.246094,-0.5390625 -0.257813,-1.0078125 z m -3.433593,-0.609375 c 0.05859,-0.8671875 0.585937,-1.4296875 1.335937,-1.4296875 0.738281,0 1.300781,0.609375 1.300781,1.3710937 0,0.023437 0,0.035156 0,0.058594 z m 0,0"
       style="fill:#000000;fill-opacity:1;fill-rule:nonzero;stroke:none"
       aria-label="EvaluationPipeline"
       transform="matrix(1.3333333,0,0,1.3333333,413.16133,33.365333)" />
    <path
       id="path11"
       d="M 3.1302266,-5.78125e-4 5.1458516,-5.8130781 H 4.3489766 L 2.7435078,-0.89120312 1.0325703,-5.8130781 H 0.23569531 L 2.3333516,-5.78125e-4 Z M 9.0247578,-0.38729687 c -0.070312,0.0117188 -0.1054687,0.0117188 -0.140625,0.0117188 -0.234375,0 -0.3632812,-0.1171875 -0.3632812,-0.328125 V -3.1529219 c 0,-0.75 -0.5390625,-1.1484375 -1.5703125,-1.1484375 -0.609375,0 -1.1132813,0.1757813 -1.3828125,0.4921875 -0.1992188,0.2109375 -0.2695313,0.4570313 -0.2929688,0.8671875 h 0.6679688 c 0.058594,-0.5039062 0.3632812,-0.7382812 0.984375,-0.7382812 0.5976562,0 0.9375,0.2226562 0.9375,0.6210937 v 0.1757813 c 0,0.28125 -0.1757813,0.3984375 -0.703125,0.4570312 -0.9375,0.1171875 -1.078125,0.1523438 -1.3359375,0.2578125 -0.4804688,0.1992188 -0.7265625,0.5742188 -0.7265625,1.1132813 0,0.76171873 0.515625,1.24218748 1.3710937,1.24218748 0.515625,0 0.9375,-0.187500005 1.4179688,-0.62109375 0.046875,0.421875 0.2460937,0.62109375 0.6796875,0.62109375 0.140625,0 0.234375,-0.0234375 0.4570312,-0.0703125 z M 7.8646016,-1.3130781 c 0,0.2226562 -0.070312,0.35156248 -0.2695313,0.53906248 -0.2695312,0.24609375 -0.5976562,0.375 -0.984375,0.375 -0.515625,0 -0.8203125,-0.24609375 -0.8203125,-0.66796878 0,-0.4453125 0.2929688,-0.6679687 0.9960938,-0.7617187 0.703125,-0.1054688 0.84375,-0.1289063 1.078125,-0.234375 z m 2.5312504,-4.5 H 9.7278828 v 5.812499975 h 0.6679692 z m 1.757812,1.640625 h -0.65625 v 4.171874975 h 0.65625 z m 0,-1.640625 h -0.667969 v 0.84375 h 0.667969 z m 4.523438,0 h -0.667969 v 2.1679687 c -0.28125,-0.421875 -0.726563,-0.65625 -1.277344,-0.65625 -1.089844,0 -1.792969,0.8789063 -1.792969,2.203125 0,1.41796878 0.691407,2.28515628 1.816407,2.28515628 0.574218,0 0.972656,-0.22265625 1.324218,-0.73828125 v 0.550781245 h 0.597657 z m -1.839844,2.1445312 c 0.714844,0 1.171875,0.6328125 1.171875,1.6289063 0,0.9609375 -0.457031,1.60546873 -1.160156,1.60546873 -0.738282,0 -1.21875,-0.64453123 -1.21875,-1.61718753 0,-0.9726562 0.480468,-1.6171875 1.207031,-1.6171875 z m 6.588867,3.28125003 c -0.07031,0.0117188 -0.105469,0.0117188 -0.140625,0.0117188 -0.234375,0 -0.363281,-0.1171875 -0.363281,-0.328125 V -3.1529219 c 0,-0.75 -0.539063,-1.1484375 -1.570313,-1.1484375 -0.609375,0 -1.113281,0.1757813 -1.382812,0.4921875 -0.199219,0.2109375 -0.269531,0.4570313 -0.292969,0.8671875 h 0.667969 c 0.05859,-0.5039062 0.363281,-0.7382812 0.984375,-0.7382812 0.597656,0 0.9375,0.2226562 0.9375,0.6210937 v 0.1757813 c 0,0.28125 -0.175781,0.3984375 -0.703125,0.4570312 -0.9375,0.1171875 -1.078125,0.1523438 -1.335938,0.2578125 -0.480468,0.1992188 -0.726562,0.5742188 -0.726562,1.1132813 0,0.76171873 0.515625,1.24218748 1.371094,1.24218748 0.515625,0 0.9375,-0.187500005 1.417968,-0.62109375 0.04687,0.421875 0.246094,0.62109375 0.679688,0.62109375 0.140625,0 0.234375,-0.0234375 0.457031,-0.0703125 z M 20.265969,-1.3130781 c 0,0.2226562 -0.07031,0.35156248 -0.269531,0.53906248 -0.269532,0.24609375 -0.597657,0.375 -0.984375,0.375 -0.515625,0 -0.820313,-0.24609375 -0.820313,-0.66796878 0,-0.4453125 0.292969,-0.6679687 0.996094,-0.7617187 0.703125,-0.1054688 0.84375,-0.1289063 1.078125,-0.234375 z m 3.351562,-2.859375 h -0.691406 v -1.1484375 h -0.65625 v 1.1484375 h -0.5625 v 0.5390625 h 0.5625 v 3.15234373 c 0,0.421875 0.28125,0.66796875 0.796875,0.66796875 0.164063,0 0.328125,-0.0234375 0.550781,-0.0585938 v -0.5625 c -0.09375,0.0234375 -0.199218,0.0351563 -0.316406,0.0351563 -0.292969,0 -0.375,-0.0820313 -0.375,-0.375 V -3.6333906 h 0.691406 z m 1.385742,0 h -0.65625 v 4.171874975 h 0.65625 z m 0,-1.640625 h -0.667968 v 0.84375 h 0.667968 z m 2.742188,1.5117187 c -1.171875,0 -1.886719,0.84375 -1.886719,2.25 0,1.39453128 0.703125,2.23828128 1.898438,2.23828128 1.171875,0 1.886718,-0.84375 1.886718,-2.21484378 0,-1.4414062 -0.691406,-2.2734375 -1.898437,-2.2734375 z m 0.01172,0.6210938 c 0.75,0 1.195312,0.609375 1.195312,1.6523437 0,0.9726563 -0.46875,1.59375003 -1.195312,1.59375003 -0.75,0 -1.195313,-0.60937503 -1.195313,-1.61718753 0,-1.0078125 0.445313,-1.6289062 1.195313,-1.6289062 z m 2.8125,-0.4921875 v 4.171874975 h 0.667968 V -2.3091719 c 0,-0.84375 0.445313,-1.40625 1.125,-1.40625 0.527344,0 0.867188,0.3164063 0.867188,0.8203125 v 2.894531275 h 0.65625 V -3.1529219 c 0,-0.6914062 -0.515625,-1.1484375 -1.324219,-1.1484375 -0.621094,0 -1.019531,0.2460938 -1.382812,0.8320313 v -0.703125 z m 10.341797,3.78515623 c -0.07031,0.0117188 -0.105469,0.0117188 -0.140625,0.0117188 -0.234375,0 -0.363282,-0.1171875 -0.363282,-0.328125 V -3.1529219 c 0,-0.75 -0.539062,-1.1484375 -1.570312,-1.1484375 -0.609375,0 -1.113281,0.1757813 -1.382813,0.4921875 -0.199218,0.2109375 -0.269531,0.4570313 -0.292968,0.8671875 h 0.667968 c 0.05859,-0.5039062 0.363282,-0.7382812 0.984375,-0.7382812 0.597657,0 0.9375,0.2226562 0.9375,0.6210937 v 0.1757813 c 0,0.28125 -0.175781,0.3984375 -0.703125,0.4570312 -0.9375,0.1171875 -1.078125,0.1523438 -1.335937,0.2578125 -0.480469,0.1992188 -0.726563,0.5742188 -0.726563,1.1132813 0,0.76171873 0.515625,1.24218748 1.371094,1.24218748 0.515625,0 0.9375,-0.187500005 1.417969,-0.62109375 0.04687,0.421875 0.246094,0.62109375 0.679687,0.62109375 0.140625,0 0.234375,-0.0234375 0.457032,-0.0703125 z M 39.75132,-1.3130781 c 0,0.2226562 -0.07031,0.35156248 -0.269531,0.53906248 -0.269531,0.24609375 -0.597656,0.375 -0.984375,0.375 -0.515625,0 -0.820312,-0.24609375 -0.820312,-0.66796878 0,-0.4453125 0.292968,-0.6679687 0.996093,-0.7617187 0.703125,-0.1054688 0.84375,-0.1289063 1.078125,-0.234375 z m 1.889649,-2.859375 v 4.171874975 h 0.667969 V -2.3091719 c 0,-0.84375 0.445312,-1.40625 1.125,-1.40625 0.527343,0 0.867187,0.3164063 0.867187,0.8203125 v 2.894531275 h 0.65625 V -3.1529219 c 0,-0.6914062 -0.515625,-1.1484375 -1.324219,-1.1484375 -0.621093,0 -1.019531,0.2460938 -1.382812,0.8320313 v -0.703125 z m 7.816406,-1.640625 h -0.667969 v 2.1679687 c -0.28125,-0.421875 -0.726562,-0.65625 -1.277343,-0.65625 -1.089844,0 -1.792969,0.8789063 -1.792969,2.203125 0,1.41796878 0.691406,2.28515628 1.816406,2.28515628 0.574219,0 0.972656,-0.22265625 1.324219,-0.73828125 v 0.550781245 h 0.597656 z m -1.839844,2.1445312 c 0.714844,0 1.171875,0.6328125 1.171875,1.6289063 0,0.9609375 -0.457031,1.60546873 -1.160156,1.60546873 -0.738281,0 -1.21875,-0.64453123 -1.21875,-1.61718753 0,-0.9726562 0.480469,-1.6171875 1.207031,-1.6171875 z M 55.88218,-5.78125e-4 57.522805,-4.8638594 v 4.863281275 h 0.691406 V -5.8130781 H 57.19468 l -1.6875,5.06249998 -1.722657,-5.06249998 h -1.03125 v 5.812499975 h 0.703125 V -4.8638594 l 1.652344,4.863281275 z M 62.884133,-1.8638594 c 0,-0.6445312 -0.04687,-1.0195312 -0.164063,-1.3359375 -0.28125,-0.6796875 -0.914062,-1.1015625 -1.699218,-1.1015625 -1.160157,0 -1.910157,0.9023438 -1.910157,2.2734375 0,1.37109378 0.726563,2.21484378 1.898438,2.21484378 0.960937,0 1.617187,-0.55078125 1.78125,-1.45312498 h -0.667969 c -0.175781,0.55078123 -0.550781,0.83203123 -1.089844,0.83203123 -0.421875,0 -0.785156,-0.1875 -1.007812,-0.5390625 C 59.872414,-1.2076094 59.81382,-1.4537031 59.802102,-1.8638594 Z m -3.058594,-0.5390625 c 0.04687,-0.7734375 0.527344,-1.2773437 1.195313,-1.2773437 0.644531,0 1.148437,0.5390625 1.148437,1.2304687 0,0.011719 0,0.023437 0,0.046875 z m 5.428711,-1.7695312 h -0.691406 v -1.1484375 h -0.65625 v 1.1484375 h -0.5625 v 0.5390625 h 0.5625 v 3.15234373 c 0,0.421875 0.28125,0.66796875 0.796875,0.66796875 0.164062,0 0.328125,-0.0234375 0.550781,-0.0585938 v -0.5625 c -0.09375,0.0234375 -0.199219,0.0351563 -0.316406,0.0351563 -0.292969,0 -0.375,-0.0820313 -0.375,-0.375 V -3.6333906 h 0.691406 z m 0.738281,0 V -5.78125e-4 H 66.6605 V -2.1685469 c 0,-0.5976562 0.152344,-0.984375 0.46875,-1.21875 0.210938,-0.1523437 0.410156,-0.1992187 0.867188,-0.2109375 v -0.6679687 c -0.105469,-0.023437 -0.164063,-0.035156 -0.246094,-0.035156 -0.433594,0 -0.761719,0.2578125 -1.148438,0.8789063 v -0.75 z m 3.418946,0 h -0.65625 v 4.171874975 h 0.65625 z m 0,-1.640625 h -0.667969 v 0.84375 h 0.667969 z m 4.324218,3.0351562 c -0.02344,-0.3984375 -0.117187,-0.6679687 -0.28125,-0.890625 -0.28125,-0.3984375 -0.785156,-0.6328125 -1.359375,-0.6328125 -1.125,0 -1.863281,0.9023438 -1.863281,2.2851563 0,1.34765623 0.714844,2.20312498 1.851563,2.20312498 0.996093,0 1.628906,-0.59765625 1.699218,-1.61718748 h -0.667968 c -0.105469,0.66796873 -0.457032,0.99609373 -1.019532,0.99609373 -0.726562,0 -1.171875,-0.59765623 -1.171875,-1.58203123 0,-1.0429688 0.433594,-1.6640625 1.160157,-1.6640625 0.550781,0 0.902343,0.328125 0.984375,0.9023437 z m 3.726563,-0.234375 c -0.01172,-0.8203125 -0.550781,-1.2890625 -1.511719,-1.2890625 -0.972656,0 -1.605469,0.5039063 -1.605469,1.2773438 0,0.65625 0.339844,0.9726562 1.324219,1.2070312 l 0.621094,0.1523438 c 0.457031,0.1054687 0.644531,0.28125 0.644531,0.5859375 0,0.38671873 -0.386719,0.64453123 -0.972656,0.64453123 -0.363281,0 -0.65625,-0.10546875 -0.832031,-0.28125 -0.105469,-0.1171875 -0.152344,-0.234375 -0.1875,-0.52734373 h -0.703125 c 0.03516,0.96093748 0.574218,1.42968748 1.664062,1.42968748 1.054688,0 1.722656,-0.52734375 1.722656,-1.32421878 0,-0.6210937 -0.351562,-0.9726562 -1.183593,-1.171875 l -0.632813,-0.140625 c -0.539062,-0.1289062 -0.773437,-0.3046875 -0.773437,-0.5976562 0,-0.3867188 0.339843,-0.6328125 0.890625,-0.6328125 0.527343,0 0.820312,0.234375 0.832031,0.6679687 z m 0,0"
       style="fill:#000000;fill-opacity:1;fill-rule:nonzero;stroke:none"
       aria-label="ValidationandMetrics"
       transform="matrix(1.3333333,0,0,1.3333333,411.86933,47.977333)" />
    <path
       id="path12"
       d="m 48.6576,0 h 51.49303"
       style="fill:none;stroke:#666666;stroke-width:0.99628;stroke-linecap:butt;stroke-linejoin:miter;stroke-miterlimit:10;stroke-dasharray:none;stroke-opacity:1"
       transform="matrix(1.3333333,0,0,-1.3333333,64.876,36.473333)" />
    <path
       id="path13"
       d="M 5.20058,0 C 3.65962,0.28891 1.15567,1.15567 -0.57784,2.1669 V -2.1669 C 1.15567,-1.15567 3.65962,-0.28891 5.20058,0"
       style="fill:#666666;fill-opacity:1;fill-rule:nonzero;stroke:none"
       transform="matrix(1.3333333,0,0,-1.3333333,198.41017,36.473333)" />
    <path
       id="path14"
       d="m 1.4638281,-2.4606563 h 1.828125 c 0.4570313,0 0.8085938,-0.140625 1.125,-0.4101562 0.3515625,-0.328125 0.5039063,-0.703125 0.5039063,-1.2304688 0,-1.0898437 -0.65625,-1.7109375 -1.7929688,-1.7109375 H 0.72554688 V 2.8125e-4 H 1.4638281 Z m 0,-0.65625 v -2.0390625 h 1.546875 c 0.7148438,0 1.1367188,0.3867188 1.1367188,1.0195313 0,0.6328125 -0.421875,1.0195312 -1.1367188,1.0195312 z M 5.8671484,-4.1715938 V 2.8125e-4 H 6.5351172 V -2.1676875 c 0,-0.5976563 0.1523437,-0.984375 0.46875,-1.21875 0.2109375,-0.1523438 0.4101562,-0.1992188 0.8671875,-0.2109375 V -4.2653438 C 7.7655859,-4.2887813 7.7069922,-4.3005 7.6249609,-4.3005 c -0.4335937,0 -0.7617187,0.2578125 -1.1484375,0.8789062 v -0.75 z M 10.138633,-4.3005 c -1.1718752,0 -1.8867189,0.84375 -1.8867189,2.25 0,1.39453125 0.703125,2.23828125 1.8984379,2.23828125 1.171875,0 1.886718,-0.84375 1.886718,-2.21484375 0,-1.4414063 -0.691406,-2.2734375 -1.898437,-2.2734375 z m 0.01172,0.6210937 c 0.75,0 1.195312,0.609375 1.195312,1.6523438 0,0.9726562 -0.46875,1.59375 -1.195312,1.59375 -0.7500004,0 -1.1953129,-0.609375 -1.1953129,-1.6171875 0,-1.0078125 0.4453125,-1.6289063 1.1953129,-1.6289063 z m 6,0.9023438 C 16.126914,-3.1755 16.033164,-3.4450313 15.869102,-3.6676875 15.587852,-4.066125 15.083945,-4.3005 14.509727,-4.3005 c -1.125,0 -1.863282,0.9023437 -1.863282,2.2851562 0,1.3476563 0.714844,2.20312505 1.851563,2.20312505 0.996094,0 1.628906,-0.59765625 1.699219,-1.61718755 h -0.667969 c -0.105469,0.6679688 -0.457031,0.9960938 -1.019531,0.9960938 -0.726563,0 -1.171875,-0.5976563 -1.171875,-1.5820313 0,-1.0429687 0.433593,-1.6640625 1.160156,-1.6640625 0.550781,0 0.902344,0.328125 0.984375,0.9023438 z M 20.4775,-1.863 c 0,-0.6445313 -0.04687,-1.0195313 -0.164062,-1.3359375 C 20.032188,-3.878625 19.399375,-4.3005 18.614219,-4.3005 c -1.160156,0 -1.910156,0.9023437 -1.910156,2.2734375 0,1.37109375 0.726562,2.21484375 1.898437,2.21484375 0.960938,0 1.617188,-0.55078125 1.78125,-1.45312505 H 19.715781 C 19.54,-0.7145625 19.165,-0.4333125 18.625938,-0.4333125 c -0.421875,0 -0.785157,-0.1875 -1.007813,-0.5390625 C 17.465781,-1.20675 17.407188,-1.4528438 17.395469,-1.863 Z m -3.058594,-0.5390625 c 0.04687,-0.7734375 0.527344,-1.2773438 1.195313,-1.2773438 0.644531,0 1.148437,0.5390625 1.148437,1.2304688 0,0.011719 0,0.023437 0,0.046875 z m 6.890625,-0.609375 C 24.297813,-3.83175 23.75875,-4.3005 22.797813,-4.3005 c -0.972657,0 -1.605469,0.5039062 -1.605469,1.2773437 0,0.65625 0.339844,0.9726563 1.324219,1.2070313 l 0.621093,0.1523437 c 0.457032,0.1054688 0.644532,0.28125 0.644532,0.5859375 0,0.3867188 -0.386719,0.6445313 -0.972657,0.6445313 -0.363281,0 -0.65625,-0.10546875 -0.832031,-0.28125 C 21.872031,-0.83175 21.825156,-0.9489375 21.79,-1.2419063 h -0.703125 c 0.03516,0.96093755 0.574219,1.42968755 1.664063,1.42968755 1.054687,0 1.722656,-0.52734375 1.722656,-1.32421875 0,-0.6210938 -0.351563,-0.9726563 -1.183594,-1.171875 l -0.632812,-0.140625 C 22.118125,-2.5778438 21.88375,-2.753625 21.88375,-3.0465938 c 0,-0.3867187 0.339844,-0.6328125 0.890625,-0.6328125 0.527344,0 0.820313,0.234375 0.832031,0.6679688 z m 3.984375,0 C 28.282188,-3.83175 27.743125,-4.3005 26.782188,-4.3005 c -0.972657,0 -1.605469,0.5039062 -1.605469,1.2773437 0,0.65625 0.339844,0.9726563 1.324219,1.2070313 l 0.621093,0.1523437 c 0.457032,0.1054688 0.644532,0.28125 0.644532,0.5859375 0,0.3867188 -0.386719,0.6445313 -0.972657,0.6445313 -0.363281,0 -0.65625,-0.10546875 -0.832031,-0.28125 -0.105469,-0.1171875 -0.152344,-0.234375 -0.1875,-0.5273438 H 25.07125 c 0.03516,0.96093755 0.574219,1.42968755 1.664063,1.42968755 1.054687,0 1.722656,-0.52734375 1.722656,-1.32421875 0,-0.6210938 -0.351563,-0.9726563 -1.183594,-1.171875 l -0.632812,-0.140625 C 26.1025,-2.5778438 25.868125,-2.753625 25.868125,-3.0465938 c 0,-0.3867187 0.339844,-0.6328125 0.890625,-0.6328125 0.527344,0 0.820313,0.234375 0.832031,0.6679688 z M 32.878867,-1.863 c 0,-0.6445313 -0.04687,-1.0195313 -0.164062,-1.3359375 C 32.433555,-3.878625 31.800742,-4.3005 31.015586,-4.3005 c -1.160156,0 -1.910156,0.9023437 -1.910156,2.2734375 0,1.37109375 0.726562,2.21484375 1.898437,2.21484375 0.960938,0 1.617188,-0.55078125 1.78125,-1.45312505 h -0.667969 c -0.175781,0.5507813 -0.550781,0.8320313 -1.089843,0.8320313 -0.421875,0 -0.785157,-0.1875 -1.007813,-0.5390625 C 29.867148,-1.20675 29.808555,-1.4528438 29.796836,-1.863 Z m -3.058594,-0.5390625 c 0.04687,-0.7734375 0.527344,-1.2773438 1.195313,-1.2773438 0.644531,0 1.148437,0.5390625 1.148437,1.2304688 0,0.011719 0,0.023437 0,0.046875 z M 37.16793,-5.8122188 H 36.499961 V -3.64425 c -0.28125,-0.421875 -0.726563,-0.65625 -1.277344,-0.65625 -1.089844,0 -1.792969,0.8789062 -1.792969,2.203125 0,1.41796875 0.691407,2.28515625 1.816407,2.28515625 0.574218,0 0.972656,-0.22265625 1.324218,-0.73828125 V 2.8125e-4 h 0.597657 z m -1.839844,2.1445313 c 0.714844,0 1.171875,0.6328125 1.171875,1.6289062 0,0.9609375 -0.457031,1.6054688 -1.160156,1.6054688 -0.738282,0 -1.21875,-0.6445313 -1.21875,-1.6171875 0,-0.9726563 0.480468,-1.6171875 1.207031,-1.6171875 z m 0,0"
       style="fill:#333333;fill-opacity:1;fill-rule:nonzero;stroke:none"
       aria-label="Processed"
       transform="matrix(1.3333333,0,0,1.3333333,142.44667,15.984)" />
    <path
       id="path15"
       d="M 0.63155469,-8.28125e-4 H 3.2448359 c 0.5507813,0 0.9609375,-0.152343745 1.2773438,-0.480468745 0.28125,-0.3046875 0.4453125,-0.72656253 0.4453125,-1.17187503 0,-0.703125 -0.328125,-1.125 -1.0664063,-1.4179687 0.5273438,-0.2460938 0.8085938,-0.6796875 0.8085938,-1.265625 0,-0.421875 -0.1640625,-0.796875 -0.46875,-1.0664063 -0.2929688,-0.28125 -0.6914063,-0.4101562 -1.2539063,-0.4101562 H 0.63155469 Z M 1.3698359,-3.3055156 v -1.8515625 h 1.4296875 c 0.421875,0 0.6445313,0.058594 0.84375,0.2109375 0.2109375,0.1523437 0.328125,0.3984375 0.328125,0.7148437 0,0.3046875 -0.1171875,0.5625 -0.328125,0.7148438 -0.1992187,0.1523437 -0.421875,0.2109375 -0.84375,0.2109375 z m 0,2.64843748 V -2.6492656 h 1.8046875 c 0.3632813,0 0.5976563,0.082031 0.7734375,0.2695312 0.1757813,0.1875 0.2695313,0.4453125 0.2695313,0.7265625 0,0.28125 -0.09375,0.5390625 -0.2695313,0.71484378 -0.1757812,0.19921875 -0.4101562,0.28125 -0.7734375,0.28125 z M 9.58175,-0.38754687 c -0.070312,0.0117188 -0.1054687,0.0117188 -0.140625,0.0117188 -0.234375,0 -0.3632812,-0.1171875 -0.3632812,-0.328125 V -3.1531719 c 0,-0.75 -0.5390625,-1.1484375 -1.5703126,-1.1484375 -0.609375,0 -1.1132812,0.1757813 -1.3828125,0.4921875 C 5.9255,-3.5984844 5.8551875,-3.3523906 5.83175,-2.9422344 h 0.6679687 c 0.058594,-0.5039062 0.3632813,-0.7382812 0.984375,-0.7382812 0.5976563,0 0.9375001,0.2226562 0.9375001,0.6210937 v 0.1757813 c 0,0.28125 -0.1757813,0.3984375 -0.7031251,0.4570312 -0.9375,0.1171875 -1.078125,0.1523438 -1.3359375,0.2578125 -0.4804687,0.1992188 -0.7265625,0.5742188 -0.7265625,1.1132813 0,0.76171873 0.515625,1.24218748 1.3710938,1.24218748 0.515625,0 0.9375,-0.187500005 1.4179688,-0.62109375 0.046875,0.421875 0.2460937,0.62109375 0.6796875,0.62109375 0.140625,0 0.234375,-0.0234375 0.4570312,-0.0703125 z M 8.4215938,-1.3133281 c 0,0.2226562 -0.070312,0.35156248 -0.2695313,0.53906248 -0.2695313,0.24609375 -0.5976563,0.375 -0.984375,0.375 -0.515625,0 -0.8203125,-0.24609375 -0.8203125,-0.66796878 0,-0.4453125 0.2929687,-0.6679687 0.9960937,-0.7617187 0.7031251,-0.1054688 0.8437501,-0.1289063 1.0781251,-0.234375 z m 3.3544922,-2.859375 H 11.08468 v -1.1484375 h -0.65625 v 1.1484375 H 9.8659297 v 0.5390625 H 10.42843 v 3.15234373 c 0,0.421875 0.28125,0.66796875 0.796875,0.66796875 0.164062,0 0.328125,-0.0234375 0.550781,-0.0585938 v -0.5625 c -0.09375,0.0234375 -0.199219,0.0351563 -0.316406,0.0351563 -0.292969,0 -0.375,-0.0820313 -0.375,-0.375 V -3.6336406 h 0.691406 z m 3.9375,1.3945312 c -0.02344,-0.3984375 -0.117188,-0.6679687 -0.28125,-0.890625 -0.28125,-0.3984375 -0.785156,-0.6328125 -1.359375,-0.6328125 -1.125,0 -1.863281,0.9023438 -1.863281,2.2851563 0,1.34765623 0.714843,2.20312498 1.851562,2.20312498 0.996094,0 1.628906,-0.59765625 1.699219,-1.61718748 h -0.667969 c -0.105469,0.66796873 -0.457031,0.99609373 -1.019531,0.99609373 -0.726563,0 -1.171875,-0.59765623 -1.171875,-1.58203123 0,-1.0429688 0.433594,-1.6640625 1.160156,-1.6640625 0.550781,0 0.902344,0.328125 0.984375,0.9023437 z m 0.796875,-3.0351562 v 5.812499975 h 0.65625 V -2.3094219 c 0,-0.84375 0.445312,-1.40625 1.136719,-1.40625 0.210937,0 0.421875,0.070312 0.585937,0.1875 0.1875,0.140625 0.269531,0.3398438 0.269531,0.6328125 v 2.894531275 h 0.65625 V -3.1531719 c 0,-0.703125 -0.492187,-1.1484375 -1.3125,-1.1484375 -0.585937,0 -0.949218,0.1875 -1.335937,0.703125 v -2.2148437 z m 7.959961,3.9492187 c 0,-0.6445312 -0.04687,-1.0195312 -0.164063,-1.3359375 -0.28125,-0.6796875 -0.914062,-1.1015625 -1.699218,-1.1015625 -1.160157,0 -1.910157,0.9023438 -1.910157,2.2734375 0,1.37109378 0.726563,2.21484378 1.898438,2.21484378 0.960937,0 1.617187,-0.55078125 1.78125,-1.45312498 h -0.667969 c -0.175781,0.55078123 -0.550781,0.83203123 -1.089844,0.83203123 -0.421875,0 -0.785156,-0.1875 -1.007812,-0.5390625 C 21.458703,-1.2078594 21.400109,-1.4539531 21.388391,-1.8641094 Z m -3.058594,-0.5390625 c 0.04687,-0.7734375 0.527344,-1.2773437 1.195313,-1.2773437 0.644531,0 1.148437,0.5390625 1.148437,1.2304687 0,0.011719 0,0.023437 0,0.046875 z m 6.890625,-0.609375 c -0.01172,-0.8203125 -0.550781,-1.2890625 -1.511719,-1.2890625 -0.972656,0 -1.605468,0.5039063 -1.605468,1.2773438 0,0.65625 0.339843,0.9726562 1.324218,1.2070312 l 0.621094,0.1523438 c 0.457031,0.1054687 0.644531,0.28125 0.644531,0.5859375 0,0.38671873 -0.386718,0.64453123 -0.972656,0.64453123 -0.363281,0 -0.65625,-0.10546875 -0.832031,-0.28125 -0.105469,-0.1171875 -0.152344,-0.234375 -0.1875,-0.52734373 h -0.703125 c 0.03516,0.96093748 0.574219,1.42968748 1.664062,1.42968748 1.054688,0 1.722657,-0.52734375 1.722657,-1.32421878 0,-0.6210937 -0.351563,-0.9726562 -1.183594,-1.171875 l -0.632813,-0.140625 c -0.539062,-0.1289062 -0.773437,-0.3046875 -0.773437,-0.5976562 0,-0.3867188 0.339844,-0.6328125 0.890625,-0.6328125 0.527344,0 0.820312,0.234375 0.832031,0.6679687 z m 0,0"
       style="fill:#333333;fill-opacity:1;fill-rule:nonzero;stroke:none"
       aria-label="Batches"
       transform="matrix(1.3333333,0,0,1.3333333,148.34933,28.602667)" />
    <path
       id="path16"
       d="m 196.80815,2.98883 h 51.49306"
       style="fill:none;stroke:#666666;stroke-width:0.99628;stroke-linecap:butt;stroke-linejoin:miter;stroke-miterlimit:10;stroke-dasharray:none;stroke-opacity:1"
       transform="matrix(1.3333333,0,0,-1.3333333,64.876,36.473333)" />
    <path
       id="path17"
       d="M 5.20058,0 C 3.65962,0.28891 1.15567,1.15567 -0.57784,2.1669 V -2.1669 C 1.15567,-1.15567 3.65962,-0.28891 5.20058,0"
       style="fill:#666666;fill-opacity:1;fill-rule:nonzero;stroke:none"
       transform="matrix(1.3333333,0,0,-1.3333333,395.94428,32.488227)" />
    <path
       id="path18"
       d="m 1.4518828,-2.6474375 h 3.1640625 v -0.65625 H 1.4518828 V -5.15525 H 4.7448516 V -5.8115 H 0.71360156 V 0.001 H 4.8854766 V -0.65525 H 1.4518828 Z M 7.5895781,0.001 9.1833281,-4.170875 H 8.4450469 L 7.2614531,-0.78415625 6.1481719,-4.170875 h -0.75 L 6.8630156,0.001 Z M 13.366922,-0.38571875 C 13.296609,-0.374 13.261453,-0.374 13.226297,-0.374 c -0.234375,0 -0.363281,-0.1171875 -0.363281,-0.328125 v -2.4492187 c 0,-0.75 -0.539063,-1.1484375 -1.570313,-1.1484375 -0.609375,0 -1.113281,0.1757812 -1.3828124,0.4921875 -0.1992187,0.2109375 -0.2695312,0.4570312 -0.2929687,0.8671875 h 0.6679691 c 0.05859,-0.5039063 0.363281,-0.7382813 0.984375,-0.7382813 0.597656,0 0.9375,0.2226563 0.9375,0.6210938 v 0.1757812 c 0,0.28125 -0.175782,0.3984375 -0.703125,0.4570313 -0.9375,0.1171875 -1.078125,0.1523437 -1.335938,0.2578125 -0.4804686,0.1992187 -0.7265624,0.5742187 -0.7265624,1.1132812 0,0.76171875 0.515625,1.2421875 1.3710934,1.2421875 0.515625,0 0.9375,-0.1875 1.417969,-0.62109375 0.04687,0.421875 0.246094,0.62109375 0.679688,0.62109375 0.140625,0 0.234375,-0.0234375 0.457031,-0.0703125 z M 12.206766,-1.3115 c 0,0.2226563 -0.07031,0.3515625 -0.269532,0.5390625 -0.269531,0.24609375 -0.597656,0.375 -0.984375,0.375 -0.515625,0 -0.820312,-0.24609375 -0.820312,-0.6679687 0,-0.4453125 0.292969,-0.6679688 0.996094,-0.7617188 0.703125,-0.1054687 0.84375,-0.1289062 1.078125,-0.234375 z m 2.534179,-4.5 H 14.072977 V 0.001 h 0.667968 z m 4.40625,5.8125 v -4.171875 h -0.667968 v 2.3671875 c 0,0.84375 -0.445313,1.40625 -1.136719,1.40625 -0.527344,0 -0.855469,-0.31640625 -0.855469,-0.8203125 V -4.170875 H 15.81907 v 3.2109375 c 0,0.703125 0.515625,1.1484375 1.335938,1.1484375 0.609375,0 0.996094,-0.22265625 1.394531,-0.7734375 V 0.001 Z m 4.851563,-0.38671875 C 23.928445,-0.374 23.893289,-0.374 23.858133,-0.374 c -0.234375,0 -0.363281,-0.1171875 -0.363281,-0.328125 v -2.4492187 c 0,-0.75 -0.539063,-1.1484375 -1.570313,-1.1484375 -0.609375,0 -1.113281,0.1757812 -1.382812,0.4921875 -0.199219,0.2109375 -0.269532,0.4570312 -0.292969,0.8671875 h 0.667969 c 0.05859,-0.5039063 0.363281,-0.7382813 0.984375,-0.7382813 0.597656,0 0.9375,0.2226563 0.9375,0.6210938 v 0.1757812 c 0,0.28125 -0.175782,0.3984375 -0.703125,0.4570313 -0.9375,0.1171875 -1.078125,0.1523437 -1.335938,0.2578125 -0.480469,0.1992187 -0.726562,0.5742187 -0.726562,1.1132812 0,0.76171875 0.515625,1.2421875 1.371093,1.2421875 0.515625,0 0.9375,-0.1875 1.417969,-0.62109375 0.04687,0.421875 0.246094,0.62109375 0.679688,0.62109375 0.140625,0 0.234375,-0.0234375 0.457031,-0.0703125 z M 22.838602,-1.3115 c 0,0.2226563 -0.07031,0.3515625 -0.269532,0.5390625 -0.269531,0.24609375 -0.597656,0.375 -0.984375,0.375 -0.515625,0 -0.820312,-0.24609375 -0.820312,-0.6679687 0,-0.4453125 0.292969,-0.6679688 0.996094,-0.7617188 0.703125,-0.1054687 0.84375,-0.1289062 1.078125,-0.234375 z m 3.354492,-2.859375 h -0.691406 v -1.1484375 h -0.65625 v 1.1484375 h -0.5625 v 0.5390625 h 0.5625 v 3.15234375 c 0,0.421875 0.28125,0.66796875 0.796875,0.66796875 0.164062,0 0.328125,-0.0234375 0.550781,-0.0585938 v -0.5625 c -0.09375,0.0234375 -0.199219,0.0351563 -0.316406,0.0351563 -0.292969,0 -0.375,-0.0820313 -0.375,-0.375 v -2.859375 h 0.691406 z m 1.382812,0 h -0.65625 V 0.001 h 0.65625 z m 0,-1.640625 h -0.667968 v 0.84375 h 0.667968 z m 2.742188,1.5117188 c -1.171875,0 -1.886719,0.84375 -1.886719,2.25 0,1.3945312 0.703125,2.2382812 1.898438,2.2382812 1.171875,0 1.886718,-0.84375 1.886718,-2.2148437 0,-1.4414063 -0.691406,-2.2734375 -1.898437,-2.2734375 z m 0.01172,0.6210937 c 0.75,0 1.195312,0.609375 1.195312,1.6523438 0,0.9726562 -0.46875,1.59374995 -1.195312,1.59374995 -0.75,0 -1.195313,-0.60937495 -1.195313,-1.61718745 0,-1.0078125 0.445313,-1.6289063 1.195313,-1.6289063 z M 33.145242,-4.170875 V 0.001 h 0.667969 v -2.3085937 c 0,-0.84375 0.445312,-1.40625 1.125,-1.40625 0.527344,0 0.867187,0.3164062 0.867187,0.8203125 V 0.001 h 0.65625 v -3.1523437 c 0,-0.6914063 -0.515625,-1.1484375 -1.324218,-1.1484375 -0.621094,0 -1.019532,0.2460937 -1.382813,0.8320312 v -0.703125 z m 0,0"
       style="fill:#333333;fill-opacity:1;fill-rule:nonzero;stroke:none"
       aria-label="Evaluation"
       transform="matrix(1.3333333,0,0,1.3333333,340.404,11.998667)" />
    <path
       id="path19"
       d="M 3.7257422,-1.09375e-4 5.3663672,-4.8633906 V -1.09375e-4 H 6.0577734 V -5.8126094 H 5.0382422 l -1.6875,5.06250003 L 1.6280859,-5.8126094 H 0.59683594 V -1.09375e-4 H 1.2999609 V -4.8633906 L 2.9523047,-1.09375e-4 Z M 10.727695,-1.8633906 c 0,-0.6445313 -0.04687,-1.0195313 -0.164062,-1.3359375 -0.28125,-0.6796875 -0.9140627,-1.1015625 -1.6992189,-1.1015625 -1.1601563,0 -1.9101563,0.9023437 -1.9101563,2.2734375 0,1.37109373 0.7265625,2.21484373 1.8984375,2.21484373 0.9609375,0 1.6171877,-0.55078125 1.7812497,-1.45312503 H 9.9659766 c -0.1757813,0.55078128 -0.5507813,0.83203128 -1.0898438,0.83203128 -0.421875,0 -0.7851562,-0.1875 -1.0078125,-0.5390625 C 7.7159766,-1.2071406 7.6573828,-1.4532344 7.6456641,-1.8633906 Z M 7.6691016,-2.4024531 c 0.046875,-0.7734375 0.5273437,-1.2773438 1.1953125,-1.2773438 0.6445312,0 1.1484379,0.5390625 1.1484379,1.2304688 0,0.011719 0,0.023437 0,0.046875 z m 5.4287114,-1.7695313 h -0.691407 v -1.1484375 h -0.65625 v 1.1484375 h -0.5625 v 0.5390625 h 0.5625 v 3.15234378 c 0,0.421875 0.28125,0.66796875 0.796875,0.66796875 0.164063,0 0.328125,-0.0234375 0.550782,-0.0585938 v -0.5625 c -0.09375,0.0234375 -0.199219,0.0351563 -0.316407,0.0351563 -0.292968,0 -0.375,-0.0820313 -0.375,-0.375 V -3.6329219 h 0.691407 z m 0.738281,0 v 4.171875025 h 0.667969 V -2.1680781 c 0,-0.5976563 0.152343,-0.984375 0.46875,-1.21875 0.210937,-0.1523438 0.410156,-0.1992188 0.867187,-0.2109375 v -0.6679688 c -0.105469,-0.023437 -0.164062,-0.035156 -0.246094,-0.035156 -0.433593,0 -0.761718,0.2578125 -1.148437,0.8789062 v -0.75 z m 3.410156,0 H 16.59 v 4.171875025 h 0.65625 z m 0,-1.640625 h -0.667969 v 0.84375 h 0.667969 z m 4.324219,3.0351563 c -0.02344,-0.3984375 -0.117188,-0.6679688 -0.28125,-0.890625 -0.28125,-0.3984375 -0.785156,-0.6328125 -1.359375,-0.6328125 -1.125,0 -1.863281,0.9023437 -1.863281,2.2851562 0,1.34765628 0.714843,2.20312503 1.851562,2.20312503 0.996094,0 1.628906,-0.59765625 1.699219,-1.61718753 h -0.667969 c -0.105469,0.66796878 -0.457031,0.99609378 -1.019531,0.99609378 -0.726563,0 -1.171875,-0.59765628 -1.171875,-1.58203128 0,-1.0429687 0.433594,-1.6640625 1.160156,-1.6640625 0.550781,0 0.902344,0.328125 0.984375,0.9023438 z m 3.726562,-0.234375 c -0.01172,-0.8203125 -0.550781,-1.2890625 -1.511718,-1.2890625 -0.972657,0 -1.605469,0.5039062 -1.605469,1.2773437 0,0.65625 0.339844,0.9726563 1.324219,1.2070313 l 0.621093,0.1523437 c 0.457032,0.1054688 0.644532,0.28125 0.644532,0.5859375 0,0.38671878 -0.386719,0.64453128 -0.972657,0.64453128 -0.363281,0 -0.65625,-0.10546875 -0.832031,-0.28125 -0.105469,-0.1171875 -0.152344,-0.234375 -0.1875,-0.52734378 h -0.703125 c 0.03516,0.96093753 0.574219,1.42968753 1.664063,1.42968753 1.054687,0 1.722656,-0.52734375 1.722656,-1.32421873 0,-0.6210938 -0.351563,-0.9726563 -1.183594,-1.171875 l -0.632812,-0.140625 c -0.539063,-0.1289063 -0.773438,-0.3046875 -0.773438,-0.5976563 0,-0.3867187 0.339844,-0.6328125 0.890625,-0.6328125 0.527344,0 0.820313,0.234375 0.832031,0.6679688 z m 0,0"
       style="fill:#333333;fill-opacity:1;fill-rule:nonzero;stroke:none"
       aria-label="Metrics"
       transform="matrix(1.3333333,0,0,1.3333333,347.88,24.617333)" />
    <path
       id="path20"
       d="M 253.50179,-2.98883 H 202.00873"
       style="fill:none;stroke:#666666;stroke-width:0.99628;stroke-linecap:butt;stroke-linejoin:miter;stroke-miterlimit:10;stroke-dasharray:none;stroke-opacity:1"
       transform="matrix(1.3333333,0,0,-1.3333333,64.876,36.473333)" />
    <path
       id="path21"
       d="M 5.20058,0 C 3.65962,0.28891 1.15567,1.15567 -0.57784,2.1669 V -2.1669 C 1.15567,-1.15567 3.65962,-0.28891 5.20058,0"
       style="fill:#666666;fill-opacity:1;fill-rule:nonzero;stroke:none"
       transform="matrix(-1.3333333,0,0,1.3333333,334.22097,40.45844)" />
    <path
       id="path22"
       d="m 1.4519141,-2.6494297 h 2.7773437 v -0.65625 H 1.4519141 v -1.8515625 h 3.1640625 v -0.65625 H 0.71363281 V -9.921875e-4 H 1.4519141 Z m 7.2685547,0.7851563 c 0,-0.6445313 -0.046875,-1.0195313 -0.1640625,-1.3359375 -0.28125,-0.6796875 -0.9140625,-1.1015625 -1.6992188,-1.1015625 -1.1601562,0 -1.9101562,0.9023437 -1.9101562,2.2734375 0,1.37109371 0.7265625,2.21484371 1.8984375,2.21484371 0.9609375,0 1.6171875,-0.55078125 1.78125,-1.45312501 H 7.95875 c -0.1757812,0.55078126 -0.5507812,0.83203126 -1.0898437,0.83203126 -0.421875,0 -0.7851563,-0.1875 -1.0078125,-0.5390625 C 5.70875,-1.2080234 5.6501563,-1.4541172 5.6384375,-1.8642734 Z M 5.661875,-2.4033359 c 0.046875,-0.7734375 0.5273438,-1.2773438 1.1953125,-1.2773438 0.6445313,0 1.1484375,0.5390625 1.1484375,1.2304688 0,0.011719 0,0.023437 0,0.046875 z m 7.491211,0.5390625 c 0,-0.6445313 -0.04687,-1.0195313 -0.164063,-1.3359375 -0.28125,-0.6796875 -0.914062,-1.1015625 -1.699218,-1.1015625 -1.160157,0 -1.9101566,0.9023437 -1.9101566,2.2734375 0,1.37109371 0.7265626,2.21484371 1.8984376,2.21484371 0.960937,0 1.617187,-0.55078125 1.78125,-1.45312501 h -0.667969 c -0.175781,0.55078126 -0.550781,0.83203126 -1.089844,0.83203126 -0.421875,0 -0.785156,-0.1875 -1.007812,-0.5390625 C 10.141367,-1.2080234 10.082773,-1.4541172 10.071055,-1.8642734 Z m -3.058594,-0.5390625 c 0.04687,-0.7734375 0.527344,-1.2773438 1.195313,-1.2773438 0.644531,0 1.148437,0.5390625 1.148437,1.2304688 0,0.011719 0,0.023437 0,0.046875 z m 7.347656,-3.4101563 H 16.77418 v 2.1679688 c -0.28125,-0.421875 -0.726563,-0.65625 -1.277344,-0.65625 -1.089844,0 -1.792969,0.8789062 -1.792969,2.203125 0,1.41796871 0.691406,2.28515621 1.816406,2.28515621 0.574219,0 0.972657,-0.22265625 1.324219,-0.73828125 v 0.5507812525 h 0.597656 z m -1.839843,2.1445313 c 0.714843,0 1.171875,0.6328125 1.171875,1.6289062 0,0.9609375 -0.457032,1.60546876 -1.160157,1.60546876 -0.738281,0 -1.21875,-0.64453126 -1.21875,-1.61718746 0,-0.9726563 0.480469,-1.6171875 1.207032,-1.6171875 z m 2.756836,-2.1445313 v 5.8125000125 h 0.597656 V -0.54005469 c 0.316406,0.4921875 0.738281,0.7265625 1.324219,0.7265625 1.089843,0 1.816406,-0.90234375 1.816406,-2.29687501 0,-1.3476562 -0.691406,-2.1914062 -1.792969,-2.1914062 -0.574219,0 -0.972656,0.2226562 -1.289062,0.6914062 v -2.203125 z m 1.816406,2.1445313 c 0.75,0 1.21875,0.6445312 1.21875,1.640625 0,0.9492187 -0.492188,1.59374996 -1.21875,1.59374996 -0.691406,0 -1.160156,-0.64453126 -1.160156,-1.61718746 0,-0.984375 0.46875,-1.6171875 1.160156,-1.6171875 z m 6.445312,3.28124996 c -0.07031,0.0117188 -0.105468,0.0117188 -0.140625,0.0117188 -0.234375,0 -0.363281,-0.1171875 -0.363281,-0.328125 V -3.1533359 c 0,-0.75 -0.539062,-1.1484375 -1.570312,-1.1484375 -0.609375,0 -1.113282,0.1757812 -1.382813,0.4921875 -0.199219,0.2109375 -0.269531,0.4570312 -0.292969,0.8671875 h 0.667969 c 0.05859,-0.5039063 0.363281,-0.7382813 0.984375,-0.7382813 0.597656,0 0.9375,0.2226563 0.9375,0.6210938 v 0.1757812 c 0,0.28125 -0.175781,0.3984375 -0.703125,0.4570313 -0.9375,0.1171875 -1.078125,0.1523437 -1.335937,0.2578125 -0.480469,0.1992187 -0.726563,0.5742187 -0.726563,1.1132812 0,0.76171876 0.515625,1.24218751 1.371094,1.24218751 0.515625,0 0.9375,-0.1874999975 1.417969,-0.62109375 0.04687,0.421875 0.246093,0.62109375 0.679687,0.62109375 0.140625,0 0.234375,-0.0234375 0.457031,-0.0703125 z M 25.460703,-1.3134922 c 0,0.2226563 -0.07031,0.35156251 -0.269531,0.53906251 -0.269531,0.24609375 -0.597656,0.375 -0.984375,0.375 -0.515625,0 -0.820313,-0.24609375 -0.820313,-0.66796871 0,-0.4453125 0.292969,-0.6679688 0.996094,-0.7617188 0.703125,-0.1054687 0.84375,-0.1289062 1.078125,-0.234375 z m 5.077149,-1.4648437 c -0.02344,-0.3984375 -0.117188,-0.6679688 -0.28125,-0.890625 -0.28125,-0.3984375 -0.785157,-0.6328125 -1.359375,-0.6328125 -1.125,0 -1.863282,0.9023437 -1.863282,2.2851562 0,1.34765626 0.714844,2.20312501 1.851563,2.20312501 0.996094,0 1.628906,-0.59765625 1.699219,-1.61718751 h -0.667969 c -0.105469,0.66796876 -0.457031,0.99609376 -1.019531,0.99609376 -0.726563,0 -1.171875,-0.59765626 -1.171875,-1.58203126 0,-1.0429687 0.433593,-1.6640625 1.160156,-1.6640625 0.550781,0 0.902344,0.328125 0.984375,0.9023438 z m 1.201171,-3.0351563 h -0.667968 v 5.8125000125 h 0.667968 V -1.6298984 l 0.644532,-0.6328125 1.40625,2.2617187125 h 0.820312 L 32.910898,-2.7314609 34.364023,-4.1728672 h -0.855468 l -1.769532,1.7695313 z m 0,0"
       style="fill:#333333;fill-opacity:1;fill-rule:nonzero;stroke:none"
       aria-label="Feedback"
       transform="matrix(1.3333333,0,0,1.3333333,342.01333,55.778667)" />
  </g>
</svg>
