<?xml version="1.0" encoding="UTF-8" standalone="no"?>
<!-- Created with Inkscape (http://www.inkscape.org/) -->

<svg
   version="1.1"
   id="svg1"
   width="479.284"
   height="205.11467"
   viewBox="0 0 479.284 205.11467"
   xmlns="http://www.w3.org/2000/svg"
   xmlns:svg="http://www.w3.org/2000/svg">
  <defs
     id="defs1" />
  <g
     id="g1">
    <path
       id="path1"
       d="M 0,-14.17339 V 127.56062"
       style="fill:none;stroke:#e6e6e6;stroke-width:0.49814;stroke-linecap:butt;stroke-linejoin:miter;stroke-miterlimit:10;stroke-dasharray:none;stroke-opacity:1"
       transform="matrix(1.3333333,0,0,-1.3333333,54.584,170.41067)" />
    <path
       id="path2"
       d="m 3.5966562,-2.227875 c 0,-0.7617187 -0.09375,-1.3125 -0.4101562,-1.8046875 -0.2226563,-0.3164062 -0.6445313,-0.5976562 -1.2070313,-0.5976562 -1.61718745,0 -1.61718745,1.8984375 -1.61718745,2.4023437 0,0.5039063 0,2.3671875 1.61718745,2.3671875 1.6171875,0 1.6171875,-1.8632812 1.6171875,-2.3671875 z m -0.6328125,-0.09375 c 0,0.515625 0,1.0429688 -0.09375,1.4765625 -0.140625,0.6328125 -0.609375,0.78515625 -0.890625,0.78515625 -0.3164062,0 -0.75,-0.1875 -0.890625,-0.76171875 -0.0937499,-0.4101562 -0.0937499,-0.984375 -0.0937499,-1.5 0,-0.5039062 0,-1.03125 0.1054687,-1.4179687 C 1.2529062,-4.290375 1.6982187,-4.431 1.9794687,-4.431 c 0.375,0 0.7382813,0.2226563 0.8671875,0.6328125 0.1054688,0.375 0.1171875,0.8789063 0.1171875,1.4765625 z m 4.6025391,0.09375 c 0,-0.7617187 -0.09375,-1.3125 -0.4101562,-1.8046875 -0.2226563,-0.3164062 -0.6445313,-0.5976562 -1.2070313,-0.5976562 -1.6171875,0 -1.6171875,1.8984375 -1.6171875,2.4023437 0,0.5039063 0,2.3671875 1.6171875,2.3671875 1.6171875,0 1.6171875,-1.8632812 1.6171875,-2.3671875 z m -0.6328125,-0.09375 c 0,0.515625 0,1.0429688 -0.09375,1.4765625 -0.140625,0.6328125 -0.609375,0.78515625 -0.890625,0.78515625 -0.3164062,0 -0.75,-0.1875 -0.890625,-0.76171875 -0.09375,-0.4101562 -0.09375,-0.984375 -0.09375,-1.5 0,-0.5039062 0,-1.03125 0.1054688,-1.4179687 C 5.2226328,-4.290375 5.6679453,-4.431 5.9491953,-4.431 c 0.375,0 0.7382813,0.2226563 0.8671875,0.6328125 0.1054688,0.375 0.1171875,0.8789063 0.1171875,1.4765625 z m 2.5253906,-0.28125 c 0,-0.2460937 -0.1875,-0.3984375 -0.3984375,-0.3984375 -0.234375,0 -0.3984375,0.1875 -0.3984375,0.3867188 0,0.2460937 0.1992188,0.4101562 0.3984375,0.4101562 0.2460938,0 0.3984375,-0.1992187 0.3984375,-0.3984375 z m 0,2.203125 c 0,-0.24609375 -0.1875,-0.3984375 -0.3984375,-0.3984375 -0.234375,0 -0.3984375,0.1875 -0.3984375,0.38671875 0,0.24609375 0.1992188,0.41015625 0.3984375,0.41015625 0.2460938,0 0.3984375,-0.19921875 0.3984375,-0.3984375 z m 4.3271481,-1.828125 c 0,-0.7617187 -0.09375,-1.3125 -0.410156,-1.8046875 -0.222656,-0.3164062 -0.644531,-0.5976562 -1.207031,-0.5976562 -1.617188,0 -1.617188,1.8984375 -1.617188,2.4023437 0,0.5039063 0,2.3671875 1.617188,2.3671875 1.617187,0 1.617187,-1.8632812 1.617187,-2.3671875 z m -0.632812,-0.09375 c 0,0.515625 0,1.0429688 -0.09375,1.4765625 -0.140625,0.6328125 -0.609375,0.78515625 -0.890625,0.78515625 -0.316406,0 -0.75,-0.1875 -0.890625,-0.76171875 -0.09375,-0.4101562 -0.09375,-0.984375 -0.09375,-1.5 0,-0.5039062 0,-1.03125 0.105469,-1.4179687 C 11.442359,-4.290375 11.887672,-4.431 12.168922,-4.431 c 0.375,0 0.738281,0.2226563 0.867187,0.6328125 0.105469,0.375 0.117188,0.8789063 0.117188,1.4765625 z m 4.602539,0.09375 c 0,-0.7617187 -0.09375,-1.3125 -0.410156,-1.8046875 -0.222657,-0.3164062 -0.644532,-0.5976562 -1.207032,-0.5976562 -1.617187,0 -1.617187,1.8984375 -1.617187,2.4023437 0,0.5039063 0,2.3671875 1.617187,2.3671875 1.617188,0 1.617188,-1.8632812 1.617188,-2.3671875 z m -0.632813,-0.09375 c 0,0.515625 0,1.0429688 -0.09375,1.4765625 -0.140625,0.6328125 -0.609375,0.78515625 -0.890625,0.78515625 -0.316406,0 -0.75,-0.1875 -0.890625,-0.76171875 -0.09375,-0.4101562 -0.09375,-0.984375 -0.09375,-1.5 0,-0.5039062 0,-1.03125 0.105469,-1.4179687 C 15.412086,-4.290375 15.857398,-4.431 16.138648,-4.431 c 0.375,0 0.738282,0.2226563 0.867188,0.6328125 0.105469,0.375 0.117187,0.8789063 0.117187,1.4765625 z m 0,0"
       style="fill:#000000;fill-opacity:1;fill-rule:nonzero;stroke:none"
       aria-label="00:00"
       transform="matrix(1.3333333,0,0,1.3333333,42.501333,200.408)" />
    <path
       id="path3"
       d="M 76.53629,-14.17339 V 127.56062"
       style="fill:none;stroke:#e6e6e6;stroke-width:0.49814;stroke-linecap:butt;stroke-linejoin:miter;stroke-miterlimit:10;stroke-dasharray:none;stroke-opacity:1"
       transform="matrix(1.3333333,0,0,-1.3333333,54.584,170.41067)" />
    <path
       id="path4"
       d="m 3.5968125,-2.227875 c 0,-0.7617187 -0.09375,-1.3125 -0.4101563,-1.8046875 C 2.964,-4.3489687 2.542125,-4.6302187 1.979625,-4.6302187 c -1.6171875,0 -1.6171875,1.8984375 -1.6171875,2.4023437 0,0.5039063 0,2.3671875 1.6171875,2.3671875 1.6171875,0 1.6171875,-1.8632812 1.6171875,-2.3671875 z M 2.964,-2.321625 c 0,0.515625 0,1.0429688 -0.09375,1.4765625 -0.140625,0.6328125 -0.609375,0.78515625 -0.890625,0.78515625 -0.3164063,0 -0.75,-0.1875 -0.890625,-0.76171875 -0.09375,-0.4101562 -0.09375,-0.984375 -0.09375,-1.5 0,-0.5039062 0,-1.03125 0.1054687,-1.4179687 C 1.2530625,-4.290375 1.698375,-4.431 1.979625,-4.431 c 0.375,0 0.7382812,0.2226563 0.8671875,0.6328125 0.1054687,0.375 0.1171875,0.8789063 0.1171875,1.4765625 z m 4.6025391,0.09375 c 0,-0.7617187 -0.09375,-1.3125 -0.4101563,-1.8046875 -0.2226562,-0.3164062 -0.6445312,-0.5976562 -1.2070312,-0.5976562 -1.6171875,0 -1.6171875,1.8984375 -1.6171875,2.4023437 0,0.5039063 0,2.3671875 1.6171875,2.3671875 1.6171875,0 1.6171875,-1.8632812 1.6171875,-2.3671875 z m -0.6328125,-0.09375 c 0,0.515625 0,1.0429688 -0.09375,1.4765625 -0.140625,0.6328125 -0.609375,0.78515625 -0.890625,0.78515625 -0.3164063,0 -0.75,-0.1875 -0.890625,-0.76171875 -0.09375,-0.4101562 -0.09375,-0.984375 -0.09375,-1.5 0,-0.5039062 0,-1.03125 0.1054687,-1.4179687 C 5.2227891,-4.290375 5.6681016,-4.431 5.9493516,-4.431 c 0.375,0 0.7382812,0.2226563 0.8671875,0.6328125 0.1054687,0.375 0.1171875,0.8789063 0.1171875,1.4765625 z m 2.5253906,-0.28125 c 0,-0.2460937 -0.1875,-0.3984375 -0.3984375,-0.3984375 -0.234375,0 -0.3984375,0.1875 -0.3984375,0.3867188 0,0.2460937 0.1992187,0.4101562 0.3984375,0.4101562 0.2460937,0 0.3984375,-0.1992187 0.3984375,-0.3984375 z m 0,2.203125 c 0,-0.24609375 -0.1875,-0.3984375 -0.3984375,-0.3984375 -0.234375,0 -0.3984375,0.1875 -0.3984375,0.38671875 0,0.24609375 0.1992187,0.41015625 0.3984375,0.41015625 0.2460937,0 0.3984375,-0.19921875 0.3984375,-0.3984375 z m 4.0224608,0.3984375 v -0.24609375 h -0.257812 c -0.703125,0 -0.703125,-0.09375 -0.703125,-0.328125 V -4.431 c 0,-0.1875 -0.01172,-0.1992187 -0.210938,-0.1992187 -0.445312,0.4335937 -1.078125,0.4453125 -1.359375,0.4453125 v 0.2460937 c 0.164063,0 0.621094,0 1.007813,-0.1875 v 3.55078125 c 0,0.234375 0,0.328125 -0.691407,0.328125 H 10.997203 V -0.0013125 L 12.239391,-0.02475 Z m 4.192383,-1.40625 c 0,-0.7851562 -0.597656,-1.5117187 -1.453125,-1.5117187 -0.316406,0 -0.679688,0.082031 -0.984375,0.3398437 v -1.3125 c 0.363281,0.09375 0.5625,0.09375 0.679687,0.09375 0.914063,0 1.464844,-0.6328125 1.464844,-0.7382812 0,-0.070312 -0.04687,-0.09375 -0.08203,-0.09375 0,0 -0.03516,0 -0.05859,0.023437 -0.164062,0.058594 -0.539062,0.1992187 -1.054687,0.1992187 -0.199219,0 -0.5625,-0.011719 -1.019532,-0.1875 -0.07031,-0.035156 -0.08203,-0.035156 -0.08203,-0.035156 -0.09375,0 -0.09375,0.070312 -0.09375,0.1875 v 2.0625 c 0,0.1171875 0,0.1992187 0.105469,0.1992187 0.07031,0 0.07031,-0.011719 0.140625,-0.1054687 0.304687,-0.375 0.726562,-0.4335938 0.972656,-0.4335938 0.421875,0 0.609375,0.3398438 0.644531,0.3867188 0.117188,0.234375 0.164063,0.5039062 0.164063,0.9023437 0,0.2109375 0,0.62109375 -0.210938,0.92578125 -0.175781,0.2578125 -0.46875,0.421875 -0.820312,0.421875 -0.445313,0 -0.914063,-0.2578125 -1.089844,-0.71484375 0.269531,0.0234375 0.398438,-0.15234375 0.398438,-0.3398437 0,-0.3046875 -0.257813,-0.3515625 -0.351563,-0.3515625 0,0 -0.351562,0 -0.351562,0.375 0,0.6210937 0.574218,1.2539062 1.417968,1.2539062 0.890625,0 1.664063,-0.66796875 1.664063,-1.546875 z m 0,0"
       style="fill:#000000;fill-opacity:1;fill-rule:nonzero;stroke:none"
       aria-label="00:15"
       transform="matrix(1.3333333,0,0,1.3333333,144.548,200.408)" />
    <path
       id="path5"
       d="M 153.07301,-14.17339 V 127.56062"
       style="fill:none;stroke:#e6e6e6;stroke-width:0.49814;stroke-linecap:butt;stroke-linejoin:miter;stroke-miterlimit:10;stroke-dasharray:none;stroke-opacity:1"
       transform="matrix(1.3333333,0,0,-1.3333333,54.584,170.41067)" />
    <path
       id="path6"
       d="m 3.5988984,-2.227875 c 0,-0.7617187 -0.09375,-1.3125 -0.4101562,-1.8046875 -0.2226563,-0.3164062 -0.6445313,-0.5976562 -1.2070313,-0.5976562 -1.61718746,0 -1.61718746,1.8984375 -1.61718746,2.4023437 0,0.5039063 0,2.3671875 1.61718746,2.3671875 1.6171875,0 1.6171875,-1.8632812 1.6171875,-2.3671875 z m -0.6328125,-0.09375 c 0,0.515625 0,1.0429688 -0.09375,1.4765625 -0.140625,0.6328125 -0.609375,0.78515625 -0.890625,0.78515625 -0.3164062,0 -0.75,-0.1875 -0.890625,-0.76171875 -0.09375,-0.4101562 -0.09375,-0.984375 -0.09375,-1.5 0,-0.5039062 0,-1.03125 0.1054688,-1.4179687 C 1.2551484,-4.290375 1.7004609,-4.431 1.9817109,-4.431 c 0.375,0 0.7382813,0.2226563 0.8671875,0.6328125 0.1054688,0.375 0.1171875,0.8789063 0.1171875,1.4765625 z m 4.5996094,0.09375 c 0,-0.7617187 -0.09375,-1.3125 -0.4101562,-1.8046875 -0.2226563,-0.3164062 -0.6445313,-0.5976562 -1.2070313,-0.5976562 -1.6171875,0 -1.6171875,1.8984375 -1.6171875,2.4023437 0,0.5039063 0,2.3671875 1.6171875,2.3671875 1.6171875,0 1.6171875,-1.8632812 1.6171875,-2.3671875 z m -0.6328125,-0.09375 c 0,0.515625 0,1.0429688 -0.09375,1.4765625 -0.140625,0.6328125 -0.609375,0.78515625 -0.890625,0.78515625 -0.3164062,0 -0.75,-0.1875 -0.890625,-0.76171875 -0.09375,-0.4101562 -0.09375,-0.984375 -0.09375,-1.5 0,-0.5039062 0,-1.03125 0.1054688,-1.4179687 C 5.2219453,-4.290375 5.6672578,-4.431 5.9485078,-4.431 c 0.375,0 0.7382813,0.2226563 0.8671875,0.6328125 0.1054688,0.375 0.1171875,0.8789063 0.1171875,1.4765625 z m 2.5253906,-0.28125 c 0,-0.2460937 -0.1875,-0.3984375 -0.3984375,-0.3984375 -0.234375,0 -0.3984375,0.1875 -0.3984375,0.3867188 0,0.2460937 0.1992188,0.4101562 0.3984375,0.4101562 0.2460938,0 0.3984375,-0.1992187 0.3984375,-0.3984375 z m 0,2.203125 c 0,-0.24609375 -0.1875,-0.3984375 -0.3984375,-0.3984375 -0.234375,0 -0.3984375,0.1875 -0.3984375,0.38671875 0,0.24609375 0.1992188,0.41015625 0.3984375,0.41015625 0.2460938,0 0.3984375,-0.19921875 0.3984375,-0.3984375 z m 4.3154296,-0.8085937 c 0,-0.5390625 -0.445312,-1.0898438 -1.21875,-1.2421875 0.738281,-0.2695313 0.996094,-0.796875 0.996094,-1.21875 0,-0.5507813 -0.632813,-0.9609375 -1.40625,-0.9609375 -0.773438,0 -1.359375,0.375 -1.359375,0.9375 0,0.234375 0.152344,0.3632812 0.363281,0.3632812 0.210938,0 0.351563,-0.1640625 0.351563,-0.3515625 0,-0.1992187 -0.140625,-0.3515625 -0.351563,-0.3632812 C 11.383078,-4.3489687 11.863547,-4.431 12.121359,-4.431 c 0.316407,0 0.761719,0.1523438 0.761719,0.7617188 0,0.2929687 -0.105469,0.609375 -0.28125,0.8320312 -0.234375,0.2578125 -0.421875,0.28125 -0.773437,0.2929688 -0.175782,0.023437 -0.1875,0.023437 -0.222657,0.023437 0,0 -0.07031,0.011719 -0.07031,0.09375 0,0.09375 0.05859,0.09375 0.175781,0.09375 h 0.375 c 0.550781,0 0.9375,0.375 0.9375,1.125 0,0.86718745 -0.503906,1.12499995 -0.902344,1.12499995 -0.28125,0 -0.890625,-0.08203125 -1.183593,-0.4921875 0.328125,-0.0117188 0.398437,-0.24609375 0.398437,-0.38671875 0,-0.2226562 -0.164062,-0.3867187 -0.386719,-0.3867187 -0.1875,0 -0.386718,0.1171875 -0.386718,0.4101562 0,0.65625 0.726562,1.078125 1.570312,1.078125 0.972656,0 1.640625,-0.64453125 1.640625,-1.3476562 z m 3.981445,-1.0195313 c 0,-0.7617187 -0.09375,-1.3125 -0.410156,-1.8046875 -0.222656,-0.3164062 -0.644531,-0.5976562 -1.207031,-0.5976562 -1.617188,0 -1.617188,1.8984375 -1.617188,2.4023437 0,0.5039063 0,2.3671875 1.617188,2.3671875 1.617187,0 1.617187,-1.8632812 1.617187,-2.3671875 z m -0.632812,-0.09375 c 0,0.515625 0,1.0429688 -0.09375,1.4765625 -0.140625,0.6328125 -0.609375,0.78515625 -0.890625,0.78515625 -0.316406,0 -0.75,-0.1875 -0.890625,-0.76171875 -0.09375,-0.4101562 -0.09375,-0.984375 -0.09375,-1.5 0,-0.5039062 0,-1.03125 0.105469,-1.4179687 C 15.411398,-4.290375 15.856711,-4.431 16.137961,-4.431 c 0.375,0 0.738281,0.2226563 0.867187,0.6328125 0.105469,0.375 0.117188,0.8789063 0.117188,1.4765625 z m 0,0"
       style="fill:#000000;fill-opacity:1;fill-rule:nonzero;stroke:none"
       aria-label="00:30"
       transform="matrix(1.3333333,0,0,1.3333333,246.596,200.408)" />
    <path
       id="path7"
       d="M 229.60931,-14.17339 V 127.56062"
       style="fill:none;stroke:#e6e6e6;stroke-width:0.49814;stroke-linecap:butt;stroke-linejoin:miter;stroke-miterlimit:10;stroke-dasharray:none;stroke-opacity:1"
       transform="matrix(1.3333333,0,0,-1.3333333,54.584,170.41067)" />
    <path
       id="path8"
       d="m 3.5990547,-2.2275625 c 0,-0.7617187 -0.09375,-1.3125 -0.4101563,-1.8046875 -0.2226562,-0.3164062 -0.6445312,-0.5976562 -1.2070312,-0.5976562 -1.61718751,0 -1.61718751,1.8984375 -1.61718751,2.4023437 0,0.5039063 0,2.3671875 1.61718751,2.3671875 1.6171875,0 1.6171875,-1.8632812 1.6171875,-2.3671875 z m -0.6328125,-0.09375 c 0,0.515625 0,1.0429688 -0.09375,1.4765625 -0.140625,0.6328125 -0.609375,0.78515625 -0.890625,0.78515625 -0.3164063,0 -0.75,-0.1875 -0.890625,-0.76171875 -0.09375,-0.4101562 -0.09375,-0.984375 -0.09375,-1.5 0,-0.5039062 0,-1.03125 0.1054687,-1.4179687 0.1523438,-0.5507813 0.5976563,-0.6914063 0.8789063,-0.6914063 0.375,0 0.7382812,0.2226563 0.8671875,0.6328125 0.1054687,0.375 0.1171875,0.8789063 0.1171875,1.4765625 z m 4.5996094,0.09375 c 0,-0.7617187 -0.09375,-1.3125 -0.4101563,-1.8046875 -0.2226562,-0.3164062 -0.6445312,-0.5976562 -1.2070312,-0.5976562 -1.6171875,0 -1.6171875,1.8984375 -1.6171875,2.4023437 0,0.5039063 0,2.3671875 1.6171875,2.3671875 1.6171875,0 1.6171875,-1.8632812 1.6171875,-2.3671875 z m -0.6328125,-0.09375 c 0,0.515625 0,1.0429688 -0.09375,1.4765625 -0.140625,0.6328125 -0.609375,0.78515625 -0.890625,0.78515625 -0.3164063,0 -0.75,-0.1875 -0.890625,-0.76171875 -0.09375,-0.4101562 -0.09375,-0.984375 -0.09375,-1.5 0,-0.5039062 0,-1.03125 0.1054687,-1.4179687 0.1523438,-0.5507813 0.5976563,-0.6914063 0.8789063,-0.6914063 0.375,0 0.7382812,0.2226563 0.8671875,0.6328125 0.1054687,0.375 0.1171875,0.8789063 0.1171875,1.4765625 z m 2.5253906,-0.28125 c 0,-0.2460937 -0.1875,-0.3984375 -0.3984375,-0.3984375 -0.234375,0 -0.3984375,0.1875 -0.3984375,0.3867188 0,0.2460937 0.1992187,0.4101562 0.3984375,0.4101562 0.2460937,0 0.3984375,-0.1992187 0.3984375,-0.3984375 z m 0,2.203125 c 0,-0.24609375 -0.1875,-0.3984375 -0.3984375,-0.3984375 -0.234375,0 -0.3984375,0.1875 -0.3984375,0.38671875 0,0.24609375 0.1992187,0.41015625 0.3984375,0.41015625 0.2460937,0 0.3984375,-0.19921875 0.3984375,-0.3984375 z m 4.4208983,-0.75 V -1.3955312 H 13.105891 V -4.501 c 0,-0.1523437 0,-0.1992187 -0.152344,-0.1992187 -0.09375,0 -0.117188,0 -0.1875,0.09375 l -2.308594,3.2109375 v 0.2460937 h 2.050781 v 0.57421875 c 0,0.234375 0,0.328125 -0.5625,0.328125 h -0.1875 V -0.001 L 12.801203,-0.0244375 13.855891,-0.001 v -0.24609375 h -0.1875 c -0.5625,0 -0.5625,-0.09375 -0.5625,-0.328125 V -1.1494375 Z m -1.324219,-0.2460937 h -1.839843 l 1.839843,-2.5546875 z m 5.118164,-0.011719 c 0,-0.7851562 -0.597656,-1.5117187 -1.453125,-1.5117187 -0.316406,0 -0.679687,0.082031 -0.984375,0.3398437 v -1.3125 c 0.363282,0.09375 0.5625,0.09375 0.679688,0.09375 0.914062,0 1.464844,-0.6328125 1.464844,-0.7382812 0,-0.070312 -0.04687,-0.09375 -0.08203,-0.09375 0,0 -0.03516,0 -0.05859,0.023437 -0.164063,0.058594 -0.539063,0.1992187 -1.054688,0.1992187 -0.199219,0 -0.5625,-0.011719 -1.019531,-0.1875 -0.07031,-0.035156 -0.08203,-0.035156 -0.08203,-0.035156 -0.09375,0 -0.09375,0.070312 -0.09375,0.1875 v 2.0625 c 0,0.1171875 0,0.1992187 0.105468,0.1992187 0.07031,0 0.07031,-0.011719 0.140625,-0.1054687 0.304688,-0.375 0.726563,-0.4335938 0.972657,-0.4335938 0.421875,0 0.609375,0.3398438 0.644531,0.3867188 0.117187,0.234375 0.164062,0.5039062 0.164062,0.9023437 0,0.2109375 0,0.62109375 -0.210937,0.92578125 -0.175781,0.2578125 -0.46875,0.421875 -0.820313,0.421875 -0.445312,0 -0.914062,-0.2578125 -1.089843,-0.71484375 0.269531,0.0234375 0.398437,-0.15234375 0.398437,-0.3398437 0,-0.3046875 -0.257812,-0.3515625 -0.351562,-0.3515625 0,0 -0.351563,0 -0.351563,0.375 0,0.6210937 0.574219,1.2539062 1.417969,1.2539062 0.890625,0 1.664062,-0.66796875 1.664062,-1.546875 z m 0,0"
       style="fill:#000000;fill-opacity:1;fill-rule:nonzero;stroke:none"
       aria-label="00:45"
       transform="matrix(1.3333333,0,0,1.3333333,348.64267,200.50133)" />
    <path
       id="path9"
       d="M 306.14606,-14.17339 V 127.56062"
       style="fill:none;stroke:#e6e6e6;stroke-width:0.49814;stroke-linecap:butt;stroke-linejoin:miter;stroke-miterlimit:10;stroke-dasharray:none;stroke-opacity:1"
       transform="matrix(1.3333333,0,0,-1.3333333,54.584,170.41067)" />
    <path
       id="path10"
       d="m 3.5982109,-2.227875 c 0,-0.7617187 -0.09375,-1.3125 -0.4101562,-1.8046875 -0.2226563,-0.3164062 -0.6445313,-0.5976562 -1.2070313,-0.5976562 -1.61718746,0 -1.61718746,1.8984375 -1.61718746,2.4023437 0,0.5039063 0,2.3671875 1.61718746,2.3671875 1.6171875,0 1.6171875,-1.8632812 1.6171875,-2.3671875 z m -0.6328125,-0.09375 c 0,0.515625 0,1.0429688 -0.09375,1.4765625 -0.140625,0.6328125 -0.609375,0.78515625 -0.890625,0.78515625 -0.3164062,0 -0.75,-0.1875 -0.890625,-0.76171875 -0.09375,-0.4101562 -0.09375,-0.984375 -0.09375,-1.5 0,-0.5039062 0,-1.03125 0.1054688,-1.4179687 C 1.2544609,-4.290375 1.6997734,-4.431 1.9810234,-4.431 c 0.375,0 0.7382813,0.2226563 0.8671875,0.6328125 0.1054688,0.375 0.1171875,0.8789063 0.1171875,1.4765625 z m 4.2949219,2.3203125 V -0.24740625 H 7.0025078 c -0.703125,0 -0.703125,-0.09375 -0.703125,-0.328125 V -4.431 c 0,-0.1875 -0.011719,-0.1992187 -0.2109375,-0.1992187 -0.4453125,0.4335937 -1.078125,0.4453125 -1.359375,0.4453125 v 0.2460937 c 0.1640625,0 0.6210938,0 1.0078125,-0.1875 v 3.55078125 c 0,0.234375 0,0.328125 -0.6914062,0.328125 H 4.7759453 V -0.0013125 L 6.0181328,-0.02475 Z M 9.4605156,-2.602875 c 0,-0.2460937 -0.1875,-0.3984375 -0.3984375,-0.3984375 -0.234375,0 -0.3984375,0.1875 -0.3984375,0.3867188 0,0.2460937 0.1992188,0.4101562 0.3984375,0.4101562 0.2460938,0 0.3984375,-0.1992187 0.3984375,-0.3984375 z m 0,2.203125 c 0,-0.24609375 -0.1875,-0.3984375 -0.3984375,-0.3984375 -0.234375,0 -0.3984375,0.1875 -0.3984375,0.38671875 0,0.24609375 0.1992188,0.41015625 0.3984375,0.41015625 0.2460938,0 0.3984375,-0.19921875 0.3984375,-0.3984375 z m 4.3271484,-1.828125 c 0,-0.7617187 -0.09375,-1.3125 -0.410156,-1.8046875 -0.222656,-0.3164062 -0.644531,-0.5976562 -1.207031,-0.5976562 -1.617188,0 -1.617188,1.8984375 -1.617188,2.4023437 0,0.5039063 0,2.3671875 1.617188,2.3671875 1.617187,0 1.617187,-1.8632812 1.617187,-2.3671875 z m -0.632812,-0.09375 c 0,0.515625 0,1.0429688 -0.09375,1.4765625 -0.140625,0.6328125 -0.609375,0.78515625 -0.890625,0.78515625 -0.316407,0 -0.75,-0.1875 -0.890625,-0.76171875 -0.09375,-0.4101562 -0.09375,-0.984375 -0.09375,-1.5 0,-0.5039062 0,-1.03125 0.105468,-1.4179687 C 11.443914,-4.290375 11.889227,-4.431 12.170477,-4.431 c 0.375,0 0.738281,0.2226563 0.867187,0.6328125 0.105469,0.375 0.117188,0.8789063 0.117188,1.4765625 z m 4.599609,0.09375 c 0,-0.7617187 -0.09375,-1.3125 -0.410156,-1.8046875 -0.222657,-0.3164062 -0.644532,-0.5976562 -1.207032,-0.5976562 -1.617187,0 -1.617187,1.8984375 -1.617187,2.4023437 0,0.5039063 0,2.3671875 1.617187,2.3671875 1.617188,0 1.617188,-1.8632812 1.617188,-2.3671875 z m -0.632813,-0.09375 c 0,0.515625 0,1.0429688 -0.09375,1.4765625 -0.140625,0.6328125 -0.609375,0.78515625 -0.890625,0.78515625 -0.316406,0 -0.75,-0.1875 -0.890625,-0.76171875 -0.09375,-0.4101562 -0.09375,-0.984375 -0.09375,-1.5 0,-0.5039062 0,-1.03125 0.105469,-1.4179687 C 15.410711,-4.290375 15.856023,-4.431 16.137273,-4.431 c 0.375,0 0.738282,0.2226563 0.867188,0.6328125 0.105469,0.375 0.117187,0.8789063 0.117187,1.4765625 z m 0,0"
       style="fill:#000000;fill-opacity:1;fill-rule:nonzero;stroke:none"
       aria-label="01:00"
       transform="matrix(1.3333333,0,0,1.3333333,450.69067,200.408)" />
    <path
       id="path11"
       d="m 3.4927812,-6.6451406 c -1.875,0 -3.1523437,1.3828125 -3.1523437,3.421875 0,2.0507812 1.2773437,3.43359373 3.1523437,3.43359373 0.796875,0 1.5,-0.24609375 2.0273438,-0.69140625 0.7148437,-0.60937498 1.1367187,-1.61718748 1.1367187,-2.68359378 0,-2.109375 -1.2539062,-3.4804687 -3.1640625,-3.4804687 z m 0,0.7382812 c 1.40625,0 2.3203125,1.078125 2.3203125,2.71875 0,1.5820313 -0.9375,2.66015628 -2.3203125,2.66015628 -1.3828125,0 -2.3203125,-1.07812498 -2.3203125,-2.69531248 0,-1.6054688 0.9375,-2.6835938 2.3203125,-2.6835938 z m 3.9638672,7.8632813 h 0.7617188 v -2.44921877 c 0.3867187,0.48046875 0.8320312,0.703125 1.4414062,0.703125 1.2070316,0 2.0039066,-0.984375 2.0039066,-2.48437503 0,-1.5703125 -0.773438,-2.5546875 -2.0156253,-2.5546875 -0.6328125,0 -1.1484375,0.28125 -1.5,0.84375 V -4.6998281 H 7.4566484 Z m 2.0625,-6.09375 c 0.8320316,0 1.3710936,0.7265625 1.3710936,1.8515625 0,1.0664062 -0.550781,1.79296873 -1.3710936,1.79296873 -0.7851562,0 -1.3007812,-0.71484373 -1.3007812,-1.81640623 0,-1.1015625 0.515625,-1.828125 1.3007812,-1.828125 z m 7.0371096,2.0390625 c 0,-0.7148438 -0.04687,-1.1484375 -0.1875,-1.5 -0.304688,-0.7734375 -1.019531,-1.2304688 -1.898438,-1.2304688 -1.300781,0 -2.144531,0.9960938 -2.144531,2.5429688 0,1.54687498 0.808594,2.49609373 2.132813,2.49609373 1.066406,0 1.816406,-0.609375 2.003906,-1.64062503 h -0.75 c -0.210938,0.62109378 -0.632813,0.94921878 -1.230469,0.94921878 -0.480469,0 -0.878906,-0.22265625 -1.125,-0.60937498 -0.1875,-0.2695313 -0.246094,-0.5390625 -0.257812,-1.0078125 z m -3.433594,-0.609375 c 0.05859,-0.8671875 0.585938,-1.4296875 1.335938,-1.4296875 0.738281,0 1.300781,0.609375 1.300781,1.3710937 0,0.023437 0,0.035156 0,0.058594 z m 4.456055,-1.9921875 v 4.699218725 h 0.75 V -2.5904531 c 0,-0.9609375 0.503906,-1.5820313 1.265625,-1.5820313 0.597656,0 0.972656,0.3515625 0.972656,0.9140625 v 3.257812525 h 0.75 V -3.5513906 c 0,-0.7734375 -0.585938,-1.2773438 -1.488281,-1.2773438 -0.703125,0 -1.148438,0.2695313 -1.570313,0.9140625 v -0.7851562 z m 0,0"
       style="fill:#000000;fill-opacity:1;fill-rule:nonzero;stroke:none"
       aria-label="Open"
       transform="matrix(1.3333333,0,0,1.3333333,9.0773333,22.368)" />
    <path
       id="path12"
       d="m 1.6626328,-2.8133672 h 2.15625 c 0.7382813,0 1.078125,0.3515625 1.078125,1.1601563 l -0.011719,0.5859375 c 0,0.39843746 0.070312,0.79687496 0.1875,1.0664062125 H 6.0806016 V -0.21180469 c -0.3046875,-0.2109375 -0.375,-0.4453125 -0.3867188,-1.31250001 -0.011719,-1.078125 -0.1875,-1.3945312 -0.890625,-1.6992187 0.7382813,-0.3632813 1.03125,-0.8203125 1.03125,-1.5703125 0,-1.125 -0.703125,-1.7460938 -1.9921875,-1.7460938 H 0.83060156 V -8.671875e-4 H 1.6626328 Z m 0,-0.7382812 v -2.25 h 2.015625 c 0.46875,0 0.7382813,0.070312 0.9492188,0.2460937 0.2226562,0.1992188 0.3398437,0.4921875 0.3398437,0.8789063 0,0.7734375 -0.3984375,1.125 -1.2890625,1.125 z m 9.4042972,1.453125 c 0,-0.7148438 -0.04687,-1.1484375 -0.1875,-1.5 -0.304688,-0.7734375 -1.0195316,-1.2304688 -1.8984378,-1.2304688 -1.3007813,0 -2.1445313,0.9960938 -2.1445313,2.5429688 0,1.54687496 0.8085938,2.49609371 2.1328125,2.49609371 1.0664066,0 1.8164066,-0.609375 2.0039066,-1.64062501 h -0.75 c -0.210938,0.62109376 -0.6328128,0.94921876 -1.2304691,0.94921876 -0.4804687,0 -0.8789062,-0.22265625 -1.125,-0.60937496 -0.1875,-0.2695313 -0.2460937,-0.5390625 -0.2578125,-1.0078125 z m -3.4335941,-0.609375 c 0.058594,-0.8671875 0.5859375,-1.4296875 1.3359375,-1.4296875 0.7382813,0 1.3007816,0.609375 1.3007816,1.3710937 0,0.023437 0,0.035156 0,0.058594 z m 8.6191411,2.27343746 c -0.08203,0.0117188 -0.117188,0.0117188 -0.152344,0.0117188 -0.269531,0 -0.410156,-0.12890625 -0.410156,-0.36328125 V -3.5516484 c 0,-0.8320313 -0.609375,-1.2773438 -1.769532,-1.2773438 -0.679687,0 -1.242187,0.1875 -1.558593,0.5390625 -0.210938,0.2460938 -0.304688,0.515625 -0.316407,0.984375 h 0.75 c 0.05859,-0.5742187 0.398438,-0.8320312 1.101563,-0.8320312 0.667969,0 1.054687,0.2460937 1.054687,0.6914062 v 0.1992188 c 0,0.3164062 -0.1875,0.4453125 -0.785156,0.515625 -1.054687,0.140625 -1.21875,0.1757812 -1.5,0.2929687 -0.550781,0.2226563 -0.832031,0.6445313 -0.832031,1.2539063 0,0.85546871 0.597656,1.39453121 1.546875,1.39453121 0.585937,0 1.066406,-0.2109374975 1.59375,-0.69140625 0.04687,0.46875 0.28125,0.69140625 0.773437,0.69140625 0.152344,0 0.269532,-0.0234375 0.503907,-0.0820313 z M 14.951695,-1.4774297 c 0,0.2460938 -0.08203,0.3984375 -0.304687,0.60937501 -0.304688,0.28125 -0.667969,0.421875 -1.113281,0.421875 -0.574219,0 -0.914063,-0.28125 -0.914063,-0.76171871 0,-0.4921875 0.328125,-0.7382813 1.125,-0.8554688 0.785156,-0.1054687 0.949219,-0.140625 1.207031,-0.2578125 z m 5.932617,-5.0625 h -0.75 v 2.4375 c -0.316406,-0.4804687 -0.808593,-0.7265625 -1.441406,-0.7265625 -1.21875,0 -2.015625,0.9726563 -2.015625,2.4726563 0,1.58203121 0.773438,2.56640621 2.039063,2.56640621 0.644531,0 1.101562,-0.24609375 1.5,-0.83203125 v 0.6210937525 h 0.667968 z m -2.0625,2.4023438 c 0.808594,0 1.3125,0.7265625 1.3125,1.8398437 0,1.0898438 -0.515625,1.80468751 -1.3125,1.80468751 -0.820312,0 -1.371093,-0.72656251 -1.371093,-1.81640621 0,-1.1015625 0.550781,-1.828125 1.371093,-1.828125 z m 0,0"
       style="fill:#000000;fill-opacity:1;fill-rule:nonzero;stroke:none"
       aria-label="Read"
       transform="matrix(1.3333333,0,0,1.3333333,9.748,61.216)" />
    <path
       id="path13"
       d="M 3.17625,-5.7999922 H 5.3207812 V -6.5382734 H 0.18796875 v 0.7382812 H 2.3442187 V 7.890625e-4 H 3.17625 Z m 1.8486328,1.1015625 V 7.890625e-4 h 0.75 V -2.4367109 c 0,-0.6679688 0.1757813,-1.1132813 0.5273438,-1.3710938 0.234375,-0.1757812 0.4570312,-0.2226562 0.984375,-0.234375 v -0.7617187 c -0.1289063,-0.023437 -0.1992188,-0.023437 -0.2929688,-0.023437 -0.4804687,0 -0.8554687,0.28125 -1.2773437,0.984375 v -0.8554688 z m 7.0664062,4.26562501 c -0.08203,0.0117188 -0.117187,0.0117188 -0.152344,0.0117188 -0.269531,0 -0.410156,-0.12890625 -0.410156,-0.36328125 V -3.5499922 c 0,-0.8320312 -0.609375,-1.2773437 -1.7695312,-1.2773437 -0.6796875,0 -1.2421875,0.1875 -1.5585937,0.5390625 -0.2109375,0.2460937 -0.3046875,0.515625 -0.3164063,0.984375 h 0.75 c 0.058594,-0.5742188 0.3984375,-0.8320313 1.1015625,-0.8320313 0.6679687,0 1.0546877,0.2460938 1.0546877,0.6914063 v 0.1992187 c 0,0.3164063 -0.1875,0.4453125 -0.785156,0.515625 -1.0546879,0.140625 -1.2187504,0.1757813 -1.5000004,0.2929688 -0.5507813,0.2226562 -0.8320313,0.6445312 -0.8320313,1.2539062 0,0.85546876 0.5976563,1.39453126 1.546875,1.39453126 0.5859375,0 1.0664067,-0.2109374975 1.5937497,-0.69140625 0.04687,0.46875 0.28125,0.69140625 0.773438,0.69140625 0.152344,0 0.269531,-0.0234375 0.503906,-0.0820313 z M 10.790508,-1.4757734 c 0,0.2460937 -0.08203,0.3984375 -0.304688,0.60937496 -0.304687,0.28125 -0.6679684,0.421875 -1.1132809,0.421875 -0.5742188,0 -0.9140625,-0.28125 -0.9140625,-0.76171876 0,-0.4921875 0.328125,-0.7382812 1.125,-0.8554687 0.7851564,-0.1054688 0.9492184,-0.140625 1.2070314,-0.2578125 z m 2.841797,-3.2226563 h -0.75 V 7.890625e-4 h 0.75 z m 0,-1.8398437 h -0.761719 v 0.9492187 h 0.761719 z m 1.274414,1.8398437 V 7.890625e-4 h 0.75 V -2.5890547 c 0,-0.9609375 0.503906,-1.5820312 1.265625,-1.5820312 0.597656,0 0.972656,0.3515625 0.972656,0.9140625 V 7.890625e-4 h 0.75 V -3.5499922 c 0,-0.7734375 -0.585938,-1.2773437 -1.488281,-1.2773437 -0.703125,0 -1.148438,0.2695312 -1.570313,0.9140625 v -0.7851563 z m 0,0"
       style="fill:#000000;fill-opacity:1;fill-rule:nonzero;stroke:none"
       aria-label="Train"
       transform="matrix(1.3333333,0,0,1.3333333,12.64,99.010667)" />
    <path
       id="path14"
       d="m 1.6418906,-2.9756719 h 3.5625 v -0.7382812 h -3.5625 V -5.7998906 H 5.3332969 V -6.5381719 H 0.80985937 V 8.90625e-4 H 5.4973594 V -0.73739062 H 1.6418906 Z m 4.819336,4.9335938 h 0.7617187 v -2.44921877 c 0.3867188,0.48046875 0.8320313,0.703125 1.4414063,0.703125 1.2070312,0 2.0039064,-0.984375 2.0039064,-2.48437503 0,-1.5703125 -0.7734377,-2.5546875 -2.0156252,-2.5546875 -0.6328125,0 -1.1484375,0.28125 -1.5,0.84375 V -4.6983281 H 6.4612266 Z m 2.0625,-6.09375 c 0.8320312,0 1.3710937,0.7265625 1.3710937,1.8515625 0,1.0664062 -0.5507812,1.79296873 -1.3710937,1.79296873 -0.7851563,0 -1.3007813,-0.71484373 -1.3007813,-1.81640623 0,-1.1015625 0.515625,-1.828125 1.3007813,-1.828125 z m 4.8808594,-0.6914063 c -1.3125,0 -2.109375,0.9375 -2.109375,2.5195313 0,1.57031248 0.785156,2.51953123 2.121094,2.51953123 1.3125,0 2.121093,-0.94921875 2.121093,-2.48437503 0,-1.6289062 -0.773437,-2.5546875 -2.132812,-2.5546875 z m 0.01172,0.6914063 c 0.84375,0 1.347656,0.6796875 1.347656,1.8515625 0,1.1015625 -0.527344,1.80468748 -1.347656,1.80468748 -0.832032,0 -1.347657,-0.69140628 -1.347657,-1.82812498 0,-1.1367188 0.515625,-1.828125 1.347657,-1.828125 z m 6.752929,1.0195312 c -0.03516,-0.4570312 -0.128906,-0.75 -0.304687,-1.0195312 -0.328125,-0.4335938 -0.890625,-0.6914063 -1.546875,-0.6914063 -1.265625,0 -2.085938,0.9960938 -2.085938,2.5546875 0,1.52343753 0.808594,2.48437503 2.074219,2.48437503 1.125,0 1.828125,-0.6796875 1.921875,-1.82812503 h -0.75 c -0.128906,0.76171878 -0.515625,1.13671878 -1.148437,1.13671878 -0.832032,0 -1.324219,-0.67968748 -1.324219,-1.79296878 0,-1.171875 0.492187,-1.8632812 1.300781,-1.8632812 0.632813,0 1.019531,0.3632812 1.113281,1.0195312 z m 0.899414,-3.421875 V 8.90625e-4 H 21.80693 V -2.5889531 c 0,-0.9609375 0.503906,-1.5820313 1.277343,-1.5820313 0.234375,0 0.480469,0.070312 0.65625,0.2109375 0.222657,0.1523438 0.304688,0.375 0.304688,0.703125 V 8.90625e-4 h 0.75 V -3.5498906 c 0,-0.7851563 -0.5625,-1.2773438 -1.476563,-1.2773438 -0.667968,0 -1.066406,0.1992188 -1.511718,0.7734375 v -2.484375 z m 0,0"
       style="fill:#000000;fill-opacity:1;fill-rule:nonzero;stroke:none"
       aria-label="Epoch"
       transform="matrix(1.3333333,0,0,1.3333333,4.428,135.616)" />
    <path
       id="path15"
       d="M 40.0724,121.89127 H 1.24535 c -0.55025,0 -0.99628,-0.44605 -0.99628,-0.99628 v -15.01552 c 0,-0.55023 0.44603,-0.99627 0.99628,-0.99627 H 40.0724 c 0.55025,0 0.99628,0.44604 0.99628,0.99627 v 15.01552 c 0,0.55023 -0.44603,0.99628 -0.99628,0.99628 z"
       style="fill:#e6e6e6;fill-opacity:1;fill-rule:nonzero;stroke:#4c4c4c;stroke-width:0.49814;stroke-linecap:butt;stroke-linejoin:miter;stroke-miterlimit:10;stroke-dasharray:none;stroke-opacity:1"
       transform="matrix(1.3333333,0,0,-1.3333333,54.584,170.41067)" />
    <path
       id="path16"
       d="m 3.1068125,-5.9066016 c -1.6757813,0 -2.80078125,1.2304688 -2.80078125,3.046875 0,1.8164063 1.12499995,3.04687504 2.80078125,3.04687504 0.703125,0 1.3359375,-0.22265625 1.8046875,-0.62109375 0.6328125,-0.52734375 1.0078125,-1.42968749 1.0078125,-2.37890629 0,-1.875 -1.1132813,-3.09375 -2.8125,-3.09375 z m 0,0.65625 c 1.2539062,0 2.0625,0.9492188 2.0625,2.4257813 0,1.3945312 -0.8320313,2.35546874 -2.0625,2.35546874 -1.2304688,0 -2.0625,-0.96093754 -2.0625,-2.39062504 0,-1.4414062 0.8320312,-2.390625 2.0625,-2.390625 z m 3.5273437,6.984375 H 7.302125 v -2.16796871 c 0.3515625,0.421875 0.7382812,0.62109375 1.2773437,0.62109375 1.078125,0 1.7929683,-0.8671875 1.7929683,-2.20312504 0,-1.40625 -0.6914058,-2.2851562 -1.7929683,-2.2851562 -0.5742187,0 -1.0195312,0.2578125 -1.3359375,0.75 v -0.6210938 h -0.609375 z m 1.828125,-5.4023437 c 0.7382813,0 1.2070313,0.6445312 1.2070313,1.640625 0,0.9492187 -0.4804688,1.59374999 -1.2070313,1.59374999 -0.703125,0 -1.1601562,-0.64453129 -1.1601562,-1.61718749 0,-0.984375 0.4570312,-1.6171875 1.1601562,-1.6171875 z m 6.2607418,1.8046875 c 0,-0.6445313 -0.04687,-1.0195313 -0.164062,-1.3359375 -0.28125,-0.6796875 -0.914063,-1.1015625 -1.699219,-1.1015625 -1.160156,0 -1.910156,0.9023437 -1.910156,2.2734375 0,1.37109374 0.726562,2.21484374 1.898437,2.21484374 0.960938,0 1.617188,-0.55078125 1.78125,-1.45312504 h -0.667968 c -0.175782,0.55078129 -0.550782,0.83203129 -1.089844,0.83203129 -0.421875,0 -0.785156,-0.1875 -1.007813,-0.5390625 C 11.711305,-1.2073828 11.652711,-1.4534766 11.640992,-1.8636328 Z M 11.66443,-2.4026953 c 0.04687,-0.7734375 0.527343,-1.2773438 1.195312,-1.2773438 0.644531,0 1.148438,0.5390625 1.148438,1.2304688 0,0.011719 0,0.023437 0,0.046875 z m 3.960937,-1.7695313 v 4.1718750375 h 0.667969 V -2.3089453 c 0,-0.84375 0.445312,-1.40625 1.125,-1.40625 0.527344,0 0.867187,0.3164062 0.867187,0.8203125 v 2.8945312375 h 0.65625 V -3.1526953 c 0,-0.6914063 -0.515625,-1.1484375 -1.324218,-1.1484375 -0.621094,0 -1.019532,0.2460937 -1.382813,0.8320312 v -0.703125 z m 8.138672,0.1523438 v 4.0195312375 h 0.703125 V -5.6487891 h -0.457031 c -0.257813,0.8671875 -0.410156,0.984375 -1.5,1.125 v 0.5039063 z m 0,0"
       style="fill:#000000;fill-opacity:1;fill-rule:nonzero;stroke:none"
       aria-label="Open1"
       transform="matrix(1.3333333,0,0,1.3333333,64.701333,22.02)" />
    <path
       id="path17"
       d="M 101.30133,93.54445 H 42.0648 c -0.55023,0 -0.99627,-0.44603 -0.99627,-0.99628 v -15.0155 c 0,-0.55023 0.44604,-0.99628 0.99627,-0.99628 h 59.23653 c 0.55023,0 0.99627,0.44605 0.99627,0.99628 v 15.0155 c 0,0.55025 -0.44604,0.99628 -0.99627,0.99628 z"
       style="fill:#d1e6f3;fill-opacity:1;fill-rule:nonzero;stroke:#006395;stroke-width:0.49814;stroke-linecap:butt;stroke-linejoin:miter;stroke-miterlimit:10;stroke-dasharray:none;stroke-opacity:1"
       transform="matrix(1.3333333,0,0,-1.3333333,54.584,170.41067)" />
    <path
       id="path18"
       d="m 1.477,-2.5073125 h 1.921875 c 0.65625,0 0.9492188,0.328125 0.9492188,1.0429688 v 0.51562495 c 0,0.36328125 0.058594,0.71484375 0.1640625,0.94921875 H 5.4145 V -0.187 C 5.13325,-0.3745 5.0746563,-0.5854375 5.0629375,-1.358875 5.0512188,-2.3080937 4.898875,-2.6010625 4.2660625,-2.8705937 4.9223125,-3.187 5.1918438,-3.5971562 5.1918438,-4.2534062 5.1918438,-5.2612187 4.5590313,-5.812 3.4223125,-5.812 H 0.73871875 V 5e-4 H 1.477 Z m 0,-0.6445312 V -5.15575 h 1.7929688 c 0.421875,0 0.65625,0.058594 0.84375,0.2226563 0.1992187,0.1640625 0.3046875,0.4335937 0.3046875,0.7851562 0,0.6796875 -0.3515625,0.9960938 -1.1484375,0.9960938 z m 8.3671875,1.2890625 c 0,-0.6445313 -0.046875,-1.0195313 -0.1640625,-1.3359375 -0.28125,-0.6796875 -0.9140625,-1.1015625 -1.6992187,-1.1015625 -1.1601563,0 -1.9101563,0.9023437 -1.9101563,2.2734375 0,1.3710937 0.7265625,2.2148437 1.8984375,2.2148437 0.9609375,0 1.6171875,-0.55078125 1.78125,-1.453125 H 9.0824688 c -0.1757813,0.55078125 -0.5507813,0.83203125 -1.0898438,0.83203125 -0.421875,0 -0.7851562,-0.1875 -1.0078125,-0.5390625 C 6.8324688,-1.2065312 6.773875,-1.452625 6.7621563,-1.8627812 Z M 6.7855938,-2.4018437 c 0.046875,-0.7734375 0.5273437,-1.2773438 1.1953125,-1.2773438 0.6445312,0 1.1484375,0.5390625 1.1484375,1.2304688 0,0.011719 0,0.023437 0,0.046875 z m 7.6669922,2.01562495 C 14.382273,-0.3745 14.347117,-0.3745 14.311961,-0.3745 c -0.234375,0 -0.363281,-0.1171875 -0.363281,-0.328125 v -2.4492187 c 0,-0.75 -0.539063,-1.1484375 -1.570313,-1.1484375 -0.609375,0 -1.113281,0.1757812 -1.382812,0.4921875 -0.199219,0.2109375 -0.269532,0.4570312 -0.292969,0.8671875 h 0.667969 c 0.05859,-0.5039063 0.363281,-0.7382813 0.984375,-0.7382813 0.597656,0 0.9375,0.2226563 0.9375,0.6210938 v 0.1757812 c 0,0.28125 -0.175782,0.3984375 -0.703125,0.4570313 -0.9375,0.1171875 -1.078125,0.1523437 -1.335938,0.2578125 -0.480469,0.1992187 -0.726562,0.5742187 -0.726562,1.1132812 0,0.76171875 0.515625,1.2421875 1.371093,1.2421875 0.515625,0 0.9375,-0.1875 1.417969,-0.62109375 0.04687,0.421875 0.246094,0.62109375 0.679688,0.62109375 0.140625,0 0.234375,-0.0234375 0.457031,-0.0703125 z M 13.29243,-1.312 c 0,0.2226563 -0.07031,0.3515625 -0.269532,0.5390625 -0.269531,0.24609375 -0.597656,0.375 -0.984375,0.375 -0.515625,0 -0.820312,-0.24609375 -0.820312,-0.6679687 0,-0.4453125 0.292969,-0.6679688 0.996094,-0.7617188 0.703125,-0.1054687 0.84375,-0.1289062 1.078125,-0.234375 z m 5.273437,-4.5 h -0.667969 v 2.1679688 c -0.28125,-0.421875 -0.726562,-0.65625 -1.277343,-0.65625 -1.089844,0 -1.792969,0.8789062 -1.792969,2.203125 0,1.4179687 0.691406,2.2851562 1.816406,2.2851562 0.574219,0 0.972656,-0.22265625 1.324219,-0.73828125 V 5e-4 h 0.597656 z m -1.839844,2.1445313 c 0.714844,0 1.171875,0.6328125 1.171875,1.6289062 0,0.9609375 -0.457031,1.60546875 -1.160156,1.60546875 -0.738281,0 -1.21875,-0.64453125 -1.21875,-1.61718745 0,-0.9726563 0.480469,-1.6171875 1.207031,-1.6171875 z M 23.31782,-4.0190312 V 5e-4 h 0.703125 v -5.6484375 h -0.457031 c -0.257812,0.8671875 -0.410156,0.984375 -1.5,1.125 v 0.5039063 z m 0,0"
       style="fill:#000000;fill-opacity:1;fill-rule:nonzero;stroke:none"
       aria-label="Read1"
       transform="matrix(1.3333333,0,0,1.3333333,133.03067,60.749333)" />
    <path
       id="path19"
       d="m 162.53053,93.54445 h -59.23651 c -0.55025,0 -0.99628,-0.44603 -0.99628,-0.99628 v -15.0155 c 0,-0.55023 0.44603,-0.99628 0.99628,-0.99628 h 59.23651 c 0.55023,0 0.99628,0.44605 0.99628,0.99628 v 15.0155 c 0,0.55025 -0.44605,0.99628 -0.99628,0.99628 z"
       style="fill:#d1e6f3;fill-opacity:1;fill-rule:nonzero;stroke:#006395;stroke-width:0.49814;stroke-linecap:butt;stroke-linejoin:miter;stroke-miterlimit:10;stroke-dasharray:none;stroke-opacity:1"
       transform="matrix(1.3333333,0,0,-1.3333333,54.584,170.41067)" />
    <path
       id="path20"
       d="m 1.4765391,-2.5073125 h 1.921875 c 0.65625,0 0.9492187,0.328125 0.9492187,1.0429688 v 0.51562495 c 0,0.36328125 0.058594,0.71484375 0.1640625,0.94921875 H 5.4140391 V -0.187 C 5.1327891,-0.3745 5.0741953,-0.5854375 5.0624766,-1.358875 5.0507578,-2.3080937 4.8984141,-2.6010625 4.2656016,-2.8705937 4.9218516,-3.187 5.1913828,-3.5971562 5.1913828,-4.2534062 5.1913828,-5.2612187 4.5585703,-5.812 3.4218516,-5.812 H 0.73825781 V 5e-4 H 1.4765391 Z m 0,-0.6445312 V -5.15575 h 1.7929687 c 0.421875,0 0.65625,0.058594 0.84375,0.2226563 0.1992188,0.1640625 0.3046875,0.4335937 0.3046875,0.7851562 0,0.6796875 -0.3515625,0.9960938 -1.1484375,0.9960938 z m 8.3671875,1.2890625 c 0,-0.6445313 -0.046875,-1.0195313 -0.1640625,-1.3359375 -0.28125,-0.6796875 -0.9140625,-1.1015625 -1.6992188,-1.1015625 -1.1601562,0 -1.9101562,0.9023437 -1.9101562,2.2734375 0,1.3710937 0.7265625,2.2148437 1.8984375,2.2148437 0.9609375,0 1.6171875,-0.55078125 1.78125,-1.453125 H 9.0820078 c -0.1757812,0.55078125 -0.5507812,0.83203125 -1.0898437,0.83203125 -0.421875,0 -0.7851563,-0.1875 -1.0078125,-0.5390625 C 6.8320078,-1.2065312 6.7734141,-1.452625 6.7616953,-1.8627812 Z M 6.7851328,-2.4018437 c 0.046875,-0.7734375 0.5273438,-1.2773438 1.1953125,-1.2773438 0.6445313,0 1.1484375,0.5390625 1.1484375,1.2304688 0,0.011719 0,0.023437 0,0.046875 z m 7.6669922,2.01562495 C 14.381812,-0.3745 14.346656,-0.3745 14.3115,-0.3745 c -0.234375,0 -0.363281,-0.1171875 -0.363281,-0.328125 v -2.4492187 c 0,-0.75 -0.539063,-1.1484375 -1.570313,-1.1484375 -0.609375,0 -1.113281,0.1757812 -1.382812,0.4921875 -0.199219,0.2109375 -0.269532,0.4570312 -0.292969,0.8671875 h 0.667969 c 0.05859,-0.5039063 0.363281,-0.7382813 0.984375,-0.7382813 0.597656,0 0.9375,0.2226563 0.9375,0.6210938 v 0.1757812 c 0,0.28125 -0.175782,0.3984375 -0.703125,0.4570313 -0.9375,0.1171875 -1.078125,0.1523437 -1.335938,0.2578125 -0.480469,0.1992187 -0.726562,0.5742187 -0.726562,1.1132812 0,0.76171875 0.515625,1.2421875 1.371093,1.2421875 0.515625,0 0.9375,-0.1875 1.417969,-0.62109375 C 13.362281,-0.01121875 13.5615,0.188 13.995094,0.188 c 0.140625,0 0.234375,-0.0234375 0.457031,-0.0703125 z M 13.291969,-1.312 c 0,0.2226563 -0.07031,0.3515625 -0.269532,0.5390625 -0.269531,0.24609375 -0.597656,0.375 -0.984375,0.375 -0.515625,0 -0.820312,-0.24609375 -0.820312,-0.6679687 0,-0.4453125 0.292969,-0.6679688 0.996094,-0.7617188 0.703125,-0.1054687 0.84375,-0.1289062 1.078125,-0.234375 z m 5.273437,-4.5 h -0.667969 v 2.1679688 c -0.28125,-0.421875 -0.726562,-0.65625 -1.277343,-0.65625 -1.089844,0 -1.792969,0.8789062 -1.792969,2.203125 0,1.4179687 0.691406,2.2851562 1.816406,2.2851562 0.574219,0 0.972656,-0.22265625 1.324219,-0.73828125 V 5e-4 h 0.597656 z m -1.839844,2.1445313 c 0.714844,0 1.171875,0.6328125 1.171875,1.6289062 0,0.9609375 -0.457031,1.60546875 -1.160156,1.60546875 -0.738281,0 -1.21875,-0.64453125 -1.21875,-1.61718745 0,-0.9726563 0.480469,-1.6171875 1.207031,-1.6171875 z m 8.569336,2.97656245 h -2.976562 c 0.08203,-0.46874995 0.328125,-0.76171875 1.019531,-1.16015625 l 0.796875,-0.4335937 c 0.796875,-0.4335938 1.195313,-1.0195313 1.195313,-1.7109375 0,-0.46875 -0.1875,-0.9023438 -0.515625,-1.2070313 -0.339844,-0.3046875 -0.75,-0.4453125 -1.289063,-0.4453125 -0.714844,0 -1.253906,0.2578125 -1.558594,0.7265625 -0.199218,0.3046875 -0.292968,0.65625 -0.304687,1.2304688 h 0.703125 c 0.02344,-0.375 0.07031,-0.609375 0.164062,-0.796875 0.1875,-0.3398438 0.550782,-0.5507813 0.972657,-0.5507813 0.632812,0 1.113281,0.4570313 1.113281,1.0664063 0,0.4453125 -0.257813,0.8203125 -0.761719,1.1132812 l -0.738281,0.4101563 C 21.943336,-1.78075 21.603492,-1.2416875 21.53318,5e-4 h 3.761718 z m 0,0"
       style="fill:#000000;fill-opacity:1;fill-rule:nonzero;stroke:none"
       aria-label="Read2"
       transform="matrix(1.3333333,0,0,1.3333333,214.668,60.749333)" />
    <path
       id="path21"
       d="m 162.53053,65.19765 h -59.23651 c -0.55025,0 -0.99628,-0.44605 -0.99628,-0.99628 V 49.18585 c 0,-0.55023 0.44603,-0.99627 0.99628,-0.99627 h 59.23651 c 0.55023,0 0.99628,0.44604 0.99628,0.99627 v 15.01552 c 0,0.55023 -0.44605,0.99628 -0.99628,0.99628 z"
       style="fill:#d4efdf;fill-opacity:1;fill-rule:nonzero;stroke:#008f45;stroke-width:0.49814;stroke-linecap:butt;stroke-linejoin:miter;stroke-miterlimit:10;stroke-dasharray:none;stroke-opacity:1"
       transform="matrix(1.3333333,0,0,-1.3333333,54.584,170.41067)" />
    <path
       id="path22"
       d="M 2.8240625,-5.1550937 H 4.7225 v -0.65625 H 0.16390625 v 0.65625 H 2.0740625 v 5.15624995 h 0.75 z m 1.640625,0.984375 V 0.00115625 H 5.1326563 V -2.1668125 c 0,-0.5976562 0.1523437,-0.984375 0.46875,-1.21875 C 5.8123438,-3.5379062 6.0115625,-3.5847812 6.4685938,-3.5965 V -4.2644687 C 6.363125,-4.2879062 6.3045313,-4.299625 6.2225,-4.299625 c -0.4335937,0 -0.7617187,0.2578125 -1.1484375,0.8789063 v -0.75 z m 6.2900395,3.7851562 c -0.07031,0.0117188 -0.105469,0.0117188 -0.140625,0.0117188 -0.234375,0 -0.363282,-0.1171875 -0.363282,-0.328125 v -2.4492188 c 0,-0.75 -0.5390622,-1.1484375 -1.5703122,-1.1484375 -0.609375,0 -1.1132812,0.1757813 -1.3828125,0.4921875 C 7.0984766,-3.5965 7.0281641,-3.3504062 7.0047266,-2.94025 h 0.6679687 c 0.058594,-0.5039062 0.3632813,-0.7382812 0.984375,-0.7382812 0.5976563,0 0.9375,0.2226562 0.9375,0.6210937 v 0.1757813 c 0,0.28125 -0.1757812,0.3984375 -0.703125,0.4570312 -0.9375,0.1171875 -1.078125,0.1523438 -1.3359375,0.2578125 -0.4804687,0.1992188 -0.7265625,0.5742188 -0.7265625,1.1132813 0,0.7617187 0.515625,1.24218745 1.3710938,1.24218745 0.515625,0 0.9375,-0.1875 1.4179687,-0.62109375 0.046875,0.421875 0.2460938,0.62109375 0.6796872,0.62109375 0.140625,0 0.234375,-0.0234375 0.457032,-0.0703125 z M 9.5945703,-1.3113437 c 0,0.2226562 -0.070312,0.35156245 -0.2695312,0.53906245 -0.2695313,0.24609375 -0.5976563,0.375 -0.984375,0.375 -0.515625,0 -0.8203125,-0.24609375 -0.8203125,-0.66796875 0,-0.4453125 0.2929687,-0.6679687 0.9960937,-0.7617187 0.703125,-0.1054688 0.84375,-0.1289063 1.078125,-0.234375 z m 2.5195317,-2.859375 h -0.65625 v 4.17187495 h 0.65625 z m 0,-1.640625 h -0.667969 v 0.84375 h 0.667969 z m 1.136718,1.640625 v 4.17187495 h 0.667969 V -2.3074375 c 0,-0.84375 0.445313,-1.40625 1.125,-1.40625 0.527344,0 0.867188,0.3164063 0.867188,0.8203125 v 2.89453125 h 0.65625 V -3.1511875 c 0,-0.6914062 -0.515625,-1.1484375 -1.324219,-1.1484375 -0.621094,0 -1.019531,0.2460938 -1.382813,0.8320313 v -0.703125 z m 8.147461,0.1523437 v 4.01953125 h 0.703125 V -5.6472812 h -0.457031 c -0.257812,0.8671875 -0.410156,0.984375 -1.5,1.125 v 0.5039062 z m 0,0"
       style="fill:#000000;fill-opacity:1;fill-rule:nonzero;stroke:none"
       aria-label="Train1"
       transform="matrix(1.3333333,0,0,1.3333333,215.95333,98.545333)" />
    <path
       id="path23"
       d="M 223.75931,93.54445 H 164.5228 c -0.55024,0 -0.99628,-0.44603 -0.99628,-0.99628 v -15.0155 c 0,-0.55023 0.44604,-0.99628 0.99628,-0.99628 h 59.23651 c 0.55023,0 0.99627,0.44605 0.99627,0.99628 v 15.0155 c 0,0.55025 -0.44604,0.99628 -0.99627,0.99628 z"
       style="fill:#d1e6f3;fill-opacity:1;fill-rule:nonzero;stroke:#006395;stroke-width:0.49814;stroke-linecap:butt;stroke-linejoin:miter;stroke-miterlimit:10;stroke-dasharray:none;stroke-opacity:1"
       transform="matrix(1.3333333,0,0,-1.3333333,54.584,170.41067)" />
    <path
       id="path24"
       d="m 1.4760781,-2.5074687 h 1.921875 c 0.65625,0 0.9492188,0.328125 0.9492188,1.0429687 v 0.515625 c 0,0.36328125 0.058594,0.71484375 0.1640625,0.94921875 h 0.9023437 v -0.1875 c -0.28125,-0.1875 -0.3398437,-0.3984375 -0.3515625,-1.17187495 C 5.0502969,-2.30825 4.8979531,-2.6012187 4.2651406,-2.87075 c 0.65625,-0.3164062 0.9257813,-0.7265625 0.9257813,-1.3828125 0,-1.0078125 -0.6328125,-1.5585937 -1.7695313,-1.5585937 H 0.73779687 V 3.4375e-4 H 1.4760781 Z m 0,-0.6445313 v -2.0039062 h 1.7929688 c 0.421875,0 0.65625,0.058594 0.84375,0.2226562 0.1992187,0.1640625 0.3046875,0.4335938 0.3046875,0.7851563 0,0.6796875 -0.3515625,0.9960937 -1.1484375,0.9960937 z m 8.3671875,1.2890625 c 0,-0.6445312 -0.046875,-1.0195312 -0.1640625,-1.3359375 -0.28125,-0.6796875 -0.9140625,-1.1015625 -1.6992187,-1.1015625 -1.1601563,0 -1.9101563,0.9023438 -1.9101563,2.2734375 0,1.37109375 0.7265625,2.21484375 1.8984375,2.21484375 0.9609375,0 1.6171875,-0.55078125 1.78125,-1.45312495 H 9.0815469 C 8.9057656,-0.7145 8.5307656,-0.43325 7.9917031,-0.43325 c -0.421875,0 -0.7851562,-0.1875 -1.0078125,-0.5390625 -0.1523437,-0.234375 -0.2109375,-0.4804687 -0.2226562,-0.890625 z M 6.7846719,-2.402 c 0.046875,-0.7734375 0.5273437,-1.2773437 1.1953125,-1.2773437 0.6445312,0 1.1484375,0.5390625 1.1484375,1.2304687 0,0.011719 0,0.023437 0,0.046875 z m 7.6669921,2.015625 c -0.07031,0.0117188 -0.105469,0.0117188 -0.140625,0.0117188 -0.234375,0 -0.363281,-0.1171875 -0.363281,-0.328125 V -3.152 c 0,-0.75 -0.539063,-1.1484375 -1.570313,-1.1484375 -0.609375,0 -1.113281,0.1757813 -1.382812,0.4921875 -0.199219,0.2109375 -0.269531,0.4570313 -0.292969,0.8671875 h 0.667969 c 0.05859,-0.5039062 0.363281,-0.7382812 0.984375,-0.7382812 0.597656,0 0.9375,0.2226562 0.9375,0.6210937 v 0.1757813 c 0,0.28125 -0.175781,0.3984375 -0.703125,0.4570312 -0.9375,0.1171875 -1.078125,0.1523438 -1.335938,0.2578125 -0.480468,0.1992188 -0.726562,0.5742188 -0.726562,1.1132813 0,0.7617187 0.515625,1.24218745 1.371094,1.24218745 0.515625,0 0.9375,-0.1875 1.417968,-0.62109375 0.04687,0.421875 0.246094,0.62109375 0.679688,0.62109375 0.140625,0 0.234375,-0.0234375 0.457031,-0.0703125 z m -1.160156,-0.9257812 c 0,0.2226562 -0.07031,0.35156245 -0.269531,0.53906245 -0.269532,0.24609375 -0.597657,0.375 -0.984375,0.375 -0.515625,0 -0.820313,-0.24609375 -0.820313,-0.66796875 0,-0.4453125 0.292969,-0.6679687 0.996094,-0.7617187 0.703125,-0.1054688 0.84375,-0.1289063 1.078125,-0.234375 z m 5.273437,-4.5 h -0.667968 v 2.1679687 c -0.28125,-0.421875 -0.726563,-0.65625 -1.277344,-0.65625 -1.089844,0 -1.792969,0.8789063 -1.792969,2.203125 0,1.41796875 0.691406,2.28515625 1.816406,2.28515625 0.574219,0 0.972657,-0.22265625 1.324219,-0.73828125 V 3.4375e-4 h 0.597656 z m -1.839843,2.1445312 c 0.714843,0 1.171875,0.6328125 1.171875,1.6289063 0,0.9609375 -0.457032,1.6054687 -1.160157,1.6054687 -0.738281,0 -1.21875,-0.6445312 -1.21875,-1.6171875 0,-0.9726562 0.480469,-1.6171875 1.207032,-1.6171875 z M 23.021,-2.5895 h 0.09375 l 0.292969,-0.011719 c 0.773437,0 1.171875,0.3515625 1.171875,1.03125 0,0.7148437 -0.445313,1.1367187 -1.171875,1.1367187 -0.761719,0 -1.136719,-0.38671875 -1.183594,-1.2070312 H 21.521 c 0.02344,0.4570312 0.105469,0.74999995 0.246094,1.00781245 0.28125,0.5390625 0.84375,0.8203125 1.617187,0.8203125 1.160156,0 1.910156,-0.703125 1.910156,-1.76953125 0,-0.7148437 -0.28125,-1.1132812 -0.960937,-1.3476562 0.527344,-0.1992188 0.796875,-0.5976563 0.796875,-1.171875 0,-0.9609375 -0.644531,-1.546875 -1.722656,-1.546875 -1.136719,0 -1.746094,0.6210937 -1.769532,1.828125 h 0.703125 c 0,-0.3515625 0.03516,-0.5390625 0.128907,-0.7148438 0.152343,-0.3046875 0.503906,-0.5039062 0.949218,-0.5039062 0.621094,0 0.996094,0.375 0.996094,0.9726562 0,0.3984375 -0.152344,0.6328125 -0.457031,0.7617188 -0.1875,0.082031 -0.445313,0.1054687 -0.9375,0.1171875 z m 0,0"
       style="fill:#000000;fill-opacity:1;fill-rule:nonzero;stroke:none"
       aria-label="Read3"
       transform="matrix(1.3333333,0,0,1.3333333,296.30533,60.702667)" />
    <path
       id="path25"
       d="M 223.75931,65.19765 H 164.5228 c -0.55024,0 -0.99628,-0.44605 -0.99628,-0.99628 V 49.18585 c 0,-0.55023 0.44604,-0.99627 0.99628,-0.99627 h 59.23651 c 0.55023,0 0.99627,0.44604 0.99627,0.99627 v 15.01552 c 0,0.55023 -0.44604,0.99628 -0.99627,0.99628 z"
       style="fill:#d4efdf;fill-opacity:1;fill-rule:nonzero;stroke:#008f45;stroke-width:0.49814;stroke-linecap:butt;stroke-linejoin:miter;stroke-miterlimit:10;stroke-dasharray:none;stroke-opacity:1"
       transform="matrix(1.3333333,0,0,-1.3333333,54.584,170.41067)" />
    <path
       id="path26"
       d="m 2.8236016,-5.1550937 h 1.8984375 v -0.65625 H 0.16344531 v 0.65625 H 2.0736016 v 5.15624995 h 0.75 z m 1.640625,0.984375 V 0.00115625 H 5.1321953 V -2.1668125 c 0,-0.5976562 0.1523438,-0.984375 0.46875,-1.21875 C 5.8118828,-3.5379062 6.0111016,-3.5847812 6.4681328,-3.5965 v -0.6679687 c -0.1054687,-0.023437 -0.1640625,-0.035156 -0.2460937,-0.035156 -0.4335938,0 -0.7617188,0.2578125 -1.1484375,0.8789063 v -0.75 z m 6.2900394,3.7851562 c -0.07031,0.0117188 -0.105469,0.0117188 -0.140625,0.0117188 -0.234375,0 -0.363282,-0.1171875 -0.363282,-0.328125 v -2.4492188 c 0,-0.75 -0.5390621,-1.1484375 -1.5703121,-1.1484375 -0.609375,0 -1.1132813,0.1757813 -1.3828125,0.4921875 C 7.0980156,-3.5965 7.0277031,-3.3504062 7.0042656,-2.94025 h 0.6679688 c 0.058594,-0.5039062 0.3632812,-0.7382812 0.984375,-0.7382812 0.5976562,0 0.9375,0.2226562 0.9375,0.6210937 v 0.1757813 c 0,0.28125 -0.1757813,0.3984375 -0.703125,0.4570312 -0.9375,0.1171875 -1.078125,0.1523438 -1.3359375,0.2578125 -0.4804688,0.1992188 -0.7265625,0.5742188 -0.7265625,1.1132813 0,0.7617187 0.515625,1.24218745 1.3710937,1.24218745 0.515625,0 0.9375,-0.1875 1.4179688,-0.62109375 0.046875,0.421875 0.2460937,0.62109375 0.6796871,0.62109375 0.140625,0 0.234375,-0.0234375 0.457032,-0.0703125 z M 9.5941094,-1.3113437 c 0,0.2226562 -0.070312,0.35156245 -0.2695313,0.53906245 -0.2695312,0.24609375 -0.5976562,0.375 -0.984375,0.375 -0.515625,0 -0.8203125,-0.24609375 -0.8203125,-0.66796875 0,-0.4453125 0.2929688,-0.6679687 0.9960938,-0.7617187 0.703125,-0.1054688 0.84375,-0.1289063 1.078125,-0.234375 z m 2.5195316,-2.859375 h -0.65625 v 4.17187495 h 0.65625 z m 0,-1.640625 h -0.667969 v 0.84375 h 0.667969 z m 1.136718,1.640625 v 4.17187495 h 0.667969 V -2.3074375 c 0,-0.84375 0.445313,-1.40625 1.125,-1.40625 0.527344,0 0.867188,0.3164063 0.867188,0.8203125 v 2.89453125 h 0.65625 V -3.1511875 c 0,-0.6914062 -0.515625,-1.1484375 -1.324219,-1.1484375 -0.621094,0 -1.019531,0.2460938 -1.382813,0.8320313 v -0.703125 z M 23.36657,-0.69025 h -2.976562 c 0.08203,-0.46875 0.328125,-0.7617187 1.019531,-1.1601562 L 22.206414,-2.284 c 0.796875,-0.4335937 1.195313,-1.0195312 1.195313,-1.7109375 0,-0.46875 -0.1875,-0.9023437 -0.515625,-1.2070312 -0.339844,-0.3046875 -0.75,-0.4453125 -1.289063,-0.4453125 -0.714844,0 -1.253906,0.2578125 -1.558594,0.7265625 -0.199218,0.3046875 -0.292968,0.65625 -0.304687,1.2304687 h 0.703125 c 0.02344,-0.375 0.07031,-0.609375 0.164062,-0.796875 0.1875,-0.3398437 0.550782,-0.5507812 0.972657,-0.5507812 0.632812,0 1.113281,0.4570312 1.113281,1.0664062 0,0.4453125 -0.257813,0.8203125 -0.761719,1.1132813 l -0.738281,0.4101562 c -1.171875,0.6679688 -1.511719,1.2070313 -1.582031,2.44921875 h 3.761718 z m 0,0"
       style="fill:#000000;fill-opacity:1;fill-rule:nonzero;stroke:none"
       aria-label="Train2"
       transform="matrix(1.3333333,0,0,1.3333333,297.59067,98.545333)" />
    <path
       id="path27"
       d="m 284.98853,65.19765 h -59.23652 c -0.55023,0 -0.99627,-0.44605 -0.99627,-0.99628 V 49.18585 c 0,-0.55023 0.44604,-0.99627 0.99627,-0.99627 h 59.23652 c 0.55024,0 0.99627,0.44604 0.99627,0.99627 v 15.01552 c 0,0.55023 -0.44603,0.99628 -0.99627,0.99628 z"
       style="fill:#d4efdf;fill-opacity:1;fill-rule:nonzero;stroke:#008f45;stroke-width:0.49814;stroke-linecap:butt;stroke-linejoin:miter;stroke-miterlimit:10;stroke-dasharray:none;stroke-opacity:1"
       transform="matrix(1.3333333,0,0,-1.3333333,54.584,170.41067)" />
    <path
       id="path28"
       d="m 2.8250703,-5.1571797 h 1.8984375 v -0.65625 H 0.16491406 v 0.65625 H 2.0750703 v 5.1562500125 h 0.75 z m 1.6376953,0.984375 V -9.296875e-4 H 5.1307344 V -2.1688984 c 0,-0.5976563 0.1523437,-0.984375 0.46875,-1.21875 0.2109375,-0.1523438 0.4101562,-0.1992188 0.8671875,-0.2109375 v -0.6679688 c -0.1054688,-0.023437 -0.1640625,-0.035156 -0.2460938,-0.035156 -0.4335937,0 -0.7617187,0.2578125 -1.1484375,0.8789062 v -0.75 z m 6.2900394,3.78515626 c -0.07031,0.0117188 -0.105469,0.0117188 -0.140625,0.0117188 -0.234375,0 -0.363282,-0.1171875 -0.363282,-0.328125 V -3.1532734 c 0,-0.75 -0.5390621,-1.1484375 -1.5703121,-1.1484375 -0.609375,0 -1.1132812,0.1757812 -1.3828125,0.4921875 -0.1992187,0.2109375 -0.2695312,0.4570312 -0.2929687,0.8671875 h 0.6679687 c 0.058594,-0.5039063 0.3632813,-0.7382813 0.984375,-0.7382813 0.5976563,0 0.9375,0.2226563 0.9375,0.6210938 v 0.1757812 c 0,0.28125 -0.1757812,0.3984375 -0.703125,0.4570313 -0.9375,0.1171875 -1.078125,0.1523437 -1.3359375,0.2578125 -0.4804687,0.1992187 -0.7265625,0.5742187 -0.7265625,1.1132812 0,0.76171876 0.515625,1.24218751 1.3710938,1.24218751 0.515625,0 0.9375,-0.1874999975 1.4179687,-0.62109375 0.046875,0.421875 0.2460938,0.62109375 0.6796871,0.62109375 0.140625,0 0.234375,-0.0234375 0.457032,-0.0703125 z M 9.5926484,-1.3134297 c 0,0.2226563 -0.070312,0.35156251 -0.2695312,0.53906251 -0.2695313,0.24609375 -0.5976563,0.375 -0.984375,0.375 -0.515625,0 -0.8203125,-0.24609375 -0.8203125,-0.66796871 0,-0.4453125 0.2929687,-0.6679688 0.9960937,-0.7617188 0.703125,-0.1054687 0.84375,-0.1289062 1.078125,-0.234375 z m 2.5224606,-2.859375 h -0.65625 v 4.1718750125 h 0.65625 z m 0,-1.640625 h -0.667968 v 0.84375 h 0.667968 z m 1.136719,1.640625 v 4.1718750125 h 0.667969 V -2.3095234 c 0,-0.84375 0.445312,-1.40625 1.125,-1.40625 0.527344,0 0.867187,0.3164062 0.867187,0.8203125 v 2.8945312125 h 0.65625 V -3.1532734 c 0,-0.6914063 -0.515625,-1.1484375 -1.324218,-1.1484375 -0.621094,0 -1.019532,0.2460937 -1.382813,0.8320312 v -0.703125 z m 7.833984,1.5820313 h 0.09375 l 0.292969,-0.011719 c 0.773438,0 1.171875,0.3515625 1.171875,1.03125 0,0.71484376 -0.445312,1.13671876 -1.171875,1.13671876 -0.761719,0 -1.136719,-0.38671875 -1.183594,-1.20703126 h -0.703125 c 0.02344,0.4570313 0.105469,0.75000001 0.246094,1.00781251 0.28125,0.5390625 0.84375,0.8203125 1.617188,0.8203125 1.160156,0 1.910156,-0.703125 1.910156,-1.76953121 0,-0.7148438 -0.28125,-1.1132813 -0.960938,-1.3476563 0.527344,-0.1992187 0.796875,-0.5976562 0.796875,-1.171875 0,-0.9609375 -0.644531,-1.546875 -1.722656,-1.546875 -1.136719,0 -1.746094,0.6210938 -1.769531,1.828125 h 0.703125 c 0,-0.3515625 0.03516,-0.5390625 0.128906,-0.7148437 0.152344,-0.3046875 0.503906,-0.5039063 0.949219,-0.5039063 0.621094,0 0.996094,0.375 0.996094,0.9726563 0,0.3984375 -0.152344,0.6328125 -0.457032,0.7617187 -0.1875,0.082031 -0.445312,0.1054688 -0.9375,0.1171875 z m 0,0"
       style="fill:#000000;fill-opacity:1;fill-rule:nonzero;stroke:none"
       aria-label="Train3"
       transform="matrix(1.3333333,0,0,1.3333333,379.22933,98.497333)" />
    <path
       id="path29"
       d="M 284.9895,36.85083 H 1.24535 c -0.55025,0 -0.99628,-0.44603 -0.99628,-0.99628 v -15.0155 c 0,-0.55023 0.44603,-0.99628 0.99628,-0.99628 H 284.9895 c 0.55023,0 0.99628,0.44605 0.99628,0.99628 v 15.0155 c 0,0.55025 -0.44605,0.99628 -0.99628,0.99628 z"
       style="fill:#ffe5cc;fill-opacity:1;fill-rule:nonzero;stroke:#cc5500;stroke-width:0.49814;stroke-linecap:butt;stroke-linejoin:miter;stroke-miterlimit:10;stroke-dasharray:none;stroke-opacity:1"
       transform="matrix(1.3333333,0,0,-1.3333333,54.584,170.41067)" />
    <path
       id="path30"
       d="M 1.4534844,-2.64775 H 4.6175469 V -3.304 H 1.4534844 v -1.8515625 h 3.2929687 v -0.65625 H 0.71520313 v 5.8125 H 4.8870781 v -0.65625 H 1.4534844 Z M 5.7484063,1.7350625 H 6.416375 v -2.16796875 c 0.3515625,0.421875 0.7382813,0.62109375 1.2773438,0.62109375 1.078125,0 1.7929687,-0.8671875 1.7929687,-2.203125 0,-1.40625 -0.6914062,-2.2851562 -1.7929687,-2.2851562 -0.5742188,0 -1.0195313,0.2578125 -1.3359375,0.75 v -0.6210938 h -0.609375 z m 1.828125,-5.4023437 c 0.7382812,0 1.2070312,0.6445312 1.2070312,1.640625 0,0.9492187 -0.4804687,1.59374995 -1.2070312,1.59374995 -0.703125,0 -1.1601563,-0.64453125 -1.1601563,-1.61718745 0,-0.984375 0.4570313,-1.6171875 1.1601563,-1.6171875 z m 4.3388667,-0.6328125 c -1.171875,0 -1.886718,0.84375 -1.886718,2.25 0,1.3945312 0.703125,2.2382812 1.898437,2.2382812 1.171875,0 1.886719,-0.84375 1.886719,-2.2148437 0,-1.4414063 -0.691406,-2.2734375 -1.898438,-2.2734375 z M 11.927117,-3.679 c 0.75,0 1.195313,0.609375 1.195313,1.6523438 0,0.9726562 -0.46875,1.59374995 -1.195313,1.59374995 -0.75,0 -1.195312,-0.60937495 -1.195312,-1.61718745 0,-1.0078125 0.445312,-1.6289063 1.195312,-1.6289063 z m 6.00293,0.9023438 c -0.02344,-0.3984375 -0.117188,-0.6679688 -0.28125,-0.890625 -0.28125,-0.3984375 -0.785156,-0.6328125 -1.359375,-0.6328125 -1.125,0 -1.863281,0.9023437 -1.863281,2.2851562 0,1.34765625 0.714843,2.203125 1.851562,2.203125 0.996094,0 1.628906,-0.59765625 1.699219,-1.6171875 h -0.667969 c -0.105469,0.66796875 -0.457031,0.99609375 -1.019531,0.99609375 -0.726563,0 -1.171875,-0.59765625 -1.171875,-1.58203125 0,-1.0429687 0.433594,-1.6640625 1.160156,-1.6640625 0.550781,0 0.902344,0.328125 0.984375,0.9023438 z m 0.796875,-3.0351563 v 5.8125 h 0.65625 v -2.3085937 c 0,-0.84375 0.445312,-1.40625 1.136719,-1.40625 0.210937,0 0.421875,0.070312 0.585937,0.1875 0.1875,0.140625 0.269531,0.3398437 0.269531,0.6328125 V 6.875e-4 h 0.65625 v -3.1523437 c 0,-0.703125 -0.492187,-1.1484375 -1.3125,-1.1484375 -0.585937,0 -0.949218,0.1875 -1.335937,0.703125 v -2.2148438 z m 7.359375,2.8007813 c -0.01172,-0.8203125 -0.550781,-1.2890625 -1.511719,-1.2890625 -0.972656,0 -1.605469,0.5039062 -1.605469,1.2773437 0,0.65625 0.339844,0.9726563 1.324219,1.2070313 l 0.621094,0.1523437 c 0.457031,0.1054688 0.644531,0.28125 0.644531,0.5859375 0,0.38671875 -0.386719,0.64453125 -0.972656,0.64453125 -0.363281,0 -0.65625,-0.10546875 -0.832031,-0.28125 -0.105469,-0.1171875 -0.152344,-0.234375 -0.1875,-0.52734375 h -0.703125 c 0.03516,0.9609375 0.574218,1.4296875 1.664062,1.4296875 1.054688,0 1.722656,-0.52734375 1.722656,-1.3242187 0,-0.6210938 -0.351562,-0.9726563 -1.183593,-1.171875 l -0.632813,-0.140625 c -0.539062,-0.1289063 -0.773437,-0.3046875 -0.773437,-0.5976563 0,-0.3867187 0.339843,-0.6328125 0.890625,-0.6328125 0.527343,0 0.820312,0.234375 0.832031,0.6679688 z m 4.584961,-2.8007813 c -0.796875,1.0429688 -1.289063,2.4960938 -1.289063,3.75 0,1.25390625 0.492188,2.70703125 1.289063,3.75 h 0.445312 c -0.703125,-1.13671875 -1.089843,-2.47265625 -1.089843,-3.75 0,-1.265625 0.386718,-2.6132812 1.089843,-3.75 z m 3.884765,-0.09375 c -1.675781,0 -2.800781,1.2304688 -2.800781,3.046875 0,1.8164063 1.125,3.046875 2.800781,3.046875 0.703125,0 1.335938,-0.22265625 1.804688,-0.62109375 0.632812,-0.52734375 1.007812,-1.42968745 1.007812,-2.37890625 0,-1.875 -1.113281,-3.09375 -2.8125,-3.09375 z m 0,0.65625 c 1.253907,0 2.0625,0.9492188 2.0625,2.4257813 0,1.3945312 -0.832031,2.3554687 -2.0625,2.3554687 -1.230468,0 -2.0625,-0.9609375 -2.0625,-2.390625 0,-1.4414062 0.832032,-2.390625 2.0625,-2.390625 z m 5.367188,5.25 1.59375,-4.171875 H 40.77868 l -1.183594,3.38671875 -1.113281,-3.38671875 h -0.75 l 1.464843,4.171875 z m 5.604492,-1.8632812 c 0,-0.6445313 -0.04687,-1.0195313 -0.164062,-1.3359375 -0.28125,-0.6796875 -0.914063,-1.1015625 -1.699219,-1.1015625 -1.160156,0 -1.910156,0.9023437 -1.910156,2.2734375 0,1.3710937 0.726562,2.2148437 1.898437,2.2148437 0.960938,0 1.617188,-0.55078125 1.78125,-1.453125 h -0.667969 c -0.175781,0.55078125 -0.550781,0.83203125 -1.089843,0.83203125 -0.421875,0 -0.785157,-0.1875 -1.007813,-0.5390625 C 42.515984,-1.2063437 42.457391,-1.4524375 42.445672,-1.8625937 Z M 42.469109,-2.4016562 C 42.515984,-3.1750937 42.996453,-3.679 43.664422,-3.679 c 0.644531,0 1.148437,0.5390625 1.148437,1.2304688 0,0.011719 0,0.023437 0,0.046875 z m 3.949219,-1.7695313 v 4.171875 h 0.667969 v -2.1679687 c 0,-0.5976563 0.152344,-0.984375 0.46875,-1.21875 0.210937,-0.1523438 0.410156,-0.1992188 0.867187,-0.2109375 v -0.6679688 c -0.105468,-0.023437 -0.164062,-0.035156 -0.246093,-0.035156 -0.433594,0 -0.761719,0.2578125 -1.148438,0.8789062 v -0.75 z m 3.421875,-1.640625 h -0.667969 v 5.8125 h 0.667969 z m 4.828125,5.42578125 c -0.07031,0.0117188 -0.105469,0.0117188 -0.140625,0.0117188 -0.234375,0 -0.363281,-0.1171875 -0.363281,-0.328125 V -3.1516562 c 0,-0.75 -0.539063,-1.1484374 -1.570313,-1.1484374 -0.609375,0 -1.113281,0.1757812 -1.382812,0.4921874 -0.199219,0.2109375 -0.269531,0.4570312 -0.292969,0.8671875 h 0.667969 C 51.644891,-3.444625 51.949578,-3.679 52.570672,-3.679 c 0.597656,0 0.9375,0.2226563 0.9375,0.6210938 v 0.1757812 c 0,0.28125 -0.175781,0.3984375 -0.703125,0.4570313 -0.9375,0.1171875 -1.078125,0.1523437 -1.335938,0.2578125 -0.480468,0.1992187 -0.726562,0.5742187 -0.726562,1.1132812 0,0.76171875 0.515625,1.2421875 1.371094,1.2421875 0.515625,0 0.9375,-0.1875 1.417968,-0.62109375 0.04687,0.421875 0.246094,0.62109375 0.679688,0.62109375 0.140625,0 0.234375,-0.0234375 0.457031,-0.0703125 z M 53.508172,-1.3118125 c 0,0.2226563 -0.07031,0.3515625 -0.269531,0.5390625 -0.269532,0.24609375 -0.597657,0.375 -0.984375,0.375 -0.515625,0 -0.820313,-0.24609375 -0.820313,-0.6679687 0,-0.4453125 0.292969,-0.6679688 0.996094,-0.7617188 0.703125,-0.1054687 0.84375,-0.1289062 1.078125,-0.234375 z m 1.760742,3.046875 h 0.667969 v -2.16796875 c 0.351562,0.421875 0.738281,0.62109375 1.277344,0.62109375 1.078125,0 1.792968,-0.8671875 1.792968,-2.203125 0,-1.40625 -0.691406,-2.2851562 -1.792968,-2.2851562 -0.574219,0 -1.019532,0.2578125 -1.335938,0.75 v -0.6210938 h -0.609375 z m 1.828125,-5.4023437 c 0.738281,0 1.207031,0.6445312 1.207031,1.640625 0,0.9492187 -0.480468,1.59374995 -1.207031,1.59374995 -0.703125,0 -1.160156,-0.64453125 -1.160156,-1.61718745 0,-0.984375 0.457031,-1.6171875 1.160156,-1.6171875 z m 2.601563,5.4023437 h 0.667968 v -2.16796875 c 0.351563,0.421875 0.738282,0.62109375 1.277344,0.62109375 1.078125,0 1.792969,-0.8671875 1.792969,-2.203125 0,-1.40625 -0.691406,-2.2851562 -1.792969,-2.2851562 -0.574219,0 -1.019531,0.2578125 -1.335937,0.75 v -0.6210938 h -0.609375 z m 1.828125,-5.4023437 c 0.738281,0 1.207031,0.6445312 1.207031,1.640625 0,0.9492187 -0.480469,1.59374995 -1.207031,1.59374995 -0.703125,0 -1.160157,-0.64453125 -1.160157,-1.61718745 0,-0.984375 0.457032,-1.6171875 1.160157,-1.6171875 z m 6.260742,1.8046875 c 0,-0.6445313 -0.04687,-1.0195313 -0.164063,-1.3359375 -0.28125,-0.6796875 -0.914062,-1.1015625 -1.699218,-1.1015625 -1.160157,0 -1.910157,0.9023437 -1.910157,2.2734375 0,1.3710937 0.726563,2.2148437 1.898438,2.2148437 0.960937,0 1.617187,-0.55078125 1.78125,-1.453125 H 67.02575 c -0.175781,0.55078125 -0.550781,0.83203125 -1.089844,0.83203125 -0.421875,0 -0.785156,-0.1875 -1.007812,-0.5390625 C 64.77575,-1.2063437 64.717156,-1.4524375 64.705438,-1.8625937 Z M 64.728875,-2.4016562 C 64.77575,-3.1750937 65.256219,-3.679 65.924188,-3.679 c 0.644531,0 1.148437,0.5390625 1.148437,1.2304688 0,0.011719 0,0.023437 0,0.046875 z m 7.347656,-3.4101563 h -0.667968 v 2.1679688 c -0.28125,-0.421875 -0.726563,-0.65625 -1.277344,-0.65625 -1.089844,0 -1.792969,0.8789062 -1.792969,2.203125 0,1.4179687 0.691406,2.2851562 1.816406,2.2851562 0.574219,0 0.972657,-0.22265625 1.324219,-0.73828125 V 6.875e-4 h 0.597656 z m -1.839843,2.1445313 c 0.714843,0 1.171875,0.6328125 1.171875,1.6289062 0,0.9609375 -0.457032,1.60546875 -1.160157,1.60546875 -0.738281,0 -1.21875,-0.64453125 -1.21875,-1.61718745 0,-0.9726563 0.480469,-1.6171875 1.207032,-1.6171875 z m 3.061523,5.3554687 c 0.796875,-1.04296875 1.300781,-2.49609375 1.300781,-3.7382812 0,-1.265625 -0.503906,-2.71875 -1.300781,-3.7617188 h -0.433594 c 0.703125,1.1484375 1.089844,2.484375 1.089844,3.7617188 0,1.26562495 -0.386719,2.6132812 -1.089844,3.7382812 z m 0,0"
       style="fill:#000000;fill-opacity:1;fill-rule:nonzero;stroke:none"
       aria-label="Epochs(Overlapped)"
       transform="matrix(1.3333333,0,0,1.3333333,195.25733,135.40533)" />
  </g>
</svg>
