<?xml version="1.0" encoding="UTF-8" standalone="no"?>
<!-- Created with Inkscape (http://www.inkscape.org/) -->

<svg
   version="1.1"
   id="svg2"
   width="229.18401"
   height="96.323997"
   viewBox="0 0 229.18401 96.323997"
   xmlns="http://www.w3.org/2000/svg"
   xmlns:svg="http://www.w3.org/2000/svg">
  <defs
     id="defs6" />
  <g
     id="g8"
     transform="matrix(1.3333333,0,0,-1.3333333,0,96.324)">
    <g
       id="g10"
       transform="translate(89.98,36.122)">
      <g
         id="g12">
        <g
           id="g14" />
        <g
           id="g16">
          <g
             id="g18">
            <g
               id="g20">
              <path
                 d="M 18.42542,0 C 18.42542,10.1762 10.1762,18.42542 0,18.42542 -10.1762,18.42542 -18.42542,10.1762 -18.42542,0 c 0,-10.1762 8.24922,-18.42542 18.42542,-18.42542 10.1762,0 18.42542,8.24922 18.42542,18.42542 z"
                 style="fill:#dbfda6;fill-opacity:1;fill-rule:nonzero;stroke:#495938;stroke-width:0.74721;stroke-linecap:butt;stroke-linejoin:miter;stroke-miterlimit:10;stroke-dasharray:none;stroke-opacity:1"
                 id="path22" />
            </g>
            <g
               id="g24"
               transform="translate(-13.398,-2.242)">
              <g
                 id="g26">
                <g
                   id="g28"
                   transform="translate(-76.582,-33.88)">
                  <text
                     xml:space="preserve"
                     transform="matrix(1,0,0,-1,76.582,33.88)"
                     style="font-variant:normal;font-weight:normal;font-size:8.96638px;font-family:CMMI9;-inkscape-font-specification:CMMI9;writing-mode:lr-tb;fill:#000000;fill-opacity:1;fill-rule:nonzero;stroke:none"
                     id="text32"><tspan
                       x="0"
                       y="0"
                       id="tspan30">f</tspan></text>
                  <text
                     xml:space="preserve"
                     transform="matrix(1,0,0,-1,82.03,33.88)"
                     style="font-variant:normal;font-weight:normal;font-size:8.96638px;font-family:CMR9;-inkscape-font-specification:CMR9;writing-mode:lr-tb;fill:#000000;fill-opacity:1;fill-rule:nonzero;stroke:none"
                     id="text36"><tspan
                       x="0"
                       y="0"
                       id="tspan34">(</tspan></text>
                  <text
                     xml:space="preserve"
                     transform="matrix(1,0,0,-1,85.614,33.88)"
                     style="font-variant:normal;font-weight:normal;font-size:8.96638px;font-family:CMMI9;-inkscape-font-specification:CMMI9;writing-mode:lr-tb;fill:#000000;fill-opacity:1;fill-rule:nonzero;stroke:none"
                     id="text40"><tspan
                       x="0 5.2238131 9.3169651"
                       y="0"
                       id="tspan38">x,y</tspan></text>
                  <text
                     xml:space="preserve"
                     transform="matrix(1,0,0,-1,99.793,33.88)"
                     style="font-variant:normal;font-weight:normal;font-size:8.96638px;font-family:CMR9;-inkscape-font-specification:CMR9;writing-mode:lr-tb;fill:#000000;fill-opacity:1;fill-rule:nonzero;stroke:none"
                     id="text44"><tspan
                       x="0"
                       y="0"
                       id="tspan42">)</tspan></text>
                  <g
                     id="g46"
                     transform="translate(76.582,33.88)" />
                </g>
              </g>
              <g
                 id="g48"
                 transform="translate(13.398,2.242)" />
            </g>
          </g>
          <g
             id="g50">
            <g
               id="g52">
              <path
                 d="m 81.53542,0 c 0,6.26227 -5.07645,11.33871 -11.33873,11.33871 -6.26227,0 -11.33872,-5.07644 -11.33872,-11.33871 0,-6.26227 5.07645,-11.33871 11.33872,-11.33871 6.26228,0 11.33873,5.07644 11.33873,11.33871 z"
                 style="fill:#e6e3bf;fill-opacity:1;fill-rule:nonzero;stroke:#ada60a;stroke-width:0.74721;stroke-linecap:butt;stroke-linejoin:miter;stroke-miterlimit:10;stroke-dasharray:none;stroke-opacity:1"
                 id="path54" />
            </g>
            <g
               id="g56"
               transform="translate(67.859,-1.931)">
              <g
                 id="g58">
                <g
                   id="g60"
                   transform="translate(-157.839,-34.191)">
                  <text
                     xml:space="preserve"
                     transform="matrix(1,0,0,-1,157.839,34.191)"
                     style="font-variant:normal;font-weight:normal;font-size:8.96638px;font-family:CMMI9;-inkscape-font-specification:CMMI9;writing-mode:lr-tb;fill:#000000;fill-opacity:1;fill-rule:nonzero;stroke:none"
                     id="text64"><tspan
                       x="0"
                       y="0"
                       id="tspan62">z</tspan></text>
                  <g
                     id="g66"
                     transform="translate(157.839,34.191)" />
                </g>
              </g>
              <g
                 id="g68"
                 transform="translate(-67.859,1.931)" />
            </g>
          </g>
          <g
             id="g70">
            <g
               id="g72">
              <path
                 d="m -66.92969,24.40962 c 0,6.26228 -5.07643,11.33872 -11.33871,11.33872 -6.26227,0 -11.33872,-5.07644 -11.33872,-11.33872 0,-6.26227 5.07645,-11.33872 11.33872,-11.33872 6.26228,0 11.33871,5.07645 11.33871,11.33872 z"
                 style="fill:#e6e3bf;fill-opacity:1;fill-rule:nonzero;stroke:#ada60a;stroke-width:0.74721;stroke-linecap:butt;stroke-linejoin:miter;stroke-miterlimit:10;stroke-dasharray:none;stroke-opacity:1"
                 id="path74" />
            </g>
            <g
               id="g76"
               transform="translate(-80.88,22.479)">
              <g
                 id="g78">
                <g
                   id="g80"
                   transform="translate(-9.1,-58.601)">
                  <text
                     xml:space="preserve"
                     transform="matrix(1,0,0,-1,9.1,58.601)"
                     style="font-variant:normal;font-weight:normal;font-size:8.96638px;font-family:CMMI9;-inkscape-font-specification:CMMI9;writing-mode:lr-tb;fill:#000000;fill-opacity:1;fill-rule:nonzero;stroke:none"
                     id="text84"><tspan
                       x="0"
                       y="0"
                       id="tspan82">x</tspan></text>
                  <g
                     id="g86"
                     transform="translate(9.1,58.601)" />
                </g>
              </g>
              <g
                 id="g88"
                 transform="translate(80.88,-22.479)" />
            </g>
          </g>
          <g
             id="g90">
            <g
               id="g92">
              <path
                 d="m -66.92969,-24.40962 c 0,6.26227 -5.07643,11.33872 -11.33871,11.33872 -6.26227,0 -11.33872,-5.07645 -11.33872,-11.33872 0,-6.26228 5.07645,-11.33872 11.33872,-11.33872 6.26228,0 11.33871,5.07644 11.33871,11.33872 z"
                 style="fill:#e6e3bf;fill-opacity:1;fill-rule:nonzero;stroke:#ada60a;stroke-width:0.74721;stroke-linecap:butt;stroke-linejoin:miter;stroke-miterlimit:10;stroke-dasharray:none;stroke-opacity:1"
                 id="path94" />
            </g>
            <g
               id="g96"
               transform="translate(-80.698,-25.468)">
              <g
                 id="g98">
                <g
                   id="g100"
                   transform="translate(-9.282,-10.654)">
                  <text
                     xml:space="preserve"
                     transform="matrix(1,0,0,-1,9.282,10.654)"
                     style="font-variant:normal;font-weight:normal;font-size:8.96638px;font-family:CMMI9;-inkscape-font-specification:CMMI9;writing-mode:lr-tb;fill:#000000;fill-opacity:1;fill-rule:nonzero;stroke:none"
                     id="text104"><tspan
                       x="0"
                       y="0"
                       id="tspan102">y</tspan></text>
                  <g
                     id="g106"
                     transform="translate(9.282,10.654)" />
                </g>
              </g>
              <g
                 id="g108"
                 transform="translate(80.698,25.468)" />
            </g>
          </g>
          <g
             id="g110">
            <path
               d="M 18.79901,0 H 53.2838"
               style="fill:none;stroke:#808080;stroke-width:0.99628;stroke-linecap:butt;stroke-linejoin:miter;stroke-miterlimit:10;stroke-dasharray:none;stroke-opacity:1"
               id="path112" />
            <g
               id="g114"
               transform="translate(53.2838)">
              <g
                 id="g116">
                <path
                   d="M 5.20058,0 C 3.65962,0.28891 1.15567,1.15567 -0.57784,2.1669 V -2.1669 C 1.15567,-1.15567 3.65962,-0.28891 5.20058,0"
                   style="fill:#808080;fill-opacity:1;fill-rule:nonzero;stroke:none"
                   id="path118" />
              </g>
            </g>
          </g>
          <g
             id="g120">
            <path
               d="m -66.6617,25.97446 c 20.85799,3.99223 36.2975,0.09402 48.73094,-10.03383"
               style="fill:none;stroke:#808080;stroke-width:0.99628;stroke-linecap:butt;stroke-linejoin:miter;stroke-miterlimit:10;stroke-dasharray:none;stroke-opacity:1"
               id="path122" />
            <g
               id="g124"
               transform="matrix(0.7753,-0.63152,0.63152,0.7753,-17.93076,15.94064)">
              <g
                 id="g126">
                <path
                   d="M 5.20058,0 C 3.65962,0.28891 1.15567,1.15567 -0.57784,2.1669 V -2.1669 C 1.15567,-1.15567 3.65962,-0.28891 5.20058,0"
                   style="fill:#808080;fill-opacity:1;fill-rule:nonzero;stroke:none"
                   id="path128" />
              </g>
            </g>
          </g>
          <g
             id="g130">
            <path
               d="m -66.6617,-25.97446 c 20.85799,-3.99223 36.2975,-0.09402 48.73094,10.03383"
               style="fill:none;stroke:#808080;stroke-width:0.99628;stroke-linecap:butt;stroke-linejoin:miter;stroke-miterlimit:10;stroke-dasharray:none;stroke-opacity:1"
               id="path132" />
            <g
               id="g134"
               transform="matrix(0.7753,0.63152,-0.63152,0.7753,-17.93076,-15.94064)">
              <g
                 id="g136">
                <path
                   d="M 5.20058,0 C 3.65962,0.28891 1.15567,1.15567 -0.57784,2.1669 V -2.1669 C 1.15567,-1.15567 3.65962,-0.28891 5.20058,0"
                   style="fill:#808080;fill-opacity:1;fill-rule:nonzero;stroke:none"
                   id="path138" />
              </g>
            </g>
          </g>
        </g>
      </g>
    </g>
  </g>
</svg>
