<?xml version="1.0" encoding="UTF-8"?>
<!DOCTYPE svg PUBLIC "-//W3C//DTD SVG 1.1//EN"
  "http://www.w3.org/Graphics/SVG/1.1/DTD/svg11.dtd">
<svg xmlns:xlink="http://www.w3.org/1999/xlink" width="97.770939pt" height="99.9pt" viewBox="0 0 97.770939 99.9" xmlns="http://www.w3.org/2000/svg" version="1.1">
 <metadata>
  <rdf:RDF xmlns:dc="http://purl.org/dc/elements/1.1/" xmlns:cc="http://creativecommons.org/ns#" xmlns:rdf="http://www.w3.org/1999/02/22-rdf-syntax-ns#">
   <cc:Work>
    <dc:type rdf:resource="http://purl.org/dc/dcmitype/StillImage"/>
    <dc:format>image/svg+xml</dc:format>
    <dc:creator>
     <cc:Agent>
      <dc:title>Matplotlib v3.10.8, https://matplotlib.org/</dc:title>
     </cc:Agent>
    </dc:creator>
   </cc:Work>
  </rdf:RDF>
 </metadata>
 <defs>
  <style type="text/css">*{stroke-linejoin: round; stroke-linecap: butt}</style>
 </defs>
 <g id="figure_1">
  <g id="patch_1">
   <path d="M 0 99.9
L 97.770939 99.9
L 97.770939 0
L 0 0
z
" style="fill: #ffffff"/>
  </g>
  <g id="axes_1">
   <g id="patch_2">
    <path d="M 1.44 98.46
L 71.19 98.46
L 71.19 1.44
L 1.44 1.44
z
" style="fill: #ffffff"/>
   </g>
   <g id="patch_3">
    <path d="M 1.44 31.5162
L 63.716786 31.5162
L 63.716786 10.1718
L 1.44 10.1718
z
" clip-path="url(#p879ee31a35)" style="fill: #006395; opacity: 0.92"/>
   </g>
   <g id="patch_4">
    <path d="M 1.44 63.8562
L 51.066814 63.8562
L 51.066814 42.5118
L 1.44 42.5118
z
" clip-path="url(#p879ee31a35)" style="fill: #006395; opacity: 0.92"/>
   </g>
   <g id="patch_5">
    <path d="M 1.44 96.1962
L 7.278449 96.1962
L 7.278449 74.8518
L 1.44 74.8518
z
" clip-path="url(#p879ee31a35)" style="fill: #006395; opacity: 0.92"/>
   </g>
   <g id="matplotlib.axis_1"/>
   <g id="matplotlib.axis_2"/>
   <g id="line2d_1">
    <path d="M 1.44 3.057
L 71.19 3.057
" clip-path="url(#p879ee31a35)" style="fill: none; stroke: #cb202d; stroke-width: 0.75; stroke-linecap: square"/>
   </g>
   <g id="patch_6">
    <path d="M 1.44 98.46
L 71.19 98.46
" style="fill: none; stroke: #cccccc; stroke-width: 0.55; stroke-linejoin: miter; stroke-linecap: square"/>
   </g>
   <g id="text_1">
    <!-- EPC 128 MB -->
    <g style="fill: #ffffff" transform="translate(32.613723 22.167156) scale(0.052 -0.052)">
     <defs>
      <path id="Helvetica-45" d="M 547 4591
L 3894 4591
L 3894 4028
L 1153 4028
L 1153 2634
L 3688 2634
L 3688 2103
L 1153 2103
L 1153 547
L 3941 547
L 3941 0
L 547 0
L 547 4591
z
M 2244 4591
L 2244 4591
z
" transform="scale(0.015625)"/>
      <path id="Helvetica-50" d="M 547 4591
L 2613 4591
Q 3225 4591 3600 4245
Q 3975 3900 3975 3275
Q 3975 2738 3640 2339
Q 3306 1941 2613 1941
L 1169 1941
L 1169 0
L 547 0
L 547 4591
z
M 3347 3272
Q 3347 3778 2972 3959
Q 2766 4056 2406 4056
L 1169 4056
L 1169 2466
L 2406 2466
Q 2825 2466 3086 2644
Q 3347 2822 3347 3272
z
" transform="scale(0.015625)"/>
      <path id="Helvetica-43" d="M 2422 4716
Q 3294 4716 3775 4256
Q 4256 3797 4309 3213
L 3703 3213
Q 3600 3656 3292 3915
Q 2984 4175 2428 4175
Q 1750 4175 1333 3698
Q 916 3222 916 2238
Q 916 1431 1292 929
Q 1669 428 2416 428
Q 3103 428 3463 956
Q 3653 1234 3747 1688
L 4353 1688
Q 4272 963 3816 472
Q 3269 -119 2341 -119
Q 1541 -119 997 366
Q 281 1006 281 2344
Q 281 3359 819 4009
Q 1400 4716 2422 4716
z
M 2297 4716
L 2297 4716
z
" transform="scale(0.015625)"/>
      <path id="Helvetica-20" transform="scale(0.015625)"/>
      <path id="Helvetica-31" d="M 613 3169
L 613 3600
Q 1222 3659 1462 3798
Q 1703 3938 1822 4456
L 2266 4456
L 2266 0
L 1666 0
L 1666 3169
L 613 3169
z
" transform="scale(0.015625)"/>
      <path id="Helvetica-32" d="M 200 0
Q 231 578 439 1006
Q 647 1434 1250 1784
L 1850 2131
Q 2253 2366 2416 2531
Q 2672 2791 2672 3125
Q 2672 3516 2437 3745
Q 2203 3975 1813 3975
Q 1234 3975 1013 3538
Q 894 3303 881 2888
L 309 2888
Q 319 3472 525 3841
Q 891 4491 1816 4491
Q 2584 4491 2939 4075
Q 3294 3659 3294 3150
Q 3294 2613 2916 2231
Q 2697 2009 2131 1694
L 1703 1456
Q 1397 1288 1222 1134
Q 909 863 828 531
L 3272 531
L 3272 0
L 200 0
z
" transform="scale(0.015625)"/>
      <path id="Helvetica-38" d="M 1741 2600
Q 2113 2600 2322 2808
Q 2531 3016 2531 3303
Q 2531 3553 2331 3762
Q 2131 3972 1722 3972
Q 1316 3972 1134 3762
Q 953 3553 953 3272
Q 953 2956 1187 2778
Q 1422 2600 1741 2600
z
M 1775 384
Q 2166 384 2423 595
Q 2681 806 2681 1225
Q 2681 1659 2415 1884
Q 2150 2109 1734 2109
Q 1331 2109 1076 1879
Q 822 1650 822 1244
Q 822 894 1055 639
Q 1288 384 1775 384
z
M 975 2384
Q 741 2484 609 2619
Q 363 2869 363 3269
Q 363 3769 725 4128
Q 1088 4488 1753 4488
Q 2397 4488 2762 4148
Q 3128 3809 3128 3356
Q 3128 2938 2916 2678
Q 2797 2531 2547 2391
Q 2825 2263 2984 2097
Q 3281 1784 3281 1284
Q 3281 694 2884 283
Q 2488 -128 1763 -128
Q 1109 -128 657 226
Q 206 581 206 1256
Q 206 1653 400 1942
Q 594 2231 975 2384
z
" transform="scale(0.015625)"/>
      <path id="Helvetica-4d" d="M 472 4591
L 1363 4591
L 2681 709
L 3991 4591
L 4872 4591
L 4872 0
L 4281 0
L 4281 2709
Q 4281 2850 4287 3175
Q 4294 3500 4294 3872
L 2984 0
L 2369 0
L 1050 3872
L 1050 3731
Q 1050 3563 1058 3217
Q 1066 2872 1066 2709
L 1066 0
L 472 0
L 472 4591
z
" transform="scale(0.015625)"/>
      <path id="Helvetica-42" d="M 2213 2650
Q 2606 2650 2825 2759
Q 3169 2931 3169 3378
Q 3169 3828 2803 3984
Q 2597 4072 2191 4072
L 1081 4072
L 1081 2650
L 2213 2650
z
M 2422 531
Q 2994 531 3238 863
Q 3391 1072 3391 1369
Q 3391 1869 2944 2050
Q 2706 2147 2316 2147
L 1081 2147
L 1081 531
L 2422 531
z
M 472 4591
L 2444 4591
Q 3250 4591 3591 4109
Q 3791 3825 3791 3453
Q 3791 3019 3544 2741
Q 3416 2594 3175 2472
Q 3528 2338 3703 2169
Q 4013 1869 4013 1341
Q 4013 897 3734 538
Q 3319 0 2413 0
L 472 0
L 472 4591
z
" transform="scale(0.015625)"/>
     </defs>
     <use xlink:href="#Helvetica-45"/>
     <use xlink:href="#Helvetica-50" transform="translate(66.699219 0)"/>
     <use xlink:href="#Helvetica-43" transform="translate(133.398438 0)"/>
     <use xlink:href="#Helvetica-20" transform="translate(205.615234 0)"/>
     <use xlink:href="#Helvetica-31" transform="translate(233.398438 0)"/>
     <use xlink:href="#Helvetica-32" transform="translate(289.013672 0)"/>
     <use xlink:href="#Helvetica-38" transform="translate(344.628906 0)"/>
     <use xlink:href="#Helvetica-20" transform="translate(400.244141 0)"/>
     <use xlink:href="#Helvetica-4d" transform="translate(428.027344 0)"/>
     <use xlink:href="#Helvetica-42" transform="translate(511.328125 0)"/>
    </g>
   </g>
   <g id="text_2">
    <!-- ResNet-50 102 MB -->
    <g style="fill: #333333" transform="translate(52.113064 54.507156) scale(0.052 -0.052)">
     <defs>
      <path id="Helvetica-52" d="M 2622 2488
Q 3059 2488 3314 2663
Q 3569 2838 3569 3294
Q 3569 3784 3213 3963
Q 3022 4056 2703 4056
L 1184 4056
L 1184 2488
L 2622 2488
z
M 563 4591
L 2688 4591
Q 3213 4591 3553 4438
Q 4200 4144 4200 3353
Q 4200 2941 4029 2678
Q 3859 2416 3553 2256
Q 3822 2147 3958 1969
Q 4094 1791 4109 1391
L 4131 775
Q 4141 513 4175 384
Q 4231 166 4375 103
L 4375 0
L 3613 0
Q 3581 59 3562 153
Q 3544 247 3531 516
L 3494 1281
Q 3472 1731 3159 1884
Q 2981 1969 2600 1969
L 1184 1969
L 1184 0
L 563 0
L 563 4591
z
" transform="scale(0.015625)"/>
      <path id="Helvetica-65" d="M 1806 3422
Q 2163 3422 2497 3255
Q 2831 3088 3006 2822
Q 3175 2569 3231 2231
Q 3281 2000 3281 1494
L 828 1494
Q 844 984 1069 676
Q 1294 369 1766 369
Q 2206 369 2469 659
Q 2619 828 2681 1050
L 3234 1050
Q 3213 866 3089 639
Q 2966 413 2813 269
Q 2556 19 2178 -69
Q 1975 -119 1719 -119
Q 1094 -119 659 336
Q 225 791 225 1609
Q 225 2416 662 2919
Q 1100 3422 1806 3422
z
M 2703 1941
Q 2669 2306 2544 2525
Q 2313 2931 1772 2931
Q 1384 2931 1121 2651
Q 859 2372 844 1941
L 2703 1941
z
M 1753 3428
L 1753 3428
z
" transform="scale(0.015625)"/>
      <path id="Helvetica-73" d="M 747 1050
Q 772 769 888 619
Q 1100 347 1625 347
Q 1938 347 2175 483
Q 2413 619 2413 903
Q 2413 1119 2222 1231
Q 2100 1300 1741 1391
L 1294 1503
Q 866 1609 663 1741
Q 300 1969 300 2372
Q 300 2847 642 3140
Q 984 3434 1563 3434
Q 2319 3434 2653 2991
Q 2863 2709 2856 2384
L 2325 2384
Q 2309 2575 2191 2731
Q 1997 2953 1519 2953
Q 1200 2953 1036 2831
Q 872 2709 872 2509
Q 872 2291 1088 2159
Q 1213 2081 1456 2022
L 1828 1931
Q 2434 1784 2641 1647
Q 2969 1431 2969 969
Q 2969 522 2630 197
Q 2291 -128 1597 -128
Q 850 -128 539 211
Q 228 550 206 1050
L 747 1050
z
M 1578 3428
L 1578 3428
z
" transform="scale(0.015625)"/>
      <path id="Helvetica-4e" d="M 488 4591
L 1222 4591
L 3541 872
L 3541 4591
L 4131 4591
L 4131 0
L 3434 0
L 1081 3716
L 1081 0
L 488 0
L 488 4591
z
M 2269 4591
L 2269 4591
z
" transform="scale(0.015625)"/>
      <path id="Helvetica-74" d="M 525 4281
L 1094 4281
L 1094 3347
L 1628 3347
L 1628 2888
L 1094 2888
L 1094 703
Q 1094 528 1213 469
Q 1278 434 1431 434
Q 1472 434 1519 436
Q 1566 438 1628 444
L 1628 0
Q 1531 -28 1426 -40
Q 1322 -53 1200 -53
Q 806 -53 665 148
Q 525 350 525 672
L 525 2888
L 72 2888
L 72 3347
L 525 3347
L 525 4281
z
" transform="scale(0.015625)"/>
      <path id="Helvetica-2d" d="M 266 2072
L 1834 2072
L 1834 1494
L 266 1494
L 266 2072
z
" transform="scale(0.015625)"/>
      <path id="Helvetica-35" d="M 791 1141
Q 847 659 1238 475
Q 1438 381 1700 381
Q 2200 381 2440 700
Q 2681 1019 2681 1406
Q 2681 1875 2395 2131
Q 2109 2388 1709 2388
Q 1419 2388 1211 2275
Q 1003 2163 856 1963
L 369 1991
L 709 4400
L 3034 4400
L 3034 3856
L 1131 3856
L 941 2613
Q 1097 2731 1238 2791
Q 1488 2894 1816 2894
Q 2431 2894 2859 2497
Q 3288 2100 3288 1491
Q 3288 856 2895 371
Q 2503 -113 1644 -113
Q 1097 -113 676 195
Q 256 503 206 1141
L 791 1141
z
" transform="scale(0.015625)"/>
      <path id="Helvetica-30" d="M 1731 4475
Q 2600 4475 2988 3759
Q 3288 3206 3288 2244
Q 3288 1331 3016 734
Q 2622 -122 1728 -122
Q 922 -122 528 578
Q 200 1163 200 2147
Q 200 2909 397 3456
Q 766 4475 1731 4475
z
M 1725 391
Q 2163 391 2422 778
Q 2681 1166 2681 2222
Q 2681 2984 2493 3476
Q 2306 3969 1766 3969
Q 1269 3969 1039 3501
Q 809 3034 809 2125
Q 809 1441 956 1025
Q 1181 391 1725 391
z
" transform="scale(0.015625)"/>
     </defs>
     <use xlink:href="#Helvetica-52"/>
     <use xlink:href="#Helvetica-65" transform="translate(72.216797 0)"/>
     <use xlink:href="#Helvetica-73" transform="translate(127.832031 0)"/>
     <use xlink:href="#Helvetica-4e" transform="translate(177.832031 0)"/>
     <use xlink:href="#Helvetica-65" transform="translate(250.048828 0)"/>
     <use xlink:href="#Helvetica-74" transform="translate(305.664062 0)"/>
     <use xlink:href="#Helvetica-2d" transform="translate(333.447266 0)"/>
     <use xlink:href="#Helvetica-35" transform="translate(366.748047 0)"/>
     <use xlink:href="#Helvetica-30" transform="translate(422.363281 0)"/>
     <use xlink:href="#Helvetica-20" transform="translate(477.978516 0)"/>
     <use xlink:href="#Helvetica-31" transform="translate(505.761719 0)"/>
     <use xlink:href="#Helvetica-30" transform="translate(561.376953 0)"/>
     <use xlink:href="#Helvetica-32" transform="translate(616.992188 0)"/>
     <use xlink:href="#Helvetica-20" transform="translate(672.607422 0)"/>
     <use xlink:href="#Helvetica-4d" transform="translate(700.390625 0)"/>
     <use xlink:href="#Helvetica-42" transform="translate(783.691406 0)"/>
    </g>
   </g>
   <g id="text_3">
    <!-- ResNet-18 12 MB -->
    <g style="fill: #333333" transform="translate(8.324699 86.847156) scale(0.052 -0.052)">
     <use xlink:href="#Helvetica-52"/>
     <use xlink:href="#Helvetica-65" transform="translate(72.216797 0)"/>
     <use xlink:href="#Helvetica-73" transform="translate(127.832031 0)"/>
     <use xlink:href="#Helvetica-4e" transform="translate(177.832031 0)"/>
     <use xlink:href="#Helvetica-65" transform="translate(250.048828 0)"/>
     <use xlink:href="#Helvetica-74" transform="translate(305.664062 0)"/>
     <use xlink:href="#Helvetica-2d" transform="translate(333.447266 0)"/>
     <use xlink:href="#Helvetica-31" transform="translate(366.748047 0)"/>
     <use xlink:href="#Helvetica-38" transform="translate(422.363281 0)"/>
     <use xlink:href="#Helvetica-20" transform="translate(477.978516 0)"/>
     <use xlink:href="#Helvetica-31" transform="translate(505.761719 0)"/>
     <use xlink:href="#Helvetica-32" transform="translate(561.376953 0)"/>
     <use xlink:href="#Helvetica-20" transform="translate(616.992188 0)"/>
     <use xlink:href="#Helvetica-4d" transform="translate(644.775391 0)"/>
     <use xlink:href="#Helvetica-42" transform="translate(728.076172 0)"/>
    </g>
   </g>
  </g>
 </g>
 <defs>
  <clipPath id="p879ee31a35">
   <rect x="1.44" y="1.44" width="69.75" height="97.02"/>
  </clipPath>
 </defs>
</svg>
