<?xml version="1.0" encoding="utf-8" standalone="no"?>
<!DOCTYPE svg PUBLIC "-//W3C//DTD SVG 1.1//EN"
  "http://www.w3.org/Graphics/SVG/1.1/DTD/svg11.dtd">
<svg xmlns:xlink="http://www.w3.org/1999/xlink" width="68.724pt" height="42.7968pt" viewBox="0 0 68.724 42.7968" xmlns="http://www.w3.org/2000/svg" version="1.1">
 <metadata>
  <rdf:RDF xmlns:dc="http://purl.org/dc/elements/1.1/" xmlns:cc="http://creativecommons.org/ns#" xmlns:rdf="http://www.w3.org/1999/02/22-rdf-syntax-ns#">
   <cc:Work>
    <dc:type rdf:resource="http://purl.org/dc/dcmitype/StillImage"/>
    <dc:format>image/svg+xml</dc:format>
    <dc:creator>
     <cc:Agent>
      <dc:title>Matplotlib v3.10.8, https://matplotlib.org/</dc:title>
     </cc:Agent>
    </dc:creator>
   </cc:Work>
  </rdf:RDF>
 </metadata>
 <defs>
  <style type="text/css">*{stroke-linejoin: round; stroke-linecap: butt}</style>
 </defs>
 <g id="figure_1">
  <g id="patch_1">
   <path d="M 0 42.7968
L 68.724 42.7968
L 68.724 0
L 0 0
z
" style="fill: #ffffff"/>
  </g>
  <g id="axes_1">
   <g id="patch_2">
    <path d="M 1.44 41.3568
L 67.284 41.3568
L 67.284 1.44
L 1.44 1.44
z
" style="fill: #ffffff"/>
   </g>
   <g id="patch_3">
    <path d="M 9.34128 41.3568
L 47.5308 41.3568
L 47.5308 1.44
L 9.34128 1.44
z
" clip-path="url(#p9173796fe7)" style="fill: #f2d7d5; opacity: 0.4; stroke: #f2d7d5; stroke-linejoin: miter"/>
   </g>
   <g id="matplotlib.axis_1"/>
   <g id="matplotlib.axis_2"/>
   <g id="line2d_1">
    <path d="M 9.34128 22.196736
L 59.38272 22.196736
" clip-path="url(#p9173796fe7)" style="fill: none; stroke: #cccccc; stroke-width: 0.65; stroke-linecap: square"/>
   </g>
   <g id="line2d_2">
    <path d="M 47.5308 41.3568
L 47.5308 1.44
" clip-path="url(#p9173796fe7)" style="fill: none; stroke-dasharray: 2.405,1.04; stroke-dashoffset: 0; stroke: #cb202d; stroke-width: 0.65"/>
   </g>
   <g id="line2d_3">
    <defs>
     <path id="m51403b320c" d="M 0 1.8
C 0.477366 1.8 0.935244 1.610341 1.272792 1.272792
C 1.610341 0.935244 1.8 0.477366 1.8 0
C 1.8 -0.477366 1.610341 -0.935244 1.272792 -1.272792
C 0.935244 -1.610341 0.477366 -1.8 0 -1.8
C -0.477366 -1.8 -0.935244 -1.610341 -1.272792 -1.272792
C -1.610341 -0.935244 -1.8 -0.477366 -1.8 0
C -1.8 0.477366 -1.610341 0.935244 -1.272792 1.272792
C -0.935244 1.610341 -0.477366 1.8 0 1.8
z
" style="stroke: #5e6b73"/>
    </defs>
    <g clip-path="url(#p9173796fe7)">
     <use xlink:href="#m51403b320c" x="27.7776" y="22.196736" style="fill: #5e6b73; stroke: #5e6b73"/>
    </g>
   </g>
   <g id="text_1">
    <!-- 1K -->
    <g style="fill: #5e6b73" transform="translate(24.536319 16.360314) scale(0.053 -0.053)">
     <defs>
      <path id="Helvetica-31" d="M 613 3169
L 613 3600
Q 1222 3659 1462 3798
Q 1703 3938 1822 4456
L 2266 4456
L 2266 0
L 1666 0
L 1666 3169
L 613 3169
z
" transform="scale(0.015625)"/>
      <path id="Helvetica-4b" d="M 488 4591
L 1094 4591
L 1094 2353
L 3331 4591
L 4191 4591
L 2281 2741
L 4244 0
L 3434 0
L 1828 2303
L 1094 1600
L 1094 0
L 488 0
L 488 4591
z
" transform="scale(0.015625)"/>
     </defs>
     <use xlink:href="#Helvetica-31"/>
     <use xlink:href="#Helvetica-4b" transform="translate(55.615234 0)"/>
    </g>
   </g>
   <g id="text_2">
    <!-- noisy -->
    <g style="fill: #5e6b73" transform="translate(22.1751 30.189717) scale(0.048 -0.048)">
     <defs>
      <path id="Helvetica-6e" d="M 413 3347
L 947 3347
L 947 2872
Q 1184 3166 1450 3294
Q 1716 3422 2041 3422
Q 2753 3422 3003 2925
Q 3141 2653 3141 2147
L 3141 0
L 2569 0
L 2569 2109
Q 2569 2416 2478 2603
Q 2328 2916 1934 2916
Q 1734 2916 1606 2875
Q 1375 2806 1200 2600
Q 1059 2434 1017 2257
Q 975 2081 975 1753
L 975 0
L 413 0
L 413 3347
z
M 1734 3428
L 1734 3428
z
" transform="scale(0.015625)"/>
      <path id="Helvetica-6f" d="M 1741 363
Q 2300 363 2508 786
Q 2716 1209 2716 1728
Q 2716 2197 2566 2491
Q 2328 2953 1747 2953
Q 1231 2953 997 2559
Q 763 2166 763 1609
Q 763 1075 997 719
Q 1231 363 1741 363
z
M 1763 3444
Q 2409 3444 2856 3012
Q 3303 2581 3303 1744
Q 3303 934 2909 406
Q 2516 -122 1688 -122
Q 997 -122 590 345
Q 184 813 184 1600
Q 184 2444 612 2944
Q 1041 3444 1763 3444
z
M 1744 3428
L 1744 3428
z
" transform="scale(0.015625)"/>
      <path id="Helvetica-69" d="M 413 3331
L 984 3331
L 984 0
L 413 0
L 413 3331
z
M 413 4591
L 984 4591
L 984 3953
L 413 3953
L 413 4591
z
" transform="scale(0.015625)"/>
      <path id="Helvetica-73" d="M 747 1050
Q 772 769 888 619
Q 1100 347 1625 347
Q 1938 347 2175 483
Q 2413 619 2413 903
Q 2413 1119 2222 1231
Q 2100 1300 1741 1391
L 1294 1503
Q 866 1609 663 1741
Q 300 1969 300 2372
Q 300 2847 642 3140
Q 984 3434 1563 3434
Q 2319 3434 2653 2991
Q 2863 2709 2856 2384
L 2325 2384
Q 2309 2575 2191 2731
Q 1997 2953 1519 2953
Q 1200 2953 1036 2831
Q 872 2709 872 2509
Q 872 2291 1088 2159
Q 1213 2081 1456 2022
L 1828 1931
Q 2434 1784 2641 1647
Q 2969 1431 2969 969
Q 2969 522 2630 197
Q 2291 -128 1597 -128
Q 850 -128 539 211
Q 228 550 206 1050
L 747 1050
z
M 1578 3428
L 1578 3428
z
" transform="scale(0.015625)"/>
      <path id="Helvetica-79" d="M 2503 3347
L 3125 3347
Q 3006 3025 2597 1878
Q 2291 1016 2084 472
Q 1597 -809 1397 -1090
Q 1197 -1372 709 -1372
Q 591 -1372 527 -1362
Q 463 -1353 369 -1328
L 369 -816
Q 516 -856 581 -865
Q 647 -875 697 -875
Q 853 -875 926 -823
Q 1000 -772 1050 -697
Q 1066 -672 1162 -440
Q 1259 -209 1303 -97
L 66 3347
L 703 3347
L 1600 622
L 2503 3347
z
M 1597 3428
L 1597 3428
z
" transform="scale(0.015625)"/>
     </defs>
     <use xlink:href="#Helvetica-6e"/>
     <use xlink:href="#Helvetica-6f" transform="translate(55.615234 0)"/>
     <use xlink:href="#Helvetica-69" transform="translate(111.230469 0)"/>
     <use xlink:href="#Helvetica-73" transform="translate(133.447266 0)"/>
     <use xlink:href="#Helvetica-79" transform="translate(183.447266 0)"/>
    </g>
   </g>
   <g id="text_3">
    <!-- ~2K -->
    <g style="fill: #cb202d" transform="translate(49.326153 16.360314) scale(0.053 -0.053)">
     <defs>
      <path id="Helvetica-7e" d="M 1028 2163
Q 1119 2163 1219 2147
Q 1397 2122 1563 2056
L 2256 1784
Q 2416 1722 2519 1691
Q 2684 1644 2809 1644
Q 3038 1644 3197 1823
Q 3356 2003 3413 2266
L 3775 2266
Q 3697 1822 3467 1456
Q 3238 1091 2772 1091
Q 2631 1091 2438 1147
Q 2325 1181 2103 1266
L 1466 1509
Q 1347 1556 1220 1581
Q 1094 1606 1013 1606
Q 750 1606 600 1403
Q 513 1284 422 1000
L 56 1000
Q 109 1259 171 1442
Q 234 1625 391 1856
Q 522 2013 673 2088
Q 825 2163 1028 2163
z
" transform="scale(0.015625)"/>
      <path id="Helvetica-32" d="M 200 0
Q 231 578 439 1006
Q 647 1434 1250 1784
L 1850 2131
Q 2253 2366 2416 2531
Q 2672 2791 2672 3125
Q 2672 3516 2437 3745
Q 2203 3975 1813 3975
Q 1234 3975 1013 3538
Q 894 3303 881 2888
L 309 2888
Q 319 3472 525 3841
Q 891 4491 1816 4491
Q 2584 4491 2939 4075
Q 3294 3659 3294 3150
Q 3294 2613 2916 2231
Q 2697 2009 2131 1694
L 1703 1456
Q 1397 1288 1222 1134
Q 909 863 828 531
L 3272 531
L 3272 0
L 200 0
z
" transform="scale(0.015625)"/>
     </defs>
     <use xlink:href="#Helvetica-7e"/>
     <use xlink:href="#Helvetica-32" transform="translate(58.398438 0)"/>
     <use xlink:href="#Helvetica-4b" transform="translate(114.013672 0)"/>
    </g>
   </g>
   <g id="text_4">
    <!-- +/-1 pp -->
    <g style="fill: #cb202d" transform="translate(46.57695 30.203967) scale(0.048 -0.048)">
     <defs>
      <path id="Helvetica-2b" d="M 288 1369
L 288 1894
L 1650 1894
L 1650 3266
L 2184 3266
L 2184 1894
L 3547 1894
L 3547 1369
L 2184 1369
L 2184 0
L 1650 0
L 1650 1369
L 288 1369
z
" transform="scale(0.015625)"/>
      <path id="Helvetica-2f" d="M 1456 4591
L 1931 4591
L 475 0
L 0 0
L 1456 4591
z
" transform="scale(0.015625)"/>
      <path id="Helvetica-2d" d="M 266 2072
L 1834 2072
L 1834 1494
L 266 1494
L 266 2072
z
" transform="scale(0.015625)"/>
      <path id="Helvetica-20" transform="scale(0.015625)"/>
      <path id="Helvetica-70" d="M 1825 378
Q 2219 378 2480 708
Q 2741 1038 2741 1694
Q 2741 2094 2625 2381
Q 2406 2934 1825 2934
Q 1241 2934 1025 2350
Q 909 2038 909 1556
Q 909 1169 1025 897
Q 1244 378 1825 378
z
M 369 3331
L 916 3331
L 916 2888
Q 1084 3116 1284 3241
Q 1569 3428 1953 3428
Q 2522 3428 2919 2992
Q 3316 2556 3316 1747
Q 3316 653 2744 184
Q 2381 -113 1900 -113
Q 1522 -113 1266 53
Q 1116 147 931 375
L 931 -1334
L 369 -1334
L 369 3331
z
" transform="scale(0.015625)"/>
     </defs>
     <use xlink:href="#Helvetica-2b"/>
     <use xlink:href="#Helvetica-2f" transform="translate(58.398438 0)"/>
     <use xlink:href="#Helvetica-2d" transform="translate(86.181641 0)"/>
     <use xlink:href="#Helvetica-31" transform="translate(119.482422 0)"/>
     <use xlink:href="#Helvetica-20" transform="translate(175.097656 0)"/>
     <use xlink:href="#Helvetica-70" transform="translate(202.880859 0)"/>
     <use xlink:href="#Helvetica-70" transform="translate(258.496094 0)"/>
    </g>
   </g>
   <g id="text_5">
    <!-- detect -->
    <g style="fill: #333333" transform="translate(27.416039 7.527727) scale(0.051 -0.051)">
     <defs>
      <path id="Helvetica-64" d="M 769 1634
Q 769 1097 997 734
Q 1225 372 1728 372
Q 2119 372 2370 708
Q 2622 1044 2622 1672
Q 2622 2306 2362 2611
Q 2103 2916 1722 2916
Q 1297 2916 1033 2591
Q 769 2266 769 1634
z
M 1616 3406
Q 2000 3406 2259 3244
Q 2409 3150 2600 2916
L 2600 4606
L 3141 4606
L 3141 0
L 2634 0
L 2634 466
Q 2438 156 2169 18
Q 1900 -119 1553 -119
Q 994 -119 584 351
Q 175 822 175 1603
Q 175 2334 548 2870
Q 922 3406 1616 3406
z
" transform="scale(0.015625)"/>
      <path id="Helvetica-65" d="M 1806 3422
Q 2163 3422 2497 3255
Q 2831 3088 3006 2822
Q 3175 2569 3231 2231
Q 3281 2000 3281 1494
L 828 1494
Q 844 984 1069 676
Q 1294 369 1766 369
Q 2206 369 2469 659
Q 2619 828 2681 1050
L 3234 1050
Q 3213 866 3089 639
Q 2966 413 2813 269
Q 2556 19 2178 -69
Q 1975 -119 1719 -119
Q 1094 -119 659 336
Q 225 791 225 1609
Q 225 2416 662 2919
Q 1100 3422 1806 3422
z
M 2703 1941
Q 2669 2306 2544 2525
Q 2313 2931 1772 2931
Q 1384 2931 1121 2651
Q 859 2372 844 1941
L 2703 1941
z
M 1753 3428
L 1753 3428
z
" transform="scale(0.015625)"/>
      <path id="Helvetica-74" d="M 525 4281
L 1094 4281
L 1094 3347
L 1628 3347
L 1628 2888
L 1094 2888
L 1094 703
Q 1094 528 1213 469
Q 1278 434 1431 434
Q 1472 434 1519 436
Q 1566 438 1628 444
L 1628 0
Q 1531 -28 1426 -40
Q 1322 -53 1200 -53
Q 806 -53 665 148
Q 525 350 525 672
L 525 2888
L 72 2888
L 72 3347
L 525 3347
L 525 4281
z
" transform="scale(0.015625)"/>
      <path id="Helvetica-63" d="M 1703 3444
Q 2269 3444 2623 3169
Q 2978 2894 3050 2222
L 2503 2222
Q 2453 2531 2275 2736
Q 2097 2941 1703 2941
Q 1166 2941 934 2416
Q 784 2075 784 1575
Q 784 1072 996 728
Q 1209 384 1666 384
Q 2016 384 2220 598
Q 2425 813 2503 1184
L 3050 1184
Q 2956 519 2581 211
Q 2206 -97 1622 -97
Q 966 -97 575 383
Q 184 863 184 1581
Q 184 2463 612 2953
Q 1041 3444 1703 3444
z
M 1616 3428
L 1616 3428
z
" transform="scale(0.015625)"/>
     </defs>
     <use xlink:href="#Helvetica-64"/>
     <use xlink:href="#Helvetica-65" transform="translate(55.615234 0)"/>
     <use xlink:href="#Helvetica-74" transform="translate(111.230469 0)"/>
     <use xlink:href="#Helvetica-65" transform="translate(139.013672 0)"/>
     <use xlink:href="#Helvetica-63" transform="translate(194.628906 0)"/>
     <use xlink:href="#Helvetica-74" transform="translate(244.628906 0)"/>
    </g>
   </g>
   <g id="line2d_4">
    <defs>
     <path id="m9999877e65" d="M 0 1.9
C 0.503886 1.9 0.987202 1.699804 1.343503 1.343503
C 1.699804 0.987202 1.9 0.503886 1.9 0
C 1.9 -0.503886 1.699804 -0.987202 1.343503 -1.343503
C 0.987202 -1.699804 0.503886 -1.9 0 -1.9
C -0.503886 -1.9 -0.987202 -1.699804 -1.343503 -1.343503
C -1.699804 -0.987202 -1.9 -0.503886 -1.9 0
C -1.9 0.503886 -1.699804 0.987202 -1.343503 1.343503
C -0.987202 1.699804 -0.503886 1.9 0 1.9
z
" style="stroke: #cb202d"/>
    </defs>
    <g clip-path="url(#p9173796fe7)">
     <use xlink:href="#m9999877e65" x="47.5308" y="22.196736" style="fill: #cb202d; stroke: #cb202d"/>
    </g>
   </g>
  </g>
 </g>
 <defs>
  <clipPath id="p9173796fe7">
   <rect x="1.44" y="1.44" width="65.844" height="39.9168"/>
  </clipPath>
 </defs>
</svg>
