<?xml version="1.0" encoding="utf-8" standalone="no"?>
<!DOCTYPE svg PUBLIC "-//W3C//DTD SVG 1.1//EN"
  "http://www.w3.org/Graphics/SVG/1.1/DTD/svg11.dtd">
<svg xmlns:xlink="http://www.w3.org/1999/xlink" width="68.724pt" height="42.7968pt" viewBox="0 0 68.724 42.7968" xmlns="http://www.w3.org/2000/svg" version="1.1">
 <metadata>
  <rdf:RDF xmlns:dc="http://purl.org/dc/elements/1.1/" xmlns:cc="http://creativecommons.org/ns#" xmlns:rdf="http://www.w3.org/1999/02/22-rdf-syntax-ns#">
   <cc:Work>
    <dc:type rdf:resource="http://purl.org/dc/dcmitype/StillImage"/>
    <dc:format>image/svg+xml</dc:format>
    <dc:creator>
     <cc:Agent>
      <dc:title>Matplotlib v3.10.8, https://matplotlib.org/</dc:title>
     </cc:Agent>
    </dc:creator>
   </cc:Work>
  </rdf:RDF>
 </metadata>
 <defs>
  <style type="text/css">*{stroke-linejoin: round; stroke-linecap: butt}</style>
 </defs>
 <g id="figure_1">
  <g id="patch_1">
   <path d="M 0 42.7968
L 68.724 42.7968
L 68.724 0
L 0 0
z
" style="fill: #ffffff"/>
  </g>
  <g id="axes_1">
   <g id="patch_2">
    <path d="M 1.44 41.3568
L 67.284 41.3568
L 67.284 1.44
L 1.44 1.44
z
" style="fill: #ffffff"/>
   </g>
   <g id="matplotlib.axis_1"/>
   <g id="matplotlib.axis_2"/>
   <g id="line2d_1">
    <path d="M 17.24256 14.213376
L 51.48144 27.785088
" clip-path="url(#p9173796fe7)" style="fill: none; stroke: #cb202d; stroke-width: 1.6; stroke-linecap: square"/>
   </g>
   <g id="text_1">
    <!-- kernel -->
    <g style="fill: #555555" transform="translate(10.570138 8.275172) scale(0.049 -0.049)">
     <defs>
      <path id="Helvetica-6b" d="M 400 4591
L 941 4591
L 941 1925
L 2384 3347
L 3103 3347
L 1822 2094
L 3175 0
L 2456 0
L 1413 1688
L 941 1256
L 941 0
L 400 0
L 400 4591
z
" transform="scale(0.015625)"/>
      <path id="Helvetica-65" d="M 1806 3422
Q 2163 3422 2497 3255
Q 2831 3088 3006 2822
Q 3175 2569 3231 2231
Q 3281 2000 3281 1494
L 828 1494
Q 844 984 1069 676
Q 1294 369 1766 369
Q 2206 369 2469 659
Q 2619 828 2681 1050
L 3234 1050
Q 3213 866 3089 639
Q 2966 413 2813 269
Q 2556 19 2178 -69
Q 1975 -119 1719 -119
Q 1094 -119 659 336
Q 225 791 225 1609
Q 225 2416 662 2919
Q 1100 3422 1806 3422
z
M 2703 1941
Q 2669 2306 2544 2525
Q 2313 2931 1772 2931
Q 1384 2931 1121 2651
Q 859 2372 844 1941
L 2703 1941
z
M 1753 3428
L 1753 3428
z
" transform="scale(0.015625)"/>
      <path id="Helvetica-72" d="M 428 3347
L 963 3347
L 963 2769
Q 1028 2938 1284 3180
Q 1541 3422 1875 3422
Q 1891 3422 1928 3419
Q 1966 3416 2056 3406
L 2056 2813
Q 2006 2822 1964 2825
Q 1922 2828 1872 2828
Q 1447 2828 1219 2554
Q 991 2281 991 1925
L 991 0
L 428 0
L 428 3347
z
" transform="scale(0.015625)"/>
      <path id="Helvetica-6e" d="M 413 3347
L 947 3347
L 947 2872
Q 1184 3166 1450 3294
Q 1716 3422 2041 3422
Q 2753 3422 3003 2925
Q 3141 2653 3141 2147
L 3141 0
L 2569 0
L 2569 2109
Q 2569 2416 2478 2603
Q 2328 2916 1934 2916
Q 1734 2916 1606 2875
Q 1375 2806 1200 2600
Q 1059 2434 1017 2257
Q 975 2081 975 1753
L 975 0
L 413 0
L 413 3347
z
M 1734 3428
L 1734 3428
z
" transform="scale(0.015625)"/>
      <path id="Helvetica-6c" d="M 428 4591
L 991 4591
L 991 0
L 428 0
L 428 4591
z
" transform="scale(0.015625)"/>
     </defs>
     <use xlink:href="#Helvetica-6b"/>
     <use xlink:href="#Helvetica-65" transform="translate(50 0)"/>
     <use xlink:href="#Helvetica-72" transform="translate(105.615234 0)"/>
     <use xlink:href="#Helvetica-6e" transform="translate(138.916016 0)"/>
     <use xlink:href="#Helvetica-65" transform="translate(194.53125 0)"/>
     <use xlink:href="#Helvetica-6c" transform="translate(250.146484 0)"/>
    </g>
   </g>
   <g id="text_2">
    <!-- fleet -->
    <g style="fill: #555555" transform="translate(46.85094 8.275172) scale(0.049 -0.049)">
     <defs>
      <path id="Helvetica-66" d="M 553 3856
Q 566 4206 675 4369
Q 872 4656 1434 4656
Q 1488 4656 1544 4653
Q 1600 4650 1672 4644
L 1672 4131
Q 1584 4138 1545 4139
Q 1506 4141 1472 4141
Q 1216 4141 1166 4008
Q 1116 3875 1116 3331
L 1672 3331
L 1672 2888
L 1109 2888
L 1109 0
L 553 0
L 553 2888
L 88 2888
L 88 3331
L 553 3331
L 553 3856
z
" transform="scale(0.015625)"/>
      <path id="Helvetica-74" d="M 525 4281
L 1094 4281
L 1094 3347
L 1628 3347
L 1628 2888
L 1094 2888
L 1094 703
Q 1094 528 1213 469
Q 1278 434 1431 434
Q 1472 434 1519 436
Q 1566 438 1628 444
L 1628 0
Q 1531 -28 1426 -40
Q 1322 -53 1200 -53
Q 806 -53 665 148
Q 525 350 525 672
L 525 2888
L 72 2888
L 72 3347
L 525 3347
L 525 4281
z
" transform="scale(0.015625)"/>
     </defs>
     <use xlink:href="#Helvetica-66"/>
     <use xlink:href="#Helvetica-6c" transform="translate(27.783203 0)"/>
     <use xlink:href="#Helvetica-65" transform="translate(50 0)"/>
     <use xlink:href="#Helvetica-65" transform="translate(105.615234 0)"/>
     <use xlink:href="#Helvetica-74" transform="translate(161.230469 0)"/>
    </g>
   </g>
   <g id="PathCollection_1">
    <defs>
     <path id="mebfd9d3827" d="M 0 1.802776
C 0.478102 1.802776 0.936686 1.612824 1.274755 1.274755
C 1.612824 0.936686 1.802776 0.478102 1.802776 0
C 1.802776 -0.478102 1.612824 -0.936686 1.274755 -1.274755
C 0.936686 -1.612824 0.478102 -1.802776 0 -1.802776
C -0.478102 -1.802776 -0.936686 -1.612824 -1.274755 -1.274755
C -1.612824 -0.936686 -1.802776 -0.478102 -1.802776 0
C -1.802776 0.478102 -1.612824 0.936686 -1.274755 1.274755
C -0.936686 1.612824 -0.478102 1.802776 0 1.802776
z
" style="stroke: #cb202d"/>
    </defs>
    <g clip-path="url(#p9173796fe7)">
     <use xlink:href="#mebfd9d3827" x="17.24256" y="14.213376" style="fill: #cb202d; stroke: #cb202d"/>
     <use xlink:href="#mebfd9d3827" x="51.48144" y="27.785088" style="fill: #cb202d; stroke: #cb202d"/>
    </g>
   </g>
   <g id="text_3">
    <!-- sync tax -->
    <g style="fill: #cb202d" transform="translate(25.55925 25.784619) scale(0.048 -0.048)">
     <defs>
      <path id="Helvetica-73" d="M 747 1050
Q 772 769 888 619
Q 1100 347 1625 347
Q 1938 347 2175 483
Q 2413 619 2413 903
Q 2413 1119 2222 1231
Q 2100 1300 1741 1391
L 1294 1503
Q 866 1609 663 1741
Q 300 1969 300 2372
Q 300 2847 642 3140
Q 984 3434 1563 3434
Q 2319 3434 2653 2991
Q 2863 2709 2856 2384
L 2325 2384
Q 2309 2575 2191 2731
Q 1997 2953 1519 2953
Q 1200 2953 1036 2831
Q 872 2709 872 2509
Q 872 2291 1088 2159
Q 1213 2081 1456 2022
L 1828 1931
Q 2434 1784 2641 1647
Q 2969 1431 2969 969
Q 2969 522 2630 197
Q 2291 -128 1597 -128
Q 850 -128 539 211
Q 228 550 206 1050
L 747 1050
z
M 1578 3428
L 1578 3428
z
" transform="scale(0.015625)"/>
      <path id="Helvetica-79" d="M 2503 3347
L 3125 3347
Q 3006 3025 2597 1878
Q 2291 1016 2084 472
Q 1597 -809 1397 -1090
Q 1197 -1372 709 -1372
Q 591 -1372 527 -1362
Q 463 -1353 369 -1328
L 369 -816
Q 516 -856 581 -865
Q 647 -875 697 -875
Q 853 -875 926 -823
Q 1000 -772 1050 -697
Q 1066 -672 1162 -440
Q 1259 -209 1303 -97
L 66 3347
L 703 3347
L 1600 622
L 2503 3347
z
M 1597 3428
L 1597 3428
z
" transform="scale(0.015625)"/>
      <path id="Helvetica-63" d="M 1703 3444
Q 2269 3444 2623 3169
Q 2978 2894 3050 2222
L 2503 2222
Q 2453 2531 2275 2736
Q 2097 2941 1703 2941
Q 1166 2941 934 2416
Q 784 2075 784 1575
Q 784 1072 996 728
Q 1209 384 1666 384
Q 2016 384 2220 598
Q 2425 813 2503 1184
L 3050 1184
Q 2956 519 2581 211
Q 2206 -97 1622 -97
Q 966 -97 575 383
Q 184 863 184 1581
Q 184 2463 612 2953
Q 1041 3444 1703 3444
z
M 1616 3428
L 1616 3428
z
" transform="scale(0.015625)"/>
      <path id="Helvetica-20" transform="scale(0.015625)"/>
      <path id="Helvetica-61" d="M 844 891
Q 844 647 1022 506
Q 1200 366 1444 366
Q 1741 366 2019 503
Q 2488 731 2488 1250
L 2488 1703
Q 2384 1638 2221 1594
Q 2059 1550 1903 1531
L 1563 1488
Q 1256 1447 1103 1359
Q 844 1213 844 891
z
M 2206 2028
Q 2400 2053 2466 2191
Q 2503 2266 2503 2406
Q 2503 2694 2298 2823
Q 2094 2953 1713 2953
Q 1272 2953 1088 2716
Q 984 2584 953 2325
L 428 2325
Q 444 2944 830 3186
Q 1216 3428 1725 3428
Q 2316 3428 2684 3203
Q 3050 2978 3050 2503
L 3050 575
Q 3050 488 3086 434
Q 3122 381 3238 381
Q 3275 381 3322 386
Q 3369 391 3422 400
L 3422 -16
Q 3291 -53 3222 -62
Q 3153 -72 3034 -72
Q 2744 -72 2613 134
Q 2544 244 2516 444
Q 2344 219 2022 53
Q 1700 -113 1313 -113
Q 847 -113 551 170
Q 256 453 256 878
Q 256 1344 547 1600
Q 838 1856 1309 1916
L 2206 2028
z
M 1741 3428
L 1741 3428
z
" transform="scale(0.015625)"/>
      <path id="Helvetica-78" d="M 94 3347
L 822 3347
L 1591 2169
L 2369 3347
L 3053 3331
L 1925 1716
L 3103 0
L 2384 0
L 1553 1256
L 747 0
L 34 0
L 1213 1716
L 94 3347
z
" transform="scale(0.015625)"/>
     </defs>
     <use xlink:href="#Helvetica-73"/>
     <use xlink:href="#Helvetica-79" transform="translate(50 0)"/>
     <use xlink:href="#Helvetica-6e" transform="translate(100 0)"/>
     <use xlink:href="#Helvetica-63" transform="translate(155.615234 0)"/>
     <use xlink:href="#Helvetica-20" transform="translate(205.615234 0)"/>
     <use xlink:href="#Helvetica-74" transform="translate(233.398438 0)"/>
     <use xlink:href="#Helvetica-61" transform="translate(261.181641 0)"/>
     <use xlink:href="#Helvetica-78" transform="translate(316.796875 0)"/>
    </g>
   </g>
   <g id="text_4">
    <!-- high -->
    <g style="fill: #333333" transform="translate(12.705435 34.56969) scale(0.048 -0.048)">
     <defs>
      <path id="Helvetica-68" d="M 413 4606
L 975 4606
L 975 2894
Q 1175 3147 1334 3250
Q 1606 3428 2013 3428
Q 2741 3428 3000 2919
Q 3141 2641 3141 2147
L 3141 0
L 2563 0
L 2563 2109
Q 2563 2478 2469 2650
Q 2316 2925 1894 2925
Q 1544 2925 1259 2684
Q 975 2444 975 1775
L 975 0
L 413 0
L 413 4606
z
" transform="scale(0.015625)"/>
      <path id="Helvetica-69" d="M 413 3331
L 984 3331
L 984 0
L 413 0
L 413 3331
z
M 413 4591
L 984 4591
L 984 3953
L 413 3953
L 413 4591
z
" transform="scale(0.015625)"/>
      <path id="Helvetica-67" d="M 1594 3406
Q 1988 3406 2281 3213
Q 2441 3103 2606 2894
L 2606 3316
L 3125 3316
L 3125 272
Q 3125 -366 2938 -734
Q 2588 -1416 1616 -1416
Q 1075 -1416 706 -1173
Q 338 -931 294 -416
L 866 -416
Q 906 -641 1028 -763
Q 1219 -950 1628 -950
Q 2275 -950 2475 -494
Q 2594 -225 2584 466
Q 2416 209 2178 84
Q 1941 -41 1550 -41
Q 1006 -41 598 345
Q 191 731 191 1622
Q 191 2463 602 2934
Q 1013 3406 1594 3406
z
M 2606 1688
Q 2606 2309 2350 2609
Q 2094 2909 1697 2909
Q 1103 2909 884 2353
Q 769 2056 769 1575
Q 769 1009 998 714
Q 1228 419 1616 419
Q 2222 419 2469 966
Q 2606 1275 2606 1688
z
M 1659 3428
L 1659 3428
z
" transform="scale(0.015625)"/>
     </defs>
     <use xlink:href="#Helvetica-68"/>
     <use xlink:href="#Helvetica-69" transform="translate(55.615234 0)"/>
     <use xlink:href="#Helvetica-67" transform="translate(77.832031 0)"/>
     <use xlink:href="#Helvetica-68" transform="translate(133.447266 0)"/>
    </g>
   </g>
   <g id="text_5">
    <!-- lower -->
    <g style="fill: #333333" transform="translate(45.746565 34.594815) scale(0.048 -0.048)">
     <defs>
      <path id="Helvetica-6f" d="M 1741 363
Q 2300 363 2508 786
Q 2716 1209 2716 1728
Q 2716 2197 2566 2491
Q 2328 2953 1747 2953
Q 1231 2953 997 2559
Q 763 2166 763 1609
Q 763 1075 997 719
Q 1231 363 1741 363
z
M 1763 3444
Q 2409 3444 2856 3012
Q 3303 2581 3303 1744
Q 3303 934 2909 406
Q 2516 -122 1688 -122
Q 997 -122 590 345
Q 184 813 184 1600
Q 184 2444 612 2944
Q 1041 3444 1763 3444
z
M 1744 3428
L 1744 3428
z
" transform="scale(0.015625)"/>
      <path id="Helvetica-77" d="M 672 3347
L 1316 709
L 1969 3347
L 2600 3347
L 3256 725
L 3941 3347
L 4503 3347
L 3531 0
L 2947 0
L 2266 2591
L 1606 0
L 1022 0
L 56 3347
L 672 3347
z
" transform="scale(0.015625)"/>
     </defs>
     <use xlink:href="#Helvetica-6c"/>
     <use xlink:href="#Helvetica-6f" transform="translate(22.216797 0)"/>
     <use xlink:href="#Helvetica-77" transform="translate(77.832031 0)"/>
     <use xlink:href="#Helvetica-65" transform="translate(150.048828 0)"/>
     <use xlink:href="#Helvetica-72" transform="translate(205.664062 0)"/>
    </g>
   </g>
  </g>
 </g>
 <defs>
  <clipPath id="p9173796fe7">
   <rect x="1.44" y="1.44" width="65.844" height="39.9168"/>
  </clipPath>
 </defs>
</svg>
