<?xml version="1.0" encoding="utf-8" standalone="no"?>
<!DOCTYPE svg PUBLIC "-//W3C//DTD SVG 1.1//EN"
  "http://www.w3.org/Graphics/SVG/1.1/DTD/svg11.dtd">
<svg xmlns:xlink="http://www.w3.org/1999/xlink" width="72.63pt" height="99.9pt" viewBox="0 0 72.63 99.9" xmlns="http://www.w3.org/2000/svg" version="1.1">
 <metadata>
  <rdf:RDF xmlns:dc="http://purl.org/dc/elements/1.1/" xmlns:cc="http://creativecommons.org/ns#" xmlns:rdf="http://www.w3.org/1999/02/22-rdf-syntax-ns#">
   <cc:Work>
    <dc:type rdf:resource="http://purl.org/dc/dcmitype/StillImage"/>
    <dc:format>image/svg+xml</dc:format>
    <dc:creator>
     <cc:Agent>
      <dc:title>Matplotlib v3.10.8, https://matplotlib.org/</dc:title>
     </cc:Agent>
    </dc:creator>
   </cc:Work>
  </rdf:RDF>
 </metadata>
 <defs>
  <style type="text/css">*{stroke-linejoin: round; stroke-linecap: butt}</style>
 </defs>
 <g id="figure_1">
  <g id="patch_1">
   <path d="M 0 99.9
L 72.63 99.9
L 72.63 0
L 0 0
z
" style="fill: #ffffff"/>
  </g>
  <g id="axes_1">
   <g id="patch_2">
    <path d="M 1.44 98.46
L 71.19 98.46
L 71.19 1.44
L 1.44 1.44
z
" style="fill: #ffffff"/>
   </g>
   <g id="patch_3">
    <path d="M 1.44 46.5543
L 67.534837 46.5543
L 67.534837 14.5377
L 1.44 14.5377
z
" clip-path="url(#p879ee31a35)" style="fill: #e67817; opacity: 0.92"/>
   </g>
   <g id="patch_4">
    <path d="M 1.44 95.0643
L 7.247615 95.0643
L 7.247615 63.0477
L 1.44 63.0477
z
" clip-path="url(#p879ee31a35)" style="fill: #e67817; opacity: 0.92"/>
   </g>
   <g id="matplotlib.axis_1"/>
   <g id="matplotlib.axis_2"/>
   <g id="patch_5">
    <path d="M 1.44 98.46
L 71.19 98.46
" style="fill: none; stroke: #cccccc; stroke-width: 0.55; stroke-linejoin: miter; stroke-linecap: square"/>
   </g>
   <g id="text_1">
    <!-- GPT-4 33600 MWh -->
    <g style="fill: #ffffff" transform="translate(22.35679 31.869156) scale(0.052 -0.052)">
     <defs>
      <path id="Helvetica-47" d="M 2472 4709
Q 3119 4709 3591 4459
Q 4275 4100 4428 3200
L 3813 3200
Q 3700 3703 3347 3933
Q 2994 4163 2456 4163
Q 1819 4163 1383 3684
Q 947 3206 947 2259
Q 947 1441 1306 927
Q 1666 413 2478 413
Q 3100 413 3508 773
Q 3916 1134 3925 1941
L 2488 1941
L 2488 2456
L 4503 2456
L 4503 0
L 4103 0
L 3953 591
Q 3638 244 3394 109
Q 2984 -122 2353 -122
Q 1538 -122 950 406
Q 309 1069 309 2225
Q 309 3378 934 4059
Q 1528 4709 2472 4709
z
M 2369 4716
L 2369 4716
z
" transform="scale(0.015625)"/>
      <path id="Helvetica-50" d="M 547 4591
L 2613 4591
Q 3225 4591 3600 4245
Q 3975 3900 3975 3275
Q 3975 2738 3640 2339
Q 3306 1941 2613 1941
L 1169 1941
L 1169 0
L 547 0
L 547 4591
z
M 3347 3272
Q 3347 3778 2972 3959
Q 2766 4056 2406 4056
L 1169 4056
L 1169 2466
L 2406 2466
Q 2825 2466 3086 2644
Q 3347 2822 3347 3272
z
" transform="scale(0.015625)"/>
      <path id="Helvetica-54" d="M 3828 4591
L 3828 4044
L 2281 4044
L 2281 0
L 1650 0
L 1650 4044
L 103 4044
L 103 4591
L 3828 4591
z
" transform="scale(0.015625)"/>
      <path id="Helvetica-2d" d="M 266 2072
L 1834 2072
L 1834 1494
L 266 1494
L 266 2072
z
" transform="scale(0.015625)"/>
      <path id="Helvetica-34" d="M 2116 1584
L 2116 3613
L 681 1584
L 2116 1584
z
M 2125 0
L 2125 1094
L 163 1094
L 163 1644
L 2213 4488
L 2688 4488
L 2688 1584
L 3347 1584
L 3347 1094
L 2688 1094
L 2688 0
L 2125 0
z
" transform="scale(0.015625)"/>
      <path id="Helvetica-20" transform="scale(0.015625)"/>
      <path id="Helvetica-33" d="M 1663 -122
Q 869 -122 511 314
Q 153 750 153 1375
L 741 1375
Q 778 941 903 744
Q 1122 391 1694 391
Q 2138 391 2406 628
Q 2675 866 2675 1241
Q 2675 1703 2392 1887
Q 2109 2072 1606 2072
Q 1550 2072 1492 2070
Q 1434 2069 1375 2066
L 1375 2563
Q 1463 2553 1522 2550
Q 1581 2547 1650 2547
Q 1966 2547 2169 2647
Q 2525 2822 2525 3272
Q 2525 3606 2287 3787
Q 2050 3969 1734 3969
Q 1172 3969 956 3594
Q 838 3388 822 3006
L 266 3006
Q 266 3506 466 3856
Q 809 4481 1675 4481
Q 2359 4481 2734 4176
Q 3109 3872 3109 3294
Q 3109 2881 2888 2625
Q 2750 2466 2531 2375
Q 2884 2278 3082 2001
Q 3281 1725 3281 1325
Q 3281 684 2859 281
Q 2438 -122 1663 -122
z
" transform="scale(0.015625)"/>
      <path id="Helvetica-36" d="M 1872 4494
Q 2622 4494 2917 4105
Q 3213 3716 3213 3303
L 2656 3303
Q 2606 3569 2497 3719
Q 2294 4000 1881 4000
Q 1409 4000 1131 3564
Q 853 3128 822 2316
Q 1016 2600 1309 2741
Q 1578 2866 1909 2866
Q 2472 2866 2890 2506
Q 3309 2147 3309 1434
Q 3309 825 2912 354
Q 2516 -116 1781 -116
Q 1153 -116 697 361
Q 241 838 241 1966
Q 241 2800 444 3381
Q 834 4494 1872 4494
z
M 1831 384
Q 2275 384 2495 682
Q 2716 981 2716 1388
Q 2716 1731 2519 2042
Q 2322 2353 1803 2353
Q 1441 2353 1167 2112
Q 894 1872 894 1388
Q 894 963 1142 673
Q 1391 384 1831 384
z
" transform="scale(0.015625)"/>
      <path id="Helvetica-30" d="M 1731 4475
Q 2600 4475 2988 3759
Q 3288 3206 3288 2244
Q 3288 1331 3016 734
Q 2622 -122 1728 -122
Q 922 -122 528 578
Q 200 1163 200 2147
Q 200 2909 397 3456
Q 766 4475 1731 4475
z
M 1725 391
Q 2163 391 2422 778
Q 2681 1166 2681 2222
Q 2681 2984 2493 3476
Q 2306 3969 1766 3969
Q 1269 3969 1039 3501
Q 809 3034 809 2125
Q 809 1441 956 1025
Q 1181 391 1725 391
z
" transform="scale(0.015625)"/>
      <path id="Helvetica-4d" d="M 472 4591
L 1363 4591
L 2681 709
L 3991 4591
L 4872 4591
L 4872 0
L 4281 0
L 4281 2709
Q 4281 2850 4287 3175
Q 4294 3500 4294 3872
L 2984 0
L 2369 0
L 1050 3872
L 1050 3731
Q 1050 3563 1058 3217
Q 1066 2872 1066 2709
L 1066 0
L 472 0
L 472 4591
z
" transform="scale(0.015625)"/>
      <path id="Helvetica-57" d="M 791 4591
L 1656 856
L 2694 4591
L 3369 4591
L 4406 856
L 5272 4591
L 5953 4591
L 4747 0
L 4094 0
L 3034 3806
L 1969 0
L 1316 0
L 116 4591
L 791 4591
z
" transform="scale(0.015625)"/>
      <path id="Helvetica-68" d="M 413 4606
L 975 4606
L 975 2894
Q 1175 3147 1334 3250
Q 1606 3428 2013 3428
Q 2741 3428 3000 2919
Q 3141 2641 3141 2147
L 3141 0
L 2563 0
L 2563 2109
Q 2563 2478 2469 2650
Q 2316 2925 1894 2925
Q 1544 2925 1259 2684
Q 975 2444 975 1775
L 975 0
L 413 0
L 413 4606
z
" transform="scale(0.015625)"/>
     </defs>
     <use xlink:href="#Helvetica-47"/>
     <use xlink:href="#Helvetica-50" transform="translate(77.783203 0)"/>
     <use xlink:href="#Helvetica-54" transform="translate(144.482422 0)"/>
     <use xlink:href="#Helvetica-2d" transform="translate(205.566406 0)"/>
     <use xlink:href="#Helvetica-34" transform="translate(238.867188 0)"/>
     <use xlink:href="#Helvetica-20" transform="translate(294.482422 0)"/>
     <use xlink:href="#Helvetica-33" transform="translate(322.265625 0)"/>
     <use xlink:href="#Helvetica-33" transform="translate(377.880859 0)"/>
     <use xlink:href="#Helvetica-36" transform="translate(433.496094 0)"/>
     <use xlink:href="#Helvetica-30" transform="translate(489.111328 0)"/>
     <use xlink:href="#Helvetica-30" transform="translate(544.726562 0)"/>
     <use xlink:href="#Helvetica-20" transform="translate(600.341797 0)"/>
     <use xlink:href="#Helvetica-4d" transform="translate(628.125 0)"/>
     <use xlink:href="#Helvetica-57" transform="translate(711.425781 0)"/>
     <use xlink:href="#Helvetica-68" transform="translate(805.810547 0)"/>
    </g>
   </g>
   <g id="text_2">
    <!-- LeNet 54 kWh -->
    <g style="fill: #333333" transform="translate(7.719464 80.379156) scale(0.052 -0.052)">
     <defs>
      <path id="Helvetica-4c" d="M 488 4591
L 1109 4591
L 1109 547
L 3434 547
L 3434 0
L 488 0
L 488 4591
z
" transform="scale(0.015625)"/>
      <path id="Helvetica-65" d="M 1806 3422
Q 2163 3422 2497 3255
Q 2831 3088 3006 2822
Q 3175 2569 3231 2231
Q 3281 2000 3281 1494
L 828 1494
Q 844 984 1069 676
Q 1294 369 1766 369
Q 2206 369 2469 659
Q 2619 828 2681 1050
L 3234 1050
Q 3213 866 3089 639
Q 2966 413 2813 269
Q 2556 19 2178 -69
Q 1975 -119 1719 -119
Q 1094 -119 659 336
Q 225 791 225 1609
Q 225 2416 662 2919
Q 1100 3422 1806 3422
z
M 2703 1941
Q 2669 2306 2544 2525
Q 2313 2931 1772 2931
Q 1384 2931 1121 2651
Q 859 2372 844 1941
L 2703 1941
z
M 1753 3428
L 1753 3428
z
" transform="scale(0.015625)"/>
      <path id="Helvetica-4e" d="M 488 4591
L 1222 4591
L 3541 872
L 3541 4591
L 4131 4591
L 4131 0
L 3434 0
L 1081 3716
L 1081 0
L 488 0
L 488 4591
z
M 2269 4591
L 2269 4591
z
" transform="scale(0.015625)"/>
      <path id="Helvetica-74" d="M 525 4281
L 1094 4281
L 1094 3347
L 1628 3347
L 1628 2888
L 1094 2888
L 1094 703
Q 1094 528 1213 469
Q 1278 434 1431 434
Q 1472 434 1519 436
Q 1566 438 1628 444
L 1628 0
Q 1531 -28 1426 -40
Q 1322 -53 1200 -53
Q 806 -53 665 148
Q 525 350 525 672
L 525 2888
L 72 2888
L 72 3347
L 525 3347
L 525 4281
z
" transform="scale(0.015625)"/>
      <path id="Helvetica-35" d="M 791 1141
Q 847 659 1238 475
Q 1438 381 1700 381
Q 2200 381 2440 700
Q 2681 1019 2681 1406
Q 2681 1875 2395 2131
Q 2109 2388 1709 2388
Q 1419 2388 1211 2275
Q 1003 2163 856 1963
L 369 1991
L 709 4400
L 3034 4400
L 3034 3856
L 1131 3856
L 941 2613
Q 1097 2731 1238 2791
Q 1488 2894 1816 2894
Q 2431 2894 2859 2497
Q 3288 2100 3288 1491
Q 3288 856 2895 371
Q 2503 -113 1644 -113
Q 1097 -113 676 195
Q 256 503 206 1141
L 791 1141
z
" transform="scale(0.015625)"/>
      <path id="Helvetica-6b" d="M 400 4591
L 941 4591
L 941 1925
L 2384 3347
L 3103 3347
L 1822 2094
L 3175 0
L 2456 0
L 1413 1688
L 941 1256
L 941 0
L 400 0
L 400 4591
z
" transform="scale(0.015625)"/>
     </defs>
     <use xlink:href="#Helvetica-4c"/>
     <use xlink:href="#Helvetica-65" transform="translate(55.615234 0)"/>
     <use xlink:href="#Helvetica-4e" transform="translate(111.230469 0)"/>
     <use xlink:href="#Helvetica-65" transform="translate(183.447266 0)"/>
     <use xlink:href="#Helvetica-74" transform="translate(239.0625 0)"/>
     <use xlink:href="#Helvetica-20" transform="translate(266.845703 0)"/>
     <use xlink:href="#Helvetica-35" transform="translate(294.628906 0)"/>
     <use xlink:href="#Helvetica-34" transform="translate(350.244141 0)"/>
     <use xlink:href="#Helvetica-20" transform="translate(405.859375 0)"/>
     <use xlink:href="#Helvetica-6b" transform="translate(433.642578 0)"/>
     <use xlink:href="#Helvetica-57" transform="translate(483.642578 0)"/>
     <use xlink:href="#Helvetica-68" transform="translate(578.027344 0)"/>
    </g>
   </g>
  </g>
 </g>
 <defs>
  <clipPath id="p879ee31a35">
   <rect x="1.44" y="1.44" width="69.75" height="97.02"/>
  </clipPath>
 </defs>
</svg>
