<?xml version="1.0" encoding="UTF-8" standalone="no"?>
<!-- Created with Inkscape (http://www.inkscape.org/) -->

<svg
   version="1.1"
   id="svg1"
   width="408.85599"
   height="288.58932"
   viewBox="0 0 408.85599 288.58932"
   xmlns="http://www.w3.org/2000/svg"
   xmlns:svg="http://www.w3.org/2000/svg">
  <defs
     id="defs1" />
  <g
     id="g1">
    <path
       id="path1"
       d="M 0,0 H 223.40057"
       style="fill:none;stroke:#000000;stroke-width:0.79701;stroke-linecap:butt;stroke-linejoin:miter;stroke-miterlimit:10;stroke-dasharray:none;stroke-opacity:1"
       transform="matrix(1.3333333,0,0,-1.3333333,54.417333,207.40133)" />
    <path
       id="path2"
       d="M 5.44046,0 1.28699,1.5706 2.66432,0 1.28699,-1.5706 Z"
       style="fill:#000000;fill-opacity:1;fill-rule:nonzero;stroke:#000000;stroke-width:0.79701;stroke-linecap:butt;stroke-linejoin:round;stroke-miterlimit:10;stroke-dasharray:none;stroke-opacity:1"
       transform="matrix(1.3333333,0,0,-1.3333333,348.998,207.40133)" />
    <path
       id="path3"
       d="M 4.1960234,7.578125e-4 6.0358672,-5.4718984 V 7.578125e-4 H 6.8210234 V -6.5383047 H 5.6608672 L 3.7624297,-0.84299219 1.8288359,-6.5383047 H 0.66867969 V 7.578125e-4 H 1.4655547 V -5.4718984 L 3.3171172,7.578125e-4 Z M 12.261453,-0.43283594 c -0.08203,0.0117188 -0.117187,0.0117188 -0.152344,0.0117188 -0.269531,0 -0.410156,-0.12890625 -0.410156,-0.36328125 V -3.5500234 c 0,-0.8320313 -0.609375,-1.2773438 -1.7695311,-1.2773438 -0.6796875,0 -1.2421875,0.1875 -1.5585938,0.5390625 -0.2109375,0.2460938 -0.3046875,0.515625 -0.3164062,0.984375 h 0.75 c 0.058594,-0.5742187 0.3984375,-0.8320312 1.1015625,-0.8320312 0.6679686,0 1.0546876,0.2460937 1.0546876,0.6914062 v 0.1992188 c 0,0.3164062 -0.1875,0.4453125 -0.785156,0.515625 -1.0546879,0.140625 -1.2187504,0.1757812 -1.5000004,0.2929687 -0.5507812,0.2226563 -0.8320312,0.6445313 -0.8320312,1.2539063 0,0.85546871 0.5976562,1.39453121 1.546875,1.39453121 0.5859375,0 1.0664066,-0.2109374975 1.5937496,-0.69140625 0.04687,0.46875 0.28125,0.69140625 0.773438,0.69140625 0.152344,0 0.269531,-0.0234375 0.503906,-0.0820313 z M 10.960672,-1.4758047 c 0,0.2460938 -0.08203,0.3984375 -0.304688,0.60937501 -0.304687,0.28125 -0.6679684,0.421875 -1.1132809,0.421875 -0.5742187,0 -0.9140625,-0.28125 -0.9140625,-0.76171871 0,-0.4921875 0.328125,-0.7382813 1.125,-0.8554688 0.7851564,-0.1054687 0.9492184,-0.140625 1.2070314,-0.2578125 z m 3.767578,-3.2226562 h -0.761719 v -1.2890625 h -0.75 v 1.2890625 h -0.632812 v 0.609375 h 0.632812 v 3.55078121 c 0,0.48046875 0.328125,0.75 0.902344,0.75 0.1875,0 0.363281,-0.0234375 0.609375,-0.0703125 v -0.62109375 c -0.09375,0.0234375 -0.210937,0.0351563 -0.351562,0.0351563 -0.328125,0 -0.410157,-0.09375 -0.410157,-0.421875 V -4.0890859 H 14.72825 Z M 19.272195,7.578125e-4 V -4.6984609 h -0.75 v 2.6601562 c 0,0.9609375 -0.503906,1.59375001 -1.277343,1.59375001 -0.597657,0 -0.972657,-0.36328125 -0.972657,-0.92578121 v -3.328125 h -0.738281 v 3.6210937 c 0,0.78515626 0.574219,1.28906251 1.488281,1.28906251 0.691407,0 1.136719,-0.24609375 1.570313,-0.8671875 V 7.578125e-4 Z M 20.552469,-4.6984609 V 7.578125e-4 h 0.75 V -2.4367422 c 0,-0.6679687 0.175781,-1.1132812 0.527344,-1.3710937 0.234375,-0.1757813 0.457031,-0.2226563 0.984375,-0.234375 v -0.7617188 c -0.128907,-0.023437 -0.199219,-0.023437 -0.292969,-0.023437 -0.480469,0 -0.855469,0.28125 -1.277344,0.984375 v -0.8554687 z m 3.846679,0 h -0.75 V 7.578125e-4 h 0.75 z m 0,-1.8398438 H 23.63743 v 0.9492188 h 0.761718 z m 2.917969,1.8398438 h -0.761719 v -1.2890625 h -0.75 v 1.2890625 h -0.632812 v 0.609375 h 0.632812 v 3.55078121 c 0,0.48046875 0.328125,0.75 0.902344,0.75 0.1875,0 0.363281,-0.0234375 0.609375,-0.0703125 v -0.62109375 c -0.09375,0.0234375 -0.210937,0.0351563 -0.351562,0.0351563 -0.328125,0 -0.410157,-0.09375 -0.410157,-0.421875 V -4.0890859 h 0.761719 z m 3.700196,0 -1.300782,3.65625 -1.207031,-3.65625 h -0.796875 l 1.59375,4.72265621 -0.292969,0.73828125 C 28.896219,1.0906016 28.732156,1.2195078 28.41575,1.2195078 c -0.105469,0 -0.234375,-0.011719 -0.398437,-0.058594 v 0.6796875 c 0.152343,0.082031 0.304687,0.1171875 0.503906,0.1171875 0.246094,0 0.503906,-0.082031 0.703125,-0.2226563 0.234375,-0.1757812 0.363281,-0.375 0.503906,-0.74999999 l 2.097656,-5.68359371 z m 0,0"
       style="fill:#000000;fill-opacity:1;fill-rule:nonzero;stroke:none"
       aria-label="Maturity"
       transform="matrix(1.3333333,0,0,1.3333333,361.73733,210.40133)" />
    <path
       id="path4"
       d="M 0,0 V 138.36014"
       style="fill:none;stroke:#000000;stroke-width:0.79701;stroke-linecap:butt;stroke-linejoin:miter;stroke-miterlimit:10;stroke-dasharray:none;stroke-opacity:1"
       transform="matrix(1.3333333,0,0,-1.3333333,54.417333,207.40133)" />
    <path
       id="path5"
       d="M 5.44046,0 1.28699,1.5706 2.66432,0 1.28699,-1.5706 Z"
       style="fill:#000000;fill-opacity:1;fill-rule:nonzero;stroke:#000000;stroke-width:0.79701;stroke-linecap:butt;stroke-linejoin:round;stroke-miterlimit:10;stroke-dasharray:none;stroke-opacity:1"
       transform="matrix(0,-1.3333333,-1.3333333,0,54.417333,26.207907)" />
    <path
       id="path6"
       d="m 5.3450156,-4.6161953 c -0.011719,-1.2773438 -0.890625,-2.0273438 -2.390625,-2.0273438 -1.4414062,0 -2.32031247,0.7382813 -2.32031247,1.921875 0,0.796875 0.42187497,1.3007813 1.27734377,1.5234375 l 1.6171875,0.4335938 c 0.8320312,0.2109375 1.2070312,0.5390625 1.2070312,1.0546875 0,0.3515625 -0.1875,0.703125 -0.46875,0.90234374 -0.2578125,0.17578125 -0.6679687,0.28125 -1.1953125,0.28125 -0.7148437,0 -1.1953125,-0.17578125 -1.5117187,-0.55078124 -0.2460938,-0.28125 -0.3515625,-0.5976563 -0.3398438,-0.9960938 H 0.43485938 c 0,0.5976563 0.1171875,0.984375 0.38671875,1.34765629 0.44531247,0.609375 1.19531247,0.9375 2.19140627,0.9375 0.7851562,0 1.4179687,-0.1875 1.8398437,-0.50390625 0.4335938,-0.3515625 0.7148438,-0.93750004 0.7148438,-1.50000004 0,-0.8085937 -0.5039063,-1.3945312 -1.3945313,-1.640625 l -1.640625,-0.4335937 c -0.7851562,-0.2226563 -1.0664062,-0.46875 -1.0664062,-0.9726563 0,-0.6679687 0.5742187,-1.1015625 1.453125,-1.1015625 1.0429687,0 1.6289062,0.46875 1.640625,1.3242188 z m 4.8544924,1.5 c -0.03516,-0.4570313 -0.128906,-0.75 -0.3046877,-1.0195313 -0.328125,-0.4335937 -0.890625,-0.6914062 -1.546875,-0.6914062 -1.265625,0 -2.0859375,0.9960937 -2.0859375,2.5546875 0,1.52343749 0.8085938,2.48437499 2.0742188,2.48437499 1.125,0 1.8281254,-0.6796875 1.9218754,-1.82812499 H 9.5081016 c -0.1289063,0.76171874 -0.515625,1.13671874 -1.1484375,1.13671874 -0.8320313,0 -1.3242188,-0.67968754 -1.3242188,-1.79296874 0,-1.171875 0.4921875,-1.8632813 1.3007813,-1.8632813 0.6328125,0 1.0195312,0.3632813 1.1132812,1.0195313 z m 5.05664,2.68359374 c -0.08203,0.0117188 -0.117187,0.0117188 -0.152343,0.0117188 -0.269532,0 -0.410157,-0.12890625 -0.410157,-0.36328125 V -3.5497891 c 0,-0.8320312 -0.609375,-1.2773437 -1.769531,-1.2773437 -0.679687,0 -1.242187,0.1875 -1.558594,0.5390625 -0.210937,0.2460937 -0.304687,0.515625 -0.316406,0.984375 h 0.75 c 0.05859,-0.5742188 0.398438,-0.8320313 1.101563,-0.8320313 0.667968,0 1.054687,0.2460938 1.054687,0.6914063 v 0.1992187 c 0,0.3164063 -0.1875,0.4453125 -0.785156,0.515625 -1.054688,0.140625 -1.21875,0.1757813 -1.5,0.2929688 -0.550781,0.2226562 -0.832031,0.6445312 -0.832031,1.2539062 0,0.85546879 0.597656,1.39453129 1.546875,1.39453129 0.585937,0 1.066406,-0.2109375025 1.59375,-0.69140625 0.04687,0.46875 0.28125,0.69140625 0.773437,0.69140625 0.152344,0 0.269531,-0.0234375 0.503906,-0.0820313 z M 13.955367,-1.4755703 c 0,0.2460937 -0.08203,0.3984375 -0.304687,0.60937499 -0.304688,0.28125 -0.667969,0.421875 -1.113282,0.421875 -0.574218,0 -0.914062,-0.28125 -0.914062,-0.76171879 0,-0.4921875 0.328125,-0.7382812 1.125,-0.8554687 0.785156,-0.1054688 0.949219,-0.140625 1.207031,-0.2578125 z m 2.853516,-5.0625 h -0.75 V 9.921875e-4 h 0.75 z m 5.223633,4.4414062 c 0,-0.7148437 -0.04687,-1.1484375 -0.1875,-1.5 -0.304688,-0.7734375 -1.019532,-1.2304687 -1.898438,-1.2304687 -1.300781,0 -2.144531,0.9960937 -2.144531,2.5429687 0,1.54687504 0.808594,2.49609379 2.132812,2.49609379 1.066407,0 1.816407,-0.609375 2.003907,-1.64062499 h -0.75 c -0.210938,0.62109374 -0.632813,0.94921874 -1.230469,0.94921874 -0.480469,0 -0.878906,-0.22265625 -1.125,-0.60937504 -0.1875,-0.2695312 -0.246094,-0.5390625 -0.257813,-1.0078125 z m -3.433594,-0.609375 c 0.05859,-0.8671875 0.585937,-1.4296875 1.335937,-1.4296875 0.738282,0 1.300782,0.609375 1.300782,1.3710938 0,0.023437 0,0.035156 0,0.058594 z m 8.361328,-3.8320312 -2.121094,6.71484374 h 0.492188 l 2.121094,-6.71484374 z m 7.186523,4.5703125 0.667969,1.9687499875 h 0.9375 L 33.455367,-6.5380703 H 32.377242 L 30.045211,9.921875e-4 h 0.890625 L 31.627242,-1.9677578 Z m -0.234375,-0.6914063 h -2.085937 l 1.078125,-2.9765625 z M 39.938766,9.921875e-4 V -4.6982266 h -0.75 v 2.6601563 c 0,0.9609375 -0.503907,1.59374999 -1.277344,1.59374999 -0.597656,0 -0.972656,-0.36328125 -0.972656,-0.92578129 v -3.328125 h -0.738282 v 3.6210938 c 0,0.78515624 0.574219,1.28906249 1.488282,1.28906249 0.691406,0 1.136718,-0.24609375 1.570312,-0.8671875 V 9.921875e-4 Z M 42.874313,-4.6982266 h -0.761719 v -1.2890625 h -0.75 v 1.2890625 h -0.632813 v 0.609375 h 0.632813 v 3.55078129 c 0,0.48046875 0.328125,0.75 0.902344,0.75 0.1875,0 0.363281,-0.0234375 0.609375,-0.0703125 v -0.62109375 c -0.09375,0.0234375 -0.210938,0.0351563 -0.351563,0.0351563 -0.328125,0 -0.410156,-0.09375 -0.410156,-0.421875 V -4.0888516 h 0.761719 z m 2.654296,-0.1289062 c -1.3125,0 -2.109375,0.9375 -2.109375,2.5195312 0,1.57031254 0.785157,2.51953129 2.121094,2.51953129 1.3125,0 2.121094,-0.94921875 2.121094,-2.48437499 0,-1.6289063 -0.773438,-2.5546875 -2.132813,-2.5546875 z m 0.01172,0.6914062 c 0.84375,0 1.347656,0.6796875 1.347656,1.8515625 0,1.1015625 -0.527343,1.80468754 -1.347656,1.80468754 -0.832031,0 -1.347656,-0.69140624 -1.347656,-1.82812504 0,-1.1367187 0.515625,-1.828125 1.347656,-1.828125 z m 3.169922,-0.5625 V 9.921875e-4 h 0.75 V -2.9521328 c 0,-0.6796875 0.492188,-1.21875 1.101563,-1.21875 0.550781,0 0.867187,0.3398437 0.867187,0.9375 V 9.921875e-4 h 0.75 V -2.9521328 c 0,-0.6796875 0.492188,-1.21875 1.101563,-1.21875 0.550781,0 0.878906,0.3398437 0.878906,0.9375 V 9.921875e-4 h 0.75 V -3.5263516 c 0,-0.84375 -0.480469,-1.3007812 -1.359375,-1.3007812 -0.632813,0 -1.007813,0.1875 -1.453125,0.7148437 -0.269531,-0.5039062 -0.644531,-0.7148437 -1.253906,-0.7148437 -0.632813,0 -1.042969,0.234375 -1.453125,0.796875 v -0.6679688 z m 11.630859,4.26562504 c -0.08203,0.0117188 -0.117187,0.0117188 -0.152343,0.0117188 -0.269532,0 -0.410157,-0.12890625 -0.410157,-0.36328125 V -3.5497891 c 0,-0.8320312 -0.609375,-1.2773437 -1.769531,-1.2773437 -0.679687,0 -1.242187,0.1875 -1.558594,0.5390625 -0.210937,0.2460937 -0.304687,0.515625 -0.316406,0.984375 h 0.75 c 0.05859,-0.5742188 0.398438,-0.8320313 1.101563,-0.8320313 0.667968,0 1.054687,0.2460938 1.054687,0.6914063 v 0.1992187 c 0,0.3164063 -0.1875,0.4453125 -0.785156,0.515625 -1.054688,0.140625 -1.21875,0.1757813 -1.5,0.2929688 -0.550781,0.2226562 -0.832031,0.6445312 -0.832031,1.2539062 0,0.85546879 0.597656,1.39453129 1.546875,1.39453129 0.585937,0 1.066406,-0.2109375025 1.59375,-0.69140625 0.04687,0.46875 0.28125,0.69140625 0.773437,0.69140625 0.152344,0 0.269531,-0.0234375 0.503906,-0.0820313 z M 59.040328,-1.4755703 c 0,0.2460937 -0.08203,0.3984375 -0.304687,0.60937499 -0.304688,0.28125 -0.667969,0.421875 -1.113282,0.421875 -0.574218,0 -0.914062,-0.28125 -0.914062,-0.76171879 0,-0.4921875 0.328125,-0.7382812 1.125,-0.8554687 0.785156,-0.1054688 0.949219,-0.140625 1.207031,-0.2578125 z m 3.764649,-3.2226563 h -0.761719 v -1.2890625 h -0.75 v 1.2890625 h -0.632813 v 0.609375 h 0.632813 v 3.55078129 c 0,0.48046875 0.328125,0.75 0.902344,0.75 0.1875,0 0.363281,-0.0234375 0.609375,-0.0703125 v -0.62109375 c -0.09375,0.0234375 -0.210938,0.0351563 -0.351563,0.0351563 -0.328125,0 -0.410156,-0.09375 -0.410156,-0.421875 V -4.0888516 h 0.761719 z m 1.567382,0 h -0.75 V 9.921875e-4 h 0.75 z m 0,-1.8398437 h -0.761718 v 0.9492187 h 0.761718 z m 3.079102,1.7109375 c -1.3125,0 -2.109375,0.9375 -2.109375,2.5195312 0,1.57031254 0.785156,2.51953129 2.121094,2.51953129 1.3125,0 2.121093,-0.94921875 2.121093,-2.48437499 0,-1.6289063 -0.773437,-2.5546875 -2.132812,-2.5546875 z m 0.01172,0.6914062 c 0.84375,0 1.347656,0.6796875 1.347656,1.8515625 0,1.1015625 -0.527344,1.80468754 -1.347656,1.80468754 -0.832032,0 -1.347657,-0.69140624 -1.347657,-1.82812504 0,-1.1367187 0.515625,-1.828125 1.347657,-1.828125 z m 3.169922,-0.5625 V 9.921875e-4 h 0.75 V -2.5888516 c 0,-0.9609375 0.503906,-1.5820312 1.265625,-1.5820312 0.597656,0 0.972656,0.3515625 0.972656,0.9140625 V 9.921875e-4 h 0.75 V -3.5497891 c 0,-0.7734375 -0.585938,-1.2773437 -1.488281,-1.2773437 -0.703125,0 -1.148438,0.2695312 -1.570313,0.9140625 v -0.7851563 z m 0,0"
       style="fill:#000000;fill-opacity:1;fill-rule:nonzero;stroke:none"
       aria-label="Scale/Automation"
       transform="matrix(1.3333333,0,0,1.3333333,4.428,13.221333)" />
    <path
       id="path7"
       d="M 0.3736,0.3736 H 57.06722 V 28.72039 H 0.3736 Z"
       style="fill:#d1e6f3;fill-opacity:1;fill-rule:nonzero;stroke:#000000;stroke-width:0.74721;stroke-linecap:butt;stroke-linejoin:miter;stroke-miterlimit:10;stroke-dasharray:none;stroke-opacity:1"
       transform="matrix(1.3333333,0,0,-1.3333333,54.417333,207.40133)" />
    <path
       id="path8"
       d="M 1.5480234,-6.5380938 H 0.71599219 V 9.6875e-4 H 4.7823984 V -0.7373125 h -3.234375 z m 8.0302735,4.4414063 c 0,-0.7148438 -0.046875,-1.1484375 -0.1875,-1.5 -0.3046875,-0.7734375 -1.0195313,-1.2304688 -1.8984375,-1.2304688 -1.3007813,0 -2.1445313,0.9960938 -2.1445313,2.5429688 0,1.546875 0.8085938,2.49609375 2.1328125,2.49609375 1.0664063,0 1.8164063,-0.609375 2.0039063,-1.64062505 h -0.75 C 8.5236094,-0.807625 8.1017344,-0.4795 7.5040781,-0.4795 c -0.4804687,0 -0.8789062,-0.22265625 -1.125,-0.609375 -0.1875,-0.2695313 -0.2460937,-0.5390625 -0.2578125,-1.0078125 z M 6.1447031,-2.7060625 C 6.2032969,-3.57325 6.7306406,-4.13575 7.4806406,-4.13575 c 0.7382813,0 1.3007813,0.609375 1.3007813,1.3710937 0,0.023437 0,0.035156 0,0.058594 z M 12.256031,9.6875e-4 14.060719,-4.69825 h -0.84375 L 11.89275,-0.88965625 10.638844,-4.69825 H 9.7950938 L 11.435719,9.6875e-4 Z m 6.298828,-2.09765625 c 0,-0.7148438 -0.04687,-1.1484375 -0.1875,-1.5 -0.304687,-0.7734375 -1.019531,-1.2304688 -1.898437,-1.2304688 -1.300781,0 -2.144531,0.9960938 -2.144531,2.5429688 0,1.546875 0.808593,2.49609375 2.132812,2.49609375 1.066406,0 1.816406,-0.609375 2.003906,-1.64062505 h -0.75 C 17.500172,-0.807625 17.078297,-0.4795 16.480641,-0.4795 c -0.480469,0 -0.878907,-0.22265625 -1.125,-0.609375 -0.1875,-0.2695313 -0.246094,-0.5390625 -0.257813,-1.0078125 z m -3.433593,-0.609375 c 0.05859,-0.8671875 0.585937,-1.4296875 1.335937,-1.4296875 0.738281,0 1.300781,0.609375 1.300781,1.3710937 0,0.023437 0,0.035156 0,0.058594 z m 5.182617,-3.8320313 h -0.75 V 9.6875e-4 h 0.75 z m 5.586914,0.1875 c -0.585938,0 -1.125,0.2578125 -1.453125,0.6914063 -0.421875,0.5625 -0.621094,1.40625 -0.621094,2.5898437 0,2.13281255 0.714844,3.28125005 2.074219,3.28125005 1.347656,0 2.085937,-1.1484375 2.085937,-3.23437505 0,-1.2304687 -0.199218,-2.0625 -0.621093,-2.6367187 C 27.027516,-6.1045 26.500172,-6.3505938 25.890797,-6.3505938 Z m 0,0.6914063 c 0.855469,0 1.277344,0.8671875 1.277344,2.5664062 0,1.8046875 -0.410157,2.64843755 -1.289063,2.64843755 -0.832031,0 -1.253906,-0.87890625 -1.253906,-2.62500005 0,-1.734375 0.421875,-2.5898437 1.265625,-2.5898437 z m 0,0"
       style="fill:#000000;fill-opacity:1;fill-rule:nonzero;stroke:none"
       aria-label="Level0"
       transform="matrix(1.3333333,0,0,1.3333333,73.768,184.88933)" />
    <path
       id="path9"
       d="M 4.1962187,-0.001 6.0360625,-5.4736563 V -0.001 H 6.8212187 V -6.5400625 H 5.6610625 L 3.762625,-0.84475 1.8290312,-6.5400625 H 0.668875 V -0.001 H 1.46575 V -5.4736563 L 3.3173125,-0.001 Z m 8.0654293,-0.43359375 c -0.08203,0.0117188 -0.117187,0.0117188 -0.152343,0.0117188 -0.269532,0 -0.410157,-0.12890625 -0.410157,-0.36328125 v -2.7656251 c 0,-0.8320312 -0.609375,-1.2773437 -1.7695308,-1.2773437 -0.6796875,0 -1.2421875,0.1875 -1.5585938,0.5390625 -0.2109375,0.2460937 -0.3046875,0.515625 -0.3164062,0.984375 h 0.75 c 0.058594,-0.5742188 0.3984375,-0.8320313 1.1015625,-0.8320313 0.6679683,0 1.0546873,0.2460938 1.0546873,0.6914063 v 0.1992187 c 0,0.3164063 -0.1875,0.4453125 -0.785156,0.515625 -1.0546876,0.140625 -1.2187501,0.1757813 -1.5000001,0.2929688 -0.5507812,0.2226562 -0.8320312,0.6445312 -0.8320312,1.2539062 0,0.8554688 0.5976562,1.3945313 1.546875,1.3945313 0.5859375,0 1.0664063,-0.2109375 1.5937503,-0.69140625 0.04687,0.46875 0.28125,0.69140625 0.773437,0.69140625 0.152344,0 0.269531,-0.0234375 0.503906,-0.0820313 z M 10.960867,-1.4775625 c 0,0.2460937 -0.08203,0.3984375 -0.304687,0.609375 -0.304688,0.28125 -0.6679691,0.421875 -1.1132816,0.421875 -0.5742187,0 -0.9140625,-0.28125 -0.9140625,-0.7617188 0,-0.4921875 0.328125,-0.7382812 1.125,-0.8554687 0.7851561,-0.1054688 0.9492191,-0.140625 1.2070311,-0.2578125 z M 13.08782,-4.7002188 V -0.001 h 0.75 v -2.5898438 c 0,-0.9609375 0.503907,-1.5820312 1.265625,-1.5820312 0.597657,0 0.972657,0.3515625 0.972657,0.9140625 V -0.001 h 0.75 v -3.5507813 c 0,-0.7734375 -0.585938,-1.2773437 -1.488282,-1.2773437 -0.703125,0 -1.148437,0.2695312 -1.570312,0.9140625 V -4.7002188 Z M 21.674734,-0.001 v -4.6992188 h -0.75 v 2.6601563 c 0,0.9609375 -0.503906,1.59375 -1.277343,1.59375 -0.597657,0 -0.972657,-0.36328125 -0.972657,-0.9257813 v -3.328125 h -0.738281 v 3.6210938 c 0,0.78515625 0.574219,1.2890625 1.488281,1.2890625 0.691407,0 1.136719,-0.24609375 1.570313,-0.8671875 V -0.001 Z m 5.452149,-0.43359375 c -0.08203,0.0117188 -0.117188,0.0117188 -0.152344,0.0117188 -0.269531,0 -0.410156,-0.12890625 -0.410156,-0.36328125 v -2.7656251 c 0,-0.8320312 -0.609375,-1.2773437 -1.769531,-1.2773437 -0.679688,0 -1.242188,0.1875 -1.558594,0.5390625 -0.210938,0.2460937 -0.304688,0.515625 -0.316406,0.984375 h 0.75 c 0.05859,-0.5742188 0.398437,-0.8320313 1.101562,-0.8320313 0.667969,0 1.054688,0.2460938 1.054688,0.6914063 v 0.1992187 c 0,0.3164063 -0.1875,0.4453125 -0.785157,0.515625 -1.054687,0.140625 -1.21875,0.1757813 -1.5,0.2929688 -0.550781,0.2226562 -0.832031,0.6445312 -0.832031,1.2539062 0,0.8554688 0.597656,1.3945313 1.546875,1.3945313 0.585938,0 1.066406,-0.2109375 1.59375,-0.69140625 0.04687,0.46875 0.28125,0.69140625 0.773438,0.69140625 0.152343,0 0.269531,-0.0234375 0.503906,-0.0820313 z M 25.826102,-1.4775625 c 0,0.2460937 -0.08203,0.3984375 -0.304688,0.609375 -0.304687,0.28125 -0.667969,0.421875 -1.113281,0.421875 -0.574219,0 -0.914063,-0.28125 -0.914063,-0.7617188 0,-0.4921875 0.328125,-0.7382812 1.125,-0.8554687 0.785157,-0.1054688 0.949219,-0.140625 1.207032,-0.2578125 z m 2.853515,-5.0625 h -0.75 V -0.001 h 0.75 z m 0,0"
       style="fill:#000000;fill-opacity:1;fill-rule:nonzero;stroke:none"
       aria-label="Manual"
       transform="matrix(1.3333333,0,0,1.3333333,73.170667,199.50133)" />
    <path
       id="path10"
       d="m 57.81442,-13.7998 h 74.4449 v 56.69362 h -74.4449 z"
       style="fill:#d1e6f3;fill-opacity:1;fill-rule:nonzero;stroke:#000000;stroke-width:0.74721;stroke-linecap:butt;stroke-linejoin:miter;stroke-miterlimit:10;stroke-dasharray:none;stroke-opacity:1"
       transform="matrix(1.3333333,0,0,-1.3333333,54.417333,207.40133)" />
    <path
       id="path11"
       d="M 1.5465,-6.5391094 H 0.71446875 V -4.6875e-5 H 4.780875 V -0.73832813 H 1.5465 Z m 8.0332031,4.4414063 c 0,-0.7148438 -0.046875,-1.1484375 -0.1875,-1.5 -0.3046875,-0.7734375 -1.0195312,-1.2304688 -1.8984375,-1.2304688 -1.3007812,0 -2.1445312,0.9960938 -2.1445312,2.5429688 0,1.54687497 0.8085937,2.49609372 2.1328125,2.49609372 1.0664062,0 1.8164062,-0.609375 2.0039062,-1.64062502 h -0.75 c -0.2109375,0.62109377 -0.6328125,0.94921877 -1.2304687,0.94921877 -0.4804688,0 -0.8789063,-0.22265625 -1.125,-0.60937497 -0.1875,-0.2695313 -0.2460938,-0.5390625 -0.2578125,-1.0078125 z m -3.4335937,-0.609375 c 0.058594,-0.8671875 0.5859375,-1.4296875 1.3359375,-1.4296875 0.7382812,0 1.3007812,0.609375 1.3007812,1.3710937 0,0.023437 0,0.035156 0,0.058594 z M 12.257438,-4.6875e-5 14.062125,-4.6992656 h -0.84375 L 11.894156,-0.89067188 10.64025,-4.6992656 H 9.7965 L 11.437125,-4.6875e-5 Z M 18.553336,-2.0977031 c 0,-0.7148438 -0.04687,-1.1484375 -0.1875,-1.5 -0.304688,-0.7734375 -1.019531,-1.2304688 -1.898438,-1.2304688 -1.300781,0 -2.144531,0.9960938 -2.144531,2.5429688 0,1.54687497 0.808594,2.49609372 2.132813,2.49609372 1.066406,0 1.816406,-0.609375 2.003906,-1.64062502 h -0.75 c -0.210938,0.62109377 -0.632813,0.94921877 -1.230469,0.94921877 -0.480469,0 -0.878906,-0.22265625 -1.125,-0.60937497 -0.1875,-0.2695313 -0.246094,-0.5390625 -0.257812,-1.0078125 z m -3.433594,-0.609375 c 0.05859,-0.8671875 0.585938,-1.4296875 1.335938,-1.4296875 0.738281,0 1.300781,0.609375 1.300781,1.3710937 0,0.023437 0,0.035156 0,0.058594 z m 5.185547,-3.8320313 h -0.75 V -4.6875e-5 h 0.75 z m 5.443359,2.015625 V -4.6875e-5 h 0.785157 V -6.3516094 H 26.01818 c -0.28125,0.9726563 -0.457032,1.1015625 -1.675782,1.2539063 v 0.5742187 z m 0,0"
       style="fill:#000000;fill-opacity:1;fill-rule:nonzero;stroke:none"
       aria-label="Level1"
       transform="matrix(1.3333333,0,0,1.3333333,162.188,184.836)" />
    <path
       id="path12"
       d="m 1.6526094,-2.7647109 h 2.0507812 c 0.515625,0 0.9140625,-0.1523438 1.265625,-0.46875 0.3867188,-0.3632813 0.5625,-0.7851563 0.5625,-1.3828125 0,-1.2304688 -0.7265625,-1.921875 -2.015625,-1.921875 H 0.82057813 V 9.140625e-4 H 1.6526094 Z m 0,-0.7382813 v -2.296875 h 1.734375 c 0.796875,0 1.2773437,0.4335938 1.2773437,1.1484375 0,0.7148438 -0.4804687,1.1484375 -1.2773437,1.1484375 z m 8.4726566,1.40625 c 0,-0.7148437 -0.04687,-1.1484375 -0.1875004,-1.5 -0.3046875,-0.7734375 -1.0195312,-1.2304687 -1.8984375,-1.2304687 -1.3007812,0 -2.1445312,0.9960937 -2.1445312,2.5429687 0,1.54687501 0.8085937,2.49609376 2.1328125,2.49609376 1.0664062,0 1.8164062,-0.609375 2.0039066,-1.64062496 H 9.2815156 c -0.2109375,0.62109371 -0.6328125,0.94921871 -1.2304687,0.94921871 -0.4804688,0 -0.8789063,-0.22265625 -1.125,-0.60937501 -0.1875,-0.2695312 -0.2460938,-0.5390625 -0.2578125,-1.0078125 z m -3.4335941,-0.609375 c 0.058594,-0.8671875 0.5859375,-1.4296875 1.3359375,-1.4296875 0.7382812,0 1.3007812,0.609375 1.3007812,1.3710938 0,0.023437 0,0.035156 0,0.058594 z M 11.138938,-4.6983047 V 9.140625e-4 h 0.75 V -2.4365859 c 0,-0.6679688 0.175781,-1.1132813 0.527343,-1.3710938 0.234375,-0.1757812 0.457032,-0.2226562 0.984375,-0.234375 v -0.7617187 c -0.128906,-0.023437 -0.199218,-0.023437 -0.292968,-0.023437 -0.480469,0 -0.855469,0.28125 -1.277344,0.984375 v -0.8554688 z m 4.907226,1.8984375 h -2.132812 v 0.6445313 h 2.132812 z M 20.683859,9.140625e-4 22.523703,-5.4717422 V 9.140625e-4 h 0.785156 V -6.5381484 H 22.148703 L 20.250266,-0.84283594 18.316672,-6.5381484 H 17.156516 V 9.140625e-4 h 0.796875 V -5.4717422 L 19.804953,9.140625e-4 Z M 26.39675,-4.8272109 c -1.3125,0 -2.109375,0.9375 -2.109375,2.5195312 0,1.57031251 0.785156,2.51953126 2.121094,2.51953126 1.3125,0 2.121094,-0.94921875 2.121094,-2.48437496 0,-1.6289063 -0.773438,-2.5546875 -2.132813,-2.5546875 z m 0.01172,0.6914062 c 0.84375,0 1.347656,0.6796875 1.347656,1.8515625 0,1.1015625 -0.527344,1.80468751 -1.347656,1.80468751 -0.832031,0 -1.347656,-0.69140621 -1.347656,-1.82812501 0,-1.1367187 0.515625,-1.828125 1.347656,-1.828125 z m 6.975586,-2.4023437 h -0.75 v 2.4375 c -0.316407,-0.4804688 -0.808594,-0.7265625 -1.441407,-0.7265625 -1.21875,0 -2.015625,0.9726562 -2.015625,2.4726562 0,1.58203126 0.773438,2.56640626 2.039063,2.56640626 0.644531,0 1.101562,-0.24609375 1.5,-0.83203125 V 9.140625e-4 h 0.667969 z m -2.0625,2.4023437 c 0.808593,0 1.3125,0.7265625 1.3125,1.8398438 0,1.0898437 -0.515625,1.80468746 -1.3125,1.80468746 -0.820313,0 -1.371094,-0.72656246 -1.371094,-1.81640626 0,-1.1015625 0.550781,-1.828125 1.371094,-1.828125 z m 7.201172,2.0390625 c 0,-0.7148437 -0.04687,-1.1484375 -0.1875,-1.5 -0.304688,-0.7734375 -1.019532,-1.2304687 -1.898438,-1.2304687 -1.300781,0 -2.144531,0.9960937 -2.144531,2.5429687 0,1.54687501 0.808594,2.49609376 2.132812,2.49609376 1.066407,0 1.816407,-0.609375 2.003907,-1.64062496 h -0.75 c -0.210938,0.62109371 -0.632813,0.94921871 -1.230469,0.94921871 -0.480469,0 -0.878906,-0.22265625 -1.125,-0.60937501 -0.1875,-0.2695312 -0.246094,-0.5390625 -0.257813,-1.0078125 z m -3.433594,-0.609375 c 0.05859,-0.8671875 0.585937,-1.4296875 1.335937,-1.4296875 0.738282,0 1.300782,0.609375 1.300782,1.3710938 0,0.023437 0,0.035156 0,0.058594 z m 5.185547,-3.8320312 h -0.75 V 9.140625e-4 h 0.75 z m 9.043945,2.0273437 c -0.257812,-1.4296875 -1.078125,-2.1328125 -2.519531,-2.1328125 -0.878906,0 -1.582031,0.28125 -2.0625,0.8203125 -0.597656,0.6445313 -0.914063,1.5703125 -0.914063,2.6367188 0,1.0664062 0.328125,1.9921875 0.949219,2.63671871 0.503906,0.515625 1.148438,0.76171875 1.992188,0.76171875 1.605468,0 2.496093,-0.8671875 2.695312,-2.58984376 h -0.867187 c -0.07031,0.4453125 -0.152344,0.75 -0.292969,1.0078125 -0.269531,0.53906251 -0.820313,0.84375001 -1.523438,0.84375001 -1.300781,0 -2.121093,-1.04296871 -2.121093,-2.67187501 0,-1.6757812 0.785156,-2.7070312 2.050781,-2.7070312 0.527344,0 1.019531,0.1640625 1.289062,0.4101562 0.246094,0.2226563 0.375,0.5039063 0.480469,0.984375 z m 2.276367,-2.0273437 h -0.84375 V 9.140625e-4 h 0.84375 z m 2.809571,0 -2.121094,6.71484371 h 0.492187 L 54.89675,-6.5381484 Z m 6.37207,2.0273437 c -0.257813,-1.4296875 -1.078125,-2.1328125 -2.519531,-2.1328125 -0.878907,0 -1.582032,0.28125 -2.0625,0.8203125 -0.597657,0.6445313 -0.914063,1.5703125 -0.914063,2.6367188 0,1.0664062 0.328125,1.9921875 0.949219,2.63671871 0.503906,0.515625 1.148437,0.76171875 1.992187,0.76171875 1.605469,0 2.496094,-0.8671875 2.695313,-2.58984376 H 60.05007 c -0.07031,0.4453125 -0.152343,0.75 -0.292968,1.0078125 -0.269532,0.53906251 -0.820313,0.84375001 -1.523438,0.84375001 -1.300781,0 -2.121094,-1.04296871 -2.121094,-2.67187501 0,-1.6757812 0.785157,-2.7070312 2.050782,-2.7070312 0.527343,0 1.019531,0.1640625 1.289062,0.4101562 0.246094,0.2226563 0.375,0.5039063 0.480469,0.984375 z M 62.11843,9.140625e-4 h 2.519531 c 1.652344,0 2.660156,-1.2421874625 2.660156,-3.2695312625 0,-2.0273437 -0.996094,-3.2695312 -2.660156,-3.2695312 H 62.11843 Z M 62.950461,-0.73736719 V -5.7998672 h 1.546875 c 1.289062,0 1.96875,0.8671875 1.96875,2.5429688 0,1.640625 -0.679688,2.51953121 -1.96875,2.51953121 z m 0,0"
       style="fill:#000000;fill-opacity:1;fill-rule:nonzero;stroke:none"
       aria-label="Per-ModelCI/CD"
       transform="matrix(1.3333333,0,0,1.3333333,135.92933,199.448)" />
    <path
       id="path13"
       d="m 133.00655,-27.97322 h 58.91507 v 85.04044 h -58.91507 z"
       style="fill:#d1e6f3;fill-opacity:1;fill-rule:nonzero;stroke:#000000;stroke-width:0.74721;stroke-linecap:butt;stroke-linejoin:miter;stroke-miterlimit:10;stroke-dasharray:none;stroke-opacity:1"
       transform="matrix(1.3333333,0,0,-1.3333333,54.417333,207.40133)" />
    <path
       id="path14"
       d="M 1.5462578,-6.5396484 H 0.71422656 V -5.859375e-4 H 4.7806328 V -0.73886719 h -3.234375 z m 8.0332031,4.4414062 c 0,-0.7148437 -0.046875,-1.1484375 -0.1875,-1.5 -0.3046875,-0.7734375 -1.0195312,-1.2304687 -1.8984375,-1.2304687 -1.3007812,0 -2.1445312,0.9960937 -2.1445312,2.5429687 0,1.54687501 0.8085937,2.49609376 2.1328125,2.49609376 1.0664062,0 1.8164062,-0.609375 2.0039062,-1.64062496 h -0.75 c -0.2109375,0.62109371 -0.6328125,0.94921871 -1.2304687,0.94921871 -0.4804688,0 -0.8789063,-0.22265625 -1.125,-0.60937501 -0.1875,-0.2695312 -0.2460938,-0.5390625 -0.2578125,-1.0078125 z m -3.4335937,-0.609375 c 0.058594,-0.8671875 0.5859375,-1.4296875 1.3359375,-1.4296875 0.7382812,0 1.3007812,0.609375 1.3007812,1.3710938 0,0.023437 0,0.035156 0,0.058594 z M 12.257195,-5.859375e-4 14.061883,-4.6998047 h -0.84375 L 11.893914,-0.89121094 10.640008,-4.6998047 H 9.7962578 L 11.436883,-5.859375e-4 Z M 18.553094,-2.0982422 c 0,-0.7148437 -0.04687,-1.1484375 -0.1875,-1.5 -0.304688,-0.7734375 -1.019531,-1.2304687 -1.898438,-1.2304687 -1.300781,0 -2.144531,0.9960937 -2.144531,2.5429687 0,1.54687501 0.808594,2.49609376 2.132813,2.49609376 1.066406,0 1.816406,-0.609375 2.003906,-1.64062496 h -0.75 c -0.210938,0.62109371 -0.632813,0.94921871 -1.230469,0.94921871 -0.480469,0 -0.878906,-0.22265625 -1.125,-0.60937501 -0.1875,-0.2695312 -0.246094,-0.5390625 -0.257812,-1.0078125 z M 15.1195,-2.7076172 c 0.05859,-0.8671875 0.585938,-1.4296875 1.335938,-1.4296875 0.738281,0 1.300781,0.609375 1.300781,1.3710938 0,0.023437 0,0.035156 0,0.058594 z m 5.185547,-3.8320312 h -0.75 v 6.5390624625 h 0.75 z m 7.649414,5.75390621 h -3.339844 c 0.08203,-0.51562501 0.363281,-0.84375001 1.148438,-1.30078121 l 0.890625,-0.4921875 c 0.890625,-0.4804688 1.347656,-1.1367188 1.347656,-1.9101563 0,-0.5273437 -0.210938,-1.0195312 -0.597656,-1.3710937 -0.375,-0.3398438 -0.832032,-0.4921875 -1.441407,-0.4921875 -0.808593,0 -1.40625,0.28125 -1.757812,0.8203125 -0.222656,0.3398437 -0.316406,0.7382812 -0.339844,1.3828125 h 0.796875 c 0.02344,-0.4335938 0.07031,-0.6914063 0.1875,-0.9023438 0.199219,-0.3867187 0.609375,-0.609375 1.089844,-0.609375 0.714844,0 1.253906,0.5039063 1.253906,1.1835938 0,0.5039062 -0.292969,0.9375 -0.855469,1.2539062 l -0.832031,0.46875 c -1.324219,0.75 -1.710937,1.359375 -1.78125,2.7539062625 h 4.230469 z m 0,0"
       style="fill:#000000;fill-opacity:1;fill-rule:nonzero;stroke:none"
       aria-label="Level2"
       transform="matrix(1.3333333,0,0,1.3333333,252.09067,183.7)" />
    <path
       id="path15"
       d="m 1.6520391,-2.76525 h 2.0507812 c 0.515625,0 0.9140625,-0.1523438 1.265625,-0.46875 0.3867188,-0.3632813 0.5625,-0.7851563 0.5625,-1.3828125 0,-1.2304688 -0.7265625,-1.921875 -2.015625,-1.921875 H 0.82000781 V 3.75e-4 H 1.6520391 Z m 0,-0.7382813 v -2.296875 h 1.734375 c 0.796875,0 1.2773437,0.4335938 1.2773437,1.1484375 0,0.7148438 -0.4804687,1.1484375 -1.2773437,1.1484375 z m 5.6865234,-3.0351562 h -0.75 V 3.75e-4 h 0.75 z m 5.4257815,6.10546875 C 12.682312,-0.4215 12.647156,-0.4215 12.612,-0.4215 c -0.269531,0 -0.410156,-0.12890625 -0.410156,-0.36328125 V -3.5504063 c 0,-0.8320312 -0.609375,-1.2773437 -1.769532,-1.2773437 -0.679687,0 -1.242187,0.1875 -1.5585933,0.5390625 -0.2109375,0.2460937 -0.3046875,0.515625 -0.3164062,0.984375 h 0.75 c 0.058594,-0.5742188 0.3984375,-0.8320313 1.1015625,-0.8320313 0.667969,0 1.054687,0.2460938 1.054687,0.6914063 v 0.1992187 c 0,0.3164063 -0.1875,0.4453125 -0.785156,0.515625 -1.0546873,0.140625 -1.2187498,0.1757813 -1.4999998,0.2929688 -0.5507812,0.2226562 -0.8320312,0.6445312 -0.8320312,1.2539062 0,0.8554688 0.5976562,1.3945313 1.546875,1.3945313 0.585937,0 1.066406,-0.2109375 1.59375,-0.69140625 0.04687,0.46875 0.28125,0.69140625 0.773437,0.69140625 0.152344,0 0.269532,-0.0234375 0.503907,-0.0820313 z M 11.463562,-1.4761875 c 0,0.2460937 -0.08203,0.3984375 -0.304687,0.609375 -0.304688,0.28125 -0.667969,0.421875 -1.113281,0.421875 -0.574219,0 -0.9140628,-0.28125 -0.9140628,-0.7617188 0,-0.4921875 0.328125,-0.7382812 1.1249998,-0.8554687 0.785156,-0.1054688 0.949219,-0.140625 1.207031,-0.2578125 z m 3.767579,-3.2226563 h -0.761719 v -1.2890625 h -0.75 v 1.2890625 h -0.632813 v 0.609375 h 0.632813 v 3.5507813 c 0,0.48046875 0.328125,0.75 0.902344,0.75 0.1875,0 0.363281,-0.0234375 0.609375,-0.0703125 v -0.62109375 c -0.09375,0.0234375 -0.210938,0.0351563 -0.351563,0.0351563 -0.328125,0 -0.410156,-0.09375 -0.410156,-0.421875 V -4.0894688 h 0.761719 z m 2.52539,0 H 16.983094 V -5.437125 c 0,-0.3046875 0.175781,-0.46875 0.515625,-0.46875 0.07031,0 0.09375,0 0.257812,0.011719 V -6.51525 C 17.592469,-6.550406 17.487,-6.562125 17.334656,-6.562125 c -0.679687,0 -1.101562,0.3984375 -1.101562,1.0664062 v 0.796875 H 15.612 v 0.609375 h 0.621094 V 3.75e-4 h 0.75 v -4.0898438 h 0.773437 z M 20.10907,-4.82775 c -1.3125,0 -2.109375,0.9375 -2.109375,2.5195312 0,1.57031255 0.785157,2.5195313 2.121094,2.5195313 1.3125,0 2.121094,-0.94921875 2.121094,-2.484375 0,-1.6289063 -0.773438,-2.5546875 -2.132813,-2.5546875 z m 0.01172,0.6914062 c 0.84375,0 1.347656,0.6796875 1.347656,1.8515625 0,1.1015625 -0.527343,1.80468755 -1.347656,1.80468755 -0.832031,0 -1.347656,-0.69140625 -1.347656,-1.82812505 0,-1.1367187 0.515625,-1.828125 1.347656,-1.828125 z m 3.158203,-0.5625 V 3.75e-4 h 0.75 v -2.4375 c 0,-0.6679688 0.175781,-1.1132813 0.527344,-1.3710938 0.234375,-0.1757812 0.457031,-0.2226562 0.984375,-0.234375 v -0.7617187 c -0.128907,-0.023437 -0.19922,-0.023437 -0.29297,-0.023437 -0.480469,0 -0.855469,0.28125 -1.277344,0.984375 v -0.8554688 z m 3.222656,0 V 3.75e-4 h 0.75 V -2.95275 c 0,-0.6796875 0.492188,-1.21875 1.101563,-1.21875 0.550781,0 0.867187,0.3398437 0.867187,0.9375 V 3.75e-4 h 0.75 V -2.95275 c 0,-0.6796875 0.492188,-1.21875 1.101563,-1.21875 0.550781,0 0.878906,0.3398437 0.878906,0.9375 V 3.75e-4 h 0.75 v -3.5273438 c 0,-0.84375 -0.480469,-1.3007812 -1.359375,-1.3007812 -0.632812,0 -1.007812,0.1875 -1.453125,0.7148437 -0.269531,-0.5039062 -0.644531,-0.7148437 -1.253906,-0.7148437 -0.632813,0 -1.042969,0.234375 -1.453125,0.796875 v -0.6679688 z m 12.820313,-1.9453125 c -1.875,0 -3.152344,1.3828125 -3.152344,3.421875 0,2.0507813 1.277344,3.4335938 3.152344,3.4335938 0.796875,0 1.5,-0.24609375 2.027344,-0.69140625 0.714843,-0.60937505 1.136718,-1.61718755 1.136718,-2.68359375 0,-2.109375 -1.253906,-3.4804688 -3.164062,-3.4804688 z m 0,0.7382813 c 1.40625,0 2.320312,1.078125 2.320312,2.71875 0,1.5820312 -0.9375,2.66015625 -2.320312,2.66015625 -1.382813,0 -2.320313,-1.07812505 -2.320313,-2.69531255 0,-1.6054687 0.9375,-2.6835937 2.320313,-2.6835937 z m 3.963867,7.8632812 h 0.761719 v -2.4492187 c 0.386719,0.48046875 0.832031,0.703125 1.441406,0.703125 1.207031,0 2.003906,-0.984375 2.003906,-2.484375 0,-1.5703125 -0.773437,-2.5546875 -2.015625,-2.5546875 -0.632812,0 -1.148437,0.28125 -1.5,0.84375 v -0.7148438 h -0.691406 z m 2.0625,-6.09375 c 0.832031,0 1.371094,0.7265625 1.371094,1.8515625 0,1.0664063 -0.550781,1.7929688 -1.371094,1.7929688 -0.785156,0 -1.300781,-0.7148438 -1.300781,-1.8164063 0,-1.1015625 0.515625,-1.828125 1.300781,-1.828125 z m 6.369141,0.75 C 51.70575,-4.312125 51.096375,-4.82775 50.01825,-4.82775 c -1.101563,0 -1.804688,0.5625 -1.804688,1.4296875 0,0.7382812 0.375,1.0898437 1.488282,1.359375 l 0.703125,0.1640625 c 0.515625,0.1289062 0.726562,0.3164062 0.726562,0.65625 0,0.43359375 -0.445312,0.73828125 -1.101562,0.73828125 -0.398438,0 -0.738282,-0.1171875 -0.925782,-0.31640625 C 48.987,-0.937125 48.928406,-1.0660313 48.881531,-1.3941563 h -0.785156 c 0.03516,1.07812505 0.644531,1.6054688 1.875,1.6054688 1.183594,0 1.933594,-0.5859375 1.933594,-1.4882813 0,-0.703125 -0.398438,-1.0898437 -1.324219,-1.3125 L 49.865906,-2.76525 c -0.609375,-0.140625 -0.867187,-0.3398438 -0.867187,-0.6679688 0,-0.4335937 0.375,-0.703125 0.984375,-0.703125 0.609375,0 0.925781,0.2578125 0.949218,0.75 z m 0,0"
       style="fill:#000000;fill-opacity:1;fill-rule:nonzero;stroke:none"
       aria-label="PlatformOps"
       transform="matrix(1.3333333,0,0,1.3333333,236.184,198.312)" />
    <path
       id="path16"
       d="m 192.66884,-42.14662 h 66.70679 V 71.24065 h -66.70679 z"
       style="fill:#d1e6f3;fill-opacity:1;fill-rule:nonzero;stroke:#000000;stroke-width:0.74721;stroke-linecap:butt;stroke-linejoin:miter;stroke-miterlimit:10;stroke-dasharray:none;stroke-opacity:1"
       transform="matrix(1.3333333,0,0,-1.3333333,54.417333,207.40133)" />
    <path
       id="path17"
       d="M 1.5458984,-6.5396484 H 0.71386719 V -5.859375e-4 H 4.7802734 V -0.73886719 h -3.234375 z m 8.0332032,4.4414062 c 0,-0.7148437 -0.046875,-1.1484375 -0.1875,-1.5 -0.3046875,-0.7734375 -1.0195313,-1.2304687 -1.8984375,-1.2304687 -1.3007813,0 -2.1445313,0.9960937 -2.1445313,2.5429687 0,1.54687501 0.8085938,2.49609376 2.1328125,2.49609376 1.0664063,0 1.8164063,-0.609375 2.0039063,-1.64062496 h -0.75 c -0.2109375,0.62109371 -0.6328125,0.94921871 -1.2304688,0.94921871 -0.4804687,0 -0.8789062,-0.22265625 -1.125,-0.60937501 -0.1875,-0.2695312 -0.2460937,-0.5390625 -0.2578125,-1.0078125 z m -3.4335938,-0.609375 c 0.058594,-0.8671875 0.5859375,-1.4296875 1.3359375,-1.4296875 0.7382813,0 1.3007813,0.609375 1.3007813,1.3710938 0,0.023437 0,0.035156 0,0.058594 z M 12.256836,-5.859375e-4 14.061523,-4.6998047 h -0.84375 L 11.893555,-0.89121094 10.639648,-4.6998047 H 9.7958984 L 11.436523,-5.859375e-4 Z M 18.555664,-2.0982422 c 0,-0.7148437 -0.04687,-1.1484375 -0.1875,-1.5 -0.304687,-0.7734375 -1.019531,-1.2304687 -1.898437,-1.2304687 -1.300782,0 -2.144532,0.9960937 -2.144532,2.5429687 0,1.54687501 0.808594,2.49609376 2.132813,2.49609376 1.066406,0 1.816406,-0.609375 2.003906,-1.64062496 h -0.75 c -0.210937,0.62109371 -0.632812,0.94921871 -1.230469,0.94921871 -0.480468,0 -0.878906,-0.22265625 -1.125,-0.60937501 -0.1875,-0.2695312 -0.246093,-0.5390625 -0.257812,-1.0078125 z m -3.433594,-0.609375 c 0.05859,-0.8671875 0.585938,-1.4296875 1.335938,-1.4296875 0.738281,0 1.300781,0.609375 1.300781,1.3710938 0,0.023437 0,0.035156 0,0.058594 z m 5.182617,-3.8320312 h -0.75 v 6.5390624625 h 0.75 z m 5.103516,3.6210937 h 0.433594 c 0.867187,0 1.3125,0.3867188 1.3125,1.1484375 0,0.79687501 -0.492188,1.27734376 -1.3125,1.27734376 -0.867188,0 -1.289063,-0.43359375 -1.335938,-1.35937496 h -0.796875 c 0.04687,0.515625 0.128907,0.84375 0.28125,1.13671871 0.328125,0.609375 0.949219,0.92578125 1.816407,0.92578125 1.3125,0 2.15625,-0.78515625 2.15625,-1.98046876 0,-0.8085937 -0.316407,-1.265625 -1.078125,-1.5234375 0.597656,-0.234375 0.890625,-0.6796875 0.890625,-1.3125 0,-1.1015625 -0.726563,-1.7460937 -1.933594,-1.7460937 -1.289063,0 -1.96875,0.6914062 -1.992188,2.0507812 h 0.785157 c 0.01172,-0.3867187 0.04687,-0.5976562 0.152343,-0.796875 0.175782,-0.3515625 0.5625,-0.5625 1.066407,-0.5625 0.691406,0 1.113281,0.4101563 1.113281,1.078125 0,0.4453125 -0.164063,0.7148438 -0.503906,0.8671875 -0.222657,0.082031 -0.503907,0.1171875 -1.054688,0.1289063 z m 0,0"
       style="fill:#000000;fill-opacity:1;fill-rule:nonzero;stroke:none"
       aria-label="Level3"
       transform="matrix(1.3333333,0,0,1.3333333,336.83333,183.7)" />
    <path
       id="path18"
       d="m 1.6414062,-2.9761875 h 3.5625 v -0.7382813 h -3.5625 V -5.8004063 H 5.3328125 V -6.5386875 H 0.809375 V 3.75e-4 h 4.6875 V -0.73790625 H 1.6414062 Z M 6.6130859,-4.6988438 V 3.75e-4 h 0.75 v -2.5898438 c 0,-0.9609375 0.5039063,-1.5820312 1.265625,-1.5820312 0.5976563,0 0.9726563,0.3515625 0.9726563,0.9140625 V 3.75e-4 h 0.7499998 v -3.5507813 c 0,-0.7734375 -0.5859373,-1.2773437 -1.4882811,-1.2773437 -0.703125,0 -1.1484375,0.2695312 -1.5703125,0.9140625 v -0.7851563 z m 6.6269531,0 H 12.47832 v -1.2890625 h -0.75 v 1.2890625 h -0.632812 v 0.609375 h 0.632812 v 3.5507813 c 0,0.48046875 0.328125,0.75 0.902344,0.75 0.1875,0 0.363281,-0.0234375 0.609375,-0.0703125 v -0.62109375 c -0.09375,0.0234375 -0.210937,0.0351563 -0.351562,0.0351563 -0.328125,0 -0.410157,-0.09375 -0.410157,-0.421875 V -4.0894687 h 0.761719 z m 4.813477,2.6015625 c 0,-0.7148437 -0.04687,-1.1484375 -0.1875,-1.5 -0.304688,-0.7734375 -1.019532,-1.2304687 -1.898438,-1.2304687 -1.300781,0 -2.144531,0.9960937 -2.144531,2.5429687 0,1.54687505 0.808594,2.4960938 2.132812,2.4960938 1.066407,0 1.816407,-0.609375 2.003907,-1.640625 h -0.75 c -0.210938,0.62109375 -0.632813,0.94921875 -1.230469,0.94921875 -0.480469,0 -0.878906,-0.22265625 -1.125,-0.60937505 -0.1875,-0.2695312 -0.246094,-0.5390625 -0.257813,-1.0078125 z m -3.433594,-0.609375 c 0.05859,-0.8671875 0.585937,-1.4296875 1.335937,-1.4296875 0.738282,0 1.300782,0.609375 1.300782,1.3710938 0,0.023437 0,0.035156 0,0.058594 z m 4.444336,-1.9921875 V 3.75e-4 h 0.75 v -2.4375 c 0,-0.6679688 0.175781,-1.1132813 0.527344,-1.3710938 0.234375,-0.1757812 0.457031,-0.2226562 0.984375,-0.234375 V -4.8043125 C 21.19707,-4.82775 21.126758,-4.82775 21.033008,-4.82775 c -0.480469,0 -0.855469,0.28125 -1.277344,0.984375 v -0.8554688 z m 3.105469,6.65625 h 0.761718 v -2.4492187 c 0.386719,0.48046875 0.832032,0.703125 1.441407,0.703125 1.207031,0 2.003906,-0.984375 2.003906,-2.484375 0,-1.5703125 -0.773438,-2.5546875 -2.015625,-2.5546875 -0.632813,0 -1.148438,0.28125 -1.5,0.84375 v -0.7148438 h -0.691406 z m 2.0625,-6.09375 c 0.832031,0 1.371093,0.7265625 1.371093,1.8515625 0,1.0664063 -0.550781,1.7929688 -1.371093,1.7929688 -0.785157,0 -1.300782,-0.7148438 -1.300782,-1.8164063 0,-1.1015625 0.515625,-1.828125 1.300782,-1.828125 z m 3.064453,-0.5625 V 3.75e-4 h 0.75 v -2.4375 c 0,-0.6679688 0.175781,-1.1132813 0.527343,-1.3710938 0.234375,-0.1757812 0.457032,-0.2226562 0.984375,-0.234375 V -4.8043125 C 29.429492,-4.82775 29.35918,-4.82775 29.26543,-4.82775 c -0.480469,0 -0.855469,0.28125 -1.277344,0.984375 v -0.8554688 z m 3.846679,0 h -0.75 V 3.75e-4 h 0.75 z m 0,-1.8398437 h -0.761718 v 0.9492187 h 0.761718 z m 4.567383,3.1523437 C 35.699023,-4.312125 35.089648,-4.82775 34.011523,-4.82775 c -1.101562,0 -1.804687,0.5625 -1.804687,1.4296875 0,0.7382812 0.375,1.0898437 1.488281,1.359375 l 0.703125,0.1640625 c 0.515625,0.1289062 0.726563,0.3164062 0.726563,0.65625 0,0.43359375 -0.445313,0.73828125 -1.101563,0.73828125 -0.398437,0 -0.738281,-0.1171875 -0.925781,-0.31640625 -0.117188,-0.140625 -0.175781,-0.2695313 -0.222656,-0.5976563 h -0.785157 c 0.03516,1.07812505 0.644532,1.6054688 1.875,1.6054688 1.183594,0 1.933594,-0.5859375 1.933594,-1.4882813 0,-0.703125 -0.398437,-1.0898437 -1.324219,-1.3125 L 33.85918,-2.76525 c -0.609375,-0.140625 -0.867188,-0.3398438 -0.867188,-0.6679688 0,-0.4335937 0.375,-0.703125 0.984375,-0.703125 0.609375,0 0.925781,0.2578125 0.949219,0.75 z m 5.15332,1.2890625 c 0,-0.7148437 -0.04687,-1.1484375 -0.1875,-1.5 -0.304687,-0.7734375 -1.019531,-1.2304687 -1.898437,-1.2304687 -1.300781,0 -2.144531,0.9960937 -2.144531,2.5429687 0,1.54687505 0.808593,2.4960938 2.132812,2.4960938 1.066406,0 1.816406,-0.609375 2.003906,-1.640625 h -0.75 c -0.210937,0.62109375 -0.632812,0.94921875 -1.230468,0.94921875 -0.480469,0 -0.878907,-0.22265625 -1.125,-0.60937505 C 37.477344,-1.359 37.41875,-1.6285313 37.407031,-2.0972813 Z m -3.433593,-0.609375 c 0.05859,-0.8671875 0.585937,-1.4296875 1.335937,-1.4296875 0.738281,0 1.300781,0.609375 1.300781,1.3710938 0,0.023437 0,0.035156 0,0.058594 z m 12.667968,-0.75 h -2.71875 v 0.7382813 h 1.992188 v 0.1875 c 0,1.1601562 -0.867188,2.00390625 -2.0625,2.00390625 -0.65625,0 -1.253906,-0.24609375 -1.640625,-0.66796875 -0.433594,-0.46875 -0.691406,-1.2421875 -0.691406,-2.0507813 0,-1.6054687 0.914062,-2.6601562 2.296875,-2.6601562 0.996093,0 1.710937,0.5039062 1.886718,1.3476562 h 0.855469 c -0.234375,-1.3242187 -1.242187,-2.0859375 -2.742187,-2.0859375 -0.796875,0 -1.441407,0.2109375 -1.945313,0.6328125 -0.761719,0.6210938 -1.183594,1.640625 -1.183594,2.8125 0,2.0039063 1.21875,3.4101563 2.988282,3.4101563 0.890625,0 1.59375,-0.33984375 2.238281,-1.04296875 l 0.199219,0.8671875 h 0.527343 z M 53.159961,-4.82775 c -1.3125,0 -2.109375,0.9375 -2.109375,2.5195312 0,1.57031255 0.785156,2.5195313 2.121094,2.5195313 1.3125,0 2.121093,-0.94921875 2.121093,-2.484375 0,-1.6289063 -0.773437,-2.5546875 -2.132812,-2.5546875 z m 0.01172,0.6914062 c 0.84375,0 1.347656,0.6796875 1.347656,1.8515625 0,1.1015625 -0.527344,1.80468755 -1.347656,1.80468755 -0.832032,0 -1.347657,-0.69140625 -1.347657,-1.82812505 0,-1.1367187 0.515625,-1.828125 1.347657,-1.828125 z M 58.1375,3.75e-4 59.942187,-4.6988438 h -0.84375 L 57.774219,-0.89025 56.520312,-4.6988438 h -0.84375 L 57.317187,3.75e-4 Z m 0,0"
       style="fill:#000000;fill-opacity:1;fill-rule:nonzero;stroke:none"
       aria-label="EnterpriseGov"
       transform="matrix(1.3333333,0,0,1.3333333,315.73333,198.312)" />
    <path
       id="path19"
       d="M 3.2923594,-6.796875e-4 V -0.24677344 H 3.0345469 c -0.703125,0 -0.703125,-0.09375 -0.703125,-0.328125 V -4.4303672 c 0,-0.1875 -0.011719,-0.1992187 -0.2109375,-0.1992187 -0.4453125,0.4335937 -1.078125,0.4453125 -1.35937502,0.4453125 v 0.2460937 c 0.1640625,0 0.62109372,0 1.00781252,-0.1875 v 3.55078126 c 0,0.234375 0,0.328125 -0.6914063,0.328125 H 0.80798438 V -6.796875e-4 L 2.0501719,-0.02411719 Z M 6.1605234,-1.2663047 v -0.46875 H 4.1097422 v 0.46875 z m 4.0078126,0 H 9.9339609 c -0.023437,0.1523438 -0.082031,0.56250001 -0.1757812,0.63281251 -0.058594,0.0351563 -0.5976563,0.0351563 -0.6914063,0.0351563 H 7.7777109 c 0.7382813,-0.64453121 0.984375,-0.84374991 1.3945313,-1.17187491 0.515625,-0.4101564 0.9960938,-0.84375 0.9960938,-1.5 0,-0.84375 -0.7382813,-1.359375 -1.6289063,-1.359375 -0.8671875,0 -1.453125,0.609375 -1.453125,1.2421875 0,0.3632811 0.3046875,0.3984374 0.375,0.3984374 0.1640625,0 0.375,-0.1171874 0.375,-0.3749999 0,-0.1289064 -0.058594,-0.3632814 -0.421875,-0.3632814 0.2226562,-0.5039061 0.6914062,-0.65625 1.0195312,-0.65625 0.703125,0 1.0664063,0.5507813 1.0664063,1.1132813 0,0.609375 -0.4335938,1.0898437 -0.65625,1.3359375 l -1.6875,1.66406251 c -0.070312,0.0585938 -0.070312,0.0703125 -0.070312,0.2695312525 h 2.8828125 z m 9.864258,1.2656250125 V -0.24677344 h -0.164063 c -0.539062,0 -0.550781,-0.0703125 -0.550781,-0.31640625 V -4.1959922 c 0,-0.234375 0.01172,-0.3164062 0.550781,-0.3164062 h 0.164063 v -0.2460938 h -1.207031 c -0.140625,0 -0.210938,0 -0.257813,0.140625 l -1.675781,3.94921876 -1.664063,-3.93749996 c -0.07031,-0.1523438 -0.117187,-0.1523438 -0.269531,-0.1523438 h -1.21875 v 0.2460938 h 0.164063 c 0.539062,0 0.550781,0.070312 0.550781,0.3164062 v 3.44531251 c 0,0.1875 0,0.50390625 -0.714844,0.50390625 v 0.2460937525 c 0.28125,-0.0234375025 0.5625,-0.0234375025 0.84375,-0.0234375025 0.292969,0 0.574219,0 0.855469,0.0234375025 V -0.24677344 c -0.714844,0 -0.714844,-0.31640625 -0.714844,-0.50390625 V -4.4303672 l 1.816406,4.26562501 c 0.03516,0.08203125 0.07031,0.1640625025 0.175782,0.1640625025 0.04687,0 0.105468,-0.0234375025 0.164062,-0.1406250025 l 1.839844,-4.35937501 h 0.01172 v 3.93750001 c 0,0.234375 -0.01172,0.31640625 -0.550782,0.31640625 H 18.016969 V -6.796875e-4 L 19.024781,-0.02411719 Z M 24.166383,-1.4889609 c 0,-0.8671875 -0.75,-1.6171875 -1.710938,-1.6171875 -0.960937,0 -1.710937,0.75 -1.710937,1.6171875 0,0.86718746 0.773437,1.55859371 1.710937,1.55859371 0.9375,0 1.710938,-0.69140625 1.710938,-1.55859371 z m -0.632813,-0.058594 c 0,0.328125 -0.02344,0.70312501 -0.222656,0.98437501 -0.1875,0.26953125 -0.515625,0.41015625 -0.855469,0.41015625 -0.257812,0 -0.632812,-0.0820313 -0.867187,-0.421875 -0.1875,-0.29296875 -0.210938,-0.65624996 -0.210938,-0.97265626 0,-0.3046875 0.01172,-0.7148437 0.257813,-1.0078125 0.175781,-0.2109375 0.46875,-0.3632812 0.820312,-0.3632812 0.410157,0 0.703125,0.1992187 0.855469,0.4101562 0.199219,0.28125 0.222656,0.6210938 0.222656,0.9609375 z m 5.179688,1.5468750125 V -0.24677344 c -0.46875,0 -0.527344,-0.0585938 -0.527344,-0.3984375 V -4.8405234 l -1.042969,0.082031 v 0.2460938 c 0.46875,0 0.515625,0.046875 0.515625,0.3867187 v 1.453125 c -0.257812,-0.2578125 -0.585937,-0.3984375 -0.972656,-0.3984375 -0.925781,0 -1.710937,0.6914063 -1.710937,1.5703125 0,0.86718751 0.738281,1.57031251 1.628906,1.57031251 0.574219,0 0.914062,-0.3046875 1.03125,-0.43359375 V 0.06963281 Z M 27.635133,-0.72724219 c -0.175781,0.31640625 -0.539063,0.59765625 -0.984375,0.59765625 -0.398438,0 -0.679688,-0.22265625 -0.808594,-0.43359375 -0.140625,-0.19921875 -0.222656,-0.48046871 -0.222656,-0.92578121 0,-0.1640625 0,-0.6914063 0.28125,-1.0195313 0.28125,-0.3046875 0.621094,-0.375 0.820312,-0.375 0.339844,0 0.632813,0.1523438 0.832032,0.4101563 0.08203,0.1054687 0.08203,0.1171875 0.08203,0.2460937 z m 4.68164,-0.10546875 c 0,-0.0351563 -0.01172,-0.10546875 -0.117187,-0.10546875 -0.08203,0 -0.105469,0.046875 -0.117188,0.1171875 -0.222656,0.5625 -0.75,0.66796875 -0.996093,0.66796875 -0.328125,0 -0.644532,-0.15234375 -0.855469,-0.41015625 -0.257813,-0.328125 -0.269531,-0.75000001 -0.269531,-1.03125001 h 2.167968 c 0.140625,0 0.1875,0 0.1875,-0.1523437 0,-0.609375 -0.339843,-1.359375 -1.371093,-1.359375 -0.914063,0 -1.617188,0.7265625 -1.617188,1.5820312 0,0.87890626 0.773438,1.59375001 1.699219,1.59375001 0.949219,0 1.289062,-0.75 1.289062,-0.90234375 z M 31.836305,-1.7702109 h -1.863282 c 0.07031,-0.984375 0.703125,-1.1484375 0.972657,-1.1484375 0.855468,0 0.878906,0.9726562 0.890625,1.1484375 z m 2.724609,1.7695312125 V -0.24677344 c -0.445312,0 -0.515625,0 -0.515625,-0.3046875 V -4.8405234 l -1.054687,0.082031 v 0.2460938 c 0.46875,0 0.527343,0.046875 0.527343,0.3867187 v 3.57421876 c 0,0.3046875 -0.07031,0.3046875 -0.527343,0.3046875 v 0.2460937525 c 0,0 0.503906,-0.0234375025 0.785156,-0.0234375025 0.269531,0 0.527344,0 0.785156,0.0234377025 z M 37.68982,-0.91474219 c 0,-0.26953121 -0.117187,-0.46875001 -0.292968,-0.64453121 -0.269532,-0.2460938 -0.585938,-0.2929688 -0.832032,-0.3398438 -0.5625,-0.09375 -1.007812,-0.1757812 -1.007812,-0.5507812 0,-0.2226563 0.1875,-0.4921875 0.84375,-0.4921875 0.808594,0 0.84375,0.5625 0.855469,0.7617187 0.01172,0.082031 0.09375,0.082031 0.117187,0.082031 0.128906,0 0.128906,-0.046875 0.128906,-0.1875 v -0.6445313 c 0,-0.1171875 0,-0.1757812 -0.105468,-0.1757812 -0.03516,0 -0.04687,0 -0.140625,0.082031 -0.01172,0 -0.08203,0.070312 -0.117188,0.1054688 -0.210937,-0.1523438 -0.480469,-0.1875 -0.738281,-0.1875 -0.996094,0 -1.230469,0.515625 -1.230469,0.8671875 0,0.2226562 0.09375,0.4101562 0.257813,0.5390625 0.269531,0.234375 0.539062,0.28125 0.960937,0.3515625 0.351563,0.070312 0.914063,0.1640625 0.914063,0.63281246 0,0.26953125 -0.1875,0.5859375 -0.855469,0.5859375 -0.667969,0 -0.914063,-0.43359375 -1.03125,-0.91406246 -0.02344,-0.082031 -0.03516,-0.1171875 -0.128906,-0.1171875 -0.117188,0 -0.117188,0.046875 -0.117188,0.18749996 v 0.85546875 c 0,0.12890625 0,0.1875 0.09375,0.1875 0.05859,0 0.199219,-0.15234375 0.339844,-0.3046875 0.304687,0.29296875 0.679687,0.3046875 0.84375,0.3046875 0.914062,0 1.242187,-0.4921875 1.242187,-0.9843745 z m 0,0"
       style="fill:#666666;fill-opacity:1;fill-rule:nonzero;stroke:none"
       aria-label="1-2Models"
       transform="matrix(1.3333333,0,0,1.3333333,67.368,226.372)" />
    <path
       id="path20"
       d="M 3.2920391,1.484375e-4 V -0.24594531 H 3.0342266 c -0.703125,0 -0.703125,-0.09375 -0.703125,-0.328125 V -4.4295391 c 0,-0.1875 -0.011719,-0.1992187 -0.2109375,-0.1992187 -0.4453125,0.4335937 -1.078125,0.4453125 -1.35937504,0.4453125 v 0.2460937 c 0.1640625,0 0.62109374,0 1.00781254,-0.1875 v 3.55078129 c 0,0.234375 0,0.328125 -0.6914063,0.328125 H 0.80766406 V 1.484375e-4 L 2.0498516,-0.02328906 Z M 7.5664531,-2.2264141 c 0,-0.7617187 -0.09375,-1.3125 -0.4101562,-1.8046875 -0.2226563,-0.3164062 -0.6445313,-0.5976562 -1.2070313,-0.5976562 -1.6171875,0 -1.6171875,1.8984375 -1.6171875,2.4023437 0,0.5039063 0,2.36718754 1.6171875,2.36718754 1.6171875,0 1.6171875,-1.86328124 1.6171875,-2.36718754 z m -0.6328125,-0.09375 c 0,0.515625 0,1.0429688 -0.09375,1.47656254 -0.140625,0.6328125 -0.609375,0.78515625 -0.890625,0.78515625 -0.3164062,0 -0.75,-0.1875 -0.890625,-0.76171875 -0.09375,-0.41015624 -0.09375,-0.98437504 -0.09375,-1.50000004 0,-0.5039062 0,-1.03125 0.1054688,-1.4179687 0.1523437,-0.5507813 0.5976562,-0.6914063 0.8789062,-0.6914063 0.375,0 0.7382813,0.2226563 0.8671875,0.6328125 0.1054688,0.375 0.1171875,0.8789063 0.1171875,1.4765625 z M 10.127,-1.2654766 v -0.46875 H 8.0762188 v 0.46875 z m 4.010742,0 h -0.234375 c -0.02344,0.1523438 -0.08203,0.56250004 -0.175781,0.63281254 -0.05859,0.0351563 -0.597656,0.0351563 -0.691406,0.0351563 h -1.289063 c 0.738281,-0.64453124 0.984375,-0.84374994 1.394531,-1.17187494 0.515625,-0.4101564 0.996094,-0.8437501 0.996094,-1.5000001 0,-0.8437499 -0.738281,-1.3593749 -1.628906,-1.3593749 -0.867188,0 -1.453125,0.609375 -1.453125,1.2421874 0,0.3632812 0.304687,0.3984375 0.375,0.3984375 0.164062,0 0.375,-0.1171875 0.375,-0.375 0,-0.1289063 -0.05859,-0.3632813 -0.421875,-0.3632813 0.222656,-0.5039061 0.691406,-0.65625 1.019531,-0.65625 0.703125,0 1.066406,0.5507813 1.066406,1.1132813 0,0.609375 -0.433593,1.0898437 -0.65625,1.3359375 l -1.6875,1.66406254 c -0.07031,0.0585937 -0.07031,0.0703125 -0.07031,0.2695312475 h 2.882812 z m 4.048828,-0.9609375 c 0,-0.7617187 -0.09375,-1.3125 -0.410156,-1.8046875 -0.222656,-0.3164062 -0.644531,-0.5976562 -1.207031,-0.5976562 -1.617188,0 -1.617188,1.8984375 -1.617188,2.4023437 0,0.5039063 0,2.36718754 1.617188,2.36718754 1.617187,0 1.617187,-1.86328124 1.617187,-2.36718754 z m -0.632812,-0.09375 c 0,0.515625 0,1.0429688 -0.09375,1.47656254 -0.140625,0.6328125 -0.609375,0.78515625 -0.890625,0.78515625 -0.316406,0 -0.75,-0.1875 -0.890625,-0.76171875 -0.09375,-0.41015624 -0.09375,-0.98437504 -0.09375,-1.50000004 0,-0.5039062 0,-1.03125 0.105469,-1.4179687 0.152343,-0.5507813 0.597656,-0.6914063 0.878906,-0.6914063 0.375,0 0.738281,0.2226563 0.867187,0.6328125 0.105469,0.375 0.117188,0.8789063 0.117188,1.4765625 z M 27.968797,1.484375e-4 V -0.24594531 h -0.164063 c -0.539062,0 -0.550781,-0.0703125 -0.550781,-0.31640625 V -4.1951641 c 0,-0.234375 0.01172,-0.3164062 0.550781,-0.3164062 h 0.164063 v -0.2460938 h -1.207031 c -0.140625,0 -0.210938,0 -0.257813,0.140625 l -1.675781,3.94921879 -1.664063,-3.93749999 c -0.07031,-0.1523438 -0.117187,-0.1523438 -0.269531,-0.1523438 h -1.21875 v 0.2460938 h 0.164063 c 0.539062,0 0.550781,0.070312 0.550781,0.3164062 v 3.44531254 c 0,0.1875 0,0.50390625 -0.714844,0.50390625 V 1.484375e-4 c 0.28125,-0.0234374975 0.5625,-0.0234374975 0.84375,-0.0234374975 0.292969,0 0.574219,0 0.855469,0.0234374975 V -0.24594531 c -0.714844,0 -0.714844,-0.31640625 -0.714844,-0.50390625 V -4.4295391 l 1.816406,4.26562504 c 0.03516,0.08203125 0.07031,0.1640624975 0.175782,0.1640624975 0.04687,0 0.105468,-0.0234374975 0.164062,-0.1406249975 l 1.839844,-4.35937504 h 0.01172 v 3.93750004 c 0,0.234375 -0.01172,0.31640625 -0.550782,0.31640625 H 25.953172 V 1.484375e-4 L 26.960984,-0.02328906 Z M 32.102586,-1.4881328 c 0,-0.8671875 -0.75,-1.6171875 -1.710938,-1.6171875 -0.960937,0 -1.710937,0.75 -1.710937,1.6171875 0,0.86718749 0.773437,1.55859374 1.710937,1.55859374 0.9375,0 1.710938,-0.69140625 1.710938,-1.55859374 z m -0.632813,-0.058594 c 0,0.328125 -0.02344,0.70312504 -0.222656,0.98437504 -0.1875,0.26953125 -0.515625,0.41015625 -0.855469,0.41015625 -0.257812,0 -0.632812,-0.0820313 -0.867187,-0.421875 -0.1875,-0.29296875 -0.210938,-0.65624999 -0.210938,-0.97265629 0,-0.3046875 0.01172,-0.7148437 0.257813,-1.0078125 0.175781,-0.2109375 0.46875,-0.3632812 0.820312,-0.3632812 0.410157,0 0.703125,0.1992187 0.855469,0.4101562 0.199219,0.28125 0.222656,0.6210938 0.222656,0.9609375 z M 36.649461,1.484375e-4 V -0.24594531 c -0.46875,0 -0.527344,-0.0585937 -0.527344,-0.3984375 V -4.8396953 l -1.042969,0.082031 v 0.2460938 c 0.46875,0 0.515625,0.046875 0.515625,0.3867187 v 1.453125 c -0.257812,-0.2578125 -0.585937,-0.3984375 -0.972656,-0.3984375 -0.925781,0 -1.710937,0.6914063 -1.710937,1.5703125 0,0.86718754 0.738281,1.57031254 1.628906,1.57031254 0.574219,0 0.914062,-0.3046875 1.03125,-0.43359375 V 0.07046094 Z M 35.571336,-0.72641406 c -0.175781,0.31640625 -0.539063,0.59765625 -0.984375,0.59765625 -0.398438,0 -0.679688,-0.22265625 -0.808594,-0.43359375 -0.140625,-0.19921875 -0.222656,-0.48046874 -0.222656,-0.92578124 0,-0.1640625 0,-0.6914063 0.28125,-1.0195313 0.28125,-0.3046875 0.621094,-0.375 0.820312,-0.375 0.339844,0 0.632813,0.1523438 0.832032,0.4101563 0.08203,0.1054687 0.08203,0.1171875 0.08203,0.2460937 z m 4.681641,-0.10546875 c 0,-0.0351563 -0.01172,-0.10546875 -0.117188,-0.10546875 -0.08203,0 -0.105469,0.046875 -0.117187,0.1171875 -0.222657,0.5625 -0.75,0.66796875 -0.996094,0.66796875 -0.328125,0 -0.644531,-0.15234375 -0.855469,-0.41015625 -0.257812,-0.328125 -0.269531,-0.75000004 -0.269531,-1.03125004 h 2.167969 c 0.140625,0 0.1875,0 0.1875,-0.1523437 0,-0.609375 -0.339844,-1.359375 -1.371094,-1.359375 -0.914063,0 -1.617188,0.7265625 -1.617188,1.5820312 0,0.87890629 0.773438,1.59375004 1.699219,1.59375004 0.949219,0 1.289063,-0.75 1.289063,-0.90234375 z M 39.772508,-1.7693828 h -1.863281 c 0.07031,-0.984375 0.703125,-1.1484375 0.972656,-1.1484375 0.855469,0 0.878906,0.9726562 0.890625,1.1484375 z M 42.497117,1.484375e-4 V -0.24594531 c -0.445312,0 -0.515625,0 -0.515625,-0.3046875 V -4.8396953 l -1.054687,0.082031 v 0.2460938 c 0.46875,0 0.527343,0.046875 0.527343,0.3867187 v 3.57421879 c 0,0.3046875 -0.07031,0.3046875 -0.527343,0.3046875 V 1.484375e-4 c 0,0 0.503906,-0.0234374975 0.785156,-0.0234374975 0.269531,0 0.527344,0 0.785156,0.0234374975 z M 45.626023,-0.91391406 c 0,-0.26953124 -0.117187,-0.46875004 -0.292968,-0.64453124 -0.269532,-0.2460938 -0.585938,-0.2929688 -0.832032,-0.3398438 -0.5625,-0.09375 -1.007812,-0.1757812 -1.007812,-0.5507812 0,-0.2226563 0.1875,-0.4921875 0.84375,-0.4921875 0.808594,0 0.84375,0.5625 0.855469,0.7617187 0.01172,0.082031 0.09375,0.082031 0.117187,0.082031 0.128906,0 0.128906,-0.046875 0.128906,-0.1875 v -0.6445313 c 0,-0.1171875 0,-0.1757812 -0.105468,-0.1757812 -0.03516,0 -0.04687,0 -0.140625,0.082031 -0.01172,0 -0.08203,0.070312 -0.117188,0.1054688 -0.210937,-0.1523438 -0.480469,-0.1875 -0.738281,-0.1875 -0.996094,0 -1.230469,0.515625 -1.230469,0.8671875 0,0.2226562 0.09375,0.4101562 0.257813,0.5390625 0.269531,0.234375 0.539062,0.28125 0.960937,0.3515625 0.351563,0.070312 0.914063,0.1640625 0.914063,0.63281249 0,0.26953125 -0.1875,0.5859375 -0.855469,0.5859375 -0.667969,0 -0.914063,-0.43359375 -1.03125,-0.91406249 -0.02344,-0.082031 -0.03516,-0.1171875 -0.128906,-0.1171875 -0.117188,0 -0.117188,0.046875 -0.117188,0.18749999 v 0.85546875 c 0,0.12890625 0,0.1875 0.09375,0.1875 0.05859,0 0.199219,-0.15234375 0.339844,-0.3046875 0.304687,0.29296875 0.679687,0.3046875 0.84375,0.3046875 0.914062,0 1.242187,-0.4921875 1.242187,-0.9843745 z m 0,0"
       style="fill:#666666;fill-opacity:1;fill-rule:nonzero;stroke:none"
       aria-label="10-20Models"
       transform="matrix(1.3333333,0,0,1.3333333,150.49733,245.26933)" />
    <path
       id="path21"
       d="m 3.5160547,-1.4052734 c 0,-0.7851563 -0.5976563,-1.5117188 -1.453125,-1.5117188 -0.3164063,0 -0.6796875,0.082031 -0.984375,0.3398438 v -1.3125 c 0.3632812,0.09375 0.5625,0.09375 0.6796875,0.09375 0.9140625,0 1.4648437,-0.6328125 1.4648437,-0.7382813 0,-0.070312 -0.046875,-0.09375 -0.082031,-0.09375 0,0 -0.035156,0 -0.058594,0.023437 -0.1640625,0.058594 -0.5390625,0.1992188 -1.0546875,0.1992188 -0.1992187,0 -0.5625,-0.011719 -1.0195312,-0.1875 -0.0703125,-0.035156 -0.0820313,-0.035156 -0.0820313,-0.035156 -0.09375,0 -0.09375,0.070312 -0.09375,0.1875 v 2.0625 c 0,0.1171875 0,0.1992188 0.10546875,0.1992188 0.0703124,0 0.0703124,-0.011719 0.14062505,-0.1054688 0.3046875,-0.375 0.7265625,-0.4335937 0.9726562,-0.4335937 0.421875,0 0.609375,0.3398437 0.6445313,0.3867187 0.1171875,0.234375 0.1640625,0.5039063 0.1640625,0.9023438 0,0.2109375 0,0.62109371 -0.2109375,0.92578121 -0.1757813,0.2578125 -0.46875,0.421875 -0.8203125,0.421875 -0.4453125,0 -0.91406255,-0.2578125 -1.0898438,-0.71484375 0.2695313,0.0234375 0.3984375,-0.15234375 0.3984375,-0.33984376 0,-0.3046875 -0.2578125,-0.3515625 -0.3515625,-0.3515625 0,0 -0.3515625,0 -0.3515625,0.375 0,0.62109376 0.5742188,1.25390626 1.4179688,1.25390626 0.890625,0 1.6640625,-0.66796875 1.6640625,-1.54687476 z m 4.0488281,-0.8203125 c 0,-0.7617188 -0.09375,-1.3125 -0.4101562,-1.8046875 -0.2226563,-0.3164063 -0.6445313,-0.5976563 -1.2070313,-0.5976563 -1.6171875,0 -1.6171875,1.8984375 -1.6171875,2.4023438 0,0.5039062 0,2.36718746 1.6171875,2.36718746 1.6171875,0 1.6171875,-1.86328126 1.6171875,-2.36718746 z m -0.6328125,-0.09375 c 0,0.515625 0,1.0429687 -0.09375,1.47656246 -0.140625,0.6328125 -0.609375,0.78515625 -0.890625,0.78515625 -0.3164062,0 -0.75,-0.1875 -0.890625,-0.76171875 -0.09375,-0.41015626 -0.09375,-0.98437496 -0.09375,-1.49999996 0,-0.5039063 0,-1.03125 0.1054688,-1.4179688 0.1523437,-0.5507812 0.5976562,-0.6914062 0.8789062,-0.6914062 0.375,0 0.7382813,0.2226562 0.8671875,0.6328125 0.1054688,0.375 0.1171875,0.8789062 0.1171875,1.4765625 z m 3.1962887,1.0546875 v -0.46875 H 8.0775781 v 0.46875 z m 4.007813,0 h -0.234375 c -0.02344,0.1523437 -0.08203,0.56249996 -0.175781,0.63281246 -0.05859,0.0351563 -0.597657,0.0351563 -0.691407,0.0351563 h -1.289062 c 0.738281,-0.64453116 0.984375,-0.84374996 1.394531,-1.17187496 0.515625,-0.4101563 0.996094,-0.8437501 0.996094,-1.5000001 0,-0.84375 -0.738281,-1.359375 -1.628906,-1.359375 -0.867188,0 -1.453125,0.609375 -1.453125,1.2421875 0,0.3632813 0.304687,0.3984375 0.375,0.3984375 0.164062,0 0.375,-0.1171875 0.375,-0.375 0,-0.1289062 -0.05859,-0.3632812 -0.421875,-0.3632812 0.222656,-0.5039063 0.691406,-0.6562499 1.019531,-0.6562499 0.703125,0 1.066406,0.5507811 1.066406,1.1132812 0,0.609375 -0.433594,1.0898437 -0.65625,1.3359375 l -1.6875,1.66406246 c -0.07031,0.0585937 -0.07031,0.0703125 -0.07031,0.2695312525 h 2.882812 z m 4.051758,-0.9609375 c 0,-0.7617188 -0.09375,-1.3125 -0.410157,-1.8046875 -0.222656,-0.3164063 -0.644531,-0.5976563 -1.207031,-0.5976563 -1.617187,0 -1.617187,1.8984375 -1.617187,2.4023438 0,0.5039062 0,2.36718746 1.617187,2.36718746 1.617188,0 1.617188,-1.86328126 1.617188,-2.36718746 z m -0.632813,-0.09375 c 0,0.515625 0,1.0429687 -0.09375,1.47656246 -0.140625,0.6328125 -0.609375,0.78515625 -0.890625,0.78515625 -0.316406,0 -0.75,-0.1875 -0.890625,-0.76171875 -0.09375,-0.41015626 -0.09375,-0.98437496 -0.09375,-1.49999996 0,-0.5039063 0,-1.03125 0.105469,-1.4179688 0.152344,-0.5507812 0.597656,-0.6914062 0.878906,-0.6914062 0.375,0 0.738281,0.2226562 0.867188,0.6328125 0.105468,0.375 0.117187,0.8789062 0.117187,1.4765625 z m 4.59961,0.09375 c 0,-0.7617188 -0.09375,-1.3125 -0.410157,-1.8046875 -0.222656,-0.3164063 -0.644531,-0.5976563 -1.207031,-0.5976563 -1.617187,0 -1.617187,1.8984375 -1.617187,2.4023438 0,0.5039062 0,2.36718746 1.617187,2.36718746 1.617188,0 1.617188,-1.86328126 1.617188,-2.36718746 z m -0.632813,-0.09375 c 0,0.515625 0,1.0429687 -0.09375,1.47656246 -0.140625,0.6328125 -0.609375,0.78515625 -0.890625,0.78515625 -0.316406,0 -0.75,-0.1875 -0.890625,-0.76171875 -0.09375,-0.41015626 -0.09375,-0.98437496 -0.09375,-1.49999996 0,-0.5039063 0,-1.03125 0.105469,-1.4179688 0.152344,-0.5507812 0.597656,-0.6914062 0.878906,-0.6914062 0.375,0 0.738281,0.2226562 0.867188,0.6328125 0.105468,0.375 0.117187,0.8789062 0.117187,1.4765625 z M 31.936953,9.765625e-4 V -0.24511719 h -0.164062 c -0.539063,0 -0.550782,-0.0703125 -0.550782,-0.31640625 V -4.1943359 c 0,-0.234375 0.01172,-0.3164063 0.550782,-0.3164063 h 0.164062 v -0.2460937 h -1.207031 c -0.140625,0 -0.210938,0 -0.257813,0.140625 l -1.675781,3.94921871 -1.664062,-3.93750001 c -0.07031,-0.1523437 -0.117188,-0.1523437 -0.269532,-0.1523437 h -1.21875 v 0.2460937 h 0.164063 c 0.539062,0 0.550781,0.070312 0.550781,0.3164063 v 3.44531246 c 0,0.1875 0,0.50390625 -0.714844,0.50390625 V 9.765625e-4 c 0.28125,-0.0234375025 0.5625,-0.0234375025 0.84375,-0.0234375025 0.292969,0 0.574219,0 0.855469,0.0234375025 V -0.24511719 c -0.714844,0 -0.714844,-0.31640625 -0.714844,-0.50390625 V -4.4287109 l 1.816407,4.26562496 c 0.03516,0.08203125 0.07031,0.1640625025 0.175781,0.1640625025 0.04687,0 0.105469,-0.0234375025 0.164062,-0.1406250025 l 1.839844,-4.35937496 h 0.01172 v 3.93749996 c 0,0.234375 -0.01172,0.31640625 -0.550781,0.31640625 H 29.921328 V 9.765625e-4 L 30.929141,-0.02246094 Z M 36.070742,-1.4873047 c 0,-0.8671875 -0.75,-1.6171875 -1.710937,-1.6171875 -0.960938,0 -1.710938,0.75 -1.710938,1.6171875 0,0.86718751 0.773438,1.55859376 1.710938,1.55859376 0.9375,0 1.710937,-0.69140625 1.710937,-1.55859376 z m -0.632812,-0.058594 c 0,0.328125 -0.02344,0.70312496 -0.222657,0.98437496 -0.1875,0.26953125 -0.515625,0.41015625 -0.855468,0.41015625 -0.257813,0 -0.632813,-0.0820313 -0.867188,-0.421875 -0.1875,-0.29296875 -0.210937,-0.65625001 -0.210937,-0.97265621 0,-0.3046875 0.01172,-0.7148438 0.257812,-1.0078125 0.175781,-0.2109375 0.46875,-0.3632813 0.820313,-0.3632813 0.410156,0 0.703125,0.1992188 0.855468,0.4101563 0.199219,0.28125 0.222657,0.6210937 0.222657,0.9609375 z M 40.617617,9.765625e-4 V -0.24511719 c -0.46875,0 -0.527344,-0.0585937 -0.527344,-0.3984375 V -4.8388672 l -1.042968,0.082031 v 0.2460937 c 0.46875,0 0.515625,0.046875 0.515625,0.3867188 v 1.453125 c -0.257813,-0.2578125 -0.585938,-0.3984375 -0.972657,-0.3984375 -0.925781,0 -1.710937,0.6914062 -1.710937,1.5703125 0,0.86718746 0.738281,1.57031246 1.628906,1.57031246 0.574219,0 0.914063,-0.3046875 1.03125,-0.43359375 V 0.07128906 Z M 39.539492,-0.72558594 c -0.175781,0.31640625 -0.539062,0.59765625 -0.984375,0.59765625 -0.398437,0 -0.679687,-0.22265625 -0.808594,-0.43359375 -0.140625,-0.19921875 -0.222656,-0.48046876 -0.222656,-0.92578126 0,-0.1640625 0,-0.6914062 0.28125,-1.0195312 0.28125,-0.3046875 0.621094,-0.375 0.820313,-0.375 0.339843,0 0.632812,0.1523437 0.832031,0.4101562 0.08203,0.1054688 0.08203,0.1171875 0.08203,0.2460938 z m 4.681641,-0.10546875 c 0,-0.0351563 -0.01172,-0.10546875 -0.117188,-0.10546875 -0.08203,0 -0.105468,0.046875 -0.117187,0.1171875 -0.222656,0.5625 -0.75,0.66796875 -0.996094,0.66796875 -0.328125,0 -0.644531,-0.15234375 -0.855469,-0.41015625 -0.257812,-0.328125 -0.269531,-0.74999996 -0.269531,-1.03124996 h 2.167969 c 0.140625,0 0.1875,0 0.1875,-0.1523438 0,-0.609375 -0.339844,-1.359375 -1.371094,-1.359375 -0.914062,0 -1.617187,0.7265625 -1.617187,1.5820313 0,0.87890621 0.773437,1.59374996 1.699218,1.59374996 0.949219,0 1.289063,-0.75 1.289063,-0.90234375 z M 43.740664,-1.7685547 h -1.863281 c 0.07031,-0.984375 0.703125,-1.1484375 0.972656,-1.1484375 0.855469,0 0.878906,0.9726563 0.890625,1.1484375 z M 46.465273,9.765625e-4 V -0.24511719 c -0.445312,0 -0.515625,0 -0.515625,-0.3046875 V -4.8388672 l -1.054687,0.082031 v 0.2460937 c 0.46875,0 0.527344,0.046875 0.527344,0.3867188 v 3.57421871 c 0,0.3046875 -0.07031,0.3046875 -0.527344,0.3046875 V 9.765625e-4 c 0,0 0.503906,-0.0234375025 0.785156,-0.0234375025 0.269531,0 0.527344,0 0.785156,0.0234375025 z M 49.59418,-0.91308594 c 0,-0.26953126 -0.117188,-0.46874996 -0.292969,-0.64453126 -0.269531,-0.2460937 -0.585938,-0.2929687 -0.832031,-0.3398437 -0.5625,-0.09375 -1.007813,-0.1757813 -1.007813,-0.5507813 0,-0.2226562 0.1875,-0.4921875 0.84375,-0.4921875 0.808594,0 0.84375,0.5625 0.855469,0.7617188 0.01172,0.082031 0.09375,0.082031 0.117187,0.082031 0.128907,0 0.128907,-0.046875 0.128907,-0.1875 v -0.6445312 c 0,-0.1171875 0,-0.1757813 -0.105469,-0.1757813 -0.03516,0 -0.04687,0 -0.140625,0.082031 -0.01172,0 -0.08203,0.070312 -0.117188,0.1054687 -0.210937,-0.1523437 -0.480468,-0.1875 -0.738281,-0.1875 -0.996094,0 -1.230469,0.515625 -1.230469,0.8671875 0,0.2226563 0.09375,0.4101563 0.257813,0.5390625 0.269531,0.234375 0.539062,0.28125 0.960937,0.3515625 0.351563,0.070312 0.914063,0.1640625 0.914063,0.63281251 0,0.26953125 -0.1875,0.5859375 -0.855469,0.5859375 -0.667969,0 -0.914062,-0.43359375 -1.03125,-0.91406251 -0.02344,-0.082031 -0.03516,-0.1171875 -0.128906,-0.1171875 -0.117188,0 -0.117188,0.046875 -0.117188,0.18750001 v 0.85546875 c 0,0.12890625 0,0.1875 0.09375,0.1875 0.05859,0 0.199219,-0.15234375 0.339844,-0.3046875 0.304688,0.29296875 0.679688,0.3046875 0.84375,0.3046875 0.914063,0 1.242188,-0.4921875 1.242188,-0.9843745 z m 0,0"
       style="fill:#666666;fill-opacity:1;fill-rule:nonzero;stroke:none"
       aria-label="50-200Models"
       transform="matrix(1.3333333,0,0,1.3333333,237.75333,264.16667)" />
    <path
       id="path22"
       d="m 3.515625,-1.4054453 c 0,-0.7851563 -0.5976562,-1.5117188 -1.453125,-1.5117188 -0.3164063,0 -0.6796875,0.082031 -0.984375,0.3398438 v -1.3125 c 0.3632812,0.09375 0.5625,0.09375 0.6796875,0.09375 0.9140625,0 1.4648438,-0.6328125 1.4648438,-0.7382813 0,-0.070312 -0.046875,-0.09375 -0.082031,-0.09375 0,0 -0.035156,0 -0.058594,0.023437 -0.1640625,0.058594 -0.5390625,0.1992188 -1.0546875,0.1992188 -0.1992188,0 -0.5625001,-0.011719 -1.0195313,-0.1875 -0.0703125,-0.035156 -0.0820313,-0.035156 -0.0820313,-0.035156 -0.09375,0 -0.09375,0.070312 -0.09375,0.1875 v 2.0625 c 0,0.1171875 0,0.1992188 0.10546875,0.1992188 0.0703124,0 0.0703124,-0.011719 0.14062495,-0.1054688 0.3046875,-0.375 0.7265625,-0.4335937 0.9726564,-0.4335937 0.421875,0 0.609375,0.3398437 0.6445312,0.3867187 0.1171875,0.234375 0.1640625,0.5039063 0.1640625,0.9023438 0,0.2109375 0,0.62109374 -0.2109375,0.92578124 -0.1757812,0.2578125 -0.46875,0.421875 -0.8203126,0.421875 -0.4453125,0 -0.91406245,-0.2578125 -1.0898437,-0.71484375 0.2695312,0.0234375 0.3984374,-0.15234375 0.3984374,-0.33984379 0,-0.3046875 -0.2578124,-0.3515625 -0.3515624,-0.3515625 0,0 -0.3515625,0 -0.3515625,0.375 0,0.62109379 0.5742187,1.25390629 1.4179687,1.25390629 0.8906251,0 1.6640626,-0.66796875 1.6640626,-1.54687479 z m 4.0488281,-0.8203125 c 0,-0.7617188 -0.09375,-1.3125 -0.4101562,-1.8046875 -0.2226563,-0.3164063 -0.6445313,-0.5976563 -1.2070313,-0.5976563 -1.6171875,0 -1.6171875,1.8984375 -1.6171875,2.4023438 0,0.5039062 0,2.36718749 1.6171875,2.36718749 1.6171875,0 1.6171875,-1.86328129 1.6171875,-2.36718749 z m -0.6328125,-0.09375 c 0,0.515625 0,1.0429687 -0.09375,1.47656249 -0.140625,0.6328125 -0.609375,0.78515625 -0.890625,0.78515625 -0.3164062,0 -0.75,-0.1875 -0.890625,-0.76171875 -0.09375,-0.41015629 -0.09375,-0.98437499 -0.09375,-1.49999999 0,-0.5039063 0,-1.03125 0.1054688,-1.4179688 0.1523437,-0.5507812 0.5976562,-0.6914062 0.8789062,-0.6914062 0.375,0 0.7382813,0.2226562 0.8671875,0.6328125 0.1054688,0.375 0.1171875,0.8789062 0.1171875,1.4765625 z m 4.6025394,0.09375 c 0,-0.7617188 -0.09375,-1.3125 -0.410157,-1.8046875 -0.222656,-0.3164063 -0.644531,-0.5976563 -1.2070308,-0.5976563 -1.6171875,0 -1.6171875,1.8984375 -1.6171875,2.4023438 0,0.5039062 0,2.36718749 1.6171875,2.36718749 1.6171878,0 1.6171878,-1.86328129 1.6171878,-2.36718749 z m -0.632813,-0.09375 c 0,0.515625 0,1.0429687 -0.09375,1.47656249 -0.140625,0.6328125 -0.609375,0.78515625 -0.8906248,0.78515625 -0.3164063,0 -0.75,-0.1875 -0.890625,-0.76171875 -0.09375,-0.41015629 -0.09375,-0.98437499 -0.09375,-1.49999999 0,-0.5039063 0,-1.03125 0.1054687,-1.4179688 0.1523438,-0.5507812 0.5976563,-0.6914062 0.8789063,-0.6914062 0.3749998,0 0.7382808,0.2226562 0.8671878,0.6328125 0.105468,0.375 0.117187,0.8789062 0.117187,1.4765625 z m 6.626953,0.5742187 c 0,-0.1757812 -0.164062,-0.1757812 -0.257812,-0.1757812 h -2.144531 v -2.1328125 c 0,-0.09375 0,-0.2578125 -0.164063,-0.2578125 -0.175781,0 -0.175781,0.1523437 -0.175781,0.2578125 v 2.1328125 H 12.65332 c -0.09375,0 -0.257812,0 -0.257812,0.1757812 0,0.1757813 0.152344,0.1757813 0.257812,0.1757813 h 2.132813 v 2.13281249 c 0,0.09375 0,0.2578125 0.175781,0.2578125 0.164063,0 0.164063,-0.15234375 0.164063,-0.2578125 V -1.5695078 h 2.144531 c 0.08203,0 0.257812,0 0.257812,-0.1757813 z M 27.430664,8.046875e-4 V -0.24528906 h -0.164062 c -0.539063,0 -0.550782,-0.0703125 -0.550782,-0.31640625 V -4.1945078 c 0,-0.234375 0.01172,-0.3164063 0.550782,-0.3164063 h 0.164062 v -0.2460937 h -1.207031 c -0.140625,0 -0.210938,0 -0.257813,0.140625 l -1.675781,3.94921874 -1.664062,-3.93750004 c -0.07031,-0.1523437 -0.117188,-0.1523437 -0.269532,-0.1523437 h -1.21875 v 0.2460937 h 0.164063 c 0.539062,0 0.550781,0.070312 0.550781,0.3164063 v 3.44531249 c 0,0.1875 0,0.50390625 -0.714844,0.50390625 V 8.046875e-4 c 0.28125,-0.0234374975 0.5625,-0.0234374975 0.84375,-0.0234374975 0.292969,0 0.574219,0 0.855469,0.0234374975 V -0.24528906 c -0.714844,0 -0.714844,-0.31640625 -0.714844,-0.50390625 V -4.4288828 l 1.816407,4.26562499 c 0.03516,0.08203125 0.07031,0.1640624975 0.175781,0.1640624975 0.04687,0 0.105469,-0.0234374975 0.164062,-0.1406249975 l 1.839844,-4.35937499 h 0.01172 v 3.93749999 c 0,0.234375 -0.01172,0.31640625 -0.550781,0.31640625 H 25.415039 V 8.046875e-4 L 26.422852,-0.02263281 Z M 31.564453,-1.4874766 c 0,-0.8671875 -0.75,-1.6171875 -1.710937,-1.6171875 -0.960938,0 -1.710938,0.75 -1.710938,1.6171875 0,0.86718754 0.773438,1.55859379 1.710938,1.55859379 0.9375,0 1.710937,-0.69140625 1.710937,-1.55859379 z m -0.632812,-0.058594 c 0,0.328125 -0.02344,0.70312499 -0.222657,0.98437499 -0.1875,0.26953125 -0.515625,0.41015625 -0.855468,0.41015625 -0.257813,0 -0.632813,-0.0820313 -0.867188,-0.421875 -0.1875,-0.29296875 -0.210937,-0.65625004 -0.210937,-0.97265624 0,-0.3046875 0.01172,-0.7148438 0.257812,-1.0078125 0.175781,-0.2109375 0.46875,-0.3632813 0.820313,-0.3632813 0.410156,0 0.703125,0.1992188 0.855468,0.4101563 0.199219,0.28125 0.222657,0.6210937 0.222657,0.9609375 z M 36.114258,8.046875e-4 V -0.24528906 c -0.46875,0 -0.527344,-0.0585938 -0.527344,-0.3984375 V -4.8390391 l -1.042969,0.082031 v 0.2460937 c 0.46875,0 0.515625,0.046875 0.515625,0.3867188 v 1.453125 c -0.257812,-0.2578125 -0.585937,-0.3984375 -0.972656,-0.3984375 -0.925781,0 -1.710937,0.6914062 -1.710937,1.5703125 0,0.86718749 0.738281,1.57031249 1.628906,1.57031249 0.574219,0 0.914062,-0.3046875 1.03125,-0.43359375 V 0.07111719 Z M 35.036133,-0.72575781 c -0.175781,0.31640625 -0.539063,0.59765625 -0.984375,0.59765625 -0.398438,0 -0.679688,-0.22265625 -0.808594,-0.43359375 -0.140625,-0.19921875 -0.222656,-0.48046879 -0.222656,-0.92578129 0,-0.1640625 0,-0.6914062 0.28125,-1.0195312 0.28125,-0.3046875 0.621094,-0.375 0.820312,-0.375 0.339844,0 0.632813,0.1523437 0.832032,0.4101562 0.08203,0.1054688 0.08203,0.1171875 0.08203,0.2460938 z m 4.68164,-0.10546875 c 0,-0.0351563 -0.01172,-0.10546875 -0.117187,-0.10546875 -0.08203,0 -0.105469,0.046875 -0.117188,0.1171875 -0.222656,0.5625 -0.75,0.66796875 -0.996093,0.66796875 -0.328125,0 -0.644532,-0.15234375 -0.855469,-0.41015625 -0.257813,-0.328125 -0.269531,-0.74999999 -0.269531,-1.03124999 h 2.167968 c 0.140625,0 0.1875,0 0.1875,-0.1523438 0,-0.609375 -0.339843,-1.359375 -1.371093,-1.359375 -0.914063,0 -1.617188,0.7265625 -1.617188,1.5820313 0,0.87890624 0.773438,1.59374999 1.699219,1.59374999 0.949219,0 1.289062,-0.75 1.289062,-0.90234375 z M 39.237305,-1.7687266 h -1.863282 c 0.07031,-0.984375 0.703125,-1.1484375 0.972657,-1.1484375 0.855468,0 0.878906,0.9726563 0.890625,1.1484375 z M 41.958984,8.046875e-4 V -0.24528906 c -0.445312,0 -0.515625,0 -0.515625,-0.3046875 V -4.8390391 l -1.054687,0.082031 v 0.2460937 c 0.46875,0 0.527344,0.046875 0.527344,0.3867188 v 3.57421874 c 0,0.3046875 -0.07031,0.3046875 -0.527344,0.3046875 V 8.046875e-4 c 0,0 0.503906,-0.0234374975 0.785156,-0.0234374975 0.269531,0 0.527344,0 0.785156,0.0234374975 z M 45.09082,-0.91325781 c 0,-0.26953129 -0.117187,-0.46874999 -0.292968,-0.64453129 -0.269532,-0.2460937 -0.585938,-0.2929687 -0.832032,-0.3398437 -0.5625,-0.09375 -1.007812,-0.1757813 -1.007812,-0.5507813 0,-0.2226562 0.1875,-0.4921875 0.84375,-0.4921875 0.808594,0 0.84375,0.5625 0.855469,0.7617188 0.01172,0.082031 0.09375,0.082031 0.117187,0.082031 0.128906,0 0.128906,-0.046875 0.128906,-0.1875 V -2.928883 c 0,-0.1171875 0,-0.1757813 -0.105468,-0.1757813 -0.03516,0 -0.04687,0 -0.140625,0.082031 -0.01172,0 -0.08203,0.070312 -0.117188,0.1054687 -0.210937,-0.1523437 -0.480469,-0.1875 -0.738281,-0.1875 -0.996094,0 -1.230469,0.515625 -1.230469,0.8671875 0,0.2226563 0.09375,0.4101563 0.257813,0.5390625 0.269531,0.234375 0.539062,0.28125 0.960937,0.3515625 0.351563,0.070312 0.914063,0.1640625 0.914063,0.63281254 0,0.26953125 -0.1875,0.5859375 -0.855469,0.5859375 -0.667969,0 -0.914063,-0.43359375 -1.03125,-0.91406254 -0.02344,-0.082031 -0.03516,-0.1171875 -0.128906,-0.1171875 -0.117188,0 -0.117188,0.046875 -0.117188,0.18750004 v 0.85546875 c 0,0.12890625 0,0.1875 0.09375,0.1875 0.05859,0 0.199219,-0.15234375 0.339844,-0.3046875 0.304687,0.29296875 0.679687,0.3046875 0.84375,0.3046875 0.914062,0 1.242187,-0.4921875 1.242187,-0.9843745 z m 0,0"
       style="fill:#666666;fill-opacity:1;fill-rule:nonzero;stroke:none"
       aria-label="500+Models"
       transform="matrix(1.3333333,0,0,1.3333333,325.5,283.06533)" />
  </g>
</svg>
