<?xml version="1.0" encoding="UTF-8" standalone="no"?>
<!-- Created with Inkscape (http://www.inkscape.org/) -->

<svg
   version="1.1"
   id="svg1"
   width="846.04401"
   height="86.229332"
   viewBox="0 0 846.04401 86.229332"
   xmlns="http://www.w3.org/2000/svg"
   xmlns:svg="http://www.w3.org/2000/svg">
  <defs
     id="defs1" />
  <g
     id="g1">
    <path
       id="path1"
       d="m 29.18889,14.17339 h -58.37778 c -1.10046,0 -1.99255,-0.89208 -1.99255,-1.99256 v -24.36166 c 0,-1.10048 0.89209,-1.99256 1.99255,-1.99256 h 58.37778 c 1.10046,0 1.99255,0.89208 1.99255,1.99256 v 24.36166 c 0,1.10048 -0.89209,1.99256 -1.99255,1.99256 z"
       style="fill:#f5f5f5;fill-opacity:1;fill-rule:nonzero;stroke:#4c4c4c;stroke-width:0.74721;stroke-linecap:butt;stroke-linejoin:miter;stroke-miterlimit:10;stroke-dasharray:none;stroke-opacity:1"
       transform="matrix(1.3333333,0,0,-1.3333333,42.073333,23.954667)" />
    <path
       id="path2"
       d="M 0.79567969,-6.015625e-4 H 3.3152109 c 1.6523438,0 2.6601563,-1.2421875375 2.6601563,-3.2695312375 0,-2.0273438 -0.9960938,-3.2695313 -2.6601563,-3.2695313 H 0.79567969 Z M 1.6277109,-0.73888281 V -5.8013828 h 1.546875 c 1.2890625,0 1.96875,0.8671875 1.96875,2.5429687 0,1.640625 -0.6796875,2.51953129 -1.96875,2.51953129 z m 9.6386721,0.3046875 c -0.08203,0.0117188 -0.117188,0.0117188 -0.152344,0.0117188 -0.269531,0 -0.410156,-0.12890625 -0.410156,-0.36328125 V -3.5513828 c 0,-0.8320313 -0.609375,-1.2773438 -1.7695314,-1.2773438 -0.6796875,0 -1.2421875,0.1875 -1.5585938,0.5390625 -0.2109375,0.2460938 -0.3046875,0.515625 -0.3164062,0.984375 h 0.75 c 0.058594,-0.5742187 0.3984375,-0.8320312 1.1015625,-0.8320312 0.6679687,0 1.0546875,0.2460937 1.0546875,0.6914062 v 0.1992188 c 0,0.3164062 -0.1875,0.4453125 -0.7851563,0.515625 -1.0546875,0.140625 -1.21875,0.1757812 -1.5,0.2929687 -0.5507812,0.2226563 -0.8320312,0.6445313 -0.8320312,1.2539063 0,0.85546874 0.5976562,1.39453124 1.546875,1.39453124 0.5859375,0 1.0664062,-0.2109375025 1.59375,-0.69140625 0.046875,0.46875 0.2812499,0.69140625 0.7734379,0.69140625 0.152343,0 0.269531,-0.0234375 0.503906,-0.0820313 z M 9.9656016,-1.4771641 c 0,0.2460938 -0.082031,0.3984375 -0.3046875,0.60937504 -0.3046875,0.28125 -0.6679688,0.421875 -1.1132813,0.421875 -0.5742187,0 -0.9140625,-0.28125 -0.9140625,-0.76171874 0,-0.4921875 0.328125,-0.7382813 1.125,-0.8554688 0.7851563,-0.1054687 0.9492188,-0.140625 1.2070313,-0.2578125 z M 13.73318,-4.6998203 h -0.761719 v -1.2890625 h -0.75 v 1.2890625 h -0.632813 v 0.609375 h 0.632813 v 3.55078124 c 0,0.48046875 0.328125,0.75 0.902344,0.75 0.1875,0 0.363281,-0.0234375 0.609375,-0.0703125 v -0.62109375 c -0.09375,0.0234375 -0.210938,0.0351563 -0.351563,0.0351563 -0.328125,0 -0.410156,-0.09375 -0.410156,-0.421875 V -4.0904453 h 0.761719 z m 5.012695,4.26562499 c -0.08203,0.0117188 -0.117187,0.0117188 -0.152344,0.0117188 -0.269531,0 -0.410156,-0.12890625 -0.410156,-0.36328125 V -3.5513828 c 0,-0.8320313 -0.609375,-1.2773438 -1.769531,-1.2773438 -0.679688,0 -1.242188,0.1875 -1.558594,0.5390625 -0.210937,0.2460938 -0.304687,0.515625 -0.316406,0.984375 h 0.75 c 0.05859,-0.5742187 0.398437,-0.8320312 1.101562,-0.8320312 0.667969,0 1.054688,0.2460937 1.054688,0.6914062 v 0.1992188 c 0,0.3164062 -0.1875,0.4453125 -0.785156,0.515625 -1.054688,0.140625 -1.21875,0.1757812 -1.5,0.2929687 -0.550782,0.2226563 -0.832032,0.6445313 -0.832032,1.2539063 0,0.85546874 0.597657,1.39453124 1.546875,1.39453124 0.585938,0 1.066407,-0.2109375025 1.59375,-0.69140625 0.04687,0.46875 0.28125,0.69140625 0.773438,0.69140625 0.152344,0 0.269531,-0.0234375 0.503906,-0.0820313 z M 17.445094,-1.4771641 c 0,0.2460938 -0.08203,0.3984375 -0.304688,0.60937504 -0.304687,0.28125 -0.667968,0.421875 -1.113281,0.421875 -0.574219,0 -0.914062,-0.28125 -0.914062,-0.76171874 0,-0.4921875 0.328125,-0.7382813 1.125,-0.8554688 0.785156,-0.1054687 0.949218,-0.140625 1.207031,-0.2578125 z M 24.936305,-6.015625e-4 27.198023,-6.5396641 h -0.878906 l -1.816406,5.53125 -1.921875,-5.53125 h -0.890625 l 2.34375,6.5390625375 z M 31.574977,-0.43419531 c -0.08203,0.0117188 -0.117188,0.0117188 -0.152344,0.0117188 -0.269531,0 -0.410156,-0.12890625 -0.410156,-0.36328125 V -3.5513828 c 0,-0.8320313 -0.609375,-1.2773438 -1.769532,-1.2773438 -0.679687,0 -1.242187,0.1875 -1.558593,0.5390625 -0.210938,0.2460938 -0.304688,0.515625 -0.316407,0.984375 h 0.75 c 0.05859,-0.5742187 0.398438,-0.8320312 1.101563,-0.8320312 0.667969,0 1.054687,0.2460937 1.054687,0.6914062 v 0.1992188 c 0,0.3164062 -0.1875,0.4453125 -0.785156,0.515625 -1.054687,0.140625 -1.21875,0.1757812 -1.5,0.2929687 -0.550781,0.2226563 -0.832031,0.6445313 -0.832031,1.2539063 0,0.85546874 0.597656,1.39453124 1.546875,1.39453124 0.585937,0 1.066406,-0.2109375025 1.59375,-0.69140625 0.04687,0.46875 0.28125,0.69140625 0.773437,0.69140625 0.152344,0 0.269532,-0.0234375 0.503907,-0.0820313 z M 30.274195,-1.4771641 c 0,0.2460938 -0.08203,0.3984375 -0.304687,0.60937504 -0.304688,0.28125 -0.667969,0.421875 -1.113281,0.421875 -0.574219,0 -0.914063,-0.28125 -0.914063,-0.76171874 0,-0.4921875 0.328125,-0.7382813 1.125,-0.8554688 0.785156,-0.1054687 0.949219,-0.140625 1.207031,-0.2578125 z m 2.853516,-5.0625 h -0.75 v 6.5390625375 h 0.75 z m 0,0"
       style="fill:#000000;fill-opacity:1;fill-rule:nonzero;stroke:none"
       aria-label="DataVal"
       transform="matrix(1.3333333,0,0,1.3333333,19.568,28.145333)" />
    <path
       id="path3"
       d="M 99.19066,0 72.72372,17.5929 46.25679,0 72.72372,-17.5929 Z"
       style="fill:#fce4cc;fill-opacity:1;fill-rule:nonzero;stroke:#ff4c4c;stroke-width:0.74721;stroke-linecap:butt;stroke-linejoin:miter;stroke-miterlimit:10;stroke-dasharray:none;stroke-opacity:1"
       transform="matrix(1.3333333,0,0,-1.3333333,42.073333,23.954667)" />
    <path
       id="path4"
       d="m 3.2472969,-0.90163281 c 0,-0.37499999 -0.2226563,-0.59765629 -0.3164063,-0.67968749 -0.234375,-0.2226563 -0.5039062,-0.28125 -0.9140625,-0.3515625 -0.28125,-0.058594 -0.5625,-0.1171875 -0.6210937,-0.1289063 -0.1992188,-0.035156 -0.60937502,-0.2226562 -0.60937502,-0.5976562 0,-0.328125 0.37500002,-0.6445313 0.91406252,-0.6445313 0.890625,0 1.1015625,0.5859375 1.1601562,0.9492188 0.011719,0.070312 0.035156,0.082031 0.1054688,0.082031 0.1054687,0 0.1054687,-0.035156 0.1054687,-0.140625 v -0.9609375 c 0,-0.082031 0,-0.140625 -0.082031,-0.140625 -0.023437,0 -0.046875,0 -0.09375,0.070312 l -0.1992188,0.2929688 c -0.234375,-0.2226563 -0.5390625,-0.3632813 -0.9960937,-0.3632813 -0.70312502,0 -1.21875002,0.4453125 -1.21875002,0.9492188 0,0.2695312 0.15234375,0.4921875 0.3046875,0.6210937 0.25781252,0.2109375 0.50390622,0.2578125 0.73828122,0.3046875 l 0.7851563,0.1523438 c 0.328125,0.082031 0.6328125,0.328125 0.6328125,0.66796874 0,0.3515625 -0.3515625,0.71484375 -0.9257813,0.71484375 -0.2226562,0 -0.6445312,-0.0351563 -0.9492187,-0.234375 -0.23437502,-0.1640625 -0.36328127,-0.38671875 -0.37500002,-0.67968749 0,-0.082031 0,-0.1054688 -0.10546875,-0.1054688 -0.10546875,0 -0.10546875,0.035156 -0.10546875,0.14062504 v 0.94921875 c 0,0.09375 0,0.140625 0.0820313,0.140625 0.046875,0 0.0585938,-0.01171875 0.09375,-0.05859375 0.0234375,-0.0234375 0.1875,-0.28125 0.1875,-0.28125 0.37499992,0.28125 0.83203122,0.33984375 1.17187492,0.33984375 0.75,0 1.2304688,-0.4921875 1.2304686,-1.0078118 z m 3.2080078,0.3046875 c 0,-0.0703125 -0.070312,-0.0703125 -0.09375,-0.0703125 -0.082031,0 -0.09375,0.0117188 -0.1171875,0.0703125 -0.1640625,0.421875 -0.5273438,0.46875 -0.75,0.46875 -0.4335938,0 -0.9023438,-0.28125 -0.9023438,-0.94921879 0,-0.2226562 0.046875,-0.4921875 0.234375,-0.703125 0.234375,-0.2695312 0.5273438,-0.2695312 0.6796875,-0.2695312 0.1523438,0 0.2929688,0 0.46875,0.046875 -0.070312,0.046875 -0.1171875,0.1289062 -0.1171875,0.2109375 0,0.1640625 0.1289063,0.2695312 0.2695313,0.2695312 0.1171875,0 0.2695312,-0.082031 0.2695312,-0.2695312 0,-0.421875 -0.5625,-0.4335938 -0.9023437,-0.4335938 -0.984375,0 -1.3945313,0.65625 -1.3945313,1.1484375 0,0.62109379 0.5742188,1.13671879 1.3359375,1.13671879 0.8554688,0 1.0195313,-0.609375 1.0195313,-0.65625 z M 10.003156,7.109375e-4 V -0.22194531 H 9.921125 C 9.593,-0.22194531 9.593,-0.26882031 9.593,-0.42116406 V -1.4992891 c 0,-0.5507812 -0.375,-0.703125 -0.8320312,-0.703125 -0.5742188,0 -0.8320313,0.3398438 -0.9140625,0.4570313 v -1.7109375 l -0.8320313,0.058594 v 0.2109375 c 0.3632813,0 0.4101563,0.035156 0.4101563,0.28125 v 2.48437504 c 0,0.15234375 0,0.19921875 -0.3164063,0.19921875 H 7.014875 V 7.109375e-4 C 7.2258125,-0.01100781 7.43675,-0.02272656 7.6476875,-0.02272656 c 0.2109375,0 0.421875,0.01171875 0.6328125,0.0234374975 V -0.22194531 H 8.198469 c -0.328125,0 -0.328125,-0.046875 -0.328125,-0.19921875 V -1.2883516 c 0,-0.5625 0.515625,-0.75 0.8320312,-0.75 0.3632813,0 0.4453125,0.2109375 0.4453125,0.5273438 v 1.08984374 c 0,0.15234375 0,0.19921875 -0.3164062,0.19921875 h -0.09375 V 7.109375e-4 C 8.9484688,-0.01100781 9.1594063,-0.02272656 9.3703438,-0.02272656 c 0.2109375,0 0.421875,0.01171875 0.6328122,0.0234374975 z M 13.05882,-0.59694531 c 0,-0.0820313 -0.07031,-0.0820313 -0.09375,-0.0820313 -0.08203,0 -0.09375,0.0234375 -0.117187,0.09375 -0.140625,0.33984375 -0.515625,0.45703125 -0.785156,0.45703125 -0.410157,0 -0.632813,-0.22265625 -0.703125,-0.3046875 -0.199219,-0.234375 -0.199219,-0.55078125 -0.199219,-0.69140624 h 1.757812 c 0.105469,0 0.140625,0 0.140625,-0.1171875 0,-0.328125 -0.175781,-0.9843751 -1.101562,-0.9843751 -0.761719,0 -1.289063,0.5390626 -1.289063,1.1250001 0,0.63281249 0.597657,1.16015624 1.359375,1.16015624 0.796875,0 1.03125,-0.5625 1.03125,-0.65624995 z m -0.375,-0.67968749 h -1.511718 c 0.05859,-0.65625 0.539062,-0.7851563 0.773437,-0.7851563 0.691406,0 0.726563,0.6445313 0.738281,0.7851563 z M 18.516828,7.109375e-4 V -0.22194531 h -0.08203 c -0.328125,0 -0.328125,-0.046875 -0.328125,-0.19921875 V -1.4992891 c 0,-0.6210937 -0.46875,-0.703125 -0.84375,-0.703125 -0.492188,0 -0.773438,0.2460938 -0.914063,0.46875 -0.117187,-0.4570312 -0.632812,-0.46875 -0.808593,-0.46875 -0.515625,0 -0.808594,0.28125 -0.925782,0.4921875 v -0.4921875 l -0.820312,0.058594 v 0.2226562 c 0.363281,0 0.410156,0.023437 0.410156,0.2695313 v 1.23046874 c 0,0.15234375 0,0.19921875 -0.316406,0.19921875 h -0.09375 V 7.109375e-4 C 14.005109,-0.01100781 14.216047,-0.02272656 14.426984,-0.02272656 c 0.210938,0 0.421875,0.01171875 0.632813,0.0234374975 V -0.22194531 h -0.08203 c -0.328125,0 -0.328125,-0.046875 -0.328125,-0.19921875 V -1.2883516 c 0,-0.5507812 0.503906,-0.75 0.832031,-0.75 0.363281,0 0.457031,0.2109375 0.457031,0.5273438 v 1.08984374 c 0,0.15234375 0,0.19921875 -0.328125,0.19921875 h -0.09375 V 7.109375e-4 c 0.222655,-0.0117187475 0.421874,-0.0234374975 0.64453,-0.0234374975 0.210938,0 0.421875,0.01171875 0.632813,0.0234374975 V -0.22194531 h -0.09375 c -0.328125,0 -0.328125,-0.046875 -0.328125,-0.19921875 V -1.2883516 c 0,-0.5507812 0.515625,-0.75 0.832031,-0.75 0.363281,0 0.457031,0.2109375 0.457031,0.5273438 v 1.08984374 c 0,0.15234375 0,0.19921875 -0.328125,0.19921875 h -0.08203 V 7.109375e-4 C 17.462141,-0.01100781 17.673078,-0.02272656 17.884016,-0.02272656 c 0.210937,0 0.421875,0.01171875 0.632812,0.0234374975 z M 22.011945,-0.44460156 v -0.28125 h -0.210937 v 0.26953125 c 0,0.046875 0,0.26953125 -0.199219,0.26953125 -0.199219,0 -0.199219,-0.22265625 -0.199219,-0.26953125 V -1.4758516 c 0,-0.4804687 -0.503906,-0.75 -1.125,-0.75 -0.304687,0 -0.878906,0.011719 -0.878906,0.4335938 0,0.1875 0.140625,0.2695312 0.269531,0.2695312 0.128907,0 0.257813,-0.09375 0.257813,-0.2695312 0,-0.1171875 -0.07031,-0.1875 -0.117188,-0.2226563 0.164063,-0.046875 0.410157,-0.046875 0.46875,-0.046875 0.421875,0 0.679688,0.234375 0.679688,0.5859375 v 0.1289063 c -0.480469,0.023437 -0.75,0.046875 -1.136719,0.1757812 -0.328125,0.1171875 -0.609375,0.32812504 -0.609375,0.64453129 0,0.46875 0.574219,0.5859375 0.972656,0.5859375 0.386719,0 0.679688,-0.1640625 0.832032,-0.41015625 0.02344,0.17578125 0.140625,0.38671875 0.386718,0.38671875 0.03516,0 0.609375,0 0.609375,-0.48046875 z m -1.054687,-0.2578125 c 0,0.5390625 -0.597656,0.59765625 -0.714844,0.59765625 -0.292969,0 -0.574219,-0.1640625 -0.574219,-0.421875 0,-0.1640625 0.105469,-0.62109379 1.289063,-0.66796879 z m 0,0"
       style="fill:#000000;fill-opacity:1;fill-rule:nonzero;stroke:none"
       aria-label="Schema"
       transform="matrix(1.3333333,0,0,1.3333333,124.20933,22.237333)" />
    <path
       id="path5"
       d="m 4.2882187,-1.1608828 c 0,-0.082031 -0.023437,-0.1054688 -0.1054687,-0.1054688 -0.058594,0 -0.1054688,0 -0.1054688,0.082031 -0.046875,0.74999999 -0.7617187,1.07812499 -1.3476562,1.07812499 -0.703125,0 -1.6640625,-0.3984375 -1.6640625,-1.59374999 0,-1.1953125 0.9375,-1.59375 1.6523437,-1.59375 0.4570313,0 1.1835938,0.234375 1.3476563,1.171875 0.011719,0.058594 0.070312,0.058594 0.1054687,0.058594 0.1171875,0 0.1171875,-0.035156 0.1171875,-0.140625 v -1.171875 c 0,-0.082031 0,-0.140625 -0.082031,-0.140625 -0.058594,0 -0.070312,0.023437 -0.09375,0.058594 l -0.292969,0.3867185 C 3.5147812,-3.3288516 3.1280625,-3.5163516 2.635875,-3.5163516 c -1.2070313,0 -2.15625,0.8320313 -2.15625,1.8164063 0,0.98437499 0.9492187,1.80468749 2.15625,1.80468749 0.9609375,0 1.6523437,-0.609375 1.6523437,-1.26562499 z m 3.881836,1.1601562375 V -0.22338281 h -0.082031 c -0.328125,0 -0.328125,-0.046875 -0.328125,-0.19921875 V -1.5007266 c 0,-0.5507812 -0.375,-0.703125 -0.8320312,-0.703125 -0.5742188,0 -0.8320313,0.3398438 -0.9140625,0.4570313 v -1.7109375 l -0.8320313,0.058594 v 0.2109375 c 0.3632813,0 0.4101563,0.035156 0.4101563,0.28125 v 2.48437504 c 0,0.15234375 0,0.19921875 -0.3164063,0.19921875 h -0.09375 V -7.265625e-4 C 5.3927109,-0.01244531 5.6036484,-0.02416406 5.8145859,-0.02416406 c 0.2109375,0 0.421875,0.01171875 0.6328125,0.0234374975 V -0.22338281 h -0.082031 c -0.328125,0 -0.328125,-0.046875 -0.328125,-0.19921875 V -1.2897891 c 0,-0.5625 0.515625,-0.75 0.8320312,-0.75 0.3632813,0 0.4453125,0.2109375 0.4453125,0.5273438 v 1.08984374 c 0,0.15234375 0,0.19921875 -0.3164062,0.19921875 h -0.09375 V -7.265625e-4 C 7.1153672,-0.01244531 7.3263047,-0.02416406 7.5372422,-0.02416406 c 0.2109375,0 0.421875,0.01171875 0.6328125,0.0234374975 z M 11.225719,-0.59838281 c 0,-0.0820313 -0.07031,-0.0820313 -0.09375,-0.0820313 -0.08203,0 -0.09375,0.0234375 -0.117188,0.09375 -0.140625,0.33984375 -0.515625,0.45703125 -0.785156,0.45703125 -0.4101563,0 -0.6328125,-0.22265625 -0.703125,-0.3046875 -0.1992188,-0.234375 -0.1992188,-0.55078125 -0.1992188,-0.69140624 h 1.7578128 c 0.105468,0 0.140625,0 0.140625,-0.1171875 0,-0.328125 -0.175782,-0.984375 -1.101563,-0.984375 -0.7617185,0 -1.2890623,0.5390625 -1.2890623,1.125 0,0.63281249 0.5976563,1.16015624 1.3593753,1.16015624 0.796875,0 1.03125,-0.5625 1.03125,-0.65624995 z m -0.375,-0.67968749 H 9.339 c 0.058594,-0.65625 0.5390625,-0.7851563 0.773437,-0.7851563 0.691407,0 0.726563,0.6445313 0.738282,0.7851563 z m 3.418945,0.67968749 c 0,-0.0703125 -0.07031,-0.0703125 -0.09375,-0.0703125 -0.08203,0 -0.09375,0.0117188 -0.117187,0.0703125 -0.164063,0.421875 -0.527344,0.46875 -0.75,0.46875 -0.433594,0 -0.902344,-0.28125 -0.902344,-0.94921879 0,-0.2226562 0.04687,-0.4921875 0.234375,-0.703125 0.234375,-0.2695312 0.527344,-0.2695312 0.679687,-0.2695312 0.152344,0 0.292969,0 0.46875,0.046875 -0.07031,0.046875 -0.117187,0.1289062 -0.117187,0.2109375 0,0.1640625 0.128906,0.2695312 0.269531,0.2695312 0.117188,0 0.269531,-0.082031 0.269531,-0.2695312 0,-0.421875 -0.5625,-0.4335938 -0.902343,-0.4335938 -0.984375,0 -1.394532,0.65625 -1.394532,1.1484375 0,0.62109379 0.574219,1.13671879 1.335938,1.13671879 0.855469,0 1.019531,-0.609375 1.019531,-0.65625 z m 3.46875,0.5976562475 V -0.22338281 c -0.222656,0 -0.351562,0 -0.5625,-0.234375 L 16.355602,-1.3483828 c 0.08203,-0.046875 0.527343,-0.3632813 0.5625,-0.375 0.328125,-0.1992188 0.585937,-0.1992188 0.679687,-0.1992188 v -0.2226562 c -0.1875,0.023437 -0.363281,0.023437 -0.421875,0.023437 -0.199219,0 -0.492187,-0.011719 -0.65625,-0.023437 v 0.2226562 c 0.07031,0 0.07031,0.058594 0.07031,0.058594 0,0.023437 0,0.09375 -0.140625,0.1992187 l -0.808594,0.5507813 v -2.34375 l -0.84375,0.058594 v 0.2109375 c 0.375,0 0.421875,0.035156 0.421875,0.28125 v 2.48437504 c 0,0.15234375 0,0.19921875 -0.328125,0.19921875 h -0.09375 V -7.265625e-4 C 14.996227,-0.01244531 15.218883,-0.02416406 15.418102,-0.02416406 c 0.199218,0 0.421875,0.01171875 0.609375,0.0234374975 V -0.22338281 h -0.08203 c -0.328125,0 -0.328125,-0.046875 -0.328125,-0.19921875 v -0.421875 l 0.410157,-0.28125004 0.5625,0.60937504 c 0.09375,0.09375 0.152343,0.15234375 0.152343,0.22265625 0,0.0703125 -0.105468,0.0703125 -0.128906,0.0703125 V -7.265625e-4 C 16.812633,-0.01244531 17.152477,-0.02416406 17.222789,-0.02416406 c 0.1875,0 0.328125,0.01171875 0.515625,0.0234374975 z m 0,0"
       style="fill:#000000;fill-opacity:1;fill-rule:nonzero;stroke:none"
       aria-label="Check"
       transform="matrix(1.3333333,0,0,1.3333333,127.048,30.208)" />
    <path
       id="path6"
       d="m 174.63634,14.17339 h -58.3778 c -1.10046,0 -1.99255,-0.89208 -1.99255,-1.99256 v -24.36166 c 0,-1.10048 0.89209,-1.99256 1.99255,-1.99256 h 58.3778 c 1.10046,0 1.99255,0.89208 1.99255,1.99256 v 24.36166 c 0,1.10048 -0.89209,1.99256 -1.99255,1.99256 z"
       style="fill:#f5f5f5;fill-opacity:1;fill-rule:nonzero;stroke:#4c4c4c;stroke-width:0.74721;stroke-linecap:butt;stroke-linejoin:miter;stroke-miterlimit:10;stroke-dasharray:none;stroke-opacity:1"
       transform="matrix(1.3333333,0,0,-1.3333333,42.073333,23.954667)" />
    <path
       id="path7"
       d="M 3.1764063,-5.8016719 H 5.3209375 V -6.5399531 H 0.188125 v 0.7382812 h 2.15625 v 5.800781275 h 0.8320313 z m 1.8486328,1.1015625 v 4.699218775 h 0.75 V -2.4383906 c 0,-0.6679688 0.1757812,-1.1132813 0.5273437,-1.3710938 0.234375,-0.1757812 0.4570313,-0.2226562 0.984375,-0.234375 v -0.7617187 c -0.1289062,-0.023437 -0.1992187,-0.023437 -0.2929687,-0.023437 -0.4804688,0 -0.8554688,0.28125 -1.2773438,0.984375 v -0.8554688 z m 7.0664059,4.26562503 c -0.08203,0.0117188 -0.117187,0.0117188 -0.152343,0.0117188 -0.269532,0 -0.410157,-0.12890625 -0.410157,-0.36328125 V -3.5516719 c 0,-0.8320312 -0.609375,-1.2773437 -1.7695309,-1.2773437 -0.6796875,0 -1.2421875,0.1875 -1.5585938,0.5390625 -0.2109375,0.2460937 -0.3046875,0.515625 -0.3164062,0.984375 h 0.75 c 0.058594,-0.5742188 0.3984375,-0.8320313 1.1015625,-0.8320313 0.6679684,0 1.0546874,0.2460938 1.0546874,0.6914063 v 0.1992187 c 0,0.3164063 -0.1875,0.4453125 -0.785156,0.515625 -1.0546877,0.140625 -1.2187502,0.1757813 -1.5000002,0.2929688 -0.5507812,0.2226562 -0.8320312,0.6445312 -0.8320312,1.2539062 0,0.85546878 0.5976562,1.39453128 1.546875,1.39453128 0.5859375,0 1.0664064,-0.210937505 1.5937504,-0.69140625 0.04687,0.46875 0.28125,0.69140625 0.773437,0.69140625 0.152344,0 0.269531,-0.0234375 0.503906,-0.0820313 z M 10.790664,-1.4774531 c 0,0.2460937 -0.08203,0.3984375 -0.304687,0.60937498 -0.304688,0.28125 -0.6679692,0.421875 -1.1132817,0.421875 -0.5742187,0 -0.9140625,-0.28125 -0.9140625,-0.76171878 0,-0.4921875 0.328125,-0.7382812 1.125,-0.8554687 0.7851562,-0.1054688 0.9492192,-0.140625 1.2070312,-0.2578125 z m 2.841797,-3.2226563 h -0.75 v 4.699218775 h 0.75 z m 0,-1.8398437 h -0.761719 v 0.9492187 h 0.761719 z m 1.274414,1.8398437 v 4.699218775 h 0.75 V -2.5907344 c 0,-0.9609375 0.503906,-1.5820312 1.265625,-1.5820312 0.597656,0 0.972656,0.3515625 0.972656,0.9140625 v 3.257812475 h 0.75 V -3.5516719 c 0,-0.7734375 -0.585937,-1.2773437 -1.488281,-1.2773437 -0.703125,0 -1.148437,0.2695312 -1.570312,0.9140625 v -0.7851563 z m 5.701172,0 h -0.75 v 4.699218775 h 0.75 z m 0,-1.8398437 h -0.761719 v 0.9492187 h 0.761719 z m 1.274414,1.8398437 v 4.699218775 h 0.75 V -2.5907344 c 0,-0.9609375 0.503906,-1.5820312 1.265625,-1.5820312 0.597656,0 0.972656,0.3515625 0.972656,0.9140625 v 3.257812475 h 0.75 V -3.5516719 c 0,-0.7734375 -0.585937,-1.2773437 -1.488281,-1.2773437 -0.703125,0 -1.148438,0.2695312 -1.570313,0.9140625 v -0.7851563 z m 8.044922,0 v 0.6796875 c -0.375,-0.5507812 -0.832031,-0.8085937 -1.429688,-0.8085937 -1.195312,0 -2.003906,1.03125 -2.003906,2.5546875 0,0.7734375 0.210938,1.40624998 0.597656,1.85156248 0.351563,0.3984375 0.84375,0.6328125 1.335938,0.6328125 0.597656,0 1.007812,-0.2578125 1.429687,-0.84375 v 0.234375 c 0,0.64453125 -0.08203,1.03125 -0.269531,1.2890625 C 29.38832,1.1592656 29.001602,1.3233281 28.54457,1.3233281 c -0.339843,0 -0.644531,-0.082031 -0.84375,-0.2460937 C 27.525039,0.93660938 27.454727,0.81942188 27.407852,0.53817188 h -0.761719 c 0.08203,0.89062502 0.773437,1.41796872 1.875,1.41796872 0.703125,0 1.300781,-0.2226562 1.605469,-0.5976562 0.363281,-0.43359377 0.492187,-1.03125002 0.492187,-2.13281252 V -4.7001094 Z m -1.347656,0.5625 c 0.808593,0 1.277343,0.6796875 1.277343,1.8515625 0,1.125 -0.480468,1.80468753 -1.277343,1.80468753 -0.808594,0 -1.300782,-0.69140623 -1.300782,-1.82812503 0,-1.1367187 0.503907,-1.828125 1.300782,-1.828125 z m 0,0"
       style="fill:#000000;fill-opacity:1;fill-rule:nonzero;stroke:none"
       aria-label="Training"
       transform="matrix(1.3333333,0,0,1.3333333,215.18667,26.884)" />
    <path
       id="path8"
       d="M 240.2146,0 215.95941,16.11841 191.70424,0 215.95941,-16.11841 Z"
       style="fill:#fce4cc;fill-opacity:1;fill-rule:nonzero;stroke:#ff4c4c;stroke-width:0.74721;stroke-linecap:butt;stroke-linejoin:miter;stroke-miterlimit:10;stroke-dasharray:none;stroke-opacity:1"
       transform="matrix(1.3333333,0,0,-1.3333333,42.073333,23.954667)" />
    <path
       id="path9"
       d="M 3.7380234,-1.3476094 H 3.5270859 c -0.070312,0.57421878 -0.2109375,1.12500003 -1.171875,1.12500003 H 1.7341172 c -0.234375,0 -0.234375,-0.0351562 -0.234375,-0.1875 V -2.9765156 c 0,-0.1523438 0,-0.2109375 0.46875,-0.2109375 h 0.2226562 v -0.2109375 c -0.28125,0.011719 -0.65625,0.011719 -0.9375,0.011719 l -0.84374996,-0.011719 v 0.2109375 h 0.15234375 c 0.3984375,0 0.3984375,0.058594 0.3984375,0.2109375 v 2.55468748 c 0,0.15234375 0,0.19921875 -0.3984375,0.19921875 H 0.40989844 V 4.6875e-5 H 3.5739609 Z m 3.459961,0.28125 c 0,-0.6210937 -0.5859375,-1.1601562 -1.359375,-1.1601562 -0.7851563,0 -1.3710938,0.5390625 -1.3710938,1.1601562 0,0.59765628 0.5859375,1.12500003 1.3710938,1.12500003 0.7734375,0 1.359375,-0.52734375 1.359375,-1.12500003 z m -0.4921875,-0.046875 c 0,0.24609378 0,0.98437503 -0.8671875,0.98437503 -0.8789063,0 -0.8789063,-0.73828125 -0.8789063,-0.98437503 0,-0.2226562 0,-0.9492187 0.8789063,-0.9492187 0.8671875,0 0.8671875,0.7265625 0.8671875,0.9492187 z m 3.2050781,0.48046878 c 0,-0.22265625 -0.1171875,-0.38671878 -0.3164062,-0.50390628 C 9.39525,-1.2655781 9.254625,-1.2772969 8.83275,-1.3476094 c -0.3164062,-0.046875 -0.703125,-0.1054687 -0.703125,-0.375 0,-0.1757812 0.1992188,-0.3632812 0.7382813,-0.3632812 0.4101562,0 0.65625,0.1640625 0.6796875,0.515625 0.011719,0.070312 0.011719,0.1054687 0.1054687,0.1054687 0.1054688,0 0.1054688,-0.035156 0.1054688,-0.140625 v -0.4921875 c 0,-0.082031 0,-0.1289062 -0.082031,-0.1289062 -0.023437,0 -0.046875,0 -0.082031,0.035156 -0.023437,0.011719 -0.1054688,0.09375 -0.1289063,0.09375 0,0 -0.011719,0 -0.046875,-0.023437 -0.117188,-0.058594 -0.2929692,-0.105469 -0.5507817,-0.105469 -0.8203125,0 -0.984375,0.375 -0.984375,0.5976562 0,0.46875 0.5742187,0.5625 1.03125,0.63281253 0.2929687,0.046875 0.75,0.1171875 0.75,0.45703125 0,0.17578125 -0.140625,0.43359375 -0.75,0.43359375 -0.3398438,0 -0.6679688,-0.12890625 -0.8203125,-0.65625 -0.023437,-0.09375 -0.023437,-0.10546875 -0.1054688,-0.10546875 -0.1054687,0 -0.1054687,0.0351563 -0.1054687,0.140625 v 0.64453125 c 0,0.082031245 0,0.140625 0.082031,0.140625 0.035156,0 0.035156,-0.01171875 0.1289063,-0.10546875 l 0.140625,-0.1171875 c 0.2460937,0.2109375 0.5625,0.22265625 0.6796875,0.22265625 0.8320312,0 0.9960937,-0.43359375 0.9960939,-0.69140625 z m 2.733398,0 c 0,-0.22265625 -0.117187,-0.38671878 -0.316406,-0.50390628 -0.199219,-0.1289062 -0.339844,-0.140625 -0.761719,-0.2109375 -0.316406,-0.046875 -0.703125,-0.1054687 -0.703125,-0.375 0,-0.1757812 0.199219,-0.3632812 0.738282,-0.3632812 0.410156,0 0.65625,0.1640625 0.679687,0.515625 0.01172,0.070312 0.01172,0.1054687 0.105469,0.1054687 0.105469,0 0.105469,-0.035156 0.105469,-0.140625 v -0.4921875 c 0,-0.082031 0,-0.1289062 -0.08203,-0.1289062 -0.02344,0 -0.04687,0 -0.08203,0.035156 -0.02344,0.011719 -0.105469,0.09375 -0.128906,0.09375 0,0 -0.01172,0 -0.04687,-0.023437 -0.117188,-0.058594 -0.292969,-0.1054687 -0.550781,-0.1054687 -0.820313,0 -0.984375,0.375 -0.984375,0.5976562 0,0.46875 0.574218,0.5625 1.03125,0.63281253 0.292968,0.046875 0.75,0.1171875 0.75,0.45703125 0,0.17578125 -0.140625,0.43359375 -0.75,0.43359375 -0.339844,0 -0.667969,-0.12890625 -0.820313,-0.65625 -0.02344,-0.09375 -0.02344,-0.10546875 -0.105469,-0.10546875 -0.105468,0 -0.105468,0.0351563 -0.105468,0.140625 v 0.64453125 c 0,0.082031245 0,0.140625 0.08203,0.140625 0.03516,0 0.03516,-0.01171875 0.128906,-0.10546875 l 0.140625,-0.1171875 c 0.246094,0.2109375 0.5625,0.22265625 0.679688,0.22265625 0.832031,0 0.996093,-0.43359375 0.996093,-0.69140625 z m 0,0"
       style="fill:#000000;fill-opacity:1;fill-rule:nonzero;stroke:none"
       aria-label="Loss"
       transform="matrix(1.3333333,0,0,1.3333333,321.348,22.164)" />
    <path
       id="path10"
       d="m 4.2895703,-1.1615469 c 0,-0.082031 -0.023437,-0.1054687 -0.1054687,-0.1054687 -0.058594,0 -0.1054688,0 -0.1054688,0.082031 -0.046875,0.75000003 -0.7617187,1.07812503 -1.3476562,1.07812503 -0.703125,0 -1.6640625,-0.3984375 -1.6640625,-1.59375003 0,-1.1953125 0.9375,-1.59375 1.6523437,-1.59375 0.4570313,0 1.1835938,0.234375 1.3476563,1.171875 0.011719,0.058594 0.070312,0.058594 0.1054687,0.058594 0.1171875,0 0.1171875,-0.035156 0.1171875,-0.140625 v -1.171875 c 0,-0.082031 0,-0.140625 -0.082031,-0.140625 -0.058594,0 -0.070312,0.023437 -0.09375,0.058594 l -0.292969,0.3867185 C 3.5161328,-3.3295156 3.1294141,-3.5170156 2.6372266,-3.5170156 c -1.2070313,0 -2.15625004,0.8320312 -2.15625004,1.8164062 0,0.98437503 0.94921874,1.80468753 2.15625004,1.80468753 0.9609375,0 1.6523437,-0.609375 1.6523437,-1.26562503 z m 3.881836,1.16015628 V -0.22404687 H 8.089375 c -0.328125,0 -0.328125,-0.046875 -0.328125,-0.19921875 V -1.5013906 c 0,-0.5507813 -0.375,-0.703125 -0.8320312,-0.703125 -0.5742188,0 -0.8320313,0.3398437 -0.9140625,0.4570312 v -1.7109375 l -0.8320313,0.058594 v 0.2109375 c 0.3632813,0 0.4101563,0.035156 0.4101563,0.28125 v 2.48437498 c 0,0.15234375 0,0.19921875 -0.3164063,0.19921875 h -0.09375 v 0.22265625 c 0.2109375,-0.01171875 0.421875,-0.0234375 0.6328125,-0.0234375 0.2109375,0 0.421875,0.01171875 0.6328125,0.0234375 V -0.22404667 H 6.366719 c -0.328125,0 -0.328125,-0.046875 -0.328125,-0.19921875 V -1.2904531 c 0,-0.5625 0.515625,-0.75 0.8320312,-0.75 0.3632813,0 0.4453125,0.2109375 0.4453125,0.5273437 v 1.08984378 c 0,0.15234375 0,0.19921875 -0.3164062,0.19921875 h -0.09375 v 0.22265625 c 0.2109375,-0.01171875 0.421875,-0.0234375 0.6328125,-0.0234375 0.2109375,0 0.421875,0.01171875 0.6328123,0.0234375 z M 11.22707,-0.59904687 c 0,-0.0820313 -0.07031,-0.0820313 -0.09375,-0.0820313 -0.08203,0 -0.09375,0.0234375 -0.117187,0.09375 -0.140625,0.33984375 -0.515625,0.45703125 -0.785156,0.45703125 -0.4101567,0 -0.6328129,-0.22265625 -0.7031254,-0.3046875 -0.1992188,-0.234375 -0.1992188,-0.55078125 -0.1992188,-0.69140618 h 1.7578122 c 0.105469,0 0.140625,0 0.140625,-0.1171875 0,-0.328125 -0.175781,-0.9843751 -1.101562,-0.9843751 -0.7617189,0 -1.2890627,0.5390625 -1.2890627,1.125 0,0.63281253 0.5976563,1.16015628 1.3593747,1.16015628 0.796875,0 1.03125,-0.5625 1.03125,-0.65624995 z m -0.375,-0.67968753 H 9.3403516 c 0.058594,-0.65625 0.5390625,-0.7851562 0.7734374,-0.7851562 0.691406,0 0.726563,0.6445312 0.738281,0.7851562 z m 3.418946,0.67968753 c 0,-0.0703125 -0.07031,-0.0703125 -0.09375,-0.0703125 -0.08203,0 -0.09375,0.0117188 -0.117188,0.0703125 -0.164062,0.421875 -0.527344,0.46875 -0.75,0.46875 -0.433594,0 -0.902344,-0.28125 -0.902344,-0.94921873 0,-0.2226563 0.04687,-0.4921875 0.234375,-0.703125 0.234375,-0.2695313 0.527344,-0.2695313 0.679688,-0.2695313 0.152344,0 0.292969,0 0.46875,0.046875 -0.07031,0.046875 -0.117188,0.1289063 -0.117188,0.2109375 0,0.1640625 0.128907,0.2695313 0.269532,0.2695313 0.117187,0 0.269531,-0.082031 0.269531,-0.2695313 0,-0.421875 -0.5625,-0.4335937 -0.902344,-0.4335937 -0.984375,0 -1.394531,0.65625 -1.394531,1.1484375 0,0.62109373 0.574219,1.13671873 1.335937,1.13671873 0.855469,0 1.019532,-0.609375 1.019532,-0.65625 z m 3.46582,0.59765625 v -0.22265625 c -0.222656,0 -0.351563,0 -0.5625,-0.234375 L 16.354023,-1.3490469 c 0.08203,-0.046875 0.527344,-0.3632812 0.5625,-0.375 0.328125,-0.1992187 0.585938,-0.1992187 0.679688,-0.1992187 v -0.2226563 c -0.1875,0.023437 -0.363281,0.023437 -0.421875,0.023437 -0.199219,0 -0.492188,-0.011719 -0.65625,-0.023437 v 0.2226563 c 0.07031,0 0.07031,0.058594 0.07031,0.058594 0,0.023437 0,0.09375 -0.140625,0.1992188 l -0.808593,0.5507812 v -2.34375 l -0.84375,0.058594 v 0.2109375 c 0.375,0 0.421875,0.035156 0.421875,0.28125 v 2.48437498 c 0,0.15234375 0,0.19921875 -0.328125,0.19921875 h -0.09375 v 0.22265625 c 0.199218,-0.01171875 0.421875,-0.0234375 0.621093,-0.0234375 0.199219,0 0.421875,0.01171875 0.609375,0.0234375 v -0.22265625 h -0.08203 c -0.328125,0 -0.328125,-0.046875 -0.328125,-0.19921875 v -0.421875 l 0.410156,-0.28124998 0.5625,0.60937498 c 0.09375,0.09375 0.152344,0.15234375 0.152344,0.22265625 0,0.0703125 -0.105469,0.0703125 -0.128906,0.0703125 v 0.22265625 c 0.199219,-0.01171875 0.539062,-0.0234375 0.609375,-0.0234375 0.1875,0 0.328125,0.01171875 0.515625,0.0234375 z m 0,0"
       style="fill:#000000;fill-opacity:1;fill-rule:nonzero;stroke:none"
       aria-label="Check"
       transform="matrix(1.3333333,0,0,1.3333333,318.02667,30.134667)" />
    <path
       id="path11"
       d="m 315.6603,14.17339 h -58.3778 c -1.10048,0 -1.99255,-0.89208 -1.99255,-1.99256 v -24.36166 c 0,-1.10048 0.89207,-1.99256 1.99255,-1.99256 h 58.3778 c 1.10046,0 1.99255,0.89208 1.99255,1.99256 v 24.36166 c 0,1.10048 -0.89209,1.99256 -1.99255,1.99256 z"
       style="fill:#f5f5f5;fill-opacity:1;fill-rule:nonzero;stroke:#4c4c4c;stroke-width:0.74721;stroke-linecap:butt;stroke-linejoin:miter;stroke-miterlimit:10;stroke-dasharray:none;stroke-opacity:1"
       transform="matrix(1.3333333,0,0,-1.3333333,42.073333,23.954667)" />
    <path
       id="path12"
       d="m 1.6397734,-2.9771641 h 3.5625 v -0.7382812 h -3.5625 V -5.8013828 H 5.3311797 V -6.5396641 H 0.80774219 V -6.015625e-4 H 5.4952422 V -0.73888281 H 1.6397734 Z M 8.5362578,-6.015625e-4 10.340945,-4.6998203 H 9.4971953 L 8.1729766,-0.89122656 6.9190703,-4.6998203 h -0.84375 l 1.640625,4.6992187375 z M 15.031375,-0.43419531 c -0.08203,0.0117188 -0.117187,0.0117188 -0.152344,0.0117188 -0.269531,0 -0.410156,-0.12890625 -0.410156,-0.36328125 V -3.5513828 c 0,-0.8320313 -0.609375,-1.2773438 -1.769531,-1.2773438 -0.679688,0 -1.242188,0.1875 -1.558594,0.5390625 -0.210937,0.2460938 -0.304687,0.515625 -0.316406,0.984375 h 0.75 c 0.05859,-0.5742187 0.398437,-0.8320312 1.101562,-0.8320312 0.667969,0 1.054688,0.2460937 1.054688,0.6914062 v 0.1992188 c 0,0.3164062 -0.1875,0.4453125 -0.785156,0.515625 -1.054688,0.140625 -1.21875,0.1757812 -1.5,0.2929687 -0.550782,0.2226563 -0.832032,0.6445313 -0.832032,1.2539063 0,0.85546874 0.597657,1.39453124 1.546875,1.39453124 0.585938,0 1.066407,-0.2109375025 1.59375,-0.69140625 0.04687,0.46875 0.28125,0.69140625 0.773438,0.69140625 0.152344,0 0.269531,-0.0234375 0.503906,-0.0820313 z M 13.730594,-1.4771641 c 0,0.2460938 -0.08203,0.3984375 -0.304688,0.60937504 -0.304687,0.28125 -0.667968,0.421875 -1.113281,0.421875 -0.574219,0 -0.914062,-0.28125 -0.914062,-0.76171874 0,-0.4921875 0.328125,-0.7382813 1.125,-0.8554688 0.785156,-0.1054687 0.949218,-0.140625 1.207031,-0.2578125 z m 2.853515,-5.0625 h -0.75 v 6.5390625375 h 0.75 z m 4.954102,6.5390625375 V -4.6998203 h -0.75 v 2.6601562 c 0,0.9609375 -0.503906,1.59375004 -1.277344,1.59375004 -0.597656,0 -0.972656,-0.36328125 -0.972656,-0.92578124 v -3.328125 H 17.79993 v 3.6210937 c 0,0.78515629 0.574218,1.28906254 1.488281,1.28906254 0.691406,0 1.136719,-0.24609375 1.570312,-0.8671875 V -6.015625e-4 Z M 26.993289,-0.43419531 c -0.08203,0.0117188 -0.117187,0.0117188 -0.152344,0.0117188 -0.269531,0 -0.410156,-0.12890625 -0.410156,-0.36328125 V -3.5513828 c 0,-0.8320313 -0.609375,-1.2773438 -1.769531,-1.2773438 -0.679688,0 -1.242188,0.1875 -1.558594,0.5390625 -0.210937,0.2460938 -0.304687,0.515625 -0.316406,0.984375 h 0.75 c 0.05859,-0.5742187 0.398437,-0.8320312 1.101562,-0.8320312 0.667969,0 1.054688,0.2460937 1.054688,0.6914062 v 0.1992188 c 0,0.3164062 -0.1875,0.4453125 -0.785156,0.515625 -1.054688,0.140625 -1.21875,0.1757812 -1.5,0.2929687 -0.550782,0.2226563 -0.832032,0.6445313 -0.832032,1.2539063 0,0.85546874 0.597657,1.39453124 1.546875,1.39453124 0.585938,0 1.066407,-0.2109375025 1.59375,-0.69140625 0.04687,0.46875 0.28125,0.69140625 0.773438,0.69140625 0.152344,0 0.269531,-0.0234375 0.503906,-0.0820313 z M 25.692508,-1.4771641 c 0,0.2460938 -0.08203,0.3984375 -0.304688,0.60937504 -0.304687,0.28125 -0.667968,0.421875 -1.113281,0.421875 -0.574219,0 -0.914062,-0.28125 -0.914062,-0.76171874 0,-0.4921875 0.328125,-0.7382813 1.125,-0.8554688 0.785156,-0.1054687 0.949218,-0.140625 1.207031,-0.2578125 z m 3.767578,-3.2226562 h -0.761719 v -1.2890625 h -0.75 v 1.2890625 h -0.632812 v 0.609375 h 0.632812 v 3.55078124 c 0,0.48046875 0.328125,0.75 0.902344,0.75 0.1875,0 0.363281,-0.0234375 0.609375,-0.0703125 v -0.62109375 c -0.09375,0.0234375 -0.210938,0.0351563 -0.351563,0.0351563 -0.328125,0 -0.410156,-0.09375 -0.410156,-0.421875 V -4.0904453 h 0.761719 z m 1.567383,0 h -0.75 v 4.6992187375 h 0.75 z m 0,-1.8398438 H 30.26575 v 0.9492188 h 0.761719 z m 3.079101,1.7109375 c -1.3125,0 -2.109375,0.9375 -2.109375,2.5195313 0,1.57031249 0.785157,2.51953124 2.121094,2.51953124 1.3125,0 2.121094,-0.94921875 2.121094,-2.48437504 0,-1.6289062 -0.773438,-2.5546875 -2.132813,-2.5546875 z m 0.01172,0.6914063 c 0.84375,0 1.347656,0.6796875 1.347656,1.8515625 0,1.1015625 -0.527343,1.80468749 -1.347656,1.80468749 -0.832031,0 -1.347656,-0.69140629 -1.347656,-1.82812499 0,-1.1367188 0.515625,-1.828125 1.347656,-1.828125 z m 3.169922,-0.5625 v 4.6992187375 h 0.75 V -2.5904453 c 0,-0.9609375 0.503906,-1.5820313 1.265625,-1.5820313 0.597656,0 0.972656,0.3515625 0.972656,0.9140625 v 3.2578125375 h 0.75 V -3.5513828 c 0,-0.7734375 -0.585937,-1.2773438 -1.488281,-1.2773438 -0.703125,0 -1.148438,0.2695313 -1.570313,0.9140625 v -0.7851562 z m 0,0"
       style="fill:#000000;fill-opacity:1;fill-rule:nonzero;stroke:none"
       aria-label="Evaluation"
       transform="matrix(1.3333333,0,0,1.3333333,396.27067,28.145333)" />
    <path
       id="path13"
       d="M 382.67322,0 357.7007,16.59662 332.72818,0 357.7007,-16.59662 Z"
       style="fill:#fce4cc;fill-opacity:1;fill-rule:nonzero;stroke:#ff4c4c;stroke-width:0.74721;stroke-linecap:butt;stroke-linejoin:miter;stroke-miterlimit:10;stroke-dasharray:none;stroke-opacity:1"
       transform="matrix(1.3333333,0,0,-1.3333333,42.073333,23.954667)" />
    <path
       id="path14"
       d="M 5.4716719,4.6875e-5 V -0.22260937 H 5.3193281 c -0.3984375,0 -0.3984375,-0.046875 -0.3984375,-0.19921875 V -2.9765156 c 0,-0.1523438 0,-0.2109375 0.3984375,-0.2109375 H 5.4716719 V -3.3983906 H 4.5107344 c -0.1054688,0 -0.1523438,0 -0.2109375,0.1054687 L 2.9521406,-0.46870312 1.6162031,-3.2812031 C 1.5576094,-3.3983906 1.5107344,-3.3983906 1.4052656,-3.3983906 H 0.44432813 v 0.2109375 h 0.15234375 c 0.3984375,0 0.3984375,0.058594 0.3984375,0.2109375 v 2.42578123 c 0,0.12890625 0,0.328125 -0.55078125,0.328125 V 4.6875e-5 C 0.66698438,-0.01167187 0.88964063,-0.02339062 1.1122969,-0.02339062 c 0.140625,0 0.4570312,0.01171875 0.6679687,0.023437495 V -0.22260937 c -0.5507812,0 -0.5507812,-0.19921875 -0.5507812,-0.328125 V -3.1522969 l 1.4414062,3.03515628 c 0.046875,0.08203125 0.082031,0.117187495 0.1523438,0.117187495 0.09375,0 0.1289062,-0.070312495 0.1523437,-0.117187495 L 4.4521406,-3.1874531 v 2.76562498 c 0,0.15234375 0,0.19921875 -0.3984375,0.19921875 H 3.9013594 V 4.6875e-5 L 4.6865156,-0.02339062 Z M 8.6415938,-0.59760937 c 0,-0.0820313 -0.070312,-0.0820313 -0.09375,-0.0820313 -0.082031,0 -0.09375,0.0234375 -0.1171875,0.09375 -0.140625,0.33984375 -0.515625,0.45703125 -0.7851563,0.45703125 -0.4101562,0 -0.6328125,-0.22265625 -0.703125,-0.3046875 -0.1992187,-0.234375 -0.1992187,-0.55078125 -0.1992187,-0.69140618 h 1.7578125 c 0.1054687,0 0.140625,0 0.140625,-0.1171875 0,-0.3281251 -0.1757813,-0.9843751 -1.1015625,-0.9843751 -0.7617188,0 -1.2890625,0.5390625 -1.2890625,1.1250001 0,0.63281243 0.5976562,1.16015618 1.359375,1.16015618 0.796875,0 1.03125,-0.5625 1.03125,-0.65624995 z m -0.375,-0.67968753 H 6.754875 c 0.058594,-0.65625 0.5390625,-0.7851562 0.7734375,-0.7851562 0.6914063,0 0.7265625,0.6445312 0.7382813,0.7851562 z m 2.9150392,0.64453128 v -0.26953125 h -0.210938 v 0.2578125 c 0,0.375 -0.222656,0.515625 -0.398437,0.515625 -0.375,0 -0.375,-0.3984375 -0.375,-0.50390625 V -1.9218281 h 0.878906 V -2.1444844 H 10.197258 V -3.0585469 H 9.9863203 c -0.011719,0.46875 -0.2578125,0.9492188 -0.7617187,0.9609375 v 0.1757813 h 0.5273437 v 1.28906248 c 0,0.57421875 0.4687497,0.69140625 0.7734377,0.69140625 0.375,0 0.65625,-0.28125 0.65625,-0.69140625 z m 2.874023,-1.23046878 c 0,-0.1875 -0.1875,-0.3398437 -0.445312,-0.3398437 -0.246094,0 -0.574219,0.1289062 -0.761719,0.5507812 h -0.01172 v -0.5507812 l -0.796875,0.058594 v 0.2226563 c 0.375,0 0.421875,0.023437 0.421875,0.2695312 v 1.23046878 c 0,0.15234375 0,0.19921875 -0.328125,0.19921875 H 12.04003 V 4.6875e-5 C 12.250969,-0.01167187 12.473625,-0.02339062 12.684563,-0.02339062 L 13.399406,4.6875e-5 V -0.22260937 h -0.140625 c -0.375,0 -0.375,-0.046875 -0.375,-0.19921875 V -1.1132344 c 0,-0.46875 0.257813,-0.9140625 0.738282,-0.9257812 0,0 -0.07031,0.070312 -0.07031,0.1757812 0,0.1875 0.140625,0.2578125 0.246094,0.2578125 0.128906,0 0.257812,-0.082031 0.257812,-0.2578125 z M 15.995109,4.6875e-5 V -0.22260937 c -0.339843,0 -0.375,0 -0.375,-0.19921875 V -2.2030781 l -0.820312,0.058594 v 0.2226563 c 0.351562,0 0.398437,0.023437 0.398437,0.2695312 v 1.23046878 c 0,0.15234375 0,0.19921875 -0.328125,0.19921875 h -0.09375 V 4.6875e-5 c 0.210938,-0.011718745 0.421875,-0.023437495 0.621094,-0.023437495 0.1875,0 0.410156,0.01171875 0.597656,0.023437495 z M 15.666984,-2.9882344 c 0,-0.1640625 -0.128906,-0.3046875 -0.304687,-0.3046875 -0.164063,0 -0.292969,0.140625 -0.292969,0.3046875 0,0.1640625 0.128906,0.3046875 0.292969,0.3046875 0.164062,0 0.304687,-0.140625 0.304687,-0.3046875 z m 3.424805,2.39062503 c 0,-0.0703125 -0.07031,-0.0703125 -0.09375,-0.0703125 -0.08203,0 -0.09375,0.0117188 -0.117187,0.0703125 -0.164063,0.421875 -0.527344,0.46875 -0.75,0.46875 -0.433594,0 -0.902344,-0.28125 -0.902344,-0.94921873 0,-0.2226563 0.04687,-0.4921875 0.234375,-0.703125 0.234375,-0.2695313 0.527344,-0.2695313 0.679687,-0.2695313 0.152344,0 0.292969,0 0.46875,0.046875 -0.07031,0.046875 -0.117187,0.1289063 -0.117187,0.2109375 0,0.1640625 0.128906,0.2695313 0.269531,0.2695313 0.117188,0 0.269531,-0.082031 0.269531,-0.2695313 0,-0.421875 -0.5625,-0.4335937 -0.902343,-0.4335937 -0.984375,0 -1.394532,0.65625 -1.394532,1.1484375 0,0.62109373 0.574219,1.13671873 1.335938,1.13671873 0.855469,0 1.019531,-0.609375 1.019531,-0.65625 z m 0,0"
       style="fill:#000000;fill-opacity:1;fill-rule:nonzero;stroke:none"
       aria-label="Metric"
       transform="matrix(1.3333333,0,0,1.3333333,506.056,22.164)" />
    <path
       id="path15"
       d="m 4.2888516,-1.1615469 c 0,-0.082031 -0.023437,-0.1054687 -0.1054688,-0.1054687 -0.058594,0 -0.1054687,0 -0.1054687,0.082031 -0.046875,0.75000003 -0.7617188,1.07812503 -1.3476563,1.07812503 -0.703125,0 -1.6640625,-0.3984375 -1.6640625,-1.59375003 0,-1.1953125 0.9375,-1.59375 1.6523438,-1.59375 0.4570312,0 1.1835937,0.234375 1.3476562,1.171875 0.011719,0.058594 0.070312,0.058594 0.1054688,0.058594 0.1171875,0 0.1171875,-0.035156 0.1171875,-0.140625 v -1.171875 c 0,-0.082031 0,-0.140625 -0.082031,-0.140625 -0.058594,0 -0.070312,0.023437 -0.09375,0.058594 l -0.292969,0.3867185 C 3.5154141,-3.3295156 3.1286953,-3.5170156 2.6365078,-3.5170156 c -1.2070312,0 -2.15624999,0.8320312 -2.15624999,1.8164062 0,0.98437503 0.94921879,1.80468753 2.15624999,1.80468753 0.9609375,0 1.6523438,-0.609375 1.6523438,-1.26562503 z m 3.8818359,1.16015628 v -0.22265625 h -0.082031 c -0.328125,0 -0.328125,-0.046875 -0.328125,-0.19921875 V -1.5013906 c 0,-0.5507813 -0.375,-0.703125 -0.8320313,-0.703125 -0.5742187,0 -0.8320312,0.3398437 -0.9140625,0.4570312 v -1.7109375 l -0.8320312,0.058594 v 0.2109375 c 0.3632812,0 0.4101562,0.035156 0.4101562,0.28125 v 2.48437498 c 0,0.15234375 0,0.19921875 -0.3164062,0.19921875 h -0.09375 v 0.22265625 c 0.2109375,-0.01171875 0.421875,-0.0234375 0.6328125,-0.0234375 0.2109375,0 0.421875,0.01171875 0.6328125,0.0234375 V -0.22404687 H 6.366 c -0.328125,0 -0.328125,-0.046875 -0.328125,-0.19921875 V -1.2904531 c 0,-0.5625 0.515625,-0.75 0.8320313,-0.75 0.3632812,0 0.4453125,0.2109375 0.4453125,0.5273437 v 1.08984378 c 0,0.15234375 0,0.19921875 -0.3164063,0.19921875 h -0.09375 v 0.22265625 c 0.2109375,-0.01171875 0.421875,-0.0234375 0.6328125,-0.0234375 0.2109375,0 0.421875,0.01171875 0.6328125,0.0234375 z m 3.0556645,-0.59765625 c 0,-0.0820313 -0.07031,-0.0820313 -0.09375,-0.0820313 -0.08203,0 -0.09375,0.0234375 -0.117188,0.09375 -0.140625,0.33984375 -0.515625,0.45703125 -0.785156,0.45703125 -0.4101564,0 -0.6328127,-0.22265625 -0.7031252,-0.3046875 -0.1992187,-0.234375 -0.1992187,-0.55078125 -0.1992187,-0.69140618 h 1.7578129 c 0.105468,0 0.140625,0 0.140625,-0.1171875 0,-0.328125 -0.175782,-0.9843751 -1.101563,-0.9843751 -0.7617187,0 -1.2890624,0.5390625 -1.2890624,1.125 0,0.63281253 0.5976562,1.16015628 1.3593754,1.16015628 0.796875,0 1.03125,-0.5625 1.03125,-0.65624995 z m -0.375,-0.67968753 H 9.3396328 c 0.058594,-0.65625 0.5390625,-0.7851562 0.7734372,-0.7851562 0.691407,0 0.726563,0.6445312 0.738282,0.7851562 z m 3.418945,0.67968753 c 0,-0.0703125 -0.07031,-0.0703125 -0.09375,-0.0703125 -0.08203,0 -0.09375,0.0117188 -0.117188,0.0703125 -0.164062,0.421875 -0.527343,0.46875 -0.75,0.46875 -0.433593,0 -0.902343,-0.28125 -0.902343,-0.94921873 0,-0.2226563 0.04687,-0.4921875 0.234375,-0.703125 0.234375,-0.2695313 0.527343,-0.2695313 0.679687,-0.2695313 0.152344,0 0.292969,0 0.46875,0.046875 -0.07031,0.046875 -0.117187,0.1289063 -0.117187,0.2109375 0,0.1640625 0.128906,0.2695313 0.269531,0.2695313 0.117187,0 0.269531,-0.082031 0.269531,-0.2695313 0,-0.421875 -0.5625,-0.4335937 -0.902344,-0.4335937 -0.984375,0 -1.394531,0.65625 -1.394531,1.1484375 0,0.62109373 0.574219,1.13671873 1.335938,1.13671873 0.855468,0 1.019531,-0.609375 1.019531,-0.65625 z m 3.47168,0.59765625 v -0.22265625 c -0.222657,0 -0.351563,0 -0.5625,-0.234375 L 16.359164,-1.3490469 c 0.08203,-0.046875 0.527344,-0.3632812 0.5625,-0.375 0.328125,-0.1992187 0.585938,-0.1992187 0.679688,-0.1992187 v -0.2226563 c -0.1875,0.023437 -0.363282,0.023437 -0.421875,0.023437 -0.199219,0 -0.492188,-0.011719 -0.65625,-0.023437 v 0.2226563 c 0.07031,0 0.07031,0.058594 0.07031,0.058594 0,0.023437 0,0.09375 -0.140625,0.1992188 l -0.808594,0.5507812 v -2.34375 l -0.84375,0.058594 v 0.2109375 c 0.375,0 0.421875,0.035156 0.421875,0.28125 v 2.48437498 c 0,0.15234375 0,0.19921875 -0.328125,0.19921875 h -0.09375 v 0.22265625 c 0.199219,-0.01171875 0.421875,-0.0234375 0.621094,-0.0234375 0.199219,0 0.421875,0.01171875 0.609375,0.0234375 v -0.22265625 h -0.08203 c -0.328125,0 -0.328125,-0.046875 -0.328125,-0.19921875 v -0.421875 l 0.410156,-0.28124998 0.5625,0.60937498 c 0.09375,0.09375 0.152344,0.15234375 0.152344,0.22265625 0,0.0703125 -0.105469,0.0703125 -0.128906,0.0703125 v 0.22265625 c 0.199218,-0.01171875 0.539062,-0.0234375 0.609375,-0.0234375 0.1875,0 0.328125,0.01171875 0.515625,0.0234375 z m 0,0"
       style="fill:#000000;fill-opacity:1;fill-rule:nonzero;stroke:none"
       aria-label="Check"
       transform="matrix(1.3333333,0,0,1.3333333,507.012,30.134667)" />
    <path
       id="path16"
       d="m 458.11891,14.17339 h -58.37779 c -1.10046,0 -1.99255,-0.89208 -1.99255,-1.99256 v -24.36166 c 0,-1.10048 0.89209,-1.99256 1.99255,-1.99256 h 58.37779 c 1.10047,0 1.99256,0.89208 1.99256,1.99256 v 24.36166 c 0,1.10048 -0.89209,1.99256 -1.99256,1.99256 z"
       style="fill:#f5f5f5;fill-opacity:1;fill-rule:nonzero;stroke:#4c4c4c;stroke-width:0.74721;stroke-linecap:butt;stroke-linejoin:miter;stroke-miterlimit:10;stroke-dasharray:none;stroke-opacity:1"
       transform="matrix(1.3333333,0,0,-1.3333333,42.073333,23.954667)" />
    <path
       id="path17"
       d="m 1.6653125,-2.8133906 h 2.15625 c 0.7382813,0 1.078125,0.3515625 1.078125,1.1601562 l -0.011719,0.5859375 c 0,0.39843753 0.070312,0.79687503 0.1875,1.066406275 H 6.0832813 V -0.21182812 c -0.3046875,-0.2109375 -0.375,-0.4453125 -0.3867188,-1.31249998 -0.011719,-1.078125 -0.1875,-1.3945313 -0.890625,-1.6992188 0.7382813,-0.3632812 1.03125,-0.8203125 1.03125,-1.5703125 0,-1.125 -0.703125,-1.7460937 -1.9921875,-1.7460937 H 0.83328125 V -8.90625e-4 H 1.6653125 Z m 0,-0.7382813 v -2.25 h 2.015625 c 0.46875,0 0.7382813,0.070312 0.9492188,0.2460938 C 4.8528125,-5.3563594 4.97,-5.0633906 4.97,-4.6766719 c 0,0.7734375 -0.3984375,1.125 -1.2890625,1.125 z m 9.4013675,1.453125 c 0,-0.7148437 -0.04687,-1.1484375 -0.1875,-1.5 -0.304688,-0.7734375 -1.0195316,-1.2304687 -1.8984378,-1.2304687 -1.3007813,0 -2.1445313,0.9960937 -2.1445313,2.5429687 0,1.54687503 0.8085938,2.49609378 2.1328125,2.49609378 1.0664066,0 1.8164066,-0.609375 2.0039066,-1.64062498 h -0.75 c -0.210938,0.62109373 -0.6328128,0.94921873 -1.2304691,0.94921873 -0.4804687,0 -0.8789062,-0.22265625 -1.125,-0.60937503 -0.1875,-0.2695312 -0.2460937,-0.5390625 -0.2578125,-1.0078125 z m -3.4335941,-0.609375 c 0.058594,-0.8671875 0.5859375,-1.4296875 1.3359375,-1.4296875 0.7382813,0 1.3007816,0.609375 1.3007816,1.3710938 0,0.023437 0,0.035156 0,0.058594 z m 7.5175781,-1.9921875 v 0.6796875 c -0.375,-0.5507812 -0.832031,-0.8085937 -1.429687,-0.8085937 -1.195313,0 -2.003907,1.03125 -2.003907,2.5546875 0,0.7734375 0.210938,1.40624998 0.597657,1.85156248 0.351562,0.3984375 0.84375,0.6328125 1.335937,0.6328125 0.597656,0 1.007813,-0.2578125 1.429688,-0.84375 v 0.234375 c 0,0.64453125 -0.08203,1.03125 -0.269532,1.2890625 -0.199218,0.26953122 -0.585937,0.43359372 -1.042968,0.43359372 -0.339844,0 -0.644532,-0.082031 -0.84375,-0.2460937 C 12.74832,0.93660938 12.678008,0.81942188 12.631133,0.53817188 h -0.761719 c 0.08203,0.89062502 0.773438,1.41796872 1.875,1.41796872 0.703125,0 1.300781,-0.2226562 1.605469,-0.5976562 0.363281,-0.43359377 0.492187,-1.03125002 0.492187,-2.13281252 V -4.7001094 Z m -1.347656,0.5625 c 0.808594,0 1.277344,0.6796875 1.277344,1.8515625 0,1.125 -0.480469,1.80468753 -1.277344,1.80468753 -0.808594,0 -1.300781,-0.69140623 -1.300781,-1.82812503 0,-1.1367187 0.503906,-1.828125 1.300781,-1.828125 z m 3.990234,-0.5625 h -0.75 v 4.699218775 h 0.75 z m 0,-1.8398437 h -0.761719 v 0.9492187 h 0.761719 z m 4.567383,3.1523437 c -0.01172,-0.9257812 -0.621094,-1.4414062 -1.699219,-1.4414062 -1.101562,0 -1.804687,0.5625 -1.804687,1.4296875 0,0.7382812 0.375,1.0898437 1.488281,1.359375 l 0.703125,0.1640625 c 0.515625,0.1289062 0.726563,0.3164062 0.726563,0.65625 0,0.43359373 -0.445313,0.73828123 -1.101563,0.73828123 -0.398437,0 -0.738281,-0.1171875 -0.925781,-0.31640625 -0.117188,-0.140625 -0.175781,-0.26953128 -0.222656,-0.59765628 h -0.785157 c 0.03516,1.07812503 0.644532,1.60546878 1.875,1.60546878 1.183594,0 1.933594,-0.5859375 1.933594,-1.48828128 0,-0.703125 -0.398437,-1.0898437 -1.324219,-1.3125 l -0.714843,-0.1757812 c -0.609375,-0.140625 -0.867188,-0.3398438 -0.867188,-0.6679688 0,-0.4335937 0.375,-0.703125 0.984375,-0.703125 0.609375,0 0.925781,0.2578125 0.949219,0.75 z m 2.830078,-1.3125 h -0.761719 v -1.2890625 h -0.75 v 1.2890625 h -0.632812 v 0.609375 h 0.632812 v 3.55078128 c 0,0.48046875 0.328125,0.75 0.902344,0.75 0.1875,0 0.363281,-0.0234375 0.609375,-0.0703125 v -0.62109375 c -0.09375,0.0234375 -0.210937,0.0351563 -0.351562,0.0351563 -0.328125,0 -0.410157,-0.09375 -0.410157,-0.421875 V -4.0907344 h 0.761719 z m 0.84082,0 v 4.699218775 h 0.75 V -2.4383906 c 0,-0.6679688 0.175782,-1.1132813 0.527344,-1.3710938 0.234375,-0.1757812 0.457031,-0.2226562 0.984375,-0.234375 v -0.7617187 c -0.128906,-0.023437 -0.199219,-0.023437 -0.292969,-0.023437 -0.480468,0 -0.855468,0.28125 -1.277343,0.984375 v -0.8554688 z m 6.114258,0 -1.300781,3.65625 -1.207031,-3.65625 h -0.796875 l 1.59375,4.72265628 -0.292969,0.73828125 c -0.117187,0.32812497 -0.28125,0.45703127 -0.597656,0.45703127 -0.105469,0 -0.234375,-0.011719 -0.398438,-0.058594 v 0.6796875 c 0.152344,0.082031 0.304688,0.1171875 0.503907,0.1171875 0.246093,0 0.503906,-0.082031 0.703125,-0.2226562 0.234375,-0.1757813 0.363281,-0.375 0.503906,-0.75000002 l 2.097656,-5.68359378 z m 0,0"
       style="fill:#000000;fill-opacity:1;fill-rule:nonzero;stroke:none"
       aria-label="Registry"
       transform="matrix(1.3333333,0,0,1.3333333,591.87333,26.884)" />
    <path
       id="path18"
       d="M 525.17422,0 500.18051,16.6107 475.18681,0 l 24.9937,-16.6107 z"
       style="fill:#fce4cc;fill-opacity:1;fill-rule:nonzero;stroke:#ff4c4c;stroke-width:0.74721;stroke-linecap:butt;stroke-linejoin:miter;stroke-miterlimit:10;stroke-dasharray:none;stroke-opacity:1"
       transform="matrix(1.3333333,0,0,-1.3333333,42.073333,23.954667)" />
    <path
       id="path19"
       d="M 4.5236641,-3.75e-4 V -0.22303125 H 4.3947578 c -0.3046875,0 -0.375,-0.0234375 -0.4453125,-0.1640625 L 2.6135078,-3.4339687 c -0.035156,-0.09375 -0.058594,-0.1289063 -0.1757812,-0.1289063 -0.082031,0 -0.1289063,0.011719 -0.1757813,0.1171875 L 0.98460156,-0.516 c -0.1171875,0.24609375 -0.38671875,0.29296875 -0.6328125,0.29296875 V -3.75e-4 c 0.1875,-0.01171875 0.3984375,-0.0234375 0.57421875,-0.0234375 0.0703125,0 0.42187499,0.01171875 0.65624999,0.0234375 v -0.22265625 c -0.28125,0 -0.3867187,-0.1171875 -0.3867187,-0.2109375 0,-0.0351563 0.011719,-0.046875 0.035156,-0.09375 L 1.4885078,-1.1136562 h 1.59375 l 0.3046875,0.70312495 c 0.035156,0.0585938 0.035156,0.0703125 0.035156,0.0703125 0,0.1171875 -0.2929688,0.1171875 -0.4335938,0.1171875 V -3.75e-4 L 3.7971016,-0.0238125 Z M 2.9885078,-1.3245937 h -1.40625 l 0.703125,-1.6054688 z M 8.2619453,-1.0785 c 0,-0.5976562 -0.5507812,-1.125 -1.2890625,-1.125 -0.3867187,0 -0.703125,0.140625 -0.8671875,0.28125 V -2.2035 l -0.84375,0.058594 v 0.222656 c 0.3632813,0 0.421875,0 0.421875,0.2109375 v 2.26171875 c 0,0.15234375 0,0.19921875 -0.328125,0.19921875 h -0.09375 v 0.2109375 c 0.2226563,-0.0117188 0.421875,-0.0117188 0.6445313,-0.0117188 0.2109375,0 0.421875,0 0.6328125,0.0117188 V 0.749625 h -0.09375 c -0.328125,0 -0.328125,-0.046875 -0.328125,-0.19921875 V -0.23475 c 0.2226562,0.19921875 0.4921875,0.29296875 0.7734375,0.29296875 0.75,0 1.3710937,-0.515625 1.3710937,-1.13671875 z m -0.5039062,0 c 0,0.55078125 -0.4101563,0.97265625 -0.9023438,0.97265625 -0.2226562,0 -0.4921875,-0.09375 -0.6679687,-0.328125 -0.070312,-0.0820313 -0.070312,-0.09375 -0.070312,-0.1875 V -1.6527187 c 0.2226562,-0.3046875 0.5976562,-0.375 0.796875,-0.375 0.4921875,0 0.84375,0.4453125 0.8437495,0.9492187 z m 4.2392579,0 c 0,-0.5976562 -0.550781,-1.125 -1.289063,-1.125 -0.386718,0 -0.703125,0.140625 -0.8671871,0.28125 V -2.2035 l -0.84375,0.058594 v 0.222656 c 0.3632812,0 0.421875,0 0.421875,0.2109375 v 2.26171875 c 0,0.15234375 0,0.19921875 -0.328125,0.19921875 h -0.09375 v 0.2109375 c 0.2226562,-0.0117188 0.421875,-0.0117188 0.6445312,-0.0117188 0.2109375,0 0.4218749,0 0.6328129,0.0117188 V 0.749625 h -0.09375 c -0.3281254,0 -0.3281254,-0.046875 -0.3281254,-0.19921875 V -0.23475 c 0.2226564,0.19921875 0.4921874,0.29296875 0.7734374,0.29296875 0.75,0 1.371094,-0.515625 1.371094,-1.13671875 z m -0.503906,0 c 0,0.55078125 -0.410157,0.97265625 -0.902344,0.97265625 -0.222656,0 -0.492188,-0.09375 -0.6679689,-0.328125 -0.070312,-0.0820313 -0.070312,-0.09375 -0.070312,-0.1875 V -1.6527187 c 0.2226569,-0.3046875 0.5976569,-0.375 0.7968759,-0.375 0.492186,0 0.84375,0.4453125 0.843749,0.9492187 z m 3.254882,-0.7851562 c 0,-0.1875 -0.1875,-0.3398438 -0.445312,-0.3398438 -0.246094,0 -0.574219,0.1289063 -0.761719,0.5507813 h -0.01172 V -2.2035 l -0.796875,0.058594 v 0.222656 c 0.375,0 0.421875,0.023437 0.421875,0.2695313 V -0.42225 c 0,0.15234375 0,0.19921875 -0.328125,0.19921875 h -0.09375 V -3.75e-4 c 0.210938,-0.01171875 0.433594,-0.0234375 0.644532,-0.0234375 l 0.714843,0.0234375 v -0.22265625 h -0.140625 c -0.375,0 -0.375,-0.046875 -0.375,-0.19921875 v -0.6914062 c 0,-0.46875 0.257813,-0.9140625 0.738282,-0.9257813 0,0 -0.07031,0.070312 -0.07031,0.1757813 0,0.1875 0.140625,0.2578125 0.246094,0.2578125 0.128906,0 0.257812,-0.082031 0.257812,-0.2578125 z m 3.369141,0.796875 c 0,-0.6210938 -0.585937,-1.1601563 -1.359375,-1.1601563 -0.785156,0 -1.371094,0.5390625 -1.371094,1.1601563 0,0.5976562 0.585938,1.12499995 1.371094,1.12499995 0.773438,0 1.359375,-0.52734375 1.359375,-1.12499995 z m -0.492187,-0.046875 c 0,0.2460937 0,0.98437495 -0.867188,0.98437495 -0.878906,0 -0.878906,-0.73828125 -0.878906,-0.98437495 0,-0.2226563 0,-0.9492188 0.878906,-0.9492188 0.867188,0 0.867188,0.7265625 0.867188,0.9492188 z m 3.93164,-0.8085938 v -0.2226562 c -0.128906,0.011719 -0.257812,0.023437 -0.433594,0.023437 0,0 -0.328125,-0.011719 -0.515625,-0.023437 V -1.92225 c 0.140625,0 0.222657,0.058594 0.222657,0.1757813 0,0.046875 -0.02344,0.09375 -0.02344,0.09375 l -0.632812,1.24218745 -0.679688,-1.33593745 c -0.01172,-0.011719 -0.02344,-0.046875 -0.02344,-0.082031 0,-0.09375 0.164062,-0.09375 0.269531,-0.09375 v -0.2226562 c -0.234375,0.011719 -0.597656,0.023437 -0.632813,0.023437 -0.199218,0 -0.339843,0 -0.550781,-0.023437 V -1.92225 c 0.292969,0 0.363281,0 0.445313,0.140625 l 0.878906,1.72265625 c 0.03516,0.0703125 0.05859,0.1171875 0.175781,0.1171875 0.117188,0 0.140625,-0.05859375 0.175781,-0.1171875 l 0.796875,-1.57031245 c 0.08203,-0.1640625 0.210938,-0.2929688 0.527344,-0.2929688 z m 3.102539,1.4765625 v -0.28125 h -0.210937 v 0.26953125 c 0,0.046875 0,0.26953125 -0.199219,0.26953125 -0.199219,0 -0.199219,-0.22265625 -0.199219,-0.26953125 V -1.4769375 c 0,-0.4804687 -0.503906,-0.75 -1.125,-0.75 -0.304687,0 -0.878906,0.011719 -0.878906,0.4335938 0,0.1875 0.140625,0.2695312 0.269531,0.2695312 0.128907,0 0.257813,-0.09375 0.257813,-0.2695312 0,-0.1171875 -0.07031,-0.1875 -0.117188,-0.2226563 0.164063,-0.046875 0.410157,-0.046875 0.46875,-0.046875 0.421875,0 0.679688,0.234375 0.679688,0.5859375 v 0.1289063 c -0.480469,0.023437 -0.75,0.046875 -1.136719,0.1757812 -0.328125,0.1171875 -0.609375,0.328125 -0.609375,0.64453125 0,0.46875 0.574219,0.5859375 0.972656,0.5859375 0.386719,0 0.679688,-0.1640625 0.832032,-0.41015625 0.02344,0.17578125 0.140625,0.38671875 0.386718,0.38671875 0.03516,0 0.609375,0 0.609375,-0.48046875 z M 23.604719,-0.7035 c 0,0.5390625 -0.597656,0.59765625 -0.714844,0.59765625 -0.292969,0 -0.574219,-0.1640625 -0.574219,-0.421875 0,-0.1640625 0.105469,-0.62109375 1.289063,-0.66796875 z m 2.947265,0.703125 v -0.22265625 h -0.09375 c -0.316406,0 -0.316406,-0.046875 -0.316406,-0.19921875 v -3.0351562 l -0.84375,0.058594 v 0.2109375 c 0.375,0 0.421875,0.035156 0.421875,0.28125 v 2.484375 c 0,0.15234375 0,0.19921875 -0.328125,0.19921875 h -0.09375 V -3.75e-4 c 0.210938,-0.01171875 0.421875,-0.0234375 0.621094,-0.0234375 0.210937,0 0.421875,0.01171875 0.632812,0.0234375 z m 0,0"
       style="fill:#000000;fill-opacity:1;fill-rule:nonzero;stroke:none"
       aria-label="Approval"
       transform="matrix(1.3333333,0,0,1.3333333,691.04267,25.688)" />
    <path
       id="path20"
       d="m 600.61992,14.17339 h -58.37779 c -1.10048,0 -1.99256,-0.89208 -1.99256,-1.99256 v -24.36166 c 0,-1.10048 0.89208,-1.99256 1.99256,-1.99256 h 58.37779 c 1.10046,0 1.99255,0.89208 1.99255,1.99256 v 24.36166 c 0,1.10048 -0.89209,1.99256 -1.99255,1.99256 z"
       style="fill:#f5f5f5;fill-opacity:1;fill-rule:nonzero;stroke:#4c4c4c;stroke-width:0.74721;stroke-linecap:butt;stroke-linejoin:miter;stroke-miterlimit:10;stroke-dasharray:none;stroke-opacity:1"
       transform="matrix(1.3333333,0,0,-1.3333333,42.073333,23.954667)" />
    <path
       id="path21"
       d="m 5.9301953,-4.5114062 c -0.2578125,-1.4296875 -1.078125,-2.1328125 -2.5195312,-2.1328125 -0.8789063,0 -1.5820313,0.28125 -2.0625,0.8203125 -0.59765629,0.6445312 -0.91406254,1.5703125 -0.91406254,2.6367187 0,1.0664063 0.328125,1.9921875 0.94921874,2.63671875 0.5039063,0.515625 1.1484375,0.76171875 1.9921875,0.76171875 1.6054688,0 2.4960938,-0.8671875 2.6953125,-2.5898437 H 5.2036328 c -0.070312,0.4453125 -0.1523437,0.75 -0.2929687,1.0078125 -0.2695313,0.53906245 -0.8203125,0.84374995 -1.5234375,0.84374995 -1.3007813,0 -2.1210938,-1.04296875 -2.1210938,-2.67187495 0,-1.6757813 0.7851563,-2.7070313 2.0507813,-2.7070313 0.5273437,0 1.0195312,0.1640625 1.2890625,0.4101563 0.2460937,0.2226562 0.375,0.5039062 0.4804687,0.984375 z m 5.3378907,4.07812495 c -0.08203,0.0117188 -0.117188,0.0117188 -0.152344,0.0117188 -0.269531,0 -0.410156,-0.12890625 -0.410156,-0.36328125 v -2.765625 c 0,-0.8320313 -0.609375,-1.2773438 -1.7695313,-1.2773438 -0.6796875,0 -1.2421875,0.1875 -1.5585938,0.5390625 -0.2109375,0.2460938 -0.3046875,0.515625 -0.3164062,0.984375 h 0.75 c 0.058594,-0.5742187 0.3984375,-0.8320312 1.1015625,-0.8320312 0.6679687,0 1.0546875,0.2460937 1.0546875,0.6914062 v 0.1992188 c 0,0.3164062 -0.1875,0.4453125 -0.7851563,0.515625 -1.0546875,0.140625 -1.21875,0.1757812 -1.5,0.2929687 -0.5507812,0.2226563 -0.8320312,0.6445313 -0.8320312,1.2539063 0,0.8554687 0.5976562,1.3945312 1.546875,1.3945312 0.5859375,0 1.0664062,-0.2109375 1.59375,-0.69140625 0.046875,0.46875 0.2812498,0.69140625 0.7734378,0.69140625 0.152343,0 0.269531,-0.0234375 0.503906,-0.0820313 z M 9.9673047,-1.47625 c 0,0.2460938 -0.082031,0.3984375 -0.3046875,0.609375 C 9.3579297,-0.585625 8.9946484,-0.445 8.5493359,-0.445 c -0.5742187,0 -0.9140625,-0.28125 -0.9140625,-0.7617187 0,-0.4921875 0.328125,-0.7382813 1.125,-0.8554688 C 9.5454297,-2.1676562 9.7094922,-2.2028125 9.9673047,-2.32 Z M 12.091328,-4.6989062 V 3.125e-4 h 0.75 v -2.5898437 c 0,-0.9609375 0.503906,-1.5820313 1.265625,-1.5820313 0.597656,0 0.972656,0.3515625 0.972656,0.9140625 V 3.125e-4 h 0.75 v -3.5507812 c 0,-0.7734375 -0.585937,-1.2773438 -1.488281,-1.2773438 -0.703125,0 -1.148437,0.2695313 -1.570312,0.9140625 v -0.7851562 z m 9.146485,4.26562495 c -0.08203,0.0117188 -0.117188,0.0117188 -0.152344,0.0117188 -0.269531,0 -0.410156,-0.12890625 -0.410156,-0.36328125 v -2.765625 c 0,-0.8320313 -0.609375,-1.2773438 -1.769532,-1.2773438 -0.679687,0 -1.242187,0.1875 -1.558593,0.5390625 -0.210938,0.2460938 -0.304688,0.515625 -0.316407,0.984375 h 0.75 c 0.05859,-0.5742187 0.398438,-0.8320312 1.101563,-0.8320312 0.667969,0 1.054687,0.2460937 1.054687,0.6914062 v 0.1992188 c 0,0.3164062 -0.1875,0.4453125 -0.785156,0.515625 -1.054687,0.140625 -1.21875,0.1757812 -1.5,0.2929687 -0.550781,0.2226563 -0.832031,0.6445313 -0.832031,1.2539063 0,0.8554687 0.597656,1.3945312 1.546875,1.3945312 0.585937,0 1.066406,-0.2109375 1.59375,-0.69140625 0.04687,0.46875 0.28125,0.69140625 0.773437,0.69140625 0.152344,0 0.269532,-0.0234375 0.503907,-0.0820313 z M 19.937031,-1.47625 c 0,0.2460938 -0.08203,0.3984375 -0.304687,0.609375 -0.304688,0.28125 -0.667969,0.421875 -1.113281,0.421875 -0.574219,0 -0.914063,-0.28125 -0.914063,-0.7617187 0,-0.4921875 0.328125,-0.7382813 1.125,-0.8554688 0.785156,-0.1054687 0.949219,-0.140625 1.207031,-0.2578125 z m 2.112305,-3.2226562 V 3.125e-4 h 0.75 v -2.4375 c 0,-0.6679687 0.175781,-1.1132812 0.527344,-1.3710937 0.234375,-0.1757813 0.457031,-0.2226563 0.984375,-0.234375 V -4.804375 c -0.128907,-0.023437 -0.199219,-0.023437 -0.292969,-0.023437 -0.480469,0 -0.855469,0.28125 -1.277344,0.984375 v -0.8554687 z m 6.105469,0 -1.300782,3.65625 -1.207031,-3.65625 h -0.796875 l 1.59375,4.7226562 -0.292969,0.73828125 c -0.117187,0.32812505 -0.28125,0.45703125 -0.597656,0.45703125 -0.105469,0 -0.234375,-0.011719 -0.398437,-0.058594 V 1.840156 c 0.152343,0.082031 0.304687,0.1171875 0.503906,0.1171875 0.246094,0 0.503906,-0.082031 0.703125,-0.2226563 0.234375,-0.1757812 0.363281,-0.375 0.503906,-0.75 l 2.097656,-5.6835937 z m 0,0"
       style="fill:#000000;fill-opacity:1;fill-rule:nonzero;stroke:none"
       aria-label="Canary"
       transform="matrix(1.3333333,0,0,1.3333333,784.52667,27.093333)" />
    <path
       id="path22"
       d="M 31.55504,0 H 44.7316"
       style="fill:none;stroke:#000000;stroke-width:0.99628;stroke-linecap:butt;stroke-linejoin:miter;stroke-miterlimit:10;stroke-dasharray:none;stroke-opacity:1"
       transform="matrix(1.3333333,0,0,-1.3333333,42.073333,23.954667)" />
    <path
       id="path23"
       d="M -2.78957,3.47087 C -2.27992,1.38832 -1.14423,0.40492 0,0 -1.14423,-0.40492 -2.27992,-1.38832 -2.78957,-3.47087"
       style="fill:none;stroke:#000000;stroke-width:0.99628;stroke-linecap:round;stroke-linejoin:round;stroke-miterlimit:10;stroke-dasharray:none;stroke-opacity:1"
       transform="matrix(1.3333333,0,0,-1.3333333,102.37965,23.954667)" />
    <path
       id="path24"
       d="m 99.72023,0 h 13.17589"
       style="fill:none;stroke:#000000;stroke-width:0.99628;stroke-linecap:butt;stroke-linejoin:miter;stroke-miterlimit:10;stroke-dasharray:none;stroke-opacity:1"
       transform="matrix(1.3333333,0,0,-1.3333333,42.073333,23.954667)" />
    <path
       id="path25"
       d="M -2.78957,3.47087 C -2.27992,1.38832 -1.14423,0.40492 0,0 -1.14423,-0.40492 -2.27992,-1.38832 -2.78957,-3.47087"
       style="fill:none;stroke:#000000;stroke-width:0.99628;stroke-linecap:round;stroke-linejoin:round;stroke-miterlimit:10;stroke-dasharray:none;stroke-opacity:1"
       transform="matrix(1.3333333,0,0,-1.3333333,193.26568,23.954667)" />
    <path
       id="path26"
       d="m 177.00249,0 h 13.17529"
       style="fill:none;stroke:#000000;stroke-width:0.99628;stroke-linecap:butt;stroke-linejoin:miter;stroke-miterlimit:10;stroke-dasharray:none;stroke-opacity:1"
       transform="matrix(1.3333333,0,0,-1.3333333,42.073333,23.954667)" />
    <path
       id="path27"
       d="M -2.78957,3.47087 C -2.27992,1.38832 -1.14423,0.40492 0,0 -1.14423,-0.40492 -2.27992,-1.38832 -2.78957,-3.47087"
       style="fill:none;stroke:#000000;stroke-width:0.99628;stroke-linecap:round;stroke-linejoin:round;stroke-miterlimit:10;stroke-dasharray:none;stroke-opacity:1"
       transform="matrix(1.3333333,0,0,-1.3333333,296.30789,23.954667)" />
    <path
       id="path28"
       d="m 240.74309,0 h 13.17697"
       style="fill:none;stroke:#000000;stroke-width:0.99628;stroke-linecap:butt;stroke-linejoin:miter;stroke-miterlimit:10;stroke-dasharray:none;stroke-opacity:1"
       transform="matrix(1.3333333,0,0,-1.3333333,42.073333,23.954667)" />
    <path
       id="path29"
       d="M -2.78957,3.47087 C -2.27992,1.38832 -1.14423,0.40492 0,0 -1.14423,-0.40492 -2.27992,-1.38832 -2.78957,-3.47087"
       style="fill:none;stroke:#000000;stroke-width:0.99628;stroke-linecap:round;stroke-linejoin:round;stroke-miterlimit:10;stroke-dasharray:none;stroke-opacity:1"
       transform="matrix(1.3333333,0,0,-1.3333333,381.2976,23.954667)" />
    <path
       id="path30"
       d="M 318.02644,0 H 331.2032"
       style="fill:none;stroke:#000000;stroke-width:0.99628;stroke-linecap:butt;stroke-linejoin:miter;stroke-miterlimit:10;stroke-dasharray:none;stroke-opacity:1"
       transform="matrix(1.3333333,0,0,-1.3333333,42.073333,23.954667)" />
    <path
       id="path31"
       d="M -2.78957,3.47087 C -2.27992,1.38832 -1.14423,0.40492 0,0 -1.14423,-0.40492 -2.27992,-1.38832 -2.78957,-3.47087"
       style="fill:none;stroke:#000000;stroke-width:0.99628;stroke-linecap:round;stroke-linejoin:round;stroke-miterlimit:10;stroke-dasharray:none;stroke-opacity:1"
       transform="matrix(1.3333333,0,0,-1.3333333,484.34179,23.954667)" />
    <path
       id="path32"
       d="M 383.20242,0 H 396.3787"
       style="fill:none;stroke:#000000;stroke-width:0.99628;stroke-linecap:butt;stroke-linejoin:miter;stroke-miterlimit:10;stroke-dasharray:none;stroke-opacity:1"
       transform="matrix(1.3333333,0,0,-1.3333333,42.073333,23.954667)" />
    <path
       id="path33"
       d="M -2.78957,3.47087 C -2.27992,1.38832 -1.14423,0.40492 0,0 -1.14423,-0.40492 -2.27992,-1.38832 -2.78957,-3.47087"
       style="fill:none;stroke:#000000;stroke-width:0.99628;stroke-linecap:round;stroke-linejoin:round;stroke-miterlimit:10;stroke-dasharray:none;stroke-opacity:1"
       transform="matrix(1.3333333,0,0,-1.3333333,571.24244,23.954667)" />
    <path
       id="path34"
       d="m 460.48506,0 h 13.17639"
       style="fill:none;stroke:#000000;stroke-width:0.99628;stroke-linecap:butt;stroke-linejoin:miter;stroke-miterlimit:10;stroke-dasharray:none;stroke-opacity:1"
       transform="matrix(1.3333333,0,0,-1.3333333,42.073333,23.954667)" />
    <path
       id="path35"
       d="M -2.78957,3.47087 C -2.27992,1.38832 -1.14423,0.40492 0,0 -1.14423,-0.40492 -2.27992,-1.38832 -2.78957,-3.47087"
       style="fill:none;stroke:#000000;stroke-width:0.99628;stroke-linecap:round;stroke-linejoin:round;stroke-miterlimit:10;stroke-dasharray:none;stroke-opacity:1"
       transform="matrix(1.3333333,0,0,-1.3333333,674.28612,23.954667)" />
    <path
       id="path36"
       d="m 525.70361,0 h 13.17607"
       style="fill:none;stroke:#000000;stroke-width:0.99628;stroke-linecap:butt;stroke-linejoin:miter;stroke-miterlimit:10;stroke-dasharray:none;stroke-opacity:1"
       transform="matrix(1.3333333,0,0,-1.3333333,42.073333,23.954667)" />
    <path
       id="path37"
       d="M -2.78957,3.47087 C -2.27992,1.38832 -1.14423,0.40492 0,0 -1.14423,-0.40492 -2.27992,-1.38832 -2.78957,-3.47087"
       style="fill:none;stroke:#000000;stroke-width:0.99628;stroke-linecap:round;stroke-linejoin:round;stroke-miterlimit:10;stroke-dasharray:none;stroke-opacity:1"
       transform="matrix(1.3333333,0,0,-1.3333333,761.24376,23.954667)" />
    <path
       id="path38"
       d="M 343.98897,-7.91644 C 286.83748,-43.89229 231.20775,-46.18681 171.516,-15.00977"
       style="fill:none;stroke:#ff0000;stroke-width:0.99628;stroke-linecap:butt;stroke-linejoin:miter;stroke-miterlimit:10;stroke-dasharray:2.98883, 2.98883;stroke-dashoffset:0;stroke-opacity:1"
       transform="matrix(1.3333333,0,0,-1.3333333,42.073333,23.954667)" />
    <path
       id="path39"
       d="M -2.78957,3.47087 C -2.27992,1.38832 -1.14423,0.40492 0,0 -1.14423,-0.40492 -2.27992,-1.38832 -2.78957,-3.47087"
       style="fill:none;stroke:#ff0000;stroke-width:0.99628;stroke-linecap:round;stroke-linejoin:round;stroke-miterlimit:10;stroke-dasharray:none;stroke-opacity:1"
       transform="matrix(-1.17928,-0.62202667,-0.62202667,1.17928,270.1732,43.66052)" />
    <path
       id="path40"
       d="M 4.7583984,-3.1286484 4.5474609,-4.7341172 H 0.38730469 v 0.2460938 h 0.17578125 c 0.52734376,0 0.55078126,0.070312 0.55078126,0.3164062 v 3.60937501 c 0,0.234375 -0.023437,0.31640625 -0.55078126,0.31640625 H 0.38730469 V 2.578125e-4 L 1.4537109,-0.02317969 2.6724609,2.578125e-4 V -0.24583594 H 2.4263672 c -0.65625,0 -0.65625,-0.09375 -0.65625,-0.328125 V -2.2497422 h 0.6796875 c 0.6914062,0 0.796875,0.2109375 0.796875,0.8203125 h 0.234375 v -1.8867187 h -0.234375 c 0,0.609375 -0.1054688,0.8203125 -0.796875,0.8203125 H 1.7701172 v -1.7109375 c 0,-0.2226563 0.011719,-0.28125 0.3398437,-0.28125 h 0.9726563 c 1.125,0 1.3125,0.3867187 1.4414062,1.359375 z m 3.5361329,2.49609371 V -1.0075547 H 8.0484375 v 0.37500001 c 0,0.0703125 0,0.3984375 -0.2578125,0.3984375 -0.2578125,0 -0.2578125,-0.328125 -0.2578125,-0.41015625 V -1.8630234 c 0,-0.375 0,-0.6445313 -0.3164062,-0.9023438 -0.28125,-0.234375 -0.6210938,-0.3398437 -1.03125,-0.3398437 -0.6679688,0 -1.125,0.2460937 -1.125,0.6679687 0,0.2226563 0.1523437,0.3398438 0.328125,0.3398438 0.1875,0 0.328125,-0.1289063 0.328125,-0.3164063 0,-0.1289062 -0.058594,-0.2695312 -0.2460938,-0.328125 0.2578125,-0.1757812 0.65625,-0.1757812 0.703125,-0.1757812 0.3867188,0 0.8085938,0.2578125 0.8085938,0.84375 v 0.2226562 c -0.375,0.011719 -0.84375,0.035156 -1.3476563,0.2226563 -0.6328125,0.2226562 -0.8203125,0.609375 -0.8203125,0.92578121 0,0.59765625 0.7265625,0.7734375 1.21875,0.7734375 0.5625,0 0.8789063,-0.31640625 1.03125,-0.5859375 0.023437,0.28125 0.2109375,0.55078125 0.5390625,0.55078125 0,0 0.6914063,0 0.6914063,-0.66796875 z m -1.3125,-0.3515625 c 0,0.66796875 -0.5859375,0.85546875 -0.890625,0.85546875 C 5.728125,-0.12864844 5.4,-0.36302344 5.4,-0.70286719 5.4,-1.0895859 5.728125,-1.6286484 6.9820313,-1.6755234 Z M 10.377539,2.578125e-4 V -0.24583594 c -0.3984374,0 -0.4687499,0 -0.4687499,-0.29296875 V -3.0700547 l -1.03125,0.070312 v 0.2578125 c 0.4453125,0 0.5039062,0.035156 0.5039062,0.375 v 1.81640626 c 0,0.3046875 -0.070312,0.3046875 -0.5273437,0.3046875 V 2.578125e-4 c 0,0 0.5039062,-0.0234375025 0.7851562,-0.0234375025 0.2460938,0 0.4921872,0 0.7382812,0.0234375025 z M 9.9908203,-4.1950547 c 0,-0.2226562 -0.1757812,-0.4101562 -0.3984375,-0.4101562 -0.234375,0 -0.3984375,0.1992187 -0.3984375,0.3984375 0,0.2226562 0.1757813,0.4101562 0.3984375,0.4101562 0.2460938,0 0.3984375,-0.1992187 0.3984375,-0.3984375 z M 12.674414,2.578125e-4 V -0.24583594 c -0.445312,0 -0.515625,0 -0.515625,-0.3046875 V -4.8395859 l -1.054687,0.082031 v 0.2460938 c 0.46875,0 0.527343,0.046875 0.527343,0.3867187 v 3.57421876 c 0,0.3046875 -0.07031,0.3046875 -0.527343,0.3046875 V 2.578125e-4 c 0,0 0.503906,-0.0234375025 0.785156,-0.0234375025 0.269531,0 0.527344,0 0.785156,0.0234375025 z m 0,0"
       style="fill:#ff0000;fill-opacity:1;fill-rule:nonzero;stroke:none"
       aria-label="Fail"
       transform="matrix(1.3333333,0,0,1.3333333,377.8,67.652)" />
  </g>
</svg>
