<?xml version="1.0" encoding="utf-8" standalone="no"?>
<!DOCTYPE svg PUBLIC "-//W3C//DTD SVG 1.1//EN"
  "http://www.w3.org/Graphics/SVG/1.1/DTD/svg11.dtd">
<svg xmlns:xlink="http://www.w3.org/1999/xlink" width="75.42pt" height="66.636pt" viewBox="0 0 75.42 66.636" xmlns="http://www.w3.org/2000/svg" version="1.1">
 <metadata>
  <rdf:RDF xmlns:dc="http://purl.org/dc/elements/1.1/" xmlns:cc="http://creativecommons.org/ns#" xmlns:rdf="http://www.w3.org/1999/02/22-rdf-syntax-ns#">
   <cc:Work>
    <dc:type rdf:resource="http://purl.org/dc/dcmitype/StillImage"/>
    <dc:format>image/svg+xml</dc:format>
    <dc:creator>
     <cc:Agent>
      <dc:title>Matplotlib v3.10.8, https://matplotlib.org/</dc:title>
     </cc:Agent>
    </dc:creator>
   </cc:Work>
  </rdf:RDF>
 </metadata>
 <defs>
  <style type="text/css">*{stroke-linejoin: round; stroke-linecap: butt}</style>
 </defs>
 <g id="figure_1">
  <g id="patch_1">
   <path d="M 0 66.636
L 75.42 66.636
L 75.42 0
L 0 0
z
" style="fill: #ffffff"/>
  </g>
  <g id="axes_1">
   <g id="patch_2">
    <path d="M 1.44 65.196
L 73.98 65.196
L 73.98 1.44
L 1.44 1.44
z
" style="fill: #ffffff"/>
   </g>
   <g id="matplotlib.axis_1">
    <g id="xtick_1">
     <g id="line2d_1"/>
    </g>
    <g id="xtick_2">
     <g id="line2d_2"/>
    </g>
    <g id="xtick_3">
     <g id="line2d_3"/>
    </g>
    <g id="xtick_4">
     <g id="line2d_4"/>
    </g>
    <g id="xtick_5">
     <g id="line2d_5"/>
    </g>
    <g id="xtick_6">
     <g id="line2d_6"/>
    </g>
    <g id="xtick_7">
     <g id="line2d_7"/>
    </g>
    <g id="xtick_8">
     <g id="line2d_8"/>
    </g>
    <g id="xtick_9">
     <g id="line2d_9"/>
    </g>
    <g id="xtick_10">
     <g id="line2d_10"/>
    </g>
    <g id="xtick_11">
     <g id="line2d_11"/>
    </g>
    <g id="xtick_12">
     <g id="line2d_12"/>
    </g>
    <g id="xtick_13">
     <g id="line2d_13"/>
    </g>
    <g id="xtick_14">
     <g id="line2d_14"/>
    </g>
    <g id="xtick_15">
     <g id="line2d_15"/>
    </g>
    <g id="xtick_16">
     <g id="line2d_16"/>
    </g>
    <g id="xtick_17">
     <g id="line2d_17"/>
    </g>
    <g id="xtick_18">
     <g id="line2d_18"/>
    </g>
   </g>
   <g id="matplotlib.axis_2">
    <g id="ytick_1">
     <g id="line2d_19"/>
    </g>
    <g id="ytick_2">
     <g id="line2d_20"/>
    </g>
    <g id="ytick_3">
     <g id="line2d_21"/>
    </g>
    <g id="ytick_4">
     <g id="line2d_22"/>
    </g>
    <g id="ytick_5">
     <g id="line2d_23"/>
    </g>
    <g id="ytick_6">
     <g id="line2d_24"/>
    </g>
    <g id="ytick_7">
     <g id="line2d_25"/>
    </g>
    <g id="ytick_8">
     <g id="line2d_26"/>
    </g>
    <g id="ytick_9">
     <g id="line2d_27"/>
    </g>
    <g id="ytick_10">
     <g id="line2d_28"/>
    </g>
    <g id="ytick_11">
     <g id="line2d_29"/>
    </g>
    <g id="ytick_12">
     <g id="line2d_30"/>
    </g>
    <g id="ytick_13">
     <g id="line2d_31"/>
    </g>
    <g id="ytick_14">
     <g id="line2d_32"/>
    </g>
    <g id="ytick_15">
     <g id="line2d_33"/>
    </g>
    <g id="ytick_16">
     <g id="line2d_34"/>
    </g>
    <g id="ytick_17">
     <g id="line2d_35"/>
    </g>
    <g id="ytick_18">
     <g id="line2d_36"/>
    </g>
    <g id="ytick_19">
     <g id="line2d_37"/>
    </g>
    <g id="ytick_20">
     <g id="line2d_38"/>
    </g>
   </g>
   <g id="line2d_39">
    <path d="M 1.44 52.915881
L 52.473166 9.496156
L 52.473166 9.496156
" clip-path="url(#pb95f9e5162)" style="fill: none; stroke: #006395; stroke-width: 1.45; stroke-linecap: square"/>
   </g>
   <g id="line2d_40">
    <path d="M 52.837688 9.187892
L 53.202211 9.187892
L 53.566734 9.187892
L 53.931256 9.187892
L 54.295779 9.187892
L 54.660302 9.187892
L 55.024824 9.187892
L 55.389347 9.187892
L 55.753869 9.187892
L 56.118392 9.187892
L 56.482915 9.187892
L 56.847437 9.187892
L 57.21196 9.187892
L 57.576482 9.187892
L 57.941005 9.187892
L 58.305528 9.187892
L 58.67005 9.187892
L 59.034573 9.187892
L 59.399095 9.187892
L 59.763618 9.187892
L 60.128141 9.187892
L 60.492663 9.187892
L 60.857186 9.187892
L 61.221709 9.187892
L 61.586231 9.187892
L 61.950754 9.187892
L 62.315276 9.187892
L 62.679799 9.187892
L 63.044322 9.187892
L 63.408844 9.187892
L 63.773367 9.187892
L 64.137889 9.187892
L 64.502412 9.187892
L 64.866935 9.187892
L 65.231457 9.187892
L 65.59598 9.187892
L 65.960503 9.187892
L 66.325025 9.187892
L 66.689548 9.187892
L 67.05407 9.187892
L 67.418593 9.187892
L 67.783116 9.187892
L 68.147638 9.187892
L 68.512161 9.187892
L 68.876683 9.187892
L 69.241206 9.187892
L 69.605729 9.187892
L 69.970251 9.187892
L 70.334774 9.187892
L 70.699296 9.187892
L 71.063819 9.187892
L 71.428342 9.187892
L 71.792864 9.187892
L 72.157387 9.187892
L 72.52191 9.187892
L 72.886432 9.187892
L 73.250955 9.187892
L 73.615477 9.187892
L 73.98 9.187892
" clip-path="url(#pb95f9e5162)" style="fill: none; stroke: #e67817; stroke-width: 1.45; stroke-linecap: square"/>
   </g>
   <g id="line2d_41">
    <path d="M 52.835483 65.196
L 52.835483 1.44
" clip-path="url(#pb95f9e5162)" style="fill: none; stroke-dasharray: 2.035,0.88; stroke-dashoffset: 0; stroke: #cccccc; stroke-width: 0.55"/>
   </g>
   <g id="line2d_42">
    <defs>
     <path id="m1d5e6a1210" d="M 0 1.6
C 0.424325 1.6 0.831328 1.431414 1.131371 1.131371
C 1.431414 0.831328 1.6 0.424325 1.6 0
C 1.6 -0.424325 1.431414 -0.831328 1.131371 -1.131371
C 0.831328 -1.431414 0.424325 -1.6 0 -1.6
C -0.424325 -1.6 -0.831328 -1.431414 -1.131371 -1.131371
C -1.431414 -0.831328 -1.6 -0.424325 -1.6 0
C -1.6 0.424325 -1.431414 0.831328 -1.131371 1.131371
C -0.831328 1.431414 -0.424325 1.6 0 1.6
z
" style="stroke: #333333"/>
    </defs>
    <g clip-path="url(#pb95f9e5162)">
     <use xlink:href="#m1d5e6a1210" x="22.584517" y="34.925833" style="fill: #333333; stroke: #333333"/>
    </g>
   </g>
   <g id="patch_3">
    <path d="M 1.44 65.196
L 1.44 1.44
" style="fill: none; stroke: #cccccc; stroke-width: 0.55; stroke-linejoin: miter; stroke-linecap: square"/>
   </g>
   <g id="patch_4">
    <path d="M 1.44 65.196
L 73.98 65.196
" style="fill: none; stroke: #cccccc; stroke-width: 0.55; stroke-linejoin: miter; stroke-linecap: square"/>
   </g>
  </g>
 </g>
 <defs>
  <clipPath id="pb95f9e5162">
   <rect x="1.44" y="1.44" width="72.54" height="63.756"/>
  </clipPath>
 </defs>
</svg>
