<?xml version="1.0" encoding="utf-8" standalone="no"?>
<!DOCTYPE svg PUBLIC "-//W3C//DTD SVG 1.1//EN"
  "http://www.w3.org/Graphics/SVG/1.1/DTD/svg11.dtd">
<svg xmlns:xlink="http://www.w3.org/1999/xlink" width="72.63pt" height="99.9pt" viewBox="0 0 72.63 99.9" xmlns="http://www.w3.org/2000/svg" version="1.1">
 <metadata>
  <rdf:RDF xmlns:dc="http://purl.org/dc/elements/1.1/" xmlns:cc="http://creativecommons.org/ns#" xmlns:rdf="http://www.w3.org/1999/02/22-rdf-syntax-ns#">
   <cc:Work>
    <dc:type rdf:resource="http://purl.org/dc/dcmitype/StillImage"/>
    <dc:format>image/svg+xml</dc:format>
    <dc:creator>
     <cc:Agent>
      <dc:title>Matplotlib v3.10.8, https://matplotlib.org/</dc:title>
     </cc:Agent>
    </dc:creator>
   </cc:Work>
  </rdf:RDF>
 </metadata>
 <defs>
  <style type="text/css">*{stroke-linejoin: round; stroke-linecap: butt}</style>
 </defs>
 <g id="figure_1">
  <g id="patch_1">
   <path d="M 0 99.9
L 72.63 99.9
L 72.63 0
L 0 0
z
" style="fill: #ffffff"/>
  </g>
  <g id="axes_1">
   <g id="patch_2">
    <path d="M 1.44 98.46
L 71.19 98.46
L 71.19 1.44
L 1.44 1.44
z
" style="fill: #ffffff"/>
   </g>
   <g id="patch_3">
    <path d="M 1.44 31.5162
L 64.984915 31.5162
L 64.984915 10.1718
L 1.44 10.1718
z
" clip-path="url(#p879ee31a35)" style="fill: #e67817; opacity: 0.92"/>
   </g>
   <g id="patch_4">
    <path d="M 1.44 63.8562
L 24.826151 63.8562
L 24.826151 42.5118
L 1.44 42.5118
z
" clip-path="url(#p879ee31a35)" style="fill: #e67817; opacity: 0.92"/>
   </g>
   <g id="patch_5">
    <path d="M 1.44 96.1962
L 11.303036 96.1962
L 11.303036 74.8518
L 1.44 74.8518
z
" clip-path="url(#p879ee31a35)" style="fill: #e67817; opacity: 0.92"/>
   </g>
   <g id="matplotlib.axis_1">
    <g id="xtick_1">
     <g id="line2d_1"/>
    </g>
    <g id="xtick_2">
     <g id="line2d_2"/>
    </g>
    <g id="xtick_3">
     <g id="line2d_3"/>
    </g>
    <g id="xtick_4">
     <g id="line2d_4"/>
    </g>
    <g id="xtick_5">
     <g id="line2d_5"/>
    </g>
    <g id="xtick_6">
     <g id="line2d_6"/>
    </g>
    <g id="xtick_7">
     <g id="line2d_7"/>
    </g>
    <g id="xtick_8">
     <g id="line2d_8"/>
    </g>
    <g id="xtick_9">
     <g id="line2d_9"/>
    </g>
    <g id="xtick_10">
     <g id="line2d_10"/>
    </g>
    <g id="xtick_11">
     <g id="line2d_11"/>
    </g>
    <g id="xtick_12">
     <g id="line2d_12"/>
    </g>
    <g id="xtick_13">
     <g id="line2d_13"/>
    </g>
    <g id="xtick_14">
     <g id="line2d_14"/>
    </g>
    <g id="xtick_15">
     <g id="line2d_15"/>
    </g>
    <g id="xtick_16">
     <g id="line2d_16"/>
    </g>
    <g id="xtick_17">
     <g id="line2d_17"/>
    </g>
    <g id="xtick_18">
     <g id="line2d_18"/>
    </g>
    <g id="xtick_19">
     <g id="line2d_19"/>
    </g>
    <g id="xtick_20">
     <g id="line2d_20"/>
    </g>
    <g id="xtick_21">
     <g id="line2d_21"/>
    </g>
    <g id="xtick_22">
     <g id="line2d_22"/>
    </g>
    <g id="xtick_23">
     <g id="line2d_23"/>
    </g>
    <g id="xtick_24">
     <g id="line2d_24"/>
    </g>
    <g id="xtick_25">
     <g id="line2d_25"/>
    </g>
    <g id="xtick_26">
     <g id="line2d_26"/>
    </g>
    <g id="xtick_27">
     <g id="line2d_27"/>
    </g>
    <g id="xtick_28">
     <g id="line2d_28"/>
    </g>
    <g id="xtick_29">
     <g id="line2d_29"/>
    </g>
    <g id="xtick_30">
     <g id="line2d_30"/>
    </g>
    <g id="xtick_31">
     <g id="line2d_31"/>
    </g>
    <g id="xtick_32">
     <g id="line2d_32"/>
    </g>
   </g>
   <g id="matplotlib.axis_2"/>
   <g id="patch_6">
    <path d="M 1.44 98.46
L 71.19 98.46
" style="fill: none; stroke: #cccccc; stroke-width: 0.55; stroke-linejoin: miter; stroke-linecap: square"/>
   </g>
   <g id="text_1">
    <!-- DRAM 640 pJ -->
    <g style="fill: #ffffff" transform="translate(31.959239 22.167156) scale(0.052 -0.052)">
     <defs>
      <path id="Helvetica-44" d="M 2250 531
Q 2566 531 2769 597
Q 3131 719 3363 1066
Q 3547 1344 3628 1778
Q 3675 2038 3675 2259
Q 3675 3113 3336 3584
Q 2997 4056 2244 4056
L 1141 4056
L 1141 531
L 2250 531
z
M 516 4591
L 2375 4591
Q 3322 4591 3844 3919
Q 4309 3313 4309 2366
Q 4309 1634 4034 1044
Q 3550 0 2369 0
L 516 0
L 516 4591
z
" transform="scale(0.015625)"/>
      <path id="Helvetica-52" d="M 2622 2488
Q 3059 2488 3314 2663
Q 3569 2838 3569 3294
Q 3569 3784 3213 3963
Q 3022 4056 2703 4056
L 1184 4056
L 1184 2488
L 2622 2488
z
M 563 4591
L 2688 4591
Q 3213 4591 3553 4438
Q 4200 4144 4200 3353
Q 4200 2941 4029 2678
Q 3859 2416 3553 2256
Q 3822 2147 3958 1969
Q 4094 1791 4109 1391
L 4131 775
Q 4141 513 4175 384
Q 4231 166 4375 103
L 4375 0
L 3613 0
Q 3581 59 3562 153
Q 3544 247 3531 516
L 3494 1281
Q 3472 1731 3159 1884
Q 2981 1969 2600 1969
L 1184 1969
L 1184 0
L 563 0
L 563 4591
z
" transform="scale(0.015625)"/>
      <path id="Helvetica-41" d="M 2844 1881
L 2147 3909
L 1406 1881
L 2844 1881
z
M 1822 4591
L 2525 4591
L 4191 0
L 3509 0
L 3044 1375
L 1228 1375
L 731 0
L 94 0
L 1822 4591
z
" transform="scale(0.015625)"/>
      <path id="Helvetica-4d" d="M 472 4591
L 1363 4591
L 2681 709
L 3991 4591
L 4872 4591
L 4872 0
L 4281 0
L 4281 2709
Q 4281 2850 4287 3175
Q 4294 3500 4294 3872
L 2984 0
L 2369 0
L 1050 3872
L 1050 3731
Q 1050 3563 1058 3217
Q 1066 2872 1066 2709
L 1066 0
L 472 0
L 472 4591
z
" transform="scale(0.015625)"/>
      <path id="Helvetica-20" transform="scale(0.015625)"/>
      <path id="Helvetica-36" d="M 1872 4494
Q 2622 4494 2917 4105
Q 3213 3716 3213 3303
L 2656 3303
Q 2606 3569 2497 3719
Q 2294 4000 1881 4000
Q 1409 4000 1131 3564
Q 853 3128 822 2316
Q 1016 2600 1309 2741
Q 1578 2866 1909 2866
Q 2472 2866 2890 2506
Q 3309 2147 3309 1434
Q 3309 825 2912 354
Q 2516 -116 1781 -116
Q 1153 -116 697 361
Q 241 838 241 1966
Q 241 2800 444 3381
Q 834 4494 1872 4494
z
M 1831 384
Q 2275 384 2495 682
Q 2716 981 2716 1388
Q 2716 1731 2519 2042
Q 2322 2353 1803 2353
Q 1441 2353 1167 2112
Q 894 1872 894 1388
Q 894 963 1142 673
Q 1391 384 1831 384
z
" transform="scale(0.015625)"/>
      <path id="Helvetica-34" d="M 2116 1584
L 2116 3613
L 681 1584
L 2116 1584
z
M 2125 0
L 2125 1094
L 163 1094
L 163 1644
L 2213 4488
L 2688 4488
L 2688 1584
L 3347 1584
L 3347 1094
L 2688 1094
L 2688 0
L 2125 0
z
" transform="scale(0.015625)"/>
      <path id="Helvetica-30" d="M 1731 4475
Q 2600 4475 2988 3759
Q 3288 3206 3288 2244
Q 3288 1331 3016 734
Q 2622 -122 1728 -122
Q 922 -122 528 578
Q 200 1163 200 2147
Q 200 2909 397 3456
Q 766 4475 1731 4475
z
M 1725 391
Q 2163 391 2422 778
Q 2681 1166 2681 2222
Q 2681 2984 2493 3476
Q 2306 3969 1766 3969
Q 1269 3969 1039 3501
Q 809 3034 809 2125
Q 809 1441 956 1025
Q 1181 391 1725 391
z
" transform="scale(0.015625)"/>
      <path id="Helvetica-70" d="M 1825 378
Q 2219 378 2480 708
Q 2741 1038 2741 1694
Q 2741 2094 2625 2381
Q 2406 2934 1825 2934
Q 1241 2934 1025 2350
Q 909 2038 909 1556
Q 909 1169 1025 897
Q 1244 378 1825 378
z
M 369 3331
L 916 3331
L 916 2888
Q 1084 3116 1284 3241
Q 1569 3428 1953 3428
Q 2522 3428 2919 2992
Q 3316 2556 3316 1747
Q 3316 653 2744 184
Q 2381 -113 1900 -113
Q 1522 -113 1266 53
Q 1116 147 931 375
L 931 -1334
L 369 -1334
L 369 3331
z
" transform="scale(0.015625)"/>
      <path id="Helvetica-4a" d="M 2741 1369
Q 2741 788 2569 466
Q 2250 -122 1356 -122
Q 841 -122 475 158
Q 109 438 109 1153
L 109 1481
L 694 1481
L 694 1153
Q 694 778 861 589
Q 1028 400 1381 400
Q 1878 400 2031 741
Q 2125 950 2125 1531
L 2125 4591
L 2741 4591
L 2741 1369
z
" transform="scale(0.015625)"/>
     </defs>
     <use xlink:href="#Helvetica-44"/>
     <use xlink:href="#Helvetica-52" transform="translate(72.216797 0)"/>
     <use xlink:href="#Helvetica-41" transform="translate(144.433594 0)"/>
     <use xlink:href="#Helvetica-4d" transform="translate(211.132812 0)"/>
     <use xlink:href="#Helvetica-20" transform="translate(294.433594 0)"/>
     <use xlink:href="#Helvetica-36" transform="translate(322.216797 0)"/>
     <use xlink:href="#Helvetica-34" transform="translate(377.832031 0)"/>
     <use xlink:href="#Helvetica-30" transform="translate(433.447266 0)"/>
     <use xlink:href="#Helvetica-20" transform="translate(489.0625 0)"/>
     <use xlink:href="#Helvetica-70" transform="translate(516.845703 0)"/>
     <use xlink:href="#Helvetica-4a" transform="translate(572.460938 0)"/>
    </g>
   </g>
   <g id="text_2">
    <!-- MAC 3.7 pJ -->
    <g style="fill: #333333" transform="translate(27.862078 54.557937) scale(0.052 -0.052)">
     <defs>
      <path id="Helvetica-43" d="M 2422 4716
Q 3294 4716 3775 4256
Q 4256 3797 4309 3213
L 3703 3213
Q 3600 3656 3292 3915
Q 2984 4175 2428 4175
Q 1750 4175 1333 3698
Q 916 3222 916 2238
Q 916 1431 1292 929
Q 1669 428 2416 428
Q 3103 428 3463 956
Q 3653 1234 3747 1688
L 4353 1688
Q 4272 963 3816 472
Q 3269 -119 2341 -119
Q 1541 -119 997 366
Q 281 1006 281 2344
Q 281 3359 819 4009
Q 1400 4716 2422 4716
z
M 2297 4716
L 2297 4716
z
" transform="scale(0.015625)"/>
      <path id="Helvetica-33" d="M 1663 -122
Q 869 -122 511 314
Q 153 750 153 1375
L 741 1375
Q 778 941 903 744
Q 1122 391 1694 391
Q 2138 391 2406 628
Q 2675 866 2675 1241
Q 2675 1703 2392 1887
Q 2109 2072 1606 2072
Q 1550 2072 1492 2070
Q 1434 2069 1375 2066
L 1375 2563
Q 1463 2553 1522 2550
Q 1581 2547 1650 2547
Q 1966 2547 2169 2647
Q 2525 2822 2525 3272
Q 2525 3606 2287 3787
Q 2050 3969 1734 3969
Q 1172 3969 956 3594
Q 838 3388 822 3006
L 266 3006
Q 266 3506 466 3856
Q 809 4481 1675 4481
Q 2359 4481 2734 4176
Q 3109 3872 3109 3294
Q 3109 2881 2888 2625
Q 2750 2466 2531 2375
Q 2884 2278 3082 2001
Q 3281 1725 3281 1325
Q 3281 684 2859 281
Q 2438 -122 1663 -122
z
" transform="scale(0.015625)"/>
      <path id="Helvetica-2e" d="M 547 681
L 1200 681
L 1200 0
L 547 0
L 547 681
z
" transform="scale(0.015625)"/>
      <path id="Helvetica-37" d="M 3347 4400
L 3347 3909
Q 3131 3700 2773 3181
Q 2416 2663 2141 2063
Q 1869 1478 1728 997
Q 1638 688 1494 0
L 872 0
Q 1084 1281 1809 2550
Q 2238 3294 2709 3834
L 234 3834
L 234 4400
L 3347 4400
z
" transform="scale(0.015625)"/>
     </defs>
     <use xlink:href="#Helvetica-4d"/>
     <use xlink:href="#Helvetica-41" transform="translate(83.300781 0)"/>
     <use xlink:href="#Helvetica-43" transform="translate(150 0)"/>
     <use xlink:href="#Helvetica-20" transform="translate(222.216797 0)"/>
     <use xlink:href="#Helvetica-33" transform="translate(250 0)"/>
     <use xlink:href="#Helvetica-2e" transform="translate(305.615234 0)"/>
     <use xlink:href="#Helvetica-37" transform="translate(333.398438 0)"/>
     <use xlink:href="#Helvetica-20" transform="translate(389.013672 0)"/>
     <use xlink:href="#Helvetica-70" transform="translate(416.796875 0)"/>
     <use xlink:href="#Helvetica-4a" transform="translate(472.412109 0)"/>
    </g>
   </g>
   <g id="text_3">
    <!-- SRAM 0.5 pJ -->
    <g style="fill: #333333" transform="translate(12.104373 86.897937) scale(0.052 -0.052)">
     <defs>
      <path id="Helvetica-53" d="M 894 1481
Q 916 1091 1078 847
Q 1388 391 2169 391
Q 2519 391 2806 491
Q 3363 684 3363 1184
Q 3363 1559 3128 1719
Q 2891 1875 2384 1991
L 1763 2131
Q 1153 2269 900 2434
Q 463 2722 463 3294
Q 463 3913 891 4309
Q 1319 4706 2103 4706
Q 2825 4706 3329 4357
Q 3834 4009 3834 3244
L 3250 3244
Q 3203 3613 3050 3809
Q 2766 4169 2084 4169
Q 1534 4169 1293 3937
Q 1053 3706 1053 3400
Q 1053 3063 1334 2906
Q 1519 2806 2169 2656
L 2813 2509
Q 3278 2403 3531 2219
Q 3969 1897 3969 1284
Q 3969 522 3414 194
Q 2859 -134 2125 -134
Q 1269 -134 784 303
Q 300 738 309 1481
L 894 1481
z
M 2150 4716
L 2150 4716
z
" transform="scale(0.015625)"/>
      <path id="Helvetica-35" d="M 791 1141
Q 847 659 1238 475
Q 1438 381 1700 381
Q 2200 381 2440 700
Q 2681 1019 2681 1406
Q 2681 1875 2395 2131
Q 2109 2388 1709 2388
Q 1419 2388 1211 2275
Q 1003 2163 856 1963
L 369 1991
L 709 4400
L 3034 4400
L 3034 3856
L 1131 3856
L 941 2613
Q 1097 2731 1238 2791
Q 1488 2894 1816 2894
Q 2431 2894 2859 2497
Q 3288 2100 3288 1491
Q 3288 856 2895 371
Q 2503 -113 1644 -113
Q 1097 -113 676 195
Q 256 503 206 1141
L 791 1141
z
" transform="scale(0.015625)"/>
     </defs>
     <use xlink:href="#Helvetica-53"/>
     <use xlink:href="#Helvetica-52" transform="translate(66.699219 0)"/>
     <use xlink:href="#Helvetica-41" transform="translate(138.916016 0)"/>
     <use xlink:href="#Helvetica-4d" transform="translate(205.615234 0)"/>
     <use xlink:href="#Helvetica-20" transform="translate(288.916016 0)"/>
     <use xlink:href="#Helvetica-30" transform="translate(316.699219 0)"/>
     <use xlink:href="#Helvetica-2e" transform="translate(372.314453 0)"/>
     <use xlink:href="#Helvetica-35" transform="translate(400.097656 0)"/>
     <use xlink:href="#Helvetica-20" transform="translate(455.712891 0)"/>
     <use xlink:href="#Helvetica-70" transform="translate(483.496094 0)"/>
     <use xlink:href="#Helvetica-4a" transform="translate(539.111328 0)"/>
    </g>
   </g>
  </g>
 </g>
 <defs>
  <clipPath id="p879ee31a35">
   <rect x="1.44" y="1.44" width="69.75" height="97.02"/>
  </clipPath>
 </defs>
</svg>
