<?xml version="1.0" encoding="UTF-8"?>
<!DOCTYPE svg PUBLIC "-//W3C//DTD SVG 1.1//EN"
  "http://www.w3.org/Graphics/SVG/1.1/DTD/svg11.dtd">
<svg xmlns:xlink="http://www.w3.org/1999/xlink" width="61.47pt" height="66.636pt" viewBox="0 0 61.47 66.636" xmlns="http://www.w3.org/2000/svg" version="1.1">
 <metadata>
  <rdf:RDF xmlns:dc="http://purl.org/dc/elements/1.1/" xmlns:cc="http://creativecommons.org/ns#" xmlns:rdf="http://www.w3.org/1999/02/22-rdf-syntax-ns#">
   <cc:Work>
    <dc:type rdf:resource="http://purl.org/dc/dcmitype/StillImage"/>
    <dc:format>image/svg+xml</dc:format>
    <dc:creator>
     <cc:Agent>
      <dc:title>Matplotlib v3.10.8, https://matplotlib.org/</dc:title>
     </cc:Agent>
    </dc:creator>
   </cc:Work>
  </rdf:RDF>
 </metadata>
 <defs>
  <style type="text/css">*{stroke-linejoin: round; stroke-linecap: butt}</style>
 </defs>
 <g id="figure_1">
  <g id="patch_1">
   <path d="M 0 66.636
L 61.47 66.636
L 61.47 0
L 0 0
z
" style="fill: #ffffff"/>
  </g>
  <g id="axes_1">
   <g id="patch_2">
    <path d="M 1.44 65.196
L 60.03 65.196
L 60.03 1.44
L 1.44 1.44
z
" style="fill: #ffffff"/>
   </g>
   <g id="patch_3">
    <path d="M 3.163235 53.052
L 20.395588 53.052
L 20.395588 15.4056
L 3.163235 15.4056
z
" clip-path="url(#pa84189c55a)" style="fill: #dddddd"/>
   </g>
   <g id="patch_4">
    <path d="M 22.118824 53.052
L 39.351176 53.052
L 39.351176 15.4056
L 22.118824 15.4056
z
" clip-path="url(#pa84189c55a)" style="fill: #dddddd"/>
   </g>
   <g id="patch_5">
    <path d="M 41.074412 53.052
L 58.306765 53.052
L 58.306765 15.4056
L 41.074412 15.4056
z
" clip-path="url(#pa84189c55a)" style="fill: #006395"/>
   </g>
   <g id="matplotlib.axis_1"/>
   <g id="matplotlib.axis_2"/>
   <g id="text_1">
    <!-- D -->
    <g style="fill: #999999" transform="translate(8.890662 36.264425) scale(0.08 -0.08)">
     <defs>
      <path id="Helvetica-44" d="M 2250 531
Q 2566 531 2769 597
Q 3131 719 3363 1066
Q 3547 1344 3628 1778
Q 3675 2038 3675 2259
Q 3675 3113 3336 3584
Q 2997 4056 2244 4056
L 1141 4056
L 1141 531
L 2250 531
z
M 516 4591
L 2375 4591
Q 3322 4591 3844 3919
Q 4309 3313 4309 2366
Q 4309 1634 4034 1044
Q 3550 0 2369 0
L 516 0
L 516 4591
z
" transform="scale(0.015625)"/>
     </defs>
     <use xlink:href="#Helvetica-44"/>
    </g>
   </g>
   <g id="text_2">
    <!-- A -->
    <g style="fill: #999999" transform="translate(28.066875 36.264425) scale(0.08 -0.08)">
     <defs>
      <path id="Helvetica-41" d="M 2844 1881
L 2147 3909
L 1406 1881
L 2844 1881
z
M 1822 4591
L 2525 4591
L 4191 0
L 3509 0
L 3044 1375
L 1228 1375
L 731 0
L 94 0
L 1822 4591
z
" transform="scale(0.015625)"/>
     </defs>
     <use xlink:href="#Helvetica-41"/>
    </g>
   </g>
   <g id="text_3">
    <!-- I -->
    <g style="fill: #ffffff" transform="translate(48.579338 36.264425) scale(0.08 -0.08)">
     <defs>
      <path id="Helvetica-49" d="M 628 4591
L 1256 4591
L 1256 0
L 628 0
L 628 4591
z
" transform="scale(0.015625)"/>
     </defs>
     <use xlink:href="#Helvetica-49"/>
    </g>
   </g>
  </g>
 </g>
 <defs>
  <clipPath id="pa84189c55a">
   <rect x="1.44" y="1.44" width="58.59" height="63.756"/>
  </clipPath>
 </defs>
</svg>
