<?xml version="1.0" encoding="UTF-8"?>
<!DOCTYPE svg PUBLIC "-//W3C//DTD SVG 1.1//EN"
  "http://www.w3.org/Graphics/SVG/1.1/DTD/svg11.dtd">
<svg xmlns:xlink="http://www.w3.org/1999/xlink" width="70.956pt" height="30.6pt" viewBox="0 0 70.956 30.6" xmlns="http://www.w3.org/2000/svg" version="1.1">
 <metadata>
  <rdf:RDF xmlns:dc="http://purl.org/dc/elements/1.1/" xmlns:cc="http://creativecommons.org/ns#" xmlns:rdf="http://www.w3.org/1999/02/22-rdf-syntax-ns#">
   <cc:Work>
    <dc:type rdf:resource="http://purl.org/dc/dcmitype/StillImage"/>
    <dc:format>image/svg+xml</dc:format>
    <dc:creator>
     <cc:Agent>
      <dc:title>Matplotlib v3.10.8, https://matplotlib.org/</dc:title>
     </cc:Agent>
    </dc:creator>
   </cc:Work>
  </rdf:RDF>
 </metadata>
 <defs>
  <style type="text/css">*{stroke-linejoin: round; stroke-linecap: butt}</style>
 </defs>
 <g id="figure_1">
  <g id="patch_1">
   <path d="M 0 30.6
L 70.956 30.6
L 70.956 0
L 0 0
z
" style="fill: #ffffff"/>
  </g>
  <g id="axes_1">
   <g id="patch_2">
    <path d="M 1.44 29.16
L 69.516 29.16
L 69.516 1.44
L 1.44 1.44
z
" style="fill: #ffffff"/>
   </g>
   <g id="patch_3">
    <path d="M 5.52456 17.5176
L 18.136535 17.5176
L 18.136535 12.528
L 5.52456 12.528
z
" clip-path="url(#pde2e020089)" style="fill: #cccccc; stroke: #ffffff; stroke-width: 0.35; stroke-linejoin: miter"/>
   </g>
   <g id="patch_4">
    <path d="M 18.136535 17.5176
L 65.43144 17.5176
L 65.43144 12.528
L 18.136535 12.528
z
" clip-path="url(#pde2e020089)" style="fill: #7e317b; stroke: #ffffff; stroke-width: 0.35; stroke-linejoin: miter"/>
   </g>
   <g id="matplotlib.axis_1"/>
   <g id="matplotlib.axis_2"/>
   <g id="text_1">
    <!-- $24K -->
    <g style="fill: #555555" transform="translate(6.576094 10.901039) scale(0.045 -0.045)">
     <defs>
      <path id="Helvetica-24" d="M 1909 325
Q 2444 350 2647 716
Q 2753 903 2753 1150
Q 2753 1541 2466 1744
Q 2300 1863 1909 1969
L 1909 325
z
M 850 3341
Q 850 3031 1054 2856
Q 1259 2681 1606 2613
L 1606 4081
Q 1197 4066 1023 3831
Q 850 3597 850 3341
z
M 288 3303
Q 288 3778 636 4159
Q 984 4541 1613 4547
L 1613 4963
L 1909 4963
L 1909 4553
Q 2531 4509 2864 4186
Q 3197 3863 3213 3331
L 2666 3331
Q 2644 3569 2538 3741
Q 2341 4056 1909 4072
L 1909 2553
Q 2634 2350 2894 2172
Q 3316 1878 3316 1303
Q 3316 472 2775 122
Q 2475 -72 1909 -134
L 1909 -741
L 1613 -741
L 1613 -134
Q 703 -75 378 509
Q 200 825 200 1363
L 753 1363
Q 778 934 888 738
Q 1081 384 1606 341
L 1606 2044
Q 931 2172 609 2472
Q 288 2772 288 3303
z
" transform="scale(0.015625)"/>
      <path id="Helvetica-32" d="M 200 0
Q 231 578 439 1006
Q 647 1434 1250 1784
L 1850 2131
Q 2253 2366 2416 2531
Q 2672 2791 2672 3125
Q 2672 3516 2437 3745
Q 2203 3975 1813 3975
Q 1234 3975 1013 3538
Q 894 3303 881 2888
L 309 2888
Q 319 3472 525 3841
Q 891 4491 1816 4491
Q 2584 4491 2939 4075
Q 3294 3659 3294 3150
Q 3294 2613 2916 2231
Q 2697 2009 2131 1694
L 1703 1456
Q 1397 1288 1222 1134
Q 909 863 828 531
L 3272 531
L 3272 0
L 200 0
z
" transform="scale(0.015625)"/>
      <path id="Helvetica-34" d="M 2116 1584
L 2116 3613
L 681 1584
L 2116 1584
z
M 2125 0
L 2125 1094
L 163 1094
L 163 1644
L 2213 4488
L 2688 4488
L 2688 1584
L 3347 1584
L 3347 1094
L 2688 1094
L 2688 0
L 2125 0
z
" transform="scale(0.015625)"/>
      <path id="Helvetica-4b" d="M 488 4591
L 1094 4591
L 1094 2353
L 3331 4591
L 4191 4591
L 2281 2741
L 4244 0
L 3434 0
L 1828 2303
L 1094 1600
L 1094 0
L 488 0
L 488 4591
z
" transform="scale(0.015625)"/>
     </defs>
     <use xlink:href="#Helvetica-24"/>
     <use xlink:href="#Helvetica-32" transform="translate(55.615234 0)"/>
     <use xlink:href="#Helvetica-34" transform="translate(111.230469 0)"/>
     <use xlink:href="#Helvetica-4b" transform="translate(166.845703 0)"/>
    </g>
   </g>
   <g id="text_2">
    <!-- store -->
    <g style="fill: #555555" transform="translate(7.162313 21.081103) scale(0.042 -0.042)">
     <defs>
      <path id="Helvetica-73" d="M 747 1050
Q 772 769 888 619
Q 1100 347 1625 347
Q 1938 347 2175 483
Q 2413 619 2413 903
Q 2413 1119 2222 1231
Q 2100 1300 1741 1391
L 1294 1503
Q 866 1609 663 1741
Q 300 1969 300 2372
Q 300 2847 642 3140
Q 984 3434 1563 3434
Q 2319 3434 2653 2991
Q 2863 2709 2856 2384
L 2325 2384
Q 2309 2575 2191 2731
Q 1997 2953 1519 2953
Q 1200 2953 1036 2831
Q 872 2709 872 2509
Q 872 2291 1088 2159
Q 1213 2081 1456 2022
L 1828 1931
Q 2434 1784 2641 1647
Q 2969 1431 2969 969
Q 2969 522 2630 197
Q 2291 -128 1597 -128
Q 850 -128 539 211
Q 228 550 206 1050
L 747 1050
z
M 1578 3428
L 1578 3428
z
" transform="scale(0.015625)"/>
      <path id="Helvetica-74" d="M 525 4281
L 1094 4281
L 1094 3347
L 1628 3347
L 1628 2888
L 1094 2888
L 1094 703
Q 1094 528 1213 469
Q 1278 434 1431 434
Q 1472 434 1519 436
Q 1566 438 1628 444
L 1628 0
Q 1531 -28 1426 -40
Q 1322 -53 1200 -53
Q 806 -53 665 148
Q 525 350 525 672
L 525 2888
L 72 2888
L 72 3347
L 525 3347
L 525 4281
z
" transform="scale(0.015625)"/>
      <path id="Helvetica-6f" d="M 1741 363
Q 2300 363 2508 786
Q 2716 1209 2716 1728
Q 2716 2197 2566 2491
Q 2328 2953 1747 2953
Q 1231 2953 997 2559
Q 763 2166 763 1609
Q 763 1075 997 719
Q 1231 363 1741 363
z
M 1763 3444
Q 2409 3444 2856 3012
Q 3303 2581 3303 1744
Q 3303 934 2909 406
Q 2516 -122 1688 -122
Q 997 -122 590 345
Q 184 813 184 1600
Q 184 2444 612 2944
Q 1041 3444 1763 3444
z
M 1744 3428
L 1744 3428
z
" transform="scale(0.015625)"/>
      <path id="Helvetica-72" d="M 428 3347
L 963 3347
L 963 2769
Q 1028 2938 1284 3180
Q 1541 3422 1875 3422
Q 1891 3422 1928 3419
Q 1966 3416 2056 3406
L 2056 2813
Q 2006 2822 1964 2825
Q 1922 2828 1872 2828
Q 1447 2828 1219 2554
Q 991 2281 991 1925
L 991 0
L 428 0
L 428 3347
z
" transform="scale(0.015625)"/>
      <path id="Helvetica-65" d="M 1806 3422
Q 2163 3422 2497 3255
Q 2831 3088 3006 2822
Q 3175 2569 3231 2231
Q 3281 2000 3281 1494
L 828 1494
Q 844 984 1069 676
Q 1294 369 1766 369
Q 2206 369 2469 659
Q 2619 828 2681 1050
L 3234 1050
Q 3213 866 3089 639
Q 2966 413 2813 269
Q 2556 19 2178 -69
Q 1975 -119 1719 -119
Q 1094 -119 659 336
Q 225 791 225 1609
Q 225 2416 662 2919
Q 1100 3422 1806 3422
z
M 2703 1941
Q 2669 2306 2544 2525
Q 2313 2931 1772 2931
Q 1384 2931 1121 2651
Q 859 2372 844 1941
L 2703 1941
z
M 1753 3428
L 1753 3428
z
" transform="scale(0.015625)"/>
     </defs>
     <use xlink:href="#Helvetica-73"/>
     <use xlink:href="#Helvetica-74" transform="translate(50 0)"/>
     <use xlink:href="#Helvetica-6f" transform="translate(77.783203 0)"/>
     <use xlink:href="#Helvetica-72" transform="translate(133.398438 0)"/>
     <use xlink:href="#Helvetica-65" transform="translate(166.699219 0)"/>
    </g>
   </g>
   <g id="text_3">
    <!-- $90K egress -->
    <g style="fill: #ffffff" transform="translate(28.309487 16.352925) scale(0.048 -0.048)">
     <defs>
      <path id="Helvetica-39" d="M 850 1081
Q 875 616 1209 438
Q 1381 344 1597 344
Q 2000 344 2284 680
Q 2569 1016 2688 2044
Q 2500 1747 2223 1626
Q 1947 1506 1628 1506
Q 981 1506 604 1909
Q 228 2313 228 2947
Q 228 3556 600 4018
Q 972 4481 1697 4481
Q 2675 4481 3047 3600
Q 3253 3116 3253 2388
Q 3253 1566 3006 931
Q 2597 -125 1619 -125
Q 963 -125 622 219
Q 281 563 281 1081
L 850 1081
z
M 1703 2000
Q 2038 2000 2314 2220
Q 2591 2441 2591 2991
Q 2591 3484 2342 3726
Q 2094 3969 1709 3969
Q 1297 3969 1055 3692
Q 813 3416 813 2953
Q 813 2516 1025 2258
Q 1238 2000 1703 2000
z
" transform="scale(0.015625)"/>
      <path id="Helvetica-30" d="M 1731 4475
Q 2600 4475 2988 3759
Q 3288 3206 3288 2244
Q 3288 1331 3016 734
Q 2622 -122 1728 -122
Q 922 -122 528 578
Q 200 1163 200 2147
Q 200 2909 397 3456
Q 766 4475 1731 4475
z
M 1725 391
Q 2163 391 2422 778
Q 2681 1166 2681 2222
Q 2681 2984 2493 3476
Q 2306 3969 1766 3969
Q 1269 3969 1039 3501
Q 809 3034 809 2125
Q 809 1441 956 1025
Q 1181 391 1725 391
z
" transform="scale(0.015625)"/>
      <path id="Helvetica-20" transform="scale(0.015625)"/>
      <path id="Helvetica-67" d="M 1594 3406
Q 1988 3406 2281 3213
Q 2441 3103 2606 2894
L 2606 3316
L 3125 3316
L 3125 272
Q 3125 -366 2938 -734
Q 2588 -1416 1616 -1416
Q 1075 -1416 706 -1173
Q 338 -931 294 -416
L 866 -416
Q 906 -641 1028 -763
Q 1219 -950 1628 -950
Q 2275 -950 2475 -494
Q 2594 -225 2584 466
Q 2416 209 2178 84
Q 1941 -41 1550 -41
Q 1006 -41 598 345
Q 191 731 191 1622
Q 191 2463 602 2934
Q 1013 3406 1594 3406
z
M 2606 1688
Q 2606 2309 2350 2609
Q 2094 2909 1697 2909
Q 1103 2909 884 2353
Q 769 2056 769 1575
Q 769 1009 998 714
Q 1228 419 1616 419
Q 2222 419 2469 966
Q 2606 1275 2606 1688
z
M 1659 3428
L 1659 3428
z
" transform="scale(0.015625)"/>
     </defs>
     <use xlink:href="#Helvetica-24"/>
     <use xlink:href="#Helvetica-39" transform="translate(55.615234 0)"/>
     <use xlink:href="#Helvetica-30" transform="translate(111.230469 0)"/>
     <use xlink:href="#Helvetica-4b" transform="translate(166.845703 0)"/>
     <use xlink:href="#Helvetica-20" transform="translate(233.544922 0)"/>
     <use xlink:href="#Helvetica-65" transform="translate(261.328125 0)"/>
     <use xlink:href="#Helvetica-67" transform="translate(316.943359 0)"/>
     <use xlink:href="#Helvetica-72" transform="translate(372.558594 0)"/>
     <use xlink:href="#Helvetica-65" transform="translate(405.859375 0)"/>
     <use xlink:href="#Helvetica-73" transform="translate(461.474609 0)"/>
     <use xlink:href="#Helvetica-73" transform="translate(511.474609 0)"/>
    </g>
   </g>
   <g id="text_4">
    <!-- 10 epochs -->
    <g style="fill: #333333" transform="translate(25.303582 8.816525) scale(0.05 -0.05)">
     <defs>
      <path id="Helvetica-31" d="M 613 3169
L 613 3600
Q 1222 3659 1462 3798
Q 1703 3938 1822 4456
L 2266 4456
L 2266 0
L 1666 0
L 1666 3169
L 613 3169
z
" transform="scale(0.015625)"/>
      <path id="Helvetica-70" d="M 1825 378
Q 2219 378 2480 708
Q 2741 1038 2741 1694
Q 2741 2094 2625 2381
Q 2406 2934 1825 2934
Q 1241 2934 1025 2350
Q 909 2038 909 1556
Q 909 1169 1025 897
Q 1244 378 1825 378
z
M 369 3331
L 916 3331
L 916 2888
Q 1084 3116 1284 3241
Q 1569 3428 1953 3428
Q 2522 3428 2919 2992
Q 3316 2556 3316 1747
Q 3316 653 2744 184
Q 2381 -113 1900 -113
Q 1522 -113 1266 53
Q 1116 147 931 375
L 931 -1334
L 369 -1334
L 369 3331
z
" transform="scale(0.015625)"/>
      <path id="Helvetica-63" d="M 1703 3444
Q 2269 3444 2623 3169
Q 2978 2894 3050 2222
L 2503 2222
Q 2453 2531 2275 2736
Q 2097 2941 1703 2941
Q 1166 2941 934 2416
Q 784 2075 784 1575
Q 784 1072 996 728
Q 1209 384 1666 384
Q 2016 384 2220 598
Q 2425 813 2503 1184
L 3050 1184
Q 2956 519 2581 211
Q 2206 -97 1622 -97
Q 966 -97 575 383
Q 184 863 184 1581
Q 184 2463 612 2953
Q 1041 3444 1703 3444
z
M 1616 3428
L 1616 3428
z
" transform="scale(0.015625)"/>
      <path id="Helvetica-68" d="M 413 4606
L 975 4606
L 975 2894
Q 1175 3147 1334 3250
Q 1606 3428 2013 3428
Q 2741 3428 3000 2919
Q 3141 2641 3141 2147
L 3141 0
L 2563 0
L 2563 2109
Q 2563 2478 2469 2650
Q 2316 2925 1894 2925
Q 1544 2925 1259 2684
Q 975 2444 975 1775
L 975 0
L 413 0
L 413 4606
z
" transform="scale(0.015625)"/>
     </defs>
     <use xlink:href="#Helvetica-31"/>
     <use xlink:href="#Helvetica-30" transform="translate(55.615234 0)"/>
     <use xlink:href="#Helvetica-20" transform="translate(111.230469 0)"/>
     <use xlink:href="#Helvetica-65" transform="translate(139.013672 0)"/>
     <use xlink:href="#Helvetica-70" transform="translate(194.628906 0)"/>
     <use xlink:href="#Helvetica-6f" transform="translate(250.244141 0)"/>
     <use xlink:href="#Helvetica-63" transform="translate(305.859375 0)"/>
     <use xlink:href="#Helvetica-68" transform="translate(355.859375 0)"/>
     <use xlink:href="#Helvetica-73" transform="translate(411.474609 0)"/>
    </g>
   </g>
  </g>
 </g>
 <defs>
  <clipPath id="pde2e020089">
   <rect x="1.44" y="1.44" width="68.076" height="27.72"/>
  </clipPath>
 </defs>
</svg>
