<?xml version="1.0" encoding="UTF-8"?>
<!DOCTYPE svg PUBLIC "-//W3C//DTD SVG 1.1//EN"
  "http://www.w3.org/Graphics/SVG/1.1/DTD/svg11.dtd">
<svg xmlns:xlink="http://www.w3.org/1999/xlink" width="69.84pt" height="41.688pt" viewBox="0 0 69.84 41.688" xmlns="http://www.w3.org/2000/svg" version="1.1">
 <metadata>
  <rdf:RDF xmlns:dc="http://purl.org/dc/elements/1.1/" xmlns:cc="http://creativecommons.org/ns#" xmlns:rdf="http://www.w3.org/1999/02/22-rdf-syntax-ns#">
   <cc:Work>
    <dc:type rdf:resource="http://purl.org/dc/dcmitype/StillImage"/>
    <dc:format>image/svg+xml</dc:format>
    <dc:creator>
     <cc:Agent>
      <dc:title>Matplotlib v3.10.8, https://matplotlib.org/</dc:title>
     </cc:Agent>
    </dc:creator>
   </cc:Work>
  </rdf:RDF>
 </metadata>
 <defs>
  <style type="text/css">*{stroke-linejoin: round; stroke-linecap: butt}</style>
 </defs>
 <g id="figure_1">
  <g id="patch_1">
   <path d="M 0 41.688
L 69.84 41.688
L 69.84 0
L 0 0
z
" style="fill: #ffffff"/>
  </g>
  <g id="axes_1">
   <g id="patch_2">
    <path d="M 1.44 40.248
L 68.4 40.248
L 68.4 1.44
L 1.44 1.44
z
" style="fill: #ffffff"/>
   </g>
   <g id="patch_3">
    <path d="M 8.136 23.94864
L 25.00992 23.94864
L 25.00992 17.73936
L 8.136 17.73936
z
" clip-path="url(#pd7e59ea16a)" style="fill: #cccccc; stroke: #ffffff; stroke-width: 0.35; stroke-linejoin: miter"/>
   </g>
   <g id="patch_4">
    <path d="M 25.81344 23.94864
L 42.68736 23.94864
L 42.68736 17.73936
L 25.81344 17.73936
z
" clip-path="url(#pd7e59ea16a)" style="fill: #cccccc; stroke: #ffffff; stroke-width: 0.35; stroke-linejoin: miter"/>
   </g>
   <g id="patch_5">
    <path d="M 43.49088 23.94864
L 60.3648 23.94864
L 60.3648 17.73936
L 43.49088 17.73936
z
" clip-path="url(#pd7e59ea16a)" style="fill: #cccccc; stroke: #ffffff; stroke-width: 0.35; stroke-linejoin: miter"/>
   </g>
   <g id="matplotlib.axis_1"/>
   <g id="matplotlib.axis_2"/>
   <g id="line2d_1">
    <path d="M 8.136 12.30624
L 60.3648 12.30624
" clip-path="url(#pd7e59ea16a)" style="fill: none; stroke: #cb202d; stroke-width: 1.1; stroke-linecap: square"/>
   </g>
   <g id="line2d_2">
    <path d="M 8.136 13.85856
L 8.136 10.75392
" clip-path="url(#pd7e59ea16a)" style="fill: none; stroke: #cb202d; stroke-width: 0.75; stroke-linecap: square"/>
   </g>
   <g id="line2d_3">
    <path d="M 60.3648 13.85856
L 60.3648 10.75392
" clip-path="url(#pd7e59ea16a)" style="fill: none; stroke: #cb202d; stroke-width: 0.75; stroke-linecap: square"/>
   </g>
   <g id="text_1">
    <!-- 200 -->
    <g style="fill: #555555" transform="translate(12.735913 22.014484) scale(0.046 -0.046)">
     <defs>
      <path id="Helvetica-32" d="M 200 0
Q 231 578 439 1006
Q 647 1434 1250 1784
L 1850 2131
Q 2253 2366 2416 2531
Q 2672 2791 2672 3125
Q 2672 3516 2437 3745
Q 2203 3975 1813 3975
Q 1234 3975 1013 3538
Q 894 3303 881 2888
L 309 2888
Q 319 3472 525 3841
Q 891 4491 1816 4491
Q 2584 4491 2939 4075
Q 3294 3659 3294 3150
Q 3294 2613 2916 2231
Q 2697 2009 2131 1694
L 1703 1456
Q 1397 1288 1222 1134
Q 909 863 828 531
L 3272 531
L 3272 0
L 200 0
z
" transform="scale(0.015625)"/>
      <path id="Helvetica-30" d="M 1731 4475
Q 2600 4475 2988 3759
Q 3288 3206 3288 2244
Q 3288 1331 3016 734
Q 2622 -122 1728 -122
Q 922 -122 528 578
Q 200 1163 200 2147
Q 200 2909 397 3456
Q 766 4475 1731 4475
z
M 1725 391
Q 2163 391 2422 778
Q 2681 1166 2681 2222
Q 2681 2984 2493 3476
Q 2306 3969 1766 3969
Q 1269 3969 1039 3501
Q 809 3034 809 2125
Q 809 1441 956 1025
Q 1181 391 1725 391
z
" transform="scale(0.015625)"/>
     </defs>
     <use xlink:href="#Helvetica-32"/>
     <use xlink:href="#Helvetica-30" transform="translate(55.615234 0)"/>
     <use xlink:href="#Helvetica-30" transform="translate(111.230469 0)"/>
    </g>
   </g>
   <g id="text_2">
    <!-- 200 -->
    <g style="fill: #555555" transform="translate(30.413353 22.014484) scale(0.046 -0.046)">
     <use xlink:href="#Helvetica-32"/>
     <use xlink:href="#Helvetica-30" transform="translate(55.615234 0)"/>
     <use xlink:href="#Helvetica-30" transform="translate(111.230469 0)"/>
    </g>
   </g>
   <g id="text_3">
    <!-- 200 -->
    <g style="fill: #555555" transform="translate(48.090793 22.014484) scale(0.046 -0.046)">
     <use xlink:href="#Helvetica-32"/>
     <use xlink:href="#Helvetica-30" transform="translate(55.615234 0)"/>
     <use xlink:href="#Helvetica-30" transform="translate(111.230469 0)"/>
    </g>
   </g>
   <g id="text_4">
    <!-- P99 500ms -->
    <g style="fill: #cb202d" transform="translate(22.110525 8.870655) scale(0.048 -0.048)">
     <defs>
      <path id="Helvetica-50" d="M 547 4591
L 2613 4591
Q 3225 4591 3600 4245
Q 3975 3900 3975 3275
Q 3975 2738 3640 2339
Q 3306 1941 2613 1941
L 1169 1941
L 1169 0
L 547 0
L 547 4591
z
M 3347 3272
Q 3347 3778 2972 3959
Q 2766 4056 2406 4056
L 1169 4056
L 1169 2466
L 2406 2466
Q 2825 2466 3086 2644
Q 3347 2822 3347 3272
z
" transform="scale(0.015625)"/>
      <path id="Helvetica-39" d="M 850 1081
Q 875 616 1209 438
Q 1381 344 1597 344
Q 2000 344 2284 680
Q 2569 1016 2688 2044
Q 2500 1747 2223 1626
Q 1947 1506 1628 1506
Q 981 1506 604 1909
Q 228 2313 228 2947
Q 228 3556 600 4018
Q 972 4481 1697 4481
Q 2675 4481 3047 3600
Q 3253 3116 3253 2388
Q 3253 1566 3006 931
Q 2597 -125 1619 -125
Q 963 -125 622 219
Q 281 563 281 1081
L 850 1081
z
M 1703 2000
Q 2038 2000 2314 2220
Q 2591 2441 2591 2991
Q 2591 3484 2342 3726
Q 2094 3969 1709 3969
Q 1297 3969 1055 3692
Q 813 3416 813 2953
Q 813 2516 1025 2258
Q 1238 2000 1703 2000
z
" transform="scale(0.015625)"/>
      <path id="Helvetica-20" transform="scale(0.015625)"/>
      <path id="Helvetica-35" d="M 791 1141
Q 847 659 1238 475
Q 1438 381 1700 381
Q 2200 381 2440 700
Q 2681 1019 2681 1406
Q 2681 1875 2395 2131
Q 2109 2388 1709 2388
Q 1419 2388 1211 2275
Q 1003 2163 856 1963
L 369 1991
L 709 4400
L 3034 4400
L 3034 3856
L 1131 3856
L 941 2613
Q 1097 2731 1238 2791
Q 1488 2894 1816 2894
Q 2431 2894 2859 2497
Q 3288 2100 3288 1491
Q 3288 856 2895 371
Q 2503 -113 1644 -113
Q 1097 -113 676 195
Q 256 503 206 1141
L 791 1141
z
" transform="scale(0.015625)"/>
      <path id="Helvetica-6d" d="M 413 3347
L 969 3347
L 969 2872
Q 1169 3119 1331 3231
Q 1609 3422 1963 3422
Q 2363 3422 2606 3225
Q 2744 3113 2856 2894
Q 3044 3163 3297 3292
Q 3550 3422 3866 3422
Q 4541 3422 4784 2934
Q 4916 2672 4916 2228
L 4916 0
L 4331 0
L 4331 2325
Q 4331 2659 4164 2784
Q 3997 2909 3756 2909
Q 3425 2909 3186 2687
Q 2947 2466 2947 1947
L 2947 0
L 2375 0
L 2375 2184
Q 2375 2525 2294 2681
Q 2166 2916 1816 2916
Q 1497 2916 1236 2669
Q 975 2422 975 1775
L 975 0
L 413 0
L 413 3347
z
" transform="scale(0.015625)"/>
      <path id="Helvetica-73" d="M 747 1050
Q 772 769 888 619
Q 1100 347 1625 347
Q 1938 347 2175 483
Q 2413 619 2413 903
Q 2413 1119 2222 1231
Q 2100 1300 1741 1391
L 1294 1503
Q 866 1609 663 1741
Q 300 1969 300 2372
Q 300 2847 642 3140
Q 984 3434 1563 3434
Q 2319 3434 2653 2991
Q 2863 2709 2856 2384
L 2325 2384
Q 2309 2575 2191 2731
Q 1997 2953 1519 2953
Q 1200 2953 1036 2831
Q 872 2709 872 2509
Q 872 2291 1088 2159
Q 1213 2081 1456 2022
L 1828 1931
Q 2434 1784 2641 1647
Q 2969 1431 2969 969
Q 2969 522 2630 197
Q 2291 -128 1597 -128
Q 850 -128 539 211
Q 228 550 206 1050
L 747 1050
z
M 1578 3428
L 1578 3428
z
" transform="scale(0.015625)"/>
     </defs>
     <use xlink:href="#Helvetica-50"/>
     <use xlink:href="#Helvetica-39" transform="translate(66.699219 0)"/>
     <use xlink:href="#Helvetica-39" transform="translate(122.314453 0)"/>
     <use xlink:href="#Helvetica-20" transform="translate(177.929688 0)"/>
     <use xlink:href="#Helvetica-35" transform="translate(205.712891 0)"/>
     <use xlink:href="#Helvetica-30" transform="translate(261.328125 0)"/>
     <use xlink:href="#Helvetica-30" transform="translate(316.943359 0)"/>
     <use xlink:href="#Helvetica-6d" transform="translate(372.558594 0)"/>
     <use xlink:href="#Helvetica-73" transform="translate(455.859375 0)"/>
    </g>
   </g>
   <g id="text_5">
    <!-- Q=3 -->
    <g style="fill: #333333" transform="translate(50.213078 32.206346) scale(0.05 -0.05)">
     <defs>
      <path id="Helvetica-51" d="M 4688 13
L 4375 -366
L 3666 175
Q 3409 34 3111 -50
Q 2813 -134 2459 -134
Q 1391 -134 784 566
Q 250 1247 250 2272
Q 250 3203 713 3866
Q 1306 4716 2469 4716
Q 3684 4716 4269 3934
Q 4725 3325 4725 2375
Q 4725 1931 4616 1522
Q 4450 897 4056 503
L 4688 13
z
M 2534 422
Q 2728 422 2897 448
Q 3066 475 3191 553
L 2688 947
L 3000 1331
L 3600 866
Q 3884 1191 3986 1594
Q 4088 1997 4088 2366
Q 4088 3175 3664 3669
Q 3241 4163 2506 4163
Q 1763 4163 1328 3689
Q 894 3216 894 2231
Q 894 1403 1311 912
Q 1728 422 2534 422
z
" transform="scale(0.015625)"/>
      <path id="Helvetica-3d" d="M 3547 2569
L 3547 2044
L 288 2044
L 288 2569
L 3547 2569
z
M 3547 1228
L 3547 694
L 288 694
L 288 1228
L 3547 1228
z
" transform="scale(0.015625)"/>
      <path id="Helvetica-33" d="M 1663 -122
Q 869 -122 511 314
Q 153 750 153 1375
L 741 1375
Q 778 941 903 744
Q 1122 391 1694 391
Q 2138 391 2406 628
Q 2675 866 2675 1241
Q 2675 1703 2392 1887
Q 2109 2072 1606 2072
Q 1550 2072 1492 2070
Q 1434 2069 1375 2066
L 1375 2563
Q 1463 2553 1522 2550
Q 1581 2547 1650 2547
Q 1966 2547 2169 2647
Q 2525 2822 2525 3272
Q 2525 3606 2287 3787
Q 2050 3969 1734 3969
Q 1172 3969 956 3594
Q 838 3388 822 3006
L 266 3006
Q 266 3506 466 3856
Q 809 4481 1675 4481
Q 2359 4481 2734 4176
Q 3109 3872 3109 3294
Q 3109 2881 2888 2625
Q 2750 2466 2531 2375
Q 2884 2278 3082 2001
Q 3281 1725 3281 1325
Q 3281 684 2859 281
Q 2438 -122 1663 -122
z
" transform="scale(0.015625)"/>
     </defs>
     <use xlink:href="#Helvetica-51"/>
     <use xlink:href="#Helvetica-3d" transform="translate(77.783203 0)"/>
     <use xlink:href="#Helvetica-33" transform="translate(136.181641 0)"/>
    </g>
   </g>
  </g>
 </g>
 <defs>
  <clipPath id="pd7e59ea16a">
   <rect x="1.44" y="1.44" width="66.96" height="38.808"/>
  </clipPath>
 </defs>
</svg>
