<?xml version="1.0" encoding="utf-8" standalone="no"?>
<!DOCTYPE svg PUBLIC "-//W3C//DTD SVG 1.1//EN"
  "http://www.w3.org/Graphics/SVG/1.1/DTD/svg11.dtd">
<svg xmlns:xlink="http://www.w3.org/1999/xlink" width="68.724pt" height="42.7968pt" viewBox="0 0 68.724 42.7968" xmlns="http://www.w3.org/2000/svg" version="1.1">
 <metadata>
  <rdf:RDF xmlns:dc="http://purl.org/dc/elements/1.1/" xmlns:cc="http://creativecommons.org/ns#" xmlns:rdf="http://www.w3.org/1999/02/22-rdf-syntax-ns#">
   <cc:Work>
    <dc:type rdf:resource="http://purl.org/dc/dcmitype/StillImage"/>
    <dc:format>image/svg+xml</dc:format>
    <dc:creator>
     <cc:Agent>
      <dc:title>Matplotlib v3.10.8, https://matplotlib.org/</dc:title>
     </cc:Agent>
    </dc:creator>
   </cc:Work>
  </rdf:RDF>
 </metadata>
 <defs>
  <style type="text/css">*{stroke-linejoin: round; stroke-linecap: butt}</style>
 </defs>
 <g id="figure_1">
  <g id="patch_1">
   <path d="M 0 42.7968
L 68.724 42.7968
L 68.724 0
L 0 0
z
" style="fill: #ffffff"/>
  </g>
  <g id="axes_1">
   <g id="patch_2">
    <path d="M 1.44 41.3568
L 67.284 41.3568
L 67.284 1.44
L 1.44 1.44
z
" style="fill: #ffffff"/>
   </g>
   <g id="matplotlib.axis_1"/>
   <g id="matplotlib.axis_2"/>
   <g id="line2d_1">
    <path d="M 1.44 10.221696
L 2.273468 11.882119
L 3.106937 12.652697
L 3.940405 13.260029
L 4.773873 13.78089
L 5.607342 14.245642
L 6.44081 14.670076
L 7.274278 15.063671
L 8.107747 15.432661
L 8.941215 15.781405
L 9.774684 16.113098
L 10.608152 16.430167
L 11.44162 16.734505
L 12.275089 17.027626
L 13.108557 17.310763
L 13.942025 17.584934
L 14.775494 17.850995
L 15.608962 18.109672
L 16.44243 18.361586
L 17.275899 18.607276
L 18.109367 18.847213
L 18.942835 19.081809
L 19.776304 19.311429
L 20.609772 19.536398
L 21.443241 19.757006
L 22.276709 19.973516
L 23.110177 20.186161
L 23.943646 20.395157
L 24.777114 20.600697
L 25.610582 20.80296
L 26.444051 21.002108
L 27.277519 21.198289
L 28.110987 21.391644
L 28.944456 21.582297
L 29.777924 21.770368
L 30.611392 21.955966
L 31.444861 22.139192
L 32.278329 22.320142
L 33.111797 22.498904
L 33.945266 22.675562
L 34.778734 22.850192
L 35.612203 23.022869
L 36.445671 23.193661
L 37.279139 23.362632
L 38.112608 23.529844
L 38.946076 23.695354
L 39.779544 23.859218
L 40.613013 24.021486
L 41.446481 24.182207
L 42.279949 24.341429
L 43.113418 24.499195
L 43.946886 24.655548
L 44.780354 24.810527
L 45.613823 24.96417
L 46.447291 25.116515
L 47.280759 25.267595
L 48.114228 25.417443
L 48.947696 25.566093
L 49.781165 25.713573
L 50.614633 25.859914
L 51.448101 26.005142
L 52.28157 26.149286
L 53.115038 26.29237
L 53.948506 26.434419
L 54.781975 26.575457
L 55.615443 26.715506
L 56.448911 26.85459
L 57.28238 26.992728
L 58.115848 27.129942
L 58.949316 27.26625
L 59.782785 27.401673
L 60.616253 27.536227
L 61.449722 27.669932
L 62.28319 27.802803
L 63.116658 27.934858
L 63.950127 28.066112
L 64.783595 28.196581
L 65.617063 28.32628
L 66.450532 28.455223
L 67.284 28.583424
" clip-path="url(#p9173796fe7)" style="fill: none; stroke: #5e6b73; stroke-width: 1.45; stroke-linecap: square"/>
   </g>
   <g id="line2d_2">
    <path d="M 1.44 34.171776
L 2.273468 33.483927
L 3.106937 32.957443
L 3.940405 32.478481
L 4.773873 32.027985
L 5.607342 31.597539
L 6.44081 31.182423
L 7.274278 30.779637
L 8.107747 30.387115
L 8.941215 30.00335
L 9.774684 29.627202
L 10.608152 29.257776
L 11.44162 28.894354
L 12.275089 28.53635
L 13.108557 28.183274
L 13.942025 27.834713
L 14.775494 27.490313
L 15.608962 27.149768
L 16.44243 26.812813
L 17.275899 26.479212
L 18.109367 26.148758
L 18.942835 25.821266
L 19.776304 25.49657
L 20.609772 25.174521
L 21.443241 24.854984
L 22.276709 24.537835
L 23.110177 24.222961
L 23.943646 23.910261
L 24.777114 23.599639
L 25.610582 23.291008
L 26.444051 22.984287
L 27.277519 22.679401
L 28.110987 22.376281
L 28.944456 22.074861
L 29.777924 21.775081
L 30.611392 21.476885
L 31.444861 21.180218
L 32.278329 20.885031
L 33.111797 20.591277
L 33.945266 20.298911
L 34.778734 20.007891
L 35.612203 19.718179
L 36.445671 19.429735
L 37.279139 19.142525
L 38.112608 18.856516
L 38.946076 18.571673
L 39.779544 18.287969
L 40.613013 18.005372
L 41.446481 17.723855
L 42.279949 17.443392
L 43.113418 17.163958
L 43.946886 16.885528
L 44.780354 16.608079
L 45.613823 16.331589
L 46.447291 16.056036
L 47.280759 15.7814
L 48.114228 15.507662
L 48.947696 15.234802
L 49.781165 14.962803
L 50.614633 14.691646
L 51.448101 14.421316
L 52.28157 14.151795
L 53.115038 13.883069
L 53.948506 13.615121
L 54.781975 13.347938
L 55.615443 13.081506
L 56.448911 12.81581
L 57.28238 12.550838
L 58.115848 12.286577
L 58.949316 12.023014
L 59.782785 11.760139
L 60.616253 11.497938
L 61.449722 11.236401
L 62.28319 10.975518
L 63.116658 10.715276
L 63.950127 10.455667
L 64.783595 10.196681
L 65.617063 9.938307
L 66.450532 9.680536
L 67.284 9.42336
" clip-path="url(#p9173796fe7)" style="fill: none; stroke: #e67817; stroke-width: 1.45; stroke-linecap: square"/>
   </g>
   <g id="line2d_3">
    <defs>
     <path id="me40ab28548" d="M 0 1.6
C 0.424325 1.6 0.831328 1.431414 1.131371 1.131371
C 1.431414 0.831328 1.6 0.424325 1.6 0
C 1.6 -0.424325 1.431414 -0.831328 1.131371 -1.131371
C 0.831328 -1.431414 0.424325 -1.6 0 -1.6
C -0.424325 -1.6 -0.831328 -1.431414 -1.131371 -1.131371
C -1.431414 -0.831328 -1.6 -0.424325 -1.6 0
C -1.6 0.424325 -1.431414 0.831328 -1.131371 1.131371
C -0.831328 1.431414 -0.424325 1.6 0 1.6
z
" style="stroke: #5e6b73"/>
    </defs>
    <g clip-path="url(#p9173796fe7)">
     <use xlink:href="#me40ab28548" x="67.284" y="28.583424" style="fill: #5e6b73; stroke: #5e6b73"/>
    </g>
   </g>
   <g id="line2d_4">
    <defs>
     <path id="mf71746f62f" d="M 0 1.6
C 0.424325 1.6 0.831328 1.431414 1.131371 1.131371
C 1.431414 0.831328 1.6 0.424325 1.6 0
C 1.6 -0.424325 1.431414 -0.831328 1.131371 -1.131371
C 0.831328 -1.431414 0.424325 -1.6 0 -1.6
C -0.424325 -1.6 -0.831328 -1.431414 -1.131371 -1.131371
C -1.431414 -0.831328 -1.6 -0.424325 -1.6 0
C -1.6 0.424325 -1.431414 0.831328 -1.131371 1.131371
C -0.831328 1.431414 -0.424325 1.6 0 1.6
z
" style="stroke: #e67817"/>
    </defs>
    <g clip-path="url(#p9173796fe7)">
     <use xlink:href="#mf71746f62f" x="67.284" y="9.42336" style="fill: #e67817; stroke: #e67817"/>
    </g>
   </g>
   <g id="text_1">
    <!-- window -->
    <g style="fill: #5e6b73" transform="translate(6.438433 11.867684) scale(0.049 -0.049)">
     <defs>
      <path id="Helvetica-77" d="M 672 3347
L 1316 709
L 1969 3347
L 2600 3347
L 3256 725
L 3941 3347
L 4503 3347
L 3531 0
L 2947 0
L 2266 2591
L 1606 0
L 1022 0
L 56 3347
L 672 3347
z
" transform="scale(0.015625)"/>
      <path id="Helvetica-69" d="M 413 3331
L 984 3331
L 984 0
L 413 0
L 413 3331
z
M 413 4591
L 984 4591
L 984 3953
L 413 3953
L 413 4591
z
" transform="scale(0.015625)"/>
      <path id="Helvetica-6e" d="M 413 3347
L 947 3347
L 947 2872
Q 1184 3166 1450 3294
Q 1716 3422 2041 3422
Q 2753 3422 3003 2925
Q 3141 2653 3141 2147
L 3141 0
L 2569 0
L 2569 2109
Q 2569 2416 2478 2603
Q 2328 2916 1934 2916
Q 1734 2916 1606 2875
Q 1375 2806 1200 2600
Q 1059 2434 1017 2257
Q 975 2081 975 1753
L 975 0
L 413 0
L 413 3347
z
M 1734 3428
L 1734 3428
z
" transform="scale(0.015625)"/>
      <path id="Helvetica-64" d="M 769 1634
Q 769 1097 997 734
Q 1225 372 1728 372
Q 2119 372 2370 708
Q 2622 1044 2622 1672
Q 2622 2306 2362 2611
Q 2103 2916 1722 2916
Q 1297 2916 1033 2591
Q 769 2266 769 1634
z
M 1616 3406
Q 2000 3406 2259 3244
Q 2409 3150 2600 2916
L 2600 4606
L 3141 4606
L 3141 0
L 2634 0
L 2634 466
Q 2438 156 2169 18
Q 1900 -119 1553 -119
Q 994 -119 584 351
Q 175 822 175 1603
Q 175 2334 548 2870
Q 922 3406 1616 3406
z
" transform="scale(0.015625)"/>
      <path id="Helvetica-6f" d="M 1741 363
Q 2300 363 2508 786
Q 2716 1209 2716 1728
Q 2716 2197 2566 2491
Q 2328 2953 1747 2953
Q 1231 2953 997 2559
Q 763 2166 763 1609
Q 763 1075 997 719
Q 1231 363 1741 363
z
M 1763 3444
Q 2409 3444 2856 3012
Q 3303 2581 3303 1744
Q 3303 934 2909 406
Q 2516 -122 1688 -122
Q 997 -122 590 345
Q 184 813 184 1600
Q 184 2444 612 2944
Q 1041 3444 1763 3444
z
M 1744 3428
L 1744 3428
z
" transform="scale(0.015625)"/>
     </defs>
     <use xlink:href="#Helvetica-77"/>
     <use xlink:href="#Helvetica-69" transform="translate(72.216797 0)"/>
     <use xlink:href="#Helvetica-6e" transform="translate(94.433594 0)"/>
     <use xlink:href="#Helvetica-64" transform="translate(150.048828 0)"/>
     <use xlink:href="#Helvetica-6f" transform="translate(205.664062 0)"/>
     <use xlink:href="#Helvetica-77" transform="translate(261.279297 0)"/>
    </g>
   </g>
   <g id="text_2">
    <!-- batch -->
    <g style="fill: #e67817" transform="translate(45.48851 12.266852) scale(0.049 -0.049)">
     <defs>
      <path id="Helvetica-62" d="M 369 4606
L 916 4606
L 916 2941
Q 1100 3181 1356 3307
Q 1613 3434 1913 3434
Q 2538 3434 2927 3004
Q 3316 2575 3316 1738
Q 3316 944 2931 419
Q 2547 -106 1866 -106
Q 1484 -106 1222 78
Q 1066 188 888 428
L 888 0
L 369 0
L 369 4606
z
M 1831 391
Q 2288 391 2514 753
Q 2741 1116 2741 1709
Q 2741 2238 2514 2584
Q 2288 2931 1847 2931
Q 1463 2931 1173 2647
Q 884 2363 884 1709
Q 884 1238 1003 944
Q 1225 391 1831 391
z
" transform="scale(0.015625)"/>
      <path id="Helvetica-61" d="M 844 891
Q 844 647 1022 506
Q 1200 366 1444 366
Q 1741 366 2019 503
Q 2488 731 2488 1250
L 2488 1703
Q 2384 1638 2221 1594
Q 2059 1550 1903 1531
L 1563 1488
Q 1256 1447 1103 1359
Q 844 1213 844 891
z
M 2206 2028
Q 2400 2053 2466 2191
Q 2503 2266 2503 2406
Q 2503 2694 2298 2823
Q 2094 2953 1713 2953
Q 1272 2953 1088 2716
Q 984 2584 953 2325
L 428 2325
Q 444 2944 830 3186
Q 1216 3428 1725 3428
Q 2316 3428 2684 3203
Q 3050 2978 3050 2503
L 3050 575
Q 3050 488 3086 434
Q 3122 381 3238 381
Q 3275 381 3322 386
Q 3369 391 3422 400
L 3422 -16
Q 3291 -53 3222 -62
Q 3153 -72 3034 -72
Q 2744 -72 2613 134
Q 2544 244 2516 444
Q 2344 219 2022 53
Q 1700 -113 1313 -113
Q 847 -113 551 170
Q 256 453 256 878
Q 256 1344 547 1600
Q 838 1856 1309 1916
L 2206 2028
z
M 1741 3428
L 1741 3428
z
" transform="scale(0.015625)"/>
      <path id="Helvetica-74" d="M 525 4281
L 1094 4281
L 1094 3347
L 1628 3347
L 1628 2888
L 1094 2888
L 1094 703
Q 1094 528 1213 469
Q 1278 434 1431 434
Q 1472 434 1519 436
Q 1566 438 1628 444
L 1628 0
Q 1531 -28 1426 -40
Q 1322 -53 1200 -53
Q 806 -53 665 148
Q 525 350 525 672
L 525 2888
L 72 2888
L 72 3347
L 525 3347
L 525 4281
z
" transform="scale(0.015625)"/>
      <path id="Helvetica-63" d="M 1703 3444
Q 2269 3444 2623 3169
Q 2978 2894 3050 2222
L 2503 2222
Q 2453 2531 2275 2736
Q 2097 2941 1703 2941
Q 1166 2941 934 2416
Q 784 2075 784 1575
Q 784 1072 996 728
Q 1209 384 1666 384
Q 2016 384 2220 598
Q 2425 813 2503 1184
L 3050 1184
Q 2956 519 2581 211
Q 2206 -97 1622 -97
Q 966 -97 575 383
Q 184 863 184 1581
Q 184 2463 612 2953
Q 1041 3444 1703 3444
z
M 1616 3428
L 1616 3428
z
" transform="scale(0.015625)"/>
      <path id="Helvetica-68" d="M 413 4606
L 975 4606
L 975 2894
Q 1175 3147 1334 3250
Q 1606 3428 2013 3428
Q 2741 3428 3000 2919
Q 3141 2641 3141 2147
L 3141 0
L 2563 0
L 2563 2109
Q 2563 2478 2469 2650
Q 2316 2925 1894 2925
Q 1544 2925 1259 2684
Q 975 2444 975 1775
L 975 0
L 413 0
L 413 4606
z
" transform="scale(0.015625)"/>
     </defs>
     <use xlink:href="#Helvetica-62"/>
     <use xlink:href="#Helvetica-61" transform="translate(55.615234 0)"/>
     <use xlink:href="#Helvetica-74" transform="translate(111.230469 0)"/>
     <use xlink:href="#Helvetica-63" transform="translate(139.013672 0)"/>
     <use xlink:href="#Helvetica-68" transform="translate(189.013672 0)"/>
    </g>
   </g>
   <g id="text_3">
    <!-- QPS -->
    <g style="fill: #333333" transform="translate(50.257986 37.414436) scale(0.049 -0.049)">
     <defs>
      <path id="Helvetica-51" d="M 4688 13
L 4375 -366
L 3666 175
Q 3409 34 3111 -50
Q 2813 -134 2459 -134
Q 1391 -134 784 566
Q 250 1247 250 2272
Q 250 3203 713 3866
Q 1306 4716 2469 4716
Q 3684 4716 4269 3934
Q 4725 3325 4725 2375
Q 4725 1931 4616 1522
Q 4450 897 4056 503
L 4688 13
z
M 2534 422
Q 2728 422 2897 448
Q 3066 475 3191 553
L 2688 947
L 3000 1331
L 3600 866
Q 3884 1191 3986 1594
Q 4088 1997 4088 2366
Q 4088 3175 3664 3669
Q 3241 4163 2506 4163
Q 1763 4163 1328 3689
Q 894 3216 894 2231
Q 894 1403 1311 912
Q 1728 422 2534 422
z
" transform="scale(0.015625)"/>
      <path id="Helvetica-50" d="M 547 4591
L 2613 4591
Q 3225 4591 3600 4245
Q 3975 3900 3975 3275
Q 3975 2738 3640 2339
Q 3306 1941 2613 1941
L 1169 1941
L 1169 0
L 547 0
L 547 4591
z
M 3347 3272
Q 3347 3778 2972 3959
Q 2766 4056 2406 4056
L 1169 4056
L 1169 2466
L 2406 2466
Q 2825 2466 3086 2644
Q 3347 2822 3347 3272
z
" transform="scale(0.015625)"/>
      <path id="Helvetica-53" d="M 894 1481
Q 916 1091 1078 847
Q 1388 391 2169 391
Q 2519 391 2806 491
Q 3363 684 3363 1184
Q 3363 1559 3128 1719
Q 2891 1875 2384 1991
L 1763 2131
Q 1153 2269 900 2434
Q 463 2722 463 3294
Q 463 3913 891 4309
Q 1319 4706 2103 4706
Q 2825 4706 3329 4357
Q 3834 4009 3834 3244
L 3250 3244
Q 3203 3613 3050 3809
Q 2766 4169 2084 4169
Q 1534 4169 1293 3937
Q 1053 3706 1053 3400
Q 1053 3063 1334 2906
Q 1519 2806 2169 2656
L 2813 2509
Q 3278 2403 3531 2219
Q 3969 1897 3969 1284
Q 3969 522 3414 194
Q 2859 -134 2125 -134
Q 1269 -134 784 303
Q 300 738 309 1481
L 894 1481
z
M 2150 4716
L 2150 4716
z
" transform="scale(0.015625)"/>
     </defs>
     <use xlink:href="#Helvetica-51"/>
     <use xlink:href="#Helvetica-50" transform="translate(77.783203 0)"/>
     <use xlink:href="#Helvetica-53" transform="translate(144.482422 0)"/>
    </g>
   </g>
  </g>
 </g>
 <defs>
  <clipPath id="p9173796fe7">
   <rect x="1.44" y="1.44" width="65.844" height="39.9168"/>
  </clipPath>
 </defs>
</svg>
