<?xml version="1.0" encoding="utf-8" standalone="no"?>
<!DOCTYPE svg PUBLIC "-//W3C//DTD SVG 1.1//EN"
  "http://www.w3.org/Graphics/SVG/1.1/DTD/svg11.dtd">
<svg xmlns:xlink="http://www.w3.org/1999/xlink" width="75.42pt" height="50.004pt" viewBox="0 0 75.42 50.004" xmlns="http://www.w3.org/2000/svg" version="1.1">
 <metadata>
  <rdf:RDF xmlns:dc="http://purl.org/dc/elements/1.1/" xmlns:cc="http://creativecommons.org/ns#" xmlns:rdf="http://www.w3.org/1999/02/22-rdf-syntax-ns#">
   <cc:Work>
    <dc:type rdf:resource="http://purl.org/dc/dcmitype/StillImage"/>
    <dc:format>image/svg+xml</dc:format>
    <dc:creator>
     <cc:Agent>
      <dc:title>Matplotlib v3.10.8, https://matplotlib.org/</dc:title>
     </cc:Agent>
    </dc:creator>
   </cc:Work>
  </rdf:RDF>
 </metadata>
 <defs>
  <style type="text/css">*{stroke-linejoin: round; stroke-linecap: butt}</style>
 </defs>
 <g id="figure_1">
  <g id="patch_1">
   <path d="M 0 50.004
L 75.42 50.004
L 75.42 0
L 0 0
z
" style="fill: #ffffff"/>
  </g>
  <g id="axes_1">
   <g id="patch_2">
    <path d="M 1.44 48.564
L 73.98 48.564
L 73.98 1.44
L 1.44 1.44
z
" style="fill: #ffffff"/>
   </g>
   <g id="matplotlib.axis_1"/>
   <g id="matplotlib.axis_2"/>
   <g id="line2d_1">
    <path d="M 1.44 8.97984
L 2.137835 9.22736
L 2.835671 9.47488
L 3.533506 9.7224
L 4.231342 9.96992
L 4.929177 10.21744
L 5.627013 10.46496
L 6.324848 10.71248
L 7.022684 10.96
L 7.720519 11.20752
L 8.418355 11.45504
L 9.11619 11.70256
L 9.814026 11.95008
L 10.511861 12.1976
L 11.209697 12.44512
L 11.907532 12.69264
L 12.605368 12.94016
L 13.303203 13.18768
L 14.001039 13.4352
L 14.698874 13.68272
L 15.39671 13.93024
L 16.094545 14.17776
L 16.792381 14.42528
L 17.490216 14.6728
L 18.188052 14.92032
L 18.885887 15.16784
L 19.583723 15.41536
L 20.281558 15.66288
L 20.979394 15.9104
L 21.677229 16.15792
L 22.375065 16.40544
L 23.0729 16.65296
L 23.770736 16.90048
L 24.468571 17.148
L 25.166407 17.39552
L 25.864242 17.64304
L 26.562078 17.89056
L 27.259913 18.13808
L 27.957749 18.3856
L 28.655584 18.63312
L 29.35342 18.88064
L 30.051255 19.12816
L 30.749091 19.37568
L 31.446926 19.6232
L 32.144762 19.87072
L 32.842597 20.11824
L 33.540433 20.36576
L 34.238268 20.61328
L 34.936104 20.8608
L 35.633939 21.10832
L 36.331775 21.35584
L 37.02961 21.60336
L 37.727446 21.85088
L 38.425281 22.0984
L 39.123117 22.34592
L 39.820952 22.59344
L 40.518788 22.84096
L 41.216623 23.08848
L 41.914459 23.336
L 42.612294 23.58352
L 43.31013 23.83104
L 44.007965 24.07856
L 44.705801 24.32608
L 45.403636 24.5736
L 46.101472 24.82112
L 46.799307 25.06864
L 47.497143 25.31616
L 48.194978 25.56368
L 48.892814 25.8112
L 49.590649 26.05872
L 50.288485 26.30624
L 50.98632 26.55376
L 51.684156 26.80128
L 52.381991 27.0488
L 53.079827 27.29632
L 53.777662 27.54384
L 54.475498 27.79136
L 55.173333 28.03888
L 55.871169 28.2864
L 56.569004 28.53392
L 57.26684 28.78144
L 57.964675 29.02896
L 58.662511 29.27648
L 59.360346 29.524
L 60.058182 29.77152
L 60.756017 30.01904
L 61.453853 30.26656
L 62.151688 30.51408
L 62.849524 30.7616
L 63.547359 31.00912
L 64.245195 31.25664
L 64.94303 31.50416
L 65.640866 31.75168
L 66.338701 31.9992
L 67.036537 32.24672
L 67.734372 32.49424
L 68.432208 32.74176
L 69.130043 32.98928
L 69.827879 33.2368
L 70.525714 33.48432
" clip-path="url(#pcda5fadba2)" style="fill: none; stroke: #cb202d; stroke-width: 1.35; stroke-linecap: square"/>
   </g>
   <g id="line2d_2">
    <path d="M 1.44 35.36928
L 2.137835 35.36928
L 2.835671 35.36928
L 3.533506 35.36928
L 4.231342 35.36928
L 4.929177 35.36928
L 5.627013 35.36928
L 6.324848 35.36928
L 7.022684 35.36928
L 7.720519 35.36928
L 8.418355 35.36928
L 9.11619 35.36928
L 9.814026 35.36928
L 10.511861 35.36928
L 11.209697 35.36928
L 11.907532 35.36928
L 12.605368 35.36928
L 13.303203 35.36928
L 14.001039 35.36928
L 14.698874 35.36928
L 15.39671 35.36928
L 16.094545 35.36928
L 16.792381 35.36928
L 17.490216 35.36928
L 18.188052 35.36928
L 18.885887 35.36928
L 19.583723 35.36928
L 20.281558 35.36928
L 20.979394 35.36928
L 21.677229 35.36928
L 22.375065 35.36928
L 23.0729 35.36928
L 23.770736 35.36928
L 24.468571 35.36928
L 25.166407 35.36928
L 25.864242 35.36928
L 26.562078 35.36928
L 27.259913 35.36928
L 27.957749 35.36928
L 28.655584 35.36928
L 29.35342 35.36928
L 30.051255 35.36928
L 30.749091 35.36928
L 31.446926 35.36928
L 32.144762 35.36928
L 32.842597 35.36928
L 33.540433 35.36928
L 34.238268 35.36928
L 34.936104 35.36928
L 35.633939 35.36928
L 36.331775 35.36928
L 37.02961 35.36928
L 37.727446 35.36928
L 38.425281 35.36928
L 39.123117 35.36928
L 39.820952 35.36928
L 40.518788 35.36928
L 41.216623 35.36928
L 41.914459 35.36928
L 42.612294 35.36928
L 43.31013 35.36928
L 44.007965 35.36928
L 44.705801 35.36928
L 45.403636 35.36928
L 46.101472 35.36928
L 46.799307 35.36928
L 47.497143 35.36928
L 48.194978 35.36928
L 48.892814 35.36928
L 49.590649 35.36928
L 50.288485 35.36928
L 50.98632 35.36928
L 51.684156 35.36928
L 52.381991 35.36928
L 53.079827 35.36928
L 53.777662 35.36928
L 54.475498 35.36928
L 55.173333 35.36928
L 55.871169 35.36928
L 56.569004 35.36928
L 57.26684 35.36928
L 57.964675 35.36928
L 58.662511 35.36928
L 59.360346 35.36928
L 60.058182 35.36928
L 60.756017 35.36928
L 61.453853 35.36928
L 62.151688 35.36928
L 62.849524 35.36928
L 63.547359 35.36928
L 64.245195 35.36928
L 64.94303 35.36928
L 65.640866 35.36928
L 66.338701 35.36928
L 67.036537 35.36928
L 67.734372 35.36928
L 68.432208 35.36928
L 69.130043 35.36928
L 69.827879 35.36928
L 70.525714 35.36928
" clip-path="url(#pcda5fadba2)" style="fill: none; stroke: #006395; stroke-width: 1.35; stroke-linecap: square"/>
   </g>
   <g id="line2d_3">
    <defs>
     <path id="m8b595126ea" d="M 0 1.65
C 0.437585 1.65 0.857307 1.476146 1.166726 1.166726
C 1.476146 0.857307 1.65 0.437585 1.65 0
C 1.65 -0.437585 1.476146 -0.857307 1.166726 -1.166726
C 0.857307 -1.476146 0.437585 -1.65 0 -1.65
C -0.437585 -1.65 -0.857307 -1.476146 -1.166726 -1.166726
C -1.476146 -0.857307 -1.65 -0.437585 -1.65 0
C -1.65 0.437585 -1.476146 0.857307 -1.166726 1.166726
C -0.857307 1.476146 -0.437585 1.65 0 1.65
z
" style="stroke: #cb202d"/>
    </defs>
    <g clip-path="url(#pcda5fadba2)">
     <use xlink:href="#m8b595126ea" x="70.525714" y="33.48432" style="fill: #cb202d; stroke: #cb202d"/>
    </g>
   </g>
   <g id="line2d_4">
    <defs>
     <path id="m8c6b38ce17" d="M 0 1.65
C 0.437585 1.65 0.857307 1.476146 1.166726 1.166726
C 1.476146 0.857307 1.65 0.437585 1.65 0
C 1.65 -0.437585 1.476146 -0.857307 1.166726 -1.166726
C 0.857307 -1.476146 0.437585 -1.65 0 -1.65
C -0.437585 -1.65 -0.857307 -1.476146 -1.166726 -1.166726
C -1.476146 -0.857307 -1.65 -0.437585 -1.65 0
C -1.65 0.437585 -1.476146 0.857307 -1.166726 1.166726
C -0.857307 1.476146 -0.437585 1.65 0 1.65
z
" style="stroke: #006395"/>
    </defs>
    <g clip-path="url(#pcda5fadba2)">
     <use xlink:href="#m8c6b38ce17" x="70.525714" y="35.36928" style="fill: #006395; stroke: #006395"/>
    </g>
   </g>
  </g>
 </g>
 <defs>
  <clipPath id="pcda5fadba2">
   <rect x="1.44" y="1.44" width="72.54" height="47.124"/>
  </clipPath>
 </defs>
</svg>
