<?xml version="1.0" encoding="UTF-8" standalone="no"?>
<!-- Created with Inkscape (http://www.inkscape.org/) -->

<svg
   version="1.1"
   id="svg1"
   width="405.41867"
   height="171.23866"
   viewBox="0 0 405.41867 171.23866"
   xmlns="http://www.w3.org/2000/svg"
   xmlns:svg="http://www.w3.org/2000/svg">
  <defs
     id="defs1" />
  <g
     id="g1">
    <path
       id="path1"
       d="M -38.26817,-25.5121 H 24.09481 V 11.33873 H -38.26817 Z"
       style="fill:#f4f2f1;fill-opacity:1;fill-rule:nonzero;stroke:#8f7874;stroke-width:0.99628;stroke-linecap:butt;stroke-linejoin:round;stroke-miterlimit:10;stroke-dasharray:2.98883, 2.98883;stroke-dashoffset:0;stroke-opacity:1"
       transform="matrix(0.89333333,0,0,-0.89333333,59.953387,107.43323)" />
    <path
       id="path2"
       d="M -45.35489,-32.59882 H 17.00809 V 4.25201 h -62.36298 z"
       style="fill:#f4f2f1;fill-opacity:1;fill-rule:nonzero;stroke:#8f7874;stroke-width:0.99628;stroke-linecap:butt;stroke-linejoin:round;stroke-miterlimit:10;stroke-dasharray:2.98883, 2.98883;stroke-dashoffset:0;stroke-opacity:1"
       transform="matrix(0.89333333,0,0,-0.89333333,59.953387,107.43323)" />
    <path
       id="path3"
       d="M -52.44159,-39.68552 H 9.92139 v 36.85083 h -62.36298 z"
       style="fill:#f4f2f1;fill-opacity:1;fill-rule:nonzero;stroke:#8f7874;stroke-width:0.99628;stroke-linecap:butt;stroke-linejoin:round;stroke-miterlimit:10;stroke-dasharray:2.98883, 2.98883;stroke-dashoffset:0;stroke-opacity:1"
       transform="matrix(0.89333333,0,0,-0.89333333,59.953387,107.43323)" />
    <path
       id="path4"
       d="M -59.52829,-46.77222 H 2.83469 v 36.85083 h -62.36298 z"
       style="fill:#f4f2f1;fill-opacity:1;fill-rule:nonzero;stroke:#8f7874;stroke-width:0.99628;stroke-linecap:butt;stroke-linejoin:round;stroke-miterlimit:10;stroke-dasharray:none;stroke-opacity:1"
       transform="matrix(0.89333333,0,0,-0.89333333,59.953387,107.43323)" />
    <path
       id="path5"
       d="m -66.61499,-53.85892 h 62.36298 v 36.85083 h -62.36298 z"
       style="fill:#e6ffe6;fill-opacity:1;fill-rule:nonzero;stroke:#8f7874;stroke-width:0.99628;stroke-linecap:butt;stroke-linejoin:round;stroke-miterlimit:10;stroke-dasharray:none;stroke-opacity:1"
       transform="matrix(0.89333333,0,0,-0.89333333,59.953387,107.43323)" />
    <path
       id="path6"
       d="M 2.1148867,-7.2772132 H 0.62817957 v 7.27611945 H 2.1148867 Z m 1.2855643,1.8889926 v 5.38712685 H 4.7997048 V -3.236868 c 0,-0.6296642 0.4372667,-1.0494403 1.1194029,-1.0494403 0.5946829,0 0.8920243,0.3323228 0.8920243,0.9619869 v 3.32322765 H 8.2103857 V -3.6041721 c 0,-1.1893657 -0.6471548,-1.8715019 -1.8015392,-1.8715019 -0.7346082,0 -1.2068563,0.2623601 -1.6091417,0.8745336 v -0.7870802 z m 8.570429,0.104944 h -0.822061 v -0.5247201 c 0,-0.2798508 0.122434,-0.4197762 0.384794,-0.4197762 0.122435,0 0.279851,0.017491 0.402286,0.034981 v -1.0494403 c -0.26236,-0.017491 -0.612174,-0.034981 -0.804571,-0.034981 -0.927006,0 -1.3817632,0.4547575 -1.3817632,1.3467818 v 0.6471548 H 8.997466 v 0.9270056 h 0.7520988 v 4.35517725 H 11.148819 V -4.356271 h 0.822061 z m 5.334655,3.0258862 c 0,-0.1224347 0,-0.1749067 0,-0.2448694 0,-0.5247201 -0.06996,-1.0319496 -0.209888,-1.3992537 -0.349814,-0.9794776 -1.224347,-1.5741605 -2.308769,-1.5741605 -1.539179,0 -2.483675,1.119403 -2.483675,2.9209422 0,1.73157648 0.927005,2.78101678 2.448694,2.78101678 1.206856,0 2.186334,-0.68213619 2.501166,-1.74906718 H 15.8713 c -0.174907,0.4372668 -0.559702,0.68213621 -1.066931,0.68213621 -0.402286,0 -0.717118,-0.17490671 -0.909515,-0.47224811 -0.139925,-0.1923974 -0.192397,-0.4372668 -0.209888,-0.9444963 z M 13.702457,-3.184396 c 0.104944,-0.8220616 0.454757,-1.224347 1.066931,-1.224347 0.349813,0 0.664645,0.1749067 0.857043,0.4547575 0.139925,0.1923973 0.192397,0.4022854 0.227378,0.7695895 z m 4.543202,-2.2038246 v 5.38712685 h 1.399253 V -2.8695639 c 0,-0.8045709 0.402286,-1.224347 1.224347,-1.224347 0.139926,0 0.24487,0.017491 0.437267,0.052472 v -1.4167444 c -0.08745,-0.017491 -0.139925,-0.017491 -0.174907,-0.017491 -0.629664,0 -1.189365,0.4197761 -1.486707,1.1543844 v -1.066931 z m 8.47423,3.1308302 c 0,-0.1224347 0,-0.1749067 0,-0.2448694 0,-0.5247201 -0.06996,-1.0319496 -0.209888,-1.3992537 -0.349814,-0.9794776 -1.224347,-1.5741605 -2.308769,-1.5741605 -1.539179,0 -2.483675,1.119403 -2.483675,2.9209422 0,1.73157648 0.927005,2.78101678 2.448694,2.78101678 1.206856,0 2.186334,-0.68213619 2.501166,-1.74906718 h -1.381763 c -0.174907,0.4372668 -0.559702,0.68213621 -1.066931,0.68213621 -0.402286,0 -0.717118,-0.17490671 -0.909515,-0.47224811 -0.139925,-0.1923974 -0.192397,-0.4372668 -0.209888,-0.9444963 z M 23.116811,-3.184396 c 0.104944,-0.8220616 0.454757,-1.224347 1.066931,-1.224347 0.349813,0 0.664645,0.1749067 0.857043,0.4547575 0.139925,0.1923973 0.192397,0.4022854 0.227378,0.7695895 z m 4.543202,-2.2038246 v 5.38712685 h 1.399253 V -3.236868 c 0,-0.6296642 0.437267,-1.0494403 1.119403,-1.0494403 0.594683,0 0.892025,0.3323228 0.892025,0.9619869 v 3.32322765 h 1.399253 V -3.6041721 c 0,-1.1893657 -0.647155,-1.8715019 -1.801539,-1.8715019 -0.734608,0 -1.206856,0.2623601 -1.609142,0.8745336 v -0.7870802 z m 10.669309,2.0114272 c -0.104944,-1.3118003 -0.979477,-2.0988806 -2.326259,-2.0988806 -1.609142,0 -2.553638,1.0494403 -2.553638,2.8859608 0,1.78404855 0.927006,2.81599818 2.536147,2.81599818 1.29431,0 2.203825,-0.80457089 2.34375,-2.09888058 h -1.346781 c -0.174907,0.6996269 -0.454758,0.9794776 -0.996969,0.9794776 -0.699627,0 -1.136893,-0.6471549 -1.136893,-1.6965952 0,-0.5072294 0.104944,-0.9794776 0.27985,-1.2943097 0.157416,-0.2973414 0.454758,-0.4722481 0.857043,-0.4722481 0.577192,0 0.839553,0.2798508 0.996969,0.9794776 z m 5.553289,1.119403 c 0,-0.1224347 0,-0.1749067 0,-0.2448694 0,-0.5247201 -0.06996,-1.0319496 -0.209889,-1.3992537 -0.349813,-0.9794776 -1.224347,-1.5741605 -2.308768,-1.5741605 -1.539179,0 -2.483676,1.119403 -2.483676,2.9209422 0,1.73157648 0.927006,2.78101678 2.448694,2.78101678 1.206857,0 2.186334,-0.68213619 2.501167,-1.74906718 h -1.381764 c -0.174906,0.4372668 -0.559701,0.68213621 -1.066931,0.68213621 -0.402285,0 -0.717117,-0.17490671 -0.909514,-0.47224811 -0.139926,-0.1923974 -0.192398,-0.4372668 -0.209888,-0.9444963 z M 40.279532,-3.184396 c 0.104944,-0.8220616 0.454758,-1.224347 1.066931,-1.224347 0.349814,0 0.664646,0.1749067 0.857043,0.4547575 0.139925,0.1923973 0.192397,0.4022854 0.227379,0.7695895 z m 0,0"
       style="fill:#000000;fill-opacity:1;fill-rule:nonzero;stroke:none"
       aria-label="Inference"
       transform="matrix(0.89333333,0,0,0.89333333,8.55992,168.16113)" />
    <path
       id="path7"
       d="M 7.95192,-51.15529 29.8952,-29.212"
       style="fill:none;stroke:#808080;stroke-width:0.74721;stroke-linecap:butt;stroke-linejoin:round;stroke-miterlimit:10;stroke-dasharray:none;stroke-opacity:1"
       transform="matrix(0.89333333,0,0,-0.89333333,59.953387,107.43323)" />
    <path
       id="path8"
       d="M 4.52798,0 C 3.18633,0.25154 1.00621,1.00621 -0.5031,1.88664 V -1.88664 C 1.00621,-1.00621 3.18633,-0.25154 4.52798,0"
       style="fill:#808080;fill-opacity:1;fill-rule:nonzero;stroke:none"
       transform="matrix(-0.631676,0.631676,0.631676,0.631676,67.057111,153.13193)" />
    <path
       id="path9"
       d="M 4.52798,0 C 3.18633,0.25154 1.00621,1.00621 -0.5031,1.88664 V -1.88664 C 1.00621,-1.00621 3.18633,-0.25154 4.52798,0"
       style="fill:#808080;fill-opacity:1;fill-rule:nonzero;stroke:none"
       transform="matrix(0.631676,-0.631676,-0.631676,-0.631676,86.659756,133.5293)" />
    <path
       id="path10"
       d="M 5.9470616,-5.1405546 C 5.9295709,-6.557299 4.9500933,-7.3793605 3.2884795,-7.3793605 c -1.6091418,0 -2.58861943,0.8045709 -2.58861943,2.1338619 0,0.8745336 0.47224813,1.4342351 1.41674443,1.6965951 l 1.8190298,0.4722482 c 0.909515,0.2448694 1.3292911,0.6121735 1.3292911,1.171875 0,0.3847948 -0.2098881,0.7870802 -0.5247202,1.01445894 -0.2798507,0.19239739 -0.7346082,0.29734142 -1.329291,0.29734142 -0.7870802,0 -1.3292911,-0.17490672 -1.6791045,-0.59468286 C 1.4694496,-1.5199855 1.3470149,-1.869799 1.3645056,-2.3070658 H 0.47248134 c 0.0174907,0.6646456 0.13992538,1.1019123 0.43726679,1.5041978 0.48973877,0.68213619 1.32929107,1.03194962 2.44869407,1.03194962 0.8570429,0 1.5741604,-0.19239738 2.0289179,-0.55970149 0.4897388,-0.38479478 0.8045709,-1.03194963 0.8045709,-1.66161383 0,-0.8920242 -0.5597015,-1.5566698 -1.5391791,-1.8190298 L 2.8162313,-4.3010023 C 1.9416978,-4.5458717 1.6268657,-4.8257225 1.6268657,-5.385424 c 0,-0.7346082 0.6471548,-1.224347 1.6266324,-1.224347 1.1543844,0 1.8015392,0.5247202 1.8190299,1.4692164 z m 1.3992537,-0.087453 V 0.00170289 H 8.1858675 V -3.2865434 c 0,-0.7520989 0.5422109,-1.3642724 1.2243471,-1.3642724 0.6121734,0 0.9619864,0.3847948 0.9619864,1.0494403 v 3.60307839 h 0.839553 V -3.2865434 c 0,-0.7520989 0.542211,-1.3642724 1.224347,-1.3642724 0.612173,0 0.961987,0.4022855 0.961987,1.0494403 V 0.00170289 H 14.23764 V -3.9162076 c 0,-0.9444962 -0.52472,-1.4517257 -1.504198,-1.4517257 -0.699627,0 -1.119403,0.2098881 -1.609142,0.7870802 -0.314832,-0.5597015 -0.734608,-0.7870802 -1.3992534,-0.7870802 -0.6996268,0 -1.171875,0.2623601 -1.6091417,0.8745336 v -0.7346082 z m 12.9343517,4.73997199 c -0.08745,0.0174907 -0.122435,0.0174907 -0.174907,0.0174907 -0.297341,0 -0.454757,-0.13992538 -0.454757,-0.40228545 V -3.9511889 c 0,-0.9270056 -0.682136,-1.4167444 -1.958955,-1.4167444 -0.76959,0 -1.381763,0.2098881 -1.731577,0.6121735 -0.244869,0.2623601 -0.349813,0.5597015 -0.367304,1.0844216 h 0.839552 c 0.06996,-0.6471548 0.454758,-0.9270056 1.224347,-0.9270056 0.752099,0 1.171875,0.2798508 1.171875,0.7695896 v 0.2273787 c 0,0.3498135 -0.209888,0.4897388 -0.874533,0.5771922 -1.171875,0.1399254 -1.346782,0.1923974 -1.679105,0.3148321 -0.594683,0.2448694 -0.909515,0.7171175 -0.909515,1.3992537 0,0.94449629 0.664646,1.53917912 1.714086,1.53917912 0.664646,0 1.189366,-0.22737873 1.766558,-0.76958955 0.06996,0.52472015 0.332323,0.76958955 0.857043,0.76958955 0.174907,0 0.314832,-0.0174907 0.577192,-0.0874534 z M 18.828941,-1.6424202 c 0,0.2798507 -0.08745,0.4547574 -0.332323,0.68213615 -0.332322,0.29734142 -0.752098,0.45475746 -1.241837,0.45475746 -0.647155,0 -1.014459,-0.29734141 -1.014459,-0.82206161 0,-0.5597014 0.367304,-0.8395522 1.241838,-0.9619869 0.892024,-0.1224347 1.06693,-0.157416 1.346781,-0.2973414 z m 3.174557,-5.6319963 h -0.839552 v 7.27611939 h 0.839552 z m 2.21257,0 h -0.839552 v 7.27611939 h 0.839552 z m 5.798158,4.9498601 c 0,-0.8045709 -0.05247,-1.2768191 -0.209888,-1.6791045 -0.332323,-0.8570429 -1.136894,-1.3642724 -2.098881,-1.3642724 -1.469216,0 -2.396222,1.119403 -2.396222,2.8334888 0,1.71408582 0.909515,2.76352612 2.361241,2.76352612 1.206856,0 2.028918,-0.68213619 2.238806,-1.81902982 h -0.839553 c -0.227378,0.69962684 -0.699626,1.04944027 -1.364272,1.04944027 -0.52472,0 -0.979478,-0.22737873 -1.259328,-0.68213617 -0.192398,-0.2973414 -0.26236,-0.5946829 -0.279851,-1.1019123 z m -3.812967,-0.6821362 c 0.06996,-0.961987 0.647155,-1.5916512 1.486707,-1.5916512 0.822062,0 1.451726,0.6646456 1.451726,1.5216885 0,0.034981 0,0.052472 -0.01749,0.069963 z m 4.927997,-2.2213153 v 5.22971079 h 0.839552 V -2.7093512 c 0,-0.7520989 0.192398,-1.2418377 0.594683,-1.5216884 0.26236,-0.1923974 0.50723,-0.2623601 1.084422,-0.2623601 v -0.8570429 c -0.139926,-0.017491 -0.209888,-0.017491 -0.314832,-0.017491 -0.542211,0 -0.944497,0.3148321 -1.434235,1.0844216 v -0.9444962 z m 3.008396,4.1977612 v 1.03194959 h 0.594682 v 0.17490672 c 0,0.69962686 -0.139925,0.89202429 -0.594682,0.90951489 v 0.3847948 c 0.682136,0 1.031949,-0.4547575 1.031949,-1.31180036 V -1.0302467 Z m 7.49038,1.03194959 2.011427,-5.22971079 h -0.944496 l -1.469217,4.25023318 -1.399253,-4.25023318 h -0.927006 l 1.83652,5.22971079 z m 7.24551,-0.4897388 c -0.08745,0.0174907 -0.122434,0.0174907 -0.174906,0.0174907 -0.297342,0 -0.454758,-0.13992538 -0.454758,-0.40228545 V -3.9511889 c 0,-0.9270056 -0.682136,-1.4167444 -1.958955,-1.4167444 -0.76959,0 -1.381763,0.2098881 -1.731576,0.6121735 -0.24487,0.2623601 -0.349814,0.5597015 -0.367305,1.0844216 h 0.839553 c 0.06996,-0.6471548 0.454757,-0.9270056 1.224347,-0.9270056 0.752099,0 1.171875,0.2798508 1.171875,0.7695896 v 0.2273787 c 0,0.3498135 -0.209888,0.4897388 -0.874534,0.5771922 -1.171875,0.1399254 -1.346782,0.1923974 -1.679104,0.3148321 -0.594683,0.2448694 -0.909515,0.7171175 -0.909515,1.3992537 0,0.94449629 0.664645,1.53917912 1.714086,1.53917912 0.664645,0 1.189365,-0.22737873 1.766557,-0.76958955 0.06996,0.52472015 0.332323,0.76958955 0.857043,0.76958955 0.174907,0 0.314832,-0.0174907 0.577192,-0.0874534 z M 47.421817,-1.6424202 c 0,0.2798507 -0.08745,0.4547574 -0.332323,0.68213615 -0.332323,0.29734142 -0.752099,0.45475746 -1.241838,0.45475746 -0.647155,0 -1.014459,-0.29734141 -1.014459,-0.82206161 0,-0.5597014 0.367304,-0.8395522 1.241838,-0.9619869 0.892024,-0.1224347 1.066931,-0.157416 1.346782,-0.2973414 z m 2.335004,-3.5855877 v 5.22971079 h 0.839553 V -2.7093512 c 0,-0.7520989 0.192397,-1.2418377 0.594682,-1.5216884 0.262361,-0.1923974 0.50723,-0.2623601 1.084422,-0.2623601 v -0.8570429 c -0.139925,-0.017491 -0.209888,-0.017491 -0.314832,-0.017491 -0.542211,0 -0.944496,0.3148321 -1.434235,1.0844216 v -0.9444962 z m 4.280842,0 h -0.839552 v 5.22971079 h 0.839552 z m 0,-2.0464086 h -0.839552 v 1.0494403 h 0.839552 z m 5.815649,4.9498601 c 0,-0.8045709 -0.05247,-1.2768191 -0.209888,-1.6791045 -0.332323,-0.8570429 -1.136894,-1.3642724 -2.098881,-1.3642724 -1.469217,0 -2.396222,1.119403 -2.396222,2.8334888 0,1.71408582 0.909515,2.76352612 2.361241,2.76352612 1.206856,0 2.028917,-0.68213619 2.238806,-1.81902982 h -0.839553 c -0.227378,0.69962684 -0.699627,1.04944027 -1.364272,1.04944027 -0.52472,0 -0.979478,-0.22737873 -1.259328,-0.68213617 -0.192398,-0.2973414 -0.262361,-0.5946829 -0.279851,-1.1019123 z m -3.812967,-0.6821362 c 0.06996,-0.961987 0.647155,-1.5916512 1.486707,-1.5916512 0.822062,0 1.451726,0.6646456 1.451726,1.5216885 0,0.034981 0,0.052472 -0.01749,0.069963 z m 9.173857,-4.2677239 h -0.822061 v 2.7110541 c -0.349814,-0.5247202 -0.909515,-0.8045709 -1.609142,-0.8045709 -1.346782,0 -2.238806,1.0844216 -2.238806,2.7460354 0,1.76655788 0.857043,2.85097952 2.273787,2.85097952 0.717118,0 1.206857,-0.26236007 1.661614,-0.90951492 v 0.68213619 h 0.734608 z m -2.291278,2.6760727 c 0.892025,0 1.469217,0.8045709 1.469217,2.0464086 0,1.2068564 -0.577192,2.01142727 -1.451726,2.01142727 -0.927005,0 -1.539179,-0.82206157 -1.539179,-2.02891787 0,-1.2243471 0.612174,-2.028918 1.521688,-2.028918 z m 6.213562,-2.6760727 v 7.27611939 h 0.752098 v -0.66464552 c 0.384795,0.61217351 0.927006,0.89202425 1.644124,0.89202425 1.381763,0 2.273787,-1.11940298 2.273787,-2.85097952 0,-1.6965951 -0.857043,-2.7460354 -2.238806,-2.7460354 -0.717118,0 -1.224347,0.2623601 -1.609142,0.8570429 v -2.7635261 z m 2.273787,2.6760727 c 0.927005,0 1.539179,0.8045709 1.539179,2.0638993 0,1.171875 -0.629664,1.99393657 -1.539179,1.99393657 -0.874534,0 -1.451726,-0.80457087 -1.451726,-2.02891787 0,-1.2243471 0.577192,-2.028918 1.451726,-2.028918 z m 8.054454,4.11030789 c -0.08745,0.0174907 -0.122435,0.0174907 -0.174907,0.0174907 -0.297341,0 -0.454757,-0.13992538 -0.454757,-0.40228545 V -3.9511889 c 0,-0.9270056 -0.682136,-1.4167444 -1.958955,-1.4167444 -0.76959,0 -1.381763,0.2098881 -1.731577,0.6121735 -0.244869,0.2623601 -0.349813,0.5597015 -0.367304,1.0844216 h 0.839552 c 0.06996,-0.6471548 0.454758,-0.9270056 1.224347,-0.9270056 0.752099,0 1.171875,0.2798508 1.171875,0.7695896 v 0.2273787 c 0,0.3498135 -0.209888,0.4897388 -0.874533,0.5771922 -1.171875,0.1399254 -1.346782,0.1923974 -1.679105,0.3148321 -0.594682,0.2448694 -0.909515,0.7171175 -0.909515,1.3992537 0,0.94449629 0.664646,1.53917912 1.714086,1.53917912 0.664646,0 1.189366,-0.22737873 1.766558,-0.76958955 0.06996,0.52472015 0.332323,0.76958955 0.857043,0.76958955 0.174907,0 0.314832,-0.0174907 0.577192,-0.0874534 z M 78.013001,-1.6424202 c 0,0.2798507 -0.08745,0.4547574 -0.332322,0.68213615 -0.332323,0.29734142 -0.752099,0.45475746 -1.241838,0.45475746 -0.647155,0 -1.014459,-0.29734141 -1.014459,-0.82206161 0,-0.5597014 0.367304,-0.8395522 1.241838,-0.9619869 0.892024,-0.1224347 1.066931,-0.157416 1.346781,-0.2973414 z M 82.20639,-5.2280079 H 81.349347 V -6.662243 h -0.839552 v 1.4342351 h -0.699627 v 0.6821362 h 0.699627 v 3.95289176 c 0,0.52472015 0.367304,0.82206156 1.014459,0.82206156 0.192397,0 0.402285,-0.0174907 0.682136,-0.0699627 v -0.69962687 c -0.104944,0.0349813 -0.244869,0.0349813 -0.402286,0.0349813 -0.367304,0 -0.454757,-0.0874533 -0.454757,-0.45475746 V -4.5458717 h 0.857043 z m 4.923624,1.7665578 c -0.03498,-0.5072295 -0.139925,-0.8395522 -0.332323,-1.1368937 -0.367304,-0.4897388 -0.996968,-0.7695895 -1.731576,-0.7695895 -1.399254,0 -2.308769,1.119403 -2.308769,2.8509795 0,1.67910445 0.892024,2.74603542 2.308769,2.74603542 1.241837,0 2.028918,-0.75209888 2.133862,-2.02891792 h -0.839553 c -0.139925,0.83955225 -0.559701,1.25932837 -1.276819,1.25932837 -0.909515,0 -1.469216,-0.75209887 -1.469216,-1.97644587 0,-1.3118004 0.542211,-2.08139 1.451726,-2.08139 0.699627,0 1.136893,0.4022855 1.241837,1.1368937 z m 0.992596,-3.8129664 v 7.27611939 h 0.822061 V -2.8842579 c 0,-1.066931 0.559702,-1.7665579 1.416745,-1.7665579 0.27985,0 0.54221,0.1049441 0.734608,0.2448694 0.244869,0.1749068 0.349813,0.4197762 0.349813,0.7870803 v 3.62056899 h 0.822062 V -3.9511889 c 0,-0.8745336 -0.629664,-1.4167444 -1.644123,-1.4167444 -0.734609,0 -1.189366,0.2273787 -1.679105,0.8570429 v -2.7635261 z m 0,0"
       style="fill:#000000;fill-opacity:1;fill-rule:nonzero;stroke:none"
       aria-label="Smaller,variedbatch"
       transform="matrix(0.89333333,0,0,0.89333333,87.546667,149.23676)" />
    <path
       id="path11"
       d="m -35.43347,-44.78806 1.36067,1.95604 -0.59535,3.48661 0.34024,0.76545 -1.10556,0.76536 -1.10558,-0.76536 0.34025,-0.76545 -0.59536,-3.48661 z"
       style="fill:#bf8040;fill-opacity:1;fill-rule:nonzero;stroke:#bf8040;stroke-width:0.3985;stroke-linecap:butt;stroke-linejoin:round;stroke-miterlimit:10;stroke-dasharray:none;stroke-opacity:1"
       transform="matrix(0.89333333,0,0,-0.89333333,59.953387,107.43323)" />
    <path
       id="path12"
       d="m -29.1404,-27.35458 c 0.60067,0.21861 1.13146,-0.64609 1.02047,-1.27559 -0.29291,-0.80475 -1.04427,-1.70388 -1.78592,-1.27568 0.35551,0.97675 0.58511,1.52778 0.76559,2.55143 z"
       style="fill:#000000;fill-opacity:1;fill-rule:nonzero;stroke:#000000;stroke-width:0.3985;stroke-linecap:butt;stroke-linejoin:round;stroke-miterlimit:10;stroke-dasharray:none;stroke-opacity:1"
       transform="matrix(0.89333333,0,0,-0.89333333,59.953387,107.43323)" />
    <path
       id="path13"
       d="m -41.89656,-27.26947 c -0.60222,0.10619 -0.97463,-0.78604 -0.76547,-1.3607 0.28441,-0.78139 0.88202,-1.42008 1.70093,-1.27568 -0.37345,1.02606 -0.56214,1.6105 -0.9356,2.63656 z"
       style="fill:#000000;fill-opacity:1;fill-rule:nonzero;stroke:#000000;stroke-width:0.3985;stroke-linecap:butt;stroke-linejoin:round;stroke-miterlimit:10;stroke-dasharray:none;stroke-opacity:1"
       transform="matrix(0.89333333,0,0,-0.89333333,59.953387,107.43323)" />
    <path
       id="path14"
       d="m -35.43347,-35.43347 c -3.67142,0 -4.86725,3.69339 -6.12299,7.14342 -0.96013,2.63789 -1.40385,6.57099 1.3607,7.05844 1.41199,3.87936 9.13303,3.11403 10.54502,-0.76534 1.8873,-1.58365 0.76805,-3.86679 0.34024,-6.2931 -1.25572,-3.45003 -2.45157,-7.14342 -6.12297,-7.14342 z"
       style="fill:#000000;fill-opacity:1;fill-rule:nonzero;stroke:none"
       transform="matrix(0.89333333,0,0,-0.89333333,59.953387,107.43323)" />
    <path
       id="path15"
       d="m -35.43347,-34.49803 c -2.50537,0.21921 -3.64699,2.22888 -4.50719,4.59218 -0.65416,1.79733 -0.84703,2.94203 -0.68033,4.84741 0.14734,0.83571 0.44872,1.26079 0.93546,1.95592 3.12854,-1.13872 5.7769,-1.73951 8.5041,0.17012 1.19571,-1.42498 1.01259,-2.82419 0.85047,-4.67731 -0.58193,-3.30039 -1.7533,-6.77135 -5.10251,-6.88831 z"
       style="fill:#ffffff;fill-opacity:1;fill-rule:nonzero;stroke:none"
       transform="matrix(0.89333333,0,0,-0.89333333,59.953387,107.43323)" />
    <path
       id="path16"
       d="m -39.68553,-23.10252 c 2.16958,-2.16959 4.68993,-2.49492 7.65364,-1.70081 0.23758,-0.08647 -0.0061,0.63927 -0.25511,0.59535 -2.58521,-0.45582 -4.8607,-0.5652 -6.54807,1.44568 z"
       style="fill:#000000;fill-opacity:1;fill-rule:nonzero;stroke:#000000;stroke-width:0.3985;stroke-linecap:butt;stroke-linejoin:round;stroke-miterlimit:10;stroke-dasharray:none;stroke-opacity:1"
       transform="matrix(0.89333333,0,0,-0.89333333,59.953387,107.43323)" />
    <path
       id="path17"
       d="m -40.70598,-37.13428 c 1.34787,1.60631 1.73764,3.30205 1.02045,5.27251"
       style="fill:none;stroke:#000000;stroke-width:1.24535;stroke-linecap:butt;stroke-linejoin:round;stroke-miterlimit:10;stroke-dasharray:none;stroke-opacity:1"
       transform="matrix(0.89333333,0,0,-0.89333333,59.953387,107.43323)" />
    <path
       id="path18"
       d="m -30.16098,-37.13428 c -1.34787,1.60631 -1.73764,3.30205 -1.02045,5.27251"
       style="fill:none;stroke:#000000;stroke-width:1.24535;stroke-linecap:butt;stroke-linejoin:round;stroke-miterlimit:10;stroke-dasharray:none;stroke-opacity:1"
       transform="matrix(0.89333333,0,0,-0.89333333,59.953387,107.43323)" />
    <path
       id="path19"
       d="m -35.43347,-43.9376 c -2.83383,1.63612 -2.96275,4.23866 -4.08194,7.31356 -2.66969,-0.97169 -4.97716,-0.37496 -6.80333,-2.55127 -2.2411,-3.88169 -1.51786,-6.81123 -2.29616,-11.22539 h 26.36284 c -0.7783,4.41416 -0.05505,7.3437 -2.29614,11.22539 -1.80335,2.1491 -4.08194,1.59172 -6.71822,2.55127 -1.38916,-2.97903 -1.32045,-5.67024 -4.16705,-7.31375 z"
       style="fill:#006395;fill-opacity:1;fill-rule:nonzero;stroke:#006395;stroke-width:0.3985;stroke-linecap:butt;stroke-linejoin:round;stroke-miterlimit:10;stroke-dasharray:none;stroke-opacity:1"
       transform="matrix(0.89333333,0,0,-0.89333333,59.953387,107.43323)" />
    <path
       id="path20"
       d="m -28.63017,-37.21939 c 0.10829,-1.4274 0.07016,-2.24551 -0.17011,-3.65671 2.41275,-0.42541 2.12621,-3.62526 1.70079,-6.03801 -0.40967,-1.12556 -1.17369,-2.72491 -2.21101,-2.12602"
       style="fill:none;stroke:#006395;stroke-width:1.99255;stroke-linecap:butt;stroke-linejoin:round;stroke-miterlimit:10;stroke-dasharray:none;stroke-opacity:1"
       transform="matrix(0.89333333,0,0,-0.89333333,59.953387,107.43323)" />
    <path
       id="path21"
       d="m -31.77678,-48.44478 c -1.33281,0 -1.77185,2.07735 -1.10544,3.23161 1.1622,2.01302 1.79283,4.7407 4.08194,4.33707"
       style="fill:none;stroke:#006395;stroke-width:1.99255;stroke-linecap:butt;stroke-linejoin:round;stroke-miterlimit:10;stroke-dasharray:none;stroke-opacity:1"
       transform="matrix(0.89333333,0,0,-0.89333333,59.953387,107.43323)" />
    <path
       id="path22"
       d="m -41.81155,-37.21939 c -1.09551,-3.98007 -0.86872,-6.79198 0.85045,-10.54503"
       style="fill:none;stroke:#006395;stroke-width:1.99255;stroke-linecap:butt;stroke-linejoin:round;stroke-miterlimit:10;stroke-dasharray:none;stroke-opacity:1"
       transform="matrix(0.89333333,0,0,-0.89333333,59.953387,107.43323)" />
    <path
       id="path23"
       d="m -39.5522,-47.76442 c 0,0.77811 -0.63078,1.40891 -1.4089,1.40891 -0.77811,0 -1.40891,-0.6308 -1.40891,-1.40891 0,-0.77812 0.6308,-1.4089 1.40891,-1.4089 0.77812,0 1.4089,0.63078 1.4089,1.4089 z"
       style="fill:#006395;fill-opacity:1;fill-rule:nonzero;stroke:none"
       transform="matrix(0.89333333,0,0,-0.89333333,59.953387,107.43323)" />
    <path
       id="path24"
       d="m -32.20692,-27.43959 c 0,0.4669 -0.37851,0.84543 -0.84543,0.84543 -0.46691,0 -0.84543,-0.37853 -0.84543,-0.84543 0,-0.46692 0.37852,-0.84543 0.84543,-0.84543 0.46692,0 0.84543,0.37851 0.84543,0.84543 z"
       style="fill:#000000;fill-opacity:1;fill-rule:nonzero;stroke:none"
       transform="matrix(0.89333333,0,0,-0.89333333,59.953387,107.43323)" />
    <path
       id="path25"
       d="m -36.96918,-27.43959 c 0,0.4669 -0.37852,0.84543 -0.84542,0.84543 -0.46692,0 -0.84543,-0.37853 -0.84543,-0.84543 0,-0.46692 0.37851,-0.84543 0.84543,-0.84543 0.4669,0 0.84542,0.37851 0.84542,0.84543 z"
       style="fill:#000000;fill-opacity:1;fill-rule:nonzero;stroke:none"
       transform="matrix(0.89333333,0,0,-0.89333333,59.953387,107.43323)" />
    <path
       id="path26"
       d="m -37.55951,-31.18143 c 1.06586,-1.27021 3.18621,-1.27021 4.25206,0"
       style="fill:none;stroke:#000000;stroke-width:0.99628;stroke-linecap:butt;stroke-linejoin:round;stroke-miterlimit:10;stroke-dasharray:none;stroke-opacity:1"
       transform="matrix(0.89333333,0,0,-0.89333333,59.953387,107.43323)" />
    <path
       id="path27"
       d="m 192.04971,7.08672 c 0,3.52252 -2.85548,6.37802 -6.37802,6.37802 -3.52252,0 -6.37802,-2.8555 -6.37802,-6.37802 0,-3.52252 2.8555,-6.37802 6.37802,-6.37802 3.52254,0 6.37802,2.8555 6.37802,6.37802 z"
       style="fill:#fbeeed;fill-opacity:1;fill-rule:nonzero;stroke:#d9534f;stroke-width:0.99628;stroke-linecap:butt;stroke-linejoin:round;stroke-miterlimit:10;stroke-dasharray:none;stroke-opacity:1"
       transform="matrix(0.89333333,0,0,-0.89333333,59.953387,107.43323)" />
    <path
       id="path28"
       d="m 192.04971,-9.92154 c 0,3.52254 -2.85548,6.37802 -6.37802,6.37802 -3.52252,0 -6.37802,-2.85548 -6.37802,-6.37802 0,-3.52252 2.8555,-6.37802 6.37802,-6.37802 3.52254,0 6.37802,2.8555 6.37802,6.37802 z"
       style="fill:#fbeeed;fill-opacity:1;fill-rule:nonzero;stroke:#d9534f;stroke-width:0.99628;stroke-linecap:butt;stroke-linejoin:round;stroke-miterlimit:10;stroke-dasharray:none;stroke-opacity:1"
       transform="matrix(0.89333333,0,0,-0.89333333,59.953387,107.43323)" />
    <path
       id="path29"
       d="m 192.04971,-26.9298 c 0,3.52253 -2.85548,6.37803 -6.37802,6.37803 -3.52252,0 -6.37802,-2.8555 -6.37802,-6.37803 0,-3.52252 2.8555,-6.37802 6.37802,-6.37802 3.52254,0 6.37802,2.8555 6.37802,6.37802 z"
       style="fill:#fbeeed;fill-opacity:1;fill-rule:nonzero;stroke:#d9534f;stroke-width:0.99628;stroke-linecap:butt;stroke-linejoin:round;stroke-miterlimit:10;stroke-dasharray:none;stroke-opacity:1"
       transform="matrix(0.89333333,0,0,-0.89333333,59.953387,107.43323)" />
    <path
       id="path30"
       d="m 192.04971,-43.93803 c 0,3.52253 -2.85548,6.37802 -6.37802,6.37802 -3.52252,0 -6.37802,-2.85549 -6.37802,-6.37802 0,-3.52253 2.8555,-6.37803 6.37802,-6.37803 3.52254,0 6.37802,2.8555 6.37802,6.37803 z"
       style="fill:#fbeeed;fill-opacity:1;fill-rule:nonzero;stroke:#d9534f;stroke-width:0.99628;stroke-linecap:butt;stroke-linejoin:round;stroke-miterlimit:10;stroke-dasharray:none;stroke-opacity:1"
       transform="matrix(0.89333333,0,0,-0.89333333,59.953387,107.43323)" />
    <path
       id="path31"
       d="m 192.04971,-60.94629 c 0,3.52252 -2.85548,6.37802 -6.37802,6.37802 -3.52252,0 -6.37802,-2.8555 -6.37802,-6.37802 0,-3.52252 2.8555,-6.37802 6.37802,-6.37802 3.52254,0 6.37802,2.8555 6.37802,6.37802 z"
       style="fill:#fbeeed;fill-opacity:1;fill-rule:nonzero;stroke:#d9534f;stroke-width:0.99628;stroke-linecap:butt;stroke-linejoin:round;stroke-miterlimit:10;stroke-dasharray:none;stroke-opacity:1"
       transform="matrix(0.89333333,0,0,-0.89333333,59.953387,107.43323)" />
    <path
       id="path32"
       d="m 234.56993,-9.92154 c 0,3.52254 -2.8555,6.37802 -6.37802,6.37802 -3.52254,0 -6.37802,-2.85548 -6.37802,-6.37802 0,-3.52252 2.85548,-6.37802 6.37802,-6.37802 3.52252,0 6.37802,2.8555 6.37802,6.37802 z"
       style="fill:#fbeeed;fill-opacity:1;fill-rule:nonzero;stroke:#d9534f;stroke-width:0.99628;stroke-linecap:butt;stroke-linejoin:round;stroke-miterlimit:10;stroke-dasharray:none;stroke-opacity:1"
       transform="matrix(0.89333333,0,0,-0.89333333,59.953387,107.43323)" />
    <path
       id="path33"
       d="m 234.56993,-26.9298 c 0,3.52253 -2.8555,6.37803 -6.37802,6.37803 -3.52254,0 -6.37802,-2.8555 -6.37802,-6.37803 0,-3.52252 2.85548,-6.37802 6.37802,-6.37802 3.52252,0 6.37802,2.8555 6.37802,6.37802 z"
       style="fill:#fbeeed;fill-opacity:1;fill-rule:nonzero;stroke:#d9534f;stroke-width:0.99628;stroke-linecap:butt;stroke-linejoin:round;stroke-miterlimit:10;stroke-dasharray:none;stroke-opacity:1"
       transform="matrix(0.89333333,0,0,-0.89333333,59.953387,107.43323)" />
    <path
       id="path34"
       d="m 234.56993,-43.93803 c 0,3.52253 -2.8555,6.37802 -6.37802,6.37802 -3.52254,0 -6.37802,-2.85549 -6.37802,-6.37802 0,-3.52253 2.85548,-6.37803 6.37802,-6.37803 3.52252,0 6.37802,2.8555 6.37802,6.37803 z"
       style="fill:#fbeeed;fill-opacity:1;fill-rule:nonzero;stroke:#d9534f;stroke-width:0.99628;stroke-linecap:butt;stroke-linejoin:round;stroke-miterlimit:10;stroke-dasharray:none;stroke-opacity:1"
       transform="matrix(0.89333333,0,0,-0.89333333,59.953387,107.43323)" />
    <path
       id="path35"
       d="m 277.09015,-9.92154 c 0,3.52254 -2.8555,6.37802 -6.37802,6.37802 -3.52253,0 -6.37803,-2.85548 -6.37803,-6.37802 0,-3.52252 2.8555,-6.37802 6.37803,-6.37802 3.52252,0 6.37802,2.8555 6.37802,6.37802 z"
       style="fill:#fbeeed;fill-opacity:1;fill-rule:nonzero;stroke:#d9534f;stroke-width:0.99628;stroke-linecap:butt;stroke-linejoin:round;stroke-miterlimit:10;stroke-dasharray:none;stroke-opacity:1"
       transform="matrix(0.89333333,0,0,-0.89333333,59.953387,107.43323)" />
    <path
       id="path36"
       d="m 277.09015,-26.9298 c 0,3.52253 -2.8555,6.37803 -6.37802,6.37803 -3.52253,0 -6.37803,-2.8555 -6.37803,-6.37803 0,-3.52252 2.8555,-6.37802 6.37803,-6.37802 3.52252,0 6.37802,2.8555 6.37802,6.37802 z"
       style="fill:#fbeeed;fill-opacity:1;fill-rule:nonzero;stroke:#d9534f;stroke-width:0.99628;stroke-linecap:butt;stroke-linejoin:round;stroke-miterlimit:10;stroke-dasharray:none;stroke-opacity:1"
       transform="matrix(0.89333333,0,0,-0.89333333,59.953387,107.43323)" />
    <path
       id="path37"
       d="m 277.09015,-43.93803 c 0,3.52253 -2.8555,6.37802 -6.37802,6.37802 -3.52253,0 -6.37803,-2.85549 -6.37803,-6.37802 0,-3.52253 2.8555,-6.37803 6.37803,-6.37803 3.52252,0 6.37802,2.8555 6.37802,6.37803 z"
       style="fill:#fbeeed;fill-opacity:1;fill-rule:nonzero;stroke:#d9534f;stroke-width:0.99628;stroke-linecap:butt;stroke-linejoin:round;stroke-miterlimit:10;stroke-dasharray:none;stroke-opacity:1"
       transform="matrix(0.89333333,0,0,-0.89333333,59.953387,107.43323)" />
    <path
       id="path38"
       d="M 192.05577,4.53313 221.80783,-7.36795"
       style="fill:none;stroke:#808080;stroke-width:0.49814;stroke-linecap:butt;stroke-linejoin:round;stroke-miterlimit:10;stroke-dasharray:none;stroke-opacity:1"
       transform="matrix(0.89333333,0,0,-0.89333333,59.953387,107.43323)" />
    <path
       id="path39"
       d="M 191.04074,2.79143 222.82286,-22.6345"
       style="fill:none;stroke:#808080;stroke-width:0.49814;stroke-linecap:butt;stroke-linejoin:round;stroke-miterlimit:10;stroke-dasharray:none;stroke-opacity:1"
       transform="matrix(0.89333333,0,0,-0.89333333,59.953387,107.43323)" />
    <path
       id="path40"
       d="m 190.07347,1.80453 33.71666,-40.46037"
       style="fill:none;stroke:#808080;stroke-width:0.49814;stroke-linecap:butt;stroke-linejoin:round;stroke-miterlimit:10;stroke-dasharray:none;stroke-opacity:1"
       transform="matrix(0.89333333,0,0,-0.89333333,59.953387,107.43323)" />
    <path
       id="path41"
       d="m 192.54785,-9.92154 h 28.7679"
       style="fill:none;stroke:#808080;stroke-width:0.49814;stroke-linecap:butt;stroke-linejoin:round;stroke-miterlimit:10;stroke-dasharray:none;stroke-opacity:1"
       transform="matrix(0.89333333,0,0,-0.89333333,59.953387,107.43323)" />
    <path
       id="path42"
       d="M 192.05577,-12.47511 221.80783,-24.3762"
       style="fill:none;stroke:#808080;stroke-width:0.49814;stroke-linecap:butt;stroke-linejoin:round;stroke-miterlimit:10;stroke-dasharray:none;stroke-opacity:1"
       transform="matrix(0.89333333,0,0,-0.89333333,59.953387,107.43323)" />
    <path
       id="path43"
       d="m 191.04074,-14.21683 31.78212,-25.42592"
       style="fill:none;stroke:#808080;stroke-width:0.49814;stroke-linecap:butt;stroke-linejoin:round;stroke-miterlimit:10;stroke-dasharray:none;stroke-opacity:1"
       transform="matrix(0.89333333,0,0,-0.89333333,59.953387,107.43323)" />
    <path
       id="path44"
       d="m 192.05577,-24.3762 29.75206,11.90109"
       style="fill:none;stroke:#808080;stroke-width:0.49814;stroke-linecap:butt;stroke-linejoin:round;stroke-miterlimit:10;stroke-dasharray:none;stroke-opacity:1"
       transform="matrix(0.89333333,0,0,-0.89333333,59.953387,107.43323)" />
    <path
       id="path45"
       d="m 192.54785,-26.9298 h 28.7679"
       style="fill:none;stroke:#808080;stroke-width:0.49814;stroke-linecap:butt;stroke-linejoin:round;stroke-miterlimit:10;stroke-dasharray:none;stroke-opacity:1"
       transform="matrix(0.89333333,0,0,-0.89333333,59.953387,107.43323)" />
    <path
       id="path46"
       d="m 192.05577,-29.48338 29.75206,-11.90107"
       style="fill:none;stroke:#808080;stroke-width:0.49814;stroke-linecap:butt;stroke-linejoin:round;stroke-miterlimit:10;stroke-dasharray:none;stroke-opacity:1"
       transform="matrix(0.89333333,0,0,-0.89333333,59.953387,107.43323)" />
    <path
       id="path47"
       d="m 191.04074,-39.64275 31.78212,25.42592"
       style="fill:none;stroke:#808080;stroke-width:0.49814;stroke-linecap:butt;stroke-linejoin:round;stroke-miterlimit:10;stroke-dasharray:none;stroke-opacity:1"
       transform="matrix(0.89333333,0,0,-0.89333333,59.953387,107.43323)" />
    <path
       id="path48"
       d="m 192.05577,-41.38445 29.75206,11.90107"
       style="fill:none;stroke:#808080;stroke-width:0.49814;stroke-linecap:butt;stroke-linejoin:round;stroke-miterlimit:10;stroke-dasharray:none;stroke-opacity:1"
       transform="matrix(0.89333333,0,0,-0.89333333,59.953387,107.43323)" />
    <path
       id="path49"
       d="m 192.54785,-43.93803 h 28.7679"
       style="fill:none;stroke:#808080;stroke-width:0.49814;stroke-linecap:butt;stroke-linejoin:round;stroke-miterlimit:10;stroke-dasharray:none;stroke-opacity:1"
       transform="matrix(0.89333333,0,0,-0.89333333,59.953387,107.43323)" />
    <path
       id="path50"
       d="m 190.07347,-55.66411 33.71666,40.46039"
       style="fill:none;stroke:#808080;stroke-width:0.49814;stroke-linecap:butt;stroke-linejoin:round;stroke-miterlimit:10;stroke-dasharray:none;stroke-opacity:1"
       transform="matrix(0.89333333,0,0,-0.89333333,59.953387,107.43323)" />
    <path
       id="path51"
       d="m 191.04074,-56.651 31.78212,25.42592"
       style="fill:none;stroke:#808080;stroke-width:0.49814;stroke-linecap:butt;stroke-linejoin:round;stroke-miterlimit:10;stroke-dasharray:none;stroke-opacity:1"
       transform="matrix(0.89333333,0,0,-0.89333333,59.953387,107.43323)" />
    <path
       id="path52"
       d="m 192.05577,-58.3927 29.75206,11.90109"
       style="fill:none;stroke:#808080;stroke-width:0.49814;stroke-linecap:butt;stroke-linejoin:round;stroke-miterlimit:10;stroke-dasharray:none;stroke-opacity:1"
       transform="matrix(0.89333333,0,0,-0.89333333,59.953387,107.43323)" />
    <path
       id="path53"
       d="m 235.06807,-9.92154 h 28.7679"
       style="fill:none;stroke:#808080;stroke-width:0.49814;stroke-linecap:butt;stroke-linejoin:round;stroke-miterlimit:10;stroke-dasharray:none;stroke-opacity:1"
       transform="matrix(0.89333333,0,0,-0.89333333,59.953387,107.43323)" />
    <path
       id="path54"
       d="M 234.57597,-12.47511 264.32805,-24.3762"
       style="fill:none;stroke:#808080;stroke-width:0.49814;stroke-linecap:butt;stroke-linejoin:round;stroke-miterlimit:10;stroke-dasharray:none;stroke-opacity:1"
       transform="matrix(0.89333333,0,0,-0.89333333,59.953387,107.43323)" />
    <path
       id="path55"
       d="m 233.56096,-14.21683 31.78212,-25.42592"
       style="fill:none;stroke:#808080;stroke-width:0.49814;stroke-linecap:butt;stroke-linejoin:round;stroke-miterlimit:10;stroke-dasharray:none;stroke-opacity:1"
       transform="matrix(0.89333333,0,0,-0.89333333,59.953387,107.43323)" />
    <path
       id="path56"
       d="m 234.57597,-24.3762 29.75208,11.90109"
       style="fill:none;stroke:#808080;stroke-width:0.49814;stroke-linecap:butt;stroke-linejoin:round;stroke-miterlimit:10;stroke-dasharray:none;stroke-opacity:1"
       transform="matrix(0.89333333,0,0,-0.89333333,59.953387,107.43323)" />
    <path
       id="path57"
       d="m 235.06807,-26.9298 h 28.7679"
       style="fill:none;stroke:#808080;stroke-width:0.49814;stroke-linecap:butt;stroke-linejoin:round;stroke-miterlimit:10;stroke-dasharray:none;stroke-opacity:1"
       transform="matrix(0.89333333,0,0,-0.89333333,59.953387,107.43323)" />
    <path
       id="path58"
       d="m 234.57597,-29.48338 29.75208,-11.90107"
       style="fill:none;stroke:#808080;stroke-width:0.49814;stroke-linecap:butt;stroke-linejoin:round;stroke-miterlimit:10;stroke-dasharray:none;stroke-opacity:1"
       transform="matrix(0.89333333,0,0,-0.89333333,59.953387,107.43323)" />
    <path
       id="path59"
       d="m 233.56096,-39.64275 31.78212,25.42592"
       style="fill:none;stroke:#808080;stroke-width:0.49814;stroke-linecap:butt;stroke-linejoin:round;stroke-miterlimit:10;stroke-dasharray:none;stroke-opacity:1"
       transform="matrix(0.89333333,0,0,-0.89333333,59.953387,107.43323)" />
    <path
       id="path60"
       d="m 234.57597,-41.38445 29.75208,11.90107"
       style="fill:none;stroke:#808080;stroke-width:0.49814;stroke-linecap:butt;stroke-linejoin:round;stroke-miterlimit:10;stroke-dasharray:none;stroke-opacity:1"
       transform="matrix(0.89333333,0,0,-0.89333333,59.953387,107.43323)" />
    <path
       id="path61"
       d="m 235.06807,-43.93803 h 28.7679"
       style="fill:none;stroke:#808080;stroke-width:0.49814;stroke-linecap:butt;stroke-linejoin:round;stroke-miterlimit:10;stroke-dasharray:none;stroke-opacity:1"
       transform="matrix(0.89333333,0,0,-0.89333333,59.953387,107.43323)" />
    <path
       id="path62"
       d="M 128.97807,-26.9298 H 333.82321"
       style="fill:none;stroke:#dfbf9f;stroke-width:1.94273;stroke-linecap:butt;stroke-linejoin:round;stroke-miterlimit:10;stroke-dasharray:none;stroke-opacity:1"
       transform="matrix(0.89333333,0,0,-0.89333333,59.953387,107.43323)" />
    <path
       id="path63"
       d="M 7.75592,0 C 5.45782,0.43088 1.72353,1.72353 -0.86176,3.23163 V -3.23163 C 1.72353,-1.72353 5.45782,-0.43088 7.75592,0"
       style="fill:#dfbf9f;fill-opacity:1;fill-rule:nonzero;stroke:none"
       transform="matrix(0.89333333,0,0,-0.89333333,358.16879,131.49051)" />
    <path
       id="path64"
       d="M 2.5718018,-5.2286875 H 1.6972682 v -0.8045709 c 0,-0.3498134 0.209888,-0.5422108 0.5946828,-0.5422108 0.069963,0 0.087453,0 0.2798508,0.017491 v -0.6821362 c -0.1923974,-0.052472 -0.2973414,-0.052472 -0.4722482,-0.052472 -0.7695895,0 -1.22434698,0.4372668 -1.22434698,1.1893657 v 0.8745336 H 0.17557976 v 0.6821362 H 0.87520662 V 0.00102332 H 1.6972682 V -4.5465513 h 0.8745336 z m 2.6104827,-0.1399254 c -1.4692164,0 -2.34375,1.0494403 -2.34375,2.7985075 0,1.74906715 0.8745336,2.79850745 2.3612407,2.79850745 1.4517257,0 2.3612407,-1.0494403 2.3612407,-2.76352615 0,-1.8015391 -0.8745336,-2.8334888 -2.3787314,-2.8334888 z m 0.017491,0.7695896 c 0.9270056,0 1.4867071,0.7695895 1.4867071,2.0638992 0,1.224347 -0.5771922,1.9939366 -1.4867071,1.9939366 -0.9270056,0 -1.5041978,-0.7695896 -1.5041978,-2.0289179 0,-1.2593284 0.5771922,-2.0289179 1.5041978,-2.0289179 z M 8.6935368,-5.2286875 V 0.00102332 H 9.5330891 V -2.7100308 c 0,-0.7520989 0.1923974,-1.2418377 0.5946829,-1.5216884 0.26236,-0.1923974 0.507229,-0.2623601 1.084422,-0.2623601 v -0.8570429 c -0.139926,-0.017491 -0.209888,-0.017491 -0.314833,-0.017491 -0.54221,0 -0.9444958,0.3148321 -1.4342346,1.0844217 v -0.9444963 z m 8.1593982,5.22971082 1.539179,-5.22971082 h -0.944496 l -1.03195,4.0753265 -1.031949,-4.0753265 H 14.36926 l -0.996968,4.0753265 -1.066931,-4.0753265 h -0.927006 l 1.521688,5.22971082 h 0.944497 l 0.996968,-4.09281712 1.066931,4.09281712 z m 6.851971,-0.48973881 c -0.08745,0.0174907 -0.122435,0.0174907 -0.174907,0.0174907 -0.297341,0 -0.454757,-0.13992538 -0.454757,-0.40228545 V -3.9518685 c 0,-0.9270056 -0.682137,-1.4167444 -1.958956,-1.4167444 -0.769589,0 -1.381763,0.2098881 -1.731576,0.6121735 -0.24487,0.2623601 -0.349814,0.5597015 -0.367304,1.0844217 h 0.839552 c 0.06996,-0.6471549 0.454757,-0.9270056 1.224347,-0.9270056 0.752099,0 1.171875,0.2798507 1.171875,0.7695895 v 0.2273788 c 0,0.3498134 -0.209888,0.4897388 -0.874534,0.5771921 -1.171875,0.1399254 -1.346781,0.1923974 -1.679104,0.3148321 -0.594683,0.2448694 -0.909515,0.7171176 -0.909515,1.3992537 0,0.94449632 0.664646,1.53917915 1.714086,1.53917915 0.664645,0 1.189366,-0.22737873 1.766558,-0.76958955 0.06996,0.52472015 0.332322,0.76958955 0.857043,0.76958955 0.174906,0 0.314832,-0.0174907 0.577192,-0.0874534 z M 22.25318,-1.6430998 c 0,0.2798507 -0.08745,0.4547574 -0.332323,0.68213618 -0.332322,0.29734142 -0.752099,0.45475746 -1.241837,0.45475746 -0.647155,0 -1.014459,-0.29734141 -1.014459,-0.82206154 0,-0.5597015 0.367304,-0.8395523 1.241837,-0.961987 0.892025,-0.1224347 1.066931,-0.157416 1.346782,-0.2973414 z m 2.339377,-3.5855877 V 0.00102332 H 25.43211 V -2.7100308 c 0,-0.7520989 0.192397,-1.2418377 0.594682,-1.5216884 0.262361,-0.1923974 0.50723,-0.2623601 1.084422,-0.2623601 v -0.8570429 c -0.139925,-0.017491 -0.209888,-0.017491 -0.314832,-0.017491 -0.542211,0 -0.944496,0.3148321 -1.434235,1.0844217 v -0.9444963 z m 7.569089,-2.0464086 h -0.822062 v 2.7110541 c -0.349813,-0.5247201 -0.909515,-0.8045709 -1.609142,-0.8045709 -1.346782,0 -2.238806,1.0844217 -2.238806,2.7460355 0,1.76655781 0.857043,2.85097945 2.273788,2.85097945 0.717117,0 1.206856,-0.26236007 1.661613,-0.90951492 v 0.68213619 h 0.734609 z m -2.291278,2.6760728 c 0.892024,0 1.469216,0.8045709 1.469216,2.0464086 0,1.2068563 -0.577192,2.0114272 -1.451726,2.0114272 -0.927005,0 -1.539179,-0.8220616 -1.539179,-2.0289179 0,-1.224347 0.612174,-2.0289179 1.521689,-2.0289179 z m 0,0"
       style="fill:#000000;fill-opacity:1;fill-rule:nonzero;stroke:none"
       aria-label="forward"
       transform="matrix(0.89333333,0,0,0.89333333,331.98768,127.55377)" />
    <path
       id="path65"
       d="m 0.52671362,-7.0677654 v 1.1019123 l 0.26236007,1.3467817 H 1.1738685 l 0.2798507,-1.3467817 v -1.1019123 z m 1.59165108,0 v 1.1019123 l 0.2623601,1.3467817 H 2.7655196 L 3.0453703,-5.9658531 V -7.0677654 Z M 4.07732,2.1673092 h 0.8395522 v -2.71105407 c 0.4372668,0.52472015 0.9270056,0.76958955 1.5916511,0.76958955 1.3467817,0 2.238806,-1.08442164 2.238806,-2.74603548 0,-1.7665578 -0.8570429,-2.8509794 -2.238806,-2.8509794 -0.7171175,0 -1.276819,0.314832 -1.6616138,0.9270056 V -5.2312449 H 4.07732 Z m 2.2912779,-6.7688899 c 0.909515,0 1.5216885,0.8045709 1.5216885,2.0638993 0,1.171875 -0.6121735,1.99393653 -1.5216885,1.99393653 -0.8745335,0 -1.4517257,-0.80457093 -1.4517257,-2.02891793 0,-1.224347 0.5771922,-2.0289179 1.4517257,-2.0289179 z m 7.8139581,2.2737873 c 0,-0.8045709 -0.05247,-1.276819 -0.209889,-1.6791045 -0.332322,-0.8570429 -1.136893,-1.3642723 -2.09888,-1.3642723 -1.469217,0 -2.3962222,1.1194029 -2.3962222,2.8334888 0,1.71408578 0.9095152,2.76352608 2.3612412,2.76352608 1.206856,0 2.028917,-0.68213619 2.238805,-1.81902988 h -0.839552 c -0.227378,0.6996269 -0.699627,1.04944033 -1.364272,1.04944033 -0.52472,0 -0.979478,-0.22737873 -1.259329,-0.68213623 -0.192397,-0.2973414 -0.26236,-0.5946828 -0.27985,-1.1019123 z m -3.812967,-0.6821362 c 0.06996,-0.9619869 0.647155,-1.5916511 1.486707,-1.5916511 0.822062,0 1.451726,0.6646455 1.451726,1.5216884 0,0.034981 0,0.052472 -0.01749,0.069963 z m 4.927997,-2.2213153 v 5.22971085 h 0.839552 V -2.7125882 c 0,-0.7520988 0.192397,-1.2418376 0.594683,-1.5216884 0.26236,-0.1923974 0.507229,-0.2623601 1.084422,-0.2623601 v -0.8570429 c -0.139926,-0.017491 -0.209889,-0.017491 -0.314833,-0.017491 -0.54221,0 -0.944496,0.314832 -1.434235,1.0844216 v -0.9444963 z m 7.009386,1.4692164 c -0.01749,-1.0319496 -0.699626,-1.6091417 -1.906483,-1.6091417 -1.206856,0 -1.993936,0.6296641 -1.993936,1.5916511 0,0.8220615 0.419776,1.2068563 1.644123,1.5041977 l 0.78708,0.1923974 c 0.577192,0.1399254 0.804571,0.3498135 0.804571,0.7171176 0,0.48973877 -0.489739,0.82206153 -1.206856,0.82206153 -0.454758,0 -0.839553,-0.1224347 -1.049441,-0.34981343 -0.122434,-0.1399254 -0.192397,-0.2973414 -0.227378,-0.6646455 h -0.892025 c 0.05247,1.20685632 0.717118,1.78404848 2.098881,1.78404848 1.3118,0 2.151353,-0.64715485 2.151353,-1.66161378 0,-0.7695896 -0.437267,-1.1893657 -1.486708,-1.4517258 l -0.78708,-0.1923974 c -0.682136,-0.157416 -0.979477,-0.3673041 -0.979477,-0.7346082 0,-0.4897388 0.437266,-0.7870802 1.119403,-0.7870802 0.664645,0 1.014459,0.2798508 1.04944,0.8395522 z m 3.318855,-1.6091417 c -1.469216,0 -2.34375,1.0494403 -2.34375,2.7985074 0,1.74906718 0.874534,2.79850748 2.361241,2.79850748 1.451726,0 2.361241,-1.0494403 2.361241,-2.76352608 0,-1.8015392 -0.874534,-2.8334888 -2.378732,-2.8334888 z m 0.01749,0.7695895 c 0.927006,0 1.486707,0.7695896 1.486707,2.0638993 0,1.224347 -0.577192,1.99393653 -1.486707,1.99393653 -0.927006,0 -1.504198,-0.76958953 -1.504198,-2.02891793 0,-1.2593283 0.577192,-2.0289179 1.504198,-2.0289179 z m 3.511252,-0.6296642 v 5.22971085 h 0.839553 V -2.8874949 c 0,-1.0669309 0.559701,-1.7665578 1.416744,-1.7665578 0.647155,0 1.066931,0.4022854 1.066931,1.0319496 v 3.62056905 H 33.31735 V -3.9544258 c 0,-0.8570429 -0.647155,-1.4167444 -1.661614,-1.4167444 -0.769589,0 -1.276819,0.2973414 -1.731576,1.0144589 v -0.8745336 z m 5.360891,-1.8365205 v 1.1019123 l 0.26236,1.3467817 h 0.384795 l 0.279851,-1.3467817 v -1.1019123 z m 1.591651,0 v 1.1019123 l 0.26236,1.3467817 h 0.384795 l 0.279851,-1.3467817 v -1.1019123 z m 0,0"
       style="fill:#000000;fill-opacity:1;fill-rule:nonzero;stroke:none"
       aria-label="&quot;person&quot;"
       transform="matrix(0.89333333,0,0,0.89333333,368.92791,133.72403)" />
    <path
       id="path66"
       d="m -21.25993,82.20583 h 62.36298 v 36.85083 h -62.36298 z"
       style="fill:#f4f2f1;fill-opacity:1;fill-rule:nonzero;stroke:#8f7874;stroke-width:0.99628;stroke-linecap:butt;stroke-linejoin:round;stroke-miterlimit:10;stroke-dasharray:none;stroke-opacity:1"
       transform="matrix(0.89333333,0,0,-0.89333333,59.953387,107.43323)" />
    <path
       id="path67"
       d="m -28.34663,75.11913 h 62.36298 v 36.85083 h -62.36298 z"
       style="fill:#f4f2f1;fill-opacity:1;fill-rule:nonzero;stroke:#8f7874;stroke-width:0.99628;stroke-linecap:butt;stroke-linejoin:round;stroke-miterlimit:10;stroke-dasharray:none;stroke-opacity:1"
       transform="matrix(0.89333333,0,0,-0.89333333,59.953387,107.43323)" />
    <path
       id="path68"
       d="m -35.43333,68.03242 h 62.36298 v 36.85083 h -62.36298 z"
       style="fill:#f4f2f1;fill-opacity:1;fill-rule:nonzero;stroke:#8f7874;stroke-width:0.99628;stroke-linecap:butt;stroke-linejoin:round;stroke-miterlimit:10;stroke-dasharray:none;stroke-opacity:1"
       transform="matrix(0.89333333,0,0,-0.89333333,59.953387,107.43323)" />
    <path
       id="path69"
       d="M -42.52005,60.94571 H 19.84293 V 97.79654 H -42.52005 Z"
       style="fill:#f4f2f1;fill-opacity:1;fill-rule:nonzero;stroke:#8f7874;stroke-width:0.99628;stroke-linecap:butt;stroke-linejoin:round;stroke-miterlimit:10;stroke-dasharray:none;stroke-opacity:1"
       transform="matrix(0.89333333,0,0,-0.89333333,59.953387,107.43323)" />
    <path
       id="path70"
       d="M -49.60674,53.85902 H 12.75624 V 90.70985 H -49.60674 Z"
       style="fill:#f4f2f1;fill-opacity:1;fill-rule:nonzero;stroke:#8f7874;stroke-width:0.99628;stroke-linecap:butt;stroke-linejoin:round;stroke-miterlimit:10;stroke-dasharray:none;stroke-opacity:1"
       transform="matrix(0.89333333,0,0,-0.89333333,59.953387,107.43323)" />
    <path
       id="path71"
       d="M -56.69345,46.77231 H 5.66953 v 36.85083 h -62.36298 z"
       style="fill:#f4f2f1;fill-opacity:1;fill-rule:nonzero;stroke:#8f7874;stroke-width:0.99628;stroke-linecap:butt;stroke-linejoin:round;stroke-miterlimit:10;stroke-dasharray:none;stroke-opacity:1"
       transform="matrix(0.89333333,0,0,-0.89333333,59.953387,107.43323)" />
    <path
       id="path72"
       d="M -63.78015,39.68561 H -1.41717 V 76.53644 H -63.78015 Z"
       style="fill:#fffeed;fill-opacity:1;fill-rule:nonzero;stroke:#8f7874;stroke-width:0.99628;stroke-linecap:butt;stroke-linejoin:round;stroke-miterlimit:10;stroke-dasharray:none;stroke-opacity:1"
       transform="matrix(0.89333333,0,0,-0.89333333,59.953387,107.43323)" />
    <path
       id="path73"
       d="M 3.8300681,-6.0149967 H 5.96393 V -7.2743251 H 0.13953638 v 1.2593284 H 2.343361 v 6.01679101 h 1.4867071 z m 2.0901353,0.6296641 V 0.00179431 H 7.3194571 V -2.8666758 c 0,-0.8045709 0.4022854,-1.2243471 1.224347,-1.2243471 0.1399254,0 0.2448694,0.017491 0.4372668,0.052472 v -1.4167444 c -0.087453,-0.017491 -0.1399254,-0.017491 -0.1749067,-0.017491 -0.6296642,0 -1.1893657,0.4197761 -1.4867071,1.1543843 v -1.066931 z m 8.4742306,5.21222019 c -0.26236,-0.22737873 -0.332323,-0.3673041 -0.332323,-0.64715485 V -3.8111721 c 0,-1.1019123 -0.734608,-1.6616138 -2.203825,-1.6616138 -1.451725,0 -2.2038242,0.6121735 -2.2912776,1.8715019 H 10.91379 c 0.06996,-0.5597015 0.297342,-0.7520989 0.979478,-0.7520989 0.542211,0 0.804571,0.1923974 0.804571,0.5422108 0,0.1923974 -0.08745,0.3498134 -0.227379,0.4197761 -0.192398,0.104944 -0.192398,0.104944 -0.874534,0.2098881 l -0.559701,0.104944 c -1.0669312,0.1749067 -1.5916513,0.7171175 -1.5916513,1.6965952 0,0.45475741 0.1224347,0.83955219 0.3847948,1.10191226 0.2973415,0.31483209 0.7695895,0.50722948 1.2418375,0.50722948 0.612174,0 1.154384,-0.26236007 1.644123,-0.76958955 0,0.27985075 0.03498,0.38479477 0.157416,0.54221082 h 1.521689 z M 12.697839,-2.167049 c 0,0.8045709 -0.384795,1.27681906 -1.101913,1.27681906 -0.472248,0 -0.752099,-0.26236006 -0.752099,-0.64715486 0,-0.4197761 0.209888,-0.6296642 0.787081,-0.7520989 l 0.489738,-0.087453 c 0.367305,-0.069963 0.419777,-0.087453 0.577193,-0.1574161 z m 4.070953,-3.2182836 h -1.399253 v 5.38712691 h 1.399253 z m 0,-1.8889925 h -1.399253 v 1.2593284 h 1.399253 z m 1.333664,1.8889925 V 0.00179431 H 19.50171 V -3.2339799 c 0,-0.6296642 0.437267,-1.0494403 1.119403,-1.0494403 0.594683,0 0.892024,0.3323227 0.892024,0.9619869 v 3.32322761 h 1.399254 V -3.601284 c 0,-1.1893657 -0.647155,-1.8715019 -1.801539,-1.8715019 -0.734609,0 -1.206857,0.2623601 -1.609142,0.8745336 v -0.7870803 z m 7.520989,0 h -1.399254 v 5.38712691 h 1.399254 z m 0,-1.8889925 h -1.399254 v 1.2593284 h 1.399254 z m 1.338036,1.8889925 v 5.38712691 h 1.399254 V -3.2339799 c 0,-0.6296642 0.437267,-1.0494403 1.119403,-1.0494403 0.594683,0 0.892024,0.3323227 0.892024,0.9619869 v 3.32322761 h 1.399254 V -3.601284 c 0,-1.1893657 -0.647155,-1.8715019 -1.801539,-1.8715019 -0.734608,0 -1.206856,0.2623601 -1.609142,0.8745336 v -0.7870803 z m 9.532416,0 v 0.8395523 c -0.419776,-0.6471549 -0.892024,-0.9270056 -1.504197,-0.9270056 -1.276819,0 -2.238806,1.2418377 -2.238806,2.9209422 0,1.66161376 0.892024,2.78101674 2.203824,2.78101674 0.629664,0 1.014459,-0.19239739 1.539179,-0.76958955 v 0.71711754 c 0,0.64715485 -0.489738,1.10191227 -1.189365,1.10191227 -0.52472,0 -0.874534,-0.2273787 -0.996969,-0.62966414 h -1.434235 c 0,0.41977614 0.157416,0.71711754 0.524721,1.01445894 0.419776,0.3498134 1.031949,0.5072295 1.854011,0.5072295 1.626632,0 2.553638,-0.7171175 2.553638,-1.99393657 V -5.3853326 Z m -1.206856,1.0844217 c 0.699627,0 1.224347,0.7171175 1.224347,1.7140858 0,0.9794776 -0.507229,1.64412314 -1.241838,1.64412314 -0.664645,0 -1.119403,-0.66464554 -1.119403,-1.64412314 0,-1.0144589 0.454758,-1.7140858 1.136894,-1.7140858 z m 0,0"
       style="fill:#000000;fill-opacity:1;fill-rule:nonzero;stroke:none"
       aria-label="Training"
       transform="matrix(0.89333333,0,0,0.89333333,13.63316,84.596053)" />
    <path
       id="path74"
       d="M 10.78676,42.38924 46.90344,78.50592"
       style="fill:none;stroke:#808080;stroke-width:0.74721;stroke-linecap:butt;stroke-linejoin:round;stroke-miterlimit:10;stroke-dasharray:none;stroke-opacity:1"
       transform="matrix(0.89333333,0,0,-0.89333333,59.953387,107.43323)" />
    <path
       id="path75"
       d="M 4.52798,0 C 3.18633,0.25154 1.00621,1.00621 -0.5031,1.88664 V -1.88664 C 1.00621,-1.00621 3.18633,-0.25154 4.52798,0"
       style="fill:#808080;fill-opacity:1;fill-rule:nonzero;stroke:none"
       transform="matrix(-0.631676,0.631676,0.631676,0.631676,69.589568,69.565497)" />
    <path
       id="path76"
       d="M 4.52798,0 C 3.18633,0.25154 1.00621,1.00621 -0.5031,1.88664 V -1.88664 C 1.00621,-1.00621 3.18633,-0.25154 4.52798,0"
       style="fill:#808080;fill-opacity:1;fill-rule:nonzero;stroke:none"
       transform="matrix(0.631676,-0.631676,-0.631676,-0.631676,101.85378,37.301289)" />
    <path
       id="path77"
       d="M 1.7335,-7.2740961 H 0.8064944 V 0.00202332 H 5.3190877 V -0.82003825 H 1.7335 Z m 9.138876,6.78638061 c -0.08745,0.0174907 -0.122435,0.0174907 -0.174907,0.0174907 -0.297341,0 -0.454757,-0.13992538 -0.454757,-0.40228545 V -3.9508685 c 0,-0.9270056 -0.6821364,-1.4167444 -1.9589555,-1.4167444 -0.7695895,0 -1.381763,0.2098881 -1.7315765,0.6121735 -0.2448694,0.2623601 -0.3498134,0.5597015 -0.3673041,1.0844217 h 0.8395523 c 0.069963,-0.6471549 0.4547574,-0.9270056 1.224347,-0.9270056 0.7520989,0 1.171875,0.2798507 1.171875,0.7695895 v 0.2273788 c 0,0.3498134 -0.2098881,0.4897388 -0.8745336,0.5771921 -1.171875,0.1399254 -1.3467817,0.1923974 -1.6791045,0.3148321 -0.5946828,0.2448694 -0.9095149,0.7171176 -0.9095149,1.3992537 0,0.94449632 0.6646455,1.53917915 1.7140858,1.53917915 0.6646455,0 1.1893657,-0.22737873 1.7665579,-0.76958955 0.069963,0.52472015 0.3323227,0.76958955 0.8570431,0.76958955 0.174906,0 0.314832,-0.0174907 0.577192,-0.0874534 z M 9.4206502,-1.6420998 c 0,0.2798507 -0.087453,0.4547574 -0.3323228,0.68213618 -0.3323227,0.29734142 -0.7520989,0.45475746 -1.2418377,0.45475746 -0.6471548,0 -1.0144589,-0.29734141 -1.0144589,-0.82206154 0,-0.5597015 0.3673041,-0.8395523 1.2418377,-0.961987 0.8920242,-0.1224347 1.0669309,-0.157416 1.3467817,-0.2973414 z M 11.760028,-5.2276875 V 0.00202332 H 12.59958 V -2.7090308 c 0,-0.7520989 0.192397,-1.2418377 0.594683,-1.5216884 0.26236,-0.1923974 0.507229,-0.2623601 1.084421,-0.2623601 v -0.8570429 c -0.139925,-0.017491 -0.209888,-0.017491 -0.314832,-0.017491 -0.542211,0 -0.944496,0.3148321 -1.434235,1.0844217 v -0.9444963 z m 6.747026,0 v 0.7695896 c -0.419776,-0.6296642 -0.927005,-0.909515 -1.591651,-0.909515 -1.329291,0 -2.221315,1.1543844 -2.221315,2.8509795 0,0.8570429 0.227378,1.55666978 0.647155,2.04640859 0.384794,0.43726679 0.944496,0.69962686 1.504197,0.69962686 0.647155,0 1.101913,-0.27985074 1.574161,-0.92700559 v 0.26236007 c 0,0.69962687 -0.08745,1.13689366 -0.297342,1.4167444 -0.209888,0.31483207 -0.647155,0.48973877 -1.154384,0.48973877 -0.384795,0 -0.717118,-0.087453 -0.944496,-0.2798507 -0.192398,-0.1399254 -0.26236,-0.27985075 -0.314832,-0.59468284 h -0.857043 c 0.08745,0.99696824 0.857043,1.57416044 2.08139,1.57416044 0.78708,0 1.451725,-0.2448694 1.784048,-0.6646455 0.402286,-0.4722482 0.559702,-1.13689367 0.559702,-2.36124069 V -5.2276875 Z m -1.504198,0.6296642 c 0.892025,0 1.416745,0.7520989 1.416745,2.0638992 0,1.2418377 -0.52472,1.9939366 -1.416745,1.9939366 -0.909515,0 -1.451725,-0.7695896 -1.451725,-2.0289179 0,-1.2593284 0.559701,-2.0289179 1.451725,-2.0289179 z m 8.041337,2.2737873 c 0,-0.8045709 -0.05247,-1.276819 -0.209888,-1.6791045 -0.332323,-0.8570429 -1.136894,-1.3642724 -2.098881,-1.3642724 -1.469216,0 -2.396222,1.119403 -2.396222,2.8334888 0,1.71408585 0.909515,2.76352615 2.361241,2.76352615 1.206856,0 2.028918,-0.68213619 2.238806,-1.81902985 h -0.839553 c -0.227378,0.69962687 -0.699627,1.0494403 -1.364272,1.0494403 -0.52472,0 -0.979478,-0.22737873 -1.259328,-0.6821362 -0.192398,-0.2973414 -0.26236,-0.5946828 -0.279851,-1.1019123 z m -3.812967,-0.6821362 c 0.06996,-0.9619869 0.647155,-1.5916511 1.486707,-1.5916511 0.822062,0 1.451726,0.6646455 1.451726,1.5216884 0,0.034981 0,0.052472 -0.01749,0.069963 z m 7.547225,-4.2677239 V 0.00202332 H 29.53055 V -0.6626222 c 0.384795,0.61217351 0.927006,0.89202425 1.644123,0.89202425 1.381763,0 2.273787,-1.11940298 2.273787,-2.85097945 0,-1.6965952 -0.857043,-2.7460355 -2.238806,-2.7460355 -0.717117,0 -1.224347,0.2623601 -1.609141,0.8570429 v -2.7635261 z m 2.273787,2.6760728 c 0.927006,0 1.539179,0.8045709 1.539179,2.0638992 0,1.171875 -0.629664,1.9939366 -1.539179,1.9939366 -0.874533,0 -1.451725,-0.8045709 -1.451725,-2.0289179 0,-1.224347 0.577192,-2.0289179 1.451725,-2.0289179 z m 8.054455,4.11030781 c -0.08745,0.0174907 -0.122435,0.0174907 -0.174907,0.0174907 -0.297342,0 -0.454758,-0.13992538 -0.454758,-0.40228545 V -3.9508685 c 0,-0.9270056 -0.682136,-1.4167444 -1.958955,-1.4167444 -0.769589,0 -1.381763,0.2098881 -1.731576,0.6121735 -0.24487,0.2623601 -0.349814,0.5597015 -0.367304,1.0844217 h 0.839552 c 0.06996,-0.6471549 0.454757,-0.9270056 1.224347,-0.9270056 0.752099,0 1.171875,0.2798507 1.171875,0.7695895 v 0.2273788 c 0,0.3498134 -0.209888,0.4897388 -0.874534,0.5771921 -1.171875,0.1399254 -1.346781,0.1923974 -1.679104,0.3148321 -0.594683,0.2448694 -0.909515,0.7171176 -0.909515,1.3992537 0,0.94449632 0.664645,1.53917915 1.714086,1.53917915 0.664645,0 1.189365,-0.22737873 1.766558,-0.76958955 0.06996,0.52472015 0.332322,0.76958955 0.857042,0.76958955 0.174907,0 0.314833,-0.0174907 0.577193,-0.0874534 z M 37.654967,-1.6420998 c 0,0.2798507 -0.08745,0.4547574 -0.332323,0.68213618 -0.332323,0.29734142 -0.752099,0.45475746 -1.241838,0.45475746 -0.647154,0 -1.014459,-0.29734141 -1.014459,-0.82206154 0,-0.5597015 0.367305,-0.8395523 1.241838,-0.961987 0.892024,-0.1224347 1.066931,-0.157416 1.346782,-0.2973414 z m 4.193388,-3.5855877 H 40.991312 V -6.6619226 H 40.15176 v 1.4342351 h -0.699627 v 0.6821362 h 0.699627 v 3.95289179 c 0,0.52472014 0.367304,0.82206156 1.014459,0.82206156 0.192398,0 0.402286,-0.0174907 0.682136,-0.0699627 V -0.5401875 c -0.104944,0.0349813 -0.244869,0.0349813 -0.402285,0.0349813 -0.367304,0 -0.454758,-0.0874533 -0.454758,-0.45475746 V -4.5455513 h 0.857043 z m 4.919252,1.7665578 c -0.03498,-0.5072294 -0.139926,-0.8395522 -0.332323,-1.1368936 -0.367304,-0.4897388 -0.996968,-0.7695896 -1.731576,-0.7695896 -1.399254,0 -2.308769,1.119403 -2.308769,2.8509795 0,1.67910448 0.892024,2.74603545 2.308769,2.74603545 1.241837,0 2.028917,-0.75209888 2.133861,-2.02891795 h -0.839552 c -0.139925,0.83955228 -0.559701,1.2593284 -1.276819,1.2593284 -0.909515,0 -1.469216,-0.7520989 -1.469216,-1.9764459 0,-1.3118004 0.542211,-2.0813899 1.451726,-2.0813899 0.699626,0 1.136893,0.4022854 1.241837,1.1368936 z m 0.996968,-3.8129664 v 7.27611942 h 0.822062 V -2.8839375 c 0,-1.066931 0.559701,-1.7665578 1.416744,-1.7665578 0.279851,0 0.542211,0.104944 0.734608,0.2448694 0.24487,0.1749067 0.349814,0.4197761 0.349814,0.7870802 v 3.62056902 h 0.822061 V -3.9508685 c 0,-0.8745336 -0.629664,-1.4167444 -1.644123,-1.4167444 -0.734608,0 -1.189366,0.2273788 -1.679104,0.8570429 v -2.7635261 z m 0,0"
       style="fill:#000000;fill-opacity:1;fill-rule:nonzero;stroke:none"
       aria-label="Largebatch"
       transform="matrix(0.89333333,0,0,0.89333333,94.763907,60.55288)" />
    <path
       id="path78"
       d="m -32.59865,48.75645 1.36069,1.95605 -0.59535,3.4866 0.34024,0.76547 -1.10558,0.76535 -1.10556,-0.76535 0.34024,-0.76547 -0.59535,-3.4866 z"
       style="fill:#008f45;fill-opacity:1;fill-rule:nonzero;stroke:#008f45;stroke-width:0.3985;stroke-linecap:butt;stroke-linejoin:round;stroke-miterlimit:10;stroke-dasharray:none;stroke-opacity:1"
       transform="matrix(0.89333333,0,0,-0.89333333,59.953387,107.43323)" />
    <path
       id="path79"
       d="m -26.30556,66.18994 c 0.60066,0.21861 1.13146,-0.64609 1.02046,-1.27559 -0.2929,-0.80475 -1.04426,-1.70387 -1.78591,-1.27568 0.35549,0.97675 0.58509,1.52777 0.76559,2.55145 z"
       style="fill:#000000;fill-opacity:1;fill-rule:nonzero;stroke:#000000;stroke-width:0.3985;stroke-linecap:butt;stroke-linejoin:round;stroke-miterlimit:10;stroke-dasharray:none;stroke-opacity:1"
       transform="matrix(0.89333333,0,0,-0.89333333,59.953387,107.43323)" />
    <path
       id="path80"
       d="m -39.06172,66.27505 c -0.60222,0.10619 -0.97463,-0.78605 -0.76548,-1.3607 0.28441,-0.78138 0.88202,-1.42007 1.70093,-1.27568 -0.37344,1.02605 -0.56213,1.61051 -0.93559,2.63657 z"
       style="fill:#000000;fill-opacity:1;fill-rule:nonzero;stroke:#000000;stroke-width:0.3985;stroke-linecap:butt;stroke-linejoin:round;stroke-miterlimit:10;stroke-dasharray:none;stroke-opacity:1"
       transform="matrix(0.89333333,0,0,-0.89333333,59.953387,107.43323)" />
    <path
       id="path81"
       d="m -32.59865,58.11104 c -3.67142,0 -4.86725,3.6934 -6.12297,7.14343 -0.96013,2.63789 -1.40385,6.571 1.3607,7.05844 1.41199,3.87937 9.13303,3.11403 10.54502,-0.76533 1.8873,-1.58365 0.76805,-3.86679 0.34024,-6.29311 -1.25574,-3.45003 -2.45157,-7.14343 -6.12299,-7.14343 z"
       style="fill:#000000;fill-opacity:1;fill-rule:nonzero;stroke:none"
       transform="matrix(0.89333333,0,0,-0.89333333,59.953387,107.43323)" />
    <path
       id="path82"
       d="m -32.59865,59.0465 c -2.50535,0.2192 -3.64699,2.22886 -4.50717,4.59217 -0.65418,1.79732 -0.84703,2.94203 -0.68033,4.8474 0.14734,0.83573 0.44872,1.2608 0.93545,1.95592 3.12853,-1.13871 5.77691,-1.73951 8.50411,0.17013 1.19571,-1.42497 1.01259,-2.8242 0.85047,-4.67731 -0.58193,-3.30038 -1.7533,-6.77134 -5.10253,-6.8883 z"
       style="fill:#ffffff;fill-opacity:1;fill-rule:nonzero;stroke:none"
       transform="matrix(0.89333333,0,0,-0.89333333,59.953387,107.43323)" />
    <path
       id="path83"
       d="m -36.8507,70.44199 c 2.16958,-2.16957 4.68993,-2.49492 7.65365,-1.70079 0.23758,-0.08648 -0.0061,0.63925 -0.25511,0.59535 -2.58521,-0.45583 -4.86071,-0.5652 -6.54808,1.44568 z"
       style="fill:#000000;fill-opacity:1;fill-rule:nonzero;stroke:#000000;stroke-width:0.3985;stroke-linecap:butt;stroke-linejoin:round;stroke-miterlimit:10;stroke-dasharray:none;stroke-opacity:1"
       transform="matrix(0.89333333,0,0,-0.89333333,59.953387,107.43323)" />
    <path
       id="path84"
       d="m -37.87114,56.41025 c 1.34786,1.60631 1.73764,3.30205 1.02044,5.2725"
       style="fill:none;stroke:#000000;stroke-width:1.24535;stroke-linecap:butt;stroke-linejoin:round;stroke-miterlimit:10;stroke-dasharray:none;stroke-opacity:1"
       transform="matrix(0.89333333,0,0,-0.89333333,59.953387,107.43323)" />
    <path
       id="path85"
       d="m -27.32614,56.41025 c -1.34787,1.60631 -1.73764,3.30205 -1.02045,5.2725"
       style="fill:none;stroke:#000000;stroke-width:1.24535;stroke-linecap:butt;stroke-linejoin:round;stroke-miterlimit:10;stroke-dasharray:none;stroke-opacity:1"
       transform="matrix(0.89333333,0,0,-0.89333333,59.953387,107.43323)" />
    <path
       id="path86"
       d="m -32.59865,49.60692 c -2.83383,1.63611 -2.96274,4.23866 -4.08192,7.31357 -2.6697,-0.9717 -4.97716,-0.37496 -6.80335,-2.55127 -2.24108,-3.8817 -1.51783,-6.81124 -2.29614,-11.22539 h 26.36284 c -0.77831,4.41415 -0.05507,7.34369 -2.29616,11.22539 -1.80333,2.14908 -4.08192,1.59172 -6.7182,2.55127 -1.38916,-2.97904 -1.32045,-5.67025 -4.16707,-7.31375 z"
       style="fill:#7e317b;fill-opacity:1;fill-rule:nonzero;stroke:#7e317b;stroke-width:0.3985;stroke-linecap:butt;stroke-linejoin:round;stroke-miterlimit:10;stroke-dasharray:none;stroke-opacity:1"
       transform="matrix(0.89333333,0,0,-0.89333333,59.953387,107.43323)" />
    <path
       id="path87"
       d="m -25.79533,56.32513 c 0.10829,-1.42741 0.07016,-2.24551 -0.17011,-3.65672 2.41275,-0.4254 2.12621,-3.62524 1.70079,-6.03799 -0.40967,-1.12557 -1.17369,-2.72492 -2.21101,-2.12602"
       style="fill:none;stroke:#7e317b;stroke-width:1.99255;stroke-linecap:butt;stroke-linejoin:round;stroke-miterlimit:10;stroke-dasharray:none;stroke-opacity:1"
       transform="matrix(0.89333333,0,0,-0.89333333,59.953387,107.43323)" />
    <path
       id="path88"
       d="m -28.94194,45.09975 c -1.33281,0 -1.77185,2.07735 -1.10546,3.23161 1.16222,2.01302 1.79284,4.74069 4.08196,4.33705"
       style="fill:none;stroke:#7e317b;stroke-width:1.99255;stroke-linecap:butt;stroke-linejoin:round;stroke-miterlimit:10;stroke-dasharray:none;stroke-opacity:1"
       transform="matrix(0.89333333,0,0,-0.89333333,59.953387,107.43323)" />
    <path
       id="path89"
       d="m -38.97673,56.32513 c -1.09549,-3.98007 -0.8687,-6.79197 0.85046,-10.54504"
       style="fill:none;stroke:#7e317b;stroke-width:1.99255;stroke-linecap:butt;stroke-linejoin:round;stroke-miterlimit:10;stroke-dasharray:none;stroke-opacity:1"
       transform="matrix(0.89333333,0,0,-0.89333333,59.953387,107.43323)" />
    <path
       id="path90"
       d="m -36.71736,45.78009 c 0,0.77812 -0.63078,1.40891 -1.40891,1.40891 -0.7781,0 -1.4089,-0.63079 -1.4089,-1.40891 0,-0.77811 0.6308,-1.4089 1.4089,-1.4089 0.77813,0 1.40891,0.63079 1.40891,1.4089 z"
       style="fill:#7e317b;fill-opacity:1;fill-rule:nonzero;stroke:none"
       transform="matrix(0.89333333,0,0,-0.89333333,59.953387,107.43323)" />
    <path
       id="path91"
       d="m -29.37209,66.10493 c 0,0.46691 -0.37851,0.84543 -0.84542,0.84543 -0.46692,0 -0.84543,-0.37852 -0.84543,-0.84543 0,-0.46691 0.37851,-0.84543 0.84543,-0.84543 0.46691,0 0.84542,0.37852 0.84542,0.84543 z"
       style="fill:#000000;fill-opacity:1;fill-rule:nonzero;stroke:none"
       transform="matrix(0.89333333,0,0,-0.89333333,59.953387,107.43323)" />
    <path
       id="path92"
       d="m -34.13435,66.10493 c 0,0.46691 -0.37851,0.84543 -0.84543,0.84543 -0.46691,0 -0.84542,-0.37852 -0.84542,-0.84543 0,-0.46691 0.37851,-0.84543 0.84542,-0.84543 0.46692,0 0.84543,0.37852 0.84543,0.84543 z"
       style="fill:#000000;fill-opacity:1;fill-rule:nonzero;stroke:none"
       transform="matrix(0.89333333,0,0,-0.89333333,59.953387,107.43323)" />
    <path
       id="path93"
       d="m -34.72467,62.3631 c 1.06586,1.27022 3.1862,1.27022 4.25206,0"
       style="fill:none;stroke:#000000;stroke-width:0.99628;stroke-linecap:butt;stroke-linejoin:round;stroke-miterlimit:10;stroke-dasharray:none;stroke-opacity:1"
       transform="matrix(0.89333333,0,0,-0.89333333,59.953387,107.43323)" />
    <path
       id="path94"
       d="m 177.59299,113.38722 c 0,3.52252 -2.8555,6.37802 -6.37802,6.37802 -3.52253,0 -6.37803,-2.8555 -6.37803,-6.37802 0,-3.52253 2.8555,-6.37802 6.37803,-6.37802 3.52252,0 6.37802,2.85549 6.37802,6.37802 z"
       style="fill:#fbeeed;fill-opacity:1;fill-rule:nonzero;stroke:#d9534f;stroke-width:0.99628;stroke-linecap:butt;stroke-linejoin:round;stroke-miterlimit:10;stroke-dasharray:none;stroke-opacity:1"
       transform="matrix(0.89333333,0,0,-0.89333333,59.953387,107.43323)" />
    <path
       id="path95"
       d="m 177.59299,96.37895 c 0,3.52252 -2.8555,6.37802 -6.37802,6.37802 -3.52253,0 -6.37803,-2.8555 -6.37803,-6.37802 0,-3.52252 2.8555,-6.37802 6.37803,-6.37802 3.52252,0 6.37802,2.8555 6.37802,6.37802 z"
       style="fill:#fbeeed;fill-opacity:1;fill-rule:nonzero;stroke:#d9534f;stroke-width:0.99628;stroke-linecap:butt;stroke-linejoin:round;stroke-miterlimit:10;stroke-dasharray:none;stroke-opacity:1"
       transform="matrix(0.89333333,0,0,-0.89333333,59.953387,107.43323)" />
    <path
       id="path96"
       d="m 177.59299,79.3707 c 0,3.52252 -2.8555,6.37802 -6.37802,6.37802 -3.52253,0 -6.37803,-2.8555 -6.37803,-6.37802 0,-3.52254 2.8555,-6.37802 6.37803,-6.37802 3.52252,0 6.37802,2.85548 6.37802,6.37802 z"
       style="fill:#fbeeed;fill-opacity:1;fill-rule:nonzero;stroke:#d9534f;stroke-width:0.99628;stroke-linecap:butt;stroke-linejoin:round;stroke-miterlimit:10;stroke-dasharray:none;stroke-opacity:1"
       transform="matrix(0.89333333,0,0,-0.89333333,59.953387,107.43323)" />
    <path
       id="path97"
       d="m 177.59299,62.36246 c 0,3.52252 -2.8555,6.37802 -6.37802,6.37802 -3.52253,0 -6.37803,-2.8555 -6.37803,-6.37802 0,-3.52252 2.8555,-6.37802 6.37803,-6.37802 3.52252,0 6.37802,2.8555 6.37802,6.37802 z"
       style="fill:#fbeeed;fill-opacity:1;fill-rule:nonzero;stroke:#d9534f;stroke-width:0.99628;stroke-linecap:butt;stroke-linejoin:round;stroke-miterlimit:10;stroke-dasharray:none;stroke-opacity:1"
       transform="matrix(0.89333333,0,0,-0.89333333,59.953387,107.43323)" />
    <path
       id="path98"
       d="m 177.59299,45.3542 c 0,3.52252 -2.8555,6.37802 -6.37802,6.37802 -3.52253,0 -6.37803,-2.8555 -6.37803,-6.37802 0,-3.52253 2.8555,-6.37802 6.37803,-6.37802 3.52252,0 6.37802,2.85549 6.37802,6.37802 z"
       style="fill:#fbeeed;fill-opacity:1;fill-rule:nonzero;stroke:#d9534f;stroke-width:0.99628;stroke-linecap:butt;stroke-linejoin:round;stroke-miterlimit:10;stroke-dasharray:none;stroke-opacity:1"
       transform="matrix(0.89333333,0,0,-0.89333333,59.953387,107.43323)" />
    <path
       id="path99"
       d="m 220.11319,96.37895 c 0,3.52252 -2.85549,6.37802 -6.37802,6.37802 -3.52252,0 -6.37802,-2.8555 -6.37802,-6.37802 0,-3.52252 2.8555,-6.37802 6.37802,-6.37802 3.52253,0 6.37802,2.8555 6.37802,6.37802 z"
       style="fill:#fbeeed;fill-opacity:1;fill-rule:nonzero;stroke:#d9534f;stroke-width:0.99628;stroke-linecap:butt;stroke-linejoin:round;stroke-miterlimit:10;stroke-dasharray:none;stroke-opacity:1"
       transform="matrix(0.89333333,0,0,-0.89333333,59.953387,107.43323)" />
    <path
       id="path100"
       d="m 220.11319,79.3707 c 0,3.52252 -2.85549,6.37802 -6.37802,6.37802 -3.52252,0 -6.37802,-2.8555 -6.37802,-6.37802 0,-3.52254 2.8555,-6.37802 6.37802,-6.37802 3.52253,0 6.37802,2.85548 6.37802,6.37802 z"
       style="fill:#fbeeed;fill-opacity:1;fill-rule:nonzero;stroke:#d9534f;stroke-width:0.99628;stroke-linecap:butt;stroke-linejoin:round;stroke-miterlimit:10;stroke-dasharray:none;stroke-opacity:1"
       transform="matrix(0.89333333,0,0,-0.89333333,59.953387,107.43323)" />
    <path
       id="path101"
       d="m 220.11319,62.36246 c 0,3.52252 -2.85549,6.37802 -6.37802,6.37802 -3.52252,0 -6.37802,-2.8555 -6.37802,-6.37802 0,-3.52252 2.8555,-6.37802 6.37802,-6.37802 3.52253,0 6.37802,2.8555 6.37802,6.37802 z"
       style="fill:#fbeeed;fill-opacity:1;fill-rule:nonzero;stroke:#d9534f;stroke-width:0.99628;stroke-linecap:butt;stroke-linejoin:round;stroke-miterlimit:10;stroke-dasharray:none;stroke-opacity:1"
       transform="matrix(0.89333333,0,0,-0.89333333,59.953387,107.43323)" />
    <path
       id="path102"
       d="m 262.6334,96.37895 c 0,3.52252 -2.85548,6.37802 -6.378,6.37802 -3.52254,0 -6.37802,-2.8555 -6.37802,-6.37802 0,-3.52252 2.85548,-6.37802 6.37802,-6.37802 3.52252,0 6.378,2.8555 6.378,6.37802 z"
       style="fill:#fbeeed;fill-opacity:1;fill-rule:nonzero;stroke:#d9534f;stroke-width:0.99628;stroke-linecap:butt;stroke-linejoin:round;stroke-miterlimit:10;stroke-dasharray:none;stroke-opacity:1"
       transform="matrix(0.89333333,0,0,-0.89333333,59.953387,107.43323)" />
    <path
       id="path103"
       d="m 262.6334,79.3707 c 0,3.52252 -2.85548,6.37802 -6.378,6.37802 -3.52254,0 -6.37802,-2.8555 -6.37802,-6.37802 0,-3.52254 2.85548,-6.37802 6.37802,-6.37802 3.52252,0 6.378,2.85548 6.378,6.37802 z"
       style="fill:#fbeeed;fill-opacity:1;fill-rule:nonzero;stroke:#d9534f;stroke-width:0.99628;stroke-linecap:butt;stroke-linejoin:round;stroke-miterlimit:10;stroke-dasharray:none;stroke-opacity:1"
       transform="matrix(0.89333333,0,0,-0.89333333,59.953387,107.43323)" />
    <path
       id="path104"
       d="m 262.6334,62.36246 c 0,3.52252 -2.85548,6.37802 -6.378,6.37802 -3.52254,0 -6.37802,-2.8555 -6.37802,-6.37802 0,-3.52252 2.85548,-6.37802 6.37802,-6.37802 3.52252,0 6.378,2.8555 6.378,6.37802 z"
       style="fill:#fbeeed;fill-opacity:1;fill-rule:nonzero;stroke:#d9534f;stroke-width:0.99628;stroke-linecap:butt;stroke-linejoin:round;stroke-miterlimit:10;stroke-dasharray:none;stroke-opacity:1"
       transform="matrix(0.89333333,0,0,-0.89333333,59.953387,107.43323)" />
    <path
       id="path105"
       d="M 177.59903,110.83363 207.3511,98.93254"
       style="fill:none;stroke:#808080;stroke-width:0.49814;stroke-linecap:butt;stroke-linejoin:round;stroke-miterlimit:10;stroke-dasharray:none;stroke-opacity:1"
       transform="matrix(0.89333333,0,0,-0.89333333,59.953387,107.43323)" />
    <path
       id="path106"
       d="M 176.58401,109.09193 208.36612,83.66599"
       style="fill:none;stroke:#808080;stroke-width:0.49814;stroke-linecap:butt;stroke-linejoin:round;stroke-miterlimit:10;stroke-dasharray:none;stroke-opacity:1"
       transform="matrix(0.89333333,0,0,-0.89333333,59.953387,107.43323)" />
    <path
       id="path107"
       d="M 175.61674,108.10503 209.33339,67.64465"
       style="fill:none;stroke:#808080;stroke-width:0.49814;stroke-linecap:butt;stroke-linejoin:round;stroke-miterlimit:10;stroke-dasharray:none;stroke-opacity:1"
       transform="matrix(0.89333333,0,0,-0.89333333,59.953387,107.43323)" />
    <path
       id="path108"
       d="m 178.09113,96.37895 h 28.76788"
       style="fill:none;stroke:#808080;stroke-width:0.49814;stroke-linecap:butt;stroke-linejoin:round;stroke-miterlimit:10;stroke-dasharray:none;stroke-opacity:1"
       transform="matrix(0.89333333,0,0,-0.89333333,59.953387,107.43323)" />
    <path
       id="path109"
       d="M 177.59903,93.82538 207.3511,81.92427"
       style="fill:none;stroke:#808080;stroke-width:0.49814;stroke-linecap:butt;stroke-linejoin:round;stroke-miterlimit:10;stroke-dasharray:none;stroke-opacity:1"
       transform="matrix(0.89333333,0,0,-0.89333333,59.953387,107.43323)" />
    <path
       id="path110"
       d="M 176.58401,92.08366 208.36612,66.65775"
       style="fill:none;stroke:#808080;stroke-width:0.49814;stroke-linecap:butt;stroke-linejoin:round;stroke-miterlimit:10;stroke-dasharray:none;stroke-opacity:1"
       transform="matrix(0.89333333,0,0,-0.89333333,59.953387,107.43323)" />
    <path
       id="path111"
       d="M 177.59903,81.92427 207.3511,93.82538"
       style="fill:none;stroke:#808080;stroke-width:0.49814;stroke-linecap:butt;stroke-linejoin:round;stroke-miterlimit:10;stroke-dasharray:none;stroke-opacity:1"
       transform="matrix(0.89333333,0,0,-0.89333333,59.953387,107.43323)" />
    <path
       id="path112"
       d="m 178.09113,79.3707 h 28.76788"
       style="fill:none;stroke:#808080;stroke-width:0.49814;stroke-linecap:butt;stroke-linejoin:round;stroke-miterlimit:10;stroke-dasharray:none;stroke-opacity:1"
       transform="matrix(0.89333333,0,0,-0.89333333,59.953387,107.43323)" />
    <path
       id="path113"
       d="M 177.59903,76.81711 207.3511,64.91605"
       style="fill:none;stroke:#808080;stroke-width:0.49814;stroke-linecap:butt;stroke-linejoin:round;stroke-miterlimit:10;stroke-dasharray:none;stroke-opacity:1"
       transform="matrix(0.89333333,0,0,-0.89333333,59.953387,107.43323)" />
    <path
       id="path114"
       d="m 176.58401,66.65775 31.78211,25.42591"
       style="fill:none;stroke:#808080;stroke-width:0.49814;stroke-linecap:butt;stroke-linejoin:round;stroke-miterlimit:10;stroke-dasharray:none;stroke-opacity:1"
       transform="matrix(0.89333333,0,0,-0.89333333,59.953387,107.43323)" />
    <path
       id="path115"
       d="M 177.59903,64.91605 207.3511,76.81711"
       style="fill:none;stroke:#808080;stroke-width:0.49814;stroke-linecap:butt;stroke-linejoin:round;stroke-miterlimit:10;stroke-dasharray:none;stroke-opacity:1"
       transform="matrix(0.89333333,0,0,-0.89333333,59.953387,107.43323)" />
    <path
       id="path116"
       d="m 178.09113,62.36246 h 28.76788"
       style="fill:none;stroke:#808080;stroke-width:0.49814;stroke-linecap:butt;stroke-linejoin:round;stroke-miterlimit:10;stroke-dasharray:none;stroke-opacity:1"
       transform="matrix(0.89333333,0,0,-0.89333333,59.953387,107.43323)" />
    <path
       id="path117"
       d="m 175.61674,50.63638 33.71665,40.46039"
       style="fill:none;stroke:#808080;stroke-width:0.49814;stroke-linecap:butt;stroke-linejoin:round;stroke-miterlimit:10;stroke-dasharray:none;stroke-opacity:1"
       transform="matrix(0.89333333,0,0,-0.89333333,59.953387,107.43323)" />
    <path
       id="path118"
       d="m 176.58401,49.64949 31.78211,25.42592"
       style="fill:none;stroke:#808080;stroke-width:0.49814;stroke-linecap:butt;stroke-linejoin:round;stroke-miterlimit:10;stroke-dasharray:none;stroke-opacity:1"
       transform="matrix(0.89333333,0,0,-0.89333333,59.953387,107.43323)" />
    <path
       id="path119"
       d="m 177.59903,47.90778 29.75207,11.9011"
       style="fill:none;stroke:#808080;stroke-width:0.49814;stroke-linecap:butt;stroke-linejoin:round;stroke-miterlimit:10;stroke-dasharray:none;stroke-opacity:1"
       transform="matrix(0.89333333,0,0,-0.89333333,59.953387,107.43323)" />
    <path
       id="path120"
       d="m 220.61133,96.37895 h 28.76791"
       style="fill:none;stroke:#808080;stroke-width:0.49814;stroke-linecap:butt;stroke-linejoin:round;stroke-miterlimit:10;stroke-dasharray:none;stroke-opacity:1"
       transform="matrix(0.89333333,0,0,-0.89333333,59.953387,107.43323)" />
    <path
       id="path121"
       d="M 220.11925,93.82538 249.87132,81.92427"
       style="fill:none;stroke:#808080;stroke-width:0.49814;stroke-linecap:butt;stroke-linejoin:round;stroke-miterlimit:10;stroke-dasharray:none;stroke-opacity:1"
       transform="matrix(0.89333333,0,0,-0.89333333,59.953387,107.43323)" />
    <path
       id="path122"
       d="M 219.10422,92.08366 250.88634,66.65775"
       style="fill:none;stroke:#808080;stroke-width:0.49814;stroke-linecap:butt;stroke-linejoin:round;stroke-miterlimit:10;stroke-dasharray:none;stroke-opacity:1"
       transform="matrix(0.89333333,0,0,-0.89333333,59.953387,107.43323)" />
    <path
       id="path123"
       d="m 220.11925,81.92427 29.75207,11.90111"
       style="fill:none;stroke:#808080;stroke-width:0.49814;stroke-linecap:butt;stroke-linejoin:round;stroke-miterlimit:10;stroke-dasharray:none;stroke-opacity:1"
       transform="matrix(0.89333333,0,0,-0.89333333,59.953387,107.43323)" />
    <path
       id="path124"
       d="m 220.61133,79.3707 h 28.76791"
       style="fill:none;stroke:#808080;stroke-width:0.49814;stroke-linecap:butt;stroke-linejoin:round;stroke-miterlimit:10;stroke-dasharray:none;stroke-opacity:1"
       transform="matrix(0.89333333,0,0,-0.89333333,59.953387,107.43323)" />
    <path
       id="path125"
       d="M 220.11925,76.81711 249.87132,64.91605"
       style="fill:none;stroke:#808080;stroke-width:0.49814;stroke-linecap:butt;stroke-linejoin:round;stroke-miterlimit:10;stroke-dasharray:none;stroke-opacity:1"
       transform="matrix(0.89333333,0,0,-0.89333333,59.953387,107.43323)" />
    <path
       id="path126"
       d="m 219.10422,66.65775 31.78212,25.42591"
       style="fill:none;stroke:#808080;stroke-width:0.49814;stroke-linecap:butt;stroke-linejoin:round;stroke-miterlimit:10;stroke-dasharray:none;stroke-opacity:1"
       transform="matrix(0.89333333,0,0,-0.89333333,59.953387,107.43323)" />
    <path
       id="path127"
       d="m 220.11925,64.91605 29.75207,11.90106"
       style="fill:none;stroke:#808080;stroke-width:0.49814;stroke-linecap:butt;stroke-linejoin:round;stroke-miterlimit:10;stroke-dasharray:none;stroke-opacity:1"
       transform="matrix(0.89333333,0,0,-0.89333333,59.953387,107.43323)" />
    <path
       id="path128"
       d="m 220.61133,62.36246 h 28.76791"
       style="fill:none;stroke:#808080;stroke-width:0.49814;stroke-linecap:butt;stroke-linejoin:round;stroke-miterlimit:10;stroke-dasharray:none;stroke-opacity:1"
       transform="matrix(0.89333333,0,0,-0.89333333,59.953387,107.43323)" />
    <path
       id="path129"
       d="M 114.52135,96.37895 H 319.36649"
       style="fill:none;stroke:#dfbf9f;stroke-width:1.94273;stroke-linecap:butt;stroke-linejoin:round;stroke-miterlimit:10;stroke-dasharray:none;stroke-opacity:1"
       transform="matrix(0.89333333,0,0,-0.89333333,59.953387,107.43323)" />
    <path
       id="path130"
       d="M 7.75592,0 C 5.45782,0.43088 1.72353,1.72353 -0.86176,3.23163 V -3.23163 C 1.72353,-1.72353 5.45782,-0.43088 7.75592,0"
       style="fill:#dfbf9f;fill-opacity:1;fill-rule:nonzero;stroke:none"
       transform="matrix(0.89333333,0,0,-0.89333333,345.25412,21.334698)" />
    <path
       id="path131"
       d="M 2.5717617,-5.2309226 H 1.6972281 v -0.8045709 c 0,-0.3498134 0.209888,-0.5422108 0.5946828,-0.5422108 0.069963,0 0.087453,0 0.2798508,0.017491 v -0.6821362 c -0.1923974,-0.052472 -0.2973415,-0.052472 -0.4722482,-0.052472 -0.7695895,0 -1.22434699,0.4372668 -1.22434699,1.1893656 v 0.8745336 H 0.17553965 v 0.6821362 h 0.69962686 v 4.54757465 H 1.6972281 V -4.5487864 h 0.8745336 z m 2.6104827,-0.1399253 c -1.4692164,0 -2.34375,1.0494403 -2.34375,2.7985074 0,1.74906718 0.8745336,2.79850748 2.3612407,2.79850748 1.4517257,0 2.3612406,-1.0494403 2.3612406,-2.76352608 0,-1.8015392 -0.8745335,-2.8334888 -2.3787313,-2.8334888 z m 0.017491,0.7695895 c 0.9270056,0 1.4867071,0.7695896 1.4867071,2.0638993 0,1.224347 -0.5771922,1.99393653 -1.4867071,1.99393653 -0.9270056,0 -1.5041978,-0.76958953 -1.5041978,-2.02891793 0,-1.2593283 0.5771922,-2.0289179 1.5041978,-2.0289179 z M 8.693497,-5.2309226 v 5.22971085 H 9.533049 V -2.7122659 c 0,-0.7520988 0.1923974,-1.2418376 0.594683,-1.5216884 0.26236,-0.1923974 0.507229,-0.2623601 1.084421,-0.2623601 v -0.8570429 c -0.139925,-0.017491 -0.209888,-0.017491 -0.314832,-0.017491 -0.54221,0 -0.9444959,0.314832 -1.4342347,1.0844216 V -5.230923 Z m 8.159398,5.22971085 1.539179,-5.22971085 h -0.944496 l -1.03195,4.0753265 -1.031949,-4.0753265 H 14.36922 l -0.996969,4.0753265 -1.066931,-4.0753265 h -0.927005 l 1.521688,5.22971085 H 13.8445 l 0.996968,-4.09281715 1.066931,4.09281715 z m 6.851971,-0.48973881 c -0.08745,0.0174907 -0.122435,0.0174907 -0.174907,0.0174907 -0.297341,0 -0.454758,-0.13992537 -0.454758,-0.40228545 V -3.9541035 c 0,-0.9270056 -0.682136,-1.4167444 -1.958955,-1.4167444 -0.769589,0 -1.381763,0.209888 -1.731576,0.6121735 -0.24487,0.26236 -0.349814,0.5597015 -0.367304,1.0844216 h 0.839552 c 0.06996,-0.6471548 0.454757,-0.9270056 1.224347,-0.9270056 0.752099,0 1.171875,0.2798508 1.171875,0.7695896 v 0.2273787 c 0,0.3498134 -0.209888,0.4897388 -0.874534,0.5771922 -1.171875,0.1399253 -1.346781,0.1923973 -1.679104,0.314832 -0.594683,0.2448694 -0.909515,0.7171176 -0.909515,1.3992538 0,0.94449624 0.664645,1.53917908 1.714086,1.53917908 0.664645,0 1.189365,-0.22737873 1.766558,-0.76958955 0.06996,0.52472014 0.332322,0.76958955 0.857043,0.76958955 0.174906,0 0.314832,-0.0174907 0.577192,-0.0874534 z M 22.25314,-1.6453349 c 0,0.2798508 -0.08745,0.4547575 -0.332323,0.68213621 -0.332323,0.29734141 -0.752099,0.45475746 -1.241838,0.45475746 -0.647154,0 -1.014458,-0.29734142 -1.014458,-0.82206157 0,-0.5597015 0.367304,-0.8395522 1.241837,-0.9619869 0.892024,-0.1224347 1.066931,-0.1574161 1.346782,-0.2973415 z m 2.339377,-3.5855877 v 5.22971085 h 0.839552 V -2.7122659 c 0,-0.7520988 0.192398,-1.2418376 0.594683,-1.5216884 0.26236,-0.1923974 0.50723,-0.2623601 1.084422,-0.2623601 v -0.8570429 c -0.139925,-0.017491 -0.209888,-0.017491 -0.314832,-0.017491 -0.542211,0 -0.944496,0.314832 -1.434235,1.0844216 V -5.230923 Z m 7.569088,-2.0464086 h -0.822061 v 2.7110541 c -0.349814,-0.5247201 -0.909515,-0.8045708 -1.609142,-0.8045708 -1.346782,0 -2.238806,1.0844216 -2.238806,2.7460354 0,1.76655784 0.857043,2.85097948 2.273787,2.85097948 0.717118,0 1.206857,-0.26236008 1.661614,-0.90951493 v 0.6821362 h 0.734608 z m -2.291278,2.6760728 c 0.892025,0 1.469217,0.8045709 1.469217,2.0464086 0,1.2068563 -0.577192,2.01142723 -1.451726,2.01142723 -0.927006,0 -1.539179,-0.82206153 -1.539179,-2.02891793 0,-1.224347 0.612173,-2.0289179 1.521688,-2.0289179 z m 0,0"
       style="fill:#000000;fill-opacity:1;fill-rule:nonzero;stroke:none"
       aria-label="forward"
       transform="matrix(0.89333333,0,0,0.89333333,319.07365,17.39952)" />
    <path
       id="path132"
       d="m 0.52330084,-7.0656278 v 1.1019123 l 0.26236007,1.3467817 H 1.1704557 l 0.2798507,-1.3467817 v -1.1019123 z m 1.59165116,0 v 1.1019123 l 0.26236,1.3467817 h 0.3847948 l 0.2798508,-1.3467817 v -1.1019123 z m 1.9633279,9.2350746 h 0.8395522 v -2.71105408 c 0.4372668,0.52472015 0.9270056,0.76958956 1.5916511,0.76958956 1.3467817,0 2.238806,-1.08442165 2.238806,-2.74603548 0,-1.7665578 -0.8570429,-2.8509794 -2.238806,-2.8509794 -0.7171175,0 -1.276819,0.314832 -1.6616138,0.9270055 V -5.2291073 H 4.0782799 Z m 2.2912779,-6.7688899 c 0.909515,0 1.5216885,0.8045709 1.5216885,2.0638993 0,1.171875 -0.6121735,1.99393652 -1.5216885,1.99393652 -0.8745335,0 -1.4517257,-0.80457092 -1.4517257,-2.02891792 0,-1.224347 0.5771922,-2.0289179 1.4517257,-2.0289179 z m 7.8139572,2.2737873 c 0,-0.8045709 -0.05247,-1.276819 -0.209888,-1.6791045 -0.332322,-0.8570429 -1.136893,-1.3642723 -2.09888,-1.3642723 -1.469217,0 -2.3962223,1.1194029 -2.3962223,2.8334888 0,1.71408578 0.9095153,2.76352608 2.3612403,2.76352608 1.206857,0 2.028918,-0.6821362 2.238806,-1.81902988 h -0.839552 c -0.227379,0.69962689 -0.699627,1.04944032 -1.364272,1.04944032 -0.52472,0 -0.979478,-0.22737873 -1.259329,-0.68213622 -0.192397,-0.2973414 -0.26236,-0.5946828 -0.27985,-1.1019123 z M 10.370549,-3.007792 c 0.06996,-0.9619869 0.647155,-1.5916511 1.486707,-1.5916511 0.822062,0 1.451726,0.6646455 1.451726,1.5216884 0,0.034981 0,0.052472 -0.01749,0.069963 z m 4.927997,-2.2213153 V 6.0354478e-4 h 0.839552 V -2.7104506 c 0,-0.7520988 0.192397,-1.2418376 0.594683,-1.5216884 0.26236,-0.1923974 0.507229,-0.2623601 1.084421,-0.2623601 V -5.351542 c -0.139925,-0.017491 -0.209888,-0.017491 -0.314832,-0.017491 -0.54221,0 -0.944496,0.314832 -1.434235,1.0844216 v -0.9444963 z m 7.005014,1.4692164 c -0.01749,-1.0319496 -0.699627,-1.6091417 -1.906484,-1.6091417 -1.206856,0 -1.993936,0.6296641 -1.993936,1.5916511 0,0.8220615 0.419776,1.2068563 1.644123,1.5041977 l 0.78708,0.1923974 c 0.577192,0.1399254 0.804571,0.3498135 0.804571,0.7171176 0,0.48973876 -0.489739,0.82206152 -1.206856,0.82206152 -0.454758,0 -0.839552,-0.1224347 -1.04944,-0.34981343 C 19.260183,-1.0313461 19.19022,-1.1887621 19.155239,-1.5560662 h -0.892024 c 0.05247,1.20685631 0.717117,1.78404848 2.09888,1.78404848 1.311801,0 2.151353,-0.64715485 2.151353,-1.66161378 0,-0.7695896 -0.437267,-1.1893657 -1.486707,-1.4517258 L 20.23966,-3.0777547 c -0.682136,-0.157416 -0.979477,-0.3673041 -0.979477,-0.7346082 0,-0.4897388 0.437267,-0.7870802 1.119403,-0.7870802 0.664645,0 1.014459,0.2798507 1.04944,0.8395522 z m 3.323227,-1.6091417 c -1.469216,0 -2.34375,1.0494402 -2.34375,2.7985074 0,1.74906718 0.874534,2.79850748 2.361241,2.79850748 1.451726,0 2.361241,-1.0494403 2.361241,-2.76352608 0,-1.8015392 -0.874534,-2.8334888 -2.378732,-2.8334888 z m 0.01749,0.7695895 c 0.927006,0 1.486707,0.7695896 1.486707,2.0638993 0,1.224347 -0.577192,1.99393652 -1.486707,1.99393652 -0.927006,0 -1.504198,-0.76958952 -1.504198,-2.02891792 0,-1.2593283 0.577192,-2.0289179 1.504198,-2.0289179 z m 3.50688,-0.6296642 V 6.0354478e-4 H 29.99071 V -2.8853573 c 0,-1.0669309 0.559701,-1.7665578 1.416744,-1.7665578 0.647155,0 1.066931,0.4022854 1.066931,1.0319496 V 6.0354478e-4 h 0.839552 V -3.9522882 c 0,-0.857043 -0.647154,-1.4167444 -1.661613,-1.4167444 -0.76959,0 -1.276819,0.2973414 -1.731577,1.0144589 v -0.8745336 z m 5.365263,-1.8365205 v 1.1019123 l 0.26236,1.3467817 h 0.384795 l 0.279851,-1.3467817 v -1.1019123 z m 1.591651,0 v 1.1019123 l 0.26236,1.3467817 h 0.384795 l 0.279851,-1.3467817 v -1.1019123 z m 0,0"
       style="fill:#000000;fill-opacity:1;fill-rule:nonzero;stroke:none"
       aria-label="&quot;person&quot;"
       transform="matrix(0.89333333,0,0,0.89333333,356.01299,23.569773)" />
    <path
       id="path133"
       d="M 122.27727,62.36246 H 327.1224"
       style="fill:none;stroke:#dfbf9f;stroke-width:1.94273;stroke-linecap:butt;stroke-linejoin:round;stroke-miterlimit:10;stroke-dasharray:none;stroke-opacity:1"
       transform="matrix(0.89333333,0,0,-0.89333333,59.953387,107.43323)" />
    <path
       id="path134"
       d="M 7.75592,0 C 5.45782,0.43088 1.72353,1.72353 -0.86176,3.23163 V -3.23163 C 1.72353,-1.72353 5.45782,-0.43088 7.75592,0"
       style="fill:#dfbf9f;fill-opacity:1;fill-rule:nonzero;stroke:none"
       transform="matrix(-0.89333333,0,0,0.89333333,169.18775,51.722762)" />
    <path
       id="path135"
       d="M 0.54291838,-7.2768983 V -7.7891791e-4 H 1.2950173 V -0.66542444 c 0.3847947,0.61217351 0.9270056,0.89202425 1.6441231,0.89202425 1.3817631,0 2.2737873,-1.11940298 2.2737873,-2.85097951 0,-1.6965951 -0.8570429,-2.7460354 -2.238806,-2.7460354 -0.7171175,0 -1.224347,0.2623601 -1.6091418,0.8570429 v -2.7635261 z m 2.27378732,2.6760727 c 0.9270056,0 1.5391791,0.8045709 1.5391791,2.0638993 0,1.171875 -0.6296642,1.99393656 -1.5391791,1.99393656 -0.8745336,0 -1.4517258,-0.80457086 -1.4517258,-2.02891786 0,-1.2243471 0.5771922,-2.028918 1.4517258,-2.028918 z m 8.0588273,4.11030788 c -0.08745,0.0174907 -0.122435,0.0174907 -0.174907,0.0174907 -0.297341,0 -0.454758,-0.13992538 -0.454758,-0.40228545 V -3.9536707 c 0,-0.9270056 -0.6821357,-1.4167444 -1.9589548,-1.4167444 -0.7695895,0 -1.381763,0.209888 -1.7315764,0.6121735 -0.2448694,0.2623601 -0.3498135,0.5597015 -0.3673042,1.0844216 h 0.8395523 c 0.069963,-0.6471548 0.4547575,-0.9270056 1.224347,-0.9270056 0.7520989,0 1.171875,0.2798508 1.171875,0.7695896 v 0.2273787 c 0,0.3498135 -0.2098881,0.4897388 -0.8745336,0.5771922 -1.171875,0.1399254 -1.3467817,0.1923974 -1.6791045,0.3148321 -0.5946828,0.2448694 -0.9095149,0.7171175 -0.9095149,1.3992537 0,0.94449631 0.6646455,1.53917914 1.7140858,1.53917914 0.6646456,0 1.1893657,-0.22737872791 1.7665579,-0.76958955 0.069963,0.52472015 0.3323227,0.76958955 0.8570424,0.76958955 0.174907,0 0.314833,-0.0174907 0.577193,-0.0874534 z M 9.4238069,-1.6449021 c 0,0.2798508 -0.087453,0.4547575 -0.3323228,0.68213624 -0.3323227,0.29734142 -0.7520988,0.45475746 -1.2418376,0.45475746 -0.6471549,0 -1.014459,-0.29734141 -1.014459,-0.8220616 0,-0.5597015 0.3673041,-0.8395522 1.2418377,-0.9619869 0.8920242,-0.1224347 1.066931,-0.157416 1.3467817,-0.2973414 z m 6.3403681,-1.8190298 c -0.03498,-0.5072295 -0.139925,-0.8395522 -0.332322,-1.1368937 -0.367304,-0.4897388 -0.996969,-0.7695895 -1.731577,-0.7695895 -1.399254,0 -2.308769,1.119403 -2.308769,2.8509795 0,1.67910444 0.892025,2.74603541 2.308769,2.74603541 1.241838,0 2.028918,-0.75209888 2.133862,-2.02891791 h -0.839552 c -0.139926,0.83955224 -0.559702,1.25932836 -1.276819,1.25932836 -0.909515,0 -1.469217,-0.75209886 -1.469217,-1.97644586 0,-1.3118004 0.542211,-2.08139 1.451726,-2.08139 0.699627,0 1.136894,0.4022855 1.241838,1.1368937 z m 1.495453,-3.8129664 h -0.822062 v 7.27611938209 h 0.822062 V -2.0296968 l 0.822061,-0.8045709 1.749068,2.83348878209 h 1.031949 L 18.728844,-3.4289506 l 1.81903,-1.8015391 h -1.066931 l -2.221315,2.2213153 z M 26.367895,-7.7891791e-4 27.907074,-5.2304897 h -0.944496 l -1.03195,4.0753265 -1.031949,-4.0753265 H 23.88422 l -0.996969,4.0753265 -1.066931,-4.0753265 h -0.927005 l 1.521688,5.22971078209 H 23.3595 L 24.356468,-4.0935961 25.423399,-7.7891791e-4 Z M 33.219866,-0.49051772 c -0.08745,0.0174907 -0.122435,0.0174907 -0.174907,0.0174907 -0.297341,0 -0.454758,-0.13992538 -0.454758,-0.40228545 V -3.9536707 c 0,-0.9270056 -0.682136,-1.4167444 -1.958955,-1.4167444 -0.769589,0 -1.381763,0.209888 -1.731576,0.6121735 -0.24487,0.2623601 -0.349814,0.5597015 -0.367304,1.0844216 h 0.839552 c 0.06996,-0.6471548 0.454757,-0.9270056 1.224347,-0.9270056 0.752099,0 1.171875,0.2798508 1.171875,0.7695896 v 0.2273787 c 0,0.3498135 -0.209888,0.4897388 -0.874534,0.5771922 -1.171875,0.1399254 -1.346781,0.1923974 -1.679104,0.3148321 -0.594683,0.2448694 -0.909515,0.7171175 -0.909515,1.3992537 0,0.94449631 0.664645,1.53917914 1.714086,1.53917914 0.664645,0 1.189365,-0.22737872791 1.766558,-0.76958955 0.06996,0.52472015 0.332322,0.76958955 0.857043,0.76958955 0.174906,0 0.314832,-0.0174907 0.577192,-0.0874534 z M 31.76814,-1.6449021 c 0,0.2798508 -0.08745,0.4547575 -0.332323,0.68213624 -0.332323,0.29734142 -0.752099,0.45475746 -1.241838,0.45475746 -0.647154,0 -1.014458,-0.29734141 -1.014458,-0.8220616 0,-0.5597015 0.367304,-0.8395522 1.241837,-0.9619869 0.892024,-0.1224347 1.066931,-0.157416 1.346782,-0.2973414 z m 2.339377,-3.5855876 v 5.22971078209 h 0.839552 V -2.711833 c 0,-0.7520989 0.192398,-1.2418377 0.594683,-1.5216885 0.26236,-0.1923973 0.50723,-0.26236 1.084422,-0.26236 v -0.8570429 c -0.139925,-0.017491 -0.209888,-0.017491 -0.314832,-0.017491 -0.542211,0 -0.944496,0.3148321 -1.434235,1.0844216 V -5.23049 Z m 7.569088,-2.0464086 h -0.822061 v 2.7110541 c -0.349814,-0.5247202 -0.909515,-0.8045709 -1.609142,-0.8045709 -1.346782,0 -2.238806,1.0844216 -2.238806,2.7460354 0,1.76655787 0.857043,2.85097951 2.273787,2.85097951 0.717118,0 1.206857,-0.26236007 1.661614,-0.90951492 v 0.68213619209 h 0.734608 z m -2.291278,2.6760727 c 0.892025,0 1.469217,0.8045709 1.469217,2.0464086 0,1.2068564 -0.577192,2.01142726 -1.451726,2.01142726 -0.927006,0 -1.539179,-0.82206156 -1.539179,-2.02891786 0,-1.2243471 0.612173,-2.028918 1.521688,-2.028918 z m 0,0"
       style="fill:#000000;fill-opacity:1;fill-rule:nonzero;stroke:none"
       aria-label="backward"
       transform="matrix(0.89333333,0,0,0.89333333,310.57359,61.899133)" />
    <path
       id="path136"
       d="M 350.179,87.48927 V 62.36246 h -15.30066"
       style="fill:none;stroke:#ff0000;stroke-width:1.94273;stroke-linecap:butt;stroke-linejoin:round;stroke-miterlimit:10;stroke-dasharray:none;stroke-opacity:1"
       transform="matrix(0.89333333,0,0,-0.89333333,59.953387,107.43323)" />
    <path
       id="path137"
       d="M 7.75592,0 C 5.45782,0.43088 1.72353,1.72353 -0.86176,3.23163 V -3.23163 C 1.72353,-1.72353 5.45782,-0.43088 7.75592,0"
       style="fill:#ff0000;fill-opacity:1;fill-rule:nonzero;stroke:none"
       transform="matrix(-0.89333333,0,0,0.89333333,359.11137,51.722762)" />
    <path
       id="path138"
       d="m 336.34285,71.40088 h 27.67227 v 12.07568 h -27.67227 z"
       style="fill:#ffffff;fill-opacity:1;fill-rule:nonzero;stroke:none"
       transform="matrix(0.89333333,0,0,-0.89333333,59.953387,107.43323)" />
    <path
       id="path139"
       d="m 5.1080812,-2.324687 c 0,-0.8045709 -0.052472,-1.2768191 -0.2098881,-1.6791045 -0.3323228,-0.8570429 -1.1368937,-1.3642724 -2.0988806,-1.3642724 -1.4692164,0 -2.39622201,1.119403 -2.39622201,2.8334888 0,1.71408583 0.90951491,2.76352613 2.36124071,2.76352613 1.2068563,0 2.0289179,-0.6821362 2.2388059,-1.81902983 H 4.1635849 c -0.2273787,0.69962684 -0.6996269,1.04944027 -1.3642724,1.04944027 -0.5247201,0 -0.9794776,-0.22737873 -1.2593284,-0.68213617 C 1.3475868,-1.5201161 1.2776241,-1.8174576 1.2601334,-2.324687 Z M 1.2951147,-3.0068232 c 0.069963,-0.961987 0.6471549,-1.5916511 1.4867071,-1.5916511 0.8220616,0 1.4517258,0.6646455 1.4517258,1.5216884 0,0.034981 0,0.052472 -0.017491,0.069963 z M 6.2231115,-5.2281385 V 0.00157229 H 7.0626637 V -2.7094818 c 0,-0.7520989 0.1923974,-1.2418377 0.5946828,-1.5216884 0.2623601,-0.1923974 0.5072295,-0.2623601 1.0844217,-0.2623601 v -0.8570429 c -0.1399254,-0.017491 -0.2098881,-0.017491 -0.3148321,-0.017491 -0.5422108,0 -0.9444963,0.3148321 -1.4342351,1.0844216 v -0.9444962 z m 3.3144822,0 V 0.00157229 H 10.377146 V -2.7094818 c 0,-0.7520989 0.192397,-1.2418377 0.594683,-1.5216884 0.26236,-0.1923974 0.507229,-0.2623601 1.084421,-0.2623601 v -0.8570429 c -0.139925,-0.017491 -0.209888,-0.017491 -0.314832,-0.017491 -0.54221,0 -0.944496,0.3148321 -1.434235,1.0844216 v -0.9444962 z m 5.3477733,-0.1399254 c -1.469217,0 -2.34375,1.0494403 -2.34375,2.7985075 0,1.74906713 0.874533,2.79850743 2.36124,2.79850743 1.451726,0 2.361241,-1.0494403 2.361241,-2.76352613 0,-1.8015392 -0.874534,-2.8334888 -2.378731,-2.8334888 z m 0.01749,0.7695896 c 0.927006,0 1.486707,0.7695895 1.486707,2.0638992 0,1.224347 -0.577192,1.99393657 -1.486707,1.99393657 -0.927005,0 -1.504197,-0.76958957 -1.504197,-2.02891787 0,-1.2593284 0.577192,-2.0289179 1.504197,-2.0289179 z m 3.493762,-0.6296642 v 5.22971079 h 0.839552 V -2.7094818 c 0,-0.7520989 0.192398,-1.2418377 0.594683,-1.5216884 0.26236,-0.1923974 0.507229,-0.2623601 1.084422,-0.2623601 v -0.8570429 c -0.139926,-0.017491 -0.209888,-0.017491 -0.314832,-0.017491 -0.542211,0 -0.944497,0.3148321 -1.434236,1.0844216 v -0.9444962 z m 0,0"
       style="fill:#ff0000;fill-opacity:1;fill-rule:nonzero;stroke:none"
       aria-label="error"
       transform="matrix(0.89333333,0,0,0.89333333,363.38209,40.580627)" />
  </g>
</svg>
