<?xml version="1.0" encoding="UTF-8"?>
<!DOCTYPE svg PUBLIC "-//W3C//DTD SVG 1.1//EN"
  "http://www.w3.org/Graphics/SVG/1.1/DTD/svg11.dtd">
<svg xmlns:xlink="http://www.w3.org/1999/xlink" width="75.42pt" height="61.092pt" viewBox="0 0 75.42 61.092" xmlns="http://www.w3.org/2000/svg" version="1.1">
 <metadata>
  <rdf:RDF xmlns:dc="http://purl.org/dc/elements/1.1/" xmlns:cc="http://creativecommons.org/ns#" xmlns:rdf="http://www.w3.org/1999/02/22-rdf-syntax-ns#">
   <cc:Work>
    <dc:type rdf:resource="http://purl.org/dc/dcmitype/StillImage"/>
    <dc:format>image/svg+xml</dc:format>
    <dc:creator>
     <cc:Agent>
      <dc:title>Matplotlib v3.10.8, https://matplotlib.org/</dc:title>
     </cc:Agent>
    </dc:creator>
   </cc:Work>
  </rdf:RDF>
 </metadata>
 <defs>
  <style type="text/css">*{stroke-linejoin: round; stroke-linecap: butt}</style>
 </defs>
 <g id="figure_1">
  <g id="patch_1">
   <path d="M 0 61.092
L 75.42 61.092
L 75.42 0
L 0 0
z
" style="fill: #ffffff"/>
  </g>
  <g id="axes_1">
   <g id="patch_2">
    <path d="M 1.44 59.652
L 73.98 59.652
L 73.98 1.44
L 1.44 1.44
z
" style="fill: #ffffff"/>
   </g>
   <g id="matplotlib.axis_1"/>
   <g id="matplotlib.axis_2"/>
   <g id="line2d_1">
    <path d="M 1.44 58.035
L 18.058586 57.554464
L 29.373368 57.022409
L 37.505867 56.4361
L 43.516845 55.801539
L 48.113475 55.11729
L 52.002932 54.314747
L 52.002932 54.314747
" clip-path="url(#p69016035c6)" style="fill: none; stroke: #008f45; stroke-width: 1.35; stroke-linecap: square"/>
   </g>
   <g id="line2d_2">
    <path d="M 52.356519 54.227472
L 52.710106 54.137296
L 53.063692 54.04407
L 53.417279 53.947639
L 53.770866 53.847833
L 54.124453 53.744473
L 54.47804 53.637364
L 54.831627 53.5263
L 55.185214 53.411057
L 55.538801 53.291395
L 55.892388 53.167054
L 56.245975 53.037755
L 56.599562 52.903195
L 56.953149 52.763047
L 57.306736 52.616954
L 57.660323 52.464531
L 58.01391 52.305356
L 58.367496 52.138972
L 58.721083 51.964876
L 59.07467 51.782521
L 59.428257 51.591304
L 59.781844 51.390562
L 60.135431 51.179567
L 60.489018 50.957512
L 60.842605 50.723504
L 61.196192 50.476551
L 61.549779 50.215548
L 61.903366 49.939262
L 62.256953 49.64631
L 62.61054 49.335136
L 62.964127 49.003985
L 63.317714 48.650872
L 63.671301 48.273535
L 64.024887 47.869393
L 64.378474 47.435485
L 64.732061 46.968397
L 65.085648 46.464172
L 65.439235 45.918197
L 65.792822 45.325063
L 66.146409 44.678384
L 66.499996 43.970567
L 66.853583 43.192512
L 67.20717 42.333216
L 67.560757 41.379257
L 67.914344 40.314079
L 68.267931 39.117029
L 68.621518 37.762
L 68.975105 36.215511
L 69.328691 34.433897
L 69.682278 32.359125
L 70.035865 29.912351
L 70.389452 26.983675
L 70.743039 23.415176
L 71.096626 18.971469
L 71.450213 13.285573
L 71.8038 5.752
" clip-path="url(#p69016035c6)" style="fill: none; stroke: #cb202d; stroke-width: 1.35; stroke-linecap: square"/>
   </g>
   <g id="patch_3">
    <path d="M 1.44 59.652
L 1.44 1.44
" style="fill: none; stroke: #cccccc; stroke-width: 0.55; stroke-linejoin: miter; stroke-linecap: square"/>
   </g>
   <g id="patch_4">
    <path d="M 1.44 59.652
L 73.98 59.652
" style="fill: none; stroke: #cccccc; stroke-width: 0.55; stroke-linejoin: miter; stroke-linecap: square"/>
   </g>
  </g>
 </g>
 <defs>
  <clipPath id="p69016035c6">
   <rect x="1.44" y="1.44" width="72.54" height="58.212"/>
  </clipPath>
 </defs>
</svg>
